<?xml version="1.0" encoding="UTF-8" standalone="no"?>
<!DOCTYPE svg PUBLIC "-//W3C//DTD SVG 20010904//EN" "http://www.w3.org/TR/2001/REC-SVG-20010904/DTD/svg10.dtd"[]>
<svg version="1.1" id="Frosty Editor v1.0.6.3" xmlns="http://www.w3.org/2000/svg" d1p1:xlink="http://www.w3.org/1999/xlink" viewBox="0 0 384 96" xmlns:d1p1="xmlns">
  <path stroke="none" fill="#ffffffff" d="M 333.840,82.112 C 334.622,81.274 335.110,80.159 335.110,78.925 335.110,76.341 333.008,74.239 330.424,74.239 329.584,74.239 328.772,74.472 328.053,74.896 325.080,76.085 325.080,76.085 325.080,76.085 310.167,76.085 310.167,76.085 310.167,76.085 309.763,75.444 309.763,75.444 309.763,75.444 318.780,75.444 318.780,75.444 318.780,75.444 318.780,72.575 318.780,72.575 318.780,72.575 322.698,72.575 322.698,72.575 322.698,72.575 322.698,65.834 322.698,65.834 322.698,65.834 322.745,65.834 322.745,65.834 322.745,65.834 322.745,57.495 322.745,57.495 322.745,57.495 318.826,57.495 318.826,57.495 318.826,57.495 318.826,54.626 318.826,54.626 318.826,54.626 305.451,54.626 305.451,54.626 305.451,54.626 304.870,53.983 303.932,53.567 302.844,53.567 301.756,53.567 300.819,53.983 300.237,54.626 287.330,54.626 287.330,54.626 287.330,54.626 287.330,54.613 287.330,54.613 287.330,54.613 257.450,54.613 257.450,54.613 257.450,54.613 256.354,53.517 256.354,53.517 256.354,53.517 260.280,53.517 260.280,53.517 260.280,53.517 260.280,51.276 260.280,51.276 260.280,51.276 278.508,51.276 278.508,51.276 278.508,51.276 278.508,52.540 278.508,52.540 278.508,52.540 290.272,52.540 290.272,52.540 290.272,52.540 290.272,51.908 290.272,51.908 290.272,51.908 291.991,51.908 291.991,51.908 291.991,51.908 291.991,54.023 291.991,54.023 291.991,54.023 299.980,54.023 299.980,54.023 299.980,54.023 299.980,49.101 299.980,49.101 299.980,49.101 308.643,49.101 308.643,49.101 308.643,49.101 308.643,50.415 308.643,50.415 308.643,50.415 309.333,50.415 309.333,50.415 309.333,50.415 309.333,51.072 309.333,51.072 309.333,51.072 311.758,53.497 311.758,53.497 311.758,53.497 314.918,53.497 314.918,53.497 314.918,53.497 317.072,51.343 317.072,51.343 317.072,51.343 317.072,50.491 317.072,50.491 317.072,50.491 318.678,50.491 318.678,50.491 318.678,50.491 318.678,44.555 318.678,44.555 318.678,44.555 325.656,43.291 325.656,43.291 325.656,43.291 325.656,40.143 325.656,40.143 325.656,40.143 325.656,36.995 325.656,36.995 325.656,36.995 318.678,35.731 318.678,35.731 318.678,35.731 318.678,29.795 318.678,29.795 318.678,29.795 317.072,29.795 317.072,29.795 317.072,29.795 317.072,28.944 317.072,28.944 317.072,28.944 314.918,26.790 314.918,26.790 314.918,26.790 311.758,26.790 311.758,26.790 311.758,26.790 309.333,29.214 309.333,29.214 309.333,29.214 309.333,29.836 309.333,29.836 309.333,29.836 308.643,29.872 308.643,29.872 308.643,29.872 308.643,31.186 308.643,31.186 308.643,31.186 299.980,31.186 299.980,31.186 299.980,31.186 299.980,26.265 299.980,26.265 299.980,26.265 291.991,26.265 291.991,26.265 291.991,26.265 291.991,28.380 291.991,28.380 291.991,28.380 290.272,28.380 290.272,28.380 290.272,28.380 290.272,27.748 290.272,27.748 290.272,27.748 278.508,27.748 278.508,27.748 278.508,27.748 278.508,29.012 278.508,29.012 278.508,29.012 260.070,29.012 260.070,29.012 260.070,29.012 260.070,26.762 260.070,26.762 260.070,26.762 252.477,26.762 252.477,26.762 252.477,26.762 252.477,28.052 252.477,28.052 252.477,28.052 251.079,28.052 251.079,28.052 251.079,28.052 251.079,27.158 251.079,27.158 251.079,27.158 251.559,27.158 251.559,27.158 251.559,27.158 251.559,19.760 251.559,19.760 251.559,19.760 246.544,19.760 246.544,19.760 246.544,19.760 246.530,19.708 246.530,19.708 246.530,19.708 246.325,19.778 246.325,19.778 246.325,19.778 246.325,18.613 246.325,18.613 246.325,18.613 253.429,18.613 253.429,18.613 253.429,18.613 253.429,16.742 253.429,16.742 253.429,16.742 254.567,16.742 254.567,16.742 254.567,16.742 254.567,15.832 254.567,15.832 254.567,15.832 261.013,15.832 261.013,15.832 261.013,15.832 261.013,2.898 261.013,2.898 261.013,2.898 253.531,2.898 253.531,2.898 253.531,2.898 253.531,2.392 253.531,2.392 253.531,2.392 245.500,2.392 245.500,2.392 245.500,2.392 245.500,3.348 245.500,3.348 245.500,3.348 243.770,3.934 243.770,3.934 243.770,3.934 238.414,3.934 238.414,3.934 238.414,3.934 238.414,2.392 238.414,2.392 238.414,2.392 228.715,2.392 228.715,2.392 228.715,2.392 228.715,3.985 228.715,3.985 228.715,3.985 222.997,3.985 222.997,3.985 222.997,3.985 220.692,3.055 220.692,3.055 220.692,3.055 220.692,2.392 220.692,2.392 220.692,2.392 212.585,2.392 212.585,2.392 212.585,2.392 212.585,2.771 212.585,2.771 212.585,2.771 212.240,2.771 212.240,2.771 212.240,2.771 211.513,2.252 211.513,2.252 211.513,2.252 208.020,3.241 208.020,3.241 208.020,3.241 207.852,3.163 207.670,3.113 207.474,3.113 206.786,3.113 206.237,3.651 206.185,4.326 206.133,3.652 205.582,3.113 204.895,3.113 204.196,3.113 203.636,3.667 203.600,4.357 203.564,3.667 203.003,3.113 202.305,3.113 201.618,3.113 201.069,3.650 201.015,4.323 200.966,3.700 200.486,3.213 199.869,3.142 199.662,2.950 197.892,1.368 195.614,1.175 195.377,1.164 194.121,1.160 192.910,2.312 191.502,3.649 190.777,5.966 190.741,9.187 190.734,9.187 190.734,9.187 190.734,9.187 190.734,9.225 190.738,9.256 190.738,9.293 190.738,9.340 190.734,9.383 190.734,9.431 190.743,9.431 190.743,9.431 190.743,9.431 190.840,17.024 195.245,17.429 195.434,17.442 195.549,17.450 195.549,17.450 195.549,17.450 195.664,17.440 195.664,17.440 195.664,17.440 197.758,17.262 199.428,15.837 199.809,15.488 200.455,15.444 200.963,14.939 201.014,14.295 201.067,14.968 201.617,15.505 202.304,15.505 203.003,15.505 203.563,14.951 203.599,14.261 203.635,14.951 204.196,15.505 204.894,15.505 205.582,15.505 206.132,14.967 206.184,14.292 206.236,14.966 206.786,15.505 207.473,15.505 207.610,15.505 207.735,15.466 207.859,15.427 211.537,16.331 211.537,16.331 211.537,16.331 212.238,15.831 212.238,15.831 212.238,15.831 212.597,15.831 212.597,15.831 212.597,15.831 212.623,18.473 212.623,18.473 212.623,18.473 219.713,18.473 219.713,18.473 219.713,18.473 219.713,19.619 219.713,19.619 219.713,19.619 214.480,19.619 214.480,19.619 214.480,19.619 214.480,25.522 214.480,25.522 214.480,25.522 213.088,25.522 213.088,25.522 213.088,25.522 212.586,24.626 211.479,24.014 210.155,24.014 208.831,24.014 207.724,24.626 207.222,25.522 200.576,25.522 200.576,25.522 200.576,25.522 200.576,28.252 200.576,28.252 200.576,28.252 179.964,28.252 179.964,28.252 179.964,28.252 179.935,25.572 179.935,25.572 179.935,25.572 181.327,25.572 181.327,25.572 181.327,25.572 181.327,23.771 181.327,23.771 181.327,23.771 181.327,22.252 181.327,22.252 181.327,22.252 181.327,16.021 181.327,16.021 181.327,16.021 179.014,16.021 179.014,16.021 179.014,16.021 179.014,14.024 179.014,14.024 179.014,14.024 172.323,14.024 172.323,14.024 172.323,14.024 172.323,16.046 172.323,16.046 172.323,16.046 164.490,16.044 164.490,16.044 164.490,16.044 164.490,17.544 164.490,17.544 164.490,17.544 164.490,16.044 164.490,16.044 164.490,16.044 162.400,16.044 162.400,16.044 162.400,16.044 162.400,14.047 162.400,14.047 162.400,14.047 155.709,14.047 155.709,14.047 155.709,14.047 155.709,16.069 155.709,16.069 155.709,16.069 129.550,16.069 129.550,16.069 129.550,16.069 129.550,17.839 129.550,17.839 129.550,17.839 61.164,17.839 61.164,17.839 61.164,17.839 60.179,16.506 60.179,16.506 60.179,16.506 48.889,16.506 48.889,16.506 48.889,16.506 48.889,86.517 48.889,86.517 48.889,86.517 60.494,86.517 60.494,86.517 60.494,86.517 66.415,59.586 66.415,59.586 66.415,59.586 66.450,52.640 66.450,52.640 66.450,52.640 82.057,52.640 82.057,52.640 82.057,52.640 82.057,55.573 82.057,55.573 82.057,55.573 91.664,55.573 91.664,55.573 91.664,55.573 91.664,52.893 91.664,52.893 91.664,52.893 112.610,52.893 112.610,52.893 112.610,52.893 112.610,55.539 112.610,55.539 112.610,55.539 119.824,55.539 119.824,55.539 119.824,55.539 119.824,52.893 119.824,52.893 119.824,52.893 122.237,52.893 122.237,52.893 122.237,52.893 122.237,55.623 122.237,55.623 122.237,55.623 128.810,55.623 128.810,55.623 128.810,55.623 128.810,56.027 128.810,56.027 128.810,56.027 133.600,56.027 133.600,56.027 133.600,56.027 133.428,56.348 133.428,56.348 133.428,56.348 133.428,65.345 133.428,65.345 133.428,65.345 126.924,80.637 126.924,80.637 126.924,80.637 126.880,80.753 126.880,80.753 126.880,80.753 125.018,86.391 125.390,88.544 125.484,88.919 125.669,89.658 125.669,89.658 125.669,89.658 140.258,95.581 140.258,95.581 140.258,95.581 140.715,95.479 140.715,95.479 140.715,95.479 140.947,95.428 143.013,94.916 144.065,92.837 144.860,91.268 144.817,89.323 143.940,87.051 150.384,72.179 150.384,72.179 150.384,72.179 150.382,65.788 150.382,65.788 150.382,65.788 150.385,65.740 150.392,65.675 150.401,65.602 151.728,67.542 153.935,70.016 156.566,70.016 156.727,70.016 156.892,70.004 157.056,69.985 157.059,69.987 157.061,69.989 157.063,69.990 157.067,69.984 157.067,69.984 157.067,69.984 157.076,69.983 157.085,69.984 157.094,69.982 157.090,69.950 157.090,69.950 157.090,69.950 157.896,68.742 157.896,68.742 157.896,68.742 155.060,66.847 154.276,63.971 154.064,62.334 154.744,62.126 155.411,61.961 156.044,61.890 165.773,61.890 165.773,61.890 165.773,61.890 165.482,60.144 165.482,60.144 165.482,60.144 165.482,60.140 165.463,59.790 165.597,59.630 165.704,59.501 166.007,59.419 166.379,59.412 171.646,59.412 171.646,59.412 171.646,59.412 171.646,55.216 171.646,55.216 171.646,55.216 172.186,55.216 172.186,55.216 172.186,55.216 172.186,56.050 172.186,56.050 172.186,56.050 178.852,56.050 178.852,56.050 178.852,56.050 178.852,55.216 178.852,55.216 178.852,55.216 179.889,55.216 179.889,55.216 179.889,55.216 179.889,52.840 179.889,52.840 179.889,52.840 200.552,52.840 200.552,52.840 200.552,52.840 200.552,55.241 200.552,55.241 200.552,55.241 206.691,55.241 206.691,55.241 206.691,55.241 207.205,56.112 208.293,56.705 209.594,56.705 210.865,56.705 211.930,56.137 212.458,55.300 215.533,55.300 215.533,55.300 215.533,55.300 215.197,58.752 215.090,66.465 219.774,72.059 223.291,76.258 228.686,78.338 235.907,78.247 238.457,78.214 241.268,77.901 244.263,77.318 244.461,77.264 244.461,77.264 244.461,77.264 245.239,76.998 246.399,76.333 247.119,75.237 247.119,76.478 247.119,76.478 247.119,76.478 255.840,76.478 255.840,76.478 255.840,76.478 257.444,74.873 257.444,74.873 257.444,74.873 286.729,74.873 286.729,74.873 286.729,74.873 298.030,85.503 298.030,85.503 298.030,85.503 330.468,85.503 330.468,85.503 330.468,85.503 333.726,82.245 333.726,82.245 333.726,82.245 333.735,82.237 333.743,82.228 333.752,82.219 333.854,82.117 333.854,82.117 333.854,82.117 333.840,82.112 333.840,82.112 333.840,82.112 Z M 195.594,14.429 C 194.896,14.200 193.753,12.891 193.735,9.268 193.769,5.326 194.978,4.269 195.500,4.179 196.469,4.300 197.458,5.018 197.799,5.319 197.799,13.262 197.799,13.262 197.799,13.262 197.476,13.560 196.533,14.272 195.594,14.429 Z M 200.033,14.198 C 200.033,14.365 199.891,14.507 199.723,14.507 199.556,14.507 199.414,14.365 199.414,14.198 199.414,4.423 199.414,4.423 199.414,4.423 199.414,4.256 199.556,4.114 199.723,4.114 199.891,4.114 200.033,4.256 200.033,4.423 200.033,14.198 200.033,14.198 200.033,14.198 Z M 202.611,14.198 C 202.611,14.365 202.469,14.507 202.302,14.507 202.134,14.507 201.992,14.365 201.992,14.198 201.992,4.423 201.992,4.423 201.992,4.423 201.992,4.256 202.134,4.114 202.302,4.114 202.469,4.114 202.611,4.256 202.611,4.423 202.611,14.198 202.611,14.198 202.611,14.198 Z M 205.203,14.198 C 205.203,14.365 205.061,14.507 204.893,14.507 204.726,14.507 204.584,14.365 204.584,14.198 204.584,4.423 204.584,4.423 204.584,4.423 204.584,4.256 204.726,4.114 204.893,4.114 205.061,4.114 205.203,4.256 205.203,4.423 205.203,14.198 205.203,14.198 205.203,14.198 Z M 114.799,54.650 C 114.335,54.650 113.958,54.292 113.958,53.850 113.958,53.408 114.335,53.050 114.799,53.050 115.263,53.050 115.640,53.408 115.640,53.850 115.640,54.292 115.264,54.650 114.799,54.650 Z M 117.579,54.650 C 117.115,54.650 116.738,54.292 116.738,53.850 116.738,53.408 117.115,53.050 117.579,53.050 118.043,53.050 118.420,53.408 118.420,53.850 118.420,54.292 118.044,54.650 117.579,54.650 Z M 330.425,77.240 C 331.355,77.240 332.111,77.996 332.111,78.926 332.111,79.380 331.929,79.792 331.635,80.095 331.594,80.136 331.594,80.136 331.594,80.136 331.291,80.429 330.879,80.612 330.425,80.612 329.495,80.612 328.739,79.856 328.739,78.926 328.739,78.358 329.023,77.830 329.500,77.517 329.775,77.336 330.094,77.240 330.425,77.240 Z M 300.510,71.025 C 300.510,59.159 300.510,59.159 300.510,59.159 303.091,58.725 303.091,58.725 303.091,58.725 303.404,58.706 303.703,58.658 303.983,58.575 309.523,57.645 309.523,57.645 309.523,57.645 309.520,57.626 309.520,57.626 309.520,57.626 313.622,57.626 313.622,57.626 313.622,57.626 313.622,72.444 313.622,72.444 313.622,72.444 304.861,72.444 304.861,72.444 304.861,72.444 300.510,71.025 300.510,71.025 300.510,71.025 Z M 286.531,57.627 C 286.531,71.877 286.531,71.877 286.531,71.877 284.228,71.877 284.228,71.877 284.228,71.877 284.228,57.627 284.228,57.627 284.228,57.627 286.531,57.627 286.531,57.627 286.531,57.627 Z M 288.130,72.078 C 288.130,57.627 288.130,57.627 288.130,57.627 300.176,57.627 300.176,57.627 300.176,57.627 300.193,57.648 300.216,57.664 300.235,57.684 299.010,57.890 299.010,57.890 299.010,57.890 299.010,72.114 299.010,72.114 299.010,72.114 302.324,73.196 302.324,73.196 302.324,73.196 289.317,73.196 289.317,73.196 289.317,73.196 288.130,72.078 288.130,72.078 288.130,72.078 Z M 319.745,60.496 C 319.745,64.237 319.745,64.237 319.745,64.237 319.698,64.237 319.698,64.237 319.698,64.237 319.698,69.576 319.698,69.576 319.698,69.576 318.700,69.576 318.700,69.576 318.700,69.576 318.700,60.496 318.700,60.496 318.700,60.496 319.745,60.496 319.745,60.496 319.745,60.496 Z M 317.200,60.321 C 317.200,69.705 317.200,69.705 317.200,69.705 315.780,71.125 315.780,71.125 315.780,71.125 315.780,72.445 315.780,72.445 315.780,72.445 315.222,72.445 315.222,72.445 315.222,72.445 315.222,57.627 315.222,57.627 315.222,57.627 315.826,57.627 315.826,57.627 315.826,57.627 315.826,58.947 315.826,58.947 315.826,58.947 317.200,60.321 317.200,60.321 317.200,60.321 Z M 302.844,55.568 C 303.604,55.568 304.069,55.949 304.069,56.157 304.069,56.364 303.604,56.745 302.844,56.745 302.084,56.745 301.619,56.364 301.619,56.157 301.620,55.949 302.084,55.568 302.844,55.568 Z M 252.685,53.009 C 250.125,53.009 250.125,53.009 250.125,53.009 250.125,52.592 250.125,52.592 250.125,52.592 252.449,52.592 252.449,52.592 252.449,52.592 252.683,52.358 252.683,52.358 252.683,52.358 252.685,53.009 252.685,53.009 252.685,53.009 Z M 257.280,50.519 C 255.687,50.519 255.687,50.519 255.687,50.519 255.687,47.865 255.687,47.865 255.687,47.865 255.055,47.865 255.055,47.865 255.055,47.865 255.055,41.890 255.055,41.890 255.055,41.890 257.819,41.890 257.819,41.890 257.819,41.890 257.819,48.269 257.819,48.269 257.819,48.269 257.280,48.269 257.280,48.269 257.280,48.269 257.280,50.519 257.280,50.519 257.280,50.519 Z M 296.979,51.025 C 294.990,51.025 294.990,51.025 294.990,51.025 294.990,48.910 294.990,48.910 294.990,48.910 294.746,48.910 294.746,48.910 294.746,48.910 294.746,41.890 294.746,41.890 294.746,41.890 297.729,41.890 297.729,41.890 297.729,41.890 297.729,46.100 297.729,46.100 297.729,46.100 296.979,46.102 296.979,46.102 296.979,46.102 296.979,51.025 296.979,51.025 296.979,51.025 Z M 307.121,46.072 C 306.270,46.075 306.270,46.075 306.270,46.075 306.270,34.187 306.270,34.187 306.270,34.187 307.121,34.187 307.121,34.187 307.121,34.187 307.121,46.072 307.121,46.072 307.121,46.072 Z M 305.520,46.077 C 304.550,46.080 304.550,46.080 304.550,46.080 304.550,34.187 304.550,34.187 304.550,34.187 305.520,34.187 305.520,34.187 305.520,34.187 305.520,46.077 305.520,46.077 305.520,46.077 Z M 303.800,46.082 C 302.797,46.085 302.797,46.085 302.797,46.085 302.797,34.187 302.797,34.187 302.797,34.187 303.800,34.187 303.800,34.187 303.800,34.187 303.800,46.082 303.800,46.082 303.800,46.082 Z M 302.047,46.088 C 301.045,46.091 301.045,46.091 301.045,46.091 301.045,34.187 301.045,34.187 301.045,34.187 302.047,34.187 302.047,34.187 302.047,34.187 302.047,46.088 302.047,46.088 302.047,46.088 Z M 311.570,45.631 C 310.956,45.631 310.956,45.631 310.956,45.631 310.956,34.659 310.956,34.659 310.956,34.659 311.570,34.659 311.570,34.659 311.570,34.659 311.570,45.631 311.570,45.631 311.570,45.631 Z M 310.206,45.631 C 309.338,45.631 309.338,45.631 309.338,45.631 309.338,34.659 309.338,34.659 309.338,34.659 310.206,34.659 310.206,34.659 310.206,34.659 310.206,45.631 310.206,45.631 310.206,45.631 Z M 316.037,38.302 C 316.708,38.424 316.708,38.424 316.708,38.424 316.708,41.867 316.708,41.867 316.708,41.867 316.037,41.989 316.037,41.989 316.037,41.989 316.037,38.302 316.037,38.302 316.037,38.302 Z M 322.656,39.502 C 322.656,40.146 322.656,40.146 322.656,40.146 322.656,40.790 322.656,40.790 322.656,40.790 318.208,41.596 318.208,41.596 318.208,41.596 318.208,38.697 318.208,38.697 318.208,38.697 322.656,39.502 322.656,39.502 322.656,39.502 Z M 315.287,32.796 C 315.287,47.493 315.287,47.493 315.287,47.493 314.798,47.493 314.798,47.493 314.798,47.493 314.798,32.796 314.798,32.796 314.798,32.796 315.287,32.796 315.287,32.796 315.287,32.796 Z M 314.047,30.163 C 314.047,50.127 314.047,50.127 314.047,50.127 313.675,50.499 313.675,50.499 313.675,50.499 313.559,50.499 313.559,50.499 313.559,50.499 313.559,29.791 313.559,29.791 313.559,29.791 313.675,29.791 313.675,29.791 313.675,29.791 314.047,30.163 314.047,30.163 314.047,30.163 Z M 312.333,32.873 C 312.333,30.458 312.333,30.458 312.333,30.458 312.810,29.981 312.810,29.981 312.810,29.981 312.810,50.308 312.810,50.308 312.810,50.308 312.333,49.831 312.333,49.831 312.333,49.831 312.333,47.416 312.333,47.416 312.333,47.416 312.320,47.416 312.320,47.416 312.320,47.416 312.320,32.889 312.320,32.889 312.320,32.889 311.642,32.889 311.642,32.889 311.642,32.889 311.642,32.872 311.642,32.872 311.642,32.872 312.333,32.872 312.333,32.872 312.333,32.872 Z M 308.587,34.659 C 308.587,45.631 308.587,45.631 308.587,45.631 308.239,45.631 308.239,45.631 308.239,45.631 307.871,46.000 307.871,46.000 307.871,46.000 307.871,34.290 307.871,34.290 307.871,34.290 308.240,34.659 308.240,34.659 308.240,34.659 308.587,34.659 308.587,34.659 308.587,34.659 Z M 300.295,34.187 C 300.295,46.093 300.295,46.093 300.295,46.093 299.229,46.096 299.229,46.096 299.229,46.096 299.229,34.187 299.229,34.187 299.229,34.187 300.295,34.187 300.295,34.187 300.295,34.187 Z M 294.990,29.266 C 296.979,29.266 296.979,29.266 296.979,29.266 296.979,34.187 296.979,34.187 296.979,34.187 297.729,34.187 297.729,34.187 297.729,34.187 297.729,38.889 297.729,38.889 297.729,38.889 294.746,38.889 294.746,38.889 294.746,38.889 294.746,31.381 294.746,31.381 294.746,31.381 294.990,31.381 294.990,31.381 294.990,31.381 294.990,29.266 294.990,29.266 294.990,29.266 Z M 293.246,31.381 C 293.246,48.909 293.246,48.909 293.246,48.909 290.348,48.909 290.348,48.909 290.348,48.909 290.348,31.381 290.348,31.381 290.348,31.381 293.246,31.381 293.246,31.381 293.246,31.381 Z M 288.847,31.381 C 288.847,48.909 288.847,48.909 288.847,48.909 287.271,48.909 287.271,48.909 287.271,48.909 287.271,49.541 287.271,49.541 287.271,49.541 285.456,49.541 285.456,49.541 285.456,49.541 285.456,30.749 285.456,30.749 285.456,30.749 287.271,30.749 287.271,30.749 287.271,30.749 287.271,31.381 287.271,31.381 287.271,31.381 288.847,31.381 288.847,31.381 288.847,31.381 Z M 281.507,30.749 C 283.955,30.749 283.955,30.749 283.955,30.749 283.955,49.541 283.955,49.541 283.955,49.541 281.507,49.541 281.507,49.541 281.507,49.541 281.507,48.277 281.507,48.277 281.507,48.277 281.094,48.277 281.094,48.277 281.094,48.277 281.094,32.013 281.094,32.013 281.094,32.013 281.507,32.013 281.507,32.013 281.507,32.013 281.507,30.749 281.507,30.749 281.507,30.749 Z M 279.594,32.013 C 279.594,48.269 279.594,48.269 279.594,48.269 259.319,48.269 259.319,48.269 259.319,48.269 259.319,32.013 259.319,32.013 259.319,32.013 279.594,32.013 279.594,32.013 279.594,32.013 Z M 255.476,29.763 C 257.069,29.763 257.069,29.763 257.069,29.763 257.069,32.013 257.069,32.013 257.069,32.013 257.819,32.013 257.819,32.013 257.819,32.013 257.819,38.889 257.819,38.889 257.819,38.889 255.055,38.889 255.055,38.889 255.055,38.889 255.055,32.417 255.055,32.417 255.055,32.417 255.476,32.417 255.476,32.417 255.476,32.417 255.476,29.763 255.476,29.763 255.476,29.763 Z M 251.547,32.418 C 253.555,32.418 253.555,32.418 253.555,32.418 253.555,47.865 253.555,47.865 253.555,47.865 252.670,47.865 252.670,47.865 252.670,47.865 252.670,47.886 252.670,47.886 252.670,47.886 252.669,47.885 252.669,47.885 252.669,47.885 251.500,49.297 251.500,49.297 251.500,49.297 251.205,49.592 251.205,49.592 251.205,49.592 249.594,49.592 249.594,49.592 249.594,49.592 249.594,31.052 249.594,31.052 249.594,31.052 250.839,31.052 250.839,31.052 250.839,31.052 251.547,32.418 251.547,32.418 251.547,32.418 Z M 237.384,73.842 C 237.956,73.734 238.517,73.595 239.063,73.419 239.063,75.058 239.063,75.058 239.063,75.058 238.493,75.114 237.931,75.161 237.384,75.192 237.384,73.842 237.384,73.842 237.384,73.842 Z M 234.788,71.093 C 230.352,71.093 226.356,68.344 224.665,64.339 226.108,64.339 226.108,64.339 226.108,64.339 226.108,56.687 226.108,56.687 226.108,56.687 223.799,56.687 223.799,56.687 223.799,56.687 223.799,55.786 223.799,55.786 223.799,55.786 225.373,55.777 227.672,55.759 230.290,55.738 235.257,55.699 241.311,55.651 245.776,55.641 245.776,60.105 245.776,60.105 245.776,60.105 245.777,66.163 240.847,71.093 234.788,71.093 Z M 230.267,52.737 C 228.281,52.752 226.493,52.767 225.053,52.776 222.457,52.647 222.457,52.647 222.457,52.647 220.571,52.447 220.571,52.447 220.571,52.447 220.571,27.024 220.571,27.024 220.571,27.024 221.321,27.024 221.321,27.024 221.321,27.024 221.321,26.195 221.321,26.195 221.321,26.195 224.026,26.195 224.026,26.195 224.026,26.195 224.026,27.395 224.026,27.395 224.026,27.395 245.068,27.395 245.068,27.395 245.068,27.395 245.068,26.358 245.068,26.358 245.068,26.358 248.077,26.358 248.077,26.358 248.077,26.358 248.077,31.052 248.077,31.052 248.077,31.052 248.094,31.052 248.094,31.052 248.094,31.052 248.094,49.592 248.094,49.592 248.094,49.592 247.125,49.592 247.125,49.592 247.125,49.592 247.125,52.639 247.125,52.639 247.125,52.639 242.581,52.640 235.763,52.694 230.267,52.737 Z M 242.937,9.139 C 243.344,7.980 245.120,7.061 245.977,6.716 246.026,12.164 246.026,12.164 246.026,12.164 245.187,11.834 243.350,10.898 242.936,9.720 242.936,9.139 242.936,9.139 242.936,9.139 Z M 243.424,20.737 C 243.500,20.934 243.591,21.106 243.686,21.269 241.091,21.269 241.091,21.269 241.091,21.269 241.091,25.295 241.091,25.295 241.091,25.295 241.841,25.295 241.841,25.295 241.841,25.295 241.841,25.297 241.841,25.297 241.841,25.297 243.569,25.297 243.569,25.297 243.569,25.297 243.569,25.609 243.569,25.609 243.569,25.609 243.569,25.896 243.569,25.896 243.569,25.896 225.527,25.896 225.527,25.896 225.527,25.896 225.527,25.446 225.527,25.446 225.527,25.446 225.527,24.696 225.527,24.696 225.527,24.696 225.527,21.270 225.527,21.270 225.527,21.270 222.269,21.270 222.269,21.270 222.269,21.270 222.397,21.072 222.515,20.853 222.613,20.599 222.713,20.339 222.713,20.339 222.713,20.339 222.713,13.778 222.713,13.778 222.713,13.778 224.496,13.926 224.496,13.926 224.496,13.926 241.293,13.924 241.293,13.924 241.293,13.924 243.081,13.770 243.081,13.770 243.081,13.770 243.325,13.770 243.325,13.770 243.325,13.770 243.325,20.478 243.325,20.478 243.325,20.478 243.424,20.737 243.424,20.737 243.424,20.737 Z M 221.322,22.769 C 224.027,22.769 224.027,22.769 224.027,22.769 224.027,24.695 224.027,24.695 224.027,24.695 221.322,24.695 221.322,24.695 221.322,24.695 221.322,22.769 221.322,22.769 221.322,22.769 Z M 219.698,12.165 C 219.747,6.717 219.747,6.717 219.747,6.717 220.604,7.061 222.380,7.981 222.787,9.140 222.787,9.722 222.787,9.722 222.787,9.722 222.373,10.900 220.537,11.835 219.698,12.165 Z M 248.558,24.159 C 248.078,24.159 248.078,24.159 248.078,24.159 248.078,24.859 248.078,24.859 248.078,24.859 245.069,24.859 245.069,24.859 245.069,24.859 245.069,23.797 245.069,23.797 245.069,23.797 242.591,23.797 242.591,23.797 242.591,23.797 242.591,22.769 242.591,22.769 242.591,22.769 246.121,22.769 246.121,22.769 246.121,22.769 246.257,22.777 246.384,22.777 246.504,22.769 246.796,22.769 246.796,22.769 246.796,22.769 246.796,22.760 246.796,22.760 246.796,22.760 248.558,22.760 248.558,22.760 248.558,22.760 248.558,24.159 248.558,24.159 248.558,24.159 Z M 258.012,12.833 C 254.195,12.833 254.195,12.833 254.195,12.833 254.195,5.898 254.195,5.898 254.195,5.898 258.012,5.898 258.012,5.898 258.012,5.898 258.012,12.833 258.012,12.833 258.012,12.833 Z M 248.499,5.392 C 250.530,5.392 250.530,5.392 250.530,5.392 250.530,5.897 250.530,5.897 250.530,5.897 252.695,5.897 252.695,5.897 252.695,5.897 252.695,12.833 252.695,12.833 252.695,12.833 251.566,12.833 251.566,12.833 251.566,12.833 251.566,13.743 251.566,13.743 251.566,13.743 250.428,13.743 250.428,13.743 250.428,13.743 250.428,15.614 250.428,15.614 250.428,15.614 248.498,15.614 248.498,15.614 248.498,15.614 248.498,13.743 248.498,13.743 248.498,13.743 247.546,13.743 247.546,13.743 247.546,13.743 247.546,5.821 247.546,5.821 247.546,5.821 248.498,5.498 248.498,5.498 248.498,5.498 248.498,5.392 248.498,5.392 248.498,5.392 Z M 231.712,6.985 C 231.712,5.392 231.712,5.392 231.712,5.392 235.411,5.392 235.411,5.392 235.411,5.392 235.411,6.934 235.411,6.934 235.411,6.934 242.742,6.934 242.742,6.934 242.742,6.934 242.169,7.448 241.678,8.074 241.466,8.818 241.437,9.837 241.437,9.837 241.437,9.837 241.466,10.043 241.466,10.043 241.466,10.043 241.728,10.962 242.415,11.703 243.159,12.271 243.017,12.271 243.017,12.271 243.017,12.271 241.229,12.425 241.229,12.425 241.229,12.425 224.559,12.427 224.559,12.427 224.559,12.427 222.645,12.268 222.645,12.268 222.645,12.268 222.568,12.268 222.568,12.268 222.568,12.268 223.311,11.700 223.996,10.960 224.258,10.042 224.287,9.023 224.287,9.023 224.287,9.023 224.258,8.817 224.258,8.817 224.258,8.817 224.053,8.099 223.588,7.488 223.040,6.984 231.712,6.984 231.712,6.984 231.712,6.984 Z M 207.782,14.198 C 207.782,14.365 207.640,14.507 207.472,14.507 207.305,14.507 207.163,14.365 207.163,14.198 207.163,4.423 207.163,4.423 207.163,4.423 207.163,4.256 207.305,4.114 207.472,4.114 207.640,4.114 207.782,4.256 207.782,4.423 207.782,14.198 207.782,14.198 207.782,14.198 Z M 217.538,15.475 C 215.594,15.475 215.594,15.475 215.594,15.475 215.583,14.318 215.583,14.318 215.583,14.318 215.583,12.833 215.583,12.833 215.583,12.833 211.277,12.833 211.277,12.833 211.277,12.833 210.916,13.091 210.916,13.091 210.916,13.091 208.782,12.567 208.782,12.567 208.782,12.567 208.782,6.144 208.782,6.144 208.782,6.144 210.941,5.532 210.941,5.532 210.941,5.532 211.277,5.772 211.277,5.772 211.277,5.772 215.583,5.772 215.583,5.772 215.583,5.772 215.583,5.392 215.583,5.392 215.583,5.392 217.690,5.392 217.690,5.392 217.690,5.392 217.690,5.822 217.690,5.822 217.690,5.822 218.178,5.822 218.178,5.822 218.178,5.822 218.178,13.604 218.178,13.604 218.178,13.604 217.537,13.604 217.537,13.604 217.537,13.604 217.537,15.475 217.537,15.475 217.537,15.475 Z M 217.479,22.621 C 218.322,22.621 218.322,22.621 218.322,22.621 218.322,25.524 218.322,25.524 218.322,25.524 217.479,25.524 217.479,25.524 217.479,25.524 217.479,22.621 217.479,22.621 217.479,22.621 Z M 210.154,26.016 C 210.914,26.016 211.379,26.397 211.379,26.604 211.379,26.811 210.914,27.192 210.154,27.192 209.394,27.192 208.929,26.811 208.929,26.604 208.929,26.397 209.394,26.016 210.154,26.016 Z M 178.326,22.255 C 178.326,22.575 178.326,22.575 178.326,22.575 176.902,22.575 176.902,22.575 176.902,22.575 176.996,31.255 176.996,31.255 176.996,31.255 177.694,31.255 177.694,31.255 177.694,31.255 177.682,44.884 177.682,44.884 177.682,44.884 174.443,44.884 174.443,44.884 174.443,44.884 174.458,27.584 174.458,27.584 174.458,27.584 174.461,27.584 174.461,27.584 174.461,27.584 174.461,25.205 174.461,25.205 174.461,25.205 174.460,25.205 174.460,25.205 174.460,25.205 174.461,24.573 174.461,24.573 174.461,24.573 174.425,24.573 174.425,24.573 174.425,24.573 174.400,19.050 174.400,19.050 174.400,19.050 175.217,19.050 175.217,19.050 175.217,19.050 175.217,30.622 175.217,30.622 175.217,30.622 176.217,30.622 176.217,30.622 176.217,30.622 176.217,19.024 176.217,19.024 176.217,19.024 178.328,19.024 178.328,19.024 178.328,19.024 178.328,22.255 178.328,22.255 178.328,22.255 Z M 176.013,17.026 C 176.013,19.001 176.013,19.001 176.013,19.001 175.322,19.001 175.322,19.001 175.322,19.001 175.322,17.026 175.322,17.026 175.322,17.026 176.013,17.026 176.013,17.026 176.013,17.026 Z M 164.488,19.046 C 172.898,19.049 172.898,19.049 172.898,19.049 172.926,25.205 172.926,25.205 172.926,25.205 162.188,25.205 162.188,25.205 162.188,25.205 162.152,19.047 162.152,19.047 162.152,19.047 164.488,19.047 164.488,19.047 164.488,19.047 Z M 159.496,30.622 C 159.496,19.046 159.496,19.046 159.496,19.046 160.653,19.046 160.653,19.046 160.653,19.046 160.689,25.204 160.689,25.204 160.689,25.204 160.168,25.204 160.168,25.204 160.168,25.204 160.168,44.884 160.168,44.884 160.168,44.884 157.876,44.884 157.876,44.884 157.876,44.884 157.876,25.204 157.876,25.204 157.876,25.204 157.640,25.204 157.640,25.204 157.640,25.204 157.603,19.071 157.603,19.071 157.603,19.071 158.496,19.071 158.496,19.071 158.496,19.071 158.496,30.621 158.496,30.621 158.496,30.621 159.496,30.621 159.496,30.621 159.496,30.621 Z M 157.875,46.884 C 160.167,46.884 160.167,46.884 160.167,46.884 160.167,53.375 160.167,53.375 160.167,53.375 157.875,53.375 157.875,53.375 157.875,53.375 157.875,46.884 157.875,46.884 157.875,46.884 Z M 159.399,17.049 C 159.399,19.002 159.399,19.002 159.399,19.002 158.708,19.002 158.708,19.002 158.708,19.002 158.708,17.049 158.708,17.049 158.708,17.049 159.399,17.049 159.399,17.049 159.399,17.049 Z M 132.550,19.071 C 156.102,19.071 156.102,19.071 156.102,19.071 156.139,25.204 156.139,25.204 156.139,25.204 132.550,25.204 132.550,25.204 132.550,25.204 132.550,22.273 132.550,22.273 132.550,22.273 131.667,22.273 131.667,22.273 131.667,22.273 131.667,20.840 131.667,20.840 131.667,20.840 132.550,20.840 132.550,20.840 132.550,20.840 132.550,19.071 132.550,19.071 132.550,19.071 Z M 130.167,20.841 C 130.167,22.274 130.167,22.274 130.167,22.274 64.437,22.274 64.437,22.274 64.437,22.274 63.379,20.841 63.379,20.841 63.379,20.841 130.167,20.841 130.167,20.841 130.167,20.841 Z M 122.371,26.656 C 122.371,29.386 122.371,29.386 122.371,29.386 91.798,29.386 91.798,29.386 91.798,29.386 91.798,26.706 91.798,26.706 91.798,26.706 82.191,26.706 82.191,26.706 82.191,26.706 82.191,29.639 82.191,29.639 82.191,29.639 66.089,29.639 66.089,29.639 66.089,29.639 66.089,25.274 66.089,25.274 66.089,25.274 129.550,25.274 129.550,25.274 129.550,25.274 129.550,26.252 129.550,26.252 129.550,26.252 128.944,26.252 128.944,26.252 128.944,26.252 128.944,26.657 128.944,26.657 128.944,26.657 122.371,26.657 122.371,26.657 122.371,26.657 Z M 82.808,39.080 C 80.013,39.080 80.013,39.080 80.013,39.080 80.013,32.639 80.013,32.639 80.013,32.639 82.808,32.639 82.808,32.639 82.808,32.639 82.808,39.080 82.808,39.080 82.808,39.080 Z M 65.650,32.639 C 68.158,32.639 68.158,32.639 68.158,32.639 68.158,39.080 68.158,39.080 68.158,39.080 65.650,39.080 65.650,39.080 65.650,39.080 65.650,32.639 65.650,32.639 65.650,32.639 Z M 69.159,32.639 C 73.822,32.639 73.822,32.639 73.822,32.639 73.822,39.080 73.822,39.080 73.822,39.080 69.159,39.080 69.159,39.080 69.159,39.080 69.159,32.639 69.159,32.639 69.159,32.639 Z M 73.822,40.080 C 73.822,49.642 73.822,49.642 73.822,49.642 69.159,49.642 69.159,49.642 69.159,49.642 69.159,40.080 69.159,40.080 69.159,40.080 73.822,40.080 73.822,40.080 73.822,40.080 Z M 74.822,40.080 C 79.013,40.080 79.013,40.080 79.013,40.080 79.013,49.642 79.013,49.642 79.013,49.642 74.822,49.642 74.822,49.642 74.822,49.642 74.822,40.080 74.822,40.080 74.822,40.080 Z M 74.822,39.080 C 74.822,32.639 74.822,32.639 74.822,32.639 79.013,32.639 79.013,32.639 79.013,32.639 79.013,39.080 79.013,39.080 79.013,39.080 74.822,39.080 74.822,39.080 74.822,39.080 Z M 63.451,59.103 C 58.082,83.519 58.082,83.519 58.082,83.519 51.889,83.519 51.889,83.519 51.889,83.519 51.889,19.507 51.889,19.507 51.889,19.507 58.666,19.507 58.666,19.507 58.666,19.507 63.089,25.498 63.089,25.498 63.089,25.498 63.089,32.638 63.089,32.638 63.089,32.638 64.150,32.638 64.150,32.638 64.150,32.638 64.150,49.641 64.150,49.641 64.150,49.641 63.450,49.641 63.450,49.641 63.450,49.641 63.450,59.103 63.450,59.103 63.450,59.103 Z M 65.650,49.642 C 65.650,40.080 65.650,40.080 65.650,40.080 68.158,40.080 68.158,40.080 68.158,40.080 68.158,49.642 68.158,49.642 68.158,49.642 65.650,49.642 65.650,49.642 65.650,49.642 Z M 80.013,49.642 C 80.013,40.080 80.013,40.080 80.013,40.080 82.808,40.080 82.808,40.080 82.808,40.080 82.808,49.642 82.808,49.642 82.808,49.642 80.013,49.642 80.013,49.642 80.013,49.642 Z M 88.665,52.574 C 85.058,52.574 85.058,52.574 85.058,52.574 85.058,49.641 85.058,49.641 85.058,49.641 84.308,49.641 84.308,49.641 84.308,49.641 84.308,32.639 84.308,32.639 84.308,32.639 85.191,32.639 85.191,32.639 85.191,32.639 85.191,29.706 85.191,29.706 85.191,29.706 88.798,29.706 88.798,29.706 88.798,29.706 88.798,32.386 88.798,32.386 88.798,32.386 89.415,32.386 89.415,32.386 89.415,32.386 89.415,49.895 89.415,49.895 89.415,49.895 88.665,49.895 88.665,49.895 88.665,49.895 88.665,52.574 88.665,52.574 88.665,52.574 Z M 90.915,49.895 C 90.915,32.386 90.915,32.386 90.915,32.386 122.988,32.386 122.988,32.386 122.988,32.386 122.988,49.895 122.988,49.895 122.988,49.895 90.915,49.895 90.915,49.895 90.915,49.895 Z M 125.237,52.625 C 125.237,49.895 125.237,49.895 125.237,49.895 124.487,49.895 124.487,49.895 124.487,49.895 124.487,32.386 124.487,32.386 124.487,32.386 125.370,32.386 125.370,32.386 125.370,32.386 125.370,29.656 125.370,29.656 125.370,29.656 129.560,29.656 129.560,29.656 129.560,29.656 129.560,52.625 129.560,52.625 129.560,52.625 125.237,52.625 125.237,52.625 125.237,52.625 Z M 131.811,53.029 C 131.811,52.625 131.811,52.625 131.811,52.625 131.061,52.625 131.061,52.625 131.061,52.625 131.061,29.656 131.061,29.656 131.061,29.656 131.944,29.656 131.944,29.656 131.944,29.656 131.944,29.251 131.944,29.251 131.944,29.251 132.550,29.251 132.550,29.251 132.550,29.251 132.550,26.704 132.550,26.704 132.550,26.704 156.375,26.704 156.375,26.704 156.375,26.704 156.375,53.375 156.375,53.375 156.375,53.375 138.431,53.375 138.431,53.375 138.431,53.375 138.617,53.029 138.617,53.029 138.617,53.029 131.811,53.029 131.811,53.029 131.811,53.029 Z M 147.383,71.562 C 140.674,87.046 140.674,87.046 140.674,87.046 140.938,87.646 140.938,87.646 140.938,87.646 141.659,89.283 141.819,90.602 141.401,91.460 141.152,91.971 140.726,92.261 140.421,92.412 128.401,87.532 128.401,87.532 128.401,87.532 128.451,86.632 128.700,84.824 129.710,81.756 136.429,65.959 136.429,65.959 136.429,65.959 136.429,57.105 136.429,57.105 136.429,57.105 137.626,54.876 137.626,54.876 137.626,54.876 142.117,54.876 142.117,54.876 142.117,54.876 142.117,61.348 142.117,61.348 142.117,61.348 148.047,61.348 148.047,61.348 148.047,61.348 148.078,62.920 148.078,62.920 148.078,62.920 147.489,64.174 147.394,65.470 147.383,65.705 147.383,71.562 147.383,71.562 147.383,71.562 Z M 151.021,63.803 C 151.144,63.637 151.276,63.512 151.444,63.434 152.377,62.974 152.377,62.974 152.377,62.974 152.554,62.907 152.554,62.907 152.554,62.907 152.545,62.884 152.545,62.884 152.545,62.884 152.571,62.873 152.600,62.861 152.627,62.849 152.850,64.256 153.425,66.248 154.899,68.041 153.304,67.159 151.883,65.244 151.021,63.803 Z M 166.351,56.417 C 164.688,56.447 163.768,57.141 163.289,57.716 162.974,58.096 162.777,58.505 162.657,58.895 155.962,58.895 155.962,58.895 155.962,58.895 155.807,58.903 155.807,58.903 155.807,58.903 154.646,59.024 153.430,59.322 152.193,59.789 150.881,60.283 150.004,60.801 149.967,60.822 149.970,60.827 149.970,60.827 149.970,60.827 149.822,60.906 149.679,60.993 149.542,61.091 149.517,59.847 149.517,59.847 149.517,59.847 143.616,59.847 143.616,59.847 143.616,59.847 143.616,54.875 143.616,54.875 143.616,54.875 161.666,54.875 161.666,54.875 161.666,54.875 161.666,54.395 161.666,54.395 161.666,54.395 168.644,54.395 168.644,54.395 168.644,54.395 168.644,56.417 168.644,56.417 168.644,56.417 166.351,56.417 166.351,56.417 166.351,56.417 Z M 168.645,52.221 C 168.645,52.895 168.645,52.895 168.645,52.895 161.667,52.895 161.667,52.895 161.667,52.895 161.667,27.584 161.667,27.584 161.667,27.584 172.957,27.584 172.957,27.584 172.957,27.584 172.936,52.221 172.936,52.221 172.936,52.221 168.645,52.221 168.645,52.221 168.645,52.221 Z M 176.886,52.221 C 175.849,52.221 175.849,52.221 175.849,52.221 175.849,53.055 175.849,53.055 175.849,53.055 175.183,53.055 175.183,53.055 175.183,53.055 175.183,52.221 175.183,52.221 175.183,52.221 174.434,52.221 174.434,52.221 174.434,52.221 174.439,46.884 174.439,46.884 174.439,46.884 177.678,46.884 177.678,46.884 177.678,46.884 177.675,49.845 177.675,49.845 177.675,49.845 176.885,49.845 176.885,49.845 176.885,49.845 176.885,52.221 176.885,52.221 176.885,52.221 Z M 179.176,49.845 C 179.192,31.255 179.192,31.255 179.192,31.255 200.941,31.255 200.941,31.255 200.941,31.255 200.925,49.845 200.925,49.845 200.925,49.845 179.176,49.845 179.176,49.845 179.176,49.845 Z M 202.426,49.845 C 202.442,31.255 202.442,31.255 202.442,31.255 203.575,31.255 203.575,31.255 203.575,31.255 203.575,28.525 203.575,28.525 203.575,28.525 204.794,28.525 204.794,28.525 204.794,28.525 204.773,52.247 204.773,52.247 204.773,52.247 203.549,52.247 203.549,52.247 203.549,52.247 203.549,49.846 203.549,49.846 203.549,49.846 202.426,49.846 202.426,49.846 202.426,49.846 Z M 209.591,54.710 C 208.831,54.710 208.366,54.329 208.366,54.121 208.366,53.913 208.831,53.532 209.591,53.532 210.351,53.532 210.816,53.913 210.816,54.121 210.816,54.329 210.351,54.710 209.591,54.710 Z M 211.905,52.305 C 211.323,51.827 210.509,51.533 209.591,51.533 208.713,51.533 207.931,51.805 207.355,52.247 206.273,52.247 206.273,52.247 206.273,52.247 206.294,28.525 206.294,28.525 206.294,28.525 207.987,28.525 207.987,28.525 207.987,28.525 208.556,28.938 209.309,29.193 210.154,29.193 210.999,29.193 211.752,28.938 212.321,28.525 214.479,28.525 214.479,28.525 214.479,28.525 214.488,28.525 214.488,28.525 214.488,28.525 219.072,28.525 219.072,28.525 219.072,28.525 219.072,52.314 219.072,52.314 219.072,52.314 219.052,52.314 219.052,52.314 219.052,52.314 219.053,52.306 219.053,52.306 219.053,52.306 211.905,52.306 211.905,52.306 211.905,52.306 Z M 222.081,70.150 C 217.996,65.284 218.256,58.135 218.553,55.305 219.065,55.305 219.065,55.305 219.065,55.305 220.799,55.487 220.799,55.487 220.799,55.487 220.799,59.687 220.799,59.687 220.799,59.687 223.108,59.687 223.108,59.687 223.108,59.687 223.108,61.339 223.108,61.339 223.108,61.339 220.737,61.339 220.737,61.339 220.737,61.339 221.150,63.169 221.150,63.169 221.150,63.169 222.549,69.367 228.078,73.888 234.384,74.075 234.384,75.215 234.384,75.215 234.384,75.215 228.927,75.018 224.753,73.331 222.081,70.150 Z M 244.863,71.737 C 244.768,73.136 244.768,73.136 244.768,73.136 244.720,73.846 243.809,74.291 243.553,74.403 243.048,74.500 242.556,74.580 242.063,74.661 242.063,72.029 242.063,72.029 242.063,72.029 244.668,70.434 246.709,68.017 247.826,65.135 247.826,71.737 247.826,71.737 247.826,71.737 244.863,71.737 244.863,71.737 244.863,71.737 Z M 250.117,73.483 C 250.117,71.738 250.117,71.738 250.117,71.738 249.426,71.738 249.426,71.738 249.426,71.738 249.426,56.009 249.426,56.009 249.426,56.009 254.603,56.009 254.603,56.009 254.603,56.009 255.023,56.429 255.023,56.429 255.023,56.429 255.023,73.055 255.023,73.055 255.023,73.055 254.595,73.483 254.595,73.483 254.595,73.483 250.117,73.483 250.117,73.483 250.117,73.483 Z M 256.622,71.877 C 256.622,57.614 256.622,57.614 256.622,57.614 272.592,57.614 272.592,57.614 272.592,57.614 272.592,57.627 272.592,57.627 272.592,57.627 282.629,57.627 282.629,57.627 282.629,57.627 282.629,71.877 282.629,71.877 282.629,71.877 256.622,71.877 256.622,71.877 256.622,71.877 Z M 290.913,74.695 C 305.740,74.695 305.740,74.695 305.740,74.695 308.515,79.086 308.515,79.086 308.515,79.086 325.659,79.086 325.659,79.086 325.659,79.086 325.752,79.049 325.752,79.049 325.752,79.049 325.789,80.442 326.440,81.672 327.440,82.507 299.218,82.507 299.218,82.507 299.218,82.507 290.913,74.695 290.913,74.695 290.913,74.695 Z " />
  <path stroke="none" fill="#ffffffff" d="M 234.727,58.532 C 231.985,58.532 229.754,60.762 229.754,63.505 229.754,66.246 231.984,68.477 234.727,68.477 237.468,68.477 239.699,66.247 239.699,63.505 239.699,60.763 237.468,58.532 234.727,58.532 Z M 234.727,66.977 C 232.812,66.977 231.254,65.419 231.254,63.505 231.254,61.590 232.812,60.032 234.727,60.032 236.641,60.032 238.199,61.590 238.199,63.505 238.199,65.419 236.641,66.977 234.727,66.977 Z " />
  <path stroke="none" fill="#ffffffff" d="M 234.727,60.935 C 233.310,60.935 232.157,62.088 232.157,63.505 232.157,64.922 233.310,66.074 234.727,66.074 236.144,66.074 237.296,64.922 237.296,63.505 237.296,62.088 236.144,60.935 234.727,60.935 Z M 234.727,65.074 C 233.861,65.074 233.157,64.370 233.157,63.505 233.157,62.639 233.861,61.935 234.727,61.935 235.592,61.935 236.296,62.639 236.296,63.505 236.296,64.370 235.592,65.074 234.727,65.074 Z " />
  <path stroke="none" fill="#ffffffff" d="M 295.278,62.498 C 293.861,62.498 292.708,63.650 292.708,65.067 292.708,66.484 293.861,67.637 295.278,67.637 296.695,67.637 297.847,66.484 297.847,65.067 297.847,63.651 296.695,62.498 295.278,62.498 Z M 295.278,66.638 C 294.412,66.638 293.708,65.934 293.708,65.068 293.708,64.203 294.412,63.499 295.278,63.499 296.143,63.499 296.847,64.203 296.847,65.068 296.847,65.934 296.143,66.638 295.278,66.638 Z " />
  <path stroke="none" fill="#ffffffff" d="M 55.898,20.299 C 54.056,20.299 52.558,21.798 52.558,23.640 52.558,25.482 54.057,26.980 55.898,26.980 57.740,26.980 59.239,25.481 59.239,23.640 59.239,21.798 57.740,20.299 55.898,20.299 Z M 55.898,24.981 C 55.159,24.981 54.558,24.380 54.558,23.641 54.558,22.902 55.159,22.300 55.898,22.300 56.637,22.300 57.239,22.902 57.239,23.641 57.239,24.380 56.637,24.981 55.898,24.981 Z " />
  <path stroke="none" fill="#ffffffff" d="M 152.076,56.228 C 151.239,56.228 150.558,56.909 150.558,57.746 150.558,58.583 151.239,59.265 152.076,59.265 152.913,59.265 153.594,58.583 153.594,57.746 153.594,56.909 152.913,56.228 152.076,56.228 Z M 152.076,58.264 C 151.790,58.264 151.558,58.032 151.558,57.745 151.558,57.460 151.790,57.227 152.076,57.227 152.361,57.227 152.594,57.459 152.594,57.745 152.593,58.031 152.361,58.264 152.076,58.264 Z " />
  <path stroke="none" fill="#ffffffff" d="M 86.861,50.116 C 86.296,50.116 85.835,50.576 85.835,51.141 85.835,51.707 86.295,52.167 86.861,52.167 87.427,52.167 87.887,51.707 87.887,51.141 87.887,50.576 87.427,50.116 86.861,50.116 Z M 86.861,51.418 C 86.709,51.418 86.585,51.294 86.585,51.142 86.585,50.991 86.709,50.867 86.861,50.867 87.013,50.867 87.137,50.991 87.137,51.142 87.137,51.294 87.013,51.418 86.861,51.418 Z " />
  <path stroke="none" fill="#ffffffff" d="M 86.861,30.113 C 86.296,30.113 85.835,30.573 85.835,31.139 85.835,31.705 86.295,32.165 86.861,32.165 87.427,32.165 87.887,31.705 87.887,31.139 87.887,30.573 87.427,30.113 86.861,30.113 Z M 86.861,31.415 C 86.709,31.415 86.585,31.291 86.585,31.139 86.585,30.987 86.709,30.863 86.861,30.863 87.013,30.863 87.137,30.987 87.137,31.139 87.137,31.291 87.013,31.415 86.861,31.415 Z " />
  <path stroke="none" fill="#ffffffff" d="M 127.024,50.250 C 126.459,50.250 125.998,50.710 125.998,51.275 125.998,51.841 126.458,52.301 127.024,52.301 127.590,52.301 128.050,51.841 128.050,51.275 128.050,50.710 127.589,50.250 127.024,50.250 Z M 127.024,51.552 C 126.872,51.552 126.748,51.428 126.748,51.276 126.748,51.125 126.872,51.001 127.024,51.001 127.176,51.001 127.300,51.125 127.300,51.276 127.300,51.428 127.176,51.552 127.024,51.552 Z " />
  <path stroke="none" fill="#ffffffff" d="M 127.024,32.298 C 127.589,32.298 128.050,31.838 128.050,31.272 128.050,30.706 127.590,30.246 127.024,30.246 126.458,30.246 125.998,30.706 125.998,31.272 125.998,31.838 126.458,32.298 127.024,32.298 Z M 127.024,30.997 C 127.176,30.997 127.300,31.121 127.300,31.273 127.300,31.425 127.176,31.549 127.024,31.549 126.872,31.549 126.748,31.425 126.748,31.273 126.748,31.121 126.872,30.997 127.024,30.997 Z " />
  <path stroke="none" fill="#ffffffff" d="M 209.591,38.512 C 208.421,38.512 207.470,39.464 207.470,40.634 207.470,41.803 208.421,42.755 209.591,42.755 210.761,42.755 211.712,41.803 211.712,40.634 211.712,39.464 210.761,38.512 209.591,38.512 Z M 209.591,41.755 C 208.973,41.755 208.470,41.252 208.470,40.634 208.470,40.015 208.973,39.512 209.591,39.512 210.209,39.512 210.712,40.015 210.712,40.634 210.712,41.252 210.209,41.755 209.591,41.755 Z " />
  <path stroke="none" fill="#ffffffff" d="M 159.021,55.460 C 158.210,55.460 157.551,56.119 157.551,56.930 157.551,57.741 158.211,58.400 159.021,58.400 159.831,58.400 160.491,57.741 160.491,56.930 160.491,56.119 159.832,55.460 159.021,55.460 Z M 159.021,57.900 C 158.486,57.900 158.051,57.465 158.051,56.930 158.051,56.395 158.486,55.960 159.021,55.960 159.556,55.960 159.991,56.395 159.991,56.930 159.991,57.465 159.557,57.900 159.021,57.900 Z " />
  <path stroke="none" fill="#ffffffff" d="M 238.863,14.763 C 227.579,14.763 227.579,14.763 227.579,14.763 226.150,14.763 224.988,15.926 224.988,17.354 224.988,18.054 224.988,18.054 224.988,18.054 224.988,19.483 226.150,20.645 227.579,20.645 238.863,20.645 238.863,20.645 238.863,20.645 240.292,20.645 241.454,19.482 241.454,18.054 241.454,17.354 241.454,17.354 241.454,17.354 241.454,15.925 240.292,14.763 238.863,14.763 Z M 239.954,18.054 C 239.954,18.656 239.465,19.145 238.863,19.145 227.579,19.145 227.579,19.145 227.579,19.145 226.977,19.145 226.488,18.655 226.488,18.054 226.488,17.354 226.488,17.354 226.488,17.354 226.488,16.752 226.977,16.263 227.579,16.263 238.863,16.263 238.863,16.263 238.863,16.263 239.465,16.263 239.954,16.753 239.954,17.354 239.954,18.054 239.954,18.054 239.954,18.054 Z " />
  <path stroke="none" fill="#ffffffff" d="M 295.254,61.495 C 296.222,61.495 297.015,60.658 297.015,59.636 297.015,58.707 297.015,58.707 297.015,58.707 295.505,58.707 295.147,58.707 293.493,58.707 293.493,59.636 293.493,59.636 293.493,59.636 293.493,60.659 294.286,61.495 295.254,61.495 Z " />
  <path stroke="none" fill="#ffffffff" d="M 295.254,68.640 C 294.285,68.640 293.493,69.477 293.493,70.499 293.493,71.428 293.493,71.428 293.493,71.428 295.147,71.428 295.505,71.428 297.015,71.428 297.015,70.500 297.015,70.500 297.015,70.500 297.015,69.477 296.223,68.640 295.254,68.640 Z " />
</svg>