<?xml version="1.0" encoding="UTF-8" standalone="no"?>
<!DOCTYPE svg PUBLIC "-//W3C//DTD SVG 20010904//EN" "http://www.w3.org/TR/2001/REC-SVG-20010904/DTD/svg10.dtd"[]>
<svg version="1.1" id="Frosty Editor v1.0.6.3" xmlns="http://www.w3.org/2000/svg" d1p1:xlink="http://www.w3.org/1999/xlink" viewBox="0 0 384 96" xmlns:d1p1="xmlns">
  <path stroke="none" fill="#ffffffff" d="M 377.843,24.849 C 325.181,24.849 325.181,24.849 325.181,24.849 325.181,22.503 325.181,22.503 325.181,22.503 321.073,22.503 321.073,22.503 321.073,22.503 321.073,17.588 321.073,17.588 321.073,17.588 316.228,17.588 316.228,17.588 316.228,17.588 316.228,22.503 316.228,22.503 316.228,22.503 313.949,22.552 313.949,22.552 313.949,22.552 313.949,22.555 313.949,22.555 313.949,22.555 306.209,22.555 306.209,22.555 306.209,22.555 305.625,23.031 305.625,23.031 305.625,23.031 305.326,23.031 305.326,23.031 305.326,23.031 305.326,17.626 305.326,17.626 305.326,17.626 303.802,16.102 303.802,16.102 303.802,16.102 291.975,16.102 291.975,16.102 291.975,16.102 290.554,17.522 290.554,17.522 290.554,17.522 290.554,19.566 290.554,19.566 290.554,19.566 287.456,19.566 287.456,19.566 287.456,19.566 286.439,20.583 286.439,20.583 286.439,20.583 268.968,20.583 268.968,20.583 268.968,20.583 268.968,17.758 268.968,17.758 268.968,17.758 267.255,16.046 267.255,16.046 267.255,16.046 256.200,16.046 256.200,16.046 256.200,16.046 254.233,18.012 254.233,18.012 254.233,18.012 254.233,20.659 254.233,20.659 254.233,20.659 245.818,20.659 245.818,20.659 245.818,20.659 245.818,18.952 245.818,18.952 245.818,18.952 238.044,18.952 238.044,18.952 238.044,18.952 238.044,20.715 238.044,20.715 238.044,20.715 219.591,20.715 219.591,20.715 219.591,20.715 219.591,22.614 219.591,22.614 219.591,22.614 219.484,22.614 219.484,22.614 219.484,22.614 219.484,21.313 219.484,21.313 219.484,21.313 219.484,17.969 216.763,15.249 213.420,15.249 210.077,15.249 207.356,17.969 207.356,21.313 207.356,22.614 207.356,22.614 207.356,22.614 206.186,22.614 206.186,22.614 206.186,22.614 206.186,31.900 206.186,31.900 206.186,31.900 203.615,31.900 203.615,31.900 203.615,31.900 203.615,31.079 203.615,31.079 203.615,31.079 186.486,22.452 186.486,22.452 186.486,22.452 179.743,22.452 179.743,22.452 179.743,22.452 179.743,17.882 179.743,17.882 179.743,17.882 182.604,17.882 182.604,17.882 182.604,17.882 192.918,16.369 192.918,16.369 192.918,16.369 192.918,15.454 192.918,15.454 192.918,15.454 192.918,9.614 192.918,9.614 192.918,9.614 192.918,8.700 192.918,8.700 192.918,8.700 182.772,7.199 182.772,7.199 182.772,7.199 179.743,7.187 179.743,7.187 179.743,7.187 179.743,6.254 179.743,6.254 179.743,6.254 170.510,6.254 170.510,6.254 170.510,6.254 170.510,6.593 170.510,6.593 170.510,6.593 167.956,5.613 167.956,5.613 167.956,5.613 165.828,4.230 165.828,4.230 165.828,4.230 165.828,4.207 165.828,4.207 165.828,4.207 165.793,4.207 165.793,4.207 165.793,4.207 162.833,4.207 162.833,4.207 162.833,4.207 162.798,4.207 162.798,4.207 162.798,4.207 162.798,4.230 162.798,4.230 162.798,4.230 160.678,5.608 160.678,5.608 160.678,5.608 158.082,6.566 158.082,6.566 158.082,6.566 150.317,6.566 150.317,6.566 150.317,6.566 150.317,7.837 150.317,7.837 150.317,7.837 142.223,7.837 142.223,7.837 142.223,7.837 139.850,6.425 139.850,6.425 139.850,6.425 129.205,6.425 129.205,6.425 129.205,6.425 129.205,11.472 129.205,11.472 129.205,11.472 129.205,14.437 129.205,14.437 129.205,14.437 129.205,19.484 129.205,19.484 129.205,19.484 139.850,19.484 139.850,19.484 139.850,19.484 142.223,18.072 142.223,18.072 142.223,18.072 150.317,18.072 150.317,18.072 150.317,18.072 150.317,27.977 150.317,27.977 150.317,27.977 149.325,27.977 149.325,27.977 149.325,27.977 149.213,27.790 149.102,27.605 148.990,27.418 148.730,26.971 148.468,26.524 148.208,26.077 140.276,26.077 140.276,26.077 140.276,26.077 138.787,25.742 137.297,25.407 135.807,25.072 135.695,25.035 135.584,24.997 135.472,24.960 126.088,24.960 126.088,24.960 126.088,24.960 126.088,20.715 126.088,20.715 126.088,20.715 85.759,20.715 85.759,20.715 85.759,20.715 85.759,29.540 85.759,29.540 85.759,29.540 85.536,30.582 85.312,31.626 85.089,32.668 81.402,33.003 73.247,34.120 65.763,37.695 65.503,37.807 65.241,37.918 64.981,38.030 60.736,40.041 57.943,41.381 56.156,41.381 55.262,41.381 54.257,41.046 52.358,39.035 52.098,38.775 51.836,38.513 51.576,38.253 50.571,38.253 50.571,38.253 50.571,38.253 49.566,38.253 48.560,38.141 47.331,38.141 43.980,38.141 40.293,38.253 37.835,38.476 37.835,36.353 37.835,36.353 37.835,36.353 24.987,36.353 24.987,36.353 24.987,36.353 24.987,39.146 24.987,39.146 24.987,39.146 19.253,39.406 13.517,39.668 7.783,39.928 7.336,39.928 7.336,39.928 7.336,39.928 6.107,39.928 4.990,40.375 4.320,41.157 3.650,41.827 3.315,42.833 3.315,43.950 3.538,49.722 3.762,55.493 3.985,61.266 2.756,67.075 0.187,80.257 1.639,83.832 1.862,84.391 2.086,84.949 2.309,85.508 4.543,85.508 4.543,85.508 4.543,85.508 8.565,85.508 16.832,84.167 17.167,84.167 17.354,84.130 17.539,84.092 17.726,84.055 17.875,83.980 18.024,83.906 18.173,83.832 18.399,83.682 31.187,75.885 44.292,69.783 47.311,74.287 47.311,74.287 47.311,74.287 47.568,74.670 48.092,74.774 48.475,74.517 48.638,74.408 48.638,74.408 48.638,74.408 49.021,74.151 49.125,73.627 48.868,73.244 46.018,68.992 46.018,68.992 46.018,68.992 51.802,66.373 57.543,64.162 62.189,63.166 73.472,60.708 82.968,59.256 87.548,58.586 87.548,61.714 87.548,61.714 87.548,61.714 95.926,61.714 95.926,61.714 95.926,61.714 95.926,58.921 95.926,58.921 95.926,58.921 96.149,59.033 96.373,59.144 96.596,59.256 97.601,59.815 99.501,60.485 105.086,60.485 106.427,60.485 107.544,60.485 107.991,60.373 108.438,60.373 109.220,60.596 109.443,61.043 109.778,61.490 109.666,62.495 109.220,63.613 107.544,68.305 104.491,78.182 103.038,82.316 102.479,83.768 102.703,85.332 103.597,86.561 104.375,87.631 105.577,88.348 106.833,88.518 119.792,91.991 119.792,91.991 119.792,91.991 120.135,91.895 120.135,91.895 120.135,91.895 121.746,91.445 124.404,89.257 123.405,84.174 124.645,82.552 128.234,77.328 128.914,70.392 129.470,70.143 130.520,69.862 131.827,70.356 131.832,70.363 131.836,70.369 131.841,70.376 131.862,70.379 131.885,70.381 131.906,70.384 131.934,70.395 131.961,70.401 131.989,70.413 131.996,70.395 131.996,70.395 131.996,70.395 133.025,70.538 134.218,70.650 135.474,70.650 140.054,70.650 143.182,69.198 144.858,66.405 144.858,66.182 144.858,66.182 144.858,66.182 145.081,65.735 146.310,64.841 147.427,64.283 147.874,64.060 148.656,63.501 149.214,62.384 150.443,66.741 153.347,74.673 163.513,74.673 172.450,74.673 176.695,66.183 177.924,60.821 179.265,60.002 180.605,59.182 181.946,58.363 184.739,58.363 184.739,58.363 184.739,58.363 184.851,58.326 184.962,58.288 185.074,58.251 186.451,57.916 187.830,57.581 189.207,57.246 211.103,57.246 211.103,57.246 211.103,57.246 211.103,55.905 211.103,55.905 211.103,55.905 219.258,55.905 219.258,55.905 219.258,55.905 219.258,57.804 219.258,57.804 219.258,57.804 238.046,57.804 238.046,57.804 238.046,57.804 238.046,59.457 238.046,59.457 238.046,59.457 245.820,59.457 245.820,59.457 245.820,59.457 245.820,57.750 245.820,57.750 245.820,57.750 255.976,57.750 255.976,57.750 255.976,57.750 255.976,63.889 255.976,63.889 255.976,63.889 308.734,63.889 308.734,63.889 308.734,63.889 308.734,57.703 308.734,57.703 308.734,57.703 317.800,57.703 317.800,57.703 317.800,57.703 317.800,55.904 317.800,55.904 317.800,55.904 325.181,55.904 325.181,55.904 325.181,55.904 325.181,53.560 325.181,53.560 325.181,53.560 377.843,53.560 377.843,53.560 377.843,53.560 380.581,53.560 382.793,51.214 382.793,48.309 382.793,30.100 382.793,30.100 382.793,30.100 382.794,27.195 380.582,24.849 377.843,24.849 Z M 85.759,56.241 C 80.732,57.023 72.018,58.364 61.741,60.598 45.542,64.172 16.944,81.600 16.944,81.600 16.944,81.600 8.565,82.940 4.655,82.940 4.208,82.940 4.208,82.940 4.208,82.940 2.756,79.477 6.666,61.491 6.666,61.491 6.443,55.570 6.219,49.650 5.996,43.729 5.996,42.612 6.890,42.500 7.448,42.500 7.671,42.500 7.783,42.500 7.783,42.500 14.411,42.240 21.040,41.978 27.668,41.718 27.668,39.037 27.668,39.037 27.668,39.037 35.264,39.037 35.264,39.037 35.264,39.037 35.264,41.159 35.264,41.159 35.264,41.159 35.264,41.159 41.855,40.712 47.441,40.712 48.558,40.712 49.675,40.712 50.569,40.824 52.691,42.947 54.256,43.952 56.266,43.952 58.724,43.952 61.740,42.500 66.991,40.042 74.364,36.579 82.408,35.573 85.759,35.238 85.759,56.241 85.759,56.241 85.759,56.241 Z M 209.657,21.313 C 209.657,19.237 211.345,17.549 213.421,17.549 215.497,17.549 217.185,19.237 217.185,21.313 217.185,22.614 217.185,22.614 217.185,22.614 216.471,22.614 216.471,22.614 216.471,22.614 216.471,22.562 216.471,22.562 216.471,22.562 216.471,20.793 215.103,19.355 213.421,19.355 211.739,19.355 210.371,20.793 210.371,22.562 210.371,22.614 210.371,22.614 210.371,22.614 209.657,22.614 209.657,22.614 209.657,22.614 209.657,21.313 209.657,21.313 209.657,21.313 Z M 214.971,22.563 C 214.971,22.615 214.971,22.615 214.971,22.615 211.871,22.615 211.871,22.615 211.871,22.615 211.871,22.563 211.871,22.563 211.871,22.563 211.871,21.622 212.566,20.856 213.421,20.856 214.276,20.856 214.971,21.622 214.971,22.563 Z M 185.951,24.751 C 200.478,31.899 200.478,31.899 200.478,31.899 197.156,31.899 197.156,31.899 197.156,31.899 185.787,26.203 185.787,26.203 185.787,26.203 152.617,25.984 152.617,25.984 152.617,25.984 152.617,24.010 152.617,24.010 152.617,24.010 177.444,24.010 177.444,24.010 177.444,24.010 177.444,24.752 177.444,24.752 177.444,24.752 185.951,24.752 185.951,24.752 185.951,24.752 Z M 181.557,9.486 C 182.519,9.486 182.519,9.486 182.519,9.486 190.618,10.684 190.618,10.684 190.618,10.684 190.618,14.384 190.618,14.384 190.618,14.384 182.519,15.582 182.519,15.582 182.519,15.582 181.557,15.582 181.557,15.582 181.557,15.582 181.557,9.486 181.557,9.486 181.557,9.486 Z M 179.043,9.486 C 180.656,9.486 180.656,9.486 180.656,9.486 180.656,15.582 180.656,15.582 180.656,15.582 179.043,15.582 179.043,15.582 179.043,15.582 179.043,9.486 179.043,9.486 179.043,9.486 Z M 172.810,8.893 C 172.810,8.554 172.810,8.554 172.810,8.554 177.443,8.554 177.443,8.554 177.443,8.554 177.443,9.486 177.443,9.486 177.443,9.486 178.143,9.486 178.143,9.486 178.143,9.486 178.143,15.582 178.143,15.582 178.143,15.582 177.443,15.582 177.443,15.582 177.443,15.582 177.443,16.387 177.443,16.387 177.443,16.387 171.894,16.387 171.894,16.387 171.894,16.387 171.885,8.893 171.885,8.893 171.885,8.893 172.810,8.893 172.810,8.893 172.810,8.893 Z M 158.732,8.776 C 161.593,7.721 161.593,7.721 161.593,7.721 163.513,6.507 163.513,6.507 163.513,6.507 163.977,6.507 163.977,6.507 163.977,6.507 163.961,7.257 163.949,7.880 163.943,8.398 162.915,8.630 162.147,9.545 162.147,10.643 162.147,11.917 163.179,12.949 164.453,12.949 165.727,12.949 166.759,11.917 166.759,10.643 166.759,9.506 165.935,8.567 164.853,8.377 164.858,7.801 164.867,7.162 164.879,6.507 165.110,6.507 165.110,6.507 165.110,6.507 166.801,7.607 166.801,7.607 166.801,7.607 170.045,8.894 170.045,8.894 170.045,8.894 170.983,8.894 170.983,8.894 170.983,8.894 170.983,18.747 170.983,18.747 170.983,18.747 170.995,20.879 170.995,20.879 170.995,20.879 158.681,20.879 158.681,20.879 158.681,20.879 158.732,8.776 158.732,8.776 158.732,8.776 Z M 171.900,21.778 C 171.895,17.287 171.895,17.287 171.895,17.287 177.443,17.287 177.443,17.287 177.443,17.287 177.443,23.108 177.443,23.108 177.443,23.108 152.616,23.108 152.616,23.108 152.616,23.108 152.616,17.287 152.616,17.287 152.616,17.287 157.787,17.287 157.787,17.287 157.787,17.287 157.780,18.743 157.780,18.743 157.780,18.743 157.780,21.778 157.780,21.778 157.780,21.778 171.900,21.778 171.900,21.778 171.900,21.778 Z M 151.917,10.136 C 152.617,10.136 152.617,10.136 152.617,10.136 152.617,8.865 152.617,8.865 152.617,8.865 157.831,8.865 157.831,8.865 157.831,8.865 157.793,16.387 157.793,16.387 157.793,16.387 152.617,16.387 152.617,16.387 152.617,16.387 152.617,15.772 152.617,15.772 152.617,15.772 151.917,15.772 151.917,15.772 151.917,15.772 151.917,10.136 151.917,10.136 151.917,10.136 Z M 151.917,30.658 C 152.750,30.658 152.750,30.658 152.750,30.658 152.750,30.111 152.739,28.463 152.739,27.977 152.616,27.977 152.616,27.977 152.616,27.977 152.616,26.883 152.616,26.883 152.616,26.883 185.570,27.100 185.570,27.100 185.570,27.100 195.146,31.898 195.146,31.898 195.146,31.898 190.611,31.897 190.611,31.897 190.611,31.897 190.528,31.904 190.528,31.904 190.528,31.904 190.528,31.556 190.528,31.556 190.528,31.556 184.345,28.813 184.345,28.813 184.345,28.813 177.980,28.813 177.980,28.813 177.980,28.813 177.980,32.611 177.980,32.611 177.980,32.611 171.896,32.611 171.896,32.611 171.896,32.611 169.280,28.813 169.280,28.813 169.280,28.813 161.051,28.813 161.051,28.813 161.051,28.813 159.242,32.611 159.242,32.611 159.242,32.611 151.915,32.611 151.915,32.611 151.915,32.611 151.915,30.658 151.915,30.658 151.915,30.658 Z M 179.030,33.512 C 179.030,33.477 179.030,33.477 179.030,33.477 186.748,33.477 186.748,33.477 186.748,33.477 186.748,35.238 186.748,35.238 186.748,35.238 146.866,35.238 146.866,35.238 146.866,35.238 146.530,34.663 146.195,34.087 145.859,33.512 179.030,33.512 179.030,33.512 179.030,33.512 Z M 161.207,31.977 C 161.999,30.314 161.999,30.314 161.999,30.314 168.493,30.314 168.493,30.314 168.493,30.314 169.639,31.977 169.639,31.977 169.639,31.977 161.207,31.977 161.207,31.977 161.207,31.977 Z M 146.420,36.356 C 186.860,36.356 186.860,36.356 186.860,36.356 186.860,43.617 186.860,43.617 186.860,43.617 94.473,43.617 94.473,43.617 94.473,43.617 94.585,43.394 94.808,43.170 94.920,42.947 96.037,41.606 97.601,39.484 97.601,36.132 97.601,33.339 97.601,33.339 97.601,33.339 97.601,32.669 98.160,32.110 98.830,32.110 134.690,32.110 134.690,32.110 134.690,32.110 135.212,32.632 135.732,33.152 136.254,33.674 144.856,33.674 144.856,33.674 144.856,33.674 145.378,34.568 145.898,35.462 146.420,36.356 Z M 179.481,31.977 C 179.481,30.314 179.481,30.314 179.481,30.314 184.028,30.314 184.028,30.314 184.028,30.314 187.777,31.977 187.777,31.977 187.777,31.977 179.481,31.977 179.481,31.977 179.481,31.977 Z M 141.590,15.772 C 139.217,17.184 139.217,17.184 139.217,17.184 131.505,17.184 131.505,17.184 131.505,17.184 131.505,14.436 131.505,14.436 131.505,14.436 131.505,11.471 131.505,11.471 131.505,11.471 131.505,8.724 131.505,8.724 131.505,8.724 139.217,8.724 139.217,8.724 139.217,8.724 141.590,10.136 141.590,10.136 141.590,10.136 151.016,10.136 151.016,10.136 151.016,10.136 151.016,15.772 151.016,15.772 151.016,15.772 141.590,15.772 141.590,15.772 141.590,15.772 Z M 175.354,60.486 C 174.460,63.949 171.444,71.769 163.624,71.769 153.570,71.769 152.229,62.608 151.335,59.369 150.888,57.917 150.106,57.358 149.212,57.358 148.207,57.358 147.201,58.252 147.201,59.369 147.201,61.380 146.307,61.827 146.307,61.827 146.307,61.827 143.514,63.279 142.620,64.955 141.168,67.301 138.263,67.860 135.470,67.860 134.210,67.860 133.006,67.779 132.008,67.691 129.053,66.925 126.964,68.515 126.868,68.591 126.413,68.947 126.413,68.947 126.413,68.947 126.373,69.524 126.373,69.524 126.373,69.524 125.844,77.237 121.056,82.950 121.008,83.006 120.576,83.514 120.576,83.514 120.576,83.514 120.734,84.160 120.734,84.160 120.734,84.160 121.613,87.742 120.293,88.930 119.688,89.273 107.148,85.913 107.148,85.913 107.148,85.913 107.146,85.910 107.144,85.913 107.141,85.908 105.996,85.687 105.200,84.423 105.604,83.211 107.056,79.189 110.110,69.200 111.786,64.508 114.132,57.917 107.988,57.693 107.988,57.693 107.988,57.693 106.759,57.805 105.083,57.805 102.625,57.805 99.274,57.693 97.822,56.911 95.476,55.682 93.242,55.682 93.242,55.682 93.242,59.033 93.242,59.033 93.242,59.033 90.114,59.033 90.114,59.033 90.114,59.033 90.114,55.458 90.114,55.458 90.114,55.458 90.114,55.458 88.885,55.570 86.651,55.905 86.651,35.127 86.651,35.127 86.651,35.127 86.763,35.127 86.763,35.127 86.763,35.127 87.098,35.127 87.210,35.127 87.210,35.127 87.620,33.376 88.029,31.627 88.439,29.876 88.439,29.235 88.439,28.424 88.439,28.424 88.439,23.397 88.439,23.397 88.439,23.397 123.517,23.397 123.517,23.397 123.517,23.397 123.517,27.642 123.517,27.642 123.517,27.642 135.247,27.642 135.247,27.642 135.247,27.642 136.811,28.014 138.375,28.387 139.939,28.759 146.754,28.759 146.754,28.759 146.754,28.759 147.126,29.392 147.499,30.025 147.871,30.658 151.015,30.658 151.015,30.658 151.015,30.658 151.015,32.612 151.015,32.612 151.015,32.612 145.333,32.612 145.333,32.612 145.333,32.612 145.322,32.594 145.312,32.576 145.301,32.557 136.476,32.557 136.476,32.557 136.476,32.557 134.912,30.993 134.912,30.993 134.912,30.993 98.718,30.993 98.718,30.993 98.718,30.993 97.489,30.993 96.484,31.998 96.484,33.227 96.484,36.020 96.484,36.020 96.484,36.020 96.484,39.148 95.143,40.935 94.026,42.164 93.691,42.611 93.356,43.058 93.132,43.505 93.020,43.728 92.909,43.952 92.685,44.175 91.903,45.516 90.674,47.526 92.462,50.878 94.584,54.788 100.952,54.565 101.287,54.453 175.353,54.453 175.353,54.453 175.353,54.453 175.353,60.486 175.353,60.486 175.353,60.486 Z M 181.721,55.682 C 181.418,55.864 181.115,56.046 180.812,56.227 180.992,52.803 181.529,50.844 181.878,50.418 182.208,50.821 182.707,52.594 182.914,55.682 181.721,55.682 181.721,55.682 181.721,55.682 Z M 206.187,54.565 C 189.430,54.565 189.430,54.565 189.430,54.565 187.941,54.937 186.451,55.310 184.961,55.682 183.918,55.682 183.918,55.682 183.918,55.682 183.741,52.953 183.249,49.359 181.879,49.359 180.299,49.359 179.886,54.132 179.778,56.849 178.750,57.466 177.723,58.082 176.695,58.699 176.695,53.560 176.695,53.560 176.695,53.560 101.400,53.560 101.400,53.560 101.400,53.560 101.288,53.560 95.367,53.783 93.580,50.432 92.016,47.639 92.910,46.075 93.803,44.735 93.803,44.623 93.915,44.623 93.915,44.623 186.861,44.623 186.861,44.623 186.861,44.623 186.861,47.304 186.861,47.304 186.861,47.304 186.861,50.097 189.095,52.443 192.000,52.443 206.188,52.443 206.188,52.443 206.188,52.443 206.188,54.565 206.188,54.565 206.188,54.565 Z M 208.503,49.667 C 205.785,49.094 197.728,47.380 194.888,46.623 192.853,46.080 191.235,45.325 190.406,44.898 190.406,43.930 190.406,43.930 190.406,43.930 191.322,44.354 192.877,45.005 194.751,45.513 197.423,46.237 205.941,47.210 208.504,47.493 208.504,49.667 208.504,49.667 208.504,49.667 Z M 208.503,46.284 C 205.822,45.986 197.576,45.034 195.065,44.354 192.856,43.756 191.088,42.935 190.406,42.598 190.406,41.941 190.406,41.941 190.406,41.941 191.362,42.312 193.163,42.924 195.368,43.244 198.064,43.634 205.996,44.060 208.504,44.188 208.504,46.284 208.504,46.284 208.504,46.284 Z M 208.503,42.987 C 205.950,42.855 198.127,42.431 195.539,42.057 193.045,41.696 191.050,40.919 190.405,40.649 190.405,40.516 190.405,40.516 190.405,40.516 193.457,40.814 196.554,41.000 199.624,41.048 200.203,41.057 200.783,41.061 201.364,41.061 203.742,41.061 206.132,40.974 208.503,40.825 208.503,42.987 208.503,42.987 208.503,42.987 Z M 208.503,39.621 C 205.560,39.809 202.587,39.896 199.644,39.848 196.567,39.800 193.463,39.614 190.406,39.313 190.406,38.870 190.406,38.870 190.406,38.870 193.395,38.863 196.395,38.850 199.413,38.826 202.460,38.801 205.487,38.766 208.504,38.725 208.504,39.621 208.504,39.621 208.504,39.621 Z M 208.503,37.525 C 205.484,37.566 202.453,37.601 199.402,37.626 196.387,37.650 193.390,37.663 190.405,37.670 190.405,37.018 190.405,37.018 190.405,37.018 192.765,36.828 195.152,36.688 197.509,36.603 201.158,36.472 204.853,36.474 208.503,36.595 208.503,37.525 208.503,37.525 208.503,37.525 Z M 208.503,35.396 C 204.837,35.276 201.128,35.273 197.466,35.404 194.907,35.496 192.313,35.652 189.755,35.867 189.205,35.913 189.205,35.913 189.205,35.913 189.205,45.549 189.205,45.549 189.205,45.549 189.177,45.596 189.177,45.596 189.177,45.596 189.180,45.597 189.200,45.609 189.205,45.612 189.205,45.657 189.205,45.657 189.205,45.657 189.283,45.657 189.283,45.657 189.283,45.657 189.738,45.918 191.769,47.030 194.579,47.780 197.538,48.570 206.060,50.377 208.503,50.891 208.503,54.563 208.503,54.563 208.503,54.563 207.192,54.563 207.192,54.563 207.192,54.563 207.192,51.433 207.192,51.433 207.192,51.433 206.820,51.433 206.075,51.435 206.075,51.435 191.887,51.435 191.887,51.435 191.887,51.435 189.653,51.435 187.865,49.648 187.865,47.413 187.865,33.556 187.865,33.556 187.865,33.556 208.502,33.598 208.502,33.598 208.502,33.598 208.502,35.396 208.502,35.396 208.502,35.396 Z M 221.827,53.224 C 209.404,53.224 209.404,53.224 209.404,53.224 209.404,49.914 209.404,49.914 209.404,49.914 209.416,49.858 209.416,49.858 209.416,49.858 209.415,49.858 209.407,49.856 209.404,49.856 209.404,30.619 209.404,30.619 209.404,30.619 208.757,30.619 208.757,30.619 208.757,30.619 208.757,25.340 208.757,25.340 208.757,25.340 221.827,25.184 221.827,25.184 221.827,25.184 221.827,53.224 221.827,53.224 221.827,53.224 Z M 225.625,55.123 C 222.832,55.123 222.832,55.123 222.832,55.123 222.832,23.285 222.832,23.285 222.832,23.285 225.625,23.285 225.625,23.285 225.625,23.285 225.625,55.123 225.625,55.123 225.625,55.123 Z M 229.535,55.123 C 226.742,55.123 226.742,55.123 226.742,55.123 226.742,23.285 226.742,23.285 226.742,23.285 229.535,23.285 229.535,23.285 229.535,23.285 229.535,55.123 229.535,55.123 229.535,55.123 Z M 233.333,55.123 C 230.540,55.123 230.540,55.123 230.540,55.123 230.540,23.285 230.540,23.285 230.540,23.285 233.333,23.285 233.333,23.285 233.333,23.285 233.333,55.123 233.333,55.123 233.333,55.123 Z M 237.131,55.123 C 234.338,55.123 234.338,55.123 234.338,55.123 234.338,23.285 234.338,23.285 234.338,23.285 237.131,23.285 237.131,23.285 237.131,23.285 237.131,55.123 237.131,55.123 237.131,55.123 Z M 302.829,25.630 C 305.487,25.630 305.487,25.630 305.487,25.630 305.487,52.085 305.487,52.085 305.487,52.085 302.913,52.085 302.913,52.085 302.913,52.085 302.913,40.986 302.913,40.986 302.913,40.986 301.559,40.986 301.559,40.986 301.559,40.986 294.385,40.986 294.385,40.986 294.385,40.986 292.491,40.986 292.491,40.986 292.491,40.986 292.491,37.452 292.491,37.452 292.491,37.452 302.828,37.452 302.828,37.452 302.828,37.452 302.828,25.630 302.828,25.630 302.828,25.630 Z M 293.153,18.702 C 302.725,18.702 302.725,18.702 302.725,18.702 302.725,20.134 302.725,20.134 302.725,20.134 293.153,20.134 293.153,20.134 293.153,20.134 293.153,18.702 293.153,18.702 293.153,18.702 Z M 292.304,22.166 C 293.154,22.166 293.154,22.166 293.154,22.166 293.154,21.034 293.154,21.034 293.154,21.034 302.727,21.034 302.727,21.034 302.727,21.034 302.727,23.278 302.727,23.278 302.727,23.278 292.304,23.278 292.304,23.278 292.304,23.278 292.304,22.166 292.304,22.166 292.304,22.166 Z M 287.428,23.183 C 287.516,23.183 287.516,23.183 287.516,23.183 288.533,22.166 288.533,22.166 288.533,22.166 291.404,22.166 291.404,22.166 291.404,22.166 291.404,24.178 291.404,24.178 291.404,24.178 301.929,24.178 301.929,24.178 301.929,24.178 301.929,36.552 301.929,36.552 301.929,36.552 291.592,36.552 291.592,36.552 291.592,36.552 291.592,41.886 291.592,41.886 291.592,41.886 294.386,41.886 294.386,41.886 294.386,41.886 301.560,41.886 301.560,41.886 301.560,41.886 302.013,41.886 302.013,41.886 302.013,41.886 302.013,52.085 302.013,52.085 302.013,52.085 302.013,52.535 302.013,52.535 302.013,52.535 302.013,54.260 302.013,54.260 302.013,54.260 291.479,54.260 291.479,54.260 291.479,54.260 291.479,57.198 291.479,57.198 291.479,57.198 288.054,57.198 288.054,57.198 288.054,57.198 287.428,55.959 287.428,55.959 287.428,55.959 287.428,23.183 287.428,23.183 287.428,23.183 Z M 256.834,19.089 C 257.277,18.645 257.277,18.645 257.277,18.645 266.179,18.645 266.179,18.645 266.179,18.645 266.368,18.835 266.368,18.835 266.368,18.835 266.368,19.728 266.368,19.728 266.368,19.728 265.573,20.130 264.025,20.575 261.709,20.575 259.158,20.575 257.537,20.036 256.833,19.609 256.833,19.089 256.833,19.089 256.833,19.089 Z M 244.069,55.151 C 243.219,55.151 243.219,55.151 243.219,55.151 243.219,56.858 243.219,56.858 243.219,56.858 240.644,56.858 240.644,56.858 240.644,56.858 240.644,55.125 240.644,55.125 240.644,55.125 240.502,55.125 240.502,55.125 240.502,55.125 240.502,55.125 240.502,55.124 240.502,55.123 238.136,55.123 238.136,55.123 238.136,55.123 238.136,23.285 238.136,23.285 238.136,23.285 240.644,23.285 240.644,23.285 240.644,23.285 240.644,21.552 240.644,21.552 240.644,21.552 243.219,21.552 243.219,21.552 243.219,21.552 243.219,23.259 243.219,23.259 243.219,23.259 244.069,23.259 244.069,23.259 244.069,23.259 244.069,55.151 244.069,55.151 244.069,55.151 Z M 244.970,55.151 C 244.970,23.258 244.970,23.258 244.970,23.258 256.834,23.258 256.834,23.258 256.834,23.258 256.834,21.697 256.834,21.697 256.834,21.697 258.195,22.221 259.982,22.474 261.710,22.474 263.347,22.474 265.038,22.246 266.369,21.776 266.369,23.182 266.369,23.182 266.369,23.182 286.527,23.182 286.527,23.182 286.527,23.182 286.527,56.000 286.527,56.000 286.527,56.000 279.899,56.000 279.899,56.000 279.899,56.000 279.899,57.187 279.899,57.187 279.899,57.187 264.136,57.187 264.136,57.187 264.136,57.187 264.136,56.000 264.136,56.000 264.136,56.000 258.574,56.000 258.574,56.000 258.574,56.000 258.574,55.150 258.574,55.150 258.574,55.150 244.970,55.150 244.970,55.150 244.970,55.150 Z M 306.134,61.290 C 258.575,61.290 258.575,61.290 258.575,61.290 258.575,56.901 258.575,56.901 258.575,56.901 263.236,56.901 263.236,56.901 263.236,56.901 263.236,58.088 263.236,58.088 263.236,58.088 280.800,58.088 280.800,58.088 280.800,58.088 280.800,56.901 280.800,56.901 280.800,56.901 286.928,56.901 286.928,56.901 286.928,56.901 287.501,58.097 287.501,58.097 287.501,58.097 292.379,58.097 292.379,58.097 292.379,58.097 292.379,55.160 292.379,55.160 292.379,55.160 302.913,55.160 302.913,55.160 302.913,55.160 302.913,52.985 302.913,52.985 302.913,52.985 305.487,52.985 305.487,52.985 305.487,52.985 305.487,55.104 305.487,55.104 305.487,55.104 304.609,55.104 304.609,55.104 304.609,55.104 304.609,59.201 304.609,59.201 304.609,59.201 306.133,59.201 306.133,59.201 306.133,59.201 306.133,61.290 306.133,61.290 306.133,61.290 Z M 315.200,55.104 C 306.388,55.104 306.388,55.104 306.388,55.104 306.388,54.479 306.388,54.479 306.388,54.479 315.200,54.479 315.200,54.479 315.200,54.479 315.200,55.104 315.200,55.104 315.200,55.104 Z M 315.200,53.979 C 306.388,53.979 306.388,53.979 306.388,53.979 306.388,53.274 306.388,53.274 306.388,53.274 315.200,53.274 315.200,53.274 315.200,53.274 315.200,53.979 315.200,53.979 315.200,53.979 Z M 315.807,52.774 C 306.388,52.774 306.388,52.774 306.388,52.774 306.388,52.069 306.388,52.069 306.388,52.069 315.807,52.069 315.807,52.069 315.807,52.069 315.807,52.774 315.807,52.774 315.807,52.774 Z M 315.807,51.569 C 306.388,51.569 306.388,51.569 306.388,51.569 306.388,50.850 306.388,50.850 306.388,50.850 315.807,50.850 315.807,50.850 315.807,50.850 315.807,51.569 315.807,51.569 315.807,51.569 Z M 315.807,50.351 C 306.388,50.351 306.388,50.351 306.388,50.351 306.388,49.609 306.388,49.609 306.388,49.609 315.807,49.609 315.807,49.609 315.807,49.609 315.807,50.351 315.807,50.351 315.807,50.351 Z M 315.807,49.108 C 306.388,49.108 306.388,49.108 306.388,49.108 306.388,48.322 306.388,48.322 306.388,48.322 315.807,48.322 315.807,48.322 315.807,48.322 315.807,49.108 315.807,49.108 315.807,49.108 Z M 315.807,47.823 C 306.388,47.823 306.388,47.823 306.388,47.823 306.388,46.996 306.388,46.996 306.388,46.996 315.807,46.996 315.807,46.996 315.807,46.996 315.807,47.823 315.807,47.823 315.807,47.823 Z M 315.807,46.496 C 306.388,46.496 306.388,46.496 306.388,46.496 306.388,45.543 306.388,45.543 306.388,45.543 315.807,45.543 315.807,45.543 315.807,45.543 315.807,46.496 315.807,46.496 315.807,46.496 Z M 315.807,45.042 C 306.388,45.042 306.388,45.042 306.388,45.042 306.388,44.143 306.388,44.143 306.388,44.143 315.807,44.143 315.807,44.143 315.807,44.143 315.807,45.042 315.807,45.042 315.807,45.042 Z M 315.807,43.643 C 306.388,43.643 306.388,43.643 306.388,43.643 306.388,42.816 306.388,42.816 306.388,42.816 315.807,42.816 315.807,42.816 315.807,42.816 315.807,43.643 315.807,43.643 315.807,43.643 Z M 315.807,42.316 C 306.388,42.316 306.388,42.316 306.388,42.316 306.388,41.488 306.388,41.488 306.388,41.488 315.807,41.488 315.807,41.488 315.807,41.488 315.807,42.316 315.807,42.316 315.807,42.316 Z M 315.807,40.988 C 306.388,40.988 306.388,40.988 306.388,40.988 306.388,40.015 306.388,40.015 306.388,40.015 315.807,40.015 315.807,40.015 315.807,40.015 315.807,40.988 315.807,40.988 315.807,40.988 Z M 315.807,39.515 C 306.388,39.515 306.388,39.515 306.388,39.515 306.388,38.591 306.388,38.591 306.388,38.591 315.807,38.591 315.807,38.591 315.807,38.591 315.807,39.515 315.807,39.515 315.807,39.515 Z M 315.807,38.091 C 306.388,38.091 306.388,38.091 306.388,38.091 306.388,37.308 306.388,37.308 306.388,37.308 315.807,37.308 315.807,37.308 315.807,37.308 315.807,38.091 315.807,38.091 315.807,38.091 Z M 315.807,36.809 C 306.388,36.809 306.388,36.809 306.388,36.809 306.388,36.010 306.388,36.010 306.388,36.010 315.807,36.010 315.807,36.010 315.807,36.010 315.807,36.809 315.807,36.809 315.807,36.809 Z M 315.807,35.509 C 306.388,35.509 306.388,35.509 306.388,35.509 306.388,34.654 306.388,34.654 306.388,34.654 315.807,34.654 315.807,34.654 315.807,34.654 315.807,35.509 315.807,35.509 315.807,35.509 Z M 315.807,34.154 C 306.388,34.154 306.388,34.154 306.388,34.154 306.388,33.355 306.388,33.355 306.388,33.355 315.807,33.355 315.807,33.355 315.807,33.355 315.807,34.154 315.807,34.154 315.807,34.154 Z M 315.807,32.854 C 306.388,32.854 306.388,32.854 306.388,32.854 306.388,31.980 306.388,31.980 306.388,31.980 315.807,31.980 315.807,31.980 315.807,31.980 315.807,32.854 315.807,32.854 315.807,32.854 Z M 315.807,31.480 C 306.388,31.480 306.388,31.480 306.388,31.480 306.388,30.681 306.388,30.681 306.388,30.681 315.807,30.681 315.807,30.681 315.807,30.681 315.807,31.480 315.807,31.480 315.807,31.480 Z M 315.807,30.181 C 306.388,30.181 306.388,30.181 306.388,30.181 306.388,29.438 306.388,29.438 306.388,29.438 315.807,29.438 315.807,29.438 315.807,29.438 315.807,30.181 315.807,30.181 315.807,30.181 Z M 315.807,28.938 C 306.388,28.938 306.388,28.938 306.388,28.938 306.388,28.139 306.388,28.139 306.388,28.139 315.807,28.139 315.807,28.139 315.807,28.139 315.807,28.938 315.807,28.938 315.807,28.938 Z M 315.807,27.639 C 306.388,27.639 306.388,27.639 306.388,27.639 306.388,26.972 306.388,26.972 306.388,26.972 315.807,26.972 315.807,26.972 315.807,26.972 315.807,27.639 315.807,27.639 315.807,27.639 Z M 315.807,26.472 C 306.388,26.472 306.388,26.472 306.388,26.472 306.388,25.899 306.388,25.899 306.388,25.899 315.807,25.899 315.807,25.899 315.807,25.899 315.807,26.472 315.807,26.472 315.807,26.472 Z M 315.807,25.398 C 306.835,25.398 306.835,25.398 306.835,25.398 307.134,25.154 307.134,25.154 307.134,25.154 313.948,25.154 313.948,25.154 313.948,25.154 313.948,25.184 313.948,25.184 313.948,25.184 315.806,25.184 315.806,25.184 315.806,25.184 315.806,25.398 315.806,25.398 315.806,25.398 Z M 322.443,53.224 C 316.755,53.224 316.755,53.224 316.755,53.224 316.755,25.184 316.755,25.184 316.755,25.184 322.443,25.184 322.443,25.184 322.443,25.184 322.443,53.224 322.443,53.224 322.443,53.224 Z M 374.789,50.990 C 323.496,50.990 323.496,50.990 323.496,50.990 323.496,27.530 323.496,27.530 323.496,27.530 374.789,27.530 374.789,27.530 374.789,27.530 374.789,50.990 374.789,50.990 374.789,50.990 Z M 380.582,48.421 C 380.582,49.873 379.529,50.990 378.160,50.990 375.738,50.990 375.738,50.990 375.738,50.990 375.738,27.530 375.738,27.530 375.738,27.530 378.160,27.530 378.160,27.530 378.160,27.530 379.529,27.530 380.582,28.647 380.582,30.099 380.582,48.421 380.582,48.421 380.582,48.421 Z M 39.254,55.459 C 39.254,57.693 37.467,59.481 35.232,59.481 32.998,59.481 31.210,57.694 31.210,55.459 31.210,53.224 32.997,51.437 35.232,51.437 37.466,51.437 39.254,53.224 39.254,55.459 Z M 155.548,48.421 C 155.548,50.025 154.248,51.326 152.643,51.326 151.038,51.326 149.738,50.026 149.738,48.421 149.738,46.816 151.038,45.516 152.643,45.516 154.248,45.516 155.548,46.816 155.548,48.421 Z M 161.469,61.491 C 161.469,60.689 162.119,60.039 162.921,60.039 163.723,60.039 164.373,60.689 164.373,61.491 164.373,62.293 163.723,62.943 162.921,62.943 162.119,62.943 161.469,62.293 161.469,61.491 Z M 285.047,58.687 C 285.047,59.308 284.543,59.812 283.922,59.812 283.301,59.812 282.797,59.308 282.797,58.687 282.797,58.066 283.301,57.562 283.922,57.562 284.543,57.562 285.047,58.066 285.047,58.687 Z M 261.453,58.687 C 261.453,59.308 260.950,59.812 260.328,59.812 259.706,59.812 259.203,59.308 259.203,58.687 259.203,58.066 259.707,57.562 260.328,57.562 260.949,57.562 261.453,58.066 261.453,58.687 Z M 261.267,38.079 C 261.888,38.079 262.392,38.582 262.392,39.204 262.392,39.826 261.889,40.329 261.267,40.329 260.645,40.329 260.142,39.825 260.142,39.204 260.142,38.583 260.646,38.079 261.267,38.079 Z M 95.558,29.541 C 101.080,29.541 106.604,29.541 112.126,29.541 113.300,29.541 114.213,28.759 114.213,27.754 114.213,26.749 113.300,25.967 112.126,25.967 106.604,25.967 101.080,25.967 95.558,25.967 94.384,25.855 93.471,26.749 93.471,27.754 93.471,28.759 94.384,29.541 95.558,29.541 Z M 95.558,26.972 C 101.080,26.972 106.604,26.972 112.126,26.972 112.648,26.972 113.039,27.307 113.039,27.754 113.039,28.201 112.648,28.536 112.126,28.536 106.604,28.536 101.080,28.536 95.558,28.536 95.036,28.424 94.645,28.089 94.645,27.754 94.645,27.307 95.036,26.972 95.558,26.972 Z M 132.200,65.289 C 133.764,65.289 135.328,65.289 136.892,65.289 139.238,65.289 141.249,63.390 141.249,60.932 141.249,60.895 141.249,60.857 141.249,60.820 141.249,58.474 139.350,56.463 136.892,56.463 136.632,56.463 136.370,56.463 136.110,56.463 134.806,56.463 133.504,56.463 132.200,56.463 129.742,56.463 127.843,58.474 127.843,60.820 127.843,60.857 127.843,60.895 127.843,60.932 127.843,63.279 129.742,65.289 132.200,65.289 Z M 134.881,58.587 C 135.551,58.587 136.222,58.587 136.892,58.587 138.121,58.587 139.126,59.592 139.126,60.821 139.126,60.858 139.126,60.896 139.126,60.933 139.126,62.162 138.121,63.167 136.892,63.167 136.370,63.167 135.850,63.167 135.328,63.167 135.105,62.720 134.881,62.162 134.546,61.380 134.211,60.709 134.546,59.592 134.881,58.587 Z M 129.965,60.821 C 129.965,59.592 130.970,58.587 132.199,58.587 132.459,58.587 132.721,58.587 132.981,58.587 133.204,59.257 133.316,60.039 133.316,60.933 133.316,61.938 133.875,62.720 134.433,63.279 133.688,63.279 132.944,63.279 132.199,63.279 130.970,63.279 129.965,62.274 129.965,61.045 129.965,60.969 129.965,60.896 129.965,60.821 Z M 268.636,39.204 C 268.636,35.244 265.414,32.022 261.453,32.022 257.492,32.022 254.270,35.244 254.270,39.204 254.270,43.164 257.492,46.387 261.453,46.387 265.414,46.387 268.636,43.165 268.636,39.204 Z M 266.480,37.999 C 266.541,38.254 266.572,38.517 266.593,38.785 266.472,39.141 266.144,39.401 265.748,39.401 265.251,39.401 264.846,38.996 264.846,38.499 264.846,38.001 265.251,37.596 265.748,37.596 266.057,37.596 266.317,37.762 266.480,37.999 Z M 261.453,34.022 C 263.362,34.022 265.015,35.072 265.915,36.613 265.859,36.608 265.805,36.596 265.748,36.596 264.921,36.596 264.223,37.130 263.961,37.869 263.466,36.875 262.451,36.185 261.267,36.185 259.826,36.185 258.622,37.201 258.322,38.553 257.973,38.143 257.459,37.877 256.880,37.877 256.730,37.877 256.587,37.898 256.447,37.931 257.019,35.691 259.037,34.022 261.453,34.022 Z M 263.087,39.204 C 263.087,40.207 262.271,41.023 261.268,41.023 260.264,41.023 259.448,40.207 259.448,39.204 259.448,38.201 260.264,37.385 261.268,37.385 262.271,37.385 263.087,38.201 263.087,39.204 Z M 256.478,40.576 C 256.356,40.136 256.270,39.682 256.270,39.204 256.270,39.174 256.278,39.146 256.279,39.116 256.439,38.971 256.647,38.876 256.880,38.876 257.377,38.876 257.782,39.281 257.782,39.779 257.782,40.277 257.377,40.681 256.880,40.681 256.734,40.682 256.601,40.638 256.478,40.576 Z M 256.927,41.677 C 257.667,41.659 258.300,41.217 258.598,40.585 259.101,41.554 260.103,42.224 261.268,42.224 262.781,42.224 264.026,41.101 264.242,39.647 264.590,40.102 265.133,40.401 265.749,40.401 266.029,40.401 266.293,40.336 266.533,40.227 266.056,42.596 263.961,44.386 261.454,44.386 259.496,44.387 257.809,43.283 256.927,41.677 Z M 156.950,19.713 C 156.950,20.693 156.156,21.488 155.175,21.488 154.195,21.488 153.400,20.694 153.400,19.713 153.400,18.733 154.194,17.938 155.175,17.938 156.155,17.938 156.950,18.733 156.950,19.713 Z M 155.757,10.863 C 155.757,10.461 156.083,10.135 156.485,10.135 156.887,10.135 157.213,10.461 157.213,10.863 157.213,11.265 156.887,11.591 156.485,11.591 156.083,11.591 155.757,11.265 155.757,10.863 Z M 152.989,10.863 C 152.989,10.461 153.315,10.135 153.717,10.135 154.119,10.135 154.445,10.461 154.445,10.863 154.445,11.265 154.119,11.591 153.717,11.591 153.315,11.591 152.989,11.265 152.989,10.863 Z M 175.826,10.863 C 175.826,10.461 176.152,10.135 176.554,10.135 176.956,10.135 177.282,10.461 177.282,10.863 177.282,11.265 176.956,11.591 176.554,11.591 176.152,11.591 175.826,11.265 175.826,10.863 Z M 173.058,10.863 C 173.058,10.461 173.384,10.135 173.786,10.135 174.188,10.135 174.514,10.461 174.514,10.863 174.514,11.265 174.188,11.591 173.786,11.591 173.384,11.591 173.058,11.265 173.058,10.863 Z M 172.888,19.713 C 172.888,18.733 173.682,17.938 174.663,17.938 175.644,17.938 176.438,18.732 176.438,19.713 176.438,20.693 175.644,21.488 174.663,21.488 173.682,21.488 172.888,20.693 172.888,19.713 Z M 140.627,38.656 C 140.627,41.327 140.627,41.327 140.627,41.327 140.627,42.012 141.185,42.569 141.870,42.569 168.038,42.569 168.038,42.569 168.038,42.569 168.723,42.569 169.280,42.012 169.280,41.327 169.280,38.656 169.280,38.656 169.280,38.656 169.280,37.971 168.723,37.414 168.038,37.414 141.870,37.414 141.870,37.414 141.870,37.414 141.185,37.414 140.627,37.971 140.627,38.656 Z M 168.380,38.656 C 168.380,41.327 168.380,41.327 168.380,41.327 168.380,41.515 168.227,41.669 168.038,41.669 141.870,41.669 141.870,41.669 141.870,41.669 141.681,41.669 141.528,41.516 141.528,41.327 141.528,38.656 141.528,38.656 141.528,38.656 141.528,38.468 141.681,38.314 141.870,38.314 168.038,38.314 168.038,38.314 168.038,38.314 168.227,38.314 168.380,38.467 168.380,38.656 Z " />
</svg>