<?xml version="1.0" encoding="UTF-8" standalone="no"?>
<!DOCTYPE svg PUBLIC "-//W3C//DTD SVG 20010904//EN" "http://www.w3.org/TR/2001/REC-SVG-20010904/DTD/svg10.dtd"[]>
<svg version="1.1" id="Frosty Editor v1.0.6.3" xmlns="http://www.w3.org/2000/svg" d1p1:xlink="http://www.w3.org/1999/xlink" viewBox="0 0 384 96" xmlns:d1p1="xmlns">
  <path stroke="none" fill="none" d="M 159.430,25.310 C 159.430,25.480 159.430,25.650 159.430,25.820 160.787,25.820 162.143,25.820 163.500,25.820 163.500,25.650 163.500,25.480 163.500,25.310 163.513,25.310 163.527,25.310 163.540,25.310 163.540,23.320 163.540,21.330 163.540,19.340 163.527,19.340 163.513,19.340 163.500,19.340 163.500,18.660 163.500,17.980 163.500,17.300 162.153,17.300 160.807,17.300 159.460,17.300 159.460,17.980 159.460,18.660 159.460,19.340 159.390,19.340 159.320,19.340 159.250,19.340 159.250,21.330 159.250,23.320 159.250,25.310 159.310,25.310 159.370,25.310 159.430,25.310 159.430,25.310 159.430,25.310 159.430,25.310 Z " />
  <path stroke="none" fill="none" d="M 161.390,34.880 C 160.581,34.880 159.852,34.393 159.542,33.645 159.233,32.898 159.404,32.038 159.976,31.466 160.548,30.894 161.408,30.723 162.155,31.032 162.903,31.342 163.390,32.071 163.390,32.880 163.385,33.981 162.491,34.870 161.390,34.870 161.390,34.873 161.390,34.877 161.390,34.880 Z M 163.540,31.880 C 163.540,31.880 163.540,31.880 163.540,31.880 163.540,31.007 163.540,30.133 163.540,29.260 162.183,29.260 160.827,29.260 159.470,29.260 159.470,30.133 159.470,31.007 159.470,31.880 159.470,31.880 159.470,31.880 159.470,31.880 159.470,33.743 159.470,35.607 159.470,37.470 162.093,37.470 164.717,37.470 167.340,37.470 167.340,37.157 167.340,36.843 167.340,36.530 166.100,36.530 164.860,36.530 163.620,36.530 163.593,34.980 163.567,33.430 163.540,31.880 Z " />
  <path stroke="none" fill="none" d="M 165.040,25.310 C 165.933,25.310 166.827,25.310 167.720,25.310 167.720,24.857 167.720,24.403 167.720,23.950 167.793,23.950 167.867,23.950 167.940,23.950 167.940,22.870 167.940,21.790 167.940,20.710 167.867,20.710 167.793,20.710 167.720,20.710 167.720,20.253 167.720,19.797 167.720,19.340 166.827,19.340 165.933,19.340 165.040,19.340 165.040,21.330 165.040,23.320 165.040,25.310 165.040,25.310 165.040,25.310 165.040,25.310 Z " />
  <path stroke="none" fill="none" d="M 161.840,32.920 C 161.840,33.169 161.639,33.370 161.390,33.370 161.142,33.370 160.940,33.169 160.940,32.920 160.940,32.671 161.142,32.470 161.390,32.470 161.639,32.470 161.840,32.671 161.840,32.920 161.840,32.920 161.840,32.920 161.840,32.920 Z " />
  <path stroke="none" fill="none" d="M 159.430,27.320 C 160.787,27.320 162.143,27.320 163.500,27.320 163.500,27.463 163.500,27.607 163.500,27.750 162.143,27.750 160.787,27.750 159.430,27.750 159.430,27.607 159.430,27.463 159.430,27.320 Z " />
  <path stroke="none" fill="none" d="M 168.780,37.060 C 169.247,37.060 169.713,37.060 170.180,37.060 170.180,37.117 170.180,37.173 170.180,37.230 169.713,37.230 169.247,37.230 168.780,37.230 168.780,37.173 168.780,37.117 168.780,37.060 Z " />
  <path stroke="none" fill="none" d="M 216.530,33.890 C 220.797,33.890 225.063,33.890 229.330,33.890 229.330,35.043 229.330,36.197 229.330,37.350 225.063,37.350 220.797,37.350 216.530,37.350 216.530,36.197 216.530,35.043 216.530,33.890 Z M 152.740,42.540 C 142.657,42.540 132.573,42.540 122.490,42.540 122.490,44.010 122.490,47.250 122.490,49.100 123.713,47.066 125.907,45.816 128.280,45.800 128.470,45.800 128.660,45.800 128.850,45.800 128.850,44.990 128.850,44.180 128.850,43.370 129.350,43.370 129.850,43.370 130.350,43.370 130.350,44.180 130.350,44.990 130.350,45.800 130.370,45.800 130.390,45.800 130.410,45.800 130.410,44.990 130.410,44.180 130.410,43.370 130.910,43.370 131.410,43.370 131.910,43.370 131.910,44.183 131.910,44.997 131.910,45.810 131.940,45.810 131.970,45.810 132.000,45.810 132.000,44.997 132.000,44.183 132.000,43.370 132.500,43.370 133.000,43.370 133.500,43.370 133.500,44.183 133.500,44.997 133.500,45.810 133.520,45.810 133.540,45.810 133.560,45.810 133.560,44.997 133.560,44.183 133.560,43.370 134.060,43.370 134.560,43.370 135.060,43.370 135.060,44.183 135.060,44.997 135.060,45.810 152.910,45.810 200.570,45.810 210.060,45.810 208.673,44.207 207.287,42.603 205.900,41.000 220.467,41.000 235.033,41.000 249.600,41.000 245.760,37.800 237.380,31.840 228.350,31.840 214.807,31.840 201.263,31.840 187.720,31.840 187.720,32.263 187.720,32.687 187.720,33.110 184.690,33.110 181.660,33.110 178.630,33.110 178.630,32.700 178.630,32.290 178.630,31.880 174.087,31.880 169.543,31.880 165.000,31.880 165.000,32.920 165.000,33.960 165.000,35.000 166.247,35.000 167.493,35.000 168.740,35.000 168.740,35.173 168.740,35.347 168.740,35.520 169.707,35.520 170.673,35.520 171.640,35.520 171.640,36.577 171.640,37.633 171.640,38.690 170.673,38.690 169.707,38.690 168.740,38.690 168.740,38.793 168.740,38.897 168.740,39.000 165.123,39.000 161.507,39.000 157.890,39.000 157.890,38.830 157.890,38.660 157.890,38.490 157.163,38.490 156.437,38.490 155.710,38.490 155.710,37.157 155.710,35.823 155.710,34.490 156.437,34.490 157.163,34.490 157.890,34.490 157.890,33.620 157.890,32.750 157.890,31.880 156.260,31.880 154.630,31.880 153.000,31.880 153.000,33.900 153.000,35.920 153.000,37.940 152.927,37.940 152.853,37.940 152.780,37.940 152.767,39.473 152.753,41.007 152.740,42.540 Z " />
  <path stroke="none" fill="none" d="M 157.220,36.010 C 157.440,36.010 157.660,36.010 157.880,36.010 157.880,36.327 157.880,36.643 157.880,36.960 157.660,36.960 157.440,36.960 157.220,36.960 157.220,36.643 157.220,36.327 157.220,36.010 Z " />
  <path stroke="none" fill="none" d="M 154.200,19.340 C 155.387,19.340 156.573,19.340 157.760,19.340 157.760,21.330 157.760,23.320 157.760,25.310 156.573,25.310 155.387,25.310 154.200,25.310 154.200,23.320 154.200,21.330 154.200,19.340 Z " />
  <path stroke="none" fill="none" d="M 218.030,35.380 C 221.297,35.380 224.563,35.380 227.830,35.380 227.830,35.533 227.830,35.687 227.830,35.840 224.563,35.840 221.297,35.840 218.030,35.840 218.030,35.687 218.030,35.533 218.030,35.380 Z " />
  <path stroke="none" fill="none" d="M 166.500,28.880 C 170.117,28.880 173.733,28.880 177.350,28.880 177.350,28.553 177.350,28.227 177.350,27.900 175.607,27.900 173.863,27.900 172.120,27.900 172.120,27.583 172.120,27.267 172.120,26.950 171.653,26.950 171.187,26.950 170.720,26.950 170.720,27.403 170.720,27.857 170.720,28.310 169.313,28.310 167.907,28.310 166.500,28.310 166.500,28.500 166.500,28.690 166.500,28.880 166.500,28.880 166.500,28.880 166.500,28.880 Z " />
  <path stroke="none" fill="none" d="M 205.540,27.900 C 200.033,27.900 194.527,27.900 189.020,27.900 189.020,28.227 189.020,28.553 189.020,28.880 197.800,28.880 206.580,28.880 215.360,28.880 215.360,27.997 215.360,27.113 215.360,26.230 212.087,26.230 208.813,26.230 205.540,26.230 205.540,26.787 205.540,27.343 205.540,27.900 205.540,27.900 205.540,27.900 205.540,27.900 Z " />
  <path stroke="none" fill="none" d="M 218.360,21.420 C 218.577,21.420 218.793,21.420 219.010,21.420 219.010,22.023 219.010,22.627 219.010,23.230 218.793,23.230 218.577,23.230 218.360,23.230 218.360,22.627 218.360,22.023 218.360,21.420 Z " />
  <path stroke="none" fill="none" d="M 169.430,20.710 C 170.753,20.710 172.077,20.710 173.400,20.710 173.400,21.790 173.400,22.870 173.400,23.950 172.077,23.950 170.753,23.950 169.430,23.950 169.430,22.870 169.430,21.790 169.430,20.710 Z " />
  <path stroke="none" fill="none" d="M 357.740,39.610 C 359.867,39.610 361.993,39.610 364.120,39.610 364.120,38.143 364.120,36.677 364.120,35.210 363.500,35.210 362.880,35.210 362.260,35.210 360.340,36.853 358.420,38.497 356.500,40.140 356.913,39.963 357.327,39.787 357.740,39.610 357.740,39.610 357.740,39.610 357.740,39.610 Z " />
  <path stroke="none" fill="none" d="M 204.260,21.420 C 207.960,21.420 211.660,21.420 215.360,21.420 215.360,22.023 215.360,22.627 215.360,23.230 211.660,23.230 207.960,23.230 204.260,23.230 204.260,22.627 204.260,22.023 204.260,21.420 Z " />
  <path stroke="none" fill="none" d="M 236.640,45.870 C 236.703,45.870 236.767,45.870 236.830,45.870 236.830,46.537 236.830,47.203 236.830,47.870 238.297,47.870 239.763,47.870 241.230,47.870 241.230,47.203 241.230,46.537 241.230,45.870 241.263,45.870 241.297,45.870 241.330,45.870 241.330,44.760 241.330,43.650 241.330,42.540 239.767,42.540 238.203,42.540 236.640,42.540 236.640,43.650 236.640,44.760 236.640,45.870 236.640,45.870 236.640,45.870 236.640,45.870 Z " />
  <path stroke="none" fill="none" d="M 174.900,23.950 C 174.973,23.950 175.047,23.950 175.120,23.950 175.120,24.267 175.120,24.583 175.120,24.900 176.290,24.900 177.460,24.900 178.630,24.900 178.630,23.183 178.630,21.467 178.630,19.750 177.460,19.750 176.290,19.750 175.120,19.750 175.120,20.070 175.120,20.390 175.120,20.710 175.047,20.710 174.973,20.710 174.900,20.710 174.900,21.790 174.900,22.870 174.900,23.950 174.900,23.950 174.900,23.950 174.900,23.950 Z " />
  <path stroke="none" fill="none" d="M 180.130,24.900 C 180.203,24.900 180.277,24.900 180.350,24.900 180.350,27.150 180.350,29.400 180.350,31.650 182.240,31.650 184.130,31.650 186.020,31.650 186.020,29.400 186.020,27.150 186.020,24.900 186.087,24.900 186.153,24.900 186.220,24.900 186.220,23.183 186.220,21.467 186.220,19.750 186.153,19.750 186.087,19.750 186.020,19.750 186.020,19.277 186.020,18.803 186.020,18.330 184.130,18.330 182.240,18.330 180.350,18.330 180.350,18.803 180.350,19.277 180.350,19.750 180.277,19.750 180.203,19.750 180.130,19.750 180.130,21.467 180.130,23.183 180.130,24.900 180.130,24.900 180.130,24.900 180.130,24.900 Z " />
  <path stroke="none" fill="none" d="M 187.720,24.900 C 192.660,24.900 197.600,24.900 202.540,24.900 202.540,24.343 202.540,23.787 202.540,23.230 202.613,23.230 202.687,23.230 202.760,23.230 202.760,22.627 202.760,22.023 202.760,21.420 202.687,21.420 202.613,21.420 202.540,21.420 202.540,20.863 202.540,20.307 202.540,19.750 197.600,19.750 192.660,19.750 187.720,19.750 187.720,21.467 187.720,23.183 187.720,24.900 187.720,24.900 187.720,24.900 187.720,24.900 Z " />
  <path stroke="none" fill="none" d="M 147.430,31.410 C 147.467,31.410 147.503,31.410 147.540,31.410 147.384,31.271 147.220,31.141 147.050,31.020 147.189,31.137 147.316,31.268 147.430,31.410 147.430,31.410 147.430,31.410 147.430,31.410 Z " />
  <path stroke="none" fill="none" d="M 211.710,47.290 C 211.020,47.290 151.240,47.290 133.300,47.290 133.300,50.573 133.300,53.857 133.300,57.140 132.040,57.140 130.780,57.140 129.520,57.140 129.477,57.183 129.433,57.227 129.390,57.270 130.770,57.270 132.150,57.270 133.530,57.270 134.020,54.513 134.510,51.757 135.000,49.000 143.667,49.000 152.333,49.000 161.000,49.000 161.473,51.767 161.947,54.533 162.420,57.300 168.913,57.300 175.407,57.300 181.900,57.300 186.757,55.043 191.613,52.787 196.470,50.530 198.580,50.530 200.690,50.530 202.800,50.530 206.220,49.457 209.640,48.383 213.060,47.310 212.610,47.303 212.160,47.297 211.710,47.290 Z " />
  <path stroke="none" fill="none" d="M 135.060,57.280 C 139.223,57.280 143.387,57.280 147.550,57.280 147.550,55.013 147.550,52.747 147.550,50.480 143.773,50.480 139.997,50.480 136.220,50.480 135.833,52.747 135.447,55.013 135.060,57.280 135.060,57.280 135.060,57.280 135.060,57.280 Z " />
  <path stroke="none" fill="none" d="M 227.810,45.870 C 227.823,45.870 227.837,45.870 227.850,45.870 228.440,45.153 229.030,44.437 229.620,43.720 229.620,43.327 229.620,42.933 229.620,42.540 222.813,42.540 216.007,42.540 209.200,42.540 210.567,44.100 211.933,45.660 213.300,47.220 213.720,47.090 214.140,46.960 214.560,46.830 218.693,46.830 222.827,46.830 226.960,46.830 227.243,46.510 227.527,46.190 227.810,45.870 227.810,45.870 227.810,45.870 227.810,45.870 Z " />
  <path stroke="none" fill="none" d="M 149.050,50.480 C 149.050,52.747 149.050,55.013 149.050,57.280 152.977,57.280 156.903,57.280 160.830,57.280 160.443,55.013 160.057,52.747 159.670,50.480 156.130,50.480 152.590,50.480 149.050,50.480 149.050,50.480 149.050,50.480 149.050,50.480 Z " />
  <path stroke="none" fill="none" d="M 118.750,46.810 C 117.177,47.810 115.603,48.810 114.030,49.810 112.273,49.810 110.517,49.810 108.760,49.810 108.760,49.310 108.760,48.810 108.760,48.310 110.370,48.310 111.980,48.310 113.590,48.310 114.807,47.540 116.023,46.770 117.240,46.000 117.240,45.547 117.240,45.093 117.240,44.640 117.740,44.640 118.240,44.640 118.740,44.640 118.743,45.363 118.747,46.087 118.750,46.810 Z M 128.930,55.660 C 129.890,55.660 130.850,55.660 131.810,55.660 131.810,52.873 131.810,50.087 131.810,47.300 130.640,47.300 129.470,47.300 128.300,47.300 126.214,47.347 124.337,48.577 123.460,50.470 123.393,50.617 123.327,50.763 123.260,50.910 122.507,50.910 121.753,50.910 121.000,50.910 121.000,50.653 121.000,50.397 121.000,50.140 121.000,48.970 121.000,44.360 121.000,42.540 108.737,42.540 96.473,42.540 84.210,42.540 83.837,42.790 83.463,43.040 83.090,43.290 74.270,43.290 65.450,43.290 56.630,43.290 51.043,40.673 45.457,38.057 39.870,35.440 30.457,35.440 21.043,35.440 11.630,35.440 9.087,38.197 6.543,40.953 4.000,43.710 4.000,50.213 4.000,56.717 4.000,63.220 9.037,63.260 13.986,64.541 18.410,66.950 22.767,69.205 26.517,72.477 29.340,76.490 29.713,76.490 30.087,76.490 30.460,76.490 30.460,74.327 30.460,72.163 30.460,70.000 31.127,69.300 31.793,68.600 32.460,67.900 32.460,62.900 32.460,57.900 32.460,52.900 33.793,51.527 35.127,50.153 36.460,48.780 54.307,48.780 72.153,48.780 90.000,48.780 88.443,50.947 86.887,53.113 85.330,55.280 85.410,56.239 85.357,57.205 85.170,58.150 84.290,61.290 76.000,67.580 71.000,70.000 71.000,70.000 71.000,70.000 71.000,70.000 69.874,70.462 68.676,70.726 67.460,70.780 57.723,70.780 47.987,70.780 38.250,70.780 36.612,70.780 35.277,69.467 35.250,67.830 35.250,63.220 35.250,58.610 35.250,54.000 35.277,52.363 36.612,51.050 38.250,51.050 52.917,51.050 67.583,51.050 82.250,51.050 83.480,51.075 84.570,51.848 85.000,53.000 85.667,52.063 86.333,51.127 87.000,50.190 70.373,50.190 53.747,50.190 37.120,50.190 36.080,51.270 35.040,52.350 34.000,53.430 34.000,58.430 34.000,63.430 34.000,68.430 33.333,69.130 32.667,69.830 32.000,70.530 32.000,72.497 32.000,74.463 32.000,76.430 45.080,76.430 58.160,76.430 71.240,76.430 72.240,75.637 73.240,74.843 74.240,74.050 74.240,74.050 74.240,74.050 74.240,74.050 74.260,74.033 74.280,74.017 74.300,74.000 74.520,73.827 74.740,73.653 74.960,73.480 74.960,73.480 74.960,73.480 74.960,73.480 81.853,68.080 88.747,62.680 95.640,57.280 106.163,57.280 116.687,57.280 127.210,57.280 127.783,56.740 128.357,56.200 128.930,55.660 Z " />
  <path stroke="none" fill="none" d="M 38.250,54.000 C 38.250,58.600 38.250,63.200 38.250,67.800 47.980,67.783 57.710,67.767 67.440,67.750 68.206,67.698 68.960,67.537 69.680,67.270 75.200,64.610 81.830,58.860 82.250,57.270 82.382,56.221 82.382,55.159 82.250,54.110 82.250,54.073 82.250,54.037 82.250,54.000 67.583,54.000 52.917,54.000 38.250,54.000 Z " />
  <path stroke="none" fill="none" d="M 377.730,43.260 C 371.120,43.260 364.510,43.260 357.900,43.260 357.900,42.760 357.900,42.260 357.900,41.760 364.510,41.760 371.120,41.760 377.730,41.760 377.730,42.260 377.730,42.760 377.730,43.260 Z M 377.730,46.780 C 371.120,46.780 364.510,46.780 357.900,46.780 357.900,46.280 357.900,45.780 357.900,45.280 364.510,45.280 371.120,45.280 377.730,45.280 377.730,45.780 377.730,46.280 377.730,46.780 Z M 364.120,41.330 C 364.120,41.260 364.120,41.190 364.120,41.120 362.097,41.120 360.073,41.120 358.050,41.120 357.383,41.403 356.717,41.687 356.050,41.970 356.050,42.213 356.050,42.457 356.050,42.700 321.197,42.700 286.343,42.700 251.490,42.700 251.433,42.647 251.377,42.593 251.320,42.540 248.493,42.540 245.667,42.540 242.840,42.540 242.840,43.653 242.840,44.767 242.840,45.880 280.200,45.880 317.560,45.880 354.920,45.880 355.850,46.337 356.780,46.793 357.710,47.250 359.003,47.250 360.297,47.250 361.590,47.250 361.590,47.320 361.590,47.390 361.590,47.460 362.750,47.460 363.910,47.460 365.070,47.460 365.070,47.390 365.070,47.320 365.070,47.250 369.403,47.250 373.737,47.250 378.070,47.250 379.070,46.917 380.070,46.583 381.070,46.250 381.070,44.917 381.070,43.583 381.070,42.250 380.070,41.917 379.070,41.583 378.070,41.250 373.420,41.277 368.770,41.303 364.120,41.330 Z " />
  <path stroke="none" fill="none" d="M 235.140,42.540 C 233.800,42.540 232.460,42.540 231.120,42.540 231.120,43.110 231.120,43.680 231.120,44.250 230.677,44.790 230.233,45.330 229.790,45.870 231.573,45.870 233.357,45.870 235.140,45.870 235.140,44.760 235.140,43.650 235.140,42.540 235.140,42.540 235.140,42.540 235.140,42.540 Z " />
  <path stroke="none" fill="none" d="M 361.600,48.960 C 362.760,48.960 363.920,48.960 365.080,48.960 365.080,49.677 365.080,50.393 365.080,51.110 363.920,51.110 362.760,51.110 361.600,51.110 361.600,50.393 361.600,49.677 361.600,48.960 Z " />
  <path stroke="none" fill="none" d="M 132.210,34.410 C 135.173,34.410 138.137,34.410 141.100,34.410 141.100,34.583 141.100,34.757 141.100,34.930 138.137,34.930 135.173,34.930 132.210,34.930 132.210,34.757 132.210,34.583 132.210,34.410 Z " />
  <path stroke="none" fill="none" d="M 129.210,32.460 C 128.972,32.073 128.550,31.838 128.095,31.838 127.641,31.838 127.219,32.073 126.980,32.460 126.980,33.713 126.980,34.967 126.980,36.220 127.723,36.220 128.467,36.220 129.210,36.220 129.210,34.967 129.210,33.713 129.210,32.460 Z " />
  <path stroke="none" fill="none" d="M 149.910,34.410 C 149.717,34.410 149.523,34.410 149.330,34.410 149.330,34.587 149.330,34.763 149.330,34.940 149.537,34.940 149.743,34.940 149.950,34.940 149.937,34.763 149.923,34.587 149.910,34.410 149.910,34.410 149.910,34.410 149.910,34.410 Z " />
  <path stroke="none" fill="none" d="M 128.100,30.340 C 128.965,30.339 129.782,30.733 130.320,31.410 134.547,31.410 138.773,31.410 143.000,31.410 143.533,30.732 144.348,30.337 145.210,30.340 145.670,30.341 146.123,30.455 146.530,30.670 144.430,29.390 140.690,28.290 135.820,28.290 130.040,28.290 125.820,29.840 124.100,31.410 124.693,31.410 125.287,31.410 125.880,31.410 126.415,30.729 127.234,30.334 128.100,30.340 128.100,30.340 128.100,30.340 128.100,30.340 Z " />
  <path stroke="none" fill="none" d="M 121.200,41.040 C 121.627,41.040 122.053,41.040 122.480,41.040 132.067,41.040 141.653,41.040 151.240,41.040 151.240,40.007 151.240,38.973 151.240,37.940 149.603,37.940 147.967,37.940 146.330,37.940 146.330,37.867 146.330,37.793 146.330,37.720 145.587,37.720 144.843,37.720 144.100,37.720 144.100,37.793 144.100,37.867 144.100,37.940 139.137,37.940 134.173,37.940 129.210,37.940 129.210,37.867 129.210,37.793 129.210,37.720 128.467,37.720 127.723,37.720 126.980,37.720 126.980,37.793 126.980,37.867 126.980,37.940 115.007,37.940 103.033,37.940 91.060,37.940 89.520,38.973 87.980,40.007 86.440,41.040 98.027,41.040 109.613,41.040 121.200,41.040 121.200,41.040 121.200,41.040 121.200,41.040 Z " />
  <path stroke="none" fill="none" d="M 96.680,60.280 C 90.453,65.167 84.227,70.053 78.000,74.940 79.600,75.680 81.850,76.700 84.620,77.940 89.380,80.050 91.530,77.140 91.550,77.110 96.033,71.500 100.517,65.890 105.000,60.280 102.227,60.280 99.453,60.280 96.680,60.280 Z " />
  <path stroke="none" fill="none" d="M 146.330,32.460 C 146.091,32.073 145.669,31.838 145.215,31.838 144.761,31.838 144.339,32.073 144.100,32.460 144.100,33.713 144.100,34.967 144.100,36.220 144.843,36.220 145.587,36.220 146.330,36.220 146.330,34.967 146.330,33.713 146.330,32.460 Z " />
  <path stroke="none" fill="#ffffffff" d="M 381.000,46.280 C 380.000,46.613 379.000,46.947 378.000,47.280 373.667,47.280 369.333,47.280 365.000,47.280 365.000,47.350 365.000,47.420 365.000,47.490 363.867,47.490 362.733,47.490 361.600,47.490 361.600,47.420 361.600,47.350 361.600,47.280 360.307,47.280 359.013,47.280 357.720,47.280 356.790,46.823 355.860,46.367 354.930,45.910 317.563,45.910 280.197,45.910 242.830,45.910 242.830,44.787 242.830,43.663 242.830,42.540 245.657,42.540 248.483,42.540 251.310,42.540 251.367,42.593 251.423,42.647 251.480,42.700 286.343,42.700 321.207,42.700 356.070,42.700 356.070,42.467 356.070,42.233 356.070,42.000 356.737,41.717 357.403,41.433 358.070,41.150 360.093,41.150 362.117,41.150 364.140,41.150 364.140,41.220 364.140,41.290 364.140,41.360 368.760,41.360 373.380,41.360 378.000,41.360 379.000,41.693 380.000,42.027 381.000,42.360 381.000,43.667 381.000,44.973 381.000,46.280 Z M 361.600,51.100 C 361.600,50.400 361.600,49.700 361.600,49.000 362.760,49.000 363.920,49.000 365.080,49.000 365.080,49.700 365.080,50.400 365.080,51.100 363.920,51.100 362.760,51.100 361.600,51.100 Z M 229.800,45.840 C 230.243,45.300 230.687,44.760 231.130,44.220 231.130,43.660 231.130,43.100 231.130,42.540 232.463,42.540 233.797,42.540 235.130,42.540 235.130,43.653 235.130,44.767 235.130,45.880 233.353,45.867 231.577,45.853 229.800,45.840 Z M 214.560,46.840 C 214.140,46.970 213.720,47.100 213.300,47.230 211.933,45.670 210.567,44.110 209.200,42.550 216.007,42.550 222.813,42.550 229.620,42.550 229.620,42.943 229.620,43.337 229.620,43.730 229.030,44.450 228.440,45.170 227.850,45.890 227.850,45.890 227.850,45.890 227.850,45.890 227.567,46.223 227.283,46.557 227.000,46.890 222.853,46.873 218.707,46.857 214.560,46.840 Z M 202.810,50.520 C 200.700,50.520 198.590,50.520 196.480,50.520 191.620,52.773 186.760,55.027 181.900,57.280 175.387,57.280 168.873,57.280 162.360,57.280 161.883,54.520 161.407,51.760 160.930,49.000 152.287,49.000 143.643,49.000 135.000,49.000 134.527,51.767 134.053,54.533 133.580,57.300 132.200,57.300 130.820,57.300 129.440,57.300 129.483,57.257 129.527,57.213 129.570,57.170 130.830,57.170 132.090,57.170 133.350,57.170 133.350,53.883 133.350,50.597 133.350,47.310 151.280,47.310 211.060,47.310 211.760,47.310 212.213,47.310 212.667,47.310 213.120,47.310 209.683,48.380 206.247,49.450 202.810,50.520 Z M 147.560,57.290 C 143.393,57.290 139.227,57.290 135.060,57.290 135.450,55.023 135.840,52.757 136.230,50.490 140.007,50.490 143.783,50.490 147.560,50.490 147.560,52.757 147.560,55.023 147.560,57.290 Z M 149.060,57.290 C 149.060,55.023 149.060,52.757 149.060,50.490 152.597,50.490 156.133,50.490 159.670,50.490 160.060,52.757 160.450,55.023 160.840,57.290 156.913,57.290 152.987,57.290 149.060,57.290 Z M 82.260,57.290 C 81.840,58.870 75.260,64.610 69.690,67.290 68.970,67.557 68.216,67.718 67.450,67.770 57.720,67.787 47.990,67.803 38.260,67.820 38.260,63.213 38.260,58.607 38.260,54.000 52.927,53.983 67.593,53.967 82.260,53.950 82.260,54.010 82.260,54.070 82.260,54.130 82.388,55.180 82.385,56.241 82.250,57.290 82.253,57.290 82.257,57.290 82.260,57.290 Z M 108.790,57.290 C 104.407,57.290 100.023,57.290 95.640,57.290 88.760,62.700 81.880,68.110 75.000,73.520 75.000,73.520 75.000,73.520 75.000,73.520 74.780,73.693 74.560,73.867 74.340,74.040 74.320,74.057 74.300,74.073 74.280,74.090 74.280,74.090 74.280,74.090 74.280,74.090 73.280,74.883 72.280,75.677 71.280,76.470 58.187,76.470 45.093,76.470 32.000,76.470 32.000,74.503 32.000,72.537 32.000,70.570 32.667,69.870 33.333,69.170 34.000,68.470 34.000,63.470 34.000,58.470 34.000,53.470 35.040,52.393 36.080,51.317 37.120,50.240 53.767,50.240 70.413,50.240 87.060,50.240 86.373,51.160 85.687,52.080 85.000,53.000 84.576,51.801 83.442,50.999 82.170,51.000 67.503,51.000 52.837,51.000 38.170,51.000 36.532,51.000 35.197,52.313 35.170,53.950 35.170,58.570 35.170,63.190 35.170,67.810 35.197,69.447 36.532,70.760 38.170,70.760 47.927,70.760 57.683,70.760 67.440,70.760 68.662,70.714 69.866,70.457 71.000,70.000 71.000,70.000 71.000,70.000 71.000,70.000 76.000,67.600 84.300,61.310 85.160,58.090 85.347,57.145 85.400,56.179 85.320,55.220 86.880,53.047 88.440,50.873 90.000,48.700 72.160,48.700 54.320,48.700 36.480,48.700 35.147,50.073 33.813,51.447 32.480,52.820 32.480,57.820 32.480,62.820 32.480,67.820 31.813,68.520 31.147,69.220 30.480,69.920 30.480,72.087 30.480,74.253 30.480,76.420 30.100,76.420 29.720,76.420 29.340,76.420 26.517,72.407 22.767,69.135 18.410,66.880 13.980,64.495 9.031,63.238 4.000,63.220 4.000,56.717 4.000,50.213 4.000,43.710 6.543,40.953 9.087,38.197 11.630,35.440 21.043,35.440 30.457,35.440 39.870,35.440 45.457,38.053 51.043,40.667 56.630,43.280 65.450,43.280 74.270,43.280 83.090,43.280 83.463,43.030 83.837,42.780 84.210,42.530 96.473,42.530 108.737,42.530 121.000,42.530 121.000,44.350 121.000,48.960 121.000,50.130 121.000,50.387 121.000,50.643 121.000,50.900 121.760,50.900 122.520,50.900 123.280,50.900 123.347,50.753 123.413,50.607 123.480,50.460 124.357,48.567 126.234,47.337 128.320,47.290 129.490,47.290 130.660,47.290 131.830,47.290 131.830,50.073 131.830,52.857 131.830,55.640 130.870,55.640 129.910,55.640 128.950,55.640 128.380,56.183 127.810,56.727 127.240,57.270 121.090,57.277 114.940,57.283 108.790,57.290 Z M 91.580,77.110 C 91.580,77.110 89.410,80.040 84.650,77.940 81.880,76.710 79.650,75.690 78.030,74.940 84.247,70.053 90.463,65.167 96.680,60.280 99.453,60.280 102.227,60.280 105.000,60.280 100.527,65.890 96.053,71.500 91.580,77.110 Z M 91.060,37.940 C 103.040,37.940 115.020,37.940 127.000,37.940 127.000,37.870 127.000,37.800 127.000,37.730 127.743,37.730 128.487,37.730 129.230,37.730 129.230,37.800 129.230,37.870 129.230,37.940 134.187,37.940 139.143,37.940 144.100,37.940 144.100,37.870 144.100,37.800 144.100,37.730 144.843,37.730 145.587,37.730 146.330,37.730 146.330,37.800 146.330,37.870 146.330,37.940 147.967,37.940 149.603,37.940 151.240,37.940 151.240,38.960 151.240,39.980 151.240,41.000 129.640,41.000 108.040,41.000 86.440,41.000 87.980,39.980 89.520,38.960 91.060,37.940 Z M 127.000,32.470 C 127.239,32.083 127.661,31.848 128.115,31.848 128.569,31.848 128.991,32.083 129.230,32.470 129.230,33.723 129.230,34.977 129.230,36.230 128.487,36.230 127.743,36.230 127.000,36.230 127.000,34.977 127.000,33.723 127.000,32.470 Z M 141.110,34.410 C 141.110,34.583 141.110,34.757 141.110,34.930 138.147,34.930 135.183,34.930 132.220,34.930 132.220,34.757 132.220,34.583 132.220,34.410 135.183,34.410 138.147,34.410 141.110,34.410 Z M 135.840,28.290 C 140.710,28.290 144.450,29.390 146.550,30.670 146.143,30.455 145.690,30.341 145.230,30.340 144.361,30.331 143.537,30.727 143.000,31.410 138.773,31.410 134.547,31.410 130.320,31.410 129.782,30.733 128.965,30.339 128.100,30.340 127.238,30.337 126.423,30.732 125.890,31.410 125.297,31.410 124.703,31.410 124.110,31.410 125.840,29.840 130.000,28.290 135.820,28.290 135.827,28.290 135.833,28.290 135.840,28.290 Z M 147.450,31.410 C 147.336,31.268 147.209,31.137 147.070,31.020 147.240,31.141 147.404,31.271 147.560,31.410 147.523,31.410 147.487,31.410 147.450,31.410 Z M 144.110,32.460 C 144.349,32.073 144.771,31.838 145.225,31.838 145.680,31.838 146.101,32.073 146.340,32.460 146.340,33.713 146.340,34.967 146.340,36.220 145.593,36.220 144.847,36.220 144.100,36.220 144.103,34.967 144.107,33.713 144.110,32.460 Z M 149.340,34.410 C 149.533,34.410 149.727,34.410 149.920,34.410 149.920,34.583 149.920,34.757 149.920,34.930 149.710,34.930 149.500,34.930 149.290,34.930 149.307,34.757 149.323,34.583 149.340,34.410 Z M 241.340,45.870 C 241.307,45.870 241.273,45.870 241.240,45.870 241.240,46.537 241.240,47.203 241.240,47.870 239.773,47.870 238.307,47.870 236.840,47.870 236.840,47.203 236.840,46.537 236.840,45.870 236.777,45.870 236.713,45.870 236.650,45.870 236.650,44.760 236.650,43.650 236.650,42.540 238.217,42.540 239.783,42.540 241.350,42.540 241.347,43.650 241.343,44.760 241.340,45.870 Z M 157.880,36.000 C 157.880,36.333 157.880,36.667 157.880,37.000 157.660,37.000 157.440,37.000 157.220,37.000 157.220,36.667 157.220,36.333 157.220,36.000 157.440,36.000 157.660,36.000 157.880,36.000 Z M 153.000,31.880 C 154.647,31.880 156.293,31.880 157.940,31.880 157.940,32.757 157.940,33.633 157.940,34.510 157.213,34.510 156.487,34.510 155.760,34.510 155.760,35.843 155.760,37.177 155.760,38.510 156.487,38.510 157.213,38.510 157.940,38.510 157.940,38.673 157.940,38.837 157.940,39.000 161.570,39.000 165.200,39.000 168.830,39.000 168.830,38.917 168.830,38.833 168.830,38.750 169.797,38.750 170.763,38.750 171.730,38.750 171.730,37.687 171.730,36.623 171.730,35.560 170.763,35.560 169.797,35.560 168.830,35.560 168.830,35.373 168.830,35.187 168.830,35.000 167.553,35.000 166.277,35.000 165.000,35.000 165.000,33.960 165.000,32.920 165.000,31.880 169.530,31.880 174.060,31.880 178.590,31.880 178.590,32.303 178.590,32.727 178.590,33.150 181.620,33.150 184.650,33.150 187.680,33.150 187.680,32.727 187.680,32.303 187.680,31.880 201.223,31.880 214.767,31.880 228.310,31.880 237.310,31.880 245.720,37.880 249.560,41.040 235.007,41.040 220.453,41.040 205.900,41.040 207.287,42.627 208.673,44.213 210.060,45.800 200.570,45.800 152.910,45.800 135.060,45.800 135.060,44.990 135.060,44.180 135.060,43.370 134.560,43.370 134.060,43.370 133.560,43.370 133.560,44.183 133.560,44.997 133.560,45.810 133.540,45.810 133.520,45.810 133.500,45.810 133.500,44.997 133.500,44.183 133.500,43.370 133.000,43.370 132.500,43.370 132.000,43.370 132.000,44.183 132.000,44.997 132.000,45.810 131.980,45.810 131.960,45.810 131.940,45.810 131.940,44.997 131.940,44.183 131.940,43.370 131.440,43.370 130.940,43.370 130.440,43.370 130.440,44.180 130.440,44.990 130.440,45.800 130.420,45.800 130.400,45.800 130.380,45.800 130.380,44.990 130.380,44.180 130.380,43.370 129.880,43.370 129.380,43.370 128.880,43.370 128.880,44.180 128.880,44.990 128.880,45.800 128.690,45.800 128.500,45.800 128.310,45.800 125.937,45.816 123.743,47.066 122.520,49.100 122.520,47.250 122.520,44.010 122.520,42.540 132.600,42.540 142.680,42.540 152.760,42.540 152.760,41.007 152.760,39.473 152.760,37.940 152.840,37.940 152.920,37.940 153.000,37.940 153.000,35.920 153.000,33.900 153.000,31.880 Z M 154.220,25.350 C 154.220,23.350 154.220,21.350 154.220,19.350 155.407,19.350 156.593,19.350 157.780,19.350 157.780,21.350 157.780,23.350 157.780,25.350 156.593,25.350 155.407,25.350 154.220,25.350 Z M 159.450,27.350 C 160.807,27.350 162.163,27.350 163.520,27.350 163.520,27.493 163.520,27.637 163.520,27.780 162.163,27.780 160.807,27.780 159.450,27.780 159.450,27.637 159.450,27.493 159.450,27.350 Z M 159.450,19.350 C 159.450,18.683 159.450,18.017 159.450,17.350 160.783,17.350 162.117,17.350 163.450,17.350 163.450,18.017 163.450,18.683 163.450,19.350 163.450,19.350 163.450,19.350 163.450,19.350 163.450,21.350 163.450,23.350 163.450,25.350 163.450,25.350 163.450,25.350 163.450,25.350 163.450,25.520 163.450,25.690 163.450,25.860 162.093,25.860 160.737,25.860 159.380,25.860 159.380,25.690 159.380,25.520 159.380,25.350 159.323,25.350 159.267,25.350 159.210,25.350 159.210,23.350 159.210,21.350 159.210,19.350 159.290,19.350 159.370,19.350 159.450,19.350 Z M 167.250,37.480 C 164.627,37.480 162.003,37.480 159.380,37.480 159.380,35.613 159.380,33.747 159.380,31.880 159.380,31.880 159.380,31.880 159.380,31.880 159.380,31.007 159.380,30.133 159.380,29.260 160.737,29.260 162.093,29.260 163.450,29.260 163.450,30.133 163.450,31.007 163.450,31.880 163.450,31.880 163.450,31.880 163.450,31.880 163.450,33.433 163.450,34.987 163.450,36.540 164.690,36.540 165.930,36.540 167.170,36.540 167.197,36.853 167.223,37.167 167.250,37.480 Z M 168.770,37.060 C 169.237,37.060 169.703,37.060 170.170,37.060 170.170,37.117 170.170,37.173 170.170,37.230 169.703,37.230 169.237,37.230 168.770,37.230 168.770,37.173 168.770,37.117 168.770,37.060 Z M 167.710,19.340 C 167.710,19.797 167.710,20.253 167.710,20.710 167.780,20.710 167.850,20.710 167.920,20.710 167.920,21.790 167.920,22.870 167.920,23.950 167.850,23.950 167.780,23.950 167.710,23.950 167.710,24.407 167.710,24.863 167.710,25.320 166.807,25.320 165.903,25.320 165.000,25.320 165.000,23.320 165.000,21.320 165.000,19.320 165.903,19.327 166.807,19.333 167.710,19.340 Z M 173.390,20.710 C 173.390,21.790 173.390,22.870 173.390,23.950 172.057,23.950 170.723,23.950 169.390,23.950 169.390,22.870 169.390,21.790 169.390,20.710 170.723,20.710 172.057,20.710 173.390,20.710 Z M 170.710,28.320 C 170.710,27.860 170.710,27.400 170.710,26.940 171.177,26.940 171.643,26.940 172.110,26.940 172.110,27.273 172.110,27.607 172.110,27.940 173.853,27.940 175.597,27.940 177.340,27.940 177.340,28.273 177.340,28.607 177.340,28.940 173.727,28.940 170.113,28.940 166.500,28.940 166.500,28.750 166.500,28.560 166.500,28.370 167.903,28.353 169.307,28.337 170.710,28.320 Z M 175.110,19.760 C 176.280,19.760 177.450,19.760 178.620,19.760 178.620,21.473 178.620,23.187 178.620,24.900 177.450,24.900 176.280,24.900 175.110,24.900 175.110,24.567 175.110,24.233 175.110,23.900 175.037,23.900 174.963,23.900 174.890,23.900 174.890,22.837 174.890,21.773 174.890,20.710 174.963,20.710 175.037,20.710 175.110,20.710 175.110,20.393 175.110,20.077 175.110,19.760 Z M 180.340,18.330 C 182.227,18.330 184.113,18.330 186.000,18.330 186.000,18.807 186.000,19.283 186.000,19.760 186.067,19.760 186.133,19.760 186.200,19.760 186.200,21.473 186.200,23.187 186.200,24.900 186.133,24.900 186.067,24.900 186.000,24.900 186.000,27.150 186.000,29.400 186.000,31.650 184.107,31.650 182.213,31.650 180.320,31.650 180.320,29.400 180.320,27.150 180.320,24.900 180.250,24.900 180.180,24.900 180.110,24.900 180.110,23.183 180.110,21.467 180.110,19.750 180.180,19.750 180.250,19.750 180.320,19.750 180.327,19.277 180.333,18.803 180.340,18.330 Z M 202.540,19.760 C 202.540,20.313 202.540,20.867 202.540,21.420 202.613,21.420 202.687,21.420 202.760,21.420 202.760,22.023 202.760,22.627 202.760,23.230 202.687,23.230 202.613,23.230 202.540,23.230 202.540,23.787 202.540,24.343 202.540,24.900 197.600,24.900 192.660,24.900 187.720,24.900 187.720,23.183 187.720,21.467 187.720,19.750 192.660,19.753 197.600,19.757 202.540,19.760 Z M 215.350,21.420 C 215.350,22.023 215.350,22.627 215.350,23.230 211.650,23.230 207.950,23.230 204.250,23.230 204.250,22.627 204.250,22.023 204.250,21.420 207.950,21.420 211.650,21.420 215.350,21.420 Z M 219.000,21.420 C 219.000,22.023 219.000,22.627 219.000,23.230 218.783,23.230 218.567,23.230 218.350,23.230 218.350,22.627 218.350,22.023 218.350,21.420 218.567,21.420 218.783,21.420 219.000,21.420 Z M 215.360,28.880 C 206.573,28.880 197.787,28.880 189.000,28.880 189.000,28.547 189.000,28.213 189.000,27.880 194.507,27.880 200.013,27.880 205.520,27.880 205.520,27.330 205.520,26.780 205.520,26.230 208.790,26.230 212.060,26.230 215.330,26.230 215.340,27.113 215.350,27.997 215.360,28.880 Z M 362.260,35.210 C 362.883,35.210 363.507,35.210 364.130,35.210 364.130,36.680 364.130,38.150 364.130,39.620 362.003,39.620 359.877,39.620 357.750,39.620 357.337,39.797 356.923,39.973 356.510,40.150 358.427,38.503 360.343,36.857 362.260,35.210 Z M 378.520,38.330 C 374.720,38.330 370.920,38.330 367.120,38.330 367.120,36.290 367.120,34.250 367.120,32.210 365.120,32.210 363.120,32.210 361.120,32.210 358.427,34.520 355.733,36.830 353.040,39.140 353.040,39.327 353.040,39.513 353.040,39.700 319.573,39.700 286.107,39.700 252.640,39.700 249.250,36.700 239.350,28.880 228.350,28.880 225.017,28.880 221.683,28.880 218.350,28.880 218.350,27.997 218.350,27.113 218.350,26.230 219.567,26.230 220.783,26.230 222.000,26.230 222.000,23.627 222.000,21.023 222.000,18.420 220.783,18.420 219.567,18.420 218.350,18.420 218.350,18.000 218.350,17.580 218.350,17.160 217.350,17.160 216.350,17.160 215.350,17.160 215.350,17.580 215.350,18.000 215.350,18.420 212.080,18.420 208.810,18.420 205.540,18.420 205.540,17.863 205.540,17.307 205.540,16.750 200.027,16.750 194.513,16.750 189.000,16.750 189.000,16.277 189.000,15.803 189.000,15.330 185.117,15.330 181.233,15.330 177.350,15.330 177.350,15.807 177.350,16.283 177.350,16.760 175.607,16.760 173.863,16.760 172.120,16.760 172.120,17.093 172.120,17.427 172.120,17.760 171.653,17.760 171.187,17.760 170.720,17.760 170.720,17.287 170.720,16.813 170.720,16.340 169.313,16.340 167.907,16.340 166.500,16.340 166.500,15.673 166.500,15.007 166.500,14.340 163.167,14.340 159.833,14.340 156.500,14.340 156.500,15.007 156.500,15.673 156.500,16.340 154.733,16.340 152.967,16.340 151.200,16.340 151.200,20.340 151.200,24.340 151.200,28.340 152.943,28.340 154.687,28.340 156.430,28.340 156.430,28.530 156.430,28.720 156.430,28.910 154.287,28.910 152.143,28.910 150.000,28.910 150.000,29.147 150.000,29.383 150.000,29.620 147.560,27.040 142.290,25.330 135.870,25.330 126.990,25.330 120.290,28.610 120.290,32.950 120.290,33.450 120.290,33.950 120.290,34.450 121.527,34.450 122.763,34.450 124.000,34.450 124.000,34.623 124.000,34.797 124.000,34.970 112.713,34.970 101.427,34.970 90.140,34.970 87.473,36.753 84.807,38.537 82.140,40.320 73.860,40.320 65.580,40.320 57.300,40.320 51.713,37.693 46.127,35.067 40.540,32.440 30.463,32.440 20.387,32.440 10.310,32.440 7.207,35.807 4.103,39.173 1.000,42.540 1.000,50.490 1.000,58.440 1.000,66.390 1.537,66.350 2.073,66.310 2.610,66.270 7.622,66.018 12.605,67.168 17.000,69.590 21.141,71.737 24.671,74.899 27.260,78.780 27.407,79.010 27.553,79.240 27.700,79.470 42.560,79.470 57.420,79.470 72.280,79.470 73.313,78.647 74.347,77.823 75.380,77.000 76.910,77.710 79.720,79.000 83.430,80.650 84.833,81.293 86.356,81.634 87.900,81.650 90.248,81.740 92.503,80.731 94.000,78.920 98.973,72.710 103.947,66.500 108.920,60.290 133.480,60.290 158.040,60.290 182.600,60.290 187.457,58.033 192.313,55.777 197.170,53.520 199.213,53.520 201.257,53.520 203.300,53.520 207.200,52.287 211.100,51.053 215.000,49.820 219.430,49.820 223.860,49.820 228.290,49.820 228.573,49.487 228.857,49.153 229.140,48.820 230.697,48.820 232.253,48.820 233.810,48.820 233.810,49.487 233.810,50.153 233.810,50.820 237.277,50.820 240.743,50.820 244.210,50.820 244.210,50.153 244.210,49.487 244.210,48.820 280.877,48.820 317.543,48.820 354.210,48.820 355.140,49.293 356.070,49.767 357.000,50.240 357.527,50.240 358.053,50.240 358.580,50.240 358.580,51.527 358.580,52.813 358.580,54.100 361.740,54.100 364.900,54.100 368.060,54.100 368.060,52.813 368.060,51.527 368.060,50.240 371.540,50.240 375.020,50.240 378.500,50.240 380.333,49.647 382.167,49.053 384.000,48.460 384.000,45.673 384.000,42.887 384.000,40.100 382.173,39.510 380.347,38.920 378.520,38.330 Z " />
  <path stroke="none" fill="#ffffffff" d="M 161.390,33.410 C 161.208,33.410 161.044,33.300 160.974,33.132 160.905,32.964 160.943,32.771 161.072,32.642 161.201,32.513 161.394,32.475 161.562,32.544 161.730,32.614 161.840,32.778 161.840,32.960 161.819,33.193 161.624,33.371 161.390,33.370 161.390,33.383 161.390,33.397 161.390,33.410 Z M 161.390,31.000 C 160.581,31.000 159.852,31.487 159.542,32.235 159.233,32.982 159.404,33.842 159.976,34.414 160.548,34.986 161.408,35.157 162.155,34.848 162.903,34.538 163.390,33.809 163.390,33.000 163.390,32.470 163.179,31.961 162.804,31.586 162.429,31.211 161.920,31.000 161.390,31.000 161.390,31.000 161.390,31.000 161.390,31.000 Z " />
  <path stroke="none" fill="#ffffffff" d="M 227.830,35.880 C 224.553,35.880 221.277,35.880 218.000,35.880 218.000,35.727 218.000,35.573 218.000,35.420 221.267,35.420 224.533,35.420 227.800,35.420 227.810,35.573 227.820,35.727 227.830,35.880 Z M 229.330,33.880 C 225.063,33.880 220.797,33.880 216.530,33.880 216.530,35.033 216.530,36.187 216.530,37.340 220.797,37.340 225.063,37.340 229.330,37.340 229.330,36.187 229.330,35.033 229.330,33.880 Z " />
  <path stroke="none" fill="#ffffffff" d="M 117.250,45.980 C 116.030,46.750 114.810,47.520 113.590,48.290 111.977,48.290 110.363,48.290 108.750,48.290 108.750,48.790 108.750,49.290 108.750,49.790 110.507,49.790 112.263,49.790 114.020,49.790 115.597,48.797 117.173,47.803 118.750,46.810 118.750,46.087 118.750,45.363 118.750,44.640 118.250,44.640 117.750,44.640 117.250,44.640 117.250,45.087 117.250,45.533 117.250,45.980 117.250,45.980 117.250,45.980 117.250,45.980 Z " />
  <path stroke="none" fill="#ffffffff" d="M 357.900,41.750 C 364.510,41.750 371.120,41.750 377.730,41.750 377.730,42.250 377.730,42.750 377.730,43.250 371.120,43.250 364.510,43.250 357.900,43.250 357.900,42.750 357.900,42.250 357.900,41.750 Z " />
  <path stroke="none" fill="#ffffffff" d="M 357.900,45.270 C 364.510,45.270 371.120,45.270 377.730,45.270 377.730,45.770 377.730,46.270 377.730,46.770 371.120,46.770 364.510,46.770 357.900,46.770 357.900,46.270 357.900,45.770 357.900,45.270 Z " />
</svg>