<?xml version="1.0" encoding="UTF-8" standalone="no"?>
<!DOCTYPE svg PUBLIC "-//W3C//DTD SVG 20010904//EN" "http://www.w3.org/TR/2001/REC-SVG-20010904/DTD/svg10.dtd"[]>
<svg version="1.1" id="Frosty Editor v1.0.6.3" xmlns="http://www.w3.org/2000/svg" d1p1:xlink="http://www.w3.org/1999/xlink" viewBox="0 0 384 96" xmlns:d1p1="xmlns">
  <path stroke="none" fill="#ffffffff" d="M 380.270,49.480 C 376.427,48.920 372.583,48.360 368.740,47.800 368.740,46.330 368.740,44.860 368.740,43.390 372.583,42.830 376.427,42.270 380.270,41.710 380.270,44.300 380.270,46.890 380.270,49.480 Z M 366.420,49.000 C 365.820,49.767 365.220,50.533 364.620,51.300 360.147,51.300 355.673,51.300 351.200,51.300 351.200,47.497 351.200,43.693 351.200,39.890 355.673,39.890 360.147,39.890 364.620,39.890 365.220,40.657 365.820,41.423 366.420,42.190 366.420,44.460 366.420,46.730 366.420,49.000 Z M 349.170,39.780 C 345.347,39.447 341.523,39.113 337.700,38.780 337.700,38.387 337.700,37.993 337.700,37.600 338.177,37.600 338.653,37.600 339.130,37.600 342.463,37.933 345.797,38.267 349.130,38.600 349.143,38.993 349.157,39.387 349.170,39.780 Z M 349.060,49.460 C 345.273,49.793 341.487,50.127 337.700,50.460 337.700,47.233 337.700,44.007 337.700,40.780 341.487,41.113 345.273,41.447 349.060,41.780 349.060,44.340 349.060,46.900 349.060,49.460 Z M 329.060,35.600 C 329.060,34.750 329.060,33.900 329.060,33.050 332.353,33.050 335.647,33.050 338.940,33.050 343.387,33.717 347.833,34.383 352.280,35.050 352.280,35.667 352.280,36.283 352.280,36.900 347.947,36.483 343.613,36.067 339.280,35.650 335.873,35.633 332.467,35.617 329.060,35.600 Z M 335.730,48.010 C 335.110,48.010 334.490,48.010 333.870,48.010 333.703,48.677 333.537,49.343 333.370,50.010 332.437,50.010 331.503,50.010 330.570,50.010 330.403,49.343 330.237,48.677 330.070,48.010 329.550,48.010 329.030,48.010 328.510,48.010 328.510,45.147 328.510,42.283 328.510,39.420 330.920,39.420 333.330,39.420 335.740,39.420 335.737,42.283 335.733,45.147 335.730,48.010 Z M 335.730,55.360 C 333.320,55.360 330.910,55.360 328.500,55.360 328.500,53.240 328.500,51.120 328.500,49.000 328.760,49.000 329.020,49.000 329.280,49.000 329.447,49.667 329.613,50.333 329.780,51.000 331.237,51.000 332.693,51.000 334.150,51.000 334.317,50.333 334.483,49.667 334.650,49.000 335.010,49.000 335.370,49.000 335.730,49.000 335.730,51.120 335.730,53.240 335.730,55.360 Z M 326.200,42.760 C 313.910,42.760 301.620,42.760 289.330,42.760 289.330,42.390 289.330,42.020 289.330,41.650 289.330,41.385 289.435,41.130 289.623,40.943 289.810,40.755 290.065,40.650 290.330,40.650 301.977,40.650 313.623,40.650 325.270,40.650 325.535,40.650 325.790,40.755 325.977,40.943 326.165,41.130 326.270,41.385 326.270,41.650 326.247,42.020 326.223,42.390 326.200,42.760 Z M 326.200,46.630 C 313.910,46.630 301.620,46.630 289.330,46.630 289.330,45.683 289.330,44.737 289.330,43.790 301.620,43.790 313.910,43.790 326.200,43.790 326.200,44.737 326.200,45.683 326.200,46.630 Z M 326.200,49.000 C 326.200,49.265 326.095,49.520 325.907,49.707 325.720,49.895 325.465,50.000 325.200,50.000 313.563,50.000 301.927,50.000 290.290,50.000 290.025,50.000 289.770,49.895 289.583,49.707 289.395,49.520 289.290,49.265 289.290,49.000 289.290,48.553 289.290,48.107 289.290,47.660 301.593,47.660 313.897,47.660 326.200,47.660 326.200,48.107 326.200,48.553 326.200,49.000 Z M 287.080,50.000 C 287.080,50.265 286.975,50.520 286.787,50.707 286.600,50.895 286.345,51.000 286.080,51.000 283.783,51.000 281.487,51.000 279.190,51.000 278.925,51.000 278.670,50.895 278.483,50.707 278.295,50.520 278.190,50.265 278.190,50.000 278.190,46.887 278.190,43.773 278.190,40.660 278.190,40.395 278.295,40.140 278.483,39.953 278.670,39.765 278.925,39.660 279.190,39.660 279.677,39.660 280.163,39.660 280.650,39.660 280.650,42.500 280.650,45.340 280.650,48.180 281.960,48.180 283.270,48.180 284.580,48.180 284.580,45.350 284.580,42.520 284.580,39.690 285.077,39.690 285.573,39.690 286.070,39.690 286.335,39.690 286.590,39.795 286.777,39.983 286.965,40.170 287.070,40.425 287.070,40.690 287.073,43.793 287.077,46.897 287.080,50.000 Z M 281.690,39.670 C 281.690,39.670 281.690,39.670 281.690,39.670 281.690,37.983 281.690,36.297 281.690,34.610 282.307,34.610 282.923,34.610 283.540,34.610 283.540,36.303 283.540,37.997 283.540,39.690 283.540,39.690 283.540,39.690 283.540,39.690 283.540,42.197 283.540,44.703 283.540,47.210 282.897,47.210 282.253,47.210 281.610,47.210 281.637,44.697 281.663,42.183 281.690,39.670 Z M 276.260,42.760 C 258.147,42.760 240.033,42.760 221.920,42.760 221.920,42.390 221.920,42.020 221.920,41.650 221.920,41.385 222.025,41.130 222.213,40.943 222.400,40.755 222.655,40.650 222.920,40.650 240.387,40.650 257.853,40.650 275.320,40.650 275.585,40.650 275.840,40.755 276.027,40.943 276.215,41.130 276.320,41.385 276.320,41.650 276.300,42.020 276.280,42.390 276.260,42.760 Z M 276.260,46.630 C 258.147,46.630 240.033,46.630 221.920,46.630 221.920,45.683 221.920,44.737 221.920,43.790 240.033,43.790 258.147,43.790 276.260,43.790 276.260,44.737 276.260,45.683 276.260,46.630 Z M 276.260,49.000 C 276.260,49.265 276.155,49.520 275.967,49.707 275.780,49.895 275.525,50.000 275.260,50.000 257.793,50.000 240.327,50.000 222.860,50.000 222.595,50.000 222.340,49.895 222.153,49.707 221.965,49.520 221.860,49.265 221.860,49.000 221.860,48.553 221.860,48.107 221.860,47.660 239.973,47.660 258.087,47.660 276.200,47.660 276.220,48.107 276.240,48.553 276.260,49.000 Z M 252.000,54.930 C 250.877,54.930 249.753,54.930 248.630,54.930 248.630,54.053 248.630,53.177 248.630,52.300 249.753,52.300 250.877,52.300 252.000,52.300 252.000,53.177 252.000,54.053 252.000,54.930 Z M 219.790,51.100 C 211.027,51.100 202.263,51.100 193.500,51.100 193.500,47.490 193.500,43.880 193.500,40.270 202.263,40.270 211.027,40.270 219.790,40.270 219.790,43.880 219.790,47.490 219.790,51.100 Z M 185.150,38.300 C 185.150,36.797 185.150,35.293 185.150,33.790 186.277,33.790 187.403,33.790 188.530,33.790 188.803,34.553 189.077,35.317 189.350,36.080 193.407,36.080 197.463,36.080 201.520,36.080 201.520,36.807 201.520,37.533 201.520,38.260 196.063,38.273 190.607,38.287 185.150,38.300 Z M 191.520,51.130 C 189.890,51.130 188.260,51.130 186.630,51.130 186.630,47.510 186.630,43.890 186.630,40.270 188.260,40.270 189.890,40.270 191.520,40.270 191.520,43.890 191.520,47.510 191.520,51.130 Z M 185.630,51.130 C 185.630,51.130 185.630,51.130 185.630,51.130 185.630,52.033 185.630,52.937 185.630,53.840 185.397,53.840 185.163,53.840 184.930,53.840 184.760,53.790 184.590,53.740 184.420,53.690 184.420,52.597 184.420,51.503 184.420,50.410 184.486,49.729 184.273,49.051 183.830,48.530 183.033,47.755 181.938,47.364 180.830,47.460 176.327,47.460 171.823,47.460 167.320,47.460 167.320,49.340 167.320,51.220 167.320,53.100 166.097,53.100 164.873,53.100 163.650,53.100 163.650,48.467 163.650,43.833 163.650,39.200 164.873,39.200 166.097,39.200 167.320,39.200 167.320,40.673 167.320,42.147 167.320,43.620 172.467,43.620 177.613,43.620 182.760,43.620 182.760,42.503 182.760,41.387 182.760,40.270 183.710,40.270 184.660,40.270 185.610,40.270 185.617,43.890 185.623,47.510 185.630,51.130 Z M 183.420,50.370 C 183.420,51.370 183.420,52.370 183.420,53.370 183.150,53.290 182.880,53.210 182.610,53.130 177.847,53.130 173.083,53.130 168.320,53.130 168.320,51.573 168.320,50.017 168.320,48.460 172.473,48.460 176.627,48.460 180.780,48.460 181.597,48.382 182.410,48.642 183.030,49.180 183.303,49.502 183.433,49.920 183.390,50.340 183.400,50.350 183.410,50.360 183.420,50.370 Z M 168.350,39.230 C 170.740,39.230 173.130,39.230 175.520,39.230 175.520,40.370 175.520,41.510 175.520,42.650 173.130,42.650 170.740,42.650 168.350,42.650 168.350,41.510 168.350,40.370 168.350,39.230 Z M 176.520,39.230 C 176.520,39.230 176.520,39.230 176.520,39.230 176.597,39.007 176.673,38.783 176.750,38.560 177.107,37.550 178.069,36.882 179.140,36.900 179.197,36.900 179.253,36.900 179.310,36.900 179.959,36.840 180.607,37.021 181.130,37.410 181.608,37.921 181.845,38.613 181.780,39.310 181.780,39.643 181.780,39.977 181.780,40.310 181.780,40.310 181.780,40.310 181.780,40.310 181.780,41.093 181.780,41.877 181.780,42.660 180.023,42.660 178.267,42.660 176.510,42.660 176.513,41.517 176.517,40.373 176.520,39.230 Z M 129.690,39.550 C 129.690,40.433 129.690,41.317 129.690,42.200 127.523,42.200 125.357,42.200 123.190,42.200 123.190,41.297 123.190,40.393 123.190,39.490 125.357,39.510 127.523,39.530 129.690,39.550 Z M 161.690,35.940 C 161.690,35.940 161.690,35.940 161.690,35.940 161.690,41.660 161.690,47.380 161.690,53.100 148.400,53.100 135.110,53.100 121.820,53.100 121.123,52.160 120.427,51.220 119.730,50.280 110.820,50.280 101.910,50.280 93.000,50.280 93.000,51.260 93.000,52.240 93.000,53.220 87.333,53.220 81.667,53.220 76.000,53.220 71.807,52.857 67.613,52.493 63.420,52.130 58.487,52.130 53.553,52.130 48.620,52.130 44.340,51.940 36.140,53.360 35.770,60.130 35.854,61.493 36.255,62.818 36.940,64.000 36.733,64.210 36.527,64.420 36.320,64.630 35.237,63.907 34.153,63.183 33.070,62.460 33.047,62.440 33.023,62.420 33.000,62.400 30.707,61.453 28.098,61.677 26.000,63.000 21.667,65.440 17.333,67.880 13.000,70.320 12.223,70.043 11.447,69.767 10.670,69.490 10.907,62.053 11.143,54.617 11.380,47.180 11.380,46.760 12.480,37.010 5.380,32.810 5.180,31.697 4.980,30.583 4.780,29.470 8.257,28.273 12.073,28.552 15.340,30.240 19.440,32.317 23.540,34.393 27.640,36.470 27.680,36.487 27.720,36.503 27.760,36.520 28.090,36.640 35.860,39.360 42.860,39.520 52.240,39.520 61.620,39.520 71.000,39.520 71.000,40.187 71.000,40.853 71.000,41.520 70.860,41.960 69.870,44.700 67.000,44.700 67.000,45.033 67.000,45.367 67.000,45.700 70.860,45.700 72.000,41.760 72.000,41.700 72.000,40.617 72.000,39.533 72.000,38.450 72.000,38.450 72.000,38.450 72.000,38.450 72.000,38.117 72.000,37.783 72.000,37.450 75.477,37.450 78.953,37.450 82.430,37.450 82.430,38.117 82.430,38.783 82.430,39.450 82.430,39.450 82.430,39.450 82.430,39.450 82.430,40.100 82.430,40.750 82.430,41.400 82.763,41.400 83.097,41.400 83.430,41.400 83.430,40.777 83.430,40.153 83.430,39.530 89.713,39.530 95.997,39.530 102.280,39.530 109.137,38.300 115.993,37.070 122.850,35.840 123.647,34.777 124.443,33.713 125.240,32.650 127.093,32.650 128.947,32.650 130.800,32.650 130.800,34.010 130.800,35.370 130.800,36.730 130.443,36.730 130.087,36.730 129.730,36.730 129.730,37.330 129.730,37.930 129.730,38.530 127.197,38.530 124.663,38.530 122.130,38.530 122.130,40.080 122.130,41.630 122.130,43.180 124.670,43.180 127.210,43.180 129.750,43.180 129.750,44.973 129.750,46.767 129.750,48.560 139.750,48.560 149.750,48.560 159.750,48.560 159.750,43.253 159.750,37.947 159.750,32.640 159.957,32.640 160.163,32.640 160.370,32.640 160.797,33.093 161.223,33.547 161.650,34.000 161.663,34.647 161.677,35.293 161.690,35.940 Z M 133.690,59.000 C 131.816,56.952 129.134,55.832 126.360,55.940 124.670,55.948 123.000,56.312 121.460,57.010 121.793,56.377 122.127,55.743 122.460,55.110 126.193,55.110 129.927,55.110 133.660,55.110 133.670,56.407 133.680,57.703 133.690,59.000 Z M 129.150,69.250 C 127.150,68.630 126.600,65.970 126.510,65.410 127.110,63.350 125.880,60.350 125.510,59.490 125.797,58.970 126.083,58.450 126.370,57.930 131.850,57.930 133.460,61.990 133.710,62.740 133.680,63.530 133.410,68.000 129.150,69.220 129.150,69.230 129.150,69.240 129.150,69.250 Z M 124.060,69.460 C 124.010,69.460 118.560,69.200 117.060,65.270 116.973,65.303 116.887,65.337 116.800,65.370 117.533,64.050 118.267,62.730 119.000,61.410 119.000,61.410 119.000,61.410 119.000,61.410 120.505,59.484 122.729,58.253 125.160,58.000 124.897,58.480 124.633,58.960 124.370,59.440 124.407,59.517 124.443,59.593 124.480,59.670 124.480,59.670 126.190,63.200 125.480,65.200 125.480,65.237 125.480,65.273 125.480,65.310 125.480,65.347 125.480,65.383 125.480,65.420 125.701,66.933 126.402,68.335 127.480,69.420 126.340,69.433 125.200,69.447 124.060,69.460 Z M 106.470,79.950 C 106.570,80.117 106.670,80.283 106.770,80.450 107.612,81.937 107.668,83.744 106.920,85.280 105.847,85.670 104.773,86.060 103.700,86.450 101.503,84.967 99.307,83.483 97.110,82.000 97.073,82.000 97.037,82.000 97.000,82.000 95.951,81.599 95.113,80.786 94.680,79.750 94.439,78.910 94.510,78.012 94.880,77.220 96.970,73.283 99.060,69.347 101.150,65.410 101.180,65.353 101.210,65.297 101.240,65.240 101.240,65.177 101.240,65.113 101.240,65.050 101.580,61.780 100.910,59.320 99.240,57.760 97.834,56.558 96.029,55.927 94.180,55.990 94.120,55.990 94.060,55.990 94.000,55.990 94.000,55.057 94.000,54.123 94.000,53.190 94.000,53.190 94.000,53.190 94.000,53.190 94.000,52.543 94.000,51.897 94.000,51.250 102.410,51.250 110.820,51.250 119.230,51.250 119.820,52.057 120.410,52.863 121.000,53.670 116.157,62.430 111.313,71.190 106.470,79.950 Z M 99.470,90.000 C 98.470,89.860 97.810,88.230 97.640,87.600 97.307,86.440 96.973,85.280 96.640,84.120 98.503,85.363 100.367,86.607 102.230,87.850 101.180,89.320 100.210,90.080 99.470,90.000 99.470,90.000 99.470,90.000 99.470,90.000 Z M 158.820,37.680 C 158.820,40.957 158.820,44.233 158.820,47.510 149.487,47.510 140.153,47.510 130.820,47.510 130.820,44.247 130.820,40.983 130.820,37.720 140.153,37.707 149.487,37.693 158.820,37.680 Z M 131.820,32.600 C 140.820,32.600 149.820,32.600 158.820,32.600 158.820,33.960 158.820,35.320 158.820,36.680 149.820,36.680 140.820,36.680 131.820,36.680 131.820,35.320 131.820,33.960 131.820,32.600 Z M 135.300,26.520 C 139.773,26.520 144.247,26.520 148.720,26.520 150.387,25.520 152.053,24.520 153.720,23.520 153.720,19.680 153.720,15.840 153.720,12.000 154.437,12.000 155.153,12.000 155.870,12.000 156.417,14.360 156.963,16.720 157.510,19.080 158.590,19.080 159.670,19.080 160.750,19.080 160.750,20.307 160.750,21.533 160.750,22.760 164.143,22.760 167.537,22.760 170.930,22.760 170.930,23.143 170.930,23.527 170.930,23.910 170.743,24.287 170.557,24.663 170.370,25.040 166.913,25.040 163.457,25.040 160.000,25.040 160.000,26.817 160.000,28.593 160.000,30.370 151.427,30.370 142.853,30.370 134.280,30.370 134.620,29.087 134.960,27.803 135.300,26.520 Z M 128.460,22.000 C 127.947,22.587 127.433,23.173 126.920,23.760 126.920,21.017 126.920,18.273 126.920,15.530 127.433,16.117 127.947,16.703 128.460,17.290 130.917,17.290 133.373,17.290 135.830,17.290 135.830,18.860 135.830,20.430 135.830,22.000 133.373,22.000 130.917,22.000 128.460,22.000 Z M 125.940,24.530 C 123.960,24.530 121.980,24.530 120.000,24.530 120.000,21.290 120.000,18.050 120.000,14.810 121.967,14.810 123.933,14.810 125.900,14.810 125.913,18.050 125.927,21.290 125.940,24.530 Z M 136.850,20.530 C 137.973,20.530 139.097,20.530 140.220,20.530 140.220,21.863 140.220,23.197 140.220,24.530 139.097,24.530 137.973,24.530 136.850,24.530 136.850,23.197 136.850,21.863 136.850,20.530 Z M 136.850,18.110 C 137.973,18.110 139.097,18.110 140.220,18.110 140.220,18.583 140.220,19.057 140.220,19.530 139.097,19.530 137.973,19.530 136.850,19.530 136.850,19.057 136.850,18.583 136.850,18.110 Z M 136.850,13.590 C 137.963,13.590 139.077,13.590 140.190,13.590 140.190,14.763 140.190,15.937 140.190,17.110 139.077,17.110 137.963,17.110 136.850,17.110 136.850,15.937 136.850,14.763 136.850,13.590 Z M 141.200,24.010 C 142.623,24.010 144.047,24.010 145.470,24.010 145.470,24.183 145.470,24.357 145.470,24.530 144.047,24.530 142.623,24.530 141.200,24.530 141.200,24.357 141.200,24.183 141.200,24.010 Z M 141.200,17.270 C 142.623,17.270 144.047,17.270 145.470,17.270 145.470,18.847 145.470,20.423 145.470,22.000 144.047,22.000 142.623,22.000 141.200,22.000 141.200,20.423 141.200,18.847 141.200,17.270 Z M 146.470,17.000 C 146.863,16.213 147.257,15.427 147.650,14.640 149.003,14.640 150.357,14.640 151.710,14.640 151.710,17.233 151.710,19.827 151.710,22.420 150.527,23.123 149.343,23.827 148.160,24.530 147.593,24.530 147.027,24.530 146.460,24.530 146.463,22.020 146.467,19.510 146.470,17.000 Z M 167.750,13.350 C 168.417,13.843 169.083,14.337 169.750,14.830 166.023,14.830 162.297,14.830 158.570,14.830 158.457,14.337 158.343,13.843 158.230,13.350 161.403,13.350 164.577,13.350 167.750,13.350 Z M 171.120,15.870 C 173.237,15.870 175.353,15.870 177.470,15.870 177.470,18.427 177.470,20.983 177.470,23.540 175.963,23.540 174.457,23.540 172.950,23.540 172.950,22.620 172.950,21.700 172.950,20.780 169.550,20.780 166.150,20.780 162.750,20.780 162.750,19.550 162.750,18.320 162.750,17.090 161.533,17.090 160.317,17.090 159.100,17.090 159.000,16.667 158.900,16.243 158.800,15.820 162.887,15.820 166.973,15.820 171.060,15.820 171.080,15.837 171.100,15.853 171.120,15.870 Z M 167.710,30.390 C 165.473,30.390 163.237,30.390 161.000,30.390 161.000,28.943 161.000,27.497 161.000,26.050 163.960,26.050 166.920,26.050 169.880,26.050 169.157,27.497 168.433,28.943 167.710,30.390 Z M 180.000,15.000 C 181.000,14.470 182.000,13.940 183.000,13.410 183.000,17.500 183.000,21.590 183.000,25.680 182.000,25.150 181.000,24.620 180.000,24.090 180.000,21.060 180.000,18.030 180.000,15.000 Z M 183.980,13.170 C 187.040,13.027 190.100,12.883 193.160,12.740 193.160,17.287 193.160,21.833 193.160,26.380 190.100,26.223 187.040,26.067 183.980,25.910 183.980,21.663 183.980,17.417 183.980,13.170 Z M 194.160,12.540 C 194.827,12.317 195.493,12.093 196.160,11.870 196.160,16.983 196.160,22.097 196.160,27.210 195.493,26.977 194.827,26.743 194.160,26.510 194.160,21.853 194.160,17.197 194.160,12.540 Z M 197.160,11.730 C 198.810,11.730 200.460,11.730 202.110,11.730 202.110,16.937 202.110,22.143 202.110,27.350 200.460,27.350 198.810,27.350 197.160,27.350 197.160,22.143 197.160,16.937 197.160,11.730 Z M 368.360,41.420 C 367.437,40.243 366.513,39.067 365.590,37.890 361.820,37.890 358.050,37.890 354.280,37.890 354.280,36.353 354.280,34.817 354.280,33.280 349.240,32.540 344.200,31.800 339.160,31.060 335.127,31.060 331.093,31.060 327.060,31.060 327.060,33.183 327.060,35.307 327.060,37.430 326.877,37.430 326.693,37.430 326.510,37.430 326.510,37.953 326.510,38.477 326.510,39.000 326.112,38.804 325.674,38.702 325.230,38.700 313.583,38.700 301.937,38.700 290.290,38.700 289.711,38.703 289.145,38.873 288.660,39.190 288.128,38.284 287.161,37.723 286.110,37.710 285.930,37.710 285.750,37.710 285.570,37.710 285.570,36.010 285.570,34.310 285.570,32.610 283.620,32.610 281.670,32.610 279.720,32.610 279.720,34.303 279.720,35.997 279.720,37.690 279.553,37.690 279.387,37.690 279.220,37.690 278.209,37.696 277.269,38.211 276.720,39.060 276.282,38.808 275.786,38.674 275.280,38.670 257.813,38.670 240.347,38.670 222.880,38.670 222.507,38.670 222.137,38.741 221.790,38.880 221.790,38.673 221.790,38.467 221.790,38.260 215.697,38.260 209.603,38.260 203.510,38.260 203.510,36.867 203.510,35.473 203.510,34.080 199.257,34.080 195.003,34.080 190.750,34.080 190.477,33.317 190.203,32.553 189.930,31.790 187.667,31.790 185.403,31.790 183.140,31.790 183.140,33.457 183.140,35.123 183.140,36.790 182.947,36.449 182.701,36.142 182.410,35.880 181.490,35.130 180.312,34.771 179.130,34.880 177.454,34.811 175.891,35.725 175.130,37.220 171.303,37.220 167.477,37.220 163.650,37.220 163.650,35.887 163.650,34.553 163.650,33.220 163.397,32.943 163.143,32.667 162.890,32.390 164.910,32.390 166.930,32.390 168.950,32.390 170.093,30.107 171.237,27.823 172.380,25.540 174.407,25.540 176.433,25.540 178.460,25.540 179.903,26.317 181.347,27.093 182.790,27.870 186.313,28.037 189.837,28.203 193.360,28.370 194.320,28.703 195.280,29.037 196.240,29.370 198.870,29.370 201.500,29.370 204.130,29.370 204.130,22.823 204.130,16.277 204.130,9.730 201.500,9.730 198.870,9.730 196.240,9.730 195.280,10.063 194.320,10.397 193.360,10.730 189.837,10.897 186.313,11.063 182.790,11.230 181.150,12.110 179.510,12.990 177.870,13.870 175.843,13.870 173.817,13.870 171.790,13.870 170.667,13.030 169.543,12.190 168.420,11.350 164.867,11.350 161.313,11.350 157.760,11.350 157.657,10.900 157.553,10.450 157.450,10.000 155.537,10.000 153.623,10.000 151.710,10.000 151.710,10.883 151.710,11.767 151.710,12.650 151.357,12.650 151.003,12.650 150.650,12.650 150.650,12.217 150.650,11.783 150.650,11.350 149.767,11.350 148.883,11.350 148.000,11.350 148.000,11.790 148.000,12.230 148.000,12.670 147.463,12.670 146.927,12.670 146.390,12.670 145.953,13.547 145.517,14.423 145.080,15.300 144.107,15.300 143.133,15.300 142.160,15.300 142.160,14.073 142.160,12.847 142.160,11.620 139.713,11.620 137.267,11.620 134.820,11.620 134.820,12.847 134.820,14.073 134.820,15.300 132.993,15.300 131.167,15.300 129.340,15.300 128.617,14.470 127.893,13.640 127.170,12.810 124.113,12.810 121.057,12.810 118.000,12.810 118.000,17.380 118.000,21.950 118.000,26.520 121.060,26.520 124.120,26.520 127.180,26.520 127.910,25.680 128.640,24.840 129.370,24.000 131.523,24.000 133.677,24.000 135.830,24.000 135.830,24.173 135.830,24.347 135.830,24.520 135.140,24.520 134.450,24.520 133.760,24.520 133.217,26.547 132.673,28.573 132.130,30.600 129.507,30.600 126.883,30.600 124.260,30.600 123.420,31.733 122.580,32.867 121.740,34.000 115.227,35.177 108.713,36.353 102.200,37.530 96.277,37.530 90.353,37.530 84.430,37.530 84.430,36.863 84.430,36.197 84.430,35.530 79.620,35.530 74.810,35.530 70.000,35.530 70.000,36.197 70.000,36.863 70.000,37.530 61.000,37.530 52.000,37.530 43.000,37.530 36.660,37.380 29.330,34.910 28.610,34.650 24.507,32.583 20.403,30.517 16.300,28.450 12.258,26.352 7.489,26.173 3.300,27.960 3.077,28.070 2.853,28.180 2.630,28.290 2.963,30.227 3.297,32.163 3.630,34.100 3.773,34.177 3.917,34.253 4.060,34.330 10.420,37.730 9.450,46.860 9.440,47.030 9.187,54.980 8.933,62.930 8.680,70.880 10.200,71.423 11.720,71.967 13.240,72.510 17.827,69.920 22.413,67.330 27.000,64.740 28.491,63.793 30.334,63.583 32.000,64.170 33.517,65.170 35.033,66.170 36.550,67.170 37.550,66.170 38.550,65.170 39.550,64.170 39.350,63.937 39.150,63.703 38.950,63.470 38.234,62.501 37.804,61.351 37.710,60.150 38.060,53.770 48.370,54.150 48.520,54.150 53.460,54.150 58.400,54.150 63.340,54.150 67.523,54.507 71.707,54.863 75.890,55.220 77.313,55.220 78.737,55.220 80.160,55.220 80.160,55.620 80.160,56.020 80.160,56.420 80.160,56.420 80.160,56.420 80.160,56.420 80.160,56.947 80.160,57.473 80.160,58.000 80.160,58.655 80.420,59.283 80.883,59.747 81.347,60.210 81.975,60.470 82.630,60.470 83.420,60.470 84.210,60.470 85.000,60.470 86.360,60.464 87.460,59.360 87.460,58.000 87.460,57.800 87.460,57.600 87.460,57.400 88.973,57.400 90.487,57.400 92.000,57.400 92.000,57.673 92.000,57.947 92.000,58.220 92.387,58.147 92.773,58.073 93.160,58.000 93.160,58.000 96.100,57.530 97.860,59.160 99.030,60.250 99.500,62.070 99.270,64.590 97.210,68.470 95.150,72.350 93.090,76.230 92.441,77.472 92.315,78.923 92.741,80.259 93.168,81.594 94.111,82.704 95.360,83.340 95.800,84.843 96.240,86.347 96.680,87.850 96.680,87.970 97.490,90.690 99.330,90.960 99.433,90.960 99.537,90.960 99.640,90.960 100.730,90.960 101.850,90.100 103.050,88.360 103.180,88.447 103.310,88.533 103.440,88.620 105.063,88.030 106.687,87.440 108.310,86.850 108.370,86.750 108.430,86.650 108.490,86.550 109.639,84.501 109.743,82.028 108.770,79.890 111.123,75.640 113.477,71.390 115.830,67.140 118.250,71.140 123.740,71.400 124.030,71.410 125.533,71.410 127.037,71.410 128.540,71.410 134.340,70.410 135.760,65.180 135.690,62.550 135.690,60.057 135.690,57.563 135.690,55.070 151.177,55.070 166.663,55.070 182.150,55.070 182.923,55.303 183.697,55.537 184.470,55.770 185.513,55.770 186.557,55.770 187.600,55.770 187.600,54.880 187.600,53.990 187.600,53.100 188.900,53.100 190.200,53.100 191.500,53.100 191.500,53.767 191.500,54.433 191.500,55.100 192.167,55.100 192.833,55.100 193.500,55.100 193.500,54.433 193.500,53.767 193.500,53.100 202.930,53.100 212.360,53.100 221.790,53.100 221.790,52.660 221.790,52.220 221.790,51.780 222.137,51.919 222.507,51.990 222.880,51.990 230.790,51.990 238.700,51.990 246.610,51.990 246.610,53.633 246.610,55.277 246.610,56.920 247.570,56.920 248.530,56.920 249.490,56.920 249.490,57.837 249.490,58.753 249.490,59.670 250.157,59.670 250.823,59.670 251.490,59.670 251.490,58.757 251.490,57.843 251.490,56.930 252.327,56.930 253.163,56.930 254.000,56.930 254.000,55.287 254.000,53.643 254.000,52.000 261.100,52.000 268.200,52.000 275.300,52.000 275.806,51.996 276.302,51.862 276.740,51.610 277.289,52.459 278.229,52.974 279.240,52.980 280.287,52.980 281.333,52.980 282.380,52.980 282.380,54.613 282.380,56.247 282.380,57.880 283.047,57.880 283.713,57.880 284.380,57.880 284.380,56.253 284.380,54.627 284.380,53.000 284.963,53.000 285.547,53.000 286.130,53.000 287.181,52.987 288.148,52.426 288.680,51.520 289.165,51.837 289.731,52.007 290.310,52.010 301.957,52.010 313.603,52.010 325.250,52.010 325.694,52.008 326.132,51.906 326.530,51.710 326.530,53.607 326.530,55.503 326.530,57.400 330.273,57.400 334.017,57.400 337.760,57.400 337.760,55.753 337.760,54.107 337.760,52.460 341.583,52.127 345.407,51.793 349.230,51.460 349.230,52.090 349.230,52.720 349.230,53.350 354.693,53.350 360.157,53.350 365.620,53.350 366.543,52.173 367.467,50.997 368.390,49.820 373.027,50.487 377.663,51.153 382.300,51.820 382.300,47.680 382.300,43.540 382.300,39.400 377.653,40.073 373.007,40.747 368.360,41.420 Z " />
</svg>