<?xml version="1.0" encoding="UTF-8" standalone="no"?>
<!DOCTYPE svg PUBLIC "-//W3C//DTD SVG 20010904//EN" "http://www.w3.org/TR/2001/REC-SVG-20010904/DTD/svg10.dtd"[]>
<svg version="1.1" id="Frosty Editor v1.0.6.3" xmlns="http://www.w3.org/2000/svg" d1p1:xlink="http://www.w3.org/1999/xlink" viewBox="0 0 25 25" xmlns:d1p1="xmlns">
  <path stroke="none" fill="#ffffffff" d="M 11.525,3.885 C 11.510,3.886 11.494,3.887 11.479,3.890 10.499,4.023 9.550,4.327 8.676,4.788 8.446,4.907 8.358,5.189 8.477,5.419 8.596,5.648 8.878,5.738 9.107,5.619 9.888,5.200 10.736,4.922 11.614,4.797 11.734,4.778 11.841,4.712 11.911,4.612 11.981,4.514 12.008,4.391 11.986,4.271 11.954,4.041 11.753,3.876 11.525,3.885 Z M 13.596,3.885 C 13.378,3.888 13.189,4.049 13.157,4.271 13.135,4.391 13.162,4.514 13.233,4.612 13.303,4.712 13.409,4.778 13.529,4.797 14.407,4.922 15.255,5.200 16.036,5.619 16.265,5.738 16.548,5.648 16.667,5.419 16.786,5.189 16.697,4.907 16.467,4.788 15.593,4.327 14.644,4.023 13.664,3.890 13.641,3.886 13.619,3.885 13.596,3.885 Z M 6.665,6.500 C 6.550,6.506 6.437,6.555 6.354,6.647 5.692,7.382 5.164,8.227 4.792,9.144 4.716,9.369 4.829,9.614 5.049,9.704 5.269,9.793 5.520,9.695 5.622,9.481 5.955,8.656 6.429,7.896 7.023,7.235 7.179,7.052 7.163,6.780 6.987,6.616 6.895,6.533 6.779,6.494 6.665,6.500 Z M 18.435,6.500 C 18.335,6.505 18.236,6.543 18.156,6.616 17.980,6.780 17.964,7.052 18.120,7.235 18.714,7.896 19.189,8.656 19.521,9.481 19.624,9.695 19.875,9.793 20.095,9.704 20.315,9.614 20.428,9.369 20.352,9.144 19.980,8.227 19.451,7.382 18.789,6.647 18.696,6.544 18.565,6.494 18.435,6.500 Z M 11.974,7.635 C 11.853,7.641 11.757,7.741 11.757,7.864 11.757,8.071 11.757,8.071 11.757,8.071 13.500,8.071 13.500,8.071 13.500,8.071 13.500,7.864 13.500,7.864 13.500,7.864 13.500,7.738 13.397,7.635 13.271,7.635 11.986,7.635 11.986,7.635 11.986,7.635 11.982,7.635 11.978,7.635 11.974,7.635 Z M 11.322,8.349 C 11.322,8.785 11.322,8.785 11.322,8.785 14.079,8.785 14.079,8.785 14.079,8.785 14.079,8.349 14.079,8.349 14.079,8.349 Z M 10.688,9.082 C 10.423,9.082 10.325,9.180 10.325,9.297 10.325,9.661 10.325,9.661 10.325,9.661 9.876,9.661 9.876,9.661 9.876,9.661 9.876,11.690 9.876,11.690 9.876,11.690 10.325,11.690 10.325,11.690 10.325,11.690 10.325,13.936 10.325,13.936 10.325,13.936 10.544,14.156 10.544,14.156 10.544,14.156 11.340,14.156 11.340,14.156 11.340,14.156 11.340,10.963 11.340,10.963 11.340,10.963 14.097,10.963 14.097,10.963 14.097,10.963 14.097,14.152 14.097,14.152 14.097,14.152 14.874,14.152 14.874,14.152 14.874,14.152 15.094,13.932 15.094,13.932 15.094,13.932 15.094,11.686 15.094,11.686 15.094,11.686 15.543,11.686 15.543,11.686 15.543,11.686 15.543,9.661 15.543,9.661 15.543,9.661 15.094,9.661 15.094,9.661 15.094,9.661 15.094,9.297 15.094,9.297 15.094,9.297 15.094,9.175 14.995,9.082 14.730,9.082 Z M 11.614,11.255 C 11.614,14.156 11.614,14.156 11.614,14.156 13.792,14.156 13.792,14.156 13.792,14.156 13.792,11.255 13.792,11.255 13.792,11.255 Z M 4.605,11.597 C 4.537,11.598 4.470,11.615 4.408,11.647 4.265,11.722 4.173,11.867 4.167,12.027 4.167,12.351 4.167,12.351 4.167,12.351 4.166,13.232 4.301,14.107 4.567,14.947 4.616,15.100 4.743,15.215 4.901,15.250 5.058,15.284 5.221,15.232 5.329,15.113 5.438,14.994 5.474,14.826 5.425,14.673 5.187,13.923 5.065,13.142 5.065,12.355 5.065,12.063 5.065,12.063 5.065,12.063 5.072,11.903 4.992,11.752 4.857,11.666 4.780,11.618 4.692,11.594 4.605,11.597 Z M 20.509,11.597 C 20.432,11.600 20.355,11.623 20.287,11.666 20.152,11.752 20.071,11.903 20.078,12.063 20.078,12.355 20.078,12.355 20.078,12.355 20.078,13.142 19.957,13.923 19.719,14.673 19.670,14.826 19.706,14.994 19.814,15.113 19.923,15.232 20.086,15.284 20.243,15.250 20.401,15.215 20.528,15.100 20.577,14.947 20.843,14.107 20.977,13.232 20.976,12.351 20.976,12.027 20.976,12.027 20.976,12.027 20.970,11.867 20.879,11.722 20.736,11.647 20.665,11.610 20.587,11.594 20.509,11.597 Z M 11.614,14.448 C 11.564,14.689 11.515,14.930 11.465,15.171 13.936,15.171 13.936,15.171 13.936,15.171 13.886,14.932 13.837,14.692 13.787,14.453 13.787,14.448 13.787,14.448 13.787,14.448 Z M 10.455,14.466 C 10.366,14.466 10.287,14.520 10.253,14.601 10.021,15.058 9.789,15.514 9.557,15.971 9.535,16.019 9.540,16.074 9.569,16.118 9.598,16.162 9.648,16.188 9.700,16.186 15.692,16.186 15.692,16.186 15.692,16.186 15.744,16.188 15.794,16.162 15.823,16.118 15.852,16.074 15.857,16.019 15.836,15.971 15.614,15.514 15.392,15.058 15.171,14.601 15.136,14.520 15.057,14.466 14.969,14.466 14.071,14.466 14.071,14.466 14.071,14.466 14.146,14.804 14.220,15.143 14.295,15.482 11.101,15.482 11.101,15.482 11.101,15.482 11.175,15.143 11.248,14.804 11.322,14.466 Z M 6.315,16.846 C 6.219,16.845 6.121,16.876 6.039,16.940 5.851,17.085 5.807,17.351 5.941,17.547 6.543,18.332 7.277,19.007 8.110,19.541 8.246,19.628 8.417,19.636 8.560,19.561 8.703,19.487 8.796,19.342 8.803,19.182 8.810,19.021 8.731,18.869 8.595,18.782 8.595,18.796 8.595,18.796 8.595,18.796 7.848,18.314 7.189,17.706 6.651,16.999 6.563,16.899 6.440,16.846 6.315,16.846 Z M 18.639,17.368 C 18.506,17.368 18.377,17.428 18.292,17.533 18.290,17.539 18.289,17.546 18.287,17.552 17.685,18.201 16.973,18.740 16.186,19.146 16.005,19.243 15.914,19.450 15.963,19.648 16.012,19.847 16.188,19.987 16.393,19.990 16.464,19.991 16.535,19.974 16.599,19.941 17.480,19.484 18.275,18.876 18.948,18.145 19.070,18.030 19.119,17.856 19.073,17.695 19.028,17.533 18.896,17.410 18.732,17.376 18.701,17.370 18.670,17.367 18.639,17.368 Z M 10.923,19.786 C 10.756,19.786 10.599,19.880 10.522,20.034 10.430,20.217 10.474,20.438 10.628,20.573 10.682,20.620 10.747,20.653 10.817,20.669 11.785,20.892 12.784,20.944 13.770,20.822 13.937,20.814 14.087,20.713 14.157,20.561 14.227,20.408 14.206,20.230 14.103,20.097 14.000,19.965 13.831,19.901 13.666,19.932 13.661,19.935 13.656,19.939 13.651,19.943 12.771,20.047 11.880,19.998 11.017,19.797 10.986,19.790 10.954,19.786 10.923,19.786 Z " />
</svg>