<?xml version="1.0" encoding="UTF-8" standalone="no"?>
<!DOCTYPE svg PUBLIC "-//W3C//DTD SVG 20010904//EN" "http://www.w3.org/TR/2001/REC-SVG-20010904/DTD/svg10.dtd"[]>
<svg version="1.1" id="Frosty Editor v1.0.6.3" xmlns="http://www.w3.org/2000/svg" d1p1:xlink="http://www.w3.org/1999/xlink" viewBox="0 0 96 96" xmlns:d1p1="xmlns">
  <path stroke="none" fill="none" d="M 44.810,53.340 C 48.543,57.073 52.277,60.807 56.010,64.540 52.277,59.473 48.543,54.407 44.810,49.340 44.810,50.673 44.810,52.007 44.810,53.340 44.810,53.340 44.810,53.340 44.810,53.340 Z " />
  <path stroke="none" fill="none" d="M 25.810,56.840 C 25.810,57.116 25.586,57.340 25.310,57.340 25.034,57.340 24.810,57.116 24.810,56.840 24.810,56.564 25.034,56.340 25.310,56.340 25.586,56.340 25.810,56.564 25.810,56.840 25.810,56.840 25.810,56.840 25.810,56.840 Z " />
  <path stroke="none" fill="none" d="M 34.810,51.340 C 34.810,52.168 34.138,52.840 33.310,52.840 32.482,52.840 31.810,52.168 31.810,51.340 31.810,50.512 32.482,49.840 33.310,49.840 34.138,49.840 34.810,50.512 34.810,51.340 34.810,51.340 34.810,51.340 34.810,51.340 Z " />
  <path stroke="none" fill="none" d="M 29.810,54.340 C 29.810,54.892 29.362,55.340 28.810,55.340 28.258,55.340 27.810,54.892 27.810,54.340 27.810,53.788 28.258,53.340 28.810,53.340 29.362,53.340 29.810,53.788 29.810,54.340 29.810,54.340 29.810,54.340 29.810,54.340 Z " />
  <path stroke="none" fill="none" d="M 34.830,24.450 C 33.300,26.743 31.770,29.037 30.240,31.330 31.097,31.330 31.953,31.330 32.810,31.330 33.383,30.180 33.957,29.030 34.530,27.880 34.699,27.544 35.043,27.331 35.420,27.330 35.880,27.330 36.340,27.330 36.800,27.330 37.133,26.663 37.467,25.997 37.800,25.330 37.133,25.330 36.467,25.330 35.800,25.330 35.303,25.319 34.890,24.944 34.830,24.450 34.830,24.450 34.830,24.450 34.830,24.450 Z " />
  <path stroke="none" fill="#ffffffff" d="M 41.810,40.340 C 41.810,41.340 41.810,42.340 41.810,43.340 48.143,43.340 54.477,43.340 60.810,43.340 61.075,43.340 61.330,43.235 61.517,43.047 61.705,42.860 61.810,42.605 61.810,42.340 61.810,41.673 61.810,41.007 61.810,40.340 59.810,40.340 57.810,40.340 55.810,40.340 55.143,39.673 54.477,39.007 53.810,38.340 50.810,38.340 47.810,38.340 44.810,38.340 45.477,39.007 46.143,39.673 46.810,40.340 45.143,40.340 43.477,40.340 41.810,40.340 41.810,40.340 41.810,40.340 41.810,40.340 Z " />
  <path stroke="none" fill="#ffffffff" d="M 44.810,53.340 C 44.810,52.007 44.810,50.673 44.810,49.340 48.540,54.407 52.270,59.473 56.000,64.540 52.270,60.807 48.540,57.073 44.810,53.340 Z M 33.310,52.840 C 32.703,52.840 32.156,52.475 31.924,51.914 31.692,51.354 31.820,50.708 32.249,50.279 32.678,49.850 33.324,49.722 33.884,49.954 34.445,50.186 34.810,50.733 34.810,51.340 34.810,51.738 34.652,52.119 34.371,52.401 34.089,52.682 33.708,52.840 33.310,52.840 33.310,52.840 33.310,52.840 33.310,52.840 Z M 28.810,55.340 C 28.406,55.340 28.041,55.096 27.886,54.723 27.731,54.349 27.817,53.919 28.103,53.633 28.389,53.347 28.819,53.261 29.193,53.416 29.566,53.571 29.810,53.936 29.810,54.340 29.810,54.605 29.705,54.860 29.517,55.047 29.330,55.235 29.075,55.340 28.810,55.340 28.810,55.340 28.810,55.340 28.810,55.340 Z M 25.310,57.340 C 25.108,57.340 24.925,57.218 24.848,57.031 24.771,56.845 24.813,56.629 24.956,56.486 25.099,56.343 25.315,56.301 25.501,56.378 25.688,56.455 25.810,56.638 25.810,56.840 25.810,56.973 25.757,57.100 25.664,57.194 25.570,57.287 25.443,57.340 25.310,57.340 25.310,57.340 25.310,57.340 25.310,57.340 Z M 62.810,68.340 C 62.143,68.340 61.477,68.340 60.810,68.340 56.587,62.007 52.363,55.673 48.140,49.340 49.030,49.340 49.920,49.340 50.810,49.340 51.477,50.007 52.143,50.673 52.810,51.340 53.143,51.340 53.477,51.340 53.810,51.340 53.810,49.007 53.810,46.673 53.810,44.340 49.810,44.340 45.810,44.340 41.810,44.340 41.810,45.340 41.810,46.340 41.810,47.340 40.143,47.340 38.477,47.340 36.810,47.340 36.810,46.673 36.810,46.007 36.810,45.340 29.143,51.007 21.477,56.673 13.810,62.340 13.810,64.007 13.810,65.673 13.810,67.340 17.143,67.340 20.477,67.340 23.810,67.340 23.810,66.673 23.810,66.007 23.810,65.340 21.520,64.653 19.230,63.967 16.940,63.280 23.563,59.967 30.187,56.653 36.810,53.340 36.810,52.673 36.810,52.007 36.810,51.340 37.810,50.673 38.810,50.007 39.810,49.340 40.477,49.340 41.143,49.340 41.810,49.340 41.810,51.007 41.810,52.673 41.810,54.340 47.143,59.007 52.477,63.673 57.810,68.340 57.477,68.340 57.143,68.340 56.810,68.340 56.545,68.340 56.290,68.445 56.103,68.633 55.915,68.820 55.810,69.075 55.810,69.340 55.810,69.673 55.810,70.007 55.810,70.340 55.810,70.605 55.915,70.860 56.103,71.047 56.290,71.235 56.545,71.340 56.810,71.340 58.810,71.340 60.810,71.340 62.810,71.340 63.075,71.340 63.330,71.235 63.517,71.047 63.705,70.860 63.810,70.605 63.810,70.340 63.810,70.007 63.810,69.673 63.810,69.340 63.810,68.788 63.362,68.340 62.810,68.340 62.810,68.340 62.810,68.340 62.810,68.340 Z " />
  <path stroke="none" fill="#ffffffff" d="M 36.810,27.340 C 36.350,27.340 35.890,27.340 35.430,27.340 35.053,27.341 34.709,27.554 34.540,27.890 33.967,29.040 33.393,30.190 32.820,31.340 31.963,31.340 31.107,31.340 30.250,31.340 31.780,29.047 33.310,26.753 34.840,24.460 34.901,24.965 35.331,25.344 35.840,25.340 36.507,25.340 37.173,25.340 37.840,25.340 37.497,26.007 37.153,26.673 36.810,27.340 Z M 76.810,30.340 C 69.477,30.007 62.143,29.673 54.810,29.340 54.477,28.673 54.143,28.007 53.810,27.340 48.810,27.340 43.810,27.340 38.810,27.340 39.143,26.673 39.477,26.007 39.810,25.340 40.477,25.340 41.143,25.340 41.810,25.340 42.075,25.340 42.330,25.235 42.517,25.047 42.705,24.860 42.810,24.605 42.810,24.340 42.810,23.673 42.810,23.007 42.810,22.340 42.810,22.075 42.705,21.820 42.517,21.633 42.330,21.445 42.075,21.340 41.810,21.340 39.810,21.340 37.810,21.340 35.810,21.340 35.545,21.340 35.290,21.445 35.103,21.633 34.915,21.820 34.810,22.075 34.810,22.340 34.810,22.457 34.810,22.573 34.810,22.690 32.873,25.573 30.937,28.457 29.000,31.340 28.603,31.340 28.207,31.340 27.810,31.340 29.477,33.340 31.143,35.340 32.810,37.340 41.143,37.340 49.477,37.340 57.810,37.340 58.477,36.340 59.143,35.340 59.810,34.340 58.477,34.340 57.143,34.340 55.810,34.340 55.810,34.007 55.810,33.673 55.810,33.340 62.810,33.007 69.810,32.673 76.810,32.340 78.477,32.673 80.143,33.007 81.810,33.340 81.810,32.007 81.810,30.673 81.810,29.340 80.143,29.673 78.477,30.007 76.810,30.340 Z " />
</svg>