<?xml version="1.0" encoding="UTF-8" standalone="no"?>
<!DOCTYPE svg PUBLIC "-//W3C//DTD SVG 20010904//EN" "http://www.w3.org/TR/2001/REC-SVG-20010904/DTD/svg10.dtd"[]>
<svg version="1.1" id="Frosty Editor v1.0.6.3" xmlns="http://www.w3.org/2000/svg" d1p1:xlink="http://www.w3.org/1999/xlink" viewBox="0 0 25 25" xmlns:d1p1="xmlns">
  <path stroke="none" fill="#ffffffff" d="M 12.510,2.429 C 12.411,2.433 12.205,2.512 11.908,3.029 11.715,3.412 11.571,3.816 11.477,4.233 11.474,4.243 11.476,4.252 11.481,4.260 11.486,4.268 11.494,4.273 11.503,4.275 13.559,4.275 13.559,4.275 13.559,4.275 13.568,4.274 13.577,4.270 13.583,4.263 13.589,4.256 13.592,4.248 13.591,4.239 13.498,3.819 13.354,3.413 13.162,3.029 12.852,2.500 12.633,2.429 12.551,2.429 12.519,2.429 12.519,2.429 12.519,2.429 12.516,2.429 12.513,2.429 12.510,2.429 Z M 11.212,4.804 C 11.212,5.863 11.212,5.863 11.212,5.863 13.858,5.863 13.858,5.863 13.858,5.863 13.858,4.804 13.858,4.804 13.858,4.804 Z M 10.948,6.392 C 10.948,18.563 10.948,18.563 10.948,18.563 14.123,18.563 14.123,18.563 14.123,18.563 14.123,6.392 14.123,6.392 14.123,6.392 Z M 14.652,7.183 C 14.652,10.565 14.652,10.565 14.652,10.565 15.013,9.734 15.600,9.021 16.345,8.506 15.726,7.908 15.345,7.448 14.652,7.183 Z M 10.418,7.186 C 9.696,7.429 9.323,7.887 8.683,8.474 9.448,8.992 10.050,9.717 10.418,10.565 Z M 5.987,8.442 C 4.355,8.442 2.883,9.426 2.259,10.933 1.634,12.441 1.980,14.176 3.134,15.330 4.288,16.484 6.023,16.830 7.531,16.205 9.038,15.581 10.022,14.109 10.022,12.477 10.022,11.407 9.596,10.381 8.840,9.625 8.083,8.868 7.057,8.442 5.987,8.442 Z M 19.084,8.442 C 17.452,8.442 15.980,9.426 15.356,10.933 14.731,12.441 15.076,14.176 16.231,15.330 17.384,16.484 19.120,16.830 20.628,16.205 22.135,15.581 23.118,14.109 23.118,12.477 23.118,11.407 22.693,10.381 21.937,9.625 21.180,8.868 20.154,8.442 19.084,8.442 Z M 5.514,9.637 C 5.805,9.720 6.075,9.863 6.308,10.057 6.330,10.089 6.352,10.120 6.373,10.151 6.637,10.413 6.917,10.916 6.911,11.252 6.900,11.776 6.837,11.945 6.636,12.297 6.174,13.105 6.670,13.384 7.028,13.321 7.493,13.240 7.799,12.542 7.535,11.796 7.460,11.561 7.350,11.339 7.209,11.136 7.209,11.136 7.607,11.381 7.721,11.572 7.835,11.763 8.251,12.223 8.251,13.222 8.245,14.212 7.556,15.050 6.644,15.326 6.438,15.391 6.224,15.423 6.008,15.423 5.993,15.423 5.993,15.423 5.993,15.423 4.777,15.423 3.739,14.436 3.794,13.224 3.803,12.965 3.861,12.710 3.965,12.473 4.088,12.158 4.280,11.876 4.528,11.646 4.595,11.581 4.659,11.522 4.705,11.483 4.722,11.467 4.739,11.451 4.756,11.435 4.754,11.437 4.753,11.440 4.752,11.442 4.758,11.437 4.764,11.432 4.770,11.427 4.770,11.427 4.714,11.528 4.669,11.595 4.663,11.604 4.657,11.613 4.651,11.622 4.591,11.742 4.558,11.874 4.556,12.008 4.567,12.097 4.620,12.176 4.698,12.221 4.897,12.302 5.232,12.182 5.492,11.913 5.588,11.809 5.670,11.693 5.737,11.568 5.772,11.496 5.800,11.421 5.822,11.345 5.864,11.192 5.897,11.037 5.918,10.880 5.925,10.485 5.835,10.093 5.656,9.740 5.615,9.698 5.567,9.663 5.514,9.637 Z M 18.611,9.637 C 18.902,9.720 19.172,9.863 19.405,10.057 19.427,10.089 19.449,10.120 19.470,10.151 19.734,10.413 20.014,10.916 20.008,11.252 19.997,11.776 19.934,11.945 19.733,12.297 19.271,13.105 19.767,13.384 20.125,13.321 20.590,13.240 20.896,12.542 20.632,11.796 20.556,11.561 20.446,11.339 20.306,11.136 20.306,11.136 20.704,11.381 20.818,11.572 20.932,11.763 21.348,12.223 21.348,13.222 21.342,14.212 20.653,15.050 19.740,15.326 19.535,15.391 19.321,15.423 19.105,15.423 19.090,15.423 19.090,15.423 19.090,15.423 17.874,15.423 16.836,14.436 16.891,13.224 16.899,12.965 16.958,12.710 17.062,12.473 17.185,12.158 17.377,11.876 17.625,11.646 17.692,11.581 17.756,11.522 17.802,11.483 17.819,11.467 17.836,11.451 17.853,11.435 17.851,11.437 17.850,11.440 17.849,11.442 17.854,11.437 17.861,11.432 17.867,11.427 17.867,11.427 17.811,11.528 17.766,11.595 17.760,11.604 17.754,11.613 17.748,11.622 17.687,11.742 17.655,11.874 17.653,12.008 17.664,12.097 17.717,12.176 17.795,12.221 17.994,12.302 18.328,12.182 18.589,11.913 18.685,11.809 18.767,11.693 18.833,11.568 18.869,11.496 18.897,11.421 18.919,11.345 18.961,11.192 18.993,11.037 19.015,10.880 19.022,10.485 18.932,10.093 18.753,9.740 18.712,9.698 18.664,9.663 18.611,9.637 Z M 10.418,14.390 C 10.120,15.076 9.668,15.684 9.096,16.166 9.096,18.298 9.096,18.298 9.096,18.298 10.418,18.298 10.418,18.298 10.418,18.298 Z M 14.652,14.390 C 14.652,18.298 14.652,18.298 14.652,18.298 15.975,18.298 15.975,18.298 15.975,18.298 15.975,16.166 15.975,16.166 15.975,16.166 15.403,15.684 14.950,15.076 14.652,14.390 Z M 8.566,16.552 C 7.796,17.044 6.901,17.306 5.987,17.306 5.965,17.305 5.943,17.304 5.921,17.303 5.921,18.563 5.921,18.563 5.921,18.563 8.566,18.563 8.566,18.563 8.566,18.563 Z M 16.504,16.552 C 16.504,18.563 16.504,18.563 16.504,18.563 19.150,18.563 19.150,18.563 19.150,18.563 19.150,17.303 19.150,17.303 19.150,17.303 19.084,17.303 19.084,17.303 19.084,17.303 18.170,17.304 17.275,17.043 16.504,16.552 Z M 6.450,19.092 C 6.450,19.621 6.450,19.621 6.450,19.621 8.037,19.621 8.037,19.621 8.037,19.621 8.037,19.092 8.037,19.092 8.037,19.092 Z M 17.033,19.092 C 17.033,19.621 17.033,19.621 17.033,19.621 18.621,19.621 18.621,19.621 18.621,19.621 18.621,19.092 18.621,19.092 18.621,19.092 Z M 6.450,20.150 C 6.273,20.856 6.097,21.561 5.921,22.267 8.566,22.267 8.566,22.267 8.566,22.267 8.376,21.561 8.185,20.856 7.995,20.150 Z M 17.033,20.150 C 16.857,20.856 16.680,21.561 16.504,22.267 19.150,22.267 19.150,22.267 19.150,22.267 18.958,21.561 18.767,20.856 18.576,20.150 Z " />
</svg>