<?xml version="1.0" encoding="UTF-8" standalone="no"?>
<!DOCTYPE svg PUBLIC "-//W3C//DTD SVG 20010904//EN" "http://www.w3.org/TR/2001/REC-SVG-20010904/DTD/svg10.dtd"[]>
<svg version="1.1" id="Frosty Editor v1.0.6.3" xmlns="http://www.w3.org/2000/svg" d1p1:xlink="http://www.w3.org/1999/xlink" viewBox="0 0 25 25" xmlns:d1p1="xmlns">
  <path stroke="none" fill="#ffffffff" d="M 2.253,13.503 C 2.816,12.939 3.380,12.376 3.943,11.812 6.950,14.818 9.956,17.825 12.963,20.831 12.399,21.394 11.836,21.958 11.272,22.522 8.266,19.516 5.259,16.509 2.253,13.503 Z " />
  <path stroke="none" fill="#ffffffff" d="M 11.280,4.490 C 10.716,5.054 10.153,5.618 9.589,6.181 10.963,7.556 10.963,7.556 10.963,7.556 11.206,6.914 11.585,6.325 12.086,5.830 12.175,5.740 12.267,5.654 12.362,5.572 12.001,5.212 11.641,4.851 11.280,4.490 Z M 12.736,5.947 C 12.110,6.475 11.634,7.175 11.381,7.973 15.807,12.399 15.807,12.399 15.807,12.399 15.952,12.399 15.952,12.399 15.952,12.399 15.952,12.545 15.952,12.545 15.952,12.545 16.859,13.451 16.859,13.451 16.859,13.451 17.657,13.199 18.357,12.721 18.884,12.095 17.738,10.949 16.593,9.803 15.447,8.657 15.603,8.928 15.760,9.199 15.916,9.470 15.731,9.577 15.545,9.685 15.360,9.792 14.803,8.828 14.247,7.865 13.691,6.901 13.373,6.583 13.055,6.265 12.736,5.947 Z M 12.426,7.243 C 12.605,7.347 12.785,7.451 12.965,7.555 12.861,7.734 12.757,7.914 12.653,8.093 12.474,7.990 12.295,7.886 12.115,7.783 12.219,7.603 12.322,7.423 12.426,7.243 Z M 17.447,11.767 C 17.551,11.947 17.655,12.126 17.759,12.305 17.579,12.409 17.399,12.512 17.220,12.616 17.116,12.436 17.013,12.257 16.909,12.078 17.089,11.974 17.268,11.871 17.447,11.767 Z M 19.259,12.470 C 19.177,12.564 19.092,12.656 19.002,12.745 18.506,13.246 17.918,13.626 17.276,13.869 18.608,15.201 18.608,15.201 18.608,15.201 19.172,14.637 19.735,14.073 20.299,13.510 19.952,13.163 19.606,12.816 19.259,12.470 Z " />
  <path stroke="none" fill="#ffffffff" d="M 15.820,3.044 C 14.702,3.044 13.629,3.488 12.838,4.279 12.598,4.520 12.598,4.520 12.598,4.520 13.115,5.036 13.115,5.036 13.115,5.036 13.846,4.615 14.680,4.392 15.544,4.392 16.850,4.392 18.084,4.901 19.002,5.830 19.930,6.748 20.440,7.982 20.440,9.288 20.440,10.153 20.216,10.986 19.795,11.717 20.362,12.283 20.362,12.283 20.362,12.283 21.193,11.453 21.193,11.453 21.193,11.453 21.839,10.809 22.196,9.930 22.185,9.017 22.173,8.105 21.793,7.235 21.130,6.608 18.801,4.279 18.801,4.279 18.801,4.279 18.011,3.488 16.938,3.044 15.820,3.044 Z M 15.544,4.922 C 14.809,4.922 14.115,5.106 13.507,5.428 15.249,7.170 16.990,8.912 18.732,10.654 18.812,10.700 18.892,10.746 18.971,10.792 18.959,10.813 18.947,10.835 18.934,10.856 19.404,11.326 19.404,11.326 19.404,11.326 19.727,10.717 19.909,10.024 19.909,9.288 19.909,6.881 17.952,4.922 15.544,4.922 Z M 15.126,5.575 C 15.748,5.575 15.748,5.575 15.748,5.575 15.748,6.197 15.748,6.197 15.748,6.197 15.126,6.197 15.126,6.197 15.126,6.197 Z M 17.050,5.860 C 17.229,5.964 17.408,6.067 17.588,6.171 17.484,6.350 17.381,6.530 17.277,6.710 17.098,6.606 16.918,6.503 16.738,6.399 16.842,6.220 16.946,6.040 17.050,5.860 Z M 18.561,7.073 C 18.665,7.253 18.768,7.432 18.872,7.612 18.692,7.715 18.513,7.820 18.334,7.923 18.230,7.744 18.126,7.564 18.022,7.384 18.202,7.280 18.382,7.177 18.561,7.073 Z M 18.655,8.869 C 19.277,8.869 19.277,8.869 19.277,8.869 19.277,9.492 19.277,9.492 19.277,9.492 18.655,9.492 18.655,9.492 18.655,9.492 Z " />
  <path stroke="none" fill="#ffffffff" d="M 5.160,11.894 C 5.536,11.519 5.911,11.144 6.286,10.768 8.864,13.346 11.442,15.925 14.020,18.503 13.645,18.878 13.270,19.253 12.895,19.628 10.316,17.050 7.738,14.472 5.160,11.894 Z " />
  <path stroke="none" fill="#ffffffff" d="M 6.847,10.204 C 7.222,9.829 7.598,9.454 7.973,9.079 10.551,11.658 13.129,14.236 15.707,16.814 15.332,17.189 14.957,17.564 14.582,17.939 12.003,15.361 9.425,12.782 6.847,10.204 Z " />
  <path stroke="none" fill="#ffffffff" d="M 9.665,7.385 C 9.290,7.760 8.914,8.134 8.539,8.509 9.331,9.301 10.123,10.092 10.914,10.883 10.739,10.376 10.648,9.838 10.648,9.288 10.648,9.001 10.673,8.718 10.721,8.440 Z M 11.194,8.914 C 11.184,9.037 11.179,9.162 11.179,9.288 11.179,11.695 13.137,13.653 15.544,13.653 15.670,13.653 15.795,13.648 15.918,13.637 11.976,9.695 11.976,9.695 11.976,9.695 11.831,9.695 11.831,9.695 11.831,9.695 11.831,9.551 11.831,9.551 11.831,9.551 Z M 12.754,10.652 C 12.857,10.832 12.961,11.011 13.064,11.191 12.885,11.294 12.706,11.399 12.526,11.502 12.422,11.323 12.318,11.143 12.215,10.963 12.394,10.859 12.574,10.756 12.754,10.652 Z M 13.813,11.866 C 13.992,11.970 14.171,12.074 14.351,12.178 14.247,12.358 14.144,12.537 14.040,12.716 13.861,12.613 13.681,12.509 13.501,12.406 13.605,12.226 13.709,12.046 13.813,11.866 Z M 13.947,13.917 C 16.274,16.244 16.274,16.244 16.274,16.244 16.650,15.869 17.025,15.494 17.400,15.119 16.391,14.111 16.391,14.111 16.391,14.111 16.114,14.159 15.831,14.184 15.544,14.184 14.993,14.184 14.455,14.092 13.947,13.917 Z " />
</svg>