<?xml version="1.0" encoding="UTF-8" standalone="no"?>
<!DOCTYPE svg PUBLIC "-//W3C//DTD SVG 20010904//EN" "http://www.w3.org/TR/2001/REC-SVG-20010904/DTD/svg10.dtd"[]>
<svg version="1.1" id="Frosty Editor v1.0.6.3" xmlns="http://www.w3.org/2000/svg" d1p1:xlink="http://www.w3.org/1999/xlink" viewBox="0 0 96 96" xmlns:d1p1="xmlns">
  <path stroke="none" fill="#ffffffff" d="M 47.000,25.300 C 47.133,25.300 47.267,25.300 47.400,25.300 48.100,25.300 48.600,24.700 48.600,24.100 48.600,20.467 48.600,16.833 48.600,13.200 48.600,12.500 48.000,12.000 47.400,12.000 47.267,12.000 47.133,12.000 47.000,12.000 46.300,12.000 45.800,12.600 45.800,13.200 45.800,16.833 45.800,20.467 45.800,24.100 45.800,24.800 46.400,25.300 47.000,25.300 47.000,25.300 47.000,25.300 47.000,25.300 Z " />
  <path stroke="none" fill="#ffffffff" d="M 42.500,26.000 C 41.233,22.600 39.967,19.200 38.700,15.800 38.500,15.200 37.700,14.800 37.100,15.100 36.967,15.133 36.833,15.167 36.700,15.200 36.100,15.400 35.700,16.200 36.000,16.800 37.267,20.200 38.533,23.600 39.800,27.000 40.000,27.600 40.800,28.000 41.400,27.700 41.533,27.667 41.667,27.633 41.800,27.600 42.400,27.400 42.700,26.600 42.500,26.000 42.500,26.000 42.500,26.000 42.500,26.000 Z " />
  <path stroke="none" fill="#ffffffff" d="M 47.200,43.900 C 47.800,44.000 48.400,43.700 48.600,43.200 49.967,39.833 51.333,36.467 52.700,33.100 53.000,32.500 52.600,31.700 52.000,31.500 51.867,31.433 51.733,31.367 51.600,31.300 51.000,31.100 50.300,31.400 50.000,32.000 49.567,33.067 49.133,34.133 48.700,35.200 48.700,33.600 48.700,32.000 48.700,30.400 48.700,29.700 48.100,29.200 47.500,29.200 47.333,29.200 47.167,29.200 47.000,29.200 46.300,29.200 45.800,29.800 45.800,30.400 45.800,31.933 45.800,33.467 45.800,35.000 45.433,34.000 45.067,33.000 44.700,32.000 44.500,31.400 43.700,31.000 43.100,31.300 42.967,31.333 42.833,31.367 42.700,31.400 42.100,31.600 41.700,32.400 42.000,33.000 43.267,36.400 44.533,39.800 45.800,43.200 46.000,43.800 46.600,44.100 47.200,43.900 47.200,43.900 47.200,43.900 47.200,43.900 Z " />
  <path stroke="none" fill="#ffffffff" d="M 53.100,27.700 C 53.233,27.767 53.367,27.833 53.500,27.900 54.100,28.200 54.900,27.800 55.100,27.200 56.467,23.833 57.833,20.467 59.200,17.100 59.500,16.500 59.100,15.700 58.500,15.500 58.367,15.433 58.233,15.367 58.100,15.300 57.500,15.000 56.700,15.400 56.500,16.000 55.133,19.367 53.767,22.733 52.400,26.100 52.100,26.800 52.400,27.500 53.100,27.700 53.100,27.700 53.100,27.700 53.100,27.700 Z " />
  <path stroke="none" fill="#ffffffff" d="M 49.300,56.700 C 48.800,56.700 48.300,56.300 48.300,55.700 48.267,53.500 48.233,51.300 48.200,49.100 48.200,48.700 48.500,48.500 49.000,48.500 49.400,48.500 49.800,48.800 49.800,49.100 49.967,51.300 50.133,53.500 50.300,55.700 50.300,56.300 49.900,56.700 49.300,56.700 49.300,56.700 49.300,56.700 49.300,56.700 Z M 46.700,55.800 C 46.700,56.300 46.200,56.800 45.700,56.800 45.100,56.800 44.700,56.400 44.800,55.800 44.933,53.600 45.067,51.400 45.200,49.200 45.200,48.800 45.600,48.600 46.000,48.600 46.400,48.600 46.800,48.900 46.800,49.200 46.767,51.400 46.733,53.600 46.700,55.800 46.700,55.800 46.700,55.800 46.700,55.800 Z M 51.200,47.600 C 51.100,47.100 50.700,46.800 50.100,46.800 48.267,46.800 46.433,46.800 44.600,46.800 44.000,46.800 43.600,47.200 43.500,47.700 43.200,51.333 42.900,54.967 42.600,58.600 45.867,58.600 49.133,58.600 52.400,58.600 52.000,54.933 51.600,51.267 51.200,47.600 51.200,47.600 51.200,47.600 51.200,47.600 Z " />
  <path stroke="none" fill="#ffffffff" d="M 50.100,64.900 C 50.900,63.233 51.700,61.567 52.500,59.900 49.233,59.900 45.967,59.900 42.700,59.900 43.700,61.567 44.700,63.233 45.700,64.900 45.700,64.900 45.700,64.900 45.700,64.900 45.700,71.500 45.700,78.100 45.700,84.700 47.167,84.700 48.633,84.700 50.100,84.700 50.100,84.167 50.100,65.767 50.100,64.900 Z " />
</svg>