<?xml version="1.0" encoding="UTF-8" standalone="no"?>
<!DOCTYPE svg PUBLIC "-//W3C//DTD SVG 20010904//EN" "http://www.w3.org/TR/2001/REC-SVG-20010904/DTD/svg10.dtd"[]>
<svg version="1.1" id="Frosty Editor v1.0.6.3" xmlns="http://www.w3.org/2000/svg" d1p1:xlink="http://www.w3.org/1999/xlink" viewBox="0 0 384 96" xmlns:d1p1="xmlns">
  <path stroke="none" fill="#ffffffff" d="M 364.500,21.230 C 363.360,21.230 362.220,21.230 361.080,21.230 361.080,20.230 361.080,19.230 361.080,18.230 362.220,18.230 363.360,18.230 364.500,18.230 364.500,19.230 364.500,20.230 364.500,21.230 Z M 359.080,23.000 C 355.970,23.000 352.860,23.000 349.750,23.000 349.750,19.820 349.750,16.640 349.750,13.460 352.860,13.460 355.970,13.460 359.080,13.460 359.080,16.640 359.080,19.820 359.080,23.000 Z M 337.880,18.440 C 334.413,18.773 330.947,19.107 327.480,19.440 324.043,19.440 320.607,19.440 317.170,19.440 317.170,16.830 317.170,14.220 317.170,11.610 320.557,11.610 323.943,11.610 327.330,11.610 330.860,11.943 334.390,12.277 337.920,12.610 341.197,12.610 344.473,12.610 347.750,12.610 347.750,14.567 347.750,16.523 347.750,18.480 344.460,18.467 341.170,18.453 337.880,18.440 Z M 343.880,27.020 C 343.303,27.020 342.727,27.020 342.150,27.020 342.150,24.840 342.150,22.660 342.150,20.480 342.727,20.480 343.303,20.480 343.880,20.480 343.880,22.660 343.880,24.840 343.880,27.020 Z M 345.880,42.440 C 326.253,42.440 306.627,42.440 287.000,42.440 287.000,37.983 287.000,33.527 287.000,29.070 306.613,29.070 326.227,29.070 345.840,29.070 345.853,33.527 345.867,37.983 345.880,42.440 Z M 273.660,42.440 C 267.590,42.440 261.520,42.440 255.450,42.440 252.930,42.773 250.410,43.107 247.890,43.440 239.957,43.440 232.023,43.440 224.090,43.440 224.090,38.317 224.090,33.193 224.090,28.070 231.937,28.070 239.783,28.070 247.630,28.070 250.193,28.403 252.757,28.737 255.320,29.070 261.433,29.070 267.547,29.070 273.660,29.070 274.290,29.163 274.920,29.257 275.550,29.350 275.550,33.633 275.550,37.917 275.550,42.200 274.920,42.280 274.290,42.360 273.660,42.440 Z M 211.740,58.440 C 209.762,58.588 207.811,57.911 206.350,56.570 205.362,55.472 204.813,54.047 204.810,52.570 204.810,50.207 204.810,47.843 204.810,45.480 210.603,45.480 216.397,45.480 222.190,45.480 221.000,48.210 217.500,55.160 211.740,58.440 211.740,58.440 211.740,58.440 211.740,58.440 Z M 181.900,47.890 C 182.310,49.670 184.590,50.570 184.590,50.570 186.090,54.200 192.090,54.570 192.090,54.570 192.090,54.153 192.090,53.737 192.090,53.320 187.240,50.850 188.680,47.590 189.650,46.160 192.197,46.160 194.743,46.160 197.290,46.160 199.801,46.087 201.902,48.050 202.000,50.560 202.000,50.950 202.000,51.340 202.000,51.730 201.902,54.248 199.789,56.214 197.270,56.130 193.390,56.130 189.510,56.130 185.630,56.130 183.111,56.214 180.998,54.248 180.900,51.730 180.900,51.340 180.900,50.950 180.900,50.560 180.910,49.580 181.264,48.635 181.900,47.890 181.900,47.890 181.900,47.890 181.900,47.890 Z M 206.000,60.190 C 199.083,60.190 192.167,60.190 185.250,60.190 182.355,59.867 179.698,58.433 177.840,56.190 177.813,56.163 177.787,56.137 177.760,56.110 177.630,55.990 174.630,53.290 171.620,54.110 169.760,54.650 168.400,56.370 167.620,59.240 167.340,59.950 164.750,66.900 163.500,78.810 162.813,78.810 162.127,78.810 161.440,78.810 161.440,78.810 161.440,78.810 161.440,78.810 157.040,78.843 152.640,78.877 148.240,78.910 148.240,78.910 148.240,78.910 148.240,78.910 147.190,78.910 146.140,78.910 145.090,78.910 145.230,76.730 146.600,70.230 156.720,59.540 156.970,59.270 162.720,52.970 160.850,48.120 159.850,45.430 156.740,43.830 151.630,43.360 150.980,43.360 135.630,43.180 129.530,49.770 126.093,51.153 122.657,52.537 119.220,53.920 119.127,53.920 119.033,53.920 118.940,53.920 118.940,53.947 118.940,53.973 118.940,54.000 88.780,66.127 58.620,78.253 28.460,90.380 27.990,84.850 26.410,63.270 28.720,46.770 48.813,42.653 68.907,38.537 89.000,34.420 89.100,34.380 89.200,34.340 89.300,34.300 89.360,34.300 90.760,33.560 93.090,35.890 93.183,35.983 93.277,36.077 93.370,36.170 93.503,36.170 93.637,36.170 93.770,36.170 94.700,36.170 116.510,36.690 132.340,26.380 132.410,26.333 132.480,26.287 132.550,26.240 132.590,26.167 132.630,26.093 132.670,26.020 133.340,24.810 135.550,21.580 137.740,21.140 137.783,21.140 137.827,21.140 137.870,21.140 138.080,21.070 142.930,19.490 147.520,25.080 147.620,25.203 147.720,25.327 147.820,25.450 157.780,25.450 167.740,25.450 177.700,25.450 178.493,26.410 179.287,27.370 180.080,28.330 181.820,28.330 183.560,28.330 185.300,28.330 185.300,29.040 185.300,29.750 185.300,30.460 186.323,30.460 187.347,30.460 188.370,30.460 188.263,30.573 188.157,30.687 188.050,30.800 188.050,30.800 188.050,30.800 188.050,30.800 187.920,30.927 187.790,31.053 187.660,31.180 177.723,31.607 167.787,32.033 157.850,32.460 156.579,32.391 155.373,33.031 154.717,34.122 154.061,35.213 154.061,36.577 154.717,37.668 155.373,38.759 156.579,39.399 157.850,39.330 157.850,39.330 157.850,39.330 157.850,39.330 163.850,39.800 169.850,40.270 175.850,40.740 175.880,40.597 175.910,40.453 175.940,40.310 176.180,39.129 177.231,38.290 178.436,38.317 179.641,38.344 180.653,39.230 180.840,40.420 180.863,40.557 180.887,40.693 180.910,40.830 188.517,40.993 196.123,41.157 203.730,41.320 203.730,42.380 203.730,43.440 203.730,44.500 203.730,44.500 203.730,44.500 203.730,44.500 203.730,46.000 203.730,47.500 203.730,49.000 202.889,46.109 200.220,44.137 197.210,44.180 193.350,44.180 189.490,44.180 185.630,44.180 182.003,44.096 178.993,46.963 178.900,50.590 178.900,50.980 178.900,51.370 178.900,51.760 178.998,55.383 182.007,58.244 185.630,58.160 189.517,58.160 193.403,58.160 197.290,58.160 200.337,58.204 203.027,56.180 203.830,53.240 203.967,54.735 204.597,56.142 205.620,57.240 206.786,58.395 208.309,59.121 209.940,59.300 208.684,59.808 207.353,60.109 206.000,60.190 206.000,60.190 206.000,60.190 206.000,60.190 Z M 148.210,84.070 C 148.210,82.677 148.210,81.283 148.210,79.890 152.043,79.860 155.877,79.830 159.710,79.800 159.710,81.223 159.710,82.647 159.710,84.070 155.877,84.070 152.043,84.070 148.210,84.070 Z M 131.420,82.820 C 131.370,82.820 126.120,82.550 123.790,78.210 122.230,75.310 121.660,69.960 126.010,60.310 126.010,60.310 126.010,60.310 126.010,60.310 126.010,60.310 126.010,60.310 126.010,60.310 127.443,57.189 129.063,54.157 130.860,51.230 136.030,45.490 150.030,45.370 151.360,45.370 151.393,45.370 151.427,45.370 151.460,45.370 155.670,45.760 158.180,46.930 158.920,48.850 160.100,51.910 156.630,56.640 155.200,58.190 141.790,72.340 143.000,79.750 143.110,80.060 143.163,80.330 143.217,80.600 143.270,80.870 144.253,80.870 145.237,80.870 146.220,80.870 146.220,81.520 146.220,82.170 146.220,82.820 141.287,82.820 136.353,82.820 131.420,82.820 Z M 123.190,54.680 C 123.110,54.627 123.030,54.573 122.950,54.520 124.547,53.877 126.143,53.233 127.740,52.590 126.807,54.223 125.967,55.797 125.220,57.310 124.786,56.268 124.086,55.357 123.190,54.670 123.190,54.673 123.190,54.677 123.190,54.680 Z M 44.050,88.900 C 43.837,89.233 43.623,89.567 43.410,89.900 43.030,89.900 42.650,89.900 42.270,89.900 41.783,89.123 41.297,88.347 40.810,87.570 41.683,87.217 42.557,86.863 43.430,86.510 43.637,87.307 43.843,88.103 44.050,88.900 Z M 156.220,18.330 C 156.797,18.330 157.373,18.330 157.950,18.330 157.950,20.033 157.950,21.737 157.950,23.440 157.373,23.440 156.797,23.440 156.220,23.440 156.220,21.737 156.220,20.033 156.220,18.330 Z M 151.220,8.460 C 154.607,8.460 157.993,8.460 161.380,8.460 164.910,8.793 168.440,9.127 171.970,9.460 175.247,9.460 178.523,9.460 181.800,9.460 181.800,11.417 181.800,13.373 181.800,15.330 178.490,15.330 175.180,15.330 171.870,15.330 168.403,15.663 164.937,15.997 161.470,16.330 158.053,16.330 154.637,16.330 151.220,16.330 151.220,13.707 151.220,11.083 151.220,8.460 Z M 183.800,10.320 C 186.910,10.320 190.020,10.320 193.130,10.320 193.130,13.513 193.130,16.707 193.130,19.900 190.020,19.900 186.910,19.900 183.800,19.900 183.800,16.707 183.800,13.513 183.800,10.320 Z M 198.570,15.090 C 198.570,16.090 198.570,17.090 198.570,18.090 197.430,18.090 196.290,18.090 195.150,18.090 195.150,17.090 195.150,16.090 195.150,15.090 196.290,15.090 197.430,15.090 198.570,15.090 Z M 161.570,18.330 C 165.037,17.997 168.503,17.663 171.970,17.330 172.403,17.330 172.837,17.330 173.270,17.330 173.270,19.367 173.270,21.403 173.270,23.440 168.813,23.440 164.357,23.440 159.900,23.440 159.900,21.737 159.900,20.033 159.900,18.330 160.457,18.330 161.013,18.330 161.570,18.330 Z M 177.000,23.440 C 176.423,23.440 175.847,23.440 175.270,23.440 175.270,21.403 175.270,19.367 175.270,17.330 175.847,17.330 176.423,17.330 177.000,17.330 177.000,19.367 177.000,21.403 177.000,23.440 Z M 189.550,32.080 C 189.550,32.080 189.550,32.080 189.550,32.080 189.550,32.080 189.550,32.080 189.550,32.080 194.283,31.877 199.017,31.673 203.750,31.470 203.750,34.413 203.750,37.357 203.750,40.300 196.417,40.143 189.083,39.987 181.750,39.830 181.327,38.370 180.007,37.352 178.487,37.313 176.967,37.274 175.597,38.223 175.100,39.660 169.353,39.210 163.607,38.760 157.860,38.310 156.953,38.368 156.089,37.917 155.617,37.140 155.146,36.362 155.146,35.388 155.617,34.610 156.089,33.833 156.953,33.382 157.860,33.440 168.423,32.987 178.987,32.533 189.550,32.080 Z M 208.550,24.190 C 212.028,24.390 215.468,25.021 218.790,26.070 213.790,26.070 208.790,26.070 203.790,26.070 203.790,27.540 203.790,29.010 203.790,30.480 199.423,30.653 195.057,30.827 190.690,31.000 193.170,28.780 199.730,23.750 208.550,24.190 208.550,24.190 208.550,24.190 208.550,24.190 Z M 205.810,43.480 C 205.810,38.343 205.810,33.207 205.810,28.070 211.570,28.070 217.330,28.070 223.090,28.070 223.090,33.207 223.090,38.343 223.090,43.480 217.330,43.480 211.570,43.480 205.810,43.480 Z M 277.500,27.740 C 280.000,27.740 282.500,27.740 285.000,27.740 285.000,33.090 285.000,38.440 285.000,43.790 284.910,43.790 284.820,43.790 284.730,43.790 282.323,43.790 279.917,43.790 277.510,43.790 277.507,38.440 277.503,33.090 277.500,27.740 Z M 326.730,27.070 C 326.730,25.207 326.730,23.343 326.730,21.480 326.977,21.480 327.223,21.480 327.470,21.480 330.937,21.147 334.403,20.813 337.870,20.480 338.610,20.480 339.350,20.480 340.090,20.480 340.090,22.673 340.090,24.867 340.090,27.060 335.637,27.063 331.183,27.067 326.730,27.070 Z M 323.000,21.480 C 323.577,21.480 324.153,21.480 324.730,21.480 324.730,23.343 324.730,25.207 324.730,27.070 324.153,27.070 323.577,27.070 323.000,27.070 323.000,25.207 323.000,23.343 323.000,21.480 Z M 285.210,73.930 C 285.210,74.517 285.210,75.103 285.210,75.690 284.180,75.997 283.150,76.303 282.120,76.610 281.835,75.239 280.563,74.303 279.170,74.440 277.843,74.459 276.680,75.332 276.290,76.600 275.393,76.207 274.497,75.813 273.600,75.420 273.933,67.280 274.267,59.140 274.600,51.000 276.267,49.387 277.933,47.773 279.600,46.160 280.973,46.067 282.347,45.973 283.720,45.880 283.193,54.013 282.667,62.147 282.140,70.280 283.163,71.497 284.187,72.713 285.210,73.930 Z M 280.080,79.730 C 280.080,78.897 280.080,78.063 280.080,77.230 279.413,77.230 278.747,77.230 278.080,77.230 278.080,78.043 278.080,78.857 278.080,79.670 277.447,79.265 277.069,78.561 277.080,77.810 277.080,77.750 277.080,77.690 277.080,77.630 277.080,77.630 277.080,77.630 277.080,77.630 277.380,75.490 278.950,75.400 279.180,75.440 279.639,75.368 280.108,75.482 280.483,75.755 280.858,76.029 281.109,76.441 281.180,76.900 281.180,76.900 281.180,76.900 281.180,76.900 281.180,77.160 281.180,77.420 281.180,77.680 281.180,77.723 281.180,77.767 281.180,77.810 281.192,78.603 280.770,79.339 280.080,79.730 280.080,79.730 280.080,79.730 280.080,79.730 Z M 366.500,16.230 C 364.693,16.230 362.887,16.230 361.080,16.230 361.080,14.640 361.080,13.050 361.080,11.460 357.247,11.460 353.413,11.460 349.580,11.460 349.580,11.177 349.580,10.893 349.580,10.610 345.720,10.610 341.860,10.610 338.000,10.610 334.470,10.277 330.940,9.943 327.410,9.610 323.330,9.610 319.250,9.610 315.170,9.610 315.170,13.567 315.170,17.523 315.170,21.480 317.113,21.480 319.057,21.480 321.000,21.480 321.000,23.343 321.000,25.207 321.000,27.070 309.667,27.070 298.333,27.070 287.000,27.070 287.000,26.627 287.000,26.183 287.000,25.740 283.183,25.740 279.367,25.740 275.550,25.740 275.550,26.270 275.550,26.800 275.550,27.330 274.993,27.247 274.437,27.163 273.880,27.080 267.760,27.080 261.640,27.080 255.520,27.080 253.043,26.747 250.567,26.413 248.090,26.080 239.893,26.080 231.697,26.080 223.500,26.080 218.000,22.610 209.000,22.210 208.640,22.190 204.655,21.999 200.683,22.771 197.060,24.440 194.673,24.440 192.287,24.440 189.900,24.440 189.900,25.107 189.900,25.773 189.900,26.440 191.060,26.440 192.220,26.440 193.380,26.440 192.417,27.054 191.488,27.722 190.600,28.440 189.510,28.440 188.420,28.440 187.330,28.440 187.330,27.733 187.330,27.027 187.330,26.320 185.237,26.320 183.143,26.320 181.050,26.320 180.367,25.487 179.683,24.653 179.000,23.820 179.000,21.657 179.000,19.493 179.000,17.330 179.933,17.330 180.867,17.330 181.800,17.330 181.800,18.853 181.800,20.377 181.800,21.900 186.243,21.900 190.687,21.900 195.130,21.900 195.130,21.310 195.130,20.720 195.130,20.130 196.937,20.130 198.743,20.130 200.550,20.130 200.550,17.797 200.550,15.463 200.550,13.130 198.743,13.130 196.937,13.130 195.130,13.130 195.130,11.527 195.130,9.923 195.130,8.320 191.297,8.320 187.463,8.320 183.630,8.320 183.630,8.033 183.630,7.747 183.630,7.460 179.773,7.460 175.917,7.460 172.060,7.460 168.530,7.127 165.000,6.793 161.470,6.460 157.387,6.460 153.303,6.460 149.220,6.460 149.220,10.417 149.220,14.373 149.220,18.330 150.887,18.330 152.553,18.330 154.220,18.330 154.220,20.033 154.220,21.737 154.220,23.440 152.413,23.440 150.607,23.440 148.800,23.440 143.640,17.440 138.070,18.980 137.320,19.220 134.200,19.890 131.680,23.850 131.080,24.850 116.920,34.000 97.210,34.220 94.250,34.200 91.390,31.530 89.180,32.200 88.520,32.490 68.013,36.693 47.507,40.897 27.000,45.100 26.967,45.330 26.933,45.560 26.900,45.790 24.040,65.060 26.620,91.640 26.640,91.910 26.683,92.353 26.727,92.797 26.770,93.240 30.837,91.603 34.903,89.967 38.970,88.330 39.717,89.520 40.463,90.710 41.210,91.900 42.327,91.900 43.443,91.900 44.560,91.900 45.077,91.090 45.593,90.280 46.110,89.470 47.503,89.073 48.897,88.677 50.290,88.280 50.107,87.640 49.923,87.000 49.740,86.360 48.427,86.737 47.113,87.113 45.800,87.490 45.650,86.920 45.500,86.350 45.350,85.780 70.150,75.800 94.950,65.820 119.750,55.840 120.554,55.669 121.392,55.835 122.070,56.300 123.149,57.261 123.857,58.570 124.070,60.000 120.410,68.310 119.750,74.740 122.140,79.180 125.030,84.530 131.140,84.810 131.480,84.820 136.423,84.820 141.367,84.820 146.310,84.820 146.310,85.237 146.310,85.653 146.310,86.070 151.477,86.070 156.643,86.070 161.810,86.070 161.810,84.320 161.810,82.570 161.810,80.820 163.000,80.820 164.190,80.820 165.380,80.820 165.410,80.520 165.440,80.220 165.470,79.920 166.690,67.360 169.540,60.010 169.570,59.920 169.570,59.887 169.570,59.853 169.570,59.820 170.170,57.640 171.070,56.370 172.230,56.030 173.800,55.570 175.770,56.910 176.440,57.510 178.658,60.163 181.829,61.840 185.270,62.180 192.180,62.180 199.090,62.180 206.000,62.180 217.400,61.580 223.280,48.180 224.340,45.470 232.227,45.470 240.113,45.470 248.000,45.470 250.500,45.137 253.000,44.803 255.500,44.470 261.573,44.470 267.647,44.470 273.720,44.470 274.327,44.380 274.933,44.290 275.540,44.200 275.540,44.733 275.540,45.267 275.540,45.800 276.027,45.800 276.513,45.800 277.000,45.800 275.527,47.240 274.053,48.680 272.580,50.120 272.247,58.980 271.913,67.840 271.580,76.700 272.750,77.210 273.920,77.720 275.090,78.230 275.257,79.927 276.448,81.349 278.090,81.810 278.090,82.750 278.090,83.690 278.090,84.630 278.757,84.630 279.423,84.630 280.090,84.630 280.090,83.697 280.090,82.763 280.090,81.830 281.733,81.415 282.957,80.040 283.180,78.360 284.513,77.960 285.847,77.560 287.180,77.160 287.180,75.827 287.180,74.493 287.180,73.160 286.147,71.960 285.113,70.760 284.080,69.560 284.593,61.630 285.107,53.700 285.620,45.770 286.080,45.770 286.540,45.770 287.000,45.770 287.000,45.340 287.000,44.910 287.000,44.480 307.280,44.480 327.560,44.480 347.840,44.480 347.840,42.147 347.840,39.813 347.840,37.480 350.367,37.480 352.893,37.480 355.420,37.480 355.420,36.260 355.420,35.040 355.420,33.820 352.893,33.820 350.367,33.820 347.840,33.820 347.840,31.570 347.840,29.320 347.840,27.070 347.173,27.070 346.507,27.070 345.840,27.070 345.840,24.873 345.840,22.677 345.840,20.480 346.467,20.480 347.093,20.480 347.720,20.480 347.720,21.987 347.720,23.493 347.720,25.000 352.163,25.000 356.607,25.000 361.050,25.000 361.050,24.427 361.050,23.853 361.050,23.280 362.857,23.280 364.663,23.280 366.470,23.280 366.480,20.930 366.490,18.580 366.500,16.230 Z " />
  <path stroke="none" fill="#ffffffff" d="M 211.705,53.710 C 211.732,54.775 210.891,55.662 209.826,55.690 208.760,55.717 207.874,54.876 207.846,53.811 207.818,52.745 208.659,51.859 209.725,51.831 210.790,51.803 211.677,52.644 211.705,53.710 211.705,53.710 211.705,53.710 211.705,53.710 Z " />
  <path stroke="none" fill="#ffffffff" d="M 337.000,15.000 C 337.000,15.000 337.000,15.000 337.000,15.000 336.133,14.840 335.267,14.680 334.400,14.520 333.757,14.287 333.036,14.489 332.608,15.023 332.179,15.557 332.138,16.304 332.504,16.882 332.871,17.460 333.565,17.740 334.230,17.580 335.063,17.470 335.897,17.360 336.730,17.250 337.365,17.250 337.880,16.735 337.880,16.100 337.879,15.573 337.514,15.117 337.000,15.000 337.000,15.000 337.000,15.000 337.000,15.000 Z " />
  <path stroke="none" fill="#ffffffff" d="M 168.070,14.360 C 168.196,14.375 168.324,14.375 168.450,14.360 169.283,14.250 170.117,14.140 170.950,14.030 171.585,14.030 172.100,13.515 172.100,12.880 172.095,12.357 171.730,11.906 171.220,11.790 171.220,11.790 171.220,11.790 171.220,11.790 170.350,11.630 169.480,11.470 168.610,11.310 168.011,11.100 167.344,11.264 166.911,11.729 166.478,12.193 166.360,12.870 166.612,13.453 166.863,14.036 167.435,14.416 168.070,14.420 168.070,14.400 168.070,14.380 168.070,14.360 Z " />
</svg>