<?xml version="1.0" encoding="UTF-8" standalone="no"?>
<!DOCTYPE svg PUBLIC "-//W3C//DTD SVG 20010904//EN" "http://www.w3.org/TR/2001/REC-SVG-20010904/DTD/svg10.dtd"[]>
<svg version="1.1" id="Frosty Editor v1.0.6.3" xmlns="http://www.w3.org/2000/svg" d1p1:xlink="http://www.w3.org/1999/xlink" viewBox="0 0 25 25" xmlns:d1p1="xmlns">
  <path stroke="none" fill="#ffffffff" d="M 3.000,4.850 C 2.725,5.025 3.709,5.713 3.821,6.125 4.295,6.872 5.265,6.994 5.470,7.965 5.618,8.797 6.480,9.172 7.028,9.763 8.073,10.919 9.262,11.925 10.501,12.867 10.962,13.697 11.823,13.916 12.547,14.446 12.941,14.987 14.006,15.297 13.680,16.156 13.239,17.219 11.984,17.092 11.038,17.135 9.717,17.183 8.337,17.158 7.117,16.588 6.726,16.764 5.535,16.353 6.363,16.901 8.258,18.469 10.155,20.033 12.051,21.600 12.452,20.779 12.846,19.664 14.039,19.756 15.268,19.676 16.491,19.859 17.714,19.946 18.693,19.955 19.200,21.070 20.165,21.073 20.620,20.749 22.261,21.387 21.594,20.417 21.575,19.667 21.873,18.917 21.038,18.425 20.041,17.800 19.914,16.665 19.846,15.658 19.611,14.555 19.176,13.298 19.781,12.241 20.178,11.810 21.484,11.491 20.469,10.896 18.606,9.269 16.758,7.606 14.900,5.965 14.950,6.911 15.478,7.625 15.751,8.512 16.106,9.302 16.055,10.183 16.239,11.021 16.324,11.795 16.510,12.657 16.147,13.381 15.358,14.317 14.444,13.293 13.793,12.808 13.275,12.202 12.876,11.504 12.135,11.140 11.022,10.200 9.998,9.147 8.741,8.389 7.891,7.872 7.318,6.837 6.234,6.844 5.294,6.820 5.154,5.787 4.325,5.561 3.907,5.356 3.213,4.980 3.000,4.850 Z " />
</svg>