<?xml version="1.0" encoding="UTF-8" standalone="no"?>
<!DOCTYPE svg PUBLIC "-//W3C//DTD SVG 20010904//EN" "http://www.w3.org/TR/2001/REC-SVG-20010904/DTD/svg10.dtd"[]>
<svg version="1.1" id="Frosty Editor v1.0.6.3" xmlns="http://www.w3.org/2000/svg" d1p1:xlink="http://www.w3.org/1999/xlink" viewBox="0 0 96 96" xmlns:d1p1="xmlns">
  <path stroke="none" fill="#ffffffff" d="M 55.540,80.810 C 53.015,81.600 50.385,82.001 47.740,82.000 47.677,82.000 47.613,82.000 47.550,82.000 32.620,82.000 19.870,69.880 20.550,55.000 20.654,51.821 21.367,48.691 22.650,45.780 24.155,41.914 26.518,38.441 29.560,35.620 30.380,34.820 31.170,34.100 31.730,33.620 31.940,33.423 32.150,33.227 32.360,33.030 32.343,33.060 32.327,33.090 32.310,33.120 32.383,33.057 32.457,32.993 32.530,32.930 32.530,32.930 31.850,34.170 31.300,35.000 31.223,35.110 31.147,35.220 31.070,35.330 30.329,36.799 29.929,38.415 29.900,40.060 30.041,41.159 30.689,42.129 31.650,42.680 34.100,43.680 38.200,42.200 41.400,38.900 42.578,37.621 43.586,36.196 44.400,34.660 44.834,33.781 45.185,32.864 45.450,31.920 45.973,30.049 46.367,28.145 46.630,26.220 46.716,21.360 45.610,16.554 43.410,12.220 42.905,11.703 42.317,11.273 41.670,10.950 45.241,11.971 48.559,13.729 51.410,16.110 51.690,16.500 51.960,16.890 52.220,17.270 55.460,20.480 58.900,26.660 58.820,30.780 58.690,37.220 57.910,39.290 55.440,43.620 49.770,53.540 55.870,56.960 60.260,56.190 65.970,55.190 69.720,46.620 66.480,37.460 65.555,34.577 64.207,31.847 62.480,29.360 62.480,29.360 67.370,32.360 68.770,34.710 70.170,37.060 75.280,42.710 75.280,54.980 75.200,67.130 66.750,77.420 55.540,80.810 55.540,80.810 55.540,80.810 55.540,80.810 Z " />
</svg>