<?xml version="1.0" encoding="UTF-8" standalone="no"?>
<!DOCTYPE svg PUBLIC "-//W3C//DTD SVG 20010904//EN" "http://www.w3.org/TR/2001/REC-SVG-20010904/DTD/svg10.dtd"[]>
<svg version="1.1" id="Frosty Editor v1.0.6.3" xmlns="http://www.w3.org/2000/svg" d1p1:xlink="http://www.w3.org/1999/xlink" viewBox="0 0 96 96" xmlns:d1p1="xmlns">
  <path stroke="none" fill="none" d="M 36.480,54.760 C 38.040,54.760 39.600,54.760 41.160,54.760 44.880,54.760 48.600,54.760 52.320,54.760 53.880,54.760 55.440,54.760 57.000,54.760 53.580,50.097 50.160,45.433 46.740,40.770 43.320,45.433 39.900,50.097 36.480,54.760 36.480,54.760 36.480,54.760 36.480,54.760 Z " />
  <path stroke="none" fill="#ffffffff" d="M 43.100,16.500 C 45.690,16.500 48.280,16.500 50.870,16.500 50.905,16.497 50.937,16.481 50.959,16.455 50.982,16.429 50.993,16.395 50.990,16.360 50.990,16.360 50.990,16.360 50.990,16.360 50.639,14.776 50.095,13.241 49.370,11.790 48.200,9.790 47.370,9.520 47.060,9.520 47.020,9.520 46.980,9.520 46.940,9.520 46.580,9.520 45.790,9.770 44.630,11.790 43.903,13.235 43.356,14.763 43.000,16.340 42.991,16.375 42.997,16.411 43.016,16.441 43.035,16.472 43.065,16.493 43.100,16.500 43.100,16.500 43.100,16.500 43.100,16.500 Z " />
  <path stroke="none" fill="#ffffffff" d="M 42.000,18.500 C 45.333,18.500 48.667,18.500 52.000,18.500 52.000,19.833 52.000,21.167 52.000,22.500 48.667,22.500 45.333,22.500 42.000,22.500 42.000,21.167 42.000,19.833 42.000,18.500 Z " />
  <path stroke="none" fill="#ffffffff" d="M 53.000,31.490 C 53.000,29.157 53.000,26.823 53.000,24.490 49.000,24.490 45.000,24.490 41.000,24.490 41.000,26.823 41.000,29.157 41.000,31.490 44.892,30.175 49.108,30.175 53.000,31.490 53.000,31.490 53.000,31.490 53.000,31.490 Z " />
  <path stroke="none" fill="#ffffffff" d="M 41.000,67.510 C 41.000,68.510 41.000,69.510 41.000,70.510 45.000,70.510 49.000,70.510 53.000,70.510 53.000,69.510 53.000,68.510 53.000,67.510 49.108,68.825 44.892,68.825 41.000,67.510 41.000,67.510 41.000,67.510 41.000,67.510 Z " />
  <path stroke="none" fill="#ffffffff" d="M 24.080,33.500 C 26.020,33.500 27.960,33.500 29.900,33.500 29.927,33.497 29.951,33.484 29.968,33.464 29.985,33.443 29.993,33.417 29.990,33.390 29.990,33.390 29.990,33.390 29.990,33.390 29.724,32.256 29.314,31.160 28.770,30.130 27.900,28.680 27.310,28.500 27.000,28.500 26.690,28.500 26.140,28.680 25.270,30.120 24.709,31.148 24.282,32.243 24.000,33.380 23.994,33.407 23.999,33.434 24.014,33.457 24.030,33.480 24.053,33.495 24.080,33.500 24.080,33.500 24.080,33.500 24.080,33.500 Z " />
  <path stroke="none" fill="#ffffffff" d="M 31.540,38.500 C 31.360,38.500 31.180,38.500 31.000,38.500 31.000,37.500 31.000,36.500 31.000,35.500 28.333,35.500 25.667,35.500 23.000,35.500 23.000,36.500 23.000,37.500 23.000,38.500 22.667,38.500 22.333,38.500 22.000,38.500 22.000,49.167 22.000,59.833 22.000,70.500 25.333,70.500 28.667,70.500 32.000,70.500 32.000,67.373 32.000,64.247 32.000,61.120 26.842,54.518 26.655,45.306 31.540,38.500 31.540,38.500 31.540,38.500 31.540,38.500 Z " />
  <path stroke="none" fill="#ffffffff" d="M 64.080,33.500 C 66.020,33.500 67.960,33.500 69.900,33.500 69.927,33.497 69.951,33.484 69.968,33.464 69.985,33.443 69.993,33.417 69.990,33.390 69.990,33.390 69.990,33.390 69.990,33.390 69.724,32.256 69.314,31.160 68.770,30.130 67.910,28.690 67.310,28.510 67.000,28.510 66.690,28.510 66.140,28.690 65.270,30.130 64.710,31.155 64.283,32.247 64.000,33.380 63.994,33.407 63.999,33.434 64.014,33.457 64.030,33.480 64.053,33.495 64.080,33.500 64.080,33.500 64.080,33.500 64.080,33.500 Z " />
  <path stroke="none" fill="#ffffffff" d="M 71.000,38.500 C 71.000,37.500 71.000,36.500 71.000,35.500 68.333,35.500 65.667,35.500 63.000,35.500 63.000,36.500 63.000,37.500 63.000,38.500 62.820,38.500 62.640,38.500 62.460,38.500 67.345,45.306 67.158,54.518 62.000,61.120 62.000,64.247 62.000,67.373 62.000,70.500 65.333,70.500 68.667,70.500 72.000,70.500 72.000,59.833 72.000,49.167 72.000,38.500 71.667,38.500 71.333,38.500 71.000,38.500 Z " />
  <path stroke="none" fill="#ffffffff" d="M 24.000,72.500 C 26.000,72.500 28.000,72.500 30.000,72.500 30.000,73.167 30.000,73.833 30.000,74.500 28.000,74.500 26.000,74.500 24.000,74.500 24.000,73.833 24.000,73.167 24.000,72.500 Z " />
  <path stroke="none" fill="#ffffffff" d="M 24.000,76.500 C 23.333,79.167 22.667,81.833 22.000,84.500 25.333,84.500 28.667,84.500 32.000,84.500 31.280,81.833 30.560,79.167 29.840,76.500 27.893,76.500 25.947,76.500 24.000,76.500 24.000,76.500 24.000,76.500 24.000,76.500 Z " />
  <path stroke="none" fill="#ffffffff" d="M 64.000,72.500 C 66.000,72.500 68.000,72.500 70.000,72.500 70.000,73.167 70.000,73.833 70.000,74.500 68.000,74.500 66.000,74.500 64.000,74.500 64.000,73.833 64.000,73.167 64.000,72.500 Z " />
  <path stroke="none" fill="#ffffffff" d="M 64.000,76.500 C 63.333,79.167 62.667,81.833 62.000,84.500 65.333,84.500 68.667,84.500 72.000,84.500 71.277,81.833 70.553,79.167 69.830,76.500 67.887,76.500 65.943,76.500 64.000,76.500 64.000,76.500 64.000,76.500 64.000,76.500 Z " />
  <path stroke="none" fill="#ffffffff" d="M 32.910,34.180 C 32.940,34.180 32.970,34.180 33.000,34.180 33.000,35.020 33.000,35.860 33.000,36.700 34.691,34.850 36.730,33.351 39.000,32.290 39.000,30.693 39.000,29.097 39.000,27.500 36.250,28.430 34.840,30.170 32.390,32.420 32.593,32.967 32.767,33.524 32.910,34.090 32.913,34.120 32.913,34.150 32.910,34.180 32.910,34.180 32.910,34.180 32.910,34.180 Z " />
  <path stroke="none" fill="#ffffffff" d="M 34.000,69.500 C 35.667,69.500 37.333,69.500 39.000,69.500 39.000,68.570 39.000,67.640 39.000,66.710 37.163,65.854 35.475,64.709 34.000,63.320 34.000,65.380 34.000,67.440 34.000,69.500 Z " />
  <path stroke="none" fill="#ffffffff" d="M 55.000,69.500 C 56.667,69.500 58.333,69.500 60.000,69.500 60.000,67.440 60.000,65.380 60.000,63.320 58.525,64.709 56.837,65.854 55.000,66.710 55.000,67.640 55.000,68.570 55.000,69.500 Z " />
  <path stroke="none" fill="#ffffffff" d="M 61.000,34.180 C 61.027,34.180 61.053,34.180 61.080,34.180 61.077,34.150 61.077,34.120 61.080,34.090 61.150,33.830 61.300,33.260 61.530,32.610 59.110,30.290 57.670,28.500 55.000,27.500 55.000,29.097 55.000,30.693 55.000,32.290 57.270,33.351 59.309,34.850 61.000,36.700 61.000,35.860 61.000,35.020 61.000,34.180 Z " />
  <path stroke="none" fill="#ffffffff" d="M 52.320,54.750 C 47.040,54.750 41.760,54.750 36.480,54.750 39.900,50.083 43.320,45.417 46.740,40.750 50.160,45.417 53.580,50.083 57.000,54.750 55.440,54.750 53.880,54.750 52.320,54.750 Z M 47.000,33.500 C 40.529,33.500 34.694,37.398 32.218,43.377 29.741,49.356 31.110,56.238 35.686,60.814 40.262,65.390 47.144,66.759 53.123,64.282 59.102,61.806 63.000,55.971 63.000,49.500 63.000,45.257 61.314,41.187 58.314,38.186 55.313,35.186 51.243,33.500 47.000,33.500 47.000,33.500 47.000,33.500 47.000,33.500 Z " />
</svg>