<?xml version="1.0" encoding="UTF-8" standalone="no"?>
<!DOCTYPE svg PUBLIC "-//W3C//DTD SVG 20010904//EN" "http://www.w3.org/TR/2001/REC-SVG-20010904/DTD/svg10.dtd"[]>
<svg version="1.1" id="Frosty Editor v1.0.6.3" xmlns="http://www.w3.org/2000/svg" d1p1:xlink="http://www.w3.org/1999/xlink" viewBox="0 0 101 25" xmlns:d1p1="xmlns">
  <path stroke="none" fill="#fbfbfbff" d="M 94.525,2.082 C 94.582,2.353 94.647,2.660 94.709,2.948 94.777,3.273 94.607,3.535 94.286,3.622 94.214,3.638 94.141,3.653 94.109,3.679 93.658,4.038 93.101,4.081 92.593,4.264 91.887,4.489 91.224,4.742 90.555,5.053 90.001,5.284 89.418,5.558 88.867,5.807 88.507,5.977 88.128,5.963 87.739,5.819 87.292,5.669 86.872,5.645 86.421,5.740 81.731,6.734 77.040,7.727 72.368,8.717 72.097,8.774 71.922,8.924 71.845,9.186 71.582,9.901 71.275,10.588 70.757,11.169 70.682,11.260 70.683,11.354 70.702,11.445 70.775,11.787 70.604,12.050 70.261,12.122 70.117,12.153 70.038,12.226 69.993,12.368 69.784,13.072 69.589,13.754 69.318,14.433 69.136,14.906 68.847,15.325 68.395,15.590 68.039,15.779 67.650,15.635 67.566,15.238 67.543,15.130 67.512,14.985 67.486,14.859 67.414,14.610 67.466,14.411 67.605,14.174 67.935,13.689 67.673,13.161 67.129,13.087 66.858,13.051 66.660,13.187 66.532,13.383 66.386,13.584 66.364,13.834 66.507,14.067 66.537,14.118 66.585,14.164 66.610,14.196 67.087,14.491 67.100,14.997 67.196,15.448 67.261,15.755 66.996,16.018 66.700,16.043 66.479,16.071 66.272,15.983 66.073,15.931 65.684,15.787 65.332,15.994 65.228,16.393 65.184,16.628 65.183,16.892 65.197,17.135 65.190,17.457 65.069,17.689 64.843,17.869 64.392,18.229 64.183,18.669 64.345,19.257 64.417,19.505 64.300,19.756 64.176,19.971 64.134,20.037 64.123,20.076 64.099,20.138 63.974,20.353 63.734,20.555 63.792,20.825 63.858,21.226 64.006,21.571 64.299,21.886 64.698,22.254 64.801,22.742 64.706,23.271 64.627,23.702 64.250,23.970 63.744,23.983 62.992,23.992 62.282,24.199 61.568,24.388 61.067,24.513 60.599,24.706 60.091,24.889 59.514,25.105 59.161,24.860 59.017,24.268 58.944,23.925 58.933,23.607 59.132,23.301 59.338,22.937 59.232,22.526 59.166,22.125 59.151,22.053 59.089,22.029 59.041,21.982 58.690,21.567 58.406,21.118 58.512,20.549 58.628,19.940 58.614,19.339 58.716,18.752 58.817,18.165 59.014,17.671 59.327,17.190 59.705,16.658 60.060,16.111 60.412,15.547 60.617,15.183 60.867,14.847 61.029,14.455 61.141,14.186 61.142,13.922 61.023,13.627 60.652,12.763 59.925,12.445 59.070,12.325 58.798,12.288 58.490,12.259 58.201,12.226 57.835,12.191 57.540,12.046 57.356,11.708 57.315,11.603 57.217,11.586 57.108,11.609 56.766,11.682 56.441,11.751 56.080,11.827 55.683,11.911 55.291,11.749 55.088,11.415 55.047,11.311 54.982,11.268 54.870,11.273 54.551,11.284 54.347,11.120 54.282,10.813 54.259,10.705 54.236,10.596 54.213,10.488 54.141,10.145 54.243,9.916 54.574,9.790 54.661,9.753 54.707,9.705 54.706,9.611 54.783,9.086 55.001,8.870 55.525,8.759 56.012,8.656 56.481,8.557 56.968,8.453 57.275,8.388 57.564,8.421 57.863,8.320 58.187,8.157 58.547,7.987 58.837,7.756 58.998,7.627 59.127,7.525 59.344,7.479 59.817,7.398 60.312,7.330 60.763,7.235 61.015,7.181 61.209,7.385 61.427,7.434 61.626,7.486 61.771,7.455 61.914,7.330 62.071,7.184 62.291,7.062 62.525,7.012 63.175,6.875 63.824,6.737 64.474,6.600 64.636,6.565 64.740,6.524 64.836,6.353 64.946,6.160 65.097,6.072 65.295,6.030 66.053,5.869 66.811,5.709 67.568,5.549 67.731,5.514 67.897,5.498 68.014,5.605 68.145,5.690 68.279,5.700 68.441,5.665 74.269,4.431 80.114,3.193 85.941,1.959 86.248,1.894 86.495,1.728 86.699,1.534 87.111,1.164 87.547,0.997 88.129,0.987 89.341,1.013 90.581,0.995 91.821,0.883 92.229,0.853 92.636,0.729 93.067,0.714 93.349,0.711 93.610,0.787 93.906,0.762 94.145,0.730 94.342,0.952 94.392,1.187 94.403,1.505 94.464,1.794 94.525,2.082 Z M 71.299,9.188 C 71.245,9.200 71.223,9.185 71.223,9.185 69.220,9.610 67.218,10.034 65.215,10.458 65.107,10.481 65.050,10.568 65.015,10.670 64.906,10.957 64.728,11.183 64.506,11.381 63.994,11.810 63.403,12.048 62.755,12.016 62.017,12.002 61.349,11.786 60.969,11.056 60.928,10.951 60.830,10.934 60.722,10.957 59.840,11.068 58.944,11.107 58.085,11.327 57.941,11.358 57.727,11.327 57.730,11.515 57.757,11.736 57.963,11.730 58.123,11.771 58.141,11.768 58.141,11.768 58.141,11.768 58.481,11.771 58.811,11.814 59.126,11.879 60.101,12.031 60.923,12.441 61.339,13.428 61.521,13.842 61.587,14.242 61.357,14.668 61.161,14.992 60.992,15.349 60.800,15.691 60.416,16.281 60.021,16.817 59.637,17.407 59.385,17.819 59.198,18.273 59.096,18.766 58.979,19.375 58.961,20.001 58.881,20.602 58.847,20.798 58.877,20.848 59.093,20.802 60.537,20.497 61.944,20.199 63.387,19.893 63.766,19.813 63.908,19.594 63.828,19.215 63.797,19.071 63.770,18.945 63.790,18.771 63.843,18.307 64.045,17.925 64.400,17.643 64.640,17.441 64.724,17.216 64.695,16.902 64.663,16.305 64.856,15.793 65.409,15.469 65.758,15.244 65.812,14.968 65.664,14.623 65.432,13.975 65.550,13.554 66.099,13.117 66.149,13.088 66.178,13.044 66.228,13.014 66.489,12.733 66.806,12.628 67.168,12.646 67.280,12.641 67.388,12.618 67.492,12.577 67.910,12.413 68.342,12.227 68.756,12.045 69.785,11.564 70.634,10.856 71.085,9.780 71.173,9.573 71.269,9.402 71.299,9.188 Z M 68.652,6.035 C 68.653,6.129 68.729,6.132 68.755,6.164 69.699,6.888 70.680,7.604 71.643,8.324 71.753,8.395 71.847,8.394 71.937,8.374 76.862,7.331 81.751,6.296 86.676,5.253 86.839,5.218 86.899,5.149 86.865,4.987 86.693,4.175 86.503,3.367 86.349,2.551 86.303,2.335 86.224,2.314 86.025,2.356 80.324,3.563 74.587,4.778 68.886,5.986 68.796,6.005 68.724,6.020 68.652,6.035 Z M 71.290,8.700 C 71.260,8.650 71.256,8.632 71.256,8.632 70.111,7.762 68.951,6.914 67.806,6.045 67.696,5.974 67.620,5.971 67.512,5.994 66.863,6.132 66.213,6.269 65.564,6.407 65.401,6.441 65.304,6.518 65.201,6.653 64.463,7.884 63.739,9.093 62.982,10.328 62.976,10.386 62.907,10.419 62.933,10.451 65.679,9.888 68.493,9.292 71.290,8.700 Z M 88.854,5.300 C 89.182,5.156 89.527,5.007 89.837,4.866 90.942,4.387 92.029,3.912 93.215,3.642 93.360,3.611 93.475,3.530 93.611,3.464 93.716,3.423 93.755,3.339 93.724,3.195 93.617,2.690 93.514,2.202 93.403,1.679 93.292,1.156 93.209,1.117 92.692,1.170 92.638,1.182 92.620,1.185 92.584,1.193 92.021,1.293 91.486,1.350 90.926,1.374 90.025,1.396 89.143,1.413 88.239,1.416 88.047,1.400 88.022,1.462 88.057,1.624 88.240,2.490 88.420,3.338 88.603,4.204 88.701,4.579 88.774,4.922 88.854,5.300 Z M 61.421,9.188 C 61.375,8.971 61.351,8.769 61.288,8.556 61.212,8.290 61.274,7.956 60.931,7.765 60.764,7.687 60.717,7.641 60.607,7.834 60.539,7.961 60.403,8.028 60.332,7.873 60.229,7.744 60.157,7.759 60.049,7.782 59.959,7.801 59.833,7.828 59.845,7.976 59.846,8.070 59.774,8.085 59.702,8.101 59.630,8.116 59.590,8.105 59.538,8.041 59.497,7.936 59.418,7.916 59.291,7.942 59.201,7.962 59.111,7.981 59.105,8.133 59.121,8.205 59.052,8.238 58.980,8.253 58.822,8.306 58.685,8.372 58.523,8.407 58.360,8.441 58.321,8.525 58.352,8.669 58.501,9.373 58.646,10.058 58.795,10.762 58.818,10.870 58.880,10.895 58.974,10.894 59.801,10.794 60.632,10.712 61.463,10.630 61.611,10.618 61.603,10.582 61.577,10.456 61.589,9.982 61.505,9.585 61.421,9.188 Z M 59.356,24.178 C 59.428,24.520 59.545,24.628 59.772,24.542 60.258,24.345 60.766,24.162 61.267,24.037 62.068,23.811 62.872,23.603 63.696,23.579 63.862,23.562 64.032,23.564 64.106,23.379 64.219,23.110 64.238,22.842 64.108,22.587 64.071,22.500 64.013,22.494 63.923,22.513 63.594,22.564 63.258,22.578 62.926,22.611 61.643,22.694 60.471,23.037 59.472,23.927 59.382,23.946 59.303,24.019 59.356,24.178 Z M 88.211,3.420 C 88.077,2.788 87.951,2.193 87.817,1.562 87.787,1.417 87.765,1.403 87.603,1.437 87.264,1.528 87.017,1.788 86.781,2.007 86.702,2.081 86.695,2.138 86.718,2.247 86.921,3.203 87.116,4.123 87.318,5.079 87.337,5.169 87.371,5.238 87.472,5.273 87.777,5.378 88.104,5.497 88.455,5.461 88.621,5.444 88.631,5.404 88.601,5.260 88.471,4.647 88.345,4.051 88.211,3.420 Z M 63.495,20.134 C 61.961,20.459 60.428,20.784 58.930,21.101 59.040,21.530 59.389,21.664 59.752,21.775 60.920,22.131 61.931,21.917 62.855,21.118 63.159,20.865 63.307,20.494 63.495,20.134 Z M 57.455,9.952 C 57.386,9.628 57.321,9.321 57.253,8.996 57.230,8.888 57.164,8.845 57.056,8.868 56.515,8.983 56.009,9.090 55.486,9.201 55.216,9.258 55.091,9.473 55.153,9.761 55.240,10.176 55.336,10.627 55.424,11.042 55.481,11.313 55.686,11.477 55.956,11.420 56.461,11.313 57.003,11.198 57.508,11.091 57.652,11.061 57.659,11.003 57.632,10.876 57.589,10.584 57.524,10.277 57.455,9.952 Z M 63.270,21.030 C 62.201,22.124 60.963,22.423 59.548,21.969 59.561,22.475 59.747,23.001 59.482,23.529 60.714,22.401 62.286,22.350 63.876,22.202 63.543,21.877 63.383,21.477 63.270,21.030 Z M 67.647,12.770 C 67.738,12.845 67.789,12.910 67.859,12.971 68.221,13.346 68.347,13.942 68.041,14.365 67.838,14.653 67.924,14.879 67.977,15.132 68.008,15.276 68.087,15.297 68.180,15.202 68.493,14.985 68.732,14.690 68.843,14.327 69.103,13.593 69.322,12.849 69.563,12.119 69.598,12.018 69.619,11.938 69.524,11.845 68.957,12.191 68.320,12.477 67.647,12.770 Z M 62.224,10.488 C 62.242,10.484 62.246,10.502 62.282,10.495 62.982,9.347 63.667,8.222 64.373,7.017 63.778,7.143 63.237,7.258 62.696,7.372 62.605,7.391 62.599,7.449 62.574,7.511 62.488,8.528 62.358,9.517 62.224,10.488 Z M 63.274,11.529 C 63.599,11.460 64.102,11.165 64.381,10.880 64.442,10.810 64.542,10.751 64.487,10.669 64.450,10.582 64.331,10.645 64.237,10.646 63.504,10.745 62.795,11.046 62.024,10.964 61.966,10.958 61.915,10.987 61.861,10.999 61.789,11.014 61.669,10.983 61.642,11.120 61.607,11.222 61.731,11.271 61.800,11.332 62.280,11.551 62.747,11.621 63.274,11.529 Z M 57.776,9.866 C 57.841,10.172 57.902,10.461 57.967,10.768 57.998,10.912 58.031,10.980 58.186,10.910 58.258,10.895 58.294,10.887 58.366,10.872 58.532,10.855 58.571,10.772 58.537,10.609 58.430,10.104 58.319,9.581 58.208,9.058 58.128,8.679 58.128,8.679 57.749,8.759 57.605,8.790 57.580,8.852 57.607,8.978 57.654,9.288 57.715,9.577 57.776,9.866 Z M 65.899,13.687 C 65.810,13.800 65.775,13.902 65.788,14.050 65.815,14.270 65.854,14.451 65.932,14.642 66.035,14.865 66.038,15.053 65.888,15.235 65.831,15.323 65.820,15.363 65.926,15.416 66.129,15.486 66.354,15.570 66.572,15.618 66.648,15.621 66.720,15.606 66.705,15.533 66.651,15.281 66.695,14.951 66.490,14.787 66.143,14.484 65.926,14.171 65.899,13.687 Z M 93.785,2.239 C 93.843,2.510 93.908,2.816 93.969,3.105 93.984,3.177 94.003,3.267 94.108,3.226 94.198,3.207 94.288,3.188 94.294,3.036 94.278,2.964 94.259,2.874 94.244,2.802 94.141,2.315 94.041,1.846 93.938,1.358 93.908,1.214 93.828,1.193 93.684,1.224 93.539,1.255 93.594,1.337 93.610,1.409 93.667,1.680 93.724,1.950 93.785,2.239 Z M 61.845,9.588 C 61.863,9.584 61.863,9.584 61.899,9.577 61.961,8.979 62.049,8.414 62.111,7.816 61.931,7.855 61.786,7.885 61.642,7.916 61.570,7.931 61.498,7.946 61.521,8.055 61.628,8.560 61.735,9.065 61.845,9.588 Z M 55.041,10.482 C 55.030,10.428 55.026,10.410 55.018,10.374 54.996,10.266 55.019,10.110 54.806,10.174 54.644,10.208 54.565,10.282 54.622,10.458 54.637,10.530 54.644,10.567 54.660,10.639 54.676,10.805 54.760,10.844 54.926,10.827 55.200,10.788 55.050,10.613 55.041,10.482 Z M 70.015,11.760 C 70.119,11.719 70.279,11.760 70.237,11.562 70.222,11.490 70.152,11.429 70.106,11.477 70.009,11.554 69.811,11.596 69.819,11.726 69.824,11.838 69.949,11.717 70.015,11.760 Z " />
  <path stroke="none" fill="#fbfbfbff" d="M 64.591,14.096 C 64.638,14.407 64.691,14.659 64.709,14.919 64.725,15.086 64.683,15.245 64.540,15.370 64.322,15.586 64.126,15.816 63.955,16.078 63.827,16.275 63.765,16.514 63.811,16.731 63.842,16.969 63.804,17.147 63.607,17.283 63.230,17.551 63.102,18.012 62.944,18.422 62.616,19.189 62.228,19.139 61.493,19.050 61.319,19.030 61.227,18.861 61.178,18.721 61.004,18.343 60.928,17.982 61.100,17.550 61.438,16.743 61.780,15.954 62.144,15.180 62.303,14.863 62.524,14.572 62.814,14.341 63.054,14.139 63.316,13.951 63.560,13.768 63.721,13.639 63.938,13.594 64.122,13.573 64.306,13.553 64.431,13.697 64.501,13.851 64.578,13.948 64.579,14.042 64.591,14.096 Z M 64.191,14.256 C 64.157,14.094 64.116,13.989 63.929,14.086 63.462,14.373 62.945,14.690 62.658,15.203 62.169,16.098 61.781,17.029 61.438,17.987 61.343,18.252 61.571,18.619 61.821,18.641 62.267,18.698 62.277,18.658 62.493,18.254 62.720,17.810 62.880,17.324 63.242,16.983 63.321,16.910 63.316,16.798 63.333,16.700 63.330,16.418 63.362,16.128 63.559,15.898 63.744,15.614 63.936,15.366 64.154,15.150 64.229,15.059 64.286,14.971 64.263,14.863 64.214,14.628 64.157,14.452 64.191,14.256 Z " />
  <path stroke="none" fill="#fbfbfbff" d="M 82.549,5.166 C 81.629,5.361 80.708,5.555 79.788,5.750 79.734,5.762 79.698,5.769 79.644,5.781 79.301,5.853 78.999,5.672 78.942,5.402 78.884,5.131 79.087,4.843 79.430,4.771 80.549,4.534 81.631,4.304 82.750,4.067 83.543,3.899 84.301,3.739 85.095,3.571 85.149,3.559 85.185,3.552 85.239,3.540 85.582,3.468 85.884,3.649 85.942,3.919 85.999,4.190 85.796,4.478 85.453,4.550 84.479,4.757 83.505,4.963 82.549,5.166 Z M 82.485,4.953 C 83.441,4.750 84.361,4.556 85.317,4.353 85.624,4.288 85.767,4.164 85.733,4.001 85.694,3.821 85.505,3.729 85.199,3.794 83.322,4.191 81.464,4.585 79.588,4.982 79.516,4.997 79.480,5.005 79.408,5.020 79.249,5.073 79.156,5.168 79.194,5.348 79.229,5.511 79.388,5.552 79.518,5.544 79.594,5.546 79.663,5.513 79.735,5.498 80.645,5.343 81.547,5.152 82.485,4.953 Z " />
  <path stroke="none" fill="#fbfbfbff" d="M 74.520,6.866 C 73.600,7.061 72.680,7.256 71.760,7.451 71.706,7.462 71.670,7.470 71.616,7.481 71.273,7.554 70.971,7.373 70.914,7.102 70.856,6.831 71.059,6.543 71.402,6.471 72.196,6.303 72.953,6.142 73.747,5.974 74.866,5.737 75.948,5.508 77.067,5.271 77.121,5.260 77.157,5.252 77.211,5.240 77.554,5.168 77.856,5.349 77.913,5.620 77.971,5.890 77.768,6.178 77.425,6.251 76.451,6.457 75.495,6.660 74.520,6.866 Z M 74.457,6.653 C 75.413,6.451 76.333,6.256 77.289,6.053 77.614,5.985 77.739,5.864 77.701,5.683 77.662,5.503 77.481,5.447 77.174,5.512 75.298,5.910 73.440,6.303 71.564,6.700 71.491,6.716 71.455,6.723 71.383,6.739 71.225,6.791 71.136,6.904 71.170,7.067 71.204,7.229 71.364,7.271 71.494,7.262 71.570,7.265 71.638,7.231 71.710,7.216 72.616,7.043 73.518,6.852 74.457,6.653 Z " />
  <path stroke="none" fill="#fbfbfbff" d="M 67.033,8.452 C 66.600,8.543 66.149,8.639 65.716,8.731 65.247,8.830 64.907,8.468 65.055,8.098 65.125,7.895 65.268,7.770 65.484,7.724 66.387,7.533 67.271,7.346 68.173,7.155 68.479,7.090 68.782,7.271 68.839,7.541 68.896,7.812 68.711,8.096 68.387,8.165 67.936,8.261 67.466,8.360 67.033,8.452 Z M 66.952,8.243 C 66.952,8.243 66.952,8.243 66.952,8.243 67.421,8.143 67.854,8.052 68.323,7.952 68.485,7.918 68.632,7.811 68.594,7.631 68.548,7.415 68.392,7.391 68.212,7.429 68.158,7.441 68.104,7.452 68.049,7.464 67.382,7.605 66.732,7.743 66.047,7.888 65.867,7.926 65.668,7.968 65.488,8.006 65.329,8.059 65.200,8.161 65.238,8.342 65.277,8.522 65.436,8.564 65.598,8.529 65.653,8.518 65.707,8.506 65.761,8.495 66.176,8.407 66.573,8.323 66.952,8.243 Z " />
  <path stroke="none" fill="#fbfbfbff" d="M 90.741,3.261 C 90.993,3.207 91.286,3.164 91.535,3.093 91.711,3.037 91.875,3.096 92.002,3.163 92.187,3.237 92.102,3.369 92.001,3.428 91.476,3.708 90.992,4.000 90.396,4.126 90.162,4.175 89.898,4.175 89.683,4.051 89.573,3.979 89.464,3.908 89.502,3.731 89.544,3.571 89.600,3.484 89.781,3.445 90.135,3.427 90.452,3.322 90.741,3.261 90.741,3.261 90.741,3.261 90.741,3.261 Z M 91.848,3.328 C 91.753,3.235 91.663,3.254 91.573,3.273 91.302,3.331 91.032,3.388 90.761,3.445 90.454,3.510 90.184,3.567 89.877,3.632 89.787,3.652 89.700,3.689 89.683,3.786 89.666,3.884 89.786,3.916 89.862,3.918 90.022,3.960 90.156,3.969 90.318,3.935 90.907,3.867 91.374,3.579 91.848,3.328 Z " />
  <path stroke="none" fill="#fbfbfbff" d="M 90.558,2.489 C 90.252,2.554 89.927,2.623 89.638,2.684 89.476,2.718 89.389,2.661 89.294,2.568 89.191,2.439 89.226,2.338 89.315,2.225 89.443,2.028 89.666,1.924 89.861,1.864 90.444,1.684 91.086,1.774 91.697,1.814 91.809,1.809 91.908,1.920 91.805,2.055 91.684,2.194 91.591,2.289 91.406,2.309 91.110,2.334 90.847,2.428 90.558,2.489 90.558,2.489 90.558,2.489 90.558,2.489 Z M 91.562,1.975 C 91.134,1.915 90.754,1.901 90.314,1.956 90.050,1.956 89.761,2.017 89.539,2.215 89.460,2.288 89.342,2.351 89.405,2.470 89.442,2.556 89.568,2.529 89.658,2.510 90.217,2.392 90.777,2.273 91.336,2.155 91.455,2.092 91.552,2.109 91.562,1.975 Z " />
  <path stroke="none" fill="#fbfbfbff" d="M 56.231,9.514 C 55.979,9.568 55.726,9.621 55.474,9.675 55.401,9.690 55.333,9.723 55.310,9.615 55.291,9.525 55.367,9.528 55.439,9.512 55.944,9.405 56.467,9.295 56.991,9.184 57.063,9.168 57.095,9.143 57.154,9.243 57.173,9.334 57.101,9.349 57.065,9.356 56.736,9.407 56.484,9.461 56.231,9.514 Z " />
  <path stroke="none" fill="#fbfbfbff" d="M 56.463,10.521 C 56.211,10.574 55.976,10.624 55.724,10.677 55.651,10.693 55.583,10.726 55.560,10.618 55.541,10.527 55.617,10.530 55.689,10.515 56.194,10.408 56.736,10.293 57.241,10.186 57.295,10.175 57.345,10.145 57.400,10.228 57.423,10.336 57.347,10.333 57.275,10.349 56.986,10.410 56.716,10.467 56.463,10.521 Z " />
  <path stroke="none" fill="#fbfbfbff" d="M 56.520,11.055 C 56.267,11.109 56.033,11.158 55.780,11.212 55.708,11.227 55.640,11.261 55.617,11.152 55.598,11.062 55.674,11.065 55.746,11.050 56.251,10.943 56.774,10.832 57.297,10.721 57.351,10.710 57.438,10.672 57.457,10.763 57.480,10.871 57.404,10.868 57.332,10.883 57.061,10.941 56.772,11.002 56.520,11.055 Z " />
  <path stroke="none" fill="#fbfbfbff" d="M 56.374,10.012 C 56.122,10.065 55.869,10.119 55.617,10.172 55.544,10.187 55.476,10.221 55.453,10.113 55.434,10.022 55.510,10.025 55.582,10.010 56.087,9.903 56.629,9.788 57.134,9.681 57.188,9.670 57.238,9.640 57.293,9.723 57.316,9.831 57.240,9.828 57.168,9.844 56.879,9.905 56.627,9.958 56.374,10.012 Z " />
  <path stroke="none" fill="#fbfbfbff" d="M 7.276,2.082 C 7.218,2.353 7.153,2.660 7.092,2.948 7.024,3.273 7.194,3.535 7.515,3.622 7.587,3.638 7.659,3.653 7.692,3.679 8.143,4.038 8.700,4.081 9.208,4.264 9.914,4.489 10.577,4.742 11.246,5.053 11.800,5.284 12.383,5.558 12.934,5.807 13.293,5.977 13.673,5.963 14.062,5.819 14.509,5.669 14.928,5.645 15.379,5.740 20.070,6.734 24.761,7.727 29.433,8.717 29.704,8.774 29.879,8.924 29.956,9.186 30.219,9.901 30.526,10.588 31.044,11.169 31.119,11.260 31.118,11.354 31.099,11.445 31.026,11.787 31.197,12.050 31.539,12.122 31.684,12.153 31.763,12.226 31.808,12.368 32.017,13.072 32.212,13.754 32.483,14.433 32.665,14.906 32.954,15.325 33.406,15.590 33.762,15.779 34.151,15.635 34.235,15.238 34.258,15.130 34.288,14.985 34.315,14.859 34.387,14.610 34.335,14.411 34.196,14.174 33.865,13.689 34.128,13.161 34.672,13.087 34.943,13.051 35.141,13.187 35.269,13.383 35.415,13.584 35.437,13.834 35.293,14.067 35.264,14.118 35.216,14.164 35.191,14.196 34.714,14.491 34.701,14.997 34.605,15.448 34.540,15.755 34.805,16.018 35.101,16.043 35.321,16.071 35.529,15.983 35.728,15.931 36.117,15.787 36.469,15.994 36.573,16.393 36.617,16.628 36.618,16.892 36.604,17.135 36.611,17.457 36.732,17.689 36.958,17.869 37.409,18.229 37.618,18.669 37.455,19.257 37.384,19.505 37.500,19.756 37.625,19.971 37.667,20.037 37.678,20.076 37.702,20.138 37.826,20.353 38.066,20.555 38.009,20.825 37.943,21.226 37.795,21.571 37.502,21.886 37.103,22.254 37.000,22.742 37.095,23.271 37.174,23.702 37.550,23.970 38.057,23.983 38.809,23.992 39.519,24.199 40.233,24.388 40.734,24.513 41.202,24.706 41.710,24.889 42.286,25.105 42.640,24.860 42.784,24.268 42.857,23.925 42.868,23.607 42.669,23.301 42.463,22.937 42.569,22.526 42.635,22.125 42.650,22.053 42.712,22.029 42.759,21.982 43.111,21.567 43.395,21.118 43.289,20.549 43.173,19.940 43.187,19.339 43.085,18.752 42.983,18.165 42.786,17.671 42.474,17.190 42.096,16.658 41.741,16.111 41.389,15.547 41.183,15.183 40.934,14.847 40.772,14.455 40.659,14.186 40.659,13.922 40.778,13.627 41.149,12.763 41.876,12.445 42.731,12.325 43.003,12.288 43.311,12.259 43.600,12.226 43.966,12.191 44.261,12.046 44.445,11.708 44.486,11.603 44.584,11.586 44.692,11.609 45.035,11.682 45.360,11.751 45.721,11.827 46.118,11.911 46.510,11.749 46.713,11.415 46.754,11.311 46.819,11.268 46.931,11.273 47.250,11.284 47.454,11.120 47.519,10.813 47.542,10.705 47.565,10.596 47.588,10.488 47.660,10.145 47.558,9.916 47.227,9.790 47.140,9.753 47.094,9.705 47.095,9.611 47.018,9.086 46.799,8.870 46.276,8.759 45.789,8.656 45.320,8.557 44.833,8.453 44.526,8.388 44.237,8.421 43.938,8.320 43.614,8.157 43.254,7.987 42.964,7.756 42.802,7.627 42.673,7.525 42.457,7.479 41.984,7.398 41.489,7.330 41.038,7.235 40.786,7.181 40.592,7.385 40.374,7.434 40.175,7.486 40.030,7.455 39.887,7.330 39.730,7.184 39.510,7.062 39.276,7.012 38.626,6.875 37.977,6.737 37.327,6.600 37.165,6.565 37.061,6.524 36.965,6.353 36.855,6.160 36.704,6.072 36.506,6.030 35.748,5.869 34.990,5.709 34.232,5.549 34.070,5.514 33.904,5.498 33.787,5.605 33.656,5.690 33.522,5.700 33.359,5.665 27.532,4.431 21.687,3.193 15.860,1.959 15.553,1.894 15.305,1.728 15.101,1.534 14.690,1.164 14.254,0.997 13.672,0.987 12.460,1.013 11.220,0.995 9.980,0.883 9.572,0.853 9.165,0.729 8.734,0.714 8.452,0.711 8.191,0.787 7.895,0.762 7.656,0.730 7.459,0.952 7.409,1.187 7.398,1.505 7.337,1.794 7.276,2.082 Z M 30.502,9.188 C 30.556,9.200 30.578,9.185 30.578,9.185 32.581,9.610 34.583,10.034 36.586,10.458 36.694,10.481 36.751,10.568 36.786,10.670 36.895,10.957 37.073,11.183 37.295,11.381 37.807,11.810 38.398,12.048 39.046,12.016 39.784,12.002 40.452,11.786 40.832,11.056 40.873,10.951 40.971,10.934 41.079,10.957 41.961,11.068 42.857,11.107 43.715,11.327 43.860,11.358 44.074,11.327 44.071,11.515 44.044,11.736 43.837,11.730 43.678,11.771 43.660,11.768 43.660,11.768 43.660,11.768 43.320,11.771 42.990,11.814 42.675,11.879 41.700,12.031 40.878,12.441 40.462,13.428 40.280,13.842 40.214,14.242 40.444,14.668 40.639,14.992 40.809,15.349 41.000,15.691 41.384,16.281 41.780,16.817 42.164,17.407 42.416,17.819 42.602,18.273 42.705,18.766 42.821,19.375 42.840,20.001 42.920,20.602 42.954,20.798 42.924,20.848 42.708,20.802 41.264,20.497 39.857,20.199 38.414,19.893 38.035,19.813 37.893,19.594 37.973,19.215 38.004,19.071 38.030,18.945 38.011,18.771 37.958,18.307 37.756,17.925 37.401,17.643 37.161,17.441 37.077,17.216 37.106,16.902 37.138,16.305 36.945,15.793 36.392,15.469 36.043,15.244 35.989,14.968 36.137,14.623 36.369,13.975 36.250,13.554 35.702,13.117 35.652,13.088 35.623,13.044 35.573,13.014 35.312,12.733 34.995,12.628 34.633,12.646 34.521,12.641 34.413,12.618 34.308,12.577 33.891,12.413 33.459,12.227 33.045,12.045 32.016,11.564 31.167,10.856 30.716,9.780 30.628,9.573 30.532,9.402 30.502,9.188 Z M 33.149,6.035 C 33.148,6.129 33.072,6.132 33.046,6.164 32.101,6.888 31.120,7.604 30.157,8.324 30.048,8.395 29.954,8.394 29.864,8.374 24.939,7.331 20.050,6.296 15.125,5.253 14.962,5.218 14.901,5.149 14.936,4.987 15.108,4.175 15.298,3.367 15.452,2.551 15.498,2.335 15.577,2.314 15.776,2.356 21.477,3.563 27.214,4.778 32.915,5.986 33.005,6.005 33.077,6.020 33.149,6.035 Z M 30.511,8.700 C 30.541,8.650 30.545,8.632 30.545,8.632 31.690,7.762 32.850,6.914 33.995,6.045 34.105,5.974 34.181,5.971 34.289,5.994 34.938,6.132 35.588,6.269 36.237,6.407 36.400,6.441 36.496,6.518 36.600,6.653 37.338,7.884 38.062,9.093 38.819,10.328 38.825,10.386 38.894,10.419 38.868,10.451 36.122,9.888 33.308,9.292 30.511,8.700 Z M 12.947,5.300 C 12.619,5.156 12.274,5.007 11.964,4.866 10.859,4.387 9.772,3.912 8.585,3.642 8.441,3.611 8.326,3.530 8.190,3.464 8.085,3.423 8.046,3.339 8.077,3.195 8.184,2.690 8.287,2.202 8.398,1.679 8.509,1.156 8.592,1.117 9.109,1.170 9.163,1.182 9.181,1.185 9.217,1.193 9.780,1.293 10.315,1.350 10.875,1.374 11.776,1.396 12.658,1.413 13.562,1.416 13.754,1.400 13.779,1.462 13.744,1.624 13.561,2.490 13.381,3.338 13.198,4.204 13.100,4.579 13.027,4.922 12.947,5.300 Z M 40.380,9.188 C 40.425,8.971 40.449,8.769 40.513,8.556 40.589,8.290 40.527,7.956 40.870,7.765 41.037,7.687 41.084,7.641 41.194,7.834 41.262,7.961 41.398,8.028 41.469,7.873 41.571,7.744 41.644,7.759 41.752,7.782 41.842,7.801 41.968,7.828 41.956,7.976 41.955,8.070 42.027,8.085 42.099,8.101 42.171,8.116 42.211,8.105 42.262,8.041 42.303,7.936 42.383,7.916 42.510,7.942 42.600,7.962 42.690,7.981 42.695,8.133 42.680,8.205 42.749,8.238 42.821,8.253 42.979,8.306 43.116,8.372 43.278,8.407 43.441,8.441 43.479,8.525 43.449,8.669 43.300,9.373 43.155,10.058 43.006,10.762 42.983,10.870 42.921,10.895 42.827,10.894 42.000,10.794 41.169,10.712 40.338,10.630 40.190,10.618 40.197,10.582 40.224,10.456 40.212,9.982 40.296,9.585 40.380,9.188 Z M 42.445,24.178 C 42.373,24.520 42.256,24.628 42.029,24.542 41.543,24.345 41.035,24.162 40.534,24.037 39.733,23.811 38.929,23.603 38.105,23.579 37.938,23.562 37.768,23.564 37.695,23.379 37.582,23.110 37.563,22.842 37.693,22.587 37.730,22.500 37.788,22.494 37.878,22.513 38.207,22.564 38.543,22.578 38.875,22.611 40.158,22.694 41.330,23.037 42.329,23.927 42.419,23.946 42.498,24.019 42.445,24.178 Z M 13.590,3.420 C 13.724,2.788 13.850,2.193 13.984,1.562 14.014,1.417 14.036,1.403 14.198,1.437 14.537,1.528 14.784,1.788 15.020,2.007 15.099,2.081 15.106,2.138 15.083,2.247 14.880,3.203 14.685,4.123 14.483,5.079 14.464,5.169 14.430,5.238 14.329,5.273 14.024,5.378 13.697,5.497 13.346,5.461 13.180,5.444 13.170,5.404 13.200,5.260 13.330,4.647 13.456,4.051 13.590,3.420 Z M 38.306,20.134 C 39.840,20.459 41.373,20.784 42.871,21.101 42.761,21.530 42.412,21.664 42.049,21.775 40.881,22.131 39.870,21.917 38.946,21.118 38.642,20.865 38.494,20.494 38.306,20.134 Z M 44.346,9.952 C 44.415,9.628 44.480,9.321 44.548,8.996 44.571,8.888 44.637,8.845 44.745,8.868 45.286,8.983 45.791,9.090 46.315,9.201 46.585,9.258 46.709,9.473 46.648,9.761 46.560,10.176 46.465,10.627 46.377,11.042 46.320,11.313 46.115,11.477 45.845,11.420 45.340,11.313 44.798,11.198 44.293,11.091 44.149,11.061 44.142,11.003 44.169,10.876 44.212,10.584 44.277,10.277 44.346,9.952 Z M 38.531,21.030 C 39.600,22.124 40.838,22.423 42.253,21.969 42.240,22.475 42.053,23.001 42.319,23.529 41.087,22.401 39.515,22.350 37.925,22.202 38.258,21.877 38.418,21.477 38.531,21.030 Z M 34.154,12.770 C 34.063,12.845 34.012,12.910 33.942,12.971 33.580,13.346 33.454,13.942 33.760,14.365 33.963,14.653 33.877,14.879 33.824,15.132 33.793,15.276 33.713,15.297 33.620,15.202 33.308,14.985 33.069,14.690 32.958,14.327 32.698,13.593 32.479,12.849 32.238,12.119 32.203,12.018 32.182,11.938 32.277,11.845 32.844,12.191 33.481,12.477 34.154,12.770 Z M 39.576,10.488 C 39.558,10.484 39.555,10.502 39.519,10.495 38.819,9.347 38.134,8.222 37.428,7.017 38.023,7.143 38.564,7.258 39.105,7.372 39.196,7.391 39.202,7.449 39.227,7.511 39.313,8.528 39.443,9.517 39.576,10.488 Z M 38.527,11.529 C 38.202,11.460 37.699,11.165 37.420,10.880 37.359,10.810 37.259,10.751 37.314,10.669 37.351,10.582 37.470,10.645 37.564,10.646 38.297,10.745 39.006,11.046 39.777,10.964 39.835,10.958 39.885,10.987 39.940,10.999 40.012,11.014 40.131,10.983 40.159,11.120 40.194,11.222 40.070,11.271 40.001,11.332 39.521,11.551 39.054,11.621 38.527,11.529 Z M 44.025,9.866 C 43.960,10.172 43.899,10.461 43.834,10.768 43.803,10.912 43.770,10.980 43.615,10.910 43.543,10.895 43.507,10.887 43.435,10.872 43.269,10.855 43.230,10.772 43.264,10.609 43.371,10.104 43.482,9.581 43.593,9.058 43.673,8.679 43.673,8.679 44.052,8.759 44.196,8.790 44.221,8.852 44.194,8.978 44.147,9.288 44.086,9.577 44.025,9.866 Z M 35.902,13.687 C 35.991,13.800 36.026,13.902 36.013,14.050 35.986,14.270 35.947,14.451 35.869,14.642 35.765,14.865 35.763,15.053 35.913,15.235 35.970,15.323 35.980,15.363 35.875,15.416 35.672,15.486 35.446,15.570 35.229,15.618 35.153,15.621 35.081,15.606 35.096,15.533 35.149,15.281 35.106,14.951 35.311,14.787 35.658,14.484 35.875,14.171 35.902,13.687 Z M 8.015,2.239 C 7.958,2.510 7.893,2.816 7.832,3.105 7.817,3.177 7.798,3.267 7.693,3.226 7.603,3.207 7.513,3.188 7.507,3.036 7.523,2.964 7.542,2.874 7.557,2.802 7.660,2.315 7.759,1.846 7.863,1.358 7.893,1.214 7.973,1.193 8.117,1.224 8.262,1.255 8.206,1.337 8.191,1.409 8.134,1.680 8.077,1.950 8.015,2.239 Z M 39.956,9.588 C 39.938,9.584 39.938,9.584 39.901,9.577 39.839,8.979 39.752,8.414 39.690,7.816 39.870,7.855 40.015,7.885 40.159,7.916 40.231,7.931 40.303,7.946 40.280,8.055 40.173,8.560 40.066,9.065 39.956,9.588 Z M 46.759,10.482 C 46.771,10.428 46.775,10.410 46.782,10.374 46.805,10.266 46.782,10.110 46.994,10.174 47.157,10.208 47.236,10.282 47.179,10.458 47.164,10.530 47.156,10.567 47.141,10.639 47.125,10.805 47.041,10.844 46.875,10.827 46.601,10.788 46.751,10.613 46.759,10.482 Z M 31.786,11.760 C 31.681,11.719 31.522,11.760 31.564,11.562 31.579,11.490 31.649,11.429 31.695,11.477 31.792,11.554 31.990,11.596 31.982,11.726 31.977,11.838 31.851,11.717 31.786,11.760 Z " />
  <path stroke="none" fill="#fbfbfbff" d="M 37.210,14.096 C 37.163,14.407 37.110,14.659 37.092,14.919 37.076,15.086 37.117,15.245 37.261,15.370 37.479,15.586 37.675,15.816 37.846,16.078 37.974,16.275 38.036,16.514 37.990,16.731 37.959,16.969 37.997,17.147 38.194,17.283 38.571,17.551 38.699,18.012 38.857,18.422 39.185,19.189 39.573,19.139 40.308,19.050 40.482,19.030 40.574,18.861 40.623,18.721 40.797,18.343 40.873,17.982 40.701,17.550 40.363,16.743 40.021,15.954 39.657,15.180 39.498,14.863 39.277,14.572 38.987,14.341 38.747,14.139 38.485,13.951 38.241,13.768 38.080,13.639 37.863,13.594 37.679,13.573 37.495,13.553 37.370,13.697 37.300,13.851 37.223,13.948 37.221,14.042 37.210,14.096 Z M 37.610,14.256 C 37.644,14.094 37.685,13.989 37.872,14.086 38.339,14.373 38.856,14.690 39.143,15.203 39.632,16.098 40.020,17.029 40.363,17.987 40.458,18.252 40.230,18.619 39.980,18.641 39.534,18.698 39.524,18.658 39.308,18.254 39.081,17.810 38.920,17.324 38.559,16.983 38.480,16.910 38.485,16.798 38.468,16.700 38.471,16.418 38.438,16.128 38.242,15.898 38.057,15.614 37.865,15.366 37.647,15.150 37.572,15.059 37.515,14.971 37.538,14.863 37.587,14.628 37.644,14.452 37.610,14.256 Z " />
  <path stroke="none" fill="#fbfbfbff" d="M 19.252,5.166 C 20.172,5.361 21.092,5.555 22.013,5.750 22.067,5.762 22.103,5.769 22.157,5.781 22.500,5.853 22.802,5.672 22.859,5.402 22.917,5.131 22.714,4.843 22.371,4.771 21.252,4.534 20.170,4.304 19.051,4.067 18.258,3.899 17.500,3.739 16.706,3.571 16.652,3.559 16.616,3.552 16.562,3.540 16.219,3.468 15.917,3.649 15.859,3.919 15.802,4.190 16.005,4.478 16.348,4.550 17.322,4.757 18.296,4.963 19.252,5.166 Z M 19.316,4.953 C 18.360,4.750 17.440,4.556 16.484,4.353 16.177,4.288 16.034,4.164 16.068,4.001 16.106,3.821 16.296,3.729 16.602,3.794 18.478,4.191 20.337,4.585 22.213,4.982 22.285,4.997 22.321,5.005 22.393,5.020 22.552,5.073 22.645,5.168 22.607,5.348 22.572,5.511 22.413,5.552 22.283,5.544 22.207,5.546 22.138,5.513 22.066,5.498 21.156,5.343 20.254,5.152 19.316,4.953 Z " />
  <path stroke="none" fill="#fbfbfbff" d="M 27.280,6.866 C 28.201,7.061 29.121,7.256 30.041,7.451 30.095,7.462 30.131,7.470 30.185,7.481 30.528,7.554 30.830,7.373 30.887,7.102 30.945,6.831 30.742,6.543 30.399,6.471 29.605,6.303 28.848,6.142 28.054,5.974 26.935,5.737 25.853,5.508 24.734,5.271 24.680,5.260 24.644,5.252 24.590,5.240 24.247,5.168 23.945,5.349 23.888,5.620 23.830,5.890 24.033,6.178 24.376,6.251 25.350,6.457 26.306,6.660 27.280,6.866 Z M 27.344,6.653 C 26.388,6.451 25.468,6.256 24.512,6.053 24.187,5.985 24.062,5.864 24.100,5.683 24.138,5.503 24.320,5.447 24.627,5.512 26.503,5.910 28.361,6.303 30.237,6.700 30.309,6.716 30.346,6.723 30.418,6.739 30.576,6.791 30.665,6.904 30.631,7.067 30.597,7.229 30.437,7.271 30.307,7.262 30.231,7.265 30.163,7.231 30.090,7.216 29.185,7.043 28.282,6.852 27.344,6.653 Z " />
  <path stroke="none" fill="#fbfbfbff" d="M 34.767,8.452 C 35.200,8.543 35.651,8.639 36.084,8.731 36.553,8.830 36.894,8.468 36.746,8.098 36.676,7.895 36.533,7.770 36.316,7.724 35.414,7.533 34.530,7.346 33.628,7.155 33.322,7.090 33.019,7.271 32.962,7.541 32.905,7.812 33.090,8.096 33.414,8.165 33.865,8.261 34.334,8.360 34.767,8.452 Z M 34.849,8.243 C 34.849,8.243 34.849,8.243 34.849,8.243 34.380,8.143 33.947,8.052 33.478,7.952 33.316,7.918 33.169,7.811 33.207,7.631 33.253,7.415 33.409,7.391 33.589,7.429 33.643,7.441 33.697,7.452 33.751,7.464 34.419,7.605 35.068,7.743 35.754,7.888 35.934,7.926 36.133,7.968 36.313,8.006 36.472,8.059 36.601,8.161 36.563,8.342 36.524,8.522 36.365,8.564 36.202,8.529 36.148,8.518 36.094,8.506 36.040,8.495 35.625,8.407 35.228,8.323 34.849,8.243 Z " />
  <path stroke="none" fill="#fbfbfbff" d="M 11.060,3.261 C 10.807,3.207 10.515,3.164 10.266,3.093 10.090,3.037 9.926,3.096 9.799,3.163 9.614,3.237 9.699,3.369 9.800,3.428 10.324,3.708 10.809,4.000 11.405,4.126 11.639,4.175 11.903,4.175 12.118,4.051 12.227,3.979 12.337,3.908 12.299,3.731 12.257,3.571 12.200,3.484 12.020,3.445 11.666,3.427 11.349,3.322 11.060,3.261 11.060,3.261 11.060,3.261 11.060,3.261 Z M 9.953,3.328 C 10.048,3.235 10.138,3.254 10.228,3.273 10.499,3.331 10.769,3.388 11.040,3.445 11.347,3.510 11.617,3.567 11.924,3.632 12.014,3.652 12.100,3.689 12.117,3.786 12.134,3.884 12.015,3.916 11.939,3.918 11.779,3.960 11.645,3.969 11.483,3.935 10.894,3.867 10.427,3.579 9.953,3.328 Z " />
  <path stroke="none" fill="#fbfbfbff" d="M 11.242,2.489 C 11.549,2.554 11.874,2.623 12.162,2.684 12.325,2.718 12.412,2.661 12.507,2.568 12.610,2.439 12.575,2.338 12.486,2.225 12.358,2.028 12.135,1.924 11.940,1.864 11.356,1.684 10.715,1.774 10.104,1.814 9.991,1.809 9.893,1.920 9.996,2.055 10.117,2.194 10.210,2.289 10.394,2.309 10.691,2.334 10.954,2.428 11.242,2.489 11.242,2.489 11.242,2.489 11.242,2.489 Z M 10.239,1.975 C 10.667,1.915 11.047,1.901 11.487,1.956 11.751,1.956 12.040,2.017 12.262,2.215 12.341,2.288 12.459,2.351 12.396,2.470 12.359,2.556 12.233,2.529 12.143,2.510 11.583,2.392 11.024,2.273 10.465,2.155 10.346,2.092 10.248,2.109 10.239,1.975 Z " />
  <path stroke="none" fill="#fbfbfbff" d="M 45.570,9.514 C 45.822,9.568 46.075,9.621 46.327,9.675 46.400,9.690 46.468,9.723 46.491,9.615 46.510,9.525 46.434,9.528 46.362,9.512 45.857,9.405 45.333,9.295 44.810,9.184 44.738,9.168 44.706,9.143 44.647,9.243 44.628,9.334 44.700,9.349 44.736,9.356 45.065,9.407 45.317,9.461 45.570,9.514 Z " />
  <path stroke="none" fill="#fbfbfbff" d="M 45.338,10.521 C 45.590,10.574 45.825,10.624 46.077,10.677 46.149,10.693 46.218,10.726 46.241,10.618 46.260,10.527 46.184,10.530 46.112,10.515 45.607,10.408 45.065,10.293 44.560,10.186 44.506,10.175 44.456,10.145 44.401,10.228 44.378,10.336 44.454,10.333 44.526,10.349 44.814,10.410 45.085,10.467 45.338,10.521 Z " />
  <path stroke="none" fill="#fbfbfbff" d="M 45.281,11.055 C 45.534,11.109 45.768,11.158 46.021,11.212 46.093,11.227 46.161,11.261 46.184,11.152 46.203,11.062 46.127,11.065 46.055,11.050 45.550,10.943 45.027,10.832 44.504,10.721 44.449,10.710 44.363,10.672 44.344,10.763 44.321,10.871 44.397,10.868 44.469,10.883 44.740,10.941 45.028,11.002 45.281,11.055 Z " />
  <path stroke="none" fill="#fbfbfbff" d="M 45.427,10.012 C 45.679,10.065 45.932,10.119 46.184,10.172 46.256,10.187 46.325,10.221 46.348,10.113 46.367,10.022 46.291,10.025 46.219,10.010 45.714,9.903 45.172,9.788 44.667,9.681 44.613,9.670 44.563,9.640 44.508,9.723 44.485,9.831 44.561,9.828 44.633,9.844 44.921,9.905 45.174,9.958 45.427,10.012 Z " />
</svg>