<?xml version="1.0" encoding="UTF-8" standalone="no"?>
<!DOCTYPE svg PUBLIC "-//W3C//DTD SVG 20010904//EN" "http://www.w3.org/TR/2001/REC-SVG-20010904/DTD/svg10.dtd"[]>
<svg version="1.1" id="Frosty Editor v1.0.6.3" xmlns="http://www.w3.org/2000/svg" d1p1:xlink="http://www.w3.org/1999/xlink" viewBox="0 0 25 25" xmlns:d1p1="xmlns">
  <path stroke="none" fill="#ffffffff" d="M 12.888,2.645 C 14.450,3.827 14.324,6.604 13.887,8.186 13.817,8.435 13.724,8.677 13.609,8.910 13.394,9.316 13.128,9.692 12.817,10.030 12.591,10.263 12.348,10.459 12.101,10.620 12.213,10.626 12.325,10.647 12.433,10.678 12.722,10.794 13.007,10.919 13.292,11.044 13.391,11.088 13.492,11.131 13.590,11.176 13.620,11.191 13.663,11.175 13.670,11.140 13.672,11.116 13.663,11.093 13.662,11.069 13.641,10.896 13.644,10.717 13.669,10.546 13.696,10.365 13.747,10.190 13.822,10.023 13.892,9.865 13.986,9.714 14.097,9.583 14.331,9.307 14.644,9.102 14.988,8.993 15.155,8.940 15.331,8.910 15.506,8.906 15.680,8.903 15.853,8.922 16.021,8.964 16.321,9.038 16.605,9.183 16.837,9.386 16.978,9.509 17.099,9.654 17.197,9.813 17.339,9.315 17.402,8.749 17.419,7.885 17.102,5.270 15.176,3.319 12.888,2.645 Z M 18.387,7.509 C 19.339,8.970 20.000,10.778 19.649,12.435 20.037,12.514 20.037,12.514 20.037,12.514 19.552,12.793 19.552,12.793 19.552,12.793 19.366,13.368 19.065,13.842 18.686,14.164 19.777,15.399 19.777,15.399 19.777,15.399 16.508,14.852 16.508,14.852 16.508,14.852 16.532,15.057 16.557,15.262 16.582,15.467 16.591,15.551 16.606,15.635 16.615,15.719 16.641,15.983 16.580,16.254 16.442,16.483 16.311,16.704 16.101,16.874 15.868,16.976 15.720,17.044 15.559,17.079 15.397,17.097 15.593,17.212 15.789,17.325 15.982,17.444 16.185,17.568 16.364,17.735 16.495,17.935 16.593,18.087 16.667,18.258 16.695,18.437 16.733,18.692 16.681,18.963 16.546,19.185 16.491,19.273 16.422,19.351 16.351,19.427 16.259,19.524 16.158,19.617 16.046,19.691 15.997,19.724 15.943,19.750 15.888,19.773 14.802,20.247 13.715,20.718 12.627,21.188 13.210,21.338 13.819,21.418 14.442,21.418 14.492,21.418 14.492,21.418 14.492,21.418 15.191,21.418 15.886,21.312 16.553,21.104 19.515,20.208 21.747,17.489 21.769,14.279 21.713,11.585 20.714,8.962 18.387,7.509 Z M 10.473,8.453 C 10.454,8.469 10.434,8.486 10.415,8.503 10.419,8.495 10.424,8.487 10.428,8.479 10.373,8.531 10.317,8.583 10.262,8.635 10.114,8.762 9.905,8.952 9.688,9.163 8.919,9.877 8.316,10.749 7.917,11.719 10.834,11.719 10.834,11.719 10.834,11.719 10.875,11.608 10.916,11.498 10.956,11.387 10.998,11.267 11.059,11.153 11.138,11.053 10.800,11.134 10.488,11.130 10.240,11.029 9.987,10.883 9.815,10.627 9.778,10.337 9.786,9.902 9.891,9.475 10.087,9.087 10.108,9.058 10.128,9.029 10.148,9.000 10.293,8.780 10.473,8.453 10.473,8.453 Z M 15.566,9.556 C 14.872,9.551 14.317,10.094 14.295,10.792 14.272,11.478 14.821,12.073 15.530,12.096 16.239,12.118 16.811,11.569 16.834,10.860 16.857,10.151 16.308,9.579 15.599,9.557 15.588,9.556 15.577,9.556 15.566,9.556 Z M 18.435,10.837 C 17.604,11.425 16.773,12.012 15.942,12.599 15.942,12.599 16.239,12.782 16.285,13.125 16.331,13.605 16.422,14.200 16.422,14.200 17.177,14.406 17.932,14.612 18.687,14.818 18.222,14.345 17.756,13.872 17.291,13.399 17.978,13.148 18.664,12.896 19.350,12.645 18.641,12.614 17.932,12.584 17.223,12.553 17.627,11.981 18.031,11.409 18.435,10.837 Z M 12.044,11.264 C 11.841,11.261 11.644,11.378 11.573,11.592 11.230,12.523 10.886,13.453 10.543,14.383 10.429,14.635 10.566,14.932 10.818,15.024 11.069,15.115 11.367,15.001 11.458,14.726 11.733,13.987 12.007,13.247 12.282,12.507 12.488,12.599 12.694,12.690 12.899,12.782 12.899,12.782 13.105,12.416 13.311,12.233 13.540,12.027 13.860,12.004 13.860,12.004 13.342,11.775 12.823,11.547 12.305,11.318 12.282,11.318 12.259,11.295 12.236,11.295 12.213,11.295 12.213,11.295 12.213,11.295 12.158,11.275 12.101,11.265 12.044,11.264 Z M 5.580,12.210 C 5.450,12.423 5.320,12.637 5.191,12.850 10.315,12.850 10.315,12.850 10.315,12.850 10.437,12.637 10.559,12.423 10.681,12.210 Z M 14.272,12.352 C 13.915,12.348 13.567,12.520 13.357,12.850 12.709,13.895 12.061,14.940 11.413,15.984 11.390,16.007 11.390,16.030 11.390,16.053 11.367,16.076 11.367,16.099 11.344,16.099 11.207,16.373 11.367,16.762 11.733,16.968 12.587,17.479 13.441,17.990 14.295,18.501 13.265,18.943 12.236,19.385 11.207,19.827 10.932,19.942 10.772,20.262 10.864,20.559 10.879,20.590 10.894,20.620 10.909,20.651 11.001,20.925 11.321,21.063 11.596,20.925 12.938,20.346 14.280,19.766 15.622,19.187 15.713,19.141 15.782,19.095 15.850,19.004 15.896,18.958 15.965,18.912 15.988,18.844 16.171,18.592 15.988,18.203 15.644,17.997 15.011,17.624 14.379,17.250 13.746,16.876 13.807,16.770 13.868,16.663 13.929,16.556 14.417,16.518 14.905,16.480 15.393,16.442 15.461,16.442 15.507,16.419 15.576,16.396 15.827,16.305 16.010,16.053 15.965,15.778 15.866,14.955 15.766,14.131 15.667,13.308 15.622,12.965 15.256,12.759 15.164,12.713 15.050,12.645 14.935,12.576 14.821,12.507 14.648,12.405 14.459,12.354 14.272,12.352 Z M 4.527,13.971 C 4.405,14.177 4.283,14.383 4.161,14.589 9.262,14.589 9.262,14.589 9.262,14.589 9.392,14.383 9.522,14.177 9.651,13.971 Z M 9.855,14.570 C 9.748,14.740 9.641,14.910 9.534,15.080 9.225,15.621 8.827,16.301 8.518,16.842 7.709,16.842 7.709,16.842 7.709,16.842 8.013,17.658 8.475,18.404 9.059,19.044 9.594,18.202 10.129,17.360 10.665,16.518 10.661,16.491 10.658,16.467 10.655,16.441 10.644,16.317 10.645,16.192 10.673,16.071 10.692,15.986 10.721,15.904 10.759,15.824 10.772,15.795 10.788,15.768 10.803,15.740 10.814,15.716 10.800,15.686 10.774,15.682 10.589,15.648 10.412,15.565 10.266,15.444 10.035,15.255 9.889,14.969 9.860,14.673 9.857,14.639 9.855,14.605 9.855,14.570 Z M 14.935,14.772 C 14.973,15.046 15.011,15.321 15.050,15.595 14.828,15.618 14.608,15.641 14.386,15.664 14.569,15.367 14.752,15.069 14.935,14.772 Z M 3.498,15.710 C 3.368,15.923 3.239,16.137 3.109,16.350 8.233,16.350 8.233,16.350 8.233,16.350 8.355,16.137 8.477,15.923 8.599,15.710 Z M 11.047,17.128 C 10.086,18.638 9.125,20.148 8.164,21.657 7.981,21.955 8.004,22.321 8.210,22.458 8.263,22.496 8.317,22.534 8.370,22.572 8.576,22.732 8.896,22.618 9.102,22.321 10.078,20.788 11.054,19.255 12.030,17.723 11.702,17.524 11.374,17.326 11.047,17.128 Z " />
</svg>