<?xml version="1.0" encoding="UTF-8" standalone="no"?>
<!DOCTYPE svg PUBLIC "-//W3C//DTD SVG 20010904//EN" "http://www.w3.org/TR/2001/REC-SVG-20010904/DTD/svg10.dtd"[]>
<svg version="1.1" id="Frosty Editor v1.0.6.3" xmlns="http://www.w3.org/2000/svg" d1p1:xlink="http://www.w3.org/1999/xlink" viewBox="0 0 25 25" xmlns:d1p1="xmlns">
  <path stroke="none" fill="#ffffffff" d="M 11.083,1.935 C 11.281,2.034 11.460,2.165 11.615,2.323 12.286,3.646 12.624,5.114 12.598,6.598 12.518,7.186 12.397,7.767 12.238,8.339 12.212,8.431 12.178,8.522 12.147,8.613 12.216,8.605 12.286,8.599 12.356,8.593 12.286,8.599 12.216,8.605 12.147,8.613 10.342,8.810 8.701,9.693 7.543,11.047 7.518,10.975 7.499,10.901 7.489,10.824 7.498,10.322 7.620,9.829 7.846,9.380 7.870,9.346 7.893,9.313 7.917,9.279 8.085,9.026 8.292,8.647 8.292,8.647 8.270,8.666 8.247,8.686 8.225,8.705 8.230,8.696 8.235,8.687 8.240,8.678 8.176,8.738 8.112,8.798 8.048,8.858 7.877,9.004 7.636,9.224 7.385,9.469 6.456,10.330 5.735,11.391 5.275,12.571 4.883,13.460 4.666,14.416 4.634,15.387 4.426,19.930 8.320,23.631 12.879,23.631 12.937,23.631 12.937,23.631 12.937,23.631 13.745,23.632 14.548,23.509 15.319,23.268 18.742,22.233 21.322,19.091 21.347,15.380 21.347,11.634 19.786,9.908 19.359,9.191 18.931,8.473 17.438,7.557 17.438,7.557 17.965,8.316 18.377,9.150 18.659,10.030 18.909,10.737 19.019,11.430 19.021,12.079 18.718,11.558 18.347,11.074 17.913,10.641 17.412,10.139 16.842,9.721 16.227,9.394 16.191,9.375 16.155,9.357 16.118,9.338 16.155,9.357 16.191,9.375 16.227,9.394 16.278,9.002 16.309,8.555 16.320,7.991 16.345,6.732 15.294,4.845 14.305,3.865 14.225,3.749 14.143,3.630 14.058,3.511 13.187,2.784 12.174,2.247 11.083,1.935 Z M 12.916,8.571 C 12.968,8.571 13.020,8.571 13.072,8.572 13.020,8.571 12.968,8.571 12.916,8.571 Z M 12.916,8.571 C 12.831,8.571 12.747,8.572 12.664,8.575 12.747,8.572 12.831,8.571 12.916,8.571 Z M 13.105,8.573 C 13.156,8.575 13.207,8.576 13.257,8.579 13.207,8.576 13.156,8.575 13.105,8.573 Z M 12.637,8.576 C 12.561,8.579 12.485,8.584 12.409,8.589 12.485,8.584 12.561,8.579 12.637,8.576 Z M 13.285,8.580 C 13.331,8.583 13.377,8.586 13.422,8.589 13.377,8.586 13.331,8.583 13.285,8.580 Z M 13.448,8.591 C 13.498,8.594 13.548,8.599 13.597,8.604 13.548,8.599 13.498,8.594 13.448,8.591 Z M 13.634,8.607 C 13.684,8.612 13.734,8.618 13.784,8.624 13.734,8.618 13.684,8.612 13.634,8.607 Z M 13.800,8.626 C 13.846,8.632 13.891,8.638 13.936,8.645 13.891,8.638 13.846,8.632 13.800,8.626 Z M 13.975,8.651 C 14.022,8.658 14.070,8.665 14.117,8.674 14.070,8.665 14.022,8.658 13.975,8.651 Z M 14.156,8.680 C 14.196,8.688 14.236,8.695 14.277,8.703 14.236,8.695 14.196,8.688 14.156,8.680 Z M 14.310,8.709 C 14.356,8.719 14.402,8.729 14.448,8.739 14.402,8.729 14.356,8.719 14.310,8.709 Z M 14.494,8.749 C 14.539,8.760 14.585,8.770 14.630,8.782 14.585,8.770 14.539,8.760 14.494,8.749 Z M 14.666,8.791 C 14.703,8.800 14.739,8.810 14.775,8.820 14.739,8.810 14.703,8.800 14.666,8.791 Z M 14.824,8.833 C 14.867,8.845 14.909,8.858 14.952,8.870 14.909,8.858 14.867,8.845 14.824,8.833 Z M 15.003,8.886 C 15.036,8.896 15.069,8.907 15.102,8.917 15.069,8.907 15.036,8.896 15.003,8.886 Z M 15.158,8.936 C 15.196,8.948 15.233,8.961 15.270,8.974 15.233,8.961 15.196,8.948 15.158,8.936 Z M 15.326,8.995 C 15.365,9.009 15.403,9.023 15.442,9.038 15.403,9.023 15.365,9.009 15.326,8.995 Z M 15.499,9.060 C 15.527,9.071 15.555,9.082 15.583,9.094 15.555,9.082 15.527,9.071 15.499,9.060 Z M 15.640,9.117 C 15.679,9.133 15.717,9.149 15.755,9.166 15.717,9.149 15.679,9.133 15.640,9.117 Z M 15.814,9.192 C 15.841,9.205 15.868,9.217 15.895,9.229 15.868,9.217 15.841,9.205 15.814,9.192 Z M 12.916,9.231 C 14.615,9.231 16.245,9.906 17.446,11.108 18.648,12.309 19.323,13.939 19.323,15.639 19.323,18.230 17.762,20.567 15.368,21.559 12.973,22.550 10.217,22.002 8.385,20.170 6.552,18.337 6.004,15.581 6.996,13.186 7.987,10.792 10.324,9.231 12.916,9.231 Z M 15.975,9.267 C 16.003,9.281 16.030,9.294 16.058,9.308 16.030,9.294 16.003,9.281 15.975,9.267 Z M 12.916,9.959 C 10.618,9.959 8.547,11.343 7.668,13.465 6.789,15.587 7.275,18.030 8.899,19.655 10.524,21.279 12.967,21.765 15.089,20.886 17.211,20.007 18.595,17.936 18.595,15.639 18.595,14.132 17.997,12.688 16.932,11.623 15.867,10.557 14.422,9.959 12.916,9.959 Z M 7.370,11.258 C 7.369,11.258 7.369,11.259 7.368,11.260 7.369,11.259 7.369,11.258 7.370,11.258 Z M 11.671,11.290 C 13.836,11.290 13.836,11.290 13.836,11.290 13.836,15.469 13.836,15.469 13.836,15.469 14.764,14.542 14.764,14.542 14.764,14.542 14.764,13.835 14.764,13.835 14.764,13.835 15.762,13.835 15.762,13.835 15.762,13.835 15.762,14.833 15.762,14.833 15.762,14.833 15.013,14.833 15.013,14.833 15.013,14.833 14.766,15.079 14.519,15.325 14.272,15.571 17.129,15.571 17.129,15.571 17.129,15.571 17.129,16.700 17.129,16.700 17.129,16.700 15.238,16.700 15.238,16.700 15.238,16.700 15.238,19.791 15.238,19.791 15.238,19.791 14.860,19.957 14.481,20.124 14.102,20.291 14.102,16.700 14.102,16.700 14.102,16.700 13.187,16.700 13.187,16.700 13.187,16.700 12.854,17.033 12.521,17.366 12.188,17.699 12.188,18.419 12.188,18.419 12.188,18.419 11.171,18.419 11.171,18.419 11.171,18.419 11.171,17.449 11.171,17.449 11.171,17.449 11.873,17.449 11.873,17.449 11.873,17.449 12.132,17.199 12.392,16.949 12.651,16.698 8.533,16.698 8.533,16.698 8.533,16.698 8.533,14.537 8.533,14.537 8.533,14.537 11.654,14.537 11.654,14.537 11.654,14.537 11.660,13.454 11.666,12.372 11.671,11.290 Z M 7.207,11.472 C 7.205,11.475 7.203,11.478 7.200,11.481 7.203,11.478 7.205,11.475 7.207,11.472 Z M 7.054,11.691 C 7.049,11.697 7.045,11.703 7.041,11.710 7.045,11.703 7.049,11.697 7.054,11.691 Z M 6.910,11.913 C 6.903,11.924 6.896,11.934 6.890,11.945 6.896,11.934 6.903,11.924 6.910,11.913 Z M 6.775,12.141 C 6.766,12.156 6.757,12.171 6.749,12.186 6.757,12.171 6.766,12.156 6.775,12.141 Z M 6.647,12.374 C 6.638,12.393 6.627,12.412 6.617,12.431 6.627,12.412 6.638,12.393 6.647,12.374 Z M 6.525,12.621 C 6.516,12.641 6.506,12.660 6.496,12.681 6.506,12.660 6.516,12.641 6.525,12.621 Z M 19.341,12.695 C 19.342,12.696 19.342,12.698 19.343,12.700 19.342,12.698 19.342,12.696 19.341,12.695 Z M 19.597,13.333 C 19.599,13.340 19.601,13.346 19.603,13.353 19.601,13.346 19.599,13.340 19.597,13.333 Z M 19.735,13.782 C 19.737,13.788 19.738,13.794 19.740,13.799 19.738,13.794 19.737,13.788 19.735,13.782 Z M 19.789,13.993 C 19.792,14.005 19.795,14.017 19.798,14.030 19.795,14.017 19.792,14.005 19.789,13.993 Z M 19.884,14.456 C 19.886,14.470 19.888,14.484 19.890,14.498 19.888,14.484 19.886,14.470 19.884,14.456 Z M 19.916,14.670 C 19.919,14.688 19.921,14.705 19.924,14.723 19.921,14.705 19.919,14.688 19.916,14.670 Z M 19.948,14.927 C 19.948,14.930 19.948,14.932 19.948,14.935 19.948,14.932 19.948,14.930 19.948,14.927 Z M 19.966,15.147 C 19.968,15.166 19.969,15.185 19.970,15.204 19.969,15.185 19.968,15.166 19.966,15.147 Z M 19.978,15.365 C 19.979,15.385 19.979,15.406 19.980,15.426 19.979,15.406 19.979,15.385 19.978,15.365 Z M 19.979,15.906 C 19.969,16.172 19.944,16.435 19.904,16.695 19.878,16.868 19.846,17.040 19.807,17.209 19.749,17.463 19.678,17.713 19.593,17.957 19.678,17.713 19.749,17.463 19.807,17.209 19.846,17.040 19.878,16.868 19.904,16.695 19.944,16.435 19.969,16.172 19.979,15.906 Z M 19.406,18.438 C 19.338,18.596 19.264,18.751 19.185,18.903 19.264,18.751 19.338,18.596 19.406,18.438 Z M 19.062,19.128 C 18.977,19.277 18.888,19.423 18.792,19.565 18.888,19.423 18.977,19.277 19.062,19.128 Z " />
</svg>