<?xml version="1.0" encoding="UTF-8" standalone="no"?>
<!DOCTYPE svg PUBLIC "-//W3C//DTD SVG 20010904//EN" "http://www.w3.org/TR/2001/REC-SVG-20010904/DTD/svg10.dtd"[]>
<svg version="1.1" id="Frosty Editor v1.0.6.3" xmlns="http://www.w3.org/2000/svg" d1p1:xlink="http://www.w3.org/1999/xlink" viewBox="0 0 96 96" xmlns:d1p1="xmlns">
  <path stroke="none" fill="#ffffffff" d="M 84.000,45.320 C 80.610,45.320 77.220,45.320 73.830,45.320 73.830,44.793 73.830,44.267 73.830,43.740 77.220,43.740 80.610,43.740 84.000,43.740 84.000,44.267 84.000,44.793 84.000,45.320 Z M 84.000,49.480 C 80.610,49.480 77.220,49.480 73.830,49.480 73.830,48.967 73.830,48.453 73.830,47.940 77.220,47.940 80.610,47.940 84.000,47.940 84.000,48.453 84.000,48.967 84.000,49.480 Z M 84.000,53.680 C 80.610,53.680 77.220,53.680 73.830,53.680 73.830,53.180 73.830,52.680 73.830,52.180 77.220,52.180 80.610,52.180 84.000,52.180 84.000,52.680 84.000,53.180 84.000,53.680 Z M 87.390,43.740 C 87.390,42.867 87.390,41.993 87.390,41.120 87.140,41.120 86.890,41.120 86.640,41.120 86.640,40.827 86.640,40.533 86.640,40.240 85.760,40.240 84.880,40.240 84.000,40.240 84.000,40.533 84.000,40.827 84.000,41.120 80.610,41.120 77.220,41.120 73.830,41.120 73.830,40.827 73.830,40.533 73.830,40.240 73.080,40.240 72.330,40.240 71.580,40.240 71.580,40.533 71.580,40.827 71.580,41.120 68.213,41.120 64.847,41.120 61.480,41.120 61.480,41.993 61.480,42.867 61.480,43.740 64.847,43.740 68.213,43.740 71.580,43.740 71.580,44.267 71.580,44.793 71.580,45.320 68.213,45.320 64.847,45.320 61.480,45.320 61.480,46.193 61.480,47.067 61.480,47.940 64.847,47.940 68.213,47.940 71.580,47.940 71.580,48.457 71.580,48.973 71.580,49.490 68.213,49.490 64.847,49.490 61.480,49.490 61.480,50.387 61.480,51.283 61.480,52.180 64.847,52.180 68.213,52.180 71.580,52.180 71.580,52.683 71.580,53.187 71.580,53.690 68.213,53.690 64.847,53.690 61.480,53.690 61.480,54.587 61.480,55.483 61.480,56.380 64.847,56.380 68.213,56.380 71.580,56.380 71.580,56.630 71.580,56.880 71.580,57.130 72.330,57.130 73.080,57.130 73.830,57.130 73.830,56.880 73.830,56.630 73.830,56.380 77.220,56.380 80.610,56.380 84.000,56.380 84.000,56.630 84.000,56.880 84.000,57.130 84.877,57.130 85.753,57.130 86.630,57.130 86.630,56.880 86.630,56.630 86.630,56.380 86.880,56.380 87.130,56.380 87.380,56.380 87.380,55.480 87.380,54.580 87.380,53.680 87.130,53.680 86.880,53.680 86.630,53.680 86.630,53.180 86.630,52.680 86.630,52.180 86.880,52.180 87.130,52.180 87.380,52.180 87.380,51.283 87.380,50.387 87.380,49.490 87.130,49.490 86.880,49.490 86.630,49.490 86.630,48.973 86.630,48.457 86.630,47.940 86.880,47.940 87.130,47.940 87.380,47.940 87.380,47.067 87.380,46.193 87.380,45.320 87.130,45.320 86.880,45.320 86.630,45.320 86.630,44.793 86.630,44.267 86.630,43.740 86.883,43.740 87.137,43.740 87.390,43.740 Z " />
  <path stroke="none" fill="#ffffffff" d="M 16.800,43.060 C 17.243,41.778 18.149,40.708 19.340,40.060 20.277,39.577 21.213,39.093 22.150,38.610 19.150,36.917 16.150,35.223 13.150,33.530 13.031,33.469 12.887,33.480 12.778,33.557 12.669,33.635 12.612,33.767 12.630,33.900 12.630,34.053 12.630,34.207 12.630,34.360 12.720,34.463 12.810,34.567 12.900,34.670 13.464,35.349 13.607,36.284 13.270,37.100 12.243,39.600 11.217,42.100 10.190,44.600 9.849,45.439 9.716,46.348 9.800,47.250 9.823,48.860 9.847,50.470 9.870,52.080 9.911,52.637 10.183,53.152 10.620,53.500 12.017,54.470 13.413,55.440 14.810,56.410 15.096,56.630 15.449,56.747 15.810,56.740 16.617,56.740 17.423,56.740 18.230,56.740 18.230,54.493 18.230,52.247 18.230,50.000 17.653,49.723 17.077,49.447 16.500,49.170 15.538,48.657 15.109,47.508 15.500,46.490 15.933,45.347 16.367,44.203 16.800,43.060 Z " />
  <path stroke="none" fill="#ffffffff" d="M 45.150,37.790 C 45.600,37.340 46.050,36.890 46.500,36.440 46.500,35.740 46.500,35.040 46.500,34.340 46.050,34.340 45.600,34.340 45.150,34.340 44.593,34.893 44.037,35.447 43.480,36.000 43.480,36.917 43.480,37.833 43.480,38.750 43.183,38.750 42.887,38.750 42.590,38.750 42.170,38.745 41.766,38.908 41.467,39.203 41.168,39.498 41.000,39.900 41.000,40.320 38.083,40.320 35.167,40.320 32.250,40.320 32.250,39.453 31.547,38.750 30.680,38.750 29.643,38.750 28.607,38.750 27.570,38.750 26.703,38.750 26.000,39.453 26.000,40.320 26.000,43.547 26.000,46.773 26.000,50.000 23.877,50.000 21.753,50.000 19.630,50.000 19.630,52.583 19.630,55.167 19.630,57.750 28.630,57.750 37.630,57.750 46.630,57.750 46.630,51.417 46.630,45.083 46.630,38.750 46.130,38.750 45.630,38.750 45.130,38.750 45.137,38.430 45.143,38.110 45.150,37.790 Z " />
  <path stroke="none" fill="#ffffffff" d="M 26.170,58.880 C 32.967,58.880 39.763,58.880 46.560,58.880 46.560,59.547 46.560,60.213 46.560,60.880 39.763,60.880 32.967,60.880 26.170,60.880 26.170,60.213 26.170,59.547 26.170,58.880 Z " />
  <path stroke="none" fill="#ffffffff" d="M 56.280,50.100 C 55.705,50.479 54.931,50.321 54.550,49.747 54.169,49.173 54.325,48.399 54.898,48.016 55.472,47.634 56.246,47.788 56.630,48.360 56.812,48.642 56.873,48.985 56.800,49.312 56.727,49.639 56.525,49.923 56.240,50.100 56.253,50.100 56.267,50.100 56.280,50.100 Z M 56.810,55.160 C 56.695,55.745 56.183,56.167 55.587,56.169 54.991,56.170 54.476,55.751 54.358,55.166 54.240,54.582 54.551,53.996 55.101,53.766 55.651,53.535 56.287,53.726 56.620,54.220 56.795,54.500 56.853,54.838 56.780,55.160 56.790,55.160 56.800,55.160 56.810,55.160 Z M 53.460,53.240 C 52.841,53.237 52.318,52.781 52.229,52.168 52.141,51.556 52.514,50.971 53.107,50.793 53.700,50.615 54.334,50.898 54.598,51.458 54.861,52.018 54.675,52.687 54.160,53.030 53.944,53.174 53.689,53.247 53.430,53.240 53.440,53.240 53.450,53.240 53.460,53.240 Z M 51.340,56.170 C 50.834,56.170 50.379,55.865 50.185,55.398 49.992,54.931 50.099,54.394 50.456,54.036 50.814,53.679 51.351,53.572 51.818,53.765 52.285,53.959 52.590,54.414 52.590,54.920 52.587,55.256 52.451,55.577 52.210,55.812 51.970,56.046 51.646,56.175 51.310,56.170 51.320,56.170 51.330,56.170 51.340,56.170 Z M 51.340,47.800 C 51.846,47.800 52.301,48.105 52.495,48.572 52.688,49.039 52.581,49.576 52.224,49.934 51.866,50.291 51.329,50.398 50.862,50.205 50.395,50.011 50.090,49.556 50.090,49.050 50.095,48.373 50.634,47.821 51.310,47.800 51.320,47.800 51.330,47.800 51.340,47.800 Z M 51.340,41.940 C 51.846,41.940 52.301,42.245 52.495,42.712 52.688,43.179 52.581,43.716 52.224,44.074 51.866,44.431 51.329,44.538 50.862,44.345 50.395,44.151 50.090,43.696 50.090,43.190 50.095,42.513 50.634,41.961 51.310,41.940 51.320,41.940 51.330,41.940 51.340,41.940 Z M 53.460,44.870 C 54.080,44.868 54.608,45.321 54.700,45.934 54.792,46.547 54.421,47.135 53.827,47.316 53.234,47.496 52.599,47.215 52.333,46.654 52.068,46.094 52.254,45.424 52.770,45.080 52.966,44.949 53.195,44.876 53.430,44.870 53.440,44.870 53.450,44.870 53.460,44.870 Z M 54.350,42.950 C 54.465,42.365 54.977,41.943 55.573,41.941 56.169,41.940 56.684,42.359 56.802,42.944 56.920,43.528 56.609,44.114 56.059,44.344 55.509,44.575 54.873,44.384 54.540,43.890 54.357,43.632 54.278,43.314 54.320,43.000 54.330,42.983 54.340,42.967 54.350,42.950 Z M 57.350,40.250 C 54.407,40.250 51.463,40.250 48.520,40.250 48.520,46.000 48.520,51.750 48.520,57.500 51.463,57.500 54.407,57.500 57.350,57.500 57.350,58.000 57.350,58.500 57.350,59.000 58.100,59.000 58.850,59.000 59.600,59.000 59.600,52.123 59.600,45.247 59.600,38.370 58.850,38.370 58.100,38.370 57.350,38.370 57.350,38.997 57.350,39.623 57.350,40.250 Z " />
</svg>