<?xml version="1.0" encoding="UTF-8" standalone="no"?>
<!-- Created with Inkscape (http://www.inkscape.org/) -->

<svg
   width="96"
   height="96"
   viewBox="0 0 25.4 25.399999"
   version="1.1"
   id="svg5"
   inkscape:version="1.1 (c68e22c387, 2021-05-23)"
   sodipodi:docname="RepublicGunner_CombatShield.svg"
   xmlns:inkscape="http://www.inkscape.org/namespaces/inkscape"
   xmlns:sodipodi="http://sodipodi.sourceforge.net/DTD/sodipodi-0.dtd"
   xmlns="http://www.w3.org/2000/svg"
   xmlns:svg="http://www.w3.org/2000/svg">
  <sodipodi:namedview
     id="namedview7"
     pagecolor="#ffffff"
     bordercolor="#999999"
     borderopacity="1"
     inkscape:pageshadow="0"
     inkscape:pageopacity="0"
     inkscape:pagecheckerboard="true"
     inkscape:document-units="px"
     showgrid="false"
     width="384mm"
     units="px"
     borderlayer="false"
     showborder="true"
     inkscape:showpageshadow="true"
     inkscape:zoom="4.3333334"
     inkscape:cx="15.346154"
     inkscape:cy="30.576923"
     inkscape:window-width="1920"
     inkscape:window-height="1017"
     inkscape:window-x="-8"
     inkscape:window-y="-8"
     inkscape:window-maximized="1"
     inkscape:current-layer="layer1" />
  <defs
     id="defs2" />
  <g
     inkscape:label="Layer 1"
     inkscape:groupmode="layer"
     id="layer1">
    <path
       id="path2533-4"
       d="M 12.591201,4.8871195 C 10.589009,4.8920035 8.6100397,5.5852408 7.0163474,6.9159362 C 6.9160704,6.9995452 6.8547868,7.1206244 6.8468488,7.2507994 C 6.8389118,7.3812405 6.8848077,7.5084995 6.9739728,7.6037495 C 7.1438348,7.7857825 7.4260635,7.8030833 7.6168275,7.6435403 C 9.1254409,6.3873354 10.976732,5.794368 12.807209,5.8436502 C 14.637686,5.794368 16.488976,6.3873354 17.997589,7.6435403 C 18.188353,7.8030833 18.470582,7.7857825 18.640444,7.6037495 C 18.729609,7.5084995 18.775505,7.3812405 18.767568,7.2507994 C 18.75963,7.1206244 18.698346,6.9995452 18.598069,6.9159362 C 17.004377,5.5852408 15.025407,4.8920035 13.023216,4.8871195 C 12.951342,4.8869442 12.879126,4.8875855 12.807209,4.8891865 C 12.735292,4.8875856 12.663075,4.8869441 12.591201,4.8871195 Z M 6.3430035,7.8063211 C 6.3268544,7.8056515 6.3107325,7.8058458 6.2944276,7.8068379 C 6.1642526,7.8147759 6.0431734,7.8760595 5.9595643,7.9763365 C 5.3648273,8.6886169 4.8951609,9.4766055 4.55965,10.31056 C 3.3369159,13.297794 3.8606772,16.725144 5.9378603,19.212859 C 6.0214694,19.313136 6.1425486,19.37442 6.2727236,19.382358 C 6.4031645,19.390295 6.5304235,19.344399 6.6256735,19.255234 C 6.8077066,19.085372 6.8250074,18.803143 6.6654644,18.612379 C 4.7948833,16.365944 4.3950024,13.359115 5.3962913,10.793735 C 5.6949103,10.00829 6.1213155,9.2563665 6.6871685,8.5768167 C 6.8467114,8.3860527 6.8294106,8.1038238 6.6473778,7.9339619 C 6.5640338,7.8559424 6.4560494,7.8110077 6.3430035,7.8063211 Z M 19.271413,7.8063211 C 19.158367,7.8110077 19.050383,7.8559424 18.967039,7.9339619 C 18.785006,8.1038238 18.767705,8.3860527 18.927248,8.5768167 C 19.493101,9.2563665 19.919507,10.00829 20.218126,10.793735 C 21.219415,13.359115 20.819533,16.365944 18.948952,18.612379 C 18.789409,18.803143 18.80671,19.085372 18.988743,19.255234 C 19.083993,19.344399 19.211252,19.390295 19.341693,19.382358 C 19.471868,19.37442 19.592948,19.313136 19.676557,19.212859 C 21.753739,16.725144 22.277501,13.297794 21.054767,10.31056 C 20.719256,9.4766055 20.24959,8.6886169 19.654852,7.9763365 C 19.571244,7.8760595 19.450164,7.8147759 19.319989,7.8068379 C 19.303684,7.8058458 19.287562,7.8056515 19.271413,7.8063211 Z M 9.9996277,9.4356795 C 9.4540569,9.4600205 9.0311707,9.9213042 9.0549826,10.46714 V 15.314389 C 9.0533957,15.586381 9.1545485,15.849443 9.3381694,16.050262 C 10.274001,17.051181 11.209919,18.05226 12.14575,19.053179 C 12.31429,19.241033 12.554796,19.348251 12.807209,19.348251 C 13.059621,19.348251 13.300127,19.241033 13.468667,19.053179 C 14.404498,18.05226 15.340416,17.051181 16.276247,16.050262 C 16.459868,15.849442 16.561021,15.586381 16.559434,15.314389 V 10.46714 C 16.583246,9.9213042 16.16036,9.4600205 15.614789,9.4356795 H 12.807209 Z"
       fill="#ffffff"
       style="stroke-width:0.264583" />
  </g>
  <inkscape:templateinfo>
    <inkscape:name>Ability SVG</inkscape:name>
    <inkscape:author>Soulbruh</inkscape:author>
    <inkscape:shortdesc>Used for abilities in BFII</inkscape:shortdesc>
    <inkscape:date>2021-07-24</inkscape:date>
  </inkscape:templateinfo>
</svg>
