<?xml version="1.0" encoding="UTF-8" standalone="no"?>
<!DOCTYPE svg PUBLIC "-//W3C//DTD SVG 20010904//EN" "http://www.w3.org/TR/2001/REC-SVG-20010904/DTD/svg10.dtd"[]>
<svg version="1.1" id="Frosty Editor v1.0.6.3" xmlns="http://www.w3.org/2000/svg" d1p1:xlink="http://www.w3.org/1999/xlink" viewBox="0 0 384 96" xmlns:d1p1="xmlns">
  <path stroke="none" fill="#ffffffff" d="M 130.500,11.300 C 131.000,11.300 131.500,11.300 132.000,11.300 132.300,11.300 132.300,11.200 132.300,10.900 132.300,10.800 132.300,10.700 132.300,10.600 132.300,10.200 132.300,9.900 132.300,9.500 132.500,9.300 132.800,9.400 133.000,9.400 135.400,9.400 137.800,9.400 140.200,9.400 140.600,9.400 140.900,9.300 141.200,9.000 142.000,8.200 143.000,8.200 143.800,9.000 144.100,9.300 144.400,9.400 144.800,9.400 145.700,9.400 146.500,9.400 147.400,9.400 147.800,9.400 147.900,9.300 148.000,8.900 148.000,8.600 148.000,8.300 148.000,8.100 147.900,7.600 147.700,7.400 147.100,7.400 145.900,7.400 144.700,7.400 143.600,7.400 143.400,7.400 143.200,7.400 143.000,7.400 142.700,7.400 142.600,7.300 142.600,7.100 142.600,6.500 142.600,6.000 142.600,5.400 142.600,5.200 142.700,5.100 142.900,5.100 143.200,5.100 143.600,5.100 143.900,5.100 149.400,5.100 154.900,5.100 160.400,5.100 160.900,5.100 161.300,5.000 161.800,4.800 162.000,4.700 162.200,4.600 162.400,4.600 164.100,4.400 165.800,4.300 167.400,4.100 169.000,3.900 170.700,3.900 172.300,4.000 176.200,4.000 180.100,4.100 184.000,4.200 187.700,4.300 191.400,4.300 195.000,4.400 195.500,4.400 195.900,4.400 196.300,4.300 196.600,4.200 196.900,4.200 197.200,4.300 199.100,4.600 200.900,4.900 202.800,5.200 203.200,5.300 203.600,5.300 204.000,5.400 204.100,5.400 204.300,5.400 204.400,5.500 204.700,5.800 205.100,5.800 205.500,5.800 206.600,5.900 207.700,6.000 208.900,6.000 211.100,6.100 213.200,6.300 215.400,6.400 217.500,6.500 219.500,6.700 221.600,6.800 222.200,6.800 222.900,6.900 223.600,6.900 223.700,7.300 223.700,7.700 223.700,8.100 223.700,8.500 223.800,8.800 223.600,9.200 223.100,9.300 222.700,9.200 222.300,9.200 221.200,9.100 220.100,9.000 218.900,9.000 216.000,8.800 213.000,8.600 210.100,8.400 208.800,8.300 207.500,8.200 206.200,8.100 205.000,8.000 203.800,8.100 202.600,8.300 200.900,8.600 199.100,8.900 197.400,9.100 196.600,9.200 196.400,9.300 196.500,9.400 196.800,9.700 197.100,9.500 197.400,9.500 204.600,9.500 211.900,9.500 219.100,9.500 220.100,9.500 220.000,9.400 220.000,10.400 220.000,11.200 220.000,11.100 220.700,11.100 221.300,11.100 221.900,11.100 222.500,11.100 223.100,11.100 223.700,11.200 224.200,11.500 225.100,12.000 226.100,12.200 227.100,12.100 229.300,12.100 231.400,12.100 233.600,12.100 233.800,12.100 234.000,12.100 234.300,12.100 234.500,12.100 234.600,12.000 234.600,11.800 234.600,11.600 234.600,11.500 234.600,11.300 234.600,10.500 234.600,10.600 235.400,10.600 236.200,10.600 237.000,10.600 237.800,10.600 238.000,10.600 238.200,10.600 238.400,10.600 238.600,10.300 238.400,10.100 238.400,9.900 238.400,9.600 238.400,9.500 238.700,9.400 239.600,9.300 240.600,9.100 241.500,9.000 243.200,8.800 244.800,8.600 246.500,8.400 247.900,8.200 249.200,8.100 250.600,7.900 250.800,7.900 251.000,7.900 251.200,7.900 254.900,7.900 258.600,7.900 262.200,7.900 262.300,7.900 262.500,7.900 262.600,7.900 262.900,7.900 263.000,8.000 263.000,8.300 263.000,9.800 263.000,11.200 263.000,12.700 263.000,12.900 263.000,13.100 263.000,13.300 263.000,14.000 263.000,13.900 263.500,14.100 264.400,14.400 265.200,14.700 266.100,15.100 266.300,15.200 266.400,15.300 266.400,15.500 266.400,16.500 266.400,17.500 266.400,18.500 266.400,19.600 266.400,20.600 266.400,21.700 266.400,22.000 266.300,22.200 266.000,22.300 265.200,22.600 264.300,22.900 263.500,23.200 263.000,23.400 263.000,23.400 263.000,23.900 263.000,25.500 263.000,27.100 263.000,28.700 263.000,28.900 263.000,29.100 263.000,29.300 262.800,29.400 262.600,29.400 262.400,29.400 258.600,29.400 254.800,29.400 250.900,29.400 249.900,29.400 249.000,29.200 248.100,29.100 246.500,28.900 244.900,28.700 243.300,28.500 241.800,28.300 240.200,28.100 238.700,27.900 238.600,27.900 238.400,27.800 238.300,27.800 238.200,27.500 238.300,27.200 238.300,27.000 238.300,26.900 238.200,26.800 238.100,26.800 237.800,26.800 237.500,26.800 237.300,26.800 236.800,26.800 236.700,26.800 236.700,27.400 236.700,28.700 236.700,29.900 236.700,31.200 236.400,31.500 236.100,31.500 235.700,31.600 232.600,32.400 229.500,33.200 226.400,34.100 226.000,34.200 225.600,34.300 225.200,34.300 223.300,34.300 221.400,34.300 219.500,34.300 219.200,34.300 219.000,34.300 218.800,34.600 218.700,34.700 218.700,34.700 218.600,34.800 217.300,36.100 215.600,36.600 213.800,36.600 212.400,36.600 211.000,36.600 209.600,36.600 209.300,36.600 209.000,36.600 208.800,36.600 208.300,36.600 207.800,36.800 207.500,37.200 207.300,37.500 207.100,37.800 206.900,38.100 206.500,38.800 206.100,39.600 205.600,40.300 205.500,40.500 205.500,40.700 205.500,40.900 205.600,41.400 205.700,41.800 205.700,42.300 206.400,48.000 202.600,53.800 196.400,54.900 192.200,55.600 188.700,54.300 185.800,51.300 185.700,51.200 185.500,51.000 185.400,50.900 185.300,50.800 185.200,50.900 185.200,51.000 184.600,52.000 183.600,52.600 182.700,53.200 181.600,53.800 180.500,54.200 179.300,54.500 178.200,54.800 177.100,55.300 176.300,56.100 176.000,56.400 175.800,56.700 175.600,57.000 173.100,60.700 170.600,64.500 168.100,68.200 166.100,71.200 164.200,74.100 162.200,77.100 161.900,77.500 161.600,77.900 161.300,78.300 160.600,79.100 160.200,80.100 160.100,81.200 160.000,82.500 160.000,83.800 159.900,85.200 159.900,86.100 159.900,86.900 159.800,87.800 159.600,89.500 159.000,91.000 157.700,92.100 157.000,92.700 156.200,93.000 155.300,93.000 153.400,93.100 151.700,92.800 149.900,92.100 146.300,90.700 142.700,89.300 139.200,87.900 138.500,87.600 138.500,87.600 138.200,88.200 137.700,89.000 137.200,89.800 136.700,90.600 136.500,91.000 136.400,91.000 136.000,90.700 135.200,90.100 134.400,89.500 133.600,88.800 132.600,87.900 131.600,86.900 130.700,85.900 130.400,85.600 130.100,85.400 129.700,85.500 129.400,85.500 129.200,85.500 128.900,85.500 128.200,85.400 127.600,84.900 127.600,84.200 127.600,82.700 127.400,81.200 127.600,79.700 127.700,79.100 127.800,78.400 128.000,77.800 128.500,75.500 129.500,73.400 130.600,71.200 131.400,69.600 132.300,68.200 133.300,66.700 136.300,61.900 139.200,57.100 142.200,52.300 144.100,49.200 146.000,46.100 148.000,43.000 148.100,42.800 148.300,42.600 148.400,42.400 149.200,41.200 149.100,39.900 148.600,38.600 148.400,38.000 148.000,37.500 147.600,37.000 147.000,36.300 146.300,35.800 145.400,35.500 144.400,35.200 143.300,35.000 142.300,35.000 141.000,35.000 139.800,35.000 138.500,34.800 137.000,34.600 135.900,33.900 135.000,32.700 134.600,32.200 134.500,31.700 134.400,31.200 134.300,30.700 134.300,30.100 134.300,29.600 134.300,29.300 134.200,29.300 134.000,29.200 133.600,29.200 133.100,29.200 132.700,29.200 132.500,29.200 132.400,29.100 132.400,28.900 132.400,28.500 132.400,28.100 132.400,27.700 132.400,27.500 132.300,27.400 132.100,27.400 131.700,27.400 131.300,27.400 130.900,27.400 130.700,27.400 130.600,27.300 130.600,27.100 130.600,26.300 130.600,25.400 130.600,24.600 130.600,24.100 130.500,23.800 130.100,23.600 128.800,22.800 128.100,21.600 127.900,20.200 127.700,18.200 128.400,16.700 130.000,15.500 130.500,15.200 130.700,14.800 130.600,14.300 130.600,13.600 130.600,12.800 130.600,12.100 130.400,11.700 130.400,11.500 130.500,11.300 Z M 189.100,36.600 C 189.100,36.800 189.000,36.800 188.900,36.900 186.400,39.100 185.500,41.900 186.100,45.100 187.000,49.800 191.900,52.900 196.600,51.600 199.800,50.700 201.900,48.600 202.700,45.400 203.500,42.200 202.600,39.300 200.200,37.000 198.900,35.800 197.400,35.100 195.700,34.800 195.300,34.700 194.900,34.700 194.500,34.900 191.600,36.300 190.200,39.500 190.700,42.200 191.000,44.300 192.100,45.900 193.800,47.100 194.200,47.400 194.200,47.400 194.000,47.900 193.900,48.100 193.800,48.400 193.600,48.500 190.500,47.600 187.300,44.000 188.200,39.300 188.400,38.500 188.700,37.800 189.000,37.000 189.200,36.900 189.200,36.700 189.100,36.600 189.100,36.600 189.100,36.600 189.100,36.600 189.100,36.600 189.100,36.600 189.100,36.600 Z M 218.400,23.900 C 218.500,23.600 218.500,23.400 218.500,23.100 218.500,20.400 218.500,17.700 218.500,15.000 218.500,14.700 218.600,14.300 218.400,14.100 218.200,13.800 217.800,14.000 217.500,14.000 217.500,14.000 217.400,14.000 217.400,14.000 217.200,14.000 217.200,13.900 217.200,13.700 217.200,13.500 217.200,13.300 217.200,13.100 217.200,12.300 217.200,12.300 216.400,12.300 210.000,12.300 203.600,12.300 197.200,12.300 197.000,12.300 196.900,12.300 196.700,12.300 196.500,12.300 196.400,12.400 196.400,12.600 196.400,13.000 196.400,13.500 196.400,13.900 196.400,14.100 196.300,14.200 196.100,14.200 195.900,14.200 195.700,14.200 195.400,14.200 193.900,14.100 192.400,14.100 190.900,14.000 188.900,13.900 186.900,13.800 184.900,13.700 184.600,13.700 184.300,13.600 184.100,13.700 183.900,13.900 184.000,14.200 184.000,14.500 184.000,14.600 184.000,14.600 184.000,14.700 184.000,14.900 183.900,15.000 183.700,15.000 183.500,15.000 183.300,15.000 183.000,15.000 181.400,15.000 179.800,15.000 178.200,15.000 177.900,15.000 177.500,15.000 177.200,15.000 176.900,14.700 177.100,14.300 177.100,14.000 177.100,13.600 177.100,13.600 176.700,13.600 176.500,13.600 176.400,13.600 176.200,13.600 172.700,13.600 169.200,13.600 165.700,13.600 165.500,13.600 165.300,13.600 165.100,13.600 164.800,13.600 164.800,13.500 164.800,13.200 164.800,13.000 164.800,12.900 164.800,12.700 164.800,12.400 164.700,12.300 164.400,12.300 163.700,12.300 163.000,12.300 162.300,12.300 157.000,12.300 151.700,12.300 146.500,12.300 143.200,12.300 140.000,12.300 136.700,12.300 136.300,12.300 135.800,12.100 135.500,12.400 135.200,12.700 135.400,13.200 135.400,13.600 135.400,13.700 135.400,13.800 135.400,13.900 135.400,14.200 135.300,14.300 135.100,14.300 134.600,14.300 134.100,14.300 133.700,14.300 133.500,14.300 133.500,14.400 133.500,14.600 133.500,14.900 133.600,15.000 133.900,15.000 135.100,15.000 136.400,15.000 137.600,15.000 137.800,15.000 138.000,15.000 138.300,15.000 138.500,15.000 138.500,15.100 138.500,15.300 138.500,15.500 138.500,15.700 138.500,15.900 138.500,18.100 138.500,20.200 138.500,22.400 138.500,23.300 138.400,23.300 139.400,23.300 151.700,23.300 164.000,23.300 176.300,23.300 176.500,23.300 176.700,23.300 176.900,23.300 177.100,23.300 177.200,23.200 177.200,23.000 177.200,22.900 177.200,22.900 177.200,22.800 177.200,22.200 177.200,22.200 177.800,22.200 178.800,22.200 179.700,22.200 180.700,22.300 184.200,22.500 187.800,22.600 191.300,22.800 193.000,22.900 194.700,22.900 196.400,23.000 200.400,23.200 204.400,23.400 208.400,23.600 211.500,23.700 214.700,23.900 217.800,24.000 217.900,23.900 218.100,24.000 218.400,23.900 Z M 165.200,28.000 C 165.200,26.900 165.200,25.800 165.200,24.600 165.200,24.400 165.500,24.300 165.400,24.100 165.000,24.100 164.700,24.100 164.400,24.100 155.600,24.100 146.800,24.100 137.900,24.100 136.500,24.100 136.500,24.100 135.400,24.900 135.200,25.000 135.100,25.200 135.100,25.500 135.100,25.700 135.100,25.800 135.100,26.000 135.200,26.000 135.200,26.100 135.300,26.100 135.600,26.100 136.000,26.100 136.300,26.100 137.200,26.100 137.100,26.000 137.100,26.900 137.100,28.000 137.100,29.000 137.100,30.100 137.100,30.600 137.300,31.000 137.700,31.200 138.100,31.500 138.500,31.600 139.000,31.700 140.400,31.700 141.800,31.800 143.100,31.900 144.600,32.000 146.000,32.400 147.300,33.000 148.600,33.600 149.600,34.700 150.400,35.900 151.100,37.000 151.600,38.100 151.700,39.400 151.900,40.900 151.600,42.400 150.800,43.700 149.000,46.600 147.200,49.500 145.400,52.400 143.200,55.900 141.000,59.500 138.800,63.000 137.300,65.500 135.800,68.000 134.200,70.400 134.000,70.700 133.900,70.900 133.700,71.200 133.200,72.200 132.700,73.100 132.300,74.100 132.000,74.800 131.700,75.500 131.400,76.200 131.200,76.900 131.000,77.600 130.800,78.300 130.400,79.600 130.300,80.800 130.400,82.100 130.400,82.300 130.500,82.400 130.700,82.400 131.300,82.400 131.800,82.600 132.200,83.100 133.100,84.200 134.200,85.200 135.200,86.200 135.300,86.300 135.400,86.500 135.600,86.400 135.700,86.200 135.900,85.900 136.000,85.700 136.100,85.500 136.300,85.200 136.400,85.000 136.800,84.300 137.500,84.100 138.300,84.300 138.500,84.300 138.700,84.400 138.900,84.500 140.400,85.100 141.900,85.700 143.400,86.200 146.000,87.200 148.600,88.200 151.200,89.200 152.400,89.700 153.700,89.900 155.100,89.800 155.400,89.800 155.600,89.700 155.900,89.500 156.400,89.100 156.600,88.600 156.800,88.100 157.000,87.300 157.000,86.600 157.100,85.800 157.200,83.900 157.200,82.100 157.400,80.300 157.600,79.000 158.000,77.700 158.800,76.700 159.100,76.300 159.500,75.800 159.800,75.400 161.300,73.200 162.700,71.000 164.200,68.800 167.200,64.200 170.300,59.700 173.300,55.100 174.500,53.300 176.200,52.100 178.300,51.500 179.100,51.300 179.900,51.000 180.700,50.700 181.300,50.400 181.800,50.100 182.400,49.700 182.800,49.400 183.000,49.000 183.100,48.500 183.100,48.300 183.100,48.100 183.100,47.900 183.100,46.600 183.100,45.400 183.100,44.100 183.100,43.300 183.100,42.600 183.200,41.800 183.900,37.200 187.300,33.500 191.600,32.400 192.200,32.200 192.800,32.100 193.400,32.000 193.500,32.000 193.700,31.800 193.800,32.000 193.600,32.100 193.500,31.900 193.300,31.900 193.100,31.900 192.900,31.900 192.700,31.900 191.400,31.900 190.200,31.800 188.900,31.800 185.900,31.700 182.900,31.600 180.000,31.500 179.000,31.500 177.900,31.400 176.900,31.400 176.800,31.400 176.600,31.400 176.600,31.200 176.500,30.700 176.500,30.700 176.000,30.700 175.600,30.700 175.200,30.700 174.800,30.700 174.500,30.700 174.300,30.700 174.100,30.600 171.600,29.900 169.000,29.200 166.500,28.600 166.100,28.300 165.600,28.200 165.200,28.000 Z M 178.800,25.000 C 177.900,25.000 177.000,25.000 176.100,25.000 175.700,25.000 175.200,25.000 174.800,25.100 172.900,25.300 171.000,25.500 169.100,25.700 168.600,25.800 168.000,25.800 167.500,25.900 167.300,25.900 167.200,26.100 167.200,26.200 167.200,26.500 167.200,26.600 167.600,26.700 167.800,26.800 168.000,26.800 168.200,26.900 170.100,27.400 172.100,27.900 174.000,28.500 174.500,28.600 174.900,28.700 175.400,28.700 176.300,28.700 177.100,28.700 178.000,28.700 178.300,28.700 178.300,28.700 178.400,29.000 178.500,29.400 178.500,29.400 178.800,29.400 179.800,29.400 180.800,29.500 181.700,29.500 185.200,29.600 188.800,29.700 192.300,29.800 197.700,30.000 203.100,30.100 208.500,30.300 212.300,30.400 216.000,30.500 219.800,30.700 220.700,30.700 220.600,30.700 220.600,31.500 220.600,31.600 220.600,31.700 220.600,31.800 220.600,32.100 220.600,32.100 221.000,32.100 222.500,32.100 224.000,32.100 225.500,32.100 225.700,32.100 225.900,32.000 226.100,32.000 227.000,31.800 228.000,31.500 228.900,31.200 230.700,30.700 232.600,30.200 234.400,29.700 234.700,29.600 234.800,29.600 234.800,29.300 234.800,28.900 234.800,28.400 234.800,28.000 234.800,27.700 234.700,27.600 234.400,27.500 232.600,26.800 230.700,26.100 228.900,25.300 228.700,25.200 228.500,25.200 228.300,25.100 227.700,25.000 227.100,25.000 226.500,24.900 225.000,24.800 223.400,24.600 221.900,24.500 220.700,24.400 220.900,24.300 220.800,25.400 220.800,25.400 220.800,25.500 220.800,25.500 220.800,25.700 220.700,25.800 220.500,25.800 219.900,25.800 219.300,25.800 218.600,25.800 215.300,25.600 212.100,25.500 208.800,25.300 205.700,25.200 202.700,25.000 199.600,24.900 198.300,24.800 196.900,24.800 195.600,24.700 192.500,24.600 189.400,24.400 186.300,24.300 184.400,24.200 182.400,24.100 180.500,24.000 179.900,24.000 179.400,23.900 178.800,24.000 178.800,24.400 179.000,24.700 178.800,25.000 Z M 224.200,22.600 C 225.100,22.100 225.900,22.200 226.800,22.200 229.400,22.200 232.000,22.200 234.500,22.200 234.800,22.200 235.100,22.200 235.300,22.200 235.600,22.200 235.600,22.100 235.700,21.900 235.700,21.400 235.700,20.800 235.700,20.300 235.700,18.700 235.700,17.100 235.700,15.500 235.700,15.100 235.700,15.100 235.300,15.100 235.000,15.100 234.700,15.100 234.500,15.100 231.700,15.100 228.900,15.100 226.100,15.100 225.600,15.100 225.000,15.100 224.500,14.800 224.400,14.800 224.300,14.800 224.200,14.800 224.200,14.900 224.100,15.000 224.100,15.000 224.200,17.500 224.200,19.900 224.200,22.600 Z M 167.700,7.400 C 167.800,7.400 167.900,7.400 167.900,7.400 170.400,7.500 172.800,7.600 175.300,7.600 175.800,7.600 176.300,7.600 176.800,7.700 177.000,7.700 177.100,7.600 177.100,7.400 177.100,7.200 177.100,7.000 177.100,6.800 177.100,6.600 177.200,6.500 177.400,6.500 177.600,6.500 177.700,6.500 177.900,6.500 179.600,6.500 181.300,6.500 183.000,6.500 183.400,6.500 183.700,6.500 184.100,6.500 184.300,6.800 184.200,7.200 184.200,7.600 184.200,7.800 184.300,7.900 184.500,7.900 186.100,7.900 187.700,8.000 189.300,8.000 190.400,8.000 190.400,8.200 190.200,7.000 190.100,6.300 189.700,5.700 189.000,5.500 188.200,5.200 187.400,4.900 186.600,4.900 186.300,4.900 186.000,4.900 185.700,4.900 182.200,4.800 178.700,4.800 175.300,4.700 174.000,4.700 172.700,4.700 171.400,4.600 170.700,4.600 170.000,4.700 169.300,4.900 168.100,5.500 167.600,6.400 167.700,7.400 Z M 177.200,8.800 C 176.600,8.800 176.100,8.700 175.700,8.700 174.700,8.700 173.700,8.600 172.800,8.600 170.600,8.500 168.500,8.400 166.300,8.400 166.000,8.400 166.000,8.500 166.000,8.700 166.000,9.900 165.900,11.100 165.900,12.200 165.900,12.400 166.000,12.500 166.200,12.500 166.300,12.500 166.500,12.500 166.600,12.500 170.000,12.500 173.300,12.500 176.700,12.500 176.800,12.500 177.000,12.500 177.100,12.500 177.200,12.500 177.300,12.400 177.300,12.300 177.200,11.200 177.200,10.000 177.200,8.800 Z M 189.800,9.200 C 189.800,9.200 189.800,9.200 189.800,9.200 188.100,9.200 186.300,9.100 184.600,9.000 184.300,9.000 184.200,9.100 184.200,9.400 184.200,10.400 184.200,11.300 184.100,12.300 184.100,12.700 184.100,12.700 184.500,12.800 187.000,12.900 189.500,13.000 192.000,13.100 192.600,13.100 193.100,13.200 193.700,13.200 194.200,13.200 194.700,13.200 195.200,13.200 195.400,13.200 195.500,13.100 195.500,12.900 195.500,11.800 195.500,10.700 195.500,9.600 195.500,9.300 195.400,9.300 195.100,9.300 193.300,9.300 191.500,9.200 189.800,9.200 Z M 223.200,18.400 C 223.200,17.100 223.200,15.800 223.200,14.500 223.200,14.000 223.100,13.900 222.600,13.900 221.700,13.900 220.700,13.900 219.800,13.900 219.500,13.900 219.500,14.000 219.500,14.300 219.500,14.500 219.500,14.700 219.500,14.900 219.500,16.500 219.500,18.200 219.500,19.800 219.500,20.600 219.500,21.300 219.500,22.100 219.500,22.400 219.500,22.500 219.900,22.500 220.800,22.600 221.700,22.600 222.600,22.800 223.200,22.900 223.200,22.900 223.200,22.200 223.200,20.900 223.200,19.700 223.200,18.400 Z M 183.000,10.900 C 183.100,10.900 183.100,10.900 183.000,10.900 183.100,9.900 183.100,8.900 183.100,8.000 183.100,7.700 183.000,7.600 182.800,7.600 181.400,7.600 179.900,7.600 178.500,7.600 178.200,7.600 178.100,7.600 178.100,7.900 178.100,8.100 178.100,8.300 178.100,8.600 178.100,10.300 178.100,11.900 178.100,13.600 178.100,14.000 178.200,14.000 178.500,14.000 179.900,14.000 181.200,14.000 182.600,14.000 182.900,14.000 183.000,13.900 183.000,13.600 183.000,12.700 183.000,11.800 183.000,10.900 Z M 204.100,37.000 C 204.600,36.200 205.000,35.500 205.600,34.800 206.500,33.900 207.500,33.400 208.800,33.300 209.300,33.300 209.800,33.300 210.300,33.300 211.500,33.300 212.800,33.300 214.000,33.300 214.700,33.300 215.400,33.100 216.100,32.800 216.200,32.800 216.200,32.700 216.200,32.600 216.200,32.500 216.100,32.500 216.000,32.500 216.000,32.500 215.900,32.500 215.900,32.500 214.100,32.400 212.300,32.400 210.400,32.300 207.000,32.200 203.600,32.100 200.200,32.000 199.200,32.000 198.100,32.000 197.100,31.900 197.000,31.900 196.900,31.900 196.800,31.900 196.800,31.900 196.600,31.800 196.700,32.000 199.800,32.700 202.200,34.300 204.100,37.000 Z M 133.300,19.200 C 133.300,20.100 133.300,21.000 133.300,22.000 133.300,22.500 133.300,22.500 133.900,22.500 134.600,22.500 135.300,22.500 136.000,22.500 136.400,22.500 136.900,22.600 137.300,22.400 137.400,22.000 137.400,21.600 137.400,21.200 137.400,19.600 137.400,17.900 137.400,16.300 137.400,15.900 137.400,15.900 137.000,15.900 135.900,15.900 134.800,15.900 133.700,15.900 133.300,15.900 133.300,15.900 133.300,16.400 133.300,17.300 133.300,18.200 133.300,19.200 Z M 148.900,9.300 C 149.000,9.300 149.000,9.400 149.100,9.400 151.000,9.400 152.800,9.400 154.700,9.400 154.800,9.400 154.900,9.400 154.900,9.200 154.900,9.100 154.800,9.000 154.700,8.900 154.600,8.800 154.500,8.800 154.400,8.800 153.800,8.700 153.100,8.700 152.500,8.700 151.800,8.700 151.200,8.600 150.500,8.400 149.800,8.200 149.400,7.800 149.200,7.100 149.100,6.500 149.200,6.400 149.800,6.400 150.000,6.400 150.100,6.400 150.300,6.400 153.700,6.400 157.100,6.500 160.600,6.500 161.200,6.500 161.700,6.500 162.200,6.800 162.300,6.900 162.500,6.900 162.700,6.900 163.200,7.000 163.700,7.100 164.200,7.200 164.900,7.300 165.600,7.400 166.300,7.500 166.600,7.500 166.700,7.500 166.700,7.100 166.700,7.000 166.700,7.000 166.700,6.900 166.700,6.300 166.900,5.800 167.300,5.300 167.400,5.200 167.400,5.100 167.400,5.000 167.400,5.000 167.300,5.000 167.200,5.000 165.700,5.200 164.100,5.300 162.600,5.500 162.400,5.500 162.300,5.600 162.100,5.700 161.600,6.100 161.100,6.100 160.500,6.100 156.100,6.100 151.600,6.100 147.200,6.100 146.200,6.100 145.100,6.100 144.100,6.100 143.900,6.100 143.700,6.000 143.700,6.200 143.700,6.500 144.000,6.400 144.200,6.400 145.300,6.400 146.300,6.400 147.400,6.400 148.000,6.400 148.500,6.700 148.700,7.200 148.900,7.600 149.000,8.000 149.000,8.500 149.000,8.700 149.000,9.000 148.900,9.300 Z M 239.200,18.700 C 239.200,17.400 239.200,16.100 239.200,14.800 239.200,13.200 239.500,13.600 237.900,13.500 237.700,13.500 237.600,13.600 237.600,13.800 237.600,14.100 237.600,14.300 237.600,14.600 237.600,15.000 237.600,15.000 237.200,15.100 237.100,15.100 237.100,15.100 237.000,15.100 236.800,15.100 236.700,15.200 236.700,15.400 236.700,15.500 236.700,15.700 236.700,15.800 236.700,17.700 236.700,19.700 236.700,21.600 236.700,21.700 236.700,21.900 236.700,22.000 236.700,22.100 236.700,22.200 236.900,22.200 237.100,22.300 237.400,22.100 237.500,22.300 237.600,22.500 237.500,22.700 237.500,23.000 237.500,23.200 237.500,23.300 237.500,23.500 237.500,23.600 237.600,23.700 237.700,23.700 238.100,23.700 238.500,23.700 239.000,23.700 239.100,23.700 239.200,23.600 239.200,23.500 239.200,23.300 239.200,23.200 239.200,23.000 239.200,21.600 239.200,20.100 239.200,18.700 Z M 196.900,7.900 C 197.000,7.900 197.200,7.900 197.300,7.900 199.000,7.600 200.800,7.400 202.500,7.100 203.400,7.000 204.300,6.800 205.300,6.800 206.800,6.900 208.400,7.000 209.900,7.100 212.000,7.200 214.000,7.400 216.100,7.500 217.200,7.600 218.400,7.700 219.500,7.800 220.400,7.900 221.300,7.900 222.300,8.000 222.400,8.000 222.500,8.000 222.600,7.900 222.600,7.700 222.500,7.700 222.400,7.700 221.900,7.700 221.300,7.600 220.800,7.600 218.300,7.400 215.800,7.300 213.300,7.100 210.600,6.900 207.900,6.700 205.200,6.600 204.800,6.600 204.400,6.600 204.100,6.300 204.000,6.200 203.700,6.100 203.600,6.100 201.500,5.800 199.400,5.400 197.300,5.100 197.100,5.100 197.000,5.000 196.800,5.200 196.800,6.000 196.800,6.900 196.800,7.800 196.800,7.700 196.900,7.800 196.900,7.900 Z M 151.000,7.400 C 151.700,7.700 152.300,7.700 152.900,7.700 153.500,7.700 154.100,7.800 154.700,7.800 155.200,7.800 155.500,8.100 155.800,8.500 155.900,8.600 156.000,8.700 156.000,8.900 156.100,9.300 156.400,9.400 156.800,9.400 157.400,9.400 158.100,9.400 158.700,9.400 160.700,9.400 162.600,9.400 164.600,9.400 165.000,9.400 165.000,9.400 165.000,9.000 165.000,8.900 165.000,8.700 165.000,8.600 165.000,8.400 164.900,8.300 164.700,8.300 164.300,8.200 163.900,8.200 163.500,8.100 162.800,8.000 162.100,8.000 161.500,7.600 161.300,7.500 161.100,7.500 160.900,7.500 158.800,7.500 156.600,7.400 154.500,7.400 153.300,7.400 152.200,7.400 151.000,7.400 Z M 190.200,5.200 C 190.900,5.900 191.200,6.800 191.200,7.600 191.200,7.700 191.200,7.800 191.200,7.900 191.200,8.100 191.300,8.200 191.500,8.200 192.100,8.200 192.700,8.300 193.300,8.300 194.000,8.300 194.700,8.300 195.400,8.300 195.600,8.300 195.700,8.200 195.700,8.000 195.700,7.100 195.700,6.200 195.700,5.300 195.700,5.200 195.600,5.100 195.500,5.100 195.400,5.100 195.300,5.100 195.200,5.100 193.600,5.100 192.100,5.100 190.500,5.000 190.500,5.100 190.400,5.100 190.200,5.200 Z M 249.100,18.600 C 249.100,16.400 249.100,14.200 249.100,12.000 249.100,11.800 249.100,11.600 249.100,11.300 249.100,11.100 249.000,11.000 248.800,11.000 248.500,11.000 248.400,11.100 248.400,11.400 248.400,11.600 248.400,11.800 248.400,12.100 248.400,16.400 248.400,20.700 248.400,25.000 248.400,25.200 248.400,25.400 248.400,25.700 248.400,26.000 248.400,26.100 248.800,26.100 249.100,26.100 249.200,26.100 249.200,25.800 249.200,25.600 249.200,25.400 249.200,25.200 249.100,23.000 249.100,20.800 249.100,18.600 Z M 247.800,18.600 C 247.800,16.400 247.800,14.200 247.800,12.000 247.800,11.800 247.800,11.600 247.800,11.300 247.800,11.200 247.700,11.200 247.600,11.100 247.300,11.000 247.100,11.200 247.100,11.400 247.100,11.600 247.100,11.700 247.100,11.900 247.100,16.300 247.100,20.600 247.100,25.000 247.100,25.200 247.100,25.300 247.100,25.500 247.100,25.700 247.300,25.800 247.500,25.800 247.700,25.800 247.700,25.700 247.700,25.500 247.700,25.300 247.700,25.100 247.700,24.800 247.800,22.900 247.800,20.800 247.800,18.600 Z M 243.900,18.700 C 243.900,16.700 243.900,14.700 243.900,12.700 243.900,12.500 243.900,12.300 243.900,12.100 243.900,11.800 243.800,11.700 243.600,11.700 243.300,11.700 243.200,11.800 243.200,12.100 243.200,12.200 243.200,12.200 243.200,12.300 243.200,16.500 243.200,20.700 243.200,24.900 243.200,25.000 243.200,25.100 243.200,25.200 243.300,25.400 243.400,25.400 243.600,25.400 243.800,25.400 243.800,25.300 243.800,25.100 243.800,24.900 243.800,24.700 243.800,24.400 243.900,22.600 243.900,20.600 243.900,18.700 Z M 242.500,25.300 C 242.600,25.000 242.600,24.800 242.600,24.500 242.600,20.600 242.600,16.600 242.600,12.700 242.600,12.500 242.600,12.300 242.600,12.100 242.600,11.900 242.500,11.900 242.300,11.900 241.900,11.900 241.800,12.000 241.800,12.300 241.800,12.400 241.800,12.500 241.800,12.600 241.800,16.600 241.800,20.600 241.800,24.600 241.800,24.700 241.800,24.900 241.800,25.000 241.800,25.100 241.900,25.200 242.000,25.200 242.100,25.300 242.300,25.400 242.500,25.300 Z M 260.900,21.000 C 261.700,20.700 262.500,20.400 263.300,20.100 263.500,20.000 263.500,19.900 263.500,19.700 263.500,18.900 263.500,18.200 263.500,17.400 263.500,17.200 263.400,17.000 263.200,17.000 262.500,16.800 261.800,16.500 261.100,16.200 260.900,16.100 260.800,16.200 260.800,16.400 260.800,17.800 260.800,19.300 260.800,20.700 260.800,20.800 260.900,20.900 260.900,21.000 Z M 251.700,18.500 C 251.700,16.200 251.700,13.900 251.700,11.700 251.700,11.500 251.700,11.300 251.700,11.000 251.700,10.900 251.600,10.800 251.500,10.800 251.200,10.800 251.100,10.900 251.100,11.100 251.100,11.300 251.100,11.400 251.100,11.600 251.100,16.200 251.100,20.800 251.100,25.400 251.100,25.600 251.100,25.800 251.100,26.000 251.100,26.200 251.200,26.300 251.400,26.300 251.600,26.300 251.700,26.200 251.700,26.000 251.700,25.800 251.700,25.600 251.700,25.300 251.700,23.100 251.700,20.800 251.700,18.500 Z M 254.200,18.500 C 254.200,16.200 254.200,13.900 254.200,11.700 254.200,11.500 254.200,11.300 254.200,11.000 254.200,10.900 254.100,10.800 254.000,10.800 253.700,10.800 253.600,10.900 253.600,11.100 253.600,11.300 253.600,11.400 253.600,11.600 253.600,16.200 253.600,20.800 253.600,25.400 253.600,25.600 253.600,25.800 253.600,26.000 253.600,26.200 253.700,26.300 253.900,26.300 254.100,26.300 254.200,26.200 254.200,26.000 254.200,25.800 254.200,25.600 254.200,25.300 254.200,23.100 254.200,20.800 254.200,18.500 Z M 258.100,18.600 C 258.100,16.300 258.100,14.000 258.100,11.700 258.100,11.500 258.100,11.300 258.100,11.000 258.100,10.900 258.000,10.800 257.900,10.800 257.600,10.800 257.500,10.900 257.500,11.100 257.500,11.300 257.500,11.500 257.500,11.800 257.500,15.300 257.500,18.700 257.500,22.200 257.500,23.400 257.500,24.600 257.500,25.700 257.500,25.900 257.500,26.000 257.500,26.200 257.500,26.400 257.700,26.400 257.800,26.400 257.900,26.400 258.000,26.400 258.000,26.200 258.000,26.000 258.000,25.800 258.000,25.500 258.100,23.200 258.100,20.900 258.100,18.600 Z M 256.800,18.600 C 256.800,16.300 256.800,14.100 256.800,11.800 256.800,11.600 256.800,11.400 256.800,11.100 256.800,10.900 256.700,10.800 256.500,10.800 256.200,10.800 256.100,10.900 256.100,11.100 256.100,11.200 256.100,11.300 256.100,11.400 256.100,16.200 256.100,21.000 256.100,25.800 256.100,25.900 256.100,26.100 256.100,26.200 256.100,26.300 256.200,26.300 256.300,26.400 256.600,26.500 256.800,26.400 256.800,26.100 256.800,25.900 256.800,25.700 256.800,25.400 256.800,23.100 256.800,20.900 256.800,18.600 Z M 246.400,18.600 C 246.400,16.500 246.400,14.400 246.400,12.300 246.400,12.100 246.400,11.900 246.400,11.600 246.400,11.400 246.300,11.400 246.100,11.400 245.900,11.400 245.800,11.500 245.800,11.600 245.800,11.800 245.800,12.000 245.800,12.200 245.800,13.200 245.800,14.200 245.800,15.100 245.800,18.400 245.800,21.600 245.800,24.900 245.800,25.100 245.800,25.400 245.800,25.600 245.800,25.700 246.000,25.800 246.100,25.800 246.200,25.800 246.300,25.700 246.300,25.600 246.300,25.400 246.300,25.200 246.300,24.900 246.400,22.800 246.400,20.700 246.400,18.600 Z M 241.100,18.700 C 241.100,17.200 241.100,15.800 241.100,14.300 241.100,14.100 241.100,13.900 241.100,13.600 241.100,13.500 241.000,13.400 240.900,13.400 240.800,13.400 240.800,13.400 240.700,13.400 240.200,13.400 240.200,13.400 240.200,13.800 240.200,13.900 240.200,14.000 240.200,14.100 240.200,17.000 240.200,19.900 240.200,22.800 240.200,23.000 240.200,23.100 240.200,23.300 240.200,23.500 240.300,23.500 240.500,23.500 240.600,23.500 240.600,23.500 240.700,23.500 241.100,23.500 241.200,23.500 241.200,23.000 241.100,21.700 241.100,20.200 241.100,18.700 Z M 252.400,18.500 C 252.400,20.800 252.400,23.200 252.400,25.500 252.400,25.700 252.400,25.900 252.400,26.200 252.400,26.300 252.500,26.400 252.600,26.400 252.700,26.400 252.800,26.400 252.900,26.200 252.900,26.000 252.900,25.800 252.900,25.500 252.900,22.900 252.900,20.400 252.900,17.800 252.900,15.700 252.900,13.600 252.900,11.500 252.900,11.300 252.900,11.100 252.900,10.900 252.900,10.800 252.800,10.800 252.700,10.800 252.600,10.800 252.400,10.800 252.400,10.900 252.400,11.100 252.400,11.300 252.400,11.500 252.400,13.900 252.400,16.200 252.400,18.500 Z M 254.900,18.600 C 254.900,20.900 254.900,23.200 254.900,25.500 254.900,25.700 254.900,25.900 254.900,26.200 254.900,26.300 255.000,26.400 255.100,26.400 255.200,26.400 255.300,26.400 255.400,26.200 255.400,26.000 255.400,25.800 255.400,25.500 255.400,22.800 255.400,20.200 255.400,17.500 255.400,15.500 255.400,13.500 255.400,11.500 255.400,11.300 255.400,11.100 255.400,10.900 255.400,10.800 255.300,10.800 255.200,10.800 255.100,10.800 254.900,10.800 254.900,10.900 254.900,11.100 254.900,11.300 254.900,11.500 254.900,13.900 254.900,16.300 254.900,18.600 Z M 258.700,18.600 C 258.700,20.900 258.700,23.200 258.700,25.400 258.700,25.600 258.700,25.800 258.700,26.100 258.700,26.200 258.700,26.400 258.900,26.400 259.100,26.400 259.200,26.300 259.200,26.200 259.200,26.000 259.200,25.800 259.200,25.500 259.200,22.000 259.200,18.600 259.200,15.100 259.200,14.000 259.200,12.900 259.200,11.700 259.200,11.500 259.200,11.300 259.200,11.100 259.200,10.900 259.100,10.800 259.000,10.800 258.800,10.800 258.700,10.900 258.700,11.000 258.700,11.200 258.700,11.400 258.700,11.700 258.700,14.000 258.700,16.300 258.700,18.600 Z M 250.400,18.600 C 250.400,16.300 250.400,14.100 250.400,11.800 250.400,11.600 250.400,11.400 250.400,11.100 250.400,10.900 250.300,10.800 250.100,10.900 249.900,10.900 249.800,11.000 249.800,11.100 249.800,11.300 249.800,11.500 249.800,11.800 249.800,14.000 249.800,16.100 249.800,18.300 249.800,20.700 249.800,23.100 249.800,25.400 249.800,25.600 249.800,25.900 249.800,26.100 249.800,26.300 250.000,26.300 250.100,26.300 250.200,26.300 250.300,26.200 250.300,26.100 250.300,25.900 250.300,25.700 250.300,25.400 250.400,23.200 250.400,20.900 250.400,18.600 Z M 245.100,18.600 C 245.100,16.600 245.100,14.500 245.100,12.500 245.100,12.300 245.100,12.100 245.100,11.800 245.100,11.600 245.000,11.500 244.800,11.600 244.600,11.600 244.500,11.700 244.500,11.800 244.500,11.900 244.500,12.000 244.500,12.100 244.500,16.400 244.500,20.700 244.500,25.100 244.500,25.200 244.500,25.300 244.500,25.400 244.500,25.600 244.700,25.600 244.800,25.600 244.900,25.600 245.000,25.500 245.000,25.400 245.000,25.200 245.000,25.000 245.000,24.700 245.100,22.700 245.100,20.700 245.100,18.600 Z M 260.000,26.300 C 260.000,26.200 260.100,26.200 260.100,26.200 260.100,21.200 260.100,16.200 260.100,11.100 260.100,11.000 260.000,11.000 260.000,10.900 260.000,10.900 259.900,11.000 259.900,11.000 259.900,16.000 259.900,21.000 259.900,26.100 259.900,26.200 260.000,26.200 260.000,26.300 Z M 135.600,23.500 C 134.900,23.500 134.300,23.500 133.700,23.500 133.500,23.500 133.400,23.600 133.400,23.900 133.400,24.100 133.500,24.200 133.700,24.200 134.300,24.300 135.000,24.200 135.600,23.500 Z M 234.600,25.300 C 234.600,25.300 234.600,25.300 234.600,25.300 234.500,25.100 234.300,25.100 234.100,25.200 234.100,25.200 234.100,25.300 234.100,25.300 234.300,25.400 234.400,25.500 234.600,25.300 234.600,25.400 234.600,25.300 234.600,25.300 Z " />
  <path stroke="none" fill="#ffffffff" d="M 178.900,21.400 C 176.000,21.300 173.200,21.200 170.300,21.100 169.900,21.100 169.600,21.000 169.200,21.000 168.000,20.900 166.800,19.700 166.800,18.100 166.900,16.800 167.900,15.500 169.400,15.400 169.700,15.400 169.900,15.400 170.200,15.400 173.100,15.500 176.000,15.500 179.000,15.700 181.000,15.800 183.000,15.800 185.000,16.000 185.900,16.100 186.900,16.100 187.800,16.100 188.100,16.100 188.400,16.200 188.600,16.200 189.800,16.400 191.100,17.600 190.900,19.400 190.700,20.800 189.600,21.900 188.000,21.900 186.500,21.900 185.000,21.800 183.500,21.700 181.900,21.500 180.400,21.500 178.900,21.400 178.900,21.400 178.900,21.400 178.900,21.400 Z M 178.600,17.000 C 178.400,17.000 178.100,17.000 177.800,17.000 175.100,16.900 172.500,16.800 169.800,16.700 169.700,16.700 169.600,16.700 169.500,16.700 168.700,16.800 168.100,17.400 168.100,18.200 168.100,19.000 168.700,19.600 169.500,19.600 169.600,19.600 169.700,19.600 169.800,19.600 172.100,19.700 174.500,19.800 176.800,19.900 179.500,20.000 182.200,20.100 185.000,20.200 185.800,20.200 186.700,20.300 187.500,20.300 188.000,20.300 188.500,20.200 188.900,19.800 189.300,19.400 189.400,18.900 189.200,18.300 189.000,17.700 188.600,17.400 188.000,17.300 187.400,17.200 186.800,17.200 186.200,17.200 183.700,17.200 181.200,17.100 178.600,17.000 Z " />
  <path stroke="none" fill="#ffffffff" d="M 162.600,30.700 C 163.400,30.800 164.200,30.900 165.100,31.000 167.100,31.200 169.000,31.400 171.000,31.600 173.300,31.900 175.600,32.100 177.900,32.400 179.100,32.500 180.200,32.700 181.400,32.800 181.600,32.800 181.800,32.900 182.000,32.900 182.800,33.200 183.100,34.100 182.700,34.900 182.600,35.100 182.500,35.200 182.400,35.300 175.100,46.700 167.800,58.000 160.500,69.400 159.500,70.900 158.600,72.400 157.600,73.900 157.400,74.200 157.200,74.600 157.000,74.900 156.300,76.000 155.900,77.300 155.700,78.600 155.500,79.800 155.600,81.000 155.500,82.200 155.500,83.400 155.500,84.500 155.500,85.700 155.500,85.900 155.500,86.000 155.500,86.200 155.400,87.100 155.000,87.500 154.100,87.600 153.600,87.600 153.200,87.600 152.800,87.500 151.700,87.200 150.700,86.800 149.700,86.400 145.800,85.000 142.000,83.600 138.100,82.200 136.900,81.700 135.700,81.200 134.500,80.700 133.700,80.300 133.200,79.500 133.300,78.600 133.400,77.900 133.500,77.200 133.900,76.500 135.100,74.300 136.200,72.100 137.300,69.900 137.600,69.400 137.900,69.000 138.200,68.500 144.700,57.800 151.200,47.200 157.700,36.500 158.500,35.100 159.400,33.700 160.200,32.300 160.300,32.100 160.400,32.000 160.500,31.800 161.000,30.900 161.700,30.700 162.600,30.700 Z M 134.800,78.500 C 134.800,79.100 134.900,79.200 135.300,79.300 135.900,79.500 136.400,79.800 137.000,80.000 137.300,80.100 137.600,80.300 137.900,80.300 138.100,80.300 138.400,80.000 138.600,79.900 142.400,77.500 147.500,79.300 149.000,83.500 149.100,83.700 149.100,84.000 149.200,84.200 149.300,84.400 149.300,84.500 149.600,84.600 150.800,85.000 152.000,85.400 153.200,85.900 153.400,86.000 153.600,86.000 153.900,86.000 154.000,86.000 154.100,85.900 154.100,85.800 154.100,85.700 154.100,85.500 154.100,85.400 154.100,83.700 154.100,81.900 154.100,80.200 154.100,78.900 154.400,77.600 154.700,76.400 154.800,76.200 154.800,76.000 154.900,75.800 155.300,75.100 155.600,74.400 156.000,73.800 158.500,69.800 161.100,65.900 163.700,61.900 169.500,52.900 175.300,43.900 181.000,34.900 181.400,34.300 181.300,34.100 180.600,34.000 178.800,33.800 177.100,33.700 175.300,33.500 173.500,33.300 171.700,33.100 169.900,32.900 168.000,32.700 166.000,32.500 164.100,32.300 163.500,32.200 163.000,32.200 162.400,32.100 162.200,32.100 162.100,32.100 162.000,32.300 161.900,32.500 161.800,32.600 161.700,32.800 160.300,35.100 158.800,37.500 157.400,39.800 151.600,49.200 145.900,58.700 140.100,68.100 138.300,71.000 136.800,74.000 135.200,77.000 135.000,77.600 134.800,78.100 134.800,78.500 Z M 139.700,81.100 C 139.800,81.200 139.900,81.300 140.000,81.300 142.800,82.400 146.800,83.800 147.500,84.000 147.200,82.700 146.000,81.500 144.500,80.800 143.000,80.100 141.300,80.200 139.700,81.100 Z " />
  <path stroke="none" fill="#ffffffff" d="M 141.300,30.300 C 140.500,30.300 139.800,30.300 139.000,30.300 138.800,30.300 138.600,30.300 138.400,30.300 138.200,30.300 138.000,30.100 138.000,29.900 138.000,29.800 138.000,29.700 137.900,29.600 137.900,29.000 137.900,28.500 137.900,27.900 137.900,27.300 138.200,27.100 138.700,27.100 140.400,27.100 142.100,27.100 143.800,27.100 144.400,27.100 144.500,27.300 144.600,27.900 144.600,28.500 144.600,29.100 144.600,29.700 144.600,30.100 144.400,30.300 144.000,30.300 143.100,30.300 142.200,30.300 141.300,30.300 141.300,30.300 141.300,30.300 141.300,30.300 Z M 141.400,29.300 C 141.400,29.300 141.400,29.300 141.400,29.300 142.100,29.300 142.700,29.300 143.400,29.300 143.600,29.300 143.700,29.200 143.700,29.000 143.700,28.800 143.700,28.600 143.700,28.400 143.700,28.100 143.600,28.100 143.300,28.100 142.100,28.100 140.900,28.100 139.700,28.100 138.800,28.100 138.900,28.000 138.900,28.900 138.900,28.900 138.900,29.000 138.900,29.000 138.900,29.200 139.000,29.300 139.200,29.300 140.000,29.300 140.700,29.300 141.400,29.300 Z " />
  <path stroke="none" fill="#ffffffff" d="M 167.100,48.400 C 163.300,48.500 160.100,45.200 160.100,41.400 160.100,37.700 163.000,34.400 167.100,34.400 171.000,34.400 174.100,37.500 174.100,41.400 174.100,45.400 170.800,48.400 167.100,48.400 Z M 171.600,41.300 C 171.600,39.000 169.700,36.600 166.900,36.700 164.000,36.700 162.200,39.100 162.300,41.400 162.300,43.700 164.100,46.000 167.000,46.000 169.900,46.000 171.700,43.600 171.600,41.300 Z " />
  <path stroke="none" fill="#ffffffff" d="M 145.600,70.900 C 145.600,69.600 146.600,68.600 147.900,68.500 149.300,68.500 150.300,69.600 150.300,70.900 150.300,72.200 149.200,73.300 147.900,73.300 146.700,73.200 145.600,72.200 145.600,70.900 Z " />
  <path stroke="none" fill="#ffffffff" d="M 170.600,41.400 C 170.700,43.100 169.300,45.000 167.000,45.000 164.700,45.000 163.300,43.100 163.300,41.300 163.300,39.600 164.600,37.700 166.900,37.700 169.200,37.700 170.700,39.600 170.600,41.400 Z M 168.800,41.500 C 168.800,40.500 168.000,39.600 166.900,39.600 165.900,39.600 164.900,40.500 165.000,41.500 165.000,42.500 165.800,43.400 166.900,43.400 168.200,43.300 168.800,42.400 168.800,41.500 Z " />
</svg>