<?xml version="1.0" encoding="UTF-8" standalone="no"?>
<!DOCTYPE svg PUBLIC "-//W3C//DTD SVG 20010904//EN" "http://www.w3.org/TR/2001/REC-SVG-20010904/DTD/svg10.dtd"[]>
<svg version="1.1" id="Frosty Editor v1.0.6.3" xmlns="http://www.w3.org/2000/svg" d1p1:xlink="http://www.w3.org/1999/xlink" viewBox="0 0 384 96" xmlns:d1p1="xmlns">
  <path stroke="none" fill="#ffffffff" d="M 105.770,61.810 C 104.010,65.713 102.250,69.617 100.490,73.520 100.325,73.885 100.020,74.168 99.644,74.307 99.269,74.446 98.853,74.429 98.490,74.260 97.457,73.783 96.423,73.307 95.390,72.830 95.027,72.663 94.746,72.357 94.609,71.982 94.472,71.606 94.490,71.192 94.660,70.830 96.420,66.927 98.180,63.023 99.940,59.120 100.105,58.758 100.407,58.478 100.780,58.340 101.148,58.186 101.562,58.186 101.930,58.340 102.963,58.817 103.997,59.293 105.030,59.770 105.405,59.935 105.697,60.246 105.837,60.632 105.976,61.017 105.952,61.443 105.770,61.810 105.770,61.810 105.770,61.810 105.770,61.810 Z M 105.460,58.910 C 104.427,58.433 103.393,57.957 102.360,57.480 101.753,57.189 101.053,57.156 100.421,57.387 99.788,57.619 99.276,58.096 99.000,58.710 97.250,62.613 95.500,66.517 93.750,70.420 93.476,71.025 93.454,71.713 93.689,72.334 93.923,72.955 94.395,73.457 95.000,73.730 96.033,74.207 97.067,74.683 98.100,75.160 98.703,75.438 99.392,75.465 100.015,75.234 100.638,75.003 101.144,74.534 101.420,73.930 103.180,70.027 104.940,66.123 106.700,62.220 107.271,60.964 106.716,59.482 105.460,58.910 105.460,58.910 105.460,58.910 105.460,58.910 Z " />
  <path stroke="none" fill="#ffffffff" d="M 106.210,47.290 C 106.921,47.290 107.562,47.721 107.830,48.380 108.099,49.039 107.941,49.794 107.433,50.292 106.924,50.789 106.165,50.929 105.512,50.645 104.860,50.362 104.444,49.711 104.460,49.000 104.482,48.049 105.259,47.290 106.210,47.290 106.210,47.290 106.210,47.290 106.210,47.290 Z M 106.210,51.790 C 107.724,51.790 108.952,50.567 108.960,49.053 108.967,47.540 107.750,46.305 106.236,46.290 104.723,46.276 103.482,47.487 103.460,49.000 103.449,49.736 103.734,50.446 104.251,50.970 104.768,51.495 105.474,51.790 106.210,51.790 106.210,51.790 106.210,51.790 106.210,51.790 Z " />
  <path stroke="none" fill="#ffffffff" d="M 127.880,32.620 C 128.471,32.620 129.003,32.976 129.229,33.521 129.455,34.067 129.330,34.695 128.912,35.112 128.495,35.530 127.867,35.655 127.321,35.429 126.776,35.203 126.420,34.671 126.420,34.080 126.426,33.278 127.078,32.630 127.880,32.630 127.880,32.627 127.880,32.623 127.880,32.620 Z M 127.880,36.540 C 128.875,36.540 129.772,35.941 130.153,35.021 130.534,34.102 130.323,33.044 129.620,32.341 128.916,31.637 127.858,31.427 126.939,31.807 126.019,32.188 125.420,33.085 125.420,34.080 125.420,35.439 126.521,36.540 127.880,36.540 127.880,36.540 127.880,36.540 127.880,36.540 Z " />
  <path stroke="none" fill="#ffffffff" d="M 139.130,35.550 C 138.324,35.550 137.670,34.896 137.670,34.090 137.670,33.284 138.324,32.630 139.130,32.630 139.936,32.630 140.590,33.284 140.590,34.090 140.585,34.892 139.933,35.540 139.130,35.540 139.130,35.543 139.130,35.547 139.130,35.550 Z M 139.130,31.630 C 137.771,31.630 136.670,32.731 136.670,34.090 136.670,35.449 137.771,36.550 139.130,36.550 140.489,36.550 141.590,35.449 141.590,34.090 141.590,33.438 141.331,32.812 140.870,32.351 140.408,31.889 139.782,31.630 139.130,31.630 139.130,31.630 139.130,31.630 139.130,31.630 Z " />
  <path stroke="none" fill="#ffffffff" d="M 206.000,22.560 C 206.922,22.560 207.670,23.308 207.670,24.230 207.667,24.469 207.613,24.704 207.510,24.920 207.177,24.410 206.843,23.900 206.510,23.390 205.953,23.757 205.397,24.123 204.840,24.490 205.143,24.950 205.447,25.410 205.750,25.870 204.913,25.711 204.329,24.948 204.396,24.098 204.463,23.249 205.158,22.586 206.010,22.560 206.007,22.560 206.003,22.560 206.000,22.560 Z M 206.000,26.900 C 206.130,26.910 206.260,26.910 206.390,26.900 207.740,28.933 209.090,30.967 210.440,33.000 210.997,32.633 211.553,32.267 212.110,31.900 210.777,29.883 209.443,27.867 208.110,25.850 208.466,25.389 208.659,24.823 208.660,24.240 208.664,23.158 208.015,22.181 207.016,21.765 206.018,21.349 204.867,21.577 204.102,22.342 203.337,23.107 203.109,24.258 203.525,25.256 203.941,26.255 204.918,26.904 206.000,26.900 206.000,26.900 206.000,26.900 206.000,26.900 Z " />
  <path stroke="none" fill="#ffffffff" d="M 81.650,57.240 C 81.524,57.362 81.356,57.431 81.180,57.430 80.997,57.446 80.817,57.371 80.700,57.230 80.510,57.037 80.455,56.749 80.560,56.500 80.665,56.251 80.910,56.089 81.180,56.090 81.180,56.090 81.180,56.090 81.180,56.090 81.359,56.090 81.531,56.162 81.657,56.290 81.783,56.418 81.853,56.591 81.850,56.770 81.848,56.947 81.776,57.116 81.650,57.240 81.650,57.240 81.650,57.240 81.650,57.240 Z M 81.190,55.090 C 81.787,55.090 82.338,55.408 82.636,55.925 82.935,56.442 82.935,57.078 82.636,57.595 82.338,58.112 81.787,58.430 81.190,58.430 81.190,58.430 81.190,58.430 81.190,58.430 80.593,58.430 80.042,58.112 79.744,57.595 79.445,57.078 79.445,56.442 79.744,55.925 80.042,55.408 80.593,55.090 81.190,55.090 81.190,55.090 81.190,55.090 81.190,55.090 Z " />
  <path stroke="none" fill="#ffffffff" d="M 341.710,51.150 C 341.710,47.670 341.710,44.190 341.710,40.710 344.807,40.710 347.903,40.710 351.000,40.710 351.000,44.183 351.000,47.657 351.000,51.130 347.903,51.137 344.807,51.143 341.710,51.150 Z M 347.420,53.910 C 347.456,54.256 347.292,54.593 346.997,54.777 346.702,54.961 346.328,54.961 346.033,54.777 345.738,54.593 345.574,54.256 345.610,53.910 345.610,53.657 345.610,53.403 345.610,53.150 346.213,53.150 346.817,53.150 347.420,53.150 347.420,53.403 347.420,53.657 347.420,53.910 Z M 340.710,52.570 C 314.903,52.570 289.097,52.570 263.290,52.570 263.290,51.757 263.290,50.943 263.290,50.130 263.290,50.130 263.290,50.130 263.290,50.130 263.290,46.600 263.290,43.070 263.290,39.540 289.100,39.540 314.910,39.540 340.720,39.540 340.720,39.930 340.720,40.320 340.720,40.710 340.720,40.710 340.720,40.710 340.720,40.710 340.720,44.183 340.720,47.657 340.720,51.130 340.720,51.130 340.720,51.130 340.720,51.130 340.717,51.610 340.713,52.090 340.710,52.570 Z M 257.120,56.570 C 256.731,56.884 256.239,57.041 255.740,57.010 252.827,57.010 249.913,57.010 247.000,57.010 247.000,55.863 247.000,54.717 247.000,53.570 242.930,53.570 238.860,53.570 234.790,53.570 234.790,54.713 234.790,55.857 234.790,57.000 226.320,57.000 217.850,57.000 209.380,57.000 209.380,55.000 209.380,53.000 209.380,51.000 212.207,51.000 215.033,51.000 217.860,51.000 217.860,51.460 217.860,51.920 217.860,52.380 226.380,52.380 234.900,52.380 243.420,52.380 243.420,51.950 243.420,51.520 243.420,51.090 248.183,51.090 252.947,51.090 257.710,51.090 257.710,52.297 257.710,53.503 257.710,54.710 257.777,55.372 257.563,56.033 257.120,56.530 257.120,56.543 257.120,56.557 257.120,56.570 Z M 248.300,60.000 C 247.867,60.000 247.433,60.000 247.000,60.000 247.000,59.667 247.000,59.333 247.000,59.000 247.637,59.000 248.273,59.000 248.910,59.000 248.707,59.333 248.503,59.667 248.300,60.000 Z M 245.000,62.520 C 243.640,63.480 242.280,64.440 240.920,65.400 239.560,64.440 238.200,63.480 236.840,62.520 236.840,60.187 236.840,57.853 236.840,55.520 239.560,55.520 242.280,55.520 245.000,55.520 245.000,57.853 245.000,60.187 245.000,62.520 Z M 233.460,60.000 C 233.270,59.667 233.080,59.333 232.890,59.000 233.527,59.000 234.163,59.000 234.800,59.000 234.800,59.333 234.800,59.667 234.800,60.000 234.353,60.000 233.907,60.000 233.460,60.000 Z M 211.220,66.000 C 211.220,68.333 211.220,70.667 211.220,73.000 210.607,73.000 209.993,73.000 209.380,73.000 209.380,70.667 209.380,68.333 209.380,66.000 209.993,66.000 210.607,66.000 211.220,66.000 Z M 213.220,64.000 C 216.717,64.000 220.213,64.000 223.710,64.000 223.710,67.690 223.710,71.380 223.710,75.070 220.213,75.070 216.717,75.070 213.220,75.070 213.220,71.380 213.220,67.690 213.220,64.000 Z M 227.530,64.770 C 227.530,64.937 227.530,65.103 227.530,65.270 228.137,65.270 228.743,65.270 229.350,65.270 229.743,65.123 230.137,64.977 230.530,64.830 230.530,65.647 230.530,66.463 230.530,67.280 230.197,67.143 229.863,67.007 229.530,66.870 228.863,66.870 228.197,66.870 227.530,66.870 227.530,67.037 227.530,67.203 227.530,67.370 226.923,67.370 226.317,67.370 225.710,67.370 225.710,66.490 225.710,65.610 225.710,64.730 226.317,64.743 226.923,64.757 227.530,64.770 Z M 204.880,74.470 C 204.880,66.627 204.880,58.783 204.880,50.940 205.713,50.940 206.547,50.940 207.380,50.940 207.380,58.770 207.380,66.600 207.380,74.430 206.547,74.443 205.713,74.457 204.880,74.470 Z M 201.680,73.090 C 201.680,70.727 201.680,68.363 201.680,66.000 202.080,66.000 202.480,66.000 202.880,66.000 202.880,68.333 202.880,70.667 202.880,73.000 202.480,73.030 202.080,73.060 201.680,73.090 Z M 199.680,73.170 C 198.303,74.193 196.927,75.217 195.550,76.240 195.550,71.793 195.550,67.347 195.550,62.900 196.927,63.933 198.303,64.967 199.680,66.000 199.680,68.390 199.680,70.780 199.680,73.170 Z M 178.380,62.500 C 183.770,62.500 189.160,62.500 194.550,62.500 194.550,67.210 194.550,71.920 194.550,76.630 189.160,76.630 183.770,76.630 178.380,76.630 178.380,71.920 178.380,67.210 178.380,62.500 Z M 157.480,57.000 C 156.537,57.111 155.589,56.837 154.850,56.240 154.636,55.991 154.528,55.668 154.550,55.340 154.550,53.933 154.550,52.527 154.550,51.120 154.550,51.120 154.550,51.120 154.550,51.120 154.550,51.077 154.550,51.033 154.550,50.990 170.667,50.990 186.783,50.990 202.900,50.990 202.900,52.990 202.900,54.990 202.900,56.990 187.760,56.993 172.620,56.997 157.480,57.000 Z M 149.000,50.880 C 147.540,50.880 146.080,50.880 144.620,50.880 144.177,50.587 143.733,50.293 143.290,50.000 143.290,46.497 143.290,42.993 143.290,39.490 143.683,39.173 144.077,38.857 144.470,38.540 145.980,38.540 147.490,38.540 149.000,38.540 150.527,38.273 152.053,38.007 153.580,37.740 153.580,37.980 153.580,38.220 153.580,38.460 153.580,38.460 153.580,38.460 153.580,38.460 153.580,42.640 153.580,46.820 153.580,51.000 152.053,50.960 150.527,50.920 149.000,50.880 Z M 122.630,61.620 C 122.750,64.680 120.450,64.970 120.050,65.000 119.580,65.000 119.110,65.000 118.640,65.000 117.730,64.463 117.090,63.565 116.880,62.530 116.821,61.642 117.103,60.766 117.670,60.080 117.733,60.007 117.797,59.933 117.860,59.860 117.830,59.770 117.800,59.680 117.770,59.590 117.364,58.606 117.401,57.495 117.870,56.540 118.440,55.655 119.310,55.005 120.320,54.710 121.093,54.710 121.867,54.710 122.640,54.710 122.637,57.013 122.633,59.317 122.630,61.620 Z M 111.100,62.000 C 112.157,59.570 113.213,57.140 114.270,54.710 115.577,54.710 116.883,54.710 118.190,54.710 117.711,55.056 117.306,55.494 117.000,56.000 116.421,57.113 116.327,58.415 116.740,59.600 116.093,60.460 115.787,61.528 115.880,62.600 116.009,63.495 116.431,64.321 117.080,64.950 116.203,64.950 115.327,64.950 114.450,64.950 113.400,63.240 112.280,62.230 111.100,62.000 111.100,62.000 111.100,62.000 111.100,62.000 Z M 102.410,76.600 C 102.653,76.753 102.897,76.907 103.140,77.060 103.710,77.359 104.114,77.899 104.240,78.530 104.237,79.612 103.834,80.656 103.110,81.460 101.190,84.120 98.550,82.360 98.240,82.140 94.640,79.630 91.040,77.120 87.440,74.610 87.130,74.370 86.946,74.002 86.940,73.610 86.840,72.250 88.240,70.360 88.770,69.760 91.370,66.990 93.700,61.360 93.770,61.120 93.770,61.083 93.770,61.047 93.770,61.010 94.082,60.032 94.287,59.023 94.380,58.000 94.397,57.650 94.413,57.300 94.430,56.950 90.883,56.950 87.337,56.950 83.790,56.950 83.783,57.670 83.480,58.356 82.953,58.846 82.425,59.336 81.719,59.587 81.000,59.540 80.271,59.540 79.571,59.250 79.055,58.735 78.540,58.219 78.250,57.519 78.250,56.790 78.250,56.083 78.250,55.377 78.250,54.670 89.513,54.670 100.777,54.670 112.040,54.670 110.850,57.407 109.660,60.143 108.470,62.880 106.450,67.453 104.430,72.027 102.410,76.600 Z M 42.190,52.190 C 42.003,52.227 41.817,52.263 41.630,52.300 41.297,53.260 40.963,54.220 40.630,55.180 35.070,54.440 28.890,57.270 28.580,57.420 25.087,59.227 21.593,61.033 18.100,62.840 17.260,63.260 16.420,63.680 15.580,64.100 14.929,61.827 14.665,59.461 14.800,57.100 15.240,41.720 12.560,36.100 12.470,35.920 11.557,33.833 10.643,31.747 9.730,29.660 15.140,27.570 22.730,31.860 22.810,31.910 37.580,40.110 56.270,41.770 56.510,41.790 60.593,41.953 64.677,42.117 68.760,42.280 68.543,43.316 68.020,44.263 67.260,45.000 66.367,45.000 65.473,45.000 64.580,45.000 64.580,46.417 64.580,47.833 64.580,49.250 64.550,49.250 64.520,49.250 64.490,49.250 57.019,49.797 49.587,50.778 42.230,52.190 42.217,52.190 42.203,52.190 42.190,52.190 Z M 74.190,40.710 C 74.747,41.517 75.303,42.323 75.860,43.130 81.193,43.130 86.527,43.130 91.860,43.130 100.260,43.130 113.560,39.990 117.030,39.130 117.030,41.287 117.030,43.443 117.030,45.600 125.113,45.600 133.197,45.600 141.280,45.600 141.280,47.953 141.280,50.307 141.280,52.660 116.047,52.660 90.813,52.660 65.580,52.660 65.580,50.440 65.580,48.220 65.580,46.000 66.247,46.000 66.913,46.000 67.580,46.000 67.620,46.000 67.660,46.000 67.700,46.000 69.590,44.720 69.970,41.400 69.990,41.150 70.020,41.017 70.050,40.883 70.080,40.750 71.450,40.737 72.820,40.723 74.190,40.710 Z M 102.650,34.150 C 102.983,34.150 103.317,34.150 103.650,34.150 103.650,34.567 103.650,34.983 103.650,35.400 106.733,35.400 109.817,35.400 112.900,35.400 112.900,34.963 112.900,34.527 112.900,34.090 114.670,34.090 116.440,34.090 118.210,34.090 120.200,34.231 122.160,33.548 123.630,32.200 124.503,31.246 124.991,30.003 125.000,28.710 125.000,23.503 125.000,18.297 125.000,13.090 126.417,13.090 127.833,13.090 129.250,13.090 129.250,14.967 129.250,16.843 129.250,18.720 130.877,18.720 132.503,18.720 134.130,18.720 134.130,22.053 134.130,25.387 134.130,28.720 138.673,28.720 143.217,28.720 147.760,28.720 147.760,29.077 147.760,29.433 147.760,29.790 147.653,29.973 147.547,30.157 147.440,30.340 142.980,30.340 138.520,30.340 134.060,30.340 134.060,32.560 134.060,34.780 134.060,37.000 128.583,37.000 123.107,37.000 117.630,37.000 117.547,37.000 117.463,37.000 117.380,37.000 117.260,37.000 108.240,39.330 99.830,40.480 100.770,38.370 101.710,36.260 102.650,34.150 Z M 96.470,25.980 C 96.470,24.073 96.470,22.167 96.470,20.260 99.203,20.260 101.937,20.260 104.670,20.260 104.670,22.147 104.670,24.033 104.670,25.920 101.937,25.940 99.203,25.960 96.470,25.980 Z M 105.670,22.980 C 107.383,22.980 109.097,22.980 110.810,22.980 110.810,23.507 110.810,24.033 110.810,24.560 109.097,24.560 107.383,24.560 105.670,24.560 105.670,24.033 105.670,23.507 105.670,22.980 Z M 105.670,18.540 C 107.383,18.540 109.097,18.540 110.810,18.540 110.810,19.693 110.810,20.847 110.810,22.000 109.097,22.000 107.383,22.000 105.670,22.000 105.670,20.847 105.670,19.693 105.670,18.540 Z M 105.670,33.350 C 105.670,30.747 105.670,28.143 105.670,25.540 107.383,25.540 109.097,25.540 110.810,25.540 110.810,28.137 110.810,30.733 110.810,33.330 109.097,33.337 107.383,33.343 105.670,33.350 Z M 113.670,20.270 C 113.670,22.157 113.670,24.043 113.670,25.930 113.040,25.930 112.410,25.930 111.780,25.930 111.780,24.040 111.780,22.150 111.780,20.260 112.410,20.263 113.040,20.267 113.670,20.270 Z M 118.220,30.410 C 119.637,30.410 121.053,30.410 122.470,30.410 122.372,30.556 122.262,30.693 122.140,30.820 121.035,31.771 119.592,32.233 118.140,32.100 116.370,32.100 114.600,32.100 112.830,32.100 112.830,30.707 112.830,29.313 112.830,27.920 113.123,27.920 113.417,27.920 113.710,27.920 113.710,28.140 113.710,28.360 113.710,28.580 115.213,29.190 116.717,29.800 118.220,30.410 Z M 115.710,18.960 C 116.677,18.570 117.643,18.180 118.610,17.790 120.073,17.790 121.537,17.790 123.000,17.790 123.000,21.327 123.000,24.863 123.000,28.400 121.527,28.400 120.053,28.400 118.580,28.400 117.613,28.010 116.647,27.620 115.680,27.230 115.690,24.473 115.700,21.717 115.710,18.960 Z M 119.980,13.460 C 120.113,13.460 120.247,13.460 120.380,13.460 120.646,13.483 120.891,13.611 121.062,13.815 121.233,14.020 121.315,14.285 121.290,14.550 121.290,14.963 121.290,15.377 121.290,15.790 120.527,15.790 119.763,15.790 119.000,15.790 119.000,15.370 119.000,14.950 119.000,14.530 118.975,14.263 119.059,13.997 119.232,13.792 119.405,13.587 119.653,13.460 119.920,13.440 119.940,13.447 119.960,13.453 119.980,13.460 Z M 146.980,14.460 C 141.723,14.460 136.467,14.460 131.210,14.460 131.210,14.003 131.210,13.547 131.210,13.090 135.623,13.090 140.037,13.090 144.450,13.090 145.293,13.547 146.137,14.003 146.980,14.460 Z M 150.390,15.460 C 150.697,16.073 151.003,16.687 151.310,17.300 151.310,21.410 151.310,25.520 151.310,29.630 150.793,29.630 150.277,29.630 149.760,29.630 149.760,28.657 149.760,27.683 149.760,26.710 145.203,26.710 140.647,26.710 136.090,26.710 136.090,23.377 136.090,20.043 136.090,16.710 134.467,16.710 132.843,16.710 131.220,16.710 131.220,16.297 131.220,15.883 131.220,15.470 137.597,15.470 143.973,15.470 150.350,15.470 150.363,15.467 150.377,15.463 150.390,15.460 Z M 158.130,17.460 C 158.130,21.210 158.130,24.960 158.130,28.710 156.190,28.710 154.250,28.710 152.310,28.710 152.310,24.960 152.310,21.210 152.310,17.460 154.250,17.460 156.190,17.460 158.130,17.460 Z M 170.000,21.360 C 170.357,21.557 170.713,21.753 171.070,21.950 171.070,22.667 171.070,23.383 171.070,24.100 170.713,24.297 170.357,24.493 170.000,24.690 166.710,24.690 163.420,24.690 160.130,24.690 160.130,23.580 160.130,22.470 160.130,21.360 163.420,21.360 166.710,21.360 170.000,21.360 Z M 174.840,24.830 C 174.840,24.707 174.840,24.583 174.840,24.460 179.840,24.460 184.840,24.460 189.840,24.460 189.840,25.613 189.840,26.767 189.840,27.920 189.673,28.047 189.507,28.173 189.340,28.300 189.340,29.033 189.340,29.767 189.340,30.500 188.576,30.393 187.797,30.500 187.090,30.810 185.929,31.383 184.995,32.331 184.440,33.500 182.576,34.121 181.134,35.615 180.580,37.500 177.580,37.500 174.580,37.500 171.580,37.500 171.580,35.103 171.580,32.707 171.580,30.310 167.497,30.577 163.413,30.843 159.330,31.110 159.330,31.643 159.330,32.177 159.330,32.710 158.607,32.710 157.883,32.710 157.160,32.710 157.160,32.043 157.160,31.377 157.160,30.710 158.160,30.710 159.160,30.710 160.160,30.710 160.160,29.377 160.160,28.043 160.160,26.710 163.620,26.710 167.080,26.710 170.540,26.710 171.360,26.233 172.180,25.757 173.000,25.280 173.000,25.133 173.000,24.987 173.000,24.840 173.613,24.837 174.227,24.833 174.840,24.830 Z M 225.670,29.120 C 227.687,30.227 229.703,31.333 231.720,32.440 220.623,33.330 209.527,34.220 198.430,35.110 200.003,30.310 201.577,25.510 203.150,20.710 205.363,20.710 207.577,20.710 209.790,20.710 215.083,23.513 220.377,26.317 225.670,29.120 Z M 261.170,37.540 C 261.170,35.097 261.170,32.653 261.170,30.210 263.170,30.210 265.170,30.210 267.170,30.210 267.170,32.653 267.170,35.097 267.170,37.540 265.170,37.540 263.170,37.540 261.170,37.540 Z M 218.860,41.220 C 225.613,40.660 232.367,40.100 239.120,39.540 240.217,39.540 241.313,39.540 242.410,39.540 242.410,43.360 242.410,47.180 242.410,51.000 242.410,51.000 242.410,51.000 242.410,51.000 242.410,51.093 242.410,51.187 242.410,51.280 234.560,51.280 226.710,51.280 218.860,51.280 218.860,47.927 218.860,44.573 218.860,41.220 Z M 208.170,49.940 C 208.170,48.683 208.170,47.427 208.170,46.170 211.400,46.170 214.630,46.170 217.860,46.170 217.860,47.430 217.860,48.690 217.860,49.950 214.630,49.947 211.400,49.943 208.170,49.940 Z M 192.000,41.860 C 191.463,42.010 190.927,42.160 190.390,42.310 189.593,42.540 188.797,42.770 188.000,43.000 186.763,42.939 185.719,42.059 185.450,40.850 185.408,40.653 185.385,40.452 185.380,40.250 185.368,38.773 186.524,37.550 188.000,37.480 189.333,37.847 190.667,38.213 192.000,38.580 193.660,39.200 193.930,39.580 193.930,40.220 193.930,40.860 193.630,41.220 192.000,41.860 192.000,41.860 192.000,41.860 192.000,41.860 Z M 259.250,32.300 C 259.250,33.507 259.250,34.713 259.250,35.920 252.500,36.460 245.750,37.000 239.000,37.540 238.893,37.540 238.787,37.540 238.680,37.540 238.680,37.540 238.680,37.540 238.680,37.540 224.347,38.730 210.013,39.920 195.680,41.110 195.771,40.815 195.818,40.509 195.820,40.200 195.835,39.040 195.202,37.968 194.180,37.420 215.870,35.713 237.560,34.007 259.250,32.300 Z M 233.620,32.300 C 232.350,31.603 231.080,30.907 229.810,30.210 239.770,30.210 249.730,30.210 259.690,30.210 251.000,30.907 242.310,31.603 233.620,32.300 Z M 190.000,32.720 C 190.460,32.907 190.920,33.093 191.380,33.280 191.380,31.947 191.380,30.613 191.380,29.280 194.917,26.613 198.453,23.947 201.990,21.280 200.443,25.920 198.897,30.560 197.350,35.200 194.730,35.410 192.110,35.620 189.490,35.830 189.117,35.727 188.743,35.623 188.370,35.520 188.280,35.520 188.190,35.520 188.100,35.520 186.537,35.522 185.075,36.292 184.190,37.580 183.673,37.580 183.157,37.580 182.640,37.580 183.206,36.452 184.223,35.616 185.440,35.280 185.587,35.227 185.733,35.173 185.880,35.120 185.937,34.973 185.993,34.827 186.050,34.680 186.399,33.827 187.031,33.121 187.840,32.680 188.508,32.400 189.263,32.414 189.920,32.720 189.947,32.720 189.973,32.720 190.000,32.720 Z M 149.000,31.630 C 151.057,31.630 153.113,31.630 155.170,31.630 155.170,32.657 155.170,33.683 155.170,34.710 157.227,34.710 159.283,34.710 161.340,34.710 161.340,34.140 161.340,33.570 161.340,33.000 164.090,32.820 166.840,32.640 169.590,32.460 169.590,34.160 169.590,35.860 169.590,37.560 164.923,37.560 160.257,37.560 155.590,37.560 155.590,36.827 155.590,36.093 155.590,35.360 153.367,35.760 151.143,36.160 148.920,36.560 148.003,36.560 147.087,36.560 146.170,36.560 147.113,34.917 148.057,33.273 149.000,31.630 Z M 118.000,39.000 C 125.750,39.000 133.500,39.000 141.250,39.000 141.250,40.880 141.250,42.760 141.250,44.640 133.500,44.640 125.750,44.640 118.000,44.640 118.000,42.760 118.000,40.880 118.000,39.000 Z M 143.260,37.000 C 140.527,37.000 137.793,37.000 135.060,37.000 135.060,35.113 135.060,33.227 135.060,31.340 138.980,31.340 142.900,31.340 146.820,31.340 145.820,33.077 144.820,34.813 143.820,36.550 143.820,36.550 143.820,36.550 143.820,36.550 143.633,36.700 143.447,36.850 143.260,37.000 Z M 154.540,50.020 C 154.540,46.527 154.540,43.033 154.540,39.540 164.173,39.540 173.807,39.540 183.440,39.540 183.400,39.768 183.376,39.999 183.370,40.230 183.375,40.546 183.409,40.860 183.470,41.170 183.470,41.170 183.470,41.170 183.470,41.170 183.686,42.451 184.371,43.605 185.390,44.410 185.968,44.841 186.669,45.076 187.390,45.080 187.677,45.078 187.963,45.037 188.240,44.960 188.240,44.960 188.240,44.960 188.240,44.960 188.280,44.960 188.320,44.960 188.360,44.960 188.360,44.960 188.360,44.960 188.360,44.960 189.763,44.570 191.167,44.180 192.570,43.790 192.603,43.790 192.637,43.790 192.670,43.790 192.970,43.670 193.320,43.540 193.670,43.360 201.733,42.693 209.797,42.027 217.860,41.360 217.860,42.647 217.860,43.933 217.860,45.220 214.297,45.220 210.733,45.220 207.170,45.220 207.170,46.813 207.170,48.407 207.170,50.000 189.627,50.007 172.083,50.013 154.540,50.020 Z M 243.420,50.170 C 243.420,46.627 243.420,43.083 243.420,39.540 249.710,39.540 256.000,39.540 262.290,39.540 262.290,43.070 262.290,46.600 262.290,50.130 262.160,50.130 262.030,50.130 261.900,50.130 261.900,50.130 261.900,50.130 261.900,50.130 255.740,50.143 249.580,50.157 243.420,50.170 Z M 309.130,32.170 C 309.130,31.247 309.130,30.323 309.130,29.400 311.047,28.400 312.963,27.400 314.880,26.400 318.457,26.400 322.033,26.400 325.610,26.400 325.610,26.797 325.610,27.193 325.610,27.590 333.107,27.590 340.603,27.590 348.100,27.590 348.561,28.532 348.583,29.630 348.160,30.590 339.243,30.590 330.327,30.590 321.410,30.590 319.780,32.923 318.150,35.257 316.520,37.590 300.393,37.590 284.267,37.590 268.140,37.590 268.140,35.770 268.140,33.950 268.140,32.130 281.803,32.143 295.467,32.157 309.130,32.170 Z M 317.740,37.590 C 319.137,35.590 320.533,33.590 321.930,31.590 327.470,31.590 333.010,31.590 338.550,31.590 338.550,33.590 338.550,35.590 338.550,37.590 331.613,37.590 324.677,37.590 317.740,37.590 Z M 353.300,40.590 C 360.300,39.677 367.300,38.763 374.300,37.850 374.300,43.233 374.300,48.617 374.300,54.000 367.300,53.087 360.300,52.173 353.300,51.260 353.300,47.703 353.300,44.147 353.300,40.590 Z M 94.300,26.870 C 93.563,27.380 92.827,27.890 92.090,28.400 89.463,28.400 86.837,28.400 84.210,28.400 84.210,24.857 84.210,21.313 84.210,17.770 86.837,17.770 89.463,17.770 92.090,17.770 92.827,18.280 93.563,18.790 94.300,19.300 94.300,21.823 94.300,24.347 94.300,26.870 Z M 376.290,56.270 C 376.290,49.370 376.290,42.470 376.290,35.570 368.270,36.617 360.250,37.663 352.230,38.710 349.057,38.710 345.883,38.710 342.710,38.710 342.710,38.320 342.710,37.930 342.710,37.540 341.987,37.540 341.263,37.540 340.540,37.540 340.540,35.873 340.540,34.207 340.540,32.540 343.430,32.540 346.320,32.540 349.210,32.540 349.310,32.407 349.410,32.273 349.510,32.140 351.610,29.330 349.640,26.140 349.510,26.010 349.413,25.853 349.317,25.697 349.220,25.540 342.017,25.540 334.813,25.540 327.610,25.540 327.610,25.147 327.610,24.753 327.610,24.360 323.200,24.360 318.790,24.360 314.380,24.360 311.963,25.637 309.547,26.913 307.130,28.190 307.130,28.837 307.130,29.483 307.130,30.130 294.490,30.130 281.850,30.130 269.210,30.130 269.210,29.490 269.210,28.850 269.210,28.210 255.543,28.210 241.877,28.210 228.210,28.210 222.237,25.043 216.263,21.877 210.290,18.710 207.527,18.710 204.763,18.710 202.000,18.710 198.583,21.280 195.167,23.850 191.750,26.420 191.750,25.087 191.750,23.753 191.750,22.420 186.083,22.420 180.417,22.420 174.750,22.420 174.750,21.997 174.750,21.573 174.750,21.150 174.167,21.150 173.583,21.150 173.000,21.150 173.000,21.023 173.000,20.897 173.000,20.770 172.150,20.300 171.300,19.830 170.450,19.360 166.997,19.360 163.543,19.360 160.090,19.360 160.090,18.060 160.090,16.760 160.090,15.460 157.587,15.460 155.083,15.460 152.580,15.460 152.247,14.793 151.913,14.127 151.580,13.460 150.793,13.460 150.007,13.460 149.220,13.460 147.813,12.670 146.407,11.880 145.000,11.090 137.667,11.090 130.333,11.090 123.000,11.090 123.000,12.653 123.000,14.217 123.000,15.780 122.757,15.780 122.513,15.780 122.270,15.780 122.270,15.363 122.270,14.947 122.270,14.530 122.294,13.999 122.107,13.481 121.749,13.089 121.390,12.697 120.891,12.463 120.360,12.440 120.227,12.440 120.093,12.440 119.960,12.440 119.421,12.450 118.908,12.678 118.539,13.072 118.170,13.465 117.976,13.991 118.000,14.530 118.000,14.963 118.000,15.397 118.000,15.830 116.547,16.420 115.093,17.010 113.640,17.600 113.640,17.820 113.640,18.040 113.640,18.260 113.350,18.260 113.060,18.260 112.770,18.260 112.770,17.680 112.770,17.100 112.770,16.520 109.687,16.520 106.603,16.520 103.520,16.520 103.520,17.097 103.520,17.673 103.520,18.250 101.113,18.250 98.707,18.250 96.300,18.250 95.103,17.427 93.907,16.603 92.710,15.780 89.210,15.780 85.710,15.780 82.210,15.780 82.210,20.653 82.210,25.527 82.210,30.400 85.710,30.400 89.210,30.400 92.710,30.400 93.907,29.577 95.103,28.753 96.300,27.930 98.707,27.930 101.113,27.930 103.520,27.930 103.520,29.320 103.520,30.710 103.520,32.100 102.757,32.100 101.993,32.100 101.230,32.100 99.993,34.993 98.757,37.887 97.520,40.780 95.645,41.002 93.758,41.122 91.870,41.140 86.870,41.140 81.870,41.140 76.870,41.140 76.313,40.333 75.757,39.527 75.200,38.720 72.967,38.720 70.733,38.720 68.500,38.720 68.377,39.237 68.253,39.753 68.130,40.270 64.297,40.113 60.463,39.957 56.630,39.800 56.450,39.800 38.180,38.160 23.800,30.180 23.420,29.960 14.370,24.810 7.950,28.290 7.680,28.437 7.410,28.583 7.140,28.730 8.310,31.397 9.480,34.063 10.650,36.730 10.650,36.780 13.220,42.240 12.800,57.000 12.800,57.680 12.590,63.680 14.380,66.000 14.547,66.220 14.713,66.440 14.880,66.660 16.253,65.980 17.627,65.300 19.000,64.620 22.487,62.813 25.973,61.007 29.460,59.200 29.520,59.200 35.970,56.200 41.090,57.270 41.373,57.327 41.657,57.383 41.940,57.440 42.350,56.293 42.760,55.147 43.170,54.000 49.911,52.742 56.714,51.844 63.550,51.310 63.550,52.417 63.550,53.523 63.550,54.630 67.797,54.630 72.043,54.630 76.290,54.630 76.290,55.340 76.290,56.050 76.290,56.760 76.279,59.377 78.383,61.513 81.000,61.540 82.810,61.567 84.475,60.552 85.280,58.930 87.593,58.930 89.907,58.930 92.220,58.930 92.136,59.446 92.022,59.957 91.880,60.460 91.640,61.020 89.490,66.070 87.250,68.460 86.990,68.750 84.720,71.350 84.890,73.800 84.957,74.745 85.422,75.618 86.170,76.200 89.803,78.723 93.437,81.247 97.070,83.770 98.107,84.478 99.325,84.874 100.580,84.910 100.835,84.910 101.089,84.890 101.340,84.850 102.697,84.618 103.898,83.836 104.660,82.690 105.737,81.462 106.290,79.861 106.200,78.230 106.059,77.315 105.594,76.481 104.890,75.880 106.627,71.953 108.363,68.027 110.100,64.100 110.100,64.100 110.100,64.100 110.100,64.100 110.130,64.030 110.160,63.960 110.190,63.890 110.299,63.867 110.411,63.867 110.520,63.890 110.850,63.940 111.750,64.300 112.940,66.450 113.037,66.620 113.133,66.790 113.230,66.960 115.497,66.960 117.763,66.960 120.030,66.960 121.670,66.890 124.730,65.650 124.570,61.540 124.570,59.250 124.570,56.960 124.570,54.670 127.813,54.670 131.057,54.670 134.300,54.670 134.300,55.043 134.300,55.417 134.300,55.790 137.280,55.790 140.260,55.790 143.240,55.790 143.240,54.653 143.240,53.517 143.240,52.380 143.507,52.547 143.773,52.713 144.040,52.880 145.693,52.880 147.347,52.880 149.000,52.880 150.183,52.923 151.367,52.967 152.550,53.010 152.550,53.697 152.550,54.383 152.550,55.070 152.464,55.937 152.731,56.802 153.290,57.470 154.120,58.470 155.530,58.970 157.470,58.970 172.603,58.970 187.737,58.970 202.870,58.970 202.870,60.647 202.870,62.323 202.870,64.000 202.057,64.000 201.243,64.000 200.430,64.000 198.823,62.807 197.217,61.613 195.610,60.420 189.200,60.420 182.790,60.420 176.380,60.420 176.380,66.490 176.380,72.560 176.380,78.630 182.797,78.630 189.213,78.630 195.630,78.630 197.237,77.437 198.843,76.243 200.450,75.050 201.263,75.050 202.077,75.050 202.890,75.050 202.890,75.510 202.890,75.970 202.890,76.430 205.057,76.430 207.223,76.430 209.390,76.430 209.390,75.970 209.390,75.510 209.390,75.050 210.003,75.050 210.617,75.050 211.230,75.050 211.230,75.717 211.230,76.383 211.230,77.050 216.060,77.050 220.890,77.050 225.720,77.050 225.720,74.130 225.720,71.210 225.720,68.290 226.660,68.290 227.600,68.290 228.540,68.290 228.540,68.123 228.540,67.957 228.540,67.790 228.780,67.790 229.020,67.790 229.260,67.790 230.020,68.100 230.780,68.410 231.540,68.720 231.540,66.913 231.540,65.107 231.540,63.300 230.780,63.610 230.020,63.920 229.260,64.230 229.020,64.230 228.780,64.230 228.540,64.230 228.540,64.063 228.540,63.897 228.540,63.730 227.600,63.730 226.660,63.730 225.720,63.730 225.720,63.153 225.720,62.577 225.720,62.000 220.887,62.000 216.053,62.000 211.220,62.000 211.220,62.667 211.220,63.333 211.220,64.000 210.607,64.000 209.993,64.000 209.380,64.000 209.380,62.333 209.380,60.667 209.380,59.000 216.450,59.000 223.520,59.000 230.590,59.000 231.160,60.000 231.730,61.000 232.300,62.000 233.133,62.000 233.967,62.000 234.800,62.000 234.800,62.533 234.800,63.067 234.800,63.600 236.827,65.030 238.853,66.460 240.880,67.890 242.920,66.447 244.960,65.003 247.000,63.560 247.000,63.040 247.000,62.520 247.000,62.000 247.833,62.000 248.667,62.000 249.500,62.000 250.070,61.000 250.640,60.000 251.210,59.000 252.767,59.000 254.323,59.000 255.880,59.000 256.833,59.009 257.757,58.672 258.480,58.050 259.366,57.185 259.830,55.976 259.750,54.740 259.750,53.870 259.750,53.000 259.750,52.130 260.277,52.130 260.803,52.130 261.330,52.130 261.330,52.937 261.330,53.743 261.330,54.550 288.467,54.550 315.603,54.550 342.740,54.550 342.740,54.077 342.740,53.603 342.740,53.130 343.040,53.130 343.340,53.130 343.640,53.130 343.640,53.383 343.640,53.637 343.640,53.890 343.577,54.969 344.116,55.993 345.041,56.552 345.966,57.110 347.124,57.110 348.049,56.552 348.974,55.993 349.513,54.969 349.450,53.890 349.450,53.637 349.450,53.383 349.450,53.130 350.387,53.130 351.323,53.130 352.260,53.130 360.270,54.177 368.280,55.223 376.290,56.270 Z " />
  <path stroke="none" fill="#ffffffff" d="M 265.600,41.770 C 289.823,41.770 314.047,41.770 338.270,41.770 338.270,42.103 338.270,42.437 338.270,42.770 314.047,42.770 289.823,42.770 265.600,42.770 265.600,42.437 265.600,42.103 265.600,41.770 Z " />
  <path stroke="none" fill="#ffffffff" d="M 265.600,45.630 C 289.823,45.630 314.047,45.630 338.270,45.630 338.270,45.963 338.270,46.297 338.270,46.630 314.047,46.630 289.823,46.630 265.600,46.630 265.600,46.297 265.600,45.963 265.600,45.630 Z " />
  <path stroke="none" fill="#ffffffff" d="M 265.600,49.480 C 289.823,49.480 314.047,49.480 338.270,49.480 338.270,49.813 338.270,50.147 338.270,50.480 314.047,50.480 289.823,50.480 265.600,50.480 265.600,50.147 265.600,49.813 265.600,49.480 Z " />
  <path stroke="none" fill="#ffffffff" d="M 181.920,44.710 C 181.858,44.923 181.714,45.103 181.520,45.210 180.113,45.990 178.707,46.770 177.300,47.550 177.243,47.570 177.187,47.590 177.130,47.610 176.724,47.817 176.276,47.927 175.820,47.930 175.024,47.930 174.261,47.614 173.699,47.051 173.136,46.489 172.820,45.726 172.820,44.930 172.820,43.800 174.570,42.650 175.590,42.120 176.257,43.193 176.923,44.267 177.590,45.340 178.607,44.790 179.623,44.240 180.640,43.690 180.835,43.582 181.066,43.556 181.280,43.620 181.709,43.746 181.963,44.185 181.860,44.620 181.880,44.650 181.900,44.680 181.920,44.710 Z M 181.620,42.710 C 181.151,42.574 180.647,42.632 180.220,42.870 179.480,43.270 178.740,43.670 178.000,44.070 177.333,43.010 176.667,41.950 176.000,40.890 175.867,40.950 175.733,41.010 175.600,41.070 175.220,41.240 171.850,42.810 171.850,44.980 171.850,46.041 172.271,47.058 173.022,47.808 173.772,48.559 174.789,48.980 175.850,48.980 176.444,48.977 177.029,48.836 177.560,48.570 179.040,47.747 180.520,46.923 182.000,46.100 182.652,45.740 183.024,45.023 182.940,44.283 182.857,43.543 182.336,42.926 181.620,42.720 181.620,42.717 181.620,42.713 181.620,42.710 Z " />
  <path stroke="none" fill="#ffffffff" d="M 118.380,24.000 C 118.380,23.470 118.699,22.992 119.189,22.790 119.678,22.587 120.242,22.699 120.616,23.074 120.991,23.448 121.103,24.012 120.900,24.501 120.698,24.991 120.220,25.310 119.690,25.310 119.336,25.321 118.992,25.188 118.738,24.941 118.483,24.694 118.340,24.354 118.340,24.000 118.353,24.000 118.367,24.000 118.380,24.000 Z M 122.000,24.000 C 122.000,23.066 121.437,22.223 120.574,21.866 119.711,21.508 118.717,21.706 118.057,22.367 117.396,23.027 117.198,24.021 117.556,24.884 117.913,25.747 118.756,26.310 119.690,26.310 120.966,26.310 122.000,25.276 122.000,24.000 122.000,24.000 122.000,24.000 122.000,24.000 Z " />
  <path stroke="none" fill="#ffffffff" d="M 143.780,20.220 C 141.110,20.220 139.340,19.390 139.340,18.850 139.340,18.310 141.110,17.480 143.780,17.480 146.450,17.480 148.220,18.310 148.220,18.860 148.220,19.410 146.440,20.210 143.770,20.210 143.773,20.213 143.777,20.217 143.780,20.220 Z M 138.340,18.840 C 138.340,20.400 141.080,21.220 143.780,21.220 146.480,21.220 149.220,20.400 149.220,18.850 149.210,15.720 138.340,15.720 138.340,18.840 138.340,18.840 138.340,18.840 138.340,18.840 Z " />
</svg>