<?xml version="1.0" encoding="UTF-8" standalone="no"?>
<!DOCTYPE svg PUBLIC "-//W3C//DTD SVG 20010904//EN" "http://www.w3.org/TR/2001/REC-SVG-20010904/DTD/svg10.dtd"[]>
<svg version="1.1" id="Frosty Editor v1.0.6.3" xmlns="http://www.w3.org/2000/svg" d1p1:xlink="http://www.w3.org/1999/xlink" viewBox="0 0 50 50" xmlns:d1p1="xmlns">
  <path stroke="none" fill="#ffffffff" d="M 16.967,10.526 C 15.559,10.526 14.418,11.668 14.418,13.075 14.418,17.451 14.418,21.826 14.418,26.202 14.418,27.496 14.960,28.726 15.905,29.605 22.182,23.328 28.458,17.052 34.735,10.775 34.407,10.619 34.040,10.525 33.653,10.525 33.652,10.525 33.651,10.525 33.650,10.525 28.089,10.525 22.528,10.525 16.967,10.525 16.967,10.525 16.967,10.526 16.967,10.526 Z " />
  <path stroke="none" fill="#ffffffff" d="M 17.142,32.152 C 19.359,34.430 21.575,36.709 23.792,38.987 24.533,39.635 25.642,39.635 26.384,38.987 28.927,36.761 31.471,34.536 34.014,32.310 35.010,31.438 35.582,30.179 35.582,28.855 35.582,23.732 35.582,18.610 35.582,13.487 35.582,13.487 35.582,13.486 35.582,13.486 29.435,19.708 23.289,25.930 17.142,32.152 17.142,32.152 17.142,32.152 17.142,32.152 Z " />
</svg>