<?xml version="1.0" encoding="UTF-8" standalone="no"?>
<!DOCTYPE svg PUBLIC "-//W3C//DTD SVG 20010904//EN" "http://www.w3.org/TR/2001/REC-SVG-20010904/DTD/svg10.dtd"[]>
<svg version="1.1" id="Frosty Editor v1.0.6.3" xmlns="http://www.w3.org/2000/svg" d1p1:xlink="http://www.w3.org/1999/xlink" viewBox="0 0 96 96" xmlns:d1p1="xmlns">
  <path stroke="none" fill="#ffffffff" d="M 69.400,51.600 C 66.500,51.600 63.400,51.600 60.500,51.600 60.500,53.100 60.500,54.500 60.500,56.100 60.500,59.600 60.500,63.200 60.500,66.600 58.100,67.700 55.700,68.800 53.300,69.800 53.300,63.900 53.300,57.900 53.300,52.100 52.200,52.100 51.100,52.100 50.000,52.100 48.600,53.500 47.100,55.000 45.700,56.400 45.700,57.900 45.700,59.500 45.700,61.000 43.300,61.000 40.900,61.000 38.500,61.000 38.500,58.600 38.500,56.200 38.500,53.900 40.000,53.900 41.600,53.900 43.100,53.900 43.700,53.300 44.300,52.700 44.900,52.100 38.800,52.100 32.500,52.100 26.400,52.100 26.400,47.900 26.400,43.800 26.400,39.600 31.400,39.600 36.500,39.600 41.600,39.600 41.600,34.400 41.600,29.200 41.600,24.000 45.500,24.000 49.300,24.000 53.200,24.000 53.200,30.600 53.200,37.200 53.200,43.900 54.200,42.900 55.300,41.800 56.300,40.800 56.300,39.300 56.300,37.700 56.300,36.200 58.700,36.200 61.100,36.200 63.500,36.200 63.500,38.600 63.500,41.000 63.500,43.300 62.000,43.300 60.400,43.300 58.900,43.300 58.500,43.700 58.000,44.200 57.600,44.600 61.600,44.600 65.400,44.600 69.400,44.600 69.400,46.800 69.400,49.200 69.400,51.600 69.400,51.600 69.400,51.600 69.400,51.600 Z M 67.700,39.900 C 67.700,37.200 67.700,34.500 67.700,31.800 64.400,31.800 61.100,31.800 57.900,31.800 57.900,27.600 57.900,23.500 57.900,19.300 51.100,19.300 44.200,19.300 37.400,19.300 37.400,24.500 37.400,29.700 37.400,34.900 32.400,34.900 27.300,34.900 22.200,34.900 22.200,42.100 22.200,49.200 22.200,56.400 26.400,56.400 30.500,56.400 34.700,56.400 34.700,59.300 34.700,62.000 34.700,64.900 39.500,64.900 44.200,64.900 49.000,64.900 49.000,68.800 49.000,72.600 49.000,76.500 54.400,74.100 59.800,71.700 65.100,69.300 65.100,64.800 65.100,60.400 65.100,55.900 68.000,55.900 71.100,55.900 74.000,55.900 74.000,50.500 74.000,45.100 74.000,39.800 71.800,39.900 69.800,39.900 67.700,39.900 67.700,39.900 67.700,39.900 67.700,39.900 Z " />
</svg>