<?xml version="1.0" encoding="UTF-8" standalone="no"?>
<!DOCTYPE svg PUBLIC "-//W3C//DTD SVG 20010904//EN" "http://www.w3.org/TR/2001/REC-SVG-20010904/DTD/svg10.dtd"[]>
<svg version="1.1" id="Frosty Editor v1.0.6.3" xmlns="http://www.w3.org/2000/svg" d1p1:xlink="http://www.w3.org/1999/xlink" viewBox="0 0 96 96" xmlns:d1p1="xmlns">
  <path stroke="none" fill="none" d="M 96.000,48.100 C 96.000,64.000 96.000,79.900 96.000,95.900 96.000,96.100 96.000,96.100 95.800,96.100 63.900,96.100 32.100,96.100 0.200,96.100 0.000,96.100 0.000,96.100 0.000,95.900 0.000,64.000 0.000,32.100 0.000,0.300 0.000,0.100 0.100,0.000 0.300,0.000 32.100,0.000 64.000,0.000 95.800,0.000 96.000,0.000 96.000,0.000 96.000,0.200 96.000,16.200 96.000,32.100 96.000,48.100 Z M 80.600,35.400 C 80.600,35.000 80.600,34.500 80.600,34.100 80.500,33.200 80.400,32.400 80.300,31.500 80.000,30.100 79.700,28.800 79.300,27.400 79.000,26.500 78.700,25.700 78.300,24.800 77.800,23.700 77.200,22.700 76.700,21.600 76.300,20.800 75.800,20.000 75.300,19.300 74.700,18.400 74.000,17.500 73.300,16.700 72.800,16.100 72.300,15.500 71.700,15.000 71.200,14.500 70.600,14.000 70.000,13.500 69.700,13.300 69.400,13.100 69.100,12.800 67.700,11.700 66.200,10.700 64.600,9.800 63.800,9.400 62.900,8.900 62.000,8.600 61.000,8.200 59.900,7.800 58.800,7.500 57.200,7.100 55.600,6.800 54.000,6.600 52.600,6.400 51.300,6.300 49.900,6.200 48.300,6.200 46.700,6.200 45.100,6.200 44.800,6.200 44.600,6.200 44.300,6.200 43.500,6.300 42.800,6.400 42.000,6.500 41.200,6.600 40.400,6.700 39.700,6.900 38.300,7.200 36.900,7.500 35.500,8.000 34.800,8.200 34.100,8.500 33.400,8.800 32.800,9.000 32.300,9.300 31.800,9.600 31.000,10.000 30.300,10.400 29.600,10.900 28.200,11.900 26.700,12.900 25.400,14.100 24.800,14.700 24.200,15.200 23.700,15.800 23.000,16.500 22.400,17.300 21.800,18.100 21.100,19.000 20.500,20.000 19.900,21.000 19.600,21.500 19.300,22.100 19.000,22.600 18.300,23.900 17.700,25.200 17.200,26.600 16.900,27.500 16.600,28.400 16.400,29.300 16.200,30.200 16.000,31.100 15.800,32.000 15.700,32.800 15.600,33.600 15.600,34.400 15.600,35.200 15.600,36.100 15.700,36.900 15.800,37.400 15.800,38.000 15.900,38.500 16.000,38.900 16.100,39.300 16.100,39.600 16.200,40.500 16.300,41.400 16.400,42.300 16.500,43.300 16.600,44.300 16.800,45.400 16.900,46.400 17.000,47.400 17.100,48.400 17.300,49.900 17.500,51.500 17.700,53.000 17.700,53.300 17.700,53.500 17.400,53.700 17.300,53.800 17.200,53.900 17.100,54.000 16.600,54.600 16.100,55.200 16.000,56.100 15.800,57.000 15.600,57.800 16.000,58.700 16.100,59.000 16.100,59.300 16.200,59.600 16.200,59.700 16.300,59.900 16.300,60.000 16.700,60.600 17.000,61.100 17.400,61.700 18.400,63.200 19.400,64.700 20.400,66.300 21.400,67.800 22.300,69.300 23.400,70.700 23.800,71.200 24.300,71.600 24.900,71.800 25.500,72.100 26.200,72.200 26.900,72.300 27.700,72.400 28.600,72.400 29.400,72.400 29.600,72.400 29.600,72.500 29.700,72.600 30.100,73.700 30.400,74.800 30.800,75.900 30.800,76.000 30.900,76.100 30.900,76.200 31.300,76.800 31.700,77.400 32.300,77.800 32.400,77.800 32.400,77.900 32.400,78.000 32.400,78.200 32.400,78.400 32.400,78.600 32.300,79.300 32.300,80.000 32.500,80.600 32.700,81.300 32.800,82.000 33.300,82.600 33.900,83.300 34.500,83.800 35.400,84.100 36.400,84.500 37.600,84.700 38.600,85.200 39.000,85.400 39.500,85.500 40.000,85.700 40.900,86.000 41.800,86.400 42.800,86.600 42.800,86.600 42.900,86.600 42.900,86.600 43.300,86.900 43.800,87.000 44.300,87.200 45.400,87.600 46.500,88.000 47.600,88.100 48.100,88.200 48.600,88.200 49.100,88.100 50.400,87.900 51.600,87.500 52.900,87.000 53.300,86.900 53.600,86.600 53.900,86.500 55.100,86.200 56.100,85.800 57.300,85.400 57.800,85.200 58.200,85.000 58.600,84.900 59.500,84.600 60.400,84.300 61.400,84.000 62.000,83.800 62.500,83.400 62.900,83.000 63.400,82.500 63.900,82.000 63.900,81.200 63.900,81.100 63.900,81.000 64.000,80.900 64.200,80.200 64.300,79.500 64.300,78.800 64.300,78.500 64.300,78.100 64.300,77.800 64.300,77.700 64.300,77.600 64.400,77.600 64.800,77.400 65.000,77.000 65.300,76.700 65.600,76.300 65.800,75.900 66.000,75.400 66.300,74.400 66.600,73.500 66.900,72.500 66.900,72.400 66.900,72.300 67.100,72.300 67.600,72.300 68.100,72.300 68.600,72.300 69.200,72.300 69.800,72.300 70.400,72.100 71.200,71.900 72.000,71.700 72.700,71.100 72.900,70.900 73.100,70.700 73.300,70.500 73.800,69.800 74.200,69.200 74.700,68.500 75.500,67.300 76.300,66.100 77.100,64.900 77.900,63.700 78.700,62.400 79.600,61.200 80.000,60.500 80.600,59.900 80.700,59.000 80.700,58.900 80.700,58.800 80.800,58.800 81.000,58.100 81.200,57.500 80.900,56.800 80.900,56.700 80.900,56.700 80.900,56.600 80.800,56.200 80.800,55.600 80.500,55.300 80.100,54.700 79.800,54.100 79.100,53.700 79.000,53.700 79.000,53.600 79.000,53.500 79.100,52.600 79.200,51.600 79.300,50.700 79.400,49.800 79.500,49.000 79.600,48.100 79.700,47.000 79.900,45.900 80.000,44.800 80.100,44.000 80.200,43.200 80.300,42.400 80.400,41.500 80.500,40.600 80.600,39.700 80.700,38.900 80.900,38.000 81.000,37.200 80.600,36.700 80.700,36.000 80.600,35.400 Z " />
  <path stroke="none" fill="#fffefefe" d="M 80.600,35.400 C 80.600,36.100 80.500,36.700 80.500,37.400 80.400,38.300 80.200,39.100 80.100,39.900 80.000,40.800 79.900,41.700 79.800,42.600 79.700,43.400 79.600,44.200 79.500,45.000 79.400,46.100 79.200,47.200 79.100,48.300 79.000,49.200 78.900,50.000 78.800,50.900 78.700,51.800 78.600,52.800 78.500,53.700 78.500,53.800 78.500,53.800 78.600,53.900 79.200,54.300 79.600,54.900 80.000,55.500 80.200,55.900 80.200,56.400 80.400,56.800 80.400,56.900 80.400,56.900 80.400,57.000 80.700,57.700 80.500,58.400 80.300,59.000 80.300,59.100 80.300,59.200 80.200,59.200 80.100,60.100 79.500,60.700 79.100,61.400 78.300,62.700 77.500,63.900 76.600,65.100 75.800,66.300 75.000,67.500 74.200,68.700 73.800,69.400 73.300,70.000 72.800,70.700 72.600,70.900 72.400,71.100 72.200,71.300 71.500,71.900 70.700,72.100 69.900,72.300 69.300,72.400 68.700,72.400 68.100,72.500 67.600,72.500 67.100,72.500 66.600,72.500 66.400,72.500 66.400,72.600 66.400,72.700 66.100,73.700 65.800,74.600 65.500,75.600 65.400,76.100 65.100,76.500 64.800,76.900 64.600,77.200 64.300,77.600 63.900,77.800 64.000,78.000 63.900,78.000 63.900,78.100 63.900,78.400 63.900,78.800 63.900,79.100 64.000,79.800 63.800,80.500 63.600,81.200 63.600,81.300 63.500,81.400 63.500,81.500 63.400,82.300 63.000,82.800 62.500,83.300 62.100,83.700 61.600,84.100 61.000,84.300 60.100,84.600 59.200,84.900 58.200,85.200 57.800,85.300 57.300,85.600 56.900,85.700 55.800,86.100 54.700,86.600 53.500,86.800 53.100,86.900 52.800,87.100 52.500,87.300 51.300,87.800 50.000,88.200 48.700,88.400 48.200,88.500 47.700,88.500 47.200,88.400 46.100,88.200 45.000,87.900 43.900,87.500 43.400,87.300 42.900,87.200 42.500,86.900 42.500,86.900 42.400,86.900 42.400,86.900 41.400,86.700 40.500,86.300 39.600,86.000 39.100,85.800 38.700,85.700 38.200,85.500 37.200,85.000 36.100,84.800 35.000,84.400 34.200,84.100 33.500,83.600 32.900,82.900 32.400,82.300 32.300,81.600 32.100,80.900 31.900,80.200 31.900,79.600 32.000,78.900 32.000,78.700 32.000,78.500 32.000,78.300 32.000,78.200 32.000,78.100 31.900,78.100 31.200,77.700 30.900,77.100 30.500,76.500 30.400,76.400 30.400,76.300 30.400,76.200 30.000,75.100 29.700,74.000 29.300,72.900 29.300,72.700 29.200,72.700 29.000,72.700 28.200,72.700 27.300,72.700 26.500,72.600 25.800,72.500 25.100,72.400 24.500,72.100 23.900,71.900 23.400,71.500 23.000,71.000 21.900,69.600 21.000,68.000 20.000,66.600 19.000,65.100 18.000,63.600 17.000,62.000 16.600,61.400 16.300,60.900 15.900,60.300 16.100,60.100 16.000,60.000 16.000,59.900 15.900,59.600 15.900,59.300 15.800,59.000 15.500,58.100 15.700,57.300 15.800,56.400 16.000,55.600 16.400,55.000 16.900,54.300 17.000,54.200 17.100,54.100 17.200,54.000 17.500,53.900 17.500,53.600 17.500,53.300 17.300,51.800 17.100,50.200 16.900,48.700 16.800,47.700 16.700,46.700 16.600,45.700 16.500,44.700 16.300,43.700 16.200,42.600 16.100,41.700 16.000,40.800 15.900,39.900 15.900,39.500 15.700,39.100 15.700,38.800 15.600,38.300 15.600,37.700 15.500,37.200 15.400,36.400 15.400,35.500 15.400,34.700 15.400,33.900 15.500,33.100 15.600,32.300 15.700,31.400 15.900,30.500 16.200,29.600 16.400,28.700 16.700,27.800 17.000,26.900 17.500,25.500 18.100,24.200 18.800,22.900 19.100,22.400 19.400,21.800 19.700,21.300 20.300,20.300 20.900,19.300 21.600,18.400 22.200,17.600 22.800,16.800 23.500,16.100 24.000,15.500 24.600,14.900 25.200,14.400 26.500,13.200 28.000,12.200 29.400,11.200 30.100,10.700 30.900,10.300 31.600,9.900 32.100,9.600 32.700,9.300 33.200,9.100 33.900,8.800 34.600,8.500 35.300,8.300 36.700,7.800 38.100,7.500 39.500,7.200 40.300,7.000 41.100,6.900 41.800,6.800 42.600,6.700 43.300,6.600 44.100,6.500 44.400,6.500 44.600,6.500 44.900,6.500 46.500,6.400 48.100,6.400 49.700,6.500 51.100,6.500 52.400,6.700 53.800,6.900 55.400,7.100 57.000,7.500 58.600,7.800 59.900,7.900 61.000,8.300 62.000,8.700 62.900,9.100 63.700,9.500 64.600,9.900 66.200,10.700 67.600,11.800 69.100,12.900 69.400,13.100 69.700,13.300 70.000,13.600 70.600,14.100 71.100,14.600 71.700,15.100 72.300,15.700 72.800,16.200 73.300,16.800 74.000,17.600 74.700,18.500 75.300,19.400 75.800,20.100 76.300,20.900 76.700,21.700 77.300,22.800 77.900,23.800 78.300,24.900 78.700,25.700 79.000,26.600 79.300,27.500 79.700,28.800 80.100,30.200 80.300,31.600 80.500,32.400 80.600,33.300 80.600,34.200 80.600,34.500 80.600,34.900 80.600,35.400 Z M 47.800,8.200 C 47.000,8.200 46.100,8.200 45.100,8.300 44.800,8.300 44.600,8.300 44.300,8.300 43.500,8.400 42.800,8.500 42.000,8.600 41.200,8.700 40.400,8.900 39.500,9.000 38.900,9.100 38.200,9.300 37.600,9.500 36.900,9.700 36.200,9.900 35.600,10.100 35.000,10.300 34.400,10.600 33.900,10.800 33.400,11.000 33.000,11.200 32.500,11.500 31.800,11.900 31.000,12.300 30.400,12.800 29.300,13.600 28.100,14.400 27.100,15.300 26.400,15.900 25.800,16.500 25.200,17.100 24.700,17.600 24.200,18.200 23.700,18.800 23.100,19.600 22.500,20.400 21.900,21.300 21.400,22.100 20.900,22.900 20.500,23.800 20.000,24.600 19.600,25.500 19.200,26.400 18.800,27.300 18.500,28.200 18.200,29.100 17.900,30.200 17.600,31.300 17.400,32.400 17.300,33.200 17.200,33.900 17.200,34.700 17.100,36.100 17.300,37.400 17.500,38.700 17.600,39.500 17.800,40.300 17.900,41.200 18.000,42.100 18.100,43.000 18.200,43.900 18.300,44.600 18.400,45.400 18.500,46.100 18.600,47.100 18.700,48.100 18.900,49.200 19.000,50.100 19.100,50.900 19.200,51.800 19.300,52.800 19.400,53.700 19.600,54.700 19.600,54.800 19.600,54.800 19.500,54.900 19.200,55.100 18.900,55.300 18.600,55.600 18.200,55.900 17.900,56.200 17.800,56.600 17.500,57.300 17.300,58.100 17.600,58.800 17.700,58.900 17.700,59.100 17.700,59.200 17.700,59.300 17.800,59.500 17.800,59.600 18.600,60.800 19.400,62.100 20.300,63.300 21.100,64.500 21.900,65.700 22.700,66.900 23.400,67.900 24.000,68.900 24.700,69.900 25.000,70.200 25.300,70.500 25.700,70.600 26.400,70.800 27.100,70.900 27.800,70.900 28.800,70.900 29.700,71.000 30.700,71.000 30.800,71.000 30.900,71.000 30.900,71.200 31.400,72.600 31.800,74.000 32.300,75.500 32.600,76.300 33.200,76.900 34.000,77.200 34.200,77.300 34.200,77.300 34.200,77.500 34.200,78.400 34.100,79.200 34.100,80.100 34.100,80.900 34.200,81.700 34.800,82.300 35.100,82.600 35.400,82.800 35.800,83.000 36.900,83.500 38.100,83.700 39.200,84.200 39.800,84.500 40.500,84.600 41.100,84.900 42.000,85.300 43.000,85.500 43.900,85.900 45.000,86.400 46.100,86.800 47.200,87.000 47.400,87.000 47.600,87.100 47.700,87.000 48.000,86.900 48.200,86.900 48.500,87.000 48.600,87.000 48.700,87.000 48.900,87.000 49.900,86.800 50.800,86.400 51.800,86.100 52.200,86.000 52.500,85.700 52.800,85.600 54.000,85.300 55.100,84.800 56.200,84.500 56.800,84.300 57.400,83.900 58.100,83.800 58.300,83.800 58.400,83.700 58.600,83.700 59.200,83.500 59.800,83.300 60.400,83.100 60.800,83.000 61.100,82.700 61.400,82.500 62.000,81.900 62.200,81.100 62.200,80.400 62.200,79.500 62.200,78.600 62.100,77.700 62.100,77.500 62.100,77.400 62.300,77.400 63.100,77.100 63.600,76.500 63.900,75.700 64.400,74.300 64.800,72.900 65.300,71.500 65.300,71.400 65.400,71.300 65.500,71.300 66.400,71.300 67.300,71.200 68.200,71.200 68.900,71.200 69.700,71.200 70.400,70.900 70.500,70.900 70.700,70.800 70.800,70.700 71.300,70.400 71.600,70.000 71.900,69.600 73.000,67.900 74.100,66.300 75.200,64.600 76.200,63.000 77.300,61.500 78.300,59.900 78.300,59.800 78.400,59.800 78.400,59.700 78.600,58.900 78.900,58.200 78.600,57.400 78.500,57.200 78.500,56.900 78.400,56.700 78.100,56.300 77.800,55.800 77.300,55.500 77.100,55.400 76.900,55.200 76.700,55.100 76.600,55.000 76.600,55.000 76.600,54.800 76.700,54.500 76.700,54.200 76.700,53.900 76.800,53.000 76.900,52.100 77.000,51.200 77.100,50.300 77.200,49.500 77.300,48.600 77.400,47.500 77.600,46.500 77.700,45.400 77.800,44.300 77.900,43.300 78.100,42.200 78.200,41.500 78.200,40.700 78.400,40.000 78.700,38.900 78.800,37.800 78.900,36.600 79.000,35.000 78.900,33.300 78.600,31.700 78.500,31.100 78.300,30.600 78.200,30.100 78.000,29.100 77.700,28.200 77.300,27.300 76.900,26.400 76.500,25.500 76.100,24.600 75.700,23.900 75.400,23.200 75.000,22.500 74.800,22.100 74.500,21.700 74.300,21.300 73.500,20.000 72.600,18.800 71.600,17.700 71.200,17.300 70.900,16.900 70.500,16.600 70.000,16.100 69.500,15.600 69.000,15.200 67.800,14.300 66.600,13.400 65.400,12.600 64.900,12.300 64.300,12.000 63.800,11.700 63.100,11.400 62.400,11.000 61.800,10.700 61.000,10.300 60.100,10.100 59.200,9.800 58.000,9.400 56.700,9.200 55.400,9.000 54.300,8.800 53.200,8.700 52.100,8.600 51.300,8.500 50.600,8.500 49.800,8.500 49.000,8.100 48.500,8.200 47.800,8.200 Z " />
  <path stroke="none" fill="#fffefefe" d="M 76.100,34.700 C 76.100,36.400 75.900,37.600 75.700,38.800 75.500,39.800 75.400,40.900 75.300,41.900 75.100,43.900 74.800,45.900 74.600,47.900 74.400,49.600 74.200,51.300 74.000,53.000 73.900,53.900 73.800,54.800 73.700,55.600 73.700,55.700 73.700,55.800 73.800,55.900 74.400,56.300 75.000,56.800 75.600,57.300 76.000,57.600 76.000,57.900 75.800,58.300 75.000,59.500 74.200,60.700 73.500,61.800 72.200,63.800 70.900,65.700 69.600,67.700 69.500,67.900 69.400,67.900 69.200,67.900 67.700,68.000 66.300,68.000 64.800,68.100 64.000,68.100 63.200,68.700 62.900,69.500 62.400,71.000 61.900,72.500 61.400,74.000 61.300,74.200 61.300,74.300 61.100,74.300 58.300,75.200 55.400,76.200 52.600,77.200 51.200,77.700 49.900,78.100 48.500,78.600 48.400,78.600 48.300,78.600 48.200,78.700 48.100,78.800 48.000,78.800 47.900,78.700 46.600,78.200 45.300,77.800 43.900,77.300 40.900,76.300 37.900,75.300 35.000,74.300 34.800,74.200 34.800,74.200 34.700,74.000 34.200,72.500 33.700,71.000 33.200,69.500 32.900,68.600 32.100,68.000 31.200,68.000 29.700,67.900 28.300,67.900 26.800,67.800 26.600,67.800 26.500,67.700 26.400,67.600 24.500,64.700 22.600,61.800 20.700,58.900 20.500,58.600 20.200,58.300 20.100,57.900 20.000,57.600 20.000,57.400 20.300,57.100 20.900,56.600 21.500,56.200 22.100,55.700 22.200,55.600 22.300,55.500 22.200,55.400 21.900,53.000 21.600,50.600 21.400,48.200 21.100,45.500 20.800,42.900 20.500,40.200 20.400,38.900 20.100,37.700 20.000,36.400 19.900,35.200 19.900,34.100 20.000,32.900 20.300,30.700 20.900,28.600 21.800,26.600 22.200,25.600 22.800,24.700 23.300,23.800 23.700,23.000 24.200,22.300 24.700,21.600 26.500,19.100 28.600,16.900 31.200,15.200 33.800,13.400 36.700,12.100 39.800,11.400 41.700,11.000 43.700,10.700 45.700,10.600 48.200,10.500 50.700,10.500 53.200,10.800 54.100,10.900 55.000,11.000 55.900,11.200 57.800,11.700 59.700,12.200 61.500,13.100 64.000,14.300 66.300,15.900 68.400,17.900 70.100,19.600 71.500,21.500 72.700,23.600 73.200,24.500 73.800,25.400 74.200,26.400 74.900,27.800 75.400,29.300 75.700,30.900 75.900,32.600 76.100,33.900 76.100,34.700 Z M 28.400,50.200 C 28.400,51.000 28.600,51.800 29.000,52.500 29.800,53.900 30.600,55.300 31.400,56.800 31.600,57.100 31.800,57.200 32.100,57.100 32.600,57.000 33.100,57.000 33.600,56.900 36.100,56.600 38.600,56.200 41.000,55.900 41.200,55.900 41.300,55.800 41.300,55.600 41.600,54.400 41.800,53.200 42.100,52.000 42.200,51.700 42.300,51.300 42.200,51.000 42.100,49.800 42.000,48.700 41.900,47.500 41.900,47.100 41.800,46.700 41.700,46.300 41.000,44.200 39.300,43.000 37.100,43.100 36.600,43.100 36.100,43.100 35.700,43.100 34.500,43.100 33.300,43.100 32.100,43.100 31.900,43.100 31.800,43.100 31.800,43.300 30.900,44.700 30.000,46.200 29.100,47.600 28.600,48.400 28.400,49.300 28.400,50.200 Z M 61.100,43.200 C 60.400,43.200 59.700,43.200 58.900,43.200 58.600,43.200 58.200,43.200 57.900,43.300 56.000,43.600 54.300,45.300 54.100,47.500 54.000,48.500 53.900,49.500 53.900,50.400 53.900,50.800 53.800,51.200 53.900,51.500 54.200,52.900 54.500,54.300 54.800,55.700 54.800,55.800 54.900,55.900 55.000,55.900 56.300,56.100 57.600,56.300 59.000,56.400 60.700,56.600 62.400,56.900 64.100,57.100 64.300,57.100 64.600,57.100 64.700,56.800 65.500,55.400 66.300,54.000 67.100,52.600 68.000,50.900 68.100,49.300 67.000,47.700 66.100,46.300 65.200,44.800 64.300,43.400 64.200,43.300 64.100,43.200 64.000,43.200 63.000,43.200 62.100,43.200 61.100,43.200 Z M 48.000,56.400 C 47.500,56.400 47.000,56.800 46.800,57.400 46.800,57.600 46.700,57.700 46.600,57.900 46.100,58.900 45.700,59.900 45.200,60.900 45.100,61.000 45.100,61.100 45.000,61.200 44.400,61.700 43.900,62.200 43.300,62.700 43.200,62.800 43.200,62.800 43.200,63.000 43.300,64.000 43.400,65.000 43.500,66.000 43.600,66.800 44.000,67.200 44.800,67.400 45.800,67.600 46.800,67.800 47.700,68.000 47.800,68.000 47.800,68.000 47.900,68.000 49.000,67.800 50.000,67.600 51.100,67.300 51.700,67.200 52.100,66.800 52.200,66.200 52.300,65.100 52.500,64.000 52.600,62.900 52.600,62.800 52.600,62.700 52.500,62.700 52.200,62.400 51.900,62.100 51.600,61.900 50.900,61.400 50.400,60.800 50.200,60.000 50.100,59.700 50.000,59.500 49.900,59.300 49.600,58.600 49.300,58.000 49.100,57.300 49.000,56.800 48.500,56.400 48.000,56.400 Z " />
  <path stroke="none" fill="#fffefefe" d="M 40.300,78.100 C 40.800,78.300 41.200,78.400 41.700,78.600 42.300,78.800 43.000,79.000 43.600,79.200 43.700,79.200 43.800,79.200 43.800,79.400 43.800,80.500 43.800,81.600 43.800,82.700 43.400,82.600 43.000,82.400 42.600,82.300 41.900,82.000 41.200,81.800 40.500,81.500 40.400,81.500 40.300,81.500 40.300,81.300 40.300,80.200 40.300,79.200 40.300,78.100 Z " />
  <path stroke="none" fill="#fffefefe" d="M 55.900,78.100 C 55.900,78.700 55.900,79.300 55.900,79.900 55.900,80.200 55.900,80.500 55.900,80.800 55.900,81.500 55.900,81.400 55.300,81.700 54.400,82.000 53.600,82.300 52.700,82.600 52.600,82.600 52.600,82.600 52.500,82.700 52.500,81.600 52.500,80.500 52.500,79.400 52.500,79.300 52.500,79.300 52.600,79.200 53.700,78.800 54.800,78.500 55.900,78.100 Z " />
  <path stroke="none" fill="#fffefefe" d="M 45.000,79.700 C 45.800,80.000 46.600,80.200 47.400,80.500 47.500,80.500 47.500,80.600 47.500,80.700 47.500,81.800 47.500,82.900 47.500,84.100 47.100,84.000 46.800,83.900 46.500,83.700 46.100,83.500 45.600,83.400 45.200,83.200 45.100,83.200 45.000,83.100 45.000,83.000 45.000,81.900 45.000,80.800 45.000,79.700 Z " />
  <path stroke="none" fill="#fffefefe" d="M 48.700,84.000 C 48.700,82.900 48.700,81.700 48.700,80.600 48.700,80.500 48.700,80.500 48.800,80.500 49.600,80.200 50.400,80.000 51.200,79.700 51.300,79.800 51.200,79.800 51.200,79.900 51.200,80.900 51.200,81.900 51.200,82.900 51.200,83.000 51.200,83.100 51.000,83.100 50.300,83.400 49.500,83.700 48.700,84.000 Z " />
  <path stroke="none" fill="#fffefefe" d="M 36.900,76.900 C 37.600,77.100 38.300,77.400 39.000,77.600 39.100,77.600 39.100,77.700 39.100,77.800 39.100,78.800 39.100,79.800 39.100,80.800 39.100,81.000 39.000,80.900 38.900,80.900 38.200,80.700 37.600,80.400 36.900,80.200 36.800,80.200 36.800,80.100 36.800,80.000 36.800,79.000 36.900,78.000 36.900,76.900 Z " />
  <path stroke="none" fill="#fffefefe" d="M 57.100,81.000 C 57.100,79.900 57.100,78.900 57.100,77.800 57.100,77.700 57.100,77.600 57.200,77.600 57.900,77.400 58.600,77.100 59.300,76.900 59.300,77.200 59.300,77.400 59.300,77.700 59.300,78.400 59.400,79.200 59.400,79.900 59.400,80.000 59.400,80.100 59.300,80.100 58.600,80.400 57.900,80.700 57.100,81.000 Z " />
</svg>