<?xml version="1.0" encoding="UTF-8" standalone="no"?>
<!DOCTYPE svg PUBLIC "-//W3C//DTD SVG 20010904//EN" "http://www.w3.org/TR/2001/REC-SVG-20010904/DTD/svg10.dtd"[]>
<svg version="1.1" id="Frosty Editor v1.0.6.3" xmlns="http://www.w3.org/2000/svg" d1p1:xlink="http://www.w3.org/1999/xlink" viewBox="0 0 96 96" xmlns:d1p1="xmlns">
  <path stroke="none" fill="#ffffffff" d="M 47.280,59.260 C 47.154,59.898 46.642,60.389 46.000,60.490 45.633,60.490 45.267,60.490 44.900,60.490 38.360,60.490 34.580,54.160 36.470,46.370 36.687,45.473 36.903,44.577 37.120,43.680 37.120,43.680 37.120,43.680 37.120,43.680 37.257,43.057 37.776,42.591 38.410,42.520 40.640,42.520 42.870,42.520 45.100,42.520 45.650,42.520 45.830,43.230 45.420,43.800 44.381,45.247 43.627,46.880 43.200,48.610 42.120,53.080 43.690,56.860 46.810,58.100 47.219,58.329 47.415,58.811 47.280,59.260 47.280,59.260 47.280,59.260 47.280,59.260 Z " />
  <path stroke="none" fill="#ffffffff" d="M 61.290,59.280 C 61.159,59.917 60.643,60.404 60.000,60.500 59.633,60.500 59.267,60.500 58.900,60.500 52.360,60.500 48.580,54.170 50.470,46.380 50.687,45.483 50.903,44.587 51.120,43.690 51.120,43.690 51.120,43.690 51.120,43.690 51.257,43.067 51.776,42.601 52.410,42.530 54.657,42.530 56.903,42.530 59.150,42.530 59.700,42.530 59.880,43.240 59.470,43.810 58.431,45.257 57.677,46.890 57.250,48.620 56.170,53.090 57.740,56.870 60.860,58.110 61.259,58.352 61.437,58.837 61.290,59.280 61.290,59.280 61.290,59.280 61.290,59.280 Z " />
  <path stroke="none" fill="#ffffffff" d="M 50.100,65.770 C 38.900,65.770 29.790,59.120 29.790,50.960 29.790,46.960 31.980,43.330 35.530,40.670 36.395,40.021 37.448,39.670 38.530,39.670 47.687,39.670 56.843,39.670 66.000,39.670 66.770,39.670 67.000,39.890 67.000,41.040 67.000,42.410 67.000,49.830 67.000,50.930 67.050,59.120 61.300,65.770 50.100,65.770 50.100,65.770 50.100,65.770 50.100,65.770 Z M 68.370,35.350 C 55.087,35.350 41.803,35.350 28.520,35.350 26.913,35.350 25.610,36.653 25.610,38.260 25.610,42.093 25.610,45.927 25.610,49.760 25.610,50.150 25.560,50.550 25.560,50.950 25.560,61.450 36.560,69.950 50.110,69.950 63.660,69.950 71.290,61.410 71.290,50.950 71.290,46.720 71.290,42.490 71.290,38.260 71.290,37.486 70.982,36.745 70.434,36.199 69.886,35.653 69.143,35.347 68.370,35.350 68.370,35.350 68.370,35.350 68.370,35.350 Z " />
</svg>