<?xml version="1.0" encoding="UTF-8" standalone="no"?>
<!DOCTYPE svg PUBLIC "-//W3C//DTD SVG 20010904//EN" "http://www.w3.org/TR/2001/REC-SVG-20010904/DTD/svg10.dtd"[]>
<svg version="1.1" id="Frosty Editor v1.0.6.3" xmlns="http://www.w3.org/2000/svg" d1p1:xlink="http://www.w3.org/1999/xlink" viewBox="0 0 96 96" xmlns:d1p1="xmlns">
  <path stroke="none" fill="#ffffffff" d="M 84.500,54.500 C 84.500,56.500 84.500,58.500 84.500,60.500 60.667,60.500 36.833,60.500 13.000,60.500 13.000,54.667 13.000,48.833 13.000,43.000 13.730,41.667 14.460,40.333 15.190,39.000 15.263,39.000 15.337,39.000 15.410,39.000 16.167,40.377 16.923,41.753 17.680,43.130 17.680,46.920 17.680,50.710 17.680,54.500 21.680,54.500 25.680,54.500 29.680,54.500 29.680,52.973 29.680,51.447 29.680,49.920 30.410,48.587 31.140,47.253 31.870,45.920 31.943,45.920 32.017,45.920 32.090,45.920 32.853,47.280 33.617,48.640 34.380,50.000 34.380,51.500 34.380,53.000 34.380,54.500 38.380,54.500 42.380,54.500 46.380,54.500 46.380,51.087 46.380,47.673 46.380,44.260 47.110,42.927 47.840,41.593 48.570,40.260 48.643,40.260 48.717,40.260 48.790,40.260 49.547,41.637 50.303,43.013 51.060,44.390 51.060,47.760 51.060,51.130 51.060,54.500 55.060,54.500 59.060,54.500 63.060,54.500 63.060,52.973 63.060,51.447 63.060,49.920 63.790,48.587 64.520,47.253 65.250,45.920 65.323,45.920 65.397,45.920 65.470,45.920 66.243,47.280 67.017,48.640 67.790,50.000 67.790,51.500 67.790,53.000 67.790,54.500 71.790,54.500 75.790,54.500 79.790,54.500 79.790,50.667 79.790,46.833 79.790,43.000 80.527,41.667 81.263,40.333 82.000,39.000 82.073,39.000 82.147,39.000 82.220,39.000 82.977,40.377 83.733,41.753 84.490,43.130 84.493,46.920 84.497,50.710 84.500,54.500 Z " />
</svg>