<?xml version="1.0" encoding="UTF-8" standalone="no"?>
<!DOCTYPE svg PUBLIC "-//W3C//DTD SVG 20010904//EN" "http://www.w3.org/TR/2001/REC-SVG-20010904/DTD/svg10.dtd"[]>
<svg version="1.1" id="Frosty Editor v1.0.6.3" xmlns="http://www.w3.org/2000/svg" d1p1:xlink="http://www.w3.org/1999/xlink" viewBox="0 0 96 96" xmlns:d1p1="xmlns">
  <path stroke="none" fill="#ffffffff" d="M 45.000,60.500 C 45.000,57.000 45.000,53.500 45.000,50.000 43.667,50.000 42.333,50.000 41.000,50.000 41.000,54.700 41.000,59.400 41.000,64.100 42.333,62.900 43.667,61.700 45.000,60.500 Z " />
  <path stroke="none" fill="#ffffffff" d="M 47.000,30.000 C 42.833,36.533 38.667,43.067 34.500,49.600 38.067,48.400 41.633,47.200 45.200,46.000 46.400,46.000 47.600,46.000 48.800,46.000 52.367,47.200 55.933,48.400 59.500,49.600 55.333,43.067 51.167,36.533 47.000,30.000 Z " />
  <path stroke="none" fill="#ffffffff" d="M 53.000,64.100 C 53.000,59.400 53.000,54.700 53.000,50.000 51.667,50.000 50.333,50.000 49.000,50.000 49.000,53.500 49.000,57.000 49.000,60.500 50.333,61.700 51.667,62.900 53.000,64.100 Z " />
  <path stroke="none" fill="#ffffffff" d="M 83.800,37.800 C 78.833,29.200 73.867,20.600 68.900,12.000 65.100,12.000 61.300,12.000 57.500,12.000 56.167,14.333 54.833,16.667 53.500,19.000 57.300,19.000 61.100,19.000 64.900,19.000 68.500,25.267 72.100,31.533 75.700,37.800 77.667,41.167 79.633,44.533 81.600,47.900 79.633,51.267 77.667,54.633 75.700,58.000 78.400,58.000 81.100,58.000 83.800,58.000 85.733,54.633 87.667,51.267 89.600,47.900 87.667,44.533 85.733,41.167 83.800,37.800 Z " />
  <path stroke="none" fill="#ffffffff" d="M 32.100,19.000 C 35.933,19.000 39.767,19.000 43.600,19.000 42.233,16.667 40.867,14.333 39.500,12.000 35.700,12.000 31.900,12.000 28.100,12.000 23.133,20.600 18.167,29.200 13.200,37.800 11.267,41.167 9.333,44.533 7.400,47.900 9.333,51.267 11.267,54.633 13.200,58.000 15.900,58.000 18.600,58.000 21.300,58.000 19.333,54.633 17.367,51.267 15.400,47.900 17.367,44.533 19.333,41.167 21.300,37.800 24.900,31.533 28.500,25.267 32.100,19.000 Z " />
  <path stroke="none" fill="#ffffffff" d="M 65.000,77.000 C 61.167,77.000 57.333,77.000 53.500,77.000 46.333,77.000 39.167,77.000 32.000,77.000 30.100,73.667 28.200,70.333 26.300,67.000 24.933,69.333 23.567,71.667 22.200,74.000 24.133,77.333 26.067,80.667 28.000,84.000 37.833,84.000 47.667,84.000 57.500,84.000 61.333,84.000 65.167,84.000 69.000,84.000 70.933,80.633 72.867,77.267 74.800,73.900 73.467,71.600 72.133,69.300 70.800,67.000 68.867,70.333 66.933,73.667 65.000,77.000 Z " />
</svg>