<?xml version="1.0" encoding="UTF-8" standalone="no"?>
<!DOCTYPE svg PUBLIC "-//W3C//DTD SVG 20010904//EN" "http://www.w3.org/TR/2001/REC-SVG-20010904/DTD/svg10.dtd"[]>
<svg version="1.1" id="Frosty Editor v1.0.6.3" xmlns="http://www.w3.org/2000/svg" d1p1:xlink="http://www.w3.org/1999/xlink" viewBox="0 0 96 96" xmlns:d1p1="xmlns">
  <path stroke="none" fill="#ffffffff" d="M 45.600,31.000 C 38.167,31.000 30.733,31.000 23.300,31.000 22.733,31.933 22.167,32.867 21.600,33.800 29.067,33.800 36.533,33.800 44.000,33.800 44.533,32.867 45.067,31.933 45.600,31.000 Z " />
  <path stroke="none" fill="#ffffffff" d="M 41.100,38.700 C 33.633,38.700 26.167,38.700 18.700,38.700 18.167,39.600 17.633,40.500 17.100,41.400 24.533,41.400 31.967,41.400 39.400,41.400 39.967,40.500 40.533,39.600 41.100,38.700 Z " />
  <path stroke="none" fill="#ffffffff" d="M 36.500,46.300 C 29.067,46.300 21.633,46.300 14.200,46.300 13.633,47.233 13.067,48.167 12.500,49.100 19.967,49.100 27.433,49.100 34.900,49.100 35.433,48.167 35.967,47.233 36.500,46.300 Z " />
  <path stroke="none" fill="#ffffffff" d="M 66.800,30.500 C 69.900,30.600 72.400,28.200 72.500,25.100 72.600,22.000 70.200,19.500 67.100,19.400 64.000,19.300 61.500,21.700 61.400,24.800 61.300,27.800 63.700,30.400 66.800,30.500 66.800,30.500 66.800,30.500 66.800,30.500 Z " />
  <path stroke="none" fill="#ffffffff" d="M 83.500,32.900 C 80.400,32.767 77.300,32.633 74.200,32.500 75.967,30.000 77.733,27.500 79.500,25.000 75.867,27.567 72.233,30.133 68.600,32.700 68.600,32.700 69.900,33.500 70.100,35.000 70.300,37.100 70.700,39.700 70.700,39.700 74.000,40.600 77.300,41.500 80.600,42.400 78.567,40.333 76.533,38.267 74.500,36.200 77.500,35.100 80.500,34.000 83.500,32.900 83.500,32.900 83.500,32.900 83.500,32.900 Z " />
  <path stroke="none" fill="#ffffffff" d="M 46.200,43.300 C 47.300,43.700 48.600,43.200 49.000,42.000 50.200,38.767 51.400,35.533 52.600,32.300 53.500,32.700 54.400,33.100 55.300,33.500 55.300,33.500 56.200,31.900 57.100,31.100 58.100,30.200 59.500,30.100 59.500,30.100 57.233,29.100 54.967,28.100 52.700,27.100 52.600,27.100 52.500,27.000 52.400,27.000 52.400,27.000 52.400,27.000 52.300,27.000 51.200,26.600 49.900,27.100 49.500,28.300 48.000,32.367 46.500,36.433 45.000,40.500 44.500,41.600 45.100,42.900 46.200,43.300 46.200,43.300 46.200,43.300 46.200,43.300 Z " />
  <path stroke="none" fill="#ffffffff" d="M 64.200,42.200 C 64.367,43.400 64.533,44.600 64.700,45.800 63.733,45.900 62.767,46.000 61.800,46.100 62.600,44.800 63.400,43.500 64.200,42.200 64.200,42.200 64.200,42.200 64.200,42.200 Z M 67.300,56.300 C 64.533,54.667 61.767,53.033 59.000,51.400 59.267,50.933 59.533,50.467 59.800,50.000 61.933,49.833 64.067,49.667 66.200,49.500 66.500,49.500 66.700,49.400 67.000,49.300 68.100,48.900 68.900,47.800 68.700,46.600 68.267,43.000 67.833,39.400 67.400,35.800 67.200,34.300 65.600,33.400 65.200,33.200 64.700,32.900 64.200,32.600 63.700,32.300 61.500,31.000 58.700,31.600 57.300,33.800 54.467,38.367 51.633,42.933 48.800,47.500 48.700,47.600 48.700,47.700 48.700,47.800 48.600,47.900 48.600,48.000 48.500,48.000 47.900,49.200 48.600,50.900 50.200,51.800 53.933,54.033 57.667,56.267 61.400,58.500 56.900,60.433 52.400,62.367 47.900,64.300 46.700,64.800 46.000,66.200 46.400,67.500 46.467,67.633 46.533,67.767 46.600,67.900 47.000,69.100 48.400,69.700 49.600,69.100 55.467,66.567 61.333,64.033 67.200,61.500 67.600,61.300 67.900,61.100 68.200,60.700 68.400,60.500 68.700,60.300 68.800,60.000 69.600,58.900 68.800,57.200 67.300,56.300 67.300,56.300 67.300,56.300 67.300,56.300 Z " />
  <path stroke="none" fill="#ffffffff" d="M 47.200,52.500 C 43.000,59.100 38.800,65.700 34.600,72.300 33.800,73.600 33.900,75.200 34.800,75.800 35.033,75.967 35.267,76.133 35.500,76.300 36.400,77.000 37.800,76.500 38.700,75.200 42.967,68.500 47.233,61.800 51.500,55.100 50.067,54.233 48.633,53.367 47.200,52.500 47.200,52.500 47.200,52.500 47.200,52.500 Z " />
</svg>