<?xml version="1.0" encoding="UTF-8" standalone="no"?>
<!DOCTYPE svg PUBLIC "-//W3C//DTD SVG 20010904//EN" "http://www.w3.org/TR/2001/REC-SVG-20010904/DTD/svg10.dtd"[]>
<svg version="1.1" id="Frosty Editor v1.0.6.3" xmlns="http://www.w3.org/2000/svg" d1p1:xlink="http://www.w3.org/1999/xlink" viewBox="0 0 25 25" xmlns:d1p1="xmlns">
  <path stroke="none" fill="#ffffffff" d="M 8.424,3.198 C 8.788,3.859 9.152,4.519 9.517,5.180 16.861,5.180 16.861,5.180 16.861,5.180 17.225,4.519 17.589,3.859 17.953,3.198 Z M 8.856,3.452 C 17.521,3.452 17.521,3.452 17.521,3.452 17.259,3.944 16.996,4.435 16.734,4.926 9.669,4.926 9.669,4.926 9.669,4.926 9.398,4.435 9.127,3.944 8.856,3.452 Z M 18.704,3.617 C 18.314,4.262 17.924,4.909 17.534,5.554 18.758,7.674 19.982,9.794 21.206,11.914 21.960,11.899 22.715,11.885 23.469,11.870 21.881,9.119 20.292,6.368 18.704,3.617 Z M 7.661,3.630 C 6.043,6.417 4.426,9.204 2.808,11.991 5.095,11.991 5.095,11.991 5.095,11.991 6.340,9.848 7.585,7.704 8.830,5.561 8.441,4.918 8.051,4.274 7.661,3.630 Z M 18.700,4.118 C 23.033,11.622 23.033,11.622 23.033,11.622 22.476,11.641 21.919,11.659 21.362,11.677 17.830,5.559 17.830,5.559 17.830,5.559 18.120,5.079 18.410,4.598 18.700,4.118 Z M 7.661,4.138 C 7.949,4.621 8.237,5.104 8.525,5.587 7.339,7.637 6.154,9.687 4.968,11.737 3.239,11.737 3.239,11.737 3.239,11.737 4.713,9.204 6.187,6.671 7.661,4.138 Z M 12.490,8.001 C 8.652,11.838 8.652,11.838 8.652,11.838 8.652,12.931 8.652,12.931 8.652,12.931 12.566,16.844 12.566,16.844 12.566,16.844 13.557,16.844 13.557,16.844 13.557,16.844 14.870,15.531 16.183,14.218 17.496,12.905 17.496,11.889 17.496,11.889 17.496,11.889 16.208,10.593 14.921,9.297 13.633,8.001 Z M 12.668,9.449 C 13.430,9.449 13.430,9.449 13.430,9.449 13.430,10.491 13.430,10.491 13.430,10.491 14.065,9.856 14.065,9.856 14.065,9.856 14.192,10.059 14.319,10.263 14.447,10.466 14.108,10.805 13.769,11.144 13.430,11.482 13.430,11.991 13.430,11.991 13.430,11.991 13.912,11.991 13.912,11.991 13.912,11.991 14.828,11.076 14.828,11.076 14.828,11.076 15.031,11.195 15.234,11.313 15.437,11.431 15.251,11.618 15.065,11.804 14.878,11.991 15.971,11.991 15.971,11.991 15.971,11.991 15.971,12.753 15.971,12.753 15.971,12.753 14.853,12.753 14.853,12.753 14.853,12.753 15.412,13.312 15.412,13.312 15.412,13.312 15.209,13.431 15.005,13.549 14.802,13.668 13.887,12.753 13.887,12.753 13.887,12.753 13.430,12.753 13.430,12.753 13.430,12.753 13.430,13.236 13.430,13.236 13.430,13.236 14.345,14.151 14.345,14.151 14.345,14.151 14.226,14.354 14.108,14.557 13.989,14.761 13.803,14.574 13.616,14.388 13.430,14.201 13.430,15.294 13.430,15.294 13.430,15.294 12.668,15.294 12.668,15.294 12.668,15.294 12.668,14.176 12.668,14.176 12.668,14.176 12.108,14.735 12.108,14.735 12.108,14.735 11.990,14.532 11.871,14.329 11.752,14.125 12.668,13.210 12.668,13.210 12.668,13.210 12.668,12.753 12.668,12.753 12.668,12.753 12.159,12.753 12.159,12.753 12.159,12.753 11.829,13.083 11.499,13.414 11.168,13.744 10.965,13.626 10.762,13.507 10.558,13.388 11.194,12.753 11.194,12.753 11.194,12.753 10.126,12.753 10.126,12.753 10.126,12.753 10.126,11.991 10.126,11.991 10.126,11.991 11.168,11.991 11.168,11.991 11.168,11.991 10.965,11.787 10.762,11.584 10.558,11.381 10.762,11.262 10.965,11.143 11.168,11.025 12.134,11.991 12.134,11.991 12.134,11.991 12.668,11.991 12.668,11.991 12.668,11.991 12.668,11.482 12.668,11.482 12.668,11.482 12.329,11.144 11.990,10.805 11.651,10.466 11.770,10.263 11.888,10.059 12.007,9.856 12.227,10.076 12.447,10.296 12.668,10.517 Z M 21.282,12.677 C 20.037,14.820 18.792,16.963 17.547,19.106 17.936,19.750 18.326,20.394 18.715,21.037 20.333,18.250 21.951,15.464 23.569,12.677 Z M 2.884,12.753 C 4.477,15.515 6.069,18.276 7.661,21.037 8.051,20.394 8.441,19.750 8.830,19.106 7.610,16.988 6.391,14.871 5.171,12.753 Z M 21.435,12.931 C 23.137,12.931 23.137,12.931 23.137,12.931 21.663,15.472 20.189,18.013 18.715,20.554 18.428,20.071 18.139,19.589 17.851,19.106 19.046,17.048 20.240,14.989 21.435,12.931 Z M 3.316,13.007 C 5.018,13.007 5.018,13.007 5.018,13.007 8.525,19.106 8.525,19.106 8.525,19.106 8.237,19.589 7.949,20.071 7.661,20.554 Z M 9.517,19.487 C 9.152,20.148 8.788,20.808 8.424,21.469 17.953,21.469 17.953,21.469 17.953,21.469 17.589,20.808 17.225,20.148 16.861,19.487 Z M 9.669,19.741 C 16.734,19.741 16.734,19.741 16.734,19.741 17.005,20.233 17.275,20.724 17.547,21.215 8.856,21.215 8.856,21.215 8.856,21.215 9.127,20.724 9.398,20.233 9.669,19.741 Z " />
</svg>