<?xml version="1.0" encoding="UTF-8" standalone="no"?>
<!DOCTYPE svg PUBLIC "-//W3C//DTD SVG 20010904//EN" "http://www.w3.org/TR/2001/REC-SVG-20010904/DTD/svg10.dtd"[]>
<svg version="1.1" id="Frosty Editor v1.0.6.3" xmlns="http://www.w3.org/2000/svg" d1p1:xlink="http://www.w3.org/1999/xlink" viewBox="0 0 96 96" xmlns:d1p1="xmlns">
  <path stroke="none" fill="#ffffffff" d="M 88.000,57.000 C 86.333,57.000 84.667,57.000 83.000,57.000 83.000,51.333 83.000,45.667 83.000,40.000 84.667,40.000 86.333,40.000 88.000,40.000 88.000,45.667 88.000,51.333 88.000,57.000 Z M 81.000,56.000 C 76.500,56.000 72.000,56.000 67.500,56.000 66.000,55.000 64.500,54.000 63.000,53.000 61.000,53.000 59.000,53.000 57.000,53.000 56.204,53.000 55.441,52.684 54.879,52.121 54.316,51.559 54.000,50.796 54.000,50.000 54.000,48.000 54.000,46.000 54.000,44.000 57.000,44.000 60.000,44.000 63.000,44.000 64.667,43.000 66.333,42.000 68.000,41.000 72.333,41.000 76.667,41.000 81.000,41.000 81.000,46.000 81.000,51.000 81.000,56.000 Z M 55.000,56.000 C 49.333,56.000 43.667,56.000 38.000,56.000 38.000,55.333 38.000,54.667 38.000,54.000 38.810,54.000 39.585,53.673 40.150,53.093 40.715,52.513 41.022,51.729 41.000,50.920 41.000,48.613 41.000,46.307 41.000,44.000 44.667,44.000 48.333,44.000 52.000,44.000 52.000,46.333 52.000,48.667 52.000,51.000 52.000,51.000 52.000,54.000 54.790,54.000 54.860,54.000 54.930,54.000 55.000,54.000 55.000,54.667 55.000,55.333 55.000,56.000 Z M 19.000,53.000 C 19.000,53.667 19.000,54.333 19.000,55.000 17.667,55.000 16.333,55.000 15.000,55.000 15.000,51.000 15.000,47.000 15.000,43.000 16.333,43.000 17.667,43.000 19.000,43.000 19.000,43.333 19.000,43.667 19.000,44.000 25.667,44.000 32.333,44.000 39.000,44.000 39.000,45.977 39.000,47.953 39.000,49.930 39.041,51.542 37.800,52.898 36.190,53.000 30.460,53.000 24.730,53.000 19.000,53.000 Z M 13.000,56.000 C 11.667,56.000 10.333,56.000 9.000,56.000 9.000,51.333 9.000,46.667 9.000,42.000 10.333,42.000 11.667,42.000 13.000,42.000 13.000,46.667 13.000,51.333 13.000,56.000 Z M 42.000,41.000 C 43.000,41.000 44.000,41.000 45.000,41.000 45.000,40.333 45.000,39.667 45.000,39.000 44.000,39.000 43.000,39.000 42.000,39.000 42.000,38.333 42.000,37.667 42.000,37.000 45.000,37.000 48.000,37.000 51.000,37.000 51.000,37.667 51.000,38.333 51.000,39.000 50.000,39.000 49.000,39.000 48.000,39.000 48.000,39.667 48.000,40.333 48.000,41.000 49.000,41.000 50.000,41.000 51.000,41.000 51.000,41.667 51.000,42.333 51.000,43.000 48.000,43.000 45.000,43.000 42.000,43.000 42.000,42.333 42.000,41.667 42.000,41.000 Z " />
</svg>