<?xml version="1.0" encoding="UTF-8" standalone="no"?>
<!DOCTYPE svg PUBLIC "-//W3C//DTD SVG 20010904//EN" "http://www.w3.org/TR/2001/REC-SVG-20010904/DTD/svg10.dtd"[]>
<svg version="1.1" id="Frosty Editor v1.0.6.3" xmlns="http://www.w3.org/2000/svg" d1p1:xlink="http://www.w3.org/1999/xlink" viewBox="0 0 96 96" xmlns:d1p1="xmlns">
  <path stroke="none" fill="#ffffffff" d="M 37.160,46.170 C 38.527,46.170 39.893,46.170 41.260,46.170 40.453,45.363 39.647,44.557 38.840,43.750 39.643,43.280 40.447,42.810 41.250,42.340 42.530,43.620 43.810,44.900 45.090,46.180 45.783,46.180 46.477,46.180 47.170,46.180 47.170,45.513 47.170,44.847 47.170,44.180 45.837,42.847 44.503,41.513 43.170,40.180 43.640,39.377 44.110,38.573 44.580,37.770 45.427,38.617 46.273,39.463 47.120,40.310 47.120,38.930 47.120,37.550 47.120,36.170 48.120,36.170 49.120,36.170 50.120,36.170 50.120,37.537 50.120,38.903 50.120,40.270 50.970,39.420 51.820,38.570 52.670,37.720 53.140,38.523 53.610,39.327 54.080,40.130 52.747,41.463 51.413,42.797 50.080,44.130 50.080,44.823 50.080,45.517 50.080,46.210 50.710,46.210 51.340,46.210 51.970,46.210 53.163,45.017 54.357,43.823 55.550,42.630 56.367,43.087 57.183,43.543 58.000,44.000 57.280,44.720 56.560,45.440 55.840,46.160 57.267,46.160 58.693,46.160 60.120,46.160 60.120,47.160 60.120,48.160 60.120,49.160 58.680,49.160 57.240,49.160 55.800,49.160 56.533,49.883 57.267,50.607 58.000,51.330 57.197,51.800 56.393,52.270 55.590,52.740 54.393,51.550 53.197,50.360 52.000,49.170 51.387,49.170 50.773,49.170 50.160,49.170 50.160,49.800 50.160,50.430 50.160,51.060 51.347,52.247 52.533,53.433 53.720,54.620 53.247,55.413 52.773,56.207 52.300,57.000 51.587,56.287 50.873,55.573 50.160,54.860 50.160,56.287 50.160,57.713 50.160,59.140 49.160,59.140 48.160,59.140 47.160,59.140 47.160,57.697 47.160,56.253 47.160,54.810 46.440,55.540 45.720,56.270 45.000,57.000 44.530,56.197 44.060,55.393 43.590,54.590 44.780,53.393 45.970,52.197 47.160,51.000 47.160,50.390 47.160,49.780 47.160,49.170 46.493,49.170 45.827,49.170 45.160,49.170 43.847,50.480 42.533,51.790 41.220,53.100 40.417,52.630 39.613,52.160 38.810,51.690 39.650,50.850 40.490,50.010 41.330,49.170 39.940,49.170 38.550,49.170 37.160,49.170 37.160,48.170 37.160,47.170 37.160,46.170 Z M 20.820,65.330 C 39.173,65.330 57.527,65.330 75.880,65.330 80.364,65.319 83.995,61.684 84.000,57.200 84.000,56.777 84.000,56.353 84.000,55.930 83.812,55.206 83.523,54.513 83.140,53.870 79.140,47.170 75.140,40.470 71.140,33.770 70.108,32.044 68.449,30.783 66.510,30.250 54.553,30.250 42.597,30.250 30.640,30.250 28.697,30.780 27.034,32.042 26.000,33.770 22.000,40.470 18.000,47.170 14.000,53.870 12.748,55.943 12.544,58.484 13.450,60.730 14.813,63.557 17.681,65.348 20.820,65.330 20.820,65.330 20.820,65.330 20.820,65.330 Z " />
  <path stroke="none" fill="#ffffffff" d="M 22.580,31.730 C 22.894,31.210 23.249,30.715 23.640,30.250 22.700,30.250 21.760,30.250 20.820,30.250 18.661,30.250 16.591,31.108 15.064,32.634 13.538,34.161 12.680,36.231 12.680,38.390 12.680,41.723 12.680,45.057 12.680,48.390 15.980,42.837 19.280,37.283 22.580,31.730 Z " />
  <path stroke="none" fill="#ffffffff" d="M 74.620,31.730 C 77.747,36.987 80.873,42.243 84.000,47.500 84.000,44.463 84.000,41.427 84.000,38.390 84.000,33.894 80.356,30.250 75.860,30.250 75.093,30.250 74.327,30.250 73.560,30.250 73.951,30.715 74.306,31.210 74.620,31.730 74.620,31.730 74.620,31.730 74.620,31.730 Z " />
</svg>