<?xml version="1.0" encoding="UTF-8" standalone="no"?>
<!DOCTYPE svg PUBLIC "-//W3C//DTD SVG 20010904//EN" "http://www.w3.org/TR/2001/REC-SVG-20010904/DTD/svg10.dtd"[]>
<svg version="1.1" id="Frosty Editor v1.0.6.3" xmlns="http://www.w3.org/2000/svg" d1p1:xlink="http://www.w3.org/1999/xlink" viewBox="0 0 96 96" xmlns:d1p1="xmlns">
  <path stroke="none" fill="#ffffffff" d="M 48.094,37.181 C 48.820,36.455 49.546,35.729 50.272,35.003 54.145,38.875 58.017,42.748 61.890,46.620 61.164,47.346 60.438,48.072 59.712,48.798 55.840,44.926 51.967,41.053 48.094,37.181 Z " />
  <path stroke="none" fill="#ffffffff" d="M 57.544,27.750 C 58.270,27.024 58.996,26.298 59.722,25.572 63.595,29.445 67.467,33.318 71.340,37.190 70.614,37.916 69.888,38.642 69.162,39.368 65.290,35.496 61.417,31.623 57.544,27.750 Z " />
  <path stroke="none" fill="#ffffffff" d="M 72.410,28.300 C 71.410,27.300 70.410,26.300 69.410,25.300 69.410,25.300 69.410,25.300 69.410,25.300 68.392,24.281 67.010,23.709 65.570,23.709 64.130,23.709 62.748,24.281 61.730,25.300 61.627,25.403 61.523,25.507 61.420,25.610 64.753,28.943 68.087,32.277 71.420,35.610 71.777,35.253 72.133,34.897 72.490,34.540 72.490,34.540 72.490,34.540 72.490,34.540 73.323,33.710 73.784,32.579 73.769,31.403 73.754,30.228 73.264,29.108 72.410,28.300 72.410,28.300 72.410,28.300 72.410,28.300 Z " />
  <path stroke="none" fill="#ffffffff" d="M 51.839,35.108 C 52.323,34.625 52.806,34.142 53.289,33.658 56.610,36.979 59.931,40.301 63.252,43.622 62.769,44.105 62.286,44.588 61.803,45.071 58.481,41.750 55.160,38.429 51.839,35.108 Z " />
  <path stroke="none" fill="#ffffffff" d="M 54.012,32.932 C 54.495,32.449 54.979,31.966 55.462,31.483 58.783,34.804 62.104,38.125 65.425,41.446 64.942,41.929 64.459,42.412 63.975,42.895 60.654,39.574 57.333,36.253 54.012,32.932 Z " />
  <path stroke="none" fill="#ffffffff" d="M 56.192,30.749 C 56.675,30.266 57.159,29.783 57.642,29.300 60.963,32.621 64.284,35.942 67.605,39.263 67.122,39.746 66.639,40.229 66.155,40.712 62.834,37.391 59.513,34.070 56.192,30.749 Z " />
  <path stroke="none" fill="#ffffffff" d="M 45.613,69.550 C 46.339,68.824 47.065,68.098 47.791,67.372 51.663,71.245 55.536,75.118 59.408,78.990 58.682,79.716 57.956,80.442 57.230,81.168 53.358,77.295 49.485,73.423 45.613,69.550 Z " />
  <path stroke="none" fill="#ffffffff" d="M 55.046,60.113 C 55.772,59.387 56.498,58.661 57.224,57.935 61.096,61.808 64.969,65.680 68.841,69.553 68.115,70.279 67.389,71.005 66.663,71.731 62.791,67.858 58.918,63.986 55.046,60.113 Z " />
  <path stroke="none" fill="#ffffffff" d="M 66.870,57.630 C 65.852,56.611 64.470,56.039 63.030,56.039 61.590,56.039 60.208,56.611 59.190,57.630 59.087,57.733 58.983,57.837 58.880,57.940 62.213,61.273 65.547,64.607 68.880,67.940 69.237,67.583 69.593,67.227 69.950,66.870 71.648,65.171 71.648,62.419 69.950,60.720 68.923,59.690 67.897,58.660 66.870,57.630 Z " />
  <path stroke="none" fill="#ffffffff" d="M 49.348,67.478 C 49.831,66.995 50.314,66.511 50.797,66.028 54.118,69.349 57.439,72.670 60.760,75.991 60.277,76.475 59.794,76.958 59.311,77.441 55.990,74.120 52.669,70.799 49.348,67.478 Z " />
  <path stroke="none" fill="#ffffffff" d="M 51.521,65.292 C 52.004,64.809 52.487,64.325 52.970,63.842 56.291,67.163 59.612,70.484 62.933,73.805 62.450,74.289 61.967,74.772 61.484,75.255 58.163,71.934 54.842,68.613 51.521,65.292 Z " />
  <path stroke="none" fill="#ffffffff" d="M 53.701,63.119 C 54.184,62.636 54.667,62.152 55.150,61.669 58.471,64.990 61.792,68.311 65.113,71.632 64.630,72.116 64.147,72.599 63.664,73.082 60.343,69.761 57.022,66.440 53.701,63.119 Z " />
  <path stroke="none" fill="#ffffffff" d="M 15.726,39.670 C 16.452,38.944 17.178,38.218 17.904,37.492 21.776,41.365 25.649,45.238 29.522,49.110 28.796,49.836 28.070,50.562 27.344,51.288 23.471,47.415 19.599,43.543 15.726,39.670 Z " />
  <path stroke="none" fill="#ffffffff" d="M 25.176,30.240 C 25.902,29.514 26.628,28.788 27.354,28.062 31.226,31.935 35.099,35.807 38.972,39.680 38.246,40.406 37.520,41.132 36.794,41.858 32.921,37.985 29.049,34.113 25.176,30.240 Z " />
  <path stroke="none" fill="#ffffffff" d="M 37.000,27.770 C 37.000,27.770 37.000,27.770 37.000,27.770 35.982,26.751 34.600,26.179 33.160,26.179 31.720,26.179 30.338,26.751 29.320,27.770 29.217,27.873 29.113,27.977 29.010,28.080 32.343,31.413 35.677,34.747 39.010,38.080 39.363,37.720 39.717,37.360 40.070,37.000 41.768,35.301 41.768,32.549 40.070,30.850 39.047,29.823 38.023,28.797 37.000,27.770 Z " />
  <path stroke="none" fill="#ffffffff" d="M 19.471,37.598 C 19.954,37.115 20.437,36.631 20.921,36.148 24.242,39.469 27.563,42.790 30.884,46.111 30.401,46.595 29.917,47.078 29.434,47.561 26.113,44.240 22.792,40.919 19.471,37.598 Z " />
  <path stroke="none" fill="#ffffffff" d="M 21.634,35.422 C 22.117,34.939 22.600,34.455 23.084,33.972 26.405,37.293 29.726,40.614 33.047,43.935 32.563,44.419 32.080,44.902 31.597,45.385 28.276,42.064 24.955,38.743 21.634,35.422 Z " />
  <path stroke="none" fill="#ffffffff" d="M 23.814,33.239 C 24.297,32.756 24.780,32.272 25.264,31.789 28.585,35.110 31.906,38.431 35.227,41.752 34.743,42.236 34.260,42.719 33.777,43.202 30.456,39.881 27.135,36.560 23.814,33.239 Z " />
</svg>