<?xml version="1.0" encoding="UTF-8" standalone="no"?>
<!DOCTYPE svg PUBLIC "-//W3C//DTD SVG 20010904//EN" "http://www.w3.org/TR/2001/REC-SVG-20010904/DTD/svg10.dtd"[]>
<svg version="1.1" id="Frosty Editor v1.0.6.3" xmlns="http://www.w3.org/2000/svg" d1p1:xlink="http://www.w3.org/1999/xlink" viewBox="0 0 96 96" xmlns:d1p1="xmlns">
  <path stroke="none" fill="#ffffffff" d="M 16.000,63.000 C 16.053,63.000 16.107,63.000 16.160,63.000 16.080,62.950 16.000,62.920 16.000,63.000 16.000,63.000 16.000,63.000 16.000,63.000 Z " />
  <path stroke="none" fill="#ffffffff" d="M 83.370,63.000 C 83.423,63.000 83.477,63.000 83.530,63.000 83.480,62.920 83.420,62.950 83.370,63.000 83.370,63.000 83.370,63.000 83.370,63.000 Z " />
  <path stroke="none" fill="#ffffffff" d="M 66.690,48.360 C 66.690,48.850 66.690,49.360 66.620,49.830 71.080,49.830 75.540,49.830 80.000,49.830 80.000,48.917 80.000,48.003 80.000,47.090 75.543,47.090 71.087,47.090 66.630,47.090 66.660,47.510 66.690,47.930 66.690,48.360 66.690,48.360 66.690,48.360 66.690,48.360 Z " />
  <path stroke="none" fill="#ffffffff" d="M 27.420,71.770 C 40.990,71.770 54.560,71.770 68.130,71.770 69.167,70.857 70.203,69.943 71.240,69.030 55.593,69.030 39.947,69.030 24.300,69.030 25.340,69.943 26.380,70.857 27.420,71.770 27.420,71.770 27.420,71.770 27.420,71.770 Z " />
  <path stroke="none" fill="#ffffffff" d="M 60.290,17.570 C 59.869,17.154 59.302,16.921 58.710,16.920 51.417,16.920 44.123,16.920 36.830,16.920 36.238,16.921 35.671,17.154 35.250,17.570 34.547,18.267 33.843,18.963 33.140,19.660 42.893,19.660 52.647,19.660 62.400,19.660 61.697,18.963 60.993,18.267 60.290,17.570 Z " />
  <path stroke="none" fill="#ffffffff" d="M 34.160,78.510 C 34.571,78.882 35.105,79.089 35.660,79.090 43.733,79.090 51.807,79.090 59.880,79.090 60.435,79.089 60.969,78.882 61.380,78.510 62.180,77.790 62.980,77.070 63.780,76.350 53.113,76.350 42.447,76.350 31.780,76.350 32.573,77.070 33.367,77.790 34.160,78.510 Z " />
  <path stroke="none" fill="#ffffffff" d="M 68.110,24.230 C 54.550,24.230 40.990,24.230 27.430,24.230 26.393,25.143 25.357,26.057 24.320,26.970 39.953,26.970 55.587,26.970 71.220,26.970 70.183,26.057 69.147,25.143 68.110,24.230 68.110,24.230 68.110,24.230 68.110,24.230 Z " />
  <path stroke="none" fill="#ffffffff" d="M 61.470,35.200 C 67.497,35.200 73.523,35.200 79.550,35.200 79.534,35.024 79.461,34.859 79.340,34.730 78.387,33.970 77.433,33.210 76.480,32.450 70.420,32.450 64.360,32.450 58.300,32.450 59.453,33.249 60.516,34.171 61.470,35.200 61.470,35.200 61.470,35.200 61.470,35.200 Z " />
  <path stroke="none" fill="#ffffffff" d="M 36.550,32.460 C 31.033,32.460 25.517,32.460 20.000,32.460 19.047,33.220 18.093,33.980 17.140,34.740 17.019,34.869 16.946,35.034 16.930,35.210 22.410,35.210 27.890,35.210 33.370,35.210 34.327,34.181 35.393,33.258 36.550,32.460 36.550,32.460 36.550,32.460 36.550,32.460 Z " />
  <path stroke="none" fill="#ffffffff" d="M 30.190,39.770 C 25.460,39.770 20.730,39.770 16.000,39.770 16.000,40.683 16.000,41.597 16.000,42.510 20.353,42.510 24.707,42.510 29.060,42.510 29.365,41.569 29.743,40.653 30.190,39.770 30.190,39.770 30.190,39.770 30.190,39.770 Z " />
  <path stroke="none" fill="#ffffffff" d="M 64.650,39.770 C 65.097,40.653 65.475,41.569 65.780,42.510 70.520,42.510 75.260,42.510 80.000,42.510 80.000,41.597 80.000,40.683 80.000,39.770 74.883,39.770 69.767,39.770 64.650,39.770 Z " />
  <path stroke="none" fill="#ffffffff" d="M 28.150,48.360 C 28.150,47.930 28.150,47.510 28.210,47.080 24.140,47.080 20.070,47.080 16.000,47.080 16.000,47.993 16.000,48.907 16.000,49.820 20.073,49.820 24.147,49.820 28.220,49.820 28.190,49.340 28.150,48.860 28.150,48.360 28.150,48.360 28.150,48.360 28.150,48.360 Z " />
  <path stroke="none" fill="#ffffffff" d="M 29.130,54.400 C 24.753,54.400 20.377,54.400 16.000,54.400 16.000,55.313 16.000,56.227 16.000,57.140 20.760,57.140 25.520,57.140 30.280,57.140 29.826,56.258 29.442,55.342 29.130,54.400 29.130,54.400 29.130,54.400 29.130,54.400 Z " />
  <path stroke="none" fill="#ffffffff" d="M 64.560,57.140 C 69.707,57.140 74.853,57.140 80.000,57.140 80.000,56.227 80.000,55.313 80.000,54.400 75.240,54.400 70.480,54.400 65.720,54.400 65.405,55.342 65.017,56.258 64.560,57.140 64.560,57.140 64.560,57.140 64.560,57.140 Z " />
  <path stroke="none" fill="#ffffffff" d="M 33.540,61.710 C 28.027,61.710 22.513,61.710 17.000,61.710 17.023,61.733 17.047,61.757 17.070,61.780 18.047,62.673 19.023,63.567 20.000,64.460 25.610,64.460 31.220,64.460 36.830,64.460 35.635,63.668 34.531,62.746 33.540,61.710 33.540,61.710 33.540,61.710 33.540,61.710 Z " />
  <path stroke="none" fill="#ffffffff" d="M 58.000,64.460 C 64.167,64.460 70.333,64.460 76.500,64.460 77.450,63.570 78.400,62.680 79.350,61.790 79.373,61.767 79.397,61.743 79.420,61.720 73.380,61.720 67.340,61.720 61.300,61.720 60.305,62.753 59.198,63.672 58.000,64.460 58.000,64.460 58.000,64.460 58.000,64.460 Z " />
  <path stroke="none" fill="#ffffffff" d="M 50.873,44.299 C 52.983,43.081 55.093,41.863 57.204,40.644 57.660,41.435 58.117,42.226 58.574,43.017 56.463,44.235 54.353,45.454 52.243,46.672 51.786,45.881 51.330,45.090 50.873,44.299 Z " />
  <path stroke="none" fill="#ffffffff" d="M 37.421,43.016 C 37.878,42.225 38.334,41.434 38.791,40.643 40.901,41.861 43.011,43.079 45.122,44.298 44.665,45.089 44.208,45.880 43.752,46.671 41.641,45.452 39.531,44.234 37.421,43.016 Z " />
  <path stroke="none" fill="#ffffffff" d="M 46.630,51.660 C 47.543,51.660 48.457,51.660 49.370,51.660 49.370,54.097 49.370,56.533 49.370,58.970 48.457,58.970 47.543,58.970 46.630,58.970 46.630,56.533 46.630,54.097 46.630,51.660 Z " />
</svg>