<?xml version="1.0" encoding="UTF-8" standalone="no"?>
<!DOCTYPE svg PUBLIC "-//W3C//DTD SVG 20010904//EN" "http://www.w3.org/TR/2001/REC-SVG-20010904/DTD/svg10.dtd"[]>
<svg version="1.1" id="Frosty Editor v1.0.6.3" xmlns="http://www.w3.org/2000/svg" d1p1:xlink="http://www.w3.org/1999/xlink" viewBox="0 0 384 96" xmlns:d1p1="xmlns">
  <path stroke="none" fill="none" d="M 158.900,18.200 C 156.900,22.667 154.900,27.133 152.900,31.600 153.167,31.600 153.433,31.600 153.700,31.600 155.700,27.133 157.700,22.667 159.700,18.200 159.433,18.200 159.167,18.200 158.900,18.200 Z " />
  <path stroke="none" fill="none" d="M 141.900,38.400 C 141.900,37.800 141.900,37.200 141.900,36.600 141.900,34.933 141.900,33.267 141.900,31.600 141.900,29.167 141.900,26.733 141.900,24.300 141.300,24.300 140.700,24.300 140.100,24.300 140.100,26.133 140.100,27.967 140.100,29.800 139.967,29.800 139.833,29.800 139.700,29.800 139.700,31.567 139.700,33.333 139.700,35.100 139.767,35.100 139.833,35.100 139.900,35.100 139.900,36.200 139.900,37.300 139.900,38.400 140.567,38.400 141.233,38.400 141.900,38.400 Z " />
  <path stroke="none" fill="none" d="M 245.100,34.800 C 245.100,34.233 245.100,33.667 245.100,33.100 216.767,33.100 188.433,33.100 160.100,33.100 158.733,33.100 157.367,33.100 156.000,33.100 155.567,33.100 155.133,33.100 154.700,33.100 153.333,33.100 151.967,33.100 150.600,33.100 150.167,33.100 149.733,33.100 149.300,33.100 147.933,33.100 146.567,33.100 145.200,33.100 144.600,33.100 144.000,33.100 143.400,33.100 143.400,33.767 143.400,34.433 143.400,35.100 177.300,35.100 211.200,35.100 245.100,35.100 245.100,35.000 245.100,34.900 245.100,34.800 Z " />
  <path stroke="none" fill="none" d="M 136.300,29.800 C 136.933,29.800 137.567,29.800 138.200,29.800 138.200,31.600 138.200,33.400 138.200,35.200 137.567,35.200 136.933,35.200 136.300,35.200 136.300,33.400 136.300,31.600 136.300,29.800 Z " />
  <path stroke="none" fill="none" d="M 134.800,29.800 C 134.633,29.800 134.467,29.800 134.300,29.800 134.300,27.933 134.300,26.067 134.300,24.200 133.600,24.200 132.900,24.200 132.200,24.200 132.200,29.400 132.200,34.600 132.200,39.800 132.900,39.800 133.600,39.800 134.300,39.800 134.300,38.233 134.300,36.667 134.300,35.100 134.467,35.100 134.633,35.100 134.800,35.100 134.800,33.333 134.800,31.567 134.800,29.800 Z " />
  <path stroke="none" fill="none" d="M 164.300,18.200 C 162.300,22.667 160.300,27.133 158.300,31.600 158.567,31.600 158.833,31.600 159.100,31.600 161.100,27.133 163.100,22.667 165.100,18.200 164.833,18.200 164.567,18.200 164.300,18.200 Z " />
  <path stroke="none" fill="none" d="M 235.500,21.300 C 236.767,21.300 238.033,21.300 239.300,21.300 238.033,19.967 236.767,18.633 235.500,17.300 235.500,18.633 235.500,19.967 235.500,21.300 Z " />
  <path stroke="none" fill="none" d="M 143.400,31.600 C 144.233,31.600 145.067,31.600 145.900,31.600 148.100,26.633 150.300,21.667 152.500,16.700 153.867,16.700 155.233,16.700 156.600,16.700 154.367,21.667 152.133,26.633 149.900,31.600 150.367,31.600 150.833,31.600 151.300,31.600 153.500,26.633 155.700,21.667 157.900,16.700 159.267,16.700 160.633,16.700 162.000,16.700 159.767,21.667 157.533,26.633 155.300,31.600 155.767,31.600 156.233,31.600 156.700,31.600 158.900,26.633 161.100,21.667 163.300,16.700 164.667,16.700 166.033,16.700 167.400,16.700 165.167,21.667 162.933,26.633 160.700,31.600 189.333,31.600 217.967,31.600 246.600,31.600 246.600,32.667 246.600,33.733 246.600,34.800 246.600,35.033 246.600,35.267 246.600,35.500 246.867,35.500 247.133,35.500 247.400,35.500 247.400,35.100 247.400,34.700 247.400,34.300 247.567,34.300 247.733,34.300 247.900,34.300 247.900,31.733 247.900,29.167 247.900,26.600 247.733,26.600 247.567,26.600 247.400,26.600 247.400,25.600 247.400,24.600 247.400,23.600 245.400,23.600 243.400,23.600 241.400,23.600 241.167,23.333 240.933,23.067 240.700,22.800 217.300,22.800 193.900,22.800 170.500,22.800 171.433,21.200 172.367,19.600 173.300,18.000 192.433,18.000 211.567,18.000 230.700,18.000 231.333,18.700 231.967,19.400 232.600,20.100 233.067,20.100 233.533,20.100 234.000,20.100 234.000,18.633 234.000,17.167 234.000,15.700 233.867,15.533 233.733,15.367 233.600,15.200 233.600,15.033 233.600,14.867 233.600,14.700 222.400,14.700 211.200,14.700 200.000,14.700 198.600,13.800 197.200,12.900 195.800,12.000 183.167,12.000 170.533,12.000 157.900,12.000 155.900,12.900 153.900,13.800 151.900,14.700 150.867,14.700 149.833,14.700 148.800,14.700 147.000,17.567 145.200,20.433 143.400,23.300 143.400,26.067 143.400,28.833 143.400,31.600 Z " />
  <path stroke="none" fill="none" d="M 146.700,49.000 C 147.867,46.000 149.033,43.000 150.200,40.000 147.933,40.000 145.667,40.000 143.400,40.000 143.133,40.000 142.867,40.000 142.600,40.000 141.700,40.000 140.800,40.000 139.900,40.000 139.900,41.100 139.900,42.200 139.900,43.300 140.467,43.300 141.033,43.300 141.600,43.300 141.700,43.333 141.800,43.367 141.900,43.400 143.300,43.900 146.000,45.500 146.700,49.000 146.700,49.000 146.700,49.000 146.700,49.000 Z " />
  <path stroke="none" fill="none" d="M 143.400,36.600 C 160.967,36.600 178.533,36.600 196.100,36.600 196.100,37.233 196.100,37.867 196.100,38.500 178.533,38.500 160.967,38.500 143.400,38.500 143.400,37.867 143.400,37.233 143.400,36.600 Z " />
  <path stroke="none" fill="none" d="M 174.200,19.500 C 173.833,20.100 173.467,20.700 173.100,21.300 192.633,21.300 212.167,21.300 231.700,21.300 231.133,20.700 230.567,20.100 230.000,19.500 211.400,19.500 192.800,19.500 174.200,19.500 Z " />
  <path stroke="none" fill="none" d="M 157.900,42.400 C 157.900,42.500 157.900,42.600 158.000,42.700 160.767,42.700 163.533,42.700 166.300,42.700 166.300,42.600 166.400,42.500 166.400,42.400 164.767,42.400 163.133,42.400 161.500,42.400 160.300,42.400 159.100,42.400 157.900,42.400 157.900,42.400 157.900,42.400 157.900,42.400 Z " />
  <path stroke="none" fill="none" d="M 157.000,43.700 C 157.000,43.700 157.000,43.700 157.000,43.700 157.000,43.700 157.000,43.700 157.000,43.700 157.000,43.700 157.000,43.700 157.000,43.700 157.000,43.700 157.000,43.700 157.000,43.700 Z " />
  <path stroke="none" fill="none" d="M 153.500,18.200 C 151.500,22.667 149.500,27.133 147.500,31.600 147.767,31.600 148.033,31.600 148.300,31.600 150.300,27.133 152.300,22.667 154.300,18.200 154.033,18.200 153.767,18.200 153.500,18.200 Z " />
  <path stroke="none" fill="none" d="M 245.100,37.000 C 245.100,36.867 245.100,36.733 245.100,36.600 229.300,36.600 213.500,36.600 197.700,36.600 197.700,37.733 197.700,38.867 197.700,40.000 185.633,40.000 173.567,40.000 161.500,40.000 161.500,40.300 161.500,40.600 161.500,40.900 163.667,40.900 165.833,40.900 168.000,40.900 168.000,41.133 168.000,41.367 168.000,41.600 168.000,41.900 168.000,43.100 167.400,43.700 168.200,43.700 169.000,43.700 169.800,43.700 171.100,42.300 172.900,41.500 174.800,41.500 178.200,41.500 181.600,41.500 185.000,41.500 187.000,41.500 188.900,42.400 190.200,43.900 190.200,42.800 191.100,41.800 192.300,41.800 193.400,41.800 194.300,42.600 194.400,43.700 195.300,42.800 196.600,42.000 197.900,42.000 207.867,42.000 217.833,42.000 227.800,42.000 227.800,41.667 227.800,41.333 227.800,41.000 231.400,41.000 235.000,41.000 238.600,41.000 238.600,41.333 238.600,41.667 238.600,42.000 239.333,42.000 240.067,42.000 240.800,42.000 240.800,41.567 240.800,41.133 240.800,40.700 242.033,40.700 243.267,40.700 244.500,40.700 247.300,40.700 247.300,40.100 247.300,39.100 247.300,38.400 247.300,37.700 247.300,37.000 246.567,37.000 245.833,37.000 245.100,37.000 245.100,37.000 245.100,37.000 245.100,37.000 Z " />
  <path stroke="none" fill="none" d="M 229.800,42.600 C 229.800,43.133 229.800,43.667 229.800,44.200 230.300,44.533 230.800,44.867 231.300,45.200 231.300,45.100 231.200,44.900 231.200,44.700 231.200,43.600 232.100,42.700 233.200,42.700 234.300,42.700 235.200,43.600 235.200,44.700 235.200,44.800 235.200,45.000 235.200,45.100 235.733,44.767 236.267,44.433 236.800,44.100 236.800,43.600 236.800,43.100 236.800,42.600 234.467,42.600 232.133,42.600 229.800,42.600 229.800,42.600 229.800,42.600 229.800,42.600 Z " />
  <path stroke="none" fill="none" d="M 233.700,44.700 C 233.700,44.976 233.476,45.200 233.200,45.200 232.924,45.200 232.700,44.976 232.700,44.700 232.700,44.424 232.924,44.200 233.200,44.200 233.476,44.200 233.700,44.424 233.700,44.700 233.700,44.700 233.700,44.700 233.700,44.700 Z " />
  <path stroke="none" fill="none" d="M 192.300,43.300 C 192.000,43.300 191.700,43.600 191.700,43.900 191.700,44.200 192.000,44.500 192.300,44.500 192.600,44.500 192.900,44.200 192.900,43.900 192.900,43.600 192.700,43.300 192.300,43.300 192.300,43.300 192.300,43.300 192.300,43.300 Z " />
  <path stroke="none" fill="none" d="M 249.400,26.600 C 250.233,26.600 251.067,26.600 251.900,26.600 251.900,29.167 251.900,31.733 251.900,34.300 251.067,34.300 250.233,34.300 249.400,34.300 249.400,31.733 249.400,29.167 249.400,26.600 Z " />
  <path stroke="none" fill="none" d="M 175.200,44.500 C 175.000,45.200 174.700,46.300 174.600,47.600 174.500,48.500 174.400,49.700 175.300,51.000 175.000,49.300 175.100,47.100 176.200,44.500 175.867,44.500 175.533,44.500 175.200,44.500 175.200,44.500 175.200,44.500 175.200,44.500 Z " />
  <path stroke="none" fill="none" d="M 167.400,55.300 C 167.400,55.500 167.600,55.700 167.800,55.700 168.000,55.700 168.200,55.500 168.200,55.300 168.200,55.100 168.000,54.900 167.800,54.900 167.600,54.900 167.400,55.100 167.400,55.300 167.400,55.300 167.400,55.300 167.400,55.300 Z " />
  <path stroke="none" fill="none" d="M 169.700,55.100 C 169.700,55.200 169.700,55.200 169.700,55.300 169.700,56.300 168.800,57.200 167.800,57.200 166.800,57.200 165.900,56.400 165.900,55.300 165.900,54.200 166.700,53.400 167.800,53.400 168.100,53.400 168.300,53.500 168.500,53.500 167.800,52.300 167.400,50.900 167.400,49.400 167.400,48.400 167.600,47.500 167.800,46.700 164.067,46.700 160.333,46.700 156.600,46.700 155.600,46.700 153.800,46.300 153.800,44.000 153.800,43.567 153.800,43.133 153.800,42.700 153.267,42.700 152.733,42.700 152.200,42.700 150.967,45.867 149.733,49.033 148.500,52.200 147.700,53.100 146.900,54.000 146.100,54.900 146.067,54.933 146.033,54.967 146.000,55.000 141.800,64.100 139.300,70.800 139.000,73.600 138.500,78.200 138.600,79.900 138.700,80.300 138.900,80.700 139.900,82.000 142.100,82.000 143.000,82.000 143.900,82.000 144.800,82.000 144.800,82.167 144.800,82.333 144.800,82.500 150.900,82.500 157.000,82.500 163.100,82.500 163.100,82.333 163.100,82.167 163.100,82.000 163.733,82.000 164.367,82.000 165.000,82.000 164.900,80.400 164.600,78.500 164.300,77.600 164.233,77.467 164.167,77.333 164.100,77.200 164.133,77.033 164.167,76.867 164.200,76.700 164.800,73.900 166.800,63.400 166.900,62.600 167.100,60.800 168.700,57.600 172.700,56.800 171.600,56.700 170.600,56.000 169.700,55.100 169.700,55.100 169.700,55.100 169.700,55.100 Z " />
  <path stroke="none" fill="none" d="M 192.300,46.000 C 192.000,46.000 191.700,45.900 191.500,45.800 191.800,46.500 192.100,47.300 192.200,48.100 192.300,47.000 192.500,46.200 192.500,46.000 192.500,45.967 192.500,45.933 192.500,45.900 192.500,46.000 192.400,46.000 192.300,46.000 192.300,46.000 192.300,46.000 192.300,46.000 Z " />
  <path stroke="none" fill="none" d="M 188.700,51.900 C 189.100,51.100 189.300,50.300 189.300,49.400 189.300,49.367 189.300,49.333 189.300,49.300 189.300,46.600 187.400,44.400 185.000,44.400 183.167,44.400 181.333,44.400 179.500,44.400 176.700,49.300 178.900,52.400 179.000,52.500 179.233,52.833 179.467,53.167 179.700,53.500 179.500,53.767 179.300,54.033 179.100,54.300 180.900,54.300 182.700,54.300 184.500,54.300 186.300,53.400 188.000,52.300 188.700,51.900 188.700,51.900 188.700,51.900 188.700,51.900 Z " />
  <path stroke="none" fill="none" d="M 192.000,51.500 C 191.800,52.300 191.500,53.000 191.100,53.700 191.067,53.800 191.033,53.900 191.000,54.000 190.933,54.067 190.867,54.133 190.800,54.200 190.200,54.600 186.900,56.600 185.800,57.100 185.700,57.167 185.600,57.233 185.500,57.300 185.000,57.300 184.500,57.300 184.000,57.300 186.000,57.600 189.000,58.100 190.900,58.400 191.700,58.500 191.900,58.200 192.000,58.100 192.500,57.500 192.900,55.900 192.300,53.000 192.100,52.500 192.100,52.000 192.000,51.500 192.000,51.500 192.000,51.500 192.000,51.500 Z " />
  <path stroke="none" fill="none" d="M 171.800,45.900 C 171.000,46.800 170.500,48.000 170.500,49.400 170.500,52.000 172.200,54.000 174.300,54.300 171.200,51.400 171.500,48.600 171.600,47.200 171.600,46.700 171.700,46.300 171.800,45.900 171.800,45.900 171.800,45.900 171.800,45.900 Z " />
  <path stroke="#ffffffff" fill="none" stroke-width="0" d="M 175.600,43.500 C 175.600,43.500 175.600,43.500 175.600,43.500 " />
  <path stroke="none" fill="#ffffffff" d="M 251.800,34.300 C 250.967,34.300 250.133,34.300 249.300,34.300 249.300,31.733 249.300,29.167 249.300,26.600 250.133,26.600 250.967,26.600 251.800,26.600 251.800,29.167 251.800,31.733 251.800,34.300 251.800,34.300 251.800,34.300 251.800,34.300 Z M 244.500,40.800 C 243.267,40.800 242.033,40.800 240.800,40.800 240.800,41.233 240.800,41.667 240.800,42.100 240.067,42.100 239.333,42.100 238.600,42.100 238.600,41.767 238.600,41.433 238.600,41.100 235.000,41.100 231.400,41.100 227.800,41.100 227.800,41.433 227.800,41.767 227.800,42.100 217.833,42.100 207.867,42.100 197.900,42.100 196.600,42.100 195.300,42.900 194.400,43.800 194.300,42.700 193.400,41.900 192.300,41.900 191.200,41.900 190.200,42.800 190.200,44.000 188.900,42.500 187.000,41.600 185.000,41.600 181.567,41.600 178.133,41.600 174.700,41.600 172.700,41.600 171.000,42.400 169.700,43.800 168.900,43.800 168.100,43.800 167.300,43.800 167.900,43.200 167.900,42.000 167.900,41.700 167.900,41.467 167.900,41.233 167.900,41.000 165.733,41.000 163.567,41.000 161.400,41.000 161.400,40.700 161.400,40.400 161.400,40.100 173.467,40.100 185.533,40.100 197.600,40.100 197.600,38.967 197.600,37.833 197.600,36.700 213.400,36.700 229.200,36.700 245.000,36.700 245.000,36.800 245.000,36.900 245.000,37.000 245.767,37.000 246.533,37.000 247.300,37.000 247.300,37.767 247.300,38.533 247.300,39.300 247.400,40.300 247.400,40.800 244.500,40.800 244.500,40.800 244.500,40.800 244.500,40.800 Z M 235.200,45.100 C 235.200,45.000 235.200,44.800 235.200,44.700 235.200,43.600 234.300,42.700 233.200,42.700 232.100,42.700 231.200,43.600 231.200,44.700 231.200,44.900 231.200,45.000 231.300,45.200 230.800,44.867 230.300,44.533 229.800,44.200 229.800,43.667 229.800,43.133 229.800,42.600 232.100,42.600 234.400,42.600 236.700,42.600 236.700,43.100 236.700,43.600 236.700,44.100 236.200,44.433 235.700,44.767 235.200,45.100 235.200,45.100 235.200,45.100 235.200,45.100 Z M 232.700,44.700 C 232.700,44.400 232.900,44.200 233.200,44.200 233.500,44.200 233.700,44.400 233.700,44.700 233.700,45.000 233.500,45.200 233.200,45.200 232.900,45.200 232.700,45.000 232.700,44.700 232.700,44.700 232.700,44.700 232.700,44.700 Z M 192.300,44.500 C 192.000,44.500 191.700,44.200 191.700,43.900 191.700,43.600 192.000,43.300 192.300,43.300 192.600,43.300 192.900,43.600 192.900,43.900 192.900,44.200 192.700,44.500 192.300,44.500 192.300,44.500 192.300,44.500 192.300,44.500 Z M 192.200,48.100 C 192.100,47.300 191.800,46.500 191.500,45.800 191.800,45.900 192.000,46.000 192.300,46.000 192.400,46.000 192.500,46.000 192.500,46.000 192.500,46.033 192.500,46.067 192.500,46.100 192.500,46.300 192.300,47.100 192.200,48.100 192.200,48.100 192.200,48.100 192.200,48.100 Z M 191.900,58.100 C 191.800,58.200 191.500,58.500 190.800,58.400 188.900,58.100 185.900,57.600 183.900,57.300 184.400,57.300 184.900,57.300 185.400,57.300 185.500,57.233 185.600,57.167 185.700,57.100 186.700,56.500 190.100,54.600 190.700,54.200 190.800,54.133 190.900,54.067 191.000,54.000 191.033,53.933 191.067,53.867 191.100,53.800 191.500,53.100 191.800,52.400 192.000,51.600 192.000,52.100 192.100,52.600 192.200,53.100 192.800,55.900 192.500,57.500 191.900,58.100 191.900,58.100 191.900,58.100 191.900,58.100 Z M 174.300,54.300 C 172.200,54.000 170.500,52.000 170.500,49.400 170.500,48.000 171.000,46.800 171.800,45.900 171.700,46.300 171.600,46.800 171.600,47.200 171.400,48.600 171.100,51.300 174.300,54.300 174.300,54.300 174.300,54.300 174.300,54.300 Z M 175.600,43.500 C 175.600,43.500 175.600,43.500 175.600,43.500 175.600,43.500 175.600,43.500 175.600,43.500 175.600,43.500 175.600,43.500 175.600,43.500 Z M 175.300,51.000 C 174.300,49.600 174.400,48.500 174.600,47.600 174.700,46.300 175.000,45.300 175.200,44.500 175.533,44.500 175.867,44.500 176.200,44.500 175.100,47.100 175.000,49.300 175.300,51.000 175.300,51.000 175.300,51.000 175.300,51.000 Z M 179.200,54.300 C 179.400,54.033 179.600,53.767 179.800,53.500 179.567,53.167 179.333,52.833 179.100,52.500 179.000,52.400 176.800,49.300 179.600,44.400 181.433,44.400 183.267,44.400 185.100,44.400 187.500,44.400 189.400,46.600 189.400,49.300 189.400,49.333 189.400,49.367 189.400,49.400 189.400,50.300 189.200,51.100 188.800,51.900 188.100,52.300 186.400,53.300 184.700,54.300 182.867,54.300 181.033,54.300 179.200,54.300 179.200,54.300 179.200,54.300 179.200,54.300 Z M 168.200,55.300 C 168.200,55.500 168.000,55.700 167.800,55.700 167.600,55.700 167.400,55.500 167.400,55.300 167.400,55.100 167.600,54.900 167.800,54.900 168.000,54.900 168.200,55.100 168.200,55.300 168.200,55.300 168.200,55.300 168.200,55.300 Z M 167.000,62.800 C 166.800,63.600 164.800,74.200 164.300,76.900 164.267,77.067 164.233,77.233 164.200,77.400 164.267,77.533 164.333,77.667 164.400,77.800 164.800,78.700 165.000,80.600 165.100,82.200 164.467,82.200 163.833,82.200 163.200,82.200 163.200,82.367 163.200,82.533 163.200,82.700 157.100,82.700 151.000,82.700 144.900,82.700 144.900,82.533 144.900,82.367 144.900,82.200 144.000,82.200 143.100,82.200 142.200,82.200 140.000,82.200 139.100,80.900 138.800,80.500 138.800,80.000 138.700,78.300 139.100,73.800 139.400,71.100 141.900,64.300 146.100,55.200 146.133,55.167 146.167,55.133 146.200,55.100 147.000,54.200 147.800,53.300 148.600,52.400 149.833,49.233 151.067,46.067 152.300,42.900 152.833,42.900 153.367,42.900 153.900,42.900 153.900,43.267 153.900,43.633 153.900,44.000 153.900,46.400 155.700,46.700 156.700,46.700 160.433,46.700 164.167,46.700 167.900,46.700 167.600,47.500 167.500,48.500 167.500,49.400 167.500,50.900 167.900,52.300 168.600,53.500 168.400,53.400 168.100,53.400 167.900,53.400 166.900,53.400 166.000,54.200 166.000,55.300 166.000,56.400 166.800,57.200 167.900,57.200 169.000,57.200 169.800,56.400 169.800,55.300 169.800,55.200 169.800,55.200 169.800,55.100 170.700,56.000 171.700,56.700 172.900,57.000 168.800,57.800 167.300,61.000 167.000,62.800 167.000,62.800 167.000,62.800 167.000,62.800 Z M 141.900,43.300 C 141.800,43.267 141.700,43.233 141.600,43.200 141.033,43.200 140.467,43.200 139.900,43.200 139.900,42.100 139.900,41.000 139.900,39.900 140.800,39.900 141.700,39.900 142.600,39.900 142.867,39.900 143.133,39.900 143.400,39.900 145.667,39.900 147.933,39.900 150.200,39.900 149.033,42.900 147.867,45.900 146.700,48.900 146.000,45.500 143.300,43.900 141.900,43.300 141.900,43.300 141.900,43.300 141.900,43.300 Z M 136.300,35.100 C 136.300,33.300 136.300,31.500 136.300,29.700 136.933,29.700 137.567,29.700 138.200,29.700 138.200,31.500 138.200,33.300 138.200,35.100 137.567,35.100 136.933,35.100 136.300,35.100 136.300,35.100 136.300,35.100 136.300,35.100 Z M 134.300,39.800 C 133.567,39.800 132.833,39.800 132.100,39.800 132.100,34.600 132.100,29.400 132.100,24.200 132.833,24.200 133.567,24.200 134.300,24.200 134.300,26.033 134.300,27.867 134.300,29.700 134.467,29.700 134.633,29.700 134.800,29.700 134.800,31.500 134.800,33.300 134.800,35.100 134.633,35.100 134.467,35.100 134.300,35.100 134.300,36.667 134.300,38.233 134.300,39.800 134.300,39.800 134.300,39.800 134.300,39.800 Z M 158.300,31.600 C 160.300,27.100 162.300,22.600 164.300,18.100 164.567,18.100 164.833,18.100 165.100,18.100 163.100,22.600 161.100,27.100 159.100,31.600 158.833,31.600 158.567,31.600 158.300,31.600 158.300,31.600 158.300,31.600 158.300,31.600 Z M 152.900,31.600 C 154.900,27.100 156.900,22.600 158.900,18.100 159.167,18.100 159.433,18.100 159.700,18.100 157.700,22.600 155.700,27.100 153.700,31.600 153.433,31.600 153.167,31.600 152.900,31.600 152.900,31.600 152.900,31.600 152.900,31.600 Z M 147.500,31.600 C 149.500,27.100 151.500,22.600 153.500,18.100 153.767,18.100 154.033,18.100 154.300,18.100 152.300,22.600 150.300,27.100 148.300,31.600 148.033,31.600 147.767,31.600 147.500,31.600 147.500,31.600 147.500,31.600 147.500,31.600 Z M 143.400,35.100 C 143.400,34.467 143.400,33.833 143.400,33.200 144.000,33.200 144.600,33.200 145.200,33.200 146.567,33.200 147.933,33.200 149.300,33.200 149.733,33.200 150.167,33.200 150.600,33.200 151.967,33.200 153.333,33.200 154.700,33.200 155.133,33.200 155.567,33.200 156.000,33.200 157.367,33.200 158.733,33.200 160.100,33.200 188.433,33.200 216.767,33.200 245.100,33.200 245.100,33.767 245.100,34.333 245.100,34.900 245.100,35.000 245.100,35.100 245.100,35.200 211.200,35.200 177.300,35.200 143.400,35.200 143.400,35.167 143.400,35.133 143.400,35.100 Z M 139.700,35.100 C 139.700,33.300 139.700,31.500 139.700,29.700 139.833,29.700 139.967,29.700 140.100,29.700 140.100,27.867 140.100,26.033 140.100,24.200 140.700,24.200 141.300,24.200 141.900,24.200 141.900,26.633 141.900,29.067 141.900,31.500 141.900,33.133 141.900,34.767 141.900,36.400 141.900,37.033 141.900,37.667 141.900,38.300 141.233,38.300 140.567,38.300 139.900,38.300 139.900,37.200 139.900,36.100 139.900,35.000 139.833,35.000 139.767,35.000 139.700,35.000 139.700,35.033 139.700,35.067 139.700,35.100 Z M 143.400,38.400 C 143.400,37.767 143.400,37.133 143.400,36.500 160.967,36.500 178.533,36.500 196.100,36.500 196.100,37.133 196.100,37.767 196.100,38.400 178.533,38.400 160.967,38.400 143.400,38.400 143.400,38.400 143.400,38.400 143.400,38.400 Z M 166.300,42.600 C 163.533,42.600 160.767,42.600 158.000,42.600 158.000,42.500 157.900,42.400 157.900,42.300 159.067,42.300 160.233,42.300 161.400,42.300 163.033,42.300 164.667,42.300 166.300,42.300 166.300,42.500 166.300,42.600 166.300,42.600 166.300,42.600 166.300,42.600 166.300,42.600 Z M 157.000,43.700 C 157.000,43.700 157.000,43.700 157.000,43.700 157.000,43.700 157.000,43.700 157.000,43.700 157.000,43.700 157.000,43.700 157.000,43.700 157.000,43.700 157.000,43.700 157.000,43.700 Z M 231.700,21.300 C 212.200,21.300 192.700,21.300 173.200,21.300 173.533,20.700 173.867,20.100 174.200,19.500 192.800,19.500 211.400,19.500 230.000,19.500 230.567,20.100 231.133,20.700 231.700,21.300 231.700,21.300 231.700,21.300 231.700,21.300 Z M 148.800,14.700 C 149.833,14.700 150.867,14.700 151.900,14.700 153.900,13.800 155.900,12.900 157.900,12.000 170.533,12.000 183.167,12.000 195.800,12.000 197.200,12.900 198.600,13.800 200.000,14.700 211.167,14.700 222.333,14.700 233.500,14.700 233.500,14.867 233.500,15.033 233.500,15.200 233.667,15.367 233.833,15.533 234.000,15.700 234.000,17.200 234.000,18.700 234.000,20.200 233.533,20.200 233.067,20.200 232.600,20.200 231.967,19.500 231.333,18.800 230.700,18.100 211.567,18.100 192.433,18.100 173.300,18.100 172.367,19.700 171.433,21.300 170.500,22.900 193.900,22.900 217.300,22.900 240.700,22.900 240.933,23.167 241.167,23.433 241.400,23.700 243.367,23.700 245.333,23.700 247.300,23.700 247.300,24.700 247.300,25.700 247.300,26.700 247.467,26.700 247.633,26.700 247.800,26.700 247.800,29.267 247.800,31.833 247.800,34.400 247.633,34.400 247.467,34.400 247.300,34.400 247.300,34.800 247.300,35.200 247.300,35.600 247.033,35.600 246.767,35.600 246.500,35.600 246.500,35.367 246.500,35.133 246.500,34.900 246.500,33.833 246.500,32.767 246.500,31.700 217.900,31.700 189.300,31.700 160.700,31.700 162.933,26.700 165.167,21.700 167.400,16.700 166.033,16.700 164.667,16.700 163.300,16.700 161.067,21.700 158.833,26.700 156.600,31.700 156.167,31.700 155.733,31.700 155.300,31.700 157.533,26.700 159.767,21.700 162.000,16.700 160.633,16.700 159.267,16.700 157.900,16.700 155.667,21.700 153.433,26.700 151.200,31.700 150.767,31.700 150.333,31.700 149.900,31.700 152.133,26.700 154.367,21.700 156.600,16.700 155.233,16.700 153.867,16.700 152.500,16.700 150.267,21.700 148.033,26.700 145.800,31.700 144.967,31.700 144.133,31.700 143.300,31.700 143.300,28.900 143.300,26.100 143.300,23.300 145.133,20.433 146.967,17.567 148.800,14.700 148.800,14.700 148.800,14.700 148.800,14.700 Z M 239.300,21.300 C 238.033,21.300 236.767,21.300 235.500,21.300 235.500,19.933 235.500,18.567 235.500,17.200 236.767,18.567 238.033,19.933 239.300,21.300 239.300,21.300 239.300,21.300 239.300,21.300 Z M 250.400,23.600 C 250.400,22.600 250.400,21.600 250.400,20.600 247.867,20.600 245.333,20.600 242.800,20.600 240.733,18.400 238.667,16.200 236.600,14.000 236.600,13.233 236.600,12.467 236.600,11.700 224.733,11.700 212.867,11.700 201.000,11.700 199.567,10.800 198.133,9.900 196.700,9.000 183.533,9.000 170.367,9.000 157.200,9.000 155.200,9.900 153.200,10.800 151.200,11.700 149.833,11.700 148.467,11.700 147.100,11.700 145.067,14.900 143.033,18.100 141.000,21.300 139.767,21.300 138.533,21.300 137.300,21.300 137.300,21.267 137.300,21.233 137.300,21.200 134.567,21.200 131.833,21.200 129.100,21.200 129.100,28.400 129.100,35.600 129.100,42.800 131.667,42.800 134.233,42.800 136.800,42.800 136.800,43.933 136.800,45.067 136.800,46.200 138.167,46.200 139.533,46.200 140.900,46.200 143.500,47.400 144.400,49.900 143.400,53.600 143.367,53.667 143.333,53.733 143.300,53.800 140.200,60.500 136.500,69.400 136.100,73.300 135.500,79.200 135.800,80.800 135.900,81.200 135.933,81.267 135.967,81.333 136.000,81.400 136.100,81.500 137.500,85.000 141.900,85.100 141.900,85.733 141.900,86.367 141.900,87.000 150.000,87.000 158.100,87.000 166.200,87.000 166.200,86.400 166.200,85.800 166.200,85.200 166.867,85.200 167.533,85.200 168.200,85.200 168.200,84.700 168.200,84.200 168.200,83.700 168.200,83.200 168.100,79.400 167.300,77.200 168.000,73.800 169.900,63.500 170.000,63.400 170.000,63.367 170.000,63.333 170.000,63.300 170.000,63.200 170.500,59.900 174.600,59.900 174.600,59.900 174.600,59.900 174.700,59.900 177.000,60.000 180.600,60.000 181.300,60.000 182.200,60.100 187.500,61.000 190.400,61.400 192.300,61.700 193.500,60.900 194.200,60.200 195.600,58.700 196.000,56.000 195.200,52.400 194.900,50.900 195.200,48.300 195.500,47.100 196.300,46.100 197.500,45.100 198.000,45.100 207.600,45.100 217.200,45.100 226.800,45.100 226.800,45.300 226.800,45.500 226.800,45.700 228.367,46.767 229.933,47.833 231.500,48.900 232.567,48.900 233.633,48.900 234.700,48.900 236.367,47.833 238.033,46.767 239.700,45.700 239.700,45.467 239.700,45.233 239.700,45.000 241.067,45.000 242.433,45.000 243.800,45.000 243.800,44.567 243.800,44.133 243.800,43.700 244.033,43.700 244.267,43.700 244.500,43.700 246.100,43.700 250.300,43.700 250.300,39.100 250.300,38.433 250.300,37.767 250.300,37.100 251.767,37.100 253.233,37.100 254.700,37.100 254.700,32.600 254.700,28.100 254.700,23.600 253.267,23.600 251.833,23.600 250.400,23.600 250.400,23.600 250.400,23.600 250.400,23.600 Z " />
</svg>