<?xml version="1.0" encoding="UTF-8" standalone="no"?>
<!DOCTYPE svg PUBLIC "-//W3C//DTD SVG 20010904//EN" "http://www.w3.org/TR/2001/REC-SVG-20010904/DTD/svg10.dtd"[]>
<svg version="1.1" id="Frosty Editor v1.0.6.3" xmlns="http://www.w3.org/2000/svg" d1p1:xlink="http://www.w3.org/1999/xlink" viewBox="0 0 384 96" xmlns:d1p1="xmlns">
  <path stroke="none" fill="#ffffffff" d="M 266.640,29.140 C 263.803,29.807 260.967,30.473 258.130,31.140 258.130,27.500 258.130,23.860 258.130,20.220 260.967,20.887 263.803,21.553 266.640,22.220 266.640,24.527 266.640,26.833 266.640,29.140 Z M 246.790,30.720 C 246.790,27.350 246.790,23.980 246.790,20.610 249.903,20.610 253.017,20.610 256.130,20.610 256.130,23.970 256.130,27.330 256.130,30.690 253.017,30.700 249.903,30.710 246.790,30.720 Z M 244.790,31.530 C 244.357,31.793 243.923,32.057 243.490,32.320 242.823,32.320 242.157,32.320 241.490,32.320 241.490,27.880 241.490,23.440 241.490,19.000 242.157,19.000 242.823,19.000 243.490,19.000 243.923,19.263 244.357,19.527 244.790,19.790 244.790,23.703 244.790,27.617 244.790,31.530 Z M 239.500,38.900 C 238.733,39.267 237.967,39.633 237.200,40.000 228.660,40.000 220.120,40.000 211.580,40.000 210.799,40.011 210.045,40.294 209.450,40.800 208.733,41.300 208.313,42.126 208.330,43.000 208.330,47.667 208.330,52.333 208.330,57.000 208.355,57.435 208.224,57.864 207.960,58.210 207.550,58.563 207.006,58.720 206.470,58.640 203.823,58.640 201.177,58.640 198.530,58.640 198.453,58.640 198.377,58.640 198.300,58.640 197.836,58.702 197.366,58.599 196.970,58.350 196.211,57.736 195.732,56.842 195.640,55.870 195.640,55.823 195.640,55.777 195.640,55.730 191.307,47.440 186.973,39.150 182.640,30.860 182.550,30.680 180.320,26.530 176.190,25.960 161.377,25.960 146.563,25.960 131.750,25.960 131.750,24.973 131.750,23.987 131.750,23.000 131.987,22.360 132.223,21.720 132.460,21.080 132.493,20.080 132.527,19.080 132.560,18.080 133.313,17.080 134.067,16.080 134.820,15.080 155.900,15.080 176.980,15.080 198.060,15.080 198.060,18.893 198.060,22.707 198.060,26.520 198.004,27.291 198.256,28.053 198.760,28.640 199.587,29.474 200.739,29.901 201.910,29.810 208.197,29.810 214.483,29.810 220.770,29.810 221.485,29.907 222.209,29.704 222.770,29.250 223.603,28.453 224.027,27.318 223.920,26.170 223.920,22.973 223.920,19.777 223.920,16.580 228.360,16.580 232.800,16.580 237.240,16.580 238.033,17.187 238.827,17.793 239.620,18.400 239.620,23.697 239.620,28.993 239.620,34.290 239.620,34.290 239.620,34.290 239.620,34.290 239.580,35.827 239.540,37.363 239.500,38.900 Z M 236.850,56.120 C 236.850,56.287 236.784,56.447 236.666,56.565 236.547,56.684 236.387,56.750 236.220,56.750 227.813,56.750 219.407,56.750 211.000,56.750 210.833,56.750 210.673,56.684 210.555,56.565 210.436,56.447 210.370,56.287 210.370,56.120 210.370,51.903 210.370,47.687 210.370,43.470 210.345,43.091 210.463,42.716 210.700,42.420 210.791,42.364 210.894,42.333 211.000,42.330 219.450,42.330 227.900,42.330 236.350,42.330 236.517,42.330 236.677,42.396 236.796,42.515 236.914,42.633 236.980,42.793 236.980,42.960 236.937,47.347 236.893,51.733 236.850,56.120 Z M 172.560,57.460 C 170.707,57.242 168.901,56.729 167.210,55.940 167.467,54.940 167.723,53.940 167.980,52.940 169.627,54.636 171.699,55.859 173.980,56.480 178.170,56.480 182.360,56.480 186.550,56.480 188.747,56.464 190.841,55.546 192.340,53.940 192.747,54.720 193.153,55.500 193.560,56.280 191.969,57.026 190.237,57.422 188.480,57.440 183.173,57.447 177.867,57.453 172.560,57.460 Z M 157.040,76.170 C 157.040,76.217 157.040,76.263 157.040,76.310 157.040,76.357 157.040,76.403 157.040,76.450 157.542,78.927 157.740,81.455 157.630,83.980 149.753,83.340 141.877,82.700 134.000,82.060 140.477,82.113 146.953,82.167 153.430,82.220 153.247,81.957 153.063,81.693 152.880,81.430 151.960,80.100 151.880,76.740 151.880,75.610 152.794,69.019 154.823,62.631 157.880,56.720 160.880,55.330 161.130,53.350 161.140,53.260 161.140,53.223 161.140,53.187 161.140,53.150 161.140,53.117 161.140,53.083 161.140,53.050 159.940,49.460 162.140,48.210 162.310,48.120 163.250,47.470 163.740,42.970 163.950,40.340 164.038,38.331 163.052,36.427 161.360,35.340 165.287,35.340 169.213,35.340 173.140,35.340 172.807,37.593 172.473,39.847 172.140,42.100 169.990,42.664 168.286,44.303 167.640,46.430 167.337,47.623 167.033,48.817 166.730,50.010 166.703,50.010 166.677,50.010 166.650,50.010 166.650,50.060 166.650,50.110 166.650,50.160 166.123,52.233 165.597,54.307 165.070,56.380 163.530,57.420 158.650,61.580 157.140,76.140 157.107,76.150 157.073,76.160 157.040,76.170 Z M 138.040,53.290 C 138.060,53.257 138.080,53.223 138.100,53.190 138.190,53.000 140.230,48.580 138.020,44.900 136.510,42.380 133.460,40.900 128.930,40.530 128.930,40.110 128.930,39.690 128.930,39.270 129.727,37.973 130.523,36.677 131.320,35.380 136.380,35.380 141.440,35.380 146.500,35.380 146.500,36.173 146.500,36.967 146.500,37.760 149.333,37.760 152.167,37.760 155.000,37.760 155.000,36.967 155.000,36.173 155.000,35.380 156.477,35.380 157.953,35.380 159.430,35.380 159.430,35.380 159.430,35.380 159.430,35.380 159.430,35.380 163.150,36.790 162.970,40.230 162.730,43.230 162.190,46.830 161.810,47.230 161.810,47.230 158.810,48.870 160.170,53.230 160.080,53.590 159.610,54.870 157.360,55.860 157.310,55.883 157.260,55.907 157.210,55.930 157.183,55.977 157.157,56.023 157.130,56.070 153.940,62.140 151.828,68.717 150.890,75.510 150.824,77.433 151.081,79.352 151.650,81.190 145.433,81.127 139.217,81.063 133.000,81.000 132.827,80.887 132.653,80.773 132.480,80.660 132.440,80.650 124.530,75.080 138.110,53.260 138.087,53.270 138.063,53.280 138.040,53.290 Z M 127.040,20.370 C 128.177,20.370 129.313,20.370 130.450,20.370 130.450,20.480 130.450,20.590 130.450,20.700 130.210,21.350 129.970,22.000 129.730,22.650 129.730,26.237 129.730,29.823 129.730,33.410 128.837,33.410 127.943,33.410 127.050,33.410 127.047,29.063 127.043,24.717 127.040,20.370 Z M 154.040,29.910 C 154.040,32.200 154.040,34.490 154.040,36.780 151.883,36.780 149.727,36.780 147.570,36.780 147.570,34.483 147.570,32.187 147.570,29.890 149.727,29.897 151.883,29.903 154.040,29.910 Z M 155.040,34.410 C 155.040,32.577 155.040,30.743 155.040,28.910 152.217,28.910 149.393,28.910 146.570,28.910 146.570,30.743 146.570,32.577 146.570,34.410 141.630,34.410 136.690,34.410 131.750,34.410 131.750,32.273 131.750,30.137 131.750,28.000 146.500,28.000 161.250,28.000 176.000,28.000 179.060,28.470 180.870,31.810 180.890,31.840 181.337,32.697 181.783,33.553 182.230,34.410 173.167,34.410 164.103,34.410 155.040,34.410 Z M 177.420,37.410 C 177.323,37.137 177.227,36.863 177.130,36.590 177.323,36.203 177.517,35.817 177.710,35.430 179.377,35.430 181.043,35.430 182.710,35.430 183.043,36.097 183.377,36.763 183.710,37.430 181.613,37.423 179.517,37.417 177.420,37.410 Z M 173.190,42.000 C 173.523,39.807 173.857,37.613 174.190,35.420 174.987,35.420 175.783,35.420 176.580,35.420 176.387,35.773 176.193,36.127 176.000,36.480 176.220,37.110 176.440,37.740 176.660,38.370 179.183,38.370 181.707,38.370 184.230,38.370 184.873,39.580 185.517,40.790 186.160,42.000 181.837,42.000 177.513,42.000 173.190,42.000 Z M 181.750,54.480 C 179.540,51.420 179.194,47.392 180.850,44.000 182.970,44.000 185.090,44.000 187.210,44.000 188.617,46.667 190.023,49.333 191.430,52.000 190.281,53.497 188.517,54.394 186.630,54.440 185.003,54.453 183.377,54.467 181.750,54.480 Z M 174.630,54.480 C 174.570,54.480 174.510,54.480 174.450,54.480 173.760,54.280 170.170,53.110 168.950,50.650 171.126,51.447 173.076,52.761 174.630,54.480 174.630,54.480 174.630,54.480 174.630,54.480 Z M 176.000,54.480 C 174.940,53.280 172.110,50.360 168.920,49.600 169.140,48.740 169.360,47.880 169.580,47.020 170.122,45.424 171.505,44.260 173.170,44.000 175.370,44.000 177.570,44.000 179.770,44.000 178.279,47.420 178.567,51.354 180.540,54.520 179.027,54.507 177.513,54.493 176.000,54.480 Z M 135.800,11.800 C 137.553,11.800 139.307,11.800 141.060,11.800 141.317,12.220 141.573,12.640 141.830,13.060 139.830,13.060 137.830,13.060 135.830,13.060 135.820,12.640 135.810,12.220 135.800,11.800 Z M 202.800,17.700 C 203.513,18.447 204.227,19.193 204.940,19.940 209.027,19.940 213.113,19.940 217.200,19.940 217.913,19.193 218.627,18.447 219.340,17.700 220.187,17.700 221.033,17.700 221.880,17.700 221.880,20.523 221.880,23.347 221.880,26.170 221.943,26.714 221.796,27.261 221.470,27.700 221.357,27.792 221.216,27.842 221.070,27.840 221.070,27.840 221.070,27.840 221.070,27.840 214.693,27.840 208.317,27.840 201.940,27.840 201.356,27.904 200.770,27.735 200.310,27.370 200.155,27.193 200.073,26.965 200.080,26.730 200.080,23.730 200.080,20.730 200.080,17.730 200.987,17.720 201.893,17.710 202.800,17.700 Z M 234.220,12.500 C 234.860,12.500 235.500,12.500 236.140,12.500 236.140,13.190 236.140,13.880 236.140,14.570 235.250,14.570 234.360,14.570 233.470,14.570 233.720,13.880 233.970,13.190 234.220,12.500 Z M 256.220,17.700 C 256.220,18.007 256.220,18.313 256.220,18.620 253.073,18.620 249.927,18.620 246.780,18.620 245.900,18.080 245.020,17.540 244.140,17.000 243.113,17.000 242.087,17.000 241.060,17.000 240.100,16.263 239.140,15.527 238.180,14.790 238.180,13.360 238.180,11.930 238.180,10.500 236.410,10.500 234.640,10.500 232.870,10.500 232.373,11.857 231.877,13.213 231.380,14.570 228.213,14.570 225.047,14.570 221.880,14.570 221.880,14.947 221.880,15.323 221.880,15.700 220.747,15.700 219.613,15.700 218.480,15.700 217.767,16.447 217.053,17.193 216.340,17.940 212.823,17.940 209.307,17.940 205.790,17.940 205.077,17.193 204.363,16.447 203.650,15.700 202.450,15.700 201.250,15.700 200.050,15.700 200.050,14.800 200.050,13.900 200.050,13.000 181.433,13.000 162.817,13.000 144.200,13.000 143.533,11.913 142.867,10.827 142.200,9.740 139.407,9.740 136.613,9.740 133.820,9.740 133.820,10.827 133.820,11.913 133.820,13.000 133.820,13.000 133.820,13.000 133.820,13.000 132.740,14.440 131.660,15.880 130.580,17.320 130.580,17.653 130.580,17.987 130.580,18.320 128.753,18.320 126.927,18.320 125.100,18.320 125.100,24.017 125.100,29.713 125.100,35.410 126.433,35.410 127.767,35.410 129.100,35.410 128.433,36.510 127.767,37.610 127.100,38.710 127.100,39.937 127.100,41.163 127.100,42.390 127.433,42.390 127.767,42.390 128.100,42.390 132.430,42.610 135.270,43.770 136.520,45.840 138.080,48.430 136.710,51.840 136.520,52.220 124.010,72.350 129.050,79.930 130.960,81.830 130.767,82.460 130.573,83.090 130.380,83.720 139.827,84.480 149.273,85.240 158.720,86.000 158.830,85.890 158.940,85.780 159.050,85.670 160.260,84.460 159.780,79.870 159.150,76.170 160.790,60.610 166.310,58.010 166.350,58.000 166.480,57.947 166.610,57.893 166.740,57.840 168.568,58.610 170.492,59.128 172.460,59.380 177.830,59.380 183.200,59.380 188.570,59.380 190.554,59.361 192.512,58.928 194.320,58.110 194.662,58.877 195.209,59.534 195.900,60.010 196.712,60.531 197.685,60.740 198.640,60.600 201.247,60.600 203.853,60.600 206.460,60.600 207.571,60.717 208.674,60.323 209.460,59.530 209.730,59.239 209.944,58.900 210.090,58.530 210.375,58.638 210.676,58.696 210.980,58.700 219.430,58.700 227.880,58.700 236.330,58.700 237.028,58.700 237.697,58.423 238.190,57.930 238.683,57.436 238.960,56.768 238.960,56.070 238.960,51.713 238.960,47.357 238.960,43.000 238.958,42.519 238.823,42.049 238.570,41.640 239.570,41.150 240.570,40.660 241.570,40.170 241.570,38.210 241.570,36.250 241.570,34.290 242.420,34.290 243.270,34.290 244.120,34.290 245.000,33.757 245.880,33.223 246.760,32.690 249.907,32.690 253.053,32.690 256.200,32.690 256.200,32.997 256.200,33.303 256.200,33.610 260.370,32.640 264.540,31.670 268.710,30.700 268.710,27.337 268.710,23.973 268.710,20.610 264.547,19.640 260.383,18.670 256.220,17.700 Z " />
  <path stroke="none" fill="#ffffffff" d="M 205.410,51.580 C 205.410,53.800 204.120,54.060 204.150,54.070 202.633,54.070 201.117,54.070 199.600,54.070 198.160,54.070 196.840,52.070 196.440,51.220 193.353,45.220 190.267,39.220 187.180,33.220 193.257,33.220 199.333,33.220 205.410,33.220 205.410,39.340 205.410,45.460 205.410,51.580 Z M 195.550,51.660 C 195.620,51.800 197.240,55.060 199.550,55.060 201.097,55.060 202.643,55.060 204.190,55.060 204.950,54.940 206.380,54.060 206.380,51.580 206.380,45.123 206.380,38.667 206.380,32.210 199.433,32.210 192.487,32.210 185.540,32.210 188.877,38.693 192.213,45.177 195.550,51.660 Z " />
  <path stroke="none" fill="#ffffffff" d="M 249.340,22.730 C 250.810,22.730 252.280,22.730 253.750,22.730 253.973,22.794 254.127,22.998 254.127,23.230 254.127,23.462 253.973,23.666 253.750,23.730 252.280,23.730 250.810,23.730 249.340,23.730 249.117,23.666 248.963,23.462 248.963,23.230 248.963,22.998 249.117,22.794 249.340,22.730 249.340,22.730 249.340,22.730 249.340,22.730 Z M 249.340,24.730 C 250.810,24.730 252.280,24.730 253.750,24.730 254.485,24.610 255.024,23.975 255.024,23.230 255.024,22.485 254.485,21.850 253.750,21.730 252.280,21.730 250.810,21.730 249.340,21.730 248.605,21.850 248.066,22.485 248.066,23.230 248.066,23.975 248.605,24.610 249.340,24.730 249.340,24.730 249.340,24.730 249.340,24.730 Z " />
  <path stroke="none" fill="#ffffffff" d="M 253.750,28.380 C 252.280,28.380 250.810,28.380 249.340,28.380 249.117,28.316 248.963,28.112 248.963,27.880 248.963,27.648 249.117,27.444 249.340,27.380 250.810,27.380 252.280,27.380 253.750,27.380 253.973,27.444 254.127,27.648 254.127,27.880 254.127,28.112 253.973,28.316 253.750,28.380 253.750,28.380 253.750,28.380 253.750,28.380 Z M 253.750,26.380 C 252.280,26.380 250.810,26.380 249.340,26.380 248.605,26.500 248.066,27.135 248.066,27.880 248.066,28.625 248.605,29.260 249.340,29.380 250.810,29.380 252.280,29.380 253.750,29.380 254.485,29.260 255.024,28.625 255.024,27.880 255.024,27.135 254.485,26.500 253.750,26.380 253.750,26.380 253.750,26.380 253.750,26.380 Z " />
</svg>