<?xml version="1.0" encoding="UTF-8" standalone="no"?>
<!DOCTYPE svg PUBLIC "-//W3C//DTD SVG 20010904//EN" "http://www.w3.org/TR/2001/REC-SVG-20010904/DTD/svg10.dtd"[]>
<svg version="1.1" id="Frosty Editor v1.0.6.3" xmlns="http://www.w3.org/2000/svg" d1p1:xlink="http://www.w3.org/1999/xlink" viewBox="0 0 384 96" xmlns:d1p1="xmlns">
  <path stroke="none" fill="#ffffffff" d="M 171.148,2.329 C 170.407,2.282 169.713,2.391 169.125,2.591 167.557,3.123 166.551,4.169 166.551,4.169 166.221,4.505 166.221,4.505 166.221,4.505 166.221,5.438 166.221,5.438 166.221,5.438 162.428,5.438 162.428,5.438 162.428,5.438 162.428,6.114 162.428,6.114 162.428,6.114 139.660,6.114 139.660,6.114 139.660,6.114 129.254,5.176 129.254,5.176 129.254,5.176 119.147,5.176 119.147,5.176 119.147,5.176 119.147,13.358 119.147,13.358 119.147,13.358 119.147,18.665 119.147,18.665 119.147,18.665 129.254,18.665 129.254,18.665 129.254,18.665 139.660,17.727 139.660,17.727 139.660,17.727 162.428,17.727 162.428,17.727 162.428,17.727 162.428,21.415 162.428,21.415 162.428,21.415 162.959,21.415 162.959,21.415 162.959,21.415 162.959,23.413 162.959,23.413 162.959,23.413 140.977,23.413 140.977,23.413 140.977,23.413 140.977,22.716 140.977,22.716 140.977,22.716 136.891,22.716 136.891,22.716 136.891,22.716 127.354,22.716 127.354,22.716 127.354,22.716 124.709,24.688 124.709,24.688 124.709,24.688 124.709,30.358 124.709,30.358 124.709,30.358 124.709,35.983 124.709,35.983 124.709,35.983 124.709,41.653 124.709,41.653 124.709,41.653 127.354,43.626 127.354,43.626 127.354,43.626 136.891,43.626 136.891,43.626 136.891,43.626 139.383,43.626 139.383,43.626 139.383,43.626 139.383,44.331 139.383,44.331 139.383,44.331 135.357,44.331 135.357,44.331 135.357,44.331 135.318,45.440 135.318,45.440 135.318,45.440 135.318,45.440 135.274,46.709 135.252,48.147 135.230,49.586 135.208,51.095 135.328,51.997 135.473,53.085 136.321,53.805 136.967,54.050 137.613,54.294 138.195,54.257 138.195,54.257 138.147,54.259 138.147,54.259 138.147,54.259 160.863,54.259 160.863,54.259 160.863,54.259 160.863,53.083 160.863,53.083 160.863,53.083 162.803,53.083 162.803,53.083 162.803,53.083 163.350,57.260 161.337,61.842 161.332,61.854 161.304,61.905 156.397,70.844 152.607,77.717 150.581,81.394 150.759,84.226 151.641,86.044 152.522,87.861 154.059,88.663 154.059,88.663 154.117,88.692 154.117,88.692 154.117,88.692 166.652,93.438 166.652,93.438 166.652,93.438 166.756,93.458 166.756,93.458 166.756,93.458 169.488,93.957 171.568,93.601 173.039,92.612 174.510,91.623 175.242,90.091 175.565,88.630 176.117,86.125 175.660,83.958 175.504,83.288 185.334,67.661 185.334,67.661 185.334,67.661 186.143,67.534 186.143,67.534 186.143,67.534 197.113,67.534 197.113,67.534 197.113,67.534 197.123,67.534 197.123,67.534 197.123,67.534 200.457,67.475 202.968,66.454 204.732,64.913 206.497,63.372 207.494,61.368 208.051,59.438 208.850,56.665 208.772,54.474 208.666,53.171 228.082,53.171 228.082,53.171 228.082,53.171 228.082,65.678 228.082,65.678 228.082,65.678 248.666,65.678 248.666,65.678 248.666,65.678 248.666,48.419 248.666,48.419 248.666,48.419 249.053,47.339 249.419,45.911 249.572,43.829 249.922,43.829 249.922,43.829 249.922,43.829 257.912,43.829 257.912,43.829 257.912,43.829 264.854,41.067 264.854,41.067 264.854,41.067 264.854,35.050 264.854,35.050 264.854,35.050 264.854,31.514 264.854,31.514 264.854,31.514 264.854,25.497 264.854,25.497 264.854,25.497 257.912,22.737 257.912,22.737 257.912,22.737 249.922,22.737 249.922,22.737 249.922,22.737 247.877,22.737 247.877,22.737 247.877,22.737 247.699,23.046 247.699,23.046 247.699,23.046 216.791,22.712 216.791,22.712 216.791,22.712 216.791,20.208 216.791,20.208 216.791,20.208 213.731,20.208 213.731,20.208 213.731,20.208 213.445,19.928 213.185,19.585 212.848,19.448 212.292,19.223 211.702,19.249 211.266,19.389 210.815,19.534 210.807,19.665 210.588,19.864 201.697,19.864 201.697,19.864 201.697,19.864 201.697,18.958 201.697,18.958 201.697,18.958 196.209,18.958 196.209,18.958 196.209,18.958 196.209,19.116 196.209,19.116 196.209,19.116 195.555,18.733 194.895,18.782 194.471,18.885 194.009,18.998 193.662,19.186 193.662,19.186 192.850,19.620 192.850,19.620 192.850,19.620 193.672,22.600 193.672,22.600 193.672,22.600 184.109,22.600 184.109,22.600 184.109,22.600 184.109,21.602 184.109,21.602 184.109,21.602 184.641,21.602 184.641,21.602 184.641,21.602 184.641,17.915 184.641,17.915 184.641,17.915 214.352,17.915 214.352,17.915 214.352,17.915 214.500,18.471 214.500,18.471 214.500,18.471 221.277,18.471 221.277,18.471 221.277,18.471 221.277,18.106 221.277,18.106 221.277,18.106 233.270,18.665 233.270,18.665 233.270,18.665 246.197,18.665 246.197,18.665 246.197,18.665 246.197,10.764 246.197,10.764 246.197,10.764 246.197,5.489 246.197,5.489 246.197,5.489 233.270,5.489 233.270,5.489 233.270,5.489 221.277,6.048 221.277,6.048 221.277,6.048 221.277,5.682 221.277,5.682 221.277,5.682 214.500,5.682 214.500,5.682 214.500,5.682 214.352,6.239 214.352,6.239 214.352,6.239 184.641,6.239 184.641,6.239 184.641,6.239 184.641,5.671 184.641,5.671 184.641,5.671 179.348,5.671 179.348,5.671 179.348,5.671 178.763,5.180 178.262,4.889 178.262,4.889 178.037,4.788 178.037,4.788 178.037,4.788 175.305,4.788 175.305,4.788 175.305,4.788 175.305,4.507 175.305,4.507 175.305,4.507 174.977,4.173 174.977,4.173 174.977,4.173 173.997,3.171 172.926,2.642 171.904,2.430 171.649,2.378 171.396,2.345 171.148,2.329 Z M 170.666,4.649 C 171.792,4.649 172.676,5.533 172.676,6.659 172.676,7.785 171.792,8.671 170.666,8.671 169.540,8.671 168.654,7.785 168.654,6.659 168.654,5.533 169.540,4.649 170.666,4.649 Z M 174.025,7.087 C 177.418,7.087 177.418,7.087 177.418,7.087 177.539,7.150 178.213,7.482 178.572,8.241 179.078,8.128 179.078,8.128 179.078,8.128 179.078,10.104 179.078,10.104 179.078,10.104 177.734,12.327 177.734,12.327 177.734,12.327 169.244,12.327 169.244,12.327 169.244,12.327 168.016,10.585 168.016,10.585 168.016,10.585 168.016,8.764 168.016,8.764 168.016,8.764 168.638,9.545 169.596,10.048 170.666,10.048 172.386,10.048 173.814,8.751 174.025,7.087 Z M 121.447,7.477 C 128.703,7.477 128.703,7.477 128.703,7.477 128.703,16.364 128.703,16.364 128.703,16.364 121.447,16.364 121.447,16.364 121.447,16.364 121.447,10.483 121.447,10.483 121.447,10.483 Z M 129.703,7.526 C 139.391,8.399 139.391,8.399 139.391,8.399 139.391,15.442 139.391,15.442 139.391,15.442 129.703,16.315 129.703,16.315 129.703,16.315 Z M 164.729,7.739 C 167.016,7.739 167.016,7.739 167.016,7.739 167.016,10.893 167.016,10.893 167.016,10.893 167.014,10.895 167.014,10.895 167.014,10.895 167.016,10.897 167.016,10.897 167.016,10.897 167.016,19.452 167.016,19.452 167.016,19.452 165.260,19.452 165.260,19.452 165.260,19.452 165.260,19.114 165.260,19.114 165.260,19.114 164.729,19.114 164.729,19.114 164.729,19.114 164.729,15.426 164.729,15.426 164.729,15.426 164.016,15.426 164.016,15.426 164.016,15.426 164.016,8.415 164.016,8.415 164.016,8.415 164.729,8.415 164.729,8.415 164.729,8.415 Z M 233.324,7.790 C 235.580,7.790 235.580,7.790 235.580,7.790 235.580,16.364 235.580,16.364 235.580,16.364 233.324,16.364 233.324,16.364 233.324,16.364 220.406,15.762 220.406,15.762 220.406,15.762 220.406,8.391 220.406,8.391 220.406,8.391 Z M 236.580,7.790 C 243.897,7.790 243.897,7.790 243.897,7.790 243.897,13.389 243.897,13.389 243.897,13.389 243.897,16.364 243.897,16.364 243.897,16.364 236.580,16.364 236.580,16.364 236.580,16.364 Z M 180.078,7.971 C 182.340,7.971 182.340,7.971 182.340,7.971 182.340,8.540 182.340,8.540 182.340,8.540 183.078,8.540 183.078,8.540 183.078,8.540 183.078,15.614 183.078,15.614 183.078,15.614 182.340,15.614 182.340,15.614 182.340,15.614 182.340,17.333 182.340,17.333 182.340,17.333 182.340,19.301 182.340,19.301 182.340,19.301 181.809,19.301 181.809,19.301 181.809,19.301 181.809,19.639 181.809,19.639 181.809,19.639 180.078,19.639 180.078,19.639 180.078,19.639 Z M 216.266,7.983 C 218.977,7.983 218.977,7.983 218.977,7.983 218.977,8.458 218.977,8.458 218.977,8.458 219.406,8.438 219.406,8.438 219.406,8.438 219.406,15.716 219.406,15.716 219.406,15.716 218.977,15.696 218.977,15.696 218.977,15.696 218.977,16.171 218.977,16.171 218.977,16.171 216.266,16.171 216.266,16.171 216.266,16.171 216.117,15.614 216.117,15.614 216.117,15.614 215.809,15.614 215.809,15.614 215.809,15.614 215.809,8.540 215.809,8.540 215.809,8.540 216.117,8.540 216.117,8.540 216.117,8.540 Z M 176.440,8.180 C 175.657,8.180 175.014,8.822 175.014,9.604 175.014,10.387 175.657,11.030 176.440,11.030 177.222,11.030 177.863,10.387 177.863,9.604 177.863,8.822 177.222,8.180 176.440,8.180 Z M 140.391,8.415 C 163.016,8.415 163.016,8.415 163.016,8.415 163.016,15.426 163.016,15.426 163.016,15.426 140.391,15.426 140.391,15.426 140.391,15.426 Z M 184.078,8.540 C 214.809,8.540 214.809,8.540 214.809,8.540 214.809,15.614 214.809,15.614 214.809,15.614 184.078,15.614 184.078,15.614 184.078,15.614 Z M 176.440,8.971 C 176.797,8.971 177.072,9.247 177.072,9.604 177.072,9.962 176.797,10.237 176.440,10.237 176.082,10.237 175.805,9.962 175.805,9.604 175.805,9.247 176.082,8.971 176.440,8.971 Z M 179.078,12.870 C 179.078,16.165 179.078,16.165 179.078,16.165 168.016,16.165 168.016,16.165 168.016,16.165 168.016,13.036 168.016,13.036 168.016,13.036 168.697,13.313 168.697,13.313 168.697,13.313 168.703,13.298 168.703,13.298 168.703,13.298 168.725,13.327 168.725,13.327 168.725,13.327 178.297,13.327 178.297,13.327 178.297,13.327 178.303,13.317 178.303,13.317 178.303,13.317 178.311,13.329 178.311,13.329 178.311,13.329 Z M 168.016,17.165 C 179.078,17.165 179.078,17.165 179.078,17.165 179.078,20.639 179.078,20.639 179.078,20.639 181.809,20.639 181.809,20.639 181.809,20.639 181.809,23.903 181.809,23.903 181.809,23.903 165.260,24.053 165.260,24.053 165.260,24.053 165.260,20.452 165.260,20.452 165.260,20.452 168.016,20.452 168.016,20.452 168.016,20.452 Z M 198.510,21.259 C 199.397,21.259 199.397,21.259 199.397,21.259 199.397,22.165 199.397,22.165 199.397,22.165 211.422,22.165 211.422,22.165 211.422,22.165 211.768,21.719 211.768,21.719 211.768,21.719 211.768,21.719 211.920,21.593 211.969,21.577 211.993,21.569 211.946,21.564 211.982,21.579 212.019,21.594 212.179,21.677 212.418,22.018 212.760,22.509 212.760,22.509 212.760,22.509 214.490,22.509 214.490,22.509 214.490,22.509 214.490,24.848 214.490,24.848 214.490,24.848 196.104,24.737 196.104,24.737 196.104,24.737 196.104,22.764 196.104,22.764 196.104,22.764 195.809,21.692 195.809,21.692 195.809,21.692 195.870,21.748 196.068,21.911 196.068,21.911 196.400,22.227 196.400,22.227 196.400,22.227 198.510,22.227 198.510,22.227 198.510,22.227 Z M 182.129,24.901 C 193.272,24.901 193.272,24.901 193.272,24.901 193.272,25.727 193.272,25.727 193.272,25.727 193.922,25.727 193.922,25.727 193.922,25.727 193.922,28.743 193.922,28.743 193.922,28.743 216.873,28.850 216.873,28.850 216.873,28.850 217.000,25.852 217.000,25.852 217.000,25.852 217.697,25.852 217.697,25.852 217.697,25.852 217.697,25.020 217.697,25.020 217.697,25.020 248.242,25.350 248.242,25.350 248.242,25.350 248.242,41.528 248.242,41.528 248.242,41.528 247.406,41.528 247.406,41.528 247.406,41.528 247.393,42.663 247.393,42.663 247.393,42.663 247.380,43.592 247.313,44.285 247.227,44.901 247.010,39.081 247.010,39.081 247.010,39.081 246.354,38.311 246.354,38.311 246.354,38.311 245.639,38.311 245.639,38.311 245.639,38.311 245.631,38.311 245.631,38.311 245.631,38.311 245.634,38.285 245.668,37.989 245.512,37.647 245.349,37.290 244.889,36.915 244.256,36.915 244.172,36.915 244.172,36.915 244.172,36.915 225.650,36.915 225.650,36.915 225.650,36.915 225.017,36.915 224.557,37.290 224.395,37.647 224.317,37.818 224.288,37.981 224.275,38.108 224.068,38.108 224.068,38.108 224.068,38.108 140.266,38.108 140.266,38.108 140.266,38.108 140.266,35.462 140.266,35.462 140.266,35.462 157.979,35.462 157.979,35.462 157.979,35.462 158.125,35.313 158.125,35.313 158.125,35.313 158.125,35.313 158.610,34.820 159.523,34.516 160.437,34.213 161.733,34.104 163.410,35.005 163.522,35.063 163.522,35.063 163.522,35.063 163.647,35.063 163.647,35.063 163.647,35.063 163.703,35.063 163.731,35.064 163.846,35.061 163.960,35.059 164.124,35.056 164.330,35.051 164.743,35.043 165.325,35.031 166.020,35.016 167.410,34.987 169.251,34.948 171.088,34.909 174.762,34.832 178.418,34.755 178.418,34.755 178.908,34.745 178.908,34.745 178.908,34.745 178.908,30.913 178.908,30.913 178.908,30.913 180.522,30.315 180.522,30.315 180.522,30.315 180.522,27.528 180.522,27.528 180.522,27.528 181.255,27.014 181.876,26.782 182.406,26.829 182.922,26.874 183.426,27.164 183.941,27.516 183.941,34.643 183.941,34.643 183.941,34.643 211.797,34.653 211.797,34.653 211.797,34.653 211.797,33.653 211.797,33.653 211.797,33.653 184.941,33.645 184.941,33.645 184.941,33.645 184.941,26.952 184.941,26.952 184.941,26.952 184.736,26.803 184.736,26.803 184.736,26.803 184.080,26.322 183.351,25.908 182.494,25.833 181.637,25.757 180.699,26.047 179.715,26.811 179.522,26.962 179.522,26.962 179.522,26.962 179.522,29.620 179.522,29.620 179.522,29.620 177.908,30.216 177.908,30.216 177.908,30.216 177.908,33.764 177.908,33.764 177.908,33.764 177.467,33.774 174.494,33.837 171.066,33.909 169.230,33.948 167.390,33.987 166.000,34.016 165.305,34.031 164.721,34.043 164.309,34.051 164.102,34.056 163.938,34.059 163.824,34.061 163.735,34.063 163.699,34.063 163.686,34.063 161.874,33.160 160.297,33.206 159.209,33.567 158.240,33.889 157.829,34.315 157.670,34.462 140.266,34.462 140.266,34.462 140.266,34.462 140.266,25.714 140.266,25.714 140.266,25.714 165.260,25.714 165.260,25.714 165.260,25.714 165.260,25.053 165.260,25.053 165.260,25.053 Z M 128.566,25.016 C 129.922,25.016 129.922,25.016 129.922,25.016 129.922,41.325 129.922,41.325 129.922,41.325 128.566,41.325 128.566,41.325 128.566,41.325 Z M 131.592,25.016 C 131.793,25.016 131.793,25.016 131.793,25.016 131.795,25.018 131.795,25.018 131.795,25.018 131.797,25.016 131.797,25.016 131.797,25.016 132.770,25.016 132.770,25.016 132.770,25.016 133.051,25.301 133.051,25.301 133.051,25.301 133.693,25.944 133.693,25.944 133.693,25.944 133.863,25.774 133.863,25.774 133.863,25.774 134.043,25.594 134.043,25.594 134.043,25.594 133.473,25.016 133.473,25.016 133.473,25.016 133.682,25.016 133.682,25.016 133.682,25.016 133.684,25.018 133.684,25.018 133.684,25.018 133.686,25.016 133.686,25.016 133.686,25.016 134.658,25.016 134.658,25.016 134.658,25.016 134.940,25.301 134.940,25.301 134.940,25.301 135.570,25.944 135.570,25.944 135.570,25.944 135.750,25.774 135.750,25.774 135.750,25.774 135.930,25.594 135.930,25.594 135.930,25.594 135.359,25.016 135.359,25.016 135.359,25.016 135.561,25.016 135.561,25.016 135.561,25.016 135.563,25.018 135.563,25.018 135.563,25.018 135.565,25.016 135.565,25.016 135.565,25.016 136.422,25.016 136.422,25.016 136.422,25.016 136.422,25.341 136.422,25.341 136.422,25.341 135.883,25.887 135.883,25.887 135.883,25.887 135.250,26.530 135.250,26.530 135.250,26.530 135.410,26.717 135.410,26.717 135.410,26.717 135.563,26.907 135.563,26.907 135.563,26.907 136.223,26.255 136.223,26.255 136.223,26.255 136.422,26.053 136.422,26.053 136.422,26.053 136.422,26.298 136.422,26.298 136.422,26.298 136.356,26.360 136.356,26.360 136.356,26.360 136.186,26.538 136.186,26.538 136.186,26.538 136.422,26.782 136.422,26.782 136.422,26.782 136.422,27.229 136.422,27.229 136.422,27.229 135.883,27.776 135.883,27.776 135.883,27.776 135.250,28.417 135.250,28.417 135.250,28.417 135.410,28.606 135.410,28.606 135.410,28.606 135.563,28.794 135.563,28.794 135.563,28.794 136.223,28.143 136.223,28.143 136.223,28.143 136.422,27.942 136.422,27.942 136.422,27.942 136.422,28.184 136.422,28.184 136.422,28.184 136.356,28.247 136.356,28.247 136.356,28.247 136.186,28.426 136.186,28.426 136.186,28.426 136.422,28.669 136.422,28.669 136.422,28.669 136.422,29.116 136.422,29.116 136.422,29.116 135.883,29.663 135.883,29.663 135.883,29.663 135.250,30.305 135.250,30.305 135.250,30.305 135.410,30.493 135.410,30.493 135.410,30.493 135.563,30.682 135.563,30.682 135.563,30.682 136.223,30.032 136.223,30.032 136.223,30.032 136.422,29.829 136.422,29.829 136.422,29.829 136.422,30.073 136.422,30.073 136.422,30.073 136.356,30.135 136.356,30.135 136.356,30.135 136.186,30.315 136.186,30.315 136.186,30.315 136.422,30.557 136.422,30.557 136.422,30.557 136.422,31.005 136.422,31.005 136.422,31.005 135.883,31.551 135.883,31.551 135.883,31.551 135.250,32.192 135.250,32.192 135.250,32.192 135.410,32.382 135.410,32.382 135.410,32.382 135.563,32.571 135.563,32.571 135.563,32.571 136.223,31.919 136.223,31.919 136.223,31.919 136.422,31.717 136.422,31.717 136.422,31.717 136.422,31.960 136.422,31.960 136.422,31.960 136.356,32.022 136.356,32.022 136.356,32.022 136.186,32.202 136.186,32.202 136.186,32.202 136.422,32.446 136.422,32.446 136.422,32.446 136.422,32.893 136.422,32.893 136.422,32.893 135.883,33.438 135.883,33.438 135.883,33.438 135.250,34.081 135.250,34.081 135.250,34.081 135.410,34.270 135.410,34.270 135.410,34.270 135.563,34.458 135.563,34.458 135.563,34.458 136.223,33.807 136.223,33.807 136.223,33.807 136.422,33.606 136.422,33.606 136.422,33.606 136.422,33.848 136.422,33.848 136.422,33.848 136.356,33.911 136.356,33.911 136.356,33.911 136.186,34.091 136.186,34.091 136.186,34.091 136.422,34.333 136.422,34.333 136.422,34.333 136.422,34.780 136.422,34.780 136.422,34.780 135.883,35.327 135.883,35.327 135.883,35.327 135.250,35.969 135.250,35.969 135.250,35.969 135.410,36.157 135.410,36.157 135.410,36.157 135.563,36.346 135.563,36.346 135.563,36.346 136.223,35.696 136.223,35.696 136.223,35.696 136.422,35.493 136.422,35.493 136.422,35.493 136.422,35.737 136.422,35.737 136.422,35.737 136.356,35.800 136.356,35.800 136.356,35.800 136.186,35.979 136.186,35.979 136.186,35.979 136.422,36.221 136.422,36.221 136.422,36.221 136.422,36.669 136.422,36.669 136.422,36.669 135.883,37.216 135.883,37.216 135.883,37.216 135.250,37.856 135.250,37.856 135.250,37.856 135.410,38.046 135.410,38.046 135.410,38.046 135.563,38.235 135.563,38.235 135.563,38.235 136.223,37.583 136.223,37.583 136.223,37.583 136.422,37.382 136.422,37.382 136.422,37.382 136.422,37.624 136.422,37.624 136.422,37.624 136.356,37.686 136.356,37.686 136.356,37.686 136.186,37.866 136.186,37.866 136.186,37.866 136.422,38.110 136.422,38.110 136.422,38.110 136.422,38.557 136.422,38.557 136.422,38.557 135.883,39.102 135.883,39.102 135.883,39.102 135.250,39.745 135.250,39.745 135.250,39.745 135.410,39.934 135.410,39.934 135.410,39.934 135.563,40.122 135.563,40.122 135.563,40.122 136.223,39.471 136.223,39.471 136.223,39.471 136.422,39.268 136.422,39.268 136.422,39.268 136.422,39.512 136.422,39.512 136.422,39.512 136.356,39.575 136.356,39.575 136.356,39.575 136.186,39.755 136.186,39.755 136.186,39.755 136.422,39.997 136.422,39.997 136.422,39.997 136.422,40.444 136.422,40.444 136.422,40.444 135.883,40.991 135.883,40.991 135.883,40.991 135.555,41.325 135.555,41.325 135.555,41.325 134.678,41.325 134.678,41.325 134.678,41.325 134.647,41.294 134.647,41.294 134.647,41.294 134.615,41.325 134.615,41.325 134.615,41.325 134.367,41.325 134.367,41.325 134.367,41.325 134.986,40.698 134.986,40.698 134.986,40.698 134.807,40.518 134.807,40.518 134.807,40.518 134.627,40.348 134.627,40.348 134.627,40.348 133.994,40.991 133.994,40.991 133.994,40.991 133.666,41.325 133.666,41.325 133.666,41.325 132.789,41.325 132.789,41.325 132.789,41.325 132.758,41.294 132.758,41.294 132.758,41.294 132.727,41.325 132.727,41.325 132.727,41.325 132.481,41.325 132.481,41.325 132.481,41.325 133.098,40.698 133.098,40.698 133.098,40.698 132.928,40.518 132.928,40.518 132.928,40.518 132.748,40.348 132.748,40.348 132.748,40.348 132.117,40.991 132.117,40.991 132.117,40.991 131.783,41.325 131.783,41.325 131.783,41.325 130.922,41.325 130.922,41.325 130.922,41.325 130.922,40.995 130.922,40.995 130.922,40.995 131.219,40.698 131.219,40.698 131.219,40.698 131.041,40.518 131.041,40.518 131.041,40.518 130.922,40.405 130.922,40.405 130.922,40.405 130.922,40.161 130.922,40.161 130.922,40.161 131.162,40.405 131.162,40.405 131.162,40.405 131.805,41.048 131.805,41.048 131.805,41.048 131.984,40.878 131.984,40.878 131.984,40.878 132.154,40.698 132.154,40.698 132.154,40.698 131.522,40.048 131.522,40.048 131.522,40.048 130.922,39.448 130.922,39.448 130.922,39.448 130.922,39.106 130.922,39.106 130.922,39.106 131.219,38.809 131.219,38.809 131.219,38.809 131.041,38.632 131.041,38.632 131.041,38.632 130.922,38.518 130.922,38.518 130.922,38.518 130.922,38.274 130.922,38.274 130.922,38.274 131.162,38.518 131.162,38.518 131.162,38.518 131.805,39.159 131.805,39.159 131.805,39.159 131.984,38.989 131.984,38.989 131.984,38.989 132.154,38.809 132.154,38.809 132.154,38.809 131.522,38.159 131.522,38.159 131.522,38.159 130.922,37.559 130.922,37.559 130.922,37.559 130.922,37.219 130.922,37.219 130.922,37.219 131.219,36.923 131.219,36.923 131.219,36.923 131.041,36.743 131.041,36.743 131.041,36.743 130.922,36.630 130.922,36.630 130.922,36.630 130.922,36.385 130.922,36.385 130.922,36.385 131.162,36.630 131.162,36.630 131.162,36.630 131.805,37.272 131.805,37.272 131.805,37.272 131.984,37.102 131.984,37.102 131.984,37.102 132.154,36.923 132.154,36.923 132.154,36.923 131.522,36.270 131.522,36.270 131.522,36.270 130.922,35.673 130.922,35.673 130.922,35.673 130.922,35.331 130.922,35.331 130.922,35.331 131.219,35.034 131.219,35.034 131.219,35.034 131.041,34.854 131.041,34.854 131.041,34.854 130.922,34.741 130.922,34.741 130.922,34.741 130.922,34.497 130.922,34.497 130.922,34.497 131.162,34.741 131.162,34.741 131.162,34.741 131.805,35.384 131.805,35.384 131.805,35.384 131.984,35.214 131.984,35.214 131.984,35.214 132.154,35.034 132.154,35.034 132.154,35.034 131.522,34.384 131.522,34.384 131.522,34.384 130.922,33.784 130.922,33.784 130.922,33.784 130.922,33.444 130.922,33.444 130.922,33.444 131.219,33.147 131.219,33.147 131.219,33.147 131.041,32.967 131.041,32.967 131.041,32.967 130.922,32.854 130.922,32.854 130.922,32.854 130.922,32.610 130.922,32.610 130.922,32.610 131.162,32.854 131.162,32.854 131.162,32.854 131.805,33.495 131.805,33.495 131.805,33.495 131.984,33.325 131.984,33.325 131.984,33.325 132.154,33.147 132.154,33.147 132.154,33.147 131.522,32.495 131.522,32.495 131.522,32.495 130.922,31.895 130.922,31.895 130.922,31.895 130.922,31.555 130.922,31.555 130.922,31.555 131.219,31.259 131.219,31.259 131.219,31.259 131.041,31.079 131.041,31.079 131.041,31.079 130.922,30.966 130.922,30.966 130.922,30.966 130.922,30.721 130.922,30.721 130.922,30.721 131.162,30.966 131.162,30.966 131.162,30.966 131.805,31.608 131.805,31.608 131.805,31.608 131.984,31.438 131.984,31.438 131.984,31.438 132.154,31.259 132.154,31.259 132.154,31.259 131.522,30.608 131.522,30.608 131.522,30.608 130.922,30.009 130.922,30.009 130.922,30.009 130.922,29.667 130.922,29.667 130.922,29.667 131.219,29.370 131.219,29.370 131.219,29.370 131.041,29.192 131.041,29.192 131.041,29.192 130.922,29.079 130.922,29.079 130.922,29.079 130.922,28.833 130.922,28.833 130.922,28.833 131.162,29.077 131.162,29.077 131.162,29.077 131.805,29.719 131.805,29.719 131.805,29.719 131.984,29.550 131.984,29.550 131.984,29.550 132.154,29.370 132.154,29.370 132.154,29.370 131.522,28.719 131.522,28.719 131.522,28.719 130.922,28.120 130.922,28.120 130.922,28.120 130.922,27.780 130.922,27.780 130.922,27.780 131.219,27.483 131.219,27.483 131.219,27.483 131.041,27.303 131.041,27.303 131.041,27.303 130.922,27.190 130.922,27.190 130.922,27.190 130.922,26.946 130.922,26.946 130.922,26.946 131.162,27.190 131.162,27.190 131.162,27.190 131.805,27.833 131.805,27.833 131.805,27.833 131.984,27.661 131.984,27.661 131.984,27.661 132.154,27.483 132.154,27.483 132.154,27.483 131.522,26.831 131.522,26.831 131.522,26.831 130.922,26.233 130.922,26.233 130.922,26.233 130.922,25.891 130.922,25.891 130.922,25.891 131.219,25.594 131.219,25.594 131.219,25.594 131.041,25.415 131.041,25.415 131.041,25.415 130.922,25.301 130.922,25.301 130.922,25.301 130.922,25.057 130.922,25.057 130.922,25.057 131.162,25.301 131.162,25.301 131.162,25.301 131.805,25.944 131.805,25.944 131.805,25.944 131.984,25.774 131.984,25.774 131.984,25.774 132.154,25.594 132.154,25.594 132.154,25.594 Z M 137.422,25.016 C 138.676,25.016 138.676,25.016 138.676,25.016 138.676,25.714 138.676,25.714 138.676,25.714 139.266,25.714 139.266,25.714 139.266,25.714 139.266,40.440 139.266,40.440 139.266,40.440 138.676,40.440 138.676,40.440 138.676,40.440 138.676,41.325 138.676,41.325 138.676,41.325 137.422,41.325 137.422,41.325 137.422,41.325 Z M 249.205,25.036 C 249.346,25.036 249.346,25.036 249.346,25.036 249.346,41.528 249.346,41.528 249.346,41.528 248.842,41.528 248.842,41.528 248.842,41.528 248.842,25.356 248.842,25.356 248.842,25.356 249.020,25.358 249.020,25.358 249.020,25.358 Z M 250.346,25.036 C 250.877,25.036 250.877,25.036 250.877,25.036 251.139,25.301 251.139,25.301 251.139,25.301 251.779,25.944 251.779,25.944 251.779,25.944 251.949,25.774 251.949,25.774 251.949,25.774 252.129,25.594 252.129,25.594 252.129,25.594 251.576,25.036 251.576,25.036 251.576,25.036 252.764,25.036 252.764,25.036 252.764,25.036 253.025,25.301 253.025,25.301 253.025,25.301 253.658,25.944 253.658,25.944 253.658,25.944 253.838,25.774 253.838,25.774 253.838,25.774 254.018,25.594 254.018,25.594 254.018,25.594 253.465,25.036 253.465,25.036 253.465,25.036 254.647,25.036 254.647,25.036 254.647,25.036 254.904,25.301 254.904,25.301 254.904,25.301 255.547,25.944 255.547,25.944 255.547,25.944 255.725,25.774 255.725,25.774 255.725,25.774 255.904,25.594 255.904,25.594 255.904,25.594 255.354,25.036 255.354,25.036 255.354,25.036 256.531,25.036 256.531,25.036 256.531,25.036 256.793,25.301 256.793,25.301 256.793,25.301 257.193,25.704 257.193,25.704 257.193,25.704 257.193,26.440 257.193,26.440 257.193,26.440 257.104,26.530 257.104,26.530 257.104,26.530 257.193,26.635 257.193,26.635 257.193,26.635 257.193,26.876 257.193,26.876 257.193,26.876 257.150,26.831 257.150,26.831 257.150,26.831 256.510,26.190 256.510,26.190 256.510,26.190 256.330,26.360 256.330,26.360 256.330,26.360 256.150,26.538 256.150,26.538 256.150,26.538 256.793,27.190 256.793,27.190 256.793,27.190 257.193,27.592 257.193,27.592 257.193,27.592 257.193,28.327 257.193,28.327 257.193,28.327 257.104,28.417 257.104,28.417 257.104,28.417 257.193,28.522 257.193,28.522 257.193,28.522 257.193,28.764 257.193,28.764 257.193,28.764 257.150,28.719 257.150,28.719 257.150,28.719 256.510,28.077 256.510,28.077 256.510,28.077 256.330,28.247 256.330,28.247 256.330,28.247 256.150,28.426 256.150,28.426 256.150,28.426 256.793,29.077 256.793,29.077 256.793,29.077 257.193,29.479 257.193,29.479 257.193,29.479 257.193,30.216 257.193,30.216 257.193,30.216 257.104,30.305 257.104,30.305 257.104,30.305 257.193,30.411 257.193,30.411 257.193,30.411 257.193,30.653 257.193,30.653 257.193,30.653 257.150,30.608 257.150,30.608 257.150,30.608 256.510,29.966 256.510,29.966 256.510,29.966 256.330,30.135 256.330,30.135 256.330,30.135 256.150,30.315 256.150,30.315 256.150,30.315 256.793,30.966 256.793,30.966 256.793,30.966 257.193,31.368 257.193,31.368 257.193,31.368 257.193,32.102 257.193,32.102 257.193,32.102 257.104,32.192 257.104,32.192 257.104,32.192 257.193,32.298 257.193,32.298 257.193,32.298 257.193,32.540 257.193,32.540 257.193,32.540 257.150,32.495 257.150,32.495 257.150,32.495 256.510,31.852 256.510,31.852 256.510,31.852 256.330,32.022 256.330,32.022 256.330,32.022 256.150,32.202 256.150,32.202 256.150,32.202 256.793,32.854 256.793,32.854 256.793,32.854 257.193,33.255 257.193,33.255 257.193,33.255 257.193,33.991 257.193,33.991 257.193,33.991 257.104,34.081 257.104,34.081 257.104,34.081 257.193,34.186 257.193,34.186 257.193,34.186 257.193,34.428 257.193,34.428 257.193,34.428 257.150,34.384 257.150,34.384 257.150,34.384 256.510,33.741 256.510,33.741 256.510,33.741 256.330,33.911 256.330,33.911 256.330,33.911 256.150,34.091 256.150,34.091 256.150,34.091 256.793,34.741 256.793,34.741 256.793,34.741 257.193,35.143 257.193,35.143 257.193,35.143 257.193,35.880 257.193,35.880 257.193,35.880 257.104,35.969 257.104,35.969 257.104,35.969 257.193,36.075 257.193,36.075 257.193,36.075 257.193,36.315 257.193,36.315 257.193,36.315 257.150,36.270 257.150,36.270 257.150,36.270 256.510,35.630 256.510,35.630 256.510,35.630 256.330,35.800 256.330,35.800 256.330,35.800 256.150,35.979 256.150,35.979 256.150,35.979 256.793,36.630 256.793,36.630 256.793,36.630 257.193,37.032 257.193,37.032 257.193,37.032 257.193,37.766 257.193,37.766 257.193,37.766 257.104,37.856 257.104,37.856 257.104,37.856 257.193,37.962 257.193,37.962 257.193,37.962 257.193,38.204 257.193,38.204 257.193,38.204 257.150,38.159 257.150,38.159 257.150,38.159 256.510,37.516 256.510,37.516 256.510,37.516 256.330,37.686 256.330,37.686 256.330,37.686 256.150,37.866 256.150,37.866 256.150,37.866 256.793,38.518 256.793,38.518 256.793,38.518 257.193,38.919 257.193,38.919 257.193,38.919 257.193,39.655 257.193,39.655 257.193,39.655 257.104,39.745 257.104,39.745 257.104,39.745 257.193,39.850 257.193,39.850 257.193,39.850 257.193,40.092 257.193,40.092 257.193,40.092 257.150,40.048 257.150,40.048 257.150,40.048 256.510,39.405 256.510,39.405 256.510,39.405 256.330,39.575 256.330,39.575 256.330,39.575 256.150,39.755 256.150,39.755 256.150,39.755 256.793,40.405 256.793,40.405 256.793,40.405 257.193,40.807 257.193,40.807 257.193,40.807 257.193,41.528 257.193,41.528 257.193,41.528 256.744,41.528 256.744,41.528 256.744,41.528 256.510,41.294 256.510,41.294 256.510,41.294 256.330,41.464 256.330,41.464 256.330,41.464 256.266,41.528 256.266,41.528 256.266,41.528 256.018,41.528 256.018,41.528 256.018,41.528 256.188,41.358 256.188,41.358 256.188,41.358 256.850,40.698 256.850,40.698 256.850,40.698 256.670,40.518 256.670,40.518 256.670,40.518 256.490,40.348 256.490,40.348 256.490,40.348 255.857,40.991 255.857,40.991 255.857,40.991 255.328,41.528 255.328,41.528 255.328,41.528 254.856,41.528 254.856,41.528 254.856,41.528 254.621,41.294 254.621,41.294 254.621,41.294 254.441,41.464 254.441,41.464 254.441,41.464 254.379,41.528 254.379,41.528 254.379,41.528 254.137,41.528 254.137,41.528 254.137,41.528 254.309,41.358 254.309,41.358 254.309,41.358 254.961,40.698 254.961,40.698 254.961,40.698 254.781,40.518 254.781,40.518 254.781,40.518 254.602,40.348 254.602,40.348 254.602,40.348 253.969,40.991 253.969,40.991 253.969,40.991 253.441,41.528 253.441,41.528 253.441,41.528 252.967,41.528 252.967,41.528 252.967,41.528 252.732,41.294 252.732,41.294 252.732,41.294 252.563,41.464 252.563,41.464 252.563,41.464 252.498,41.528 252.498,41.528 252.498,41.528 252.252,41.528 252.252,41.528 252.252,41.528 252.422,41.358 252.422,41.358 252.422,41.358 253.072,40.698 253.072,40.698 253.072,40.698 252.893,40.518 252.893,40.518 252.893,40.518 252.715,40.348 252.715,40.348 252.715,40.348 252.082,40.991 252.082,40.991 252.082,40.991 251.553,41.528 251.553,41.528 251.553,41.528 251.080,41.528 251.080,41.528 251.080,41.528 250.846,41.294 250.846,41.294 250.846,41.294 250.676,41.464 250.676,41.464 250.676,41.464 250.611,41.528 250.611,41.528 250.611,41.528 250.363,41.528 250.363,41.528 250.363,41.528 250.533,41.358 250.533,41.358 250.533,41.358 251.186,40.698 251.186,40.698 251.186,40.698 251.016,40.518 251.016,40.518 251.016,40.518 250.836,40.348 250.836,40.348 250.836,40.348 250.346,40.846 250.346,40.846 250.346,40.846 250.346,39.659 250.346,39.659 250.346,39.659 250.533,39.471 250.533,39.471 250.533,39.471 251.186,38.809 251.186,38.809 251.186,38.809 251.016,38.632 251.016,38.632 251.016,38.632 250.836,38.462 250.836,38.462 250.836,38.462 250.346,38.958 250.346,38.958 250.346,38.958 250.346,37.770 250.346,37.770 250.346,37.770 250.533,37.583 250.533,37.583 250.533,37.583 251.186,36.923 251.186,36.923 251.186,36.923 251.016,36.743 251.016,36.743 251.016,36.743 250.836,36.573 250.836,36.573 250.836,36.573 250.346,37.071 250.346,37.071 250.346,37.071 250.346,35.884 250.346,35.884 250.346,35.884 250.533,35.696 250.533,35.696 250.533,35.696 251.186,35.034 251.186,35.034 251.186,35.034 251.016,34.854 251.016,34.854 251.016,34.854 250.836,34.684 250.836,34.684 250.836,34.684 250.346,35.182 250.346,35.182 250.346,35.182 250.346,33.995 250.346,33.995 250.346,33.995 250.533,33.807 250.533,33.807 250.533,33.807 251.186,33.147 251.186,33.147 251.186,33.147 251.016,32.967 251.016,32.967 251.016,32.967 250.836,32.798 250.836,32.798 250.836,32.798 250.346,33.294 250.346,33.294 250.346,33.294 250.346,32.106 250.346,32.106 250.346,32.106 250.533,31.919 250.533,31.919 250.533,31.919 251.186,31.259 251.186,31.259 251.186,31.259 251.016,31.079 251.016,31.079 251.016,31.079 250.836,30.909 250.836,30.909 250.836,30.909 250.346,31.407 250.346,31.407 250.346,31.407 250.346,30.219 250.346,30.219 250.346,30.219 250.533,30.032 250.533,30.032 250.533,30.032 251.186,29.370 251.186,29.370 251.186,29.370 251.016,29.192 251.016,29.192 251.016,29.192 250.836,29.020 250.836,29.020 250.836,29.020 250.346,29.518 250.346,29.518 250.346,29.518 250.346,28.331 250.346,28.331 250.346,28.331 250.533,28.143 250.533,28.143 250.533,28.143 251.186,27.483 251.186,27.483 251.186,27.483 251.016,27.303 251.016,27.303 251.016,27.303 250.836,27.134 250.836,27.134 250.836,27.134 250.346,27.632 250.346,27.632 250.346,27.632 250.346,26.442 250.346,26.442 250.346,26.442 250.533,26.255 250.533,26.255 250.533,26.255 251.186,25.594 251.186,25.594 251.186,25.594 251.016,25.415 251.016,25.415 251.016,25.415 250.836,25.245 250.836,25.245 250.836,25.245 250.346,25.743 250.346,25.743 250.346,25.743 Z M 127.965,25.128 C 127.965,41.214 127.965,41.214 127.965,41.214 127.010,40.501 127.010,40.501 127.010,40.501 127.010,35.983 127.010,35.983 127.010,35.983 127.010,30.358 127.010,30.358 127.010,30.358 127.010,25.841 127.010,25.841 127.010,25.841 Z M 132.748,25.245 C 132.117,25.887 132.117,25.887 132.117,25.887 131.475,26.530 131.475,26.530 131.475,26.530 131.635,26.717 131.635,26.717 131.635,26.717 131.795,26.907 131.795,26.907 131.795,26.907 132.447,26.255 132.447,26.255 132.447,26.255 133.098,25.594 133.098,25.594 133.098,25.594 132.928,25.415 132.928,25.415 132.928,25.415 Z M 134.627,25.245 C 133.994,25.887 133.994,25.887 133.994,25.887 133.363,26.530 133.363,26.530 133.363,26.530 133.523,26.717 133.523,26.717 133.523,26.717 133.684,26.907 133.684,26.907 133.684,26.907 134.334,26.255 134.334,26.255 134.334,26.255 134.986,25.594 134.986,25.594 134.986,25.594 134.807,25.415 134.807,25.415 134.807,25.415 Z M 252.715,25.245 C 252.082,25.887 252.082,25.887 252.082,25.887 251.449,26.530 251.449,26.530 251.449,26.530 251.609,26.717 251.609,26.717 251.609,26.717 251.770,26.907 251.770,26.907 251.770,26.907 252.422,26.255 252.422,26.255 252.422,26.255 253.072,25.594 253.072,25.594 253.072,25.594 252.893,25.415 252.893,25.415 252.893,25.415 Z M 254.602,25.245 C 253.969,25.887 253.969,25.887 253.969,25.887 253.338,26.530 253.338,26.530 253.338,26.530 253.498,26.717 253.498,26.717 253.498,26.717 253.648,26.907 253.648,26.907 253.648,26.907 254.309,26.255 254.309,26.255 254.309,26.255 254.961,25.594 254.961,25.594 254.961,25.594 254.781,25.415 254.781,25.415 254.781,25.415 Z M 256.490,25.245 C 255.857,25.887 255.857,25.887 255.857,25.887 255.225,26.530 255.225,26.530 255.225,26.530 255.377,26.717 255.377,26.717 255.377,26.717 255.537,26.907 255.537,26.907 255.537,26.907 256.188,26.255 256.188,26.255 256.188,26.255 256.850,25.594 256.850,25.594 256.850,25.594 256.670,25.415 256.670,25.415 256.670,25.415 Z M 258.193,25.323 C 262.553,27.057 262.553,27.057 262.553,27.057 262.553,31.514 262.553,31.514 262.553,31.514 262.553,35.050 262.553,35.050 262.553,35.050 262.553,39.507 262.553,39.507 262.553,39.507 258.193,41.241 258.193,41.241 258.193,41.241 Z M 194.922,25.727 C 195.512,25.727 195.512,25.727 195.512,25.727 195.512,25.733 195.512,25.733 195.512,25.733 214.490,25.848 214.490,25.848 214.490,25.848 214.490,25.852 214.490,25.852 214.490,25.852 215.998,25.852 215.998,25.852 215.998,25.852 215.914,27.846 215.914,27.846 215.914,27.846 194.922,27.747 194.922,27.747 194.922,27.747 Z M 132.758,26.190 C 132.588,26.360 132.588,26.360 132.588,26.360 132.408,26.538 132.408,26.538 132.408,26.538 133.051,27.190 133.051,27.190 133.051,27.190 133.693,27.833 133.693,27.833 133.693,27.833 133.863,27.661 133.863,27.661 133.863,27.661 134.043,27.483 134.043,27.483 134.043,27.483 133.400,26.831 133.400,26.831 133.400,26.831 Z M 134.647,26.190 C 134.477,26.360 134.477,26.360 134.477,26.360 134.297,26.538 134.297,26.538 134.297,26.538 134.940,27.190 134.940,27.190 134.940,27.190 135.570,27.833 135.570,27.833 135.570,27.833 135.750,27.661 135.750,27.661 135.750,27.661 135.930,27.483 135.930,27.483 135.930,27.483 135.287,26.831 135.287,26.831 135.287,26.831 Z M 250.846,26.190 C 250.676,26.360 250.676,26.360 250.676,26.360 250.496,26.538 250.496,26.538 250.496,26.538 251.139,27.190 251.139,27.190 251.139,27.190 251.779,27.833 251.779,27.833 251.779,27.833 251.949,27.661 251.949,27.661 251.949,27.661 252.129,27.483 252.129,27.483 252.129,27.483 251.486,26.831 251.486,26.831 251.486,26.831 Z M 252.732,26.190 C 252.563,26.360 252.563,26.360 252.563,26.360 252.383,26.538 252.383,26.538 252.383,26.538 253.025,27.190 253.025,27.190 253.025,27.190 253.658,27.833 253.658,27.833 253.658,27.833 253.838,27.661 253.838,27.661 253.838,27.661 254.018,27.483 254.018,27.483 254.018,27.483 253.375,26.831 253.375,26.831 253.375,26.831 Z M 254.621,26.190 C 254.441,26.360 254.441,26.360 254.441,26.360 254.272,26.538 254.272,26.538 254.272,26.538 254.904,27.190 254.904,27.190 254.904,27.190 255.547,27.833 255.547,27.833 255.547,27.833 255.725,27.661 255.725,27.661 255.725,27.661 255.904,27.483 255.904,27.483 255.904,27.483 255.264,26.831 255.264,26.831 255.264,26.831 Z M 132.748,27.134 C 132.117,27.776 132.117,27.776 132.117,27.776 131.475,28.417 131.475,28.417 131.475,28.417 131.635,28.606 131.635,28.606 131.635,28.606 131.795,28.794 131.795,28.794 131.795,28.794 132.447,28.143 132.447,28.143 132.447,28.143 133.098,27.483 133.098,27.483 133.098,27.483 132.928,27.303 132.928,27.303 132.928,27.303 Z M 134.627,27.134 C 133.994,27.776 133.994,27.776 133.994,27.776 133.363,28.417 133.363,28.417 133.363,28.417 133.523,28.606 133.523,28.606 133.523,28.606 133.684,28.794 133.684,28.794 133.684,28.794 134.334,28.143 134.334,28.143 134.334,28.143 134.986,27.483 134.986,27.483 134.986,27.483 134.807,27.303 134.807,27.303 134.807,27.303 Z M 252.715,27.134 C 252.082,27.776 252.082,27.776 252.082,27.776 251.449,28.417 251.449,28.417 251.449,28.417 251.609,28.606 251.609,28.606 251.609,28.606 251.770,28.794 251.770,28.794 251.770,28.794 252.422,28.143 252.422,28.143 252.422,28.143 253.072,27.483 253.072,27.483 253.072,27.483 252.893,27.303 252.893,27.303 252.893,27.303 Z M 254.602,27.134 C 253.969,27.776 253.969,27.776 253.969,27.776 253.338,28.417 253.338,28.417 253.338,28.417 253.498,28.606 253.498,28.606 253.498,28.606 253.648,28.794 253.648,28.794 253.648,28.794 254.309,28.143 254.309,28.143 254.309,28.143 254.961,27.483 254.961,27.483 254.961,27.483 254.781,27.303 254.781,27.303 254.781,27.303 Z M 256.490,27.134 C 255.857,27.776 255.857,27.776 255.857,27.776 255.225,28.417 255.225,28.417 255.225,28.417 255.377,28.606 255.377,28.606 255.377,28.606 255.537,28.794 255.537,28.794 255.537,28.794 256.188,28.143 256.188,28.143 256.188,28.143 256.850,27.483 256.850,27.483 256.850,27.483 256.670,27.303 256.670,27.303 256.670,27.303 Z M 132.758,28.077 C 132.588,28.247 132.588,28.247 132.588,28.247 132.408,28.426 132.408,28.426 132.408,28.426 133.051,29.077 133.051,29.077 133.051,29.077 133.693,29.719 133.693,29.719 133.693,29.719 133.863,29.550 133.863,29.550 133.863,29.550 134.043,29.370 134.043,29.370 134.043,29.370 133.400,28.719 133.400,28.719 133.400,28.719 Z M 134.647,28.077 C 134.477,28.247 134.477,28.247 134.477,28.247 134.297,28.426 134.297,28.426 134.297,28.426 134.940,29.077 134.940,29.077 134.940,29.077 135.570,29.719 135.570,29.719 135.570,29.719 135.750,29.550 135.750,29.550 135.750,29.550 135.930,29.370 135.930,29.370 135.930,29.370 135.287,28.719 135.287,28.719 135.287,28.719 Z M 250.846,28.077 C 250.676,28.247 250.676,28.247 250.676,28.247 250.496,28.426 250.496,28.426 250.496,28.426 251.139,29.077 251.139,29.077 251.139,29.077 251.779,29.719 251.779,29.719 251.779,29.719 251.949,29.550 251.949,29.550 251.949,29.550 252.129,29.370 252.129,29.370 252.129,29.370 251.486,28.719 251.486,28.719 251.486,28.719 Z M 252.732,28.077 C 252.563,28.247 252.563,28.247 252.563,28.247 252.383,28.426 252.383,28.426 252.383,28.426 253.025,29.077 253.025,29.077 253.025,29.077 253.658,29.719 253.658,29.719 253.658,29.719 253.838,29.550 253.838,29.550 253.838,29.550 254.018,29.370 254.018,29.370 254.018,29.370 253.375,28.719 253.375,28.719 253.375,28.719 Z M 254.621,28.077 C 254.441,28.247 254.441,28.247 254.441,28.247 254.272,28.426 254.272,28.426 254.272,28.426 254.904,29.077 254.904,29.077 254.904,29.077 255.547,29.719 255.547,29.719 255.547,29.719 255.725,29.550 255.725,29.550 255.725,29.550 255.904,29.370 255.904,29.370 255.904,29.370 255.264,28.719 255.264,28.719 255.264,28.719 Z M 132.748,29.020 C 132.117,29.663 132.117,29.663 132.117,29.663 131.475,30.305 131.475,30.305 131.475,30.305 131.635,30.493 131.635,30.493 131.635,30.493 131.795,30.682 131.795,30.682 131.795,30.682 132.447,30.032 132.447,30.032 132.447,30.032 133.098,29.370 133.098,29.370 133.098,29.370 132.928,29.192 132.928,29.192 132.928,29.192 Z M 134.627,29.020 C 133.994,29.663 133.994,29.663 133.994,29.663 133.363,30.305 133.363,30.305 133.363,30.305 133.523,30.493 133.523,30.493 133.523,30.493 133.684,30.682 133.684,30.682 133.684,30.682 134.334,30.032 134.334,30.032 134.334,30.032 134.986,29.370 134.986,29.370 134.986,29.370 134.807,29.192 134.807,29.192 134.807,29.192 Z M 252.715,29.020 C 252.082,29.663 252.082,29.663 252.082,29.663 251.449,30.305 251.449,30.305 251.449,30.305 251.609,30.493 251.609,30.493 251.609,30.493 251.770,30.682 251.770,30.682 251.770,30.682 252.422,30.032 252.422,30.032 252.422,30.032 253.072,29.370 253.072,29.370 253.072,29.370 252.893,29.192 252.893,29.192 252.893,29.192 Z M 254.602,29.020 C 253.969,29.663 253.969,29.663 253.969,29.663 253.338,30.305 253.338,30.305 253.338,30.305 253.498,30.493 253.498,30.493 253.498,30.493 253.648,30.682 253.648,30.682 253.648,30.682 254.309,30.032 254.309,30.032 254.309,30.032 254.961,29.370 254.961,29.370 254.961,29.370 254.781,29.192 254.781,29.192 254.781,29.192 Z M 256.490,29.020 C 255.857,29.663 255.857,29.663 255.857,29.663 255.225,30.305 255.225,30.305 255.225,30.305 255.377,30.493 255.377,30.493 255.377,30.493 255.537,30.682 255.537,30.682 255.537,30.682 256.188,30.032 256.188,30.032 256.188,30.032 256.850,29.370 256.850,29.370 256.850,29.370 256.670,29.192 256.670,29.192 256.670,29.192 Z M 132.758,29.966 C 132.588,30.135 132.588,30.135 132.588,30.135 132.408,30.315 132.408,30.315 132.408,30.315 133.051,30.966 133.051,30.966 133.051,30.966 133.693,31.608 133.693,31.608 133.693,31.608 133.863,31.438 133.863,31.438 133.863,31.438 134.043,31.259 134.043,31.259 134.043,31.259 133.400,30.608 133.400,30.608 133.400,30.608 Z M 134.647,29.966 C 134.477,30.135 134.477,30.135 134.477,30.135 134.297,30.315 134.297,30.315 134.297,30.315 134.940,30.966 134.940,30.966 134.940,30.966 135.570,31.608 135.570,31.608 135.570,31.608 135.750,31.438 135.750,31.438 135.750,31.438 135.930,31.259 135.930,31.259 135.930,31.259 135.287,30.608 135.287,30.608 135.287,30.608 Z M 250.846,29.966 C 250.676,30.135 250.676,30.135 250.676,30.135 250.496,30.315 250.496,30.315 250.496,30.315 251.139,30.966 251.139,30.966 251.139,30.966 251.779,31.608 251.779,31.608 251.779,31.608 251.949,31.438 251.949,31.438 251.949,31.438 252.129,31.259 252.129,31.259 252.129,31.259 251.486,30.608 251.486,30.608 251.486,30.608 Z M 252.732,29.966 C 252.563,30.135 252.563,30.135 252.563,30.135 252.383,30.315 252.383,30.315 252.383,30.315 253.025,30.966 253.025,30.966 253.025,30.966 253.658,31.608 253.658,31.608 253.658,31.608 253.838,31.438 253.838,31.438 253.838,31.438 254.018,31.259 254.018,31.259 254.018,31.259 253.375,30.608 253.375,30.608 253.375,30.608 Z M 254.621,29.966 C 254.441,30.135 254.441,30.135 254.441,30.135 254.272,30.315 254.272,30.315 254.272,30.315 254.904,30.966 254.904,30.966 254.904,30.966 255.547,31.608 255.547,31.608 255.547,31.608 255.725,31.438 255.725,31.438 255.725,31.438 255.904,31.259 255.904,31.259 255.904,31.259 255.264,30.608 255.264,30.608 255.264,30.608 Z M 132.748,30.909 C 132.117,31.551 132.117,31.551 132.117,31.551 131.475,32.192 131.475,32.192 131.475,32.192 131.635,32.382 131.635,32.382 131.635,32.382 131.795,32.571 131.795,32.571 131.795,32.571 132.447,31.919 132.447,31.919 132.447,31.919 133.098,31.259 133.098,31.259 133.098,31.259 132.928,31.079 132.928,31.079 132.928,31.079 Z M 134.627,30.909 C 133.994,31.551 133.994,31.551 133.994,31.551 133.363,32.192 133.363,32.192 133.363,32.192 133.523,32.382 133.523,32.382 133.523,32.382 133.684,32.571 133.684,32.571 133.684,32.571 134.334,31.919 134.334,31.919 134.334,31.919 134.986,31.259 134.986,31.259 134.986,31.259 134.807,31.079 134.807,31.079 134.807,31.079 Z M 252.715,30.909 C 252.082,31.551 252.082,31.551 252.082,31.551 251.449,32.192 251.449,32.192 251.449,32.192 251.609,32.382 251.609,32.382 251.609,32.382 251.770,32.571 251.770,32.571 251.770,32.571 252.422,31.919 252.422,31.919 252.422,31.919 253.072,31.259 253.072,31.259 253.072,31.259 252.893,31.079 252.893,31.079 252.893,31.079 Z M 254.602,30.909 C 253.969,31.551 253.969,31.551 253.969,31.551 253.338,32.192 253.338,32.192 253.338,32.192 253.498,32.382 253.498,32.382 253.498,32.382 253.648,32.571 253.648,32.571 253.648,32.571 254.309,31.919 254.309,31.919 254.309,31.919 254.961,31.259 254.961,31.259 254.961,31.259 254.781,31.079 254.781,31.079 254.781,31.079 Z M 256.490,30.909 C 255.857,31.551 255.857,31.551 255.857,31.551 255.225,32.192 255.225,32.192 255.225,32.192 255.377,32.382 255.377,32.382 255.377,32.382 255.537,32.571 255.537,32.571 255.537,32.571 256.188,31.919 256.188,31.919 256.188,31.919 256.850,31.259 256.850,31.259 256.850,31.259 256.670,31.079 256.670,31.079 256.670,31.079 Z M 132.758,31.852 C 132.588,32.022 132.588,32.022 132.588,32.022 132.408,32.202 132.408,32.202 132.408,32.202 133.051,32.854 133.051,32.854 133.051,32.854 133.693,33.495 133.693,33.495 133.693,33.495 133.863,33.325 133.863,33.325 133.863,33.325 134.043,33.147 134.043,33.147 134.043,33.147 133.400,32.495 133.400,32.495 133.400,32.495 Z M 134.647,31.852 C 134.477,32.022 134.477,32.022 134.477,32.022 134.297,32.202 134.297,32.202 134.297,32.202 134.940,32.854 134.940,32.854 134.940,32.854 135.570,33.495 135.570,33.495 135.570,33.495 135.750,33.325 135.750,33.325 135.750,33.325 135.930,33.147 135.930,33.147 135.930,33.147 135.287,32.495 135.287,32.495 135.287,32.495 Z M 250.846,31.852 C 250.676,32.022 250.676,32.022 250.676,32.022 250.496,32.202 250.496,32.202 250.496,32.202 251.139,32.854 251.139,32.854 251.139,32.854 251.779,33.495 251.779,33.495 251.779,33.495 251.949,33.325 251.949,33.325 251.949,33.325 252.129,33.147 252.129,33.147 252.129,33.147 251.486,32.495 251.486,32.495 251.486,32.495 Z M 252.732,31.852 C 252.563,32.022 252.563,32.022 252.563,32.022 252.383,32.202 252.383,32.202 252.383,32.202 253.025,32.854 253.025,32.854 253.025,32.854 253.658,33.495 253.658,33.495 253.658,33.495 253.838,33.325 253.838,33.325 253.838,33.325 254.018,33.147 254.018,33.147 254.018,33.147 253.375,32.495 253.375,32.495 253.375,32.495 Z M 254.621,31.852 C 254.441,32.022 254.441,32.022 254.441,32.022 254.272,32.202 254.272,32.202 254.272,32.202 254.904,32.854 254.904,32.854 254.904,32.854 255.547,33.495 255.547,33.495 255.547,33.495 255.725,33.325 255.725,33.325 255.725,33.325 255.904,33.147 255.904,33.147 255.904,33.147 255.264,32.495 255.264,32.495 255.264,32.495 Z M 132.748,32.798 C 132.117,33.438 132.117,33.438 132.117,33.438 131.475,34.081 131.475,34.081 131.475,34.081 131.635,34.270 131.635,34.270 131.635,34.270 131.795,34.458 131.795,34.458 131.795,34.458 132.447,33.807 132.447,33.807 132.447,33.807 133.098,33.147 133.098,33.147 133.098,33.147 132.928,32.967 132.928,32.967 132.928,32.967 Z M 134.627,32.798 C 133.994,33.438 133.994,33.438 133.994,33.438 133.363,34.081 133.363,34.081 133.363,34.081 133.523,34.270 133.523,34.270 133.523,34.270 133.684,34.458 133.684,34.458 133.684,34.458 134.334,33.807 134.334,33.807 134.334,33.807 134.986,33.147 134.986,33.147 134.986,33.147 134.807,32.967 134.807,32.967 134.807,32.967 Z M 252.715,32.798 C 252.082,33.438 252.082,33.438 252.082,33.438 251.449,34.081 251.449,34.081 251.449,34.081 251.609,34.270 251.609,34.270 251.609,34.270 251.770,34.458 251.770,34.458 251.770,34.458 252.422,33.807 252.422,33.807 252.422,33.807 253.072,33.147 253.072,33.147 253.072,33.147 252.893,32.967 252.893,32.967 252.893,32.967 Z M 254.602,32.798 C 253.969,33.438 253.969,33.438 253.969,33.438 253.338,34.081 253.338,34.081 253.338,34.081 253.498,34.270 253.498,34.270 253.498,34.270 253.648,34.458 253.648,34.458 253.648,34.458 254.309,33.807 254.309,33.807 254.309,33.807 254.961,33.147 254.961,33.147 254.961,33.147 254.781,32.967 254.781,32.967 254.781,32.967 Z M 256.490,32.798 C 255.857,33.438 255.857,33.438 255.857,33.438 255.225,34.081 255.225,34.081 255.225,34.081 255.377,34.270 255.377,34.270 255.377,34.270 255.537,34.458 255.537,34.458 255.537,34.458 256.188,33.807 256.188,33.807 256.188,33.807 256.850,33.147 256.850,33.147 256.850,33.147 256.670,32.967 256.670,32.967 256.670,32.967 Z M 220.154,33.555 C 224.973,35.996 238.851,36.299 245.584,33.708 Z M 132.758,33.741 C 132.588,33.911 132.588,33.911 132.588,33.911 132.408,34.091 132.408,34.091 132.408,34.091 133.051,34.741 133.051,34.741 133.051,34.741 133.693,35.384 133.693,35.384 133.693,35.384 133.863,35.214 133.863,35.214 133.863,35.214 134.043,35.034 134.043,35.034 134.043,35.034 133.400,34.384 133.400,34.384 133.400,34.384 Z M 134.647,33.741 C 134.477,33.911 134.477,33.911 134.477,33.911 134.297,34.091 134.297,34.091 134.297,34.091 134.940,34.741 134.940,34.741 134.940,34.741 135.570,35.384 135.570,35.384 135.570,35.384 135.750,35.214 135.750,35.214 135.750,35.214 135.930,35.034 135.930,35.034 135.930,35.034 135.287,34.384 135.287,34.384 135.287,34.384 Z M 250.846,33.741 C 250.676,33.911 250.676,33.911 250.676,33.911 250.496,34.091 250.496,34.091 250.496,34.091 251.139,34.741 251.139,34.741 251.139,34.741 251.779,35.384 251.779,35.384 251.779,35.384 251.949,35.214 251.949,35.214 251.949,35.214 252.129,35.034 252.129,35.034 252.129,35.034 251.486,34.384 251.486,34.384 251.486,34.384 Z M 252.732,33.741 C 252.563,33.911 252.563,33.911 252.563,33.911 252.383,34.091 252.383,34.091 252.383,34.091 253.025,34.741 253.025,34.741 253.025,34.741 253.658,35.384 253.658,35.384 253.658,35.384 253.838,35.214 253.838,35.214 253.838,35.214 254.018,35.034 254.018,35.034 254.018,35.034 253.375,34.384 253.375,34.384 253.375,34.384 Z M 254.621,33.741 C 254.441,33.911 254.441,33.911 254.441,33.911 254.272,34.091 254.272,34.091 254.272,34.091 254.904,34.741 254.904,34.741 254.904,34.741 255.547,35.384 255.547,35.384 255.547,35.384 255.725,35.214 255.725,35.214 255.725,35.214 255.904,35.034 255.904,35.034 255.904,35.034 255.264,34.384 255.264,34.384 255.264,34.384 Z M 132.748,34.684 C 132.117,35.327 132.117,35.327 132.117,35.327 131.475,35.969 131.475,35.969 131.475,35.969 131.635,36.157 131.635,36.157 131.635,36.157 131.795,36.346 131.795,36.346 131.795,36.346 132.447,35.696 132.447,35.696 132.447,35.696 133.098,35.034 133.098,35.034 133.098,35.034 132.928,34.854 132.928,34.854 132.928,34.854 Z M 134.627,34.684 C 133.994,35.327 133.994,35.327 133.994,35.327 133.363,35.969 133.363,35.969 133.363,35.969 133.523,36.157 133.523,36.157 133.523,36.157 133.684,36.346 133.684,36.346 133.684,36.346 134.334,35.696 134.334,35.696 134.334,35.696 134.986,35.034 134.986,35.034 134.986,35.034 134.807,34.854 134.807,34.854 134.807,34.854 Z M 252.715,34.684 C 252.082,35.327 252.082,35.327 252.082,35.327 251.449,35.969 251.449,35.969 251.449,35.969 251.609,36.157 251.609,36.157 251.609,36.157 251.770,36.346 251.770,36.346 251.770,36.346 252.422,35.696 252.422,35.696 252.422,35.696 253.072,35.034 253.072,35.034 253.072,35.034 252.893,34.854 252.893,34.854 252.893,34.854 Z M 254.602,34.684 C 253.969,35.327 253.969,35.327 253.969,35.327 253.338,35.969 253.338,35.969 253.338,35.969 253.498,36.157 253.498,36.157 253.498,36.157 253.648,36.346 253.648,36.346 253.648,36.346 254.309,35.696 254.309,35.696 254.309,35.696 254.961,35.034 254.961,35.034 254.961,35.034 254.781,34.854 254.781,34.854 254.781,34.854 Z M 256.490,34.684 C 255.857,35.327 255.857,35.327 255.857,35.327 255.225,35.969 255.225,35.969 255.225,35.969 255.377,36.157 255.377,36.157 255.377,36.157 255.537,36.346 255.537,36.346 255.537,36.346 256.188,35.696 256.188,35.696 256.188,35.696 256.850,35.034 256.850,35.034 256.850,35.034 256.670,34.854 256.670,34.854 256.670,34.854 Z M 132.758,35.630 C 132.588,35.800 132.588,35.800 132.588,35.800 132.408,35.979 132.408,35.979 132.408,35.979 133.051,36.630 133.051,36.630 133.051,36.630 133.693,37.272 133.693,37.272 133.693,37.272 133.863,37.102 133.863,37.102 133.863,37.102 134.043,36.923 134.043,36.923 134.043,36.923 133.400,36.270 133.400,36.270 133.400,36.270 Z M 134.647,35.630 C 134.477,35.800 134.477,35.800 134.477,35.800 134.297,35.979 134.297,35.979 134.297,35.979 134.940,36.630 134.940,36.630 134.940,36.630 135.570,37.272 135.570,37.272 135.570,37.272 135.750,37.102 135.750,37.102 135.750,37.102 135.930,36.923 135.930,36.923 135.930,36.923 135.287,36.270 135.287,36.270 135.287,36.270 Z M 250.846,35.630 C 250.676,35.800 250.676,35.800 250.676,35.800 250.496,35.979 250.496,35.979 250.496,35.979 251.139,36.630 251.139,36.630 251.139,36.630 251.779,37.272 251.779,37.272 251.779,37.272 251.949,37.102 251.949,37.102 251.949,37.102 252.129,36.923 252.129,36.923 252.129,36.923 251.486,36.270 251.486,36.270 251.486,36.270 Z M 252.732,35.630 C 252.563,35.800 252.563,35.800 252.563,35.800 252.383,35.979 252.383,35.979 252.383,35.979 253.025,36.630 253.025,36.630 253.025,36.630 253.658,37.272 253.658,37.272 253.658,37.272 253.838,37.102 253.838,37.102 253.838,37.102 254.018,36.923 254.018,36.923 254.018,36.923 253.375,36.270 253.375,36.270 253.375,36.270 Z M 254.621,35.630 C 254.441,35.800 254.441,35.800 254.441,35.800 254.272,35.979 254.272,35.979 254.272,35.979 254.904,36.630 254.904,36.630 254.904,36.630 255.547,37.272 255.547,37.272 255.547,37.272 255.725,37.102 255.725,37.102 255.725,37.102 255.904,36.923 255.904,36.923 255.904,36.923 255.264,36.270 255.264,36.270 255.264,36.270 Z M 132.748,36.573 C 132.117,37.216 132.117,37.216 132.117,37.216 131.475,37.856 131.475,37.856 131.475,37.856 131.635,38.046 131.635,38.046 131.635,38.046 131.795,38.235 131.795,38.235 131.795,38.235 132.447,37.583 132.447,37.583 132.447,37.583 133.098,36.923 133.098,36.923 133.098,36.923 132.928,36.743 132.928,36.743 132.928,36.743 Z M 134.627,36.573 C 133.994,37.216 133.994,37.216 133.994,37.216 133.363,37.856 133.363,37.856 133.363,37.856 133.523,38.046 133.523,38.046 133.523,38.046 133.684,38.235 133.684,38.235 133.684,38.235 134.334,37.583 134.334,37.583 134.334,37.583 134.986,36.923 134.986,36.923 134.986,36.923 134.807,36.743 134.807,36.743 134.807,36.743 Z M 252.715,36.573 C 252.082,37.216 252.082,37.216 252.082,37.216 251.449,37.856 251.449,37.856 251.449,37.856 251.609,38.046 251.609,38.046 251.609,38.046 251.770,38.235 251.770,38.235 251.770,38.235 252.422,37.583 252.422,37.583 252.422,37.583 253.072,36.923 253.072,36.923 253.072,36.923 252.893,36.743 252.893,36.743 252.893,36.743 Z M 254.602,36.573 C 253.969,37.216 253.969,37.216 253.969,37.216 253.338,37.856 253.338,37.856 253.338,37.856 253.498,38.046 253.498,38.046 253.498,38.046 253.648,38.235 253.648,38.235 253.648,38.235 254.309,37.583 254.309,37.583 254.309,37.583 254.961,36.923 254.961,36.923 254.961,36.923 254.781,36.743 254.781,36.743 254.781,36.743 Z M 256.490,36.573 C 255.857,37.216 255.857,37.216 255.857,37.216 255.225,37.856 255.225,37.856 255.225,37.856 255.377,38.046 255.377,38.046 255.377,38.046 255.537,38.235 255.537,38.235 255.537,38.235 256.188,37.583 256.188,37.583 256.188,37.583 256.850,36.923 256.850,36.923 256.850,36.923 256.670,36.743 256.670,36.743 256.670,36.743 Z M 132.758,37.516 C 132.588,37.686 132.588,37.686 132.588,37.686 132.408,37.866 132.408,37.866 132.408,37.866 133.051,38.518 133.051,38.518 133.051,38.518 133.693,39.159 133.693,39.159 133.693,39.159 133.863,38.989 133.863,38.989 133.863,38.989 134.043,38.809 134.043,38.809 134.043,38.809 133.400,38.159 133.400,38.159 133.400,38.159 Z M 134.647,37.516 C 134.477,37.686 134.477,37.686 134.477,37.686 134.297,37.866 134.297,37.866 134.297,37.866 134.940,38.518 134.940,38.518 134.940,38.518 135.570,39.159 135.570,39.159 135.570,39.159 135.750,38.989 135.750,38.989 135.750,38.989 135.930,38.809 135.930,38.809 135.930,38.809 135.287,38.159 135.287,38.159 135.287,38.159 Z M 250.846,37.516 C 250.676,37.686 250.676,37.686 250.676,37.686 250.496,37.866 250.496,37.866 250.496,37.866 251.139,38.518 251.139,38.518 251.139,38.518 251.779,39.159 251.779,39.159 251.779,39.159 251.949,38.989 251.949,38.989 251.949,38.989 252.129,38.809 252.129,38.809 252.129,38.809 251.486,38.159 251.486,38.159 251.486,38.159 Z M 252.732,37.516 C 252.563,37.686 252.563,37.686 252.563,37.686 252.383,37.866 252.383,37.866 252.383,37.866 253.025,38.518 253.025,38.518 253.025,38.518 253.658,39.159 253.658,39.159 253.658,39.159 253.838,38.989 253.838,38.989 253.838,38.989 254.018,38.809 254.018,38.809 254.018,38.809 253.375,38.159 253.375,38.159 253.375,38.159 Z M 254.621,37.516 C 254.441,37.686 254.441,37.686 254.441,37.686 254.272,37.866 254.272,37.866 254.272,37.866 254.904,38.518 254.904,38.518 254.904,38.518 255.547,39.159 255.547,39.159 255.547,39.159 255.725,38.989 255.725,38.989 255.725,38.989 255.904,38.809 255.904,38.809 255.904,38.809 255.264,38.159 255.264,38.159 255.264,38.159 Z M 225.650,37.915 C 244.172,37.915 244.172,37.915 244.172,37.915 244.256,37.915 244.256,37.915 244.256,37.915 244.583,37.915 244.563,37.978 244.602,38.061 244.640,38.145 244.641,38.251 244.641,38.251 244.639,38.274 244.639,38.274 244.639,38.274 244.639,39.311 244.639,39.311 244.639,39.311 245.893,39.311 245.893,39.311 245.893,39.311 246.023,39.466 246.023,39.466 246.023,39.466 246.361,48.577 246.361,48.577 246.361,48.577 246.365,48.577 246.365,48.577 246.365,48.577 246.365,63.378 246.365,63.378 246.365,63.378 230.381,63.378 230.381,63.378 230.381,63.378 230.381,50.870 230.381,50.870 230.381,50.870 229.787,50.870 229.787,50.870 229.787,50.870 229.776,50.245 229.702,49.717 229.604,49.317 229.447,48.683 229.228,48.307 229.227,48.305 229.225,48.303 229.225,48.303 229.225,48.303 224.106,39.684 224.106,39.684 224.106,39.684 224.092,39.108 224.092,39.108 224.092,39.108 224.781,39.108 224.781,39.108 224.781,39.108 225.268,39.108 225.268,39.108 225.268,39.108 225.268,38.274 225.268,38.274 225.268,38.274 225.266,38.251 225.266,38.251 225.266,38.251 225.266,38.251 225.267,38.145 225.305,38.061 225.343,37.978 225.324,37.915 225.650,37.915 Z M 132.748,38.462 C 132.117,39.102 132.117,39.102 132.117,39.102 131.475,39.745 131.475,39.745 131.475,39.745 131.635,39.934 131.635,39.934 131.635,39.934 131.795,40.122 131.795,40.122 131.795,40.122 132.447,39.471 132.447,39.471 132.447,39.471 133.098,38.809 133.098,38.809 133.098,38.809 132.928,38.632 132.928,38.632 132.928,38.632 Z M 134.627,38.462 C 133.994,39.102 133.994,39.102 133.994,39.102 133.363,39.745 133.363,39.745 133.363,39.745 133.523,39.934 133.523,39.934 133.523,39.934 133.684,40.122 133.684,40.122 133.684,40.122 134.334,39.471 134.334,39.471 134.334,39.471 134.986,38.809 134.986,38.809 134.986,38.809 134.807,38.632 134.807,38.632 134.807,38.632 Z M 252.715,38.462 C 252.082,39.102 252.082,39.102 252.082,39.102 251.449,39.745 251.449,39.745 251.449,39.745 251.609,39.934 251.609,39.934 251.609,39.934 251.770,40.122 251.770,40.122 251.770,40.122 252.422,39.471 252.422,39.471 252.422,39.471 253.072,38.809 253.072,38.809 253.072,38.809 252.893,38.632 252.893,38.632 252.893,38.632 Z M 254.602,38.462 C 253.969,39.102 253.969,39.102 253.969,39.102 253.338,39.745 253.338,39.745 253.338,39.745 253.498,39.934 253.498,39.934 253.498,39.934 253.648,40.122 253.648,40.122 253.648,40.122 254.309,39.471 254.309,39.471 254.309,39.471 254.961,38.809 254.961,38.809 254.961,38.809 254.781,38.632 254.781,38.632 254.781,38.632 Z M 256.490,38.462 C 255.857,39.102 255.857,39.102 255.857,39.102 255.225,39.745 255.225,39.745 255.225,39.745 255.377,39.934 255.377,39.934 255.377,39.934 255.537,40.122 255.537,40.122 255.537,40.122 256.188,39.471 256.188,39.471 256.188,39.471 256.850,38.809 256.850,38.809 256.850,38.809 256.670,38.632 256.670,38.632 256.670,38.632 Z M 140.266,39.108 C 223.092,39.108 223.092,39.108 223.092,39.108 223.113,39.969 223.113,39.969 223.113,39.969 228.367,48.817 228.367,48.817 228.367,48.817 228.369,48.819 228.369,48.819 228.369,48.819 228.369,48.819 228.503,49.032 228.633,49.557 228.714,49.884 228.777,50.330 228.787,50.870 207.922,50.870 207.922,50.870 207.922,50.870 206.856,49.449 205.352,49.077 205.352,49.077 205.232,49.051 205.232,49.051 205.232,49.051 201.422,49.051 201.422,49.051 201.422,49.051 201.422,42.889 201.422,42.889 201.422,42.889 201.422,42.889 201.429,42.307 201.143,41.706 200.857,41.105 200.175,40.452 199.078,40.452 189.016,40.452 189.016,40.452 189.016,40.452 164.141,40.452 164.141,40.452 164.141,40.452 163.044,40.452 162.362,41.105 162.076,41.706 161.790,42.307 161.797,42.889 161.797,42.889 161.797,50.782 161.797,50.782 161.797,50.782 160.047,50.782 160.047,50.782 160.047,50.782 160.047,44.979 160.047,44.979 160.047,44.979 141.684,44.979 141.684,44.979 141.684,44.979 141.684,40.440 141.684,40.440 141.684,40.440 140.266,40.440 140.266,40.440 140.266,40.440 Z M 132.758,39.405 C 132.588,39.575 132.588,39.575 132.588,39.575 132.408,39.755 132.408,39.755 132.408,39.755 133.051,40.405 133.051,40.405 133.051,40.405 133.693,41.048 133.693,41.048 133.693,41.048 133.863,40.878 133.863,40.878 133.863,40.878 134.043,40.698 134.043,40.698 134.043,40.698 133.400,40.048 133.400,40.048 133.400,40.048 Z M 134.647,39.405 C 134.477,39.575 134.477,39.575 134.477,39.575 134.297,39.755 134.297,39.755 134.297,39.755 134.940,40.405 134.940,40.405 134.940,40.405 135.570,41.048 135.570,41.048 135.570,41.048 135.750,40.878 135.750,40.878 135.750,40.878 135.930,40.698 135.930,40.698 135.930,40.698 135.287,40.048 135.287,40.048 135.287,40.048 Z M 250.846,39.405 C 250.676,39.575 250.676,39.575 250.676,39.575 250.496,39.755 250.496,39.755 250.496,39.755 251.139,40.405 251.139,40.405 251.139,40.405 251.779,41.048 251.779,41.048 251.779,41.048 251.949,40.878 251.949,40.878 251.949,40.878 252.129,40.698 252.129,40.698 252.129,40.698 251.486,40.048 251.486,40.048 251.486,40.048 Z M 252.732,39.405 C 252.563,39.575 252.563,39.575 252.563,39.575 252.383,39.755 252.383,39.755 252.383,39.755 253.025,40.405 253.025,40.405 253.025,40.405 253.658,41.048 253.658,41.048 253.658,41.048 253.838,40.878 253.838,40.878 253.838,40.878 254.018,40.698 254.018,40.698 254.018,40.698 253.375,40.048 253.375,40.048 253.375,40.048 Z M 254.621,39.405 C 254.441,39.575 254.441,39.575 254.441,39.575 254.272,39.755 254.272,39.755 254.272,39.755 254.904,40.405 254.904,40.405 254.904,40.405 255.547,41.048 255.547,41.048 255.547,41.048 255.725,40.878 255.725,40.878 255.725,40.878 255.904,40.698 255.904,40.698 255.904,40.698 255.264,40.048 255.264,40.048 255.264,40.048 Z M 208.356,40.739 C 207.122,40.739 206.107,41.754 206.107,42.987 206.107,44.220 207.122,45.235 208.356,45.235 213.082,45.235 213.082,45.235 213.082,45.235 214.315,45.235 215.330,44.220 215.330,42.987 215.330,41.754 214.315,40.739 213.082,40.739 Z M 148.371,41.059 C 147.797,41.088 147.346,41.560 147.346,42.141 147.346,42.741 147.828,43.223 148.428,43.223 149.028,43.223 149.510,42.741 149.510,42.141 149.510,41.541 149.028,41.059 148.428,41.059 148.409,41.059 148.390,41.058 148.371,41.059 Z M 136.422,41.157 C 136.422,41.325 136.422,41.325 136.422,41.325 136.256,41.325 136.256,41.325 136.256,41.325 Z M 164.141,41.452 C 189.016,41.452 189.016,41.452 189.016,41.452 199.078,41.452 199.078,41.452 199.078,41.452 199.825,41.452 200.065,41.768 200.240,42.135 200.415,42.503 200.422,42.889 200.422,42.889 200.422,49.051 200.422,49.051 200.422,49.051 186.922,49.051 186.922,49.051 186.922,49.051 185.488,49.051 184.438,49.751 183.967,50.489 183.496,51.227 183.490,51.995 183.490,51.995 183.490,52.005 183.490,52.005 183.490,52.005 183.490,66.272 183.490,66.272 183.490,66.272 173.063,82.850 173.063,82.850 173.063,82.850 173.184,83.329 173.184,83.329 173.184,83.329 173.184,83.329 173.800,85.951 173.318,88.134 173.077,89.225 172.612,90.127 171.754,90.704 170.905,91.275 169.533,91.605 167.227,91.196 155.094,86.602 155.094,86.602 155.094,86.602 155.055,86.582 154.253,86.156 153.711,85.040 153.156,83.896 152.849,82.045 154.623,78.827 158.425,71.931 163.373,62.915 163.373,62.915 163.389,62.889 163.389,62.889 163.389,62.889 163.400,62.864 163.400,62.864 163.400,62.864 163.400,62.864 166.268,57.184 164.988,51.673 164.781,50.782 164.781,50.782 164.781,50.782 162.797,50.782 162.797,50.782 162.797,50.782 162.797,42.889 162.797,42.889 162.797,42.889 162.797,42.889 162.804,42.503 162.979,42.135 163.153,41.768 163.394,41.452 164.141,41.452 Z M 208.356,42.116 C 213.082,42.116 213.082,42.116 213.082,42.116 213.576,42.116 213.951,42.493 213.951,42.987 213.951,43.481 213.576,43.856 213.082,43.856 208.356,43.856 208.356,43.856 208.356,43.856 207.861,43.856 207.486,43.481 207.486,42.987 207.486,42.493 207.861,42.116 208.356,42.116 Z M 221.291,42.899 C 219.426,42.899 217.904,44.423 217.904,46.288 217.904,48.153 219.426,49.675 221.291,49.675 223.156,49.675 224.680,48.153 224.680,46.288 224.680,44.423 223.156,42.899 221.291,42.899 Z M 221.291,44.276 C 222.417,44.276 223.303,45.162 223.303,46.288 223.303,47.414 222.417,48.298 221.291,48.298 220.165,48.298 219.281,47.414 219.281,46.288 219.281,45.162 220.165,44.276 221.291,44.276 Z M 233.549,45.967 C 233.549,60.594 233.549,60.594 233.549,60.594 234.549,60.594 234.549,60.594 234.549,60.594 234.549,45.967 234.549,45.967 234.549,45.967 Z M 242.387,45.967 C 242.387,60.594 242.387,60.594 242.387,60.594 243.387,60.594 243.387,60.594 243.387,60.594 243.387,45.967 243.387,45.967 243.387,45.967 Z M 141.684,45.979 C 159.047,45.979 159.047,45.979 159.047,45.979 159.047,50.782 159.047,50.782 159.047,50.782 158.565,50.782 158.565,50.782 158.565,50.782 158.565,51.958 158.565,51.958 158.565,51.958 138.123,51.958 138.123,51.958 138.123,51.958 138.100,51.960 138.100,51.960 138.100,51.960 138.100,51.960 137.931,51.954 137.781,51.897 137.632,51.841 137.639,51.930 137.607,51.692 137.551,51.268 137.529,49.594 137.551,48.182 137.564,47.359 137.575,47.127 137.590,46.630 141.684,46.630 141.684,46.630 141.684,46.630 Z M 152.781,46.993 C 151.999,46.993 151.356,47.634 151.356,48.417 151.356,49.199 151.999,49.842 152.781,49.842 153.564,49.842 154.205,49.199 154.205,48.417 154.205,47.634 153.564,46.993 152.781,46.993 Z M 148.428,47.114 C 147.706,47.114 147.125,47.694 147.125,48.417 147.125,49.139 147.706,49.721 148.428,49.721 149.150,49.721 149.732,49.139 149.732,48.417 149.732,47.694 149.150,47.114 148.428,47.114 Z M 156.891,47.114 C 156.168,47.114 155.588,47.694 155.588,48.417 155.588,49.139 156.168,49.721 156.891,49.721 157.613,49.721 158.195,49.139 158.195,48.417 158.195,47.694 157.613,47.114 156.891,47.114 Z M 139.748,47.257 C 138.965,47.257 138.322,47.900 138.322,48.682 138.322,49.465 138.965,50.108 139.748,50.108 140.531,50.108 141.174,49.465 141.174,48.682 141.174,47.900 140.531,47.257 139.748,47.257 Z M 152.781,47.784 C 153.139,47.784 153.414,48.059 153.414,48.417 153.414,48.774 153.139,49.050 152.781,49.050 152.424,49.050 152.148,48.774 152.148,48.417 152.148,48.059 152.424,47.784 152.781,47.784 Z M 139.748,48.050 C 140.106,48.050 140.381,48.325 140.381,48.682 140.381,49.040 140.106,49.315 139.748,49.315 139.390,49.315 139.115,49.040 139.115,48.682 139.115,48.325 139.390,48.050 139.748,48.050 Z M 186.922,51.352 C 192.822,51.352 192.822,51.352 192.822,51.352 192.176,52.249 191.481,53.416 190.994,54.794 189.994,57.625 190.005,61.462 193.008,65.233 185.965,65.233 185.965,65.233 185.965,65.233 185.789,65.260 185.789,65.260 185.789,65.260 185.789,52.034 185.789,52.034 185.789,52.034 185.789,52.034 185.799,51.895 185.906,51.727 186.014,51.559 186.106,51.352 186.922,51.352 Z M 195.805,51.352 C 204.928,51.352 204.928,51.352 204.928,51.352 205.022,51.370 205.829,51.540 206.361,52.719 206.453,53.763 206.568,56.284 205.842,58.801 205.371,60.435 204.562,62.008 203.219,63.180 201.876,64.353 199.980,65.182 197.082,65.233 196.129,65.233 196.129,65.233 196.129,65.233 192.139,61.468 192.234,58.185 193.162,55.559 193.895,53.486 195.238,51.943 195.805,51.352 Z M 174.039,55.528 C 172.941,55.528 172.057,56.412 172.057,57.510 172.057,58.609 172.941,59.493 174.039,59.493 175.137,59.493 176.022,58.609 176.022,57.510 176.022,56.412 175.137,55.528 174.039,55.528 Z M 162.725,79.171 C 161.626,79.171 160.742,80.055 160.742,81.153 160.742,82.251 161.626,83.135 162.725,83.135 163.823,83.135 164.707,82.251 164.707,81.153 164.707,80.055 163.823,79.171 162.725,79.171 Z " />
</svg>