<?xml version="1.0" encoding="UTF-8" standalone="no"?>
<!DOCTYPE svg PUBLIC "-//W3C//DTD SVG 20010904//EN" "http://www.w3.org/TR/2001/REC-SVG-20010904/DTD/svg10.dtd"[]>
<svg version="1.1" id="Frosty Editor v1.0.6.3" xmlns="http://www.w3.org/2000/svg" d1p1:xlink="http://www.w3.org/1999/xlink" viewBox="0 0 384 96" xmlns:d1p1="xmlns">
  <path stroke="none" fill="#ffffffff" d="M 265.849,17.219 C 265.849,16.241 265.849,16.241 265.849,16.241 256.424,16.241 256.424,16.241 256.424,16.241 248.502,23.960 248.502,23.960 248.502,23.960 241.384,23.960 241.384,23.960 241.384,23.960 239.261,25.612 239.261,25.612 239.261,25.612 227.354,25.612 227.354,25.612 227.354,25.612 227.354,28.275 227.354,28.275 227.354,28.275 222.484,28.275 222.484,28.275 222.484,28.275 220.916,28.275 220.318,27.661 220.313,27.661 220.312,27.661 220.313,27.661 220.313,27.661 219.863,27.061 219.863,27.061 219.863,27.061 210.838,27.061 210.838,27.061 210.838,27.061 210.838,25.308 210.838,25.308 210.838,25.308 197.827,25.308 197.827,25.308 197.827,25.308 197.827,26.724 197.827,26.724 197.827,26.724 190.714,26.724 190.714,26.724 190.714,26.724 190.714,27.297 190.714,27.297 190.714,27.297 181.380,27.297 181.380,27.297 181.380,27.297 180.504,28.173 180.504,28.173 180.504,28.173 169.176,28.173 169.176,28.173 169.176,28.173 168.366,26.985 168.366,26.985 168.366,26.985 168.366,23.723 168.366,23.723 168.366,23.723 158.485,23.723 158.485,23.723 158.485,23.723 158.223,24.896 158.223,24.896 158.223,24.896 157.877,26.444 157.011,27.132 156.637,27.364 129.738,27.364 129.738,27.364 129.738,27.364 129.738,29.050 129.738,29.050 129.738,29.050 127.078,29.050 127.078,29.050 127.078,29.050 126.673,29.454 126.673,29.454 126.673,29.454 120.874,29.454 120.874,29.454 120.874,29.454 120.874,29.451 120.874,29.451 120.874,29.451 118.874,29.451 118.874,29.451 118.874,29.451 118.874,41.514 118.874,41.514 118.874,41.514 113.276,42.996 109.558,45.046 109.323,45.178 103.156,48.932 95.300,49.930 94.563,50.017 92.437,50.066 76.663,50.433 74.886,50.707 73.185,50.968 71.862,52.364 71.716,52.523 71.426,52.838 71.426,52.838 71.426,52.838 71.347,53.260 71.347,53.260 71.347,53.260 71.220,53.941 68.322,70.015 76.697,77.436 79.385,79.818 82.879,81.010 87.142,81.010 90.142,81.010 93.525,80.419 97.273,79.237 98.084,78.979 98.084,78.979 98.084,78.979 98.281,78.153 98.281,78.153 98.281,78.153 98.297,78.085 99.946,71.333 103.772,69.129 106.839,67.363 118.547,63.727 125.873,61.589 125.025,69.296 126.522,70.145 127.191,70.525 127.437,70.665 127.812,70.811 128.282,70.801 130.244,75.017 135.657,78.060 142.027,78.060 147.626,78.060 152.487,75.709 154.916,72.278 154.916,72.583 154.916,72.583 154.916,72.583 154.950,72.899 154.950,72.899 154.950,72.899 155.313,74.581 156.221,75.898 157.575,76.708 158.825,77.456 160.264,77.675 161.518,77.675 163.102,77.675 164.392,77.326 164.640,77.255 190.862,69.286 190.862,69.286 190.862,69.286 195.779,68.288 197.291,64.657 197.399,62.912 197.865,57.863 197.865,57.863 197.865,57.863 198.020,57.857 198.173,57.859 198.328,57.854 198.328,58.651 198.328,58.651 198.328,58.651 198.328,60.224 199.607,61.504 201.180,61.504 202.753,61.504 204.033,60.225 204.033,58.651 204.033,57.934 204.033,57.934 204.033,57.934 205.584,58.031 207.144,58.183 208.714,58.403 217.695,59.218 220.185,55.058 220.439,54.581 220.616,54.250 220.616,54.250 220.616,54.250 220.616,40.889 220.616,40.889 220.616,40.889 220.946,40.701 221.540,40.477 222.487,40.477 227.357,40.477 227.357,40.477 227.357,40.477 227.357,43.140 227.357,43.140 227.357,43.140 239.264,43.140 239.264,43.140 239.264,43.140 241.387,44.791 241.387,44.791 241.387,44.791 248.505,44.791 248.505,44.791 248.505,44.791 256.427,52.511 256.427,52.511 256.427,52.511 265.852,52.511 265.852,52.511 265.852,52.511 265.852,51.533 265.852,51.533 265.852,51.533 307.548,51.533 307.548,51.533 307.548,51.533 307.548,36.483 307.548,36.483 307.548,36.483 307.548,32.270 307.548,32.270 307.548,32.270 307.548,17.220 307.548,17.220 307.548,17.220 265.849,17.220 265.849,17.220 265.849,17.220 Z M 249.862,26.824 C 256.284,20.567 256.284,20.567 256.284,20.567 256.284,48.186 256.284,48.186 256.284,48.186 249.862,41.928 249.862,41.928 249.862,41.928 249.862,26.824 249.862,26.824 249.862,26.824 Z M 218.362,30.062 C 218.362,35.953 218.362,35.953 218.362,35.953 217.374,34.092 215.762,33.923 215.624,33.913 210.087,33.913 210.087,33.913 210.087,33.913 210.087,30.062 210.087,30.062 210.087,30.062 218.362,30.062 218.362,30.062 218.362,30.062 Z M 200.826,28.309 C 207.837,28.309 207.837,28.309 207.837,28.309 207.837,30.062 207.837,30.062 207.837,30.062 208.587,30.062 208.587,30.062 208.587,30.062 208.587,33.913 208.587,33.913 208.587,33.913 200.130,33.913 200.130,33.913 200.130,33.913 200.076,33.985 200.076,33.985 200.076,33.985 200.076,32.371 200.076,32.371 200.076,32.371 200.809,32.371 200.809,32.371 200.809,32.371 201.439,32.371 201.955,31.855 201.955,31.225 201.955,30.595 201.439,30.079 200.809,30.079 200.076,30.079 200.076,30.079 200.076,30.079 200.076,29.725 200.076,29.725 200.076,29.725 200.826,29.725 200.826,29.725 200.826,29.725 200.826,28.309 200.826,28.309 200.826,28.309 Z M 152.893,34.478 C 157.645,34.478 157.645,34.478 157.645,34.478 157.645,37.604 157.645,37.604 157.645,37.604 152.893,37.604 152.893,37.604 152.893,37.604 152.893,34.478 152.893,34.478 152.893,34.478 Z M 168.164,34.478 C 192.340,34.478 192.340,34.478 192.340,34.478 192.340,35.344 192.340,35.344 192.340,35.344 168.164,35.344 168.164,35.344 168.164,35.344 168.164,34.478 168.164,34.478 168.164,34.478 Z M 168.677,39.897 C 169.481,39.897 170.135,40.550 170.135,41.354 170.135,42.033 169.666,42.601 169.036,42.761 159.796,42.761 159.796,42.761 159.796,42.761 159.796,39.897 159.796,39.897 159.796,39.897 168.677,39.897 168.677,39.897 168.677,39.897 Z M 170.037,38.857 C 180.663,39.171 180.663,39.171 180.663,39.171 171.618,39.447 171.618,39.447 171.618,39.447 171.618,42.761 171.618,42.761 171.618,42.761 171.149,42.761 171.149,42.761 171.149,42.761 171.388,42.344 171.535,41.868 171.535,41.354 171.535,40.273 170.924,39.342 170.037,38.857 Z M 195.623,38.113 C 168.164,37.302 168.164,37.302 168.164,37.302 168.164,36.845 168.164,36.845 168.164,36.845 197.464,36.845 197.464,36.845 197.464,36.845 196.780,37.420 196.154,37.829 195.623,38.113 Z M 193.714,29.725 C 198.576,29.725 198.576,29.725 198.576,29.725 198.576,35.344 198.576,35.344 198.576,35.344 193.840,35.344 193.840,35.344 193.840,35.344 193.840,30.374 193.840,30.374 193.840,30.374 192.896,30.374 192.896,30.374 192.896,30.374 192.896,30.298 192.896,30.298 192.896,30.298 193.714,30.298 193.714,30.298 193.714,30.298 193.714,29.725 193.714,29.725 193.714,29.725 Z M 181.745,31.174 C 182.621,30.298 182.621,30.298 182.621,30.298 191.396,30.298 191.396,30.298 191.396,30.298 191.396,31.874 191.396,31.874 191.396,31.874 192.340,31.874 192.340,31.874 192.340,31.874 192.340,32.978 192.340,32.978 192.340,32.978 168.164,32.978 168.164,32.978 168.164,32.978 168.164,31.175 168.164,31.175 168.164,31.175 181.745,31.175 181.745,31.175 181.745,31.175 Z M 165.365,26.725 C 165.365,27.450 165.365,27.450 165.365,27.450 165.364,27.450 165.364,27.450 165.364,27.450 165.364,38.497 165.364,38.497 165.364,38.497 160.445,38.497 160.445,38.497 160.445,38.497 160.445,27.473 160.445,27.473 160.445,27.473 160.570,27.239 160.686,26.990 160.791,26.725 165.365,26.725 165.365,26.725 165.365,26.725 Z M 157.262,30.365 C 157.518,30.268 157.518,30.268 157.518,30.268 157.557,30.253 157.604,30.229 157.645,30.211 157.645,32.977 157.645,32.977 157.645,32.977 152.893,32.977 152.893,32.977 152.893,32.977 152.143,32.977 152.143,32.977 152.143,32.977 152.109,32.977 152.109,32.977 152.109,32.977 152.109,30.365 152.109,30.365 152.109,30.365 157.262,30.365 157.262,30.365 157.262,30.365 Z M 134.698,30.365 C 150.609,30.365 150.609,30.365 150.609,30.365 150.609,33.357 150.609,33.357 150.609,33.357 134.698,33.357 134.698,33.357 134.698,33.357 134.698,30.365 134.698,30.365 134.698,30.365 Z M 130.754,44.146 C 133.187,44.146 135.166,46.125 135.166,48.558 135.166,50.991 133.187,52.969 130.754,52.969 128.321,52.969 126.342,50.990 126.342,48.558 126.342,47.121 127.045,45.771 128.222,44.944 128.966,44.422 129.842,44.146 130.754,44.146 Z M 126.801,39.599 C 125.508,39.851 125.508,39.851 125.508,39.851 125.490,39.647 125.490,39.647 125.490,39.647 125.468,39.647 125.468,39.647 125.468,39.647 125.468,32.455 125.468,32.455 125.468,32.455 126.170,32.455 126.170,32.455 126.170,32.455 126.801,39.599 126.801,39.599 126.801,39.599 Z M 124.718,39.647 C 123.943,39.647 123.943,39.647 123.943,39.647 123.943,32.455 123.943,32.455 123.943,32.455 124.718,32.455 124.718,32.455 124.718,32.455 124.718,39.647 124.718,39.647 124.718,39.647 Z M 123.192,39.647 C 122.383,39.647 122.383,39.647 122.383,39.647 122.383,32.455 122.383,32.455 122.383,32.455 123.192,32.455 123.192,32.455 123.192,32.455 123.192,39.647 123.192,39.647 123.192,39.647 Z M 125.263,43.301 C 125.812,43.220 125.812,43.220 125.812,43.220 125.644,41.354 125.644,41.354 125.644,41.354 126.934,41.102 126.934,41.102 126.934,41.102 127.078,42.726 127.078,42.726 127.078,42.726 126.982,42.787 126.880,42.834 126.786,42.899 126.276,43.257 125.830,43.683 125.441,44.152 125.263,43.301 125.263,43.301 125.263,43.301 Z M 128.757,62.962 C 128.813,62.307 128.888,61.600 128.983,60.848 129.356,60.778 129.928,60.683 130.748,60.569 129.949,61.294 129.281,62.099 128.757,62.962 Z M 128.316,57.919 C 127.649,54.725 127.649,54.725 127.649,54.725 128.584,55.198 129.637,55.471 130.754,55.471 132.771,55.471 134.582,54.598 135.847,53.216 136.623,56.930 136.623,56.930 136.623,56.930 131.794,57.332 129.386,57.711 128.316,57.919 Z M 133.157,42.086 C 133.262,40.833 133.262,40.833 133.262,40.833 133.557,42.246 133.557,42.246 133.557,42.246 133.426,42.188 133.292,42.136 133.157,42.086 Z M 134.698,38.316 C 134.698,34.857 134.698,34.857 134.698,34.857 151.369,34.857 151.369,34.857 151.369,34.857 151.384,37.604 151.384,37.604 151.384,37.604 141.778,37.604 141.778,37.604 141.778,37.604 138.504,37.711 135.976,38.088 134.698,38.316 Z M 131.486,32.051 C 130.685,41.652 130.685,41.652 130.685,41.652 130.284,41.656 129.891,41.701 129.503,41.772 128.644,32.051 128.644,32.051 128.644,32.051 131.486,32.051 131.486,32.051 131.486,32.051 Z M 121.633,32.455 C 121.633,39.647 121.633,39.647 121.633,39.647 120.872,39.647 120.872,39.647 120.872,39.647 120.872,32.455 120.872,32.455 120.872,32.455 121.633,32.455 121.633,32.455 121.633,32.455 Z M 102.274,66.531 C 98.224,68.863 96.228,74.468 95.591,76.616 87.987,78.871 82.303,78.396 78.690,75.197 72.296,69.539 73.827,56.876 74.219,54.283 74.519,54.034 74.966,53.731 75.342,53.674 76.557,53.486 87.583,53.178 94.698,53.017 94.820,53.009 94.820,53.009 94.820,53.009 95.185,52.970 103.849,52.023 110.833,47.770 110.887,47.740 116.059,44.891 123.286,43.615 124.011,47.086 124.011,47.086 124.011,47.086 123.906,47.566 123.843,48.058 123.843,48.558 123.843,50.070 124.337,51.465 125.163,52.604 126.358,58.327 126.358,58.327 126.358,58.327 122.404,59.471 106.348,64.186 102.274,66.531 Z M 142.026,75.062 C 135.662,75.062 130.484,71.593 130.484,67.331 130.484,63.432 134.820,60.206 140.429,59.682 140.519,60.529 140.378,62.416 138.234,65.178 137.373,66.286 137.017,67.565 137.204,68.874 137.601,71.647 140.266,73.647 140.569,73.866 142.331,71.438 142.331,71.438 142.331,71.438 141.792,71.043 140.353,69.734 140.173,68.442 140.102,67.939 140.239,67.486 140.604,67.017 143.114,63.783 143.528,61.234 143.435,59.662 144.542,59.754 145.622,59.955 146.642,60.258 146.778,65.472 146.778,65.472 146.778,65.472 152.199,63.741 152.199,63.741 152.199,63.741 153.071,64.838 153.566,66.065 153.566,67.329 153.567,71.593 148.390,75.062 142.026,75.062 Z M 155.852,64.007 C 155.163,62.434 153.992,61.001 152.431,59.821 156.418,59.860 156.418,59.860 156.418,59.860 155.852,64.007 155.852,64.007 155.852,64.007 Z M 150.551,62.170 C 148.709,62.758 148.709,62.758 148.709,62.758 148.664,61.044 148.664,61.044 148.664,61.044 149.358,61.376 149.989,61.752 150.551,62.170 Z M 163.787,74.379 C 163.041,74.594 160.579,75.010 159.113,74.135 158.509,73.773 158.116,73.208 157.915,72.412 157.915,71.069 157.915,71.069 157.915,71.069 159.443,59.877 159.443,59.877 159.443,59.877 160.982,59.874 162.523,59.853 164.039,59.815 164.886,59.793 165.709,59.758 166.540,59.727 165.064,73.991 165.064,73.991 165.064,73.991 163.787,74.379 163.787,74.379 163.787,74.379 Z M 183.320,68.450 C 167.140,73.361 167.140,73.361 167.140,73.361 168.559,59.648 168.559,59.648 168.559,59.648 173.035,59.430 178.694,58.890 182.486,58.527 183.194,58.459 183.828,58.398 184.365,58.348 183.320,68.450 183.320,68.450 183.320,68.450 Z M 190.206,66.359 C 185.396,67.819 185.396,67.819 185.396,67.819 186.393,58.188 186.393,58.188 186.393,58.188 189.162,57.972 191.989,57.842 194.857,57.798 194.408,62.662 194.408,62.662 194.408,62.662 194.382,62.961 194.032,65.609 190.206,66.359 Z M 201.178,59.505 C 200.708,59.505 200.326,59.122 200.326,58.652 200.326,58.222 200.650,57.881 201.064,57.823 201.148,57.824 201.232,57.827 201.316,57.828 201.717,57.897 202.030,58.231 202.030,58.652 202.030,59.122 201.647,59.505 201.178,59.505 Z M 217.612,53.383 C 216.990,54.074 214.747,55.945 209.057,55.425 206.238,55.027 203.373,54.822 200.541,54.813 200.541,54.812 200.541,54.812 200.541,54.812 195.102,54.687 189.738,54.852 184.595,55.314 183.965,55.371 183.148,55.450 182.199,55.541 178.313,55.913 172.440,56.475 167.976,56.676 166.660,56.735 165.322,56.782 163.963,56.816 162.044,56.865 160.085,56.886 158.140,56.877 158.081,56.877 158.081,56.877 158.081,56.877 158.081,56.876 158.081,56.876 158.081,56.876 144.324,56.741 144.324,56.741 144.324,56.741 144.324,56.749 144.324,56.749 144.324,56.749 143.565,56.660 142.798,56.599 142.025,56.599 140.865,56.599 139.742,56.711 138.659,56.901 137.348,50.625 137.348,50.625 137.348,50.625 137.553,49.972 137.664,49.279 137.664,48.559 137.664,46.833 137.024,45.256 135.974,44.044 135.082,39.774 135.082,39.774 135.082,39.774 136.346,39.554 138.759,39.204 141.801,39.105 151.391,39.105 151.391,39.105 151.391,39.105 152.141,39.105 152.141,39.105 152.141,39.105 158.293,39.105 158.293,39.105 158.293,39.105 158.293,44.262 158.293,44.262 158.293,44.262 173.116,44.262 173.116,44.262 173.116,44.262 173.116,40.903 173.116,40.903 173.116,40.903 193.970,40.265 193.970,40.265 193.970,40.265 194.111,40.253 197.387,39.917 200.875,35.414 215.543,35.410 215.543,35.410 215.543,35.410 215.614,35.419 217.294,35.663 217.576,38.644 217.610,39.691 217.610,39.691 217.610,39.691 217.610,39.692 217.610,39.692 217.610,39.692 217.610,53.383 217.610,53.383 217.610,53.383 Z M 222.483,37.478 C 221.394,37.478 220.537,37.681 219.862,37.947 219.862,30.811 219.862,30.811 219.862,30.811 220.537,31.076 221.397,31.275 222.483,31.275 228.103,31.275 228.103,31.275 228.103,31.275 228.103,37.477 228.103,37.477 228.103,37.477 222.483,37.477 222.483,37.477 222.483,37.477 Z M 230.354,40.141 C 230.354,37.478 230.354,37.478 230.354,37.478 229.604,37.478 229.604,37.478 229.604,37.478 229.604,31.276 229.604,31.276 229.604,31.276 230.354,31.276 230.354,31.276 230.354,31.276 230.354,28.613 230.354,28.613 230.354,28.613 240.202,28.613 240.202,28.613 240.202,28.613 240.202,40.141 240.202,40.141 240.202,40.141 230.354,40.141 230.354,40.141 230.354,40.141 Z M 241.701,41.238 C 241.701,27.514 241.701,27.514 241.701,27.514 242.413,26.960 242.413,26.960 242.413,26.960 248.362,26.960 248.362,26.960 248.362,26.960 248.362,41.792 248.362,41.792 248.362,41.792 242.413,41.792 242.413,41.792 242.413,41.792 241.701,41.238 241.701,41.238 241.701,41.238 Z M 262.849,49.512 C 257.785,49.512 257.785,49.512 257.785,49.512 257.785,19.242 257.785,19.242 257.785,19.242 262.849,19.242 262.849,19.242 262.849,19.242 262.849,20.220 262.849,20.220 262.849,20.220 263.599,20.220 263.599,20.220 263.599,20.220 263.599,48.535 263.599,48.535 263.599,48.535 262.849,48.535 262.849,48.535 262.849,48.535 262.849,49.512 262.849,49.512 262.849,49.512 Z M 265.099,48.534 C 265.099,20.219 265.099,20.219 265.099,20.219 267.981,20.219 267.981,20.219 267.981,20.219 267.981,48.534 267.981,48.534 267.981,48.534 265.099,48.534 265.099,48.534 265.099,48.534 Z M 304.545,36.483 C 304.545,48.534 304.545,48.534 304.545,48.534 269.480,48.534 269.480,48.534 269.480,48.534 269.480,20.219 269.480,20.219 269.480,20.219 304.544,20.219 304.544,20.219 304.544,20.219 304.544,32.269 304.544,32.269 304.544,32.269 304.544,36.483 304.544,36.483 304.544,36.483 Z " />
  <path stroke="none" fill="#ffffffff" d="M 260.691,33.438 C 259.604,33.438 258.720,34.322 258.720,35.409 258.720,36.496 259.604,37.380 260.691,37.380 261.778,37.380 262.662,36.496 262.662,35.409 262.662,34.322 261.778,33.438 260.691,33.438 Z M 260.691,36.379 C 260.156,36.379 259.720,35.943 259.720,35.408 259.720,34.873 260.156,34.437 260.691,34.437 261.226,34.437 261.662,34.873 261.662,35.408 261.662,35.943 261.227,36.379 260.691,36.379 Z " />
  <path stroke="none" fill="#ffffffff" d="M 260.691,19.900 C 259.549,19.900 258.720,20.420 258.720,21.135 258.720,21.850 259.549,22.370 260.691,22.370 261.833,22.370 262.662,21.850 262.662,21.135 262.662,20.420 261.833,19.900 260.691,19.900 Z M 260.691,21.371 C 260.122,21.371 259.774,21.181 259.714,21.181 259.713,21.181 259.711,21.181 259.710,21.181 259.759,21.098 260.108,20.900 260.690,20.900 261.181,20.900 261.507,21.042 261.626,21.135 261.509,21.229 261.183,21.371 260.691,21.371 Z " />
</svg>