<?xml version="1.0" encoding="UTF-8" standalone="no"?>
<!DOCTYPE svg PUBLIC "-//W3C//DTD SVG 20010904//EN" "http://www.w3.org/TR/2001/REC-SVG-20010904/DTD/svg10.dtd"[]>
<svg version="1.1" id="Frosty Editor v1.0.6.3" xmlns="http://www.w3.org/2000/svg" d1p1:xlink="http://www.w3.org/1999/xlink" viewBox="0 0 384 96" xmlns:d1p1="xmlns">
  <path stroke="none" fill="#ffffffff" d="M 291.640,56.600 C 278.393,57.437 265.147,58.273 251.900,59.110 251.857,59.110 251.813,59.110 251.770,59.110 249.496,59.197 247.394,57.901 246.450,55.830 245.720,53.830 247.240,51.740 247.970,50.830 248.234,50.621 248.542,50.474 248.870,50.400 252.703,50.400 256.537,50.400 260.370,50.400 260.503,50.497 260.637,50.593 260.770,50.690 260.770,50.690 260.770,50.690 260.770,50.690 262.070,51.663 263.370,52.637 264.670,53.610 273.507,51.523 282.343,49.437 291.180,47.350 292.537,46.975 293.989,47.189 295.180,47.940 296.069,48.664 296.668,49.682 296.870,50.810 297.070,56.000 292.200,56.510 291.640,56.550 291.640,56.567 291.640,56.583 291.640,56.600 Z M 181.410,53.000 C 181.410,53.000 181.410,53.000 181.410,53.000 166.077,51.490 150.743,49.980 135.410,48.470 136.037,48.350 136.663,48.230 137.290,48.110 138.670,47.680 139.580,46.700 139.500,45.770 139.500,44.360 138.420,43.850 137.300,43.440 136.633,43.210 135.967,42.980 135.300,42.750 154.633,44.670 173.967,46.590 193.300,48.510 197.350,48.587 201.400,48.663 205.450,48.740 205.493,49.323 205.537,49.907 205.580,50.490 218.980,50.490 232.380,50.490 245.780,50.490 244.991,51.584 244.480,52.854 244.290,54.190 227.957,54.190 211.623,54.190 195.290,54.190 190.663,53.793 186.037,53.397 181.410,53.000 Z M 186.230,64.650 C 186.153,64.690 186.077,64.730 186.000,64.770 183.550,66.550 177.140,68.110 177.160,68.110 170.300,69.110 166.980,63.690 165.990,61.700 166.993,61.133 167.997,60.567 169.000,60.000 169.667,60.177 170.333,60.353 171.000,60.530 171.333,61.713 171.667,62.897 172.000,64.080 172.580,64.350 173.160,64.620 173.740,64.890 174.247,65.790 174.753,66.690 175.260,67.590 175.893,67.113 176.527,66.637 177.160,66.160 177.140,66.060 177.120,65.960 177.100,65.860 176.650,63.440 176.000,56.920 178.330,55.770 178.330,55.770 178.330,55.770 178.330,55.770 179.363,55.503 180.397,55.237 181.430,54.970 183.163,55.120 184.897,55.270 186.630,55.420 189.410,63.160 186.250,64.700 186.230,64.700 186.230,64.683 186.230,64.667 186.230,64.650 Z M 173.930,54.770 C 169.247,57.513 164.563,60.257 159.880,63.000 161.567,59.767 163.253,56.533 164.940,53.300 168.493,53.633 172.047,53.967 175.600,54.300 175.043,54.457 174.487,54.613 173.930,54.770 Z M 176.040,65.690 C 175.873,65.813 175.707,65.937 175.540,66.060 175.167,65.393 174.793,64.727 174.420,64.060 173.880,63.810 173.340,63.560 172.800,63.310 172.467,62.090 172.133,60.870 171.800,59.650 171.270,59.510 170.740,59.370 170.210,59.230 171.673,58.370 173.137,57.510 174.600,56.650 175.267,56.480 175.933,56.310 176.600,56.140 175.000,58.920 175.790,64.250 176.000,65.740 176.013,65.723 176.027,65.707 176.040,65.690 Z M 155.630,65.480 C 150.823,72.653 146.017,79.827 141.210,87.000 141.350,88.383 141.490,89.767 141.630,91.150 141.370,92.640 140.890,93.610 140.280,93.910 139.907,94.050 139.493,94.024 139.140,93.840 135.907,91.933 132.673,90.027 129.440,88.120 126.530,86.050 128.330,81.430 128.350,81.380 128.350,81.343 128.350,81.307 128.350,81.270 128.810,79.820 137.000,67.430 142.000,60.000 143.261,58.691 143.936,56.926 143.870,55.110 143.776,54.154 143.331,53.267 142.620,52.620 142.053,52.080 141.487,51.540 140.920,51.000 148.570,51.753 156.220,52.507 163.870,53.260 162.000,56.840 160.130,60.420 158.260,64.000 157.383,64.493 156.507,64.987 155.630,65.480 Z M 102.760,51.160 C 98.317,51.160 93.873,51.160 89.430,51.160 89.430,50.420 89.430,49.680 89.430,48.940 93.873,48.940 98.317,48.940 102.760,48.940 102.760,49.680 102.760,50.420 102.760,51.160 Z M 131.640,48.000 C 131.640,48.000 131.640,48.000 131.640,48.000 130.866,48.027 130.113,47.743 129.549,47.211 128.986,46.680 128.658,45.945 128.640,45.170 128.670,43.739 129.749,42.549 131.170,42.380 133.113,43.030 135.057,43.680 137.000,44.330 138.190,44.770 138.530,45.080 138.540,45.760 138.540,46.170 138.000,46.760 137.080,47.090 135.367,47.423 133.653,47.757 131.940,48.090 131.840,48.060 131.740,48.030 131.640,48.000 Z M 206.520,49.440 C 206.413,48.037 206.307,46.633 206.200,45.230 224.427,45.127 242.653,45.023 260.880,44.920 260.880,46.343 260.880,47.767 260.880,49.190 260.770,49.273 260.660,49.357 260.550,49.440 242.540,49.440 224.530,49.440 206.520,49.440 Z M 86.450,46.940 C 82.590,47.420 78.730,47.900 74.870,48.380 74.583,48.358 74.324,48.203 74.170,47.960 74.807,47.960 75.443,47.960 76.080,47.960 76.902,47.961 77.662,47.522 78.073,46.811 78.485,46.099 78.485,45.221 78.074,44.510 77.662,43.798 76.902,43.359 76.080,43.360 75.387,43.360 74.693,43.360 74.000,43.360 74.000,39.417 74.000,35.473 74.000,31.530 73.999,31.041 74.382,30.637 74.870,30.610 78.687,31.073 82.503,31.537 86.320,32.000 125.547,32.000 164.773,32.000 204.000,32.000 204.093,32.713 204.187,33.427 204.280,34.140 226.787,34.140 249.293,34.140 271.800,34.140 271.800,33.373 271.800,32.607 271.800,31.840 276.327,31.840 280.853,31.840 285.380,31.840 285.380,36.797 285.380,41.753 285.380,46.710 278.610,48.310 271.840,49.910 265.070,51.510 264.047,50.740 263.023,49.970 262.000,49.200 261.940,49.147 261.880,49.093 261.820,49.040 261.820,47.333 261.820,45.627 261.820,43.920 242.900,44.030 223.980,44.140 205.060,44.250 205.123,45.067 205.187,45.883 205.250,46.700 201.290,46.627 197.330,46.553 193.370,46.480 172.757,44.433 152.143,42.387 131.530,40.340 131.530,40.340 131.530,40.340 131.530,40.340 128.851,40.340 126.668,42.491 126.630,45.170 126.633,45.763 126.748,46.350 126.970,46.900 126.693,46.900 126.417,46.900 126.140,46.900 112.910,46.900 99.680,46.900 86.450,46.900 86.450,46.913 86.450,46.927 86.450,46.940 Z M 74.000,44.360 C 74.693,44.360 75.387,44.360 76.080,44.360 76.545,44.360 76.974,44.607 77.207,45.010 77.439,45.412 77.439,45.908 77.207,46.310 76.974,46.713 76.545,46.960 76.080,46.960 75.387,46.960 74.693,46.960 74.000,46.960 74.000,46.093 74.000,45.227 74.000,44.360 Z M 89.540,28.000 C 89.540,27.125 90.007,26.316 90.765,25.878 91.523,25.441 92.457,25.441 93.215,25.878 93.973,26.316 94.440,27.125 94.440,28.000 94.440,28.690 94.440,29.380 94.440,30.070 92.807,30.070 91.173,30.070 89.540,30.070 89.540,29.380 89.540,28.690 89.540,28.000 Z M 100.330,24.680 C 113.933,24.680 127.537,24.680 141.140,24.680 141.140,25.160 141.140,25.640 141.140,26.120 141.807,26.120 142.473,26.120 143.140,26.120 144.761,27.617 147.259,27.617 148.880,26.120 149.587,26.120 150.293,26.120 151.000,26.120 151.000,25.643 151.000,25.167 151.000,24.690 165.290,24.690 179.580,24.690 193.870,24.690 193.870,26.480 193.870,28.270 193.870,30.060 162.693,30.060 131.517,30.060 100.340,30.060 100.337,28.267 100.333,26.473 100.330,24.680 Z M 128.500,18.420 C 124.807,18.420 121.113,18.420 117.420,18.420 117.420,13.323 117.420,8.227 117.420,3.130 121.087,3.130 124.753,3.130 128.420,3.130 132.643,4.313 136.867,5.497 141.090,6.680 141.090,9.710 141.090,12.740 141.090,15.770 136.893,16.653 132.697,17.537 128.500,18.420 Z M 149.000,5.750 C 149.000,7.053 149.000,8.357 149.000,9.660 147.053,9.660 145.107,9.660 143.160,9.660 143.160,8.363 143.160,7.067 143.160,5.770 145.091,5.423 147.067,5.416 149.000,5.750 149.000,5.750 149.000,5.750 149.000,5.750 Z M 151.000,4.660 C 155.780,4.660 160.560,4.660 165.340,4.660 165.340,8.937 165.340,13.213 165.340,17.490 160.560,17.490 155.780,17.490 151.000,17.490 151.000,13.213 151.000,8.937 151.000,4.660 Z M 170.180,12.000 C 170.670,12.230 171.160,12.460 171.650,12.690 171.650,13.070 171.650,13.450 171.650,13.830 171.160,14.057 170.670,14.283 170.180,14.510 169.227,14.510 168.273,14.510 167.320,14.510 167.320,13.673 167.320,12.837 167.320,12.000 168.273,12.000 169.227,12.000 170.180,12.000 Z M 149.000,12.620 C 147.053,12.620 145.107,12.620 143.160,12.620 143.160,11.953 143.160,11.287 143.160,10.620 145.107,10.620 147.053,10.620 149.000,10.620 149.000,11.287 149.000,11.953 149.000,12.620 Z M 148.300,22.940 C 148.300,24.210 147.270,25.240 146.000,25.240 144.730,25.240 143.700,24.210 143.700,22.940 143.700,21.670 144.730,20.640 146.000,20.640 147.264,20.651 148.285,21.676 148.290,22.940 148.293,22.940 148.297,22.940 148.300,22.940 Z M 146.000,18.640 C 144.947,18.643 143.932,19.034 143.150,19.740 143.150,17.700 143.150,15.660 143.150,13.620 145.100,13.620 147.050,13.620 149.000,13.620 149.000,15.700 149.000,17.780 149.000,19.860 148.198,19.076 147.121,18.638 146.000,18.640 146.000,18.640 146.000,18.640 146.000,18.640 Z M 174.000,21.000 C 175.937,21.000 177.873,21.000 179.810,21.000 179.810,21.560 179.810,22.120 179.810,22.680 177.667,22.680 175.523,22.680 173.380,22.680 173.587,22.120 173.793,21.560 174.000,21.000 Z M 183.980,16.750 C 184.140,16.510 184.382,16.336 184.660,16.260 184.890,16.260 185.140,16.460 185.260,16.580 186.467,18.073 187.673,19.567 188.880,21.060 188.880,21.640 188.880,22.220 188.880,22.800 186.190,22.800 183.500,22.800 180.810,22.800 180.810,22.173 180.810,21.547 180.810,20.920 181.867,19.530 182.923,18.140 183.980,16.750 Z M 192.040,22.750 C 191.320,22.750 190.600,22.750 189.880,22.750 189.880,22.167 189.880,21.583 189.880,21.000 190.487,21.000 191.093,21.000 191.700,21.000 191.813,21.583 191.927,22.167 192.040,22.750 Z M 270.850,27.750 C 270.850,29.573 270.850,31.397 270.850,33.220 248.970,33.220 227.090,33.220 205.210,33.220 205.140,32.813 205.070,32.407 205.000,32.000 205.000,30.497 205.000,28.993 205.000,27.490 226.950,27.577 248.900,27.663 270.850,27.750 Z M 278.310,28.000 C 278.312,26.648 279.408,25.554 280.760,25.554 282.112,25.554 283.208,26.648 283.210,28.000 283.210,28.637 283.210,29.273 283.210,29.910 281.577,29.910 279.943,29.910 278.310,29.910 278.310,29.273 278.310,28.637 278.310,28.000 Z M 296.380,46.390 C 294.728,45.285 292.682,44.943 290.760,45.450 289.650,45.713 288.540,45.977 287.430,46.240 287.430,40.790 287.430,35.340 287.430,29.890 286.693,29.890 285.957,29.890 285.220,29.890 285.220,29.260 285.220,28.630 285.220,28.000 285.217,25.544 283.226,23.555 280.770,23.555 278.314,23.555 276.323,25.544 276.320,28.000 276.320,28.637 276.320,29.273 276.320,29.910 275.170,29.910 274.020,29.910 272.870,29.910 272.870,28.517 272.870,27.123 272.870,25.730 249.580,25.647 226.290,25.563 203.000,25.480 203.000,27.003 203.000,28.527 203.000,30.050 200.597,30.050 198.193,30.050 195.790,30.050 195.790,27.597 195.790,25.143 195.790,22.690 195.200,22.690 194.610,22.690 194.020,22.690 193.793,21.460 193.567,20.230 193.340,19.000 192.187,19.000 191.033,19.000 189.880,19.000 188.840,17.717 187.800,16.433 186.760,15.150 186.204,14.476 185.362,14.105 184.490,14.150 183.623,14.276 182.847,14.758 182.350,15.480 181.483,16.653 180.617,17.827 179.750,19.000 177.370,19.000 174.990,19.000 172.610,19.000 172.157,20.227 171.703,21.453 171.250,22.680 164.500,22.680 157.750,22.680 151.000,22.680 151.000,21.617 151.000,20.553 151.000,19.490 156.450,19.490 161.900,19.490 167.350,19.490 167.350,18.510 167.350,17.530 167.350,16.550 168.450,16.550 169.550,16.550 170.650,16.550 171.650,16.080 172.650,15.610 173.650,15.140 173.650,14.880 173.650,14.620 173.650,14.360 174.183,14.360 174.717,14.360 175.250,14.360 175.250,13.620 175.250,12.880 175.250,12.140 174.717,12.140 174.183,12.140 173.650,12.140 173.650,11.910 173.650,11.680 173.650,11.450 172.650,10.980 171.650,10.510 170.650,10.040 169.550,10.040 168.450,10.040 167.350,10.040 167.350,7.580 167.350,5.120 167.350,2.660 161.233,2.660 155.117,2.660 149.000,2.660 149.000,3.013 149.000,3.367 149.000,3.720 146.638,3.359 144.229,3.448 141.900,3.980 141.650,4.043 141.400,4.107 141.150,4.170 141.150,4.313 141.150,4.457 141.150,4.600 137.057,3.457 132.963,2.313 128.870,1.170 124.387,1.170 119.903,1.170 115.420,1.170 115.420,7.587 115.420,14.003 115.420,20.420 119.850,20.420 124.280,20.420 128.710,20.420 132.853,19.550 136.997,18.680 141.140,17.810 141.140,19.433 141.140,21.057 141.140,22.680 126.873,22.680 112.607,22.680 98.340,22.680 98.340,25.137 98.340,27.593 98.340,30.050 97.707,30.050 97.073,30.050 96.440,30.050 96.440,29.367 96.440,28.683 96.440,28.000 96.440,29.590 95.592,31.059 94.215,31.854 92.838,32.649 91.142,32.649 89.765,31.854 88.388,31.059 87.540,29.590 87.540,28.000 87.540,28.690 87.540,29.380 87.540,30.070 87.207,30.070 86.873,30.070 86.540,30.070 82.693,29.587 78.847,29.103 75.000,28.620 74.960,28.620 74.920,28.620 74.880,28.620 73.287,28.642 72.005,29.937 72.000,31.530 72.000,31.903 72.000,32.277 72.000,32.650 71.640,32.650 71.280,32.650 70.920,32.650 70.920,35.053 70.920,37.457 70.920,39.860 71.280,39.860 71.640,39.860 72.000,39.860 72.000,42.397 72.000,44.933 72.000,47.470 72.000,49.083 73.307,50.390 74.920,50.390 74.947,50.390 74.973,50.390 75.000,50.390 78.843,49.910 82.687,49.430 86.530,48.950 87.170,48.950 87.810,48.950 88.450,48.950 88.450,50.037 88.450,51.123 88.450,52.210 93.560,52.210 98.670,52.210 103.780,52.210 103.780,51.120 103.780,50.030 103.780,48.940 111.157,48.940 118.533,48.940 125.910,48.940 125.910,49.123 125.910,49.307 125.910,49.490 129.867,49.880 133.823,50.270 137.780,50.660 138.923,51.803 140.067,52.947 141.210,54.090 141.237,54.113 141.263,54.137 141.290,54.160 141.470,54.310 142.930,55.700 140.370,58.830 138.170,62.080 127.270,78.270 126.480,80.670 126.250,81.260 124.230,86.860 128.360,89.790 131.617,91.710 134.873,93.630 138.130,95.550 138.650,95.840 139.235,95.995 139.830,96.000 140.276,96.000 140.717,95.901 141.120,95.710 142.410,95.110 143.250,93.630 143.630,91.330 143.630,91.287 143.630,91.243 143.630,91.200 143.503,89.967 143.377,88.733 143.250,87.500 147.833,80.667 152.417,73.833 157.000,67.000 159.417,65.580 161.833,64.160 164.250,62.740 165.430,64.990 168.890,70.240 175.590,70.240 176.229,70.238 176.867,70.191 177.500,70.100 177.780,70.030 184.250,68.460 187.060,66.470 187.860,66.070 191.410,63.760 188.730,55.560 190.887,55.747 193.043,55.933 195.200,56.120 211.607,56.120 228.013,56.120 244.420,56.120 244.420,56.250 244.490,56.380 244.540,56.520 245.781,59.386 248.649,61.199 251.770,61.090 251.847,61.090 251.923,61.090 252.000,61.090 265.263,60.237 278.527,59.383 291.790,58.530 294.340,58.370 299.110,56.530 298.890,50.690 298.632,48.989 297.734,47.451 296.380,46.390 296.380,46.390 296.380,46.390 296.380,46.390 Z " />
  <path stroke="none" fill="#ffffffff" d="M 267.670,41.030 C 248.070,41.030 228.470,41.030 208.870,41.030 208.870,39.657 208.870,38.283 208.870,36.910 228.470,36.910 248.070,36.910 267.670,36.910 267.670,38.283 267.670,39.657 267.670,41.030 Z M 268.670,35.910 C 248.403,35.910 228.137,35.910 207.870,35.910 207.870,37.940 207.870,39.970 207.870,42.000 228.137,42.000 248.403,42.000 268.670,42.000 268.670,39.970 268.670,37.940 268.670,35.910 Z " />
  <path stroke="none" fill="#ffffffff" d="M 204.410,34.590 C 203.043,34.590 201.677,34.590 200.310,34.590 200.310,34.923 200.310,35.257 200.310,35.590 201.343,35.590 202.377,35.590 203.410,35.590 203.410,37.940 203.410,40.290 203.410,42.640 202.377,42.640 201.343,42.640 200.310,42.640 200.310,42.973 200.310,43.307 200.310,43.640 201.677,43.640 203.043,43.640 204.410,43.640 204.410,40.623 204.410,37.607 204.410,34.590 204.410,34.590 204.410,34.590 204.410,34.590 Z " />
  <path stroke="none" fill="#ffffffff" d="M 275.780,42.640 C 274.747,42.640 273.713,42.640 272.680,42.640 272.680,40.290 272.680,37.940 272.680,35.590 273.713,35.590 274.747,35.590 275.780,35.590 275.780,35.257 275.780,34.923 275.780,34.590 274.413,34.590 273.047,34.590 271.680,34.590 271.680,37.607 271.680,40.623 271.680,43.640 273.047,43.640 274.413,43.640 275.780,43.640 275.780,43.307 275.780,42.973 275.780,42.640 275.780,42.640 275.780,42.640 275.780,42.640 Z " />
  <path stroke="none" fill="#ffffffff" d="M 251.420,56.480 C 251.420,56.260 251.420,56.040 251.420,55.820 252.457,55.673 253.493,55.527 254.530,55.380 255.283,54.613 256.037,53.847 256.790,53.080 257.373,53.060 257.957,53.040 258.540,53.020 258.590,53.927 258.640,54.833 258.690,55.740 256.267,55.987 253.843,56.233 251.420,56.480 Z M 256.310,52.090 C 255.540,52.870 254.770,53.650 254.000,54.430 252.767,54.603 251.533,54.777 250.300,54.950 250.363,55.823 250.427,56.697 250.490,57.570 253.553,57.257 256.617,56.943 259.680,56.630 259.600,55.087 259.520,53.543 259.440,52.000 258.397,52.030 257.353,52.060 256.310,52.090 Z " />
</svg>