<?xml version="1.0" encoding="UTF-8" standalone="no"?>
<!DOCTYPE svg PUBLIC "-//W3C//DTD SVG 20010904//EN" "http://www.w3.org/TR/2001/REC-SVG-20010904/DTD/svg10.dtd"[]>
<svg version="1.1" id="Frosty Editor v1.0.6.3" xmlns="http://www.w3.org/2000/svg" d1p1:xlink="http://www.w3.org/1999/xlink" viewBox="0 0 101 25" xmlns:d1p1="xmlns">
  <path stroke="none" fill="#ffffffff" d="M 44.061,2.445 C 43.952,2.635 43.952,2.635 43.952,2.635 37.204,2.635 37.204,2.635 37.204,2.635 37.104,2.463 37.104,2.463 37.104,2.463 17.037,2.463 17.037,2.463 17.037,2.463 14.778,2.463 14.778,2.463 14.778,2.463 14.332,2.906 14.332,2.906 14.332,2.906 14.332,7.219 14.332,7.219 14.332,7.219 14.834,7.219 14.834,7.219 14.834,7.219 15.407,7.836 15.407,7.836 15.407,7.836 21.555,7.836 21.555,7.836 21.555,7.836 21.598,7.893 21.598,7.893 21.598,7.893 21.643,7.926 21.643,7.926 21.643,7.926 21.643,7.926 22.685,8.679 24.086,8.637 24.148,8.650 24.428,8.726 24.692,9.133 24.988,9.590 25.234,10.510 24.723,12.350 22.139,19.418 22.139,19.418 22.139,19.418 20.522,20.740 20.522,20.740 20.522,20.740 20.512,20.748 20.512,20.748 20.512,20.748 20.512,20.748 19.926,21.277 19.956,22.098 19.965,22.375 19.965,22.375 19.965,22.375 31.785,25.338 31.785,25.338 31.785,25.338 31.879,24.986 31.879,24.986 31.879,24.986 31.879,24.986 31.919,24.835 31.946,24.647 31.972,24.458 32.004,24.234 31.918,23.976 31.897,23.908 31.897,23.908 31.897,23.908 29.807,21.453 29.807,21.453 29.807,21.453 32.332,13.461 32.332,13.461 32.332,13.461 32.332,13.461 32.477,13.159 32.606,13.144 32.631,13.142 32.631,13.142 32.631,13.142 32.655,13.135 32.655,13.135 32.655,13.135 32.655,13.135 32.907,13.025 33.116,12.929 33.944,13.267 33.944,13.267 33.944,13.267 33.963,13.274 33.963,13.274 33.963,13.274 33.963,13.274 34.269,13.379 34.602,13.369 34.610,13.370 34.616,13.369 34.623,13.369 34.627,13.369 34.630,13.369 34.633,13.369 34.646,13.370 34.657,13.371 34.674,13.371 34.715,13.372 34.772,13.372 34.842,13.373 34.983,13.374 35.180,13.375 35.415,13.375 35.884,13.375 36.504,13.374 37.122,13.373 37.397,13.373 37.397,13.373 37.397,13.373 37.415,13.373 37.432,13.373 37.450,13.372 38.500,13.371 39.584,13.369 39.584,13.369 39.879,13.369 39.879,13.369 39.879,13.369 39.973,12.947 39.973,12.947 39.973,12.947 77.413,12.947 77.413,12.947 77.413,12.947 77.413,11.092 77.413,11.092 77.413,11.092 83.842,8.672 83.842,8.672 83.842,8.672 83.842,6.750 83.842,6.750 83.842,6.750 85.741,6.750 85.741,6.750 85.741,6.750 85.741,6.012 85.741,6.012 85.741,6.012 86.819,6.012 86.819,6.012 86.819,6.012 87.268,5.562 87.268,5.562 87.268,5.562 87.268,4.979 87.268,4.979 87.268,4.979 87.268,3.951 87.268,3.951 87.268,3.951 87.268,3.367 87.268,3.367 87.268,3.367 86.819,2.918 86.819,2.918 86.819,2.918 85.735,2.918 85.735,2.918 85.735,2.918 85.731,2.703 85.731,2.703 85.731,2.703 83.598,2.703 83.598,2.703 83.598,2.703 83.594,2.447 83.594,2.447 83.594,2.447 80.549,2.447 80.549,2.447 80.549,2.447 80.549,2.695 80.549,2.695 80.549,2.695 77.346,2.695 77.346,2.695 77.346,2.695 77.346,2.445 77.346,2.445 77.346,2.445 Z M 44.489,3.187 C 62.194,3.187 62.194,3.187 62.194,3.187 62.194,4.484 62.194,4.484 62.194,4.484 62.885,4.484 62.885,4.484 62.885,4.484 62.885,3.187 62.885,3.187 62.885,3.187 63.121,3.187 63.121,3.187 63.121,3.187 63.121,4.484 63.121,4.484 63.121,4.484 63.813,4.484 63.813,4.484 63.813,4.484 63.813,3.187 63.813,3.187 63.813,3.187 64.049,3.187 64.049,3.187 64.049,3.187 64.049,4.484 64.049,4.484 64.049,4.484 64.743,4.484 64.743,4.484 64.743,4.484 64.743,3.187 64.743,3.187 64.743,3.187 64.979,3.187 64.979,3.187 64.979,3.187 64.979,4.484 64.979,4.484 64.979,4.484 65.670,4.484 65.670,4.484 65.670,4.484 65.670,3.187 65.670,3.187 65.670,3.187 76.606,3.187 76.606,3.187 76.606,3.187 76.606,3.435 76.606,3.435 76.606,3.435 76.807,3.435 76.807,3.435 76.807,3.435 76.807,4.795 76.807,4.795 76.807,4.795 61.188,4.795 61.188,4.795 61.188,4.795 61.188,4.024 61.188,4.024 61.188,4.024 58.865,4.024 58.865,4.024 58.865,4.024 58.865,4.795 58.865,4.795 58.865,4.795 30.422,4.795 30.422,4.795 30.422,4.795 30.422,3.203 30.422,3.203 30.422,3.203 36.676,3.203 36.676,3.203 36.676,3.203 36.776,3.375 36.776,3.375 36.776,3.375 36.856,3.375 36.856,3.375 36.856,3.375 36.856,4.410 36.856,4.410 36.856,4.410 44.406,4.406 44.406,4.406 44.406,4.406 44.406,3.329 44.406,3.329 44.406,3.329 Z M 62.457,3.187 C 62.621,3.187 62.621,3.187 62.621,3.187 62.621,4.221 62.621,4.221 62.621,4.221 62.457,4.221 62.457,4.221 62.457,4.221 Z M 63.387,3.187 C 63.549,3.187 63.549,3.187 63.549,3.187 63.549,4.221 63.549,4.221 63.549,4.221 63.387,4.221 63.387,4.221 63.387,4.221 Z M 64.315,3.187 C 64.477,3.187 64.477,3.187 64.477,3.187 64.477,4.221 64.477,4.221 64.477,4.221 64.315,4.221 64.315,4.221 64.315,4.221 Z M 65.242,3.187 C 65.405,3.187 65.405,3.187 65.405,3.187 65.405,4.221 65.405,4.221 65.405,4.221 65.242,4.221 65.242,4.221 65.242,4.221 Z M 81.289,3.187 C 82.868,3.187 82.868,3.187 82.868,3.187 82.871,3.435 82.871,3.435 82.871,3.435 83.104,3.438 83.104,3.438 83.104,3.438 83.104,4.795 83.104,4.795 83.104,4.795 81.073,4.795 81.073,4.795 81.073,4.795 81.073,3.435 81.073,3.435 81.073,3.435 81.289,3.435 81.289,3.435 81.289,3.435 Z M 15.084,3.203 C 17.037,3.203 17.037,3.203 17.037,3.203 30.159,3.203 30.159,3.203 30.159,3.203 30.159,4.795 30.159,4.795 30.159,4.795 15.073,4.795 15.073,4.795 15.073,4.795 15.073,3.215 15.073,3.215 15.073,3.215 Z M 69.028,3.250 C 69.028,3.383 69.028,3.383 69.028,3.383 69.028,4.490 69.028,4.490 69.028,4.490 71.008,4.490 71.008,4.490 71.008,4.490 71.008,3.250 71.008,3.250 71.008,3.250 Z M 37.122,3.375 C 44.141,3.375 44.141,3.375 44.141,3.375 44.141,4.142 44.141,4.142 44.141,4.142 37.122,4.144 37.122,4.144 37.122,4.144 Z M 77.070,3.435 C 80.809,3.435 80.809,3.435 80.809,3.435 80.809,7.916 80.809,7.916 80.809,7.916 77.070,5.896 77.070,5.896 77.070,5.896 77.070,4.928 77.070,4.928 77.070,4.928 Z M 83.367,3.441 C 83.492,3.442 83.492,3.442 83.492,3.442 83.492,4.717 83.492,4.717 83.492,4.717 84.942,4.717 84.942,4.717 84.942,4.717 84.942,3.443 84.942,3.443 84.942,3.443 85.000,3.443 85.000,3.443 85.000,3.443 85.004,3.658 85.004,3.658 85.004,3.658 85.236,3.658 85.236,3.658 85.236,3.658 85.236,5.272 85.236,5.272 85.236,5.272 84.998,5.272 84.998,5.272 84.998,5.272 84.998,6.008 84.998,6.008 84.998,6.008 83.367,6.008 83.367,6.008 83.367,6.008 83.367,4.795 83.367,4.795 83.367,4.795 Z M 83.758,3.443 C 83.891,3.443 83.891,3.443 83.891,3.443 83.891,4.451 83.891,4.451 83.891,4.451 83.758,4.451 83.758,4.451 83.758,4.451 Z M 84.022,3.443 C 84.156,3.443 84.156,3.443 84.156,3.443 84.156,4.451 84.156,4.451 84.156,4.451 84.022,4.451 84.022,4.451 84.022,4.451 Z M 84.288,3.443 C 84.422,3.443 84.422,3.443 84.422,3.443 84.422,4.451 84.422,4.451 84.422,4.451 84.288,4.451 84.288,4.451 84.288,4.451 Z M 84.553,3.443 C 84.678,3.443 84.678,3.443 84.678,3.443 84.678,4.451 84.678,4.451 84.678,4.451 84.553,4.451 84.553,4.451 84.553,4.451 Z M 69.293,3.513 C 70.744,3.513 70.744,3.513 70.744,3.513 70.744,4.227 70.744,4.227 70.744,4.227 69.293,4.227 69.293,4.227 69.293,4.227 Z M 85.502,3.658 C 85.848,3.658 85.848,3.658 85.848,3.658 85.848,5.272 85.848,5.272 85.848,5.272 85.502,5.272 85.502,5.272 85.502,5.272 Z M 85.981,3.658 C 86.078,3.658 86.078,3.658 86.078,3.658 86.078,5.272 86.078,5.272 86.078,5.272 85.981,5.272 85.981,5.272 85.981,5.272 Z M 86.211,3.658 C 86.309,3.658 86.309,3.658 86.309,3.658 86.309,5.272 86.309,5.272 86.309,5.272 86.211,5.272 86.211,5.272 86.211,5.272 Z M 86.441,3.658 C 86.512,3.658 86.512,3.658 86.512,3.658 86.526,3.674 86.526,3.674 86.526,3.674 86.526,4.979 86.526,4.979 86.526,4.979 86.528,4.979 86.528,4.979 86.528,4.979 86.528,5.256 86.528,5.256 86.528,5.256 86.512,5.272 86.512,5.272 86.512,5.272 86.441,5.272 86.441,5.272 86.441,5.272 Z M 59.131,4.289 C 60.922,4.289 60.922,4.289 60.922,4.289 60.922,4.795 60.922,4.795 60.922,4.795 59.131,4.795 59.131,4.795 59.131,4.795 Z M 15.073,5.061 C 30.159,5.061 30.159,5.061 30.159,5.061 30.159,7.492 30.159,7.492 30.159,7.492 22.371,7.492 22.371,7.492 22.371,7.492 22.222,7.414 22.125,7.350 22.110,7.340 21.457,6.479 21.457,6.479 21.457,6.479 15.073,6.479 15.073,6.479 15.073,6.479 Z M 30.422,5.061 C 67.531,5.061 67.531,5.061 67.531,5.061 69.725,6.367 69.725,6.367 69.725,6.367 33.950,6.367 33.950,6.367 33.950,6.367 33.950,8.553 33.950,8.553 33.950,8.553 32.547,8.553 32.547,8.553 32.547,8.553 32.519,8.533 32.357,8.417 32.156,8.273 31.941,8.119 31.706,7.949 31.672,7.922 31.125,7.410 30.500,7.494 30.500,7.494 30.520,7.492 30.520,7.492 30.520,7.492 30.422,7.492 30.422,7.492 30.422,7.492 Z M 68.046,5.061 C 76.807,5.061 76.807,5.061 76.807,5.061 76.807,6.055 76.807,6.055 76.807,6.055 81.073,8.359 81.073,8.359 81.073,8.359 81.073,5.061 81.073,5.061 81.073,5.061 83.104,5.061 83.104,5.061 83.104,5.061 83.104,6.008 83.104,6.008 83.104,6.008 83.100,6.008 83.100,6.008 83.100,6.008 83.100,8.160 83.100,8.160 83.100,8.160 77.065,10.430 77.065,10.430 77.065,10.430 Z M 77.090,6.527 C 77.030,6.640 77.030,6.640 77.030,6.640 76.196,8.195 76.196,8.195 76.196,8.195 76.756,8.551 76.756,8.551 76.756,8.551 77.311,8.551 77.311,8.551 77.311,8.551 78.557,9.367 78.557,9.367 78.557,9.367 79.991,8.494 79.991,8.494 79.991,8.494 79.092,7.836 79.092,7.836 79.092,7.836 79.092,7.519 79.092,7.519 79.092,7.519 Z M 34.213,6.631 C 70.168,6.631 70.168,6.631 70.168,6.631 72.540,8.043 72.540,8.043 72.540,8.043 40.584,8.043 40.584,8.043 40.584,8.043 39.858,8.553 39.858,8.553 39.858,8.553 34.213,8.553 34.213,8.553 34.213,8.553 Z M 34.942,6.810 C 34.647,6.810 34.404,7.053 34.404,7.348 34.404,7.643 34.647,7.883 34.942,7.883 35.237,7.883 35.477,7.643 35.477,7.348 35.477,7.053 35.237,6.810 34.942,6.810 Z M 40.884,6.811 C 40.797,6.811 40.726,6.891 40.726,6.991 40.726,7.091 40.797,7.171 40.884,7.171 55.265,7.171 55.265,7.171 55.265,7.171 55.352,7.171 55.422,7.091 55.422,6.991 55.422,6.891 55.352,6.811 55.265,6.811 Z M 77.203,6.879 C 78.829,7.684 78.829,7.684 78.829,7.684 78.829,7.971 78.829,7.971 78.829,7.971 79.516,8.474 79.516,8.474 79.516,8.474 78.563,9.055 78.563,9.055 78.563,9.055 77.391,8.287 77.391,8.287 77.391,8.287 76.834,8.287 76.834,8.287 76.834,8.287 76.545,8.103 76.545,8.103 76.545,8.103 Z M 34.942,7.074 C 35.095,7.074 35.213,7.195 35.213,7.348 35.213,7.501 35.095,7.619 34.942,7.619 34.789,7.619 34.670,7.501 34.670,7.348 34.670,7.195 34.789,7.074 34.942,7.074 Z M 15.412,7.219 C 21.088,7.219 21.088,7.219 21.088,7.219 21.235,7.412 21.235,7.412 21.235,7.412 15.592,7.412 15.592,7.412 15.592,7.412 Z M 39.532,7.309 C 39.243,7.316 39.008,7.555 39.008,7.846 39.008,8.140 39.250,8.381 39.545,8.381 39.840,8.381 40.081,8.140 40.081,7.846 40.081,7.551 39.840,7.309 39.545,7.309 39.541,7.309 39.536,7.308 39.532,7.309 Z M 52.295,7.478 C 52.197,7.478 52.119,7.558 52.119,7.657 52.119,7.757 52.197,7.838 52.295,7.838 70.059,7.838 70.059,7.838 70.059,7.838 70.156,7.838 70.235,7.757 70.235,7.657 70.235,7.558 70.156,7.478 70.059,7.478 Z M 39.545,7.574 C 39.698,7.574 39.817,7.693 39.817,7.846 39.817,7.998 39.698,8.117 39.545,8.117 39.392,8.117 39.272,7.998 39.272,7.846 39.272,7.693 39.392,7.574 39.545,7.574 Z M 30.621,7.751 C 30.779,7.750 31.141,7.788 31.490,8.115 31.494,8.117 31.494,8.117 31.494,8.117 31.497,8.119 31.497,8.119 31.497,8.119 31.566,8.177 31.784,8.334 32.002,8.490 32.221,8.647 32.428,8.793 32.428,8.793 32.461,8.817 32.461,8.817 32.461,8.817 34.099,8.817 34.099,8.817 34.099,8.817 33.400,9.220 32.936,10.042 32.936,10.963 32.936,11.400 33.041,11.815 33.226,12.174 33.076,12.113 33.076,12.113 33.076,12.113 32.912,12.221 32.912,12.221 32.912,12.221 32.704,12.357 32.475,12.416 32.475,12.416 32.524,12.408 32.524,12.408 32.524,12.408 32.318,12.431 32.157,12.511 32.031,12.611 31.419,11.258 31.074,9.367 31.074,9.367 31.074,9.373 31.074,9.373 31.074,9.373 31.019,8.957 30.734,8.754 30.485,8.686 30.260,8.624 30.062,8.649 30.024,8.654 28.035,8.654 28.035,8.654 28.035,8.654 27.677,8.654 27.430,8.820 27.287,8.984 27.145,9.148 27.092,9.318 27.092,9.318 23.476,19.063 23.476,19.063 23.476,19.063 23.096,18.960 23.096,18.960 23.096,18.960 25.282,12.979 25.282,12.979 25.282,12.979 27.184,8.161 27.184,8.161 27.184,8.161 27.381,8.146 27.580,8.139 27.772,8.143 27.773,8.143 27.775,8.143 27.776,8.143 27.785,8.143 27.794,8.144 27.805,8.145 27.827,8.146 27.856,8.146 27.891,8.146 27.962,8.147 28.058,8.148 28.172,8.148 28.401,8.149 28.700,8.149 28.996,8.148 29.590,8.146 30.176,8.143 30.176,8.143 30.309,8.141 30.309,8.141 30.309,8.141 30.309,7.756 30.309,7.756 30.309,7.756 30.528,7.756 30.528,7.756 30.528,7.756 30.537,7.756 30.537,7.756 30.537,7.756 30.537,7.756 30.568,7.751 30.621,7.751 Z M 23.019,7.756 C 25.454,7.756 25.454,7.756 25.454,7.756 25.231,7.799 25.231,7.799 25.231,7.799 25.368,8.457 25.368,8.457 25.368,8.457 25.502,8.424 25.502,8.424 25.502,8.424 25.502,8.424 26.143,8.268 26.888,8.188 25.717,11.155 25.717,11.155 25.717,11.155 25.847,10.001 25.639,9.231 25.313,8.729 24.869,8.045 24.196,7.902 24.196,7.902 24.155,7.895 24.155,7.895 24.155,7.895 24.111,7.897 24.111,7.897 24.111,7.897 23.701,7.915 23.329,7.849 23.019,7.756 Z M 26.858,7.756 C 30.043,7.756 30.043,7.756 30.043,7.756 30.043,7.877 30.043,7.877 30.043,7.877 29.934,7.878 29.524,7.883 28.996,7.885 28.700,7.886 28.402,7.886 28.174,7.885 28.061,7.884 27.963,7.884 27.895,7.883 27.860,7.882 27.833,7.881 27.815,7.881 27.805,7.880 27.799,7.879 27.795,7.879 27.795,7.879 27.794,7.879 27.793,7.879 27.776,7.877 27.776,7.877 27.776,7.877 26.752,7.858 25.708,8.118 25.574,8.150 25.545,8.008 25.545,8.008 25.545,8.008 Z M 40.668,8.309 C 72.986,8.309 72.986,8.309 72.986,8.309 76.750,10.549 76.750,10.549 76.750,10.549 76.672,10.578 76.672,10.578 76.672,10.578 76.672,11.699 76.672,11.699 76.672,11.699 64.578,11.699 64.578,11.699 64.578,11.699 58.705,9.621 58.705,9.621 58.705,9.621 55.424,9.621 55.424,9.621 55.424,9.621 54.415,8.705 54.415,8.705 54.415,8.705 40.100,8.705 40.100,8.705 40.100,8.705 Z M 31.754,8.627 C 31.460,8.627 31.219,8.869 31.219,9.164 31.219,9.459 31.460,9.701 31.754,9.701 32.049,9.701 32.291,9.459 32.291,9.164 32.291,8.869 32.049,8.627 31.754,8.627 Z M 38.368,8.817 C 39.766,8.817 39.766,8.817 39.766,8.817 39.766,12.207 39.766,12.207 39.766,12.207 39.381,12.207 39.381,12.207 39.381,12.207 39.286,12.629 39.286,12.629 39.286,12.629 39.247,12.629 39.007,12.629 38.939,12.629 39.309,12.192 39.532,11.600 39.532,10.963 39.532,10.042 39.067,9.220 38.368,8.817 Z M 31.754,8.892 C 31.907,8.892 32.026,9.012 32.026,9.164 32.026,9.317 31.907,9.436 31.754,9.436 31.602,9.436 31.483,9.317 31.483,9.164 31.483,9.012 31.602,8.892 31.754,8.892 Z M 30.163,8.909 C 30.231,8.909 30.322,8.914 30.414,8.940 30.599,8.990 30.770,9.089 30.813,9.408 30.813,9.410 30.813,9.410 30.813,9.410 30.815,9.414 30.815,9.414 30.815,9.414 30.815,9.414 31.167,11.404 31.834,12.819 31.680,13.029 31.625,13.240 31.625,13.240 29.288,20.635 29.288,20.635 29.288,20.635 23.734,19.133 23.734,19.133 23.734,19.133 27.344,9.400 27.344,9.400 27.344,9.400 27.344,9.398 27.344,9.398 27.344,9.398 27.344,9.398 27.382,9.280 27.489,9.158 27.595,9.036 27.756,8.918 28.035,8.918 30.039,8.918 30.039,8.918 30.039,8.918 30.049,8.916 30.049,8.916 30.049,8.916 30.049,8.916 30.094,8.909 30.163,8.909 Z M 40.031,8.969 C 44.782,8.969 44.782,8.969 44.782,8.969 44.782,10.332 44.782,10.332 44.782,10.332 46.307,11.488 46.307,11.488 46.307,11.488 46.307,12.207 46.307,12.207 46.307,12.207 40.031,12.207 40.031,12.207 40.031,12.207 Z M 45.045,8.969 C 54.313,8.969 54.313,8.969 54.313,8.969 55.322,9.887 55.322,9.887 55.322,9.887 58.659,9.887 58.659,9.887 58.659,9.887 64.533,11.965 64.533,11.965 64.533,11.965 76.672,11.965 76.672,11.965 76.672,11.965 76.672,12.207 76.672,12.207 76.672,12.207 51.330,12.207 51.330,12.207 51.330,12.207 51.330,9.799 51.330,9.799 51.330,9.799 51.065,9.799 51.065,9.799 51.065,9.799 51.065,12.207 51.065,12.207 51.065,12.207 50.758,12.207 50.758,12.207 50.758,12.207 50.758,9.799 50.758,9.799 50.758,9.799 50.494,9.799 50.494,9.799 50.494,9.799 50.494,12.207 50.494,12.207 50.494,12.207 50.186,12.207 50.186,12.207 50.186,12.207 50.186,9.799 50.186,9.799 50.186,9.799 49.922,9.799 49.922,9.799 49.922,9.799 49.922,12.207 49.922,12.207 49.922,12.207 49.614,12.207 49.614,12.207 49.614,12.207 49.614,9.799 49.614,9.799 49.614,9.799 49.350,9.799 49.350,9.799 49.350,9.799 49.350,12.207 49.350,12.207 49.350,12.207 46.571,12.207 46.571,12.207 46.571,12.207 46.571,11.355 46.571,11.355 46.571,11.355 45.045,10.201 45.045,10.201 45.045,10.201 Z M 35.070,9.295 C 35.160,9.295 35.160,9.295 35.160,9.295 35.065,9.489 34.970,9.720 34.900,9.982 34.878,10.068 34.858,10.157 34.841,10.250 33.809,10.250 33.809,10.250 33.809,10.250 34.035,9.674 34.525,9.295 35.070,9.295 Z M 36.008,9.295 C 37.397,9.295 37.397,9.295 37.397,9.295 38.144,9.295 38.791,10.006 38.791,10.963 38.791,11.920 38.144,12.631 37.397,12.631 36.076,12.631 36.076,12.631 36.076,12.631 35.427,11.638 35.448,10.803 35.616,10.174 35.723,9.771 35.893,9.469 36.008,9.295 Z M 33.728,10.514 C 34.803,10.514 34.803,10.514 34.803,10.514 34.774,10.783 34.774,11.074 34.817,11.383 33.722,11.383 33.722,11.383 33.722,11.383 33.693,11.250 33.678,11.109 33.678,10.963 33.678,10.805 33.696,10.655 33.728,10.514 Z M 33.798,11.646 C 34.864,11.646 34.864,11.646 34.864,11.646 34.864,11.646 34.864,11.647 34.864,11.647 34.932,11.963 35.046,12.292 35.220,12.631 35.070,12.631 35.070,12.631 35.070,12.631 34.516,12.631 34.018,12.239 33.798,11.646 Z M 23.005,19.210 C 29.208,20.888 29.208,20.888 29.208,20.888 29.084,21.280 29.084,21.280 29.084,21.280 22.857,19.613 22.857,19.613 22.857,19.613 Z M 22.767,19.861 C 29.004,21.533 29.004,21.533 29.004,21.533 28.977,21.619 28.977,21.619 28.977,21.619 31.217,24.254 31.217,24.254 31.217,24.254 31.221,24.284 31.217,24.356 31.215,24.432 20.799,21.820 20.799,21.820 20.799,21.820 20.894,21.583 21.016,21.293 21.016,21.293 22.766,19.863 22.766,19.863 22.766,19.863 Z " />
</svg>