<?xml version="1.0" encoding="UTF-8" standalone="no"?>
<!DOCTYPE svg PUBLIC "-//W3C//DTD SVG 20010904//EN" "http://www.w3.org/TR/2001/REC-SVG-20010904/DTD/svg10.dtd"[]>
<svg version="1.1" id="Frosty Editor v1.0.6.3" xmlns="http://www.w3.org/2000/svg" d1p1:xlink="http://www.w3.org/1999/xlink" viewBox="0 0 101 25" xmlns:d1p1="xmlns">
  <path stroke="none" fill="#ffffffff" d="M 46.888,0.499 C 46.285,0.499 46.185,0.967 46.185,0.967 45.454,1.432 45.454,1.432 45.454,1.432 45.214,1.432 45.214,1.432 45.214,1.432 45.214,1.270 45.214,1.270 45.214,1.270 43.374,1.270 43.374,1.270 43.374,1.270 43.374,1.432 43.374,1.432 43.374,1.432 40.785,1.432 40.785,1.432 40.785,1.432 40.112,1.047 40.112,1.047 40.112,1.047 37.708,1.047 37.708,1.047 37.708,1.047 37.708,3.789 37.708,3.789 37.708,3.789 37.561,3.688 37.441,3.636 37.264,3.636 37.048,3.636 36.790,3.834 36.727,4.106 36.687,4.537 36.862,4.838 37.283,4.894 37.283,4.949 37.283,4.949 37.283,4.949 35.564,4.969 35.564,4.969 35.564,4.969 35.193,4.969 35.146,5.376 35.146,5.493 35.146,8.834 35.146,8.834 35.146,8.834 34.883,11.150 34.883,11.150 34.883,11.150 34.914,11.150 34.914,11.150 34.914,11.150 34.914,11.151 34.914,11.151 34.914,11.151 34.908,11.151 34.883,11.150 34.883,11.150 34.860,11.963 31.365,16.958 30.935,18.273 30.681,19.048 30.137,21.224 30.038,24.169 30.331,24.652 30.331,24.652 30.331,24.652 36.457,24.652 36.457,24.652 36.457,24.652 36.603,24.244 36.603,24.244 36.603,24.244 36.242,20.614 36.392,20.234 36.523,18.920 36.917,15.652 38.710,13.597 38.710,13.597 38.998,13.098 39.762,12.898 40.164,12.835 40.126,12.841 40.085,12.848 40.041,12.856 39.094,13.548 38.915,14.299 39.073,15.376 38.581,15.296 38.028,15.373 37.519,15.518 37.264,16.052 37.013,16.686 36.818,17.408 36.818,17.408 37.166,16.721 37.254,16.633 37.499,16.388 37.819,16.088 38.167,15.995 38.167,15.995 38.886,15.806 39.498,16.159 39.498,16.159 40.228,17.120 41.026,17.334 41.221,17.386 44.308,17.043 44.308,17.043 44.029,17.252 42.875,19.432 42.875,19.432 43.261,19.679 43.261,19.679 43.261,19.679 43.261,19.679 44.356,17.607 44.493,17.470 44.848,17.115 45.289,17.161 45.400,17.161 46.806,17.161 47.327,16.331 47.636,15.863 47.930,15.418 47.971,14.141 48.219,13.685 48.471,13.220 49.505,13.040 49.906,12.809 50.288,12.809 50.288,12.809 50.288,12.809 50.638,12.715 51.546,12.299 52.209,11.150 52.209,11.150 53.508,8.834 51.273,8.834 43.488,8.834 43.488,8.834 43.488,8.834 43.587,8.669 43.587,8.669 43.587,8.669 43.580,8.653 43.580,8.653 43.580,8.653 52.669,8.653 52.669,8.653 52.669,8.653 52.669,10.329 52.669,10.329 52.669,10.329 52.669,10.329 55.363,10.702 56.751,10.702 59.161,10.702 65.447,10.567 65.447,10.567 65.447,11.922 65.447,11.922 65.447,11.922 66.653,11.922 66.653,11.922 66.653,11.922 66.653,8.323 66.653,8.323 66.653,8.323 71.589,8.309 71.589,8.309 71.589,8.309 71.589,4.925 71.589,4.925 71.589,4.925 54.726,4.984 54.726,4.984 54.726,4.984 54.164,4.682 54.164,4.682 54.164,4.682 50.678,4.682 50.678,4.682 50.678,4.682 50.678,3.706 50.678,3.706 50.678,3.706 51.475,3.706 51.475,3.706 51.475,3.706 51.836,3.706 51.836,3.706 51.836,3.706 52.033,3.706 54.310,3.463 54.310,3.253 54.310,1.884 54.310,1.884 54.310,1.884 54.310,1.674 52.033,1.432 51.836,1.432 51.475,1.432 51.475,1.432 51.475,1.432 50.678,1.432 50.678,1.432 50.678,1.432 50.678,1.270 50.678,1.270 50.678,1.270 48.837,1.270 48.837,1.270 48.837,1.270 48.837,1.432 48.837,1.432 48.837,1.432 48.322,1.432 48.322,1.432 48.322,1.432 47.590,0.967 47.590,0.967 47.590,0.967 47.590,0.967 47.491,0.499 46.888,0.499 Z M 46.882,0.828 C 46.912,0.828 46.941,0.829 46.970,0.832 47.070,0.838 47.172,0.885 47.232,0.967 46.543,0.967 46.543,0.967 46.543,0.967 46.609,0.878 46.722,0.836 46.830,0.829 46.847,0.828 46.865,0.828 46.882,0.828 Z M 46.363,1.576 C 46.725,1.576 46.725,1.576 46.725,1.576 46.725,1.747 46.725,1.747 46.725,1.747 46.427,1.824 46.207,2.094 46.207,2.417 46.207,2.801 46.516,3.109 46.899,3.109 47.283,3.109 47.592,2.801 47.592,2.417 47.592,2.094 47.372,1.824 47.074,1.747 47.074,1.576 47.074,1.576 47.074,1.576 47.413,1.576 47.413,1.576 47.413,1.576 47.513,1.640 47.613,1.703 47.712,1.767 47.712,3.370 47.712,3.370 47.712,3.370 47.613,3.434 47.513,3.497 47.413,3.561 46.363,3.561 46.363,3.561 46.363,3.561 46.263,3.497 46.163,3.434 46.063,3.370 46.063,3.096 46.063,3.096 46.063,3.096 46.063,1.767 46.063,1.767 46.063,1.767 46.163,1.703 46.263,1.640 46.363,1.576 Z M 38.317,1.657 C 39.952,1.657 39.952,1.657 39.952,1.657 40.026,1.699 40.101,1.742 40.176,1.785 40.176,3.352 40.176,3.352 40.176,3.352 39.952,3.480 39.952,3.480 39.952,3.480 38.317,3.480 38.317,3.480 38.317,3.480 Z M 44.043,1.880 C 44.548,1.880 44.548,1.880 44.548,1.880 44.494,1.930 44.461,2.002 44.461,2.082 44.461,2.187 44.519,2.279 44.604,2.326 44.604,3.096 44.604,3.096 44.604,3.096 44.604,3.706 44.604,3.706 44.604,3.706 44.604,3.746 44.604,3.746 44.604,3.746 44.805,3.843 44.949,4.043 44.987,4.262 45.032,4.502 44.935,4.760 44.749,4.917 44.559,5.084 44.276,5.132 44.040,5.042 43.846,4.971 43.691,4.808 43.622,4.614 43.569,4.470 43.569,4.308 43.616,4.163 43.672,3.978 43.811,3.826 43.983,3.743 43.983,3.706 43.983,3.706 43.983,3.706 43.983,3.096 43.983,3.096 43.983,3.096 43.983,2.327 43.983,2.327 43.983,2.327 44.071,2.281 44.130,2.188 44.130,2.082 44.130,2.002 44.096,1.930 44.043,1.880 Z M 49.530,1.880 C 50.035,1.880 50.035,1.880 50.035,1.880 49.981,1.930 49.948,2.002 49.948,2.082 49.948,2.177 49.995,2.261 50.068,2.311 50.068,3.096 50.068,3.096 50.068,3.096 50.068,3.706 50.068,3.706 50.068,3.706 50.068,3.722 50.068,3.722 50.068,3.722 50.283,3.807 50.452,4.002 50.499,4.229 50.547,4.441 50.488,4.672 50.347,4.837 50.196,5.019 49.949,5.113 49.716,5.082 49.447,5.050 49.209,4.846 49.130,4.588 49.123,4.577 49.123,4.563 49.120,4.552 49.088,4.420 49.094,4.278 49.139,4.149 49.191,3.991 49.304,3.857 49.447,3.772 49.447,3.706 49.447,3.706 49.447,3.706 49.447,3.096 49.447,3.096 49.447,3.096 49.447,2.339 49.447,2.339 49.447,2.339 49.547,2.296 49.617,2.198 49.617,2.082 49.617,2.002 49.583,1.930 49.530,1.880 Z M 44.737,1.907 C 44.751,1.907 44.765,1.908 44.779,1.912 44.814,1.919 44.845,1.938 44.868,1.964 44.868,1.964 44.868,1.964 44.868,1.964 44.876,1.973 44.882,1.982 44.888,1.992 44.888,1.992 44.889,1.992 44.889,1.992 44.894,2.002 44.900,2.013 44.904,2.024 44.904,2.024 44.904,2.024 44.904,2.024 44.916,2.057 44.918,2.093 44.908,2.127 44.900,2.162 44.879,2.193 44.851,2.216 44.851,2.216 44.851,2.216 44.851,2.216 44.824,2.239 44.789,2.253 44.753,2.256 44.747,2.257 44.740,2.257 44.734,2.257 44.732,2.257 44.731,2.257 44.729,2.257 44.723,2.256 44.718,2.256 44.713,2.255 44.712,2.255 44.711,2.255 44.710,2.255 44.669,2.247 44.631,2.224 44.604,2.191 44.604,2.192 44.604,2.192 44.604,2.192 44.587,2.171 44.575,2.146 44.569,2.120 44.555,2.068 44.571,2.013 44.604,1.973 44.604,1.973 44.604,1.973 44.604,1.973 44.626,1.946 44.656,1.925 44.689,1.914 44.690,1.914 44.691,1.914 44.693,1.913 44.697,1.912 44.701,1.911 44.705,1.910 44.711,1.909 44.717,1.908 44.723,1.908 44.728,1.907 44.732,1.907 44.737,1.907 Z M 49.341,1.908 C 49.353,1.908 49.366,1.909 49.378,1.912 49.384,1.913 49.390,1.915 49.396,1.917 49.396,1.917 49.397,1.918 49.398,1.918 49.416,1.924 49.432,1.934 49.447,1.946 49.447,1.945 49.447,1.945 49.447,1.945 49.486,1.977 49.511,2.025 49.512,2.076 49.517,2.131 49.489,2.184 49.447,2.218 49.447,2.217 49.447,2.217 49.447,2.217 49.431,2.230 49.413,2.240 49.394,2.247 49.393,2.247 49.392,2.248 49.391,2.248 49.385,2.250 49.378,2.252 49.372,2.253 49.284,2.275 49.192,2.212 49.169,2.127 49.137,2.025 49.223,1.910 49.328,1.908 49.332,1.908 49.336,1.907 49.341,1.908 Z M 43.848,1.908 C 43.864,1.907 43.879,1.909 43.894,1.913 43.903,1.915 43.911,1.918 43.920,1.921 43.920,1.921 43.920,1.921 43.920,1.921 43.945,1.932 43.966,1.948 43.983,1.969 43.983,1.968 43.983,1.968 43.983,1.968 44.011,2.001 44.026,2.043 44.025,2.086 44.027,2.127 44.010,2.165 43.983,2.195 43.983,2.195 43.983,2.195 43.983,2.195 43.956,2.226 43.918,2.249 43.878,2.255 43.792,2.271 43.704,2.210 43.682,2.126 43.651,2.025 43.736,1.909 43.842,1.908 43.844,1.908 43.846,1.908 43.848,1.908 Z M 50.223,1.908 C 50.230,1.907 50.238,1.908 50.245,1.909 50.330,1.915 50.400,1.993 50.401,2.078 50.406,2.166 50.332,2.246 50.246,2.255 50.238,2.257 50.229,2.257 50.221,2.257 50.220,2.257 50.219,2.257 50.217,2.257 50.210,2.257 50.202,2.256 50.194,2.254 50.192,2.254 50.191,2.254 50.190,2.253 50.182,2.251 50.174,2.249 50.167,2.246 50.166,2.246 50.165,2.246 50.164,2.245 50.148,2.239 50.133,2.230 50.120,2.220 50.119,2.219 50.119,2.219 50.118,2.218 50.112,2.213 50.105,2.207 50.100,2.201 50.099,2.201 50.098,2.200 50.098,2.199 50.092,2.193 50.087,2.186 50.082,2.179 50.082,2.179 50.082,2.179 50.081,2.179 50.076,2.171 50.072,2.164 50.068,2.155 50.068,2.155 50.068,2.155 50.068,2.155 50.063,2.146 50.060,2.135 50.057,2.125 50.045,2.086 50.051,2.045 50.068,2.009 50.068,2.010 50.068,2.010 50.068,2.010 50.085,1.975 50.113,1.945 50.146,1.927 50.148,1.926 50.149,1.925 50.151,1.925 50.156,1.922 50.161,1.920 50.166,1.918 50.168,1.917 50.170,1.916 50.172,1.916 50.177,1.914 50.182,1.913 50.187,1.912 50.189,1.911 50.191,1.910 50.194,1.910 50.201,1.909 50.208,1.908 50.215,1.908 50.218,1.908 50.220,1.908 50.223,1.908 Z M 46.899,2.037 C 46.957,2.038 47.016,2.052 47.069,2.078 47.112,2.099 47.152,2.130 47.186,2.168 47.261,2.251 47.291,2.367 47.274,2.477 47.257,2.603 47.169,2.714 47.053,2.764 46.925,2.824 46.765,2.800 46.657,2.710 46.526,2.606 46.485,2.409 46.554,2.259 46.610,2.137 46.737,2.047 46.873,2.038 46.882,2.038 46.890,2.037 46.899,2.037 Z M 40.785,2.041 C 43.374,2.041 43.374,2.041 43.374,2.041 43.374,3.096 43.374,3.096 43.374,3.096 40.785,3.096 40.785,3.096 40.785,3.096 Z M 45.214,2.041 C 45.454,2.041 45.454,2.041 45.454,2.041 45.454,3.096 45.454,3.096 45.454,3.096 45.214,3.096 45.214,3.096 45.214,3.096 Z M 48.322,2.041 C 48.837,2.041 48.837,2.041 48.837,2.041 48.837,3.096 48.837,3.096 48.837,3.096 48.322,3.096 48.322,3.096 48.322,3.096 Z M 50.678,2.041 C 51.475,2.041 51.475,2.041 51.475,2.041 51.475,3.096 51.475,3.096 51.475,3.096 50.678,3.096 50.678,3.096 50.678,3.096 Z M 52.084,2.067 C 52.247,2.083 52.411,2.100 52.574,2.121 52.951,2.170 53.328,2.218 53.700,2.296 53.700,2.477 53.700,2.659 53.701,2.840 53.570,2.868 53.438,2.892 53.307,2.914 52.901,2.977 52.493,3.031 52.084,3.071 52.084,2.737 52.084,2.402 52.084,2.067 Z M 40.785,3.706 C 43.374,3.706 43.374,3.706 43.374,3.706 43.374,4.354 43.374,4.354 43.374,4.354 42.521,4.354 42.521,4.354 42.521,4.354 42.208,4.555 42.208,4.555 42.208,4.555 41.824,4.897 41.824,4.897 41.824,4.897 39.669,4.922 39.669,4.922 39.669,4.922 39.669,4.744 39.669,4.744 39.669,4.744 39.469,4.549 39.469,4.549 39.469,4.549 38.679,4.561 38.679,4.561 38.679,4.561 38.088,4.090 38.088,4.090 38.088,4.090 40.112,4.090 40.112,4.090 40.112,4.090 Z M 45.214,3.706 C 45.454,3.706 45.454,3.706 45.454,3.706 46.185,4.170 46.185,4.170 46.185,4.170 47.590,4.170 47.590,4.170 47.590,4.170 48.322,3.706 48.322,3.706 48.322,3.706 48.837,3.706 48.837,3.706 48.837,3.706 48.837,4.682 48.837,4.682 48.837,4.682 48.837,4.682 48.837,4.682 48.837,4.682 48.837,4.215 48.837,4.215 48.837,4.215 45.214,4.215 45.214,4.215 45.214,4.215 Z M 49.810,3.791 C 49.799,3.791 49.789,3.791 49.778,3.792 49.563,3.800 49.358,3.940 49.271,4.137 49.237,4.213 49.219,4.298 49.219,4.378 49.219,4.402 49.220,4.427 49.223,4.451 49.598,4.350 49.974,4.250 50.349,4.149 50.289,4.007 50.169,3.890 50.025,3.832 49.957,3.806 49.883,3.791 49.810,3.791 Z M 44.296,3.791 C 44.282,3.791 44.267,3.791 44.253,3.792 44.025,3.805 43.810,3.963 43.735,4.180 43.722,4.218 43.712,4.257 43.706,4.297 44.872,4.297 44.872,4.297 44.872,4.297 44.859,4.198 44.816,4.098 44.754,4.019 44.656,3.889 44.501,3.806 44.339,3.793 44.325,3.792 44.310,3.791 44.296,3.791 Z M 37.281,3.830 C 37.378,3.830 37.472,3.867 37.553,3.919 37.605,3.958 37.656,3.998 37.708,4.037 37.708,4.090 37.708,4.090 37.708,4.090 37.776,4.090 37.776,4.090 37.776,4.090 37.976,4.246 38.175,4.406 38.374,4.565 37.432,4.579 37.432,4.579 37.432,4.579 37.331,4.700 37.331,4.700 37.331,4.700 37.265,4.697 37.199,4.685 37.138,4.655 37.103,4.639 37.070,4.617 37.042,4.590 37.079,4.604 37.119,4.611 37.161,4.611 37.349,4.611 37.501,4.459 37.501,4.271 37.501,4.082 37.349,3.930 37.161,3.930 37.110,3.930 37.061,3.942 37.017,3.962 37.026,3.953 37.035,3.944 37.044,3.935 37.102,3.878 37.181,3.836 37.262,3.830 37.268,3.830 37.275,3.830 37.281,3.830 Z M 37.158,4.094 C 37.183,4.094 37.207,4.099 37.229,4.108 37.305,4.136 37.348,4.222 37.335,4.300 37.327,4.376 37.257,4.438 37.181,4.446 37.098,4.459 37.014,4.400 36.992,4.320 36.970,4.258 36.992,4.186 37.040,4.142 37.069,4.115 37.106,4.096 37.148,4.094 37.152,4.094 37.155,4.094 37.158,4.094 Z M 50.392,4.308 C 50.017,4.409 49.641,4.510 49.266,4.610 49.335,4.774 49.484,4.903 49.654,4.948 49.802,4.988 49.970,4.968 50.104,4.888 50.261,4.797 50.372,4.630 50.392,4.448 50.398,4.403 50.398,4.355 50.392,4.308 Z M 43.706,4.462 C 43.707,4.464 43.707,4.464 43.707,4.464 43.731,4.633 43.834,4.792 43.981,4.881 44.155,4.991 44.389,4.997 44.570,4.897 44.732,4.811 44.848,4.644 44.872,4.462 44.484,4.462 44.095,4.462 43.706,4.462 Z M 39.356,4.833 C 39.367,4.843 39.377,4.853 39.387,4.863 39.387,5.595 39.387,5.595 39.387,5.595 38.780,5.603 38.172,5.610 37.565,5.617 37.565,4.884 37.565,4.884 37.565,4.884 37.566,4.876 37.563,4.867 37.566,4.858 Z M 42.621,4.973 C 43.032,4.973 43.032,4.973 43.032,4.973 43.032,8.283 43.032,8.283 43.032,8.283 43.086,8.400 43.140,8.517 43.195,8.634 43.208,8.651 43.187,8.666 43.180,8.681 42.632,8.681 42.632,8.681 42.632,8.681 42.601,8.675 42.577,8.650 42.550,8.634 42.550,5.930 42.550,5.930 42.550,5.930 42.550,5.019 42.550,5.019 42.550,5.019 42.574,5.004 42.597,4.989 42.621,4.973 Z M 43.374,5.292 C 54.164,5.292 54.164,5.292 54.164,5.292 54.164,6.718 54.164,6.718 54.164,6.718 52.669,6.718 52.669,6.718 52.669,6.718 52.669,8.044 52.669,8.044 52.669,8.044 43.374,8.044 43.374,8.044 43.374,8.044 Z M 54.372,5.292 C 54.421,5.318 54.469,5.344 54.518,5.370 54.518,7.835 54.518,7.835 54.518,7.835 54.372,7.835 54.372,7.835 54.372,7.835 Z M 41.598,5.509 C 42.208,5.509 42.208,5.509 42.208,5.509 42.208,5.909 42.208,5.909 42.208,5.909 41.788,5.909 41.788,5.909 41.788,5.909 41.788,6.448 41.788,6.448 41.788,6.448 41.857,6.471 41.924,6.498 41.994,6.516 42.208,6.516 42.208,6.516 42.208,6.516 42.208,8.822 42.208,8.822 42.208,8.822 42.227,8.834 42.227,8.834 42.227,8.834 42.208,8.834 42.208,8.834 42.208,8.834 42.208,8.822 42.208,8.822 42.208,8.822 35.764,8.822 35.764,8.822 35.764,8.822 35.756,7.934 35.756,7.934 35.756,7.934 35.756,7.329 35.756,6.723 35.757,6.117 35.760,5.937 35.754,5.757 35.757,5.578 36.266,5.572 36.774,5.566 37.283,5.560 37.283,5.901 37.283,5.901 37.283,5.901 39.669,5.874 39.669,5.874 39.669,5.874 39.669,5.532 39.669,5.532 39.669,5.532 40.312,5.524 40.955,5.516 41.598,5.509 Z M 70.979,5.537 C 70.979,7.701 70.979,7.701 70.979,7.701 69.741,7.705 68.502,7.708 67.263,7.711 66.653,7.711 66.653,7.711 66.653,7.711 66.653,6.718 66.653,6.718 66.653,6.718 65.447,6.718 65.447,6.718 65.447,6.718 54.726,6.718 54.726,6.718 54.726,6.718 54.726,5.591 54.726,5.591 54.726,5.591 55.336,5.591 55.336,5.591 55.336,5.591 60.550,5.573 65.765,5.555 70.979,5.537 Z M 41.907,6.028 C 42.208,6.028 42.208,6.028 42.208,6.028 42.208,6.397 42.208,6.397 42.208,6.397 42.082,6.397 42.082,6.397 42.082,6.397 42.021,6.405 41.962,6.385 41.907,6.363 Z M 65.804,7.075 C 66.296,7.075 66.296,7.075 66.296,7.075 66.296,11.565 66.296,11.565 66.296,11.565 65.804,11.565 65.804,11.565 65.804,11.565 Z M 41.277,7.294 C 41.134,7.294 41.018,7.409 41.018,7.553 41.018,7.696 41.134,7.812 41.277,7.812 41.421,7.812 41.536,7.696 41.536,7.553 41.536,7.409 41.421,7.294 41.277,7.294 Z M 53.279,7.327 C 54.164,7.327 54.164,7.327 54.164,7.327 54.164,8.043 54.164,8.043 54.164,8.043 54.726,8.043 54.726,8.043 54.726,8.043 54.726,7.327 54.726,7.327 54.726,7.327 64.837,7.327 64.837,7.327 64.837,7.327 65.447,7.327 65.447,7.327 65.447,7.327 65.447,9.953 65.447,9.953 65.447,9.953 64.837,9.968 64.837,9.968 64.837,9.968 62.714,10.009 60.592,10.050 58.469,10.077 57.703,10.084 56.937,10.104 56.172,10.074 55.204,10.015 54.240,9.913 53.279,9.792 Z M 35.744,9.216 C 51.501,9.243 51.501,9.243 51.501,9.243 52.350,9.358 52.136,10.392 51.836,10.911 35.523,10.911 35.523,10.911 35.523,10.911 35.579,10.415 35.694,9.651 35.744,9.216 Z M 42.527,9.484 C 42.383,9.484 42.268,9.600 42.268,9.743 42.268,9.887 42.383,10.002 42.527,10.002 42.670,10.002 42.786,9.887 42.786,9.743 42.786,9.600 42.670,9.484 42.527,9.484 Z M 50.668,9.562 C 50.379,9.562 50.146,9.795 50.146,10.085 50.146,10.374 50.379,10.607 50.668,10.607 50.958,10.607 51.191,10.374 51.191,10.085 51.191,9.795 50.958,9.562 50.668,9.562 Z M 35.447,11.150 C 51.684,11.150 51.684,11.150 51.684,11.150 51.102,11.843 50.678,12.124 50.398,12.199 41.276,12.199 41.276,12.199 41.276,12.199 40.628,12.199 39.636,12.245 38.971,12.583 38.693,12.744 38.549,12.848 38.461,12.917 38.422,12.842 38.398,12.809 38.398,12.809 38.398,12.809 38.398,12.809 38.398,12.809 38.397,12.808 38.397,12.808 38.397,12.808 38.379,12.777 38.360,12.747 38.341,12.717 38.335,12.708 38.330,12.699 38.324,12.690 38.309,12.667 38.293,12.644 38.277,12.622 38.272,12.615 38.266,12.607 38.261,12.599 38.242,12.573 38.222,12.547 38.201,12.521 38.192,12.510 38.183,12.499 38.174,12.488 38.162,12.473 38.149,12.458 38.136,12.443 38.125,12.431 38.114,12.418 38.103,12.406 38.092,12.393 38.080,12.381 38.068,12.368 38.045,12.344 38.022,12.320 37.998,12.296 37.991,12.289 37.984,12.282 37.977,12.276 37.960,12.259 37.943,12.243 37.925,12.227 37.923,12.225 37.921,12.223 37.918,12.221 37.655,11.981 37.348,11.795 37.032,11.652 37.031,11.651 37.030,11.651 37.029,11.650 36.981,11.628 36.932,11.607 36.884,11.587 36.883,11.587 36.883,11.587 36.883,11.587 36.841,11.569 36.799,11.553 36.756,11.537 36.270,11.351 35.790,11.255 35.436,11.204 Z M 39.790,11.503 C 39.647,11.503 39.531,11.619 39.531,11.762 39.531,11.906 39.647,12.021 39.790,12.021 39.934,12.021 40.049,11.906 40.049,11.762 40.049,11.619 39.934,11.503 39.790,11.503 Z M 47.777,11.505 C 47.633,11.505 47.518,11.620 47.518,11.764 47.518,11.907 47.633,12.023 47.777,12.023 47.920,12.023 48.036,11.907 48.036,11.764 48.036,11.620 47.920,11.505 47.777,11.505 Z M 35.312,11.806 C 35.320,11.806 35.320,11.806 35.320,11.806 35.655,11.853 35.987,11.924 36.308,12.028 36.729,12.166 37.141,12.355 37.478,12.648 37.632,12.779 37.765,12.936 37.868,13.112 37.936,13.226 37.989,13.349 38.035,13.473 37.697,13.932 37.398,14.418 37.137,14.924 36.724,15.724 36.402,16.572 36.181,17.445 36.083,17.839 36.002,18.237 35.950,18.640 35.857,19.353 35.776,20.069 35.771,20.788 35.771,21.876 35.875,22.960 35.972,24.043 34.206,24.043 32.441,24.043 30.675,24.042 30.669,24.031 30.658,24.021 30.656,24.008 30.691,23.171 30.763,22.336 30.876,21.508 31.002,20.592 31.172,19.680 31.418,18.788 31.488,18.516 31.594,18.251 31.721,17.999 31.934,17.591 32.163,17.192 32.396,16.796 33.107,15.593 33.857,14.413 34.564,13.207 34.829,12.748 35.097,12.290 35.312,11.806 Z M 40.936,12.809 C 42.060,12.809 42.060,12.809 42.060,12.809 42.060,13.000 42.060,13.000 42.060,13.000 42.060,14.529 42.060,14.529 42.060,14.529 42.060,14.698 42.401,16.268 43.724,16.159 41.822,14.257 43.551,13.000 43.551,13.000 43.551,12.809 43.551,12.809 43.551,12.809 46.509,12.809 46.509,12.809 46.509,12.809 46.488,12.912 46.481,13.274 46.463,13.320 47.446,14.154 47.240,15.920 46.072,16.332 44.166,16.648 44.166,16.648 44.166,16.648 43.249,16.734 42.334,16.845 41.416,16.914 41.341,16.917 41.267,16.927 41.192,16.930 41.134,16.935 41.076,16.911 41.026,16.887 40.541,16.582 39.895,16.224 39.751,15.687 39.660,15.348 39.445,14.145 39.953,13.637 40.274,13.316 40.654,12.911 40.936,12.809 Z M 47.061,12.809 C 48.929,12.809 48.929,12.809 48.929,12.809 48.426,12.963 48.007,13.246 48.007,13.246 47.979,13.275 47.953,13.305 47.929,13.336 47.847,13.440 47.790,13.561 47.746,13.685 47.684,13.860 47.642,14.042 47.605,14.224 47.603,14.229 47.602,14.241 47.601,14.242 47.585,14.090 47.529,13.947 47.457,13.814 47.344,13.604 47.191,13.419 47.025,13.249 47.024,13.248 47.023,13.247 47.022,13.246 Z M 40.314,12.815 C 40.300,12.816 40.288,12.817 40.272,12.819 40.288,12.817 40.300,12.816 40.314,12.815 Z M 40.264,12.820 C 40.235,12.824 40.202,12.828 40.166,12.834 40.202,12.828 40.235,12.824 40.264,12.820 Z M 38.562,13.141 C 38.570,13.163 38.579,13.185 38.588,13.209 38.579,13.185 38.570,13.163 38.562,13.141 Z M 38.598,13.236 C 38.614,13.281 38.630,13.330 38.647,13.383 38.630,13.330 38.614,13.281 38.598,13.236 Z M 38.664,13.438 C 38.668,13.452 38.672,13.465 38.677,13.479 38.672,13.465 38.668,13.452 38.664,13.438 Z M 39.346,15.663 C 39.346,15.663 39.346,15.663 39.346,15.663 39.349,15.669 39.337,15.667 39.345,15.664 Z M 37.759,15.802 C 37.762,15.807 37.752,15.805 37.757,15.802 37.758,15.802 37.759,15.801 37.759,15.802 Z M 33.554,19.043 C 33.549,19.043 33.544,19.043 33.539,19.043 33.329,19.045 33.127,19.169 33.030,19.355 32.951,19.503 32.940,19.686 33.001,19.844 33.039,19.943 33.104,20.030 33.187,20.095 33.382,19.759 33.576,19.422 33.770,19.085 33.701,19.058 33.628,19.044 33.554,19.043 Z M 33.913,19.168 C 33.719,19.504 33.524,19.841 33.330,20.177 33.496,20.245 33.693,20.231 33.846,20.140 33.974,20.067 34.075,19.940 34.116,19.796 34.149,19.679 34.146,19.553 34.107,19.440 34.071,19.333 34.002,19.237 33.913,19.168 Z " />
</svg>