<?xml version="1.0" encoding="UTF-8" standalone="no"?>
<!DOCTYPE svg PUBLIC "-//W3C//DTD SVG 20010904//EN" "http://www.w3.org/TR/2001/REC-SVG-20010904/DTD/svg10.dtd"[]>
<svg version="1.1" id="Frosty Editor v1.0.6.3" xmlns="http://www.w3.org/2000/svg" d1p1:xlink="http://www.w3.org/1999/xlink" viewBox="0 0 384 96" xmlns:d1p1="xmlns">
  <path stroke="none" fill="#ffffffff" d="M 268.791,24.828 C 268.791,23.003 268.791,23.003 268.791,23.003 266.403,20.615 266.403,20.615 266.403,20.615 220.235,20.615 220.235,20.615 220.235,20.615 220.235,18.590 220.235,18.590 220.235,18.590 212.765,18.590 212.765,18.590 212.765,18.590 212.765,18.381 212.765,18.381 212.765,18.381 216.233,18.381 216.233,18.381 216.233,18.381 216.233,15.509 216.233,15.509 216.233,15.509 225.283,16.440 225.283,16.440 225.283,16.440 237.806,16.448 237.806,16.448 237.806,16.448 237.806,3.036 237.806,3.036 237.806,3.036 225.244,3.036 225.244,3.036 225.244,3.036 214.070,3.952 214.070,3.952 214.070,3.952 212.277,2.886 212.277,2.886 212.277,2.886 200.012,2.886 200.012,2.886 200.012,2.886 200.012,4.511 200.012,4.511 200.012,4.511 196.337,4.511 196.337,4.511 196.337,4.511 194.260,2.410 194.260,2.410 194.260,2.410 188.908,2.410 188.908,2.410 188.908,2.410 188.908,2.433 188.908,2.433 188.908,2.433 188.366,2.118 187.736,1.926 187.056,1.926 185.454,1.926 184.111,2.941 183.658,4.327 174.403,4.327 174.403,4.327 174.403,4.327 174.403,2.944 174.403,2.944 174.403,2.944 161.171,2.944 161.171,2.944 161.171,2.944 159.404,2.411 159.404,2.411 159.404,2.411 150.666,2.411 150.666,2.411 150.666,2.411 143.616,1.441 143.616,1.441 143.616,1.441 133.460,1.427 133.460,1.427 133.460,1.427 133.460,16.347 133.460,16.347 133.460,16.347 144.386,16.346 144.386,16.346 144.386,16.346 151.815,16.063 151.815,16.063 151.815,16.063 155.400,16.063 155.400,16.063 155.400,16.063 155.400,17.400 155.400,17.400 155.400,17.400 159.862,17.057 159.862,17.057 159.862,17.057 159.836,19.715 159.836,19.715 159.836,19.715 162.552,19.715 162.552,19.715 162.552,19.715 162.552,21.266 162.552,21.266 162.552,21.266 154.449,21.266 154.449,21.266 154.449,21.266 154.449,18.532 154.449,18.532 154.449,18.532 122.841,18.532 122.841,18.532 122.841,18.532 122.841,21.554 122.841,21.554 122.841,21.554 122.095,21.675 121.375,21.870 120.654,22.066 120.453,22.120 120.249,22.171 120.045,22.223 118.950,22.499 117.710,22.813 116.640,23.605 115.414,24.513 114.205,26.202 113.579,27.417 110.170,27.417 110.170,27.417 110.170,27.417 110.170,28.917 110.170,28.917 110.170,28.917 122.876,28.917 122.876,28.917 122.876,28.917 122.795,29.138 122.778,29.355 122.786,29.568 110.170,29.568 110.170,29.568 110.170,29.568 110.170,30.568 110.170,30.568 110.170,30.568 122.594,30.568 122.594,30.568 122.594,30.568 122.283,30.858 121.990,31.166 121.721,31.493 110.170,31.493 110.170,31.493 110.170,31.493 110.170,32.493 110.170,32.493 110.170,32.493 120.987,32.493 120.987,32.493 120.987,32.493 120.790,32.793 120.608,33.099 120.438,33.408 110.174,33.325 110.174,33.325 110.174,33.325 110.166,34.325 110.166,34.325 110.166,34.325 119.931,34.404 119.931,34.404 119.931,34.404 119.807,34.672 119.695,34.936 119.589,35.197 110.174,35.119 110.174,35.119 110.174,35.119 110.166,36.119 110.166,36.119 110.166,36.119 119.214,36.194 119.214,36.194 119.214,36.194 119.130,36.438 119.057,36.670 118.988,36.895 110.170,36.895 110.170,36.895 110.170,36.895 110.170,37.895 110.170,37.895 110.170,37.895 118.710,37.895 118.710,37.895 118.710,37.895 118.656,38.109 118.609,38.307 118.573,38.470 110.170,38.470 110.170,38.470 110.170,38.470 110.170,39.970 110.170,39.970 110.170,39.970 112.083,39.970 112.083,39.970 112.083,39.970 112.083,41.676 112.083,41.676 112.083,41.676 109.906,41.435 107.715,41.272 105.538,41.204 105.537,41.221 105.537,41.221 105.537,41.221 102.631,41.221 102.631,41.221 102.631,41.221 102.631,45.105 102.631,45.105 102.631,45.105 104.158,45.105 104.158,45.105 104.158,45.105 104.671,45.213 104.671,45.213 104.671,45.213 104.671,45.213 104.671,45.213 104.671,45.213 105.699,45.448 106.715,45.751 107.700,46.118 110.423,47.131 112.223,48.385 113.368,50.066 114.042,51.055 114.398,52.197 114.396,53.368 114.395,54.159 114.271,54.896 113.998,55.652 106.462,81.243 106.462,81.243 106.462,81.243 105.427,83.877 105.266,86.809 106.002,89.540 105.818,92.685 105.818,92.685 105.818,92.685 126.225,94.265 126.225,94.265 126.225,94.265 126.341,94.270 126.341,94.270 126.341,94.270 126.443,94.270 126.551,94.267 126.660,94.263 126.756,94.260 126.852,94.259 126.946,94.258 127.237,94.272 128.010,94.287 128.626,93.692 129.086,93.249 129.298,92.606 129.208,91.928 129.164,91.605 129.060,91.341 128.964,91.097 128.735,90.499 128.722,89.809 128.928,89.202 134.507,67.354 134.507,67.354 134.507,67.354 134.635,67.087 134.738,66.824 134.839,66.559 134.922,66.343 135.001,66.126 135.114,65.909 135.272,65.606 135.435,65.292 135.597,65.142 135.698,65.048 135.860,64.965 136.065,64.902 136.764,64.684 137.545,64.811 138.078,64.957 138.872,65.172 139.654,65.552 140.481,65.954 143.690,67.518 147.698,67.704 152.392,66.513 156.255,65.532 159.878,63.387 162.595,60.475 163.533,59.469 164.359,58.385 165.158,57.336 168.344,53.151 168.344,53.151 168.344,53.151 168.470,52.986 169.175,52.894 169.596,52.839 170.423,52.729 170.423,52.729 170.423,52.729 171.250,52.625 172.186,52.505 173.093,52.099 174.627,51.412 175.601,50.026 175.575,48.594 175.575,45.790 175.575,45.790 175.575,45.790 175.660,45.621 175.755,45.515 175.799,45.490 175.839,45.469 175.914,45.453 176.004,45.443 178.944,47.573 178.944,47.573 178.944,47.573 180.298,47.573 180.298,47.573 180.298,47.573 181.173,50.649 181.173,50.649 181.173,50.649 184.557,50.649 184.557,50.649 184.557,50.649 184.574,50.700 184.574,50.700 184.574,50.700 184.574,50.713 184.574,50.713 184.574,50.713 184.552,51.400 184.526,52.178 184.675,52.955 184.891,54.076 185.394,55.013 186.129,55.665 186.532,56.022 186.958,56.256 187.333,56.461 187.629,56.627 187.629,56.627 187.629,56.627 188.052,56.874 188.440,57.176 188.783,57.523 188.960,57.702 189.013,57.789 189.021,57.780 189.021,88.197 189.021,88.197 189.021,88.197 189.021,92.088 192.079,95.254 195.837,95.254 203.015,95.254 203.015,95.254 203.015,95.254 206.774,95.254 209.831,92.088 209.831,88.197 209.831,57.809 209.831,57.809 209.831,57.809 209.855,57.767 209.916,57.678 210.068,57.523 210.412,57.175 210.800,56.873 211.219,56.627 211.517,56.461 211.517,56.461 211.517,56.461 211.893,56.255 212.319,56.022 212.722,55.663 213.457,55.011 213.961,54.073 214.177,52.953 214.241,52.620 214.274,52.286 214.286,51.960 217.383,51.932 217.383,51.932 217.383,51.932 220.232,51.932 220.232,51.932 220.232,51.932 220.232,49.907 220.232,49.907 220.232,49.907 266.400,49.907 266.400,49.907 266.400,49.907 268.788,47.519 268.788,47.519 268.788,47.519 268.788,45.695 268.788,45.695 268.788,45.695 277.882,41.627 277.882,41.627 277.882,41.627 277.882,35.970 277.882,35.970 277.882,35.970 277.882,34.553 277.882,34.553 277.882,34.553 277.882,28.896 277.882,28.896 277.882,28.896 268.791,24.828 268.791,24.828 268.791,24.828 Z M 266.032,34.820 C 253.028,34.820 253.028,34.820 253.028,34.820 253.028,28.768 253.028,28.768 253.028,28.768 264.458,28.768 264.458,28.768 264.458,28.768 266.032,29.537 266.032,29.537 266.032,29.537 266.032,34.820 266.032,34.820 266.032,34.820 Z M 235.223,23.616 C 251.529,23.616 251.529,23.616 251.529,23.616 251.529,37.771 251.529,37.771 251.529,37.771 235.223,37.771 235.223,37.771 235.223,37.771 235.223,23.616 235.223,23.616 235.223,23.616 Z M 233.723,34.820 C 219.019,34.820 219.019,34.820 219.019,34.820 219.019,28.768 219.019,28.768 219.019,28.768 233.723,28.768 233.723,28.768 233.723,28.768 233.723,34.820 233.723,34.820 233.723,34.820 Z M 219.019,36.320 C 233.723,36.320 233.723,36.320 233.723,36.320 233.723,39.271 233.723,39.271 233.723,39.271 253.029,39.271 253.029,39.271 253.029,39.271 253.029,36.320 253.029,36.320 253.029,36.320 266.033,36.320 266.033,36.320 266.033,36.320 266.033,41.287 266.033,41.287 266.033,41.287 264.706,42.172 264.706,42.172 264.706,42.172 219.019,42.172 219.019,42.172 219.019,42.172 219.019,36.320 219.019,36.320 219.019,36.320 Z M 265.791,24.246 C 265.791,26.773 265.791,26.773 265.791,26.773 266.032,26.881 266.032,26.881 266.032,26.881 266.032,27.867 266.032,27.867 266.032,27.867 264.805,27.268 264.805,27.268 264.805,27.268 253.028,27.268 253.028,27.268 253.028,27.268 253.028,23.616 253.028,23.616 253.028,23.616 265.161,23.616 265.161,23.616 265.161,23.616 265.791,24.246 265.791,24.246 265.791,24.246 Z M 233.723,23.616 C 233.723,27.268 233.723,27.268 233.723,27.268 219.019,27.268 219.019,27.268 219.019,27.268 219.019,23.616 219.019,23.616 219.019,23.616 233.723,23.616 233.723,23.616 233.723,23.616 Z M 186.959,48.141 C 186.959,44.316 186.959,44.316 186.959,44.316 189.622,44.312 189.622,44.312 189.622,44.312 198.212,45.322 198.212,45.322 198.212,45.322 210.724,45.322 210.724,45.322 210.724,45.322 210.623,35.036 210.623,35.036 210.623,35.036 211.517,35.036 211.517,35.036 211.517,35.036 211.517,48.140 211.517,48.140 211.517,48.140 186.959,48.140 186.959,48.140 186.959,48.140 Z M 143.821,40.407 C 143.560,43.699 140.803,46.300 137.444,46.300 133.914,46.300 131.042,43.428 131.042,39.898 131.042,36.368 133.914,33.496 137.444,33.496 140.835,33.496 143.610,36.147 143.825,39.484 143.821,40.407 143.821,40.407 143.821,40.407 Z M 130.108,42.817 C 126.893,42.817 126.893,42.817 126.893,42.817 125.361,42.817 124.115,41.550 124.115,39.993 124.115,38.436 125.362,37.169 126.893,37.169 130.037,37.169 130.037,37.169 130.037,37.169 129.722,38.021 129.542,38.937 129.542,39.897 129.542,40.929 129.747,41.913 130.108,42.817 Z M 132.449,46.014 C 133.147,46.585 133.947,47.033 134.814,47.340 134.799,47.948 134.305,48.439 133.694,48.439 126.217,48.439 126.217,48.439 126.217,48.439 125.596,48.439 125.092,47.934 125.092,47.313 125.092,47.300 125.092,47.300 125.092,47.300 125.092,47.139 125.092,47.139 125.092,47.139 125.092,46.518 125.597,46.014 126.217,46.014 132.449,46.014 132.449,46.014 132.449,46.014 Z M 136.279,47.704 C 136.292,47.706 136.305,47.708 136.318,47.710 136.304,47.717 136.290,47.725 136.276,47.732 136.278,47.723 136.278,47.713 136.279,47.704 Z M 144.263,43.872 C 147.137,43.872 147.137,43.872 147.137,43.872 147.359,43.638 147.359,43.638 147.359,43.638 147.577,43.408 147.803,43.182 148.029,42.956 148.265,42.720 148.500,42.484 148.727,42.245 149.048,41.907 149.350,41.587 149.692,41.352 150.313,40.925 151.099,40.742 152.089,40.599 152.990,40.469 153.919,40.381 154.816,40.339 170.728,40.339 170.728,40.339 170.728,40.339 171.061,40.396 171.839,40.570 172.660,40.754 173.990,41.052 175.053,41.296 175.774,41.425 175.776,41.622 175.776,41.622 175.776,41.622 165.015,41.622 165.015,41.622 165.015,41.622 163.721,41.601 162.233,41.676 161.000,42.425 160.275,42.865 159.760,43.483 159.261,44.080 158.902,44.511 158.562,44.918 158.168,45.227 157.378,45.848 156.315,46.108 155.380,46.280 153.660,46.597 151.900,46.624 150.097,46.624 141.565,46.628 141.565,46.628 141.565,46.628 142.676,45.944 143.604,44.998 144.263,43.872 Z M 175.756,39.884 C 174.948,39.727 173.794,39.469 172.989,39.289 172.018,39.071 171.251,38.899 170.904,38.846 170.847,38.837 170.847,38.837 170.847,38.837 154.782,38.838 154.782,38.838 154.782,38.838 153.803,38.883 152.825,38.976 151.875,39.113 150.838,39.262 149.754,39.488 148.842,40.114 148.370,40.439 147.981,40.849 147.638,41.212 147.420,41.442 147.194,41.668 146.968,41.894 146.809,42.053 146.651,42.211 146.495,42.371 144.944,42.371 144.944,42.371 144.944,42.371 145.140,41.780 145.265,41.158 145.315,40.515 145.320,40.515 145.320,40.515 145.320,40.515 145.321,40.406 145.321,40.406 145.321,40.406 145.332,40.237 145.347,40.069 145.347,39.897 145.347,39.758 145.333,39.622 145.326,39.484 145.343,36.252 145.343,36.252 145.343,36.252 170.832,36.252 170.832,36.252 170.832,36.252 172.049,35.035 172.049,35.035 172.049,35.035 173.823,35.035 173.823,35.035 173.823,35.035 173.823,35.032 173.823,35.032 173.823,35.032 175.698,34.948 175.698,34.948 175.698,34.948 175.756,39.884 175.756,39.884 175.756,39.884 Z M 165.552,21.632 C 173.202,21.632 173.202,21.632 173.202,21.632 173.472,22.441 173.472,22.441 173.472,22.441 165.552,22.441 165.552,22.441 165.552,22.441 165.552,21.632 165.552,21.632 165.552,21.632 Z M 173.287,14.442 C 173.089,17.848 173.089,17.848 173.089,17.848 173.112,20.132 173.112,20.132 173.112,20.132 166.579,20.132 166.579,20.132 166.579,20.132 166.579,14.442 166.579,14.442 166.579,14.442 173.287,14.442 173.287,14.442 173.287,14.442 Z M 167.104,12.938 C 166.413,12.943 165.870,12.943 165.303,12.939 165.303,8.764 165.303,8.764 165.303,8.764 165.303,8.086 165.724,7.491 166.204,7.491 166.683,7.491 167.104,8.086 167.104,8.764 167.104,12.938 167.104,12.938 167.104,12.938 Z M 173.743,33.536 C 165.978,33.536 165.978,33.536 165.978,33.536 165.978,23.941 165.978,23.941 165.978,23.941 173.972,23.941 173.972,23.941 173.972,23.941 174.108,24.349 174.108,24.349 174.108,24.349 183.424,24.349 183.424,24.349 183.424,24.349 183.424,23.825 183.424,23.825 183.424,23.825 186.175,23.791 186.175,23.791 186.175,23.791 186.175,32.976 186.175,32.976 186.175,32.976 173.743,33.536 173.743,33.536 173.743,33.536 Z M 207.515,12.900 C 207.515,8.753 207.515,8.753 207.515,8.753 207.515,8.069 207.927,7.491 208.415,7.491 208.903,7.491 209.315,8.069 209.315,8.753 209.315,12.899 209.315,12.899 209.315,12.899 208.624,12.904 208.081,12.904 207.515,12.900 Z M 206.754,14.392 C 207.302,14.399 207.774,14.403 208.288,14.403 208.321,14.403 208.357,14.403 208.391,14.403 208.391,19.241 208.391,19.241 208.391,19.241 201.467,19.241 201.467,19.241 201.467,19.241 201.361,14.354 201.361,14.354 201.361,14.354 206.015,14.354 206.015,14.354 206.015,14.354 206.015,14.382 206.015,14.382 206.015,14.382 206.754,14.392 206.754,14.392 206.754,14.392 Z M 201.497,20.641 C 209.765,20.641 209.765,20.641 209.765,20.641 209.765,21.266 209.765,21.266 209.765,21.266 201.510,21.266 201.510,21.266 201.510,21.266 201.497,20.641 201.497,20.641 201.497,20.641 Z M 201.543,22.766 C 211.516,22.766 211.516,22.766 211.516,22.766 211.516,22.774 211.516,22.774 211.516,22.774 201.547,22.981 201.547,22.981 201.547,22.981 201.543,22.766 201.543,22.766 201.543,22.766 Z M 209.208,43.823 C 198.300,43.828 198.300,43.828 198.300,43.828 189.710,42.818 189.710,42.818 189.710,42.818 186.209,42.818 186.209,42.818 186.209,42.818 186.209,35.706 186.209,35.706 186.209,35.706 189.681,35.698 189.681,35.698 189.681,35.698 194.957,34.672 194.957,34.672 194.957,34.672 199.519,34.887 199.519,34.887 199.519,34.887 209.122,35.031 209.122,35.031 209.122,35.031 209.208,43.823 209.208,43.823 209.208,43.823 Z M 189.441,23.751 C 189.566,32.953 189.566,32.953 189.566,32.953 187.675,32.953 187.675,32.953 187.675,32.953 187.675,23.773 187.675,23.773 187.675,23.773 189.441,23.751 189.441,23.751 189.441,23.751 Z M 186.709,33.453 C 186.709,33.703 186.709,33.703 186.709,33.703 186.698,33.453 186.698,33.453 186.698,33.453 186.709,33.453 186.709,33.453 186.709,33.453 Z M 186.721,34.453 C 190.291,34.452 190.291,34.452 190.291,34.452 190.771,34.475 190.771,34.475 190.771,34.475 189.584,34.708 189.584,34.708 189.584,34.708 186.208,34.708 186.208,34.708 186.208,34.708 186.208,34.533 186.208,34.533 186.208,34.533 184.954,34.533 184.954,34.533 184.954,34.533 186.721,34.453 186.721,34.453 186.721,34.453 Z M 199.564,33.387 C 191.067,32.987 191.067,32.987 191.067,32.987 190.961,25.224 190.961,25.224 190.961,25.224 197.378,24.566 197.378,24.566 197.378,24.566 211.166,24.281 211.166,24.281 211.166,24.281 211.166,33.535 211.166,33.535 211.166,33.535 209.359,33.535 209.359,33.535 209.359,33.535 209.359,33.532 209.359,33.532 209.359,33.532 199.564,33.387 199.564,33.387 199.564,33.387 Z M 180.424,20.873 C 180.424,21.350 180.424,21.350 180.424,21.350 176.270,21.350 176.270,21.350 176.270,21.350 176.119,20.897 176.119,20.897 176.119,20.897 176.086,17.936 176.086,17.936 176.086,17.936 176.203,15.947 176.203,15.947 176.203,15.947 198.394,15.947 198.394,15.947 198.394,15.947 198.497,20.632 198.497,20.632 198.497,20.632 180.424,20.873 180.424,20.873 180.424,20.873 Z M 184.008,35.532 C 185.209,35.532 185.209,35.532 185.209,35.532 185.209,35.707 185.209,35.707 185.209,35.707 185.209,43.006 185.209,43.006 185.209,43.006 185.056,43.122 185.056,43.122 185.056,43.122 184.155,43.122 184.155,43.122 184.155,43.122 184.008,43.062 184.008,43.062 184.008,43.062 184.008,35.532 184.008,35.532 184.008,35.532 Z M 225.307,6.036 C 234.807,6.036 234.807,6.036 234.807,6.036 234.807,13.448 234.807,13.448 234.807,13.448 225.514,13.448 225.514,13.448 225.514,13.448 214.368,12.302 214.368,12.302 214.368,12.302 214.368,6.937 214.368,6.937 214.368,6.937 225.307,6.036 225.307,6.036 225.307,6.036 Z M 203.014,5.886 C 211.454,5.886 211.454,5.886 211.454,5.886 212.867,6.726 212.867,6.726 212.867,6.726 212.867,14.376 212.867,14.376 212.867,14.376 213.233,14.376 213.233,14.376 213.233,14.376 213.233,15.381 213.233,15.381 213.233,15.381 209.791,15.381 209.791,15.381 209.791,15.381 209.791,14.394 209.791,14.394 209.791,14.394 209.884,14.393 209.974,14.392 210.073,14.391 210.815,14.383 210.815,14.383 210.815,14.383 210.815,8.753 210.815,8.753 210.815,8.753 210.815,7.230 209.738,5.991 208.415,5.991 207.092,5.991 206.015,7.230 206.015,8.753 206.015,12.953 206.015,12.953 206.015,12.953 202.514,12.953 202.514,12.953 202.514,12.953 202.514,7.511 202.514,7.511 202.514,7.511 203.014,7.511 203.014,7.511 203.014,7.511 203.014,5.886 203.014,5.886 203.014,5.886 Z M 187.058,3.927 C 187.926,3.927 188.633,4.557 188.633,5.332 188.633,6.107 187.926,6.737 187.058,6.737 186.190,6.737 185.483,6.107 185.483,5.332 185.483,4.557 186.190,3.927 187.058,3.927 Z M 184.176,7.328 C 184.827,8.178 185.872,8.737 187.058,8.737 189.001,8.737 190.579,7.251 190.624,5.411 193.009,5.411 193.009,5.411 193.009,5.411 195.084,7.512 195.084,7.512 195.084,7.512 201.013,7.512 201.013,7.512 201.013,7.512 201.013,12.948 201.013,12.948 201.013,12.948 174.588,12.948 174.588,12.948 174.588,12.948 174.588,12.944 174.588,12.944 174.588,12.944 173.609,12.944 173.609,12.944 173.609,12.944 173.645,7.329 173.645,7.329 173.645,7.329 184.176,7.329 184.176,7.329 184.176,7.329 Z M 151.759,13.064 C 144.330,13.347 144.330,13.347 144.330,13.347 136.460,13.347 136.460,13.347 136.460,13.347 136.460,4.427 136.460,4.427 136.460,4.427 143.310,4.427 143.310,4.427 143.310,4.427 150.360,5.397 150.360,5.397 150.360,5.397 156.150,5.407 156.150,5.407 156.150,5.407 156.150,13.065 156.150,13.065 156.150,13.065 151.759,13.064 151.759,13.064 151.759,13.064 Z M 159.550,14.073 C 158.400,14.161 158.400,14.161 158.400,14.161 158.400,13.063 158.400,13.063 158.400,13.063 157.650,13.063 157.650,13.063 157.650,13.063 157.650,5.409 157.650,5.409 157.650,5.409 158.962,5.411 158.962,5.411 158.962,5.411 159.968,5.715 159.968,5.715 159.968,5.715 159.968,13.716 159.968,13.716 159.968,13.716 159.550,14.073 159.550,14.073 159.550,14.073 Z M 161.469,13.382 C 161.469,5.944 161.469,5.944 161.469,5.944 171.405,5.944 171.405,5.944 171.405,5.944 171.405,7.328 171.405,7.328 171.405,7.328 172.145,7.328 172.145,7.328 172.145,7.328 172.109,12.943 172.109,12.943 172.109,12.943 168.603,12.943 168.603,12.943 168.603,12.943 168.603,8.764 168.603,8.764 168.603,8.764 168.603,7.235 167.526,5.991 166.203,5.991 164.880,5.991 163.802,7.235 163.802,8.764 163.802,14.420 163.802,14.420 163.802,14.420 164.541,14.431 164.541,14.431 164.541,14.431 164.730,14.434 164.903,14.435 165.079,14.437 165.079,16.715 165.079,16.715 165.079,16.715 162.867,16.715 162.867,16.715 162.867,16.715 162.900,13.435 162.900,13.435 162.900,13.435 161.469,13.382 161.469,13.382 161.469,13.382 Z M 119.189,39.971 C 119.826,39.971 119.826,39.971 119.826,39.971 119.929,39.343 119.929,39.343 119.929,39.343 119.940,39.278 121.042,32.809 124.896,30.730 127.511,29.320 127.511,29.320 127.511,29.320 124.386,29.320 124.386,29.320 124.386,29.320 124.552,29.187 124.997,28.965 126.174,28.919 127.116,28.919 127.116,28.919 127.116,28.919 127.140,27.419 127.140,27.419 127.140,27.419 126.786,27.407 126.453,27.408 126.143,27.419 117.118,27.419 117.118,27.419 117.118,27.419 117.559,26.829 118.039,26.303 118.424,26.017 119.017,25.578 119.873,25.361 120.778,25.133 120.999,25.077 121.218,25.022 121.480,24.951 122.480,24.680 123.422,24.420 124.322,24.434 125.839,24.451 125.839,24.451 125.839,24.451 125.839,21.533 125.839,21.533 125.839,21.533 151.447,21.533 151.447,21.533 151.447,21.533 151.447,24.267 151.447,24.267 151.447,24.267 164.475,24.267 164.475,24.267 164.475,24.267 164.475,34.754 164.475,34.754 164.475,34.754 143.848,34.754 143.848,34.754 143.848,34.754 143.845,35.287 143.845,35.287 143.845,35.287 142.408,33.298 140.077,31.997 137.442,31.997 134.641,31.997 132.181,33.467 130.778,35.671 126.892,35.671 126.892,35.671 126.892,35.671 124.533,35.671 122.614,37.610 122.614,39.995 122.614,42.380 124.533,44.319 126.892,44.319 130.896,44.319 130.896,44.319 130.896,44.319 130.942,44.387 130.995,44.449 131.043,44.515 126.215,44.515 126.215,44.515 126.215,44.515 124.767,44.515 123.590,45.693 123.590,47.140 123.590,47.300 123.590,47.300 123.590,47.300 123.590,47.313 123.590,47.313 123.590,47.313 123.590,47.474 123.590,47.474 123.590,47.474 123.606,47.474 123.606,47.474 123.606,47.474 123.639,48.007 123.828,48.493 124.132,48.894 119.516,48.888 119.516,48.888 119.516,48.888 118.386,46.701 116.732,45.256 114.688,44.618 115.062,42.084 115.062,42.084 115.062,42.084 115.081,42.084 115.081,42.084 115.081,42.084 115.081,39.972 115.081,39.972 115.081,39.972 119.189,39.972 119.189,39.972 119.189,39.972 Z M 149.667,63.888 C 147.396,61.176 146.419,58.707 146.795,56.547 147.190,54.283 149.005,52.864 149.741,52.373 149.953,52.369 150.177,52.355 150.384,52.355 152.903,52.355 154.976,52.690 156.326,53.326 158.027,54.126 159.561,55.943 159.509,56.768 159.324,59.760 155.015,63.442 149.667,63.888 Z M 145.725,63.593 C 144.560,63.296 143.492,62.817 142.584,62.168 141.025,61.055 140.084,59.541 140.000,58.014 139.874,55.717 141.804,53.874 145.036,52.973 144.502,53.820 144.058,54.821 143.848,55.991 143.415,58.402 144.051,60.949 145.725,63.593 Z M 172.657,45.014 C 172.577,45.249 172.577,45.249 172.577,45.249 172.577,48.622 172.577,48.622 172.577,48.622 172.581,48.825 172.297,49.170 171.869,49.362 171.368,49.587 170.726,49.668 170.046,49.755 169.209,49.866 169.209,49.866 169.209,49.866 168.210,49.996 166.843,50.174 165.959,51.335 162.772,55.521 162.772,55.521 162.772,55.521 162.656,55.673 162.543,55.814 162.429,55.964 161.944,53.639 159.423,51.467 157.605,50.612 154.928,49.351 151.176,49.263 148.504,49.409 141.359,49.802 136.738,53.326 137.004,58.180 137.076,59.495 137.525,60.776 138.273,61.940 137.164,61.722 136.122,61.745 135.177,62.039 134.539,62.237 133.996,62.540 133.563,62.939 133.015,63.446 132.703,64.045 132.453,64.528 132.285,64.851 132.160,65.170 132.038,65.490 131.955,65.705 131.876,65.922 131.763,66.139 126.069,88.298 126.069,88.298 126.069,88.298 125.758,89.246 125.700,90.260 125.893,91.232 108.987,89.922 108.987,89.922 108.987,89.922 109.029,89.207 109.029,89.207 109.029,89.207 108.956,88.958 108.956,88.958 108.956,88.958 108.318,86.772 108.432,84.404 109.277,82.290 116.848,56.592 116.848,56.592 116.848,56.592 117.211,55.599 117.396,54.516 117.398,53.373 117.400,51.597 116.865,49.869 115.849,48.378 115.218,47.452 114.428,46.626 113.489,45.882 115.592,46.274 117.242,47.601 118.317,49.839 118.593,50.387 118.593,50.387 118.593,50.387 132.124,50.387 132.124,50.387 132.124,50.387 132.215,50.399 132.324,50.405 132.447,50.405 133.472,50.404 135.452,50.019 136.069,49.596 137.233,48.795 138.671,48.284 140.147,48.123 150.100,48.123 150.100,48.123 150.100,48.123 151.975,48.123 153.811,48.095 155.655,47.755 156.770,47.549 158.051,47.229 159.097,46.406 159.615,45.999 160.022,45.511 160.415,45.040 160.854,44.514 161.269,44.017 161.780,43.707 162.686,43.157 163.912,43.105 165.003,43.122 173.982,43.122 173.982,43.122 173.982,43.122 173.400,43.566 172.926,44.224 172.657,45.014 Z M 183.440,47.648 C 182.565,44.572 182.565,44.572 182.565,44.572 179.918,44.572 179.918,44.572 179.918,44.572 177.289,42.667 177.289,42.667 177.289,42.667 177.196,34.881 177.196,34.881 177.196,34.881 182.507,34.642 182.507,34.642 182.507,34.642 182.507,44.072 182.507,44.072 182.507,44.072 183.861,44.622 183.861,44.622 183.861,44.622 185.458,44.622 185.458,44.622 185.458,44.622 185.458,47.648 185.458,47.648 185.458,47.648 183.440,47.648 183.440,47.648 183.440,47.648 Z M 211.234,52.386 C 211.145,52.845 210.967,53.213 210.734,53.420 210.583,53.554 210.338,53.689 210.078,53.830 209.956,53.897 209.834,53.965 209.710,54.037 209.060,54.417 208.463,54.882 207.935,55.417 207.681,55.675 206.909,56.458 206.836,57.580 206.938,57.589 206.938,57.589 206.938,57.589 206.833,57.589 206.833,57.589 206.833,57.589 206.833,88.196 206.833,88.196 206.833,88.196 206.833,90.433 205.121,92.253 203.017,92.253 195.839,92.253 195.839,92.253 195.839,92.253 193.735,92.253 192.023,90.434 192.023,88.196 192.023,57.589 192.023,57.589 192.023,57.589 191.927,57.589 191.927,57.589 191.927,57.589 192.021,57.583 192.021,57.583 192.021,57.583 191.951,56.461 191.177,55.675 190.922,55.417 190.394,54.881 189.797,54.417 189.144,54.035 189.023,53.964 188.899,53.896 188.776,53.829 188.517,53.687 188.273,53.554 188.123,53.420 187.890,53.213 187.712,52.846 187.623,52.387 187.537,51.941 187.556,51.366 187.575,50.811 187.592,50.249 187.592,50.249 187.592,50.249 187.386,49.642 187.386,49.642 187.386,49.642 211.251,49.642 211.251,49.642 211.251,49.642 211.284,50.823 211.284,50.823 211.284,50.823 211.301,51.373 211.319,51.943 211.234,52.386 Z M 212.979,48.973 C 212.979,48.891 212.979,48.891 212.979,48.891 213.016,48.891 213.016,48.891 213.016,48.891 213.016,21.591 213.016,21.591 213.016,21.591 217.235,21.591 217.235,21.591 217.235,21.591 217.235,23.616 217.235,23.616 217.235,23.616 217.518,23.616 217.518,23.616 217.518,23.616 217.518,46.907 217.518,46.907 217.518,46.907 217.235,46.907 217.235,46.907 217.235,46.907 217.235,48.934 217.235,48.934 217.235,48.934 212.979,48.973 212.979,48.973 212.979,48.973 Z M 265.791,46.277 C 265.161,46.907 265.161,46.907 265.161,46.907 219.018,46.907 219.018,46.907 219.018,46.907 219.018,43.672 219.018,43.672 219.018,43.672 265.158,43.672 265.158,43.672 265.158,43.672 266.032,43.090 266.032,43.090 266.032,43.090 266.032,43.643 266.032,43.643 266.032,43.643 265.791,43.751 265.791,43.751 265.791,43.751 265.791,46.277 265.791,46.277 265.791,46.277 Z M 274.885,35.970 C 274.885,39.683 274.885,39.683 274.885,39.683 267.532,42.972 267.532,42.972 267.532,42.972 267.532,27.552 267.532,27.552 267.532,27.552 274.885,30.841 274.885,30.841 274.885,30.841 274.885,34.553 274.885,34.553 274.885,34.553 274.885,35.970 274.885,35.970 274.885,35.970 Z " />
  <path stroke="none" fill="#ffffffff" d="M 143.634,30.443 C 145.199,30.443 146.472,29.170 146.472,27.605 146.472,26.040 145.199,24.767 143.634,24.767 142.069,24.767 140.796,26.040 140.796,27.605 140.796,29.170 142.069,30.443 143.634,30.443 Z M 143.634,26.267 C 144.372,26.267 144.972,26.867 144.972,27.605 144.972,28.343 144.371,28.943 143.634,28.943 142.897,28.943 142.296,28.342 142.296,27.605 142.296,26.868 142.896,26.267 143.634,26.267 Z " />
  <path stroke="none" fill="#ffffffff" d="M 155.265,45.541 C 156.353,45.541 157.238,44.656 157.238,43.567 157.238,42.479 156.353,41.594 155.265,41.594 154.177,41.594 153.291,42.479 153.291,43.567 153.291,44.656 154.176,45.541 155.265,45.541 Z M 155.265,42.594 C 155.802,42.594 156.238,43.031 156.238,43.567 156.238,44.103 155.801,44.541 155.265,44.541 154.729,44.541 154.291,44.104 154.291,43.567 154.291,43.030 154.728,42.594 155.265,42.594 Z " />
  <path stroke="none" fill="#ffffffff" d="M 151.981,30.443 C 153.546,30.443 154.819,29.170 154.819,27.605 154.819,26.040 153.546,24.767 151.981,24.767 150.416,24.767 149.143,26.040 149.143,27.605 149.143,29.170 150.416,30.443 151.981,30.443 Z M 151.981,26.267 C 152.719,26.267 153.319,26.867 153.319,27.605 153.319,28.343 152.718,28.943 151.981,28.943 151.244,28.943 150.643,28.342 150.643,27.605 150.643,26.868 151.243,26.267 151.981,26.267 Z " />
  <path stroke="none" fill="#ffffffff" d="M 137.444,37.030 C 135.863,37.030 134.577,38.316 134.577,39.897 134.577,41.478 135.863,42.764 137.444,42.764 139.025,42.764 140.312,41.478 140.312,39.897 140.312,38.316 139.025,37.030 137.444,37.030 Z M 137.444,41.265 C 136.690,41.265 136.077,40.652 136.077,39.898 136.077,39.144 136.690,38.531 137.444,38.531 138.198,38.531 138.812,39.144 138.812,39.898 138.812,40.652 138.198,41.265 137.444,41.265 Z " />
  <path stroke="none" fill="#ffffffff" d="M 127.296,56.991 C 125.717,56.991 124.433,58.275 124.433,59.853 124.433,61.432 125.718,62.716 127.296,62.716 128.874,62.716 130.159,61.432 130.159,59.853 130.159,58.275 128.875,56.991 127.296,56.991 Z M 127.296,61.217 C 126.544,61.217 125.933,60.606 125.933,59.854 125.933,59.103 126.544,58.492 127.296,58.492 128.047,58.492 128.659,59.103 128.659,59.854 128.659,60.605 128.047,61.217 127.296,61.217 Z " />
  <path stroke="none" fill="#ffffffff" d="M 169.901,18.800 C 170.947,18.800 171.797,17.949 171.797,16.904 171.797,15.859 170.946,15.008 169.901,15.008 168.856,15.008 168.005,15.859 168.005,16.904 168.005,17.949 168.855,18.800 169.901,18.800 Z M 169.901,16.007 C 170.395,16.007 170.797,16.409 170.797,16.903 170.797,17.397 170.395,17.799 169.901,17.799 169.407,17.799 169.005,17.397 169.005,16.903 169.005,16.409 169.407,16.007 169.901,16.007 Z " />
  <path stroke="none" fill="#ffffffff" d="M 204.655,14.547 C 203.609,14.547 202.759,15.398 202.759,16.443 202.759,17.488 203.610,18.339 204.655,18.339 205.700,18.339 206.551,17.488 206.551,16.443 206.551,15.398 205.701,14.547 204.655,14.547 Z M 204.655,17.340 C 204.161,17.340 203.759,16.938 203.759,16.444 203.759,15.950 204.161,15.548 204.655,15.548 205.149,15.548 205.551,15.950 205.551,16.444 205.551,16.938 205.149,17.340 204.655,17.340 Z " />
  <path stroke="none" fill="#ffffffff" d="M 121.497,78.591 C 119.918,78.591 118.634,79.875 118.634,81.454 118.634,83.033 119.919,84.317 121.497,84.317 123.075,84.317 124.360,83.033 124.360,81.454 124.360,79.875 123.076,78.591 121.497,78.591 Z M 121.497,82.817 C 120.745,82.817 120.134,82.206 120.134,81.454 120.134,80.702 120.745,80.091 121.497,80.091 122.249,80.091 122.860,80.702 122.860,81.454 122.860,82.206 122.249,82.817 121.497,82.817 Z " />
  <path stroke="none" fill="#ffffffff" d="M 199.544,67.651 C 197.965,67.651 196.681,68.935 196.681,70.514 196.681,72.092 197.965,73.376 199.544,73.376 201.123,73.376 202.407,72.092 202.407,70.514 202.407,68.936 201.123,67.651 199.544,67.651 Z M 199.544,71.877 C 198.792,71.877 198.181,71.266 198.181,70.515 198.181,69.763 198.792,69.152 199.544,69.152 200.296,69.152 200.907,69.763 200.907,70.515 200.907,71.266 200.296,71.877 199.544,71.877 Z " />
  <path stroke="none" fill="#ffffffff" d="M 203.146,52.075 C 196.081,52.075 196.081,52.075 196.081,52.075 194.720,52.075 193.612,53.182 193.612,54.544 193.612,87.416 193.612,87.416 193.612,87.416 193.612,88.777 194.719,89.886 196.081,89.886 203.146,89.886 203.146,89.886 203.146,89.886 204.507,89.886 205.615,88.778 205.615,87.416 205.615,54.544 205.615,54.544 205.615,54.544 205.614,53.183 204.507,52.075 203.146,52.075 Z M 204.114,87.416 C 204.114,87.951 203.679,88.386 203.145,88.386 196.080,88.386 196.080,88.386 196.080,88.386 195.546,88.386 195.111,87.951 195.111,87.416 195.111,54.544 195.111,54.544 195.111,54.544 195.111,54.010 195.546,53.575 196.080,53.575 203.145,53.575 203.145,53.575 203.145,53.575 203.679,53.575 204.114,54.010 204.114,54.544 204.114,87.416 204.114,87.416 204.114,87.416 Z " />
</svg>