<?xml version="1.0" encoding="UTF-8" standalone="no"?>
<!DOCTYPE svg PUBLIC "-//W3C//DTD SVG 20010904//EN" "http://www.w3.org/TR/2001/REC-SVG-20010904/DTD/svg10.dtd"[]>
<svg version="1.1" id="Frosty Editor v1.0.6.3" xmlns="http://www.w3.org/2000/svg" d1p1:xlink="http://www.w3.org/1999/xlink" viewBox="0 0 384 96" xmlns:d1p1="xmlns">
  <path stroke="none" fill="#ffffffff" d="M 278.200,42.700 C 278.200,42.200 278.600,41.700 279.200,41.700 285.600,41.700 292.000,41.700 298.400,41.700 298.900,41.700 299.400,42.100 299.400,42.700 299.400,44.000 299.400,45.300 299.400,46.600 299.400,47.100 299.000,47.600 298.400,47.600 292.000,47.600 285.600,47.600 279.200,47.600 278.700,47.600 278.200,47.200 278.200,46.600 278.200,45.300 278.200,44.000 278.200,42.700 278.200,42.700 278.200,42.700 278.200,42.700 Z M 279.200,48.600 C 285.600,48.600 292.000,48.600 298.400,48.600 299.500,48.600 300.400,47.700 300.400,46.600 300.400,45.300 300.400,44.000 300.400,42.700 300.400,41.600 299.500,40.700 298.400,40.700 292.000,40.700 285.600,40.700 279.200,40.700 278.100,40.700 277.200,41.600 277.200,42.700 277.200,44.000 277.200,45.300 277.200,46.600 277.200,47.700 278.100,48.600 279.200,48.600 279.200,48.600 279.200,48.600 279.200,48.600 Z " />
  <path stroke="none" fill="#ffffffff" d="M 80.400,52.200 C 80.100,52.733 79.800,53.267 79.500,53.800 79.400,54.000 79.300,54.200 79.200,54.400 79.200,54.600 79.200,54.800 79.200,55.000 79.200,55.300 79.200,55.600 79.200,55.900 76.933,60.900 74.667,65.900 72.400,70.900 72.267,71.233 72.133,71.567 72.000,71.900 72.133,72.233 72.267,72.567 72.400,72.900 72.667,73.500 72.933,74.100 73.200,74.700 73.000,75.200 72.800,75.700 72.600,76.200 72.500,76.200 72.400,76.300 72.100,76.300 72.000,76.300 72.000,76.300 71.900,76.300 71.900,67.133 71.900,57.967 71.900,48.800 71.900,48.733 71.900,48.667 71.900,48.600 71.867,48.500 71.833,48.400 71.800,48.300 71.800,48.200 71.800,48.100 71.800,48.100 71.900,48.100 72.000,48.100 72.300,48.100 72.900,48.100 73.400,48.400 74.500,49.300 75.900,50.300 77.600,51.500 80.400,52.200 80.400,52.200 80.400,52.200 80.400,52.200 Z M 69.300,48.800 C 69.300,48.800 69.300,75.300 69.300,76.500 69.300,77.700 69.900,78.800 72.000,78.800 74.000,78.800 74.700,77.400 74.700,77.400 75.067,76.500 75.433,75.600 75.800,74.700 75.433,73.767 75.067,72.833 74.700,71.900 77.033,66.767 79.367,61.633 81.700,56.500 81.700,56.000 81.700,55.500 81.700,55.000 82.600,53.367 83.500,51.733 84.400,50.100 76.800,50.100 75.800,45.500 72.300,45.500 68.800,45.500 69.300,48.800 69.300,48.800 69.300,48.800 69.300,48.800 69.300,48.800 Z " />
  <path stroke="none" fill="#ffffffff" d="M 204.200,59.800 C 203.067,60.867 201.933,61.933 200.800,63.000 200.000,63.000 199.200,63.000 198.400,63.000 195.900,60.400 196.600,57.600 197.400,55.900 199.433,55.900 201.467,55.900 203.500,55.900 203.500,56.967 203.500,58.033 203.500,59.100 203.733,59.100 203.967,59.100 204.200,59.100 204.200,59.333 204.200,59.567 204.200,59.800 204.200,59.800 204.200,59.800 204.200,59.800 Z M 205.000,54.400 C 201.633,54.400 198.267,54.400 194.900,54.400 194.533,55.100 194.167,55.800 193.800,56.500 192.800,58.400 192.500,60.700 193.100,62.700 193.300,63.333 193.500,63.967 193.700,64.600 196.333,64.600 198.967,64.600 201.600,64.600 203.033,63.167 204.467,61.733 205.900,60.300 205.900,59.567 205.900,58.833 205.900,58.100 205.600,58.100 205.300,58.100 205.000,58.100 205.000,56.867 205.000,55.633 205.000,54.400 205.000,54.400 205.000,54.400 205.000,54.400 Z " />
  <path stroke="none" fill="#ffffffff" d="M 206.400,45.000 C 206.200,45.300 205.900,45.400 205.500,45.400 200.000,45.400 194.500,45.400 189.000,45.400 188.400,45.400 187.900,44.900 187.900,44.300 187.900,42.033 187.900,39.767 187.900,37.500 187.900,36.900 188.400,36.400 189.000,36.400 193.933,36.400 198.867,36.400 203.800,36.400 204.300,36.400 204.800,36.800 204.900,37.300 205.433,39.567 205.967,41.833 206.500,44.100 206.700,44.400 206.600,44.700 206.400,45.000 206.400,45.000 206.400,45.000 206.400,45.000 Z M 206.000,37.000 C 205.800,36.000 204.900,35.400 203.900,35.400 198.967,35.400 194.033,35.400 189.100,35.400 187.900,35.400 187.000,36.400 187.000,37.500 187.000,39.767 187.000,42.033 187.000,44.300 187.000,45.500 188.000,46.400 189.100,46.400 194.600,46.400 200.100,46.400 205.600,46.400 206.300,46.400 206.900,46.100 207.300,45.600 207.700,45.100 207.900,44.400 207.700,43.800 207.133,41.533 206.567,39.267 206.000,37.000 206.000,37.000 206.000,37.000 206.000,37.000 Z " />
  <path stroke="none" fill="#ffffffff" d="M 225.600,42.000 C 224.200,42.000 223.100,43.100 223.100,44.500 223.100,45.900 224.200,47.000 225.600,47.000 227.000,47.000 228.100,45.900 228.100,44.500 228.100,43.200 226.900,42.000 225.600,42.000 225.600,42.000 225.600,42.000 225.600,42.000 Z " />
  <path stroke="none" fill="#ffffffff" d="M 232.100,45.700 C 231.500,45.700 230.900,45.200 230.900,44.500 230.900,43.800 231.400,43.300 232.100,43.300 232.800,43.300 233.300,43.800 233.300,44.500 233.300,45.200 232.800,45.700 232.100,45.700 232.100,45.700 232.100,45.700 232.100,45.700 Z M 232.100,42.400 C 230.900,42.400 229.900,43.400 229.900,44.600 229.900,45.800 230.900,46.800 232.100,46.800 233.300,46.800 234.300,45.800 234.300,44.600 234.300,43.400 233.300,42.400 232.100,42.400 232.100,42.400 232.100,42.400 232.100,42.400 Z " />
  <path stroke="none" fill="#ffffffff" d="M 281.800,45.800 C 282.500,45.800 283.100,45.200 283.100,44.500 283.100,43.800 282.500,43.200 281.800,43.200 281.100,43.200 280.500,43.800 280.500,44.500 280.500,45.200 281.100,45.800 281.800,45.800 281.800,45.800 281.800,45.800 281.800,45.800 Z " />
  <path stroke="none" fill="#ffffffff" d="M 296.300,45.800 C 297.000,45.800 297.600,45.200 297.600,44.500 297.600,43.800 297.000,43.200 296.300,43.200 295.600,43.200 295.000,43.800 295.000,44.500 295.000,45.200 295.600,45.800 296.300,45.800 296.300,45.800 296.300,45.800 296.300,45.800 Z " />
  <path stroke="none" fill="#ffffffff" d="M 221.800,60.900 C 225.467,60.900 229.133,60.900 232.800,60.900 232.800,61.233 232.800,61.567 232.800,61.900 229.133,61.900 225.467,61.900 221.800,61.900 221.800,61.567 221.800,61.233 221.800,60.900 Z " />
  <path stroke="none" fill="#ffffffff" d="M 221.800,67.700 C 225.467,67.700 229.133,67.700 232.800,67.700 232.800,68.033 232.800,68.367 232.800,68.700 229.133,68.700 225.467,68.700 221.800,68.700 221.800,68.367 221.800,68.033 221.800,67.700 Z " />
  <path stroke="none" fill="#ffffffff" d="M 221.800,64.300 C 225.467,64.300 229.133,64.300 232.800,64.300 232.800,64.633 232.800,64.967 232.800,65.300 229.133,65.300 225.467,65.300 221.800,65.300 221.800,64.967 221.800,64.633 221.800,64.300 Z " />
  <path stroke="none" fill="#ffffffff" d="M 232.200,12.100 C 230.500,12.100 228.800,12.100 227.100,12.100 228.233,10.700 229.367,9.300 230.500,7.900 230.633,7.900 230.767,7.900 230.900,7.900 231.100,9.100 231.700,9.700 232.200,9.900 232.200,10.633 232.200,11.367 232.200,12.100 232.200,12.100 232.200,12.100 232.200,12.100 Z M 232.800,9.100 C 232.700,9.100 231.900,8.800 231.900,7.400 231.900,7.233 231.900,7.067 231.900,6.900 231.267,6.900 230.633,6.900 230.000,6.900 228.333,8.967 226.667,11.033 225.000,13.100 227.733,13.100 230.467,13.100 233.200,13.100 233.200,11.933 233.200,10.767 233.200,9.600 233.200,9.467 233.200,9.333 233.200,9.200 233.067,9.167 232.933,9.133 232.800,9.100 232.800,9.100 232.800,9.100 232.800,9.100 Z " />
  <path stroke="none" fill="#ffffffff" d="M 130.400,47.300 C 130.300,47.700 130.000,48.100 129.400,48.200 127.567,48.400 125.733,48.600 123.900,48.800 123.000,48.900 122.200,48.600 121.600,48.000 121.100,47.500 120.900,46.800 121.000,46.200 121.033,45.967 121.067,45.733 121.100,45.500 121.200,44.900 121.600,44.300 122.200,44.000 122.900,43.600 123.800,43.600 124.600,44.000 126.267,44.767 127.933,45.533 129.600,46.300 130.300,46.400 130.500,46.900 130.400,47.300 130.400,47.300 130.400,47.300 130.400,47.300 Z M 130.100,45.200 C 128.433,44.433 126.767,43.667 125.100,42.900 124.100,42.400 122.800,42.400 121.800,43.000 120.900,43.500 120.300,44.300 120.100,45.200 120.067,45.433 120.033,45.667 120.000,45.900 119.800,46.900 120.100,47.800 120.800,48.600 121.500,49.300 122.500,49.800 123.500,49.800 123.600,49.800 123.800,49.800 123.900,49.800 125.700,49.600 127.500,49.400 129.300,49.200 130.300,49.100 131.100,48.400 131.200,47.500 131.500,46.500 131.000,45.700 130.100,45.200 130.100,45.200 130.100,45.200 130.100,45.200 Z " />
  <path stroke="none" fill="#ffffffff" d="M 123.500,44.700 C 122.700,44.700 122.100,45.300 122.100,46.100 122.100,46.900 122.700,47.500 123.500,47.500 124.300,47.500 124.900,46.900 124.900,46.100 124.900,45.300 124.300,44.700 123.500,44.700 123.500,44.700 123.500,44.700 123.500,44.700 Z " />
  <path stroke="none" fill="#ffffffff" d="M 141.900,47.100 C 141.067,47.100 140.233,47.100 139.400,47.100 138.700,47.100 138.100,46.500 138.100,45.800 138.100,45.800 138.100,45.800 138.100,45.800 138.100,45.100 138.700,44.500 139.400,44.500 140.233,44.500 141.067,44.500 141.900,44.500 142.600,44.500 143.200,45.100 143.200,45.800 143.200,46.500 142.600,47.100 141.900,47.100 141.900,47.100 141.900,47.100 141.900,47.100 Z M 160.800,43.500 C 153.600,43.500 146.400,43.500 139.200,43.500 138.000,43.500 136.900,44.500 136.900,45.800 136.900,47.000 137.900,48.100 139.200,48.100 146.400,48.100 153.600,48.100 160.800,48.100 162.000,48.100 163.100,47.100 163.100,45.800 163.000,44.500 162.000,43.500 160.800,43.500 160.800,43.500 160.800,43.500 160.800,43.500 Z " />
  <path stroke="none" fill="#ffffffff" d="M 262.900,57.400 C 262.900,59.867 262.900,62.333 262.900,64.800 257.567,64.800 252.233,64.800 246.900,64.800 246.900,63.300 246.900,61.800 246.900,60.300 247.467,59.333 248.033,58.367 248.600,57.400 253.367,57.400 258.133,57.400 262.900,57.400 262.900,57.400 262.900,57.400 262.900,57.400 Z M 245.900,60.000 C 245.900,61.933 245.900,63.867 245.900,65.800 251.900,65.800 257.900,65.800 263.900,65.800 263.900,62.667 263.900,59.533 263.900,56.400 258.600,56.400 253.300,56.400 248.000,56.400 247.300,57.600 246.600,58.800 245.900,60.000 245.900,60.000 245.900,60.000 245.900,60.000 Z " />
  <path stroke="none" fill="#ffffffff" d="M 270.300,64.800 C 270.300,63.300 270.300,61.800 270.300,60.300 270.867,59.333 271.433,58.367 272.000,57.400 276.667,57.400 281.333,57.400 286.000,57.400 285.167,59.867 284.333,62.333 283.500,64.800 279.100,64.800 274.700,64.800 270.300,64.800 270.300,64.800 270.300,64.800 270.300,64.800 Z M 287.400,56.400 C 282.067,56.400 276.733,56.400 271.400,56.400 270.700,57.600 270.000,58.800 269.300,60.000 269.300,61.933 269.300,63.867 269.300,65.800 274.300,65.800 279.300,65.800 284.300,65.800 285.333,62.667 286.367,59.533 287.400,56.400 287.400,56.400 287.400,56.400 287.400,56.400 Z " />
  <path stroke="none" fill="#ffffffff" d="M 202.800,38.400 C 198.733,38.400 194.667,38.400 190.600,38.400 190.200,38.400 189.800,38.700 189.800,39.200 189.800,39.700 190.100,40.000 190.600,40.000 194.667,40.000 198.733,40.000 202.800,40.000 203.200,40.000 203.600,39.700 203.600,39.200 203.600,38.700 203.200,38.400 202.800,38.400 202.800,38.400 202.800,38.400 202.800,38.400 Z " />
  <path stroke="none" fill="#ffffffff" d="M 202.800,41.600 C 198.733,41.600 194.667,41.600 190.600,41.600 190.200,41.600 189.800,41.900 189.800,42.400 189.800,42.900 190.100,43.200 190.600,43.200 194.667,43.200 198.733,43.200 202.800,43.200 203.200,43.200 203.600,42.900 203.600,42.400 203.600,41.900 203.200,41.600 202.800,41.600 202.800,41.600 202.800,41.600 202.800,41.600 Z " />
  <path stroke="none" fill="#ffffffff" d="M 238.900,43.200 C 238.233,43.633 237.567,44.067 236.900,44.500 237.567,44.933 238.233,45.367 238.900,45.800 246.033,45.800 253.167,45.800 260.300,45.800 260.967,45.367 261.633,44.933 262.300,44.500 261.633,44.067 260.967,43.633 260.300,43.200 253.167,43.200 246.033,43.200 238.900,43.200 Z " />
  <path stroke="none" fill="#ffffffff" d="M 320.600,48.600 C 318.067,48.600 315.533,48.600 313.000,48.600 313.000,48.867 313.000,49.133 313.000,49.400 312.200,49.400 311.400,49.400 310.600,49.400 310.600,49.733 310.600,50.067 310.600,50.400 309.700,50.400 308.800,50.400 307.900,50.400 306.500,46.667 305.100,42.933 303.700,39.200 305.967,39.200 308.233,39.200 310.500,39.200 310.500,39.533 310.500,39.867 310.500,40.200 311.300,40.200 312.100,40.200 312.900,40.200 312.900,40.467 312.900,40.733 312.900,41.000 315.400,41.000 317.900,41.000 320.400,41.000 320.400,43.533 320.400,46.067 320.400,48.600 320.467,48.600 320.533,48.600 320.600,48.600 Z M 305.400,71.700 C 304.467,71.700 303.533,71.700 302.600,71.700 304.533,66.767 306.467,61.833 308.400,56.900 309.300,56.900 310.200,56.900 311.100,56.900 309.200,61.833 307.300,66.767 305.400,71.700 305.400,71.700 305.400,71.700 305.400,71.700 Z M 236.500,54.300 C 236.500,59.900 236.500,65.500 236.500,71.100 258.267,71.100 280.033,71.100 301.800,71.100 301.100,72.867 300.400,74.633 299.700,76.400 275.567,76.400 251.433,76.400 227.300,76.400 227.300,75.733 227.300,75.067 227.300,74.400 221.433,74.400 215.567,74.400 209.700,74.400 208.600,74.067 207.500,73.733 206.400,73.400 204.667,73.400 202.933,73.400 201.200,73.400 201.200,70.833 201.200,68.267 201.200,65.700 201.200,65.700 192.100,65.700 192.000,65.700 191.300,65.300 190.700,65.100 190.200,65.100 189.200,65.100 188.400,65.600 187.900,65.900 185.500,63.900 186.000,62.800 186.700,61.300 187.100,60.500 187.500,59.600 187.500,58.500 187.500,55.700 184.700,54.900 183.200,54.800 177.967,54.800 172.733,54.800 167.500,54.800 167.400,53.800 167.300,53.300 167.300,53.300 153.567,53.600 139.833,53.900 126.100,54.200 126.100,53.467 126.100,52.733 126.100,52.000 123.033,52.000 119.967,52.000 116.900,52.000 116.900,50.900 116.900,49.800 116.900,48.700 118.200,46.200 119.500,43.700 120.800,41.200 120.833,41.167 120.867,41.133 120.900,41.100 120.900,41.100 120.900,41.100 120.900,41.100 120.900,38.333 120.900,35.567 120.900,32.800 121.300,32.167 121.700,31.533 122.100,30.900 127.400,30.900 132.700,30.900 138.000,30.900 137.300,32.100 136.600,33.300 135.900,34.500 179.300,34.500 222.700,34.500 266.100,34.500 267.200,33.100 268.300,31.700 269.400,30.300 279.533,30.300 289.667,30.300 299.800,30.300 302.433,37.400 305.067,44.500 307.700,51.600 294.500,51.567 281.300,51.533 268.100,51.500 267.933,51.833 267.767,52.167 267.600,52.500 281.433,52.533 295.267,52.567 309.100,52.600 306.900,58.400 304.700,64.200 302.500,70.000 280.933,70.000 259.367,70.000 237.800,70.000 237.800,64.767 237.800,59.533 237.800,54.300 237.367,54.300 236.933,54.300 236.500,54.300 236.500,54.300 236.500,54.300 236.500,54.300 Z M 185.900,73.000 C 183.200,74.800 183.500,77.900 183.900,79.100 181.600,80.600 181.100,82.900 181.100,85.500 181.100,88.100 178.500,89.700 178.500,89.700 178.500,90.633 178.500,91.567 178.500,92.500 178.500,92.500 167.800,92.500 165.000,92.500 162.200,92.500 159.000,86.600 159.000,86.600 159.000,86.600 161.400,78.900 163.000,76.100 164.500,73.300 167.700,68.800 167.700,68.800 167.200,68.500 166.700,68.200 166.200,67.900 166.200,67.900 166.200,67.900 166.100,67.800 168.000,64.300 167.900,58.900 167.600,55.800 172.733,55.800 177.867,55.800 183.000,55.800 183.100,55.800 186.400,56.000 186.400,58.500 186.400,59.400 186.000,60.100 185.700,60.900 184.900,62.500 184.100,64.200 187.100,66.700 185.700,69.300 185.500,71.300 185.900,73.000 185.900,73.000 185.900,73.000 185.900,73.000 Z M 95.500,41.200 C 89.800,53.533 84.100,65.867 78.400,78.200 78.400,78.200 76.700,82.800 71.600,82.800 66.500,82.800 66.500,78.700 66.500,78.700 65.467,65.767 64.433,52.833 63.400,39.900 63.400,36.600 63.400,33.300 63.400,30.000 63.833,30.000 64.267,30.000 64.700,30.000 65.367,30.667 66.033,31.333 66.700,32.000 82.167,32.000 97.633,32.000 113.100,32.000 114.067,30.333 115.033,28.667 116.000,27.000 116.467,27.000 116.933,27.000 117.400,27.000 117.400,27.900 117.400,28.800 117.400,29.700 116.833,30.767 116.267,31.833 115.700,32.900 116.967,32.900 118.233,32.900 119.500,32.900 119.500,35.667 119.500,38.433 119.500,41.200 111.500,41.200 103.500,41.200 95.500,41.200 95.500,41.200 95.500,41.200 95.500,41.200 Z M 65.500,25.600 C 65.833,25.333 66.167,25.067 66.500,24.800 82.467,24.800 98.433,24.800 114.400,24.800 114.767,25.067 115.133,25.333 115.500,25.600 114.533,27.367 113.567,29.133 112.600,30.900 97.467,30.900 82.333,30.900 67.200,30.900 66.633,30.333 66.067,29.767 65.500,29.200 65.500,28.000 65.500,26.800 65.500,25.600 65.500,25.600 65.500,25.600 65.500,25.600 Z M 141.800,25.900 C 142.400,25.600 143.000,25.300 143.600,25.000 143.867,24.433 144.133,23.867 144.400,23.300 171.767,23.300 199.133,23.300 226.500,23.300 227.067,23.867 227.633,24.433 228.200,25.000 229.233,25.000 230.267,25.000 231.300,25.000 233.767,26.333 236.233,27.667 238.700,29.000 238.700,29.333 238.700,29.667 238.700,30.000 240.167,30.000 241.633,30.000 243.100,30.000 243.100,29.633 243.100,29.267 243.100,28.900 243.967,28.033 244.833,27.167 245.700,26.300 261.800,26.300 277.900,26.300 294.000,26.300 294.800,27.100 295.600,27.900 296.400,28.700 296.400,28.967 296.400,29.233 296.400,29.500 287.133,29.500 277.867,29.500 268.600,29.500 267.500,30.900 266.400,32.300 265.300,33.700 229.000,33.700 192.700,33.700 156.400,33.700 157.767,30.900 159.133,28.100 160.500,25.300 160.133,25.300 159.767,25.300 159.400,25.300 158.033,28.100 156.667,30.900 155.300,33.700 155.033,33.700 154.767,33.700 154.500,33.700 155.867,30.900 157.233,28.100 158.600,25.300 158.233,25.300 157.867,25.300 157.500,25.300 156.133,28.100 154.767,30.900 153.400,33.700 153.133,33.700 152.867,33.700 152.600,33.700 153.967,30.900 155.333,28.100 156.700,25.300 156.333,25.300 155.967,25.300 155.600,25.300 154.233,28.100 152.867,30.900 151.500,33.700 151.233,33.700 150.967,33.700 150.700,33.700 152.067,30.900 153.433,28.100 154.800,25.300 154.433,25.300 154.067,25.300 153.700,25.300 152.333,28.100 150.967,30.900 149.600,33.700 149.333,33.700 149.067,33.700 148.800,33.700 150.167,30.900 151.533,28.100 152.900,25.300 152.533,25.300 152.167,25.300 151.800,25.300 150.433,28.100 149.067,30.900 147.700,33.700 147.433,33.700 147.167,33.700 146.900,33.700 148.267,30.900 149.633,28.100 151.000,25.300 150.633,25.300 150.267,25.300 149.900,25.300 148.533,28.100 147.167,30.900 145.800,33.700 145.533,33.700 145.267,33.700 145.000,33.700 146.367,30.900 147.733,28.100 149.100,25.300 148.733,25.300 148.367,25.300 148.000,25.300 146.633,28.100 145.267,30.900 143.900,33.700 143.633,33.700 143.367,33.700 143.100,33.700 144.467,30.900 145.833,28.100 147.200,25.300 146.833,25.300 146.467,25.300 146.100,25.300 144.733,28.100 143.367,30.900 142.000,33.700 140.467,33.700 138.933,33.700 137.400,33.700 138.867,31.100 140.333,28.500 141.800,25.900 141.800,25.900 141.800,25.900 141.800,25.900 Z M 230.200,21.300 C 230.200,21.867 230.200,22.433 230.200,23.000 229.900,23.000 229.600,23.000 229.300,23.000 229.300,22.433 229.300,21.867 229.300,21.300 229.300,21.300 229.300,21.300 229.300,21.300 229.600,21.300 229.900,21.300 230.200,21.300 230.200,21.300 230.200,21.300 230.200,21.300 Z M 192.700,18.500 C 207.100,18.500 221.500,18.500 235.900,18.500 235.900,19.200 235.900,19.900 235.900,20.600 235.400,20.600 234.900,20.600 234.400,20.600 234.400,20.967 234.400,21.333 234.400,21.700 233.700,21.700 233.000,21.700 232.300,21.700 232.300,20.900 232.300,20.100 232.300,19.300 230.667,19.300 229.033,19.300 227.400,19.300 227.400,19.967 227.400,20.633 227.400,21.300 227.400,21.300 227.400,21.300 227.400,21.300 215.867,21.300 204.333,21.300 192.800,21.300 192.800,20.367 192.800,19.433 192.800,18.500 192.767,18.500 192.733,18.500 192.700,18.500 Z M 203.500,11.500 C 210.267,11.500 217.033,11.500 223.800,11.500 226.233,9.000 228.667,6.500 231.100,4.000 231.500,3.600 232.000,3.400 232.400,3.400 233.400,3.400 234.300,4.200 234.300,5.300 234.300,8.867 234.300,12.433 234.300,16.000 234.800,16.000 235.300,16.000 235.800,16.000 235.800,16.500 235.800,17.000 235.800,17.500 224.000,17.500 212.200,17.500 200.400,17.500 201.433,15.500 202.467,13.500 203.500,11.500 203.500,11.500 203.500,11.500 203.500,11.500 Z M 316.000,38.000 C 316.000,37.733 316.000,37.467 316.000,37.200 315.200,37.200 314.400,37.200 313.600,37.200 313.600,36.867 313.600,36.533 313.600,36.200 310.667,36.200 307.733,36.200 304.800,36.200 303.633,33.100 302.467,30.000 301.300,26.900 300.467,26.900 299.633,26.900 298.800,26.900 297.600,25.700 296.400,24.500 295.200,23.300 278.267,23.300 261.333,23.300 244.400,23.300 243.233,24.467 242.067,25.633 240.900,26.800 239.667,26.133 238.433,25.467 237.200,24.800 237.267,24.800 237.333,24.800 237.400,24.800 237.400,24.433 237.400,24.067 237.400,23.700 237.900,23.700 238.400,23.700 238.900,23.700 238.900,20.133 238.900,16.567 238.900,13.000 238.400,13.000 237.900,13.000 237.400,13.000 237.400,10.467 237.400,7.933 237.400,5.400 237.400,2.700 235.200,0.500 232.500,0.500 231.200,0.500 229.900,1.000 229.000,2.000 226.867,4.200 224.733,6.400 222.600,8.600 215.633,8.600 208.667,8.600 201.700,8.600 200.533,10.933 199.367,13.267 198.200,15.600 195.367,15.600 192.533,15.600 189.700,15.600 189.700,17.200 189.700,18.800 189.700,20.400 173.967,20.400 158.233,20.400 142.500,20.400 142.133,21.200 141.767,22.000 141.400,22.800 141.067,22.967 140.733,23.133 140.400,23.300 140.067,23.633 139.733,23.967 139.400,24.300 138.633,25.567 137.867,26.833 137.100,28.100 131.567,28.100 126.033,28.100 120.500,28.100 120.500,26.767 120.500,25.433 120.500,24.100 120.000,24.100 119.500,24.100 119.000,24.100 119.000,23.800 119.000,23.500 119.000,23.200 118.400,22.800 117.800,22.400 117.200,22.000 99.967,22.000 82.733,22.000 65.500,22.000 64.500,22.767 63.500,23.533 62.500,24.300 62.500,25.200 62.500,26.100 62.500,27.000 61.833,27.000 61.167,27.000 60.500,27.000 60.500,31.400 60.500,35.800 60.500,40.200 61.533,53.100 62.567,66.000 63.600,78.900 63.700,81.700 65.900,85.900 71.700,85.900 78.300,85.900 80.800,80.500 81.200,79.500 86.633,67.767 92.067,56.033 97.500,44.300 103.600,44.300 109.700,44.300 115.800,44.300 115.133,45.567 114.467,46.833 113.800,48.100 113.800,50.433 113.800,52.767 113.800,55.100 116.867,55.100 119.933,55.100 123.000,55.100 123.000,55.833 123.000,56.567 123.000,57.300 136.867,57.000 150.733,56.700 164.600,56.400 164.800,58.800 165.000,63.700 163.500,66.500 163.133,67.167 162.767,67.833 162.400,68.500 162.800,68.900 163.200,69.300 163.600,69.700 162.500,71.300 161.300,73.300 160.400,74.800 158.800,77.800 156.500,85.000 156.200,85.800 156.167,85.867 156.133,85.933 156.100,86.000 156.167,86.667 156.233,87.333 156.300,88.000 156.333,88.067 156.367,88.133 156.400,88.200 157.600,90.400 160.900,95.600 165.000,95.600 170.500,95.600 176.000,95.600 181.500,95.600 181.500,94.133 181.500,92.667 181.500,91.200 182.600,90.100 184.100,88.200 184.100,85.600 184.100,83.200 184.700,82.300 185.600,81.700 186.200,81.300 186.800,80.900 187.400,80.500 187.200,79.800 187.000,79.100 186.800,78.400 186.700,78.200 186.300,76.500 187.600,75.600 188.167,75.233 188.733,74.867 189.300,74.500 189.167,73.833 189.033,73.167 188.900,72.500 188.700,71.800 188.700,70.600 189.700,68.500 189.900,68.400 190.100,68.300 190.200,68.300 190.200,68.300 190.200,68.300 190.300,68.300 191.100,68.900 191.800,68.900 194.500,68.900 195.600,68.900 197.000,68.900 198.300,68.900 198.300,71.433 198.300,73.967 198.300,76.500 200.900,76.500 203.500,76.500 206.100,76.500 207.100,76.800 208.100,77.100 209.100,77.400 214.233,77.433 219.367,77.467 224.500,77.500 224.500,78.167 224.500,78.833 224.500,79.500 250.300,79.500 276.100,79.500 301.900,79.500 302.533,77.933 303.167,76.367 303.800,74.800 305.100,74.800 306.400,74.800 307.700,74.800 310.400,67.867 313.100,60.933 315.800,54.000 314.533,54.000 313.267,54.000 312.000,54.000 312.067,53.833 312.133,53.667 312.200,53.500 312.767,53.500 313.333,53.500 313.900,53.500 313.900,53.167 313.900,52.833 313.900,52.500 314.700,52.500 315.500,52.500 316.300,52.500 316.300,52.233 316.300,51.967 316.300,51.700 318.800,51.700 321.300,51.700 323.800,51.700 323.800,47.133 323.800,42.567 323.800,38.000 321.200,38.000 318.600,38.000 316.000,38.000 316.000,38.000 316.000,38.000 316.000,38.000 Z " />
  <path stroke="none" fill="#ffffffff" d="M 224.600,51.600 C 220.900,51.600 217.800,48.600 217.800,44.800 217.800,44.633 217.800,44.467 217.800,44.300 217.800,40.600 220.800,37.500 224.600,37.500 231.967,37.500 239.333,37.500 246.700,37.500 246.833,37.833 246.967,38.167 247.100,38.500 252.533,38.500 257.967,38.500 263.400,38.500 264.567,41.500 265.733,44.500 266.900,47.500 266.200,48.867 265.500,50.233 264.800,51.600 251.400,51.600 238.000,51.600 224.600,51.600 224.600,51.600 224.600,51.600 224.600,51.600 Z M 268.000,47.600 C 268.000,47.600 268.000,47.600 268.000,47.600 268.000,47.600 268.000,47.600 268.000,47.600 266.667,44.233 265.333,40.867 264.000,37.500 258.567,37.500 253.133,37.500 247.700,37.500 247.567,37.167 247.433,36.833 247.300,36.500 239.733,36.500 232.167,36.500 224.600,36.500 220.300,36.500 216.800,40.000 216.800,44.300 216.800,44.467 216.800,44.633 216.800,44.800 216.800,49.100 220.300,52.600 224.600,52.600 238.200,52.633 251.800,52.667 265.400,52.700 266.267,51.000 267.133,49.300 268.000,47.600 268.000,47.600 268.000,47.600 268.000,47.600 Z " />
</svg>