<?xml version="1.0" encoding="UTF-8" standalone="no"?>
<!DOCTYPE svg PUBLIC "-//W3C//DTD SVG 20010904//EN" "http://www.w3.org/TR/2001/REC-SVG-20010904/DTD/svg10.dtd"[]>
<svg version="1.1" id="Frosty Editor v1.0.6.3" xmlns="http://www.w3.org/2000/svg" d1p1:xlink="http://www.w3.org/1999/xlink" viewBox="0 0 96 96" xmlns:d1p1="xmlns">
  <path stroke="none" fill="none" d="M 57.020,48.600 C 58.470,47.150 59.920,45.700 61.370,44.250 62.843,44.250 64.317,44.250 65.790,44.250 65.790,42.287 65.790,40.323 65.790,38.360 63.827,38.360 61.863,38.360 59.900,38.360 59.900,39.763 59.900,41.167 59.900,42.570 58.077,44.393 56.253,46.217 54.430,48.040 54.430,39.810 54.430,31.580 54.430,23.350 50.173,23.350 45.917,23.350 41.660,23.350 41.627,29.733 41.593,36.117 41.560,42.500 35.423,42.500 29.287,42.500 23.150,42.500 23.150,46.750 23.150,51.000 23.150,55.250 31.250,55.250 39.350,55.250 47.450,55.250 45.917,56.727 44.383,58.203 42.850,59.680 41.473,59.680 40.097,59.680 38.720,59.680 38.720,61.583 38.720,63.487 38.720,65.390 40.707,65.390 42.693,65.390 44.680,65.390 44.680,63.977 44.680,62.563 44.680,61.150 46.643,59.187 48.607,57.223 50.570,55.260 52.370,55.260 54.170,55.260 55.970,55.260 55.970,62.320 55.970,69.380 55.970,76.440 58.213,75.460 60.457,74.480 62.700,73.500 62.700,67.420 62.700,61.340 62.700,55.260 66.417,55.260 70.133,55.260 73.850,55.260 73.850,53.040 73.850,50.820 73.850,48.600 68.240,48.600 62.630,48.600 57.020,48.600 57.020,48.600 57.020,48.600 57.020,48.600 Z " />
  <path stroke="none" fill="#ffffffff" d="M 62.700,55.260 C 62.700,61.337 62.700,67.413 62.700,73.490 60.467,74.473 58.233,75.457 56.000,76.440 56.000,69.380 56.000,62.320 56.000,55.260 54.200,55.260 52.400,55.260 50.600,55.260 48.637,57.223 46.673,59.187 44.710,61.150 44.710,62.567 44.710,63.983 44.710,65.400 42.710,65.400 40.710,65.400 38.710,65.400 38.710,63.493 38.710,61.587 38.710,59.680 40.090,59.680 41.470,59.680 42.850,59.680 44.380,58.203 45.910,56.727 47.440,55.250 39.343,55.250 31.247,55.250 23.150,55.250 23.150,51.000 23.150,46.750 23.150,42.500 29.287,42.500 35.423,42.500 41.560,42.500 41.593,36.117 41.627,29.733 41.660,23.350 45.917,23.350 50.173,23.350 54.430,23.350 54.430,31.567 54.430,39.783 54.430,48.000 56.253,46.177 58.077,44.353 59.900,42.530 59.900,41.140 59.900,39.750 59.900,38.360 61.863,38.360 63.827,38.360 65.790,38.360 65.790,40.323 65.790,42.287 65.790,44.250 64.317,44.250 62.843,44.250 61.370,44.250 59.913,45.700 58.457,47.150 57.000,48.600 62.617,48.600 68.233,48.600 73.850,48.600 73.850,50.820 73.850,53.040 73.850,55.260 70.133,55.260 66.417,55.260 62.700,55.260 Z M 49.000,15.500 C 35.451,15.500 23.235,23.662 18.050,36.180 12.865,48.698 15.731,63.107 25.312,72.688 34.893,82.269 49.302,85.135 61.820,79.950 74.338,74.765 82.500,62.549 82.500,49.000 82.500,40.115 78.971,31.594 72.688,25.312 66.406,19.029 57.885,15.500 49.000,15.500 49.000,15.500 49.000,15.500 49.000,15.500 Z " />
</svg>