<?xml version="1.0" encoding="UTF-8" standalone="no"?>
<!DOCTYPE svg PUBLIC "-//W3C//DTD SVG 20010904//EN" "http://www.w3.org/TR/2001/REC-SVG-20010904/DTD/svg10.dtd"[]>
<svg version="1.1" id="Frosty Editor v1.0.6.3" xmlns="http://www.w3.org/2000/svg" d1p1:xlink="http://www.w3.org/1999/xlink" viewBox="0 0 25 25" xmlns:d1p1="xmlns">
  <path stroke="none" fill="#ffffffff" d="M 5.655,8.670 C 5.655,10.539 5.655,10.539 5.655,10.539 6.952,10.539 6.952,10.539 6.952,10.539 7.359,10.456 7.767,10.373 8.174,10.290 8.174,10.764 8.174,10.764 8.174,10.764 3.986,10.764 3.986,10.764 3.986,10.764 3.986,11.487 3.986,11.487 3.986,11.487 3.811,11.487 3.811,11.487 3.811,11.487 3.811,11.288 3.811,11.288 3.811,11.288 3.811,11.038 3.611,10.864 3.387,10.864 3.162,10.864 2.938,11.038 2.938,11.263 2.938,11.462 2.938,11.462 2.938,11.462 2.839,11.462 2.839,11.462 2.839,11.462 2.465,11.420 2.091,11.379 1.717,11.337 1.567,11.337 1.443,11.462 1.443,11.612 1.443,11.711 1.443,11.711 1.443,11.711 1.318,11.711 1.318,11.711 1.318,11.711 1.318,12.409 1.318,12.409 1.318,12.409 1.418,12.409 1.418,12.409 1.418,12.409 1.418,13.157 1.418,13.157 1.418,13.157 1.418,13.307 1.543,13.431 1.692,13.431 2.066,13.382 2.440,13.332 2.814,13.282 3.013,13.282 3.013,13.282 3.013,13.282 3.013,13.606 3.013,13.606 3.013,13.606 4.509,13.606 4.509,13.606 4.509,13.606 4.509,13.282 4.509,13.282 4.509,13.282 6.678,13.282 6.678,13.282 6.678,13.282 6.678,13.332 6.678,13.332 6.678,13.332 7.060,13.373 7.443,13.415 7.825,13.456 8.148,13.781 8.148,13.781 8.148,13.781 8.173,13.806 8.299,13.930 8.049,14.230 7.825,14.554 6.778,16.124 6.703,16.373 6.678,16.423 6.478,16.972 6.877,17.271 7.193,17.462 7.509,17.653 7.825,17.844 7.875,17.869 7.924,17.894 7.999,17.894 8.049,17.894 8.074,17.894 8.124,17.869 8.249,17.819 8.323,17.670 8.373,17.445 8.373,17.420 8.373,17.420 8.373,17.420 8.365,17.304 8.357,17.187 8.348,17.071 8.797,16.406 9.246,15.741 9.694,15.077 9.927,14.935 10.160,14.794 10.392,14.653 10.417,14.703 10.442,14.753 10.492,14.827 10.642,15.052 10.916,15.326 11.365,15.376 11.489,15.376 11.489,15.376 11.489,15.376 11.564,15.376 11.664,15.351 11.664,15.351 11.864,15.326 12.387,15.127 12.387,15.102 12.462,15.077 12.686,14.952 12.736,14.853 12.836,14.703 12.910,14.428 12.761,13.905 12.985,13.947 13.210,13.988 13.434,14.030 13.968,14.030 13.968,14.030 13.968,14.030 13.993,13.955 14.021,13.881 14.051,13.807 14.596,12.491 15.880,11.634 17.303,11.634 18.237,11.634 19.133,12.004 19.793,12.664 20.276,13.147 20.604,13.757 20.745,14.414 21.449,14.369 22.153,14.324 22.858,14.279 23.107,14.254 23.581,14.080 23.556,13.507 23.531,13.332 23.456,13.182 23.307,13.058 23.182,12.983 23.057,12.933 22.933,12.933 22.883,12.933 22.808,12.933 22.758,12.958 22.650,12.983 22.542,13.008 22.434,13.032 22.434,11.437 22.434,11.437 22.434,11.437 22.210,11.437 22.210,11.437 22.210,11.437 22.210,11.263 22.210,11.263 22.210,11.263 22.210,11.013 22.010,10.839 21.786,10.839 21.536,10.839 21.362,11.038 21.362,11.263 21.362,11.437 21.362,11.437 21.362,11.437 21.013,11.437 21.013,11.437 21.013,11.437 21.013,11.038 21.013,11.038 21.013,11.038 14.207,11.038 14.207,11.038 14.207,11.038 14.207,11.487 14.207,11.487 14.207,11.487 13.509,11.487 13.509,11.487 13.509,11.487 13.509,10.764 13.509,10.764 13.509,10.764 13.334,10.764 13.334,10.764 13.334,10.764 13.310,10.648 13.284,10.531 13.259,10.415 12.911,10.415 12.911,10.415 12.911,10.415 12.811,10.290 12.711,10.165 12.611,10.041 12.562,9.991 12.487,9.941 12.412,9.941 12.387,9.941 12.387,9.941 12.387,9.941 12.312,9.941 12.238,9.991 12.188,10.066 12.105,10.182 12.021,10.298 11.938,10.415 11.240,10.415 11.240,10.415 11.240,10.415 11.199,10.531 11.157,10.648 11.116,10.764 9.146,10.764 9.146,10.764 9.146,10.764 9.146,10.465 9.146,10.465 9.146,10.465 10.742,10.465 10.742,10.465 10.742,10.465 10.742,10.166 10.742,10.166 10.742,10.166 11.066,10.166 11.066,10.166 11.066,10.166 11.166,10.116 11.265,10.066 11.365,10.016 11.365,9.941 11.365,9.941 11.365,9.941 11.514,9.941 11.514,9.941 11.514,9.941 11.514,9.717 11.514,9.717 11.514,9.717 11.365,9.717 11.365,9.717 11.365,9.717 11.365,9.642 11.365,9.642 11.365,9.642 11.265,9.592 11.166,9.542 11.066,9.493 10.742,9.493 10.742,9.493 10.742,9.493 10.742,8.795 10.742,8.795 10.742,8.795 8.947,8.795 8.947,8.795 8.947,8.795 8.947,8.894 8.947,8.894 8.947,8.894 8.847,8.869 8.772,8.869 8.673,8.869 8.523,8.869 8.398,8.894 8.249,8.919 8.224,8.927 8.199,8.936 8.174,8.944 8.174,8.994 8.174,8.994 8.174,8.994 7.775,8.886 7.376,8.778 6.977,8.670 Z M 17.303,12.141 C 16.085,12.141 14.987,12.875 14.521,14.001 14.054,15.127 14.312,16.422 15.173,17.284 16.035,18.146 17.331,18.403 18.456,17.937 19.582,17.471 20.316,16.372 20.316,15.154 20.316,14.355 19.999,13.589 19.434,13.024 18.869,12.459 18.102,12.141 17.303,12.141 Z M 16.009,13.132 C 18.602,13.132 18.602,13.132 18.602,13.132 18.849,13.146 19.040,13.356 19.030,13.604 19.030,15.820 19.030,15.820 19.030,15.820 19.031,15.946 18.983,16.067 18.898,16.159 18.466,16.619 18.035,17.079 17.604,17.539 17.527,17.625 17.417,17.674 17.301,17.674 17.186,17.674 17.076,17.625 16.999,17.539 16.568,17.079 16.138,16.619 15.707,16.159 15.624,16.067 15.578,15.947 15.578,15.822 15.578,13.604 15.578,13.604 15.578,13.604 15.568,13.355 15.760,13.144 16.009,13.132 Z M 12.088,13.880 C 12.254,13.897 12.420,13.913 12.586,13.930 12.595,13.955 12.603,13.980 12.611,14.005 12.811,14.554 12.661,14.803 12.562,14.853 12.412,14.927 12.412,14.927 12.412,14.927 12.138,15.077 11.689,15.177 11.689,15.177 11.639,15.177 11.639,15.177 11.639,15.177 11.565,15.177 11.565,15.177 11.565,15.177 11.514,15.177 11.514,15.177 11.514,15.177 11.415,15.177 11.415,15.177 11.415,15.177 11.041,15.127 10.817,14.902 10.667,14.703 10.617,14.653 10.592,14.578 10.567,14.553 10.667,14.495 10.766,14.437 10.866,14.379 10.933,14.396 10.999,14.412 11.066,14.429 11.099,14.545 11.133,14.661 11.166,14.778 11.224,14.803 11.282,14.828 11.340,14.853 11.390,14.944 11.440,15.035 11.489,15.127 11.547,15.077 11.606,15.027 11.664,14.977 11.664,14.952 11.664,14.952 11.664,14.952 11.614,14.728 11.565,14.080 11.789,13.955 11.889,13.930 11.988,13.905 12.088,13.880 Z " />
</svg>