<?xml version="1.0" encoding="UTF-8" standalone="no"?>
<!DOCTYPE svg PUBLIC "-//W3C//DTD SVG 20010904//EN" "http://www.w3.org/TR/2001/REC-SVG-20010904/DTD/svg10.dtd"[]>
<svg version="1.1" id="Frosty Editor v1.0.6.3" xmlns="http://www.w3.org/2000/svg" d1p1:xlink="http://www.w3.org/1999/xlink" viewBox="0 0 25 25" xmlns:d1p1="xmlns">
  <path stroke="none" fill="#ffffffff" d="M 10.737,2.260 C 10.927,2.355 11.100,2.482 11.248,2.634 11.895,3.908 12.220,5.320 12.195,6.749 12.118,7.314 12.002,7.874 11.848,8.424 11.827,8.499 11.803,8.574 11.778,8.649 10.036,8.861 8.455,9.717 7.326,11.020 7.304,10.954 7.286,10.886 7.277,10.817 7.286,10.333 7.404,9.858 7.622,9.426 7.644,9.393 7.667,9.362 7.690,9.330 7.851,9.086 8.050,8.722 8.050,8.722 8.029,8.740 8.008,8.759 7.986,8.778 7.991,8.769 7.996,8.760 8.001,8.751 7.939,8.809 7.877,8.865 7.816,8.923 7.651,9.064 7.418,9.276 7.177,9.511 6.283,10.340 5.589,11.363 5.147,12.499 4.770,13.354 4.560,14.274 4.529,15.208 4.329,19.581 8.077,23.144 12.465,23.144 12.521,23.144 12.521,23.144 12.521,23.144 13.299,23.144 14.071,23.026 14.813,22.794 18.108,21.797 20.592,18.773 20.616,15.202 20.616,11.596 19.114,9.935 18.702,9.244 18.291,8.554 16.853,7.672 16.853,7.672 17.361,8.403 17.757,9.206 18.029,10.053 18.210,10.566 18.316,11.071 18.359,11.557 18.131,11.235 17.877,10.930 17.594,10.648 17.039,10.093 16.400,9.641 15.707,9.304 15.745,8.959 15.768,8.567 15.777,8.090 15.801,6.879 14.790,5.062 13.837,4.119 13.761,4.007 13.682,3.893 13.600,3.778 12.762,3.079 11.787,2.560 10.737,2.260 Z M 12.505,9.544 C 12.505,9.544 12.505,9.544 12.506,9.544 12.506,9.544 12.506,9.544 12.507,9.544 12.589,9.544 12.670,9.547 12.751,9.550 12.797,9.552 12.842,9.554 12.888,9.557 12.972,9.562 13.056,9.568 13.139,9.576 13.142,9.576 13.144,9.577 13.147,9.577 13.154,9.578 13.160,9.579 13.167,9.580 13.253,9.589 13.338,9.600 13.422,9.612 13.441,9.615 13.461,9.617 13.480,9.620 13.562,9.633 13.643,9.647 13.724,9.663 13.758,9.670 13.791,9.678 13.825,9.685 13.908,9.703 13.992,9.722 14.074,9.743 14.157,9.764 14.239,9.788 14.321,9.813 14.352,9.822 14.384,9.832 14.416,9.842 14.490,9.866 14.563,9.890 14.636,9.917 14.637,9.917 14.638,9.918 14.640,9.919 14.664,9.927 14.688,9.937 14.712,9.946 14.786,9.974 14.859,10.003 14.932,10.033 14.937,10.035 14.943,10.037 14.949,10.040 14.952,10.041 14.955,10.042 14.958,10.044 15.045,10.081 15.132,10.120 15.217,10.161 15.221,10.163 15.225,10.164 15.228,10.166 15.236,10.170 15.243,10.174 15.251,10.178 15.335,10.218 15.417,10.260 15.499,10.305 16.746,10.983 17.740,12.073 18.299,13.388 18.300,13.392 18.302,13.395 18.303,13.399 18.335,13.474 18.364,13.550 18.393,13.626 18.402,13.651 18.412,13.677 18.422,13.703 18.423,13.706 18.424,13.710 18.426,13.714 18.453,13.790 18.479,13.865 18.503,13.942 18.506,13.950 18.508,13.958 18.511,13.965 18.513,13.971 18.513,13.976 18.515,13.981 18.543,14.071 18.569,14.161 18.592,14.253 18.593,14.256 18.594,14.260 18.595,14.263 18.596,14.266 18.597,14.269 18.597,14.272 18.619,14.357 18.639,14.443 18.657,14.530 18.662,14.553 18.667,14.575 18.672,14.598 18.690,14.686 18.706,14.775 18.719,14.865 18.720,14.869 18.721,14.872 18.721,14.876 18.722,14.882 18.722,14.889 18.723,14.895 18.738,14.992 18.751,15.089 18.761,15.188 18.761,15.189 18.761,15.190 18.761,15.191 18.761,15.192 18.761,15.194 18.761,15.195 18.770,15.285 18.777,15.374 18.783,15.464 18.783,15.473 18.784,15.481 18.784,15.489 18.786,15.512 18.786,15.535 18.787,15.558 18.791,15.649 18.794,15.739 18.794,15.831 18.794,15.831 18.794,15.831 18.794,15.832 18.794,15.832 18.794,15.832 18.794,15.833 18.794,15.922 18.791,16.011 18.787,16.099 18.786,16.135 18.785,16.170 18.783,16.205 18.777,16.294 18.770,16.382 18.761,16.470 18.750,16.575 18.737,16.679 18.721,16.782 18.721,16.783 18.721,16.783 18.721,16.783 18.706,16.887 18.687,16.989 18.666,17.091 18.666,17.091 18.666,17.091 18.666,17.092 18.645,17.193 18.621,17.295 18.595,17.394 18.569,17.495 18.542,17.594 18.511,17.692 18.480,17.791 18.447,17.888 18.412,17.984 18.377,18.080 18.338,18.175 18.299,18.269 18.298,18.270 18.299,18.270 18.299,18.270 18.259,18.364 18.217,18.457 18.172,18.549 18.128,18.641 18.082,18.731 18.034,18.820 17.985,18.910 17.934,18.997 17.881,19.084 17.881,19.084 17.882,19.085 17.881,19.085 17.724,19.345 17.548,19.593 17.356,19.827 17.355,19.827 17.356,19.828 17.356,19.828 17.292,19.906 17.225,19.982 17.158,20.057 17.158,20.057 17.158,20.058 17.158,20.058 17.090,20.133 17.020,20.206 16.949,20.277 16.878,20.349 16.805,20.420 16.731,20.488 16.731,20.488 16.730,20.488 16.730,20.488 16.581,20.624 16.426,20.754 16.264,20.876 16.103,20.998 15.936,21.112 15.763,21.218 15.763,21.218 15.762,21.218 15.762,21.218 15.676,21.271 15.589,21.323 15.500,21.371 15.500,21.372 15.499,21.371 15.499,21.371 15.410,21.420 15.320,21.467 15.228,21.512 15.137,21.557 15.044,21.600 14.950,21.640 14.950,21.640 14.949,21.640 14.949,21.640 14.761,21.721 14.569,21.792 14.373,21.855 14.373,21.855 14.372,21.854 14.372,21.855 14.077,21.948 13.773,22.019 13.462,22.068 13.462,22.068 13.461,22.068 13.461,22.068 13.357,22.084 13.253,22.098 13.148,22.109 13.147,22.109 13.147,22.109 13.147,22.109 12.936,22.130 12.723,22.142 12.507,22.142 12.506,22.142 12.505,22.142 12.505,22.142 12.398,22.142 12.291,22.139 12.186,22.134 12.185,22.134 12.184,22.134 12.184,22.134 12.182,22.134 12.181,22.134 12.180,22.134 11.864,22.118 11.554,22.077 11.252,22.016 11.249,22.015 11.245,22.014 11.242,22.014 11.241,22.014 11.241,22.014 11.241,22.014 11.236,22.013 11.232,22.012 11.228,22.011 11.034,21.970 10.843,21.921 10.656,21.863 10.651,21.862 10.645,21.860 10.640,21.858 10.640,21.858 10.640,21.859 10.639,21.858 10.633,21.856 10.626,21.854 10.620,21.852 10.535,21.825 10.451,21.797 10.368,21.766 10.361,21.764 10.355,21.762 10.348,21.759 10.348,21.759 10.348,21.760 10.347,21.759 10.341,21.757 10.335,21.754 10.329,21.752 10.239,21.719 10.151,21.684 10.063,21.647 10.063,21.647 10.063,21.646 10.062,21.646 9.969,21.606 9.876,21.565 9.785,21.521 9.784,21.521 9.784,21.520 9.784,21.520 9.700,21.480 9.618,21.438 9.536,21.394 9.529,21.390 9.521,21.385 9.513,21.381 9.513,21.381 9.512,21.381 9.512,21.381 9.505,21.377 9.497,21.373 9.490,21.369 9.409,21.324 9.329,21.278 9.250,21.230 9.250,21.230 9.250,21.229 9.249,21.229 9.172,21.182 9.097,21.134 9.022,21.084 9.013,21.078 9.004,21.072 8.995,21.066 8.995,21.066 8.994,21.066 8.994,21.066 8.984,21.059 8.975,21.051 8.965,21.045 8.902,21.001 8.839,20.957 8.778,20.912 8.768,20.905 8.758,20.898 8.749,20.890 8.749,20.890 8.748,20.891 8.748,20.890 8.736,20.882 8.725,20.872 8.714,20.863 8.657,20.820 8.601,20.776 8.546,20.731 8.534,20.722 8.523,20.713 8.511,20.703 8.511,20.703 8.510,20.703 8.510,20.703 8.499,20.694 8.488,20.684 8.476,20.674 8.422,20.629 8.369,20.582 8.316,20.535 8.305,20.525 8.293,20.515 8.282,20.505 8.282,20.505 8.281,20.505 8.281,20.505 8.269,20.494 8.258,20.482 8.246,20.471 8.185,20.414 8.123,20.357 8.064,20.298 8.064,20.297 8.063,20.297 8.063,20.297 8.062,20.296 8.063,20.295 8.062,20.295 8.004,20.236 7.946,20.177 7.890,20.116 7.866,20.090 7.842,20.063 7.819,20.037 7.766,19.978 7.714,19.919 7.664,19.859 7.662,19.856 7.660,19.853 7.658,19.850 7.657,19.850 7.657,19.850 7.657,19.850 7.654,19.847 7.652,19.844 7.650,19.841 7.591,19.769 7.534,19.697 7.478,19.623 7.476,19.619 7.473,19.616 7.470,19.613 7.470,19.612 7.470,19.612 7.469,19.612 7.466,19.607 7.462,19.602 7.459,19.597 7.406,19.527 7.356,19.455 7.306,19.383 7.303,19.377 7.299,19.372 7.295,19.366 7.294,19.366 7.294,19.366 7.294,19.365 7.290,19.359 7.286,19.353 7.282,19.347 7.230,19.269 7.179,19.191 7.131,19.111 7.131,19.111 7.131,19.111 7.131,19.110 7.089,19.043 7.050,18.973 7.011,18.904 6.989,18.863 6.966,18.822 6.945,18.781 6.917,18.728 6.889,18.675 6.863,18.621 6.856,18.607 6.848,18.592 6.841,18.577 6.841,18.576 6.840,18.576 6.840,18.576 6.835,18.565 6.830,18.554 6.825,18.543 6.792,18.473 6.760,18.403 6.729,18.332 6.724,18.321 6.719,18.310 6.715,18.298 6.715,18.298 6.714,18.298 6.714,18.298 6.708,18.283 6.702,18.268 6.696,18.254 6.669,18.189 6.643,18.124 6.619,18.059 6.613,18.044 6.607,18.029 6.601,18.013 6.601,18.013 6.600,18.013 6.600,18.012 6.595,17.998 6.591,17.983 6.586,17.969 6.562,17.902 6.539,17.834 6.517,17.766 6.512,17.751 6.507,17.736 6.502,17.721 6.498,17.708 6.495,17.694 6.491,17.681 6.470,17.612 6.450,17.543 6.431,17.474 6.422,17.439 6.413,17.405 6.404,17.370 6.388,17.305 6.373,17.239 6.359,17.172 6.351,17.136 6.343,17.100 6.336,17.064 6.323,16.996 6.311,16.928 6.300,16.860 6.294,16.825 6.289,16.790 6.284,16.755 6.274,16.688 6.265,16.620 6.258,16.552 6.253,16.509 6.249,16.466 6.245,16.423 6.240,16.367 6.235,16.311 6.232,16.254 6.228,16.202 6.226,16.149 6.224,16.097 6.222,16.043 6.221,15.989 6.220,15.935 6.220,15.908 6.219,15.881 6.219,15.854 6.219,15.820 6.219,15.786 6.220,15.752 6.220,15.718 6.222,15.685 6.223,15.651 6.225,15.584 6.228,15.516 6.233,15.449 6.236,15.388 6.240,15.328 6.245,15.267 6.246,15.261 6.247,15.254 6.247,15.248 6.247,15.247 6.247,15.247 6.247,15.247 6.248,15.242 6.249,15.237 6.249,15.232 6.256,15.164 6.264,15.096 6.272,15.028 6.278,14.980 6.286,14.933 6.293,14.886 6.305,14.808 6.317,14.731 6.332,14.654 6.350,14.557 6.371,14.461 6.394,14.365 6.417,14.270 6.442,14.175 6.469,14.082 6.495,13.995 6.523,13.909 6.553,13.824 6.555,13.818 6.556,13.812 6.559,13.806 6.559,13.806 6.558,13.806 6.559,13.805 6.561,13.799 6.563,13.793 6.565,13.786 6.595,13.702 6.626,13.619 6.659,13.537 7.005,13.882 7.351,14.228 7.696,14.574 7.674,14.673 7.654,14.773 7.635,14.875 7.635,14.876 7.635,14.876 7.635,14.876 7.634,14.881 7.633,14.886 7.632,14.891 7.616,14.983 7.600,15.077 7.588,15.172 7.587,15.177 7.586,15.181 7.586,15.186 7.586,15.186 7.586,15.186 7.586,15.187 7.585,15.189 7.585,15.191 7.585,15.193 7.572,15.294 7.562,15.396 7.555,15.500 7.555,15.502 7.554,15.503 7.554,15.505 7.554,15.505 7.554,15.506 7.554,15.506 7.554,15.506 7.554,15.507 7.554,15.508 7.546,15.614 7.542,15.722 7.542,15.831 7.542,15.831 7.542,15.831 7.542,15.832 7.542,15.832 7.542,15.832 7.542,15.833 7.542,16.003 7.550,16.172 7.567,16.338 7.567,16.338 7.567,16.339 7.567,16.339 7.610,16.755 7.704,17.156 7.844,17.536 7.844,17.536 7.844,17.537 7.844,17.537 7.899,17.689 7.963,17.837 8.033,17.981 8.033,17.982 8.033,17.982 8.033,17.982 8.103,18.127 8.179,18.267 8.262,18.403 8.278,18.430 8.295,18.456 8.312,18.483 8.509,18.793 8.739,19.081 8.998,19.340 9.110,19.452 9.228,19.559 9.350,19.660 9.351,19.661 9.351,19.661 9.351,19.661 9.511,19.793 9.680,19.915 9.856,20.026 9.882,20.043 9.907,20.060 9.934,20.077 9.934,20.077 9.935,20.076 9.935,20.077 10.003,20.118 10.072,20.158 10.142,20.196 10.142,20.196 10.142,20.197 10.143,20.197 10.213,20.235 10.284,20.271 10.356,20.305 10.356,20.306 10.357,20.306 10.357,20.306 10.501,20.376 10.650,20.439 10.801,20.495 10.802,20.495 10.802,20.494 10.802,20.495 10.878,20.522 10.954,20.548 11.031,20.572 11.169,20.615 11.309,20.652 11.451,20.683 11.470,20.687 11.488,20.692 11.507,20.695 11.507,20.695 11.507,20.695 11.507,20.695 11.588,20.712 11.669,20.726 11.751,20.739 11.751,20.739 11.752,20.739 11.752,20.739 11.834,20.752 11.916,20.763 11.999,20.771 12.000,20.771 12.000,20.771 12.000,20.771 12.006,20.772 12.013,20.771 12.019,20.772 12.179,20.788 12.342,20.797 12.507,20.797 12.677,20.797 12.846,20.788 13.012,20.771 13.179,20.754 13.344,20.729 13.506,20.695 13.747,20.646 13.982,20.578 14.210,20.495 14.286,20.467 14.362,20.437 14.436,20.405 14.658,20.311 14.873,20.201 15.077,20.077 15.077,20.076 15.078,20.077 15.078,20.077 15.419,19.869 15.733,19.621 16.014,19.340 16.295,19.059 16.543,18.745 16.750,18.404 16.751,18.404 16.750,18.403 16.750,18.403 16.833,18.267 16.910,18.127 16.979,17.982 16.979,17.982 16.979,17.982 16.979,17.981 17.049,17.837 17.113,17.689 17.168,17.537 17.169,17.537 17.168,17.536 17.168,17.536 17.280,17.232 17.363,16.915 17.413,16.586 17.438,16.422 17.455,16.256 17.463,16.087 17.468,16.003 17.470,15.918 17.470,15.833 17.470,15.832 17.470,15.832 17.470,15.832 17.470,15.828 17.470,15.825 17.470,15.821 17.470,15.741 17.467,15.662 17.463,15.583 17.463,15.581 17.463,15.579 17.463,15.577 17.460,15.503 17.454,15.431 17.447,15.358 17.441,15.295 17.433,15.232 17.425,15.169 17.423,15.155 17.422,15.140 17.420,15.126 17.419,15.121 17.418,15.117 17.418,15.112 17.409,15.052 17.398,14.993 17.388,14.934 17.385,14.922 17.383,14.909 17.381,14.896 17.105,13.456 16.203,12.235 14.971,11.526 14.972,11.526 14.972,11.525 14.972,11.525 14.948,11.511 14.923,11.498 14.899,11.484 14.889,11.479 14.879,11.473 14.870,11.468 14.858,11.461 14.846,11.455 14.835,11.449 14.784,11.422 14.733,11.397 14.681,11.372 14.658,11.360 14.634,11.349 14.610,11.338 14.570,11.319 14.531,11.300 14.490,11.282 14.464,11.271 14.437,11.260 14.411,11.248 14.409,11.248 14.408,11.247 14.407,11.247 14.352,11.224 14.295,11.202 14.239,11.181 14.211,11.170 14.182,11.160 14.154,11.150 14.116,11.136 14.079,11.124 14.041,11.112 14.015,11.103 13.988,11.094 13.962,11.086 13.960,11.085 13.958,11.085 13.957,11.085 13.894,11.065 13.831,11.047 13.767,11.030 13.759,11.028 13.752,11.026 13.744,11.024 13.735,11.022 13.726,11.020 13.716,11.018 13.658,11.003 13.600,10.989 13.542,10.977 13.529,10.974 13.517,10.971 13.505,10.968 13.500,10.967 13.494,10.966 13.489,10.965 13.429,10.953 13.367,10.942 13.306,10.932 13.271,10.927 13.237,10.922 13.202,10.917 13.168,10.912 13.134,10.908 13.099,10.904 13.048,10.898 12.996,10.892 12.944,10.888 12.894,10.883 12.844,10.879 12.793,10.876 12.774,10.875 12.755,10.874 12.736,10.873 12.681,10.871 12.625,10.870 12.570,10.869 12.548,10.869 12.527,10.867 12.506,10.867 12.487,10.867 12.468,10.869 12.449,10.869 12.377,10.870 12.304,10.873 12.232,10.877 12.193,10.879 12.154,10.881 12.116,10.885 12.046,10.891 11.976,10.898 11.906,10.907 11.865,10.912 11.825,10.918 11.784,10.924 11.701,10.937 11.618,10.951 11.537,10.967 11.526,10.969 11.517,10.972 11.507,10.974 11.411,10.994 11.315,11.015 11.221,11.040 11.216,11.041 11.210,11.042 11.205,11.044 11.205,11.044 11.204,11.044 11.204,11.044 11.018,10.858 10.833,10.672 10.647,10.486 10.487,10.326 10.327,10.167 10.167,10.007 10.528,9.854 10.901,9.739 11.286,9.662 11.286,9.662 11.286,9.662 11.285,9.663 11.307,9.658 11.329,9.654 11.350,9.650 11.427,9.635 11.504,9.622 11.582,9.610 11.584,9.610 11.587,9.609 11.589,9.609 11.592,9.609 11.595,9.609 11.599,9.608 11.679,9.597 11.760,9.587 11.841,9.579 11.856,9.578 11.870,9.576 11.885,9.574 11.899,9.573 11.914,9.572 11.928,9.570 11.999,9.564 12.070,9.559 12.142,9.555 12.179,9.553 12.215,9.551 12.252,9.550 12.336,9.547 12.420,9.544 12.505,9.544 Z M 9.661,10.207 C 10.279,10.825 10.279,10.825 10.279,10.825 12.484,13.029 12.484,13.029 12.484,13.029 12.484,13.030 12.484,13.030 12.484,13.030 12.484,14.420 12.484,14.420 12.484,14.420 9.437,11.373 9.437,11.373 9.437,11.373 9.437,11.373 9.437,11.373 9.437,11.373 8.800,10.736 8.800,10.736 8.800,10.736 9.065,10.538 9.352,10.361 9.661,10.207 Z M 8.402,11.067 C 8.574,11.238 8.746,11.409 8.918,11.580 11.268,13.924 13.619,16.268 15.970,18.612 15.742,18.615 15.514,18.620 15.287,18.623 15.059,18.627 14.831,18.630 14.603,18.634 12.308,16.347 10.013,14.060 7.719,11.772 7.761,11.716 7.806,11.662 7.852,11.609 7.852,11.609 7.853,11.608 7.853,11.607 8.022,11.413 8.212,11.240 8.402,11.067 Z M 7.410,12.149 C 9.109,13.840 10.808,15.531 12.507,17.223 12.043,17.230 11.580,17.237 11.117,17.244 9.705,15.832 8.293,14.420 6.882,13.008 6.894,12.985 6.908,12.961 6.920,12.937 6.979,12.830 7.039,12.721 7.104,12.613 7.112,12.599 7.120,12.584 7.129,12.570 7.129,12.569 7.129,12.569 7.129,12.569 7.173,12.496 7.219,12.425 7.266,12.354 7.266,12.354 7.265,12.354 7.266,12.353 7.271,12.345 7.277,12.337 7.283,12.329 7.319,12.276 7.355,12.224 7.393,12.173 7.399,12.165 7.404,12.157 7.410,12.149 Z " />
</svg>