<?xml version="1.0" encoding="UTF-8" standalone="no"?>
<!DOCTYPE svg PUBLIC "-//W3C//DTD SVG 20010904//EN" "http://www.w3.org/TR/2001/REC-SVG-20010904/DTD/svg10.dtd"[]>
<svg version="1.1" id="Frosty Editor v1.0.6.3" xmlns="http://www.w3.org/2000/svg" d1p1:xlink="http://www.w3.org/1999/xlink" viewBox="0 0 96 96" xmlns:d1p1="xmlns">
  <path stroke="none" fill="#ffffffff" d="M 32.500,60.700 C 30.800,59.633 29.100,58.567 27.400,57.500 27.400,57.400 27.400,57.000 27.200,56.900 26.267,56.267 25.333,55.633 24.400,55.000 24.200,54.900 23.900,54.900 23.800,55.000 23.567,55.367 23.333,55.733 23.100,56.100 23.000,56.200 23.100,56.500 23.300,56.600 24.267,57.200 25.233,57.800 26.200,58.400 26.400,58.500 26.700,58.400 26.800,58.300 28.500,59.367 30.200,60.433 31.900,61.500 31.800,61.700 31.900,61.900 32.200,62.100 32.467,62.267 32.733,62.433 33.000,62.600 33.333,62.100 33.667,61.600 34.000,61.100 33.733,60.933 33.467,60.767 33.200,60.600 32.900,60.600 32.600,60.600 32.500,60.700 32.500,60.700 32.500,60.700 32.500,60.700 Z " />
  <path stroke="none" fill="#ffffffff" d="M 65.100,17.600 C 61.900,22.600 58.700,27.600 55.500,32.600 56.500,33.233 57.500,33.867 58.500,34.500 61.700,29.500 64.900,24.500 68.100,19.500 67.100,18.867 66.100,18.233 65.100,17.600 65.100,17.600 65.100,17.600 65.100,17.600 65.100,17.600 65.100,17.600 65.100,17.600 Z M 65.400,18.900 C 65.833,19.167 66.267,19.433 66.700,19.700 63.867,24.133 61.033,28.567 58.200,33.000 57.767,32.733 57.333,32.467 56.900,32.200 59.733,27.767 62.567,23.333 65.400,18.900 " />
  <path stroke="none" fill="#ffffffff" d="M 67.200,11.000 C 66.233,12.500 65.267,14.000 64.300,15.500 64.200,15.600 64.300,15.800 64.400,15.800 66.267,17.000 68.133,18.200 70.000,19.400 70.100,19.500 70.300,19.400 70.300,19.300 71.267,17.800 72.233,16.300 73.200,14.800 73.300,14.700 73.200,14.500 73.100,14.400 71.267,13.233 69.433,12.067 67.600,10.900 67.400,10.800 67.300,10.800 67.200,11.000 67.200,11.000 67.200,11.000 67.200,11.000 Z " />
  <path stroke="none" fill="#ffffffff" d="M 54.400,33.200 C 54.300,33.200 54.200,33.200 54.200,33.300 50.700,38.700 47.200,44.100 43.700,49.500 45.067,50.367 46.433,51.233 47.800,52.100 51.267,46.700 54.733,41.300 58.200,35.900 58.300,35.800 58.200,35.600 58.100,35.600 57.967,35.533 57.833,35.467 57.700,35.400 56.700,34.767 55.700,34.133 54.700,33.500 54.567,33.433 54.433,33.367 54.300,33.300 54.500,33.200 54.400,33.200 54.400,33.200 54.400,33.200 54.400,33.200 54.400,33.200 54.400,33.200 54.400,33.200 54.400,33.200 Z M 54.600,34.500 C 55.400,35.000 56.200,35.500 57.000,36.000 53.833,40.900 50.667,45.800 47.500,50.700 46.700,50.167 45.900,49.633 45.100,49.100 48.267,44.233 51.433,39.367 54.600,34.500 " />
  <path stroke="none" fill="#ffffffff" d="M 35.200,60.700 C 37.200,61.967 39.200,63.233 41.200,64.500 43.533,60.867 45.867,57.233 48.200,53.600 46.200,52.333 44.200,51.067 42.200,49.800 39.867,53.433 37.533,57.067 35.200,60.700 35.200,60.700 35.200,60.700 35.200,60.700 Z " />
  <path stroke="none" fill="#ffffffff" d="M 34.042,63.486 C 34.366,62.981 34.690,62.476 35.014,61.971 36.753,63.088 38.492,64.204 40.232,65.321 39.907,65.826 39.583,66.331 39.259,66.836 37.520,65.719 35.781,64.603 34.042,63.486 Z " />
  <path stroke="none" fill="#ffffffff" d="M 26.600,81.100 C 27.200,81.600 27.400,82.600 27.100,83.300 26.600,84.400 25.200,84.700 24.200,83.900 23.600,83.400 23.400,82.400 23.700,81.700 24.300,80.600 25.700,80.300 26.600,81.100 26.600,81.100 26.600,81.100 26.600,81.100 Z M 39.000,68.000 C 37.000,66.733 35.000,65.467 33.000,64.200 30.067,68.767 27.133,73.333 24.200,77.900 24.367,78.000 24.533,78.100 24.700,78.200 24.500,78.500 24.300,78.800 24.100,79.100 24.200,79.167 24.300,79.233 24.400,79.300 24.000,79.933 23.600,80.567 23.200,81.200 22.400,82.400 22.800,84.000 24.000,84.700 24.033,84.733 24.067,84.767 24.100,84.800 25.300,85.600 26.900,85.200 27.600,84.000 28.000,83.367 28.400,82.733 28.800,82.100 28.900,82.167 29.000,82.233 29.100,82.300 29.300,82.000 29.500,81.700 29.700,81.400 29.867,81.500 30.033,81.600 30.200,81.700 33.133,77.133 36.067,72.567 39.000,68.000 39.000,68.000 39.000,68.000 39.000,68.000 Z " />
</svg>