<?xml version="1.0" encoding="UTF-8" standalone="no"?>
<!-- Created with Inkscape (http://www.inkscape.org/) -->

<svg
   width="96"
   height="96"
   viewBox="0 0 25.4 25.399999"
   version="1.1"
   id="svg5"
   inkscape:version="1.1 (c68e22c387, 2021-05-23)"
   sodipodi:docname="Ability_TimeBomb.svg"
   xmlns:inkscape="http://www.inkscape.org/namespaces/inkscape"
   xmlns:sodipodi="http://sodipodi.sourceforge.net/DTD/sodipodi-0.dtd"
   xmlns="http://www.w3.org/2000/svg"
   xmlns:svg="http://www.w3.org/2000/svg">
  <sodipodi:namedview
     id="namedview7"
     pagecolor="#ffffff"
     bordercolor="#999999"
     borderopacity="1"
     inkscape:pageshadow="0"
     inkscape:pageopacity="0"
     inkscape:pagecheckerboard="true"
     inkscape:document-units="px"
     showgrid="false"
     width="384mm"
     units="px"
     borderlayer="false"
     showborder="true"
     inkscape:showpageshadow="true"
     inkscape:zoom="4.3333333"
     inkscape:cx="10.730769"
     inkscape:cy="52.038462"
     inkscape:window-width="1920"
     inkscape:window-height="1017"
     inkscape:window-x="-8"
     inkscape:window-y="-8"
     inkscape:window-maximized="1"
     inkscape:current-layer="layer1" />
  <defs
     id="defs2" />
  <g
     inkscape:label="Layer 1"
     inkscape:groupmode="layer"
     id="layer1">
    <path
       stroke="none"
       fill="none"
       d="M 12.189579,11.185327 C 11.748519,11.185327 11.307723,11.185327 10.866662,11.185327 C 10.866662,11.538016 10.866662,11.890971 10.866662,12.24366 C 11.307723,12.24366 11.748519,12.24366 12.189579,12.24366 C 12.366056,12.24366 12.542269,12.24366 12.718746,12.24366 C 13.071435,12.24366 13.424389,12.24366 13.777079,12.24366 C 13.777079,11.890971 13.777079,11.538016 13.777079,11.185327 C 13.424389,11.185327 13.071435,11.185327 12.718746,11.185327 C 12.542269,11.185327 12.366056,11.185327 12.189579,11.185327 C 12.189579,11.185327 12.189579,11.185327 12.189579,11.185327 Z"
       id="path7236" />
    <path
       stroke="none"
       fill="#ffffff"
       d="M 9.8083291,5.3644935 C 11.483935,5.3644935 13.159806,5.3644935 14.835412,5.3644935 C 14.835412,5.6290769 14.835412,5.8936602 14.835412,6.1582435 C 13.159806,6.1582435 11.483935,6.1582435 9.8083291,6.1582435 C 9.8083291,5.8936602 9.8083291,5.6290769 9.8083291,5.3644935 Z"
       id="path7238" />
    <path
       stroke="none"
       fill="#ffffff"
       d="M 13.777079,4.4569727 C 13.777079,4.3461123 13.733158,4.2397498 13.654577,4.1614331 C 13.57626,4.0828519 13.469898,4.038931 13.359037,4.038931 C 12.57931,4.038931 11.799848,4.038931 11.020121,4.038931 C 10.90926,4.038931 10.802898,4.0828519 10.724581,4.1614331 C 10.646,4.2397498 10.602079,4.3461123 10.602079,4.4569727 C 10.602079,4.5821206 10.602079,4.7075331 10.602079,4.832681 C 11.660412,4.832681 12.718746,4.832681 13.777079,4.832681 C 13.777079,4.7075331 13.777079,4.5821206 13.777079,4.4569727 Z"
       id="path7240" />
    <path
       id="path7242"
       d="M 10.337353,16.47703 C 10.249246,16.918091 10.160877,17.358887 10.07277,17.799947 H 10.595219 C 10.698724,17.334724 10.858477,16.891159 11.067541,16.47703 Z"
       fill="#ffffff" />
    <path
       id="path7244"
       d="M 8.1917481,16.47703 C 8.0316752,16.477824 7.887047,16.573318 7.8238116,16.720426 C 7.4208515,17.566299 7.0175437,18.411866 6.6145832,19.257739 C 6.5770124,19.345845 6.5869756,19.447081 6.6404214,19.526456 C 6.6936026,19.606095 6.7833874,19.653353 6.8791666,19.65203 H 10.489282 C 10.468811,19.454784 10.45776,19.254388 10.45776,19.05155 C 10.45776,18.806661 10.47355,18.565698 10.503235,18.329114 H 9.4169962 C 9.5500816,17.71184 9.6833697,17.094303 9.8164548,16.47703 Z"
       fill="#ffffff" />
    <path
       id="path7246"
       d="M 10.337353,10.656197 V 15.947864 H 11.371916 C 12.058814,14.888275 13.088154,14.073473 14.306103,13.658081 V 10.656197 Z M 10.86652,11.185364 H 13.776937 V 12.243697 H 10.86652 Z"
       fill="#ffffff" />
    <path
       id="path7248"
       d="M 8.6232462,6.6874471 C 8.1390587,6.6874471 7.9617879,6.8647177 7.9617879,7.0843221 V 7.7483641 H 7.1680379 V 11.452531 H 7.9617879 C 7.9599358,12.816987 7.9579556,14.181365 7.9561033,15.545821 L 8.3586629,15.947864 H 9.8081866 V 10.12703 H 14.83527 V 13.505635 C 15.259198,13.405694 15.701848,13.352673 16.157153,13.352673 H 16.243453 C 16.396583,13.352673 16.548191,13.359021 16.698205,13.37076 V 11.447363 H 17.491955 V 7.7431965 H 16.698205 V 7.0843221 C 16.698205,6.8647177 16.520934,6.6874471 16.036747,6.6874471 Z"
       fill="#ffffff" />
    <path
       id="path7470"
       d="M 16.136939,13.780916 A 5.0884175,5.0884175 0 0 0 11.048639,18.869215 A 5.0884175,5.0884175 0 0 0 16.136939,23.957515 A 5.0884175,5.0884175 0 0 0 21.225239,18.869215 A 5.0884175,5.0884175 0 0 0 16.136939,13.780916 Z M 16.124019,14.749391 C 17.221608,14.749391 18.259086,15.177936 19.030828,15.958253 C 19.811145,16.729995 20.239692,17.767475 20.239692,18.865062 C 20.239692,19.962652 19.811145,21.000593 19.030828,21.772333 C 18.259086,22.552651 17.221608,22.981197 16.124019,22.981197 C 15.026431,22.981197 13.988952,22.552651 13.21721,21.772333 C 12.436894,21.000593 12.007886,19.962652 12.007886,18.865062 C 12.007886,17.767475 12.436894,16.729995 13.21721,15.958253 C 13.988952,15.177936 15.026431,14.749391 16.124019,14.749391 Z M 16.124019,15.195101 C 14.100341,15.195101 12.454058,16.841385 12.454058,18.865062 C 12.454058,20.888741 14.100341,22.535485 16.124019,22.535485 C 18.147698,22.535485 19.793982,20.888741 19.793982,18.865062 C 19.793982,16.841385 18.147698,15.195101 16.124019,15.195101 Z M 15.772434,15.744164 H 16.295198 V 16.266928 H 15.772434 Z M 17.389174,15.983631 C 17.540178,16.070838 17.691263,16.158037 17.842266,16.245244 C 17.75506,16.396249 17.667775,16.547333 17.580654,16.698337 C 17.42965,16.611131 17.279026,16.523844 17.128022,16.436725 C 17.215229,16.285714 17.301966,16.134636 17.389174,15.983631 Z M 14.703836,16.063453 C 14.784552,16.203277 14.865274,16.343421 14.94607,16.483325 C 14.952694,16.4795 14.959286,16.475617 14.96591,16.471789 C 15.456138,17.320878 15.946245,18.169706 16.436386,19.018708 C 16.280494,19.108744 16.12442,19.199053 15.968529,19.289087 C 15.484777,18.451302 15.001097,17.613267 14.517431,16.77539 C 14.515763,16.776352 14.514024,16.777196 14.512355,16.778159 C 14.425148,16.627155 14.337949,16.475983 14.250742,16.325065 C 14.401747,16.237859 14.552832,16.150575 14.703836,16.063453 Z M 18.660326,17.003783 C 18.747533,17.154785 18.834732,17.305409 18.921939,17.456414 C 18.770934,17.54362 18.619763,17.630907 18.468845,17.718026 C 18.381638,17.567021 18.29444,17.415937 18.207233,17.264933 C 18.358238,17.177726 18.509322,17.090902 18.660326,17.003783 Z M 13.502816,17.146815 C 13.65382,17.233938 13.804444,17.321221 13.955448,17.40843 C 13.868241,17.559346 13.781418,17.710058 13.694296,17.86106 C 13.543292,17.773853 13.392207,17.687115 13.241203,17.599908 C 13.32841,17.448904 13.415609,17.297734 13.502816,17.146815 Z M 18.739225,18.513477 H 19.26245 V 19.036702 H 18.739225 Z M 13.002661,18.685117 H 13.525886 V 19.208344 H 13.002661 Z M 18.552359,19.868143 C 18.703362,19.955262 18.854446,20.042549 19.005451,20.129756 C 18.918244,20.280673 18.831046,20.431845 18.743839,20.582849 C 18.592836,20.495728 18.44175,20.408443 18.290746,20.321235 C 18.377954,20.17023 18.465237,20.019061 18.552359,19.868143 Z M 13.77781,20.012559 C 13.86493,20.163566 13.952216,20.314188 14.039422,20.465192 C 13.888418,20.552398 13.737334,20.639685 13.586329,20.726804 C 13.499122,20.575803 13.412384,20.424716 13.325178,20.273711 C 13.476182,20.186504 13.626806,20.099681 13.77781,20.012559 Z M 17.724149,20.9492 C 17.811355,21.100204 17.89864,21.250826 17.985761,21.40183 C 17.834757,21.489036 17.683673,21.576306 17.532669,21.663444 C 17.445459,21.512424 17.358639,21.361816 17.271517,21.210811 C 17.422522,21.123606 17.573145,21.036319 17.724149,20.9492 Z M 14.667847,21.033174 C 14.818851,21.120381 14.970022,21.207665 15.12094,21.294787 C 15.033818,21.445791 14.946534,21.596875 14.859327,21.74788 C 14.708408,21.660674 14.55724,21.573471 14.406234,21.486268 C 14.493357,21.335242 14.58064,21.184178 14.667847,21.033174 Z M 15.943612,21.48073 H 16.466838 V 22.003494 H 15.943612 Z"
       fill="#ffffff" />
  </g>
  <inkscape:templateinfo>
    <inkscape:name>Ability SVG</inkscape:name>
    <inkscape:author>Soulbruh</inkscape:author>
    <inkscape:shortdesc>Used for abilities in BFII</inkscape:shortdesc>
    <inkscape:date>2021-07-24</inkscape:date>
  </inkscape:templateinfo>
</svg>
