<?xml version="1.0" encoding="UTF-8" standalone="no"?>
<!DOCTYPE svg PUBLIC "-//W3C//DTD SVG 20010904//EN" "http://www.w3.org/TR/2001/REC-SVG-20010904/DTD/svg10.dtd"[]>
<svg version="1.1" id="Frosty Editor v1.0.6.3" xmlns="http://www.w3.org/2000/svg" d1p1:xlink="http://www.w3.org/1999/xlink" viewBox="0 0 25 25" xmlns:d1p1="xmlns">
  <path stroke="none" fill="#ffffffff" d="M 7.032,3.078 C 5.969,3.133 5.149,4.033 5.193,5.096 5.193,14.570 5.193,14.570 5.193,14.570 5.190,15.101 5.387,15.615 5.745,16.008 7.583,17.974 9.422,19.940 11.261,21.906 11.590,22.272 12.060,22.481 12.552,22.481 13.045,22.481 13.514,22.272 13.844,21.906 15.687,19.940 17.530,17.974 19.374,16.008 19.738,15.614 19.938,15.097 19.934,14.560 19.934,5.096 19.934,5.096 19.934,5.096 19.979,4.038 19.167,3.140 18.109,3.078 Z M 12.605,4.518 C 15.201,4.518 17.372,6.265 18.016,8.652 17.715,9.005 17.528,9.501 17.528,10.051 17.528,12.135 17.528,12.135 17.528,12.135 17.528,12.506 17.612,12.851 17.759,13.145 16.365,15.559 16.365,15.559 16.365,15.559 15.387,14.994 15.387,14.994 15.387,14.994 15.324,15.030 15.260,15.065 15.195,15.098 15.195,15.955 15.195,15.955 15.195,15.955 15.195,17.033 14.480,17.901 13.591,17.901 11.512,17.901 11.512,17.901 11.512,17.901 10.623,17.901 9.907,17.033 9.907,15.955 9.907,15.041 9.907,15.041 9.907,15.041 9.853,15.011 9.800,14.981 9.748,14.950 8.693,15.559 8.693,15.559 8.693,15.559 7.348,13.228 7.348,13.228 7.348,13.228 7.522,12.917 7.623,12.541 7.623,12.135 7.623,10.051 7.623,10.051 7.623,10.051 7.623,9.528 7.455,9.055 7.180,8.706 7.805,6.292 9.990,4.518 12.605,4.518 Z M 10.220,10.500 C 9.488,10.500 8.899,11.089 8.899,11.821 8.899,12.552 9.488,13.141 10.220,13.141 10.951,13.141 11.540,12.552 11.540,11.821 11.540,11.089 10.951,10.500 10.220,10.500 Z M 14.844,10.500 C 14.112,10.500 13.523,11.089 13.523,11.821 13.523,12.552 14.112,13.141 14.844,13.141 15.575,13.141 16.163,12.552 16.163,11.821 16.163,11.089 15.575,10.500 14.844,10.500 Z M 12.543,12.761 C 12.535,12.761 12.528,12.761 12.520,12.761 12.095,12.777 11.661,13.223 11.492,13.854 11.298,14.576 11.526,15.259 12.003,15.386 12.205,15.441 12.418,15.386 12.612,15.249 12.805,15.386 13.019,15.441 13.221,15.386 13.698,15.259 13.926,14.576 13.733,13.854 13.551,13.177 13.065,12.713 12.612,12.764 12.589,12.762 12.566,12.761 12.543,12.761 Z " />
</svg>