<?xml version="1.0" encoding="UTF-8" standalone="no"?>
<!DOCTYPE svg PUBLIC "-//W3C//DTD SVG 20010904//EN" "http://www.w3.org/TR/2001/REC-SVG-20010904/DTD/svg10.dtd"[]>
<svg version="1.1" id="Frosty Editor v1.0.6.3" xmlns="http://www.w3.org/2000/svg" d1p1:xlink="http://www.w3.org/1999/xlink" viewBox="0 0 25 25" xmlns:d1p1="xmlns">
  <path stroke="none" fill="#ffffffff" d="M 8.434,16.172 C 8.429,16.172 8.424,16.173 8.419,16.173 8.306,16.194 7.965,16.396 7.455,16.710 7.260,16.833 7.196,16.870 7.178,16.881 6.913,16.863 6.649,16.845 6.384,16.827 6.373,17.365 6.360,17.904 6.349,18.442 6.606,18.481 6.864,18.519 7.122,18.557 7.135,18.570 7.150,18.587 7.165,18.604 7.211,18.662 7.262,18.717 7.316,18.769 7.385,18.661 7.453,18.553 7.521,18.444 7.563,18.413 7.605,18.382 7.646,18.351 8.073,17.677 8.500,17.004 8.927,16.330 8.733,16.239 8.530,16.167 8.434,16.172 Z M 10.120,17.089 C 10.036,17.234 9.953,17.378 9.870,17.522 9.872,17.523 9.874,17.524 9.876,17.524 9.949,17.538 10.018,17.518 10.066,17.480 10.126,17.436 10.164,17.363 10.169,17.285 10.170,17.199 10.149,17.137 10.127,17.099 10.125,17.096 10.122,17.093 10.120,17.089 Z M 9.794,17.641 C 9.811,17.688 9.807,17.740 9.782,17.783 9.777,17.792 9.772,17.800 9.767,17.808 9.850,17.856 9.933,17.903 10.015,17.951 9.960,18.046 9.906,18.141 9.851,18.236 9.913,18.266 9.981,18.271 10.042,18.246 10.049,18.241 10.049,18.241 10.049,18.241 10.052,18.240 10.055,18.239 10.057,18.237 10.125,18.198 10.168,18.133 10.191,18.060 10.193,18.048 10.193,18.048 10.193,18.048 10.217,17.985 10.207,17.915 10.172,17.855 10.144,17.806 10.097,17.768 10.045,17.748 9.961,17.712 9.877,17.677 9.794,17.641 Z M 9.851,18.236 C 9.769,18.189 9.686,18.141 9.604,18.093 9.599,18.102 9.593,18.111 9.588,18.120 9.584,18.127 9.579,18.134 9.574,18.140 9.626,18.158 9.679,18.176 9.726,18.193 9.781,18.211 9.835,18.235 9.851,18.236 Z M 9.432,18.276 C 9.429,18.283 9.426,18.289 9.422,18.296 9.327,18.461 9.231,18.627 9.135,18.793 9.232,18.830 9.328,18.867 9.424,18.904 9.571,18.960 9.736,18.879 9.799,18.712 9.829,18.650 9.830,18.574 9.807,18.508 9.802,18.500 9.802,18.500 9.802,18.500 9.787,18.474 9.787,18.474 9.787,18.474 9.753,18.423 9.704,18.382 9.652,18.361 9.579,18.333 9.506,18.304 9.432,18.276 Z M 9.024,18.985 C 8.940,19.131 8.857,19.276 8.773,19.421 8.826,19.442 8.878,19.463 8.931,19.484 8.983,19.504 9.043,19.505 9.093,19.486 9.097,19.484 9.097,19.484 9.097,19.484 9.163,19.451 9.216,19.395 9.245,19.324 9.274,19.262 9.271,19.188 9.240,19.125 9.238,19.121 9.238,19.121 9.238,19.121 9.212,19.076 9.173,19.044 9.122,19.024 9.089,19.011 9.057,18.998 9.024,18.985 Z " />
  <path stroke="none" fill="#ffffffff" d="M 13.130,4.966 C 12.960,5.264 12.790,5.562 12.620,5.860 10.238,5.860 7.856,5.860 5.474,5.860 5.655,5.562 5.836,5.264 6.017,4.966 8.388,4.966 10.759,4.966 13.130,4.966 Z " />
  <path stroke="none" fill="#ffffffff" d="M 11.695,7.423 C 11.514,7.720 11.333,8.018 11.152,8.316 8.781,8.316 6.410,8.316 4.039,8.316 4.209,8.018 4.379,7.720 4.549,7.423 6.931,7.423 9.313,7.423 11.695,7.423 Z " />
  <path stroke="none" fill="#ffffffff" d="M 10.227,9.847 C 10.057,10.145 9.887,10.443 9.717,10.740 7.335,10.740 4.953,10.740 2.571,10.740 2.752,10.443 2.933,10.145 3.114,9.847 5.485,9.847 7.856,9.847 10.227,9.847 Z " />
  <path stroke="none" fill="#ffffffff" d="M 18.344,5.725 C 18.408,6.707 18.472,7.688 18.536,8.670 19.417,8.257 20.298,7.844 21.179,7.431 20.656,8.257 20.133,9.083 19.610,9.909 20.573,10.102 21.537,10.294 22.500,10.487 21.592,10.845 20.683,11.203 19.775,11.561 20.436,12.276 21.096,12.992 21.757,13.708 20.812,13.469 19.867,13.231 18.922,12.992 19.032,13.964 19.142,14.937 19.252,15.910 18.628,15.148 18.004,14.387 17.380,13.625 16.903,14.478 16.426,15.332 15.949,16.185 15.894,15.213 15.839,14.240 15.783,13.267 14.893,13.671 14.003,14.075 13.113,14.478 14.857,11.561 16.600,8.643 18.344,5.725 Z " />
  <path stroke="none" fill="#ffffffff" d="M 15.780,3.657 C 15.711,3.716 15.641,3.775 15.572,3.834 15.569,4.130 15.566,4.427 15.564,4.723 15.568,4.823 15.526,4.918 15.451,4.983 15.359,5.029 15.268,5.075 15.176,5.121 15.197,5.198 15.217,5.274 15.238,5.351 15.255,5.348 15.272,5.345 15.289,5.342 15.356,5.335 15.424,5.347 15.485,5.377 15.786,5.574 15.477,6.066 15.473,6.073 15.334,6.313 15.196,6.553 15.057,6.793 14.922,6.987 14.787,7.181 14.652,7.375 14.611,7.444 14.571,7.514 14.531,7.583 14.473,7.549 14.473,7.549 14.473,7.549 14.393,7.504 14.393,7.504 14.393,7.504 14.361,7.485 14.323,7.480 14.288,7.490 14.252,7.500 14.222,7.523 14.203,7.555 14.181,7.593 14.159,7.632 14.136,7.671 14.099,7.737 14.122,7.821 14.188,7.859 14.218,7.877 14.218,7.877 14.218,7.877 14.176,7.950 14.134,8.024 14.091,8.098 14.078,8.090 14.065,8.082 14.051,8.075 14.043,8.095 14.035,8.117 14.027,8.138 14.027,8.138 13.967,8.294 13.838,8.334 13.752,8.361 13.651,8.332 13.534,8.250 13.404,8.041 13.273,7.831 13.143,7.622 13.098,7.556 13.031,7.509 12.954,7.491 12.862,7.476 12.768,7.500 12.694,7.556 12.545,7.630 12.396,7.703 12.246,7.777 12.230,7.873 12.213,7.968 12.196,8.064 12.199,8.070 12.202,8.075 12.205,8.081 12.273,8.195 12.391,8.270 12.522,8.283 12.663,8.517 12.804,8.751 12.945,8.986 12.682,8.991 12.515,9.251 12.506,9.265 12.464,9.338 12.422,9.412 12.380,9.485 12.265,9.796 12.480,10.012 12.610,10.083 12.732,10.154 12.854,10.225 12.976,10.295 12.540,11.051 12.104,11.806 11.668,12.562 11.635,12.593 11.602,12.624 11.569,12.655 11.539,12.706 11.510,12.757 11.481,12.808 11.524,12.833 11.568,12.859 11.612,12.884 11.575,12.948 11.539,13.011 11.502,13.074 11.470,13.055 11.437,13.037 11.405,13.018 11.386,13.051 11.367,13.083 11.348,13.115 11.381,13.134 11.413,13.153 11.446,13.172 11.181,13.632 10.915,14.091 10.649,14.551 10.670,14.563 10.691,14.575 10.711,14.587 10.695,14.600 10.681,14.616 10.670,14.634 10.655,14.661 10.640,14.688 10.624,14.715 10.615,14.613 10.560,14.521 10.475,14.465 10.433,14.437 10.390,14.409 10.348,14.381 10.274,14.332 10.183,14.315 10.096,14.334 10.009,14.352 9.932,14.404 9.884,14.479 9.823,14.589 9.762,14.699 9.700,14.809 9.634,14.909 9.626,15.036 9.680,15.142 9.429,15.538 9.178,15.934 8.927,16.330 9.060,16.392 9.190,16.463 9.279,16.524 9.313,16.550 9.340,16.580 9.364,16.621 9.425,16.726 9.447,16.885 9.466,17.049 9.478,17.157 9.510,17.429 9.520,17.584 9.524,17.662 9.498,17.737 9.445,17.793 9.384,17.853 9.306,17.883 9.228,17.878 9.191,17.874 9.070,17.874 8.996,17.746 8.970,17.701 8.951,17.642 8.939,17.569 8.917,17.436 8.890,17.190 8.880,17.076 8.843,17.082 8.771,17.114 8.760,17.190 8.752,17.255 8.779,17.500 8.827,17.819 8.832,17.846 8.836,17.874 8.840,17.901 8.811,17.906 8.782,17.912 8.753,17.917 8.616,17.940 8.497,18.029 8.439,18.153 8.385,18.269 8.382,18.402 8.422,18.524 8.433,18.553 8.442,18.583 8.452,18.612 8.422,18.620 8.391,18.627 8.360,18.635 8.282,18.655 8.137,18.709 8.077,18.839 8.049,18.895 8.045,18.982 8.086,19.089 8.096,19.143 8.105,19.198 8.115,19.253 8.065,19.230 8.015,19.207 7.965,19.184 7.811,19.117 7.601,19.013 7.468,18.904 7.415,18.861 7.364,18.817 7.315,18.770 7.267,18.846 7.219,18.922 7.170,18.999 7.139,18.978 7.107,18.957 7.076,18.936 7.049,18.977 7.023,19.018 6.996,19.058 7.029,19.080 7.062,19.101 7.094,19.123 7.082,19.143 7.069,19.162 7.056,19.182 7.105,19.213 7.153,19.244 7.202,19.275 7.181,19.306 7.161,19.337 7.140,19.369 7.082,19.330 7.024,19.292 6.966,19.254 6.911,19.336 6.857,19.418 6.803,19.500 6.800,19.506 6.797,19.512 6.793,19.517 6.711,19.660 6.746,19.841 6.876,19.942 7.005,20.043 7.190,20.034 7.308,19.920 7.273,19.980 7.238,20.041 7.203,20.101 7.273,20.142 7.343,20.182 7.413,20.223 7.322,20.418 7.231,20.615 7.139,20.810 7.108,20.793 7.078,20.775 7.047,20.757 6.893,21.023 6.739,21.290 6.585,21.556 6.617,21.634 6.649,21.713 6.680,21.791 6.517,21.998 6.354,22.205 6.191,22.412 6.393,22.528 6.596,22.644 6.798,22.760 6.896,22.515 6.994,22.271 7.092,22.026 7.176,22.014 7.259,22.002 7.342,21.990 7.448,21.806 7.554,21.622 7.660,21.439 7.885,21.568 7.885,21.568 7.885,21.568 8.063,21.343 8.241,21.118 8.418,20.893 8.532,20.696 8.645,20.500 8.759,20.303 8.655,20.243 8.552,20.183 8.448,20.123 8.454,20.114 8.459,20.106 8.464,20.097 8.439,20.082 8.414,20.068 8.388,20.053 8.409,20.039 8.427,20.020 8.439,19.999 8.551,19.806 8.661,19.613 8.773,19.421 8.631,19.365 8.489,19.310 8.347,19.254 8.285,19.224 8.238,19.187 8.210,19.138 8.184,19.093 8.162,19.020 8.201,18.913 8.216,18.853 8.258,18.804 8.311,18.774 8.318,18.770 8.318,18.770 8.318,18.770 8.321,18.770 8.325,18.769 8.328,18.769 8.348,18.764 8.369,18.760 8.390,18.759 8.435,18.757 8.481,18.766 8.523,18.786 8.690,18.852 8.858,18.918 9.024,18.984 9.061,18.920 9.098,18.857 9.135,18.793 8.999,18.740 8.863,18.687 8.726,18.634 8.677,18.618 8.608,18.577 8.567,18.506 8.536,18.453 8.509,18.363 8.560,18.234 8.609,18.116 8.682,18.055 8.784,18.052 8.830,18.051 8.882,18.062 8.940,18.084 9.104,18.148 9.268,18.212 9.432,18.275 9.441,18.252 9.446,18.227 9.445,18.202 9.495,18.202 9.540,18.178 9.572,18.140 9.547,18.132 9.522,18.123 9.499,18.114 9.393,18.074 9.287,18.035 9.180,17.996 9.331,18.014 9.602,17.944 9.610,17.698 9.614,17.654 9.616,17.610 9.619,17.567 9.677,17.591 9.734,17.616 9.792,17.640 9.790,17.634 9.788,17.629 9.786,17.624 9.810,17.609 9.831,17.589 9.846,17.564 9.854,17.550 9.862,17.536 9.870,17.522 9.790,17.499 9.709,17.475 9.629,17.451 9.609,17.247 9.589,17.043 9.570,16.838 9.720,16.892 9.870,16.946 10.020,17.000 10.055,17.012 10.093,17.045 10.120,17.088 10.521,16.395 10.921,15.702 11.321,15.009 11.331,14.991 11.338,14.970 11.341,14.950 11.372,14.967 11.372,14.967 11.372,14.967 11.543,14.670 11.715,14.373 11.886,14.075 11.955,14.115 12.023,14.154 12.091,14.194 12.211,13.986 12.331,13.779 12.451,13.571 12.496,13.579 12.541,13.588 12.586,13.596 12.776,13.267 12.776,13.267 12.776,13.267 12.695,13.220 12.613,13.173 12.532,13.126 12.554,13.126 12.576,13.123 12.597,13.116 12.659,13.092 12.710,13.045 12.738,12.984 12.789,12.904 12.788,12.802 12.736,12.723 12.844,12.536 12.953,12.349 13.061,12.162 13.126,12.200 13.191,12.237 13.256,12.274 13.320,12.260 13.384,12.246 13.448,12.232 13.795,11.631 14.143,11.030 14.490,10.428 14.458,10.354 14.425,10.280 14.393,10.206 14.520,9.856 14.647,9.505 14.774,9.154 14.941,8.866 15.108,8.577 15.274,8.289 15.306,8.308 15.339,8.326 15.371,8.345 15.507,8.110 15.643,7.875 15.778,7.640 15.746,7.621 15.714,7.603 15.681,7.584 16.441,6.268 16.441,6.268 16.441,6.268 16.627,5.963 16.953,5.675 16.986,5.647 17.202,5.506 17.418,5.364 17.634,5.223 17.850,5.085 17.993,4.857 18.024,4.603 18.025,4.589 18.026,4.575 18.027,4.561 17.923,4.523 17.820,4.484 17.716,4.446 17.708,4.451 17.700,4.456 17.692,4.460 17.348,4.675 16.930,4.371 16.921,4.365 16.540,4.129 16.160,3.893 15.780,3.657 Z " />
</svg>