<?xml version="1.0" encoding="UTF-8" standalone="no"?>
<!DOCTYPE svg PUBLIC "-//W3C//DTD SVG 20010904//EN" "http://www.w3.org/TR/2001/REC-SVG-20010904/DTD/svg10.dtd"[]>
<svg version="1.1" id="Frosty Editor v1.0.6.3" xmlns="http://www.w3.org/2000/svg" d1p1:xlink="http://www.w3.org/1999/xlink" viewBox="0 0 25 25" xmlns:d1p1="xmlns">
  <path stroke="none" fill="#ffffffff" d="M 4.702,11.736 C 5.670,11.477 6.637,11.217 7.606,10.958 7.704,11.324 7.802,11.690 7.900,12.056 6.932,12.316 5.964,12.575 4.996,12.835 4.898,12.468 4.800,12.102 4.702,11.736 Z " />
  <path stroke="none" fill="#ffffffff" d="M 6.913,10.399 C 6.887,10.405 6.862,10.412 6.836,10.419 6.719,10.351 6.601,10.283 6.484,10.216 6.114,10.315 5.745,10.414 5.375,10.513 5.385,10.510 5.252,10.767 5.207,10.856 5.187,10.861 5.166,10.866 5.146,10.872 5.189,11.032 5.232,11.192 5.275,11.352 5.863,11.194 6.452,11.036 7.041,10.878 6.998,10.718 6.955,10.559 6.913,10.399 Z " />
  <path stroke="none" fill="#ffffffff" d="M 11.413,15.024 C 11.266,15.063 11.119,15.103 10.971,15.142 10.962,15.109 10.953,15.075 10.944,15.042 10.906,15.052 10.868,15.062 10.831,15.072 10.950,15.518 11.070,15.964 11.189,16.410 11.227,16.400 11.265,16.390 11.303,16.380 11.292,16.342 11.282,16.304 11.272,16.266 11.420,16.227 11.567,16.187 11.715,16.148 11.614,15.773 11.514,15.398 11.413,15.024 11.413,15.024 11.413,15.024 11.413,15.024 Z " />
  <path stroke="none" fill="#ffffffff" d="M 4.088,16.974 C 3.969,16.528 3.849,16.082 3.730,15.636 3.692,15.646 3.654,15.656 3.616,15.666 3.626,15.704 3.636,15.742 3.647,15.780 3.500,15.819 3.353,15.859 3.206,15.898 3.306,16.272 3.406,16.646 3.506,17.021 3.653,16.981 3.800,16.942 3.947,16.902 3.956,16.936 3.965,16.970 3.975,17.004 4.012,16.994 4.050,16.984 4.088,16.974 4.088,16.974 4.088,16.974 4.088,16.974 Z " />
  <path stroke="none" fill="#ffffffff" d="M 4.819,18.865 C 4.853,18.886 4.886,18.907 4.919,18.928 4.838,19.057 4.756,19.185 4.675,19.314 5.003,19.521 5.331,19.728 5.658,19.934 5.740,19.806 5.821,19.677 5.903,19.549 5.932,19.567 5.962,19.585 5.991,19.603 6.012,19.571 6.033,19.538 6.054,19.505 5.664,19.258 5.273,19.011 4.882,18.765 4.861,18.798 4.840,18.832 4.819,18.865 4.819,18.865 4.819,18.865 4.819,18.865 Z " />
  <path stroke="none" fill="#ffffffff" d="M 8.847,12.416 C 8.817,12.399 8.787,12.381 8.757,12.363 8.738,12.397 8.718,12.430 8.698,12.464 9.098,12.695 9.498,12.927 9.898,13.158 9.918,13.124 9.937,13.090 9.957,13.056 9.923,13.036 9.889,13.016 9.855,12.997 9.931,12.865 10.007,12.733 10.083,12.601 9.747,12.407 9.411,12.213 9.075,12.019 8.999,12.151 8.923,12.284 8.847,12.416 8.847,12.416 8.847,12.416 8.847,12.416 Z " />
  <path stroke="none" fill="#ffffffff" d="M 10.263,13.965 C 10.240,13.782 10.132,13.621 9.972,13.529 9.741,13.396 8.411,12.554 8.411,12.554 8.382,12.444 8.352,12.334 8.323,12.225 7.177,12.532 6.031,12.839 4.886,13.146 4.915,13.256 4.944,13.365 4.974,13.475 4.974,13.475 4.241,14.861 4.104,15.102 4.010,15.261 3.997,15.455 4.068,15.625 4.102,15.751 4.662,17.794 4.690,17.948 4.712,18.112 4.795,18.262 4.924,18.366 5.053,18.440 5.964,19.116 6.299,19.257 6.633,19.398 6.698,19.329 6.698,19.329 7.744,19.049 8.790,18.769 9.836,18.488 9.836,18.488 9.926,18.519 10.145,18.229 10.364,17.940 10.817,16.899 10.890,16.771 10.950,16.616 10.947,16.445 10.883,16.292 10.831,16.139 10.297,14.092 10.263,13.965 10.263,13.965 10.263,13.965 10.263,13.965 Z " />
  <path stroke="none" fill="#ffffffff" d="M 6.802,19.575 C 7.808,19.306 8.814,19.036 9.820,18.767 9.865,18.935 9.910,19.103 9.955,19.272 8.949,19.541 7.943,19.811 6.937,20.080 6.892,19.912 6.847,19.744 6.802,19.575 Z " />
  <path stroke="none" fill="#ffffffff" d="M 17.817,10.931 C 18.786,11.190 19.753,11.450 20.722,11.709 20.623,12.075 20.525,12.441 20.427,12.808 19.459,12.548 18.491,12.289 17.523,12.030 17.621,11.663 17.719,11.297 17.817,10.931 Z " />
  <path stroke="none" fill="#ffffffff" d="M 20.401,10.878 C 20.376,10.872 20.350,10.865 20.325,10.858 20.257,10.740 20.189,10.623 20.121,10.505 19.752,10.406 19.382,10.307 19.012,10.208 19.023,10.211 18.779,10.367 18.696,10.421 18.675,10.416 18.655,10.410 18.634,10.405 18.592,10.565 18.549,10.725 18.506,10.885 19.095,11.043 19.684,11.200 20.273,11.358 20.315,11.198 20.358,11.038 20.401,10.878 Z " />
  <path stroke="none" fill="#ffffffff" d="M 21.986,17.134 C 21.839,17.095 21.691,17.055 21.544,17.016 21.553,16.982 21.562,16.949 21.571,16.915 21.533,16.905 21.495,16.895 21.457,16.885 21.338,17.331 21.218,17.777 21.099,18.223 21.137,18.233 21.175,18.243 21.212,18.253 21.222,18.215 21.233,18.177 21.243,18.140 21.390,18.179 21.538,18.219 21.685,18.258 21.786,17.883 21.886,17.509 21.986,17.134 21.986,17.134 21.986,17.134 21.986,17.134 Z " />
  <path stroke="none" fill="#ffffffff" d="M 14.667,15.160 C 14.787,14.714 14.906,14.268 15.026,13.823 14.988,13.812 14.950,13.802 14.912,13.792 14.902,13.830 14.892,13.868 14.882,13.906 14.735,13.866 14.588,13.827 14.441,13.788 14.341,14.162 14.240,14.536 14.140,14.910 14.287,14.949 14.434,14.989 14.581,15.028 14.572,15.062 14.563,15.096 14.554,15.130 14.592,15.140 14.630,15.150 14.667,15.160 14.667,15.160 14.667,15.160 14.667,15.160 Z " />
  <path stroke="none" fill="#ffffffff" d="M 14.355,17.164 C 14.373,17.199 14.392,17.233 14.410,17.268 14.275,17.339 14.141,17.410 14.006,17.480 14.186,17.823 14.367,18.166 14.547,18.510 14.682,18.439 14.817,18.368 14.951,18.298 14.968,18.328 14.984,18.359 15.000,18.389 15.035,18.371 15.070,18.353 15.105,18.335 14.889,17.926 14.675,17.517 14.459,17.108 14.425,17.127 14.390,17.145 14.355,17.164 14.355,17.164 14.355,17.164 14.355,17.164 Z " />
  <path stroke="none" fill="#ffffffff" d="M 21.067,13.593 C 21.050,13.563 21.033,13.532 21.016,13.502 20.982,13.521 20.948,13.541 20.914,13.560 21.145,13.960 21.376,14.361 21.607,14.761 21.641,14.741 21.675,14.721 21.709,14.702 21.689,14.668 21.670,14.634 21.650,14.599 21.782,14.523 21.914,14.447 22.046,14.371 21.852,14.035 21.658,13.699 21.464,13.363 21.332,13.439 21.200,13.516 21.067,13.593 21.067,13.593 21.067,13.593 21.067,13.593 Z " />
  <path stroke="none" fill="#ffffffff" d="M 21.519,15.643 C 21.591,15.472 21.578,15.279 21.485,15.119 21.352,14.888 20.621,13.494 20.621,13.494 20.651,13.384 20.680,13.275 20.709,13.165 19.563,12.858 18.418,12.551 17.272,12.244 17.242,12.354 17.213,12.463 17.184,12.573 17.184,12.573 15.856,13.408 15.617,13.547 15.456,13.638 15.348,13.799 15.324,13.983 15.291,14.108 14.754,16.157 14.702,16.305 14.638,16.458 14.636,16.629 14.695,16.784 14.770,16.913 15.221,17.953 15.440,18.243 15.659,18.532 15.750,18.505 15.750,18.505 16.796,18.785 17.842,19.066 18.888,19.346 18.888,19.346 18.951,19.417 19.285,19.276 19.619,19.135 20.532,18.460 20.659,18.385 20.788,18.281 20.872,18.132 20.893,17.967 20.924,17.809 21.485,15.770 21.519,15.643 21.519,15.643 21.519,15.643 21.519,15.643 Z " />
  <path stroke="none" fill="#ffffffff" d="M 15.717,18.770 C 16.723,19.040 17.729,19.309 18.735,19.579 18.689,19.747 18.644,19.916 18.599,20.084 17.593,19.814 16.587,19.545 15.582,19.275 15.627,19.107 15.672,18.939 15.717,18.770 Z " />
  <path stroke="none" fill="none" d="M 11.962,7.952 C 11.962,8.133 11.815,8.280 11.634,8.280 11.453,8.280 11.307,8.133 11.307,7.952 11.307,7.771 11.453,7.625 11.634,7.625 11.815,7.625 11.962,7.771 11.962,7.952 11.962,7.952 11.962,7.952 11.962,7.952 Z " />
  <path stroke="none" fill="none" d="M 12.740,5.303 C 12.916,5.303 13.075,5.409 13.143,5.572 13.210,5.735 13.173,5.922 13.048,6.047 12.923,6.172 12.736,6.209 12.573,6.142 12.410,6.074 12.304,5.915 12.304,5.739 12.304,5.498 12.499,5.302 12.740,5.301 12.740,5.302 12.740,5.302 12.740,5.303 Z M 12.740,6.376 C 12.997,6.376 13.230,6.221 13.328,5.983 13.427,5.744 13.372,5.470 13.190,5.288 13.008,5.106 12.734,5.051 12.496,5.150 12.258,5.249 12.102,5.481 12.102,5.739 12.103,6.090 12.388,6.375 12.740,6.376 12.740,6.376 12.740,6.376 12.740,6.376 Z " />
  <path stroke="none" fill="none" d="M 13.071,7.952 C 13.071,8.133 12.925,8.280 12.744,8.280 12.563,8.280 12.416,8.133 12.416,7.952 12.416,7.771 12.563,7.625 12.744,7.625 12.925,7.625 13.071,7.771 13.071,7.952 13.071,7.952 13.071,7.952 13.071,7.952 Z " />
  <path stroke="none" fill="none" d="M 14.162,7.952 C 14.162,8.133 14.015,8.280 13.834,8.280 13.654,8.280 13.507,8.133 13.507,7.952 13.507,7.771 13.654,7.625 13.834,7.625 14.015,7.625 14.162,7.771 14.162,7.952 14.162,7.952 14.162,7.952 14.162,7.952 Z " />
  <path stroke="none" fill="#ffffffff" d="M 14.433,6.680 C 14.710,6.680 14.987,6.680 15.264,6.680 15.315,6.681 15.358,6.719 15.364,6.769 15.385,6.942 15.407,7.115 15.428,7.288 15.814,7.288 16.200,7.288 16.586,7.288 16.326,5.758 15.191,4.523 13.688,4.136 13.688,4.218 13.688,4.301 13.688,4.384 13.689,4.391 13.689,4.399 13.688,4.407 14.097,5.131 14.339,6.195 14.433,6.680 14.433,6.680 14.433,6.680 14.433,6.680 Z " />
  <path stroke="none" fill="#ffffffff" d="M 12.734,4.589 C 12.734,4.589 12.734,4.589 12.734,4.589 13.004,4.582 13.265,4.492 13.483,4.333 13.483,4.141 13.483,3.948 13.483,3.756 12.982,3.756 12.482,3.756 11.982,3.756 11.982,3.948 11.982,4.141 11.982,4.333 12.199,4.492 12.460,4.582 12.730,4.589 12.732,4.589 12.733,4.589 12.734,4.589 Z " />
  <path stroke="none" fill="#ffffffff" d="M 15.240,9.028 C 15.221,9.007 15.211,8.980 15.213,8.952 15.223,8.814 15.233,8.676 15.243,8.538 15.012,8.538 14.781,8.538 14.549,8.538 14.542,8.599 14.534,8.659 14.527,8.720 14.464,9.791 14.122,10.828 13.534,11.726 13.955,11.608 14.365,11.456 14.761,11.271 15.585,10.770 16.195,9.983 16.473,9.060 16.087,9.060 15.700,9.060 15.314,9.060 15.286,9.060 15.259,9.049 15.240,9.028 15.240,9.028 15.240,9.028 15.240,9.028 Z " />
  <path stroke="none" fill="#ffffffff" d="M 10.090,7.287 C 10.110,7.112 10.129,6.937 10.149,6.762 10.155,6.712 10.198,6.674 10.248,6.674 10.522,6.674 10.797,6.674 11.071,6.674 11.154,6.188 11.371,5.124 11.784,4.393 11.784,4.386 11.784,4.378 11.784,4.370 11.784,4.290 11.784,4.209 11.784,4.129 10.274,4.507 9.129,5.739 8.861,7.272 8.995,7.272 9.240,7.272 9.387,7.288 9.622,7.288 9.856,7.287 10.090,7.287 Z " />
  <path stroke="none" fill="#ffffffff" d="M 12.336,3.349 C 12.595,3.349 12.855,3.349 13.114,3.349 13.114,3.418 13.114,3.486 13.114,3.555 12.855,3.555 12.595,3.555 12.336,3.555 12.336,3.486 12.336,3.418 12.336,3.349 Z " />
  <path stroke="none" fill="#ffffffff" d="M 12.867,9.146 C 12.321,9.146 11.774,9.146 11.228,9.146 11.357,10.116 11.726,11.038 12.301,11.829 12.443,11.845 12.585,11.853 12.728,11.853 12.870,11.852 13.012,11.843 13.153,11.825 13.181,11.819 13.209,11.813 13.237,11.806 13.800,11.020 14.161,10.107 14.289,9.149 13.815,9.148 13.341,9.147 12.867,9.146 Z " />
  <path stroke="none" fill="#ffffffff" d="M 10.963,8.538 C 10.732,8.538 10.501,8.538 10.270,8.538 10.280,8.676 10.290,8.814 10.299,8.952 10.301,8.979 10.291,9.007 10.272,9.027 10.253,9.048 10.227,9.059 10.199,9.059 9.788,9.059 9.378,9.059 8.967,9.059 9.361,10.489 10.554,11.558 12.019,11.790 11.399,10.869 11.040,9.796 10.982,8.686 10.976,8.637 10.970,8.588 10.963,8.538 Z " />
  <path stroke="none" fill="#ffffffff" d="M 13.834,8.280 C 13.702,8.280 13.583,8.200 13.532,8.078 13.481,7.955 13.509,7.814 13.603,7.721 13.696,7.627 13.837,7.599 13.960,7.650 14.082,7.700 14.162,7.820 14.162,7.952 14.162,8.133 14.015,8.280 13.834,8.280 13.834,8.280 13.834,8.280 13.834,8.280 Z M 12.744,8.280 C 12.611,8.280 12.492,8.200 12.441,8.078 12.391,7.955 12.419,7.814 12.512,7.721 12.606,7.627 12.747,7.599 12.869,7.650 12.991,7.700 13.071,7.820 13.071,7.952 13.071,8.133 12.925,8.280 12.744,8.280 12.744,8.280 12.744,8.280 12.744,8.280 Z M 11.634,8.280 C 11.502,8.280 11.382,8.200 11.332,8.078 11.281,7.955 11.309,7.814 11.403,7.721 11.496,7.627 11.637,7.599 11.760,7.650 11.882,7.700 11.962,7.820 11.962,7.952 11.962,8.133 11.815,8.280 11.634,8.280 11.634,8.280 11.634,8.280 11.634,8.280 Z M 15.761,8.859 C 15.897,8.415 15.931,7.947 15.859,7.488 15.686,7.488 15.514,7.488 15.341,7.488 15.290,7.488 15.248,7.450 15.242,7.400 15.220,7.226 15.199,7.053 15.177,6.880 14.945,6.880 14.713,6.880 14.481,6.880 14.493,7.020 14.505,7.159 14.517,7.299 14.519,7.327 14.509,7.354 14.490,7.374 14.471,7.395 14.444,7.406 14.417,7.406 13.312,7.406 12.207,7.406 11.103,7.406 11.075,7.406 11.048,7.395 11.029,7.374 11.010,7.354 11.000,7.327 11.002,7.299 11.011,7.160 11.020,7.021 11.029,6.882 10.799,6.882 10.569,6.882 10.338,6.882 10.317,7.055 10.295,7.228 10.274,7.401 10.268,7.451 10.225,7.489 10.175,7.489 9.947,7.489 9.718,7.489 9.490,7.489 9.465,7.689 9.451,7.890 9.449,8.092 9.472,8.350 9.513,8.606 9.570,8.859 9.743,8.859 9.917,8.859 10.090,8.859 10.080,8.721 10.070,8.584 10.061,8.446 10.059,8.418 10.069,8.391 10.088,8.370 10.107,8.350 10.133,8.339 10.161,8.339 10.459,8.339 10.756,8.339 11.053,8.339 11.104,8.339 11.147,8.377 11.153,8.427 11.155,8.450 11.158,8.473 11.161,8.496 11.169,8.509 11.173,8.524 11.174,8.540 11.174,8.583 11.174,8.624 11.182,8.667 11.194,8.760 11.205,8.853 11.217,8.946 12.243,8.946 13.270,8.946 14.296,8.946 14.306,8.865 14.316,8.784 14.327,8.703 14.327,8.648 14.335,8.596 14.337,8.540 14.338,8.523 14.344,8.506 14.354,8.492 14.356,8.470 14.359,8.449 14.362,8.427 14.368,8.377 14.410,8.339 14.461,8.339 14.758,8.339 15.056,8.339 15.353,8.339 15.381,8.339 15.408,8.350 15.427,8.370 15.446,8.391 15.455,8.418 15.454,8.446 15.444,8.584 15.434,8.721 15.424,8.859 15.536,8.859 15.649,8.859 15.761,8.859 Z " />
  <path stroke="none" fill="#ffffffff" d="M 13.176,5.739 C 13.176,5.979 12.980,6.175 12.740,6.175 12.499,6.175 12.304,5.979 12.304,5.739 12.304,5.498 12.499,5.303 12.740,5.303 12.980,5.303 13.176,5.498 13.176,5.739 13.176,5.739 13.176,5.739 13.176,5.739 Z " />
  <path stroke="none" fill="#ffffffff" d="M 12.741,5.097 C 13.092,5.098 13.377,5.383 13.377,5.734 13.377,6.085 13.093,6.371 12.742,6.372 12.391,6.373 12.105,6.090 12.102,5.739 12.102,5.387 12.387,5.101 12.740,5.100 12.740,5.099 12.741,5.098 12.741,5.097 Z M 11.228,6.976 C 11.222,7.051 11.217,7.127 11.212,7.202 12.240,7.202 13.269,7.202 14.297,7.202 14.292,7.130 14.286,7.057 14.281,6.985 14.281,6.979 14.281,6.973 14.281,6.968 14.281,6.953 14.037,5.465 13.532,4.553 13.297,4.707 13.022,4.792 12.740,4.797 12.736,4.797 12.733,4.797 12.729,4.797 12.447,4.792 12.172,4.707 11.936,4.553 11.434,5.470 11.233,6.955 11.230,6.968 11.230,6.970 11.229,6.973 11.228,6.976 11.228,6.976 11.228,6.976 11.228,6.976 Z " />
  <path stroke="#ffffffff" fill="none" stroke-width="0.264583" d="M -10.572,-53.608 C -13.827,-53.608 -16.499,-51.120 -16.843,-47.972 -16.640,-47.972 -16.437,-47.972 -16.235,-47.972 -16.235,-47.275 -16.235,-46.578 -16.235,-45.882 -16.393,-45.882 -16.552,-45.882 -16.711,-45.882 -16.076,-43.077 -13.562,-41.013 -10.572,-41.013 -7.583,-41.013 -5.096,-43.104 -4.434,-45.882 -4.496,-45.882 -4.558,-45.882 -4.619,-45.882 -4.619,-46.578 -4.619,-47.275 -4.619,-47.972 -4.513,-47.972 -4.408,-47.972 -4.302,-47.972 -4.646,-51.120 -7.318,-53.608 -10.572,-53.608 -10.572,-53.608 -10.572,-53.608 -10.572,-53.608 Z " />
  <path stroke="#ffffffff" fill="none" stroke-width="0.264583" d="M -10.572,-40.987 C -13.562,-40.987 -16.049,-43.077 -16.711,-45.855 -16.861,-45.855 -17.011,-45.855 -17.161,-45.855 -16.499,-42.813 -13.800,-40.537 -10.572,-40.537 -7.345,-40.537 -4.646,-42.813 -3.984,-45.855 -4.134,-45.855 -4.284,-45.855 -4.434,-45.855 -5.096,-43.051 -7.583,-40.987 -10.572,-40.987 -10.572,-40.987 -10.572,-40.987 -10.572,-40.987 Z " />
  <path stroke="#ffffffff" fill="none" stroke-width="0.264583" d="M -9.250,-53.925 C -9.250,-53.775 -9.250,-53.625 -9.250,-53.475 -6.604,-52.920 -4.593,-50.697 -4.328,-47.998 -4.178,-47.998 -4.028,-47.998 -3.878,-47.998 -4.143,-50.935 -6.366,-53.343 -9.250,-53.925 -9.250,-53.925 -9.250,-53.925 -9.250,-53.925 Z " />
  <path stroke="#ffffffff" fill="none" stroke-width="0.264583" d="M -12.160,-53.475 C -12.160,-53.899 -12.160,-54.322 -12.160,-54.745 -11.137,-54.745 -10.114,-54.745 -9.091,-54.745 -9.091,-54.340 -9.091,-53.934 -9.091,-53.528 " />
  <path stroke="#ffffffff" fill="none" stroke-width="0.264583" d="M -15.308,-45.723 C -12.142,-45.723 -8.976,-45.723 -5.810,-45.723 -5.651,-46.199 -5.572,-46.702 -5.572,-47.258 -5.572,-47.601 -5.598,-47.972 -5.678,-48.263 -8.932,-48.263 -12.186,-48.263 -15.441,-48.263 -15.520,-47.945 -15.547,-47.601 -15.547,-47.258 -15.573,-46.702 -15.467,-46.199 -15.308,-45.723 -15.308,-45.723 -15.308,-45.723 -15.308,-45.723 Z " />
  <path stroke="#ffffffff" fill="none" stroke-width="0.264583" d="M -5.572,-47.258 C -5.572,-46.702 -5.651,-46.199 -5.810,-45.723 -5.651,-45.723 -5.492,-45.723 -5.334,-45.723 -5.201,-46.199 -5.096,-46.702 -5.096,-47.258 -5.096,-47.601 -5.122,-47.919 -5.201,-48.263 -5.360,-48.263 -5.519,-48.263 -5.678,-48.263 -5.625,-47.919 -5.572,-47.601 -5.572,-47.258 -5.572,-47.258 -5.572,-47.258 -5.572,-47.258 Z " />
</svg>