<?xml version="1.0" encoding="UTF-8" standalone="no"?>
<!DOCTYPE svg PUBLIC "-//W3C//DTD SVG 20010904//EN" "http://www.w3.org/TR/2001/REC-SVG-20010904/DTD/svg10.dtd"[]>
<svg version="1.1" id="Frosty Editor v1.0.6.3" xmlns="http://www.w3.org/2000/svg" d1p1:xlink="http://www.w3.org/1999/xlink" viewBox="0 0 384 96" xmlns:d1p1="xmlns">
  <path stroke="none" fill="#ffffffff" d="M 380.100,52.480 C 376.257,51.920 372.413,51.360 368.570,50.800 368.570,49.310 368.570,47.820 368.570,46.330 372.413,45.770 376.257,45.210 380.100,44.650 380.100,47.260 380.100,49.870 380.100,52.480 Z M 366.250,52.000 C 365.650,52.767 365.050,53.533 364.450,54.300 359.967,54.300 355.483,54.300 351.000,54.300 351.000,50.480 351.000,46.660 351.000,42.840 355.473,42.840 359.947,42.840 364.420,42.840 365.020,43.607 365.620,44.373 366.220,45.140 366.230,47.427 366.240,49.713 366.250,52.000 Z M 337.560,41.720 C 337.560,41.327 337.560,40.933 337.560,40.540 338.040,40.540 338.520,40.540 339.000,40.540 342.333,40.873 345.667,41.207 349.000,41.540 349.000,41.943 349.000,42.347 349.000,42.750 345.187,42.407 341.373,42.063 337.560,41.720 Z M 348.860,52.420 C 345.073,52.753 341.287,53.087 337.500,53.420 337.500,50.190 337.500,46.960 337.500,43.730 341.287,44.063 345.073,44.397 348.860,44.730 348.860,47.293 348.860,49.857 348.860,52.420 Z M 335.500,57.770 C 333.090,57.770 330.680,57.770 328.270,57.770 328.270,52.637 328.270,47.503 328.270,42.370 330.680,42.370 333.090,42.370 335.500,42.370 335.500,47.503 335.500,52.637 335.500,57.770 Z M 327.050,63.060 C 326.367,63.020 325.683,62.980 325.000,62.940 325.033,62.107 325.067,61.273 325.100,60.440 324.767,60.440 324.433,60.440 324.100,60.440 324.150,59.610 324.200,58.780 324.250,57.950 323.390,57.900 322.530,57.850 321.670,57.800 321.620,58.647 321.570,59.493 321.520,60.340 317.563,60.177 313.607,60.013 309.650,59.850 308.777,60.143 307.903,60.437 307.030,60.730 299.410,60.413 291.790,60.097 284.170,59.780 284.170,58.513 284.170,57.247 284.170,55.980 284.753,55.980 285.337,55.980 285.920,55.980 286.971,55.967 287.938,55.406 288.470,54.500 288.955,54.817 289.521,54.987 290.100,54.990 301.747,54.990 313.393,54.990 325.040,54.990 325.484,54.988 325.922,54.886 326.320,54.690 326.320,56.397 326.320,58.103 326.320,59.810 326.653,59.810 326.987,59.810 327.320,59.810 327.230,60.893 327.140,61.977 327.050,63.060 Z M 336.050,65.620 C 335.926,67.736 334.116,69.354 332.000,69.240 330.920,69.160 329.840,69.080 328.760,69.000 328.910,66.433 329.060,63.867 329.210,61.300 330.290,61.363 331.370,61.427 332.450,61.490 333.481,61.552 334.444,62.023 335.126,62.798 335.808,63.574 336.151,64.590 336.080,65.620 336.070,65.620 336.060,65.620 336.050,65.620 Z M 307.160,66.460 C 284.827,65.537 262.493,64.613 240.160,63.690 240.232,63.381 240.278,63.067 240.300,62.750 240.333,62.177 240.367,61.603 240.400,61.030 240.435,60.657 240.435,60.283 240.400,59.910 262.670,60.830 284.940,61.750 307.210,62.670 307.270,62.670 307.330,62.670 307.390,62.670 308.260,62.380 309.130,62.090 310.000,61.800 314.373,61.983 318.747,62.167 323.120,62.350 323.080,63.033 323.040,63.717 323.000,64.400 313.857,63.933 304.713,63.467 295.570,63.000 295.537,63.667 295.503,64.333 295.470,65.000 304.617,65.457 313.763,65.913 322.910,66.370 322.887,66.933 322.863,67.497 322.840,68.060 318.467,67.880 314.093,67.700 309.720,67.520 308.867,67.167 308.013,66.813 307.160,66.460 Z M 238.260,62.630 C 238.090,64.801 236.214,66.436 234.040,66.310 231.803,66.340 229.567,66.370 227.330,66.400 225.171,66.271 223.525,64.419 223.650,62.260 223.703,61.360 223.757,60.460 223.810,59.560 223.925,57.504 225.611,55.888 227.670,55.860 227.740,55.860 227.810,55.860 227.880,55.860 230.147,56.160 232.413,56.460 234.680,56.760 236.839,56.889 238.485,58.741 238.360,60.900 238.327,61.477 238.293,62.053 238.260,62.630 Z M 247.070,54.950 C 247.070,56.033 247.070,57.117 247.070,58.200 244.600,58.097 242.130,57.993 239.660,57.890 238.901,56.442 237.576,55.374 236.000,54.940 239.690,54.943 243.380,54.947 247.070,54.950 Z M 221.720,51.950 C 221.720,51.500 221.720,51.050 221.720,50.600 239.833,50.600 257.947,50.600 276.060,50.600 276.060,51.067 276.060,51.533 276.060,52.000 276.060,52.265 275.955,52.520 275.767,52.707 275.580,52.895 275.325,53.000 275.060,53.000 257.593,53.000 240.127,53.000 222.660,53.000 222.143,52.953 221.748,52.519 221.750,52.000 221.740,51.983 221.730,51.967 221.720,51.950 Z M 222.720,43.600 C 240.187,43.600 257.653,43.600 275.120,43.600 275.385,43.600 275.640,43.705 275.827,43.893 276.015,44.080 276.120,44.335 276.120,44.600 276.120,44.980 276.120,45.360 276.120,45.740 257.997,45.740 239.873,45.740 221.750,45.740 221.750,45.357 221.750,44.973 221.750,44.590 221.766,44.061 222.191,43.636 222.720,43.620 222.720,43.613 222.720,43.607 222.720,43.600 Z M 276.090,49.600 C 257.977,49.600 239.863,49.600 221.750,49.600 221.750,48.643 221.750,47.687 221.750,46.730 239.863,46.730 257.977,46.730 276.090,46.730 276.090,47.687 276.090,48.643 276.090,49.600 Z M 251.940,54.940 C 251.940,56.090 251.940,57.240 251.940,58.390 250.993,58.350 250.047,58.310 249.100,58.270 249.100,57.160 249.100,56.050 249.100,54.940 250.047,54.940 250.993,54.940 251.940,54.940 Z M 253.940,58.470 C 253.940,57.293 253.940,56.117 253.940,54.940 261.000,54.940 268.060,54.940 275.120,54.940 275.626,54.936 276.122,54.802 276.560,54.550 277.107,55.396 278.043,55.910 279.050,55.920 280.097,55.920 281.143,55.920 282.190,55.920 282.190,57.157 282.190,58.393 282.190,59.630 272.773,59.243 263.357,58.857 253.940,58.470 Z M 278.090,43.600 C 278.090,43.335 278.195,43.080 278.383,42.893 278.571,42.705 278.825,42.600 279.090,42.600 279.577,42.600 280.063,42.600 280.550,42.600 280.550,45.440 280.550,48.280 280.550,51.120 281.860,51.120 283.170,51.120 284.480,51.120 284.480,48.293 284.480,45.467 284.480,42.640 284.980,42.640 285.480,42.640 285.980,42.640 286.245,42.640 286.500,42.745 286.687,42.933 286.875,43.120 286.980,43.375 286.980,43.640 286.980,46.760 286.980,49.880 286.980,53.000 286.980,53.265 286.875,53.520 286.687,53.707 286.500,53.895 286.245,54.000 285.980,54.000 283.683,54.000 281.387,54.000 279.090,54.000 278.825,54.000 278.570,53.895 278.383,53.707 278.195,53.520 278.090,53.265 278.090,53.000 278.090,49.870 278.090,46.740 278.090,43.610 278.090,43.607 278.090,43.603 278.090,43.600 Z M 281.520,42.600 C 281.520,42.600 281.520,42.600 281.520,42.600 281.520,40.920 281.520,39.240 281.520,37.560 282.137,37.560 282.753,37.560 283.370,37.560 283.370,39.253 283.370,40.947 283.370,42.640 283.370,42.640 283.370,42.640 283.370,42.640 283.370,45.147 283.370,47.653 283.370,50.160 282.727,50.160 282.083,50.160 281.440,50.160 281.467,47.640 281.493,45.120 281.520,42.600 Z M 290.130,43.600 C 301.777,43.600 313.423,43.600 325.070,43.600 325.335,43.600 325.590,43.705 325.777,43.893 325.965,44.080 326.070,44.335 326.070,44.600 326.070,44.980 326.070,45.360 326.070,45.740 313.767,45.740 301.463,45.740 289.160,45.740 289.160,45.357 289.160,44.973 289.160,44.590 289.176,44.061 289.601,43.636 290.130,43.620 290.130,43.613 290.130,43.607 290.130,43.600 Z M 289.130,50.600 C 301.420,50.600 313.710,50.600 326.000,50.600 326.000,51.067 326.000,51.533 326.000,52.000 326.000,52.265 325.895,52.520 325.707,52.707 325.520,52.895 325.265,53.000 325.000,53.000 313.377,53.000 301.753,53.000 290.130,53.000 289.865,53.000 289.610,52.895 289.423,52.707 289.235,52.520 289.130,52.265 289.130,52.000 289.130,51.533 289.130,51.067 289.130,50.600 Z M 326.000,49.600 C 313.720,49.600 301.440,49.600 289.160,49.600 289.160,48.643 289.160,47.687 289.160,46.730 301.440,46.730 313.720,46.730 326.000,46.730 326.000,47.687 326.000,48.643 326.000,49.600 Z M 328.890,36.000 C 332.183,36.000 335.477,36.000 338.770,36.000 343.217,36.667 347.663,37.333 352.110,38.000 352.110,38.600 352.110,39.200 352.110,39.800 347.777,39.383 343.443,38.967 339.110,38.550 335.703,38.550 332.297,38.550 328.890,38.550 328.890,37.700 328.890,36.850 328.890,36.000 Z M 219.620,54.000 C 210.857,54.000 202.093,54.000 193.330,54.000 193.330,50.403 193.330,46.807 193.330,43.210 202.093,43.210 210.857,43.210 219.620,43.210 219.620,46.807 219.620,50.403 219.620,54.000 Z M 186.430,54.000 C 186.430,50.403 186.430,46.807 186.430,43.210 188.060,43.210 189.690,43.210 191.320,43.210 191.320,46.807 191.320,50.403 191.320,54.000 189.690,54.000 188.060,54.000 186.430,54.000 Z M 185.430,56.710 C 185.197,56.710 184.963,56.710 184.730,56.710 184.560,56.660 184.390,56.610 184.220,56.560 184.220,55.490 184.220,54.420 184.220,53.350 184.286,52.669 184.073,51.991 183.630,51.470 182.833,50.695 181.738,50.304 180.630,50.400 176.137,50.400 171.643,50.400 167.150,50.400 167.150,52.267 167.150,54.133 167.150,56.000 165.927,56.000 164.703,56.000 163.480,56.000 163.480,51.383 163.480,46.767 163.480,42.150 164.703,42.150 165.927,42.150 167.150,42.150 167.150,43.623 167.150,45.097 167.150,46.570 172.297,46.570 177.443,46.570 182.590,46.570 182.590,45.450 182.590,44.330 182.590,43.210 183.540,43.210 184.490,43.210 185.440,43.210 185.440,46.807 185.440,50.403 185.440,54.000 185.440,54.000 185.440,54.000 185.440,54.000 185.437,54.903 185.433,55.807 185.430,56.710 Z M 168.150,56.000 C 168.150,54.470 168.150,52.940 168.150,51.410 172.303,51.410 176.457,51.410 180.610,51.410 181.427,51.332 182.240,51.592 182.860,52.130 183.133,52.452 183.263,52.870 183.220,53.290 183.220,54.290 183.220,55.290 183.220,56.290 182.950,56.210 182.680,56.130 182.410,56.050 177.657,56.033 172.903,56.017 168.150,56.000 Z M 133.470,61.920 C 131.596,59.872 128.914,58.752 126.140,58.860 124.450,58.864 122.781,59.226 121.240,59.920 121.573,59.290 121.907,58.660 122.240,58.030 125.973,58.030 129.707,58.030 133.440,58.030 133.450,59.327 133.460,60.623 133.470,61.920 Z M 128.930,72.180 C 126.930,71.560 126.380,68.900 126.290,68.340 126.890,66.280 125.660,63.280 125.290,62.420 125.573,61.900 125.857,61.380 126.140,60.860 131.620,60.860 133.230,64.920 133.480,65.670 133.510,66.480 133.250,70.900 129.000,72.170 128.977,72.173 128.953,72.177 128.930,72.180 Z M 116.870,68.180 C 116.783,68.213 116.697,68.247 116.610,68.280 117.333,66.970 118.057,65.660 118.780,64.350 118.780,64.350 118.780,64.350 118.780,64.350 120.299,62.410 122.547,61.177 125.000,60.940 124.737,61.420 124.473,61.900 124.210,62.380 124.247,62.457 124.283,62.533 124.320,62.610 124.320,62.610 126.030,66.140 125.320,68.140 125.320,68.177 125.320,68.213 125.320,68.250 125.320,68.287 125.320,68.323 125.320,68.360 125.541,69.873 126.242,71.275 127.320,72.360 126.180,72.360 125.040,72.360 123.900,72.360 123.840,72.380 118.390,72.110 116.920,68.190 116.903,68.187 116.887,68.183 116.870,68.180 Z M 106.250,82.860 C 106.350,83.027 106.450,83.193 106.550,83.360 107.392,84.847 107.448,86.654 106.700,88.190 105.627,88.580 104.553,88.970 103.480,89.360 101.300,87.907 99.120,86.453 96.940,85.000 96.897,84.977 96.853,84.953 96.810,84.930 95.762,84.528 94.924,83.715 94.490,82.680 94.249,81.840 94.320,80.942 94.690,80.150 96.793,76.203 98.897,72.257 101.000,68.310 101.030,68.253 101.060,68.197 101.090,68.140 101.090,68.077 101.090,68.013 101.090,67.950 101.430,64.680 100.760,62.220 99.090,60.660 97.678,59.448 95.860,58.812 94.000,58.880 93.940,58.880 93.880,58.880 93.820,58.880 93.820,57.967 93.820,57.053 93.820,56.140 93.820,56.140 93.820,56.140 93.820,56.140 93.820,55.493 93.820,54.847 93.820,54.200 102.213,54.200 110.607,54.200 119.000,54.200 119.597,55.007 120.193,55.813 120.790,56.620 115.943,65.367 111.097,74.113 106.250,82.860 Z M 87.250,59.340 C 86.917,59.340 86.583,59.340 86.250,59.340 86.250,59.893 86.250,60.447 86.250,61.000 86.250,61.390 86.095,61.764 85.819,62.039 85.544,62.315 85.170,62.470 84.780,62.470 84.000,62.470 83.220,62.470 82.440,62.470 81.640,62.454 81.000,61.800 81.000,61.000 81.000,60.617 81.000,60.233 81.000,59.850 81.000,59.850 81.000,59.850 81.000,59.850 81.000,59.280 81.000,58.710 81.000,58.140 84.607,58.140 88.213,58.140 91.820,58.140 91.820,58.543 91.820,58.947 91.820,59.350 90.297,59.347 88.773,59.343 87.250,59.340 Z M 63.250,55.070 C 58.317,55.070 53.383,55.070 48.450,55.070 44.180,54.900 35.970,56.300 35.600,63.070 35.674,64.454 36.075,65.801 36.770,67.000 36.563,67.210 36.357,67.420 36.150,67.630 35.067,66.907 33.983,66.183 32.900,65.460 32.863,65.440 32.827,65.420 32.790,65.400 30.520,64.481 27.948,64.704 25.870,66.000 21.537,68.440 17.203,70.880 12.870,73.320 12.093,73.043 11.317,72.767 10.540,72.490 10.777,65.053 11.013,57.617 11.250,50.180 11.250,49.760 12.350,40.010 5.250,35.810 5.053,34.697 4.857,33.583 4.660,32.470 8.137,31.273 11.953,31.552 15.220,33.240 19.320,35.317 23.420,37.393 27.520,39.470 27.560,39.487 27.600,39.503 27.640,39.520 27.970,39.640 35.740,42.360 42.740,42.520 52.097,42.520 61.453,42.520 70.810,42.520 70.810,43.187 70.810,43.853 70.810,44.520 70.670,44.960 69.680,47.700 66.810,47.700 66.810,48.033 66.810,48.367 66.810,48.700 70.670,48.700 71.810,44.760 71.810,44.700 71.810,43.617 71.810,42.533 71.810,41.450 71.810,41.450 71.810,41.450 71.810,41.450 71.810,41.117 71.810,40.783 71.810,40.450 75.293,40.450 78.777,40.450 82.260,40.450 82.260,41.117 82.260,41.783 82.260,42.450 82.260,42.450 82.260,42.450 82.260,42.450 82.260,43.073 82.260,43.697 82.260,44.320 82.593,44.320 82.927,44.320 83.260,44.320 83.260,43.707 83.260,43.093 83.260,42.480 89.543,42.480 95.827,42.480 102.110,42.480 108.967,41.250 115.823,40.020 122.680,38.790 123.480,37.727 124.280,36.663 125.080,35.600 126.933,35.600 128.787,35.600 130.640,35.600 130.640,36.960 130.640,38.320 130.640,39.680 130.283,39.680 129.927,39.680 129.570,39.680 129.570,43.617 129.570,47.553 129.570,51.490 139.570,51.490 149.570,51.490 159.570,51.490 159.570,46.190 159.570,40.890 159.570,35.590 159.777,35.590 159.983,35.590 160.190,35.590 160.603,36.043 161.017,36.497 161.430,36.950 161.430,37.587 161.430,38.223 161.430,38.860 161.430,38.860 161.430,38.860 161.430,38.860 161.430,44.573 161.430,50.287 161.430,56.000 148.137,56.000 134.843,56.000 121.550,56.000 120.853,55.060 120.157,54.120 119.460,53.180 110.570,53.180 101.680,53.180 92.790,53.180 92.790,54.160 92.790,55.140 92.790,56.120 87.123,56.120 81.457,56.120 75.790,56.120 71.610,55.770 67.430,55.420 63.250,55.070 Z M 158.660,40.670 C 158.660,43.947 158.660,47.223 158.660,50.500 149.327,50.500 139.993,50.500 130.660,50.500 130.660,47.220 130.660,43.940 130.660,40.660 139.993,40.663 149.327,40.667 158.660,40.670 Z M 131.660,39.670 C 131.660,38.310 131.660,36.950 131.660,35.590 140.660,35.590 149.660,35.590 158.660,35.590 158.660,36.950 158.660,38.310 158.660,39.670 149.660,39.670 140.660,39.670 131.660,39.670 Z M 175.320,42.150 C 175.320,43.290 175.320,44.430 175.320,45.570 172.930,45.570 170.540,45.570 168.150,45.570 168.150,44.430 168.150,43.290 168.150,42.150 170.540,42.150 172.930,42.150 175.320,42.150 Z M 178.940,39.810 C 178.997,39.810 179.053,39.810 179.110,39.810 179.759,39.749 180.408,39.930 180.930,40.320 181.408,40.831 181.645,41.523 181.580,42.220 181.580,42.553 181.580,42.887 181.580,43.220 181.580,43.220 181.580,43.220 181.580,43.220 181.580,44.003 181.580,44.787 181.580,45.570 179.823,45.570 178.067,45.570 176.310,45.570 176.310,44.427 176.310,43.283 176.310,42.140 176.387,41.917 176.463,41.693 176.540,41.470 176.898,40.457 177.866,39.787 178.940,39.810 178.940,39.810 178.940,39.810 178.940,39.810 Z M 188.350,36.740 C 188.623,37.507 188.897,38.273 189.170,39.040 193.227,39.040 197.283,39.040 201.340,39.040 201.340,39.767 201.340,40.493 201.340,41.220 195.893,41.220 190.447,41.220 185.000,41.220 185.000,39.727 185.000,38.233 185.000,36.740 186.117,36.740 187.233,36.740 188.350,36.740 Z M 382.100,42.340 C 377.463,43.007 372.827,43.673 368.190,44.340 367.267,43.163 366.343,41.987 365.420,40.810 361.650,40.810 357.880,40.810 354.110,40.810 354.110,39.280 354.110,37.750 354.110,36.220 349.073,35.480 344.037,34.740 339.000,34.000 334.963,34.000 330.927,34.000 326.890,34.000 326.890,36.123 326.890,38.247 326.890,40.370 326.707,40.370 326.523,40.370 326.340,40.370 326.340,40.887 326.340,41.403 326.340,41.920 325.942,41.724 325.504,41.622 325.060,41.620 313.417,41.620 301.773,41.620 290.130,41.620 289.551,41.623 288.985,41.793 288.500,42.110 287.968,41.204 287.001,40.643 285.950,40.630 285.770,40.630 285.590,40.630 285.410,40.630 285.410,38.940 285.410,37.250 285.410,35.560 283.460,35.560 281.510,35.560 279.560,35.560 279.560,37.253 279.560,38.947 279.560,40.640 279.393,40.640 279.227,40.640 279.060,40.640 278.051,40.644 277.112,41.155 276.560,42.000 276.122,41.748 275.626,41.614 275.120,41.610 257.653,41.610 240.187,41.610 222.720,41.610 222.347,41.610 221.977,41.681 221.630,41.820 221.630,41.613 221.630,41.407 221.630,41.200 215.533,41.200 209.437,41.200 203.340,41.200 203.340,39.800 203.340,38.400 203.340,37.000 199.087,37.000 194.833,37.000 190.580,37.000 190.307,36.233 190.033,35.467 189.760,34.700 187.507,34.700 185.253,34.700 183.000,34.700 183.000,36.367 183.000,38.033 183.000,39.700 182.807,39.359 182.561,39.052 182.270,38.790 181.350,38.040 180.172,37.681 178.990,37.790 177.313,37.718 175.749,38.633 174.990,40.130 171.153,40.130 167.317,40.130 163.480,40.130 163.480,38.797 163.480,37.463 163.480,36.130 162.693,35.270 161.907,34.410 161.120,33.550 148.787,33.550 136.453,33.550 124.120,33.550 123.270,34.700 122.420,35.850 121.570,37.000 115.047,38.160 108.523,39.320 102.000,40.480 96.087,40.480 90.173,40.480 84.260,40.480 84.260,39.813 84.260,39.147 84.260,38.480 79.440,38.480 74.620,38.480 69.800,38.480 69.800,39.147 69.800,39.813 69.800,40.480 60.800,40.480 51.800,40.480 42.800,40.480 36.460,40.330 29.130,37.860 28.410,37.600 24.320,35.533 20.230,33.467 16.140,31.400 12.098,29.302 7.329,29.123 3.140,30.910 2.917,31.020 2.693,31.130 2.470,31.240 2.803,33.177 3.137,35.113 3.470,37.050 3.613,37.127 3.757,37.203 3.900,37.280 10.260,40.670 9.290,49.800 9.280,50.000 9.027,57.943 8.773,65.887 8.520,73.830 10.040,74.373 11.560,74.917 13.080,75.460 17.667,72.870 22.253,70.280 26.840,67.690 28.332,66.746 30.174,66.536 31.840,67.120 33.357,68.120 34.873,69.120 36.390,70.120 37.390,69.120 38.390,68.120 39.390,67.120 39.190,66.887 38.990,66.653 38.790,66.420 38.092,65.446 37.679,64.296 37.600,63.100 37.950,56.720 48.270,57.100 48.410,57.100 53.330,57.100 58.250,57.100 63.170,57.100 67.353,57.457 71.537,57.813 75.720,58.170 77.147,58.170 78.573,58.170 80.000,58.170 80.000,58.570 80.000,58.970 80.000,59.370 80.000,59.370 80.000,59.370 80.000,59.370 80.000,59.913 80.000,60.457 80.000,61.000 80.000,61.655 80.260,62.283 80.723,62.747 81.187,63.210 81.815,63.470 82.470,63.470 83.263,63.470 84.057,63.470 84.850,63.470 86.202,63.454 87.290,62.353 87.290,61.000 87.290,60.790 87.290,60.580 87.290,60.370 88.800,60.370 90.310,60.370 91.820,60.370 91.820,60.643 91.820,60.917 91.820,61.190 92.213,61.127 92.607,61.063 93.000,61.000 93.000,61.000 95.940,60.530 97.700,62.160 98.870,63.250 99.340,65.070 99.110,67.590 97.047,71.453 94.983,75.317 92.920,79.180 92.300,80.450 92.182,81.907 92.590,83.260 93.175,84.802 94.368,86.035 95.890,86.670 98.347,88.310 100.803,89.950 103.260,91.590 104.883,91.000 106.507,90.410 108.130,89.820 108.190,89.720 108.250,89.620 108.310,89.520 109.459,87.471 109.563,84.998 108.590,82.860 110.943,78.610 113.297,74.360 115.650,70.110 118.070,74.110 123.560,74.370 123.850,74.380 125.353,74.380 126.857,74.380 128.360,74.380 134.160,73.380 135.580,68.150 135.510,65.520 135.510,63.013 135.510,60.507 135.510,58.000 151.007,58.000 166.503,58.000 182.000,58.000 182.773,58.233 183.547,58.467 184.320,58.700 185.363,58.700 186.407,58.700 187.450,58.700 187.450,57.800 187.450,56.900 187.450,56.000 188.750,56.000 190.050,56.000 191.350,56.000 191.350,56.667 191.350,57.333 191.350,58.000 192.017,58.000 192.683,58.000 193.350,58.000 193.350,57.333 193.350,56.667 193.350,56.000 202.780,56.000 212.210,56.000 221.640,56.000 221.640,55.577 221.640,55.153 221.640,54.730 221.987,54.869 222.357,54.940 222.730,54.940 223.280,54.940 223.830,54.940 224.380,54.940 222.895,55.975 221.967,57.633 221.860,59.440 221.807,60.340 221.753,61.240 221.700,62.140 221.607,63.719 222.151,65.269 223.208,66.445 224.266,67.621 225.750,68.325 227.330,68.400 229.567,68.370 231.803,68.340 234.040,68.310 236.151,68.441 238.170,67.429 239.330,65.660 261.803,66.590 284.277,67.520 306.750,68.450 307.597,68.813 308.443,69.177 309.290,69.540 313.173,69.700 317.057,69.860 320.940,70.020 320.900,70.687 320.860,71.353 320.820,72.020 321.680,72.070 322.540,72.120 323.400,72.170 323.440,71.477 323.480,70.783 323.520,70.090 323.937,70.107 324.353,70.123 324.770,70.140 324.813,69.120 324.857,68.100 324.900,67.080 325.567,67.120 326.233,67.160 326.900,67.200 326.827,68.433 326.753,69.667 326.680,70.900 328.427,71.003 330.173,71.107 331.920,71.210 332.037,71.210 332.153,71.210 332.270,71.210 335.188,71.207 337.660,69.058 338.067,66.168 338.474,63.279 336.694,60.530 333.890,59.720 335.130,59.720 336.370,59.720 337.610,59.720 337.610,58.283 337.610,56.847 337.610,55.410 341.433,55.077 345.257,54.743 349.080,54.410 349.080,55.040 349.080,55.670 349.080,56.300 354.543,56.300 360.007,56.300 365.470,56.300 366.393,55.123 367.317,53.947 368.240,52.770 372.877,53.437 377.513,54.103 382.150,54.770 382.133,50.627 382.117,46.483 382.100,42.340 Z " />
  <path stroke="none" fill="#ffffffff" d="M 127.380,45.100 C 125.087,45.100 122.793,45.100 120.500,45.100 120.500,44.217 120.500,43.333 120.500,42.450 122.790,42.450 125.080,42.450 127.370,42.450 127.373,43.333 127.377,44.217 127.380,45.100 Z M 128.380,41.450 C 125.420,41.450 122.460,41.450 119.500,41.450 119.500,43.000 119.500,44.550 119.500,46.100 122.457,46.100 125.413,46.100 128.370,46.100 128.373,44.550 128.377,43.000 128.380,41.450 Z " />
</svg>