<?xml version="1.0" encoding="UTF-8" standalone="no"?>
<!DOCTYPE svg PUBLIC "-//W3C//DTD SVG 20010904//EN" "http://www.w3.org/TR/2001/REC-SVG-20010904/DTD/svg10.dtd"[]>
<svg version="1.1" id="Frosty Editor v1.0.6.3" xmlns="http://www.w3.org/2000/svg" d1p1:xlink="http://www.w3.org/1999/xlink" viewBox="0 0 25 25" xmlns:d1p1="xmlns">
  <path stroke="none" fill="#ffffffff" d="M 12.430,20.250 C 8.197,20.250 4.758,16.810 4.758,12.577 4.758,8.343 8.197,4.904 12.430,4.904 16.664,4.904 20.103,8.343 20.103,12.577 20.103,16.810 16.664,20.250 12.430,20.250 12.430,20.250 12.430,20.250 12.430,20.250 Z M 12.430,4.110 C 7.747,4.110 3.964,7.893 3.964,12.577 3.964,17.260 7.747,21.043 12.430,21.043 17.114,21.043 20.897,17.260 20.897,12.577 20.897,7.893 17.114,4.110 12.430,4.110 12.430,4.110 12.430,4.110 12.430,4.110 Z " />
  <path stroke="none" fill="#ffffffff" d="M 12.430,19.191 C 8.779,19.191 5.816,16.228 5.816,12.577 5.816,8.925 8.779,5.962 12.430,5.962 16.082,5.962 19.045,8.925 19.045,12.577 19.045,16.228 16.082,19.191 12.430,19.191 12.430,19.191 12.430,19.191 12.430,19.191 Z M 12.430,5.697 C 8.620,5.697 5.551,8.767 5.551,12.577 5.551,16.387 8.620,19.456 12.430,19.456 16.240,19.456 19.310,16.387 19.310,12.577 19.310,8.767 16.240,5.697 12.430,5.697 12.430,5.697 12.430,5.697 12.430,5.697 Z " />
  <path stroke="none" fill="#ffffffff" d="M 12.425,7.535 C 9.633,7.535 7.385,9.783 7.385,12.575 7.385,15.367 9.633,17.615 12.425,17.615 15.217,17.615 17.465,15.367 17.465,12.575 17.465,9.783 15.217,7.535 12.425,7.535 Z M 10.229,9.220 C 14.555,9.220 14.555,9.220 14.555,9.220 14.967,9.244 15.284,9.594 15.267,10.007 15.267,13.703 15.267,13.703 15.267,13.703 15.269,13.912 15.190,14.114 15.048,14.268 14.961,14.361 14.874,14.454 14.787,14.547 13.746,13.506 13.746,13.506 13.746,13.506 13.193,13.506 13.193,13.506 13.193,13.506 13.193,13.921 13.193,13.921 13.193,13.921 13.566,14.299 13.938,14.677 14.311,15.055 13.855,15.541 13.399,16.027 12.942,16.514 12.625,16.591 12.294,16.634 11.951,16.639 11.926,16.618 11.902,16.595 11.880,16.571 11.162,15.803 10.445,15.036 9.727,14.268 9.587,14.115 9.510,13.914 9.511,13.707 9.511,10.262 9.511,10.262 9.511,10.262 10.750,11.500 10.750,11.500 10.750,11.500 11.303,11.500 11.303,11.500 11.303,11.500 11.303,11.086 11.303,11.086 11.303,11.086 10.772,10.546 10.240,10.007 9.708,9.468 9.838,9.325 10.021,9.231 10.229,9.220 Z " />
</svg>