<?xml version="1.0" encoding="UTF-8" standalone="no"?>
<!DOCTYPE svg PUBLIC "-//W3C//DTD SVG 20010904//EN" "http://www.w3.org/TR/2001/REC-SVG-20010904/DTD/svg10.dtd"[]>
<svg version="1.1" id="Frosty Editor v1.0.6.3" xmlns="http://www.w3.org/2000/svg" d1p1:xlink="http://www.w3.org/1999/xlink" viewBox="0 0 96 96" xmlns:d1p1="xmlns">
  <path stroke="none" fill="none" d="M 56.000,47.600 C 57.467,46.167 58.933,44.733 60.400,43.300 61.867,43.300 63.333,43.300 64.800,43.300 64.800,41.333 64.800,39.367 64.800,37.400 62.833,37.400 60.867,37.400 58.900,37.400 58.900,38.800 58.900,40.200 58.900,41.600 57.067,43.400 55.233,45.200 53.400,47.000 53.400,38.800 53.400,30.600 53.400,22.400 49.167,22.400 44.933,22.400 40.700,22.400 40.667,28.767 40.633,35.133 40.600,41.500 34.433,41.500 28.267,41.500 22.100,41.500 22.100,45.767 22.100,50.033 22.100,54.300 30.200,54.300 38.300,54.300 46.400,54.300 44.900,55.767 43.400,57.233 41.900,58.700 40.500,58.700 39.100,58.700 37.700,58.700 37.700,60.600 37.700,62.500 37.700,64.400 39.700,64.400 41.700,64.400 43.700,64.400 43.700,63.000 43.700,61.600 43.700,60.200 45.667,58.233 47.633,56.267 49.600,54.300 51.400,54.300 53.200,54.300 55.000,54.300 55.000,61.333 55.000,68.367 55.000,75.400 57.233,74.433 59.467,73.467 61.700,72.500 61.700,66.433 61.700,60.367 61.700,54.300 65.433,54.300 69.167,54.300 72.900,54.300 72.900,52.067 72.900,49.833 72.900,47.600 67.267,47.600 61.633,47.600 56.000,47.600 Z " />
  <path stroke="none" fill="#ffffffff" d="M 61.700,54.300 C 61.700,60.367 61.700,66.433 61.700,72.500 59.467,73.467 57.233,74.433 55.000,75.400 55.000,68.367 55.000,61.333 55.000,54.300 53.200,54.300 51.400,54.300 49.600,54.300 47.633,56.267 45.667,58.233 43.700,60.200 43.700,61.600 43.700,63.000 43.700,64.400 41.700,64.400 39.700,64.400 37.700,64.400 37.700,62.500 37.700,60.600 37.700,58.700 39.067,58.700 40.433,58.700 41.800,58.700 43.333,57.233 44.867,55.767 46.400,54.300 38.300,54.300 30.200,54.300 22.100,54.300 22.100,50.033 22.100,45.767 22.100,41.500 28.233,41.500 34.367,41.500 40.500,41.500 40.533,35.133 40.567,28.767 40.600,22.400 44.867,22.400 49.133,22.400 53.400,22.400 53.400,30.600 53.400,38.800 53.400,47.000 55.233,45.167 57.067,43.333 58.900,41.500 58.900,40.100 58.900,38.700 58.900,37.300 60.867,37.300 62.833,37.300 64.800,37.300 64.800,39.267 64.800,41.233 64.800,43.200 63.333,43.200 61.867,43.200 60.400,43.200 58.933,44.667 57.467,46.133 56.000,47.600 61.600,47.600 67.200,47.600 72.800,47.600 72.800,49.833 72.800,52.067 72.800,54.300 69.100,54.300 65.400,54.300 61.700,54.300 61.700,54.300 61.700,54.300 61.700,54.300 Z M 48.000,14.500 C 29.500,14.500 14.500,29.500 14.500,48.000 14.500,66.500 29.500,81.500 48.000,81.500 66.500,81.500 81.500,66.500 81.500,48.000 81.500,29.500 66.500,14.500 48.000,14.500 48.000,14.500 48.000,14.500 48.000,14.500 Z " />
</svg>