<?xml version="1.0" encoding="UTF-8" standalone="no"?>
<!DOCTYPE svg PUBLIC "-//W3C//DTD SVG 20010904//EN" "http://www.w3.org/TR/2001/REC-SVG-20010904/DTD/svg10.dtd"[]>
<svg version="1.1" id="Frosty Editor v1.0.6.3" xmlns="http://www.w3.org/2000/svg" d1p1:xlink="http://www.w3.org/1999/xlink" viewBox="0 0 96 96" xmlns:d1p1="xmlns">
  <path stroke="none" fill="#ffffffff" d="M 46.550,15.600 C 34.010,16.144 22.864,23.756 17.793,35.238 12.722,46.720 14.605,60.085 22.650,69.720 22.966,70.099 23.423,70.331 23.915,70.361 24.408,70.391 24.890,70.217 25.250,69.880 25.250,69.880 25.250,69.880 25.250,69.880 25.938,69.238 26.003,68.171 25.400,67.450 15.491,55.550 16.500,38.006 27.707,27.320 38.914,16.633 56.486,16.460 67.902,26.923 79.318,37.386 80.672,54.906 71.000,67.000 70.418,67.735 70.510,68.796 71.210,69.420 71.577,69.747 72.062,69.909 72.552,69.867 73.042,69.826 73.493,69.584 73.800,69.200 81.904,59.086 83.337,45.164 77.463,33.611 71.590,22.058 59.497,15.012 46.550,15.600 46.550,15.600 46.550,15.600 46.550,15.600 Z " />
  <path stroke="none" fill="#ffffffff" d="M 59.370,32.780 C 52.247,32.780 45.123,32.780 38.000,32.780 35.938,32.872 34.340,34.617 34.430,36.680 34.430,42.787 34.430,48.893 34.430,55.000 34.424,56.028 34.806,57.021 35.500,57.780 39.037,61.563 42.573,65.347 46.110,69.130 46.747,69.840 47.656,70.245 48.610,70.245 49.564,70.245 50.473,69.840 51.110,69.130 54.697,65.330 58.283,61.530 61.870,57.730 62.553,56.984 62.934,56.011 62.940,55.000 62.940,48.893 62.940,42.787 62.940,36.680 63.030,34.617 61.432,32.872 59.370,32.780 59.370,32.780 59.370,32.780 59.370,32.780 Z " />
</svg>