<?xml version="1.0" encoding="UTF-8" standalone="no"?>
<!DOCTYPE svg PUBLIC "-//W3C//DTD SVG 20010904//EN" "http://www.w3.org/TR/2001/REC-SVG-20010904/DTD/svg10.dtd"[]>
<svg version="1.1" id="Frosty Editor v1.0.6.3" xmlns="http://www.w3.org/2000/svg" d1p1:xlink="http://www.w3.org/1999/xlink" viewBox="0 0 384 96" xmlns:d1p1="xmlns">
  <path stroke="none" fill="#ffffffff" d="M 163.000,35.370 C 162.187,35.459 161.449,34.889 161.330,34.080 161.527,33.321 162.211,32.791 162.995,32.791 163.779,32.791 164.463,33.321 164.660,34.080 164.546,34.889 163.813,35.463 163.000,35.380 163.000,35.377 163.000,35.373 163.000,35.370 Z M 163.000,31.790 C 161.633,31.692 160.442,32.714 160.330,34.080 160.543,35.387 161.671,36.347 162.995,36.347 164.319,36.347 165.448,35.387 165.660,34.080 165.548,32.718 164.364,31.698 163.000,31.790 163.000,31.790 163.000,31.790 163.000,31.790 Z " />
  <path stroke="none" fill="#ffffffff" d="M 156.170,35.370 C 155.357,35.459 154.619,34.889 154.500,34.080 154.697,33.321 155.381,32.791 156.165,32.791 156.949,32.791 157.633,33.321 157.830,34.080 157.716,34.889 156.983,35.463 156.170,35.380 156.170,35.377 156.170,35.373 156.170,35.370 Z M 156.170,31.790 C 154.803,31.692 153.612,32.714 153.500,34.080 153.713,35.387 154.841,36.347 156.165,36.347 157.489,36.347 158.618,35.387 158.830,34.080 158.718,32.718 157.534,31.698 156.170,31.790 156.170,31.790 156.170,31.790 156.170,31.790 Z " />
  <path stroke="none" fill="#ffffffff" d="M 149.330,35.370 C 148.517,35.459 147.779,34.889 147.660,34.080 147.857,33.321 148.541,32.791 149.325,32.791 150.109,32.791 150.793,33.321 150.990,34.080 150.876,34.889 150.143,35.463 149.330,35.380 149.330,35.377 149.330,35.373 149.330,35.370 Z M 149.330,31.790 C 147.963,31.692 146.772,32.714 146.660,34.080 146.873,35.387 148.001,36.347 149.325,36.347 150.649,36.347 151.778,35.387 151.990,34.080 151.878,32.718 150.694,31.698 149.330,31.790 149.330,31.790 149.330,31.790 149.330,31.790 Z " />
  <path stroke="none" fill="#ffffffff" d="M 142.500,35.370 C 141.687,35.459 140.949,34.889 140.830,34.080 141.027,33.321 141.711,32.791 142.495,32.791 143.279,32.791 143.963,33.321 144.160,34.080 144.046,34.889 143.313,35.463 142.500,35.380 142.500,35.377 142.500,35.373 142.500,35.370 Z M 142.500,31.790 C 141.133,31.692 139.942,32.714 139.830,34.080 140.043,35.387 141.171,36.347 142.495,36.347 143.819,36.347 144.948,35.387 145.160,34.080 145.048,32.718 143.864,31.698 142.500,31.790 142.500,31.790 142.500,31.790 142.500,31.790 Z " />
  <path stroke="none" fill="#ffffffff" d="M 135.670,35.370 C 134.857,35.459 134.119,34.889 134.000,34.080 134.197,33.321 134.881,32.791 135.665,32.791 136.449,32.791 137.133,33.321 137.330,34.080 137.216,34.889 136.483,35.463 135.670,35.380 135.670,35.377 135.670,35.373 135.670,35.370 Z M 135.670,31.790 C 134.303,31.692 133.112,32.714 133.000,34.080 133.213,35.387 134.341,36.347 135.665,36.347 136.989,36.347 138.118,35.387 138.330,34.080 138.218,32.718 137.034,31.698 135.670,31.790 135.670,31.790 135.670,31.790 135.670,31.790 Z " />
  <path stroke="none" fill="#ffffffff" d="M 113.000,34.770 C 117.037,34.770 121.073,34.770 125.110,34.770 125.110,36.533 125.110,38.297 125.110,40.060 121.073,40.060 117.037,40.060 113.000,40.060 113.000,38.297 113.000,36.533 113.000,34.770 Z M 111.000,42.060 C 116.370,42.060 121.740,42.060 127.110,42.060 127.110,38.963 127.110,35.867 127.110,32.770 121.740,32.770 116.370,32.770 111.000,32.770 111.000,35.867 111.000,38.963 111.000,42.060 Z " />
  <path stroke="none" fill="#ffffffff" d="M 116.110,36.730 C 117.927,36.730 119.743,36.730 121.560,36.730 121.560,37.213 121.560,37.697 121.560,38.180 119.743,38.180 117.927,38.180 116.110,38.180 116.110,37.697 116.110,37.213 116.110,36.730 Z M 115.110,39.180 C 117.593,39.180 120.077,39.180 122.560,39.180 122.560,38.033 122.560,36.887 122.560,35.740 120.077,35.740 117.593,35.740 115.110,35.740 115.110,36.887 115.110,38.033 115.110,39.180 Z " />
  <path stroke="none" fill="#ffffffff" d="M 200.830,42.130 C 194.887,42.130 188.943,42.130 183.000,42.130 183.000,41.240 183.000,40.350 183.000,39.460 182.417,39.460 181.833,39.460 181.250,39.460 180.852,39.460 180.471,39.302 180.189,39.021 179.908,38.739 179.750,38.358 179.750,37.960 179.750,37.433 179.750,36.907 179.750,36.380 179.750,35.982 179.908,35.601 180.189,35.319 180.471,35.038 180.852,34.880 181.250,34.880 181.833,34.880 182.417,34.880 183.000,34.880 183.000,34.047 183.000,33.213 183.000,32.380 188.943,32.380 194.887,32.380 200.830,32.380 200.830,35.630 200.830,38.880 200.830,42.130 Z M 182.000,31.380 C 182.000,32.213 182.000,33.047 182.000,33.880 181.750,33.880 181.500,33.880 181.250,33.880 180.587,33.880 179.951,34.143 179.482,34.612 179.013,35.081 178.750,35.717 178.750,36.380 178.750,36.920 178.750,37.460 178.750,38.000 178.750,38.663 179.013,39.299 179.482,39.768 179.951,40.237 180.587,40.500 181.250,40.500 181.500,40.500 181.750,40.500 182.000,40.500 182.000,41.390 182.000,42.280 182.000,43.170 188.610,43.170 195.220,43.170 201.830,43.170 201.830,39.240 201.830,35.310 201.830,31.380 195.220,31.380 188.610,31.380 182.000,31.380 Z " />
  <path stroke="none" fill="#ffffffff" d="M 174.570,34.620 C 175.150,34.620 175.730,34.620 176.310,34.620 176.310,37.260 176.310,39.900 176.310,42.540 175.730,42.540 175.150,42.540 174.570,42.540 174.570,39.900 174.570,37.260 174.570,34.620 Z M 173.570,43.540 C 174.817,43.540 176.063,43.540 177.310,43.540 177.310,40.237 177.310,36.933 177.310,33.630 176.063,33.630 174.817,33.630 173.570,33.630 173.570,36.933 173.570,40.237 173.570,43.540 Z " />
  <path stroke="none" fill="#ffffffff" d="M 276.400,42.050 C 269.343,43.457 262.287,44.863 255.230,46.270 255.230,40.477 255.230,34.683 255.230,28.890 262.287,30.297 269.343,31.703 276.400,33.110 276.400,36.090 276.400,39.070 276.400,42.050 Z M 220.070,28.790 C 231.460,28.790 242.850,28.790 254.240,28.790 254.240,34.653 254.240,40.517 254.240,46.380 242.853,46.380 231.467,46.380 220.080,46.380 220.077,40.517 220.073,34.653 220.070,28.790 Z M 144.750,44.620 C 145.227,43.927 145.703,43.233 146.180,42.540 140.377,42.540 134.573,42.540 128.770,42.540 129.040,43.233 129.310,43.927 129.580,44.620 120.193,44.620 110.807,44.620 101.420,44.620 101.420,40.310 101.420,36.000 101.420,31.690 105.047,31.690 108.673,31.690 112.300,31.690 112.300,31.210 112.300,30.730 112.300,30.250 116.900,30.250 121.500,30.250 126.100,30.250 126.100,30.530 126.100,30.810 126.100,31.090 127.143,31.090 128.187,31.090 129.230,31.090 129.230,30.933 129.230,30.777 129.230,30.620 132.963,30.620 136.697,30.620 140.430,30.620 140.430,30.777 140.430,30.933 140.430,31.090 141.473,31.090 142.517,31.090 143.560,31.090 143.560,30.933 143.560,30.777 143.560,30.620 145.433,30.620 147.307,30.620 149.180,30.620 149.180,30.777 149.180,30.933 149.180,31.090 150.223,31.090 151.267,31.090 152.310,31.090 152.310,30.933 152.310,30.777 152.310,30.620 154.510,30.620 156.710,30.620 158.910,30.620 158.910,30.497 158.910,30.373 158.910,30.250 178.633,30.250 198.357,30.250 218.080,30.250 218.080,35.043 218.080,39.837 218.080,44.630 193.637,44.627 169.193,44.623 144.750,44.620 Z M 180.000,49.280 C 173.371,49.846 166.916,51.705 161.000,54.750 157.333,57.500 153.667,60.250 150.000,63.000 149.983,62.430 149.967,61.860 149.950,61.290 148.487,61.063 147.023,60.837 145.560,60.610 145.110,57.943 144.660,55.277 144.210,52.610 144.127,51.397 144.043,50.183 143.960,48.970 143.960,48.930 143.960,48.890 143.960,48.850 143.650,48.025 143.601,47.124 143.820,46.270 143.820,46.403 143.820,46.537 143.820,46.670 156.547,46.670 169.273,46.670 182.000,46.670 181.333,47.540 180.667,48.410 180.000,49.280 Z M 162.270,56.410 C 165.004,55.017 167.859,53.875 170.800,53.000 170.163,55.247 169.527,57.493 168.890,59.740 169.517,61.463 170.143,63.187 170.770,64.910 170.337,65.053 169.903,65.197 169.470,65.340 168.980,64.043 168.490,62.747 168.000,61.450 167.153,61.250 166.307,61.050 165.460,60.850 165.350,59.567 165.240,58.283 165.130,57.000 164.177,56.803 163.223,56.607 162.270,56.410 Z M 178.580,64.000 C 177.581,65.767 175.874,67.022 173.890,67.450 170.868,68.218 167.670,67.863 164.890,66.450 162.270,64.960 160.400,62.310 159.300,58.590 159.910,58.137 160.520,57.683 161.130,57.230 162.147,57.440 163.163,57.650 164.180,57.860 164.303,59.147 164.427,60.433 164.550,61.720 165.453,61.937 166.357,62.153 167.260,62.370 167.783,63.813 168.307,65.257 168.830,66.700 169.897,66.343 170.963,65.987 172.030,65.630 171.323,63.687 170.617,61.743 169.910,59.800 170.577,57.467 171.243,55.133 171.910,52.800 174.321,52.146 176.783,51.694 179.270,51.450 179.800,53.590 180.930,59.860 178.580,64.000 178.580,64.000 178.580,64.000 178.580,64.000 Z M 131.190,87.410 C 131.427,87.610 131.663,87.810 131.900,88.010 132.559,88.481 132.990,89.206 133.090,90.010 133.064,90.803 132.751,91.560 132.210,92.140 131.683,92.667 131.157,93.193 130.630,93.720 126.700,91.440 122.770,89.160 118.840,86.880 117.056,85.780 116.423,83.490 117.390,81.630 122.770,73.163 128.150,64.697 133.530,56.230 134.138,55.253 134.505,54.146 134.600,53.000 137.480,53.023 140.360,53.047 143.240,53.070 143.710,55.857 144.180,58.643 144.650,61.430 146.077,61.650 147.503,61.870 148.930,62.090 148.930,62.613 148.930,63.137 148.930,63.660 148.543,63.947 148.157,64.233 147.770,64.520 142.243,72.150 136.717,79.780 131.190,87.410 Z M 131.500,46.780 C 131.080,45.700 130.660,44.620 130.240,43.540 134.927,43.540 139.613,43.540 144.300,43.540 143.867,44.183 143.433,44.827 143.000,45.470 142.522,46.612 142.504,47.895 142.950,49.050 143.020,50.070 143.090,51.090 143.160,52.110 140.303,52.073 137.447,52.037 134.590,52.000 134.551,51.572 134.467,51.150 134.340,50.740 133.776,49.184 132.793,47.814 131.500,46.780 131.500,46.780 131.500,46.780 131.500,46.780 Z M 117.590,48.880 C 113.097,48.880 108.603,48.880 104.110,48.880 103.443,48.130 102.777,47.380 102.110,46.630 107.277,46.630 112.443,46.630 117.610,46.630 117.603,47.380 117.597,48.130 117.590,48.880 Z M 99.420,46.460 C 98.167,46.460 96.913,46.460 95.660,46.460 96.327,45.293 96.993,44.127 97.660,42.960 94.863,42.960 92.067,42.960 89.270,42.960 89.270,38.807 89.270,34.653 89.270,30.500 90.057,30.000 90.843,29.500 91.630,29.000 94.227,29.000 96.823,29.000 99.420,29.000 99.420,34.833 99.420,40.667 99.420,46.500 99.420,46.487 99.420,46.473 99.420,46.460 Z M 93.370,50.210 C 92.003,50.210 90.637,50.210 89.270,50.210 89.270,48.140 89.270,46.070 89.270,44.000 91.513,44.000 93.757,44.000 96.000,44.000 95.513,44.833 95.027,45.667 94.540,46.500 94.540,46.500 94.540,46.500 94.540,46.500 94.167,47.130 93.793,47.760 93.420,48.390 93.403,48.997 93.387,49.603 93.370,50.210 Z M 101.390,26.110 C 101.389,24.523 102.235,23.056 103.609,22.262 104.983,21.468 106.677,21.468 108.051,22.262 109.425,23.056 110.271,24.523 110.270,26.110 110.270,27.320 110.270,28.530 110.270,29.740 107.313,29.740 104.357,29.740 101.400,29.740 101.400,28.513 101.400,27.287 101.400,26.060 101.397,26.077 101.393,26.093 101.390,26.110 Z M 152.290,27.840 C 154.157,27.840 156.023,27.840 157.890,27.840 157.890,28.450 157.890,29.060 157.890,29.670 156.023,29.670 154.157,29.670 152.290,29.670 152.290,29.060 152.290,28.450 152.290,27.840 Z M 150.160,29.670 C 150.160,28.610 150.160,27.550 150.160,26.490 150.537,26.490 150.913,26.490 151.290,26.490 151.290,27.690 151.290,28.890 151.290,30.090 150.913,30.090 150.537,30.090 150.160,30.090 150.160,29.950 150.160,29.810 150.160,29.670 Z M 143.540,27.840 C 145.413,27.840 147.287,27.840 149.160,27.840 149.160,28.450 149.160,29.060 149.160,29.670 147.287,29.670 145.413,29.670 143.540,29.670 143.540,29.060 143.540,28.450 143.540,27.840 Z M 141.410,29.670 C 141.410,28.610 141.410,27.550 141.410,26.490 141.787,26.490 142.163,26.490 142.540,26.490 142.540,27.690 142.540,28.890 142.540,30.090 142.163,30.090 141.787,30.090 141.410,30.090 141.410,29.950 141.410,29.810 141.410,29.670 Z M 129.210,27.840 C 132.943,27.840 136.677,27.840 140.410,27.840 140.410,28.450 140.410,29.060 140.410,29.670 136.677,29.670 132.943,29.670 129.210,29.670 129.210,29.060 129.210,28.450 129.210,27.840 Z M 128.210,27.840 C 128.210,28.607 128.210,29.373 128.210,30.140 127.840,30.140 127.470,30.140 127.100,30.140 127.100,28.940 127.100,27.740 127.100,26.540 127.477,26.540 127.853,26.540 128.230,26.540 128.223,26.973 128.217,27.407 128.210,27.840 Z M 128.560,23.590 C 128.560,23.143 128.560,22.697 128.560,22.250 134.977,22.250 141.393,22.250 147.810,22.250 147.810,22.680 147.810,23.110 147.810,23.540 151.643,23.540 155.477,23.540 159.310,23.540 159.310,23.110 159.310,22.680 159.310,22.250 173.003,22.250 186.697,22.250 200.390,22.250 200.390,24.250 200.390,26.250 200.390,28.250 186.557,28.250 172.723,28.250 158.890,28.250 158.890,27.763 158.890,27.277 158.890,26.790 156.690,26.790 154.490,26.790 152.290,26.790 152.290,26.357 152.290,25.923 152.290,25.490 151.247,25.490 150.203,25.490 149.160,25.490 149.160,25.923 149.160,26.357 149.160,26.790 147.287,26.790 145.413,26.790 143.540,26.790 143.540,26.357 143.540,25.923 143.540,25.490 142.497,25.490 141.453,25.490 140.410,25.490 140.410,25.923 140.410,26.357 140.410,26.790 136.677,26.790 132.943,26.790 129.210,26.790 129.210,26.357 129.210,25.923 129.210,25.490 128.173,25.490 127.137,25.490 126.100,25.490 126.100,26.410 126.100,27.330 126.100,28.250 121.497,28.250 116.893,28.250 112.290,28.250 112.290,27.520 112.290,26.790 112.290,26.060 112.281,24.684 111.828,23.348 111.000,22.250 113.017,22.250 115.033,22.250 117.050,22.250 117.050,22.680 117.050,23.110 117.050,23.540 120.887,23.557 124.723,23.573 128.560,23.590 Z M 108.560,14.690 C 108.560,11.913 108.560,9.137 108.560,6.360 111.767,6.360 114.973,6.360 118.180,6.360 118.180,9.123 118.180,11.887 118.180,14.650 114.973,14.663 111.767,14.677 108.560,14.690 Z M 106.560,15.520 C 105.893,15.917 105.227,16.313 104.560,16.710 104.560,12.583 104.560,8.457 104.560,4.330 105.227,4.727 105.893,5.123 106.560,5.520 106.560,8.853 106.560,12.187 106.560,15.520 Z M 93.840,4.000 C 97.087,4.000 100.333,4.000 103.580,4.000 103.580,8.333 103.580,12.667 103.580,17.000 100.333,17.000 97.087,17.000 93.840,17.000 93.840,12.667 93.840,8.333 93.840,4.000 Z M 130.310,6.360 C 130.310,9.123 130.310,11.887 130.310,14.650 129.367,14.650 128.423,14.650 127.480,14.650 127.480,11.887 127.480,9.123 127.480,6.360 128.423,6.360 129.367,6.360 130.310,6.360 Z M 132.310,6.000 C 132.513,5.820 132.717,5.640 132.920,5.460 132.920,5.460 132.920,5.460 132.920,5.460 133.041,8.202 135.300,10.364 138.045,10.364 140.790,10.364 143.049,8.202 143.170,5.460 143.170,5.330 143.170,5.220 143.170,5.090 143.503,5.377 143.837,5.663 144.170,5.950 144.170,8.950 144.170,11.950 144.170,14.950 143.623,15.433 143.077,15.917 142.530,16.400 139.687,16.400 136.843,16.400 134.000,16.400 133.437,15.933 132.873,15.467 132.310,15.000 132.310,12.000 132.310,9.000 132.310,6.000 Z M 138.000,2.440 C 139.708,2.423 141.108,3.792 141.130,5.500 141.036,7.157 139.665,8.453 138.005,8.453 136.345,8.453 134.974,7.157 134.880,5.500 134.902,3.796 136.296,2.429 138.000,2.440 138.000,2.440 138.000,2.440 138.000,2.440 Z M 140.810,18.410 C 141.627,18.410 142.443,18.410 143.260,18.410 143.927,17.807 144.593,17.203 145.260,16.600 146.113,16.600 146.967,16.600 147.820,16.600 147.820,17.803 147.820,19.007 147.820,20.210 145.467,20.210 143.113,20.210 140.760,20.210 140.777,19.610 140.793,19.010 140.810,18.410 Z M 137.680,18.410 C 138.057,18.410 138.433,18.410 138.810,18.410 138.810,19.010 138.810,19.610 138.810,20.210 138.433,20.210 138.057,20.210 137.680,20.210 137.680,19.610 137.680,19.010 137.680,18.410 Z M 131.180,16.600 C 131.847,17.203 132.513,17.807 133.180,18.410 133.997,18.410 134.813,18.410 135.630,18.410 135.630,19.010 135.630,19.610 135.630,20.210 133.277,20.210 130.923,20.210 128.570,20.210 128.570,19.020 128.570,17.830 128.570,16.640 129.440,16.627 130.310,16.613 131.180,16.600 Z M 119.180,11.040 C 121.613,11.040 124.047,11.040 126.480,11.040 126.480,11.693 126.480,12.347 126.480,13.000 124.047,13.000 121.613,13.000 119.180,13.000 119.180,12.347 119.180,11.693 119.180,11.040 Z M 119.180,5.040 C 121.613,5.040 124.047,5.040 126.480,5.040 126.480,6.707 126.480,8.373 126.480,10.040 124.047,10.040 121.613,10.040 119.180,10.040 119.180,8.373 119.180,6.707 119.180,5.040 Z M 119.180,21.540 C 119.180,19.027 119.180,16.513 119.180,14.000 121.613,14.000 124.047,14.000 126.480,14.000 126.480,16.527 126.480,19.053 126.480,21.580 124.047,21.567 121.613,21.553 119.180,21.540 Z M 149.000,6.270 C 149.000,9.033 149.000,11.797 149.000,14.560 148.033,14.560 147.067,14.560 146.100,14.560 146.100,11.827 146.100,9.093 146.100,6.360 147.067,6.330 148.033,6.300 149.000,6.270 Z M 150.000,11.000 C 152.380,11.000 154.760,11.000 157.140,11.000 157.140,11.667 157.140,12.333 157.140,13.000 154.760,13.000 152.380,13.000 150.000,13.000 150.000,12.333 150.000,11.667 150.000,11.000 Z M 150.000,5.000 C 152.380,5.000 154.760,5.000 157.140,5.000 157.140,6.667 157.140,8.333 157.140,10.000 154.760,10.000 152.380,10.000 150.000,10.000 150.000,8.333 150.000,6.667 150.000,5.000 Z M 150.000,21.540 C 150.000,19.027 150.000,16.513 150.000,14.000 152.380,14.000 154.760,14.000 157.140,14.000 157.140,16.527 157.140,19.053 157.140,21.580 154.760,21.567 152.380,21.553 150.000,21.540 Z M 161.750,6.360 C 161.750,9.123 161.750,11.887 161.750,14.650 160.553,14.650 159.357,14.650 158.160,14.650 158.160,11.887 158.160,9.123 158.160,6.360 159.357,6.360 160.553,6.360 161.750,6.360 Z M 174.610,8.000 C 174.610,9.667 174.610,11.333 174.610,13.000 170.990,13.533 167.370,14.067 163.750,14.600 163.750,13.837 163.750,13.073 163.750,12.310 164.370,12.310 164.990,12.310 165.610,12.310 165.610,11.060 165.610,9.810 165.610,8.560 164.990,8.560 164.370,8.560 163.750,8.560 163.750,7.840 163.750,7.120 163.750,6.400 167.370,6.933 170.990,7.467 174.610,8.000 Z M 202.910,19.400 C 203.679,19.556 204.379,19.952 204.910,20.530 205.690,22.020 206.470,23.510 207.250,25.000 207.250,26.097 207.250,27.193 207.250,28.290 205.723,28.290 204.197,28.290 202.670,28.290 202.670,25.790 202.670,23.290 202.670,20.790 202.670,19.680 202.910,19.440 202.910,19.440 202.910,19.427 202.910,19.413 202.910,19.400 Z M 280.500,34.000 C 279.807,34.000 279.113,34.000 278.420,34.000 278.420,33.157 278.420,32.313 278.420,31.470 270.613,29.917 262.807,28.363 255.000,26.810 242.683,26.810 230.367,26.810 218.050,26.810 218.050,27.297 218.050,27.783 218.050,28.270 215.107,28.270 212.163,28.270 209.220,28.270 209.220,27.000 209.220,25.730 209.220,24.460 208.320,22.793 207.420,21.127 206.520,19.460 206.460,19.380 206.400,19.300 206.340,19.220 205.770,18.660 203.770,16.880 202.110,17.580 201.250,17.940 200.760,18.840 200.660,20.230 186.883,20.230 173.107,20.230 159.330,20.230 159.330,19.033 159.330,17.837 159.330,16.640 160.803,16.640 162.277,16.640 163.750,16.640 163.750,16.640 163.750,16.640 163.750,16.640 168.037,15.990 172.323,15.340 176.610,14.690 176.610,11.900 176.610,9.110 176.610,6.320 172.323,5.673 168.037,5.027 163.750,4.380 163.750,4.380 163.750,4.380 163.750,4.380 162.277,4.380 160.803,4.380 159.330,4.380 159.330,3.920 159.330,3.460 159.330,3.000 155.497,3.000 151.663,3.000 147.830,3.000 147.830,3.453 147.830,3.907 147.830,4.360 146.977,4.360 146.123,4.360 145.270,4.360 144.603,3.757 143.937,3.153 143.270,2.550 142.937,2.550 142.603,2.550 142.270,2.550 142.270,2.550 142.270,2.550 142.270,2.550 141.305,1.218 139.760,0.429 138.115,0.429 136.470,0.429 134.925,1.218 133.960,2.550 133.723,2.550 133.487,2.550 133.250,2.550 132.583,3.153 131.917,3.757 131.250,4.360 130.397,4.360 129.543,4.360 128.690,4.360 128.690,3.907 128.690,3.453 128.690,3.000 124.857,3.000 121.023,3.000 117.190,3.000 117.190,3.453 117.190,3.907 117.190,4.360 114.293,4.360 111.397,4.360 108.500,4.360 107.167,3.560 105.833,2.760 104.500,1.960 100.280,1.960 96.060,1.960 91.840,1.960 91.840,7.640 91.840,13.320 91.840,19.000 96.067,19.000 100.293,19.000 104.520,19.000 105.853,18.200 107.187,17.400 108.520,16.600 111.380,16.600 114.240,16.600 117.100,16.600 117.100,17.803 117.100,19.007 117.100,20.210 114.293,20.210 111.487,20.210 108.680,20.210 108.680,20.210 108.680,20.210 108.680,20.210 106.687,19.231 104.331,19.352 102.448,20.528 100.565,21.705 99.424,23.770 99.430,25.990 99.430,26.327 99.430,26.663 99.430,27.000 96.620,27.000 93.810,27.000 91.000,27.000 89.743,27.820 88.487,28.640 87.230,29.460 87.230,31.197 87.230,32.933 87.230,34.670 86.363,34.670 85.497,34.670 84.630,34.670 84.630,36.253 84.630,37.837 84.630,39.420 84.823,39.420 85.017,39.420 85.210,39.420 85.210,41.253 85.210,43.087 85.210,44.920 85.543,44.920 85.877,44.920 86.210,44.920 86.210,43.087 86.210,41.253 86.210,39.420 86.543,39.420 86.877,39.420 87.210,39.420 87.210,43.683 87.210,47.947 87.210,52.210 89.910,52.210 92.610,52.210 95.310,52.210 95.310,51.107 95.310,50.003 95.310,48.900 95.397,48.753 95.483,48.607 95.570,48.460 97.380,48.460 99.190,48.460 101.000,48.460 101.723,49.267 102.447,50.073 103.170,50.880 108.623,50.880 114.077,50.880 119.530,50.880 119.530,49.463 119.530,48.047 119.530,46.630 122.230,46.630 124.930,46.630 127.630,46.630 128.420,47.030 131.560,48.770 132.380,51.380 132.757,52.684 132.533,54.088 131.770,55.210 126.397,63.697 121.023,72.183 115.650,80.670 114.146,83.469 115.084,86.955 117.790,88.620 122.193,91.163 126.597,93.707 131.000,96.250 131.890,95.360 132.780,94.470 133.670,93.580 134.576,92.607 135.083,91.329 135.090,90.000 135.031,88.940 134.594,87.936 133.860,87.170 138.953,80.170 144.047,73.170 149.140,66.170 151.970,64.070 154.800,61.970 157.630,59.870 158.910,63.750 161.030,66.560 163.960,68.220 166.011,69.348 168.319,69.927 170.660,69.900 171.928,69.911 173.192,69.756 174.420,69.440 176.925,68.859 179.068,67.246 180.320,65.000 183.020,60.290 181.840,53.540 181.260,51.000 182.337,49.553 183.413,48.107 184.490,46.660 195.690,46.660 206.890,46.660 218.090,46.660 218.090,47.243 218.090,47.827 218.090,48.410 230.373,48.410 242.657,48.410 254.940,48.410 262.770,46.850 270.600,45.290 278.430,43.730 278.430,42.780 278.430,41.830 278.430,40.880 279.123,40.880 279.817,40.880 280.510,40.880 280.507,38.587 280.503,36.293 280.500,34.000 Z " />
  <path stroke="none" fill="#ffffffff" d="M 168.290,47.820 C 168.982,47.836 169.531,48.408 169.520,49.100 169.509,49.791 168.942,50.345 168.250,50.340 167.558,50.334 167.000,49.772 167.000,49.080 167.000,48.740 167.137,48.415 167.380,48.178 167.623,47.941 167.951,47.812 168.290,47.820 168.290,47.820 168.290,47.820 168.290,47.820 Z M 168.290,51.340 C 169.534,51.323 170.531,50.304 170.520,49.060 170.509,47.816 169.494,46.815 168.250,46.820 167.006,46.826 166.000,47.836 166.000,49.080 166.000,49.685 166.242,50.264 166.673,50.689 167.103,51.114 167.686,51.348 168.290,51.340 168.290,51.340 168.290,51.340 168.290,51.340 Z " />
  <path stroke="none" fill="#ffffffff" d="M 147.130,56.120 C 147.103,55.359 147.510,54.648 148.181,54.287 148.852,53.926 149.670,53.978 150.290,54.420 149.353,55.367 148.417,56.313 147.480,57.260 147.252,56.927 147.130,56.533 147.130,56.130 147.130,56.127 147.130,56.123 147.130,56.120 Z M 151.210,56.120 C 151.210,56.650 150.999,57.159 150.624,57.534 150.249,57.909 149.740,58.120 149.210,58.120 148.878,58.120 148.552,58.038 148.260,57.880 149.173,56.973 150.087,56.067 151.000,55.160 151.150,55.461 151.223,55.794 151.210,56.130 151.210,56.127 151.210,56.123 151.210,56.120 Z M 146.810,59.340 C 147.037,59.110 147.263,58.880 147.490,58.650 148.687,59.594 150.402,59.490 151.476,58.408 152.551,57.326 152.643,55.610 151.690,54.420 153.147,52.947 154.603,51.473 156.060,50.000 155.823,49.763 155.587,49.527 155.350,49.290 153.900,50.763 152.450,52.237 151.000,53.710 150.475,53.307 149.832,53.089 149.170,53.090 148.374,53.090 147.611,53.406 147.049,53.969 146.486,54.531 146.170,55.294 146.170,56.090 146.173,56.757 146.398,57.405 146.810,57.930 146.587,58.153 146.363,58.377 146.140,58.600 146.363,58.847 146.587,59.093 146.810,59.340 Z " />
</svg>