<?xml version="1.0" encoding="UTF-8" standalone="no"?>
<!DOCTYPE svg PUBLIC "-//W3C//DTD SVG 20010904//EN" "http://www.w3.org/TR/2001/REC-SVG-20010904/DTD/svg10.dtd"[]>
<svg version="1.1" id="Frosty Editor v1.0.6.3" xmlns="http://www.w3.org/2000/svg" d1p1:xlink="http://www.w3.org/1999/xlink" viewBox="0 0 25 25" xmlns:d1p1="xmlns">
  <path stroke="none" fill="#ffffffff" d="M 18.964,1.863 C 18.634,1.951 18.634,1.951 18.634,1.951 18.050,2.961 17.466,3.972 16.882,4.982 16.907,4.555 16.931,4.127 16.955,3.699 16.694,4.342 16.433,4.984 16.171,5.626 15.937,5.470 15.703,5.314 15.468,5.158 15.468,5.623 15.466,6.088 15.466,6.554 15.056,6.797 14.647,7.041 14.238,7.284 15.086,7.770 15.934,8.257 16.782,8.744 16.788,8.271 16.795,7.797 16.801,7.324 17.204,7.088 17.608,6.853 18.012,6.617 17.758,6.495 17.503,6.373 17.249,6.251 17.676,5.703 18.103,5.156 18.530,4.608 18.154,4.853 17.778,5.098 17.403,5.343 17.971,4.360 18.539,3.378 19.107,2.395 Z M 15.201,8.069 C 15.072,8.103 15.072,8.103 15.072,8.103 15.002,8.223 15.002,8.223 15.002,8.223 14.574,8.656 14.574,8.656 14.574,8.656 14.628,8.688 14.628,8.688 14.628,8.688 14.616,8.710 14.616,8.710 14.616,8.710 14.576,8.712 14.576,8.712 14.576,8.712 14.089,9.557 14.089,9.557 14.089,9.557 14.113,9.695 14.113,9.695 14.113,9.695 13.734,10.351 13.734,10.351 13.734,10.351 13.516,10.514 13.516,10.514 13.516,10.514 12.858,11.655 12.858,11.655 12.858,11.655 12.817,11.631 12.817,11.631 12.817,11.631 11.767,13.451 11.767,13.451 11.767,13.451 11.808,13.474 11.808,13.474 11.808,13.474 11.149,14.615 11.149,14.615 11.149,14.615 11.116,14.885 11.116,14.885 11.116,14.885 10.737,15.540 10.737,15.540 10.737,15.540 10.606,15.590 10.606,15.590 10.606,15.590 10.118,16.434 10.118,16.434 10.118,16.434 10.137,16.468 10.137,16.468 10.137,16.468 10.124,16.491 10.124,16.491 10.124,16.491 10.069,16.459 10.069,16.459 10.069,16.459 9.909,17.047 9.909,17.047 9.909,17.047 9.838,17.168 9.838,17.168 9.838,17.168 9.874,17.296 9.874,17.296 9.874,17.296 10.022,17.382 10.022,17.382 10.022,17.382 10.180,17.473 10.180,17.473 10.180,17.473 10.330,17.560 10.330,17.560 10.330,17.560 10.458,17.525 10.458,17.525 10.458,17.525 10.528,17.404 10.528,17.404 10.528,17.404 10.956,16.972 10.956,16.972 10.956,16.972 10.902,16.940 10.902,16.940 10.902,16.940 10.915,16.918 10.915,16.918 10.915,16.918 10.954,16.917 10.954,16.917 10.954,16.917 10.991,16.851 10.991,16.851 10.991,16.851 12.646,17.605 14.758,16.760 15.848,14.872 16.094,14.447 16.094,14.447 16.094,14.447 17.184,12.559 16.860,10.308 15.379,9.252 15.412,9.194 15.412,9.194 15.412,9.194 15.394,9.160 15.394,9.160 15.394,9.160 15.407,9.137 15.407,9.137 15.407,9.137 15.461,9.169 15.461,9.169 15.461,9.169 15.622,8.581 15.622,8.581 15.622,8.581 15.691,8.460 15.691,8.460 15.691,8.460 15.657,8.332 15.657,8.332 15.657,8.332 15.350,8.154 15.350,8.154 15.350,8.154 Z M 14.707,10.235 C 15.705,11.022 15.915,12.609 15.134,13.961 14.948,14.284 14.948,14.284 14.948,14.284 14.167,15.636 12.688,16.249 11.507,15.778 11.796,15.277 11.796,15.277 11.796,15.277 12.013,15.113 12.013,15.113 12.013,15.113 12.672,13.972 12.672,13.972 12.672,13.972 12.713,13.997 12.713,13.997 12.713,13.997 13.763,12.177 13.763,12.177 13.763,12.177 13.723,12.154 13.723,12.154 13.723,12.154 14.382,11.013 14.382,11.013 14.382,11.013 14.414,10.744 14.414,10.744 14.414,10.744 Z M 8.712,16.855 C 8.706,17.331 8.700,17.807 8.694,18.284 8.291,18.517 7.888,18.750 7.485,18.983 7.738,19.108 7.991,19.233 8.243,19.358 7.818,19.906 7.391,20.453 6.966,21.001 7.324,20.766 7.682,20.531 8.040,20.296 7.444,21.329 6.849,22.363 6.253,23.396 6.341,23.726 6.341,23.726 6.341,23.726 6.874,23.583 6.874,23.583 6.874,23.583 7.454,22.578 8.033,21.572 8.613,20.567 8.589,21.014 8.564,21.462 8.540,21.910 8.801,21.266 9.063,20.623 9.324,19.979 9.556,20.139 9.789,20.298 10.022,20.457 10.024,19.990 10.026,19.522 10.028,19.054 10.435,18.812 10.842,18.570 11.248,18.329 10.403,17.837 9.557,17.346 8.712,16.855 Z " />
</svg>