<?xml version="1.0" encoding="UTF-8" standalone="no"?>
<!DOCTYPE svg PUBLIC "-//W3C//DTD SVG 20010904//EN" "http://www.w3.org/TR/2001/REC-SVG-20010904/DTD/svg10.dtd"[]>
<svg version="1.1" id="Frosty Editor v1.0.6.3" xmlns="http://www.w3.org/2000/svg" d1p1:xlink="http://www.w3.org/1999/xlink" viewBox="0 0 25 25" xmlns:d1p1="xmlns">
  <path stroke="none" fill="#ffffffff" d="M 9.196,2.940 C 8.958,3.077 8.785,3.283 8.678,3.557 8.261,4.610 7.844,5.663 7.428,6.717 7.273,7.045 7.243,7.407 7.336,7.751 7.337,7.768 7.338,7.785 7.339,7.802 7.362,7.842 7.362,7.842 7.362,7.842 7.522,8.120 7.782,8.341 8.096,8.425 8.663,8.627 9.047,8.512 9.286,8.374 9.544,8.225 9.745,7.976 9.900,7.648 10.305,6.619 10.709,5.591 11.114,4.562 11.221,4.288 11.222,3.970 11.124,3.708 11.112,3.689 11.112,3.689 11.112,3.689 10.937,3.339 10.643,3.058 10.263,2.906 9.935,2.751 9.545,2.765 9.216,2.928 Z M 13.024,3.146 C 12.758,3.326 12.537,3.587 12.430,3.860 11.943,5.113 11.456,6.366 10.969,7.619 10.586,8.608 10.851,9.250 11.758,9.628 12.442,9.895 12.917,9.754 13.195,9.593 13.573,9.375 13.788,9.013 13.875,8.750 14.350,7.522 14.824,6.294 15.299,5.066 15.592,4.287 15.169,3.418 14.285,3.080 13.957,2.925 13.556,2.918 13.203,3.042 13.163,3.066 13.163,3.066 13.163,3.066 Z M 6.683,7.311 C 6.464,7.437 6.309,7.580 6.176,7.762 5.353,8.953 4.191,11.532 4.320,12.306 4.428,12.906 5.492,14.703 7.155,17.400 7.803,18.431 7.998,18.769 8.055,18.868 7.961,20.266 7.867,21.663 7.773,23.060 10.618,23.123 13.463,23.185 16.308,23.247 16.511,21.884 16.714,20.522 16.916,19.159 16.984,19.093 17.072,19.016 17.160,18.939 17.739,18.472 18.272,17.926 18.750,17.332 19.325,16.629 19.875,15.516 20.227,14.703 20.348,14.439 20.470,14.174 20.591,13.910 20.410,13.943 20.228,13.975 20.046,14.008 20.027,14.004 20.007,14.003 19.987,14.003 19.738,14.008 19.490,14.013 19.242,14.018 19.025,14.009 18.809,13.967 18.606,13.891 18.301,15.531 17.307,17.030 15.743,17.933 12.904,19.572 9.298,18.607 7.659,15.768 7.138,14.866 6.882,13.886 6.864,12.917 7.041,12.758 7.193,12.555 7.323,12.313 7.829,11.201 8.336,10.090 8.842,8.979 8.843,8.976 8.844,8.974 8.845,8.972 8.753,8.981 8.660,8.984 8.568,8.981 8.278,8.973 7.988,8.904 7.728,8.777 7.728,8.777 7.727,8.776 7.727,8.776 7.655,8.741 7.584,8.701 7.517,8.657 7.512,8.653 7.507,8.650 7.502,8.647 7.437,8.604 7.376,8.556 7.317,8.504 7.313,8.500 7.308,8.496 7.303,8.492 7.245,8.440 7.190,8.383 7.140,8.322 7.136,8.318 7.133,8.315 7.130,8.311 7.077,8.246 7.028,8.177 6.985,8.104 6.951,8.034 6.924,7.964 6.902,7.895 6.900,7.888 6.898,7.882 6.896,7.876 6.876,7.810 6.860,7.743 6.849,7.676 6.849,7.672 6.848,7.668 6.847,7.663 6.836,7.593 6.830,7.523 6.828,7.452 6.826,7.379 6.829,7.307 6.836,7.234 6.784,7.259 6.731,7.283 6.683,7.311 Z M 10.137,8.172 C 9.942,8.511 9.643,8.741 9.302,8.867 9.286,8.937 9.267,9.007 9.241,9.075 9.132,9.353 9.022,9.631 8.913,9.910 9.425,9.613 9.938,9.316 10.450,9.020 10.339,8.689 10.329,8.364 10.379,8.043 10.297,8.084 10.216,8.127 10.137,8.172 Z M 16.472,5.078 C 16.205,5.258 15.984,5.518 15.877,5.792 15.391,7.045 14.904,8.298 14.417,9.551 14.034,10.540 14.299,11.182 15.206,11.560 15.890,11.827 16.365,11.686 16.643,11.525 17.021,11.307 17.236,10.945 17.323,10.682 17.798,9.454 18.272,8.226 18.747,6.998 19.039,6.219 18.617,5.350 17.733,5.012 17.405,4.857 17.004,4.850 16.651,4.974 16.611,4.997 16.611,4.997 16.611,4.997 Z M 10.643,9.352 C 9.994,9.727 9.345,10.102 8.695,10.478 8.695,15.178 8.695,15.178 8.695,15.178 10.050,15.961 11.406,16.745 12.761,17.528 14.121,16.745 15.481,15.961 16.841,15.178 16.841,11.929 16.841,11.929 16.841,11.929 16.671,12.019 16.486,12.085 16.296,12.124 16.341,12.352 16.365,12.587 16.365,12.827 16.365,14.828 14.761,16.432 12.761,16.432 10.760,16.432 9.156,14.813 9.156,12.828 9.156,11.525 9.847,10.380 10.887,9.746 10.915,9.730 10.944,9.715 10.972,9.698 10.849,9.596 10.738,9.480 10.643,9.352 Z M 8.315,11.430 C 8.145,11.862 7.975,12.294 7.805,12.726 7.709,12.930 7.596,13.108 7.468,13.257 7.694,16.001 9.980,18.143 12.784,18.143 15.477,18.143 17.690,16.168 18.063,13.582 17.915,13.460 17.786,13.315 17.687,13.146 17.363,12.486 17.586,11.813 17.861,11.162 17.827,11.056 17.789,10.952 17.748,10.849 17.740,10.871 17.733,10.892 17.725,10.914 17.621,11.222 17.438,11.480 17.207,11.680 17.207,15.384 17.207,15.384 17.207,15.384 15.725,16.242 14.243,17.099 12.761,17.957 11.279,17.099 9.797,16.242 8.315,15.384 Z M 11.125,9.985 C 11.406,10.541 11.686,11.098 11.967,11.653 11.559,11.182 11.151,10.711 10.744,10.240 10.522,10.414 10.331,10.605 10.156,10.827 10.622,11.224 11.088,11.621 11.554,12.018 11.009,11.737 10.463,11.457 9.918,11.177 9.791,11.415 9.680,11.669 9.601,11.938 10.215,12.145 10.828,12.351 11.442,12.558 10.797,12.510 10.151,12.463 9.505,12.415 9.489,12.558 9.473,12.685 9.473,12.828 9.473,12.971 9.490,13.114 9.506,13.241 10.130,13.193 10.755,13.146 11.379,13.098 10.786,13.294 10.194,13.490 9.601,13.685 9.680,13.955 9.775,14.209 9.918,14.447 10.479,14.167 11.040,13.887 11.601,13.606 11.125,14.014 10.649,14.421 10.172,14.829 10.347,15.051 10.537,15.241 10.760,15.416 11.162,14.950 11.564,14.485 11.967,14.019 11.681,14.564 11.395,15.109 11.109,15.654 11.348,15.781 11.602,15.893 11.872,15.972 12.078,15.369 12.284,14.765 12.491,14.162 12.347,16.067 12.347,16.067 12.347,16.067 12.490,16.083 12.618,16.099 12.761,16.099 12.904,16.099 13.046,16.083 13.173,16.067 13.125,15.442 13.078,14.818 13.031,14.193 13.227,14.786 13.422,15.379 13.618,15.972 13.888,15.893 14.142,15.797 14.380,15.654 14.099,15.099 13.819,14.543 13.538,13.987 13.946,14.463 14.354,14.940 14.761,15.416 14.984,15.241 15.174,15.051 15.349,14.829 14.883,14.427 14.417,14.024 13.951,13.622 14.496,13.902 15.042,14.183 15.587,14.463 15.714,14.225 15.825,13.971 15.905,13.701 15.306,13.489 14.708,13.277 14.110,13.066 14.735,13.113 15.359,13.161 15.984,13.209 15.999,13.066 16.016,12.939 16.016,12.796 16.016,12.653 16.000,12.510 15.984,12.383 15.359,12.431 14.734,12.479 14.110,12.526 14.531,12.387 14.953,12.248 15.375,12.108 15.219,12.069 15.068,12.012 14.925,11.933 14.775,11.881 14.637,11.809 14.513,11.721 14.310,11.825 14.107,11.929 13.904,12.034 14.064,11.895 14.224,11.757 14.384,11.618 14.218,11.473 14.083,11.295 13.983,11.100 13.835,11.273 13.686,11.447 13.538,11.621 13.659,11.386 13.780,11.151 13.901,10.916 13.763,10.550 13.740,10.139 13.860,9.755 13.834,9.745 13.808,9.736 13.782,9.727 13.704,9.803 13.620,9.869 13.532,9.927 13.359,10.444 13.187,10.961 13.014,11.478 13.116,10.127 13.116,10.127 13.116,10.127 12.882,10.204 12.633,10.237 12.382,10.228 12.413,10.634 12.444,11.040 12.475,11.446 12.337,11.029 12.199,10.612 12.062,10.195 11.784,10.146 11.513,10.048 11.271,9.907 11.222,9.932 11.173,9.957 11.125,9.985 Z M 19.896,7.978 C 19.657,8.116 19.485,8.321 19.378,8.595 18.961,9.648 18.544,10.701 18.127,11.755 17.972,12.083 17.943,12.445 18.035,12.789 18.036,12.806 18.037,12.823 18.038,12.840 18.061,12.880 18.061,12.880 18.061,12.880 18.222,13.158 18.482,13.379 18.796,13.463 19.363,13.665 19.747,13.550 19.985,13.412 20.244,13.263 20.445,13.014 20.600,12.686 21.004,11.657 21.409,10.629 21.813,9.600 21.920,9.326 21.921,9.008 21.823,8.746 21.812,8.727 21.812,8.727 21.812,8.727 21.637,8.377 21.342,8.097 20.963,7.944 20.635,7.789 20.245,7.803 19.915,7.966 Z " />
</svg>