<?xml version="1.0" encoding="UTF-8" standalone="no"?>
<!DOCTYPE svg PUBLIC "-//W3C//DTD SVG 20010904//EN" "http://www.w3.org/TR/2001/REC-SVG-20010904/DTD/svg10.dtd"[]>
<svg version="1.1" id="Frosty Editor v1.0.6.3" xmlns="http://www.w3.org/2000/svg" d1p1:xlink="http://www.w3.org/1999/xlink" viewBox="0 0 25 25" xmlns:d1p1="xmlns">
  <path stroke="none" fill="#ffffffff" d="M 8.866,2.721 C 7.987,3.230 7.108,3.739 6.229,4.247 6.229,7.289 6.229,7.289 6.229,7.289 7.044,7.760 7.859,8.232 8.675,8.704 8.085,9.045 7.496,9.385 6.907,9.726 6.907,11.411 6.907,11.411 6.907,11.411 6.129,10.961 5.351,10.511 4.573,10.060 3.695,10.569 2.816,11.077 1.937,11.586 1.937,14.627 1.937,14.627 1.937,14.627 2.816,15.136 3.695,15.644 4.573,16.153 5.351,15.703 6.129,15.252 6.907,14.802 6.907,16.423 6.907,16.423 6.907,16.423 7.423,16.721 7.939,17.020 8.455,17.319 7.713,17.748 6.971,18.177 6.229,18.606 6.229,21.647 6.229,21.647 6.229,21.647 7.108,22.156 7.987,22.665 8.866,23.173 9.745,22.665 10.623,22.156 11.502,21.647 11.502,19.082 11.502,19.082 11.502,19.082 11.905,19.315 12.309,19.548 12.712,19.781 13.136,19.536 13.561,19.290 13.985,19.045 13.985,21.647 13.985,21.647 13.985,21.647 14.864,22.156 15.743,22.665 16.622,23.173 17.501,22.665 18.380,22.156 19.258,21.647 19.258,18.606 19.258,18.606 19.258,18.606 18.506,18.171 17.753,17.735 17.001,17.300 17.506,17.008 18.012,16.715 18.517,16.423 18.517,14.765 18.517,14.765 18.517,14.765 19.316,15.228 20.115,15.690 20.914,16.153 21.793,15.644 22.672,15.136 23.551,14.627 23.551,11.586 23.551,11.586 23.551,11.586 22.672,11.077 21.793,10.569 20.914,10.060 20.115,10.523 19.316,10.985 18.517,11.447 18.517,9.726 18.517,9.726 18.517,9.726 17.938,9.391 17.360,9.057 16.781,8.722 17.607,8.244 18.433,7.766 19.258,7.289 19.258,4.247 19.258,4.247 19.258,4.247 18.380,3.739 17.501,3.230 16.622,2.721 15.743,3.230 14.864,3.739 13.985,4.247 13.985,7.104 13.985,7.104 13.985,7.104 13.561,6.859 13.136,6.613 12.712,6.368 12.309,6.601 11.905,6.834 11.502,7.067 11.502,4.247 11.502,4.247 11.502,4.247 10.623,3.739 9.745,3.230 8.866,2.721 Z M 8.866,2.985 C 9.673,3.450 10.479,3.914 11.286,4.379 11.286,7.166 11.286,7.166 11.286,7.166 10.479,7.631 9.673,8.095 8.866,8.560 8.063,8.095 7.259,7.631 6.455,7.166 6.455,4.379 6.455,4.379 6.455,4.379 7.259,3.914 8.063,3.450 8.866,2.985 Z M 16.622,2.985 C 17.428,3.450 18.235,3.914 19.042,4.379 19.042,7.166 19.042,7.166 19.042,7.166 18.235,7.631 17.428,8.095 16.622,8.560 15.818,8.095 15.014,7.631 14.211,7.166 14.211,4.379 14.211,4.379 14.211,4.379 15.014,3.914 15.818,3.450 16.622,2.985 Z M 8.866,3.700 C 8.273,4.042 7.679,4.385 7.086,4.727 7.086,6.780 7.086,6.780 7.086,6.780 7.679,7.122 8.273,7.464 8.866,7.806 9.459,7.464 10.053,7.122 10.646,6.780 10.646,4.727 10.646,4.727 10.646,4.727 10.053,4.385 9.459,4.042 8.866,3.700 Z M 16.622,3.700 C 16.028,4.042 15.435,4.385 14.842,4.727 14.842,6.780 14.842,6.780 14.842,6.780 15.435,7.122 16.028,7.464 16.622,7.806 17.215,7.464 17.809,7.122 18.402,6.780 18.402,4.727 18.402,4.727 18.402,4.727 17.809,4.385 17.215,4.042 16.622,3.700 Z M 8.495,4.482 C 9.118,4.482 9.118,4.482 9.118,4.482 9.118,5.686 9.118,5.686 9.118,5.686 9.385,5.420 9.385,5.420 9.385,5.420 9.385,5.214 9.385,5.214 9.385,5.214 9.672,5.214 9.672,5.214 9.672,5.214 9.672,5.501 9.672,5.501 9.672,5.501 9.457,5.501 9.457,5.501 9.457,5.501 9.386,5.572 9.315,5.643 9.245,5.714 10.066,5.714 10.066,5.714 10.066,5.714 10.066,6.038 10.066,6.038 10.066,6.038 9.522,6.038 9.522,6.038 9.522,6.038 9.522,6.928 9.522,6.928 9.522,6.928 9.412,6.976 9.303,7.024 9.193,7.072 9.193,6.038 9.193,6.038 9.193,6.038 8.930,6.038 8.930,6.038 8.930,6.038 8.642,6.326 8.642,6.326 8.642,6.326 8.642,6.532 8.642,6.532 8.642,6.532 8.352,6.532 8.352,6.532 8.352,6.532 8.352,6.254 8.352,6.254 8.352,6.254 8.553,6.254 8.553,6.254 8.553,6.254 8.628,6.182 8.703,6.110 8.778,6.038 7.593,6.038 7.593,6.038 7.593,6.038 7.593,5.416 7.593,5.416 7.593,5.416 8.491,5.416 8.491,5.416 8.491,5.416 8.492,5.105 8.493,4.793 8.495,4.482 Z M 16.251,4.482 C 16.874,4.482 16.874,4.482 16.874,4.482 16.874,5.686 16.874,5.686 16.874,5.686 17.141,5.420 17.141,5.420 17.141,5.420 17.141,5.214 17.141,5.214 17.141,5.214 17.428,5.214 17.428,5.214 17.428,5.214 17.428,5.501 17.428,5.501 17.428,5.501 17.212,5.501 17.212,5.501 17.212,5.501 17.142,5.572 17.071,5.643 17.000,5.714 17.821,5.714 17.821,5.714 17.821,5.714 17.821,6.038 17.821,6.038 17.821,6.038 17.277,6.038 17.277,6.038 17.277,6.038 17.277,6.928 17.277,6.928 17.277,6.928 17.168,6.976 17.058,7.024 16.949,7.072 16.949,6.038 16.949,6.038 16.949,6.038 16.686,6.038 16.686,6.038 16.686,6.038 16.399,6.326 16.399,6.326 16.399,6.326 16.399,6.532 16.399,6.532 16.399,6.532 16.108,6.532 16.108,6.532 16.108,6.532 16.108,6.254 16.108,6.254 16.108,6.254 16.309,6.254 16.309,6.254 16.309,6.254 16.384,6.182 16.459,6.110 16.534,6.038 15.348,6.038 15.348,6.038 15.348,6.038 15.348,5.416 15.348,5.416 15.348,5.416 16.246,5.416 16.246,5.416 16.246,5.416 16.248,5.105 16.250,4.793 16.251,4.482 Z M 12.712,6.948 C 14.488,7.971 16.264,8.994 18.040,10.017 18.040,16.153 18.040,16.153 18.040,16.153 16.264,17.176 14.488,18.199 12.712,19.222 10.943,18.199 9.174,17.176 7.405,16.153 7.405,10.017 7.405,10.017 7.405,10.017 9.174,8.994 10.943,7.971 12.712,6.948 Z M 12.712,8.379 C 10.100,8.379 8.006,10.493 8.006,13.085 8.006,15.676 10.100,17.791 12.712,17.791 15.324,17.791 17.418,15.697 17.418,13.085 17.418,10.473 15.324,8.379 12.712,8.379 Z M 12.691,8.793 C 12.878,8.793 13.043,8.814 13.230,8.835 13.168,9.664 13.106,10.494 13.044,11.323 13.306,10.535 13.569,9.747 13.831,8.959 14.184,9.063 14.516,9.208 14.827,9.374 14.460,10.086 14.094,10.798 13.728,11.509 14.246,10.901 14.764,10.293 15.283,9.685 15.573,9.913 15.822,10.162 16.050,10.452 15.435,10.984 14.820,11.516 14.205,12.048 14.930,11.675 15.656,11.302 16.382,10.929 16.568,11.240 16.693,11.572 16.796,11.924 16.022,12.180 15.248,12.436 14.474,12.691 15.290,12.629 16.105,12.567 16.920,12.505 16.941,12.671 16.962,12.857 16.962,13.044 16.962,13.230 16.941,13.396 16.920,13.582 16.105,13.520 15.290,13.458 14.474,13.396 15.255,13.672 16.036,13.949 16.817,14.225 16.713,14.578 16.568,14.909 16.402,15.220 15.690,14.854 14.978,14.488 14.267,14.121 14.875,14.646 15.483,15.172 16.091,15.697 15.863,15.988 15.615,16.236 15.324,16.464 14.792,15.842 14.260,15.220 13.728,14.598 14.094,15.324 14.460,16.050 14.827,16.775 14.516,16.962 14.184,17.086 13.831,17.190 13.576,16.416 13.320,15.642 13.064,14.868 13.126,15.683 13.189,16.499 13.251,17.314 13.085,17.335 12.898,17.356 12.712,17.356 12.525,17.356 12.359,17.335 12.173,17.314 12.235,16.485 12.297,15.656 12.359,14.827 12.090,15.614 11.821,16.402 11.551,17.190 11.199,17.086 10.867,16.941 10.556,16.775 10.929,16.063 11.302,15.351 11.675,14.640 11.150,15.248 10.625,15.856 10.100,16.464 9.809,16.236 9.561,15.988 9.333,15.697 9.955,15.165 10.577,14.633 11.199,14.101 10.466,14.467 9.733,14.833 9.001,15.200 8.814,14.889 8.690,14.557 8.586,14.204 9.360,13.949 10.134,13.693 10.908,13.437 10.093,13.499 9.277,13.562 8.462,13.624 8.441,13.458 8.420,13.271 8.420,13.085 8.420,12.898 8.441,12.732 8.462,12.546 9.305,12.608 10.148,12.670 10.991,12.732 10.189,12.463 9.388,12.194 8.586,11.924 8.690,11.572 8.835,11.240 9.001,10.929 9.713,11.295 10.425,11.661 11.136,12.028 10.528,11.509 9.920,10.991 9.312,10.473 9.540,10.182 9.789,9.934 10.079,9.706 10.611,10.321 11.143,10.935 11.675,11.551 11.309,10.825 10.943,10.099 10.576,9.374 10.887,9.187 11.219,9.063 11.572,8.959 11.827,9.733 12.083,10.507 12.339,11.281 12.277,10.466 12.214,9.650 12.152,8.835 12.318,8.814 12.505,8.793 12.691,8.793 Z M 4.573,10.324 C 5.352,10.772 6.129,11.220 6.907,11.668 6.907,14.554 6.907,14.554 6.907,14.554 6.129,15.002 5.352,15.450 4.573,15.898 3.770,15.434 2.966,14.969 2.162,14.505 2.162,11.717 2.162,11.717 2.162,11.717 2.966,11.253 3.770,10.788 4.573,10.324 Z M 20.914,10.324 C 21.721,10.788 22.527,11.253 23.334,11.717 23.334,14.505 23.334,14.505 23.334,14.505 22.527,14.969 21.721,15.434 20.914,15.898 20.115,15.437 19.316,14.975 18.517,14.513 18.517,11.709 18.517,11.709 18.517,11.709 19.316,11.247 20.115,10.786 20.914,10.324 Z M 4.573,11.039 C 3.980,11.381 3.387,11.724 2.793,12.066 2.793,14.118 2.793,14.118 2.793,14.118 3.387,14.461 3.980,14.803 4.573,15.145 5.167,14.803 5.760,14.461 6.354,14.118 6.354,12.066 6.354,12.066 6.354,12.066 5.760,11.724 5.167,11.381 4.573,11.039 Z M 20.914,11.039 C 20.321,11.381 19.728,11.724 19.134,12.066 19.134,14.118 19.134,14.118 19.134,14.118 19.728,14.461 20.321,14.803 20.914,15.145 21.508,14.803 22.101,14.461 22.694,14.118 22.694,12.066 22.694,12.066 22.694,12.066 22.101,11.724 21.508,11.381 20.914,11.039 Z M 4.203,11.820 C 4.826,11.820 4.826,11.820 4.826,11.820 4.826,13.025 4.826,13.025 4.826,13.025 5.092,12.758 5.092,12.758 5.092,12.758 5.092,12.553 5.092,12.553 5.092,12.553 5.380,12.553 5.380,12.553 5.380,12.553 5.380,12.840 5.380,12.840 5.380,12.840 5.164,12.840 5.164,12.840 5.164,12.840 5.093,12.911 5.023,12.981 4.952,13.052 5.773,13.052 5.773,13.052 5.773,13.052 5.773,13.377 5.773,13.377 5.773,13.377 5.229,13.377 5.229,13.377 5.229,13.377 5.229,14.267 5.229,14.267 5.229,14.267 5.120,14.314 5.010,14.363 4.901,14.410 4.901,13.377 4.901,13.377 4.901,13.377 4.637,13.377 4.637,13.377 4.637,13.377 4.350,13.664 4.350,13.664 4.350,13.664 4.350,13.871 4.350,13.871 4.350,13.871 4.060,13.871 4.060,13.871 4.060,13.871 4.060,13.593 4.060,13.593 4.060,13.593 4.261,13.593 4.261,13.593 4.261,13.593 4.336,13.521 4.410,13.449 4.485,13.377 3.300,13.377 3.300,13.377 3.300,13.377 3.300,12.754 3.300,12.754 3.300,12.754 4.198,12.754 4.198,12.754 4.198,12.754 4.200,12.443 4.201,12.132 4.203,11.820 Z M 20.544,11.820 C 21.167,11.820 21.167,11.820 21.167,11.820 21.167,13.025 21.167,13.025 21.167,13.025 21.433,12.758 21.433,12.758 21.433,12.758 21.433,12.553 21.433,12.553 21.433,12.553 21.721,12.553 21.721,12.553 21.721,12.553 21.721,12.840 21.721,12.840 21.721,12.840 21.505,12.840 21.505,12.840 21.505,12.840 21.434,12.911 21.364,12.981 21.293,13.052 22.114,13.052 22.114,13.052 22.114,13.052 22.114,13.377 22.114,13.377 22.114,13.377 21.570,13.377 21.570,13.377 21.570,13.377 21.570,14.267 21.570,14.267 21.570,14.267 21.461,14.314 21.351,14.363 21.242,14.410 21.242,13.377 21.242,13.377 21.242,13.377 20.978,13.377 20.978,13.377 20.978,13.377 20.691,13.664 20.691,13.664 20.691,13.664 20.691,13.871 20.691,13.871 20.691,13.871 20.401,13.871 20.401,13.871 20.401,13.871 20.401,13.593 20.401,13.593 20.401,13.593 20.602,13.593 20.602,13.593 20.602,13.593 20.676,13.521 20.751,13.449 20.826,13.377 19.641,13.377 19.641,13.377 19.641,13.377 19.641,12.754 19.641,12.754 19.641,12.754 20.539,12.754 20.539,12.754 20.539,12.754 20.540,12.443 20.542,12.132 20.544,11.820 Z M 16.774,17.432 C 17.530,17.867 18.286,18.302 19.042,18.738 19.042,21.525 19.042,21.525 19.042,21.525 18.235,21.990 17.428,22.454 16.622,22.919 15.818,22.454 15.014,21.990 14.211,21.525 14.211,18.914 14.211,18.914 14.211,18.914 15.065,18.420 15.919,17.926 16.774,17.432 Z M 8.683,17.450 C 9.550,17.952 10.418,18.454 11.286,18.956 11.286,21.525 11.286,21.525 11.286,21.525 10.479,21.990 9.673,22.454 8.866,22.919 8.063,22.454 7.259,21.990 6.455,21.525 6.455,18.738 6.455,18.738 6.455,18.738 7.197,18.309 7.940,17.879 8.683,17.450 Z M 8.866,18.060 C 8.273,18.402 7.679,18.744 7.086,19.086 7.086,21.139 7.086,21.139 7.086,21.139 7.679,21.481 8.273,21.823 8.866,22.165 9.459,21.823 10.053,21.481 10.646,21.139 10.646,19.086 10.646,19.086 10.646,19.086 10.053,18.744 9.459,18.402 8.866,18.060 Z M 16.622,18.060 C 16.028,18.402 15.435,18.744 14.842,19.086 14.842,21.139 14.842,21.139 14.842,21.139 15.435,21.481 16.028,21.823 16.622,22.165 17.215,21.823 17.809,21.481 18.402,21.139 18.402,19.086 18.402,19.086 18.402,19.086 17.809,18.744 17.215,18.402 16.622,18.060 Z M 8.495,18.841 C 9.118,18.841 9.118,18.841 9.118,18.841 9.118,20.045 9.118,20.045 9.118,20.045 9.385,19.778 9.385,19.778 9.385,19.778 9.385,19.573 9.385,19.573 9.385,19.573 9.672,19.573 9.672,19.573 9.672,19.573 9.672,19.860 9.672,19.860 9.672,19.860 9.457,19.860 9.457,19.860 9.457,19.860 9.386,19.931 9.315,20.002 9.245,20.072 10.066,20.072 10.066,20.072 10.066,20.072 10.066,20.397 10.066,20.397 10.066,20.397 9.522,20.397 9.522,20.397 9.522,20.397 9.522,21.287 9.522,21.287 9.522,21.287 9.412,21.335 9.303,21.383 9.193,21.431 9.193,20.397 9.193,20.397 9.193,20.397 8.930,20.397 8.930,20.397 8.930,20.397 8.642,20.685 8.642,20.685 8.642,20.685 8.642,20.891 8.642,20.891 8.642,20.891 8.352,20.891 8.352,20.891 8.352,20.891 8.352,20.613 8.352,20.613 8.352,20.613 8.553,20.613 8.553,20.613 8.553,20.613 8.628,20.541 8.703,20.469 8.778,20.397 7.593,20.397 7.593,20.397 7.593,20.397 7.593,19.775 7.593,19.775 7.593,19.775 8.491,19.775 8.491,19.775 8.491,19.775 8.492,19.463 8.493,19.152 8.495,18.841 Z M 16.251,18.841 C 16.874,18.841 16.874,18.841 16.874,18.841 16.874,20.045 16.874,20.045 16.874,20.045 17.141,19.778 17.141,19.778 17.141,19.778 17.141,19.573 17.141,19.573 17.141,19.573 17.428,19.573 17.428,19.573 17.428,19.573 17.428,19.860 17.428,19.860 17.428,19.860 17.212,19.860 17.212,19.860 17.212,19.860 17.142,19.931 17.071,20.002 17.000,20.072 17.821,20.072 17.821,20.072 17.821,20.072 17.821,20.397 17.821,20.397 17.821,20.397 17.277,20.397 17.277,20.397 17.277,20.397 17.277,21.287 17.277,21.287 17.277,21.287 17.168,21.335 17.058,21.383 16.949,21.431 16.949,20.397 16.949,20.397 16.949,20.397 16.686,20.397 16.686,20.397 16.686,20.397 16.399,20.685 16.399,20.685 16.399,20.685 16.399,20.891 16.399,20.891 16.399,20.891 16.108,20.891 16.108,20.891 16.108,20.891 16.108,20.613 16.108,20.613 16.108,20.613 16.309,20.613 16.309,20.613 16.309,20.613 16.384,20.541 16.459,20.469 16.534,20.397 15.348,20.397 15.348,20.397 15.348,20.397 15.348,19.775 15.348,19.775 15.348,19.775 16.246,19.775 16.246,19.775 16.246,19.775 16.248,19.463 16.250,19.152 16.251,18.841 Z " />
</svg>