<?xml version="1.0" encoding="UTF-8" standalone="no"?>
<!DOCTYPE svg PUBLIC "-//W3C//DTD SVG 20010904//EN" "http://www.w3.org/TR/2001/REC-SVG-20010904/DTD/svg10.dtd"[]>
<svg version="1.1" id="Frosty Editor v1.0.6.3" xmlns="http://www.w3.org/2000/svg" d1p1:xlink="http://www.w3.org/1999/xlink" viewBox="0 0 25 25" xmlns:d1p1="xmlns">
  <path stroke="none" fill="#ffffffff" d="M 16.000,6.051 C 16.000,7.485 16.000,7.485 16.000,7.485 14.854,7.485 14.854,7.485 14.854,7.485 14.854,8.319 14.854,8.319 14.854,8.319 15.299,8.468 15.768,8.537 16.238,8.522 16.276,8.522 16.314,8.521 16.351,8.520 18.378,8.520 18.378,8.520 18.378,8.520 18.526,8.520 18.673,8.529 18.820,8.546 18.820,7.488 18.820,7.488 18.820,7.488 17.674,7.488 17.674,7.488 17.674,7.488 17.674,6.051 17.674,6.051 17.674,6.051 Z M 12.560,8.031 C 11.948,8.106 11.364,8.332 10.861,8.689 10.861,8.689 10.332,9.044 9.036,9.044 6.895,9.044 6.895,9.044 6.895,9.044 5.645,9.047 4.496,9.734 3.903,10.835 3.797,10.835 3.797,10.835 3.797,10.835 3.392,10.835 2.474,11.002 2.345,12.512 2.345,12.512 2.228,14.616 3.316,14.616 3.530,14.615 3.743,14.587 3.950,14.534 4.026,14.513 4.108,14.528 4.173,14.574 4.557,14.821 5.007,14.946 5.464,14.933 6.265,13.447 7.065,11.961 7.866,10.475 7.866,10.452 8.287,9.578 9.165,9.607 16.089,9.607 16.089,9.607 16.089,9.607 16.955,9.583 17.370,10.449 17.386,10.486 18.132,11.869 18.877,13.252 19.623,14.635 20.021,14.775 20.392,14.973 20.725,15.218 20.864,15.075 20.976,14.914 21.045,14.735 21.084,14.633 21.182,14.566 21.291,14.566 22.186,14.566 22.186,14.566 22.186,14.566 23.019,14.274 22.924,12.499 22.924,12.499 22.805,10.989 21.865,10.822 21.471,10.822 21.373,10.822 21.373,10.822 21.373,10.822 20.777,9.726 19.629,9.044 18.381,9.044 16.238,9.044 16.238,9.044 16.238,9.044 14.955,9.044 14.412,8.689 14.412,8.689 13.909,8.332 13.325,8.106 12.713,8.031 Z M 9.116,10.129 C 8.618,10.144 8.350,10.698 8.345,10.705 8.241,10.898 8.137,11.090 8.033,11.282 8.605,10.644 9.527,10.455 10.304,10.817 11.081,11.180 11.529,12.008 11.407,12.857 11.407,12.867 11.407,12.878 11.407,12.888 11.383,15.534 9.986,16.047 9.928,16.063 9.710,16.127 9.492,16.190 9.274,16.254 14.710,16.254 14.710,16.254 14.710,16.254 14.798,16.123 14.895,16.000 14.997,15.881 14.561,15.565 13.857,14.762 13.841,12.888 13.839,12.870 13.839,12.851 13.841,12.833 13.733,11.995 14.176,11.183 14.940,10.821 15.703,10.459 16.613,10.631 17.193,11.245 17.096,11.069 16.999,10.893 16.902,10.716 16.902,10.698 16.603,10.113 16.084,10.129 13.031,10.129 13.031,10.129 13.031,10.129 13.329,10.307 13.471,10.663 13.379,10.997 13.286,11.332 12.981,11.564 12.634,11.564 12.286,11.564 11.982,11.332 11.890,10.997 11.797,10.663 11.939,10.307 12.237,10.129 9.165,10.129 9.165,10.129 9.165,10.129 9.149,10.128 9.132,10.128 9.116,10.129 Z M 9.472,11.177 C 8.686,11.177 8.049,11.814 8.049,12.600 8.049,13.386 8.686,14.023 9.472,14.023 10.258,14.023 10.895,13.386 10.895,12.600 10.895,11.814 10.258,11.177 9.472,11.177 Z M 15.788,11.177 C 15.002,11.177 14.365,11.814 14.365,12.600 14.365,13.386 15.002,14.023 15.788,14.023 16.574,14.023 17.211,13.386 17.211,12.600 17.211,11.814 16.574,11.177 15.788,11.177 Z M 7.575,12.124 C 6.067,14.933 6.067,14.933 6.067,14.933 6.684,15.323 7.302,15.713 7.919,16.103 8.536,15.926 9.154,15.750 9.771,15.574 9.797,15.555 10.459,15.285 10.750,14.074 10.108,14.642 9.171,14.724 8.440,14.275 7.710,13.827 7.359,12.953 7.575,12.124 Z M 17.690,12.158 C 17.876,12.979 17.514,13.827 16.793,14.260 16.071,14.694 15.153,14.615 14.515,14.066 14.730,14.977 15.156,15.357 15.372,15.497 16.165,14.778 17.223,14.356 18.367,14.397 18.558,14.403 18.746,14.423 18.930,14.454 18.517,13.689 18.104,12.923 17.690,12.158 Z M 22.382,12.289 C 22.444,12.293 22.497,12.340 22.506,12.404 22.573,12.954 22.478,13.513 22.233,14.010 22.212,14.054 22.167,14.082 22.118,14.084 22.069,14.085 22.024,14.059 22.000,14.017 21.975,13.974 21.976,13.922 22.003,13.880 22.217,13.433 22.299,12.934 22.241,12.441 22.231,12.368 22.282,12.301 22.355,12.290 22.364,12.289 22.373,12.289 22.382,12.289 Z M 2.894,12.303 C 2.903,12.302 2.912,12.302 2.921,12.304 2.994,12.314 3.045,12.382 3.035,12.455 2.977,12.947 3.059,13.446 3.273,13.894 3.306,13.959 3.280,14.038 3.215,14.071 3.151,14.107 3.071,14.084 3.035,14.021 2.793,13.523 2.701,12.966 2.770,12.417 2.779,12.353 2.832,12.307 2.894,12.303 Z M 18.246,14.996 C 17.046,15.001 15.883,15.608 15.208,16.688 14.225,18.258 14.595,20.318 16.063,21.449 16.448,20.999 16.834,20.549 17.220,20.099 16.787,20.058 16.354,20.017 15.921,19.976 16.650,19.212 17.379,18.448 18.108,17.684 18.122,17.684 18.122,17.684 18.122,17.684 18.178,17.625 18.234,17.566 18.290,17.507 17.757,17.457 17.224,17.406 16.690,17.356 17.748,16.695 18.806,16.034 19.864,15.373 19.345,15.115 18.792,14.994 18.246,14.996 Z M 3.977,15.068 C 3.779,15.112 3.576,15.136 3.373,15.140 3.554,16.013 4.193,16.721 5.044,16.991 5.894,17.260 6.824,17.049 7.474,16.439 7.008,16.145 6.542,15.851 6.075,15.558 6.138,15.654 6.170,15.768 6.168,15.883 6.170,16.151 5.988,16.385 5.727,16.448 5.467,16.510 5.197,16.384 5.079,16.144 4.960,15.904 5.024,15.613 5.231,15.444 4.789,15.423 4.358,15.294 3.977,15.068 Z M 21.461,15.090 C 21.373,15.259 21.257,15.413 21.126,15.553 21.270,15.689 21.405,15.836 21.529,15.991 21.709,15.722 21.836,15.417 21.897,15.090 Z M 20.291,15.632 C 19.940,16.045 19.587,16.457 19.236,16.870 20.532,16.991 20.532,16.991 20.532,16.991 19.805,17.756 19.077,18.522 18.349,19.287 18.335,19.287 18.335,19.287 18.335,19.287 18.279,19.346 18.223,19.405 18.167,19.464 18.702,19.515 19.238,19.565 19.773,19.615 18.660,20.309 17.547,21.003 16.434,21.697 18.099,22.616 20.192,22.082 21.213,20.477 22.234,18.872 21.830,16.750 20.291,15.632 Z M 11.816,16.788 C 11.816,17.706 11.816,17.706 11.816,17.706 13.451,17.706 13.451,17.706 13.451,17.706 13.451,16.788 13.451,16.788 13.451,16.788 12.758,16.788 12.758,16.788 12.758,16.788 12.515,16.788 12.515,16.788 12.515,16.788 Z " />
</svg>