<?xml version="1.0" encoding="UTF-8" standalone="no"?>
<!DOCTYPE svg PUBLIC "-//W3C//DTD SVG 20010904//EN" "http://www.w3.org/TR/2001/REC-SVG-20010904/DTD/svg10.dtd"[]>
<svg version="1.1" id="Frosty Editor v1.0.6.3" xmlns="http://www.w3.org/2000/svg" d1p1:xlink="http://www.w3.org/1999/xlink" viewBox="0 0 25 25" xmlns:d1p1="xmlns">
  <path stroke="none" fill="#ffffffff" d="M 10.355,2.221 C 10.355,3.057 10.355,3.057 10.355,3.057 14.957,3.057 14.957,3.057 14.957,3.057 14.957,2.221 14.957,2.221 14.957,2.221 Z M 8.682,3.476 C 8.682,4.730 8.682,4.730 8.682,4.730 8.263,4.730 8.263,4.730 8.263,4.730 8.263,4.312 8.263,4.312 8.263,4.312 7.845,4.312 7.845,4.312 7.845,4.312 7.845,5.985 7.845,5.985 7.845,5.985 8.263,5.985 8.263,5.985 8.263,5.985 8.263,5.567 8.263,5.567 8.263,5.567 8.682,5.567 8.682,5.567 8.682,5.567 8.682,6.404 8.682,6.404 8.682,6.404 16.630,6.404 16.630,6.404 16.630,6.404 16.630,3.476 16.630,3.476 16.630,3.476 Z M 12.099,3.948 C 13.166,3.948 13.166,3.948 13.166,3.948 13.345,4.257 13.523,4.564 13.702,4.873 13.523,5.181 13.345,5.489 13.166,5.797 12.099,5.797 12.099,5.797 12.099,5.797 11.922,5.489 11.745,5.181 11.568,4.873 11.745,4.564 11.922,4.257 12.099,3.948 Z M 7.845,6.822 C 7.845,7.351 7.845,7.351 7.845,7.351 8.046,7.593 8.248,7.835 8.449,8.077 17.466,8.077 17.466,8.077 17.466,8.077 17.466,6.822 17.466,6.822 17.466,6.822 Z M 7.229,7.212 C 6.527,8.057 5.825,8.902 5.122,9.747 6.083,9.747 6.083,9.747 6.083,9.747 6.282,9.747 6.282,9.747 6.282,9.747 6.282,10.449 6.282,10.449 6.282,10.449 8.177,10.449 8.177,10.449 8.177,10.449 8.177,9.747 8.177,9.747 8.177,9.747 8.376,9.747 8.376,9.747 8.376,9.747 9.337,9.747 9.337,9.747 9.337,9.747 8.635,8.902 7.932,8.057 7.229,7.212 Z M 8.796,8.495 C 9.238,9.026 9.679,9.557 10.121,10.088 9.746,10.088 9.746,10.088 9.746,10.088 9.987,10.249 10.214,10.434 10.422,10.642 11.011,11.231 11.418,11.968 11.610,12.764 11.610,8.914 11.610,8.914 11.610,8.914 14.120,8.914 14.120,8.914 14.120,8.914 14.120,12.897 14.120,12.897 14.120,12.897 14.176,12.626 14.259,12.359 14.367,12.097 14.744,11.186 15.400,10.448 16.211,9.964 16.211,9.504 16.211,9.504 16.211,9.504 16.362,9.579 16.512,9.654 16.663,9.729 16.847,9.646 17.037,9.574 17.232,9.516 17.032,9.316 16.831,9.115 16.630,8.914 16.630,8.495 16.630,8.495 16.630,8.495 Z M 12.447,9.750 C 12.447,17.699 12.447,17.699 12.447,17.699 13.283,17.699 13.283,17.699 13.283,17.699 13.283,9.750 13.283,9.750 13.283,9.750 Z M 18.516,9.786 C 16.885,9.786 15.413,10.769 14.789,12.276 14.164,13.783 14.509,15.518 15.663,16.671 16.098,17.106 16.615,17.426 17.172,17.622 17.203,17.622 17.203,17.622 17.203,17.622 17.203,17.116 17.203,17.116 17.203,17.116 15.900,16.594 14.971,15.319 14.971,13.822 14.971,12.948 15.299,12.130 15.826,11.511 17.063,12.748 17.063,12.748 17.063,12.748 17.500,12.748 17.500,12.748 17.500,12.748 17.500,12.421 17.500,12.421 17.500,12.421 17.075,11.990 16.651,11.560 16.227,11.129 16.845,10.602 17.645,10.274 18.537,10.274 20.484,10.274 22.085,11.857 22.085,13.822 22.067,14.695 21.740,15.515 21.212,16.133 20.266,15.187 20.266,15.187 20.266,15.187 20.266,15.951 20.266,15.951 20.266,15.951 20.830,16.515 20.830,16.515 20.830,16.515 20.527,16.773 20.181,16.983 19.802,17.131 19.802,17.622 19.802,17.622 19.802,17.622 19.856,17.622 19.856,17.622 19.856,17.622 19.924,17.598 19.992,17.573 20.059,17.545 21.566,16.921 22.549,15.451 22.549,13.819 22.549,12.750 22.124,11.723 21.368,10.966 20.611,10.210 19.586,9.786 18.516,9.786 Z M 5.730,10.088 C 4.755,10.488 3.953,11.264 3.533,12.276 2.909,13.784 3.254,15.518 4.408,16.672 5.561,17.825 7.296,18.170 8.804,17.545 10.311,16.921 11.294,15.451 11.294,13.819 11.294,12.750 10.869,11.723 10.113,10.967 9.731,10.585 9.280,10.288 8.790,10.088 8.529,10.088 8.529,10.088 8.529,10.088 8.529,10.502 8.529,10.502 8.529,10.502 9.322,10.801 9.983,11.376 10.390,12.112 10.640,12.553 10.795,13.050 10.825,13.576 11.024,15.469 9.447,17.303 7.548,17.400 6.190,17.543 4.865,16.776 4.184,15.631 4.054,15.413 3.947,15.181 3.868,14.938 3.780,14.668 3.727,14.384 3.714,14.094 3.708,14.029 3.703,13.965 3.701,13.901 3.688,13.531 3.742,13.166 3.850,12.817 3.866,12.766 3.883,12.714 3.901,12.663 3.906,12.649 3.912,12.635 3.918,12.621 3.936,12.573 3.955,12.526 3.975,12.479 3.982,12.462 3.989,12.446 3.996,12.429 4.019,12.379 4.042,12.329 4.067,12.280 4.071,12.271 4.076,12.263 4.080,12.255 4.106,12.203 4.134,12.152 4.163,12.101 4.280,11.890 4.417,11.693 4.571,11.512 4.578,11.519 4.578,11.519 4.578,11.519 4.701,11.376 4.835,11.242 4.979,11.119 4.993,11.107 5.007,11.095 5.021,11.083 5.055,11.055 5.089,11.028 5.123,11.002 5.141,10.988 5.158,10.975 5.176,10.962 5.216,10.932 5.257,10.902 5.299,10.874 5.311,10.866 5.323,10.858 5.335,10.850 5.446,10.776 5.561,10.708 5.679,10.648 5.692,10.641 5.704,10.636 5.717,10.629 5.763,10.606 5.809,10.585 5.856,10.564 5.874,10.556 5.892,10.548 5.909,10.541 5.916,10.538 5.923,10.535 5.930,10.533 5.930,10.088 5.930,10.088 5.930,10.088 Z M 6.572,11.111 C 6.566,11.766 6.560,12.422 6.554,13.077 4.680,13.077 4.680,13.077 4.680,13.077 4.680,14.368 4.680,14.368 4.680,14.368 7.155,14.368 7.155,14.368 7.155,14.368 6.699,14.823 6.699,14.823 6.699,14.823 6.281,14.823 6.281,14.823 6.281,14.823 6.281,15.405 6.281,15.405 6.281,15.405 6.881,15.405 6.881,15.405 6.881,15.405 6.881,14.968 6.881,14.968 6.881,14.968 7.082,14.768 7.282,14.569 7.482,14.368 8.028,14.368 8.028,14.368 8.028,14.368 8.028,16.534 8.028,16.534 8.028,16.534 8.258,16.430 8.489,16.327 8.719,16.224 8.719,14.368 8.719,14.368 8.719,14.368 9.847,14.368 9.847,14.368 9.847,14.368 9.847,13.695 9.847,13.695 9.847,13.695 8.137,13.695 8.137,13.695 8.137,13.695 8.283,13.549 8.428,13.404 8.574,13.259 9.028,13.259 9.028,13.259 9.028,13.259 9.028,12.658 9.028,12.658 9.028,12.658 8.428,12.658 8.428,12.658 8.428,12.658 8.428,13.077 8.428,13.077 8.428,13.077 8.246,13.264 8.064,13.452 7.882,13.640 7.882,11.111 7.882,11.111 7.882,11.111 Z M 17.828,11.111 C 17.822,11.766 17.815,12.421 17.809,13.076 15.935,13.076 15.935,13.076 15.935,13.076 15.935,14.368 15.935,14.368 15.935,14.368 18.410,14.368 18.410,14.368 18.410,14.368 17.955,14.823 17.955,14.823 17.955,14.823 17.537,14.823 17.537,14.823 17.537,14.823 17.537,15.405 17.537,15.405 17.537,15.405 18.137,15.405 18.137,15.405 18.137,15.405 18.137,14.968 18.137,14.968 18.137,14.968 18.737,14.368 18.737,14.368 18.737,14.368 19.283,14.368 19.283,14.368 19.283,14.368 19.283,16.533 19.283,16.533 19.283,16.533 19.514,16.430 19.745,16.327 19.975,16.224 19.975,14.368 19.975,14.368 19.975,14.368 21.103,14.368 21.103,14.368 21.103,14.368 21.103,13.695 21.103,13.695 21.103,13.695 19.392,13.695 19.392,13.695 19.392,13.695 19.829,13.258 19.829,13.258 19.829,13.258 20.284,13.258 20.284,13.258 20.284,13.258 20.284,12.658 20.284,12.658 20.284,12.658 19.684,12.658 19.684,12.658 19.684,12.658 19.684,13.076 19.684,13.076 19.684,13.076 19.502,13.264 19.320,13.452 19.138,13.640 19.138,11.111 19.138,11.111 19.138,11.111 Z M 14.120,14.723 C 14.120,18.535 14.120,18.535 14.120,18.535 11.610,18.535 11.610,18.535 11.610,18.535 11.610,14.858 11.610,14.858 11.610,14.858 11.291,16.187 10.375,17.317 9.100,17.894 9.100,17.946 9.100,17.946 9.100,17.946 9.082,17.936 9.063,17.927 9.045,17.918 9.019,17.929 8.994,17.941 8.968,17.951 8.753,18.041 8.534,18.112 8.312,18.166 8.682,18.535 8.682,18.535 8.682,18.535 8.682,18.954 8.682,18.954 8.682,18.954 16.630,18.954 16.630,18.954 16.630,18.954 16.630,18.847 16.630,18.847 16.630,18.847 16.290,18.439 15.951,18.030 15.611,17.622 16.149,17.622 16.149,17.622 16.149,17.622 15.859,17.443 15.587,17.229 15.339,16.981 14.707,16.349 14.294,15.561 14.120,14.723 Z M 17.555,17.261 C 17.555,17.963 17.555,17.963 17.555,17.963 17.356,17.963 17.356,17.963 17.356,17.963 16.395,17.963 16.395,17.963 16.395,17.963 17.097,18.807 17.800,19.652 18.502,20.497 19.205,19.652 19.907,18.807 20.610,17.963 19.649,17.963 19.649,17.963 19.649,17.963 19.450,17.963 19.450,17.963 19.450,17.963 19.450,17.261 19.450,17.261 19.450,17.261 Z M 7.845,19.372 C 7.845,20.627 7.845,20.627 7.845,20.627 17.466,20.627 17.466,20.627 17.466,20.627 17.466,19.853 17.466,19.853 17.466,19.853 17.333,19.693 17.200,19.532 17.067,19.372 Z M 8.682,21.045 C 8.682,23.137 8.682,23.137 8.682,23.137 16.630,23.137 16.630,23.137 16.630,23.137 16.630,21.045 16.630,21.045 16.630,21.045 Z " />
</svg>