<?xml version="1.0" encoding="UTF-8" standalone="no"?>
<!DOCTYPE svg PUBLIC "-//W3C//DTD SVG 20010904//EN" "http://www.w3.org/TR/2001/REC-SVG-20010904/DTD/svg10.dtd"[]>
<svg version="1.1" id="Frosty Editor v1.0.6.3" xmlns="http://www.w3.org/2000/svg" d1p1:xlink="http://www.w3.org/1999/xlink" viewBox="0 0 25 25" xmlns:d1p1="xmlns">
  <path stroke="none" fill="#ffffffff" d="M 22.624,9.715 C 22.593,9.716 22.561,9.723 22.531,9.737 21.769,10.021 21.007,10.305 20.245,10.589 20.110,10.634 20.020,10.814 20.088,10.948 20.095,10.978 20.103,11.008 20.110,11.038 20.155,11.172 20.335,11.240 20.469,11.195 21.231,10.911 21.993,10.627 22.756,10.343 22.890,10.298 22.980,10.118 22.913,9.984 22.905,9.954 22.898,9.924 22.891,9.894 22.856,9.789 22.738,9.712 22.624,9.715 Z M 15.717,10.736 C 15.551,10.979 15.384,11.222 15.218,11.465 14.791,11.465 14.791,11.465 14.791,11.465 14.739,11.536 14.687,11.607 14.635,11.678 14.016,11.678 14.016,11.678 14.016,11.678 14.016,12.997 14.016,12.997 14.016,12.997 14.623,12.997 14.623,12.997 14.623,12.997 14.791,13.171 14.791,13.171 14.791,13.171 15.218,13.171 15.218,13.171 15.218,13.171 15.384,13.410 15.551,13.648 15.717,13.886 16.067,13.886 16.067,13.886 16.067,13.886 16.067,10.736 16.067,10.736 16.067,10.736 Z M 16.462,10.838 C 16.462,13.813 16.462,13.813 16.462,13.813 19.637,13.813 19.637,13.813 19.637,13.813 19.637,10.838 19.637,10.838 19.637,10.838 Z M 8.289,10.867 C 8.289,12.173 8.289,12.173 8.289,12.173 8.848,12.173 8.848,12.173 8.848,12.173 8.848,10.867 8.848,10.867 8.848,10.867 Z M 11.242,11.414 C 11.242,12.140 11.242,12.140 11.242,12.140 12.049,12.140 12.049,12.140 12.049,12.140 12.049,11.414 12.049,11.414 12.049,11.414 Z M 9.175,11.463 C 9.175,12.116 9.175,12.116 9.175,12.116 10.957,12.116 10.957,12.116 10.957,12.116 10.957,11.463 10.957,11.463 10.957,11.463 Z M 6.980,11.779 C 6.980,13.001 6.980,13.001 6.980,13.001 7.092,13.504 7.204,14.007 7.316,14.510 12.200,14.510 12.200,14.510 12.200,14.510 12.601,14.510 12.924,14.124 12.924,13.647 12.924,12.920 12.924,12.920 12.924,12.920 13.103,12.920 13.103,12.920 13.103,12.920 13.103,12.732 13.103,12.732 13.103,12.732 13.706,12.732 13.706,12.732 13.706,12.732 13.706,11.930 13.706,11.930 13.706,11.930 13.106,11.930 13.106,11.930 13.106,11.930 13.106,11.791 13.106,11.791 13.106,11.791 12.292,11.791 12.292,11.791 12.292,11.791 12.292,12.411 12.292,12.411 12.292,12.411 7.989,12.411 7.989,12.411 7.989,12.411 7.989,11.779 7.989,11.779 7.989,11.779 Z M 20.880,11.935 C 20.731,11.943 20.626,12.073 20.626,12.203 20.626,12.293 20.626,12.293 20.626,12.293 20.626,12.450 20.760,12.563 20.895,12.563 23.339,12.563 23.339,12.563 23.339,12.563 23.496,12.563 23.608,12.428 23.608,12.293 23.608,12.203 23.608,12.203 23.608,12.203 23.608,12.046 23.473,11.935 23.339,11.935 20.895,11.935 20.895,11.935 20.895,11.935 20.890,11.935 20.885,11.934 20.880,11.935 Z M 5.697,12.297 C 5.697,13.277 5.697,13.277 5.697,13.277 5.971,13.277 5.971,13.277 5.971,13.277 6.120,14.059 6.270,14.842 6.419,15.624 6.409,15.666 6.403,15.709 6.402,15.752 6.402,16.236 6.935,16.626 7.594,16.626 8.254,16.626 8.787,16.234 8.787,15.752 8.787,15.270 8.274,14.871 7.617,14.871 7.392,14.870 7.170,14.919 6.967,15.015 6.843,14.435 6.718,13.856 6.594,13.277 6.594,12.297 6.594,12.297 6.594,12.297 Z M 20.317,13.388 C 20.210,13.392 20.120,13.458 20.088,13.571 20.073,13.601 20.058,13.631 20.043,13.661 19.975,13.796 20.065,13.975 20.200,14.020 20.955,14.326 21.709,14.633 22.464,14.939 22.599,15.006 22.779,14.917 22.823,14.782 22.838,14.752 22.853,14.722 22.868,14.692 22.935,14.558 22.846,14.378 22.711,14.333 21.956,14.027 21.201,13.721 20.446,13.414 20.402,13.395 20.358,13.387 20.317,13.388 Z M 5.747,13.620 C 5.747,13.620 5.155,13.864 4.971,13.934 4.787,14.003 4.058,14.360 3.800,14.436 3.289,14.512 2.772,14.544 2.256,14.530 1.866,14.530 1.807,14.795 1.807,14.795 1.771,15.253 1.782,15.713 1.839,16.169 1.933,16.916 2.413,16.992 2.650,17.104 2.888,17.216 3.810,17.010 3.843,16.992 3.905,16.863 3.949,16.725 3.975,16.584 4.030,16.423 4.110,16.271 4.213,16.135 4.352,16.006 4.513,15.902 4.689,15.828 4.832,15.752 6.085,15.263 6.085,15.263 5.973,14.715 5.860,14.168 5.747,13.620 Z M 9.142,14.972 C 9.079,15.070 9.046,15.185 9.047,15.301 9.047,15.996 9.047,15.996 9.047,15.996 9.047,16.456 9.574,16.768 10.052,16.595 10.653,16.379 11.255,16.162 11.857,15.945 12.122,15.855 12.302,15.608 12.305,15.328 12.305,14.972 12.305,14.972 12.305,14.972 Z M 7.617,15.109 C 8.099,15.109 8.489,15.396 8.489,15.748 8.489,16.100 8.096,16.380 7.617,16.380 7.617,16.387 7.617,16.387 7.617,16.387 7.135,16.387 6.744,16.100 6.744,15.748 6.744,15.396 7.135,15.109 7.617,15.109 Z M 7.548,15.315 C 7.503,15.318 7.179,15.373 7.106,15.503 7.012,15.663 7.041,15.865 7.175,15.992 7.333,16.116 7.526,16.188 7.727,16.199 7.727,16.199 7.399,15.954 7.370,15.723 7.343,15.512 7.561,15.319 7.554,15.315 7.554,15.315 7.551,15.315 7.548,15.315 Z " />
</svg>