<?xml version="1.0" encoding="UTF-8" standalone="no"?>
<!DOCTYPE svg PUBLIC "-//W3C//DTD SVG 20010904//EN" "http://www.w3.org/TR/2001/REC-SVG-20010904/DTD/svg10.dtd"[]>
<svg version="1.1" id="Frosty Editor v1.0.6.3" xmlns="http://www.w3.org/2000/svg" d1p1:xlink="http://www.w3.org/1999/xlink" viewBox="0 0 96 96" xmlns:d1p1="xmlns">
  <path stroke="none" fill="none" d="M 48.020,96.050 C 32.100,96.050 16.180,96.050 0.260,96.050 0.080,96.050 0.040,96.010 0.040,95.830 0.040,63.970 0.040,32.120 0.040,0.260 0.040,0.080 0.080,0.040 0.260,0.040 32.120,0.040 63.970,0.040 95.830,0.040 96.010,0.040 96.050,0.080 96.050,0.260 96.050,32.120 96.050,63.970 96.050,95.830 96.050,96.010 96.010,96.050 95.830,96.050 79.900,96.050 63.960,96.050 48.020,96.050 Z M 67.420,68.990 C 66.840,68.800 66.290,68.640 65.750,68.450 64.940,68.160 64.140,67.840 63.520,67.190 63.190,66.840 62.870,66.490 62.560,66.120 61.050,64.350 59.830,62.410 59.010,60.220 58.760,59.570 58.830,58.930 59.040,58.320 59.550,56.860 60.220,55.480 60.860,54.070 60.910,53.960 60.980,53.890 61.070,53.820 61.330,53.610 61.660,53.570 61.960,53.500 62.620,53.340 63.270,53.100 63.970,53.080 64.680,53.070 65.390,53.000 66.100,52.970 67.240,52.920 68.380,52.810 69.530,52.810 70.900,52.810 72.270,52.830 73.630,52.850 73.850,52.850 73.890,52.790 73.900,52.590 73.950,50.820 73.820,49.050 73.510,47.310 72.600,42.170 70.360,37.680 66.800,33.850 66.130,33.130 65.410,32.460 64.670,31.810 64.620,31.760 64.560,31.700 64.490,31.710 64.410,31.730 64.450,31.820 64.450,31.880 64.310,35.570 64.170,39.270 64.030,42.960 63.940,45.400 63.860,47.840 63.780,50.270 63.770,50.500 63.710,50.550 63.480,50.560 60.950,50.590 58.430,50.630 55.900,50.660 55.720,50.660 55.660,50.680 55.680,50.890 55.770,51.720 55.730,52.550 55.560,53.370 54.720,57.560 50.570,60.400 46.390,59.630 42.220,58.870 39.410,55.140 39.810,50.920 39.830,50.710 39.790,50.660 39.570,50.650 37.040,50.620 34.520,50.580 31.990,50.550 31.830,50.550 31.760,50.520 31.750,50.330 31.650,47.340 31.540,44.350 31.430,41.360 31.320,38.270 31.210,35.190 31.090,32.100 31.090,31.970 31.140,31.760 31.050,31.720 30.910,31.660 30.790,31.840 30.680,31.930 28.540,33.780 26.740,35.920 25.290,38.350 25.260,38.410 25.250,38.540 25.140,38.490 25.040,38.450 24.960,38.380 25.020,38.230 25.160,37.840 25.190,37.440 25.180,37.030 25.180,36.570 25.200,36.100 25.170,35.640 25.150,35.310 25.080,34.970 24.960,34.660 24.680,33.900 24.220,33.280 23.650,32.710 22.800,31.880 21.840,31.280 20.660,31.060 19.820,30.910 18.980,30.890 18.160,31.190 17.710,31.350 17.250,31.510 16.840,31.760 15.980,32.300 15.290,33.020 14.800,33.910 14.470,34.520 14.130,35.150 14.100,35.860 14.060,36.940 14.020,38.050 14.640,39.020 15.070,39.690 15.460,40.380 16.130,40.880 16.620,41.250 17.130,41.520 17.680,41.770 18.330,42.070 19.030,42.130 19.730,42.160 20.340,42.180 20.930,42.070 21.480,41.820 22.080,41.550 22.810,41.430 23.090,40.700 23.100,40.680 23.120,40.660 23.140,40.640 23.440,40.320 23.430,40.330 23.830,40.520 24.030,40.620 24.060,40.700 23.970,40.910 22.280,44.630 21.510,48.550 21.630,52.630 21.640,52.790 21.690,52.830 21.840,52.820 22.100,52.810 22.350,52.810 22.610,52.810 23.930,52.800 25.250,52.760 26.570,52.790 28.010,52.830 29.440,52.970 30.880,53.010 32.020,53.040 33.090,53.340 34.160,53.640 34.400,53.710 34.570,53.860 34.680,54.100 35.300,55.480 35.950,56.850 36.480,58.280 36.640,58.730 36.710,59.200 36.630,59.670 36.510,60.370 36.240,61.020 35.910,61.640 34.980,63.420 33.900,65.100 32.550,66.600 31.770,67.470 30.850,68.090 29.740,68.430 29.200,68.600 28.670,68.780 28.110,68.960 28.190,69.050 28.240,69.110 28.290,69.170 29.430,70.450 30.680,71.590 32.050,72.620 32.110,72.660 32.230,72.680 32.190,72.780 32.150,72.870 32.080,72.950 31.950,72.950 31.780,72.950 31.610,72.970 31.450,72.970 31.300,72.980 31.160,73.010 31.010,73.090 31.630,73.550 32.240,73.990 32.840,74.440 32.930,74.510 32.970,74.480 33.030,74.410 33.190,74.220 33.370,74.050 33.530,73.860 33.630,73.740 33.700,73.750 33.820,73.830 34.050,73.980 34.280,74.120 34.510,74.260 34.980,74.540 35.460,74.810 35.970,75.050 35.970,75.000 35.980,74.970 35.970,74.940 35.810,73.790 35.630,72.650 35.480,71.500 35.410,70.940 35.220,70.390 35.310,69.820 35.360,69.480 35.340,69.110 35.520,68.790 36.120,67.730 36.730,66.660 37.340,65.610 37.580,65.200 37.880,64.840 38.240,64.520 39.560,63.360 40.870,62.210 42.180,61.040 42.560,60.700 43.000,60.550 43.490,60.550 46.370,60.510 49.250,60.510 52.130,60.550 52.550,60.560 52.930,60.710 53.250,60.980 54.570,62.130 55.870,63.300 57.200,64.450 57.640,64.830 57.980,65.270 58.260,65.770 58.820,66.750 59.370,67.730 59.950,68.700 60.230,69.170 60.270,69.680 60.220,70.180 60.110,71.210 59.930,72.240 59.780,73.270 59.700,73.860 59.610,74.450 59.530,75.080 62.560,73.560 65.170,71.540 67.420,68.990 Z M 47.780,60.990 C 47.780,60.990 47.780,60.990 47.780,60.990 47.620,60.990 47.460,60.990 47.300,60.990 46.140,60.990 44.980,60.990 43.820,61.000 43.250,61.000 42.750,61.210 42.320,61.590 41.310,62.490 40.300,63.380 39.280,64.270 38.710,64.770 38.160,65.300 37.780,65.970 37.230,66.940 36.690,67.920 36.120,68.880 35.850,69.330 35.750,69.800 35.790,70.300 35.830,70.790 35.920,71.280 35.990,71.770 36.080,72.450 36.180,73.120 36.280,73.800 36.350,74.300 36.390,74.800 36.510,75.290 36.660,75.930 36.880,76.550 37.070,77.180 37.110,77.330 37.200,77.410 37.340,77.480 38.070,77.810 38.830,78.070 39.590,78.350 40.240,78.590 40.880,78.880 41.560,79.050 42.190,79.210 42.820,79.350 43.460,79.490 43.940,79.600 44.420,79.760 44.900,79.790 46.550,79.900 48.210,79.840 49.860,79.830 50.310,79.830 50.750,79.810 51.190,79.690 52.510,79.340 53.880,79.160 55.160,78.640 56.170,78.230 57.210,77.910 58.200,77.460 58.300,77.410 58.400,77.380 58.440,77.250 58.640,76.570 58.880,75.910 59.040,75.220 59.190,74.520 59.260,73.810 59.360,73.100 59.480,72.280 59.590,71.460 59.710,70.650 59.800,70.090 59.780,69.540 59.490,69.030 58.970,68.110 58.440,67.210 57.930,66.280 57.620,65.710 57.250,65.170 56.770,64.740 55.560,63.650 54.340,62.570 53.110,61.500 52.750,61.190 52.300,61.010 51.820,61.010 50.490,60.980 49.140,60.990 47.780,60.990 Z M 43.670,37.770 C 43.670,33.790 43.670,29.820 43.670,25.840 43.670,25.660 43.620,25.540 43.480,25.430 43.030,25.070 42.600,24.690 42.240,24.230 42.100,24.060 42.020,23.760 41.830,23.730 41.630,23.690 41.400,23.850 41.180,23.920 40.200,24.260 39.220,24.590 38.240,24.930 38.080,24.990 38.040,24.950 38.060,24.790 38.070,24.650 38.060,24.520 38.060,24.380 38.070,24.270 38.030,24.220 37.910,24.230 37.450,24.240 36.980,24.240 36.520,24.230 36.380,24.230 36.360,24.290 36.370,24.400 36.380,24.680 36.370,24.960 36.370,25.240 36.370,25.620 36.370,25.610 36.010,25.750 35.830,25.820 35.810,25.760 35.810,25.610 35.810,25.250 35.800,24.890 35.810,24.530 35.820,24.280 35.660,24.100 35.560,23.900 35.520,23.830 35.220,23.860 35.060,23.890 34.930,23.950 35.000,24.120 35.000,24.220 34.980,24.850 35.010,25.490 34.610,26.030 34.590,26.060 34.570,26.100 34.570,26.140 34.540,26.330 34.410,26.410 34.240,26.470 33.350,26.810 32.460,27.170 31.560,27.510 31.440,27.560 31.390,27.610 31.390,27.750 31.490,30.370 31.590,32.990 31.690,35.610 31.780,37.950 31.870,40.290 31.960,42.630 32.050,45.060 32.140,47.490 32.230,49.920 32.240,50.130 32.290,50.200 32.510,50.200 36.010,50.190 39.520,50.190 43.020,50.190 43.060,50.190 43.100,50.190 43.140,50.190 43.430,50.170 43.660,49.930 43.660,49.650 43.670,45.690 43.670,41.730 43.670,37.770 Z M 51.900,37.750 C 51.900,41.690 51.900,45.640 51.900,49.580 51.900,49.980 52.110,50.200 52.520,50.200 56.040,50.200 59.560,50.200 63.080,50.200 63.280,50.200 63.330,50.150 63.340,49.950 63.400,48.130 63.480,46.310 63.540,44.480 63.630,41.690 63.730,38.900 63.840,36.110 63.950,33.330 64.050,30.550 64.170,27.770 64.180,27.610 64.130,27.550 63.990,27.500 62.940,27.100 61.890,26.700 60.840,26.270 58.540,25.330 56.190,24.550 53.840,23.740 53.740,23.700 53.680,23.720 53.620,23.810 53.210,24.450 52.670,24.970 52.080,25.440 51.940,25.550 51.890,25.670 51.890,25.850 51.900,29.820 51.900,33.780 51.900,37.750 Z M 24.010,53.340 C 23.670,53.340 23.340,53.340 23.000,53.340 22.240,53.340 21.480,53.340 20.720,53.380 20.620,53.390 20.540,53.380 20.540,53.530 20.520,54.820 20.580,56.100 20.610,57.390 20.650,58.690 20.750,59.990 20.800,61.290 20.830,62.010 20.970,62.680 21.250,63.350 22.070,65.290 23.050,67.130 24.130,68.940 24.290,69.210 24.650,69.360 24.970,69.280 25.490,69.150 26.020,69.020 26.540,68.900 27.490,68.670 28.440,68.480 29.360,68.130 30.270,67.780 31.120,67.350 31.840,66.690 32.360,66.220 32.810,65.690 33.220,65.130 34.410,63.520 35.520,61.860 36.200,59.950 36.240,59.850 36.280,59.750 36.270,59.630 36.190,58.770 35.890,57.970 35.560,57.190 35.170,56.270 34.690,55.380 34.260,54.480 34.160,54.270 34.040,54.130 33.790,54.070 33.290,53.940 32.810,53.730 32.310,53.650 31.630,53.540 30.930,53.530 30.240,53.470 29.760,53.430 29.280,53.430 28.800,53.410 27.200,53.280 25.610,53.260 24.010,53.340 Z M 75.020,54.590 C 75.020,54.260 75.010,53.930 75.020,53.610 75.030,53.430 74.980,53.390 74.800,53.380 73.850,53.330 72.900,53.370 71.950,53.330 70.730,53.280 69.500,53.250 68.280,53.310 67.010,53.370 65.740,53.380 64.480,53.510 63.950,53.570 63.410,53.550 62.900,53.710 62.620,53.800 62.340,53.900 62.060,53.960 61.640,54.040 61.340,54.240 61.210,54.670 61.160,54.830 61.070,54.970 60.990,55.120 60.400,56.310 59.780,57.490 59.450,58.790 59.360,59.150 59.210,59.520 59.350,59.890 59.560,60.440 59.760,61.000 60.030,61.520 60.420,62.290 60.900,63.010 61.360,63.730 61.930,64.620 62.580,65.450 63.280,66.240 64.340,67.440 65.760,68.030 67.240,68.470 68.150,68.740 69.090,68.900 70.020,69.120 70.390,69.210 70.750,69.360 71.150,69.230 71.260,69.190 71.320,69.140 71.380,69.050 72.340,67.380 73.300,65.700 74.070,63.930 74.490,62.970 74.780,62.020 74.780,60.960 74.780,60.240 74.820,59.520 74.880,58.810 74.980,57.410 74.950,56.000 75.020,54.590 Z M 51.220,44.510 C 51.220,44.400 51.220,44.310 51.220,44.220 51.220,41.840 51.220,39.470 51.220,37.090 51.220,33.420 51.220,29.750 51.230,26.070 51.230,25.860 51.170,25.810 50.980,25.790 48.840,25.520 46.700,25.520 44.570,25.790 44.360,25.820 44.320,25.880 44.320,26.080 44.330,32.140 44.320,38.190 44.330,44.250 44.330,44.330 44.310,44.410 44.360,44.500 45.450,44.000 46.590,43.720 47.790,43.720 48.970,43.720 50.110,43.990 51.220,44.510 Z M 28.690,83.270 C 29.270,83.310 29.840,83.100 30.360,82.840 31.340,82.360 32.150,81.640 32.760,80.730 32.980,80.390 33.150,80.000 33.200,79.600 33.280,78.890 33.280,78.180 33.310,77.470 33.310,77.420 33.310,77.370 33.290,77.330 33.060,76.880 32.920,76.390 32.630,75.980 32.380,75.630 32.380,75.630 32.690,75.310 32.860,75.130 32.820,74.710 32.620,74.560 32.180,74.250 31.750,73.940 31.310,73.630 30.640,73.150 30.640,73.150 29.890,73.510 29.670,73.610 29.460,73.650 29.220,73.610 28.410,73.500 27.620,73.620 26.850,73.900 26.220,74.130 25.640,74.430 25.150,74.900 24.770,75.260 24.400,75.630 24.120,76.090 23.850,76.530 23.720,77.010 23.620,77.500 23.590,77.630 23.560,77.740 23.390,77.680 23.220,77.620 23.200,77.720 23.180,77.860 23.140,78.180 23.190,78.500 23.200,78.820 23.210,79.000 23.260,79.070 23.440,79.000 23.630,78.930 23.740,78.990 23.760,79.200 23.770,79.260 23.790,79.320 23.810,79.380 24.120,80.380 24.500,81.360 25.300,82.090 25.720,82.480 26.210,82.780 26.760,82.920 27.390,83.060 28.000,83.320 28.690,83.270 Z M 35.390,9.890 C 35.380,9.990 35.370,10.080 35.370,10.160 35.310,12.650 35.250,15.130 35.190,17.620 35.140,19.580 35.080,21.540 35.030,23.500 35.030,23.580 35.020,23.710 35.050,23.730 35.220,23.800 35.410,23.780 35.590,23.750 35.690,23.730 35.640,23.600 35.630,23.520 35.570,19.160 35.470,14.800 35.480,10.440 35.470,10.260 35.470,10.080 35.390,9.890 Z M 37.230,22.850 C 36.950,22.850 36.670,22.870 36.390,22.840 36.160,22.820 36.120,22.910 36.140,23.100 36.160,23.290 36.140,23.480 36.140,23.680 36.140,24.010 36.150,24.040 36.480,24.060 36.970,24.080 37.460,24.080 37.940,24.060 38.270,24.050 38.290,24.000 38.290,23.670 38.290,23.450 38.280,23.240 38.290,23.020 38.300,22.860 38.240,22.830 38.100,22.840 37.820,22.860 37.530,22.850 37.230,22.850 Z " />
  <path stroke="none" fill="#fdfdfdff" d="M 67.420,68.990 C 65.160,71.550 62.560,73.560 59.530,75.110 59.620,74.480 59.700,73.890 59.780,73.300 59.930,72.270 60.110,71.250 60.220,70.210 60.270,69.710 60.230,69.200 59.950,68.730 59.370,67.760 58.830,66.780 58.260,65.800 57.980,65.310 57.630,64.860 57.200,64.480 55.880,63.330 54.570,62.160 53.250,61.010 52.940,60.740 52.550,60.590 52.130,60.580 49.250,60.540 46.370,60.540 43.490,60.580 43.000,60.590 42.560,60.730 42.180,61.070 40.870,62.240 39.560,63.390 38.240,64.550 37.880,64.870 37.580,65.230 37.340,65.640 36.720,66.690 36.120,67.760 35.520,68.820 35.340,69.130 35.370,69.500 35.310,69.850 35.220,70.420 35.410,70.970 35.480,71.530 35.630,72.680 35.800,73.830 35.970,74.970 35.970,75.000 35.970,75.030 35.970,75.080 35.460,74.830 34.980,74.560 34.510,74.290 34.280,74.150 34.040,74.010 33.820,73.860 33.700,73.780 33.630,73.770 33.530,73.890 33.370,74.080 33.190,74.250 33.030,74.440 32.970,74.510 32.920,74.530 32.840,74.470 32.240,74.020 31.630,73.580 31.010,73.120 31.160,73.040 31.300,73.000 31.450,73.000 31.620,72.990 31.790,72.980 31.950,72.980 32.080,72.980 32.150,72.910 32.190,72.810 32.230,72.710 32.110,72.690 32.050,72.650 30.690,71.620 29.430,70.470 28.290,69.200 28.240,69.140 28.190,69.080 28.110,68.990 28.670,68.810 29.200,68.630 29.740,68.460 30.850,68.110 31.760,67.500 32.550,66.630 33.900,65.130 34.980,63.450 35.910,61.670 36.230,61.050 36.510,60.400 36.630,59.700 36.710,59.230 36.650,58.750 36.480,58.310 35.950,56.890 35.300,55.510 34.680,54.130 34.570,53.890 34.410,53.740 34.160,53.670 33.080,53.370 32.010,53.070 30.880,53.040 29.440,53.000 28.010,52.860 26.570,52.820 25.250,52.790 23.930,52.830 22.610,52.840 22.350,52.840 22.100,52.830 21.840,52.850 21.690,52.860 21.640,52.820 21.630,52.660 21.500,48.570 22.270,44.660 23.970,40.940 24.070,40.730 24.030,40.650 23.830,40.550 23.430,40.360 23.440,40.350 23.140,40.670 23.120,40.690 23.100,40.700 23.090,40.730 22.810,41.470 22.080,41.580 21.480,41.850 20.930,42.100 20.340,42.210 19.730,42.190 19.030,42.160 18.330,42.100 17.680,41.800 17.140,41.550 16.620,41.280 16.130,40.910 15.460,40.410 15.070,39.720 14.640,39.050 14.020,38.070 14.060,36.970 14.100,35.890 14.120,35.190 14.460,34.550 14.800,33.940 15.290,33.050 15.980,32.330 16.840,31.790 17.240,31.540 17.710,31.390 18.160,31.220 18.980,30.920 19.820,30.940 20.660,31.090 21.840,31.310 22.810,31.900 23.650,32.740 24.220,33.300 24.690,33.930 24.960,34.690 25.080,35.010 25.140,35.340 25.170,35.670 25.200,36.130 25.180,36.600 25.180,37.060 25.180,37.470 25.160,37.880 25.020,38.260 24.960,38.410 25.050,38.480 25.140,38.520 25.250,38.570 25.250,38.440 25.290,38.380 26.740,35.950 28.540,33.810 30.680,31.960 30.790,31.860 30.910,31.690 31.050,31.750 31.140,31.790 31.080,32.000 31.090,32.130 31.200,35.220 31.320,38.300 31.430,41.390 31.540,44.380 31.650,47.370 31.750,50.360 31.760,50.550 31.830,50.580 31.990,50.580 34.520,50.610 37.040,50.650 39.570,50.680 39.790,50.680 39.830,50.740 39.810,50.950 39.400,55.180 42.220,58.900 46.390,59.660 50.570,60.420 54.720,57.580 55.560,53.400 55.720,52.580 55.770,51.750 55.680,50.920 55.660,50.710 55.720,50.690 55.900,50.690 58.430,50.660 60.950,50.620 63.480,50.590 63.700,50.590 63.770,50.540 63.780,50.300 63.850,47.860 63.940,45.420 64.030,42.990 64.170,39.300 64.310,35.600 64.450,31.910 64.450,31.850 64.410,31.760 64.490,31.740 64.560,31.720 64.620,31.790 64.670,31.840 65.410,32.490 66.130,33.160 66.800,33.880 70.360,37.710 72.600,42.190 73.510,47.340 73.820,49.080 73.950,50.850 73.900,52.620 73.890,52.820 73.850,52.890 73.630,52.880 72.260,52.860 70.890,52.840 69.530,52.840 68.390,52.840 67.250,52.950 66.100,53.000 65.390,53.030 64.680,53.100 63.970,53.110 63.270,53.120 62.620,53.360 61.960,53.530 61.650,53.610 61.330,53.650 61.070,53.850 60.980,53.920 60.910,54.000 60.860,54.100 60.220,55.500 59.550,56.890 59.040,58.350 58.830,58.950 58.760,59.590 59.010,60.250 59.830,62.440 61.050,64.380 62.560,66.150 62.870,66.510 63.190,66.870 63.520,67.220 64.140,67.870 64.940,68.190 65.750,68.480 66.290,68.640 66.840,68.800 67.420,68.990 Z M 22.440,36.600 C 22.430,35.090 21.200,33.880 19.690,33.890 18.190,33.900 16.990,35.130 16.990,36.630 17.000,38.130 18.220,39.340 19.710,39.350 21.220,39.340 22.450,38.110 22.440,36.600 Z " />
  <path stroke="none" fill="#fefefeff" d="M 47.780,60.990 C 49.130,60.990 50.480,60.980 51.830,60.990 52.310,61.000 52.760,61.170 53.120,61.480 54.350,62.550 55.570,63.630 56.780,64.720 57.260,65.160 57.630,65.690 57.940,66.260 58.450,67.180 58.980,68.090 59.500,69.010 59.790,69.520 59.800,70.070 59.720,70.630 59.590,71.450 59.480,72.260 59.370,73.080 59.270,73.790 59.200,74.500 59.050,75.200 58.900,75.890 58.650,76.550 58.450,77.230 58.410,77.360 58.310,77.390 58.210,77.440 57.220,77.890 56.170,78.210 55.170,78.620 53.890,79.140 52.520,79.310 51.200,79.670 50.760,79.790 50.320,79.810 49.870,79.810 48.220,79.810 46.560,79.870 44.910,79.770 44.430,79.740 43.950,79.580 43.470,79.470 42.840,79.330 42.200,79.180 41.570,79.030 40.890,78.860 40.250,78.570 39.600,78.330 38.850,78.050 38.090,77.790 37.350,77.460 37.210,77.400 37.120,77.310 37.080,77.160 36.890,76.530 36.680,75.910 36.520,75.270 36.400,74.780 36.360,74.280 36.290,73.780 36.190,73.100 36.100,72.430 36.000,71.750 35.930,71.260 35.850,70.770 35.800,70.280 35.750,69.780 35.860,69.310 36.130,68.860 36.700,67.900 37.240,66.920 37.790,65.950 38.170,65.280 38.710,64.750 39.290,64.250 40.310,63.360 41.310,62.460 42.330,61.570 42.760,61.190 43.260,60.990 43.830,60.980 44.990,60.970 46.150,60.980 47.310,60.970 47.470,60.980 47.630,60.980 47.780,60.990 47.780,60.990 47.780,60.990 47.780,60.990 Z " />
  <path stroke="none" fill="#fdfdfdff" d="M 43.670,37.770 C 43.670,41.730 43.670,45.690 43.670,49.650 43.670,49.940 43.440,50.180 43.150,50.190 43.110,50.190 43.070,50.190 43.030,50.190 39.530,50.190 36.020,50.190 32.520,50.200 32.300,50.200 32.240,50.130 32.240,49.920 32.160,47.490 32.060,45.060 31.970,42.630 31.880,40.290 31.790,37.950 31.700,35.610 31.600,32.990 31.500,30.370 31.400,27.750 31.390,27.610 31.440,27.560 31.570,27.510 32.460,27.170 33.350,26.810 34.250,26.470 34.420,26.410 34.550,26.330 34.580,26.140 34.590,26.100 34.600,26.060 34.620,26.030 35.020,25.480 34.990,24.850 35.010,24.220 35.010,24.120 34.940,23.960 35.080,23.930 35.250,23.890 35.550,23.860 35.580,23.940 35.680,24.130 35.830,24.320 35.830,24.570 35.820,24.930 35.830,25.290 35.830,25.650 35.830,25.800 35.850,25.870 36.030,25.790 36.390,25.650 36.390,25.660 36.390,25.280 36.390,25.000 36.390,24.720 36.390,24.440 36.390,24.330 36.400,24.260 36.540,24.270 37.000,24.280 37.470,24.280 37.930,24.270 38.050,24.270 38.080,24.310 38.080,24.420 38.070,24.560 38.090,24.690 38.080,24.830 38.070,24.990 38.110,25.020 38.260,24.970 39.240,24.630 40.220,24.290 41.200,23.960 41.420,23.890 41.650,23.730 41.850,23.770 42.040,23.800 42.120,24.100 42.260,24.270 42.620,24.730 43.050,25.110 43.500,25.470 43.640,25.580 43.690,25.700 43.690,25.880 43.660,29.820 43.670,33.800 43.670,37.770 Z " />
  <path stroke="none" fill="#fdfdfdff" d="M 51.900,37.750 C 51.900,33.780 51.900,29.820 51.900,25.850 51.900,25.670 51.950,25.550 52.090,25.440 52.680,24.970 53.220,24.450 53.630,23.810 53.690,23.720 53.750,23.710 53.850,23.740 56.190,24.560 58.550,25.330 60.850,26.270 61.890,26.700 62.940,27.090 64.000,27.500 64.140,27.550 64.190,27.620 64.180,27.770 64.060,30.550 63.950,33.330 63.850,36.110 63.740,38.900 63.640,41.690 63.550,44.480 63.490,46.300 63.410,48.120 63.350,49.950 63.340,50.140 63.290,50.200 63.090,50.200 59.570,50.190 56.050,50.200 52.530,50.200 52.130,50.200 51.910,49.990 51.910,49.580 51.900,45.630 51.900,41.690 51.900,37.750 Z " />
  <path stroke="none" fill="#fdfdfdff" d="M 24.010,53.340 C 25.610,53.260 27.210,53.280 28.800,53.380 29.280,53.410 29.760,53.410 30.240,53.440 30.930,53.500 31.630,53.510 32.310,53.620 32.810,53.700 33.290,53.920 33.790,54.040 34.030,54.100 34.150,54.240 34.260,54.450 34.690,55.360 35.180,56.240 35.560,57.160 35.890,57.940 36.190,58.740 36.270,59.600 36.280,59.720 36.240,59.820 36.200,59.920 35.520,61.830 34.410,63.490 33.220,65.100 32.810,65.660 32.360,66.190 31.840,66.660 31.120,67.320 30.270,67.750 29.360,68.100 28.440,68.450 27.490,68.640 26.540,68.870 26.020,68.990 25.490,69.130 24.970,69.250 24.650,69.330 24.290,69.190 24.130,68.910 23.060,67.110 22.070,65.260 21.250,63.320 20.970,62.660 20.830,61.980 20.800,61.260 20.740,59.960 20.650,58.660 20.610,57.360 20.570,56.070 20.520,54.790 20.540,53.500 20.540,53.350 20.620,53.360 20.720,53.350 21.480,53.310 22.240,53.310 23.000,53.310 23.340,53.340 23.670,53.340 24.010,53.340 Z " />
  <path stroke="none" fill="#fdfdfdff" d="M 75.020,54.590 C 74.950,55.990 74.980,57.400 74.860,58.810 74.800,59.530 74.760,60.250 74.760,60.960 74.770,62.020 74.470,62.970 74.050,63.930 73.280,65.710 72.320,67.380 71.360,69.050 71.310,69.140 71.240,69.190 71.130,69.230 70.730,69.370 70.370,69.210 70.000,69.120 69.080,68.900 68.130,68.740 67.220,68.470 65.740,68.030 64.320,67.440 63.260,66.240 62.560,65.450 61.910,64.620 61.340,63.730 60.880,63.000 60.400,62.280 60.010,61.520 59.750,61.000 59.540,60.440 59.330,59.890 59.190,59.520 59.340,59.150 59.430,58.790 59.760,57.490 60.380,56.310 60.970,55.120 61.040,54.970 61.140,54.830 61.190,54.670 61.320,54.240 61.610,54.040 62.040,53.960 62.330,53.900 62.600,53.800 62.880,53.710 63.400,53.550 63.930,53.570 64.460,53.510 65.720,53.370 66.990,53.370 68.260,53.310 69.480,53.250 70.710,53.280 71.930,53.330 72.880,53.370 73.830,53.330 74.780,53.380 74.960,53.390 75.010,53.440 75.000,53.610 75.010,53.940 75.020,54.270 75.020,54.590 Z " />
  <path stroke="none" fill="#fdfdfdff" d="M 51.220,44.510 C 50.110,43.990 48.970,43.720 47.770,43.720 46.570,43.720 45.430,44.000 44.340,44.500 44.290,44.410 44.310,44.330 44.310,44.250 44.310,38.190 44.310,32.140 44.300,26.080 44.300,25.880 44.350,25.820 44.550,25.790 46.690,25.520 48.830,25.520 50.960,25.790 51.160,25.820 51.220,25.870 51.210,26.070 51.200,29.740 51.200,33.410 51.200,37.090 51.200,39.470 51.200,41.840 51.200,44.220 51.220,44.310 51.220,44.400 51.220,44.510 Z " />
  <path stroke="none" fill="#fdfdfdff" d="M 28.690,83.270 C 27.990,83.310 27.390,83.060 26.760,82.900 26.210,82.760 25.720,82.460 25.300,82.070 24.500,81.330 24.130,80.360 23.810,79.360 23.790,79.300 23.760,79.240 23.760,79.180 23.740,78.970 23.630,78.910 23.440,78.980 23.260,79.050 23.210,78.980 23.200,78.800 23.190,78.480 23.140,78.170 23.180,77.840 23.200,77.700 23.220,77.600 23.390,77.660 23.560,77.720 23.590,77.620 23.620,77.480 23.720,76.990 23.850,76.510 24.120,76.070 24.400,75.610 24.770,75.250 25.150,74.880 25.640,74.410 26.220,74.110 26.850,73.880 27.620,73.600 28.410,73.480 29.220,73.590 29.460,73.620 29.670,73.590 29.890,73.490 30.640,73.130 30.640,73.140 31.310,73.610 31.750,73.920 32.180,74.230 32.620,74.540 32.830,74.690 32.860,75.110 32.690,75.290 32.390,75.610 32.390,75.610 32.630,75.960 32.920,76.380 33.070,76.860 33.290,77.310 33.310,77.350 33.310,77.400 33.310,77.450 33.280,78.160 33.270,78.880 33.200,79.580 33.160,79.980 32.990,80.370 32.760,80.710 32.150,81.630 31.340,82.340 30.360,82.820 29.840,83.100 29.270,83.320 28.690,83.270 Z M 31.260,78.450 C 31.260,76.930 30.050,75.720 28.540,75.720 27.040,75.720 25.820,76.930 25.820,78.430 25.820,79.940 27.030,81.160 28.540,81.160 30.050,81.170 31.260,79.960 31.260,78.450 Z " />
  <path stroke="none" fill="#fdfdfdff" d="M 35.390,9.890 C 35.480,10.080 35.470,10.260 35.470,10.440 35.460,14.800 35.560,19.160 35.620,23.520 35.620,23.600 35.680,23.730 35.580,23.750 35.400,23.780 35.210,23.800 35.040,23.730 35.010,23.720 35.020,23.580 35.020,23.500 35.070,21.540 35.130,19.580 35.180,17.620 35.240,15.130 35.300,12.650 35.360,10.160 35.360,10.080 35.380,9.990 35.390,9.890 Z " />
  <path stroke="none" fill="#fdfdfdff" d="M 37.230,22.850 C 37.530,22.850 37.820,22.860 38.120,22.850 38.260,22.840 38.320,22.870 38.310,23.030 38.290,23.240 38.310,23.460 38.310,23.680 38.310,24.010 38.290,24.050 37.960,24.070 37.470,24.090 36.980,24.090 36.500,24.070 36.170,24.060 36.160,24.020 36.160,23.690 36.160,23.500 36.170,23.310 36.160,23.110 36.140,22.910 36.180,22.830 36.410,22.850 36.670,22.870 36.950,22.850 37.230,22.850 Z " />
  <path stroke="none" fill="none" d="M 22.440,36.600 C 22.450,38.110 21.220,39.340 19.720,39.340 18.220,39.340 17.000,38.120 17.000,36.620 16.990,35.120 18.200,33.890 19.700,33.880 21.200,33.880 22.430,35.090 22.440,36.600 Z M 17.840,36.300 C 17.830,37.200 18.540,37.940 19.440,37.960 20.330,37.980 21.080,37.250 21.100,36.350 21.120,35.460 20.400,34.710 19.520,34.700 18.590,34.680 17.850,35.390 17.840,36.300 Z " />
  <path stroke="none" fill="none" d="M 31.260,78.450 C 31.260,79.950 30.040,81.160 28.540,81.160 27.030,81.160 25.810,79.940 25.820,78.430 25.820,76.930 27.040,75.720 28.540,75.720 30.050,75.720 31.260,76.940 31.260,78.450 Z M 30.880,78.430 C 30.880,77.140 29.850,76.110 28.570,76.110 27.280,76.110 26.240,77.140 26.250,78.440 26.250,79.730 27.280,80.750 28.570,80.750 29.850,80.740 30.880,79.710 30.880,78.430 Z " />
  <path stroke="none" fill="#fdfdfdff" d="M 17.840,36.300 C 17.850,35.390 18.590,34.680 19.520,34.700 20.400,34.720 21.120,35.460 21.100,36.350 21.080,37.250 20.340,37.970 19.440,37.960 18.540,37.950 17.820,37.200 17.840,36.300 Z M 20.590,35.980 C 20.590,35.680 20.350,35.430 20.040,35.430 19.730,35.430 19.480,35.680 19.480,35.990 19.480,36.300 19.730,36.550 20.050,36.540 20.360,36.530 20.600,36.280 20.590,35.980 Z " />
  <path stroke="none" fill="#fdfdfdff" d="M 30.880,78.430 C 30.880,79.720 29.850,80.740 28.570,80.750 27.280,80.750 26.250,79.730 26.250,78.440 26.250,77.140 27.280,76.100 28.570,76.110 29.850,76.110 30.880,77.140 30.880,78.430 Z " />
  <path stroke="none" fill="none" d="M 20.590,35.980 C 20.590,36.290 20.360,36.530 20.050,36.540 19.730,36.550 19.480,36.310 19.480,35.990 19.480,35.680 19.730,35.430 20.040,35.430 20.350,35.430 20.590,35.680 20.590,35.980 Z M 20.350,36.190 C 20.340,36.110 20.300,36.060 20.220,36.050 20.140,36.050 20.080,36.090 20.080,36.170 20.070,36.260 20.130,36.320 20.220,36.320 20.290,36.330 20.340,36.270 20.350,36.190 Z " />
  <path stroke="none" fill="#fdfdfdff" d="M 20.350,36.190 C 20.340,36.270 20.300,36.320 20.210,36.330 20.120,36.330 20.060,36.270 20.070,36.180 20.080,36.100 20.130,36.050 20.210,36.060 20.300,36.060 20.340,36.110 20.350,36.190 Z " />
</svg>