<?xml version="1.0" encoding="UTF-8" standalone="no"?>
<!DOCTYPE svg PUBLIC "-//W3C//DTD SVG 20010904//EN" "http://www.w3.org/TR/2001/REC-SVG-20010904/DTD/svg10.dtd"[]>
<svg version="1.1" id="Frosty Editor v1.0.6.3" xmlns="http://www.w3.org/2000/svg" d1p1:xlink="http://www.w3.org/1999/xlink" viewBox="0 0 96 96" xmlns:d1p1="xmlns">
  <path stroke="none" fill="none" d="M 0.050,0.050 C 31.980,0.050 63.910,0.050 95.830,0.050 96.010,0.050 96.050,0.090 96.050,0.270 96.050,32.130 96.050,63.980 96.050,95.840 96.050,96.020 96.010,96.060 95.830,96.060 63.970,96.060 32.120,96.060 0.260,96.060 0.080,96.060 0.040,96.020 0.040,95.840 0.050,63.900 0.050,31.980 0.050,0.050 Z M 48.020,84.070 C 67.770,84.030 83.810,68.100 84.040,48.470 84.280,28.680 68.550,12.160 48.390,11.930 28.470,11.700 11.800,27.850 11.950,48.270 12.080,67.660 27.810,84.000 48.020,84.070 Z " />
  <path stroke="none" fill="#fdfdfdff" d="M 48.020,84.070 C 27.810,84.000 12.080,67.660 11.950,48.270 11.800,27.850 28.470,11.700 48.400,11.930 68.560,12.160 84.290,28.670 84.050,48.470 83.810,68.100 67.770,84.030 48.020,84.070 Z M 48.060,80.970 C 65.820,80.930 80.940,66.900 80.980,47.810 81.020,29.790 66.330,14.820 47.660,14.970 29.790,15.120 14.800,29.630 14.990,48.400 15.170,65.960 29.220,80.920 48.060,80.970 Z " />
  <path stroke="none" fill="none" d="M 48.060,80.970 C 29.220,80.920 15.170,65.960 14.990,48.400 14.800,29.630 29.790,15.120 47.660,14.970 66.330,14.820 81.020,29.780 80.980,47.810 80.940,66.910 65.820,80.930 48.060,80.970 Z M 47.950,40.180 C 47.950,40.180 47.950,40.170 47.950,40.170 48.900,40.170 49.850,40.170 50.800,40.170 51.140,40.170 51.470,40.100 51.740,39.880 52.240,39.480 52.430,38.860 52.230,38.270 52.050,37.740 51.520,37.380 50.880,37.380 50.460,37.380 50.040,37.380 49.620,37.390 49.480,37.390 49.440,37.350 49.440,37.220 49.450,36.490 49.460,35.770 49.460,35.040 49.460,34.910 49.510,34.880 49.620,34.880 49.760,34.880 49.910,34.870 50.050,34.850 50.560,34.790 50.970,34.330 50.930,33.850 50.890,33.350 50.490,33.030 49.920,33.060 49.810,33.070 49.700,33.060 49.590,33.080 49.450,33.100 49.390,33.060 49.390,32.910 49.390,32.030 49.380,31.150 49.370,30.270 49.370,30.150 49.410,30.110 49.530,30.100 49.740,30.090 49.940,30.100 50.150,30.050 50.580,29.940 50.860,29.590 50.840,29.190 50.810,28.730 50.510,28.400 50.060,28.320 49.910,28.290 49.760,28.310 49.610,28.330 49.500,28.350 49.470,28.320 49.470,28.210 49.460,27.320 49.450,26.440 49.440,25.550 49.440,25.420 49.490,25.390 49.610,25.390 49.780,25.390 49.950,25.370 50.110,25.340 50.500,25.270 50.830,24.920 50.870,24.540 50.920,24.130 50.730,23.830 50.320,23.630 50.100,23.530 49.870,23.520 49.640,23.550 49.500,23.570 49.450,23.530 49.450,23.380 49.450,22.650 49.440,21.930 49.420,21.200 49.420,21.080 49.460,21.050 49.570,21.060 49.960,21.060 50.340,21.060 50.730,21.050 50.980,21.050 51.220,21.050 51.460,20.950 52.060,20.680 52.390,20.030 52.270,19.370 52.160,18.770 51.610,18.300 50.940,18.300 49.010,18.290 47.070,18.300 45.140,18.310 44.450,18.320 43.720,19.000 43.640,19.680 43.630,19.730 43.640,19.780 43.650,19.820 43.760,20.550 44.320,21.050 45.060,21.070 45.460,21.080 45.870,21.080 46.270,21.060 46.450,21.050 46.500,21.110 46.500,21.290 46.500,21.990 46.510,22.680 46.530,23.380 46.530,23.520 46.500,23.580 46.350,23.580 46.180,23.580 46.010,23.600 45.850,23.620 45.400,23.700 45.070,24.120 45.090,24.560 45.120,24.990 45.490,25.360 45.940,25.390 46.070,25.400 46.210,25.400 46.340,25.380 46.480,25.360 46.520,25.400 46.520,25.540 46.530,26.430 46.540,27.310 46.550,28.200 46.550,28.320 46.510,28.350 46.400,28.360 46.210,28.370 46.020,28.370 45.830,28.430 45.380,28.570 45.090,28.930 45.110,29.330 45.130,29.730 45.450,30.080 45.900,30.180 46.050,30.210 46.200,30.210 46.350,30.190 46.510,30.170 46.550,30.220 46.550,30.380 46.550,31.100 46.560,31.820 46.570,32.540 46.570,32.730 46.640,32.970 46.540,33.100 46.440,33.230 46.180,33.160 45.990,33.180 45.570,33.210 45.210,33.530 45.140,33.930 45.080,34.330 45.300,34.730 45.690,34.900 45.910,34.990 46.140,35.020 46.370,34.980 46.530,34.950 46.570,35.010 46.570,35.170 46.570,35.870 46.580,36.580 46.600,37.280 46.600,37.420 46.560,37.460 46.430,37.460 45.980,37.450 45.520,37.460 45.070,37.460 44.320,37.470 43.730,38.060 43.730,38.780 43.730,39.570 44.350,40.210 45.100,40.210 46.070,40.180 47.010,40.180 47.950,40.180 Z M 70.900,66.040 C 71.570,66.040 72.080,65.800 72.410,65.190 72.670,64.700 72.960,64.240 73.240,63.760 73.890,62.640 74.540,61.530 75.190,60.400 75.590,59.700 75.410,58.880 74.780,58.510 74.050,58.080 73.260,58.280 72.820,59.000 72.610,59.350 72.400,59.700 72.200,60.050 72.110,60.220 72.040,60.250 71.870,60.140 71.370,59.820 70.860,59.530 70.350,59.230 69.930,59.000 69.930,59.000 70.170,58.590 70.410,58.170 70.310,57.620 69.950,57.360 69.580,57.090 69.010,57.170 68.690,57.540 68.590,57.660 68.510,57.780 68.430,57.910 68.350,58.040 68.290,58.060 68.150,57.970 67.470,57.550 66.780,57.150 66.090,56.740 65.790,56.560 65.790,56.570 65.990,56.290 66.280,55.880 66.210,55.360 65.840,55.040 65.480,54.730 64.990,54.770 64.640,55.140 64.530,55.260 64.430,55.390 64.360,55.530 64.250,55.760 64.130,55.750 63.930,55.620 63.240,55.190 62.530,54.780 61.830,54.380 61.670,54.290 61.640,54.220 61.750,54.060 61.900,53.860 62.070,53.660 62.100,53.390 62.150,52.990 61.930,52.610 61.590,52.470 61.200,52.310 60.720,52.440 60.450,52.790 60.350,52.920 60.270,53.050 60.180,53.190 60.120,53.290 60.070,53.290 59.970,53.240 59.340,52.880 58.710,52.520 58.070,52.170 57.940,52.100 57.930,52.040 58.000,51.920 58.250,51.520 58.500,51.120 58.710,50.700 59.050,50.000 58.760,49.200 58.090,48.890 57.360,48.550 56.610,48.800 56.190,49.520 55.240,51.150 54.310,52.790 53.340,54.410 52.930,55.090 53.270,55.960 53.880,56.330 54.500,56.710 55.320,56.480 55.710,55.830 55.940,55.450 56.160,55.080 56.370,54.690 56.450,54.550 56.510,54.520 56.650,54.610 57.200,54.950 57.760,55.280 58.310,55.610 58.590,55.780 58.590,55.780 58.410,56.070 58.370,56.140 58.330,56.210 58.300,56.280 58.110,56.760 58.270,57.280 58.680,57.490 59.120,57.720 59.610,57.570 59.900,57.120 59.970,57.020 60.040,56.920 60.100,56.820 60.150,56.730 60.200,56.700 60.300,56.770 61.060,57.230 61.820,57.680 62.590,58.130 62.700,58.200 62.710,58.250 62.630,58.350 62.490,58.540 62.380,58.740 62.350,58.980 62.310,59.340 62.410,59.650 62.710,59.870 63.000,60.080 63.300,60.060 63.610,59.900 63.870,59.770 64.040,59.550 64.180,59.300 64.260,59.160 64.330,59.140 64.470,59.230 65.090,59.610 65.720,59.970 66.340,60.350 66.500,60.440 66.720,60.510 66.790,60.650 66.870,60.810 66.640,60.950 66.560,61.110 66.350,61.540 66.460,62.060 66.830,62.310 67.210,62.560 67.740,62.470 68.040,62.110 68.150,61.980 68.240,61.840 68.330,61.700 68.390,61.600 68.450,61.580 68.560,61.650 69.170,62.020 69.770,62.390 70.390,62.740 70.560,62.840 70.540,62.910 70.460,63.050 70.230,63.430 70.000,63.820 69.790,64.210 69.430,64.870 69.910,66.150 70.900,66.040 Z M 43.300,54.850 C 43.310,54.620 43.240,54.380 43.110,54.150 42.160,52.490 41.210,50.840 40.240,49.190 39.870,48.550 39.060,48.290 38.430,48.570 37.750,48.870 37.440,49.710 37.760,50.420 37.950,50.850 38.170,51.270 38.400,51.680 38.510,51.880 38.460,51.940 38.290,52.040 37.810,52.300 37.330,52.590 36.850,52.860 36.700,52.940 36.550,53.100 36.410,53.080 36.250,53.060 36.220,52.810 36.120,52.670 36.110,52.660 36.100,52.640 36.090,52.630 35.840,52.320 35.510,52.220 35.130,52.280 34.790,52.340 34.560,52.590 34.480,52.970 34.410,53.300 34.530,53.570 34.700,53.820 34.810,53.980 34.780,54.050 34.610,54.140 33.950,54.510 33.290,54.900 32.630,55.280 32.220,55.520 32.220,55.520 31.980,55.130 31.970,55.110 31.950,55.090 31.940,55.070 31.720,54.740 31.270,54.600 30.870,54.730 30.490,54.850 30.300,55.130 30.300,55.570 30.300,55.820 30.380,56.040 30.520,56.240 30.620,56.380 30.610,56.450 30.450,56.550 29.790,56.910 29.150,57.300 28.490,57.670 28.350,57.750 28.210,57.900 28.080,57.890 27.920,57.870 27.900,57.640 27.800,57.510 27.800,57.500 27.790,57.500 27.790,57.490 27.550,57.140 27.070,57.000 26.660,57.160 26.280,57.300 26.090,57.660 26.150,58.110 26.170,58.270 26.220,58.420 26.310,58.560 26.480,58.840 26.480,58.850 26.180,59.020 25.610,59.350 25.040,59.670 24.480,60.010 24.350,60.090 24.290,60.090 24.210,59.940 24.000,59.550 23.770,59.160 23.540,58.780 23.130,58.110 22.260,57.890 21.610,58.270 20.950,58.660 20.740,59.480 21.140,60.170 22.110,61.850 23.080,63.530 24.050,65.210 24.180,65.440 24.350,65.620 24.580,65.750 25.110,66.040 25.780,65.960 26.200,65.550 26.650,65.110 26.760,64.400 26.450,63.830 26.240,63.440 26.010,63.050 25.780,62.670 25.710,62.550 25.710,62.490 25.840,62.420 26.380,62.120 26.910,61.810 27.440,61.500 27.830,61.270 27.830,61.270 28.080,61.660 28.290,61.990 28.760,62.200 29.090,62.110 29.440,62.020 29.730,61.650 29.760,61.260 29.780,61.000 29.690,60.770 29.540,60.570 29.430,60.420 29.430,60.330 29.620,60.230 30.290,59.860 30.940,59.480 31.600,59.100 31.990,58.870 31.990,58.870 32.230,59.240 32.450,59.580 32.920,59.790 33.260,59.710 33.600,59.620 33.890,59.270 33.920,58.880 33.950,58.600 33.840,58.360 33.690,58.140 33.580,57.990 33.620,57.920 33.770,57.840 34.420,57.480 35.060,57.100 35.700,56.730 35.850,56.640 36.000,56.470 36.160,56.500 36.300,56.530 36.340,56.770 36.430,56.900 36.460,56.940 36.490,56.980 36.520,57.010 37.010,57.550 37.790,57.390 38.030,56.700 38.160,56.340 38.040,56.020 37.830,55.730 37.730,55.590 37.760,55.520 37.910,55.440 38.510,55.100 39.110,54.760 39.700,54.410 39.830,54.340 39.880,54.350 39.960,54.470 40.220,54.890 40.480,55.310 40.770,55.720 41.110,56.200 41.810,56.420 42.350,56.240 42.950,56.030 43.300,55.510 43.300,54.850 Z M 44.970,48.040 C 44.980,49.710 46.330,51.090 47.970,51.070 49.510,51.050 50.960,49.930 50.980,48.010 51.000,46.410 49.600,45.040 48.010,45.040 46.350,45.040 44.970,46.400 44.970,48.040 Z M 56.580,62.370 C 56.550,62.350 56.540,62.340 56.530,62.330 56.160,62.100 55.780,61.870 55.420,61.630 55.240,61.510 55.100,61.500 54.910,61.600 51.750,63.220 48.430,63.700 44.950,63.020 43.540,62.740 42.210,62.220 40.930,61.590 40.850,61.550 40.780,61.470 40.670,61.540 40.190,61.820 39.710,62.100 39.220,62.380 44.010,65.440 51.000,65.880 56.580,62.370 Z M 39.900,33.440 C 36.620,35.250 34.210,37.810 32.660,41.190 31.600,43.510 31.120,45.950 31.170,48.530 31.570,48.300 31.920,48.070 32.290,47.890 32.630,47.730 32.810,47.530 32.750,47.140 32.740,47.040 32.770,46.930 32.780,46.830 33.000,44.040 33.920,41.510 35.540,39.230 36.680,37.630 38.080,36.320 39.740,35.280 39.830,35.220 39.960,35.200 39.950,35.050 39.930,34.520 39.910,34.000 39.900,33.440 Z M 64.690,48.590 C 64.790,44.950 63.820,41.680 61.820,38.710 60.310,36.470 58.340,34.740 55.990,33.460 55.990,33.970 55.990,34.470 55.990,34.960 55.990,35.090 56.050,35.160 56.150,35.220 57.390,36.020 58.500,36.970 59.470,38.090 60.680,39.490 61.610,41.050 62.270,42.780 62.840,44.300 63.180,45.870 63.240,47.500 63.240,47.610 63.260,47.690 63.370,47.760 63.790,48.020 64.210,48.290 64.690,48.590 Z " />
  <path stroke="none" fill="#fcfcfcff" d="M 47.950,40.180 C 47.010,40.180 46.070,40.180 45.130,40.180 44.380,40.180 43.760,39.540 43.760,38.750 43.760,38.030 44.350,37.440 45.100,37.430 45.550,37.420 46.010,37.420 46.460,37.430 46.590,37.430 46.640,37.390 46.630,37.250 46.610,36.550 46.600,35.840 46.600,35.140 46.600,34.980 46.560,34.920 46.400,34.950 46.170,34.990 45.940,34.960 45.720,34.870 45.330,34.700 45.100,34.300 45.170,33.900 45.240,33.490 45.590,33.180 46.020,33.150 46.210,33.140 46.470,33.200 46.570,33.070 46.660,32.950 46.600,32.700 46.600,32.510 46.590,31.790 46.580,31.070 46.580,30.350 46.580,30.190 46.540,30.140 46.380,30.160 46.230,30.180 46.080,30.180 45.930,30.150 45.480,30.050 45.160,29.700 45.140,29.300 45.120,28.900 45.410,28.540 45.860,28.400 46.050,28.340 46.240,28.340 46.430,28.330 46.540,28.320 46.580,28.290 46.580,28.170 46.570,27.280 46.550,26.400 46.550,25.510 46.550,25.370 46.510,25.330 46.370,25.350 46.240,25.370 46.100,25.370 45.970,25.360 45.520,25.330 45.150,24.960 45.120,24.530 45.090,24.090 45.420,23.670 45.880,23.590 46.040,23.560 46.210,23.550 46.380,23.550 46.530,23.550 46.560,23.490 46.560,23.350 46.540,22.650 46.530,21.960 46.530,21.260 46.530,21.080 46.490,21.020 46.300,21.030 45.900,21.050 45.490,21.050 45.090,21.040 44.350,21.030 43.780,20.530 43.680,19.790 43.670,19.740 43.670,19.690 43.670,19.650 43.760,18.970 44.480,18.290 45.170,18.280 47.100,18.260 49.040,18.260 50.970,18.270 51.630,18.270 52.180,18.740 52.300,19.340 52.430,20.000 52.090,20.650 51.490,20.920 51.260,21.020 51.010,21.020 50.760,21.020 50.370,21.030 49.990,21.030 49.600,21.030 49.490,21.030 49.450,21.050 49.450,21.170 49.470,21.900 49.480,22.620 49.480,23.350 49.480,23.500 49.530,23.540 49.670,23.520 49.900,23.490 50.130,23.500 50.350,23.600 50.760,23.790 50.950,24.100 50.900,24.510 50.850,24.890 50.520,25.240 50.140,25.310 49.980,25.340 49.810,25.350 49.640,25.360 49.520,25.360 49.470,25.390 49.470,25.520 49.490,26.410 49.500,27.290 49.500,28.180 49.500,28.290 49.530,28.320 49.640,28.300 49.790,28.270 49.940,28.260 50.090,28.290 50.540,28.370 50.840,28.700 50.870,29.160 50.890,29.560 50.610,29.910 50.180,30.020 49.980,30.070 49.770,30.070 49.560,30.070 49.440,30.070 49.400,30.110 49.400,30.240 49.410,31.120 49.420,32.000 49.420,32.880 49.420,33.040 49.480,33.070 49.620,33.050 49.730,33.040 49.840,33.040 49.950,33.030 50.510,33.000 50.920,33.320 50.960,33.820 50.990,34.300 50.590,34.760 50.080,34.820 49.940,34.840 49.790,34.850 49.650,34.850 49.540,34.850 49.490,34.880 49.490,35.010 49.490,35.740 49.480,36.460 49.470,37.190 49.470,37.330 49.510,37.370 49.650,37.360 50.070,37.350 50.490,37.340 50.910,37.350 51.540,37.360 52.070,37.710 52.260,38.240 52.460,38.820 52.270,39.450 51.770,39.850 51.490,40.070 51.170,40.140 50.830,40.140 49.880,40.140 48.930,40.140 47.980,40.140 47.950,40.180 47.950,40.180 47.950,40.180 Z " />
  <path stroke="none" fill="#fcfcfcff" d="M 70.900,66.040 C 69.910,66.140 69.430,64.870 69.820,64.170 70.030,63.780 70.260,63.390 70.490,63.010 70.580,62.870 70.590,62.800 70.420,62.700 69.800,62.350 69.200,61.980 68.590,61.610 68.480,61.540 68.430,61.560 68.360,61.660 68.270,61.800 68.180,61.940 68.070,62.070 67.770,62.440 67.240,62.520 66.860,62.270 66.490,62.020 66.370,61.500 66.590,61.070 66.670,60.910 66.890,60.770 66.820,60.610 66.750,60.470 66.530,60.410 66.370,60.310 65.740,59.940 65.120,59.570 64.500,59.190 64.360,59.100 64.290,59.120 64.210,59.260 64.070,59.510 63.900,59.720 63.640,59.860 63.330,60.020 63.020,60.040 62.740,59.830 62.440,59.610 62.340,59.300 62.380,58.940 62.410,58.700 62.520,58.500 62.660,58.310 62.740,58.210 62.730,58.160 62.620,58.090 61.850,57.640 61.090,57.190 60.330,56.730 60.230,56.670 60.180,56.690 60.130,56.780 60.070,56.880 60.000,56.980 59.930,57.080 59.630,57.530 59.140,57.680 58.710,57.450 58.300,57.240 58.140,56.720 58.330,56.240 58.360,56.170 58.400,56.100 58.440,56.030 58.620,55.740 58.620,55.740 58.340,55.570 57.780,55.240 57.230,54.910 56.680,54.570 56.530,54.480 56.470,54.510 56.400,54.650 56.190,55.030 55.960,55.410 55.740,55.790 55.350,56.440 54.530,56.670 53.910,56.290 53.300,55.920 52.970,55.050 53.370,54.370 54.340,52.750 55.270,51.110 56.220,49.480 56.640,48.750 57.400,48.510 58.120,48.850 58.790,49.160 59.080,49.960 58.740,50.660 58.530,51.080 58.280,51.480 58.030,51.880 57.950,52.010 57.970,52.060 58.100,52.130 58.740,52.480 59.370,52.840 60.000,53.200 60.100,53.260 60.150,53.250 60.210,53.150 60.290,53.010 60.380,52.880 60.480,52.750 60.750,52.400 61.240,52.270 61.620,52.430 61.970,52.570 62.180,52.950 62.130,53.350 62.100,53.620 61.930,53.820 61.780,54.020 61.660,54.180 61.700,54.250 61.860,54.340 62.560,54.750 63.270,55.150 63.960,55.580 64.160,55.700 64.280,55.720 64.390,55.490 64.460,55.350 64.560,55.220 64.670,55.100 65.020,54.730 65.510,54.690 65.870,55.000 66.250,55.320 66.310,55.840 66.020,56.250 65.820,56.530 65.820,56.530 66.120,56.700 66.810,57.110 67.500,57.510 68.180,57.930 68.310,58.010 68.380,58.000 68.460,57.870 68.540,57.740 68.620,57.610 68.720,57.500 69.030,57.130 69.600,57.050 69.980,57.320 70.350,57.580 70.440,58.130 70.200,58.550 69.960,58.960 69.970,58.950 70.370,59.200 70.880,59.500 71.390,59.800 71.890,60.110 72.070,60.220 72.130,60.190 72.220,60.020 72.410,59.660 72.630,59.320 72.840,58.970 73.280,58.240 74.070,58.050 74.800,58.480 75.430,58.860 75.620,59.670 75.210,60.370 74.560,61.490 73.910,62.610 73.260,63.730 72.980,64.210 72.690,64.670 72.430,65.160 72.080,65.810 71.570,66.040 70.900,66.040 Z " />
  <path stroke="none" fill="#fcfcfcff" d="M 43.300,54.850 C 43.300,55.510 42.940,56.030 42.390,56.220 41.850,56.400 41.150,56.180 40.810,55.700 40.520,55.300 40.260,54.870 40.000,54.450 39.920,54.320 39.860,54.310 39.740,54.390 39.150,54.740 38.550,55.090 37.950,55.420 37.800,55.500 37.780,55.570 37.870,55.710 38.080,56.000 38.190,56.310 38.070,56.680 37.830,57.370 37.050,57.530 36.560,56.990 36.530,56.950 36.500,56.920 36.470,56.880 36.370,56.740 36.340,56.510 36.200,56.480 36.050,56.450 35.890,56.620 35.740,56.710 35.090,57.080 34.450,57.460 33.810,57.820 33.660,57.910 33.620,57.970 33.730,58.120 33.890,58.340 33.990,58.580 33.960,58.860 33.920,59.250 33.640,59.600 33.300,59.690 32.960,59.780 32.490,59.560 32.270,59.220 32.030,58.850 32.030,58.850 31.640,59.080 30.980,59.460 30.330,59.850 29.660,60.210 29.480,60.310 29.470,60.390 29.580,60.550 29.730,60.750 29.820,60.980 29.800,61.240 29.770,61.630 29.480,62.000 29.130,62.090 28.800,62.170 28.330,61.960 28.120,61.640 27.870,61.260 27.870,61.260 27.480,61.480 26.950,61.790 26.420,62.100 25.880,62.400 25.740,62.480 25.740,62.530 25.820,62.650 26.050,63.030 26.280,63.420 26.490,63.810 26.800,64.380 26.690,65.090 26.240,65.530 25.820,65.940 25.150,66.030 24.620,65.730 24.390,65.600 24.220,65.420 24.090,65.190 23.120,63.510 22.150,61.830 21.180,60.150 20.780,59.460 20.990,58.640 21.650,58.250 22.300,57.870 23.170,58.090 23.580,58.760 23.810,59.140 24.040,59.530 24.250,59.920 24.330,60.070 24.390,60.060 24.520,59.990 25.080,59.660 25.650,59.330 26.220,59.000 26.520,58.830 26.520,58.830 26.350,58.540 26.260,58.400 26.210,58.250 26.190,58.090 26.130,57.640 26.320,57.280 26.700,57.140 27.120,56.980 27.590,57.120 27.830,57.470 27.830,57.480 27.840,57.480 27.840,57.490 27.940,57.620 27.960,57.860 28.120,57.870 28.250,57.880 28.400,57.730 28.530,57.650 29.180,57.270 29.830,56.890 30.490,56.530 30.650,56.440 30.670,56.360 30.560,56.220 30.420,56.020 30.340,55.800 30.340,55.550 30.340,55.110 30.530,54.820 30.910,54.710 31.310,54.590 31.750,54.730 31.980,55.050 31.990,55.070 32.010,55.090 32.020,55.110 32.260,55.500 32.260,55.500 32.670,55.260 33.330,54.880 33.980,54.490 34.650,54.120 34.810,54.030 34.850,53.960 34.740,53.800 34.560,53.550 34.440,53.270 34.520,52.950 34.600,52.580 34.820,52.320 35.170,52.260 35.550,52.200 35.880,52.300 36.130,52.610 36.140,52.620 36.150,52.640 36.160,52.650 36.260,52.790 36.290,53.040 36.450,53.060 36.580,53.080 36.740,52.920 36.890,52.840 37.370,52.570 37.840,52.280 38.330,52.020 38.500,51.930 38.560,51.860 38.440,51.660 38.210,51.250 37.990,50.830 37.800,50.400 37.480,49.690 37.800,48.860 38.470,48.550 39.100,48.270 39.900,48.520 40.280,49.170 41.240,50.820 42.190,52.480 43.150,54.130 43.250,54.370 43.320,54.620 43.300,54.850 Z " />
  <path stroke="none" fill="#fdfdfdff" d="M 44.970,48.040 C 44.970,46.410 46.350,45.050 48.020,45.040 49.610,45.040 51.000,46.410 50.990,48.010 50.970,49.940 49.520,51.060 47.980,51.070 46.330,51.090 44.980,49.710 44.970,48.040 Z " />
  <path stroke="none" fill="#fbfbfbff" d="M 56.580,62.370 C 51.000,65.880 44.010,65.440 39.200,62.370 39.690,62.090 40.170,61.810 40.650,61.530 40.760,61.460 40.830,61.540 40.910,61.580 42.200,62.220 43.530,62.740 44.930,63.010 48.410,63.690 51.740,63.210 54.890,61.590 55.090,61.490 55.220,61.490 55.400,61.620 55.760,61.870 56.140,62.090 56.510,62.320 56.540,62.340 56.550,62.350 56.580,62.370 Z " />
  <path stroke="none" fill="#fbfbfbff" d="M 39.900,33.440 C 39.920,34.000 39.930,34.520 39.950,35.050 39.960,35.200 39.830,35.230 39.740,35.280 38.080,36.320 36.680,37.640 35.540,39.230 33.920,41.510 33.000,44.040 32.780,46.830 32.770,46.930 32.740,47.040 32.750,47.140 32.810,47.520 32.630,47.730 32.290,47.890 31.920,48.060 31.570,48.300 31.170,48.530 31.120,45.950 31.600,43.510 32.660,41.190 34.200,37.820 36.620,35.250 39.900,33.440 Z " />
  <path stroke="none" fill="#fbfbfbff" d="M 64.690,48.590 C 64.210,48.290 63.790,48.020 63.360,47.760 63.250,47.700 63.240,47.610 63.230,47.500 63.160,45.870 62.830,44.300 62.260,42.780 61.610,41.050 60.670,39.490 59.460,38.090 58.490,36.970 57.390,36.020 56.140,35.220 56.040,35.150 55.980,35.090 55.980,34.960 55.990,34.470 55.980,33.970 55.980,33.460 58.330,34.740 60.300,36.470 61.810,38.710 63.820,41.670 64.790,44.950 64.690,48.590 Z " />
</svg>