<?xml version="1.0" encoding="UTF-8" standalone="no"?>
<!DOCTYPE svg PUBLIC "-//W3C//DTD SVG 20010904//EN" "http://www.w3.org/TR/2001/REC-SVG-20010904/DTD/svg10.dtd"[]>
<svg version="1.1" id="Frosty Editor v1.0.6.3" xmlns="http://www.w3.org/2000/svg" d1p1:xlink="http://www.w3.org/1999/xlink" viewBox="0 0 96 96" xmlns:d1p1="xmlns">
  <path stroke="none" fill="none" d="M 48.050,96.050 C 32.120,96.050 16.190,96.050 0.270,96.050 0.090,96.050 0.050,96.010 0.050,95.830 0.050,63.970 0.050,32.120 0.050,0.260 0.050,0.080 0.090,0.040 0.270,0.040 32.130,0.040 63.980,0.040 95.840,0.040 96.020,0.040 96.060,0.080 96.060,0.260 96.060,32.120 96.060,63.970 96.060,95.830 96.060,96.010 96.020,96.050 95.840,96.050 79.900,96.050 63.980,96.050 48.050,96.050 Z M 80.500,19.250 C 80.490,19.240 80.480,19.240 80.470,19.230 80.470,19.240 80.470,19.240 80.470,19.250 80.480,19.250 80.490,19.240 80.500,19.250 80.450,19.340 80.540,19.400 80.580,19.460 82.060,21.910 83.540,24.370 85.020,26.820 85.060,26.890 85.080,26.980 85.180,27.010 85.500,25.970 85.820,24.940 86.140,23.910 86.180,23.780 86.170,23.690 86.100,23.580 85.460,22.530 84.810,21.490 84.200,20.420 83.970,20.010 83.690,19.800 83.220,19.740 82.300,19.610 81.400,19.410 80.500,19.250 Z M 28.270,61.410 C 28.320,61.380 28.360,61.360 28.400,61.330 28.760,61.110 29.120,60.890 29.490,60.670 42.750,52.670 56.010,44.670 69.270,36.670 69.420,36.580 69.460,36.530 69.360,36.360 67.840,33.850 66.320,31.330 64.810,28.810 64.730,28.680 64.670,28.670 64.550,28.750 64.010,29.090 63.460,29.410 62.910,29.740 49.850,37.640 36.780,45.520 23.710,53.400 23.540,53.500 23.490,53.560 23.610,53.750 24.510,55.220 25.400,56.700 26.290,58.180 26.910,59.210 27.530,60.230 28.150,61.260 28.180,61.310 28.200,61.390 28.270,61.410 Z M 85.040,56.770 C 85.350,56.770 85.660,56.760 85.980,56.770 86.150,56.780 86.220,56.740 86.210,56.550 86.190,56.260 86.190,55.960 86.210,55.660 86.220,55.470 86.150,55.440 85.980,55.440 85.360,55.450 84.730,55.440 84.110,55.450 83.960,55.450 83.910,55.420 83.900,55.260 83.830,54.400 83.680,53.540 83.370,52.740 81.790,48.650 78.820,46.330 74.470,45.810 74.280,45.790 74.260,45.720 74.260,45.560 74.270,44.940 74.260,44.310 74.270,43.690 74.270,43.530 74.230,43.480 74.070,43.490 73.770,43.500 73.460,43.500 73.160,43.490 72.990,43.480 72.940,43.530 72.950,43.700 72.960,44.320 72.950,44.930 72.960,45.550 72.960,45.720 72.940,45.790 72.740,45.810 71.050,45.950 69.480,46.460 68.070,47.400 65.250,49.260 63.660,51.890 63.320,55.250 63.300,55.420 63.250,55.460 63.090,55.450 62.470,55.440 61.840,55.450 61.220,55.440 61.060,55.440 60.990,55.470 61.000,55.650 61.020,55.950 61.020,56.260 61.000,56.560 60.990,56.740 61.060,56.770 61.220,56.770 61.840,56.760 62.470,56.770 63.090,56.760 63.250,56.760 63.300,56.790 63.320,56.960 63.460,58.650 63.970,60.230 64.910,61.650 66.770,64.460 69.380,66.050 72.740,66.400 72.940,66.420 72.960,66.490 72.960,66.660 72.950,67.280 72.960,67.910 72.950,68.530 72.950,68.680 72.990,68.720 73.140,68.720 73.450,68.710 73.760,68.710 74.080,68.720 74.240,68.730 74.280,68.680 74.280,68.520 74.270,67.900 74.280,67.290 74.270,66.670 74.270,66.490 74.300,66.420 74.500,66.400 77.950,66.040 80.610,64.380 82.450,61.440 83.310,60.070 83.770,58.560 83.910,56.950 83.920,56.790 83.980,56.760 84.120,56.760 84.410,56.780 84.720,56.770 85.040,56.770 Z M 14.030,70.000 C 14.070,69.980 14.120,69.950 14.160,69.930 17.890,67.680 21.620,65.430 25.350,63.180 25.460,63.110 25.490,63.070 25.410,62.950 23.880,60.420 22.350,57.900 20.830,55.370 20.750,55.240 20.700,55.220 20.560,55.300 16.840,57.550 13.120,59.800 9.390,62.040 9.260,62.120 9.230,62.170 9.320,62.310 9.860,63.190 10.400,64.090 10.930,64.980 11.910,66.600 12.890,68.220 13.870,69.840 13.920,69.900 13.930,69.990 14.030,70.000 Z M 62.930,29.340 C 62.990,29.310 63.030,29.290 63.070,29.260 68.650,25.890 74.230,22.520 79.820,19.160 79.970,19.070 79.960,19.010 79.880,18.870 79.310,17.930 78.730,16.990 78.180,16.040 78.070,15.840 77.990,15.820 77.800,15.940 72.620,19.080 67.430,22.200 62.240,25.330 61.780,25.610 61.770,25.610 61.950,26.130 62.020,26.320 61.970,26.400 61.800,26.500 56.080,29.950 50.360,33.400 44.640,36.850 44.470,36.950 44.280,37.140 44.130,37.120 43.960,37.100 43.910,36.810 43.800,36.650 43.800,36.640 43.790,36.640 43.790,36.630 43.750,36.530 43.700,36.510 43.600,36.570 43.240,36.800 42.870,37.020 42.490,37.240 42.380,37.310 42.380,37.360 42.440,37.460 43.040,38.450 43.640,39.440 44.240,40.430 44.300,40.530 44.340,40.570 44.450,40.490 44.810,40.260 45.170,40.040 45.540,39.830 45.660,39.760 45.660,39.700 45.590,39.590 45.320,39.160 45.070,38.710 44.790,38.280 44.660,38.090 44.710,38.010 44.890,37.910 50.640,34.450 56.390,30.980 62.130,27.510 62.200,27.470 62.250,27.410 62.340,27.410 62.540,28.070 62.730,28.700 62.930,29.340 Z M 80.140,19.360 C 80.080,19.390 80.030,19.430 79.970,19.460 75.040,22.430 70.110,25.410 65.180,28.370 64.970,28.490 64.980,28.580 65.090,28.760 66.590,31.230 68.080,33.700 69.570,36.180 69.680,36.370 69.760,36.380 69.940,36.270 74.860,33.300 79.780,30.330 84.700,27.360 84.870,27.260 84.910,27.200 84.800,27.010 84.060,25.810 83.330,24.590 82.600,23.380 81.820,22.090 81.040,20.800 80.260,19.510 80.230,19.460 80.220,19.380 80.140,19.360 Z M 22.260,65.440 C 22.170,65.490 22.090,65.540 22.010,65.580 19.820,66.900 17.640,68.220 15.450,69.540 15.090,69.760 15.100,69.750 15.310,70.120 15.390,70.260 15.450,70.280 15.590,70.190 16.530,69.610 17.480,69.050 18.410,68.480 18.540,68.400 18.600,68.410 18.680,68.540 18.830,68.810 18.990,69.080 19.160,69.340 19.280,69.510 19.270,69.600 19.080,69.710 18.150,70.260 17.230,70.820 16.310,71.370 16.170,71.460 16.140,71.520 16.240,71.660 16.410,71.920 16.580,72.180 16.720,72.460 16.810,72.630 16.870,72.670 17.060,72.560 17.970,71.990 18.910,71.450 19.820,70.880 19.990,70.780 20.050,70.810 20.140,70.960 20.290,71.230 20.450,71.500 20.620,71.760 20.720,71.910 20.710,71.980 20.540,72.080 19.610,72.630 18.680,73.200 17.750,73.750 17.590,73.840 17.580,73.910 17.680,74.060 17.870,74.340 18.050,74.640 18.210,74.940 18.290,75.080 18.350,75.080 18.480,75.000 19.410,74.430 20.340,73.880 21.260,73.310 21.450,73.190 21.520,73.230 21.610,73.400 21.750,73.670 21.900,73.930 22.080,74.180 22.200,74.350 22.150,74.410 22.000,74.500 21.060,75.060 20.130,75.630 19.190,76.190 19.080,76.250 19.030,76.290 19.120,76.430 19.870,77.650 20.600,78.870 21.340,80.100 21.430,80.250 21.480,80.250 21.620,80.170 22.740,79.480 23.870,78.800 25.000,78.130 25.130,78.050 25.160,77.980 25.130,77.830 24.710,76.050 24.300,74.270 23.890,72.490 23.350,70.150 22.810,67.810 22.260,65.440 Z M 55.860,50.980 C 55.800,51.020 55.740,51.070 55.680,51.100 54.980,51.530 54.270,51.950 53.570,52.370 53.440,52.450 53.400,52.500 53.500,52.640 53.700,52.940 53.880,53.250 54.060,53.560 54.120,53.670 54.170,53.700 54.290,53.630 55.450,52.920 56.610,52.220 57.780,51.530 57.900,51.460 57.930,51.410 57.850,51.280 56.790,49.540 55.740,47.800 54.690,46.050 54.610,45.920 54.560,45.900 54.420,45.980 51.930,47.490 49.430,48.990 46.940,50.490 46.800,50.570 46.800,50.630 46.880,50.760 48.200,52.930 49.510,55.100 50.810,57.280 50.890,57.420 50.950,57.440 51.090,57.350 51.810,56.900 52.530,56.470 53.260,56.040 53.430,55.940 53.440,55.870 53.340,55.700 52.170,53.780 51.010,51.850 49.840,49.920 49.760,49.790 49.760,49.730 49.900,49.640 51.110,48.920 52.320,48.190 53.530,47.450 53.640,47.380 53.700,47.370 53.780,47.500 54.440,48.610 55.110,49.720 55.780,50.820 55.800,50.880 55.830,50.920 55.860,50.980 Z M 29.350,48.660 C 29.230,48.460 29.120,48.280 29.010,48.090 28.750,47.650 28.750,47.660 28.310,47.930 28.190,48.010 28.190,48.060 28.260,48.160 28.350,48.290 28.430,48.430 28.510,48.570 28.770,49.010 28.770,49.000 28.340,49.260 28.230,49.330 28.180,49.340 28.110,49.210 27.970,48.960 27.810,48.720 27.670,48.470 27.620,48.380 27.580,48.370 27.490,48.420 27.080,48.680 26.660,48.930 26.240,49.180 26.160,49.230 26.150,49.280 26.150,49.370 26.150,50.010 26.140,50.650 26.140,51.290 26.140,51.360 26.100,51.450 26.160,51.490 26.240,51.540 26.300,51.450 26.370,51.410 30.310,49.030 34.250,46.660 38.200,44.280 38.460,44.120 38.720,43.960 39.010,43.790 38.360,43.450 37.750,43.140 37.130,42.810 37.000,42.740 36.910,42.750 36.790,42.820 34.750,44.060 32.710,45.290 30.660,46.520 30.500,46.620 30.500,46.690 30.600,46.820 30.690,46.930 30.750,47.060 30.830,47.190 31.100,47.630 31.090,47.630 30.640,47.900 30.520,47.970 30.490,47.930 30.430,47.840 30.290,47.590 30.130,47.350 29.990,47.100 29.940,47.010 29.900,47.000 29.810,47.050 29.330,47.310 29.330,47.310 29.610,47.770 29.610,47.780 29.620,47.780 29.620,47.790 29.720,47.970 29.950,48.160 29.890,48.320 29.810,48.460 29.550,48.540 29.350,48.660 Z M 10.290,61.110 C 13.550,59.150 16.770,57.200 20.010,55.240 19.430,54.850 18.880,54.480 18.330,54.100 18.230,54.030 18.170,54.050 18.080,54.100 15.450,55.690 12.820,57.280 10.190,58.860 10.090,58.920 10.050,58.980 10.070,59.110 10.150,59.760 10.220,60.410 10.290,61.110 Z M 23.260,53.680 C 23.230,53.700 23.190,53.720 23.160,53.740 22.720,54.010 22.270,54.280 21.830,54.540 21.710,54.610 21.700,54.660 21.770,54.770 23.300,57.300 24.830,59.840 26.350,62.370 26.430,62.510 26.490,62.490 26.610,62.420 27.030,62.160 27.450,61.900 27.880,61.650 28.030,61.570 28.040,61.510 27.950,61.370 27.280,60.270 26.610,59.160 25.940,58.050 25.090,56.640 24.240,55.240 23.390,53.830 23.350,53.780 23.340,53.700 23.260,53.680 Z M 9.050,62.300 C 8.810,63.350 8.590,64.350 8.360,65.350 8.340,65.440 8.380,65.490 8.410,65.550 9.140,66.750 9.860,67.960 10.590,69.160 10.630,69.230 10.670,69.290 10.780,69.320 11.310,69.450 11.830,69.600 12.350,69.740 12.800,69.860 13.250,69.990 13.760,70.130 12.190,67.490 10.640,64.920 9.050,62.300 Z M 21.450,54.770 C 21.380,54.810 21.300,54.860 21.230,54.910 20.940,55.080 20.940,55.080 21.120,55.370 22.580,57.790 24.040,60.210 25.500,62.630 25.710,62.970 25.700,62.960 26.060,62.760 26.220,62.670 26.230,62.610 26.130,62.460 25.560,61.540 25.000,60.600 24.440,59.680 23.490,58.100 22.540,56.520 21.580,54.940 21.550,54.880 21.530,54.800 21.450,54.770 Z " />
  <path stroke="none" fill="#fefefeff" d="M 28.270,61.410 C 28.200,61.380 28.180,61.310 28.150,61.260 27.530,60.230 26.910,59.210 26.290,58.180 25.400,56.700 24.510,55.220 23.610,53.750 23.490,53.560 23.540,53.500 23.710,53.400 36.780,45.520 49.850,37.640 62.920,29.750 63.470,29.420 64.010,29.090 64.560,28.760 64.680,28.690 64.740,28.690 64.820,28.820 66.330,31.340 67.850,33.860 69.370,36.370 69.470,36.540 69.430,36.590 69.280,36.680 56.020,44.680 42.760,52.680 29.500,60.680 29.140,60.900 28.780,61.120 28.410,61.340 28.360,61.360 28.320,61.380 28.270,61.410 Z " />
  <path stroke="none" fill="#fbfbfbff" d="M 85.040,56.770 C 84.730,56.770 84.420,56.780 84.100,56.770 83.950,56.770 83.900,56.800 83.890,56.960 83.750,58.570 83.290,60.080 82.430,61.450 80.580,64.390 77.930,66.050 74.480,66.410 74.270,66.430 74.240,66.500 74.250,66.680 74.260,67.300 74.250,67.910 74.260,68.530 74.260,68.690 74.220,68.740 74.060,68.730 73.750,68.720 73.440,68.720 73.120,68.730 72.970,68.730 72.930,68.690 72.930,68.540 72.940,67.920 72.930,67.290 72.940,66.670 72.940,66.500 72.920,66.430 72.720,66.410 69.360,66.070 66.740,64.480 64.890,61.660 63.950,60.240 63.440,58.660 63.300,56.970 63.290,56.800 63.230,56.770 63.070,56.770 62.450,56.780 61.820,56.770 61.200,56.780 61.040,56.780 60.970,56.750 60.980,56.570 61.000,56.270 61.000,55.960 60.980,55.660 60.970,55.480 61.040,55.450 61.200,55.450 61.820,55.460 62.450,55.450 63.070,55.460 63.230,55.460 63.280,55.420 63.300,55.260 63.640,51.890 65.230,49.270 68.050,47.410 69.460,46.480 71.030,45.970 72.720,45.820 72.920,45.800 72.940,45.730 72.940,45.560 72.930,44.940 72.940,44.330 72.930,43.710 72.930,43.540 72.980,43.490 73.140,43.500 73.440,43.510 73.750,43.510 74.050,43.500 74.210,43.490 74.250,43.540 74.250,43.700 74.240,44.320 74.250,44.950 74.240,45.570 74.240,45.730 74.260,45.790 74.450,45.820 78.810,46.340 81.770,48.660 83.350,52.750 83.660,53.560 83.820,54.410 83.880,55.270 83.890,55.430 83.950,55.460 84.090,55.460 84.710,55.450 85.340,55.460 85.960,55.450 86.130,55.450 86.200,55.480 86.190,55.670 86.170,55.960 86.170,56.260 86.190,56.560 86.200,56.750 86.130,56.790 85.960,56.780 85.660,56.760 85.350,56.770 85.040,56.770 Z M 80.970,56.770 C 80.480,56.770 79.990,56.770 79.510,56.770 79.380,56.770 79.320,56.790 79.300,56.940 78.930,59.480 76.970,61.440 74.420,61.820 74.280,61.840 74.250,61.890 74.250,62.010 74.250,62.990 74.260,63.960 74.250,64.940 74.250,65.100 74.300,65.120 74.440,65.100 75.100,65.040 75.730,64.900 76.360,64.700 79.760,63.610 82.300,60.450 82.580,56.980 82.590,56.810 82.560,56.760 82.390,56.770 81.910,56.780 81.440,56.770 80.970,56.770 Z M 66.210,55.450 C 66.700,55.450 67.190,55.450 67.670,55.450 67.790,55.450 67.850,55.440 67.870,55.290 68.270,52.700 70.170,50.800 72.760,50.400 72.880,50.380 72.920,50.340 72.920,50.220 72.920,49.240 72.910,48.250 72.920,47.270 72.920,47.130 72.880,47.100 72.740,47.120 71.720,47.210 70.740,47.460 69.820,47.910 66.770,49.410 65.010,51.850 64.590,55.230 64.570,55.410 64.600,55.460 64.790,55.460 65.270,55.440 65.740,55.450 66.210,55.450 Z M 80.930,55.450 C 81.400,55.450 81.870,55.440 82.350,55.450 82.530,55.450 82.600,55.430 82.570,55.220 82.460,54.220 82.230,53.250 81.780,52.350 80.270,49.290 77.830,47.530 74.440,47.120 74.280,47.100 74.240,47.140 74.240,47.300 74.250,48.270 74.250,49.240 74.240,50.200 74.240,50.340 74.280,50.380 74.420,50.400 76.930,50.760 78.920,52.750 79.280,55.270 79.300,55.420 79.350,55.450 79.490,55.450 79.980,55.450 80.460,55.450 80.930,55.450 Z M 72.920,63.490 C 72.920,63.010 72.910,62.530 72.920,62.050 72.920,61.890 72.890,61.840 72.720,61.810 70.230,61.450 68.230,59.440 67.870,56.950 67.850,56.810 67.820,56.760 67.670,56.760 66.690,56.770 65.720,56.770 64.740,56.760 64.570,56.760 64.570,56.830 64.580,56.960 64.670,57.890 64.880,58.790 65.270,59.640 66.740,62.830 69.220,64.660 72.710,65.100 72.890,65.120 72.920,65.070 72.920,64.910 72.920,64.430 72.920,63.960 72.920,63.490 Z M 73.040,52.440 C 73.040,52.630 73.030,52.780 73.040,52.930 73.050,53.040 73.020,53.100 72.900,53.130 71.680,53.440 70.900,54.210 70.560,55.420 70.530,55.520 70.490,55.560 70.380,55.560 70.100,55.550 69.820,55.560 69.540,55.560 69.420,55.560 69.370,55.590 69.370,55.720 69.380,55.950 69.380,56.180 69.370,56.420 69.360,56.570 69.420,56.590 69.550,56.590 69.810,56.580 70.080,56.590 70.340,56.590 70.450,56.590 70.490,56.620 70.510,56.730 70.770,58.070 71.590,58.900 72.890,59.270 73.020,59.310 73.050,59.360 73.040,59.480 73.030,59.730 73.040,59.980 73.040,60.220 73.040,60.340 73.070,60.390 73.200,60.390 73.490,60.380 73.780,60.380 74.060,60.390 74.200,60.390 74.220,60.340 74.210,60.220 74.200,59.980 74.220,59.740 74.210,59.500 74.200,59.360 74.240,59.300 74.390,59.260 75.690,58.900 76.480,58.050 76.750,56.730 76.770,56.620 76.810,56.590 76.920,56.590 77.170,56.600 77.420,56.590 77.660,56.590 77.760,56.590 77.830,56.580 77.820,56.450 77.810,56.200 77.810,55.950 77.820,55.710 77.820,55.580 77.760,55.570 77.660,55.570 77.420,55.570 77.180,55.560 76.940,55.580 76.780,55.590 76.730,55.530 76.690,55.380 76.390,54.370 75.730,53.670 74.760,53.270 74.590,53.200 74.320,53.230 74.250,53.070 74.170,52.910 74.230,52.680 74.230,52.480 74.230,52.300 74.290,52.050 74.200,51.950 74.090,51.830 73.840,51.910 73.650,51.910 73.460,51.910 73.210,51.830 73.100,51.940 72.960,52.040 73.050,52.290 73.040,52.440 Z " />
  <path stroke="none" fill="#fefefeff" d="M 14.030,70.000 C 13.930,69.990 13.920,69.900 13.880,69.830 12.900,68.210 11.920,66.590 10.940,64.970 10.400,64.080 9.870,63.190 9.330,62.300 9.240,62.160 9.270,62.110 9.400,62.030 13.120,59.790 16.850,57.540 20.570,55.290 20.710,55.210 20.760,55.230 20.840,55.360 22.360,57.890 23.890,60.420 25.420,62.940 25.490,63.060 25.470,63.100 25.360,63.170 21.630,65.420 17.900,67.670 14.170,69.920 14.120,69.950 14.080,69.980 14.030,70.000 Z " />
  <path stroke="none" fill="#fefefeff" d="M 62.930,29.340 C 62.730,28.700 62.540,28.070 62.340,27.440 62.250,27.440 62.190,27.500 62.130,27.540 56.380,31.010 50.640,34.470 44.890,37.940 44.710,38.050 44.660,38.120 44.790,38.310 45.070,38.740 45.320,39.180 45.590,39.620 45.660,39.730 45.660,39.790 45.540,39.860 45.170,40.070 44.810,40.290 44.450,40.520 44.330,40.590 44.290,40.560 44.240,40.460 43.640,39.470 43.050,38.480 42.440,37.490 42.380,37.380 42.380,37.330 42.490,37.270 42.860,37.050 43.230,36.830 43.600,36.600 43.700,36.530 43.750,36.550 43.790,36.660 43.790,36.670 43.800,36.670 43.800,36.680 43.920,36.840 43.960,37.130 44.130,37.150 44.290,37.170 44.470,36.980 44.640,36.880 50.360,33.430 56.080,29.980 61.800,26.530 61.960,26.430 62.010,26.350 61.950,26.160 61.770,25.640 61.780,25.640 62.240,25.360 67.430,22.230 72.610,19.100 77.800,15.970 78.000,15.850 78.070,15.870 78.180,16.070 78.740,17.020 79.310,17.960 79.880,18.900 79.960,19.030 79.970,19.090 79.820,19.190 74.230,22.550 68.650,25.920 63.070,29.290 63.030,29.290 62.990,29.310 62.930,29.340 Z " />
  <path stroke="none" fill="#fbfbfbff" d="M 80.140,19.360 C 80.220,19.380 80.240,19.460 80.270,19.520 81.050,20.810 81.830,22.100 82.610,23.390 83.340,24.600 84.060,25.810 84.810,27.020 84.930,27.210 84.880,27.270 84.710,27.370 79.790,30.340 74.870,33.310 69.950,36.280 69.770,36.390 69.700,36.380 69.580,36.190 68.090,33.710 66.600,31.240 65.100,28.770 64.990,28.580 64.980,28.500 65.190,28.380 70.120,25.410 75.050,22.440 79.980,19.470 80.030,19.430 80.080,19.390 80.140,19.360 Z M 68.680,32.940 C 68.740,32.910 68.790,32.870 68.850,32.840 69.760,32.290 70.670,31.740 71.580,31.200 75.150,29.050 78.710,26.890 82.280,24.750 82.450,24.650 82.500,24.590 82.380,24.400 82.070,23.930 81.780,23.440 81.500,22.940 81.390,22.740 81.300,22.750 81.120,22.860 77.520,25.040 73.910,27.220 70.300,29.390 69.430,29.920 68.550,30.450 67.670,30.970 67.540,31.040 67.500,31.100 67.590,31.240 67.910,31.750 68.220,32.280 68.540,32.790 68.580,32.850 68.590,32.930 68.680,32.940 Z M 66.690,29.710 C 66.760,29.670 66.820,29.630 66.880,29.590 70.020,27.690 73.170,25.800 76.310,23.900 77.650,23.090 78.990,22.280 80.330,21.480 80.500,21.380 80.510,21.310 80.410,21.150 80.190,20.830 79.990,20.490 79.800,20.150 79.710,19.990 79.650,19.990 79.500,20.080 78.340,20.790 77.160,21.490 76.000,22.200 72.670,24.210 69.340,26.220 66.010,28.220 65.870,28.300 65.840,28.350 65.930,28.500 66.160,28.850 66.370,29.220 66.590,29.580 66.630,29.620 66.660,29.660 66.690,29.710 Z M 70.340,35.690 C 70.380,35.670 70.420,35.640 70.460,35.620 74.980,32.890 79.500,30.170 84.020,27.450 84.160,27.370 84.140,27.310 84.070,27.200 83.850,26.850 83.630,26.500 83.430,26.130 83.350,25.980 83.290,25.980 83.150,26.060 79.970,27.980 76.790,29.900 73.620,31.820 72.300,32.620 70.980,33.410 69.660,34.210 69.550,34.270 69.450,34.310 69.560,34.470 69.800,34.840 70.020,35.220 70.250,35.590 70.260,35.630 70.270,35.690 70.340,35.690 Z " />
  <path stroke="none" fill="#fefefeff" d="M 22.260,65.440 C 22.810,67.810 23.350,70.150 23.890,72.490 24.300,74.270 24.720,76.050 25.130,77.830 25.160,77.980 25.130,78.050 25.000,78.130 23.870,78.800 22.740,79.480 21.620,80.170 21.480,80.260 21.420,80.250 21.340,80.100 20.610,78.870 19.870,77.650 19.120,76.430 19.030,76.290 19.090,76.250 19.190,76.190 20.130,75.630 21.060,75.060 22.000,74.500 22.150,74.410 22.200,74.340 22.080,74.180 21.900,73.930 21.750,73.670 21.610,73.400 21.520,73.220 21.450,73.190 21.260,73.310 20.340,73.880 19.400,74.430 18.480,75.000 18.350,75.080 18.290,75.080 18.210,74.940 18.050,74.640 17.870,74.340 17.680,74.060 17.580,73.910 17.590,73.850 17.750,73.750 18.680,73.200 19.610,72.630 20.540,72.080 20.700,71.980 20.720,71.910 20.620,71.760 20.450,71.500 20.290,71.230 20.140,70.960 20.050,70.800 19.990,70.770 19.820,70.880 18.900,71.450 17.970,71.990 17.060,72.560 16.870,72.680 16.810,72.640 16.720,72.460 16.570,72.190 16.410,71.920 16.240,71.660 16.140,71.520 16.170,71.460 16.310,71.370 17.240,70.820 18.150,70.250 19.080,69.710 19.280,69.600 19.280,69.510 19.160,69.340 18.980,69.080 18.830,68.810 18.680,68.540 18.600,68.400 18.550,68.390 18.410,68.480 17.470,69.060 16.520,69.620 15.590,70.190 15.450,70.280 15.390,70.270 15.310,70.120 15.100,69.750 15.090,69.760 15.450,69.540 17.640,68.220 19.820,66.900 22.010,65.580 22.090,65.530 22.170,65.490 22.260,65.440 Z " />
  <path stroke="none" fill="#fbfbfbff" d="M 55.860,50.980 C 55.830,50.930 55.800,50.890 55.780,50.850 55.110,49.740 54.440,48.640 53.780,47.530 53.700,47.390 53.650,47.410 53.530,47.480 52.320,48.210 51.110,48.940 49.900,49.670 49.760,49.750 49.760,49.820 49.840,49.950 51.010,51.870 52.170,53.800 53.340,55.730 53.440,55.900 53.430,55.970 53.260,56.070 52.530,56.500 51.810,56.940 51.090,57.380 50.950,57.470 50.890,57.450 50.810,57.310 49.500,55.130 48.190,52.960 46.880,50.790 46.800,50.660 46.800,50.600 46.940,50.520 49.440,49.020 51.930,47.510 54.420,46.010 54.550,45.930 54.610,45.940 54.690,46.080 55.740,47.830 56.790,49.570 57.850,51.310 57.930,51.440 57.910,51.490 57.780,51.560 56.620,52.260 55.450,52.960 54.290,53.660 54.160,53.740 54.120,53.700 54.060,53.590 53.880,53.280 53.700,52.970 53.500,52.670 53.400,52.530 53.450,52.480 53.570,52.400 54.280,51.980 54.980,51.550 55.680,51.130 55.740,51.060 55.800,51.020 55.860,50.980 Z " />
  <path stroke="none" fill="#fbfbfbff" d="M 29.350,48.660 C 29.550,48.540 29.820,48.460 29.870,48.300 29.930,48.140 29.700,47.950 29.600,47.770 29.600,47.760 29.590,47.760 29.590,47.750 29.310,47.290 29.320,47.290 29.790,47.030 29.880,46.980 29.920,46.990 29.970,47.080 30.110,47.330 30.270,47.570 30.410,47.820 30.470,47.920 30.500,47.950 30.620,47.880 31.070,47.610 31.080,47.620 30.810,47.170 30.740,47.050 30.670,46.920 30.580,46.800 30.480,46.670 30.480,46.590 30.640,46.500 32.690,45.270 34.730,44.040 36.770,42.800 36.890,42.720 36.980,42.720 37.110,42.790 37.720,43.120 38.340,43.430 38.990,43.770 38.700,43.950 38.440,44.110 38.180,44.260 34.240,46.640 30.300,49.020 26.350,51.390 26.290,51.430 26.220,51.520 26.140,51.470 26.080,51.430 26.120,51.340 26.120,51.270 26.120,50.630 26.130,49.990 26.130,49.350 26.130,49.260 26.140,49.210 26.220,49.160 26.640,48.910 27.060,48.660 27.470,48.400 27.560,48.340 27.600,48.350 27.650,48.450 27.790,48.700 27.950,48.940 28.090,49.190 28.160,49.320 28.210,49.310 28.320,49.240 28.750,48.980 28.750,48.980 28.490,48.550 28.410,48.410 28.330,48.270 28.240,48.140 28.170,48.040 28.160,47.980 28.290,47.910 28.730,47.640 28.730,47.630 28.990,48.070 29.120,48.280 29.230,48.460 29.350,48.660 Z " />
  <path stroke="none" fill="#fbfbfbff" d="M 10.290,61.110 C 10.210,60.410 10.150,59.760 10.070,59.110 10.060,58.990 10.090,58.920 10.190,58.860 12.820,57.280 15.450,55.690 18.080,54.100 18.170,54.050 18.240,54.030 18.330,54.100 18.870,54.480 19.420,54.850 20.010,55.240 16.770,57.200 13.550,59.140 10.290,61.110 Z " />
  <path stroke="none" fill="#fbfbfbff" d="M 80.500,19.250 C 81.400,19.420 82.300,19.610 83.210,19.730 83.680,19.800 83.960,20.000 84.190,20.410 84.800,21.480 85.450,22.520 86.090,23.570 86.160,23.680 86.170,23.780 86.130,23.900 85.810,24.930 85.490,25.960 85.170,27.000 85.080,26.970 85.060,26.870 85.010,26.810 83.530,24.360 82.050,21.900 80.570,19.450 80.530,19.390 80.440,19.340 80.500,19.250 80.500,19.250 80.500,19.250 80.500,19.250 Z " />
  <path stroke="none" fill="#fbfbfbff" d="M 23.260,53.680 C 23.340,53.710 23.360,53.780 23.390,53.840 24.240,55.250 25.090,56.650 25.940,58.060 26.610,59.170 27.270,60.270 27.950,61.380 28.040,61.520 28.020,61.580 27.880,61.660 27.450,61.900 27.030,62.160 26.610,62.430 26.490,62.500 26.440,62.520 26.350,62.380 24.830,59.840 23.300,57.310 21.770,54.780 21.700,54.660 21.710,54.610 21.830,54.550 22.280,54.290 22.720,54.020 23.160,53.750 23.190,53.720 23.220,53.700 23.260,53.680 Z " />
  <path stroke="none" fill="#fbfbfbff" d="M 9.050,62.300 C 10.630,64.920 12.180,67.500 13.770,70.120 13.260,69.980 12.810,69.860 12.360,69.730 11.840,69.590 11.310,69.440 10.790,69.310 10.690,69.280 10.650,69.230 10.600,69.150 9.870,67.950 9.150,66.740 8.420,65.540 8.380,65.480 8.350,65.430 8.370,65.340 8.590,64.350 8.820,63.350 9.050,62.300 Z " />
  <path stroke="none" fill="#fbfbfbff" d="M 21.450,54.770 C 21.530,54.800 21.550,54.880 21.580,54.940 22.530,56.520 23.480,58.100 24.440,59.680 25.000,60.610 25.560,61.540 26.130,62.460 26.220,62.610 26.220,62.670 26.060,62.760 25.700,62.960 25.710,62.970 25.500,62.630 24.040,60.210 22.580,57.790 21.120,55.370 20.940,55.080 20.940,55.080 21.230,54.910 21.300,54.860 21.380,54.810 21.450,54.770 Z " />
  <path stroke="none" fill="#fbfbfbff" d="M 80.500,19.240 C 80.490,19.240 80.480,19.250 80.460,19.250 80.460,19.240 80.460,19.240 80.460,19.230 80.470,19.230 80.490,19.240 80.500,19.240 80.500,19.250 80.500,19.240 80.500,19.240 Z " />
  <path stroke="none" fill="none" d="M 80.970,56.770 C 81.440,56.770 81.910,56.780 82.390,56.770 82.560,56.770 82.590,56.810 82.580,56.980 82.300,60.460 79.760,63.610 76.360,64.700 75.730,64.900 75.100,65.040 74.440,65.100 74.300,65.110 74.240,65.100 74.250,64.940 74.260,63.960 74.260,62.990 74.250,62.010 74.250,61.880 74.280,61.840 74.420,61.820 76.970,61.440 78.930,59.480 79.300,56.940 79.320,56.790 79.380,56.770 79.510,56.770 79.990,56.770 80.480,56.770 80.970,56.770 Z " />
  <path stroke="none" fill="none" d="M 66.210,55.450 C 65.740,55.450 65.270,55.440 64.790,55.450 64.600,55.460 64.570,55.400 64.590,55.220 65.020,51.840 66.770,49.400 69.820,47.900 70.740,47.450 71.720,47.200 72.740,47.110 72.870,47.100 72.920,47.120 72.920,47.260 72.910,48.240 72.920,49.230 72.920,50.210 72.920,50.330 72.880,50.370 72.760,50.390 70.170,50.790 68.270,52.690 67.870,55.280 67.850,55.430 67.780,55.440 67.670,55.440 67.190,55.450 66.700,55.450 66.210,55.450 Z " />
  <path stroke="none" fill="none" d="M 80.930,55.450 C 80.450,55.450 79.970,55.450 79.490,55.450 79.350,55.450 79.300,55.420 79.280,55.270 78.920,52.750 76.920,50.760 74.420,50.400 74.280,50.380 74.230,50.340 74.240,50.200 74.250,49.230 74.250,48.260 74.240,47.300 74.240,47.140 74.280,47.100 74.440,47.120 77.840,47.540 80.280,49.290 81.780,52.350 82.220,53.250 82.460,54.220 82.570,55.220 82.590,55.430 82.520,55.450 82.350,55.450 81.880,55.450 81.410,55.450 80.930,55.450 Z " />
  <path stroke="none" fill="none" d="M 72.920,63.490 C 72.920,63.960 72.910,64.430 72.920,64.910 72.920,65.080 72.890,65.130 72.710,65.100 69.220,64.660 66.740,62.830 65.270,59.640 64.880,58.790 64.670,57.890 64.580,56.960 64.570,56.830 64.570,56.760 64.740,56.760 65.720,56.770 66.690,56.770 67.670,56.760 67.820,56.760 67.850,56.810 67.870,56.950 68.220,59.440 70.230,61.450 72.720,61.810 72.890,61.830 72.920,61.890 72.920,62.050 72.920,62.530 72.920,63.010 72.920,63.490 Z " />
  <path stroke="none" fill="none" d="M 73.040,52.440 C 73.060,52.290 72.960,52.040 73.080,51.920 73.200,51.800 73.440,51.890 73.630,51.890 73.820,51.890 74.070,51.800 74.180,51.930 74.270,52.030 74.210,52.280 74.210,52.460 74.210,52.660 74.150,52.890 74.230,53.050 74.310,53.210 74.570,53.170 74.740,53.250 75.720,53.650 76.370,54.350 76.670,55.360 76.710,55.510 76.770,55.570 76.920,55.560 77.160,55.550 77.400,55.560 77.640,55.550 77.740,55.550 77.800,55.560 77.800,55.690 77.790,55.940 77.790,56.190 77.800,56.430 77.800,56.560 77.740,56.570 77.640,56.570 77.390,56.570 77.140,56.570 76.900,56.570 76.790,56.570 76.760,56.600 76.730,56.710 76.460,58.030 75.670,58.880 74.370,59.240 74.220,59.280 74.190,59.340 74.190,59.480 74.200,59.720 74.190,59.960 74.190,60.200 74.190,60.320 74.170,60.370 74.040,60.370 73.750,60.360 73.460,60.360 73.180,60.370 73.050,60.370 73.020,60.330 73.020,60.200 73.030,59.950 73.020,59.700 73.020,59.460 73.020,59.340 72.990,59.280 72.870,59.250 71.570,58.890 70.760,58.050 70.490,56.710 70.470,56.600 70.430,56.560 70.320,56.570 70.060,56.580 69.790,56.570 69.530,56.570 69.400,56.570 69.340,56.550 69.350,56.400 69.360,56.170 69.360,55.940 69.350,55.700 69.340,55.570 69.390,55.540 69.520,55.540 69.800,55.550 70.080,55.540 70.360,55.540 70.470,55.540 70.510,55.500 70.540,55.400 70.880,54.190 71.660,53.420 72.880,53.110 73.000,53.080 73.030,53.020 73.020,52.910 73.030,52.780 73.040,52.630 73.040,52.440 Z M 74.210,53.910 C 74.210,54.130 74.200,54.340 74.210,54.550 74.220,54.710 74.160,54.740 74.020,54.730 73.750,54.720 73.480,54.720 73.200,54.730 73.070,54.730 73.010,54.700 73.020,54.560 73.030,54.380 73.020,54.210 73.020,54.030 73.020,53.910 72.990,53.870 72.870,53.910 72.110,54.160 71.600,54.660 71.320,55.400 71.280,55.500 71.300,55.550 71.420,55.540 71.610,55.530 71.800,55.540 72.000,55.540 72.110,55.540 72.180,55.550 72.170,55.690 72.160,55.930 72.160,56.170 72.170,56.410 72.170,56.530 72.130,56.560 72.020,56.560 71.800,56.550 71.590,56.560 71.370,56.560 71.240,56.560 71.210,56.590 71.250,56.720 71.480,57.570 72.020,58.130 72.840,58.440 72.970,58.490 73.030,58.470 73.020,58.310 73.010,58.090 73.020,57.880 73.010,57.660 73.010,57.540 73.040,57.490 73.170,57.490 73.460,57.500 73.750,57.500 74.030,57.490 74.170,57.490 74.190,57.550 74.180,57.660 74.170,57.880 74.180,58.090 74.180,58.310 74.170,58.440 74.200,58.490 74.340,58.440 75.180,58.150 75.720,57.580 75.950,56.720 75.990,56.570 75.930,56.540 75.800,56.550 75.580,56.560 75.350,56.550 75.130,56.550 75.000,56.560 74.960,56.510 74.970,56.380 74.980,56.150 74.980,55.920 74.970,55.680 74.970,55.550 75.010,55.510 75.130,55.520 75.380,55.530 75.640,55.520 75.900,55.520 75.770,54.770 74.950,53.980 74.210,53.910 Z " />
  <path stroke="none" fill="none" d="M 68.680,32.940 C 68.590,32.930 68.580,32.850 68.550,32.790 68.230,32.270 67.930,31.750 67.600,31.240 67.510,31.090 67.550,31.040 67.680,30.970 68.560,30.450 69.430,29.920 70.310,29.390 73.920,27.210 77.530,25.040 81.130,22.860 81.310,22.750 81.390,22.740 81.510,22.940 81.790,23.430 82.080,23.920 82.390,24.400 82.520,24.590 82.460,24.650 82.290,24.750 78.720,26.900 75.150,29.050 71.590,31.200 70.680,31.750 69.770,32.300 68.860,32.840 68.790,32.870 68.740,32.910 68.680,32.940 Z " />
  <path stroke="none" fill="none" d="M 66.690,29.710 C 66.660,29.660 66.630,29.620 66.600,29.570 66.380,29.210 66.170,28.840 65.940,28.490 65.850,28.350 65.880,28.290 66.020,28.210 69.350,26.210 72.680,24.200 76.010,22.190 77.180,21.480 78.350,20.780 79.510,20.070 79.660,19.980 79.720,19.980 79.810,20.140 80.000,20.480 80.200,20.820 80.420,21.140 80.530,21.300 80.520,21.370 80.340,21.470 79.000,22.270 77.660,23.080 76.320,23.890 73.180,25.790 70.030,27.680 66.890,29.580 66.830,29.630 66.770,29.670 66.690,29.710 Z " />
  <path stroke="none" fill="none" d="M 70.340,35.690 C 70.270,35.680 70.260,35.630 70.240,35.590 70.010,35.220 69.790,34.830 69.550,34.470 69.440,34.310 69.540,34.270 69.650,34.210 70.970,33.420 72.290,32.620 73.610,31.820 76.790,29.900 79.970,27.980 83.140,26.060 83.280,25.980 83.340,25.980 83.420,26.130 83.620,26.490 83.840,26.850 84.060,27.200 84.130,27.320 84.140,27.370 84.010,27.450 79.490,30.170 74.970,32.900 70.450,35.620 70.410,35.650 70.370,35.670 70.340,35.690 Z " />
  <path stroke="none" fill="#fbfbfbff" d="M 74.210,53.910 C 74.950,53.980 75.770,54.760 75.930,55.550 75.670,55.550 75.420,55.560 75.160,55.550 75.030,55.550 74.990,55.590 75.000,55.710 75.010,55.940 75.010,56.170 75.000,56.410 75.000,56.530 75.030,56.580 75.160,56.580 75.380,56.570 75.610,56.580 75.830,56.580 75.970,56.570 76.020,56.600 75.980,56.750 75.740,57.610 75.210,58.180 74.370,58.470 74.230,58.520 74.210,58.470 74.210,58.340 74.220,58.120 74.210,57.910 74.210,57.690 74.210,57.580 74.200,57.510 74.060,57.520 73.770,57.530 73.480,57.530 73.200,57.520 73.070,57.520 73.030,57.560 73.040,57.690 73.050,57.910 73.030,58.120 73.050,58.340 73.060,58.500 73.000,58.510 72.870,58.470 72.050,58.170 71.510,57.600 71.280,56.750 71.240,56.620 71.270,56.580 71.400,56.590 71.620,56.600 71.830,56.590 72.050,56.590 72.160,56.590 72.200,56.560 72.200,56.440 72.190,56.200 72.190,55.960 72.200,55.720 72.210,55.580 72.140,55.560 72.030,55.570 71.840,55.580 71.650,55.570 71.450,55.570 71.330,55.570 71.310,55.520 71.350,55.430 71.630,54.690 72.140,54.190 72.900,53.940 73.020,53.900 73.060,53.940 73.050,54.060 73.040,54.240 73.060,54.410 73.050,54.590 73.040,54.730 73.100,54.760 73.230,54.760 73.500,54.750 73.770,54.750 74.050,54.760 74.190,54.770 74.250,54.740 74.240,54.580 74.200,54.340 74.210,54.130 74.210,53.910 Z " />
</svg>