<?xml version="1.0" encoding="UTF-8" standalone="no"?>
<!DOCTYPE svg PUBLIC "-//W3C//DTD SVG 20010904//EN" "http://www.w3.org/TR/2001/REC-SVG-20010904/DTD/svg10.dtd"[]>
<svg version="1.1" id="Frosty Editor v1.0.6.3" xmlns="http://www.w3.org/2000/svg" d1p1:xlink="http://www.w3.org/1999/xlink" viewBox="0 0 384 96" xmlns:d1p1="xmlns">
  <path stroke="none" fill="#ffffffff" d="M 148.770,18.570 C 147.642,18.570 146.624,17.890 146.192,16.848 145.761,15.805 145.999,14.605 146.797,13.807 147.595,13.009 148.795,12.771 149.838,13.202 150.880,13.634 151.560,14.652 151.560,15.780 151.563,16.522 151.270,17.234 150.746,17.759 150.223,18.285 149.512,18.580 148.770,18.580 148.770,18.577 148.770,18.573 148.770,18.570 Z M 148.770,12.000 C 147.237,12.000 145.855,12.923 145.269,14.340 144.682,15.756 145.006,17.386 146.090,18.470 147.174,19.554 148.804,19.878 150.220,19.292 151.637,18.705 152.560,17.323 152.560,15.790 152.560,13.697 150.863,12.000 148.770,12.000 148.770,12.000 148.770,12.000 148.770,12.000 Z " />
  <path stroke="none" fill="#ffffffff" d="M 165.910,57.620 C 168.427,57.620 170.943,57.620 173.460,57.620 173.460,58.760 173.790,62.070 176.830,63.330 177.087,62.713 177.343,62.097 177.600,61.480 175.670,60.680 175.470,58.400 175.460,57.610 178.817,57.610 182.173,57.610 185.530,57.610 184.063,59.277 182.597,60.943 181.130,62.610 180.127,63.492 178.854,64.007 177.520,64.070 174.470,64.017 171.420,63.963 168.370,63.910 167.140,63.173 165.910,62.437 164.680,61.700 165.090,60.340 165.500,58.980 165.910,57.620 Z M 162.320,62.620 C 164.147,63.717 165.973,64.813 167.800,65.910 171.043,65.967 174.287,66.023 177.530,66.080 179.408,66.013 181.199,65.275 182.580,64.000 185.053,61.220 187.527,58.440 190.000,55.660 181.473,55.660 172.947,55.660 164.420,55.660 163.720,57.980 163.020,60.300 162.320,62.620 Z " />
  <path stroke="none" fill="#ffffffff" d="M 286.700,42.070 C 286.343,42.070 285.987,42.070 285.630,42.070 285.630,39.950 285.630,37.830 285.630,35.710 285.987,35.710 286.343,35.710 286.700,35.710 286.700,37.830 286.700,39.950 286.700,42.070 Z M 283.630,44.460 C 282.590,44.460 281.550,44.460 280.510,44.460 280.510,40.750 280.510,37.040 280.510,33.330 281.553,33.330 282.597,33.330 283.640,33.330 283.637,37.040 283.633,40.750 283.630,44.460 Z M 274.380,47.580 C 274.380,42.453 274.380,37.327 274.380,32.200 274.837,32.200 275.293,32.200 275.750,32.200 275.750,32.603 275.750,33.007 275.750,33.410 276.417,33.410 277.083,33.410 277.750,33.410 277.750,33.007 277.750,32.603 277.750,32.200 278.003,32.200 278.257,32.200 278.510,32.200 278.510,37.327 278.510,42.453 278.510,47.580 277.133,47.580 275.757,47.580 274.380,47.580 Z M 282.630,57.080 C 271.240,57.080 259.850,57.080 248.460,57.080 247.570,56.690 246.680,56.300 245.790,55.910 234.833,55.910 223.877,55.910 212.920,55.910 212.003,55.223 211.087,54.537 210.170,53.850 206.503,54.537 202.837,55.223 199.170,55.910 197.337,55.880 195.503,55.850 193.670,55.820 190.223,59.433 186.777,63.047 183.330,66.660 181.816,67.614 180.034,68.053 178.250,67.910 172.397,67.910 166.543,67.910 160.690,67.910 160.483,68.243 160.277,68.577 160.070,68.910 156.807,68.910 153.543,68.910 150.280,68.910 147.597,73.940 144.913,78.970 142.230,84.000 144.707,86.730 147.183,89.460 149.660,92.190 149.559,92.500 149.350,92.763 149.070,92.930 148.400,93.300 147.200,93.100 145.730,92.390 142.063,90.390 138.397,88.390 134.730,86.390 134.410,86.230 132.880,85.310 133.990,82.970 136.150,79.303 138.310,75.637 140.470,71.970 141.953,72.160 143.437,72.350 144.920,72.540 146.027,70.390 147.133,68.240 148.240,66.090 147.330,65.090 146.420,64.090 145.510,63.090 145.713,61.600 145.917,60.110 146.120,58.620 145.013,58.620 143.907,58.620 142.800,58.620 142.643,57.793 142.487,56.967 142.330,56.140 143.237,56.077 144.143,56.013 145.050,55.950 146.190,55.887 147.087,54.950 147.100,53.808 147.113,52.666 146.239,51.710 145.100,51.620 144.013,51.397 142.927,51.173 141.840,50.950 160.990,50.950 180.140,50.950 199.290,50.950 203.527,50.493 207.763,50.037 212.000,49.580 235.537,49.580 259.073,49.580 282.610,49.580 282.617,52.080 282.623,54.580 282.630,57.080 Z M 237.000,57.910 C 239.807,57.910 242.613,57.910 245.420,57.910 246.280,58.300 247.140,58.690 248.000,59.080 255.037,59.080 262.073,59.080 269.110,59.080 263.407,59.830 257.703,60.580 252.000,61.330 249.210,61.440 245.730,61.250 245.000,60.750 242.333,59.803 239.667,58.857 237.000,57.910 Z M 283.210,64.000 C 282.970,69.240 279.370,69.420 278.970,69.420 277.747,69.560 276.523,69.700 275.300,69.840 274.850,67.963 274.400,66.087 273.950,64.210 273.790,63.380 272.870,61.810 270.400,61.810 270.400,61.810 270.400,61.810 270.400,61.810 262.193,62.893 253.987,63.977 245.780,65.060 244.902,65.121 244.085,65.531 243.510,66.197 242.936,66.864 242.651,67.733 242.720,68.610 242.883,70.197 243.047,71.783 243.210,73.370 240.470,73.280 237.751,72.863 235.110,72.130 231.997,70.333 228.883,68.537 225.770,66.740 225.180,65.203 224.590,63.667 224.000,62.130 223.899,61.140 224.182,60.148 224.790,59.360 225.108,59.030 225.542,58.837 226.000,58.820 228.527,58.820 231.053,58.820 233.580,58.820 237.053,60.043 240.527,61.267 244.000,62.490 245.820,63.490 251.000,63.370 252.180,63.320 261.030,62.157 269.880,60.993 278.730,59.830 280.034,59.761 281.308,60.235 282.250,61.140 282.915,61.941 283.257,62.960 283.210,64.000 283.210,64.000 283.210,64.000 283.210,64.000 Z M 244.760,73.320 C 244.577,73.320 244.393,73.320 244.210,73.320 244.047,71.710 243.883,70.100 243.720,68.490 243.520,66.420 245.670,66.070 245.910,66.030 254.097,64.947 262.283,63.863 270.470,62.780 271.615,62.614 272.702,63.332 273.000,64.450 273.433,66.300 273.867,68.150 274.300,70.000 264.453,71.107 254.607,72.213 244.760,73.320 Z M 156.160,87.320 C 154.753,88.320 153.347,89.320 151.940,90.320 152.147,88.470 152.353,86.620 152.560,84.770 154.257,82.050 155.953,79.330 157.650,76.610 157.153,80.180 156.657,83.750 156.160,87.320 Z M 149.860,90.880 C 147.720,88.523 145.580,86.167 143.440,83.810 145.920,79.170 148.400,74.530 150.880,69.890 153.737,69.890 156.593,69.890 159.450,69.890 156.507,74.610 153.563,79.330 150.620,84.050 150.367,86.327 150.113,88.603 149.860,90.880 Z M 145.070,64.090 C 145.713,64.807 146.357,65.523 147.000,66.240 146.107,67.980 145.213,69.720 144.320,71.460 143.213,71.307 142.107,71.153 141.000,71.000 142.357,68.697 143.713,66.393 145.070,64.090 Z M 123.500,54.090 C 120.443,53.657 117.387,53.223 114.330,52.790 114.330,52.277 114.330,51.763 114.330,51.250 117.387,51.250 120.443,51.250 123.500,51.250 123.500,52.197 123.500,53.143 123.500,54.090 Z M 140.090,55.290 C 139.433,55.290 138.825,54.939 138.497,54.370 138.168,53.801 138.168,53.099 138.497,52.530 138.825,51.961 139.433,51.610 140.090,51.610 141.710,51.943 143.330,52.277 144.950,52.610 144.983,52.610 145.017,52.610 145.050,52.610 145.492,52.569 145.919,52.782 146.153,53.159 146.387,53.536 146.387,54.014 146.153,54.391 145.919,54.768 145.492,54.981 145.050,54.940 143.397,55.057 141.743,55.173 140.090,55.290 Z M 110.690,36.530 C 113.023,36.530 115.357,36.530 117.690,36.530 117.690,35.353 117.690,34.177 117.690,33.000 120.023,33.000 122.357,33.000 124.690,33.000 124.690,33.797 124.690,34.593 124.690,35.390 124.655,35.971 124.865,36.541 125.270,36.960 126.270,38.120 128.400,38.710 131.560,38.710 137.977,38.710 144.393,38.710 150.810,38.710 150.810,38.083 150.810,37.457 150.810,36.830 157.810,36.830 164.810,36.830 171.810,36.830 171.810,40.857 171.810,44.883 171.810,48.910 161.777,48.910 151.743,48.910 141.710,48.910 141.003,48.940 140.302,49.050 139.620,49.240 129.953,49.240 120.287,49.240 110.620,49.240 110.643,45.003 110.667,40.767 110.690,36.530 Z M 108.690,51.530 C 107.247,51.530 105.803,51.530 104.360,51.530 104.953,49.973 105.547,48.417 106.140,46.860 104.140,46.860 102.140,46.860 100.140,46.860 99.747,46.503 99.353,46.147 98.960,45.790 98.960,42.000 98.960,38.210 98.960,34.420 99.440,33.947 99.920,33.473 100.400,33.000 102.153,33.000 103.907,33.000 105.660,33.000 105.660,33.693 105.660,34.387 105.660,35.080 106.660,35.080 107.660,35.080 108.660,35.080 108.660,40.190 108.660,45.300 108.660,50.410 108.660,50.410 108.660,50.410 108.660,50.410 108.670,50.783 108.680,51.157 108.690,51.530 Z M 102.210,54.360 C 100.783,54.360 99.357,54.360 97.930,54.360 97.930,51.643 97.930,48.927 97.930,46.210 98.523,46.750 99.117,47.290 99.710,47.830 101.357,47.830 103.003,47.830 104.650,47.830 103.837,50.007 103.023,52.183 102.210,54.360 Z M 110.710,31.360 C 112.043,30.467 113.377,29.573 114.710,28.680 114.900,28.705 115.076,28.793 115.210,28.930 115.539,29.382 115.708,29.931 115.690,30.490 115.690,31.823 115.690,33.157 115.690,34.490 114.023,34.490 112.357,34.490 110.690,34.490 110.690,33.447 110.690,32.403 110.690,31.360 110.697,31.360 110.703,31.360 110.710,31.360 Z M 125.710,35.450 C 125.710,33.577 125.710,31.703 125.710,29.830 126.300,29.830 126.890,29.830 127.480,29.830 127.800,33.270 131.380,34.620 131.530,34.670 136.863,34.670 142.197,34.670 147.530,34.670 148.280,35.063 149.030,35.457 149.780,35.850 149.780,36.467 149.780,37.083 149.780,37.700 143.713,37.700 137.647,37.700 131.580,37.700 128.070,37.700 126.650,36.960 126.080,36.330 125.837,36.103 125.703,35.783 125.710,35.450 125.710,35.450 125.710,35.450 125.710,35.450 Z M 160.140,22.080 C 160.140,23.870 160.140,25.660 160.140,27.450 159.250,27.450 158.360,27.450 157.470,27.450 157.470,25.910 157.470,24.370 157.470,22.830 154.520,22.830 151.570,22.830 148.620,22.830 146.680,23.943 144.740,25.057 142.800,26.170 142.800,27.780 142.800,29.390 142.800,31.000 141.857,31.000 140.913,31.000 139.970,31.000 139.970,28.027 139.970,25.053 139.970,22.080 146.693,22.080 153.417,22.080 160.140,22.080 Z M 137.140,19.270 C 138.660,19.270 140.180,19.270 141.700,19.270 141.767,19.270 141.833,19.270 141.900,19.270 142.000,19.270 144.270,18.760 144.270,15.410 144.270,14.113 144.270,12.817 144.270,11.520 145.040,11.520 145.810,11.520 146.580,11.520 146.580,10.770 146.580,10.020 146.580,9.270 148.183,9.270 149.787,9.270 151.390,9.270 151.390,10.020 151.390,10.770 151.390,11.520 152.160,11.520 152.930,11.520 153.700,11.520 153.700,12.813 153.700,14.107 153.700,15.400 153.700,18.740 155.970,19.240 156.070,19.260 157.657,19.260 159.243,19.260 160.830,19.260 160.830,19.530 160.830,19.800 160.830,20.070 152.927,20.070 145.023,20.070 137.120,20.070 137.127,19.803 137.133,19.537 137.140,19.270 Z M 135.000,18.000 C 132.280,18.527 129.560,19.053 126.840,19.580 126.840,16.997 126.840,14.413 126.840,11.830 129.507,12.353 132.173,12.877 134.840,13.400 137.323,13.400 139.807,13.400 142.290,13.400 142.290,14.067 142.290,14.733 142.290,15.400 142.290,16.820 141.740,17.190 141.580,17.280 139.443,17.280 137.307,17.280 135.170,17.280 135.170,17.520 135.170,17.760 135.170,18.000 135.113,18.000 135.057,18.000 135.000,18.000 Z M 117.000,11.810 C 119.947,11.810 122.893,11.810 125.840,11.810 125.840,14.417 125.840,17.023 125.840,19.630 122.893,19.630 119.947,19.630 117.000,19.630 117.000,17.023 117.000,14.417 117.000,11.810 Z M 115.000,21.000 C 114.210,21.000 113.420,21.000 112.630,21.000 112.630,17.477 112.630,13.953 112.630,10.430 113.420,10.430 114.210,10.430 115.000,10.430 115.000,10.887 115.000,11.343 115.000,11.800 115.000,11.800 115.000,11.800 115.000,11.800 115.000,14.407 115.000,17.013 115.000,19.620 115.000,19.620 115.000,19.620 115.000,19.620 115.000,20.080 115.000,20.540 115.000,21.000 Z M 172.830,13.410 C 172.830,14.940 172.830,16.470 172.830,18.000 169.497,18.000 166.163,18.000 162.830,18.000 162.830,17.757 162.830,17.513 162.830,17.270 160.697,17.270 158.563,17.270 156.430,17.270 156.230,17.170 155.700,16.780 155.700,15.390 155.700,14.723 155.700,14.057 155.700,13.390 161.410,13.397 167.120,13.403 172.830,13.410 Z M 177.830,18.000 C 176.497,18.000 175.163,18.000 173.830,18.000 173.830,16.473 173.830,14.947 173.830,13.420 175.163,13.420 176.497,13.420 177.830,13.420 177.830,14.947 177.830,16.473 177.830,18.000 Z M 182.250,19.720 C 181.443,19.720 180.637,19.720 179.830,19.720 179.830,17.063 179.830,14.407 179.830,11.750 180.637,11.750 181.443,11.750 182.250,11.750 182.250,14.407 182.250,17.063 182.250,19.720 Z M 155.420,27.510 C 151.863,27.510 148.307,27.510 144.750,27.510 144.750,27.467 144.750,27.423 144.750,27.380 146.200,26.547 147.650,25.713 149.100,24.880 151.207,24.880 153.313,24.880 155.420,24.880 155.420,25.757 155.420,26.633 155.420,27.510 Z M 195.500,31.510 C 195.500,31.703 195.500,31.897 195.500,32.090 187.610,32.090 179.720,32.090 171.830,32.090 171.830,33.007 171.830,33.923 171.830,34.840 164.553,34.840 157.277,34.840 150.000,34.840 150.000,34.840 150.000,34.840 150.000,34.840 149.270,34.457 148.540,34.073 147.810,33.690 142.477,33.690 137.143,33.690 131.810,33.690 131.362,33.501 130.936,33.263 130.540,32.980 135.280,32.980 140.020,32.980 144.760,32.980 144.760,31.803 144.760,30.627 144.760,29.450 160.373,29.450 175.987,29.450 191.600,29.450 192.900,30.137 194.200,30.823 195.500,31.510 Z M 197.500,30.220 C 197.973,30.220 198.447,30.220 198.920,30.220 198.920,36.267 198.920,42.313 198.920,48.360 198.447,48.360 197.973,48.360 197.500,48.360 197.500,42.313 197.500,36.267 197.500,30.220 Z M 195.500,48.910 C 187.943,48.910 180.387,48.910 172.830,48.910 172.830,43.633 172.830,38.357 172.830,33.080 180.387,33.080 187.943,33.080 195.500,33.080 195.500,38.357 195.500,43.633 195.500,48.910 Z M 206.920,32.200 C 206.977,32.200 207.033,32.200 207.090,32.200 226.493,32.200 245.897,32.200 265.300,32.200 265.343,32.200 265.387,32.200 265.430,32.200 266.940,32.200 268.450,32.200 269.960,32.200 269.960,32.533 269.960,32.867 269.960,33.200 270.627,33.200 271.293,33.200 271.960,33.200 271.960,32.867 271.960,32.533 271.960,32.200 272.420,32.200 272.880,32.200 273.340,32.200 273.340,37.327 273.340,42.453 273.340,47.580 252.867,47.580 232.393,47.580 211.920,47.580 208.253,47.963 204.587,48.347 200.920,48.730 200.920,43.220 200.920,37.710 200.920,32.200 202.920,32.200 204.920,32.200 206.920,32.200 Z M 210.840,29.330 C 227.893,29.330 244.947,29.330 262.000,29.330 262.610,29.940 263.220,30.550 263.830,31.160 245.470,31.160 227.110,31.160 208.750,31.160 209.447,30.550 210.143,29.940 210.840,29.330 Z M 271.950,28.160 C 271.880,27.440 272.096,26.722 272.550,26.160 272.813,25.935 273.156,25.826 273.500,25.860 275.060,25.910 275.620,28.520 275.700,28.950 275.700,29.367 275.700,29.783 275.700,30.200 274.450,30.200 273.200,30.200 271.950,30.200 271.950,29.520 271.950,28.840 271.950,28.160 Z M 145.080,2.780 C 147.720,2.780 150.360,2.780 153.000,2.780 153.000,3.147 153.000,3.513 153.000,3.880 150.360,3.880 147.720,3.880 145.080,3.880 145.080,3.513 145.080,3.147 145.080,2.780 Z M 288.650,33.710 C 287.627,33.710 286.603,33.710 285.580,33.710 285.580,32.917 285.580,32.123 285.580,31.330 283.873,31.330 282.167,31.330 280.460,31.330 280.460,30.953 280.460,30.577 280.460,30.200 279.540,30.200 278.620,30.200 277.700,30.200 277.700,29.693 277.700,29.187 277.700,28.680 277.440,26.920 276.270,23.910 273.700,23.840 272.825,23.758 271.955,24.036 271.290,24.610 270.358,25.546 269.883,26.843 269.990,28.160 269.990,28.827 269.990,29.493 269.990,30.160 268.590,30.160 267.190,30.160 265.790,30.160 264.833,29.203 263.877,28.247 262.920,27.290 245.307,27.290 227.693,27.290 210.080,27.290 209.000,28.240 207.920,29.190 206.840,30.140 204.867,30.140 202.893,30.140 200.920,30.140 200.920,29.473 200.920,28.807 200.920,28.140 199.113,28.140 197.307,28.140 195.500,28.140 195.500,28.473 195.500,28.807 195.500,29.140 194.360,28.543 193.220,27.947 192.080,27.350 182.080,27.350 172.080,27.350 162.080,27.350 162.080,25.593 162.080,23.837 162.080,22.080 162.323,22.080 162.567,22.080 162.810,22.080 162.810,21.387 162.810,20.693 162.810,20.000 167.810,20.000 172.810,20.000 177.810,20.000 177.810,20.553 177.810,21.107 177.810,21.660 179.950,21.660 182.090,21.660 184.230,21.660 184.230,17.690 184.230,13.720 184.230,9.750 182.090,9.750 179.950,9.750 177.810,9.750 177.810,10.307 177.810,10.863 177.810,11.420 170.437,11.420 163.063,11.420 155.690,11.420 155.690,10.787 155.690,10.153 155.690,9.520 154.920,9.520 154.150,9.520 153.380,9.520 153.380,8.770 153.380,8.020 153.380,7.270 152.433,7.270 151.487,7.270 150.540,7.270 150.540,6.807 150.540,6.343 150.540,5.880 152.027,5.880 153.513,5.880 155.000,5.880 155.000,4.180 155.000,2.480 155.000,0.780 151.027,0.780 147.053,0.780 143.080,0.780 143.080,2.480 143.080,4.180 143.080,5.880 144.570,5.880 146.060,5.880 147.550,5.880 147.550,6.343 147.550,6.807 147.550,7.270 146.550,7.270 145.550,7.270 144.550,7.270 144.550,8.020 144.550,8.770 144.550,9.520 143.780,9.520 143.010,9.520 142.240,9.520 142.240,10.150 142.240,10.780 142.240,11.410 139.853,11.410 137.467,11.410 135.080,11.410 132.387,10.880 129.693,10.350 127.000,9.820 123.667,9.820 120.333,9.820 117.000,9.820 117.000,9.357 117.000,8.893 117.000,8.430 114.877,8.430 112.753,8.430 110.630,8.430 110.630,13.287 110.630,18.143 110.630,23.000 112.753,23.000 114.877,23.000 117.000,23.000 117.000,22.557 117.000,22.113 117.000,21.670 117.000,21.670 117.000,21.670 117.000,21.670 117.000,21.653 117.000,21.637 117.000,21.620 120.257,21.620 123.513,21.620 126.770,21.620 129.543,21.080 132.317,20.540 135.090,20.000 135.090,20.000 135.090,20.000 135.090,20.000 135.090,20.693 135.090,21.387 135.090,22.080 136.020,22.080 136.950,22.080 137.880,22.080 137.880,25.053 137.880,28.027 137.880,31.000 134.847,31.000 131.813,31.000 128.780,31.000 128.541,30.476 128.418,29.906 128.420,29.330 128.420,29.163 128.420,28.997 128.420,28.830 127.170,28.830 125.920,28.830 124.670,28.830 124.670,29.553 124.670,30.277 124.670,31.000 122.337,31.000 120.003,31.000 117.670,31.000 117.670,30.843 117.670,30.687 117.670,30.530 117.717,29.441 117.361,28.373 116.670,27.530 116.090,26.944 115.295,26.622 114.470,26.640 114.370,26.640 114.270,26.640 114.170,26.640 112.353,27.850 110.537,29.060 108.720,30.270 108.720,31.200 108.720,32.130 108.720,33.060 108.387,33.060 108.053,33.060 107.720,33.060 107.720,32.373 107.720,31.687 107.720,31.000 105.013,31.000 102.307,31.000 99.600,31.000 98.707,31.857 97.813,32.713 96.920,33.570 96.920,37.670 96.920,41.770 96.920,45.870 96.920,45.870 96.920,45.870 96.920,45.870 96.920,49.023 96.920,52.177 96.920,55.330 98.897,55.330 100.873,55.330 102.850,55.330 103.083,54.720 103.317,54.110 103.550,53.500 105.913,53.500 108.277,53.500 110.640,53.500 110.640,52.750 110.640,52.000 110.640,51.250 111.200,51.250 111.760,51.250 112.320,51.250 112.320,52.343 112.320,53.437 112.320,54.530 116.713,55.153 121.107,55.777 125.500,56.400 125.500,54.683 125.500,52.967 125.500,51.250 128.917,51.250 132.333,51.250 135.750,51.250 135.750,52.360 135.750,53.470 135.750,54.580 136.110,56.730 139.040,57.530 140.550,57.800 140.723,58.727 140.897,59.653 141.070,60.580 141.963,60.580 142.857,60.580 143.750,60.580 143.643,61.357 143.537,62.133 143.430,62.910 139.680,69.273 135.930,75.637 132.180,82.000 131.530,83.187 131.390,84.587 131.790,85.880 132.153,86.856 132.866,87.661 133.790,88.140 137.457,90.140 141.123,92.140 144.790,94.140 145.852,94.708 147.027,95.032 148.230,95.090 148.862,95.102 149.487,94.946 150.040,94.640 150.657,94.278 151.140,93.728 151.420,93.070 153.610,91.537 155.800,90.003 157.990,88.470 158.730,83.137 159.470,77.803 160.210,72.470 160.733,71.630 161.257,70.790 161.780,69.950 167.227,69.950 172.673,69.950 178.120,69.950 180.401,70.132 182.675,69.532 184.570,68.250 187.870,64.793 191.170,61.337 194.470,57.880 196.080,57.907 197.690,57.933 199.300,57.960 202.757,57.307 206.213,56.653 209.670,56.000 210.530,56.647 211.390,57.293 212.250,57.940 215.957,57.940 219.663,57.940 223.370,57.940 222.318,59.158 221.821,60.760 222.000,62.360 222.000,62.417 222.000,62.473 222.000,62.530 222.730,64.400 223.460,66.270 224.190,68.140 227.540,70.073 230.890,72.007 234.240,73.940 234.313,73.970 234.387,74.000 234.460,74.030 237.391,74.859 240.415,75.313 243.460,75.380 243.990,75.380 244.460,75.380 245.030,75.320 256.353,74.030 267.677,72.740 279.000,71.450 279.740,71.450 284.860,70.930 285.170,64.170 285.226,63.091 285.013,62.016 284.550,61.040 284.550,56.553 284.550,52.067 284.550,47.580 283.177,47.580 281.803,47.580 280.430,47.580 280.430,47.203 280.430,46.827 280.430,46.450 282.140,46.450 283.850,46.450 285.560,46.450 285.560,45.657 285.560,44.863 285.560,44.070 286.583,44.070 287.607,44.070 288.630,44.070 288.637,40.617 288.643,37.163 288.650,33.710 Z " />
  <path stroke="none" fill="#ffffffff" d="M 208.000,35.250 C 226.207,35.250 244.413,35.250 262.620,35.250 263.250,35.670 263.880,36.090 264.510,36.510 263.587,36.950 262.663,37.390 261.740,37.830 243.870,37.830 226.000,37.830 208.130,37.830 207.387,37.407 206.643,36.983 205.900,36.560 206.600,36.123 207.300,35.687 208.000,35.250 Z M 262.000,38.830 C 263.520,38.103 265.040,37.377 266.560,36.650 265.373,35.850 264.187,35.050 263.000,34.250 244.593,34.250 226.187,34.250 207.780,34.250 206.500,35.033 205.220,35.817 203.940,36.600 205.253,37.343 206.567,38.087 207.880,38.830 225.920,38.830 243.960,38.830 262.000,38.830 Z " />
  <path stroke="none" fill="#ffffffff" d="M 259.000,43.330 C 241.127,43.330 223.253,43.330 205.380,43.330 204.637,42.907 203.893,42.483 203.150,42.060 203.870,41.620 204.590,41.180 205.310,40.740 223.517,40.740 241.723,40.740 259.930,40.740 260.560,41.160 261.190,41.580 261.820,42.000 260.880,42.443 259.940,42.887 259.000,43.330 Z M 205.000,39.750 C 203.720,40.533 202.440,41.317 201.160,42.100 202.473,42.843 203.787,43.587 205.100,44.330 223.153,44.330 241.207,44.330 259.260,44.330 260.780,43.603 262.300,42.877 263.820,42.150 262.617,41.347 261.413,40.543 260.210,39.740 241.807,39.743 223.403,39.747 205.000,39.750 Z " />
  <path stroke="none" fill="#ffffffff" d="M 271.370,45.410 C 271.343,45.077 271.317,44.743 271.290,44.410 269.638,44.410 268.111,43.528 267.285,42.098 266.459,40.667 266.459,38.903 267.285,37.473 268.111,36.042 269.638,35.160 271.290,35.160 271.317,35.160 271.343,35.160 271.370,35.160 271.343,34.827 271.317,34.493 271.290,34.160 269.224,34.089 267.285,35.156 266.240,36.939 265.194,38.722 265.210,40.935 266.281,42.703 267.351,44.471 269.305,45.511 271.370,45.410 271.370,45.410 271.370,45.410 271.370,45.410 Z " />
  <path stroke="none" fill="#ffffffff" d="M 190.440,45.530 C 190.460,45.863 190.480,46.197 190.500,46.530 189.014,46.530 187.641,45.737 186.897,44.450 186.154,43.163 186.154,41.577 186.897,40.290 187.641,39.003 189.014,38.210 190.500,38.210 190.480,38.210 190.460,38.210 190.440,38.210 190.460,38.543 190.480,38.877 190.500,39.210 191.629,39.221 192.667,39.833 193.222,40.816 193.777,41.799 193.766,43.003 193.192,43.976 192.618,44.948 191.569,45.541 190.440,45.530 190.440,45.530 190.440,45.530 190.440,45.530 Z " />
  <path stroke="none" fill="#ffffffff" d="M 174.900,52.580 C 178.860,52.580 182.820,52.580 186.780,52.580 187.092,52.580 187.345,52.833 187.345,53.145 187.345,53.457 187.092,53.710 186.780,53.710 182.820,53.710 178.860,53.710 174.900,53.710 174.591,53.710 174.341,53.459 174.341,53.150 174.341,52.841 174.591,52.590 174.900,52.590 174.900,52.587 174.900,52.583 174.900,52.580 Z M 174.900,54.700 C 178.860,54.700 182.820,54.700 186.780,54.700 187.641,54.699 188.339,54.001 188.339,53.140 188.339,52.279 187.641,51.581 186.780,51.580 182.820,51.580 178.860,51.580 174.900,51.580 175.459,51.580 175.976,51.878 176.255,52.363 176.535,52.847 176.535,53.443 176.255,53.928 175.976,54.412 175.459,54.710 174.900,54.710 174.900,54.707 174.900,54.703 174.900,54.700 Z " />
  <path stroke="none" fill="#ffffffff" d="M 154.830,53.140 C 154.830,52.831 155.081,52.580 155.390,52.580 159.350,52.580 163.310,52.580 167.270,52.580 167.582,52.580 167.835,52.833 167.835,53.145 167.835,53.457 167.582,53.710 167.270,53.710 163.313,53.710 159.357,53.710 155.400,53.710 155.248,53.713 155.101,53.654 154.994,53.546 154.886,53.439 154.827,53.292 154.830,53.140 154.830,53.140 154.830,53.140 154.830,53.140 Z M 168.830,53.140 C 168.830,52.278 168.132,51.580 167.270,51.580 163.313,51.580 159.357,51.580 155.400,51.580 155.959,51.580 156.476,51.878 156.755,52.363 157.035,52.847 157.035,53.443 156.755,53.928 156.476,54.412 155.959,54.710 155.400,54.710 159.360,54.710 163.320,54.710 167.280,54.710 167.694,54.707 168.090,54.540 168.380,54.246 168.671,53.952 168.833,53.554 168.830,53.140 168.830,53.140 168.830,53.140 168.830,53.140 Z " />
  <path stroke="none" fill="#ffffffff" d="M 281.250,64.410 C 281.250,65.194 280.614,65.830 279.830,65.830 279.046,65.830 278.410,65.194 278.410,64.410 278.410,63.626 279.046,62.990 279.830,62.990 280.614,62.990 281.250,63.626 281.250,64.410 281.250,64.410 281.250,64.410 281.250,64.410 Z " />
</svg>