<?xml version="1.0" encoding="UTF-8" standalone="no"?>
<!DOCTYPE svg PUBLIC "-//W3C//DTD SVG 20010904//EN" "http://www.w3.org/TR/2001/REC-SVG-20010904/DTD/svg10.dtd"[]>
<svg version="1.1" id="Frosty Editor v1.0.6.3" xmlns="http://www.w3.org/2000/svg" d1p1:xlink="http://www.w3.org/1999/xlink" viewBox="0 0 25 25" xmlns:d1p1="xmlns">
  <path stroke="none" fill="#ffffffff" d="M 12.732,3.537 C 9.216,3.537 6.277,5.922 5.437,9.169 5.806,9.638 6.032,10.274 6.032,10.977 6.032,13.780 6.032,13.780 6.032,13.780 6.032,14.326 5.896,14.831 5.663,15.250 7.472,18.384 7.472,18.384 7.472,18.384 8.890,17.565 8.890,17.565 8.890,17.565 8.960,17.607 9.031,17.647 9.104,17.687 9.104,18.916 9.104,18.916 9.104,18.916 9.104,20.365 10.067,21.533 11.262,21.533 14.057,21.533 14.057,21.533 14.057,21.533 15.252,21.533 16.215,20.365 16.215,18.916 16.215,17.764 16.215,17.764 16.215,17.764 16.302,17.719 16.388,17.673 16.472,17.625 17.788,18.384 17.788,18.384 17.788,18.384 19.663,15.138 19.663,15.138 19.663,15.138 19.465,14.743 19.351,14.279 19.351,13.780 19.351,10.977 19.351,10.977 19.351,10.977 19.351,10.237 19.603,9.571 20.007,9.096 19.142,5.887 16.222,3.537 12.732,3.537 Z M 10.680,4.743 C 15.019,4.743 15.019,4.743 15.019,4.743 15.542,5.476 16.114,6.180 16.727,6.843 15.200,6.843 15.200,6.843 15.200,6.843 14.996,6.608 14.792,6.374 14.587,6.139 10.871,6.139 10.871,6.139 10.871,6.139 10.670,6.374 10.469,6.608 10.268,6.843 8.731,6.843 8.731,6.843 8.731,6.843 9.381,6.143 10.030,5.443 10.680,4.743 Z M 11.513,7.244 C 13.904,7.244 13.904,7.244 13.904,7.244 13.904,8.550 13.904,8.550 13.904,8.550 11.513,8.550 11.513,8.550 11.513,8.550 Z M 8.731,8.962 C 10.258,8.962 10.258,8.962 10.258,8.962 10.462,9.196 10.667,9.431 10.871,9.665 14.587,9.665 14.587,9.665 14.587,9.665 14.788,9.431 14.989,9.196 15.190,8.962 16.717,8.962 16.717,8.962 16.717,8.962 16.067,9.662 15.418,10.362 14.768,11.062 10.439,11.062 10.439,11.062 10.439,11.062 9.916,10.328 9.344,9.625 8.731,8.962 Z M 9.524,11.581 C 10.508,11.581 11.299,12.373 11.299,13.357 11.299,14.340 10.508,15.133 9.524,15.133 8.541,15.133 7.749,14.340 7.749,13.357 7.749,12.373 8.541,11.581 9.524,11.581 Z M 15.742,11.581 C 16.725,11.581 17.517,12.373 17.517,13.357 17.517,14.340 16.725,15.133 15.742,15.133 14.758,15.133 13.966,14.340 13.966,13.357 13.966,12.373 14.758,11.581 15.742,11.581 Z M 12.648,14.621 C 12.679,14.621 12.710,14.623 12.741,14.626 13.350,14.557 14.004,15.180 14.248,16.091 14.508,17.062 14.201,17.980 13.561,18.152 13.288,18.225 13.001,18.151 12.741,17.967 12.480,18.151 12.194,18.225 11.922,18.152 11.281,17.980 10.975,17.062 11.235,16.091 11.463,15.242 12.046,14.643 12.618,14.621 12.628,14.621 12.637,14.621 12.648,14.621 Z " />
</svg>