<?xml version="1.0" encoding="UTF-8" standalone="no"?>
<!DOCTYPE svg PUBLIC "-//W3C//DTD SVG 20010904//EN" "http://www.w3.org/TR/2001/REC-SVG-20010904/DTD/svg10.dtd"[]>
<svg version="1.1" id="Frosty Editor v1.0.6.3" xmlns="http://www.w3.org/2000/svg" d1p1:xlink="http://www.w3.org/1999/xlink" viewBox="0 0 25 25" xmlns:d1p1="xmlns">
  <path stroke="none" fill="#ffffffff" d="M 18.598,17.375 C 18.393,17.172 18.189,16.968 17.984,16.765 18.616,15.912 19.049,14.911 19.209,13.810 19.500,13.810 19.791,13.810 20.083,13.810 19.905,15.124 19.379,16.360 18.598,17.375 18.598,17.375 18.598,17.375 18.598,17.375 Z M 13.620,20.238 C 13.620,19.948 13.620,19.658 13.620,19.368 14.649,19.204 15.743,18.817 16.595,18.178 16.597,18.178 16.598,18.178 16.599,18.178 16.800,18.377 17.001,18.576 17.203,18.775 16.183,19.556 15.004,20.060 13.620,20.238 13.620,20.238 13.620,20.238 13.620,20.238 Z M 13.122,18.533 C 12.779,18.533 12.436,18.533 12.093,18.533 12.093,17.530 12.093,16.528 12.093,15.525 11.666,15.454 11.414,15.312 11.123,15.120 10.433,15.812 9.743,16.503 9.053,17.194 8.795,16.935 8.537,16.676 8.279,16.417 8.971,15.728 9.664,15.039 10.356,14.350 10.164,14.059 10.022,13.668 9.951,13.384 8.972,13.384 7.993,13.384 7.014,13.384 7.014,13.017 7.014,12.650 7.014,12.283 7.993,12.283 8.972,12.283 9.951,12.283 10.022,11.928 10.164,11.591 10.356,11.299 9.664,10.606 8.971,9.912 8.279,9.218 8.538,8.959 8.797,8.700 9.056,8.441 9.744,9.132 10.432,9.823 11.120,10.515 11.411,10.319 11.663,10.181 12.089,10.110 12.089,9.130 12.089,8.150 12.089,7.169 12.432,7.169 12.776,7.169 13.119,7.169 13.119,8.148 13.119,9.127 13.119,10.106 13.545,10.177 13.847,10.319 14.138,10.515 14.838,9.822 15.537,9.130 16.237,8.437 16.499,8.696 16.762,8.956 17.025,9.215 16.335,9.910 15.645,10.605 14.955,11.299 15.147,11.591 15.296,11.928 15.367,12.283 16.335,12.283 17.303,12.283 18.271,12.283 18.271,12.650 18.271,13.017 18.271,13.384 17.304,13.384 16.337,13.384 15.370,13.384 15.299,13.668 15.157,14.059 14.962,14.350 15.654,15.041 16.347,15.732 17.039,16.424 16.780,16.682 16.521,16.940 16.262,17.198 15.555,16.505 14.848,15.813 14.142,15.120 13.850,15.316 13.549,15.458 13.122,15.529 13.122,16.530 13.122,17.532 13.122,18.533 13.122,18.533 13.122,18.533 13.122,18.533 13.122,18.533 13.122,18.533 13.122,18.533 Z M 11.595,20.238 C 10.353,20.064 9.081,19.534 8.066,18.753 8.263,18.548 8.461,18.344 8.659,18.139 9.511,18.771 10.566,19.201 11.595,19.364 11.595,19.655 11.595,19.946 11.595,20.238 11.595,20.238 11.595,20.238 11.595,20.238 Z M 6.720,17.375 C 5.938,16.356 5.416,15.124 5.239,13.810 5.530,13.810 5.821,13.810 6.112,13.810 6.276,14.911 6.702,15.909 7.334,16.761 7.129,16.966 6.925,17.171 6.720,17.375 6.720,17.375 6.720,17.375 6.720,17.375 Z M 6.723,8.295 C 6.928,8.505 7.133,8.714 7.338,8.924 6.706,9.776 6.276,10.756 6.112,11.892 5.821,11.892 5.530,11.892 5.239,11.892 5.416,10.472 5.942,9.311 6.723,8.295 6.723,8.295 6.723,8.295 6.723,8.295 Z M 11.595,5.397 C 11.595,5.687 11.595,5.977 11.595,6.267 10.566,6.431 9.575,6.885 8.723,7.454 8.721,7.454 8.720,7.454 8.719,7.454 8.501,7.256 8.283,7.058 8.066,6.861 9.085,6.079 10.353,5.575 11.595,5.397 11.595,5.397 11.595,5.397 11.595,5.397 Z M 13.620,5.394 C 15.004,5.568 16.183,6.093 17.203,6.875 16.995,7.080 16.788,7.284 16.581,7.489 15.729,6.857 14.649,6.427 13.620,6.267 13.620,5.976 13.620,5.685 13.620,5.394 13.620,5.394 13.620,5.394 13.620,5.394 Z M 18.598,8.288 C 19.379,9.307 19.905,10.472 20.083,11.892 19.793,11.892 19.503,11.892 19.213,11.892 19.049,10.756 18.620,9.769 17.987,8.917 18.191,8.707 18.395,8.498 18.598,8.288 18.598,8.288 18.598,8.288 18.598,8.288 Z M 12.661,4.332 C 7.977,4.332 4.177,8.132 4.177,12.816 4.177,17.500 7.977,21.299 12.661,21.299 17.345,21.299 21.144,17.500 21.144,12.816 21.144,8.132 17.345,4.332 12.661,4.332 12.661,4.332 12.661,4.332 12.661,4.332 Z " />
</svg>