<?xml version="1.0" encoding="UTF-8" standalone="no"?>
<!DOCTYPE svg PUBLIC "-//W3C//DTD SVG 20010904//EN" "http://www.w3.org/TR/2001/REC-SVG-20010904/DTD/svg10.dtd"[]>
<svg version="1.1" id="Frosty Editor v1.0.6.3" xmlns="http://www.w3.org/2000/svg" d1p1:xlink="http://www.w3.org/1999/xlink" viewBox="0 0 25 25" xmlns:d1p1="xmlns">
  <path stroke="none" fill="#ffffffff" d="M 12.971,2.303 C 10.075,3.979 7.178,5.655 4.282,7.330 4.282,17.353 4.282,17.353 4.282,17.353 7.178,19.029 10.075,20.704 12.971,22.380 15.867,20.704 18.763,19.029 21.659,17.353 21.659,7.330 21.659,7.330 21.659,7.330 18.763,5.655 15.867,3.979 12.971,2.303 Z M 12.971,3.172 C 15.629,4.703 18.287,6.234 20.945,7.765 20.945,16.950 20.945,16.950 20.945,16.950 18.287,18.481 15.629,20.011 12.971,21.542 10.323,20.011 7.674,18.481 5.027,16.950 5.027,7.765 5.027,7.765 5.027,7.765 7.674,6.234 10.323,4.703 12.971,3.172 Z M 12.971,5.528 C 11.015,6.656 9.061,7.784 7.106,8.912 7.106,15.677 7.106,15.677 7.106,15.677 9.061,16.804 11.015,17.932 12.971,19.059 14.926,17.932 16.881,16.804 18.837,15.677 18.837,8.912 18.837,8.912 18.837,8.912 16.881,7.784 14.926,6.656 12.971,5.528 Z M 16.229,8.064 C 16.245,8.064 16.261,8.064 16.277,8.065 16.786,8.081 17.180,8.492 17.164,9.002 17.147,9.511 16.736,9.905 16.227,9.889 15.717,9.872 15.324,9.445 15.340,8.952 15.356,8.458 15.742,8.073 16.229,8.064 Z M 13.709,9.291 C 13.714,9.291 13.718,9.291 13.723,9.291 13.763,9.292 13.805,9.299 13.844,9.314 13.861,9.314 13.861,9.314 13.861,9.314 13.878,9.314 13.894,9.330 13.910,9.330 14.283,9.495 14.655,9.659 15.028,9.823 15.028,9.823 14.798,9.840 14.633,9.988 14.485,10.119 14.337,10.382 14.337,10.382 13.894,10.184 13.894,10.184 13.894,10.184 13.697,10.716 13.499,11.247 13.302,11.779 13.236,11.976 13.023,12.058 12.842,11.992 12.661,11.926 12.563,11.713 12.645,11.532 12.891,10.864 13.138,10.195 13.384,9.527 13.434,9.378 13.568,9.295 13.709,9.291 Z M 9.079,9.971 C 12.743,9.971 12.743,9.971 12.743,9.971 12.656,10.124 12.568,10.278 12.480,10.431 8.799,10.431 8.799,10.431 8.799,10.431 8.893,10.278 8.985,10.124 9.079,9.971 Z M 15.299,10.073 C 15.307,10.073 15.315,10.073 15.323,10.073 15.457,10.074 15.594,10.111 15.718,10.184 15.800,10.234 15.882,10.283 15.964,10.332 16.030,10.365 16.293,10.513 16.326,10.760 16.397,11.351 16.468,11.943 16.540,12.535 16.572,12.732 16.441,12.912 16.260,12.978 16.211,12.994 16.178,13.011 16.129,13.011 15.778,13.039 15.427,13.066 15.077,13.093 15.033,13.170 14.989,13.246 14.945,13.323 15.400,13.592 15.854,13.860 16.309,14.128 16.556,14.276 16.687,14.556 16.556,14.737 16.539,14.786 16.490,14.819 16.457,14.852 16.408,14.918 16.359,14.950 16.293,14.983 15.329,15.399 14.365,15.816 13.401,16.232 13.204,16.331 12.973,16.232 12.908,16.035 12.897,16.013 12.886,15.991 12.875,15.969 12.809,15.755 12.924,15.525 13.121,15.443 13.861,15.125 14.601,14.808 15.340,14.490 14.727,14.123 14.113,13.756 13.499,13.389 13.237,13.241 13.121,12.962 13.220,12.765 13.236,12.765 13.237,12.748 13.253,12.732 13.253,12.715 13.253,12.699 13.269,12.682 13.735,11.932 14.200,11.181 14.666,10.431 14.812,10.201 15.052,10.077 15.299,10.073 Z M 8.322,11.236 C 12.004,11.236 12.004,11.236 12.004,11.236 11.911,11.384 11.818,11.532 11.724,11.680 8.060,11.680 8.060,11.680 8.060,11.680 8.148,11.532 8.235,11.384 8.322,11.236 Z M 15.800,11.811 C 15.669,12.025 15.537,12.239 15.405,12.452 15.564,12.436 15.723,12.419 15.882,12.403 15.855,12.206 15.828,12.008 15.800,11.811 Z M 7.583,12.485 C 11.248,12.485 11.248,12.485 11.248,12.485 10.985,12.945 10.985,12.945 10.985,12.945 7.304,12.945 7.304,12.945 7.304,12.945 7.397,12.792 7.490,12.638 7.583,12.485 Z M 13.006,13.504 C 13.242,13.647 13.477,13.789 13.713,13.931 13.012,15.032 12.310,16.134 11.609,17.235 11.461,17.448 11.231,17.530 11.084,17.415 11.045,17.388 11.007,17.360 10.968,17.333 10.820,17.234 10.804,16.971 10.936,16.758 Z " />
</svg>