<?xml version="1.0" encoding="UTF-8" standalone="no"?>
<!DOCTYPE svg PUBLIC "-//W3C//DTD SVG 20010904//EN" "http://www.w3.org/TR/2001/REC-SVG-20010904/DTD/svg10.dtd"[]>
<svg version="1.1" id="Frosty Editor v1.0.6.3" xmlns="http://www.w3.org/2000/svg" d1p1:xlink="http://www.w3.org/1999/xlink" viewBox="0 0 384 96" xmlns:d1p1="xmlns">
  <path stroke="none" fill="none" d="M 232.310,42.090 C 233.590,41.310 234.870,40.530 236.150,39.750 257.553,39.750 278.957,39.750 300.360,39.750 301.563,40.550 302.767,41.350 303.970,42.150 302.450,42.877 300.930,43.603 299.410,44.330 278.343,44.330 257.277,44.330 236.210,44.330 234.910,43.583 233.610,42.837 232.310,42.090 Z M 238.900,34.250 C 260.303,34.250 281.707,34.250 303.110,34.250 304.313,35.050 305.517,35.850 306.720,36.650 305.200,37.377 303.680,38.103 302.160,38.830 281.107,38.830 260.053,38.830 239.000,38.830 237.667,38.083 236.333,37.337 235.000,36.590 236.300,35.810 237.600,35.030 238.900,34.250 Z M 311.420,34.160 C 311.447,34.493 311.473,34.827 311.500,35.160 311.473,35.160 311.447,35.160 311.420,35.160 309.716,35.081 308.107,35.945 307.232,37.408 306.356,38.872 306.356,40.698 307.232,42.162 308.107,43.625 309.716,44.489 311.420,44.410 311.447,44.743 311.473,45.077 311.500,45.410 309.435,45.511 307.481,44.471 306.411,42.703 305.340,40.935 305.324,38.722 306.370,36.939 307.415,35.156 309.354,34.089 311.420,34.160 311.420,34.160 311.420,34.160 311.420,34.160 Z M 313.420,47.580 C 313.420,42.453 313.420,37.327 313.420,32.200 312.947,32.200 312.473,32.200 312.000,32.200 312.000,32.533 312.000,32.867 312.000,33.200 311.333,33.200 310.667,33.200 310.000,33.200 310.000,32.867 310.000,32.533 310.000,32.200 308.490,32.200 306.980,32.200 305.470,32.200 305.427,32.200 305.383,32.200 305.340,32.200 282.950,32.200 260.560,32.200 238.170,32.200 238.113,32.200 238.057,32.200 238.000,32.200 236.000,32.200 234.000,32.200 232.000,32.200 232.000,37.710 232.000,43.220 232.000,48.730 235.667,48.347 239.333,47.963 243.000,47.580 266.473,47.580 289.947,47.580 313.420,47.580 Z " />
  <path stroke="none" fill="none" d="M 228.590,30.220 C 229.063,30.220 229.537,30.220 230.010,30.220 230.010,36.267 230.010,42.313 230.010,48.360 229.537,48.360 229.063,48.360 228.590,48.360 228.590,42.313 228.590,36.267 228.590,30.220 Z " />
  <path stroke="none" fill="none" d="M 300.020,40.750 C 278.813,40.750 257.607,40.750 236.400,40.750 235.680,41.187 234.960,41.623 234.240,42.060 234.983,42.483 235.727,42.907 236.470,43.330 257.360,43.330 278.250,43.330 299.140,43.330 300.063,42.890 300.987,42.450 301.910,42.010 301.280,41.590 300.650,41.170 300.020,40.750 300.020,40.750 300.020,40.750 300.020,40.750 Z " />
  <path stroke="none" fill="none" d="M 315.790,32.200 C 315.333,32.200 314.877,32.200 314.420,32.200 314.420,37.327 314.420,42.453 314.420,47.580 315.797,47.580 317.173,47.580 318.550,47.580 318.550,42.453 318.550,37.327 318.550,32.200 318.297,32.200 318.043,32.200 317.790,32.200 317.790,32.603 317.790,33.007 317.790,33.410 317.123,33.410 316.457,33.410 315.790,33.410 315.790,33.007 315.790,32.603 315.790,32.200 315.790,32.200 315.790,32.200 315.790,32.200 Z " />
  <path stroke="none" fill="none" d="M 204.920,13.420 C 206.253,13.420 207.587,13.420 208.920,13.420 208.920,14.950 208.920,16.480 208.920,18.010 207.587,18.010 206.253,18.010 204.920,18.010 204.920,16.480 204.920,14.950 204.920,13.420 Z " />
  <path stroke="none" fill="none" d="M 302.130,29.330 C 282.060,29.330 261.990,29.330 241.920,29.330 241.227,29.940 240.533,30.550 239.840,31.160 261.213,31.160 282.587,31.160 303.960,31.160 303.350,30.550 302.740,29.940 302.130,29.330 302.130,29.330 302.130,29.330 302.130,29.330 Z " />
  <path stroke="none" fill="none" d="M 301.890,37.830 C 302.813,37.390 303.737,36.950 304.660,36.510 304.030,36.090 303.400,35.670 302.770,35.250 281.563,35.250 260.357,35.250 239.150,35.250 238.430,35.687 237.710,36.123 236.990,36.560 237.733,36.983 238.477,37.407 239.220,37.830 260.110,37.830 281.000,37.830 301.890,37.830 301.890,37.830 301.890,37.830 301.890,37.830 Z " />
  <path stroke="none" fill="none" d="M 179.900,19.580 C 178.366,19.584 176.981,18.663 176.391,17.247 175.802,15.831 176.123,14.200 177.207,13.114 178.290,12.028 179.921,11.702 181.338,12.288 182.756,12.874 183.680,14.256 183.680,15.790 183.680,16.801 183.277,17.769 182.559,18.481 181.842,19.192 180.870,19.588 179.860,19.580 179.873,19.580 179.887,19.580 179.900,19.580 Z M 191.900,19.270 C 190.313,19.270 188.727,19.270 187.140,19.270 187.050,19.270 184.780,18.760 184.780,15.420 184.780,14.120 184.780,12.820 184.780,11.520 184.007,11.520 183.233,11.520 182.460,11.520 182.460,10.770 182.460,10.020 182.460,9.270 180.857,9.270 179.253,9.270 177.650,9.270 177.650,10.020 177.650,10.770 177.650,11.520 176.880,11.520 176.110,11.520 175.340,11.520 175.340,12.813 175.340,14.107 175.340,15.400 175.340,18.740 173.070,19.230 172.970,19.250 172.907,19.250 172.843,19.250 172.780,19.250 171.257,19.250 169.733,19.250 168.210,19.250 168.210,19.520 168.210,19.790 168.210,20.060 176.107,20.060 184.003,20.060 191.900,20.060 191.900,19.797 191.900,19.533 191.900,19.270 Z " />
  <path stroke="none" fill="none" d="M 191.170,27.450 C 191.170,25.660 191.170,23.870 191.170,22.080 184.447,22.080 177.723,22.080 171.000,22.080 171.000,25.053 171.000,28.027 171.000,31.000 171.947,31.000 172.893,31.000 173.840,31.000 173.840,29.390 173.840,27.780 173.840,26.170 175.780,25.057 177.720,23.943 179.660,22.830 182.607,22.830 185.553,22.830 188.500,22.830 188.500,24.370 188.500,25.910 188.500,27.450 189.390,27.450 190.280,27.450 191.170,27.450 191.170,27.450 191.170,27.450 191.170,27.450 Z " />
  <path stroke="none" fill="none" d="M 182.650,15.790 C 182.650,17.331 181.401,18.580 179.860,18.580 178.319,18.580 177.070,17.331 177.070,15.790 177.070,14.249 178.319,13.000 179.860,13.000 181.401,13.000 182.650,14.249 182.650,15.790 182.650,15.790 182.650,15.790 182.650,15.790 Z " />
  <path stroke="none" fill="none" d="M 173.340,15.400 C 173.340,14.733 173.340,14.067 173.340,13.400 170.853,13.400 168.367,13.400 165.880,13.400 163.213,12.877 160.547,12.353 157.880,11.830 157.880,14.417 157.880,17.003 157.880,19.590 160.613,19.060 163.347,18.530 166.080,18.000 166.123,18.000 166.167,18.000 166.210,18.000 166.210,17.757 166.210,17.513 166.210,17.270 168.347,17.270 170.483,17.270 172.620,17.270 172.790,17.190 173.340,16.810 173.340,15.400 173.340,15.400 173.340,15.400 173.340,15.400 Z " />
  <path stroke="none" fill="none" d="M 187.500,17.270 C 189.633,17.270 191.767,17.270 193.900,17.270 193.900,17.513 193.900,17.757 193.900,18.000 197.233,18.000 200.567,18.000 203.900,18.000 203.900,16.473 203.900,14.947 203.900,13.420 198.193,13.420 192.487,13.420 186.780,13.420 186.780,14.087 186.780,14.753 186.780,15.420 186.780,16.780 187.300,17.170 187.500,17.270 187.500,17.270 187.500,17.270 187.500,17.270 Z " />
  <path stroke="none" fill="none" d="M 176.170,2.780 C 178.810,2.780 181.450,2.780 184.090,2.780 184.090,3.147 184.090,3.513 184.090,3.880 181.450,3.880 178.810,3.880 176.170,3.880 176.170,3.513 176.170,3.147 176.170,2.780 Z " />
  <path stroke="none" fill="none" d="M 148.080,11.800 C 151.027,11.800 153.973,11.800 156.920,11.800 156.920,14.407 156.920,17.013 156.920,19.620 153.973,19.620 151.027,19.620 148.080,19.620 148.080,17.013 148.080,14.407 148.080,11.800 Z " />
  <path stroke="none" fill="none" d="M 175.840,27.450 C 179.393,27.450 182.947,27.450 186.500,27.450 186.500,26.577 186.500,25.703 186.500,24.830 184.397,24.830 182.293,24.830 180.190,24.830 178.740,25.660 177.290,26.490 175.840,27.320 175.840,27.363 175.840,27.407 175.840,27.450 175.840,27.450 175.840,27.450 175.840,27.450 Z " />
  <path stroke="none" fill="none" d="M 146.070,10.430 C 145.283,10.430 144.497,10.430 143.710,10.430 143.710,13.950 143.710,17.470 143.710,20.990 144.497,20.990 145.283,20.990 146.070,20.990 146.070,20.533 146.070,20.077 146.070,19.620 146.073,19.620 146.077,19.620 146.080,19.620 146.080,17.013 146.080,14.407 146.080,11.800 146.077,11.800 146.073,11.800 146.070,11.800 146.070,11.343 146.070,10.887 146.070,10.430 146.070,10.430 146.070,10.430 146.070,10.430 Z " />
  <path stroke="none" fill="none" d="M 129.750,32.990 C 127.797,32.990 125.843,32.990 123.890,32.990 123.593,33.000 123.297,33.010 123.000,33.020 123.000,37.267 123.000,41.513 123.000,45.760 123.397,46.117 123.793,46.473 124.190,46.830 126.190,46.830 128.190,46.830 130.190,46.830 129.597,48.387 129.003,49.943 128.410,51.500 129.853,51.500 131.297,51.500 132.740,51.500 132.740,51.137 132.740,50.773 132.740,50.410 132.743,50.410 132.747,50.410 132.750,50.410 132.750,45.773 132.750,41.137 132.750,36.500 132.750,36.027 132.750,35.553 132.750,35.080 131.750,35.080 130.750,35.080 129.750,35.080 129.750,34.383 129.750,33.687 129.750,32.990 129.750,32.990 129.750,32.990 129.750,32.990 Z " />
  <path stroke="none" fill="none" d="M 210.920,11.750 C 211.727,11.750 212.533,11.750 213.340,11.750 213.340,14.390 213.340,17.030 213.340,19.670 212.533,19.670 211.727,19.670 210.920,19.670 210.920,17.030 210.920,14.390 210.920,11.750 Z " />
  <path stroke="none" fill="none" d="M 77.710,48.250 C 77.580,48.117 77.450,47.983 77.320,47.850 73.777,47.850 70.233,47.850 66.690,47.850 66.690,43.380 66.690,38.910 66.690,34.440 65.857,34.440 65.023,34.440 64.190,34.440 64.697,39.043 65.203,43.647 65.710,48.250 69.710,48.250 73.710,48.250 77.710,48.250 77.710,48.250 77.710,48.250 77.710,48.250 Z " />
  <path stroke="none" fill="none" d="M 112.690,37.330 C 113.450,34.980 114.210,32.630 114.970,30.280 99.710,30.280 84.450,30.280 69.190,30.280 69.023,30.450 68.857,30.620 68.690,30.790 68.690,32.970 68.690,35.150 68.690,37.330 83.357,37.330 98.023,37.330 112.690,37.330 112.690,37.330 112.690,37.330 112.690,37.330 Z " />
  <path stroke="none" fill="none" d="M 67.520,67.630 C 68.553,66.607 69.587,65.583 70.620,64.560 69.590,65.073 68.560,65.587 67.530,66.100 67.527,66.610 67.523,67.120 67.520,67.630 67.520,67.630 67.520,67.630 67.520,67.630 Z " />
  <path stroke="none" fill="none" d="M 123.800,47.830 C 123.207,47.290 122.613,46.750 122.020,46.210 122.020,48.917 122.020,51.623 122.020,54.330 123.430,54.330 124.840,54.330 126.250,54.330 127.080,52.163 127.910,49.997 128.740,47.830 127.093,47.830 125.447,47.830 123.800,47.830 123.800,47.830 123.800,47.830 123.800,47.830 Z " />
  <path stroke="none" fill="none" d="M 121.000,45.870 C 121.000,42.060 121.000,38.250 121.000,34.440 120.133,34.440 119.267,34.440 118.400,34.440 118.130,35.213 117.860,35.987 117.590,36.760 116.343,40.833 115.097,44.907 113.850,48.980 116.240,48.980 118.630,48.980 121.020,48.980 121.020,47.943 121.020,46.907 121.020,45.870 121.013,45.870 121.007,45.870 121.000,45.870 121.000,45.870 121.000,45.870 121.000,45.870 Z " />
  <path stroke="none" fill="none" d="M 78.000,54.500 C 73.967,54.500 69.933,54.500 65.900,54.500 65.751,54.476 65.602,54.541 65.520,54.667 65.438,54.794 65.438,54.956 65.520,55.083 65.602,55.209 65.751,55.274 65.900,55.250 69.933,55.250 73.967,55.250 78.000,55.250 78.149,55.274 78.298,55.209 78.380,55.083 78.462,54.956 78.462,54.794 78.380,54.667 78.298,54.541 78.149,54.476 78.000,54.500 78.000,54.500 78.000,54.500 78.000,54.500 Z " />
  <path stroke="none" fill="none" d="M 78.000,57.250 C 73.967,57.250 69.933,57.250 65.900,57.250 65.015,57.307 64.171,56.868 63.711,56.109 63.251,55.351 63.251,54.399 63.711,53.641 64.171,52.882 65.015,52.443 65.900,52.500 69.933,52.500 73.967,52.500 78.000,52.500 78.885,52.443 79.729,52.882 80.189,53.641 80.649,54.399 80.649,55.351 80.189,56.109 79.729,56.868 78.885,57.307 78.000,57.250 78.000,57.250 78.000,57.250 78.000,57.250 Z M 74.600,63.420 C 72.733,65.297 70.867,67.173 69.000,69.050 68.626,69.432 68.114,69.648 67.580,69.650 67.316,69.646 67.054,69.592 66.810,69.490 66.052,69.184 65.558,68.447 65.560,67.630 65.560,67.123 65.560,66.617 65.560,66.110 65.557,65.347 65.987,64.649 66.670,64.310 68.780,63.257 70.890,62.203 73.000,61.150 73.622,60.843 74.374,61.030 74.780,61.592 75.185,62.154 75.127,62.926 74.640,63.420 74.627,63.420 74.613,63.420 74.600,63.420 Z M 115.690,36.140 C 116.187,34.513 116.683,32.887 117.180,31.260 117.043,31.260 116.907,31.260 116.770,31.260 115.893,33.963 115.017,36.667 114.140,39.370 98.990,39.370 83.840,39.370 68.690,39.370 68.690,41.543 68.690,43.717 68.690,45.890 71.843,45.890 74.997,45.890 78.150,45.890 79.613,47.357 81.077,48.823 82.540,50.290 76.333,50.290 70.127,50.290 63.920,50.290 63.253,44.193 62.587,38.097 61.920,32.000 60.180,32.000 58.440,32.000 56.700,32.000 56.530,35.370 55.980,47.000 56.190,53.590 56.400,60.180 58.000,73.070 58.440,76.500 60.480,76.500 62.520,76.500 64.560,76.500 64.560,75.833 64.560,75.167 64.560,74.500 65.130,73.930 65.700,73.360 66.270,72.790 66.603,72.790 66.937,72.790 67.270,72.790 72.847,66.840 78.423,60.890 84.000,54.940 92.667,53.657 101.333,52.373 110.000,51.090 110.188,51.056 110.370,50.995 110.540,50.910 112.257,45.987 113.973,41.063 115.690,36.140 Z " />
  <path stroke="none" fill="none" d="M 315.790,28.920 C 315.700,28.480 315.140,25.920 313.590,25.830 313.245,25.790 312.900,25.899 312.640,26.130 312.182,26.690 311.966,27.410 312.040,28.130 312.040,28.797 312.040,29.463 312.040,30.130 313.290,30.130 314.540,30.130 315.790,30.130 315.790,29.727 315.790,29.323 315.790,28.920 Z " />
  <path stroke="none" fill="none" d="M 206.000,53.700 C 209.960,53.700 213.920,53.700 217.880,53.700 218.080,53.700 218.265,53.594 218.366,53.420 218.466,53.247 218.466,53.033 218.366,52.860 218.265,52.686 218.080,52.580 217.880,52.580 213.920,52.580 209.960,52.580 206.000,52.580 205.691,52.580 205.441,52.831 205.441,53.140 205.441,53.449 205.691,53.700 206.000,53.700 206.000,53.700 206.000,53.700 206.000,53.700 Z " />
  <path stroke="none" fill="none" d="M 292.130,61.330 C 297.833,60.580 303.537,59.830 309.240,59.080 302.203,59.080 295.167,59.080 288.130,59.080 287.240,58.690 286.350,58.300 285.460,57.910 282.640,57.910 279.820,57.910 277.000,57.910 279.687,58.857 282.373,59.803 285.060,60.750 285.860,61.250 289.340,61.440 292.130,61.330 292.130,61.330 292.130,61.330 292.130,61.330 Z " />
  <path stroke="none" fill="none" d="M 198.920,53.140 C 198.920,52.831 198.669,52.580 198.360,52.580 194.400,52.580 190.440,52.580 186.480,52.580 186.171,52.580 185.921,52.831 185.921,53.140 185.921,53.449 186.171,53.700 186.480,53.700 190.440,53.700 194.400,53.700 198.360,53.700 198.669,53.700 198.920,53.449 198.920,53.140 198.920,53.140 198.920,53.140 198.920,53.140 Z " />
  <path stroke="none" fill="none" d="M 319.920,65.830 C 319.136,65.830 318.500,65.194 318.500,64.410 318.500,63.626 319.136,62.990 319.920,62.990 320.704,62.990 321.340,63.626 321.340,64.410 321.340,64.787 321.190,65.148 320.924,65.414 320.658,65.680 320.297,65.830 319.920,65.830 319.920,65.830 319.920,65.830 319.920,65.830 Z M 318.850,59.830 C 310.000,60.993 301.150,62.157 292.300,63.320 291.160,63.320 285.930,63.530 284.120,62.490 280.623,61.270 277.127,60.050 273.630,58.830 271.103,58.830 268.577,58.830 266.050,58.830 265.591,58.842 265.156,59.037 264.840,59.370 264.230,60.154 263.944,61.142 264.040,62.130 264.643,63.673 265.247,65.217 265.850,66.760 268.963,68.557 272.077,70.353 275.190,72.150 277.828,72.882 280.544,73.299 283.280,73.390 283.120,71.803 282.960,70.217 282.800,68.630 282.731,67.753 283.016,66.884 283.590,66.217 284.165,65.551 284.982,65.141 285.860,65.080 294.067,63.997 302.273,62.913 310.480,61.830 310.480,61.830 310.480,61.830 310.480,61.830 312.083,61.673 313.566,62.689 314.000,64.240 314.450,66.117 314.900,67.993 315.350,69.870 316.570,69.730 317.790,69.590 319.010,69.450 319.420,69.450 323.010,69.270 323.260,64.030 323.320,62.988 322.988,61.961 322.330,61.150 321.399,60.253 320.142,59.776 318.850,59.830 318.850,59.830 318.850,59.830 318.850,59.830 Z " />
  <path stroke="none" fill="none" d="M 310.550,62.830 C 302.367,63.913 294.183,64.997 286.000,66.080 285.750,66.080 283.610,66.460 283.800,68.530 283.967,70.140 284.133,71.750 284.300,73.360 284.483,73.370 284.667,73.370 284.850,73.360 294.697,72.240 304.543,71.120 314.390,70.000 313.947,68.157 313.503,66.313 313.060,64.470 312.751,63.373 311.679,62.672 310.550,62.830 310.550,62.830 310.550,62.830 310.550,62.830 Z " />
  <path stroke="none" fill="none" d="M 320.550,33.330 C 321.593,33.330 322.637,33.330 323.680,33.330 323.680,37.040 323.680,40.750 323.680,44.460 322.637,44.460 321.593,44.460 320.550,44.460 320.550,40.750 320.550,37.040 320.550,33.330 Z " />
  <path stroke="none" fill="none" d="M 208.610,64.080 C 209.942,64.008 211.213,63.494 212.220,62.620 213.683,60.953 215.147,59.287 216.610,57.620 213.253,57.620 209.897,57.620 206.540,57.620 206.540,58.410 206.760,60.690 208.680,61.490 208.423,62.107 208.167,62.723 207.910,63.340 204.910,62.070 204.560,58.770 204.540,57.620 202.027,57.620 199.513,57.620 197.000,57.620 196.590,58.970 196.180,60.320 195.770,61.670 197.000,62.407 198.230,63.143 199.460,63.880 202.510,63.947 205.560,64.013 208.610,64.080 Z " />
  <path stroke="none" fill="none" d="M 325.670,35.710 C 326.027,35.710 326.383,35.710 326.740,35.710 326.740,37.827 326.740,39.943 326.740,42.060 326.383,42.060 326.027,42.060 325.670,42.060 325.670,39.943 325.670,37.827 325.670,35.710 Z " />
  <path stroke="none" fill="none" d="M 213.670,64.000 C 212.305,65.270 210.532,66.011 208.670,66.090 205.427,66.033 202.183,65.977 198.940,65.920 197.110,64.823 195.280,63.727 193.450,62.630 194.153,60.297 194.857,57.963 195.560,55.630 204.077,55.630 212.593,55.630 221.110,55.630 218.630,58.420 216.150,61.210 213.670,64.000 Z M 186.500,54.700 C 185.639,54.699 184.941,54.001 184.941,53.140 184.941,52.279 185.639,51.581 186.500,51.580 190.460,51.580 194.420,51.580 198.380,51.580 198.938,51.580 199.453,51.877 199.732,52.360 200.011,52.842 200.011,53.437 199.732,53.920 199.453,54.403 198.938,54.700 198.380,54.700 194.420,54.700 190.460,54.700 186.500,54.700 Z M 206.000,51.580 C 209.960,51.580 213.920,51.580 217.880,51.580 218.741,51.581 219.439,52.279 219.439,53.140 219.439,54.001 218.741,54.699 217.880,54.700 213.920,54.700 209.960,54.700 206.000,54.700 205.139,54.699 204.441,54.001 204.441,53.140 204.441,52.279 205.139,51.581 206.000,51.580 206.000,51.580 206.000,51.580 206.000,51.580 Z M 230.340,50.910 C 211.190,50.910 192.040,50.910 172.890,50.910 173.973,51.133 175.057,51.357 176.140,51.580 177.279,51.657 178.163,52.604 178.163,53.745 178.163,54.886 177.279,55.833 176.140,55.910 175.233,55.973 174.327,56.037 173.420,56.100 173.573,56.927 173.727,57.753 173.880,58.580 174.987,58.580 176.093,58.580 177.200,58.580 176.997,60.070 176.793,61.560 176.590,63.050 177.500,64.050 178.410,65.050 179.320,66.050 178.213,68.213 177.107,70.377 176.000,72.540 174.503,72.360 173.007,72.180 171.510,72.000 169.350,75.667 167.190,79.333 165.030,83.000 163.920,85.350 165.460,86.270 165.770,86.430 169.437,88.430 173.103,90.430 176.770,92.430 178.240,93.140 179.440,93.340 180.110,92.970 180.391,92.804 180.601,92.541 180.700,92.230 178.237,89.487 175.773,86.743 173.310,84.000 175.997,78.973 178.683,73.947 181.370,68.920 184.633,68.920 187.897,68.920 191.160,68.920 191.367,68.587 191.573,68.253 191.780,67.920 197.633,67.920 203.487,67.920 209.340,67.920 211.124,68.067 212.908,67.628 214.420,66.670 217.863,63.057 221.307,59.443 224.750,55.830 226.583,55.860 228.417,55.890 230.250,55.920 233.917,55.233 237.583,54.547 241.250,53.860 242.167,54.543 243.083,55.227 244.000,55.910 257.960,55.910 271.920,55.910 285.880,55.910 286.770,56.300 287.660,56.690 288.550,57.080 299.923,57.080 311.297,57.080 322.670,57.080 322.670,54.580 322.670,52.080 322.670,49.580 296.133,49.580 269.597,49.580 243.060,49.580 238.820,50.023 234.580,50.467 230.340,50.910 Z " />
  <path stroke="none" fill="none" d="M 174.530,83.840 C 176.667,86.193 178.803,88.547 180.940,90.900 181.193,88.627 181.447,86.353 181.700,84.080 184.647,79.357 187.593,74.633 190.540,69.910 187.683,69.910 184.827,69.910 181.970,69.910 179.490,74.553 177.010,79.197 174.530,83.840 174.530,83.840 174.530,83.840 174.530,83.840 Z " />
  <path stroke="none" fill="none" d="M 138.420,52.790 C 141.477,53.223 144.533,53.657 147.590,54.090 147.590,53.143 147.590,52.197 147.590,51.250 144.533,51.250 141.477,51.250 138.420,51.250 138.420,51.763 138.420,52.277 138.420,52.790 138.420,52.790 138.420,52.790 138.420,52.790 Z " />
  <path stroke="none" fill="none" d="M 177.250,53.750 C 177.253,53.441 177.132,53.143 176.914,52.923 176.696,52.704 176.399,52.580 176.090,52.580 176.060,52.580 176.030,52.580 176.000,52.580 174.380,52.247 172.760,51.913 171.140,51.580 171.797,51.580 172.405,51.931 172.734,52.500 173.062,53.069 173.062,53.771 172.734,54.340 172.405,54.909 171.797,55.260 171.140,55.260 172.770,55.147 174.400,55.033 176.030,54.920 176.349,54.934 176.660,54.816 176.890,54.596 177.120,54.375 177.250,54.069 177.250,53.750 177.250,53.750 177.250,53.750 177.250,53.750 Z " />
  <path stroke="none" fill="none" d="M 178.070,66.240 C 177.430,65.530 176.790,64.820 176.150,64.110 174.787,66.417 173.423,68.723 172.060,71.030 173.170,71.173 174.280,71.317 175.390,71.460 176.283,69.720 177.177,67.980 178.070,66.240 178.070,66.240 178.070,66.240 178.070,66.240 Z " />
  <path stroke="none" fill="none" d="M 172.820,48.910 C 182.853,48.910 192.887,48.910 202.920,48.910 202.920,44.883 202.920,40.857 202.920,36.830 195.920,36.830 188.920,36.830 181.920,36.830 181.920,37.453 181.920,38.077 181.920,38.700 175.503,38.700 169.087,38.700 162.670,38.700 159.510,38.700 157.390,38.120 156.380,36.960 155.975,36.541 155.765,35.971 155.800,35.390 155.800,34.593 155.800,33.797 155.800,33.000 151.133,33.000 146.467,33.000 141.800,33.000 141.800,34.167 141.800,35.333 141.800,36.500 139.467,36.500 137.133,36.500 134.800,36.500 134.800,40.750 134.800,45.000 134.800,49.250 146.800,49.250 158.800,49.250 170.800,49.250 171.458,49.060 172.136,48.946 172.820,48.910 172.820,48.910 172.820,48.910 172.820,48.910 Z " />
  <path stroke="none" fill="none" d="M 221.590,39.210 C 221.570,38.877 221.550,38.543 221.530,38.210 221.550,38.210 221.570,38.210 221.590,38.210 223.076,38.210 224.450,39.003 225.193,40.290 225.936,41.577 225.936,43.163 225.193,44.450 224.450,45.737 223.076,46.530 221.590,46.530 221.570,46.197 221.550,45.863 221.530,45.530 222.659,45.541 223.708,44.948 224.282,43.976 224.856,43.004 224.867,41.799 224.312,40.816 223.757,39.833 222.719,39.221 221.590,39.210 221.590,39.210 221.590,39.210 221.590,39.210 Z M 226.590,48.910 C 226.590,43.633 226.590,38.357 226.590,33.080 219.033,33.080 211.477,33.080 203.920,33.080 203.920,38.357 203.920,43.633 203.920,48.910 211.477,48.910 219.033,48.910 226.590,48.910 Z " />
  <path stroke="none" fill="none" d="M 183.020,90.300 C 184.427,89.313 185.833,88.327 187.240,87.340 187.737,83.757 188.233,80.173 188.730,76.590 187.033,79.310 185.337,82.030 183.640,84.750 183.433,86.600 183.227,88.450 183.020,90.300 183.020,90.300 183.020,90.300 183.020,90.300 Z " />
  <path stroke="none" fill="none" d="M 139.760,30.500 C 139.771,29.941 139.599,29.393 139.270,28.940 139.137,28.801 138.961,28.713 138.770,28.690 137.437,29.580 136.103,30.470 134.770,31.360 134.770,32.407 134.770,33.453 134.770,34.500 136.437,34.500 138.103,34.500 139.770,34.500 139.767,33.167 139.763,31.833 139.760,30.500 Z " />
  <path stroke="none" fill="none" d="M 178.920,33.700 C 179.650,34.083 180.380,34.467 181.110,34.850 181.110,34.850 181.110,34.850 181.110,34.850 188.380,34.850 195.650,34.850 202.920,34.850 202.920,33.927 202.920,33.003 202.920,32.080 210.810,32.080 218.700,32.080 226.590,32.080 226.590,31.887 226.590,31.693 226.590,31.500 225.287,30.817 223.983,30.133 222.680,29.450 207.067,29.450 191.453,29.450 175.840,29.450 175.840,30.633 175.840,31.817 175.840,33.000 171.100,33.000 166.360,33.000 161.620,33.000 162.017,33.278 162.443,33.513 162.890,33.700 168.233,33.700 173.577,33.700 178.920,33.700 Z " />
  <path stroke="none" fill="none" d="M 162.670,37.700 C 168.753,37.700 174.837,37.700 180.920,37.700 180.920,37.093 180.920,36.487 180.920,35.880 180.170,35.487 179.420,35.093 178.670,34.700 173.337,34.700 168.003,34.700 162.670,34.700 162.520,34.650 158.940,33.290 158.620,29.860 158.013,29.860 157.407,29.860 156.800,29.860 156.800,31.733 156.800,33.607 156.800,35.480 156.788,35.816 156.923,36.141 157.170,36.370 157.740,37.000 159.160,37.700 162.670,37.700 162.670,37.700 162.670,37.700 162.670,37.700 Z " />
  <path stroke="none" fill="#ffffffff" d="M 179.860,18.570 C 178.731,18.574 177.710,17.897 177.275,16.855 176.840,15.812 177.077,14.611 177.874,13.811 178.671,13.011 179.872,12.770 180.915,13.201 181.959,13.633 182.640,14.651 182.640,15.780 182.643,16.520 182.351,17.231 181.830,17.756 181.309,18.281 180.600,18.577 179.860,18.580 179.860,18.577 179.860,18.573 179.860,18.570 Z M 179.860,12.000 C 178.325,11.996 176.940,12.918 176.350,14.335 175.761,15.752 176.085,17.385 177.170,18.470 178.255,19.555 179.888,19.879 181.305,19.290 182.722,18.700 183.644,17.315 183.640,15.780 183.635,13.695 181.945,12.006 179.860,12.000 179.860,12.000 179.860,12.000 179.860,12.000 Z " />
  <path stroke="none" fill="#ffffffff" d="M 197.000,57.620 C 199.513,57.620 202.027,57.620 204.540,57.620 204.540,58.770 204.880,62.070 207.910,63.340 208.167,62.723 208.423,62.107 208.680,61.490 206.760,60.690 206.550,58.410 206.540,57.620 209.897,57.620 213.253,57.620 216.610,57.620 215.147,59.287 213.683,60.953 212.220,62.620 211.212,63.494 209.942,64.008 208.610,64.080 205.560,64.027 202.510,63.973 199.460,63.920 198.230,63.183 197.000,62.447 195.770,61.710 196.180,60.347 196.590,58.983 197.000,57.620 Z M 193.400,62.620 C 195.230,63.717 197.060,64.813 198.890,65.910 202.133,65.967 205.377,66.023 208.620,66.080 210.482,66.001 212.255,65.260 213.620,63.990 216.083,61.213 218.547,58.437 221.010,55.660 212.510,55.660 204.010,55.660 195.510,55.660 194.807,57.980 194.103,60.300 193.400,62.620 Z " />
  <path stroke="none" fill="#ffffffff" d="M 326.700,42.070 C 326.343,42.070 325.987,42.070 325.630,42.070 325.630,39.950 325.630,37.830 325.630,35.710 325.987,35.710 326.343,35.710 326.700,35.710 326.700,37.830 326.700,39.950 326.700,42.070 Z M 323.630,44.450 C 322.590,44.450 321.550,44.450 320.510,44.450 320.510,40.743 320.510,37.037 320.510,33.330 321.550,33.330 322.590,33.330 323.630,33.330 323.630,37.037 323.630,40.743 323.630,44.450 Z M 322.630,49.580 C 322.630,52.080 322.630,54.580 322.630,57.080 311.270,57.080 299.910,57.080 288.550,57.080 287.660,56.690 286.770,56.300 285.880,55.910 271.920,55.910 257.960,55.910 244.000,55.910 243.083,55.223 242.167,54.537 241.250,53.850 237.583,54.537 233.917,55.223 230.250,55.910 228.417,55.880 226.583,55.850 224.750,55.820 221.307,59.433 217.863,63.047 214.420,66.660 212.908,67.618 211.124,68.057 209.340,67.910 203.487,67.910 197.633,67.910 191.780,67.910 191.573,68.243 191.367,68.577 191.160,68.910 187.897,68.910 184.633,68.910 181.370,68.910 178.683,73.940 175.997,78.970 173.310,84.000 175.790,86.727 178.270,89.453 180.750,92.180 180.651,92.491 180.441,92.754 180.160,92.920 179.490,93.290 178.290,93.090 176.820,92.380 173.153,90.380 169.487,88.380 165.820,86.380 165.510,86.220 163.970,85.300 165.080,82.950 167.240,79.283 169.400,75.617 171.560,71.950 173.043,72.140 174.527,72.330 176.010,72.520 177.113,70.367 178.217,68.213 179.320,66.060 178.410,65.060 177.500,64.060 176.590,63.060 176.793,61.570 176.997,60.080 177.200,58.590 176.093,58.590 174.987,58.590 173.880,58.590 173.727,57.763 173.573,56.937 173.420,56.110 174.327,56.047 175.233,55.983 176.140,55.920 177.279,55.843 178.163,54.896 178.163,53.755 178.163,52.614 177.279,51.667 176.140,51.590 175.057,51.367 173.973,51.143 172.890,50.920 192.040,50.920 211.190,50.920 230.340,50.920 234.580,50.477 238.820,50.033 243.060,49.590 269.583,49.587 296.107,49.583 322.630,49.580 Z M 277.000,57.910 C 279.807,57.910 282.613,57.910 285.420,57.910 286.310,58.300 287.200,58.690 288.090,59.080 295.127,59.080 302.163,59.080 309.200,59.080 303.497,59.830 297.793,60.580 292.090,61.330 289.300,61.440 285.820,61.250 285.090,60.750 282.393,59.803 279.697,58.857 277.000,57.910 Z M 323.300,64.000 C 323.060,69.240 319.460,69.420 319.050,69.420 317.830,69.560 316.610,69.700 315.390,69.840 314.927,67.973 314.463,66.107 314.000,64.240 313.565,62.677 312.063,61.658 310.450,61.830 310.450,61.830 310.450,61.830 310.450,61.830 302.243,62.913 294.037,63.997 285.830,65.080 284.952,65.141 284.135,65.551 283.560,66.217 282.986,66.884 282.701,67.753 282.770,68.630 282.930,70.217 283.090,71.803 283.250,73.390 280.514,73.299 277.798,72.883 275.160,72.150 272.047,70.353 268.933,68.557 265.820,66.760 265.213,65.217 264.607,63.673 264.000,62.130 263.904,61.142 264.190,60.154 264.800,59.370 265.116,59.037 265.551,58.842 266.010,58.830 268.537,58.830 271.063,58.830 273.590,58.830 277.087,60.050 280.583,61.270 284.080,62.490 285.890,63.490 291.080,63.370 292.260,63.320 301.110,62.157 309.960,60.993 318.810,59.830 320.115,59.765 321.389,60.243 322.330,61.150 322.995,61.947 323.341,62.963 323.300,64.000 323.300,64.000 323.300,64.000 323.300,64.000 Z M 284.840,73.330 C 284.657,73.340 284.473,73.340 284.290,73.330 284.123,71.720 283.957,70.110 283.790,68.500 283.600,66.430 285.740,66.080 285.990,66.050 294.177,64.967 302.363,63.883 310.550,62.800 311.673,62.640 312.743,63.331 313.060,64.420 313.503,66.280 313.947,68.140 314.390,70.000 304.540,71.110 294.690,72.220 284.840,73.330 Z M 181.750,84.120 C 181.497,86.393 181.243,88.667 180.990,90.940 178.853,88.587 176.717,86.233 174.580,83.880 177.053,79.223 179.527,74.567 182.000,69.910 184.857,69.910 187.713,69.910 190.570,69.910 187.630,74.647 184.690,79.383 181.750,84.120 Z M 187.290,87.380 C 185.883,88.380 184.477,89.380 183.070,90.380 183.277,88.533 183.483,86.687 183.690,84.840 185.387,82.120 187.083,79.400 188.780,76.680 188.283,80.247 187.787,83.813 187.290,87.380 Z M 176.200,64.150 C 176.840,64.860 177.480,65.570 178.120,66.280 177.227,68.020 176.333,69.760 175.440,71.500 174.313,71.333 173.187,71.167 172.060,71.000 173.440,68.717 174.820,66.433 176.200,64.150 Z M 171.200,55.290 C 170.543,55.290 169.935,54.939 169.607,54.370 169.278,53.801 169.278,53.099 169.607,52.530 169.935,51.961 170.543,51.610 171.200,51.610 172.820,51.943 174.440,52.277 176.060,52.610 176.093,52.610 176.127,52.610 176.160,52.610 176.602,52.569 177.029,52.782 177.263,53.159 177.497,53.536 177.497,54.014 177.263,54.391 177.029,54.768 176.602,54.981 176.160,54.940 174.507,55.057 172.853,55.173 171.200,55.290 Z M 134.800,49.290 C 134.800,45.027 134.800,40.763 134.800,36.500 137.133,36.500 139.467,36.500 141.800,36.500 141.800,35.333 141.800,34.167 141.800,33.000 146.467,33.000 151.133,33.000 155.800,33.000 155.800,33.797 155.800,34.593 155.800,35.390 155.765,35.971 155.975,36.541 156.380,36.960 157.380,38.120 159.510,38.700 162.670,38.700 169.087,38.700 175.503,38.700 181.920,38.700 181.920,38.077 181.920,37.453 181.920,36.830 188.920,36.830 195.920,36.830 202.920,36.830 202.920,40.857 202.920,44.883 202.920,48.910 192.887,48.910 182.853,48.910 172.820,48.910 172.109,48.940 171.404,49.054 170.720,49.250 158.747,49.263 146.773,49.277 134.800,49.290 Z M 147.630,54.130 C 144.573,53.697 141.517,53.263 138.460,52.830 138.460,52.303 138.460,51.777 138.460,51.250 141.517,51.250 144.573,51.250 147.630,51.250 147.630,52.210 147.630,53.170 147.630,54.130 Z M 134.800,34.450 C 134.800,33.450 134.800,32.450 134.800,31.450 136.133,30.560 137.467,29.670 138.800,28.780 138.991,28.803 139.167,28.891 139.300,29.030 139.629,29.483 139.801,30.031 139.790,30.590 139.790,31.923 139.790,33.257 139.790,34.590 138.123,34.590 136.457,34.590 134.790,34.590 134.793,34.543 134.797,34.497 134.800,34.450 Z M 156.800,35.450 C 156.800,33.577 156.800,31.703 156.800,29.830 157.390,29.830 157.980,29.830 158.570,29.830 158.890,33.260 162.470,34.620 162.620,34.670 167.953,34.670 173.287,34.670 178.620,34.670 179.370,35.063 180.120,35.457 180.870,35.850 180.870,36.467 180.870,37.083 180.870,37.700 174.803,37.700 168.737,37.700 162.670,37.700 159.160,37.700 157.740,36.960 157.170,36.340 156.923,36.111 156.788,35.786 156.800,35.450 156.800,35.450 156.800,35.450 156.800,35.450 Z M 226.580,33.080 C 226.580,38.357 226.580,43.633 226.580,48.910 219.027,48.910 211.473,48.910 203.920,48.910 203.920,43.633 203.920,38.357 203.920,33.080 211.473,33.080 219.027,33.080 226.580,33.080 Z M 170.000,33.000 C 171.943,33.000 173.887,33.000 175.830,33.000 175.830,31.817 175.830,30.633 175.830,29.450 191.443,29.450 207.057,29.450 222.670,29.450 223.973,30.133 225.277,30.817 226.580,31.500 226.580,31.693 226.580,31.887 226.580,32.080 218.693,32.080 210.807,32.080 202.920,32.080 202.920,32.997 202.920,33.913 202.920,34.830 195.650,34.830 188.380,34.830 181.110,34.830 181.110,34.830 181.110,34.830 181.110,34.830 180.380,34.447 179.650,34.063 178.920,33.680 173.587,33.680 168.253,33.680 162.920,33.680 162.473,33.493 162.047,33.258 161.650,32.980 164.433,32.987 167.217,32.993 170.000,33.000 Z M 186.500,24.830 C 186.500,25.703 186.500,26.577 186.500,27.450 182.947,27.450 179.393,27.450 175.840,27.450 175.840,27.410 175.840,27.370 175.840,27.330 177.290,26.497 178.740,25.663 180.190,24.830 182.293,24.830 184.397,24.830 186.500,24.830 Z M 179.650,22.830 C 177.713,23.943 175.777,25.057 173.840,26.170 173.840,27.780 173.840,29.390 173.840,31.000 172.893,31.000 171.947,31.000 171.000,31.000 171.000,28.027 171.000,25.053 171.000,22.080 177.723,22.080 184.447,22.080 191.170,22.080 191.170,23.870 191.170,25.660 191.170,27.450 190.280,27.450 189.390,27.450 188.500,27.450 188.500,25.910 188.500,24.370 188.500,22.830 185.550,22.830 182.600,22.830 179.650,22.830 Z M 168.210,20.080 C 168.210,19.810 168.210,19.540 168.210,19.270 169.733,19.270 171.257,19.270 172.780,19.270 172.843,19.270 172.907,19.270 172.970,19.270 173.070,19.270 175.340,18.760 175.340,15.420 175.340,14.120 175.340,12.820 175.340,11.520 176.110,11.520 176.880,11.520 177.650,11.520 177.650,10.770 177.650,10.020 177.650,9.270 179.253,9.270 180.857,9.270 182.460,9.270 182.460,10.020 182.460,10.770 182.460,11.520 183.233,11.520 184.007,11.520 184.780,11.520 184.780,12.813 184.780,14.107 184.780,15.400 184.780,18.740 187.050,19.230 187.140,19.250 188.727,19.250 190.313,19.250 191.900,19.250 191.900,19.520 191.900,19.790 191.900,20.060 184.003,20.067 176.107,20.073 168.210,20.080 Z M 166.210,18.000 C 166.167,18.000 166.123,18.000 166.080,18.000 163.360,18.530 160.640,19.060 157.920,19.590 157.920,17.003 157.920,14.417 157.920,11.830 160.587,12.353 163.253,12.877 165.920,13.400 168.407,13.400 170.893,13.400 173.380,13.400 173.380,14.067 173.380,14.733 173.380,15.400 173.380,16.810 172.830,17.190 172.660,17.270 170.523,17.270 168.387,17.270 166.250,17.270 166.237,17.513 166.223,17.757 166.210,18.000 Z M 176.170,3.880 C 176.170,3.513 176.170,3.147 176.170,2.780 178.810,2.780 181.450,2.780 184.090,2.780 184.090,3.147 184.090,3.513 184.090,3.880 181.450,3.880 178.810,3.880 176.170,3.880 Z M 186.780,13.400 C 192.493,13.400 198.207,13.400 203.920,13.400 203.920,14.933 203.920,16.467 203.920,18.000 200.587,18.000 197.253,18.000 193.920,18.000 193.920,17.757 193.920,17.513 193.920,17.270 191.787,17.270 189.653,17.270 187.520,17.270 187.320,17.170 186.800,16.780 186.800,15.400 186.793,14.733 186.787,14.067 186.780,13.400 Z M 204.920,13.400 C 206.253,13.400 207.587,13.400 208.920,13.400 208.920,14.933 208.920,16.467 208.920,18.000 207.587,18.000 206.253,18.000 204.920,18.000 204.920,16.467 204.920,14.933 204.920,13.400 Z M 228.590,30.200 C 229.060,30.200 229.530,30.200 230.000,30.200 230.000,36.253 230.000,42.307 230.000,48.360 229.530,48.360 229.060,48.360 228.590,48.360 228.590,42.307 228.590,36.253 228.590,30.200 Z M 232.000,32.200 C 234.000,32.200 236.000,32.200 238.000,32.200 238.057,32.200 238.113,32.200 238.170,32.200 260.573,32.200 282.977,32.200 305.380,32.200 305.423,32.200 305.467,32.200 305.510,32.200 307.007,32.200 308.503,32.200 310.000,32.200 310.000,32.533 310.000,32.867 310.000,33.200 310.667,33.200 311.333,33.200 312.000,33.200 312.000,32.867 312.000,32.533 312.000,32.200 312.460,32.200 312.920,32.200 313.380,32.200 313.380,37.327 313.380,42.453 313.380,47.580 289.920,47.580 266.460,47.580 243.000,47.580 239.333,47.963 235.667,48.347 232.000,48.730 232.000,43.220 232.000,37.710 232.000,32.200 Z M 241.880,29.330 C 261.950,29.330 282.020,29.330 302.090,29.330 302.727,29.940 303.363,30.550 304.000,31.160 282.613,31.160 261.227,31.160 239.840,31.160 240.520,30.550 241.200,29.940 241.880,29.330 Z M 312.000,28.160 C 311.926,27.440 312.142,26.720 312.600,26.160 312.860,25.929 313.205,25.820 313.550,25.860 315.100,25.910 315.660,28.510 315.750,28.950 315.750,29.367 315.750,29.783 315.750,30.200 314.500,30.200 313.250,30.200 312.000,30.200 312.000,29.520 312.000,28.840 312.000,28.160 Z M 317.760,33.430 C 317.760,33.020 317.760,32.610 317.760,32.200 318.013,32.200 318.267,32.200 318.520,32.200 318.520,37.327 318.520,42.453 318.520,47.580 317.143,47.580 315.767,47.580 314.390,47.580 314.390,42.453 314.390,37.327 314.390,32.200 314.847,32.200 315.303,32.200 315.760,32.200 315.760,32.603 315.760,33.007 315.760,33.410 316.427,33.417 317.093,33.423 317.760,33.430 Z M 132.760,36.520 C 132.760,41.150 132.760,45.780 132.760,50.410 132.760,50.410 132.760,50.410 132.760,50.410 132.760,50.773 132.760,51.137 132.760,51.500 131.317,51.500 129.873,51.500 128.430,51.500 129.023,49.943 129.617,48.387 130.210,46.830 128.210,46.830 126.210,46.830 124.210,46.830 123.807,46.473 123.403,46.117 123.000,45.760 123.000,41.507 123.000,37.253 123.000,33.000 123.293,33.000 123.587,33.000 123.880,33.000 125.837,33.000 127.793,33.000 129.750,33.000 129.750,33.693 129.750,34.387 129.750,35.080 130.750,35.080 131.750,35.080 132.750,35.080 132.753,35.560 132.757,36.040 132.760,36.520 Z M 126.250,54.350 C 124.833,54.350 123.417,54.350 122.000,54.350 122.000,51.637 122.000,48.923 122.000,46.210 122.593,46.750 123.187,47.290 123.780,47.830 125.427,47.830 127.073,47.830 128.720,47.830 127.897,50.003 127.073,52.177 126.250,54.350 Z M 113.850,49.000 C 115.097,44.927 116.343,40.853 117.590,36.780 117.860,36.007 118.130,35.233 118.400,34.460 119.267,34.460 120.133,34.460 121.000,34.460 121.000,38.263 121.000,42.067 121.000,45.870 121.000,45.870 121.000,45.870 121.000,45.870 121.000,46.913 121.000,47.957 121.000,49.000 118.617,49.000 116.233,49.000 113.850,49.000 Z M 110.000,51.090 C 101.333,52.373 92.667,53.657 84.000,54.940 78.440,60.877 72.880,66.813 67.320,72.750 66.987,72.750 66.653,72.750 66.320,72.750 65.750,73.320 65.180,73.890 64.610,74.460 64.610,75.127 64.610,75.793 64.610,76.460 62.553,76.460 60.497,76.460 58.440,76.460 58.000,73.030 56.440,60.290 56.190,53.550 55.940,46.810 56.530,35.330 56.700,31.960 58.440,31.960 60.180,31.960 61.920,31.960 62.587,38.043 63.253,44.127 63.920,50.210 70.127,50.210 76.333,50.210 82.540,50.210 81.077,48.743 79.613,47.277 78.150,45.810 74.997,45.810 71.843,45.810 68.690,45.810 68.690,43.650 68.690,41.490 68.690,39.330 83.840,39.330 98.990,39.330 114.140,39.330 115.017,36.627 115.893,33.923 116.770,31.220 116.907,31.220 117.043,31.220 117.180,31.220 116.683,32.847 116.187,34.473 115.690,36.100 113.980,41.023 112.270,45.947 110.560,50.870 110.386,50.971 110.197,51.045 110.000,51.090 110.000,51.090 110.000,51.090 110.000,51.090 Z M 66.690,34.440 C 66.690,38.910 66.690,43.380 66.690,47.850 70.233,47.850 73.777,47.850 77.320,47.850 77.450,47.983 77.580,48.117 77.710,48.250 73.710,48.250 69.710,48.250 65.710,48.250 65.207,43.647 64.703,39.043 64.200,34.440 65.030,34.440 65.860,34.440 66.690,34.440 Z M 69.200,30.280 C 84.467,30.280 99.733,30.280 115.000,30.280 114.240,32.613 113.480,34.947 112.720,37.280 98.053,37.280 83.387,37.280 68.720,37.280 68.720,35.117 68.720,32.953 68.720,30.790 68.880,30.620 69.040,30.450 69.200,30.280 Z M 156.920,19.580 C 153.973,19.580 151.027,19.580 148.080,19.580 148.080,16.987 148.080,14.393 148.080,11.800 151.027,11.800 153.973,11.800 156.920,11.800 156.920,14.393 156.920,16.987 156.920,19.580 Z M 146.080,19.580 C 146.080,19.580 146.080,19.580 146.080,19.580 146.080,20.053 146.080,20.527 146.080,21.000 145.293,21.000 144.507,21.000 143.720,21.000 143.720,17.477 143.720,13.953 143.720,10.430 144.507,10.430 145.293,10.430 146.080,10.430 146.080,10.887 146.080,11.343 146.080,11.800 146.080,11.800 146.080,11.800 146.080,11.800 146.080,14.393 146.080,16.987 146.080,19.580 Z M 210.920,11.710 C 211.727,11.710 212.533,11.710 213.340,11.710 213.340,14.350 213.340,16.990 213.340,19.630 212.533,19.630 211.727,19.630 210.920,19.630 210.920,16.990 210.920,14.350 210.920,11.710 Z M 325.670,33.710 C 325.670,32.917 325.670,32.123 325.670,31.330 323.963,31.330 322.257,31.330 320.550,31.330 320.550,30.953 320.550,30.577 320.550,30.200 319.630,30.200 318.710,30.200 317.790,30.200 317.790,29.693 317.790,29.187 317.790,28.680 317.520,26.920 316.360,23.920 313.790,23.840 312.912,23.753 312.037,24.032 311.370,24.610 310.412,25.533 309.911,26.833 310.000,28.160 310.000,28.827 310.000,29.493 310.000,30.160 308.597,30.160 307.193,30.160 305.790,30.160 304.860,29.217 303.930,28.273 303.000,27.330 282.390,27.330 261.780,27.330 241.170,27.330 240.087,28.280 239.003,29.230 237.920,30.180 235.947,30.180 233.973,30.180 232.000,30.180 232.000,29.513 232.000,28.847 232.000,28.180 230.197,28.180 228.393,28.180 226.590,28.180 226.590,28.513 226.590,28.847 226.590,29.180 225.450,28.580 224.310,27.980 223.170,27.380 213.170,27.380 203.170,27.380 193.170,27.380 193.170,25.613 193.170,23.847 193.170,22.080 193.413,22.080 193.657,22.080 193.900,22.080 193.900,21.387 193.900,20.693 193.900,20.000 198.900,20.000 203.900,20.000 208.900,20.000 208.900,20.557 208.900,21.113 208.900,21.670 211.040,21.670 213.180,21.670 215.320,21.670 215.320,17.697 215.320,13.723 215.320,9.750 213.180,9.750 211.040,9.750 208.900,9.750 208.900,10.307 208.900,10.863 208.900,11.420 201.527,11.420 194.153,11.420 186.780,11.420 186.780,10.787 186.780,10.153 186.780,9.520 186.007,9.520 185.233,9.520 184.460,9.520 184.460,8.770 184.460,8.020 184.460,7.270 183.513,7.270 182.567,7.270 181.620,7.270 181.620,6.807 181.620,6.343 181.620,5.880 183.110,5.880 184.600,5.880 186.090,5.880 186.090,4.180 186.090,2.480 186.090,0.780 182.117,0.780 178.143,0.780 174.170,0.780 174.170,2.480 174.170,4.180 174.170,5.880 175.660,5.880 177.150,5.880 178.640,5.880 178.640,6.343 178.640,6.807 178.640,7.270 177.640,7.270 176.640,7.270 175.640,7.270 175.640,8.020 175.640,8.770 175.640,9.520 174.870,9.520 174.100,9.520 173.330,9.520 173.330,10.153 173.330,10.787 173.330,11.420 170.940,11.420 168.550,11.420 166.160,11.420 163.453,10.887 160.747,10.353 158.040,9.820 154.707,9.820 151.373,9.820 148.040,9.820 148.040,9.357 148.040,8.893 148.040,8.430 145.920,8.430 143.800,8.430 141.680,8.430 141.680,13.287 141.680,18.143 141.680,23.000 143.800,23.000 145.920,23.000 148.040,23.000 148.040,22.557 148.040,22.113 148.040,21.670 148.040,21.670 148.040,21.670 148.040,21.670 148.040,21.653 148.040,21.637 148.040,21.620 151.297,21.620 154.553,21.620 157.810,21.620 160.597,21.080 163.383,20.540 166.170,20.000 166.170,20.000 166.170,20.000 166.170,20.000 166.170,20.693 166.170,21.387 166.170,22.080 167.113,22.080 168.057,22.080 169.000,22.080 169.000,25.053 169.000,28.027 169.000,31.000 165.970,31.000 162.940,31.000 159.910,31.000 159.671,30.476 159.548,29.906 159.550,29.330 159.550,29.163 159.550,28.997 159.550,28.830 158.300,28.830 157.050,28.830 155.800,28.830 155.800,29.553 155.800,30.277 155.800,31.000 151.117,31.000 146.433,31.000 141.750,31.000 141.750,30.843 141.750,30.687 141.750,30.530 141.801,29.440 141.444,28.371 140.750,27.530 140.170,26.944 139.375,26.622 138.550,26.640 138.447,26.640 138.343,26.640 138.240,26.640 136.427,27.850 134.613,29.060 132.800,30.270 132.800,31.200 132.800,32.130 132.800,33.060 132.467,33.060 132.133,33.060 131.800,33.060 131.800,32.373 131.800,31.687 131.800,31.000 128.910,31.000 126.020,31.000 123.130,31.000 122.420,31.390 121.710,31.780 121.000,32.170 121.000,32.260 121.000,32.350 121.000,32.440 120.300,32.440 119.600,32.440 118.900,32.440 119.203,31.457 119.507,30.473 119.810,29.490 119.037,29.420 118.263,29.350 117.490,29.280 117.490,28.947 117.490,28.613 117.490,28.280 101.117,28.280 84.743,28.280 68.370,28.280 67.810,28.853 67.250,29.427 66.690,30.000 66.690,30.827 66.690,31.653 66.690,32.480 65.793,32.480 64.897,32.480 64.000,32.480 63.903,31.653 63.807,30.827 63.710,30.000 60.740,30.000 57.770,30.000 54.800,30.000 54.800,30.313 54.800,30.627 54.800,30.940 54.800,31.090 53.990,45.770 54.240,53.660 54.490,61.550 56.600,77.470 56.620,77.660 56.660,77.950 56.700,78.240 56.740,78.530 60.030,78.530 63.320,78.530 66.610,78.530 66.610,77.450 66.610,76.370 66.610,75.290 66.790,75.110 66.970,74.930 67.150,74.750 67.510,74.750 67.870,74.750 68.230,74.750 73.797,68.770 79.363,62.790 84.930,56.810 93.390,55.560 101.850,54.310 110.310,53.060 111.542,52.874 112.610,52.108 113.180,51.000 115.787,51.000 118.393,51.000 121.000,51.000 121.000,52.450 121.000,53.900 121.000,55.350 122.973,55.350 124.947,55.350 126.920,55.350 127.153,54.740 127.387,54.130 127.620,53.520 129.987,53.520 132.353,53.520 134.720,53.520 134.720,52.763 134.720,52.007 134.720,51.250 135.280,51.250 135.840,51.250 136.400,51.250 136.400,52.343 136.400,53.437 136.400,54.530 140.790,55.153 145.180,55.777 149.570,56.400 149.570,54.683 149.570,52.967 149.570,51.250 155.320,51.250 161.070,51.250 166.820,51.250 166.820,52.360 166.820,53.470 166.820,54.580 167.180,56.720 170.120,57.520 171.620,57.790 171.793,58.720 171.967,59.650 172.140,60.580 173.037,60.580 173.933,60.580 174.830,60.580 174.723,61.357 174.617,62.133 174.510,62.910 170.763,69.273 167.017,75.637 163.270,82.000 162.620,83.187 162.480,84.587 162.880,85.880 163.239,86.858 163.953,87.664 164.880,88.140 168.547,90.140 172.213,92.140 175.880,94.140 176.946,94.705 178.125,95.026 179.330,95.080 179.962,95.092 180.587,94.936 181.140,94.630 181.757,94.273 182.241,93.726 182.520,93.070 184.707,91.537 186.893,90.003 189.080,88.470 189.820,83.137 190.560,77.803 191.300,72.470 191.823,71.630 192.347,70.790 192.870,69.950 198.320,69.950 203.770,69.950 209.220,69.950 211.500,70.129 213.774,69.530 215.670,68.250 218.970,64.793 222.270,61.337 225.570,57.880 227.180,57.903 228.790,57.927 230.400,57.950 233.853,57.300 237.307,56.650 240.760,56.000 241.620,56.643 242.480,57.287 243.340,57.930 250.047,57.930 256.753,57.930 263.460,57.930 262.385,59.145 261.873,60.757 262.050,62.370 262.050,62.427 262.050,62.483 262.050,62.540 262.780,64.410 263.510,66.280 264.240,68.150 267.593,70.100 270.947,72.050 274.300,74.000 274.370,74.030 274.440,74.060 274.510,74.090 277.442,74.913 280.466,75.363 283.510,75.430 284.030,75.430 284.510,75.430 285.070,75.370 296.437,74.080 307.803,72.790 319.170,71.500 319.910,71.500 325.030,70.980 325.330,64.230 325.389,63.151 325.176,62.075 324.710,61.100 324.710,56.593 324.710,52.087 324.710,47.580 323.337,47.580 321.963,47.580 320.590,47.580 320.590,47.203 320.590,46.827 320.590,46.450 322.297,46.450 324.003,46.450 325.710,46.450 325.710,45.657 325.710,44.863 325.710,44.070 326.733,44.070 327.757,44.070 328.780,44.070 328.780,40.617 328.780,37.163 328.780,33.710 327.743,33.710 326.707,33.710 325.670,33.710 Z " />
  <path stroke="none" fill="#ffffffff" d="M 239.120,35.250 C 260.327,35.250 281.533,35.250 302.740,35.250 303.370,35.670 304.000,36.090 304.630,36.510 303.707,36.950 302.783,37.390 301.860,37.830 280.980,37.830 260.100,37.830 239.220,37.830 238.480,37.407 237.740,36.983 237.000,36.560 237.707,36.123 238.413,35.687 239.120,35.250 Z M 302.120,38.830 C 303.640,38.103 305.160,37.377 306.680,36.650 305.477,35.850 304.273,35.050 303.070,34.250 281.667,34.250 260.263,34.250 238.860,34.250 237.573,35.030 236.287,35.810 235.000,36.590 236.333,37.337 237.667,38.083 239.000,38.830 260.040,38.830 281.080,38.830 302.120,38.830 Z " />
  <path stroke="none" fill="#ffffffff" d="M 236.470,43.330 C 235.727,42.907 234.983,42.483 234.240,42.060 234.960,41.623 235.680,41.187 236.400,40.750 257.600,40.750 278.800,40.750 300.000,40.750 300.637,41.167 301.273,41.583 301.910,42.000 300.987,42.440 300.063,42.880 299.140,43.320 278.250,43.323 257.360,43.327 236.470,43.330 Z M 303.930,42.150 C 302.727,41.350 301.523,40.550 300.320,39.750 278.917,39.750 257.513,39.750 236.110,39.750 234.830,40.530 233.550,41.310 232.270,42.090 233.583,42.837 234.897,43.583 236.210,44.330 257.263,44.330 278.317,44.330 299.370,44.330 300.890,43.603 302.410,42.877 303.930,42.150 Z " />
  <path stroke="none" fill="#ffffffff" d="M 311.460,45.410 C 311.433,45.077 311.407,44.743 311.380,44.410 309.676,44.489 308.067,43.625 307.192,42.162 306.316,40.698 306.316,38.872 307.192,37.408 308.067,35.945 309.676,35.081 311.380,35.160 311.407,35.160 311.433,35.160 311.460,35.160 311.433,34.827 311.407,34.493 311.380,34.160 309.314,34.089 307.375,35.156 306.330,36.939 305.284,38.722 305.300,40.935 306.371,42.703 307.441,44.471 309.395,45.511 311.460,45.410 311.460,45.410 311.460,45.410 311.460,45.410 Z " />
  <path stroke="none" fill="#ffffffff" d="M 221.530,45.530 C 221.550,45.863 221.570,46.197 221.590,46.530 220.104,46.530 218.731,45.737 217.987,44.450 217.244,43.163 217.244,41.577 217.987,40.290 218.731,39.003 220.104,38.210 221.590,38.210 221.570,38.210 221.550,38.210 221.530,38.210 221.550,38.543 221.570,38.877 221.590,39.210 222.719,39.221 223.757,39.833 224.312,40.816 224.867,41.799 224.856,43.003 224.282,43.976 223.708,44.948 222.659,45.541 221.530,45.530 221.530,45.530 221.530,45.530 221.530,45.530 Z " />
  <path stroke="none" fill="#ffffffff" d="M 206.000,52.580 C 209.960,52.580 213.920,52.580 217.880,52.580 218.080,52.580 218.265,52.686 218.366,52.860 218.466,53.033 218.466,53.247 218.366,53.420 218.265,53.594 218.080,53.700 217.880,53.700 213.920,53.700 209.960,53.700 206.000,53.700 205.691,53.700 205.441,53.449 205.441,53.140 205.441,52.831 205.691,52.580 206.000,52.580 206.000,52.580 206.000,52.580 206.000,52.580 Z M 206.000,54.700 C 209.960,54.700 213.920,54.700 217.880,54.700 218.741,54.699 219.439,54.001 219.439,53.140 219.439,52.279 218.741,51.581 217.880,51.580 213.920,51.580 209.960,51.580 206.000,51.580 205.139,51.581 204.441,52.279 204.441,53.140 204.441,54.001 205.139,54.699 206.000,54.700 206.000,54.700 206.000,54.700 206.000,54.700 Z " />
  <path stroke="none" fill="#ffffffff" d="M 185.920,53.140 C 185.920,52.831 186.171,52.580 186.480,52.580 190.440,52.580 194.400,52.580 198.360,52.580 198.560,52.580 198.745,52.686 198.846,52.860 198.946,53.033 198.946,53.247 198.846,53.420 198.745,53.594 198.560,53.700 198.360,53.700 194.400,53.700 190.440,53.700 186.480,53.700 186.171,53.700 185.920,53.449 185.920,53.140 185.920,53.140 185.920,53.140 185.920,53.140 Z M 199.920,53.140 C 199.920,52.278 199.222,51.580 198.360,51.580 194.400,51.580 190.440,51.580 186.480,51.580 185.619,51.581 184.921,52.279 184.921,53.140 184.921,54.001 185.619,54.699 186.480,54.700 190.440,54.700 194.400,54.700 198.360,54.700 199.222,54.700 199.920,54.002 199.920,53.140 199.920,53.140 199.920,53.140 199.920,53.140 Z " />
  <path stroke="none" fill="#ffffffff" d="M 319.920,63.000 C 319.345,63.000 318.826,63.347 318.607,63.879 318.388,64.411 318.511,65.022 318.920,65.428 319.328,65.833 319.940,65.952 320.470,65.729 321.001,65.506 321.344,64.985 321.340,64.410 321.335,63.630 320.700,63.000 319.920,63.000 319.920,63.000 319.920,63.000 319.920,63.000 Z " />
  <path stroke="none" fill="#ffffffff" d="M 78.000,55.250 C 73.967,55.250 69.933,55.250 65.900,55.250 65.751,55.274 65.602,55.209 65.520,55.083 65.438,54.956 65.438,54.794 65.520,54.667 65.602,54.541 65.751,54.476 65.900,54.500 69.933,54.500 73.967,54.500 78.000,54.500 78.149,54.476 78.298,54.541 78.380,54.667 78.462,54.794 78.462,54.956 78.380,55.083 78.298,55.209 78.149,55.274 78.000,55.250 78.000,55.250 78.000,55.250 78.000,55.250 Z M 78.000,52.500 C 73.967,52.500 69.933,52.500 65.900,52.500 65.015,52.443 64.171,52.882 63.711,53.641 63.251,54.399 63.251,55.351 63.711,56.109 64.171,56.868 65.015,57.307 65.900,57.250 69.933,57.250 73.967,57.250 78.000,57.250 78.885,57.307 79.729,56.868 80.189,56.109 80.649,55.351 80.649,54.399 80.189,53.641 79.729,52.882 78.885,52.443 78.000,52.500 78.000,52.500 78.000,52.500 78.000,52.500 Z " />
  <path stroke="none" fill="#ffffffff" d="M 67.560,67.630 C 67.560,67.120 67.560,66.610 67.560,66.100 68.590,65.583 69.620,65.067 70.650,64.550 69.620,65.577 68.590,66.603 67.560,67.630 Z M 73.000,61.150 C 70.890,62.203 68.780,63.257 66.670,64.310 65.987,64.649 65.557,65.347 65.560,66.110 65.560,66.617 65.560,67.123 65.560,67.630 65.558,68.447 66.052,69.184 66.810,69.490 67.054,69.592 67.315,69.646 67.580,69.650 68.114,69.648 68.626,69.432 69.000,69.050 70.880,67.173 72.760,65.297 74.640,63.420 75.126,62.926 75.185,62.154 74.780,61.592 74.374,61.030 73.622,60.843 73.000,61.150 73.000,61.150 73.000,61.150 73.000,61.150 Z " />
</svg>