<?xml version="1.0" encoding="UTF-8" standalone="no"?>
<!DOCTYPE svg PUBLIC "-//W3C//DTD SVG 20010904//EN" "http://www.w3.org/TR/2001/REC-SVG-20010904/DTD/svg10.dtd"[]>
<svg version="1.1" id="Frosty Editor v1.0.6.3" xmlns="http://www.w3.org/2000/svg" d1p1:xlink="http://www.w3.org/1999/xlink" viewBox="0 0 25 25" xmlns:d1p1="xmlns">
  <path stroke="none" fill="#ffffffff" d="M 16.691,5.178 C 16.505,5.641 16.318,6.104 16.132,6.567 16.132,6.656 16.132,6.656 16.132,6.656 22.044,6.656 22.044,6.656 22.044,6.656 22.044,6.567 22.044,6.567 22.044,6.567 21.857,6.104 21.671,5.641 21.484,5.178 Z M 6.812,6.922 C 6.812,7.175 6.812,7.175 6.812,7.175 7.769,7.175 7.769,7.175 7.769,7.175 7.769,6.922 7.769,6.922 7.769,6.922 Z M 16.132,7.079 C 16.132,12.780 16.132,12.780 16.132,12.780 16.132,13.413 16.132,13.413 16.132,13.413 16.132,14.920 16.132,14.920 16.132,14.920 16.727,13.901 17.819,13.208 19.074,13.172 19.104,13.171 19.135,13.172 19.165,13.172 20.327,13.172 21.396,13.748 22.044,14.676 22.044,13.413 22.044,13.413 22.044,13.413 22.044,7.079 22.044,7.079 22.044,7.079 Z M 6.376,7.423 C 6.376,8.134 6.376,8.134 6.376,8.134 6.644,8.330 6.965,8.440 7.297,8.449 7.302,8.449 7.302,8.449 7.302,8.449 7.634,8.440 7.956,8.330 8.224,8.134 8.224,7.423 8.224,7.423 8.224,7.423 Z M 19.103,7.643 C 19.109,7.643 19.115,7.643 19.120,7.643 19.387,7.643 19.627,7.803 19.729,8.049 19.831,8.296 19.773,8.578 19.585,8.767 19.397,8.955 19.114,9.012 18.868,8.910 18.622,8.808 18.461,8.569 18.461,8.302 18.462,7.944 18.748,7.653 19.103,7.643 Z M 6.134,7.882 C 4.276,8.347 2.867,9.863 2.538,11.750 2.703,11.750 3.002,11.750 3.183,11.770 3.472,11.769 3.761,11.768 4.049,11.768 4.073,11.553 4.097,11.337 4.121,11.122 4.128,11.060 4.181,11.014 4.244,11.014 5.255,11.014 5.255,11.014 5.255,11.014 5.358,10.416 5.625,9.107 6.134,8.208 6.133,8.198 6.133,8.189 6.134,8.179 Z M 8.477,7.890 C 8.477,8.196 8.477,8.196 8.477,8.196 8.478,8.205 8.478,8.215 8.477,8.224 8.980,9.115 9.277,10.424 9.392,11.021 10.416,11.021 10.416,11.021 10.416,11.021 10.479,11.022 10.530,11.069 10.538,11.131 10.564,11.343 10.591,11.557 10.618,11.770 12.041,11.770 12.041,11.770 12.041,11.770 11.721,9.887 10.326,8.368 8.477,7.890 Z M 6.320,8.403 C 5.703,9.532 5.455,11.360 5.452,11.375 5.451,11.379 5.450,11.381 5.449,11.384 5.442,11.477 5.435,11.571 5.429,11.664 9.225,11.664 9.225,11.664 9.225,11.664 9.218,11.575 9.212,11.486 9.205,11.397 9.205,11.390 9.205,11.382 9.205,11.375 9.205,11.357 8.905,9.526 8.284,8.403 7.994,8.593 7.656,8.698 7.309,8.704 7.296,8.704 7.296,8.704 7.296,8.704 6.949,8.698 6.610,8.594 6.320,8.403 Z M 7.311,9.073 C 7.743,9.074 8.092,9.426 8.093,9.858 8.093,10.290 7.744,10.641 7.312,10.642 6.879,10.644 6.527,10.295 6.524,9.862 6.524,9.429 6.876,9.079 7.309,9.078 7.309,9.076 7.311,9.075 7.311,9.073 Z M 7.295,9.326 C 7.005,9.334 6.773,9.571 6.773,9.862 6.773,10.159 7.013,10.399 7.309,10.399 7.605,10.399 7.845,10.159 7.845,9.862 7.845,9.566 7.605,9.326 7.309,9.326 7.304,9.326 7.299,9.326 7.295,9.326 Z M 18.243,9.402 C 20.144,9.402 20.144,9.402 20.144,9.402 20.144,12.780 20.144,12.780 20.144,12.780 19.511,12.780 19.511,12.780 19.511,12.780 18.243,12.780 18.243,12.780 18.243,12.780 Z M 18.666,9.823 C 18.666,12.357 18.666,12.357 18.666,12.357 19.721,12.357 19.721,12.357 19.721,12.357 19.721,9.823 19.721,9.823 19.721,9.823 Z M 9.452,11.268 C 9.467,11.440 9.481,11.611 9.496,11.782 9.498,11.817 9.487,11.851 9.464,11.876 9.440,11.901 9.406,11.915 9.372,11.915 5.295,11.915 5.295,11.915 5.295,11.915 5.261,11.915 5.227,11.901 5.204,11.876 5.180,11.851 5.168,11.817 5.170,11.782 5.181,11.611 5.193,11.441 5.204,11.269 4.354,11.269 4.354,11.269 4.354,11.269 4.327,11.482 4.301,11.696 4.275,11.909 4.267,11.971 4.215,12.016 4.153,12.017 3.311,12.017 3.311,12.017 3.311,12.017 3.279,12.262 3.262,12.510 3.259,12.758 3.288,13.076 3.338,13.391 3.408,13.702 4.049,13.702 4.049,13.702 4.049,13.702 4.037,13.532 4.025,13.364 4.013,13.194 4.011,13.160 4.023,13.127 4.046,13.102 4.070,13.076 4.102,13.062 4.137,13.062 5.234,13.062 5.234,13.062 5.234,13.062 5.296,13.062 5.349,13.109 5.357,13.170 5.365,13.255 5.365,13.255 5.365,13.255 5.375,13.272 5.382,13.290 5.383,13.309 5.383,13.362 5.382,13.412 5.392,13.465 5.404,13.561 5.417,13.658 5.429,13.754 5.958,13.405 6.587,13.195 7.264,13.175 7.294,13.174 7.324,13.175 7.354,13.175 8.035,13.175 8.684,13.373 9.235,13.723 9.244,13.652 9.253,13.581 9.262,13.510 9.262,13.443 9.272,13.379 9.275,13.309 9.276,13.288 9.284,13.268 9.296,13.250 9.304,13.170 9.304,13.170 9.304,13.170 9.311,13.109 9.364,13.062 9.427,13.062 10.525,13.062 10.525,13.062 10.525,13.062 10.560,13.062 10.593,13.076 10.616,13.102 10.639,13.127 10.652,13.160 10.649,13.194 10.637,13.364 10.624,13.532 10.612,13.702 11.027,13.702 11.027,13.702 11.027,13.702 11.195,13.156 11.236,12.579 11.147,12.015 10.511,12.015 10.511,12.015 10.511,12.015 10.448,12.015 10.394,11.968 10.387,11.906 10.360,11.693 10.335,11.481 10.308,11.268 Z M 5.939,12.184 C 5.942,12.183 5.946,12.184 5.950,12.184 6.001,12.184 6.053,12.194 6.102,12.215 6.253,12.277 6.351,12.424 6.351,12.587 6.351,12.810 6.172,12.989 5.949,12.989 5.786,12.989 5.639,12.892 5.576,12.741 5.514,12.590 5.548,12.417 5.664,12.302 5.735,12.230 5.830,12.189 5.928,12.184 5.931,12.184 5.935,12.184 5.939,12.184 Z M 7.304,12.184 C 7.308,12.183 7.312,12.184 7.315,12.184 7.367,12.184 7.418,12.194 7.468,12.215 7.618,12.277 7.717,12.424 7.717,12.587 7.717,12.810 7.536,12.989 7.314,12.989 7.151,12.989 7.003,12.892 6.941,12.741 6.879,12.590 6.914,12.417 7.029,12.302 7.101,12.230 7.196,12.189 7.293,12.184 7.297,12.184 7.301,12.184 7.304,12.184 Z M 8.647,12.184 C 8.650,12.183 8.654,12.184 8.658,12.184 8.709,12.184 8.760,12.194 8.810,12.215 8.960,12.277 9.060,12.424 9.060,12.587 9.060,12.810 8.878,12.989 8.655,12.989 8.492,12.989 8.346,12.892 8.284,12.741 8.221,12.590 8.256,12.417 8.371,12.302 8.443,12.230 8.538,12.189 8.636,12.184 8.639,12.184 8.643,12.184 8.647,12.184 Z M 12.470,12.269 C 12.466,12.269 12.462,12.269 12.458,12.269 12.341,12.275 12.227,12.324 12.141,12.410 12.004,12.547 11.964,12.754 12.038,12.934 12.112,13.114 12.288,13.230 12.483,13.230 12.748,13.230 12.962,13.015 12.962,12.750 12.962,12.555 12.845,12.380 12.665,12.306 12.606,12.281 12.545,12.269 12.484,12.269 12.479,12.269 12.474,12.269 12.470,12.269 Z M 14.965,12.269 C 14.961,12.269 14.956,12.269 14.952,12.269 14.836,12.275 14.723,12.324 14.637,12.410 14.499,12.547 14.458,12.754 14.533,12.934 14.607,13.114 14.783,13.230 14.977,13.230 15.243,13.230 15.456,13.015 15.456,12.750 15.456,12.555 15.340,12.380 15.160,12.306 15.101,12.281 15.040,12.269 14.978,12.269 14.974,12.269 14.969,12.269 14.965,12.269 Z M 13.721,12.420 C 13.718,12.420 13.715,12.420 13.712,12.421 13.632,12.425 13.555,12.458 13.496,12.517 13.402,12.611 13.374,12.753 13.425,12.876 13.476,12.999 13.596,13.079 13.729,13.079 13.911,13.079 14.058,12.932 14.058,12.750 14.058,12.617 13.978,12.496 13.855,12.446 13.815,12.429 13.772,12.420 13.730,12.420 13.727,12.420 13.724,12.420 13.721,12.420 Z M 4.269,13.308 C 4.281,13.478 4.294,13.648 4.306,13.817 4.309,13.851 4.296,13.885 4.273,13.910 4.249,13.935 4.217,13.949 4.183,13.949 2.667,13.949 2.667,13.949 2.667,13.949 2.890,14.761 3.325,15.476 3.903,16.041 4.064,15.190 4.531,14.447 5.185,13.931 5.169,13.785 5.154,13.638 5.146,13.490 5.139,13.430 5.131,13.369 5.123,13.308 Z M 9.536,13.308 C 9.526,13.383 9.516,13.456 9.507,13.531 9.500,13.651 9.487,13.770 9.475,13.890 9.962,14.259 10.355,14.756 10.599,15.345 10.672,15.522 10.729,15.702 10.772,15.884 11.291,15.341 11.682,14.681 11.903,13.950 10.477,13.950 10.477,13.950 10.477,13.950 10.443,13.950 10.409,13.936 10.385,13.910 10.362,13.885 10.351,13.852 10.353,13.817 10.366,13.648 10.377,13.478 10.390,13.308 Z M 7.275,13.998 C 5.773,14.036 4.567,15.266 4.567,16.777 4.567,18.312 5.812,19.556 7.347,19.556 8.882,19.556 10.126,18.312 10.126,16.777 10.126,15.242 8.882,13.998 7.347,13.998 7.323,13.998 7.298,13.998 7.275,13.998 Z M 19.197,14.013 C 19.172,14.013 19.145,14.014 19.120,14.015 17.861,14.037 16.739,14.921 16.467,16.205 16.149,17.699 17.103,19.168 18.597,19.484 20.091,19.802 21.559,18.848 21.876,17.354 22.193,15.860 21.239,14.392 19.745,14.074 19.562,14.035 19.378,14.015 19.197,14.013 Z M 6.910,14.608 C 7.830,14.608 7.830,14.608 7.830,14.608 7.830,19.025 7.830,19.025 7.830,19.025 6.910,19.025 6.910,19.025 6.910,19.025 Z M 17.918,14.619 C 18.833,14.619 18.833,14.619 18.833,14.619 18.833,19.013 18.833,19.013 18.833,19.013 17.918,19.013 17.918,19.013 17.918,19.013 Z M 19.538,14.619 C 20.453,14.619 20.453,14.619 20.453,14.619 20.453,19.013 20.453,19.013 20.453,19.013 19.538,19.013 19.538,19.013 19.538,19.013 Z " />
</svg>