<?xml version="1.0" encoding="UTF-8" standalone="no"?>
<!DOCTYPE svg PUBLIC "-//W3C//DTD SVG 20010904//EN" "http://www.w3.org/TR/2001/REC-SVG-20010904/DTD/svg10.dtd"[]>
<svg version="1.1" id="Frosty Editor v1.0.6.3" xmlns="http://www.w3.org/2000/svg" d1p1:xlink="http://www.w3.org/1999/xlink" viewBox="0 0 25 25" xmlns:d1p1="xmlns">
  <path stroke="none" fill="#ffffffff" d="M 12.747,2.474 C 12.652,4.141 12.652,4.141 12.652,4.141 12.542,6.088 12.044,6.258 11.736,4.452 11.628,3.821 11.400,3.176 11.231,3.020 11.000,2.809 10.973,2.871 11.122,3.266 11.232,3.557 11.384,4.299 11.459,4.917 11.583,5.929 11.542,6.039 11.035,6.039 10.725,6.039 10.472,5.879 10.472,5.683 10.472,5.488 10.244,5.122 9.965,4.870 9.032,4.025 7.839,5.243 8.198,6.674 8.285,7.019 8.127,7.702 7.825,8.295 7.538,8.858 7.301,9.561 7.299,9.857 7.297,10.153 7.177,10.575 7.034,10.792 6.803,11.145 6.746,11.145 6.515,10.792 6.372,10.575 6.253,10.168 6.250,9.890 6.244,9.132 5.967,9.559 5.704,10.731 5.517,11.562 5.573,11.968 5.991,12.787 6.277,13.348 6.512,13.954 6.512,14.133 6.512,14.311 6.613,14.520 6.737,14.597 6.861,14.674 6.907,14.443 6.838,14.085 6.623,12.957 7.171,13.377 7.538,14.621 7.731,15.274 8.594,16.826 9.456,18.069 10.318,19.313 11.219,20.739 11.457,21.238 11.823,22.004 12.026,22.145 12.771,22.145 13.440,22.145 13.710,22.003 13.888,21.552 14.017,21.226 14.851,19.829 15.741,18.449 16.632,17.070 17.563,15.376 17.808,14.686 18.289,13.333 18.806,12.976 18.581,14.153 18.452,14.828 18.468,14.841 18.815,14.366 19.019,14.087 19.185,13.670 19.185,13.440 19.185,13.210 19.367,12.764 19.587,12.450 19.899,12.004 19.933,11.636 19.742,10.786 19.426,9.379 19.292,9.269 19.095,10.254 18.883,11.318 18.493,11.272 18.284,10.158 18.191,9.664 17.813,8.817 17.445,8.274 16.972,7.577 16.858,7.203 17.057,7.005 17.506,6.556 17.381,5.368 16.831,4.870 16.232,4.328 15.368,4.646 15.093,5.510 14.997,5.813 14.694,6.039 14.382,6.039 13.816,6.039 13.808,5.816 14.303,3.399 14.421,2.819 14.391,2.835 14.052,3.531 13.839,3.967 13.659,4.650 13.653,5.049 13.645,5.513 13.497,5.774 13.244,5.774 12.939,5.774 12.836,5.392 12.797,4.124 Z M 10.261,11.310 C 11.133,11.295 12.056,11.882 12.056,12.800 12.056,14.134 10.576,14.919 9.379,14.220 8.717,13.834 8.532,12.687 9.013,11.953 9.298,11.517 9.772,11.319 10.261,11.310 Z M 15.016,11.315 C 15.608,11.316 16.223,11.614 16.537,12.178 16.901,12.830 16.900,12.979 16.537,13.631 16.101,14.414 14.929,14.705 14.132,14.227 13.464,13.826 13.286,12.686 13.777,11.937 14.052,11.517 14.526,11.314 15.016,11.315 Z " />
</svg>