<?xml version="1.0" encoding="UTF-8" standalone="no"?>
<!DOCTYPE svg PUBLIC "-//W3C//DTD SVG 20010904//EN" "http://www.w3.org/TR/2001/REC-SVG-20010904/DTD/svg10.dtd"[]>
<svg version="1.1" id="Frosty Editor v1.0.6.3" xmlns="http://www.w3.org/2000/svg" d1p1:xlink="http://www.w3.org/1999/xlink" viewBox="0 0 25 25" xmlns:d1p1="xmlns">
  <path stroke="none" fill="#ffffffff" d="M 16.924,2.385 C 16.941,2.421 16.941,2.421 16.941,2.421 17.237,3.046 17.389,3.738 17.375,4.429 17.361,4.571 17.333,4.711 17.306,4.851 17.279,4.988 17.246,5.124 17.210,5.259 17.231,5.280 17.251,5.301 17.272,5.321 17.535,5.052 17.873,4.857 18.239,4.767 18.475,4.709 18.722,4.693 18.962,4.728 18.891,4.446 18.767,4.178 18.623,3.925 18.469,3.654 18.285,3.399 18.068,3.175 18.014,3.116 17.980,3.043 17.926,2.986 17.884,2.945 17.835,2.912 17.789,2.876 17.643,2.766 17.490,2.667 17.330,2.579 17.199,2.506 17.063,2.441 16.924,2.385 Z M 18.706,5.123 C 18.290,5.123 17.892,5.289 17.598,5.583 17.509,5.672 17.509,5.672 17.509,5.672 20.394,8.558 20.394,8.558 20.394,8.558 20.496,8.454 20.598,8.350 20.700,8.246 21.190,7.756 21.190,6.962 20.700,6.471 20.404,6.175 20.109,5.879 19.813,5.583 19.520,5.289 19.121,5.123 18.706,5.123 Z M 7.129,5.363 C 7.146,5.399 7.146,5.399 7.146,5.399 7.441,6.023 7.594,6.716 7.580,7.407 7.566,7.549 7.538,7.689 7.511,7.829 7.484,7.966 7.451,8.102 7.415,8.237 7.436,8.258 7.456,8.278 7.477,8.299 7.740,8.029 8.078,7.834 8.444,7.744 8.679,7.686 8.926,7.671 9.167,7.705 9.096,7.424 8.972,7.155 8.829,6.902 8.674,6.631 8.490,6.377 8.273,6.153 8.220,6.094 8.185,6.021 8.131,5.964 8.088,5.923 8.040,5.890 7.994,5.854 7.848,5.744 7.695,5.645 7.535,5.557 7.404,5.484 7.268,5.419 7.129,5.363 Z M 17.031,5.667 C 16.821,5.876 16.611,6.086 16.402,6.295 19.755,9.648 19.755,9.648 19.755,9.648 19.964,9.439 20.173,9.229 20.383,9.020 19.265,7.902 18.148,6.784 17.031,5.667 Z M 14.843,5.863 C 14.839,5.867 14.835,5.871 14.830,5.876 14.654,6.043 14.485,6.220 14.339,6.416 14.132,6.690 13.962,6.990 13.830,7.307 13.783,7.422 13.733,7.538 13.693,7.657 13.587,7.962 13.524,8.281 13.502,8.603 13.769,8.336 14.036,8.068 14.303,7.801 14.384,7.882 14.464,7.962 14.545,8.043 14.900,7.687 15.255,7.331 15.609,6.975 15.438,7.020 15.254,7.033 15.082,6.984 14.970,6.949 14.879,6.866 14.814,6.771 14.752,6.681 14.712,6.573 14.712,6.464 14.720,6.258 14.763,6.053 14.843,5.863 Z M 16.428,6.742 C 16.288,6.882 16.148,7.021 16.009,7.161 18.884,10.036 18.884,10.036 18.884,10.036 19.023,9.896 19.163,9.757 19.302,9.618 18.344,8.659 17.386,7.701 16.428,6.742 Z M 15.798,7.372 C 15.658,7.512 15.519,7.651 15.380,7.791 18.255,10.666 18.255,10.666 18.255,10.666 18.394,10.527 18.534,10.387 18.673,10.247 17.715,9.289 16.756,8.330 15.798,7.372 Z M 21.402,7.864 C 21.399,7.873 21.396,7.881 21.393,7.890 21.324,8.098 21.213,8.293 21.065,8.455 20.964,8.573 20.852,8.682 20.743,8.794 20.818,8.869 20.894,8.944 20.969,9.020 20.564,9.425 20.159,9.830 19.755,10.234 19.674,10.154 19.594,10.074 19.514,9.993 19.010,10.496 18.508,11.000 18.006,11.504 18.085,11.583 18.163,11.662 18.242,11.741 17.942,12.042 17.641,12.342 17.341,12.643 17.620,12.650 17.900,12.628 18.174,12.575 18.729,12.466 19.264,12.243 19.729,11.920 20.192,11.601 20.589,11.186 20.885,10.707 21.160,10.263 21.346,9.761 21.422,9.244 21.457,9.011 21.468,8.775 21.460,8.539 21.454,8.313 21.435,8.088 21.402,7.864 Z M 15.174,8.000 C 15.035,8.139 14.895,8.279 14.756,8.419 15.714,9.377 16.673,10.335 17.631,11.294 17.770,11.154 17.910,11.015 18.049,10.875 17.091,9.917 16.133,8.958 15.174,8.000 Z M 8.910,8.101 C 8.495,8.101 8.096,8.266 7.803,8.560 7.713,8.650 7.713,8.650 7.713,8.650 8.675,9.612 9.637,10.574 10.599,11.536 10.701,11.432 10.803,11.328 10.904,11.224 11.394,10.734 11.394,9.940 10.904,9.449 10.609,9.153 10.313,8.857 10.018,8.560 9.724,8.266 9.326,8.101 8.910,8.101 Z M 14.303,8.388 C 13.675,9.017 13.675,9.017 13.675,9.017 14.792,10.134 15.910,11.251 17.028,12.369 17.237,12.160 17.446,11.950 17.656,11.741 16.538,10.624 15.420,9.505 14.303,8.388 Z M 7.236,8.645 C 7.026,8.854 6.817,9.063 6.607,9.273 9.959,12.626 9.959,12.626 9.959,12.626 10.169,12.417 10.378,12.207 10.588,11.997 9.470,10.880 8.353,9.762 7.236,8.645 Z M 5.048,8.841 C 5.044,8.845 5.039,8.849 5.035,8.854 4.858,9.021 4.690,9.198 4.545,9.393 4.338,9.667 4.166,9.968 4.035,10.284 3.988,10.400 3.938,10.516 3.898,10.635 3.792,10.940 3.728,11.258 3.707,11.580 3.974,11.313 4.241,11.046 4.508,10.779 4.588,10.860 4.669,10.940 4.750,11.021 5.105,10.665 5.459,10.309 5.814,9.953 5.643,9.998 5.459,10.011 5.287,9.962 5.175,9.927 5.085,9.844 5.019,9.749 4.957,9.659 4.917,9.551 4.917,9.441 4.925,9.235 4.968,9.031 5.048,8.841 Z M 13.541,9.469 C 13.542,9.478 13.544,9.486 13.545,9.495 13.595,9.782 13.682,10.064 13.800,10.330 14.092,10.991 14.584,11.558 15.183,11.960 15.583,12.229 16.032,12.425 16.502,12.536 16.547,12.547 16.592,12.557 16.638,12.566 15.605,11.533 14.573,10.501 13.541,9.469 Z M 6.633,9.720 C 6.493,9.860 6.353,9.999 6.214,10.139 9.089,13.014 9.089,13.014 9.089,13.014 9.228,12.874 9.368,12.735 9.508,12.595 8.549,11.637 7.591,10.679 6.633,9.720 Z M 6.003,10.350 C 5.863,10.490 5.724,10.629 5.585,10.769 8.460,13.644 8.460,13.644 8.460,13.644 8.599,13.504 8.739,13.365 8.878,13.225 7.920,12.267 6.961,11.308 6.003,10.350 Z M 11.606,10.842 C 11.604,10.850 11.601,10.859 11.598,10.868 11.529,11.076 11.418,11.270 11.271,11.432 11.169,11.551 11.057,11.660 10.948,11.771 11.024,11.847 11.099,11.922 11.174,11.997 10.769,12.402 10.364,12.807 9.959,13.212 9.879,13.132 9.799,13.052 9.718,12.971 9.215,13.474 8.713,13.978 8.211,14.482 8.290,14.561 8.369,14.640 8.447,14.718 8.147,15.019 7.846,15.320 7.546,15.621 7.825,15.628 8.106,15.605 8.379,15.553 8.935,15.443 9.468,15.220 9.934,14.898 10.397,14.578 10.794,14.164 11.090,13.685 11.365,13.241 11.551,12.739 11.626,12.222 11.662,11.989 11.673,11.753 11.665,11.517 11.659,11.291 11.640,11.066 11.606,10.842 Z M 5.379,10.978 C 5.239,11.117 5.100,11.257 4.961,11.397 5.919,12.355 6.877,13.313 7.836,14.272 7.975,14.132 8.114,13.993 8.254,13.853 7.295,12.895 6.337,11.936 5.379,10.978 Z M 4.508,11.366 C 3.880,11.994 3.880,11.994 3.880,11.994 4.997,13.112 6.115,14.229 7.233,15.347 7.442,15.138 7.652,14.928 7.861,14.718 6.743,13.601 5.625,12.483 4.508,11.366 Z M 3.746,12.446 C 3.747,12.455 3.749,12.464 3.750,12.473 3.801,12.760 3.887,13.042 4.005,13.308 4.297,13.969 4.789,14.536 5.388,14.938 5.788,15.207 6.237,15.403 6.707,15.514 6.752,15.525 6.797,15.535 6.843,15.544 5.810,14.511 4.778,13.479 3.746,12.446 Z M 14.397,12.629 C 14.414,12.665 14.414,12.665 14.414,12.665 14.710,13.290 14.862,13.982 14.848,14.673 14.834,14.815 14.806,14.955 14.780,15.096 14.752,15.233 14.719,15.368 14.683,15.503 14.704,15.524 14.724,15.545 14.745,15.566 15.008,15.296 15.347,15.101 15.712,15.011 15.948,14.953 16.195,14.937 16.435,14.972 16.364,14.690 16.240,14.422 16.096,14.168 15.942,13.898 15.758,13.643 15.542,13.419 15.488,13.361 15.453,13.288 15.399,13.230 15.357,13.190 15.308,13.156 15.262,13.120 15.116,13.010 14.963,12.911 14.804,12.823 14.672,12.751 14.536,12.686 14.397,12.629 Z M 16.179,15.368 C 15.763,15.368 15.365,15.533 15.071,15.827 14.982,15.916 14.982,15.916 14.982,15.916 15.943,16.878 16.906,17.840 17.867,18.802 17.969,18.698 18.071,18.595 18.173,18.491 18.663,18.000 18.663,17.206 18.173,16.716 17.878,16.419 17.582,16.123 17.287,15.827 16.993,15.533 16.594,15.368 16.179,15.368 Z M 14.504,15.911 C 14.295,16.120 14.084,16.330 13.875,16.540 17.228,19.892 17.228,19.892 17.228,19.892 17.437,19.683 17.646,19.474 17.856,19.264 16.738,18.147 15.621,17.029 14.504,15.911 Z M 12.317,16.107 C 12.312,16.111 12.308,16.116 12.303,16.120 12.127,16.287 11.958,16.465 11.813,16.660 11.605,16.934 11.435,17.234 11.303,17.551 11.256,17.667 11.206,17.783 11.166,17.901 11.060,18.206 10.997,18.525 10.975,18.847 11.242,18.580 11.509,18.313 11.776,18.046 11.857,18.126 11.938,18.207 12.018,18.287 12.373,17.931 12.728,17.575 13.083,17.219 12.911,17.264 12.727,17.278 12.555,17.228 12.443,17.194 12.352,17.110 12.287,17.016 12.225,16.926 12.186,16.818 12.185,16.708 12.193,16.502 12.236,16.297 12.317,16.107 Z M 13.901,16.987 C 13.761,17.126 13.622,17.266 13.482,17.405 16.357,20.280 16.357,20.280 16.357,20.280 16.496,20.141 16.636,20.002 16.776,19.862 15.817,18.904 14.859,17.945 13.901,16.987 Z M 13.271,17.617 C 13.131,17.756 12.992,17.896 12.853,18.035 15.728,20.910 15.728,20.910 15.728,20.910 15.867,20.771 16.007,20.631 16.147,20.492 15.189,19.533 14.229,18.575 13.271,17.617 Z M 18.875,18.109 C 18.872,18.117 18.869,18.125 18.866,18.134 18.797,18.342 18.686,18.537 18.539,18.699 18.437,18.818 18.325,18.927 18.216,19.038 18.291,19.113 18.367,19.189 18.442,19.264 18.037,19.669 17.633,20.074 17.228,20.479 17.147,20.399 17.067,20.318 16.987,20.238 16.483,20.740 15.981,21.245 15.479,21.749 15.558,21.827 15.637,21.906 15.716,21.985 15.415,22.286 15.115,22.586 14.814,22.887 15.093,22.894 15.374,22.872 15.648,22.820 16.203,22.710 16.737,22.487 17.202,22.165 17.665,21.845 18.062,21.431 18.358,20.952 18.633,20.507 18.819,20.006 18.895,19.489 18.930,19.255 18.941,19.020 18.933,18.784 18.927,18.558 18.908,18.332 18.875,18.109 Z M 12.647,18.244 C 12.508,18.384 12.368,18.523 12.229,18.663 13.187,19.621 14.146,20.580 15.104,21.538 15.243,21.399 15.383,21.259 15.522,21.119 14.564,20.161 13.606,19.203 12.647,18.244 Z M 11.776,18.632 C 11.148,19.261 11.148,19.261 11.148,19.261 12.266,20.378 13.383,21.496 14.501,22.613 14.710,22.404 14.920,22.195 15.129,21.985 14.012,20.868 12.893,19.750 11.776,18.632 Z M 11.014,19.713 C 11.016,19.722 11.017,19.730 11.018,19.739 11.068,20.026 11.155,20.309 11.273,20.575 11.565,21.236 12.057,21.802 12.656,22.204 13.056,22.473 13.505,22.669 13.975,22.781 14.020,22.791 14.065,22.801 14.111,22.810 13.079,21.778 12.047,20.746 11.014,19.713 Z " />
</svg>