<?xml version="1.0" encoding="UTF-8" standalone="no"?>
<!DOCTYPE svg PUBLIC "-//W3C//DTD SVG 20010904//EN" "http://www.w3.org/TR/2001/REC-SVG-20010904/DTD/svg10.dtd"[]>
<svg version="1.1" id="Frosty Editor v1.0.6.3" xmlns="http://www.w3.org/2000/svg" d1p1:xlink="http://www.w3.org/1999/xlink" viewBox="0 0 101 25" xmlns:d1p1="xmlns">
  <path stroke="none" fill="#ffffffff" d="M 51.878,1.571 C 51.701,1.575 51.502,1.631 51.221,1.737 50.773,1.908 50.755,1.922 50.625,2.198 50.552,2.355 50.168,3.143 49.773,3.948 49.378,4.754 49.055,5.439 49.055,5.471 49.055,5.509 48.696,5.529 48.018,5.529 46.950,5.529 46.471,5.590 44.501,5.978 43.693,6.138 43.691,6.138 43.691,6.222 43.691,6.300 43.527,6.365 43.324,6.366 43.261,6.366 43.160,6.411 43.101,6.465 43.041,6.519 42.867,6.664 42.713,6.786 42.560,6.909 42.359,7.078 42.266,7.162 41.958,7.411 41.697,7.568 41.372,7.848 41.249,7.940 41.073,8.084 40.981,8.169 40.623,8.452 40.353,8.722 39.860,8.835 39.584,8.853 39.584,8.853 39.584,8.853 39.569,7.834 39.569,7.834 39.569,7.834 39.554,6.814 39.554,6.814 39.554,6.814 38.074,6.814 38.074,6.814 38.074,6.814 36.595,6.814 36.595,6.814 36.595,6.814 36.595,6.953 36.595,6.953 36.595,6.953 36.595,7.093 36.595,7.093 36.595,7.093 31.231,7.093 31.231,7.093 31.231,7.093 25.867,7.093 25.867,7.093 25.867,7.093 25.867,7.842 25.867,7.842 25.867,7.842 25.867,8.592 25.867,8.592 25.867,8.592 25.471,8.658 25.471,8.658 25.471,8.658 25.075,8.725 25.075,8.725 25.075,8.725 24.954,8.569 24.954,8.569 24.954,8.569 24.666,8.194 24.602,8.154 24.291,8.156 24.128,8.157 23.819,8.183 23.604,8.213 23.139,8.277 22.104,8.412 21.481,8.488 21.060,8.540 20.875,8.566 19.832,8.716 19.216,8.805 19.135,8.851 18.825,9.290 18.570,9.653 18.547,9.711 18.547,10.007 18.547,10.329 18.547,10.329 18.547,10.329 18.338,10.363 18.338,10.363 18.338,10.363 18.010,10.417 17.828,10.504 17.790,10.622 17.761,10.713 17.719,10.726 17.523,10.701 17.395,10.685 17.064,10.658 16.787,10.639 15.796,10.574 13.859,10.320 13.598,10.220 13.525,10.193 13.245,10.117 12.975,10.052 12.706,9.988 12.372,9.899 12.233,9.856 12.095,9.812 11.743,9.704 11.451,9.615 11.159,9.526 10.795,9.415 10.641,9.368 8.342,8.651 6.810,7.515 4.421,7.613 3.467,7.654 3.461,7.657 3.461,7.989 3.461,8.137 3.508,8.366 3.564,8.499 3.762,8.965 4.184,10.259 4.327,10.837 4.491,11.501 4.628,12.900 4.774,15.418 4.821,16.233 4.872,16.955 4.888,17.025 4.914,17.140 4.947,17.150 5.304,17.150 5.881,17.150 6.484,16.914 7.604,16.249 7.908,16.069 8.171,15.921 8.189,15.921 8.207,15.921 8.456,15.783 8.744,15.614 9.031,15.445 9.282,15.307 9.302,15.307 9.321,15.307 9.484,15.221 9.662,15.116 10.050,14.889 10.276,14.808 11.675,14.400 12.120,14.270 13.296,14.039 14.049,13.933 14.477,13.873 16.226,13.782 17.695,13.744 17.738,13.743 17.765,13.818 17.765,13.938 17.765,14.133 17.765,14.133 17.765,14.133 19.358,14.133 19.358,14.133 19.358,14.133 20.950,14.133 20.950,14.133 20.950,14.133 20.950,14.383 20.950,14.383 20.950,14.383 20.950,14.683 21.186,15.340 21.342,15.475 21.524,15.633 21.923,15.717 22.303,15.678 22.762,15.630 23.015,15.459 23.289,15.013 23.406,14.823 23.440,14.804 23.651,14.808 24.024,14.815 24.261,14.926 24.385,15.153 24.485,15.338 24.489,15.379 24.420,15.624 24.379,15.772 24.324,15.981 24.298,16.089 24.273,16.196 24.234,16.359 24.212,16.450 24.176,16.602 23.446,17.868 23.357,17.933 23.336,17.948 23.197,18.162 23.049,18.408 22.655,18.977 22.316,19.718 22.537,20.357 22.591,20.500 22.712,20.667 22.820,20.749 22.923,20.828 23.041,20.925 23.082,20.965 23.991,21.513 24.860,22.274 25.871,22.716 26.425,22.941 27.172,22.866 27.446,22.556 27.784,22.176 27.877,21.420 27.645,20.947 27.578,20.810 27.523,20.623 27.522,20.531 27.522,20.438 27.649,20.099 27.805,19.777 28.085,19.198 28.611,18.095 28.958,17.362 29.122,17.014 29.219,16.896 29.219,17.043 29.219,17.147 29.582,17.462 29.853,17.593 30.228,17.775 30.797,17.835 31.873,17.808 32.727,17.786 32.863,17.768 33.214,17.636 33.585,17.497 33.984,17.177 34.098,16.927 34.120,16.881 34.215,16.705 34.311,16.537 34.406,16.368 34.580,15.965 34.696,15.642 34.813,15.319 34.926,15.011 34.948,14.957 34.983,14.868 35.102,14.860 36.322,14.860 37.174,14.860 37.656,14.840 37.656,14.804 37.656,14.773 37.698,14.748 37.748,14.748 37.856,14.748 38.073,14.508 38.164,14.289 38.229,14.133 38.229,14.133 38.229,14.133 39.373,14.133 39.373,14.133 39.373,14.133 40.266,14.133 40.512,14.149 40.492,14.203 40.222,14.935 40.216,15.522 40.471,16.148 40.710,16.734 40.563,16.703 43.220,16.703 45.215,16.703 45.510,16.714 45.595,16.791 45.795,16.972 47.276,16.965 47.458,16.783 47.525,16.717 47.915,16.703 49.801,16.703 51.157,16.703 52.123,16.681 52.210,16.648 52.397,16.577 52.615,16.358 52.695,16.161 52.793,15.916 52.774,14.651 52.669,14.399 52.581,14.189 52.581,14.189 52.581,14.189 55.054,14.189 55.054,14.189 55.054,14.189 57.527,14.189 57.527,14.189 57.527,14.189 57.508,14.538 57.508,14.538 57.508,14.538 57.497,14.730 57.475,14.993 57.459,15.122 57.430,15.357 57.430,15.357 57.430,15.357 57.139,15.374 57.139,15.374 57.139,15.374 56.857,15.390 56.849,15.395 56.832,15.572 56.814,15.754 56.814,15.754 56.814,15.754 56.007,15.754 56.007,15.754 56.007,15.754 55.201,15.754 55.201,15.754 55.201,15.754 55.201,15.890 55.201,15.890 55.201,15.890 55.201,16.010 55.169,16.031 54.936,16.065 54.721,16.097 54.630,16.148 54.461,16.334 54.227,16.591 53.865,17.256 53.728,17.681 53.525,18.311 53.517,19.619 53.711,20.531 53.794,20.922 54.013,21.568 54.080,21.620 54.099,21.636 54.215,21.774 54.337,21.928 54.661,22.336 54.652,22.330 54.967,22.373 55.163,22.400 55.257,22.439 55.257,22.493 55.257,22.627 55.516,22.682 56.152,22.682 56.759,22.682 56.759,22.682 56.759,22.682 56.832,22.836 56.832,22.836 56.832,22.836 56.872,22.920 56.987,23.025 57.087,23.069 57.268,23.149 57.268,23.149 57.268,23.149 57.268,23.584 57.268,23.584 57.268,23.584 57.268,24.044 57.338,24.282 57.486,24.321 57.535,24.335 59.512,24.342 61.878,24.338 66.180,24.330 66.180,24.330 66.180,24.330 66.196,23.478 66.196,23.478 66.196,23.478 66.211,22.626 66.211,22.626 66.211,22.626 68.110,22.626 68.110,22.626 68.110,22.626 70.008,22.626 70.008,22.626 70.008,22.626 70.008,22.486 70.008,22.486 70.008,22.486 70.008,22.357 70.028,22.347 70.266,22.347 70.616,22.347 70.914,22.171 71.060,21.879 71.566,20.863 71.763,19.955 71.683,19.009 71.566,17.620 71.293,16.845 70.730,16.304 70.552,16.133 70.465,16.095 70.186,16.062 69.915,16.031 69.843,16.000 69.796,15.897 69.753,15.803 69.675,15.761 69.496,15.737 69.363,15.719 67.493,15.719 65.342,15.737 63.191,15.756 61.312,15.753 61.166,15.731 60.922,15.694 60.900,15.678 60.900,15.534 60.900,15.387 60.918,15.374 61.192,15.338 61.353,15.317 61.503,15.269 61.526,15.233 61.557,15.182 65.459,15.167 78.280,15.167 94.759,15.167 94.993,15.166 95.072,15.059 95.125,14.986 95.151,14.799 95.151,14.486 95.151,14.022 95.151,14.022 95.151,14.022 95.844,14.022 95.844,14.022 95.844,14.022 96.537,14.022 96.537,14.022 96.537,14.022 96.557,13.777 96.557,13.777 96.557,13.777 96.567,13.643 96.569,12.021 96.561,10.173 96.545,6.814 96.545,6.814 96.545,6.814 95.848,6.814 95.848,6.814 95.848,6.814 95.151,6.814 95.151,6.814 95.151,6.814 95.151,6.514 95.151,6.514 95.151,6.514 95.151,6.350 95.135,6.098 95.116,5.956 95.080,5.699 95.078,5.696 94.866,5.696 94.622,5.696 94.451,5.552 94.395,5.297 94.376,5.208 94.322,5.061 94.277,4.969 94.199,4.814 94.171,4.802 93.882,4.802 93.571,4.802 93.571,4.802 93.571,4.802 93.601,5.249 93.601,5.249 93.601,5.249 93.632,5.696 93.632,5.696 93.632,5.696 92.823,5.696 92.823,5.696 92.823,5.696 92.253,5.696 91.992,5.676 91.940,5.626 91.719,5.416 91.572,5.331 91.173,5.186 90.733,5.026 90.733,5.026 90.733,5.026 76.194,5.040 76.194,5.040 76.194,5.040 61.654,5.054 61.654,5.054 61.654,5.054 61.637,5.235 61.637,5.235 61.637,5.235 61.622,5.394 61.599,5.417 61.458,5.417 61.306,5.417 61.297,5.403 61.280,5.152 61.264,4.889 61.261,4.886 61.054,4.869 60.844,4.851 60.844,4.851 60.844,4.851 60.844,4.380 60.844,4.380 60.844,4.380 60.844,3.908 60.844,3.908 60.844,3.908 59.738,3.908 59.738,3.908 59.738,3.908 58.898,3.908 58.606,3.927 58.528,3.984 58.441,4.047 58.405,4.252 58.297,5.311 58.226,5.999 58.167,6.609 58.165,6.667 58.163,6.757 58.132,6.768 57.958,6.739 57.846,6.721 57.646,6.722 57.512,6.740 57.324,6.766 57.268,6.796 57.268,6.877 57.268,6.976 57.191,6.981 55.648,6.981 54.028,6.981 54.028,6.981 54.028,6.981 54.028,7.289 54.028,7.289 54.028,7.289 54.028,7.596 54.028,7.596 54.028,7.596 52.241,7.596 52.241,7.596 52.241,7.596 50.455,7.596 50.455,7.596 50.455,7.596 50.504,7.470 50.504,7.470 50.504,7.470 50.556,7.340 51.584,5.247 51.689,5.059 51.974,4.544 52.024,3.943 52.631,4.188 53.043,4.333 53.744,4.340 53.907,4.202 54.061,4.071 54.251,3.546 54.251,3.251 54.251,3.036 54.220,2.981 53.945,2.706 53.776,2.537 53.593,2.399 53.538,2.399 53.451,2.399 53.216,2.271 53.134,2.179 53.042,2.076 52.666,1.831 52.408,1.706 52.212,1.612 52.056,1.566 51.878,1.571 Z M 51.871,2.248 C 51.935,2.247 51.985,2.271 52.074,2.317 52.267,2.435 52.456,2.570 52.654,2.708 52.818,2.848 52.818,2.848 52.818,2.848 52.674,3.001 52.674,3.001 52.674,3.001 52.594,3.085 52.521,3.204 52.510,3.265 52.494,3.357 52.434,3.382 52.183,3.405 52.014,3.420 51.832,3.460 51.777,3.492 51.723,3.524 51.214,4.479 50.646,5.614 49.673,7.558 49.614,7.695 49.614,7.992 49.614,8.258 49.566,8.407 49.304,8.957 49.134,9.315 48.989,9.608 48.983,9.608 48.976,9.608 48.902,9.522 48.819,9.417 48.640,9.192 48.346,9.080 48.043,9.121 47.923,9.137 47.826,9.143 47.826,9.134 47.826,9.119 48.349,8.013 48.956,6.744 49.221,6.191 49.256,6.143 49.401,6.143 49.510,6.143 49.487,6.169 49.505,6.113 49.522,6.064 49.812,5.438 50.122,4.806 50.432,4.174 50.822,3.379 50.989,3.039 51.291,2.422 51.291,2.422 51.291,2.422 51.589,2.321 51.589,2.321 51.589,2.321 51.731,2.273 51.807,2.249 51.871,2.248 Z M 53.136,3.022 C 53.208,3.027 53.292,3.081 53.398,3.185 53.555,3.337 53.567,3.372 53.515,3.520 53.471,3.647 53.424,3.685 53.309,3.684 52.936,3.682 52.761,3.431 52.941,3.157 53.003,3.063 53.064,3.018 53.136,3.022 Z M 59.015,4.523 C 59.618,4.523 59.618,4.523 59.618,4.523 60.221,4.523 60.221,4.523 60.221,4.523 60.258,4.956 60.258,4.956 60.258,4.956 60.278,5.194 60.305,7.476 60.319,10.027 60.338,13.457 60.327,14.695 60.280,14.785 60.192,14.950 60.266,15.865 60.366,15.865 60.464,15.865 60.508,16.405 60.508,17.611 60.509,18.166 60.531,18.603 60.560,18.603 60.587,18.603 60.870,18.726 61.188,18.876 61.506,19.026 62.106,19.301 62.520,19.487 65.000,20.595 65.606,20.900 65.696,21.081 65.728,21.147 65.771,21.380 65.791,21.599 65.825,21.970 65.819,21.998 65.710,22.026 65.599,22.056 65.594,22.092 65.594,22.900 65.594,23.744 65.594,23.744 65.594,23.744 61.742,23.744 61.742,23.744 61.742,23.744 57.890,23.744 57.890,23.744 57.890,23.744 57.856,23.199 57.856,23.199 57.856,23.199 57.718,21.055 57.791,16.440 57.971,15.893 58.073,15.583 58.181,14.082 58.138,13.575 58.107,13.207 58.245,11.408 58.586,7.750 58.605,7.542 58.641,7.373 58.666,7.373 58.731,7.373 58.765,7.166 58.831,6.395 58.862,6.026 58.916,5.454 58.951,5.123 Z M 62.297,5.641 C 76.366,5.641 76.366,5.641 76.366,5.641 90.436,5.641 90.436,5.641 90.436,5.641 90.782,5.757 90.782,5.757 90.782,5.757 90.973,5.821 91.128,5.884 91.128,5.897 91.128,5.909 84.641,5.920 76.713,5.920 62.297,5.920 62.297,5.920 62.297,5.920 62.297,5.780 62.297,5.780 62.297,5.780 Z M 60.682,6.087 C 60.903,6.087 60.903,6.087 60.903,6.087 61.124,6.087 61.124,6.087 61.124,6.087 61.124,10.330 61.124,10.330 61.124,10.330 61.124,14.112 61.114,14.582 61.036,14.660 60.988,14.708 60.874,14.748 60.784,14.748 60.621,14.748 60.621,14.748 60.621,14.748 60.631,10.096 60.631,10.096 60.631,10.096 60.635,8.688 60.620,7.304 60.682,6.087 Z M 48.635,6.153 C 48.825,6.154 48.943,6.160 48.943,6.170 48.943,6.189 48.905,6.279 48.858,6.370 48.773,6.534 48.773,6.534 48.773,6.534 46.972,6.529 46.972,6.529 46.972,6.529 45.171,6.523 45.171,6.523 45.171,6.523 46.010,6.356 46.010,6.356 46.010,6.356 46.703,6.217 47.029,6.183 47.895,6.161 48.183,6.154 48.446,6.151 48.635,6.153 Z M 76.430,6.213 C 86.430,6.204 91.504,6.218 91.541,6.255 91.576,6.289 92.151,6.311 93.039,6.311 94.481,6.311 94.481,6.311 94.481,6.311 94.481,10.417 94.481,10.417 94.481,10.417 94.481,14.525 94.481,14.525 94.481,14.525 77.914,14.525 77.914,14.525 77.914,14.525 61.346,14.525 61.346,14.525 61.346,14.525 61.361,10.375 61.361,10.375 61.361,10.375 61.375,6.227 61.375,6.227 61.375,6.227 Z M 45.226,6.870 C 44.166,7.931 44.166,7.931 44.166,7.931 43.105,8.993 43.105,8.993 43.105,8.993 42.099,8.991 42.099,8.991 42.099,8.991 41.093,8.989 41.093,8.989 41.093,8.989 41.232,8.875 41.232,8.875 41.232,8.875 41.309,8.812 41.482,8.668 41.617,8.555 41.752,8.443 41.900,8.328 41.946,8.301 42.028,8.253 42.187,8.129 42.314,8.013 42.349,7.981 42.478,7.881 42.601,7.790 42.724,7.699 42.900,7.555 42.993,7.470 43.479,7.086 44.002,6.833 44.724,6.871 Z M 45.562,6.870 C 47.084,6.870 47.084,6.870 47.084,6.870 47.922,6.870 48.608,6.882 48.608,6.898 48.608,6.914 48.338,7.473 48.009,8.142 47.679,8.810 47.380,9.432 47.344,9.524 47.279,9.776 47.265,10.164 47.536,10.446 47.775,10.694 47.881,10.721 48.053,10.731 48.347,10.749 48.393,10.712 48.672,10.544 48.849,10.437 48.970,10.198 49.232,9.656 49.423,9.262 49.589,8.950 49.601,8.962 49.613,8.974 49.568,9.194 49.499,9.450 49.298,10.207 49.263,10.443 49.338,10.534 49.395,10.602 49.792,10.612 51.926,10.600 54.447,10.585 54.447,10.585 54.447,10.585 54.462,9.448 54.462,9.448 54.462,9.448 54.474,8.553 54.495,8.285 54.560,8.192 54.605,8.127 54.642,7.967 54.642,7.835 54.642,7.596 54.642,7.596 54.642,7.596 56.039,7.596 56.039,7.596 56.039,7.596 57.436,7.596 57.436,7.596 57.436,7.596 57.436,10.557 57.436,10.557 57.436,10.557 57.436,13.518 57.436,13.518 57.436,13.518 52.318,13.518 52.318,13.518 52.318,13.518 47.673,13.518 47.202,13.511 47.233,13.430 47.251,13.382 47.267,12.627 47.267,11.754 47.232,10.872 47.258,10.187 47.259,9.356 47.239,9.021 47.239,9.021 47.239,9.021 45.341,9.006 45.341,9.006 45.341,9.006 43.442,8.991 43.442,8.991 43.442,8.991 44.502,7.930 44.502,7.930 44.502,7.930 Z M 58.106,7.373 C 58.302,7.373 58.330,7.388 58.330,7.501 58.330,7.629 58.255,8.521 58.053,10.781 57.993,11.441 57.915,12.328 57.878,12.751 57.841,13.173 57.802,13.518 57.791,13.518 57.780,13.518 57.771,12.186 57.771,10.557 57.771,8.620 57.790,7.596 57.827,7.596 57.858,7.596 57.883,7.546 57.883,7.484 57.883,7.391 57.920,7.373 58.106,7.373 Z M 37.210,7.428 C 38.076,7.428 38.076,7.428 38.076,7.428 38.942,7.428 38.942,7.428 38.942,7.428 38.942,8.071 38.942,8.071 38.942,8.071 38.942,8.713 38.942,8.713 38.942,8.713 37.992,8.713 37.992,8.713 37.992,8.713 37.042,8.713 37.042,8.713 37.042,8.713 37.042,8.211 37.042,8.211 37.042,8.211 37.042,7.801 37.057,7.708 37.126,7.708 37.178,7.708 37.210,7.655 37.210,7.568 Z M 94.816,7.428 C 95.375,7.428 95.375,7.428 95.375,7.428 95.933,7.428 95.933,7.428 95.933,7.428 95.933,10.390 95.933,10.390 95.933,10.390 95.933,13.351 95.933,13.351 95.933,13.351 95.375,13.351 95.375,13.351 95.375,13.351 94.816,13.351 94.816,13.351 94.816,13.351 94.816,10.390 94.816,10.390 94.816,10.390 Z M 26.481,7.708 C 27.543,7.708 27.543,7.708 27.543,7.708 28.605,7.708 28.605,7.708 28.605,7.708 28.605,8.211 28.605,8.211 28.605,8.211 28.605,8.713 28.605,8.713 28.605,8.713 27.543,8.713 27.543,8.713 27.543,8.713 26.481,8.713 26.481,8.713 26.481,8.713 26.481,8.211 26.481,8.211 26.481,8.211 Z M 28.884,7.708 C 29.247,7.708 29.247,7.708 29.247,7.708 29.611,7.708 29.611,7.708 29.611,7.708 29.611,8.211 29.611,8.211 29.611,8.211 29.611,8.713 29.611,8.713 29.611,8.713 29.247,8.713 29.247,8.713 29.247,8.713 28.884,8.713 28.884,8.713 28.884,8.713 28.884,8.211 28.884,8.211 28.884,8.211 Z M 29.946,7.708 C 33.354,7.708 33.354,7.708 33.354,7.708 36.763,7.708 36.763,7.708 36.763,7.708 36.763,8.211 36.763,8.211 36.763,8.211 36.763,8.713 36.763,8.713 36.763,8.713 33.354,8.713 33.354,8.713 33.354,8.713 29.946,8.713 29.946,8.713 29.946,8.713 29.946,8.211 29.946,8.211 29.946,8.211 Z M 63.077,7.845 C 62.986,7.841 62.890,7.851 62.791,7.878 61.995,8.092 61.943,9.190 62.716,9.469 63.074,9.599 63.542,9.471 63.723,9.194 64.119,8.590 63.714,7.872 63.077,7.845 Z M 70.231,7.854 C 69.724,7.854 69.368,8.214 69.376,8.720 69.383,9.147 69.630,9.461 70.035,9.553 70.584,9.679 71.078,9.286 71.086,8.717 71.094,8.214 70.737,7.854 70.231,7.854 Z M 91.780,7.855 C 91.723,7.857 91.666,7.866 91.610,7.881 90.816,8.095 90.772,9.245 91.548,9.525 92.215,9.767 92.867,9.194 92.687,8.524 92.578,8.119 92.178,7.838 91.780,7.855 Z M 77.381,7.905 C 77.323,7.909 77.265,7.918 77.207,7.933 76.402,8.150 76.349,9.301 77.132,9.580 77.782,9.812 78.455,9.187 78.271,8.521 78.162,8.127 77.784,7.877 77.381,7.905 Z M 84.700,7.956 C 84.609,7.952 84.513,7.963 84.415,7.990 83.618,8.204 83.566,9.301 84.339,9.581 84.697,9.710 85.165,9.583 85.347,9.306 85.743,8.701 85.338,7.984 84.700,7.956 Z M 62.978,8.124 C 63.070,8.118 63.169,8.135 63.271,8.177 63.656,8.338 63.729,8.913 63.393,9.133 62.969,9.411 62.493,9.173 62.493,8.684 62.493,8.359 62.702,8.141 62.978,8.124 Z M 70.231,8.129 C 70.728,8.129 70.985,8.729 70.634,9.065 70.476,9.217 70.216,9.294 70.064,9.235 70.018,9.217 69.911,9.138 69.826,9.059 69.475,8.732 69.738,8.129 70.231,8.129 Z M 91.814,8.175 C 91.962,8.170 92.114,8.221 92.230,8.337 92.443,8.550 92.450,8.927 92.246,9.126 91.835,9.525 91.163,9.167 91.275,8.609 91.328,8.344 91.566,8.183 91.814,8.175 Z M 4.440,8.211 C 4.524,8.212 4.634,8.217 4.779,8.224 5.454,8.255 5.596,8.285 6.739,8.637 8.089,9.052 9.547,9.712 11.004,10.182 11.621,10.375 11.818,10.431 12.625,10.643 12.824,10.695 13.101,10.772 13.239,10.813 13.715,10.955 15.114,11.140 16.584,11.255 17.178,11.301 17.713,11.340 17.771,11.340 17.870,11.340 17.877,11.393 17.877,12.226 17.877,13.113 17.877,13.113 17.877,13.113 16.522,13.151 16.522,13.151 16.522,13.151 15.776,13.171 14.878,13.213 14.525,13.244 13.590,13.326 11.798,13.653 11.088,13.871 10.750,13.975 10.322,14.105 10.138,14.159 9.954,14.213 9.615,14.359 9.384,14.482 9.154,14.606 8.789,14.801 8.574,14.915 8.359,15.030 8.049,15.202 7.887,15.299 7.724,15.395 7.578,15.474 7.562,15.474 7.546,15.474 7.251,15.640 6.908,15.843 6.564,16.046 6.123,16.272 5.927,16.346 5.731,16.419 5.551,16.480 5.527,16.480 5.476,16.480 5.442,16.111 5.358,14.636 5.256,12.838 5.098,11.244 4.963,10.641 4.871,10.230 4.413,8.802 4.212,8.301 4.182,8.225 4.189,8.205 4.440,8.211 Z M 77.439,8.211 C 77.948,8.211 78.194,8.805 77.835,9.165 77.706,9.293 77.621,9.328 77.439,9.328 76.930,9.328 76.684,8.734 77.044,8.374 77.172,8.246 77.257,8.211 77.439,8.211 Z M 84.693,8.217 C 85.130,8.250 85.386,8.793 85.052,9.159 84.793,9.444 84.445,9.432 84.207,9.130 83.962,8.818 84.124,8.330 84.502,8.235 84.537,8.226 84.570,8.220 84.603,8.218 84.633,8.215 84.664,8.215 84.693,8.217 Z M 54.251,8.265 C 54.251,9.300 54.251,9.300 54.251,9.300 54.251,10.334 54.251,10.334 54.251,10.334 51.906,10.334 51.906,10.334 51.906,10.334 49.560,10.334 49.560,10.334 49.560,10.334 49.593,10.152 49.593,10.152 49.593,10.152 49.611,10.053 49.672,9.807 49.729,9.608 49.786,9.408 49.879,9.030 49.936,8.769 50.040,8.294 50.040,8.294 50.040,8.294 52.145,8.280 52.145,8.280 52.145,8.280 Z M 24.155,8.793 C 24.216,8.795 24.253,8.818 24.271,8.863 24.289,8.912 24.298,8.959 24.290,8.967 24.281,8.975 23.659,9.060 22.906,9.155 20.729,9.432 20.271,9.494 19.948,9.552 19.512,9.632 19.483,9.628 19.551,9.501 19.611,9.387 19.624,9.384 20.670,9.247 21.024,9.201 21.615,9.124 21.983,9.076 22.352,9.027 22.943,8.950 23.297,8.905 23.650,8.859 24.006,8.812 24.088,8.798 24.113,8.794 24.135,8.792 24.155,8.793 Z M 35.128,8.987 C 36.359,8.986 37.081,9.002 35.535,9.068 35.532,9.321 35.532,9.321 35.532,9.321 35.527,9.551 35.527,9.551 35.527,9.551 30.767,9.552 30.767,9.552 30.767,9.552 26.941,9.552 25.886,9.568 25.392,9.633 24.590,9.738 20.945,10.202 20.084,10.309 19.715,10.355 19.357,10.405 19.288,10.420 19.174,10.445 19.162,10.427 19.162,10.227 19.162,10.105 19.187,9.990 19.217,9.971 19.427,9.841 24.511,9.178 24.602,9.269 24.771,9.439 26.481,9.232 26.481,9.042 26.481,9.014 28.715,8.998 31.664,9.004 32.155,9.005 33.896,8.988 35.128,8.987 Z M 41.590,9.272 C 42.462,9.272 42.462,9.272 42.462,9.272 42.462,11.283 42.462,11.283 42.462,11.283 42.462,13.295 42.462,13.295 42.462,13.295 39.165,13.295 39.165,13.295 39.165,13.295 35.868,13.295 35.868,13.295 35.868,13.295 35.868,11.312 35.868,11.312 35.868,11.312 35.868,9.328 35.868,9.328 35.868,9.328 37.405,9.328 37.405,9.328 37.405,9.328 38.734,9.328 38.942,9.339 38.942,9.412 38.942,9.482 39.062,9.496 39.688,9.496 40.350,9.496 40.451,9.483 40.577,9.384 40.705,9.283 40.804,9.272 41.590,9.272 Z M 42.797,9.272 C 43.076,9.272 43.076,9.272 43.076,9.272 43.356,9.272 43.356,9.272 43.356,9.272 43.356,11.283 43.356,11.283 43.356,11.283 43.356,13.295 43.356,13.295 43.356,13.295 43.076,13.295 43.076,13.295 43.076,13.295 42.797,13.295 42.797,13.295 42.797,13.295 42.797,11.283 42.797,11.283 42.797,11.283 Z M 43.635,9.272 C 43.913,9.272 43.913,9.272 43.913,9.272 44.156,9.272 44.196,9.288 44.222,9.398 44.239,9.467 44.246,10.366 44.237,11.395 44.222,13.267 44.222,13.267 44.222,13.267 43.928,13.284 43.928,13.284 43.928,13.284 43.635,13.301 43.635,13.301 43.635,13.301 43.635,11.287 43.635,11.287 43.635,11.287 Z M 45.764,9.272 C 46.987,9.272 46.987,9.272 46.987,9.272 46.987,11.283 46.987,11.283 46.987,11.283 46.987,13.295 46.987,13.295 46.987,13.295 45.767,13.295 45.767,13.295 45.767,13.295 45.096,13.295 44.531,13.278 44.510,13.258 44.464,13.211 44.460,9.481 44.507,9.361 44.536,9.284 44.700,9.272 45.764,9.272 Z M 48.178,9.384 C 48.393,9.384 48.471,9.412 48.577,9.525 48.857,9.828 48.797,10.194 48.431,10.413 48.226,10.535 48.042,10.523 47.820,10.373 47.270,10.003 47.494,9.385 48.178,9.384 Z M 66.579,9.606 C 66.430,9.609 66.278,9.654 66.139,9.748 65.538,10.157 65.625,11.016 66.292,11.257 66.864,11.464 67.456,11.066 67.456,10.474 67.456,9.960 67.028,9.596 66.579,9.606 Z M 73.833,9.608 C 73.332,9.608 72.969,9.975 72.969,10.480 72.970,10.890 73.208,11.191 73.606,11.287 74.164,11.422 74.671,11.016 74.662,10.439 74.655,9.941 74.322,9.608 73.833,9.608 Z M 88.229,9.608 C 87.276,9.608 87.024,10.935 87.916,11.257 88.488,11.464 89.079,11.066 89.079,10.474 89.079,9.999 88.695,9.607 88.229,9.608 Z M 81.069,9.633 C 80.977,9.629 80.881,9.639 80.783,9.665 79.986,9.880 79.935,10.978 80.708,11.257 81.066,11.387 81.533,11.259 81.715,10.982 82.111,10.378 81.706,9.660 81.069,9.633 Z M 36.427,9.829 C 36.427,11.246 36.427,11.246 36.427,11.246 36.427,12.025 36.444,12.679 36.465,12.700 36.486,12.721 37.146,12.732 37.932,12.723 39.361,12.709 39.361,12.709 39.361,12.709 39.353,11.283 39.353,11.283 39.353,11.283 39.345,9.859 39.345,9.859 39.345,9.859 37.886,9.844 37.886,9.844 37.886,9.844 Z M 30.742,9.830 C 35.533,9.831 35.533,9.831 35.533,9.831 35.533,11.669 35.533,11.669 35.533,11.669 35.533,13.293 35.544,13.510 35.622,13.540 35.670,13.559 36.175,13.575 36.743,13.575 37.417,13.575 37.763,13.594 37.740,13.630 37.718,13.665 37.134,13.686 36.172,13.686 34.639,13.686 34.639,13.686 34.639,13.686 34.639,11.954 34.639,11.954 34.639,11.954 34.639,10.222 34.639,10.222 34.639,10.222 30.253,10.222 30.253,10.222 30.253,10.222 25.867,10.222 25.867,10.222 25.867,10.222 25.858,11.828 25.858,11.828 25.858,11.828 25.854,12.712 25.855,13.491 25.860,13.560 25.871,13.686 25.871,13.686 25.871,13.686 23.704,13.674 23.704,13.674 23.704,13.674 20.912,13.707 20.473,13.589 23.164,13.586 24.070,13.568 24.839,13.591 24.847,13.585 24.855,13.579 24.861,12.762 24.861,11.769 24.861,9.965 24.861,9.965 24.861,9.965 25.406,9.897 25.406,9.897 25.406,9.897 25.793,9.849 27.335,9.830 30.742,9.830 Z M 88.223,9.887 C 88.732,9.887 88.978,10.481 88.618,10.841 88.490,10.969 88.405,11.004 88.223,11.004 87.714,11.004 87.468,10.410 87.828,10.050 87.956,9.922 88.041,9.887 88.223,9.887 Z M 66.645,9.894 C 67.083,9.927 67.338,10.469 67.005,10.836 66.746,11.120 66.397,11.107 66.160,10.806 65.915,10.494 66.076,10.006 66.455,9.911 66.489,9.902 66.523,9.897 66.555,9.894 66.586,9.892 66.616,9.891 66.645,9.894 Z M 73.853,9.894 C 74.291,9.927 74.546,10.469 74.212,10.836 73.953,11.120 73.605,11.107 73.368,10.806 73.123,10.494 73.284,10.006 73.663,9.911 73.697,9.902 73.730,9.897 73.763,9.894 73.794,9.892 73.824,9.891 73.853,9.894 Z M 81.061,9.894 C 81.498,9.927 81.754,10.469 81.420,10.836 81.161,11.120 80.813,11.107 80.576,10.806 80.331,10.494 80.492,10.006 80.871,9.911 80.905,9.902 80.938,9.897 80.971,9.894 81.001,9.892 81.032,9.891 81.061,9.894 Z M 36.763,10.166 C 37.908,10.166 37.908,10.166 37.908,10.166 39.053,10.166 39.053,10.166 39.053,10.166 39.053,11.283 39.053,11.283 39.053,11.283 39.053,12.401 39.053,12.401 39.053,12.401 37.908,12.401 37.908,12.401 37.908,12.401 36.763,12.401 36.763,12.401 36.763,12.401 36.763,11.283 36.763,11.283 36.763,11.283 Z M 24.596,10.259 C 24.619,10.273 24.638,10.824 24.638,11.482 24.638,12.680 24.638,12.680 24.638,12.680 21.565,12.680 21.565,12.680 21.565,12.680 18.492,12.680 18.492,12.680 18.492,12.680 18.492,11.850 18.492,11.850 18.492,11.850 18.492,11.018 18.492,11.018 18.492,11.018 18.729,10.979 18.729,10.979 18.729,10.979 19.337,10.877 24.559,10.236 24.596,10.259 Z M 37.863,10.445 C 37.414,10.451 37.042,10.797 37.042,11.312 37.042,11.644 37.182,11.905 37.446,12.066 37.842,12.307 38.454,12.139 38.661,11.732 38.723,11.611 38.774,11.422 38.774,11.312 38.774,11.009 38.585,10.689 38.328,10.558 38.172,10.478 38.013,10.442 37.863,10.445 Z M 26.146,10.557 C 26.845,10.557 26.845,10.557 26.845,10.557 27.543,10.557 27.543,10.557 27.543,10.557 27.543,12.010 27.543,12.010 27.543,12.010 27.543,13.463 27.543,13.463 27.543,13.463 26.845,13.463 26.845,13.463 26.845,13.463 26.146,13.463 26.146,13.463 26.146,13.463 26.146,12.010 26.146,12.010 26.146,12.010 Z M 27.822,10.557 C 28.158,10.557 28.158,10.557 28.158,10.557 28.493,10.557 28.493,10.557 28.493,10.557 28.493,12.010 28.493,12.010 28.493,12.010 28.493,13.463 28.493,13.463 28.493,13.463 28.158,13.463 28.158,13.463 28.158,13.463 27.822,13.463 27.822,13.463 27.822,13.463 27.822,12.010 27.822,12.010 27.822,12.010 Z M 28.772,10.557 C 29.555,10.557 29.555,10.557 29.555,10.557 30.337,10.557 30.337,10.557 30.337,10.557 30.337,12.010 30.337,12.010 30.337,12.010 30.337,13.463 30.337,13.463 30.337,13.463 29.555,13.463 29.555,13.463 29.555,13.463 28.772,13.463 28.772,13.463 28.772,13.463 28.772,12.010 28.772,12.010 28.772,12.010 Z M 30.672,10.557 C 30.979,10.557 30.979,10.557 30.979,10.557 31.287,10.557 31.287,10.557 31.287,10.557 31.287,12.010 31.287,12.010 31.287,12.010 31.287,13.463 31.287,13.463 31.287,13.463 30.979,13.463 30.979,13.463 30.979,13.463 30.672,13.463 30.672,13.463 30.672,13.463 30.672,12.010 30.672,12.010 30.672,12.010 Z M 31.566,10.557 C 32.376,10.557 32.376,10.557 32.376,10.557 33.186,10.557 33.186,10.557 33.186,10.557 33.186,12.010 33.186,12.010 33.186,12.010 33.186,13.463 33.186,13.463 33.186,13.463 32.376,13.463 32.376,13.463 32.376,13.463 31.566,13.463 31.566,13.463 31.566,13.463 31.566,12.010 31.566,12.010 31.566,12.010 Z M 33.466,10.557 C 33.913,10.557 33.913,10.557 33.913,10.557 34.360,10.557 34.360,10.557 34.360,10.557 34.360,12.010 34.360,12.010 34.360,12.010 34.360,13.463 34.360,13.463 34.360,13.463 33.913,13.463 33.913,13.463 33.913,13.463 33.466,13.463 33.466,13.463 33.466,13.463 33.466,12.010 33.466,12.010 33.466,12.010 Z M 37.931,10.691 C 38.341,10.706 38.649,11.108 38.471,11.534 38.427,11.637 38.334,11.760 38.262,11.806 37.981,11.988 37.684,11.967 37.466,11.749 37.161,11.443 37.251,10.907 37.636,10.746 37.736,10.704 37.836,10.687 37.931,10.691 Z M 91.890,11.205 C 91.801,11.199 91.707,11.207 91.610,11.233 90.816,11.447 90.772,12.600 91.548,12.876 91.883,12.996 92.308,12.877 92.495,12.611 92.911,12.019 92.515,11.249 91.890,11.205 Z M 84.644,11.215 C 83.685,11.215 83.440,12.552 84.339,12.878 84.929,13.091 85.511,12.681 85.502,12.060 85.494,11.557 85.148,11.215 84.644,11.215 Z M 70.290,11.255 C 70.197,11.249 70.099,11.259 69.999,11.286 69.179,11.507 69.166,12.642 69.980,12.933 70.316,13.052 70.740,12.933 70.928,12.667 71.352,12.062 70.939,11.293 70.290,11.255 Z M 77.497,11.255 C 77.405,11.249 77.307,11.259 77.207,11.286 76.387,11.507 76.373,12.642 77.187,12.933 77.523,13.052 77.948,12.933 78.135,12.667 78.560,12.062 78.146,11.293 77.497,11.255 Z M 63.017,11.267 C 62.301,11.277 61.930,12.031 62.353,12.616 62.396,12.696 62.597,12.869 62.772,12.931 63.328,13.133 63.883,12.728 63.883,12.122 63.883,11.615 63.523,11.259 63.017,11.267 Z M 18.181,11.277 C 18.205,11.256 18.233,11.519 18.231,12.057 18.274,12.838 18.238,12.855 18.284,12.884 18.350,12.924 18.952,12.960 21.488,12.960 24.638,12.960 24.638,12.960 24.638,12.960 24.638,13.128 24.638,13.128 24.638,13.128 24.638,13.295 24.638,13.295 24.638,13.295 21.509,13.295 21.509,13.295 21.509,13.295 18.765,13.295 18.380,13.285 18.380,13.211 18.380,13.165 18.330,13.128 18.268,13.128 18.160,13.128 18.146,13.072 18.158,12.198 18.137,11.602 18.157,11.298 18.181,11.277 Z M 84.693,11.514 C 85.130,11.547 85.386,12.090 85.052,12.456 84.793,12.740 84.445,12.728 84.207,12.426 83.962,12.115 84.124,11.627 84.502,11.532 84.537,11.523 84.570,11.517 84.603,11.515 84.633,11.512 84.664,11.512 84.693,11.514 Z M 63.090,11.535 C 63.546,11.564 63.832,12.203 63.447,12.564 63.374,12.633 63.211,12.692 63.086,12.709 62.951,12.726 62.839,12.731 62.654,12.546 62.466,12.358 62.407,12.188 62.436,12.041 62.493,11.758 62.627,11.647 62.886,11.562 62.956,11.539 63.025,11.531 63.090,11.535 Z M 91.827,11.535 C 92.076,11.535 92.324,11.676 92.385,11.956 92.439,12.200 92.283,12.503 92.054,12.599 91.819,12.697 91.818,12.697 91.587,12.597 91.370,12.502 91.216,12.192 91.268,11.956 91.329,11.676 91.578,11.535 91.827,11.535 Z M 70.287,11.562 C 70.560,11.588 70.815,11.810 70.815,12.122 70.815,12.316 70.784,12.385 70.634,12.519 70.059,13.032 69.313,12.222 69.878,11.698 69.965,11.618 70.066,11.575 70.170,11.563 70.209,11.558 70.248,11.558 70.287,11.562 Z M 77.439,11.563 C 77.948,11.563 78.194,12.157 77.835,12.517 77.706,12.645 77.621,12.680 77.439,12.680 76.930,12.680 76.684,12.086 77.044,11.726 77.172,11.598 77.257,11.563 77.439,11.563 Z M 29.879,14.022 C 29.370,15.167 29.370,15.167 29.370,15.167 29.055,15.876 28.824,16.324 28.766,16.342 28.663,16.375 28.629,16.442 27.499,18.827 26.900,20.092 26.907,20.072 26.884,20.481 26.865,20.820 26.882,20.921 27.007,21.184 27.220,21.550 27.108,21.787 26.885,22.084 26.711,22.241 26.433,22.251 26.146,22.109 26.008,22.040 25.882,21.970 25.867,21.953 25.852,21.936 25.701,21.838 25.532,21.736 24.794,21.127 23.707,20.768 23.152,20.047 23.077,19.901 23.072,19.834 23.124,19.658 23.159,19.542 23.219,19.414 23.258,19.374 23.296,19.334 23.451,19.101 23.602,18.855 23.753,18.609 23.894,18.395 23.916,18.380 24.552,17.501 25.080,16.382 25.084,15.382 25.084,14.522 24.687,14.190 23.654,14.190 23.107,14.189 22.888,14.257 22.794,14.457 22.733,15.088 22.132,15.336 21.693,14.943 21.513,14.725 21.546,14.451 21.565,14.175 21.565,14.027 21.575,14.022 21.858,14.024 22.519,14.033 23.317,14.027 23.883,14.026 25.069,14.065 26.356,14.026 27.292,14.026 28.066,14.026 28.451,14.030 28.635,14.043 28.905,14.033 29.213,14.029 29.451,14.022 Z M 30.135,14.022 C 30.418,14.025 30.418,14.025 30.418,14.025 30.623,14.027 30.669,14.041 30.588,14.075 30.180,14.245 29.890,14.962 29.890,15.800 29.890,16.280 29.906,16.376 30.016,16.537 30.248,16.878 30.476,16.948 31.447,16.974 32.435,17.000 32.847,16.934 33.092,16.709 33.307,16.511 33.536,16.076 33.861,15.247 34.136,14.545 34.195,14.215 34.069,14.089 34.017,14.037 34.048,14.022 34.209,14.022 34.411,14.022 34.416,14.026 34.416,14.236 34.416,14.611 33.615,16.592 33.463,16.592 33.438,16.592 33.402,16.640 33.383,16.699 33.333,16.857 33.031,17.014 32.582,17.117 32.155,17.214 31.053,17.231 30.627,17.147 30.238,17.070 29.777,16.738 29.692,16.472 29.661,16.376 29.504,16.314 29.289,16.313 29.220,16.313 29.163,16.294 29.162,16.270 29.162,16.247 29.381,15.732 29.648,15.125 Z M 36.128,14.022 C 37.562,14.022 37.562,14.022 37.562,14.022 37.433,14.133 37.433,14.133 37.433,14.133 37.312,14.238 37.224,14.245 35.999,14.245 34.732,14.245 34.695,14.242 34.695,14.133 34.695,14.024 34.732,14.022 36.128,14.022 Z M 22.030,14.161 C 21.842,14.243 21.731,14.314 21.716,14.569 21.782,14.857 21.867,14.923 22.151,14.962 22.913,14.847 22.615,13.985 22.030,14.161 Z M 28.966,14.051 C 28.881,14.058 28.799,14.087 28.739,14.101 28.499,14.205 28.414,14.495 28.549,14.747 28.625,14.890 28.944,14.989 29.116,14.923 29.496,14.779 29.524,14.276 29.162,14.093 29.127,14.071 29.089,14.058 29.051,14.053 29.023,14.049 28.994,14.049 28.966,14.051 Z M 25.613,14.061 C 25.528,14.069 25.449,14.089 25.421,14.093 25.059,14.276 25.088,14.779 25.468,14.923 25.640,14.989 25.959,14.890 26.035,14.747 26.170,14.495 26.085,14.205 25.845,14.101 25.791,14.056 25.699,14.052 25.613,14.061 Z M 33.382,14.106 C 33.475,14.109 33.553,14.119 33.609,14.134 33.927,14.223 33.929,14.294 33.634,15.137 33.360,15.922 33.051,16.476 32.823,16.591 32.639,16.684 30.972,16.745 30.867,16.663 30.776,16.591 30.672,16.377 30.672,16.259 30.672,16.199 30.724,16.018 30.787,15.858 30.883,15.613 30.895,15.497 30.864,15.137 30.827,14.708 30.827,14.708 30.827,14.708 31.015,14.568 31.015,14.568 31.015,14.568 31.319,14.341 32.732,14.083 33.382,14.106 Z M 25.677,14.236 C 25.710,14.241 25.761,14.281 25.804,14.319 25.938,14.441 25.937,14.527 25.833,14.656 25.733,14.780 25.559,14.796 25.470,14.677 25.330,14.490 25.373,14.349 25.516,14.272 25.563,14.248 25.643,14.230 25.677,14.236 Z M 30.934,14.249 C 31.017,14.252 31.012,14.264 30.908,14.314 30.839,14.347 30.729,14.460 30.665,14.564 30.564,14.727 30.553,14.804 30.586,15.111 30.617,15.404 30.602,15.537 30.500,15.838 30.398,16.141 30.386,16.240 30.435,16.399 30.505,16.627 30.460,16.643 30.283,16.454 30.119,16.279 30.079,15.917 30.164,15.370 30.270,14.686 30.580,14.236 30.934,14.249 Z M 28.968,14.262 C 29.013,14.263 29.058,14.284 29.104,14.326 29.246,14.454 29.280,14.560 29.148,14.680 29.014,14.800 28.893,14.781 28.767,14.642 28.689,14.556 28.679,14.451 28.722,14.383 28.793,14.271 28.894,14.260 28.968,14.262 Z M 22.247,14.312 C 22.395,14.334 22.467,14.559 22.353,14.696 22.284,14.779 22.028,14.793 21.961,14.727 21.895,14.660 21.884,14.432 21.967,14.363 22.013,14.325 22.198,14.304 22.247,14.312 Z M 46.037,14.352 C 46.526,14.369 46.526,14.369 46.526,14.369 47.015,14.384 47.015,14.384 47.015,14.384 47.031,15.243 47.031,15.243 47.031,15.243 47.041,15.829 47.026,16.126 46.982,16.179 46.937,16.233 46.785,16.257 46.478,16.257 46.037,16.257 46.037,16.257 46.037,16.257 46.037,15.304 46.037,15.304 46.037,15.304 Z M 41.235,14.355 C 43.483,14.370 43.483,14.370 43.483,14.370 45.730,14.384 45.730,14.384 45.730,14.384 45.746,15.237 45.746,15.237 45.746,15.237 45.761,16.089 45.761,16.089 45.761,16.089 43.496,16.089 43.496,16.089 43.496,16.089 41.231,16.089 41.231,16.089 41.231,16.089 41.119,15.907 41.119,15.907 41.119,15.907 40.854,15.477 40.846,14.952 41.098,14.566 Z M 47.323,14.413 C 49.600,14.415 49.600,14.415 49.600,14.415 51.877,14.416 51.877,14.416 51.877,14.416 51.988,14.568 51.988,14.568 51.988,14.568 52.083,14.696 52.100,14.808 52.100,15.288 52.100,15.818 52.091,15.864 51.966,15.972 51.834,16.086 51.782,16.089 49.577,16.089 47.323,16.089 47.323,16.089 47.323,16.089 47.323,15.251 47.323,15.251 47.323,15.251 Z M 26.832,14.636 C 26.774,14.636 26.686,14.668 26.638,14.706 26.521,14.799 26.072,15.701 25.643,16.703 25.453,17.149 25.215,17.677 25.114,17.877 24.794,18.512 24.638,18.863 24.638,18.947 24.638,19.090 24.862,19.277 25.216,19.430 25.405,19.512 25.723,19.660 25.923,19.759 26.309,19.952 26.511,19.983 26.653,19.873 26.701,19.835 27.138,18.925 27.625,17.850 28.111,16.774 28.534,15.854 28.564,15.805 28.632,15.697 28.551,15.420 28.434,15.353 28.115,15.172 26.918,14.636 26.832,14.636 Z M 26.901,14.952 C 27.112,14.963 28.264,15.507 28.306,15.615 28.331,15.681 27.466,17.664 26.693,19.316 26.564,19.591 26.504,19.664 26.408,19.661 26.300,19.657 25.373,19.251 25.043,19.062 24.882,18.971 24.885,18.876 25.053,18.555 25.274,18.135 25.660,17.291 26.030,16.424 26.220,15.978 26.456,15.463 26.555,15.279 26.716,14.978 26.752,14.944 26.901,14.952 Z M 57.548,15.977 C 57.682,15.977 57.682,15.936 57.576,17.206 57.523,17.837 57.494,18.943 57.493,20.321 57.492,21.708 57.472,22.459 57.436,22.459 57.405,22.459 57.380,22.370 57.380,22.263 57.380,22.155 57.355,22.067 57.324,22.067 57.288,22.067 57.268,21.079 57.268,19.214 57.268,16.752 57.280,16.349 57.352,16.277 57.398,16.231 57.436,16.144 57.436,16.085 57.436,16.014 57.475,15.977 57.548,15.977 Z M 55.824,16.368 C 56.378,16.368 56.378,16.368 56.378,16.368 56.933,16.368 56.933,16.368 56.933,16.368 56.933,19.218 56.933,19.218 56.933,19.218 56.933,22.067 56.933,22.067 56.933,22.067 56.401,22.067 56.401,22.067 56.401,22.067 55.884,22.067 55.867,22.063 55.816,21.928 55.786,21.851 55.737,21.788 55.705,21.788 55.667,21.788 55.648,20.947 55.648,19.254 55.648,17.062 55.660,16.697 55.736,16.545 Z M 60.788,16.368 C 65.001,16.368 65.001,16.368 65.001,16.368 69.213,16.368 69.213,16.368 69.213,16.368 69.248,16.508 69.248,16.508 69.248,16.508 69.267,16.585 69.321,16.648 69.366,16.648 69.438,16.648 69.449,16.988 69.449,19.241 69.449,20.668 69.434,21.874 69.415,21.923 69.385,22.001 69.183,22.012 67.711,22.012 66.041,22.012 66.041,22.012 66.041,22.012 66.041,21.599 66.041,21.599 66.041,21.599 66.041,21.178 65.988,21.010 65.789,20.801 65.681,20.687 64.873,20.280 63.722,19.760 63.415,19.621 62.999,19.433 62.800,19.341 62.600,19.250 62.324,19.126 62.185,19.066 62.047,19.005 61.676,18.834 61.361,18.686 60.788,18.416 60.788,18.416 60.788,18.416 60.788,17.392 60.788,17.392 60.788,17.392 Z M 55.205,16.703 C 55.368,16.703 55.368,16.703 55.368,16.703 55.368,19.218 55.368,19.218 55.368,19.218 55.368,21.732 55.368,21.732 55.368,21.732 55.232,21.732 55.232,21.732 55.232,21.732 55.137,21.732 55.033,21.652 54.884,21.467 54.766,21.321 54.656,21.189 54.638,21.174 54.568,21.111 54.411,20.638 54.302,20.152 54.207,19.733 54.190,19.506 54.210,18.938 54.238,18.123 54.360,17.729 54.786,17.088 55.005,16.759 55.065,16.703 55.205,16.703 Z M 69.784,16.703 C 69.958,16.703 69.958,16.703 69.958,16.703 70.505,16.703 71.069,18.125 71.069,19.504 71.069,19.947 71.045,20.057 70.807,20.699 70.651,21.122 70.485,21.473 70.394,21.570 70.274,21.698 70.194,21.732 70.013,21.732 69.784,21.732 69.784,21.732 69.784,21.732 69.784,19.218 69.784,19.218 69.784,19.218 Z M 23.832,19.419 C 23.341,19.419 23.192,20.094 23.632,20.320 23.936,20.477 24.272,20.250 24.272,19.888 24.272,19.599 24.103,19.419 23.832,19.419 Z M 23.896,19.623 C 23.932,19.632 23.997,19.693 24.050,19.752 24.103,19.857 24.093,19.955 24.043,20.048 24.006,20.117 23.845,20.158 23.764,20.158 23.568,20.158 23.501,19.852 23.629,19.711 23.682,19.652 23.860,19.615 23.896,19.623 Z M 26.401,20.983 C 25.976,20.983 25.764,21.467 26.060,21.762 26.356,22.058 26.839,21.847 26.839,21.422 26.839,21.162 26.661,20.983 26.401,20.983 Z M 26.415,21.171 C 26.449,21.165 26.523,21.222 26.569,21.247 26.660,21.357 26.701,21.543 26.575,21.647 26.453,21.749 26.274,21.757 26.186,21.622 26.082,21.464 26.076,21.320 26.207,21.201 26.250,21.162 26.381,21.176 26.415,21.171 Z " />
</svg>