<?xml version="1.0" encoding="UTF-8" standalone="no"?>
<!DOCTYPE svg PUBLIC "-//W3C//DTD SVG 20010904//EN" "http://www.w3.org/TR/2001/REC-SVG-20010904/DTD/svg10.dtd"[]>
<svg version="1.1" id="Frosty Editor v1.0.6.3" xmlns="http://www.w3.org/2000/svg" d1p1:xlink="http://www.w3.org/1999/xlink" viewBox="0 0 384 96" xmlns:d1p1="xmlns">
  <path stroke="none" fill="#ffffffff" d="M 137.400,38.700 C 136.600,38.700 136.000,38.100 136.000,37.300 136.000,36.500 136.600,35.900 137.400,35.900 138.200,35.900 138.800,36.500 138.800,37.300 138.800,38.000 138.200,38.700 137.400,38.700 137.400,38.700 137.400,38.700 137.400,38.700 Z M 137.400,35.400 C 136.400,35.400 135.500,36.200 135.500,37.300 135.500,38.300 136.300,39.200 137.400,39.200 138.400,39.200 139.300,38.400 139.300,37.300 139.300,36.200 138.500,35.400 137.400,35.400 137.400,35.400 137.400,35.400 137.400,35.400 Z " />
  <path stroke="none" fill="#ffffffff" d="M 138.600,34.300 C 137.800,34.300 137.200,33.700 137.200,32.900 137.200,32.100 137.800,31.500 138.600,31.500 139.400,31.500 140.000,32.100 140.000,32.900 140.000,33.700 139.300,34.300 138.600,34.300 138.600,34.300 138.600,34.300 138.600,34.300 Z M 138.600,31.000 C 137.600,31.000 136.700,31.800 136.700,32.900 136.700,33.900 137.500,34.800 138.600,34.800 139.600,34.800 140.500,34.000 140.500,32.900 140.500,31.900 139.600,31.000 138.600,31.000 138.600,31.000 138.600,31.000 138.600,31.000 Z " />
  <path stroke="none" fill="#ffffffff" d="M 116.400,28.900 C 115.900,28.900 115.500,29.300 115.500,29.800 115.500,30.300 115.900,30.700 116.400,30.700 116.900,30.700 117.300,30.300 117.300,29.800 117.300,29.300 116.900,28.900 116.400,28.900 116.400,28.900 116.400,28.900 116.400,28.900 Z " />
  <path stroke="none" fill="#ffffffff" d="M 189.100,34.800 C 188.500,34.800 188.000,35.300 188.000,35.900 188.000,36.500 188.500,37.000 189.100,37.000 189.700,37.000 190.200,36.500 190.200,35.900 190.200,35.300 189.700,34.800 189.100,34.800 189.100,34.800 189.100,34.800 189.100,34.800 Z " />
  <path stroke="none" fill="#ffffffff" d="M 165.900,26.500 C 165.900,28.157 164.557,29.500 162.900,29.500 161.243,29.500 159.900,28.157 159.900,26.500 159.900,24.843 161.243,23.500 162.900,23.500 164.557,23.500 165.900,24.843 165.900,26.500 165.900,26.500 165.900,26.500 165.900,26.500 Z " />
  <path stroke="none" fill="#ffffffff" d="M 206.200,23.900 C 207.300,23.900 208.200,24.800 208.200,25.900 208.200,26.100 208.200,26.300 208.100,26.500 208.233,26.600 208.367,26.700 208.500,26.800 208.600,26.500 208.700,26.200 208.700,25.900 208.700,24.500 207.600,23.400 206.200,23.400 205.600,23.400 205.000,23.600 204.600,24.000 204.733,24.100 204.867,24.200 205.000,24.300 205.300,24.100 205.700,23.900 206.200,23.900 206.200,23.900 206.200,23.900 206.200,23.900 Z " />
  <path stroke="none" fill="#ffffffff" d="M 206.200,28.300 C 206.900,28.300 207.500,28.000 207.900,27.600 207.767,27.500 207.633,27.400 207.500,27.300 207.200,27.600 206.700,27.800 206.200,27.800 205.100,27.800 204.200,26.900 204.200,25.800 204.200,25.500 204.300,25.300 204.300,25.100 204.167,25.000 204.033,24.900 203.900,24.800 203.800,25.100 203.700,25.400 203.700,25.800 203.700,27.200 204.800,28.300 206.200,28.300 206.200,28.300 206.200,28.300 206.200,28.300 Z " />
  <path stroke="none" fill="#ffffffff" d="M 142.700,64.800 C 141.600,66.100 138.000,70.800 138.300,77.100 138.400,79.800 138.500,81.600 138.600,82.900 138.700,84.000 137.900,84.900 136.800,85.100 135.300,85.300 132.900,85.500 129.900,85.500 126.100,85.500 122.300,85.300 120.400,85.100 120.100,85.100 119.900,84.900 119.700,84.700 119.500,84.500 119.500,84.200 119.600,83.900 120.600,80.700 121.400,78.300 122.100,77.400 122.100,77.400 122.100,77.400 122.100,77.400 122.100,77.300 127.200,68.500 134.500,64.700 139.600,62.000 141.500,61.200 142.500,61.200 142.900,61.200 143.200,61.400 143.500,61.600 143.800,61.800 143.900,62.000 144.000,62.300 143.900,62.900 143.500,63.800 142.700,64.800 142.700,64.800 142.700,64.800 142.700,64.800 Z M 144.000,60.700 C 142.500,59.600 141.600,59.800 134.000,63.700 126.500,67.600 121.500,76.300 121.200,76.800 120.400,78.100 119.300,81.200 118.600,83.600 118.400,84.200 118.500,84.800 118.900,85.300 119.200,85.800 119.800,86.100 120.400,86.100 122.300,86.200 126.200,86.500 130.000,86.500 133.000,86.500 135.400,86.300 137.000,86.100 138.600,85.900 139.800,84.500 139.700,82.900 139.600,81.600 139.500,79.700 139.400,77.100 139.100,71.100 142.500,66.700 143.600,65.400 144.200,64.700 145.100,63.400 145.000,62.100 144.800,61.600 144.500,61.100 144.000,60.700 144.000,60.700 144.000,60.700 144.000,60.700 Z " />
  <path stroke="none" fill="#ffffffff" d="M 132.200,75.600 C 132.200,76.815 131.215,77.800 130.000,77.800 128.785,77.800 127.800,76.815 127.800,75.600 127.800,74.385 128.785,73.400 130.000,73.400 131.215,73.400 132.200,74.385 132.200,75.600 132.200,75.600 132.200,75.600 132.200,75.600 Z " />
  <path stroke="none" fill="#ffffffff" d="M 283.700,38.300 C 283.700,39.200 283.000,39.900 282.100,40.000 279.500,40.200 274.100,40.500 268.400,40.600 268.400,36.867 268.400,33.133 268.400,29.400 268.700,29.400 269.000,29.400 269.300,29.400 269.300,30.767 269.300,32.133 269.300,33.500 270.067,33.500 270.833,33.500 271.600,33.500 271.833,32.667 272.067,31.833 272.300,31.000 274.567,31.000 276.833,31.000 279.100,31.000 279.467,31.833 279.833,32.667 280.200,33.500 280.900,33.500 281.600,33.500 282.300,33.500 282.300,32.200 282.300,30.900 282.300,29.600 283.100,29.700 283.700,30.400 283.700,31.200 283.700,33.567 283.700,35.933 283.700,38.300 283.700,38.300 283.700,38.300 283.700,38.300 Z M 267.600,40.600 C 266.700,40.600 265.800,40.600 264.900,40.600 264.800,40.600 264.600,40.600 264.500,40.600 264.500,36.900 264.500,33.200 264.500,29.500 265.500,29.500 266.600,29.500 267.600,29.400 267.600,33.133 267.600,36.867 267.600,40.600 267.600,40.600 267.600,40.600 267.600,40.600 Z M 263.800,40.600 C 255.600,40.500 247.900,39.800 247.900,37.300 247.900,33.800 247.900,34.400 247.900,32.200 247.900,30.400 255.600,29.800 263.800,29.500 263.800,33.200 263.800,36.900 263.800,40.600 263.800,40.600 263.800,40.600 263.800,40.600 Z M 227.100,27.000 C 227.100,25.000 227.100,23.000 227.100,21.000 241.167,21.000 255.233,21.000 269.300,21.000 269.300,23.000 269.300,25.000 269.300,27.000 255.233,27.000 241.167,27.000 227.100,27.000 227.100,27.000 227.100,27.000 227.100,27.000 Z M 226.100,27.000 C 224.233,28.833 222.367,30.667 220.500,32.500 216.000,34.600 211.500,36.700 207.000,38.800 205.933,38.800 204.867,38.800 203.800,38.800 204.300,37.400 204.400,34.700 204.400,32.400 206.433,32.400 208.467,32.400 210.500,32.400 211.700,32.400 212.600,31.400 212.600,30.300 212.600,28.100 212.600,25.900 212.600,23.700 212.600,22.500 211.600,21.600 210.500,21.600 196.600,21.600 182.700,21.600 168.800,21.600 167.800,21.100 166.800,20.600 165.800,20.300 185.933,20.300 206.067,20.300 226.200,20.300 226.200,22.533 226.200,24.767 226.200,27.000 226.167,27.000 226.133,27.000 226.100,27.000 Z M 200.200,25.800 C 192.333,25.800 184.467,25.800 176.600,25.800 176.600,25.800 176.600,25.800 176.600,25.800 174.700,24.800 172.700,23.600 170.500,22.400 183.767,22.400 197.033,22.400 210.300,22.400 210.900,22.400 211.400,22.900 211.400,23.500 211.400,25.700 211.400,27.900 211.400,30.100 211.400,30.700 210.900,31.200 210.300,31.200 208.267,31.200 206.233,31.200 204.200,31.200 204.200,29.900 204.200,28.900 204.100,28.800 204.100,27.900 203.800,27.200 203.200,26.700 202.100,25.700 200.200,25.800 200.200,25.800 200.200,25.800 200.200,25.800 200.200,25.800 Z M 201.900,40.100 C 201.900,40.100 201.900,40.100 201.900,40.100 200.700,41.800 198.300,44.300 194.400,44.300 188.700,44.300 166.400,44.300 166.400,44.300 166.400,44.300 156.700,46.100 156.700,50.000 156.700,54.000 158.700,57.300 158.700,57.300 158.700,57.300 147.500,63.300 145.700,69.700 143.900,76.100 145.700,87.500 145.700,87.500 145.700,87.500 144.300,89.300 131.900,89.300 123.600,89.300 118.200,89.000 115.600,88.700 114.600,88.600 113.800,87.600 114.000,86.600 114.800,82.400 117.000,72.400 121.700,66.200 127.800,58.200 132.300,53.900 132.300,50.100 132.300,46.300 130.900,45.200 127.100,44.600 123.300,44.000 116.000,43.100 114.300,40.300 112.600,37.500 112.300,34.600 112.300,34.600 110.367,34.600 108.433,34.600 106.500,34.600 105.400,34.600 104.500,33.700 104.500,32.600 104.500,28.633 104.500,24.667 104.500,20.700 104.600,19.700 105.400,18.800 106.500,18.800 109.633,18.800 112.767,18.800 115.900,18.800 116.333,19.233 116.767,19.667 117.200,20.100 118.700,20.100 120.200,20.100 121.700,20.100 121.500,21.600 121.400,23.100 121.300,24.500 119.400,25.067 117.500,25.633 115.600,26.200 113.900,26.700 112.800,28.300 112.900,30.100 113.000,32.100 114.700,33.600 116.700,33.600 116.800,33.600 117.000,33.600 117.100,33.600 120.367,33.233 123.633,32.867 126.900,32.500 127.233,32.633 127.567,32.767 127.900,32.900 128.200,33.000 128.500,33.100 128.900,33.100 129.700,33.100 130.400,32.800 130.900,32.300 131.600,31.600 132.600,30.600 133.400,29.900 134.300,29.100 136.500,28.400 139.300,27.900 139.600,27.900 139.900,27.800 140.300,27.800 142.000,27.800 144.200,28.200 144.500,28.300 147.233,29.100 149.967,29.900 152.700,30.700 149.533,30.533 146.367,30.367 143.200,30.200 141.633,29.833 140.067,29.467 138.500,29.100 138.200,29.000 137.900,29.000 137.600,29.000 135.800,29.000 134.300,30.100 133.700,31.800 133.133,33.633 132.567,35.467 132.000,37.300 131.700,38.300 131.800,39.400 132.300,40.400 132.800,41.400 133.700,42.100 134.700,42.400 135.800,42.733 136.900,43.067 138.000,43.400 138.500,43.500 139.000,43.600 139.500,43.600 139.800,43.600 140.000,43.600 140.300,43.500 154.100,41.200 167.900,38.900 181.700,36.600 183.767,37.433 185.833,38.267 187.900,39.100 188.300,39.200 188.700,39.300 189.100,39.300 190.300,39.300 191.400,38.600 191.900,37.600 192.300,36.800 192.300,35.900 192.000,35.000 192.400,35.100 192.700,35.200 193.100,35.200 195.000,35.200 196.500,33.700 196.500,31.800 196.500,29.900 195.000,28.400 193.100,28.400 191.200,28.400 189.700,29.900 189.700,31.800 189.700,31.800 189.700,31.800 189.700,31.800 189.300,30.900 188.400,30.300 187.500,30.300 186.633,30.300 185.767,30.300 184.900,30.300 184.200,29.900 181.800,28.700 178.400,26.900 185.633,26.900 192.867,26.900 200.100,26.900 200.100,26.900 201.700,26.800 202.600,27.600 203.000,27.900 203.200,28.400 203.200,29.000 203.300,29.400 203.600,37.800 201.900,40.100 201.900,40.100 201.900,40.100 201.900,40.100 Z M 170.800,58.300 C 167.500,59.000 164.800,58.800 161.900,57.700 161.567,57.167 161.233,56.633 160.900,56.100 160.900,56.100 159.200,53.300 159.200,50.100 159.200,49.900 159.400,49.700 159.700,49.500 159.700,50.300 159.900,51.500 161.100,53.600 162.900,56.700 165.000,57.600 166.600,57.800 167.200,57.900 167.400,57.100 166.900,56.800 165.100,55.900 162.700,54.100 162.700,50.100 162.700,49.100 162.800,48.400 163.100,47.900 164.200,47.500 165.400,47.200 166.700,46.900 170.133,46.900 173.567,46.900 177.000,46.900 177.500,48.300 177.700,49.500 177.700,50.600 177.700,53.700 175.300,57.400 170.800,58.300 170.800,58.300 170.800,58.300 170.800,58.300 Z M 104.100,16.500 C 103.700,16.500 103.300,16.500 102.900,16.500 102.900,16.500 102.900,16.500 102.900,16.500 102.400,16.500 102.000,16.300 101.600,16.000 101.200,15.600 101.000,15.200 101.000,14.700 101.000,12.967 101.000,11.233 101.000,9.500 101.000,9.000 101.200,8.500 101.600,8.200 102.000,7.900 102.400,7.700 102.900,7.700 103.300,7.700 103.700,7.700 104.100,7.700 104.100,10.633 104.100,13.567 104.100,16.500 104.100,16.500 104.100,16.500 104.100,16.500 Z M 103.600,30.100 C 103.033,30.100 102.467,30.100 101.900,30.100 101.100,30.100 100.400,29.400 100.400,28.600 100.400,27.067 100.400,25.533 100.400,24.000 100.400,23.200 101.100,22.500 101.900,22.500 102.467,22.500 103.033,22.500 103.600,22.500 103.600,25.033 103.600,27.567 103.600,30.100 103.600,30.100 103.600,30.100 103.600,30.100 Z M 129.400,20.100 C 130.800,20.100 132.200,20.100 133.600,20.100 133.400,20.200 133.100,20.300 132.900,20.400 132.100,20.800 131.400,21.000 130.800,21.000 130.200,21.100 129.700,20.800 129.400,20.100 129.400,20.200 129.400,20.100 129.400,20.100 129.400,20.100 129.400,20.100 129.400,20.100 Z M 173.500,32.500 C 172.333,31.867 171.167,31.233 170.000,30.600 167.400,30.800 164.800,31.000 162.200,31.200 160.533,31.067 158.867,30.933 157.200,30.800 153.100,29.600 149.000,28.400 144.900,27.200 144.900,27.200 142.400,26.700 140.400,26.700 140.000,26.700 139.600,26.700 139.300,26.800 137.300,27.100 134.200,27.800 132.900,29.000 132.100,29.700 131.100,30.700 130.400,31.400 130.000,31.800 129.600,32.000 129.100,32.000 128.900,32.000 128.700,32.000 128.500,31.900 128.100,31.767 127.700,31.633 127.300,31.500 123.967,31.867 120.633,32.233 117.300,32.600 117.200,32.600 117.100,32.600 117.000,32.600 115.600,32.600 114.300,31.500 114.200,30.000 114.100,28.700 114.900,27.500 116.200,27.100 118.333,26.467 120.467,25.833 122.600,25.200 122.600,25.200 122.700,22.600 123.000,20.100 123.000,20.100 123.000,20.100 123.000,20.100 123.100,19.500 123.200,19.000 123.300,18.400 123.300,18.400 123.300,18.400 123.300,18.400 123.300,18.200 123.400,18.100 123.400,17.900 123.400,17.900 123.400,17.900 123.400,17.900 123.500,17.400 123.700,16.900 123.900,16.600 123.900,16.600 123.900,16.600 123.900,16.600 124.000,16.500 124.000,16.400 124.100,16.300 124.400,15.900 124.700,15.600 125.100,15.600 125.700,15.600 126.200,15.900 126.600,16.300 126.700,16.400 126.800,16.500 126.900,16.700 126.900,16.700 126.900,16.700 126.900,16.700 127.200,17.100 127.500,17.600 127.700,18.100 127.700,18.100 127.700,18.100 127.700,18.200 127.800,18.300 127.800,18.500 127.900,18.700 127.900,18.700 127.900,18.800 127.900,18.800 127.900,18.900 128.000,19.000 128.000,19.200 128.200,19.800 128.400,20.400 128.600,20.800 129.000,21.800 129.900,22.300 130.900,22.300 131.700,22.300 132.500,22.000 133.500,21.500 134.300,21.100 135.200,20.700 136.500,20.300 136.800,20.200 137.100,20.100 137.400,20.000 137.400,20.000 137.500,20.000 137.500,20.000 138.200,19.800 138.900,19.700 139.700,19.500 139.800,19.500 139.800,19.500 139.900,19.500 140.200,19.400 140.500,19.400 140.900,19.300 141.000,19.300 141.100,19.300 141.200,19.300 141.600,19.200 142.000,19.200 142.400,19.100 142.400,19.100 142.400,19.100 142.400,19.100 142.800,19.100 143.300,19.000 143.800,19.000 143.900,19.000 144.100,19.000 144.200,19.000 144.500,19.000 144.900,19.000 145.300,18.900 145.500,18.900 145.600,18.900 145.800,18.900 146.300,18.900 146.800,18.900 147.300,18.900 147.300,18.900 147.300,18.900 147.400,18.900 147.500,18.900 147.600,18.900 147.700,18.900 148.000,18.900 148.400,18.900 148.700,18.900 148.900,18.900 149.100,18.900 149.300,18.900 149.800,18.900 150.400,18.900 150.900,18.900 151.000,18.900 151.200,18.900 151.300,18.900 151.800,18.900 152.300,18.900 152.700,18.900 152.800,18.900 152.900,18.900 153.000,18.900 153.600,18.900 154.200,19.000 154.700,19.000 154.800,19.000 154.900,19.000 155.000,19.000 155.500,19.000 156.000,19.100 156.500,19.100 156.600,19.100 156.700,19.100 156.800,19.100 157.400,19.200 158.000,19.200 158.600,19.300 158.600,19.300 158.600,19.300 158.600,19.300 159.200,19.400 159.800,19.500 160.300,19.600 160.400,19.600 160.500,19.700 160.700,19.700 161.300,19.800 161.900,20.000 162.400,20.100 164.800,20.800 167.200,21.700 169.800,23.200 176.100,26.800 182.300,30.000 184.400,31.100 180.767,31.567 177.133,32.033 173.500,32.500 173.500,32.500 173.500,32.500 173.500,32.500 Z M 188.100,33.800 C 186.300,34.500 182.900,35.200 180.700,35.500 167.200,37.733 153.700,39.967 140.200,42.200 140.000,42.200 139.800,42.200 139.600,42.200 139.200,42.200 138.800,42.100 138.400,42.000 137.300,41.667 136.200,41.333 135.100,41.000 133.500,40.500 132.600,38.800 133.100,37.200 133.667,35.367 134.233,33.533 134.800,31.700 135.200,30.400 136.400,29.600 137.700,29.600 137.900,29.600 138.200,29.600 138.400,29.700 140.000,30.067 141.600,30.433 143.200,30.800 147.900,31.067 152.600,31.333 157.300,31.600 162.700,32.033 168.100,32.467 173.500,32.900 173.500,32.900 186.600,31.000 187.700,31.100 187.800,31.100 187.800,31.100 187.800,31.100 188.400,31.200 188.900,31.600 189.000,32.200 189.000,32.400 189.200,33.400 188.100,33.800 188.100,33.800 188.100,33.800 188.100,33.800 Z M 190.300,31.600 C 190.300,30.000 191.600,28.700 193.200,28.700 194.800,28.700 196.100,30.000 196.100,31.600 196.100,33.200 194.800,34.500 193.200,34.500 192.700,34.500 192.200,34.300 191.700,34.100 191.500,33.700 191.100,33.400 190.700,33.200 190.700,33.200 190.700,33.200 190.700,33.200 190.500,32.800 190.300,32.200 190.300,31.600 190.300,31.600 190.300,31.600 190.300,31.600 Z M 191.100,37.000 C 190.700,37.700 189.900,38.200 189.200,38.200 188.900,38.200 188.700,38.100 188.400,38.000 186.533,37.233 184.667,36.467 182.800,35.700 185.100,35.300 188.500,34.500 189.600,33.600 189.833,33.733 190.067,33.867 190.300,34.000 191.200,34.700 191.600,35.900 191.100,37.000 191.100,37.000 191.100,37.000 191.100,37.000 Z M 105.100,7.700 C 127.400,8.067 149.700,8.433 172.000,8.800 172.000,8.133 172.000,7.467 172.000,6.800 173.400,7.933 174.800,9.067 176.200,10.200 177.067,10.200 177.933,10.200 178.800,10.200 179.000,10.200 179.500,10.600 179.700,10.800 179.833,10.967 179.967,11.133 180.100,11.300 181.633,11.300 183.167,11.300 184.700,11.300 184.800,11.300 184.900,11.400 184.900,11.500 184.900,11.800 184.900,12.100 184.900,12.400 184.900,12.500 184.800,12.600 184.700,12.600 183.133,12.600 181.567,12.600 180.000,12.600 179.867,12.800 179.733,13.000 179.600,13.200 179.400,13.600 179.000,14.000 178.800,14.000 177.900,14.000 177.000,14.000 176.100,14.000 176.100,14.000 172.200,17.700 172.000,17.800 172.000,17.000 172.000,16.200 172.000,15.400 157.233,15.667 142.467,15.933 127.700,16.200 127.000,15.300 126.100,14.600 124.900,14.600 124.000,14.600 123.300,15.300 122.800,16.300 116.900,16.400 111.000,16.500 105.100,16.600 105.100,13.633 105.100,10.667 105.100,7.700 105.100,7.700 105.100,7.700 105.100,7.700 Z M 270.100,18.300 C 270.500,18.300 270.900,18.300 271.300,18.300 271.467,19.200 271.633,20.100 271.800,21.000 271.800,21.000 271.800,21.000 271.800,21.000 271.800,24.200 271.800,27.400 271.800,30.600 271.600,31.333 271.400,32.067 271.200,32.800 270.867,32.800 270.533,32.800 270.200,32.800 270.200,27.967 270.200,23.133 270.200,18.300 270.167,18.300 270.133,18.300 270.100,18.300 Z M 272.200,21.000 C 274.500,21.000 276.800,21.000 279.100,21.000 279.100,24.067 279.100,27.133 279.100,30.200 276.800,30.200 274.500,30.200 272.200,30.200 272.200,27.133 272.200,24.067 272.200,21.000 272.200,21.000 272.200,21.000 272.200,21.000 Z M 279.600,20.800 C 279.733,19.967 279.867,19.133 280.000,18.300 280.500,18.300 281.000,18.300 281.500,18.300 281.500,23.100 281.500,27.900 281.500,32.700 281.200,32.700 280.900,32.700 280.600,32.700 280.267,31.867 279.933,31.033 279.600,30.200 279.600,27.067 279.600,23.933 279.600,20.800 279.600,20.800 279.600,20.800 279.600,20.800 Z M 285.400,28.800 C 285.400,25.367 285.400,21.933 285.400,18.500 285.000,18.500 284.600,18.500 284.200,18.500 284.200,17.600 284.200,16.700 284.200,15.800 282.100,15.800 280.000,15.800 277.900,15.800 277.800,16.500 277.700,17.200 277.600,17.900 277.567,18.100 277.533,18.300 277.500,18.500 276.267,18.500 275.033,18.500 273.800,18.500 273.767,18.300 273.733,18.100 273.700,17.900 273.567,17.200 273.433,16.500 273.300,15.800 271.233,15.800 269.167,15.800 267.100,15.800 267.100,16.700 267.100,17.600 267.100,18.500 254.300,18.500 241.500,18.500 228.700,18.500 228.700,18.200 228.700,17.900 228.700,17.600 210.967,17.833 193.233,18.067 175.500,18.300 176.033,17.667 176.567,17.033 177.100,16.400 177.600,16.400 178.100,16.400 178.600,16.400 179.700,16.400 180.600,15.600 181.100,15.000 182.200,15.000 183.300,15.000 184.400,15.000 185.700,15.000 186.700,14.100 187.000,12.900 187.800,12.900 188.600,12.900 189.400,12.900 190.000,12.900 190.400,12.500 190.400,11.900 190.400,11.300 190.000,10.900 189.400,10.900 188.600,10.900 187.800,10.900 187.000,10.900 186.700,9.700 185.700,8.800 184.400,8.800 183.267,8.800 182.133,8.800 181.000,8.800 180.500,8.300 179.700,7.700 178.600,7.700 178.067,7.700 177.533,7.700 177.000,7.700 176.200,6.900 175.400,6.100 174.600,5.300 173.900,4.600 172.900,4.200 171.800,4.200 170.700,4.200 169.800,5.100 169.800,6.200 169.800,6.233 169.800,6.267 169.800,6.300 147.433,5.933 125.067,5.567 102.700,5.200 101.500,5.200 100.400,5.600 99.600,6.400 98.800,7.200 98.300,8.300 98.300,9.500 98.300,11.233 98.300,12.967 98.300,14.700 98.300,15.900 98.800,17.000 99.600,17.800 100.300,18.500 101.300,19.000 102.300,19.000 102.100,19.300 102.000,19.600 101.900,20.000 101.833,20.000 101.767,20.000 101.700,20.000 99.500,20.000 97.700,21.800 97.700,24.000 97.700,25.500 97.700,27.000 97.700,28.500 97.700,30.700 99.500,32.500 101.700,32.500 101.767,32.500 101.833,32.500 101.900,32.500 101.900,34.900 103.900,36.900 106.400,36.900 107.667,36.900 108.933,36.900 110.200,36.900 110.600,38.200 111.100,39.800 112.100,41.400 114.000,44.700 119.500,45.800 125.500,46.700 125.900,46.800 126.300,46.800 126.700,46.900 129.800,47.400 129.800,47.800 129.800,49.900 129.800,51.900 127.400,54.800 124.100,58.900 122.800,60.500 121.300,62.400 119.700,64.400 114.600,71.100 112.300,81.700 111.500,85.900 111.300,87.100 111.600,88.300 112.300,89.300 113.000,90.300 114.100,90.900 115.300,91.000 117.800,91.200 123.300,91.600 131.900,91.600 140.900,91.600 146.200,90.700 147.600,88.900 147.833,88.600 148.067,88.300 148.300,88.000 148.233,87.633 148.167,87.267 148.100,86.900 148.100,86.800 146.400,76.000 148.000,70.200 149.100,66.300 155.800,61.500 159.800,59.400 162.200,60.500 164.500,61.000 167.000,61.000 168.300,61.000 169.700,60.900 171.100,60.600 176.900,59.400 180.000,54.600 180.000,50.400 180.000,49.300 179.800,48.000 179.400,46.700 184.333,46.700 189.267,46.700 194.200,46.700 199.400,46.700 202.600,43.200 203.900,41.100 205.000,41.100 206.100,41.100 207.200,41.100 207.467,41.067 207.733,41.033 208.000,41.000 212.500,38.900 217.000,36.800 221.500,34.700 221.633,34.633 221.767,34.567 221.900,34.500 222.000,34.400 222.100,34.300 222.200,34.200 223.833,32.600 225.467,31.000 227.100,29.400 233.633,29.400 240.167,29.400 246.700,29.400 245.800,30.000 245.300,30.900 245.300,32.100 245.300,33.800 245.300,35.500 245.300,37.200 245.300,41.400 250.800,43.000 264.900,43.000 272.000,43.000 279.400,42.500 282.300,42.300 284.500,42.100 286.200,40.300 286.200,38.100 286.200,35.767 286.200,33.433 286.200,31.100 286.200,30.300 285.900,29.500 285.400,28.800 285.400,28.800 285.400,28.800 285.400,28.800 Z " />
  <path stroke="none" fill="#ffffffff" d="M 275.800,27.600 C 274.700,27.600 273.800,26.700 273.800,25.600 273.800,24.500 274.700,23.600 275.800,23.600 276.900,23.600 277.800,24.500 277.800,25.600 277.700,26.700 276.800,27.600 275.800,27.600 275.800,27.600 275.800,27.600 275.800,27.600 Z M 275.800,23.100 C 274.400,23.100 273.300,24.200 273.300,25.600 273.300,27.000 274.400,28.100 275.800,28.100 277.200,28.100 278.300,27.000 278.300,25.600 278.200,24.200 277.100,23.100 275.800,23.100 275.800,23.100 275.800,23.100 275.800,23.100 Z " />
</svg>