<?xml version="1.0" encoding="UTF-8" standalone="no"?>
<!DOCTYPE svg PUBLIC "-//W3C//DTD SVG 20010904//EN" "http://www.w3.org/TR/2001/REC-SVG-20010904/DTD/svg10.dtd"[]>
<svg version="1.1" id="Frosty Editor v1.0.6.3" xmlns="http://www.w3.org/2000/svg" d1p1:xlink="http://www.w3.org/1999/xlink" viewBox="0 0 25 25" xmlns:d1p1="xmlns">
  <path stroke="none" fill="#ffffffff" d="M 12.533,23.009 C 12.473,22.967 12.372,22.894 12.310,22.845 12.076,22.662 11.918,22.543 11.461,22.208 11.203,22.018 10.924,21.808 10.841,21.740 10.505,21.465 10.264,21.264 10.166,21.176 10.110,21.126 9.953,20.992 9.818,20.879 9.683,20.766 9.484,20.591 9.375,20.489 9.267,20.388 9.041,20.180 8.874,20.028 8.461,19.650 7.608,18.801 7.454,18.613 7.275,18.394 6.911,17.852 6.716,17.515 6.507,17.154 6.375,16.795 6.333,16.479 6.300,16.228 6.309,16.170 6.406,15.986 6.503,15.803 6.590,15.725 6.999,15.451 7.309,15.243 7.394,15.174 7.627,14.938 7.941,14.620 8.004,14.529 8.087,14.267 8.148,14.078 8.149,14.070 8.128,13.857 8.101,13.578 8.071,13.314 8.044,13.106 8.032,13.016 8.014,12.809 8.003,12.645 7.993,12.481 7.975,12.251 7.963,12.132 7.909,11.574 7.893,11.017 7.892,9.569 7.891,8.103 7.896,7.900 7.945,7.487 8.071,6.410 8.207,5.857 8.541,5.057 8.714,4.644 8.788,4.501 8.942,4.288 9.122,4.038 9.303,3.856 9.573,3.652 9.697,3.557 9.895,3.391 10.013,3.282 10.274,3.043 10.442,2.926 10.750,2.771 11.193,2.549 11.607,2.434 12.187,2.371 12.306,2.358 12.470,2.338 12.551,2.327 12.652,2.313 12.748,2.313 12.849,2.327 12.930,2.338 13.094,2.358 13.213,2.371 13.793,2.434 14.207,2.549 14.650,2.771 14.958,2.926 15.126,3.043 15.387,3.282 15.505,3.391 15.703,3.557 15.827,3.652 15.951,3.746 16.114,3.886 16.189,3.963 16.345,4.125 16.571,4.428 16.639,4.570 16.665,4.624 16.693,4.668 16.701,4.668 16.708,4.668 16.824,4.544 16.958,4.392 17.092,4.241 17.204,4.120 17.207,4.123 17.210,4.126 17.125,4.307 17.017,4.525 16.910,4.743 16.822,4.933 16.822,4.947 16.822,4.962 16.846,5.027 16.875,5.092 17.072,5.539 17.241,6.104 17.327,6.611 17.492,7.579 17.502,7.725 17.512,9.225 17.521,10.491 17.521,10.491 17.521,10.491 18.053,10.975 18.053,10.975 18.053,10.975 18.346,11.242 18.586,11.463 18.586,11.467 18.586,11.474 17.876,11.137 17.653,11.023 17.530,10.961 17.530,10.961 17.530,10.961 17.514,11.039 17.514,11.039 17.514,11.039 17.505,11.082 17.489,11.297 17.478,11.517 17.467,11.737 17.448,12.014 17.437,12.132 17.425,12.251 17.407,12.481 17.397,12.645 17.386,12.809 17.368,13.016 17.356,13.106 17.329,13.314 17.299,13.578 17.272,13.857 17.251,14.070 17.252,14.078 17.313,14.267 17.396,14.529 17.459,14.620 17.773,14.938 18.006,15.174 18.091,15.243 18.401,15.451 18.810,15.725 18.897,15.803 18.994,15.986 19.091,16.170 19.100,16.228 19.067,16.479 19.025,16.795 18.893,17.154 18.684,17.515 18.489,17.852 18.125,18.394 17.946,18.613 17.792,18.801 16.939,19.650 16.526,20.028 16.359,20.180 16.133,20.388 16.025,20.489 15.916,20.591 15.717,20.766 15.582,20.879 15.447,20.992 15.291,21.126 15.234,21.176 15.136,21.264 14.895,21.465 14.559,21.740 14.476,21.808 14.197,22.018 13.939,22.208 13.482,22.543 13.324,22.662 13.090,22.845 12.884,23.006 12.758,23.083 12.700,23.083 12.668,23.083 12.594,23.050 12.533,23.009 Z M 11.274,19.612 C 11.267,19.587 11.188,19.359 11.099,19.104 10.882,18.487 10.665,17.791 10.567,17.403 10.463,16.989 10.306,16.341 10.270,16.172 10.254,16.099 10.198,15.854 10.147,15.629 9.996,14.972 9.854,14.310 9.757,13.814 9.507,12.541 9.388,11.908 9.234,11.035 9.198,10.832 9.147,10.546 9.120,10.399 9.052,10.023 8.927,9.237 8.927,9.184 8.927,9.104 8.884,9.047 8.780,8.984 8.723,8.951 8.661,8.900 8.641,8.872 8.622,8.843 8.566,8.705 8.517,8.564 8.361,8.113 8.332,8.091 8.332,8.426 8.332,8.680 8.368,9.179 8.444,9.979 8.615,11.772 9.330,14.469 10.393,17.321 10.479,17.552 10.617,17.926 10.700,18.151 10.837,18.525 11.188,19.466 11.241,19.602 11.268,19.670 11.293,19.678 11.274,19.612 Z M 14.340,19.115 C 14.433,18.867 14.559,18.526 14.622,18.356 14.684,18.187 14.774,17.943 14.822,17.813 15.397,16.257 15.520,15.907 15.804,15.003 16.282,13.481 16.621,12.125 16.833,10.892 16.852,10.779 16.874,10.680 16.881,10.673 16.888,10.665 17.027,10.723 17.189,10.801 17.351,10.879 17.488,10.943 17.492,10.943 17.496,10.943 17.499,10.837 17.499,10.708 17.499,10.473 17.499,10.473 17.499,10.473 17.226,10.224 17.226,10.224 17.226,10.224 16.954,9.976 16.954,9.976 16.954,9.976 16.969,9.819 16.969,9.819 16.969,9.819 17.056,8.946 17.086,8.222 17.037,8.210 17.020,8.206 16.948,8.386 16.808,8.785 16.786,8.847 16.750,8.893 16.685,8.939 16.494,9.077 16.498,9.071 16.465,9.279 16.448,9.384 16.431,9.475 16.426,9.480 16.417,9.488 15.489,8.654 15.489,8.637 15.489,8.633 15.532,8.604 15.584,8.574 15.698,8.507 15.923,8.296 16.171,8.024 16.310,7.871 16.349,7.816 16.331,7.798 16.316,7.783 16.166,7.771 15.899,7.763 15.674,7.757 15.485,7.746 15.478,7.739 15.466,7.727 15.965,6.670 16.000,6.631 16.008,6.623 16.123,6.717 16.255,6.841 16.486,7.058 16.538,7.092 16.566,7.046 16.586,7.013 16.688,7.023 16.792,7.067 16.846,7.090 16.893,7.106 16.897,7.101 16.916,7.083 16.626,6.726 16.415,6.509 16.182,6.268 16.182,6.268 16.182,6.268 16.213,6.191 16.213,6.191 16.213,6.191 16.230,6.148 16.370,5.857 16.523,5.543 16.676,5.229 16.801,4.962 16.800,4.948 16.799,4.935 16.774,4.871 16.744,4.806 16.689,4.688 16.689,4.688 16.689,4.688 16.156,5.282 16.156,5.282 16.156,5.282 15.623,5.876 15.623,5.876 15.623,5.876 15.551,5.833 15.551,5.833 15.551,5.833 14.920,5.460 14.249,5.231 13.449,5.117 13.046,5.059 12.354,5.059 11.951,5.117 11.361,5.201 10.737,5.379 10.299,5.589 10.089,5.690 10.089,5.690 10.089,5.690 9.984,5.638 9.984,5.638 9.984,5.638 9.880,5.586 9.880,5.586 9.880,5.586 9.949,5.658 9.949,5.658 9.949,5.658 10.018,5.730 10.018,5.730 10.018,5.730 9.918,5.787 9.918,5.787 9.918,5.787 9.488,6.035 9.041,6.399 8.766,6.726 8.603,6.920 8.490,7.081 8.500,7.107 8.503,7.117 8.561,7.102 8.628,7.074 8.742,7.025 8.754,7.024 8.815,7.053 8.898,7.093 8.905,7.089 9.204,6.802 9.329,6.683 9.518,6.526 9.625,6.455 9.866,6.292 10.259,6.098 10.351,6.095 10.414,6.093 10.496,6.161 11.335,6.921 11.837,7.377 12.249,7.751 12.249,7.752 12.249,7.754 11.748,7.752 11.136,7.748 10.107,7.741 9.086,7.762 9.056,7.792 9.033,7.815 9.118,7.917 9.400,8.205 9.726,8.538 9.869,8.634 10.399,8.874 11.164,9.221 11.268,9.254 11.716,9.300 12.312,9.361 12.465,9.373 12.715,9.373 12.865,9.374 12.987,9.379 12.987,9.384 12.987,9.390 12.599,10.192 12.125,11.167 11.652,12.141 11.267,12.941 11.269,12.943 11.272,12.946 11.971,12.173 12.823,11.226 13.675,10.279 14.382,9.495 14.396,9.484 14.413,9.469 14.694,9.596 15.339,9.907 15.845,10.151 16.264,10.357 16.272,10.365 16.292,10.385 16.097,11.487 15.806,13.004 15.603,14.060 15.576,14.189 15.394,15.014 14.928,17.123 14.716,17.927 14.330,19.033 14.236,19.304 14.153,19.548 14.146,19.577 14.117,19.697 14.181,19.543 14.340,19.115 Z M 12.584,10.902 C 12.645,10.772 12.877,10.292 13.100,9.835 13.323,9.379 13.545,8.920 13.593,8.817 13.681,8.629 13.681,8.629 13.681,8.629 12.734,7.770 12.734,7.770 12.734,7.770 12.214,7.297 11.755,6.881 11.716,6.844 11.644,6.778 11.644,6.778 11.644,6.778 11.746,6.827 11.746,6.827 11.746,6.827 13.228,7.544 14.112,7.969 14.120,7.969 14.130,7.969 15.880,6.034 15.956,5.940 15.991,5.896 15.830,6.237 15.356,7.210 15.133,7.667 14.911,8.126 14.863,8.229 14.774,8.417 14.774,8.417 14.774,8.417 15.721,9.276 15.721,9.276 15.721,9.276 16.242,9.749 16.701,10.165 16.740,10.202 16.812,10.268 16.812,10.268 16.812,10.268 16.709,10.219 16.709,10.219 16.709,10.219 15.228,9.502 14.344,9.077 14.335,9.077 14.326,9.077 12.575,11.012 12.500,11.106 12.486,11.123 12.524,11.032 12.584,10.902 Z M 12.379,6.795 C 11.463,6.352 10.720,5.984 10.728,5.977 10.751,5.954 11.200,5.861 11.449,5.827 11.868,5.771 12.166,5.753 12.700,5.753 13.493,5.753 14.016,5.809 14.623,5.959 14.927,6.034 15.269,6.146 15.312,6.186 15.328,6.201 14.085,7.601 14.056,7.599 14.049,7.599 13.294,7.237 12.379,6.795 Z " />
</svg>