<?xml version="1.0" encoding="UTF-8" standalone="no"?>
<!DOCTYPE svg PUBLIC "-//W3C//DTD SVG 20010904//EN" "http://www.w3.org/TR/2001/REC-SVG-20010904/DTD/svg10.dtd"[]>
<svg version="1.1" id="Frosty Editor v1.0.6.3" xmlns="http://www.w3.org/2000/svg" d1p1:xlink="http://www.w3.org/1999/xlink" viewBox="0 0 25 25" xmlns:d1p1="xmlns">
  <path stroke="none" fill="#ffffffff" d="M 12.827,1.240 C 12.802,1.240 12.777,1.241 12.751,1.244 12.077,1.287 11.918,2.316 12.564,2.546 12.567,2.548 12.571,2.549 12.574,2.551 12.637,5.216 12.700,7.881 12.763,10.546 12.897,10.546 12.897,10.546 12.897,10.546 12.964,7.876 13.031,5.207 13.098,2.537 13.476,2.341 13.683,1.776 13.301,1.442 13.174,1.317 13.005,1.241 12.827,1.240 Z M 7.888,3.961 C 7.868,3.961 7.847,3.962 7.827,3.964 7.293,3.997 7.174,4.811 7.680,4.993 7.860,5.080 8.039,5.041 8.177,4.939 9.493,6.040 10.489,7.522 10.989,9.164 11.227,9.948 11.348,10.768 11.339,11.588 11.337,11.774 11.330,11.961 11.312,12.146 11.297,12.334 11.272,12.524 11.299,12.711 11.307,12.774 11.322,12.835 11.344,12.895 11.408,12.785 11.462,12.671 11.509,12.553 11.534,12.458 11.545,12.357 11.561,12.259 11.649,11.673 11.664,11.076 11.611,10.486 11.492,9.168 11.034,7.883 10.301,6.780 9.963,6.272 9.567,5.801 9.119,5.387 8.972,5.253 8.819,5.128 8.670,4.997 8.566,4.908 8.461,4.820 8.350,4.739 8.458,4.543 8.459,4.292 8.262,4.119 8.162,4.021 8.027,3.962 7.888,3.961 Z M 17.754,3.961 C 17.739,3.961 17.724,3.962 17.709,3.964 17.321,3.987 17.148,4.425 17.279,4.732 15.970,5.680 14.966,7.037 14.422,8.558 14.178,9.241 14.027,9.956 13.983,10.679 13.967,10.954 13.963,11.232 13.980,11.507 13.995,11.712 14.011,11.915 14.029,12.119 14.051,12.330 14.085,12.546 14.178,12.739 14.205,12.794 14.234,12.844 14.269,12.893 14.297,12.779 14.315,12.665 14.329,12.550 14.333,12.464 14.314,12.380 14.308,12.294 14.205,11.253 14.318,10.193 14.618,9.192 15.083,7.632 15.992,6.207 17.216,5.133 17.292,5.066 17.371,5.002 17.448,4.937 17.482,4.959 17.518,4.978 17.560,4.993 18.062,5.236 18.570,4.495 18.142,4.120 18.039,4.018 17.899,3.958 17.754,3.961 Z M 6.914,7.616 C 6.894,7.616 6.873,7.618 6.853,7.620 6.299,7.660 6.216,8.522 6.757,8.664 6.947,8.735 7.129,8.676 7.260,8.556 7.860,9.009 8.401,9.542 8.850,10.146 9.354,10.821 9.738,11.592 9.935,12.414 10.013,12.740 10.059,13.074 10.078,13.409 10.097,13.585 10.090,13.767 10.076,13.946 10.061,14.176 10.027,14.406 10.043,14.638 10.051,14.709 10.067,14.779 10.084,14.848 10.117,14.785 10.152,14.722 10.189,14.661 10.289,14.472 10.328,14.256 10.349,14.046 10.369,13.838 10.372,13.629 10.381,13.421 10.386,13.300 10.385,13.179 10.377,13.060 10.356,12.719 10.303,12.380 10.215,12.050 10.068,11.490 9.829,10.954 9.523,10.464 9.061,9.722 8.451,9.077 7.750,8.557 7.642,8.476 7.530,8.400 7.417,8.325 7.489,8.141 7.468,7.926 7.296,7.775 7.195,7.674 7.057,7.615 6.914,7.616 Z M 18.727,7.616 C 18.707,7.616 18.687,7.618 18.666,7.620 18.316,7.647 18.147,8.012 18.221,8.307 17.927,8.501 17.647,8.714 17.383,8.947 16.777,9.484 16.252,10.120 15.872,10.837 15.644,11.266 15.469,11.724 15.359,12.199 15.293,12.486 15.251,12.780 15.239,13.075 15.224,13.387 15.221,13.701 15.258,14.010 15.283,14.213 15.324,14.413 15.395,14.604 15.426,14.693 15.478,14.771 15.530,14.848 15.537,14.782 15.550,14.715 15.562,14.649 15.592,14.452 15.563,14.253 15.544,14.056 15.524,13.867 15.508,13.676 15.528,13.487 15.540,13.287 15.554,13.087 15.585,12.889 15.692,12.165 15.946,11.466 16.311,10.832 16.815,9.953 17.515,9.193 18.319,8.580 18.333,8.570 18.348,8.561 18.361,8.550 18.408,8.593 18.465,8.628 18.534,8.651 19.039,8.884 19.534,8.148 19.109,7.775 19.008,7.674 18.869,7.615 18.727,7.616 Z M 12.816,11.089 C 11.552,13.263 10.278,15.434 9.016,17.609 8.906,18.947 9.002,20.341 8.970,21.699 9.046,23.454 10.849,24.606 12.478,24.686 12.585,24.695 12.693,24.700 12.801,24.700 14.429,24.708 16.201,23.799 16.608,22.128 16.733,20.658 16.623,19.161 16.660,17.680 15.377,15.484 14.095,13.287 12.816,11.089 Z M 12.816,12.049 C 13.936,13.969 15.056,15.889 16.176,17.809 16.112,19.306 16.318,20.853 16.050,22.293 15.549,23.578 14.103,24.222 12.783,24.214 12.695,24.213 12.607,24.210 12.521,24.204 10.969,24.159 9.242,22.931 9.456,21.226 9.496,20.046 9.355,18.832 9.538,17.675 10.630,15.799 11.723,13.924 12.816,12.049 Z M 12.812,12.873 C 12.812,12.880 12.812,12.880 12.812,12.880 10.007,17.692 10.007,17.692 10.007,17.692 10.000,17.692 10.000,17.692 10.000,17.692 9.996,18.935 11.342,19.808 12.510,19.857 12.544,19.860 12.579,19.862 12.613,19.864 12.614,19.864 12.614,19.864 12.614,19.864 12.651,19.866 12.688,19.868 12.726,19.869 12.758,19.870 12.791,19.871 12.824,19.871 12.853,19.870 12.882,19.870 12.912,19.869 13.906,19.843 14.948,19.406 15.437,18.509 15.586,18.241 15.648,17.964 15.642,17.692 15.634,17.692 15.634,17.692 15.634,17.692 15.630,17.692 15.630,17.692 15.630,17.692 12.825,12.880 12.825,12.880 12.825,12.880 12.825,12.873 12.825,12.873 12.825,12.873 12.820,12.873 12.820,12.873 12.820,12.873 12.820,12.880 12.820,12.880 12.820,12.880 12.819,12.882 12.819,12.882 12.819,12.882 12.817,12.880 12.817,12.880 12.817,12.880 12.817,12.873 12.817,12.873 12.817,12.873 Z M 13.293,12.873 C 15.716,17.026 15.716,17.026 15.716,17.026 13.294,12.873 13.294,12.873 13.294,12.873 Z M 12.809,13.332 C 12.810,13.332 12.810,13.332 12.811,13.332 12.813,13.332 12.815,13.332 12.816,13.332 12.960,13.328 13.081,13.514 13.112,13.766 13.116,13.800 13.118,13.835 13.118,13.872 13.121,14.182 12.989,14.436 12.823,14.441 12.820,14.441 12.818,14.441 12.815,14.441 12.814,14.441 12.813,14.441 12.812,14.441 12.810,14.441 12.809,14.441 12.807,14.441 12.804,14.441 12.801,14.440 12.798,14.440 12.795,14.439 12.791,14.439 12.788,14.438 12.676,14.422 12.582,14.294 12.538,14.113 12.523,14.047 12.514,13.975 12.514,13.899 12.512,13.616 12.622,13.383 12.767,13.341 12.779,13.336 12.792,13.334 12.805,13.333 12.806,13.333 12.808,13.332 12.809,13.332 Z M 11.764,14.928 C 11.764,14.928 11.764,14.928 11.764,14.928 11.767,14.928 11.769,14.928 11.772,14.928 11.844,14.930 11.909,14.978 11.960,15.058 12.024,15.162 12.064,15.316 12.063,15.488 12.060,15.794 11.929,16.038 11.767,16.041 11.764,16.041 11.762,16.041 11.759,16.041 11.759,16.041 11.759,16.041 11.759,16.041 11.756,16.041 11.753,16.041 11.751,16.041 11.747,16.041 11.743,16.040 11.740,16.039 11.694,16.035 11.650,16.012 11.612,15.973 11.520,15.876 11.459,15.691 11.461,15.479 11.463,15.198 11.575,14.972 11.719,14.935 11.734,14.931 11.749,14.928 11.764,14.928 Z M 13.859,14.928 C 13.859,14.928 13.860,14.928 13.861,14.928 13.862,14.928 13.864,14.928 13.866,14.928 14.032,14.923 14.168,15.169 14.170,15.479 14.171,15.556 14.163,15.630 14.149,15.698 14.104,15.897 14.000,16.038 13.876,16.041 13.874,16.041 13.871,16.041 13.869,16.041 13.868,16.041 13.868,16.041 13.868,16.041 13.866,16.041 13.863,16.041 13.861,16.041 13.859,16.041 13.858,16.040 13.856,16.040 13.844,16.039 13.832,16.037 13.820,16.033 13.676,15.993 13.566,15.767 13.564,15.488 13.564,15.451 13.565,15.416 13.569,15.381 13.593,15.146 13.696,14.964 13.825,14.934 13.826,14.934 13.826,14.934 13.826,14.934 13.835,14.931 13.845,14.929 13.855,14.928 13.856,14.928 13.857,14.928 13.859,14.928 Z M 12.471,15.216 C 12.471,15.216 12.471,15.216 12.471,15.216 12.474,15.216 12.476,15.216 12.479,15.216 12.582,15.218 12.673,15.318 12.725,15.468 12.730,15.481 12.734,15.494 12.738,15.508 12.738,15.509 12.738,15.510 12.738,15.510 12.760,15.590 12.773,15.681 12.772,15.777 12.770,16.083 12.639,16.326 12.476,16.329 12.473,16.329 12.471,16.329 12.468,16.329 12.468,16.329 12.468,16.329 12.468,16.329 12.466,16.329 12.463,16.329 12.461,16.329 12.457,16.329 12.454,16.328 12.450,16.328 12.447,16.327 12.444,16.327 12.440,16.326 12.387,16.318 12.337,16.285 12.295,16.231 12.217,16.129 12.167,15.959 12.168,15.767 12.170,15.486 12.282,15.260 12.426,15.223 12.441,15.219 12.456,15.216 12.471,15.216 Z M 13.151,15.216 C 13.151,15.216 13.152,15.216 13.153,15.216 13.155,15.216 13.156,15.216 13.158,15.216 13.324,15.211 13.460,15.457 13.462,15.767 13.463,16.075 13.331,16.325 13.166,16.329 13.164,16.329 13.161,16.329 13.159,16.329 13.159,16.329 13.158,16.329 13.158,16.329 13.156,16.329 13.153,16.329 13.151,16.329 13.148,16.329 13.145,16.328 13.141,16.328 13.138,16.327 13.134,16.327 13.130,16.326 13.018,16.309 12.924,16.180 12.880,15.997 12.865,15.931 12.856,15.859 12.856,15.783 12.854,15.500 12.963,15.267 13.109,15.225 13.121,15.220 13.134,15.218 13.147,15.217 13.148,15.216 13.149,15.216 13.151,15.216 Z M 14.747,16.752 C 14.748,16.752 14.749,16.752 14.750,16.752 14.751,16.752 14.753,16.752 14.755,16.752 14.911,16.748 15.040,16.981 15.042,17.274 15.044,17.563 14.922,17.799 14.768,17.810 14.767,17.810 14.766,17.810 14.765,17.810 14.763,17.810 14.761,17.810 14.758,17.810 14.758,17.810 14.758,17.810 14.758,17.810 14.756,17.810 14.753,17.810 14.751,17.810 14.749,17.810 14.746,17.810 14.743,17.810 14.741,17.810 14.739,17.808 14.737,17.808 14.728,17.807 14.718,17.804 14.709,17.801 14.575,17.761 14.472,17.549 14.470,17.287 14.469,17.083 14.529,16.905 14.618,16.814 14.642,16.790 14.669,16.775 14.697,16.765 14.712,16.758 14.728,16.754 14.744,16.753 14.745,16.753 14.746,16.752 14.747,16.752 Z M 10.813,16.753 C 10.815,16.753 10.818,16.753 10.820,16.753 10.838,16.754 10.855,16.757 10.872,16.763 11.000,16.817 11.094,17.032 11.092,17.287 11.090,17.577 10.965,17.808 10.811,17.811 10.809,17.811 10.808,17.811 10.806,17.811 10.805,17.811 10.804,17.811 10.804,17.811 10.802,17.811 10.801,17.810 10.800,17.810 10.788,17.809 10.776,17.806 10.765,17.803 10.627,17.763 10.523,17.542 10.525,17.274 10.527,17.008 10.633,16.795 10.770,16.760 10.770,16.760 10.770,16.760 10.771,16.760 10.784,16.756 10.799,16.753 10.813,16.753 Z M 11.469,17.132 C 11.472,17.132 11.474,17.132 11.477,17.132 11.495,17.133 11.513,17.137 11.530,17.143 11.658,17.197 11.753,17.412 11.751,17.668 11.749,17.935 11.643,18.151 11.506,18.187 11.505,18.187 11.504,18.187 11.503,18.187 11.501,18.188 11.499,18.188 11.497,18.188 11.488,18.190 11.478,18.191 11.469,18.190 11.467,18.190 11.464,18.191 11.462,18.190 11.462,18.190 11.462,18.190 11.462,18.190 11.459,18.190 11.457,18.191 11.454,18.190 11.452,18.190 11.450,18.189 11.448,18.189 11.448,18.189 11.448,18.189 11.447,18.189 11.438,18.187 11.429,18.185 11.420,18.182 11.420,18.181 11.419,18.181 11.419,18.181 11.283,18.139 11.180,17.920 11.182,17.654 11.184,17.389 11.290,17.174 11.426,17.139 11.426,17.139 11.426,17.139 11.427,17.139 11.440,17.135 11.455,17.133 11.469,17.132 Z M 14.090,17.132 C 14.091,17.132 14.091,17.133 14.092,17.133 14.094,17.132 14.096,17.132 14.097,17.132 14.254,17.128 14.382,17.361 14.384,17.654 14.386,17.947 14.262,18.186 14.105,18.190 14.102,18.190 14.100,18.190 14.098,18.190 14.098,18.190 14.097,18.190 14.097,18.190 14.095,18.190 14.093,18.190 14.090,18.190 14.087,18.190 14.084,18.189 14.080,18.188 14.078,18.188 14.076,18.188 14.073,18.187 14.051,18.184 14.029,18.178 14.009,18.166 14.009,18.166 14.008,18.166 14.008,18.166 14.000,18.161 13.991,18.155 13.983,18.149 13.883,18.069 13.813,17.885 13.811,17.668 13.810,17.503 13.848,17.356 13.910,17.257 13.910,17.257 13.911,17.256 13.911,17.256 13.911,17.256 13.911,17.256 13.911,17.255 13.952,17.192 14.003,17.151 14.058,17.138 14.059,17.138 14.059,17.138 14.060,17.138 14.068,17.136 14.076,17.134 14.085,17.133 14.085,17.133 14.085,17.133 14.086,17.133 14.087,17.133 14.088,17.132 14.090,17.132 Z M 13.433,17.422 C 13.434,17.422 13.435,17.422 13.436,17.422 13.437,17.422 13.439,17.422 13.441,17.422 13.597,17.418 13.725,17.651 13.727,17.944 13.729,18.237 13.605,18.476 13.448,18.480 13.445,18.480 13.443,18.480 13.441,18.480 13.438,18.480 13.436,18.480 13.434,18.480 13.431,18.480 13.429,18.481 13.426,18.480 13.424,18.480 13.422,18.479 13.420,18.479 13.420,18.479 13.419,18.479 13.418,18.478 13.411,18.477 13.403,18.475 13.396,18.473 13.260,18.435 13.156,18.222 13.154,17.958 13.152,17.690 13.256,17.469 13.394,17.430 13.406,17.426 13.417,17.424 13.429,17.423 13.430,17.422 13.432,17.422 13.433,17.422 Z M 12.126,17.423 C 12.129,17.423 12.131,17.422 12.134,17.423 12.144,17.423 12.154,17.424 12.163,17.426 12.163,17.426 12.164,17.426 12.164,17.426 12.169,17.428 12.174,17.429 12.179,17.431 12.312,17.478 12.412,17.697 12.410,17.959 12.408,18.203 12.319,18.405 12.200,18.464 12.176,18.475 12.151,18.482 12.126,18.481 12.124,18.481 12.123,18.481 12.121,18.481 12.120,18.481 12.119,18.481 12.118,18.481 12.117,18.481 12.116,18.480 12.114,18.480 12.102,18.479 12.091,18.476 12.080,18.473 11.942,18.433 11.837,18.212 11.839,17.944 11.841,17.679 11.947,17.465 12.083,17.429 12.084,17.429 12.084,17.429 12.084,17.429 12.098,17.425 12.112,17.423 12.126,17.423 Z M 12.783,17.615 C 12.785,17.615 12.788,17.615 12.790,17.615 12.809,17.615 12.828,17.619 12.846,17.626 12.848,17.627 12.850,17.629 12.853,17.630 12.856,17.631 12.860,17.633 12.864,17.635 12.984,17.700 13.071,17.907 13.069,18.152 13.068,18.332 13.018,18.490 12.944,18.584 12.943,18.585 12.943,18.586 12.942,18.587 12.940,18.589 12.938,18.591 12.936,18.593 12.892,18.644 12.839,18.674 12.782,18.673 12.781,18.673 12.779,18.673 12.778,18.672 12.777,18.672 12.776,18.673 12.775,18.673 12.773,18.673 12.772,18.672 12.771,18.672 12.759,18.671 12.747,18.668 12.736,18.664 12.598,18.625 12.494,18.404 12.496,18.136 12.498,17.870 12.603,17.657 12.740,17.622 12.740,17.622 12.740,17.621 12.740,17.621 12.754,17.617 12.768,17.615 12.783,17.615 Z M 9.912,18.948 C 9.912,21.609 9.912,21.609 9.912,21.609 9.960,22.201 10.273,22.683 10.712,23.037 10.712,22.670 10.712,22.670 10.712,22.670 10.712,20.788 10.712,20.788 10.712,20.788 10.712,20.002 10.712,20.002 10.712,20.002 10.715,19.914 10.722,19.829 10.729,19.745 10.395,19.526 10.117,19.256 9.912,18.948 Z M 15.716,18.949 C 15.510,19.256 15.231,19.527 14.898,19.746 14.905,19.833 14.911,19.921 14.915,20.013 14.915,20.798 14.915,20.798 14.915,20.798 14.915,22.681 14.915,22.681 14.915,22.681 14.915,23.035 14.915,23.035 14.915,23.035 15.351,22.687 15.659,22.209 15.711,21.609 15.716,21.609 15.716,21.609 15.716,21.609 Z M 10.975,19.892 C 10.968,20.000 10.963,20.116 10.961,20.242 10.961,20.343 10.961,20.343 10.961,20.343 10.961,23.043 10.961,23.043 10.961,23.043 10.961,23.143 10.961,23.143 10.961,23.143 10.961,23.168 10.962,23.192 10.963,23.216 11.139,23.328 11.330,23.423 11.526,23.499 11.534,23.389 11.539,23.271 11.541,23.143 11.541,23.039 11.541,23.039 11.541,23.039 11.541,21.998 11.541,21.998 11.541,21.998 11.541,21.387 11.541,21.387 11.541,21.387 11.541,20.345 11.541,20.345 11.541,20.345 11.541,20.242 11.541,20.242 11.541,20.242 11.541,20.206 11.540,20.171 11.539,20.136 11.341,20.070 11.151,19.988 10.975,19.892 Z M 14.652,19.893 C 14.476,19.988 14.287,20.069 14.089,20.136 14.088,20.174 14.086,20.212 14.086,20.252 14.086,20.356 14.086,20.356 14.086,20.356 14.086,21.397 14.086,21.397 14.086,21.397 14.086,22.008 14.086,22.008 14.086,22.008 14.086,23.051 14.086,23.051 14.086,23.051 14.086,23.154 14.086,23.154 14.086,23.154 14.088,23.275 14.092,23.387 14.099,23.493 14.298,23.417 14.488,23.324 14.665,23.212 14.665,23.193 14.666,23.174 14.666,23.154 14.666,23.053 14.666,23.053 14.666,23.053 14.666,20.353 14.666,20.353 14.666,20.353 14.666,20.252 14.666,20.252 14.666,20.252 14.664,20.122 14.659,20.003 14.652,19.893 Z M 11.789,20.211 C 11.789,20.790 11.789,20.790 11.789,20.790 11.789,21.717 11.789,21.717 11.789,21.717 11.789,21.741 11.789,21.741 11.789,21.741 11.789,22.668 11.789,22.668 11.789,22.668 11.789,23.481 11.789,23.481 11.789,23.481 11.788,23.516 11.786,23.550 11.784,23.585 11.724,23.567 11.664,23.548 11.605,23.528 11.898,23.632 12.203,23.697 12.499,23.715 12.603,23.726 12.710,23.730 12.819,23.730 13.155,23.730 13.505,23.680 13.842,23.580 13.840,23.551 13.839,23.522 13.838,23.492 13.838,22.680 13.838,22.680 13.838,22.680 13.838,21.753 13.838,21.753 13.838,21.753 13.838,21.728 13.838,21.728 13.838,21.728 13.838,20.801 13.838,20.801 13.838,20.801 13.838,20.211 13.838,20.211 13.838,20.211 13.516,20.295 13.172,20.341 12.814,20.341 12.456,20.341 12.111,20.295 11.789,20.211 Z " />
</svg>