<?xml version="1.0" encoding="UTF-8" standalone="no"?>
<!DOCTYPE svg PUBLIC "-//W3C//DTD SVG 20010904//EN" "http://www.w3.org/TR/2001/REC-SVG-20010904/DTD/svg10.dtd"[]>
<svg version="1.1" id="Frosty Editor v1.0.6.3" xmlns="http://www.w3.org/2000/svg" d1p1:xlink="http://www.w3.org/1999/xlink" viewBox="0 0 96 96" xmlns:d1p1="xmlns">
  <path stroke="none" fill="#ffffffff" d="M 63.060,52.000 C 62.453,52.000 61.906,51.635 61.674,51.074 61.442,50.514 61.570,49.868 61.999,49.439 62.428,49.010 63.074,48.882 63.634,49.114 64.195,49.346 64.560,49.893 64.560,50.500 64.560,51.328 63.888,52.000 63.060,52.000 63.060,52.000 63.060,52.000 63.060,52.000 Z M 59.630,49.000 C 59.023,49.000 58.476,48.635 58.244,48.074 58.012,47.514 58.140,46.868 58.569,46.439 58.998,46.010 59.644,45.882 60.204,46.114 60.765,46.346 61.130,46.893 61.130,47.500 61.130,47.900 60.971,48.283 60.687,48.564 60.404,48.846 60.020,49.003 59.620,49.000 59.623,49.000 59.627,49.000 59.630,49.000 Z M 55.910,46.000 C 55.303,46.000 54.756,45.635 54.524,45.074 54.292,44.514 54.420,43.868 54.849,43.439 55.278,43.010 55.924,42.882 56.484,43.114 57.045,43.346 57.410,43.893 57.410,44.500 57.410,44.898 57.252,45.279 56.971,45.561 56.689,45.842 56.308,46.000 55.910,46.000 55.910,46.000 55.910,46.000 55.910,46.000 Z M 55.780,52.000 C 55.173,52.000 54.626,51.635 54.394,51.074 54.162,50.514 54.290,49.868 54.719,49.439 55.148,49.010 55.794,48.882 56.354,49.114 56.915,49.346 57.280,49.893 57.280,50.500 57.280,50.900 57.121,51.283 56.837,51.564 56.554,51.846 56.170,52.003 55.770,52.000 55.773,52.000 55.777,52.000 55.780,52.000 Z M 52.060,49.000 C 51.453,49.000 50.906,48.635 50.674,48.074 50.442,47.514 50.570,46.868 50.999,46.439 51.428,46.010 52.074,45.882 52.634,46.114 53.195,46.346 53.560,46.893 53.560,47.500 53.560,48.328 52.888,49.000 52.060,49.000 52.060,49.000 52.060,49.000 52.060,49.000 Z M 47.780,46.000 C 47.173,46.000 46.626,45.635 46.394,45.074 46.162,44.514 46.290,43.868 46.719,43.439 47.148,43.010 47.794,42.882 48.354,43.114 48.915,43.346 49.280,43.893 49.280,44.500 49.280,44.900 49.121,45.283 48.837,45.564 48.554,45.846 48.170,46.003 47.770,46.000 47.773,46.000 47.777,46.000 47.780,46.000 Z M 47.780,52.000 C 47.173,52.000 46.626,51.635 46.394,51.074 46.162,50.514 46.290,49.868 46.719,49.439 47.148,49.010 47.794,48.882 48.354,49.114 48.915,49.346 49.280,49.893 49.280,50.500 49.280,50.900 49.121,51.283 48.837,51.564 48.554,51.846 48.170,52.003 47.770,52.000 47.773,52.000 47.777,52.000 47.780,52.000 Z M 44.060,49.000 C 43.453,49.000 42.906,48.635 42.674,48.074 42.442,47.514 42.570,46.868 42.999,46.439 43.428,46.010 44.074,45.882 44.634,46.114 45.195,46.346 45.560,46.893 45.560,47.500 45.560,48.328 44.888,49.000 44.060,49.000 44.060,49.000 44.060,49.000 44.060,49.000 Z M 40.060,46.000 C 39.453,46.000 38.906,45.635 38.674,45.074 38.442,44.514 38.570,43.868 38.999,43.439 39.428,43.010 40.074,42.882 40.634,43.114 41.195,43.346 41.560,43.893 41.560,44.500 41.560,45.328 40.888,46.000 40.060,46.000 40.060,46.000 40.060,46.000 40.060,46.000 Z M 40.060,52.000 C 39.453,52.000 38.906,51.635 38.674,51.074 38.442,50.514 38.570,49.868 38.999,49.439 39.428,49.010 40.074,48.882 40.634,49.114 41.195,49.346 41.560,49.893 41.560,50.500 41.560,51.328 40.888,52.000 40.060,52.000 40.060,52.000 40.060,52.000 40.060,52.000 Z M 63.060,43.000 C 63.667,43.000 64.214,43.365 64.446,43.926 64.678,44.486 64.550,45.132 64.121,45.561 63.692,45.990 63.046,46.118 62.486,45.886 61.925,45.654 61.560,45.107 61.560,44.500 61.560,44.102 61.718,43.721 61.999,43.439 62.281,43.158 62.662,43.000 63.060,43.000 63.060,43.000 63.060,43.000 63.060,43.000 Z M 70.560,40.000 C 57.973,40.000 45.387,40.000 32.800,40.000 31.483,39.816 30.253,40.695 30.000,42.000 28.213,42.000 26.427,42.000 24.640,42.000 24.400,40.790 23.230,40.480 21.820,40.710 18.853,40.710 15.887,40.710 12.920,40.710 11.340,40.490 9.550,42.650 9.550,42.650 9.550,45.797 9.550,48.943 9.550,52.090 9.550,52.090 11.330,54.670 12.920,54.720 15.887,54.720 18.853,54.720 21.820,54.720 23.027,54.793 24.153,54.107 24.640,53.000 26.427,53.000 28.213,53.000 30.000,53.000 30.444,54.179 31.560,54.971 32.820,55.000 45.400,55.000 57.980,55.000 70.560,55.000 70.560,50.000 70.560,45.000 70.560,40.000 Z " />
  <path stroke="none" fill="#ffffffff" d="M 83.920,40.000 C 80.467,40.000 77.013,40.000 73.560,40.000 73.560,45.000 73.560,50.000 73.560,55.000 77.013,55.000 80.467,55.000 83.920,55.000 85.500,55.000 86.550,52.080 86.550,52.080 86.550,48.933 86.550,45.787 86.550,42.640 86.550,42.640 85.510,39.780 83.920,40.000 83.920,40.000 83.920,40.000 83.920,40.000 Z " />
</svg>