<?xml version="1.0" encoding="UTF-8" standalone="no"?>
<!DOCTYPE svg PUBLIC "-//W3C//DTD SVG 20010904//EN" "http://www.w3.org/TR/2001/REC-SVG-20010904/DTD/svg10.dtd"[]>
<svg version="1.1" id="Frosty Editor v1.0.6.3" xmlns="http://www.w3.org/2000/svg" d1p1:xlink="http://www.w3.org/1999/xlink" viewBox="0 0 96 96" xmlns:d1p1="xmlns">
  <path stroke="none" fill="#ffffffff" d="M 55.880,46.790 C 61.507,46.833 67.133,46.877 72.760,46.920 73.192,46.923 73.607,46.752 73.912,46.445 74.217,46.138 74.385,45.722 74.380,45.290 74.377,44.378 73.670,43.623 72.760,43.560 67.120,43.273 61.480,42.987 55.840,42.700 55.241,42.612 54.632,42.778 54.159,43.157 53.687,43.537 53.394,44.096 53.350,44.700 53.506,45.957 54.616,46.874 55.880,46.790 55.880,46.790 55.880,46.790 55.880,46.790 Z M 72.770,49.930 C 67.147,50.033 61.523,50.137 55.900,50.240 54.636,50.170 53.541,51.110 53.420,52.370 53.487,52.965 53.793,53.508 54.269,53.872 54.744,54.236 55.348,54.391 55.940,54.300 61.550,53.967 67.160,53.633 72.770,53.300 73.680,53.232 74.383,52.472 74.380,51.560 74.391,51.128 74.225,50.710 73.922,50.403 73.618,50.095 73.202,49.924 72.770,49.930 72.770,49.930 72.770,49.930 72.770,49.930 Z M 76.640,56.100 C 67.287,57.067 57.933,58.033 48.580,59.000 48.580,52.000 48.580,45.000 48.580,38.000 57.913,38.827 67.247,39.653 76.580,40.480 77.980,40.649 79.026,41.850 79.000,43.260 79.000,46.613 79.000,49.967 79.000,53.320 79.025,54.708 78.014,55.899 76.640,56.100 76.640,56.100 76.640,56.100 76.640,56.100 Z M 45.120,59.000 C 40.870,57.333 36.620,55.667 32.370,54.000 32.370,50.910 32.370,47.820 32.370,44.730 36.623,42.487 40.877,40.243 45.130,38.000 45.127,45.000 45.123,52.000 45.120,59.000 Z M 29.700,54.000 C 28.133,54.000 26.567,54.000 25.000,54.000 25.000,54.833 25.000,55.667 25.000,56.500 23.047,56.500 21.093,56.500 19.140,56.500 19.140,51.667 19.140,46.833 19.140,42.000 21.093,42.000 23.047,42.000 25.000,42.000 25.000,42.953 25.000,43.907 25.000,44.860 26.567,44.860 28.133,44.860 29.700,44.860 29.700,47.907 29.700,50.953 29.700,54.000 Z " />
</svg>