<?xml version="1.0" encoding="UTF-8" standalone="no"?>
<!DOCTYPE svg PUBLIC "-//W3C//DTD SVG 20010904//EN" "http://www.w3.org/TR/2001/REC-SVG-20010904/DTD/svg10.dtd"[]>
<svg version="1.1" id="Frosty Editor v1.0.6.3" xmlns="http://www.w3.org/2000/svg" d1p1:xlink="http://www.w3.org/1999/xlink" viewBox="0 0 96 96" xmlns:d1p1="xmlns">
  <path stroke="none" fill="#ffffffff" d="M 43.870,37.190 C 47.846,35.534 52.428,36.441 55.474,39.486 58.519,42.532 59.426,47.114 57.770,51.090 60.030,53.350 62.290,55.610 64.550,57.870 69.709,50.012 68.643,39.611 61.996,32.964 55.349,26.317 44.948,25.251 37.090,30.410 39.350,32.670 41.610,34.930 43.870,37.190 Z " />
  <path stroke="none" fill="#ffffffff" d="M 53.000,56.350 C 48.878,58.541 43.809,57.787 40.504,54.491 37.198,51.195 36.430,46.128 38.610,42.000 36.407,39.763 34.203,37.527 32.000,35.290 26.285,43.177 27.143,54.046 34.025,60.938 40.907,67.830 51.775,68.704 59.670,63.000 57.447,60.783 55.223,58.567 53.000,56.350 Z " />
  <path stroke="none" fill="#ffffffff" d="M 74.050,25.210 C 72.203,27.057 70.357,28.903 68.510,30.750 76.748,41.178 75.874,56.121 66.477,65.518 57.081,74.914 42.138,75.788 31.710,67.550 29.863,69.397 28.017,71.243 26.170,73.090 39.681,84.319 59.521,83.406 71.943,70.983 84.366,58.561 85.279,38.721 74.050,25.210 74.050,25.210 74.050,25.210 74.050,25.210 Z " />
  <path stroke="none" fill="#ffffffff" d="M 26.800,62.450 C 19.170,52.023 20.280,37.591 29.415,28.454 38.550,19.317 52.981,18.203 63.410,25.830 65.273,23.980 67.137,22.130 69.000,20.280 55.471,9.644 36.129,10.793 23.955,22.957 11.781,35.121 10.615,54.462 21.240,68.000 23.093,66.150 24.947,64.300 26.800,62.450 Z " />
</svg>