<?xml version="1.0" encoding="UTF-8" standalone="no"?>
<!DOCTYPE svg PUBLIC "-//W3C//DTD SVG 20010904//EN" "http://www.w3.org/TR/2001/REC-SVG-20010904/DTD/svg10.dtd"[]>
<svg version="1.1" id="Frosty Editor v1.0.6.3" xmlns="http://www.w3.org/2000/svg" d1p1:xlink="http://www.w3.org/1999/xlink" viewBox="0 0 96 96" xmlns:d1p1="xmlns">
  <path stroke="none" fill="#ffffffff" d="M 47.000,25.300 C 47.133,25.300 47.267,25.300 47.400,25.300 48.100,25.300 48.600,24.700 48.600,24.100 48.600,20.467 48.600,16.833 48.600,13.200 48.600,12.500 48.000,12.000 47.400,12.000 47.267,12.000 47.133,12.000 47.000,12.000 46.300,12.000 45.800,12.600 45.800,13.200 45.800,16.833 45.800,20.467 45.800,24.100 45.800,24.800 46.400,25.300 47.000,25.300 47.000,25.300 47.000,25.300 47.000,25.300 Z " />
  <path stroke="none" fill="#ffffffff" d="M 42.500,26.000 C 41.233,22.600 39.967,19.200 38.700,15.800 38.500,15.200 37.700,14.800 37.100,15.100 36.967,15.133 36.833,15.167 36.700,15.200 36.100,15.400 35.700,16.200 36.000,16.800 37.267,20.200 38.533,23.600 39.800,27.000 40.000,27.600 40.800,28.000 41.400,27.700 41.533,27.667 41.667,27.633 41.800,27.600 42.400,27.400 42.700,26.600 42.500,26.000 42.500,26.000 42.500,26.000 42.500,26.000 Z " />
  <path stroke="none" fill="#ffffffff" d="M 47.200,43.900 C 47.800,44.000 48.400,43.700 48.600,43.200 49.967,39.833 51.333,36.467 52.700,33.100 53.000,32.500 52.600,31.700 52.000,31.500 51.867,31.433 51.733,31.367 51.600,31.300 51.000,31.100 50.300,31.400 50.000,32.000 49.567,33.067 49.133,34.133 48.700,35.200 48.700,33.600 48.700,32.000 48.700,30.400 48.700,29.700 48.100,29.200 47.500,29.200 47.333,29.200 47.167,29.200 47.000,29.200 46.300,29.200 45.800,29.800 45.800,30.400 45.800,31.933 45.800,33.467 45.800,35.000 45.433,34.000 45.067,33.000 44.700,32.000 44.500,31.400 43.700,31.000 43.100,31.300 42.967,31.333 42.833,31.367 42.700,31.400 42.100,31.600 41.700,32.400 42.000,33.000 43.267,36.400 44.533,39.800 45.800,43.200 46.000,43.800 46.600,44.100 47.200,43.900 47.200,43.900 47.200,43.900 47.200,43.900 Z " />
  <path stroke="none" fill="#ffffffff" d="M 53.100,27.700 C 53.233,27.767 53.367,27.833 53.500,27.900 54.100,28.200 54.900,27.800 55.100,27.200 56.467,23.833 57.833,20.467 59.200,17.100 59.500,16.500 59.100,15.700 58.500,15.500 58.367,15.433 58.233,15.367 58.100,15.300 57.500,15.000 56.700,15.400 56.500,16.000 55.133,19.367 53.767,22.733 52.400,26.100 52.100,26.800 52.400,27.500 53.100,27.700 53.100,27.700 53.100,27.700 53.100,27.700 Z " />
  <path stroke="none" fill="#ffffffff" d="M 49.300,56.700 C 48.800,56.700 48.300,56.300 48.300,55.700 48.267,53.500 48.233,51.300 48.200,49.100 48.200,48.700 48.500,48.500 49.000,48.500 49.400,48.500 49.800,48.800 49.800,49.100 49.967,51.300 50.133,53.500 50.300,55.700 50.300,56.300 49.900,56.700 49.300,56.700 49.300,56.700 49.300,56.700 49.300,56.700 Z M 46.700,55.800 C 46.700,56.300 46.200,56.800 45.700,56.800 45.100,56.800 44.700,56.400 44.800,55.800 44.933,53.600 45.067,51.400 45.200,49.200 45.200,48.800 45.600,48.600 46.000,48.600 46.400,48.600 46.800,48.900 46.800,49.200 46.767,51.400 46.733,53.600 46.700,55.800 46.700,55.800 46.700,55.800 46.700,55.800 Z M 51.200,47.600 C 51.100,47.100 50.700,46.800 50.100,46.800 48.267,46.800 46.433,46.800 44.600,46.800 44.000,46.800 43.600,47.200 43.500,47.700 43.200,51.333 42.900,54.967 42.600,58.600 45.867,58.600 49.133,58.600 52.400,58.600 52.000,54.933 51.600,51.267 51.200,47.600 51.200,47.600 51.200,47.600 51.200,47.600 Z " />
  <path stroke="none" fill="#ffffffff" d="M 67.200,76.300 C 66.467,76.300 65.733,76.300 65.000,76.300 65.300,76.600 65.600,76.900 65.900,77.200 66.200,77.500 66.100,77.900 65.800,78.100 65.633,78.200 65.467,78.300 65.300,78.400 65.100,78.500 64.800,78.500 64.600,78.300 63.933,77.633 63.267,76.967 62.600,76.300 62.200,76.300 61.800,76.300 61.400,76.300 61.400,76.700 61.400,77.100 61.400,77.500 62.067,78.167 62.733,78.833 63.400,79.500 63.600,79.700 63.600,80.000 63.500,80.200 63.400,80.367 63.300,80.533 63.200,80.700 63.000,81.000 62.600,81.100 62.300,80.800 61.967,80.533 61.633,80.267 61.300,80.000 61.300,80.733 61.300,81.467 61.300,82.200 61.300,82.500 61.000,82.800 60.700,82.800 60.467,82.800 60.233,82.800 60.000,82.800 59.700,82.800 59.400,82.500 59.400,82.200 59.400,81.467 59.400,80.733 59.400,80.000 59.100,80.300 58.800,80.600 58.500,80.900 58.200,81.200 57.800,81.100 57.600,80.800 57.500,80.633 57.400,80.467 57.300,80.300 57.200,80.100 57.200,79.800 57.400,79.600 58.067,78.933 58.733,78.267 59.400,77.600 59.400,77.200 59.400,76.800 59.400,76.400 58.967,76.400 58.533,76.400 58.100,76.400 57.367,77.133 56.633,77.867 55.900,78.600 55.700,78.800 55.400,78.800 55.200,78.700 55.033,78.600 54.867,78.500 54.700,78.400 54.400,78.200 54.300,77.800 54.600,77.500 54.967,77.133 55.333,76.767 55.700,76.400 55.000,76.400 54.300,76.400 53.600,76.400 53.300,76.400 53.000,76.100 53.000,75.800 53.000,75.533 53.000,75.267 53.000,75.000 53.000,74.700 53.300,74.400 53.600,74.400 54.300,74.400 55.000,74.400 55.700,74.400 55.367,74.067 55.033,73.733 54.700,73.400 54.400,73.100 54.500,72.700 54.800,72.500 54.967,72.400 55.133,72.300 55.300,72.200 55.500,72.100 55.800,72.100 56.000,72.300 56.733,73.033 57.467,73.767 58.200,74.500 58.633,74.500 59.067,74.500 59.500,74.500 59.500,74.067 59.500,73.633 59.500,73.200 58.733,72.433 57.967,71.667 57.200,70.900 57.000,70.700 57.000,70.400 57.100,70.200 57.200,70.033 57.300,69.867 57.400,69.700 57.600,69.400 58.000,69.300 58.300,69.600 58.667,69.967 59.033,70.333 59.400,70.700 59.400,70.000 59.400,69.300 59.400,68.600 59.400,68.300 59.700,68.000 60.000,68.000 60.267,68.000 60.533,68.000 60.800,68.000 61.100,68.000 61.400,68.300 61.400,68.600 61.400,69.300 61.400,70.000 61.400,70.700 61.767,70.333 62.133,69.967 62.500,69.600 62.800,69.300 63.200,69.400 63.400,69.700 63.500,69.867 63.600,70.033 63.700,70.200 63.800,70.400 63.800,70.700 63.600,70.900 62.833,71.600 62.067,72.300 61.300,73.000 61.300,73.433 61.300,73.867 61.300,74.300 61.700,74.300 62.100,74.300 62.500,74.300 63.167,73.633 63.833,72.967 64.500,72.300 64.700,72.100 65.000,72.100 65.200,72.200 65.367,72.300 65.533,72.400 65.700,72.500 66.000,72.700 66.100,73.100 65.800,73.400 65.533,73.733 65.267,74.067 65.000,74.400 65.733,74.400 66.467,74.400 67.200,74.400 67.500,74.400 67.800,74.700 67.800,75.000 67.800,75.267 67.800,75.533 67.800,75.800 67.800,76.100 67.600,76.300 67.200,76.300 67.200,76.300 67.200,76.300 67.200,76.300 Z M 60.400,65.000 C 54.700,65.000 50.000,69.600 50.000,75.400 50.000,81.100 54.600,85.800 60.400,85.800 66.100,85.800 70.800,81.200 70.800,75.400 70.800,69.600 66.100,65.000 60.400,65.000 60.400,65.000 60.400,65.000 60.400,65.000 Z " />
  <path stroke="none" fill="#ffffffff" d="M 50.100,67.500 C 50.100,66.633 50.100,65.767 50.100,64.900 50.900,63.233 51.700,61.567 52.500,59.900 49.233,59.900 45.967,59.900 42.700,59.900 43.700,61.567 44.700,63.233 45.700,64.900 45.700,64.900 45.700,64.900 45.700,64.900 45.700,71.500 45.700,78.100 45.700,84.700 47.167,84.700 48.633,84.700 50.100,84.700 50.100,84.167 50.100,83.633 50.100,83.100 48.500,80.900 47.600,78.200 47.600,75.300 47.600,72.400 48.500,69.700 50.100,67.500 50.100,67.500 50.100,67.500 50.100,67.500 Z " />
</svg>