<?xml version="1.0" encoding="UTF-8" standalone="no"?>
<!DOCTYPE svg PUBLIC "-//W3C//DTD SVG 20010904//EN" "http://www.w3.org/TR/2001/REC-SVG-20010904/DTD/svg10.dtd"[]>
<svg version="1.1" id="Frosty Editor v1.0.6.3" xmlns="http://www.w3.org/2000/svg" d1p1:xlink="http://www.w3.org/1999/xlink" viewBox="0 0 96 96" xmlns:d1p1="xmlns">
  <path stroke="none" fill="#ffffffff" d="M 9.710,34.670 C 9.710,45.480 9.710,56.290 9.710,67.100 9.713,67.607 9.916,68.091 10.276,68.448 10.637,68.804 11.123,69.003 11.630,69.000 13.823,69.000 16.017,69.000 18.210,69.000 18.210,56.927 18.210,44.853 18.210,32.780 16.017,32.780 13.823,32.780 11.630,32.780 10.579,32.774 9.721,33.619 9.710,34.670 9.710,34.670 9.710,34.670 9.710,34.670 Z " />
  <path stroke="none" fill="#ffffffff" d="M 78.230,43.860 C 72.870,44.490 67.510,45.120 62.150,45.750 62.150,41.797 62.150,37.843 62.150,33.890 67.510,33.890 72.870,33.890 78.230,33.890 78.230,37.213 78.230,40.537 78.230,43.860 Z M 56.900,46.370 C 50.843,47.163 44.787,47.957 38.730,48.750 38.730,46.183 38.730,43.617 38.730,41.050 40.633,38.663 42.537,36.277 44.440,33.890 48.593,33.890 52.747,33.890 56.900,33.890 56.900,38.050 56.900,42.210 56.900,46.370 Z M 78.230,24.000 C 78.230,25.483 78.230,26.967 78.230,28.450 66.563,28.450 54.897,28.450 43.230,28.450 43.230,28.470 43.230,28.490 43.230,28.510 42.960,28.510 42.690,28.510 42.420,28.510 41.067,29.843 39.713,31.177 38.360,32.510 32.650,32.510 26.940,32.510 21.230,32.510 21.230,44.673 21.230,56.837 21.230,69.000 22.730,69.000 24.230,69.000 25.730,69.000 29.910,63.833 34.090,58.667 38.270,53.500 51.603,51.697 64.937,49.893 78.270,48.090 78.270,48.217 78.270,48.343 78.270,48.470 81.603,48.470 84.937,48.470 88.270,48.470 88.270,40.313 88.270,32.157 88.270,24.000 84.923,24.000 81.577,24.000 78.230,24.000 Z " />
</svg>