<?xml version="1.0" encoding="UTF-8" standalone="no"?>
<!DOCTYPE svg PUBLIC "-//W3C//DTD SVG 20010904//EN" "http://www.w3.org/TR/2001/REC-SVG-20010904/DTD/svg10.dtd"[]>
<svg version="1.1" id="Frosty Editor v1.0.6.3" xmlns="http://www.w3.org/2000/svg" d1p1:xlink="http://www.w3.org/1999/xlink" viewBox="0 0 25 25" xmlns:d1p1="xmlns">
  <path stroke="none" fill="#ffffffff" d="M 17.247,20.474 C 16.354,20.400 15.505,20.014 14.856,19.386 14.503,19.045 14.256,18.708 14.049,18.288 13.319,16.806 13.595,15.012 14.735,13.831 15.207,13.343 15.726,13.014 16.346,12.810 17.331,12.486 18.398,12.559 19.322,13.014 19.743,13.221 20.084,13.473 20.430,13.831 21.570,15.012 21.847,16.806 21.117,18.288 20.910,18.708 20.662,19.045 20.309,19.386 19.648,20.026 18.817,20.399 17.887,20.474 17.610,20.497 17.526,20.497 17.247,20.474 Z M 17.799,19.567 C 17.824,19.526 17.838,19.468 17.838,19.407 17.838,19.310 17.838,19.310 17.838,19.310 17.557,19.033 17.557,19.033 17.557,19.033 17.403,18.881 16.731,18.218 16.064,17.559 15.397,16.901 14.823,16.346 14.789,16.327 14.755,16.308 14.703,16.293 14.675,16.293 14.608,16.293 14.492,16.372 14.484,16.423 14.480,16.452 14.591,16.572 14.916,16.891 15.385,17.349 16.082,18.036 17.062,19.005 17.397,19.335 17.684,19.611 17.700,19.617 17.752,19.636 17.759,19.632 17.799,19.567 Z M 18.265,18.858 C 18.484,18.816 18.517,18.765 18.401,18.647 18.123,18.363 15.374,15.651 15.351,15.638 15.309,15.615 15.231,15.639 15.218,15.679 15.195,15.755 15.168,16.077 15.181,16.137 15.188,16.173 15.218,16.238 15.248,16.282 15.292,16.348 16.762,17.814 17.563,18.592 17.860,18.880 17.956,18.916 18.265,18.858 Z M 19.020,18.537 C 19.076,18.480 19.088,18.441 19.183,18.001 19.225,17.808 19.261,17.647 19.297,17.491 19.326,17.369 19.342,17.295 19.419,16.931 19.516,16.473 19.568,16.252 19.599,16.155 19.640,16.033 19.658,15.881 19.642,15.801 19.631,15.745 19.519,15.626 19.003,15.117 18.659,14.778 18.343,14.475 18.301,14.444 18.212,14.379 18.092,14.370 17.928,14.417 17.873,14.432 17.757,14.459 17.671,14.477 17.585,14.494 17.474,14.518 17.426,14.530 17.377,14.541 17.297,14.558 17.249,14.566 17.165,14.581 17.120,14.592 16.886,14.654 16.832,14.668 16.717,14.695 16.630,14.713 16.544,14.732 16.363,14.775 16.228,14.810 16.093,14.846 15.912,14.890 15.825,14.908 15.556,14.967 15.383,15.069 15.384,15.170 15.384,15.259 15.543,15.426 16.817,16.674 17.168,17.018 17.747,17.589 18.103,17.942 18.459,18.296 18.764,18.591 18.780,18.597 18.845,18.623 18.963,18.593 19.020,18.537 Z M 18.376,17.512 C 18.314,17.485 18.270,17.403 18.270,17.313 18.270,17.256 18.293,17.189 18.351,17.082 18.396,16.999 18.472,16.856 18.521,16.764 18.648,16.523 18.684,16.489 18.815,16.489 18.906,16.489 18.929,16.497 18.978,16.547 19.068,16.636 19.058,16.727 18.934,16.958 18.879,17.062 18.806,17.199 18.772,17.262 18.673,17.450 18.609,17.513 18.505,17.522 18.457,17.526 18.399,17.522 18.376,17.512 Z M 17.481,16.610 C 17.426,16.561 17.418,16.541 17.418,16.455 17.418,16.357 17.418,16.357 17.418,16.357 17.702,16.074 17.702,16.074 17.702,16.074 18.059,15.717 18.111,15.691 18.240,15.804 18.303,15.859 18.309,15.875 18.309,15.969 18.309,16.072 18.309,16.072 18.309,16.072 17.994,16.369 17.994,16.369 17.994,16.369 17.714,16.634 17.672,16.666 17.612,16.666 17.565,16.666 17.525,16.649 17.481,16.610 Z M 16.560,15.705 C 16.515,15.661 16.503,15.630 16.503,15.568 16.503,15.467 16.579,15.380 16.748,15.289 17.067,15.118 17.281,15.017 17.324,15.017 17.350,15.017 17.405,15.044 17.447,15.077 17.515,15.131 17.524,15.148 17.523,15.220 17.522,15.327 17.472,15.385 17.298,15.479 17.222,15.520 17.134,15.569 17.102,15.588 16.765,15.782 16.660,15.805 16.560,15.705 Z M 19.827,15.178 C 19.856,15.147 19.880,15.104 19.880,15.082 19.880,15.060 19.893,15.004 19.909,14.958 19.926,14.912 19.939,14.851 19.939,14.822 19.939,14.793 19.952,14.752 19.968,14.731 20.010,14.675 20.010,14.319 19.968,14.303 19.952,14.296 19.939,14.279 19.939,14.263 19.939,14.222 19.788,14.098 19.721,14.084 19.690,14.077 19.659,14.063 19.653,14.053 19.636,14.025 19.538,14.031 19.475,14.064 19.444,14.080 19.394,14.094 19.364,14.094 19.333,14.094 19.285,14.105 19.256,14.120 19.226,14.134 19.136,14.162 19.055,14.181 18.894,14.221 18.839,14.255 18.839,14.318 18.839,14.375 19.678,15.234 19.734,15.233 19.756,15.233 19.798,15.208 19.827,15.178 Z M 10.357,16.479 C 10.215,16.412 10.076,16.262 10.022,16.120 9.947,15.920 9.956,15.860 10.248,14.557 10.516,13.360 10.516,13.360 10.516,13.360 10.219,13.062 10.219,13.062 10.219,13.062 9.937,12.780 9.924,12.763 9.972,12.751 10.025,12.738 10.082,12.651 10.082,12.584 10.082,12.563 10.059,12.518 10.031,12.485 10.003,12.452 9.990,12.425 10.002,12.425 10.016,12.425 10.023,12.357 10.023,12.228 10.023,12.032 10.023,12.032 10.023,12.032 9.925,12.032 9.925,12.032 9.925,12.032 9.827,12.032 9.827,12.032 9.827,12.032 9.827,11.865 9.827,11.865 9.827,11.865 9.827,11.698 9.827,11.698 9.827,11.698 8.767,11.698 8.767,11.698 8.767,11.698 7.706,11.698 7.706,11.698 7.706,11.698 7.706,11.954 7.706,11.954 7.706,11.954 7.706,12.210 7.706,12.210 7.706,12.210 7.269,12.204 7.269,12.204 7.269,12.204 6.833,12.199 6.833,12.199 6.833,12.199 6.833,10.864 6.833,10.864 6.833,10.864 6.833,9.529 6.833,9.529 6.833,9.529 7.269,9.523 7.269,9.523 7.269,9.523 7.706,9.518 7.706,9.518 7.706,9.518 7.706,9.754 7.706,9.754 7.706,9.754 7.706,9.990 7.706,9.990 7.706,9.990 10.710,9.990 10.710,9.990 10.710,9.990 13.715,9.990 13.715,9.990 13.715,9.990 13.715,9.754 13.715,9.754 13.715,9.754 13.715,9.519 13.715,9.519 13.715,9.519 13.538,9.519 13.538,9.519 13.538,9.519 13.361,9.519 13.361,9.519 13.361,9.519 13.361,9.332 13.361,9.332 13.361,9.332 13.361,9.146 13.361,9.146 13.361,9.146 13.793,9.146 13.793,9.146 13.793,9.146 14.226,9.146 14.226,9.146 14.226,9.146 14.310,9.057 14.310,9.057 14.310,9.057 14.385,8.979 14.405,8.969 14.480,8.969 14.527,8.969 14.732,9.009 14.936,9.057 15.307,9.146 15.307,9.146 15.307,9.146 16.671,9.146 16.671,9.146 16.671,9.146 18.034,9.146 18.034,9.146 18.034,9.146 18.034,9.332 18.034,9.332 18.034,9.332 18.034,9.519 18.034,9.519 18.034,9.519 17.808,9.519 17.808,9.519 17.808,9.519 17.583,9.519 17.583,9.519 17.583,9.519 17.583,9.754 17.583,9.754 17.583,9.754 17.583,9.990 17.583,9.990 17.583,9.990 17.877,9.990 17.877,9.990 17.877,9.990 18.170,9.990 18.170,9.990 18.170,9.990 18.176,9.759 18.176,9.759 18.176,9.759 18.182,9.529 18.182,9.529 18.182,9.529 18.618,9.523 18.618,9.523 18.618,9.523 19.055,9.518 19.055,9.518 19.055,9.518 19.055,9.753 19.055,9.753 19.055,9.753 19.055,9.989 19.055,9.989 19.055,9.989 19.217,9.994 19.217,9.994 19.217,9.994 19.379,10.000 19.379,10.000 19.379,10.000 19.384,10.849 19.384,10.849 19.384,10.849 19.389,11.698 19.389,11.698 19.389,11.698 19.222,11.698 19.222,11.698 19.222,11.698 19.055,11.698 19.055,11.698 19.055,11.698 19.055,11.954 19.055,11.954 19.055,11.954 19.055,12.209 19.055,12.209 19.055,12.209 18.613,12.209 18.613,12.209 18.613,12.209 18.172,12.209 18.172,12.209 18.172,12.209 18.172,11.954 18.172,11.954 18.172,11.954 18.172,11.698 18.172,11.698 18.172,11.698 16.503,11.698 16.503,11.698 16.503,11.698 14.834,11.698 14.834,11.698 14.834,11.698 14.834,11.915 14.834,11.915 14.834,11.915 14.834,12.131 14.834,12.131 14.834,12.131 14.397,12.126 14.397,12.126 14.397,12.126 13.960,12.121 13.960,12.121 13.960,12.121 13.954,11.909 13.954,11.909 13.954,11.909 13.949,11.698 13.949,11.698 13.949,11.698 13.027,11.698 13.027,11.698 13.027,11.698 12.104,11.698 12.104,11.698 12.104,11.698 12.104,11.865 12.104,11.865 12.104,11.865 12.104,12.032 12.104,12.032 12.104,12.032 12.043,12.032 12.043,12.032 12.043,12.032 11.982,12.032 11.982,12.032 11.982,12.032 11.996,12.400 11.996,12.400 11.996,12.400 12.011,12.768 12.011,12.768 12.011,12.768 12.206,13.158 12.206,13.158 12.206,13.158 12.314,13.373 12.398,13.559 12.393,13.571 12.378,13.611 12.162,13.708 12.038,13.731 11.972,13.744 11.919,13.762 11.921,13.772 11.922,13.781 11.930,13.827 11.937,13.873 11.951,13.956 11.951,13.956 11.951,13.956 11.873,13.956 11.873,13.956 11.873,13.956 11.801,13.956 11.790,13.964 11.726,14.059 11.657,14.163 11.657,14.163 11.657,14.163 11.645,15.211 11.645,15.211 11.645,15.211 11.635,16.159 11.630,16.266 11.599,16.329 11.525,16.478 11.490,16.486 10.759,16.518 10.470,16.530 10.463,16.530 10.357,16.479 Z M 15.619,9.887 C 15.619,9.784 15.619,9.784 15.619,9.784 15.035,9.651 15.035,9.651 15.035,9.651 14.464,9.521 14.445,9.518 14.181,9.518 13.911,9.519 13.911,9.519 13.911,9.519 13.911,9.754 13.911,9.754 13.911,9.754 13.911,9.990 13.911,9.990 13.911,9.990 14.765,9.990 14.765,9.990 14.765,9.990 15.619,9.990 15.619,9.990 15.619,9.990 Z M 17.386,9.754 C 17.386,9.519 17.386,9.519 17.386,9.519 16.827,9.519 16.827,9.519 16.827,9.519 16.267,9.519 16.267,9.519 16.267,9.519 16.267,9.754 16.267,9.754 16.267,9.754 16.267,9.990 16.267,9.990 16.267,9.990 16.827,9.990 16.827,9.990 16.827,9.990 17.386,9.990 17.386,9.990 17.386,9.990 Z M 2.243,12.902 C 2.210,12.894 2.208,12.783 2.209,10.916 2.209,9.817 2.217,8.928 2.226,8.912 2.238,8.894 2.261,8.889 2.300,8.899 2.350,8.911 3.141,9.159 5.006,9.745 5.914,10.031 5.936,10.037 6.160,10.038 6.351,10.039 6.351,10.039 6.351,10.039 6.351,10.908 6.351,10.908 6.351,10.908 6.351,11.777 6.351,11.777 6.351,11.777 6.136,11.777 6.136,11.777 6.136,11.777 5.939,11.777 5.895,11.784 5.611,11.867 5.258,11.969 4.510,12.205 3.249,12.611 2.339,12.904 2.299,12.916 2.243,12.902 Z M 19.723,10.893 C 19.723,9.735 19.723,9.735 19.723,9.735 21.284,9.735 21.284,9.735 21.284,9.735 22.845,9.735 22.845,9.735 22.845,9.735 22.845,10.893 22.845,10.893 22.845,10.893 22.845,12.052 22.845,12.052 22.845,12.052 21.284,12.052 21.284,12.052 21.284,12.052 19.723,12.052 19.723,12.052 19.723,12.052 Z " />
</svg>