<?xml version="1.0" encoding="UTF-8" standalone="no"?>
<!DOCTYPE svg PUBLIC "-//W3C//DTD SVG 20010904//EN" "http://www.w3.org/TR/2001/REC-SVG-20010904/DTD/svg10.dtd"[]>
<svg version="1.1" id="Frosty Editor v1.0.6.3" xmlns="http://www.w3.org/2000/svg" d1p1:xlink="http://www.w3.org/1999/xlink" viewBox="0 0 25 25" xmlns:d1p1="xmlns">
  <path stroke="none" fill="#ffffffff" d="M 11.800,21.391 C 10.601,21.318 9.476,21.021 8.446,20.505 7.371,19.966 6.341,19.132 5.594,18.196 4.294,16.568 3.617,14.548 3.673,12.468 3.734,10.238 4.603,8.165 6.142,6.581 7.088,5.608 8.202,4.896 9.458,4.463 9.768,4.356 10.317,4.200 10.332,4.215 10.337,4.220 10.277,4.261 10.200,4.307 9.294,4.843 8.431,5.625 7.837,6.449 7.530,6.876 7.186,7.505 6.998,7.986 6.487,9.291 6.349,10.578 6.599,11.714 6.715,12.240 6.958,12.814 7.221,13.183 7.461,13.519 7.803,13.821 8.131,13.985 8.276,14.058 8.544,14.142 8.717,14.170 8.915,14.202 9.361,14.186 9.527,14.141 9.995,14.013 10.442,13.685 10.759,13.236 10.996,12.900 11.216,12.393 11.295,12.000 11.331,11.824 11.337,11.289 11.305,11.036 11.238,10.489 11.061,9.965 10.783,9.480 10.476,8.947 9.813,8.186 9.252,7.722 9.044,7.551 9.044,7.551 9.044,7.551 9.213,7.364 9.213,7.364 9.213,7.364 9.306,7.262 9.525,7.020 9.699,6.826 10.017,6.475 10.017,6.475 10.017,6.475 10.131,6.564 10.131,6.564 10.131,6.564 10.297,6.695 10.604,7.021 10.722,7.193 10.778,7.275 10.864,7.414 10.912,7.502 11.000,7.662 11.000,7.662 11.000,7.662 10.989,7.459 10.989,7.459 10.989,7.459 10.983,7.347 10.965,7.182 10.948,7.091 10.887,6.769 10.710,6.301 10.554,6.047 10.497,5.955 10.497,5.955 10.497,5.955 11.284,5.067 11.284,5.067 11.284,5.067 11.716,4.578 12.107,4.137 12.153,4.085 12.235,3.992 12.235,3.992 12.235,3.992 12.235,12.698 12.235,12.698 12.235,12.698 12.235,21.403 12.235,21.403 12.235,21.403 12.066,21.400 12.066,21.400 12.066,21.400 11.972,21.398 11.853,21.394 11.800,21.391 Z M 13.202,21.002 C 13.202,20.596 13.202,20.596 13.202,20.596 13.410,20.583 13.410,20.583 13.410,20.583 14.182,20.535 14.863,20.407 15.527,20.183 18.108,19.315 20.048,17.205 20.695,14.561 20.853,13.914 20.908,13.429 20.908,12.691 20.908,11.952 20.854,11.496 20.687,10.815 20.141,8.592 18.630,6.696 16.584,5.669 16.180,5.466 15.931,5.363 15.513,5.225 14.811,4.992 14.141,4.864 13.477,4.835 13.202,4.823 13.202,4.823 13.202,4.823 13.202,4.412 13.202,4.412 13.202,4.412 13.202,4.002 13.202,4.002 13.202,4.002 13.342,4.010 13.342,4.010 13.342,4.010 13.688,4.029 14.025,4.060 14.275,4.096 16.535,4.420 18.592,5.633 19.968,7.455 21.426,9.385 22.011,11.796 21.603,14.189 21.215,16.470 19.885,18.550 17.975,19.862 16.616,20.796 15.124,21.300 13.439,21.395 13.202,21.408 13.202,21.408 13.202,21.408 Z M 13.206,19.629 C 13.211,19.498 13.211,19.498 13.211,19.498 13.337,19.494 13.337,19.494 13.337,19.494 13.707,19.481 14.286,19.398 14.654,19.305 15.878,18.997 16.949,18.392 17.834,17.507 18.955,16.387 19.630,14.963 19.799,13.367 19.829,13.076 19.830,12.311 19.799,12.043 19.703,11.193 19.502,10.480 19.157,9.762 18.096,7.560 15.971,6.112 13.526,5.928 13.202,5.904 13.202,5.904 13.202,5.904 13.202,5.770 13.202,5.770 13.202,5.770 13.202,5.635 13.202,5.635 13.202,5.635 13.419,5.649 13.419,5.649 13.419,5.649 14.993,5.744 16.470,6.337 17.640,7.344 17.888,7.556 18.346,8.031 18.546,8.281 19.339,9.273 19.844,10.439 20.027,11.704 20.234,13.128 19.986,14.628 19.331,15.911 18.490,17.559 17.026,18.821 15.281,19.402 14.642,19.615 13.861,19.760 13.352,19.760 13.200,19.760 13.200,19.760 13.200,19.760 Z M 13.202,16.435 C 13.202,15.814 13.202,15.814 13.202,15.814 13.308,15.814 13.308,15.814 13.308,15.814 13.415,15.814 13.415,15.814 13.415,15.814 13.415,15.220 13.415,15.220 13.415,15.220 13.415,14.625 13.415,14.625 13.415,14.625 13.710,14.920 13.710,14.920 13.710,14.920 14.005,15.215 14.005,15.215 14.005,15.215 14.193,14.900 14.193,14.900 14.193,14.900 14.297,14.726 14.382,14.576 14.382,14.566 14.382,14.555 14.164,14.330 13.898,14.064 13.415,13.581 13.415,13.581 13.415,13.581 13.415,13.343 13.415,13.343 13.415,13.343 13.415,13.106 13.415,13.106 13.415,13.106 13.690,13.106 13.690,13.106 13.690,13.106 13.965,13.106 13.965,13.106 13.965,13.106 14.499,13.640 14.499,13.640 14.499,13.640 15.033,14.174 15.033,14.174 15.033,14.174 15.355,13.987 15.355,13.987 15.355,13.987 15.532,13.884 15.677,13.794 15.677,13.787 15.677,13.780 15.527,13.624 15.344,13.440 15.011,13.106 15.011,13.106 15.011,13.106 15.576,13.106 15.576,13.106 15.576,13.106 16.142,13.106 16.142,13.106 16.142,13.106 16.142,12.700 16.142,12.700 16.142,12.700 16.142,12.294 16.142,12.294 16.142,12.294 15.590,12.294 15.590,12.294 15.590,12.294 15.287,12.294 15.039,12.289 15.039,12.282 15.039,12.275 15.181,12.127 15.353,11.952 15.526,11.777 15.669,11.628 15.672,11.621 15.674,11.614 15.530,11.523 15.353,11.420 15.029,11.232 15.029,11.232 15.029,11.232 14.507,11.753 14.507,11.753 14.507,11.753 13.985,12.275 13.985,12.275 13.985,12.275 13.700,12.275 13.700,12.275 13.700,12.275 13.415,12.275 13.415,12.275 13.415,12.275 13.415,12.009 13.415,12.009 13.415,12.009 13.415,11.743 13.415,11.743 13.415,11.743 13.956,11.201 13.956,11.201 13.956,11.201 14.254,10.904 14.498,10.653 14.498,10.644 14.498,10.635 14.413,10.489 14.310,10.319 14.123,10.010 14.123,10.010 14.123,10.010 13.778,10.354 13.778,10.354 13.778,10.354 13.434,10.698 13.434,10.698 13.434,10.698 13.434,10.133 13.434,10.133 13.434,10.133 13.434,9.567 13.434,9.567 13.434,9.567 13.318,9.567 13.318,9.567 13.318,9.567 13.202,9.567 13.202,9.567 13.202,9.567 13.202,8.968 13.202,8.968 13.202,8.968 13.202,8.368 13.202,8.368 13.202,8.368 13.313,8.368 13.313,8.368 13.313,8.368 13.556,8.369 14.020,8.455 14.353,8.562 15.346,8.879 16.199,9.548 16.746,10.437 16.945,10.760 17.147,11.241 17.246,11.625 17.360,12.064 17.407,12.686 17.362,13.127 17.257,14.148 16.826,15.054 16.104,15.776 15.356,16.524 14.436,16.948 13.352,17.043 13.202,17.056 13.202,17.056 13.202,17.056 Z " />
</svg>