<?xml version="1.0" encoding="UTF-8" standalone="no"?>
<svg
   version="1.1"
   id="Frosty Editor v1.0.6.3"
   d1p1:xlink="http://www.w3.org/1999/xlink"
   viewBox="0 0 96 96"
   sodipodi:docname="RebelPilot_R5D4Updated.svg"
   xml:space="preserve"
   inkscape:version="1.3 (0e150ed6c4, 2023-07-21)"
   xmlns:inkscape="http://www.inkscape.org/namespaces/inkscape"
   xmlns:sodipodi="http://sodipodi.sourceforge.net/DTD/sodipodi-0.dtd"
   xmlns="http://www.w3.org/2000/svg"
   xmlns:svg="http://www.w3.org/2000/svg"
   xmlns:d1p1="xmlns"><defs
     id="defs17" /><sodipodi:namedview
     id="namedview17"
     pagecolor="#ffffff"
     bordercolor="#000000"
     borderopacity="0.25"
     inkscape:showpageshadow="2"
     inkscape:pageopacity="0.0"
     inkscape:pagecheckerboard="0"
     inkscape:deskcolor="#d1d1d1"
     inkscape:zoom="12.302083"
     inkscape:cx="37.432684"
     inkscape:cy="43.285351"
     inkscape:window-width="2560"
     inkscape:window-height="1377"
     inkscape:window-x="-8"
     inkscape:window-y="-8"
     inkscape:window-maximized="1"
     inkscape:current-layer="Frosty Editor v1.0.6.3" /><path
     stroke="none"
     fill="#ffffffff"
     d="M 65.400,34.600 C 67.400,34.600 69.400,34.600 71.400,34.600 71.400,40.400 71.400,46.200 71.400,52.000 69.400,52.000 67.400,52.000 65.400,52.000 65.400,46.200 65.400,40.400 65.400,34.600 Z "
     id="path1" /><path
     stroke="none"
     fill="#ffffffff"
     d="M 65.500,81.400 C 65.500,81.400 65.500,81.400 65.500,81.400 63.700,81.400 61.900,81.400 60.100,81.400 60.100,82.333 60.100,83.267 60.100,84.200 64.033,84.167 67.967,84.133 71.900,84.100 72.833,83.200 73.767,82.300 74.700,81.400 73.567,81.400 72.433,81.400 71.300,81.400 69.367,81.400 67.433,81.400 65.500,81.400 Z "
     id="path2" /><path
     stroke="none"
     fill="#ffffffff"
     d="M 74.700,81.400 C 74.067,78.333 73.433,75.267 72.800,72.200 70.367,72.200 67.933,72.200 65.500,72.200 65.500,75.267 65.500,78.333 65.500,81.400 67.433,81.400 69.367,81.400 71.300,81.400 72.433,81.400 73.567,81.400 74.700,81.400 Z "
     id="path3" /><path
     stroke="none"
     fill="#ffffffff"
     d="M 70.300,81.400 C 68.400,81.400 66.500,81.400 64.600,81.400 64.600,81.400 64.600,81.400 64.600,81.400 66.500,81.400 68.400,81.400 70.300,81.400 Z "
     id="path4" /><path
     stroke="none"
     fill="#ffffffff"
     d="M 35.500,66.800 C 36.433,68.167 37.367,69.533 38.300,70.900 44.500,70.900 50.700,70.900 56.900,70.900 57.800,69.533 58.700,68.167 59.600,66.800 51.567,66.800 43.533,66.800 35.500,66.800 Z "
     id="path5" /><path
     stroke="none"
     fill="#ffffffff"
     d="M 70.100,64.900 C 70.100,61.433 70.100,57.967 70.100,54.500 68.567,54.500 67.033,54.500 65.500,54.500 65.500,57.967 65.500,61.433 65.500,64.900 65.500,66.733 65.500,68.567 65.500,70.400 65.500,70.400 65.500,70.400 65.500,70.400 67.033,70.400 68.567,70.400 70.100,70.400 70.100,70.267 70.100,70.133 70.100,70.000 70.400,69.733 70.700,69.467 71.000,69.200 71.000,67.767 71.000,66.333 71.000,64.900 70.700,64.900 70.400,64.900 70.100,64.900 Z "
     id="path6" /><path
     stroke="none"
     fill="#ffffffff"
     d="M 56.900,41.900 C 50.933,41.900 44.967,41.900 39.000,41.900 39.000,40.933 39.000,39.967 39.000,39.000 44.967,39.000 50.933,39.000 56.900,39.000 56.900,39.967 56.900,40.933 56.900,41.900 56.900,41.900 56.900,41.900 56.900,41.900 Z M 56.900,46.900 C 50.933,46.900 44.967,46.900 39.000,46.900 39.000,45.933 39.000,44.967 39.000,44.000 44.967,44.000 50.933,44.000 56.900,44.000 56.900,44.967 56.900,45.933 56.900,46.900 56.900,46.900 56.900,46.900 56.900,46.900 Z M 45.100,57.000 C 45.100,54.200 45.100,51.400 45.100,48.600 46.967,48.600 48.833,48.600 50.700,48.600 50.700,51.400 50.700,54.200 50.700,57.000 48.833,57.000 46.967,57.000 45.100,57.000 45.100,57.000 45.100,57.000 45.100,57.000 Z M 56.900,34.600 C 56.900,35.567 56.900,36.533 56.900,37.500 50.933,37.500 44.967,37.500 39.000,37.500 39.000,36.533 39.000,35.567 39.000,34.600 36.967,34.600 34.933,34.600 32.900,34.600 32.900,44.300 32.900,54.000 32.900,63.700 32.900,64.100 33.200,64.400 33.600,64.400 37.467,64.400 41.333,64.400 45.200,64.400 45.200,62.900 45.200,61.400 45.200,59.900 47.067,59.900 48.933,59.900 50.800,59.900 50.800,61.400 50.800,62.900 50.800,64.400 54.700,64.400 58.600,64.400 62.500,64.400 62.900,64.400 63.200,64.100 63.200,63.700 63.200,54.000 63.200,44.300 63.200,34.600 61.100,34.600 59.000,34.600 56.900,34.600 56.900,34.600 56.900,34.600 56.900,34.600 Z "
     id="path7" /><path
     stroke="none"
     fill="#ffffffff"
     d="M 61.300,70.600 C 61.167,70.600 61.033,70.600 60.900,70.600 59.900,70.600 59.200,71.400 59.200,72.300 59.200,74.200 59.200,76.100 59.200,78.000 59.200,79.000 60.000,79.700 60.900,79.700 61.033,79.700 61.167,79.700 61.300,79.700 62.300,79.700 63.000,78.900 63.000,78.000 63.000,76.100 63.000,74.200 63.000,72.300 63.000,71.400 62.200,70.600 61.300,70.600 61.300,70.600 61.300,70.600 61.300,70.600 Z "
     id="path8" /><path
     stroke="none"
     fill="#ffffffff"
     d="M 30.500,81.400 C 28.567,81.400 26.633,81.400 24.700,81.400 23.567,81.400 22.433,81.400 21.300,81.400 22.233,82.300 23.167,83.200 24.100,84.100 28.033,84.133 31.967,84.167 35.900,84.200 35.900,83.267 35.900,82.333 35.900,81.400 34.100,81.400 32.300,81.400 30.500,81.400 30.500,81.400 30.500,81.400 30.500,81.400 Z "
     id="path9" /><path
     stroke="none"
     fill="#ffffffff"
     d="M 24.600,34.600 C 26.600,34.600 28.600,34.600 30.600,34.600 30.600,40.400 30.600,46.200 30.600,52.000 28.600,52.000 26.600,52.000 24.600,52.000 24.600,46.200 24.600,40.400 24.600,34.600 Z "
     id="path10" /><path
     stroke="none"
     fill="#ffffffff"
     d="M 30.500,72.200 C 28.067,72.200 25.633,72.200 23.200,72.200 22.567,75.267 21.933,78.333 21.300,81.400 22.433,81.400 23.567,81.400 24.700,81.400 26.633,81.400 28.567,81.400 30.500,81.400 30.500,78.333 30.500,75.267 30.500,72.200 Z "
     id="path11" /><path
     stroke="none"
     fill="#ffffffff"
     d="M 31.400,81.400 C 29.500,81.400 27.600,81.400 25.700,81.400 27.600,81.400 29.500,81.400 31.400,81.400 31.400,81.400 31.400,81.400 31.400,81.400 Z "
     id="path12" /><path
     stroke="none"
     fill="#ffffffff"
     d="M 25.900,54.500 C 25.900,57.967 25.900,61.433 25.900,64.900 25.600,64.900 25.300,64.900 25.000,64.900 25.000,66.333 25.000,67.767 25.000,69.200 25.300,69.467 25.600,69.733 25.900,70.000 25.900,70.133 25.900,70.267 25.900,70.400 27.433,70.400 28.967,70.400 30.500,70.400 30.500,70.400 30.500,70.400 30.500,70.400 30.500,68.567 30.500,66.733 30.500,64.900 30.500,61.433 30.500,57.967 30.500,54.500 28.967,54.500 27.433,54.500 25.900,54.500 Z "
     id="path13" /><path
     stroke="none"
     fill="#ffffffff"
     d="M 33.000,72.300 C 33.000,74.200 33.000,76.100 33.000,78.000 33.000,79.000 33.800,79.700 34.700,79.700 34.833,79.700 34.967,79.700 35.100,79.700 36.100,79.700 36.800,78.900 36.800,78.000 36.800,76.100 36.800,74.200 36.800,72.300 36.800,71.300 36.000,70.600 35.100,70.600 34.967,70.600 34.833,70.600 34.700,70.600 33.800,70.600 33.000,71.400 33.000,72.300 33.000,72.300 33.000,72.300 33.000,72.300 Z "
     id="path14" /><path
     stroke="none"
     fill="#ffffffff"
     d="m 32.947646,30.749413 c 10.052846,0 20.103921,0 30.156771,0 0,0.746385 0,1.492769 0,2.239154 -10.05285,0 -20.103925,0 -30.156771,0 0,-0.746385 0,-1.492769 0,-2.239154 z"
     id="path4-7"
     style="display:inline;stroke-width:1.15039" /><path
     stroke="none"
     fill="#ffffffff"
     d="m 54.485599,19.213888 c -1.104209,0 -1.932362,-0.886781 -1.932362,-2.069155 0,-1.182374 0.828153,-2.069155 1.932362,-2.069155 1.104208,0 1.932364,0.886781 1.932364,2.069155 0,1.182374 -0.828156,2.069155 -1.932364,2.069155 z m -6.625247,0 c -1.104209,0 -1.932364,-0.886781 -1.932364,-2.069155 0,-1.182374 0.828155,-2.069155 1.932364,-2.069155 1.104207,0 1.932364,0.886781 1.932364,2.069155 0,1.182374 -0.828157,2.069155 -1.932364,2.069155 z m -6.625249,0 c -1.104208,0 -1.932364,-0.886781 -1.932364,-2.069155 0,-1.182374 0.828156,-2.069155 1.932364,-2.069155 1.104208,0 1.932364,0.886781 1.932364,2.069155 0,1.182374 -0.828156,2.069155 -1.932364,2.069155 z M 59.040457,11.232862 C 55.359304,10.394854 51.679531,9.5583241 47.998378,8.7203163 c 0,0 0,0 0,0 -3.681154,0.8380078 -7.360927,1.6745377 -11.042082,2.5125457 -1.334711,4.5817 -2.668042,9.1634 -4.002754,13.7451 0.920634,0.63996 1.839886,1.281398 2.76052,1.921358 8.189084,0 16.379545,0 24.568629,0 0.920634,-0.63996 1.839888,-1.281398 2.760521,-1.921358 -1.334711,-4.5817 -2.668043,-9.1634 -4.002755,-13.7451 z"
     id="path7-7"
     style="display:inline;stroke-width:1.45317" /><path
     stroke="none"
     fill="#ffffffff"
     d="m 38.736464,2.2171871 c -0.354752,0 -0.708973,0 -1.063725,0 0,2.5664009 0,5.1338571 0,7.7002567 0.123928,0 0.248379,0 0.372303,0 0.230297,-0.105483 0.461125,-0.210965 0.691422,-0.3164478 0,-2.4609184 0,-4.9228906 0,-7.3838089 z"
     id="path8-8"
     style="display:inline;stroke-width:1.45317" /></svg>
