<?xml version="1.0" encoding="UTF-8" standalone="no"?>
<!DOCTYPE svg PUBLIC "-//W3C//DTD SVG 20010904//EN" "http://www.w3.org/TR/2001/REC-SVG-20010904/DTD/svg10.dtd"[]>
<svg version="1.1" id="Frosty Editor v1.0.6.3" xmlns="http://www.w3.org/2000/svg" d1p1:xlink="http://www.w3.org/1999/xlink" viewBox="0 0 25 25" xmlns:d1p1="xmlns">
  <path stroke="none" fill="none" d="M 12.190,11.185 C 11.749,11.185 11.308,11.185 10.867,11.185 10.867,11.538 10.867,11.891 10.867,12.244 11.308,12.244 11.749,12.244 12.190,12.244 12.366,12.244 12.542,12.244 12.719,12.244 13.071,12.244 13.424,12.244 13.777,12.244 13.777,11.891 13.777,11.538 13.777,11.185 13.424,11.185 13.071,11.185 12.719,11.185 12.542,11.185 12.366,11.185 12.190,11.185 12.190,11.185 12.190,11.185 12.190,11.185 Z " />
  <path stroke="none" fill="#ffffffff" d="M 9.808,5.364 C 11.484,5.364 13.160,5.364 14.835,5.364 14.835,5.629 14.835,5.894 14.835,6.158 13.160,6.158 11.484,6.158 9.808,6.158 9.808,5.894 9.808,5.629 9.808,5.364 Z " />
  <path stroke="none" fill="#ffffffff" d="M 13.777,4.457 C 13.777,4.346 13.733,4.240 13.655,4.161 13.576,4.083 13.470,4.039 13.359,4.039 12.579,4.039 11.800,4.039 11.020,4.039 10.909,4.039 10.803,4.083 10.725,4.161 10.646,4.240 10.602,4.346 10.602,4.457 10.602,4.582 10.602,4.708 10.602,4.833 11.660,4.833 12.719,4.833 13.777,4.833 13.777,4.708 13.777,4.582 13.777,4.457 Z " />
  <path stroke="none" fill="#ffffffff" d="M 10.337,16.477 C 10.249,16.918 10.161,17.359 10.073,17.800 10.595,17.800 10.595,17.800 10.595,17.800 10.699,17.335 10.858,16.891 11.068,16.477 Z " />
  <path stroke="none" fill="#ffffffff" d="M 8.192,16.477 C 8.032,16.478 7.887,16.573 7.824,16.720 7.421,17.566 7.018,18.412 6.615,19.258 6.577,19.346 6.587,19.447 6.640,19.526 6.694,19.606 6.783,19.653 6.879,19.652 10.489,19.652 10.489,19.652 10.489,19.652 10.469,19.455 10.458,19.254 10.458,19.052 10.458,18.807 10.474,18.566 10.503,18.329 9.417,18.329 9.417,18.329 9.417,18.329 9.550,17.712 9.683,17.094 9.816,16.477 Z " />
  <path stroke="none" fill="#ffffffff" d="M 10.337,10.656 C 10.337,15.948 10.337,15.948 10.337,15.948 11.372,15.948 11.372,15.948 11.372,15.948 12.059,14.888 13.088,14.073 14.306,13.658 14.306,10.656 14.306,10.656 14.306,10.656 Z M 10.867,11.185 C 13.777,11.185 13.777,11.185 13.777,11.185 13.777,12.244 13.777,12.244 13.777,12.244 10.867,12.244 10.867,12.244 10.867,12.244 Z " />
  <path stroke="none" fill="#ffffffff" d="M 8.623,6.687 C 8.139,6.687 7.962,6.865 7.962,7.084 7.962,7.748 7.962,7.748 7.962,7.748 7.168,7.748 7.168,7.748 7.168,7.748 7.168,11.453 7.168,11.453 7.168,11.453 7.962,11.453 7.962,11.453 7.962,11.453 7.960,12.817 7.958,14.181 7.956,15.546 8.359,15.948 8.359,15.948 8.359,15.948 9.808,15.948 9.808,15.948 9.808,15.948 9.808,10.127 9.808,10.127 9.808,10.127 14.835,10.127 14.835,10.127 14.835,10.127 14.835,13.506 14.835,13.506 14.835,13.506 15.259,13.406 15.702,13.353 16.157,13.353 16.243,13.353 16.243,13.353 16.243,13.353 16.397,13.353 16.548,13.359 16.698,13.371 16.698,11.447 16.698,11.447 16.698,11.447 17.492,11.447 17.492,11.447 17.492,11.447 17.492,7.743 17.492,7.743 17.492,7.743 16.698,7.743 16.698,7.743 16.698,7.743 16.698,7.084 16.698,7.084 16.698,7.084 16.698,6.865 16.521,6.687 16.037,6.687 Z " />
  <path stroke="none" fill="#ffffffff" d="M 16.137,13.781 C Z M 16.124,14.749 C 17.222,14.749 18.259,15.178 19.031,15.958 19.811,16.730 20.240,17.767 20.240,18.865 20.240,19.963 19.811,21.001 19.031,21.772 18.259,22.553 17.222,22.981 16.124,22.981 15.026,22.981 13.989,22.553 13.217,21.772 12.437,21.001 12.008,19.963 12.008,18.865 12.008,17.767 12.437,16.730 13.217,15.958 13.989,15.178 15.026,14.749 16.124,14.749 Z M 16.124,15.195 C 14.100,15.195 12.454,16.841 12.454,18.865 12.454,20.889 14.100,22.535 16.124,22.535 18.148,22.535 19.794,20.889 19.794,18.865 19.794,16.841 18.148,15.195 16.124,15.195 Z M 15.772,15.744 C 16.295,15.744 16.295,15.744 16.295,15.744 16.295,16.267 16.295,16.267 16.295,16.267 15.772,16.267 15.772,16.267 15.772,16.267 Z M 17.389,15.984 C 17.540,16.071 17.691,16.158 17.842,16.245 17.755,16.396 17.668,16.547 17.581,16.698 17.430,16.611 17.279,16.524 17.128,16.437 17.215,16.286 17.302,16.135 17.389,15.984 Z M 14.704,16.063 C 14.785,16.203 14.865,16.343 14.946,16.483 14.953,16.480 14.959,16.476 14.966,16.472 15.456,17.321 15.946,18.170 16.436,19.019 16.280,19.109 16.124,19.199 15.969,19.289 15.485,18.451 15.001,17.613 14.517,16.775 14.516,16.776 14.514,16.777 14.512,16.778 14.425,16.627 14.338,16.476 14.251,16.325 14.402,16.238 14.553,16.151 14.704,16.063 Z M 18.660,17.004 C 18.748,17.155 18.835,17.305 18.922,17.456 18.771,17.544 18.620,17.631 18.469,17.718 18.382,17.567 18.294,17.416 18.207,17.265 18.358,17.178 18.509,17.091 18.660,17.004 Z M 13.503,17.147 C 13.654,17.234 13.804,17.321 13.955,17.408 13.868,17.559 13.781,17.710 13.694,17.861 13.543,17.774 13.392,17.687 13.241,17.600 13.328,17.449 13.416,17.298 13.503,17.147 Z M 18.739,18.513 C 19.262,18.513 19.262,18.513 19.262,18.513 19.262,19.037 19.262,19.037 19.262,19.037 18.739,19.037 18.739,19.037 18.739,19.037 Z M 13.003,18.685 C 13.526,18.685 13.526,18.685 13.526,18.685 13.526,19.208 13.526,19.208 13.526,19.208 13.003,19.208 13.003,19.208 13.003,19.208 Z M 18.552,19.868 C 18.703,19.955 18.854,20.043 19.005,20.130 18.918,20.281 18.831,20.432 18.744,20.583 18.593,20.496 18.442,20.408 18.291,20.321 18.378,20.170 18.465,20.019 18.552,19.868 Z M 13.778,20.013 C 13.865,20.164 13.952,20.314 14.039,20.465 13.888,20.552 13.737,20.640 13.586,20.727 13.499,20.576 13.412,20.425 13.325,20.274 13.476,20.187 13.627,20.100 13.778,20.013 Z M 17.724,20.949 C 17.811,21.100 17.899,21.251 17.986,21.402 17.835,21.489 17.684,21.576 17.533,21.663 17.445,21.512 17.359,21.362 17.272,21.211 17.423,21.124 17.573,21.036 17.724,20.949 Z M 14.668,21.033 C 14.819,21.120 14.970,21.208 15.121,21.295 15.034,21.446 14.947,21.597 14.859,21.748 14.708,21.661 14.557,21.573 14.406,21.486 14.493,21.335 14.581,21.184 14.668,21.033 Z M 15.944,21.481 C 16.467,21.481 16.467,21.481 16.467,21.481 16.467,22.003 16.467,22.003 16.467,22.003 15.944,22.003 15.944,22.003 15.944,22.003 Z " />
</svg>