<?xml version="1.0" encoding="UTF-8" standalone="no"?>
<!DOCTYPE svg PUBLIC "-//W3C//DTD SVG 20010904//EN" "http://www.w3.org/TR/2001/REC-SVG-20010904/DTD/svg10.dtd"[]>
<svg version="1.1" id="Frosty Editor v1.0.6.3" xmlns="http://www.w3.org/2000/svg" d1p1:xlink="http://www.w3.org/1999/xlink" viewBox="0 0 25 25" xmlns:d1p1="xmlns">
  <path stroke="none" fill="#ffffffff" d="M 17.453,3.617 C 16.629,3.618 16.025,3.783 16.025,3.783 15.739,4.508 15.452,5.233 15.166,5.957 14.389,6.030 13.577,6.204 13.577,6.204 13.577,6.204 13.168,6.766 13.364,7.665 12.983,7.893 12.602,8.122 12.221,8.350 11.278,8.129 10.537,7.613 10.537,7.613 10.742,5.634 11.839,3.798 11.839,3.798 11.839,3.798 10.280,5.139 9.954,7.851 9.954,7.851 10.876,8.475 12.157,8.825 12.157,8.825 12.223,9.451 12.382,9.839 12.705,9.666 12.964,9.601 12.964,9.601 12.762,9.284 12.639,8.673 12.639,8.673 13.113,8.370 13.587,8.067 14.061,7.764 13.773,7.225 14.074,6.599 14.074,6.599 14.074,6.599 16.655,5.918 20.187,6.221 17.920,5.600 15.705,5.913 15.705,5.913 15.915,5.248 16.125,4.584 16.335,3.919 16.335,3.919 17.557,3.673 18.874,3.800 18.376,3.662 17.884,3.617 17.453,3.617 Z M 14.401,7.741 C 14.426,7.783 14.452,7.825 14.481,7.864 14.304,7.977 14.128,8.089 13.952,8.202 13.975,8.205 13.998,8.208 14.021,8.212 16.068,8.512 17.733,10.017 18.238,12.023 18.373,12.559 18.418,13.108 18.377,13.650 18.528,13.554 18.680,13.461 18.834,13.370 18.842,13.365 18.851,13.360 18.859,13.355 18.879,13.374 18.898,13.393 18.917,13.411 18.930,12.908 18.878,12.398 18.751,11.894 18.385,10.442 17.458,9.195 16.173,8.427 15.620,8.097 15.020,7.867 14.401,7.741 Z M 10.359,8.441 C 8.940,9.298 7.942,10.756 7.693,12.452 7.476,13.931 7.856,15.400 8.694,16.566 8.830,16.454 8.976,16.354 9.130,16.266 7.936,14.612 7.838,12.403 8.886,10.649 9.389,9.807 10.108,9.149 10.944,8.721 10.745,8.635 10.550,8.542 10.359,8.441 Z M 13.272,8.687 C 13.246,8.687 13.219,8.687 13.192,8.687 13.126,8.730 13.059,8.773 12.992,8.815 12.997,8.834 13.004,8.852 13.009,8.871 13.309,8.852 13.614,8.865 13.919,8.910 15.683,9.169 17.118,10.466 17.554,12.195 17.721,12.858 17.729,13.543 17.588,14.198 17.656,14.146 17.726,14.095 17.795,14.045 17.901,13.427 17.884,12.784 17.725,12.152 17.428,10.973 16.674,9.959 15.630,9.336 14.911,8.906 14.096,8.686 13.272,8.687 Z M 11.640,8.989 C 10.104,9.575 8.983,10.951 8.740,12.606 8.558,13.843 8.891,15.071 9.615,16.032 9.672,16.010 9.730,15.989 9.788,15.969 9.772,15.947 9.755,15.926 9.739,15.904 8.675,14.473 8.577,12.542 9.492,11.010 10.045,10.085 10.901,9.417 11.882,9.090 11.881,9.082 11.879,9.074 11.878,9.066 11.798,9.041 11.719,9.015 11.640,8.989 Z M 13.328,9.593 C 13.360,9.640 13.388,9.690 13.394,9.749 13.396,9.784 13.407,9.830 13.356,9.823 12.955,9.895 12.583,10.067 12.231,10.274 12.158,10.127 12.100,9.973 12.050,9.817 11.016,10.196 10.167,11.031 9.807,12.149 9.390,13.440 9.722,14.808 10.583,15.758 10.687,15.738 10.791,15.722 10.897,15.719 11.181,15.722 11.465,15.739 11.749,15.724 11.661,15.789 11.571,15.853 11.484,15.921 11.355,16.023 11.226,16.128 11.092,16.225 11.321,16.398 11.574,16.546 11.847,16.665 12.117,16.121 12.388,15.578 12.658,15.034 12.218,15.101 11.778,15.169 11.337,15.236 11.871,14.295 12.404,13.354 12.937,12.413 12.951,12.409 12.951,12.409 12.951,12.409 12.992,12.337 13.033,12.263 13.074,12.191 12.531,12.274 11.989,12.358 11.446,12.441 12.332,11.520 13.217,10.599 14.103,9.677 13.843,9.621 13.584,9.593 13.328,9.593 Z M 14.592,9.828 C 14.346,10.325 14.099,10.824 13.853,11.321 14.293,11.253 14.732,11.186 15.171,11.118 14.640,12.060 14.109,13.002 13.577,13.944 13.564,13.948 13.564,13.948 13.564,13.948 13.523,14.021 13.482,14.094 13.441,14.167 13.985,14.082 14.530,13.998 15.075,13.914 14.142,14.882 13.210,15.850 12.278,16.818 13.796,17.218 15.353,16.610 16.221,15.392 15.950,15.289 15.669,15.205 15.399,15.100 15.299,15.068 15.315,14.906 15.413,14.882 15.812,14.813 16.211,14.719 16.615,14.687 16.653,14.597 16.689,14.505 16.720,14.410 17.333,12.560 16.401,10.553 14.592,9.828 Z M 18.813,13.743 C 18.813,13.743 17.897,14.273 17.105,14.998 17.105,14.998 16.840,14.940 16.193,15.053 17.094,15.351 17.371,15.756 17.371,15.756 17.418,16.044 17.466,16.332 17.513,16.620 18.619,16.841 19.871,16.651 19.871,16.651 21.214,18.013 20.926,21.335 20.926,21.335 20.926,21.335 21.539,19.006 20.936,17.308 21.289,17.319 21.642,17.330 21.995,17.341 22.187,17.609 22.380,17.877 22.572,18.145 22.436,17.805 22.301,17.464 22.165,17.123 21.704,17.081 21.243,17.039 20.783,16.996 20.570,16.550 20.152,16.080 20.152,16.080 20.152,16.080 18.794,16.347 17.824,16.167 17.786,15.885 17.749,15.603 17.711,15.320 18.180,14.702 18.820,14.266 18.820,14.266 19.485,14.623 21.134,16.308 21.134,16.308 20.683,15.772 20.231,15.235 19.779,14.699 20.144,14.591 20.508,14.483 20.872,14.374 21.055,14.603 21.238,14.832 21.420,15.061 21.275,14.781 21.129,14.501 20.984,14.221 20.972,14.174 20.972,14.174 20.972,14.174 20.925,14.186 20.925,14.186 20.925,14.186 19.608,14.517 19.608,14.517 19.608,14.517 19.343,14.259 19.078,14.001 18.813,13.743 Z M 16.921,15.755 C 16.315,16.644 15.404,17.284 14.355,17.549 12.972,17.897 11.530,17.552 10.463,16.668 10.417,16.705 10.372,16.744 10.328,16.784 10.513,16.940 10.713,17.082 10.925,17.209 12.517,18.161 14.526,18.059 16.015,16.952 16.426,16.646 16.773,16.278 17.054,15.869 17.012,15.828 16.968,15.790 16.921,15.755 Z M 2.748,15.923 C 2.748,15.923 3.905,17.379 5.112,18.088 5.038,18.263 4.963,18.438 4.888,18.612 4.704,18.806 2.816,18.850 2.816,18.850 2.910,18.847 4.439,19.218 5.101,18.853 5.101,18.853 5.341,18.196 5.575,17.699 5.879,17.749 6.557,17.695 6.557,17.695 6.557,17.695 6.822,17.283 7.066,16.815 7.473,17.240 7.981,17.596 7.981,17.596 8.403,17.593 8.825,17.589 9.247,17.586 9.930,16.483 10.845,16.028 10.845,16.028 9.377,16.270 8.775,16.803 8.401,17.350 8.284,17.350 8.168,17.349 8.051,17.349 8.051,17.349 7.570,16.982 7.035,16.286 6.775,16.887 6.500,17.272 6.500,17.272 6.500,17.272 5.962,17.275 5.526,17.209 5.460,17.349 5.394,17.489 5.328,17.629 4.341,17.445 2.748,15.923 2.748,15.923 Z M 17.190,16.566 C 16.504,17.382 15.575,17.969 14.527,18.233 12.897,18.643 11.197,18.223 9.954,17.161 9.838,17.294 9.729,17.433 9.628,17.578 9.861,17.776 10.113,17.957 10.382,18.118 12.342,19.289 14.814,19.164 16.646,17.802 16.988,17.547 17.295,17.259 17.565,16.944 17.457,16.926 17.350,16.906 17.243,16.883 17.225,16.777 17.208,16.671 17.190,16.566 Z " />
</svg>