<?xml version="1.0" encoding="UTF-8" standalone="no"?>
<!DOCTYPE svg PUBLIC "-//W3C//DTD SVG 20010904//EN" "http://www.w3.org/TR/2001/REC-SVG-20010904/DTD/svg10.dtd"[]>
<svg version="1.1" id="Frosty Editor v1.0.6.3" xmlns="http://www.w3.org/2000/svg" d1p1:xlink="http://www.w3.org/1999/xlink" viewBox="0 0 384 96" xmlns:d1p1="xmlns">
  <path stroke="none" fill="#ffffffff" d="M 235.580,33.200 C 236.200,33.200 236.820,33.200 237.440,33.200 237.440,35.057 237.440,36.913 237.440,38.770 236.820,38.770 236.200,38.770 235.580,38.770 235.580,36.913 235.580,35.057 235.580,33.200 Z " />
  <path stroke="none" fill="#ffffffff" d="M 230.010,31.340 C 230.630,31.340 231.250,31.340 231.870,31.340 231.870,34.743 231.870,38.147 231.870,41.550 231.250,41.550 230.630,41.550 230.010,41.550 230.010,38.147 230.010,34.743 230.010,31.340 Z " />
  <path stroke="none" fill="#ffffffff" d="M 229.080,18.350 C 229.700,18.350 230.320,18.350 230.940,18.350 230.940,21.133 230.940,23.917 230.940,26.700 230.320,26.700 229.700,26.700 229.080,26.700 229.080,23.917 229.080,21.133 229.080,18.350 Z " />
  <path stroke="none" fill="#ffffffff" d="M 217.809,11.369 C 218.168,11.077 218.528,10.784 218.887,10.491 221.161,13.281 223.436,16.071 225.711,18.862 225.352,19.154 224.993,19.447 224.634,19.740 222.359,16.950 220.084,14.159 217.809,11.369 Z " />
  <path stroke="none" fill="#ffffffff" d="M 224.440,18.350 C 225.367,18.350 226.293,18.350 227.220,18.350 227.220,18.970 227.220,19.590 227.220,20.210 226.293,20.210 225.367,20.210 224.440,20.210 224.440,19.590 224.440,18.970 224.440,18.350 Z " />
  <path stroke="none" fill="#ffffffff" d="M 225.370,37.840 C 224.750,37.840 224.130,37.840 223.510,37.840 223.510,31.963 223.510,26.087 223.510,20.210 213.923,20.210 204.337,20.210 194.750,20.210 194.750,21.137 194.750,22.063 194.750,22.990 194.130,22.990 193.510,22.990 192.890,22.990 192.890,21.443 192.890,19.897 192.890,18.350 203.717,18.350 214.543,18.350 225.370,18.350 225.370,24.847 225.370,31.343 225.370,37.840 225.370,37.840 225.370,37.840 225.370,37.840 Z " />
  <path stroke="none" fill="#ffffffff" d="M 224.440,28.560 C 225.367,28.560 226.293,28.560 227.220,28.560 227.220,29.180 227.220,29.800 227.220,30.420 226.293,30.420 225.367,30.420 224.440,30.420 224.440,29.800 224.440,29.180 224.440,28.560 Z " />
  <path stroke="none" fill="#ffffffff" d="M 170.620,32.270 C 177.883,32.270 185.147,32.270 192.410,32.270 195.043,30.440 197.677,28.610 200.310,26.780 200.310,25.890 200.310,25.000 200.310,24.110 200.310,23.770 200.150,22.110 197.680,22.110 188.660,22.110 179.640,22.110 170.620,22.110 170.620,25.497 170.620,28.883 170.620,32.270 Z M 193.300,34.130 C 185.433,34.130 177.567,34.130 169.700,34.130 169.700,29.797 169.700,25.463 169.700,21.130 179.180,21.130 188.660,21.130 198.140,21.130 199.249,21.076 200.333,21.477 201.140,22.240 201.748,22.879 202.104,23.718 202.140,24.600 202.140,25.733 202.140,26.867 202.140,28.000 199.193,30.043 196.247,32.087 193.300,34.130 Z " />
  <path stroke="none" fill="#ffffffff" d="M 193.820,10.930 C 194.440,10.930 195.060,10.930 195.680,10.930 195.680,13.713 195.680,16.497 195.680,19.280 195.060,19.280 194.440,19.280 193.820,19.280 193.820,16.497 193.820,13.713 193.820,10.930 Z " />
  <path stroke="none" fill="#ffffffff" d="M 185.470,22.060 C 186.090,22.060 186.710,22.060 187.330,22.060 187.330,20.207 187.330,18.353 187.330,16.500 186.710,16.500 186.090,16.500 185.470,16.500 185.470,18.353 185.470,20.207 185.470,22.060 Z M 189.180,23.920 C 187.633,23.920 186.087,23.920 184.540,23.920 184.540,21.137 184.540,18.353 184.540,15.570 186.087,15.570 187.633,15.570 189.180,15.570 189.180,18.353 189.180,21.137 189.180,23.920 Z " />
  <path stroke="none" fill="#ffffffff" d="M 190.110,22.060 C 190.740,22.060 191.370,22.060 192.000,22.060 192.000,20.207 192.000,18.353 192.000,16.500 191.380,16.500 190.760,16.500 190.140,16.500 190.130,18.353 190.120,20.207 190.110,22.060 Z M 193.820,23.920 C 192.273,23.920 190.727,23.920 189.180,23.920 189.180,21.137 189.180,18.353 189.180,15.570 190.727,15.570 192.273,15.570 193.820,15.570 193.820,18.353 193.820,21.137 193.820,23.920 Z " />
  <path stroke="none" fill="#ffffffff" d="M 168.770,37.840 C 168.150,37.840 167.530,37.840 166.910,37.840 166.910,33.990 166.910,30.140 166.910,26.290 167.837,25.640 168.763,24.990 169.690,24.340 169.690,23.273 169.690,22.207 169.690,21.140 171.857,21.140 174.023,21.140 176.190,21.140 176.190,21.757 176.190,22.373 176.190,22.990 174.643,22.990 173.097,22.990 171.550,22.990 171.550,23.747 171.550,24.503 171.550,25.260 170.623,25.900 169.697,26.540 168.770,27.180 168.770,30.733 168.770,34.287 168.770,37.840 168.770,37.840 168.770,37.840 168.770,37.840 Z " />
  <path stroke="none" fill="#ffffffff" d="M 177.120,23.000 C 176.193,23.000 175.267,23.000 174.340,23.000 174.340,22.333 174.340,21.667 174.340,21.000 173.530,19.820 171.550,17.460 169.770,17.460 164.487,17.460 159.203,17.460 153.920,17.460 153.920,16.520 153.920,15.580 153.920,14.640 159.200,14.640 164.480,14.640 169.760,14.640 173.630,14.640 176.590,19.290 176.910,19.820 176.977,19.930 177.043,20.040 177.110,20.150 177.113,21.100 177.117,22.050 177.120,23.000 Z " />
  <path stroke="none" fill="#ffffffff" d="M 160.410,12.780 C 161.030,12.780 161.650,12.780 162.270,12.780 162.270,13.707 162.270,14.633 162.270,15.560 161.650,15.560 161.030,15.560 160.410,15.560 160.410,14.633 160.410,13.707 160.410,12.780 Z " />
  <path stroke="none" fill="#ffffffff" d="M 165.980,12.780 C 166.600,12.780 167.220,12.780 167.840,12.780 167.840,14.017 167.840,15.253 167.840,16.490 167.220,16.490 166.600,16.490 165.980,16.490 165.980,15.253 165.980,14.017 165.980,12.780 Z " />
  <path stroke="none" fill="#ffffffff" d="M 169.690,10.930 C 170.310,10.930 170.930,10.930 171.550,10.930 171.550,12.787 171.550,14.643 171.550,16.500 170.930,16.500 170.310,16.500 169.690,16.500 169.690,14.643 169.690,12.787 169.690,10.930 Z " />
  <path stroke="none" fill="#ffffffff" d="M 146.500,41.550 C 162.583,41.550 178.667,41.550 194.750,41.550 194.750,40.313 194.750,39.077 194.750,37.840 178.667,37.840 162.583,37.840 146.500,37.840 146.500,39.077 146.500,40.313 146.500,41.550 Z M 196.600,43.410 C 179.600,43.410 162.600,43.410 145.600,43.410 145.600,41.243 145.600,39.077 145.600,36.910 162.600,36.910 179.600,36.910 196.600,36.910 196.600,39.077 196.600,41.243 196.600,43.410 Z " />
  <path stroke="none" fill="#ffffffff" d="M 146.500,36.910 C 147.120,36.910 147.740,36.910 148.360,36.910 148.360,35.053 148.360,33.197 148.360,31.340 147.740,31.340 147.120,31.340 146.500,31.340 146.500,33.197 146.500,35.053 146.500,36.910 Z M 150.210,38.770 C 148.663,38.770 147.117,38.770 145.570,38.770 145.570,35.983 145.570,33.197 145.570,30.410 147.117,30.410 148.663,30.410 150.210,30.410 150.210,33.197 150.210,35.983 150.210,38.770 Z " />
  <path stroke="none" fill="#ffffffff" d="M 146.000,78.890 C 147.907,79.952 149.874,80.904 151.890,81.740 152.520,81.830 157.570,81.800 162.070,81.740 162.450,81.740 164.240,81.540 164.520,78.470 164.950,73.860 167.260,56.030 167.880,52.960 168.710,48.810 171.740,43.710 176.620,41.670 176.800,41.633 176.980,41.597 177.160,41.560 177.773,41.560 178.387,41.560 179.000,41.560 179.463,42.027 179.927,42.493 180.390,42.960 180.390,43.450 180.390,54.310 187.620,56.190 185.409,55.086 183.783,53.081 183.160,50.690 182.746,48.862 183.249,46.947 184.510,45.560 184.510,44.687 184.510,43.813 184.510,42.940 184.973,42.477 185.437,42.013 185.900,41.550 188.197,41.550 190.493,41.550 192.790,41.550 193.087,41.657 193.383,41.763 193.680,41.870 193.927,42.073 194.173,42.277 194.420,42.480 202.753,42.480 211.087,42.480 219.420,42.480 219.487,41.583 219.553,40.687 219.620,39.790 219.803,39.457 219.987,39.123 220.170,38.790 221.447,37.820 222.723,36.850 224.000,35.880 224.767,36.253 225.533,36.627 226.300,37.000 226.300,38.137 226.300,39.273 226.300,40.410 226.813,40.077 227.327,39.743 227.840,39.410 228.560,39.770 229.280,40.130 230.000,40.490 230.000,40.070 230.000,39.650 230.000,39.230 230.463,38.767 230.927,38.303 231.390,37.840 232.057,37.840 232.723,37.840 233.390,37.840 234.470,37.653 235.550,37.467 236.630,37.280 236.750,37.160 236.870,37.040 236.990,36.920 238.073,36.920 239.157,36.920 240.240,36.920 240.240,36.297 240.240,35.673 240.240,35.050 239.313,35.050 238.387,35.050 237.460,35.050 237.460,34.943 237.460,34.837 237.460,34.730 237.307,34.820 237.153,34.910 237.000,35.000 235.860,34.703 234.720,34.407 233.580,34.110 232.873,34.110 232.167,34.110 231.460,34.110 230.973,33.650 230.487,33.190 230.000,32.730 230.000,32.577 230.000,32.423 230.000,32.270 229.797,32.270 229.593,32.270 229.390,32.270 228.883,32.553 228.377,32.837 227.870,33.120 227.247,32.747 226.623,32.373 226.000,32.000 225.780,31.607 225.560,31.213 225.340,30.820 225.340,29.293 225.340,27.767 225.340,26.240 225.803,25.777 226.267,25.313 226.730,24.850 227.657,24.850 228.583,24.850 229.510,24.850 229.820,25.160 230.130,25.470 230.440,25.780 231.557,25.780 232.673,25.780 233.790,25.780 234.373,25.290 234.957,24.800 235.540,24.310 235.540,23.187 235.540,22.063 235.540,20.940 234.997,20.627 234.453,20.313 233.910,20.000 232.910,19.900 231.910,19.800 230.910,19.700 230.910,19.700 230.910,19.700 230.910,19.700 230.447,20.163 229.983,20.627 229.520,21.090 228.593,21.090 227.667,21.090 226.740,21.090 226.277,20.627 225.813,20.163 225.350,19.700 225.350,17.700 225.350,15.700 225.350,13.700 223.330,13.700 221.310,13.700 219.290,13.700 218.957,13.570 218.623,13.440 218.290,13.310 218.103,13.130 217.917,12.950 217.730,12.770 202.647,12.770 187.563,12.770 172.480,12.770 172.480,12.923 172.480,13.077 172.480,13.230 172.130,13.680 171.780,14.130 171.430,14.580 170.193,14.890 168.957,15.200 167.720,15.510 167.340,15.213 166.960,14.917 166.580,14.620 164.913,14.620 163.247,14.620 161.580,14.620 161.147,14.903 160.713,15.187 160.280,15.470 159.613,15.187 158.947,14.903 158.280,14.620 157.677,14.620 157.073,14.620 156.470,14.620 155.903,14.730 155.337,14.840 154.770,14.950 154.770,15.173 154.770,15.397 154.770,15.620 154.337,16.080 153.903,16.540 153.470,17.000 148.810,17.000 144.730,19.680 144.730,22.640 144.730,24.360 149.930,27.070 154.780,28.520 155.113,28.963 155.447,29.407 155.780,29.850 155.317,30.337 154.853,30.823 154.390,31.310 152.997,31.310 151.603,31.310 150.210,31.310 150.210,31.463 150.210,31.617 150.210,31.770 149.747,32.233 149.283,32.697 148.820,33.160 147.427,33.160 146.033,33.160 144.640,33.160 144.640,33.933 144.640,34.707 144.640,35.480 144.177,35.943 143.713,36.407 143.250,36.870 143.097,36.870 142.943,36.870 142.790,36.870 142.790,39.037 142.790,41.203 142.790,43.370 143.690,43.370 144.590,43.370 145.490,43.370 145.840,43.370 152.740,43.710 154.990,48.930 155.990,51.140 155.990,54.930 152.720,58.300 152.693,58.327 152.667,58.353 152.640,58.380 146.930,63.380 145.500,66.830 145.160,68.380 144.200,72.820 144.450,76.000 146.000,78.900 146.000,78.897 146.000,78.893 146.000,78.890 Z M 155.000,84.580 C 153.270,84.580 151.810,84.580 151.370,84.480 150.280,84.290 146.470,82.320 144.300,81.160 144.117,80.983 143.933,80.807 143.750,80.630 141.640,76.960 141.230,73.140 142.390,67.860 143.120,64.500 146.000,60.530 150.710,56.370 153.120,53.840 152.910,51.240 152.400,50.090 150.840,46.470 145.400,46.200 145.400,46.200 144.067,46.200 142.733,46.200 141.400,46.200 140.933,45.733 140.467,45.267 140.000,44.800 140.000,41.707 140.000,38.613 140.000,35.520 140.463,35.057 140.927,34.593 141.390,34.130 141.543,34.130 141.697,34.130 141.850,34.130 141.850,33.357 141.850,32.583 141.850,31.810 142.313,31.347 142.777,30.883 143.240,30.420 144.633,30.420 146.027,30.420 147.420,30.420 147.420,30.280 147.420,30.140 147.420,30.000 147.713,29.707 148.007,29.413 148.300,29.120 145.110,27.610 141.940,25.420 141.940,22.730 141.940,18.490 146.370,14.930 152.060,14.380 152.060,14.217 152.060,14.053 152.060,13.890 152.433,13.433 152.807,12.977 153.180,12.520 154.257,12.317 155.333,12.113 156.410,11.910 157.157,11.910 157.903,11.910 158.650,11.910 158.833,11.950 159.017,11.990 159.200,12.030 159.563,12.187 159.927,12.343 160.290,12.500 160.487,12.303 160.683,12.107 160.880,11.910 163.047,11.910 165.213,11.910 167.380,11.910 167.617,12.147 167.853,12.383 168.090,12.620 168.627,12.487 169.163,12.353 169.700,12.220 169.700,11.963 169.700,11.707 169.700,11.450 170.163,10.967 170.627,10.483 171.090,10.000 186.843,10.000 202.597,10.000 218.350,10.000 218.683,10.130 219.017,10.260 219.350,10.390 219.537,10.570 219.723,10.750 219.910,10.930 222.207,10.930 224.503,10.930 226.800,10.930 227.263,11.393 227.727,11.857 228.190,12.320 228.190,14.273 228.190,16.227 228.190,18.180 228.700,17.720 229.210,17.260 229.720,16.800 231.317,16.960 232.913,17.120 234.510,17.280 234.687,17.333 234.863,17.387 235.040,17.440 235.920,17.923 236.800,18.407 237.680,18.890 237.920,19.297 238.160,19.703 238.400,20.110 238.400,21.740 238.400,23.370 238.400,25.000 238.233,25.357 238.067,25.713 237.900,26.070 237.020,26.807 236.140,27.543 235.260,28.280 234.960,28.390 234.660,28.500 234.360,28.610 232.763,28.610 231.167,28.610 229.570,28.610 229.260,28.300 228.950,27.990 228.640,27.680 228.487,27.680 228.333,27.680 228.180,27.680 228.180,28.453 228.180,29.227 228.180,30.000 228.333,29.847 228.487,29.693 228.640,29.540 229.567,29.540 230.493,29.540 231.420,29.540 231.883,30.003 232.347,30.467 232.810,30.930 232.810,31.083 232.810,31.237 232.810,31.390 233.070,31.390 233.330,31.390 233.590,31.390 233.713,31.407 233.837,31.423 233.960,31.440 235.017,31.733 236.073,32.027 237.130,32.320 238.627,32.320 240.123,32.320 241.620,32.320 242.080,32.767 242.540,33.213 243.000,33.660 243.000,35.207 243.000,36.753 243.000,38.300 242.537,38.763 242.073,39.227 241.610,39.690 240.227,39.690 238.843,39.690 237.460,39.690 237.377,39.790 237.293,39.890 237.210,39.990 235.970,40.200 234.730,40.410 233.490,40.620 233.260,40.620 233.030,40.620 232.800,40.620 232.800,41.080 232.800,41.540 232.800,42.000 232.337,42.463 231.873,42.927 231.410,43.390 230.483,43.390 229.557,43.390 228.630,43.390 228.477,43.237 228.323,43.083 228.170,42.930 228.170,43.240 228.170,43.550 228.170,43.860 227.707,44.323 227.243,44.787 226.780,45.250 226.160,45.250 225.540,45.250 224.920,45.250 224.457,44.787 223.993,44.323 223.530,43.860 223.530,42.500 223.530,41.140 223.530,39.780 223.163,40.060 222.797,40.340 222.430,40.620 222.340,41.747 222.250,42.873 222.160,44.000 221.697,44.430 221.233,44.860 220.770,45.290 211.847,45.290 202.923,45.290 194.000,45.290 193.703,45.183 193.407,45.077 193.110,44.970 192.863,44.767 192.617,44.563 192.370,44.360 190.703,44.360 189.037,44.360 187.370,44.360 187.370,44.950 187.370,45.540 187.370,46.130 187.230,46.463 187.090,46.797 186.950,47.130 186.074,47.859 185.686,49.021 185.950,50.130 186.394,51.717 187.508,53.031 189.000,53.730 191.590,54.640 191.640,56.390 191.590,56.910 191.464,58.092 190.548,59.037 189.370,59.200 189.267,59.200 189.163,59.200 189.060,59.200 180.650,58.640 178.000,49.900 177.670,44.310 177.600,44.310 177.530,44.310 177.460,44.310 173.680,46.020 171.270,50.220 170.620,53.470 170.010,56.470 167.730,74.120 167.310,78.680 166.890,83.240 163.730,84.500 162.090,84.480 160.790,84.530 157.620,84.580 155.000,84.580 155.000,84.580 155.000,84.580 155.000,84.580 Z " />
  <path stroke="none" fill="#ffffffff" d="M 152.990,28.560 C 158.247,28.560 163.503,28.560 168.760,28.560 168.760,29.487 168.760,30.413 168.760,31.340 163.503,31.340 158.247,31.340 152.990,31.340 152.990,30.413 152.990,29.487 152.990,28.560 Z " />
  <path stroke="none" fill="#ffffffff" d="M 178.050,41.550 C 181.763,41.550 185.477,41.550 189.190,41.550 189.190,42.477 189.190,43.403 189.190,44.330 185.477,44.330 181.763,44.330 178.050,44.330 178.050,43.403 178.050,42.477 178.050,41.550 Z " />
</svg>