<?xml version="1.0" encoding="UTF-8" standalone="no"?>
<!DOCTYPE svg PUBLIC "-//W3C//DTD SVG 20010904//EN" "http://www.w3.org/TR/2001/REC-SVG-20010904/DTD/svg10.dtd"[]>
<svg version="1.1" id="Frosty Editor v1.0.6.3" xmlns="http://www.w3.org/2000/svg" d1p1:xlink="http://www.w3.org/1999/xlink" viewBox="0 0 25 25" xmlns:d1p1="xmlns">
  <path stroke="none" fill="#ffffffff" d="M 9.630,14.231 C 9.947,14.736 9.947,14.736 9.947,14.736 8.445,16.238 8.445,16.238 8.445,16.238 8.525,16.317 8.525,16.317 8.525,16.317 8.133,16.778 8.133,16.778 8.133,16.778 8.101,16.810 8.138,16.926 7.881,17.207 7.906,17.232 7.906,17.232 7.906,17.232 6.277,18.860 6.277,18.860 6.277,18.860 6.252,18.834 6.252,18.834 6.252,18.834 5.858,19.228 5.858,19.228 5.858,19.228 5.794,19.164 5.794,19.164 5.794,19.164 5.572,19.386 5.572,19.386 5.572,19.386 5.636,19.450 5.636,19.450 5.636,19.450 5.521,19.565 5.521,19.565 5.521,19.565 5.420,19.464 5.420,19.464 5.420,19.464 5.959,18.926 5.959,18.926 5.959,18.926 5.618,18.821 5.618,18.821 5.618,18.821 4.352,20.087 4.352,20.087 4.352,20.087 4.457,20.427 4.457,20.427 4.457,20.427 5.548,21.287 5.548,21.287 5.548,21.287 5.883,21.273 5.883,21.273 5.883,21.273 6.448,20.707 6.448,20.707 6.448,20.707 6.439,20.483 6.439,20.483 6.439,20.483 5.724,19.768 5.724,19.768 5.724,19.768 5.839,19.653 5.839,19.653 5.839,19.653 5.859,19.673 5.859,19.673 5.859,19.673 5.794,19.786 5.794,19.786 5.794,19.786 5.804,19.796 5.804,19.796 5.804,19.796 5.802,19.814 5.808,19.832 5.822,19.846 5.836,19.860 5.854,19.866 5.872,19.864 5.898,19.890 5.898,19.890 5.898,19.890 5.896,19.908 5.902,19.927 5.916,19.941 5.930,19.954 5.949,19.960 5.967,19.959 5.993,19.985 5.993,19.985 5.993,19.985 5.991,20.003 5.997,20.021 6.010,20.035 6.024,20.049 6.043,20.055 6.061,20.053 6.087,20.079 6.087,20.079 6.087,20.079 6.088,20.065 6.094,20.052 6.105,20.041 6.129,20.017 6.169,20.017 6.193,20.041 6.217,20.066 6.217,20.105 6.193,20.129 6.182,20.140 6.169,20.146 6.155,20.147 6.165,20.157 6.165,20.157 6.165,20.157 6.279,20.092 6.279,20.092 6.279,20.092 6.326,20.140 6.326,20.140 6.326,20.140 6.547,19.918 6.547,19.918 6.547,19.918 6.509,19.880 6.509,19.880 6.509,19.880 6.509,19.880 6.583,19.590 6.795,19.378 6.768,19.351 6.768,19.351 6.768,19.351 8.396,17.722 8.396,17.722 8.396,17.722 8.421,17.747 8.421,17.747 8.421,17.747 8.702,17.489 8.818,17.527 8.850,17.495 9.302,17.094 9.302,17.094 9.302,17.094 9.368,17.161 9.368,17.161 9.368,17.161 9.474,17.266 9.474,17.266 9.474,17.266 9.614,17.208 9.614,17.208 9.614,17.208 10.378,19.273 10.378,19.273 10.378,19.273 10.474,19.237 10.474,19.237 10.474,19.237 10.474,19.237 10.474,19.237 10.474,19.237 11.231,18.957 11.231,18.957 11.231,18.957 11.344,18.916 11.344,18.916 11.344,18.916 11.308,18.819 11.308,18.819 11.308,18.819 11.195,18.861 11.195,18.861 11.195,18.861 10.979,18.276 11.138,18.365 11.039,18.099 10.986,17.954 10.857,17.878 10.824,17.789 10.791,17.698 10.822,17.512 10.773,17.380 10.722,17.241 10.579,17.185 10.456,16.861 10.685,16.766 10.685,16.766 10.685,16.766 10.777,16.674 10.777,16.674 10.777,16.674 10.421,16.318 10.421,16.318 10.421,16.318 10.850,16.151 10.850,16.151 10.850,16.151 10.862,16.278 10.938,16.420 11.207,16.445 11.210,16.423 11.210,16.423 11.210,16.423 11.013,16.368 10.939,16.266 10.920,16.124 11.354,15.955 11.354,15.955 11.354,15.955 11.646,16.340 11.633,16.672 11.217,17.173 11.262,17.218 11.262,17.218 11.262,17.218 11.923,16.612 11.739,16.145 11.525,15.824 11.897,15.539 11.897,15.539 11.897,15.539 11.848,15.576 11.848,15.576 11.848,15.576 11.947,15.705 11.947,15.705 11.947,15.705 12.075,15.606 12.075,15.606 12.075,15.606 12.087,15.622 12.087,15.622 12.087,15.622 12.579,15.245 12.579,15.245 12.579,15.245 12.469,15.100 12.469,15.100 12.469,15.100 12.912,14.761 12.912,14.761 12.912,14.761 13.041,14.356 13.041,14.356 13.041,14.356 13.000,14.315 13.000,14.315 13.000,14.315 13.246,14.069 13.246,14.069 13.246,14.069 13.246,14.069 13.333,14.021 13.364,13.989 13.380,13.974 13.502,13.987 13.531,13.958 13.545,13.945 13.576,13.941 13.660,13.857 13.675,13.843 13.795,13.840 13.834,13.801 13.892,13.742 13.936,13.691 13.964,13.663 13.990,13.635 14.097,13.627 14.146,13.578 14.195,13.529 14.230,13.451 14.259,13.422 14.289,13.392 14.368,13.396 14.435,13.330 13.503,12.398 13.503,12.398 13.503,12.398 13.503,12.398 13.503,12.398 13.503,12.398 13.503,12.398 13.503,12.398 13.503,12.398 13.503,12.398 13.503,12.398 13.503,12.398 13.503,12.398 13.503,12.398 13.503,12.398 12.572,11.467 12.572,11.467 12.572,11.467 12.505,11.533 12.510,11.612 12.479,11.643 12.450,11.672 12.373,11.707 12.323,11.756 12.274,11.805 12.266,11.912 12.238,11.938 12.211,11.965 12.159,12.010 12.101,12.068 12.062,12.107 12.059,12.227 12.044,12.241 11.960,12.325 11.957,12.357 11.943,12.370 11.914,12.399 11.927,12.522 11.912,12.537 11.881,12.568 11.832,12.656 11.832,12.656 12.539,13.362 12.539,13.362 12.539,13.362 12.539,13.363 12.539,13.363 12.539,13.363 11.832,12.656 11.832,12.656 11.832,12.656 11.587,12.902 11.587,12.902 11.587,12.902 11.546,12.861 11.546,12.861 11.546,12.861 11.141,12.990 11.141,12.990 11.141,12.990 11.078,13.071 11.078,13.071 11.078,13.071 10.910,12.951 10.910,12.951 10.910,12.951 Z M 12.572,11.467 C 12.572,11.467 12.572,11.467 12.572,11.467 12.572,11.467 12.572,11.467 12.572,11.467 Z M 12.572,11.467 C 12.572,11.466 12.572,11.466 12.572,11.466 12.572,11.466 12.572,11.466 12.572,11.466 Z M 12.572,11.466 C 13.504,12.398 13.504,12.398 13.504,12.398 13.503,12.398 13.503,12.398 13.503,12.398 13.504,12.398 13.504,12.398 13.504,12.398 13.503,12.398 13.503,12.398 13.503,12.398 13.503,12.398 13.503,12.398 13.503,12.398 14.435,13.330 14.435,13.330 14.435,13.330 14.502,13.263 14.497,13.184 14.528,13.153 14.557,13.124 14.634,13.089 14.684,13.040 14.732,12.991 14.741,12.884 14.769,12.858 14.796,12.831 14.848,12.787 14.906,12.728 14.945,12.689 14.948,12.569 14.962,12.555 15.046,12.471 15.050,12.439 15.064,12.426 15.093,12.397 15.079,12.274 15.095,12.259 15.126,12.228 15.175,12.140 15.175,12.140 15.131,12.097 15.131,12.097 15.131,12.097 20.571,6.656 20.571,6.656 20.571,6.656 20.605,6.674 20.648,6.669 20.677,6.641 20.716,6.601 20.716,6.601 20.716,6.601 20.744,6.573 20.750,6.530 20.731,6.496 20.837,6.391 20.837,6.391 20.837,6.391 20.870,6.409 20.913,6.404 20.942,6.375 20.981,6.336 20.981,6.336 20.981,6.336 21.010,6.307 21.015,6.264 20.997,6.231 21.089,6.139 21.089,6.139 21.089,6.139 19.770,4.820 19.770,4.820 19.770,4.820 19.678,4.911 19.678,4.911 19.678,4.911 19.644,4.893 19.601,4.898 19.572,4.927 19.533,4.966 19.533,4.966 19.533,4.966 19.504,4.995 19.499,5.038 19.517,5.072 19.412,5.177 19.412,5.177 19.412,5.177 19.378,5.159 19.335,5.164 19.307,5.192 19.268,5.232 19.268,5.232 19.268,5.232 19.239,5.260 19.234,5.303 19.252,5.337 13.812,10.777 13.812,10.777 13.812,10.777 13.761,10.727 13.761,10.727 13.761,10.727 13.761,10.727 13.674,10.775 13.643,10.807 13.627,10.822 13.505,10.809 13.476,10.838 13.462,10.851 13.431,10.855 13.347,10.939 13.332,10.953 13.212,10.956 13.173,10.995 13.115,11.054 13.071,11.105 13.043,11.133 13.017,11.161 12.910,11.169 12.861,11.218 12.812,11.267 12.777,11.345 12.748,11.374 12.718,11.404 12.639,11.400 12.572,11.466 Z M 14.435,13.330 C 14.435,13.330 14.435,13.330 14.435,13.330 14.435,13.330 14.435,13.330 14.435,13.330 Z M 14.435,13.330 C 14.435,13.330 14.435,13.330 14.435,13.330 14.435,13.330 14.435,13.330 14.435,13.330 Z M 6.429,19.011 C 8.057,17.383 8.057,17.383 8.057,17.383 8.082,17.408 8.082,17.408 8.082,17.408 8.342,17.147 8.417,17.162 8.444,17.184 8.466,17.211 8.480,17.286 8.220,17.546 8.245,17.571 8.245,17.571 8.245,17.571 6.616,19.199 6.616,19.199 6.616,19.199 6.592,19.175 6.592,19.175 6.592,19.175 6.418,19.349 6.094,19.465 6.094,19.465 6.061,19.431 6.061,19.431 6.061,19.431 6.455,19.037 6.455,19.037 6.455,19.037 Z " />
</svg>