<?xml version="1.0" encoding="UTF-8" standalone="no"?>
<!DOCTYPE svg PUBLIC "-//W3C//DTD SVG 20010904//EN" "http://www.w3.org/TR/2001/REC-SVG-20010904/DTD/svg10.dtd"[]>
<svg version="1.1" id="Frosty Editor v1.0.6.3" xmlns="http://www.w3.org/2000/svg" d1p1:xlink="http://www.w3.org/1999/xlink" viewBox="0 0 96 96" xmlns:d1p1="xmlns">
  <path stroke="none" fill="#ffffffff" d="M 60.400,67.500 C 57.933,62.967 55.467,58.433 53.000,53.900 53.800,52.500 54.600,51.100 55.400,49.700 60.133,49.700 64.867,49.700 69.600,49.700 66.533,55.633 63.467,61.567 60.400,67.500 60.400,67.500 60.400,67.500 60.400,67.500 Z M 37.700,70.100 C 40.333,65.233 42.967,60.367 45.600,55.500 46.967,55.500 48.333,55.500 49.700,55.500 52.333,60.367 54.967,65.233 57.600,70.100 50.967,70.100 44.333,70.100 37.700,70.100 37.700,70.100 37.700,70.100 37.700,70.100 Z M 25.800,49.700 C 30.533,49.700 35.267,49.700 40.000,49.700 40.800,51.100 41.600,52.500 42.400,53.900 39.933,58.400 37.467,62.900 35.000,67.400 31.933,61.500 28.867,55.600 25.800,49.700 25.800,49.700 25.800,49.700 25.800,49.700 Z M 35.000,28.300 C 37.467,32.833 39.933,37.367 42.400,41.900 41.567,43.267 40.733,44.633 39.900,46.000 35.200,46.000 30.500,46.000 25.800,46.000 28.867,40.100 31.933,34.200 35.000,28.300 35.000,28.300 35.000,28.300 35.000,28.300 Z M 57.600,25.600 C 54.967,30.467 52.333,35.333 49.700,40.200 48.333,40.200 46.967,40.200 45.600,40.200 42.967,35.333 40.333,30.467 37.700,25.600 44.333,25.600 50.967,25.600 57.600,25.600 57.600,25.600 57.600,25.600 57.600,25.600 Z M 69.600,46.000 C 64.867,46.000 60.133,46.000 55.400,46.000 54.600,44.633 53.800,43.267 53.000,41.900 55.467,37.367 57.933,32.833 60.400,28.300 63.467,34.200 66.533,40.100 69.600,46.000 69.600,46.000 69.600,46.000 69.600,46.000 Z M 62.000,20.000 C 52.500,20.000 43.000,20.000 33.500,20.000 28.667,29.300 23.833,38.600 19.000,47.900 23.833,57.200 28.667,66.500 33.500,75.800 43.000,75.800 52.500,75.800 62.000,75.800 66.767,66.500 71.533,57.200 76.300,47.900 71.533,38.600 66.767,29.300 62.000,20.000 62.000,20.000 62.000,20.000 62.000,20.000 Z " />
</svg>