<?xml version="1.0" encoding="UTF-8" standalone="no"?>
<!DOCTYPE svg PUBLIC "-//W3C//DTD SVG 20010904//EN" "http://www.w3.org/TR/2001/REC-SVG-20010904/DTD/svg10.dtd"[]>
<svg version="1.1" id="Frosty Editor v1.0.6.3" xmlns="http://www.w3.org/2000/svg" d1p1:xlink="http://www.w3.org/1999/xlink" viewBox="0 0 25 25" xmlns:d1p1="xmlns">
  <path stroke="none" fill="#ffffffff" d="M 12.651,2.588 C 7.506,2.633 3.255,6.667 2.967,11.832 2.967,12.017 2.949,12.205 2.949,12.393 2.949,12.432 2.956,12.470 2.967,12.506 3.255,17.701 7.555,21.763 12.757,21.755 17.960,21.746 22.247,17.671 22.518,12.476 22.525,12.449 22.528,12.421 22.528,12.393 22.528,12.251 22.528,12.251 22.528,12.251 22.528,12.141 22.528,12.141 22.528,12.141 22.402,6.888 18.150,2.672 12.896,2.589 12.814,2.587 12.732,2.587 12.651,2.588 Z M 9.801,4.170 C 10.638,4.169 11.376,4.492 11.819,5.120 12.592,6.233 12.525,8.282 12.525,8.351 12.537,8.461 12.630,8.544 12.740,8.544 12.851,8.544 12.943,8.461 12.955,8.351 12.955,8.279 12.878,6.233 13.661,5.120 14.305,4.206 15.570,3.938 16.863,4.374 19.829,5.898 21.712,8.935 21.758,12.269 21.654,17.166 17.641,21.074 12.744,21.049 12.742,21.048 12.741,21.047 12.739,21.047 7.791,21.074 3.756,17.089 3.722,12.141 3.722,12.102 3.722,12.102 3.722,12.102 3.829,8.828 5.702,5.870 8.617,4.374 9.019,4.238 9.420,4.170 9.801,4.170 Z M 10.291,9.302 C 9.801,9.324 9.421,9.739 9.441,10.229 9.441,14.580 9.441,14.580 9.441,14.580 9.440,14.826 9.532,15.062 9.699,15.243 10.541,16.145 11.384,17.048 12.226,17.950 12.378,18.118 12.593,18.213 12.819,18.213 13.045,18.213 13.260,18.118 13.411,17.950 14.260,17.048 15.110,16.145 15.959,15.243 16.126,15.062 16.218,14.824 16.217,14.578 16.217,10.229 16.217,10.229 16.217,10.229 16.237,9.740 15.858,9.325 15.369,9.302 Z M 6.210,9.494 C 6.138,9.494 6.065,9.526 6.015,9.578 5.991,9.603 5.972,9.633 5.961,9.665 5.947,9.694 5.932,9.723 5.918,9.751 5.853,9.880 5.938,10.052 6.067,10.096 6.789,10.393 7.511,10.689 8.234,10.985 8.276,11.004 8.318,11.012 8.358,11.011 8.385,11.010 8.410,11.005 8.434,10.996 8.438,10.995 8.442,10.993 8.446,10.991 8.450,10.990 8.454,10.988 8.457,10.986 8.514,10.958 8.558,10.907 8.579,10.836 8.593,10.808 8.607,10.779 8.622,10.750 8.687,10.622 8.602,10.450 8.473,10.406 7.750,10.110 7.028,9.813 6.305,9.516 6.275,9.501 6.242,9.494 6.210,9.494 Z M 19.483,9.494 C 19.450,9.494 19.418,9.501 19.388,9.516 18.666,9.813 17.943,10.110 17.220,10.406 17.092,10.450 17.007,10.622 17.072,10.750 17.086,10.779 17.100,10.808 17.115,10.836 17.158,10.987 17.309,11.050 17.459,10.985 18.182,10.689 18.904,10.393 19.627,10.096 19.755,10.052 19.841,9.880 19.776,9.751 19.761,9.723 19.747,9.694 19.732,9.665 19.721,9.633 19.702,9.603 19.678,9.578 19.628,9.526 19.555,9.494 19.483,9.494 Z M 5.458,11.791 C 5.383,11.791 5.318,11.823 5.272,11.871 5.226,11.919 5.199,11.984 5.199,12.048 5.198,12.134 5.198,12.134 5.198,12.134 5.198,12.285 5.326,12.393 5.455,12.393 7.798,12.402 7.798,12.402 7.798,12.402 7.803,12.402 7.808,12.403 7.812,12.402 7.817,12.402 7.821,12.402 7.826,12.401 7.844,12.399 7.862,12.396 7.878,12.390 7.882,12.389 7.886,12.387 7.890,12.386 7.991,12.347 8.057,12.246 8.057,12.146 8.057,12.117 8.058,12.088 8.058,12.060 8.058,11.909 7.930,11.801 7.801,11.801 Z M 20.235,11.791 C 17.892,11.801 17.892,11.801 17.892,11.801 17.763,11.801 17.635,11.909 17.636,12.060 17.636,12.088 17.635,12.117 17.636,12.146 17.636,12.275 17.744,12.403 17.895,12.402 20.237,12.393 20.237,12.393 20.237,12.393 20.366,12.393 20.495,12.285 20.495,12.134 20.495,12.048 20.495,12.048 20.495,12.048 20.494,11.984 20.467,11.919 20.421,11.871 20.375,11.823 20.311,11.791 20.235,11.791 Z M 8.280,13.100 C 8.254,13.101 8.228,13.105 8.204,13.113 7.472,13.383 6.740,13.652 6.008,13.921 5.972,13.933 5.939,13.955 5.912,13.984 5.842,14.057 5.810,14.172 5.856,14.265 5.863,14.293 5.871,14.322 5.878,14.351 5.911,14.451 6.023,14.527 6.132,14.524 6.154,14.524 6.176,14.520 6.197,14.513 6.205,14.510 6.213,14.507 6.221,14.503 6.953,14.233 7.685,13.964 8.417,13.694 8.546,13.652 8.632,13.480 8.569,13.351 8.562,13.323 8.554,13.294 8.547,13.265 8.512,13.160 8.393,13.097 8.280,13.100 Z M 17.401,13.100 C 17.292,13.102 17.179,13.164 17.146,13.265 17.139,13.294 17.132,13.323 17.125,13.351 17.061,13.480 17.148,13.652 17.277,13.694 18.009,13.964 18.740,14.233 19.472,14.503 19.601,14.566 19.773,14.480 19.815,14.351 19.822,14.322 19.830,14.293 19.837,14.265 19.883,14.172 19.851,14.057 19.782,13.984 19.754,13.955 19.721,13.933 19.685,13.921 18.953,13.652 18.222,13.383 17.490,13.113 17.461,13.104 17.431,13.100 17.401,13.100 Z " />
</svg>