<?xml version="1.0" encoding="UTF-8" standalone="no"?>
<!DOCTYPE svg PUBLIC "-//W3C//DTD SVG 20010904//EN" "http://www.w3.org/TR/2001/REC-SVG-20010904/DTD/svg10.dtd"[]>
<svg version="1.1" id="Frosty Editor v1.0.6.3" xmlns="http://www.w3.org/2000/svg" d1p1:xlink="http://www.w3.org/1999/xlink" viewBox="0 0 96 96" xmlns:d1p1="xmlns">
  <path stroke="none" fill="#ffffffff" d="M 51.500,60.400 C 52.400,60.400 53.300,59.700 53.300,58.700 53.300,57.800 52.500,57.000 51.500,57.000 49.167,57.000 46.833,57.000 44.500,57.000 43.600,57.000 42.800,57.700 42.800,58.700 42.800,59.600 43.600,60.400 44.500,60.400 45.100,60.400 45.700,60.400 46.300,60.400 46.300,61.433 46.300,62.467 46.300,63.500 46.067,63.500 45.833,63.500 45.600,63.500 45.000,63.600 44.600,64.100 44.600,64.700 44.600,65.200 45.100,65.600 45.600,65.700 45.833,65.700 46.067,65.700 46.300,65.700 46.300,66.933 46.300,68.167 46.300,69.400 46.067,69.400 45.833,69.400 45.600,69.400 45.000,69.500 44.600,70.000 44.600,70.600 44.600,71.100 45.100,71.500 45.600,71.600 45.833,71.600 46.067,71.600 46.300,71.600 46.300,72.833 46.300,74.067 46.300,75.300 46.067,75.300 45.833,75.300 45.600,75.300 45.000,75.400 44.600,75.900 44.600,76.500 44.600,77.000 45.100,77.400 45.600,77.500 45.833,77.500 46.067,77.500 46.300,77.500 46.300,78.533 46.300,79.567 46.300,80.600 45.667,80.600 45.033,80.600 44.400,80.600 43.500,80.600 42.700,81.400 42.700,82.300 42.700,83.200 43.400,84.000 44.400,84.000 46.733,84.000 49.067,84.000 51.400,84.000 52.300,84.000 53.100,83.200 53.100,82.300 53.100,81.400 52.400,80.600 51.400,80.600 50.800,80.600 50.200,80.600 49.600,80.600 49.600,79.567 49.600,78.533 49.600,77.500 49.833,77.500 50.067,77.500 50.300,77.500 50.900,77.400 51.300,76.900 51.300,76.300 51.300,75.800 50.800,75.400 50.300,75.300 50.067,75.300 49.833,75.300 49.600,75.300 49.600,74.067 49.600,72.833 49.600,71.600 49.833,71.600 50.067,71.600 50.300,71.600 50.900,71.500 51.300,71.000 51.300,70.400 51.300,69.900 50.800,69.500 50.300,69.400 50.067,69.400 49.833,69.400 49.600,69.400 49.600,68.167 49.600,66.933 49.600,65.700 49.833,65.700 50.067,65.700 50.300,65.700 50.900,65.700 51.400,65.200 51.400,64.600 51.400,64.000 50.700,63.600 50.500,63.600 50.200,63.600 49.900,63.600 49.600,63.600 49.600,62.567 49.600,61.533 49.600,60.500 50.233,60.467 50.867,60.433 51.500,60.400 51.500,60.400 51.500,60.400 51.500,60.400 Z " />
  <path stroke="none" fill="#ffffffff" d="M 40.800,37.800 C 40.000,37.300 39.000,37.600 38.500,38.400 38.200,38.933 37.900,39.467 37.600,40.000 36.700,39.500 35.800,39.000 34.900,38.500 35.000,38.300 35.100,38.100 35.200,37.900 35.500,37.400 35.300,36.700 34.800,36.400 34.300,36.100 33.600,36.300 33.300,36.800 33.200,37.000 33.100,37.200 33.000,37.400 31.933,36.800 30.867,36.200 29.800,35.600 29.900,35.400 30.000,35.200 30.100,35.000 30.400,34.500 30.300,33.800 29.800,33.500 29.300,33.200 28.600,33.300 28.300,33.800 28.300,33.800 28.200,33.900 28.200,33.900 28.133,34.067 28.067,34.233 28.000,34.400 26.933,33.800 25.867,33.200 24.800,32.600 24.900,32.400 25.000,32.200 25.100,32.000 25.400,31.500 25.200,30.800 24.700,30.500 24.500,30.400 24.200,30.300 23.900,30.400 23.600,30.500 23.400,30.700 23.200,30.900 23.100,31.100 23.000,31.300 22.900,31.500 22.000,31.000 21.100,30.500 20.200,30.000 20.500,29.467 20.800,28.933 21.100,28.400 21.600,27.600 21.300,26.600 20.500,26.100 19.700,25.600 18.700,25.900 18.200,26.700 18.200,26.700 18.200,26.700 18.200,26.700 17.033,28.733 15.867,30.767 14.700,32.800 14.200,33.600 14.500,34.600 15.300,35.100 16.100,35.500 17.100,35.300 17.600,34.500 17.900,33.967 18.200,33.433 18.500,32.900 19.400,33.400 20.300,33.900 21.200,34.400 21.100,34.600 21.000,34.800 20.900,35.000 20.600,35.500 20.800,36.200 21.300,36.500 21.800,36.800 22.500,36.600 22.800,36.100 22.900,35.900 23.000,35.700 23.100,35.500 24.167,36.100 25.233,36.700 26.300,37.300 26.200,37.533 26.100,37.767 26.000,38.000 25.700,38.500 25.900,39.200 26.400,39.500 26.900,39.800 27.600,39.600 27.900,39.100 28.000,38.900 28.100,38.700 28.200,38.500 29.267,39.100 30.333,39.700 31.400,40.300 31.300,40.500 31.200,40.700 31.100,40.900 30.800,41.400 31.000,42.100 31.500,42.400 32.000,42.700 32.700,42.500 33.000,42.000 33.100,41.800 33.200,41.600 33.300,41.400 34.200,41.933 35.100,42.467 36.000,43.000 35.667,43.533 35.333,44.067 35.000,44.600 34.500,45.400 34.800,46.500 35.600,46.900 36.400,47.300 37.500,47.100 37.900,46.300 39.067,44.267 40.233,42.233 41.400,40.200 41.900,39.300 41.600,38.300 40.800,37.800 40.800,37.800 40.800,37.800 40.800,37.800 40.800,37.800 40.800,37.800 40.800,37.800 Z " />
  <path stroke="none" fill="#ffffffff" d="M 81.300,32.800 C 80.133,30.767 78.967,28.733 77.800,26.700 77.300,25.900 76.300,25.600 75.500,26.100 74.700,26.600 74.400,27.600 74.900,28.400 75.200,28.933 75.500,29.467 75.800,30.000 74.900,30.500 74.000,31.000 73.100,31.500 73.000,31.333 72.900,31.167 72.800,31.000 72.700,30.700 72.400,30.600 72.100,30.500 71.500,30.400 70.900,30.700 70.800,31.300 70.700,31.600 70.800,31.900 70.900,32.100 71.000,32.300 71.100,32.500 71.200,32.700 70.133,33.300 69.067,33.900 68.000,34.500 67.900,34.300 67.800,34.100 67.700,33.900 67.300,33.400 66.600,33.400 66.200,33.800 65.800,34.100 65.700,34.600 65.900,35.000 66.000,35.200 66.100,35.400 66.200,35.600 65.133,36.200 64.067,36.800 63.000,37.400 62.900,37.200 62.800,37.000 62.700,36.800 62.500,36.200 61.800,36.000 61.300,36.200 60.800,36.400 60.500,37.100 60.700,37.600 60.700,37.700 60.800,37.700 60.800,37.800 60.900,38.000 61.000,38.200 61.100,38.400 60.200,38.933 59.300,39.467 58.400,40.000 58.100,39.467 57.800,38.933 57.500,38.400 57.000,37.600 56.000,37.300 55.200,37.800 54.400,38.300 54.100,39.300 54.600,40.100 55.767,42.133 56.933,44.167 58.100,46.200 58.600,47.000 59.600,47.300 60.400,46.800 61.200,46.300 61.500,45.400 61.000,44.600 60.700,44.067 60.400,43.533 60.100,43.000 61.000,42.500 61.900,42.000 62.800,41.500 62.900,41.700 63.000,41.900 63.100,42.100 63.400,42.600 64.100,42.800 64.600,42.500 65.100,42.200 65.300,41.500 65.000,41.000 64.900,40.800 64.800,40.600 64.700,40.400 65.767,39.800 66.833,39.200 67.900,38.600 68.000,38.800 68.100,39.000 68.200,39.200 68.500,39.700 69.200,39.900 69.700,39.600 70.200,39.300 70.300,38.700 70.100,38.100 70.000,37.900 69.900,37.700 69.800,37.500 70.867,36.900 71.933,36.300 73.000,35.700 73.100,35.900 73.200,36.100 73.300,36.300 73.600,36.800 74.300,37.000 74.800,36.700 75.300,36.400 75.500,35.700 75.200,35.200 75.100,35.000 75.000,34.800 74.900,34.600 75.800,34.100 76.700,33.600 77.600,33.100 77.900,33.633 78.200,34.167 78.500,34.700 79.000,35.500 80.000,35.700 80.800,35.300 81.400,34.700 81.800,33.700 81.300,32.800 81.300,32.900 81.300,32.800 81.300,32.800 81.300,32.800 81.300,32.800 81.300,32.800 Z " />
</svg>