<?xml version="1.0" encoding="UTF-8" standalone="no"?>
<!DOCTYPE svg PUBLIC "-//W3C//DTD SVG 20010904//EN" "http://www.w3.org/TR/2001/REC-SVG-20010904/DTD/svg10.dtd"[]>
<svg version="1.1" id="Frosty Editor v1.0.6.3" xmlns="http://www.w3.org/2000/svg" d1p1:xlink="http://www.w3.org/1999/xlink" viewBox="0 0 96 96" xmlns:d1p1="xmlns">
  <path stroke="none" fill="#ffffffff" d="M 50.000,75.500 C 50.000,72.167 50.000,68.833 50.000,65.500 58.100,64.600 64.600,58.100 65.500,50.000 68.833,50.000 72.167,50.000 75.500,50.000 74.500,63.600 63.600,74.500 50.000,75.500 50.000,75.500 50.000,75.500 50.000,75.500 Z M 20.500,50.000 C 23.833,50.000 27.167,50.000 30.500,50.000 31.400,58.100 37.900,64.600 46.000,65.500 46.000,68.833 46.000,72.167 46.000,75.500 32.400,74.500 21.500,63.600 20.500,50.000 20.500,50.000 20.500,50.000 20.500,50.000 Z M 46.000,20.500 C 46.000,23.833 46.000,27.167 46.000,30.500 37.900,31.400 31.400,37.900 30.500,46.000 27.167,46.000 23.833,46.000 20.500,46.000 21.500,32.400 32.400,21.500 46.000,20.500 46.000,20.500 46.000,20.500 46.000,20.500 Z M 33.200,48.000 C 33.200,39.800 39.800,33.200 48.000,33.200 56.200,33.200 62.800,39.800 62.800,48.000 62.800,56.200 56.200,62.800 48.000,62.800 39.800,62.800 33.200,56.200 33.200,48.000 33.200,48.000 33.200,48.000 33.200,48.000 Z M 75.500,46.000 C 72.167,46.000 68.833,46.000 65.500,46.000 64.600,37.900 58.100,31.400 50.000,30.500 50.000,27.167 50.000,23.833 50.000,20.500 63.600,21.500 74.500,32.400 75.500,46.000 75.500,46.000 75.500,46.000 75.500,46.000 Z M 86.500,46.000 C 84.167,46.000 81.833,46.000 79.500,46.000 78.500,30.200 65.800,17.500 50.000,16.500 50.000,14.167 50.000,11.833 50.000,9.500 48.667,9.500 47.333,9.500 46.000,9.500 46.000,11.833 46.000,14.167 46.000,16.500 30.200,17.500 17.500,30.200 16.500,46.000 14.167,46.000 11.833,46.000 9.500,46.000 9.500,47.333 9.500,48.667 9.500,50.000 11.833,50.000 14.167,50.000 16.500,50.000 17.500,65.800 30.200,78.500 46.000,79.500 46.000,81.833 46.000,84.167 46.000,86.500 47.333,86.500 48.667,86.500 50.000,86.500 50.000,84.167 50.000,81.833 50.000,79.500 65.800,78.500 78.500,65.800 79.500,50.000 81.833,50.000 84.167,50.000 86.500,50.000 86.500,48.667 86.500,47.333 86.500,46.000 86.500,46.000 86.500,46.000 86.500,46.000 Z " />
</svg>