<?xml version="1.0" encoding="UTF-8" standalone="no"?>
<!DOCTYPE svg PUBLIC "-//W3C//DTD SVG 20010904//EN" "http://www.w3.org/TR/2001/REC-SVG-20010904/DTD/svg10.dtd"[]>
<svg version="1.1" id="Frosty Editor v1.0.6.3" xmlns="http://www.w3.org/2000/svg" d1p1:xlink="http://www.w3.org/1999/xlink" viewBox="0 0 101 25" xmlns:d1p1="xmlns">
  <path stroke="none" fill="#ffffffff" d="M 70.385,2.895 C 70.484,3.266 70.484,3.266 70.484,3.266 68.993,3.666 68.993,3.666 68.993,3.666 68.900,3.319 68.900,3.319 68.900,3.319 67.240,3.763 67.240,3.763 67.240,3.763 67.323,4.073 67.323,4.073 67.323,4.073 67.245,4.150 67.245,4.150 67.245,4.150 63.271,5.215 63.271,5.215 63.271,5.215 63.175,5.050 63.175,5.050 63.175,5.050 62.016,5.190 62.016,5.190 62.016,5.190 60.101,5.703 60.101,5.703 60.101,5.703 59.817,5.987 59.817,5.987 59.817,5.987 59.932,6.416 59.932,6.416 59.932,6.416 59.845,6.433 59.708,6.458 59.530,6.456 59.501,6.455 59.501,6.455 59.501,6.455 58.889,6.619 58.889,6.619 58.889,6.619 58.755,6.850 58.755,6.850 58.755,6.850 58.959,7.614 58.959,7.614 58.959,7.614 58.528,7.730 58.528,7.730 58.528,7.730 56.129,8.373 56.129,8.373 56.129,8.373 56.125,8.374 56.125,8.374 56.125,8.374 56.125,8.374 55.935,8.437 55.772,8.615 55.631,8.768 55.532,9.063 55.497,9.414 55.486,9.428 54.592,10.504 54.251,11.866 54.079,12.551 54.048,13.319 54.364,14.046 54.679,14.770 55.333,15.437 56.462,15.936 56.473,15.941 56.864,16.148 57.004,16.757 55.194,22.426 55.194,22.426 55.194,22.426 55.191,22.436 55.191,22.436 55.191,22.436 55.191,22.436 55.144,22.660 55.154,22.932 55.164,23.203 55.227,23.552 55.504,23.784 55.503,23.785 55.503,23.785 55.503,23.785 55.507,23.789 55.507,23.789 55.507,23.789 55.880,24.113 55.880,24.113 55.880,24.113 59.421,24.562 59.421,24.562 59.421,24.562 59.450,24.558 59.450,24.558 59.450,24.558 59.450,24.558 59.804,24.515 60.085,24.239 60.352,23.977 60.497,23.478 60.284,22.766 62.299,16.618 62.299,16.618 62.299,16.618 62.414,16.593 63.711,16.309 65.103,15.912 65.264,15.866 65.409,15.811 65.541,15.749 65.819,15.645 66.056,15.472 66.237,15.256 66.360,15.129 66.457,14.999 66.530,14.875 66.753,14.493 66.777,14.148 66.777,14.148 66.777,14.138 66.777,14.138 66.777,14.138 66.743,13.142 66.743,13.142 66.743,13.142 66.903,12.696 67.158,12.469 67.240,12.433 67.243,12.430 67.243,12.430 67.243,12.430 67.244,12.430 67.247,12.430 67.248,12.429 67.250,12.429 67.250,12.429 67.250,12.429 67.260,12.425 67.280,12.418 67.307,12.410 67.361,12.393 67.444,12.369 67.547,12.340 67.755,12.281 68.050,12.200 68.404,12.105 69.112,11.913 70.052,11.663 70.991,11.415 72.869,10.917 74.742,10.424 74.742,10.424 74.746,10.423 75.291,10.293 75.822,9.909 76.355,9.523 76.887,8.846 76.806,7.831 76.806,7.812 76.806,7.812 76.806,7.812 76.689,7.375 76.689,7.375 76.689,7.375 76.837,7.335 76.837,7.335 76.837,7.335 76.717,6.888 76.717,6.888 76.717,6.888 77.886,6.575 77.886,6.575 77.886,6.575 78.001,7.005 78.001,7.005 78.001,7.005 80.462,6.346 80.462,6.346 80.462,6.346 80.224,5.456 80.224,5.456 80.224,5.456 82.961,4.722 82.961,4.722 82.961,4.722 82.910,4.531 82.910,4.531 82.910,4.531 86.155,3.661 86.155,3.661 86.155,3.661 87.062,2.752 87.062,2.752 87.062,2.752 86.880,2.070 86.880,2.070 86.880,2.070 86.741,1.555 86.741,1.555 86.741,1.555 86.559,0.872 86.559,0.872 86.559,0.872 85.318,0.539 85.318,0.539 85.318,0.539 82.073,1.409 82.073,1.409 82.073,1.409 82.022,1.217 82.022,1.217 82.022,1.217 79.077,2.006 79.077,2.006 79.077,2.006 78.990,1.683 78.990,1.683 78.990,1.683 78.738,1.750 78.738,1.750 78.738,1.750 78.525,0.956 78.525,0.956 78.525,0.956 78.189,0.867 78.189,0.867 78.189,0.867 73.108,2.229 73.108,2.229 73.108,2.229 73.151,2.389 73.151,2.389 73.151,2.389 72.197,2.724 72.197,2.724 72.197,2.724 72.118,2.430 72.118,2.430 72.118,2.430 Z M 70.912,3.200 C 71.814,2.958 71.814,2.958 71.814,2.958 71.830,3.016 71.830,3.016 71.830,3.016 72.125,3.187 72.125,3.187 72.125,3.187 72.491,4.552 72.491,4.552 72.491,4.552 72.320,4.848 72.320,4.848 72.320,4.848 72.336,4.906 72.336,4.906 72.336,4.906 71.434,5.148 71.434,5.148 71.434,5.148 71.377,4.936 71.377,4.936 71.377,4.936 71.104,4.863 71.104,4.863 71.104,4.863 70.769,3.612 70.769,3.612 70.769,3.612 70.969,3.411 70.969,3.411 70.969,3.411 Z M 67.768,4.068 C 68.595,3.846 68.595,3.846 68.595,3.846 68.628,3.968 68.628,3.968 68.628,3.968 68.904,4.126 68.904,4.126 68.904,4.126 69.231,5.350 69.231,5.350 69.231,5.350 69.072,5.625 69.072,5.625 69.072,5.625 69.104,5.747 69.104,5.747 69.104,5.747 68.277,5.969 68.277,5.969 68.277,5.969 68.241,5.835 68.241,5.835 68.241,5.835 67.828,5.724 67.828,5.724 67.828,5.724 67.501,4.504 67.501,4.504 67.501,4.504 67.803,4.201 67.803,4.201 67.803,4.201 Z M 60.324,6.089 C 62.018,5.635 62.018,5.635 62.018,5.635 62.514,7.486 62.514,7.486 62.514,7.486 60.820,7.940 60.820,7.940 60.820,7.940 60.783,7.930 60.783,7.930 60.783,7.930 60.641,7.399 60.641,7.399 60.641,7.399 60.439,6.647 60.439,6.647 60.439,6.647 60.297,6.115 60.297,6.115 60.297,6.115 Z M 73.636,2.532 C 73.765,2.497 73.765,2.497 73.765,2.497 74.256,4.329 74.256,4.329 74.256,4.329 74.127,4.363 74.127,4.363 74.127,4.363 74.092,4.234 74.092,4.234 74.092,4.234 73.976,4.256 73.976,4.256 73.976,4.256 73.560,2.701 73.560,2.701 73.560,2.701 73.671,2.662 73.671,2.662 73.671,2.662 Z M 73.955,2.447 C 78.176,1.316 78.176,1.316 78.176,1.316 78.322,1.862 78.322,1.862 78.322,1.862 78.520,2.601 78.520,2.601 78.520,2.601 78.666,3.147 78.666,3.147 78.666,3.147 74.446,4.278 74.446,4.278 74.446,4.278 Z M 62.213,5.600 C 62.944,5.511 62.944,5.511 62.944,5.511 63.063,5.717 63.063,5.717 63.063,5.717 63.128,5.700 63.128,5.700 63.128,5.700 63.443,6.875 63.443,6.875 63.443,6.875 63.378,6.892 63.378,6.892 63.378,6.892 63.378,7.130 63.378,7.130 63.378,7.130 62.700,7.419 62.700,7.419 62.700,7.419 Z M 73.373,2.766 C 73.782,4.292 73.782,4.292 73.782,4.292 72.680,4.499 72.680,4.499 72.680,4.499 72.316,3.139 72.316,3.139 72.316,3.139 Z M 69.095,4.084 C 70.585,3.685 70.585,3.685 70.585,3.685 70.908,4.891 70.908,4.891 70.908,4.891 69.418,5.291 69.418,5.291 69.418,5.291 Z M 63.317,5.649 C 67.317,4.577 67.317,4.577 67.317,4.577 67.632,5.752 67.632,5.752 67.632,5.752 63.631,6.824 63.631,6.824 63.631,6.824 Z M 59.233,6.973 C 59.576,6.881 59.576,6.881 59.576,6.881 59.789,6.875 59.950,6.847 60.043,6.830 60.152,7.238 60.152,7.238 60.152,7.238 60.083,7.256 60.083,7.256 60.083,7.256 60.073,7.262 60.073,7.262 60.073,7.262 59.935,7.342 59.851,7.482 59.812,7.635 59.774,7.787 59.777,7.956 59.815,8.117 59.852,8.278 59.925,8.431 60.035,8.548 60.144,8.666 60.295,8.747 60.471,8.747 60.483,8.748 60.483,8.748 60.483,8.748 61.925,8.362 61.925,8.362 61.925,8.362 62.048,8.821 62.048,8.821 62.048,8.821 60.607,9.207 60.607,9.207 60.607,9.207 60.596,9.213 60.596,9.213 60.596,9.213 60.457,9.293 60.374,9.432 60.335,9.585 60.296,9.737 60.299,9.905 60.337,10.066 60.374,10.227 60.447,10.382 60.556,10.499 60.666,10.617 60.818,10.697 60.994,10.698 61.006,10.698 61.006,10.698 61.006,10.698 62.422,10.318 62.422,10.318 62.422,10.318 62.453,10.431 62.453,10.431 62.453,10.431 60.999,10.821 60.999,10.821 60.999,10.821 60.776,10.949 60.776,10.949 60.776,10.949 60.231,11.095 60.231,11.095 60.231,11.095 59.914,9.910 59.914,9.910 59.914,9.910 59.830,9.933 59.830,9.933 59.830,9.933 59.303,7.967 59.303,7.967 59.303,7.967 59.486,7.918 59.486,7.918 59.486,7.918 Z M 60.168,7.437 C 60.203,7.428 60.203,7.428 60.203,7.428 60.225,7.510 60.225,7.510 60.225,7.510 60.432,8.282 60.432,8.282 60.432,8.282 60.746,8.366 60.746,8.366 60.746,8.366 60.760,8.419 60.760,8.419 60.760,8.419 60.821,8.454 60.821,8.454 60.821,8.454 60.464,8.550 60.464,8.550 60.464,8.550 60.350,8.547 60.256,8.501 60.177,8.416 60.097,8.329 60.037,8.205 60.006,8.071 59.975,7.939 59.973,7.798 60.002,7.683 60.031,7.569 60.088,7.486 60.168,7.437 Z M 78.936,2.490 C 78.950,2.486 78.950,2.486 78.950,2.486 79.188,2.422 79.188,2.422 79.188,2.422 81.160,1.894 81.160,1.894 81.160,1.894 81.416,2.846 81.416,2.846 81.416,2.846 78.918,3.515 78.918,3.515 78.918,3.515 79.081,3.352 79.081,3.352 79.081,3.352 81.006,2.836 81.006,2.836 81.006,2.836 81.140,2.800 81.221,2.659 81.185,2.524 81.150,2.391 81.009,2.310 80.875,2.346 79.030,2.841 79.030,2.841 79.030,2.841 Z M 81.349,1.843 C 81.717,1.745 81.717,1.745 81.717,1.745 81.768,1.936 81.768,1.936 81.768,1.936 81.881,1.906 81.881,1.906 81.881,1.906 82.128,2.827 82.128,2.827 82.128,2.827 82.745,2.661 82.745,2.661 82.745,2.661 82.809,2.899 82.809,2.899 82.809,2.899 82.199,3.062 82.199,3.062 82.199,3.062 82.502,4.194 82.502,4.194 82.502,4.194 82.382,4.226 82.382,4.226 82.382,4.226 82.433,4.418 82.433,4.418 82.433,4.418 79.697,5.151 79.697,5.151 79.697,5.151 79.726,5.259 79.726,5.259 79.726,5.259 77.902,5.748 77.902,5.748 77.902,5.748 76.354,6.163 76.354,6.163 76.354,6.163 75.971,4.735 75.971,4.735 75.971,4.735 75.357,4.900 75.357,4.900 75.357,4.900 75.300,4.688 75.300,4.688 75.300,4.688 78.507,3.829 78.507,3.829 78.507,3.829 81.655,2.985 81.655,2.985 81.655,2.985 Z M 82.070,1.855 C 83.224,1.546 83.224,1.546 83.224,1.546 83.838,3.836 83.838,3.836 83.838,3.836 82.691,4.144 82.691,4.144 82.691,4.144 82.438,3.200 82.438,3.200 82.438,3.200 83.047,3.037 83.047,3.037 83.047,3.037 82.883,2.422 82.883,2.422 82.883,2.422 82.266,2.587 82.266,2.587 82.266,2.587 Z M 83.414,1.495 C 83.822,1.386 83.822,1.386 83.822,1.386 84.436,3.676 84.436,3.676 84.436,3.676 84.028,3.785 84.028,3.785 84.028,3.785 Z M 84.010,1.335 C 85.287,0.993 85.287,0.993 85.287,0.993 85.384,1.355 85.384,1.355 85.384,1.355 84.509,1.589 84.509,1.589 84.509,1.589 84.539,1.701 84.539,1.701 84.539,1.701 84.932,3.166 84.932,3.166 84.932,3.166 85.806,2.932 85.806,2.932 85.806,2.932 85.900,3.283 85.900,3.283 85.900,3.283 84.624,3.626 84.624,3.626 84.624,3.626 Z M 56.253,8.784 C 57.079,8.563 57.079,8.563 57.079,8.563 57.606,10.529 57.606,10.529 57.606,10.529 57.414,10.580 57.414,10.580 57.414,10.580 57.396,10.596 57.396,10.596 57.396,10.596 57.396,10.596 57.171,10.806 57.032,11.176 57.018,11.214 57.006,11.255 56.994,11.296 56.961,11.310 56.846,11.355 56.681,11.361 56.493,11.368 56.282,11.319 56.118,11.083 55.766,9.770 55.766,9.770 55.766,9.770 55.790,9.739 55.835,9.678 55.835,9.678 55.884,9.620 55.884,9.620 55.884,9.620 55.885,9.542 55.885,9.542 55.885,9.542 55.885,9.188 55.993,9.010 56.088,8.907 56.183,8.804 56.253,8.784 56.253,8.784 Z M 57.267,8.513 C 57.468,8.459 57.468,8.459 57.468,8.459 57.995,10.424 57.995,10.424 57.995,10.424 57.794,10.478 57.794,10.478 57.794,10.478 Z M 57.656,8.408 C 58.183,8.267 58.183,8.267 58.183,8.267 58.710,10.233 58.710,10.233 58.710,10.233 58.183,10.374 58.183,10.374 58.183,10.374 Z M 58.372,8.217 C 58.574,8.163 58.574,8.163 58.574,8.163 59.101,10.128 59.101,10.128 59.101,10.128 58.899,10.182 58.899,10.182 58.899,10.182 Z M 58.762,8.112 C 59.115,8.018 59.115,8.018 59.115,8.018 59.642,9.983 59.642,9.983 59.642,9.983 59.289,10.078 59.289,10.078 59.289,10.078 Z M 85.500,1.034 C 86.207,1.224 86.207,1.224 86.207,1.224 86.326,1.666 86.326,1.666 86.326,1.666 86.464,2.181 86.464,2.181 86.464,2.181 86.582,2.624 86.582,2.624 86.582,2.624 86.065,3.141 86.065,3.141 86.065,3.141 85.956,2.737 85.956,2.737 85.956,2.737 85.998,2.643 86.044,2.512 86.058,2.361 86.081,2.089 85.988,1.746 85.615,1.465 Z M 79.080,3.029 C 80.925,2.534 80.925,2.534 80.925,2.534 80.958,2.525 80.987,2.543 80.996,2.575 81.005,2.608 80.988,2.638 80.955,2.646 79.110,3.141 79.110,3.141 79.110,3.141 Z M 63.809,7.222 C 65.923,6.656 65.923,6.656 65.923,6.656 65.959,6.791 65.959,6.791 65.959,6.791 65.999,6.941 65.911,7.090 65.761,7.131 62.064,8.121 62.064,8.121 62.064,8.121 62.047,8.057 62.047,8.057 62.047,8.057 62.735,7.872 62.735,7.872 62.735,7.872 63.809,7.414 63.809,7.414 63.809,7.414 Z M 66.111,6.606 C 66.457,6.513 66.457,6.513 66.457,6.513 66.922,8.248 66.922,8.248 66.922,8.248 66.948,8.343 66.948,8.343 66.948,8.343 67.122,8.994 67.122,8.994 67.122,8.994 67.089,9.051 67.089,9.051 67.089,9.051 66.994,9.214 66.994,9.214 66.994,9.214 62.643,10.380 62.643,10.380 62.643,10.380 62.613,10.267 62.613,10.267 62.613,10.267 66.335,9.270 66.335,9.270 66.335,9.270 66.586,9.202 66.737,8.941 66.669,8.689 66.515,8.115 66.515,8.115 66.515,8.115 66.448,7.862 66.187,7.712 65.935,7.779 62.238,8.770 62.238,8.770 62.238,8.770 62.115,8.311 62.115,8.311 62.115,8.311 65.812,7.321 65.812,7.321 65.812,7.321 66.064,7.253 66.214,6.992 66.147,6.741 Z M 66.647,6.462 C 67.783,6.158 67.783,6.158 67.783,6.158 67.889,6.186 67.889,6.186 67.889,6.186 67.972,6.496 67.972,6.496 67.972,6.496 68.334,6.399 68.334,6.399 68.334,6.399 68.702,7.771 68.702,7.771 68.702,7.771 67.112,8.197 67.112,8.197 67.112,8.197 Z M 69.539,5.704 C 71.031,5.304 71.031,5.304 71.031,5.304 71.130,5.675 71.130,5.675 71.130,5.675 71.246,5.644 71.246,5.644 71.246,5.644 71.425,6.313 71.425,6.313 71.425,6.313 71.771,6.220 71.771,6.220 71.771,6.220 71.841,6.478 71.841,6.478 71.841,6.478 71.954,6.900 71.954,6.900 71.954,6.900 69.719,7.498 69.719,7.498 69.719,7.498 69.543,6.839 69.543,6.839 69.543,6.839 69.676,6.804 69.676,6.804 69.676,6.804 69.485,6.090 69.485,6.090 69.485,6.090 69.632,6.051 69.632,6.051 69.632,6.051 Z M 72.785,4.918 C 73.779,4.731 73.779,4.731 73.779,4.731 73.822,4.891 73.822,4.891 73.822,4.891 75.064,4.558 75.064,4.558 75.064,4.558 75.220,5.139 75.220,5.139 75.220,5.139 75.834,4.974 75.834,4.974 75.834,4.974 76.217,6.404 76.217,6.404 76.217,6.404 77.953,5.938 77.953,5.938 77.953,5.938 79.777,5.450 79.777,5.450 79.777,5.450 79.936,6.041 79.936,6.041 79.936,6.041 79.844,6.066 79.844,6.066 79.844,6.066 79.711,5.568 79.711,5.568 79.711,5.568 78.268,5.955 78.268,5.955 78.268,5.955 78.402,6.452 78.402,6.452 78.402,6.452 78.305,6.478 78.305,6.478 78.305,6.478 78.190,6.048 78.190,6.048 78.190,6.048 76.190,6.584 76.190,6.584 76.190,6.584 76.310,7.030 76.310,7.030 76.310,7.030 76.162,7.070 76.162,7.070 76.162,7.070 76.376,7.871 76.376,7.871 76.376,7.871 76.441,8.723 76.025,9.230 75.570,9.559 75.112,9.890 74.636,10.007 74.636,10.007 74.635,10.007 74.635,10.007 74.635,10.007 74.632,10.008 74.632,10.008 74.632,10.008 74.632,10.008 72.760,10.501 70.881,10.999 69.942,11.247 69.001,11.497 68.292,11.689 67.937,11.785 67.641,11.867 67.431,11.925 67.325,11.955 67.243,11.980 67.184,11.998 67.154,12.007 67.129,12.014 67.109,12.021 67.099,12.024 67.090,12.028 67.077,12.032 67.074,12.033 67.071,12.036 67.067,12.038 67.063,12.040 67.061,12.041 67.055,12.044 67.054,12.045 67.052,12.046 67.051,12.047 66.791,12.168 66.508,12.474 66.323,13.022 66.310,13.059 66.310,13.059 66.310,13.059 66.315,13.192 66.315,13.192 66.315,13.192 65.918,12.642 65.209,12.364 64.516,12.549 63.015,12.951 63.015,12.951 63.015,12.951 62.454,13.102 62.036,13.521 61.860,14.033 61.523,14.123 61.523,14.123 61.523,14.123 61.468,14.138 61.468,14.138 61.468,14.138 57.230,15.274 57.230,15.274 57.230,15.274 57.194,15.140 57.194,15.140 57.194,15.140 57.242,15.064 57.965,13.902 57.339,12.644 57.040,12.042 57.094,11.570 57.217,11.243 57.336,10.925 57.509,10.765 57.520,10.755 59.774,10.151 59.774,10.151 59.774,10.151 60.160,11.588 60.160,11.588 60.160,11.588 67.494,9.623 67.494,9.623 67.494,9.623 67.332,9.020 67.332,9.020 67.332,9.020 67.345,8.999 67.345,8.999 67.345,8.999 67.323,8.987 67.323,8.987 67.323,8.987 67.162,8.386 67.162,8.386 67.162,8.386 68.752,7.960 68.752,7.960 68.752,7.960 68.844,8.301 68.844,8.301 68.844,8.301 68.865,8.397 68.839,8.455 68.812,8.495 68.786,8.533 68.764,8.545 68.760,8.548 67.551,8.872 67.551,8.872 67.551,8.872 67.457,8.897 67.457,8.897 67.457,8.897 67.363,8.922 67.363,8.922 67.363,8.922 67.388,9.017 67.388,9.017 67.388,9.017 67.629,9.918 67.629,9.918 67.629,9.918 71.950,8.760 71.950,8.760 71.950,8.760 71.955,8.759 71.955,8.759 71.955,8.759 71.955,8.759 72.253,8.656 72.541,8.428 72.778,8.240 73.015,7.956 73.066,7.575 75.778,6.848 75.778,6.848 75.778,6.848 76.030,6.781 76.182,6.519 76.114,6.267 76.047,6.015 75.784,5.865 75.532,5.932 72.890,6.640 72.890,6.640 72.890,6.640 72.683,5.865 72.683,5.865 72.683,5.865 72.531,5.300 72.531,5.300 72.531,5.300 72.863,5.211 72.863,5.211 72.863,5.211 Z M 84.749,1.726 C 85.380,1.557 85.380,1.557 85.380,1.557 85.792,1.818 85.882,2.104 85.861,2.343 85.841,2.575 85.735,2.732 85.721,2.753 85.070,2.927 85.070,2.927 85.070,2.927 Z M 61.006,8.336 C 61.857,8.108 61.857,8.108 61.857,8.108 61.874,8.172 61.874,8.172 61.874,8.172 61.087,8.383 61.087,8.383 61.087,8.383 Z M 68.523,6.348 C 69.297,6.141 69.297,6.141 69.297,6.141 69.438,6.665 69.438,6.665 69.438,6.665 69.303,6.701 69.303,6.701 69.303,6.701 69.638,7.950 69.638,7.950 69.638,7.950 69.647,7.983 69.647,7.983 69.647,7.983 69.773,8.453 69.773,8.453 69.773,8.453 71.625,7.956 71.625,7.956 71.625,7.956 71.628,7.955 71.628,7.955 71.628,7.955 71.628,7.955 71.788,7.901 71.941,7.779 72.094,7.658 72.253,7.454 72.229,7.174 72.228,7.165 72.228,7.165 72.228,7.165 72.030,6.427 72.030,6.427 72.030,6.427 71.961,6.169 71.961,6.169 71.961,6.169 71.935,6.074 71.935,6.074 71.935,6.074 71.910,5.979 71.910,5.979 71.910,5.979 71.816,6.004 71.816,6.004 71.816,6.004 71.564,6.072 71.564,6.072 71.564,6.072 71.436,5.593 71.436,5.593 71.436,5.593 72.343,5.350 72.343,5.350 72.343,5.350 72.494,5.915 72.494,5.915 72.494,5.915 72.875,7.337 72.875,7.337 72.875,7.337 72.912,7.768 72.677,8.069 72.419,8.274 72.160,8.479 71.891,8.574 71.891,8.574 67.768,9.678 67.768,9.678 67.768,9.678 67.602,9.060 67.602,9.060 67.602,9.060 68.844,8.728 68.844,8.728 68.844,8.728 68.856,8.721 68.856,8.721 68.856,8.721 68.856,8.721 68.922,8.681 68.973,8.606 69.025,8.530 69.067,8.409 69.035,8.261 69.034,8.258 69.034,8.258 69.034,8.258 Z M 55.617,9.976 C 55.938,11.175 55.938,11.175 55.938,11.175 55.948,11.188 55.948,11.188 55.948,11.188 56.153,11.490 56.455,11.566 56.687,11.557 56.788,11.554 56.875,11.536 56.946,11.517 56.896,11.849 56.931,12.260 57.165,12.730 57.760,13.927 57.010,15.083 57.010,15.083 56.986,15.119 56.986,15.119 56.986,15.119 57.055,15.380 57.055,15.380 57.055,15.380 56.938,15.584 56.938,15.584 56.938,15.584 57.006,15.839 57.006,15.839 57.006,15.839 56.826,15.644 56.664,15.555 56.655,15.550 56.655,15.550 56.652,15.549 56.652,15.549 56.651,15.549 56.651,15.549 56.651,15.549 55.584,15.081 55.027,14.491 54.760,13.875 54.492,13.257 54.512,12.595 54.668,11.971 54.882,11.118 55.343,10.370 55.617,9.976 Z M 76.866,4.546 C 76.641,4.607 76.506,4.840 76.566,5.065 76.627,5.290 76.861,5.426 77.086,5.366 81.467,4.192 81.467,4.192 81.467,4.192 81.692,4.132 81.826,3.897 81.765,3.672 81.705,3.446 81.472,3.312 81.247,3.372 Z M 76.917,4.735 C 81.298,3.561 81.298,3.561 81.298,3.561 81.421,3.528 81.544,3.598 81.577,3.722 81.610,3.846 81.539,3.969 81.416,4.002 77.035,5.176 77.035,5.176 77.035,5.176 76.911,5.209 76.789,5.138 76.756,5.014 76.723,4.890 76.793,4.768 76.917,4.735 Z M 60.692,9.386 C 61.054,9.289 61.054,9.289 61.054,9.289 61.013,9.361 61.013,9.361 61.013,9.361 61.099,9.685 61.099,9.685 61.099,9.685 61.195,10.041 61.195,10.041 61.195,10.041 61.282,10.365 61.282,10.365 61.282,10.365 61.349,10.404 61.349,10.404 61.349,10.404 60.990,10.500 60.990,10.500 60.990,10.500 60.874,10.499 60.779,10.450 60.700,10.365 60.620,10.279 60.560,10.155 60.529,10.022 60.498,9.889 60.495,9.748 60.525,9.633 60.553,9.519 60.611,9.434 60.692,9.386 Z M 61.321,9.218 C 62.099,9.009 62.099,9.009 62.099,9.009 62.136,9.150 62.136,9.150 62.136,9.150 62.546,9.116 62.546,9.116 62.546,9.116 62.727,9.792 62.727,9.792 62.727,9.792 62.341,10.014 62.341,10.014 62.341,10.014 62.372,10.129 62.372,10.129 62.372,10.129 61.616,10.332 61.616,10.332 61.616,10.332 61.449,10.236 61.449,10.236 61.449,10.236 61.384,9.991 61.384,9.991 61.384,9.991 61.288,9.635 61.288,9.635 61.288,9.635 61.222,9.389 61.222,9.389 61.222,9.389 Z M 62.382,8.934 C 65.986,7.968 65.986,7.968 65.986,7.968 66.136,7.928 66.287,8.014 66.327,8.165 66.481,8.740 66.481,8.740 66.481,8.740 66.522,8.890 66.434,9.041 66.284,9.081 62.671,10.049 62.671,10.049 62.671,10.049 62.955,9.887 62.955,9.887 62.955,9.887 62.693,8.908 62.693,8.908 62.693,8.908 Z M 72.941,6.829 C 75.583,6.121 75.583,6.121 75.583,6.121 75.733,6.080 75.884,6.167 75.924,6.318 75.965,6.469 75.878,6.619 75.727,6.659 73.074,7.370 73.074,7.370 73.074,7.370 73.073,7.353 73.072,7.336 73.071,7.319 73.070,7.311 73.070,7.311 73.070,7.311 Z M 69.770,7.688 C 72.004,7.089 72.004,7.089 72.004,7.089 72.032,7.194 72.032,7.194 72.032,7.194 72.049,7.392 71.943,7.528 71.819,7.626 71.697,7.723 71.575,7.766 71.570,7.768 69.911,8.213 69.911,8.213 69.911,8.213 69.836,7.933 69.836,7.933 69.836,7.933 69.827,7.899 69.827,7.899 69.827,7.899 Z M 75.593,6.169 C 75.470,6.202 75.397,6.331 75.430,6.454 75.463,6.577 75.591,6.652 75.714,6.619 75.836,6.586 75.909,6.458 75.877,6.335 75.844,6.212 75.715,6.137 75.593,6.169 Z M 75.633,6.319 C 75.674,6.308 75.716,6.332 75.727,6.375 75.739,6.418 75.714,6.459 75.674,6.469 75.632,6.481 75.591,6.457 75.579,6.414 75.568,6.371 75.592,6.330 75.633,6.319 Z M 78.509,6.093 C 79.574,5.807 79.574,5.807 79.574,5.807 79.656,6.116 79.656,6.116 79.656,6.116 78.592,6.401 78.592,6.401 78.592,6.401 Z M 68.134,8.940 C 67.978,8.982 67.885,9.144 67.926,9.300 67.968,9.455 68.130,9.548 68.286,9.507 68.441,9.465 68.535,9.303 68.493,9.148 68.451,8.992 68.289,8.898 68.134,8.940 Z M 70.942,8.188 C 70.787,8.229 70.691,8.392 70.733,8.548 70.775,8.703 70.938,8.796 71.093,8.754 71.249,8.713 71.343,8.550 71.301,8.395 71.260,8.240 71.097,8.146 70.942,8.188 Z M 67.194,9.260 C 67.254,9.484 67.254,9.484 67.254,9.484 60.299,11.347 60.299,11.347 60.299,11.347 60.282,11.285 60.282,11.285 60.282,11.285 60.852,11.133 60.852,11.133 60.852,11.133 61.073,11.004 61.073,11.004 61.073,11.004 67.123,9.383 67.123,9.383 67.123,9.383 Z M 68.185,9.129 C 68.238,9.114 68.291,9.145 68.305,9.198 68.319,9.251 68.288,9.305 68.236,9.319 68.182,9.333 68.129,9.302 68.115,9.249 68.101,9.196 68.131,9.143 68.185,9.129 Z M 70.992,8.376 C 71.046,8.362 71.097,8.393 71.111,8.446 71.125,8.499 71.097,8.552 71.043,8.566 70.990,8.581 70.937,8.550 70.923,8.497 70.908,8.443 70.939,8.391 70.992,8.376 Z M 57.804,12.694 C 57.649,12.735 57.555,12.897 57.597,13.053 57.638,13.208 57.800,13.302 57.956,13.260 58.111,13.219 58.205,13.056 58.163,12.901 58.122,12.746 57.959,12.652 57.804,12.694 Z M 74.863,8.175 C 74.707,8.216 74.615,8.379 74.656,8.534 74.698,8.690 74.860,8.785 75.016,8.743 75.171,8.702 75.265,8.538 75.223,8.382 75.181,8.227 75.019,8.133 74.863,8.175 Z M 57.855,12.882 C 57.908,12.868 57.960,12.898 57.975,12.952 57.989,13.005 57.959,13.057 57.906,13.072 57.852,13.086 57.800,13.056 57.785,13.003 57.771,12.949 57.801,12.897 57.855,12.882 Z M 74.914,8.365 C 74.968,8.350 75.020,8.380 75.034,8.433 75.049,8.487 75.018,8.539 74.965,8.553 74.911,8.568 74.858,8.537 74.844,8.484 74.830,8.431 74.860,8.379 74.914,8.365 Z M 59.113,12.799 C 58.867,12.865 58.720,13.120 58.786,13.366 58.852,13.611 59.107,13.758 59.353,13.692 70.858,10.610 70.858,10.610 70.858,10.610 71.103,10.544 71.250,10.289 71.185,10.043 71.119,9.798 70.864,9.651 70.618,9.716 Z M 59.164,12.988 C 66.531,11.014 66.531,11.014 66.531,11.014 66.669,11.528 66.669,11.528 66.669,11.528 59.302,13.502 59.302,13.502 59.302,13.502 59.157,13.541 59.014,13.459 58.976,13.315 58.937,13.170 59.019,13.027 59.164,12.988 Z M 66.719,10.963 C 70.669,9.905 70.669,9.905 70.669,9.905 70.813,9.866 70.957,9.950 70.996,10.094 71.035,10.238 70.951,10.381 70.807,10.420 66.857,11.478 66.857,11.478 66.857,11.478 Z M 68.955,10.407 C 69.071,10.843 69.071,10.843 69.071,10.843 69.134,10.826 69.134,10.826 69.134,10.826 69.018,10.390 69.018,10.390 69.018,10.390 Z M 69.073,10.376 C 69.190,10.811 69.190,10.811 69.190,10.811 69.253,10.795 69.253,10.795 69.253,10.795 69.136,10.359 69.136,10.359 69.136,10.359 Z M 69.199,10.342 C 69.316,10.778 69.316,10.778 69.316,10.778 69.379,10.761 69.379,10.761 69.379,10.761 69.262,10.325 69.262,10.325 69.262,10.325 Z M 69.320,10.309 C 69.437,10.745 69.437,10.745 69.437,10.745 69.500,10.728 69.500,10.728 69.500,10.728 69.383,10.292 69.383,10.292 69.383,10.292 Z M 69.439,10.278 C 69.556,10.713 69.556,10.713 69.556,10.713 69.619,10.697 69.619,10.697 69.619,10.697 69.502,10.261 69.502,10.261 69.502,10.261 Z M 69.565,10.244 C 69.682,10.680 69.682,10.680 69.682,10.680 69.744,10.663 69.744,10.663 69.744,10.663 69.627,10.227 69.627,10.227 69.627,10.227 Z M 69.688,10.211 C 69.805,10.647 69.805,10.647 69.805,10.647 69.867,10.630 69.867,10.630 69.867,10.630 69.750,10.194 69.750,10.194 69.750,10.194 Z M 69.806,10.179 C 69.923,10.615 69.923,10.615 69.923,10.615 69.987,10.598 69.987,10.598 69.987,10.598 69.870,10.162 69.870,10.162 69.870,10.162 Z M 69.931,10.146 C 70.048,10.581 70.048,10.581 70.048,10.581 70.111,10.565 70.111,10.565 70.111,10.565 69.994,10.129 69.994,10.129 69.994,10.129 Z M 70.053,10.113 C 70.170,10.549 70.170,10.549 70.170,10.549 70.233,10.532 70.233,10.532 70.233,10.532 70.116,10.096 70.116,10.096 70.116,10.096 Z M 70.172,10.081 C 70.288,10.517 70.288,10.517 70.288,10.517 70.351,10.500 70.351,10.500 70.351,10.500 70.234,10.064 70.234,10.064 70.234,10.064 Z M 70.297,10.048 C 70.414,10.483 70.414,10.483 70.414,10.483 70.477,10.467 70.477,10.467 70.477,10.467 70.360,10.031 70.360,10.031 70.360,10.031 Z M 67.749,10.758 C 67.642,10.787 67.578,10.896 67.608,11.003 67.636,11.110 67.746,11.173 67.852,11.145 67.959,11.116 68.022,11.006 67.994,10.900 67.965,10.793 67.855,10.729 67.749,10.758 Z M 68.655,10.515 C 68.549,10.544 68.485,10.653 68.514,10.761 68.542,10.867 68.652,10.930 68.759,10.902 68.866,10.873 68.929,10.763 68.901,10.657 68.872,10.550 68.762,10.486 68.655,10.515 Z M 70.680,9.973 C 70.574,10.001 70.510,10.111 70.539,10.218 70.568,10.324 70.677,10.388 70.784,10.359 70.891,10.330 70.954,10.221 70.926,10.114 70.897,10.007 70.787,9.944 70.680,9.973 Z M 57.635,14.528 C 57.479,14.570 57.386,14.732 57.427,14.888 57.469,15.043 57.631,15.136 57.787,15.095 57.942,15.053 58.036,14.891 57.994,14.736 57.952,14.580 57.790,14.486 57.635,14.528 Z M 57.686,14.717 C 57.738,14.702 57.790,14.733 57.804,14.787 57.818,14.840 57.789,14.893 57.736,14.907 57.683,14.921 57.630,14.890 57.616,14.837 57.602,14.784 57.632,14.731 57.686,14.717 Z M 63.138,13.365 C 64.628,12.966 64.628,12.966 64.628,12.966 65.301,12.786 65.979,13.177 66.160,13.851 66.269,14.259 66.168,14.669 65.920,14.969 65.791,15.104 65.622,15.234 65.395,15.344 65.356,15.359 65.317,15.371 65.275,15.383 63.775,15.785 63.775,15.785 63.775,15.785 63.102,15.965 62.423,15.573 62.243,14.900 62.217,14.803 62.203,14.705 62.201,14.610 62.652,14.916 63.521,15.334 64.675,15.077 64.673,15.071 64.673,15.071 64.673,15.071 64.682,15.072 64.690,15.073 64.699,15.074 64.716,14.644 64.716,14.644 64.716,14.644 64.146,14.622 63.737,14.268 63.458,13.898 63.307,13.698 63.204,13.505 63.138,13.365 Z M 62.746,13.542 C 62.822,13.705 62.941,13.926 63.114,14.157 63.260,14.350 63.448,14.550 63.676,14.713 62.957,14.641 62.478,14.305 62.278,14.135 62.367,13.896 62.529,13.688 62.746,13.542 Z M 57.225,15.477 C 61.465,14.341 61.465,14.341 61.465,14.341 61.510,14.386 61.510,14.386 61.510,14.386 61.411,14.999 61.411,14.999 61.411,14.999 61.706,15.663 61.706,15.663 61.706,15.663 61.938,15.912 61.938,15.912 61.938,15.912 61.858,16.582 61.858,16.582 61.858,16.582 59.841,22.736 59.841,22.736 59.841,22.736 59.864,22.804 59.864,22.804 59.864,22.804 60.100,23.483 59.952,23.767 59.783,23.932 59.620,24.093 59.414,24.124 59.403,24.126 56.063,23.701 56.063,23.701 56.063,23.701 55.786,23.460 55.786,23.460 55.786,23.460 55.784,23.459 55.784,23.459 55.784,23.459 55.782,23.457 55.782,23.457 55.782,23.457 55.652,23.349 55.593,23.130 55.585,22.917 55.577,22.707 55.611,22.539 55.612,22.533 57.454,16.764 57.454,16.764 57.454,16.764 57.444,16.708 57.444,16.708 57.444,16.708 57.424,16.612 57.399,16.522 57.369,16.439 57.147,15.611 57.147,15.611 57.147,15.611 Z M 61.683,14.283 C 61.803,14.251 61.803,14.251 61.803,14.251 61.754,14.496 61.758,14.754 61.827,15.012 61.908,15.316 62.070,15.576 62.281,15.781 62.246,16.193 62.246,16.193 62.246,16.193 62.183,16.207 62.103,16.224 62.098,16.225 62.143,15.847 62.143,15.847 62.143,15.847 61.873,15.552 61.873,15.552 61.873,15.552 61.615,14.973 61.615,14.973 61.615,14.973 61.718,14.318 61.718,14.318 61.718,14.318 Z M 62.463,15.936 C 62.541,15.993 62.625,16.042 62.711,16.084 62.619,16.106 62.519,16.130 62.446,16.147 Z M 58.974,18.522 C 58.818,18.564 58.724,18.726 58.765,18.881 58.807,19.037 58.971,19.132 59.126,19.090 59.282,19.049 59.375,18.885 59.333,18.729 59.291,18.574 59.130,18.481 58.974,18.522 Z M 59.025,18.712 C 59.078,18.697 59.129,18.727 59.143,18.780 59.158,18.834 59.129,18.886 59.075,18.900 59.022,18.915 58.969,18.884 58.955,18.831 58.941,18.778 58.971,18.726 59.025,18.712 Z " />
  <path stroke="none" fill="#ffffffff" d="M 30.615,2.895 C 30.516,3.266 30.516,3.266 30.516,3.266 32.007,3.666 32.007,3.666 32.007,3.666 32.100,3.319 32.100,3.319 32.100,3.319 33.760,3.763 33.760,3.763 33.760,3.763 33.677,4.073 33.677,4.073 33.677,4.073 33.755,4.150 33.755,4.150 33.755,4.150 37.729,5.215 37.729,5.215 37.729,5.215 37.825,5.050 37.825,5.050 37.825,5.050 38.984,5.190 38.984,5.190 38.984,5.190 40.899,5.703 40.899,5.703 40.899,5.703 41.183,5.987 41.183,5.987 41.183,5.987 41.068,6.416 41.068,6.416 41.068,6.416 41.155,6.433 41.292,6.458 41.470,6.456 41.499,6.455 41.499,6.455 41.499,6.455 42.111,6.619 42.111,6.619 42.111,6.619 42.245,6.850 42.245,6.850 42.245,6.850 42.041,7.614 42.041,7.614 42.041,7.614 42.472,7.730 42.472,7.730 42.472,7.730 44.871,8.373 44.871,8.373 44.871,8.373 44.875,8.374 44.875,8.374 44.875,8.374 44.875,8.374 45.065,8.437 45.228,8.615 45.369,8.768 45.468,9.063 45.503,9.414 45.514,9.428 46.408,10.504 46.749,11.866 46.921,12.551 46.952,13.319 46.636,14.046 46.321,14.770 45.667,15.437 44.538,15.936 44.527,15.941 44.136,16.148 43.996,16.757 45.806,22.426 45.806,22.426 45.806,22.426 45.809,22.436 45.809,22.436 45.809,22.436 45.809,22.436 45.856,22.660 45.846,22.932 45.836,23.203 45.773,23.552 45.496,23.784 45.497,23.785 45.497,23.785 45.497,23.785 45.493,23.789 45.493,23.789 45.493,23.789 45.120,24.113 45.120,24.113 45.120,24.113 41.579,24.562 41.579,24.562 41.579,24.562 41.550,24.558 41.550,24.558 41.550,24.558 41.550,24.558 41.196,24.515 40.915,24.239 40.648,23.977 40.503,23.478 40.716,22.766 38.701,16.618 38.701,16.618 38.701,16.618 38.586,16.593 37.289,16.309 35.897,15.912 35.736,15.866 35.591,15.811 35.459,15.749 35.181,15.645 34.944,15.472 34.763,15.256 34.640,15.129 34.543,14.999 34.470,14.875 34.247,14.493 34.223,14.148 34.223,14.148 34.223,14.138 34.223,14.138 34.223,14.138 34.257,13.142 34.257,13.142 34.257,13.142 34.097,12.696 33.842,12.469 33.760,12.433 33.757,12.430 33.757,12.430 33.757,12.430 33.756,12.430 33.753,12.430 33.752,12.429 33.750,12.429 33.750,12.429 33.750,12.429 33.740,12.425 33.720,12.418 33.693,12.410 33.639,12.393 33.556,12.369 33.453,12.340 33.245,12.281 32.950,12.200 32.596,12.105 31.888,11.913 30.948,11.663 30.009,11.415 28.131,10.917 26.258,10.424 26.258,10.424 26.254,10.423 25.710,10.293 25.178,9.909 24.645,9.523 24.113,8.846 24.194,7.831 24.194,7.812 24.194,7.812 24.194,7.812 24.311,7.375 24.311,7.375 24.311,7.375 24.163,7.335 24.163,7.335 24.163,7.335 24.283,6.888 24.283,6.888 24.283,6.888 23.114,6.575 23.114,6.575 23.114,6.575 22.999,7.005 22.999,7.005 22.999,7.005 20.538,6.346 20.538,6.346 20.538,6.346 20.776,5.456 20.776,5.456 20.776,5.456 18.039,4.722 18.039,4.722 18.039,4.722 18.090,4.531 18.090,4.531 18.090,4.531 14.845,3.661 14.845,3.661 14.845,3.661 13.938,2.752 13.938,2.752 13.938,2.752 14.120,2.070 14.120,2.070 14.120,2.070 14.259,1.555 14.259,1.555 14.259,1.555 14.441,0.872 14.441,0.872 14.441,0.872 15.682,0.539 15.682,0.539 15.682,0.539 18.927,1.409 18.927,1.409 18.927,1.409 18.978,1.217 18.978,1.217 18.978,1.217 21.923,2.006 21.923,2.006 21.923,2.006 22.010,1.683 22.010,1.683 22.010,1.683 22.262,1.750 22.262,1.750 22.262,1.750 22.475,0.956 22.475,0.956 22.475,0.956 22.811,0.867 22.811,0.867 22.811,0.867 27.892,2.229 27.892,2.229 27.892,2.229 27.849,2.389 27.849,2.389 27.849,2.389 28.803,2.724 28.803,2.724 28.803,2.724 28.882,2.430 28.882,2.430 28.882,2.430 Z M 30.088,3.200 C 29.186,2.958 29.186,2.958 29.186,2.958 29.170,3.016 29.170,3.016 29.170,3.016 28.875,3.187 28.875,3.187 28.875,3.187 28.509,4.552 28.509,4.552 28.509,4.552 28.680,4.848 28.680,4.848 28.680,4.848 28.664,4.906 28.664,4.906 28.664,4.906 29.566,5.148 29.566,5.148 29.566,5.148 29.623,4.936 29.623,4.936 29.623,4.936 29.896,4.863 29.896,4.863 29.896,4.863 30.231,3.612 30.231,3.612 30.231,3.612 30.031,3.411 30.031,3.411 30.031,3.411 Z M 33.232,4.068 C 32.405,3.846 32.405,3.846 32.405,3.846 32.372,3.968 32.372,3.968 32.372,3.968 32.096,4.126 32.096,4.126 32.096,4.126 31.769,5.350 31.769,5.350 31.769,5.350 31.928,5.625 31.928,5.625 31.928,5.625 31.896,5.747 31.896,5.747 31.896,5.747 32.723,5.969 32.723,5.969 32.723,5.969 32.759,5.835 32.759,5.835 32.759,5.835 33.172,5.724 33.172,5.724 33.172,5.724 33.499,4.504 33.499,4.504 33.499,4.504 33.197,4.201 33.197,4.201 33.197,4.201 Z M 40.676,6.089 C 38.982,5.635 38.982,5.635 38.982,5.635 38.486,7.486 38.486,7.486 38.486,7.486 40.180,7.940 40.180,7.940 40.180,7.940 40.217,7.930 40.217,7.930 40.217,7.930 40.359,7.399 40.359,7.399 40.359,7.399 40.561,6.647 40.561,6.647 40.561,6.647 40.703,6.115 40.703,6.115 40.703,6.115 Z M 27.364,2.532 C 27.235,2.497 27.235,2.497 27.235,2.497 26.744,4.329 26.744,4.329 26.744,4.329 26.873,4.363 26.873,4.363 26.873,4.363 26.908,4.234 26.908,4.234 26.908,4.234 27.024,4.256 27.024,4.256 27.024,4.256 27.440,2.701 27.440,2.701 27.440,2.701 27.329,2.662 27.329,2.662 27.329,2.662 Z M 27.045,2.447 C 22.824,1.316 22.824,1.316 22.824,1.316 22.678,1.862 22.678,1.862 22.678,1.862 22.480,2.601 22.480,2.601 22.480,2.601 22.334,3.147 22.334,3.147 22.334,3.147 26.554,4.278 26.554,4.278 26.554,4.278 Z M 38.787,5.600 C 38.056,5.511 38.056,5.511 38.056,5.511 37.937,5.717 37.937,5.717 37.937,5.717 37.872,5.700 37.872,5.700 37.872,5.700 37.557,6.875 37.557,6.875 37.557,6.875 37.622,6.892 37.622,6.892 37.622,6.892 37.622,7.130 37.622,7.130 37.622,7.130 38.300,7.419 38.300,7.419 38.300,7.419 Z M 27.627,2.766 C 27.218,4.292 27.218,4.292 27.218,4.292 28.320,4.499 28.320,4.499 28.320,4.499 28.684,3.139 28.684,3.139 28.684,3.139 Z M 31.905,4.084 C 30.415,3.685 30.415,3.685 30.415,3.685 30.092,4.891 30.092,4.891 30.092,4.891 31.582,5.291 31.582,5.291 31.582,5.291 Z M 37.683,5.649 C 33.683,4.577 33.683,4.577 33.683,4.577 33.368,5.752 33.368,5.752 33.368,5.752 37.369,6.824 37.369,6.824 37.369,6.824 Z M 41.767,6.973 C 41.424,6.881 41.424,6.881 41.424,6.881 41.211,6.875 41.050,6.847 40.957,6.830 40.848,7.238 40.848,7.238 40.848,7.238 40.917,7.256 40.917,7.256 40.917,7.256 40.927,7.262 40.927,7.262 40.927,7.262 41.065,7.342 41.149,7.482 41.188,7.635 41.226,7.787 41.223,7.956 41.185,8.117 41.148,8.278 41.075,8.431 40.965,8.548 40.856,8.666 40.705,8.747 40.529,8.747 40.517,8.748 40.517,8.748 40.517,8.748 39.075,8.362 39.075,8.362 39.075,8.362 38.952,8.821 38.952,8.821 38.952,8.821 40.393,9.207 40.393,9.207 40.393,9.207 40.404,9.213 40.404,9.213 40.404,9.213 40.543,9.293 40.626,9.432 40.665,9.585 40.704,9.737 40.701,9.905 40.663,10.066 40.626,10.227 40.553,10.382 40.444,10.499 40.334,10.617 40.182,10.697 40.006,10.698 39.994,10.698 39.994,10.698 39.994,10.698 38.578,10.318 38.578,10.318 38.578,10.318 38.547,10.431 38.547,10.431 38.547,10.431 40.002,10.821 40.002,10.821 40.002,10.821 40.224,10.949 40.224,10.949 40.224,10.949 40.769,11.095 40.769,11.095 40.769,11.095 41.086,9.910 41.086,9.910 41.086,9.910 41.170,9.933 41.170,9.933 41.170,9.933 41.697,7.967 41.697,7.967 41.697,7.967 41.514,7.918 41.514,7.918 41.514,7.918 Z M 40.832,7.437 C 40.797,7.428 40.797,7.428 40.797,7.428 40.775,7.510 40.775,7.510 40.775,7.510 40.568,8.282 40.568,8.282 40.568,8.282 40.254,8.366 40.254,8.366 40.254,8.366 40.240,8.419 40.240,8.419 40.240,8.419 40.179,8.454 40.179,8.454 40.179,8.454 40.536,8.550 40.536,8.550 40.536,8.550 40.650,8.547 40.744,8.501 40.823,8.416 40.903,8.329 40.963,8.205 40.994,8.071 41.025,7.939 41.027,7.798 40.998,7.683 40.969,7.569 40.912,7.486 40.832,7.437 Z M 22.064,2.490 C 22.050,2.486 22.050,2.486 22.050,2.486 21.812,2.422 21.812,2.422 21.812,2.422 19.840,1.894 19.840,1.894 19.840,1.894 19.584,2.846 19.584,2.846 19.584,2.846 22.082,3.515 22.082,3.515 22.082,3.515 21.919,3.352 21.919,3.352 21.919,3.352 19.994,2.836 19.994,2.836 19.994,2.836 19.860,2.800 19.779,2.659 19.815,2.524 19.850,2.391 19.991,2.310 20.125,2.346 21.970,2.841 21.970,2.841 21.970,2.841 Z M 19.651,1.843 C 19.283,1.745 19.283,1.745 19.283,1.745 19.232,1.936 19.232,1.936 19.232,1.936 19.119,1.906 19.119,1.906 19.119,1.906 18.872,2.827 18.872,2.827 18.872,2.827 18.255,2.661 18.255,2.661 18.255,2.661 18.191,2.899 18.191,2.899 18.191,2.899 18.801,3.062 18.801,3.062 18.801,3.062 18.498,4.194 18.498,4.194 18.498,4.194 18.618,4.226 18.618,4.226 18.618,4.226 18.567,4.418 18.567,4.418 18.567,4.418 21.303,5.151 21.303,5.151 21.303,5.151 21.274,5.259 21.274,5.259 21.274,5.259 23.098,5.748 23.098,5.748 23.098,5.748 24.646,6.163 24.646,6.163 24.646,6.163 25.029,4.735 25.029,4.735 25.029,4.735 25.643,4.900 25.643,4.900 25.643,4.900 25.700,4.688 25.700,4.688 25.700,4.688 22.493,3.829 22.493,3.829 22.493,3.829 19.345,2.985 19.345,2.985 19.345,2.985 Z M 18.930,1.855 C 17.776,1.546 17.776,1.546 17.776,1.546 17.162,3.836 17.162,3.836 17.162,3.836 18.309,4.144 18.309,4.144 18.309,4.144 18.562,3.200 18.562,3.200 18.562,3.200 17.953,3.037 17.953,3.037 17.953,3.037 18.117,2.422 18.117,2.422 18.117,2.422 18.734,2.587 18.734,2.587 18.734,2.587 Z M 17.586,1.495 C 17.178,1.386 17.178,1.386 17.178,1.386 16.564,3.676 16.564,3.676 16.564,3.676 16.972,3.785 16.972,3.785 16.972,3.785 Z M 16.990,1.335 C 15.713,0.993 15.713,0.993 15.713,0.993 15.616,1.355 15.616,1.355 15.616,1.355 16.491,1.589 16.491,1.589 16.491,1.589 16.461,1.701 16.461,1.701 16.461,1.701 16.068,3.166 16.068,3.166 16.068,3.166 15.194,2.932 15.194,2.932 15.194,2.932 15.100,3.283 15.100,3.283 15.100,3.283 16.376,3.626 16.376,3.626 16.376,3.626 Z M 44.747,8.784 C 43.921,8.563 43.921,8.563 43.921,8.563 43.394,10.529 43.394,10.529 43.394,10.529 43.586,10.580 43.586,10.580 43.586,10.580 43.604,10.596 43.604,10.596 43.604,10.596 43.604,10.596 43.829,10.806 43.968,11.176 43.982,11.214 43.994,11.255 44.006,11.296 44.039,11.310 44.154,11.355 44.319,11.361 44.507,11.368 44.718,11.319 44.882,11.083 45.234,9.770 45.234,9.770 45.234,9.770 45.210,9.739 45.165,9.678 45.165,9.678 45.116,9.620 45.116,9.620 45.116,9.620 45.115,9.542 45.115,9.542 45.115,9.542 45.115,9.188 45.007,9.010 44.912,8.907 44.817,8.804 44.747,8.784 44.747,8.784 Z M 43.733,8.513 C 43.532,8.459 43.532,8.459 43.532,8.459 43.005,10.424 43.005,10.424 43.005,10.424 43.206,10.478 43.206,10.478 43.206,10.478 Z M 43.344,8.408 C 42.817,8.267 42.817,8.267 42.817,8.267 42.290,10.233 42.290,10.233 42.290,10.233 42.817,10.374 42.817,10.374 42.817,10.374 Z M 42.628,8.217 C 42.426,8.163 42.426,8.163 42.426,8.163 41.899,10.128 41.899,10.128 41.899,10.128 42.101,10.182 42.101,10.182 42.101,10.182 Z M 42.238,8.112 C 41.885,8.018 41.885,8.018 41.885,8.018 41.359,9.983 41.359,9.983 41.359,9.983 41.711,10.078 41.711,10.078 41.711,10.078 Z M 15.500,1.034 C 14.793,1.224 14.793,1.224 14.793,1.224 14.674,1.666 14.674,1.666 14.674,1.666 14.536,2.181 14.536,2.181 14.536,2.181 14.418,2.624 14.418,2.624 14.418,2.624 14.935,3.141 14.935,3.141 14.935,3.141 15.044,2.737 15.044,2.737 15.044,2.737 15.002,2.643 14.956,2.512 14.942,2.361 14.919,2.089 15.012,1.746 15.385,1.465 Z M 21.920,3.029 C 20.075,2.534 20.075,2.534 20.075,2.534 20.042,2.525 20.013,2.543 20.004,2.575 19.995,2.608 20.012,2.638 20.045,2.646 21.890,3.141 21.890,3.141 21.890,3.141 Z M 37.191,7.222 C 35.077,6.656 35.077,6.656 35.077,6.656 35.041,6.791 35.041,6.791 35.041,6.791 35.001,6.941 35.089,7.090 35.239,7.131 38.936,8.121 38.936,8.121 38.936,8.121 38.953,8.057 38.953,8.057 38.953,8.057 38.265,7.872 38.265,7.872 38.265,7.872 37.191,7.414 37.191,7.414 37.191,7.414 Z M 34.889,6.606 C 34.543,6.513 34.543,6.513 34.543,6.513 34.078,8.248 34.078,8.248 34.078,8.248 34.052,8.343 34.052,8.343 34.052,8.343 33.878,8.994 33.878,8.994 33.878,8.994 33.911,9.051 33.911,9.051 33.911,9.051 34.006,9.214 34.006,9.214 34.006,9.214 38.357,10.380 38.357,10.380 38.357,10.380 38.388,10.267 38.388,10.267 38.388,10.267 34.665,9.270 34.665,9.270 34.665,9.270 34.414,9.202 34.263,8.941 34.331,8.689 34.485,8.115 34.485,8.115 34.485,8.115 34.552,7.862 34.813,7.712 35.065,7.779 38.762,8.770 38.762,8.770 38.762,8.770 38.885,8.311 38.885,8.311 38.885,8.311 35.188,7.321 35.188,7.321 35.188,7.321 34.936,7.253 34.786,6.992 34.853,6.741 Z M 34.353,6.462 C 33.217,6.158 33.217,6.158 33.217,6.158 33.111,6.186 33.111,6.186 33.111,6.186 33.028,6.496 33.028,6.496 33.028,6.496 32.666,6.399 32.666,6.399 32.666,6.399 32.298,7.771 32.298,7.771 32.298,7.771 33.888,8.197 33.888,8.197 33.888,8.197 Z M 31.461,5.704 C 29.969,5.304 29.969,5.304 29.969,5.304 29.870,5.675 29.870,5.675 29.870,5.675 29.754,5.644 29.754,5.644 29.754,5.644 29.575,6.313 29.575,6.313 29.575,6.313 29.229,6.220 29.229,6.220 29.229,6.220 29.159,6.478 29.159,6.478 29.159,6.478 29.046,6.900 29.046,6.900 29.046,6.900 31.281,7.498 31.281,7.498 31.281,7.498 31.457,6.839 31.457,6.839 31.457,6.839 31.324,6.804 31.324,6.804 31.324,6.804 31.515,6.090 31.515,6.090 31.515,6.090 31.368,6.051 31.368,6.051 31.368,6.051 Z M 28.215,4.918 C 27.221,4.731 27.221,4.731 27.221,4.731 27.178,4.891 27.178,4.891 27.178,4.891 25.936,4.558 25.936,4.558 25.936,4.558 25.780,5.139 25.780,5.139 25.780,5.139 25.166,4.974 25.166,4.974 25.166,4.974 24.783,6.404 24.783,6.404 24.783,6.404 23.047,5.938 23.047,5.938 23.047,5.938 21.223,5.450 21.223,5.450 21.223,5.450 21.064,6.041 21.064,6.041 21.064,6.041 21.156,6.066 21.156,6.066 21.156,6.066 21.289,5.568 21.289,5.568 21.289,5.568 22.732,5.955 22.732,5.955 22.732,5.955 22.598,6.452 22.598,6.452 22.598,6.452 22.695,6.478 22.695,6.478 22.695,6.478 22.810,6.048 22.810,6.048 22.810,6.048 24.810,6.584 24.810,6.584 24.810,6.584 24.690,7.030 24.690,7.030 24.690,7.030 24.838,7.070 24.838,7.070 24.838,7.070 24.624,7.871 24.624,7.871 24.624,7.871 24.559,8.723 24.975,9.230 25.430,9.559 25.888,9.890 26.364,10.007 26.364,10.007 26.365,10.007 26.365,10.007 26.365,10.007 26.368,10.008 26.368,10.008 26.368,10.008 26.368,10.008 28.240,10.501 30.119,10.999 31.058,11.247 31.999,11.497 32.708,11.689 33.063,11.785 33.359,11.867 33.569,11.925 33.675,11.955 33.757,11.980 33.816,11.998 33.846,12.007 33.871,12.014 33.891,12.021 33.901,12.024 33.910,12.028 33.923,12.032 33.926,12.033 33.929,12.036 33.933,12.038 33.937,12.040 33.939,12.041 33.945,12.044 33.946,12.045 33.948,12.046 33.949,12.047 34.209,12.168 34.492,12.474 34.677,13.022 34.690,13.059 34.690,13.059 34.690,13.059 34.685,13.192 34.685,13.192 34.685,13.192 35.082,12.642 35.791,12.364 36.484,12.549 37.985,12.951 37.985,12.951 37.985,12.951 38.546,13.102 38.964,13.521 39.140,14.033 39.477,14.123 39.477,14.123 39.477,14.123 39.532,14.138 39.532,14.138 39.532,14.138 43.770,15.274 43.770,15.274 43.770,15.274 43.806,15.140 43.806,15.140 43.806,15.140 43.758,15.064 43.035,13.902 43.661,12.644 43.960,12.042 43.906,11.570 43.783,11.243 43.664,10.925 43.491,10.765 43.480,10.755 41.226,10.151 41.226,10.151 41.226,10.151 40.840,11.588 40.840,11.588 40.840,11.588 33.506,9.623 33.506,9.623 33.506,9.623 33.668,9.020 33.668,9.020 33.668,9.020 33.655,8.999 33.655,8.999 33.655,8.999 33.677,8.987 33.677,8.987 33.677,8.987 33.838,8.386 33.838,8.386 33.838,8.386 32.248,7.960 32.248,7.960 32.248,7.960 32.156,8.301 32.156,8.301 32.156,8.301 32.135,8.397 32.161,8.455 32.188,8.495 32.214,8.533 32.236,8.545 32.240,8.548 33.449,8.872 33.449,8.872 33.449,8.872 33.543,8.897 33.543,8.897 33.543,8.897 33.637,8.922 33.637,8.922 33.637,8.922 33.612,9.017 33.612,9.017 33.612,9.017 33.371,9.918 33.371,9.918 33.371,9.918 29.050,8.760 29.050,8.760 29.050,8.760 29.045,8.759 29.045,8.759 29.045,8.759 29.045,8.759 28.747,8.656 28.459,8.428 28.222,8.240 27.985,7.956 27.934,7.575 25.222,6.848 25.222,6.848 25.222,6.848 24.970,6.781 24.818,6.519 24.886,6.267 24.953,6.015 25.216,5.865 25.468,5.932 28.110,6.640 28.110,6.640 28.110,6.640 28.317,5.865 28.317,5.865 28.317,5.865 28.469,5.300 28.469,5.300 28.469,5.300 28.137,5.211 28.137,5.211 28.137,5.211 Z M 16.251,1.726 C 15.620,1.557 15.620,1.557 15.620,1.557 15.208,1.818 15.118,2.104 15.139,2.343 15.159,2.575 15.265,2.732 15.279,2.753 15.930,2.927 15.930,2.927 15.930,2.927 Z M 39.994,8.336 C 39.143,8.108 39.143,8.108 39.143,8.108 39.126,8.172 39.126,8.172 39.126,8.172 39.913,8.383 39.913,8.383 39.913,8.383 Z M 32.477,6.348 C 31.703,6.141 31.703,6.141 31.703,6.141 31.562,6.665 31.562,6.665 31.562,6.665 31.697,6.701 31.697,6.701 31.697,6.701 31.362,7.950 31.362,7.950 31.362,7.950 31.353,7.983 31.353,7.983 31.353,7.983 31.227,8.453 31.227,8.453 31.227,8.453 29.375,7.956 29.375,7.956 29.375,7.956 29.372,7.955 29.372,7.955 29.372,7.955 29.372,7.955 29.212,7.901 29.059,7.779 28.906,7.658 28.747,7.454 28.771,7.174 28.772,7.165 28.772,7.165 28.772,7.165 28.970,6.427 28.970,6.427 28.970,6.427 29.039,6.169 29.039,6.169 29.039,6.169 29.065,6.074 29.065,6.074 29.065,6.074 29.090,5.979 29.090,5.979 29.090,5.979 29.184,6.004 29.184,6.004 29.184,6.004 29.436,6.072 29.436,6.072 29.436,6.072 29.564,5.593 29.564,5.593 29.564,5.593 28.657,5.350 28.657,5.350 28.657,5.350 28.506,5.915 28.506,5.915 28.506,5.915 28.125,7.337 28.125,7.337 28.125,7.337 28.088,7.768 28.323,8.069 28.581,8.274 28.840,8.479 29.109,8.574 29.109,8.574 33.232,9.678 33.232,9.678 33.232,9.678 33.398,9.060 33.398,9.060 33.398,9.060 32.156,8.728 32.156,8.728 32.156,8.728 32.144,8.721 32.144,8.721 32.144,8.721 32.144,8.721 32.078,8.681 32.027,8.606 31.975,8.530 31.933,8.409 31.965,8.261 31.966,8.258 31.966,8.258 31.966,8.258 Z M 45.383,9.976 C 45.062,11.175 45.062,11.175 45.062,11.175 45.052,11.188 45.052,11.188 45.052,11.188 44.847,11.490 44.545,11.566 44.313,11.557 44.212,11.554 44.125,11.536 44.054,11.517 44.104,11.849 44.069,12.260 43.835,12.730 43.240,13.927 43.990,15.083 43.990,15.083 44.014,15.119 44.014,15.119 44.014,15.119 43.945,15.380 43.945,15.380 43.945,15.380 44.062,15.584 44.062,15.584 44.062,15.584 43.994,15.839 43.994,15.839 43.994,15.839 44.174,15.644 44.336,15.555 44.345,15.550 44.345,15.550 44.348,15.549 44.348,15.549 44.349,15.549 44.349,15.549 44.349,15.549 45.416,15.081 45.973,14.491 46.240,13.875 46.508,13.257 46.488,12.595 46.332,11.971 46.118,11.118 45.657,10.370 45.383,9.976 Z M 24.134,4.546 C 24.359,4.607 24.494,4.840 24.434,5.065 24.373,5.290 24.139,5.426 23.914,5.366 19.533,4.192 19.533,4.192 19.533,4.192 19.308,4.132 19.174,3.897 19.235,3.672 19.295,3.446 19.528,3.312 19.753,3.372 Z M 24.083,4.735 C 19.702,3.561 19.702,3.561 19.702,3.561 19.579,3.528 19.456,3.598 19.423,3.722 19.390,3.846 19.461,3.969 19.584,4.002 23.965,5.176 23.965,5.176 23.965,5.176 24.089,5.209 24.211,5.138 24.244,5.014 24.277,4.890 24.207,4.768 24.083,4.735 Z M 40.308,9.386 C 39.946,9.289 39.946,9.289 39.946,9.289 39.987,9.361 39.987,9.361 39.987,9.361 39.901,9.685 39.901,9.685 39.901,9.685 39.805,10.041 39.805,10.041 39.805,10.041 39.718,10.365 39.718,10.365 39.718,10.365 39.651,10.404 39.651,10.404 39.651,10.404 40.010,10.500 40.010,10.500 40.010,10.500 40.126,10.499 40.221,10.450 40.300,10.365 40.380,10.279 40.440,10.155 40.471,10.022 40.502,9.889 40.505,9.748 40.475,9.633 40.447,9.519 40.389,9.434 40.308,9.386 Z M 39.679,9.218 C 38.901,9.009 38.901,9.009 38.901,9.009 38.864,9.150 38.864,9.150 38.864,9.150 38.454,9.116 38.454,9.116 38.454,9.116 38.273,9.792 38.273,9.792 38.273,9.792 38.659,10.014 38.659,10.014 38.659,10.014 38.628,10.129 38.628,10.129 38.628,10.129 39.384,10.332 39.384,10.332 39.384,10.332 39.551,10.236 39.551,10.236 39.551,10.236 39.617,9.991 39.617,9.991 39.617,9.991 39.712,9.635 39.712,9.635 39.712,9.635 39.778,9.389 39.778,9.389 39.778,9.389 Z M 38.618,8.934 C 35.014,7.968 35.014,7.968 35.014,7.968 34.864,7.928 34.713,8.014 34.673,8.165 34.519,8.740 34.519,8.740 34.519,8.740 34.478,8.890 34.566,9.041 34.716,9.081 38.329,10.049 38.329,10.049 38.329,10.049 38.045,9.887 38.045,9.887 38.045,9.887 38.307,8.908 38.307,8.908 38.307,8.908 Z M 28.059,6.829 C 25.417,6.121 25.417,6.121 25.417,6.121 25.267,6.080 25.116,6.167 25.076,6.318 25.035,6.469 25.122,6.619 25.273,6.659 27.926,7.370 27.926,7.370 27.926,7.370 27.927,7.353 27.928,7.336 27.929,7.319 27.930,7.311 27.930,7.311 27.930,7.311 Z M 31.230,7.688 C 28.996,7.089 28.996,7.089 28.996,7.089 28.968,7.194 28.968,7.194 28.968,7.194 28.951,7.392 29.057,7.528 29.181,7.626 29.303,7.723 29.425,7.766 29.430,7.768 31.089,8.213 31.089,8.213 31.089,8.213 31.165,7.933 31.165,7.933 31.165,7.933 31.173,7.899 31.173,7.899 31.173,7.899 Z M 25.407,6.169 C 25.530,6.202 25.603,6.331 25.570,6.454 25.537,6.577 25.409,6.652 25.286,6.619 25.164,6.586 25.091,6.458 25.123,6.335 25.156,6.212 25.285,6.137 25.407,6.169 Z M 25.367,6.319 C 25.326,6.308 25.284,6.332 25.273,6.375 25.261,6.418 25.286,6.459 25.326,6.469 25.368,6.481 25.409,6.457 25.421,6.414 25.432,6.371 25.408,6.330 25.367,6.319 Z M 22.491,6.093 C 21.426,5.807 21.426,5.807 21.426,5.807 21.344,6.116 21.344,6.116 21.344,6.116 22.408,6.401 22.408,6.401 22.408,6.401 Z M 32.866,8.940 C 33.022,8.982 33.115,9.144 33.074,9.300 33.032,9.455 32.870,9.548 32.714,9.507 32.559,9.465 32.465,9.303 32.507,9.148 32.549,8.992 32.711,8.898 32.866,8.940 Z M 30.058,8.188 C 30.213,8.229 30.309,8.392 30.267,8.548 30.225,8.703 30.062,8.796 29.907,8.754 29.751,8.713 29.657,8.550 29.699,8.395 29.740,8.240 29.903,8.146 30.058,8.188 Z M 33.806,9.260 C 33.746,9.484 33.746,9.484 33.746,9.484 40.701,11.347 40.701,11.347 40.701,11.347 40.718,11.285 40.718,11.285 40.718,11.285 40.148,11.133 40.148,11.133 40.148,11.133 39.927,11.004 39.927,11.004 39.927,11.004 33.877,9.383 33.877,9.383 33.877,9.383 Z M 32.815,9.129 C 32.762,9.114 32.709,9.145 32.695,9.198 32.681,9.251 32.712,9.305 32.764,9.319 32.818,9.333 32.871,9.302 32.885,9.249 32.899,9.196 32.869,9.143 32.815,9.129 Z M 30.008,8.376 C 29.954,8.362 29.903,8.393 29.889,8.446 29.875,8.499 29.903,8.552 29.957,8.566 30.010,8.581 30.063,8.550 30.077,8.497 30.092,8.443 30.061,8.391 30.008,8.376 Z M 43.196,12.694 C 43.351,12.735 43.445,12.897 43.403,13.053 43.362,13.208 43.200,13.302 43.044,13.260 42.889,13.219 42.795,13.056 42.837,12.901 42.878,12.746 43.041,12.652 43.196,12.694 Z M 26.137,8.175 C 26.293,8.216 26.385,8.379 26.344,8.534 26.302,8.690 26.140,8.785 25.984,8.743 25.829,8.702 25.735,8.538 25.777,8.382 25.819,8.227 25.981,8.133 26.137,8.175 Z M 43.145,12.882 C 43.092,12.868 43.040,12.898 43.025,12.952 43.011,13.005 43.041,13.057 43.094,13.072 43.148,13.086 43.201,13.056 43.215,13.003 43.229,12.949 43.199,12.897 43.145,12.882 Z M 26.086,8.365 C 26.032,8.350 25.980,8.380 25.966,8.433 25.951,8.487 25.982,8.539 26.035,8.553 26.089,8.568 26.142,8.537 26.156,8.484 26.170,8.431 26.140,8.379 26.086,8.365 Z M 41.887,12.799 C 42.133,12.865 42.280,13.120 42.214,13.366 42.148,13.611 41.893,13.758 41.647,13.692 30.142,10.610 30.142,10.610 30.142,10.610 29.897,10.544 29.750,10.289 29.815,10.043 29.881,9.798 30.136,9.651 30.382,9.716 Z M 41.836,12.988 C 34.469,11.014 34.469,11.014 34.469,11.014 34.331,11.528 34.331,11.528 34.331,11.528 41.698,13.502 41.698,13.502 41.698,13.502 41.843,13.541 41.986,13.459 42.024,13.315 42.063,13.170 41.981,13.027 41.836,12.988 Z M 34.281,10.963 C 30.331,9.905 30.331,9.905 30.331,9.905 30.187,9.866 30.043,9.950 30.004,10.094 29.965,10.238 30.049,10.381 30.193,10.420 34.143,11.478 34.143,11.478 34.143,11.478 Z M 32.045,10.407 C 31.929,10.843 31.929,10.843 31.929,10.843 31.866,10.826 31.866,10.826 31.866,10.826 31.983,10.390 31.983,10.390 31.983,10.390 Z M 31.927,10.376 C 31.810,10.811 31.810,10.811 31.810,10.811 31.747,10.795 31.747,10.795 31.747,10.795 31.864,10.359 31.864,10.359 31.864,10.359 Z M 31.801,10.342 C 31.684,10.778 31.684,10.778 31.684,10.778 31.621,10.761 31.621,10.761 31.621,10.761 31.738,10.325 31.738,10.325 31.738,10.325 Z M 31.680,10.309 C 31.563,10.745 31.563,10.745 31.563,10.745 31.500,10.728 31.500,10.728 31.500,10.728 31.617,10.292 31.617,10.292 31.617,10.292 Z M 31.561,10.278 C 31.444,10.713 31.444,10.713 31.444,10.713 31.381,10.697 31.381,10.697 31.381,10.697 31.498,10.261 31.498,10.261 31.498,10.261 Z M 31.435,10.244 C 31.318,10.680 31.318,10.680 31.318,10.680 31.256,10.663 31.256,10.663 31.256,10.663 31.373,10.227 31.373,10.227 31.373,10.227 Z M 31.312,10.211 C 31.195,10.647 31.195,10.647 31.195,10.647 31.133,10.630 31.133,10.630 31.133,10.630 31.250,10.194 31.250,10.194 31.250,10.194 Z M 31.194,10.179 C 31.077,10.615 31.077,10.615 31.077,10.615 31.013,10.598 31.013,10.598 31.013,10.598 31.130,10.162 31.130,10.162 31.130,10.162 Z M 31.069,10.146 C 30.952,10.581 30.952,10.581 30.952,10.581 30.889,10.565 30.889,10.565 30.889,10.565 31.006,10.129 31.006,10.129 31.006,10.129 Z M 30.947,10.113 C 30.830,10.549 30.830,10.549 30.830,10.549 30.767,10.532 30.767,10.532 30.767,10.532 30.884,10.096 30.884,10.096 30.884,10.096 Z M 30.828,10.081 C 30.712,10.517 30.712,10.517 30.712,10.517 30.649,10.500 30.649,10.500 30.649,10.500 30.766,10.064 30.766,10.064 30.766,10.064 Z M 30.703,10.048 C 30.586,10.483 30.586,10.483 30.586,10.483 30.523,10.467 30.523,10.467 30.523,10.467 30.640,10.031 30.640,10.031 30.640,10.031 Z M 33.251,10.758 C 33.358,10.787 33.422,10.896 33.392,11.003 33.364,11.110 33.254,11.173 33.148,11.145 33.041,11.116 32.978,11.006 33.006,10.900 33.035,10.793 33.145,10.729 33.251,10.758 Z M 32.345,10.515 C 32.452,10.544 32.515,10.653 32.486,10.761 32.458,10.867 32.348,10.930 32.241,10.902 32.134,10.873 32.071,10.763 32.100,10.657 32.128,10.550 32.238,10.486 32.345,10.515 Z M 30.320,9.973 C 30.426,10.001 30.490,10.111 30.461,10.218 30.433,10.324 30.323,10.388 30.216,10.359 30.109,10.330 30.046,10.221 30.074,10.114 30.103,10.007 30.213,9.944 30.320,9.973 Z M 43.365,14.528 C 43.521,14.570 43.614,14.732 43.573,14.888 43.531,15.043 43.369,15.136 43.213,15.095 43.058,15.053 42.965,14.891 43.006,14.736 43.048,14.580 43.210,14.486 43.365,14.528 Z M 43.314,14.717 C 43.262,14.702 43.210,14.733 43.196,14.787 43.182,14.840 43.211,14.893 43.264,14.907 43.317,14.921 43.370,14.890 43.384,14.837 43.398,14.784 43.368,14.731 43.314,14.717 Z M 37.862,13.365 C 36.372,12.966 36.372,12.966 36.372,12.966 35.699,12.786 35.021,13.177 34.840,13.851 34.731,14.259 34.832,14.669 35.080,14.969 35.209,15.104 35.378,15.234 35.605,15.344 35.644,15.359 35.683,15.371 35.725,15.383 37.225,15.785 37.225,15.785 37.225,15.785 37.898,15.965 38.577,15.573 38.757,14.900 38.784,14.803 38.797,14.705 38.799,14.610 38.348,14.916 37.479,15.334 36.325,15.077 36.327,15.071 36.327,15.071 36.327,15.071 36.318,15.072 36.310,15.073 36.301,15.074 36.284,14.644 36.284,14.644 36.284,14.644 36.854,14.622 37.263,14.268 37.542,13.898 37.693,13.698 37.796,13.505 37.862,13.365 Z M 38.254,13.542 C 38.178,13.705 38.059,13.926 37.886,14.157 37.740,14.350 37.552,14.550 37.324,14.713 38.043,14.641 38.522,14.305 38.722,14.135 38.633,13.896 38.471,13.688 38.254,13.542 Z M 43.775,15.477 C 39.535,14.341 39.535,14.341 39.535,14.341 39.490,14.386 39.490,14.386 39.490,14.386 39.589,14.999 39.589,14.999 39.589,14.999 39.294,15.663 39.294,15.663 39.294,15.663 39.062,15.912 39.062,15.912 39.062,15.912 39.142,16.582 39.142,16.582 39.142,16.582 41.159,22.736 41.159,22.736 41.159,22.736 41.136,22.804 41.136,22.804 41.136,22.804 40.900,23.483 41.048,23.767 41.217,23.932 41.380,24.093 41.586,24.124 41.597,24.126 44.937,23.701 44.937,23.701 44.937,23.701 45.214,23.460 45.214,23.460 45.214,23.460 45.216,23.459 45.216,23.459 45.216,23.459 45.218,23.457 45.218,23.457 45.218,23.457 45.348,23.349 45.407,23.130 45.415,22.917 45.423,22.707 45.389,22.539 45.388,22.533 43.546,16.764 43.546,16.764 43.546,16.764 43.556,16.708 43.556,16.708 43.556,16.708 43.576,16.612 43.601,16.522 43.631,16.439 43.853,15.611 43.853,15.611 43.853,15.611 Z M 39.317,14.283 C 39.197,14.251 39.197,14.251 39.197,14.251 39.246,14.496 39.242,14.754 39.173,15.012 39.092,15.316 38.930,15.576 38.719,15.781 38.754,16.193 38.754,16.193 38.754,16.193 38.817,16.207 38.897,16.224 38.902,16.225 38.857,15.847 38.857,15.847 38.857,15.847 39.127,15.552 39.127,15.552 39.127,15.552 39.385,14.973 39.385,14.973 39.385,14.973 39.282,14.318 39.282,14.318 39.282,14.318 Z M 38.537,15.936 C 38.459,15.993 38.375,16.042 38.289,16.084 38.381,16.106 38.481,16.130 38.554,16.147 Z M 42.026,18.522 C 42.182,18.564 42.276,18.726 42.235,18.881 42.193,19.037 42.029,19.132 41.874,19.090 41.718,19.049 41.625,18.885 41.667,18.729 41.709,18.574 41.870,18.481 42.026,18.522 Z M 41.975,18.712 C 41.922,18.697 41.871,18.727 41.857,18.780 41.842,18.834 41.871,18.886 41.925,18.900 41.978,18.915 42.031,18.884 42.045,18.831 42.059,18.778 42.029,18.726 41.975,18.712 Z " />
</svg>