<?xml version="1.0" encoding="UTF-8" standalone="no"?>
<!DOCTYPE svg PUBLIC "-//W3C//DTD SVG 20010904//EN" "http://www.w3.org/TR/2001/REC-SVG-20010904/DTD/svg10.dtd"[]>
<svg version="1.1" id="Frosty Editor v1.0.6.3" xmlns="http://www.w3.org/2000/svg" d1p1:xlink="http://www.w3.org/1999/xlink" viewBox="0 0 96 96" xmlns:d1p1="xmlns">
  <path stroke="none" fill="none" d="M 0.050,48.050 C 0.050,32.120 0.050,16.190 0.050,0.270 0.050,0.090 0.090,0.050 0.270,0.050 32.130,0.050 63.980,0.050 95.840,0.050 96.020,0.050 96.060,0.090 96.060,0.270 96.060,32.130 96.060,63.980 96.060,95.840 96.060,96.020 96.020,96.060 95.840,96.060 63.980,96.060 32.130,96.060 0.270,96.060 0.090,96.060 0.050,96.020 0.050,95.840 0.050,79.900 0.050,63.980 0.050,48.050 Z M 48.870,76.080 C 56.360,75.640 62.420,73.120 67.440,68.300 72.980,62.970 75.880,56.380 76.060,48.700 76.240,41.000 73.650,34.250 68.320,28.670 62.990,23.090 56.370,20.200 48.660,20.040 40.970,19.880 34.240,22.460 28.680,27.780 23.120,33.100 20.220,39.700 20.050,47.390 19.880,55.090 22.450,61.850 27.800,67.420 33.660,73.540 40.960,76.290 48.870,76.080 Z " />
  <path stroke="none" fill="#fffefefe" d="M 48.870,76.080 C 40.960,76.290 33.660,73.540 27.780,67.420 22.430,61.850 19.860,55.100 20.030,47.390 20.200,39.700 23.100,33.100 28.660,27.780 34.220,22.460 40.960,19.880 48.640,20.040 56.350,20.200 62.970,23.100 68.300,28.670 73.630,34.250 76.220,41.000 76.040,48.700 75.860,56.380 72.970,62.970 67.420,68.300 62.430,73.120 56.370,75.640 48.870,76.080 Z M 62.110,38.730 C 62.110,38.730 62.110,38.730 62.110,38.730 62.110,38.120 62.110,37.510 62.110,36.900 62.110,36.810 62.070,36.760 61.990,36.760 61.640,36.750 61.290,36.780 60.940,36.670 60.740,36.610 60.530,36.700 60.300,36.590 60.110,36.490 59.830,36.540 59.600,36.530 59.250,36.520 58.920,36.430 58.580,36.380 58.090,36.310 57.600,36.230 57.120,36.090 56.770,35.990 56.400,35.950 56.070,35.820 55.780,35.710 55.480,35.670 55.200,35.520 55.000,35.410 54.740,35.410 54.520,35.310 54.360,35.240 54.210,35.120 54.070,35.100 53.780,35.050 53.530,34.910 53.270,34.810 52.810,34.640 52.360,34.430 51.920,34.190 51.430,33.920 50.940,33.650 50.470,33.330 50.190,33.140 49.900,32.940 49.600,32.790 49.440,32.710 49.340,32.560 49.200,32.460 48.970,32.310 48.730,32.150 48.520,31.960 48.380,31.830 48.280,31.600 48.020,31.630 47.800,31.660 47.670,31.840 47.510,31.950 47.320,32.080 47.170,32.260 46.990,32.390 46.650,32.640 46.290,32.880 45.930,33.110 45.350,33.490 44.750,33.850 44.130,34.160 43.440,34.520 42.730,34.820 42.000,35.100 41.580,35.260 41.160,35.440 40.740,35.590 40.290,35.740 39.830,35.900 39.360,36.000 39.120,36.050 38.880,36.110 38.650,36.180 38.250,36.310 37.830,36.310 37.420,36.400 37.190,36.450 36.960,36.570 36.710,36.520 36.630,36.510 36.520,36.450 36.490,36.480 36.270,36.680 35.960,36.450 35.750,36.660 35.210,36.590 34.680,36.780 34.150,36.750 34.010,36.740 34.000,36.800 34.000,36.920 34.060,39.180 33.850,41.460 34.280,43.710 34.390,44.320 34.490,44.930 34.580,45.550 34.650,46.020 34.780,46.470 34.890,46.930 35.000,47.380 35.160,47.820 35.240,48.280 35.300,48.610 35.430,48.920 35.530,49.220 35.740,49.900 36.000,50.570 36.280,51.220 36.490,51.730 36.750,52.210 36.950,52.730 37.040,52.960 37.180,53.180 37.320,53.390 37.450,53.590 37.430,53.870 37.660,54.010 37.680,54.020 37.700,54.050 37.700,54.070 37.750,54.320 37.900,54.530 38.040,54.720 38.360,55.170 38.590,55.670 38.930,56.110 39.260,56.540 39.550,56.990 39.870,57.430 40.020,57.640 40.150,57.880 40.340,58.060 40.600,58.310 40.800,58.620 41.050,58.870 41.240,59.060 41.370,59.300 41.550,59.470 41.810,59.720 42.070,59.970 42.320,60.230 42.650,60.570 43.030,60.860 43.330,61.230 43.340,61.240 43.360,61.240 43.370,61.240 43.560,61.340 43.750,61.470 43.870,61.620 44.090,61.900 44.430,62.030 44.650,62.300 44.730,62.400 44.900,62.430 44.970,62.580 44.980,62.600 45.020,62.620 45.050,62.630 45.320,62.710 45.520,62.910 45.720,63.070 46.040,63.310 46.370,63.530 46.710,63.740 47.020,63.930 47.320,64.130 47.620,64.330 47.850,64.480 48.100,64.530 48.270,64.440 48.570,64.280 48.890,64.130 49.160,63.910 49.510,63.620 49.920,63.410 50.280,63.140 50.610,62.890 50.970,62.650 51.300,62.400 51.760,62.050 52.210,61.680 52.640,61.300 53.050,60.940 53.420,60.530 53.840,60.170 54.060,59.980 54.240,59.750 54.440,59.550 54.640,59.350 54.880,59.160 55.020,58.910 55.210,58.580 55.610,58.450 55.730,58.050 55.770,57.930 55.940,57.810 56.050,57.690 56.270,57.430 56.470,57.140 56.670,56.870 56.770,56.730 56.920,56.630 56.980,56.480 57.050,56.320 57.150,56.200 57.250,56.070 57.400,55.890 57.550,55.680 57.630,55.490 57.730,55.250 57.890,55.060 58.010,54.850 58.190,54.540 58.370,54.220 58.540,53.900 58.680,53.650 58.810,53.360 58.940,53.100 59.150,52.680 59.330,52.250 59.540,51.840 59.790,51.350 59.960,50.820 60.170,50.320 60.210,50.240 60.170,50.150 60.220,50.070 60.420,49.780 60.520,49.430 60.600,49.100 60.660,48.870 60.700,48.610 60.790,48.390 60.930,48.030 60.990,47.650 61.100,47.290 61.230,46.860 61.330,46.410 61.440,45.970 61.500,45.750 61.540,45.510 61.560,45.290 61.590,45.020 61.640,44.740 61.700,44.480 61.840,43.850 61.930,43.200 61.990,42.560 62.060,41.860 62.120,41.140 62.110,40.430 62.110,39.870 62.110,39.300 62.110,38.730 Z M 30.520,36.420 C 30.550,36.260 30.500,36.190 30.320,36.190 30.150,36.190 30.080,36.230 30.080,36.410 30.080,36.580 30.130,36.630 30.300,36.630 30.460,36.620 30.560,36.600 30.520,36.420 Z " />
  <path stroke="none" fill="#fffefefe" d="M 31.910,36.150 C 31.950,36.290 31.880,36.610 31.780,36.710 31.070,36.710 30.370,36.710 29.660,36.710 29.380,36.400 29.460,36.040 29.790,35.820 29.120,36.280 28.820,37.140 29.250,37.870 29.640,38.530 30.630,38.870 31.300,38.410 32.610,37.510 32.850,35.780 31.780,34.590 31.230,33.980 30.220,34.050 29.660,34.590 29.020,35.210 28.800,36.090 29.020,36.950 29.220,37.730 30.090,38.210 30.870,38.000 31.650,37.780 32.110,36.940 31.910,36.150 31.910,36.150 31.910,36.150 31.910,36.150 Z " />
  <path stroke="none" fill="none" d="M 62.110,38.730 C 62.110,39.300 62.110,39.870 62.110,40.430 62.120,41.140 62.060,41.860 61.990,42.560 61.920,43.200 61.840,43.840 61.700,44.480 61.640,44.740 61.590,45.010 61.560,45.290 61.540,45.510 61.490,45.740 61.440,45.970 61.330,46.410 61.230,46.850 61.100,47.290 60.990,47.650 60.930,48.030 60.790,48.390 60.710,48.600 60.660,48.870 60.600,49.100 60.520,49.430 60.420,49.780 60.220,50.070 60.160,50.150 60.200,50.230 60.170,50.320 59.950,50.830 59.780,51.350 59.540,51.840 59.330,52.260 59.150,52.690 58.940,53.100 58.810,53.360 58.680,53.640 58.540,53.900 58.360,54.210 58.190,54.540 58.010,54.850 57.880,55.060 57.730,55.260 57.630,55.490 57.550,55.680 57.400,55.890 57.250,56.070 57.150,56.200 57.040,56.320 56.980,56.480 56.920,56.630 56.770,56.730 56.670,56.870 56.470,57.140 56.270,57.430 56.050,57.690 55.940,57.820 55.770,57.930 55.730,58.050 55.610,58.450 55.210,58.580 55.020,58.910 54.880,59.150 54.650,59.340 54.440,59.550 54.240,59.750 54.060,59.980 53.840,60.170 53.420,60.530 53.050,60.940 52.640,61.300 52.210,61.680 51.760,62.050 51.300,62.400 50.960,62.650 50.610,62.890 50.280,63.140 49.920,63.410 49.510,63.630 49.160,63.910 48.890,64.130 48.570,64.280 48.270,64.440 48.100,64.530 47.840,64.480 47.620,64.330 47.320,64.130 47.020,63.930 46.710,63.740 46.370,63.530 46.040,63.320 45.720,63.070 45.510,62.910 45.310,62.720 45.050,62.630 45.020,62.620 44.980,62.600 44.970,62.580 44.910,62.430 44.740,62.400 44.650,62.300 44.430,62.030 44.090,61.890 43.870,61.620 43.750,61.470 43.560,61.340 43.370,61.240 43.360,61.230 43.330,61.240 43.330,61.230 43.030,60.860 42.650,60.570 42.320,60.230 42.070,59.970 41.810,59.720 41.550,59.470 41.360,59.300 41.230,59.050 41.050,58.870 40.790,58.620 40.600,58.310 40.340,58.060 40.160,57.890 40.030,57.650 39.870,57.430 39.550,56.990 39.250,56.540 38.930,56.110 38.590,55.670 38.360,55.170 38.040,54.720 37.900,54.530 37.750,54.320 37.700,54.070 37.700,54.050 37.680,54.020 37.660,54.010 37.430,53.860 37.450,53.580 37.320,53.390 37.180,53.180 37.040,52.960 36.950,52.730 36.750,52.220 36.490,51.730 36.280,51.220 36.000,50.560 35.740,49.890 35.530,49.220 35.430,48.910 35.310,48.600 35.240,48.280 35.150,47.830 34.990,47.380 34.890,46.930 34.780,46.470 34.650,46.020 34.580,45.550 34.490,44.940 34.390,44.320 34.280,43.710 33.850,41.460 34.060,39.180 34.000,36.920 34.000,36.810 34.010,36.750 34.150,36.750 34.690,36.780 35.210,36.590 35.750,36.660 35.960,36.450 36.270,36.680 36.490,36.480 36.520,36.450 36.630,36.500 36.710,36.520 36.960,36.570 37.190,36.450 37.420,36.400 37.830,36.310 38.250,36.300 38.650,36.180 38.880,36.100 39.120,36.050 39.360,36.000 39.830,35.900 40.290,35.750 40.740,35.590 41.160,35.450 41.580,35.260 42.000,35.100 42.730,34.830 43.440,34.520 44.130,34.160 44.750,33.840 45.350,33.490 45.930,33.110 46.290,32.880 46.640,32.640 46.990,32.390 47.170,32.260 47.330,32.080 47.510,31.950 47.670,31.830 47.790,31.650 48.020,31.630 48.280,31.600 48.380,31.830 48.520,31.960 48.730,32.150 48.970,32.310 49.200,32.460 49.350,32.560 49.440,32.700 49.600,32.790 49.900,32.940 50.190,33.140 50.470,33.330 50.940,33.650 51.430,33.920 51.920,34.190 52.350,34.430 52.800,34.640 53.270,34.810 53.530,34.910 53.780,35.050 54.070,35.100 54.220,35.130 54.370,35.240 54.520,35.310 54.740,35.410 54.990,35.410 55.200,35.520 55.480,35.670 55.780,35.710 56.070,35.820 56.400,35.950 56.770,35.990 57.120,36.090 57.600,36.230 58.090,36.310 58.580,36.380 58.920,36.430 59.240,36.520 59.600,36.530 59.830,36.530 60.110,36.490 60.300,36.590 60.520,36.710 60.740,36.610 60.940,36.670 61.290,36.780 61.640,36.760 61.990,36.760 62.080,36.760 62.110,36.810 62.110,36.900 62.110,37.520 62.110,38.130 62.110,38.730 62.110,38.730 62.110,38.730 62.110,38.730 Z " />
</svg>