<?xml version="1.0" encoding="UTF-8" standalone="no"?>
<!DOCTYPE svg PUBLIC "-//W3C//DTD SVG 20010904//EN" "http://www.w3.org/TR/2001/REC-SVG-20010904/DTD/svg10.dtd"[]>
<svg version="1.1" id="Frosty Editor v1.0.6.3" xmlns="http://www.w3.org/2000/svg" d1p1:xlink="http://www.w3.org/1999/xlink" viewBox="0 0 96 96" xmlns:d1p1="xmlns">
  <path stroke="none" fill="#ffffffff" d="M 54.000,14.400 C 49.333,21.433 44.667,28.467 40.000,35.500 38.000,34.900 35.800,34.600 33.600,34.600 20.600,34.600 10.100,45.100 10.100,58.100 10.100,71.100 20.600,81.600 33.600,81.600 44.300,81.600 53.399,74.400 56.199,64.500 64.532,64.100 72.866,63.701 81.199,63.301 83.301,59.100 83.301,59.100 83.301,59.100 74.334,60.733 65.367,62.367 56.400,64.000 56.900,62.100 57.199,60.100 57.199,58.100 57.199,57.500 57.200,56.799 57.100,56.199 85.900,48.699 85.900,48.699 85.900,48.699 85.900,44.199 85.900,44.199 85.900,44.199 76.267,48.099 66.633,52.000 57.000,55.900 56.700,52.700 55.699,49.600 54.199,46.900 63.832,42.333 73.467,37.766 83.100,33.199 82.333,31.799 81.568,30.400 80.801,29.000 71.901,34.833 63.000,40.667 54.100,46.500 52.600,43.900 50.700,41.601 48.400,39.801 56.567,33.601 64.733,27.399 72.900,21.199 71.700,20.432 70.501,19.667 69.301,18.900 48.000,39.600 48.000,39.600 48.000,39.600 45.800,37.900 43.200,36.499 40.500,35.699 46.567,28.732 52.632,21.768 58.699,14.801 57.132,14.668 55.567,14.533 54.000,14.400 Z M 30.221,38.604 C 32.043,39.122 33.738,40.016 35.193,41.229 35.611,41.814 35.611,41.814 35.611,41.814 37.259,43.449 39.018,46.606 38.977,48.701 39.115,51.011 38.514,53.305 37.260,55.250 34.369,60.306 37.482,62.051 39.717,61.660 42.622,61.143 44.537,56.786 42.889,52.107 42.414,50.614 41.716,49.203 40.820,47.918 42.038,48.664 43.125,49.608 44.033,50.711 46.294,53.673 47.468,57.322 47.357,61.047 47.229,67.145 43.157,72.453 37.301,74.160 36.012,74.561 34.669,74.765 33.320,74.762 33.223,74.762 33.223,74.762 33.223,74.762 29.550,74.819 26.012,73.385 23.414,70.787 20.816,68.189 19.382,64.650 19.439,60.977 19.495,59.358 19.859,57.765 20.514,56.283 21.279,54.311 22.483,52.540 24.033,51.102 24.452,50.697 24.857,50.333 25.137,50.082 25.244,49.980 25.351,49.877 25.459,49.775 25.497,49.743 25.533,49.710 25.570,49.678 25.570,49.678 25.248,50.335 24.969,50.754 24.931,50.810 24.895,50.864 24.857,50.920 24.480,51.666 24.276,52.487 24.258,53.322 24.311,53.906 24.643,54.425 25.150,54.719 26.393,55.236 28.489,54.483 30.123,52.793 30.717,52.139 31.223,51.410 31.631,50.627 31.850,50.179 32.029,49.711 32.162,49.230 32.429,48.277 32.628,47.307 32.762,46.326 32.794,43.867 32.230,41.435 31.115,39.244 30.855,38.982 30.553,38.767 30.221,38.604 Z " />
</svg>