<?xml version="1.0" encoding="UTF-8" standalone="no"?>
<!DOCTYPE svg PUBLIC "-//W3C//DTD SVG 20010904//EN" "http://www.w3.org/TR/2001/REC-SVG-20010904/DTD/svg10.dtd"[]>
<svg version="1.1" id="Frosty Editor v1.0.6.3" xmlns="http://www.w3.org/2000/svg" d1p1:xlink="http://www.w3.org/1999/xlink" viewBox="0 0 96 96" xmlns:d1p1="xmlns">
  <path stroke="none" fill="none" d="M 45.500,37.000 C 47.167,37.000 48.833,37.000 50.500,37.000 50.500,41.000 50.500,45.000 50.500,49.000 48.833,49.000 47.167,49.000 45.500,49.000 45.500,45.000 45.500,41.000 45.500,37.000 Z M 52.500,51.000 C 52.500,45.667 52.500,40.333 52.500,35.000 49.500,35.000 46.500,35.000 43.500,35.000 43.500,40.333 43.500,45.667 43.500,51.000 46.500,51.000 49.500,51.000 52.500,51.000 52.500,51.000 52.500,51.000 52.500,51.000 Z " />
  <path stroke="none" fill="none" d="M 50.780,29.790 C 50.780,31.519 49.379,32.920 47.650,32.920 45.921,32.920 44.520,31.519 44.520,29.790 44.520,28.061 45.921,26.660 47.650,26.660 49.379,26.660 50.780,28.061 50.780,29.790 50.780,29.790 50.780,29.790 50.780,29.790 Z " />
  <path stroke="none" fill="none" d="M 68.160,60.220 C 68.801,61.140 69.300,62.151 69.640,63.220 70.820,66.560 69.450,69.690 67.370,70.060 65.770,70.340 63.540,69.060 65.610,65.470 66.508,64.077 66.939,62.434 66.840,60.780 66.840,59.270 65.620,57.020 64.430,55.850 64.330,55.710 64.230,55.570 64.130,55.430 63.088,54.562 61.875,53.921 60.570,53.550 60.808,53.667 61.024,53.822 61.210,54.010 62.015,55.592 62.420,57.346 62.390,59.120 62.305,59.805 62.175,60.483 62.000,61.150 61.905,61.494 61.777,61.829 61.620,62.150 61.328,62.711 60.965,63.232 60.540,63.700 59.370,64.900 57.880,65.450 56.980,65.080 56.617,64.870 56.378,64.498 56.340,64.080 56.353,63.482 56.500,62.894 56.770,62.360 56.797,62.320 56.823,62.280 56.850,62.240 57.050,61.940 57.280,61.470 57.280,61.470 57.253,61.493 57.227,61.517 57.200,61.540 57.200,61.540 57.200,61.540 57.200,61.540 57.123,61.613 57.047,61.687 56.970,61.760 56.770,61.940 56.480,62.200 56.180,62.490 55.070,63.520 54.208,64.788 53.660,66.200 53.191,67.261 52.930,68.401 52.890,69.560 52.849,72.190 53.876,74.724 55.736,76.584 57.596,78.444 60.130,79.471 62.760,79.430 62.783,79.430 62.807,79.430 62.830,79.430 63.786,79.429 64.737,79.284 65.650,79.000 69.849,77.766 72.758,73.946 72.830,69.570 72.909,66.903 72.069,64.291 70.450,62.170 69.799,61.399 69.025,60.740 68.160,60.220 68.160,60.220 68.160,60.220 68.160,60.220 Z " />
  <path stroke="none" fill="#ffffffff" d="M 65.650,79.000 C 64.727,79.287 63.766,79.432 62.800,79.430 62.777,79.430 62.753,79.430 62.730,79.430 60.100,79.471 57.566,78.444 55.706,76.584 53.846,74.724 52.819,72.190 52.860,69.560 52.900,68.401 53.161,67.261 53.630,66.200 54.178,64.788 55.040,63.520 56.150,62.490 56.450,62.200 56.740,61.940 56.940,61.760 57.017,61.687 57.093,61.613 57.170,61.540 57.170,61.540 57.170,61.540 57.170,61.540 57.197,61.517 57.223,61.493 57.250,61.470 57.250,61.470 57.020,61.940 56.820,62.240 56.793,62.280 56.767,62.320 56.740,62.360 56.470,62.894 56.323,63.482 56.310,64.080 56.348,64.498 56.587,64.870 56.950,65.080 57.840,65.450 59.340,64.910 60.510,63.700 60.935,63.232 61.298,62.711 61.590,62.150 61.747,61.829 61.875,61.494 61.970,61.150 62.161,60.467 62.304,59.772 62.400,59.070 62.423,57.309 62.018,55.569 61.220,54.000 61.034,53.812 60.818,53.657 60.580,53.540 61.885,53.911 63.098,54.552 64.140,55.420 64.240,55.560 64.340,55.700 64.440,55.840 65.620,57.010 66.880,59.270 66.850,60.770 66.949,62.424 66.518,64.067 65.620,65.460 63.550,69.080 65.780,70.330 67.380,70.050 69.460,69.680 70.830,66.560 69.650,63.210 69.310,62.141 68.811,61.130 68.170,60.210 69.042,60.744 69.820,61.420 70.470,62.210 72.089,64.331 72.929,66.943 72.850,69.610 72.758,73.976 69.843,77.778 65.650,79.000 65.650,79.000 65.650,79.000 65.650,79.000 Z M 63.000,51.500 C 56.529,51.500 50.694,55.398 48.218,61.377 45.741,67.356 47.110,74.238 51.686,78.814 56.262,83.390 63.144,84.759 69.123,82.282 75.102,79.806 79.000,73.971 79.000,67.500 79.000,63.257 77.314,59.187 74.314,56.186 71.313,53.186 67.243,51.500 63.000,51.500 63.000,51.500 63.000,51.500 63.000,51.500 Z " />
  <path stroke="none" fill="#ffffffff" d="M 61.500,21.580 C 60.617,19.387 59.733,17.193 58.850,15.000 51.283,15.000 43.717,15.000 36.150,15.000 35.267,17.193 34.383,19.387 33.500,21.580 33.500,21.720 33.500,21.860 33.500,22.000 42.833,22.000 52.167,22.000 61.500,22.000 61.500,21.860 61.500,21.720 61.500,21.580 61.500,21.580 61.500,21.580 61.500,21.580 Z " />
  <path stroke="none" fill="#ffffffff" d="M 45.500,37.000 C 47.167,37.000 48.833,37.000 50.500,37.000 50.500,41.000 50.500,45.000 50.500,49.000 48.833,49.000 47.167,49.000 45.500,49.000 45.500,45.000 45.500,41.000 45.500,37.000 Z " />
  <path stroke="none" fill="#ffffffff" d="M 44.340,71.000 C 43.393,71.000 42.447,71.000 41.500,71.000 41.500,69.667 41.500,68.333 41.500,67.000 38.833,67.000 36.167,67.000 33.500,67.000 33.500,69.000 33.500,71.000 33.500,73.000 37.273,73.000 41.047,73.000 44.820,73.000 44.624,72.343 44.463,71.675 44.340,71.000 44.340,71.000 44.340,71.000 44.340,71.000 Z " />
  <path stroke="none" fill="#ffffffff" d="M 33.840,75.000 C 34.610,76.667 35.380,78.333 36.150,80.000 40.343,80.000 44.537,80.000 48.730,80.000 47.415,78.510 46.342,76.823 45.550,75.000 41.647,75.000 37.743,75.000 33.840,75.000 Z " />
  <path stroke="none" fill="#ffffffff" d="M 43.500,35.000 C 46.500,35.000 49.500,35.000 52.500,35.000 52.500,40.333 52.500,45.667 52.500,51.000 49.500,51.000 46.500,51.000 43.500,51.000 43.500,45.667 43.500,40.333 43.500,35.000 Z M 47.650,26.670 C 48.917,26.666 50.061,27.426 50.549,28.595 51.036,29.765 50.771,31.112 49.877,32.010 48.982,32.907 47.635,33.177 46.465,32.693 45.294,32.209 44.530,31.067 44.530,29.800 44.530,28.075 45.925,26.676 47.650,26.670 47.650,26.670 47.650,26.670 47.650,26.670 Z M 43.500,69.000 C 43.693,69.000 43.887,69.000 44.080,69.000 44.080,68.500 44.000,68.000 44.000,67.500 43.997,63.762 45.104,60.108 47.180,57.000 47.287,56.850 47.393,56.700 47.500,56.550 49.072,54.304 51.121,52.433 53.500,51.070 55.946,49.650 58.680,48.799 61.500,48.580 61.500,40.387 61.500,32.193 61.500,24.000 52.167,24.000 42.833,24.000 33.500,24.000 33.500,37.667 33.500,51.333 33.500,65.000 36.833,65.000 40.167,65.000 43.500,65.000 43.500,66.333 43.500,67.667 43.500,69.000 Z " />
</svg>