<?xml version="1.0" encoding="UTF-8" standalone="no"?>
<!DOCTYPE svg PUBLIC "-//W3C//DTD SVG 20010904//EN" "http://www.w3.org/TR/2001/REC-SVG-20010904/DTD/svg10.dtd"[]>
<svg version="1.1" id="Frosty Editor v1.0.6.3" xmlns="http://www.w3.org/2000/svg" d1p1:xlink="http://www.w3.org/1999/xlink" viewBox="0 0 384 96" xmlns:d1p1="xmlns">
  <path stroke="none" fill="#ffffffff" d="M 83.800,25.900 C 83.800,25.900 83.800,25.800 83.800,25.700 84.967,25.700 86.133,25.700 87.300,25.700 87.300,31.467 87.300,37.233 87.300,43.000 86.867,43.000 86.433,43.000 86.000,43.000 85.400,43.000 84.800,43.000 84.500,43.000 84.100,43.000 83.800,42.700 83.800,42.300 83.800,42.300 83.800,42.300 83.800,42.300 83.800,36.833 83.800,31.367 83.800,25.900 83.800,25.900 83.800,25.900 83.800,25.900 Z M 54.800,58.200 C 54.700,58.200 54.600,58.200 54.500,58.200 54.333,58.200 54.167,58.200 54.000,58.200 54.300,57.300 54.900,55.600 55.300,54.000 55.200,54.600 55.100,55.200 55.100,55.700 54.800,57.700 54.800,58.000 54.800,58.200 54.800,58.200 54.800,58.200 54.800,58.200 54.800,58.200 54.800,58.200 54.800,58.200 Z M 81.600,40.800 C 81.600,41.200 81.500,41.700 81.300,41.700 80.367,41.700 79.433,41.700 78.500,41.700 78.667,42.133 78.833,42.567 79.000,43.000 79.600,44.500 80.900,47.800 81.400,48.700 80.400,48.500 78.200,48.200 76.700,48.000 74.800,45.900 72.900,43.800 71.000,41.700 68.400,41.700 65.800,41.700 63.200,41.700 62.600,42.000 62.000,42.300 61.400,42.600 61.200,43.167 61.000,43.733 60.800,44.300 60.467,44.500 60.133,44.700 59.800,44.900 59.800,45.300 59.800,45.700 59.800,46.100 59.733,46.133 59.667,46.167 59.600,46.200 59.167,45.933 58.733,45.667 58.300,45.400 57.400,45.933 56.500,46.467 55.600,47.000 55.533,47.233 55.467,47.467 55.400,47.700 55.000,48.500 54.700,49.400 54.500,50.200 54.500,50.400 54.400,50.500 54.400,50.700 54.333,50.800 54.267,50.900 54.200,51.000 53.200,54.400 52.300,57.400 52.100,57.800 52.000,58.000 51.800,58.100 51.600,58.200 51.600,58.200 51.600,58.200 51.600,58.200 51.067,58.400 50.533,58.600 50.000,58.800 49.333,58.933 48.667,59.067 48.000,59.200 47.933,59.200 47.867,59.200 47.800,59.200 47.667,58.933 47.533,58.667 47.400,58.400 46.567,58.400 45.733,58.400 44.900,58.400 44.500,58.300 44.200,58.000 44.000,57.600 43.800,57.100 43.400,55.400 43.200,54.900 43.000,49.300 42.800,43.700 42.600,38.100 42.300,37.967 42.000,37.833 41.700,37.700 41.533,36.267 41.367,34.833 41.200,33.400 41.300,31.500 41.400,29.600 41.500,27.700 41.767,27.700 42.033,27.700 42.300,27.700 42.367,27.467 42.433,27.233 42.500,27.000 42.767,26.967 43.033,26.933 43.300,26.900 45.333,26.900 47.367,26.900 49.400,26.900 49.400,27.167 49.400,27.433 49.400,27.700 60.200,27.700 71.000,27.700 81.800,27.700 81.700,32.700 81.600,40.300 81.600,40.800 81.600,40.800 81.600,40.800 81.600,40.800 Z M 235.900,59.500 C 235.400,58.800 234.600,58.300 233.700,58.200 233.000,58.200 232.300,58.600 231.900,59.200 231.800,59.300 231.800,59.400 231.700,59.500 231.700,59.467 231.700,59.433 231.700,59.400 231.300,58.700 230.500,58.200 229.600,58.100 228.900,58.100 228.200,58.500 227.800,59.100 227.700,59.200 227.600,59.400 227.500,59.500 227.467,59.433 227.433,59.367 227.400,59.300 227.000,58.600 226.300,58.200 225.600,58.200 224.700,58.200 223.900,58.600 223.400,59.300 223.333,59.367 223.267,59.433 223.200,59.500 223.167,59.467 223.133,59.433 223.100,59.400 222.800,58.700 222.100,58.200 221.400,58.100 220.700,58.100 220.000,58.300 219.600,58.900 219.400,59.100 219.200,59.300 219.100,59.400 219.033,59.467 218.967,59.533 218.900,59.600 218.867,59.533 218.833,59.467 218.800,59.400 218.400,58.600 217.700,58.100 216.800,58.100 216.300,58.100 215.700,58.300 215.300,58.700 215.300,58.000 215.300,57.300 215.300,56.600 224.633,56.600 233.967,56.600 243.300,56.600 243.300,57.233 243.300,57.867 243.300,58.500 243.000,58.300 242.600,58.100 242.100,58.100 241.200,58.100 240.400,58.700 240.100,59.500 240.100,59.600 240.000,59.700 239.900,59.800 239.800,59.700 239.800,59.600 239.700,59.500 239.400,58.700 238.600,58.100 237.700,58.000 237.733,58.000 237.767,58.000 237.800,58.000 236.900,58.100 236.200,58.600 235.800,59.400 235.833,59.433 235.867,59.467 235.900,59.500 235.900,59.500 235.900,59.500 235.900,59.500 Z M 142.800,52.200 C 142.800,49.033 142.800,45.867 142.800,42.700 148.633,42.700 154.467,42.700 160.300,42.700 160.300,45.300 160.300,47.900 160.300,50.500 159.733,51.067 159.167,51.633 158.600,52.200 153.333,52.200 148.067,52.200 142.800,52.200 142.800,52.200 142.800,52.200 142.800,52.200 Z M 81.100,89.500 C 81.700,89.200 82.300,88.900 82.800,88.400 83.200,87.900 83.600,87.300 83.700,86.700 83.800,86.400 83.900,86.000 84.200,85.800 84.700,85.400 85.200,85.100 85.800,84.900 86.300,84.700 86.700,84.500 87.000,84.100 87.400,83.600 87.700,83.000 87.800,82.400 88.867,83.433 89.933,84.467 91.000,85.500 90.500,85.700 90.100,86.100 89.700,86.400 89.400,86.700 89.200,87.100 89.000,87.500 88.800,88.000 88.600,88.400 88.200,88.800 87.700,89.200 87.100,89.600 86.500,89.800 86.200,89.900 85.800,90.100 85.500,90.300 85.300,90.400 84.900,90.700 83.900,92.500 82.967,91.500 82.033,90.500 81.100,89.500 81.100,89.500 81.100,89.500 81.100,89.500 Z M 88.900,80.000 C 89.567,80.933 90.233,81.867 90.900,82.800 90.100,82.033 89.300,81.267 88.500,80.500 88.633,80.333 88.767,80.167 88.900,80.000 88.900,80.000 88.900,80.000 88.900,80.000 Z M 255.400,27.400 C 255.400,30.000 255.400,32.600 255.400,35.200 247.800,35.200 240.200,35.200 232.600,35.200 232.600,32.600 232.600,30.000 232.600,27.400 240.200,27.400 247.800,27.400 255.400,27.400 255.400,27.400 255.400,27.400 255.400,27.400 Z M 255.400,37.700 C 255.400,37.733 255.400,37.767 255.400,37.800 247.800,37.800 240.200,37.800 232.600,37.800 232.600,37.767 232.600,37.733 232.600,37.700 240.200,37.700 247.800,37.700 255.400,37.700 255.400,37.700 255.400,37.700 255.400,37.700 Z M 240.900,48.600 C 241.500,48.600 242.100,48.500 242.600,48.300 243.600,47.700 244.500,46.900 245.300,46.100 245.500,45.900 245.700,45.600 246.000,45.400 246.700,44.600 247.500,43.800 248.400,43.200 249.600,42.500 250.800,41.900 252.200,41.400 252.200,43.733 252.200,46.067 252.200,48.400 250.867,49.733 249.533,51.067 248.200,52.400 248.200,52.100 248.200,51.800 248.200,51.500 245.800,51.500 243.400,51.500 241.000,51.500 241.000,50.533 241.000,49.567 241.000,48.600 240.967,48.600 240.933,48.600 240.900,48.600 Z M 236.900,51.600 C 236.900,50.533 236.900,49.467 236.900,48.400 237.600,48.400 238.300,48.400 239.000,48.400 239.000,49.467 239.000,50.533 239.000,51.600 238.300,51.600 237.600,51.600 236.900,51.600 236.900,51.600 236.900,51.600 236.900,51.600 Z M 221.000,48.400 C 221.000,49.467 221.000,50.533 221.000,51.600 220.333,51.600 219.667,51.600 219.000,51.600 219.000,50.533 219.000,49.467 219.000,48.400 219.667,48.400 220.333,48.400 221.000,48.400 221.000,48.400 221.000,48.400 221.000,48.400 Z M 235.000,48.800 C 235.000,49.700 235.000,50.600 235.000,51.500 230.967,51.433 226.933,51.367 222.900,51.300 222.900,50.433 222.900,49.567 222.900,48.700 226.933,48.700 230.967,48.700 235.000,48.700 235.000,48.733 235.000,48.767 235.000,48.800 Z M 219.000,40.300 C 219.000,40.800 219.000,41.300 219.000,41.800 219.000,43.300 220.300,44.600 221.800,44.600 221.900,44.600 221.900,44.600 222.000,44.600 223.100,44.700 224.200,44.100 224.800,43.200 226.400,43.200 228.000,43.200 229.600,43.200 230.633,42.633 231.667,42.067 232.700,41.500 232.700,40.900 232.700,40.300 232.700,39.700 238.933,39.700 245.167,39.700 251.400,39.700 250.000,40.200 248.600,40.800 247.400,41.600 246.300,42.300 245.400,43.200 244.600,44.100 244.400,44.300 244.200,44.500 244.000,44.700 243.300,45.400 242.600,46.000 241.900,46.500 241.600,46.600 241.300,46.600 241.000,46.600 241.000,46.533 241.000,46.467 241.000,46.400 239.000,46.400 237.000,46.400 235.000,46.400 235.000,46.533 235.000,46.667 235.000,46.800 230.967,46.800 226.933,46.800 222.900,46.800 222.900,46.667 222.900,46.533 222.900,46.400 220.967,46.400 219.033,46.400 217.100,46.400 217.100,46.533 217.100,46.667 217.100,46.800 216.700,46.800 216.300,46.600 216.000,46.300 215.700,46.100 215.400,45.800 215.100,45.600 214.800,45.300 214.400,45.000 214.000,44.700 213.700,44.500 213.000,44.000 212.500,43.500 212.000,43.000 211.600,42.700 211.200,42.500 210.100,41.700 208.800,41.000 207.500,40.500 207.000,40.400 206.600,40.200 206.100,40.100 210.400,40.100 214.700,40.100 219.000,40.100 219.000,40.167 219.000,40.233 219.000,40.300 Z M 168.700,27.000 C 171.700,27.000 186.500,27.000 196.600,27.000 205.000,27.000 206.300,27.000 206.400,27.000 206.400,26.933 206.400,26.867 206.400,26.800 214.500,26.800 222.600,26.800 230.700,26.800 230.700,30.667 230.700,34.533 230.700,38.400 210.033,38.400 189.367,38.400 168.700,38.400 168.700,34.600 168.700,30.800 168.700,27.000 168.700,27.000 168.700,27.000 168.700,27.000 Z M 166.800,32.600 C 166.533,32.600 166.267,32.600 166.000,32.600 166.000,30.733 166.000,28.867 166.000,27.000 166.233,27.000 166.467,27.000 166.700,27.000 166.733,28.867 166.767,30.733 166.800,32.600 166.800,32.600 166.800,32.600 166.800,32.600 Z M 208.300,11.300 C 208.667,10.933 209.033,10.567 209.400,10.200 209.700,10.300 210.000,10.300 210.300,10.500 210.400,10.600 210.600,10.700 210.700,10.900 210.900,11.100 211.100,11.300 211.300,11.600 211.700,12.000 215.700,17.800 219.500,23.200 218.200,23.800 216.900,24.400 215.600,25.000 213.033,25.000 210.467,25.000 207.900,25.000 207.900,24.733 207.900,24.467 207.900,24.200 206.700,23.600 205.500,23.000 204.300,22.400 204.200,22.367 204.100,22.333 204.000,22.300 198.400,22.300 192.800,22.300 187.200,22.300 187.200,22.033 187.200,21.767 187.200,21.500 186.133,21.067 185.067,20.633 184.000,20.200 183.933,20.167 183.867,20.133 183.800,20.100 179.533,20.100 175.267,20.100 171.000,20.100 170.733,19.567 170.467,19.033 170.200,18.500 169.133,18.500 168.067,18.500 167.000,18.500 167.000,20.667 167.000,22.833 167.000,25.000 166.933,25.000 166.867,25.000 166.800,25.000 166.800,25.067 166.800,25.133 166.800,25.200 166.533,25.200 166.267,25.200 166.000,25.200 166.000,22.900 166.000,20.600 166.000,18.300 162.667,18.300 159.333,18.300 156.000,18.300 156.000,18.767 156.000,19.233 156.000,19.700 150.533,19.700 145.067,19.700 139.600,19.700 139.400,19.700 139.300,19.700 139.100,19.600 139.200,19.300 139.300,19.000 139.500,18.700 139.833,18.200 140.167,17.700 140.500,17.200 141.800,15.400 143.500,13.000 144.100,12.200 144.300,11.900 144.500,11.600 144.700,11.300 145.300,10.300 145.600,9.900 146.600,9.900 159.733,9.900 172.867,9.900 186.000,9.900 186.433,10.333 186.867,10.767 187.300,11.200 194.300,11.233 201.300,11.267 208.300,11.300 208.300,11.300 208.300,11.300 208.300,11.300 Z M 221.000,22.200 C 218.700,18.900 213.000,10.800 212.500,10.200 212.300,10.000 212.100,9.800 212.000,9.600 211.700,9.300 211.400,9.000 211.000,8.800 210.700,8.700 210.400,8.600 210.100,8.500 210.100,7.267 210.100,6.033 210.100,4.800 210.300,4.800 210.500,4.800 210.700,4.800 211.200,4.700 211.700,4.800 212.100,5.100 212.400,5.400 214.500,8.200 216.400,10.800 218.300,13.600 220.200,16.400 222.100,19.200 222.567,19.833 223.033,20.467 223.500,21.100 222.667,21.467 221.833,21.833 221.000,22.200 221.000,22.200 221.000,22.200 221.000,22.200 Z M 183.300,21.900 C 183.900,22.167 184.500,22.433 185.100,22.700 185.100,23.200 185.100,23.700 185.100,24.200 191.233,24.200 197.367,24.200 203.500,24.200 203.967,24.433 204.433,24.667 204.900,24.900 192.867,24.900 180.833,24.900 168.800,24.900 168.800,23.367 168.800,21.833 168.800,20.300 168.867,20.300 168.933,20.300 169.000,20.300 169.267,20.833 169.533,21.367 169.800,21.900 174.300,21.900 178.800,21.900 183.300,21.900 183.300,21.900 183.300,21.900 183.300,21.900 Z M 223.300,41.300 C 223.267,41.500 223.233,41.700 223.200,41.900 223.200,41.900 223.100,42.700 221.900,42.700 221.000,42.700 220.800,42.200 220.800,41.800 220.800,41.300 220.800,40.800 220.800,40.300 224.067,40.300 227.333,40.300 230.600,40.300 230.033,40.600 229.467,40.900 228.900,41.200 227.033,41.233 225.167,41.267 223.300,41.300 223.300,41.300 223.300,41.300 223.300,41.300 Z M 220.200,24.800 C 222.033,23.967 223.867,23.133 225.700,22.300 226.433,22.833 227.167,23.367 227.900,23.900 227.900,24.167 227.900,24.433 227.900,24.700 225.333,24.733 222.767,24.767 220.200,24.800 220.200,24.800 220.200,24.800 220.200,24.800 Z M 207.800,3.200 C 207.867,3.267 207.933,3.333 208.000,3.400 208.000,5.200 208.000,7.000 208.000,8.800 207.800,9.000 207.600,9.200 207.400,9.400 200.967,9.400 194.533,9.400 188.100,9.400 187.967,9.267 187.833,9.133 187.700,9.000 187.700,7.233 187.700,5.467 187.700,3.700 187.867,3.533 188.033,3.367 188.200,3.200 194.733,3.200 201.267,3.200 207.800,3.200 207.800,3.200 207.800,3.200 207.800,3.200 Z M 161.300,32.600 C 161.300,32.933 161.300,33.267 161.300,33.600 150.533,33.600 139.767,33.600 129.000,33.600 129.000,31.333 129.000,29.067 129.000,26.800 129.067,26.567 129.133,26.333 129.200,26.100 133.567,19.500 137.933,12.900 142.300,6.300 142.800,5.500 143.200,4.900 146.200,4.900 159.300,4.833 172.400,4.767 185.500,4.700 185.567,4.700 185.633,4.700 185.700,4.700 185.700,5.833 185.700,6.967 185.700,8.100 172.667,8.100 159.633,8.100 146.600,8.100 145.100,8.100 143.700,9.000 143.100,10.400 143.000,10.600 142.800,10.900 142.700,11.100 142.100,11.900 140.300,14.400 139.000,16.200 138.667,16.667 138.333,17.133 138.000,17.600 137.000,19.000 137.100,19.900 137.400,20.500 137.800,21.300 138.700,21.700 139.600,21.600 145.733,21.600 151.867,21.600 158.000,21.600 158.000,21.133 158.000,20.667 158.000,20.200 160.067,20.200 162.133,20.200 164.200,20.200 164.200,24.367 164.200,28.533 164.200,32.700 163.233,32.667 162.267,32.633 161.300,32.600 161.300,32.600 161.300,32.600 161.300,32.600 Z M 121.500,45.800 C 121.133,45.567 120.767,45.333 120.400,45.100 121.900,43.667 123.400,42.233 124.900,40.800 127.767,40.800 130.633,40.800 133.500,40.800 133.567,41.600 133.633,42.400 133.700,43.200 133.967,44.967 134.233,46.733 134.500,48.500 134.533,48.667 134.567,48.833 134.600,49.000 131.700,50.667 128.800,52.333 125.900,54.000 123.633,51.900 121.367,49.800 119.100,47.700 119.900,47.067 120.700,46.433 121.500,45.800 121.500,45.800 121.500,45.800 121.500,45.800 Z M 133.900,37.600 C 133.800,37.600 133.700,37.600 133.600,37.600 133.600,37.867 133.600,38.133 133.600,38.400 133.600,38.400 133.600,38.600 133.600,38.900 131.133,38.900 128.667,38.900 126.200,38.900 126.533,38.567 126.867,38.233 127.200,37.900 127.200,37.333 127.200,36.767 127.200,36.200 127.433,35.967 127.667,35.733 127.900,35.500 139.067,35.500 150.233,35.500 161.400,35.500 161.400,36.633 161.400,37.767 161.400,38.900 155.067,38.933 148.733,38.967 142.400,39.000 142.400,38.533 142.400,38.067 142.400,37.600 139.567,37.600 136.733,37.600 133.900,37.600 133.900,37.600 133.900,37.600 133.900,37.600 Z M 102.000,45.100 C 101.100,45.100 92.000,45.300 90.200,45.300 90.133,45.267 90.067,45.233 90.000,45.200 90.000,37.467 90.000,29.733 90.000,22.000 90.867,21.500 91.733,21.000 92.600,20.500 102.133,20.500 111.667,20.500 121.200,20.500 122.433,21.033 123.667,21.567 124.900,22.100 125.033,27.100 125.167,32.100 125.300,37.100 121.733,40.667 118.167,44.233 114.600,47.800 112.000,47.800 109.400,47.800 106.800,47.800 106.300,47.200 105.900,46.600 105.300,46.000 105.300,46.000 105.300,46.000 105.300,46.000 104.500,45.100 103.100,45.100 102.000,45.100 102.000,45.100 102.000,45.100 102.000,45.100 102.000,45.100 102.000,45.100 102.000,45.100 Z M 121.000,58.700 C 118.567,56.300 116.133,53.900 113.700,51.500 114.733,50.467 115.767,49.433 116.800,48.400 119.233,50.800 121.667,53.200 124.100,55.600 123.067,56.633 122.033,57.667 121.000,58.700 121.000,58.700 121.000,58.700 121.000,58.700 Z M 111.900,53.300 C 115.600,56.900 119.300,60.500 123.000,64.100 121.467,65.633 119.933,67.167 118.400,68.700 117.833,68.967 117.267,69.233 116.700,69.500 115.600,69.800 114.500,70.200 113.500,70.800 113.500,70.800 113.500,70.800 113.500,70.800 113.000,71.300 112.500,71.800 112.000,72.400 111.500,73.100 110.900,73.700 110.300,74.200 109.300,74.900 108.500,75.800 107.900,76.900 107.600,77.400 107.300,77.900 107.100,78.500 106.800,79.300 106.400,80.000 105.900,80.700 105.600,81.100 105.200,81.400 104.700,81.700 103.900,82.200 103.200,82.900 102.700,83.700 102.100,85.300 101.800,86.900 101.800,88.600 101.800,88.700 101.800,88.700 101.800,88.700 101.767,88.700 101.733,88.700 101.700,88.700 101.400,88.900 101.100,89.100 100.800,89.300 99.900,89.000 99.000,88.600 98.200,88.100 97.700,87.600 95.700,85.800 94.800,84.900 93.133,82.600 91.467,80.300 89.800,78.000 89.600,77.633 89.400,77.267 89.200,76.900 89.700,75.400 90.500,74.100 91.500,73.000 93.200,71.200 95.000,69.500 96.800,67.800 96.900,67.733 97.000,67.667 97.100,67.600 98.200,66.700 99.300,65.900 100.400,65.100 101.900,64.100 103.300,63.000 104.600,61.800 105.400,60.700 106.200,59.400 106.700,58.100 107.100,57.200 107.500,56.400 108.000,55.600 108.800,54.500 109.800,53.500 110.800,52.600 111.167,52.833 111.533,53.067 111.900,53.300 111.900,53.300 111.900,53.300 111.900,53.300 Z M 120.300,69.600 C 120.400,69.633 120.500,69.667 120.600,69.700 120.733,69.700 120.867,69.700 121.000,69.700 121.533,69.867 122.067,70.033 122.600,70.200 123.200,69.600 123.800,69.000 124.400,68.400 124.300,67.967 124.200,67.533 124.100,67.100 124.167,66.833 124.233,66.567 124.300,66.300 124.167,66.167 124.033,66.033 123.900,65.900 124.200,65.600 124.500,65.300 124.800,65.000 126.333,66.433 127.867,67.867 129.400,69.300 129.000,69.900 128.600,70.400 128.200,70.900 127.400,71.500 126.600,72.100 125.700,72.500 125.100,72.700 124.500,72.700 123.900,72.600 123.600,72.400 122.200,71.300 120.300,69.600 120.300,69.600 120.300,69.600 120.300,69.600 120.300,69.600 120.300,69.600 120.300,69.600 Z M 136.300,48.200 C 136.200,47.100 136.000,45.900 135.900,45.000 135.800,44.300 135.700,43.700 135.700,43.300 135.600,42.500 135.500,40.900 135.500,39.400 135.533,39.400 135.567,39.400 135.600,39.400 137.233,39.433 138.867,39.467 140.500,39.500 140.500,43.433 140.500,47.367 140.500,51.300 140.267,51.533 140.033,51.767 139.800,52.000 139.067,52.000 138.333,52.000 137.600,52.000 137.300,52.000 137.100,51.700 136.900,51.200 136.800,50.800 136.700,50.400 136.600,50.000 136.600,50.000 136.600,50.000 136.600,50.000 136.500,49.400 136.400,48.800 136.300,48.200 136.300,48.200 136.300,48.200 136.300,48.200 Z M 161.300,40.800 C 161.300,40.833 161.300,40.867 161.300,40.900 157.467,40.900 153.633,40.900 149.800,40.900 153.633,40.867 157.467,40.833 161.300,40.800 161.300,40.800 161.300,40.800 161.300,40.800 Z M 166.400,51.100 C 166.400,51.533 166.400,51.967 166.400,52.400 165.333,52.400 164.267,52.400 163.200,52.400 163.200,46.433 163.200,40.467 163.200,34.500 164.267,34.500 165.333,34.500 166.400,34.500 166.400,36.333 166.400,38.167 166.400,40.000 166.367,40.000 166.333,40.000 166.300,40.000 166.300,43.700 166.300,47.400 166.300,51.100 166.333,51.100 166.367,51.100 166.400,51.100 166.400,51.100 166.400,51.100 166.400,51.100 Z M 178.700,41.900 C 178.700,44.333 178.700,46.767 178.700,49.200 175.233,49.200 171.767,49.200 168.300,49.200 168.300,46.767 168.300,44.333 168.300,41.900 171.767,41.900 175.233,41.900 178.700,41.900 178.700,41.900 178.700,41.900 178.700,41.900 Z M 203.400,41.600 C 203.400,44.133 203.400,46.667 203.400,49.200 199.567,49.200 195.733,49.200 191.900,49.200 191.900,46.667 191.900,44.133 191.900,41.600 195.733,41.600 199.567,41.600 203.400,41.600 203.400,41.600 203.400,41.600 203.400,41.600 Z M 211.100,51.600 C 211.100,51.667 211.100,51.733 211.100,51.800 211.033,51.800 210.967,51.800 210.900,51.800 210.900,52.500 210.900,53.200 210.900,53.900 210.600,53.700 210.300,53.600 210.000,53.400 209.700,53.200 209.400,53.000 209.100,52.800 208.600,52.500 208.100,52.100 207.700,51.700 207.000,51.000 206.200,50.300 205.300,49.700 205.300,47.200 205.300,44.700 205.300,42.200 207.000,42.500 208.600,43.200 210.000,44.300 210.300,44.500 210.800,44.900 211.200,45.300 211.800,45.800 212.500,46.300 212.800,46.600 213.100,46.800 213.400,47.100 213.700,47.400 214.000,47.700 214.400,48.000 214.800,48.300 215.400,48.800 216.200,49.000 217.000,49.100 217.000,50.033 217.000,50.967 217.000,51.900 215.033,51.800 213.067,51.700 211.100,51.600 211.100,51.600 211.100,51.600 211.100,51.600 Z M 246.400,60.800 C 246.200,61.000 245.900,61.300 245.700,61.500 245.400,61.500 245.400,61.300 245.400,61.200 245.400,59.067 245.400,56.933 245.400,54.800 244.933,54.800 244.467,54.800 244.000,54.800 242.400,54.800 235.900,54.800 229.500,54.700 216.500,54.700 214.900,54.700 214.500,54.800 214.167,54.800 213.833,54.800 213.500,54.800 213.500,56.900 213.500,59.000 213.500,61.100 213.500,61.200 213.400,61.400 213.300,61.500 213.100,61.400 212.900,61.200 212.700,61.000 212.700,58.533 212.700,56.067 212.700,53.600 214.167,53.533 215.633,53.467 217.100,53.400 226.800,53.400 236.500,53.400 246.200,53.400 246.400,56.900 246.400,60.000 246.400,60.800 246.400,60.800 246.400,60.800 246.400,60.800 Z M 255.200,40.100 C 255.200,42.633 255.200,45.167 255.200,47.700 254.800,47.700 254.400,47.700 254.000,47.700 254.000,45.167 254.000,42.633 254.000,40.100 254.400,40.100 254.800,40.100 255.200,40.100 255.200,40.100 255.200,40.100 255.200,40.100 Z M 190.000,40.500 C 190.000,43.767 190.000,47.033 190.000,50.300 186.867,50.300 183.733,50.300 180.600,50.300 180.600,47.033 180.600,43.767 180.600,40.500 183.733,40.500 186.867,40.500 190.000,40.500 190.000,40.500 190.000,40.500 190.000,40.500 Z M 266.100,26.800 C 266.100,34.467 266.100,42.133 266.100,49.800 263.167,49.800 260.233,49.800 257.300,49.800 257.300,42.133 257.300,34.467 257.300,26.800 260.233,26.800 263.167,26.800 266.100,26.800 266.100,26.800 266.100,26.800 266.100,26.800 Z M 279.700,27.400 C 279.700,30.000 279.700,32.600 279.700,35.200 275.800,35.200 271.900,35.200 268.000,35.200 268.000,32.567 268.000,29.933 268.000,27.300 271.900,27.333 275.800,27.367 279.700,27.400 279.700,27.400 279.700,27.400 279.700,27.400 Z M 279.700,37.100 C 279.700,37.467 279.700,37.833 279.700,38.200 275.800,38.200 271.900,38.200 268.000,38.200 268.000,37.800 268.000,37.400 268.000,37.000 271.900,37.033 275.800,37.067 279.700,37.100 279.700,37.100 279.700,37.100 279.700,37.100 Z M 279.700,40.100 C 279.700,42.633 279.700,45.167 279.700,47.700 275.800,47.700 271.900,47.700 268.000,47.700 268.000,45.167 268.000,42.633 268.000,40.100 271.900,40.100 275.800,40.100 279.700,40.100 279.700,40.100 279.700,40.100 279.700,40.100 Z M 290.400,27.000 C 290.400,34.667 290.400,42.333 290.400,50.000 287.467,50.000 284.533,50.000 281.600,50.000 281.600,42.333 281.600,34.667 281.600,27.000 284.533,27.000 287.467,27.000 290.400,27.000 290.400,27.000 290.400,27.000 290.400,27.000 Z M 298.700,27.400 C 298.700,30.267 298.700,33.133 298.700,36.000 296.567,36.000 294.433,36.000 292.300,36.000 292.300,33.133 292.300,30.267 292.300,27.400 294.433,27.400 296.567,27.400 298.700,27.400 298.700,27.400 298.700,27.400 298.700,27.400 Z M 298.700,37.900 C 298.700,38.000 298.700,38.100 298.700,38.200 296.567,38.200 294.433,38.200 292.300,38.200 292.300,38.100 292.300,38.000 292.300,37.900 294.433,37.900 296.567,37.900 298.700,37.900 298.700,37.900 298.700,37.900 298.700,37.900 Z M 298.700,40.100 C 298.700,42.967 298.700,45.833 298.700,48.700 296.567,48.700 294.433,48.700 292.300,48.700 292.300,45.833 292.300,42.967 292.300,40.100 294.433,40.100 296.567,40.100 298.700,40.100 298.700,40.100 298.700,40.100 298.700,40.100 Z M 337.800,45.100 C 337.800,46.633 337.800,48.167 337.800,49.700 337.800,50.700 337.000,51.600 335.900,51.600 335.900,51.600 335.900,51.600 335.900,51.600 324.767,51.600 313.633,51.600 302.500,51.600 301.500,51.600 300.600,50.800 300.600,49.700 300.600,49.700 300.600,49.700 300.600,49.700 300.600,42.067 300.600,34.433 300.600,26.800 300.600,25.800 301.500,25.000 302.500,25.000 313.633,25.000 324.767,25.000 335.900,25.000 336.900,25.000 337.800,25.800 337.800,26.900 337.800,26.900 337.800,26.900 337.800,26.900 337.800,32.767 337.800,38.633 337.800,44.500 337.700,44.633 337.600,44.767 337.500,44.900 337.600,44.967 337.700,45.033 337.800,45.100 337.800,45.100 337.800,45.100 337.800,45.100 Z M 341.900,30.300 C 341.533,30.667 341.167,31.033 340.800,31.400 340.500,31.100 340.200,30.800 339.900,30.500 339.867,29.733 339.833,28.967 339.800,28.200 340.500,28.900 341.200,29.600 341.900,30.300 341.900,30.300 341.900,30.300 341.900,30.300 Z M 342.000,45.100 C 341.233,45.900 340.467,46.700 339.700,47.500 339.700,46.700 339.700,45.900 339.700,45.100 340.033,44.767 340.367,44.433 340.700,44.100 341.133,44.433 341.567,44.767 342.000,45.100 342.000,45.100 342.000,45.100 342.000,45.100 Z M 340.400,41.500 C 340.133,41.767 339.867,42.033 339.600,42.300 339.600,39.200 339.600,36.100 339.600,33.000 339.967,33.333 340.333,33.667 340.700,34.000 341.967,32.733 343.233,31.467 344.500,30.200 342.700,28.400 340.900,26.600 339.100,24.800 338.400,23.700 337.200,23.000 335.900,23.000 324.767,23.000 313.633,23.000 302.500,23.000 300.900,23.000 299.600,24.000 299.000,25.500 296.800,25.500 294.600,25.500 292.400,25.500 292.400,25.367 292.400,25.233 292.400,25.100 288.167,25.100 283.933,25.100 279.700,25.100 279.700,25.233 279.700,25.367 279.700,25.500 275.800,25.500 271.900,25.500 268.000,25.500 268.000,25.300 268.000,25.100 268.000,24.900 263.800,24.900 259.600,24.900 255.400,24.900 255.400,25.100 255.400,25.300 255.400,25.500 247.800,25.500 240.200,25.500 232.600,25.500 232.600,25.300 232.600,25.100 232.600,24.900 231.667,24.900 230.733,24.900 229.800,24.900 229.800,24.233 229.800,23.567 229.800,22.900 228.500,21.967 227.200,21.033 225.900,20.100 225.667,20.200 225.433,20.300 225.200,20.400 224.633,19.633 224.067,18.867 223.500,18.100 221.600,15.300 219.700,12.500 217.800,9.700 216.000,7.200 213.600,4.100 213.300,3.800 212.500,3.200 211.600,2.900 210.600,2.900 210.367,2.900 210.133,2.900 209.900,2.900 209.600,2.400 209.200,1.900 208.800,1.500 208.733,1.433 208.667,1.367 208.600,1.300 201.567,1.300 194.533,1.300 187.500,1.300 186.967,1.800 186.433,2.300 185.900,2.800 178.500,2.800 148.900,3.000 146.300,3.000 143.300,3.000 142.000,3.500 140.900,5.300 136.600,11.767 132.300,18.233 128.000,24.700 127.867,24.767 127.733,24.833 127.600,24.900 127.500,24.900 127.400,24.900 127.300,24.900 127.300,24.900 127.300,24.900 127.300,24.900 127.300,24.500 127.100,24.000 126.900,23.700 126.900,22.767 126.900,21.833 126.900,20.900 125.233,20.167 123.567,19.433 121.900,18.700 121.833,18.667 121.767,18.633 121.700,18.600 111.833,18.600 101.967,18.600 92.100,18.600 90.400,19.500 88.700,20.400 87.000,21.300 87.000,22.167 87.000,23.033 87.000,23.900 85.967,23.900 84.933,23.900 83.900,23.900 82.200,23.900 81.800,24.700 81.800,25.900 71.633,25.900 61.467,25.900 51.300,25.900 51.300,25.600 51.300,25.300 51.300,25.000 48.633,25.000 45.967,25.000 43.300,25.000 42.600,25.100 41.900,25.200 41.200,25.300 41.133,25.467 41.067,25.633 41.000,25.800 40.567,25.800 40.133,25.800 39.700,25.800 39.533,28.367 39.367,30.933 39.200,33.500 39.433,35.333 39.667,37.167 39.900,39.000 40.167,39.133 40.433,39.267 40.700,39.400 40.900,44.667 41.100,49.933 41.300,55.200 41.333,55.300 41.367,55.400 41.400,55.500 41.800,57.000 42.100,57.900 42.200,58.300 42.700,59.400 43.700,60.200 44.900,60.400 45.367,60.400 45.833,60.400 46.300,60.400 46.433,60.667 46.567,60.933 46.700,61.200 47.300,61.200 47.900,61.200 48.500,61.200 48.500,61.267 48.500,61.333 48.500,61.400 50.800,61.400 53.100,61.400 55.400,61.400 57.300,61.400 57.700,60.700 58.100,58.900 58.400,57.300 59.000,51.900 59.000,51.600 59.200,50.600 59.000,49.600 58.600,48.700 58.567,48.633 58.533,48.567 58.500,48.500 58.733,48.333 58.967,48.167 59.200,48.000 59.333,48.100 59.467,48.200 59.600,48.300 60.333,47.933 61.067,47.567 61.800,47.200 61.800,46.800 61.800,46.400 61.800,46.000 62.133,45.800 62.467,45.600 62.800,45.400 62.800,45.133 62.800,44.867 62.800,44.600 62.867,44.367 62.933,44.133 63.000,43.900 63.233,43.800 63.467,43.700 63.700,43.600 65.833,43.600 67.967,43.600 70.100,43.600 71.900,45.600 73.700,47.600 75.500,49.600 75.600,49.667 75.700,49.733 75.800,49.800 75.900,49.800 76.000,49.800 76.100,49.800 76.600,49.900 80.600,50.400 81.300,50.600 82.000,50.800 82.700,50.500 83.100,49.900 83.500,49.200 83.500,48.400 83.100,47.700 82.900,47.400 82.200,45.700 81.300,43.500 81.300,43.500 81.300,43.500 81.300,43.500 81.600,43.500 81.800,43.500 82.100,43.300 82.500,44.300 83.500,45.000 84.600,44.900 85.000,44.900 85.600,44.900 86.200,44.900 86.800,44.900 87.800,44.800 88.000,44.800 88.033,44.700 88.067,44.600 88.100,44.500 88.100,44.567 88.100,44.633 88.100,44.700 88.100,44.700 88.100,44.700 88.100,44.700 88.100,45.067 88.100,45.433 88.100,45.800 88.533,46.233 88.967,46.667 89.400,47.100 89.600,47.100 89.800,47.100 90.000,47.100 92.600,47.100 101.100,46.900 102.000,46.900 102.600,46.900 103.800,46.900 104.000,47.200 104.500,47.800 105.000,48.400 105.500,49.100 105.600,49.267 105.700,49.433 105.800,49.600 108.133,49.600 110.467,49.600 112.800,49.600 112.400,50.000 112.000,50.400 111.600,50.800 111.333,50.633 111.067,50.467 110.800,50.300 110.633,50.467 110.467,50.633 110.300,50.800 109.000,52.000 107.800,53.200 106.700,54.600 106.100,55.500 105.600,56.400 105.200,57.300 104.700,58.500 104.100,59.600 103.300,60.600 102.100,61.700 100.800,62.700 99.400,63.600 98.200,64.400 97.000,65.300 95.900,66.200 95.800,66.267 95.700,66.333 95.600,66.400 93.700,68.100 91.900,69.800 90.100,71.700 88.700,73.100 87.700,74.900 87.200,76.900 87.200,77.000 87.200,77.100 87.200,77.200 87.400,77.567 87.600,77.933 87.800,78.300 87.467,78.667 87.133,79.033 86.800,79.400 86.733,79.333 86.667,79.267 86.600,79.200 86.600,79.367 86.600,79.533 86.600,79.700 86.333,80.000 86.067,80.300 85.800,80.600 85.933,80.733 86.067,80.867 86.200,81.000 86.200,81.167 86.200,81.333 86.200,81.500 86.100,82.000 85.900,82.500 85.700,82.900 85.500,83.000 85.200,83.100 85.000,83.200 84.200,83.500 83.500,83.900 82.900,84.500 82.500,85.000 82.100,85.600 82.000,86.200 81.900,86.500 81.800,86.900 81.500,87.100 80.800,87.600 80.100,88.000 79.200,88.300 78.733,88.467 78.267,88.633 77.800,88.800 80.100,91.200 82.400,93.600 84.700,96.000 84.900,95.567 85.100,95.133 85.300,94.700 85.700,93.800 86.200,92.900 86.800,92.100 87.000,92.000 87.300,91.800 87.600,91.700 88.400,91.400 89.200,90.900 89.800,90.300 90.300,89.700 90.700,89.100 91.000,88.400 91.100,88.200 91.200,88.000 91.300,87.900 91.600,87.600 92.000,87.400 92.400,87.200 92.600,87.233 92.800,87.267 93.000,87.300 93.167,87.433 93.333,87.567 93.500,87.700 93.700,87.500 93.900,87.300 94.100,87.100 94.233,87.133 94.367,87.167 94.500,87.200 95.400,88.000 96.600,89.200 97.000,89.600 98.200,90.400 99.400,91.000 100.800,91.400 100.967,91.467 101.133,91.533 101.300,91.600 101.433,91.500 101.567,91.400 101.700,91.300 102.000,91.000 102.400,90.800 102.800,90.600 103.500,90.300 104.000,89.500 103.900,88.700 103.900,87.300 104.200,86.000 104.600,84.700 105.000,84.200 105.400,83.700 106.000,83.400 106.600,83.000 107.100,82.600 107.500,82.100 108.100,81.300 108.500,80.400 108.900,79.500 109.100,79.000 109.400,78.500 109.600,78.100 110.100,77.200 110.800,76.500 111.600,75.900 112.300,75.300 113.000,74.600 113.600,73.800 114.000,73.300 114.400,72.900 114.800,72.500 115.600,72.000 116.500,71.700 117.500,71.400 118.100,72.000 118.700,72.600 119.400,73.100 119.600,73.200 120.000,73.500 120.400,73.900 121.300,74.700 122.200,75.400 123.200,75.900 124.400,76.100 125.600,76.000 126.800,75.700 127.900,75.500 129.000,75.000 129.900,74.200 130.800,73.200 131.600,72.200 132.400,71.100 133.400,69.800 133.400,68.300 132.500,67.400 132.000,66.900 125.400,61.100 123.400,59.200 124.533,58.067 125.667,56.933 126.800,55.800 126.800,55.800 126.800,55.800 126.800,55.800 129.533,54.200 132.267,52.600 135.000,51.000 135.100,51.300 135.100,51.600 135.200,51.900 135.500,53.000 136.500,53.800 137.700,53.900 138.700,53.900 139.700,53.900 140.700,53.900 140.800,53.800 140.900,53.700 141.000,53.600 141.000,53.767 141.000,53.933 141.000,54.100 147.200,54.100 153.400,54.100 159.600,54.100 160.233,53.467 160.867,52.833 161.500,52.200 161.500,52.900 161.500,53.600 161.500,54.300 163.833,54.300 166.167,54.300 168.500,54.300 168.500,53.233 168.500,52.167 168.500,51.100 171.967,51.100 175.433,51.100 178.900,51.100 178.900,51.500 178.900,51.900 178.900,52.300 183.300,52.300 187.700,52.300 192.100,52.300 192.100,51.900 192.100,51.500 192.100,51.100 196.067,51.100 200.033,51.100 204.000,51.100 204.800,51.700 205.600,52.400 206.300,53.000 206.800,53.500 207.400,54.000 208.000,54.400 208.267,54.567 208.533,54.733 208.800,54.900 209.400,55.300 210.100,55.700 210.800,56.000 210.800,57.667 210.800,59.333 210.800,61.000 210.700,61.500 210.900,62.000 211.300,62.300 211.800,62.900 212.500,63.300 213.300,63.400 213.500,63.400 213.700,63.400 213.900,63.300 214.600,63.000 215.100,62.400 215.300,61.700 215.600,61.500 215.900,61.200 216.100,60.900 216.300,60.600 216.700,60.100 216.900,60.100 216.900,60.100 217.000,60.100 217.000,60.100 217.100,60.200 217.200,60.300 217.200,60.400 217.400,60.700 217.600,61.000 217.800,61.200 218.100,61.500 218.500,61.700 218.900,61.700 219.600,61.600 220.100,61.200 220.500,60.700 220.600,60.500 220.800,60.400 220.900,60.200 221.000,60.100 221.000,60.100 221.100,60.000 221.200,60.100 221.300,60.300 221.400,60.400 221.700,61.000 222.300,61.500 223.000,61.500 223.700,61.500 224.400,61.100 224.800,60.400 224.900,60.200 225.100,60.100 225.400,60.100 225.500,60.100 225.600,60.100 225.700,60.300 226.000,61.000 226.700,61.400 227.400,61.500 228.200,61.400 228.900,60.900 229.300,60.100 229.300,60.000 229.400,60.000 229.500,59.900 229.700,60.000 229.900,60.100 230.000,60.300 230.300,60.900 230.900,61.300 231.600,61.300 232.400,61.200 233.100,60.800 233.400,60.100 233.500,60.000 233.500,59.900 233.600,59.900 233.800,60.000 234.100,60.100 234.200,60.300 234.233,60.333 234.267,60.367 234.300,60.400 234.600,61.000 235.100,61.400 235.800,61.500 235.800,61.500 235.800,61.500 235.800,61.500 236.500,61.400 237.100,60.900 237.400,60.200 237.500,60.000 237.600,59.800 237.800,59.700 238.000,59.800 238.100,60.000 238.200,60.200 238.800,61.400 239.500,61.600 240.100,61.600 240.700,61.600 241.400,61.300 242.000,60.200 242.100,60.000 242.200,59.900 242.300,59.900 242.400,59.900 242.400,60.000 242.500,60.100 242.700,60.700 243.000,61.100 243.500,61.500 243.700,62.500 244.600,63.100 245.600,63.100 246.500,63.000 247.300,62.500 247.800,61.700 247.833,61.667 247.867,61.633 247.900,61.600 248.200,61.300 248.300,61.100 248.200,54.800 250.033,52.967 251.867,51.133 253.700,49.300 254.267,49.300 254.833,49.300 255.400,49.300 255.400,49.967 255.400,50.633 255.400,51.300 259.600,51.300 263.800,51.300 268.000,51.300 268.000,50.633 268.000,49.967 268.000,49.300 271.900,49.300 275.800,49.300 279.700,49.300 279.700,50.033 279.700,50.767 279.700,51.500 283.900,51.500 288.100,51.500 292.300,51.500 292.300,51.067 292.300,50.633 292.300,50.200 294.467,50.200 296.633,50.200 298.800,50.200 299.200,51.900 300.700,53.000 302.500,53.000 313.633,53.000 324.767,53.000 335.900,53.000 337.700,53.000 339.300,51.700 339.600,49.900 341.333,48.100 343.067,46.300 344.800,44.500 343.333,43.500 341.867,42.500 340.400,41.500 340.400,41.500 340.400,41.500 340.400,41.500 Z " />
</svg>