<?xml version="1.0" encoding="UTF-8" standalone="no"?>
<!DOCTYPE svg PUBLIC "-//W3C//DTD SVG 20010904//EN" "http://www.w3.org/TR/2001/REC-SVG-20010904/DTD/svg10.dtd"[]>
<svg version="1.1" id="Frosty Editor v1.0.6.3" xmlns="http://www.w3.org/2000/svg" d1p1:xlink="http://www.w3.org/1999/xlink" viewBox="0 0 25 25" xmlns:d1p1="xmlns">
  <path stroke="none" fill="#ffffffff" d="M 12.700,3.623 C 7.882,3.623 3.989,7.515 3.989,12.334 3.989,17.152 7.882,21.045 12.700,21.045 17.518,21.045 21.411,17.152 21.411,12.334 21.411,7.515 17.518,3.623 12.700,3.623 Z M 12.700,4.439 C 17.055,4.439 20.594,7.978 20.594,12.334 20.594,16.689 17.055,20.228 12.700,20.228 8.345,20.228 4.806,16.689 4.806,12.334 4.806,7.978 8.345,4.439 12.700,4.439 Z M 12.700,5.256 C 8.780,5.256 5.622,8.414 5.622,12.334 5.622,16.254 8.780,19.411 12.700,19.411 16.620,19.411 19.778,16.254 19.778,12.334 19.778,8.414 16.620,5.256 12.700,5.256 Z M 12.700,5.528 C 16.457,5.528 19.505,8.577 19.505,12.334 19.505,16.090 16.457,19.139 12.700,19.139 8.943,19.139 5.895,16.090 5.895,12.334 5.895,8.577 8.943,5.528 12.700,5.528 Z M 12.722,5.863 C 9.151,5.863 6.277,8.736 6.277,12.307 6.277,15.877 9.151,18.751 12.722,18.751 16.292,18.751 19.167,15.877 19.167,12.307 19.167,8.736 16.292,5.863 12.722,5.863 Z M 12.748,6.762 C 15.810,6.762 18.328,9.252 18.328,12.342 18.300,13.716 17.785,15.004 16.955,15.977 15.466,14.488 15.466,14.488 15.466,14.488 15.466,15.691 15.466,15.691 15.466,15.691 15.762,15.986 16.059,16.282 16.354,16.577 15.381,17.407 14.122,17.922 12.720,17.922 9.658,17.922 7.139,15.433 7.139,12.342 7.139,10.969 7.655,9.681 8.484,8.708 10.430,10.654 10.430,10.654 10.430,10.654 11.117,10.654 11.117,10.654 11.117,10.654 11.117,10.139 11.117,10.139 11.117,10.139 10.450,9.462 9.781,8.784 9.114,8.107 10.087,7.277 11.346,6.762 12.748,6.762 Z M 11.632,8.078 C 11.623,9.108 11.613,10.139 11.603,11.169 8.656,11.169 8.656,11.169 8.656,11.169 8.656,13.200 8.656,13.200 8.656,13.200 12.548,13.200 12.548,13.200 12.548,13.200 11.832,13.916 11.832,13.916 11.832,13.916 11.174,13.916 11.174,13.916 11.174,13.916 11.174,14.832 11.174,14.832 11.174,14.832 12.119,14.832 12.119,14.832 12.119,14.832 12.119,14.145 12.119,14.145 12.119,14.145 12.434,13.830 12.748,13.515 13.063,13.200 13.922,13.200 13.922,13.200 13.922,13.200 13.922,16.606 13.922,16.606 13.922,16.606 14.284,16.444 14.646,16.282 15.009,16.120 15.009,13.200 15.009,13.200 15.009,13.200 16.783,13.200 16.783,13.200 16.783,13.200 16.783,12.142 16.783,12.142 16.783,12.142 14.094,12.142 14.094,12.142 14.094,12.142 14.322,11.913 14.551,11.684 14.780,11.455 15.496,11.455 15.496,11.455 15.496,11.455 15.496,10.511 15.496,10.511 15.496,10.511 14.551,10.511 14.551,10.511 14.551,10.511 14.551,11.169 14.551,11.169 14.551,11.169 14.265,11.464 13.979,11.760 13.693,12.056 13.693,8.078 13.693,8.078 13.693,8.078 Z " />
</svg>