<?xml version="1.0" encoding="UTF-8" standalone="no"?>
<!DOCTYPE svg PUBLIC "-//W3C//DTD SVG 20010904//EN" "http://www.w3.org/TR/2001/REC-SVG-20010904/DTD/svg10.dtd"[]>
<svg version="1.1" id="Frosty Editor v1.0.6.3" xmlns="http://www.w3.org/2000/svg" d1p1:xlink="http://www.w3.org/1999/xlink" viewBox="0 0 25 25" xmlns:d1p1="xmlns">
  <path stroke="none" fill="#ffffffff" d="M 20.168,3.147 C 19.137,4.178 19.137,4.178 19.137,4.178 19.110,4.151 19.110,4.151 19.110,4.151 18.448,4.813 18.448,4.813 18.448,4.813 18.449,5.028 18.450,5.243 18.451,5.458 18.467,5.463 18.484,5.468 18.500,5.473 16.682,7.291 16.682,7.291 16.682,7.291 16.574,7.183 16.574,7.183 16.574,7.183 16.238,7.520 16.238,7.520 16.238,7.520 14.973,8.784 14.973,8.784 14.973,8.784 14.476,8.785 13.980,8.786 13.483,8.786 13.188,9.080 13.188,9.080 13.188,9.080 13.271,9.163 13.271,9.163 13.271,9.163 13.218,9.216 13.218,9.216 13.218,9.216 13.268,9.553 13.318,9.890 13.368,10.226 13.540,10.398 13.540,10.398 13.540,10.398 13.504,10.468 13.479,10.547 13.468,10.633 13.477,10.685 13.506,10.742 13.550,10.791 13.515,10.864 13.504,10.952 13.515,11.050 13.533,11.124 13.570,11.203 13.622,11.277 13.368,11.531 13.368,11.531 13.368,11.531 13.142,11.756 13.142,11.756 13.142,11.756 12.767,11.381 12.767,11.381 12.767,11.381 12.514,11.675 12.260,11.968 12.006,12.261 12.101,12.357 12.101,12.357 12.101,12.357 11.969,12.489 11.969,12.489 11.969,12.489 11.694,12.214 11.694,12.214 11.694,12.214 11.402,12.506 11.402,12.506 11.402,12.506 11.380,12.485 11.380,12.485 11.380,12.485 11.673,12.193 11.673,12.193 11.673,12.193 11.665,12.185 11.665,12.185 11.665,12.185 11.863,11.988 11.863,11.988 11.863,11.988 11.599,11.724 11.599,11.724 11.599,11.724 12.284,11.038 12.284,11.038 12.284,11.038 12.306,10.953 12.330,10.867 12.352,10.782 12.323,10.753 12.323,10.753 12.323,10.753 12.362,10.714 12.399,10.676 12.437,10.637 12.279,10.478 12.279,10.478 12.279,10.478 12.194,10.394 12.194,10.394 12.194,10.394 12.080,10.510 12.080,10.510 12.080,10.510 12.054,10.484 12.054,10.484 12.054,10.484 11.967,10.509 11.880,10.534 11.793,10.559 11.109,11.243 11.109,11.243 11.109,11.243 10.852,10.985 10.852,10.985 10.852,10.985 10.357,11.482 10.357,11.482 10.357,11.482 10.291,11.460 10.225,11.437 10.159,11.415 10.003,11.571 10.003,11.571 10.003,11.571 9.858,11.611 9.712,11.653 9.567,11.693 8.117,13.144 8.117,13.144 8.117,13.144 8.426,13.454 8.426,13.454 8.426,13.454 8.377,13.502 8.377,13.502 8.377,13.502 8.296,13.419 8.296,13.419 8.296,13.419 8.263,13.383 8.215,13.361 8.166,13.359 8.116,13.357 8.068,13.375 8.032,13.408 8.005,13.434 8.005,13.434 8.005,13.434 7.970,13.470 7.952,13.520 7.954,13.570 7.955,13.620 7.976,13.667 8.013,13.701 8.099,13.787 8.099,13.787 8.099,13.787 8.042,13.922 7.986,14.056 7.929,14.191 7.972,14.235 7.972,14.235 7.972,14.235 7.914,14.292 7.914,14.292 7.914,14.292 7.800,14.177 7.800,14.177 7.800,14.177 7.190,14.789 7.190,14.789 7.190,14.789 7.304,14.902 7.304,14.902 7.304,14.902 6.828,15.378 6.828,15.378 6.828,15.378 6.695,15.403 6.561,15.428 6.428,15.452 5.735,16.145 5.735,16.145 5.735,16.145 6.699,17.109 6.699,17.109 6.699,17.109 7.392,16.417 7.392,16.417 7.392,16.417 7.417,16.284 7.442,16.150 7.466,16.017 7.943,15.541 7.943,15.541 7.943,15.541 8.217,15.816 8.217,15.816 8.217,15.816 8.067,15.967 8.067,15.967 8.067,15.967 8.131,16.127 8.267,16.485 8.346,16.687 8.261,16.794 8.177,16.901 8.092,17.008 7.007,18.092 7.007,18.092 7.007,18.092 6.924,18.138 6.842,18.184 6.759,18.229 6.381,18.606 6.381,18.606 6.381,18.606 6.391,18.636 6.401,18.667 6.411,18.697 6.236,18.870 6.236,18.870 6.236,18.870 5.915,19.193 5.915,19.193 5.915,19.193 5.756,19.352 5.372,19.546 5.208,19.628 5.187,19.639 5.165,19.650 5.144,19.661 5.054,19.709 4.539,19.859 4.484,19.864 4.428,19.869 3.765,19.962 3.653,19.998 3.518,20.048 3.399,20.121 3.301,20.216 3.253,20.276 3.213,20.343 3.182,20.417 3.179,20.425 3.174,20.434 3.171,20.443 3.177,20.455 3.184,20.467 3.190,20.479 3.230,20.559 3.370,20.658 3.453,20.715 3.471,20.727 3.508,20.751 3.555,20.781 3.649,20.842 3.791,20.934 3.839,20.968 3.900,21.014 4.359,21.465 4.532,21.635 4.636,21.739 4.636,21.739 4.636,21.739 4.788,21.891 5.092,22.163 5.296,22.338 5.455,22.474 5.772,22.651 5.827,22.597 5.853,22.570 5.915,22.080 5.916,22.076 5.917,22.050 5.926,21.962 5.935,21.869 5.954,21.667 5.969,21.509 5.969,21.463 5.987,21.365 6.021,21.276 6.068,21.198 6.097,21.150 6.236,21.006 6.314,20.928 6.335,20.902 6.340,20.863 6.328,20.819 6.312,20.774 6.289,20.729 6.261,20.686 6.255,20.680 6.255,20.680 6.255,20.680 6.233,20.649 6.216,20.617 6.202,20.584 6.221,20.532 6.357,20.292 6.510,20.071 6.645,19.876 6.803,19.684 6.847,19.632 6.917,19.702 6.917,19.702 6.917,19.702 6.948,19.682 6.979,19.663 7.010,19.643 7.071,19.598 7.131,19.553 7.191,19.508 7.969,18.731 7.969,18.731 7.969,18.731 8.149,18.911 8.149,18.911 8.149,18.911 8.244,19.006 8.505,19.026 8.661,18.870 8.906,18.625 8.822,18.433 8.733,18.325 8.767,18.284 8.804,18.246 8.843,18.209 8.949,18.103 9.005,18.046 9.105,18.073 9.206,18.093 9.293,18.157 9.340,18.249 9.431,18.449 9.507,18.656 9.569,18.867 9.575,18.892 9.584,18.954 9.594,19.019 9.605,19.150 9.631,19.280 9.672,19.405 9.792,19.645 9.863,19.694 9.884,19.707 9.914,19.727 9.944,19.746 9.975,19.766 10.396,19.688 10.819,19.611 11.240,19.533 11.244,19.532 11.247,19.531 11.251,19.530 11.257,19.523 11.257,19.523 11.257,19.523 11.339,19.486 11.413,19.436 11.477,19.374 11.567,19.295 11.611,19.175 11.593,19.057 11.553,18.839 11.533,18.757 11.408,18.687 11.333,18.652 11.253,18.632 11.171,18.629 11.010,18.203 10.850,17.777 10.690,17.351 10.717,17.336 10.748,17.325 10.779,17.320 10.824,17.317 10.869,17.321 10.912,17.333 11.004,17.365 11.106,17.344 11.178,17.278 11.665,16.789 11.665,16.789 11.665,16.789 11.767,16.660 11.760,16.476 11.647,16.356 11.047,15.756 11.047,15.756 11.047,15.756 11.547,15.255 11.547,15.255 11.547,15.255 11.629,15.338 11.629,15.338 11.629,15.338 12.312,14.656 12.312,14.656 12.312,14.656 12.229,14.573 12.229,14.573 12.229,14.573 12.332,14.471 12.332,14.471 12.332,14.471 12.193,14.332 12.193,14.332 12.193,14.332 12.805,13.720 12.805,13.720 12.805,13.720 12.911,13.826 12.911,13.826 12.911,13.826 13.096,14.010 13.394,14.010 13.579,13.826 14.621,12.784 14.621,12.784 14.621,12.784 15.772,11.634 15.772,11.634 15.772,11.634 15.937,11.799 15.937,11.799 15.937,11.799 15.922,11.816 15.922,11.816 15.922,11.816 15.981,11.875 15.981,11.875 15.981,11.875 15.840,11.907 15.701,11.939 15.560,11.970 15.542,11.952 15.542,11.952 15.542,11.952 14.832,12.662 14.832,12.662 14.832,12.662 15.912,13.742 15.912,13.742 15.912,13.742 16.620,13.033 16.620,13.033 16.620,13.033 16.598,13.010 16.598,13.010 16.598,13.010 16.624,12.865 16.650,12.719 16.676,12.573 16.771,12.667 16.771,12.667 16.771,12.667 16.940,12.496 16.940,12.496 16.940,12.496 16.313,11.966 15.915,11.174 15.915,10.284 15.915,8.681 17.207,7.391 18.810,7.391 19.006,7.391 19.197,7.410 19.382,7.447 21.598,5.231 21.598,5.231 21.598,5.231 21.700,5.248 21.700,5.248 21.700,5.248 21.737,5.157 21.774,5.066 21.811,4.976 21.775,4.941 21.738,4.907 21.702,4.872 21.782,4.793 21.782,4.793 21.782,4.793 20.853,3.864 20.853,3.864 20.853,3.864 20.572,4.144 20.572,4.144 20.572,4.144 20.507,4.078 20.507,4.078 20.507,4.078 20.409,4.175 20.409,4.175 20.409,4.175 20.363,4.167 20.316,4.160 20.269,4.152 20.235,4.117 20.149,4.038 20.066,3.956 20.521,3.501 20.521,3.501 20.521,3.501 Z M 10.876,15.928 C 11.355,16.408 11.355,16.408 11.355,16.408 11.408,16.451 11.441,16.512 11.447,16.580 11.453,16.647 11.430,16.714 11.386,16.765 11.244,16.907 11.244,16.907 11.244,16.907 11.219,16.907 11.151,16.908 11.118,16.907 11.102,16.905 11.087,16.899 11.076,16.888 11.067,16.881 11.059,16.874 11.049,16.868 11.024,16.850 11.002,16.829 10.985,16.804 10.984,16.791 10.987,16.757 10.988,16.738 10.994,16.682 10.995,16.664 10.978,16.648 10.974,16.643 10.974,16.643 10.974,16.643 10.957,16.612 10.929,16.587 10.895,16.576 10.893,16.578 10.893,16.578 10.893,16.578 10.841,16.568 10.791,16.545 10.751,16.510 10.722,16.481 10.729,16.331 10.743,16.270 10.766,16.178 10.787,16.085 10.810,15.993 Z " />
  <path stroke="none" fill="#ffffffff" d="M 18.810,7.863 C 17.469,7.863 16.389,8.943 16.389,10.284 16.389,11.625 17.469,12.706 18.810,12.706 20.151,12.706 21.231,11.625 21.231,10.284 21.231,8.943 20.151,7.863 18.810,7.863 Z M 19.834,8.788 C 19.848,8.787 19.861,8.787 19.873,8.788 20.413,8.788 20.571,8.955 20.571,9.166 20.571,9.378 20.413,9.546 19.873,9.546 19.486,9.541 17.916,9.347 17.057,9.237 16.954,9.224 16.954,9.101 17.057,9.088 17.894,8.985 19.389,8.795 19.834,8.788 Z M 19.834,9.914 C 19.848,9.913 19.861,9.913 19.873,9.914 20.413,9.914 20.571,10.082 20.571,10.293 20.571,10.504 20.413,10.672 19.873,10.672 19.486,10.667 17.916,10.472 17.057,10.362 16.954,10.349 16.954,10.226 17.057,10.213 17.894,10.110 19.389,9.921 19.834,9.914 Z M 19.833,11.038 C 19.848,11.038 19.861,11.038 19.873,11.038 20.413,11.038 20.571,11.206 20.571,11.417 20.571,11.628 20.413,11.797 19.873,11.797 19.486,11.792 17.916,11.598 17.057,11.488 16.954,11.474 16.954,11.351 17.057,11.338 17.894,11.235 19.388,11.046 19.833,11.038 Z " />
</svg>