<?xml version="1.0" encoding="UTF-8" standalone="no"?>
<!DOCTYPE svg PUBLIC "-//W3C//DTD SVG 20010904//EN" "http://www.w3.org/TR/2001/REC-SVG-20010904/DTD/svg10.dtd"[]>
<svg version="1.1" id="Frosty Editor v1.0.6.3" xmlns="http://www.w3.org/2000/svg" d1p1:xlink="http://www.w3.org/1999/xlink" viewBox="0 0 96 96" xmlns:d1p1="xmlns">
  <path stroke="none" fill="none" d="M 62.000,58.250 C 62.006,59.206 61.648,60.128 61.000,60.830 57.690,64.340 54.380,67.850 51.070,71.360 50.482,72.010 49.647,72.382 48.770,72.382 47.893,72.382 47.058,72.010 46.470,71.360 43.197,67.850 39.923,64.340 36.650,60.830 36.004,60.130 35.647,59.212 35.650,58.260 35.650,52.633 35.650,47.007 35.650,41.380 35.571,39.476 37.046,37.866 38.950,37.780 45.537,37.780 52.123,37.780 58.710,37.780 60.614,37.866 62.089,39.476 62.010,41.380 62.007,47.003 62.003,52.627 62.000,58.250 Z M 64.510,18.670 C 59.510,16.980 54.580,18.020 52.080,21.570 49.080,25.890 49.340,33.840 49.340,34.110 49.293,34.536 48.934,34.858 48.505,34.858 48.077,34.858 47.717,34.536 47.670,34.110 47.670,33.830 47.970,25.890 44.930,21.570 42.430,18.000 37.510,17.000 32.490,18.670 21.177,24.476 13.904,35.961 13.490,48.670 13.490,48.670 13.490,48.770 13.490,48.820 14.048,67.637 29.390,82.642 48.214,82.782 67.039,82.922 82.603,68.147 83.440,49.340 83.283,36.404 76.003,24.609 64.510,18.670 64.510,18.670 64.510,18.670 64.510,18.670 Z " />
  <path stroke="none" fill="#ffffffff" d="M 48.490,83.380 C 29.287,83.480 13.628,68.013 13.490,48.810 13.490,48.810 13.490,48.710 13.490,48.660 13.904,35.951 21.177,24.466 32.490,18.660 37.490,16.970 42.420,18.010 44.920,21.560 47.920,25.880 47.660,33.830 47.660,34.100 47.707,34.526 48.067,34.848 48.495,34.848 48.924,34.848 49.283,34.526 49.330,34.100 49.330,33.820 49.030,25.880 52.070,21.560 54.570,18.010 59.480,16.970 64.500,18.660 76.014,24.577 83.322,36.366 83.500,49.310 83.091,68.309 67.524,83.472 48.520,83.380 48.510,83.380 48.500,83.380 48.490,83.380 Z M 86.490,49.240 C 86.490,49.100 86.490,48.960 86.490,48.810 85.939,28.467 69.458,12.169 49.110,11.844 28.761,11.520 11.769,27.284 10.570,47.600 10.570,48.320 10.500,49.050 10.500,49.780 10.501,49.929 10.525,50.078 10.570,50.220 11.687,70.382 28.379,86.149 48.572,86.117 68.765,86.085 85.406,70.265 86.460,50.100 86.471,49.994 86.471,49.886 86.460,49.780 86.500,49.600 86.490,49.420 86.490,49.240 86.490,49.240 86.490,49.240 86.490,49.240 Z " />
  <path stroke="none" fill="#ffffffff" d="M 58.710,37.780 C 52.140,37.780 45.570,37.780 39.000,37.780 37.096,37.866 35.621,39.476 35.700,41.380 35.700,47.010 35.700,52.640 35.700,58.270 35.697,59.222 36.054,60.140 36.700,60.840 39.970,64.343 43.240,67.847 46.510,71.350 47.098,72.000 47.933,72.372 48.810,72.372 49.687,72.372 50.522,72.000 51.110,71.350 54.407,67.847 57.703,64.343 61.000,60.840 61.648,60.138 62.006,59.216 62.000,58.260 62.000,52.633 62.000,47.007 62.000,41.380 62.079,39.480 60.610,37.872 58.710,37.780 58.710,37.780 58.710,37.780 58.710,37.780 Z " />
</svg>