<?xml version="1.0" encoding="UTF-8" standalone="no"?>
<!-- Created with Inkscape (http://www.inkscape.org/) -->

<svg
   width="96"
   height="96"
   viewBox="0 0 25.4 25.399999"
   version="1.1"
   id="svg5"
   inkscape:version="1.3.2 (091e20e, 2023-11-25, custom)"
   sodipodi:docname="Ability_CommanderCody_Order.svg"
   xml:space="preserve"
   xmlns:inkscape="http://www.inkscape.org/namespaces/inkscape"
   xmlns:sodipodi="http://sodipodi.sourceforge.net/DTD/sodipodi-0.dtd"
   xmlns="http://www.w3.org/2000/svg"
   xmlns:svg="http://www.w3.org/2000/svg"><sodipodi:namedview
     id="namedview7"
     pagecolor="#ffffff"
     bordercolor="#999999"
     borderopacity="1"
     inkscape:pageshadow="0"
     inkscape:pageopacity="0"
     inkscape:pagecheckerboard="true"
     inkscape:document-units="px"
     showgrid="false"
     width="384mm"
     units="px"
     borderlayer="false"
     showborder="true"
     inkscape:showpageshadow="true"
     inkscape:zoom="5.6568542"
     inkscape:cx="-6.2755727"
     inkscape:cy="43.398679"
     inkscape:window-width="2560"
     inkscape:window-height="1377"
     inkscape:window-x="-8"
     inkscape:window-y="-8"
     inkscape:window-maximized="1"
     inkscape:current-layer="layer1"
     inkscape:deskcolor="#d1d1d1" /><defs
     id="defs2"><inkscape:path-effect
       effect="fill_between_many"
       method="originald"
       linkedpaths="#path269,0,1"
       id="path-effect8" /><inkscape:path-effect
       effect="fill_between_many"
       method="originald"
       linkedpaths="#path269,0,1"
       id="path-effect8-8" /><inkscape:path-effect
       effect="fill_between_many"
       method="originald"
       linkedpaths="#path269,0,1"
       id="path-effect8-1" /><filter
       id="mask-powermask-path-effect5_inverse"
       inkscape:label="filtermask-powermask-path-effect5"
       style="color-interpolation-filters:sRGB"
       height="100"
       width="100"
       x="-50"
       y="-50"><feColorMatrix
         id="mask-powermask-path-effect5_primitive1"
         values="1"
         type="saturate"
         result="fbSourceGraphic" /><feColorMatrix
         id="mask-powermask-path-effect5_primitive2"
         values="-1 0 0 0 1 0 -1 0 0 1 0 0 -1 0 1 0 0 0 1 0 "
         in="fbSourceGraphic" /></filter><clipPath
       clipPathUnits="userSpaceOnUse"
       id="clipPath5"><path
         id="path5"
         style="fill:#800080;stroke-width:0.264583"
         d="M 467.98176,172.80598 H 695.35806 V 330.72916 H 467.98176 Z" /></clipPath><clipPath
       clipPathUnits="userSpaceOnUse"
       id="clipPath5-7"><path
         id="path5-6"
         style="fill:#800080;stroke-width:0.264583"
         d="M 467.98176,172.80598 H 695.35806 V 330.72916 H 467.98176 Z" /></clipPath><clipPath
       clipPathUnits="userSpaceOnUse"
       id="clipPath9"><rect
         style="fill:#800000;stroke-width:0.264583"
         id="rect10"
         width="1021.972"
         height="484.09192"
         x="-1559.8521"
         y="-423.28815" /></clipPath><clipPath
       clipPathUnits="userSpaceOnUse"
       id="clipPath5-2"><path
         id="path5-1"
         style="fill:#800080;stroke-width:0.264583"
         d="M 467.98176,172.80598 H 695.35806 V 330.72916 H 467.98176 Z" /></clipPath><clipPath
       clipPathUnits="userSpaceOnUse"
       id="clipPath1"><path
         id="path1"
         style="fill:#008080;stroke-width:3.74933"
         d="M -434.09983,-284.36696 H -261.29598 V 125.4855 H -434.09983 Z"
         sodipodi:nodetypes="ccccc" /></clipPath><clipPath
       clipPathUnits="userSpaceOnUse"
       id="clipPath1-5"><path
         id="path1-8"
         style="fill:#008080;stroke-width:3.74933"
         d="M -434.09983,-284.36696 H -261.29598 V 125.4855 H -434.09983 Z"
         sodipodi:nodetypes="ccccc" /></clipPath><clipPath
       clipPathUnits="userSpaceOnUse"
       id="clipEmfPath1"><path
         d="M 0,0 L 424.06299,0 L 424.06299,245.93095 L 0,245.93095 z"
         id="path88" /></clipPath><pattern
       id="EMFhbasepattern"
       patternUnits="userSpaceOnUse"
       width="6"
       height="6"
       x="0"
       y="0" /><inkscape:path-effect
       effect="fill_between_many"
       method="originald"
       linkedpaths="#path269,0,1"
       id="path-effect8-6" /><clipPath
       clipPathUnits="userSpaceOnUse"
       id="clipEmfPath1-0"><path
         d="M 0,0 L 424.06299,0 L 424.06299,245.93095 L 0,245.93095 z"
         id="path88-4" /></clipPath><pattern
       id="EMFhbasepattern-0"
       patternUnits="userSpaceOnUse"
       width="6"
       height="6"
       x="0"
       y="0" /><clipPath
       clipPathUnits="userSpaceOnUse"
       id="clipEmfPath1-8"><path
         d="M 0,0 L 424.06299,0 L 424.06299,245.93095 L 0,245.93095 z"
         id="path88-6" /></clipPath><pattern
       id="EMFhbasepattern-2"
       patternUnits="userSpaceOnUse"
       width="6"
       height="6"
       x="0"
       y="0" /><clipPath
       clipPathUnits="userSpaceOnUse"
       id="clipEmfPath1-0-9"><path
         d="M 0,0 L 424.06299,0 L 424.06299,245.93095 L 0,245.93095 z"
         id="path88-3" /></clipPath><pattern
       id="EMFhbasepattern-9"
       patternUnits="userSpaceOnUse"
       width="6"
       height="6"
       x="0"
       y="0" /><clipPath
       clipPathUnits="userSpaceOnUse"
       id="clipEmfPath1-7"><path
         d="M 0,0 L 424.06299,0 L 424.06299,245.93095 L 0,245.93095 z"
         id="path88-9" /></clipPath><pattern
       id="EMFhbasepattern-1"
       patternUnits="userSpaceOnUse"
       width="6"
       height="6"
       x="0"
       y="0" /><clipPath
       clipPathUnits="userSpaceOnUse"
       id="clipEmfPath1-0-0"><path
         d="M 0,0 L 424.06299,0 L 424.06299,245.93095 L 0,245.93095 z"
         id="path88-4-6" /></clipPath><pattern
       id="EMFhbasepattern-0-0"
       patternUnits="userSpaceOnUse"
       width="6"
       height="6"
       x="0"
       y="0" /><clipPath
       clipPathUnits="userSpaceOnUse"
       id="clipEmfPath1-8-6"><path
         d="M 0,0 L 424.06299,0 L 424.06299,245.93095 L 0,245.93095 z"
         id="path88-6-9" /></clipPath><pattern
       id="EMFhbasepattern-2-2"
       patternUnits="userSpaceOnUse"
       width="6"
       height="6"
       x="0"
       y="0" /><clipPath
       clipPathUnits="userSpaceOnUse"
       id="clipEmfPath1-0-9-8"><path
         d="M 0,0 L 424.06299,0 L 424.06299,245.93095 L 0,245.93095 z"
         id="path88-3-1" /></clipPath><pattern
       id="EMFhbasepattern-9-2"
       patternUnits="userSpaceOnUse"
       width="6"
       height="6"
       x="0"
       y="0" /><clipPath
       clipPathUnits="userSpaceOnUse"
       id="clipEmfPath1-5"><path
         d="M 0,0 L 424.06299,0 L 424.06299,245.93095 L 0,245.93095 z"
         id="path88-8" /></clipPath><pattern
       id="EMFhbasepattern-3"
       patternUnits="userSpaceOnUse"
       width="6"
       height="6"
       x="0"
       y="0" /><clipPath
       clipPathUnits="userSpaceOnUse"
       id="clipPath18"><rect
         style="fill:#ff9955;stroke-opacity:0"
         id="rect18"
         width="939.03778"
         height="1129.9567"
         x="-1686.1793"
         y="-2788.8604" /></clipPath><clipPath
       clipPathUnits="userSpaceOnUse"
       id="clipPath19"><rect
         style="fill:#008080;stroke-opacity:0"
         id="rect19"
         width="939.03778"
         height="1129.9567"
         x="-1686.1793"
         y="-1411.8604" /></clipPath></defs><g
     inkscape:label="Layer 1"
     inkscape:groupmode="layer"
     id="layer1"><g
       inkscape:label="Layer 1"
       id="layer1-9"
       transform="matrix(0.41970116,0,0,0.41970116,-8.4978161,6.9075389)" /><g
       inkscape:label="Layer 1"
       id="layer1-1"
       style="fill:#000000"
       transform="matrix(0.41970116,0,0,0.41970116,2.9904447,-5.4520349)" /><g
       inkscape:label="Layer 1"
       id="layer1-4"
       style="fill:#000000"
       transform="translate(-37.312141,25.95299)" /><path
       id="path2"
       d="M 2.8164548,6.2931184 L 11.76856,11.694064 H 8.1812857 L 6.778766,10.884458 H 2.8164548 L 11.76856,16.285404 H 8.1812857 L 6.778766,15.475798 H 2.8164548 L 12.7,21.438707 L 22.583545,15.475798 H 18.621234 L 17.218714,16.285404 H 13.631447 L 22.583545,10.884458 H 18.621234 L 17.218714,11.694064 H 13.631447 L 22.583545,6.2931184 H 18.621234 L 17.218714,7.1027243 H 8.1812857 L 6.778766,6.2931184 Z M 6.6517649,7.664686 H 18.748235 L 12.7,11.362681 Z M 8.6626875,8.1091755 L 12.7,10.598318 L 16.737313,8.1091755 Z M 6.6517649,12.256026 H 18.748235 L 12.7,15.954021 Z M 8.6626875,12.700517 L 12.7,15.189657 L 16.737313,12.700517 Z M 6.6517649,16.847366 H 18.748235 L 12.7,20.545361 Z M 8.6626875,17.291856 L 12.7,19.780998 L 16.737313,17.291856 Z"
       sodipodi:nodetypes="cccccccccccccccccccccccccccccccccccccccccccccccc"
       fill="#ffffff" /></g><inkscape:templateinfo><inkscape:name>Ability SVG</inkscape:name><inkscape:author>Soulbruh</inkscape:author><inkscape:shortdesc>Used for abilities in BFII</inkscape:shortdesc><inkscape:date>2021-07-24</inkscape:date></inkscape:templateinfo></svg>
