<?xml version="1.0" encoding="UTF-8" standalone="no"?>
<!DOCTYPE svg PUBLIC "-//W3C//DTD SVG 20010904//EN" "http://www.w3.org/TR/2001/REC-SVG-20010904/DTD/svg10.dtd"[]>
<svg version="1.1" id="Frosty Editor v1.0.6.3" xmlns="http://www.w3.org/2000/svg" d1p1:xlink="http://www.w3.org/1999/xlink" viewBox="0 0 384 96" xmlns:d1p1="xmlns">
  <path stroke="none" fill="none" d="M 211.730,39.990 C 211.720,39.243 211.710,38.497 211.700,37.750 211.700,38.497 211.700,39.243 211.700,39.990 211.710,39.990 211.720,39.990 211.730,39.990 211.730,39.990 211.730,39.990 211.730,39.990 Z " />
  <path stroke="none" fill="none" d="M 193.480,22.960 C 199.217,22.960 204.953,22.960 210.690,22.960 210.690,23.337 210.690,23.713 210.690,24.090 211.033,24.090 211.377,24.090 211.720,24.090 211.720,27.457 211.720,30.823 211.720,34.190 211.377,34.190 211.033,34.190 210.690,34.190 210.690,34.527 210.690,34.863 210.690,35.200 211.037,35.200 211.383,35.200 211.730,35.200 211.730,31.177 211.730,27.153 211.730,23.130 211.730,22.163 211.730,21.197 211.730,20.230 211.730,20.033 211.730,19.837 211.730,19.640 208.500,19.640 205.270,19.640 202.040,19.640 202.040,18.213 202.040,16.787 202.040,15.360 201.407,15.360 200.773,15.360 200.140,15.360 200.140,16.787 200.140,18.213 200.140,19.640 197.893,19.640 195.647,19.640 193.400,19.640 193.400,19.360 193.400,19.080 193.400,18.800 189.763,18.800 186.127,18.800 182.490,18.800 182.490,19.133 182.490,19.467 182.490,19.800 186.153,19.800 189.817,19.800 193.480,19.800 193.480,20.853 193.480,21.907 193.480,22.960 193.480,22.960 193.480,22.960 193.480,22.960 Z " />
  <path stroke="none" fill="none" d="M 188.270,30.710 C 194.017,30.710 199.763,30.710 205.510,30.710 206.338,30.710 207.009,30.038 207.009,29.210 207.009,28.382 206.338,27.710 205.510,27.710 199.763,27.710 194.017,27.710 188.270,27.710 187.442,27.710 186.771,28.382 186.771,29.210 186.771,30.038 187.442,30.710 188.270,30.710 188.270,30.710 188.270,30.710 188.270,30.710 Z " />
  <path stroke="none" fill="none" d="M 135.810,35.940 C 135.735,34.414 136.506,32.971 137.817,32.186 139.127,31.400 140.763,31.400 142.074,32.186 143.384,32.971 144.155,34.414 144.080,35.940 144.080,36.010 144.080,36.080 144.080,36.150 160.987,36.150 177.893,36.150 194.800,36.150 194.800,36.537 194.800,36.923 194.800,37.310 197.587,37.310 200.373,37.310 203.160,37.310 205.160,37.427 207.160,37.543 209.160,37.660 209.160,36.880 209.160,36.100 209.160,35.320 200.553,35.320 191.947,35.320 183.340,35.320 183.340,34.943 183.340,34.567 183.340,34.190 183.007,34.190 182.673,34.190 182.340,34.190 182.340,33.400 182.340,32.610 182.340,31.820 173.637,31.820 164.933,31.820 156.230,31.820 156.230,30.107 156.230,28.393 156.230,26.680 135.287,26.680 114.343,26.680 93.400,26.680 92.900,25.477 92.400,24.273 91.900,23.070 91.463,23.070 91.027,23.070 90.590,23.070 90.590,23.157 90.590,23.243 90.590,23.330 88.457,23.330 86.323,23.330 84.190,23.330 83.433,25.553 82.677,27.777 81.920,30.000 80.450,30.000 78.980,30.000 77.510,30.000 77.510,32.063 77.510,34.127 77.510,36.190 96.950,36.190 116.390,36.190 135.830,36.190 135.830,36.070 135.810,36.000 135.810,35.940 135.810,35.940 135.810,35.940 135.810,35.940 Z " />
  <path stroke="none" fill="none" d="M 244.870,33.160 C 243.758,33.160 242.755,32.490 242.329,31.462 241.904,30.435 242.139,29.252 242.925,28.465 243.712,27.679 244.895,27.444 245.922,27.869 246.950,28.295 247.620,29.298 247.620,30.410 247.623,31.145 247.331,31.850 246.811,32.368 246.291,32.887 245.585,33.175 244.850,33.170 244.857,33.167 244.863,33.163 244.870,33.160 Z M 253.870,26.660 C 253.448,26.721 253.037,26.842 252.650,27.020 252.509,27.085 252.361,27.135 252.210,27.170 250.543,27.713 248.877,28.257 247.210,28.800 246.520,26.703 245.830,24.607 245.140,22.510 241.808,22.657 239.225,25.478 239.372,28.810 239.519,32.143 242.339,34.726 245.671,34.580 247.230,34.582 248.729,33.975 249.850,32.890 249.893,32.857 249.937,32.823 249.980,32.790 251.607,31.890 253.233,30.990 254.860,30.090 255.544,29.638 255.854,28.793 255.625,28.006 255.395,27.219 254.680,26.673 253.860,26.660 253.863,26.660 253.867,26.660 253.870,26.660 Z " />
  <path stroke="none" fill="none" d="M 188.260,26.420 C 194.007,26.420 199.753,26.420 205.500,26.420 206.486,26.420 207.397,26.946 207.890,27.800 208.383,28.654 208.383,29.706 207.890,30.560 207.397,31.414 206.486,31.940 205.500,31.940 199.757,31.940 194.013,31.940 188.270,31.940 187.284,31.940 186.373,31.414 185.880,30.560 185.387,29.706 185.387,28.654 185.880,27.800 186.373,26.946 187.284,26.420 188.270,26.420 188.267,26.420 188.263,26.420 188.260,26.420 Z M 209.410,34.000 C 209.410,33.640 209.410,33.280 209.410,32.920 209.743,32.920 210.077,32.920 210.410,32.920 210.410,30.400 210.410,27.880 210.410,25.360 210.077,25.360 209.743,25.360 209.410,25.360 209.410,24.987 209.410,24.613 209.410,24.240 201.143,24.240 192.877,24.240 184.610,24.240 184.610,24.613 184.610,24.987 184.610,25.360 184.277,25.360 183.943,25.360 183.610,25.360 183.610,27.880 183.610,30.400 183.610,32.920 183.943,32.920 184.277,32.920 184.610,32.920 184.610,33.280 184.610,33.640 184.610,34.000 192.877,34.000 201.143,34.000 209.410,34.000 Z " />
  <path stroke="none" fill="none" d="M 255.690,31.090 C 255.637,31.123 255.583,31.157 255.530,31.190 253.927,32.080 252.323,32.970 250.720,33.860 248.595,35.868 245.478,36.416 242.795,35.254 240.112,34.092 238.380,31.444 238.390,28.520 238.406,24.515 241.625,21.260 245.630,21.200 245.787,21.200 245.943,21.200 246.100,21.200 246.433,22.200 246.767,23.200 247.100,24.200 247.550,24.200 248.000,24.200 248.450,24.200 248.450,24.200 248.450,24.200 248.450,24.200 249.833,23.713 251.217,23.227 252.600,22.740 252.913,23.637 253.227,24.533 253.540,25.430 253.657,25.421 253.774,25.421 253.890,25.430 255.256,25.437 256.461,26.322 256.876,27.623 257.291,28.924 256.820,30.344 255.710,31.140 255.703,31.123 255.697,31.107 255.690,31.090 Z M 263.500,38.000 C 271.417,37.843 279.333,37.687 287.250,37.530 287.250,31.567 287.250,25.603 287.250,19.640 263.787,19.640 240.323,19.640 216.860,19.640 216.860,20.803 216.860,21.967 216.860,23.130 216.000,23.130 215.140,23.130 214.280,23.130 214.280,27.903 214.280,32.677 214.280,37.450 230.353,37.450 246.427,37.450 262.500,37.450 262.833,37.633 263.167,37.817 263.500,38.000 Z " />
  <path stroke="none" fill="none" d="M 193.520,39.860 C 193.520,40.120 193.520,40.380 193.520,40.640 198.263,40.470 203.007,40.300 207.750,40.130 206.187,40.037 204.623,39.943 203.060,39.850 199.880,39.853 196.700,39.857 193.520,39.860 193.520,39.860 193.520,39.860 193.520,39.860 Z " />
  <path stroke="none" fill="none" d="M 157.500,21.070 C 157.500,24.230 157.500,27.390 157.500,30.550 165.767,30.550 174.033,30.550 182.300,30.550 182.300,28.397 182.300,26.243 182.300,24.090 182.647,24.090 182.993,24.090 183.340,24.090 183.340,23.713 183.340,23.337 183.340,22.960 186.297,22.960 189.253,22.960 192.210,22.960 192.210,22.330 192.210,21.700 192.210,21.070 188.970,21.070 185.730,21.070 182.490,21.070 176.817,21.070 171.143,21.070 165.470,21.070 162.813,21.070 160.157,21.070 157.500,21.070 157.500,21.070 157.500,21.070 157.500,21.070 Z " />
  <path stroke="none" fill="none" d="M 156.230,25.410 C 156.230,23.977 156.230,22.543 156.230,21.110 152.970,22.110 151.720,23.830 151.170,25.410 152.857,25.410 154.543,25.410 156.230,25.410 Z " />
  <path stroke="none" fill="none" d="M 93.300,23.110 C 100.533,23.110 107.767,23.110 115.000,23.110 115.130,23.110 130.450,22.390 139.060,20.530 140.940,20.120 142.570,19.710 144.140,19.310 126.310,19.310 108.480,19.310 90.650,19.310 90.603,19.550 90.583,19.795 90.590,20.040 90.590,20.627 90.590,21.213 90.590,21.800 91.310,21.800 92.030,21.800 92.750,21.800 92.933,22.237 93.117,22.673 93.300,23.110 Z " />
  <path stroke="none" fill="none" d="M 115.000,24.380 C 107.943,24.380 100.887,24.380 93.830,24.380 93.973,24.713 94.117,25.047 94.260,25.380 112.787,25.380 131.313,25.380 149.840,25.380 150.730,22.270 153.560,18.540 165.480,18.920 165.480,18.880 165.480,18.840 165.480,18.800 163.083,18.800 160.687,18.800 158.290,18.800 155.553,18.940 152.817,19.080 150.080,19.220 148.300,19.570 146.620,19.990 144.830,20.450 143.040,20.910 141.400,21.330 139.350,21.770 130.620,23.650 115.190,24.370 115.000,24.380 115.000,24.380 115.000,24.380 115.000,24.380 Z " />
  <path stroke="none" fill="none" d="M 166.750,18.800 C 171.573,18.800 176.397,18.800 181.220,18.800 181.220,19.133 181.220,19.467 181.220,19.800 176.397,19.800 171.573,19.800 166.750,19.800 166.750,19.467 166.750,19.133 166.750,18.800 Z " />
  <path stroke="none" fill="none" d="M 246.330,30.420 C 246.330,31.237 245.667,31.900 244.850,31.900 244.033,31.900 243.370,31.237 243.370,30.420 243.370,29.603 244.033,28.940 244.850,28.940 245.667,28.940 246.330,29.603 246.330,30.420 246.330,30.420 246.330,30.420 246.330,30.420 Z " />
  <path stroke="none" fill="none" d="M 313.360,24.190 C 313.273,24.190 313.187,24.190 313.100,24.190 313.100,22.990 313.100,21.790 313.100,20.590 310.683,20.590 308.267,20.590 305.850,20.590 305.850,22.603 305.850,24.617 305.850,26.630 308.353,26.630 310.857,26.630 313.360,26.630 313.360,25.817 313.360,25.003 313.360,24.190 313.360,24.190 313.360,24.190 313.360,24.190 Z " />
  <path stroke="none" fill="none" d="M 305.850,27.900 C 308.173,27.900 310.497,27.900 312.820,27.900 312.820,28.490 312.820,29.080 312.820,29.670 310.497,29.670 308.173,29.670 305.850,29.670 305.850,29.080 305.850,28.490 305.850,27.900 Z " />
  <path stroke="none" fill="none" d="M 309.310,37.110 C 309.840,37.110 310.370,37.110 310.900,37.110 311.003,37.027 311.107,36.943 311.210,36.860 311.789,36.420 312.425,36.060 313.100,35.790 313.100,34.977 313.100,34.163 313.100,33.350 313.187,33.350 313.273,33.350 313.360,33.350 313.360,32.550 313.360,31.750 313.360,30.950 312.007,30.950 310.653,30.950 309.300,30.950 309.303,33.003 309.307,35.057 309.310,37.110 Z " />
  <path stroke="none" fill="none" d="M 249.330,26.780 C 249.180,26.350 249.030,25.920 248.880,25.490 248.417,25.490 247.953,25.490 247.490,25.490 247.677,26.060 247.863,26.630 248.050,27.200 248.477,27.060 248.903,26.920 249.330,26.780 249.330,26.780 249.330,26.780 249.330,26.780 Z " />
  <path stroke="none" fill="none" d="M 304.580,26.630 C 304.580,24.617 304.580,22.603 304.580,20.590 304.507,20.590 304.433,20.590 304.360,20.590 304.360,20.127 304.360,19.663 304.360,19.200 303.803,19.200 303.247,19.200 302.690,19.200 302.690,23.010 302.690,26.820 302.690,30.630 303.320,30.630 303.950,30.630 304.580,30.630 304.580,29.297 304.580,27.963 304.580,26.630 304.580,26.630 304.580,26.630 304.580,26.630 Z " />
  <path stroke="none" fill="none" d="M 314.640,24.190 C 314.800,24.190 314.960,24.190 315.120,24.190 315.120,27.240 315.120,30.290 315.120,33.340 314.960,33.340 314.800,33.340 314.640,33.340 314.640,30.290 314.640,27.240 314.640,24.190 Z " />
  <path stroke="none" fill="none" d="M 289.500,21.210 C 289.413,21.210 289.327,21.210 289.240,21.210 289.240,20.443 289.240,19.677 289.240,18.910 289.000,18.910 288.760,18.910 288.520,18.910 288.520,25.113 288.520,31.317 288.520,37.520 288.847,37.513 289.173,37.507 289.500,37.500 289.500,32.070 289.500,26.640 289.500,21.210 289.500,21.210 289.500,21.210 289.500,21.210 Z " />
  <path stroke="none" fill="none" d="M 250.042,24.963 C 250.624,24.759 251.205,24.554 251.787,24.350 251.948,24.809 252.110,25.268 252.271,25.727 251.690,25.932 251.108,26.136 250.526,26.341 250.365,25.882 250.203,25.422 250.042,24.963 Z " />
  <path stroke="none" fill="none" d="M 292.920,30.630 C 292.920,27.490 292.920,24.350 292.920,21.210 292.203,21.210 291.487,21.210 290.770,21.210 290.770,26.633 290.770,32.057 290.770,37.480 291.487,37.463 292.203,37.447 292.920,37.430 292.920,35.163 292.920,32.897 292.920,30.630 292.920,30.630 292.920,30.630 292.920,30.630 Z " />
  <path stroke="none" fill="none" d="M 291.790,18.660 C 291.830,18.660 291.870,18.660 291.910,18.660 291.910,17.893 291.910,17.127 291.910,16.360 295.220,16.360 298.530,16.360 301.840,16.360 301.933,14.783 302.027,13.207 302.120,11.630 302.040,10.087 301.960,8.543 301.880,7.000 301.880,6.472 301.672,5.965 301.300,5.590 300.811,5.360 300.268,5.267 299.730,5.320 298.882,5.239 298.057,5.621 297.570,6.320 297.380,6.560 296.220,8.210 290.800,16.320 291.133,16.320 291.467,16.320 291.800,16.320 291.797,17.100 291.793,17.880 291.790,18.660 Z " />
  <path stroke="none" fill="none" d="M 301.410,31.900 C 299.003,31.900 296.597,31.900 294.190,31.900 294.190,33.737 294.190,35.573 294.190,37.410 298.803,37.320 303.417,37.230 308.030,37.140 308.030,35.393 308.030,33.647 308.030,31.900 307.303,31.900 306.577,31.900 305.850,31.900 305.850,32.173 305.850,32.447 305.850,32.720 304.370,32.720 302.890,32.720 301.410,32.720 301.410,32.447 301.410,32.173 301.410,31.900 301.410,31.900 301.410,31.900 301.410,31.900 Z " />
  <path stroke="none" fill="none" d="M 301.410,18.910 C 299.090,18.910 296.770,18.910 294.450,18.910 294.450,19.677 294.450,20.443 294.450,21.210 294.363,21.210 294.277,21.210 294.190,21.210 294.190,24.350 294.190,27.490 294.190,30.630 296.597,30.630 299.003,30.630 301.410,30.630 301.410,26.723 301.410,22.817 301.410,18.910 301.410,18.910 301.410,18.910 301.410,18.910 Z " />
  <path stroke="none" fill="none" d="M 315.150,46.000 C 312.991,46.000 311.240,44.249 311.240,42.090 311.240,39.931 312.991,38.180 315.150,38.180 317.309,38.180 319.060,39.931 319.060,42.090 319.060,43.127 318.648,44.122 317.915,44.855 317.182,45.588 316.187,46.000 315.150,46.000 315.150,46.000 315.150,46.000 315.150,46.000 Z M 323.000,40.000 C 322.893,39.960 322.787,39.920 322.680,39.880 320.440,39.020 316.810,37.800 315.730,37.800 315.411,37.800 315.093,37.850 314.790,37.950 314.477,38.053 314.163,38.157 313.850,38.260 313.467,38.428 313.105,38.639 312.770,38.890 312.190,39.330 311.280,40.100 310.410,40.840 307.940,42.930 307.200,43.510 306.640,43.680 306.573,43.680 306.507,43.680 306.440,43.680 294.673,45.210 282.907,46.740 271.140,48.270 266.970,48.847 262.800,49.423 258.630,50.000 258.907,51.793 259.183,53.587 259.460,55.380 281.307,51.983 303.153,48.587 325.000,45.190 324.720,43.390 324.440,41.590 324.160,39.790 323.773,39.860 323.387,39.930 323.000,40.000 Z " />
  <path stroke="none" fill="none" d="M 155.160,57.490 C 155.013,57.490 154.867,57.490 154.720,57.490 151.601,57.609 148.971,55.188 148.830,52.070 148.830,49.607 148.830,47.143 148.830,44.680 148.913,42.121 150.741,39.953 153.250,39.440 152.143,39.440 151.037,39.440 149.930,39.440 147.647,44.293 145.363,49.147 143.080,54.000 144.202,54.154 145.305,54.426 146.370,54.810 147.247,55.248 147.967,55.946 148.430,56.810 149.120,57.810 149.720,58.740 152.510,58.740 152.867,58.740 153.223,58.740 153.580,58.740 158.450,58.740 168.580,58.870 172.280,48.920 172.103,48.551 171.962,48.166 171.860,47.770 169.180,55.400 160.290,57.490 155.160,57.490 155.160,57.490 155.160,57.490 155.160,57.490 Z " />
  <path stroke="none" fill="none" d="M 142.960,45.630 C 141.832,45.630 140.814,44.950 140.382,43.908 139.951,42.865 140.189,41.665 140.987,40.867 141.785,40.069 142.985,39.831 144.028,40.262 145.070,40.694 145.750,41.712 145.750,42.840 145.723,44.346 144.506,45.559 143.000,45.580 142.987,45.597 142.973,45.613 142.960,45.630 Z M 141.730,50.630 C 137.217,59.513 132.703,68.397 128.190,77.280 128.190,77.280 128.190,77.280 128.190,77.280 127.593,78.444 126.172,78.912 125.000,78.330 122.640,77.133 120.280,75.937 117.920,74.740 116.745,74.143 116.275,72.706 116.870,71.530 121.383,62.647 125.897,53.763 130.410,44.880 131.007,43.704 132.444,43.235 133.620,43.830 135.980,45.027 138.340,46.223 140.700,47.420 141.876,48.017 142.345,49.454 141.750,50.630 141.743,50.630 141.737,50.630 141.730,50.630 Z M 131.130,84.700 C 131.130,85.828 130.450,86.846 129.408,87.278 128.365,87.709 127.165,87.471 126.367,86.673 125.569,85.875 125.331,84.675 125.762,83.632 126.194,82.590 127.212,81.910 128.340,81.910 129.881,81.910 131.130,83.159 131.130,84.700 131.130,84.700 131.130,84.700 131.130,84.700 Z M 113.810,78.470 C 112.269,78.470 111.020,77.221 111.020,75.680 111.020,74.139 112.269,72.890 113.810,72.890 115.351,72.890 116.600,74.139 116.600,75.680 116.600,76.420 116.306,77.130 115.783,77.653 115.260,78.176 114.550,78.470 113.810,78.470 113.810,78.470 113.810,78.470 113.810,78.470 Z M 124.930,40.000 C 126.471,40.000 127.720,41.249 127.720,42.790 127.720,44.331 126.471,45.580 124.930,45.580 123.389,45.580 122.140,44.331 122.140,42.790 122.140,42.050 122.434,41.340 122.957,40.817 123.480,40.294 124.190,40.000 124.930,40.000 124.930,40.000 124.930,40.000 124.930,40.000 Z M 104.340,46.830 C 102.418,46.830 100.860,45.272 100.860,43.350 100.860,41.428 102.418,39.870 104.340,39.870 106.262,39.870 107.820,41.428 107.820,43.350 107.820,44.273 107.453,45.158 106.801,45.811 106.148,46.463 105.263,46.830 104.340,46.830 104.340,46.830 104.340,46.830 104.340,46.830 Z M 142.120,39.440 C 140.797,40.297 139.093,40.297 137.770,39.440 125.367,39.440 112.963,39.440 100.560,39.440 100.560,40.863 100.560,42.287 100.560,43.710 100.704,45.637 102.360,47.098 104.290,47.000 106.363,46.973 108.022,45.273 108.000,43.200 108.000,41.967 108.000,40.733 108.000,39.500 108.630,40.307 109.260,41.113 109.890,41.920 111.747,41.920 113.603,41.920 115.460,41.920 115.460,41.920 115.460,41.920 115.460,41.920 117.784,41.708 119.978,43.027 120.880,45.180 122.129,48.302 121.931,51.817 120.340,54.780 119.340,56.900 117.080,60.470 114.940,63.930 113.250,66.660 111.650,69.240 111.020,70.480 110.950,70.620 110.880,70.760 110.810,70.900 109.250,74.010 107.860,77.130 109.570,78.250 111.760,79.690 119.490,84.700 123.290,87.160 123.350,87.203 123.410,87.247 123.470,87.290 124.130,87.860 126.350,89.450 127.860,89.290 127.910,89.290 127.960,89.290 128.010,89.290 129.033,89.303 129.999,88.818 130.600,87.990 131.437,86.869 131.893,85.509 131.900,84.110 131.250,83.110 130.430,81.890 129.550,80.630 129.387,80.393 129.223,80.157 129.060,79.920 133.207,71.210 137.353,62.500 141.500,53.790 141.570,53.790 141.640,53.790 141.710,53.790 143.963,49.007 146.217,44.223 148.470,39.440 146.353,39.440 144.237,39.440 142.120,39.440 Z " />
  <path stroke="none" fill="none" d="M 140.100,48.560 C 137.733,47.373 135.367,46.187 133.000,45.000 132.736,44.864 132.430,44.840 132.148,44.932 131.866,45.024 131.633,45.225 131.500,45.490 127.000,54.363 122.500,63.237 118.000,72.110 117.724,72.657 117.944,73.323 118.490,73.600 120.850,74.797 123.210,75.993 125.570,77.190 126.120,77.466 126.790,77.248 127.070,76.700 127.070,76.700 127.070,76.700 127.070,76.700 131.583,67.817 136.097,58.933 140.610,50.050 140.746,49.786 140.770,49.480 140.678,49.198 140.586,48.916 140.385,48.683 140.120,48.550 140.113,48.553 140.107,48.557 140.100,48.560 Z " />
  <path stroke="none" fill="none" d="M 181.000,40.630 C 181.333,40.773 181.667,40.917 182.000,41.060 185.000,40.953 188.000,40.847 191.000,40.740 191.000,40.307 191.000,39.873 191.000,39.440 184.550,39.440 178.100,39.440 171.650,39.440 171.839,39.534 172.009,39.663 172.150,39.820 172.693,40.642 172.897,41.641 172.720,42.610 174.551,39.887 178.161,39.019 181.030,40.610 181.020,40.617 181.010,40.623 181.000,40.630 Z " />
  <path stroke="none" fill="none" d="M 144.470,42.790 C 144.470,43.624 143.794,44.300 142.960,44.300 142.126,44.300 141.450,43.624 141.450,42.790 141.450,41.956 142.126,41.280 142.960,41.280 143.794,41.280 144.470,41.956 144.470,42.790 144.470,42.790 144.470,42.790 144.470,42.790 Z " />
  <path stroke="none" fill="none" d="M 279.710,44.600 C 288.430,43.467 297.150,42.333 305.870,41.200 306.220,40.980 307.000,40.340 307.760,39.700 294.477,39.960 281.193,40.220 267.910,40.480 267.933,40.480 267.957,40.480 267.980,40.480 240.980,41.453 213.980,42.427 186.980,43.400 188.374,44.771 188.503,46.975 187.280,48.500 218.103,47.167 248.927,45.833 279.750,44.500 279.737,44.533 279.723,44.567 279.710,44.600 Z " />
  <path stroke="none" fill="none" d="M 156.310,41.810 C 155.790,41.810 155.270,41.810 154.750,41.810 153.034,41.689 151.539,42.966 151.390,44.680 151.390,47.143 151.390,49.607 151.390,52.070 151.462,53.371 152.381,54.470 153.650,54.770 153.072,53.371 153.266,51.771 154.160,50.550 154.300,50.300 154.450,50.040 154.570,49.760 154.790,49.260 154.770,49.230 154.420,48.760 154.068,48.356 153.811,47.877 153.670,47.360 153.355,46.046 153.625,44.660 154.410,43.560 154.929,42.864 155.574,42.270 156.310,41.810 156.310,41.810 156.310,41.810 156.310,41.810 Z " />
  <path stroke="none" fill="none" d="M 179.210,46.120 C 179.210,46.832 178.632,47.410 177.920,47.410 177.208,47.410 176.630,46.832 176.630,46.120 176.630,45.408 177.208,44.830 177.920,44.830 178.632,44.830 179.210,45.408 179.210,46.120 179.210,46.120 179.210,46.120 179.210,46.120 Z " />
  <path stroke="none" fill="none" d="M 184.460,44.870 C 184.367,44.840 184.273,44.810 184.180,44.780 182.847,44.193 181.513,43.607 180.180,43.020 181.247,43.786 181.842,45.049 181.755,46.359 181.667,47.670 180.909,48.842 179.750,49.460 179.770,49.460 179.790,49.460 179.810,49.460 180.117,49.327 180.423,49.193 180.730,49.060 180.827,49.013 180.923,48.967 181.020,48.920 181.103,48.877 181.187,48.833 181.270,48.790 181.297,48.790 181.323,48.790 181.350,48.790 182.387,48.340 183.423,47.890 184.460,47.440 184.507,47.423 184.553,47.407 184.600,47.390 185.177,47.223 185.562,46.679 185.528,46.079 185.495,45.480 185.052,44.982 184.460,44.880 184.460,44.877 184.460,44.873 184.460,44.870 Z " />
  <path stroke="none" fill="none" d="M 129.860,84.700 C 129.860,85.534 129.184,86.210 128.350,86.210 127.516,86.210 126.840,85.534 126.840,84.700 126.840,83.866 127.516,83.190 128.350,83.190 129.184,83.190 129.860,83.866 129.860,84.700 129.860,84.700 129.860,84.700 129.860,84.700 Z " />
  <path stroke="none" fill="none" d="M 317.780,42.110 C 317.780,43.563 316.603,44.740 315.150,44.740 313.698,44.740 312.520,43.563 312.520,42.110 312.520,40.657 313.698,39.480 315.150,39.480 316.603,39.480 317.780,40.657 317.780,42.110 317.780,42.110 317.780,42.110 317.780,42.110 Z " />
  <path stroke="none" fill="none" d="M 100.560,38.160 C 112.530,38.160 124.500,38.160 136.470,38.160 136.318,37.924 136.191,37.672 136.090,37.410 116.563,37.410 97.037,37.410 77.510,37.410 77.510,37.570 77.510,37.730 77.510,37.890 85.193,37.890 92.877,37.890 100.560,37.890 100.560,37.980 100.560,38.070 100.560,38.160 Z " />
  <path stroke="none" fill="none" d="M 106.550,43.350 C 106.550,44.571 105.561,45.560 104.340,45.560 103.119,45.560 102.130,44.571 102.130,43.350 102.130,42.129 103.119,41.140 104.340,41.140 105.561,41.140 106.550,42.129 106.550,43.350 106.550,43.350 106.550,43.350 106.550,43.350 Z " />
  <path stroke="none" fill="none" d="M 126.440,42.790 C 126.440,43.624 125.764,44.300 124.930,44.300 124.096,44.300 123.420,43.624 123.420,42.790 123.420,41.956 124.096,41.280 124.930,41.280 125.764,41.280 126.440,41.956 126.440,42.790 126.440,42.790 126.440,42.790 126.440,42.790 Z " />
  <path stroke="none" fill="none" d="M 191.500,37.420 C 175.597,37.420 159.693,37.420 143.790,37.420 143.689,37.682 143.562,37.934 143.410,38.170 159.440,38.170 175.470,38.170 191.500,38.170 191.500,37.920 191.500,37.670 191.500,37.420 Z " />
  <path stroke="none" fill="none" d="M 142.800,35.940 C 142.800,37.520 141.520,38.800 139.940,38.800 138.361,38.800 137.080,37.520 137.080,35.940 137.080,34.360 138.361,33.080 139.940,33.080 141.520,33.080 142.800,34.360 142.800,35.940 142.800,35.940 142.800,35.940 142.800,35.940 Z " />
  <path stroke="none" fill="none" d="M 156.390,51.790 C 155.760,52.920 155.470,53.460 156.760,54.860 160.640,54.510 168.930,52.860 169.970,44.630 170.110,43.700 170.186,42.761 170.200,41.820 168.133,41.820 166.067,41.820 164.000,41.820 162.330,42.000 157.900,43.000 156.500,45.000 156.128,45.506 156.003,46.152 156.160,46.760 156.233,46.904 156.324,47.039 156.430,47.160 157.339,48.133 157.528,49.576 156.900,50.750 156.750,51.140 156.570,51.470 156.390,51.790 156.390,51.790 156.390,51.790 156.390,51.790 Z " />
  <path stroke="none" fill="none" d="M 115.320,75.680 C 115.320,76.514 114.644,77.190 113.810,77.190 112.976,77.190 112.300,76.514 112.300,75.680 112.300,74.846 112.976,74.170 113.810,74.170 114.644,74.170 115.320,74.846 115.320,75.680 115.320,75.680 115.320,75.680 115.320,75.680 Z " />
  <path stroke="none" fill="#ffffffff" d="M 315.150,44.750 C 313.698,44.750 312.520,43.573 312.520,42.120 312.520,40.667 313.698,39.490 315.150,39.490 316.603,39.490 317.780,40.667 317.780,42.120 317.775,43.570 316.600,44.745 315.150,44.750 315.150,44.750 315.150,44.750 315.150,44.750 Z M 315.150,38.210 C 312.991,38.210 311.240,39.961 311.240,42.120 311.240,44.279 312.991,46.030 315.150,46.030 317.309,46.030 319.060,44.279 319.060,42.120 319.060,41.083 318.648,40.088 317.915,39.355 317.182,38.622 316.187,38.210 315.150,38.210 315.150,38.210 315.150,38.210 315.150,38.210 Z " />
  <path stroke="none" fill="#ffffffff" d="M 104.340,45.550 C 103.446,45.550 102.640,45.012 102.298,44.186 101.956,43.360 102.145,42.409 102.777,41.777 103.409,41.145 104.360,40.956 105.186,41.298 106.012,41.640 106.550,42.446 106.550,43.340 106.553,43.928 106.321,44.493 105.906,44.909 105.492,45.326 104.928,45.560 104.340,45.560 104.340,45.557 104.340,45.553 104.340,45.550 Z M 104.340,39.870 C 102.418,39.870 100.860,41.428 100.860,43.350 100.860,45.272 102.418,46.830 104.340,46.830 106.262,46.830 107.820,45.272 107.820,43.350 107.820,42.427 107.453,41.542 106.801,40.889 106.148,40.237 105.263,39.870 104.340,39.870 104.340,39.870 104.340,39.870 104.340,39.870 Z " />
  <path stroke="none" fill="#ffffffff" d="M 259.460,55.440 C 259.183,53.627 258.907,51.813 258.630,50.000 262.793,49.443 266.957,48.887 271.120,48.330 282.887,46.800 294.653,45.270 306.420,43.740 306.487,43.740 306.553,43.740 306.620,43.740 307.180,43.570 307.930,42.980 310.390,40.900 311.260,40.160 312.170,39.400 312.750,38.950 313.085,38.699 313.447,38.488 313.830,38.320 314.143,38.217 314.457,38.113 314.770,38.010 315.073,37.910 315.391,37.860 315.710,37.860 316.790,37.860 320.420,39.070 322.660,39.940 322.773,39.960 322.887,39.980 323.000,40.000 323.377,39.940 323.753,39.880 324.130,39.820 324.410,41.620 324.690,43.420 324.970,45.220 303.133,48.627 281.297,52.033 259.460,55.440 Z M 187.250,48.640 C 188.473,47.115 188.344,44.911 186.950,43.540 213.950,42.567 240.950,41.593 267.950,40.620 267.927,40.620 267.903,40.620 267.880,40.620 281.163,40.360 294.447,40.100 307.730,39.840 306.960,40.480 306.180,41.120 305.840,41.340 297.120,42.473 288.400,43.607 279.680,44.740 279.680,44.740 279.680,44.740 279.680,44.740 248.870,46.040 218.060,47.340 187.250,48.640 Z M 184.610,47.490 C 184.563,47.507 184.517,47.523 184.470,47.540 183.433,47.990 182.397,48.440 181.360,48.890 181.333,48.890 181.307,48.890 181.280,48.890 181.197,48.933 181.113,48.977 181.030,49.020 180.933,49.067 180.837,49.113 180.740,49.160 180.433,49.293 180.127,49.427 179.820,49.560 179.800,49.560 179.780,49.560 179.760,49.560 180.919,48.942 181.677,47.770 181.765,46.460 181.852,45.149 181.257,43.886 180.190,43.120 181.523,43.707 182.857,44.293 184.190,44.880 184.283,44.910 184.377,44.940 184.470,44.970 185.062,45.072 185.505,45.570 185.538,46.169 185.572,46.769 185.187,47.313 184.610,47.480 184.610,47.483 184.610,47.487 184.610,47.490 Z M 177.930,47.490 C 177.408,47.490 176.938,47.176 176.738,46.694 176.539,46.212 176.649,45.657 177.018,45.288 177.387,44.919 177.942,44.809 178.424,45.008 178.906,45.208 179.220,45.678 179.220,46.200 179.172,46.881 178.603,47.407 177.920,47.400 177.923,47.430 177.927,47.460 177.930,47.490 Z M 172.730,42.700 C 172.907,41.731 172.703,40.732 172.160,39.910 172.019,39.753 171.849,39.624 171.660,39.530 178.107,39.530 184.553,39.530 191.000,39.530 191.000,39.963 191.000,40.397 191.000,40.830 188.000,40.937 185.000,41.043 182.000,41.150 181.667,41.007 181.333,40.863 181.000,40.720 178.131,39.129 174.521,39.997 172.690,42.720 172.703,42.713 172.717,42.707 172.730,42.700 Z M 153.580,58.790 C 153.220,58.790 152.860,58.790 152.500,58.790 149.710,58.790 149.110,57.900 148.420,56.860 147.957,55.996 147.237,55.298 146.360,54.860 145.295,54.476 144.192,54.204 143.070,54.050 145.357,49.197 147.643,44.343 149.930,39.490 151.037,39.490 152.143,39.490 153.250,39.490 150.741,40.003 148.913,42.171 148.830,44.730 148.830,47.193 148.830,49.657 148.830,52.120 148.971,55.238 151.601,57.659 154.720,57.540 154.867,57.540 155.013,57.540 155.160,57.540 160.280,57.540 169.160,55.450 171.840,47.780 171.942,48.176 172.083,48.561 172.260,48.930 168.560,58.830 158.440,58.750 153.570,58.700 153.573,58.730 153.577,58.760 153.580,58.790 Z M 141.780,53.870 C 141.710,53.870 141.640,53.870 141.570,53.870 137.420,62.540 133.270,71.210 129.120,79.880 129.283,80.117 129.447,80.353 129.610,80.590 130.480,81.860 131.310,83.050 131.960,84.070 131.953,85.469 131.497,86.829 130.660,87.950 130.059,88.778 129.093,89.263 128.070,89.250 128.020,89.250 127.970,89.250 127.920,89.250 126.410,89.410 124.190,87.820 123.530,87.250 123.470,87.207 123.410,87.163 123.350,87.120 119.550,84.660 111.820,79.650 109.630,78.210 107.930,77.090 109.310,73.970 110.870,70.860 110.940,70.720 111.010,70.580 111.080,70.440 111.700,69.200 113.300,66.620 115.000,63.890 117.150,60.430 119.360,56.890 120.400,54.740 121.991,51.777 122.189,48.262 120.940,45.140 120.038,42.987 117.844,41.668 115.520,41.880 115.520,41.880 115.520,41.880 115.520,41.880 113.663,41.880 111.807,41.880 109.950,41.880 109.300,41.087 108.650,40.293 108.000,39.500 108.000,40.733 108.000,41.967 108.000,43.200 108.022,45.273 106.363,46.973 104.290,47.000 102.374,47.099 100.725,45.661 100.560,43.750 100.560,42.313 100.560,40.877 100.560,39.440 112.963,39.440 125.367,39.440 137.770,39.440 139.093,40.297 140.797,40.297 142.120,39.440 144.260,39.440 146.400,39.440 148.540,39.440 146.287,44.250 144.033,49.060 141.780,53.870 Z M 77.520,37.980 C 77.520,37.820 77.520,37.660 77.520,37.500 97.050,37.500 116.580,37.500 136.110,37.500 136.211,37.762 136.338,38.014 136.490,38.250 124.513,38.250 112.537,38.250 100.560,38.250 100.560,38.133 100.560,38.017 100.560,37.900 92.880,37.927 85.200,37.953 77.520,37.980 Z M 142.820,35.980 C 142.820,37.560 141.540,38.840 139.960,38.840 138.381,38.840 137.100,37.560 137.100,35.980 137.100,34.400 138.381,33.120 139.960,33.120 141.516,33.131 142.778,34.384 142.800,35.940 142.807,35.953 142.813,35.967 142.820,35.980 Z M 143.430,38.210 C 143.582,37.974 143.709,37.722 143.810,37.460 159.707,37.460 175.603,37.460 191.500,37.460 191.500,37.710 191.500,37.960 191.500,38.210 175.477,38.210 159.453,38.210 143.430,38.210 Z M 156.430,47.210 C 156.324,47.089 156.233,46.954 156.160,46.810 155.987,46.187 156.113,45.518 156.500,45.000 157.910,43.000 162.330,42.000 164.010,41.770 166.070,41.770 168.130,41.770 170.190,41.770 170.176,42.711 170.100,43.649 169.960,44.580 168.960,52.770 160.630,54.470 156.750,54.810 155.460,53.410 155.750,52.880 156.380,51.740 156.560,51.420 156.740,51.100 156.890,50.740 157.492,49.583 157.308,48.174 156.430,47.210 156.430,47.210 156.430,47.210 156.430,47.210 Z M 153.670,47.380 C 153.811,47.897 154.068,48.376 154.420,48.780 154.770,49.230 154.800,49.260 154.570,49.780 154.450,50.060 154.300,50.320 154.160,50.570 153.266,51.791 153.072,53.391 153.650,54.790 152.382,54.490 151.462,53.391 151.390,52.090 151.390,49.620 151.390,47.150 151.390,44.680 151.539,42.966 153.034,41.689 154.750,41.810 155.270,41.810 155.790,41.810 156.310,41.810 155.572,42.276 154.927,42.877 154.410,43.580 153.625,44.680 153.355,46.066 153.670,47.380 153.670,47.380 153.670,47.380 153.670,47.380 Z M 207.740,40.130 C 202.997,40.300 198.253,40.470 193.510,40.640 193.510,40.377 193.510,40.113 193.510,39.850 196.690,39.850 199.870,39.850 203.050,39.850 204.613,39.943 206.177,40.037 207.740,40.130 Z M 77.510,30.000 C 78.983,30.000 80.457,30.000 81.930,30.000 82.683,27.790 83.437,25.580 84.190,23.370 86.323,23.370 88.457,23.370 90.590,23.370 90.590,23.283 90.590,23.197 90.590,23.110 91.027,23.110 91.463,23.110 91.900,23.110 92.400,24.313 92.900,25.517 93.400,26.720 114.340,26.720 135.280,26.720 156.220,26.720 156.220,28.433 156.220,30.147 156.220,31.860 164.913,31.860 173.607,31.860 182.300,31.860 182.300,32.650 182.300,33.440 182.300,34.230 182.633,34.230 182.967,34.230 183.300,34.230 183.300,34.603 183.300,34.977 183.300,35.350 191.903,35.350 200.507,35.350 209.110,35.350 209.110,36.130 209.110,36.910 209.110,37.690 207.110,37.573 205.110,37.457 203.110,37.340 200.323,37.340 197.537,37.340 194.750,37.340 194.750,36.940 194.750,36.540 194.750,36.140 177.853,36.140 160.957,36.140 144.060,36.140 144.060,36.070 144.060,36.000 144.060,35.930 144.135,34.404 143.364,32.961 142.053,32.176 140.743,31.390 139.107,31.390 137.797,32.176 136.486,32.961 135.715,34.404 135.790,35.930 135.790,36.000 135.790,36.070 135.790,36.140 116.363,36.140 96.937,36.140 77.510,36.140 77.510,34.093 77.510,32.047 77.510,30.000 Z M 90.590,20.000 C 90.583,19.755 90.603,19.510 90.650,19.270 108.483,19.270 126.317,19.270 144.150,19.270 142.580,19.670 140.950,20.080 139.070,20.490 130.460,22.350 115.130,23.070 115.010,23.070 107.773,23.070 100.537,23.070 93.300,23.070 93.120,22.637 92.940,22.203 92.760,21.770 92.037,21.770 91.313,21.770 90.590,21.770 90.590,21.180 90.590,20.590 90.590,20.000 Z M 156.230,21.110 C 156.230,22.543 156.230,23.977 156.230,25.410 154.543,25.410 152.857,25.410 151.170,25.410 151.720,23.820 153.000,22.120 156.230,21.110 156.230,21.110 156.230,21.110 156.230,21.110 Z M 150.070,19.220 C 152.807,19.080 155.543,18.940 158.280,18.800 160.677,18.800 163.073,18.800 165.470,18.800 165.470,18.847 165.470,18.893 165.470,18.940 153.550,18.560 150.720,22.290 149.830,25.400 131.303,25.400 112.777,25.400 94.250,25.400 94.107,25.067 93.963,24.733 93.820,24.400 100.880,24.400 107.940,24.400 115.000,24.400 115.160,24.400 130.580,23.670 139.300,21.790 141.300,21.350 143.090,20.900 144.780,20.470 146.470,20.040 148.290,19.570 150.070,19.220 150.070,19.220 150.070,19.220 150.070,19.220 Z M 166.750,18.800 C 171.573,18.800 176.397,18.800 181.220,18.800 181.220,19.133 181.220,19.467 181.220,19.800 176.397,19.800 171.573,19.800 166.750,19.800 166.750,19.467 166.750,19.133 166.750,18.800 Z M 192.210,21.080 C 192.210,21.720 192.210,22.360 192.210,23.000 189.253,23.000 186.297,23.000 183.340,23.000 183.340,23.373 183.340,23.747 183.340,24.120 183.007,24.120 182.673,24.120 182.340,24.120 182.340,26.273 182.340,28.427 182.340,30.580 174.060,30.580 165.780,30.580 157.500,30.580 157.500,27.410 157.500,24.240 157.500,21.070 169.070,21.070 180.640,21.070 192.210,21.070 192.210,21.073 192.210,21.077 192.210,21.080 Z M 183.570,32.930 C 183.570,30.407 183.570,27.883 183.570,25.360 183.903,25.360 184.237,25.360 184.570,25.360 184.570,24.987 184.570,24.613 184.570,24.240 192.837,24.240 201.103,24.240 209.370,24.240 209.370,24.613 209.370,24.987 209.370,25.360 209.703,25.360 210.037,25.360 210.370,25.360 210.370,27.880 210.370,30.400 210.370,32.920 210.037,32.920 209.703,32.920 209.370,32.920 209.370,33.280 209.370,33.640 209.370,34.000 201.103,34.000 192.837,34.000 184.570,34.000 184.570,33.640 184.570,33.280 184.570,32.920 184.237,32.923 183.903,32.927 183.570,32.930 Z M 211.730,40.000 C 211.730,40.000 211.730,40.000 211.730,40.000 211.730,39.250 211.730,38.500 211.730,37.750 211.730,38.500 211.730,39.250 211.730,40.000 Z M 182.490,18.800 C 186.127,18.800 189.763,18.800 193.400,18.800 193.400,19.080 193.400,19.360 193.400,19.640 195.647,19.640 197.893,19.640 200.140,19.640 200.140,18.213 200.140,16.787 200.140,15.360 200.760,15.360 201.380,15.360 202.000,15.360 202.000,16.787 202.000,18.213 202.000,19.640 205.230,19.640 208.460,19.640 211.690,19.640 211.690,24.827 211.690,30.013 211.690,35.200 211.357,35.200 211.023,35.200 210.690,35.200 210.690,34.867 210.690,34.533 210.690,34.200 211.023,34.200 211.357,34.200 211.690,34.200 211.690,30.830 211.690,27.460 211.690,24.090 211.357,24.090 211.023,24.090 210.690,24.090 210.690,23.727 210.690,23.363 210.690,23.000 204.957,23.000 199.223,23.000 193.490,23.000 193.490,21.933 193.490,20.867 193.490,19.800 189.823,19.800 186.157,19.800 182.490,19.800 182.490,19.467 182.490,19.133 182.490,18.800 Z M 214.280,35.200 C 214.280,31.177 214.280,27.153 214.280,23.130 215.140,23.130 216.000,23.130 216.860,23.130 216.860,21.967 216.860,20.803 216.860,19.640 240.323,19.640 263.787,19.640 287.250,19.640 287.250,25.607 287.250,31.573 287.250,37.540 279.333,37.693 271.417,37.847 263.500,38.000 263.167,37.813 262.833,37.627 262.500,37.440 246.427,37.440 230.353,37.440 214.280,37.440 214.280,36.693 214.280,35.947 214.280,35.200 Z M 288.540,18.910 C 288.777,18.910 289.013,18.910 289.250,18.910 289.250,19.677 289.250,20.443 289.250,21.210 289.337,21.210 289.423,21.210 289.510,21.210 289.510,26.640 289.510,32.070 289.510,37.500 289.177,37.500 288.843,37.500 288.510,37.500 288.520,31.303 288.530,25.107 288.540,18.910 Z M 290.790,21.210 C 291.503,21.210 292.217,21.210 292.930,21.210 292.930,26.617 292.930,32.023 292.930,37.430 292.217,37.430 291.503,37.430 290.790,37.430 290.790,32.023 290.790,26.617 290.790,21.210 Z M 297.590,6.330 C 298.077,5.631 298.902,5.249 299.750,5.330 300.288,5.277 300.831,5.370 301.320,5.600 301.682,5.976 301.883,6.478 301.880,7.000 301.957,8.530 302.033,10.060 302.110,11.590 302.017,13.167 301.923,14.743 301.830,16.320 298.163,16.320 294.497,16.320 290.830,16.320 296.230,8.220 297.390,6.570 297.580,6.330 297.583,6.330 297.587,6.330 297.590,6.330 Z M 294.200,30.630 C 294.200,27.490 294.200,24.350 294.200,21.210 294.287,21.210 294.373,21.210 294.460,21.210 294.460,20.443 294.460,19.677 294.460,18.910 296.793,18.910 299.127,18.910 301.460,18.910 301.460,22.817 301.460,26.723 301.460,30.630 299.040,30.630 296.620,30.630 294.200,30.630 Z M 305.860,32.720 C 305.860,32.447 305.860,32.173 305.860,31.900 306.573,31.900 307.287,31.900 308.000,31.900 308.000,33.643 308.000,35.387 308.000,37.130 303.387,37.220 298.773,37.310 294.160,37.400 294.160,35.567 294.160,33.733 294.160,31.900 296.567,31.900 298.973,31.900 301.380,31.900 301.380,32.170 301.380,32.440 301.380,32.710 302.873,32.713 304.367,32.717 305.860,32.720 Z M 302.690,19.200 C 303.247,19.200 303.803,19.200 304.360,19.200 304.360,19.663 304.360,20.127 304.360,20.590 304.433,20.590 304.507,20.590 304.580,20.590 304.580,23.923 304.580,27.257 304.580,30.590 303.950,30.590 303.320,30.590 302.690,30.590 302.690,26.793 302.690,22.997 302.690,19.200 Z M 313.360,30.900 C 313.360,31.700 313.360,32.500 313.360,33.300 313.273,33.300 313.187,33.300 313.100,33.300 313.100,34.107 313.100,34.913 313.100,35.720 312.425,35.990 311.789,36.350 311.210,36.790 311.107,36.873 311.003,36.957 310.900,37.040 310.370,37.040 309.840,37.040 309.310,37.040 309.310,35.010 309.310,32.980 309.310,30.950 310.660,30.933 312.010,30.917 313.360,30.900 Z M 305.850,27.900 C 308.183,27.900 310.517,27.900 312.850,27.900 312.850,28.490 312.850,29.080 312.850,29.670 310.517,29.670 308.183,29.670 305.850,29.670 305.850,29.080 305.850,28.490 305.850,27.900 Z M 305.850,20.580 C 308.267,20.580 310.683,20.580 313.100,20.580 313.100,21.783 313.100,22.987 313.100,24.190 313.187,24.190 313.273,24.190 313.360,24.190 313.360,25.003 313.360,25.817 313.360,26.630 310.857,26.630 308.353,26.630 305.850,26.630 305.850,24.613 305.850,22.597 305.850,20.580 Z M 314.640,24.190 C 314.800,24.190 314.960,24.190 315.120,24.190 315.120,27.240 315.120,30.290 315.120,33.340 314.960,33.340 314.800,33.340 314.640,33.340 314.640,30.290 314.640,27.240 314.640,24.190 Z M 326.250,36.880 C 325.250,37.033 324.250,37.187 323.250,37.340 321.418,36.633 319.548,36.025 317.650,35.520 317.650,30.893 317.650,26.267 317.650,21.640 316.983,21.640 316.317,21.640 315.650,21.640 315.650,20.427 315.650,19.213 315.650,18.000 312.733,18.000 309.817,18.000 306.900,18.000 306.900,17.453 306.900,16.907 306.900,16.360 305.877,16.360 304.853,16.360 303.830,16.360 303.923,14.787 304.017,13.213 304.110,11.640 304.033,10.073 303.957,8.507 303.880,6.940 303.850,5.836 303.365,4.794 302.540,4.060 301.707,3.521 300.718,3.278 299.730,3.370 298.281,3.279 296.882,3.916 296.000,5.070 295.600,5.560 288.380,16.360 288.380,16.360 287.553,16.360 286.727,16.360 285.900,16.360 285.900,16.603 285.900,16.847 285.900,17.090 262.037,17.090 238.173,17.090 214.310,17.090 214.310,18.253 214.310,19.417 214.310,20.580 214.310,19.417 214.310,18.253 214.310,17.090 211.080,17.090 207.850,17.090 204.620,17.090 204.620,15.667 204.620,14.243 204.620,12.820 202.287,12.820 199.953,12.820 197.620,12.820 197.620,14.247 197.620,15.673 197.620,17.100 197.070,17.100 196.520,17.100 195.970,17.100 195.970,16.820 195.970,16.540 195.970,16.260 183.383,16.260 170.797,16.260 158.210,16.260 154.930,16.427 151.650,16.593 148.370,16.760 129.127,16.760 109.883,16.760 90.640,16.760 89.450,16.760 88.040,17.330 88.040,20.030 88.040,20.277 88.040,20.523 88.040,20.770 86.150,20.770 84.260,20.770 82.370,20.770 81.613,22.983 80.857,25.197 80.100,27.410 78.400,27.410 76.700,27.410 75.000,27.410 75.000,31.743 75.000,36.077 75.000,40.410 82.667,40.410 90.333,40.410 98.000,40.410 98.000,41.497 98.000,42.583 98.000,43.670 98.141,47.002 100.947,49.594 104.280,49.470 107.280,49.464 109.862,47.350 110.460,44.410 111.460,44.410 113.050,44.410 115.460,44.410 117.190,44.410 118.020,44.870 118.520,46.070 119.512,48.521 119.343,51.288 118.060,53.600 117.060,55.600 114.800,59.280 112.780,62.520 110.980,65.420 109.420,67.920 108.780,69.270 108.710,69.410 108.640,69.550 108.570,69.690 107.030,72.740 104.460,77.860 108.200,80.320 110.380,81.750 118.050,86.730 121.900,89.220 122.540,89.760 125.120,91.790 127.670,91.790 127.803,91.790 127.937,91.790 128.070,91.790 130.304,91.744 132.326,90.461 133.320,88.460 134.320,86.710 134.870,83.960 134.140,82.810 133.540,81.860 132.800,80.810 132.010,79.630 135.677,71.940 139.343,64.250 143.010,56.560 143.797,56.670 144.570,56.857 145.320,57.120 145.680,57.280 145.890,57.580 146.320,58.120 147.180,59.410 148.320,61.180 152.520,61.180 152.853,61.180 153.187,61.180 153.520,61.180 158.300,61.180 169.120,61.320 173.910,51.400 175.024,52.118 176.336,52.468 177.660,52.400 177.887,52.413 178.114,52.413 178.340,52.400 178.894,52.332 179.442,52.225 179.980,52.080 180.030,52.063 180.080,52.047 180.130,52.030 180.260,51.973 180.390,51.917 180.520,51.860 180.990,51.688 181.451,51.491 181.900,51.270 206.513,50.217 231.127,49.163 255.740,48.110 256.260,51.473 256.780,54.837 257.300,58.200 280.810,54.560 304.320,50.920 327.830,47.280 327.303,43.813 326.777,40.347 326.250,36.880 Z " />
  <path stroke="none" fill="#ffffffff" d="M 244.850,31.900 C 244.251,31.900 243.712,31.539 243.483,30.986 243.254,30.433 243.380,29.797 243.804,29.373 244.227,28.950 244.863,28.824 245.416,29.053 245.969,29.282 246.330,29.821 246.330,30.420 246.325,31.233 245.664,31.890 244.850,31.890 244.850,31.893 244.850,31.897 244.850,31.900 Z M 244.850,27.670 C 243.738,27.670 242.735,28.340 242.309,29.368 241.884,30.395 242.119,31.578 242.906,32.365 243.692,33.151 244.875,33.386 245.902,32.961 246.930,32.535 247.600,31.532 247.600,30.420 247.600,29.691 247.310,28.991 246.795,28.475 246.279,27.960 245.579,27.670 244.850,27.670 244.850,27.670 244.850,27.670 244.850,27.670 Z " />
  <path stroke="none" fill="#ffffffff" d="M 254.880,30.120 C 253.253,31.010 251.627,31.900 250.000,32.790 249.957,32.823 249.913,32.857 249.870,32.890 248.138,34.613 245.534,35.113 243.287,34.155 241.039,33.197 239.597,30.973 239.640,28.530 239.663,25.408 242.051,22.813 245.160,22.530 245.850,24.627 246.540,26.723 247.230,28.820 248.897,28.277 250.563,27.733 252.230,27.190 252.381,27.155 252.529,27.105 252.670,27.040 253.057,26.862 253.468,26.741 253.890,26.680 254.710,26.693 255.425,27.239 255.655,28.026 255.884,28.813 255.574,29.658 254.890,30.110 254.887,30.113 254.883,30.117 254.880,30.120 Z M 248.880,25.520 C 249.030,25.950 249.180,26.380 249.330,26.810 248.903,26.950 248.477,27.090 248.050,27.230 247.863,26.660 247.677,26.090 247.490,25.520 247.953,25.520 248.417,25.520 248.880,25.520 Z M 251.800,24.390 C 251.960,24.847 252.120,25.303 252.280,25.760 251.697,25.963 251.113,26.167 250.530,26.370 250.353,25.913 250.177,25.457 250.000,25.000 250.600,24.797 251.200,24.593 251.800,24.390 Z M 253.870,25.390 C 253.754,25.381 253.637,25.381 253.520,25.390 253.207,24.493 252.893,23.597 252.580,22.700 251.197,23.187 249.813,23.673 248.430,24.160 248.430,24.160 248.430,24.160 248.430,24.160 247.980,24.160 247.530,24.160 247.080,24.160 246.747,23.160 246.413,22.160 246.080,21.160 245.923,21.160 245.767,21.160 245.610,21.160 242.995,21.177 240.587,22.587 239.294,24.860 238.001,27.134 238.019,29.924 239.341,32.180 240.663,34.437 243.088,35.817 245.703,35.800 247.561,35.798 249.351,35.082 250.700,33.800 252.303,32.910 253.907,32.020 255.510,31.130 255.563,31.097 255.617,31.063 255.670,31.030 256.780,30.234 257.251,28.814 256.836,27.513 256.421,26.212 255.216,25.327 253.850,25.320 253.857,25.343 253.863,25.367 253.870,25.390 Z " />
  <path stroke="none" fill="#ffffffff" d="M 124.930,41.280 C 125.541,41.280 126.091,41.648 126.325,42.212 126.559,42.776 126.430,43.426 125.998,43.858 125.566,44.290 124.916,44.419 124.352,44.185 123.788,43.951 123.420,43.401 123.420,42.790 123.426,41.958 124.098,41.285 124.930,41.280 124.930,41.280 124.930,41.280 124.930,41.280 Z M 124.930,45.580 C 126.471,45.580 127.720,44.331 127.720,42.790 127.720,41.249 126.471,40.000 124.930,40.000 123.389,40.000 122.140,41.249 122.140,42.790 122.140,43.530 122.434,44.240 122.957,44.763 123.480,45.286 124.190,45.580 124.930,45.580 124.930,45.580 124.930,45.580 124.930,45.580 Z " />
  <path stroke="none" fill="#ffffffff" d="M 113.810,77.190 C 112.976,77.190 112.300,76.514 112.300,75.680 112.300,74.846 112.976,74.170 113.810,74.170 114.644,74.170 115.320,74.846 115.320,75.680 115.315,76.512 114.642,77.185 113.810,77.190 113.810,77.190 113.810,77.190 113.810,77.190 Z M 113.810,72.890 C 112.269,72.890 111.020,74.139 111.020,75.680 111.020,77.221 112.269,78.470 113.810,78.470 115.351,78.470 116.600,77.221 116.600,75.680 116.600,74.940 116.306,74.230 115.783,73.707 115.260,73.184 114.550,72.890 113.810,72.890 113.810,72.890 113.810,72.890 113.810,72.890 Z " />
  <path stroke="none" fill="#ffffffff" d="M 129.860,84.700 C 129.860,85.311 129.492,85.861 128.928,86.095 128.364,86.329 127.714,86.200 127.282,85.768 126.850,85.336 126.721,84.686 126.955,84.122 127.189,83.558 127.739,83.190 128.350,83.190 129.182,83.195 129.855,83.868 129.860,84.700 129.860,84.700 129.860,84.700 129.860,84.700 Z M 125.560,84.700 C 125.560,85.828 126.240,86.846 127.282,87.278 128.325,87.709 129.525,87.471 130.323,86.673 131.121,85.875 131.360,84.675 130.928,83.632 130.496,82.590 129.478,81.910 128.350,81.910 126.809,81.910 125.560,83.159 125.560,84.700 125.560,84.700 125.560,84.700 125.560,84.700 Z " />
  <path stroke="none" fill="#ffffffff" d="M 143.000,44.300 C 142.389,44.300 141.839,43.932 141.605,43.368 141.371,42.804 141.500,42.154 141.932,41.722 142.364,41.290 143.014,41.161 143.578,41.395 144.142,41.629 144.510,42.179 144.510,42.790 144.510,43.624 143.834,44.300 143.000,44.300 143.000,44.300 143.000,44.300 143.000,44.300 Z M 143.000,40.000 C 141.872,40.000 140.854,40.680 140.422,41.722 139.991,42.765 140.229,43.965 141.027,44.763 141.825,45.561 143.025,45.799 144.068,45.368 145.110,44.936 145.790,43.918 145.790,42.790 145.790,41.249 144.541,40.000 143.000,40.000 143.000,40.000 143.000,40.000 143.000,40.000 Z " />
  <path stroke="none" fill="#ffffffff" d="M 140.590,50.050 C 136.080,58.933 131.570,67.817 127.060,76.700 127.060,76.700 127.060,76.700 127.060,76.700 126.780,77.248 126.110,77.466 125.560,77.190 123.200,75.993 120.840,74.797 118.480,73.600 117.934,73.323 117.714,72.657 117.990,72.110 122.503,63.227 127.017,54.343 131.530,45.460 131.663,45.194 131.897,44.992 132.180,44.900 132.456,44.826 132.750,44.861 133.000,45.000 135.360,46.197 137.720,47.393 140.080,48.590 140.345,48.723 140.546,48.956 140.638,49.238 140.730,49.520 140.706,49.826 140.570,50.090 140.577,50.077 140.583,50.063 140.590,50.050 Z M 140.680,47.420 C 138.320,46.223 135.960,45.027 133.600,43.830 132.424,43.235 130.987,43.704 130.390,44.880 125.877,53.767 121.363,62.653 116.850,71.540 116.255,72.716 116.725,74.153 117.900,74.750 120.267,75.943 122.633,77.137 125.000,78.330 126.177,78.925 127.613,78.456 128.210,77.280 128.210,77.280 128.210,77.280 128.210,77.280 132.723,68.397 137.237,59.513 141.750,50.630 142.345,49.454 141.876,48.017 140.700,47.420 140.693,47.420 140.687,47.420 140.680,47.420 Z " />
  <path stroke="none" fill="#ffffffff" d="M 188.270,27.750 C 194.017,27.750 199.763,27.750 205.510,27.750 206.338,27.750 207.009,28.422 207.009,29.250 207.009,30.078 206.338,30.750 205.510,30.750 199.763,30.750 194.017,30.750 188.270,30.750 187.442,30.750 186.771,30.078 186.771,29.250 186.771,28.422 187.442,27.750 188.270,27.750 188.270,27.750 188.270,27.750 188.270,27.750 Z M 188.270,32.000 C 194.017,32.000 199.763,32.000 205.510,32.000 204.524,32.000 203.613,31.474 203.120,30.620 202.627,29.766 202.627,28.714 203.120,27.860 203.613,27.006 204.524,26.480 205.510,26.480 199.763,26.480 194.017,26.480 188.270,26.480 189.256,26.480 190.167,27.006 190.660,27.860 191.153,28.714 191.153,29.766 190.660,30.620 190.167,31.474 189.256,32.000 188.270,32.000 188.270,32.000 188.270,32.000 188.270,32.000 Z " />
</svg>