<?xml version="1.0" encoding="UTF-8" standalone="no"?>
<!DOCTYPE svg PUBLIC "-//W3C//DTD SVG 20010904//EN" "http://www.w3.org/TR/2001/REC-SVG-20010904/DTD/svg10.dtd"[]>
<svg version="1.1" id="Frosty Editor v1.0.6.3" xmlns="http://www.w3.org/2000/svg" d1p1:xlink="http://www.w3.org/1999/xlink" viewBox="0 0 96 96" xmlns:d1p1="xmlns">
  <path stroke="none" fill="none" d="M 48.020,96.050 C 32.100,96.050 16.180,96.050 0.260,96.050 0.080,96.050 0.040,96.010 0.040,95.830 0.040,63.970 0.040,32.120 0.040,0.260 0.040,0.080 0.080,0.040 0.260,0.040 32.120,0.040 63.970,0.040 95.830,0.040 96.010,0.040 96.050,0.080 96.050,0.260 96.050,32.120 96.050,63.970 96.050,95.830 96.050,96.010 96.010,96.050 95.830,96.050 79.900,96.050 63.960,96.050 48.020,96.050 Z M 45.480,39.980 C 45.490,40.000 45.510,40.020 45.520,40.040 45.460,40.090 45.390,40.120 45.340,40.180 43.290,42.230 41.240,44.270 39.200,46.330 39.050,46.480 38.900,46.550 38.680,46.550 30.740,46.540 22.790,46.550 14.850,46.540 14.650,46.540 14.580,46.570 14.590,46.790 14.600,47.730 14.610,48.680 14.590,49.620 14.590,49.860 14.640,49.920 14.890,49.920 22.860,49.910 30.830,49.910 38.800,49.910 38.990,49.910 39.120,49.970 39.260,50.100 41.300,52.150 43.350,54.200 45.400,56.240 45.460,56.300 45.540,56.340 45.610,56.390 45.590,56.410 45.580,56.440 45.560,56.460 45.470,56.460 45.380,56.460 45.280,56.460 37.660,56.460 30.050,56.460 22.430,56.460 22.210,56.460 22.150,56.510 22.150,56.740 22.160,57.660 22.160,58.580 22.160,59.500 22.160,59.840 22.160,59.840 22.500,59.840 31.240,59.840 39.990,59.840 48.730,59.840 48.870,59.840 49.000,59.850 49.120,59.970 51.210,62.070 53.300,64.160 55.390,66.250 55.430,66.290 55.500,66.310 55.480,66.410 55.390,66.410 55.290,66.410 55.200,66.410 48.750,66.410 42.300,66.410 35.860,66.410 34.170,66.410 32.480,66.410 30.800,66.410 30.600,66.410 30.550,66.460 30.550,66.660 30.560,67.590 30.560,68.520 30.550,69.440 30.550,69.690 30.610,69.750 30.860,69.750 40.440,69.740 50.010,69.740 59.590,69.750 60.370,69.750 61.000,69.500 61.550,68.940 63.310,67.160 65.090,65.400 66.860,63.630 69.550,60.950 72.240,58.260 74.930,55.580 76.850,53.660 78.780,51.730 80.710,49.820 81.330,49.200 81.510,48.470 81.350,47.620 81.260,47.120 80.960,46.750 80.610,46.400 75.190,40.990 69.780,35.570 64.370,30.160 63.410,29.200 62.460,28.250 61.500,27.290 61.090,26.880 60.620,26.630 60.020,26.650 59.730,26.660 59.440,26.660 59.160,26.660 49.900,26.660 40.630,26.660 31.370,26.650 31.130,26.650 31.090,26.710 31.090,26.940 31.100,27.880 31.100,28.810 31.090,29.750 31.090,29.980 31.130,30.040 31.370,30.040 39.300,30.030 47.230,30.030 55.150,30.030 55.240,30.030 55.330,30.030 55.430,30.030 55.440,30.050 55.450,30.070 55.460,30.090 55.410,30.130 55.360,30.160 55.320,30.200 53.230,32.290 51.140,34.370 49.060,36.460 48.950,36.570 48.840,36.600 48.700,36.600 45.600,36.600 42.510,36.600 39.410,36.600 33.760,36.600 28.110,36.600 22.470,36.590 22.230,36.590 22.180,36.650 22.190,36.880 22.200,37.820 22.210,38.750 22.190,39.690 22.190,39.930 22.250,39.970 22.480,39.970 30.070,39.960 37.660,39.960 45.260,39.960 45.300,39.980 45.390,39.980 45.480,39.980 Z " />
  <path stroke="none" fill="#fffefefe" d="M 45.480,39.980 C 45.390,39.980 45.290,39.980 45.200,39.980 37.610,39.980 30.020,39.980 22.420,39.990 22.190,39.990 22.130,39.950 22.130,39.710 22.150,38.770 22.140,37.840 22.130,36.900 22.130,36.670 22.180,36.610 22.410,36.610 28.060,36.620 33.710,36.620 39.350,36.620 42.450,36.620 45.540,36.620 48.640,36.620 48.780,36.620 48.890,36.590 49.000,36.480 51.080,34.390 53.170,32.300 55.260,30.220 55.300,30.180 55.360,30.140 55.400,30.110 55.390,30.090 55.380,30.070 55.370,30.050 55.280,30.050 55.190,30.050 55.090,30.050 47.160,30.050 39.230,30.050 31.310,30.060 31.070,30.060 31.030,30.000 31.030,29.770 31.040,28.830 31.040,27.900 31.030,26.960 31.030,26.730 31.080,26.670 31.310,26.670 40.570,26.680 49.840,26.680 59.100,26.680 59.390,26.680 59.680,26.680 59.960,26.670 60.560,26.640 61.030,26.900 61.440,27.310 62.400,28.270 63.350,29.220 64.310,30.180 69.720,35.590 75.140,41.010 80.550,46.420 80.900,46.770 81.200,47.140 81.290,47.640 81.450,48.480 81.270,49.220 80.650,49.840 78.720,51.760 76.800,53.680 74.870,55.600 72.180,58.280 69.490,60.970 66.800,63.650 65.030,65.420 63.250,67.180 61.490,68.960 60.940,69.510 60.310,69.770 59.530,69.770 49.950,69.760 40.380,69.760 30.800,69.770 30.550,69.770 30.490,69.710 30.490,69.460 30.510,68.530 30.500,67.600 30.490,66.680 30.490,66.480 30.540,66.430 30.740,66.430 32.430,66.440 34.120,66.430 35.800,66.430 42.250,66.430 48.700,66.430 55.140,66.430 55.230,66.430 55.330,66.430 55.420,66.430 55.440,66.330 55.370,66.310 55.330,66.270 53.240,64.180 51.140,62.080 49.060,59.990 48.940,59.870 48.820,59.860 48.670,59.860 39.930,59.860 31.180,59.860 22.440,59.860 22.100,59.860 22.100,59.860 22.100,59.520 22.100,58.600 22.110,57.680 22.090,56.760 22.090,56.540 22.150,56.480 22.370,56.480 29.990,56.490 37.600,56.480 45.220,56.480 45.310,56.480 45.400,56.480 45.500,56.480 45.520,56.460 45.530,56.430 45.550,56.410 45.480,56.360 45.400,56.320 45.340,56.260 43.290,54.210 41.240,52.170 39.200,50.120 39.070,49.990 38.940,49.930 38.740,49.930 30.770,49.940 22.800,49.930 14.830,49.940 14.590,49.940 14.530,49.880 14.530,49.640 14.550,48.700 14.540,47.750 14.530,46.810 14.530,46.590 14.590,46.560 14.790,46.560 22.730,46.570 30.680,46.560 38.620,46.570 38.840,46.570 38.990,46.500 39.140,46.350 41.180,44.300 43.230,42.250 45.280,40.200 45.330,40.150 45.400,40.110 45.460,40.060 45.510,40.020 45.500,40.000 45.480,39.980 Z M 57.620,42.430 C 58.510,43.320 59.400,44.210 60.280,45.090 60.340,45.150 60.390,45.260 60.490,45.210 60.570,45.170 60.520,45.070 60.520,44.990 60.520,42.730 60.520,40.460 60.530,38.200 60.530,38.010 60.480,37.970 60.300,37.970 58.040,37.980 55.770,37.970 53.510,37.980 53.440,37.980 53.340,37.930 53.290,38.010 53.240,38.110 53.350,38.160 53.410,38.220 54.170,38.980 54.920,39.740 55.690,40.490 55.840,40.640 55.820,40.700 55.680,40.840 53.360,43.150 51.050,45.460 48.740,47.780 48.500,48.000 48.510,48.000 48.740,48.240 49.590,49.110 50.460,49.970 51.310,50.850 54.110,53.710 56.990,56.500 59.770,59.380 59.900,59.520 60.000,59.500 60.120,59.380 61.270,58.250 62.380,57.080 63.560,55.980 64.710,54.900 65.790,53.750 66.930,52.650 68.360,51.280 69.730,49.850 71.160,48.480 71.390,48.260 71.380,48.260 71.150,48.030 69.500,46.390 67.850,44.760 66.190,43.120 66.120,43.050 66.040,42.980 65.970,42.900 65.840,42.750 65.730,42.750 65.600,42.890 65.200,43.310 64.800,43.730 64.390,44.150 64.170,44.370 64.170,44.370 64.400,44.590 65.500,45.690 66.600,46.790 67.720,47.900 65.070,50.450 62.500,53.060 59.910,55.640 59.530,55.230 59.140,54.840 58.750,54.440 56.660,52.300 54.500,50.240 52.440,48.070 52.220,47.830 52.210,47.840 52.440,47.610 54.180,45.880 55.900,44.160 57.620,42.430 Z " />
  <path stroke="none" fill="none" d="M 57.620,42.430 C 55.890,44.160 54.170,45.880 52.450,47.600 52.220,47.830 52.220,47.830 52.450,48.060 54.510,50.230 56.670,52.290 58.760,54.430 59.150,54.830 59.540,55.220 59.920,55.630 62.520,53.040 65.090,50.430 67.730,47.890 66.620,46.780 65.520,45.680 64.410,44.580 64.190,44.360 64.190,44.360 64.400,44.140 64.800,43.720 65.210,43.310 65.610,42.880 65.750,42.740 65.860,42.740 65.980,42.890 66.050,42.970 66.120,43.040 66.200,43.110 67.850,44.750 69.500,46.380 71.160,48.020 71.390,48.250 71.390,48.260 71.170,48.470 69.740,49.840 68.370,51.270 66.940,52.640 65.800,53.740 64.720,54.890 63.570,55.970 62.390,57.080 61.280,58.240 60.130,59.370 60.000,59.500 59.910,59.510 59.780,59.370 57.000,56.490 54.120,53.700 51.320,50.840 50.470,49.970 49.600,49.110 48.750,48.230 48.510,48.000 48.500,48.000 48.730,47.770 51.040,45.460 53.360,43.140 55.670,40.830 55.810,40.690 55.820,40.630 55.680,40.480 54.910,39.730 54.160,38.970 53.400,38.210 53.340,38.150 53.230,38.100 53.280,38.000 53.320,37.920 53.420,37.970 53.500,37.970 55.760,37.970 58.030,37.970 60.290,37.960 60.480,37.960 60.520,38.000 60.520,38.190 60.510,40.450 60.520,42.720 60.510,44.980 60.510,45.050 60.560,45.160 60.480,45.200 60.380,45.250 60.330,45.140 60.270,45.080 59.400,44.210 58.520,43.330 57.620,42.430 Z " />
</svg>