<?xml version="1.0" encoding="UTF-8" standalone="no"?>
<!DOCTYPE svg PUBLIC "-//W3C//DTD SVG 20010904//EN" "http://www.w3.org/TR/2001/REC-SVG-20010904/DTD/svg10.dtd"[]>
<svg version="1.1" id="Frosty Editor v1.0.6.3" xmlns="http://www.w3.org/2000/svg" d1p1:xlink="http://www.w3.org/1999/xlink" viewBox="0 0 96 96" xmlns:d1p1="xmlns">
  <path stroke="none" fill="none" d="M 0.050,96.050 C 0.050,64.050 0.050,32.050 0.050,0.050 32.050,0.050 64.050,0.050 96.050,0.050 96.050,32.050 96.050,64.050 96.050,96.050 64.050,96.050 32.050,96.050 0.050,96.050 Z M 43.120,61.470 C 43.180,61.380 43.220,61.320 43.260,61.260 45.700,57.140 48.140,53.020 50.580,48.900 52.150,46.240 53.730,43.590 55.300,40.930 57.770,36.760 60.240,32.590 62.710,28.420 64.450,25.490 66.190,22.560 67.920,19.630 68.300,18.980 68.060,18.090 67.390,17.680 66.750,17.290 65.830,17.500 65.450,18.140 64.300,20.070 63.160,22.000 62.010,23.940 60.600,26.310 59.200,28.690 57.790,31.060 56.550,33.160 55.300,35.250 54.060,37.350 52.620,39.790 51.170,42.220 49.730,44.660 48.130,47.360 46.530,50.070 44.930,52.770 43.750,54.770 42.560,56.760 41.380,58.750 41.140,59.150 40.900,59.560 40.660,59.980 41.500,60.490 42.300,60.970 43.120,61.470 Z M 40.370,64.090 C 40.310,64.180 40.280,64.230 40.240,64.280 38.110,67.870 35.990,71.470 33.850,75.050 33.470,75.690 33.040,76.310 32.610,76.930 32.520,77.060 32.350,77.130 32.220,77.230 32.190,77.210 32.170,77.190 32.140,77.170 32.150,77.040 32.140,76.900 32.180,76.780 32.230,76.600 32.300,76.410 32.400,76.250 32.790,75.540 33.190,74.840 33.600,74.140 35.280,71.300 36.970,68.460 38.650,65.610 39.020,64.990 39.380,64.370 39.760,63.730 39.380,63.620 39.530,63.390 39.620,63.180 39.710,62.970 39.810,62.770 39.900,62.570 40.140,62.070 40.410,61.590 40.620,61.080 40.780,60.690 40.590,60.330 40.190,60.160 40.040,60.410 39.890,60.660 39.730,60.920 39.600,60.860 39.490,60.800 39.370,60.740 39.270,60.890 39.180,61.020 39.080,61.170 38.810,61.010 38.550,60.860 38.300,60.710 38.050,60.560 37.820,60.620 37.680,60.870 37.610,60.980 37.550,61.090 37.480,61.200 37.320,61.470 37.370,61.700 37.640,61.860 37.890,62.010 38.150,62.160 38.410,62.320 38.290,62.520 38.190,62.710 38.070,62.900 38.190,62.980 38.290,63.060 38.410,63.140 38.200,63.490 37.990,63.830 37.790,64.170 37.760,64.170 37.720,64.180 37.690,64.180 37.810,63.810 37.520,63.830 37.340,63.700 37.100,64.110 36.860,64.510 36.610,64.940 36.820,65.020 36.990,65.090 37.190,65.170 37.170,65.210 37.150,65.280 37.100,65.340 36.890,65.640 36.740,65.960 36.460,66.220 36.180,66.480 36.120,66.930 35.930,67.260 33.870,70.810 31.760,74.330 29.680,77.860 29.550,78.080 29.390,78.200 29.160,78.270 29.030,78.310 28.870,78.400 28.800,78.520 28.190,79.520 27.600,80.540 27.000,81.550 26.970,81.600 26.930,81.660 26.920,81.720 26.900,81.920 26.880,82.130 26.870,82.330 26.850,82.590 26.780,82.790 26.490,82.850 26.380,82.880 26.290,82.980 26.180,83.030 26.080,83.080 25.970,83.110 25.870,83.150 25.650,83.410 25.460,83.730 25.280,84.040 25.260,84.080 25.280,84.150 25.300,84.200 25.330,84.300 25.390,84.390 25.400,84.490 25.420,84.660 25.420,84.820 25.430,84.990 25.450,85.190 25.540,85.310 25.720,85.420 26.460,85.840 27.210,86.270 27.920,86.730 28.240,86.940 28.510,86.910 28.810,86.750 28.870,86.720 28.930,86.670 29.000,86.650 29.120,86.610 29.250,86.570 29.370,86.540 29.530,86.380 29.640,86.160 29.780,85.960 29.920,85.750 29.990,85.560 29.920,85.300 29.870,85.100 29.910,84.890 29.920,84.680 29.920,84.610 29.930,84.520 29.970,84.490 30.160,84.320 30.340,84.120 30.570,84.020 30.720,83.950 30.790,83.860 30.860,83.740 31.440,82.760 32.020,81.790 32.590,80.800 32.660,80.680 32.660,80.520 32.670,80.380 32.680,80.200 32.620,79.990 32.690,79.850 32.970,79.310 33.300,78.800 33.610,78.280 33.660,78.200 33.760,78.160 33.840,78.100 33.940,78.020 34.080,77.960 34.140,77.860 34.430,77.390 34.700,76.910 34.990,76.440 35.100,76.260 35.210,76.090 35.110,75.860 35.080,75.790 35.140,75.680 35.190,75.600 35.690,74.740 36.200,73.890 36.700,73.040 38.230,70.450 39.770,67.870 41.300,65.280 41.490,64.960 41.480,64.960 41.800,65.130 41.810,65.140 41.830,65.130 41.860,65.130 41.970,64.960 42.080,64.780 42.200,64.580 42.470,64.740 42.720,64.890 42.980,65.040 43.240,65.190 43.470,65.130 43.630,64.870 43.680,64.780 43.730,64.690 43.790,64.600 44.000,64.250 43.950,64.060 43.580,63.850 43.350,63.720 43.120,63.580 42.880,63.440 42.970,63.270 43.050,63.130 43.130,62.990 43.010,62.910 42.910,62.840 42.790,62.760 42.950,62.490 43.100,62.240 43.240,62.000 42.830,61.690 42.380,61.790 42.050,62.240 41.640,62.820 41.230,63.400 40.820,63.990 40.740,64.170 40.610,64.340 40.370,64.090 Z M 14.660,66.460 C 19.740,63.660 24.780,60.880 29.850,58.090 29.780,57.980 29.720,57.890 29.670,57.800 29.310,57.150 28.940,56.510 28.600,55.850 28.490,55.650 28.410,55.620 28.210,55.700 23.470,57.540 18.720,59.370 13.980,61.200 13.550,61.370 13.120,61.540 12.670,61.710 13.220,63.340 13.880,64.910 14.660,66.460 Z M 27.370,52.920 C 27.350,52.820 27.330,52.760 27.320,52.700 27.130,51.930 26.930,51.170 26.770,50.390 26.720,50.140 26.630,50.090 26.400,50.120 24.380,50.330 22.360,50.530 20.340,50.730 17.210,51.040 14.070,51.350 10.940,51.660 10.770,51.680 10.700,51.720 10.730,51.910 10.870,53.090 10.990,54.260 11.130,55.440 11.180,55.870 11.280,56.300 11.360,56.750 16.690,55.470 22.020,54.200 27.370,52.920 Z M 26.440,47.130 C 26.440,47.130 26.450,47.110 26.450,47.080 26.480,46.190 26.500,45.310 26.540,44.420 26.550,44.240 26.460,44.230 26.330,44.210 23.700,43.750 21.070,43.290 18.440,42.830 16.190,42.440 13.940,42.040 11.690,41.650 11.550,41.630 11.470,41.620 11.440,41.800 11.120,43.330 10.890,44.870 10.770,46.430 10.760,46.570 10.790,46.630 10.940,46.630 11.270,46.630 11.600,46.650 11.920,46.670 16.200,46.830 20.470,46.990 24.750,47.140 25.300,47.140 25.860,47.130 26.440,47.130 Z M 19.970,74.440 C 24.380,70.230 28.730,66.080 33.110,61.900 32.550,61.390 32.020,60.910 31.470,60.400 26.800,63.870 22.060,67.390 17.270,70.950 18.170,72.110 19.060,73.250 19.970,74.440 Z M 12.880,36.780 C 17.630,38.300 22.340,39.810 27.040,41.300 27.330,40.400 27.590,39.530 27.870,38.680 27.930,38.500 27.910,38.420 27.730,38.340 23.800,36.470 19.880,34.600 15.950,32.720 15.600,32.550 15.250,32.390 14.880,32.210 14.100,33.690 13.440,35.190 12.880,36.780 Z M 17.520,28.010 C 21.460,30.600 25.370,33.170 29.280,35.750 29.320,35.700 29.340,35.680 29.360,35.650 29.870,34.870 30.370,34.100 30.890,33.330 30.990,33.170 30.900,33.120 30.810,33.040 27.820,30.430 24.830,27.830 21.840,25.220 21.450,24.880 21.060,24.540 20.660,24.190 19.520,25.400 18.490,26.650 17.520,28.010 Z M 35.320,28.720 C 32.970,25.160 30.620,21.600 28.270,18.030 26.860,18.880 25.540,19.800 24.270,20.830 27.190,24.150 30.080,27.440 32.970,30.720 33.760,30.050 34.530,29.390 35.320,28.720 Z M 40.840,25.630 C 39.610,21.840 38.380,18.040 37.160,14.250 36.370,14.370 32.950,15.600 32.620,15.870 34.400,19.570 36.180,23.280 37.960,26.980 38.940,26.520 39.880,26.080 40.840,25.630 Z M 43.890,24.680 C 44.000,24.660 44.080,24.640 44.150,24.630 45.030,24.470 45.910,24.310 46.790,24.170 47.000,24.140 47.070,24.090 47.060,23.870 46.910,20.330 46.770,16.790 46.620,13.250 46.610,12.930 46.600,12.930 46.300,12.940 45.220,12.990 44.150,13.050 43.070,13.120 42.670,13.150 42.270,13.210 41.850,13.260 42.540,17.090 43.220,20.880 43.890,24.680 Z M 51.350,13.250 C 51.020,16.850 50.680,20.420 50.360,23.960 51.430,24.080 52.460,24.210 53.490,24.310 53.540,24.320 53.640,24.210 53.650,24.140 54.410,20.920 55.160,17.690 55.920,14.470 55.960,14.300 55.930,14.230 55.750,14.190 54.830,13.980 53.920,13.740 53.000,13.540 52.460,13.430 51.920,13.350 51.350,13.250 Z M 68.120,32.380 C 68.780,33.290 69.430,34.160 70.060,35.040 70.150,35.170 70.220,35.120 70.320,35.060 72.490,33.790 74.650,32.530 76.820,31.270 76.970,31.180 76.990,31.120 76.900,30.970 76.180,29.810 75.470,28.640 74.760,27.480 74.720,27.420 74.670,27.360 74.610,27.290 72.420,29.010 70.260,30.700 68.120,32.380 Z M 73.240,41.420 C 75.500,40.830 77.780,40.230 80.070,39.630 79.730,38.150 79.330,36.720 78.790,35.310 76.470,36.270 74.200,37.210 71.930,38.150 72.370,39.250 72.800,40.320 73.240,41.420 Z M 74.430,48.340 C 74.460,48.340 74.510,48.360 74.550,48.360 76.520,48.390 78.500,48.420 80.470,48.450 80.630,48.450 80.680,48.390 80.680,48.240 80.680,46.910 80.680,45.590 80.680,44.260 80.680,44.060 80.620,44.010 80.410,44.040 78.600,44.270 76.790,44.480 74.980,44.700 74.650,44.740 74.320,44.780 74.020,44.820 74.170,46.010 74.300,47.170 74.430,48.340 Z M 80.200,52.870 C 78.190,52.570 76.280,52.290 74.410,52.010 74.200,53.170 74.000,54.290 73.790,55.400 73.760,55.560 73.860,55.570 73.960,55.600 75.360,56.010 76.750,56.420 78.150,56.840 78.430,56.920 78.710,57.000 79.050,57.100 79.430,55.690 79.810,54.300 80.200,52.870 Z M 72.700,59.050 C 72.660,59.120 72.640,59.160 72.620,59.210 72.150,60.220 71.690,61.230 71.220,62.230 71.150,62.380 71.220,62.430 71.320,62.490 72.520,63.240 73.720,63.980 74.920,64.740 75.060,64.830 75.120,64.800 75.200,64.670 75.550,64.100 75.910,63.530 76.250,62.950 76.600,62.350 76.940,61.750 77.310,61.120 75.760,60.430 74.240,59.740 72.700,59.050 Z M 69.180,65.570 C 68.370,66.520 67.570,67.460 66.750,68.410 67.590,69.330 68.440,70.260 69.300,71.200 70.410,70.260 71.430,69.270 72.390,68.200 71.310,67.310 70.240,66.440 69.180,65.570 Z M 65.900,73.690 C 65.210,72.700 64.580,71.790 63.940,70.880 63.900,70.890 63.880,70.880 63.870,70.890 62.880,71.550 61.900,72.220 60.910,72.880 60.780,72.970 60.820,73.040 60.870,73.140 61.150,73.690 61.440,74.250 61.720,74.810 61.860,75.090 62.000,75.360 62.170,75.700 63.420,75.020 64.640,74.360 65.900,73.690 Z M 54.150,77.990 C 55.540,77.770 56.870,77.490 58.210,77.090 57.920,76.260 57.640,75.460 57.360,74.650 57.270,74.680 57.220,74.700 57.170,74.720 56.160,75.060 55.140,75.410 54.130,75.740 53.730,75.870 53.720,75.850 53.800,76.250 53.910,76.820 54.030,77.390 54.150,77.990 Z M 49.920,76.560 C 49.560,76.590 49.240,76.640 48.910,76.650 48.020,76.690 47.140,76.710 46.250,76.750 46.170,76.750 46.040,76.810 46.030,76.850 45.990,77.260 45.960,77.670 45.930,78.100 47.300,78.270 48.650,78.340 50.020,78.320 49.990,77.730 49.950,77.170 49.920,76.560 Z M 39.620,63.450 C 39.830,63.890 40.160,64.090 40.660,64.060 40.800,63.870 40.990,63.640 41.180,63.380 40.750,63.130 40.360,62.900 39.960,62.660 39.890,62.810 39.820,62.930 39.770,63.050 39.720,63.210 39.660,63.360 39.620,63.450 Z M 41.920,77.350 C 41.980,77.060 42.030,76.820 42.070,76.570 42.080,76.510 42.050,76.380 42.020,76.380 41.910,76.360 41.740,76.330 41.690,76.390 41.520,76.620 41.390,76.880 41.230,77.160 41.470,77.220 41.670,77.280 41.920,77.350 Z M 40.210,64.160 C 40.040,64.060 39.920,63.990 39.770,63.900 39.740,63.980 39.690,64.080 39.710,64.100 39.810,64.180 39.930,64.260 40.050,64.310 40.070,64.320 40.140,64.230 40.210,64.160 Z " />
  <path stroke="none" fill="#ffffffff" d="M 43.120,61.470 C 42.300,60.970 41.500,60.490 40.670,59.980 40.920,59.560 41.150,59.160 41.390,58.750 42.570,56.760 43.760,54.760 44.940,52.770 46.540,50.070 48.140,47.360 49.740,44.660 51.180,42.220 52.620,39.790 54.070,37.350 55.310,35.250 56.560,33.160 57.800,31.060 59.210,28.690 60.610,26.310 62.020,23.940 63.170,22.010 64.310,20.070 65.460,18.140 65.840,17.500 66.760,17.290 67.400,17.680 68.070,18.090 68.310,18.980 67.930,19.630 66.190,22.560 64.450,25.490 62.720,28.420 60.250,32.590 57.780,36.760 55.310,40.930 53.740,43.590 52.160,46.240 50.590,48.900 48.150,53.020 45.710,57.140 43.270,61.260 43.220,61.320 43.180,61.380 43.120,61.470 Z " />
  <path stroke="none" fill="#ffffffff" d="M 40.370,64.090 C 40.610,64.330 40.750,64.170 40.870,63.990 41.280,63.410 41.690,62.820 42.100,62.240 42.420,61.780 42.880,61.680 43.290,62.000 43.140,62.250 42.990,62.500 42.840,62.760 42.960,62.840 43.060,62.910 43.180,62.990 43.100,63.140 43.020,63.270 42.930,63.440 43.170,63.580 43.390,63.720 43.630,63.850 43.990,64.060 44.050,64.250 43.840,64.600 43.790,64.690 43.740,64.780 43.680,64.870 43.530,65.130 43.290,65.190 43.030,65.040 42.780,64.890 42.520,64.740 42.250,64.580 42.130,64.780 42.010,64.960 41.910,65.130 41.880,65.130 41.860,65.140 41.850,65.130 41.530,64.960 41.540,64.960 41.350,65.280 39.820,67.870 38.280,70.450 36.750,73.040 36.240,73.890 35.740,74.750 35.240,75.600 35.190,75.680 35.140,75.790 35.160,75.860 35.250,76.090 35.150,76.250 35.040,76.440 34.750,76.910 34.480,77.390 34.190,77.860 34.130,77.960 33.990,78.020 33.890,78.100 33.810,78.160 33.710,78.200 33.660,78.280 33.340,78.800 33.020,79.310 32.740,79.850 32.670,79.990 32.730,80.200 32.720,80.380 32.710,80.520 32.710,80.680 32.640,80.800 32.070,81.780 31.490,82.760 30.910,83.740 30.840,83.860 30.770,83.950 30.620,84.020 30.390,84.120 30.210,84.320 30.020,84.490 29.980,84.530 29.970,84.620 29.970,84.680 29.960,84.890 29.920,85.100 29.970,85.300 30.030,85.560 29.970,85.750 29.830,85.960 29.690,86.160 29.570,86.380 29.420,86.540 29.300,86.580 29.170,86.610 29.050,86.650 28.980,86.670 28.920,86.720 28.860,86.750 28.560,86.910 28.300,86.940 27.970,86.730 27.250,86.260 26.510,85.840 25.770,85.420 25.590,85.320 25.490,85.190 25.480,84.990 25.470,84.820 25.470,84.650 25.450,84.490 25.440,84.390 25.380,84.300 25.350,84.200 25.330,84.150 25.310,84.080 25.330,84.040 25.510,83.720 25.700,83.410 25.920,83.150 26.030,83.110 26.130,83.080 26.230,83.030 26.340,82.980 26.430,82.870 26.540,82.850 26.830,82.780 26.910,82.580 26.920,82.330 26.930,82.130 26.940,81.920 26.970,81.720 26.980,81.660 27.020,81.600 27.050,81.550 27.650,80.540 28.240,79.520 28.850,78.520 28.920,78.410 29.070,78.320 29.210,78.270 29.450,78.200 29.600,78.070 29.730,77.860 31.810,74.330 33.920,70.800 35.980,67.260 36.170,66.930 36.230,66.480 36.510,66.220 36.790,65.960 36.940,65.630 37.150,65.340 37.190,65.280 37.220,65.210 37.240,65.170 37.040,65.090 36.870,65.030 36.660,64.940 36.920,64.510 37.150,64.120 37.390,63.700 37.560,63.830 37.850,63.810 37.740,64.180 37.770,64.180 37.810,64.170 37.840,64.170 38.040,63.830 38.250,63.500 38.460,63.140 38.340,63.060 38.240,62.990 38.120,62.900 38.230,62.710 38.340,62.530 38.460,62.320 38.190,62.160 37.940,62.010 37.690,61.860 37.420,61.700 37.370,61.470 37.530,61.200 37.600,61.090 37.660,60.980 37.730,60.870 37.880,60.630 38.100,60.570 38.350,60.710 38.600,60.860 38.860,61.010 39.130,61.170 39.230,61.020 39.320,60.890 39.420,60.740 39.540,60.800 39.650,60.850 39.780,60.920 39.940,60.660 40.090,60.410 40.240,60.160 40.640,60.330 40.830,60.690 40.670,61.080 40.460,61.590 40.190,62.070 39.950,62.570 39.850,62.770 39.750,62.970 39.670,63.180 39.580,63.390 39.430,63.620 39.810,63.730 39.430,64.380 39.060,65.000 38.700,65.610 37.020,68.450 35.330,71.290 33.650,74.140 33.240,74.840 32.840,75.540 32.450,76.250 32.360,76.420 32.290,76.600 32.230,76.780 32.190,76.900 32.200,77.040 32.190,77.170 32.220,77.190 32.240,77.210 32.270,77.230 32.400,77.130 32.570,77.060 32.660,76.930 33.090,76.310 33.520,75.700 33.900,75.050 36.040,71.460 38.160,67.870 40.290,64.280 40.270,64.230 40.310,64.180 40.370,64.090 Z M 30.830,81.090 C 30.830,80.570 30.420,80.140 29.920,80.130 29.400,80.120 28.960,80.540 28.950,81.060 28.940,81.580 29.370,82.020 29.880,82.020 30.390,82.010 30.820,81.590 30.830,81.090 Z " />
  <path stroke="none" fill="#ffffffff" d="M 14.660,66.460 C 13.880,64.910 13.220,63.340 12.660,61.710 13.110,61.530 13.540,61.370 13.970,61.200 18.710,59.370 23.460,57.540 28.200,55.700 28.400,55.620 28.490,55.650 28.590,55.850 28.930,56.510 29.300,57.150 29.660,57.800 29.710,57.890 29.770,57.970 29.840,58.090 24.780,60.880 19.740,63.660 14.660,66.460 Z " />
  <path stroke="none" fill="#ffffffff" d="M 27.370,52.920 C 22.020,54.200 16.690,55.470 11.340,56.750 11.260,56.300 11.160,55.870 11.110,55.440 10.970,54.270 10.850,53.090 10.710,51.910 10.690,51.730 10.750,51.680 10.920,51.660 14.060,51.350 17.190,51.040 20.320,50.730 22.340,50.530 24.360,50.330 26.380,50.120 26.620,50.100 26.700,50.150 26.750,50.390 26.910,51.160 27.120,51.930 27.300,52.700 27.330,52.770 27.340,52.830 27.370,52.920 Z " />
  <path stroke="none" fill="#ffffffff" d="M 26.440,47.130 C 25.860,47.130 25.300,47.150 24.740,47.130 20.460,46.980 16.190,46.820 11.910,46.660 11.580,46.650 11.250,46.630 10.930,46.620 10.770,46.620 10.740,46.560 10.760,46.420 10.890,44.860 11.120,43.320 11.430,41.790 11.470,41.620 11.550,41.620 11.680,41.640 13.930,42.040 16.180,42.430 18.430,42.820 21.060,43.280 23.690,43.740 26.320,44.200 26.450,44.220 26.540,44.230 26.530,44.410 26.490,45.300 26.470,46.180 26.440,47.070 26.450,47.100 26.440,47.130 26.440,47.130 Z " />
  <path stroke="none" fill="#ffffffff" d="M 19.970,74.440 C 19.060,73.260 18.170,72.110 17.260,70.940 22.050,67.380 26.790,63.860 31.460,60.390 32.020,60.900 32.550,61.390 33.100,61.890 28.730,66.080 24.380,70.230 19.970,74.440 Z " />
  <path stroke="none" fill="#ffffffff" d="M 12.880,36.780 C 13.450,35.190 14.110,33.690 14.880,32.210 15.250,32.380 15.600,32.550 15.950,32.720 19.870,34.590 23.800,36.470 27.730,38.340 27.910,38.430 27.930,38.500 27.870,38.680 27.590,39.540 27.320,40.400 27.040,41.300 22.340,39.800 17.630,38.300 12.880,36.780 Z " />
  <path stroke="none" fill="#ffffffff" d="M 17.520,28.010 C 18.490,26.650 19.520,25.400 20.660,24.190 21.060,24.540 21.450,24.880 21.840,25.220 24.830,27.830 27.820,30.430 30.810,33.040 30.900,33.120 30.990,33.170 30.890,33.330 30.370,34.100 29.870,34.880 29.360,35.650 29.340,35.680 29.320,35.700 29.280,35.750 25.370,33.170 21.460,30.600 17.520,28.010 Z " />
  <path stroke="none" fill="#ffffffff" d="M 35.320,28.720 C 34.530,29.390 33.760,30.050 32.970,30.720 30.090,27.440 27.190,24.140 24.270,20.830 25.540,19.800 26.860,18.880 28.270,18.030 30.620,21.600 32.970,25.160 35.320,28.720 Z " />
  <path stroke="none" fill="#ffffffff" d="M 40.840,25.630 C 39.880,26.080 38.930,26.530 37.970,26.980 36.190,23.280 34.410,19.570 32.630,15.870 32.950,15.590 36.370,14.370 37.170,14.250 38.390,18.030 39.620,21.830 40.840,25.630 Z " />
  <path stroke="none" fill="#ffffffff" d="M 43.890,24.680 C 43.210,20.880 42.530,17.090 41.850,13.260 42.270,13.210 42.670,13.140 43.070,13.120 44.150,13.050 45.220,13.000 46.300,12.940 46.610,12.920 46.610,12.930 46.620,13.250 46.770,16.790 46.910,20.330 47.060,23.870 47.070,24.100 47.000,24.140 46.790,24.170 45.910,24.310 45.030,24.480 44.150,24.630 44.080,24.640 44.010,24.660 43.890,24.680 Z " />
  <path stroke="none" fill="#ffffffff" d="M 51.350,13.250 C 51.920,13.350 52.470,13.430 53.000,13.550 53.920,13.750 54.830,13.990 55.750,14.200 55.920,14.240 55.960,14.310 55.920,14.480 55.160,17.700 54.410,20.930 53.650,24.150 53.630,24.220 53.540,24.320 53.490,24.320 52.460,24.210 51.430,24.090 50.360,23.970 50.680,20.420 51.010,16.850 51.350,13.250 Z " />
  <path stroke="none" fill="#ffffffff" d="M 68.120,32.380 C 70.260,30.700 72.420,29.000 74.610,27.290 74.670,27.360 74.720,27.420 74.760,27.480 75.470,28.640 76.190,29.810 76.900,30.970 76.990,31.110 76.970,31.180 76.820,31.270 74.650,32.530 72.480,33.800 70.320,35.060 70.230,35.120 70.160,35.160 70.060,35.040 69.430,34.170 68.780,33.290 68.120,32.380 Z " />
  <path stroke="none" fill="#ffffffff" d="M 73.240,41.420 C 72.800,40.320 72.370,39.250 71.930,38.160 74.200,37.220 76.480,36.280 78.790,35.320 79.330,36.720 79.730,38.150 80.070,39.640 77.780,40.230 75.500,40.820 73.240,41.420 Z " />
  <path stroke="none" fill="#ffffffff" d="M 74.430,48.340 C 74.300,47.170 74.170,46.010 74.030,44.820 74.330,44.780 74.660,44.740 74.990,44.700 76.800,44.480 78.610,44.270 80.420,44.040 80.630,44.010 80.690,44.060 80.690,44.260 80.680,45.590 80.690,46.910 80.690,48.240 80.690,48.390 80.640,48.450 80.480,48.450 78.510,48.420 76.530,48.390 74.560,48.360 74.510,48.360 74.460,48.340 74.430,48.340 Z " />
  <path stroke="none" fill="#ffffffff" d="M 80.200,52.870 C 79.810,54.300 79.430,55.680 79.050,57.100 78.710,57.000 78.430,56.920 78.150,56.840 76.750,56.430 75.360,56.020 73.960,55.600 73.860,55.570 73.760,55.560 73.790,55.400 74.000,54.290 74.200,53.170 74.410,52.010 76.280,52.290 78.190,52.580 80.200,52.870 Z " />
  <path stroke="none" fill="#ffffffff" d="M 72.700,59.050 C 74.240,59.740 75.760,60.420 77.300,61.120 76.940,61.750 76.600,62.360 76.240,62.950 75.900,63.530 75.540,64.090 75.190,64.670 75.110,64.800 75.050,64.820 74.910,64.740 73.710,63.990 72.510,63.240 71.310,62.490 71.210,62.430 71.140,62.380 71.210,62.230 71.680,61.230 72.150,60.220 72.610,59.210 72.630,59.160 72.660,59.120 72.700,59.050 Z " />
  <path stroke="none" fill="#ffffffff" d="M 69.180,65.570 C 70.240,66.440 71.300,67.310 72.390,68.200 71.430,69.270 70.410,70.260 69.300,71.200 68.440,70.260 67.590,69.330 66.750,68.410 67.570,67.470 68.370,66.530 69.180,65.570 Z " />
  <path stroke="none" fill="#ffffffff" d="M 65.900,73.690 C 64.640,74.370 63.420,75.020 62.180,75.690 62.010,75.350 61.870,75.080 61.730,74.800 61.450,74.240 61.160,73.690 60.880,73.130 60.830,73.030 60.790,72.960 60.920,72.870 61.910,72.210 62.900,71.550 63.880,70.880 63.890,70.870 63.910,70.880 63.950,70.870 64.570,71.790 65.210,72.700 65.900,73.690 Z " />
  <path stroke="none" fill="#ffffffff" d="M 54.150,77.990 C 54.030,77.390 53.910,76.820 53.800,76.250 53.720,75.850 53.730,75.870 54.130,75.740 55.150,75.410 56.160,75.060 57.170,74.720 57.220,74.700 57.270,74.680 57.360,74.650 57.640,75.460 57.920,76.260 58.210,77.090 56.870,77.480 55.540,77.770 54.150,77.990 Z " />
  <path stroke="none" fill="#ffffffff" d="M 49.920,76.560 C 49.960,77.160 49.990,77.720 50.030,78.320 48.650,78.340 47.310,78.270 45.940,78.100 45.970,77.670 45.990,77.260 46.040,76.850 46.040,76.810 46.180,76.750 46.260,76.750 47.150,76.710 48.030,76.690 48.920,76.650 49.230,76.640 49.560,76.600 49.920,76.560 Z " />
  <path stroke="none" fill="#ffffffff" d="M 39.620,63.450 C 39.660,63.350 39.710,63.210 39.770,63.060 39.820,62.940 39.890,62.820 39.960,62.670 40.360,62.910 40.750,63.140 41.180,63.390 40.980,63.650 40.800,63.880 40.660,64.070 40.170,64.090 39.840,63.890 39.620,63.450 Z " />
  <path stroke="none" fill="#ffffffff" d="M 41.920,77.350 C 41.680,77.280 41.480,77.220 41.230,77.150 41.390,76.870 41.520,76.610 41.690,76.380 41.730,76.320 41.910,76.350 42.020,76.370 42.050,76.380 42.080,76.500 42.070,76.560 42.030,76.810 41.970,77.060 41.920,77.350 Z " />
  <path stroke="none" fill="#ffffffff" d="M 40.210,64.160 C 40.140,64.230 40.070,64.320 40.050,64.310 39.930,64.260 39.810,64.180 39.710,64.100 39.690,64.090 39.740,63.990 39.770,63.900 39.920,63.990 40.040,64.060 40.210,64.160 Z " />
  <path stroke="none" fill="none" d="M 30.830,81.090 C 30.830,81.590 30.400,82.010 29.890,82.020 29.380,82.020 28.950,81.580 28.960,81.060 28.970,80.550 29.410,80.120 29.930,80.130 30.420,80.140 30.830,80.570 30.830,81.090 Z M 29.060,81.060 C 29.050,81.520 29.400,81.890 29.860,81.900 30.320,81.910 30.700,81.540 30.710,81.080 30.720,80.640 30.360,80.270 29.920,80.250 29.460,80.230 29.080,80.590 29.060,81.060 Z " />
  <path stroke="none" fill="#ffffffff" d="M 29.060,81.060 C 29.070,80.590 29.460,80.230 29.920,80.250 30.360,80.270 30.720,80.640 30.710,81.080 30.700,81.550 30.320,81.910 29.860,81.900 29.410,81.890 29.050,81.520 29.060,81.060 Z M 29.880,80.590 C 29.610,80.600 29.400,80.810 29.400,81.080 29.400,81.350 29.630,81.570 29.890,81.560 30.160,81.550 30.380,81.330 30.380,81.070 30.380,80.810 30.140,80.580 29.880,80.590 Z " />
  <path stroke="none" fill="none" d="M 29.880,80.590 C 30.140,80.580 30.370,80.810 30.380,81.070 30.380,81.330 30.160,81.560 29.890,81.560 29.630,81.570 29.400,81.350 29.400,81.080 29.400,80.810 29.610,80.590 29.880,80.590 Z " />
</svg>