<?xml version="1.0" encoding="UTF-8" standalone="no"?>
<!DOCTYPE svg PUBLIC "-//W3C//DTD SVG 20010904//EN" "http://www.w3.org/TR/2001/REC-SVG-20010904/DTD/svg10.dtd"[]>
<svg version="1.1" id="Frosty Editor v1.0.6.3" xmlns="http://www.w3.org/2000/svg" d1p1:xlink="http://www.w3.org/1999/xlink" viewBox="0 0 384 96" xmlns:d1p1="xmlns">
  <path stroke="none" fill="#fffdfdfd" d="M 246.700,17.700 C 246.600,16.500 246.600,15.400 246.700,14.200 246.700,13.700 247.100,13.600 247.500,13.600 249.800,13.600 252.100,13.600 254.400,13.600 255.000,13.600 255.600,13.600 256.100,13.600 256.500,13.600 256.800,13.800 256.800,14.200 256.800,15.200 256.800,16.300 256.800,17.300 256.800,17.400 256.700,17.500 256.700,17.600 257.000,17.600 257.200,17.600 257.500,17.600 259.000,17.600 260.500,17.600 262.000,17.600 262.300,17.600 262.400,17.600 262.400,17.200 262.400,16.700 262.400,16.300 262.400,15.800 262.400,15.000 262.600,14.900 263.300,14.900 264.300,14.900 265.300,14.900 266.300,14.900 266.700,14.900 266.700,14.800 266.700,14.400 266.700,12.800 266.800,11.200 266.700,9.600 266.600,8.600 267.100,7.800 267.700,7.100 268.400,6.200 269.100,5.900 270.200,6.000 271.600,6.100 272.900,6.000 274.300,6.000 274.700,6.000 275.000,6.100 275.300,6.500 275.400,6.700 275.500,6.900 275.700,7.100 276.500,7.900 276.700,8.900 276.600,10.000 276.500,11.500 276.600,13.000 276.600,14.500 276.600,14.800 276.700,14.900 277.000,14.900 277.700,14.900 278.500,14.900 279.200,14.900 279.800,14.900 280.000,15.100 280.000,15.700 280.000,16.200 280.000,16.700 280.000,17.100 280.000,17.500 280.100,17.600 280.500,17.600 282.000,17.600 283.500,17.600 285.000,17.600 285.800,17.600 286.000,17.800 286.000,18.600 286.000,19.600 285.700,20.600 285.400,21.500 285.100,22.200 284.500,22.700 283.900,23.200 282.700,24.100 281.400,24.400 279.900,24.500 277.900,24.600 275.800,24.800 273.800,24.900 273.100,24.900 272.400,24.900 271.700,25.100 271.500,25.100 271.400,25.200 271.400,25.400 271.400,28.300 271.400,31.200 271.400,34.100 271.400,34.300 271.400,34.400 271.700,34.400 273.200,34.500 274.700,34.600 276.200,34.700 278.200,34.900 280.300,34.700 282.200,35.400 283.500,35.800 284.700,36.700 285.400,37.900 285.900,38.900 286.200,40.100 286.100,41.300 286.100,41.800 285.700,41.900 285.300,41.900 283.700,41.900 282.200,41.900 280.600,41.900 280.200,41.900 280.100,42.000 280.100,42.400 280.100,42.900 280.100,43.400 280.100,43.800 280.100,44.400 279.900,44.600 279.300,44.600 278.600,44.600 277.900,44.600 277.100,44.600 276.800,44.600 276.700,44.700 276.700,45.000 276.700,46.900 276.700,48.700 276.700,50.600 276.700,50.900 276.600,51.200 276.400,51.500 276.000,52.000 275.700,52.500 275.400,53.000 275.200,53.300 274.900,53.500 274.500,53.500 272.800,53.500 271.100,53.500 269.400,53.500 269.000,53.500 268.800,53.400 268.500,53.100 268.100,52.600 267.700,52.100 267.200,51.600 267.000,51.300 266.900,51.100 266.900,50.700 266.900,48.800 266.900,46.900 266.900,45.000 266.900,44.700 266.800,44.600 266.500,44.600 265.500,44.600 264.500,44.600 263.400,44.600 262.800,44.600 262.600,44.400 262.600,43.800 262.600,43.300 262.600,42.700 262.600,42.200 262.600,42.000 262.500,41.900 262.300,41.900 262.200,41.900 262.100,41.900 262.000,41.900 235.900,41.900 209.700,41.900 183.600,41.900 183.200,41.900 183.000,42.000 182.700,42.300 182.400,42.700 182.000,42.900 181.800,43.300 181.600,43.600 181.300,43.500 181.000,43.500 176.700,43.500 172.500,43.500 168.200,43.500 167.200,43.500 166.300,43.300 165.700,42.500 165.300,42.000 164.900,41.900 164.300,41.900 160.500,41.900 156.700,41.900 153.000,41.900 152.300,41.900 151.800,42.100 151.300,42.600 150.600,43.200 149.900,43.800 149.200,44.400 149.000,44.600 148.700,44.600 148.400,44.600 145.100,44.600 141.800,44.600 138.500,44.600 133.700,44.600 128.800,44.600 124.000,44.600 123.500,44.600 123.100,44.500 123.000,43.900 123.000,43.700 122.800,43.700 122.700,43.600 121.300,43.100 119.800,42.500 118.400,42.000 118.200,41.900 118.100,42.000 117.900,42.100 116.700,43.100 115.300,43.900 113.800,44.400 113.500,44.500 113.500,44.700 113.500,44.900 113.500,45.700 113.300,45.900 112.500,45.900 110.100,45.900 107.600,45.900 105.200,45.900 104.400,45.900 104.200,45.700 104.200,44.900 104.200,44.400 104.100,44.100 103.600,43.900 101.900,43.100 100.500,42.000 99.200,40.700 98.900,40.400 98.900,40.100 98.900,39.700 98.900,34.400 98.900,29.000 98.900,23.700 98.900,22.400 98.900,21.000 98.900,19.700 98.900,19.300 99.000,19.000 99.300,18.700 100.600,17.300 102.100,16.200 103.900,15.400 104.100,15.300 104.200,15.200 104.200,15.000 104.200,13.600 104.200,13.600 105.600,13.600 107.900,13.600 110.200,13.600 112.600,13.600 113.400,13.600 113.500,13.800 113.500,14.500 113.500,14.800 113.600,14.900 113.900,15.000 115.300,15.500 116.600,16.300 117.800,17.300 118.000,17.500 118.200,17.500 118.400,17.400 119.800,16.900 121.200,16.400 122.600,15.900 122.800,15.800 123.000,15.800 123.000,15.500 123.000,15.200 123.300,15.000 123.600,15.000 123.700,15.000 123.900,15.000 124.000,15.000 132.100,15.000 140.200,15.000 148.200,15.000 148.700,15.000 149.000,15.100 149.400,15.400 150.200,16.100 151.000,16.800 151.900,17.500 152.000,17.600 152.100,17.700 152.300,17.700 152.400,17.700 152.500,17.700 152.600,17.700 179.400,17.700 206.100,17.700 232.900,17.700 233.200,17.700 233.500,17.700 233.500,17.300 233.500,17.000 233.800,16.900 234.100,16.900 236.300,16.900 238.500,16.900 240.800,16.900 241.200,16.900 241.400,17.100 241.500,17.400 241.500,17.600 241.600,17.600 241.800,17.600 243.100,17.700 244.900,17.700 246.700,17.700 Z M 217.500,39.900 C 218.000,39.900 218.600,39.900 219.100,39.900 230.800,39.900 242.500,40.000 254.200,40.000 261.900,40.000 269.500,40.000 277.200,40.000 279.300,40.000 281.300,40.000 283.400,40.000 283.500,40.000 283.800,40.100 283.800,39.900 283.700,39.500 283.700,39.000 283.400,38.600 282.600,37.900 281.900,37.200 280.800,37.000 280.100,36.800 279.400,36.700 278.700,36.700 276.200,36.600 273.700,36.300 271.100,36.300 268.500,36.200 266.000,35.800 263.500,35.400 263.000,35.300 262.700,35.000 262.700,34.500 262.700,34.200 262.700,33.900 262.700,33.600 262.700,33.300 262.600,33.200 262.300,33.200 247.500,33.300 232.600,33.100 217.800,33.200 212.100,33.200 206.300,33.300 200.600,33.200 191.200,33.200 181.800,33.500 172.400,33.000 170.200,32.900 168.100,32.400 166.000,31.800 165.100,31.500 164.500,31.000 164.100,30.200 164.000,30.000 163.900,29.800 164.000,29.700 164.300,29.100 164.500,28.500 165.200,28.200 166.900,27.300 168.800,27.000 170.700,26.700 172.600,26.400 174.600,26.400 176.500,26.400 179.600,26.300 182.800,26.300 185.900,26.400 192.000,26.400 198.100,26.500 204.100,26.400 212.900,26.300 221.700,26.600 230.400,26.500 240.400,26.400 250.300,26.500 260.300,26.500 260.900,26.500 261.600,26.500 262.200,26.500 262.500,26.500 262.500,26.400 262.500,26.200 262.500,25.900 262.500,25.600 262.500,25.200 262.500,24.700 262.700,24.400 263.200,24.300 264.600,24.100 265.900,23.700 267.300,23.600 269.500,23.400 271.800,23.300 274.000,23.200 275.300,23.100 276.600,23.100 277.900,23.000 278.600,22.900 279.300,23.000 280.000,22.800 281.200,22.500 282.200,21.900 283.000,21.100 283.200,20.900 283.700,19.800 283.500,19.700 283.200,19.500 282.900,19.700 282.500,19.600 282.500,19.600 282.400,19.600 282.400,19.600 270.300,19.600 258.200,19.600 246.200,19.700 231.400,19.800 216.600,19.800 201.800,19.800 191.600,19.800 181.400,19.900 171.200,19.900 164.700,19.900 158.100,19.900 151.600,19.900 151.000,19.900 150.500,19.700 150.000,19.300 149.400,18.700 148.700,18.100 148.000,17.500 147.800,17.300 147.600,17.300 147.400,17.300 139.900,17.300 132.300,17.300 124.800,17.300 124.500,17.300 124.400,17.400 124.400,17.700 124.400,25.900 124.400,34.100 124.400,42.300 124.400,42.600 124.500,42.700 124.800,42.700 132.400,42.700 139.900,42.700 147.500,42.700 147.700,42.700 147.900,42.700 148.000,42.500 148.600,41.900 149.300,41.400 149.800,40.800 150.400,40.200 151.000,40.000 151.800,40.000 162.000,40.000 172.200,40.000 182.400,40.100 194.300,39.900 205.900,39.800 217.500,39.900 Z M 113.200,42.400 C 113.500,42.300 113.700,42.200 113.900,42.100 114.800,41.700 115.500,41.100 116.200,40.500 116.500,40.300 116.600,40.100 116.600,39.700 116.600,33.400 116.500,27.100 116.600,20.700 116.600,19.300 116.100,18.500 115.000,17.900 114.500,17.700 114.100,17.400 113.600,17.200 113.500,17.100 113.300,17.000 113.100,17.100 113.100,17.900 113.100,18.700 113.100,19.500 113.100,20.300 112.900,20.500 112.100,20.500 109.600,20.500 107.200,20.500 104.700,20.500 103.900,20.500 103.700,20.300 103.700,19.500 103.700,18.800 103.700,18.200 103.700,17.400 102.500,18.000 101.500,18.700 100.600,19.500 100.500,19.700 100.400,19.800 100.400,20.000 100.400,22.300 100.400,24.600 100.400,26.900 100.400,31.000 100.400,35.100 100.400,39.200 100.400,39.400 100.400,39.500 100.500,39.700 101.400,40.700 102.400,41.400 103.700,41.900 103.700,41.200 103.700,40.500 103.700,39.900 103.700,39.200 103.900,39.000 104.600,39.000 107.100,39.000 109.600,39.000 112.100,39.000 112.800,39.000 113.000,39.200 113.000,39.900 113.200,40.700 113.200,41.500 113.200,42.400 Z M 122.600,17.800 C 121.300,18.300 120.000,18.800 118.700,19.300 118.400,19.400 118.200,19.600 118.200,20.000 118.200,26.500 118.200,32.900 118.200,39.400 118.200,39.500 118.200,39.600 118.200,39.700 118.200,39.800 118.200,39.900 118.400,40.000 119.800,40.500 121.100,41.100 122.500,41.600 122.600,33.600 122.600,25.800 122.600,17.800 Z M 271.400,14.900 C 272.300,14.900 273.300,14.900 274.200,14.900 274.500,14.900 274.600,14.800 274.600,14.500 274.600,13.200 274.500,11.900 274.600,10.600 274.700,9.600 274.400,8.700 273.800,7.900 273.600,7.700 273.500,7.600 273.200,7.600 272.400,7.600 271.500,7.700 270.700,7.600 269.700,7.500 269.000,7.800 268.600,8.700 268.500,9.000 268.200,9.200 268.200,9.500 268.200,11.200 268.200,12.900 268.200,14.600 268.200,14.900 268.300,15.000 268.600,14.900 269.500,14.900 270.500,14.900 271.400,14.900 Z M 271.500,44.600 C 270.500,44.600 269.600,44.600 268.600,44.600 268.300,44.600 268.200,44.600 268.200,45.000 268.200,46.700 268.200,48.400 268.200,50.100 268.200,50.400 269.200,51.900 269.500,51.900 269.600,51.900 269.700,51.900 269.800,51.900 270.800,51.900 271.800,51.900 272.800,51.900 273.500,51.900 273.900,51.800 274.100,51.200 274.300,50.800 274.600,50.600 274.600,50.100 274.600,48.400 274.600,46.700 274.600,45.000 274.600,44.700 274.500,44.700 274.200,44.700 273.400,44.600 272.400,44.600 271.500,44.600 Z M 269.200,29.800 C 269.200,28.800 269.200,27.800 269.200,26.900 269.200,26.600 269.100,26.500 268.800,26.500 267.800,26.500 266.800,26.800 265.800,26.900 265.600,26.900 265.600,27.000 265.600,27.100 265.600,28.900 265.600,30.600 265.600,32.400 265.600,32.500 265.600,32.600 265.800,32.700 266.800,32.800 267.800,33.100 268.800,33.100 269.100,33.100 269.200,33.000 269.200,32.700 269.200,31.700 269.200,30.700 269.200,29.800 Z M 271.000,16.500 C 268.800,16.500 266.600,16.500 264.400,16.500 264.000,16.500 264.000,16.700 264.000,17.000 264.000,17.300 264.000,17.500 264.400,17.500 268.800,17.500 273.200,17.500 277.500,17.500 277.900,17.500 277.900,17.300 277.900,17.000 277.900,16.700 277.900,16.500 277.500,16.500 275.400,16.500 273.200,16.500 271.000,16.500 Z M 271.000,42.000 C 268.800,42.000 266.600,42.000 264.400,42.000 264.000,42.000 264.000,42.200 264.000,42.500 264.000,42.800 264.000,43.000 264.400,43.000 268.800,43.000 273.200,43.000 277.500,43.000 277.900,43.000 277.900,42.800 277.900,42.500 277.900,42.200 277.900,42.000 277.500,42.000 275.400,42.100 273.200,42.000 271.000,42.000 Z M 251.800,15.300 C 250.800,15.300 249.700,15.300 248.700,15.300 248.200,15.300 248.400,15.600 248.400,15.800 248.400,16.000 248.300,16.300 248.700,16.300 250.700,16.300 252.800,16.300 254.800,16.300 255.300,16.300 255.100,16.000 255.100,15.800 255.100,15.600 255.200,15.300 254.800,15.300 253.800,15.300 252.800,15.300 251.800,15.300 Z " />
  <path stroke="none" fill="#fffdfdfd" d="M 180.700,60.200 C 199.100,60.200 217.600,60.200 236.000,60.200 237.400,60.200 238.800,60.400 240.200,60.700 241.600,61.100 242.900,61.400 244.300,61.700 244.600,61.800 244.800,61.700 245.100,61.500 246.100,60.700 247.200,60.000 248.400,59.600 248.600,59.500 248.700,59.400 248.700,59.200 248.700,58.700 248.900,58.500 249.400,58.500 251.600,58.500 253.800,58.500 256.000,58.500 256.600,58.500 256.800,58.700 256.800,59.300 256.800,59.700 256.900,59.900 257.300,60.100 258.700,60.700 259.900,61.700 260.900,62.800 261.200,63.100 261.300,63.400 261.300,63.700 261.300,69.400 261.300,75.200 261.300,80.900 261.300,81.200 261.200,81.500 261.000,81.700 259.900,82.900 258.600,83.900 257.100,84.600 256.900,84.700 256.800,84.800 256.800,85.000 256.800,85.100 256.800,85.200 256.800,85.300 256.800,85.900 256.600,86.100 256.000,86.100 255.000,86.100 254.100,86.100 253.100,86.100 251.900,86.100 250.700,86.100 249.500,86.100 248.900,86.100 248.600,85.900 248.700,85.300 248.700,85.000 248.600,84.900 248.300,84.800 247.300,84.400 246.400,84.000 245.600,83.300 245.100,82.800 244.600,82.800 243.900,82.900 242.200,83.400 240.500,83.800 238.700,84.200 238.300,84.300 237.800,84.300 237.300,84.300 220.700,84.300 204.100,84.300 187.400,84.300 187.100,84.300 186.700,84.200 186.700,84.700 186.700,85.000 186.400,85.100 186.100,85.100 183.900,85.100 181.700,85.100 179.400,85.100 179.000,85.100 178.700,84.900 178.700,84.500 178.700,84.300 178.600,84.300 178.400,84.300 178.300,84.300 178.200,84.300 178.100,84.300 160.200,84.300 142.300,84.300 124.300,84.300 122.800,84.300 122.800,84.100 122.900,82.700 123.000,82.000 123.200,81.300 123.400,80.600 123.500,80.200 123.700,79.900 124.000,79.700 125.100,78.300 126.500,77.600 128.200,77.500 128.800,77.500 129.300,77.400 129.900,77.400 130.100,77.400 130.300,77.300 130.300,77.000 130.300,73.900 130.300,70.700 130.300,67.600 130.300,67.300 130.100,67.200 129.900,67.200 129.100,67.200 128.300,67.100 127.500,67.000 125.800,66.700 124.600,65.800 123.700,64.400 123.600,64.300 123.600,64.200 123.500,64.100 123.300,63.100 122.900,62.100 123.000,61.000 123.000,60.300 123.200,60.200 123.900,60.100 124.000,60.100 124.100,60.100 124.200,60.100 143.000,60.200 161.800,60.200 180.700,60.200 Z M 181.200,82.700 C 181.200,82.700 181.200,82.600 181.200,82.600 188.200,82.600 195.200,82.600 202.200,82.600 213.900,82.600 225.500,82.600 237.200,82.500 237.400,82.500 237.700,82.500 237.900,82.400 239.800,81.900 241.700,81.500 243.600,81.000 243.900,80.900 244.000,80.800 244.000,80.500 244.000,75.000 244.000,69.600 244.000,64.100 244.000,63.800 243.900,63.700 243.600,63.600 242.100,63.200 240.600,62.800 239.200,62.500 238.500,62.300 237.900,62.100 237.200,62.100 235.300,62.100 233.400,62.100 231.500,62.100 220.000,62.000 208.600,62.000 197.200,62.000 183.700,62.000 170.200,61.900 156.600,61.900 147.100,61.900 137.600,61.900 128.000,61.800 127.000,61.800 126.000,61.800 124.900,61.800 124.800,61.800 124.500,61.700 124.600,62.000 124.700,62.500 124.700,63.100 125.000,63.500 125.600,64.500 126.500,65.100 127.700,65.200 129.200,65.300 130.600,65.400 132.100,65.600 135.100,65.900 138.200,66.000 141.200,66.700 142.700,67.100 142.700,66.800 142.700,68.500 142.700,68.900 142.800,69.100 143.300,69.100 152.000,69.100 160.700,69.100 169.500,69.000 177.900,69.000 186.300,69.000 194.700,69.000 197.100,69.000 199.600,68.900 202.000,69.100 203.600,69.300 205.200,69.600 206.700,70.200 208.000,70.700 208.800,72.700 207.400,73.900 206.800,74.400 206.100,74.700 205.400,75.000 203.700,75.600 201.900,75.700 200.200,75.700 191.500,75.700 182.800,75.700 174.100,75.700 163.800,75.700 153.400,75.700 143.100,75.700 142.700,75.700 142.600,75.800 142.600,76.200 142.600,76.500 142.600,76.700 142.600,77.000 142.600,77.300 142.500,77.600 142.100,77.700 140.600,78.000 139.200,78.400 137.700,78.500 134.500,78.800 131.200,79.000 128.000,79.200 127.300,79.300 126.700,79.600 126.100,80.000 125.300,80.600 125.000,81.300 124.800,82.200 124.700,82.800 124.700,82.800 125.300,82.800 133.700,82.800 142.100,82.700 150.500,82.700 160.700,82.700 171.000,82.700 181.200,82.700 Z M 248.600,61.700 C 247.600,62.200 246.700,62.600 246.000,63.400 245.800,63.600 245.800,63.700 245.800,64.000 245.800,65.000 245.800,66.100 245.800,67.100 245.800,71.600 245.800,76.200 245.800,80.700 245.800,80.900 245.700,81.200 245.900,81.300 246.700,82.000 247.600,82.600 248.700,83.000 248.700,82.300 248.700,81.700 248.700,81.100 248.700,80.400 248.900,80.200 249.600,80.200 251.700,80.200 253.900,80.200 256.000,80.200 256.700,80.200 256.900,80.400 256.900,81.100 256.900,81.600 256.900,82.100 256.900,82.700 257.900,82.200 258.700,81.600 259.400,80.800 259.600,80.600 259.600,80.500 259.600,80.300 259.600,75.000 259.600,69.600 259.600,64.300 259.600,64.200 259.600,64.000 259.500,63.900 258.700,63.100 257.900,62.400 256.900,62.000 256.900,62.600 256.900,63.200 256.900,63.800 256.900,64.400 256.700,64.600 256.100,64.600 253.900,64.600 251.700,64.600 249.600,64.600 249.000,64.600 248.800,64.400 248.800,63.800 248.600,63.000 248.600,62.400 248.600,61.700 Z M 132.200,72.300 C 132.200,73.800 132.200,75.300 132.200,76.900 132.200,77.200 132.200,77.200 132.500,77.200 133.500,77.100 134.600,77.000 135.600,76.900 135.900,76.900 136.000,76.800 136.000,76.500 136.000,73.700 136.000,70.800 136.000,68.000 136.000,67.800 136.000,67.700 135.700,67.600 134.600,67.500 133.500,67.500 132.500,67.300 132.200,67.300 132.200,67.400 132.200,67.600 132.200,69.300 132.200,70.800 132.200,72.300 Z M 137.600,75.700 C 138.200,75.600 138.800,75.500 139.400,75.500 139.600,75.500 139.700,75.400 139.700,75.200 139.700,74.700 139.700,74.300 139.700,73.800 139.700,73.600 139.700,73.200 140.000,73.200 140.500,73.100 140.400,72.700 140.300,72.400 140.300,72.100 140.500,71.700 140.000,71.600 139.700,71.500 139.700,71.200 139.700,70.900 139.700,70.500 139.700,70.100 139.700,69.700 139.700,69.500 139.700,69.400 139.500,69.400 138.900,69.300 138.300,69.100 137.600,69.000 137.600,71.100 137.600,73.200 137.600,75.300 137.600,75.400 137.600,75.600 137.600,75.700 Z " />
  <path stroke="none" fill="#fffdfdfd" d="M 136.800,23.400 C 140.400,23.400 143.300,26.300 143.300,29.900 143.300,33.500 140.300,36.400 136.800,36.400 133.200,36.400 130.300,33.500 130.300,29.900 130.300,26.400 133.200,23.400 136.800,23.400 Z M 136.800,25.200 C 134.300,25.100 132.100,27.400 132.000,29.700 131.900,32.700 134.500,34.700 136.600,34.800 139.600,34.900 141.600,32.300 141.700,30.100 141.700,27.300 139.200,25.000 136.800,25.200 Z " />
  <path stroke="none" fill="#fffdfdfd" d="M 108.500,28.600 C 107.200,28.600 106.000,28.600 104.700,28.600 104.100,28.600 103.800,28.400 103.800,27.700 103.800,26.000 103.800,24.300 103.800,22.600 103.800,21.900 104.000,21.700 104.700,21.700 107.200,21.700 109.700,21.700 112.200,21.700 112.900,21.700 113.100,21.900 113.100,22.600 113.100,24.300 113.100,26.000 113.100,27.700 113.100,28.400 112.900,28.600 112.200,28.600 111.100,28.600 109.800,28.600 108.500,28.600 Z " />
  <path stroke="none" fill="#fffdfdfd" d="M 108.500,37.800 C 107.300,37.800 106.000,37.800 104.800,37.800 104.100,37.800 103.900,37.600 103.900,36.900 103.900,35.200 103.900,33.500 103.900,31.800 103.900,31.100 104.100,30.900 104.800,30.900 107.300,30.900 109.900,30.900 112.400,30.900 113.100,30.900 113.300,31.100 113.300,31.800 113.300,33.500 113.300,35.300 113.300,37.000 113.300,37.600 113.100,37.900 112.400,37.900 111.000,37.800 109.800,37.800 108.500,37.800 Z " />
  <path stroke="none" fill="#fffdfdfd" d="M 223.300,65.800 C 225.300,65.700 226.900,66.500 228.200,67.900 229.500,69.300 229.900,71.100 229.800,73.000 229.700,74.700 228.900,76.100 227.600,77.300 226.100,78.700 224.400,79.000 222.400,78.900 220.700,78.800 219.400,77.900 218.200,76.700 216.900,75.300 216.500,73.500 216.600,71.600 216.900,68.900 219.800,65.400 223.300,65.800 Z " />
  <path stroke="none" fill="#fffdfdfd" d="M 252.700,71.400 C 251.600,71.400 250.500,71.400 249.400,71.400 248.800,71.400 248.600,71.200 248.600,70.600 248.600,69.100 248.600,67.600 248.600,66.100 248.600,65.500 248.800,65.300 249.400,65.300 251.600,65.300 253.800,65.300 256.000,65.300 256.600,65.300 256.800,65.500 256.800,66.100 256.800,67.600 256.800,69.100 256.800,70.600 256.800,71.100 256.600,71.400 256.000,71.400 254.900,71.400 253.800,71.400 252.700,71.400 Z " />
  <path stroke="none" fill="#fffdfdfd" d="M 252.800,73.200 C 253.900,73.200 254.900,73.200 256.000,73.200 256.600,73.200 256.800,73.400 256.800,74.000 256.800,75.500 256.800,76.900 256.800,78.400 256.800,79.000 256.600,79.200 256.000,79.200 253.800,79.200 251.700,79.200 249.500,79.200 248.900,79.200 248.700,79.000 248.700,78.400 248.700,76.900 248.700,75.500 248.700,74.000 248.700,73.400 248.900,73.200 249.500,73.200 250.500,73.200 251.700,73.200 252.800,73.200 Z " />
  <path stroke="none" fill="#fffdfdfd" d="M 136.800,26.300 C 138.700,26.200 140.500,28.000 140.400,30.000 140.400,31.900 138.700,33.700 136.700,33.600 134.800,33.600 133.100,31.900 133.100,29.800 133.200,28.000 134.800,26.200 136.800,26.300 Z " />
</svg>