<?xml version="1.0" encoding="UTF-8" standalone="no"?>
<!DOCTYPE svg PUBLIC "-//W3C//DTD SVG 20010904//EN" "http://www.w3.org/TR/2001/REC-SVG-20010904/DTD/svg10.dtd"[]>
<svg version="1.1" id="Frosty Editor v1.0.6.3" xmlns="http://www.w3.org/2000/svg" d1p1:xlink="http://www.w3.org/1999/xlink" viewBox="0 0 96 96" xmlns:d1p1="xmlns">
  <path stroke="none" fill="#ffffffff" d="M 38.200,51.800 C 35.800,51.800 33.400,51.800 31.000,51.800 31.000,52.033 31.000,52.267 31.000,52.500 33.267,52.500 35.533,52.500 37.800,52.500 38.833,53.600 39.867,54.700 40.900,55.800 43.267,53.433 45.633,51.067 48.000,48.700 50.333,51.033 52.667,53.367 55.000,55.700 56.067,54.633 57.133,53.567 58.200,52.500 60.133,52.500 62.067,52.500 64.000,52.500 64.000,52.267 64.000,52.033 64.000,51.800 61.933,51.800 59.867,51.800 57.800,51.800 56.867,52.733 55.933,53.667 55.000,54.600 52.667,52.267 50.333,49.933 48.000,47.600 45.633,49.967 43.267,52.333 40.900,54.700 40.000,53.733 39.100,52.767 38.200,51.800 Z " />
  <path stroke="none" fill="#ffffffff" d="M 69.000,47.200 C 72.667,47.200 76.333,47.200 80.000,47.200 79.000,31.100 66.100,18.300 50.100,17.300 50.100,20.967 50.100,24.633 50.100,28.300 60.000,29.200 68.000,37.100 69.000,47.200 69.000,47.200 69.000,47.200 69.000,47.200 Z " />
  <path stroke="none" fill="#ffffffff" d="M 46.000,28.200 C 46.000,24.533 46.000,20.867 46.000,17.200 29.900,18.200 17.100,31.100 16.100,47.100 19.767,47.100 23.433,47.100 27.100,47.100 28.000,37.100 36.000,29.200 46.000,28.200 46.000,28.200 46.000,28.200 46.000,28.200 Z " />
  <path stroke="none" fill="#ffffffff" d="M 55.900,68.700 C 53.267,66.067 50.633,63.433 48.000,60.800 45.367,63.433 42.733,66.067 40.100,68.700 33.000,65.800 27.800,59.100 27.000,51.200 23.333,51.200 19.667,51.200 16.000,51.200 16.700,62.200 22.900,71.700 31.900,76.900 33.000,77.500 34.100,78.100 35.300,78.600 38.200,75.700 41.100,72.800 44.000,69.900 45.333,68.567 46.667,67.233 48.000,65.900 49.333,67.233 50.667,68.567 52.000,69.900 54.900,72.800 57.800,75.700 60.700,78.600 61.900,78.100 63.000,77.500 64.100,76.900 73.100,71.700 79.300,62.200 80.000,51.200 76.333,51.200 72.667,51.200 69.000,51.200 68.200,59.100 63.000,65.800 55.900,68.700 55.900,68.700 55.900,68.700 55.900,68.700 Z " />
</svg>