<?xml version="1.0" encoding="UTF-8" standalone="no"?>
<!DOCTYPE svg PUBLIC "-//W3C//DTD SVG 20010904//EN" "http://www.w3.org/TR/2001/REC-SVG-20010904/DTD/svg10.dtd"[]>
<svg version="1.1" id="Frosty Editor v1.0.6.3" xmlns="http://www.w3.org/2000/svg" d1p1:xlink="http://www.w3.org/1999/xlink" viewBox="0 0 25 25" xmlns:d1p1="xmlns">
  <path stroke="none" fill="none" d="M -111.929,2.460 C -112.312,2.460 -112.315,2.460 -112.421,2.641 -112.480,2.741 -112.568,2.835 -112.616,2.851 -112.665,2.867 -112.793,2.964 -112.902,3.067 -113.099,3.254 -113.099,3.254 -113.099,3.254 -113.099,5.955 -113.099,5.955 -113.099,5.955 -113.099,8.657 -113.099,8.657 -113.099,8.657 -112.967,8.690 -112.967,8.690 -112.967,8.690 -112.846,8.720 -112.836,8.746 -112.836,9.026 -112.836,9.285 -112.851,9.334 -112.941,9.357 -113.045,9.384 -113.046,9.428 -113.046,13.328 -113.046,17.272 -113.046,17.272 -113.046,17.272 -112.917,17.357 -112.917,17.357 -112.917,17.357 -112.800,17.433 -112.788,17.476 -112.793,17.777 -112.794,17.803 -112.792,17.827 -112.792,17.851 -112.959,17.851 -112.959,17.851 -112.959,17.851 -112.973,17.872 -112.973,17.872 -112.973,17.872 -113.055,17.943 -113.099,18.237 -113.099,18.746 -113.099,19.372 -113.099,19.372 -113.099,19.372 -112.933,19.561 -112.933,19.561 -112.933,19.561 -112.653,19.880 -112.286,20.022 -111.444,20.140 -110.735,20.238 -108.674,20.234 -107.891,20.133 -107.111,20.031 -106.746,19.903 -106.444,19.625 -106.217,19.416 -106.217,19.416 -106.217,19.416 -106.204,15.758 -106.204,15.758 -106.204,15.758 -106.190,12.100 -106.190,12.100 -106.190,12.100 -105.875,12.073 -105.875,12.073 -105.875,12.073 -105.560,12.047 -105.560,12.047 -105.560,12.047 -105.564,11.698 -105.564,11.698 -105.564,11.698 -105.566,11.494 -105.608,11.243 -105.665,11.094 -105.797,10.748 -105.792,10.437 -105.648,9.995 -105.570,9.755 -105.533,9.533 -105.543,9.365 -105.560,9.105 -105.560,9.105 -105.560,9.105 -105.769,9.079 -105.769,9.079 -105.769,9.079 -105.979,9.053 -105.979,9.053 -105.979,9.053 -105.691,8.871 -105.691,8.871 -105.691,8.871 -105.532,8.770 -104.927,8.377 -104.345,7.996 -103.764,7.616 -103.238,7.277 -103.176,7.244 -103.115,7.211 -102.999,7.061 -102.920,6.910 -102.786,6.655 -102.775,6.592 -102.775,6.006 -102.775,5.375 -102.775,5.375 -102.775,5.375 -101.913,5.361 -101.913,5.361 -101.913,5.361 -101.373,5.352 -101.029,5.366 -100.996,5.400 -100.965,5.431 -100.682,5.454 -100.343,5.454 -99.822,5.454 -99.725,5.440 -99.592,5.346 -99.439,5.237 -99.439,5.237 -99.439,5.237 -99.439,4.642 -99.439,4.642 -99.439,4.642 -99.439,4.053 -99.440,4.047 -99.584,3.950 -99.701,3.870 -99.840,3.850 -100.318,3.842 -100.643,3.837 -100.922,3.855 -100.939,3.882 -100.956,3.909 -101.364,3.931 -101.853,3.931 -102.862,3.931 -102.802,3.961 -102.802,3.445 -102.802,3.184 -102.826,3.094 -102.936,2.950 -103.070,2.775 -103.070,2.775 -103.070,2.775 -104.710,2.775 -104.710,2.775 -104.710,2.775 -106.074,2.775 -106.474,2.757 -107.085,2.669 -108.278,2.498 -109.636,2.431 -110.606,2.496 -111.090,2.528 -111.465,2.533 -111.494,2.506 -111.521,2.480 -111.717,2.460 -111.929,2.460 Z " />
  <path stroke="none" fill="none" d="M -94.677,2.967 C -94.808,2.968 -94.936,2.994 -94.978,3.045 -94.994,3.064 -95.004,3.078 -95.007,3.088 -95.007,3.088 -95.007,3.088 -95.007,3.088 -95.125,3.303 -95.125,3.303 -95.125,3.303 -95.125,3.304 -95.125,3.304 -95.125,3.304 -95.248,3.380 -95.379,3.467 -95.481,3.546 -95.760,3.761 -95.760,3.761 -95.760,3.761 -95.760,4.327 -95.760,4.327 -95.760,4.327 -95.760,8.805 -95.760,8.805 -95.760,8.805 -95.760,8.844 -95.760,8.844 -95.760,8.844 -95.604,8.909 -95.604,8.909 -95.604,8.909 -95.455,8.971 -95.447,8.989 -95.440,9.307 -95.436,9.489 -95.429,9.669 -95.426,9.704 -95.424,9.740 -95.474,9.792 -95.539,9.820 -95.656,9.872 -95.656,9.872 -95.656,9.872 -95.656,13.664 -95.656,13.664 -95.656,13.664 -95.656,17.456 -95.656,17.456 -95.656,17.456 -95.526,17.541 -95.526,17.541 -95.526,17.541 -95.406,17.619 -95.395,17.658 -95.395,18.010 -95.395,18.376 -95.389,18.397 -95.252,18.467 -95.079,18.556 -94.692,18.636 -94.079,18.709 -93.202,18.814 -90.931,18.767 -90.157,18.627 -90.124,18.621 -90.099,18.617 -90.081,18.615 -89.926,18.581 -89.926,18.581 -89.926,18.581 -89.925,18.581 -89.924,18.580 -89.923,18.579 -89.908,18.570 -89.894,18.568 -89.885,18.573 -89.876,18.577 -89.870,18.587 -89.870,18.602 -89.870,18.632 -89.829,18.657 -89.779,18.658 -89.600,18.661 -89.832,18.747 -90.183,18.806 -91.637,19.052 -94.789,18.946 -95.633,18.622 -95.695,18.599 -95.708,18.675 -95.706,19.055 -95.704,19.481 -95.693,19.530 -95.563,19.679 -95.485,19.768 -95.360,19.880 -95.285,19.928 -94.692,20.308 -92.586,20.454 -90.786,20.240 -90.000,20.146 -89.614,20.018 -89.338,19.757 -89.139,19.569 -89.139,19.569 -89.139,19.569 -89.138,15.983 -89.138,15.983 -89.138,15.983 -89.138,14.997 -89.143,14.093 -89.150,13.432 -89.150,9.363 -89.150,9.363 -89.150,9.363 -89.150,9.363 -89.149,9.363 -89.149,9.363 -89.149,9.286 -89.149,9.286 -89.149,9.286 -89.104,9.256 -89.104,9.256 -89.104,9.256 -89.091,9.239 -88.982,9.171 -88.810,9.069 -87.657,8.330 -87.657,8.330 -87.657,8.330 -87.636,8.363 -87.636,8.363 -87.636,8.363 -87.526,8.300 -87.484,8.275 -87.316,8.178 -86.986,7.989 -86.558,7.734 -86.364,7.611 -86.013,7.388 -86.013,7.388 -86.013,7.388 -86.013,5.360 -86.013,5.360 -86.013,5.360 -86.013,3.331 -86.013,3.331 -86.013,3.331 -87.654,3.331 -87.654,3.331 -87.654,3.331 -89.296,3.331 -89.296,3.331 -89.296,3.331 -89.309,6.105 -89.309,6.105 -89.309,6.105 -89.323,8.879 -89.323,8.879 -89.323,8.879 -89.453,8.909 -89.453,8.909 -89.453,8.909 -89.583,8.940 -89.583,8.940 -89.583,8.940 -89.597,13.655 -89.597,13.655 -89.597,13.655 -89.604,16.248 -89.599,18.400 -89.585,18.436 -89.572,18.471 -89.524,18.500 -89.481,18.500 -89.409,18.500 -89.401,18.001 -89.400,13.952 -89.400,11.106 -89.380,9.375 -89.348,9.326 -89.337,9.308 -89.330,9.304 -89.323,9.297 -89.323,18.652 -89.323,18.652 -89.323,18.652 -89.466,18.634 -89.466,18.634 -89.466,18.634 -89.559,18.622 -89.682,18.610 -89.739,18.608 -89.811,18.605 -89.824,18.590 -89.779,18.562 -89.728,18.530 -89.711,17.472 -89.701,13.676 -89.687,8.831 -89.687,8.831 -89.687,8.831 -89.545,8.814 -89.545,8.814 -89.545,8.814 -89.403,8.798 -89.403,8.798 -89.403,8.798 -89.388,6.039 -89.388,6.039 -89.388,6.039 -89.379,4.226 -89.393,3.278 -89.427,3.276 -89.552,3.267 -89.864,3.223 -90.106,3.179 -90.718,3.067 -92.639,3.000 -93.464,3.060 -94.157,3.112 -94.282,3.109 -94.354,3.043 -94.411,2.992 -94.545,2.967 -94.677,2.967 Z M -85.782,3.547 C -85.841,3.550 -85.855,4.026 -85.853,5.351 -85.851,6.554 -85.833,7.122 -85.800,7.039 -85.773,6.971 -85.739,6.759 -85.727,6.570 -85.688,6.008 -85.689,3.730 -85.728,3.631 -85.749,3.577 -85.767,3.547 -85.782,3.547 Z M -93.296,4.267 C -91.968,4.267 -91.968,4.267 -91.968,4.267 -91.968,6.838 -91.968,6.838 -91.968,6.838 -91.398,6.268 -91.398,6.268 -91.398,6.268 -91.398,5.830 -91.398,5.830 -91.398,5.830 -90.785,5.830 -90.785,5.830 -90.785,5.830 -90.785,6.444 -90.785,6.444 -90.785,6.444 -91.244,6.444 -91.244,6.444 -91.244,6.444 -91.395,6.595 -91.546,6.745 -91.697,6.896 -89.945,6.896 -89.945,6.896 -89.945,6.896 -89.945,7.590 -89.945,7.590 -89.945,7.590 -91.106,7.590 -91.106,7.590 -91.106,7.590 -91.106,9.488 -91.106,9.488 -91.106,9.488 -91.339,9.591 -91.573,9.693 -91.807,9.795 -91.807,7.590 -91.807,7.590 -91.807,7.590 -92.369,7.590 -92.369,7.590 -92.369,7.590 -92.982,8.203 -92.982,8.203 -92.982,8.203 -92.982,8.645 -92.982,8.645 -92.982,8.645 -93.604,8.645 -93.604,8.645 -93.604,8.645 -93.604,8.050 -93.604,8.050 -93.604,8.050 -93.173,8.050 -93.173,8.050 -93.173,8.050 -93.013,7.896 -92.854,7.742 -92.694,7.589 -95.224,7.589 -95.224,7.589 -95.224,7.589 -95.224,6.261 -95.224,6.261 -95.224,6.261 -93.307,6.261 -93.307,6.261 -93.307,6.261 -93.303,5.596 -93.299,4.932 -93.296,4.267 Z M -83.563,4.374 C -83.556,4.726 -83.556,4.726 -83.556,4.726 -83.552,4.920 -83.566,5.213 -83.588,5.378 -83.627,5.677 -83.627,5.677 -83.627,5.677 -83.158,5.677 -83.158,5.677 -83.158,5.677 -82.794,5.677 -82.674,5.659 -82.621,5.594 -82.528,5.483 -82.488,4.635 -82.568,4.486 -82.622,4.384 -82.671,4.374 -83.096,4.374 Z M -83.981,4.461 C -84.159,4.461 -84.399,4.464 -84.657,4.468 -85.595,4.483 -85.595,4.483 -85.595,4.483 -85.595,5.023 -85.595,5.023 -85.595,5.023 -85.595,5.562 -85.595,5.562 -85.595,5.562 -84.700,5.568 -84.700,5.568 -84.700,5.568 -84.208,5.572 -83.793,5.586 -83.778,5.600 -83.706,5.673 -83.667,5.494 -83.651,5.012 -83.641,4.720 -83.652,4.475 -83.676,4.467 -83.687,4.463 -83.803,4.461 -83.981,4.461 Z M -89.025,9.552 C -89.081,9.561 -89.088,9.777 -89.088,10.885 -89.088,12.245 -89.088,12.245 -89.088,12.245 -88.794,12.245 -88.794,12.245 -88.794,12.245 -88.501,12.245 -88.501,12.245 -88.501,12.245 -88.534,11.959 -88.534,11.959 -88.534,11.959 -88.553,11.801 -88.608,11.572 -88.658,11.450 -88.782,11.144 -88.770,10.675 -88.630,10.277 -88.566,10.098 -88.515,9.869 -88.515,9.769 -88.515,9.592 -88.520,9.586 -88.719,9.586 -88.831,9.586 -88.960,9.573 -89.006,9.555 -89.010,9.553 -89.015,9.553 -89.019,9.552 -89.021,9.552 -89.023,9.552 -89.025,9.552 Z " />
  <path stroke="none" fill="#ffffffff" d="M 14.695,3.171 C 14.690,3.991 14.686,4.810 14.681,5.630 12.317,5.630 12.317,5.630 12.317,5.630 12.317,7.267 12.317,7.267 12.317,7.267 15.437,7.267 15.437,7.267 15.437,7.267 15.240,7.457 15.044,7.647 14.847,7.836 14.316,7.836 14.316,7.836 14.316,7.836 14.316,8.570 14.316,8.570 14.316,8.570 15.082,8.570 15.082,8.570 15.082,8.570 15.082,8.024 15.082,8.024 15.082,8.024 15.838,7.268 15.838,7.268 15.838,7.268 16.532,7.268 16.532,7.268 16.532,7.268 16.532,9.987 16.532,9.987 16.532,9.987 16.820,9.861 17.107,9.736 17.395,9.610 17.395,7.268 17.395,7.268 17.395,7.268 18.827,7.268 18.827,7.268 18.827,7.268 18.827,6.412 18.827,6.412 18.827,6.412 16.666,6.412 16.666,6.412 16.666,6.412 16.852,6.227 17.039,6.041 17.225,5.855 17.792,5.855 17.792,5.855 17.792,5.855 17.792,5.099 17.792,5.099 17.792,5.099 17.036,5.099 17.036,5.099 17.036,5.099 17.036,5.638 17.036,5.638 17.036,5.638 16.801,5.873 16.567,6.107 16.333,6.341 16.333,3.171 16.333,3.171 16.333,3.171 Z M 13.332,8.736 C 13.279,8.734 13.196,8.764 13.012,8.836 12.688,8.964 12.688,8.964 12.688,8.964 12.790,9.206 12.790,9.206 12.790,9.206 12.846,9.339 12.916,9.546 12.946,9.666 13.001,9.884 13.001,9.884 13.001,9.884 13.326,9.756 13.326,9.756 13.326,9.756 13.578,9.656 13.656,9.611 13.676,9.551 13.709,9.449 13.505,8.851 13.408,8.770 13.384,8.749 13.363,8.737 13.332,8.736 Z M 10.708,8.914 C 9.570,9.363 9.570,9.363 9.570,9.363 8.434,9.813 8.434,9.813 8.434,9.813 9.185,11.736 9.185,11.736 9.185,11.736 9.934,13.661 9.934,13.661 9.934,13.661 9.852,13.717 9.852,13.717 9.852,13.717 9.771,13.774 9.771,13.774 9.771,13.774 11.053,17.042 11.053,17.042 11.053,17.042 11.757,18.840 12.350,20.328 12.370,20.349 12.389,20.370 12.429,20.378 12.460,20.366 12.509,20.346 12.378,19.998 11.270,17.194 10.491,15.224 10.031,14.020 10.039,13.978 10.042,13.962 10.046,13.957 10.049,13.951 12.611,20.427 12.611,20.427 12.611,20.427 12.506,20.454 12.506,20.454 12.506,20.454 12.438,20.471 12.350,20.496 12.310,20.510 12.259,20.528 12.247,20.521 12.270,20.489 12.296,20.453 12.019,19.717 10.986,17.085 9.669,13.727 9.669,13.727 9.669,13.727 9.763,13.677 9.763,13.677 9.763,13.677 9.857,13.627 9.857,13.627 9.857,13.627 9.111,11.712 9.111,11.712 9.111,11.712 8.621,10.455 8.352,9.802 8.328,9.810 8.239,9.839 8.011,9.893 7.831,9.929 7.377,10.019 6.028,10.498 5.474,10.766 5.008,10.992 4.921,11.024 4.853,10.998 4.800,10.978 4.700,10.998 4.609,11.034 4.518,11.070 4.437,11.123 4.421,11.170 4.415,11.188 4.413,11.200 4.413,11.208 4.391,11.389 4.391,11.389 4.391,11.389 4.391,11.390 4.391,11.390 4.391,11.390 4.326,11.476 4.259,11.572 4.211,11.654 4.076,11.880 4.076,11.880 4.076,11.880 4.231,12.272 4.231,12.272 4.231,12.272 5.457,15.372 5.457,15.372 5.457,15.372 5.468,15.399 5.468,15.399 5.468,15.399 5.594,15.402 5.594,15.402 5.594,15.402 5.714,15.404 5.725,15.414 5.817,15.632 5.870,15.757 5.923,15.879 5.935,15.903 5.946,15.927 5.925,15.978 5.889,16.015 5.821,16.083 5.821,16.083 5.821,16.083 6.860,18.708 6.860,18.708 6.860,18.708 7.898,21.333 7.898,21.333 7.898,21.333 8.012,21.356 8.012,21.356 8.012,21.356 8.116,21.378 8.134,21.402 8.231,21.645 8.331,21.898 8.341,21.912 8.455,21.923 8.599,21.937 8.889,21.886 9.333,21.769 9.969,21.602 11.529,20.947 12.026,20.638 12.047,20.625 12.063,20.615 12.075,20.609 12.174,20.543 12.174,20.543 12.174,20.543 12.174,20.543 12.174,20.542 12.175,20.541 12.183,20.531 12.192,20.525 12.200,20.526 12.207,20.526 12.214,20.532 12.218,20.542 12.226,20.563 12.262,20.570 12.297,20.557 12.422,20.510 12.284,20.632 12.057,20.769 11.118,21.338 8.906,22.128 8.233,22.134 8.184,22.135 8.196,22.191 8.301,22.454 8.419,22.748 8.440,22.779 8.571,22.847 8.649,22.887 8.767,22.930 8.832,22.943 9.347,23.044 10.845,22.568 12.033,21.927 12.551,21.647 12.783,21.453 12.902,21.196 12.989,21.012 12.989,21.012 12.989,21.012 12.007,18.528 12.007,18.528 12.007,18.528 11.737,17.845 11.487,17.221 11.301,16.765 10.187,13.949 10.187,13.949 10.187,13.949 10.187,13.949 10.187,13.949 10.187,13.949 10.166,13.895 10.166,13.895 10.166,13.895 10.189,13.862 10.189,13.862 10.189,13.862 10.194,13.847 10.250,13.770 10.342,13.652 10.937,12.824 10.937,12.824 10.937,12.824 10.962,12.842 10.962,12.842 10.962,12.842 11.020,12.768 11.042,12.739 11.132,12.626 11.308,12.405 11.535,12.111 11.636,11.973 11.818,11.722 11.818,11.722 11.818,11.722 11.263,10.318 11.263,10.318 11.263,10.318 Z M 10.926,9.000 C 10.886,9.018 11.007,9.352 11.371,10.268 11.702,11.101 11.869,11.488 11.870,11.422 11.870,11.368 11.835,11.212 11.792,11.077 11.664,10.678 11.041,9.101 10.987,9.043 10.957,9.011 10.936,8.995 10.926,9.000 Z M 12.636,9.060 C 12.627,9.060 12.546,9.091 12.423,9.140 12.300,9.188 12.134,9.255 11.957,9.329 11.311,9.596 11.311,9.596 11.311,9.596 11.459,9.970 11.459,9.970 11.459,9.970 11.607,10.343 11.607,10.343 11.607,10.343 12.228,10.103 12.228,10.103 12.228,10.103 12.570,9.970 12.861,9.866 12.875,9.873 12.945,9.903 12.923,9.769 12.803,9.431 12.730,9.226 12.655,9.059 12.636,9.060 Z M 19.006,10.603 C 19.004,11.063 19.001,11.523 18.999,11.983 17.671,11.983 17.671,11.983 17.671,11.983 17.671,12.902 17.671,12.902 17.671,12.902 19.423,12.902 19.423,12.902 19.423,12.902 19.312,13.009 19.202,13.115 19.092,13.222 18.793,13.222 18.793,13.222 18.793,13.222 18.793,13.634 18.793,13.634 18.793,13.634 19.224,13.634 19.224,13.634 19.224,13.634 19.224,13.328 19.224,13.328 19.224,13.328 19.648,12.903 19.648,12.903 19.648,12.903 20.037,12.903 20.037,12.903 20.037,12.903 20.037,14.430 20.037,14.430 20.037,14.430 20.199,14.359 20.361,14.289 20.522,14.218 20.522,12.903 20.522,12.903 20.522,12.903 21.326,12.903 21.326,12.903 21.326,12.903 21.326,12.422 21.326,12.422 21.326,12.422 20.113,12.422 20.113,12.422 20.113,12.422 20.218,12.318 20.322,12.214 20.426,12.110 20.745,12.110 20.745,12.110 20.745,12.110 20.745,11.685 20.745,11.685 20.745,11.685 20.320,11.685 20.320,11.685 20.320,11.685 20.320,11.988 20.320,11.988 20.320,11.988 19.926,12.383 19.926,12.383 19.926,12.383 19.926,10.603 19.926,10.603 19.926,10.603 Z M 13.951,11.491 C 13.948,12.106 13.945,12.721 13.942,13.336 12.167,13.336 12.167,13.336 12.167,13.336 12.167,14.563 12.167,14.563 12.167,14.563 14.508,14.563 14.508,14.563 14.508,14.563 14.361,14.706 14.213,14.849 14.066,14.991 13.667,14.991 13.667,14.991 13.667,14.991 13.667,15.541 13.667,15.541 13.667,15.541 14.242,15.541 14.242,15.541 14.242,15.541 14.242,15.132 14.242,15.132 14.242,15.132 14.431,14.943 14.620,14.754 14.809,14.564 15.330,14.564 15.330,14.564 15.330,14.564 15.330,16.605 15.330,16.605 15.330,16.605 15.546,16.510 15.761,16.416 15.977,16.322 15.977,14.564 15.977,14.564 15.977,14.564 17.052,14.564 17.052,14.564 17.052,14.564 17.052,13.923 17.052,13.923 17.052,13.923 15.431,13.923 15.431,13.923 15.431,13.923 15.570,13.783 15.710,13.644 15.850,13.505 16.275,13.505 16.275,13.505 16.275,13.505 16.275,12.937 16.275,12.937 16.275,12.937 15.707,12.937 15.707,12.937 15.707,12.937 15.707,13.342 15.707,13.342 15.707,13.342 15.532,13.517 15.356,13.693 15.180,13.869 15.180,11.491 15.180,11.491 15.180,11.491 Z M 10.655,13.951 C 10.631,13.952 10.598,13.965 10.547,13.986 10.469,14.016 10.375,14.041 10.339,14.042 10.336,14.042 10.332,14.043 10.329,14.044 10.285,14.058 10.333,14.194 10.646,14.985 11.019,15.927 11.019,15.927 11.019,15.927 11.222,15.847 11.222,15.847 11.222,15.847 11.426,15.766 11.426,15.766 11.426,15.766 11.324,15.577 11.324,15.577 11.324,15.577 11.268,15.473 11.167,15.330 11.099,15.259 10.929,15.081 10.809,14.753 10.797,14.439 10.792,14.298 10.765,14.125 10.738,14.055 10.707,13.979 10.694,13.949 10.655,13.951 Z " />
  <path stroke="none" fill="#ffffffff" d="M -68.094,4.485 C -67.913,4.303 -67.731,4.122 -67.549,3.940 -67.364,3.940 -67.180,3.940 -66.995,3.940 -66.995,3.694 -66.995,3.448 -66.995,3.201 -67.241,3.201 -67.487,3.201 -67.734,3.201 -67.734,3.377 -67.734,3.553 -67.734,3.728 -67.963,3.957 -68.191,4.186 -68.420,4.415 -68.420,3.383 -68.420,2.351 -68.420,1.319 -68.953,1.319 -69.487,1.319 -70.020,1.319 -70.024,2.120 -70.028,2.920 -70.033,3.720 -70.802,3.720 -71.572,3.720 -72.342,3.720 -72.342,4.253 -72.342,4.786 -72.342,5.319 -71.326,5.319 -70.311,5.319 -69.295,5.319 -69.487,5.504 -69.679,5.690 -69.871,5.875 -70.044,5.875 -70.217,5.875 -70.390,5.875 -70.390,6.114 -70.390,6.353 -70.390,6.592 -70.140,6.592 -69.891,6.592 -69.642,6.592 -69.642,6.414 -69.642,6.236 -69.642,6.059 -69.395,5.812 -69.149,5.566 -68.903,5.320 -68.677,5.320 -68.452,5.320 -68.226,5.320 -68.226,6.205 -68.226,7.091 -68.226,7.976 -67.945,7.853 -67.664,7.730 -67.382,7.607 -67.382,6.845 -67.382,6.082 -67.382,5.320 -66.916,5.320 -66.450,5.320 -65.984,5.320 -65.984,5.042 -65.984,4.763 -65.984,4.485 -66.687,4.485 -67.391,4.485 -68.094,4.485 -68.094,4.485 -68.094,4.485 -68.094,4.485 Z " />
  <path stroke="none" fill="#ffffffff" d="M -69.301,11.819 C -69.165,11.683 -69.028,11.547 -68.892,11.411 -68.753,11.411 -68.615,11.411 -68.476,11.411 -68.476,11.226 -68.476,11.041 -68.476,10.856 -68.661,10.856 -68.846,10.856 -69.030,10.856 -69.030,10.988 -69.030,11.120 -69.030,11.252 -69.202,11.423 -69.374,11.595 -69.545,11.767 -69.545,10.992 -69.545,10.218 -69.545,9.444 -69.945,9.444 -70.346,9.444 -70.746,9.444 -70.749,10.045 -70.752,10.645 -70.755,11.246 -71.333,11.246 -71.910,11.246 -72.488,11.246 -72.488,11.645 -72.488,12.045 -72.488,12.445 -71.726,12.445 -70.964,12.445 -70.202,12.445 -70.346,12.584 -70.490,12.723 -70.634,12.862 -70.764,12.862 -70.893,12.862 -71.023,12.862 -71.023,13.041 -71.023,13.221 -71.023,13.400 -70.836,13.400 -70.649,13.400 -70.462,13.400 -70.462,13.266 -70.462,13.133 -70.462,13.000 -70.277,12.815 -70.092,12.631 -69.908,12.446 -69.738,12.446 -69.569,12.446 -69.400,12.446 -69.400,13.110 -69.400,13.774 -69.400,14.438 -69.189,14.346 -68.978,14.254 -68.767,14.162 -68.767,13.590 -68.767,13.018 -68.767,12.446 -68.417,12.446 -68.067,12.446 -67.718,12.446 -67.718,12.237 -67.718,12.028 -67.718,11.819 -68.246,11.819 -68.773,11.819 -69.301,11.819 -69.301,11.819 -69.301,11.819 -69.301,11.819 Z " />
  <path stroke="none" fill="#ffffffff" d="M -64.728,10.354 C -64.626,10.252 -64.524,10.150 -64.422,10.048 -64.318,10.048 -64.215,10.048 -64.111,10.048 -64.111,9.910 -64.111,9.772 -64.111,9.634 -64.249,9.634 -64.388,9.634 -64.526,9.634 -64.526,9.732 -64.526,9.831 -64.526,9.930 -64.654,10.058 -64.783,10.186 -64.911,10.315 -64.911,9.736 -64.911,9.156 -64.911,8.577 -65.211,8.577 -65.510,8.577 -65.809,8.577 -65.812,9.026 -65.814,9.476 -65.816,9.925 -66.249,9.925 -66.681,9.925 -67.113,9.925 -67.113,10.224 -67.113,10.523 -67.113,10.822 -66.543,10.822 -65.973,10.822 -65.402,10.822 -65.510,10.926 -65.618,11.031 -65.726,11.135 -65.823,11.135 -65.920,11.135 -66.017,11.135 -66.017,11.269 -66.017,11.403 -66.017,11.537 -65.877,11.537 -65.737,11.537 -65.597,11.537 -65.597,11.437 -65.597,11.338 -65.597,11.238 -65.459,11.100 -65.321,10.961 -65.182,10.823 -65.056,10.823 -64.929,10.823 -64.802,10.823 -64.802,11.320 -64.802,11.817 -64.802,12.314 -64.644,12.245 -64.486,12.176 -64.329,12.107 -64.329,11.679 -64.329,11.251 -64.329,10.823 -64.067,10.823 -63.805,10.823 -63.544,10.823 -63.544,10.667 -63.544,10.510 -63.544,10.354 -63.938,10.354 -64.333,10.354 -64.728,10.354 -64.728,10.354 -64.728,10.354 -64.728,10.354 Z " />
  <path stroke="none" fill="none" d="M -81.419,8.319 C -81.671,8.431 -81.673,8.432 -81.690,8.582 -81.700,8.665 -81.730,8.753 -81.757,8.777 -81.784,8.802 -81.841,8.903 -81.882,9.002 -81.957,9.183 -81.957,9.183 -81.957,9.183 -81.169,10.961 -81.169,10.961 -81.169,10.961 -80.382,12.740 -80.382,12.740 -80.382,12.740 -80.286,12.723 -80.286,12.723 -80.286,12.723 -80.197,12.708 -80.183,12.722 -80.101,12.906 -80.026,13.077 -80.022,13.113 -80.074,13.155 -80.134,13.203 -80.122,13.232 -78.985,15.799 -77.835,18.396 -77.835,18.396 -77.835,18.396 -77.725,18.414 -77.725,18.414 -77.725,18.414 -77.626,18.430 -77.606,18.454 -77.521,18.654 -77.514,18.672 -77.506,18.687 -77.499,18.703 -77.609,18.751 -77.609,18.751 -77.609,18.751 -77.612,18.769 -77.612,18.769 -77.612,18.769 -77.645,18.840 -77.588,19.046 -77.440,19.381 -77.257,19.793 -77.257,19.793 -77.257,19.793 -77.093,19.869 -77.093,19.869 -77.093,19.869 -76.816,19.998 -76.532,19.984 -75.944,19.816 -75.448,19.674 -74.093,19.071 -73.607,18.775 -73.123,18.481 -72.921,18.291 -72.803,18.020 -72.715,17.816 -72.715,17.816 -72.715,17.816 -73.772,15.404 -73.772,15.404 -73.772,15.404 -74.830,12.992 -74.830,12.992 -74.830,12.992 -74.630,12.882 -74.630,12.882 -74.630,12.882 -74.430,12.773 -74.430,12.773 -74.430,12.773 -74.535,12.545 -74.535,12.545 -74.535,12.545 -74.596,12.411 -74.696,12.258 -74.778,12.176 -74.965,11.987 -75.053,11.781 -75.087,11.448 -75.105,11.267 -75.146,11.110 -75.202,11.003 -75.288,10.837 -75.288,10.837 -75.288,10.837 -75.434,10.880 -75.434,10.880 -75.434,10.880 -75.580,10.924 -75.580,10.924 -75.580,10.924 -75.443,10.720 -75.443,10.720 -75.443,10.720 -75.368,10.608 -75.084,10.172 -74.812,9.752 -74.541,9.332 -74.293,8.956 -74.262,8.916 -74.231,8.877 -74.199,8.744 -74.191,8.622 -74.176,8.415 -74.188,8.370 -74.359,7.984 -74.543,7.569 -74.543,7.569 -74.543,7.569 -73.979,7.308 -73.979,7.308 -73.979,7.308 -73.627,7.145 -73.396,7.054 -73.364,7.066 -73.335,7.078 -73.142,7.011 -72.919,6.912 -72.576,6.760 -72.516,6.722 -72.456,6.621 -72.387,6.505 -72.387,6.505 -72.387,6.505 -72.561,6.114 -72.561,6.114 -72.561,6.114 -72.733,5.726 -72.735,5.722 -72.858,5.700 -72.958,5.682 -73.055,5.709 -73.373,5.843 -73.588,5.935 -73.767,6.028 -73.770,6.050 -73.773,6.073 -74.035,6.207 -74.357,6.349 -75.021,6.643 -74.973,6.646 -75.123,6.306 -75.199,6.134 -75.242,6.082 -75.356,6.020 -75.495,5.943 -75.495,5.943 -75.495,5.943 -76.575,6.421 -76.575,6.421 -76.575,6.421 -77.473,6.819 -77.741,6.924 -78.169,7.044 -79.004,7.279 -79.918,7.631 -80.537,7.957 -80.847,8.120 -81.092,8.232 -81.119,8.222 -81.144,8.214 -81.279,8.257 -81.419,8.319 Z " />
</svg>