<?xml version="1.0" encoding="UTF-8" standalone="no"?>
<!DOCTYPE svg PUBLIC "-//W3C//DTD SVG 20010904//EN" "http://www.w3.org/TR/2001/REC-SVG-20010904/DTD/svg10.dtd"[]>
<svg version="1.1" id="Frosty Editor v1.0.6.3" xmlns="http://www.w3.org/2000/svg" d1p1:xlink="http://www.w3.org/1999/xlink" viewBox="0 0 25 25" xmlns:d1p1="xmlns">
  <path stroke="none" fill="#ffffffff" d="M 6.446,7.748 C 6.388,7.748 6.375,7.763 6.375,7.821 6.378,8.056 6.378,8.289 6.375,8.524 6.375,8.582 6.386,8.597 6.446,8.597 8.428,8.595 10.413,8.595 12.399,8.595 12.469,8.595 12.469,8.595 12.469,8.595 12.471,8.600 12.474,8.604 12.477,8.609 12.467,8.617 12.451,8.627 12.441,8.637 11.918,9.158 11.395,9.681 10.874,10.204 10.847,10.232 10.819,10.239 10.784,10.239 8.458,10.239 8.458,10.239 8.458,10.239 7.047,10.239 5.632,10.239 4.217,10.237 4.160,10.237 4.148,10.252 4.148,10.310 4.150,10.545 4.153,10.777 4.148,11.012 4.148,11.073 4.162,11.083 4.220,11.083 6.123,11.080 8.023,11.081 9.923,11.081 9.993,11.081 9.993,11.081 9.993,11.081 9.998,11.086 10.000,11.090 9.988,11.100 9.972,11.113 9.955,11.123 9.943,11.135 9.430,11.649 8.917,12.162 8.406,12.675 8.368,12.712 8.331,12.730 8.276,12.730 6.288,12.728 4.298,12.730 2.310,12.728 2.260,12.728 2.245,12.735 2.245,12.790 2.247,13.026 2.250,13.264 2.245,13.499 2.245,13.559 2.260,13.573 2.320,13.573 4.316,13.571 6.311,13.574 8.306,13.571 8.356,13.571 8.388,13.586 8.420,13.619 8.931,14.132 9.445,14.642 9.958,15.156 9.973,15.171 9.993,15.181 10.011,15.194 10.006,15.199 10.003,15.206 9.998,15.211 9.928,15.211 9.928,15.211 9.928,15.211 8.021,15.211 6.115,15.214 4.208,15.211 4.152,15.211 4.137,15.226 4.137,15.281 4.142,15.511 4.140,15.742 4.140,15.972 4.140,16.057 4.140,16.057 4.225,16.057 10.791,16.057 10.791,16.057 10.791,16.057 10.829,16.057 10.859,16.060 10.889,16.090 11.410,16.613 11.936,17.139 12.459,17.662 12.469,17.672 12.486,17.677 12.481,17.702 12.412,17.702 12.412,17.702 12.412,17.702 7.570,17.702 7.570,17.702 7.570,17.702 7.149,17.702 6.726,17.704 6.303,17.702 6.253,17.702 6.241,17.714 6.241,17.764 6.243,17.995 6.246,18.227 6.241,18.460 6.241,18.523 6.256,18.538 6.318,18.538 8.716,18.536 11.112,18.536 13.510,18.538 13.705,18.538 13.863,18.473 14.001,18.335 14.442,17.889 14.888,17.449 15.331,17.006 16.004,16.335 16.677,15.661 17.350,14.991 17.833,14.510 18.314,14.029 18.797,13.548 18.953,13.393 18.997,13.208 18.957,12.998 18.935,12.873 18.860,12.780 18.772,12.693 14.707,8.627 14.707,8.627 14.707,8.627 13.988,7.909 13.988,7.909 13.988,7.909 13.886,7.806 13.768,7.741 13.618,7.748 13.548,7.751 13.475,7.751 13.402,7.751 11.084,7.751 8.764,7.751 6.446,7.748 Z M 18.983,7.901 C 18.123,8.537 17.262,9.174 16.402,9.811 16.430,9.849 16.457,9.889 16.484,9.929 17.487,9.414 18.489,8.899 19.492,8.384 Z M 12.600,9.322 C 14.309,9.322 14.309,9.322 14.309,9.322 14.309,12.627 14.309,12.627 14.309,12.627 14.553,12.383 14.797,12.138 15.042,11.894 15.042,11.331 15.042,11.331 15.042,11.331 15.830,11.331 15.830,11.331 15.830,11.331 15.830,12.120 15.830,12.120 15.830,12.120 15.239,12.120 15.239,12.120 15.239,12.120 15.045,12.314 14.850,12.508 14.656,12.702 16.910,12.702 16.910,12.702 16.910,12.702 16.910,13.594 16.910,13.594 16.910,13.594 15.417,13.594 15.417,13.594 15.417,13.594 15.417,16.036 15.417,16.036 15.417,16.036 15.116,16.167 14.816,16.299 14.516,16.430 14.516,13.594 14.516,13.594 14.516,13.594 13.793,13.594 13.793,13.594 13.793,13.594 13.530,13.857 13.267,14.120 13.004,14.383 13.004,14.952 13.004,14.952 13.004,14.952 12.205,14.952 12.205,14.952 12.205,14.952 12.205,14.186 12.205,14.186 12.205,14.186 12.759,14.186 12.759,14.186 12.759,14.186 12.964,13.988 13.169,13.791 13.374,13.593 10.121,13.593 10.121,13.593 10.121,13.593 10.121,11.886 10.121,11.886 10.121,11.886 12.586,11.886 12.586,11.886 12.586,11.886 12.591,11.031 12.595,10.177 12.600,9.322 Z M 21.157,9.821 C 20.031,10.266 18.904,10.712 17.778,11.157 17.791,11.197 17.804,11.236 17.816,11.276 19.027,11.033 20.238,10.790 21.449,10.547 Z M 23.079,12.584 C 21.826,12.730 20.573,12.875 19.321,13.021 19.322,13.070 19.322,13.119 19.322,13.169 20.579,13.271 21.836,13.374 23.093,13.476 23.088,13.179 23.084,12.882 23.079,12.584 Z M 17.892,14.820 C 17.880,14.866 17.869,14.911 17.856,14.956 18.979,15.363 20.102,15.771 21.225,16.179 21.310,15.943 21.395,15.707 21.480,15.472 20.284,15.255 19.088,15.037 17.892,14.820 Z M 16.569,16.334 C 16.542,16.378 16.514,16.422 16.485,16.465 17.357,17.087 18.228,17.709 19.099,18.331 19.267,18.164 19.435,17.996 19.602,17.828 18.591,17.330 17.580,16.832 16.569,16.334 Z " />
</svg>