<?xml version="1.0" encoding="UTF-8" standalone="no"?>
<!DOCTYPE svg PUBLIC "-//W3C//DTD SVG 20010904//EN" "http://www.w3.org/TR/2001/REC-SVG-20010904/DTD/svg10.dtd"[]>
<svg version="1.1" id="Frosty Editor v1.0.6.3" xmlns="http://www.w3.org/2000/svg" d1p1:xlink="http://www.w3.org/1999/xlink" viewBox="0 0 96 96" xmlns:d1p1="xmlns">
  <path stroke="none" fill="#ffffffff" d="M 58.400,78.000 C 57.267,78.000 56.133,78.000 55.000,78.000 55.000,78.333 55.000,78.667 55.000,79.000 50.000,79.000 45.000,79.000 40.000,79.000 40.000,78.667 40.000,78.333 40.000,78.000 39.200,78.000 38.400,78.000 37.600,78.000 36.164,78.000 35.000,79.164 35.000,80.600 35.000,80.867 35.000,81.133 35.000,81.400 35.000,82.836 36.164,84.000 37.600,84.000 44.533,84.000 51.467,84.000 58.400,84.000 59.836,84.000 61.000,82.836 61.000,81.400 61.000,81.133 61.000,80.867 61.000,80.600 61.000,79.164 59.836,78.000 58.400,78.000 58.400,78.000 58.400,78.000 58.400,78.000 Z " />
  <path stroke="none" fill="#ffffffff" d="M 43.000,75.920 C 43.000,76.280 43.000,76.640 43.000,77.000 45.667,77.000 48.333,77.000 51.000,77.000 51.000,76.640 51.000,76.280 51.000,75.920 51.300,75.120 50.650,74.480 49.860,74.000 48.153,74.000 46.447,74.000 44.740,74.000 43.959,74.424 43.345,75.101 43.000,75.920 43.000,75.920 43.000,75.920 43.000,75.920 Z " />
  <path stroke="none" fill="#ffffffff" d="M 78.810,43.000 C 60.207,43.000 41.603,43.000 23.000,43.000 23.255,43.854 23.837,44.573 24.620,45.000 24.747,45.000 24.873,45.000 25.000,45.000 25.000,45.150 25.000,45.130 25.060,45.100 26.180,44.002 27.799,43.583 29.310,44.000 28.426,44.089 27.604,44.498 27.000,45.150 27.000,45.150 27.000,45.150 27.000,45.000 44.297,45.000 61.593,45.000 78.890,45.000 78.908,44.844 78.908,44.686 78.890,44.530 78.920,44.130 78.880,43.750 78.810,43.000 78.810,43.000 78.810,43.000 78.810,43.000 Z " />
  <path stroke="none" fill="#ffffffff" d="M 29.730,52.000 C 31.624,53.123 33.799,53.685 36.000,53.620 36.530,53.620 37.000,53.620 37.550,53.540 37.680,53.700 37.820,53.850 37.960,54.000 48.827,54.000 59.693,54.000 70.560,54.000 70.560,53.880 70.560,53.750 70.560,53.620 70.539,53.070 70.444,52.525 70.280,52.000 56.763,52.000 43.247,52.000 29.730,52.000 Z " />
  <path stroke="none" fill="#ffffffff" d="M 75.810,38.940 C 75.721,38.287 75.594,37.639 75.430,37.000 57.260,37.000 39.090,37.000 20.920,37.000 21.033,37.773 21.416,38.481 22.000,39.000 40.107,39.000 58.213,39.000 76.320,39.000 76.150,39.170 76.000,39.000 75.810,38.940 75.810,38.940 75.810,38.940 75.810,38.940 Z " />
  <path stroke="none" fill="#ffffffff" d="M 49.000,67.000 C 48.040,67.000 47.080,67.000 46.120,67.000 46.401,67.650 46.639,68.318 46.830,69.000 47.270,69.000 47.710,69.000 48.150,69.000 48.150,68.590 48.150,68.470 48.150,68.340 48.150,67.766 48.481,67.244 49.000,67.000 49.000,67.000 49.000,67.000 49.000,67.000 Z " />
  <path stroke="none" fill="#ffffffff" d="M 51.000,64.000 C 49.120,64.000 47.240,64.000 45.360,64.000 45.438,64.674 45.562,65.342 45.730,66.000 47.233,66.000 48.737,66.000 50.240,66.000 50.676,65.418 50.939,64.725 51.000,64.000 51.000,64.000 51.000,64.000 51.000,64.000 Z " />
  <path stroke="none" fill="#ffffffff" d="M 71.240,25.000 C 55.493,25.000 39.747,25.000 24.000,25.000 23.478,25.540 23.169,26.250 23.130,27.000 39.853,27.000 56.577,27.000 73.300,27.000 72.923,26.074 72.176,25.349 71.240,25.000 71.240,25.000 71.240,25.000 71.240,25.000 Z " />
  <path stroke="none" fill="#ffffffff" d="M 62.310,19.340 C 62.323,19.227 62.323,19.113 62.310,19.000 52.340,19.000 42.370,19.000 32.400,19.000 31.596,19.451 30.964,20.154 30.600,21.000 41.087,21.000 51.573,21.000 62.060,21.000 62.203,20.457 62.287,19.901 62.310,19.340 62.310,19.340 62.310,19.340 62.310,19.340 Z " />
  <path stroke="none" fill="#ffffffff" d="M 64.410,23.000 C 63.880,23.000 63.410,23.000 62.860,23.080 62.523,22.644 62.106,22.277 61.630,22.000 50.460,22.000 39.290,22.000 28.120,22.000 26.906,22.303 25.831,23.008 25.070,24.000 39.600,24.000 54.130,24.000 68.660,24.000 67.357,23.295 65.890,22.950 64.410,23.000 64.410,23.000 64.410,23.000 64.410,23.000 Z " />
  <path stroke="none" fill="#ffffffff" d="M 75.000,34.950 C 75.000,34.520 74.870,34.100 74.640,34.000 56.640,34.000 38.640,34.000 20.640,34.000 20.640,33.910 20.640,34.120 20.640,34.330 20.640,34.540 20.640,34.820 20.640,36.000 38.760,36.000 56.880,36.000 75.000,36.000 75.000,35.000 75.000,35.000 75.000,34.950 75.000,34.950 75.000,34.950 75.000,34.950 Z " />
  <path stroke="none" fill="#ffffffff" d="M 74.200,28.720 C 74.200,28.380 74.060,28.050 73.940,28.000 56.890,28.000 39.840,28.000 22.790,28.000 22.219,28.529 21.840,29.232 21.710,30.000 39.203,30.000 56.697,30.000 74.190,30.000 74.217,29.574 74.220,29.147 74.200,28.720 74.200,28.720 74.200,28.720 74.200,28.720 Z " />
  <path stroke="none" fill="#ffffffff" d="M 57.130,59.460 C 56.448,59.062 55.825,58.571 55.280,58.000 49.580,58.000 43.880,58.000 38.180,58.000 38.321,58.714 38.600,59.393 39.000,60.000 44.947,60.000 50.893,60.000 56.840,60.000 56.919,59.811 57.016,59.630 57.130,59.460 57.130,59.460 57.130,59.460 57.130,59.460 Z " />
  <path stroke="none" fill="#ffffffff" d="M 55.760,61.000 C 50.527,61.000 45.293,61.000 40.060,61.000 41.103,61.825 42.258,62.498 43.490,63.000 46.443,63.000 49.397,63.000 52.350,63.000 53.576,62.498 54.724,61.825 55.760,61.000 55.760,61.000 55.760,61.000 55.760,61.000 Z " />
  <path stroke="none" fill="#ffffffff" d="M 60.710,16.000 C 55.243,16.000 49.777,16.000 44.310,16.000 43.916,16.345 43.578,16.750 43.310,17.200 43.380,17.247 43.450,17.293 43.520,17.340 43.130,17.460 42.750,17.600 42.380,17.740 41.406,17.370 40.402,17.082 39.380,16.880 39.380,16.880 39.380,16.880 39.380,16.880 37.722,16.859 36.085,17.244 34.610,18.000 43.740,18.000 52.870,18.000 62.000,18.000 61.769,17.224 61.322,16.530 60.710,16.000 60.710,16.000 60.710,16.000 60.710,16.000 Z " />
  <path stroke="none" fill="#ffffffff" d="M 72.000,33.000 C 72.443,32.481 72.913,31.987 73.410,31.520 73.630,31.270 73.780,30.980 73.910,31.000 56.350,31.000 38.790,31.000 21.230,31.000 20.915,31.619 20.754,32.305 20.760,33.000 37.840,33.000 54.920,33.000 72.000,33.000 72.000,33.000 72.000,33.000 72.000,33.000 Z " />
  <path stroke="none" fill="#ffffffff" d="M 52.490,13.340 C 50.156,13.299 47.853,13.872 45.810,15.000 50.267,15.000 54.723,15.000 59.180,15.000 57.133,13.872 54.827,13.300 52.490,13.340 52.490,13.340 52.490,13.340 52.490,13.340 Z " />
  <path stroke="none" fill="#ffffffff" d="M 48.180,70.000 C 47.913,70.000 47.647,70.000 47.380,70.000 47.790,70.740 48.130,71.000 48.180,70.000 48.180,70.000 48.180,70.000 48.180,70.000 Z " />
  <path stroke="none" fill="#ffffffff" d="M 61.090,59.700 C 61.090,59.700 61.090,59.700 61.090,59.700 63.347,59.693 65.564,59.108 67.530,58.000 63.757,58.000 59.983,58.000 56.210,58.000 57.745,58.801 59.389,59.374 61.090,59.700 61.090,59.700 61.090,59.700 61.090,59.700 Z " />
  <path stroke="none" fill="#ffffffff" d="M 28.000,51.000 C 41.890,51.000 55.780,51.000 69.670,51.000 69.510,50.840 69.340,50.630 69.140,50.430 69.160,50.397 69.180,50.363 69.200,50.330 69.898,50.718 70.673,50.947 71.470,51.000 72.033,51.000 72.597,51.000 73.160,51.000 74.638,50.888 76.001,50.163 76.920,49.000 60.153,49.000 43.387,49.000 26.620,49.000 26.868,49.790 27.349,50.487 28.000,51.000 28.000,51.000 28.000,51.000 28.000,51.000 Z " />
  <path stroke="none" fill="#ffffffff" d="M 38.130,57.000 C 43.503,57.000 48.877,57.000 54.250,57.000 54.250,56.940 54.250,56.940 54.250,56.940 54.250,56.940 54.250,56.940 54.250,56.940 54.291,56.964 54.320,57.004 54.330,57.050 59.220,57.050 64.110,57.050 69.000,57.050 69.557,56.484 69.980,55.800 70.240,55.050 59.743,55.050 49.247,55.050 38.750,55.050 38.425,55.656 38.215,56.317 38.130,57.000 38.130,57.000 38.130,57.000 38.130,57.000 Z " />
  <path stroke="none" fill="#ffffffff" d="M 77.480,40.000 C 59.180,40.000 40.880,40.000 22.580,40.000 22.490,40.750 22.430,41.070 22.430,41.400 22.406,41.605 22.440,41.814 22.530,42.000 41.197,42.000 59.863,42.000 78.530,42.000 78.140,41.355 77.789,40.687 77.480,40.000 77.480,40.000 77.480,40.000 77.480,40.000 Z " />
  <path stroke="none" fill="#ffffffff" d="M 26.210,48.000 C 26.210,48.060 26.210,48.110 26.210,48.000 43.423,48.000 60.637,48.000 77.850,48.000 78.292,47.415 78.574,46.726 78.670,46.000 61.243,46.000 43.817,46.000 26.390,46.000 26.234,46.655 26.174,47.328 26.210,48.000 26.210,48.000 26.210,48.000 26.210,48.000 Z " />
</svg>