<?xml version="1.0" encoding="UTF-8" standalone="no"?>
<!DOCTYPE svg PUBLIC "-//W3C//DTD SVG 20010904//EN" "http://www.w3.org/TR/2001/REC-SVG-20010904/DTD/svg10.dtd"[]>
<svg version="1.1" id="Frosty Editor v1.0.6.3" xmlns="http://www.w3.org/2000/svg" d1p1:xlink="http://www.w3.org/1999/xlink" viewBox="0 0 25 25" xmlns:d1p1="xmlns">
  <path stroke="none" fill="#ffffffff" d="M 20.429,3.416 C 20.155,3.689 20.155,3.689 20.155,3.689 19.943,3.477 19.943,3.477 19.943,3.477 19.488,3.933 19.488,3.933 19.488,3.933 19.387,3.832 19.387,3.832 19.387,3.832 19.141,4.078 19.141,4.078 19.141,4.078 19.006,3.943 19.006,3.943 19.006,3.943 18.826,3.809 18.454,3.645 18.219,3.868 18.134,3.939 18.081,4.041 18.073,4.151 18.073,4.317 18.146,4.475 18.273,4.583 18.451,4.761 18.451,4.761 18.451,4.761 18.077,5.135 18.077,5.135 18.077,5.135 17.566,5.135 17.566,5.135 17.566,5.135 12.861,9.840 12.861,9.840 12.861,9.840 12.850,10.021 12.838,10.201 12.827,10.382 12.299,10.909 12.299,10.909 12.299,10.909 12.121,10.731 12.121,10.731 12.121,10.731 11.639,11.214 11.639,11.214 11.639,11.214 11.728,11.303 11.728,11.303 11.728,11.303 11.573,11.351 11.418,11.399 11.264,11.448 10.199,12.513 10.199,12.513 10.199,12.513 11.340,13.174 12.482,13.834 13.624,14.495 13.624,16.674 13.624,16.674 13.624,16.674 13.814,16.484 13.814,16.484 13.814,16.484 14.033,16.297 14.182,16.041 14.237,15.758 14.223,15.157 14.209,14.555 14.195,13.953 14.341,13.812 14.486,13.671 14.632,13.530 14.882,13.164 15.131,12.799 15.381,12.433 15.515,12.414 15.649,12.395 15.783,12.376 16.774,11.386 16.774,11.386 16.774,11.386 16.788,11.588 16.887,11.775 17.045,11.901 17.060,11.916 17.060,11.916 17.060,11.916 17.755,12.221 17.755,12.221 17.755,12.221 18.225,12.095 18.696,11.968 19.166,11.842 19.175,11.838 19.184,11.835 19.194,11.831 19.528,11.644 19.838,11.415 20.115,11.149 20.162,11.102 20.205,11.060 20.250,11.004 21.143,9.881 22.036,8.758 22.930,7.635 22.996,7.569 23.405,7.067 22.831,6.438 22.740,6.337 22.625,6.260 22.497,6.214 21.299,5.016 21.299,5.016 21.299,5.016 20.932,5.383 20.932,5.383 20.932,5.383 20.831,5.282 20.831,5.282 20.831,5.282 21.288,4.825 21.288,4.825 21.288,4.825 21.076,4.613 21.076,4.613 21.076,4.613 21.350,4.340 21.350,4.340 21.350,4.340 21.043,4.032 20.736,3.724 20.429,3.416 Z M 18.508,4.017 C 18.650,4.013 18.818,4.121 18.852,4.145 18.963,4.256 18.963,4.256 18.963,4.256 18.629,4.590 18.629,4.590 18.629,4.590 18.448,4.408 18.448,4.408 18.448,4.408 18.377,4.350 18.333,4.267 18.323,4.177 18.326,4.140 18.341,4.106 18.366,4.080 18.371,4.075 18.376,4.070 18.381,4.066 18.417,4.032 18.461,4.018 18.508,4.017 Z M 17.666,5.399 C 17.992,5.399 17.992,5.399 17.992,5.399 13.087,10.303 13.087,10.303 13.087,10.303 13.095,10.187 13.103,10.070 13.111,9.954 Z M 18.724,5.644 C 18.653,5.844 18.582,6.044 18.512,6.245 13.693,11.063 13.693,11.063 13.693,11.063 13.510,11.114 13.326,11.165 13.143,11.216 13.188,11.032 13.232,10.848 13.276,10.664 18.193,5.748 18.193,5.748 18.193,5.748 18.370,5.713 18.547,5.679 18.724,5.644 Z M 18.529,5.814 C 18.248,5.870 18.248,5.870 18.248,5.870 13.385,10.734 13.385,10.734 13.385,10.734 13.361,10.835 13.338,10.936 13.314,11.038 13.418,11.009 13.522,10.981 13.626,10.952 18.399,6.179 18.399,6.179 18.399,6.179 18.442,6.057 18.486,5.936 18.529,5.814 Z M 18.969,6.378 C 18.899,6.578 18.828,6.778 18.757,6.978 13.935,11.800 13.935,11.800 13.935,11.800 13.752,11.851 13.569,11.902 13.386,11.953 13.430,11.769 13.474,11.585 13.518,11.402 15.157,9.763 16.795,8.124 18.433,6.485 18.612,6.449 18.791,6.414 18.969,6.378 Z M 18.778,6.543 C 18.497,6.599 18.497,6.599 18.497,6.599 13.634,11.462 13.634,11.462 13.634,11.462 13.609,11.565 13.584,11.669 13.559,11.772 13.663,11.743 13.767,11.715 13.871,11.687 18.645,6.912 18.645,6.912 18.645,6.912 18.689,6.789 18.734,6.666 18.778,6.543 Z M 22.377,6.756 C 22.423,6.756 22.468,6.773 22.503,6.808 22.573,6.878 22.573,6.991 22.503,7.061 22.433,7.131 22.320,7.131 22.250,7.061 22.182,6.992 22.181,6.881 22.247,6.811 22.248,6.810 22.249,6.809 22.250,6.808 22.285,6.773 22.331,6.756 22.377,6.756 Z M 8.998,10.580 C 8.426,11.151 8.426,11.151 8.426,11.151 8.575,11.300 8.575,11.300 8.575,11.300 6.605,13.270 6.605,13.270 6.605,13.270 6.436,13.101 6.436,13.101 6.436,13.101 6.230,13.306 6.230,13.306 6.230,13.306 6.030,13.106 6.030,13.106 6.030,13.106 5.777,13.359 5.777,13.359 5.777,13.359 5.653,13.235 5.653,13.235 5.653,13.235 6.050,12.838 6.050,12.838 6.050,12.838 5.596,12.384 5.596,12.384 5.596,12.384 4.535,13.445 4.535,13.445 4.535,13.445 4.989,13.899 4.989,13.899 4.989,13.899 5.387,13.501 5.387,13.501 5.387,13.501 5.511,13.625 5.511,13.625 5.511,13.625 5.244,13.892 5.244,13.892 5.244,13.892 5.444,14.092 5.444,14.092 5.444,14.092 5.239,14.298 5.239,14.298 5.239,14.298 5.405,14.465 5.405,14.465 5.405,14.465 6.618,13.764 7.830,13.062 9.042,12.361 9.339,12.064 9.339,12.064 9.339,12.064 9.418,12.143 9.418,12.143 9.418,12.143 9.442,12.130 9.465,12.116 9.489,12.102 9.512,12.115 9.534,12.128 9.557,12.142 10.058,11.640 10.058,11.640 10.058,11.640 Z M 12.461,12.531 C 12.495,12.531 12.530,12.536 12.565,12.545 12.702,12.583 12.808,12.692 12.843,12.829 12.879,12.967 12.838,13.113 12.737,13.213 12.768,13.241 12.800,13.268 12.831,13.296 12.699,13.429 12.506,13.480 12.325,13.432 12.144,13.384 12.003,13.242 11.954,13.062 11.907,12.883 11.956,12.693 12.085,12.561 12.116,12.589 12.148,12.617 12.179,12.645 12.255,12.570 12.357,12.530 12.461,12.531 Z M 9.937,12.774 C 8.593,14.119 8.593,14.119 8.593,14.119 8.123,13.650 8.123,13.650 8.123,13.650 8.189,13.585 8.189,13.585 8.189,13.585 8.003,13.400 8.003,13.400 8.003,13.400 8.062,13.341 8.062,13.341 8.062,13.341 7.277,13.794 6.493,14.248 5.708,14.702 5.708,16.041 5.708,16.041 5.708,16.041 5.720,16.053 5.720,16.053 5.720,16.053 5.969,15.805 5.969,15.805 5.969,15.805 6.697,16.533 6.697,16.533 6.697,16.533 6.697,15.247 6.697,15.247 6.697,15.247 7.628,14.711 8.558,14.174 9.489,13.637 10.419,14.174 11.350,14.711 12.281,15.247 12.281,18.467 12.281,18.467 12.281,18.467 11.612,18.853 10.943,19.238 10.274,19.624 10.362,19.967 10.451,20.310 10.540,20.653 11.394,20.161 12.249,19.669 13.104,19.176 12.884,18.885 12.664,18.594 12.444,18.303 12.415,18.181 12.387,18.060 12.359,17.939 13.284,17.014 13.284,17.014 13.284,17.014 13.284,14.702 13.284,14.702 13.284,14.702 12.168,14.059 11.053,13.417 9.937,12.774 Z M 5.354,14.520 C 4.769,15.104 4.769,15.104 4.769,15.104 4.482,15.297 4.195,15.489 3.908,15.682 3.018,16.572 3.018,16.572 3.018,16.572 2.894,16.448 2.894,16.448 2.894,16.448 2.327,17.015 2.327,17.015 2.327,17.015 3.624,18.313 3.624,18.313 3.624,18.313 4.191,17.746 4.191,17.746 4.191,17.746 4.073,17.627 4.073,17.627 4.073,17.627 4.068,17.623 4.068,17.623 4.068,17.623 4.938,16.753 4.938,16.753 4.938,16.753 5.077,16.548 5.215,16.342 5.354,16.137 Z M 8.907,14.863 C 8.905,15.351 8.903,15.840 8.900,16.328 7.492,16.328 7.492,16.328 7.492,16.328 7.492,17.304 7.492,17.304 7.492,17.304 9.351,17.304 9.351,17.304 9.351,17.304 9.233,17.417 9.116,17.530 8.999,17.643 8.683,17.643 8.683,17.643 8.683,17.643 8.683,18.079 8.683,18.079 8.683,18.079 9.139,18.079 9.139,18.079 9.139,18.079 9.139,17.755 9.139,17.755 9.139,17.755 9.589,17.304 9.589,17.304 9.589,17.304 10.002,17.304 10.002,17.304 10.002,17.304 10.002,18.820 10.002,18.820 10.002,18.820 10.022,18.846 10.042,18.872 10.062,18.899 10.214,18.832 10.366,18.766 10.517,18.700 10.517,17.304 10.517,17.304 10.517,17.304 11.370,17.304 11.370,17.304 11.370,17.304 11.370,16.795 11.370,16.795 11.370,16.795 10.083,16.795 10.083,16.795 10.083,16.795 10.194,16.684 10.305,16.573 10.416,16.462 10.754,16.462 10.754,16.462 10.754,16.462 10.754,16.011 10.754,16.011 10.754,16.011 10.303,16.011 10.303,16.011 10.303,16.011 10.303,16.334 10.303,16.334 10.303,16.334 9.885,16.752 9.885,16.752 9.885,16.752 9.885,14.863 9.885,14.863 9.885,14.863 Z M 6.697,16.664 C 5.953,17.409 5.953,17.409 5.953,17.409 5.885,17.384 5.823,17.344 5.772,17.293 5.728,17.248 5.728,17.248 5.728,17.248 5.708,17.267 5.708,17.267 5.708,17.267 5.708,19.073 5.708,19.073 5.708,19.073 6.348,19.443 6.989,19.813 7.629,20.183 7.727,20.110 7.825,20.036 7.922,19.963 7.464,19.504 7.464,19.504 7.464,19.504 7.841,19.126 7.841,19.126 7.841,19.126 7.460,18.907 7.079,18.687 6.697,18.467 Z M 5.354,18.008 C 4.963,18.398 4.963,18.398 4.963,18.398 4.922,18.356 4.922,18.356 4.922,18.356 4.829,18.255 4.702,18.192 4.565,18.178 4.462,18.178 4.362,18.220 4.291,18.295 4.264,18.322 4.264,18.322 4.264,18.322 4.210,18.591 4.156,18.861 4.102,19.130 4.350,19.379 4.350,19.379 4.350,19.379 4.261,19.468 4.261,19.468 4.261,19.468 4.078,19.284 4.078,19.284 4.078,19.284 3.354,20.007 3.354,20.007 3.354,20.007 3.351,20.163 3.348,20.319 3.345,20.475 4.440,21.570 4.440,21.570 4.440,21.570 5.282,22.412 5.282,22.412 5.282,22.412 5.810,21.884 5.810,21.884 5.810,21.884 5.777,21.809 5.743,21.734 5.710,21.659 6.341,21.028 6.341,21.028 6.341,21.028 6.141,20.827 6.141,20.827 6.141,20.827 6.290,20.678 6.290,20.678 6.290,20.678 6.582,20.970 6.582,20.970 6.582,20.970 6.831,20.783 7.081,20.595 7.330,20.408 6.671,20.027 6.012,19.646 5.354,19.265 Z M 13.309,19.447 C 12.415,19.964 11.522,20.481 10.629,20.998 10.685,21.214 10.740,21.431 10.796,21.647 10.844,21.811 10.956,21.948 11.107,22.027 11.226,22.082 11.362,22.090 11.487,22.051 11.991,21.902 12.496,21.754 13.000,21.606 13.145,21.562 13.279,21.486 13.391,21.384 13.448,21.329 13.490,21.259 13.512,21.183 13.535,21.095 13.529,21.003 13.495,20.920 13.554,20.588 13.612,20.257 13.671,19.925 13.550,19.766 13.429,19.606 13.309,19.447 Z " />
</svg>