<?xml version="1.0" encoding="UTF-8" standalone="no"?>
<!DOCTYPE svg PUBLIC "-//W3C//DTD SVG 20010904//EN" "http://www.w3.org/TR/2001/REC-SVG-20010904/DTD/svg10.dtd"[]>
<svg version="1.1" id="Frosty Editor v1.0.6.3" xmlns="http://www.w3.org/2000/svg" d1p1:xlink="http://www.w3.org/1999/xlink" viewBox="0 0 384 96" xmlns:d1p1="xmlns">
  <path stroke="none" fill="#ffffffff" d="M 260.620,43.130 C 260.568,44.114 260.359,45.083 260.000,46.000 259.880,46.310 259.760,46.570 259.610,46.870 259.460,47.170 259.400,47.270 259.320,47.420 253.683,46.947 248.047,46.473 242.410,46.000 242.907,43.695 242.927,41.313 242.470,39.000 248.073,38.537 253.677,38.073 259.280,37.610 259.370,37.770 259.490,37.980 259.610,38.220 259.730,38.460 259.850,38.720 259.970,39.030 260.349,39.971 260.571,40.967 260.630,41.980 260.630,42.150 260.630,42.320 260.630,42.500 260.630,42.680 260.630,42.890 260.610,43.130 260.613,43.130 260.617,43.130 260.620,43.130 Z M 239.830,47.880 C 238.497,47.880 237.163,47.880 235.830,47.880 235.830,47.437 235.830,46.993 235.830,46.550 236.983,46.550 238.137,46.550 239.290,46.550 239.290,46.217 239.290,45.883 239.290,45.550 238.137,45.550 236.983,45.550 235.830,45.550 235.830,44.700 235.830,43.850 235.830,43.000 236.983,43.000 238.137,43.000 239.290,43.000 239.290,42.667 239.290,42.333 239.290,42.000 238.137,42.000 236.983,42.000 235.830,42.000 235.830,41.737 235.830,41.473 235.830,41.210 235.830,40.890 235.830,40.210 235.830,39.470 236.997,39.470 238.163,39.470 239.330,39.470 239.330,39.137 239.330,38.803 239.330,38.470 238.143,38.470 236.957,38.470 235.770,38.470 235.770,38.080 235.700,37.680 235.650,37.260 237.090,37.260 238.530,37.260 239.970,37.260 241.207,40.701 241.158,44.473 239.830,47.880 239.830,47.880 239.830,47.880 239.830,47.880 Z M 229.970,57.730 C 229.970,57.487 229.970,57.243 229.970,57.000 228.400,57.000 226.830,57.000 225.260,57.000 225.260,57.287 225.260,57.573 225.260,57.860 225.013,57.860 224.767,57.860 224.520,57.860 224.520,57.573 224.520,57.287 224.520,57.000 223.443,57.000 222.367,57.000 221.290,57.000 221.290,57.287 221.290,57.573 221.290,57.860 220.957,57.860 220.623,57.860 220.290,57.860 220.290,57.573 220.290,57.287 220.290,57.000 219.213,57.000 218.137,57.000 217.060,57.000 217.060,57.287 217.060,57.573 217.060,57.860 216.727,57.860 216.393,57.860 216.060,57.860 216.060,57.573 216.060,57.287 216.060,57.000 214.983,57.000 213.907,57.000 212.830,57.000 212.830,57.287 212.830,57.573 212.830,57.860 212.603,57.860 212.377,57.860 212.150,57.860 212.150,57.573 212.150,57.287 212.150,57.000 210.580,57.000 209.010,57.000 207.440,57.000 207.440,57.287 207.440,57.573 207.440,57.860 206.983,57.860 206.527,57.860 206.070,57.860 206.070,56.343 206.070,54.827 206.070,53.310 203.960,51.287 201.850,49.263 199.740,47.240 198.133,47.240 196.527,47.240 194.920,47.240 194.920,47.027 194.920,46.813 194.920,46.600 194.915,46.348 194.871,46.099 194.790,45.860 197.100,45.860 199.410,45.860 201.720,45.860 203.333,47.527 204.947,49.193 206.560,50.860 215.420,50.860 224.280,50.860 233.140,50.860 233.140,51.773 233.140,52.687 233.140,53.600 232.484,55.234 231.399,56.661 230.000,57.730 229.990,57.730 229.980,57.730 229.970,57.730 Z M 228.970,60.150 C 228.067,60.150 227.163,60.150 226.260,60.150 226.260,59.433 226.260,58.717 226.260,58.000 227.173,58.000 228.087,58.000 229.000,58.000 228.990,58.717 228.980,59.433 228.970,60.150 Z M 223.520,60.150 C 223.110,60.150 222.700,60.150 222.290,60.150 222.290,59.433 222.290,58.717 222.290,58.000 222.700,58.000 223.110,58.000 223.520,58.000 223.520,58.717 223.520,59.433 223.520,60.150 Z M 219.290,60.150 C 218.880,60.150 218.470,60.150 218.060,60.150 218.060,59.433 218.060,58.717 218.060,58.000 218.470,58.000 218.880,58.000 219.290,58.000 219.290,58.717 219.290,59.433 219.290,60.150 Z M 215.060,60.150 C 214.650,60.150 214.240,60.150 213.830,60.150 213.830,59.433 213.830,58.717 213.830,58.000 214.240,58.000 214.650,58.000 215.060,58.000 215.060,58.717 215.060,59.433 215.060,60.150 Z M 211.150,60.150 C 210.247,60.150 209.343,60.150 208.440,60.150 208.440,59.433 208.440,58.717 208.440,58.000 209.343,58.000 210.247,58.000 211.150,58.000 211.150,58.717 211.150,59.433 211.150,60.150 Z M 198.980,56.250 C 198.947,56.413 198.913,56.577 198.880,56.740 198.498,59.266 198.752,61.847 199.620,64.250 199.570,64.620 199.280,65.410 197.820,65.410 193.463,65.410 189.107,65.410 184.750,65.410 183.213,64.917 181.677,64.423 180.140,63.930 179.675,63.823 179.197,63.783 178.720,63.810 179.033,63.033 179.347,62.257 179.660,61.480 181.020,63.480 183.710,64.190 185.380,64.230 187.380,64.230 189.380,64.230 191.380,64.230 193.628,64.240 195.692,62.994 196.730,61.000 196.750,60.947 196.770,60.893 196.790,60.840 197.335,58.999 197.236,57.027 196.510,55.250 198.050,55.250 199.590,55.250 201.130,55.250 200.413,55.583 199.697,55.917 198.980,56.250 Z M 194.900,60.250 C 194.174,61.508 192.823,62.274 191.370,62.250 189.387,62.250 187.403,62.250 185.420,62.250 185.240,62.250 181.040,62.080 180.840,58.800 182.005,57.535 183.519,56.644 185.190,56.240 185.369,58.516 186.572,60.587 188.460,61.870 188.793,61.300 189.127,60.730 189.460,60.160 188.050,59.130 187.185,57.515 187.110,55.770 189.090,55.419 191.100,55.269 193.110,55.320 193.500,55.320 193.890,55.320 194.280,55.320 195.137,56.804 195.357,58.571 194.890,60.220 194.893,60.230 194.897,60.240 194.900,60.250 Z M 175.130,66.100 C 174.463,67.280 173.797,68.460 173.130,69.640 173.320,70.373 173.510,71.107 173.700,71.840 173.247,72.173 172.793,72.507 172.340,72.840 171.783,74.227 171.227,75.613 170.670,77.000 170.760,77.750 170.850,78.500 170.940,79.250 170.240,79.687 169.540,80.123 168.840,80.560 168.380,82.253 167.920,83.947 167.460,85.640 167.460,85.717 167.460,85.793 167.460,85.870 167.460,85.870 167.280,89.420 165.290,89.690 159.780,89.690 154.270,89.690 148.760,89.690 148.057,89.632 147.399,89.319 146.910,88.810 146.205,87.899 145.901,86.740 146.070,85.600 146.070,85.540 146.620,79.890 152.230,72.990 153.185,71.664 153.980,70.231 154.600,68.720 155.177,68.757 155.753,68.793 156.330,68.830 149.780,78.240 148.150,84.100 148.080,84.380 147.896,84.965 147.969,85.601 148.280,86.130 148.460,86.382 148.741,86.543 149.050,86.570 153.700,86.570 158.350,86.570 163.000,86.570 165.600,86.570 166.400,83.140 166.410,83.070 169.273,75.747 172.137,68.423 175.000,61.100 176.510,60.600 177.820,57.870 178.070,57.310 178.551,56.632 178.586,55.734 178.160,55.020 177.350,53.970 175.160,54.380 175.060,54.420 169.060,54.497 163.060,54.573 157.060,54.650 156.927,53.438 156.589,52.258 156.060,51.160 155.870,50.703 155.680,50.247 155.490,49.790 152.207,50.880 148.923,51.970 145.640,53.060 144.053,53.060 142.467,53.060 140.880,53.060 147.563,50.216 154.568,48.201 161.740,47.060 161.740,47.113 161.740,47.167 161.740,47.220 161.740,47.883 162.003,48.519 162.472,48.988 162.941,49.457 163.577,49.720 164.240,49.720 173.637,49.720 183.033,49.720 192.430,49.720 192.999,49.719 193.550,49.521 193.990,49.160 193.990,49.190 193.990,49.220 193.990,49.250 195.640,49.250 197.290,49.250 198.940,49.250 200.327,50.583 201.713,51.917 203.100,53.250 199.793,53.273 196.487,53.297 193.180,53.320 192.750,53.320 182.560,52.870 179.010,57.880 178.083,60.147 177.157,62.413 176.230,64.680 175.755,65.049 175.375,65.525 175.120,66.070 175.123,66.080 175.127,66.090 175.130,66.100 Z M 162.200,92.480 C 158.267,92.480 154.333,92.480 150.400,92.480 150.290,92.203 150.180,91.927 150.070,91.650 154.257,91.650 158.443,91.650 162.630,91.650 162.487,91.927 162.343,92.203 162.200,92.480 Z M 154.630,55.760 C 155.180,55.737 155.730,55.713 156.280,55.690 156.280,55.690 156.280,55.690 156.280,55.690 156.373,55.690 156.467,55.690 156.560,55.690 156.560,55.690 156.560,55.690 156.560,55.690 162.753,55.607 168.947,55.523 175.140,55.440 175.850,55.290 177.030,55.260 177.340,55.660 177.500,55.870 177.430,56.310 177.130,56.910 176.530,58.230 175.330,60.120 174.540,60.200 174.440,60.200 174.340,60.200 174.240,60.200 171.300,67.700 168.360,75.200 165.420,82.700 165.420,82.700 164.770,85.500 162.960,85.500 158.357,85.500 153.753,85.500 149.150,85.500 149.060,85.500 148.930,85.190 149.070,84.500 149.070,84.440 150.810,78.240 157.680,68.570 157.853,68.327 158.027,68.083 158.200,67.840 156.960,67.763 155.720,67.687 154.480,67.610 154.480,67.610 154.480,67.610 154.480,67.610 153.847,67.400 153.213,67.190 152.580,66.980 153.290,64.910 154.800,59.910 154.620,55.740 154.623,55.747 154.627,55.753 154.630,55.760 Z M 123.380,41.000 C 123.320,38.000 124.580,37.170 124.830,37.000 128.540,36.290 133.830,33.150 135.090,32.420 142.140,32.420 149.190,32.420 156.240,32.420 156.240,32.947 156.240,33.473 156.240,34.000 159.037,34.000 161.833,34.000 164.630,34.000 164.630,37.107 164.630,40.213 164.630,43.320 165.067,43.320 165.503,43.320 165.940,43.320 165.940,43.570 165.940,43.820 165.940,44.070 165.370,44.070 164.800,44.070 164.230,44.070 163.070,44.072 162.064,44.871 161.800,46.000 153.729,47.250 145.869,49.606 138.440,53.000 133.590,53.000 128.740,53.000 123.890,53.000 123.720,49.000 123.550,45.000 123.380,41.000 Z M 147.000,20.880 C 147.000,18.970 147.000,17.060 147.000,15.150 153.250,15.150 159.500,15.150 165.750,15.150 165.750,16.120 165.750,17.090 165.750,18.060 165.772,18.568 165.574,19.061 165.206,19.411 164.838,19.762 164.336,19.937 163.830,19.890 161.803,19.890 159.777,19.890 157.750,19.890 157.750,20.223 157.750,20.557 157.750,20.890 154.167,20.887 150.583,20.883 147.000,20.880 Z M 140.250,15.160 C 142.167,15.160 144.083,15.160 146.000,15.160 146.000,17.070 146.000,18.980 146.000,20.890 144.110,20.890 142.220,20.890 140.330,20.890 140.303,18.980 140.277,17.070 140.250,15.160 Z M 138.250,22.730 C 137.277,22.730 136.303,22.730 135.330,22.730 135.197,22.593 135.063,22.457 134.930,22.320 134.930,19.453 134.930,16.587 134.930,13.720 135.063,13.583 135.197,13.447 135.330,13.310 136.303,13.310 137.277,13.310 138.250,13.310 138.250,16.450 138.250,19.590 138.250,22.730 Z M 167.670,18.060 C 167.670,16.393 167.670,14.727 167.670,13.060 168.143,13.060 168.617,13.060 169.090,13.060 169.493,13.590 169.897,14.120 170.300,14.650 168.547,16.445 168.543,19.310 170.291,21.111 172.039,22.911 174.903,22.991 176.749,21.291 178.595,19.591 178.750,16.730 177.100,14.840 177.550,14.247 178.000,13.653 178.450,13.060 178.827,13.060 179.203,13.060 179.580,13.060 179.580,14.727 179.580,16.393 179.580,18.060 179.560,19.098 179.969,20.098 180.712,20.823 181.454,21.548 182.463,21.934 183.500,21.890 184.860,21.890 186.220,21.890 187.580,21.890 187.580,22.223 187.580,22.557 187.580,22.890 178.290,22.890 169.000,22.890 159.710,22.890 159.710,22.557 159.710,22.223 159.710,21.890 161.070,21.890 162.430,21.890 163.790,21.890 164.827,21.934 165.836,21.548 166.578,20.823 167.321,20.098 167.730,19.098 167.710,18.060 167.697,18.060 167.683,18.060 167.670,18.060 Z M 173.670,15.230 C 175.118,15.252 176.276,16.441 176.260,17.890 176.243,19.338 175.059,20.501 173.610,20.490 172.162,20.479 170.995,19.299 171.000,17.850 171.000,17.145 171.283,16.470 171.785,15.976 172.287,15.481 172.966,15.209 173.670,15.220 173.670,15.223 173.670,15.227 173.670,15.230 Z M 169.790,9.830 C 172.477,9.830 175.163,9.830 177.850,9.830 177.850,10.240 177.850,10.650 177.850,11.060 177.850,11.060 177.850,11.060 177.850,11.060 177.850,11.463 177.850,11.867 177.850,12.270 177.373,12.897 176.897,13.523 176.420,14.150 174.866,12.976 172.738,12.915 171.120,14.000 170.677,13.417 170.233,12.833 169.790,12.250 169.790,12.143 169.790,12.037 169.790,11.930 169.790,11.930 169.790,11.930 169.790,11.930 169.790,11.230 169.790,10.530 169.790,9.830 Z M 187.170,15.120 C 190.713,14.747 194.257,14.373 197.800,14.000 197.800,16.693 197.800,19.387 197.800,22.080 195.077,21.817 192.353,21.553 189.630,21.290 189.630,20.823 189.630,20.357 189.630,19.890 187.603,19.890 185.577,19.890 183.550,19.890 183.044,19.937 182.542,19.762 182.174,19.411 181.806,19.061 181.608,18.568 181.630,18.060 181.630,17.090 181.630,16.120 181.630,15.150 183.477,15.140 185.323,15.130 187.170,15.120 Z M 201.920,15.360 C 201.920,17.137 201.920,18.913 201.920,20.690 201.213,20.690 200.507,20.690 199.800,20.690 199.800,18.923 199.800,17.157 199.800,15.390 200.507,15.380 201.213,15.370 201.920,15.360 Z M 203.920,13.760 C 205.313,13.760 206.707,13.760 208.100,13.760 208.100,16.580 208.100,19.400 208.100,22.220 206.707,22.220 205.313,22.220 203.920,22.220 203.920,19.400 203.920,16.580 203.920,13.760 Z M 210.100,11.280 C 211.540,11.280 212.980,11.280 214.420,11.280 214.420,15.760 214.420,20.240 214.420,24.720 212.980,24.720 211.540,24.720 210.100,24.720 210.100,20.240 210.100,15.760 210.100,11.280 Z M 185.000,32.000 C 185.000,32.000 185.000,32.000 185.000,32.000 184.277,32.000 183.553,32.000 182.830,32.000 182.830,31.043 182.830,30.087 182.830,29.130 181.473,28.200 180.117,27.270 178.760,26.340 173.710,26.340 168.660,26.340 163.610,26.340 163.610,28.030 163.610,29.720 163.610,31.410 162.820,31.410 162.030,31.410 161.240,31.410 161.240,29.223 161.240,27.037 161.240,24.850 169.470,24.850 177.700,24.850 185.930,24.850 185.930,27.233 185.930,29.617 185.930,32.000 185.620,32.000 185.310,32.000 185.000,32.000 Z M 169.780,45.090 C 169.780,42.240 169.780,39.390 169.780,36.540 172.343,36.540 174.907,36.540 177.470,36.540 177.470,39.393 177.470,42.247 177.470,45.100 182.470,45.100 187.470,45.100 192.470,45.100 192.868,45.100 193.249,45.258 193.531,45.539 193.812,45.821 193.970,46.202 193.970,46.600 193.970,46.810 193.970,47.020 193.970,47.230 193.970,47.628 193.812,48.009 193.531,48.291 193.249,48.572 192.868,48.730 192.470,48.730 183.057,48.730 173.643,48.730 164.230,48.730 163.832,48.730 163.451,48.572 163.169,48.291 162.888,48.009 162.730,47.628 162.730,47.230 162.730,47.020 162.730,46.810 162.730,46.600 162.730,46.202 162.888,45.821 163.169,45.539 163.451,45.258 163.832,45.100 164.230,45.100 166.080,45.097 167.930,45.093 169.780,45.090 Z M 165.680,31.280 C 168.787,31.280 171.893,31.280 175.000,31.280 175.880,31.853 176.760,32.427 177.640,33.000 179.820,33.000 182.000,33.000 184.180,33.000 184.257,33.430 184.333,33.860 184.410,34.290 184.410,35.110 184.900,36.650 186.470,36.650 188.493,36.650 190.517,36.650 192.540,36.650 192.859,36.621 193.177,36.714 193.430,36.910 193.742,37.244 193.895,37.696 193.850,38.150 193.850,39.527 193.850,40.903 193.850,42.280 192.810,42.280 191.770,42.280 190.730,42.280 190.730,42.887 190.730,43.493 190.730,44.100 186.627,44.100 182.523,44.100 178.420,44.100 178.420,41.247 178.420,38.393 178.420,35.540 175.190,35.540 171.960,35.540 168.730,35.540 168.730,38.393 168.730,41.247 168.730,44.100 168.133,44.100 167.537,44.100 166.940,44.100 166.940,43.517 166.940,42.933 166.940,42.350 166.503,42.350 166.067,42.350 165.630,42.350 165.647,38.660 165.663,34.970 165.680,31.280 Z M 180.910,32.010 C 179.940,32.010 178.970,32.010 178.000,32.010 177.127,31.433 176.253,30.857 175.380,30.280 172.143,30.280 168.907,30.280 165.670,30.280 165.670,29.637 165.670,28.993 165.670,28.350 169.860,28.350 174.050,28.350 178.240,28.350 179.133,28.963 180.027,29.577 180.920,30.190 180.917,30.797 180.913,31.403 180.910,32.010 Z M 196.480,34.010 C 196.480,36.040 196.480,38.070 196.480,40.100 201.147,40.100 205.813,40.100 210.480,40.100 210.480,42.893 210.480,45.687 210.480,48.480 217.697,48.480 224.913,48.480 232.130,48.480 232.130,45.687 232.130,42.893 232.130,40.100 232.680,40.100 233.230,40.100 233.780,40.100 233.780,40.500 233.780,40.880 233.780,41.240 233.780,44.013 233.780,46.787 233.780,49.560 233.727,49.647 233.673,49.733 233.620,49.820 224.747,49.820 215.873,49.820 207.000,49.820 205.387,48.153 203.773,46.487 202.160,44.820 199.513,44.820 196.867,44.820 194.220,44.820 193.751,44.335 193.105,44.060 192.430,44.060 192.200,44.060 191.970,44.060 191.740,44.060 191.740,43.790 191.740,43.520 191.740,43.250 192.783,43.250 193.827,43.250 194.870,43.250 194.870,41.553 194.870,39.857 194.870,38.160 194.926,37.414 194.648,36.681 194.110,36.160 193.657,35.785 193.076,35.602 192.490,35.650 190.490,35.650 188.490,35.650 186.490,35.650 185.490,35.650 185.430,34.400 185.420,34.190 185.420,34.133 185.420,34.077 185.420,34.020 189.107,34.017 192.793,34.013 196.480,34.010 Z M 211.480,40.080 C 218.030,40.080 224.580,40.080 231.130,40.080 231.130,42.540 231.130,45.000 231.130,47.460 224.573,47.460 218.017,47.460 211.460,47.460 211.467,45.000 211.473,42.540 211.480,40.080 Z M 199.960,33.080 C 200.627,34.107 201.293,35.133 201.960,36.160 207.547,36.160 213.133,36.160 218.720,36.160 218.947,35.160 219.173,34.160 219.400,33.160 223.663,33.160 227.927,33.160 232.190,33.160 233.070,33.950 233.570,36.650 233.740,39.110 221.633,39.110 209.527,39.110 197.420,39.110 197.420,37.110 197.420,35.110 197.420,33.110 198.267,33.100 199.113,33.090 199.960,33.080 Z M 202.420,30.290 C 207.263,30.290 212.107,30.290 216.950,30.290 217.447,31.140 217.943,31.990 218.440,32.840 218.267,33.613 218.093,34.387 217.920,35.160 212.770,35.160 207.620,35.160 202.470,35.160 201.907,34.287 201.343,33.413 200.780,32.540 201.327,31.790 201.873,31.040 202.420,30.290 Z M 171.420,3.550 C 173.023,3.550 174.627,3.550 176.230,3.550 176.230,3.853 176.230,4.157 176.230,4.460 174.627,4.460 173.023,4.460 171.420,4.460 171.420,4.157 171.420,3.853 171.420,3.550 Z M 262.610,41.850 C 262.537,40.648 262.270,39.466 261.820,38.350 261.680,37.990 261.530,37.670 261.360,37.350 261.143,36.902 260.892,36.470 260.610,36.060 260.500,35.907 260.390,35.753 260.280,35.600 254.163,36.107 248.047,36.613 241.930,37.120 241.783,36.688 241.606,36.267 241.400,35.860 241.307,35.683 241.213,35.507 241.120,35.330 239.150,35.330 237.180,35.330 235.210,35.330 234.810,33.580 234.130,31.970 232.970,31.330 232.893,31.287 232.817,31.243 232.740,31.200 228.407,31.200 224.073,31.200 219.740,31.200 219.183,30.243 218.627,29.287 218.070,28.330 212.503,28.330 206.937,28.330 201.370,28.330 200.703,29.260 200.037,30.190 199.370,31.120 198.000,31.120 196.630,31.120 195.260,31.120 195.260,31.453 195.260,31.787 195.260,32.120 192.810,32.120 190.360,32.120 187.910,32.120 187.910,29.487 187.910,26.853 187.910,24.220 188.480,24.220 189.050,24.220 189.620,24.220 189.620,23.907 189.620,23.593 189.620,23.280 193.010,23.613 196.400,23.947 199.790,24.280 199.790,23.760 199.790,23.240 199.790,22.720 200.507,22.720 201.223,22.720 201.940,22.720 201.940,23.227 201.940,23.733 201.940,24.240 204.000,24.240 206.060,24.240 208.120,24.240 208.120,25.067 208.120,25.893 208.120,26.720 210.893,26.720 213.667,26.720 216.440,26.720 216.440,20.917 216.440,15.113 216.440,9.310 213.667,9.310 210.893,9.310 208.120,9.310 208.120,10.137 208.120,10.963 208.120,11.790 206.060,11.790 204.000,11.790 201.940,11.790 201.940,12.323 201.940,12.857 201.940,13.390 201.227,13.390 200.513,13.390 199.800,13.390 199.800,12.843 199.800,12.297 199.800,11.750 195.580,12.217 191.360,12.683 187.140,13.150 185.300,13.150 183.460,13.150 181.620,13.150 181.620,12.453 181.620,11.757 181.620,11.060 181.030,11.060 180.440,11.060 179.850,11.060 179.850,9.983 179.850,8.907 179.850,7.830 178.183,7.830 176.517,7.830 174.850,7.830 174.850,7.373 174.850,6.917 174.850,6.460 175.983,6.460 177.117,6.460 178.250,6.460 178.250,4.823 178.250,3.187 178.250,1.550 175.313,1.550 172.377,1.550 169.440,1.550 169.440,3.187 169.440,4.823 169.440,6.460 170.577,6.460 171.713,6.460 172.850,6.460 172.850,6.917 172.850,7.373 172.850,7.830 171.183,7.830 169.517,7.830 167.850,7.830 167.850,8.907 167.850,9.983 167.850,11.060 167.157,11.060 166.463,11.060 165.770,11.060 165.770,11.757 165.770,12.453 165.770,13.150 157.277,13.150 148.783,13.150 140.290,13.150 140.290,12.537 140.290,11.923 140.290,11.310 138.373,11.310 136.457,11.310 134.540,11.310 134.027,11.840 133.513,12.370 133.000,12.900 133.000,16.310 133.000,19.720 133.000,23.130 133.520,23.660 134.040,24.190 134.560,24.720 136.477,24.720 138.393,24.720 140.310,24.720 140.310,24.107 140.310,23.493 140.310,22.880 146.117,22.880 151.923,22.880 157.730,22.880 157.730,23.327 157.730,23.773 157.730,24.220 158.237,24.220 158.743,24.220 159.250,24.220 159.250,26.813 159.250,29.407 159.250,32.000 158.917,32.000 158.583,32.000 158.250,32.000 158.250,31.477 158.250,30.953 158.250,30.430 150.340,30.430 142.430,30.430 134.520,30.430 134.440,30.480 134.360,30.530 134.280,30.580 134.220,30.580 128.100,34.390 124.350,35.070 124.297,35.070 124.243,35.070 124.190,35.070 124.070,35.070 121.280,36.160 121.380,40.990 121.580,45.657 121.780,50.323 121.980,54.990 129.980,54.990 137.980,54.990 145.980,54.990 148.790,54.060 151.600,53.130 154.410,52.200 154.615,52.668 154.765,53.158 154.860,53.660 154.057,53.697 153.253,53.733 152.450,53.770 152.493,54.127 152.537,54.483 152.580,54.840 153.180,59.790 150.410,67.120 150.390,67.200 150.267,67.533 150.143,67.867 150.020,68.200 150.777,68.453 151.533,68.707 152.290,68.960 151.844,69.898 151.315,70.795 150.710,71.640 144.710,79.050 144.140,85.080 144.120,85.350 143.901,87.042 144.398,88.749 145.490,90.060 146.135,90.750 146.970,91.233 147.890,91.450 148.290,92.450 148.690,93.450 149.090,94.450 153.880,94.450 158.670,94.450 163.460,94.450 163.940,93.507 164.420,92.563 164.900,91.620 165.087,91.620 165.273,91.620 165.460,91.620 168.410,91.300 169.350,87.990 169.460,86.000 169.840,84.597 170.220,83.193 170.600,81.790 171.440,81.270 172.280,80.750 173.120,80.230 173.000,79.230 172.880,78.230 172.760,77.230 173.170,76.180 173.580,75.130 173.990,74.080 174.657,73.607 175.323,73.133 175.990,72.660 175.753,71.747 175.517,70.833 175.280,69.920 175.820,68.947 176.360,67.973 176.900,67.000 177.425,66.044 178.538,65.573 179.590,65.860 181.157,66.367 182.723,66.873 184.290,67.380 188.800,67.380 193.310,67.380 197.820,67.380 198.765,67.474 199.708,67.177 200.428,66.557 201.148,65.937 201.583,65.049 201.630,64.100 201.630,64.067 201.630,64.033 201.630,64.000 201.610,63.943 201.590,63.887 201.570,63.830 200.855,61.860 200.578,59.758 200.760,57.670 201.863,57.153 202.967,56.637 204.070,56.120 204.070,57.373 204.070,58.627 204.070,59.880 205.193,59.880 206.317,59.880 207.440,59.880 207.440,60.317 207.440,60.753 207.440,61.190 209.010,61.190 210.580,61.190 212.150,61.190 212.150,60.740 212.150,60.290 212.150,59.840 212.377,59.840 212.603,59.840 212.830,59.840 212.830,60.277 212.830,60.713 212.830,61.150 213.907,61.150 214.983,61.150 216.060,61.150 216.060,60.713 216.060,60.277 216.060,59.840 216.393,59.840 216.727,59.840 217.060,59.840 217.060,60.277 217.060,60.713 217.060,61.150 218.137,61.150 219.213,61.150 220.290,61.150 220.290,60.713 220.290,60.277 220.290,59.840 220.623,59.840 220.957,59.840 221.290,59.840 221.290,60.277 221.290,60.713 221.290,61.150 222.367,61.150 223.443,61.150 224.520,61.150 224.520,60.713 224.520,60.277 224.520,59.840 224.767,59.840 225.013,59.840 225.260,59.840 225.260,60.277 225.260,60.713 225.260,61.150 226.840,61.150 228.420,61.150 230.000,61.150 230.000,60.713 230.000,60.277 230.000,59.840 230.173,59.840 230.347,59.840 230.520,59.840 230.607,59.780 230.693,59.720 230.780,59.660 230.920,59.560 234.270,57.190 235.150,54.010 235.150,53.060 235.150,52.110 235.150,51.160 235.363,50.827 235.577,50.493 235.790,50.160 235.790,50.080 235.790,50.000 235.790,49.920 237.597,49.920 239.403,49.920 241.210,49.920 241.293,49.710 241.377,49.500 241.460,49.290 241.630,48.870 241.770,48.460 241.900,48.050 248.030,48.557 254.160,49.063 260.290,49.570 260.400,49.417 260.510,49.263 260.620,49.110 260.919,48.675 261.183,48.217 261.410,47.740 261.550,47.450 261.690,47.140 261.830,46.740 262.290,45.595 262.560,44.382 262.630,43.150 262.630,42.940 262.630,42.730 262.630,42.540 262.630,42.350 262.630,42.140 262.610,41.850 262.610,41.850 262.610,41.850 262.610,41.850 Z " />
</svg>