<?xml version="1.0" encoding="UTF-8" standalone="no"?>
<!DOCTYPE svg PUBLIC "-//W3C//DTD SVG 20010904//EN" "http://www.w3.org/TR/2001/REC-SVG-20010904/DTD/svg10.dtd"[]>
<svg version="1.1" id="Frosty Editor v1.0.6.3" xmlns="http://www.w3.org/2000/svg" d1p1:xlink="http://www.w3.org/1999/xlink" viewBox="0 0 25 25" xmlns:d1p1="xmlns">
  <path stroke="none" fill="#ffffffff" d="M 15.602,13.154 C 15.269,13.154 14.936,13.154 14.604,13.154 14.604,13.252 14.604,13.350 14.604,13.448 13.136,13.448 11.669,13.448 10.201,13.448 10.201,13.350 10.201,13.252 10.201,13.154 9.967,13.154 9.732,13.154 9.497,13.154 9.076,13.154 8.734,13.496 8.734,13.917 8.734,13.996 8.734,14.074 8.734,14.152 8.734,14.574 9.076,14.915 9.497,14.915 11.532,14.915 13.567,14.915 15.602,14.915 16.023,14.915 16.365,14.574 16.365,14.152 16.365,14.074 16.365,13.996 16.365,13.917 16.365,13.496 16.023,13.154 15.602,13.154 15.602,13.154 15.602,13.154 15.602,13.154 Z " />
  <path stroke="none" fill="#ffffffff" d="M 11.082,12.544 C 11.082,12.650 11.082,12.755 11.082,12.861 11.865,12.861 12.647,12.861 13.430,12.861 13.430,12.755 13.430,12.650 13.430,12.544 13.518,12.309 13.327,12.121 13.095,11.980 12.594,11.980 12.094,11.980 11.593,11.980 11.363,12.105 11.183,12.304 11.082,12.544 11.082,12.544 11.082,12.544 11.082,12.544 Z " />
  <path stroke="none" fill="#ffffffff" d="M 3.424,13.206 C 3.544,13.556 3.693,13.903 3.826,14.249 3.958,14.595 4.116,14.937 4.287,15.279 4.287,14.898 4.287,14.527 4.287,14.150 4.287,13.774 4.249,13.407 4.210,13.035 4.163,12.475 4.095,11.920 4.018,11.368 5.018,11.005 6.005,10.612 6.980,10.184 7.122,10.120 7.265,10.056 7.407,9.992 7.407,9.837 7.407,9.681 7.407,9.526 7.407,8.643 7.370,7.760 7.296,6.876 7.723,6.449 8.099,6.047 8.488,5.620 8.955,5.109 9.394,4.574 9.805,4.017 9.188,4.329 8.587,4.673 8.005,5.047 7.428,5.419 6.856,5.795 6.296,6.201 6.235,6.247 6.173,6.292 6.112,6.338 6.104,6.444 6.095,6.549 6.087,6.654 6.027,7.453 5.992,8.257 5.975,9.056 4.997,9.483 4.031,9.911 3.082,10.402 2.918,10.487 2.754,10.570 2.591,10.654 2.635,10.797 2.679,10.940 2.723,11.082 2.937,11.800 3.171,12.508 3.424,13.206 3.424,13.206 3.424,13.206 3.424,13.206 Z " />
  <path stroke="none" fill="#ffffffff" d="M 16.154,7.101 C 16.181,7.396 16.209,7.691 16.236,7.986 16.250,8.138 16.264,8.290 16.278,8.443 16.465,8.454 16.651,8.466 16.838,8.477 17.800,8.537 18.766,8.563 19.727,8.571 19.355,9.853 18.996,11.174 18.667,12.486 18.633,12.628 18.599,12.771 18.565,12.913 18.659,12.983 18.753,13.053 18.847,13.123 19.441,13.550 20.044,13.977 20.663,14.405 21.283,14.832 21.911,15.208 22.582,15.559 22.155,14.948 21.642,14.392 21.150,13.849 20.744,13.422 20.326,12.969 19.902,12.541 20.412,11.071 20.895,9.594 21.351,8.110 21.444,7.806 21.536,7.503 21.629,7.199 21.309,7.199 20.988,7.199 20.667,7.199 19.539,7.199 18.407,7.199 17.278,7.280 17.243,7.166 17.207,7.053 17.172,6.939 17.086,6.652 16.975,6.370 16.877,6.084 16.778,5.797 16.654,5.520 16.543,5.229 16.432,4.938 16.295,4.673 16.146,4.400 16.112,4.708 16.103,5.015 16.095,5.319 16.086,5.622 16.095,5.926 16.095,6.225 16.095,6.524 16.133,6.802 16.154,7.101 16.154,7.101 16.154,7.101 16.154,7.101 Z " />
  <path stroke="none" fill="#ffffffff" d="M 17.529,19.803 C 16.913,19.550 16.292,19.319 15.665,19.111 15.574,19.075 15.483,19.039 15.392,19.004 15.292,19.089 15.192,19.175 15.093,19.260 14.413,19.846 13.764,20.461 13.131,21.094 12.008,19.994 10.869,18.910 9.712,17.842 9.605,17.743 9.498,17.645 9.392,17.547 9.282,17.603 9.172,17.661 9.062,17.718 8.520,18.000 7.994,18.316 7.473,18.636 6.943,18.962 6.432,19.317 5.943,19.701 6.558,19.610 7.167,19.485 7.768,19.325 8.221,19.201 8.674,19.072 9.118,18.936 10.258,20.178 11.427,21.400 12.627,22.602 12.792,22.769 12.957,22.936 13.123,23.103 13.294,22.936 13.464,22.769 13.635,22.602 14.373,21.881 15.086,21.134 15.772,20.359 16.298,20.440 16.824,20.513 17.358,20.564 17.687,20.607 18.025,20.615 18.358,20.645 18.691,20.675 19.029,20.671 19.371,20.645 19.076,20.474 18.772,20.329 18.469,20.184 18.166,20.038 17.837,19.919 17.529,19.803 17.529,19.803 17.529,19.803 17.529,19.803 Z " />
</svg>