<?xml version="1.0" encoding="UTF-8" standalone="no"?>
<!DOCTYPE svg PUBLIC "-//W3C//DTD SVG 20010904//EN" "http://www.w3.org/TR/2001/REC-SVG-20010904/DTD/svg10.dtd"[]>
<svg version="1.1" id="Frosty Editor v1.0.6.3" xmlns="http://www.w3.org/2000/svg" d1p1:xlink="http://www.w3.org/1999/xlink" viewBox="0 0 96 96" xmlns:d1p1="xmlns">
  <path stroke="none" fill="#ffffffff" d="M 52.000,14.200 C 52.000,14.200 52.000,14.200 52.000,14.200 52.000,14.200 52.000,14.200 52.000,14.200 52.000,14.200 52.000,14.200 52.000,14.200 Z " />
  <path stroke="none" fill="#ffffffff" d="M 44.000,14.200 C 44.000,14.200 44.000,14.200 44.000,14.200 44.000,14.200 44.000,14.200 44.000,14.200 44.000,14.200 44.000,14.200 44.000,14.200 Z " />
  <path stroke="none" fill="#ffffffff" d="M 52.000,81.800 C 52.000,81.800 52.000,81.800 52.000,81.800 52.000,81.800 52.000,81.800 52.000,81.800 52.000,81.800 52.000,81.800 52.000,81.800 Z " />
  <path stroke="none" fill="#ffffffff" d="M 44.000,81.800 C 44.000,81.800 44.000,81.800 44.000,81.800 44.000,81.800 44.000,81.800 44.000,81.800 44.000,81.800 44.000,81.800 44.000,81.800 Z " />
  <path stroke="none" fill="#ffffffff" d="M 14.200,44.000 C 14.200,44.000 14.200,44.000 14.200,44.000 14.200,44.000 14.200,44.000 14.200,44.000 14.200,44.000 14.200,44.000 14.200,44.000 Z " />
  <path stroke="none" fill="#ffffffff" d="M 14.200,52.000 C 14.200,52.000 14.200,52.000 14.200,52.000 14.200,52.000 14.200,52.000 14.200,52.000 14.200,52.000 14.200,52.000 14.200,52.000 Z " />
  <path stroke="none" fill="#ffffffff" d="M 44.000,81.800 C 44.000,81.800 44.000,81.800 44.000,81.800 46.667,81.800 49.333,81.800 52.000,81.800 52.000,81.800 52.000,81.800 52.000,81.800 50.667,80.067 49.333,78.333 48.000,76.600 46.667,78.333 45.333,80.067 44.000,81.800 Z " />
  <path stroke="none" fill="#ffffffff" d="M 52.000,14.200 C 52.000,14.200 52.000,14.200 52.000,14.200 49.333,14.200 46.667,14.200 44.000,14.200 44.000,14.200 44.000,14.200 44.000,14.200 45.333,15.933 46.667,17.667 48.000,19.400 49.333,17.667 50.667,15.933 52.000,14.200 Z " />
  <path stroke="none" fill="#ffffffff" d="M 81.800,52.000 C 81.800,52.000 81.800,52.000 81.800,52.000 81.800,49.333 81.800,46.667 81.800,44.000 81.800,44.000 81.800,44.000 81.800,44.000 80.067,45.333 78.333,46.667 76.600,48.000 78.333,49.333 80.067,50.667 81.800,52.000 Z " />
  <path stroke="none" fill="#ffffffff" d="M 14.200,44.000 C 14.200,44.000 14.200,44.000 14.200,44.000 14.200,46.667 14.200,49.333 14.200,52.000 14.200,52.000 14.200,52.000 14.200,52.000 15.933,50.667 17.667,49.333 19.400,48.000 17.667,46.667 15.933,45.333 14.200,44.000 Z " />
  <path stroke="none" fill="none" d="M 52.500,20.600 C 60.167,28.233 67.833,35.867 75.500,43.500 76.167,42.967 76.833,42.433 77.500,41.900 69.700,34.100 61.900,26.300 54.100,18.500 53.567,19.200 53.033,19.900 52.500,20.600 Z " />
  <path stroke="none" fill="none" d="M 52.500,75.500 C 53.033,76.167 53.567,76.833 54.100,77.500 61.900,69.700 69.700,61.900 77.500,54.100 76.833,53.567 76.167,53.033 75.500,52.500 67.833,60.167 60.167,67.833 52.500,75.500 Z " />
  <path stroke="none" fill="none" d="M 20.600,52.500 C 19.900,53.033 19.200,53.567 18.500,54.100 26.300,61.900 34.100,69.700 41.900,77.500 42.433,76.833 42.967,76.167 43.500,75.500 35.867,67.833 28.233,60.167 20.600,52.500 Z " />
  <path stroke="none" fill="none" d="M 43.500,20.600 C 42.967,19.900 42.433,19.200 41.900,18.500 34.100,26.300 26.300,34.100 18.500,41.900 19.200,42.433 19.900,42.967 20.600,43.500 28.233,35.867 35.867,28.233 43.500,20.600 Z " />
  <path stroke="none" fill="#ffffffff" d="M 18.500,41.900 C 26.300,34.100 34.100,26.300 41.900,18.500 41.200,17.567 40.500,16.633 39.800,15.700 31.767,23.733 23.733,31.767 15.700,39.800 16.067,40.067 16.433,40.333 16.800,40.600 17.367,41.033 17.933,41.467 18.500,41.900 Z " />
  <path stroke="none" fill="#ffffffff" d="M 54.100,18.500 C 61.900,26.300 69.700,34.100 77.500,41.900 78.433,41.200 79.367,40.500 80.300,39.800 72.267,31.767 64.233,23.733 56.200,15.700 55.933,16.067 55.667,16.433 55.400,16.800 54.967,17.367 54.533,17.933 54.100,18.500 Z " />
  <path stroke="none" fill="#ffffffff" d="M 77.500,54.100 C 69.700,61.900 61.900,69.700 54.100,77.500 54.800,78.433 55.500,79.367 56.200,80.300 64.233,72.267 72.267,64.233 80.300,56.200 79.933,55.933 79.567,55.667 79.200,55.400 78.633,54.967 78.067,54.533 77.500,54.100 Z " />
  <path stroke="none" fill="#ffffffff" d="M 41.900,77.500 C 34.100,69.700 26.300,61.900 18.500,54.100 17.567,54.800 16.633,55.500 15.700,56.200 23.733,64.233 31.767,72.267 39.800,80.300 40.067,79.933 40.333,79.567 40.600,79.200 41.033,78.633 41.467,78.067 41.900,77.500 Z " />
  <path stroke="none" fill="#ffffffff" d="M 22.500,51.100 C 21.867,51.567 21.233,52.033 20.600,52.500 28.233,60.167 35.867,67.833 43.500,75.500 43.967,74.833 44.433,74.167 44.900,73.500 37.433,66.033 29.967,58.567 22.500,51.100 Z " />
  <path stroke="none" fill="#ffffffff" d="M 73.500,44.900 C 74.167,44.433 74.833,43.967 75.500,43.500 67.833,35.867 60.167,28.233 52.500,20.600 52.033,21.233 51.567,21.867 51.100,22.500 58.567,29.967 66.033,37.433 73.500,44.900 Z " />
  <path stroke="none" fill="#ffffffff" d="M 44.900,22.500 C 44.433,21.867 43.967,21.233 43.500,20.600 35.867,28.233 28.233,35.867 20.600,43.500 21.233,43.967 21.867,44.433 22.500,44.900 29.967,37.433 37.433,29.967 44.900,22.500 Z " />
  <path stroke="none" fill="#ffffffff" d="M 51.100,73.500 C 51.567,74.167 52.033,74.833 52.500,75.500 60.167,67.833 67.833,60.167 75.500,52.500 74.833,52.033 74.167,51.567 73.500,51.100 66.033,58.567 58.567,66.033 51.100,73.500 Z " />
  <path stroke="none" fill="#ffffffff" d="M 48.000,53.000 C 45.600,53.000 43.600,51.000 43.600,48.600 43.600,46.200 45.600,44.200 48.000,44.200 50.400,44.200 52.400,46.200 52.400,48.600 52.500,51.000 50.500,53.000 48.000,53.000 48.000,53.000 48.000,53.000 48.000,53.000 Z M 48.100,42.100 C 41.500,42.100 36.200,48.600 36.200,48.600 36.200,48.600 41.500,55.000 48.100,55.000 54.700,55.000 60.000,48.500 60.000,48.500 60.000,48.500 54.700,42.100 48.100,42.100 48.100,42.100 48.100,42.100 48.100,42.100 Z " />
</svg>