<?xml version="1.0" encoding="UTF-8" standalone="no"?>
<!DOCTYPE svg PUBLIC "-//W3C//DTD SVG 20010904//EN" "http://www.w3.org/TR/2001/REC-SVG-20010904/DTD/svg10.dtd"[]>
<svg version="1.1" id="Frosty Editor v1.0.6.3" xmlns="http://www.w3.org/2000/svg" d1p1:xlink="http://www.w3.org/1999/xlink" viewBox="0 0 96 96" xmlns:d1p1="xmlns">
  <path stroke="none" fill="#ffffffff" d="M 50.224,36.361 C 51.167,35.418 52.110,34.476 53.052,33.533 56.824,37.304 60.595,41.075 64.366,44.846 63.423,45.789 62.480,46.732 61.538,47.675 57.766,43.904 53.995,40.132 50.224,36.361 Z " />
  <path stroke="none" fill="#ffffffff" d="M 37.900,51.800 C 37.600,51.900 37.400,52.000 37.200,52.200 36.833,52.567 36.467,52.933 36.100,53.300 38.933,56.133 41.767,58.967 44.600,61.800 44.967,61.433 45.333,61.067 45.700,60.700 45.900,60.500 46.000,60.300 46.100,60.000 46.267,59.400 46.433,58.800 46.600,58.200 44.333,55.933 42.067,53.667 39.800,51.400 39.167,51.533 38.533,51.667 37.900,51.800 37.900,51.800 37.900,51.800 37.900,51.800 Z " />
  <path stroke="none" fill="#ffffffff" d="M 74.800,23.000 C 73.433,23.433 72.067,23.867 70.700,24.300 70.500,24.400 70.400,24.500 70.300,24.600 70.233,24.767 70.167,24.933 70.100,25.100 71.067,26.067 72.033,27.033 73.000,28.000 73.167,27.933 73.333,27.867 73.500,27.800 73.700,27.700 73.800,27.600 73.800,27.400 74.233,26.033 74.667,24.667 75.100,23.300 75.200,23.100 75.000,23.000 74.800,23.000 74.800,23.000 74.800,23.000 74.800,23.000 Z " />
  <path stroke="none" fill="#ffffffff" d="M 58.700,47.700 C 58.333,47.333 57.967,46.967 57.600,46.600 55.633,44.633 53.667,42.667 51.700,40.700 51.333,40.333 50.967,39.967 50.600,39.600 50.133,39.133 49.667,38.667 49.200,38.200 48.700,37.700 47.900,37.700 47.600,38.200 46.300,40.967 45.000,43.733 43.700,46.500 43.600,46.700 43.400,46.900 43.300,47.100 42.733,48.167 42.167,49.233 41.600,50.300 43.733,52.433 45.867,54.567 48.000,56.700 49.067,56.133 50.133,55.567 51.200,55.000 51.400,54.900 51.600,54.800 51.800,54.600 54.567,53.300 57.333,52.000 60.100,50.700 60.600,50.300 60.600,49.600 60.100,49.100 59.633,48.633 59.167,48.167 58.700,47.700 58.700,47.700 58.700,47.700 58.700,47.700 Z " />
  <path stroke="none" fill="#ffffffff" d="M 68.300,26.100 C 68.200,26.000 68.000,26.000 67.800,26.000 63.333,27.767 58.867,29.533 54.400,31.300 54.100,31.400 54.100,31.800 54.300,32.000 58.233,35.933 62.167,39.867 66.100,43.800 66.300,44.000 66.600,43.900 66.800,43.700 68.567,39.233 70.333,34.767 72.100,30.300 72.200,30.100 72.100,30.000 72.000,29.900 70.767,28.633 69.533,27.367 68.300,26.100 68.300,26.100 68.300,26.100 68.300,26.100 Z " />
  <path stroke="none" fill="#ffffffff" d="M 35.400,55.300 C 35.100,55.000 34.500,55.100 34.600,55.500 34.600,55.500 33.800,61.300 33.600,61.500 29.133,66.067 24.667,70.633 20.200,75.200 20.100,75.300 20.200,75.600 20.400,75.800 21.267,76.633 22.133,77.467 23.000,78.300 23.200,78.500 23.500,78.600 23.600,78.400 28.100,73.933 32.600,69.467 37.100,65.000 37.300,64.800 42.700,63.500 42.700,63.500 43.100,63.600 43.200,63.300 42.900,62.900 40.400,60.367 37.900,57.833 35.400,55.300 35.400,55.300 35.400,55.300 35.400,55.300 Z " />
</svg>