<?xml version="1.0" encoding="UTF-8" standalone="no"?>
<!DOCTYPE svg PUBLIC "-//W3C//DTD SVG 20010904//EN" "http://www.w3.org/TR/2001/REC-SVG-20010904/DTD/svg10.dtd"[]>
<svg version="1.1" id="Frosty Editor v1.0.6.3" xmlns="http://www.w3.org/2000/svg" d1p1:xlink="http://www.w3.org/1999/xlink" viewBox="0 0 25 25" xmlns:d1p1="xmlns">
  <path stroke="none" fill="#ffffffff" d="M 12.621,2.301 C 11.206,2.301 11.206,2.301 11.206,2.301 11.147,2.332 11.147,2.332 11.147,2.332 11.146,2.332 11.144,2.332 11.143,2.332 11.115,2.341 10.964,2.419 10.743,2.538 10.521,2.657 10.229,2.816 9.921,2.988 9.305,3.331 8.507,3.775 8.148,3.974 7.975,4.070 7.832,4.151 7.714,4.221 7.596,4.292 7.501,4.351 7.425,4.405 7.403,4.420 7.380,4.435 7.362,4.449 7.352,4.457 7.344,4.463 7.335,4.471 7.317,4.485 7.299,4.500 7.284,4.513 7.237,4.555 7.201,4.594 7.175,4.633 7.149,4.672 7.131,4.711 7.120,4.752 7.108,4.794 7.077,5.117 7.037,5.604 6.997,6.090 6.947,6.740 6.898,7.436 6.732,9.802 6.732,9.802 6.732,9.802 6.722,9.882 6.712,9.951 6.702,9.995 6.611,10.134 6.611,10.134 6.611,10.134 6.589,10.167 6.570,10.201 6.553,10.241 6.536,10.280 6.521,10.325 6.506,10.379 6.477,10.488 6.450,10.636 6.416,10.856 6.397,10.981 6.382,11.091 6.371,11.212 6.359,11.333 6.351,11.466 6.345,11.638 6.339,11.810 6.336,12.021 6.334,12.298 6.332,12.575 6.331,12.918 6.331,13.355 6.331,14.297 6.332,14.779 6.342,15.035 6.344,15.033 6.346,15.032 6.347,15.030 6.348,15.049 6.348,15.096 6.349,15.113 6.621,14.727 7.271,14.710 7.684,14.538 7.973,14.357 7.857,14.260 8.048,14.114 8.251,13.530 8.126,12.880 8.199,12.271 8.181,11.721 8.249,11.174 8.265,10.626 8.264,10.626 8.264,10.626 8.264,10.626 8.287,10.538 8.307,10.390 8.319,10.163 8.345,10.073 8.359,9.981 8.336,9.894 8.369,8.884 8.365,7.868 8.453,6.862 8.539,6.286 9.083,6.020 9.562,5.805 9.931,5.640 10.284,5.489 10.667,5.338 10.826,5.275 11.187,5.213 11.478,5.051 11.761,4.893 12.101,4.887 12.420,4.856 12.420,4.855 12.420,4.855 12.420,4.855 12.847,4.855 12.847,4.855 12.847,4.855 12.860,4.855 12.860,4.855 12.860,4.855 12.860,4.856 12.860,4.856 12.860,4.856 13.179,4.887 13.519,4.893 13.802,5.051 14.093,5.213 14.454,5.275 14.613,5.338 14.996,5.489 15.349,5.640 15.718,5.805 16.196,6.020 16.740,6.286 16.827,6.862 16.915,7.868 16.911,8.884 16.944,9.894 16.920,9.981 16.935,10.073 16.961,10.163 16.973,10.390 16.993,10.538 17.016,10.626 17.016,10.626 17.015,10.626 17.015,10.626 17.031,11.174 17.099,11.721 17.081,12.271 17.154,12.880 17.028,13.530 17.232,14.114 17.423,14.260 17.307,14.357 17.596,14.538 18.009,14.710 18.659,14.727 18.930,15.113 18.932,15.092 18.933,15.057 18.934,15.032 18.935,15.033 18.937,15.034 18.938,15.035 18.938,15.019 18.938,14.948 18.939,14.931 18.947,14.666 18.948,14.211 18.948,13.355 18.948,12.918 18.948,12.575 18.946,12.298 18.944,12.021 18.940,11.810 18.935,11.638 18.929,11.466 18.921,11.333 18.909,11.212 18.898,11.091 18.883,10.981 18.864,10.856 18.830,10.636 18.803,10.488 18.774,10.379 18.759,10.325 18.744,10.280 18.727,10.241 18.710,10.201 18.691,10.167 18.669,10.134 18.577,9.995 18.577,9.995 18.577,9.995 18.567,9.951 18.558,9.882 18.548,9.802 18.381,7.436 18.381,7.436 18.381,7.436 18.333,6.740 18.283,6.090 18.243,5.604 18.203,5.117 18.172,4.794 18.160,4.752 18.149,4.711 18.131,4.672 18.105,4.633 18.079,4.594 18.043,4.555 17.996,4.513 17.981,4.500 17.962,4.485 17.945,4.471 17.935,4.463 17.928,4.457 17.918,4.449 17.900,4.435 17.877,4.420 17.855,4.405 17.779,4.351 17.684,4.292 17.566,4.221 17.448,4.151 17.305,4.070 17.132,3.974 16.773,3.775 15.975,3.331 15.359,2.988 15.050,2.816 14.759,2.657 14.537,2.538 14.316,2.419 14.165,2.341 14.137,2.332 14.136,2.332 14.134,2.332 14.133,2.332 14.074,2.301 14.074,2.301 14.074,2.301 12.659,2.301 12.659,2.301 12.659,2.301 12.646,2.301 12.634,2.301 12.621,2.301 Z M 12.602,5.522 C 12.227,5.521 11.846,5.653 11.508,5.815 11.344,5.891 11.180,5.954 11.016,6.013 10.685,6.129 10.354,6.232 10.054,6.442 9.719,6.677 9.174,6.723 9.161,7.260 9.146,7.862 9.128,8.465 9.106,9.067 9.869,7.902 11.178,7.177 12.605,7.177 13.714,7.177 14.778,7.618 15.562,8.402 15.801,8.640 16.007,8.904 16.179,9.187 16.155,8.545 16.134,7.902 16.119,7.260 16.106,6.723 15.561,6.677 15.225,6.442 14.925,6.232 14.595,6.129 14.264,6.013 14.216,5.996 14.167,5.978 14.119,5.960 14.011,5.920 13.903,5.878 13.796,5.826 13.768,5.812 13.737,5.800 13.707,5.787 13.664,5.767 13.621,5.747 13.576,5.729 13.545,5.716 13.513,5.704 13.481,5.691 13.449,5.679 13.416,5.668 13.383,5.657 13.191,5.591 12.993,5.545 12.794,5.531 12.773,5.529 12.751,5.527 12.730,5.526 12.712,5.525 12.695,5.522 12.678,5.522 12.669,5.522 12.661,5.523 12.652,5.523 12.636,5.523 12.619,5.522 12.602,5.522 Z M 12.605,7.837 C 11.180,7.837 9.895,8.695 9.350,10.011 8.805,11.328 9.106,12.843 10.114,13.850 11.121,14.858 12.637,15.159 13.953,14.614 15.269,14.069 16.127,12.784 16.127,11.359 16.127,10.425 15.756,9.529 15.096,8.868 14.435,8.208 13.539,7.837 12.605,7.837 Z M 12.548,9.433 C 13.301,10.460 14.053,11.488 14.806,12.515 13.776,12.515 13.776,12.515 13.776,12.515 10.289,12.515 10.289,12.515 10.289,12.515 11.042,11.488 11.795,10.460 12.548,9.433 Z M 16.370,13.178 C 15.933,14.084 15.174,14.822 14.205,15.223 12.642,15.871 10.843,15.513 9.647,14.317 9.344,14.013 9.095,13.671 8.902,13.304 8.888,13.549 8.875,13.794 8.860,14.039 8.795,14.562 8.460,14.970 8.025,15.219 7.935,15.332 7.642,15.482 7.040,15.674 6.295,15.674 6.295,15.674 6.295,15.674 5.979,15.674 5.979,15.674 5.979,15.674 5.979,15.677 5.979,15.677 5.979,15.677 5.380,15.684 5.380,15.684 5.380,15.684 5.058,15.687 4.818,15.689 4.636,15.697 4.545,15.701 4.468,15.706 4.403,15.713 4.338,15.721 4.285,15.731 4.240,15.743 4.195,15.756 4.158,15.771 4.127,15.791 4.096,15.810 4.071,15.833 4.048,15.861 4.025,15.889 4.005,15.922 3.984,15.960 3.963,15.999 3.942,16.042 3.917,16.093 3.886,16.156 3.854,16.235 3.824,16.323 3.824,16.324 3.823,16.325 3.823,16.326 3.793,16.412 3.765,16.508 3.739,16.607 3.738,16.609 3.738,16.611 3.737,16.613 3.737,16.614 3.737,16.615 3.736,16.616 3.736,16.617 3.736,16.618 3.735,16.619 3.703,16.736 3.674,16.856 3.651,16.975 3.651,16.975 3.651,16.976 3.651,16.977 3.628,17.099 3.610,17.219 3.601,17.331 3.600,17.342 3.600,17.351 3.599,17.361 3.596,17.398 3.594,17.433 3.594,17.467 3.593,17.476 3.592,17.486 3.592,17.494 3.592,17.517 3.592,17.517 3.592,17.517 3.592,17.791 3.592,17.791 3.592,17.791 3.592,17.833 3.592,17.833 3.592,17.833 3.898,17.833 3.898,17.833 3.898,17.833 3.982,17.833 4.046,17.834 4.097,17.839 4.147,17.844 4.184,17.853 4.213,17.870 4.228,17.879 4.240,17.889 4.251,17.902 4.262,17.914 4.272,17.929 4.281,17.946 4.300,17.981 4.316,18.027 4.335,18.087 4.348,18.128 4.377,18.184 4.412,18.243 4.448,18.301 4.490,18.361 4.531,18.408 4.578,18.463 4.611,18.510 4.629,18.542 4.621,18.553 4.611,18.566 4.596,18.582 4.586,18.592 4.574,18.617 4.559,18.653 4.545,18.689 4.529,18.735 4.512,18.790 4.478,18.899 4.441,19.041 4.409,19.189 4.344,19.482 4.216,20.045 4.124,20.441 4.094,20.570 4.068,20.686 4.048,20.790 4.027,20.894 4.011,20.985 4.001,21.066 3.990,21.147 3.985,21.218 3.986,21.279 3.986,21.341 3.992,21.393 4.004,21.439 4.005,21.475 4.009,21.506 4.015,21.532 4.021,21.558 4.029,21.578 4.039,21.594 4.047,21.606 4.069,21.626 4.097,21.646 4.125,21.667 4.160,21.689 4.194,21.708 4.215,21.719 4.238,21.728 4.267,21.736 4.296,21.744 4.331,21.750 4.376,21.755 4.467,21.764 4.599,21.768 4.804,21.768 4.913,21.773 5.032,21.774 5.154,21.773 5.275,21.772 5.398,21.769 5.516,21.762 6.145,21.755 6.145,21.755 6.145,21.755 6.425,21.622 6.425,21.622 6.425,21.622 6.508,21.583 6.573,21.548 6.624,21.512 6.649,21.494 6.671,21.476 6.690,21.457 6.708,21.438 6.723,21.418 6.735,21.396 6.748,21.375 6.757,21.352 6.764,21.327 6.771,21.302 6.775,21.275 6.777,21.245 6.781,21.186 6.777,21.115 6.766,21.029 6.753,20.926 6.710,20.724 6.650,20.476 6.591,20.229 6.515,19.937 6.439,19.656 6.363,19.374 6.285,19.104 6.222,18.900 6.191,18.798 6.163,18.712 6.141,18.650 6.118,18.588 6.101,18.550 6.091,18.542 6.091,18.542 6.091,18.541 6.090,18.541 6.090,18.541 6.090,18.540 6.090,18.540 6.048,18.483 6.048,18.483 6.048,18.483 6.048,18.471 6.055,18.456 6.070,18.437 6.085,18.418 6.108,18.394 6.141,18.362 6.262,18.241 6.262,18.241 6.262,18.241 6.733,18.270 6.733,18.270 6.733,18.270 7.099,18.293 7.099,18.293 7.099,18.293 7.161,18.299 7.161,18.299 7.161,18.299 7.161,18.697 7.161,18.697 7.161,18.697 7.161,19.095 7.161,19.095 7.161,19.095 7.379,19.300 7.379,19.300 7.379,19.300 7.499,19.414 7.670,19.559 7.759,19.624 7.760,19.625 7.760,19.625 7.760,19.625 7.923,19.763 7.923,19.763 7.923,19.763 9.068,19.784 9.068,19.784 9.068,19.784 9.907,19.799 9.907,19.799 9.907,19.799 9.907,16.463 9.907,16.463 9.907,16.463 10.188,16.463 10.188,16.463 10.188,16.463 10.188,19.893 10.188,19.893 10.188,19.893 10.189,19.898 10.189,19.898 10.189,19.898 10.213,19.984 10.232,20.087 10.232,20.127 10.232,20.138 10.237,20.147 10.240,20.156 10.524,20.156 10.524,20.156 10.524,20.156 10.540,20.132 10.555,20.104 10.570,20.066 10.572,20.058 10.575,20.046 10.578,20.038 10.578,16.463 10.578,16.463 10.578,16.463 10.858,16.463 10.858,16.463 10.858,16.463 10.858,20.050 10.858,20.050 10.858,20.050 10.860,20.073 10.861,20.097 10.867,20.116 10.872,20.132 10.881,20.144 10.888,20.156 11.182,20.156 11.182,20.156 11.182,20.156 11.191,20.135 11.201,20.113 11.210,20.079 11.222,20.035 11.234,19.980 11.248,19.911 11.248,19.909 11.249,19.910 11.249,19.908 11.249,16.463 11.249,16.463 11.249,16.463 11.529,16.463 11.529,16.463 11.529,16.463 11.529,20.089 11.529,20.089 11.529,20.089 11.534,20.108 11.539,20.139 11.545,20.156 11.805,20.156 11.805,20.156 11.805,20.156 11.820,20.139 11.835,20.121 11.847,20.095 11.850,20.087 11.852,20.075 11.855,20.066 11.855,16.463 11.855,16.463 11.855,16.463 12.136,16.463 12.136,16.463 12.136,16.463 12.136,19.659 12.136,19.659 12.136,19.659 12.142,19.659 12.142,19.659 12.142,19.659 12.142,19.903 12.142,19.903 12.142,19.903 12.142,19.963 12.145,20.015 12.152,20.058 12.158,20.098 12.168,20.130 12.180,20.156 12.469,20.156 12.469,20.156 12.469,20.156 12.478,20.133 12.487,20.107 12.494,20.071 12.502,20.027 12.509,19.974 12.515,19.908 12.526,19.787 12.526,19.787 12.526,19.787 12.526,16.463 12.526,16.463 12.526,16.463 12.807,16.463 12.807,16.463 12.807,16.463 12.807,20.142 12.807,20.142 12.807,20.142 12.808,20.146 12.810,20.151 12.811,20.156 13.100,20.156 13.100,20.156 13.100,20.156 13.107,20.140 13.112,20.118 13.117,20.097 13.117,16.463 13.117,16.463 13.117,16.463 13.397,16.463 13.397,16.463 13.397,16.463 13.397,19.951 13.397,19.951 13.397,19.951 13.399,19.961 13.398,19.972 13.400,19.981 13.407,20.025 13.419,20.063 13.433,20.095 13.444,20.121 13.460,20.139 13.475,20.156 13.735,20.156 13.735,20.156 13.735,20.156 13.752,20.113 13.767,20.049 13.782,19.949 13.784,19.937 13.786,19.936 13.788,19.925 13.788,16.463 13.788,16.463 13.788,16.463 14.068,16.463 14.068,16.463 14.068,16.463 14.068,20.072 14.068,20.072 14.068,20.072 14.069,20.074 14.069,20.077 14.070,20.079 14.079,20.113 14.088,20.135 14.098,20.156 14.391,20.156 14.391,20.156 14.391,20.156 14.392,20.155 14.393,20.153 14.394,20.151 14.394,16.463 14.394,16.463 14.394,16.463 14.675,16.463 14.675,16.463 14.675,16.463 14.675,19.948 14.675,19.948 14.675,19.948 14.687,19.991 14.698,20.034 14.710,20.066 14.725,20.104 14.740,20.132 14.756,20.156 15.040,20.156 15.040,20.156 15.040,20.156 15.043,20.147 15.047,20.138 15.048,20.127 15.048,20.111 15.060,20.065 15.065,20.033 15.065,16.463 15.065,16.463 15.065,16.463 15.346,16.463 15.346,16.463 15.346,16.463 15.346,19.799 15.346,19.799 15.346,19.799 16.212,19.784 16.212,19.784 16.212,19.784 17.356,19.763 17.356,19.763 17.356,19.763 17.520,19.625 17.520,19.625 17.520,19.625 17.521,19.624 17.521,19.624 17.521,19.624 17.610,19.559 17.781,19.414 17.900,19.300 18.118,19.095 18.118,19.095 18.118,19.095 18.118,18.697 18.118,18.697 18.118,18.697 18.118,18.299 18.118,18.299 18.118,18.299 18.181,18.293 18.181,18.293 18.181,18.293 18.547,18.270 18.547,18.270 18.547,18.270 19.018,18.241 19.018,18.241 19.018,18.241 19.139,18.362 19.139,18.362 19.139,18.362 19.171,18.394 19.194,18.418 19.209,18.437 19.225,18.456 19.232,18.471 19.232,18.483 19.190,18.540 19.190,18.540 19.190,18.540 19.190,18.540 19.190,18.541 19.190,18.541 19.189,18.541 19.189,18.542 19.189,18.542 19.179,18.550 19.162,18.588 19.139,18.650 19.117,18.712 19.089,18.798 19.057,18.900 18.995,19.104 18.917,19.374 18.841,19.656 18.765,19.937 18.689,20.229 18.630,20.476 18.570,20.724 18.527,20.926 18.514,21.029 18.503,21.115 18.498,21.186 18.503,21.245 18.505,21.275 18.509,21.302 18.516,21.327 18.522,21.352 18.532,21.375 18.544,21.396 18.557,21.418 18.572,21.438 18.590,21.457 18.609,21.476 18.631,21.494 18.656,21.512 18.707,21.548 18.772,21.583 18.855,21.622 19.135,21.755 19.135,21.755 19.135,21.755 19.764,21.762 19.764,21.762 19.764,21.762 19.882,21.769 20.005,21.772 20.126,21.773 20.247,21.774 20.366,21.773 20.476,21.768 20.681,21.768 20.812,21.764 20.903,21.755 20.949,21.750 20.984,21.744 21.013,21.736 21.013,21.736 21.013,21.736 21.013,21.736 21.043,21.728 21.065,21.719 21.086,21.708 21.120,21.689 21.155,21.667 21.183,21.646 21.211,21.626 21.233,21.606 21.241,21.594 21.251,21.578 21.259,21.558 21.265,21.532 21.271,21.506 21.274,21.475 21.276,21.439 21.288,21.393 21.294,21.341 21.294,21.279 21.295,21.218 21.290,21.147 21.279,21.066 21.269,20.985 21.253,20.894 21.232,20.790 21.211,20.686 21.186,20.570 21.155,20.441 21.064,20.045 20.936,19.482 20.871,19.189 20.838,19.041 20.801,18.899 20.768,18.790 20.751,18.735 20.735,18.689 20.721,18.653 20.706,18.617 20.694,18.592 20.684,18.582 20.669,18.566 20.659,18.553 20.651,18.542 20.668,18.510 20.702,18.463 20.749,18.408 20.790,18.361 20.832,18.301 20.868,18.243 20.903,18.184 20.932,18.128 20.945,18.087 20.964,18.027 20.980,17.981 20.999,17.946 21.008,17.929 21.018,17.914 21.029,17.902 21.040,17.889 21.052,17.879 21.067,17.870 21.096,17.853 21.133,17.844 21.183,17.839 21.234,17.834 21.298,17.833 21.382,17.833 21.688,17.833 21.688,17.833 21.688,17.833 21.688,17.791 21.688,17.791 21.688,17.791 21.688,17.517 21.688,17.517 21.688,17.517 21.688,17.494 21.688,17.494 21.688,17.494 21.688,17.486 21.686,17.476 21.686,17.467 21.685,17.433 21.684,17.398 21.681,17.361 21.680,17.351 21.680,17.342 21.679,17.331 21.670,17.221 21.653,17.103 21.630,16.984 21.630,16.983 21.630,16.982 21.629,16.980 21.629,16.979 21.629,16.978 21.629,16.977 21.606,16.858 21.578,16.737 21.545,16.621 21.545,16.620 21.544,16.619 21.544,16.619 21.544,16.617 21.543,16.615 21.543,16.613 21.517,16.514 21.488,16.419 21.459,16.333 21.458,16.330 21.457,16.327 21.456,16.324 21.456,16.324 21.456,16.324 21.456,16.323 21.425,16.235 21.394,16.156 21.363,16.093 21.338,16.042 21.317,15.999 21.296,15.960 21.275,15.922 21.255,15.889 21.232,15.861 21.209,15.833 21.184,15.810 21.153,15.791 21.122,15.771 21.085,15.756 21.040,15.743 20.995,15.731 20.941,15.721 20.876,15.713 20.811,15.706 20.735,15.701 20.644,15.697 20.462,15.689 20.222,15.687 19.900,15.684 19.301,15.677 19.301,15.677 19.301,15.677 19.301,15.674 19.301,15.674 19.301,15.674 18.985,15.674 18.985,15.674 18.985,15.674 18.239,15.674 18.239,15.674 18.239,15.674 17.638,15.482 17.345,15.332 17.255,15.219 16.819,14.970 16.485,14.562 16.420,14.039 16.402,13.752 16.387,13.465 16.370,13.178 Z " />
</svg>