<?xml version="1.0" encoding="UTF-8" standalone="no"?>
<!DOCTYPE svg PUBLIC "-//W3C//DTD SVG 20010904//EN" "http://www.w3.org/TR/2001/REC-SVG-20010904/DTD/svg10.dtd"[]>
<svg version="1.1" id="Frosty Editor v1.0.6.3" xmlns="http://www.w3.org/2000/svg" d1p1:xlink="http://www.w3.org/1999/xlink" viewBox="0 0 25 25" xmlns:d1p1="xmlns">
  <path stroke="none" fill="none" d="M 8.852,10.660 C 8.707,10.660 8.563,10.660 8.418,10.660 8.371,10.703 8.329,10.751 8.291,10.803 8.120,11.001 8.120,11.295 8.291,11.493 8.410,11.589 8.544,11.665 8.688,11.716 8.688,11.728 8.688,11.740 8.688,11.753 8.492,11.738 8.301,11.691 8.121,11.612 7.956,11.505 7.856,11.321 7.857,11.123 7.860,10.996 7.897,10.872 7.963,10.763 7.983,10.728 8.005,10.695 8.029,10.663 7.994,10.663 7.960,10.663 7.926,10.663 7.599,10.684 7.344,10.955 7.344,11.283 7.344,11.611 7.599,11.882 7.926,11.903 8.234,11.903 8.543,11.903 8.852,11.903 9.179,11.882 9.433,11.611 9.433,11.283 9.433,10.955 9.179,10.684 8.852,10.663 8.852,10.662 8.852,10.661 8.852,10.660 Z " />
  <path stroke="none" fill="none" d="M 9.717,9.824 C 9.562,9.824 9.436,9.698 9.436,9.543 9.436,9.389 9.562,9.263 9.717,9.263 9.872,9.263 9.997,9.389 9.997,9.543 9.998,9.618 9.969,9.690 9.916,9.743 9.863,9.797 9.792,9.826 9.717,9.826 9.717,9.826 9.717,9.825 9.717,9.824 Z M 9.717,8.990 C 9.493,8.990 9.292,9.125 9.206,9.332 9.121,9.538 9.168,9.776 9.326,9.934 9.484,10.093 9.722,10.140 9.929,10.054 10.135,9.969 10.270,9.767 10.270,9.543 10.270,9.397 10.212,9.256 10.108,9.152 10.004,9.049 9.863,8.990 9.717,8.990 9.717,8.990 9.717,8.990 9.717,8.990 Z " />
  <path stroke="none" fill="#ffffffff" d="M 9.717,10.094 C 9.493,10.094 9.292,9.959 9.206,9.752 9.121,9.546 9.168,9.308 9.326,9.150 9.484,8.991 9.722,8.944 9.929,9.030 10.135,9.116 10.270,9.317 10.270,9.541 10.270,9.846 10.022,10.094 9.717,10.094 9.717,10.094 9.717,10.094 9.717,10.094 Z M 8.852,11.901 C 8.543,11.901 8.234,11.901 7.926,11.901 7.599,11.879 7.344,11.608 7.344,11.280 7.344,10.953 7.599,10.681 7.926,10.660 7.954,10.660 7.982,10.660 8.010,10.660 7.986,10.692 7.964,10.726 7.944,10.760 7.878,10.869 7.842,10.993 7.838,11.120 7.837,11.318 7.937,11.502 8.103,11.610 8.278,11.688 8.465,11.736 8.656,11.753 8.656,11.740 8.656,11.728 8.656,11.716 8.512,11.665 8.378,11.589 8.259,11.493 8.088,11.295 8.088,11.001 8.259,10.803 8.297,10.751 8.339,10.703 8.386,10.660 8.541,10.660 8.696,10.660 8.852,10.660 9.179,10.681 9.433,10.953 9.433,11.280 9.433,11.608 9.179,11.879 8.852,11.901 8.852,11.901 8.852,11.901 8.852,11.901 Z M 14.503,8.316 C 13.180,8.316 11.857,8.316 10.534,8.316 10.534,8.162 10.534,8.009 10.534,7.855 9.300,7.855 8.065,7.855 6.830,7.855 6.752,7.943 6.673,8.032 6.595,8.120 6.595,8.153 6.595,8.187 6.595,8.220 6.322,8.220 6.048,8.220 5.775,8.220 5.761,8.236 5.748,8.250 5.735,8.265 5.735,8.315 5.735,8.364 5.735,8.414 5.735,8.414 5.584,8.459 5.499,8.496 5.375,8.614 5.283,8.764 5.235,8.930 5.088,9.183 4.926,9.428 4.751,9.662 4.632,9.848 4.190,10.252 4.121,10.353 4.052,10.454 3.483,11.173 3.237,11.514 3.013,11.901 2.842,12.317 2.732,12.750 2.660,12.991 2.322,14.224 2.274,14.473 2.227,14.721 2.322,14.787 2.369,14.787 2.417,14.787 3.277,15.052 3.277,15.052 3.806,15.052 4.335,15.052 4.864,15.052 4.913,15.034 4.955,15.001 4.984,14.957 5.034,14.878 5.060,14.786 5.058,14.692 5.058,14.594 4.994,14.488 4.989,14.428 4.993,13.951 5.042,13.476 5.137,13.009 5.229,12.505 5.408,12.021 5.666,11.578 5.807,11.358 6.041,11.215 6.301,11.192 6.568,11.172 6.829,11.279 7.005,11.480 7.149,11.646 7.279,11.823 7.394,12.009 7.519,12.144 7.694,12.222 7.878,12.224 8.247,12.224 8.615,12.224 8.984,12.224 9.144,12.187 9.290,12.108 9.410,11.996 9.539,11.838 9.640,11.659 9.709,11.467 9.767,11.300 9.873,11.258 10.034,11.099 10.193,10.979 10.373,10.890 10.564,10.835 10.564,10.670 10.564,10.506 10.564,10.342 11.877,10.342 13.190,10.342 14.503,10.342 14.503,9.667 14.503,8.991 14.503,8.316 Z " />
  <path stroke="none" fill="#ffffffff" d="M 9.997,9.543 C 9.997,9.698 9.872,9.824 9.717,9.824 9.562,9.824 9.436,9.698 9.436,9.543 9.436,9.389 9.562,9.263 9.717,9.263 9.872,9.263 9.997,9.389 9.997,9.543 9.997,9.543 9.997,9.543 9.997,9.543 Z " />
  <path stroke="none" fill="#ffffffff" d="M 14.829,7.892 C 16.441,7.892 18.053,7.892 19.665,7.892 19.665,8.864 19.665,9.836 19.665,10.808 18.053,10.808 16.441,10.808 14.829,10.808 14.829,9.836 14.829,8.864 14.829,7.892 Z " />
  <path stroke="none" fill="#ffffffff" d="M 19.919,8.686 C 20.388,8.686 20.858,8.686 21.327,8.686 21.327,9.176 21.327,9.667 21.327,10.157 20.858,10.157 20.388,10.157 19.919,10.157 19.919,9.667 19.919,9.176 19.919,8.686 Z " />
  <path stroke="none" fill="#ffffffff" d="M 21.602,8.445 C 22.155,8.445 22.708,8.445 23.261,8.445 23.261,9.082 23.261,9.719 23.261,10.356 22.708,10.356 22.155,10.356 21.602,10.356 21.602,9.719 21.602,9.082 21.602,8.445 Z " />
  <path stroke="none" fill="#ffffffff" d="M 10.870,7.863 C 11.933,7.863 12.996,7.863 14.059,7.863 14.059,7.943 14.059,8.022 14.059,8.101 12.996,8.101 11.933,8.101 10.870,8.101 10.870,8.022 10.870,7.943 10.870,7.863 Z " />
  <path stroke="none" fill="#ffffffff" d="M 10.870,10.549 C 11.933,10.549 12.996,10.549 14.059,10.549 14.059,10.628 14.059,10.708 14.059,10.787 12.996,10.787 11.933,10.787 10.870,10.787 10.870,10.708 10.870,10.628 10.870,10.549 Z " />
  <path stroke="none" fill="#ffffffff" d="M 16.097,11.936 C Z M 13.518,13.164 C 15.591,13.164 15.591,13.164 15.591,13.164 15.591,16.814 15.591,16.814 15.591,16.814 13.518,16.814 13.518,16.814 13.518,16.814 Z M 16.555,13.164 C 18.628,13.164 18.628,13.164 18.628,13.164 18.628,16.814 18.628,16.814 18.628,16.814 16.555,16.814 16.555,16.814 16.555,16.814 Z M 13.217,17.118 C 15.891,17.118 15.891,17.118 15.891,17.118 15.891,18.333 15.891,18.333 15.891,18.333 13.217,18.333 13.217,18.333 13.217,18.333 Z M 16.254,17.118 C 18.928,17.118 18.928,17.118 18.928,17.118 18.928,18.333 18.928,18.333 18.928,18.333 16.254,18.333 16.254,18.333 16.254,18.333 Z " />
</svg>