<?xml version="1.0" encoding="UTF-8" standalone="no"?>
<!DOCTYPE svg PUBLIC "-//W3C//DTD SVG 20010904//EN" "http://www.w3.org/TR/2001/REC-SVG-20010904/DTD/svg10.dtd"[]>
<svg version="1.1" id="Frosty Editor v1.0.6.3" xmlns="http://www.w3.org/2000/svg" d1p1:xlink="http://www.w3.org/1999/xlink" viewBox="0 0 384 96" xmlns:d1p1="xmlns">
  <path stroke="none" fill="#ffffffff" d="M 161.120,39.540 C 161.120,40.667 160.207,41.580 159.080,41.580 157.953,41.580 157.040,40.667 157.040,39.540 157.040,38.413 157.953,37.500 159.080,37.500 160.207,37.500 161.120,38.413 161.120,39.540 161.120,39.540 161.120,39.540 161.120,39.540 Z " />
  <path stroke="none" fill="#ffffffff" d="M 275.270,32.750 C 267.603,32.750 259.937,32.750 252.270,32.750 252.270,28.710 252.270,24.670 252.270,20.630 259.937,20.630 267.603,20.630 275.270,20.630 275.270,24.670 275.270,28.710 275.270,32.750 Z M 249.000,31.600 C 249.000,28.327 249.000,25.053 249.000,21.780 249.743,21.447 250.487,21.113 251.230,20.780 251.230,24.713 251.230,28.647 251.230,32.580 250.487,32.253 249.743,31.927 249.000,31.600 Z M 239.750,30.120 C 239.750,27.830 239.750,25.540 239.750,23.250 242.167,23.250 244.583,23.250 247.000,23.250 247.000,25.540 247.000,27.830 247.000,30.120 244.583,30.120 242.167,30.120 239.750,30.120 Z M 230.750,35.000 C 202.237,35.000 173.723,35.000 145.210,35.000 146.290,33.813 147.370,32.627 148.450,31.440 148.450,30.210 148.450,28.980 148.450,27.750 155.417,27.750 162.383,27.750 169.350,27.750 170.207,29.139 171.718,29.989 173.350,30.000 177.823,30.000 182.297,30.000 186.770,30.000 188.402,29.989 189.913,29.139 190.770,27.750 206.417,27.750 222.063,27.750 237.710,27.750 237.710,28.337 237.710,28.923 237.710,29.510 235.390,31.340 233.070,33.170 230.750,35.000 Z M 219.000,38.920 C 219.000,38.920 219.000,38.920 219.000,38.920 209.213,38.920 199.427,38.920 189.640,38.920 188.740,39.993 187.840,41.067 186.940,42.140 180.710,42.140 174.480,42.140 168.250,42.140 167.590,42.140 151.480,42.230 147.890,53.320 146.593,53.727 145.297,54.133 144.000,54.540 141.917,54.856 139.790,54.420 138.000,53.310 135.170,51.610 133.000,48.440 131.580,43.880 131.331,42.386 130.898,40.928 130.290,39.540 130.290,38.360 130.290,37.180 130.290,36.000 132.527,36.000 134.763,36.000 137.000,36.000 137.023,36.027 137.047,36.053 137.070,36.080 137.623,36.842 138.490,37.316 139.430,37.370 139.463,37.370 139.497,37.370 139.530,37.370 140.445,37.250 141.267,36.753 141.800,36.000 141.800,36.000 141.800,36.000 141.800,36.000 170.910,36.000 200.020,36.000 229.130,36.000 226.420,37.697 223.710,39.393 221.000,41.090 220.333,40.367 219.667,39.643 219.000,38.920 Z M 189.350,51.750 C 189.350,48.083 189.350,44.417 189.350,40.750 189.593,40.460 189.837,40.170 190.080,39.880 199.270,39.880 208.460,39.880 217.650,39.880 209.897,45.720 202.143,51.560 194.390,57.400 192.710,55.517 191.030,53.633 189.350,51.750 Z M 187.000,43.360 C 187.000,43.360 187.000,43.360 187.000,43.360 187.000,43.343 187.000,43.327 187.000,43.310 187.000,43.327 187.000,43.343 187.000,43.360 Z M 182.450,48.720 C 182.403,48.790 182.357,48.860 182.310,48.930 181.491,50.513 180.530,52.019 179.440,53.430 179.623,51.192 179.586,48.941 179.330,46.710 179.330,46.597 179.330,46.483 179.330,46.370 178.580,45.620 177.830,44.870 177.080,44.120 180.177,44.120 183.273,44.120 186.370,44.120 185.063,45.653 183.757,47.187 182.450,48.720 Z M 160.510,60.620 C 160.000,60.110 158.900,59.060 157.440,57.880 156.520,55.880 156.260,51.960 156.230,50.300 156.943,48.867 157.657,47.433 158.370,46.000 159.513,45.588 160.682,45.254 161.870,45.000 162.093,45.270 162.317,45.540 162.540,45.810 161.957,47.420 161.373,49.030 160.790,50.640 161.013,52.557 161.237,54.473 161.460,56.390 162.933,57.390 164.407,58.390 165.880,59.390 166.073,59.057 166.267,58.723 166.460,58.390 165.433,57.260 164.407,56.130 163.380,55.000 163.380,53.277 163.380,51.553 163.380,49.830 165.239,48.228 166.785,46.295 167.940,44.130 170.047,44.130 172.153,44.130 174.260,44.130 175.317,45.187 176.373,46.243 177.430,47.300 177.650,49.440 177.860,54.300 176.720,56.540 174.290,58.830 171.170,60.720 167.510,60.630 165.177,60.627 162.843,60.623 160.510,60.620 Z M 154.230,50.080 C 154.258,52.042 154.449,53.999 154.800,55.930 153.314,54.902 151.700,54.072 150.000,53.460 151.059,50.818 153.022,48.638 155.540,47.310 155.127,48.157 154.713,49.003 154.300,49.850 154.277,49.927 154.253,50.003 154.230,50.080 Z M 130.290,70.660 C 127.290,72.660 125.560,76.450 125.690,81.020 125.718,81.784 125.795,82.546 125.920,83.300 123.520,77.070 123.510,69.630 123.510,66.240 123.510,62.850 120.700,58.530 119.180,56.500 121.800,56.170 127.670,54.980 130.340,50.700 131.050,49.581 131.498,48.316 131.650,47.000 132.783,49.942 134.807,52.456 137.440,54.190 139.016,55.150 140.825,55.662 142.670,55.670 142.780,55.670 142.890,55.670 143.000,55.670 141.500,58.100 135.800,67.000 130.320,70.670 130.310,70.667 130.300,70.663 130.290,70.660 Z M 128.290,92.860 C 119.404,88.384 111.204,82.659 103.940,75.860 106.060,72.860 114.470,60.860 118.160,56.780 119.530,58.560 122.540,62.870 122.540,66.240 122.540,70.720 122.540,82.170 127.970,88.980 128.415,89.724 128.968,90.398 129.610,90.980 129.170,91.607 128.730,92.233 128.290,92.860 Z M 108.560,85.000 C 107.463,84.140 106.367,83.280 105.270,82.420 105.583,81.807 105.897,81.193 106.210,80.580 107.510,81.680 108.800,82.730 110.050,83.700 109.553,84.133 109.057,84.567 108.560,85.000 Z M 126.870,28.840 C 126.120,27.083 126.120,25.097 126.870,23.340 128.360,23.340 129.850,23.340 131.340,23.340 130.180,25.000 129.348,26.867 128.890,28.840 128.217,28.840 127.543,28.840 126.870,28.840 Z M 130.140,20.240 C 131.000,20.240 131.860,20.240 132.720,20.240 132.720,20.607 132.720,20.973 132.720,21.340 131.860,21.340 131.000,21.340 130.140,21.340 130.140,20.973 130.140,20.607 130.140,20.240 Z M 132.720,16.520 C 132.720,17.093 132.720,17.667 132.720,18.240 131.860,18.240 131.000,18.240 130.140,18.240 130.140,17.663 130.140,17.087 130.140,16.510 131.000,16.513 131.860,16.517 132.720,16.520 Z M 189.110,21.130 C 204.777,21.130 220.443,21.130 236.110,21.130 236.673,21.357 237.237,21.583 237.800,21.810 237.800,23.460 237.800,25.110 237.800,26.760 222.293,26.760 206.787,26.760 191.280,26.760 192.041,24.608 191.120,22.222 189.110,21.140 189.110,21.137 189.110,21.133 189.110,21.130 Z M 173.380,21.500 C 177.853,21.500 182.327,21.500 186.800,21.500 188.140,21.500 189.378,22.215 190.048,23.375 190.718,24.535 190.718,25.965 190.048,27.125 189.378,28.285 188.140,29.000 186.800,29.000 182.327,29.000 177.853,29.000 173.380,29.000 172.040,29.000 170.802,28.285 170.132,27.125 169.463,25.965 169.463,24.535 170.132,23.375 170.802,22.215 172.040,21.500 173.380,21.500 173.380,21.500 173.380,21.500 173.380,21.500 Z M 137.940,28.090 C 137.940,28.090 137.940,28.090 137.940,28.090 137.940,27.990 137.940,27.900 137.940,27.800 137.912,26.206 139.136,24.868 140.727,24.755 142.317,24.642 143.719,25.793 143.916,27.375 144.114,28.957 143.040,30.418 141.470,30.700 141.282,30.735 141.091,30.752 140.900,30.750 140.900,30.917 140.900,31.083 140.900,31.250 140.900,31.250 140.900,31.250 140.900,31.250 140.900,32.690 140.900,34.130 140.900,35.570 140.544,36.004 140.037,36.287 139.480,36.360 138.874,36.332 138.311,36.039 137.940,35.560 137.940,33.070 137.940,30.580 137.940,28.090 Z M 133.540,35.000 C 133.540,33.967 133.540,32.933 133.540,31.900 133.960,28.670 136.070,27.950 136.940,27.800 136.940,30.200 136.940,32.600 136.940,35.000 135.807,35.000 134.673,35.000 133.540,35.000 Z M 168.880,23.790 C 165.630,23.790 162.380,23.790 159.130,23.790 159.627,24.417 160.123,25.043 160.620,25.670 160.260,26.030 159.900,26.390 159.540,26.750 155.513,26.750 151.487,26.750 147.460,26.750 147.460,28.187 147.460,29.623 147.460,31.060 146.260,32.373 145.060,33.687 143.860,35.000 143.193,35.000 142.527,35.000 141.860,35.000 141.860,33.870 141.860,32.740 141.860,31.610 143.778,31.164 145.086,29.390 144.944,27.426 144.803,25.463 143.254,23.894 141.292,23.728 139.330,23.562 137.539,24.848 137.070,26.760 136.300,26.850 133.070,27.470 132.500,31.830 132.500,32.887 132.500,33.943 132.500,35.000 131.737,35.000 130.973,35.000 130.210,35.000 130.210,34.700 130.210,34.400 130.210,34.100 130.210,33.980 129.960,22.180 138.520,21.100 149.357,21.100 160.193,21.100 171.030,21.100 170.001,21.695 169.234,22.656 168.880,23.790 168.880,23.790 168.880,23.790 168.880,23.790 Z M 161.200,24.790 C 163.690,24.790 166.180,24.790 168.670,24.790 168.670,24.940 168.670,25.090 168.670,25.250 168.678,25.761 168.769,26.268 168.940,26.750 166.293,26.750 163.647,26.750 161.000,26.750 161.333,26.417 161.667,26.083 162.000,25.750 161.733,25.430 161.467,25.110 161.200,24.790 Z M 158.200,14.210 C 159.510,14.960 160.820,15.710 162.130,16.460 189.420,16.460 216.710,16.460 244.000,16.460 243.971,16.629 243.954,16.799 243.950,16.970 243.956,18.783 245.361,20.284 247.170,20.410 247.120,20.433 247.070,20.457 247.020,20.480 247.020,20.740 247.020,21.000 247.020,21.260 244.610,21.260 242.200,21.260 239.790,21.260 239.790,20.993 239.790,20.727 239.790,20.460 238.687,20.020 237.583,19.580 236.480,19.140 203.780,19.140 171.080,19.140 138.380,19.140 137.091,19.283 135.841,19.674 134.700,20.290 134.700,18.263 134.700,16.237 134.700,14.210 142.533,14.210 150.367,14.210 158.200,14.210 Z M 148.340,6.080 C 152.297,6.080 156.253,6.080 160.210,6.080 162.077,6.910 163.943,7.740 165.810,8.570 167.810,8.570 169.810,8.570 171.810,8.570 171.810,10.530 171.810,12.490 171.810,14.450 168.743,14.450 165.677,14.450 162.610,14.450 161.300,13.700 159.990,12.950 158.680,12.200 155.240,12.200 151.800,12.200 148.360,12.200 148.353,10.160 148.347,8.120 148.340,6.080 Z M 176.630,6.220 C 176.887,6.180 177.143,6.140 177.400,6.100 177.400,6.067 177.400,6.033 177.400,6.000 180.117,5.575 182.888,5.643 185.580,6.200 185.580,6.200 185.580,6.200 185.580,6.200 186.710,6.370 187.660,6.570 188.260,6.710 188.260,9.297 188.260,11.883 188.260,14.470 183.467,14.470 178.673,14.470 173.880,14.470 173.880,11.887 173.880,9.303 173.880,6.720 174.510,6.590 175.500,6.390 176.640,6.220 176.637,6.220 176.633,6.220 176.630,6.220 Z M 181.070,2.410 C 182.685,2.421 184.111,3.465 184.610,5.000 182.290,4.647 179.930,4.647 177.610,5.000 178.099,3.487 179.490,2.448 181.080,2.410 181.077,2.410 181.073,2.410 181.070,2.410 Z M 196.070,8.580 C 197.937,7.750 199.803,6.920 201.670,6.090 205.627,6.090 209.583,6.090 213.540,6.090 213.540,8.883 213.540,11.677 213.540,14.470 205.790,14.470 198.040,14.470 190.290,14.470 190.290,12.507 190.290,10.543 190.290,8.580 192.217,8.580 194.143,8.580 196.070,8.580 Z M 247.370,15.510 C 248.172,15.510 248.824,16.158 248.830,16.960 248.835,17.763 248.192,18.419 247.390,18.430 246.587,18.441 245.927,17.802 245.910,17.000 245.902,16.606 246.054,16.225 246.330,15.945 246.607,15.664 246.986,15.507 247.380,15.510 247.377,15.510 247.373,15.510 247.370,15.510 Z M 251.160,18.630 C 250.797,18.790 250.433,18.950 250.070,19.110 250.559,18.504 250.827,17.749 250.830,16.970 250.835,15.587 250.014,14.335 248.744,13.789 247.474,13.242 246.001,13.506 245.000,14.460 235.180,14.460 225.360,14.460 215.540,14.460 215.540,11.000 215.540,7.540 215.540,4.080 210.773,4.080 206.007,4.080 201.240,4.080 199.373,4.910 197.507,5.740 195.640,6.570 193.857,6.570 192.073,6.570 190.290,6.570 190.290,6.100 190.290,5.630 190.290,5.160 190.047,5.107 189.803,5.053 189.560,5.000 188.548,4.732 187.524,4.515 186.490,4.350 185.705,2.017 183.513,0.450 181.052,0.461 178.591,0.473 176.414,2.060 175.650,4.400 173.930,4.680 172.650,4.980 172.650,4.990 172.393,5.050 172.137,5.110 171.880,5.170 171.880,5.640 171.880,6.110 171.880,6.580 170.007,6.580 168.133,6.580 166.260,6.580 164.393,5.750 162.527,4.920 160.660,4.090 155.893,4.090 151.127,4.090 146.360,4.090 146.360,6.800 146.360,9.510 146.360,12.220 141.810,12.220 137.260,12.220 132.710,12.220 132.710,12.987 132.710,13.753 132.710,14.520 131.850,14.520 130.990,14.520 130.130,14.520 130.130,13.853 130.130,13.187 130.130,12.520 129.463,12.520 128.797,12.520 128.130,12.520 128.130,15.463 128.130,18.407 128.130,21.350 127.310,21.350 126.490,21.350 125.670,21.350 125.573,21.503 125.477,21.657 125.380,21.810 123.926,24.444 123.904,27.635 125.320,30.290 125.410,30.477 125.500,30.663 125.590,30.850 126.547,30.850 127.503,30.850 128.460,30.850 128.298,31.939 128.228,33.039 128.250,34.140 128.250,36.093 128.250,38.047 128.250,40.000 128.277,40.063 128.303,40.127 128.330,40.190 130.040,44.100 130.160,47.290 128.670,49.680 125.810,54.270 117.900,54.680 117.820,54.680 117.687,54.680 117.553,54.680 117.420,54.680 117.327,54.777 117.233,54.873 117.140,54.970 113.140,59.110 102.250,74.810 101.790,75.470 101.627,75.703 101.463,75.937 101.300,76.170 101.507,76.367 101.713,76.563 101.920,76.760 102.833,77.627 103.743,78.460 104.650,79.260 104.017,80.507 103.383,81.753 102.750,83.000 104.710,84.540 106.670,86.080 108.630,87.620 109.653,86.733 110.677,85.847 111.700,84.960 116.859,88.848 122.393,92.211 128.220,95.000 128.470,95.110 128.720,95.220 128.970,95.330 130.127,93.683 131.283,92.037 132.440,90.390 132.127,90.207 131.813,90.023 131.500,89.840 129.500,88.650 127.830,84.840 127.720,80.930 127.610,77.020 128.960,73.930 131.420,72.290 137.600,68.210 143.720,58.290 144.910,56.290 146.157,55.897 147.403,55.503 148.650,55.110 153.720,56.410 159.340,62.210 159.390,62.270 159.490,62.373 159.590,62.477 159.690,62.580 162.280,62.580 164.870,62.580 167.460,62.580 171.830,62.680 175.460,60.480 178.190,57.880 178.190,57.880 178.190,57.880 178.190,57.880 178.190,57.860 178.190,57.840 178.190,57.820 180.554,55.484 182.526,52.783 184.030,49.820 185.147,48.547 186.263,47.273 187.380,46.000 187.380,48.167 187.380,50.333 187.380,52.500 189.627,55.033 191.873,57.567 194.120,60.100 202.337,53.927 210.553,47.753 218.770,41.580 219.437,42.270 220.103,42.960 220.770,43.650 224.460,41.337 228.150,39.023 231.840,36.710 233.800,35.177 235.760,33.643 237.720,32.110 240.813,32.110 243.907,32.110 247.000,32.110 247.000,32.370 247.000,32.630 247.000,32.890 248.393,33.507 249.787,34.123 251.180,34.740 259.877,34.740 268.573,34.740 277.270,34.740 277.270,29.370 277.270,24.000 277.270,18.630 268.567,18.630 259.863,18.630 251.160,18.630 Z " />
</svg>