<?xml version="1.0" encoding="UTF-8" standalone="no"?>
<!DOCTYPE svg PUBLIC "-//W3C//DTD SVG 20010904//EN" "http://www.w3.org/TR/2001/REC-SVG-20010904/DTD/svg10.dtd"[]>
<svg version="1.1" id="Frosty Editor v1.0.6.3" xmlns="http://www.w3.org/2000/svg" d1p1:xlink="http://www.w3.org/1999/xlink" viewBox="0 0 25 25" xmlns:d1p1="xmlns">
  <path stroke="none" fill="#ffffffff" d="M 10.976,2.787 C 10.906,2.794 10.849,2.907 10.821,3.107 10.806,3.223 10.773,3.464 10.749,3.644 10.722,3.844 10.682,3.998 10.646,4.039 10.565,4.130 10.407,4.208 10.305,4.209 10.173,4.209 9.936,4.304 9.750,4.429 9.609,4.524 9.565,4.538 9.497,4.507 9.430,4.476 9.387,4.489 9.258,4.576 9.172,4.634 9.074,4.681 9.041,4.681 8.966,4.681 8.359,4.924 8.259,4.994 8.219,5.022 8.155,5.045 8.117,5.045 8.040,5.045 7.473,5.582 7.364,5.757 7.288,5.880 7.157,5.954 7.016,5.954 6.919,5.954 6.834,6.032 6.584,6.350 6.491,6.469 6.370,6.569 6.248,6.629 6.072,6.716 5.911,6.865 5.911,6.942 5.911,6.960 5.999,7.060 6.107,7.164 6.248,7.302 6.307,7.389 6.321,7.482 6.332,7.552 6.352,7.636 6.365,7.668 6.381,7.709 6.356,7.739 6.280,7.770 6.203,7.802 6.162,7.853 6.135,7.949 6.114,8.022 6.070,8.158 6.037,8.250 5.978,8.418 5.978,8.418 5.978,8.418 6.105,8.670 6.105,8.670 6.105,8.670 6.190,8.838 6.266,8.939 6.335,8.974 6.414,9.014 6.690,9.031 7.529,9.047 8.621,9.068 8.621,9.068 8.621,9.068 9.003,9.207 9.003,9.207 9.003,9.207 9.294,9.313 9.475,9.355 9.767,9.381 9.977,9.400 10.247,9.427 10.367,9.440 10.585,9.464 10.585,9.464 10.585,9.464 10.596,9.642 10.596,9.642 10.596,9.642 10.607,9.813 10.604,9.818 10.524,9.792 10.336,9.732 9.678,9.730 9.395,9.788 9.222,9.824 8.934,9.846 8.645,9.846 8.174,9.846 8.174,9.846 8.174,9.846 8.151,9.756 8.151,9.756 8.151,9.756 8.118,9.625 8.004,9.610 7.384,9.659 7.084,9.682 6.748,9.701 6.638,9.702 6.394,9.702 6.347,9.729 6.315,9.887 6.291,10.006 6.281,10.012 6.034,10.065 5.894,10.095 5.735,10.154 5.683,10.196 5.630,10.238 5.541,10.292 5.485,10.315 5.429,10.338 5.337,10.429 5.282,10.517 5.170,10.694 5.088,11.081 5.141,11.184 5.159,11.218 5.186,11.762 5.201,12.392 5.216,13.022 5.239,13.644 5.251,13.774 5.274,14.011 5.274,14.011 5.274,14.011 5.820,14.012 5.820,14.012 5.820,14.012 6.366,14.013 6.366,14.013 6.366,14.013 6.498,14.142 6.498,14.142 6.498,14.142 6.636,14.277 6.894,14.380 7.395,14.501 7.540,14.537 7.667,14.573 7.677,14.583 7.726,14.632 7.595,14.832 7.424,14.965 7.211,15.132 7.184,15.199 7.184,15.556 7.184,15.764 7.240,15.993 7.290,15.993 7.305,15.993 7.385,16.056 7.469,16.133 7.621,16.274 7.621,16.274 7.621,16.274 7.611,16.819 7.611,16.819 7.611,16.819 7.605,17.192 7.616,17.380 7.645,17.415 7.675,17.452 7.678,17.544 7.656,17.740 7.607,18.162 7.590,18.388 7.544,19.231 7.505,19.962 7.496,20.019 7.419,20.104 7.205,20.339 7.147,20.469 7.147,20.711 7.147,20.943 7.149,20.946 7.337,21.145 7.444,21.258 7.569,21.354 7.625,21.365 7.721,21.385 7.725,21.394 7.743,21.681 7.779,22.251 7.856,22.873 7.901,22.952 7.910,22.968 8.043,22.976 8.196,22.970 8.475,22.959 8.475,22.959 8.475,22.959 8.472,22.777 8.472,22.777 8.472,22.777 8.470,22.677 8.440,22.296 8.406,21.929 8.344,21.262 8.344,21.262 8.344,21.262 8.489,21.105 8.489,21.105 8.489,21.105 8.728,20.845 8.739,20.469 8.513,20.219 8.393,20.086 8.393,20.086 8.393,20.086 8.445,19.613 8.445,19.613 8.445,19.613 8.474,19.353 8.498,18.854 8.498,18.504 8.500,17.772 8.526,17.629 8.683,17.488 8.790,17.393 8.798,17.367 8.836,16.983 8.865,16.688 8.891,16.566 8.935,16.532 8.967,16.506 9.004,16.441 9.016,16.388 9.029,16.330 9.117,16.229 9.230,16.139 9.335,16.056 9.441,15.952 9.465,15.908 9.491,15.863 9.510,15.687 9.510,15.492 9.512,15.123 9.529,15.159 9.232,14.909 9.115,14.811 9.115,14.811 9.115,14.811 9.525,14.830 9.525,14.830 9.525,14.830 9.910,14.847 9.942,14.854 10.060,14.953 10.140,15.020 10.195,15.105 10.212,15.189 10.285,15.535 10.322,15.854 10.319,16.099 10.316,16.379 10.346,16.478 10.467,16.576 10.526,16.624 10.540,16.687 10.549,16.941 10.555,17.110 10.584,17.358 10.613,17.492 10.662,17.713 10.660,17.763 10.599,18.056 10.563,18.232 10.512,18.479 10.488,18.604 10.438,18.853 10.437,18.853 10.170,18.792 9.754,18.696 9.627,18.922 9.992,19.107 10.091,19.157 10.165,19.218 10.156,19.242 10.147,19.266 10.167,19.332 10.199,19.389 10.257,19.490 10.256,19.492 10.120,19.602 9.960,19.731 9.904,19.821 9.934,19.901 9.971,19.995 10.146,19.968 10.419,19.825 10.635,19.712 10.681,19.671 10.716,19.561 10.738,19.490 10.777,19.398 10.801,19.358 10.826,19.318 10.856,19.179 10.868,19.049 10.887,18.847 11.017,18.112 11.149,17.467 11.206,17.190 11.214,17.142 11.241,16.952 11.256,16.847 11.300,16.739 11.349,16.685 11.448,16.577 11.585,16.325 11.585,16.253 11.585,16.212 11.631,16.206 11.806,16.222 11.928,16.233 12.037,16.252 12.049,16.264 12.061,16.276 12.018,16.341 11.952,16.409 11.814,16.551 11.695,16.921 11.695,17.206 11.695,17.384 11.785,17.799 11.839,17.867 11.867,17.903 11.915,18.238 11.922,18.449 11.925,18.562 11.596,19.458 11.543,19.479 11.526,19.486 11.513,19.512 11.513,19.536 11.513,19.561 11.474,19.662 11.426,19.761 11.379,19.860 11.296,20.063 11.242,20.213 11.189,20.363 11.107,20.551 11.061,20.631 11.015,20.711 10.958,20.883 10.934,21.013 10.881,21.303 10.930,21.474 11.141,21.733 11.218,21.827 11.321,21.983 11.369,22.078 11.418,22.174 11.495,22.295 11.540,22.348 11.585,22.401 11.669,22.544 11.727,22.667 11.785,22.790 11.857,22.910 11.887,22.935 11.926,22.967 12.104,22.976 12.529,22.969 13.118,22.959 13.118,22.959 13.118,22.959 13.175,22.865 13.175,22.865 13.175,22.865 13.245,22.750 13.223,22.642 13.092,22.449 12.996,22.307 12.996,22.307 12.996,22.307 13.022,21.298 13.022,21.298 13.022,21.298 13.048,20.340 13.052,20.287 13.120,20.265 13.159,20.253 13.221,20.173 13.258,20.087 13.304,19.980 13.353,19.924 13.417,19.908 13.596,19.863 13.585,19.607 13.401,19.571 13.252,19.541 13.261,19.441 13.459,18.879 13.549,18.624 13.613,18.386 13.602,18.350 13.590,18.314 13.537,18.262 13.483,18.233 13.386,18.182 13.386,18.182 13.386,18.182 13.565,18.009 13.565,18.009 13.565,18.009 13.752,17.830 13.831,17.648 13.867,17.316 13.885,17.151 13.727,16.565 13.637,16.464 13.574,16.392 13.570,16.250 13.632,16.233 13.657,16.227 13.800,16.202 13.950,16.179 14.100,16.156 14.296,16.101 14.387,16.057 14.539,15.981 14.556,15.980 14.610,16.035 14.654,16.079 14.711,16.090 14.835,16.076 15.000,16.058 15.000,16.058 15.000,16.058 15.011,16.507 15.011,16.507 15.011,16.507 15.024,17.004 14.973,17.278 14.856,17.341 14.784,17.380 14.758,17.521 14.824,17.521 14.845,17.521 14.872,17.550 14.884,17.585 14.896,17.620 14.929,17.676 14.958,17.709 15.003,17.761 14.999,17.804 14.931,18.036 14.887,18.183 14.839,18.320 14.824,18.340 14.794,18.378 14.687,18.705 14.497,19.331 14.396,19.665 14.375,19.704 14.299,19.704 14.185,19.704 14.043,19.820 13.984,19.962 13.940,20.068 13.943,20.083 14.016,20.142 14.115,20.222 14.117,20.313 14.021,20.414 13.924,20.518 13.961,20.603 14.122,20.647 14.312,20.700 14.445,20.620 14.496,20.422 14.518,20.337 14.549,20.227 14.567,20.177 14.584,20.127 14.607,19.996 14.616,19.886 14.626,19.773 14.772,19.271 14.950,18.740 15.231,17.899 15.279,17.782 15.390,17.682 15.536,17.549 15.538,17.530 15.433,17.350 15.364,17.231 15.351,17.146 15.339,16.730 15.325,16.248 15.325,16.248 15.325,16.248 15.451,16.248 15.451,16.248 15.451,16.248 15.573,16.248 15.903,16.195 16.032,16.154 16.086,16.137 16.096,16.159 16.096,16.296 16.096,16.497 16.149,16.545 16.397,16.568 16.626,16.589 16.664,16.614 16.693,16.773 16.719,16.910 16.767,16.939 16.968,16.939 17.107,16.939 17.107,16.939 17.107,16.939 17.120,17.411 17.120,17.411 17.120,17.411 17.128,17.724 17.148,17.897 17.178,17.927 17.204,17.953 17.223,18.063 17.223,18.181 17.223,18.296 17.238,18.428 17.256,18.475 17.303,18.600 17.385,20.625 17.354,20.910 17.330,21.131 17.319,21.156 17.223,21.195 17.103,21.245 17.041,21.387 17.041,21.619 17.041,21.706 17.026,21.777 17.007,21.777 16.964,21.777 16.945,21.662 16.895,21.122 16.843,20.546 16.865,20.583 16.576,20.590 16.332,20.596 16.332,20.596 16.332,20.596 16.345,20.752 16.345,20.752 16.345,20.752 16.354,20.863 16.339,20.929 16.295,20.978 16.236,21.043 16.236,21.075 16.296,21.559 16.331,21.841 16.352,22.141 16.342,22.226 16.330,22.333 16.345,22.418 16.392,22.505 16.429,22.574 16.460,22.651 16.460,22.676 16.460,22.752 16.626,22.770 17.088,22.742 17.567,22.713 17.684,22.684 17.760,22.575 17.787,22.536 17.836,22.505 17.868,22.505 17.901,22.505 18.030,22.470 18.155,22.428 18.444,22.330 18.479,22.259 18.449,21.834 18.425,21.493 18.357,21.293 18.245,21.233 18.196,21.207 18.169,21.157 18.169,21.093 18.169,21.038 18.147,20.961 18.120,20.922 18.054,20.825 18.018,20.004 18.005,18.294 17.995,17.004 17.998,16.939 18.061,16.939 18.106,16.939 18.147,16.887 18.189,16.777 18.228,16.675 18.323,16.548 18.446,16.435 18.621,16.275 18.643,16.240 18.648,16.098 18.667,15.622 18.616,15.455 18.402,15.296 18.308,15.227 18.200,15.100 18.147,14.998 18.096,14.901 18.025,14.814 17.990,14.805 17.949,14.794 17.925,14.751 17.923,14.687 17.920,14.592 17.933,14.584 18.199,14.521 18.832,14.372 19.110,14.215 19.191,13.960 19.224,13.857 19.492,13.274 19.543,13.194 19.549,13.185 19.637,13.175 19.738,13.172 19.912,13.167 19.934,13.154 20.157,12.934 20.392,12.701 20.551,12.431 20.516,12.323 20.506,12.291 20.423,12.234 20.331,12.196 20.091,12.098 20.063,12.011 20.183,11.743 20.236,11.625 20.289,11.478 20.302,11.416 20.314,11.354 20.346,11.284 20.374,11.261 20.406,11.235 20.424,11.145 20.424,11.019 20.424,10.862 20.399,10.773 20.306,10.602 20.145,10.306 19.847,10.127 19.362,10.036 19.079,9.983 19.023,9.961 19.014,9.901 18.965,9.577 18.961,9.576 17.607,9.601 17.006,9.612 16.486,9.633 16.450,9.647 16.415,9.661 16.376,9.711 16.364,9.759 16.343,9.846 16.343,9.846 16.343,9.846 15.639,9.846 15.639,9.846 15.639,9.846 15.252,9.846 14.927,9.831 14.916,9.813 14.905,9.795 14.906,9.707 14.918,9.617 14.941,9.453 14.941,9.453 14.941,9.453 15.218,9.431 15.218,9.431 15.218,9.431 16.177,9.355 16.305,9.329 16.907,9.087 16.963,9.064 17.112,9.046 17.239,9.046 17.480,9.046 17.643,8.994 17.888,8.840 18.007,8.765 18.059,8.752 18.165,8.774 18.237,8.788 18.403,8.812 18.533,8.827 18.663,8.843 18.805,8.867 18.849,8.882 18.967,8.920 19.103,8.769 19.133,8.566 19.154,8.431 19.178,8.393 19.280,8.338 19.593,8.170 19.628,8.032 19.406,7.832 19.326,7.759 19.245,7.700 19.227,7.700 19.163,7.700 19.038,7.446 18.927,7.092 18.866,6.896 18.784,6.673 18.744,6.595 18.682,6.474 18.677,6.425 18.707,6.250 18.726,6.137 18.734,5.983 18.724,5.907 18.714,5.830 18.733,5.671 18.767,5.553 18.812,5.391 18.817,5.319 18.788,5.264 18.742,5.179 18.751,5.180 18.369,5.168 17.772,5.148 17.545,5.115 17.402,5.024 17.262,4.936 16.501,4.649 16.205,4.573 16.115,4.550 15.917,4.467 15.766,4.390 15.495,4.251 15.256,4.185 14.713,4.099 14.470,4.060 14.172,4.001 13.604,3.878 13.381,3.830 12.510,3.854 12.258,3.915 12.158,3.940 11.997,3.968 11.900,3.978 11.723,3.997 11.723,3.997 11.723,3.997 11.748,3.782 11.748,3.782 11.748,3.782 11.768,3.611 11.761,3.557 11.717,3.521 11.585,3.411 11.476,3.559 11.476,3.846 11.476,4.045 11.452,4.062 11.181,4.062 10.897,4.062 10.903,4.073 10.981,3.747 11.009,3.630 11.053,3.393 11.078,3.219 11.115,2.962 11.115,2.891 11.077,2.845 11.042,2.803 11.007,2.784 10.976,2.787 Z M 12.668,4.486 C 13.292,4.486 13.891,4.734 14.332,5.175 14.773,5.616 15.021,6.214 15.021,6.838 15.021,7.790 14.448,8.648 13.568,9.012 12.689,9.376 11.678,9.175 11.005,8.502 10.332,7.829 10.131,6.817 10.495,5.938 10.859,5.059 11.717,4.486 12.668,4.486 Z M 12.630,5.513 C 12.127,6.212 11.624,6.911 11.121,7.610 13.451,7.610 13.451,7.610 13.451,7.610 14.139,7.610 14.139,7.610 14.139,7.610 13.636,6.911 13.133,6.212 12.630,5.513 Z M 16.067,15.281 C 16.084,15.279 16.096,15.308 16.096,15.355 16.096,15.406 16.080,15.448 16.060,15.448 16.040,15.448 16.023,15.416 16.023,15.377 16.023,15.338 16.040,15.297 16.060,15.284 16.062,15.283 16.064,15.282 16.067,15.281 Z M 16.052,15.523 C 16.076,15.515 16.096,15.573 16.096,15.684 16.096,15.774 16.088,15.848 16.079,15.848 16.034,15.848 15.987,15.694 16.008,15.613 16.022,15.557 16.038,15.528 16.052,15.523 Z " />
</svg>