<?xml version="1.0" encoding="UTF-8" standalone="no"?>
<!DOCTYPE svg PUBLIC "-//W3C//DTD SVG 20010904//EN" "http://www.w3.org/TR/2001/REC-SVG-20010904/DTD/svg10.dtd"[]>
<svg version="1.1" id="Frosty Editor v1.0.6.3" xmlns="http://www.w3.org/2000/svg" d1p1:xlink="http://www.w3.org/1999/xlink" viewBox="0 0 25 25" xmlns:d1p1="xmlns">
  <path stroke="none" fill="#ffffffff" d="M 14.313,3.810 C 13.151,5.566 11.989,7.321 10.826,9.076 12.334,7.347 13.842,5.619 15.350,3.890 15.004,3.863 14.659,3.837 14.313,3.810 Z M 17.685,4.818 C 15.958,6.499 14.231,8.179 12.504,9.859 14.499,8.348 16.494,6.837 18.489,5.326 18.221,5.157 17.953,4.988 17.685,4.818 Z M 20.278,7.069 C 18.103,8.483 15.929,9.898 13.754,11.313 16.101,10.205 18.447,9.098 20.793,7.990 20.621,7.683 20.449,7.376 20.278,7.069 Z M 8.410,8.918 C 8.371,8.921 8.340,8.983 8.325,9.094 8.316,9.158 8.298,9.291 8.284,9.391 8.270,9.501 8.248,9.585 8.228,9.608 8.183,9.658 8.096,9.701 8.040,9.701 7.967,9.702 7.836,9.754 7.734,9.824 7.656,9.876 7.632,9.883 7.594,9.866 7.557,9.849 7.533,9.857 7.462,9.904 7.415,9.936 7.361,9.962 7.343,9.962 7.302,9.962 6.966,10.096 6.912,10.134 6.889,10.150 6.854,10.163 6.833,10.163 6.791,10.163 6.477,10.459 6.418,10.555 6.376,10.624 6.304,10.664 6.226,10.664 6.172,10.664 6.125,10.707 5.987,10.883 5.935,10.948 5.870,11.003 5.802,11.036 5.705,11.084 5.616,11.167 5.616,11.209 5.616,11.219 5.665,11.274 5.724,11.332 5.802,11.408 5.835,11.456 5.843,11.507 5.849,11.545 5.859,11.591 5.866,11.609 5.875,11.632 5.862,11.649 5.820,11.666 5.778,11.684 5.755,11.712 5.740,11.765 5.728,11.805 5.704,11.880 5.686,11.931 5.653,12.024 5.653,12.024 5.653,12.024 5.723,12.163 5.723,12.163 5.723,12.163 5.770,12.255 5.812,12.311 5.850,12.330 5.894,12.352 6.046,12.361 6.509,12.370 7.111,12.382 7.111,12.382 7.111,12.382 7.322,12.459 7.322,12.459 7.322,12.459 7.482,12.517 7.582,12.540 7.743,12.555 7.859,12.565 8.008,12.580 8.074,12.587 8.194,12.600 8.194,12.600 8.194,12.600 8.200,12.699 8.200,12.699 8.200,12.699 8.206,12.793 8.205,12.796 8.161,12.781 8.057,12.748 7.694,12.747 7.538,12.779 7.442,12.799 7.284,12.811 7.124,12.811 6.865,12.811 6.865,12.811 6.865,12.811 6.852,12.761 6.852,12.761 6.852,12.761 6.834,12.689 6.771,12.681 6.429,12.708 6.263,12.721 6.078,12.731 6.017,12.731 5.883,12.731 5.857,12.747 5.839,12.834 5.826,12.899 5.820,12.902 5.684,12.931 5.607,12.948 5.519,12.981 5.490,13.004 5.461,13.027 5.412,13.057 5.381,13.070 5.350,13.082 5.300,13.133 5.269,13.181 5.207,13.279 5.163,13.492 5.192,13.549 5.201,13.568 5.216,13.868 5.225,14.216 5.233,14.563 5.246,14.906 5.253,14.978 5.265,15.108 5.265,15.108 5.265,15.108 5.566,15.109 5.566,15.109 5.566,15.109 5.867,15.110 5.867,15.110 5.867,15.110 5.940,15.181 5.940,15.181 5.940,15.181 6.016,15.255 6.158,15.312 6.434,15.379 6.515,15.398 6.585,15.419 6.590,15.424 6.618,15.451 6.545,15.561 6.451,15.635 6.333,15.726 6.319,15.764 6.319,15.961 6.319,16.075 6.349,16.202 6.377,16.202 6.385,16.202 6.429,16.236 6.475,16.279 6.559,16.356 6.559,16.356 6.559,16.356 6.554,16.657 6.554,16.657 6.554,16.657 6.551,16.863 6.557,16.967 6.573,16.986 6.589,17.006 6.590,17.057 6.578,17.165 6.551,17.398 6.542,17.523 6.517,17.987 6.495,18.391 6.491,18.422 6.448,18.469 6.330,18.599 6.298,18.671 6.298,18.804 6.298,18.932 6.299,18.934 6.403,19.043 6.462,19.106 6.531,19.158 6.562,19.165 6.615,19.175 6.617,19.181 6.627,19.339 6.646,19.654 6.689,19.996 6.714,20.040 6.719,20.049 6.792,20.053 6.877,20.050 7.031,20.044 7.031,20.044 7.031,20.044 7.029,19.944 7.029,19.944 7.029,19.944 7.028,19.889 7.012,19.678 6.993,19.476 6.958,19.108 6.958,19.108 6.958,19.108 7.039,19.021 7.039,19.021 7.039,19.021 7.171,18.878 7.176,18.671 7.052,18.532 6.985,18.459 6.985,18.459 6.985,18.459 7.014,18.198 7.014,18.198 7.014,18.198 7.030,18.054 7.043,17.779 7.043,17.586 7.044,17.183 7.059,17.104 7.145,17.027 7.205,16.974 7.208,16.960 7.229,16.747 7.245,16.585 7.260,16.517 7.284,16.498 7.302,16.484 7.322,16.449 7.329,16.419 7.336,16.388 7.385,16.332 7.447,16.282 7.505,16.236 7.563,16.179 7.577,16.155 7.591,16.130 7.601,16.033 7.602,15.925 7.603,15.722 7.612,15.741 7.448,15.604 7.384,15.550 7.384,15.550 7.384,15.550 7.610,15.560 7.610,15.560 7.610,15.560 7.822,15.569 7.839,15.574 7.904,15.628 7.949,15.665 7.979,15.712 7.989,15.758 8.029,15.949 8.049,16.125 8.047,16.260 8.046,16.414 8.063,16.469 8.129,16.523 8.162,16.550 8.170,16.585 8.175,16.725 8.178,16.818 8.194,16.955 8.210,17.028 8.236,17.150 8.236,17.178 8.202,17.339 8.182,17.436 8.154,17.573 8.140,17.642 8.113,17.779 8.113,17.779 7.965,17.745 7.736,17.692 7.666,17.817 7.867,17.919 7.922,17.947 7.962,17.980 7.957,17.993 7.952,18.007 7.963,18.043 7.981,18.074 8.013,18.130 8.013,18.132 7.938,18.192 7.849,18.263 7.818,18.313 7.835,18.357 7.855,18.409 7.952,18.394 8.102,18.315 8.221,18.253 8.247,18.231 8.266,18.170 8.279,18.131 8.300,18.079 8.314,18.057 8.327,18.035 8.344,17.959 8.350,17.887 8.360,17.776 8.433,17.370 8.505,17.014 8.537,16.862 8.541,16.835 8.556,16.730 8.564,16.673 8.589,16.613 8.616,16.583 8.670,16.524 8.746,16.384 8.746,16.344 8.746,16.322 8.771,16.319 8.868,16.328 8.935,16.334 8.995,16.344 9.002,16.351 9.009,16.358 8.985,16.393 8.949,16.431 8.872,16.509 8.806,16.714 8.806,16.871 8.806,16.969 8.856,17.197 8.886,17.235 8.901,17.255 8.928,17.440 8.932,17.556 8.934,17.619 8.751,18.113 8.722,18.125 8.713,18.128 8.706,18.143 8.706,18.156 8.706,18.170 8.684,18.225 8.658,18.279 8.632,18.334 8.586,18.447 8.557,18.529 8.527,18.612 8.482,18.716 8.456,18.760 8.431,18.804 8.400,18.899 8.386,18.971 8.357,19.131 8.384,19.225 8.501,19.367 8.543,19.419 8.600,19.505 8.627,19.558 8.654,19.611 8.696,19.677 8.721,19.706 8.746,19.735 8.792,19.815 8.824,19.883 8.856,19.951 8.896,20.017 8.912,20.030 8.934,20.048 9.032,20.054 9.267,20.050 9.591,20.044 9.591,20.044 9.591,20.044 9.623,19.992 9.623,19.992 9.623,19.992 9.661,19.929 9.649,19.869 9.577,19.762 9.524,19.684 9.524,19.684 9.524,19.684 9.538,19.128 9.538,19.128 9.538,19.128 9.552,18.599 9.555,18.570 9.592,18.558 9.614,18.551 9.648,18.507 9.669,18.460 9.694,18.400 9.721,18.370 9.756,18.362 9.855,18.337 9.849,18.195 9.748,18.175 9.665,18.158 9.670,18.103 9.779,17.793 9.829,17.652 9.864,17.522 9.858,17.502 9.852,17.482 9.823,17.453 9.793,17.437 9.739,17.409 9.739,17.409 9.739,17.409 9.838,17.314 9.838,17.314 9.838,17.314 9.941,17.215 9.985,17.115 10.005,16.931 10.015,16.840 9.927,16.517 9.878,16.461 9.843,16.422 9.841,16.344 9.875,16.334 9.888,16.331 9.967,16.317 10.050,16.304 10.132,16.292 10.241,16.261 10.291,16.237 10.375,16.195 10.384,16.194 10.414,16.225 10.439,16.249 10.470,16.255 10.538,16.247 10.630,16.237 10.630,16.237 10.630,16.237 10.636,16.485 10.636,16.485 10.636,16.485 10.643,16.759 10.615,16.911 10.550,16.945 10.510,16.966 10.496,17.045 10.532,17.045 10.544,17.045 10.559,17.060 10.565,17.080 10.572,17.099 10.591,17.130 10.606,17.148 10.631,17.177 10.629,17.201 10.591,17.329 10.567,17.410 10.541,17.485 10.532,17.496 10.516,17.517 10.457,17.697 10.352,18.042 10.296,18.227 10.285,18.249 10.243,18.249 10.180,18.249 10.102,18.313 10.069,18.391 10.045,18.449 10.047,18.458 10.087,18.490 10.141,18.535 10.142,18.584 10.090,18.640 10.036,18.697 10.056,18.744 10.145,18.769 10.250,18.798 10.323,18.753 10.351,18.644 10.363,18.597 10.381,18.537 10.390,18.509 10.400,18.481 10.413,18.409 10.418,18.348 10.424,18.286 10.504,18.010 10.602,17.717 10.757,17.253 10.784,17.188 10.845,17.133 10.925,17.060 10.927,17.049 10.869,16.950 10.830,16.884 10.823,16.838 10.816,16.608 10.808,16.342 10.808,16.342 10.808,16.342 10.878,16.342 10.878,16.342 10.878,16.342 10.946,16.342 11.128,16.312 11.199,16.290 11.229,16.281 11.234,16.293 11.234,16.368 11.234,16.479 11.263,16.505 11.400,16.518 11.526,16.529 11.547,16.545 11.563,16.632 11.577,16.708 11.604,16.723 11.715,16.723 11.791,16.723 11.791,16.723 11.791,16.723 11.799,16.983 11.799,16.983 11.799,16.983 11.804,17.156 11.814,17.251 11.830,17.268 11.845,17.282 11.856,17.343 11.856,17.408 11.856,17.472 11.864,17.545 11.874,17.571 11.900,17.640 11.945,18.757 11.928,18.914 11.915,19.036 11.908,19.049 11.856,19.071 11.789,19.099 11.756,19.177 11.756,19.305 11.756,19.353 11.747,19.392 11.737,19.392 11.713,19.392 11.702,19.328 11.675,19.031 11.646,18.712 11.658,18.733 11.499,18.737 11.364,18.740 11.364,18.740 11.364,18.740 11.371,18.827 11.371,18.827 11.371,18.827 11.376,18.888 11.368,18.924 11.344,18.951 11.311,18.987 11.311,19.005 11.344,19.272 11.363,19.427 11.375,19.593 11.370,19.640 11.363,19.699 11.372,19.745 11.398,19.793 11.418,19.831 11.434,19.874 11.434,19.888 11.434,19.930 11.526,19.939 11.781,19.924 12.045,19.908 12.110,19.892 12.152,19.832 12.167,19.811 12.194,19.793 12.212,19.793 12.230,19.793 12.301,19.774 12.370,19.751 12.529,19.697 12.548,19.657 12.532,19.423 12.519,19.235 12.481,19.125 12.419,19.092 12.392,19.078 12.377,19.050 12.377,19.015 12.377,18.984 12.365,18.942 12.350,18.920 12.314,18.867 12.294,18.414 12.286,17.471 12.281,16.759 12.283,16.723 12.318,16.723 12.343,16.723 12.365,16.695 12.388,16.634 12.410,16.577 12.462,16.508 12.530,16.445 12.627,16.357 12.639,16.337 12.642,16.259 12.652,15.997 12.624,15.905 12.506,15.817 12.454,15.779 12.395,15.709 12.365,15.653 12.337,15.599 12.298,15.551 12.278,15.546 12.256,15.540 12.242,15.517 12.241,15.481 12.240,15.429 12.247,15.425 12.394,15.390 12.743,15.308 12.896,15.221 12.941,15.080 12.959,15.024 13.107,14.702 13.136,14.658 13.139,14.653 13.187,14.647 13.243,14.645 13.325,14.643 13.349,14.633 13.429,14.557 12.701,13.799 12.701,13.799 12.701,13.799 11.360,15.087 11.360,15.087 11.360,15.087 11.107,14.518 11.107,14.518 11.107,14.518 11.116,13.457 11.116,13.457 11.116,13.457 10.635,13.453 10.635,13.453 10.635,13.453 10.404,12.932 10.404,12.932 10.404,12.932 9.257,13.441 9.257,13.441 9.257,13.441 10.538,11.518 10.538,11.518 10.538,11.518 9.318,10.706 9.318,10.706 9.318,10.706 9.326,10.729 9.329,10.751 9.325,10.755 9.310,10.770 9.247,10.721 9.247,10.694 9.247,10.649 9.303,10.659 9.318,10.706 11.163,10.315 11.163,10.315 11.163,10.315 11.055,9.803 11.055,9.803 11.055,9.803 11.054,9.803 11.053,9.802 11.052,9.802 10.902,9.725 10.771,9.688 10.471,9.641 10.337,9.620 10.173,9.587 9.860,9.519 9.737,9.493 9.256,9.506 9.117,9.540 9.062,9.553 8.973,9.569 8.919,9.574 8.822,9.585 8.822,9.585 8.822,9.585 8.836,9.467 8.836,9.467 8.836,9.467 8.847,9.372 8.843,9.343 8.819,9.322 8.746,9.262 8.686,9.343 8.686,9.502 8.686,9.612 8.673,9.621 8.523,9.621 8.366,9.621 8.370,9.626 8.413,9.447 8.429,9.382 8.452,9.251 8.466,9.155 8.486,9.014 8.487,8.975 8.466,8.950 8.447,8.926 8.427,8.916 8.410,8.918 Z M 21.383,10.432 C 19.064,11.369 16.744,12.307 14.424,13.244 21.377,11.439 21.377,11.439 21.377,11.439 21.379,11.104 21.381,10.767 21.383,10.432 Z M 6.361,11.226 C 6.372,11.226 6.375,11.235 6.368,11.246 6.361,11.257 6.347,11.267 6.336,11.267 6.325,11.267 6.322,11.257 6.329,11.246 6.335,11.235 6.350,11.226 6.361,11.226 Z M 20.813,13.750 C 18.557,14.159 16.301,14.569 14.045,14.978 16.147,14.880 18.251,14.781 20.354,14.683 20.507,14.372 20.659,14.061 20.813,13.750 Z M 11.218,15.809 C 11.227,15.808 11.234,15.824 11.234,15.850 11.234,15.878 11.225,15.901 11.214,15.901 11.203,15.901 11.194,15.883 11.194,15.862 11.194,15.841 11.203,15.818 11.214,15.811 11.215,15.810 11.216,15.809 11.218,15.809 Z M 11.210,15.943 C 11.223,15.938 11.234,15.970 11.234,16.031 11.234,16.081 11.230,16.122 11.225,16.122 11.200,16.122 11.174,16.037 11.185,15.992 11.193,15.961 11.202,15.945 11.210,15.943 Z " />
</svg>