<?xml version="1.0" encoding="UTF-8" standalone="no"?>
<!DOCTYPE svg PUBLIC "-//W3C//DTD SVG 20010904//EN" "http://www.w3.org/TR/2001/REC-SVG-20010904/DTD/svg10.dtd"[]>
<svg version="1.1" id="Frosty Editor v1.0.6.3" xmlns="http://www.w3.org/2000/svg" d1p1:xlink="http://www.w3.org/1999/xlink" viewBox="0 0 96 96" xmlns:d1p1="xmlns">
  <path stroke="none" fill="#ffffffff" d="M 25.100,35.700 C 24.533,36.267 23.967,36.833 23.400,37.400 22.000,38.800 22.000,41.100 23.400,42.400 23.600,42.600 23.800,42.800 24.000,43.000 25.567,41.433 27.133,39.867 28.700,38.300 27.500,37.433 26.300,36.567 25.100,35.700 25.100,35.700 25.100,35.700 25.100,35.700 Z " />
  <path stroke="none" fill="#ffffffff" d="M 24.300,43.500 C 24.500,43.700 24.700,43.900 24.900,44.100 26.300,45.500 28.600,45.500 29.900,44.100 30.767,43.233 31.633,42.367 32.500,41.500 31.333,40.600 30.167,39.700 29.000,38.800 27.433,40.367 25.867,41.933 24.300,43.500 24.300,43.500 24.300,43.500 24.300,43.500 Z " />
  <path stroke="none" fill="#ffffffff" d="M 43.900,23.300 C 43.700,23.100 43.500,22.900 43.300,22.700 41.900,21.300 39.600,21.300 38.300,22.700 37.733,23.267 37.167,23.833 36.600,24.400 37.500,25.600 38.400,26.800 39.300,28.000 40.833,26.433 42.367,24.867 43.900,23.300 43.900,23.300 43.900,23.300 43.900,23.300 Z " />
  <path stroke="none" fill="#ffffffff" d="M 42.200,31.900 C 43.067,31.033 43.933,30.167 44.800,29.300 46.200,27.900 46.200,25.600 44.800,24.300 44.600,24.100 44.400,23.900 44.200,23.700 42.633,25.267 41.067,26.833 39.500,28.400 40.400,29.567 41.300,30.733 42.200,31.900 42.200,31.900 42.200,31.900 42.200,31.900 Z " />
  <path stroke="none" fill="#ffffffff" d="M 46.100,44.200 C 46.567,43.700 47.033,43.200 47.500,42.700 47.133,42.333 46.767,41.967 46.400,41.600 45.033,42.967 43.667,44.333 42.300,45.700 42.700,46.067 43.100,46.433 43.500,46.800 44.133,46.167 44.767,45.533 45.400,44.900 45.633,44.667 45.867,44.433 46.100,44.200 Z " />
  <path stroke="none" fill="#ffffffff" d="M 41.065,47.016 C 41.371,46.709 41.677,46.403 41.984,46.097 42.361,46.474 42.738,46.851 43.115,47.228 42.809,47.534 42.502,47.841 42.196,48.147 41.819,47.770 41.442,47.393 41.065,47.016 Z " />
  <path stroke="none" fill="#ffffffff" d="M 50.894,54.220 C 52.261,52.853 53.628,51.486 54.995,50.119 61.430,56.553 67.864,62.988 74.299,69.423 72.932,70.790 71.565,72.157 70.198,73.524 63.763,67.089 57.328,60.654 50.894,54.220 Z " />
  <path stroke="none" fill="#ffffffff" d="M 49.675,55.516 C 49.982,55.210 50.288,54.903 50.594,54.597 57.029,61.031 63.464,67.466 69.898,73.901 69.592,74.207 69.285,74.513 68.979,74.820 62.544,68.385 56.110,61.951 49.675,55.516 Z " />
  <path stroke="none" fill="#ffffffff" d="M 46.754,41.314 C 47.061,41.007 47.367,40.701 47.674,40.394 48.051,40.771 48.428,41.149 48.805,41.526 48.499,41.832 48.192,42.139 47.886,42.445 47.509,42.068 47.132,41.691 46.754,41.314 Z " />
  <path stroke="none" fill="#ffffffff" d="M 55.294,49.883 C 55.601,49.576 55.907,49.270 56.213,48.963 62.648,55.398 69.083,61.833 75.517,68.267 75.211,68.574 74.904,68.880 74.598,69.187 68.163,62.752 61.729,56.317 55.294,49.883 Z " />
  <path stroke="none" fill="#ffffffff" d="M 46.538,40.992 C 46.845,40.685 47.151,40.379 47.458,40.072 47.528,40.143 47.599,40.214 47.670,40.285 47.363,40.591 47.057,40.897 46.750,41.204 46.680,41.133 46.609,41.062 46.538,40.992 Z " />
  <path stroke="none" fill="#ffffffff" d="M 41.800,45.800 C 41.467,46.100 41.133,46.400 40.800,46.700 40.800,46.700 40.800,46.700 40.800,46.700 40.900,46.800 41.000,46.900 41.100,47.000 41.400,46.667 41.700,46.333 42.000,46.000 41.933,45.933 41.867,45.867 41.800,45.800 Z " />
  <path stroke="none" fill="#ffffffff" d="M 42.138,45.470 C 43.505,44.103 44.872,42.736 46.239,41.369 46.310,41.440 46.380,41.510 46.451,41.581 45.084,42.948 43.717,44.315 42.350,45.682 42.279,45.611 42.209,45.541 42.138,45.470 Z " />
  <path stroke="none" fill="#ffffffff" d="M 70.603,74.354 C 72.064,72.893 73.525,71.431 74.987,69.970 75.317,70.300 75.647,70.630 75.977,70.960 74.515,72.421 73.054,73.883 71.593,75.344 71.263,75.014 70.933,74.684 70.603,74.354 Z " />
  <path stroke="none" fill="#ffffffff" d="M 70.549,74.226 C 72.010,72.765 73.471,71.303 74.933,69.842 74.980,69.889 75.027,69.936 75.074,69.983 73.613,71.445 72.151,72.906 70.690,74.367 70.643,74.320 70.596,74.273 70.549,74.226 Z " />
  <path stroke="none" fill="#ffffffff" d="M 73.300,74.800 C 73.567,75.067 73.833,75.333 74.100,75.600 74.300,75.800 74.600,75.800 74.800,75.600 75.300,75.100 75.800,74.600 76.300,74.100 76.500,73.900 76.500,73.600 76.300,73.400 76.033,73.133 75.767,72.867 75.500,72.600 74.767,73.333 74.033,74.067 73.300,74.800 73.300,74.800 73.300,74.800 73.300,74.800 Z " />
  <path stroke="none" fill="#ffffffff" d="M 22.900,30.200 C 22.500,30.600 22.100,31.000 21.700,31.400 21.500,31.600 21.500,31.900 21.700,32.100 23.033,33.100 24.367,34.100 25.700,35.100 26.033,34.767 26.367,34.433 26.700,34.100 25.433,32.800 24.167,31.500 22.900,30.200 22.900,30.200 22.900,30.200 22.900,30.200 Z " />
  <path stroke="none" fill="#ffffffff" d="M 33.300,40.800 C 33.700,41.100 34.100,41.400 34.500,41.700 34.133,41.367 33.767,41.033 33.400,40.700 33.367,40.733 33.333,40.767 33.300,40.800 Z " />
  <path stroke="none" fill="#ffffffff" d="M 34.800,26.100 C 35.133,25.767 35.467,25.433 35.800,25.100 34.800,23.767 33.800,22.433 32.800,21.100 32.600,20.900 32.300,20.900 32.100,21.100 31.700,21.500 31.300,21.900 30.900,22.300 30.900,22.300 30.900,22.300 30.900,22.300 32.200,23.567 33.500,24.833 34.800,26.100 34.800,26.100 34.800,26.100 34.800,26.100 Z " />
  <path stroke="none" fill="#ffffffff" d="M 42.400,33.700 C 42.100,33.333 41.800,32.967 41.500,32.600 41.467,32.633 41.433,32.667 41.400,32.700 41.733,33.033 42.067,33.367 42.400,33.700 Z " />
  <path stroke="none" fill="#ffffffff" d="M 37.700,29.100 C 37.933,28.867 38.167,28.633 38.400,28.400 37.533,27.300 36.667,26.200 35.800,25.100 35.467,25.433 35.133,25.767 34.800,26.100 35.767,27.100 36.733,28.100 37.700,29.100 Z " />
  <path stroke="none" fill="#ffffffff" d="M 30.500,37.700 C 30.300,37.867 30.100,38.033 29.900,38.200 31.033,39.067 32.167,39.933 33.300,40.800 33.333,40.767 33.367,40.733 33.400,40.700 32.433,39.700 31.467,38.700 30.500,37.700 Z " />
  <path stroke="none" fill="#ffffffff" d="M 26.800,34.000 C 26.467,34.367 26.133,34.733 25.800,35.100 26.933,35.933 28.067,36.767 29.200,37.600 29.400,37.400 29.600,37.200 29.800,37.000 28.800,36.000 27.800,35.000 26.800,34.000 Z " />
  <path stroke="none" fill="#ffffffff" d="M 41.400,32.700 C 41.433,32.667 41.467,32.633 41.500,32.600 40.667,31.467 39.833,30.333 39.000,29.200 38.800,29.367 38.600,29.533 38.400,29.700 39.400,30.700 40.400,31.700 41.400,32.700 Z " />
  <path stroke="none" fill="#ffffffff" d="M 23.632,29.491 C 25.848,27.276 28.064,25.060 30.279,22.844 31.575,24.141 32.872,25.437 34.168,26.733 31.953,28.949 29.737,31.165 27.521,33.380 26.225,32.084 24.929,30.787 23.632,29.491 Z " />
  <path stroke="none" fill="#ffffffff" d="M 40.700,33.400 C 40.667,33.433 40.633,33.467 40.600,33.500 41.833,35.300 43.067,37.100 44.300,38.900 42.767,40.467 41.233,42.033 39.700,43.600 37.867,42.367 36.033,41.133 34.200,39.900 34.167,39.933 34.133,39.967 34.100,40.000 36.133,42.033 38.167,44.067 40.200,46.100 42.400,43.867 44.600,41.633 46.800,39.400 44.767,37.400 42.733,35.400 40.700,33.400 Z " />
  <path stroke="none" fill="#ffffffff" d="M 34.100,40.000 C 34.133,39.967 34.167,39.933 34.200,39.900 33.933,39.700 33.667,39.500 33.400,39.300 33.633,39.533 33.867,39.767 34.100,40.000 Z " />
  <path stroke="none" fill="#ffffffff" d="M 27.448,33.336 C 29.664,31.121 31.879,28.905 34.095,26.689 35.085,27.679 36.075,28.669 37.065,29.659 34.849,31.875 32.633,34.090 30.418,36.306 29.428,35.316 28.438,34.326 27.448,33.336 Z " />
  <path stroke="none" fill="#ffffffff" d="M 40.600,33.500 C 40.633,33.467 40.667,33.433 40.700,33.400 40.467,33.167 40.233,32.933 40.000,32.700 40.200,32.967 40.400,33.233 40.600,33.500 Z " />
  <path stroke="none" fill="#ffffffff" d="M 31.122,37.063 C 33.338,34.848 35.554,32.632 37.769,30.417 38.146,30.794 38.523,31.171 38.901,31.548 36.685,33.764 34.469,35.979 32.254,38.195 31.877,37.818 31.500,37.440 31.122,37.063 Z " />
  <path stroke="none" fill="#ffffffff" d="M 33.400,40.700 C 33.767,41.033 34.133,41.367 34.500,41.700 35.433,42.433 36.367,43.167 37.300,43.900 36.133,42.700 34.967,41.500 33.800,40.300 33.667,40.433 33.533,40.567 33.400,40.700 Z " />
  <path stroke="none" fill="#ffffffff" d="M 34.800,26.100 C 33.500,24.800 32.200,23.500 30.900,22.200 30.900,22.200 30.900,22.200 30.900,22.200 30.800,22.300 30.700,22.400 30.600,22.500 31.867,23.800 33.133,25.100 34.400,26.400 34.533,26.300 34.667,26.200 34.800,26.100 Z " />
  <path stroke="none" fill="#ffffffff" d="M 41.100,33.000 C 42.267,34.200 43.433,35.400 44.600,36.600 43.867,35.633 43.133,34.667 42.400,33.700 42.067,33.367 41.733,33.033 41.400,32.700 41.300,32.800 41.200,32.900 41.100,33.000 Z " />
  <path stroke="none" fill="#ffffffff" d="M 22.926,30.173 C 23.043,30.055 23.161,29.937 23.279,29.819 24.576,31.115 25.872,32.412 27.168,33.708 27.050,33.826 26.933,33.944 26.815,34.062 25.518,32.765 24.222,31.469 22.926,30.173 Z " />
  <path stroke="none" fill="#ffffffff" d="M 34.448,26.362 C 34.566,26.244 34.684,26.126 34.801,26.008 35.791,26.998 36.781,27.988 37.771,28.978 37.653,29.096 37.536,29.214 37.418,29.331 36.428,28.342 35.438,27.352 34.448,26.362 Z " />
  <path stroke="none" fill="#ffffffff" d="M 38.097,30.079 C 38.215,29.962 38.333,29.844 38.451,29.726 39.441,30.716 40.431,31.705 41.421,32.695 41.303,32.813 41.186,32.931 41.068,33.049 40.078,32.059 39.088,31.069 38.097,30.079 Z " />
  <path stroke="none" fill="#ffffffff" d="M 26.812,34.086 C 26.930,33.968 27.048,33.850 27.166,33.732 28.156,34.722 29.146,35.712 30.136,36.702 30.018,36.820 29.900,36.937 29.782,37.055 28.792,36.065 27.802,35.076 26.812,34.086 Z " />
  <path stroke="none" fill="#ffffffff" d="M 30.462,37.667 C 30.580,37.549 30.698,37.431 30.816,37.313 31.806,38.303 32.796,39.293 33.785,40.283 33.668,40.401 33.550,40.519 33.432,40.637 32.442,39.647 31.452,38.657 30.462,37.667 Z " />
  <path stroke="none" fill="#ffffffff" d="M 40.700,33.400 C 42.733,35.400 44.767,37.400 46.800,39.400 46.067,38.467 45.333,37.533 44.600,36.600 43.433,35.400 42.267,34.200 41.100,33.000 40.967,33.133 40.833,33.267 40.700,33.400 Z " />
  <path stroke="none" fill="#ffffffff" d="M 23.262,29.888 C 23.380,29.770 23.498,29.652 23.616,29.534 24.912,30.831 26.209,32.127 27.505,33.423 27.387,33.541 27.269,33.659 27.151,33.777 25.855,32.480 24.559,31.184 23.262,29.888 Z " />
  <path stroke="none" fill="#ffffffff" d="M 30.225,22.872 C 30.343,22.754 30.461,22.636 30.578,22.519 31.875,23.815 33.171,25.111 34.467,26.408 34.350,26.525 34.232,26.643 34.114,26.761 32.818,25.465 31.521,24.168 30.225,22.872 Z " />
  <path stroke="none" fill="#ffffffff" d="M 33.800,40.300 C 34.967,41.500 36.133,42.700 37.300,43.900 38.267,44.633 39.233,45.367 40.200,46.100 38.167,44.067 36.133,42.033 34.100,40.000 34.000,40.100 33.900,40.200 33.800,40.300 Z " />
  <path stroke="none" fill="#ffffffff" d="M 32.100,38.400 C 32.167,38.333 32.233,38.267 32.300,38.200 31.900,37.800 31.500,37.400 31.100,37.000 31.000,37.133 30.900,37.267 30.800,37.400 31.800,38.367 32.800,39.333 33.800,40.300 33.900,40.200 34.000,40.100 34.100,40.000 33.867,39.767 33.633,39.533 33.400,39.300 32.967,39.000 32.533,38.700 32.100,38.400 Z " />
  <path stroke="none" fill="#ffffffff" d="M 27.149,33.662 C 27.267,33.544 27.384,33.426 27.502,33.308 28.492,34.298 29.482,35.288 30.472,36.278 30.354,36.396 30.236,36.514 30.118,36.632 29.129,35.642 28.139,34.652 27.149,33.662 Z " />
  <path stroke="none" fill="#ffffffff" d="M 38.100,30.100 C 37.967,30.200 37.833,30.300 37.700,30.400 38.100,30.800 38.500,31.200 38.900,31.600 38.967,31.500 39.033,31.400 39.100,31.300 39.400,31.767 39.700,32.233 40.000,32.700 40.233,32.933 40.467,33.167 40.700,33.400 40.833,33.267 40.967,33.133 41.100,33.000 40.100,32.033 39.100,31.067 38.100,30.100 Z " />
  <path stroke="none" fill="#ffffffff" d="M 34.111,26.788 C 34.229,26.670 34.347,26.552 34.465,26.434 35.455,27.424 36.445,28.414 37.435,29.404 37.317,29.522 37.199,29.640 37.081,29.758 36.091,28.768 35.101,27.778 34.111,26.788 Z " />
  <path stroke="none" fill="#ffffffff" d="M 43.700,38.900 C 42.567,37.200 41.433,35.500 40.300,33.800 38.400,35.700 36.500,37.600 34.600,39.500 36.267,40.667 37.933,41.833 39.600,43.000 40.967,41.633 42.333,40.267 43.700,38.900 Z " />
  <path stroke="none" fill="#ffffffff" d="M 39.000,32.100 C 36.933,34.167 34.867,36.233 32.800,38.300 33.400,38.700 34.000,39.100 34.600,39.500 36.500,37.600 38.400,35.700 40.300,33.800 39.867,33.233 39.433,32.667 39.000,32.100 Z " />
  <path stroke="none" fill="#ff000000" d="M 39.100,31.700 C 39.100,31.700 39.100,31.700 39.100,31.700 39.100,31.700 39.100,31.700 39.100,31.700 39.100,31.700 39.100,31.700 39.100,31.700 Z " />
  <path stroke="none" fill="#ffffffff" d="M 22.200,73.500 C 22.900,74.200 23.600,74.900 24.300,75.600 24.500,75.800 24.800,75.800 25.000,75.600 25.233,75.367 25.467,75.133 25.700,74.900 24.767,73.967 23.833,73.033 22.900,72.100 22.667,72.333 22.433,72.567 22.200,72.800 22.000,73.000 22.000,73.300 22.200,73.500 22.200,73.500 22.200,73.500 22.200,73.500 Z " />
  <path stroke="none" fill="#ffffffff" d="M 26.345,74.179 C 26.463,74.061 26.581,73.943 26.699,73.825 27.076,74.202 27.453,74.579 27.830,74.957 27.712,75.074 27.594,75.192 27.476,75.310 27.099,74.933 26.722,74.556 26.345,74.179 Z " />
  <path stroke="none" fill="#ffffffff" d="M 22.429,70.317 C 22.547,70.199 22.665,70.082 22.782,69.964 23.160,70.341 23.537,70.718 23.914,71.095 23.796,71.213 23.678,71.331 23.560,71.449 23.183,71.072 22.806,70.694 22.429,70.317 Z " />
  <path stroke="none" fill="#ffffffff" d="M 53.979,38.826 C 57.514,35.290 61.050,31.755 64.585,28.219 64.962,28.597 65.339,28.974 65.717,29.351 62.181,32.886 58.646,36.422 55.110,39.957 54.733,39.580 54.356,39.203 53.979,38.826 Z " />
  <path stroke="none" fill="#ffffffff" d="M 57.823,42.624 C 61.359,39.089 64.894,35.553 68.430,32.018 68.807,32.395 69.184,32.772 69.561,33.149 66.026,36.684 62.490,40.220 58.955,43.755 58.578,43.378 58.200,43.001 57.823,42.624 Z " />
  <path stroke="none" fill="#ffffffff" d="M 55.088,39.840 C 58.623,36.304 62.159,32.769 65.694,29.233 66.613,30.153 67.532,31.072 68.452,31.991 64.916,35.527 61.381,39.062 57.845,42.598 56.926,41.678 56.007,40.759 55.088,39.840 Z " />
  <path stroke="none" fill="#ffffffff" d="M 23.537,71.473 C 23.655,71.355 23.773,71.237 23.891,71.119 24.810,72.038 25.729,72.958 26.648,73.877 26.531,73.995 26.413,74.113 26.295,74.230 25.376,73.311 24.456,72.392 23.537,71.473 Z " />
  <path stroke="none" fill="#ffffffff" d="M 46.695,55.924 C 47.025,55.594 47.355,55.264 47.685,54.934 47.874,55.123 48.062,55.311 48.251,55.500 47.921,55.830 47.591,56.160 47.261,56.490 47.073,56.301 46.884,56.113 46.695,55.924 Z " />
  <path stroke="none" fill="#ffffffff" d="M 41.178,50.409 C 41.296,50.291 41.414,50.173 41.532,50.055 41.720,50.244 41.909,50.432 42.098,50.621 41.980,50.739 41.862,50.856 41.744,50.974 41.555,50.786 41.367,50.597 41.178,50.409 Z " />
  <path stroke="none" fill="#ffffffff" d="M 29.049,73.600 C 32.514,70.135 35.978,66.670 39.443,63.205 39.632,63.394 39.820,63.582 40.009,63.771 36.544,67.236 33.079,70.701 29.615,74.165 29.426,73.977 29.237,73.788 29.049,73.600 Z " />
  <path stroke="none" fill="#ffffffff" d="M 55.642,47.012 C 56.490,46.163 57.339,45.315 58.187,44.466 58.376,44.655 58.564,44.843 58.753,45.032 57.905,45.881 57.056,46.729 56.207,47.578 56.019,47.389 55.830,47.200 55.642,47.012 Z " />
  <path stroke="none" fill="#ffffffff" d="M 23.560,68.071 C 27.025,64.606 30.490,61.141 33.955,57.677 34.143,57.865 34.332,58.054 34.521,58.242 31.056,61.707 27.591,65.172 24.126,68.637 23.938,68.448 23.749,68.259 23.560,68.071 Z " />
  <path stroke="none" fill="#ffffffff" d="M 50.150,41.483 C 50.999,40.635 51.847,39.786 52.696,38.937 52.884,39.126 53.073,39.315 53.261,39.503 52.413,40.352 51.564,41.200 50.716,42.049 50.527,41.860 50.339,41.672 50.150,41.483 Z " />
  <path stroke="none" fill="#ffffffff" d="M 49.692,53.039 C 51.059,51.672 52.426,50.305 53.793,48.938 53.982,49.127 54.170,49.315 54.359,49.504 52.992,50.871 51.625,52.238 50.258,53.605 50.069,53.417 49.881,53.228 49.692,53.039 Z " />
  <path stroke="none" fill="#ffffffff" d="M 44.158,47.448 C 44.252,47.354 44.346,47.260 44.441,47.166 44.629,47.354 44.818,47.543 45.006,47.731 44.912,47.826 44.818,47.920 44.723,48.014 44.535,47.826 44.346,47.637 44.158,47.448 Z " />
  <path stroke="none" fill="#ffffffff" d="M 48.403,54.265 C 48.709,53.958 49.016,53.652 49.322,53.345 49.511,53.534 49.699,53.723 49.888,53.911 49.581,54.218 49.275,54.524 48.969,54.830 48.780,54.642 48.591,54.453 48.403,54.265 Z " />
  <path stroke="none" fill="#ffffffff" d="M 42.912,48.745 C 43.218,48.439 43.525,48.132 43.831,47.826 44.020,48.015 44.208,48.203 44.397,48.392 44.090,48.698 43.784,49.004 43.477,49.311 43.289,49.122 43.100,48.934 42.912,48.745 Z " />
  <path stroke="none" fill="#ffffffff" d="M 54.093,48.561 C 54.399,48.254 54.705,47.948 55.012,47.641 55.200,47.830 55.389,48.018 55.577,48.207 55.271,48.513 54.965,48.820 54.658,49.126 54.470,48.938 54.281,48.749 54.093,48.561 Z " />
  <path stroke="none" fill="#ffffffff" d="M 48.531,43.108 C 48.837,42.801 49.144,42.495 49.450,42.188 49.639,42.377 49.827,42.566 50.016,42.754 49.709,43.061 49.403,43.367 49.096,43.673 48.908,43.485 48.719,43.296 48.531,43.108 Z " />
  <path stroke="none" fill="#ffffffff" d="M 46.800,44.900 C 46.967,45.067 47.133,45.233 47.300,45.400 47.800,44.933 48.300,44.467 48.800,44.000 48.600,43.800 48.400,43.600 48.200,43.400 47.733,43.867 47.267,44.333 46.800,44.800 46.800,44.833 46.800,44.867 46.800,44.900 Z " />
  <path stroke="none" fill="#ffffffff" d="M 47.713,54.989 C 47.831,54.871 47.949,54.754 48.067,54.636 48.255,54.824 48.444,55.013 48.632,55.201 48.514,55.319 48.396,55.437 48.279,55.555 48.090,55.366 47.902,55.178 47.713,54.989 Z " />
  <path stroke="none" fill="#ffffffff" d="M 42.249,49.344 C 42.343,49.250 42.437,49.155 42.531,49.061 42.720,49.250 42.909,49.438 43.097,49.627 43.003,49.721 42.909,49.815 42.814,49.910 42.626,49.721 42.437,49.532 42.249,49.344 Z " />
  <path stroke="none" fill="#ffffffff" d="M 55.349,47.270 C 55.467,47.153 55.584,47.035 55.702,46.917 55.891,47.105 56.079,47.294 56.268,47.483 56.150,47.600 56.032,47.718 55.914,47.836 55.726,47.648 55.537,47.459 55.349,47.270 Z " />
  <path stroke="none" fill="#ffffffff" d="M 49.786,41.812 C 49.904,41.695 50.022,41.577 50.140,41.459 50.329,41.647 50.517,41.836 50.706,42.024 50.588,42.142 50.470,42.260 50.352,42.378 50.164,42.189 49.975,42.001 49.786,41.812 Z " />
  <path stroke="none" fill="#ffffffff" d="M 48.049,54.564 C 48.167,54.446 48.285,54.329 48.403,54.211 48.592,54.399 48.780,54.588 48.969,54.776 48.851,54.894 48.733,55.012 48.615,55.130 48.427,54.941 48.238,54.753 48.049,54.564 Z " />
  <path stroke="none" fill="#ffffffff" d="M 49.521,42.168 C 49.638,42.050 49.756,41.932 49.874,41.814 50.063,42.003 50.251,42.191 50.440,42.380 50.322,42.498 50.204,42.616 50.086,42.734 49.898,42.545 49.709,42.356 49.521,42.168 Z " />
  <path stroke="none" fill="#ffffffff" d="M 55.012,47.689 C 55.129,47.571 55.247,47.453 55.365,47.335 55.554,47.524 55.742,47.712 55.931,47.901 55.813,48.019 55.695,48.137 55.577,48.255 55.389,48.066 55.200,47.877 55.012,47.689 Z " />
  <path stroke="none" fill="#ffffffff" d="M 42.488,49.116 C 42.606,48.998 42.723,48.880 42.841,48.762 43.030,48.951 43.218,49.140 43.407,49.328 43.289,49.446 43.171,49.564 43.053,49.682 42.865,49.493 42.676,49.305 42.488,49.116 Z " />
  <path stroke="none" fill="#ffffffff" d="M 43.831,47.872 C 43.949,47.754 44.067,47.636 44.185,47.519 44.373,47.707 44.562,47.896 44.750,48.084 44.633,48.202 44.515,48.320 44.397,48.438 44.208,48.249 44.020,48.061 43.831,47.872 Z " />
  <path stroke="none" fill="#ffffffff" d="M 49.322,53.397 C 49.440,53.279 49.558,53.161 49.676,53.043 49.864,53.232 50.053,53.421 50.241,53.609 50.123,53.727 50.006,53.845 49.888,53.963 49.699,53.774 49.511,53.586 49.322,53.397 Z " />
  <path stroke="none" fill="#ffffffff" d="M 53.739,49.004 C 53.857,48.886 53.975,48.768 54.093,48.651 54.281,48.839 54.470,49.028 54.658,49.216 54.540,49.334 54.422,49.452 54.305,49.570 54.116,49.381 53.928,49.193 53.739,49.004 Z " />
  <path stroke="none" fill="#ffffffff" d="M 48.177,43.412 C 48.295,43.294 48.413,43.176 48.531,43.058 48.719,43.247 48.908,43.435 49.096,43.624 48.979,43.742 48.861,43.860 48.743,43.977 48.554,43.789 48.366,43.600 48.177,43.412 Z " />
  <path stroke="none" fill="#ffffffff" d="M 50.727,41.961 C 51.575,41.113 52.424,40.264 53.272,39.416 53.649,39.793 54.026,40.170 54.404,40.547 53.555,41.395 52.707,42.244 51.858,43.093 51.481,42.715 51.104,42.338 50.727,41.961 Z " />
  <path stroke="none" fill="#ffffffff" d="M 24.065,68.620 C 27.529,65.155 30.994,61.690 34.459,58.225 34.836,58.602 35.213,58.980 35.590,59.357 32.126,62.821 28.661,66.286 25.196,69.751 24.819,69.374 24.442,68.997 24.065,68.620 Z " />
  <path stroke="none" fill="#ffffffff" d="M 27.980,72.481 C 31.445,69.016 34.910,65.551 38.375,62.087 38.752,62.464 39.129,62.841 39.506,63.218 36.041,66.683 32.576,70.148 29.112,73.612 28.735,73.235 28.357,72.858 27.980,72.481 Z " />
  <path stroke="none" fill="#ffffffff" d="M 54.570,45.898 C 55.419,45.049 56.267,44.201 57.116,43.352 57.493,43.729 57.870,44.106 58.247,44.484 57.399,45.332 56.550,46.181 55.702,47.029 55.325,46.652 54.948,46.275 54.570,45.898 Z " />
  <path stroke="none" fill="#ffffffff" d="M 41.754,51.032 C 41.872,50.914 41.990,50.796 42.107,50.678 42.485,51.055 42.862,51.432 43.239,51.809 43.121,51.927 43.003,52.045 42.885,52.163 42.508,51.786 42.131,51.409 41.754,51.032 Z " />
  <path stroke="none" fill="#ffffffff" d="M 46.700,55.200 C 46.467,54.967 46.233,54.733 46.000,54.500 45.867,54.600 45.733,54.700 45.600,54.800 45.967,55.200 46.333,55.600 46.700,56.000 47.033,55.667 47.367,55.333 47.700,55.000 47.567,54.833 47.433,54.667 47.300,54.500 47.100,54.733 46.900,54.967 46.700,55.200 Z " />
  <path stroke="none" fill="#ffffffff" d="M 44.734,48.061 C 44.828,47.967 44.922,47.873 45.017,47.778 45.394,48.155 45.771,48.533 46.148,48.910 46.054,49.004 45.960,49.098 45.865,49.193 45.488,48.815 45.111,48.438 44.734,48.061 Z " />
  <path stroke="none" fill="#ffffffff" d="M 47.300,53.200 C 47.300,53.200 47.300,53.200 47.300,53.200 47.600,52.900 47.900,52.600 48.200,52.300 48.200,52.300 48.200,52.300 48.200,52.300 47.900,52.600 47.600,52.900 47.300,53.200 Z " />
  <path stroke="none" fill="#ffffffff" d="M 49.107,43.584 C 49.413,43.278 49.720,42.972 50.026,42.665 50.403,43.042 50.781,43.419 51.158,43.797 50.851,44.103 50.545,44.409 50.238,44.716 49.861,44.339 49.484,43.962 49.107,43.584 Z " />
  <path stroke="none" fill="#ffffffff" d="M 47.970,53.844 C 48.276,53.537 48.583,53.231 48.889,52.925 49.031,53.066 49.172,53.207 49.314,53.349 49.007,53.655 48.701,53.962 48.394,54.268 48.253,54.127 48.111,53.985 47.970,53.844 Z " />
  <path stroke="none" fill="#ffffffff" d="M 51.200,49.300 C 51.200,49.300 51.200,49.300 51.200,49.300 51.433,49.500 51.667,49.700 51.900,49.900 51.667,50.133 51.433,50.367 51.200,50.600 50.533,51.267 49.867,51.933 49.200,52.600 49.367,52.733 49.533,52.867 49.700,53.000 51.033,51.633 52.367,50.267 53.700,48.900 53.333,48.533 52.967,48.167 52.600,47.800 52.133,48.300 51.667,48.800 51.200,49.300 Z " />
  <path stroke="none" fill="#ffffffff" d="M 43.417,49.289 C 43.724,48.982 44.030,48.676 44.337,48.369 44.714,48.746 45.091,49.124 45.468,49.501 45.162,49.807 44.855,50.114 44.549,50.420 44.172,50.043 43.794,49.666 43.417,49.289 Z " />
  <path stroke="none" fill="#ffffffff" d="M 52.951,47.524 C 53.257,47.218 53.564,46.911 53.870,46.605 54.247,46.982 54.624,47.359 55.002,47.736 54.695,48.043 54.389,48.349 54.082,48.655 53.705,48.278 53.328,47.901 52.951,47.524 Z " />
  <path stroke="none" fill="#ffffffff" d="M 47.373,45.426 C 47.845,44.955 48.316,44.483 48.787,44.012 49.164,44.389 49.542,44.766 49.919,45.143 49.447,45.615 48.976,46.086 48.504,46.558 48.127,46.181 47.750,45.803 47.373,45.426 Z " />
  <path stroke="none" fill="#ffffffff" d="M 42.825,49.957 C 42.919,49.863 43.013,49.769 43.108,49.675 43.485,50.052 43.862,50.429 44.239,50.806 44.145,50.900 44.051,50.995 43.956,51.089 43.579,50.712 43.202,50.335 42.825,49.957 Z " />
  <path stroke="none" fill="#ffffffff" d="M 46.700,53.800 C 46.700,53.800 46.700,53.800 46.700,53.800 46.767,53.700 46.833,53.600 46.900,53.500 46.900,53.500 46.900,53.500 46.900,53.500 46.833,53.600 46.767,53.700 46.700,53.800 Z " />
  <path stroke="none" fill="#ffffffff" d="M 50.434,42.365 C 50.552,42.247 50.670,42.129 50.788,42.011 51.165,42.388 51.542,42.765 51.919,43.142 51.801,43.260 51.683,43.378 51.565,43.496 51.188,43.119 50.811,42.742 50.434,42.365 Z " />
  <path stroke="none" fill="#ffffffff" d="M 54.206,46.223 C 54.324,46.105 54.442,45.987 54.560,45.869 54.937,46.246 55.314,46.623 55.691,47.000 55.573,47.118 55.456,47.236 55.338,47.354 54.961,46.977 54.583,46.600 54.206,46.223 Z " />
  <path stroke="none" fill="#ffffffff" d="M 47.300,54.500 C 47.300,54.500 47.300,54.500 47.300,54.500 47.433,54.667 47.567,54.833 47.700,55.000 47.833,54.867 47.967,54.733 48.100,54.600 47.933,54.467 47.767,54.333 47.600,54.200 47.500,54.300 47.400,54.400 47.300,54.500 Z " />
  <path stroke="none" fill="#ffffffff" d="M 43.134,49.661 C 43.252,49.544 43.370,49.426 43.488,49.308 43.865,49.685 44.242,50.062 44.619,50.439 44.502,50.557 44.384,50.675 44.266,50.793 43.889,50.416 43.512,50.038 43.134,49.661 Z " />
  <path stroke="none" fill="#ffffffff" d="M 53.940,46.578 C 54.058,46.460 54.176,46.342 54.294,46.224 54.671,46.602 55.048,46.979 55.425,47.356 55.307,47.474 55.190,47.591 55.072,47.709 54.695,47.332 54.317,46.955 53.940,46.578 Z " />
  <path stroke="none" fill="#ffffffff" d="M 47.616,54.146 C 47.734,54.028 47.852,53.910 47.970,53.792 48.111,53.934 48.253,54.075 48.394,54.217 48.276,54.334 48.159,54.452 48.041,54.570 47.899,54.429 47.758,54.287 47.616,54.146 Z " />
  <path stroke="none" fill="#ffffffff" d="M 46.900,53.500 C 46.900,53.500 46.900,53.500 46.900,53.500 47.033,53.400 47.167,53.300 47.300,53.200 47.300,53.200 47.300,53.200 47.300,53.200 47.167,53.300 47.033,53.400 46.900,53.500 Z " />
  <path stroke="none" fill="#ffffffff" d="M 50.026,42.717 C 50.144,42.599 50.262,42.481 50.380,42.363 50.757,42.740 51.134,43.117 51.511,43.494 51.393,43.612 51.275,43.730 51.158,43.848 50.781,43.471 50.403,43.094 50.026,42.717 Z " />
  <path stroke="none" fill="#ffffffff" d="M 44.336,48.421 C 44.454,48.303 44.572,48.185 44.690,48.067 45.067,48.444 45.444,48.822 45.821,49.199 45.704,49.316 45.586,49.434 45.468,49.552 45.091,49.175 44.714,48.798 44.336,48.421 Z " />
  <path stroke="none" fill="#ffffffff" d="M 48.889,52.976 C 49.007,52.858 49.125,52.740 49.243,52.623 49.384,52.764 49.526,52.905 49.667,53.047 49.549,53.165 49.431,53.282 49.314,53.400 49.172,53.259 49.031,53.117 48.889,52.976 Z " />
  <path stroke="none" fill="#ffffffff" d="M 48.200,52.300 C 48.200,52.300 48.200,52.300 48.200,52.300 48.333,52.167 48.467,52.033 48.600,51.900 48.600,51.900 48.600,51.900 48.600,51.900 48.467,52.033 48.333,52.167 48.200,52.300 Z " />
  <path stroke="none" fill="#ffffffff" d="M 48.824,43.957 C 48.942,43.839 49.060,43.721 49.178,43.604 49.555,43.981 49.932,44.358 50.309,44.735 50.191,44.853 50.073,44.971 49.955,45.088 49.578,44.711 49.201,44.334 48.824,43.957 Z " />
  <path stroke="none" fill="#ffffffff" d="M 52.597,47.826 C 52.715,47.708 52.833,47.590 52.951,47.472 53.328,47.850 53.705,48.227 54.082,48.604 53.964,48.722 53.847,48.840 53.729,48.957 53.352,48.580 52.974,48.203 52.597,47.826 Z " />
  <path stroke="none" fill="#ffffffff" d="M 25.173,69.774 C 28.638,66.310 32.103,62.845 35.568,59.380 36.487,60.299 37.406,61.219 38.325,62.138 34.861,65.603 31.396,69.067 27.931,72.532 27.012,71.613 26.093,70.694 25.173,69.774 Z " />
  <path stroke="none" fill="#ffffffff" d="M 51.835,43.115 C 52.684,42.267 53.532,41.418 54.381,40.570 55.300,41.489 56.219,42.408 57.138,43.327 56.290,44.176 55.441,45.024 54.593,45.873 53.674,44.954 52.754,44.034 51.835,43.115 Z " />
  <path stroke="none" fill="#ffffffff" d="M 42.863,52.042 C 42.981,51.924 43.099,51.807 43.216,51.689 44.136,52.608 45.055,53.527 45.974,54.446 45.856,54.564 45.738,54.682 45.621,54.800 44.701,53.881 43.782,52.961 42.863,52.042 Z " />
  <path stroke="none" fill="#ffffffff" d="M 48.411,46.514 C 48.883,46.043 49.354,45.572 49.825,45.100 50.745,46.019 51.664,46.939 52.583,47.858 52.112,48.329 51.640,48.801 51.169,49.272 50.250,48.353 49.331,47.434 48.411,46.514 Z " />
  <path stroke="none" fill="#ffffffff" d="M 45.772,49.148 C 45.866,49.054 45.960,48.960 46.054,48.865 46.974,49.785 47.893,50.704 48.812,51.623 48.718,51.717 48.624,51.811 48.530,51.906 47.610,50.986 46.691,50.067 45.772,49.148 Z " />
  <path stroke="none" fill="#ffffffff" d="M 50.216,44.740 C 50.522,44.434 50.829,44.127 51.135,43.821 52.054,44.740 52.973,45.659 53.893,46.578 53.586,46.885 53.280,47.191 52.973,47.498 52.054,46.578 51.135,45.659 50.216,44.740 Z " />
  <path stroke="none" fill="#ffffffff" d="M 44.526,50.443 C 44.832,50.137 45.139,49.831 45.445,49.524 46.364,50.443 47.284,51.363 48.203,52.282 47.897,52.588 47.590,52.895 47.284,53.201 46.364,52.282 45.445,51.363 44.526,50.443 Z " />
  <path stroke="none" fill="#ffffffff" d="M 43.863,51.042 C 43.957,50.948 44.051,50.854 44.146,50.759 45.065,51.679 45.984,52.598 46.903,53.517 46.809,53.611 46.715,53.706 46.621,53.800 45.701,52.881 44.782,51.961 43.863,51.042 Z " />
  <path stroke="none" fill="#ffffffff" d="M 51.472,43.444 C 51.589,43.327 51.707,43.209 51.825,43.091 52.744,44.010 53.664,44.929 54.583,45.849 54.465,45.966 54.347,46.084 54.229,46.202 53.310,45.283 52.391,44.364 51.472,43.444 Z " />
  <path stroke="none" fill="#ffffffff" d="M 51.206,43.801 C 51.324,43.684 51.441,43.566 51.559,43.448 52.479,44.367 53.398,45.286 54.317,46.206 54.199,46.323 54.081,46.441 53.963,46.559 53.044,45.640 52.125,44.721 51.206,43.801 Z " />
  <path stroke="none" fill="#ffffffff" d="M 44.172,50.746 C 44.290,50.628 44.408,50.510 44.526,50.393 45.445,51.312 46.364,52.231 47.284,53.150 47.166,53.268 47.048,53.386 46.930,53.504 46.011,52.585 45.092,51.665 44.172,50.746 Z " />
  <path stroke="none" fill="#ffffffff" d="M 45.445,49.435 C 45.563,49.317 45.681,49.199 45.799,49.081 46.718,50.001 47.637,50.920 48.556,51.839 48.439,51.957 48.321,52.075 48.203,52.193 47.284,51.273 46.364,50.354 45.445,49.435 Z " />
  <path stroke="none" fill="#ffffffff" d="M 49.862,45.041 C 49.980,44.923 50.098,44.806 50.216,44.688 51.135,45.607 52.054,46.526 52.973,47.445 52.855,47.563 52.738,47.681 52.620,47.799 51.701,46.880 50.781,45.960 49.862,45.041 Z " />
  <path stroke="none" fill="#ff000000" d="M 43.100,47.200 C 42.800,47.500 42.500,47.800 42.200,48.100 42.200,48.100 42.200,48.100 42.200,48.100 42.500,47.800 42.800,47.500 43.100,47.200 43.100,47.200 43.100,47.200 43.100,47.200 Z " />
  <path stroke="none" fill="#ff000000" d="M 43.500,46.800 C 43.500,46.800 43.500,46.800 43.500,46.800 44.133,46.167 44.767,45.533 45.400,44.900 44.767,45.533 44.133,46.167 43.500,46.800 Z " />
  <path stroke="none" fill="#ffffffff" d="M 45.600,59.500 C 45.000,60.100 44.400,60.700 43.800,61.300 45.067,62.567 46.333,63.833 47.600,65.100 48.200,64.467 48.800,63.833 49.400,63.200 48.500,62.267 47.600,61.333 46.700,60.400 46.667,60.433 46.633,60.467 46.600,60.500 46.267,60.167 45.933,59.833 45.600,59.500 Z " />
  <path stroke="none" fill="#ffffffff" d="M 33.900,56.400 C 34.500,55.800 35.100,55.200 35.700,54.600 34.467,53.333 33.233,52.067 32.000,50.800 31.367,51.433 30.733,52.067 30.100,52.700 31.200,53.800 32.300,54.900 33.400,56.000 33.433,56.000 33.467,56.000 33.500,56.000 33.633,56.133 33.767,56.267 33.900,56.400 Z " />
  <path stroke="none" fill="#ffffffff" d="M 38.200,52.100 C 38.067,51.967 37.933,51.833 37.800,51.700 37.800,51.667 37.800,51.633 37.800,51.600 36.700,50.500 35.600,49.400 34.500,48.300 33.867,48.933 33.233,49.567 32.600,50.200 33.867,51.433 35.133,52.667 36.400,53.900 37.000,53.300 37.600,52.700 38.200,52.100 Z " />
  <path stroke="none" fill="#ffffffff" d="M 41.300,63.800 C 41.633,64.133 41.967,64.467 42.300,64.800 42.267,64.800 42.233,64.800 42.200,64.800 43.133,65.733 44.067,66.667 45.000,67.600 45.633,66.967 46.267,66.333 46.900,65.700 45.633,64.467 44.367,63.233 43.100,62.000 42.500,62.600 41.900,63.200 41.300,63.800 Z " />
  <path stroke="none" fill="#ffffffff" d="M 40.128,62.609 C 40.740,61.996 41.353,61.384 41.966,60.771 42.155,60.959 42.343,61.148 42.532,61.336 41.919,61.949 41.306,62.562 40.693,63.175 40.505,62.986 40.316,62.798 40.128,62.609 Z " />
  <path stroke="none" fill="#ffffffff" d="M 37.122,54.578 C 37.735,53.965 38.348,53.352 38.960,52.740 39.149,52.928 39.337,53.117 39.526,53.305 38.913,53.918 38.300,54.531 37.688,55.144 37.499,54.955 37.310,54.767 37.122,54.578 Z " />
  <path stroke="none" fill="#ffffffff" d="M 42.612,60.107 C 43.224,59.494 43.837,58.881 44.450,58.268 44.639,58.457 44.827,58.645 45.016,58.834 44.403,59.447 43.790,60.060 43.177,60.672 42.989,60.484 42.800,60.295 42.612,60.107 Z " />
  <path stroke="none" fill="#ffffffff" d="M 34.567,57.014 C 35.180,56.401 35.792,55.788 36.405,55.175 36.594,55.364 36.782,55.552 36.971,55.741 36.358,56.354 35.745,56.966 35.132,57.579 34.944,57.391 34.755,57.202 34.567,57.014 Z " />
  <path stroke="none" fill="#ffffffff" d="M 35.142,57.633 C 35.755,57.020 36.368,56.407 36.981,55.795 37.358,56.172 37.735,56.549 38.112,56.926 37.499,57.539 36.886,58.152 36.274,58.764 35.896,58.387 35.519,58.010 35.142,57.633 Z " />
  <path stroke="none" fill="#ffffffff" d="M 41.542,58.988 C 42.155,58.375 42.767,57.762 43.380,57.150 43.757,57.527 44.134,57.904 44.512,58.281 43.899,58.894 43.286,59.507 42.673,60.119 42.296,59.742 41.919,59.365 41.542,58.988 Z " />
  <path stroke="none" fill="#ffffffff" d="M 37.627,55.127 C 38.240,54.514 38.852,53.901 39.465,53.288 39.842,53.665 40.219,54.043 40.597,54.420 39.984,55.032 39.371,55.645 38.758,56.258 38.381,55.881 38.004,55.504 37.627,55.127 Z " />
  <path stroke="none" fill="#ffffffff" d="M 38.987,61.424 C 39.599,60.811 40.212,60.198 40.825,59.585 41.202,59.962 41.579,60.339 41.956,60.717 41.344,61.329 40.731,61.942 40.118,62.555 39.741,62.178 39.364,61.801 38.987,61.424 Z " />
  <path stroke="none" fill="#ffffffff" d="M 36.180,58.718 C 36.793,58.105 37.406,57.492 38.019,56.879 38.938,57.799 39.857,58.718 40.776,59.637 40.163,60.250 39.551,60.863 38.938,61.476 38.019,60.556 37.099,59.637 36.180,58.718 Z " />
  <path stroke="none" fill="#ffffffff" d="M 38.735,56.282 C 39.348,55.669 39.961,55.056 40.574,54.443 41.493,55.362 42.412,56.282 43.332,57.201 42.719,57.814 42.106,58.426 41.493,59.039 40.574,58.120 39.655,57.201 38.735,56.282 Z " />
  <path stroke="none" fill="#ffffffff" d="M 33.899,56.381 C 34.512,55.768 35.125,55.155 35.737,54.542 35.855,54.660 35.973,54.778 36.091,54.896 35.478,55.509 34.865,56.122 34.252,56.734 34.134,56.616 34.017,56.499 33.899,56.381 Z " />
  <path stroke="none" fill="#ffffffff" d="M 36.384,53.874 C 36.996,53.262 37.609,52.649 38.222,52.036 38.340,52.154 38.458,52.272 38.576,52.390 37.963,53.002 37.350,53.615 36.737,54.228 36.619,54.110 36.501,53.992 36.384,53.874 Z " />
  <path stroke="none" fill="#ffffffff" d="M 41.006,63.461 C 41.619,62.848 42.232,62.235 42.845,61.623 42.963,61.740 43.080,61.858 43.198,61.976 42.585,62.589 41.973,63.202 41.360,63.815 41.242,63.697 41.124,63.579 41.006,63.461 Z " />
  <path stroke="none" fill="#ffffffff" d="M 43.491,60.955 C 44.104,60.342 44.716,59.729 45.329,59.116 45.447,59.234 45.565,59.352 45.683,59.470 45.070,60.082 44.457,60.695 43.844,61.308 43.727,61.190 43.609,61.072 43.491,60.955 Z " />
  <path stroke="none" fill="#ffffffff" d="M 43.135,60.689 C 43.748,60.076 44.361,59.463 44.974,58.850 45.092,58.968 45.210,59.086 45.327,59.204 44.715,59.817 44.102,60.429 43.489,61.042 43.371,60.924 43.253,60.807 43.135,60.689 Z " />
  <path stroke="none" fill="#ffffffff" d="M 40.651,63.195 C 41.264,62.582 41.876,61.969 42.489,61.357 42.607,61.474 42.725,61.592 42.843,61.710 42.230,62.323 41.617,62.936 41.004,63.549 40.886,63.431 40.769,63.313 40.651,63.195 Z " />
  <path stroke="none" fill="#ffffffff" d="M 36.740,54.275 C 37.353,53.662 37.966,53.049 38.579,52.436 38.697,52.554 38.814,52.672 38.932,52.790 38.320,53.403 37.707,54.016 37.094,54.628 36.976,54.511 36.858,54.393 36.740,54.275 Z " />
  <path stroke="none" fill="#ffffffff" d="M 34.184,56.714 C 34.797,56.101 35.410,55.488 36.023,54.876 36.141,54.993 36.259,55.111 36.376,55.229 35.764,55.842 35.151,56.455 34.538,57.068 34.420,56.950 34.302,56.832 34.184,56.714 Z " />
  <path stroke="none" fill="#ffffffff" d="M 39.848,52.351 C 39.990,52.210 40.131,52.069 40.273,51.927 40.367,52.021 40.461,52.116 40.556,52.210 40.414,52.351 40.273,52.493 40.131,52.634 40.037,52.540 39.943,52.446 39.848,52.351 Z " />
  <path stroke="none" fill="#ffffffff" d="M 45.030,57.597 C 45.171,57.456 45.312,57.314 45.454,57.173 45.548,57.267 45.642,57.361 45.737,57.456 45.595,57.597 45.454,57.738 45.312,57.880 45.218,57.785 45.124,57.691 45.030,57.597 Z " />
  <path stroke="none" fill="#ffffffff" d="M 40.128,52.617 C 40.270,52.476 40.411,52.335 40.552,52.193 40.930,52.570 41.307,52.947 41.684,53.324 41.542,53.466 41.401,53.607 41.260,53.749 40.882,53.372 40.505,52.994 40.128,52.617 Z " />
  <path stroke="none" fill="#ffffffff" d="M 43.972,56.549 C 44.114,56.408 44.255,56.267 44.397,56.125 44.774,56.502 45.151,56.879 45.528,57.256 45.387,57.398 45.245,57.539 45.104,57.681 44.727,57.304 44.349,56.926 43.972,56.549 Z " />
  <path stroke="none" fill="#ffffffff" d="M 41.237,53.773 C 41.378,53.631 41.520,53.490 41.661,53.349 42.580,54.268 43.500,55.187 44.419,56.106 44.277,56.248 44.136,56.389 43.995,56.531 43.075,55.611 42.156,54.692 41.237,53.773 Z " />
  <path stroke="none" fill="#ffffffff" d="M 44.996,57.707 C 45.019,57.684 45.043,57.660 45.067,57.637 45.161,57.731 45.255,57.825 45.349,57.919 45.326,57.943 45.302,57.967 45.279,57.990 45.184,57.896 45.090,57.802 44.996,57.707 Z " />
  <path stroke="none" fill="#ffffffff" d="M 39.744,52.395 C 39.767,52.371 39.791,52.348 39.814,52.324 39.909,52.418 40.003,52.512 40.097,52.607 40.074,52.630 40.050,52.654 40.027,52.677 39.932,52.583 39.838,52.489 39.744,52.395 Z " />
  <path stroke="none" fill="#ffffffff" d="M 40.024,52.657 C 40.047,52.633 40.071,52.610 40.095,52.586 40.472,52.963 40.849,53.341 41.226,53.718 41.202,53.741 41.179,53.765 41.155,53.788 40.778,53.411 40.401,53.034 40.024,52.657 Z " />
  <path stroke="none" fill="#ffffffff" d="M 43.868,56.589 C 43.892,56.565 43.915,56.541 43.939,56.518 44.316,56.895 44.693,57.272 45.070,57.650 45.046,57.673 45.023,57.697 44.999,57.720 44.622,57.343 44.245,56.966 43.868,56.589 Z " />
  <path stroke="none" fill="#ffffffff" d="M 41.133,53.811 C 41.156,53.787 41.180,53.764 41.203,53.740 42.123,54.659 43.042,55.579 43.961,56.498 43.938,56.522 43.914,56.545 43.890,56.569 42.971,55.649 42.052,54.730 41.133,53.811 Z " />
  <path stroke="none" fill="#ffffffff" d="M 45.657,57.048 C 45.799,56.907 45.940,56.765 46.082,56.624 46.176,56.718 46.270,56.812 46.365,56.907 46.223,57.048 46.082,57.190 45.940,57.331 45.846,57.237 45.752,57.143 45.657,57.048 Z " />
  <path stroke="none" fill="#ffffffff" d="M 40.330,51.802 C 40.471,51.661 40.613,51.519 40.754,51.378 40.848,51.472 40.943,51.567 41.037,51.661 40.895,51.802 40.754,51.944 40.613,52.085 40.518,51.991 40.424,51.897 40.330,51.802 Z " />
  <path stroke="none" fill="#ffffffff" d="M 40.610,52.068 C 40.751,51.927 40.893,51.785 41.034,51.644 41.411,52.021 41.788,52.398 42.165,52.775 42.024,52.917 41.882,53.058 41.741,53.200 41.364,52.822 40.987,52.445 40.610,52.068 Z " />
  <path stroke="none" fill="#ffffffff" d="M 44.524,55.933 C 44.665,55.792 44.807,55.651 44.948,55.509 45.325,55.886 45.703,56.263 46.080,56.640 45.938,56.782 45.797,56.923 45.655,57.065 45.278,56.688 44.901,56.310 44.524,55.933 Z " />
  <path stroke="none" fill="#ffffffff" d="M 41.718,53.224 C 41.860,53.082 42.001,52.941 42.143,52.799 43.062,53.719 43.981,54.638 44.900,55.557 44.759,55.699 44.617,55.840 44.476,55.981 43.557,55.062 42.637,54.143 41.718,53.224 Z " />
  <path stroke="none" fill="#ffffffff" d="M 40.266,51.900 C 40.313,51.853 40.360,51.806 40.407,51.759 40.502,51.853 40.596,51.947 40.690,52.042 40.643,52.089 40.596,52.136 40.549,52.183 40.455,52.089 40.360,51.994 40.266,51.900 Z " />
  <path stroke="none" fill="#ffffffff" d="M 45.523,57.217 C 45.570,57.170 45.617,57.123 45.664,57.075 45.759,57.170 45.853,57.264 45.947,57.358 45.900,57.405 45.853,57.452 45.806,57.500 45.712,57.405 45.617,57.311 45.523,57.217 Z " />
  <path stroke="none" fill="#ffffffff" d="M 44.390,56.098 C 44.437,56.051 44.484,56.004 44.531,55.957 44.909,56.334 45.286,56.711 45.663,57.088 45.616,57.135 45.568,57.182 45.521,57.229 45.144,56.852 44.767,56.475 44.390,56.098 Z " />
  <path stroke="none" fill="#ffffffff" d="M 40.546,52.166 C 40.593,52.119 40.640,52.072 40.687,52.025 41.064,52.402 41.441,52.779 41.819,53.156 41.771,53.203 41.724,53.250 41.677,53.297 41.300,52.920 40.923,52.543 40.546,52.166 Z " />
  <path stroke="none" fill="#ffffffff" d="M 41.654,53.321 C 41.702,53.274 41.749,53.226 41.796,53.179 42.715,54.099 43.634,55.018 44.554,55.937 44.506,55.984 44.459,56.031 44.412,56.078 43.493,55.159 42.574,54.240 41.654,53.321 Z " />
  <path stroke="none" fill="#ffffffff" d="M 40.792,51.410 C 40.816,51.386 40.839,51.362 40.863,51.339 40.957,51.433 41.052,51.527 41.146,51.622 41.122,51.645 41.099,51.669 41.075,51.692 40.981,51.598 40.887,51.504 40.792,51.410 Z " />
  <path stroke="none" fill="#ffffffff" d="M 46.040,56.580 C 46.063,56.556 46.087,56.533 46.111,56.509 46.205,56.604 46.299,56.698 46.393,56.792 46.370,56.816 46.346,56.839 46.323,56.863 46.228,56.769 46.134,56.674 46.040,56.580 Z " />
  <path stroke="none" fill="#ffffffff" d="M 41.067,51.679 C 41.090,51.655 41.114,51.632 41.138,51.608 41.515,51.985 41.892,52.362 42.269,52.739 42.246,52.763 42.222,52.786 42.199,52.810 41.821,52.433 41.444,52.056 41.067,51.679 Z " />
  <path stroke="none" fill="#ffffffff" d="M 44.982,55.536 C 45.006,55.513 45.029,55.489 45.053,55.466 45.430,55.843 45.807,56.220 46.184,56.597 46.161,56.621 46.137,56.644 46.114,56.668 45.736,56.291 45.359,55.914 44.982,55.536 Z " />
  <path stroke="none" fill="#ffffffff" d="M 42.247,52.760 C 42.270,52.736 42.294,52.713 42.317,52.689 43.237,53.608 44.156,54.528 45.075,55.447 45.052,55.470 45.028,55.494 45.004,55.517 44.085,54.598 43.166,53.679 42.247,52.760 Z " />
  <path stroke="none" fill="#ff000000" d="M 43.800,47.800 C 43.800,47.800 43.800,47.800 43.800,47.800 43.500,48.133 43.200,48.467 42.900,48.800 42.900,48.800 42.900,48.800 42.900,48.800 43.200,48.467 43.500,48.133 43.800,47.800 Z " />
  <path stroke="none" fill="#ff000000" d="M 44.500,47.200 C 44.367,47.300 44.233,47.400 44.100,47.500 44.100,47.500 44.100,47.500 44.100,47.500 44.233,47.400 44.367,47.300 44.500,47.200 44.500,47.200 44.500,47.200 44.500,47.200 Z " />
  <path stroke="none" fill="#ff000000" d="M 42.900,48.800 C 42.767,48.900 42.633,49.000 42.500,49.100 42.500,49.100 42.500,49.100 42.500,49.100 42.633,49.000 42.767,48.900 42.900,48.800 42.900,48.800 42.900,48.800 42.900,48.800 Z " />
  <path stroke="none" fill="#ff000000" d="M 44.100,47.500 C 44.100,47.500 44.100,47.500 44.100,47.500 44.000,47.600 43.900,47.700 43.800,47.800 43.800,47.800 43.800,47.800 43.800,47.800 43.900,47.700 44.000,47.600 44.100,47.500 Z " />
  <path stroke="none" fill="none" d="M 72.200,28.200 C 71.300,27.300 70.400,26.400 69.500,25.500 70.400,26.400 71.300,27.300 72.200,28.200 72.200,28.200 72.200,28.200 72.200,28.200 Z " />
  <path stroke="none" fill="#ffffffff" d="M 72.200,28.200 C 71.300,27.300 70.400,26.400 69.500,25.500 68.433,26.533 67.367,27.567 66.300,28.600 67.233,29.533 68.167,30.467 69.100,31.400 70.133,30.333 71.167,29.267 72.200,28.200 72.200,28.200 72.200,28.200 72.200,28.200 72.200,28.200 72.200,28.200 72.200,28.200 Z " />
  <path stroke="none" fill="#ffffffff" d="M 73.900,25.900 C 73.200,25.200 72.500,24.500 71.800,23.800 71.600,23.600 71.300,23.600 71.100,23.800 70.633,24.267 70.167,24.733 69.700,25.200 70.633,26.133 71.567,27.067 72.500,28.000 72.967,27.533 73.433,27.067 73.900,26.600 74.100,26.300 74.100,26.000 73.900,25.900 73.900,25.900 73.900,25.900 73.900,25.900 Z " />
</svg>