<?xml version="1.0" encoding="UTF-8" standalone="no"?>
<!DOCTYPE svg PUBLIC "-//W3C//DTD SVG 20010904//EN" "http://www.w3.org/TR/2001/REC-SVG-20010904/DTD/svg10.dtd"[]>
<svg version="1.1" id="Frosty Editor v1.0.6.3" xmlns="http://www.w3.org/2000/svg" d1p1:xlink="http://www.w3.org/1999/xlink" viewBox="0 0 101 25" xmlns:d1p1="xmlns">
  <path stroke="none" fill="#ffffffff" d="M 44.290,1.920 C 44.095,1.929 44.082,2.220 43.809,4.650 43.650,6.066 43.516,7.226 43.513,7.232 43.507,7.238 43.244,7.284 42.927,7.333 39.337,7.892 37.024,8.539 35.015,9.540 33.447,10.324 32.436,11.139 31.426,12.442 31.298,12.610 31.188,12.751 31.185,12.754 31.182,12.757 30.754,12.809 30.236,12.870 29.717,12.931 29.265,12.995 29.231,13.013 29.201,13.028 29.073,13.257 28.948,13.520 28.822,13.782 28.603,14.194 28.459,14.433 28.197,14.872 28.197,14.872 28.197,14.872 27.751,15.241 27.751,15.241 27.751,15.241 27.177,15.721 27.165,15.736 27.257,15.910 27.299,15.995 27.385,16.044 27.885,16.276 28.465,16.542 28.465,16.542 28.465,16.542 28.682,16.844 28.682,16.844 28.682,16.844 28.899,17.143 28.899,17.143 28.899,17.143 29.012,17.677 29.012,17.677 29.012,17.677 29.076,17.970 29.134,18.236 29.143,18.263 29.155,18.315 29.103,18.318 28.380,18.318 27.623,18.318 27.601,18.321 27.501,18.388 27.257,18.550 27.141,18.971 27.119,19.768 27.089,20.705 27.232,21.325 27.513,21.483 27.565,21.511 28.200,21.520 30.181,21.523 32.784,21.523 32.784,21.523 32.784,21.523 33.202,21.703 33.202,21.703 33.202,21.703 34.289,22.164 36.242,22.674 37.332,22.777 37.854,22.826 63.188,22.826 63.691,22.777 64.842,22.664 66.912,22.112 67.977,21.636 68.148,21.560 68.148,21.560 68.148,21.560 69.640,21.999 69.640,21.999 69.640,21.999 70.464,22.240 71.173,22.439 71.215,22.439 71.258,22.439 71.322,22.408 71.362,22.365 71.423,22.298 71.438,22.228 71.487,21.685 71.521,21.352 71.545,21.065 71.548,21.044 71.548,21.025 71.798,20.903 72.107,20.775 73.202,20.314 73.218,20.305 73.257,20.210 73.279,20.159 73.288,20.085 73.276,20.046 73.263,19.994 72.983,19.765 72.320,19.261 71.801,18.874 71.368,18.544 71.356,18.532 71.340,18.520 71.356,18.422 71.389,18.315 71.609,17.601 71.612,16.697 71.398,15.852 71.200,15.086 70.715,14.054 70.171,13.248 70.055,13.077 70.055,13.077 70.055,13.077 70.498,11.371 70.498,11.371 70.498,11.371 70.739,10.434 70.938,9.634 70.938,9.598 70.938,9.491 70.904,9.436 70.812,9.390 70.739,9.351 70.355,9.344 68.160,9.344 65.593,9.344 65.593,9.344 65.593,9.344 65.450,9.271 65.450,9.271 65.450,9.271 64.995,9.042 63.652,8.557 62.776,8.304 61.991,8.078 60.694,7.779 59.797,7.620 56.928,7.116 55.896,6.997 53.234,6.857 52.722,6.829 51.968,6.787 51.556,6.759 50.686,6.704 50.399,6.701 49.755,6.747 49.495,6.762 48.857,6.799 48.335,6.826 47.817,6.851 47.069,6.893 46.675,6.921 46.284,6.945 45.961,6.964 45.955,6.958 45.952,6.951 45.997,6.512 46.058,5.981 46.138,5.276 46.159,5.004 46.135,4.980 46.092,4.937 45.650,4.900 45.625,4.937 45.616,4.952 45.558,5.419 45.497,5.972 45.436,6.527 45.375,6.988 45.363,7.000 45.353,7.012 45.195,7.034 45.009,7.052 44.825,7.070 44.600,7.095 44.514,7.104 44.368,7.122 44.352,7.119 44.352,7.067 44.352,7.037 44.474,5.920 44.627,4.589 44.835,2.730 44.893,2.153 44.865,2.098 44.850,2.059 44.798,2.010 44.752,1.988 44.709,1.970 44.578,1.946 44.459,1.937 44.389,1.931 44.335,1.918 44.290,1.920 Z M 50.516,7.703 C 50.764,7.705 51.047,7.718 51.495,7.742 51.955,7.766 52.737,7.809 53.228,7.834 54.864,7.919 56.192,8.035 57.233,8.188 58.915,8.429 60.529,8.734 61.750,9.039 62.559,9.241 63.859,9.662 64.543,9.943 65.596,10.376 66.744,11.029 67.443,11.594 67.745,11.838 68.328,12.418 68.517,12.659 68.615,12.784 68.615,12.784 68.615,12.784 68.349,12.803 68.349,12.803 68.349,12.803 67.354,12.873 66.481,13.657 66.072,14.842 65.685,15.974 65.831,17.360 66.438,18.324 66.478,18.388 66.512,18.446 66.512,18.455 66.512,18.465 64.964,18.471 63.072,18.471 59.629,18.471 59.629,18.471 59.430,18.404 59.147,18.309 58.637,18.309 58.371,18.404 58.185,18.468 58.145,18.471 56.729,18.471 55.933,18.471 55.279,18.465 55.279,18.455 55.279,18.449 55.334,18.352 55.401,18.242 55.994,17.277 56.287,16.230 56.287,15.098 56.287,13.413 55.640,11.921 54.403,10.748 53.567,9.952 52.462,9.418 51.293,9.234 50.835,9.164 49.999,9.164 49.559,9.234 47.893,9.500 46.471,10.416 45.530,11.829 45.033,12.577 44.712,13.471 44.593,14.420 44.548,14.802 44.572,15.766 44.639,16.123 44.780,16.880 45.060,17.607 45.457,18.248 45.521,18.352 45.573,18.446 45.573,18.455 45.573,18.465 43.305,18.471 40.534,18.471 35.495,18.471 35.495,18.471 35.495,18.471 35.513,18.400 35.513,18.400 35.513,18.400 35.522,18.364 35.562,18.175 35.598,17.982 35.656,17.683 35.669,17.528 35.669,16.945 35.669,16.209 35.650,16.041 35.498,15.455 35.287,14.631 34.915,13.941 34.405,13.434 34.136,13.169 33.993,13.062 33.654,12.888 33.398,12.757 33.126,12.684 32.757,12.647 32.528,12.626 32.528,12.626 32.528,12.626 32.778,12.348 32.778,12.348 32.778,12.348 34.286,10.672 37.012,9.442 40.903,8.676 43.568,8.151 45.216,7.959 48.397,7.800 48.934,7.776 49.544,7.742 49.755,7.730 50.057,7.710 50.268,7.701 50.516,7.703 Z M 50.430,9.655 C 50.548,9.655 50.663,9.663 50.854,9.680 51.495,9.735 52.071,9.888 52.633,10.141 54.342,10.922 55.517,12.528 55.768,14.420 55.814,14.774 55.804,15.492 55.749,15.867 55.481,17.689 54.370,19.206 52.703,20.018 52.084,20.317 51.388,20.482 50.600,20.507 49.831,20.531 49.269,20.445 48.595,20.201 47.307,19.734 46.214,18.742 45.598,17.485 44.972,16.209 44.877,14.680 45.341,13.328 45.872,11.771 47.063,10.553 48.607,9.985 49.083,9.808 49.474,9.723 49.984,9.680 50.190,9.663 50.312,9.655 50.430,9.655 Z M 68.499,9.833 C 70.287,9.833 70.391,9.836 70.376,9.885 70.367,9.915 70.226,10.455 70.068,11.084 69.906,11.713 69.753,12.302 69.726,12.391 69.683,12.549 69.683,12.549 69.683,12.549 69.421,12.223 69.421,12.223 69.421,12.223 69.097,11.820 68.297,11.017 67.946,10.745 67.632,10.501 67.058,10.111 66.796,9.964 66.689,9.906 66.603,9.851 66.603,9.845 66.603,9.839 67.455,9.833 68.499,9.833 Z M 42.590,10.292 C 41.972,10.293 41.355,10.303 41.309,10.321 41.239,10.349 41.239,10.349 41.239,10.349 41.239,12.073 41.239,12.073 41.239,12.073 41.239,13.615 41.245,13.795 41.288,13.813 41.315,13.822 41.907,13.831 42.609,13.831 43.559,13.831 43.891,13.822 43.919,13.795 43.946,13.767 43.955,13.340 43.955,12.055 43.955,10.352 43.955,10.352 43.955,10.352 43.876,10.321 43.876,10.321 43.876,10.321 43.827,10.301 43.208,10.292 42.590,10.292 Z M 41.483,10.565 C 42.597,10.565 42.597,10.565 42.597,10.565 43.711,10.565 43.711,10.565 43.711,10.565 43.711,12.076 43.711,12.076 43.711,12.076 43.711,13.587 43.711,13.587 43.711,13.587 42.597,13.587 42.597,13.587 42.597,13.587 41.483,13.587 41.483,13.587 41.483,13.587 41.483,12.076 41.483,12.076 41.483,12.076 Z M 50.480,10.843 C 50.084,10.839 49.674,10.885 49.331,10.974 47.975,11.334 46.919,12.302 46.492,13.575 46.174,14.518 46.257,15.571 46.715,16.478 47.255,17.552 48.305,18.333 49.578,18.614 49.938,18.690 50.915,18.690 51.275,18.614 52.859,18.266 54.058,17.155 54.443,15.672 54.550,15.266 54.577,14.564 54.504,14.136 54.214,12.482 52.908,11.215 51.162,10.904 50.951,10.865 50.718,10.845 50.480,10.843 Z M 50.399,11.095 C 50.722,11.096 51.067,11.119 51.250,11.161 52.828,11.508 53.979,12.653 54.257,14.152 54.297,14.362 54.306,14.533 54.294,14.884 54.275,15.443 54.196,15.791 53.973,16.258 53.772,16.673 53.613,16.902 53.289,17.238 52.532,18.022 51.534,18.440 50.426,18.440 49.373,18.440 48.412,18.059 47.676,17.350 47.307,16.993 47.133,16.758 46.913,16.319 46.657,15.800 46.577,15.470 46.559,14.869 46.547,14.466 46.553,14.347 46.611,14.078 46.925,12.546 48.110,11.441 49.770,11.130 49.909,11.105 50.147,11.093 50.399,11.095 Z M 42.568,11.309 C 42.469,11.309 42.375,11.318 42.304,11.338 41.749,11.496 41.498,11.994 41.764,12.421 41.834,12.537 42.020,12.684 42.185,12.754 42.356,12.824 42.695,12.839 42.887,12.784 43.281,12.668 43.501,12.433 43.522,12.104 43.543,11.780 43.379,11.542 43.021,11.383 42.913,11.336 42.734,11.309 42.568,11.309 Z M 42.582,11.431 C 42.606,11.430 42.629,11.431 42.652,11.432 43.305,11.466 43.635,12.049 43.229,12.455 42.994,12.687 42.628,12.763 42.280,12.650 42.106,12.595 41.901,12.436 41.834,12.302 41.776,12.192 41.776,11.930 41.831,11.823 41.914,11.664 42.081,11.539 42.323,11.460 42.380,11.442 42.481,11.431 42.582,11.431 Z M 32.679,12.894 C 33.246,12.898 33.777,13.146 34.255,13.627 34.658,14.033 35.031,14.695 35.211,15.318 35.394,15.943 35.424,16.175 35.421,16.929 35.421,17.677 35.397,17.872 35.238,18.449 35.095,18.965 34.933,19.316 34.652,19.740 34.326,20.226 33.935,20.577 33.498,20.778 32.827,21.090 32.137,21.025 31.490,20.595 30.245,19.765 29.592,17.705 29.976,15.812 30.165,14.881 30.535,14.152 31.090,13.602 31.481,13.215 31.844,13.010 32.281,12.931 32.415,12.906 32.548,12.894 32.679,12.894 Z M 68.559,13.041 C 69.494,13.049 70.364,13.791 70.748,14.918 71.005,15.669 71.014,16.691 70.770,17.424 70.443,18.394 69.772,19.090 68.963,19.298 68.306,19.466 67.638,19.255 67.070,18.706 66.728,18.376 66.451,17.924 66.283,17.424 66.026,16.661 66.045,15.608 66.329,14.835 66.667,13.908 67.421,13.187 68.190,13.059 68.233,13.053 68.377,13.044 68.514,13.041 68.529,13.040 68.544,13.040 68.559,13.041 Z M 30.806,13.312 C 30.751,13.395 30.751,13.395 30.751,13.395 30.455,13.846 30.095,14.533 29.900,15.022 29.619,15.718 29.494,16.267 29.466,16.929 29.448,17.387 29.448,17.387 29.448,17.387 29.396,17.158 29.396,17.158 29.396,17.158 29.350,16.954 29.317,16.890 29.079,16.557 28.935,16.355 28.798,16.175 28.777,16.157 28.755,16.142 28.569,16.050 28.358,15.956 28.148,15.858 27.965,15.769 27.952,15.757 27.937,15.742 28.071,15.611 28.249,15.464 28.545,15.220 28.584,15.174 28.792,14.829 28.914,14.625 29.131,14.231 29.274,13.953 29.534,13.450 29.534,13.450 29.534,13.450 30.052,13.386 30.052,13.386 30.052,13.386 30.339,13.349 30.623,13.318 30.690,13.315 Z M 58.755,13.601 C 58.682,13.603 58.617,13.608 58.570,13.618 57.755,13.764 57.065,14.402 56.885,15.174 56.781,15.605 56.845,16.206 57.031,16.572 57.288,17.079 57.856,17.534 58.393,17.659 58.649,17.720 59.156,17.720 59.418,17.659 59.675,17.601 60.041,17.415 60.242,17.244 60.743,16.816 60.987,16.297 60.987,15.663 60.987,15.309 60.923,15.028 60.780,14.750 60.508,14.225 59.986,13.801 59.449,13.663 59.279,13.620 58.976,13.595 58.755,13.601 Z M 58.891,13.784 C 59.102,13.786 59.329,13.817 59.507,13.874 60.093,14.060 60.618,14.622 60.758,15.208 60.816,15.458 60.816,15.867 60.758,16.117 60.609,16.743 60.047,17.308 59.400,17.479 59.174,17.540 58.652,17.537 58.411,17.476 57.782,17.314 57.211,16.737 57.065,16.117 57.007,15.867 57.007,15.458 57.065,15.208 57.193,14.668 57.678,14.112 58.191,13.914 58.277,13.883 58.435,13.837 58.545,13.813 58.645,13.792 58.765,13.783 58.891,13.784 Z M 59.336,14.339 C 59.128,14.342 58.953,14.431 58.796,14.610 58.527,14.915 58.551,15.363 58.857,15.653 59.263,16.044 59.986,15.815 60.102,15.257 60.139,15.080 60.108,14.878 60.026,14.719 59.965,14.600 59.760,14.423 59.641,14.387 59.531,14.353 59.430,14.337 59.336,14.339 Z M 59.383,14.460 C 59.545,14.462 59.687,14.524 59.809,14.643 59.940,14.774 59.983,14.884 59.983,15.083 59.986,15.296 59.922,15.443 59.775,15.574 59.638,15.693 59.556,15.724 59.366,15.724 59.025,15.724 58.780,15.498 58.738,15.144 58.704,14.848 58.942,14.527 59.241,14.472 59.290,14.464 59.337,14.459 59.383,14.460 Z M 58.917,18.571 C 59.143,18.572 59.370,18.622 59.559,18.718 59.751,18.816 60.032,19.112 60.123,19.313 60.264,19.624 60.255,20.024 60.096,20.342 59.904,20.729 59.382,21.035 58.912,21.035 58.414,21.035 57.938,20.748 57.718,20.314 57.620,20.119 57.614,20.088 57.614,19.798 57.614,19.515 57.620,19.478 57.715,19.289 57.779,19.154 57.871,19.032 57.987,18.929 58.185,18.745 58.329,18.669 58.570,18.611 58.681,18.584 58.799,18.571 58.917,18.571 Z M 27.751,18.806 C 28.770,18.806 28.770,18.806 28.770,18.806 29.793,18.806 29.793,18.806 29.793,18.806 29.924,19.072 29.924,19.072 29.924,19.072 30.324,19.890 30.980,20.623 31.612,20.958 31.756,21.035 31.756,21.035 31.756,21.035 29.744,21.028 29.744,21.028 29.744,21.028 27.733,21.019 27.733,21.019 27.733,21.019 27.678,20.806 27.678,20.806 27.678,20.806 27.638,20.659 27.614,20.433 27.604,20.101 27.586,19.594 27.617,19.252 27.702,18.965 Z M 35.385,18.806 C 40.607,18.806 40.607,18.806 40.607,18.806 45.833,18.806 45.833,18.806 45.833,18.806 46.110,19.106 46.110,19.106 46.110,19.106 47.078,20.140 48.271,20.772 49.624,20.961 50.161,21.035 51.073,21.007 51.577,20.900 52.825,20.635 53.857,20.049 54.742,19.106 55.023,18.806 55.023,18.806 55.023,18.806 56.369,18.813 56.369,18.813 56.369,18.813 57.718,18.822 57.718,18.822 57.718,18.822 57.596,18.999 57.596,18.999 57.596,18.999 57.315,19.420 57.279,20.003 57.504,20.449 57.755,20.940 58.332,21.279 58.912,21.279 59.492,21.279 60.068,20.940 60.319,20.449 60.541,20.012 60.508,19.420 60.236,19.017 60.178,18.929 60.123,18.846 60.114,18.831 60.105,18.819 61.607,18.806 63.450,18.806 66.802,18.806 66.802,18.806 66.802,18.806 67.009,18.986 67.009,18.986 67.009,18.986 67.455,19.371 67.888,19.557 68.419,19.591 68.673,19.606 68.767,19.597 68.984,19.542 69.286,19.466 69.564,19.341 69.817,19.170 70.000,19.044 70.000,19.044 70.000,19.044 69.927,19.145 69.927,19.145 69.927,19.145 69.714,19.450 69.268,19.838 68.795,20.125 68.456,20.330 67.656,20.717 67.177,20.906 66.243,21.279 64.528,21.712 63.655,21.798 63.191,21.840 37.811,21.843 37.378,21.798 36.862,21.746 36.297,21.633 35.455,21.416 34.976,21.291 34.109,21.022 33.904,20.934 33.816,20.897 33.816,20.897 33.816,20.897 34.033,20.748 34.033,20.748 34.033,20.748 34.551,20.394 35.131,19.588 35.345,18.919 Z M 71.142,18.990 C 71.148,18.990 71.469,19.231 71.856,19.524 72.558,20.055 72.558,20.055 72.558,20.055 72.442,20.104 72.442,20.104 72.442,20.104 71.316,20.568 71.142,20.650 71.105,20.745 71.084,20.793 71.050,21.050 71.032,21.309 71.011,21.569 70.986,21.804 70.980,21.831 70.968,21.874 70.883,21.856 70.379,21.706 70.058,21.608 69.570,21.465 69.295,21.386 68.798,21.239 68.798,21.239 68.798,21.239 69.082,21.083 69.082,21.083 69.082,21.083 69.634,20.778 70.196,20.348 70.483,20.021 70.672,19.801 70.910,19.444 71.032,19.194 71.087,19.081 71.139,18.990 71.142,18.990 Z " />
</svg>