<?xml version="1.0" encoding="UTF-8" standalone="no"?>
<!DOCTYPE svg PUBLIC "-//W3C//DTD SVG 20010904//EN" "http://www.w3.org/TR/2001/REC-SVG-20010904/DTD/svg10.dtd"[]>
<svg version="1.1" id="Frosty Editor v1.0.6.3" xmlns="http://www.w3.org/2000/svg" d1p1:xlink="http://www.w3.org/1999/xlink" viewBox="0 0 384 96" xmlns:d1p1="xmlns">
  <path stroke="none" fill="#ffffffff" d="M 123.806,92.203 C 122.571,91.577 121.230,90.369 121.090,90.041 120.990,89.810 120.945,89.635 120.769,89.284 120.367,88.483 120.223,86.601 120.461,85.263 120.546,84.785 120.639,84.254 120.668,84.082 120.711,83.827 120.629,83.714 120.219,83.460 119.943,83.290 119.751,83.098 119.717,83.070 119.584,82.959 119.422,82.839 119.062,82.655 118.121,82.175 118.035,82.091 117.804,81.408 117.626,80.884 117.595,80.200 117.595,76.762 117.595,72.763 117.598,72.725 117.909,71.886 118.180,70.771 118.931,69.942 119.340,69.075 119.508,68.715 119.657,68.601 119.785,68.358 119.921,68.097 119.926,68.099 120.091,67.859 120.256,67.618 120.422,67.394 120.460,67.359 120.497,67.325 120.629,67.097 120.753,66.853 120.877,66.608 121.116,66.248 121.284,66.053 121.575,65.568 121.796,65.239 122.093,64.829 122.233,64.679 122.396,64.445 122.485,64.256 122.708,63.830 122.915,63.541 123.160,63.151 123.291,62.895 123.489,62.584 123.600,62.459 123.711,62.333 123.908,62.024 124.037,61.771 124.166,61.517 124.328,61.246 124.397,61.166 124.748,60.762 124.958,60.486 124.958,60.433 124.958,60.377 125.232,60.023 125.524,59.701 125.595,59.623 125.790,59.363 125.958,59.123 126.125,58.882 126.361,58.578 126.482,58.445 126.604,58.313 126.735,58.102 126.775,57.977 127.099,57.598 127.258,57.247 127.579,56.876 127.797,56.541 128.028,56.294 128.243,56.007 128.363,55.804 128.532,55.565 128.617,55.477 128.703,55.388 128.910,55.120 129.077,54.879 129.244,54.639 129.453,54.368 129.541,54.278 129.813,53.790 130.129,53.362 130.434,52.928 130.563,52.789 130.707,52.554 130.755,52.405 131.001,52.131 131.108,51.853 131.306,51.557 131.434,51.419 131.637,51.100 131.757,50.847 132.419,49.876 133.034,48.716 133.070,47.473 133.070,46.818 132.778,45.462 132.583,45.214 132.526,45.142 132.411,44.872 132.328,44.615 131.858,43.443 130.935,42.628 130.154,41.838 129.005,40.657 127.432,40.110 126.099,39.694 123.904,38.941 122.817,37.829 122.215,35.979 121.794,34.676 121.794,34.676 121.794,34.676 119.315,34.638 119.315,34.638 119.315,34.638 117.277,34.606 116.816,34.566 116.719,34.412 116.654,34.309 116.600,33.481 116.599,32.571 116.597,30.918 116.597,30.918 116.597,30.918 115.244,30.918 115.244,30.918 115.244,30.918 113.916,30.918 113.889,30.912 113.746,30.600 113.568,30.208 113.550,26.709 113.723,26.065 113.790,25.817 114.015,24.884 114.224,23.991 114.433,23.099 114.682,22.088 114.778,21.745 114.873,21.402 114.985,20.917 115.028,20.667 115.114,20.161 115.300,20.065 116.191,20.062 116.722,20.060 116.722,20.060 116.722,20.060 116.723,19.405 116.723,19.405 116.723,19.405 116.726,18.445 116.818,18.214 117.233,18.123 118.189,17.720 119.125,17.082 119.966,16.647 121.716,15.631 123.710,14.715 125.333,13.830 125.830,13.588 126.477,13.446 129.368,13.446 132.438,13.446 132.438,13.446 132.438,13.446 132.473,12.167 132.473,12.167 132.473,12.167 132.509,10.887 132.509,10.887 132.509,10.887 137.844,10.855 137.844,10.855 137.844,10.855 143.179,10.822 143.179,10.822 143.179,10.822 143.179,9.451 143.179,9.451 143.179,9.451 143.179,8.079 143.179,8.079 143.179,8.079 146.611,8.079 146.611,8.079 146.611,8.079 150.043,8.079 150.043,8.079 150.043,8.079 150.043,9.452 150.043,9.452 150.043,9.452 150.043,10.825 150.043,10.825 150.043,10.825 152.882,10.827 152.882,10.827 152.882,10.827 154.444,10.828 155.848,10.862 156.002,10.904 156.274,10.976 156.283,11.029 156.283,12.462 156.283,13.945 156.283,13.945 156.283,13.945 176.189,13.945 176.189,13.945 176.189,13.945 196.094,13.945 196.094,13.945 196.094,13.945 196.094,12.208 196.094,12.208 196.094,12.208 196.094,11.253 196.127,10.386 196.167,10.281 196.221,10.141 196.107,10.056 195.736,9.956 194.084,9.511 193.482,7.559 194.602,6.283 195.020,5.807 195.051,5.708 194.784,5.708 194.653,5.708 194.597,5.576 194.597,5.271 194.597,4.859 194.621,4.835 195.013,4.835 195.242,4.835 195.873,5.028 196.417,5.264 197.502,5.736 198.296,6.449 198.418,7.063 198.490,7.423 198.490,7.423 198.490,7.423 199.716,7.482 199.716,7.482 199.716,7.482 200.925,7.540 200.959,7.551 202.107,8.204 202.747,8.569 203.579,9.037 203.957,9.243 204.334,9.450 204.854,9.751 205.111,9.911 205.579,10.204 205.579,10.204 205.579,10.204 205.579,11.306 205.579,11.306 205.579,11.306 205.579,12.408 205.579,12.408 205.579,12.408 207.482,12.491 207.482,12.491 207.482,12.491 208.772,12.433 209.418,12.568 210.075,13.323 210.216,13.425 210.361,13.713 210.403,13.975 210.478,14.444 210.478,14.444 210.478,14.444 212.349,14.444 212.349,14.444 212.349,14.444 214.220,14.444 214.220,14.444 214.220,14.444 214.704,13.945 214.704,13.945 214.704,13.945 214.970,13.670 215.131,13.582 215.286,13.446 215.411,13.335 215.420,13.286 215.563,13.196 215.825,13.031 215.886,12.947 235.372,12.947 246.167,12.947 255.000,12.989 255.000,13.040 255.000,13.092 255.130,13.285 255.289,13.470 255.448,13.654 255.686,13.949 255.818,14.125 256.058,14.444 256.058,14.444 256.058,14.444 258.646,14.444 258.646,14.444 258.646,14.444 260.391,14.444 261.551,14.504 262.205,14.626 262.738,14.727 263.904,14.947 264.797,15.116 265.689,15.284 266.925,15.515 267.542,15.627 268.160,15.740 269.396,15.967 270.288,16.133 271.180,16.298 272.556,16.550 273.346,16.693 275.317,17.050 276.069,17.191 276.653,17.317 276.927,17.376 277.714,17.519 278.400,17.635 279.302,17.788 279.708,17.915 279.866,18.093 280.067,18.320 280.084,18.743 280.072,23.288 280.066,26.008 280.021,28.374 279.974,28.544 279.858,28.960 279.853,28.961 274.718,29.861 274.135,29.964 273.377,30.100 273.034,30.164 272.099,30.339 269.680,30.775 268.478,30.985 267.895,31.087 267.137,31.223 266.794,31.288 266.450,31.352 265.524,31.521 264.734,31.663 263.945,31.806 262.850,32.013 262.301,32.124 261.675,32.251 260.298,32.354 258.613,32.402 255.924,32.478 255.924,32.478 255.924,32.478 255.587,32.815 255.587,32.815 255.587,32.815 255.357,33.143 255.160,33.404 254.875,33.539 254.875,33.674 215.974,33.720 215.470,33.585 215.148,33.439 215.054,33.092 214.877,32.840 214.705,32.641 214.565,32.436 214.565,32.384 214.565,32.333 213.638,32.291 212.506,32.291 210.446,32.291 210.446,32.291 210.446,32.291 209.983,32.694 209.983,32.694 209.983,32.694 207.842,35.086 207.707,35.521 207.271,37.782 207.172,38.297 206.972,39.251 206.828,39.903 206.684,40.555 206.534,41.291 206.495,41.539 206.430,41.953 206.374,42.004 205.773,42.194 205.281,42.349 204.631,42.399 203.131,42.399 201.458,42.399 201.093,42.433 200.833,42.613 200.335,42.957 200.243,43.081 200.079,43.627 199.994,43.913 199.888,44.147 199.843,44.147 199.799,44.147 199.659,44.441 199.532,44.802 199.172,45.821 198.611,46.540 197.989,46.781 197.831,46.842 194.615,46.892 190.845,46.892 187.074,46.892 184.121,46.953 183.989,46.990 183.937,47.005 183.824,47.185 183.623,47.304 183.366,47.456 183.178,47.734 182.995,48.236 182.233,49.928 181.511,51.104 180.305,52.062 180.138,52.229 179.832,52.466 179.624,52.588 178.308,53.553 176.708,54.118 174.941,54.380 174.460,54.446 173.441,54.501 172.675,54.502 171.363,54.505 171.182,54.473 169.537,53.943 168.577,53.633 167.630,53.297 167.435,53.195 166.917,53.071 166.535,52.742 166.142,52.516 165.256,52.053 164.092,52.027 162.742,52.439 161.696,52.828 160.720,53.294 160.027,54.181 160.027,54.249 159.953,54.345 159.317,55.101 159.166,55.279 158.943,55.612 158.820,55.839 158.344,56.444 158.057,57.027 157.589,57.545 157.519,57.623 157.324,57.884 157.157,58.124 156.990,58.364 156.781,58.635 156.693,58.726 156.491,59.140 156.314,59.423 156.034,59.747 155.731,60.111 155.553,60.379 155.316,60.754 155.196,60.898 154.974,61.162 154.824,61.341 154.673,61.519 154.450,61.852 154.327,62.079 153.851,62.684 153.564,63.267 153.097,63.785 153.026,63.863 152.831,64.124 152.664,64.364 152.497,64.604 152.288,64.875 152.200,64.966 151.582,65.976 150.815,67.007 150.323,67.588 150.168,67.771 150.006,68.033 149.962,68.171 149.918,68.308 149.778,68.511 149.651,68.622 149.368,68.996 149.185,69.245 148.951,69.615 148.831,69.759 148.610,70.023 148.459,70.201 148.308,70.380 148.085,70.712 147.963,70.940 147.199,71.969 146.469,73.073 145.894,73.754 145.574,74.345 145.307,74.692 145.020,75.244 144.934,75.335 144.751,75.632 144.614,75.905 144.477,76.177 144.278,76.498 144.173,76.618 144.067,76.737 143.875,77.132 143.746,77.495 143.617,77.858 143.441,78.267 143.356,78.404 143.192,78.666 142.690,80.294 142.125,82.398 140.884,86.313 140.283,87.511 136.874,88.193 129.461,88.657 132.364,92.488 126.010,92.551 124.744,92.549 124.466,92.538 123.806,92.203 Z M 130.331,86.519 C 129.759,86.224 129.616,86.276 129.531,86.812 129.407,87.588 128.743,88.450 127.954,88.862 127.349,89.178 127.162,89.215 126.381,89.177 125.254,89.122 124.457,88.671 123.901,87.771 123.561,87.221 123.523,87.057 123.523,86.140 123.523,85.409 123.557,85.108 123.934,84.461 124.149,84.092 124.328,83.787 124.308,83.770 124.117,83.603 122.974,83.113 122.914,83.173 122.872,83.216 122.837,83.652 122.837,84.143 122.837,84.634 122.747,85.339 122.636,85.710 122.397,86.518 122.454,87.173 122.838,88.014 123.174,88.751 123.606,89.174 124.637,89.774 125.054,90.017 125.479,90.268 125.582,90.333 128.063,91.194 131.080,87.065 130.331,86.519 Z M 139.813,82.023 C 140.370,79.909 140.966,77.676 141.806,75.889 142.012,75.453 142.181,75.070 142.181,75.038 142.181,75.006 142.462,74.538 142.805,73.998 143.309,73.032 143.893,72.219 144.334,71.698 144.570,71.255 144.754,70.947 145.051,70.604 145.354,70.239 145.532,69.971 145.769,69.597 145.889,69.453 146.110,69.189 146.261,69.010 146.412,68.831 146.635,68.499 146.757,68.272 147.165,67.694 147.430,67.279 147.821,66.767 147.933,66.578 148.128,66.303 148.254,66.156 148.728,65.532 149.118,64.999 149.450,64.432 149.730,64.137 150.043,63.739 150.043,63.678 150.043,63.621 150.143,63.494 150.762,62.762 150.916,62.579 151.079,62.317 151.123,62.180 151.166,62.043 151.306,61.840 151.434,61.729 151.754,61.260 151.997,60.942 152.314,60.527 152.426,60.338 152.663,60.015 152.841,59.809 153.019,59.603 153.196,59.336 153.235,59.216 153.529,58.855 153.713,58.584 153.943,58.192 154.223,57.897 154.536,57.499 154.536,57.438 154.536,57.382 154.641,57.247 155.191,56.597 155.428,56.154 155.612,55.846 155.909,55.503 156.246,55.042 156.485,54.708 156.807,54.287 156.919,54.098 157.127,53.808 157.271,53.643 157.776,52.979 158.256,51.917 158.904,51.572 159.514,51.359 159.862,50.977 160.397,50.667 160.386,50.465 159.254,49.350 159.175,49.464 158.616,50.271 155.704,54.351 154.797,55.597 154.585,55.889 154.238,56.366 154.026,56.658 153.814,56.949 153.166,57.862 152.586,58.686 152.007,59.509 151.390,60.380 151.216,60.620 150.851,61.124 147.053,66.427 146.523,67.172 146.102,67.764 145.263,68.937 144.739,69.666 144.533,69.953 143.916,70.823 143.366,71.600 142.817,72.377 142.161,73.299 141.908,73.649 141.347,74.424 140.178,76.388 139.970,76.905 139.886,77.112 139.533,78.424 139.185,79.822 138.837,81.220 138.414,82.705 138.244,83.122 137.736,84.373 136.924,84.956 135.691,84.956 134.922,84.956 134.333,84.723 133.579,84.119 133.265,83.867 132.991,83.651 132.970,83.637 132.950,83.623 132.765,82.528 132.560,81.202 132.292,79.471 132.115,78.675 131.928,78.373 131.621,77.877 130.562,77.061 129.963,76.861 129.026,76.548 127.594,76.826 126.912,77.453 126.392,77.932 125.768,78.935 125.526,79.679 125.251,80.530 124.734,81.087 124.222,81.087 123.998,81.087 123.207,80.771 122.339,80.334 121.117,79.719 120.827,79.521 120.760,79.253 120.634,78.749 120.825,74.763 121.020,73.835 121.353,72.255 121.883,71.397 126.740,64.570 127.480,63.530 128.221,62.483 128.386,62.243 128.551,62.002 128.928,61.464 129.224,61.047 129.521,60.630 130.409,59.373 131.198,58.254 131.988,57.135 132.777,56.016 132.953,55.768 135.121,52.704 135.207,52.550 135.850,50.573 136.221,49.433 136.390,48.585 136.500,47.310 136.581,46.371 136.361,45.170 135.820,43.597 135.178,41.730 135.696,39.940 137.153,38.989 137.699,38.632 137.854,38.595 138.967,38.553 140.184,38.507 140.184,38.507 140.184,38.507 140.184,35.804 140.184,35.804 140.184,35.804 140.183,33.102 140.183,33.102 140.183,33.102 139.653,32.894 139.653,32.894 139.653,32.894 139.362,32.780 138.899,32.618 138.624,32.535 134.930,31.416 132.200,28.994 130.399,25.239 130.168,24.759 129.828,24.225 129.643,24.054 129.320,23.754 129.233,23.740 127.413,23.701 125.595,23.661 125.503,23.671 125.083,23.955 124.830,24.126 124.584,24.431 124.497,24.682 124.393,24.986 124.346,26.540 124.341,29.928 124.336,33.911 124.367,34.838 124.523,35.296 125.104,36.663 126.387,37.282 127.441,37.620 128.238,37.873 128.918,38.112 128.952,38.150 128.986,38.188 129.239,38.298 129.514,38.393 129.788,38.489 130.208,38.699 130.447,38.861 131.588,39.477 132.729,40.517 133.377,41.508 133.983,42.343 134.496,43.485 134.833,44.459 135.098,45.240 135.130,45.550 135.130,47.391 135.130,48.782 135.075,49.613 134.962,49.950 134.727,50.650 133.924,52.277 133.681,52.545 133.569,52.668 133.372,52.976 133.243,53.228 133.114,53.480 132.917,53.789 132.806,53.914 132.695,54.040 132.499,54.347 132.369,54.598 132.149,55.026 131.932,55.342 131.631,55.673 131.560,55.751 131.365,56.012 131.198,56.252 131.030,56.492 130.794,56.797 130.673,56.929 130.226,57.773 129.604,58.417 129.077,59.195 129.077,59.234 129.007,59.339 128.921,59.430 128.678,59.686 128.414,60.020 128.080,60.495 127.911,60.736 127.674,61.040 127.553,61.173 127.432,61.305 127.300,61.515 127.260,61.641 126.890,62.206 126.489,62.653 126.139,63.238 125.936,63.580 125.794,63.745 125.676,63.862 125.556,64.040 125.468,64.265 125.348,64.444 125.219,64.582 125.075,64.817 125.028,64.967 124.710,65.392 124.511,65.723 124.205,66.145 124.065,66.295 123.918,66.546 123.879,66.702 123.655,67.129 123.383,67.434 123.137,67.824 123.006,68.079 122.808,68.391 122.697,68.516 122.586,68.641 122.390,68.950 122.261,69.202 122.131,69.455 121.935,69.764 121.824,69.889 121.713,70.014 121.516,70.324 121.387,70.577 121.258,70.830 121.082,71.112 120.996,71.204 120.742,71.794 120.365,72.178 120.155,72.757 120.025,73.117 119.846,73.553 119.756,73.724 119.498,74.220 119.527,79.173 119.793,79.837 120.235,80.554 121.115,81.055 121.880,81.462 121.939,81.462 122.396,81.656 122.896,81.893 125.375,83.069 125.418,83.084 126.372,83.084 127.578,83.084 128.417,83.484 129.046,84.359 129.414,84.871 129.670,85.061 130.562,85.482 134.434,87.544 138.737,85.662 139.813,82.023 Z M 128.158,82.402 C 127.138,82.038 126.456,81.037 126.456,79.902 126.456,79.071 126.752,78.421 127.381,77.869 129.065,76.390 131.698,77.630 131.698,79.902 131.698,81.776 129.921,83.031 128.158,82.402 Z M 130.169,80.910 C 130.502,80.546 130.574,80.365 130.574,79.902 130.574,79.432 130.502,79.258 130.147,78.870 129.760,78.447 129.660,78.404 129.077,78.404 128.493,78.404 128.394,78.447 128.006,78.870 127.443,79.485 127.407,80.240 127.912,80.840 128.336,81.344 128.642,81.472 129.264,81.405 129.638,81.366 129.865,81.241 130.169,80.910 Z M 134.354,39.285 C 134.065,39.154 133.274,38.607 132.596,38.071 129.070,35.281 128.493,34.846 127.726,34.401 126.766,33.844 125.044,32.086 124.824,31.439 124.741,31.194 124.719,30.788 124.770,30.447 124.841,29.969 124.980,29.743 125.587,29.115 126.417,28.326 126.417,28.326 126.417,28.326 127.056,28.363 127.056,28.363 127.056,28.363 127.701,28.401 127.837,28.414 128.092,28.691 128.356,28.978 128.758,29.324 130.762,30.995 131.036,31.224 132.159,32.143 133.258,33.038 134.356,33.932 135.656,35.014 136.146,35.442 136.982,36.173 137.044,36.262 137.126,36.864 137.291,38.068 136.962,38.787 136.032,39.252 135.357,39.589 135.038,39.595 134.354,39.285 Z M 135.972,37.880 C 136.311,37.491 136.244,37.042 135.785,36.624 135.114,36.015 133.486,34.656 131.624,33.150 130.658,32.369 129.267,31.209 128.533,30.575 127.800,29.940 127.130,29.420 127.044,29.420 126.757,29.420 125.707,30.490 125.707,30.782 125.707,31.135 127.624,33.129 128.290,33.469 128.919,33.791 129.462,34.187 131.729,35.977 132.776,36.804 133.964,37.716 134.371,38.006 135.087,38.516 135.119,38.526 135.431,38.331 135.609,38.221 135.852,38.018 135.972,37.880 Z M 136.747,83.463 C 137.248,82.977 137.616,81.929 138.370,78.841 138.679,77.571 139.058,76.279 139.210,75.971 139.697,74.986 140.659,73.485 142.032,71.571 142.766,70.547 143.535,69.471 143.741,69.180 144.660,67.879 146.140,65.788 146.433,65.376 147.210,64.287 151.966,57.661 152.149,57.413 152.261,57.263 152.539,56.870 152.767,56.540 152.996,56.210 153.546,55.435 153.990,54.817 154.434,54.199 154.893,53.553 155.009,53.382 155.125,53.210 155.726,52.368 156.345,51.510 158.592,48.394 159.029,47.736 159.029,47.470 159.029,46.601 159.877,45.354 160.781,44.893 161.042,44.760 161.404,44.439 161.587,44.180 161.769,43.921 162.337,43.120 162.848,42.399 163.779,41.089 163.779,41.089 163.779,41.089 162.749,41.052 162.749,41.052 162.749,41.052 162.119,41.030 161.683,40.957 161.624,40.865 161.572,40.782 161.528,40.417 161.527,40.054 161.525,39.393 161.525,39.393 161.525,39.393 150.012,39.430 150.012,39.430 150.012,39.430 138.499,39.467 138.499,39.467 138.499,39.467 137.929,39.802 137.929,39.802 137.929,39.802 136.683,40.534 136.328,41.642 136.816,43.277 137.362,45.111 137.438,45.549 137.438,46.867 137.438,48.445 137.214,49.802 136.714,51.260 135.995,53.357 135.914,53.506 134.006,56.183 133.244,57.254 131.622,59.545 131.231,60.105 131.009,60.422 130.690,60.879 130.522,61.119 130.354,61.360 129.974,61.897 129.678,62.314 129.382,62.731 128.493,63.988 127.704,65.107 126.915,66.227 126.125,67.346 125.949,67.594 125.615,68.066 125.029,68.900 124.249,70.011 123.997,70.372 123.609,70.919 123.388,71.228 122.181,72.915 121.714,74.592 121.714,77.241 121.714,78.824 121.714,78.824 121.714,78.824 122.902,79.414 122.902,79.414 122.902,79.414 124.283,80.099 124.221,80.123 124.770,78.707 124.945,78.255 125.356,77.553 125.684,77.147 126.193,76.514 126.396,76.365 127.085,76.117 128.319,75.672 129.515,75.620 130.478,75.969 132.039,76.536 132.992,77.530 133.198,78.807 133.441,80.312 133.819,82.791 133.819,82.876 133.819,82.925 134.170,83.193 134.599,83.472 135.552,84.091 136.102,84.088 136.747,83.463 Z M 175.378,51.939 C 175.961,51.756 176.467,51.571 176.501,51.527 176.535,51.483 176.732,51.359 176.938,51.251 177.667,50.869 177.936,50.696 178.136,50.480 178.248,50.360 178.376,50.262 178.420,50.262 178.464,50.262 178.682,50.086 178.904,49.872 179.127,49.658 179.436,49.398 179.591,49.295 179.914,49.081 180.783,47.368 181.013,46.491 180.953,45.852 180.953,45.852 180.953,45.852 180.405,44.369 180.405,44.369 180.405,44.369 179.790,42.706 179.331,42.451 178.030,41.593 177.400,41.178 176.341,40.906 175.337,40.904 174.417,40.901 173.786,41.251 172.807,42.309 171.459,43.766 171.124,45.025 171.589,46.884 171.938,48.276 172.704,49.203 174.410,50.297 174.700,50.482 174.754,50.604 174.754,51.067 174.754,51.907 174.538,52.050 173.376,51.983 172.566,51.936 172.291,51.857 171.578,51.465 171.115,51.210 170.540,50.850 170.299,50.663 169.636,50.149 168.676,48.825 168.108,47.641 167.608,46.600 167.597,46.550 167.543,44.958 167.495,43.533 167.521,43.239 167.757,42.541 167.906,42.104 168.010,41.729 167.989,41.709 167.968,41.688 167.460,42.242 166.860,42.940 165.768,44.209 165.768,44.209 165.768,44.209 165.768,45.170 165.768,45.170 165.768,45.170 165.768,47.067 166.205,48.210 167.592,49.932 168.343,50.865 168.810,51.233 169.512,51.444 169.684,51.495 170.003,51.620 170.222,51.721 171.844,52.471 173.457,52.539 175.378,51.939 Z M 172.614,50.355 C 171.031,49.009 170.453,47.684 170.450,45.395 170.447,43.667 170.732,42.968 172.055,41.455 172.539,40.902 172.539,40.902 172.539,40.902 171.431,40.909 171.431,40.909 171.431,40.909 170.822,40.913 170.101,40.955 169.830,41.004 169.337,41.091 169.337,41.091 169.337,41.091 168.860,42.562 168.860,42.562 168.860,42.562 168.393,44.000 168.385,44.058 168.493,45.133 168.582,46.021 168.693,46.409 169.070,47.155 169.917,48.827 170.758,49.739 172.249,50.601 173.322,51.222 173.495,51.105 172.614,50.355 Z M 165.940,49.544 C 165.479,48.735 165.432,48.696 165.327,49.032 165.277,49.194 165.129,49.477 164.999,49.662 164.762,49.999 164.762,49.999 164.762,49.999 165.421,50.045 165.421,50.045 165.421,50.045 165.783,50.070 166.124,50.101 166.179,50.114 166.233,50.127 166.126,49.870 165.940,49.544 Z M 163.187,49.748 C 164.501,49.073 164.891,47.466 163.990,46.439 163.484,45.862 163.029,45.644 162.336,45.644 160.454,45.644 159.464,47.956 160.805,49.220 161.029,49.432 161.325,49.667 161.462,49.742 161.789,49.922 162.840,49.925 163.187,49.748 Z M 166.036,42.183 C 166.629,41.513 167.219,40.839 167.346,40.685 167.824,40.109 168.739,40.012 173.283,40.053 177.437,40.091 177.437,40.091 177.437,40.091 178.186,40.453 178.186,40.453 178.186,40.453 179.470,41.076 180.281,41.823 180.898,42.954 181.200,43.507 181.554,44.212 181.685,44.521 181.986,45.231 182.085,44.998 182.475,45.040 182.811,45.077 183.539,44.826 189.749,44.771 194.141,44.731 196.750,44.662 196.825,44.583 197.005,44.395 197.643,43.161 197.890,42.524 198.272,41.537 198.525,41.033 198.638,41.030 198.699,41.028 198.839,40.924 198.950,40.798 199.325,40.374 199.927,40.278 202.219,40.278 204.437,40.278 204.437,40.278 204.437,40.278 204.561,39.872 204.561,39.872 204.561,39.872 204.629,39.649 204.719,39.242 204.762,38.967 204.837,38.481 205.224,36.601 205.455,35.598 205.518,35.323 205.605,34.860 205.648,34.568 205.726,34.038 205.726,34.038 205.726,34.038 196.421,34.038 196.421,34.038 196.421,34.038 187.115,34.038 187.115,34.038 187.115,34.038 186.925,34.406 186.925,34.406 186.925,34.406 186.783,34.681 186.734,35.187 186.734,36.398 186.734,38.368 186.587,38.795 185.778,39.164 185.270,39.395 184.835,39.404 173.887,39.404 162.523,39.404 162.523,39.404 162.523,39.404 162.523,39.779 162.523,39.779 162.523,39.779 162.523,40.153 162.523,40.153 162.523,40.153 163.896,40.153 163.896,40.153 163.896,40.153 165.269,40.153 165.269,40.153 165.269,40.153 165.269,40.543 165.269,40.543 165.269,40.543 165.269,40.839 164.964,41.360 164.022,42.678 163.336,43.638 162.805,44.473 162.843,44.534 162.881,44.596 162.995,44.646 163.097,44.646 163.396,44.646 164.183,45.094 164.520,45.456 164.832,45.791 164.832,45.791 164.832,45.791 164.894,44.596 164.894,44.596 164.894,44.596 164.957,43.402 164.957,43.402 164.957,43.402 Z M 176.750,34.725 C 176.750,30.919 176.750,30.919 176.750,30.919 158.873,30.885 158.873,30.885 158.873,30.885 140.995,30.850 140.995,30.850 140.995,30.850 139.934,30.461 139.934,30.461 139.934,30.461 138.592,29.968 137.973,29.714 137.501,29.462 134.990,28.125 133.028,25.998 131.647,23.118 131.416,22.637 131.076,22.104 130.891,21.932 130.555,21.620 130.555,21.620 130.555,21.620 127.099,21.582 127.099,21.582 127.099,21.582 123.653,21.544 123.642,21.544 123.209,21.836 122.957,22.005 122.712,22.310 122.625,22.560 122.521,22.865 122.474,24.410 122.469,27.767 122.462,32.540 122.462,32.540 122.462,32.540 122.899,32.540 122.899,32.540 122.899,32.540 123.336,32.540 123.336,32.540 123.336,32.540 123.336,28.802 123.336,28.802 123.336,28.802 123.336,24.557 123.422,23.928 124.087,23.321 124.662,22.796 125.227,22.681 127.219,22.682 129.185,22.684 130.031,22.851 130.512,23.335 130.666,23.490 131.060,24.150 131.386,24.803 131.927,25.882 132.848,27.311 133.320,27.804 133.423,27.911 133.736,28.248 134.015,28.554 135.035,29.666 136.794,30.763 138.569,31.392 139.354,31.670 140.235,32.000 140.526,32.125 141.055,32.353 141.055,32.353 141.055,32.353 141.056,35.442 141.056,35.442 141.056,35.442 141.058,38.531 141.058,38.531 141.058,38.531 158.904,38.531 158.904,38.531 158.904,38.531 176.750,38.531 176.750,38.531 176.750,38.531 Z M 184.750,38.387 C 185.013,38.309 185.387,38.132 185.513,37.941 185.751,37.580 185.803,37.500 185.861,35.744 185.919,33.982 185.710,33.894 186.067,33.418 186.371,33.013 186.371,33.013 186.371,33.013 196.742,33.039 196.742,33.039 196.742,33.039 203.894,33.058 206.952,32.999 206.952,32.906 206.952,32.833 207.156,32.580 207.406,32.345 207.860,31.916 207.860,31.916 207.860,31.916 205.976,31.916 205.976,31.916 205.976,31.916 204.092,31.916 204.092,31.916 204.092,31.916 203.557,31.418 203.557,31.418 203.557,31.418 203.021,30.921 203.021,30.921 203.021,30.921 190.322,30.919 190.322,30.919 190.322,30.919 177.624,30.918 177.624,30.918 177.624,30.918 177.624,34.724 177.624,34.724 177.624,34.724 177.624,38.531 177.624,38.531 177.624,38.531 180.948,38.531 180.948,38.531 180.948,38.531 183.088,38.531 184.442,38.480 184.750,38.387 Z M 121.464,29.202 C 121.464,25.863 121.464,25.863 121.464,25.863 120.029,25.902 120.029,25.902 120.029,25.902 118.594,25.941 118.594,25.941 118.594,25.941 118.594,29.240 118.594,29.240 118.594,29.240 118.594,32.540 118.594,32.540 118.594,32.540 120.029,32.540 120.029,32.540 120.029,32.540 121.464,32.540 121.464,32.540 121.464,32.540 Z M 253.333,31.479 C 253.499,31.313 251.488,31.292 235.228,31.292 224.225,31.292 216.936,31.338 216.936,31.407 216.936,31.469 217.006,31.549 217.092,31.584 217.178,31.618 225.325,31.651 235.197,31.657 250.994,31.665 253.168,31.644 253.333,31.479 Z M 208.421,23.081 C 208.387,15.244 208.387,15.244 208.387,15.244 208.050,14.906 208.050,14.906 208.050,14.906 207.712,14.569 207.712,14.569 207.712,14.569 205.710,14.569 205.710,14.569 205.710,14.569 203.707,14.569 203.707,14.569 203.707,14.569 203.709,22.275 203.709,22.275 203.709,22.275 203.710,26.514 203.756,30.052 203.810,30.138 203.865,30.224 204.100,30.435 204.332,30.606 204.737,30.905 204.828,30.918 206.605,30.918 208.455,30.918 208.455,30.918 208.455,30.918 Z M 260.678,30.185 C 261.137,30.062 262.345,29.835 265.109,29.352 265.692,29.251 266.450,29.115 266.794,29.051 267.674,28.887 271.022,28.286 273.470,27.852 275.950,27.413 276.689,27.277 277.308,27.147 277.963,27.009 277.963,27.009 277.963,27.009 277.963,23.418 277.963,23.418 277.963,23.418 277.963,20.104 277.946,19.823 277.745,19.769 277.625,19.738 277.189,19.651 276.778,19.576 275.432,19.334 271.925,18.687 271.286,18.563 270.240,18.361 267.379,17.835 265.795,17.554 264.971,17.407 263.596,17.142 262.738,16.965 261.370,16.681 260.805,16.636 258.151,16.594 255.125,16.546 255.125,16.546 255.125,16.546 255.125,23.497 255.125,23.497 255.125,23.497 255.125,30.447 255.125,30.447 255.125,30.447 257.652,30.383 257.652,30.383 257.652,30.383 259.042,30.347 260.404,30.258 260.678,30.185 Z M 254.251,29.919 C 254.251,29.545 254.251,29.545 254.251,29.545 235.157,29.545 235.157,29.545 235.157,29.545 216.062,29.545 216.062,29.545 216.062,29.545 216.062,29.919 216.062,29.919 216.062,29.919 216.062,30.294 216.062,30.294 216.062,30.294 235.157,30.294 235.157,30.294 235.157,30.294 254.251,30.294 254.251,30.294 254.251,30.294 Z M 215.189,23.305 C 215.189,16.441 215.189,16.441 215.189,16.441 212.818,16.441 212.818,16.441 212.818,16.441 210.446,16.441 210.446,16.441 210.446,16.441 210.446,23.305 210.446,23.305 210.446,23.305 210.446,30.169 210.446,30.169 210.446,30.169 212.818,30.169 212.818,30.169 212.818,30.169 215.189,30.169 215.189,30.169 215.189,30.169 Z M 148.421,21.495 C 148.421,12.947 148.421,12.947 148.421,12.947 145.238,12.947 145.238,12.947 145.238,12.947 142.056,12.947 142.056,12.947 142.056,12.947 142.056,21.495 142.056,21.495 142.056,21.495 142.056,30.044 142.056,30.044 142.056,30.044 145.238,30.044 145.238,30.044 145.238,30.044 148.421,30.044 148.421,30.044 148.421,30.044 Z M 202.834,22.993 C 202.834,15.942 202.834,15.942 202.834,15.942 176.126,15.942 176.126,15.942 176.126,15.942 149.419,15.942 149.419,15.942 149.419,15.942 149.419,22.993 149.419,22.993 149.419,22.993 149.419,30.044 149.419,30.044 149.419,30.044 176.126,30.044 176.126,30.044 176.126,30.044 202.834,30.044 202.834,30.044 202.834,30.044 Z M 141.058,26.737 C 141.058,23.804 141.058,23.804 141.058,23.804 137.120,23.804 137.120,23.804 137.120,23.804 133.183,23.804 133.183,23.804 133.183,23.804 133.782,24.645 133.782,24.645 133.782,24.645 134.111,25.108 134.465,25.575 134.568,25.682 134.671,25.789 134.984,26.127 135.263,26.432 136.237,27.494 138.014,28.625 139.624,29.206 140.309,29.454 140.912,29.659 140.964,29.663 141.015,29.667 141.058,28.350 141.058,26.737 Z M 117.595,27.423 C 117.595,25.926 117.595,25.926 117.595,25.926 117.231,25.926 117.231,25.926 117.231,25.926 116.837,25.926 116.859,26.004 116.690,23.991 116.671,23.753 116.529,24.161 116.302,25.115 116.106,25.938 115.895,26.775 115.834,26.974 115.773,27.173 115.723,27.692 115.723,28.128 115.723,28.921 115.723,28.921 115.723,28.921 116.659,28.921 116.659,28.921 116.659,28.921 117.595,28.921 117.595,28.921 117.595,28.921 Z M 254.251,27.611 C 254.251,26.675 254.251,26.675 254.251,26.675 235.157,26.675 235.157,26.675 235.157,26.675 216.062,26.675 216.062,26.675 216.062,26.675 216.062,27.611 216.062,27.611 216.062,27.611 216.062,28.547 216.062,28.547 216.062,28.547 235.157,28.547 235.157,28.547 235.157,28.547 254.251,28.547 254.251,28.547 254.251,28.547 Z M 254.251,24.740 C 254.251,23.804 254.251,23.804 254.251,23.804 235.157,23.804 235.157,23.804 235.157,23.804 216.062,23.804 216.062,23.804 216.062,23.804 216.062,24.740 216.062,24.740 216.062,24.740 216.062,25.676 216.062,25.676 216.062,25.676 235.157,25.676 235.157,25.676 235.157,25.676 254.251,25.676 254.251,25.676 254.251,25.676 Z M 121.129,24.577 C 121.446,24.246 121.464,24.161 121.464,23.005 121.464,21.980 121.423,21.727 121.212,21.430 120.972,21.093 120.908,21.074 119.839,21.036 118.718,20.996 118.718,20.996 118.718,20.996 118.718,21.525 118.718,21.525 118.718,21.525 118.718,22.046 118.711,22.055 118.219,22.134 117.720,22.214 117.720,22.214 117.720,22.214 117.720,23.570 117.720,23.570 117.720,23.570 117.720,24.927 117.720,24.927 117.720,24.927 119.257,24.927 119.257,24.927 119.257,24.927 120.777,24.927 120.797,24.924 121.129,24.577 Z M 119.297,23.795 C 118.842,23.437 118.842,22.798 119.297,22.440 119.478,22.298 119.723,22.182 119.842,22.182 120.260,22.182 120.715,22.669 120.715,23.118 120.715,23.566 120.260,24.054 119.842,24.054 119.723,24.054 119.478,23.937 119.297,23.795 Z M 141.058,22.494 C 141.058,22.182 141.058,22.182 141.058,22.182 137.376,22.182 137.376,22.182 137.376,22.182 133.694,22.182 133.694,22.182 133.694,22.182 133.694,22.494 133.694,22.494 133.694,22.494 133.694,22.806 133.694,22.806 133.694,22.806 137.376,22.806 137.376,22.806 137.376,22.806 141.058,22.806 141.058,22.806 141.058,22.806 Z M 254.251,21.932 C 254.251,21.059 254.251,21.059 254.251,21.059 235.157,21.059 235.157,21.059 235.157,21.059 216.062,21.059 216.062,21.059 216.062,21.059 216.062,21.932 216.062,21.932 216.062,21.932 216.062,22.806 216.062,22.806 216.062,22.806 235.157,22.806 235.157,22.806 235.157,22.806 254.251,22.806 254.251,22.806 254.251,22.806 Z M 136.883,21.183 C 141.058,21.183 141.058,21.183 141.058,21.183 141.058,18.375 141.058,18.375 141.058,18.375 141.058,15.567 141.058,15.567 141.058,15.567 134.275,15.567 134.275,15.567 134.275,15.567 127.784,15.567 127.014,15.728 126.581,15.933 126.532,15.956 126.209,16.162 125.832,16.352 125.454,16.541 124.640,16.975 124.022,17.315 122.952,17.787 122.024,18.492 121.090,18.875 120.456,19.227 119.868,19.542 119.249,19.898 118.965,20.010 119.127,20.036 120.183,20.047 121.461,20.060 121.461,20.060 121.461,20.060 121.915,20.542 121.915,20.542 121.915,20.542 122.368,21.023 122.369,21.024 122.759,20.823 123.085,20.655 123.727,20.616 126.672,20.585 131.286,20.537 131.696,20.652 132.385,22.186 132.634,22.740 132.634,22.740 132.634,22.740 132.671,21.962 132.671,21.962 132.671,21.962 132.708,21.183 132.708,21.183 132.708,21.183 Z M 254.251,19.187 C 254.251,18.313 254.251,18.313 254.251,18.313 235.157,18.313 235.157,18.313 235.157,18.313 216.062,18.313 216.062,18.313 216.062,18.313 216.062,19.187 216.062,19.187 216.062,19.187 216.062,20.060 216.062,20.060 216.062,20.060 235.157,20.060 235.157,20.060 235.157,20.060 254.251,20.060 254.251,20.060 254.251,20.060 Z M 254.251,16.878 C 254.251,16.316 254.251,16.316 254.251,16.316 235.157,16.316 235.157,16.316 235.157,16.316 216.062,16.316 216.062,16.316 216.062,16.316 216.062,16.878 216.062,16.878 216.062,16.878 216.062,17.439 216.062,17.439 216.062,17.439 235.157,17.439 235.157,17.439 235.157,17.439 254.251,17.439 254.251,17.439 254.251,17.439 Z M 253.502,15.371 C 253.502,15.332 253.422,15.220 253.324,15.122 253.056,14.853 217.508,14.853 217.239,15.122 217.141,15.220 217.061,15.332 217.061,15.371 217.061,15.410 225.260,15.443 235.282,15.443 245.303,15.443 253.502,15.410 253.502,15.371 Z M 154.286,13.945 C 154.286,12.947 154.286,12.947 154.286,12.947 151.853,12.947 151.853,12.947 151.853,12.947 149.419,12.947 149.419,12.947 149.419,12.947 149.419,13.945 149.419,13.945 149.419,13.945 149.419,14.943 149.419,14.943 149.419,14.943 151.853,14.943 151.853,14.943 151.853,14.943 154.286,14.943 154.286,14.943 154.286,14.943 Z M 198.715,13.009 C 198.715,12.073 198.715,12.073 198.715,12.073 199.770,12.073 199.770,12.073 199.770,12.073 200.350,12.073 201.148,12.157 201.543,12.260 201.946,12.365 202.801,12.447 203.490,12.447 204.718,12.447 204.718,12.447 204.718,12.447 204.680,11.673 204.680,11.673 204.680,11.673 204.643,10.899 204.643,10.899 204.643,10.899 203.582,10.288 203.582,10.288 203.582,10.288 202.572,9.706 202.173,9.479 200.906,8.766 200.454,8.511 200.182,8.454 199.430,8.454 198.507,8.454 198.507,8.454 198.507,8.454 198.206,8.919 198.206,8.919 198.206,8.919 198.040,9.175 197.724,9.498 197.503,9.637 197.102,9.889 197.102,9.889 197.102,9.889 197.098,11.917 197.098,11.917 197.098,11.917 197.093,13.945 197.093,13.945 197.093,13.945 197.904,13.945 197.904,13.945 197.904,13.945 198.715,13.945 198.715,13.945 198.715,13.945 Z M 199.010,11.053 C 198.030,10.579 198.712,9.037 199.718,9.454 200.431,9.749 200.458,10.741 199.762,11.058 199.399,11.224 199.361,11.223 199.010,11.053 Z M 201.688,13.664 C 201.639,13.322 201.039,13.089 200.182,13.078 199.589,13.071 199.589,13.071 199.589,13.071 199.589,13.508 199.589,13.508 199.589,13.508 199.589,13.945 199.589,13.945 199.589,13.945 200.658,13.945 200.658,13.945 200.658,13.945 201.696,13.945 201.727,13.937 201.688,13.664 Z M 149.170,9.951 C 149.170,9.078 149.170,9.078 149.170,9.078 146.674,9.078 146.674,9.078 146.674,9.078 144.178,9.078 144.178,9.078 144.178,9.078 144.178,9.951 144.178,9.951 144.178,9.951 144.178,10.825 144.178,10.825 144.178,10.825 146.674,10.825 146.674,10.825 146.674,10.825 149.170,10.825 149.170,10.825 149.170,10.825 Z M 197.211,8.642 C 197.457,8.396 197.530,8.197 197.530,7.767 197.530,6.985 197.063,6.519 196.282,6.519 195.840,6.519 195.654,6.591 195.380,6.865 194.754,7.491 194.970,8.614 195.782,8.966 196.185,9.140 196.867,8.985 197.211,8.642 Z " />
</svg>