<?xml version="1.0" encoding="UTF-8" standalone="no"?>
<!DOCTYPE svg PUBLIC "-//W3C//DTD SVG 20010904//EN" "http://www.w3.org/TR/2001/REC-SVG-20010904/DTD/svg10.dtd"[]>
<svg version="1.1" id="Frosty Editor v1.0.6.3" xmlns="http://www.w3.org/2000/svg" d1p1:xlink="http://www.w3.org/1999/xlink" viewBox="0 0 101 25" xmlns:d1p1="xmlns">
  <path stroke="none" fill="#ffffffff" d="M 50.292,0.245 C 50.076,0.245 49.878,0.299 49.722,0.401 49.598,0.482 49.495,0.602 49.458,0.747 48.055,0.747 48.055,0.747 48.055,0.747 47.887,1.222 47.887,1.222 47.887,1.222 47.317,0.882 47.317,0.882 47.317,0.882 44.504,0.882 44.504,0.882 44.504,0.882 44.504,0.882 43.357,0.771 42.675,1.644 42.147,2.206 42.147,2.206 42.147,2.206 42.091,2.931 42.091,2.931 42.091,2.931 36.328,2.931 36.328,2.931 36.328,2.931 34.741,2.425 34.741,2.425 34.741,2.425 28.636,2.279 28.636,2.279 28.636,2.279 28.636,4.250 28.636,4.250 28.636,4.250 28.636,4.635 28.636,4.635 28.636,4.635 28.636,7.410 28.636,7.410 28.636,7.410 28.636,7.796 28.636,7.796 28.636,7.796 28.636,9.765 28.636,9.765 28.636,9.765 34.741,9.621 34.741,9.621 34.741,9.621 34.781,9.609 34.781,9.609 34.781,9.609 35.670,9.362 35.670,9.362 35.670,9.362 35.670,9.803 35.670,9.803 35.670,9.803 36.062,9.797 36.062,9.797 36.062,9.797 36.062,9.797 36.996,9.792 37.767,10.212 38.153,10.422 38.486,10.723 38.681,11.185 38.877,11.648 38.942,12.295 38.698,13.235 38.673,13.333 38.673,13.333 38.673,13.333 36.754,19.232 36.754,19.232 36.754,19.232 36.751,19.245 36.751,19.245 36.751,19.245 36.751,19.245 36.575,19.936 36.575,20.760 36.575,21.585 36.738,22.614 37.552,23.202 38.931,24.197 40.757,24.757 40.766,24.759 40.770,24.761 41.731,25.103 42.867,24.953 50.656,25.151 50.656,25.151 50.656,25.151 50.769,25.160 51.356,25.184 52.038,24.850 52.796,24.478 53.694,23.664 54.341,22.014 54.341,22.012 54.341,22.012 54.341,22.012 56.900,15.064 56.900,15.064 56.900,15.064 56.907,15.045 56.907,15.045 56.907,15.045 56.907,15.045 56.908,15.026 56.957,14.944 57.006,14.861 57.093,14.744 57.249,14.625 57.461,14.463 57.814,14.293 58.389,14.231 59.281,14.231 59.281,14.231 59.281,14.231 60.844,14.231 60.844,14.231 60.844,14.231 60.954,14.129 60.954,14.129 60.954,14.129 61.530,13.602 61.591,13.143 61.655,12.892 63.276,12.892 63.276,12.892 63.276,12.892 63.276,9.457 63.276,9.457 63.276,9.457 66.348,9.457 66.348,9.457 66.348,9.457 66.348,8.248 66.348,8.248 66.348,8.248 67.208,8.132 67.208,8.132 67.208,8.132 67.208,7.615 67.208,7.615 67.208,7.615 67.241,7.596 67.241,7.596 67.241,7.596 71.280,7.452 71.280,7.452 71.280,7.452 71.280,5.971 71.280,5.971 71.280,5.971 71.280,5.584 71.280,5.584 71.280,5.584 71.280,4.736 71.280,4.736 71.280,4.736 67.241,4.594 67.241,4.594 67.241,4.594 67.208,4.574 67.208,4.574 67.208,4.574 67.208,4.057 67.208,4.057 67.208,4.057 66.348,3.940 66.348,3.940 66.348,3.940 66.348,2.731 66.348,2.731 66.348,2.731 64.983,2.731 64.983,2.731 64.983,2.731 64.983,0.868 64.983,0.868 64.983,0.868 60.752,0.868 60.752,0.868 60.752,0.868 60.365,1.503 60.365,1.503 60.365,1.503 59.885,0.891 59.885,0.891 59.885,0.891 58.867,0.891 58.867,0.891 58.867,0.891 58.724,1.195 58.724,1.195 58.724,1.195 58.604,0.882 58.604,0.882 58.604,0.882 57.709,0.882 57.709,0.882 57.709,0.882 57.605,1.102 57.605,1.102 57.605,1.102 57.519,0.882 57.519,0.882 57.519,0.882 56.514,0.882 56.514,0.882 56.514,0.882 56.309,1.526 56.309,1.526 56.309,1.526 55.645,0.882 55.645,0.882 55.645,0.882 54.642,0.882 54.642,0.882 54.642,0.882 54.454,1.374 54.454,1.374 54.454,1.374 53.880,0.882 53.880,0.882 53.880,0.882 52.886,0.882 52.886,0.882 52.886,0.882 52.808,1.121 52.808,1.121 52.808,1.121 52.622,0.963 52.622,0.963 52.622,0.963 52.534,0.895 52.534,0.895 52.534,0.895 52.297,0.747 52.297,0.747 52.297,0.747 51.126,0.747 51.126,0.747 51.126,0.747 51.089,0.602 50.986,0.482 50.862,0.401 50.706,0.299 50.508,0.245 50.292,0.245 Z M 50.264,0.616 C 50.273,0.616 50.282,0.616 50.292,0.616 50.443,0.616 50.576,0.659 50.659,0.713 50.677,0.724 50.692,0.736 50.704,0.747 49.880,0.747 49.880,0.747 49.880,0.747 49.892,0.736 49.907,0.724 49.925,0.713 50.003,0.662 50.124,0.621 50.264,0.616 Z M 48.600,1.520 C 52.076,1.520 52.076,1.520 52.076,1.520 52.093,1.530 52.093,1.530 52.093,1.530 52.137,1.562 52.137,1.562 52.137,1.562 52.787,2.119 52.787,2.119 52.787,2.119 52.859,2.117 52.859,2.117 52.859,2.117 52.859,2.180 52.859,2.180 52.859,2.180 52.606,2.036 52.329,1.904 52.036,1.809 51.977,1.792 51.977,1.792 51.977,1.792 50.968,1.792 50.968,1.792 50.968,1.792 48.486,1.792 48.486,1.792 48.486,1.792 48.539,1.689 48.539,1.689 48.539,1.689 Z M 61.187,1.640 C 62.767,1.640 62.767,1.640 62.767,1.640 62.767,2.923 62.767,2.923 62.767,2.923 62.767,3.294 62.767,3.294 62.767,3.294 62.767,3.509 62.767,3.509 62.767,3.509 60.595,3.253 60.595,3.253 60.595,3.253 60.595,2.360 60.595,2.360 60.595,2.360 60.750,2.360 60.750,2.360 60.750,2.360 Z M 63.139,1.640 C 64.211,1.640 64.211,1.640 64.211,1.640 64.211,2.923 64.211,2.923 64.211,2.923 63.139,2.923 63.139,2.923 63.139,2.923 Z M 45.912,1.653 C 47.104,1.653 47.104,1.653 47.104,1.653 47.686,2.002 47.686,2.002 47.686,2.002 47.194,2.235 46.741,2.552 46.408,2.814 46.408,2.598 46.408,2.598 46.408,2.598 46.408,2.216 46.202,1.889 45.912,1.653 Z M 53.445,1.653 C 53.596,1.653 53.596,1.653 53.596,1.653 54.448,2.387 54.448,2.387 54.448,2.387 54.568,2.387 54.568,2.387 54.568,2.387 54.568,3.193 54.568,3.193 54.568,3.193 54.186,3.191 54.186,3.191 54.186,3.191 54.101,3.110 53.743,2.758 53.230,2.412 53.230,2.108 53.230,2.108 53.230,2.108 53.296,2.106 53.296,2.106 53.296,2.106 Z M 55.174,1.653 C 55.332,1.653 55.332,1.653 55.332,1.653 56.261,2.554 56.261,2.554 56.261,2.554 56.417,2.488 56.417,2.488 56.417,2.488 56.417,3.201 56.417,3.201 56.417,3.201 54.940,3.194 54.940,3.194 54.940,3.194 54.940,2.387 54.940,2.387 54.940,2.387 55.075,2.387 55.075,2.387 55.075,2.387 55.075,1.910 55.075,1.910 55.075,1.910 Z M 59.357,1.663 C 59.509,1.663 59.509,1.663 59.509,1.663 60.059,2.360 60.059,2.360 60.059,2.360 60.222,2.360 60.222,2.360 60.222,2.360 60.222,3.218 60.222,3.218 60.222,3.218 58.800,3.212 58.800,3.212 58.800,3.212 58.800,2.430 58.800,2.430 58.800,2.430 58.952,2.522 58.952,2.522 58.952,2.522 Z M 57.044,1.767 C 57.135,1.997 57.135,1.997 57.135,1.997 58.040,1.997 58.040,1.997 58.040,1.997 58.131,1.800 58.131,1.800 58.131,1.800 58.245,2.092 58.245,2.092 58.245,2.092 58.428,2.203 58.428,2.203 58.428,2.203 58.428,3.210 58.428,3.210 58.428,3.210 56.788,3.203 56.788,3.203 56.788,3.203 56.788,2.331 56.788,2.331 56.788,2.331 56.915,2.277 56.915,2.277 56.915,2.277 56.915,2.172 56.915,2.172 56.915,2.172 Z M 44.312,1.925 C 44.721,1.925 45.085,2.031 45.318,2.176 45.552,2.321 45.635,2.472 45.635,2.598 45.635,3.114 45.635,3.114 45.635,3.114 45.592,3.076 45.547,3.040 45.500,3.007 45.187,2.791 44.770,2.663 44.312,2.663 43.854,2.663 43.438,2.791 43.126,3.007 43.078,3.040 43.033,3.076 42.991,3.113 42.991,2.598 42.991,2.598 42.991,2.598 42.991,2.472 43.074,2.321 43.308,2.176 43.541,2.031 43.903,1.925 44.312,1.925 Z M 44.301,1.950 C 44.121,1.960 43.980,2.114 43.980,2.296 43.980,2.484 44.130,2.642 44.318,2.642 44.506,2.642 44.658,2.484 44.658,2.296 44.658,2.108 44.506,1.950 44.318,1.950 44.312,1.950 44.307,1.950 44.301,1.950 Z M 44.313,2.184 C 44.314,2.184 44.316,2.184 44.318,2.184 44.375,2.184 44.422,2.230 44.422,2.296 44.422,2.362 44.375,2.406 44.318,2.406 44.261,2.406 44.215,2.362 44.215,2.296 44.215,2.233 44.258,2.187 44.313,2.184 Z M 48.372,2.562 C 50.968,2.562 50.968,2.562 50.968,2.562 51.827,2.562 51.827,2.562 51.827,2.562 52.721,2.872 53.819,3.858 53.819,3.858 53.929,3.963 53.929,3.963 53.929,3.963 54.072,3.964 54.072,3.964 54.072,3.964 54.072,8.224 54.072,8.224 54.072,8.224 53.929,8.224 53.929,8.224 53.929,8.224 53.819,8.328 53.819,8.328 53.819,8.328 53.819,8.328 52.721,9.314 51.827,9.624 50.968,9.624 50.968,9.624 50.968,9.624 48.372,9.624 48.372,9.624 48.372,9.624 47.541,9.336 46.547,8.475 46.408,8.352 46.408,3.833 46.408,3.833 46.408,3.833 46.547,3.711 47.541,2.850 48.372,2.562 Z M 44.312,3.035 C 44.701,3.035 45.047,3.145 45.287,3.311 45.473,3.440 45.591,3.597 45.635,3.763 45.635,8.265 45.635,8.265 45.635,8.265 45.591,8.431 45.473,8.587 45.287,8.716 45.047,8.882 44.701,8.993 44.312,8.993 43.924,8.993 43.576,8.882 43.337,8.716 43.151,8.588 43.034,8.433 42.991,8.267 42.991,3.761 42.991,3.761 42.991,3.761 43.034,3.595 43.151,3.440 43.337,3.311 43.576,3.145 43.924,3.035 44.312,3.035 Z M 29.409,3.069 C 34.488,3.191 34.488,3.191 34.488,3.191 34.488,8.854 34.488,8.854 34.488,8.854 29.409,8.976 29.409,8.976 29.409,8.976 29.409,4.635 29.409,4.635 29.409,4.635 29.409,4.250 29.409,4.250 29.409,4.250 Z M 34.859,3.273 C 36.092,3.667 36.092,3.667 36.092,3.667 36.092,8.377 36.092,8.377 36.092,8.377 34.859,8.772 34.859,8.772 34.859,8.772 Z M 63.139,3.294 C 64.211,3.294 64.211,3.294 64.211,3.294 64.211,3.503 64.211,3.503 64.211,3.503 65.578,3.503 65.578,3.503 65.578,3.503 65.578,3.842 65.578,3.842 65.578,3.842 63.139,3.554 63.139,3.554 63.139,3.554 Z M 50.240,3.691 C 48.902,3.691 47.813,4.781 47.813,6.118 47.813,7.456 48.902,8.545 50.240,8.545 51.577,8.545 52.667,7.456 52.667,6.118 52.667,4.781 51.577,3.691 50.240,3.691 Z M 36.463,3.704 C 42.218,3.704 42.218,3.704 42.218,3.704 42.218,8.340 42.218,8.340 42.218,8.340 36.463,8.340 36.463,8.340 36.463,8.340 Z M 54.444,3.966 C 60.161,3.990 60.161,3.990 60.161,3.990 60.161,8.195 60.161,8.195 60.161,8.195 54.444,8.222 54.444,8.222 54.444,8.222 Z M 60.532,4.023 C 65.784,4.643 65.784,4.643 65.784,4.643 66.435,4.732 66.435,4.732 66.435,4.732 66.435,5.019 66.435,5.019 66.435,5.019 66.933,5.307 66.933,5.307 66.933,5.307 66.933,6.881 66.933,6.881 66.933,6.881 66.435,7.169 66.435,7.169 66.435,7.169 66.435,7.456 66.435,7.456 66.435,7.456 65.869,7.532 65.869,7.532 65.869,7.532 65.869,7.532 65.869,7.532 65.869,7.532 60.532,8.163 60.532,8.163 60.532,8.163 Z M 50.240,4.464 C 51.163,4.464 51.894,5.195 51.894,6.118 51.894,7.041 51.163,7.773 50.240,7.773 49.317,7.773 48.585,7.041 48.585,6.118 48.585,5.195 49.317,4.464 50.240,4.464 Z M 67.305,5.369 C 70.510,5.481 70.510,5.481 70.510,5.481 70.510,5.584 70.510,5.584 70.510,5.584 70.510,5.971 70.510,5.971 70.510,5.971 70.510,6.218 70.510,6.218 70.510,6.218 70.510,6.603 70.510,6.603 70.510,6.603 70.510,6.707 70.510,6.707 70.510,6.707 67.305,6.819 67.305,6.819 67.305,6.819 Z M 65.578,8.343 C 65.578,8.684 65.578,8.684 65.578,8.684 62.698,8.684 62.698,8.684 62.698,8.684 Z M 62.503,8.707 C 62.503,9.296 62.503,9.296 62.503,9.296 53.856,9.296 53.856,9.296 53.856,9.296 54.027,9.150 54.143,9.037 54.186,8.995 60.308,8.968 60.308,8.968 60.308,8.968 Z M 45.635,8.914 C 45.635,9.429 45.635,9.429 45.635,9.429 45.635,9.555 45.552,9.707 45.318,9.851 45.085,9.996 44.721,10.103 44.312,10.103 43.903,10.103 43.541,9.996 43.308,9.851 43.074,9.707 42.991,9.555 42.991,9.429 42.991,8.914 42.991,8.914 42.991,8.914 43.033,8.952 43.078,8.987 43.126,9.020 43.438,9.237 43.854,9.364 44.312,9.364 44.770,9.364 45.187,9.237 45.500,9.020 45.547,8.987 45.592,8.951 45.635,8.914 Z M 36.442,9.113 C 42.218,9.113 42.218,9.113 42.218,9.113 42.218,9.296 42.218,9.296 42.218,9.296 37.603,9.296 37.603,9.296 37.603,9.296 37.068,9.109 36.671,9.127 36.442,9.121 Z M 46.408,9.373 C 46.587,9.515 46.802,9.672 47.039,9.824 46.331,9.824 46.331,9.824 46.331,9.824 46.380,9.701 46.408,9.569 46.408,9.429 Z M 44.318,9.389 C 44.130,9.389 43.980,9.550 43.980,9.738 43.980,9.925 44.130,10.084 44.318,10.084 44.506,10.084 44.658,9.925 44.658,9.738 44.658,9.550 44.506,9.389 44.318,9.389 Z M 44.313,9.626 C 44.314,9.626 44.316,9.626 44.318,9.626 44.375,9.626 44.422,9.672 44.422,9.738 44.422,9.803 44.375,9.848 44.318,9.848 44.261,9.848 44.215,9.803 44.215,9.738 44.215,9.674 44.258,9.629 44.313,9.626 Z M 43.185,9.626 C 43.185,9.630 43.190,9.641 43.191,9.646 43.191,9.648 43.190,9.641 43.190,9.639 43.189,9.635 43.187,9.630 43.186,9.626 Z M 38.359,9.668 C 42.246,9.668 42.246,9.668 42.246,9.668 42.258,9.721 42.275,9.773 42.295,9.824 41.094,9.824 41.094,9.824 41.094,9.824 39.499,9.824 38.695,9.724 38.359,9.668 Z M 53.383,9.668 C 62.503,9.668 62.503,9.668 62.503,9.668 62.503,9.824 62.503,9.824 62.503,9.824 53.155,9.824 53.155,9.824 53.155,9.824 53.235,9.772 53.310,9.720 53.383,9.668 Z M 38.884,10.106 C 39.366,10.152 40.074,10.195 41.094,10.195 42.526,10.195 42.526,10.195 42.526,10.195 42.633,10.316 42.761,10.422 42.900,10.508 43.284,10.746 43.775,10.875 44.312,10.875 44.849,10.875 45.342,10.746 45.726,10.508 45.865,10.422 45.993,10.316 46.099,10.195 47.706,10.195 47.706,10.195 47.706,10.195 47.855,10.265 48.007,10.327 48.161,10.377 48.220,10.396 48.220,10.396 48.220,10.396 50.968,10.396 50.968,10.396 50.968,10.396 51.977,10.396 51.977,10.396 51.977,10.396 52.036,10.377 52.036,10.377 52.036,10.377 52.193,10.326 52.346,10.264 52.493,10.195 62.503,10.195 62.503,10.195 62.503,10.195 62.503,12.120 62.503,12.120 62.503,12.120 61.136,12.120 61.136,12.120 61.136,12.120 61.111,12.253 61.111,12.253 61.111,12.253 55.988,12.253 55.988,12.253 55.988,12.253 55.951,12.055 55.951,12.055 55.951,12.055 55.579,11.954 55.579,11.954 55.579,11.954 54.619,11.692 53.751,11.548 52.966,11.498 50.613,11.345 49.017,12.033 47.990,12.897 46.621,14.049 46.256,15.499 46.256,15.499 46.243,15.550 46.243,15.550 46.243,15.550 46.243,15.600 46.243,15.600 46.243,15.600 46.267,16.740 46.059,17.742 46.059,17.742 46.059,17.746 46.059,17.746 46.059,17.746 46.057,17.749 46.057,17.749 46.057,17.749 46.057,17.749 46.000,18.050 45.897,18.422 45.794,18.794 45.636,19.240 45.496,19.462 45.209,19.917 45.199,20.494 45.194,21.005 45.189,21.455 45.220,21.751 45.228,21.836 44.737,23.546 43.759,24.039 42.831,24.179 42.765,24.177 42.765,24.177 42.765,24.177 42.765,24.188 42.765,24.188 42.765,24.188 41.838,24.310 41.015,24.031 41.015,24.031 41.009,24.029 41.009,24.029 41.009,24.029 41.003,24.027 41.003,24.027 41.003,24.027 41.003,24.027 39.231,23.463 38.004,22.577 37.514,22.223 37.347,21.476 37.347,20.760 37.347,20.052 37.494,19.455 37.497,19.443 39.297,13.910 39.297,13.910 39.297,13.910 39.384,13.620 39.468,13.332 39.531,13.046 39.702,12.168 39.632,11.453 39.392,10.886 39.263,10.579 39.087,10.322 38.884,10.106 Z M 52.392,12.238 C 53.221,12.249 54.180,12.380 55.287,12.676 55.350,12.923 55.566,13.599 56.145,14.129 56.255,14.231 56.255,14.231 56.255,14.231 56.539,14.231 56.539,14.231 56.539,14.231 56.432,14.345 56.349,14.455 56.293,14.551 56.200,14.709 56.157,14.853 56.157,14.853 53.619,21.739 53.619,21.739 53.619,21.739 53.028,23.242 52.276,23.874 51.696,24.158 51.115,24.443 50.732,24.384 50.732,24.384 50.713,24.381 50.713,24.381 50.713,24.381 44.607,24.225 44.607,24.225 44.607,24.225 45.190,23.763 45.697,23.057 45.988,22.014 46.008,21.944 46.008,21.944 46.008,21.944 46.000,21.870 46.000,21.870 46.000,21.870 46.000,21.870 45.962,21.476 45.967,21.013 45.971,20.551 46.063,20.009 46.148,19.874 46.379,19.507 46.528,19.029 46.639,18.626 46.751,18.223 46.815,17.896 46.815,17.896 46.816,17.891 47.015,16.853 47.007,15.674 47.010,15.662 47.129,15.211 47.488,14.638 48.520,16.105 50.529,16.155 50.529,16.155 50.696,15.537 50.696,15.537 50.696,15.537 49.530,14.897 49.304,13.586 49.265,12.954 50.029,12.527 51.038,12.222 52.392,12.238 Z M 56.095,12.624 C 61.004,12.624 61.004,12.624 61.004,12.624 60.916,12.831 60.749,13.169 60.490,13.458 59.281,13.458 59.281,13.458 59.281,13.458 56.609,13.458 56.609,13.458 56.609,13.458 56.350,13.170 56.182,12.831 56.095,12.624 Z M 48.663,13.352 C 48.749,13.894 48.955,14.625 49.444,15.258 48.891,15.070 48.282,14.736 47.907,14.075 48.073,13.878 48.260,13.680 48.488,13.488 48.543,13.441 48.604,13.397 48.663,13.352 Z " />
</svg>