<?xml version="1.0" encoding="UTF-8" standalone="no"?>
<!DOCTYPE svg PUBLIC "-//W3C//DTD SVG 20010904//EN" "http://www.w3.org/TR/2001/REC-SVG-20010904/DTD/svg10.dtd"[]>
<svg version="1.1" id="Frosty Editor v1.0.6.3" xmlns="http://www.w3.org/2000/svg" d1p1:xlink="http://www.w3.org/1999/xlink" viewBox="0 0 101 25" xmlns:d1p1="xmlns">
  <path stroke="none" fill="#ffffffff" d="M 52.309,0.028 C 52.302,0.028 52.302,0.028 52.302,0.028 51.557,0.028 51.557,0.028 51.557,0.028 51.557,0.314 51.557,0.314 51.557,0.314 51.500,0.314 51.443,0.314 51.385,0.315 51.348,0.323 51.321,0.352 51.294,0.377 51.276,0.394 51.259,0.413 51.243,0.433 51.140,0.433 51.036,0.453 50.941,0.491 50.909,0.502 50.876,0.517 50.842,0.510 50.805,0.502 50.773,0.481 50.738,0.467 50.694,0.446 50.647,0.430 50.598,0.432 50.536,0.432 50.473,0.432 50.411,0.432 50.411,0.536 50.411,0.536 50.411,0.536 45.996,0.536 45.996,0.536 45.996,0.536 45.881,0.435 45.766,0.334 45.651,0.232 43.636,0.232 43.636,0.232 43.636,0.232 43.636,0.536 43.636,0.536 43.636,0.536 43.278,0.536 43.278,0.536 43.278,0.536 43.278,3.869 43.278,3.869 43.278,3.869 43.636,3.869 43.636,3.869 43.636,3.869 43.636,4.207 43.636,4.207 43.636,4.207 45.391,4.207 45.391,4.207 45.391,4.207 45.391,4.340 45.391,4.340 45.391,4.340 44.190,4.340 44.190,4.340 44.190,4.340 44.190,4.862 44.190,4.862 44.190,4.862 44.146,4.862 44.146,4.862 44.146,4.862 44.146,4.512 44.146,4.512 44.146,4.512 42.862,4.512 42.862,4.512 42.862,4.512 42.862,5.488 42.862,5.488 42.862,5.488 42.974,5.488 42.974,5.488 42.974,5.488 42.984,5.550 42.993,5.613 43.003,5.675 42.844,5.747 42.716,5.883 42.654,6.046 42.372,6.106 42.101,6.209 41.842,6.335 41.618,6.444 41.402,6.569 41.195,6.707 41.022,6.823 40.854,6.948 40.695,7.082 40.607,7.157 40.521,7.235 40.444,7.321 40.438,7.328 40.432,7.336 40.426,7.343 40.406,7.329 40.381,7.327 40.358,7.329 40.325,7.329 40.292,7.327 40.259,7.332 40.225,7.341 40.202,7.379 40.207,7.414 40.207,7.709 40.207,7.709 40.207,7.709 39.915,7.762 39.625,7.824 39.334,7.879 38.878,7.965 38.419,8.043 37.957,8.091 37.733,8.114 37.508,8.130 37.283,8.133 37.050,8.138 36.817,8.152 36.584,8.167 36.251,8.189 35.918,8.215 35.586,8.247 35.463,8.260 35.340,8.272 35.218,8.289 35.128,8.301 35.039,8.317 34.949,8.332 34.774,8.361 34.599,8.397 34.428,8.445 34.306,8.480 34.185,8.522 34.072,8.581 33.995,8.620 33.922,8.670 33.868,8.737 33.846,8.765 33.830,8.796 33.815,8.828 33.752,8.949 33.688,9.072 33.641,9.201 33.559,9.418 33.502,9.644 33.445,9.869 33.395,10.068 33.350,10.268 33.304,10.468 33.286,10.535 33.260,10.600 33.233,10.664 33.179,10.788 33.118,10.909 33.055,11.028 32.944,11.237 32.825,11.441 32.705,11.644 32.530,11.940 32.350,12.232 32.167,12.523 32.100,12.630 32.032,12.736 31.966,12.843 31.615,13.452 31.308,14.086 31.028,14.731 30.662,15.579 30.347,16.449 30.080,17.333 29.787,18.303 29.551,19.291 29.380,20.290 29.219,21.232 29.115,22.184 29.077,23.139 29.068,23.380 29.063,23.621 29.063,23.863 29.063,23.901 29.061,23.940 29.068,23.978 29.080,24.041 29.111,24.101 29.159,24.145 29.220,24.201 29.298,24.234 29.376,24.258 29.444,24.280 29.514,24.295 29.585,24.304 31.092,24.471 31.092,24.471 31.092,24.471 30.984,24.568 30.918,24.710 30.914,24.855 30.909,24.995 30.961,25.137 31.057,25.240 31.150,25.340 31.281,25.403 31.417,25.411 31.555,25.421 31.696,25.376 31.802,25.286 31.911,25.194 31.981,25.058 31.991,24.916 32.001,24.791 31.967,24.662 31.893,24.560 32.683,24.647 33.472,24.735 34.262,24.822 34.395,24.834 34.531,24.832 34.662,24.804 34.747,24.785 34.831,24.753 34.898,24.697 34.954,24.652 34.995,24.589 35.012,24.520 35.026,24.468 35.027,24.413 35.025,24.360 35.013,23.678 35.019,22.996 35.049,22.315 35.076,21.690 35.123,21.066 35.192,20.444 35.240,20.011 35.300,19.580 35.369,19.150 35.422,18.832 35.481,18.514 35.547,18.198 35.611,17.888 35.682,17.579 35.761,17.272 35.812,17.071 35.866,16.872 35.923,16.673 36.157,15.858 36.444,15.059 36.788,14.284 36.832,14.185 36.876,14.086 36.921,13.987 36.933,13.963 36.944,13.939 36.959,13.916 37.036,13.792 37.129,13.676 37.245,13.588 37.345,13.511 37.461,13.457 37.583,13.429 37.680,13.406 37.780,13.399 37.880,13.398 37.911,13.398 37.943,13.398 37.974,13.398 37.974,12.877 37.974,12.877 37.974,12.877 38.110,12.877 38.110,12.877 38.110,12.877 38.137,12.937 38.144,13.003 38.152,13.067 38.166,13.196 38.167,13.326 38.171,13.456 38.179,13.770 38.184,14.086 38.237,14.397 38.265,14.559 38.308,14.719 38.377,14.869 38.481,15.102 38.636,15.310 38.824,15.482 39.018,15.661 39.245,15.803 39.485,15.912 39.781,16.046 40.096,16.133 40.416,16.189 40.787,16.254 41.165,16.278 41.542,16.277 41.932,16.277 42.324,16.249 42.707,16.173 43.043,16.105 43.374,15.999 43.676,15.836 43.883,15.725 44.076,15.587 44.247,15.426 44.426,15.257 44.581,15.062 44.710,14.852 44.764,14.765 44.814,14.675 44.859,14.583 44.903,14.483 44.924,14.374 44.942,14.267 44.975,14.055 44.982,13.839 44.970,13.625 44.958,13.413 44.926,13.202 44.874,12.996 44.976,12.996 45.079,12.996 45.181,12.995 45.250,12.988 45.312,12.955 45.370,12.919 45.483,12.846 45.583,12.757 45.688,12.673 45.843,12.544 46.002,12.417 46.174,12.311 46.355,12.198 46.549,12.106 46.756,12.050 46.906,12.009 47.062,11.987 47.218,11.985 47.419,11.985 47.619,11.985 47.820,11.985 52.273,11.985 52.273,11.985 52.273,11.985 53.312,11.480 54.350,10.975 55.388,10.470 68.157,10.470 68.157,10.470 68.157,10.470 68.157,10.704 68.157,10.704 68.157,10.704 71.937,10.704 71.937,10.704 71.937,10.704 71.937,10.082 71.937,10.082 71.937,10.082 72.212,10.082 72.212,10.082 72.212,10.082 72.212,8.825 72.212,8.825 72.212,8.825 71.937,8.825 71.937,8.825 71.937,8.825 71.937,8.626 71.937,8.626 71.937,8.626 72.212,8.626 72.212,8.626 72.212,8.626 72.212,7.369 72.212,7.369 72.212,7.369 71.937,7.369 71.937,7.369 71.937,7.369 71.937,7.182 71.937,7.182 71.937,7.182 72.035,7.182 72.035,7.182 72.035,7.182 72.054,7.156 72.073,7.130 72.092,7.104 72.130,7.104 72.130,7.104 72.130,7.104 72.148,7.130 72.166,7.156 72.183,7.182 72.585,7.182 72.585,7.182 72.585,7.182 72.690,7.096 72.796,7.009 72.901,6.923 72.901,5.165 72.901,5.165 72.901,5.165 72.796,5.078 72.690,4.992 72.585,4.905 72.183,4.905 72.183,4.905 72.183,4.905 72.166,4.931 72.148,4.957 72.130,4.983 72.092,4.983 72.092,4.983 72.092,4.983 72.073,4.957 72.054,4.931 72.035,4.905 71.937,4.905 71.937,4.905 71.937,4.905 71.937,4.626 71.937,4.626 71.937,4.626 68.157,4.626 68.157,4.626 68.157,4.626 68.157,4.754 68.157,4.754 68.157,4.754 53.794,4.754 53.794,4.754 53.794,4.754 53.794,4.323 53.794,4.323 53.794,4.323 53.475,4.323 53.475,4.323 53.475,4.323 53.475,4.399 53.475,4.399 53.475,4.399 52.892,4.399 52.892,4.399 52.892,4.399 52.892,4.323 52.892,4.323 52.892,4.323 52.573,4.323 52.573,4.323 52.573,4.323 52.573,4.399 52.573,4.399 52.573,4.399 49.968,4.399 49.968,4.399 49.968,4.399 49.968,4.340 49.968,4.340 49.968,4.340 48.986,4.340 48.986,4.340 48.986,4.340 48.986,4.207 48.986,4.207 48.986,4.207 50.162,4.207 50.162,4.207 50.162,4.207 50.162,3.869 50.162,3.869 50.162,3.869 50.411,3.869 50.411,3.869 50.411,3.869 50.411,3.973 50.411,3.973 50.411,3.973 50.485,3.972 50.560,3.974 50.634,3.971 50.699,3.963 50.755,3.927 50.815,3.903 50.841,3.893 50.871,3.889 50.897,3.899 50.951,3.915 51.002,3.939 51.056,3.950 51.117,3.965 51.180,3.972 51.243,3.972 51.279,4.014 51.316,4.057 51.365,4.083 51.391,4.095 51.420,4.089 51.447,4.090 51.557,4.090 51.557,4.090 51.557,4.090 51.557,4.377 51.557,4.377 51.557,4.377 51.813,4.377 52.069,4.378 52.325,4.377 52.409,4.370 52.481,4.293 52.481,4.209 52.481,3.270 52.481,2.330 52.481,1.391 52.481,0.991 52.481,0.590 52.481,0.190 52.477,0.102 52.397,0.026 52.309,0.028 Z M 52.096,0.413 C 52.097,1.606 52.097,2.799 52.097,3.992 52.046,3.992 51.994,3.992 51.942,3.992 51.942,3.706 51.942,3.706 51.942,3.706 51.887,3.706 51.831,3.705 51.776,3.705 51.776,0.641 51.776,0.641 51.776,0.641 51.780,0.638 51.786,0.637 51.790,0.634 51.866,0.584 51.919,0.502 51.934,0.413 51.988,0.413 52.042,0.413 52.096,0.413 Z M 44.021,0.617 C 44.369,0.617 44.369,0.617 44.369,0.617 44.369,3.822 44.369,3.822 44.369,3.822 44.021,3.822 44.021,3.822 44.021,3.822 44.021,3.484 44.021,3.484 44.021,3.484 43.854,3.484 43.854,3.484 43.854,3.484 43.854,0.921 43.854,0.921 43.854,0.921 44.021,0.921 44.021,0.921 44.021,0.921 Z M 44.745,0.617 C 45.506,0.617 45.506,0.617 45.506,0.617 45.621,0.719 45.736,0.820 45.851,0.921 46.109,0.921 46.109,0.921 46.109,0.921 46.304,1.091 46.497,1.261 46.693,1.430 47.137,1.811 47.582,2.190 48.034,2.562 48.432,2.890 48.834,3.215 49.248,3.523 49.388,3.628 49.532,3.728 49.679,3.822 49.184,3.822 49.184,3.822 49.184,3.822 49.184,3.537 49.184,3.537 49.184,3.537 45.193,3.537 45.193,3.537 45.193,3.537 45.193,3.822 45.193,3.822 45.193,3.822 44.745,3.822 44.745,3.822 44.745,3.822 Z M 51.557,0.698 C 51.558,1.700 51.558,2.703 51.558,3.705 51.545,3.705 51.533,3.705 51.520,3.705 51.498,3.682 51.471,3.665 51.445,3.648 51.445,3.618 51.445,3.588 51.445,3.558 51.445,2.628 51.445,1.698 51.445,0.768 51.473,0.749 51.498,0.726 51.521,0.700 51.526,0.698 51.532,0.700 51.538,0.699 51.545,0.700 51.551,0.698 51.557,0.698 Z M 51.069,0.853 C 51.069,1.752 51.069,2.651 51.069,3.550 51.065,3.548 51.060,3.548 51.055,3.546 50.973,3.516 50.883,3.501 50.796,3.514 50.796,3.504 50.796,3.494 50.796,3.484 50.629,3.484 50.629,3.484 50.629,3.484 50.629,0.921 50.629,0.921 50.629,0.921 50.796,0.921 50.796,0.921 50.796,0.921 50.796,0.911 50.796,0.901 50.796,0.891 50.842,0.897 50.889,0.896 50.935,0.889 50.981,0.883 51.025,0.868 51.069,0.853 Z M 46.435,0.921 C 50.411,0.921 50.411,0.921 50.411,0.921 50.411,3.484 50.411,3.484 50.411,3.484 49.777,3.484 49.777,3.484 49.777,3.484 49.777,3.591 49.777,3.591 49.777,3.591 49.679,3.537 49.586,3.475 49.494,3.412 49.189,3.201 48.897,2.972 48.607,2.741 47.888,2.166 47.187,1.570 46.490,0.969 46.471,0.953 46.453,0.937 46.435,0.921 Z M 45.119,1.867 C 44.996,1.869 44.877,1.944 44.822,2.054 44.773,2.150 44.772,2.268 44.821,2.364 44.863,2.450 44.943,2.516 45.036,2.541 45.128,2.567 45.231,2.552 45.312,2.500 45.389,2.452 45.445,2.372 45.463,2.284 45.483,2.194 45.466,2.097 45.415,2.021 45.364,1.944 45.281,1.889 45.190,1.873 45.167,1.868 45.143,1.866 45.119,1.867 Z M 45.578,3.922 C 45.839,3.922 45.839,3.922 45.839,3.922 45.784,3.950 45.741,4.005 45.732,4.067 45.720,4.138 45.748,4.215 45.807,4.258 45.865,4.303 45.949,4.313 46.015,4.279 46.077,4.249 46.121,4.187 46.126,4.118 46.132,4.048 46.100,3.975 46.040,3.936 46.033,3.931 46.025,3.926 46.016,3.922 48.290,3.922 48.290,3.922 48.290,3.922 48.235,3.950 48.193,4.004 48.183,4.065 48.170,4.137 48.199,4.215 48.258,4.259 48.317,4.304 48.402,4.313 48.468,4.279 48.528,4.249 48.572,4.187 48.577,4.119 48.584,4.049 48.551,3.975 48.491,3.937 48.484,3.931 48.476,3.926 48.467,3.922 48.799,3.922 48.799,3.922 48.799,3.922 48.799,4.340 48.799,4.340 48.799,4.340 45.578,4.340 45.578,4.340 45.578,4.340 Z M 44.575,4.725 C 49.583,4.725 49.583,4.725 49.583,4.725 49.583,4.784 49.583,4.784 49.583,4.784 49.679,4.784 49.679,4.784 49.679,4.784 49.679,6.355 49.679,6.355 49.679,6.355 48.856,6.355 48.034,6.355 47.211,6.355 47.122,6.352 47.030,6.356 46.946,6.388 46.816,6.440 46.708,6.537 46.630,6.652 46.626,6.657 46.624,6.663 46.619,6.667 43.879,6.667 43.879,6.667 43.879,6.667 43.880,6.648 43.879,6.628 43.880,6.609 43.950,6.480 43.975,6.328 43.952,6.182 44.640,6.182 45.328,6.183 46.016,6.182 46.059,6.181 46.103,6.182 46.146,6.181 46.228,6.176 46.310,6.140 46.364,6.077 46.415,6.020 46.444,5.942 46.441,5.865 46.448,5.633 46.444,5.402 46.444,5.170 46.443,5.067 46.385,4.970 46.300,4.914 46.262,4.888 46.218,4.870 46.171,4.865 46.133,4.863 46.095,4.865 46.057,4.864 45.563,4.863 45.069,4.863 44.575,4.862 44.575,4.816 44.575,4.770 44.575,4.725 Z M 43.112,4.762 C 43.896,4.762 43.896,4.762 43.896,4.762 43.896,5.238 43.896,5.238 43.896,5.238 43.112,5.238 43.112,5.238 43.112,5.238 Z M 52.892,4.783 C 53.065,4.783 53.237,4.784 53.410,4.784 53.410,5.138 53.410,5.138 53.410,5.138 53.475,5.138 53.475,5.138 53.475,5.138 53.475,7.083 53.475,7.083 53.475,7.083 52.892,7.083 52.892,7.083 52.892,7.083 Z M 52.573,4.783 C 52.573,5.741 52.573,5.741 52.573,5.741 49.968,5.741 49.968,5.741 49.968,5.741 49.968,4.784 49.968,4.784 49.968,4.784 52.447,4.784 52.447,4.784 52.447,4.784 52.489,4.783 52.531,4.783 52.573,4.783 Z M 68.542,5.011 C 69.203,5.011 69.203,5.011 69.203,5.011 69.203,8.035 69.203,8.035 69.203,8.035 69.750,8.430 70.296,8.826 70.843,9.221 70.843,10.319 70.843,10.319 70.843,10.319 68.542,10.319 68.542,10.319 68.542,10.319 68.542,10.085 68.542,10.085 68.542,10.085 68.525,10.085 68.525,10.085 68.525,10.085 68.525,5.138 68.525,5.138 68.525,5.138 68.542,5.138 68.542,5.138 68.542,5.138 Z M 69.353,5.011 C 71.552,5.011 71.552,5.011 71.552,5.011 71.552,5.290 71.552,5.290 71.552,5.290 71.569,5.290 71.569,5.290 71.569,5.290 71.569,6.797 71.569,6.797 71.569,6.797 71.552,6.797 71.552,6.797 71.552,6.797 71.552,7.754 71.552,7.754 71.552,7.754 71.569,7.754 71.569,7.754 71.569,7.754 71.569,8.241 71.569,8.241 71.569,8.241 71.552,8.241 71.552,8.241 71.552,8.241 71.552,9.209 71.552,9.209 71.552,9.209 71.569,9.209 71.569,9.209 71.569,9.209 71.569,9.697 71.569,9.697 71.569,9.697 71.552,9.697 71.552,9.697 71.552,9.697 71.552,10.319 71.552,10.319 71.552,10.319 70.993,10.319 70.993,10.319 70.993,10.319 70.993,9.154 70.993,9.154 70.993,9.154 70.446,8.758 69.899,8.363 69.353,7.967 Z M 53.794,5.138 C 68.157,5.138 68.157,5.138 68.157,5.138 68.157,7.083 68.157,7.083 68.157,7.083 53.794,7.083 53.794,7.083 53.794,7.083 Z M 44.538,5.151 C 46.131,5.152 46.131,5.152 46.131,5.152 46.143,5.150 46.153,5.162 46.153,5.174 46.159,5.204 46.154,5.235 46.156,5.266 46.156,5.464 46.156,5.661 46.155,5.859 46.154,5.871 46.153,5.886 46.141,5.891 46.121,5.896 46.101,5.891 46.081,5.893 43.833,5.893 43.833,5.893 43.833,5.893 43.809,5.860 43.783,5.830 43.753,5.802 43.753,5.488 43.753,5.488 43.753,5.488 44.146,5.488 44.146,5.488 44.146,5.488 44.146,5.247 44.146,5.247 44.146,5.247 44.179,5.247 44.213,5.247 44.247,5.247 44.301,5.246 44.357,5.252 44.411,5.242 44.463,5.230 44.508,5.196 44.538,5.151 Z M 72.385,5.290 C 72.448,5.290 72.448,5.290 72.448,5.290 72.470,5.309 72.493,5.328 72.516,5.346 72.516,6.741 72.516,6.741 72.516,6.741 72.448,6.797 72.448,6.797 72.448,6.797 72.385,6.797 72.385,6.797 72.385,6.797 72.367,6.771 72.349,6.745 72.331,6.719 72.260,6.719 72.260,6.719 72.260,6.719 72.254,6.269 72.248,5.818 72.241,5.368 72.331,5.368 72.331,5.368 72.331,5.368 72.349,5.342 72.367,5.316 72.385,5.290 Z M 71.937,5.368 C 71.963,5.368 71.963,5.368 71.963,5.368 71.963,6.719 71.963,6.719 71.963,6.719 71.937,6.719 71.937,6.719 71.937,6.719 Z M 43.132,5.488 C 43.416,5.488 43.416,5.488 43.416,5.488 43.423,5.536 43.430,5.583 43.438,5.631 43.344,5.609 43.247,5.608 43.153,5.626 43.146,5.580 43.139,5.534 43.132,5.488 Z M 43.573,5.488 C 43.590,5.488 43.590,5.488 43.590,5.488 43.590,5.599 43.590,5.599 43.590,5.599 43.584,5.562 43.579,5.525 43.573,5.488 Z M 43.281,5.818 C 43.328,5.818 43.373,5.824 43.418,5.837 43.563,5.878 43.684,5.994 43.731,6.137 43.770,6.254 43.763,6.387 43.707,6.498 43.685,6.543 43.655,6.585 43.619,6.621 43.543,6.699 43.438,6.747 43.329,6.757 43.274,6.763 43.218,6.758 43.165,6.744 43.044,6.713 42.936,6.630 42.875,6.520 42.852,6.480 42.836,6.437 42.826,6.393 42.806,6.303 42.811,6.209 42.844,6.123 42.884,6.016 42.964,5.924 43.065,5.872 43.132,5.838 43.206,5.818 43.281,5.818 Z M 49.968,6.030 C 52.573,6.030 52.573,6.030 52.573,6.030 52.573,7.083 52.573,7.083 52.573,7.083 49.839,7.083 49.839,7.083 49.839,7.083 49.839,6.644 49.839,6.644 49.839,6.644 49.968,6.644 49.968,6.644 49.968,6.644 Z M 42.630,6.449 C 42.633,6.460 42.635,6.472 42.638,6.482 42.581,6.497 42.528,6.523 42.474,6.546 42.333,6.611 42.196,6.686 42.059,6.758 41.902,6.841 41.745,6.925 41.582,6.994 41.483,7.037 41.383,7.078 41.284,7.119 41.432,7.014 41.584,6.914 41.742,6.824 42.014,6.670 42.300,6.538 42.602,6.456 42.612,6.454 42.621,6.452 42.630,6.449 Z M 47.112,6.644 C 49.582,6.644 49.582,6.644 49.582,6.644 49.582,11.600 49.582,11.600 49.582,11.600 48.957,11.600 48.333,11.600 47.709,11.600 47.512,11.602 47.315,11.595 47.118,11.606 46.833,11.619 46.553,11.693 46.294,11.810 46.082,11.905 45.887,12.033 45.701,12.172 45.534,12.294 45.380,12.434 45.213,12.557 45.188,12.573 45.165,12.593 45.139,12.606 45.092,12.609 45.044,12.610 44.996,12.610 44.933,12.612 44.870,12.607 44.807,12.612 44.714,12.618 44.627,12.667 44.566,12.738 44.068,12.738 43.570,12.738 43.071,12.738 43.003,12.696 42.933,12.656 42.866,12.611 42.442,12.611 42.018,12.611 41.594,12.610 41.538,12.573 41.488,12.529 41.431,12.493 41.308,12.493 41.308,12.493 41.308,12.493 41.261,12.427 41.218,12.359 41.177,12.290 41.018,12.016 40.899,11.719 40.804,11.416 40.657,10.945 40.574,10.454 40.549,9.960 40.516,9.309 40.590,8.652 40.777,8.028 40.813,7.907 40.854,7.787 40.897,7.668 40.917,7.617 40.956,7.575 41.003,7.548 41.160,7.450 41.331,7.377 41.502,7.307 41.568,7.280 41.635,7.254 41.700,7.224 41.975,7.101 42.237,6.950 42.508,6.817 42.569,6.787 42.631,6.756 42.696,6.735 42.716,6.732 42.736,6.735 42.756,6.734 42.763,6.735 42.772,6.734 42.778,6.736 42.901,6.876 43.084,6.961 43.270,6.964 43.380,6.966 43.492,6.942 43.590,6.892 43.590,6.956 43.590,6.956 43.590,6.956 46.815,6.956 46.815,6.956 46.815,6.956 46.810,6.924 46.822,6.892 46.837,6.864 46.873,6.798 46.922,6.739 46.983,6.694 47.002,6.679 47.024,6.667 47.045,6.658 47.067,6.650 47.089,6.644 47.112,6.644 Z M 44.099,7.102 C 44.099,7.107 44.099,7.107 44.099,7.107 44.099,11.480 44.099,11.480 44.099,11.480 49.358,11.480 49.358,11.480 49.358,11.480 49.358,7.102 49.358,7.102 49.358,7.102 Z M 44.326,7.329 C 44.486,7.329 44.486,7.329 44.486,7.329 44.486,11.254 44.486,11.254 44.486,11.254 44.326,11.254 44.326,11.254 44.326,11.254 Z M 45.148,7.329 C 45.261,7.329 45.261,7.329 45.261,7.329 45.261,9.398 45.261,9.398 45.261,9.398 45.148,9.398 45.148,9.398 45.148,9.398 Z M 45.924,7.329 C 46.037,7.329 46.037,7.329 46.037,7.329 46.037,8.832 46.037,8.832 46.037,8.832 45.924,8.832 45.924,8.832 45.924,8.832 Z M 46.700,7.329 C 46.813,7.329 46.813,7.329 46.813,7.329 46.813,9.398 46.813,9.398 46.813,9.398 46.700,9.398 46.700,9.398 46.700,9.398 Z M 47.476,7.329 C 47.589,7.329 47.589,7.329 47.589,7.329 47.589,8.832 47.589,8.832 47.589,8.832 47.476,8.832 47.476,8.832 47.476,8.832 Z M 48.252,7.329 C 48.365,7.329 48.365,7.329 48.365,7.329 48.365,9.398 48.365,9.398 48.365,9.398 48.252,9.398 48.252,9.398 48.252,9.398 Z M 49.028,7.329 C 49.132,7.329 49.132,7.329 49.132,7.329 49.132,11.254 49.132,11.254 49.132,11.254 49.028,11.254 49.028,11.254 49.028,11.254 Z M 49.839,7.372 C 52.598,7.372 52.598,7.372 52.598,7.372 57.784,7.372 62.971,7.372 68.157,7.372 68.157,8.420 68.157,8.420 68.157,8.420 64.951,8.420 64.951,8.420 64.951,8.420 64.969,8.412 64.990,8.411 65.009,8.407 65.575,8.310 66.140,8.213 66.705,8.115 66.732,8.109 66.759,8.092 66.766,8.065 66.773,8.035 66.768,8.004 66.770,7.974 66.769,7.919 66.769,7.863 66.771,7.807 66.770,7.783 66.755,7.760 66.732,7.751 66.702,7.738 66.668,7.743 66.636,7.741 66.130,7.741 65.624,7.742 65.118,7.741 65.025,7.736 64.939,7.693 64.846,7.682 64.733,7.668 64.615,7.708 64.534,7.788 64.470,7.849 64.429,7.933 64.419,8.021 64.409,8.110 64.430,8.202 64.480,8.276 64.521,8.340 64.582,8.391 64.653,8.420 49.839,8.420 49.839,8.420 49.839,8.420 Z M 44.633,7.431 C 45.000,7.431 45.000,7.431 45.000,7.431 45.000,9.398 45.000,9.398 45.000,9.398 44.633,9.398 44.633,9.398 44.633,9.398 Z M 45.409,7.431 C 45.776,7.431 45.776,7.431 45.776,7.431 45.776,9.398 45.776,9.398 45.776,9.398 45.409,9.398 45.409,9.398 45.409,9.398 Z M 46.185,7.431 C 46.552,7.431 46.552,7.431 46.552,7.431 46.552,9.398 46.552,9.398 46.552,9.398 46.185,9.398 46.185,9.398 46.185,9.398 Z M 46.961,7.431 C 47.328,7.431 47.328,7.431 47.328,7.431 47.328,9.398 47.328,9.398 47.328,9.398 46.961,9.398 46.961,9.398 46.961,9.398 Z M 47.737,7.431 C 48.104,7.431 48.104,7.431 48.104,7.431 48.104,9.398 48.104,9.398 48.104,9.398 47.737,9.398 47.737,9.398 47.737,9.398 Z M 48.513,7.431 C 48.880,7.431 48.880,7.431 48.880,7.431 48.880,9.398 48.880,9.398 48.880,9.398 48.513,9.398 48.513,9.398 48.513,9.398 Z M 65.028,7.877 C 65.031,7.878 65.033,7.878 65.036,7.879 65.076,7.887 65.117,7.889 65.158,7.888 65.646,7.889 66.134,7.889 66.622,7.889 66.622,7.919 66.622,7.950 66.622,7.980 66.090,8.071 65.558,8.163 65.027,8.254 65.086,8.184 65.110,8.085 65.087,7.996 65.077,7.953 65.057,7.912 65.028,7.877 Z M 64.801,7.887 C 64.868,7.887 64.936,7.927 64.963,7.990 64.973,8.012 64.979,8.037 64.979,8.061 64.981,8.105 64.965,8.150 64.934,8.183 64.899,8.223 64.845,8.246 64.791,8.242 64.777,8.241 64.762,8.238 64.749,8.234 64.715,8.223 64.684,8.204 64.662,8.176 64.651,8.161 64.640,8.141 64.634,8.122 64.620,8.080 64.621,8.031 64.640,7.990 64.648,7.974 64.659,7.957 64.673,7.943 64.690,7.924 64.713,7.909 64.736,7.900 64.757,7.891 64.779,7.887 64.801,7.887 Z M 40.503,8.047 C 40.372,8.513 40.300,8.995 40.286,9.479 40.268,10.083 40.337,10.689 40.493,11.273 40.581,11.600 40.696,11.920 40.847,12.224 40.893,12.316 40.945,12.405 40.999,12.493 39.721,12.493 39.721,12.493 39.721,12.493 39.661,12.492 39.601,12.493 39.540,12.492 39.488,12.491 39.434,12.498 39.390,12.525 39.344,12.553 39.303,12.587 39.262,12.620 38.972,12.620 38.682,12.620 38.392,12.620 38.362,12.576 38.336,12.529 38.298,12.493 37.974,12.493 37.974,12.493 37.974,12.493 37.974,12.485 37.974,12.485 37.974,12.485 37.737,12.485 37.501,12.472 37.267,12.438 36.991,12.398 36.717,12.333 36.456,12.233 36.220,12.141 35.992,12.022 35.792,11.865 35.634,11.743 35.494,11.597 35.383,11.431 35.295,11.300 35.226,11.158 35.179,11.008 35.138,10.876 35.112,10.740 35.103,10.602 35.091,10.448 35.098,10.293 35.119,10.140 35.157,9.870 35.238,9.608 35.343,9.357 35.368,9.295 35.396,9.234 35.424,9.173 35.428,9.154 35.425,9.135 35.426,9.116 35.426,9.005 35.426,9.005 35.426,9.005 35.374,8.895 35.323,8.785 35.271,8.675 35.452,8.651 35.632,8.631 35.814,8.614 36.049,8.593 36.285,8.574 36.521,8.558 36.807,8.537 37.094,8.525 37.381,8.515 37.831,8.500 38.278,8.446 38.723,8.375 39.318,8.279 39.909,8.156 40.503,8.047 Z M 49.839,8.717 C 55.360,8.717 55.360,8.717 55.360,8.717 55.310,8.775 55.260,8.832 55.210,8.890 49.839,8.890 49.839,8.890 49.839,8.890 Z M 56.879,8.717 C 68.157,8.717 68.157,8.717 68.157,8.717 68.157,8.890 68.157,8.890 68.157,8.890 57.029,8.890 57.029,8.890 57.029,8.890 56.979,8.832 56.929,8.775 56.879,8.717 Z M 34.984,8.724 C 35.034,8.832 35.085,8.939 35.135,9.047 35.147,9.067 35.146,9.091 35.143,9.113 35.025,9.373 34.928,9.643 34.872,9.922 34.811,10.218 34.796,10.525 34.847,10.823 34.880,11.021 34.943,11.215 35.036,11.394 35.154,11.624 35.319,11.830 35.514,12.000 35.777,12.229 36.088,12.399 36.415,12.517 36.792,12.653 37.190,12.725 37.589,12.752 37.589,12.847 37.589,12.942 37.589,13.037 37.499,13.051 37.409,13.075 37.324,13.108 37.165,13.170 37.018,13.263 36.896,13.383 36.795,13.482 36.705,13.594 36.632,13.716 36.603,13.765 36.579,13.816 36.555,13.868 36.536,13.910 36.520,13.954 36.501,13.996 36.210,13.857 35.918,13.717 35.626,13.578 35.689,13.343 35.729,13.100 35.715,12.856 35.706,12.694 35.671,12.531 35.596,12.385 35.529,12.255 35.430,12.142 35.310,12.059 35.183,11.970 35.034,11.913 34.881,11.890 34.758,11.872 34.631,11.879 34.510,11.911 34.366,11.949 34.231,12.021 34.113,12.111 33.963,12.225 33.836,12.367 33.727,12.520 33.701,12.557 33.676,12.595 33.652,12.634 33.367,12.497 33.082,12.361 32.797,12.224 32.916,12.029 33.039,11.836 33.153,11.638 33.219,11.523 33.284,11.407 33.348,11.291 33.437,11.130 33.520,10.966 33.593,10.797 33.634,10.703 33.665,10.604 33.689,10.504 33.770,10.173 33.842,9.840 33.942,9.514 33.983,9.373 34.039,9.237 34.105,9.106 34.124,9.071 34.140,9.035 34.158,9.000 34.172,8.972 34.198,8.952 34.225,8.937 34.337,8.877 34.458,8.837 34.580,8.804 34.713,8.770 34.849,8.748 34.984,8.724 Z M 55.644,8.843 C 56.595,8.843 56.595,8.843 56.595,8.843 56.694,8.958 56.793,9.073 56.893,9.187 68.157,9.187 68.157,9.187 68.157,9.187 68.157,10.085 68.157,10.085 68.157,10.085 55.300,10.085 55.300,10.085 55.300,10.085 55.080,10.192 54.860,10.299 54.640,10.406 54.588,10.360 54.535,10.314 54.482,10.268 53.863,10.554 53.245,10.839 52.626,11.124 52.631,11.209 52.637,11.293 52.643,11.378 52.490,11.452 52.338,11.526 52.185,11.600 51.403,11.600 50.621,11.600 49.839,11.600 49.839,9.187 49.839,9.187 49.839,9.187 55.179,9.187 55.179,9.187 55.179,9.187 55.261,9.193 55.346,9.169 55.407,9.114 55.447,9.074 55.481,9.029 55.519,8.987 55.561,8.939 55.602,8.891 55.644,8.843 Z M 44.758,9.546 C 45.031,9.546 45.031,9.546 45.031,9.546 45.863,9.546 45.863,9.546 45.863,9.546 45.863,9.953 45.863,9.953 45.863,9.953 46.098,9.953 46.098,9.953 46.098,9.953 46.098,9.546 46.098,9.546 46.098,9.546 47.415,9.546 47.415,9.546 47.415,9.546 47.415,9.953 47.415,9.953 47.415,9.953 47.650,9.953 47.650,9.953 47.650,9.953 47.650,9.546 47.650,9.546 47.650,9.546 48.756,9.546 48.756,9.546 48.756,9.546 48.756,10.082 48.756,10.082 48.756,10.082 44.758,10.082 44.758,10.082 44.758,10.082 Z M 44.633,10.230 C 45.000,10.230 45.000,10.230 45.000,10.230 45.000,11.152 45.000,11.152 45.000,11.152 44.878,11.152 44.755,11.152 44.633,11.152 Z M 45.148,10.230 C 45.261,10.230 45.261,10.230 45.261,10.230 45.261,11.254 45.261,11.254 45.261,11.254 45.148,11.254 45.148,11.254 45.148,11.254 Z M 45.409,10.230 C 45.776,10.230 45.776,10.230 45.776,10.230 45.776,11.152 45.776,11.152 45.776,11.152 45.654,11.152 45.531,11.152 45.409,11.152 Z M 45.924,10.230 C 46.037,10.230 46.037,10.230 46.037,10.230 46.037,11.254 46.037,11.254 46.037,11.254 45.924,11.254 45.924,11.254 45.924,11.254 Z M 46.185,10.230 C 46.552,10.230 46.552,10.230 46.552,10.230 46.552,11.152 46.552,11.152 46.552,11.152 46.430,11.152 46.307,11.152 46.185,11.152 Z M 46.700,10.230 C 46.813,10.230 46.813,10.230 46.813,10.230 46.813,11.254 46.813,11.254 46.813,11.254 46.700,11.254 46.700,11.254 46.700,11.254 Z M 46.961,10.230 C 47.328,10.230 47.328,10.230 47.328,10.230 47.328,11.152 47.328,11.152 47.328,11.152 47.206,11.152 47.083,11.152 46.961,11.152 Z M 47.476,10.230 C 47.589,10.230 47.589,10.230 47.589,10.230 47.589,11.254 47.589,11.254 47.589,11.254 47.476,11.254 47.476,11.254 47.476,11.254 Z M 47.737,10.230 C 48.104,10.230 48.104,10.230 48.104,10.230 48.104,11.152 48.104,11.152 48.104,11.152 47.982,11.152 47.859,11.152 47.737,11.152 Z M 48.252,10.230 C 48.365,10.230 48.365,10.230 48.365,10.230 48.365,11.254 48.365,11.254 48.365,11.254 48.252,11.254 48.252,11.254 48.252,11.254 Z M 48.513,10.230 C 48.880,10.230 48.880,10.230 48.880,10.230 48.880,10.407 48.880,10.583 48.880,10.760 48.880,11.152 48.880,11.152 48.880,11.152 48.758,11.152 48.635,11.152 48.513,11.152 Z M 36.575,10.404 C 36.575,10.409 36.575,10.409 36.575,10.409 36.575,11.873 36.575,11.873 36.575,11.873 36.862,11.873 36.862,11.873 36.862,11.873 36.862,11.829 36.862,11.829 36.862,11.829 37.929,11.736 37.929,11.736 37.929,11.736 37.929,11.774 37.929,11.774 37.929,11.774 38.216,11.774 38.216,11.774 38.216,11.774 38.216,11.505 38.216,11.505 38.216,11.505 38.289,11.504 38.362,11.506 38.436,11.503 38.490,11.497 38.538,11.459 38.562,11.411 38.594,11.352 38.603,11.284 38.609,11.218 38.615,11.138 38.612,11.057 38.599,10.977 38.589,10.923 38.571,10.869 38.535,10.827 38.505,10.794 38.462,10.773 38.417,10.773 38.376,10.772 38.335,10.773 38.294,10.773 38.216,10.773 38.216,10.773 38.216,10.773 38.216,10.503 38.216,10.503 38.216,10.503 37.929,10.503 37.929,10.503 37.929,10.503 37.929,10.541 37.929,10.541 37.929,10.541 37.573,10.510 37.217,10.479 36.862,10.448 36.862,10.404 36.862,10.404 36.862,10.404 Z M 36.862,10.620 C 37.181,10.648 37.500,10.675 37.819,10.703 37.819,11.574 37.819,11.574 37.819,11.574 37.500,11.602 37.182,11.630 36.863,11.657 36.859,11.657 36.863,11.647 36.862,11.643 Z M 51.969,10.802 C 51.874,10.803 51.783,10.871 51.756,10.962 51.730,11.043 51.753,11.137 51.814,11.196 51.869,11.249 51.953,11.273 52.028,11.254 52.100,11.237 52.163,11.183 52.189,11.113 52.216,11.042 52.206,10.957 52.160,10.896 52.119,10.839 52.050,10.802 51.979,10.802 51.976,10.802 51.972,10.802 51.969,10.802 Z M 38.326,10.944 C 38.353,10.944 38.380,10.943 38.406,10.944 38.414,10.948 38.417,10.959 38.420,10.967 38.429,10.994 38.431,11.022 38.435,11.050 38.443,11.115 38.443,11.182 38.433,11.246 38.428,11.275 38.427,11.306 38.410,11.330 38.403,11.332 38.396,11.332 38.388,11.333 38.368,11.335 38.347,11.334 38.326,11.334 Z M 34.734,12.038 C 34.866,12.037 34.998,12.068 35.116,12.127 35.218,12.177 35.310,12.249 35.380,12.338 35.460,12.440 35.510,12.564 35.536,12.690 35.559,12.803 35.564,12.919 35.558,13.034 35.550,13.191 35.522,13.347 35.484,13.499 35.471,13.554 35.456,13.608 35.440,13.663 35.734,13.803 36.027,13.944 36.321,14.084 36.138,14.236 35.952,14.385 35.751,14.511 35.693,14.547 35.633,14.580 35.572,14.609 35.469,14.655 35.360,14.690 35.247,14.696 35.112,14.703 34.976,14.675 34.848,14.633 34.621,14.560 34.406,14.458 34.190,14.359 33.927,14.236 33.663,14.117 33.410,13.974 33.297,13.908 33.188,13.833 33.098,13.737 33.051,13.686 33.012,13.629 32.981,13.568 32.930,13.467 32.900,13.356 32.881,13.244 32.837,12.981 32.832,12.715 32.829,12.449 32.829,12.437 32.829,12.426 32.829,12.414 33.088,12.538 33.348,12.662 33.608,12.786 33.640,12.803 33.673,12.821 33.710,12.820 33.727,12.818 33.734,12.801 33.741,12.789 33.844,12.617 33.963,12.453 34.112,12.317 34.222,12.217 34.348,12.131 34.490,12.082 34.568,12.055 34.651,12.039 34.734,12.038 Z M 32.670,12.479 C 32.673,12.476 32.671,12.489 32.672,12.493 32.672,12.495 32.672,12.497 32.672,12.499 32.675,12.736 32.682,12.973 32.716,13.208 32.737,13.352 32.771,13.496 32.835,13.627 32.889,13.737 32.965,13.836 33.056,13.916 33.173,14.020 33.309,14.100 33.446,14.174 33.622,14.269 33.804,14.352 33.985,14.437 34.171,14.524 34.358,14.612 34.548,14.691 34.681,14.745 34.817,14.795 34.958,14.826 35.084,14.854 35.216,14.864 35.344,14.844 35.480,14.822 35.609,14.771 35.729,14.706 35.877,14.626 36.014,14.527 36.147,14.425 36.197,14.387 36.246,14.349 36.294,14.310 35.963,15.021 35.668,15.749 35.426,16.496 35.328,16.801 35.239,17.109 35.158,17.420 35.055,17.820 34.967,18.224 34.894,18.630 34.843,18.910 34.801,19.191 34.765,19.472 34.640,20.436 34.592,21.408 34.580,22.380 34.575,22.737 34.576,23.094 34.578,23.452 34.578,23.622 34.579,23.791 34.589,23.961 34.592,23.999 34.598,24.038 34.588,24.076 34.587,24.082 34.579,24.076 34.575,24.077 34.458,24.058 34.346,24.017 34.234,23.981 33.912,23.874 33.590,23.763 33.260,23.681 33.105,23.643 32.949,23.611 32.791,23.588 32.550,23.552 32.304,23.539 32.062,23.567 31.940,23.581 31.819,23.601 31.699,23.624 31.315,23.698 30.939,23.807 30.557,23.891 30.406,23.925 30.255,23.956 30.101,23.974 30.096,23.974 30.090,23.973 30.084,23.973 29.947,23.957 29.809,23.944 29.673,23.926 29.633,23.920 29.594,23.907 29.554,23.898 29.530,23.869 29.516,23.831 29.512,23.793 29.510,23.761 29.512,23.728 29.511,23.696 29.516,22.958 29.557,22.221 29.633,21.488 29.695,20.891 29.781,20.297 29.888,19.706 29.920,19.543 29.949,19.379 29.985,19.217 30.209,18.214 30.495,17.225 30.842,16.258 31.089,15.568 31.366,14.890 31.680,14.229 31.810,13.955 31.946,13.684 32.089,13.417 32.129,13.341 32.173,13.269 32.215,13.194 32.360,12.952 32.511,12.713 32.670,12.479 Z M 38.503,12.877 C 39.004,12.877 39.004,12.877 39.004,12.877 38.907,12.996 38.821,13.123 38.756,13.262 38.657,13.475 38.599,13.705 38.575,13.938 38.569,13.839 38.565,13.740 38.562,13.641 38.552,13.405 38.554,13.167 38.520,12.932 38.518,12.913 38.508,12.896 38.503,12.877 Z M 39.549,12.877 C 40.109,12.877 40.109,12.877 40.109,12.877 40.010,13.186 39.939,13.506 39.925,13.830 39.913,14.094 39.943,14.361 40.033,14.610 40.113,14.830 40.241,15.032 40.405,15.199 40.506,15.304 40.619,15.396 40.741,15.476 40.777,15.494 40.819,15.489 40.855,15.474 40.909,15.452 40.950,15.405 40.976,15.354 41.003,15.302 41.024,15.243 41.018,15.183 41.015,15.149 41.002,15.117 40.984,15.089 40.961,15.050 40.934,15.013 40.909,14.974 40.825,14.849 40.741,14.723 40.676,14.587 40.608,14.449 40.558,14.302 40.536,14.149 40.514,13.994 40.521,13.834 40.557,13.681 40.593,13.529 40.654,13.382 40.732,13.246 40.805,13.115 40.893,12.993 40.989,12.877 41.306,12.877 41.306,12.877 41.306,12.877 41.364,12.922 41.423,12.967 41.492,12.990 41.528,13.000 41.566,12.994 41.602,12.996 42.749,12.996 42.749,12.996 42.749,12.996 42.896,13.094 43.052,13.178 43.204,13.269 43.376,13.372 43.546,13.479 43.699,13.609 43.801,13.697 43.896,13.795 43.962,13.912 44.000,13.979 44.028,14.052 44.038,14.127 44.045,14.170 44.042,14.214 44.041,14.258 44.035,14.389 44.014,14.520 43.967,14.644 43.920,14.769 43.844,14.882 43.748,14.976 43.624,15.097 43.473,15.187 43.317,15.261 43.148,15.341 42.972,15.404 42.794,15.459 42.705,15.487 42.615,15.506 42.525,15.526 42.309,15.571 42.090,15.604 41.871,15.627 41.709,15.644 41.547,15.657 41.385,15.653 41.241,15.651 41.097,15.640 40.953,15.624 40.686,15.593 40.422,15.540 40.163,15.470 40.031,15.434 39.902,15.389 39.778,15.330 39.614,15.251 39.459,15.150 39.328,15.022 39.180,14.878 39.063,14.700 39.000,14.502 38.964,14.388 38.946,14.270 38.948,14.151 38.950,13.956 38.979,13.761 39.042,13.576 39.112,13.374 39.222,13.185 39.370,13.030 39.425,12.974 39.484,12.922 39.549,12.877 Z M 43.483,12.996 C 44.486,12.996 44.486,12.996 44.486,12.996 44.488,13.016 44.488,13.036 44.493,13.056 44.521,13.173 44.545,13.292 44.561,13.411 44.581,13.550 44.589,13.690 44.588,13.830 44.588,13.986 44.574,14.142 44.544,14.295 44.536,14.341 44.522,14.386 44.502,14.429 44.460,14.519 44.411,14.605 44.357,14.688 44.380,14.612 44.397,14.533 44.407,14.454 44.425,14.320 44.435,14.182 44.413,14.047 44.384,13.868 44.299,13.700 44.185,13.560 44.070,13.415 43.928,13.295 43.780,13.186 43.685,13.117 43.583,13.057 43.483,12.996 Z M 32.622,18.014 C 32.442,18.017 32.265,18.097 32.143,18.230 32.036,18.346 31.971,18.501 31.965,18.660 31.960,18.767 31.981,18.876 32.026,18.973 32.030,18.994 32.060,19.003 32.075,18.989 32.455,18.769 32.834,18.550 33.214,18.331 33.126,18.192 32.987,18.085 32.829,18.040 32.762,18.021 32.692,18.012 32.622,18.014 Z M 32.638,18.171 C 32.746,18.170 32.855,18.206 32.943,18.269 32.952,18.275 32.962,18.283 32.970,18.290 32.690,18.452 32.409,18.614 32.129,18.776 32.107,18.652 32.133,18.520 32.201,18.413 32.260,18.319 32.348,18.245 32.452,18.206 32.511,18.183 32.574,18.171 32.638,18.171 Z M 33.225,18.381 C 33.208,18.384 33.193,18.396 33.178,18.404 33.078,18.461 32.978,18.519 32.878,18.577 32.607,18.733 32.336,18.890 32.065,19.046 32.150,19.180 32.281,19.285 32.433,19.332 32.605,19.387 32.798,19.371 32.957,19.285 33.099,19.210 33.212,19.083 33.269,18.934 33.320,18.803 33.328,18.657 33.294,18.522 33.283,18.477 33.267,18.433 33.246,18.392 33.241,18.385 33.233,18.381 33.225,18.381 Z M 33.150,18.602 C 33.150,18.603 33.150,18.603 33.150,18.603 33.167,18.705 33.154,18.811 33.110,18.906 33.065,19.006 32.986,19.090 32.890,19.142 32.820,19.181 32.741,19.204 32.662,19.207 32.580,19.210 32.498,19.193 32.424,19.160 32.383,19.141 32.343,19.117 32.308,19.088 32.589,18.926 32.869,18.764 33.150,18.602 Z M 32.324,23.708 C 32.642,23.709 32.956,23.766 33.263,23.844 33.400,23.879 33.535,23.919 33.669,23.961 33.683,24.097 33.693,24.234 33.697,24.370 33.187,24.315 32.677,24.258 32.167,24.202 32.172,24.038 32.182,23.875 32.203,23.713 32.243,23.710 32.283,23.709 32.324,23.708 Z M 32.068,23.724 C 32.067,23.734 32.066,23.744 32.065,23.754 32.046,23.897 32.035,24.042 32.027,24.187 31.565,24.136 31.102,24.085 30.639,24.034 30.772,24.003 30.905,23.971 31.038,23.938 31.317,23.868 31.597,23.798 31.881,23.750 31.943,23.740 32.006,23.731 32.068,23.724 Z M 33.808,24.005 C 33.827,24.012 33.846,24.018 33.864,24.024 34.038,24.081 34.210,24.143 34.385,24.195 34.455,24.215 34.525,24.234 34.597,24.237 34.611,24.238 34.625,24.237 34.639,24.234 34.639,24.284 34.639,24.334 34.639,24.384 34.638,24.392 34.640,24.401 34.638,24.408 34.612,24.420 34.583,24.425 34.554,24.431 34.462,24.447 34.368,24.445 34.276,24.434 34.130,24.418 33.984,24.402 33.838,24.386 33.832,24.259 33.823,24.132 33.808,24.005 Z M 31.495,24.668 C 31.505,24.689 31.518,24.708 31.532,24.726 31.548,24.747 31.567,24.765 31.581,24.787 31.592,24.802 31.600,24.821 31.604,24.840 31.614,24.887 31.601,24.940 31.568,24.976 31.536,25.012 31.487,25.030 31.441,25.026 31.406,25.024 31.370,25.008 31.344,24.982 31.320,24.958 31.304,24.925 31.300,24.893 31.295,24.851 31.308,24.805 31.337,24.772 31.382,24.730 31.438,24.701 31.491,24.670 31.492,24.669 31.493,24.668 31.495,24.668 Z " />
</svg>