<?xml version="1.0" encoding="UTF-8" standalone="no"?>
<!DOCTYPE svg PUBLIC "-//W3C//DTD SVG 20010904//EN" "http://www.w3.org/TR/2001/REC-SVG-20010904/DTD/svg10.dtd"[]>
<svg version="1.1" id="Frosty Editor v1.0.6.3" xmlns="http://www.w3.org/2000/svg" d1p1:xlink="http://www.w3.org/1999/xlink" viewBox="0 0 384 96" xmlns:d1p1="xmlns">
  <path stroke="none" fill="none" d="M 100.140,27.580 C 99.990,27.580 99.840,27.580 99.690,27.580 99.690,26.877 99.690,26.173 99.690,25.470 98.730,25.470 97.770,25.470 96.810,25.470 96.810,30.467 96.810,35.463 96.810,40.460 97.770,40.460 98.730,40.460 99.690,40.460 99.690,39.757 99.690,39.053 99.690,38.350 99.840,38.350 99.990,38.350 100.140,38.350 100.140,34.760 100.140,31.170 100.140,27.580 100.140,27.580 100.140,27.580 100.140,27.580 Z " />
  <path stroke="none" fill="none" d="M 103.380,29.120 C 103.727,29.120 104.073,29.120 104.420,29.120 104.420,31.727 104.420,34.333 104.420,36.940 104.073,36.940 103.727,36.940 103.380,36.940 103.380,34.333 103.380,31.727 103.380,29.120 Z " />
  <path stroke="none" fill="none" d="M 95.320,26.000 C 94.963,26.296 94.758,26.736 94.760,27.200 94.760,31.047 94.760,34.893 94.760,38.740 94.772,39.181 94.976,39.594 95.320,39.870 95.320,35.247 95.320,30.623 95.320,26.000 Z " />
  <path stroke="none" fill="none" d="M 173.120,48.660 C 173.640,48.660 174.160,48.660 174.680,48.660 174.680,48.433 174.680,48.207 174.680,47.980 174.307,47.980 173.933,47.980 173.560,47.980 173.413,48.207 173.267,48.433 173.120,48.660 173.120,48.660 173.120,48.660 173.120,48.660 Z " />
  <path stroke="none" fill="none" d="M 138.540,5.380 C 138.393,5.380 138.247,5.380 138.100,5.380 138.100,5.707 138.100,6.033 138.100,6.360 137.950,6.360 137.800,6.360 137.650,6.360 137.650,9.503 137.650,12.647 137.650,15.790 137.800,15.790 137.950,15.790 138.100,15.790 138.100,16.177 138.100,16.563 138.100,16.950 138.247,16.950 138.393,16.950 138.540,16.950 138.540,13.093 138.540,9.237 138.540,5.380 138.540,5.380 138.540,5.380 138.540,5.380 Z " />
  <path stroke="none" fill="none" d="M 131.120,6.360 C 132.797,6.360 134.473,6.360 136.150,6.360 136.150,9.503 136.150,12.647 136.150,15.790 134.473,15.790 132.797,15.790 131.120,15.790 131.120,12.647 131.120,9.503 131.120,6.360 Z " />
  <path stroke="none" fill="none" d="M 126.000,31.150 C 125.943,31.145 125.888,31.167 125.850,31.210 125.850,31.507 125.850,31.803 125.850,32.100 125.892,32.136 125.945,32.154 126.000,32.150 133.243,32.150 140.487,32.150 147.730,32.150 147.663,31.820 147.663,31.480 147.730,31.150 140.487,31.150 133.243,31.150 126.000,31.150 Z " />
  <path stroke="none" fill="none" d="M 196.910,45.100 C 197.440,44.233 197.970,43.367 198.500,42.500 198.500,41.767 198.500,41.033 198.500,40.300 185.030,40.300 171.560,40.300 158.090,40.300 158.090,43.583 158.090,46.867 158.090,50.150 162.073,50.173 166.057,50.197 170.040,50.220 170.403,49.700 170.767,49.180 171.130,48.660 171.197,48.660 171.263,48.660 171.330,48.660 171.800,47.933 172.270,47.207 172.740,46.480 176.553,46.480 180.367,46.480 184.180,46.480 184.567,47.207 184.953,47.933 185.340,48.660 185.480,48.660 185.620,48.660 185.760,48.660 186.050,49.197 186.340,49.733 186.630,50.270 189.000,50.270 191.370,50.270 193.740,50.270 194.067,49.733 194.393,49.197 194.720,48.660 194.983,48.660 195.247,48.660 195.510,48.660 196.197,47.473 196.883,46.287 197.570,45.100 197.350,45.100 197.130,45.100 196.910,45.100 196.910,45.100 196.910,45.100 196.910,45.100 Z " />
  <path stroke="none" fill="none" d="M 152.090,31.610 C 152.090,32.416 151.436,33.070 150.630,33.070 149.824,33.070 149.170,32.416 149.170,31.610 149.170,30.804 149.824,30.150 150.630,30.150 151.436,30.150 152.090,30.804 152.090,31.610 152.090,31.610 152.090,31.610 152.090,31.610 Z " />
  <path stroke="none" fill="none" d="M 176.170,47.980 C 176.787,47.980 177.403,47.980 178.020,47.980 178.020,48.207 178.020,48.433 178.020,48.660 177.403,48.660 176.787,48.660 176.170,48.660 176.170,48.433 176.170,48.207 176.170,47.980 Z " />
  <path stroke="none" fill="none" d="M 111.170,35.210 C 110.680,34.360 110.190,33.510 109.700,32.660 110.363,30.973 111.027,29.287 111.690,27.600 109.917,27.610 108.143,27.620 106.370,27.630 106.370,28.130 106.370,28.630 106.370,29.130 106.220,29.130 106.070,29.130 105.920,29.130 105.920,31.733 105.920,34.337 105.920,36.940 106.070,36.940 106.220,36.940 106.370,36.940 106.370,37.410 106.370,37.880 106.370,38.350 107.723,38.350 109.077,38.350 110.430,38.350 110.677,37.303 110.923,36.257 111.170,35.210 111.170,35.210 111.170,35.210 111.170,35.210 Z " />
  <path stroke="none" fill="none" d="M 140.040,16.950 C 140.190,16.950 140.340,16.950 140.490,16.950 140.490,17.240 140.490,17.530 140.490,17.820 140.517,17.820 140.543,17.820 140.570,17.820 140.570,17.530 140.570,17.240 140.570,16.950 140.713,16.950 140.857,16.950 141.000,16.950 141.000,13.093 141.000,9.237 141.000,5.380 140.857,5.380 140.713,5.380 140.570,5.380 140.570,5.090 140.570,4.800 140.570,4.510 140.543,4.510 140.517,4.510 140.490,4.510 140.490,4.800 140.490,5.090 140.490,5.380 140.340,5.380 140.190,5.380 140.040,5.380 140.040,9.237 140.040,13.093 140.040,16.950 140.040,16.950 140.040,16.950 140.040,16.950 Z " />
  <path stroke="none" fill="none" d="M 122.300,38.800 C 148.360,38.800 174.420,38.800 200.480,38.800 200.480,39.200 200.480,39.600 200.480,40.000 202.410,40.000 204.340,40.000 206.270,40.000 206.270,39.550 206.270,39.100 206.270,38.650 206.423,38.650 206.577,38.650 206.730,38.650 206.730,34.860 206.730,31.070 206.730,27.280 206.577,27.280 206.423,27.280 206.270,27.280 206.270,27.073 206.270,26.867 206.270,26.660 205.347,26.660 204.423,26.660 203.500,26.660 204.566,27.063 205.192,28.171 204.987,29.292 204.782,30.413 203.805,31.227 202.665,31.227 201.525,31.227 200.548,30.413 200.344,29.292 200.139,28.171 200.764,27.063 201.830,26.660 200.097,26.660 198.363,26.660 196.630,26.660 196.630,26.440 196.630,26.220 196.630,26.000 190.547,26.000 184.463,26.000 178.380,26.000 178.380,26.387 178.380,26.773 178.380,27.160 164.743,27.160 151.107,27.160 137.470,27.160 137.470,26.773 137.470,26.387 137.470,26.000 132.180,26.000 126.890,26.000 121.600,26.000 121.200,27.000 120.750,28.060 120.390,28.890 120.164,29.361 120.164,29.909 120.390,30.380 120.605,30.658 120.951,30.802 121.300,30.760 122.340,30.760 123.380,30.760 124.420,30.760 124.650,30.086 125.288,29.638 126.000,29.650 133.477,29.650 140.953,29.650 148.430,29.650 149.241,28.707 150.549,28.361 151.720,28.782 152.890,29.203 153.680,30.302 153.705,31.545 153.730,32.789 152.985,33.919 151.832,34.386 150.679,34.853 149.358,34.560 148.510,33.650 141.007,33.650 133.503,33.650 126.000,33.650 125.118,33.673 124.383,32.981 124.350,32.100 124.350,32.067 124.350,32.033 124.350,32.000 123.350,32.000 122.350,32.000 121.350,32.000 120.577,32.037 119.843,31.655 119.430,31.000 118.971,30.192 118.931,29.213 119.320,28.370 119.620,27.680 119.980,26.800 120.320,25.960 118.370,25.960 116.420,25.960 114.470,25.960 114.247,26.497 114.023,27.033 113.800,27.570 113.643,27.570 113.487,27.570 113.330,27.570 112.680,29.220 112.030,30.870 111.380,32.520 111.843,33.347 112.307,34.173 112.770,35.000 112.513,36.117 112.257,37.233 112.000,38.350 112.160,38.350 112.320,38.350 112.480,38.350 112.347,38.887 112.213,39.423 112.080,39.960 115.487,39.960 118.893,39.960 122.300,39.960 122.300,39.573 122.300,39.187 122.300,38.800 Z " />
  <path stroke="none" fill="none" d="M 101.640,29.120 C 101.717,29.120 101.793,29.120 101.870,29.120 101.870,31.727 101.870,34.333 101.870,36.940 101.793,36.940 101.717,36.940 101.640,36.940 101.640,34.333 101.640,31.727 101.640,29.120 Z " />
  <path stroke="none" fill="none" d="M 203.530,28.860 C 203.530,29.335 203.145,29.720 202.670,29.720 202.195,29.720 201.810,29.335 201.810,28.860 201.810,28.385 202.195,28.000 202.670,28.000 203.145,28.000 203.530,28.385 203.530,28.860 203.530,28.860 203.530,28.860 203.530,28.860 Z " />
  <path stroke="none" fill="none" d="M 141.180,23.390 C 141.030,23.197 140.880,23.003 140.730,22.810 140.583,23.003 140.437,23.197 140.290,23.390 140.290,23.637 140.290,23.883 140.290,24.130 140.587,24.130 140.883,24.130 141.180,24.130 141.180,23.883 141.180,23.637 141.180,23.390 141.180,23.390 141.180,23.390 141.180,23.390 Z " />
  <path stroke="none" fill="none" d="M 175.140,9.600 C 175.220,9.600 175.300,9.600 175.380,9.600 175.380,10.643 175.380,11.687 175.380,12.730 175.300,12.730 175.220,12.730 175.140,12.730 175.140,11.687 175.140,10.643 175.140,9.600 Z " />
  <path stroke="none" fill="none" d="M 145.250,4.800 C 145.184,4.749 145.103,4.725 145.020,4.730 144.937,4.725 144.856,4.749 144.790,4.800 144.640,4.973 144.490,5.147 144.340,5.320 144.270,5.320 144.200,5.320 144.130,5.320 144.290,5.668 144.647,5.883 145.030,5.860 145.396,5.869 145.737,5.677 145.920,5.360 145.843,5.360 145.767,5.360 145.690,5.360 145.543,5.173 145.397,4.987 145.250,4.800 Z " />
  <path stroke="none" fill="none" d="M 204.410,25.170 C 204.343,24.947 204.277,24.723 204.210,24.500 202.397,24.500 200.583,24.500 198.770,24.500 198.707,24.723 198.643,24.947 198.580,25.170 200.523,25.170 202.467,25.170 204.410,25.170 204.410,25.170 204.410,25.170 204.410,25.170 Z " />
  <path stroke="none" fill="none" d="M 223.750,27.790 C 223.750,27.187 223.750,26.583 223.750,25.980 220.063,25.980 216.377,25.980 212.690,25.980 212.690,26.413 212.690,26.847 212.690,27.280 212.543,27.280 212.397,27.280 212.250,27.280 212.250,31.070 212.250,34.860 212.250,38.650 212.397,38.650 212.543,38.650 212.690,38.650 212.690,39.083 212.690,39.517 212.690,39.950 216.377,39.950 220.063,39.950 223.750,39.950 223.750,39.350 223.750,38.750 223.750,38.150 223.897,38.150 224.043,38.150 224.190,38.150 224.190,34.697 224.190,31.243 224.190,27.790 224.043,27.790 223.897,27.790 223.750,27.790 223.750,27.790 223.750,27.790 223.750,27.790 Z " />
  <path stroke="none" fill="none" d="M 143.570,20.820 C 143.393,20.820 143.217,20.820 143.040,20.820 143.040,20.840 143.040,20.860 143.040,20.880 143.257,21.167 143.473,21.453 143.690,21.740 153.240,21.740 162.790,21.740 172.340,21.740 172.557,21.453 172.773,21.167 172.990,20.880 172.990,19.587 172.990,18.293 172.990,17.000 172.857,17.000 172.723,17.000 172.590,17.000 172.590,16.577 172.590,16.153 172.590,15.730 171.423,15.730 170.257,15.730 169.090,15.730 169.090,16.290 169.090,16.850 169.090,17.410 167.230,17.410 165.370,17.410 163.510,17.410 163.510,16.987 163.510,16.563 163.510,16.140 160.180,16.987 156.850,17.833 153.520,18.680 153.520,19.103 153.520,19.527 153.520,19.950 150.203,19.950 146.887,19.950 143.570,19.950 143.570,20.240 143.570,20.530 143.570,20.820 143.570,20.820 143.570,20.820 143.570,20.820 Z " />
  <path stroke="none" fill="none" d="M 152.470,15.850 C 156.500,14.827 160.530,13.803 164.560,12.780 164.560,11.707 164.560,10.633 164.560,9.560 160.530,8.537 156.500,7.513 152.470,6.490 152.470,9.610 152.470,12.730 152.470,15.850 152.470,15.850 152.470,15.850 152.470,15.850 Z " />
  <path stroke="none" fill="none" d="M 147.480,5.380 C 147.480,5.713 147.480,6.047 147.480,6.380 147.365,7.648 146.303,8.618 145.030,8.618 143.757,8.618 142.695,7.648 142.580,6.380 142.580,6.047 142.580,5.713 142.580,5.380 142.553,5.380 142.527,5.380 142.500,5.380 142.500,9.237 142.500,13.093 142.500,16.950 145.167,16.950 147.833,16.950 150.500,16.950 150.500,16.750 150.500,16.550 150.500,16.350 150.653,16.310 150.807,16.270 150.960,16.230 150.960,12.853 150.960,9.477 150.960,6.100 150.813,6.067 150.667,6.033 150.520,6.000 150.520,5.800 150.520,5.600 150.520,5.400 149.507,5.393 148.493,5.387 147.480,5.380 Z " />
  <path stroke="none" fill="none" d="M 175.290,22.810 C 175.143,23.003 174.997,23.197 174.850,23.390 174.850,23.637 174.850,23.883 174.850,24.130 175.143,24.130 175.437,24.130 175.730,24.130 175.730,23.883 175.730,23.637 175.730,23.390 175.583,23.197 175.437,23.003 175.290,22.810 175.290,22.810 175.290,22.810 175.290,22.810 Z " />
  <path stroke="none" fill="none" d="M 166.060,12.390 C 166.210,12.353 166.360,12.317 166.510,12.280 166.510,12.430 166.510,12.580 166.510,12.730 166.520,12.730 166.530,12.730 166.540,12.730 166.540,11.687 166.540,10.643 166.540,9.600 166.530,9.600 166.520,9.600 166.510,9.600 166.510,9.750 166.510,9.900 166.510,10.050 166.360,10.013 166.210,9.977 166.060,9.940 166.060,10.757 166.060,11.573 166.060,12.390 166.060,12.390 166.060,12.390 166.060,12.390 Z " />
  <path stroke="none" fill="none" d="M 210.160,27.280 C 210.357,27.280 210.553,27.280 210.750,27.280 210.750,31.070 210.750,34.860 210.750,38.650 210.553,38.650 210.357,38.650 210.160,38.650 210.160,34.860 210.160,31.070 210.160,27.280 Z " />
  <path stroke="none" fill="none" d="M 176.880,9.600 C 177.057,9.600 177.233,9.600 177.410,9.600 177.410,10.643 177.410,11.687 177.410,12.730 177.233,12.730 177.057,12.730 176.880,12.730 176.880,11.687 176.880,10.643 176.880,9.600 Z " />
  <path stroke="none" fill="none" d="M 168.040,9.600 C 169.907,9.600 171.773,9.600 173.640,9.600 173.640,10.643 173.640,11.687 173.640,12.730 171.773,12.730 169.907,12.730 168.040,12.730 168.040,11.687 168.040,10.643 168.040,9.600 Z " />
  <path stroke="none" fill="none" d="M 243.190,32.940 C 243.190,34.011 242.321,34.880 241.250,34.880 240.179,34.880 239.310,34.011 239.310,32.940 239.310,31.869 240.179,31.000 241.250,31.000 242.321,31.000 243.190,31.869 243.190,32.940 243.190,32.940 243.190,32.940 243.190,32.940 Z " />
  <path stroke="none" fill="none" d="M 286.240,24.790 C 286.310,24.790 286.380,24.790 286.450,24.790 286.580,24.847 286.710,24.903 286.840,24.960 286.840,24.580 286.840,24.200 286.840,23.820 286.640,24.143 286.440,24.467 286.240,24.790 286.240,24.790 286.240,24.790 286.240,24.790 Z " />
  <path stroke="none" fill="none" d="M 254.440,32.940 C 254.440,34.011 253.571,34.880 252.500,34.880 251.429,34.880 250.560,34.011 250.560,32.940 250.560,31.869 251.429,31.000 252.500,31.000 253.571,31.000 254.440,31.869 254.440,32.940 254.440,32.940 254.440,32.940 254.440,32.940 Z " />
  <path stroke="none" fill="none" d="M 209.280,42.100 C 209.277,41.950 209.273,41.800 209.270,41.650 209.270,41.800 209.270,41.950 209.270,42.100 209.273,42.100 209.277,42.100 209.280,42.100 209.280,42.100 209.280,42.100 209.280,42.100 Z " />
  <path stroke="none" fill="none" d="M 212.280,45.100 C 212.133,45.100 211.987,45.100 211.840,45.100 211.840,46.287 211.840,47.473 211.840,48.660 211.987,48.660 212.133,48.660 212.280,48.660 212.280,48.707 212.280,48.753 212.280,48.800 213.760,48.560 215.240,48.320 216.720,48.080 216.720,47.280 216.720,46.480 216.720,45.680 215.240,45.440 213.760,45.200 212.280,44.960 212.280,45.007 212.280,45.053 212.280,45.100 212.280,45.100 212.280,45.100 212.280,45.100 Z " />
  <path stroke="none" fill="none" d="M 231.940,32.940 C 231.940,34.011 231.071,34.880 230.000,34.880 228.929,34.880 228.060,34.011 228.060,32.940 228.060,31.869 228.929,31.000 230.000,31.000 231.071,31.000 231.940,31.869 231.940,32.940 231.940,32.940 231.940,32.940 231.940,32.940 Z " />
  <path stroke="none" fill="none" d="M 286.630,37.770 C 287.503,37.370 288.377,36.970 289.250,36.570 289.250,34.167 289.250,31.763 289.250,29.360 288.377,28.960 287.503,28.560 286.630,28.160 286.630,31.363 286.630,34.567 286.630,37.770 286.630,37.770 286.630,37.770 286.630,37.770 Z " />
  <path stroke="none" fill="none" d="M 276.940,32.940 C 276.940,34.011 276.071,34.880 275.000,34.880 273.929,34.880 273.060,34.011 273.060,32.940 273.060,31.869 273.929,31.000 275.000,31.000 276.071,31.000 276.940,31.869 276.940,32.940 276.940,32.940 276.940,32.940 276.940,32.940 Z " />
  <path stroke="none" fill="none" d="M 265.690,32.940 C 265.690,34.011 264.821,34.880 263.750,34.880 262.679,34.880 261.810,34.011 261.810,32.940 261.810,31.869 262.679,31.000 263.750,31.000 264.821,31.000 265.690,31.869 265.690,32.940 265.690,32.940 265.690,32.940 265.690,32.940 Z " />
  <path stroke="none" fill="none" d="M 275.000,36.380 C 273.609,36.380 272.354,35.542 271.822,34.256 271.289,32.971 271.584,31.491 272.568,30.508 273.551,29.524 275.031,29.229 276.316,29.762 277.602,30.294 278.440,31.549 278.440,32.940 278.440,33.852 278.078,34.727 277.432,35.372 276.787,36.018 275.912,36.380 275.000,36.380 275.000,36.380 275.000,36.380 275.000,36.380 Z M 263.750,36.380 C 262.359,36.380 261.104,35.542 260.572,34.256 260.039,32.971 260.334,31.491 261.318,30.508 262.301,29.524 263.781,29.229 265.066,29.762 266.352,30.294 267.190,31.549 267.190,32.940 267.190,33.852 266.828,34.727 266.182,35.372 265.537,36.018 264.662,36.380 263.750,36.380 263.750,36.380 263.750,36.380 263.750,36.380 Z M 252.500,36.380 C 251.109,36.380 249.854,35.542 249.322,34.256 248.789,32.971 249.084,31.491 250.068,30.508 251.051,29.524 252.531,29.229 253.816,29.762 255.102,30.294 255.940,31.549 255.940,32.940 255.940,33.852 255.578,34.727 254.932,35.372 254.287,36.018 253.412,36.380 252.500,36.380 252.500,36.380 252.500,36.380 252.500,36.380 Z M 241.250,36.380 C 239.859,36.380 238.604,35.542 238.072,34.256 237.539,32.971 237.834,31.491 238.818,30.508 239.801,29.524 241.281,29.229 242.566,29.762 243.852,30.294 244.690,31.549 244.690,32.940 244.690,33.852 244.328,34.727 243.682,35.372 243.037,36.018 242.162,36.380 241.250,36.380 241.250,36.380 241.250,36.380 241.250,36.380 Z M 230.000,36.380 C 228.609,36.380 227.354,35.542 226.822,34.256 226.289,32.971 226.584,31.491 227.568,30.508 228.551,29.524 230.031,29.229 231.316,29.762 232.602,30.294 233.440,31.549 233.440,32.940 233.440,33.852 233.078,34.727 232.432,35.372 231.787,36.018 230.912,36.380 230.000,36.380 230.000,36.380 230.000,36.380 230.000,36.380 Z M 285.130,27.780 C 284.717,27.780 284.303,27.780 283.890,27.780 281.991,29.237 279.349,29.237 277.450,27.780 275.813,27.780 274.177,27.780 272.540,27.780 270.641,29.237 267.999,29.237 266.100,27.780 264.463,27.780 262.827,27.780 261.190,27.780 259.291,29.237 256.649,29.237 254.750,27.780 253.113,27.780 251.477,27.780 249.840,27.780 247.941,29.237 245.299,29.237 243.400,27.780 241.763,27.780 240.127,27.780 238.490,27.780 236.591,29.237 233.949,29.237 232.050,27.780 229.930,27.780 227.810,27.780 225.690,27.780 225.690,31.237 225.690,34.693 225.690,38.150 227.793,38.150 229.897,38.150 232.000,38.150 233.902,36.679 236.558,36.679 238.460,38.150 240.090,38.150 241.720,38.150 243.350,38.150 245.252,36.679 247.908,36.679 249.810,38.150 251.440,38.150 253.070,38.150 254.700,38.150 256.602,36.679 259.258,36.679 261.160,38.150 262.790,38.150 264.420,38.150 266.050,38.150 267.952,36.679 270.608,36.679 272.510,38.150 274.140,38.150 275.770,38.150 277.400,38.150 279.302,36.679 281.958,36.679 283.860,38.150 284.270,38.150 284.680,38.150 285.090,38.150 285.103,34.693 285.117,31.237 285.130,27.780 Z " />
  <path stroke="none" fill="none" d="M 150.090,56.170 C 150.090,56.620 150.090,57.060 150.090,57.480 150.090,57.340 150.160,57.210 150.200,57.090 150.340,56.680 150.480,56.310 150.610,55.950 150.437,56.023 150.263,56.097 150.090,56.170 Z " />
  <path stroke="none" fill="none" d="M 140.000,46.830 C 139.107,46.342 138.542,45.415 138.518,44.398 138.494,43.380 139.014,42.427 139.883,41.898 140.752,41.368 141.838,41.343 142.731,41.830 144.920,42.990 147.110,44.150 149.300,45.310 150.244,45.747 150.823,46.719 150.756,47.758 150.690,48.796 149.992,49.687 149.000,50.000 148.745,50.085 148.479,50.129 148.210,50.130 147.817,50.130 147.430,50.037 147.080,49.860 144.720,48.850 142.360,47.840 140.000,46.830 Z M 155.190,50.150 C 155.190,46.867 155.190,43.583 155.190,40.300 144.857,40.300 134.523,40.300 124.190,40.300 124.190,41.027 124.190,41.753 124.190,42.480 131.960,45.037 139.730,47.593 147.500,50.150 150.063,50.150 152.627,50.150 155.190,50.150 Z " />
  <path stroke="none" fill="none" d="M 179.520,47.980 C 180.137,47.980 180.753,47.980 181.370,47.980 181.370,48.207 181.370,48.433 181.370,48.660 180.753,48.660 180.137,48.660 179.520,48.660 179.520,48.433 179.520,48.207 179.520,47.980 Z " />
  <path stroke="none" fill="none" d="M 208.230,27.280 C 208.373,27.280 208.517,27.280 208.660,27.280 208.660,31.070 208.660,34.860 208.660,38.650 208.517,38.650 208.373,38.650 208.230,38.650 208.230,34.860 208.230,31.070 208.230,27.280 Z " />
  <path stroke="none" fill="none" d="M 149.110,48.070 C 149.238,47.830 149.262,47.548 149.177,47.289 149.092,47.031 148.905,46.818 148.660,46.700 146.460,45.537 144.260,44.373 142.060,43.210 141.433,42.913 140.682,43.148 140.337,43.750 139.991,44.352 140.167,45.118 140.740,45.510 143.073,46.510 145.407,47.510 147.740,48.510 147.991,48.646 148.287,48.675 148.560,48.590 148.804,48.495 149.002,48.309 149.110,48.070 149.110,48.070 149.110,48.070 149.110,48.070 Z " />
  <path stroke="none" fill="none" d="M 183.280,47.980 C 183.143,47.980 183.007,47.980 182.870,47.980 182.870,48.207 182.870,48.433 182.870,48.660 183.127,48.660 183.383,48.660 183.640,48.660 183.520,48.433 183.400,48.207 183.280,47.980 183.280,47.980 183.280,47.980 183.280,47.980 Z " />
  <path stroke="none" fill="none" d="M 146.320,59.130 C 144.530,60.900 144.220,62.130 144.180,62.640 145.512,63.053 146.906,63.233 148.300,63.170 147.678,62.201 147.238,61.127 147.000,60.000 147.000,59.770 147.000,59.150 147.000,58.420 146.773,58.657 146.547,58.893 146.320,59.130 Z " />
  <path stroke="none" fill="none" d="M 210.340,45.100 C 206.663,45.100 202.987,45.100 199.310,45.100 198.620,46.287 197.930,47.473 197.240,48.660 201.607,48.660 205.973,48.660 210.340,48.660 210.340,47.473 210.340,46.287 210.340,45.100 210.340,45.100 210.340,45.100 210.340,45.100 Z " />
  <path stroke="none" fill="none" d="M 144.180,62.880 C 144.180,62.880 144.180,62.880 144.180,62.880 144.180,62.880 144.180,62.880 144.180,62.880 144.180,62.880 144.180,62.880 144.180,62.880 Z " />
  <path stroke="none" fill="none" d="M 165.120,52.750 C 165.378,52.857 165.628,52.980 165.870,53.120 166.539,53.510 167.067,54.102 167.380,54.810 167.540,54.090 167.700,53.390 167.880,52.750 166.960,52.750 166.040,52.750 165.120,52.750 Z " />
  <path stroke="none" fill="none" d="M 137.280,62.530 C 139.927,59.403 142.573,56.277 145.220,53.150 145.848,52.446 146.647,51.915 147.540,51.610 147.440,51.610 147.340,51.610 147.240,51.610 139.493,49.073 131.747,46.537 124.000,44.000 123.693,44.587 123.387,45.173 123.080,45.760 125.070,46.364 126.620,47.933 127.200,49.930 128.270,53.660 125.960,55.690 124.270,57.160 123.920,57.453 123.570,57.747 123.220,58.040 120.640,60.170 115.220,64.590 111.380,70.040 106.240,77.310 103.710,81.740 103.500,82.500 103.170,83.660 102.970,84.380 105.090,85.360 106.680,86.090 108.930,87.240 111.090,88.360 113.250,89.480 115.800,90.770 116.800,91.170 118.210,91.730 118.390,91.810 119.880,89.040 120.140,88.560 120.480,87.900 120.880,87.110 123.880,81.390 130.010,69.480 136.050,63.200 136.340,62.900 136.630,62.600 136.920,62.300 137.040,62.377 137.160,62.453 137.280,62.530 Z " />
  <path stroke="none" fill="none" d="M 155.260,62.940 C 159.990,62.610 162.060,61.810 163.490,59.760 164.610,58.150 164.860,56.890 164.720,56.250 164.687,56.022 164.551,55.823 164.350,55.710 163.110,54.980 160.230,54.710 158.630,54.710 157.179,54.723 155.730,54.820 154.290,55.000 153.778,55.963 153.347,56.966 153.000,58.000 152.709,59.446 152.709,60.934 153.000,62.380 153.063,62.591 153.083,62.812 153.060,63.030 153.793,63.000 154.527,62.970 155.260,62.940 Z " />
  <path stroke="none" fill="none" d="M 146.380,54.100 C 143.803,57.147 141.227,60.193 138.650,63.240 139.577,63.594 140.522,63.901 141.480,64.160 141.373,63.955 141.296,63.736 141.250,63.510 141.110,62.890 140.810,60.380 144.250,57.000 145.956,55.056 148.142,53.594 150.590,52.760 150.273,52.760 149.957,52.760 149.640,52.760 148.410,52.711 147.220,53.200 146.380,54.100 146.380,54.100 146.380,54.100 146.380,54.100 Z " />
  <path stroke="none" fill="#ffffffff" d="M 275.000,34.880 C 273.929,34.880 273.060,34.011 273.060,32.940 273.060,31.869 273.929,31.000 275.000,31.000 276.071,31.000 276.940,31.869 276.940,32.940 276.940,33.455 276.736,33.948 276.372,34.312 276.008,34.676 275.515,34.880 275.000,34.880 275.000,34.880 275.000,34.880 275.000,34.880 Z M 275.000,29.500 C 273.609,29.500 272.354,30.338 271.822,31.624 271.289,32.909 271.584,34.389 272.568,35.372 273.551,36.356 275.031,36.651 276.316,36.118 277.602,35.586 278.440,34.331 278.440,32.940 278.440,32.028 278.078,31.153 277.432,30.508 276.787,29.862 275.912,29.500 275.000,29.500 275.000,29.500 275.000,29.500 275.000,29.500 Z " />
  <path stroke="none" fill="#ffffffff" d="M 263.750,34.880 C 262.679,34.880 261.810,34.011 261.810,32.940 261.810,31.869 262.679,31.000 263.750,31.000 264.821,31.000 265.690,31.869 265.690,32.940 265.690,33.455 265.486,33.948 265.122,34.312 264.758,34.676 264.265,34.880 263.750,34.880 263.750,34.880 263.750,34.880 263.750,34.880 Z M 263.750,29.500 C 262.359,29.500 261.104,30.338 260.572,31.624 260.039,32.909 260.334,34.389 261.318,35.372 262.301,36.356 263.781,36.651 265.066,36.118 266.352,35.586 267.190,34.331 267.190,32.940 267.190,32.028 266.828,31.153 266.182,30.508 265.537,29.862 264.662,29.500 263.750,29.500 263.750,29.500 263.750,29.500 263.750,29.500 Z " />
  <path stroke="none" fill="#ffffffff" d="M 252.500,34.880 C 251.429,34.880 250.560,34.011 250.560,32.940 250.560,31.869 251.429,31.000 252.500,31.000 253.571,31.000 254.440,31.869 254.440,32.940 254.440,33.455 254.236,33.948 253.872,34.312 253.508,34.676 253.015,34.880 252.500,34.880 252.500,34.880 252.500,34.880 252.500,34.880 Z M 252.500,29.500 C 251.109,29.500 249.854,30.338 249.322,31.624 248.789,32.909 249.084,34.389 250.068,35.372 251.051,36.356 252.531,36.651 253.816,36.118 255.102,35.586 255.940,34.331 255.940,32.940 255.940,32.028 255.578,31.153 254.932,30.508 254.287,29.862 253.412,29.500 252.500,29.500 252.500,29.500 252.500,29.500 252.500,29.500 Z " />
  <path stroke="none" fill="#ffffffff" d="M 241.250,34.880 C 240.179,34.880 239.310,34.011 239.310,32.940 239.310,31.869 240.179,31.000 241.250,31.000 242.321,31.000 243.190,31.869 243.190,32.940 243.190,33.455 242.986,33.948 242.622,34.312 242.258,34.676 241.765,34.880 241.250,34.880 241.250,34.880 241.250,34.880 241.250,34.880 Z M 241.250,29.500 C 239.859,29.500 238.604,30.338 238.072,31.624 237.539,32.909 237.834,34.389 238.818,35.372 239.801,36.356 241.281,36.651 242.566,36.118 243.852,35.586 244.690,34.331 244.690,32.940 244.690,32.028 244.328,31.153 243.682,30.508 243.037,29.862 242.162,29.500 241.250,29.500 241.250,29.500 241.250,29.500 241.250,29.500 Z " />
  <path stroke="none" fill="#ffffffff" d="M 230.000,34.880 C 228.929,34.880 228.060,34.011 228.060,32.940 228.060,31.869 228.929,31.000 230.000,31.000 231.071,31.000 231.940,31.869 231.940,32.940 231.940,33.455 231.736,33.948 231.372,34.312 231.008,34.676 230.515,34.880 230.000,34.880 230.000,34.880 230.000,34.880 230.000,34.880 Z M 230.000,29.500 C 228.609,29.500 227.354,30.338 226.822,31.624 226.289,32.909 226.584,34.389 227.568,35.372 228.551,36.356 230.031,36.651 231.316,36.118 232.602,35.586 233.440,34.331 233.440,32.940 233.440,32.028 233.078,31.153 232.432,30.508 231.787,29.862 230.912,29.500 230.000,29.500 230.000,29.500 230.000,29.500 230.000,29.500 Z " />
  <path stroke="none" fill="#ffffffff" d="M 147.710,48.500 C 145.377,47.500 143.043,46.500 140.710,45.500 140.137,45.108 139.961,44.342 140.307,43.740 140.652,43.138 141.403,42.903 142.030,43.200 144.230,44.363 146.430,45.527 148.630,46.690 149.026,46.857 149.270,47.257 149.239,47.685 149.207,48.113 148.906,48.473 148.490,48.580 148.223,48.659 147.936,48.631 147.690,48.500 147.697,48.500 147.703,48.500 147.710,48.500 Z M 149.000,50.000 C 149.974,49.687 150.661,48.816 150.740,47.796 150.819,46.776 150.274,45.810 149.360,45.350 147.170,44.190 144.980,43.030 142.790,41.870 141.897,41.382 140.811,41.408 139.942,41.938 139.074,42.468 138.553,43.421 138.578,44.438 138.602,45.456 139.167,46.383 140.061,46.870 142.394,47.870 144.727,48.870 147.060,49.870 147.410,50.047 147.797,50.140 148.190,50.140 148.466,50.137 148.739,50.090 149.000,50.000 149.000,50.000 149.000,50.000 149.000,50.000 Z " />
  <path stroke="none" fill="#ffffffff" d="M 289.310,36.610 C 288.437,37.010 287.563,37.410 286.690,37.810 286.690,34.593 286.690,31.377 286.690,28.160 287.563,28.560 288.437,28.960 289.310,29.360 289.310,31.777 289.310,34.193 289.310,36.610 Z M 280.730,37.080 C 279.555,37.040 278.406,37.431 277.500,38.180 275.870,38.180 274.240,38.180 272.610,38.180 270.708,36.709 268.052,36.709 266.150,38.180 264.500,38.180 262.850,38.180 261.200,38.180 259.298,36.709 256.642,36.709 254.740,38.180 253.110,38.180 251.480,38.180 249.850,38.180 247.948,36.709 245.292,36.709 243.390,38.180 241.760,38.180 240.130,38.180 238.500,38.180 236.598,36.709 233.942,36.709 232.040,38.180 229.923,38.180 227.807,38.180 225.690,38.180 225.690,34.713 225.690,31.247 225.690,27.780 227.793,27.780 229.897,27.780 232.000,27.780 233.899,29.237 236.541,29.237 238.440,27.780 240.077,27.780 241.713,27.780 243.350,27.780 245.249,29.237 247.891,29.237 249.790,27.780 251.427,27.780 253.063,27.780 254.700,27.780 256.599,29.237 259.241,29.237 261.140,27.780 262.777,27.780 264.413,27.780 266.050,27.780 267.949,29.237 270.591,29.237 272.490,27.780 274.127,27.780 275.763,27.780 277.400,27.780 279.299,29.237 281.941,29.237 283.840,27.780 284.253,27.780 284.667,27.780 285.080,27.780 285.080,31.237 285.080,34.693 285.080,38.150 284.687,38.150 284.293,38.150 283.900,38.150 283.001,37.383 281.851,36.974 280.670,37.000 280.690,37.027 280.710,37.053 280.730,37.080 Z M 216.730,48.080 C 215.253,48.320 213.777,48.560 212.300,48.800 212.300,48.753 212.300,48.707 212.300,48.660 212.150,48.660 212.000,48.660 211.850,48.660 211.850,47.473 211.850,46.287 211.850,45.100 212.000,45.100 212.150,45.100 212.300,45.100 212.300,45.067 212.300,45.033 212.300,45.000 213.777,45.240 215.253,45.480 216.730,45.720 216.730,46.507 216.730,47.293 216.730,48.080 Z M 197.250,48.660 C 197.937,47.473 198.623,46.287 199.310,45.100 202.977,45.100 206.643,45.100 210.310,45.100 210.310,46.287 210.310,47.473 210.310,48.660 205.957,48.660 201.603,48.660 197.250,48.660 Z M 120.870,87.100 C 120.460,87.900 120.120,88.560 119.870,89.030 118.390,91.790 118.210,91.720 116.790,91.160 115.790,90.760 113.390,89.530 111.080,88.350 108.770,87.170 106.670,86.090 105.080,85.350 102.960,84.350 103.160,83.660 103.490,82.490 103.700,81.730 106.240,77.300 111.370,70.030 115.260,64.530 120.630,60.110 123.210,58.030 123.560,57.737 123.910,57.443 124.260,57.150 125.950,55.670 128.260,53.650 127.190,49.920 126.610,47.923 125.060,46.354 123.070,45.750 123.380,45.167 123.690,44.583 124.000,44.000 131.753,46.550 139.507,49.100 147.260,51.650 147.360,51.650 147.460,51.650 147.560,51.650 146.667,51.955 145.868,52.486 145.240,53.190 142.593,56.317 139.947,59.443 137.300,62.570 137.177,62.487 137.053,62.403 136.930,62.320 136.640,62.620 136.350,62.920 136.060,63.220 130.000,69.470 123.830,81.370 120.870,87.100 120.870,87.100 120.870,87.100 120.870,87.100 Z M 167.350,54.780 C 167.037,54.072 166.509,53.480 165.840,53.090 165.598,52.950 165.348,52.827 165.090,52.720 166.010,52.720 166.930,52.720 167.850,52.720 167.710,53.390 167.550,54.090 167.390,54.810 167.377,54.800 167.363,54.790 167.350,54.780 Z M 144.140,62.850 C 144.140,62.850 144.140,62.850 144.140,62.850 144.140,62.850 144.140,62.850 144.140,62.850 Z M 150.510,52.720 C 148.072,53.572 145.900,55.047 144.210,57.000 140.800,60.380 141.100,62.890 141.210,63.510 141.256,63.736 141.333,63.955 141.440,64.160 140.482,63.901 139.537,63.594 138.610,63.240 141.187,60.193 143.763,57.147 146.340,54.100 147.171,53.205 148.349,52.712 149.570,52.750 149.883,52.740 150.197,52.730 150.510,52.720 Z M 153.000,62.390 C 152.708,60.941 152.708,59.449 153.000,58.000 153.343,56.966 153.772,55.963 154.280,55.000 155.720,54.820 157.169,54.723 158.620,54.710 160.230,54.650 163.100,54.950 164.340,55.710 164.541,55.823 164.677,56.022 164.710,56.250 164.850,56.900 164.600,58.160 163.480,59.760 162.050,61.760 159.980,62.610 155.250,62.940 154.533,62.983 153.817,63.027 153.100,63.070 153.110,62.849 153.076,62.628 153.000,62.420 153.000,62.410 153.000,62.400 153.000,62.390 Z M 147.000,60.000 C 147.238,61.116 147.675,62.179 148.290,63.140 146.896,63.203 145.502,63.023 144.170,62.610 144.170,62.120 144.520,60.870 146.310,59.100 146.543,58.873 146.777,58.647 147.010,58.420 147.000,59.180 147.000,59.790 147.000,60.000 147.000,60.000 147.000,60.000 147.000,60.000 Z M 150.040,57.490 C 150.040,57.070 150.040,56.630 150.040,56.180 150.200,56.107 150.360,56.033 150.520,55.960 150.380,56.320 150.240,56.690 150.110,57.100 150.120,57.210 150.080,57.340 150.050,57.480 150.047,57.483 150.043,57.487 150.040,57.490 Z M 124.270,42.490 C 124.270,41.763 124.270,41.037 124.270,40.310 134.603,40.310 144.937,40.310 155.270,40.310 155.270,43.593 155.270,46.877 155.270,50.160 152.737,50.160 150.203,50.160 147.670,50.160 139.870,47.603 132.070,45.047 124.270,42.490 Z M 182.870,48.000 C 183.007,48.000 183.143,48.000 183.280,48.000 183.400,48.227 183.520,48.453 183.640,48.680 183.383,48.680 183.127,48.680 182.870,48.680 182.870,48.453 182.870,48.227 182.870,48.000 Z M 179.520,48.000 C 180.137,48.000 180.753,48.000 181.370,48.000 181.370,48.227 181.370,48.453 181.370,48.680 180.753,48.680 180.137,48.680 179.520,48.680 179.520,48.453 179.520,48.227 179.520,48.000 Z M 174.670,48.680 C 174.150,48.680 173.630,48.680 173.110,48.680 173.257,48.453 173.403,48.227 173.550,48.000 173.923,48.000 174.297,48.000 174.670,48.000 174.670,48.227 174.670,48.453 174.670,48.680 Z M 176.170,48.000 C 176.780,48.000 177.390,48.000 178.000,48.000 178.000,48.227 178.000,48.453 178.000,48.680 177.383,48.680 176.767,48.680 176.150,48.680 176.157,48.453 176.163,48.227 176.170,48.000 Z M 194.720,48.700 C 194.387,49.237 194.053,49.773 193.720,50.310 191.350,50.310 188.980,50.310 186.610,50.310 186.320,49.773 186.030,49.237 185.740,48.700 185.600,48.700 185.460,48.700 185.320,48.700 184.933,47.973 184.547,47.247 184.160,46.520 180.353,46.520 176.547,46.520 172.740,46.520 172.270,47.247 171.800,47.973 171.330,48.700 171.263,48.700 171.197,48.700 171.130,48.700 170.753,49.207 170.377,49.713 170.000,50.220 166.020,50.197 162.040,50.173 158.060,50.150 158.060,46.867 158.060,43.583 158.060,40.300 171.540,40.300 185.020,40.300 198.500,40.300 198.500,41.033 198.500,41.767 198.500,42.500 197.970,43.363 197.440,44.227 196.910,45.090 197.130,45.090 197.350,45.090 197.570,45.090 196.883,46.277 196.197,47.463 195.510,48.650 195.247,48.667 194.983,48.683 194.720,48.700 Z M 149.160,31.650 C 149.160,30.844 149.814,30.190 150.620,30.190 151.426,30.190 152.080,30.844 152.080,31.650 152.080,32.456 151.426,33.110 150.620,33.110 150.228,33.107 149.853,32.947 149.580,32.665 149.307,32.383 149.159,32.002 149.170,31.610 149.167,31.623 149.163,31.637 149.160,31.650 Z M 147.720,32.210 C 140.480,32.210 133.240,32.210 126.000,32.210 125.945,32.214 125.892,32.196 125.850,32.160 125.850,31.863 125.850,31.567 125.850,31.270 125.888,31.227 125.943,31.205 126.000,31.210 133.240,31.210 140.480,31.210 147.720,31.210 147.653,31.540 147.653,31.880 147.720,32.210 147.720,32.210 147.720,32.210 147.720,32.210 Z M 112.050,40.000 C 112.183,39.463 112.317,38.927 112.450,38.390 112.300,38.390 112.150,38.390 112.000,38.390 112.263,37.267 112.527,36.143 112.790,35.020 112.320,34.207 111.850,33.393 111.380,32.580 112.030,30.930 112.680,29.280 113.330,27.630 113.487,27.630 113.643,27.630 113.800,27.630 114.023,27.093 114.247,26.557 114.470,26.020 116.420,26.020 118.370,26.020 120.320,26.020 119.970,26.860 119.610,27.740 119.320,28.430 118.942,29.252 118.971,30.203 119.400,31.000 119.813,31.655 120.547,32.037 121.320,32.000 122.320,32.000 123.320,32.000 124.320,32.000 124.320,32.043 124.320,32.087 124.320,32.130 124.363,33.016 125.114,33.700 126.000,33.660 133.503,33.660 141.007,33.660 148.510,33.660 149.358,34.570 150.679,34.863 151.832,34.396 152.985,33.929 153.730,32.799 153.705,31.555 153.680,30.312 152.890,29.213 151.720,28.792 150.549,28.371 149.241,28.717 148.430,29.660 140.953,29.660 133.477,29.660 126.000,29.660 125.300,29.648 124.669,30.082 124.430,30.740 123.390,30.740 122.350,30.740 121.310,30.740 120.961,30.782 120.615,30.638 120.400,30.360 120.174,29.889 120.174,29.341 120.400,28.870 120.760,28.040 121.210,26.960 121.610,25.980 126.900,25.980 132.190,25.980 137.480,25.980 137.480,26.367 137.480,26.753 137.480,27.140 151.117,27.140 164.753,27.140 178.390,27.140 178.390,26.760 178.390,26.380 178.390,26.000 184.473,26.000 190.557,26.000 196.640,26.000 196.640,26.230 196.640,26.460 196.640,26.690 198.373,26.690 200.107,26.690 201.840,26.690 200.774,27.093 200.149,28.201 200.354,29.322 200.558,30.443 201.535,31.257 202.675,31.257 203.815,31.257 204.792,30.443 204.997,29.322 205.202,28.201 204.576,27.093 203.510,26.690 204.433,26.690 205.357,26.690 206.280,26.690 206.280,26.897 206.280,27.103 206.280,27.310 206.433,27.310 206.587,27.310 206.740,27.310 206.740,31.090 206.740,34.870 206.740,38.650 206.587,38.650 206.433,38.650 206.280,38.650 206.280,39.100 206.280,39.550 206.280,40.000 204.350,40.000 202.420,40.000 200.490,40.000 200.490,39.600 200.490,39.200 200.490,38.800 174.427,38.800 148.363,38.800 122.300,38.800 122.300,39.200 122.300,39.600 122.300,40.000 118.883,40.000 115.467,40.000 112.050,40.000 Z M 106.370,38.340 C 106.370,37.873 106.370,37.407 106.370,36.940 106.220,36.940 106.070,36.940 105.920,36.940 105.920,34.333 105.920,31.727 105.920,29.120 106.070,29.120 106.220,29.120 106.370,29.120 106.370,28.620 106.370,28.120 106.370,27.620 108.143,27.620 109.917,27.620 111.690,27.620 111.023,29.307 110.357,30.993 109.690,32.680 110.180,33.530 110.670,34.380 111.160,35.230 110.913,36.277 110.667,37.323 110.420,38.370 109.070,38.360 107.720,38.350 106.370,38.340 Z M 99.690,40.450 C 98.733,40.450 97.777,40.450 96.820,40.450 96.820,35.450 96.820,30.450 96.820,25.450 97.777,25.450 98.733,25.450 99.690,25.450 99.690,26.153 99.690,26.857 99.690,27.560 99.840,27.560 99.990,27.560 100.140,27.560 100.140,31.157 100.140,34.753 100.140,38.350 99.990,38.350 99.840,38.350 99.690,38.350 99.690,39.050 99.690,39.750 99.690,40.450 Z M 94.750,38.740 C 94.750,34.890 94.750,31.040 94.750,27.190 94.748,26.726 94.953,26.286 95.310,25.990 95.310,30.617 95.310,35.243 95.310,39.870 94.966,39.594 94.762,39.181 94.750,38.740 94.750,38.740 94.750,38.740 94.750,38.740 Z M 103.370,29.120 C 103.703,29.120 104.037,29.120 104.370,29.120 104.370,31.727 104.370,34.333 104.370,36.940 104.037,36.940 103.703,36.940 103.370,36.940 103.370,34.333 103.370,31.727 103.370,29.120 Z M 101.640,29.120 C 101.717,29.120 101.793,29.120 101.870,29.120 101.870,31.727 101.870,34.333 101.870,36.940 101.793,36.940 101.717,36.940 101.640,36.940 101.640,34.333 101.640,31.727 101.640,29.120 Z M 138.080,16.950 C 138.080,16.563 138.080,16.177 138.080,15.790 137.930,15.790 137.780,15.790 137.630,15.790 137.630,12.647 137.630,9.503 137.630,6.360 137.780,6.360 137.930,6.360 138.080,6.360 138.080,6.027 138.080,5.693 138.080,5.360 138.227,5.360 138.373,5.360 138.520,5.360 138.520,9.223 138.520,13.087 138.520,16.950 138.373,16.950 138.227,16.950 138.080,16.950 Z M 131.080,15.790 C 131.080,12.647 131.080,9.503 131.080,6.360 132.747,6.360 134.413,6.360 136.080,6.360 136.080,9.503 136.080,12.647 136.080,15.790 134.413,15.790 132.747,15.790 131.080,15.790 Z M 140.460,4.510 C 140.487,4.510 140.513,4.510 140.540,4.510 140.540,4.800 140.540,5.090 140.540,5.380 140.693,5.380 140.847,5.380 141.000,5.380 141.000,9.237 141.000,13.093 141.000,16.950 140.857,16.950 140.713,16.950 140.570,16.950 140.570,17.240 140.570,17.530 140.570,17.820 140.543,17.820 140.517,17.820 140.490,17.820 140.490,17.530 140.490,17.240 140.490,16.950 140.327,16.950 140.163,16.950 140.000,16.950 140.000,13.093 140.000,9.237 140.000,5.380 140.150,5.380 140.300,5.380 140.450,5.380 140.453,5.090 140.457,4.800 140.460,4.510 Z M 145.000,5.880 C 144.617,5.903 144.260,5.688 144.100,5.340 144.170,5.340 144.240,5.340 144.310,5.340 144.460,5.167 144.610,4.993 144.760,4.820 144.826,4.769 144.907,4.745 144.990,4.750 145.073,4.745 145.154,4.769 145.220,4.820 145.370,5.013 145.520,5.207 145.670,5.400 145.747,5.400 145.823,5.400 145.900,5.400 145.710,5.712 145.365,5.897 145.000,5.880 145.000,5.880 145.000,5.880 145.000,5.880 Z M 151.000,6.100 C 151.000,9.477 151.000,12.853 151.000,16.230 150.847,16.270 150.693,16.310 150.540,16.350 150.540,16.550 150.540,16.750 150.540,16.950 147.873,16.950 145.207,16.950 142.540,16.950 142.540,13.093 142.540,9.237 142.540,5.380 142.567,5.380 142.593,5.380 142.620,5.380 142.620,5.713 142.620,6.047 142.620,6.380 142.735,7.648 143.797,8.618 145.070,8.618 146.343,8.618 147.405,7.648 147.520,6.380 147.520,6.047 147.520,5.713 147.520,5.380 148.520,5.380 149.520,5.380 150.520,5.380 150.520,5.587 150.520,5.793 150.520,6.000 150.680,6.033 150.840,6.067 151.000,6.100 Z M 164.510,9.600 C 164.510,10.673 164.510,11.747 164.510,12.820 160.480,13.843 156.450,14.867 152.420,15.890 152.420,12.753 152.420,9.617 152.420,6.480 156.450,7.520 160.480,8.560 164.510,9.600 Z M 166.510,9.600 C 166.510,9.600 166.510,9.600 166.510,9.600 166.510,10.643 166.510,11.687 166.510,12.730 166.510,12.730 166.510,12.730 166.510,12.730 166.510,12.580 166.510,12.430 166.510,12.280 166.360,12.317 166.210,12.353 166.060,12.390 166.060,11.573 166.060,10.757 166.060,9.940 166.210,9.977 166.360,10.013 166.510,10.050 166.510,9.900 166.510,9.750 166.510,9.600 Z M 173.640,9.600 C 173.640,10.643 173.640,11.687 173.640,12.730 171.760,12.730 169.880,12.730 168.000,12.730 168.000,11.687 168.000,10.643 168.000,9.600 169.880,9.600 171.760,9.600 173.640,9.600 Z M 177.410,12.730 C 177.233,12.730 177.057,12.730 176.880,12.730 176.880,11.687 176.880,10.643 176.880,9.600 177.057,9.600 177.233,9.600 177.410,9.600 177.410,10.643 177.410,11.687 177.410,12.730 Z M 174.850,24.130 C 174.850,23.883 174.850,23.637 174.850,23.390 174.997,23.197 175.143,23.003 175.290,22.810 175.437,23.003 175.583,23.197 175.730,23.390 175.730,23.637 175.730,23.883 175.730,24.130 175.437,24.130 175.143,24.130 174.850,24.130 Z M 140.290,23.390 C 140.437,23.197 140.583,23.003 140.730,22.810 140.877,23.003 141.023,23.197 141.170,23.390 141.170,23.637 141.170,23.883 141.170,24.130 140.877,24.130 140.583,24.130 140.290,24.130 140.290,23.883 140.290,23.637 140.290,23.390 Z M 175.140,12.730 C 175.140,11.687 175.140,10.643 175.140,9.600 175.220,9.600 175.300,9.600 175.380,9.600 175.380,10.643 175.380,11.687 175.380,12.730 175.300,12.730 175.220,12.730 175.140,12.730 Z M 153.520,19.950 C 153.520,19.527 153.520,19.103 153.520,18.680 156.853,17.833 160.187,16.987 163.520,16.140 163.520,16.560 163.520,16.980 163.520,17.400 165.380,17.400 167.240,17.400 169.100,17.400 169.100,16.843 169.100,16.287 169.100,15.730 170.267,15.730 171.433,15.730 172.600,15.730 172.600,16.153 172.600,16.577 172.600,17.000 172.733,17.000 172.867,17.000 173.000,17.000 173.000,18.293 173.000,19.587 173.000,20.880 172.783,21.167 172.567,21.453 172.350,21.740 162.797,21.740 153.243,21.740 143.690,21.740 143.473,21.453 143.257,21.167 143.040,20.880 143.040,20.860 143.040,20.840 143.040,20.820 143.220,20.820 143.400,20.820 143.580,20.820 143.580,20.530 143.580,20.240 143.580,19.950 146.893,19.950 150.207,19.950 153.520,19.950 Z M 203.520,28.860 C 203.520,29.335 203.135,29.720 202.660,29.720 202.185,29.720 201.800,29.335 201.800,28.860 201.800,28.385 202.185,28.000 202.660,28.000 202.888,28.000 203.107,28.091 203.268,28.252 203.429,28.413 203.520,28.632 203.520,28.860 203.520,28.860 203.520,28.860 203.520,28.860 Z M 204.210,24.490 C 204.277,24.713 204.343,24.937 204.410,25.160 202.467,25.160 200.523,25.160 198.580,25.160 198.647,24.937 198.713,24.713 198.780,24.490 200.590,24.490 202.400,24.490 204.210,24.490 Z M 223.750,38.140 C 223.750,38.760 223.750,39.380 223.750,40.000 220.063,40.000 216.377,40.000 212.690,40.000 212.690,39.550 212.690,39.100 212.690,38.650 212.543,38.650 212.397,38.650 212.250,38.650 212.250,34.860 212.250,31.070 212.250,27.280 212.397,27.280 212.543,27.280 212.690,27.280 212.690,26.853 212.690,26.427 212.690,26.000 216.377,26.000 220.063,26.000 223.750,26.000 223.750,26.603 223.750,27.207 223.750,27.810 223.897,27.810 224.043,27.810 224.190,27.810 224.190,31.257 224.190,34.703 224.190,38.150 224.043,38.147 223.897,38.143 223.750,38.140 Z M 210.160,27.280 C 210.357,27.280 210.553,27.280 210.750,27.280 210.750,31.070 210.750,34.860 210.750,38.650 210.553,38.650 210.357,38.650 210.160,38.650 210.160,34.860 210.160,31.070 210.160,27.280 Z M 208.230,38.650 C 208.230,34.860 208.230,31.070 208.230,27.280 208.373,27.280 208.517,27.280 208.660,27.280 208.660,31.070 208.660,34.860 208.660,38.650 208.517,38.650 208.373,38.650 208.230,38.650 Z M 209.290,42.100 C 209.290,42.100 209.290,42.100 209.290,42.100 209.290,42.100 209.290,42.100 209.290,42.100 209.290,42.100 209.290,42.100 209.290,42.100 Z M 286.460,24.790 C 286.390,24.790 286.320,24.790 286.250,24.790 286.447,24.457 286.643,24.123 286.840,23.790 286.840,24.193 286.840,24.597 286.840,25.000 286.713,24.930 286.587,24.860 286.460,24.790 Z M 289.840,26.330 C 289.840,23.640 289.840,20.950 289.840,18.260 288.020,18.260 286.200,18.260 284.380,18.260 284.380,19.537 284.380,20.813 284.380,22.090 283.837,22.980 283.293,23.870 282.750,24.760 282.600,24.760 282.450,24.760 282.300,24.760 282.163,25.037 282.027,25.313 281.890,25.590 281.533,25.827 281.108,25.940 280.680,25.910 280.274,25.925 279.871,25.835 279.510,25.650 279.373,25.373 279.237,25.097 279.100,24.820 276.683,24.820 274.267,24.820 271.850,24.820 271.553,24.800 271.257,24.780 270.960,24.760 270.823,25.037 270.687,25.313 270.550,25.590 270.193,25.827 269.768,25.940 269.340,25.910 268.934,25.925 268.531,25.835 268.170,25.650 268.033,25.373 267.897,25.097 267.760,24.820 265.343,24.820 262.927,24.820 260.510,24.820 260.213,24.800 259.917,24.780 259.620,24.760 259.483,25.037 259.347,25.313 259.210,25.590 258.853,25.827 258.428,25.940 258.000,25.910 257.594,25.925 257.191,25.835 256.830,25.650 256.693,25.373 256.557,25.097 256.420,24.820 254.003,24.820 251.587,24.820 249.170,24.820 248.873,24.800 248.577,24.780 248.280,24.760 248.143,25.037 248.007,25.313 247.870,25.590 247.513,25.827 247.088,25.940 246.660,25.910 246.254,25.924 245.852,25.835 245.490,25.650 245.353,25.370 245.217,25.090 245.080,24.810 242.663,24.810 240.247,24.810 237.830,24.810 237.533,24.790 237.237,24.770 236.940,24.750 236.803,25.027 236.667,25.303 236.530,25.580 236.173,25.817 235.748,25.930 235.320,25.900 234.914,25.915 234.511,25.825 234.150,25.640 234.013,25.363 233.877,25.087 233.740,24.810 231.430,24.810 229.120,24.810 226.810,24.810 226.810,24.207 226.810,23.603 226.810,23.000 221.103,23.000 215.397,23.000 209.690,23.000 209.690,23.437 209.690,23.873 209.690,24.310 209.550,24.310 209.410,24.310 209.270,24.310 209.270,23.873 209.270,23.437 209.270,23.000 208.477,23.000 207.683,23.000 206.890,23.000 206.743,22.507 206.597,22.013 206.450,21.520 203.140,21.520 199.830,21.520 196.520,21.520 196.377,22.013 196.233,22.507 196.090,23.000 190.303,23.000 184.517,23.000 178.730,23.000 178.730,22.800 178.730,22.600 178.730,22.400 178.350,21.900 177.970,21.400 177.590,20.900 177.590,19.600 177.590,18.300 177.590,17.000 177.700,17.000 177.810,17.000 177.920,17.000 177.920,16.577 177.920,16.153 177.920,15.730 178.747,15.730 179.573,15.730 180.400,15.730 180.400,12.687 180.400,9.643 180.400,6.600 179.573,6.600 178.747,6.600 177.920,6.600 177.920,6.177 177.920,5.753 177.920,5.330 176.140,5.330 174.360,5.330 172.580,5.330 172.580,5.753 172.580,6.177 172.580,6.600 171.413,6.600 170.247,6.600 169.080,6.600 169.080,6.043 169.080,5.487 169.080,4.930 167.220,4.930 165.360,4.930 163.500,4.930 163.500,5.350 163.500,5.770 163.500,6.190 160.167,5.343 156.833,4.497 153.500,3.650 153.500,3.227 153.500,2.803 153.500,2.380 151.333,2.380 149.167,2.380 147.000,2.380 146.001,1.665 144.702,1.521 143.570,2.000 143.570,1.837 143.570,1.673 143.570,1.510 141.543,1.510 139.517,1.510 137.490,1.510 137.490,1.800 137.490,2.090 137.490,2.380 136.693,2.380 135.897,2.380 135.100,2.380 135.100,2.713 135.100,3.047 135.100,3.380 132.767,3.380 130.433,3.380 128.100,3.380 128.100,8.517 128.100,13.653 128.100,18.790 130.433,18.790 132.767,18.790 135.100,18.790 135.100,19.177 135.100,19.563 135.100,19.950 135.897,19.950 136.693,19.950 137.490,19.950 137.490,20.240 137.490,20.530 137.490,20.820 137.803,20.820 138.117,20.820 138.430,20.820 138.050,21.340 137.670,21.860 137.290,22.380 137.290,22.587 137.290,22.793 137.290,23.000 132.357,23.000 127.423,23.000 122.490,23.000 122.427,22.912 122.340,22.842 122.240,22.800 121.991,22.706 121.710,22.788 121.550,23.000 118.513,23.000 115.477,23.000 112.440,23.000 112.217,23.537 111.993,24.073 111.770,24.610 108.740,24.610 105.710,24.610 102.680,24.610 102.680,23.897 102.680,23.183 102.680,22.470 100.477,22.470 98.273,22.470 96.070,22.470 95.967,22.470 95.863,22.470 95.760,22.470 93.497,22.903 91.836,24.847 91.760,27.150 91.760,31.013 91.760,34.877 91.760,38.740 91.760,41.570 94.220,43.000 95.680,43.400 95.743,43.417 95.807,43.433 95.870,43.450 98.147,43.450 100.423,43.450 102.700,43.450 102.700,42.750 102.700,42.050 102.700,41.350 104.673,41.350 106.647,41.350 108.620,41.350 108.487,41.887 108.353,42.423 108.220,42.960 112.520,42.960 116.820,42.960 121.120,42.960 120.187,44.737 119.253,46.513 118.320,48.290 119.140,48.290 119.960,48.290 120.780,48.290 120.900,48.290 123.630,48.340 124.300,50.680 124.820,52.500 123.960,53.350 122.300,54.830 121.967,55.103 121.633,55.377 121.300,55.650 118.620,57.860 113.040,62.460 108.920,68.280 105.270,73.450 101.100,79.840 100.580,81.740 100.220,83.020 99.390,86.010 103.830,88.050 105.370,88.760 107.580,89.890 109.720,90.980 112.200,92.250 114.550,93.450 115.720,93.900 116.456,94.225 117.246,94.408 118.050,94.440 119.790,94.440 121.050,93.220 122.550,90.440 122.810,89.950 123.160,89.280 123.550,88.440 126.110,83.440 131.980,72.160 137.550,65.980 138.978,66.546 140.454,66.981 141.960,67.280 142.183,67.320 142.407,67.360 142.630,67.400 152.430,69.220 159.860,68.690 164.720,65.820 168.530,63.570 169.580,58.910 170.350,55.500 170.540,54.670 170.720,53.870 170.910,53.210 171.243,53.083 171.577,52.957 171.910,52.830 172.193,52.427 172.477,52.023 172.760,51.620 176.507,51.620 180.253,51.620 184.000,51.620 184.290,52.157 184.580,52.693 184.870,53.230 188.393,53.230 191.917,53.230 195.440,53.230 195.773,52.693 196.107,52.157 196.440,51.620 200.733,51.620 205.027,51.620 209.320,51.620 209.320,51.840 209.320,52.060 209.320,52.280 212.797,51.717 216.273,51.153 219.750,50.590 219.750,48.100 219.750,45.610 219.750,43.120 219.417,43.063 219.083,43.007 218.750,42.950 221.443,42.950 224.137,42.950 226.830,42.950 226.830,42.350 226.830,41.750 226.830,41.150 228.830,41.150 230.830,41.150 232.830,41.150 233.130,41.170 233.430,41.190 233.730,41.210 233.867,40.927 234.003,40.643 234.140,40.360 234.497,40.123 234.922,40.010 235.350,40.040 235.755,40.025 236.157,40.111 236.520,40.290 236.657,40.573 236.793,40.857 236.930,41.140 239.347,41.140 241.763,41.140 244.180,41.140 244.480,41.160 244.780,41.180 245.080,41.200 245.217,40.917 245.353,40.633 245.490,40.350 245.847,40.113 246.272,40.000 246.700,40.030 247.105,40.015 247.507,40.101 247.870,40.280 248.007,40.563 248.143,40.847 248.280,41.130 250.697,41.130 253.113,41.130 255.530,41.130 255.830,41.150 256.130,41.170 256.430,41.190 256.567,40.907 256.703,40.623 256.840,40.340 257.181,40.106 257.587,39.987 258.000,40.000 258.405,39.985 258.807,40.071 259.170,40.250 259.307,40.533 259.443,40.817 259.580,41.100 261.997,41.100 264.413,41.100 266.830,41.100 267.130,41.120 267.430,41.140 267.730,41.160 267.867,40.877 268.003,40.593 268.140,40.310 268.497,40.073 268.922,39.960 269.350,39.990 269.755,39.975 270.157,40.061 270.520,40.240 270.657,40.523 270.793,40.807 270.930,41.090 273.347,41.090 275.763,41.090 278.180,41.090 278.480,41.110 278.780,41.130 279.080,41.150 279.217,40.867 279.353,40.583 279.490,40.300 279.847,40.063 280.272,39.950 280.700,39.980 281.105,39.965 281.507,40.051 281.870,40.230 282.007,40.513 282.143,40.797 282.280,41.080 283.680,41.080 285.080,41.080 286.480,41.080 288.410,40.197 290.340,39.313 292.270,38.430 292.270,34.763 292.270,31.097 292.270,27.430 291.460,27.063 290.650,26.697 289.840,26.330 Z " />
</svg>