<?xml version="1.0" encoding="UTF-8" standalone="no"?>
<!DOCTYPE svg PUBLIC "-//W3C//DTD SVG 20010904//EN" "http://www.w3.org/TR/2001/REC-SVG-20010904/DTD/svg10.dtd"[]>
<svg version="1.1" id="Frosty Editor v1.0.6.3" xmlns="http://www.w3.org/2000/svg" d1p1:xlink="http://www.w3.org/1999/xlink" viewBox="0 0 101 25" xmlns:d1p1="xmlns">
  <path stroke="none" fill="#ffffffff" d="M 79.553,1.277 C 79.408,1.277 79.300,1.314 79.191,1.422 79.011,1.639 78.793,1.819 78.577,2.000 78.504,2.072 78.468,2.109 78.360,2.109 77.854,2.000 77.456,2.217 77.095,2.578 76.987,2.650 76.878,2.723 76.770,2.832 76.661,2.940 76.517,2.976 76.372,2.976 48.616,2.976 48.616,2.976 48.616,2.976 48.508,2.976 48.508,2.976 48.508,2.976 48.399,3.012 48.363,2.976 48.363,2.868 48.399,2.723 48.291,2.723 48.182,2.723 47.495,2.723 46.845,2.759 46.158,2.759 44.387,2.759 42.653,2.795 40.918,2.832 40.123,2.832 39.364,2.831 38.605,2.868 38.460,2.868 38.316,2.831 38.207,2.759 37.340,2.217 37.340,2.217 37.340,2.217 37.231,2.181 37.123,2.145 37.014,2.145 36.508,2.181 36.003,2.181 35.497,2.181 34.376,2.217 33.220,2.253 32.063,2.253 30.365,2.289 28.666,2.326 26.968,2.326 26.498,2.326 26.028,2.361 25.594,2.614 25.522,2.650 25.414,2.687 25.341,2.723 24.799,3.048 24.221,3.157 23.606,3.084 23.426,3.084 23.353,3.120 23.281,3.265 21.872,5.650 21.872,5.650 21.872,5.650 21.800,5.759 21.727,5.831 21.583,5.831 21.185,5.867 20.824,5.831 20.426,5.831 19.848,5.831 19.234,5.867 18.655,5.867 18.475,5.867 18.439,5.904 18.439,6.084 18.475,6.988 18.511,7.927 18.511,8.867 18.547,9.807 18.547,10.783 18.547,11.722 18.547,11.831 18.583,11.867 18.691,11.867 19.270,11.867 19.884,11.866 20.498,11.830 20.643,11.830 20.679,11.866 20.679,12.011 20.679,12.228 20.715,12.445 20.715,12.662 20.715,12.770 20.787,12.806 20.896,12.806 21.149,12.806 21.438,12.807 21.691,12.770 21.800,12.770 21.908,12.770 22.016,12.842 22.305,13.023 22.486,13.276 22.595,13.601 22.739,14.107 22.703,14.650 22.486,15.120 22.125,15.987 21.799,16.854 21.438,17.721 20.860,19.167 20.498,20.649 20.570,22.203 20.570,22.601 20.715,22.926 21.004,23.179 21.257,23.432 21.583,23.576 21.944,23.649 22.233,23.721 22.233,23.721 22.233,24.010 22.233,24.155 22.269,24.191 22.414,24.191 23.571,24.155 24.727,24.154 25.883,24.118 26.895,24.118 27.871,24.082 28.883,24.082 28.991,24.082 29.027,24.046 29.027,23.937 29.027,23.576 29.027,23.576 29.389,23.576 29.462,23.576 29.462,23.576 29.462,23.576 29.570,23.612 29.606,23.540 29.606,23.432 29.606,22.890 29.570,22.348 29.462,21.806 29.425,21.553 29.317,21.299 29.389,21.010 29.606,19.890 29.823,18.733 30.004,17.613 30.112,16.998 30.401,16.637 31.015,16.565 31.738,16.493 32.497,16.493 33.220,16.565 34.051,16.637 34.882,16.782 35.714,16.927 36.292,17.035 36.798,16.709 37.014,16.167 37.159,15.806 37.195,15.408 37.123,15.047 37.015,14.360 36.870,13.710 37.051,13.059 37.123,12.734 37.557,12.300 37.882,12.300 38.930,12.264 39.979,12.264 41.027,12.228 41.677,12.228 42.364,12.192 43.014,12.192 43.918,12.155 44.821,12.156 45.725,12.120 45.761,12.120 45.833,12.083 45.833,12.192 45.797,12.336 45.905,12.373 45.978,12.409 46.158,12.517 46.411,12.662 46.592,12.806 46.917,13.096 47.315,13.204 47.785,13.168 48.002,13.168 48.182,13.132 48.363,12.987 48.652,12.770 48.977,12.589 49.302,12.372 49.302,12.734 49.302,12.734 49.302,12.734 49.302,13.023 49.303,13.023 49.556,13.023 81.034,13.023 81.034,13.023 81.034,13.023 81.396,13.023 81.793,13.131 82.155,12.878 83.022,12.734 83.817,12.409 84.721,12.481 84.829,12.517 84.865,12.481 84.865,12.372 84.901,12.119 84.829,11.903 84.865,11.686 84.901,11.578 84.902,11.541 85.010,11.541 86.528,11.541 86.528,11.541 86.528,11.541 86.528,9.481 86.528,7.458 86.384,5.361 84.865,5.361 84.865,5.361 84.865,5.361 84.757,5.361 84.721,5.325 84.721,5.217 84.721,4.602 84.721,4.602 84.721,4.602 84.721,4.494 84.685,4.458 84.577,4.458 84.468,4.494 84.323,4.494 84.178,4.458 83.456,4.313 82.770,4.168 82.047,4.024 81.938,3.988 81.866,3.952 81.902,3.843 81.938,3.735 81.866,3.735 81.793,3.735 81.649,3.735 81.649,3.663 81.649,3.554 81.685,3.121 81.685,2.651 81.685,2.181 81.685,2.145 81.721,2.036 81.613,2.036 81.468,2.072 81.468,1.964 81.432,1.855 81.432,1.711 81.396,1.603 81.360,1.458 81.360,1.313 81.288,1.277 81.143,1.277 Z M 79.950,1.668 C 79.997,1.668 80.045,1.670 80.095,1.675 80.348,1.711 80.637,1.675 80.926,1.675 81.070,1.675 81.251,1.964 81.179,2.072 81.179,2.108 81.143,2.109 81.106,2.109 79.155,2.109 79.155,2.109 79.155,2.109 79.345,1.793 79.618,1.670 79.950,1.668 Z M 77.998,2.470 C 81.251,2.470 81.251,2.470 81.251,2.470 81.396,2.470 81.468,2.506 81.432,2.651 81.432,2.868 81.432,2.868 81.432,2.868 81.432,2.976 81.396,3.012 81.287,3.012 77.240,3.012 77.240,3.012 77.240,3.012 77.457,2.832 77.637,2.687 77.818,2.506 77.854,2.470 77.926,2.470 77.998,2.470 Z M 37.014,2.940 C 37.159,2.940 37.231,2.976 37.340,3.048 37.991,3.482 37.991,3.482 37.991,3.482 38.244,3.662 38.532,3.698 38.822,3.698 40.231,3.662 41.641,3.663 43.050,3.626 44.532,3.590 46.014,3.591 47.495,3.554 47.676,3.554 47.821,3.698 47.821,3.879 47.821,4.891 47.821,4.891 47.821,4.891 47.821,4.964 47.784,5.000 47.676,5.000 47.495,5.000 47.351,5.000 47.243,4.819 47.026,4.494 46.737,4.422 46.375,4.458 45.508,4.494 44.641,4.494 43.773,4.494 42.725,4.494 41.641,4.530 40.593,4.530 40.412,4.530 40.412,4.494 40.448,4.313 40.556,3.952 40.557,3.952 40.159,3.952 37.774,4.024 35.425,4.060 33.076,4.097 32.570,4.133 32.063,4.133 31.557,4.133 31.413,4.133 31.377,4.169 31.341,4.277 31.051,5.361 30.726,6.446 30.401,7.530 30.365,7.675 30.401,7.674 30.509,7.674 32.678,7.638 34.883,7.602 37.087,7.566 37.882,7.530 38.677,7.530 39.472,7.530 39.617,7.530 39.689,7.457 39.725,7.313 39.797,6.879 39.906,6.481 40.014,6.048 40.051,5.903 40.087,5.867 40.231,5.867 41.821,5.831 43.448,5.831 45.074,5.795 45.255,5.759 45.544,5.686 45.652,5.795 45.761,5.939 45.688,6.192 45.688,6.409 45.688,7.060 45.688,7.060 45.688,7.060 45.688,7.168 45.653,7.205 45.544,7.205 44.605,7.205 43.629,7.241 42.653,7.241 41.858,7.241 41.026,7.277 40.195,7.277 40.087,7.277 40.050,7.313 40.050,7.421 40.050,7.674 40.050,7.963 40.086,8.216 40.086,8.324 40.051,8.361 39.942,8.361 39.256,8.361 38.605,8.397 37.918,8.397 36.075,8.397 34.232,8.433 32.389,8.469 31.052,8.506 29.678,8.505 28.341,8.541 27.510,8.541 27.510,8.541 27.510,8.541 28.088,7.132 28.703,5.759 29.281,4.349 28.160,4.349 28.160,4.349 28.160,4.349 28.051,4.349 28.052,4.422 28.016,4.494 26.606,7.855 26.606,7.855 26.606,7.855 26.534,8.072 26.425,8.253 26.353,8.469 26.317,8.542 26.281,8.577 26.209,8.577 25.920,8.577 25.920,8.578 26.028,8.325 26.570,7.060 27.112,5.759 27.654,4.494 27.691,4.422 27.690,4.386 27.726,4.313 26.714,4.313 26.714,4.313 26.714,4.313 26.570,4.313 26.570,4.422 26.534,4.494 25.991,5.759 25.486,7.024 24.944,8.289 24.835,8.578 24.835,8.578 24.474,8.541 25.052,7.132 25.667,5.723 26.245,4.313 25.197,4.313 25.197,4.313 25.197,4.313 25.088,4.313 25.088,4.386 25.052,4.458 24.510,5.759 24.004,7.024 23.462,8.289 23.389,8.469 23.281,8.541 23.064,8.541 22.667,8.541 22.667,8.542 22.667,8.144 22.667,7.566 22.667,6.951 22.631,6.337 22.631,6.265 22.667,6.229 22.703,6.156 23.136,5.433 23.607,4.747 24.040,4.024 24.113,3.952 24.149,3.916 24.257,3.916 24.691,3.952 25.088,3.879 25.449,3.662 25.702,3.518 25.992,3.446 26.245,3.301 26.606,3.084 27.040,3.120 27.437,3.120 29.353,3.084 31.232,3.048 33.148,3.012 34.449,3.012 35.713,2.976 37.014,2.940 Z M 48.436,3.410 C 48.652,3.410 48.652,3.410 48.652,3.410 81.106,3.410 81.106,3.410 81.106,3.410 81.359,3.410 81.432,3.482 81.360,3.735 81.360,3.807 81.323,3.807 81.287,3.807 81.106,3.807 81.106,3.807 81.106,3.807 49.556,3.807 49.556,3.807 49.556,3.807 49.447,3.807 49.266,3.735 49.302,3.988 49.302,4.060 49.013,4.060 48.941,3.988 48.796,3.807 48.616,3.627 48.436,3.410 Z M 39.978,4.349 C 40.086,4.349 40.086,4.349 40.086,4.349 39.544,6.626 39.544,6.626 39.544,6.626 39.508,6.807 39.509,6.987 39.400,7.096 39.292,7.204 39.075,7.132 38.930,7.132 38.244,7.132 37.593,7.169 36.906,7.169 35.027,7.205 33.111,7.240 31.196,7.277 30.870,7.277 30.870,7.277 30.870,7.277 31.015,6.807 31.124,6.337 31.305,5.904 31.449,5.506 31.558,5.072 31.666,4.675 31.702,4.530 31.774,4.494 31.919,4.494 32.750,4.494 33.581,4.458 34.413,4.458 36.256,4.422 38.135,4.385 39.978,4.349 Z M 48.110,4.421 C 48.399,4.674 48.689,4.928 48.978,5.253 48.218,5.253 48.218,5.253 48.218,5.253 48.146,5.253 48.110,5.216 48.110,5.144 Z M 39.617,4.602 C 39.219,4.602 38.786,4.639 38.388,4.639 38.280,4.639 38.280,4.674 38.243,4.747 38.063,5.433 37.882,6.084 37.701,6.734 37.665,6.843 37.702,6.879 37.810,6.879 38.460,6.879 38.460,6.879 38.460,6.879 38.641,6.879 38.858,6.879 39.039,6.843 39.183,6.879 39.219,6.807 39.256,6.698 39.436,6.048 39.581,5.397 39.762,4.747 39.798,4.602 39.725,4.602 39.617,4.602 Z M 50.315,4.602 C 81.106,4.602 81.106,4.602 81.106,4.602 81.251,4.602 81.287,4.638 81.287,4.783 81.287,12.048 81.287,12.048 81.287,12.048 81.287,12.192 81.215,12.228 81.070,12.228 65.675,12.228 65.675,12.228 65.675,12.228 60.579,12.228 55.446,12.228 50.387,12.264 50.170,12.264 50.134,12.228 50.134,12.011 50.134,4.819 50.134,4.819 50.134,4.819 50.134,4.639 50.134,4.602 50.315,4.602 Z M 38.084,4.639 C 37.648,4.643 37.243,4.675 36.870,4.675 36.726,4.675 36.689,4.747 36.653,4.855 36.472,5.506 36.292,6.120 36.111,6.770 36.075,6.879 36.075,6.915 36.220,6.915 37.485,6.915 37.485,6.915 37.485,6.915 37.557,6.915 37.593,6.879 37.629,6.770 37.738,6.301 37.846,5.867 37.955,5.433 38.027,5.181 38.099,4.928 38.171,4.639 38.142,4.639 38.113,4.638 38.084,4.639 Z M 36.292,4.675 C 35.894,4.711 35.461,4.711 35.063,4.711 34.955,4.711 34.955,4.747 34.919,4.819 34.738,5.470 34.557,6.157 34.377,6.807 34.340,6.916 34.376,6.951 34.485,6.951 35.135,6.951 35.135,6.951 35.135,6.951 35.714,6.951 35.714,6.951 35.714,6.951 35.822,6.951 35.858,6.916 35.894,6.807 36.039,6.157 36.220,5.470 36.400,4.819 36.436,4.711 36.400,4.675 36.292,4.675 Z M 34.665,4.711 C 34.268,4.711 33.835,4.747 33.437,4.747 33.329,4.747 33.328,4.783 33.292,4.855 33.112,5.542 32.931,6.193 32.750,6.843 32.714,6.988 32.750,6.988 32.858,6.988 33.473,6.988 33.473,6.988 33.473,6.988 33.654,6.988 33.870,6.952 34.087,6.988 34.232,6.988 34.268,6.916 34.304,6.807 34.448,6.157 34.629,5.542 34.810,4.891 34.846,4.711 34.810,4.711 34.665,4.711 Z M 33.076,4.783 C 32.642,4.783 32.244,4.819 31.811,4.819 31.702,4.819 31.702,4.855 31.666,4.927 31.485,5.578 31.305,6.229 31.124,6.879 31.088,7.024 31.123,7.024 31.232,7.024 31.847,7.024 31.847,7.024 31.847,7.024 32.497,7.024 32.497,7.024 32.497,7.024 32.605,7.024 32.641,6.988 32.678,6.879 32.858,6.229 33.003,5.578 33.184,4.891 33.220,4.783 33.184,4.783 33.076,4.783 Z M 50.676,4.819 C 50.568,4.819 50.531,4.855 50.531,4.963 50.531,5.867 50.531,5.867 50.531,5.867 50.495,6.048 50.567,6.084 50.748,6.084 65.603,6.084 65.603,6.084 65.603,6.084 80.384,6.084 80.384,6.084 80.384,6.084 80.528,6.084 80.528,6.084 80.528,6.084 80.637,6.120 80.673,6.084 80.673,5.976 80.673,5.650 80.637,5.361 80.673,5.072 80.673,4.855 80.637,4.819 80.420,4.819 50.785,4.819 50.785,4.819 50.785,4.819 Z M 46.479,4.850 C 46.710,4.857 46.868,4.995 47.026,5.217 46.665,5.217 46.339,5.217 45.942,5.108 45.833,5.108 45.689,5.036 45.616,5.217 45.616,5.253 45.508,5.253 45.436,5.253 44.604,5.289 43.737,5.289 42.906,5.289 42.002,5.289 41.135,5.325 40.231,5.325 40.159,5.325 40.159,5.325 40.159,5.325 40.159,5.289 40.159,5.289 40.159,5.289 40.231,4.927 40.267,4.927 40.629,4.927 42.472,4.927 44.351,4.892 46.194,4.855 46.375,4.855 46.375,4.855 46.375,4.855 46.411,4.851 46.446,4.849 46.479,4.850 Z M 26.929,4.868 C 26.959,4.866 26.995,4.873 27.040,4.891 26.570,5.976 26.137,7.060 25.667,8.108 25.631,8.253 25.558,8.361 25.522,8.505 25.486,8.650 25.377,8.722 25.233,8.650 25.449,8.108 25.667,7.602 25.883,7.060 26.173,6.373 26.462,5.723 26.751,5.036 26.805,4.955 26.839,4.873 26.929,4.868 Z M 28.458,4.876 C 28.468,4.878 28.476,4.882 28.485,4.891 28.558,4.928 28.485,4.964 28.485,5.000 27.979,6.193 27.510,7.349 27.004,8.541 27.004,8.614 26.967,8.650 26.895,8.650 26.678,8.650 26.787,8.542 26.823,8.505 27.076,7.891 27.329,7.241 27.582,6.626 27.799,6.084 28.052,5.578 28.269,5.036 28.269,4.964 28.269,4.891 28.377,4.891 28.404,4.891 28.431,4.871 28.458,4.876 Z M 82.117,4.879 C 82.146,4.878 82.182,4.882 82.227,4.891 82.770,5.036 83.348,5.144 83.890,5.253 84.070,5.253 84.070,5.325 84.070,5.469 84.070,11.035 84.070,11.035 84.070,11.035 84.070,11.216 84.143,11.469 84.034,11.613 83.962,11.758 83.673,11.722 83.492,11.758 83.023,11.867 82.553,11.975 82.047,12.084 82.047,12.011 82.046,11.939 82.010,11.903 82.010,5.072 82.010,5.072 82.010,5.072 82.010,4.937 82.031,4.882 82.117,4.879 Z M 39.436,4.891 C 39.292,5.433 39.147,5.940 39.002,6.482 39.002,6.590 38.930,6.590 38.858,6.590 38.171,6.590 38.171,6.590 38.171,6.590 38.063,6.590 38.063,6.554 38.099,6.446 38.243,5.976 38.388,5.506 38.497,5.036 38.533,4.964 38.569,4.927 38.641,4.927 38.894,4.927 39.147,4.891 39.436,4.891 Z M 25.427,4.909 C 25.454,4.912 25.486,4.918 25.522,4.927 25.414,5.217 25.269,5.470 25.161,5.795 24.763,6.735 24.401,7.638 24.004,8.577 24.004,8.614 23.968,8.650 23.968,8.686 23.932,8.758 23.859,8.758 23.787,8.722 23.715,8.686 23.751,8.614 23.787,8.577 24.293,7.385 24.799,6.229 25.269,5.036 25.296,4.928 25.344,4.901 25.427,4.909 Z M 37.774,4.927 C 37.666,5.469 37.521,5.976 37.413,6.446 37.413,6.554 37.376,6.590 37.268,6.590 36.581,6.590 36.581,6.590 36.581,6.590 36.473,6.590 36.436,6.590 36.472,6.482 36.617,6.012 36.726,5.542 36.870,5.072 36.870,5.000 36.906,4.963 36.978,4.963 37.231,4.963 37.521,4.927 37.774,4.927 Z M 35.998,4.986 C 36.052,4.986 36.066,5.027 36.039,5.108 35.931,5.578 35.786,6.084 35.678,6.554 35.678,6.626 35.641,6.662 35.533,6.662 35.207,6.662 35.207,6.662 35.207,6.662 34.738,6.662 34.738,6.662 34.846,6.228 34.954,5.903 35.027,5.542 35.135,5.181 35.172,5.109 35.172,5.036 35.280,5.036 35.497,5.036 35.713,5.000 35.930,5.000 35.957,4.991 35.980,4.986 35.998,4.986 Z M 34.365,5.000 C 34.381,5.000 34.397,5.000 34.413,5.000 34.304,5.542 34.160,6.048 34.051,6.554 34.015,6.626 33.979,6.662 33.906,6.662 33.184,6.662 33.184,6.662 33.184,6.662 33.111,6.662 33.076,6.626 33.112,6.554 33.256,6.084 33.364,5.614 33.509,5.144 33.509,5.072 33.545,5.036 33.618,5.036 33.855,5.036 34.123,5.004 34.365,5.000 Z M 32.745,5.059 C 32.800,5.059 32.813,5.099 32.786,5.181 32.678,5.651 32.533,6.120 32.425,6.590 32.389,6.698 32.353,6.734 32.244,6.734 31.919,6.734 31.919,6.734 31.919,6.734 31.774,6.698 31.594,6.807 31.485,6.734 31.449,6.662 31.557,6.446 31.593,6.301 31.666,5.940 31.774,5.614 31.847,5.289 31.883,5.180 31.919,5.108 32.063,5.108 32.280,5.108 32.461,5.072 32.678,5.072 32.705,5.063 32.727,5.059 32.745,5.059 Z M 51.254,5.108 C 80.131,5.108 80.131,5.108 80.131,5.108 80.348,5.108 80.384,5.145 80.384,5.361 80.348,5.795 80.348,5.795 79.950,5.795 65.603,5.795 65.603,5.795 65.603,5.795 51.073,5.795 51.073,5.795 51.073,5.795 50.857,5.795 50.821,5.723 50.821,5.542 50.821,5.109 50.820,5.108 51.254,5.108 Z M 83.058,5.325 C 82.625,5.325 82.263,5.687 82.263,6.120 82.263,6.554 82.588,6.915 83.058,6.915 83.492,6.915 83.854,6.554 83.854,6.120 83.890,5.687 83.528,5.325 83.058,5.325 Z M 83.045,5.578 C 83.049,5.578 83.054,5.578 83.058,5.578 83.347,5.578 83.564,5.831 83.564,6.084 83.564,6.373 83.347,6.590 83.058,6.590 82.769,6.590 82.552,6.373 82.552,6.084 82.552,5.800 82.762,5.585 83.045,5.578 Z M 48.833,5.723 C 48.978,5.723 49.014,5.759 49.014,5.904 49.014,10.674 49.014,10.674 49.014,10.674 49.014,10.819 48.978,10.855 48.833,10.855 48.038,10.855 47.279,10.891 46.484,10.891 46.303,10.891 46.086,10.855 46.158,11.180 46.086,11.108 46.122,11.035 46.122,10.927 46.122,5.976 46.122,5.976 46.122,5.976 46.122,5.795 46.158,5.759 46.339,5.759 47.170,5.759 48.002,5.759 48.833,5.723 Z M 85.046,6.156 C 85.588,6.156 85.588,6.156 85.588,6.156 85.733,6.156 85.769,6.192 85.769,6.337 85.769,8.469 85.769,8.469 85.769,8.469 85.769,9.156 85.733,9.879 85.805,10.565 85.805,10.710 85.769,10.746 85.624,10.746 85.082,10.746 85.082,10.746 85.082,10.746 84.937,10.746 84.901,10.710 84.901,10.565 84.901,6.734 84.901,6.734 84.901,6.734 84.901,6.337 84.901,6.337 84.901,6.337 84.865,6.192 84.901,6.156 85.046,6.156 Z M 19.307,6.569 C 20.230,6.569 20.230,6.569 20.230,6.569 20.230,11.112 20.230,11.112 20.230,11.112 19.307,11.112 19.307,11.112 19.307,11.112 Z M 21.520,6.643 C 22.227,6.643 22.227,6.643 22.227,6.643 22.227,10.775 22.227,10.775 22.227,10.775 21.520,10.775 21.520,10.775 21.520,10.775 Z M 50.748,6.770 C 50.603,6.770 50.567,6.770 50.567,6.951 50.567,7.240 50.603,7.494 50.567,7.783 50.531,8.000 50.604,8.035 50.821,8.035 80.456,8.035 80.456,8.035 80.456,8.035 80.528,8.035 80.528,8.035 80.528,8.035 80.673,8.072 80.709,8.035 80.709,7.855 80.709,7.566 80.673,7.277 80.709,6.988 80.709,6.807 80.637,6.770 80.456,6.770 65.639,6.770 65.639,6.770 65.639,6.770 55.555,6.770 55.555,6.770 55.555,6.770 Z M 51.290,7.060 C 80.167,7.060 80.167,7.060 80.167,7.060 80.384,7.060 80.420,7.096 80.420,7.313 80.384,7.746 80.384,7.747 79.986,7.747 65.603,7.747 65.603,7.747 65.603,7.747 51.073,7.747 51.073,7.747 51.073,7.747 50.893,7.747 50.857,7.674 50.857,7.493 50.857,7.060 50.856,7.060 51.290,7.060 Z M 83.038,7.602 C 82.614,7.612 82.263,7.934 82.263,8.361 82.263,8.831 82.625,9.192 83.058,9.192 83.492,9.192 83.854,8.830 83.854,8.397 83.854,7.963 83.492,7.602 83.058,7.602 83.051,7.602 83.045,7.602 83.038,7.602 Z M 40.468,7.670 C 45.548,7.670 45.548,7.670 45.548,7.670 45.548,8.377 45.548,8.377 45.548,8.377 40.468,8.377 40.468,8.377 40.468,8.377 Z M 83.045,7.891 C 83.049,7.891 83.054,7.891 83.058,7.891 83.347,7.891 83.564,8.108 83.564,8.397 83.564,8.686 83.311,8.903 83.058,8.903 82.769,8.903 82.552,8.650 82.552,8.397 82.552,8.112 82.762,7.898 83.045,7.891 Z M 20.547,8.222 C 21.170,8.222 21.170,8.222 21.170,8.222 21.170,9.821 21.170,9.821 21.170,9.821 20.547,9.821 20.547,9.821 20.547,9.821 Z M 45.457,8.722 C 45.690,8.722 45.637,8.990 45.637,8.990 45.637,8.990 45.709,9.228 45.420,9.228 22.919,9.590 22.919,9.590 22.919,9.590 22.739,9.590 22.703,9.554 22.703,9.373 22.703,9.048 22.703,9.048 23.028,9.048 Z M 50.676,8.758 C 50.568,8.758 50.531,8.794 50.531,8.903 50.531,9.192 50.567,9.481 50.531,9.770 50.531,9.987 50.604,10.023 50.785,10.023 80.456,10.023 80.456,10.023 80.456,10.023 80.564,10.023 80.564,10.023 80.564,10.023 80.673,10.023 80.709,9.988 80.709,9.879 80.709,9.554 80.673,9.265 80.709,8.976 80.709,8.795 80.637,8.758 80.456,8.758 65.639,8.758 65.639,8.758 65.639,8.758 50.785,8.758 50.785,8.758 50.785,8.758 Z M 51.254,9.012 C 80.131,9.012 80.131,9.012 80.131,9.012 80.348,9.012 80.384,9.047 80.384,9.264 80.384,9.698 80.384,9.698 79.950,9.698 65.603,9.698 65.603,9.698 65.603,9.698 60.760,9.698 55.917,9.698 51.001,9.662 50.821,9.662 50.785,9.626 50.785,9.445 50.821,9.011 50.784,9.012 51.254,9.012 Z M 40.468,9.625 C 45.548,9.625 45.548,9.625 45.548,9.625 45.548,10.483 45.548,10.483 45.548,10.483 40.468,10.509 40.468,10.509 40.468,10.509 Z M 39.978,9.734 C 40.051,9.734 40.086,9.771 40.086,9.879 40.086,10.783 40.086,10.783 40.086,10.783 40.086,10.891 40.159,10.927 40.267,10.927 42.002,10.891 43.737,10.891 45.472,10.855 45.616,10.855 45.761,10.819 45.725,11.035 45.689,11.180 45.689,11.216 45.544,11.216 44.243,11.216 42.978,11.216 41.713,11.252 40.484,11.252 39.219,11.288 37.991,11.288 37.557,11.288 37.196,11.433 36.906,11.758 36.798,11.433 36.617,11.252 36.292,11.288 36.003,11.324 35.822,11.541 35.750,11.830 35.244,11.288 34.593,11.180 33.870,11.216 33.039,11.252 32.244,11.252 31.413,11.252 30.943,11.252 30.546,11.397 30.220,11.722 30.040,11.867 29.895,11.939 29.678,11.903 29.425,11.903 29.425,11.903 29.425,11.903 29.497,11.686 29.534,11.505 29.534,11.288 29.534,11.143 29.497,11.107 29.353,11.107 27.907,11.107 27.907,11.107 27.907,11.107 27.799,11.107 27.726,11.144 27.726,10.999 27.726,10.855 27.835,10.891 27.907,10.891 29.208,10.855 30.473,10.855 31.774,10.819 33.473,10.819 35.208,10.782 36.942,10.746 37.629,10.746 37.629,10.746 37.629,10.746 37.810,10.782 37.810,10.710 37.810,10.565 37.774,10.348 37.774,10.132 37.774,9.915 37.738,9.807 37.774,9.770 37.882,9.770 38.569,9.770 39.292,9.734 39.978,9.734 Z M 37.045,9.833 C 37.152,9.831 37.240,9.916 37.242,10.024 37.245,10.183 37.245,10.183 37.245,10.183 37.246,10.290 37.161,10.378 37.053,10.380 22.744,10.606 22.744,10.606 22.744,10.606 22.729,10.606 22.716,10.601 22.702,10.598 22.695,10.597 22.686,10.597 22.679,10.596 22.690,10.596 22.690,10.596 22.690,10.596 22.609,10.574 22.548,10.503 22.547,10.415 22.544,10.256 22.544,10.256 22.544,10.256 22.542,10.149 22.628,10.061 22.735,10.059 Z M 83.038,10.060 C 82.614,10.071 82.263,10.428 82.263,10.855 82.263,11.288 82.625,11.649 83.058,11.649 83.492,11.649 83.854,11.288 83.854,10.855 83.854,10.421 83.492,10.060 83.058,10.060 83.051,10.060 83.045,10.060 83.038,10.060 Z M 83.045,10.313 C 83.049,10.312 83.054,10.313 83.058,10.313 83.311,10.313 83.564,10.566 83.564,10.819 83.564,11.072 83.347,11.325 83.058,11.325 82.769,11.361 82.552,11.108 82.552,10.819 82.552,10.534 82.762,10.319 83.045,10.313 Z M 65.675,10.710 C 61.627,10.710 57.543,10.710 53.495,10.746 50.748,10.746 50.748,10.746 50.748,10.746 50.603,10.746 50.567,10.782 50.567,10.927 50.567,11.722 50.567,11.722 50.567,11.722 50.567,12.011 50.568,12.011 50.857,12.011 80.456,12.011 80.456,12.011 80.456,12.011 80.564,12.011 80.564,12.011 80.564,12.011 80.673,12.047 80.709,11.975 80.709,11.867 80.709,10.999 80.709,10.999 80.709,10.999 80.745,10.783 80.673,10.710 80.456,10.710 Z M 24.510,10.999 C 24.221,11.831 23.895,12.662 23.642,13.529 23.462,12.951 23.137,12.517 22.631,12.192 22.414,12.047 22.161,11.939 21.908,11.975 21.763,12.011 21.727,11.975 21.727,11.830 21.727,11.180 21.727,11.180 21.727,11.180 21.727,11.072 21.727,11.035 21.835,11.035 22.703,11.035 23.606,11.035 24.510,10.999 Z M 51.327,10.999 C 80.203,10.999 80.203,10.999 80.203,10.999 80.420,10.999 80.456,11.035 80.456,11.252 80.420,11.686 80.420,11.686 80.022,11.686 65.639,11.686 65.639,11.686 65.639,11.686 51.109,11.686 51.109,11.686 51.109,11.686 50.929,11.686 50.893,11.613 50.893,11.433 50.893,10.999 50.893,10.999 51.327,10.999 Z M 47.038,11.562 C 47.059,11.564 47.080,11.568 47.098,11.577 47.206,11.614 47.062,11.722 47.062,11.794 47.062,11.866 47.026,11.902 47.026,12.011 46.918,11.939 46.809,11.866 46.701,11.830 46.628,11.794 46.665,11.722 46.665,11.649 46.701,11.541 46.773,11.577 46.809,11.577 46.845,11.577 46.845,11.577 46.845,11.577 46.899,11.577 46.974,11.557 47.038,11.562 Z M 48.539,11.568 C 48.562,11.568 48.580,11.577 48.580,11.613 48.616,11.650 48.616,11.722 48.544,11.758 48.435,11.830 48.327,11.902 48.182,12.011 48.182,11.830 48.146,11.722 48.037,11.577 48.472,11.577 48.472,11.577 48.472,11.577 48.490,11.577 48.517,11.568 48.539,11.568 Z M 28.377,11.577 C 28.991,11.577 28.991,11.577 28.991,11.577 28.991,11.613 28.991,11.613 28.991,11.613 28.377,11.613 28.377,11.613 28.377,11.613 28.124,11.650 27.835,11.649 27.582,11.649 26.678,11.649 26.678,11.649 26.678,11.649 26.678,11.613 26.678,11.613 26.678,11.613 27.582,11.613 27.582,11.613 27.582,11.613 27.835,11.613 28.124,11.577 28.377,11.577 Z M 36.256,11.686 C 36.328,11.686 36.400,11.758 36.400,11.830 36.400,11.902 36.328,11.975 36.256,11.975 36.183,11.975 36.111,11.902 36.111,11.830 36.111,11.758 36.183,11.722 36.256,11.686 Z M 25.305,11.735 C 25.348,11.733 25.386,11.740 25.413,11.758 25.449,11.794 25.449,11.831 25.449,11.867 25.449,12.120 25.449,12.120 25.449,12.120 25.485,12.589 25.739,12.842 26.209,12.842 27.004,12.806 27.835,12.807 28.666,12.770 29.317,12.770 29.317,12.770 29.317,12.770 29.425,12.770 29.461,12.806 29.425,12.878 29.280,13.493 29.353,14.107 29.642,14.685 29.245,14.649 28.991,14.830 28.883,15.156 28.883,15.445 29.064,15.734 29.317,15.770 29.642,15.842 29.895,15.661 30.004,15.228 30.221,15.408 30.473,15.553 30.762,15.662 29.787,15.951 29.317,16.601 29.172,17.541 28.991,18.770 28.774,20.035 28.521,21.264 28.485,21.336 28.485,21.371 28.521,21.408 28.702,21.769 28.702,22.203 28.775,22.600 28.775,22.673 28.774,22.672 28.702,22.672 28.413,22.672 28.413,22.672 28.413,22.672 28.341,22.672 28.233,22.637 28.233,22.745 28.233,22.817 28.160,22.781 28.124,22.781 27.040,22.817 25.955,22.817 24.871,22.853 24.365,22.853 23.824,22.962 23.318,22.853 22.884,22.781 22.450,22.854 22.016,22.745 21.618,22.637 21.438,22.420 21.438,22.022 21.402,20.468 21.799,19.059 22.377,17.649 22.703,16.854 23.028,16.023 23.390,15.228 23.534,14.975 23.751,14.794 23.932,14.577 24.004,14.469 24.076,14.360 24.112,14.252 24.402,13.457 24.691,12.698 24.980,11.903 25.007,11.822 25.177,11.740 25.305,11.735 Z M 47.676,11.758 C 47.748,11.794 47.821,11.831 47.821,11.903 47.821,11.975 47.748,12.011 47.676,12.048 47.568,12.048 47.496,11.975 47.532,11.903 47.532,11.831 47.604,11.758 47.676,11.758 Z M 34.186,12.005 C 34.853,12.012 35.422,12.571 35.388,13.385 35.388,13.601 35.388,13.601 35.388,13.601 35.352,13.890 35.280,14.071 35.027,14.216 34.159,14.722 34.196,14.722 33.184,14.758 32.678,14.758 32.678,14.758 32.678,14.758 32.858,14.650 32.823,14.541 32.750,14.397 32.172,13.638 32.316,12.879 32.678,12.120 32.714,12.047 32.786,12.048 32.858,12.048 33.256,12.048 33.654,12.047 34.051,12.011 34.096,12.006 34.142,12.005 34.186,12.005 Z M 31.622,12.159 C 31.654,12.163 31.693,12.174 31.738,12.192 31.521,12.698 31.413,13.240 31.449,13.855 31.269,13.566 31.268,13.240 31.341,12.914 31.449,12.372 31.449,12.372 31.449,12.372 31.476,12.210 31.523,12.149 31.622,12.159 Z M 36.075,12.445 C 36.256,12.445 36.256,12.445 36.256,12.445 36.364,12.445 36.400,12.445 36.364,12.553 36.328,12.698 36.328,12.843 36.256,12.987 36.183,12.806 36.147,12.662 36.075,12.445 Z M 30.473,12.662 C 30.365,13.493 30.545,14.216 31.160,14.794 30.690,14.686 30.401,14.396 30.256,13.963 30.112,13.529 30.112,13.059 30.473,12.662 Z M 36.220,14.143 C 36.256,14.649 36.400,15.083 36.292,15.553 36.219,15.951 36.147,15.987 35.750,15.950 35.316,15.878 34.846,15.842 34.413,15.770 34.340,15.770 34.304,15.770 34.304,15.734 34.810,15.408 35.352,15.083 35.858,14.758 36.075,14.614 36.075,14.360 36.220,14.143 Z M 29.534,15.083 C 29.570,15.083 29.569,15.119 29.606,15.156 29.569,15.228 29.570,15.264 29.498,15.264 29.461,15.300 29.425,15.228 29.425,15.192 29.425,15.119 29.497,15.083 29.534,15.083 Z " />
</svg>