<?xml version="1.0" encoding="UTF-8" standalone="no"?>
<!DOCTYPE svg PUBLIC "-//W3C//DTD SVG 20010904//EN" "http://www.w3.org/TR/2001/REC-SVG-20010904/DTD/svg10.dtd"[]>
<svg version="1.1" id="Frosty Editor v1.0.6.3" xmlns="http://www.w3.org/2000/svg" d1p1:xlink="http://www.w3.org/1999/xlink" viewBox="0 0 101 25" xmlns:d1p1="xmlns">
  <path stroke="none" fill="#ffffffff" d="M 54.367,0.283 C 54.367,0.803 54.367,0.803 54.367,0.803 52.280,0.803 52.280,0.803 52.280,0.803 52.280,0.317 52.280,0.317 52.280,0.317 49.957,0.317 49.957,0.317 49.957,0.317 49.957,0.751 49.957,0.751 49.957,0.751 49.828,0.824 49.828,0.824 49.828,0.824 44.266,0.824 44.266,0.824 44.266,0.824 44.199,0.575 44.199,0.575 44.199,0.575 42.637,0.352 42.637,0.352 42.637,0.352 39.957,0.352 39.957,0.352 39.957,0.352 39.486,0.623 39.486,0.623 39.486,0.623 39.486,1.223 39.486,1.223 39.486,1.223 39.367,1.216 39.179,1.200 38.947,1.135 38.910,1.124 38.910,1.124 38.910,1.124 38.053,1.124 38.053,1.124 38.053,1.124 37.797,1.379 37.797,1.379 37.797,1.379 37.797,2.448 37.797,2.448 37.797,2.448 37.194,2.448 37.194,2.448 37.194,2.448 33.836,2.448 33.836,2.448 33.836,2.448 33.830,2.448 33.830,2.448 33.830,2.448 33.830,2.448 33.561,2.464 33.285,2.639 33.047,2.790 32.815,3.140 32.647,3.587 32.627,3.601 31.084,4.693 30.162,6.352 29.698,7.187 29.389,8.178 29.547,9.239 29.704,10.294 30.325,11.393 31.625,12.440 31.637,12.451 32.075,12.858 32.045,13.702 27.699,20.471 27.699,20.471 27.699,20.471 27.691,20.483 27.691,20.483 27.691,20.483 27.691,20.483 27.551,20.758 27.469,21.118 27.387,21.475 27.348,21.952 27.629,22.352 27.627,22.354 27.627,22.354 27.627,22.354 27.631,22.360 27.631,22.360 27.631,22.360 28.004,22.913 28.004,22.913 28.004,22.913 32.471,24.739 32.471,24.739 32.471,24.739 32.510,24.744 32.510,24.744 32.510,24.744 32.510,24.744 32.987,24.811 33.451,24.549 33.891,24.301 34.255,23.700 34.226,22.696 39.008,15.373 39.008,15.373 39.008,15.373 39.167,15.381 40.960,15.464 42.916,15.432 43.142,15.428 43.351,15.407 43.545,15.372 43.945,15.334 44.315,15.191 44.627,14.972 44.831,14.849 45.004,14.714 45.142,14.577 45.567,14.156 45.719,13.715 45.719,13.715 45.723,13.702 45.723,13.702 45.723,13.702 46.027,12.389 46.027,12.389 46.027,12.389 46.392,11.863 46.804,11.655 46.924,11.637 46.929,11.635 46.929,11.635 46.929,11.635 46.930,11.635 46.934,11.635 46.936,11.635 46.938,11.635 46.938,11.635 46.938,11.635 46.953,11.634 46.981,11.632 47.019,11.631 47.096,11.628 47.212,11.625 47.357,11.623 47.649,11.619 48.063,11.617 48.559,11.616 49.550,11.613 50.865,11.616 52.178,11.620 54.804,11.627 57.422,11.639 57.422,11.639 57.427,11.639 58.184,11.660 59.012,11.344 59.843,11.027 60.775,10.329 61.025,8.975 61.031,8.950 61.031,8.950 61.031,8.950 61.031,8.338 61.031,8.338 61.031,8.338 61.238,8.338 61.238,8.338 61.238,8.338 61.238,7.713 61.238,7.713 61.238,7.713 62.873,7.713 62.873,7.713 62.873,7.713 62.873,8.315 62.873,8.315 62.873,8.315 66.318,8.315 66.318,8.315 66.318,8.315 66.318,7.069 66.318,7.069 66.318,7.069 70.149,7.069 70.149,7.069 70.149,7.069 70.149,6.801 70.149,6.801 70.149,6.801 74.690,6.801 74.690,6.801 74.690,6.801 76.193,5.932 76.193,5.932 76.193,5.932 76.193,4.977 76.193,4.977 76.193,4.977 76.193,4.256 76.193,4.256 76.193,4.256 76.193,3.301 76.193,3.301 76.193,3.301 74.690,2.432 74.690,2.432 74.690,2.432 70.149,2.432 70.149,2.432 70.149,2.432 70.149,2.164 70.149,2.164 70.149,2.164 66.027,2.164 66.027,2.164 66.027,2.164 66.027,1.711 66.027,1.711 66.027,1.711 65.674,1.711 65.674,1.711 65.674,1.711 65.674,0.600 65.674,0.600 65.674,0.600 65.267,0.366 65.267,0.366 65.267,0.366 58.156,0.366 58.156,0.366 58.156,0.366 58.156,0.590 58.156,0.590 58.156,0.590 56.793,0.694 56.793,0.694 56.793,0.694 56.793,0.283 56.793,0.283 56.793,0.283 Z M 54.949,0.866 C 56.211,0.866 56.211,0.866 56.211,0.866 56.211,0.947 56.211,0.947 56.211,0.947 56.537,1.274 56.537,1.274 56.537,1.274 56.537,3.184 56.537,3.184 56.537,3.184 56.211,3.510 56.211,3.510 56.211,3.510 56.211,3.592 56.211,3.592 56.211,3.592 54.949,3.592 54.949,3.592 54.949,3.592 54.949,3.295 54.949,3.295 54.949,3.295 54.617,3.104 54.617,3.104 54.617,3.104 54.617,1.354 54.617,1.354 54.617,1.354 54.949,1.162 54.949,1.162 54.949,1.162 Z M 50.539,0.899 C 51.697,0.899 51.697,0.899 51.697,0.899 51.697,1.069 51.697,1.069 51.697,1.069 52.002,1.373 52.002,1.373 52.002,1.373 52.002,3.085 52.002,3.085 52.002,3.085 51.697,3.389 51.697,3.389 51.697,3.389 51.697,3.559 51.697,3.559 51.697,3.559 50.539,3.559 50.539,3.559 50.539,3.559 50.539,3.372 50.539,3.372 50.539,3.372 50.039,3.083 50.039,3.083 50.039,3.083 50.039,1.375 50.039,1.375 50.039,1.375 50.539,1.086 50.539,1.086 50.539,1.086 Z M 40.113,0.934 C 42.484,0.934 42.484,0.934 42.484,0.934 42.484,3.524 42.484,3.524 42.484,3.524 40.113,3.524 40.113,3.524 40.113,3.524 40.068,3.499 40.068,3.499 40.068,3.499 40.068,2.755 40.068,2.755 40.068,2.755 40.068,1.703 40.068,1.703 40.068,1.703 40.068,0.959 40.068,0.959 40.068,0.959 Z M 58.739,0.947 C 58.920,0.947 58.920,0.947 58.920,0.947 58.920,3.510 58.920,3.510 58.920,3.510 58.739,3.510 58.739,3.510 58.739,3.510 58.739,3.329 58.739,3.329 58.739,3.329 58.580,3.317 58.580,3.317 58.580,3.317 58.580,1.141 58.580,1.141 58.580,1.141 58.739,1.129 58.739,1.129 58.739,1.129 Z M 59.186,0.947 C 65.092,0.947 65.092,0.947 65.092,0.947 65.092,1.711 65.092,1.711 65.092,1.711 65.092,2.746 65.092,2.746 65.092,2.746 65.092,3.510 65.092,3.510 65.092,3.510 59.186,3.510 59.186,3.510 59.186,3.510 Z M 42.750,0.956 C 43.736,1.096 43.736,1.096 43.736,1.096 43.819,1.407 43.819,1.407 43.819,1.407 43.910,1.407 43.910,1.407 43.910,1.407 43.910,3.051 43.910,3.051 43.910,3.051 43.819,3.051 43.819,3.051 43.819,3.051 43.736,3.362 43.736,3.362 43.736,3.362 42.750,3.502 42.750,3.502 42.750,3.502 Z M 58.314,1.161 C 58.314,3.296 58.314,3.296 58.314,3.296 56.803,3.181 56.803,3.181 56.803,3.181 56.803,1.277 56.803,1.277 56.803,1.277 Z M 52.266,1.385 C 54.352,1.385 54.352,1.385 54.352,1.385 54.352,3.073 54.352,3.073 54.352,3.073 52.266,3.073 52.266,3.073 52.266,3.073 Z M 44.174,1.407 C 49.773,1.407 49.773,1.407 49.773,1.407 49.773,3.051 49.773,3.051 49.773,3.051 44.174,3.051 44.174,3.051 44.174,3.051 Z M 38.379,1.706 C 38.859,1.706 38.859,1.706 38.859,1.706 39.139,1.773 39.359,1.793 39.486,1.803 39.486,2.374 39.486,2.374 39.486,2.374 39.390,2.374 39.390,2.374 39.390,2.374 39.375,2.378 39.375,2.378 39.375,2.378 39.166,2.434 39.008,2.587 38.904,2.773 38.800,2.958 38.745,3.180 38.738,3.404 38.731,3.627 38.773,3.852 38.875,4.044 38.976,4.236 39.145,4.395 39.375,4.456 39.390,4.462 39.390,4.462 39.390,4.462 41.408,4.462 41.408,4.462 41.408,4.462 41.408,5.104 41.408,5.104 41.408,5.104 39.391,5.104 39.391,5.104 39.391,5.104 39.375,5.108 39.375,5.108 39.375,5.108 39.166,5.164 39.008,5.317 38.904,5.502 38.800,5.688 38.745,5.908 38.738,6.131 38.731,6.354 38.772,6.582 38.873,6.774 38.975,6.966 39.145,7.124 39.375,7.186 39.391,7.190 39.391,7.190 39.391,7.190 41.373,7.190 41.373,7.190 41.373,7.190 41.373,7.348 41.373,7.348 41.373,7.348 39.338,7.348 39.338,7.348 39.338,7.348 39.002,7.438 39.002,7.438 39.002,7.438 38.240,7.438 38.240,7.438 38.240,7.438 38.240,5.780 38.240,5.780 38.240,5.780 38.123,5.780 38.123,5.780 38.123,5.780 38.123,3.029 38.123,3.029 38.123,3.029 38.379,3.029 38.379,3.029 38.379,3.029 Z M 39.437,2.640 C 39.486,2.640 39.486,2.640 39.486,2.640 39.486,2.755 39.486,2.755 39.486,2.755 39.486,3.835 39.486,3.835 39.486,3.835 39.867,4.054 39.867,4.054 39.867,4.054 39.867,4.129 39.867,4.129 39.867,4.129 39.934,4.196 39.934,4.196 39.934,4.196 39.435,4.196 39.435,4.196 39.435,4.196 39.287,4.153 39.180,4.059 39.107,3.921 39.033,3.780 38.998,3.596 39.004,3.411 39.010,3.227 39.056,3.043 39.135,2.902 39.212,2.764 39.316,2.675 39.437,2.640 Z M 65.674,2.746 C 65.693,2.746 65.693,2.746 65.693,2.746 66.027,2.746 66.027,2.746 66.027,2.746 68.787,2.746 68.787,2.746 68.787,2.746 68.787,4.079 68.787,4.079 68.787,4.079 65.292,4.079 65.292,4.079 65.292,4.079 65.562,3.922 65.562,3.922 65.562,3.922 68.256,3.922 68.256,3.922 68.256,3.922 68.444,3.922 68.599,3.766 68.599,3.578 68.599,3.391 68.444,3.237 68.256,3.237 65.674,3.237 65.674,3.237 65.674,3.237 Z M 69.051,2.746 C 69.566,2.746 69.566,2.746 69.566,2.746 69.566,3.014 69.566,3.014 69.566,3.014 69.724,3.014 69.724,3.014 69.724,3.014 69.724,4.303 69.724,4.303 69.724,4.303 70.588,4.303 70.588,4.303 70.588,4.303 70.588,4.635 70.588,4.635 70.588,4.635 69.734,4.635 69.734,4.635 69.734,4.635 69.734,6.219 69.734,6.219 69.734,6.219 69.566,6.219 69.566,6.219 69.566,6.219 69.566,6.487 69.566,6.487 69.566,6.487 65.737,6.487 65.737,6.487 65.737,6.487 65.737,6.639 65.737,6.639 65.737,6.639 63.184,6.639 63.184,6.639 63.184,6.639 61.017,6.639 61.017,6.639 61.017,6.639 61.017,4.641 61.017,4.641 61.017,4.641 60.158,4.641 60.158,4.641 60.158,4.641 60.158,4.344 60.158,4.344 60.158,4.344 64.645,4.344 64.645,4.344 64.645,4.344 69.051,4.344 69.051,4.344 69.051,4.344 Z M 69.988,3.014 C 71.603,3.014 71.603,3.014 71.603,3.014 71.603,6.219 71.603,6.219 71.603,6.219 69.998,6.219 69.998,6.219 69.998,6.219 69.998,4.899 69.998,4.899 69.998,4.899 70.851,4.899 70.851,4.899 70.851,4.899 70.851,4.038 70.851,4.038 70.851,4.038 69.988,4.038 69.988,4.038 69.988,4.038 Z M 71.869,3.014 C 72.440,3.014 72.440,3.014 72.440,3.014 72.440,6.219 72.440,6.219 72.440,6.219 71.869,6.219 71.869,6.219 71.869,6.219 Z M 72.703,3.014 C 74.490,3.014 74.490,3.014 74.490,3.014 74.490,3.520 74.490,3.520 74.490,3.520 73.266,3.520 73.266,3.520 73.266,3.520 73.266,3.676 73.266,3.676 73.266,3.676 73.266,5.727 73.266,5.727 73.266,5.727 74.490,5.727 74.490,5.727 74.490,5.727 74.490,6.219 74.490,6.219 74.490,6.219 72.703,6.219 72.703,6.219 72.703,6.219 Z M 33.854,3.029 C 35.010,3.029 35.010,3.029 35.010,3.029 35.010,5.780 35.010,5.780 35.010,5.780 34.742,5.780 34.742,5.780 34.742,5.780 34.713,5.795 34.713,5.795 34.713,5.795 34.713,5.795 34.345,5.990 34.035,6.424 34.003,6.469 33.973,6.518 33.943,6.568 33.895,6.574 33.729,6.593 33.512,6.543 33.264,6.486 33.005,6.348 32.873,5.983 32.873,4.145 32.873,4.145 32.873,4.145 32.916,4.113 32.996,4.049 32.996,4.049 33.080,3.991 33.080,3.991 33.080,3.991 33.108,3.889 33.108,3.889 33.108,3.889 33.233,3.427 33.436,3.233 33.596,3.131 33.756,3.030 33.854,3.029 33.854,3.029 Z M 35.273,3.029 C 35.555,3.029 35.555,3.029 35.555,3.029 35.555,5.780 35.555,5.780 35.555,5.780 35.273,5.780 35.273,5.780 35.273,5.780 Z M 35.818,3.029 C 36.555,3.029 36.555,3.029 36.555,3.029 36.555,5.780 36.555,5.780 36.555,5.780 35.818,5.780 35.818,5.780 35.818,5.780 Z M 36.820,3.029 C 37.102,3.029 37.102,3.029 37.102,3.029 37.102,5.780 37.102,5.780 37.102,5.780 36.820,5.780 36.820,5.780 36.820,5.780 Z M 37.365,3.029 C 37.859,3.029 37.859,3.029 37.859,3.029 37.859,5.780 37.859,5.780 37.859,5.780 37.365,5.780 37.365,5.780 37.365,5.780 Z M 74.754,3.142 C 75.611,3.637 75.611,3.637 75.611,3.637 75.611,4.256 75.611,4.256 75.611,4.256 75.611,4.977 75.611,4.977 75.611,4.977 75.611,5.596 75.611,5.596 75.611,5.596 74.754,6.091 74.754,6.091 74.754,6.091 74.754,5.525 74.754,5.525 74.754,5.525 74.842,5.417 74.948,5.262 75.018,5.069 75.144,4.722 75.142,4.242 74.754,3.745 Z M 65.674,3.500 C 68.256,3.500 68.256,3.500 68.256,3.500 68.302,3.500 68.334,3.533 68.334,3.578 68.334,3.624 68.302,3.657 68.256,3.657 65.674,3.657 65.674,3.657 65.674,3.657 Z M 44.266,3.633 C 47.225,3.633 47.225,3.633 47.225,3.633 47.225,3.822 47.225,3.822 47.225,3.822 47.225,4.032 47.058,4.196 46.847,4.196 41.674,4.196 41.674,4.196 41.674,4.196 41.674,4.106 41.674,4.106 41.674,4.106 42.637,4.106 42.637,4.106 42.637,4.106 44.199,3.883 44.199,3.883 44.199,3.883 Z M 47.488,3.633 C 47.973,3.633 47.973,3.633 47.973,3.633 47.973,6.061 47.973,6.061 47.973,6.061 47.973,6.194 47.973,6.194 47.973,6.194 47.973,7.105 47.973,7.105 47.973,7.105 47.910,7.168 47.910,7.168 47.910,7.168 47.728,7.348 47.728,7.348 47.728,7.348 41.639,7.348 41.639,7.348 41.639,7.348 41.639,7.190 41.639,7.190 41.639,7.190 46.848,7.190 46.848,7.190 46.848,7.190 47.200,7.190 47.488,6.902 47.488,6.549 47.488,5.745 47.488,5.745 47.488,5.745 47.488,5.392 47.200,5.104 46.848,5.104 41.674,5.104 41.674,5.104 41.674,5.104 41.674,4.462 41.674,4.462 41.674,4.462 46.847,4.462 46.847,4.462 46.847,4.462 47.200,4.462 47.488,4.174 47.488,3.822 Z M 48.238,3.633 C 49.828,3.633 49.828,3.633 49.828,3.633 49.957,3.707 49.957,3.707 49.957,3.707 49.957,4.141 49.957,4.141 49.957,4.141 50.463,4.141 50.463,4.141 50.463,4.141 50.463,6.061 50.463,6.061 50.463,6.061 48.238,6.061 48.238,6.061 48.238,6.061 Z M 52.280,3.655 C 54.367,3.655 54.367,3.655 54.367,3.655 54.367,4.174 54.367,4.174 54.367,4.174 54.529,4.174 54.529,4.174 54.529,4.174 54.529,5.110 54.529,5.110 54.529,5.110 55.014,5.110 55.014,5.110 55.014,5.110 55.014,5.471 55.014,5.471 55.014,5.471 55.014,6.061 55.014,6.061 55.014,6.061 51.887,6.061 51.887,6.061 51.887,6.061 51.887,5.139 51.887,5.139 51.887,5.139 52.074,5.139 52.074,5.139 52.074,5.139 52.074,4.141 52.074,4.141 52.074,4.141 52.280,4.141 52.280,4.141 52.280,4.141 Z M 56.793,3.764 C 58.156,3.868 58.156,3.868 58.156,3.868 58.156,4.092 58.156,4.092 58.156,4.092 59.895,4.092 59.895,4.092 59.895,4.092 59.895,4.905 59.895,4.905 59.895,4.905 60.754,4.905 60.754,4.905 60.754,4.905 60.754,6.905 60.754,6.905 60.754,6.905 63.184,6.905 63.184,6.905 63.184,6.905 65.737,6.905 65.737,6.905 65.737,6.905 65.737,7.733 65.737,7.733 65.737,7.733 65.609,7.733 65.609,7.733 65.609,7.733 65.609,7.037 65.609,7.037 65.609,7.037 63.590,7.037 63.590,7.037 63.590,7.037 63.590,7.733 63.590,7.733 63.590,7.733 63.455,7.733 63.455,7.733 63.455,7.733 63.455,7.131 63.455,7.131 63.455,7.131 60.656,7.131 60.656,7.131 60.656,7.131 60.656,7.756 60.656,7.756 60.656,7.756 60.449,7.756 60.449,7.756 60.449,7.756 60.449,8.877 60.449,8.877 60.449,8.877 60.236,10.012 59.515,10.528 58.805,10.799 58.092,11.071 57.430,11.057 57.430,11.057 57.428,11.057 57.428,11.057 57.428,11.057 57.424,11.057 57.424,11.057 57.424,11.057 57.424,11.057 54.807,11.045 52.180,11.038 50.866,11.034 49.550,11.031 48.557,11.034 48.060,11.035 47.645,11.038 47.350,11.041 47.202,11.043 47.086,11.046 47.002,11.049 46.960,11.051 46.925,11.051 46.896,11.053 46.882,11.054 46.869,11.055 46.851,11.057 46.847,11.057 46.841,11.060 46.836,11.061 46.830,11.062 46.827,11.063 46.818,11.065 46.817,11.065 46.813,11.066 46.812,11.067 46.430,11.134 45.953,11.434 45.520,12.086 45.490,12.129 45.490,12.129 45.490,12.129 45.450,12.304 45.450,12.304 45.450,12.304 45.124,11.447 44.296,10.836 43.326,10.836 41.226,10.836 41.226,10.836 41.226,10.836 40.441,10.836 39.748,11.237 39.339,11.844 38.867,11.844 38.867,11.844 38.867,11.844 38.791,11.844 38.791,11.844 38.791,11.844 32.859,11.844 32.859,11.844 32.859,11.844 32.859,11.657 32.859,11.657 32.859,11.657 32.949,11.574 34.299,10.310 33.922,8.448 33.742,7.558 33.977,6.961 34.252,6.577 34.519,6.203 34.801,6.055 34.819,6.045 37.974,6.045 37.974,6.045 37.974,6.045 37.974,8.057 37.974,8.057 37.974,8.057 48.238,8.057 48.238,8.057 48.238,8.057 48.238,7.213 48.238,7.213 48.238,7.213 48.262,7.190 48.262,7.190 48.262,7.190 48.238,7.167 48.238,7.167 48.238,7.167 48.238,6.326 48.238,6.326 48.238,6.326 50.463,6.326 50.463,6.326 50.463,6.326 50.463,6.803 50.463,6.803 50.463,6.803 50.457,6.936 50.404,7.002 50.354,7.045 50.306,7.086 50.273,7.094 50.268,7.096 48.576,7.096 48.576,7.096 48.576,7.096 48.444,7.096 48.444,7.096 48.444,7.096 48.312,7.096 48.312,7.096 48.312,7.096 48.312,7.229 48.312,7.229 48.312,7.229 48.312,8.489 48.312,8.489 48.312,8.489 54.359,8.489 54.359,8.489 54.359,8.489 54.365,8.489 54.365,8.489 54.365,8.489 54.365,8.489 54.791,8.459 55.246,8.262 55.622,8.100 56.031,7.812 56.230,7.332 60.025,7.332 60.025,7.332 60.025,7.332 60.378,7.332 60.668,7.044 60.668,6.691 60.668,6.338 60.378,6.050 60.025,6.050 56.328,6.050 56.328,6.050 56.328,6.050 56.328,4.965 56.328,4.965 56.328,4.965 56.328,4.174 56.328,4.174 56.328,4.174 56.793,4.174 56.793,4.174 56.793,4.174 Z M 73.531,3.783 C 74.414,3.783 74.414,3.783 74.414,3.783 74.861,4.267 74.879,4.672 74.768,4.977 74.660,5.273 74.467,5.441 74.441,5.463 73.531,5.463 73.531,5.463 73.531,5.463 Z M 40.217,4.106 C 41.408,4.106 41.408,4.106 41.408,4.106 41.408,4.196 41.408,4.196 41.408,4.196 40.307,4.196 40.307,4.196 40.307,4.196 Z M 50.727,4.141 C 51.811,4.141 51.811,4.141 51.811,4.141 51.811,4.875 51.811,4.875 51.811,4.875 51.623,4.875 51.623,4.875 51.623,4.875 51.623,6.622 51.623,6.622 51.623,6.622 51.623,6.669 51.623,6.669 51.623,6.669 51.623,7.326 51.623,7.326 51.623,7.326 54.215,7.326 54.215,7.326 54.215,7.326 54.220,7.326 54.220,7.326 54.220,7.326 54.220,7.326 54.447,7.310 54.690,7.205 54.932,7.100 55.211,6.890 55.277,6.516 55.279,6.504 55.279,6.504 55.279,6.504 55.279,5.471 55.279,5.471 55.279,5.471 55.279,5.110 55.279,5.110 55.279,5.110 55.279,4.977 55.279,4.977 55.279,4.977 55.279,4.844 55.279,4.844 55.279,4.844 55.147,4.844 55.147,4.844 55.147,4.844 54.795,4.844 54.795,4.844 54.795,4.844 54.795,4.174 54.795,4.174 54.795,4.174 56.064,4.174 56.064,4.174 56.064,4.174 56.064,4.965 56.064,4.965 56.064,4.965 56.064,6.955 56.064,6.955 56.064,6.955 55.962,7.531 55.550,7.841 55.141,8.018 54.731,8.195 54.346,8.225 54.346,8.225 48.576,8.225 48.576,8.225 48.576,8.225 48.576,7.360 48.576,7.360 48.576,7.360 50.314,7.360 50.314,7.360 50.314,7.360 50.332,7.356 50.332,7.356 50.332,7.356 50.332,7.356 50.432,7.327 50.526,7.246 50.620,7.166 50.717,7.022 50.727,6.817 50.727,6.813 50.727,6.813 50.727,6.813 Z M 32.607,4.362 C 32.607,6.040 32.607,6.040 32.607,6.040 32.615,6.061 32.615,6.061 32.615,6.061 32.777,6.527 33.144,6.731 33.451,6.801 33.583,6.832 33.703,6.839 33.803,6.839 33.621,7.255 33.523,7.805 33.664,8.500 34.023,10.271 32.639,11.518 32.639,11.518 32.594,11.557 32.594,11.557 32.594,11.557 32.594,11.922 32.594,11.922 32.594,11.922 32.369,12.147 32.369,12.147 32.369,12.147 32.369,12.504 32.369,12.504 32.369,12.504 32.202,12.186 32.022,12.014 32.011,12.004 32.011,12.004 32.008,12.001 32.008,12.001 32.007,12.001 32.007,12.001 32.007,12.001 30.777,11.016 30.257,10.051 30.123,9.153 29.990,8.253 30.248,7.395 30.670,6.635 31.247,5.597 32.111,4.781 32.607,4.362 Z M 62.252,4.707 C 61.937,4.707 61.679,4.964 61.679,5.279 61.679,5.595 61.937,5.854 62.252,5.854 68.383,5.854 68.383,5.854 68.383,5.854 68.698,5.854 68.955,5.595 68.955,5.279 68.955,4.964 68.698,4.707 68.383,4.707 Z M 62.252,4.971 C 68.383,4.971 68.383,4.971 68.383,4.971 68.556,4.971 68.691,5.106 68.691,5.279 68.691,5.453 68.556,5.588 68.383,5.588 62.252,5.588 62.252,5.588 62.252,5.588 62.079,5.588 61.944,5.453 61.944,5.279 61.944,5.106 62.079,4.971 62.252,4.971 Z M 39.439,5.368 C 39.946,5.368 39.946,5.368 39.946,5.368 39.867,5.447 39.867,5.447 39.867,5.447 39.867,5.901 39.867,5.901 39.867,5.901 39.867,6.399 39.867,6.399 39.867,6.399 39.867,6.852 39.867,6.852 39.867,6.852 39.941,6.926 39.941,6.926 39.941,6.926 39.439,6.926 39.439,6.926 39.439,6.926 39.288,6.884 39.181,6.788 39.107,6.649 39.033,6.508 38.998,6.325 39.004,6.141 39.010,5.957 39.056,5.772 39.135,5.631 39.212,5.493 39.317,5.402 39.439,5.368 Z M 40.320,5.368 C 41.408,5.368 41.408,5.368 41.408,5.368 41.408,5.565 41.408,5.565 41.408,5.565 41.955,5.664 41.955,5.664 41.955,5.664 41.955,6.610 41.955,6.610 41.955,6.610 41.373,6.764 41.373,6.764 41.373,6.764 41.373,6.926 41.373,6.926 41.373,6.926 40.315,6.926 40.315,6.926 40.315,6.926 40.131,6.742 40.131,6.742 40.131,6.742 40.131,6.399 40.131,6.399 40.131,6.399 40.131,5.901 40.131,5.901 40.131,5.901 40.131,5.557 40.131,5.557 40.131,5.557 Z M 41.804,5.368 C 46.848,5.368 46.848,5.368 46.848,5.368 47.058,5.368 47.225,5.534 47.225,5.745 47.225,6.549 47.225,6.549 47.225,6.549 47.225,6.760 47.058,6.926 46.848,6.926 41.792,6.926 41.792,6.926 41.792,6.926 42.219,6.813 42.219,6.813 42.219,6.813 42.219,5.444 42.219,5.444 42.219,5.444 Z M 56.328,6.314 C 60.025,6.314 60.025,6.314 60.025,6.314 60.236,6.314 60.402,6.480 60.402,6.691 60.402,6.902 60.236,7.067 60.025,7.067 56.312,7.067 56.312,7.067 56.312,7.067 56.317,7.045 56.322,7.023 56.326,7.000 56.328,6.989 56.328,6.989 56.328,6.989 Z M 51.887,6.326 C 55.014,6.326 55.014,6.326 55.014,6.326 55.014,6.473 55.014,6.473 55.014,6.473 54.966,6.738 54.780,6.878 54.584,6.963 54.391,7.046 54.216,7.060 54.209,7.061 51.887,7.061 51.887,7.061 51.887,7.061 51.887,6.669 51.887,6.669 51.887,6.669 51.887,6.622 51.887,6.622 51.887,6.622 Z M 60.022,6.381 C 59.850,6.381 59.709,6.524 59.709,6.696 59.709,6.868 59.850,7.010 60.022,7.010 60.193,7.010 60.334,6.868 60.334,6.696 60.334,6.524 60.193,6.381 60.022,6.381 Z M 60.022,6.590 C 60.079,6.590 60.125,6.636 60.125,6.696 60.125,6.756 60.079,6.801 60.022,6.801 59.964,6.801 59.918,6.756 59.918,6.696 59.918,6.636 59.964,6.590 60.022,6.590 Z M 63.856,7.301 C 65.346,7.301 65.346,7.301 65.346,7.301 65.346,7.733 65.346,7.733 65.346,7.733 63.856,7.733 63.856,7.733 63.856,7.733 Z M 49.313,7.389 C 49.095,7.389 48.916,7.568 48.916,7.786 48.916,8.003 49.095,8.182 49.313,8.182 49.530,8.182 49.709,8.003 49.709,7.786 49.709,7.568 49.530,7.389 49.313,7.389 Z M 53.242,7.389 C 53.025,7.389 52.844,7.568 52.844,7.786 52.844,8.003 53.025,8.182 53.242,8.182 53.460,8.182 53.639,8.003 53.639,7.786 53.639,7.568 53.460,7.389 53.242,7.389 Z M 47.973,7.478 C 47.973,7.791 47.973,7.791 47.973,7.791 38.240,7.791 38.240,7.791 38.240,7.791 38.240,7.704 38.240,7.704 38.240,7.704 39.037,7.704 39.037,7.704 39.037,7.704 39.371,7.614 39.371,7.614 39.371,7.614 47.838,7.614 47.838,7.614 47.838,7.614 Z M 49.313,7.653 C 49.387,7.653 49.446,7.711 49.446,7.786 49.446,7.860 49.387,7.919 49.313,7.919 49.238,7.919 49.180,7.860 49.180,7.786 49.180,7.711 49.238,7.653 49.313,7.653 Z M 53.242,7.653 C 53.317,7.653 53.373,7.711 53.373,7.786 53.373,7.860 53.317,7.919 53.242,7.919 53.168,7.919 53.109,7.860 53.109,7.786 53.109,7.711 53.168,7.653 53.242,7.653 Z M 34.512,8.676 C 34.294,8.676 34.115,8.855 34.115,9.073 34.115,9.290 34.294,9.469 34.512,9.469 34.729,9.469 34.908,9.290 34.908,9.073 34.908,8.855 34.729,8.676 34.512,8.676 Z M 58.367,8.744 C 58.149,8.744 57.971,8.924 57.971,9.141 57.971,9.359 58.149,9.540 58.367,9.540 58.585,9.540 58.764,9.359 58.764,9.141 58.764,8.924 58.585,8.744 58.367,8.744 Z M 34.512,8.940 C 34.586,8.940 34.644,8.998 34.644,9.073 34.644,9.147 34.586,9.205 34.512,9.205 34.437,9.205 34.379,9.147 34.379,9.073 34.379,8.998 34.437,8.940 34.512,8.940 Z M 58.367,9.010 C 58.442,9.010 58.500,9.067 58.500,9.141 58.500,9.216 58.442,9.274 58.367,9.274 58.292,9.274 58.234,9.216 58.234,9.141 58.234,9.067 58.292,9.010 58.367,9.010 Z M 36.184,9.272 C 35.840,9.272 35.559,9.553 35.559,9.897 35.559,10.241 35.840,10.522 36.184,10.522 52.285,10.522 52.285,10.522 52.285,10.522 52.629,10.522 52.910,10.241 52.910,9.897 52.910,9.553 52.629,9.272 52.285,9.272 Z M 36.184,9.536 C 46.494,9.536 46.494,9.536 46.494,9.536 46.494,10.256 46.494,10.256 46.494,10.256 36.184,10.256 36.184,10.256 36.184,10.256 35.982,10.256 35.824,10.099 35.824,9.897 35.824,9.695 35.982,9.536 36.184,9.536 Z M 46.758,9.536 C 52.285,9.536 52.285,9.536 52.285,9.536 52.487,9.536 52.646,9.695 52.646,9.897 52.646,10.099 52.487,10.256 52.285,10.256 46.758,10.256 46.758,10.256 46.758,10.256 Z M 49.871,9.592 C 49.871,10.202 49.871,10.202 49.871,10.202 49.959,10.202 49.959,10.202 49.959,10.202 49.959,9.592 49.959,9.592 49.959,9.592 Z M 50.037,9.592 C 50.037,10.202 50.037,10.202 50.037,10.202 50.125,10.202 50.125,10.202 50.125,10.202 50.125,9.592 50.125,9.592 50.125,9.592 Z M 50.213,9.592 C 50.213,10.202 50.213,10.202 50.213,10.202 50.301,10.202 50.301,10.202 50.301,10.202 50.301,9.592 50.301,9.592 50.301,9.592 Z M 50.383,9.592 C 50.383,10.202 50.383,10.202 50.383,10.202 50.471,10.202 50.471,10.202 50.471,10.202 50.471,9.592 50.471,9.592 50.471,9.592 Z M 50.549,9.592 C 50.549,10.202 50.549,10.202 50.549,10.202 50.637,10.202 50.637,10.202 50.637,10.202 50.637,9.592 50.637,9.592 50.637,9.592 Z M 50.725,9.592 C 50.725,10.202 50.725,10.202 50.725,10.202 50.812,10.202 50.812,10.202 50.812,10.202 50.812,9.592 50.812,9.592 50.812,9.592 Z M 50.897,9.592 C 50.897,10.202 50.897,10.202 50.897,10.202 50.984,10.202 50.984,10.202 50.984,10.202 50.984,9.592 50.984,9.592 50.984,9.592 Z M 51.063,9.592 C 51.063,10.202 51.063,10.202 51.063,10.202 51.152,10.202 51.152,10.202 51.152,10.202 51.152,9.592 51.152,9.592 51.152,9.592 Z M 51.238,9.592 C 51.238,10.202 51.238,10.202 51.238,10.202 51.326,10.202 51.326,10.202 51.326,10.202 51.326,9.592 51.326,9.592 51.326,9.592 Z M 51.408,9.592 C 51.408,10.202 51.408,10.202 51.408,10.202 51.496,10.202 51.496,10.202 51.496,10.202 51.496,9.592 51.496,9.592 51.496,9.592 Z M 51.574,9.592 C 51.574,10.202 51.574,10.202 51.574,10.202 51.662,10.202 51.662,10.202 51.662,10.202 51.662,9.592 51.662,9.592 51.662,9.592 Z M 51.750,9.592 C 51.750,10.202 51.750,10.202 51.750,10.202 51.838,10.202 51.838,10.202 51.838,10.202 51.838,9.592 51.838,9.592 51.838,9.592 Z M 48.174,9.628 C 48.024,9.628 47.903,9.749 47.904,9.899 47.904,10.048 48.025,10.169 48.174,10.169 48.323,10.169 48.444,10.048 48.444,9.899 48.444,9.749 48.323,9.628 48.174,9.628 Z M 49.442,9.628 C 49.293,9.628 49.172,9.749 49.172,9.899 49.172,10.048 49.293,10.169 49.442,10.169 49.592,10.169 49.713,10.048 49.713,9.899 49.713,9.749 49.592,9.628 49.442,9.628 Z M 52.276,9.628 C 52.127,9.628 52.005,9.749 52.006,9.899 52.006,10.048 52.127,10.169 52.276,10.169 52.426,10.169 52.547,10.048 52.547,9.899 52.547,9.749 52.426,9.628 52.276,9.628 Z M 33.649,11.012 C 33.431,11.012 33.252,11.191 33.252,11.409 33.252,11.626 33.431,11.805 33.649,11.805 33.866,11.805 34.045,11.626 34.045,11.409 34.045,11.191 33.866,11.012 33.649,11.012 Z M 33.649,11.276 C 33.723,11.276 33.779,11.334 33.779,11.409 33.779,11.483 33.723,11.542 33.649,11.542 33.574,11.542 33.516,11.483 33.516,11.409 33.516,11.334 33.574,11.276 33.649,11.276 Z M 41.241,11.419 C 43.326,11.419 43.326,11.419 43.326,11.419 44.268,11.419 45.017,12.168 45.017,13.110 45.017,13.682 44.741,14.181 44.313,14.487 44.097,14.617 43.831,14.728 43.496,14.793 43.440,14.798 43.384,14.801 43.326,14.801 41.226,14.801 41.226,14.801 41.226,14.801 40.284,14.801 39.535,14.052 39.535,13.110 39.535,12.974 39.552,12.842 39.582,12.716 40.064,13.274 41.052,14.124 42.649,14.192 42.649,14.184 42.649,14.184 42.649,14.184 42.660,14.188 42.670,14.192 42.682,14.196 42.854,13.641 42.854,13.641 42.854,13.641 42.118,13.413 41.707,12.808 41.472,12.227 41.345,11.912 41.279,11.625 41.241,11.419 Z M 40.667,11.513 C 40.710,11.752 40.788,12.083 40.933,12.444 41.056,12.748 41.231,13.074 41.472,13.367 40.559,13.022 40.051,12.415 39.849,12.124 40.049,11.843 40.333,11.628 40.667,11.513 Z M 32.781,12.108 C 38.715,12.108 38.715,12.108 38.715,12.108 38.758,12.182 38.758,12.182 38.758,12.182 38.414,12.948 38.414,12.948 38.414,12.948 38.568,13.918 38.568,13.918 38.568,13.918 38.783,14.324 38.783,14.324 38.783,14.324 38.445,15.172 38.445,15.172 38.445,15.172 33.658,22.501 33.658,22.501 33.658,22.501 33.664,22.598 33.664,22.598 33.664,22.598 33.734,23.567 33.442,23.886 33.164,24.043 32.894,24.196 32.615,24.164 32.600,24.163 28.387,22.440 28.387,22.440 28.387,22.440 28.109,22.028 28.109,22.028 28.109,22.028 28.107,22.026 28.107,22.026 28.107,22.026 28.105,22.022 28.105,22.022 28.105,22.022 27.973,21.836 27.973,21.530 28.037,21.249 28.100,20.972 28.203,20.764 28.207,20.756 32.631,13.868 32.631,13.868 32.631,13.868 32.637,13.792 32.637,13.792 32.637,13.792 32.645,13.659 32.643,13.533 32.633,13.414 32.633,12.256 32.633,12.256 32.633,12.256 Z M 39.020,12.108 C 39.188,12.108 39.188,12.108 39.188,12.108 39.039,12.411 38.953,12.750 38.953,13.110 38.953,13.536 39.073,13.932 39.277,14.273 39.087,14.799 39.087,14.799 39.087,14.799 39.000,14.795 38.890,14.790 38.883,14.790 39.074,14.311 39.074,14.311 39.074,14.311 38.824,13.832 38.824,13.832 38.824,13.832 38.690,12.985 38.690,12.985 38.690,12.985 39.054,12.166 39.054,12.166 39.054,12.166 Z M 39.461,14.540 C 39.543,14.641 39.635,14.735 39.733,14.820 39.605,14.816 39.466,14.812 39.365,14.809 Z M 34.000,16.696 C 33.782,16.696 33.602,16.875 33.602,17.092 33.602,17.310 33.782,17.491 34.000,17.491 34.218,17.491 34.396,17.310 34.396,17.092 34.396,16.875 34.218,16.696 34.000,16.696 Z M 34.000,16.961 C 34.075,16.961 34.131,17.018 34.131,17.092 34.131,17.167 34.075,17.225 34.000,17.225 33.925,17.225 33.867,17.167 33.867,17.092 33.867,17.018 33.925,16.961 34.000,16.961 Z " />
</svg>