<?xml version="1.0" encoding="UTF-8" standalone="no"?>
<!DOCTYPE svg PUBLIC "-//W3C//DTD SVG 20010904//EN" "http://www.w3.org/TR/2001/REC-SVG-20010904/DTD/svg10.dtd"[]>
<svg version="1.1" id="Frosty Editor v1.0.6.3" xmlns="http://www.w3.org/2000/svg" d1p1:xlink="http://www.w3.org/1999/xlink" viewBox="0 0 101 25" xmlns:d1p1="xmlns">
  <path stroke="none" fill="#ffffffff" d="M 75.917,0.888 C 75.748,0.904 75.595,0.992 75.471,1.104 75.402,1.169 75.342,1.242 75.276,1.310 70.367,1.325 65.457,1.339 60.548,1.354 60.507,1.358 60.485,1.398 60.472,1.432 60.397,1.584 60.317,1.736 60.283,1.903 60.225,2.134 60.197,2.372 60.171,2.607 60.161,2.679 60.152,2.752 60.130,2.822 60.108,2.820 60.076,2.818 60.069,2.791 60.032,2.692 60.024,2.584 60.009,2.481 59.978,2.236 59.951,1.987 59.865,1.753 59.843,1.693 59.804,1.636 59.745,1.607 59.676,1.569 59.597,1.556 59.520,1.544 59.336,1.518 59.151,1.510 58.966,1.502 58.606,1.489 58.245,1.488 57.885,1.484 57.614,1.483 57.343,1.482 57.073,1.494 56.950,1.502 56.824,1.511 56.710,1.560 56.634,1.596 56.572,1.657 56.525,1.727 56.499,1.760 56.458,1.776 56.418,1.784 56.323,1.806 56.223,1.806 56.126,1.812 55.774,1.824 55.423,1.820 55.071,1.817 54.924,1.814 54.778,1.811 54.632,1.789 54.587,1.782 54.536,1.769 54.512,1.726 54.482,1.680 54.446,1.636 54.395,1.611 54.302,1.559 54.193,1.550 54.089,1.538 53.848,1.514 53.606,1.509 53.364,1.503 52.903,1.495 52.442,1.492 51.980,1.489 50.876,1.485 49.771,1.485 48.667,1.484 47.185,1.482 45.702,1.480 44.220,1.478 44.099,1.660 43.950,1.826 43.865,2.029 43.844,2.081 43.829,2.137 43.833,2.193 43.733,2.218 43.627,2.223 43.523,2.231 43.125,2.254 42.721,2.222 42.325,2.287 42.235,2.303 42.139,2.325 42.073,2.392 42.014,2.455 41.999,2.545 41.983,2.627 41.956,2.790 41.949,2.957 41.942,3.122 41.931,3.471 41.938,3.819 41.936,4.168 41.936,4.278 41.936,4.278 41.936,4.278 40.351,4.278 40.351,4.278 40.351,4.278 40.349,3.878 40.356,3.477 40.342,3.077 40.333,2.925 40.309,2.768 40.229,2.635 40.154,2.517 40.028,2.439 39.895,2.404 39.722,2.353 39.540,2.347 39.362,2.337 39.031,2.325 38.701,2.331 38.370,2.329 37.993,2.331 37.614,2.332 37.238,2.367 37.137,2.379 37.035,2.391 36.942,2.434 36.858,2.478 36.803,2.558 36.737,2.624 36.384,3.002 36.060,3.405 35.712,3.787 35.619,3.886 35.526,3.989 35.411,4.062 35.386,4.076 35.356,4.076 35.329,4.068 35.178,4.046 35.024,4.099 34.900,4.183 34.810,4.246 34.721,4.313 34.620,4.358 34.548,4.394 34.471,4.417 34.400,4.455 34.238,4.546 34.111,4.688 34.011,4.842 33.938,4.957 33.887,5.089 33.881,5.226 33.869,5.304 33.822,5.373 33.775,5.435 33.723,5.500 33.660,5.559 33.587,5.600 33.537,5.612 33.488,5.588 33.440,5.575 33.331,5.539 33.222,5.499 33.106,5.484 32.887,5.449 32.653,5.481 32.461,5.595 32.283,5.697 32.143,5.855 32.033,6.026 31.957,6.137 31.886,6.259 31.876,6.395 31.863,6.540 31.911,6.681 31.960,6.815 32.016,6.967 32.083,7.114 32.143,7.264 32.061,7.293 31.970,7.312 31.897,7.364 31.746,7.462 31.639,7.615 31.566,7.778 31.456,8.015 31.395,8.270 31.340,8.525 31.327,8.594 31.318,8.669 31.349,8.735 31.354,8.747 31.365,8.757 31.368,8.767 31.304,8.892 31.217,9.003 31.131,9.113 31.026,9.240 30.909,9.355 30.783,9.461 30.658,9.580 30.549,9.715 30.437,9.847 30.110,10.238 29.797,10.641 29.474,11.035 29.040,11.570 28.604,12.104 28.148,12.621 28.054,12.727 27.951,12.825 27.848,12.923 27.791,12.979 27.743,13.043 27.708,13.114 27.663,13.185 27.606,13.248 27.555,13.315 27.261,13.687 26.958,14.050 26.657,14.416 25.756,15.506 24.837,16.583 23.965,17.697 23.840,17.859 23.711,18.018 23.599,18.189 23.520,18.317 23.466,18.457 23.413,18.597 23.293,18.924 23.222,19.267 23.192,19.613 23.175,19.793 23.171,19.974 23.171,20.155 23.166,20.418 23.168,20.681 23.207,20.941 23.218,21.023 23.233,21.105 23.246,21.187 23.237,21.227 23.235,21.270 23.252,21.309 23.273,21.378 23.293,21.447 23.305,21.519 23.373,21.857 23.479,22.189 23.645,22.493 23.747,22.683 23.874,22.859 24.012,23.025 24.102,23.133 24.193,23.239 24.288,23.342 24.383,23.442 24.482,23.539 24.583,23.633 24.765,23.798 24.969,23.941 25.196,24.037 25.523,24.184 25.868,24.286 26.215,24.375 26.495,24.445 26.778,24.499 27.060,24.555 27.127,24.573 27.196,24.587 27.265,24.588 27.463,24.609 27.662,24.648 27.861,24.617 28.036,24.588 28.211,24.554 28.387,24.527 28.602,24.494 28.816,24.451 29.026,24.397 29.320,24.324 29.612,24.240 29.885,24.108 30.209,23.954 30.510,23.759 30.811,23.566 31.031,23.420 31.250,23.272 31.448,23.097 31.537,23.017 31.618,22.926 31.676,22.820 31.705,22.773 31.726,22.721 31.742,22.668 31.776,22.581 31.820,22.499 31.860,22.415 32.017,22.099 32.186,21.789 32.350,21.477 32.668,20.873 32.986,20.268 33.297,19.661 33.459,19.348 33.616,19.032 33.790,18.726 33.834,18.650 33.877,18.572 33.931,18.501 33.969,18.460 34.008,18.419 34.035,18.368 34.233,18.054 34.388,17.716 34.557,17.385 35.096,16.314 35.665,15.259 36.221,14.197 36.292,14.061 36.389,13.939 36.504,13.836 36.569,13.778 36.643,13.732 36.719,13.691 36.752,13.672 36.785,13.653 36.818,13.634 36.890,13.693 36.962,13.751 37.033,13.810 37.415,14.572 37.798,15.333 38.177,16.097 38.420,16.763 38.994,17.402 39.578,17.681 39.716,17.737 39.864,17.759 40.011,17.779 40.287,17.815 40.566,17.830 40.844,17.842 41.561,17.870 42.278,17.862 42.995,17.864 43.284,17.864 43.572,17.864 43.860,17.864 43.871,18.060 43.891,18.259 43.952,18.447 43.993,18.586 44.047,18.723 44.132,18.842 44.132,18.842 44.231,18.980 44.373,19.026 44.459,19.061 44.553,19.064 44.644,19.075 44.923,19.099 45.203,19.101 45.482,19.108 46.151,19.122 46.819,19.122 47.488,19.125 48.881,19.129 50.275,19.128 51.668,19.128 53.760,19.127 55.852,19.122 57.944,19.102 58.430,19.095 58.916,19.092 59.402,19.074 59.453,19.071 59.507,19.073 59.556,19.053 59.636,19.018 59.692,18.946 59.740,18.876 59.842,18.721 59.891,18.539 59.930,18.360 59.971,18.165 59.984,17.965 60.025,17.770 60.028,17.759 60.030,17.747 60.034,17.736 60.065,17.738 60.097,17.734 60.126,17.724 60.172,17.821 60.252,17.899 60.344,17.950 60.436,17.996 60.547,17.980 60.636,17.935 60.709,17.901 60.782,17.862 60.863,17.854 61.110,17.811 61.362,17.798 61.612,17.785 61.885,17.773 62.158,17.769 62.430,17.781 62.517,17.786 62.606,17.790 62.691,17.809 62.722,17.819 62.744,17.845 62.774,17.858 62.909,17.924 63.065,17.932 63.213,17.912 63.342,17.894 63.470,17.833 63.548,17.727 63.646,17.601 63.693,17.446 63.730,17.293 63.796,17.015 63.813,16.729 63.828,16.445 63.845,16.070 63.840,15.694 63.825,15.319 63.810,15.049 63.784,14.776 63.702,14.517 63.648,14.354 63.556,14.196 63.414,14.094 63.315,14.020 63.193,13.966 63.066,13.974 62.972,13.982 62.887,14.030 62.808,14.079 62.725,14.126 62.628,14.137 62.536,14.153 62.382,14.177 62.226,14.188 62.071,14.195 61.789,14.207 61.506,14.201 61.224,14.177 61.086,14.164 60.949,14.148 60.815,14.107 60.764,14.089 60.720,14.059 60.675,14.031 60.594,13.983 60.497,13.956 60.405,13.982 60.303,14.008 60.219,14.074 60.130,14.128 60.115,13.879 60.112,13.629 60.108,13.379 60.103,12.805 60.104,12.232 60.106,11.658 60.110,10.744 60.120,9.830 60.135,8.915 60.145,8.330 60.157,7.745 60.175,7.160 60.214,7.328 60.270,7.495 60.370,7.637 60.417,7.700 60.474,7.759 60.547,7.791 60.586,7.802 60.626,7.800 60.666,7.805 60.818,7.814 60.971,7.814 61.123,7.819 61.880,7.835 62.638,7.839 63.395,7.845 65.839,7.863 68.282,7.859 70.725,7.866 71.935,7.870 73.144,7.875 74.354,7.896 74.628,7.902 74.903,7.909 75.177,7.923 75.228,7.927 75.280,7.930 75.331,7.938 75.356,7.955 75.386,7.963 75.416,7.965 75.409,8.054 75.469,8.139 75.550,8.170 75.646,8.211 75.753,8.204 75.853,8.191 75.991,8.170 76.126,8.123 76.242,8.046 76.315,7.993 76.382,7.928 76.468,7.896 76.525,7.873 76.586,7.863 76.647,7.859 76.756,7.847 76.859,7.804 76.957,7.755 76.988,7.739 77.016,7.716 77.045,7.697 77.281,7.418 77.466,7.131 77.613,6.842 77.740,6.590 77.840,6.336 77.921,6.080 78.021,5.755 78.105,5.377 78.153,5.067 78.205,4.723 78.209,4.379 78.213,4.034 78.207,3.740 78.182,3.446 78.128,3.152 78.115,3.089 78.103,3.026 78.089,2.963 78.068,2.875 78.045,2.788 78.019,2.700 77.886,2.264 77.668,1.830 77.319,1.415 77.277,1.392 77.238,1.365 77.191,1.352 76.990,1.295 76.779,1.321 76.574,1.303 76.551,1.301 76.528,1.298 76.504,1.294 76.491,1.192 76.421,1.109 76.344,1.047 76.225,0.948 76.072,0.888 75.917,0.888 Z M 75.666,1.845 C 75.666,1.845 75.741,1.827 75.881,2.126 75.993,2.345 76.052,2.587 76.095,2.828 76.139,3.083 76.159,3.342 76.173,3.599 76.193,4.022 76.189,4.446 76.170,4.868 76.147,5.308 76.096,5.750 75.975,6.175 75.913,6.390 75.832,6.599 75.732,6.798 75.683,6.899 75.640,7.004 75.588,7.103 75.552,7.164 75.495,7.211 75.428,7.236 75.351,7.270 75.270,7.288 75.186,7.303 74.899,7.354 74.606,7.366 74.315,7.379 73.872,7.398 73.429,7.403 72.985,7.406 71.628,7.417 70.271,7.412 68.914,7.413 66.950,7.412 64.985,7.413 63.021,7.406 62.409,7.403 61.797,7.399 61.186,7.377 61.034,7.371 60.881,7.363 60.731,7.337 60.708,7.332 60.676,7.329 60.669,7.302 60.647,7.249 60.627,7.195 60.618,7.139 60.606,7.077 60.606,7.013 60.598,6.951 60.588,6.886 60.563,6.820 60.513,6.776 60.494,6.622 60.507,6.466 60.515,6.312 60.524,6.159 60.537,6.006 60.543,5.854 60.540,5.816 60.499,5.784 60.462,5.796 60.234,5.816 60.006,5.835 59.778,5.854 59.784,5.546 59.789,5.238 59.814,4.930 59.818,4.885 59.823,4.841 59.833,4.796 59.927,4.760 59.988,4.665 60.000,4.568 60.024,4.441 60.018,4.308 59.975,4.186 59.947,4.118 59.894,4.056 59.822,4.034 59.783,3.896 59.774,3.751 59.761,3.608 59.749,3.473 59.741,3.338 59.732,3.203 59.816,3.279 59.926,3.315 60.034,3.343 60.138,3.367 60.254,3.361 60.346,3.301 60.445,3.237 60.503,3.128 60.540,3.019 60.595,2.854 60.616,2.681 60.640,2.510 60.665,2.314 60.685,2.118 60.727,1.925 60.919,1.893 61.114,1.892 61.309,1.883 61.964,1.861 62.619,1.860 63.274,1.854 64.667,1.846 66.060,1.847 67.453,1.846 70.190,1.845 72.928,1.845 75.666,1.845 Z M 52.696,1.866 C 52.764,1.866 52.819,1.866 52.819,2.968 52.819,4.077 52.764,4.108 52.696,4.108 52.629,4.108 52.574,4.075 52.574,2.968 52.574,1.868 52.629,1.866 52.696,1.866 Z M 52.028,1.867 C 52.096,1.867 52.151,1.867 52.151,2.969 52.151,4.078 52.096,4.109 52.028,4.109 51.961,4.109 51.906,4.076 51.906,2.969 51.906,1.869 51.961,1.867 52.028,1.867 Z M 51.341,1.868 C 51.409,1.868 51.464,1.867 51.464,2.970 51.464,4.078 51.409,4.110 51.341,4.110 51.274,4.110 51.219,4.076 51.219,2.970 51.219,1.869 51.274,1.868 51.341,1.868 Z M 45.968,1.868 C 46.990,1.868 46.990,1.868 46.990,1.868 46.935,2.260 46.935,2.260 46.935,2.260 46.905,2.476 46.881,2.965 46.881,3.346 46.881,4.035 46.881,4.035 46.881,4.035 44.738,4.045 44.738,4.045 44.738,4.045 44.745,3.923 44.745,3.923 44.745,3.923 44.744,3.923 44.743,3.923 44.742,3.923 44.772,3.379 44.788,2.834 44.846,2.292 44.854,2.218 44.865,2.144 44.880,2.071 44.881,2.069 44.882,2.068 44.884,2.067 44.886,2.058 44.889,2.020 44.891,2.015 44.942,1.885 45.076,1.868 45.968,1.868 Z M 50.635,1.869 C 50.703,1.869 50.758,1.868 50.758,2.971 50.758,4.079 50.703,4.111 50.635,4.111 50.568,4.111 50.513,4.077 50.513,2.971 50.513,1.870 50.568,1.869 50.635,1.869 Z M 76.651,1.957 C 76.694,2.012 77.207,2.081 77.317,2.362 77.451,2.722 77.542,3.123 77.612,3.485 77.656,3.859 77.714,4.231 77.702,4.555 77.674,4.932 77.606,5.313 77.521,5.626 77.417,5.999 77.305,6.371 77.134,6.721 76.909,7.106 76.437,7.104 76.437,7.104 76.609,6.770 76.723,6.408 76.801,6.042 76.891,5.619 76.938,5.189 76.966,4.758 76.981,4.510 76.983,4.260 76.984,4.011 76.982,3.689 76.965,3.367 76.925,3.047 76.877,2.675 76.794,2.305 76.651,1.957 Z M 53.491,2.016 C 53.670,2.020 53.851,2.009 54.027,2.035 54.052,2.038 54.091,2.041 54.100,2.072 54.123,2.142 54.157,2.216 54.223,2.255 54.315,2.317 54.428,2.327 54.535,2.336 54.806,2.357 55.079,2.350 55.350,2.353 55.695,2.353 56.039,2.356 56.383,2.338 56.489,2.329 56.599,2.319 56.694,2.267 56.766,2.225 56.815,2.151 56.834,2.071 56.849,2.051 56.877,2.053 56.898,2.046 56.990,2.028 57.084,2.028 57.177,2.024 57.496,2.013 57.815,2.018 58.133,2.016 58.384,2.016 58.635,2.016 58.887,2.016 58.956,2.595 59.004,3.177 59.049,3.759 59.063,3.939 59.063,3.939 59.063,3.939 57.092,3.954 57.092,3.954 57.092,3.954 57.001,3.964 56.909,3.980 56.826,4.019 56.799,4.036 56.772,4.058 56.739,4.058 56.473,4.095 56.203,4.098 55.935,4.104 55.515,4.111 55.095,4.108 54.677,4.076 54.612,4.069 54.547,4.064 54.485,4.045 54.412,3.994 54.320,3.984 54.234,3.969 54.074,3.948 53.912,3.942 53.751,3.940 53.579,3.937 53.406,3.940 53.234,3.939 53.234,2.016 53.234,2.016 53.234,2.016 53.319,2.016 53.405,2.016 53.491,2.016 Z M 47.471,2.016 C 48.665,2.016 48.665,2.016 48.665,2.016 49.014,2.018 49.617,2.013 49.966,2.034 49.985,2.035 50.003,2.037 50.022,2.040 49.995,2.174 49.985,2.311 49.972,2.447 49.930,2.931 49.949,3.929 49.949,3.929 49.944,4.050 49.944,4.050 49.944,4.050 47.386,4.023 47.386,4.023 47.386,4.023 47.388,3.445 47.376,2.865 47.430,2.289 47.441,2.197 47.456,2.107 47.471,2.016 Z M 51.428,2.260 C 51.398,2.476 51.372,2.972 51.372,3.362 51.372,2.972 51.398,2.476 51.428,2.260 Z M 42.388,2.778 C 42.951,2.778 43.514,2.778 44.077,2.778 44.065,3.069 44.056,3.359 44.029,3.649 44.018,3.742 44.006,3.838 43.967,3.922 43.931,3.996 43.859,3.975 43.810,4.039 43.728,4.137 43.672,4.265 43.685,4.395 43.693,4.481 43.739,4.631 43.813,4.678 43.846,4.700 43.883,4.715 43.922,4.722 43.947,4.833 43.948,4.948 43.955,5.060 43.972,5.472 43.967,5.884 43.970,6.296 43.974,7.230 43.984,8.164 43.994,9.098 44.004,10.073 44.017,11.048 44.030,12.023 43.997,11.988 43.945,11.985 43.900,11.989 42.617,11.990 41.335,11.987 40.052,11.995 39.700,11.998 39.347,12.004 38.996,12.028 38.791,12.033 38.533,12.121 38.533,12.121 38.413,12.182 38.308,12.275 38.237,12.391 38.170,12.507 38.156,12.646 38.177,12.777 38.202,12.952 38.268,13.116 38.333,13.279 38.454,13.570 38.599,13.850 38.734,14.134 38.933,14.545 39.125,14.958 39.319,15.371 39.507,15.757 39.738,16.128 40.036,16.440 40.142,16.547 40.261,16.648 40.402,16.705 40.521,16.748 40.648,16.759 40.772,16.776 41.123,16.818 41.475,16.833 41.828,16.844 42.270,16.857 42.713,16.859 43.155,16.838 43.317,16.828 43.481,16.818 43.641,16.784 43.705,16.768 43.775,16.740 43.807,16.677 43.827,16.638 43.826,16.593 43.837,16.552 43.863,16.467 43.919,16.396 43.984,16.337 43.994,16.328 44.004,16.320 44.015,16.314 44.041,16.397 44.044,16.485 44.049,16.571 44.058,16.787 44.056,17.004 44.067,17.220 44.070,17.289 44.074,17.358 44.080,17.427 44.027,17.404 43.969,17.418 43.914,17.415 43.081,17.413 42.249,17.416 41.416,17.406 40.965,17.398 40.513,17.389 40.064,17.343 39.982,17.332 39.898,17.310 39.822,17.273 39.690,17.213 39.562,17.136 39.442,17.055 39.304,16.958 39.228,16.914 39.153,16.783 38.968,16.413 38.779,16.045 38.601,15.672 38.297,15.009 37.995,14.345 37.693,13.682 37.682,13.610 37.633,13.551 37.601,13.489 37.539,13.426 37.491,13.351 37.425,13.291 37.372,13.238 37.310,13.190 37.236,13.170 37.182,13.152 37.146,13.107 37.106,13.069 37.048,13.011 36.990,12.950 36.913,12.917 36.777,12.846 36.619,12.810 36.466,12.835 36.382,12.852 36.301,12.915 36.284,13.002 36.277,13.033 36.283,13.066 36.283,13.097 36.262,13.146 36.220,13.181 36.182,13.217 36.123,13.270 36.063,13.324 36.018,13.389 35.912,13.523 35.825,13.670 35.739,13.818 35.646,13.721 34.634,12.674 34.120,12.171 33.584,11.661 33.066,11.133 32.555,10.599 32.191,10.222 31.785,9.828 31.386,9.489 31.469,9.407 31.469,9.407 31.469,9.407 31.594,9.252 31.733,9.103 31.813,8.919 31.855,8.823 31.874,8.708 31.830,8.609 31.822,8.591 31.812,8.573 31.799,8.557 31.851,8.427 31.863,8.285 31.915,8.155 31.955,8.037 32.008,7.920 32.093,7.828 32.125,7.795 32.169,7.775 32.215,7.778 32.351,7.776 32.492,7.734 32.591,7.638 32.680,7.556 32.720,7.428 32.704,7.309 32.688,7.173 32.611,7.053 32.518,6.956 32.463,6.894 32.395,6.840 32.365,6.760 32.359,6.739 32.371,6.717 32.369,6.695 32.373,6.631 32.347,6.564 32.295,6.525 32.287,6.517 32.273,6.513 32.269,6.505 32.301,6.415 32.355,6.334 32.412,6.260 32.487,6.164 32.582,6.081 32.698,6.040 32.796,6.004 32.904,5.992 33.009,6.001 33.098,6.008 33.190,6.031 33.275,6.065 33.346,6.090 33.412,6.130 33.488,6.140 33.559,6.153 33.634,6.144 33.699,6.111 33.808,6.059 33.890,5.969 33.978,5.889 34.113,5.760 34.238,5.612 34.303,5.435 34.331,5.359 34.332,5.277 34.344,5.199 34.374,5.079 34.454,4.973 34.560,4.911 34.612,4.890 34.670,4.895 34.722,4.872 34.833,4.833 34.933,4.770 35.030,4.706 35.090,4.666 35.149,4.623 35.215,4.595 35.239,4.595 35.252,4.619 35.272,4.629 35.328,4.673 35.398,4.708 35.471,4.699 35.562,4.691 35.637,4.631 35.694,4.564 35.774,4.476 35.845,4.381 35.922,4.291 36.312,3.815 36.705,3.341 37.098,2.866 37.754,2.866 38.409,2.860 39.064,2.871 39.287,2.877 39.509,2.883 39.729,2.922 39.742,2.924 39.757,2.928 39.758,2.944 39.785,3.038 39.792,3.138 39.802,3.236 39.824,3.519 39.815,3.804 39.828,4.087 39.836,4.247 39.847,4.408 39.879,4.565 39.893,4.624 39.927,4.679 39.980,4.710 40.055,4.759 40.147,4.769 40.234,4.779 40.466,4.804 40.701,4.798 40.934,4.796 41.402,4.789 41.871,4.777 42.339,4.767 42.355,4.104 42.372,3.441 42.388,2.778 Z M 62.410,3.483 C 62.018,3.483 61.703,3.798 61.703,4.189 61.703,4.581 62.018,4.896 62.410,4.896 62.802,4.896 63.117,4.581 63.117,4.189 63.117,3.798 62.802,3.483 62.410,3.483 Z M 64.193,3.483 C 63.802,3.483 63.486,3.798 63.486,4.189 63.486,4.581 63.802,4.896 64.193,4.896 64.585,4.896 64.900,4.581 64.900,4.189 64.900,3.798 64.585,3.483 64.193,3.483 Z M 65.977,3.483 C 65.585,3.483 65.270,3.798 65.270,4.189 65.270,4.581 65.585,4.896 65.977,4.896 66.368,4.896 66.684,4.581 66.684,4.189 66.684,3.798 66.368,3.483 65.977,3.483 Z M 67.760,3.483 C 67.368,3.483 67.053,3.798 67.053,4.189 67.053,4.581 67.368,4.896 67.760,4.896 68.152,4.896 68.467,4.581 68.467,4.189 68.467,3.798 68.152,3.483 67.760,3.483 Z M 69.543,3.483 C 69.152,3.483 68.836,3.798 68.836,4.189 68.836,4.581 69.152,4.896 69.543,4.896 69.935,4.896 70.250,4.581 70.250,4.189 70.250,3.798 69.935,3.483 69.543,3.483 Z M 71.326,3.483 C 70.935,3.483 70.620,3.798 70.620,4.189 70.620,4.581 70.935,4.896 71.326,4.896 71.718,4.896 72.033,4.581 72.033,4.189 72.033,3.798 71.718,3.483 71.326,3.483 Z M 73.110,3.483 C 72.718,3.483 72.403,3.798 72.403,4.189 72.403,4.581 72.718,4.896 73.110,4.896 73.501,4.896 73.817,4.581 73.817,4.189 73.817,3.798 73.501,3.483 73.110,3.483 Z M 74.893,3.483 C 74.501,3.483 74.186,3.798 74.186,4.189 74.186,4.581 74.501,4.896 74.893,4.896 75.285,4.896 75.600,4.581 75.600,4.189 75.600,3.798 75.285,3.483 74.893,3.483 Z M 73.108,3.763 C 73.130,3.763 73.150,3.765 73.172,3.768 73.288,3.785 73.400,3.852 73.465,3.952 73.538,4.061 73.556,4.209 73.511,4.334 73.459,4.491 73.302,4.606 73.137,4.615 73.028,4.623 72.916,4.585 72.833,4.514 72.740,4.437 72.685,4.318 72.684,4.198 72.681,4.075 72.732,3.951 72.826,3.871 72.898,3.807 72.999,3.765 73.099,3.763 73.102,3.763 73.105,3.763 73.108,3.763 Z M 74.888,3.763 C 74.936,3.763 74.983,3.770 75.028,3.785 75.140,3.821 75.234,3.906 75.281,4.014 75.341,4.143 75.328,4.301 75.252,4.420 75.181,4.538 75.046,4.609 74.909,4.615 74.773,4.623 74.638,4.557 74.555,4.449 74.468,4.340 74.445,4.186 74.489,4.055 74.540,3.888 74.705,3.768 74.878,3.763 74.881,3.763 74.885,3.763 74.888,3.763 Z M 62.412,3.763 C 62.451,3.763 62.487,3.768 62.525,3.779 62.670,3.819 62.792,3.940 62.824,4.089 62.848,4.191 62.834,4.305 62.783,4.398 62.697,4.557 62.501,4.645 62.325,4.608 62.194,4.582 62.078,4.489 62.022,4.369 61.972,4.258 61.972,4.128 62.020,4.016 62.082,3.869 62.236,3.767 62.396,3.763 62.401,3.763 62.407,3.763 62.412,3.763 Z M 69.538,3.763 C 69.604,3.763 69.670,3.778 69.730,3.806 69.843,3.860 69.926,3.964 69.956,4.085 69.970,4.134 69.973,4.190 69.967,4.238 69.959,4.312 69.929,4.383 69.886,4.444 69.777,4.596 69.560,4.657 69.387,4.586 69.326,4.562 69.268,4.522 69.223,4.472 69.140,4.381 69.106,4.252 69.121,4.131 69.142,3.937 69.317,3.777 69.509,3.764 69.519,3.763 69.528,3.763 69.538,3.763 Z M 64.184,3.763 C 64.262,3.762 64.341,3.782 64.408,3.821 64.513,3.881 64.589,3.987 64.611,4.106 64.633,4.210 64.613,4.323 64.556,4.415 64.480,4.540 64.335,4.618 64.189,4.616 64.107,4.616 64.024,4.590 63.954,4.543 63.842,4.471 63.773,4.339 63.768,4.208 63.760,4.073 63.822,3.936 63.930,3.854 63.997,3.802 64.082,3.768 64.169,3.764 64.174,3.763 64.179,3.763 64.184,3.763 Z M 65.968,3.763 C 66.017,3.763 66.063,3.769 66.111,3.785 66.247,3.829 66.358,3.946 66.390,4.086 66.424,4.219 66.389,4.368 66.298,4.471 66.263,4.511 66.217,4.547 66.171,4.569 66.050,4.632 65.899,4.630 65.779,4.568 65.669,4.512 65.589,4.406 65.562,4.287 65.545,4.218 65.546,4.139 65.567,4.069 65.602,3.947 65.696,3.843 65.814,3.795 65.862,3.776 65.907,3.765 65.958,3.763 65.961,3.763 65.965,3.763 65.968,3.763 Z M 67.754,3.763 C 67.809,3.763 67.863,3.773 67.914,3.792 68.025,3.833 68.114,3.924 68.156,4.032 68.172,4.070 68.182,4.113 68.185,4.154 68.194,4.271 68.155,4.389 68.077,4.475 67.993,4.570 67.864,4.622 67.739,4.615 67.616,4.610 67.496,4.548 67.421,4.449 67.321,4.321 67.306,4.134 67.382,3.991 67.449,3.861 67.586,3.773 67.731,3.764 67.739,3.763 67.747,3.763 67.754,3.763 Z M 71.326,3.763 C 71.353,3.764 71.380,3.766 71.405,3.771 71.536,3.793 71.652,3.882 71.710,4.002 71.779,4.137 71.763,4.308 71.677,4.433 71.596,4.554 71.448,4.624 71.302,4.615 71.196,4.610 71.095,4.563 71.021,4.487 70.963,4.429 70.921,4.348 70.907,4.267 70.895,4.203 70.899,4.132 70.918,4.067 70.940,3.984 70.994,3.909 71.060,3.856 71.129,3.802 71.212,3.769 71.299,3.764 71.308,3.763 71.317,3.763 71.326,3.763 Z M 52.690,4.621 C 52.757,4.621 52.812,4.619 52.812,10.090 52.812,15.589 52.757,15.746 52.690,15.746 52.622,15.746 52.567,15.580 52.567,10.090 52.567,4.628 52.622,4.621 52.690,4.621 Z M 52.022,4.625 C 52.090,4.625 52.144,4.623 52.144,10.094 52.144,15.593 52.090,15.750 52.022,15.750 51.954,15.750 51.899,15.584 51.899,10.094 51.899,4.633 51.954,4.625 52.022,4.625 Z M 51.335,4.629 C 51.403,4.629 51.457,4.627 51.457,10.098 51.457,15.597 51.403,15.754 51.335,15.754 51.267,15.754 51.212,15.588 51.212,10.098 51.212,4.637 51.267,4.629 51.335,4.629 Z M 50.629,4.633 C 50.696,4.633 50.751,4.631 50.751,10.102 50.751,15.601 50.696,15.758 50.629,15.758 50.561,15.758 50.506,15.592 50.506,10.102 50.506,4.641 50.561,4.633 50.629,4.633 Z M 57.289,4.705 C 57.792,4.707 58.295,4.702 58.798,4.724 58.871,4.730 58.942,4.742 59.014,4.753 59.027,8.352 59.040,11.952 59.052,15.551 58.960,15.551 58.762,15.547 58.573,15.552 58.564,14.555 58.557,13.116 58.541,12.317 58.530,11.930 58.521,11.543 58.477,11.158 58.467,11.092 58.457,11.022 58.414,10.969 58.381,10.933 58.333,10.914 58.285,10.914 58.282,10.914 58.278,10.914 58.275,10.914 58.159,10.918 58.037,10.959 57.959,11.050 57.895,11.130 57.881,11.236 57.868,11.335 57.834,11.604 57.838,11.876 57.831,12.147 57.822,12.837 57.828,13.526 57.826,14.216 57.826,14.417 57.826,15.086 57.826,15.557 57.716,15.559 57.602,15.563 57.547,15.558 57.352,15.542 57.155,15.552 56.959,15.549 56.960,14.839 56.963,14.130 56.965,13.420 56.966,12.752 56.967,12.083 56.960,11.415 56.956,11.013 56.949,10.610 56.932,10.207 56.928,10.145 56.927,10.078 56.897,10.022 56.830,9.902 56.674,9.847 56.544,9.886 56.414,9.923 56.308,10.045 56.304,10.183 56.288,10.382 56.285,10.581 56.280,10.780 56.256,11.922 56.261,13.064 56.260,14.206 56.260,14.654 56.260,15.101 56.260,15.549 53.321,15.549 53.321,15.549 53.321,15.549 53.311,13.636 53.299,11.722 53.293,9.808 53.290,8.591 53.286,7.374 53.296,6.157 53.299,5.705 53.311,5.253 53.320,4.802 53.320,4.782 53.321,4.762 53.321,4.742 54.644,4.728 55.966,4.710 57.289,4.705 Z M 46.883,4.761 C 46.861,7.621 46.861,7.621 46.861,7.621 46.843,10.228 46.843,10.228 46.843,10.228 46.843,10.813 46.843,10.813 46.843,10.813 45.188,10.813 45.188,10.813 45.188,10.813 45.188,14.553 45.188,14.553 45.188,14.553 46.865,14.553 46.865,14.553 46.865,14.553 46.865,15.523 46.875,15.549 46.875,15.549 44.762,15.510 44.762,15.510 44.762,15.510 44.733,11.779 44.781,7.732 44.762,4.763 Z M 49.944,4.770 C 49.959,8.363 49.975,11.956 49.991,15.549 47.386,15.549 47.386,15.549 47.386,15.549 47.386,14.553 47.386,14.553 47.386,14.553 48.912,14.553 48.912,14.553 48.912,14.553 48.912,10.813 48.912,10.813 48.912,10.813 47.305,10.813 47.305,10.813 47.305,10.813 47.303,10.740 47.301,10.538 47.303,10.467 47.316,8.568 47.329,6.669 47.343,4.770 48.126,4.770 49.161,4.770 49.944,4.770 Z M 31.034,10.027 C 32.414,11.407 34.022,13.024 35.413,14.416 35.230,14.755 35.047,15.094 34.868,15.435 34.498,16.146 34.126,16.856 33.745,17.561 33.267,18.450 32.783,19.337 32.314,20.232 32.018,20.796 31.726,21.362 31.425,21.925 31.306,22.145 31.185,22.366 31.053,22.579 31.052,22.581 31.049,22.582 31.047,22.583 30.793,22.991 28.116,24.983 25.795,23.708 22.612,21.961 23.899,18.827 24.133,18.480 24.228,18.341 24.284,18.252 24.349,18.197 24.416,18.110 24.481,18.023 24.547,17.937 25.160,17.155 25.798,16.394 26.433,15.630 26.979,14.976 27.526,14.323 28.056,13.655 28.107,13.590 28.160,13.526 28.197,13.451 28.229,13.393 28.282,13.352 28.329,13.306 28.394,13.246 28.458,13.184 28.516,13.117 28.781,12.826 29.031,12.522 29.283,12.220 29.719,11.693 30.146,11.158 30.577,10.627 30.666,10.519 30.766,10.419 30.844,10.303 30.906,10.210 30.971,10.119 31.034,10.027 Z M 45.596,11.221 C 48.504,11.221 48.504,11.221 48.504,11.221 48.504,14.145 48.504,14.145 48.504,14.145 45.596,14.145 45.596,14.145 45.596,14.145 Z M 31.695,12.308 C 31.303,12.308 30.988,12.623 30.988,13.015 30.988,13.406 31.303,13.722 31.695,13.722 32.086,13.722 32.402,13.406 32.402,13.015 32.402,12.623 32.086,12.308 31.695,12.308 Z M 42.584,12.451 C 42.914,12.455 43.245,12.447 43.573,12.485 43.616,12.492 43.662,12.496 43.698,12.523 43.716,12.553 43.713,12.588 43.723,12.622 43.754,12.801 43.762,12.984 43.775,13.166 43.803,13.654 43.806,14.143 43.803,14.632 43.801,14.888 43.793,15.144 43.780,15.400 43.769,15.541 43.763,15.684 43.734,15.824 43.729,15.847 43.727,15.872 43.710,15.889 43.681,15.927 43.652,15.964 43.628,16.004 43.548,16.127 43.488,16.262 43.430,16.396 42.466,16.373 42.466,16.373 42.466,16.373 42.423,16.373 42.377,16.374 42.331,16.374 41.868,16.348 41.377,16.357 40.932,16.214 40.763,16.160 40.599,16.088 40.459,15.978 40.305,15.858 40.186,15.704 40.076,15.544 39.945,15.348 39.831,15.140 39.719,14.932 39.503,14.528 39.304,14.114 39.101,13.703 38.981,13.456 38.860,13.209 38.758,12.955 38.731,12.882 38.701,12.807 38.699,12.728 38.706,12.659 38.753,12.605 38.782,12.545 38.791,12.529 38.800,12.513 38.809,12.497 38.824,12.519 38.840,12.540 38.856,12.561 39.215,13.057 39.543,13.573 39.860,14.096 39.860,14.096 40.268,14.752 40.483,15.055 41.101,16.009 41.704,16.282 42.306,16.292 42.997,16.028 41.963,14.872 41.849,14.698 41.773,14.577 41.706,14.447 41.677,14.307 41.652,14.202 41.646,14.094 41.644,13.986 41.638,13.776 41.653,13.567 41.714,13.366 41.772,13.169 41.870,12.984 41.997,12.821 42.120,12.661 42.544,12.452 42.544,12.452 42.557,12.451 42.570,12.451 42.584,12.451 Z M 40.965,12.455 C 41.678,12.455 41.678,12.455 41.678,12.455 41.534,12.621 41.408,12.805 41.327,13.010 41.221,13.270 41.185,13.554 41.196,13.832 41.202,14.039 41.243,14.247 41.335,14.434 41.419,14.612 41.533,14.774 41.638,14.940 41.766,15.139 41.906,15.331 42.064,15.508 42.162,15.627 42.213,15.718 42.251,15.869 42.260,15.908 42.266,15.954 42.243,15.990 42.213,16.026 42.161,16.030 42.117,16.032 41.964,16.033 41.817,15.983 41.678,15.924 41.464,15.823 41.333,15.692 41.197,15.501 40.635,14.751 39.898,13.222 39.898,13.222 39.757,12.971 39.612,12.722 39.457,12.479 39.955,12.472 40.428,12.455 40.965,12.455 Z M 63.058,14.446 C 63.061,14.450 63.065,14.453 63.068,14.457 63.117,14.509 63.160,14.569 63.177,14.640 63.204,14.724 63.214,14.813 63.229,14.900 63.233,14.922 63.238,14.943 63.242,14.965 63.249,15.012 63.263,15.057 63.269,15.104 63.274,15.148 63.275,15.192 63.279,15.235 63.293,15.363 63.303,15.491 63.309,15.620 63.310,15.644 63.312,15.668 63.312,15.691 63.315,15.748 63.316,15.804 63.318,15.860 63.324,16.230 63.312,16.600 63.269,16.968 63.249,17.123 63.226,17.282 63.177,17.432 63.160,17.502 63.117,17.563 63.068,17.614 63.065,17.618 63.061,17.622 63.058,17.625 63.045,17.613 63.033,17.601 63.020,17.589 62.945,17.511 62.854,17.446 62.750,17.410 62.604,17.365 62.450,17.357 62.299,17.351 61.950,17.342 61.602,17.340 61.253,17.349 61.071,17.356 60.884,17.355 60.710,17.418 60.608,17.450 60.531,17.526 60.451,17.593 60.404,17.539 60.346,17.495 60.284,17.459 60.198,17.411 60.107,17.370 60.010,17.347 59.935,17.330 59.852,17.324 59.782,17.363 59.782,17.363 59.657,16.691 59.818,16.330 59.909,16.303 59.972,16.217 59.992,16.127 60.002,16.089 60.002,16.049 60.005,16.010 60.002,15.988 59.997,15.966 59.992,15.944 59.972,15.854 59.909,15.768 59.818,15.742 59.642,15.400 59.782,14.709 59.782,14.709 59.852,14.748 59.935,14.741 60.010,14.724 60.107,14.702 60.198,14.661 60.284,14.612 60.346,14.576 60.404,14.532 60.451,14.478 60.531,14.545 60.608,14.622 60.710,14.653 60.884,14.717 61.071,14.716 61.253,14.722 61.602,14.731 61.950,14.729 62.299,14.720 62.450,14.714 62.604,14.706 62.750,14.661 62.854,14.626 62.945,14.561 63.020,14.482 63.033,14.470 63.045,14.458 63.058,14.446 Z M 46.097,16.150 C 46.286,16.150 46.450,16.154 46.537,16.166 46.857,16.210 46.857,16.210 46.857,16.210 46.915,17.391 46.915,17.391 46.915,17.391 46.947,18.040 46.995,18.625 47.022,18.693 47.062,18.798 46.909,18.818 46.049,18.818 45.124,18.818 45.024,18.803 44.978,18.659 44.958,18.585 44.958,18.585 44.958,18.585 44.925,18.438 44.906,18.288 44.885,18.139 44.838,17.774 44.801,17.408 44.775,17.041 44.760,16.845 44.758,16.648 44.758,16.451 44.758,16.419 44.758,16.386 44.758,16.354 44.760,16.354 44.761,16.354 44.762,16.354 44.762,16.215 44.762,16.215 44.762,16.215 45.490,16.168 45.490,16.168 45.490,16.168 45.690,16.156 45.908,16.151 46.097,16.150 Z M 52.690,16.188 C 52.757,16.188 52.812,16.188 52.812,17.459 52.812,18.738 52.757,18.774 52.690,18.774 52.622,18.774 52.567,18.735 52.567,17.459 52.567,16.190 52.622,16.188 52.690,16.188 Z M 52.022,16.189 C 52.090,16.189 52.144,16.189 52.144,17.460 52.144,18.739 52.090,18.775 52.022,18.775 51.954,18.775 51.899,18.736 51.899,17.460 51.899,16.191 51.954,16.189 52.022,16.189 Z M 51.335,16.190 C 51.403,16.190 51.457,16.190 51.457,17.461 51.457,18.739 51.403,18.776 51.335,18.776 51.267,18.776 51.212,18.737 51.212,17.461 51.212,16.192 51.267,16.190 51.335,16.190 Z M 50.629,16.191 C 50.696,16.191 50.751,16.191 50.751,17.462 50.751,18.740 50.696,18.777 50.629,18.777 50.561,18.777 50.506,18.738 50.506,17.462 50.506,16.193 50.561,16.191 50.629,16.191 Z M 58.586,16.307 C 58.783,16.326 58.783,16.326 58.783,16.326 58.852,16.332 58.920,16.339 58.989,16.345 58.956,16.957 58.931,17.568 58.887,18.179 58.874,18.324 58.861,18.471 58.815,18.610 58.804,18.642 58.779,18.675 58.742,18.677 58.677,18.689 58.608,18.682 58.540,18.685 58.495,18.685 58.451,18.685 58.406,18.685 58.462,18.342 58.482,17.995 58.507,17.648 58.538,17.202 58.561,16.754 58.586,16.307 Z M 47.367,16.338 C 47.372,16.338 47.372,16.338 47.372,16.338 47.571,16.339 47.770,16.338 47.968,16.338 49.985,16.338 49.985,16.338 49.985,16.338 49.982,17.001 50.024,17.663 50.064,18.324 50.072,18.444 50.080,18.565 50.087,18.685 49.484,18.684 48.628,18.690 48.025,18.675 47.846,18.669 47.666,18.661 47.489,18.633 47.460,18.420 47.449,18.206 47.435,17.992 47.402,17.442 47.389,16.889 47.367,16.338 Z M 53.332,16.338 C 54.814,16.338 54.814,16.338 54.814,16.338 56.274,16.338 56.274,16.338 56.274,16.338 56.237,17.012 56.207,17.686 56.142,18.358 56.131,18.467 56.113,18.577 56.094,18.686 55.140,18.685 54.187,18.686 53.234,18.685 53.232,18.144 53.235,17.601 53.274,17.060 53.290,16.819 53.312,16.579 53.332,16.338 Z M 57.801,16.338 C 57.788,16.698 57.788,16.698 57.788,16.698 57.769,17.196 57.755,17.693 57.718,18.190 57.707,18.335 57.694,18.480 57.669,18.624 57.658,18.649 57.626,18.654 57.604,18.660 57.513,18.681 57.419,18.679 57.326,18.683 57.166,18.687 57.006,18.684 56.846,18.685 56.890,18.347 56.926,18.008 56.938,17.667 56.958,17.225 56.958,16.782 56.961,16.339 Z M 51.374,16.679 C 51.374,16.946 51.398,17.536 51.428,17.991 51.398,17.536 51.374,16.946 51.374,16.679 Z M 25.532,21.696 C 25.141,21.696 24.825,22.011 24.825,22.403 24.825,22.794 25.141,23.110 25.532,23.110 25.924,23.110 26.239,22.794 26.239,22.403 26.239,22.011 25.924,21.696 25.532,21.696 Z " />
</svg>