<?xml version="1.0" encoding="UTF-8" standalone="no"?>
<!DOCTYPE svg PUBLIC "-//W3C//DTD SVG 20010904//EN" "http://www.w3.org/TR/2001/REC-SVG-20010904/DTD/svg10.dtd"[]>
<svg version="1.1" id="Frosty Editor v1.0.6.3" xmlns="http://www.w3.org/2000/svg" d1p1:xlink="http://www.w3.org/1999/xlink" viewBox="0 0 384 96" xmlns:d1p1="xmlns">
  <path stroke="none" fill="#ffffffff" d="M 292.413,8.183 C 292.413,6.918 292.413,6.918 292.413,6.918 290.744,6.918 290.744,6.918 290.744,6.918 290.744,3.733 290.744,3.733 290.744,3.733 268.108,3.733 268.108,3.733 268.108,3.733 268.108,5.975 268.108,5.975 268.108,5.975 268.001,5.975 268.001,5.975 268.001,5.975 268.001,5.094 268.001,5.094 268.001,5.094 265.776,2.734 265.776,2.734 265.776,2.734 265.776,1.710 265.776,1.710 265.776,1.710 264.263,1.710 264.263,1.710 264.263,1.710 262.302,1.710 262.302,1.710 262.302,1.710 176.932,1.710 176.932,1.710 176.932,1.710 176.932,2.733 176.932,2.733 176.932,2.733 174.707,5.092 174.707,5.092 174.707,5.092 174.707,5.973 174.707,5.973 174.707,5.973 124.358,5.973 124.358,5.973 124.358,5.973 123.885,5.973 123.440,6.180 123.136,6.541 122.858,6.872 122.728,7.306 122.771,7.732 122.771,10.990 122.771,10.990 122.771,10.990 122.071,12.040 122.071,12.040 122.071,12.040 119.129,12.040 119.129,12.040 119.129,12.040 117.996,12.871 117.996,12.871 117.996,12.871 115.384,13.348 110.618,9.908 108.166,7.566 108.128,7.606 108.128,7.606 108.128,7.606 108.111,7.568 108.094,7.536 108.077,7.498 105.786,8.498 105.786,8.498 105.786,8.498 109.896,17.912 115.453,18.971 116.977,19.080 117.373,19.326 117.499,19.609 117.561,19.812 117.856,20.788 117.226,22.271 116.894,22.889 115.483,24.199 115.483,24.199 115.483,24.199 115.769,24.979 115.769,24.979 115.769,24.979 115.783,25.016 115.796,25.065 115.810,25.105 115.169,25.003 114.502,25.187 113.962,25.633 113.451,26.055 113.093,26.667 112.953,27.356 112.813,28.045 112.903,28.748 113.208,29.336 113.281,29.477 113.370,29.604 113.464,29.726 112.288,29.880 111.102,29.883 110.461,29.850 103.267,27.600 103.267,27.600 103.267,27.600 102.419,31.534 102.419,31.534 102.419,31.534 103.188,31.994 103.188,31.994 103.188,31.994 105.847,33.583 107.361,35.409 107.690,37.419 108.150,40.231 106.139,42.620 106.122,42.640 82.357,75.823 82.357,75.823 82.357,75.823 82.357,81.634 82.357,81.634 82.357,81.634 84.006,83.127 84.006,83.127 84.006,83.127 82.956,83.707 82.236,84.811 82.236,86.093 82.236,87.969 83.762,89.494 85.638,89.494 86.830,89.494 87.877,88.875 88.484,87.945 88.160,89.359 88.160,89.359 88.160,89.359 104.117,94.098 104.117,94.098 104.117,94.098 109.390,92.980 109.390,92.980 109.390,92.980 122.112,73.030 122.112,73.030 122.112,73.030 122.991,71.470 124.306,69.890 124.741,69.780 126.739,70.028 127.987,68.385 128.412,67.371 128.527,67.094 128.527,67.094 128.527,67.094 128.506,66.796 128.506,66.796 128.506,66.796 128.427,65.711 128.524,62.353 129.952,61.199 130.166,61.027 130.819,60.502 132.435,60.975 138.662,62.803 144.228,63.515 144.463,63.544 150.821,63.554 150.821,63.554 150.821,63.554 164.951,63.554 166.537,53.853 166.552,53.755 166.565,53.664 166.565,53.664 166.565,53.664 166.565,48.038 166.565,48.038 166.565,48.038 166.682,44.161 169.516,43.127 171.220,42.856 171.220,56.000 171.220,56.000 171.220,56.000 171.220,57.873 172.786,58.980 173.712,59.339 173.930,59.424 173.930,59.424 173.930,59.424 178.540,59.424 178.540,59.424 178.540,59.424 178.540,58.262 178.540,58.262 178.540,58.262 178.846,58.262 178.846,58.262 178.846,58.262 178.846,59.424 178.846,59.424 178.846,59.424 179.978,59.424 179.978,59.424 179.978,59.424 191.675,59.424 191.675,59.424 191.675,59.424 251.130,59.424 251.130,59.424 251.130,59.424 251.130,58.262 251.130,58.262 251.130,58.262 251.437,58.262 251.437,58.262 251.437,58.262 251.437,59.424 251.437,59.424 251.437,59.424 265.515,59.424 265.515,59.424 265.515,59.424 265.515,57.705 265.515,57.705 265.515,57.705 266.400,57.705 266.400,57.705 266.400,57.705 266.400,53.948 266.400,53.948 266.400,53.948 267.296,53.715 267.964,52.868 267.964,51.854 267.964,50.840 267.296,49.993 266.400,49.761 266.400,48.008 266.400,48.008 266.400,48.008 267.296,47.775 267.964,46.928 267.964,45.914 267.964,44.900 267.296,44.053 266.400,43.820 266.400,42.866 266.400,42.866 266.400,42.866 267.921,42.866 267.921,42.866 267.921,42.866 267.921,43.852 267.921,43.852 267.921,43.852 290.746,43.852 290.746,43.852 290.746,43.852 290.746,41.930 290.746,41.930 290.746,41.930 296.081,41.930 296.081,41.930 296.081,41.930 297.900,40.111 297.900,40.111 297.900,40.111 297.900,35.776 297.900,35.776 297.900,35.776 297.900,33.652 297.900,33.652 297.900,33.652 297.900,29.317 297.900,29.317 297.900,29.317 296.081,27.497 296.081,27.497 296.081,27.497 290.746,27.497 290.746,27.497 290.746,27.497 290.746,26.812 290.746,26.812 290.746,26.812 292.415,26.812 292.415,26.812 292.415,26.812 292.415,25.562 292.415,25.562 292.415,25.562 299.190,25.548 299.190,25.548 299.190,25.548 299.190,19.242 299.190,19.242 299.190,19.242 299.190,14.489 299.190,14.489 299.190,14.489 299.190,8.183 299.190,8.183 299.190,8.183 292.413,8.183 292.413,8.183 292.413,8.183 Z M 289.994,23.048 C 289.994,10.683 289.994,10.683 289.994,10.683 290.663,10.683 290.663,10.683 290.663,10.683 290.663,23.048 290.663,23.048 290.663,23.048 289.994,23.048 289.994,23.048 289.994,23.048 Z M 268.753,9.835 C 268.753,20.949 268.753,20.949 268.753,20.949 267.911,20.949 267.911,20.949 267.911,20.949 267.911,9.835 267.911,9.835 267.911,9.835 268.753,9.835 268.753,9.835 268.753,9.835 Z M 263.831,29.796 C 263.833,29.865 263.835,29.939 263.836,30.042 263.836,30.050 263.836,30.050 263.836,30.050 182.708,30.050 182.708,30.050 182.708,30.050 182.203,30.050 181.792,29.639 181.792,29.134 181.792,28.629 182.203,28.218 182.708,28.218 263.824,28.218 263.824,28.218 263.824,28.218 263.824,29.134 263.824,29.134 263.824,29.134 263.824,29.518 263.828,29.655 263.831,29.796 Z M 267.911,25.063 C 267.911,21.949 267.911,21.949 267.911,21.949 268.753,21.949 268.753,21.949 268.753,21.949 268.753,28.500 268.753,28.500 268.753,28.500 264.827,28.500 264.827,28.500 264.827,28.500 264.824,27.896 264.824,27.896 264.824,27.896 264.824,27.553 264.824,27.553 264.824,27.553 265.974,27.553 265.974,27.553 265.974,27.553 267.911,25.063 267.911,25.063 267.911,25.063 Z M 266.376,8.475 C 266.376,9.836 266.376,9.836 266.376,9.836 266.911,9.836 266.911,9.836 266.911,9.836 266.911,24.721 266.911,24.721 266.911,24.721 265.486,26.554 265.486,26.554 265.486,26.554 264.817,26.554 264.817,26.554 264.817,26.554 264.765,16.605 264.765,16.605 264.765,16.605 264.878,5.437 264.878,5.437 264.878,5.437 265.501,6.087 265.501,6.087 265.501,6.087 265.501,8.476 265.501,8.476 265.501,8.476 266.376,8.476 266.376,8.476 266.376,8.476 Z M 263.276,4.210 C 263.276,5.070 263.276,5.070 263.276,5.070 263.881,5.070 263.881,5.070 263.881,5.070 263.772,15.825 263.772,15.825 263.772,15.825 260.172,15.825 260.172,15.825 260.172,15.825 260.172,4.210 260.172,4.210 260.172,4.210 262.302,4.210 262.302,4.210 262.302,4.210 263.276,4.210 263.276,4.210 263.276,4.210 Z M 250.945,13.666 C 250.945,4.210 250.945,4.210 250.945,4.210 254.771,4.210 254.771,4.210 254.771,4.210 254.771,15.825 254.771,15.825 254.771,15.825 251.971,15.825 251.971,15.825 251.971,15.825 251.971,13.665 251.971,13.665 251.971,13.665 250.945,13.665 250.945,13.665 250.945,13.665 Z M 246.487,13.666 C 246.487,4.210 246.487,4.210 246.487,4.210 250.195,4.210 250.195,4.210 250.195,4.210 250.195,13.665 250.195,13.665 250.195,13.665 246.487,13.665 246.487,13.665 246.487,13.665 Z M 241.911,13.666 C 241.911,4.210 241.911,4.210 241.911,4.210 245.737,4.210 245.737,4.210 245.737,4.210 245.737,13.665 245.737,13.665 245.737,13.665 241.911,13.665 241.911,13.665 241.911,13.665 Z M 237.571,13.666 C 237.571,4.210 237.571,4.210 237.571,4.210 241.161,4.210 241.161,4.210 241.161,4.210 241.161,13.665 241.161,13.665 241.161,13.665 237.571,13.665 237.571,13.665 237.571,13.665 Z M 232.996,13.666 C 232.996,4.210 232.996,4.210 232.996,4.210 236.821,4.210 236.821,4.210 236.821,4.210 236.821,13.665 236.821,13.665 236.821,13.665 232.996,13.665 232.996,13.665 232.996,13.665 Z M 228.218,13.666 C 228.218,4.210 228.218,4.210 228.218,4.210 232.246,4.210 232.246,4.210 232.246,4.210 232.246,13.665 232.246,13.665 232.246,13.665 228.218,13.665 228.218,13.665 228.218,13.665 Z M 223.642,13.666 C 223.642,4.210 223.642,4.210 223.642,4.210 227.468,4.210 227.468,4.210 227.468,4.210 227.468,13.665 227.468,13.665 227.468,13.665 223.642,13.665 223.642,13.665 223.642,13.665 Z M 219.184,13.666 C 219.184,4.210 219.184,4.210 219.184,4.210 222.892,4.210 222.892,4.210 222.892,4.210 222.892,13.665 222.892,13.665 222.892,13.665 219.184,13.665 219.184,13.665 219.184,13.665 Z M 214.608,13.666 C 214.608,4.210 214.608,4.210 214.608,4.210 218.433,4.210 218.433,4.210 218.433,4.210 218.433,13.665 218.433,13.665 218.433,13.665 214.608,13.665 214.608,13.665 214.608,13.665 Z M 210.269,13.666 C 210.269,4.210 210.269,4.210 210.269,4.210 213.859,4.210 213.859,4.210 213.859,4.210 213.859,13.665 213.859,13.665 213.859,13.665 210.269,13.665 210.269,13.665 210.269,13.665 Z M 205.692,13.666 C 205.692,4.210 205.692,4.210 205.692,4.210 209.518,4.210 209.518,4.210 209.518,4.210 209.518,13.665 209.518,13.665 209.518,13.665 205.692,13.665 205.692,13.665 205.692,13.665 Z M 201.083,13.666 C 201.083,4.210 201.083,4.210 201.083,4.210 204.942,4.210 204.942,4.210 204.942,4.210 204.942,13.665 204.942,13.665 204.942,13.665 201.083,13.665 201.083,13.665 201.083,13.665 Z M 183.133,15.691 C 183.133,4.210 183.133,4.210 183.133,4.210 186.723,4.210 186.723,4.210 186.723,4.210 186.723,15.690 186.723,15.690 186.723,15.690 183.133,15.690 183.133,15.690 183.133,15.690 Z M 187.473,4.210 C 191.299,4.210 191.299,4.210 191.299,4.210 191.299,15.690 191.299,15.690 191.299,15.690 187.473,15.690 187.473,15.690 187.473,15.690 187.473,4.210 187.473,4.210 187.473,4.210 Z M 192.049,4.210 C 195.757,4.210 195.757,4.210 195.757,4.210 195.757,15.690 195.757,15.690 195.757,15.690 192.049,15.690 192.049,15.690 192.049,15.690 192.049,4.210 192.049,4.210 192.049,4.210 Z M 196.507,4.210 C 200.333,4.210 200.333,4.210 200.333,4.210 200.333,13.665 200.333,13.665 200.333,13.665 200.208,13.665 200.208,13.665 200.208,13.665 200.208,15.690 200.208,15.690 200.208,15.690 196.507,15.690 196.507,15.690 196.507,15.690 196.507,4.210 196.507,4.210 196.507,4.210 Z M 255.521,4.210 C 259.422,4.210 259.422,4.210 259.422,4.210 259.422,15.825 259.422,15.825 259.422,15.825 255.521,15.825 255.521,15.825 255.521,15.825 255.521,4.210 255.521,4.210 255.521,4.210 Z M 179.433,4.210 C 182.384,4.210 182.384,4.210 182.384,4.210 182.384,15.690 182.384,15.690 182.384,15.690 178.558,15.690 178.558,15.690 178.558,15.690 178.558,5.070 178.558,5.070 178.558,5.070 179.433,5.070 179.433,5.070 179.433,5.070 179.433,4.210 179.433,4.210 179.433,4.210 Z M 177.208,8.475 C 177.208,6.086 177.208,6.086 177.208,6.086 177.808,5.450 177.808,5.450 177.808,5.450 177.808,15.690 177.808,15.690 177.808,15.690 176.458,15.690 176.458,15.690 176.458,15.690 176.458,8.475 176.458,8.475 176.458,8.475 177.208,8.475 177.208,8.475 177.208,8.475 Z M 175.458,8.475 C 175.458,15.691 175.458,15.691 175.458,15.691 171.994,15.691 171.994,15.691 171.994,15.691 171.994,19.027 171.994,19.027 171.994,19.027 171.462,19.091 170.980,19.353 170.598,19.770 170.154,20.255 169.907,20.897 169.904,21.577 169.901,22.197 170.110,22.760 170.447,23.208 144.146,23.208 144.146,23.208 144.146,23.208 143.646,23.208 143.646,23.208 143.646,23.208 124.859,23.208 124.859,23.208 124.859,23.208 124.859,17.162 124.859,17.162 124.859,17.162 125.469,17.035 126.029,16.685 126.465,16.126 126.988,15.457 127.274,14.579 127.269,13.655 127.265,12.730 126.972,11.855 126.442,11.191 126.111,10.775 125.707,10.497 125.271,10.322 125.271,8.475 125.271,8.475 125.271,8.475 175.458,8.475 175.458,8.475 175.458,8.475 Z M 172.043,38.309 C 146.636,38.310 146.636,38.310 146.636,38.310 146.013,38.359 145.522,38.220 145.195,37.901 144.599,37.320 144.644,36.293 144.645,36.255 144.645,24.208 144.645,24.208 144.645,24.208 171.995,24.208 171.995,24.208 171.995,24.208 172.043,38.309 172.043,38.309 172.043,38.309 Z M 170.904,21.582 C 170.906,21.151 171.059,20.748 171.336,20.446 171.474,20.296 171.633,20.181 171.805,20.106 171.792,23.066 171.792,23.066 171.792,23.066 171.271,22.834 170.901,22.255 170.904,21.582 Z M 123.856,14.708 C 123.843,17.668 123.843,17.668 123.843,17.668 123.672,17.591 123.513,17.475 123.377,17.324 123.104,17.020 122.954,16.615 122.956,16.185 122.959,15.511 123.333,14.935 123.856,14.708 Z M 122.735,19.774 C 122.955,19.625 122.955,19.625 122.955,19.625 122.955,18.286 122.955,18.286 122.955,18.286 123.227,18.499 123.532,18.650 123.859,18.723 123.859,23.174 123.859,23.174 123.859,23.174 121.994,23.174 121.994,23.174 121.994,23.174 121.994,21.197 121.994,21.197 121.994,21.197 121.965,20.318 122.706,19.794 122.735,19.774 Z M 124.859,13.606 C 124.859,12.368 124.859,12.368 124.859,12.368 125.272,11.748 125.272,11.748 125.272,11.748 125.272,11.433 125.272,11.433 125.272,11.433 125.411,11.536 125.542,11.663 125.661,11.812 126.051,12.301 126.267,12.957 126.270,13.657 126.273,14.358 126.063,15.015 125.678,15.508 125.446,15.805 125.169,16.016 124.871,16.128 124.861,13.903 124.861,13.903 124.861,13.903 124.862,13.605 124.862,13.605 124.862,13.605 124.859,13.605 124.859,13.605 124.859,13.605 Z M 117.570,16.588 C 117.276,16.593 117.276,16.593 117.276,16.593 117.109,16.589 114.598,16.566 111.746,13.429 113.580,14.524 115.637,15.412 117.510,15.412 117.972,15.412 118.424,15.358 118.857,15.240 119.081,15.179 119.081,15.179 119.081,15.179 119.949,14.542 119.949,14.542 119.949,14.542 121.955,14.542 121.955,14.542 121.955,14.542 121.955,19.121 121.955,19.121 121.955,19.121 121.603,19.434 120.959,20.155 120.994,21.214 120.994,23.209 120.994,23.209 120.994,23.209 119.507,23.209 119.507,23.209 119.507,23.209 119.942,22.168 120.400,20.573 119.957,19.100 119.642,18.049 118.914,17.225 117.853,16.717 117.570,16.588 117.570,16.588 117.570,16.588 Z M 114.914,27.756 C 114.962,27.517 115.081,27.306 115.238,27.175 115.283,27.138 115.400,27.050 115.504,27.073 116.262,27.227 116.262,27.227 116.262,27.227 116.312,27.797 116.280,28.316 116.128,28.679 115.158,28.604 115.158,28.604 115.158,28.604 115.072,28.567 115.010,28.463 114.986,28.417 114.891,28.236 114.865,27.995 114.914,27.756 Z M 85.638,87.494 C 84.865,87.494 84.236,86.865 84.236,86.093 84.236,85.321 84.865,84.692 85.638,84.692 85.675,84.692 85.711,84.700 85.747,84.703 87.015,85.851 87.015,85.851 87.015,85.851 87.029,85.930 87.040,86.010 87.040,86.094 87.040,86.865 86.411,87.494 85.638,87.494 Z M 164.064,48.000 C 164.064,53.463 164.064,53.463 164.064,53.463 163.894,54.321 162.192,61.054 150.820,61.054 144.700,61.054 144.700,61.054 144.700,61.054 144.018,60.963 138.785,60.234 133.139,58.576 130.762,57.878 129.237,58.559 128.377,59.257 125.996,61.184 125.942,65.284 125.992,66.611 125.819,66.895 125.469,67.349 125.057,67.299 122.882,67.031 120.745,70.357 119.969,71.744 107.846,90.751 107.846,90.751 107.846,90.751 104.220,91.520 104.220,91.520 104.220,91.520 91.121,87.630 91.121,87.630 91.121,87.630 91.393,86.441 91.393,86.441 91.393,86.441 84.857,80.525 84.857,80.525 84.857,80.525 84.857,76.627 84.857,76.627 84.857,76.627 108.055,44.229 108.055,44.229 108.055,44.229 108.424,43.784 110.761,40.791 110.164,37.047 109.817,34.872 108.572,32.919 106.456,31.218 109.863,32.283 109.863,32.283 109.863,32.283 110.150,32.337 110.150,32.337 110.150,32.337 110.587,32.367 114.478,32.593 116.943,31.325 119.438,30.040 118.824,26.557 118.373,24.930 118.738,24.591 118.738,24.591 118.738,24.591 118.959,24.319 118.959,24.319 118.959,24.319 118.970,24.300 119.000,24.246 119.022,24.209 143.646,24.209 143.646,24.209 143.646,24.209 143.647,36.228 143.647,36.228 143.647,36.228 143.644,36.288 143.572,37.708 144.491,38.612 145.033,39.144 145.781,39.379 146.674,39.310 172.045,39.310 172.045,39.310 172.045,39.310 172.045,40.267 172.045,40.267 172.045,40.267 169.131,40.343 164.245,42.013 164.064,48.000 Z M 178.916,40.754 C 177.798,40.754 176.889,39.844 176.889,38.727 176.889,37.609 177.799,36.699 178.916,36.699 180.034,36.699 180.944,37.609 180.944,38.727 180.943,39.845 180.034,40.754 178.916,40.754 Z M 251.440,40.754 C 250.322,40.754 249.413,39.844 249.413,38.727 249.413,37.609 250.322,36.699 251.440,36.699 252.558,36.699 253.467,37.609 253.467,38.727 253.468,39.845 252.559,40.754 251.440,40.754 Z M 263.898,55.205 C 263.013,55.205 263.013,55.205 263.013,55.205 263.013,56.924 263.013,56.924 263.013,56.924 253.935,56.924 253.935,56.924 253.935,56.924 253.935,55.762 253.935,55.762 253.935,55.762 252.280,55.762 252.280,55.762 252.280,55.762 252.280,42.663 252.280,42.663 252.280,42.663 254.098,42.275 255.467,40.659 255.467,38.727 255.467,36.506 253.660,34.699 251.440,34.699 249.220,34.699 247.413,36.506 247.413,38.727 247.413,40.552 248.641,42.080 250.309,42.573 250.309,55.762 250.309,55.762 250.309,55.762 248.629,55.762 248.629,55.762 248.629,55.762 248.629,56.924 248.629,56.924 248.629,56.924 191.674,56.924 191.674,56.924 191.674,56.924 181.345,56.924 181.345,56.924 181.345,56.924 181.345,55.762 181.345,55.762 181.345,55.762 179.901,55.762 179.901,55.762 179.901,55.762 179.901,42.618 179.901,42.618 179.901,42.618 181.644,42.175 182.943,40.606 182.943,38.727 182.943,36.506 181.136,34.699 178.915,34.699 176.694,34.699 174.888,36.506 174.888,38.727 174.888,40.606 176.187,42.175 177.930,42.618 177.930,55.762 177.930,55.762 177.930,55.762 176.040,55.762 176.040,55.762 176.040,55.762 176.040,56.924 176.040,56.924 176.040,56.924 174.448,56.924 174.448,56.924 174.448,56.924 174.189,56.778 173.719,56.452 173.719,56.000 173.719,40.299 173.719,40.299 173.719,40.299 173.045,40.280 173.045,40.280 173.045,40.280 173.045,39.309 173.045,39.309 173.045,39.309 173.046,39.309 173.046,39.309 173.046,39.309 173.045,38.872 173.045,38.872 173.045,38.872 173.045,38.809 173.045,38.809 173.045,38.809 173.045,38.809 173.045,38.809 173.045,38.809 172.994,23.706 172.994,23.706 172.994,23.706 172.994,16.690 172.994,16.690 172.994,16.690 201.208,16.690 201.208,16.690 201.208,16.690 201.208,14.665 201.208,14.665 201.208,14.665 201.921,14.665 201.921,14.665 201.921,14.665 201.921,25.325 201.921,25.325 201.921,25.325 201.921,25.529 202.088,25.696 202.292,25.696 202.496,25.696 202.663,25.529 202.663,25.325 202.663,14.665 202.663,14.665 202.663,14.665 203.619,14.665 203.619,14.665 203.619,14.665 203.619,25.325 203.619,25.325 203.619,25.325 203.619,25.529 203.786,25.696 203.990,25.696 204.194,25.696 204.361,25.529 204.361,25.325 204.361,14.665 204.361,14.665 204.361,14.665 205.317,14.665 205.317,14.665 205.317,14.665 205.317,25.325 205.317,25.325 205.317,25.325 205.317,25.529 205.484,25.696 205.688,25.696 205.688,25.696 205.688,25.696 205.688,25.696 205.892,25.696 206.059,25.529 206.059,25.325 206.059,14.665 206.059,14.665 206.059,14.665 207.239,14.665 207.239,14.665 207.239,14.665 207.239,25.325 207.239,25.325 207.239,25.325 207.239,25.529 207.406,25.696 207.610,25.696 207.814,25.696 207.981,25.529 207.981,25.325 207.981,14.665 207.981,14.665 207.981,14.665 209.034,14.665 209.034,14.665 209.034,14.665 209.034,25.325 209.034,25.325 209.034,25.325 209.034,25.529 209.201,25.696 209.405,25.696 209.609,25.696 209.776,25.529 209.776,25.325 209.776,14.665 209.776,14.665 209.776,14.665 210.678,14.665 210.678,14.665 210.678,14.665 210.678,25.325 210.678,25.325 210.678,25.325 210.678,25.529 210.845,25.696 211.049,25.696 211.253,25.696 211.420,25.529 211.420,25.325 211.420,14.665 211.420,14.665 211.420,14.665 212.625,14.665 212.625,14.665 212.625,14.665 212.625,25.325 212.625,25.325 212.625,25.325 212.625,25.529 212.792,25.696 212.996,25.696 213.200,25.696 213.367,25.529 213.367,25.325 213.367,14.665 213.367,14.665 213.367,14.665 214.395,14.665 214.395,14.665 214.395,14.665 214.395,25.325 214.395,25.325 214.395,25.325 214.395,25.529 214.562,25.696 214.766,25.696 214.970,25.696 215.137,25.529 215.137,25.325 215.137,14.665 215.137,14.665 215.137,14.665 216.165,14.665 216.165,14.665 216.165,14.665 216.165,25.325 216.165,25.325 216.165,25.325 216.165,25.529 216.332,25.696 216.536,25.696 216.740,25.696 216.907,25.529 216.907,25.325 216.907,14.665 216.907,14.665 216.907,14.665 217.960,14.665 217.960,14.665 217.960,14.665 217.960,25.325 217.960,25.325 217.960,25.325 217.960,25.529 218.127,25.696 218.331,25.696 218.535,25.696 218.702,25.529 218.702,25.325 218.702,14.665 218.702,14.665 218.702,14.665 219.755,14.665 219.755,14.665 219.755,14.665 219.755,25.325 219.755,25.325 219.755,25.325 219.755,25.529 219.922,25.696 220.126,25.696 220.330,25.696 220.497,25.529 220.497,25.325 220.497,14.665 220.497,14.665 220.497,14.665 221.512,14.665 221.512,14.665 221.512,14.665 221.512,25.325 221.512,25.325 221.512,25.325 221.512,25.529 221.679,25.696 221.883,25.696 222.087,25.696 222.254,25.529 222.254,25.325 222.254,14.665 222.254,14.665 222.254,14.665 223.269,14.665 223.269,14.665 223.269,14.665 223.269,25.325 223.269,25.325 223.269,25.325 223.269,25.529 223.436,25.696 223.640,25.696 223.844,25.696 224.011,25.529 224.011,25.325 224.011,14.665 224.011,14.665 224.011,14.665 225.216,14.665 225.216,14.665 225.216,14.665 225.216,25.325 225.216,25.325 225.216,25.325 225.216,25.529 225.383,25.696 225.587,25.696 225.791,25.696 225.958,25.529 225.958,25.325 225.958,14.665 225.958,14.665 225.958,14.665 226.935,14.665 226.935,14.665 226.935,14.665 226.935,25.325 226.935,25.325 226.935,25.325 226.935,25.529 227.102,25.696 227.306,25.696 227.510,25.696 227.677,25.529 227.677,25.325 227.677,14.665 227.677,14.665 227.677,14.665 228.730,14.665 228.730,14.665 228.730,14.665 228.730,25.325 228.730,25.325 228.730,25.325 228.730,25.529 228.897,25.696 229.101,25.696 229.305,25.696 229.472,25.529 229.472,25.325 229.472,14.665 229.472,14.665 229.472,14.665 230.551,14.665 230.551,14.665 230.551,14.665 230.551,25.325 230.551,25.325 230.551,25.325 230.551,25.529 230.718,25.696 230.922,25.696 231.126,25.696 231.293,25.529 231.293,25.325 231.293,14.665 231.293,14.665 231.293,14.665 232.254,14.665 232.254,14.665 232.254,14.665 232.254,25.325 232.254,25.325 232.254,25.325 232.254,25.529 232.421,25.696 232.625,25.696 232.829,25.696 232.996,25.529 232.996,25.325 232.996,14.665 232.996,14.665 232.996,14.665 234.176,14.665 234.176,14.665 234.176,14.665 234.176,25.325 234.176,25.325 234.176,25.325 234.176,25.529 234.343,25.696 234.547,25.696 234.751,25.696 234.918,25.529 234.918,25.325 234.918,14.665 234.918,14.665 234.918,14.665 235.744,14.665 235.744,14.665 235.744,14.665 235.744,25.325 235.744,25.325 235.744,25.325 235.744,25.529 235.911,25.696 236.115,25.696 236.319,25.696 236.486,25.529 236.486,25.325 236.486,14.665 236.486,14.665 236.486,14.665 237.615,14.665 237.615,14.665 237.615,14.665 237.615,25.325 237.615,25.325 237.615,25.325 237.615,25.529 237.782,25.696 237.986,25.696 238.190,25.696 238.357,25.529 238.357,25.325 238.357,14.665 238.357,14.665 238.357,14.665 239.360,14.665 239.360,14.665 239.360,14.665 239.360,25.325 239.360,25.325 239.360,25.325 239.360,25.529 239.527,25.696 239.731,25.696 239.935,25.696 240.102,25.529 240.102,25.325 240.102,14.665 240.102,14.665 240.102,14.665 241.172,14.665 241.172,14.665 241.172,14.665 241.172,25.325 241.172,25.325 241.172,25.325 241.172,25.529 241.339,25.696 241.543,25.696 241.747,25.696 241.914,25.529 241.914,25.325 241.914,14.665 241.914,14.665 241.914,14.665 243.043,14.665 243.043,14.665 243.043,14.665 243.043,25.325 243.043,25.325 243.043,25.325 243.043,25.529 243.210,25.696 243.414,25.696 243.618,25.696 243.785,25.529 243.785,25.325 243.785,14.665 243.785,14.665 243.785,14.665 244.838,14.665 244.838,14.665 244.838,14.665 244.838,25.325 244.838,25.325 244.838,25.325 244.838,25.529 245.005,25.696 245.209,25.696 245.413,25.696 245.580,25.529 245.580,25.325 245.580,14.665 245.580,14.665 245.580,14.665 246.608,14.665 246.608,14.665 246.608,14.665 246.608,25.325 246.608,25.325 246.608,25.325 246.608,25.529 246.775,25.696 246.979,25.696 247.183,25.696 247.350,25.529 247.350,25.325 247.350,14.665 247.350,14.665 247.350,14.665 248.328,14.665 248.328,14.665 248.328,14.665 248.328,25.325 248.328,25.325 248.328,25.325 248.328,25.529 248.495,25.696 248.699,25.696 248.903,25.696 249.070,25.529 249.070,25.325 249.070,14.665 249.070,14.665 249.070,14.665 250.980,14.665 250.980,14.665 250.980,14.665 250.980,16.825 250.980,16.825 250.980,16.825 263.771,16.825 263.771,16.825 263.771,16.825 263.768,17.096 263.768,17.096 263.768,17.096 263.776,17.096 263.776,17.096 263.776,17.096 263.829,27.218 263.829,27.218 263.829,27.218 182.716,27.218 182.716,27.218 182.716,27.218 181.659,27.218 180.800,28.077 180.800,29.134 180.800,30.191 181.659,31.050 182.716,31.050 263.849,31.050 263.849,31.050 263.849,31.050 263.906,42.013 263.906,42.013 263.906,42.013 263.906,55.205 263.906,55.205 263.906,55.205 Z M 269.753,40.365 C 269.753,29.500 269.753,29.500 269.753,29.500 269.753,29.000 269.753,29.000 269.753,29.000 269.753,21.449 269.753,21.449 269.753,21.449 269.753,20.949 269.753,20.949 269.753,20.949 269.753,9.835 269.753,9.835 269.753,9.835 270.608,9.835 270.608,9.835 270.608,9.835 270.608,6.233 270.608,6.233 270.608,6.233 273.943,6.233 273.943,6.233 273.943,6.233 273.943,41.351 273.943,41.351 273.943,41.351 270.419,41.351 270.419,41.351 270.419,41.351 270.419,40.365 270.419,40.365 270.419,40.365 269.753,40.365 269.753,40.365 269.753,40.365 Z M 288.244,41.351 C 274.943,41.351 274.943,41.351 274.943,41.351 274.943,6.233 274.943,6.233 274.943,6.233 288.244,6.233 288.244,6.233 288.244,6.233 288.244,9.419 288.244,9.419 288.244,9.419 288.994,9.419 288.994,9.419 288.994,9.419 288.994,24.306 288.994,24.306 288.994,24.306 288.244,24.312 288.244,24.312 288.244,24.312 288.244,29.997 288.244,29.997 288.244,29.997 288.994,29.997 288.994,29.997 288.994,29.997 288.994,39.430 288.994,39.430 288.994,39.430 288.244,39.430 288.244,39.430 288.244,39.430 288.244,41.351 288.244,41.351 288.244,41.351 Z M 295.044,29.997 C 295.398,30.352 295.398,30.352 295.398,30.352 295.398,33.652 295.398,33.652 295.398,33.652 295.398,35.776 295.398,35.776 295.398,35.776 295.398,39.076 295.398,39.076 295.398,39.076 295.044,39.430 295.044,39.430 295.044,39.430 289.994,39.430 289.994,39.430 289.994,39.430 289.994,29.997 289.994,29.997 289.994,29.997 295.044,29.997 295.044,29.997 295.044,29.997 Z M 296.688,19.242 C 296.688,23.048 296.688,23.048 296.688,23.048 291.663,23.048 291.663,23.048 291.663,23.048 291.663,10.683 291.663,10.683 291.663,10.683 296.688,10.683 296.688,10.683 296.688,10.683 296.688,14.489 296.688,14.489 296.688,14.489 296.688,19.242 296.688,19.242 296.688,19.242 Z " />
  <path stroke="none" fill="#ffffffff" d="M 154.596,42.379 C 146.708,42.379 146.708,42.379 146.708,42.379 142.004,42.379 138.177,46.206 138.177,50.910 138.177,55.614 142.004,59.441 146.708,59.441 154.596,59.441 154.596,59.441 154.596,59.441 159.300,59.441 163.127,55.614 163.127,50.910 163.127,46.206 159.300,42.379 154.596,42.379 Z M 147.741,51.887 C 145.093,49.835 144.507,46.935 144.401,45.339 145.076,45.059 145.812,44.901 146.583,44.885 146.289,46.336 146.200,48.840 147.741,51.887 Z M 154.596,56.941 C 146.708,56.941 146.708,56.941 146.708,56.941 143.382,56.941 140.677,54.235 140.677,50.910 140.677,49.417 141.225,48.052 142.127,46.998 142.702,50.006 144.603,54.384 150.692,56.052 150.700,56.024 150.700,56.024 150.700,56.024 150.713,56.038 150.724,56.052 150.737,56.067 152.554,54.350 152.554,54.350 152.554,54.350 148.082,49.618 148.827,45.891 149.151,44.880 154.595,44.880 154.595,44.880 154.595,44.880 157.920,44.880 160.626,47.586 160.626,50.911 160.626,54.236 157.921,56.941 154.596,56.941 Z " />
  <path stroke="none" fill="#ffffffff" d="M 114.369,37.726 C 118.361,38.857 118.361,38.857 118.361,38.857 118.435,38.878 118.511,38.874 118.585,38.888 118.805,38.947 119.031,38.989 119.270,38.989 120.730,38.989 121.919,37.801 121.919,36.340 121.919,36.133 121.889,35.933 121.844,35.739 121.673,34.713 120.938,33.823 119.873,33.521 115.882,32.391 115.882,32.391 115.882,32.391 115.173,32.189 114.423,32.278 113.776,32.640 113.128,33.002 112.660,33.593 112.459,34.303 112.258,35.013 112.346,35.761 112.708,36.409 113.070,37.057 113.659,37.525 114.369,37.726 Z M 119.269,34.691 C 120.054,34.691 120.710,35.243 120.875,35.979 120.902,36.205 120.887,36.440 120.821,36.672 120.578,37.529 119.745,38.053 118.885,37.939 118.161,37.765 117.619,37.116 117.619,36.340 117.620,35.431 118.360,34.691 119.269,34.691 Z M 113.419,34.575 C 113.547,34.122 113.846,33.745 114.261,33.513 114.531,33.363 114.827,33.286 115.126,33.286 115.287,33.286 115.449,33.308 115.607,33.353 117.998,34.030 117.998,34.030 117.998,34.030 117.180,34.481 116.619,35.342 116.619,36.340 116.619,36.712 116.697,37.065 116.836,37.386 114.640,36.764 114.640,36.764 114.640,36.764 114.187,36.636 113.810,36.336 113.578,35.922 113.348,35.506 113.291,35.028 113.419,34.575 Z " />
  <path stroke="none" fill="#ffffffff" d="M 120.871,28.657 C 121.844,28.657 122.635,27.865 122.635,26.893 122.635,25.921 121.843,25.129 120.871,25.129 119.899,25.129 119.107,25.920 119.107,26.893 119.107,27.866 119.898,28.657 120.871,28.657 Z M 120.871,26.129 C 121.292,26.129 121.635,26.472 121.635,26.893 121.635,27.314 121.292,27.657 120.871,27.657 120.450,27.657 120.107,27.314 120.107,26.893 120.107,26.472 120.450,26.129 120.871,26.129 Z " />
  <path stroke="none" fill="#ffffffff" d="M 132.686,40.264 C 131.713,40.264 130.922,41.056 130.922,42.028 130.922,43.000 131.714,43.792 132.686,43.792 133.658,43.792 134.450,43.001 134.450,42.028 134.450,41.055 133.658,40.264 132.686,40.264 Z M 132.686,42.792 C 132.265,42.792 131.922,42.449 131.922,42.028 131.922,41.607 132.265,41.264 132.686,41.264 133.107,41.264 133.450,41.607 133.450,42.028 133.449,42.449 133.106,42.792 132.686,42.792 Z " />
  <path stroke="none" fill="#ffffffff" d="M 168.913,36.511 C 168.913,37.165 169.445,37.697 170.100,37.697 170.754,37.697 171.286,37.165 171.286,36.511 171.286,35.857 170.754,35.324 170.100,35.324 169.445,35.324 168.913,35.856 168.913,36.511 Z M 170.536,36.511 C 170.536,36.751 170.340,36.947 170.100,36.947 169.859,36.947 169.663,36.751 169.663,36.511 169.663,36.270 169.859,36.074 170.100,36.074 170.340,36.074 170.536,36.270 170.536,36.511 Z " />
  <path stroke="none" fill="#ffffffff" d="M 158.236,32.030 C 156.863,32.030 155.746,33.147 155.746,34.521 155.746,35.894 156.863,37.011 158.236,37.011 159.609,37.011 160.726,35.894 160.726,34.521 160.726,33.147 159.609,32.030 158.236,32.030 Z M 158.236,36.011 C 157.414,36.011 156.746,35.343 156.746,34.521 156.746,33.699 157.414,33.030 158.236,33.030 159.058,33.030 159.726,33.699 159.726,34.521 159.726,35.343 159.058,36.011 158.236,36.011 Z " />
  <path stroke="none" fill="#ffffffff" d="M 137.313,55.431 C 136.340,55.431 135.549,56.223 135.549,57.196 135.549,58.169 136.340,58.960 137.313,58.960 138.286,58.960 139.077,58.169 139.077,57.196 139.077,56.223 138.286,55.431 137.313,55.431 Z M 137.313,57.959 C 136.892,57.959 136.549,57.616 136.549,57.195 136.549,56.773 136.892,56.430 137.313,56.430 137.734,56.430 138.077,56.773 138.077,57.195 138.078,57.616 137.735,57.959 137.313,57.959 Z " />
  <path stroke="none" fill="#ffffffff" d="M 130.241,32.230 C 130.241,31.257 131.033,30.466 132.005,30.466 132.977,30.466 133.769,31.258 133.769,32.230 133.769,33.202 132.977,33.994 132.005,33.994 131.033,33.994 130.241,33.203 130.241,32.230 Z " />
  <path stroke="none" fill="#ffffffff" d="M 132.005,38.989 C 135.732,38.989 138.764,35.957 138.764,32.230 138.764,28.503 135.732,25.471 132.005,25.471 128.278,25.471 125.246,28.503 125.246,32.230 125.246,35.957 128.278,38.989 132.005,38.989 Z M 132.005,26.471 C 135.180,26.471 137.764,29.054 137.764,32.230 137.764,35.406 135.181,37.989 132.005,37.989 128.829,37.989 126.246,35.406 126.246,32.230 126.246,29.054 128.830,26.471 132.005,26.471 Z " />
  <path stroke="none" fill="#ffffffff" d="M 147.820,29.135 C 168.415,29.135 168.415,29.135 168.415,29.135 169.045,29.135 169.561,28.619 169.561,27.989 169.561,27.359 169.045,26.843 168.415,26.843 147.820,26.843 147.820,26.843 147.820,26.843 147.190,26.843 146.674,27.359 146.674,27.989 146.674,28.619 147.190,29.135 147.820,29.135 Z " />
  <path stroke="none" fill="#ffffffff" d="M 147.214,34.292 C 153.854,34.292 153.854,34.292 153.854,34.292 154.484,34.292 155.000,33.776 155.000,33.146 155.000,32.516 154.484,32.000 153.854,32.000 147.214,32.000 147.214,32.000 147.214,32.000 146.584,32.000 146.068,32.516 146.068,33.146 146.067,33.776 146.583,34.292 147.214,34.292 Z " />
  <path stroke="none" fill="#ffffffff" d="M 95.627,66.060 C 95.221,65.771 94.653,65.866 94.364,66.272 89.335,73.329 89.335,73.329 89.335,73.329 89.046,73.735 89.141,74.303 89.547,74.592 89.953,74.881 90.521,74.786 90.810,74.380 95.839,67.323 95.839,67.323 95.839,67.323 96.128,66.917 96.033,66.349 95.627,66.060 Z " />
  <path stroke="none" fill="#ffffffff" d="M 162.618,31.966 C 161.988,31.966 161.472,32.482 161.472,33.112 161.472,33.742 161.988,34.258 162.618,34.258 169.258,34.258 169.258,34.258 169.258,34.258 169.888,34.258 170.404,33.742 170.404,33.112 170.404,32.482 169.888,31.966 169.258,31.966 162.618,31.966 162.618,31.966 162.618,31.966 Z " />
  <path stroke="none" fill="#ffffffff" d="M 110.851,59.159 C 108.630,59.159 106.823,60.966 106.823,63.186 106.823,65.406 108.630,67.213 110.851,67.213 113.072,67.213 114.878,65.406 114.878,63.186 114.878,60.966 113.072,59.159 110.851,59.159 Z M 110.851,65.214 C 109.733,65.214 108.823,64.305 108.823,63.187 108.823,62.069 109.733,61.160 110.851,61.160 111.969,61.160 112.878,62.069 112.878,63.187 112.878,64.305 111.969,65.214 110.851,65.214 Z " />
  <path stroke="none" fill="#ffffffff" d="M 125.659,41.818 C 125.659,41.818 125.659,41.818 125.659,41.818 123.702,40.460 121.226,40.113 118.683,40.844 116.214,41.553 113.983,43.200 112.400,45.480 92.272,74.463 92.272,74.463 92.272,74.463 106.730,84.504 106.730,84.504 106.730,84.504 126.857,55.522 126.857,55.522 126.857,55.522 130.183,50.734 129.645,44.587 125.659,41.818 Z M 106.229,81.721 C 95.056,73.961 95.056,73.961 95.056,73.961 113.938,46.772 113.938,46.772 113.938,46.772 113.943,49.043 115.155,51.220 117.501,52.877 118.078,52.061 118.078,52.061 118.078,52.061 117.501,52.878 117.501,52.878 117.501,52.878 119.001,53.936 120.666,54.448 122.292,54.448 123.469,54.448 124.623,54.172 125.682,53.648 125.538,53.895 125.383,54.140 125.216,54.381 106.229,81.721 106.229,81.721 106.229,81.721 Z M 126.951,50.044 C 125.205,52.359 121.849,53.499 118.655,51.243 118.655,51.244 118.655,51.244 118.655,51.244 115.816,49.238 115.170,46.492 116.881,43.851 119.389,42.218 122.353,41.957 124.519,43.461 126.508,44.843 127.335,47.377 126.951,50.044 Z " />
</svg>