<?xml version="1.0" encoding="UTF-8" standalone="no"?>
<!DOCTYPE svg PUBLIC "-//W3C//DTD SVG 20010904//EN" "http://www.w3.org/TR/2001/REC-SVG-20010904/DTD/svg10.dtd"[]>
<svg version="1.1" id="Frosty Editor v1.0.6.3" xmlns="http://www.w3.org/2000/svg" d1p1:xlink="http://www.w3.org/1999/xlink" viewBox="0 0 25 25" xmlns:d1p1="xmlns">
  <path stroke="none" fill="#ffffffff" d="M 10.413,11.552 C 10.327,11.638 10.266,11.707 10.268,11.721 10.273,11.761 10.700,12.256 10.756,12.283 10.788,12.300 10.863,12.245 11.046,12.062 11.179,11.928 11.287,11.800 11.285,11.777 11.279,11.726 11.804,11.235 11.858,11.242 11.879,11.244 11.960,11.188 12.038,11.119 12.182,10.992 12.182,10.992 12.182,10.992 12.267,11.090 12.267,11.090 12.267,11.090 12.352,11.186 12.352,11.186 12.352,11.186 12.242,11.287 12.242,11.287 12.242,11.287 12.183,11.340 11.773,11.724 11.330,12.136 10.661,12.762 10.514,12.886 10.462,12.875 10.423,12.865 10.377,12.877 10.345,12.906 10.335,12.915 10.335,12.915 10.335,12.915 10.309,12.936 10.309,12.936 10.309,12.936 10.233,12.870 10.233,12.870 10.233,12.870 10.189,12.834 10.148,12.800 10.139,12.797 10.125,12.791 10.019,12.876 9.964,12.931 9.945,12.949 9.933,12.965 9.931,12.972 9.928,12.983 9.952,13.031 9.983,13.076 10.036,13.153 10.038,13.161 10.013,13.180 9.992,13.195 9.995,13.219 10.022,13.270 10.054,13.329 10.049,13.346 10.009,13.386 9.962,13.432 9.962,13.432 9.962,13.432 9.888,13.358 9.888,13.358 9.888,13.358 9.848,13.318 9.803,13.279 9.790,13.274 9.778,13.270 9.720,13.309 9.660,13.360 9.602,13.412 9.458,13.538 9.341,13.642 9.130,13.830 9.130,13.830 9.130,13.830 9.180,13.958 9.180,13.958 9.180,13.958 9.229,14.084 9.228,14.087 9.170,14.137 9.135,14.167 9.098,14.175 9.077,14.161 9.057,14.148 9.002,14.174 8.943,14.217 8.863,14.285 8.775,14.365 8.697,14.442 8.567,14.571 8.463,14.689 8.463,14.723 8.463,14.749 8.386,14.840 8.289,14.923 7.953,15.216 7.747,15.551 7.618,16.010 7.587,16.117 7.552,16.220 7.511,16.320 7.486,16.486 7.435,16.628 7.357,16.740 7.028,17.212 5.955,18.259 5.730,18.321 5.611,18.356 5.499,18.355 5.115,18.315 4.333,18.232 4.151,18.270 3.512,18.663 3.349,18.763 3.233,18.847 3.157,18.923 3.029,19.051 3.013,19.156 3.081,19.279 3.177,19.456 3.405,19.612 3.564,19.613 3.612,19.611 3.778,19.551 3.934,19.476 4.298,19.304 4.426,19.277 4.935,19.287 5.288,19.292 5.435,19.323 5.635,19.436 6.031,19.655 6.689,20.187 6.989,20.529 7.433,21.036 7.662,21.488 7.863,22.252 7.961,22.622 7.981,22.680 8.045,22.777 8.133,22.910 8.192,22.968 8.285,23.009 8.437,23.075 8.494,22.946 8.524,22.475 8.557,21.944 8.436,21.518 7.980,20.564 7.887,20.370 7.767,20.140 7.714,20.052 7.523,19.748 7.519,19.594 7.699,19.228 7.890,18.834 8.117,18.502 8.327,18.301 8.567,18.069 8.582,18.024 8.483,17.843 8.337,17.571 8.297,17.462 8.308,17.364 8.326,17.235 8.342,17.224 8.505,17.314 8.519,17.318 8.532,17.322 8.548,17.328 8.747,17.393 8.747,17.393 8.747,17.393 8.829,17.315 8.829,17.315 8.829,17.315 8.913,17.238 8.913,17.238 8.913,17.238 8.959,17.404 8.959,17.404 8.959,17.404 9.042,17.708 9.357,17.986 9.620,17.989 9.881,17.994 10.253,17.720 10.402,17.414 10.574,17.064 10.454,16.691 10.111,16.516 9.995,16.456 9.995,16.456 9.995,16.456 10.420,16.052 10.420,16.052 10.420,16.052 10.485,15.989 10.545,15.930 10.600,15.874 10.662,15.811 10.703,15.760 10.699,15.748 10.691,15.729 10.661,15.688 10.632,15.654 10.580,15.591 10.579,15.589 10.669,15.510 11.125,15.105 11.118,15.113 11.188,15.146 11.253,15.176 11.267,15.164 11.396,14.990 11.536,14.802 11.536,14.802 11.536,14.802 11.554,14.502 11.554,14.502 11.554,14.502 11.569,14.195 11.563,14.143 11.503,14.083 11.499,14.080 11.496,14.076 11.493,14.073 11.476,14.050 11.485,14.032 11.523,13.997 12.128,13.435 12.890,12.717 12.900,12.700 12.906,12.686 12.887,12.647 12.852,12.612 12.792,12.549 12.792,12.549 12.792,12.549 12.870,12.472 12.870,12.472 12.870,12.472 12.929,12.416 12.947,12.376 12.936,12.326 12.922,12.269 12.992,12.194 13.415,11.797 13.687,11.541 13.925,11.334 13.945,11.337 13.968,11.340 13.999,11.366 14.018,11.395 14.062,11.466 14.128,11.472 14.207,11.416 14.274,11.366 14.278,11.311 14.218,11.245 14.195,11.220 14.170,11.179 14.162,11.155 14.153,11.124 14.413,10.864 14.979,10.335 15.434,9.909 15.822,9.564 15.840,9.566 15.858,9.568 15.887,9.592 15.903,9.622 15.956,9.704 16.009,9.715 16.086,9.656 16.162,9.594 16.168,9.542 16.104,9.474 16.081,9.448 16.056,9.409 16.049,9.388 16.040,9.362 16.330,9.075 16.798,8.636 17.559,7.926 17.559,7.926 17.559,7.926 17.618,7.983 17.618,7.983 17.618,7.983 17.697,8.058 17.738,8.061 17.821,7.997 17.891,7.944 17.891,7.944 17.891,7.944 17.742,7.604 17.742,7.604 17.742,7.604 17.593,7.265 17.593,7.265 17.593,7.265 17.676,7.180 17.676,7.180 17.676,7.180 17.723,7.130 17.751,7.077 17.740,7.056 17.716,7.002 17.760,6.965 17.834,6.974 17.909,6.982 18.280,6.639 18.272,6.568 18.268,6.533 18.276,6.514 18.358,6.473 19.553,5.943 19.553,5.943 19.553,5.943 20.794,4.637 20.794,4.637 20.794,4.637 21.679,3.703 22.049,3.293 22.089,3.191 22.147,3.054 22.148,3.051 22.077,2.943 22.046,2.892 22.006,2.846 21.968,2.814 21.969,2.815 21.972,2.819 21.973,2.820 21.745,3.042 21.505,3.253 21.275,3.473 20.636,4.073 20.003,4.683 19.351,5.269 19.297,5.302 19.228,5.285 19.182,5.246 19.175,5.243 19.172,5.241 19.170,5.235 19.134,5.198 19.115,5.145 19.139,5.093 19.228,4.907 19.398,4.780 19.535,4.632 20.257,3.919 21.012,3.240 21.724,2.515 21.734,2.527 21.745,2.541 21.755,2.553 21.736,2.523 21.709,2.487 21.680,2.453 21.666,2.437 21.651,2.423 21.637,2.409 21.592,2.368 21.547,2.338 21.523,2.337 21.381,2.337 21.115,2.540 19.872,3.595 18.529,4.735 18.529,4.735 18.529,4.735 17.866,5.981 17.866,5.981 17.866,5.981 17.833,6.022 17.808,6.035 17.782,6.032 17.720,6.025 17.332,6.396 17.359,6.434 17.390,6.481 17.335,6.535 17.269,6.527 17.187,6.517 16.748,6.930 16.757,7.007 16.766,7.083 15.974,7.819 15.870,7.829 15.822,7.834 15.693,7.934 15.498,8.118 15.332,8.275 15.187,8.394 15.173,8.385 15.137,8.358 14.990,8.505 14.996,8.559 14.999,8.585 14.974,8.624 14.942,8.648 14.909,8.672 14.749,8.820 14.586,8.975 14.395,9.157 14.298,9.269 14.309,9.293 14.322,9.320 14.184,9.470 13.909,9.731 13.487,10.125 13.487,10.125 13.487,10.125 13.408,10.050 13.408,10.050 13.408,10.050 13.365,10.009 13.321,9.974 13.308,9.973 13.298,9.971 13.204,10.041 13.106,10.128 13.005,10.217 12.914,10.277 12.902,10.263 12.879,10.235 13.723,9.429 13.829,9.378 13.958,9.318 14.252,9.092 14.248,9.059 14.244,9.023 13.886,8.589 13.805,8.524 13.783,8.503 13.750,8.487 13.736,8.490 13.705,8.492 13.392,8.871 13.396,8.900 13.400,8.941 11.760,10.446 11.717,10.441 11.663,10.435 11.409,10.680 11.415,10.731 11.417,10.749 11.300,10.877 11.155,11.014 10.934,11.223 10.878,11.262 10.818,11.249 10.761,11.235 10.708,11.272 10.506,11.460 10.473,11.492 10.441,11.523 10.413,11.552 Z M 12.656,11.853 C 12.785,11.727 12.795,11.724 12.845,11.770 12.874,11.796 12.917,11.821 12.940,11.824 12.997,11.830 13.644,11.227 13.638,11.176 13.636,11.156 13.650,11.120 13.672,11.097 13.692,11.075 13.718,11.058 13.731,11.059 13.741,11.060 13.748,11.063 13.751,11.067 13.777,11.102 13.647,11.238 13.257,11.601 12.841,11.986 12.744,12.063 12.690,12.052 12.648,12.042 12.602,12.056 12.565,12.087 12.530,12.116 12.515,12.122 12.530,12.102 12.545,12.081 12.549,12.046 12.539,12.027 12.529,12.003 12.577,11.935 12.656,11.853 Z M 14.058,10.550 C 14.118,10.489 14.212,10.401 14.353,10.271 14.708,9.939 14.781,9.882 14.843,9.895 14.905,9.907 14.968,9.862 15.256,9.588 15.471,9.382 15.582,9.293 15.623,9.295 15.625,9.295 15.627,9.296 15.629,9.297 15.632,9.298 15.635,9.300 15.636,9.303 15.642,9.311 15.643,9.325 15.640,9.345 15.640,9.365 15.324,9.672 14.942,10.026 14.560,10.382 14.185,10.734 14.111,10.808 13.968,10.943 13.869,10.961 13.955,10.835 13.992,10.781 13.994,10.757 13.966,10.713 13.948,10.683 13.957,10.653 14.058,10.550 Z M 16.523,8.138 C 16.578,8.083 16.650,8.013 16.742,7.925 16.971,7.707 17.177,7.529 17.197,7.529 17.213,7.530 17.247,7.558 17.283,7.593 17.294,7.605 17.306,7.618 17.318,7.631 17.400,7.730 17.400,7.730 17.400,7.730 17.155,7.961 17.155,7.961 17.155,7.961 16.403,8.672 15.863,9.165 15.839,9.154 15.770,9.123 15.813,9.062 16.109,8.787 16.284,8.620 16.425,8.468 16.422,8.445 16.420,8.422 16.397,8.383 16.372,8.363 16.340,8.336 16.357,8.303 16.523,8.138 Z M 9.489,16.684 C 9.550,16.620 9.592,16.589 9.655,16.590 9.718,16.591 9.800,16.624 9.943,16.693 10.024,16.730 10.087,16.769 10.132,16.813 10.208,16.886 10.240,16.975 10.240,17.095 10.240,17.310 10.104,17.522 9.869,17.671 9.655,17.809 9.466,17.772 9.302,17.563 9.254,17.503 9.202,17.410 9.185,17.356 9.148,17.247 9.139,17.009 9.173,17.009 9.184,17.009 9.217,17.066 9.245,17.137 9.346,17.381 9.623,17.556 9.849,17.513 10.033,17.478 10.093,17.352 9.924,17.352 9.695,17.352 9.485,17.164 9.405,16.883 9.382,16.806 9.391,16.782 9.489,16.684 Z " />
</svg>