<?xml version="1.0" encoding="UTF-8" standalone="no"?>
<!DOCTYPE svg PUBLIC "-//W3C//DTD SVG 20010904//EN" "http://www.w3.org/TR/2001/REC-SVG-20010904/DTD/svg10.dtd"[]>
<svg version="1.1" id="Frosty Editor v1.0.6.3" xmlns="http://www.w3.org/2000/svg" d1p1:xlink="http://www.w3.org/1999/xlink" viewBox="0 0 25 25" xmlns:d1p1="xmlns">
  <path stroke="none" fill="#ffffffff" d="M 12.613,3.682 C 12.316,3.682 12.255,3.692 12.201,3.752 12.166,3.790 12.108,3.822 12.073,3.822 11.973,3.822 11.633,3.983 11.611,4.041 11.599,4.071 11.522,4.103 11.429,4.115 10.702,4.215 9.513,4.694 8.944,5.116 8.739,5.268 8.207,5.800 8.071,5.987 7.853,6.272 7.647,6.536 7.439,6.832 7.311,7.038 7.023,7.643 6.886,7.994 6.834,8.129 6.751,8.343 6.701,8.469 6.596,8.736 6.518,9.040 6.516,9.192 6.515,9.270 6.476,9.337 6.375,9.436 6.297,9.512 6.217,9.626 6.196,9.690 6.160,9.800 6.148,9.807 5.991,9.807 5.806,9.807 5.532,9.952 5.458,10.089 5.415,10.169 5.306,10.498 5.269,10.660 5.257,10.713 5.232,10.757 5.213,10.757 5.154,10.757 5.111,11.011 5.074,11.584 5.028,12.282 5.026,12.823 5.069,12.850 5.089,12.862 5.094,13.095 5.082,13.432 5.058,14.069 5.068,14.101 5.286,14.101 5.422,14.101 5.422,14.101 5.422,14.101 5.404,14.885 5.404,14.885 5.404,14.885 5.394,15.315 5.370,16.159 5.352,16.759 5.333,17.359 5.318,18.083 5.318,18.367 5.318,18.938 5.337,18.994 5.532,18.994 5.541,18.994 5.549,18.995 5.557,18.995 5.676,18.995 5.676,18.995 5.676,18.995 5.676,18.647 5.676,18.647 5.676,18.647 5.676,18.639 5.677,18.631 5.677,18.623 5.716,17.784 5.755,16.944 5.794,16.105 5.908,13.327 5.908,13.327 5.908,13.327 5.907,13.224 5.906,13.121 5.905,13.017 5.676,13.017 5.676,13.017 5.676,13.017 5.676,12.030 5.676,12.030 5.676,12.030 5.770,12.028 5.865,12.024 5.956,11.999 6.081,11.979 6.250,12.039 6.284,12.173 6.307,12.212 6.260,12.305 6.323,12.296 6.798,12.274 7.280,12.389 7.686,12.637 8.162,12.958 8.511,13.427 8.824,13.900 9.431,14.849 9.878,15.900 10.160,16.991 10.296,17.532 10.436,18.076 10.511,18.629 10.557,19.034 10.675,19.521 10.671,19.877 10.708,20.387 10.721,21.088 10.716,21.664 10.879,21.462 11.036,21.255 11.210,21.063 11.240,21.018 11.282,20.981 11.323,20.943 11.094,11.926 11.094,11.926 11.094,11.926 11.090,11.886 11.088,11.847 11.084,11.808 11.067,11.764 11.084,11.661 11.018,11.663 10.985,11.665 10.958,11.651 10.938,11.631 10.907,11.622 10.875,11.614 10.843,11.608 10.718,11.582 10.577,11.545 10.528,11.525 10.480,11.505 10.380,11.482 10.305,11.473 10.231,11.464 10.128,11.441 10.076,11.421 9.907,11.357 9.025,11.204 8.451,11.139 7.937,11.080 6.537,11.081 6.396,11.139 6.294,11.182 6.294,11.182 6.294,11.182 6.318,10.982 6.318,10.982 6.318,10.982 6.337,10.816 6.331,10.776 6.278,10.735 6.219,10.689 6.219,10.684 6.286,10.630 6.325,10.599 6.424,10.544 6.507,10.508 6.655,10.443 7.275,10.263 7.413,10.244 7.452,10.239 7.554,10.219 7.641,10.199 8.311,10.044 9.982,9.897 11.496,9.860 11.831,9.851 12.213,9.853 12.613,9.860 13.012,9.853 13.395,9.851 13.729,9.860 15.244,9.897 16.914,10.044 17.584,10.199 17.671,10.219 17.774,10.239 17.813,10.244 17.951,10.263 18.570,10.443 18.718,10.508 18.801,10.544 18.901,10.599 18.939,10.630 19.006,10.684 19.006,10.689 18.947,10.735 18.895,10.776 18.888,10.816 18.908,10.982 18.932,11.182 18.932,11.182 18.932,11.182 18.830,11.139 18.830,11.139 18.830,11.139 18.688,11.081 17.289,11.080 16.774,11.139 16.200,11.204 15.318,11.357 15.149,11.421 15.097,11.441 14.994,11.464 14.920,11.473 14.846,11.482 14.746,11.505 14.697,11.525 14.649,11.545 14.507,11.582 14.382,11.608 14.351,11.614 14.318,11.622 14.287,11.631 14.268,11.651 14.241,11.665 14.208,11.663 14.142,11.661 14.158,11.764 14.141,11.808 14.137,11.847 14.135,11.886 14.131,11.926 13.903,20.943 13.903,20.943 13.903,20.943 13.943,20.981 13.986,21.018 14.015,21.063 14.190,21.255 14.347,21.462 14.509,21.664 14.505,21.088 14.518,20.387 14.554,19.877 14.551,19.521 14.668,19.034 14.714,18.629 14.790,18.076 14.930,17.532 15.066,16.991 15.348,15.900 15.794,14.849 16.402,13.900 16.715,13.427 17.063,12.958 17.539,12.637 17.946,12.389 18.428,12.274 18.903,12.296 18.965,12.305 18.918,12.212 18.941,12.173 18.976,12.039 19.144,11.979 19.269,11.999 19.360,12.024 19.455,12.028 19.550,12.030 19.550,13.017 19.550,13.017 19.550,13.017 19.321,13.017 19.321,13.017 19.321,13.017 19.320,13.121 19.319,13.224 19.318,13.327 19.431,16.105 19.431,16.105 19.431,16.105 19.470,16.944 19.509,17.784 19.548,18.623 19.549,18.631 19.549,18.639 19.550,18.647 19.550,18.995 19.550,18.995 19.550,18.995 19.677,18.995 19.677,18.995 19.677,18.995 19.683,18.995 19.688,18.994 19.694,18.994 19.888,18.994 19.907,18.938 19.907,18.367 19.907,18.083 19.892,17.359 19.874,16.759 19.855,16.159 19.831,15.315 19.821,14.885 19.803,14.101 19.803,14.101 19.803,14.101 19.939,14.101 19.939,14.101 19.939,14.101 20.158,14.101 20.167,14.069 20.144,13.432 20.131,13.095 20.136,12.862 20.156,12.850 20.200,12.823 20.198,12.282 20.152,11.584 20.114,11.011 20.071,10.757 20.012,10.757 19.994,10.757 19.969,10.713 19.957,10.660 19.919,10.498 19.810,10.169 19.767,10.089 19.694,9.952 19.419,9.807 19.234,9.807 19.077,9.807 19.065,9.800 19.029,9.690 19.008,9.626 18.928,9.512 18.851,9.436 18.749,9.337 18.710,9.270 18.709,9.192 18.707,9.040 18.629,8.736 18.524,8.469 18.475,8.343 18.392,8.129 18.339,7.994 18.202,7.643 17.915,7.038 17.786,6.832 17.586,6.533 17.374,6.277 17.154,5.987 17.019,5.800 16.486,5.268 16.281,5.116 15.712,4.694 14.524,4.215 13.796,4.115 13.703,4.103 13.626,4.071 13.615,4.041 13.593,3.983 13.252,3.822 13.152,3.822 13.117,3.822 13.060,3.790 13.025,3.752 12.971,3.692 12.910,3.682 12.613,3.682 Z M 6.337,12.529 C 6.345,12.579 6.357,12.631 6.341,12.680 6.287,12.737 6.309,12.793 6.346,12.859 6.747,13.656 7.162,14.446 7.565,15.243 7.820,15.342 8.066,15.465 8.283,15.633 8.964,16.156 9.446,16.900 9.774,17.686 10.084,18.413 10.199,19.204 10.258,19.987 10.311,20.572 10.309,21.161 10.357,21.743 10.395,21.784 10.483,21.773 10.543,21.779 10.605,21.788 10.542,21.690 10.557,21.652 10.496,20.901 10.472,20.138 10.384,19.395 10.261,18.426 10.049,17.472 9.768,16.541 9.645,16.110 9.472,15.697 9.287,15.291 9.038,14.765 8.747,14.266 8.413,13.790 8.142,13.439 7.849,13.096 7.487,12.837 7.192,12.671 6.846,12.593 6.519,12.549 6.458,12.543 6.397,12.536 6.337,12.529 Z M 18.889,12.529 C 18.828,12.536 18.767,12.543 18.707,12.549 18.380,12.593 18.033,12.671 17.738,12.837 17.376,13.096 17.083,13.439 16.813,13.790 16.478,14.266 16.188,14.765 15.938,15.291 15.753,15.697 15.580,16.110 15.457,16.541 15.177,17.472 14.965,18.426 14.841,19.395 14.754,20.138 14.729,20.901 14.669,21.652 14.684,21.690 14.620,21.788 14.683,21.779 14.742,21.773 14.830,21.784 14.869,21.743 14.916,21.161 14.914,20.572 14.967,19.987 15.027,19.204 15.142,18.413 15.451,17.686 15.779,16.900 16.261,16.156 16.942,15.633 17.159,15.465 17.406,15.342 17.660,15.243 18.063,14.446 18.479,13.656 18.879,12.859 18.916,12.793 18.938,12.737 18.884,12.680 18.869,12.631 18.880,12.579 18.889,12.529 Z M 6.126,12.957 C 6.113,13.119 6.099,13.281 6.086,13.443 6.034,14.724 6.034,14.724 6.034,14.724 6.033,14.769 6.033,14.814 6.032,14.858 6.002,15.848 5.949,16.837 5.911,17.826 5.899,18.262 5.848,18.698 5.867,19.134 5.955,19.283 6.075,19.413 6.196,19.537 6.312,19.158 6.418,18.777 6.529,18.396 6.778,17.539 7.014,16.678 7.268,15.822 7.283,15.747 7.341,15.709 7.413,15.697 7.443,15.765 7.441,15.838 7.420,15.909 7.100,17.120 6.747,18.323 6.416,19.532 6.393,19.609 6.348,19.693 6.447,19.735 6.697,19.937 6.960,20.127 7.238,20.290 7.541,20.482 7.858,20.643 8.173,20.821 8.768,21.129 9.360,21.448 9.989,21.682 10.026,21.684 10.120,21.753 10.112,21.685 10.077,21.116 10.052,20.537 10.001,19.965 9.914,19.036 9.768,18.078 9.293,17.264 9.011,16.801 8.700,16.346 8.298,15.979 8.038,15.737 7.715,15.582 7.387,15.454 6.997,14.681 6.612,13.904 6.218,13.135 6.188,13.075 6.157,13.017 6.126,12.957 Z M 19.099,12.957 C 19.068,13.017 19.038,13.075 19.007,13.135 18.614,13.904 18.228,14.681 17.839,15.454 17.511,15.582 17.187,15.737 16.928,15.979 16.525,16.346 16.214,16.801 15.932,17.264 15.457,18.078 15.312,19.036 15.225,19.965 15.174,20.537 15.148,21.116 15.113,21.685 15.106,21.753 15.200,21.684 15.237,21.682 15.865,21.448 16.458,21.129 17.052,20.821 17.367,20.643 17.684,20.482 17.987,20.290 18.265,20.127 18.528,19.937 18.778,19.735 18.878,19.693 18.833,19.609 18.809,19.532 18.478,18.323 18.125,17.120 17.806,15.909 17.785,15.838 17.783,15.765 17.813,15.697 17.884,15.709 17.943,15.747 17.957,15.822 18.212,16.678 18.447,17.539 18.697,18.396 18.807,18.777 18.913,19.158 19.030,19.537 19.151,19.413 19.271,19.283 19.358,19.134 19.377,18.698 19.326,18.262 19.315,17.826 19.276,16.837 19.224,15.848 19.194,14.858 19.193,14.814 19.192,14.769 19.192,14.724 19.139,13.443 19.139,13.443 19.139,13.443 19.126,13.281 19.113,13.119 19.099,12.957 Z " />
</svg>