<?xml version="1.0" encoding="UTF-8" standalone="no"?>
<!DOCTYPE svg PUBLIC "-//W3C//DTD SVG 20010904//EN" "http://www.w3.org/TR/2001/REC-SVG-20010904/DTD/svg10.dtd"[]>
<svg version="1.1" id="Frosty Editor v1.0.6.3" xmlns="http://www.w3.org/2000/svg" d1p1:xlink="http://www.w3.org/1999/xlink" viewBox="0 0 384 96" xmlns:d1p1="xmlns">
  <path stroke="#ffffffff" fill="#fffefefe" stroke-width="0.1" d="M 274.500,5.800 C 274.400,5.000 274.400,5.000 273.600,4.900 273.400,4.900 273.300,4.800 273.300,4.500 273.300,3.600 273.300,2.800 273.300,1.900 273.300,1.700 273.300,1.400 273.200,1.200 273.100,0.900 273.000,0.700 272.600,0.700 270.100,0.700 267.700,0.700 265.200,0.600 265.000,0.600 264.800,0.700 264.600,0.800 262.900,1.900 261.200,3.000 259.500,4.100 259.100,4.400 258.700,4.600 258.200,4.700 255.000,5.600 251.900,6.300 248.700,7.100 248.500,7.200 248.400,7.100 248.300,6.900 248.100,6.400 247.900,6.200 247.400,6.200 245.200,6.200 242.900,6.200 240.700,6.200 240.300,6.200 240.000,6.300 239.900,6.600 239.800,6.800 239.600,6.900 239.400,6.900 237.700,6.900 235.900,7.000 234.200,7.000 224.200,7.000 214.300,7.000 204.300,7.000 203.900,7.000 203.700,6.900 203.700,6.500 203.700,5.800 203.400,5.500 202.700,5.500 195.800,5.500 188.900,5.500 182.000,5.500 175.500,5.500 168.900,5.500 162.400,5.500 162.100,5.500 161.900,5.400 161.700,5.200 161.000,4.500 160.300,3.900 159.700,3.200 159.500,3.000 159.200,2.900 158.900,2.900 158.200,2.900 157.500,2.900 156.900,2.900 156.700,2.900 156.500,2.900 156.400,2.700 156.300,2.400 156.100,2.400 155.800,2.400 154.500,2.400 153.300,2.400 152.000,2.400 151.900,2.400 151.700,2.400 151.600,2.500 151.400,2.900 151.000,2.800 150.600,2.800 149.700,2.800 149.700,2.800 149.700,1.900 149.700,1.800 149.700,1.800 149.700,1.700 149.700,1.200 149.200,0.700 148.700,0.700 148.100,0.700 147.600,0.700 147.000,0.700 146.100,0.700 146.100,0.700 146.100,1.600 146.100,2.000 146.200,2.500 146.000,2.900 145.900,3.200 145.800,3.400 145.800,3.700 145.700,6.000 145.700,8.400 145.700,10.700 145.700,11.000 145.600,11.200 145.300,11.100 144.400,11.100 143.400,11.100 142.500,11.100 141.600,11.100 141.600,11.100 141.400,10.200 141.200,9.400 140.900,9.100 140.100,9.200 139.400,9.300 138.700,9.400 138.000,9.600 137.300,9.700 137.100,10.000 137.100,10.700 137.100,11.000 137.000,11.200 136.700,11.300 135.700,11.800 135.200,12.800 135.400,13.700 135.600,14.700 136.400,15.500 137.500,15.600 137.700,15.600 137.900,15.700 137.900,16.000 138.200,18.200 138.600,20.400 138.900,22.600 139.100,23.700 139.000,23.700 137.900,23.900 136.400,24.200 134.900,24.200 133.400,24.300 132.100,24.400 130.800,24.800 130.000,26.000 129.900,26.200 129.800,26.300 129.600,26.400 129.400,26.600 129.300,26.900 129.300,27.200 129.300,31.600 129.300,36.000 129.300,40.300 129.300,40.700 129.200,41.000 129.000,41.400 125.100,47.300 122.200,53.600 119.900,60.300 118.700,63.700 117.800,67.300 117.600,70.900 117.500,72.800 117.500,74.700 117.500,76.600 117.500,79.300 117.600,82.000 118.100,84.700 118.400,86.000 118.700,87.300 119.800,88.200 120.200,88.600 120.500,89.000 120.600,89.500 121.700,92.700 126.000,94.000 128.600,91.800 128.800,91.600 129.000,91.600 129.300,91.600 134.100,91.600 138.900,91.500 143.700,91.500 144.300,91.500 144.700,91.100 144.700,90.500 144.700,88.300 144.700,86.200 144.700,84.000 144.700,83.500 144.400,83.100 143.900,83.100 143.600,83.100 143.600,82.900 143.600,82.700 143.600,80.400 143.600,78.000 143.700,75.700 143.700,74.300 143.700,72.900 143.800,71.500 143.900,69.800 144.000,67.000 144.200,65.500 144.300,64.000 144.500,64.200 144.800,63.200 146.100,58.400 147.400,53.600 149.100,48.900 150.200,45.800 151.400,42.700 152.700,39.600 152.900,39.100 153.700,38.800 154.200,39.000 154.900,39.300 155.500,39.800 156.200,40.200 158.900,41.900 161.800,42.200 164.800,41.300 166.500,40.800 167.900,39.800 169.100,38.600 169.400,38.300 169.600,38.300 169.800,38.600 170.500,39.300 171.200,40.000 172.000,40.600 176.800,43.900 182.000,45.000 187.600,43.500 194.700,41.600 199.200,37.100 200.300,29.700 200.400,29.300 200.500,29.100 200.900,28.900 201.600,28.600 202.300,28.100 202.800,27.500 203.400,26.800 204.000,26.600 204.800,26.700 208.800,26.900 212.900,26.800 216.900,26.800 217.600,26.800 217.800,26.600 217.900,25.900 217.900,25.700 217.900,25.600 218.000,25.400 218.000,25.200 218.100,25.000 218.400,25.000 218.800,25.000 218.900,24.800 218.900,24.500 218.900,23.700 218.900,22.900 218.900,22.100 218.900,21.700 218.700,21.500 218.300,21.600 218.000,21.600 218.000,21.500 218.000,21.300 218.000,20.600 218.000,19.900 218.000,19.300 218.000,18.900 218.100,18.800 218.500,18.800 221.600,18.800 224.700,18.800 227.800,18.800 227.800,18.800 227.800,18.800 227.800,18.700 230.800,18.700 233.800,18.700 236.800,18.700 237.000,18.700 237.200,18.700 237.500,18.700 237.800,18.700 238.000,18.600 237.900,18.200 237.900,17.700 237.900,17.100 237.900,16.600 237.900,16.200 237.700,15.700 238.000,15.400 238.300,15.200 238.800,15.300 239.200,15.300 239.600,15.300 239.900,15.300 240.100,15.700 240.300,16.000 240.500,16.000 240.800,16.000 243.100,16.000 245.400,16.000 247.600,16.000 248.000,16.000 248.300,15.900 248.400,15.600 248.600,15.100 249.000,15.200 249.300,15.300 252.200,16.000 255.000,16.700 257.900,17.400 258.300,17.500 258.700,17.600 259.100,17.800 259.300,18.000 259.500,18.000 259.800,18.000 264.500,18.000 269.100,18.000 273.800,18.000 274.400,18.000 274.700,17.700 274.700,17.100 274.700,14.500 274.700,11.800 274.700,9.200 274.600,8.200 274.600,7.000 274.500,5.800 Z M 165.000,7.200 C 171.000,7.200 177.000,7.200 183.100,7.200 189.300,7.200 195.500,7.200 201.600,7.200 202.000,7.200 202.100,7.300 202.100,7.700 202.100,9.700 202.100,11.600 202.100,13.600 202.100,14.300 202.000,14.500 201.200,14.500 198.800,14.500 196.300,14.600 193.900,14.600 184.100,14.600 174.400,14.600 164.600,14.600 163.900,14.600 164.000,14.700 164.000,14.000 164.000,13.300 164.000,13.300 164.600,13.600 165.600,14.000 166.700,14.200 167.800,14.300 175.400,14.500 182.900,14.400 190.500,14.400 192.300,14.400 194.100,14.400 195.900,14.300 197.400,14.300 198.700,13.800 199.900,13.000 201.400,12.100 201.400,10.200 199.900,9.300 198.800,8.500 197.500,8.100 196.200,8.000 193.300,7.800 190.400,7.900 187.500,7.900 182.000,7.900 176.500,7.900 171.100,7.900 169.400,7.900 167.800,7.900 166.100,8.200 165.500,8.300 164.900,8.500 164.300,8.800 164.000,8.900 164.000,8.800 163.900,8.600 163.900,7.200 163.900,7.200 165.000,7.200 Z M 163.900,9.600 C 165.000,8.900 166.200,8.500 167.600,8.500 172.400,8.500 177.100,8.500 181.900,8.500 181.900,8.500 181.900,8.500 181.900,8.500 185.900,8.500 189.900,8.500 193.900,8.500 195.000,8.500 196.100,8.500 197.200,8.700 198.200,8.800 199.200,9.300 200.000,10.000 200.800,10.700 200.800,11.500 200.000,12.200 199.600,12.600 199.100,12.800 198.600,13.000 197.600,13.400 196.600,13.700 195.400,13.700 187.000,13.700 178.600,13.700 170.200,13.700 168.900,13.700 167.500,13.700 166.200,13.500 165.400,13.300 164.600,13.000 163.900,12.600 162.700,11.700 162.600,10.400 163.900,9.600 Z M 163.000,7.400 C 163.300,7.300 163.500,7.400 163.400,7.800 163.400,8.000 163.400,8.200 163.400,8.400 163.400,8.900 163.300,9.200 163.000,9.600 162.100,10.500 162.200,11.700 163.100,12.500 163.500,12.900 163.400,13.300 163.400,13.700 163.400,14.700 163.400,14.700 162.400,14.500 159.300,13.900 156.200,13.400 153.100,12.800 152.800,12.700 152.600,12.600 152.600,12.200 152.600,11.800 152.600,11.300 152.600,10.900 152.600,10.900 152.600,10.900 152.600,10.900 152.600,10.400 152.600,10.000 152.600,9.500 152.600,9.200 152.700,9.100 153.000,9.100 154.800,8.800 156.600,8.400 158.400,8.100 159.900,7.900 161.500,7.700 163.000,7.400 Z M 153.100,13.500 C 154.800,13.800 156.500,14.100 158.300,14.400 158.400,14.400 158.500,14.400 158.600,14.600 156.600,14.600 154.600,14.600 152.600,14.600 152.400,14.600 152.300,14.500 152.300,14.300 152.200,13.300 152.100,13.300 153.100,13.500 Z M 153.100,7.200 C 154.300,7.200 155.500,7.200 156.700,7.200 157.500,7.300 158.300,7.200 159.000,7.200 159.100,7.200 159.300,7.100 159.300,7.300 157.100,7.700 154.900,8.100 152.800,8.500 152.200,8.600 152.200,8.600 152.200,8.000 152.200,7.200 152.200,7.200 153.100,7.200 Z M 158.300,4.500 C 158.600,4.500 158.800,4.600 158.900,4.800 159.100,5.000 159.300,5.100 159.500,5.300 159.500,5.400 159.400,5.400 159.400,5.500 159.000,5.500 158.500,5.500 158.100,5.500 154.600,5.500 151.200,5.500 147.700,5.500 147.300,5.500 147.300,5.300 147.300,5.000 147.300,4.700 147.300,4.500 147.700,4.500 151.300,4.600 154.800,4.600 158.300,4.500 Z M 146.900,1.900 C 146.900,1.700 147.000,1.600 147.100,1.600 147.600,1.600 148.100,1.600 148.500,1.600 148.700,1.600 148.700,1.700 148.800,1.900 148.900,2.800 148.900,2.800 148.000,2.800 148.000,2.800 147.900,2.800 147.900,2.800 147.900,2.800 147.800,2.800 147.800,2.800 146.900,2.900 146.900,2.900 146.900,1.900 Z M 147.200,6.700 C 148.500,6.700 149.800,6.700 151.200,6.700 151.600,6.700 151.600,6.800 151.600,7.100 151.600,8.300 151.600,9.500 151.600,10.900 151.600,11.900 151.600,13.100 151.500,14.400 151.500,14.800 151.300,15.000 150.900,15.000 149.700,15.100 148.500,15.000 147.300,15.000 147.000,15.000 147.000,14.800 146.900,14.600 146.900,14.200 146.800,13.900 146.800,13.500 146.800,11.300 146.800,9.200 146.800,7.000 146.800,6.800 146.900,6.700 147.200,6.700 Z M 145.700,17.500 C 145.700,18.600 145.900,19.700 145.800,20.800 145.600,22.100 145.900,21.800 144.600,22.000 144.400,22.000 144.100,22.100 143.900,22.100 143.300,22.200 143.300,22.200 143.200,21.600 142.900,20.000 142.700,18.400 142.400,16.800 142.400,16.600 142.400,16.500 142.300,16.300 142.300,16.100 142.400,16.000 142.500,16.000 143.500,16.000 144.500,16.000 145.500,16.000 145.700,16.000 145.700,16.100 145.700,16.300 145.700,16.700 145.600,17.100 145.700,17.500 Z M 142.100,12.300 C 142.600,12.300 143.200,12.300 143.700,12.300 144.300,12.300 144.800,12.300 145.400,12.300 145.600,12.300 145.700,12.400 145.700,12.600 145.700,13.300 145.700,14.000 145.700,14.600 145.700,14.800 145.700,14.900 145.400,14.900 144.400,14.900 143.400,14.900 142.400,14.900 142.200,14.900 142.100,14.800 142.100,14.600 142.000,13.900 141.900,13.300 141.800,12.600 141.700,12.400 141.800,12.300 142.100,12.300 Z M 137.800,15.100 C 136.900,15.100 136.200,14.500 136.200,13.700 136.200,12.900 136.900,12.200 137.800,12.200 138.600,12.200 139.400,12.800 139.400,13.600 139.400,14.400 138.600,15.100 137.800,15.100 Z M 138.700,16.300 C 138.600,16.000 138.700,15.800 139.000,15.600 139.800,15.100 140.300,14.300 140.100,13.300 140.000,12.400 139.200,11.600 138.200,11.400 137.900,11.300 137.900,11.200 137.800,11.000 137.800,10.700 138.000,10.700 138.200,10.600 138.800,10.500 139.300,10.400 139.900,10.300 140.300,10.200 140.400,10.400 140.500,10.700 140.700,11.900 140.900,13.200 141.100,14.400 141.500,17.000 141.900,19.700 142.300,22.300 142.300,22.400 142.300,22.400 142.300,22.500 142.300,22.700 142.200,22.800 142.000,22.900 141.300,23.200 140.700,23.300 140.000,23.500 139.700,23.600 139.700,23.400 139.700,23.200 139.400,21.400 139.100,19.600 138.800,17.800 138.900,17.300 138.800,16.800 138.700,16.300 Z M 125.500,91.600 C 123.800,91.600 122.000,90.600 122.000,88.100 122.000,86.600 123.600,85.100 125.400,85.100 127.400,85.100 128.900,86.500 128.900,88.300 128.900,90.200 127.400,91.600 125.500,91.600 Z M 142.500,90.300 C 138.500,90.300 134.500,90.300 130.500,90.300 130.200,90.300 130.100,90.200 130.200,89.900 130.300,89.500 130.400,89.200 130.400,88.800 130.400,88.400 130.600,88.400 130.900,88.600 132.300,89.400 133.800,89.700 135.300,89.800 136.300,89.900 139.500,88.900 139.900,88.700 141.000,88.200 141.700,87.400 142.200,86.400 142.300,86.200 142.500,85.900 142.600,85.700 142.700,85.800 142.700,86.000 142.700,86.100 142.700,87.400 142.700,88.700 142.700,89.900 142.900,90.200 142.900,90.300 142.500,90.300 Z M 144.900,56.400 C 144.300,58.500 143.700,60.600 143.100,62.700 142.800,63.800 142.600,64.700 142.400,65.900 142.200,67.100 142.200,69.800 142.000,71.700 141.900,73.000 141.900,74.400 141.900,75.700 141.900,78.300 141.800,80.900 141.800,83.400 141.800,83.700 141.700,83.900 141.600,84.100 141.300,84.600 141.000,85.000 140.800,85.500 140.100,86.900 138.900,87.500 137.500,87.800 135.600,88.300 133.700,88.000 132.000,87.100 131.600,86.900 131.300,86.700 131.000,86.500 130.500,86.200 130.000,85.800 129.600,85.300 127.200,82.200 123.100,82.700 121.200,85.300 120.900,85.700 120.700,86.200 120.500,86.700 120.100,86.000 119.900,85.200 119.700,84.500 119.100,81.300 119.000,78.000 119.000,74.700 119.000,69.100 120.300,63.700 122.300,58.400 124.300,53.200 126.600,48.100 129.600,43.500 129.700,43.300 129.800,43.200 130.000,43.100 130.200,43.500 130.300,43.900 130.400,44.300 130.800,45.600 131.200,46.900 131.800,48.100 133.400,51.500 136.100,53.500 139.700,54.200 141.500,54.500 143.300,54.200 145.000,53.400 145.200,53.300 145.500,53.200 145.800,53.100 145.500,54.400 145.200,55.400 144.900,56.400 Z M 202.500,16.500 C 202.500,19.300 202.500,22.100 202.500,24.900 202.500,25.300 202.500,25.700 202.400,26.000 202.300,26.900 201.600,27.700 200.700,27.700 200.200,27.700 199.600,27.800 199.000,27.800 198.700,27.800 198.600,27.900 198.600,28.200 198.700,29.800 198.400,31.400 197.900,33.000 196.500,36.800 193.900,39.400 190.300,41.200 184.200,44.100 176.800,43.200 171.700,38.700 171.300,38.300 170.900,37.900 170.500,37.500 170.300,37.300 170.200,37.300 170.000,37.300 168.900,37.200 168.100,37.500 167.300,38.400 165.500,40.400 163.100,40.800 160.600,40.600 159.100,40.500 157.700,39.900 156.500,39.000 155.800,38.400 154.900,38.100 154.100,37.700 153.800,37.500 153.500,37.600 153.200,37.700 153.200,37.700 153.200,37.700 153.200,37.700 152.100,38.200 151.300,38.900 150.800,40.100 149.700,42.900 148.600,45.700 147.500,48.500 146.500,50.900 144.700,52.500 141.900,52.900 138.900,53.200 135.100,51.200 133.600,48.100 132.800,46.400 132.300,44.500 131.700,42.700 131.300,41.400 131.100,40.100 131.100,38.800 131.100,35.400 131.100,32.000 131.100,28.600 131.100,27.700 131.500,27.000 132.400,26.700 132.900,26.500 133.400,26.400 134.000,26.400 137.100,26.400 140.100,25.500 143.000,24.500 144.000,23.700 145.300,23.800 146.400,23.500 146.900,23.400 147.200,23.100 147.300,22.600 147.700,20.900 147.700,19.300 147.400,17.600 147.400,17.200 147.000,17.000 147.100,16.500 147.100,16.200 147.200,16.200 147.500,16.200 153.500,16.300 159.500,16.300 165.500,16.300 168.600,16.300 171.700,16.300 174.800,16.300 174.800,16.300 174.800,16.300 174.800,16.300 183.700,16.300 192.600,16.300 201.500,16.300 201.800,16.300 202.000,16.300 202.300,16.300 202.500,16.000 202.500,16.200 202.500,16.500 Z M 216.300,25.000 C 216.300,25.400 216.200,25.500 215.800,25.500 213.900,25.500 212.100,25.500 210.200,25.500 208.300,25.500 206.500,25.500 204.600,25.500 204.100,25.500 203.600,25.000 203.600,24.600 203.600,21.900 203.600,19.200 203.600,16.600 203.600,16.100 204.100,15.600 204.600,15.600 208.400,15.600 212.100,15.600 215.900,15.600 216.200,15.600 216.300,15.700 216.300,16.000 216.300,16.500 216.300,17.000 216.300,17.500 216.300,17.800 216.200,17.900 215.900,17.900 213.100,17.900 210.300,17.900 207.500,17.900 207.100,17.900 206.700,17.900 206.300,18.000 205.900,18.100 205.600,18.300 205.500,18.700 205.400,19.900 205.400,21.100 205.500,22.300 205.600,22.900 205.800,23.100 206.400,23.100 207.800,23.300 209.200,23.200 210.600,23.200 212.400,23.200 214.100,23.200 215.900,23.200 216.300,23.200 216.400,23.300 216.400,23.700 216.300,24.100 216.300,24.500 216.300,25.000 Z M 216.600,22.200 C 216.600,22.600 216.500,22.600 216.200,22.600 214.600,22.600 213.100,22.600 211.500,22.600 211.500,22.600 211.500,22.600 211.500,22.600 210.000,22.600 208.500,22.600 207.000,22.600 206.100,22.600 206.000,22.600 206.000,21.600 206.000,20.800 206.000,20.000 206.000,19.200 206.000,18.600 206.100,18.500 206.700,18.500 207.800,18.500 208.800,18.500 209.900,18.500 212.000,18.500 214.000,18.500 216.100,18.500 216.400,18.500 216.600,18.600 216.500,18.900 216.600,20.000 216.600,21.100 216.600,22.200 Z M 219.400,17.700 C 219.400,17.900 219.400,18.000 219.100,18.000 218.300,18.000 218.300,18.000 218.300,17.300 218.300,17.100 218.300,17.000 218.300,16.800 218.300,16.500 218.300,16.200 218.300,15.900 218.300,15.600 218.400,15.500 218.700,15.500 218.800,15.500 218.900,15.500 219.000,15.500 219.300,15.500 219.400,15.600 219.400,15.800 219.400,16.500 219.400,17.100 219.400,17.700 Z M 220.600,18.000 C 220.100,18.000 220.000,17.900 220.000,17.400 220.000,16.900 220.000,16.300 220.000,15.800 220.000,15.500 220.100,15.500 220.300,15.500 221.200,15.500 221.000,15.400 221.000,16.200 221.000,16.400 221.000,16.600 221.000,16.800 221.000,17.100 221.000,17.300 221.000,17.600 221.100,18.000 221.000,18.000 220.600,18.000 Z M 222.200,18.000 C 221.700,18.000 221.600,17.900 221.600,17.400 221.600,16.900 221.600,16.300 221.600,15.800 221.600,15.500 221.700,15.400 221.900,15.500 222.800,15.500 222.600,15.400 222.600,16.200 222.600,16.400 222.600,16.600 222.600,16.800 222.600,17.000 222.600,17.300 222.600,17.500 222.800,17.900 222.600,18.000 222.200,18.000 Z M 224.300,18.000 C 224.000,18.000 223.700,18.100 223.400,18.000 223.300,18.000 223.300,17.800 223.300,17.700 223.300,17.100 223.300,16.500 223.300,15.900 223.300,15.600 223.400,15.500 223.700,15.500 223.800,15.500 224.000,15.500 224.100,15.500 224.300,15.500 224.400,15.600 224.400,15.800 224.400,16.100 224.400,16.500 224.400,16.800 224.400,17.100 224.400,17.300 224.400,17.600 224.400,17.700 224.500,18.000 224.300,18.000 Z M 226.000,16.800 C 226.000,17.000 226.000,17.200 226.000,17.400 226.000,18.100 226.100,17.900 225.400,18.000 225.000,18.000 224.900,17.900 224.900,17.500 224.900,16.900 224.900,16.400 224.900,15.800 224.900,15.500 225.000,15.400 225.200,15.500 225.300,15.500 225.500,15.500 225.600,15.500 225.800,15.500 225.900,15.600 225.900,15.800 226.000,16.100 226.000,16.500 226.000,16.800 Z M 227.200,18.000 C 226.800,18.000 226.700,17.900 226.700,17.500 226.700,17.000 226.700,16.400 226.700,15.900 226.700,15.600 226.800,15.500 227.100,15.500 227.200,15.500 227.300,15.500 227.400,15.500 227.600,15.500 227.700,15.600 227.700,15.800 227.700,16.100 227.700,16.500 227.700,16.800 227.700,17.000 227.700,17.300 227.700,17.500 227.800,18.000 227.600,18.000 227.200,18.000 Z M 229.400,16.800 C 229.400,17.000 229.400,17.200 229.400,17.500 229.400,18.200 229.500,18.000 228.800,18.100 228.400,18.100 228.300,18.000 228.300,17.700 228.300,17.100 228.300,16.600 228.300,16.000 228.300,15.700 228.400,15.600 228.700,15.600 228.800,15.600 229.000,15.600 229.100,15.600 229.300,15.600 229.400,15.700 229.400,15.900 229.400,16.100 229.400,16.500 229.400,16.800 Z M 231.000,16.800 C 231.000,17.100 231.000,17.400 231.000,17.700 231.000,18.000 231.000,18.100 230.600,18.100 229.800,18.100 229.900,18.200 229.900,17.400 229.900,16.900 229.900,16.400 229.900,15.900 229.900,15.600 230.000,15.500 230.300,15.500 230.400,15.500 230.500,15.500 230.600,15.500 230.900,15.500 231.000,15.600 231.000,15.900 231.000,16.200 231.000,16.500 231.000,16.800 Z M 232.400,18.000 C 231.700,18.000 231.700,18.000 231.700,17.300 231.700,17.100 231.700,17.000 231.700,16.800 231.700,16.600 231.700,16.400 231.700,16.200 231.700,15.500 231.900,15.400 232.600,15.500 232.800,15.500 232.800,15.700 232.800,15.800 232.800,16.400 232.800,17.000 232.800,17.700 232.700,17.900 232.600,18.000 232.400,18.000 Z M 234.000,18.000 C 233.300,18.000 233.300,18.000 233.300,17.300 233.300,16.800 233.300,16.300 233.300,15.900 233.300,15.600 233.400,15.500 233.700,15.500 233.800,15.500 234.000,15.500 234.100,15.500 234.300,15.500 234.400,15.600 234.400,15.800 234.400,16.100 234.400,16.500 234.400,16.800 234.400,17.100 234.400,17.400 234.400,17.700 234.400,18.000 234.300,18.000 234.000,18.000 Z M 235.900,18.000 C 235.600,18.100 235.300,18.000 235.000,18.000 234.900,18.000 234.900,17.900 234.900,17.800 234.900,17.100 234.900,16.500 234.900,15.800 234.900,15.600 235.000,15.500 235.200,15.500 235.300,15.500 235.500,15.500 235.600,15.500 235.900,15.500 235.900,15.600 235.900,15.900 235.900,16.200 235.900,16.500 235.900,16.800 235.900,17.000 235.900,17.300 235.900,17.500 236.000,17.700 236.100,17.900 235.900,18.000 Z M 239.800,9.200 C 239.800,10.600 239.700,12.000 239.800,13.400 239.800,13.800 239.700,13.900 239.300,13.900 233.000,13.900 226.600,13.900 220.300,13.900 215.000,13.900 209.700,13.900 204.300,13.900 203.900,13.900 203.800,13.800 203.800,13.400 203.800,12.000 203.800,10.600 203.800,9.200 203.800,8.800 203.900,8.700 204.300,8.700 210.100,8.700 216.000,8.700 221.800,8.700 227.600,8.700 233.500,8.700 239.300,8.700 239.700,8.700 239.800,8.800 239.800,9.200 Z M 246.900,8.400 C 246.900,9.400 246.900,10.300 246.900,11.300 246.900,12.300 246.900,13.200 246.900,14.200 246.900,14.500 246.800,14.600 246.500,14.600 245.000,14.600 243.400,14.600 241.900,14.600 241.600,14.600 241.500,14.500 241.500,14.200 241.500,12.300 241.500,10.400 241.500,8.500 241.500,8.200 241.600,8.100 241.900,8.100 243.400,8.100 245.000,8.100 246.500,8.100 246.800,8.000 246.900,8.100 246.900,8.400 Z M 258.700,11.300 C 258.700,11.300 258.700,11.300 258.700,11.300 258.700,12.500 258.700,13.700 258.700,14.900 258.700,15.200 258.700,15.500 258.700,15.800 258.700,16.000 258.600,16.100 258.400,16.000 255.300,15.200 252.100,14.400 249.000,13.700 248.700,13.600 248.700,13.500 248.700,13.300 248.700,12.000 248.700,10.700 248.700,9.400 248.700,9.200 248.800,9.100 249.000,9.000 252.100,8.200 255.200,7.500 258.300,6.700 258.700,6.600 258.800,6.800 258.800,7.100 258.800,7.800 258.800,8.400 258.800,9.100 258.700,9.700 258.700,10.500 258.700,11.300 Z M 264.000,3.300 C 264.900,2.500 265.900,2.300 267.100,2.300 268.500,2.400 269.900,2.300 271.300,2.300 271.600,2.300 271.700,2.400 271.700,2.700 271.700,3.300 271.700,3.900 271.700,4.500 271.700,4.700 271.700,4.800 271.400,4.800 268.400,4.700 265.400,4.600 262.300,4.400 262.900,4.000 263.500,3.700 264.000,3.300 Z M 272.500,16.600 C 270.600,16.600 268.600,16.600 266.700,16.600 264.700,16.600 262.800,16.600 260.800,16.600 260.500,16.600 260.400,16.500 260.400,16.200 260.400,13.100 260.400,10.100 260.400,7.000 260.400,6.700 260.500,6.600 260.800,6.600 264.700,6.600 268.600,6.600 272.500,6.600 272.800,6.600 272.900,6.700 272.900,7.000 272.900,10.100 272.900,13.100 272.900,16.200 273.000,16.500 272.800,16.600 272.500,16.600 Z " />
  <path stroke="none" fill="#ff9e9e9e" d="M 159.400,7.400 C 158.700,7.200 157.900,7.400 157.200,7.300 157.000,7.300 156.900,7.300 156.700,7.300 157.600,7.200 158.500,7.300 159.300,7.300 159.400,7.300 159.500,7.300 159.500,7.400 159.500,7.400 159.400,7.400 159.400,7.400 Z " />
  <path stroke="none" fill="#fffefefe" d="M 167.400,30.900 C 166.700,28.400 164.100,26.600 161.300,26.600 159.100,26.600 157.200,27.300 156.000,29.100 153.000,33.300 156.100,37.700 159.500,38.500 160.500,38.800 161.600,38.700 162.600,38.500 166.100,38.000 168.400,34.300 167.400,30.900 Z M 157.300,36.300 C 156.100,35.100 155.500,33.300 155.900,31.900 156.500,35.300 158.500,37.200 161.800,37.800 160.000,38.000 158.500,37.500 157.300,36.300 Z M 165.400,36.200 C 165.300,36.300 165.200,36.400 164.900,36.300 164.500,36.200 164.200,36.400 163.900,36.500 161.100,37.400 158.100,36.000 157.100,33.200 156.600,32.000 156.600,30.700 157.000,29.500 157.100,29.000 157.500,28.700 157.800,28.500 158.800,27.800 159.900,27.400 161.200,27.500 163.000,27.400 164.500,28.100 165.700,29.500 167.300,31.400 167.200,34.400 165.400,36.200 Z " />
  <path stroke="none" fill="#fffefefe" d="M 182.100,20.200 C 178.700,20.000 175.600,23.000 175.500,26.300 175.400,29.500 178.200,32.800 181.800,32.600 185.100,32.700 188.000,29.900 188.100,26.700 188.300,22.700 185.000,20.300 182.100,20.200 Z M 181.700,31.800 C 178.800,31.800 176.400,29.300 176.400,26.300 176.400,23.400 179.100,20.800 181.900,21.000 184.600,20.800 187.400,23.100 187.400,26.300 187.400,29.400 184.900,31.800 181.700,31.800 Z " />
  <path stroke="none" fill="#fffefefe" d="M 198.200,20.300 C 196.800,20.300 195.700,21.400 195.700,22.800 195.700,24.100 196.900,25.200 198.200,25.200 199.700,25.200 200.800,24.100 200.700,22.700 200.800,21.300 199.700,20.300 198.200,20.300 Z M 198.300,24.400 C 197.300,24.400 196.600,23.700 196.600,22.800 196.600,21.900 197.300,21.200 198.300,21.200 199.300,21.200 200.000,21.800 200.000,22.800 200.000,23.700 199.200,24.400 198.300,24.400 Z " />
  <path stroke="none" fill="#fffefefe" d="M 153.100,19.200 C 152.000,19.200 151.000,20.100 151.000,21.200 151.000,22.400 151.900,23.400 153.200,23.400 154.400,23.400 155.400,22.500 155.400,21.300 155.400,20.000 154.500,19.200 153.100,19.200 Z M 153.200,22.500 C 152.400,22.500 151.800,22.000 151.800,21.200 151.800,20.500 152.400,20.000 153.200,20.000 154.100,20.000 154.600,20.500 154.600,21.300 154.600,21.900 153.900,22.500 153.200,22.500 Z " />
  <path stroke="none" fill="#fffefefe" d="M 189.700,9.300 C 189.700,9.000 189.500,8.900 189.300,8.900 188.600,8.900 188.000,8.900 187.300,8.900 187.300,8.900 187.300,8.900 187.300,8.900 186.600,8.900 186.000,8.900 185.300,8.900 185.000,8.900 184.800,9.000 184.800,9.400 184.800,10.300 184.800,11.200 184.800,12.100 184.800,12.500 185.000,12.700 185.300,12.700 185.900,12.800 186.600,12.800 187.200,12.800 187.800,12.800 188.400,12.800 189.000,12.700 189.300,12.600 189.500,12.500 189.500,12.200 189.700,11.300 189.700,10.300 189.700,9.300 Z M 189.100,9.900 C 189.100,10.600 189.100,11.200 189.100,11.900 189.100,12.200 189.000,12.200 188.700,12.200 187.700,12.200 186.800,12.200 185.800,12.200 185.600,12.200 185.500,12.100 185.500,11.900 185.500,11.200 185.500,10.500 185.500,9.900 185.500,9.600 185.600,9.600 185.800,9.600 186.300,9.600 186.800,9.600 187.300,9.600 187.800,9.600 188.300,9.600 188.800,9.600 189.000,9.500 189.100,9.600 189.100,9.900 Z " />
  <path stroke="none" fill="#fffdfdfd" d="M 196.300,8.900 C 195.400,8.900 194.600,9.600 194.600,10.500 194.600,11.300 195.400,12.100 196.200,12.100 197.100,12.100 197.900,11.400 198.000,10.500 198.000,9.700 197.200,8.900 196.300,8.900 Z M 196.200,11.500 C 195.600,11.500 195.200,11.000 195.200,10.500 195.200,10.000 195.800,9.500 196.300,9.600 196.800,9.600 197.300,10.100 197.300,10.600 197.300,11.100 196.800,11.500 196.200,11.500 Z " />
</svg>