<?xml version="1.0" encoding="UTF-8" standalone="no"?>
<!DOCTYPE svg PUBLIC "-//W3C//DTD SVG 20010904//EN" "http://www.w3.org/TR/2001/REC-SVG-20010904/DTD/svg10.dtd"[]>
<svg version="1.1" id="Frosty Editor v1.0.6.3" xmlns="http://www.w3.org/2000/svg" d1p1:xlink="http://www.w3.org/1999/xlink" viewBox="0 0 25 25" xmlns:d1p1="xmlns">
  <path stroke="none" fill="#ffffffff" d="M 5.610,3.957 C 5.575,3.964 5.541,3.977 5.513,3.998 5.484,4.013 5.455,4.029 5.426,4.044 5.295,4.113 5.264,4.308 5.346,4.421 5.775,5.099 6.203,5.777 6.632,6.455 6.719,6.598 6.883,6.635 7.009,6.535 7.038,6.519 7.067,6.504 7.096,6.488 7.227,6.419 7.258,6.225 7.176,6.112 6.748,5.434 6.319,4.756 5.890,4.078 5.838,3.980 5.716,3.938 5.610,3.957 Z M 3.625,5.436 C 3.558,5.449 3.497,5.487 3.458,5.541 3.407,5.613 3.407,5.613 3.407,5.613 3.317,5.738 3.361,5.905 3.468,5.982 5.425,7.383 5.425,7.383 5.425,7.383 5.551,7.473 5.718,7.429 5.795,7.321 5.812,7.298 5.829,7.273 5.846,7.250 5.936,7.124 5.893,6.957 5.785,6.880 3.828,5.480 3.828,5.480 3.828,5.480 3.765,5.435 3.692,5.423 3.625,5.436 Z M 2.905,7.586 C 2.803,7.606 2.709,7.683 2.692,7.788 2.681,7.816 2.670,7.845 2.658,7.873 2.617,8.006 2.710,8.181 2.856,8.204 3.629,8.414 4.402,8.623 5.175,8.832 5.308,8.874 5.483,8.781 5.506,8.635 5.517,8.607 5.528,8.578 5.539,8.550 5.581,8.417 5.475,8.260 5.342,8.219 4.569,8.010 3.796,7.800 3.023,7.591 2.986,7.579 2.945,7.578 2.905,7.586 Z M 6.764,7.300 C 6.111,8.213 6.111,8.213 6.111,8.213 6.606,8.468 7.100,8.723 7.594,8.979 7.968,8.458 7.968,8.458 7.968,8.458 7.566,8.072 7.166,7.686 6.764,7.300 Z M 8.742,8.397 C 8.608,8.436 8.475,8.475 8.341,8.515 8.149,8.781 7.957,9.047 7.765,9.312 7.771,9.452 7.777,9.591 7.783,9.730 9.351,10.852 9.351,10.852 9.351,10.852 10.306,9.517 10.306,9.517 10.306,9.517 Z M 10.581,8.859 C 10.431,9.070 10.431,9.070 10.431,9.070 10.971,9.383 11.510,9.695 12.050,10.008 13.241,10.861 13.241,10.861 13.241,10.861 13.454,10.563 13.454,10.563 13.454,10.563 12.303,9.739 12.303,9.739 12.303,9.739 11.729,9.446 11.155,9.153 10.581,8.859 Z M 10.648,9.532 C 10.547,9.673 10.547,9.673 10.547,9.673 11.020,9.951 11.494,10.229 11.967,10.507 12.065,10.370 12.065,10.370 12.065,10.370 11.897,10.250 11.897,10.250 11.897,10.250 11.481,10.011 11.065,9.771 10.648,9.532 Z M 10.399,9.916 C 9.757,10.812 9.757,10.812 9.757,10.812 10.171,11.167 10.584,11.521 10.998,11.876 11.805,10.746 11.805,10.746 11.805,10.746 11.336,10.469 10.868,10.193 10.399,9.916 Z M 12.153,10.755 C 10.868,12.550 10.868,12.550 10.868,12.550 11.711,13.153 11.711,13.153 11.711,13.153 12.995,11.358 12.995,11.358 12.995,11.358 Z M 13.158,11.743 C 13.121,11.749 13.087,11.771 13.065,11.802 12.970,11.934 12.970,11.934 12.970,11.934 17.272,15.013 17.272,15.013 17.272,15.013 17.368,14.879 17.368,14.879 17.368,14.879 17.411,14.816 17.397,14.731 17.336,14.685 17.338,14.683 17.338,14.683 17.338,14.683 13.266,11.768 13.266,11.768 13.266,11.768 13.235,11.746 13.196,11.737 13.158,11.743 Z M 12.896,12.055 C 12.657,12.390 12.657,12.390 12.657,12.390 16.950,15.463 16.950,15.463 16.950,15.463 17.190,15.128 17.190,15.128 17.190,15.128 Z M 12.574,12.506 C 12.457,12.670 12.457,12.670 12.457,12.670 12.435,12.701 12.426,12.739 12.432,12.776 12.438,12.814 12.459,12.847 12.490,12.869 16.554,15.778 16.554,15.778 16.554,15.778 16.585,15.800 16.624,15.809 16.661,15.803 16.699,15.797 16.732,15.776 16.754,15.745 16.871,15.582 16.871,15.582 16.871,15.582 Z M 10.547,13.157 C 10.529,13.160 10.510,13.163 10.492,13.167 10.348,13.200 10.223,13.291 10.146,13.417 10.149,13.419 10.149,13.419 10.149,13.419 9.987,13.676 10.063,14.016 10.319,14.179 10.717,14.421 10.717,14.421 10.717,14.421 10.914,14.109 11.110,13.797 11.307,13.486 11.176,13.403 11.044,13.320 10.913,13.238 10.803,13.169 10.674,13.141 10.547,13.157 Z M 12.194,12.957 C 11.767,13.553 11.767,13.553 11.767,13.553 11.651,13.470 11.651,13.470 11.651,13.470 11.572,13.604 11.491,13.738 11.412,13.871 11.494,13.924 11.577,13.976 11.660,14.028 11.726,13.928 11.792,13.829 11.858,13.729 11.974,13.812 11.974,13.812 11.974,13.812 12.165,13.509 12.165,13.509 12.165,13.509 12.269,13.575 12.373,13.641 12.477,13.707 12.413,13.810 12.347,13.912 12.282,14.015 12.757,14.326 13.232,14.637 13.707,14.948 13.784,15.055 13.862,15.162 13.940,15.269 14.854,15.868 15.769,16.467 16.684,17.066 17.000,16.623 17.000,16.623 17.000,16.623 16.796,16.477 16.796,16.477 16.796,16.477 16.674,16.388 16.609,16.242 16.622,16.092 16.539,16.088 16.459,16.061 16.392,16.013 12.319,13.099 12.319,13.099 12.319,13.099 12.267,13.061 12.224,13.013 12.194,12.957 Z M 11.928,14.116 C 11.876,14.199 11.825,14.282 11.772,14.365 12.877,15.074 13.981,15.782 15.086,16.490 15.034,16.571 14.982,16.651 14.930,16.732 13.826,16.022 12.722,15.312 11.617,14.602 11.573,14.670 11.529,14.738 11.485,14.805 12.010,15.149 12.535,15.493 13.060,15.836 13.188,15.866 13.317,15.897 13.446,15.927 16.120,17.678 18.795,19.429 21.469,21.181 21.559,21.055 21.559,21.055 21.559,21.055 21.599,20.991 21.640,20.926 21.681,20.862 21.708,20.816 21.739,20.772 21.774,20.732 19.101,18.981 16.429,17.231 13.756,15.481 13.735,15.466 13.735,15.466 13.735,15.466 13.658,15.360 13.582,15.253 13.504,15.146 12.979,14.803 12.453,14.459 11.928,14.116 Z M 18.630,14.542 C 18.206,15.135 18.206,15.135 18.206,15.135 17.579,16.011 17.579,16.011 17.579,16.011 17.804,16.172 17.804,16.172 17.804,16.172 18.011,15.876 18.218,15.580 18.425,15.284 18.846,14.696 18.846,14.696 18.846,14.696 Z M 17.795,14.892 C 17.758,14.898 17.724,14.919 17.702,14.950 16.922,16.041 16.922,16.041 16.922,16.041 16.900,16.072 16.891,16.110 16.897,16.148 16.903,16.185 16.923,16.219 16.954,16.241 17.757,16.816 17.757,16.816 17.757,16.816 17.788,16.838 17.826,16.847 17.864,16.840 17.901,16.834 17.935,16.813 17.957,16.782 18.740,15.688 18.740,15.688 18.740,15.688 18.741,15.687 18.741,15.687 18.741,15.687 18.763,15.656 18.772,15.617 18.766,15.579 18.760,15.542 18.740,15.509 18.709,15.487 18.538,15.365 18.538,15.365 18.538,15.365 17.828,16.358 17.828,16.358 17.828,16.358 17.370,16.030 17.370,16.030 17.370,16.030 18.077,15.042 18.077,15.042 18.077,15.042 17.902,14.916 17.902,14.916 17.902,14.916 17.871,14.894 17.833,14.885 17.795,14.892 Z M 18.980,15.910 C 18.943,15.916 18.909,15.937 18.887,15.968 18.792,16.100 18.792,16.100 18.792,16.100 22.967,19.088 22.967,19.088 22.967,19.088 23.145,18.838 23.145,18.838 23.145,18.838 19.088,15.935 19.088,15.935 19.088,15.935 19.057,15.912 19.018,15.904 18.980,15.910 Z M 18.714,16.219 C 18.474,16.553 18.474,16.553 18.474,16.553 22.644,19.538 22.644,19.538 22.644,19.538 22.884,19.204 22.884,19.204 22.884,19.204 Z M 17.236,16.781 C 16.926,17.213 16.926,17.213 16.926,17.213 18.056,17.954 19.186,18.694 20.316,19.435 20.610,19.023 20.610,19.023 20.610,19.023 18.142,17.256 18.142,17.256 18.142,17.256 18.083,17.214 18.036,17.156 18.006,17.091 17.872,17.143 17.720,17.125 17.602,17.043 Z M 18.394,16.672 C 18.277,16.835 18.277,16.835 18.277,16.835 18.255,16.866 18.247,16.904 18.253,16.942 18.259,16.979 18.280,17.013 18.311,17.035 22.362,19.934 22.362,19.934 22.362,19.934 22.562,19.654 22.562,19.654 22.562,19.654 Z M 20.843,19.190 C 20.556,19.592 20.556,19.592 20.556,19.592 20.669,19.667 20.783,19.740 20.897,19.815 21.175,19.427 21.175,19.427 21.175,19.427 Z M 21.410,19.598 C 21.139,19.977 21.139,19.977 21.139,19.977 21.410,20.154 21.681,20.330 21.951,20.507 22.199,20.161 22.199,20.161 22.199,20.161 21.936,19.973 21.673,19.786 21.410,19.598 Z " />
</svg>