<?xml version="1.0" encoding="UTF-8" standalone="no"?>
<!DOCTYPE svg PUBLIC "-//W3C//DTD SVG 20010904//EN" "http://www.w3.org/TR/2001/REC-SVG-20010904/DTD/svg10.dtd"[]>
<svg version="1.1" id="Frosty Editor v1.0.6.3" xmlns="http://www.w3.org/2000/svg" d1p1:xlink="http://www.w3.org/1999/xlink" viewBox="0 0 96 96" xmlns:d1p1="xmlns">
  <path stroke="none" fill="#ffffffff" d="M 30.199,14.650 C 25.699,14.650 22.100,18.550 22.100,23.350 22.100,53.750 22.100,53.750 22.100,53.750 22.100,56.050 22.900,58.250 24.500,59.850 42.199,78.750 42.199,78.750 42.199,78.750 43.699,80.350 45.800,81.250 47.900,81.350 50.100,81.350 52.100,80.450 53.600,78.850 54.385,78.016 55.170,77.183 55.955,76.350 55.079,75.703 54.267,74.975 53.529,74.178 52.753,75.002 51.976,75.826 51.199,76.650 50.299,77.650 49.100,78.150 47.900,78.150 46.600,78.150 45.400,77.650 44.500,76.650 38.600,70.317 32.701,63.983 26.801,57.650 25.901,56.650 25.301,55.250 25.301,53.750 25.301,23.350 25.301,23.350 25.301,23.350 25.301,20.350 27.500,17.949 30.100,17.949 65.699,17.949 65.699,17.949 65.699,17.949 68.399,17.949 70.500,20.350 70.500,23.350 70.500,45.660 70.500,45.660 70.500,45.660 71.688,45.960 72.825,46.384 73.900,46.914 73.900,23.350 73.900,23.350 73.900,23.350 73.900,18.550 70.301,14.650 65.801,14.650 30.199,14.650 30.199,14.650 30.199,14.650 Z M 30.199,20.100 C 28.699,20.100 27.600,21.501 27.600,23.301 27.600,53.699 27.600,53.699 27.600,53.699 27.600,54.599 27.900,55.500 28.500,56.100 46.199,75.000 46.199,75.000 46.199,75.000 46.699,75.500 47.300,75.801 47.900,75.801 48.500,75.801 49.200,75.500 49.600,75.000 50.425,74.124 51.251,73.249 52.076,72.373 50.101,69.562 48.939,66.135 48.939,62.424 48.939,52.844 56.651,45.131 66.230,45.131 66.966,45.131 67.689,45.183 68.400,45.271 68.400,23.301 68.400,23.301 68.400,23.301 68.400,21.601 67.201,20.100 65.801,20.100 30.199,20.100 30.199,20.100 30.199,20.100 Z M 66.230,47.459 C 62.578,47.459 59.149,48.794 56.490,51.076 58.203,52.813 59.915,54.550 61.627,56.287 61.627,57.705 61.627,57.705 61.627,57.705 59.740,57.705 59.740,57.705 59.740,57.705 54.805,52.768 54.805,52.768 54.805,52.768 53.825,53.927 53.009,55.246 52.408,56.697 50.092,62.289 51.371,68.724 55.650,73.004 59.930,77.284 66.367,78.564 71.959,76.248 73.410,75.647 74.726,74.829 75.885,73.850 73.586,71.551 73.586,71.551 73.586,71.551 73.586,68.244 73.586,68.244 73.586,68.244 77.547,72.205 77.547,72.205 77.547,72.205 79.849,69.540 81.193,66.093 81.193,62.422 81.193,54.157 74.495,47.459 66.230,47.459 Z M 63.043,50.621 C 68.709,50.621 68.709,50.621 68.709,50.621 68.709,61.557 68.709,61.557 68.709,61.557 69.496,60.744 70.282,59.932 71.068,59.119 71.068,57.309 71.068,57.309 71.068,57.309 73.666,57.309 73.666,57.309 73.666,57.309 73.666,59.906 73.666,59.906 73.666,59.906 71.697,59.906 71.697,59.906 71.697,59.906 69.811,61.793 69.811,61.793 69.811,61.793 77.205,61.793 77.205,61.793 77.205,61.793 77.205,64.705 77.205,64.705 77.205,64.705 72.328,64.705 72.328,64.705 72.328,64.705 72.328,72.729 72.328,72.729 72.328,72.729 71.331,73.175 70.335,73.620 69.338,74.066 69.338,64.705 69.338,64.705 69.338,64.705 66.977,64.705 66.977,64.705 66.977,64.705 64.381,67.303 64.381,67.303 64.381,67.303 64.381,69.189 64.381,69.189 64.381,69.189 61.785,69.189 61.785,69.189 61.785,69.189 61.785,66.674 61.785,66.674 61.785,66.674 63.596,66.674 63.596,66.674 63.596,66.674 65.561,64.705 65.561,64.705 65.561,64.705 54.861,64.705 54.861,64.705 54.861,64.705 54.861,59.119 54.861,59.119 54.861,59.119 62.963,59.119 62.963,59.119 62.963,59.119 62.989,56.287 63.017,53.453 63.043,50.621 Z " />
</svg>