<?xml version="1.0" encoding="UTF-8" standalone="no"?>
<!DOCTYPE svg PUBLIC "-//W3C//DTD SVG 20010904//EN" "http://www.w3.org/TR/2001/REC-SVG-20010904/DTD/svg10.dtd"[]>
<svg version="1.1" id="Frosty Editor v1.0.6.3" xmlns="http://www.w3.org/2000/svg" d1p1:xlink="http://www.w3.org/1999/xlink" viewBox="0 0 25 25" xmlns:d1p1="xmlns">
  <path stroke="none" fill="#ffffffff" d="M 12.971,2.303 C 10.075,3.979 7.178,5.655 4.282,7.330 4.282,17.353 4.282,17.353 4.282,17.353 7.178,19.028 10.075,20.704 12.971,22.380 15.867,20.704 18.763,19.028 21.659,17.353 21.659,7.330 21.659,7.330 21.659,7.330 18.763,5.655 15.867,3.979 12.971,2.303 Z M 12.971,3.172 C 15.629,4.703 18.287,6.234 20.945,7.765 20.945,16.950 20.945,16.950 20.945,16.950 18.287,18.481 15.629,20.011 12.971,21.542 10.323,20.011 7.674,18.481 5.026,16.950 5.026,7.765 5.026,7.765 5.026,7.765 7.674,6.234 10.323,4.703 12.971,3.172 Z M 12.971,5.528 C 11.015,6.656 9.061,7.784 7.105,8.912 7.105,15.676 7.105,15.676 7.105,15.676 9.061,16.804 11.015,17.932 12.971,19.059 14.926,17.932 16.881,16.804 18.836,15.676 18.836,8.912 18.836,8.912 18.836,8.912 16.881,7.784 14.926,6.656 12.971,5.528 Z M 12.971,7.704 C 14.030,9.367 15.089,11.031 16.148,12.694 15.240,12.392 14.332,12.090 13.424,11.787 12.517,11.787 12.517,11.787 12.517,11.787 11.610,12.090 10.701,12.392 9.794,12.694 10.853,11.031 11.912,9.367 12.971,7.704 Z M 11.442,12.806 C 12.461,12.806 12.461,12.806 12.461,12.806 12.461,15.481 12.461,15.481 12.461,15.481 12.121,15.784 11.781,16.086 11.442,16.388 Z M 13.481,12.806 C 14.500,12.806 14.500,12.806 14.500,12.806 14.500,16.388 14.500,16.388 14.500,16.388 14.160,16.086 13.820,15.784 13.481,15.481 Z " />
</svg>