<?xml version="1.0" encoding="UTF-8" standalone="no"?>
<!DOCTYPE svg PUBLIC "-//W3C//DTD SVG 20010904//EN" "http://www.w3.org/TR/2001/REC-SVG-20010904/DTD/svg10.dtd"[]>
<svg version="1.1" id="Frosty Editor v1.0.6.3" xmlns="http://www.w3.org/2000/svg" d1p1:xlink="http://www.w3.org/1999/xlink" viewBox="0 0 25 25" xmlns:d1p1="xmlns">
  <path stroke="none" fill="#ffffffff" d="M 12.971,2.303 C 10.075,3.979 7.178,5.655 4.282,7.330 4.282,17.353 4.282,17.353 4.282,17.353 7.178,19.028 10.075,20.704 12.971,22.380 15.867,20.704 18.763,19.028 21.659,17.353 21.659,7.330 21.659,7.330 21.659,7.330 18.763,5.655 15.867,3.979 12.971,2.303 Z M 12.971,3.172 C 15.629,4.703 18.287,6.234 20.945,7.765 20.945,16.950 20.945,16.950 20.945,16.950 18.287,18.481 15.629,20.011 12.971,21.542 10.323,20.011 7.674,18.481 5.026,16.950 5.026,7.765 5.026,7.765 5.026,7.765 7.674,6.234 10.323,4.703 12.971,3.172 Z M 12.971,5.528 C 11.015,6.656 9.061,7.784 7.105,8.912 7.105,15.676 7.105,15.676 7.105,15.676 9.061,16.804 11.015,17.932 12.971,19.059 14.926,17.932 16.881,16.804 18.836,15.676 18.836,8.912 18.836,8.912 18.836,8.912 16.881,7.784 14.926,6.656 12.971,5.528 Z M 10.245,8.161 C 15.680,8.161 15.680,8.161 15.680,8.161 16.199,8.191 16.597,8.631 16.576,9.150 16.576,13.794 16.576,13.794 16.576,13.794 16.578,14.057 16.479,14.311 16.300,14.504 15.396,15.469 14.492,16.433 13.587,17.398 13.425,17.578 13.195,17.680 12.954,17.680 12.712,17.680 12.482,17.578 12.320,17.398 11.418,16.433 10.516,15.469 9.614,14.504 9.438,14.312 9.341,14.059 9.343,13.799 9.343,9.150 9.343,9.150 9.343,9.150 9.321,8.629 9.724,8.187 10.245,8.161 Z " />
</svg>