<?xml version="1.0" encoding="UTF-8" standalone="no"?>
<!DOCTYPE svg PUBLIC "-//W3C//DTD SVG 20010904//EN" "http://www.w3.org/TR/2001/REC-SVG-20010904/DTD/svg10.dtd"[]>
<svg version="1.1" id="Frosty Editor v1.0.6.3" xmlns="http://www.w3.org/2000/svg" d1p1:xlink="http://www.w3.org/1999/xlink" viewBox="0 0 96 96" xmlns:d1p1="xmlns">
  <path stroke="none" fill="none" d="M 38.000,60.590 C 38.667,60.923 39.333,61.257 40.000,61.590 40.000,54.863 40.000,48.137 40.000,41.410 39.333,41.743 38.667,42.077 38.000,42.410 38.000,48.470 38.000,54.530 38.000,60.590 38.000,60.590 38.000,60.590 38.000,60.590 Z " />
  <path stroke="none" fill="none" d="M 49.720,32.550 C 50.147,31.813 50.573,31.077 51.000,30.340 50.573,29.603 50.147,28.867 49.720,28.130 48.870,28.130 48.020,28.130 47.170,28.130 46.747,28.867 46.323,29.603 45.900,30.340 46.323,31.077 46.747,31.813 47.170,32.550 48.020,32.550 48.870,32.550 49.720,32.550 49.720,32.550 49.720,32.550 49.720,32.550 Z " />
  <path stroke="none" fill="none" d="M 48.000,42.000 C 48.667,42.000 49.333,42.000 50.000,42.000 50.000,48.333 50.000,54.667 50.000,61.000 49.333,61.000 48.667,61.000 48.000,61.000 48.000,54.667 48.000,48.333 48.000,42.000 Z M 46.000,63.000 C 48.000,63.000 50.000,63.000 52.000,63.000 52.000,55.333 52.000,47.667 52.000,40.000 50.000,40.000 48.000,40.000 46.000,40.000 46.000,47.667 46.000,55.333 46.000,63.000 Z " />
  <path stroke="none" fill="none" d="M 57.000,61.590 C 57.667,61.257 58.333,60.923 59.000,60.590 59.000,54.530 59.000,48.470 59.000,42.410 58.333,42.077 57.667,41.743 57.000,41.410 57.000,48.137 57.000,54.863 57.000,61.590 57.000,61.590 57.000,61.590 57.000,61.590 Z " />
  <path stroke="none" fill="#ffffffff" d="M 37.000,35.000 C 44.667,35.000 52.333,35.000 60.000,35.000 60.000,36.000 60.000,37.000 60.000,38.000 52.333,38.000 44.667,38.000 37.000,38.000 37.000,37.000 37.000,36.000 37.000,35.000 Z " />
  <path stroke="none" fill="#ffffffff" d="M 37.000,65.000 C 44.667,65.000 52.333,65.000 60.000,65.000 60.000,66.000 60.000,67.000 60.000,68.000 52.333,68.000 44.667,68.000 37.000,68.000 37.000,67.000 37.000,66.000 37.000,65.000 Z " />
  <path stroke="none" fill="#ffffffff" d="M 39.000,69.000 C 45.333,69.000 51.667,69.000 58.000,69.000 58.000,70.667 58.000,72.333 58.000,74.000 51.667,74.000 45.333,74.000 39.000,74.000 39.000,72.333 39.000,70.667 39.000,69.000 Z " />
  <path stroke="none" fill="#ffffffff" d="M 43.000,24.000 C 46.667,24.000 50.333,24.000 54.000,24.000 54.000,24.667 54.000,25.333 54.000,26.000 50.333,26.000 46.667,26.000 43.000,26.000 43.000,25.333 43.000,24.667 43.000,24.000 Z " />
  <path stroke="none" fill="#ffffffff" d="M 48.000,42.000 C 48.667,42.000 49.333,42.000 50.000,42.000 50.000,48.333 50.000,54.667 50.000,61.000 49.333,61.000 48.667,61.000 48.000,61.000 48.000,54.667 48.000,48.333 48.000,42.000 Z " />
  <path stroke="none" fill="#ffffffff" d="M 59.000,42.410 C 59.000,48.470 59.000,54.530 59.000,60.590 58.333,60.923 57.667,61.257 57.000,61.590 57.000,54.863 57.000,48.137 57.000,41.410 57.667,41.743 58.333,42.077 59.000,42.410 Z M 52.000,63.000 C 50.000,63.000 48.000,63.000 46.000,63.000 46.000,55.333 46.000,47.667 46.000,40.000 48.000,40.000 50.000,40.000 52.000,40.000 52.000,47.667 52.000,55.333 52.000,63.000 Z M 40.000,61.590 C 39.333,61.257 38.667,60.923 38.000,60.590 38.000,54.530 38.000,48.470 38.000,42.410 38.667,42.077 39.333,41.743 40.000,41.410 40.000,48.137 40.000,54.863 40.000,61.590 Z M 58.000,39.000 C 51.667,39.000 45.333,39.000 39.000,39.000 39.000,39.333 39.000,39.667 39.000,40.000 38.333,40.667 37.667,41.333 37.000,42.000 37.000,48.333 37.000,54.667 37.000,61.000 37.667,61.667 38.333,62.333 39.000,63.000 39.000,63.333 39.000,63.667 39.000,64.000 45.333,64.000 51.667,64.000 58.000,64.000 58.000,63.667 58.000,63.333 58.000,63.000 58.667,62.333 59.333,61.667 60.000,61.000 60.000,54.667 60.000,48.333 60.000,42.000 59.333,41.333 58.667,40.667 58.000,40.000 58.000,39.667 58.000,39.333 58.000,39.000 Z " />
  <path stroke="none" fill="#ffffffff" d="M 47.170,28.130 C 48.020,28.130 48.870,28.130 49.720,28.130 50.147,28.867 50.573,29.603 51.000,30.340 50.573,31.077 50.147,31.813 49.720,32.550 48.870,32.550 48.020,32.550 47.170,32.550 46.747,31.813 46.323,31.077 45.900,30.340 46.323,29.603 46.747,28.867 47.170,28.130 Z M 38.000,32.000 C 38.333,32.000 38.667,32.000 39.000,32.000 39.000,32.667 39.000,33.333 39.000,34.000 45.333,34.000 51.667,34.000 58.000,34.000 58.000,31.667 58.000,29.333 58.000,27.000 51.667,27.000 45.333,27.000 39.000,27.000 39.000,28.000 39.000,29.000 39.000,30.000 38.667,30.000 38.333,30.000 38.000,30.000 38.000,29.667 38.000,29.333 38.000,29.000 37.667,29.000 37.333,29.000 37.000,29.000 37.000,30.333 37.000,31.667 37.000,33.000 37.333,33.000 37.667,33.000 38.000,33.000 38.000,32.667 38.000,32.333 38.000,32.000 Z " />
</svg>