<?xml version="1.0" encoding="UTF-8" standalone="no"?>
<!-- Created with Inkscape (http://www.inkscape.org/) -->

<svg
   width="96"
   height="96"
   viewBox="0 0 25.4 25.399999"
   version="1.1"
   id="svg5"
   inkscape:version="1.1 (c68e22c387, 2021-05-23)"
   sodipodi:docname="CloneEngineer_CoolingGrenade.svg"
   xmlns:inkscape="http://www.inkscape.org/namespaces/inkscape"
   xmlns:sodipodi="http://sodipodi.sourceforge.net/DTD/sodipodi-0.dtd"
   xmlns="http://www.w3.org/2000/svg"
   xmlns:svg="http://www.w3.org/2000/svg">
  <sodipodi:namedview
     id="namedview7"
     pagecolor="#ffffff"
     bordercolor="#999999"
     borderopacity="1"
     inkscape:pageshadow="0"
     inkscape:pageopacity="0"
     inkscape:pagecheckerboard="true"
     inkscape:document-units="px"
     showgrid="false"
     width="384mm"
     units="px"
     borderlayer="false"
     showborder="true"
     inkscape:showpageshadow="true"
     inkscape:zoom="4"
     inkscape:cx="76.375"
     inkscape:cy="30.125"
     inkscape:window-width="1920"
     inkscape:window-height="1017"
     inkscape:window-x="-8"
     inkscape:window-y="-8"
     inkscape:window-maximized="1"
     inkscape:current-layer="layer1" />
  <defs
     id="defs2" />
  <g
     inkscape:label="Layer 1"
     inkscape:groupmode="layer"
     id="layer1">
    <path
       id="path182"
       d="M 11.276315,5.6756226 V 6.2063394 H 14.198617 V 5.6756226 Z M 10.21488,6.4714395 V 7.2688068 H 9.9482298 V 7.00319 H 9.6831297 V 8.0651407 H 9.9482298 V 7.799524 H 10.21488 V 8.3312743 H 15.261085 V 6.4714395 Z M 12.384775,6.7721964 H 13.060702 C 13.174485,6.9679338 13.287467,7.1640199 13.40125,7.3597574 C 13.287467,7.5554948 13.174485,7.7510645 13.060702,7.9468016 H 12.384775 C 12.272584,7.7510645 12.158723,7.5554948 12.047327,7.3597574 C 12.158723,7.1640199 12.272584,6.9679338 12.384775,6.7721964 Z M 9.6831297,8.5968913 V 9.3942584 H 15.791802 V 8.5968913 Z M 10.21488,9.6588418 V 9.9249755 C 10.037443,10.101617 9.8597708,10.279052 9.6831297,10.455693 V 15.501896 C 9.8597708,15.679333 10.037443,15.855972 10.21488,16.032613 V 16.298747 H 12.920142 C 12.966292,16.207244 13.015422,16.119342 13.067937,16.032613 H 12.073166 V 9.9249755 H 13.66635 V 15.276587 C 14.042707,14.9058 14.493155,14.608852 14.994434,14.411524 V 10.29963 C 15.172666,10.38795 15.348232,10.476131 15.525668,10.565247 V 14.244609 C 15.613193,14.223921 15.70189,14.2065 15.791802,14.191382 V 10.455693 L 15.261085,9.9249755 V 9.6588418 Z M 10.479464,10.29963 V 15.658476 C 10.302822,15.56936 10.126462,15.481696 9.9482298,15.393376 V 10.565247 C 10.126462,10.476131 10.302822,10.38795 10.479464,10.29963 Z M 12.603883,10.455693 V 15.501896 H 13.135633 V 10.455693 Z M 16.713709,14.585673 C 15.212789,14.585673 13.859275,15.489687 13.284978,16.876489 C 12.710448,18.263293 13.028198,19.859819 14.08958,20.921204 C 15.150963,21.982586 16.746976,22.299818 18.133778,21.725289 C 19.520581,21.150991 20.425111,19.797477 20.425111,18.296558 C 20.425111,17.312412 20.033676,16.368499 19.337839,15.672429 C 18.64177,14.976593 17.697854,14.585673 16.713709,14.585673 Z M 16.375229,15.617652 H 17.070793 V 16.569015 C 17.270267,16.371861 17.469733,16.174472 17.669207,15.97732 C 17.77822,16.163571 17.887303,16.350206 17.996318,16.536458 C 17.687134,16.845642 17.37791,17.154867 17.068726,17.46405 V 17.946708 H 17.506943 C 17.783653,17.667677 18.060672,17.388063 18.337383,17.109033 C 18.523636,17.218046 18.71027,17.327131 18.896522,17.436145 C 18.729521,17.603145 18.562261,17.770404 18.39526,17.937407 H 19.387965 C 19.391908,18.169351 19.395906,18.401025 19.39985,18.632971 H 18.388542 L 18.889287,19.134233 C 18.705355,19.241624 18.521316,19.349303 18.337383,19.456694 C 18.061369,19.180676 17.785541,18.904336 17.509526,18.62832 H 17.080095 V 19.067053 C 17.355414,19.342372 17.630565,19.617007 17.905884,19.892326 C 17.79687,20.078579 17.687787,20.265213 17.578773,20.451465 L 17.082679,19.955371 V 20.948075 H 16.386598 V 19.941419 C 16.219597,20.108419 16.052853,20.275162 15.885853,20.442163 C 15.775215,20.25591 15.664728,20.069793 15.55409,19.883541 C 15.830105,19.607525 16.105932,19.331184 16.381947,19.055168 V 18.632971 H 15.918409 C 15.613864,18.937515 15.308797,19.242582 15.004253,19.547127 C 14.818,19.439736 14.631883,19.332057 14.445631,19.224666 C 14.640465,19.029831 14.835257,18.835041 15.030091,18.640206 H 14.064775 V 17.944124 H 15.016138 C 14.828262,17.752305 14.640225,17.560784 14.452349,17.368966 C 14.638602,17.259951 14.825236,17.150868 15.011488,17.041854 C 15.308379,17.338745 15.604983,17.635865 15.901872,17.932756 H 16.38453 V 17.468701 C 16.075346,17.159518 15.765607,16.850292 15.456422,16.541109 C 15.566133,16.359495 15.676406,16.177537 15.786117,15.995923 C 15.982574,16.192382 16.178772,16.388577 16.375229,16.585034 Z M 9.6831297,16.56333 V 17.360697 H 12.559441 C 12.61116,17.083801 12.691844,16.817152 12.797669,16.56333 Z M 10.21488,17.626831 V 18.954399 H 12.584246 C 12.523774,18.678297 12.491745,18.390972 12.491745,18.09657 C 12.491745,17.937434 12.501628,17.780397 12.519133,17.626831 Z"
       fill="#ffffff"
       style="stroke-width:0.264583" />
  </g>
  <inkscape:templateinfo>
    <inkscape:name>Ability SVG</inkscape:name>
    <inkscape:author>Soulbruh</inkscape:author>
    <inkscape:shortdesc>Used for abilities in BFII</inkscape:shortdesc>
    <inkscape:date>2021-07-24</inkscape:date>
  </inkscape:templateinfo>
</svg>
