<?xml version="1.0" encoding="UTF-8" standalone="no"?>
<!DOCTYPE svg PUBLIC "-//W3C//DTD SVG 20010904//EN" "http://www.w3.org/TR/2001/REC-SVG-20010904/DTD/svg10.dtd"[]>
<svg version="1.1" id="Frosty Editor v1.0.6.3" xmlns="http://www.w3.org/2000/svg" d1p1:xlink="http://www.w3.org/1999/xlink" viewBox="0 0 96 96" xmlns:d1p1="xmlns">
  <path stroke="none" fill="none" d="M 47.480,45.430 C 45.813,45.430 44.147,45.430 42.480,45.430 42.480,46.763 42.480,48.097 42.480,49.430 44.147,49.430 45.813,49.430 47.480,49.430 48.147,49.430 48.813,49.430 49.480,49.430 50.813,49.430 52.147,49.430 53.480,49.430 53.480,48.097 53.480,46.763 53.480,45.430 52.147,45.430 50.813,45.430 49.480,45.430 48.813,45.430 48.147,45.430 47.480,45.430 47.480,45.430 47.480,45.430 47.480,45.430 Z " />
  <path stroke="none" fill="#ffffffff" d="M 38.480,23.430 C 44.813,23.430 51.147,23.430 57.480,23.430 57.480,24.430 57.480,25.430 57.480,26.430 51.147,26.430 44.813,26.430 38.480,26.430 38.480,25.430 38.480,24.430 38.480,23.430 Z " />
  <path stroke="none" fill="#ffffffff" d="M 53.480,20.000 C 53.480,19.581 53.314,19.179 53.017,18.883 52.721,18.586 52.319,18.420 51.900,18.420 48.953,18.420 46.007,18.420 43.060,18.420 42.641,18.420 42.239,18.586 41.943,18.883 41.646,19.179 41.480,19.581 41.480,20.000 41.480,20.473 41.480,20.947 41.480,21.420 45.480,21.420 49.480,21.420 53.480,21.420 53.480,20.947 53.480,20.473 53.480,20.000 Z " />
  <path stroke="none" fill="#ffffffff" d="M 39.480,70.430 C 45.147,70.430 50.813,70.430 56.480,70.430 56.147,68.777 55.813,67.123 55.480,65.470 55.480,65.457 55.480,65.443 55.480,65.430 50.480,65.430 45.480,65.430 40.480,65.430 40.147,67.097 39.813,68.763 39.480,70.430 39.480,70.430 39.480,70.430 39.480,70.430 Z " />
  <path stroke="none" fill="#ffffffff" d="M 69.550,75.940 C 68.033,72.743 66.517,69.547 65.000,66.350 64.761,65.794 64.215,65.433 63.610,65.430 61.567,65.430 59.523,65.430 57.480,65.430 57.993,67.763 58.507,70.097 59.020,72.430 51.680,72.430 44.340,72.430 37.000,72.430 37.503,70.097 38.007,67.763 38.510,65.430 36.463,65.430 34.417,65.430 32.370,65.430 31.765,65.433 31.219,65.794 30.980,66.350 29.457,69.547 27.933,72.743 26.410,75.940 26.268,76.273 26.304,76.656 26.506,76.956 26.707,77.257 27.048,77.435 27.410,77.430 41.133,77.430 54.857,77.430 68.580,77.430 68.937,77.425 69.268,77.243 69.463,76.944 69.657,76.645 69.690,76.268 69.550,75.940 69.550,75.940 69.550,75.940 69.550,75.940 Z " />
  <path stroke="none" fill="#ffffffff" d="M 53.480,49.430 C 49.813,49.430 46.147,49.430 42.480,49.430 42.480,48.097 42.480,46.763 42.480,45.430 46.147,45.430 49.813,45.430 53.480,45.430 53.480,46.763 53.480,48.097 53.480,49.430 Z M 55.480,43.430 C 50.480,43.430 45.480,43.430 40.480,43.430 40.480,50.097 40.480,56.763 40.480,63.430 45.480,63.430 50.480,63.430 55.480,63.430 55.480,56.763 55.480,50.097 55.480,43.430 Z " />
  <path stroke="none" fill="#ffffffff" d="M 31.480,61.910 C 31.987,62.417 32.493,62.923 33.000,63.430 34.827,63.430 36.653,63.430 38.480,63.430 38.480,56.097 38.480,48.763 38.480,41.430 44.813,41.430 51.147,41.430 57.480,41.430 57.480,48.763 57.480,56.097 57.480,63.430 59.320,63.430 61.160,63.430 63.000,63.430 63.507,62.923 64.013,62.417 64.520,61.910 64.520,56.747 64.520,51.583 64.520,46.420 65.520,46.420 66.520,46.420 67.520,46.420 67.520,41.753 67.520,37.087 67.520,32.420 66.520,32.420 65.520,32.420 64.520,32.420 64.520,31.590 64.520,30.760 64.520,29.930 64.520,29.100 63.850,28.430 62.020,28.430 52.680,28.430 43.340,28.430 34.000,28.430 32.170,28.430 31.500,29.100 31.500,29.930 31.500,30.767 31.500,31.603 31.500,32.440 30.500,32.440 29.500,32.440 28.500,32.440 28.500,37.107 28.500,41.773 28.500,46.440 29.500,46.440 30.500,46.440 31.500,46.440 31.493,51.597 31.487,56.753 31.480,61.910 Z " />
</svg>