<?xml version="1.0" encoding="UTF-8" standalone="no"?>
<!DOCTYPE svg PUBLIC "-//W3C//DTD SVG 20010904//EN" "http://www.w3.org/TR/2001/REC-SVG-20010904/DTD/svg10.dtd"[]>
<svg version="1.1" id="Frosty Editor v1.0.6.3" xmlns="http://www.w3.org/2000/svg" d1p1:xlink="http://www.w3.org/1999/xlink" viewBox="0 0 25 25" xmlns:d1p1="xmlns">
  <path stroke="none" fill="#ffffffff" d="M 12.880,2.898 C 12.765,2.898 12.699,2.903 12.699,2.903 12.699,2.903 12.653,2.900 12.568,2.899 12.121,2.893 10.604,2.948 9.240,3.862 9.418,4.082 9.609,4.351 9.810,4.660 10.255,5.345 10.747,6.210 11.207,7.063 12.007,8.547 12.525,9.633 12.694,9.984 12.863,9.633 13.382,8.547 14.182,7.063 14.641,6.210 15.133,5.345 15.578,4.660 15.781,4.349 15.973,4.078 16.153,3.857 14.836,2.979 13.380,2.898 12.880,2.898 Z M 16.548,4.150 C 16.383,4.352 16.194,4.618 15.992,4.929 15.560,5.593 15.071,6.452 14.615,7.298 13.703,8.990 12.917,10.634 12.917,10.634 12.694,11.100 12.694,11.100 12.694,11.100 12.472,10.634 12.472,10.634 12.472,10.634 12.472,10.634 11.686,8.990 10.774,7.298 10.317,6.452 9.829,5.593 9.396,4.929 9.196,4.621 9.009,4.357 8.844,4.156 8.601,4.356 8.367,4.588 8.149,4.857 10.844,8.874 12.411,13.046 12.694,13.813 12.976,13.047 14.547,8.869 17.245,4.850 17.027,4.582 16.792,4.350 16.548,4.150 Z M 17.577,5.243 C 16.859,6.327 16.211,7.447 15.641,8.520 16.009,8.463 16.520,8.387 17.176,8.299 18.249,8.156 19.452,8.017 20.089,8.042 20.284,8.050 20.284,8.050 20.284,8.050 20.322,8.239 20.322,8.239 20.322,8.239 20.332,8.288 20.328,8.282 20.331,8.310 20.334,8.339 20.337,8.376 20.342,8.419 20.343,8.432 20.346,8.450 20.347,8.464 20.430,6.729 20.430,6.729 20.430,6.729 19.818,6.190 18.120,5.466 17.577,5.243 Z M 7.815,5.246 C 7.264,5.473 5.579,6.192 4.970,6.729 5.049,8.378 5.049,8.378 5.049,8.378 5.052,8.354 5.055,8.328 5.057,8.310 5.060,8.282 5.057,8.288 5.066,8.239 5.104,8.050 5.104,8.050 5.104,8.050 5.297,8.042 5.297,8.042 5.297,8.042 5.935,8.017 7.138,8.156 8.211,8.299 8.871,8.387 9.382,8.464 9.750,8.520 9.181,7.449 8.532,6.329 7.815,5.246 Z M 5.527,8.552 C 5.519,8.624 5.511,8.698 5.503,8.778 5.491,8.901 5.487,8.939 5.479,9.022 5.782,9.117 8.892,10.115 10.974,11.488 11.202,11.488 11.202,11.488 11.202,11.488 10.871,10.753 10.482,9.933 10.034,9.064 9.899,9.042 9.125,8.919 8.147,8.789 7.160,8.658 6.112,8.553 5.527,8.552 Z M 19.862,8.552 C 19.277,8.553 18.229,8.657 17.241,8.789 16.268,8.919 15.497,9.040 15.357,9.063 14.909,9.932 14.519,10.753 14.188,11.488 14.413,11.488 14.413,11.488 14.413,11.488 16.494,10.115 19.604,9.117 19.907,9.022 19.899,8.939 19.895,8.901 19.883,8.778 19.875,8.698 19.869,8.624 19.862,8.552 Z M 20.301,9.409 C 20.245,9.426 20.245,9.426 20.245,9.426 20.245,9.426 20.245,9.426 20.245,9.426 20.118,9.867 20.118,9.867 20.118,9.867 20.069,9.895 20.069,9.895 20.069,9.895 20.069,9.895 18.816,10.611 17.494,11.415 16.832,11.818 16.153,12.241 15.606,12.608 15.060,12.974 14.635,13.303 14.527,13.438 14.489,13.488 14.489,13.488 14.489,13.488 15.240,13.090 15.580,12.909 16.676,12.329 17.702,11.786 18.730,11.241 19.504,10.830 19.812,10.667 20.040,10.547 20.252,10.435 Z M 5.099,9.413 C 5.149,10.441 5.149,10.441 5.149,10.441 5.359,10.552 5.581,10.670 5.884,10.830 6.658,11.241 7.687,11.786 8.713,12.329 9.808,12.909 10.148,13.089 10.899,13.487 10.859,13.438 10.859,13.438 10.859,13.438 10.752,13.303 10.327,12.974 9.780,12.608 9.234,12.241 8.556,11.818 7.894,11.415 6.571,10.611 5.318,9.895 5.318,9.895 5.270,9.867 5.270,9.867 5.270,9.867 5.142,9.427 5.142,9.427 5.142,9.427 5.142,9.427 5.141,9.426 5.141,9.426 Z M 5.454,9.530 C 5.499,9.685 5.499,9.685 5.499,9.685 5.512,9.693 5.779,9.847 5.954,9.949 5.961,9.704 5.961,9.704 5.961,9.704 5.747,9.629 5.590,9.575 5.454,9.530 Z M 19.932,9.530 C 19.796,9.575 19.639,9.629 19.425,9.704 19.432,9.949 19.432,9.949 19.432,9.949 19.608,9.847 19.874,9.693 19.887,9.685 Z M 6.205,9.792 C 6.196,10.089 6.196,10.089 6.196,10.089 6.339,10.172 6.456,10.242 6.633,10.346 6.641,9.953 6.641,9.953 6.641,9.953 6.487,9.895 6.342,9.841 6.205,9.792 Z M 19.182,9.792 C 19.045,9.841 18.899,9.895 18.745,9.953 18.753,10.346 18.753,10.346 18.753,10.346 18.930,10.242 19.048,10.172 19.190,10.089 Z M 18.501,10.046 C 18.333,10.110 18.159,10.179 17.980,10.251 17.995,10.796 17.995,10.796 17.995,10.796 18.177,10.687 18.345,10.587 18.511,10.489 Z M 6.887,10.046 C 6.878,10.490 6.878,10.490 6.878,10.490 7.043,10.587 7.210,10.688 7.391,10.796 7.406,10.251 7.406,10.251 7.406,10.251 7.227,10.179 7.054,10.110 6.887,10.046 Z M 17.736,10.349 C 17.596,10.407 17.454,10.467 17.310,10.529 17.352,11.181 17.352,11.181 17.352,11.181 17.496,11.094 17.628,11.016 17.767,10.932 17.753,10.932 17.753,10.932 17.753,10.932 Z M 7.651,10.350 C 7.636,10.932 7.636,10.932 7.636,10.932 7.619,10.932 7.619,10.932 7.619,10.932 7.759,11.016 7.890,11.094 8.035,11.182 8.077,10.529 8.077,10.529 8.077,10.529 7.933,10.467 7.791,10.407 7.651,10.350 Z M 8.318,10.635 C 8.273,11.325 8.273,11.325 8.273,11.325 8.268,11.325 8.268,11.325 8.268,11.325 8.415,11.415 8.560,11.504 8.705,11.595 8.743,10.827 8.743,10.827 8.743,10.827 8.601,10.761 8.460,10.697 8.318,10.635 Z M 17.070,10.635 C 16.929,10.697 16.787,10.761 16.645,10.827 16.683,11.594 16.683,11.594 16.683,11.594 16.827,11.504 16.971,11.415 17.117,11.325 17.115,11.325 17.115,11.325 17.115,11.325 Z M 8.984,10.939 C 8.945,11.744 8.945,11.744 8.945,11.744 9.085,11.832 9.221,11.920 9.356,12.006 9.412,11.150 9.412,11.150 9.412,11.150 9.271,11.078 9.128,11.008 8.984,10.939 Z M 16.402,10.940 C 16.259,11.009 16.116,11.079 15.975,11.151 16.031,12.006 16.031,12.006 16.031,12.006 16.165,11.920 16.301,11.832 16.442,11.744 Z M 20.224,11.008 C 20.062,11.095 19.937,11.160 19.735,11.267 18.961,11.678 17.934,12.223 16.908,12.766 16.637,12.910 16.632,12.912 16.366,13.052 16.282,13.290 16.040,13.986 15.755,14.994 15.845,15.071 15.933,15.153 16.018,15.237 16.898,16.117 17.392,17.311 17.392,18.555 17.392,19.043 17.316,19.518 17.174,19.968 17.372,19.952 17.535,19.938 17.646,19.929 17.470,17.394 17.912,15.616 18.419,14.460 18.798,13.595 19.220,13.074 19.429,12.847 19.273,12.424 19.273,12.424 19.273,12.424 20.184,11.847 20.184,11.847 20.184,11.847 Z M 5.176,11.014 C 5.216,11.847 5.216,11.847 5.216,11.847 6.127,12.424 6.127,12.424 6.127,12.424 5.966,12.861 5.966,12.861 5.966,12.861 6.177,13.091 6.593,13.609 6.969,14.465 7.477,15.620 7.921,17.396 7.749,19.928 7.860,19.938 8.025,19.952 8.225,19.968 7.900,18.936 7.934,17.801 8.365,16.760 8.652,16.068 9.092,15.471 9.636,15.002 9.350,13.990 9.108,13.290 9.023,13.052 8.757,12.912 8.753,12.910 8.482,12.766 7.456,12.223 6.429,11.678 5.654,11.267 5.458,11.163 5.336,11.099 5.176,11.014 Z M 9.650,11.273 C 9.593,12.159 9.593,12.159 9.593,12.159 9.709,12.235 9.824,12.310 9.932,12.382 9.975,12.411 10.010,12.436 10.051,12.464 10.116,11.529 10.116,11.529 10.116,11.529 9.965,11.442 9.809,11.357 9.650,11.273 Z M 15.735,11.274 C 15.577,11.357 15.422,11.443 15.270,11.530 15.336,12.464 15.336,12.464 15.336,12.464 15.377,12.436 15.412,12.411 15.455,12.382 15.562,12.310 15.677,12.235 15.793,12.159 Z M 10.353,11.668 C 10.287,12.626 10.287,12.626 10.287,12.626 10.467,12.753 10.618,12.868 10.743,12.972 10.783,11.940 10.783,11.940 10.783,11.940 10.782,11.939 10.782,11.939 10.782,11.939 10.645,11.847 10.502,11.757 10.353,11.668 Z M 15.033,11.669 C 14.885,11.758 14.742,11.848 14.606,11.939 14.605,11.940 14.605,11.940 14.605,11.940 14.645,12.970 14.645,12.970 14.645,12.970 14.770,12.866 14.921,12.752 15.100,12.626 Z M 11.039,11.981 C 10.992,13.201 10.992,13.201 10.992,13.201 10.988,13.201 10.988,13.201 10.988,13.201 10.991,13.204 10.994,13.207 10.997,13.210 11.368,13.150 11.368,13.150 11.368,13.150 11.494,12.146 11.494,12.146 11.494,12.146 11.470,12.090 11.448,12.038 11.423,11.981 Z M 13.967,11.981 C 13.942,12.039 13.919,12.092 13.895,12.149 14.020,13.150 14.020,13.150 14.020,13.150 14.390,13.210 14.390,13.210 14.390,13.210 14.393,13.207 14.395,13.204 14.398,13.201 14.394,13.201 14.394,13.201 14.394,13.201 14.347,11.981 14.347,11.981 14.347,11.981 Z M 11.706,12.638 C 11.612,13.385 11.612,13.385 11.612,13.385 10.920,13.498 10.920,13.498 10.920,13.498 11.214,13.654 11.472,13.790 11.782,13.954 11.925,13.926 12.070,13.904 12.217,13.889 12.092,13.569 11.922,13.148 11.706,12.638 Z M 13.683,12.641 C 13.468,13.149 13.299,13.568 13.174,13.887 13.321,13.902 13.467,13.924 13.611,13.953 13.920,13.789 14.176,13.653 14.468,13.498 13.775,13.385 13.775,13.385 13.775,13.385 Z M 9.659,13.389 C 9.765,13.711 9.904,14.151 10.056,14.680 10.377,14.461 10.726,14.282 11.093,14.148 10.535,13.853 10.317,13.737 9.659,13.389 Z M 15.731,13.389 C 15.075,13.736 14.859,13.850 14.302,14.145 14.666,14.277 15.013,14.455 15.336,14.673 15.487,14.148 15.625,13.710 15.731,13.389 Z M 12.700,14.608 C 11.104,14.608 9.664,15.570 9.054,17.044 8.443,18.519 8.780,20.217 9.909,21.346 11.038,22.475 12.736,22.812 14.211,22.201 15.685,21.591 16.647,20.151 16.647,18.555 16.647,17.508 16.231,16.504 15.491,15.764 14.751,15.024 13.747,14.608 12.700,14.608 Z M 18.869,14.661 C 18.401,15.732 17.976,17.396 18.131,19.808 19.542,18.027 19.271,16.069 19.104,15.352 19.080,15.256 19.003,14.969 18.869,14.661 Z M 6.521,14.671 C 6.443,14.852 6.382,15.034 6.341,15.172 6.339,15.179 6.339,15.180 6.337,15.188 6.192,15.712 5.731,17.862 7.263,19.801 7.413,17.399 6.989,15.739 6.521,14.671 Z M 11.234,16.959 C 11.253,16.959 11.271,16.959 11.289,16.959 11.729,16.966 12.144,17.163 12.442,17.491 12.862,17.956 13.162,18.659 13.520,19.086 13.698,19.300 13.870,19.425 14.025,19.460 14.180,19.495 14.362,19.475 14.667,19.251 15.005,19.004 15.070,18.636 14.961,18.298 14.851,17.959 14.578,17.693 14.156,17.683 13.912,17.677 13.701,17.785 13.417,17.995 12.992,17.420 12.992,17.420 12.992,17.420 13.320,17.178 13.701,16.956 14.173,16.967 14.904,16.985 15.451,17.486 15.642,18.077 15.833,18.669 15.679,19.396 15.090,19.828 14.675,20.132 14.245,20.244 13.866,20.157 13.486,20.071 13.202,19.821 12.971,19.545 12.510,18.994 12.179,18.265 11.912,17.971 11.670,17.704 11.385,17.609 11.038,17.706 10.672,17.809 10.399,18.193 10.399,18.542 10.399,18.933 10.600,19.139 10.923,19.256 11.246,19.372 11.683,19.338 12.009,19.132 12.391,19.736 12.391,19.736 12.391,19.736 11.865,20.069 11.222,20.125 10.679,19.929 10.137,19.733 9.684,19.223 9.684,18.542 9.684,17.853 10.150,17.212 10.845,17.017 10.975,16.980 11.106,16.962 11.234,16.959 Z " />
</svg>