<?xml version="1.0" encoding="UTF-8" standalone="no"?>
<!DOCTYPE svg PUBLIC "-//W3C//DTD SVG 20010904//EN" "http://www.w3.org/TR/2001/REC-SVG-20010904/DTD/svg10.dtd"[]>
<svg version="1.1" id="Frosty Editor v1.0.6.3" xmlns="http://www.w3.org/2000/svg" d1p1:xlink="http://www.w3.org/1999/xlink" viewBox="0 0 96 96" xmlns:d1p1="xmlns">
  <path stroke="none" fill="#ffffffff" d="M 61.420,31.660 C 63.287,33.527 65.153,35.393 67.020,37.260 67.142,37.380 67.318,37.425 67.483,37.380 67.648,37.335 67.776,37.205 67.820,37.040 68.387,34.767 68.953,32.493 69.520,30.220 69.539,30.137 69.581,30.061 69.640,30.000 72.197,27.443 74.753,24.887 77.310,22.330 76.977,21.997 76.643,21.663 76.310,21.330 73.767,23.887 71.223,26.443 68.680,29.000 68.619,29.059 68.543,29.101 68.460,29.120 66.187,29.687 63.913,30.253 61.640,30.820 61.457,30.854 61.311,30.991 61.264,31.170 61.217,31.350 61.277,31.541 61.420,31.660 61.420,31.660 61.420,31.660 61.420,31.660 Z " />
  <path stroke="none" fill="#ffffffff" d="M 59.216,34.611 C 59.640,34.187 60.064,33.763 60.488,33.338 60.672,33.155 60.969,33.155 61.153,33.338 62.548,34.734 63.944,36.129 65.339,37.524 65.523,37.708 65.523,38.006 65.339,38.189 64.915,38.613 64.491,39.038 64.066,39.462 63.883,39.645 63.585,39.645 63.402,39.462 62.006,38.066 60.611,36.671 59.216,35.276 59.032,35.092 59.032,34.795 59.216,34.611 59.216,34.611 59.216,34.611 59.216,34.611 Z " />
  <path stroke="none" fill="#ffffffff" d="M 62.650,41.060 C 62.727,40.883 62.687,40.676 62.550,40.540 61.083,39.073 59.617,37.607 58.150,36.140 58.014,36.003 57.807,35.963 57.630,36.040 52.397,38.117 47.163,40.193 41.930,42.270 41.782,42.331 41.675,42.461 41.642,42.617 41.610,42.774 41.658,42.936 41.770,43.050 46.397,47.670 51.023,52.290 55.650,56.910 55.764,57.022 55.926,57.070 56.083,57.038 56.239,57.005 56.369,56.898 56.430,56.750 58.503,51.520 60.577,46.290 62.650,41.060 Z " />
  <path stroke="none" fill="#ffffffff" d="M 53.230,56.310 C 49.487,52.670 45.743,49.030 42.000,45.390 41.819,45.278 41.596,45.259 41.399,45.338 41.202,45.417 41.054,45.585 41.000,45.790 41.000,48.640 41.000,51.490 41.000,54.340 40.750,54.673 40.500,55.007 40.250,55.340 34.250,61.370 28.250,67.400 22.250,73.430 22.082,73.630 22.104,73.928 22.300,74.100 23.053,74.847 23.807,75.593 24.560,76.340 24.751,76.529 25.059,76.529 25.250,76.340 31.283,70.267 37.317,64.193 43.350,58.120 43.683,57.757 44.017,57.393 44.350,57.030 47.200,57.030 50.050,57.030 52.900,57.030 53.320,57.000 53.530,56.610 53.230,56.310 53.230,56.310 53.230,56.310 53.230,56.310 Z " />
</svg>