<?xml version="1.0" encoding="UTF-8" standalone="no"?>
<!DOCTYPE svg PUBLIC "-//W3C//DTD SVG 20010904//EN" "http://www.w3.org/TR/2001/REC-SVG-20010904/DTD/svg10.dtd"[]>
<svg version="1.1" id="Frosty Editor v1.0.6.3" xmlns="http://www.w3.org/2000/svg" d1p1:xlink="http://www.w3.org/1999/xlink" viewBox="0 0 25 25" xmlns:d1p1="xmlns">
  <path stroke="none" fill="#ffffffff" d="M 12.893,3.433 C 12.769,3.433 12.699,3.438 12.699,3.438 12.699,3.438 12.650,3.435 12.559,3.433 12.079,3.427 10.452,3.486 8.989,4.466 9.180,4.702 9.384,4.991 9.600,5.322 10.078,6.057 10.605,6.986 11.099,7.900 11.956,9.492 12.512,10.657 12.693,11.033 12.875,10.657 13.431,9.492 14.289,7.900 14.782,6.986 15.309,6.057 15.787,5.322 16.004,4.989 16.211,4.698 16.403,4.461 14.991,3.519 13.429,3.432 12.893,3.433 Z M 16.828,4.775 C 16.651,4.992 16.448,5.278 16.231,5.611 15.767,6.324 15.243,7.244 14.754,8.152 13.776,9.967 12.932,11.730 12.932,11.730 12.693,12.230 12.693,12.230 12.693,12.230 12.456,11.730 12.456,11.730 12.456,11.730 12.456,11.730 11.612,9.967 10.633,8.152 10.144,7.244 9.620,6.324 9.157,5.611 8.942,5.281 8.741,4.998 8.564,4.782 8.303,4.997 8.052,5.246 7.819,5.534 10.709,9.842 12.390,14.318 12.693,15.140 12.996,14.318 14.682,9.837 17.575,5.527 17.341,5.239 17.090,4.990 16.828,4.775 Z M 17.931,5.947 C 17.161,7.111 16.465,8.313 15.854,9.463 16.249,9.402 16.797,9.320 17.501,9.226 18.652,9.073 19.942,8.924 20.626,8.951 20.834,8.959 20.834,8.959 20.834,8.959 20.876,9.162 20.876,9.162 20.876,9.162 20.886,9.214 20.882,9.207 20.885,9.238 20.888,9.268 20.892,9.308 20.897,9.355 20.898,9.368 20.901,9.388 20.902,9.403 20.991,7.542 20.991,7.542 20.991,7.542 20.335,6.963 18.513,6.187 17.931,5.947 Z M 7.460,5.951 C 6.870,6.195 5.062,6.966 4.409,7.542 4.494,9.311 4.494,9.311 4.494,9.311 4.497,9.285 4.500,9.257 4.502,9.238 4.505,9.207 4.501,9.214 4.512,9.162 4.553,8.959 4.553,8.959 4.553,8.959 4.760,8.951 4.760,8.951 4.760,8.951 5.444,8.924 6.734,9.073 7.885,9.226 8.592,9.321 9.142,9.403 9.536,9.464 8.925,8.314 8.230,7.113 7.460,5.951 Z M 5.006,9.498 C 4.998,9.574 4.989,9.653 4.981,9.740 4.967,9.872 4.964,9.912 4.955,10.001 5.280,10.103 8.616,11.174 10.848,12.646 11.094,12.646 11.094,12.646 11.094,12.646 10.738,11.858 10.321,10.979 9.840,10.046 9.696,10.023 8.865,9.891 7.817,9.751 6.758,9.610 5.634,9.499 5.006,9.498 Z M 20.382,9.498 C 19.754,9.498 18.630,9.610 17.571,9.751 16.527,9.891 15.700,10.021 15.549,10.045 15.069,10.978 14.652,11.858 14.296,12.646 14.537,12.646 14.537,12.646 14.537,12.646 16.770,11.174 20.106,10.103 20.430,10.001 20.421,9.912 20.418,9.872 20.404,9.740 20.396,9.653 20.390,9.574 20.382,9.498 Z M 20.853,10.416 C 20.793,10.435 20.793,10.435 20.793,10.435 20.793,10.435 20.793,10.435 20.793,10.435 20.657,10.908 20.657,10.908 20.657,10.908 20.604,10.937 20.604,10.937 20.604,10.937 20.604,10.937 19.261,11.705 17.842,12.568 17.132,13.000 16.403,13.454 15.817,13.847 15.231,14.240 14.775,14.593 14.660,14.738 14.618,14.791 14.618,14.791 14.618,14.791 15.424,14.365 15.790,14.171 16.965,13.549 18.065,12.966 19.168,12.381 19.998,11.941 20.329,11.766 20.573,11.637 20.800,11.517 Z M 4.547,10.421 C 4.600,11.524 4.600,11.524 4.600,11.524 4.826,11.643 5.064,11.769 5.389,11.941 6.220,12.381 7.323,12.966 8.424,13.549 9.598,14.170 9.962,14.364 10.768,14.790 10.725,14.738 10.725,14.738 10.725,14.738 10.610,14.593 10.155,14.240 9.568,13.847 8.982,13.454 8.255,13.000 7.545,12.568 6.126,11.705 4.782,10.937 4.782,10.937 4.730,10.908 4.730,10.908 4.730,10.908 4.594,10.436 4.594,10.436 4.594,10.436 4.594,10.436 4.592,10.435 4.592,10.435 Z M 4.928,10.546 C 4.976,10.713 4.976,10.713 4.976,10.713 4.990,10.720 5.276,10.886 5.464,10.995 5.472,10.733 5.472,10.733 5.472,10.733 5.242,10.652 5.074,10.595 4.928,10.546 Z M 20.457,10.546 C 20.311,10.595 20.143,10.652 19.914,10.733 19.921,10.995 19.921,10.995 19.921,10.995 20.109,10.886 20.395,10.720 20.409,10.713 Z M 5.733,10.827 C 5.724,11.146 5.724,11.146 5.724,11.146 5.877,11.235 6.003,11.309 6.193,11.421 6.202,11.000 6.202,11.000 6.202,11.000 6.036,10.938 5.880,10.880 5.733,10.827 Z M 19.653,10.827 C 19.506,10.880 19.349,10.937 19.183,11.000 19.192,11.421 19.192,11.421 19.192,11.421 19.382,11.309 19.508,11.235 19.661,11.146 Z M 18.922,11.100 C 18.742,11.168 18.556,11.242 18.363,11.320 18.380,11.904 18.380,11.904 18.380,11.904 18.574,11.787 18.755,11.680 18.932,11.574 Z M 6.465,11.100 C 6.455,11.576 6.455,11.576 6.455,11.576 6.632,11.680 6.812,11.788 7.006,11.904 7.022,11.319 7.022,11.319 7.022,11.319 6.830,11.242 6.644,11.169 6.465,11.100 Z M 18.102,11.425 C 17.952,11.487 17.799,11.551 17.644,11.618 17.690,12.318 17.690,12.318 17.690,12.318 17.845,12.224 17.986,12.140 18.135,12.050 18.120,12.050 18.120,12.050 18.120,12.050 Z M 7.285,11.426 C 7.268,12.050 7.268,12.050 7.268,12.050 7.250,12.050 7.250,12.050 7.250,12.050 7.400,12.140 7.541,12.224 7.696,12.318 7.696,12.319 7.696,12.319 7.696,12.319 7.741,11.617 7.741,11.617 7.741,11.617 7.587,11.551 7.435,11.487 7.285,11.426 Z M 8.000,11.731 C 7.951,12.472 7.951,12.472 7.951,12.472 7.946,12.472 7.946,12.472 7.946,12.472 8.104,12.568 8.259,12.664 8.415,12.761 8.456,11.938 8.456,11.938 8.456,11.938 8.303,11.867 8.152,11.798 8.000,11.731 Z M 17.388,11.731 C 17.236,11.798 17.084,11.867 16.931,11.937 16.972,12.760 16.972,12.760 16.972,12.760 17.127,12.664 17.282,12.568 17.438,12.472 17.436,12.472 17.436,12.472 17.436,12.472 Z M 8.714,12.058 C 8.672,12.921 8.672,12.921 8.672,12.921 8.823,13.016 8.968,13.109 9.113,13.202 9.173,12.283 9.173,12.283 9.173,12.283 9.022,12.207 8.868,12.132 8.714,12.058 Z M 16.671,12.059 C 16.517,12.132 16.364,12.208 16.212,12.285 16.273,13.202 16.273,13.202 16.273,13.202 16.417,13.109 16.563,13.016 16.714,12.921 Z M 20.770,12.132 C 20.596,12.224 20.462,12.295 20.246,12.410 19.416,12.850 18.314,13.434 17.213,14.017 16.923,14.171 16.918,14.173 16.633,14.324 16.425,14.906 15.338,18.066 14.821,21.913 16.279,21.845 17.537,21.741 18.006,21.700 17.816,18.981 18.291,17.074 18.835,15.834 19.241,14.906 19.693,14.348 19.917,14.104 19.750,13.650 19.750,13.650 19.750,13.650 20.727,13.032 20.727,13.032 20.727,13.032 Z M 4.630,12.138 C 4.673,13.032 4.673,13.032 4.673,13.032 5.650,13.650 5.650,13.650 5.650,13.650 5.477,14.119 5.477,14.119 5.477,14.119 5.703,14.366 6.150,14.921 6.553,15.839 7.097,17.078 7.574,18.984 7.389,21.699 7.852,21.740 9.108,21.844 10.566,21.913 10.050,18.065 8.964,14.906 8.756,14.324 8.471,14.173 8.466,14.171 8.176,14.017 7.075,13.434 5.974,12.850 5.143,12.410 4.932,12.298 4.802,12.229 4.630,12.138 Z M 9.429,12.416 C 9.367,13.366 9.367,13.366 9.367,13.366 9.492,13.447 9.616,13.528 9.731,13.605 9.777,13.636 9.815,13.663 9.858,13.693 9.929,12.690 9.929,12.690 9.929,12.690 9.766,12.597 9.599,12.505 9.429,12.416 Z M 15.956,12.417 C 15.786,12.506 15.619,12.598 15.457,12.691 15.527,13.693 15.527,13.693 15.527,13.693 15.571,13.663 15.609,13.636 15.655,13.605 15.770,13.528 15.893,13.447 16.018,13.366 Z M 10.183,12.839 C 10.112,13.866 10.112,13.866 10.112,13.866 10.305,14.003 10.467,14.126 10.601,14.238 10.644,13.131 10.644,13.131 10.644,13.131 10.643,13.130 10.643,13.130 10.643,13.130 10.496,13.032 10.342,12.935 10.183,12.839 Z M 15.203,12.840 C 15.044,12.936 14.891,13.032 14.745,13.130 14.743,13.131 14.743,13.131 14.743,13.131 14.786,14.236 14.786,14.236 14.786,14.236 14.920,14.125 15.082,14.003 15.274,13.867 Z M 10.919,13.175 C 10.868,14.484 10.868,14.484 10.868,14.484 10.864,14.484 10.864,14.484 10.864,14.484 10.867,14.487 10.870,14.490 10.873,14.494 11.272,14.429 11.272,14.429 11.272,14.429 11.407,13.352 11.407,13.352 11.407,13.352 11.381,13.292 11.357,13.236 11.331,13.175 Z M 14.059,13.175 C 14.032,13.238 14.008,13.294 13.982,13.355 14.115,14.429 14.115,14.429 14.115,14.429 14.512,14.494 14.512,14.494 14.512,14.494 14.515,14.490 14.519,14.487 14.522,14.484 14.517,14.484 14.517,14.484 14.517,14.484 14.467,13.175 14.467,13.175 14.467,13.175 Z M 11.634,13.879 C 11.533,14.681 11.533,14.681 11.533,14.681 10.791,14.802 10.791,14.802 10.791,14.802 11.318,15.081 12.182,15.539 12.336,15.621 12.209,15.284 11.970,14.674 11.634,13.879 Z M 13.754,13.883 C 13.419,14.675 13.181,15.283 13.055,15.619 13.208,15.538 14.071,15.081 14.597,14.803 13.853,14.681 13.853,14.681 13.853,14.681 Z M 9.438,14.685 C 9.844,15.915 10.679,18.699 11.105,21.936 11.656,21.957 12.202,21.970 12.699,21.967 13.193,21.970 13.736,21.957 14.283,21.937 14.708,18.699 15.545,15.915 15.951,14.685 14.514,15.446 12.818,16.343 12.818,16.343 12.693,16.410 12.693,16.410 12.693,16.410 12.570,16.343 12.570,16.343 12.570,16.343 12.570,16.343 10.875,15.446 9.438,14.685 Z M 19.317,16.050 C 18.815,17.198 18.359,18.984 18.525,21.571 20.039,19.660 19.748,17.560 19.569,16.791 19.544,16.688 19.461,16.380 19.317,16.050 Z M 6.072,16.061 C 5.988,16.254 5.923,16.450 5.879,16.598 5.877,16.605 5.877,16.607 5.875,16.615 5.719,17.177 5.225,19.483 6.868,21.564 7.029,18.987 6.574,17.207 6.072,16.061 Z " />
</svg>