<?xml version="1.0" encoding="UTF-8" standalone="no"?>
<!DOCTYPE svg PUBLIC "-//W3C//DTD SVG 20010904//EN" "http://www.w3.org/TR/2001/REC-SVG-20010904/DTD/svg10.dtd"[]>
<svg version="1.1" id="Frosty Editor v1.0.6.3" xmlns="http://www.w3.org/2000/svg" d1p1:xlink="http://www.w3.org/1999/xlink" viewBox="0 0 384 96" xmlns:d1p1="xmlns">
  <path stroke="none" fill="#ffffffff" d="M 273.000,72.000 C 269.667,66.333 266.333,60.667 263.000,55.000 264.967,53.133 266.933,51.267 268.900,49.400 271.600,55.467 274.300,61.533 277.000,67.600 275.667,69.067 274.333,70.533 273.000,72.000 273.000,72.000 273.000,72.000 273.000,72.000 Z M 257.700,78.900 C 257.900,76.400 258.100,73.900 258.300,71.400 261.000,69.500 263.700,67.600 266.400,65.700 267.833,68.100 269.267,70.500 270.700,72.900 266.367,74.900 262.033,76.900 257.700,78.900 257.700,78.900 257.700,78.900 257.700,78.900 Z M 235.600,46.200 C 238.400,44.800 240.200,41.900 240.200,38.800 240.200,38.800 240.200,38.800 240.200,38.800 248.467,40.200 256.733,41.600 265.000,43.000 265.900,44.500 266.800,46.000 267.700,47.500 266.533,48.667 265.367,49.833 264.200,51.000 263.433,51.700 262.667,52.400 261.900,53.100 257.967,51.233 254.033,49.367 250.100,47.500 245.267,47.067 240.433,46.633 235.600,46.200 235.600,46.200 235.600,46.200 235.600,46.200 Z M 212.900,38.500 C 216.500,38.500 220.100,38.500 223.700,38.500 223.700,38.600 223.700,38.700 223.700,38.800 223.700,41.200 224.800,43.500 226.600,45.000 224.200,45.000 221.800,45.000 219.400,45.000 217.233,42.833 215.067,40.667 212.900,38.500 212.900,38.500 212.900,38.500 212.900,38.500 Z M 89.700,35.000 C 111.100,29.400 132.500,23.800 153.900,18.200 159.200,18.200 164.500,18.200 169.800,18.200 169.800,19.467 169.800,20.733 169.800,22.000 180.533,22.000 191.267,22.000 202.000,22.000 202.000,21.367 202.000,20.733 202.000,20.100 202.133,20.100 202.267,20.100 202.400,20.100 206.133,21.433 209.867,22.767 213.600,24.100 211.500,24.900 209.500,25.900 207.600,27.100 207.333,27.300 207.067,27.500 206.800,27.700 206.800,28.900 206.800,30.100 206.800,31.300 213.967,31.300 221.133,31.300 228.300,31.300 226.200,32.300 224.600,34.200 224.000,36.500 217.267,36.500 210.533,36.500 203.800,36.500 165.767,36.633 127.733,36.767 89.700,36.900 89.700,36.267 89.700,35.633 89.700,35.000 89.700,35.000 89.700,35.000 89.700,35.000 Z M 154.900,3.000 C 167.633,3.000 180.367,3.000 193.100,3.000 193.100,3.900 193.100,4.800 193.100,5.700 193.000,5.667 192.900,5.633 192.800,5.600 192.667,5.567 192.533,5.533 192.400,5.500 184.833,5.500 177.267,5.500 169.700,5.500 169.700,8.833 169.700,12.167 169.700,15.500 165.267,15.500 160.833,15.500 156.400,15.500 156.300,15.533 156.200,15.567 156.100,15.600 155.633,15.733 155.167,15.867 154.700,16.000 154.767,11.667 154.833,7.333 154.900,3.000 154.900,3.000 154.900,3.000 154.900,3.000 Z M 200.000,17.100 C 199.733,17.000 199.467,16.900 199.200,16.800 199.200,17.600 199.200,18.400 199.200,19.200 190.300,19.200 181.400,19.200 172.500,19.200 172.500,15.533 172.500,11.867 172.500,8.200 179.667,8.200 186.833,8.200 194.000,8.200 196.000,9.000 198.000,9.800 200.000,10.600 200.000,12.767 200.000,14.933 200.000,17.100 200.000,17.100 200.000,17.100 200.000,17.100 Z M 203.700,10.500 C 212.467,10.500 221.233,10.500 230.000,10.500 230.000,13.000 230.000,15.500 230.000,18.000 221.267,18.000 212.533,18.000 203.800,18.000 203.767,15.500 203.733,13.000 203.700,10.500 203.700,10.500 203.700,10.500 203.700,10.500 Z M 246.900,18.700 C 244.267,18.700 241.633,18.700 239.000,18.700 239.000,15.967 239.000,13.233 239.000,10.500 241.633,10.500 244.267,10.500 246.900,10.500 246.900,13.233 246.900,15.967 246.900,18.700 246.900,18.700 246.900,18.700 246.900,18.700 Z M 236.900,16.800 C 235.300,16.800 233.700,16.800 232.100,16.800 232.100,15.133 232.100,13.467 232.100,11.800 233.700,11.800 235.300,11.800 236.900,11.800 236.900,13.467 236.900,15.133 236.900,16.800 236.900,16.800 236.900,16.800 236.900,16.800 Z M 226.300,23.700 C 232.500,23.600 238.500,25.200 243.900,28.400 243.900,28.700 243.900,29.000 243.900,29.300 243.767,29.300 243.633,29.300 243.500,29.300 243.067,29.100 242.633,28.900 242.200,28.700 242.067,28.633 241.933,28.567 241.800,28.500 231.400,28.500 221.000,28.500 210.600,28.500 211.800,28.000 218.000,23.700 226.300,23.700 226.300,23.700 226.300,23.700 226.300,23.700 226.300,23.700 226.300,23.700 226.300,23.700 Z M 225.700,38.700 C 225.700,35.200 228.500,32.400 232.000,32.500 235.500,32.500 238.300,35.300 238.200,38.800 238.200,42.200 235.400,45.000 232.000,45.000 228.500,45.000 225.700,42.200 225.700,38.700 225.700,38.800 225.700,38.700 225.700,38.700 225.700,38.700 225.700,38.700 225.700,38.700 225.700,38.700 225.700,38.700 225.700,38.700 Z M 235.600,31.300 C 238.067,31.300 240.533,31.300 243.000,31.300 250.000,34.333 257.000,37.367 264.000,40.400 256.000,39.133 248.000,37.867 240.000,36.600 239.400,34.300 237.800,32.400 235.600,31.300 235.600,31.300 235.600,31.300 235.600,31.300 235.600,31.300 235.600,31.300 235.600,31.300 Z M 238.900,66.500 C 236.200,65.033 233.500,63.567 230.800,62.100 231.633,57.700 232.467,53.300 233.300,48.900 237.067,49.333 240.833,49.767 244.600,50.200 242.700,55.633 240.800,61.067 238.900,66.500 238.900,66.500 238.900,66.500 238.900,66.500 Z M 252.600,10.500 C 252.600,13.200 252.600,15.900 252.600,18.600 251.400,18.600 250.200,18.600 249.000,18.600 249.000,15.900 249.000,13.200 249.000,10.500 250.200,10.500 251.400,10.500 252.600,10.500 252.600,10.500 252.600,10.500 252.600,10.500 Z M 278.900,66.800 C 276.200,60.733 273.500,54.667 270.800,48.600 269.400,45.533 268.000,42.467 266.600,39.400 259.700,36.400 252.800,33.400 245.900,30.400 245.900,29.400 245.900,28.400 245.900,27.400 245.600,27.200 245.300,27.000 245.000,26.800 239.400,23.400 232.900,21.700 226.300,21.800 223.000,21.800 219.800,22.100 216.600,23.000 213.833,22.000 211.067,21.000 208.300,20.000 216.233,20.000 224.167,20.000 232.100,20.000 232.100,19.600 232.100,19.200 232.100,18.800 233.700,18.800 235.300,18.800 236.900,18.800 236.900,19.433 236.900,20.067 236.900,20.700 242.833,20.700 248.767,20.700 254.700,20.700 254.700,16.633 254.700,12.567 254.700,8.500 248.767,8.500 242.833,8.500 236.900,8.500 236.900,8.933 236.900,9.367 236.900,9.800 235.300,9.800 233.700,9.800 232.100,9.800 232.100,9.367 232.100,8.933 232.100,8.500 222.000,8.500 211.900,8.500 201.800,8.500 201.800,8.700 201.800,8.900 201.800,9.100 201.467,8.967 201.133,8.833 200.800,8.700 198.933,7.967 197.067,7.233 195.200,6.500 195.200,4.667 195.200,2.833 195.200,1.000 181.100,1.000 167.000,1.000 152.900,1.000 152.900,6.133 152.900,11.267 152.900,16.400 131.667,21.933 110.433,27.467 89.200,33.000 88.700,33.133 88.200,33.267 87.700,33.400 87.700,35.200 87.700,37.000 87.700,38.800 128.633,38.800 169.567,38.800 210.500,38.800 213.033,41.333 215.567,43.867 218.100,46.400 218.300,46.600 218.500,46.800 218.700,47.000 221.900,47.000 225.100,47.000 228.300,47.000 229.367,47.267 230.433,47.533 231.500,47.800 231.433,48.100 231.367,48.400 231.300,48.700 230.467,53.100 229.633,57.500 228.800,61.900 228.700,62.367 228.600,62.833 228.500,63.300 232.333,65.367 236.167,67.433 240.000,69.500 240.267,68.767 240.533,68.033 240.800,67.300 242.667,61.867 244.533,56.433 246.400,51.000 246.600,50.433 246.800,49.867 247.000,49.300 247.867,49.400 248.733,49.500 249.600,49.600 253.167,51.300 256.733,53.000 260.300,54.700 262.000,57.767 263.700,60.833 265.400,63.900 264.867,64.267 264.333,64.633 263.800,65.000 261.333,66.767 258.867,68.533 256.400,70.300 256.167,73.100 255.933,75.900 255.700,78.700 255.600,79.667 255.500,80.633 255.400,81.600 256.333,81.300 257.267,81.000 258.200,80.700 262.967,78.700 267.733,76.700 272.500,74.700 272.767,74.500 273.033,74.300 273.300,74.100 275.000,72.367 276.700,70.633 278.400,68.900 278.733,68.567 279.067,68.233 279.400,67.900 279.233,67.533 279.067,67.167 278.900,66.800 278.900,66.800 278.900,66.800 278.900,66.800 Z " />
  <path stroke="none" fill="#ffffffff" d="M 230.000,69.000 C 230.000,68.333 230.000,67.667 230.000,67.000 233.167,68.667 236.333,70.333 239.500,72.000 240.967,75.967 242.433,79.933 243.900,83.900 242.633,86.200 241.367,88.500 240.100,90.800 236.733,83.533 233.367,76.267 230.000,69.000 230.000,69.000 230.000,69.000 230.000,69.000 Z M 246.600,66.300 C 248.467,62.333 250.333,58.367 252.200,54.400 253.800,54.933 255.400,55.467 257.000,56.000 257.300,57.133 257.600,58.267 257.900,59.400 256.633,62.100 255.367,64.800 254.100,67.500 253.667,71.467 253.233,75.433 252.800,79.400 250.500,78.767 248.200,78.133 245.900,77.500 246.133,73.767 246.367,70.033 246.600,66.300 246.600,66.300 246.600,66.300 246.600,66.300 Z M 245.600,84.800 C 245.733,84.533 245.867,84.267 246.000,84.000 245.900,83.733 245.800,83.467 245.700,83.200 245.200,81.867 244.700,80.533 244.200,79.200 244.600,79.300 245.000,79.400 245.400,79.500 247.700,80.133 250.000,80.767 252.300,81.400 253.067,81.600 253.833,81.800 254.600,82.000 254.700,81.233 254.800,80.467 254.900,79.700 255.300,75.833 255.700,71.967 256.100,68.100 257.300,65.500 258.500,62.900 259.700,60.300 259.800,60.067 259.900,59.833 260.000,59.600 259.933,59.367 259.867,59.133 259.800,58.900 259.500,57.767 259.200,56.633 258.900,55.500 258.800,55.167 258.700,54.833 258.600,54.500 258.267,54.400 257.933,54.300 257.600,54.200 256.033,53.667 254.467,53.133 252.900,52.600 252.333,52.400 251.767,52.200 251.200,52.000 250.933,52.533 250.667,53.067 250.400,53.600 248.533,57.567 246.667,61.533 244.800,65.500 244.733,65.600 244.667,65.700 244.600,65.800 244.600,65.933 244.600,66.067 244.600,66.200 244.400,69.967 244.200,73.733 244.000,77.500 244.000,77.767 244.000,78.033 244.000,78.300 243.133,75.933 242.267,73.567 241.400,71.200 241.300,70.967 241.200,70.733 241.100,70.500 240.867,70.367 240.633,70.233 240.400,70.100 237.233,68.467 234.067,66.833 230.900,65.200 229.933,64.700 228.967,64.200 228.000,63.700 228.000,65.600 228.000,67.500 228.000,69.400 228.067,69.533 228.133,69.667 228.200,69.800 231.567,77.067 234.933,84.333 238.300,91.600 238.867,92.800 239.433,94.000 240.000,95.200 240.633,94.033 241.267,92.867 241.900,91.700 243.133,89.400 244.367,87.100 245.600,84.800 245.600,84.800 245.600,84.800 245.600,84.800 Z " />
  <path stroke="none" fill="#ffffffff" d="M 265.000,88.800 C 264.367,89.433 263.733,90.067 263.100,90.700 257.033,91.533 250.967,92.367 244.900,93.200 246.367,90.467 247.833,87.733 249.300,85.000 252.433,85.000 255.567,85.000 258.700,85.000 260.800,85.633 262.900,86.267 265.000,86.900 265.000,87.533 265.000,88.167 265.000,88.800 265.000,88.800 265.000,88.800 265.000,88.800 Z M 259.300,83.100 C 259.200,83.067 259.100,83.033 259.000,83.000 255.367,83.000 251.733,83.000 248.100,83.000 247.900,83.367 247.700,83.733 247.500,84.100 246.033,86.833 244.567,89.567 243.100,92.300 242.467,93.467 241.833,94.633 241.200,95.800 242.500,95.633 243.800,95.467 245.100,95.300 251.167,94.467 257.233,93.633 263.300,92.800 263.533,92.767 263.767,92.733 264.000,92.700 264.167,92.533 264.333,92.367 264.500,92.200 265.133,91.567 265.767,90.933 266.400,90.300 266.600,90.100 266.800,89.900 267.000,89.700 267.000,88.300 267.000,86.900 267.000,85.500 266.533,85.367 266.067,85.233 265.600,85.100 263.500,84.433 261.400,83.767 259.300,83.100 259.300,83.100 259.300,83.100 259.300,83.100 Z " />
</svg>