<?xml version="1.0" encoding="UTF-8" standalone="no"?>
<!DOCTYPE svg PUBLIC "-//W3C//DTD SVG 20010904//EN" "http://www.w3.org/TR/2001/REC-SVG-20010904/DTD/svg10.dtd"[]>
<svg version="1.1" id="Frosty Editor v1.0.6.3" xmlns="http://www.w3.org/2000/svg" d1p1:xlink="http://www.w3.org/1999/xlink" viewBox="0 0 96 96" xmlns:d1p1="xmlns">
  <path stroke="none" fill="none" d="M 48.000,96.000 C 32.100,96.000 16.100,96.000 0.200,96.000 0.000,96.000 0.000,96.000 0.000,95.800 0.000,64.000 0.000,32.100 0.000,0.300 0.000,0.100 0.100,0.000 0.300,0.000 32.100,0.000 64.000,0.000 95.800,0.000 96.000,0.000 96.000,0.000 96.000,0.200 96.000,32.100 96.000,63.900 96.000,95.800 96.000,96.000 96.000,96.000 95.800,96.000 79.900,96.000 64.000,96.000 48.000,96.000 Z M 48.200,8.100 C 45.000,8.100 41.800,8.400 38.600,9.200 33.900,10.300 29.500,12.100 25.400,14.700 22.700,16.400 20.200,18.500 18.000,20.800 16.400,22.500 14.800,24.300 13.500,26.300 12.100,28.500 10.900,30.900 9.900,33.400 7.700,38.900 6.700,44.500 6.800,50.400 6.900,53.900 7.400,57.300 8.400,60.600 10.000,66.400 12.800,71.600 16.800,76.100 17.600,77.000 18.500,77.700 19.300,78.500 19.400,78.600 19.400,78.500 19.500,78.400 20.900,76.400 22.200,74.500 23.600,72.500 23.700,72.400 23.700,72.300 23.600,72.200 23.200,71.800 22.800,71.300 22.400,70.900 21.700,70.000 20.900,69.100 20.200,68.200 19.000,66.600 18.000,65.000 17.100,63.200 14.600,58.400 13.100,53.400 12.900,47.900 12.800,45.200 12.900,42.600 13.400,40.000 14.100,35.800 15.400,31.900 17.400,28.200 20.200,23.000 24.100,18.700 29.000,15.300 34.300,11.600 40.200,9.600 46.600,9.000 48.900,8.800 51.200,8.800 53.500,9.000 56.000,9.200 58.500,9.700 60.900,10.500 62.400,11.000 63.800,11.500 65.300,12.200 65.300,12.200 65.400,12.300 65.500,12.200 65.600,12.100 65.500,12.100 65.400,12.000 65.400,12.000 65.300,12.000 65.300,12.000 59.800,9.500 54.100,8.200 48.200,8.100 Z M 30.800,86.200 C 30.700,86.400 30.900,86.400 31.000,86.500 36.100,88.900 41.500,90.200 47.200,90.400 50.300,90.500 53.400,90.200 56.500,89.600 61.700,88.600 66.500,86.500 71.000,83.700 73.600,82.000 76.000,80.000 78.100,77.800 80.100,75.700 81.900,73.600 83.300,71.100 85.700,67.000 87.400,62.600 88.400,58.000 89.100,54.500 89.400,51.000 89.300,47.500 89.100,43.700 88.400,40.000 87.200,36.400 85.100,30.100 81.800,24.700 76.900,20.300 76.800,20.200 76.700,20.200 76.700,20.300 75.300,22.300 74.000,24.200 72.600,26.100 72.500,26.200 72.500,26.300 72.600,26.400 73.000,26.800 73.400,27.200 73.700,27.700 74.400,28.600 75.200,29.400 75.800,30.300 78.500,34.000 80.500,38.000 81.800,42.400 83.200,47.100 83.500,51.900 83.000,56.800 82.500,61.100 81.300,65.100 79.500,69.000 76.900,74.400 73.100,78.900 68.300,82.500 63.100,86.300 57.400,88.700 51.000,89.500 48.200,89.900 45.300,89.900 42.500,89.600 39.300,89.300 36.200,88.600 33.200,87.400 32.400,86.900 31.600,86.600 30.800,86.200 Z M 18.700,87.500 C 18.700,87.600 18.700,87.700 18.700,87.700 18.900,89.000 19.500,90.100 20.600,90.900 21.800,91.700 23.100,91.800 24.400,91.200 24.500,91.100 24.700,91.100 24.800,90.900 25.100,90.300 25.600,89.800 26.000,89.200 26.100,89.100 26.200,89.000 26.300,89.100 26.400,89.200 26.600,89.300 26.700,89.400 26.800,89.500 26.900,89.500 27.000,89.400 27.200,89.000 27.500,88.700 27.800,88.300 27.900,88.200 27.900,88.100 27.800,88.000 27.600,87.900 27.600,87.800 27.700,87.600 28.300,86.800 28.800,85.900 29.400,85.100 30.300,83.800 31.200,82.600 32.000,81.300 32.100,81.200 32.100,81.000 32.000,80.900 31.800,80.800 31.800,80.700 31.900,80.500 32.500,79.700 33.000,78.800 33.600,78.000 36.900,73.300 40.100,68.600 43.400,63.900 44.300,62.700 45.100,61.400 46.000,60.200 46.100,60.100 46.100,60.000 46.300,60.000 46.600,60.100 46.700,60.000 46.900,59.800 47.000,59.700 47.100,59.500 47.300,59.500 47.700,59.300 48.000,59.000 48.300,58.700 48.600,58.400 49.000,58.200 49.300,57.900 50.000,57.300 50.700,56.800 51.300,56.200 51.600,55.900 52.000,55.700 52.300,55.400 52.700,55.000 53.200,54.700 53.500,54.200 53.600,54.100 53.600,54.000 53.700,54.000 53.900,53.900 54.000,53.800 54.100,53.700 54.400,53.400 54.800,53.200 55.000,52.800 55.000,52.800 55.100,52.800 55.100,52.800 55.300,52.700 55.400,52.600 55.500,52.500 55.800,52.200 56.200,52.000 56.500,51.600 56.500,51.600 56.600,51.600 56.600,51.600 56.800,51.500 56.900,51.400 57.000,51.300 57.100,51.200 57.100,51.100 57.200,51.100 57.600,51.000 57.800,50.500 58.200,50.300 58.400,50.200 58.500,50.100 58.600,50.300 58.700,50.400 58.700,50.400 58.800,50.300 59.100,50.000 59.200,49.600 59.200,49.200 59.200,48.800 59.200,48.400 59.300,47.900 59.300,47.800 59.300,47.700 59.300,47.600 59.100,46.900 59.100,46.200 58.900,45.600 58.900,45.500 58.900,45.400 58.800,45.400 58.600,45.200 58.600,44.800 58.300,44.600 58.200,44.500 58.300,44.400 58.300,44.300 58.500,43.900 58.600,43.600 58.800,43.200 59.000,42.800 59.200,42.500 59.500,42.100 60.600,40.500 61.700,38.900 62.800,37.300 63.400,36.400 64.000,35.500 64.600,34.600 65.100,33.900 65.400,33.200 65.800,32.500 66.700,31.100 67.700,29.700 68.500,28.200 68.800,27.500 69.300,26.900 69.700,26.300 70.000,25.800 70.200,25.200 70.600,24.700 71.000,24.100 71.400,23.500 71.800,22.800 72.100,22.200 72.500,21.500 72.900,21.000 73.900,19.600 74.600,18.100 75.500,16.700 76.100,15.800 76.500,14.800 77.100,14.000 77.400,13.600 77.700,13.200 77.900,12.700 78.000,12.300 78.200,12.000 78.500,11.600 78.800,11.200 79.000,10.800 79.300,10.500 79.500,10.200 79.600,10.000 79.700,9.700 79.700,9.500 79.800,9.400 79.900,9.200 79.900,9.000 79.900,9.000 79.700,8.800 79.100,8.400 78.400,7.900 77.800,7.500 77.300,7.200 76.800,6.800 76.400,6.500 76.300,6.400 76.200,6.300 76.100,6.500 75.900,6.800 75.600,7.000 75.400,7.200 75.200,7.400 75.000,7.700 74.800,8.000 74.400,8.500 74.100,9.100 73.600,9.600 73.500,9.700 73.300,9.800 73.200,9.900 72.400,10.900 71.600,11.900 70.800,12.900 70.000,13.800 69.300,14.800 68.600,15.700 67.700,16.800 67.000,17.900 66.100,19.000 65.100,20.300 64.000,21.600 63.000,22.900 62.500,23.500 62.100,24.100 61.600,24.700 61.100,25.200 60.800,25.800 60.400,26.400 59.700,27.400 58.900,28.400 58.100,29.400 56.900,30.900 55.900,32.500 54.800,34.100 53.800,35.500 52.800,36.900 51.800,38.300 51.800,38.300 51.800,38.400 51.700,38.400 51.400,38.600 51.200,38.800 51.000,39.100 50.900,39.300 50.700,39.400 50.400,39.300 50.300,39.200 50.100,39.200 50.000,39.300 49.900,39.300 49.800,39.300 49.800,39.300 49.700,39.200 49.600,39.300 49.500,39.300 48.900,39.300 48.400,39.500 47.900,39.600 47.700,39.600 47.400,39.600 47.300,39.700 47.000,39.900 46.700,40.000 46.400,40.100 45.900,40.300 45.500,40.500 45.200,41.000 45.100,41.100 45.100,41.200 45.200,41.200 45.300,41.200 45.400,41.300 45.400,41.400 45.300,41.600 45.400,41.900 45.200,42.100 44.900,42.500 45.000,43.000 44.700,43.400 44.700,43.400 44.700,43.400 44.700,43.500 44.600,44.000 44.400,44.400 44.200,44.800 44.000,45.200 44.000,45.700 43.700,46.100 43.700,46.100 43.700,46.100 43.700,46.200 43.600,46.700 43.500,47.100 43.200,47.500 42.900,48.000 42.700,48.600 42.500,49.200 42.400,49.500 42.200,49.800 42.100,50.200 42.000,50.600 41.800,51.100 41.600,51.500 41.400,51.900 41.300,52.300 41.200,52.700 41.000,53.200 40.900,53.700 40.700,54.200 40.600,54.500 40.500,54.800 40.400,55.100 40.400,55.100 40.400,55.100 40.400,55.200 40.400,55.400 40.300,55.600 40.200,55.800 40.100,56.000 40.100,56.100 40.300,56.200 40.500,56.300 40.500,56.400 40.300,56.600 39.700,57.400 39.200,58.300 38.600,59.100 35.300,63.900 31.900,68.800 28.600,73.600 27.800,74.700 27.100,75.800 26.300,77.000 26.200,77.100 26.100,77.300 26.000,77.100 25.800,76.900 25.700,77.000 25.600,77.200 24.200,79.300 22.700,81.400 21.300,83.500 21.200,83.700 21.100,83.700 20.900,83.600 20.800,83.500 20.700,83.500 20.600,83.700 20.400,84.000 20.300,84.200 20.100,84.500 19.800,85.000 19.800,85.000 20.300,85.300 20.500,85.500 20.600,85.500 20.400,85.800 20.000,86.400 19.500,87.100 19.100,87.700 18.700,87.300 18.600,87.400 18.700,87.500 Z " />
  <path stroke="none" fill="#fdfdfdff" d="M 48.200,8.100 C 54.200,8.200 59.800,9.500 65.200,12.000 65.200,12.000 65.300,12.000 65.300,12.000 65.400,12.000 65.500,12.100 65.400,12.200 65.400,12.300 65.300,12.200 65.200,12.200 63.800,11.600 62.300,11.000 60.800,10.500 58.400,9.800 55.900,9.300 53.400,9.000 51.100,8.800 48.800,8.800 46.500,9.000 40.100,9.600 34.200,11.700 28.900,15.300 24.000,18.700 20.100,22.900 17.300,28.200 15.300,31.900 14.000,35.900 13.300,40.000 12.900,42.600 12.700,45.300 12.800,47.900 13.000,53.300 14.500,58.400 17.000,63.200 17.900,64.900 18.900,66.600 20.100,68.200 20.800,69.100 21.600,70.000 22.300,70.900 22.700,71.400 23.000,71.800 23.500,72.200 23.600,72.300 23.600,72.300 23.500,72.500 22.100,74.500 20.800,76.400 19.400,78.400 19.400,78.500 19.300,78.600 19.200,78.500 18.400,77.700 17.500,76.900 16.700,76.100 12.700,71.600 9.900,66.400 8.300,60.600 7.400,57.300 6.800,53.900 6.700,50.400 6.600,44.500 7.600,38.900 9.800,33.400 10.800,30.900 12.000,28.600 13.400,26.300 14.700,24.300 16.200,22.500 17.900,20.800 20.100,18.500 22.600,16.400 25.300,14.700 29.400,12.200 33.800,10.300 38.500,9.200 41.700,8.400 44.900,8.100 48.200,8.100 Z " />
  <path stroke="none" fill="#fdfdfdff" d="M 30.800,86.200 C 31.600,86.600 32.500,86.900 33.300,87.200 36.300,88.300 39.400,89.000 42.600,89.400 45.400,89.700 48.300,89.700 51.100,89.300 57.500,88.500 63.200,86.200 68.400,82.300 73.200,78.700 77.000,74.300 79.600,68.800 81.500,64.900 82.600,60.800 83.100,56.600 83.600,51.700 83.300,46.900 81.900,42.200 80.600,37.800 78.600,33.800 75.900,30.100 75.200,29.200 74.500,28.400 73.800,27.500 73.400,27.000 73.100,26.600 72.700,26.200 72.600,26.100 72.600,26.000 72.700,25.900 74.100,24.000 75.400,22.000 76.800,20.100 76.900,20.000 76.900,20.000 77.000,20.100 82.000,24.500 85.200,30.000 87.300,36.200 88.500,39.800 89.200,43.500 89.400,47.300 89.500,50.800 89.200,54.400 88.500,57.800 87.500,62.400 85.800,66.800 83.400,70.900 82.000,73.400 80.100,75.500 78.200,77.600 76.100,79.800 73.700,81.800 71.100,83.500 66.600,86.300 61.800,88.400 56.600,89.400 53.500,90.000 50.400,90.300 47.300,90.200 41.600,90.000 36.200,88.700 31.100,86.300 30.900,86.400 30.700,86.400 30.800,86.200 Z " />
  <path stroke="none" fill="#ffffffff" d="M 18.700,87.500 C 18.700,87.400 18.700,87.300 18.800,87.200 19.200,86.600 19.700,85.900 20.100,85.300 20.300,85.100 20.200,85.000 20.000,84.800 19.500,84.500 19.500,84.500 19.800,84.000 20.000,83.800 20.100,83.500 20.300,83.200 20.400,83.100 20.500,83.000 20.600,83.100 20.800,83.200 20.900,83.200 21.000,83.000 22.400,80.900 23.900,78.800 25.300,76.700 25.400,76.500 25.500,76.400 25.700,76.600 25.900,76.700 26.000,76.600 26.000,76.500 26.800,75.400 27.500,74.300 28.300,73.100 31.600,68.300 35.000,63.400 38.300,58.600 38.900,57.800 39.400,56.900 40.000,56.100 40.100,55.900 40.100,55.800 40.000,55.700 39.800,55.600 39.800,55.400 39.900,55.300 40.000,55.100 40.100,55.000 40.100,54.700 40.100,54.700 40.100,54.600 40.100,54.600 40.300,54.300 40.300,54.000 40.400,53.700 40.600,53.200 40.700,52.700 40.900,52.200 41.100,51.800 41.100,51.400 41.300,51.000 41.500,50.600 41.600,50.100 41.800,49.700 41.900,49.400 42.000,49.000 42.200,48.700 42.400,48.100 42.600,47.500 42.900,47.000 43.100,46.600 43.300,46.200 43.400,45.700 43.400,45.700 43.400,45.600 43.400,45.600 43.700,45.200 43.700,44.700 43.900,44.300 44.100,43.900 44.300,43.400 44.400,43.000 44.400,43.000 44.400,42.900 44.400,42.900 44.700,42.500 44.700,42.000 44.900,41.600 45.000,41.400 45.000,41.100 45.100,40.900 45.100,40.800 45.000,40.700 44.900,40.700 44.800,40.600 44.800,40.600 44.900,40.500 45.100,40.000 45.600,39.800 46.100,39.600 46.400,39.500 46.700,39.400 47.000,39.200 47.200,39.100 47.400,39.100 47.600,39.100 48.100,39.000 48.700,38.800 49.200,38.800 49.300,38.800 49.400,38.800 49.500,38.800 49.600,38.800 49.700,38.900 49.700,38.800 49.800,38.700 50.000,38.800 50.100,38.800 50.300,38.900 50.500,38.800 50.700,38.600 50.900,38.300 51.100,38.100 51.400,37.900 51.400,37.900 51.500,37.800 51.500,37.800 52.500,36.400 53.500,35.000 54.500,33.600 55.600,32.000 56.700,30.400 57.800,28.900 58.600,27.900 59.400,27.000 60.100,25.900 60.500,25.300 60.900,24.800 61.300,24.200 61.800,23.600 62.300,23.000 62.700,22.400 63.700,21.100 64.700,19.800 65.800,18.500 66.700,17.400 67.400,16.300 68.300,15.200 69.100,14.300 69.800,13.300 70.500,12.400 71.300,11.400 72.100,10.400 72.900,9.400 73.000,9.300 73.100,9.200 73.300,9.100 73.800,8.600 74.100,8.000 74.500,7.500 74.700,7.200 74.900,6.900 75.100,6.700 75.300,6.500 75.600,6.300 75.800,6.000 75.900,5.900 76.000,6.000 76.100,6.000 76.600,6.300 77.100,6.700 77.500,7.000 78.100,7.400 78.800,7.900 79.400,8.300 79.900,9.000 79.900,9.000 79.800,9.200 79.700,9.300 79.600,9.500 79.600,9.700 79.500,10.000 79.400,10.300 79.200,10.500 79.000,10.900 78.700,11.300 78.400,11.600 78.200,11.900 78.000,12.300 77.800,12.700 77.600,13.200 77.300,13.600 77.000,14.000 76.400,14.900 76.000,15.900 75.400,16.700 74.400,18.100 73.700,19.600 72.800,21.000 72.400,21.600 72.100,22.200 71.700,22.800 71.300,23.400 70.900,24.100 70.500,24.700 70.200,25.200 70.000,25.800 69.600,26.300 69.200,26.900 68.700,27.500 68.400,28.200 67.600,29.700 66.600,31.100 65.700,32.500 65.300,33.200 64.900,33.900 64.500,34.600 63.900,35.500 63.300,36.400 62.700,37.300 61.600,38.900 60.500,40.500 59.400,42.100 59.200,42.400 58.900,42.800 58.700,43.200 58.500,43.500 58.300,43.900 58.200,44.300 58.200,44.400 58.100,44.500 58.200,44.600 58.500,44.800 58.400,45.200 58.700,45.400 58.800,45.500 58.700,45.600 58.800,45.600 59.000,46.200 59.000,46.900 59.200,47.600 59.200,47.700 59.200,47.800 59.200,47.900 59.100,48.300 59.100,48.700 59.100,49.200 59.100,49.600 59.000,50.000 58.700,50.300 58.600,50.400 58.600,50.400 58.500,50.300 58.300,50.200 58.200,50.300 58.100,50.300 57.700,50.500 57.600,50.900 57.100,51.100 57.000,51.100 57.000,51.200 56.900,51.300 56.800,51.400 56.700,51.600 56.500,51.600 56.500,51.600 56.400,51.600 56.400,51.600 56.200,52.000 55.700,52.100 55.400,52.500 55.300,52.600 55.200,52.800 55.000,52.800 55.000,52.800 54.900,52.800 54.900,52.800 54.700,53.200 54.200,53.300 54.000,53.700 53.900,53.800 53.800,54.000 53.600,54.000 53.500,54.000 53.400,54.100 53.400,54.200 53.100,54.700 52.600,55.000 52.200,55.400 51.900,55.700 51.600,55.900 51.200,56.200 50.500,56.800 49.800,57.300 49.200,57.900 48.900,58.200 48.600,58.400 48.200,58.700 47.900,59.000 47.600,59.300 47.200,59.500 47.000,59.600 47.000,59.700 46.800,59.800 46.600,60.000 46.500,60.100 46.200,60.000 46.100,60.000 46.000,60.100 46.000,60.200 45.100,61.400 44.300,62.700 43.400,63.900 40.100,68.600 36.900,73.300 33.600,78.000 33.000,78.800 32.500,79.700 31.900,80.500 31.800,80.700 31.800,80.800 32.000,80.900 32.200,81.000 32.100,81.100 32.000,81.300 31.100,82.600 30.200,83.800 29.400,85.100 28.800,85.900 28.300,86.800 27.700,87.600 27.600,87.800 27.600,87.900 27.800,88.000 28.000,88.100 27.900,88.200 27.800,88.300 27.500,88.700 27.300,89.000 27.000,89.400 26.900,89.500 26.800,89.500 26.700,89.400 26.600,89.300 26.400,89.200 26.300,89.100 26.200,89.000 26.000,89.000 25.900,89.200 25.500,89.800 25.100,90.300 24.700,90.900 24.600,91.100 24.400,91.100 24.300,91.200 23.000,91.800 21.700,91.700 20.500,90.900 19.400,90.200 18.800,89.100 18.600,87.700 18.700,87.600 18.700,87.600 18.700,87.500 Z M 78.500,9.900 C 78.500,9.800 78.400,9.800 78.400,9.700 77.500,9.100 76.700,8.600 75.900,8.000 75.800,7.900 75.700,7.900 75.600,8.000 75.600,8.100 75.500,8.100 75.500,8.200 74.400,9.800 73.400,11.300 72.200,12.800 71.700,13.500 71.100,14.100 70.600,14.800 69.500,16.400 68.400,18.000 67.100,19.500 66.100,20.700 65.200,22.000 64.300,23.200 62.900,25.000 61.700,26.800 60.300,28.600 59.800,29.300 59.300,30.000 58.800,30.700 57.200,33.000 55.600,35.200 54.100,37.500 53.700,38.100 53.200,38.700 52.800,39.300 52.600,39.600 52.600,39.600 52.900,39.800 53.300,40.100 53.800,40.400 54.200,40.700 55.100,41.300 56.100,42.000 57.000,42.600 57.100,42.700 57.200,42.700 57.300,42.500 57.600,42.000 57.900,41.600 58.200,41.100 58.900,40.100 59.600,39.000 60.300,38.000 62.100,35.300 64.000,32.700 65.600,30.000 66.700,28.100 68.000,26.400 69.100,24.500 69.600,23.600 70.300,22.700 70.800,21.800 71.100,21.300 71.300,20.800 71.600,20.300 72.400,19.100 73.200,17.900 74.000,16.800 74.500,16.100 74.800,15.300 75.300,14.600 76.300,13.000 77.400,11.500 78.400,10.000 78.500,10.000 78.500,10.000 78.500,9.900 Z M 31.000,80.000 C 31.200,80.000 31.200,79.900 31.300,79.800 32.300,78.400 33.300,76.900 34.300,75.500 37.900,70.200 41.600,65.000 45.200,59.700 45.300,59.500 45.300,59.400 45.100,59.300 43.900,58.500 42.700,57.600 41.400,56.800 41.100,56.600 41.100,56.600 40.900,56.900 38.700,60.000 36.600,63.100 34.400,66.300 31.900,69.900 29.400,73.500 27.000,77.100 26.900,77.300 26.900,77.400 27.100,77.500 28.300,78.400 29.600,79.200 30.800,80.100 30.900,79.900 30.900,80.000 31.000,80.000 Z M 25.800,78.500 C 25.700,78.500 25.600,78.600 25.600,78.700 24.400,80.400 23.300,82.100 22.100,83.800 22.000,84.000 22.000,84.100 22.200,84.200 23.600,85.200 25.000,86.200 26.500,87.100 26.700,87.200 26.800,87.200 26.900,87.000 28.100,85.300 29.200,83.600 30.400,81.900 30.500,81.700 30.500,81.600 30.300,81.500 28.900,80.500 27.400,79.500 26.000,78.500 25.900,78.600 25.800,78.500 25.800,78.500 Z M 41.400,55.200 C 41.400,55.300 41.400,55.400 41.500,55.500 41.600,55.600 41.700,55.700 41.900,55.800 42.100,56.000 42.200,55.900 42.300,55.700 43.100,54.600 43.700,53.400 44.300,52.200 45.200,50.700 46.000,49.200 46.800,47.800 47.500,46.600 48.300,45.400 48.700,44.100 48.800,43.900 48.700,43.700 48.500,43.600 47.800,43.100 47.200,42.700 46.500,42.200 46.400,42.100 46.300,42.100 46.200,42.300 46.200,42.400 46.100,42.500 46.100,42.600 46.100,42.900 46.000,43.100 45.800,43.300 45.700,43.400 45.700,43.500 45.700,43.600 45.700,43.900 45.600,44.100 45.400,44.300 45.300,44.400 45.300,44.500 45.300,44.600 45.300,44.900 45.200,45.100 45.000,45.300 44.900,45.400 44.900,45.500 44.900,45.600 44.900,45.900 44.800,46.100 44.600,46.300 44.600,46.400 44.500,46.500 44.500,46.500 44.500,46.700 44.400,46.900 44.300,47.100 44.200,47.200 44.200,47.300 44.200,47.400 44.200,47.700 44.100,47.900 43.900,48.100 43.800,48.200 43.800,48.300 43.800,48.400 43.800,48.600 43.700,48.800 43.600,49.000 43.500,49.100 43.500,49.200 43.500,49.300 43.500,49.600 43.400,49.800 43.200,50.100 43.200,50.200 43.100,50.200 43.100,50.300 43.100,50.600 43.000,50.800 42.800,51.000 42.700,51.100 42.700,51.200 42.700,51.300 42.700,51.500 42.600,51.700 42.500,51.900 42.400,52.000 42.400,52.100 42.400,52.200 42.400,52.500 42.300,52.700 42.100,52.900 42.100,53.000 42.000,53.100 42.000,53.100 42.000,53.400 41.900,53.600 41.700,53.800 41.600,53.900 41.600,54.000 41.600,54.100 41.600,54.300 41.500,54.500 41.400,54.700 41.500,54.800 41.500,55.100 41.400,55.200 Z M 44.700,57.700 C 44.800,57.700 44.800,57.600 44.900,57.600 45.100,57.300 45.200,57.100 45.400,56.800 46.600,55.100 47.700,53.400 48.900,51.800 49.600,50.800 50.200,49.900 51.000,49.000 51.600,48.300 52.200,47.500 52.700,46.800 52.800,46.600 52.800,46.500 52.600,46.400 52.100,46.100 51.600,45.700 51.100,45.400 50.900,45.300 50.800,45.300 50.700,45.500 49.500,47.200 48.400,48.900 47.300,50.500 45.900,52.500 44.500,54.500 43.100,56.500 43.000,56.700 43.000,56.800 43.100,56.900 43.500,57.200 44.000,57.500 44.400,57.800 44.600,57.600 44.600,57.600 44.700,57.700 Z M 56.900,49.300 C 56.900,49.200 56.800,49.200 56.800,49.100 56.200,48.700 55.500,48.200 54.900,47.800 54.800,47.700 54.600,47.700 54.500,47.800 54.000,48.500 53.300,49.200 52.700,49.900 51.800,51.000 50.800,52.100 49.800,53.200 48.500,54.700 47.200,56.200 45.900,57.800 45.400,58.300 45.500,58.200 46.000,58.600 46.100,58.700 46.300,58.700 46.400,58.600 46.800,58.300 47.200,58.000 47.500,57.600 47.900,57.200 48.300,57.000 48.600,56.600 48.600,56.600 48.600,56.600 48.700,56.600 49.100,56.400 49.400,55.900 49.800,55.700 49.800,55.700 49.800,55.700 49.800,55.700 50.100,55.300 50.600,55.000 50.900,54.700 51.100,54.500 51.300,54.400 51.500,54.100 51.600,54.000 51.600,54.000 51.700,53.900 52.100,53.600 52.500,53.200 52.800,52.900 53.200,52.600 53.600,52.300 53.900,51.900 53.900,51.900 54.000,51.900 54.000,51.900 54.200,51.800 54.300,51.700 54.400,51.600 54.700,51.200 55.200,51.000 55.500,50.600 55.500,50.600 55.600,50.600 55.600,50.600 55.800,50.500 55.900,50.400 56.000,50.300 56.100,50.100 56.300,50.000 56.500,49.900 56.700,49.600 56.800,49.400 56.900,49.300 Z M 23.400,90.400 C 23.900,90.400 23.900,90.400 24.200,90.000 24.500,89.600 24.800,89.100 25.100,88.700 25.300,88.400 25.300,88.400 25.000,88.200 23.800,87.400 22.600,86.500 21.400,85.700 21.200,85.500 21.100,85.600 21.000,85.800 20.600,86.400 20.200,87.000 19.800,87.600 19.700,87.700 19.700,87.800 19.800,88.000 20.300,89.300 21.700,90.400 23.400,90.400 Z " />
</svg>