<?xml version="1.0" encoding="UTF-8" standalone="no"?>
<!DOCTYPE svg PUBLIC "-//W3C//DTD SVG 20010904//EN" "http://www.w3.org/TR/2001/REC-SVG-20010904/DTD/svg10.dtd"[]>
<svg version="1.1" id="Frosty Editor v1.0.6.3" xmlns="http://www.w3.org/2000/svg" d1p1:xlink="http://www.w3.org/1999/xlink" viewBox="0 0 384 96" xmlns:d1p1="xmlns">
  <path stroke="none" fill="#ffffffff" d="M 57.900,59.300 C 57.000,58.600 56.100,58.000 55.200,57.300 53.700,56.200 52.200,55.200 50.800,54.100 50.400,53.800 50.000,53.700 49.500,53.600 48.100,53.500 46.700,53.400 45.300,53.200 43.600,53.000 41.800,52.900 40.100,52.700 38.600,52.600 37.000,52.400 35.400,52.300 33.900,52.200 32.400,52.000 30.900,51.900 30.200,51.800 29.500,51.800 28.700,51.700 26.300,51.500 24.000,51.300 21.600,51.100 19.400,50.900 17.200,50.700 14.900,50.500 12.900,50.300 11.000,50.200 9.000,50.000 8.800,50.000 8.500,49.900 8.300,49.900 8.300,49.400 8.400,48.900 8.400,48.400 8.400,46.800 8.400,45.300 8.400,43.700 8.400,43.300 8.300,42.900 8.300,42.500 8.300,42.300 8.400,42.200 8.600,42.200 9.200,42.100 9.800,42.100 10.400,42.000 12.000,41.900 13.500,41.700 15.100,41.600 16.600,41.500 18.100,41.300 19.600,41.200 21.000,41.100 22.400,41.000 23.800,40.800 25.500,40.700 27.100,40.500 28.800,40.400 30.300,40.300 31.700,40.100 33.200,40.000 34.900,39.900 36.600,39.700 38.200,39.600 39.700,39.500 41.300,39.300 42.900,39.200 44.400,39.100 45.900,38.900 47.400,38.800 48.100,38.700 48.800,38.700 49.500,38.600 50.000,38.600 50.400,38.400 50.700,38.100 52.800,36.600 55.000,35.000 57.100,33.500 57.400,33.300 57.600,33.000 57.900,33.100 58.200,33.200 58.300,33.500 58.500,33.800 58.500,33.800 58.500,33.800 58.500,33.900 59.000,34.400 59.200,35.000 59.100,35.700 59.100,35.800 59.100,35.900 59.100,36.000 59.100,36.500 59.100,36.500 59.500,36.600 61.500,37.200 63.600,37.900 65.600,38.500 66.800,38.900 68.000,39.200 69.100,39.600 69.500,39.700 69.800,39.700 70.200,39.700 75.600,39.700 81.100,39.700 86.500,39.700 89.000,39.700 91.500,39.700 94.100,39.700 94.500,39.700 95.000,39.700 95.300,39.400 95.700,39.200 96.000,39.100 96.500,39.100 99.000,38.800 101.500,38.500 104.000,38.200 104.100,38.200 104.200,38.200 104.200,38.200 104.600,38.200 105.100,38.100 105.500,38.100 105.700,38.500 105.700,38.900 105.700,39.300 105.800,39.900 105.700,39.900 106.500,39.900 113.300,39.900 120.000,39.900 126.800,39.900 176.700,39.900 226.700,39.900 276.600,39.900 277.000,39.900 277.300,39.900 277.700,39.900 277.900,39.400 277.900,38.900 278.000,38.400 278.000,38.100 278.100,38.100 278.400,38.100 279.600,38.200 280.900,38.400 282.100,38.500 283.900,38.700 285.700,38.900 287.500,39.100 287.800,39.100 288.100,39.200 288.300,39.400 288.700,39.600 289.100,39.700 289.500,39.700 297.500,39.700 305.500,39.700 313.500,39.700 314.000,39.700 314.400,39.600 314.800,39.500 317.800,38.600 320.800,37.600 323.900,36.700 324.000,36.700 324.200,36.600 324.300,36.600 324.600,36.500 324.700,36.500 324.700,36.100 324.700,35.800 324.700,35.500 324.700,35.100 324.700,34.800 324.700,34.600 324.900,34.400 325.200,34.000 325.500,33.500 325.900,33.100 326.400,33.200 326.800,33.700 327.200,34.000 329.200,35.400 331.100,36.800 333.100,38.200 333.500,38.500 333.900,38.600 334.300,38.700 337.000,38.900 339.700,39.200 342.500,39.400 344.600,39.600 346.800,39.800 348.900,39.900 351.100,40.100 353.200,40.300 355.400,40.500 356.900,40.600 358.500,40.800 360.000,40.900 361.500,41.000 362.900,41.200 364.400,41.300 365.800,41.400 367.200,41.500 368.600,41.700 370.300,41.800 372.000,42.000 373.600,42.100 374.000,42.100 374.400,42.200 374.800,42.200 375.200,42.200 375.200,42.300 375.200,42.600 375.100,44.400 375.200,46.200 375.200,48.000 375.200,48.600 375.200,49.200 375.200,49.900 374.800,49.900 374.500,50.000 374.100,50.000 371.100,50.300 368.200,50.500 365.200,50.800 363.100,51.000 360.900,51.200 358.800,51.300 357.300,51.400 355.700,51.600 354.200,51.700 352.700,51.800 351.200,52.000 349.600,52.100 348.100,52.200 346.600,52.400 345.000,52.500 344.300,52.600 343.600,52.600 342.800,52.700 339.900,52.900 337.100,53.200 334.200,53.400 333.700,53.400 333.200,53.600 332.700,53.900 330.600,55.500 328.400,57.000 326.300,58.500 326.100,58.600 326.000,58.800 325.800,58.900 325.700,59.000 325.600,59.000 325.500,58.900 325.100,58.400 324.800,58.000 324.500,57.500 324.400,57.400 324.400,57.200 324.400,57.100 324.400,56.700 324.400,56.300 324.400,55.900 324.400,55.800 324.300,55.700 324.200,55.600 324.000,55.500 323.800,55.500 323.600,55.400 320.500,54.500 317.500,53.500 314.400,52.600 314.100,52.500 313.700,52.400 313.400,52.400 305.400,52.400 297.400,52.400 289.300,52.400 288.900,52.400 288.500,52.500 288.100,52.700 287.700,52.900 287.300,53.000 286.800,53.000 285.000,53.200 283.200,53.400 281.400,53.600 280.300,53.700 279.200,53.900 278.100,54.000 277.700,54.000 277.700,54.000 277.600,53.600 277.500,53.200 277.500,52.800 277.400,52.400 277.400,52.200 277.300,52.100 277.100,52.100 276.900,52.100 276.700,52.100 276.500,52.100 248.500,52.100 220.400,52.100 192.400,52.100 163.800,52.100 135.200,52.100 106.600,52.100 105.200,52.100 105.600,51.900 105.300,53.200 105.300,53.400 105.300,53.500 105.300,53.700 105.300,53.900 105.200,54.000 105.000,54.000 104.700,54.000 104.400,53.900 104.100,53.900 102.500,53.700 100.900,53.500 99.200,53.300 98.100,53.200 96.900,53.100 95.800,52.900 95.500,52.900 95.200,52.700 95.000,52.600 94.600,52.400 94.200,52.300 93.800,52.300 85.800,52.300 77.800,52.300 69.800,52.300 69.400,52.300 69.100,52.400 68.700,52.500 65.600,53.500 62.500,54.400 59.300,55.400 58.600,55.600 58.600,55.600 58.700,56.300 58.800,57.100 58.600,57.800 58.000,58.300 57.900,58.500 57.700,58.600 57.600,58.800 58.000,59.200 58.000,59.200 57.900,59.300 Z M 192.100,43.000 C 187.600,43.000 183.200,43.000 178.700,43.000 155.400,43.000 132.000,43.000 108.700,43.000 108.400,43.000 108.200,43.000 107.900,43.000 107.700,43.000 107.700,43.100 107.700,43.300 107.700,43.500 107.700,43.700 107.700,43.900 107.700,45.400 107.700,47.000 107.700,48.500 107.700,48.800 107.600,49.300 107.800,49.500 108.100,49.800 108.500,49.600 108.900,49.600 137.000,49.600 165.000,49.600 193.100,49.600 220.500,49.600 247.900,49.600 275.400,49.600 275.600,49.600 275.900,49.600 276.100,49.600 276.500,49.600 276.500,49.600 276.500,49.200 276.500,49.000 276.500,48.900 276.500,48.700 276.500,47.100 276.500,45.500 276.500,44.000 276.500,43.000 276.600,43.100 275.600,43.100 247.700,43.000 219.900,43.000 192.100,43.000 Z M 13.200,44.900 C 13.200,45.800 13.200,46.500 13.200,47.300 13.200,47.600 13.200,47.600 13.500,47.600 15.200,47.800 16.900,47.900 18.500,48.100 20.600,48.300 22.800,48.500 24.900,48.600 27.600,48.800 30.300,49.100 33.100,49.300 36.200,49.600 39.300,49.800 42.500,50.100 45.200,50.300 47.800,50.600 50.500,50.800 50.900,50.800 51.200,50.900 51.600,51.100 51.700,51.200 51.900,51.300 52.000,51.300 52.000,51.300 52.100,51.300 52.100,51.300 52.100,51.200 52.100,51.100 52.100,51.000 52.100,47.800 52.100,44.600 52.100,41.400 52.100,41.300 52.100,41.200 52.100,41.100 52.100,41.000 52.000,40.900 51.900,41.000 51.500,41.300 51.000,41.500 50.500,41.600 49.800,41.600 49.100,41.700 48.300,41.800 46.800,41.900 45.200,42.100 43.700,42.200 42.100,42.300 40.600,42.500 39.000,42.600 37.500,42.700 35.900,42.900 34.400,43.000 32.300,43.200 30.200,43.400 28.200,43.600 26.000,43.800 23.900,44.000 21.700,44.100 19.200,44.300 16.800,44.500 14.300,44.700 13.900,44.800 13.600,44.800 13.200,44.900 Z M 331.900,51.600 C 332.600,51.000 333.300,50.900 334.000,50.800 335.900,50.700 337.800,50.500 339.800,50.300 341.900,50.100 344.000,49.900 346.100,49.700 348.300,49.500 350.400,49.300 352.600,49.100 355.400,48.900 358.200,48.600 360.900,48.400 363.700,48.200 366.500,47.900 369.200,47.700 369.600,47.700 370.000,47.600 370.400,47.600 370.700,47.600 370.700,47.500 370.800,47.200 370.800,46.800 370.800,46.400 370.800,46.100 370.800,44.700 371.100,44.900 369.500,44.800 367.800,44.600 366.000,44.500 364.300,44.300 362.900,44.200 361.500,44.100 360.100,43.900 358.600,43.800 357.100,43.700 355.600,43.500 353.500,43.300 351.300,43.100 349.200,42.900 347.000,42.700 344.900,42.500 342.700,42.400 339.700,42.100 336.700,41.900 333.700,41.600 333.200,41.600 332.600,41.500 332.200,41.100 332.100,41.000 332.000,41.000 331.900,41.000 331.800,41.700 331.800,50.500 331.900,51.600 Z M 97.400,50.400 C 97.500,50.200 97.500,50.000 97.500,49.800 97.500,47.400 97.500,45.100 97.500,42.700 97.500,42.600 97.500,42.400 97.500,42.300 97.500,42.100 97.400,42.100 97.200,42.100 96.800,42.100 96.500,42.300 96.100,42.400 95.800,42.600 95.400,42.700 95.000,42.700 87.700,42.700 80.400,42.700 73.100,42.700 72.900,42.700 72.800,42.700 72.600,42.700 72.400,42.700 72.300,42.800 72.300,43.100 72.300,43.200 72.300,43.300 72.300,43.400 72.300,45.300 72.300,47.300 72.300,49.200 72.300,49.800 72.300,49.800 72.900,49.800 73.000,49.800 73.100,49.800 73.200,49.800 80.300,49.800 87.400,49.800 94.400,49.800 95.000,49.800 95.600,49.900 96.200,50.200 96.700,50.300 97.000,50.400 97.400,50.400 Z M 286.500,50.400 C 286.900,50.400 287.200,50.400 287.500,50.300 287.700,50.200 287.900,50.100 288.200,50.000 288.400,49.900 288.700,49.800 289.000,49.800 296.300,49.800 303.500,49.800 310.800,49.800 311.000,49.800 311.200,49.800 311.400,49.800 311.500,49.800 311.600,49.700 311.600,49.600 311.600,49.500 311.600,49.300 311.600,49.200 311.600,47.200 311.600,45.300 311.600,43.300 311.600,43.200 311.600,43.100 311.600,43.000 311.600,42.800 311.500,42.700 311.300,42.700 311.100,42.700 310.900,42.700 310.700,42.700 303.600,42.700 296.500,42.700 289.500,42.700 288.800,42.700 288.200,42.700 287.600,42.300 287.500,42.300 287.500,42.200 287.400,42.200 287.100,42.100 286.800,42.000 286.500,42.100 286.500,44.900 286.500,47.600 286.500,50.400 Z M 103.100,51.100 C 103.100,50.700 103.100,50.400 103.100,50.000 103.100,49.600 103.100,49.600 103.500,49.500 103.700,49.500 103.800,49.500 104.000,49.500 104.400,49.500 104.700,49.500 105.100,49.500 105.400,49.500 105.400,49.400 105.500,49.100 105.500,48.900 105.500,48.800 105.500,48.600 105.500,47.000 105.500,45.400 105.500,43.800 105.500,43.600 105.500,43.400 105.500,43.200 105.500,43.000 105.400,42.900 105.200,42.900 104.600,42.900 104.100,42.900 103.500,42.900 103.100,42.900 103.100,42.900 103.100,42.500 103.100,42.100 103.200,41.800 103.000,41.400 102.100,41.500 101.200,41.600 100.300,41.700 100.100,41.700 99.900,41.800 99.700,41.800 99.500,41.800 99.500,41.900 99.500,42.100 99.500,42.200 99.500,42.400 99.500,42.500 99.500,45.000 99.500,47.500 99.500,50.100 99.500,50.200 99.500,50.400 99.500,50.500 99.500,50.700 99.600,50.700 99.700,50.800 100.900,50.800 102.000,50.900 103.100,51.100 Z M 284.400,41.900 C 283.300,41.700 281.700,41.500 280.900,41.500 280.900,41.900 280.900,42.200 280.900,42.600 280.900,42.900 280.800,42.900 280.600,42.900 280.000,42.900 279.500,42.900 278.900,42.900 278.600,42.900 278.500,42.900 278.500,43.300 278.500,43.500 278.500,43.700 278.500,43.900 278.500,45.200 278.500,46.600 278.500,47.900 278.500,48.200 278.500,48.500 278.500,48.900 278.500,49.500 278.500,49.600 279.100,49.500 279.600,49.500 280.100,49.500 280.600,49.500 280.800,49.500 280.900,49.600 280.900,49.800 280.900,50.200 280.800,50.600 281.000,51.000 281.900,50.900 282.700,50.800 283.600,50.700 283.800,50.700 284.000,50.600 284.200,50.600 284.400,50.600 284.400,50.500 284.400,50.300 284.400,50.100 284.400,49.900 284.400,49.700 284.400,47.300 284.400,44.800 284.400,42.400 284.400,42.400 284.400,42.100 284.400,41.900 Z M 318.500,42.700 C 317.400,42.700 316.300,42.700 315.200,42.700 314.700,42.700 314.200,42.600 313.800,42.800 313.700,43.200 313.800,43.700 313.800,44.200 313.800,44.500 313.800,44.800 313.800,45.100 313.800,45.300 313.900,45.300 314.000,45.400 314.200,45.400 314.300,45.400 314.500,45.400 317.200,45.400 319.900,45.400 322.500,45.400 322.600,45.400 322.700,45.400 322.800,45.400 323.100,45.400 323.100,45.300 323.100,45.100 323.100,44.600 323.100,44.100 323.100,43.700 323.100,43.500 323.100,43.400 323.100,43.200 323.100,42.900 323.000,42.900 322.800,42.900 322.600,42.900 322.500,42.900 322.300,42.900 321.000,42.700 319.800,42.700 318.500,42.700 Z M 318.400,49.800 C 318.400,49.800 318.400,49.800 318.400,49.800 319.700,49.800 321.000,49.800 322.300,49.800 322.500,49.800 322.700,49.800 322.900,49.800 323.000,49.800 323.100,49.700 323.100,49.600 323.100,49.300 323.100,49.100 323.100,48.800 323.100,48.400 323.100,47.900 323.100,47.500 323.100,47.300 323.000,47.200 322.800,47.200 322.700,47.200 322.500,47.200 322.400,47.200 319.700,47.200 317.000,47.200 314.400,47.200 314.300,47.200 314.100,47.200 314.000,47.200 313.800,47.200 313.700,47.300 313.700,47.500 313.700,48.100 313.700,48.800 313.700,49.400 313.700,49.700 313.700,49.800 314.100,49.800 315.500,49.800 317.000,49.800 318.400,49.800 Z M 65.600,45.300 C 66.900,45.300 68.200,45.300 69.500,45.300 69.700,45.300 69.900,45.300 70.100,45.300 70.200,45.300 70.300,45.200 70.300,45.100 70.300,44.400 70.300,43.700 70.300,42.900 70.300,42.800 70.200,42.700 70.100,42.700 70.000,42.700 69.900,42.700 69.800,42.700 67.000,42.700 64.200,42.700 61.500,42.700 61.400,42.700 61.300,42.700 61.200,42.700 61.100,42.700 61.000,42.800 61.000,42.900 61.000,43.600 61.000,44.300 61.000,45.100 61.000,45.200 61.100,45.300 61.200,45.300 61.400,45.300 61.600,45.300 61.800,45.300 63.000,45.300 64.300,45.300 65.600,45.300 Z M 65.600,49.800 C 66.900,49.800 68.100,49.800 69.400,49.800 69.600,49.800 69.900,49.800 70.100,49.800 70.200,49.800 70.300,49.700 70.300,49.600 70.300,49.600 70.300,49.500 70.300,49.500 70.300,48.800 70.300,48.200 70.300,47.500 70.300,47.300 70.200,47.200 70.000,47.200 69.900,47.200 69.700,47.200 69.600,47.200 66.900,47.200 64.200,47.200 61.600,47.200 61.500,47.200 61.300,47.200 61.200,47.200 61.000,47.200 60.900,47.300 60.900,47.500 60.900,48.100 60.900,48.800 60.900,49.400 60.900,49.700 60.900,49.800 61.300,49.800 62.700,49.800 64.200,49.800 65.600,49.800 Z M 56.100,38.800 C 56.100,39.000 56.100,39.200 56.100,39.400 56.100,44.000 56.100,48.500 56.100,53.100 56.100,53.200 56.100,53.400 56.100,53.500 56.100,53.800 56.200,53.900 56.500,53.800 56.800,53.700 56.800,53.600 56.900,53.300 56.900,53.200 56.900,53.000 56.900,52.900 56.900,48.500 56.900,44.100 56.900,39.600 56.900,39.400 56.900,39.300 56.900,39.100 56.900,38.900 56.800,38.800 56.600,38.800 56.400,38.800 56.300,38.700 56.100,38.800 Z M 54.900,46.300 C 54.900,44.000 54.900,41.700 54.900,39.500 54.900,39.400 55.000,39.200 54.800,39.200 54.700,39.200 54.600,39.300 54.500,39.300 54.300,39.400 54.200,39.600 54.200,39.900 54.200,40.000 54.200,40.200 54.200,40.300 54.200,44.300 54.200,48.300 54.200,52.400 54.200,52.600 54.200,52.700 54.200,52.900 54.200,53.200 54.500,53.500 54.800,53.600 54.800,53.600 54.900,53.600 54.900,53.500 54.900,53.300 54.900,53.200 54.900,53.000 54.900,50.700 54.900,48.500 54.900,46.300 Z M 325.900,53.200 C 325.900,52.900 325.900,52.600 325.900,52.400 325.900,50.400 325.900,48.500 325.900,46.500 325.900,44.300 325.900,42.000 325.900,39.800 325.900,39.200 325.800,39.300 325.300,39.500 325.200,39.500 325.100,39.700 325.100,39.800 325.100,40.000 325.100,40.200 325.100,40.400 325.100,44.400 325.100,48.400 325.100,52.400 325.100,52.600 325.100,52.700 325.100,52.900 325.100,53.100 325.200,53.200 325.400,53.300 325.600,53.100 325.800,53.200 325.900,53.200 Z M 58.100,53.200 C 58.300,53.200 58.400,53.200 58.500,53.100 58.800,53.000 58.800,53.000 58.900,52.700 58.900,52.600 58.900,52.500 58.900,52.500 58.900,48.300 58.900,44.200 58.900,40.000 58.900,39.900 58.900,39.900 58.900,39.800 58.900,39.400 58.900,39.400 58.500,39.300 58.400,39.300 58.300,39.300 58.200,39.200 58.000,39.900 58.000,52.100 58.100,53.200 Z M 327.800,38.700 C 327.100,38.800 327.100,38.800 327.100,39.400 327.100,39.500 327.100,39.500 327.100,39.600 327.100,44.000 327.100,48.500 327.100,52.900 327.100,53.000 327.100,53.200 327.100,53.300 327.100,53.500 327.200,53.600 327.400,53.700 327.500,53.700 327.600,53.700 327.700,53.700 327.900,53.100 327.900,40.000 327.800,38.700 Z M 329.200,39.100 C 329.100,39.900 329.100,48.100 329.100,52.900 329.100,53.100 329.100,53.200 329.200,53.400 329.500,53.200 329.800,53.100 329.800,52.600 329.800,52.400 329.800,52.300 329.800,52.100 329.800,49.400 329.800,46.800 329.800,44.100 329.800,42.700 329.800,41.200 329.800,39.800 329.800,39.300 329.800,39.300 329.200,39.100 Z M 319.100,41.400 C 319.100,41.400 319.100,41.500 319.100,41.500 320.200,41.500 321.300,41.500 322.400,41.500 323.200,41.500 323.200,41.600 323.200,40.700 323.200,40.600 323.200,40.500 323.200,40.400 323.200,40.200 323.100,40.100 322.900,40.200 322.300,40.400 321.800,40.500 321.200,40.700 320.500,40.900 319.800,41.100 319.100,41.400 Z M 319.100,51.100 C 319.200,51.300 319.400,51.300 319.600,51.300 320.500,51.600 321.300,51.900 322.200,52.100 323.300,52.400 323.200,52.600 323.200,51.400 323.200,51.100 323.100,51.000 322.800,51.000 321.600,51.000 320.500,51.000 319.300,51.000 319.200,51.000 319.200,51.000 319.100,51.100 Z M 61.000,40.200 C 60.900,40.500 60.900,40.800 60.900,41.100 60.900,41.500 60.900,41.500 61.300,41.500 62.400,41.500 63.500,41.500 64.600,41.500 64.700,41.500 64.900,41.600 65.000,41.400 63.600,41.000 62.300,40.500 61.000,40.200 Z M 60.900,52.300 C 61.000,52.300 61.100,52.300 61.100,52.300 62.300,51.900 63.500,51.500 64.800,51.200 64.900,51.200 64.900,51.200 64.900,51.100 64.900,51.100 64.800,51.000 64.800,51.000 63.700,51.000 62.600,51.000 61.400,51.000 61.300,51.000 61.200,51.000 61.100,51.000 61.000,51.000 60.900,51.100 60.900,51.200 60.900,51.500 60.900,51.900 60.900,52.300 Z M 372.000,46.200 C 372.000,46.200 372.000,46.200 372.000,46.200 372.000,46.500 372.000,46.900 372.000,47.200 372.000,47.400 372.100,47.400 372.200,47.400 372.400,47.400 372.500,47.300 372.500,47.200 372.500,46.500 372.500,45.900 372.500,45.200 372.500,45.000 372.400,45.000 372.200,45.000 372.000,45.000 372.000,45.100 372.000,45.200 372.000,45.600 372.000,45.900 372.000,46.200 Z M 11.400,46.300 C 11.400,46.300 11.400,46.300 11.400,46.300 11.400,46.600 11.400,46.900 11.400,47.300 11.400,47.500 11.500,47.600 11.700,47.600 11.900,47.600 11.900,47.500 11.900,47.400 11.900,46.700 11.900,46.100 11.900,45.400 11.900,45.200 11.800,45.200 11.600,45.200 11.500,45.200 11.300,45.200 11.300,45.400 11.400,45.600 11.400,45.900 11.400,46.300 Z " />
  <path stroke="none" fill="#ffffffff" d="M 192.000,43.600 C 209.800,43.600 227.600,43.600 245.400,43.600 245.700,43.600 245.900,43.600 246.200,43.600 246.400,43.600 246.500,43.700 246.500,43.900 246.500,44.100 246.500,44.300 246.500,44.500 246.500,44.700 246.400,44.800 246.200,44.800 246.000,44.800 245.800,44.800 245.600,44.800 209.900,44.800 174.300,44.800 138.600,44.800 138.400,44.800 138.200,44.800 138.000,44.800 137.700,44.800 137.700,44.800 137.600,44.400 137.600,44.300 137.600,44.200 137.600,44.200 137.600,43.700 137.600,43.700 138.100,43.700 138.300,43.700 138.500,43.700 138.700,43.700 156.500,43.600 174.200,43.600 192.000,43.600 Z " />
  <path stroke="none" fill="#ffffffff" d="M 192.100,47.700 C 209.800,47.700 227.400,47.700 245.100,47.700 245.300,47.700 245.500,47.700 245.700,47.700 246.700,47.700 246.500,47.600 246.500,48.600 246.500,48.800 246.400,48.900 246.200,48.900 245.900,48.900 245.700,48.900 245.400,48.900 217.400,48.900 189.400,48.900 161.400,48.900 153.900,48.900 146.400,48.900 138.900,48.900 138.700,48.900 138.600,48.900 138.400,48.900 137.600,48.900 137.700,48.900 137.700,48.200 137.700,47.800 137.700,47.800 138.100,47.800 138.300,47.800 138.600,47.800 138.800,47.800 156.500,47.700 174.300,47.700 192.100,47.700 Z " />
  <path stroke="none" fill="#ffffffff" d="M 192.000,45.700 C 209.800,45.700 227.600,45.700 245.400,45.700 245.600,45.700 245.900,45.700 246.100,45.700 246.400,45.700 246.500,45.700 246.500,46.100 246.500,47.000 246.600,46.900 245.800,46.900 245.600,46.900 245.400,46.900 245.200,46.900 209.800,46.900 174.300,46.900 138.900,46.900 138.800,46.900 138.600,46.900 138.500,46.900 137.600,46.900 137.700,47.000 137.700,46.100 137.700,45.800 137.800,45.800 138.000,45.700 138.200,45.700 138.500,45.700 138.700,45.700 156.400,45.700 174.200,45.700 192.000,45.700 Z " />
  <path stroke="none" fill="#ffffffff" d="M 27.500,46.800 C 24.500,46.800 21.500,46.800 18.600,46.800 18.400,46.800 18.200,46.800 18.000,46.800 17.700,46.800 17.700,46.700 17.700,46.500 17.700,45.600 17.600,45.600 18.500,45.600 24.500,45.600 30.600,45.600 36.600,45.600 36.800,45.600 36.900,45.600 37.100,45.600 37.400,45.600 37.400,45.700 37.400,45.900 37.400,46.900 37.500,46.800 36.600,46.800 33.600,46.800 30.600,46.800 27.500,46.800 Z " />
  <path stroke="none" fill="#ffffffff" d="M 356.400,46.800 C 353.400,46.800 350.300,46.800 347.300,46.800 346.500,46.800 346.600,46.800 346.600,46.000 346.600,45.900 346.600,45.900 346.600,45.800 346.600,45.600 346.700,45.600 346.800,45.500 347.000,45.500 347.100,45.500 347.300,45.500 353.400,45.500 359.500,45.500 365.600,45.500 366.400,45.500 366.300,45.500 366.300,46.200 366.300,46.300 366.300,46.300 366.300,46.400 366.300,46.700 366.300,46.700 366.000,46.700 365.800,46.700 365.600,46.700 365.400,46.700 362.400,46.800 359.400,46.800 356.400,46.800 Z " />
</svg>