<?xml version="1.0" encoding="UTF-8" standalone="no"?>
<!DOCTYPE svg PUBLIC "-//W3C//DTD SVG 20010904//EN" "http://www.w3.org/TR/2001/REC-SVG-20010904/DTD/svg10.dtd"[]>
<svg version="1.1" id="Frosty Editor v1.0.6.3" xmlns="http://www.w3.org/2000/svg" d1p1:xlink="http://www.w3.org/1999/xlink" viewBox="0 0 96 96" xmlns:d1p1="xmlns">
  <path stroke="none" fill="#ffffffff" d="M 51.200,48.000 C 51.200,49.767 49.767,51.200 48.000,51.200 46.233,51.200 44.800,49.767 44.800,48.000 44.800,46.233 46.233,44.800 48.000,44.800 49.767,44.800 51.200,46.233 51.200,48.000 51.200,48.000 51.200,48.000 51.200,48.000 Z " />
  <path stroke="none" fill="#ffffffff" d="M 70.000,67.800 C 68.167,67.800 66.333,67.800 64.500,67.800 64.500,65.967 64.500,64.133 64.500,62.300 66.333,62.300 68.167,62.300 70.000,62.300 70.000,64.133 70.000,65.967 70.000,67.800 70.000,67.800 70.000,67.800 70.000,67.800 Z M 48.000,16.100 C 44.900,16.100 41.800,16.600 39.000,17.400 40.167,21.133 41.333,24.867 42.500,28.600 44.300,28.100 46.100,27.800 48.000,27.800 59.200,27.800 68.200,36.900 68.200,48.000 68.200,59.100 59.200,68.200 48.000,68.200 36.800,68.200 27.800,59.200 27.800,48.000 27.800,45.300 28.400,42.700 29.300,40.300 25.733,38.667 22.167,37.033 18.600,35.400 17.000,39.200 16.000,43.500 16.000,47.900 16.000,65.500 30.300,79.800 47.900,79.800 65.500,79.800 79.900,65.600 79.900,48.000 79.900,30.400 65.600,16.100 48.000,16.100 48.000,16.100 48.000,16.100 48.000,16.100 Z " />
  <path stroke="none" fill="#ffffffff" d="M 48.000,40.800 C 49.567,38.400 51.133,36.000 52.700,33.600 54.233,36.000 55.767,38.400 57.300,40.800 54.200,40.800 51.100,40.800 48.000,40.800 48.000,40.800 48.000,40.800 48.000,40.800 Z M 48.000,65.500 C 57.600,65.500 65.500,57.700 65.500,48.000 65.500,38.400 57.700,30.500 48.000,30.500 46.400,30.500 44.800,30.700 43.300,31.200 44.467,34.900 45.633,38.600 46.800,42.300 47.200,42.200 47.600,42.200 48.000,42.200 51.200,42.200 53.800,44.800 53.800,48.000 53.800,51.200 51.200,53.800 48.000,53.800 44.800,53.800 42.200,51.200 42.200,48.000 42.200,47.400 42.300,46.800 42.500,46.300 38.967,44.700 35.433,43.100 31.900,41.500 31.100,43.500 30.600,45.700 30.600,48.100 30.500,57.600 38.400,65.500 48.000,65.500 48.000,65.500 48.000,65.500 48.000,65.500 Z " />
  <path stroke="none" fill="#ffffffff" d="M 37.000,33.100 C 37.000,34.646 35.746,35.900 34.200,35.900 32.654,35.900 31.400,34.646 31.400,33.100 31.400,31.554 32.654,30.300 34.200,30.300 35.746,30.300 37.000,31.554 37.000,33.100 37.000,33.100 37.000,33.100 37.000,33.100 Z " />
</svg>