<?xml version="1.0" encoding="UTF-8" standalone="no"?>
<!DOCTYPE svg PUBLIC "-//W3C//DTD SVG 20010904//EN" "http://www.w3.org/TR/2001/REC-SVG-20010904/DTD/svg10.dtd"[]>
<svg version="1.1" id="Frosty Editor v1.0.6.3" xmlns="http://www.w3.org/2000/svg" d1p1:xlink="http://www.w3.org/1999/xlink" viewBox="0 0 25 25" xmlns:d1p1="xmlns">
  <path stroke="none" fill="#ffffffff" d="M 6.591,3.673 C 6.586,3.674 6.581,3.676 6.577,3.679 6.572,3.681 6.567,3.685 6.561,3.689 6.454,3.772 6.377,3.889 6.331,4.007 6.284,4.157 6.299,4.325 6.364,4.464 6.450,4.676 6.627,4.837 6.762,5.019 6.868,5.152 6.973,5.284 7.079,5.417 7.102,5.442 7.094,5.451 7.077,5.466 6.349,6.127 6.349,6.127 6.349,6.127 6.332,6.142 6.317,6.141 6.302,6.125 6.232,6.081 6.178,6.022 6.125,5.964 5.965,5.804 5.788,5.644 5.628,5.484 5.506,5.367 5.383,5.281 5.216,5.249 5.129,5.237 5.041,5.225 4.960,5.253 4.862,5.296 4.756,5.347 4.672,5.423 4.605,5.484 4.604,5.516 4.665,5.582 4.779,5.708 4.892,5.833 5.006,5.959 5.036,5.992 5.035,6.008 5.002,6.039 4.969,6.069 4.927,6.107 4.886,6.145 4.835,6.190 4.833,6.223 4.879,6.273 5.046,6.456 5.046,6.456 5.046,6.456 5.069,6.482 5.068,6.498 5.043,6.520 4.917,6.634 4.800,6.756 4.667,6.862 4.568,6.937 4.500,7.030 4.493,7.158 4.492,7.190 4.482,7.214 4.473,7.237 4.463,7.293 4.477,7.325 4.508,7.358 4.614,7.475 4.721,7.577 4.819,7.702 4.895,7.801 4.973,7.837 5.101,7.827 5.205,7.824 5.310,7.805 5.386,7.721 5.512,7.591 5.654,7.477 5.787,7.356 5.821,7.325 5.829,7.317 5.859,7.351 5.935,7.434 6.011,7.518 6.087,7.602 6.141,7.661 6.164,7.670 6.231,7.609 6.273,7.571 6.306,7.541 6.348,7.503 6.381,7.472 6.389,7.480 6.412,7.505 6.526,7.630 6.639,7.756 6.753,7.882 6.776,7.907 6.792,7.923 6.815,7.948 6.806,7.956 6.790,7.955 6.782,7.963 6.523,8.198 6.523,8.198 6.523,8.198 6.489,8.229 6.495,8.269 6.526,8.302 6.655,8.444 6.655,8.444 6.655,8.444 7.180,9.021 7.180,9.021 7.180,9.021 7.210,9.055 7.248,9.081 7.290,9.043 7.398,8.960 7.490,8.876 7.583,8.776 7.720,8.927 7.856,9.078 7.947,9.194 7.962,9.211 7.970,9.219 7.953,9.235 7.936,9.266 7.934,9.297 7.964,9.330 8.474,9.891 8.474,9.891 8.474,9.891 8.496,9.916 8.528,9.934 8.553,9.911 8.586,9.880 8.608,9.905 8.631,9.930 9.133,10.482 9.634,11.033 10.135,11.585 10.311,11.035 10.485,10.488 10.661,9.937 10.673,9.901 10.700,9.858 10.641,9.839 10.605,9.828 10.605,9.789 10.616,9.753 10.699,9.493 10.782,9.233 10.869,8.961 10.884,8.914 10.920,8.885 10.967,8.900 10.991,8.908 10.994,8.896 11.002,8.872 11.014,8.837 11.014,8.837 11.014,8.837 11.041,8.751 11.069,8.664 11.097,8.577 10.212,7.604 9.326,6.631 8.443,5.659 8.420,5.634 8.420,5.634 8.420,5.634 8.405,5.617 8.406,5.601 8.422,5.586 8.557,5.464 8.557,5.464 8.557,5.464 8.607,5.418 8.608,5.387 8.562,5.337 8.479,5.245 8.403,5.161 8.327,5.077 8.304,5.052 8.305,5.037 8.330,5.014 8.489,4.869 8.647,4.724 8.806,4.580 8.839,4.550 8.849,4.526 8.859,4.486 8.863,4.406 8.874,4.336 8.885,4.264 8.887,4.216 8.881,4.192 8.850,4.159 8.721,4.016 8.592,3.875 8.462,3.733 8.432,3.699 8.393,3.688 8.353,3.694 8.288,3.707 8.223,3.721 8.151,3.725 8.111,3.731 8.079,3.746 8.054,3.769 7.895,3.913 7.744,4.050 7.585,4.194 7.560,4.217 7.544,4.216 7.521,4.191 7.461,4.124 7.407,4.066 7.354,4.008 7.309,3.958 7.277,3.956 7.227,4.001 7.193,4.032 7.151,4.069 7.109,4.107 7.076,4.138 7.060,4.137 7.029,4.104 6.908,3.970 6.794,3.845 6.672,3.711 6.649,3.685 6.621,3.664 6.591,3.673 Z M 13.022,3.094 C 12.992,3.105 12.974,3.144 12.948,3.224 12.329,5.161 11.713,7.087 11.098,9.013 11.088,9.045 11.088,9.045 11.088,9.045 11.081,9.067 11.077,9.078 11.056,9.071 11.013,9.057 10.981,9.083 10.967,9.126 10.888,9.374 10.812,9.610 10.737,9.847 10.726,9.879 10.727,9.915 10.759,9.925 10.813,9.942 10.788,9.982 10.778,10.014 9.061,15.384 9.061,15.384 9.061,15.384 9.044,15.438 9.027,15.491 9.024,15.538 9.005,15.745 8.990,15.942 8.985,16.142 8.972,16.221 8.954,16.275 8.883,16.312 8.781,16.374 8.706,16.456 8.629,16.550 8.608,16.579 8.594,16.587 8.562,16.576 8.501,16.545 8.469,16.570 8.448,16.635 8.407,16.764 8.366,16.893 8.325,17.022 8.290,17.130 8.259,17.227 8.225,17.334 8.204,17.399 8.219,17.427 8.283,17.448 8.315,17.458 8.315,17.458 8.315,17.458 8.337,17.465 8.345,17.479 8.349,17.504 8.372,17.690 8.435,17.864 8.526,18.024 8.541,18.052 8.570,18.073 8.602,18.083 9.215,18.279 9.839,18.479 10.453,18.675 10.485,18.685 10.521,18.684 10.564,18.663 10.716,18.593 10.865,18.498 10.978,18.368 11.013,18.332 11.038,18.328 11.081,18.342 11.146,18.362 11.174,18.348 11.194,18.284 11.270,18.047 11.346,17.810 11.422,17.573 11.439,17.519 11.424,17.491 11.370,17.474 11.349,17.467 11.341,17.453 11.338,17.428 11.336,17.285 11.299,17.143 11.247,17.008 11.236,16.968 11.231,16.943 11.253,16.914 11.333,16.774 11.410,16.645 11.502,16.508 11.582,16.367 11.651,16.223 11.700,16.073 13.602,10.122 13.602,10.122 13.602,10.122 14.252,8.089 14.899,6.066 15.556,4.046 15.566,4.014 15.566,4.014 15.566,4.014 15.579,3.935 15.575,3.910 15.500,3.886 15.385,3.837 15.264,3.846 15.150,3.833 15.135,3.840 15.125,3.837 15.111,3.844 14.929,3.893 14.790,3.991 14.700,4.164 14.661,4.246 14.623,4.329 14.596,4.415 14.589,4.436 14.571,4.455 14.539,4.444 14.205,4.338 13.861,4.228 13.528,4.121 13.495,4.111 13.491,4.086 13.498,4.064 13.519,4.000 13.525,3.942 13.546,3.878 13.593,3.691 13.567,3.517 13.454,3.350 13.443,3.311 13.417,3.279 13.377,3.255 13.309,3.209 13.241,3.163 13.169,3.129 13.095,3.099 13.053,3.083 13.022,3.094 Z M 13.420,11.133 C 13.100,12.135 12.780,13.137 12.459,14.140 13.217,14.974 13.975,15.807 14.734,16.642 14.742,16.651 14.749,16.660 14.757,16.668 14.772,16.685 14.771,16.700 14.770,16.716 14.780,16.845 14.782,16.965 14.785,17.085 14.790,17.142 14.804,17.174 14.842,17.216 15.450,17.884 16.066,18.562 16.681,19.239 16.689,19.247 16.705,19.263 16.712,19.271 16.735,19.297 16.774,19.307 16.799,19.284 16.824,19.262 16.839,19.278 16.863,19.287 17.011,19.366 17.159,19.445 17.308,19.524 17.331,19.534 17.346,19.550 17.345,19.582 17.352,19.759 17.384,19.928 17.449,20.083 17.463,20.116 17.463,20.131 17.438,20.154 17.379,20.207 17.370,20.231 17.430,20.298 17.613,20.499 17.788,20.690 17.962,20.883 18.069,21.000 18.068,21.000 18.185,20.893 18.202,20.878 18.219,20.880 18.242,20.889 18.446,20.978 18.651,21.019 18.867,21.021 18.915,21.024 18.948,21.009 18.982,20.979 19.316,20.675 19.316,20.675 19.316,20.675 19.759,20.273 20.210,19.862 20.653,19.460 20.687,19.429 20.712,19.406 20.714,19.358 20.724,19.151 20.710,18.950 20.648,18.747 20.627,18.690 20.643,18.660 20.685,18.622 20.752,18.561 20.753,18.529 20.693,18.462 20.510,18.261 20.320,18.052 20.138,17.852 20.077,17.785 20.045,17.783 19.978,17.844 19.962,17.859 19.945,17.875 19.914,17.858 19.758,17.770 19.585,17.713 19.410,17.689 19.387,17.680 19.370,17.679 19.363,17.655 19.299,17.500 19.236,17.329 19.171,17.174 19.172,17.158 19.157,17.141 19.173,17.126 19.216,17.072 19.194,17.030 19.156,16.989 18.054,15.777 18.054,15.777 18.054,15.777 17.301,14.949 17.301,14.949 17.301,14.949 17.278,14.924 17.256,14.899 17.224,14.897 17.121,14.884 17.017,14.872 16.914,14.859 16.834,14.855 16.780,14.829 16.727,14.770 16.445,14.461 16.156,14.143 15.868,13.826 15.822,13.775 15.800,13.734 15.811,13.663 15.833,13.552 15.781,13.461 15.705,13.378 15.378,13.018 15.059,12.668 14.732,12.308 14.710,12.283 14.695,12.250 14.654,12.256 14.606,12.270 14.559,12.252 14.503,12.257 14.455,12.255 14.431,12.245 14.400,12.212 14.074,11.853 13.747,11.493 13.420,11.133 Z " />
</svg>