<?xml version="1.0" encoding="UTF-8" standalone="no"?>
<!DOCTYPE svg PUBLIC "-//W3C//DTD SVG 20010904//EN" "http://www.w3.org/TR/2001/REC-SVG-20010904/DTD/svg10.dtd"[]>
<svg version="1.1" id="Frosty Editor v1.0.6.3" xmlns="http://www.w3.org/2000/svg" d1p1:xlink="http://www.w3.org/1999/xlink" viewBox="0 0 25 25" xmlns:d1p1="xmlns">
  <path stroke="none" fill="#ffffffff" d="M 12.429,0.830 C 11.895,2.292 11.538,4.232 11.587,6.052 12.008,6.361 12.008,6.361 12.008,6.361 11.959,8.304 11.959,8.304 11.959,8.304 11.622,8.863 11.459,9.198 10.919,9.591 10.672,9.616 10.672,9.616 10.672,9.616 10.634,9.752 10.634,9.752 10.634,9.752 11.414,10.804 11.414,10.804 11.414,10.804 11.572,10.011 11.732,9.582 12.302,9.171 12.520,8.204 12.386,7.133 12.415,6.146 11.982,5.780 11.982,5.780 11.982,5.780 12.043,4.173 12.059,2.611 12.490,1.047 12.490,0.830 12.490,0.830 12.490,0.830 Z M 13.058,0.830 C 13.058,1.047 13.058,1.047 13.058,1.047 13.489,2.611 13.505,4.173 13.566,5.780 13.133,6.146 13.133,6.146 13.133,6.146 13.162,7.133 13.028,8.204 13.246,9.171 13.816,9.582 13.975,10.011 14.134,10.804 14.913,9.752 14.913,9.752 14.913,9.752 14.876,9.616 14.876,9.616 14.876,9.616 14.629,9.591 14.629,9.591 14.629,9.591 14.089,9.198 13.926,8.863 13.589,8.304 13.540,6.361 13.540,6.361 13.540,6.361 13.960,6.052 13.960,6.052 13.960,6.052 14.010,4.232 13.653,2.292 13.119,0.830 Z M 4.398,8.378 C 4.262,8.552 4.262,8.552 4.262,8.552 3.891,13.848 3.891,13.848 3.891,13.848 4.150,14.442 4.150,14.442 4.150,14.442 5.165,15.915 5.165,15.915 5.165,15.915 6.947,17.177 6.947,17.177 6.947,17.177 7.182,17.177 7.182,17.177 7.182,17.177 7.776,16.113 7.776,16.113 7.776,16.113 8.320,15.630 8.320,15.630 8.320,15.630 9.088,15.296 9.088,15.296 9.088,15.296 9.273,15.642 9.273,15.642 9.273,15.642 9.397,15.630 9.397,15.630 9.397,15.630 9.620,14.963 9.782,14.321 10.263,13.786 9.970,13.786 9.199,13.526 9.199,13.526 8.766,13.910 8.766,13.910 8.766,13.910 8.444,13.997 8.444,13.997 8.444,13.997 7.887,15.110 7.887,15.110 7.887,15.110 7.529,15.098 7.529,15.098 7.529,15.098 6.687,16.051 6.687,16.051 6.687,16.051 5.573,15.209 5.573,15.209 5.573,15.209 4.187,13.403 4.187,13.403 4.187,13.403 4.237,11.002 4.237,11.002 4.237,11.002 Z M 21.150,8.378 C 21.311,11.002 21.311,11.002 21.311,11.002 21.360,13.403 21.360,13.403 21.360,13.403 19.974,15.209 19.974,15.209 19.974,15.209 18.861,16.051 18.861,16.051 18.861,16.051 18.019,15.098 18.019,15.098 18.019,15.098 17.660,15.110 17.660,15.110 17.660,15.110 17.103,13.997 17.103,13.997 17.103,13.997 16.782,13.910 16.782,13.910 16.782,13.910 16.349,13.526 16.349,13.526 16.349,13.526 16.349,13.526 15.578,13.786 15.284,13.786 15.766,14.321 15.928,14.963 16.150,15.630 16.274,15.642 16.274,15.642 16.274,15.642 16.460,15.296 16.460,15.296 16.460,15.296 17.227,15.630 17.227,15.630 17.227,15.630 17.772,16.113 17.772,16.113 17.772,16.113 18.366,17.177 18.366,17.177 18.366,17.177 18.601,17.177 18.601,17.177 18.601,17.177 20.383,15.915 20.383,15.915 20.383,15.915 21.398,14.442 21.398,14.442 21.398,14.442 21.657,13.848 21.657,13.848 21.657,13.848 21.286,8.552 21.286,8.552 21.286,8.552 Z M 12.774,10.641 C 12.104,10.692 11.566,10.795 11.234,11.455 10.991,12.020 10.631,12.640 10.332,13.159 10.290,13.236 10.339,13.495 10.586,13.388 11.321,12.312 11.321,12.312 11.321,12.312 11.652,11.769 12.146,11.687 12.774,11.647 13.402,11.687 13.896,11.769 14.227,12.312 14.961,13.388 14.961,13.388 14.961,13.388 15.209,13.495 15.258,13.236 15.216,13.159 14.917,12.640 14.556,12.020 14.314,11.455 13.982,10.795 13.444,10.692 12.774,10.641 Z M 11.906,12.721 C 11.994,12.765 12.074,12.823 12.142,12.893 12.441,13.481 12.591,14.133 12.579,14.792 12.543,15.053 12.490,15.312 12.419,15.565 12.383,15.693 12.336,15.818 12.277,15.937 12.166,16.145 12.030,16.339 11.870,16.512 11.436,16.960 10.880,17.160 10.548,17.025 10.417,16.950 10.329,16.818 10.310,16.669 10.314,16.446 10.368,16.227 10.469,16.028 10.479,16.013 10.490,15.998 10.500,15.983 10.575,15.870 10.667,15.702 10.667,15.702 10.657,15.711 10.647,15.720 10.637,15.728 10.639,15.724 10.641,15.720 10.644,15.716 10.615,15.743 10.587,15.769 10.559,15.796 10.483,15.861 10.375,15.959 10.264,16.067 9.851,16.450 9.531,16.921 9.327,17.445 9.153,17.840 9.056,18.264 9.042,18.696 8.950,20.714 10.679,22.358 12.704,22.358 12.730,22.358 12.730,22.358 12.730,22.358 13.089,22.358 13.445,22.304 13.788,22.197 15.308,21.737 16.454,20.341 16.465,18.693 16.465,17.029 15.772,16.262 15.582,15.944 15.392,15.625 14.729,15.218 14.729,15.218 14.963,15.556 15.146,15.926 15.271,16.317 15.711,17.559 15.203,18.722 14.428,18.857 13.833,18.962 13.005,18.498 13.774,17.152 14.109,16.565 14.215,16.284 14.233,15.411 14.244,14.852 13.777,14.014 13.337,13.579 13.302,13.527 13.266,13.474 13.228,13.421 12.841,13.098 12.391,12.860 11.906,12.721 Z M 5.833,17.424 C 5.115,19.206 5.115,19.206 5.115,19.206 4.064,19.732 4.064,19.732 4.064,19.732 2.901,19.887 2.901,19.887 2.901,19.887 2.282,19.664 2.282,19.664 2.282,19.664 2.208,19.813 2.208,19.813 2.208,19.813 2.826,20.085 2.826,20.085 2.826,20.085 4.497,19.980 4.497,19.980 4.497,19.980 6.056,19.503 6.056,19.503 6.056,19.503 6.724,18.019 6.724,18.019 6.724,18.019 Z M 19.715,17.424 C 18.824,18.019 18.824,18.019 18.824,18.019 19.492,19.503 19.492,19.503 19.492,19.503 21.051,19.980 21.051,19.980 21.051,19.980 22.722,20.085 22.722,20.085 22.722,20.085 23.340,19.813 23.340,19.813 23.340,19.813 23.266,19.664 23.266,19.664 23.266,19.664 22.647,19.887 22.647,19.887 22.647,19.887 21.484,19.732 21.484,19.732 21.484,19.732 20.432,19.206 20.432,19.206 20.432,19.206 Z M 10.982,23.033 C 10.982,23.478 10.982,23.478 10.982,23.478 10.584,23.722 10.461,24.054 10.203,24.443 10.174,24.495 10.134,24.641 10.289,24.555 10.675,24.179 11.033,23.754 11.614,23.813 11.614,23.132 11.614,23.132 11.614,23.132 Z M 14.566,23.033 C 13.934,23.132 13.934,23.132 13.934,23.132 13.934,23.813 13.934,23.813 13.934,23.813 14.515,23.754 14.873,24.179 15.259,24.555 15.414,24.641 15.374,24.495 15.345,24.443 15.087,24.054 14.964,23.722 14.566,23.478 Z M 12.446,23.141 C 12.446,23.772 12.446,23.772 12.446,23.772 12.774,24.091 12.774,24.091 12.774,24.091 13.102,23.772 13.102,23.772 13.102,23.772 13.102,23.141 13.102,23.141 13.102,23.141 Z " />
</svg>