<?xml version="1.0" encoding="UTF-8" standalone="no"?>
<!DOCTYPE svg PUBLIC "-//W3C//DTD SVG 20010904//EN" "http://www.w3.org/TR/2001/REC-SVG-20010904/DTD/svg10.dtd"[]>
<svg version="1.1" id="Frosty Editor v1.0.6.3" xmlns="http://www.w3.org/2000/svg" d1p1:xlink="http://www.w3.org/1999/xlink" viewBox="0 0 96 96" xmlns:d1p1="xmlns">
  <path stroke="none" fill="#fffefefe" d="M 43.500,44.700 C 44.000,44.600 44.500,44.600 45.000,44.400 45.700,44.100 46.300,43.600 46.800,43.000 47.400,42.300 47.600,41.500 47.600,40.700 47.600,40.100 47.400,39.400 47.100,38.800 47.000,38.700 47.000,38.600 47.200,38.500 47.700,38.200 48.100,37.800 48.500,37.300 49.000,36.600 49.100,35.900 49.100,35.100 49.100,34.300 48.900,33.600 48.700,32.900 48.500,32.100 48.000,31.500 47.500,30.900 47.400,30.800 47.400,30.800 47.500,30.600 48.700,29.500 49.900,28.500 51.300,27.700 53.600,26.400 56.000,25.600 58.600,25.200 59.500,25.000 60.500,24.900 61.400,25.000 62.500,25.100 63.500,25.400 64.300,26.100 65.300,26.900 66.100,27.700 66.800,28.700 67.400,29.600 67.500,30.600 67.400,31.600 67.200,32.600 67.000,33.700 66.800,34.700 66.500,36.200 66.600,37.800 67.000,39.300 67.300,40.500 67.700,41.700 67.900,42.900 68.000,43.200 68.000,43.500 68.000,43.800 68.000,45.900 67.900,48.100 67.900,50.200 67.900,52.500 67.100,54.600 65.700,56.400 64.700,57.700 63.500,58.700 62.200,59.800 60.400,61.300 58.300,62.600 56.300,63.900 55.600,64.300 54.900,64.800 54.200,65.200 52.900,66.100 51.500,66.600 49.900,66.900 48.400,67.200 47.000,67.500 45.700,68.300 44.700,68.900 43.900,69.600 43.100,70.400 42.200,71.300 41.300,72.200 40.300,73.000 39.400,73.700 38.400,74.200 37.300,74.400 36.000,74.600 34.900,74.400 33.700,73.800 32.200,73.100 31.000,72.200 29.800,71.200 27.700,69.400 25.600,67.500 23.600,65.500 22.700,64.600 21.900,63.700 21.300,62.700 20.800,61.900 20.500,61.100 20.400,60.100 20.300,59.200 20.600,58.400 20.900,57.600 21.300,56.400 22.000,55.300 22.700,54.200 22.800,54.100 22.800,54.100 23.000,54.100 24.800,54.600 26.700,54.700 28.600,54.900 29.400,55.000 30.100,55.300 30.900,55.500 32.500,56.100 34.100,56.500 35.800,56.700 37.500,57.000 38.900,56.300 39.900,55.000 40.500,54.300 40.700,53.500 40.800,52.700 40.900,52.200 40.700,51.700 40.500,51.200 40.400,51.000 40.500,50.900 40.700,50.900 42.300,50.800 43.500,49.900 44.300,48.500 44.600,47.900 44.800,47.200 44.600,46.500 44.200,45.800 44.000,45.200 43.500,44.700 Z " />
  <path stroke="none" fill="#fffdfdfd" d="M 55.000,75.600 C 54.300,75.600 53.800,75.300 53.300,74.900 53.100,74.800 53.000,74.600 52.800,74.400 52.000,73.400 51.200,72.300 50.500,71.300 50.300,71.000 50.100,70.600 50.200,70.200 50.200,70.000 50.300,69.900 50.500,69.900 51.300,69.700 52.100,69.600 52.800,69.300 53.800,69.000 54.800,68.400 55.700,67.800 57.500,66.600 59.300,65.500 61.100,64.300 62.900,63.000 64.700,61.700 66.300,60.100 67.400,59.100 68.200,57.900 69.000,56.600 69.100,56.400 69.200,56.400 69.300,56.500 70.100,57.000 70.700,57.700 71.100,58.600 71.500,59.500 71.800,60.400 72.200,61.300 72.500,62.000 72.800,62.700 73.000,63.400 73.200,64.100 73.100,64.800 72.700,65.300 71.400,67.200 70.200,69.100 68.300,70.300 66.500,71.500 64.700,72.600 62.700,73.600 61.700,74.100 60.600,74.200 59.600,74.500 58.200,74.800 56.800,75.100 55.400,75.400 55.300,75.600 55.200,75.600 55.000,75.600 Z " />
  <path stroke="none" fill="#fffdfdfd" d="M 43.600,42.600 C 42.400,42.500 41.600,42.300 40.700,42.000 38.900,41.500 37.200,40.700 35.500,40.000 32.900,38.900 30.200,37.800 27.500,36.700 26.700,36.400 26.100,35.900 25.600,35.200 25.000,34.400 25.000,33.300 25.600,32.500 26.400,31.300 27.500,30.900 28.900,31.100 30.300,31.400 31.700,31.800 33.000,32.500 36.400,34.400 39.900,36.200 43.400,38.000 44.100,38.400 44.800,38.900 45.300,39.500 45.900,40.300 45.900,41.100 45.200,41.800 44.600,42.400 44.100,42.700 43.600,42.600 Z " />
  <path stroke="none" fill="#fffdfdfd" d="M 40.200,48.900 C 39.200,48.900 38.300,48.600 37.500,48.300 33.400,47.200 29.300,45.900 25.300,44.700 24.100,44.300 23.300,43.700 22.800,42.500 21.800,40.200 23.900,38.400 25.700,38.700 26.800,38.800 27.800,39.200 28.900,39.600 30.800,40.300 32.700,40.800 34.500,41.700 36.500,42.600 38.600,43.600 40.600,44.600 41.300,45.000 41.900,45.500 42.300,46.100 42.700,46.700 42.700,47.300 42.200,47.900 41.500,48.600 41.000,49.000 40.200,48.900 Z " />
  <path stroke="none" fill="#fffdfdfd" d="M 42.800,31.300 C 41.400,31.300 40.300,30.100 39.900,29.100 39.500,28.000 39.600,27.000 40.000,25.900 40.700,24.000 42.000,22.600 43.500,21.400 44.200,20.900 44.800,20.300 45.600,20.000 47.000,19.500 48.400,19.400 49.800,20.000 50.900,20.500 51.900,21.000 53.000,21.500 53.500,21.800 53.900,22.200 54.200,22.600 54.400,23.000 54.400,23.300 54.200,23.600 53.800,24.100 53.400,24.500 52.700,24.700 52.100,24.900 51.500,25.000 50.800,25.200 50.200,25.300 49.600,25.700 49.100,26.100 47.900,27.100 46.900,28.200 45.900,29.300 45.400,29.800 44.900,30.300 44.300,30.700 43.800,31.200 43.300,31.300 42.800,31.300 Z " />
  <path stroke="none" fill="#fffdfdfd" d="M 36.100,54.700 C 35.300,54.600 34.400,54.400 33.500,54.200 32.800,54.000 32.100,53.800 31.400,53.500 30.100,53.000 28.800,52.800 27.400,52.700 26.200,52.600 25.000,52.500 23.800,52.200 23.100,52.100 22.500,51.700 22.000,51.100 21.600,50.700 21.500,50.200 21.700,49.600 22.100,48.400 22.900,47.600 24.200,47.400 24.700,47.300 25.300,47.400 25.800,47.400 27.500,47.600 29.300,47.800 31.000,48.000 31.700,48.100 32.300,48.200 32.900,48.500 34.000,49.000 35.200,49.400 36.300,49.900 37.000,50.200 37.500,50.600 38.000,51.200 38.600,51.900 38.800,52.600 38.400,53.400 37.900,54.200 37.200,54.800 36.100,54.700 Z " />
  <path stroke="none" fill="#fffdfdfd" d="M 42.800,32.900 C 43.700,32.800 44.600,32.600 45.300,32.000 45.500,31.900 45.600,31.900 45.700,32.000 46.400,32.800 46.800,33.700 46.900,34.700 46.900,34.900 46.900,35.100 46.900,35.300 46.900,36.300 45.800,37.100 44.800,36.700 43.800,36.300 42.800,35.800 41.700,35.300 39.100,34.100 36.500,32.800 33.900,31.600 33.400,31.400 32.900,31.000 32.500,30.600 31.800,30.000 31.100,29.300 30.500,28.600 29.800,27.700 29.800,26.800 30.500,25.800 31.000,25.000 31.700,24.400 32.600,24.200 33.300,24.000 34.000,24.100 34.700,24.400 35.500,24.700 36.100,25.100 36.800,25.700 37.100,26.000 37.500,26.200 37.900,26.500 38.000,26.600 38.000,26.700 38.000,26.800 37.700,28.800 38.300,30.500 39.900,31.900 40.800,32.600 41.800,32.800 42.800,32.900 Z " />
</svg>