<?xml version="1.0" encoding="UTF-8" standalone="no"?>
<!DOCTYPE svg PUBLIC "-//W3C//DTD SVG 20010904//EN" "http://www.w3.org/TR/2001/REC-SVG-20010904/DTD/svg10.dtd"[]>
<svg version="1.1" id="Frosty Editor v1.0.6.3" xmlns="http://www.w3.org/2000/svg" d1p1:xlink="http://www.w3.org/1999/xlink" viewBox="0 0 101 25" xmlns:d1p1="xmlns">
  <path stroke="none" fill="#ffffffff" d="M 38.699,1.961 C 38.157,2.675 37.615,3.391 37.073,4.106 37.073,6.793 37.073,6.793 37.073,6.793 37.073,7.594 37.167,8.207 37.285,8.655 36.837,8.655 36.837,8.655 36.837,8.655 36.837,9.338 36.837,9.338 36.837,9.338 35.399,9.338 35.399,9.338 35.399,9.338 35.329,9.338 35.258,9.362 35.211,9.409 34.810,9.810 34.810,9.810 34.810,9.810 34.409,9.409 34.409,9.409 34.409,9.409 34.362,9.362 34.292,9.338 34.221,9.338 32.759,9.338 32.759,9.338 32.759,9.338 32.689,9.338 32.618,9.362 32.571,9.409 32.170,9.810 32.170,9.810 32.170,9.810 31.770,9.409 31.770,9.409 31.770,9.409 31.722,9.362 31.652,9.338 31.581,9.338 30.025,9.338 30.025,9.338 30.025,9.338 29.955,9.338 29.884,9.362 29.837,9.409 29.436,9.810 29.436,9.810 29.436,9.810 29.035,9.409 29.035,9.409 29.035,9.409 28.988,9.362 28.917,9.338 28.847,9.338 27.409,9.338 27.409,9.338 27.409,9.338 27.338,9.338 27.267,9.362 27.220,9.409 26.820,9.810 26.820,9.810 26.820,9.810 26.419,9.409 26.419,9.409 26.419,9.409 26.372,9.362 26.301,9.338 26.230,9.338 24.675,9.338 24.675,9.338 24.675,9.338 24.675,8.560 24.675,8.560 24.675,8.560 20.385,8.560 20.385,8.560 20.385,8.560 20.385,8.843 20.385,8.843 20.385,8.843 18.617,8.843 18.617,8.843 18.617,8.843 18.428,9.338 18.240,9.833 18.051,10.328 18.499,10.430 18.947,10.533 19.395,10.635 18.861,10.823 18.326,11.012 17.792,11.200 17.792,14.217 17.792,14.217 17.792,14.217 18.405,14.430 19.018,14.642 19.631,14.854 19.631,15.797 19.631,15.797 19.631,15.797 16.024,15.797 16.024,15.797 16.024,15.797 15.851,15.969 15.678,16.142 15.506,16.315 13.361,16.315 13.361,16.315 13.361,16.315 12.842,16.315 12.489,16.197 12.371,16.009 12.206,15.749 12.394,15.231 12.465,15.066 12.465,15.066 13.573,12.850 14.304,11.389 14.516,10.988 14.799,10.752 15.199,10.705 14.775,11.774 14.351,12.843 13.926,13.911 14.469,14.092 15.011,14.272 15.553,14.453 16.323,12.552 17.093,10.650 17.863,8.749 15.097,7.476 12.331,6.203 9.566,4.931 9.291,5.504 9.016,6.078 8.741,6.651 8.819,6.745 8.898,6.840 8.977,6.934 9.259,7.311 9.212,7.783 9.189,7.924 8.599,9.338 7.067,12.945 6.832,13.392 6.808,13.440 6.667,13.510 6.337,13.510 6.172,13.510 6.172,13.510 6.172,13.510 6.054,13.494 5.936,13.479 5.818,13.463 5.575,13.817 5.331,14.170 5.087,14.524 5.087,14.524 5.842,15.962 7.138,18.625 8.175,20.723 9.967,21.784 12.441,21.784 15.152,21.784 15.152,21.784 15.152,21.784 15.286,21.870 15.419,21.956 15.553,22.043 15.553,22.208 15.553,22.208 15.553,22.208 15.553,22.797 15.954,23.669 16.991,23.669 39.383,23.669 39.383,23.669 39.383,23.669 39.666,23.386 39.949,23.104 40.231,22.821 41.811,22.821 41.811,22.821 41.811,22.821 41.811,22.283 41.811,22.283 41.811,22.283 57.176,22.283 57.176,22.283 57.176,22.283 57.176,23.358 57.176,23.358 57.176,23.358 58.850,23.358 58.850,23.358 58.850,23.358 58.850,22.283 58.850,22.283 58.850,22.283 59.870,22.283 59.870,22.283 59.870,22.283 59.870,23.358 59.870,23.358 59.870,23.358 61.545,23.358 61.545,23.358 61.545,23.358 61.545,21.666 61.545,21.666 61.545,21.666 84.147,21.666 84.147,21.666 84.147,21.666 84.147,22.158 84.147,22.158 84.147,22.158 85.821,22.158 85.821,22.158 85.821,22.158 85.821,21.666 85.821,21.666 85.821,21.666 92.745,21.666 92.745,21.666 92.745,21.666 92.745,22.158 92.745,22.158 92.745,22.158 94.782,22.158 94.782,22.158 94.782,22.158 95.472,22.158 95.472,22.158 95.472,22.158 95.472,21.666 95.472,21.666 95.472,21.666 95.982,21.666 95.982,21.666 95.982,21.666 95.982,21.400 95.982,21.400 95.982,21.400 96.905,21.400 96.905,21.400 96.905,21.400 96.905,19.787 96.905,19.787 96.905,19.787 95.982,19.787 95.982,19.787 95.982,19.787 95.982,19.572 95.982,19.572 95.982,19.572 95.472,19.572 95.472,19.572 95.472,19.572 95.472,19.533 95.472,19.533 95.472,19.533 95.982,19.533 95.982,19.533 95.982,19.533 95.982,19.291 95.982,19.291 95.982,19.291 96.905,19.291 96.905,19.291 96.905,19.291 96.905,17.679 96.905,17.679 96.905,17.679 95.982,17.679 95.982,17.679 95.982,17.679 95.982,17.438 95.982,17.438 95.982,17.438 95.472,17.438 95.472,17.438 95.472,17.438 95.472,15.124 95.472,15.124 95.472,15.124 95.982,15.124 95.982,15.124 95.982,15.124 95.982,14.857 95.982,14.857 95.982,14.857 96.905,14.857 96.905,14.857 96.905,14.857 96.905,13.245 96.905,13.245 96.905,13.245 95.982,13.245 95.982,13.245 95.982,13.245 95.982,13.029 95.982,13.029 95.982,13.029 95.472,13.029 95.472,13.029 95.472,13.029 95.472,12.990 95.472,12.990 95.472,12.990 95.982,12.990 95.982,12.990 95.982,12.990 95.982,12.749 95.982,12.749 95.982,12.749 96.905,12.749 96.905,12.749 96.905,12.749 96.905,11.137 96.905,11.137 96.905,11.137 95.982,11.137 95.982,11.137 95.982,11.137 95.982,10.896 95.982,10.896 95.982,10.896 95.472,10.896 95.472,10.896 95.472,10.896 95.472,10.566 95.472,10.566 95.472,10.566 93.639,10.566 93.639,10.566 93.639,10.566 85.821,10.566 85.821,10.566 85.821,10.566 85.821,10.502 85.821,10.502 85.821,10.502 93.639,10.502 93.639,10.502 93.639,10.502 93.639,8.593 93.639,8.593 93.639,8.593 93.027,7.788 92.415,6.983 91.803,6.178 89.837,6.178 89.837,6.178 89.837,6.178 89.837,8.447 89.837,8.447 89.837,8.447 61.759,8.447 61.759,8.447 61.759,8.447 61.299,7.725 60.839,7.004 60.380,6.283 56.975,6.283 56.975,6.283 56.975,6.283 56.530,7.004 56.085,7.725 55.641,8.447 53.652,8.447 53.652,8.447 53.652,8.447 53.501,8.363 53.378,8.237 53.276,8.100 53.147,7.927 53.054,7.728 52.988,7.522 52.972,7.474 52.959,7.333 52.942,7.285 52.930,7.265 52.903,7.266 52.883,7.267 52.299,7.267 51.715,7.267 51.131,7.267 51.131,9.093 51.131,9.093 51.131,9.093 50.049,10.334 50.049,10.334 50.049,10.334 41.811,10.334 41.811,10.334 41.811,10.334 41.811,10.210 41.811,10.210 41.811,10.210 41.811,9.975 41.811,9.975 41.811,9.975 41.811,9.527 41.811,9.527 41.811,9.527 41.811,8.655 41.811,8.655 41.811,8.655 41.292,8.655 41.292,8.655 41.292,8.655 41.292,6.887 41.292,6.887 41.292,6.887 41.049,6.635 40.805,6.384 40.561,6.133 40.561,5.968 40.561,5.968 40.561,5.968 41.418,5.520 42.274,5.072 43.131,4.624 43.131,3.139 43.131,3.139 43.131,3.139 43.131,2.432 42.565,2.008 41.999,1.961 41.976,1.961 41.976,1.961 41.976,1.961 41.952,1.961 41.952,1.961 41.952,1.961 Z M 38.982,2.550 C 41.952,2.550 41.952,2.550 41.952,2.550 41.952,2.550 42.541,2.597 42.541,3.139 42.541,4.271 42.541,4.271 42.541,4.271 41.685,4.718 40.828,5.166 39.972,5.614 39.972,6.368 39.972,6.368 39.972,6.368 40.216,6.620 40.459,6.871 40.703,7.123 40.703,20.204 40.703,20.204 40.703,20.204 40.703,21.171 39.666,21.972 38.699,21.972 37.733,21.972 36.931,21.171 36.931,20.204 36.931,19.780 37.096,19.214 37.379,18.884 37.859,18.272 38.338,17.659 38.817,17.046 38.817,9.692 38.817,9.692 38.817,9.692 37.379,9.692 37.379,9.692 37.379,9.692 37.379,9.550 37.379,9.550 37.379,9.550 37.403,9.550 37.403,9.550 37.403,9.550 37.403,9.244 37.403,9.244 37.403,9.244 38.134,9.244 38.134,9.244 38.134,9.244 38.134,9.244 37.639,8.513 37.639,6.793 37.639,4.294 37.639,4.294 37.639,4.294 38.086,3.713 38.534,3.131 38.982,2.550 Z M 39.359,3.139 C 39.053,3.139 38.817,3.375 38.817,3.681 38.817,3.988 39.053,4.223 39.359,4.223 39.666,4.223 39.901,3.988 39.901,3.681 39.901,3.375 39.666,3.139 39.359,3.139 Z M 9.872,5.708 C 12.284,6.824 14.697,7.940 17.108,9.055 16.480,10.611 15.851,12.167 15.223,13.722 15.050,13.667 14.877,13.612 14.704,13.557 15.144,12.442 15.584,11.326 16.024,10.210 16.024,10.210 15.741,10.116 15.364,10.116 14.869,10.116 14.186,10.305 13.761,11.130 13.031,12.591 11.923,14.807 11.923,14.807 11.923,14.807 10.862,16.904 13.361,16.904 15.600,16.904 15.600,16.904 15.600,16.904 15.600,17.729 15.600,17.729 15.600,17.729 12.441,17.729 12.441,17.729 12.441,17.729 11.852,17.729 11.287,17.447 10.768,16.881 10.202,16.292 10.391,15.467 10.650,14.854 10.862,14.335 12.559,10.635 13.620,8.254 13.636,8.215 13.651,8.176 13.667,8.136 12.882,7.775 12.096,7.413 11.310,7.052 11.294,7.091 11.279,7.130 11.263,7.170 11.239,7.217 8.576,13.086 8.269,13.840 7.492,15.679 7.727,17.447 8.906,18.672 9.943,19.733 11.169,20.299 12.465,20.299 15.624,20.299 15.624,20.299 15.624,20.299 15.624,21.147 15.624,21.147 15.624,21.147 12.465,21.147 12.465,21.147 12.465,21.147 10.485,21.147 8.764,20.440 7.704,18.319 6.384,15.608 5.818,14.524 5.818,14.524 5.928,14.367 6.038,14.210 6.148,14.052 6.148,14.052 6.242,14.076 6.384,14.076 6.690,14.076 7.209,14.005 7.397,13.628 7.633,13.110 9.754,8.113 9.754,8.113 9.754,8.113 9.967,7.264 9.448,6.580 9.589,6.290 9.731,5.999 9.872,5.708 Z M 90.527,6.868 C 91.460,6.868 91.460,6.868 91.460,6.868 91.956,7.521 92.452,8.174 92.949,8.827 92.949,10.252 92.949,10.252 92.949,10.252 85.821,10.252 85.821,10.252 85.821,10.252 85.821,10.043 85.821,10.043 85.821,10.043 84.147,10.043 84.147,10.043 84.147,10.043 84.147,10.252 84.147,10.252 84.147,10.252 61.545,10.252 61.545,10.252 61.545,10.252 61.545,9.644 61.545,9.644 61.545,9.644 59.870,9.644 59.870,9.644 59.870,9.644 59.870,10.252 59.870,10.252 59.870,10.252 58.850,10.252 58.850,10.252 58.850,10.252 58.850,9.644 58.850,9.644 58.850,9.644 57.176,9.644 57.176,9.644 57.176,9.644 57.176,10.252 57.176,10.252 57.176,10.252 50.822,10.252 50.822,10.252 50.822,10.252 51.732,9.137 51.732,9.137 51.732,9.137 51.732,7.817 51.732,7.817 51.732,7.817 52.496,7.817 52.496,7.817 52.496,7.817 52.677,8.486 53.127,8.837 53.648,9.137 51.732,9.137 51.732,9.137 51.732,9.137 55.989,9.137 55.989,9.137 55.989,9.137 57.361,6.973 57.361,6.973 57.361,6.973 60.002,6.973 60.002,6.973 60.002,6.973 61.384,9.137 61.384,9.137 61.384,9.137 70.893,9.137 80.402,9.137 89.911,9.137 89.997,9.137 90.084,9.132 90.164,9.101 90.321,9.044 90.445,8.910 90.498,8.753 90.524,8.678 90.532,8.596 90.527,8.517 Z M 11.428,7.405 C 12.072,7.696 12.717,7.987 13.361,8.278 12.418,10.352 10.674,14.217 10.438,14.783 10.155,15.443 9.967,16.386 10.603,17.069 11.192,17.682 11.805,17.989 12.465,17.989 15.624,17.989 15.624,17.989 15.624,17.989 15.624,20.087 15.624,20.087 15.624,20.087 15.600,20.087 15.600,20.087 15.600,20.087 12.441,20.087 12.441,20.087 12.441,20.087 11.216,20.087 10.037,19.544 9.071,18.531 7.963,17.376 7.751,15.702 8.482,13.958 8.764,13.298 11.074,8.207 11.428,7.405 Z M 21.186,9.150 C 24.133,9.150 24.133,9.150 24.133,9.150 24.133,20.817 24.133,20.817 24.133,20.817 24.368,20.817 24.368,20.817 24.368,20.817 24.368,14.571 24.368,14.571 24.368,14.571 37.403,14.571 37.403,14.571 37.403,14.571 37.403,9.928 37.403,9.928 37.403,9.928 38.605,9.928 38.605,9.928 38.605,9.928 38.605,16.999 38.605,16.999 38.605,16.999 38.141,17.588 37.678,18.177 37.214,18.767 37.073,18.932 36.955,19.144 36.861,19.379 27.904,19.379 27.904,19.379 27.904,19.379 27.613,19.898 27.322,20.417 27.032,20.935 21.186,20.935 21.186,20.935 21.186,20.935 Z M 40.962,9.268 C 41.575,9.268 41.575,9.268 41.575,9.268 41.575,9.550 41.575,9.550 41.575,9.550 41.575,9.975 41.575,9.975 41.575,9.975 40.962,9.975 40.962,9.975 40.962,9.975 Z M 19.065,9.433 C 20.951,9.433 20.951,9.433 20.951,9.433 20.951,20.911 20.951,20.911 20.951,20.911 17.321,20.911 17.321,20.911 17.321,20.911 16.661,20.911 16.284,21.076 15.930,21.571 15.891,21.548 15.851,21.524 15.812,21.501 15.812,16.810 15.812,16.810 15.812,16.810 15.961,16.661 16.111,16.512 16.260,16.362 20.220,16.362 20.220,16.362 20.220,16.362 20.220,14.430 20.220,14.430 20.220,14.430 19.607,14.217 18.994,14.005 18.381,13.793 18.381,11.601 18.381,11.601 18.381,11.601 18.994,11.381 19.607,11.161 20.220,10.941 20.220,10.210 20.220,10.210 20.220,10.210 19.772,10.108 19.324,10.006 18.876,9.904 18.939,9.747 19.002,9.590 19.065,9.433 Z M 24.368,9.928 C 26.395,9.928 26.395,9.928 26.395,9.928 26.537,9.928 26.655,10.045 26.655,10.187 26.655,14.359 26.655,14.359 26.655,14.359 24.368,14.359 24.368,14.359 24.368,14.359 Z M 27.385,9.928 C 28.988,9.928 28.988,9.928 28.988,9.928 29.130,9.928 29.247,10.045 29.247,10.187 29.247,14.359 29.247,14.359 29.247,14.359 27.150,14.359 27.150,14.359 27.150,14.359 27.150,10.187 27.150,10.187 27.150,10.187 27.126,10.187 27.126,10.187 27.126,10.187 27.126,10.045 27.244,9.928 27.385,9.928 Z M 29.955,9.928 C 31.699,9.928 31.699,9.928 31.699,9.928 31.840,9.928 31.958,10.045 31.958,10.187 31.958,14.359 31.958,14.359 31.958,14.359 29.719,14.359 29.719,14.359 29.719,14.359 29.719,10.187 29.719,10.187 29.719,10.187 29.695,10.187 29.695,10.187 29.695,10.187 29.695,10.045 29.813,9.928 29.955,9.928 Z M 32.665,9.928 C 34.339,9.928 34.339,9.928 34.339,9.928 34.480,9.928 34.598,10.045 34.598,10.187 34.598,14.359 34.598,14.359 34.598,14.359 32.429,14.359 32.429,14.359 32.429,14.359 32.429,10.187 32.429,10.187 32.429,10.187 32.406,10.187 32.406,10.187 32.406,10.187 32.406,10.045 32.524,9.928 32.665,9.928 Z M 35.305,9.928 C 37.167,9.928 37.167,9.928 37.167,9.928 37.167,14.359 37.167,14.359 37.167,14.359 35.046,14.359 35.046,14.359 35.046,14.359 35.046,10.187 35.046,10.187 35.046,10.187 35.046,10.045 35.164,9.928 35.305,9.928 Z M 40.962,10.210 C 41.575,10.210 41.575,10.210 41.575,10.210 41.575,10.334 41.575,10.334 41.575,10.334 41.575,22.231 41.575,22.231 41.575,22.231 39.972,22.231 39.972,22.231 39.972,22.231 39.689,22.514 39.406,22.797 39.124,23.080 16.991,23.080 16.991,23.080 16.991,23.080 16.166,23.080 16.142,22.208 16.142,22.208 16.142,21.996 16.142,21.996 16.142,21.996 16.142,21.996 16.213,21.171 17.321,21.171 27.197,21.171 27.197,21.171 27.197,21.171 27.487,20.652 27.778,20.134 28.069,19.615 36.814,19.615 36.814,19.615 36.814,19.615 36.766,19.827 36.719,20.039 36.719,20.228 36.719,21.336 37.615,22.231 38.723,22.231 39.831,22.231 40.962,21.336 40.962,20.228 Z M 57.866,10.334 C 58.160,10.334 58.160,10.334 58.160,10.334 58.160,11.024 58.160,11.024 58.160,11.024 58.160,21.593 58.160,21.593 58.160,21.593 58.160,21.952 58.160,22.310 58.160,22.668 57.866,22.668 57.866,22.668 57.866,22.668 57.866,21.593 57.866,21.593 57.866,21.593 Z M 60.560,10.334 C 60.855,10.334 60.855,10.334 60.855,10.334 60.855,22.668 60.855,22.668 60.855,22.668 60.560,22.668 60.560,22.668 60.560,22.668 60.560,21.593 60.560,21.593 60.560,21.593 Z M 61.545,10.502 C 84.147,10.502 84.147,10.502 84.147,10.502 84.147,10.566 84.147,10.566 84.147,10.566 61.545,10.566 61.545,10.566 61.545,10.566 Z M 84.837,10.935 C 85.131,10.935 85.131,10.935 85.131,10.935 85.131,11.586 85.131,11.586 85.131,11.586 85.131,12.300 85.131,12.300 85.131,12.300 85.131,12.308 85.131,12.308 85.131,12.308 85.131,14.434 85.131,14.434 85.131,14.434 85.131,14.442 85.131,14.442 85.131,14.442 85.131,18.843 85.131,18.843 85.131,18.843 85.131,18.851 85.131,18.851 85.131,18.851 85.131,21.468 85.131,21.468 85.131,21.468 84.837,21.468 84.837,21.468 84.837,21.468 84.837,20.976 84.837,20.976 84.837,20.976 Z M 42.002,11.024 C 57.176,11.024 57.176,11.024 57.176,11.024 57.176,21.593 57.176,21.593 57.176,21.593 42.002,21.593 42.002,21.593 42.002,21.593 Z M 58.850,11.024 C 59.870,11.024 59.870,11.024 59.870,11.024 59.870,21.593 59.870,21.593 59.870,21.593 58.850,21.593 58.850,21.593 58.850,21.593 Z M 93.435,11.256 C 94.782,11.256 94.782,11.256 94.782,11.256 94.782,11.586 94.782,11.586 94.782,11.586 94.782,12.300 94.782,12.300 94.782,12.300 94.782,13.719 94.782,13.719 94.782,13.719 94.782,14.434 94.782,14.434 94.782,14.434 94.782,18.128 94.782,18.128 94.782,18.128 94.782,18.843 94.782,18.843 94.782,18.843 94.782,20.262 94.782,20.262 94.782,20.262 94.782,20.976 94.782,20.976 94.782,20.976 94.782,21.468 94.782,21.468 94.782,21.468 93.435,21.468 93.435,21.468 93.435,21.468 93.435,20.976 93.435,20.976 93.435,20.976 Z M 61.891,11.586 C 69.310,11.586 76.728,11.586 84.147,11.586 84.147,12.300 84.147,12.300 84.147,12.300 61.891,12.300 61.891,12.300 61.891,12.300 61.891,12.062 61.891,11.824 61.891,11.586 Z M 85.821,11.586 C 88.129,11.586 90.437,11.586 92.745,11.586 92.745,12.300 92.745,12.300 92.745,12.300 85.821,12.300 85.821,12.300 85.821,12.300 Z M 45.906,11.771 C 45.433,11.778 44.969,12.023 44.699,12.413 44.437,12.793 44.366,13.299 44.516,13.736 44.661,14.158 45.004,14.509 45.426,14.657 45.851,14.807 46.345,14.753 46.724,14.507 47.094,14.268 47.352,13.859 47.397,13.420 47.441,13.000 47.302,12.561 47.013,12.250 46.732,11.947 46.321,11.768 45.906,11.771 Z M 52.727,11.771 C 52.263,11.779 51.808,12.016 51.537,12.393 51.258,12.780 51.184,13.306 51.345,13.756 51.495,14.174 51.840,14.518 52.261,14.661 52.692,14.809 53.191,14.747 53.570,14.492 53.933,14.248 54.183,13.838 54.223,13.401 54.263,12.977 54.114,12.536 53.817,12.229 53.535,11.938 53.132,11.767 52.727,11.771 Z M 49.306,11.771 C 48.836,11.781 48.376,12.027 48.110,12.415 47.844,12.801 47.776,13.316 47.934,13.757 48.083,14.172 48.425,14.514 48.842,14.658 49.260,14.804 49.744,14.753 50.120,14.517 50.489,14.285 50.751,13.885 50.804,13.452 50.854,13.059 50.743,12.647 50.498,12.335 50.215,11.978 49.761,11.763 49.306,11.771 Z M 52.745,12.461 C 52.863,12.461 52.982,12.489 53.088,12.540 53.207,12.596 53.311,12.681 53.388,12.787 53.431,12.847 53.467,12.915 53.492,12.984 53.543,13.123 53.555,13.275 53.524,13.419 53.488,13.592 53.393,13.755 53.256,13.868 53.145,13.961 53.007,14.022 52.864,14.044 52.722,14.066 52.573,14.050 52.439,13.993 52.368,13.963 52.303,13.923 52.245,13.876 52.125,13.780 52.032,13.649 51.987,13.502 51.935,13.336 51.938,13.152 51.996,12.987 52.038,12.867 52.111,12.757 52.206,12.672 52.352,12.539 52.548,12.461 52.745,12.461 Z M 45.926,12.461 C 46.178,12.463 46.428,12.590 46.572,12.797 46.698,12.978 46.748,13.211 46.699,13.426 46.653,13.637 46.520,13.829 46.333,13.939 46.243,13.993 46.142,14.028 46.039,14.044 45.892,14.067 45.737,14.048 45.600,13.986 45.407,13.900 45.249,13.736 45.176,13.538 45.151,13.471 45.136,13.401 45.130,13.329 45.114,13.151 45.158,12.967 45.258,12.817 45.390,12.616 45.620,12.483 45.858,12.464 45.881,12.462 45.904,12.461 45.926,12.461 Z M 49.339,12.461 C 49.426,12.462 49.512,12.477 49.594,12.506 49.677,12.535 49.757,12.578 49.825,12.631 49.900,12.689 49.965,12.763 50.014,12.844 50.055,12.913 50.087,12.989 50.106,13.066 50.142,13.209 50.137,13.362 50.090,13.504 50.032,13.680 49.913,13.836 49.755,13.933 49.687,13.975 49.609,14.008 49.530,14.028 49.392,14.063 49.244,14.062 49.107,14.021 49.014,13.994 48.928,13.949 48.852,13.891 48.709,13.783 48.602,13.626 48.561,13.450 48.520,13.282 48.535,13.101 48.603,12.941 48.617,12.907 48.632,12.877 48.651,12.845 48.684,12.791 48.725,12.739 48.771,12.694 48.837,12.629 48.914,12.576 48.999,12.536 49.105,12.487 49.222,12.460 49.339,12.461 Z M 61.545,12.990 C 84.147,12.990 84.147,12.990 84.147,12.990 84.147,13.029 84.147,13.029 84.147,13.029 61.545,13.029 61.545,13.029 61.545,13.029 Z M 85.821,12.990 C 92.745,12.990 92.745,12.990 92.745,12.990 92.745,13.029 92.745,13.029 92.745,13.029 85.821,13.029 85.821,13.029 85.821,13.029 Z M 61.891,13.719 C 84.147,13.719 84.147,13.719 84.147,13.719 84.147,14.434 84.147,14.434 84.147,14.434 61.891,14.434 61.891,14.434 61.891,14.434 Z M 85.821,13.719 C 92.745,13.719 92.745,13.719 92.745,13.719 92.745,14.434 92.745,14.434 92.745,14.434 85.821,14.434 85.821,14.434 85.821,14.434 Z M 51.008,14.722 C 50.545,14.730 50.090,14.966 49.819,15.342 49.537,15.734 49.464,16.266 49.630,16.719 49.789,17.151 50.157,17.501 50.599,17.631 51.023,17.757 51.503,17.685 51.866,17.432 52.220,17.187 52.463,16.784 52.502,16.354 52.543,15.924 52.391,15.477 52.086,15.170 51.806,14.886 51.408,14.719 51.008,14.722 Z M 44.169,14.723 C 43.709,14.735 43.260,14.972 42.992,15.347 42.723,15.724 42.646,16.231 42.791,16.671 42.934,17.108 43.290,17.470 43.726,17.615 44.145,17.756 44.627,17.700 45.000,17.461 45.365,17.229 45.621,16.830 45.674,16.400 45.728,15.973 45.590,15.524 45.298,15.206 45.013,14.896 44.591,14.714 44.169,14.723 Z M 54.412,14.723 C 53.944,14.731 53.487,14.974 53.219,15.358 52.937,15.763 52.875,16.312 53.062,16.770 53.235,17.195 53.614,17.530 54.059,17.644 54.485,17.756 54.961,17.669 55.316,17.405 55.668,17.145 55.899,16.725 55.920,16.286 55.941,15.869 55.780,15.443 55.480,15.152 55.198,14.877 54.806,14.719 54.412,14.723 Z M 47.593,14.723 C 47.119,14.732 46.656,14.979 46.388,15.370 46.133,15.743 46.060,16.236 46.200,16.666 46.338,17.090 46.676,17.446 47.095,17.600 47.519,17.757 48.016,17.710 48.399,17.469 48.755,17.246 49.012,16.867 49.078,16.452 49.146,16.028 49.025,15.576 48.747,15.248 48.464,14.916 48.030,14.716 47.593,14.723 Z M 85.999,15.124 C 92.745,15.124 92.745,15.124 92.745,15.124 92.745,17.438 92.745,17.438 92.745,17.438 85.999,17.438 85.999,17.438 85.999,17.438 Z M 51.025,15.412 C 51.173,15.413 51.325,15.456 51.451,15.536 51.498,15.565 51.543,15.600 51.582,15.639 51.688,15.742 51.763,15.876 51.798,16.019 51.827,16.133 51.829,16.251 51.806,16.366 51.766,16.560 51.653,16.739 51.492,16.855 51.348,16.957 51.170,17.011 50.992,17.004 50.898,17.001 50.802,16.979 50.715,16.942 50.519,16.858 50.357,16.694 50.281,16.494 50.254,16.421 50.238,16.345 50.232,16.266 50.224,16.140 50.244,16.010 50.295,15.893 50.338,15.789 50.406,15.694 50.491,15.619 50.604,15.518 50.747,15.449 50.896,15.423 50.938,15.416 50.982,15.412 51.025,15.412 Z M 44.207,15.412 C 44.357,15.413 44.509,15.460 44.635,15.541 44.781,15.633 44.892,15.775 44.950,15.937 44.960,15.964 44.968,15.992 44.975,16.021 45.004,16.138 45.006,16.261 44.980,16.379 44.930,16.604 44.781,16.806 44.575,16.912 44.447,16.979 44.301,17.011 44.157,17.003 44.038,16.998 43.919,16.963 43.815,16.904 43.643,16.808 43.505,16.646 43.445,16.457 43.381,16.256 43.398,16.030 43.495,15.842 43.562,15.711 43.668,15.602 43.793,15.527 43.848,15.494 43.910,15.466 43.973,15.447 44.049,15.424 44.127,15.412 44.207,15.412 Z M 54.432,15.412 C 54.521,15.412 54.609,15.427 54.693,15.455 54.764,15.480 54.835,15.515 54.897,15.559 54.996,15.628 55.078,15.721 55.135,15.827 55.172,15.893 55.199,15.967 55.215,16.040 55.247,16.185 55.236,16.337 55.186,16.476 55.158,16.555 55.117,16.631 55.067,16.696 54.954,16.845 54.784,16.948 54.602,16.987 54.463,17.017 54.316,17.009 54.180,16.962 54.112,16.939 54.046,16.905 53.987,16.865 53.879,16.791 53.790,16.692 53.730,16.576 53.701,16.521 53.679,16.460 53.664,16.400 53.614,16.190 53.650,15.961 53.766,15.779 53.860,15.633 54.004,15.520 54.167,15.461 54.252,15.430 54.343,15.413 54.432,15.412 Z M 47.608,15.412 C 47.755,15.412 47.900,15.452 48.026,15.527 48.152,15.603 48.257,15.715 48.323,15.847 48.373,15.947 48.403,16.058 48.409,16.167 48.415,16.290 48.393,16.414 48.343,16.527 48.271,16.692 48.143,16.833 47.982,16.915 47.800,17.008 47.583,17.031 47.387,16.972 47.191,16.914 47.019,16.777 46.919,16.599 46.866,16.506 46.834,16.400 46.823,16.294 46.805,16.117 46.845,15.932 46.942,15.780 47.050,15.610 47.227,15.486 47.422,15.437 47.483,15.421 47.545,15.413 47.608,15.412 Z M 61.891,15.551 C 84.147,15.551 84.147,15.551 84.147,15.551 84.147,16.966 84.147,16.966 84.147,16.966 61.891,16.966 61.891,16.966 61.891,16.966 61.891,16.494 61.891,16.023 61.891,15.551 Z M 45.906,17.777 C 45.426,17.783 44.957,18.035 44.689,18.433 44.427,18.822 44.364,19.339 44.529,19.779 44.688,20.204 45.050,20.551 45.486,20.682 45.905,20.809 46.380,20.743 46.745,20.499 47.099,20.262 47.346,19.868 47.395,19.444 47.445,19.020 47.307,18.574 47.016,18.259 46.735,17.953 46.322,17.773 45.906,17.777 Z M 49.306,17.777 C 48.827,17.787 48.359,18.042 48.095,18.442 47.838,18.830 47.777,19.341 47.940,19.778 48.093,20.190 48.437,20.528 48.854,20.668 49.278,20.812 49.766,20.754 50.141,20.509 50.506,20.271 50.761,19.867 50.807,19.432 50.855,19.006 50.713,18.560 50.418,18.247 50.134,17.946 49.720,17.769 49.306,17.777 Z M 52.706,17.777 C 52.238,17.791 51.782,18.038 51.517,18.426 51.253,18.813 51.188,19.329 51.349,19.770 51.507,20.203 51.876,20.554 52.318,20.685 52.753,20.814 53.246,20.734 53.613,20.467 53.943,20.228 54.170,19.850 54.218,19.445 54.263,19.066 54.158,18.671 53.929,18.366 53.646,17.990 53.176,17.766 52.706,17.777 Z M 61.891,18.128 C 84.147,18.128 84.147,18.128 84.147,18.128 84.147,18.843 84.147,18.843 84.147,18.843 61.891,18.843 61.891,18.843 61.891,18.843 61.891,18.604 61.891,18.366 61.891,18.128 Z M 85.821,18.128 C 92.745,18.128 92.745,18.128 92.745,18.128 92.745,18.843 92.745,18.843 92.745,18.843 85.821,18.843 85.821,18.843 85.821,18.843 Z M 52.745,18.466 C 52.865,18.467 52.980,18.494 53.089,18.545 53.275,18.632 53.421,18.794 53.491,18.986 53.543,19.127 53.556,19.282 53.523,19.430 53.484,19.610 53.383,19.776 53.237,19.889 53.167,19.944 53.088,19.986 53.004,20.015 52.833,20.073 52.638,20.075 52.467,20.009 52.269,19.935 52.101,19.780 52.016,19.585 51.980,19.502 51.958,19.413 51.952,19.323 51.940,19.153 51.981,18.977 52.074,18.832 52.218,18.608 52.479,18.467 52.745,18.466 Z M 45.926,18.466 C 46.038,18.467 46.148,18.492 46.250,18.538 46.331,18.574 46.408,18.626 46.473,18.688 46.614,18.821 46.699,19.009 46.715,19.201 46.725,19.321 46.707,19.441 46.663,19.553 46.598,19.719 46.476,19.865 46.319,19.953 46.189,20.027 46.039,20.063 45.890,20.058 45.758,20.054 45.625,20.015 45.512,19.945 45.411,19.884 45.324,19.801 45.258,19.704 45.209,19.630 45.171,19.544 45.150,19.458 45.102,19.262 45.128,19.051 45.226,18.874 45.309,18.724 45.445,18.604 45.602,18.535 45.703,18.490 45.814,18.466 45.926,18.466 Z M 49.325,18.466 C 49.401,18.466 49.478,18.476 49.550,18.497 49.662,18.529 49.770,18.586 49.858,18.663 49.992,18.779 50.083,18.943 50.115,19.116 50.148,19.284 50.123,19.462 50.046,19.616 49.973,19.766 49.851,19.892 49.701,19.969 49.576,20.033 49.435,20.064 49.295,20.058 49.221,20.055 49.146,20.041 49.076,20.016 48.941,19.970 48.820,19.887 48.727,19.779 48.650,19.690 48.593,19.583 48.564,19.469 48.528,19.329 48.530,19.180 48.569,19.040 48.601,18.928 48.659,18.820 48.739,18.733 48.876,18.582 49.071,18.485 49.273,18.469 49.289,18.468 49.308,18.467 49.325,18.466 Z M 61.545,19.533 C 84.147,19.533 84.147,19.533 84.147,19.533 84.147,19.572 84.147,19.572 84.147,19.572 61.545,19.572 61.545,19.572 61.545,19.572 Z M 85.821,19.533 C 92.745,19.533 92.745,19.533 92.745,19.533 92.745,19.572 92.745,19.572 92.745,19.572 85.821,19.572 85.821,19.572 85.821,19.572 Z M 37.874,19.615 C 37.544,19.615 37.285,19.874 37.285,20.204 37.285,20.534 37.544,20.794 37.874,20.794 38.204,20.794 38.464,20.534 38.464,20.204 38.464,19.874 38.204,19.615 37.874,19.615 Z M 61.891,20.262 C 84.147,20.262 84.147,20.262 84.147,20.262 84.147,20.976 84.147,20.976 84.147,20.976 61.891,20.976 61.891,20.976 61.891,20.976 61.891,20.738 61.891,20.500 61.891,20.262 Z M 85.821,20.262 C 92.745,20.262 92.745,20.262 92.745,20.262 92.745,20.976 92.745,20.976 92.745,20.976 85.821,20.976 85.821,20.976 85.821,20.976 Z " />
</svg>