<?xml version="1.0" encoding="UTF-8" standalone="no"?>
<!DOCTYPE svg PUBLIC "-//W3C//DTD SVG 20010904//EN" "http://www.w3.org/TR/2001/REC-SVG-20010904/DTD/svg10.dtd"[]>
<svg version="1.1" id="Frosty Editor v1.0.6.3" xmlns="http://www.w3.org/2000/svg" d1p1:xlink="http://www.w3.org/1999/xlink" viewBox="0 0 512 128" xmlns:d1p1="xmlns">
  <path stroke="#ffffffff" fill="none" stroke-width="1.553" d="M 214.000,45.700 C 212.000,45.700 210.000,45.700 208.000,45.700 208.000,45.700 210.200,43.500 207.000,34.700 207.000,34.700 203.000,25.400 214.100,24.000 228.033,24.000 241.967,24.000 255.900,24.000 255.900,26.667 255.900,29.333 255.900,32.000 253.267,32.000 250.633,32.000 248.000,32.000 248.000,32.000 229.700,32.800 229.600,45.600 228.533,45.600 227.467,45.600 226.400,45.600 " />
  <path stroke="#ffffffff" fill="none" stroke-width="1.553" d="M 356.300,48.200 C 356.300,46.800 356.300,45.400 356.300,44.000 356.300,32.900 330.800,34.100 330.800,34.100 315.700,34.100 300.600,34.100 285.500,34.100 281.700,34.100 278.300,35.700 276.500,38.800 273.933,38.800 271.367,38.800 268.800,38.800 " />
  <path stroke="#ffffffff" fill="none" stroke-width="1.553" d="M 271.300,40.100 C 271.300,35.600 271.300,31.100 271.300,26.600 301.767,26.600 332.233,26.600 362.700,26.600 362.700,22.567 362.700,18.533 362.700,14.500 365.267,14.500 367.833,14.500 370.400,14.500 370.400,18.533 370.400,22.567 370.400,26.600 370.567,26.600 370.733,26.600 370.900,26.600 372.300,26.600 373.700,26.600 375.100,26.600 377.300,26.167 379.500,25.733 381.700,25.300 381.700,34.833 381.700,44.367 381.700,53.900 379.567,53.467 377.433,53.033 375.300,52.600 374.000,52.600 372.700,52.600 371.400,52.600 369.667,52.633 367.933,52.667 366.200,52.700 366.200,54.867 366.200,57.033 366.200,59.200 364.700,59.700 363.200,60.200 361.700,60.700 360.800,72.833 359.900,84.967 359.000,97.100 352.567,97.100 346.133,97.100 339.700,97.100 338.567,92.967 337.433,88.833 336.300,84.700 335.800,83.100 336.600,81.300 336.600,81.300 337.067,80.533 337.533,79.767 338.000,79.000 339.000,77.800 338.400,76.200 338.400,76.200 337.700,74.167 337.000,72.133 336.300,70.100 330.033,67.067 323.767,64.033 317.500,61.000 " />
  <path stroke="#ffffffff" fill="none" stroke-width="1.553" d="M 363.200,14.500 C 365.400,14.500 367.600,14.500 369.800,14.500 369.800,19.600 369.800,24.700 369.800,29.800 367.600,29.800 365.400,29.800 363.200,29.800 363.200,24.700 363.200,19.600 363.200,14.500 Z " />
  <path stroke="#ffffffff" fill="none" stroke-width="1.553" d="M 255.800,28.200 C 260.700,28.200 265.600,28.200 270.500,28.200 " />
  <path stroke="#ffffffff" fill="none" stroke-width="1.553" d="M 255.800,32.600 C 260.700,32.600 265.600,32.600 270.500,32.600 " />
  <path stroke="#ffffffff" fill="none" stroke-width="1.553" d="M 210.100,46.700 C 210.100,49.067 210.100,51.433 210.100,53.800 210.100,53.800 218.600,57.300 216.500,63.100 212.633,68.667 208.767,74.233 204.900,79.800 203.867,79.833 202.833,79.867 201.800,79.900 199.833,79.900 197.867,79.900 195.900,79.900 195.900,87.167 195.900,94.433 195.900,101.700 202.867,101.700 209.833,101.700 216.800,101.700 222.600,90.733 228.400,79.767 234.200,68.800 234.200,68.800 237.100,62.800 242.700,62.600 247.200,62.600 251.700,62.600 256.200,62.600 256.200,62.600 257.900,59.100 264.100,59.100 269.167,59.100 274.233,59.100 279.300,59.100 279.300,57.767 279.300,56.433 279.300,55.100 " />
  <path stroke="#ffffffff" fill="none" stroke-width="1.553" d="M 230.700,76.800 C 230.700,76.800 234.800,79.700 237.800,80.100 240.400,80.400 248.300,80.100 248.300,80.100 248.300,80.100 256.400,78.800 256.400,72.400 256.400,69.133 256.400,65.867 256.400,62.600 " />
  <path stroke="#ffffffff" fill="none" stroke-width="1.553" d="M 241.700,62.600 C 241.700,62.600 250.100,65.700 250.200,70.600 250.200,70.600 250.300,75.100 246.200,75.100 244.100,75.100 242.000,75.100 239.900,75.100 239.900,75.100 232.600,74.800 233.500,70.200 " />
  <path stroke="#ffffffff" fill="#ffffffff" stroke-width="1" d="M 236.900,65.700 C 236.900,65.700 236.600,70.000 241.700,69.800 242.500,69.800 242.000,71.300 240.700,71.500 240.700,71.500 236.400,72.100 235.000,68.400 235.633,67.500 236.267,66.600 236.900,65.700 236.900,65.700 236.900,65.700 236.900,65.700 Z " />
  <path stroke="#ffffffff" fill="none" stroke-width="1.553" d="M 235.200,36.500 C 237.067,36.500 238.933,36.500 240.800,36.500 242.500,36.500 243.900,37.800 243.900,39.300 243.900,39.300 243.900,39.300 243.900,39.300 243.900,40.800 242.500,42.100 240.800,42.100 237.367,42.100 233.933,42.100 230.500,42.100 " />
  <path stroke="#ffffffff" fill="none" stroke-width="1.553" d="M 229.400,45.600 C 242.133,45.600 254.867,45.600 267.600,45.600 " />
  <path stroke="#ffffffff" fill="none" stroke-width="1.553" d="M 355.900,47.500 C 342.300,47.500 328.700,47.500 315.100,47.500 315.100,48.367 315.100,49.233 315.100,50.100 309.133,50.100 303.167,50.100 297.200,50.100 294.833,51.900 292.467,53.700 290.100,55.500 287.433,55.500 284.767,55.500 282.100,55.500 276.200,55.500 274.200,52.900 273.500,51.100 271.667,51.100 269.833,51.100 268.000,51.100 268.000,47.000 268.000,42.900 268.000,38.800 269.033,38.800 270.067,38.800 271.100,38.800 " />
  <path stroke="#ffffffff" fill="none" stroke-width="1.553" d="M 256.200,32.300 C 256.200,36.533 256.200,40.767 256.200,45.000 " />
  <path stroke="#ffffffff" fill="none" stroke-width="1.553" d="M 228.700,56.900 C 228.700,57.100 228.800,57.300 228.800,57.500 228.800,57.500 229.900,62.700 236.400,64.700 " />
  <path stroke="#ffffffff" fill="none" stroke-width="1.553" d="M 228.700,53.000 C 229.500,49.700 232.000,47.900 232.000,47.900 232.000,47.900 233.400,46.400 236.900,46.300 " />
  <path stroke="#ffffffff" fill="none" stroke-width="1.553" d="M 236.400,52.100 C 238.100,52.100 239.500,53.500 239.500,55.200 239.500,56.900 238.100,58.300 236.400,58.300 " />
  <path stroke="#ffffffff" fill="none" stroke-width="1.553" d="M 225.000,56.500 C 224.300,56.500 223.700,55.900 223.700,55.200 223.700,54.500 224.200,54.000 224.800,53.900 " />
  <path stroke="#ffffffff" fill="none" stroke-width="1.553" d="M 224.900,53.800 C 228.667,53.233 232.433,52.667 236.200,52.100 " />
  <path stroke="#ffffffff" fill="none" stroke-width="1.553" d="M 225.000,56.500 C 228.733,57.067 232.467,57.633 236.200,58.200 " />
  <path stroke="#ffffffff" fill="#ffffffff" stroke-width="1" d="M 237.800,55.200 C 237.800,56.084 237.084,56.800 236.200,56.800 235.316,56.800 234.600,56.084 234.600,55.200 234.600,54.316 235.316,53.600 236.200,53.600 237.084,53.600 237.800,54.316 237.800,55.200 237.800,55.200 237.800,55.200 237.800,55.200 Z " />
  <path stroke="#ffffffff" fill="#ffffffff" stroke-width="1" d="M 198.100,28.500 C 198.100,29.163 197.563,29.700 196.900,29.700 196.237,29.700 195.700,29.163 195.700,28.500 195.700,27.837 196.237,27.300 196.900,27.300 197.563,27.300 198.100,27.837 198.100,28.500 198.100,28.500 198.100,28.500 198.100,28.500 Z " />
  <path stroke="#ffffffff" fill="#ffffffff" stroke-width="1" d="M 159.300,80.800 C 159.300,81.187 158.987,81.500 158.600,81.500 158.213,81.500 157.900,81.187 157.900,80.800 157.900,80.413 158.213,80.100 158.600,80.100 158.987,80.100 159.300,80.413 159.300,80.800 159.300,80.800 159.300,80.800 159.300,80.800 Z " />
  <path stroke="#ffffffff" fill="none" stroke-width="1.553" d="M 210.400,50.500 C 210.400,50.500 214.900,53.000 217.000,54.600 217.000,54.600 220.500,55.900 222.000,53.300 222.000,50.867 222.000,48.433 222.000,46.000 " />
  <path stroke="#ffffffff" fill="none" stroke-width="1.553" d="M 274.000,39.700 C 274.000,43.333 274.000,46.967 274.000,50.600 " />
  <path stroke="#ffffffff" fill="none" stroke-width="1.553" d="M 335.600,39.500 C 335.600,40.400 334.900,41.100 334.000,41.100 321.867,41.100 309.733,41.100 297.600,41.100 296.700,41.100 296.000,40.400 296.000,39.500 296.000,39.400 296.000,39.300 296.000,39.200 296.000,38.300 296.700,37.600 297.600,37.600 309.733,37.600 321.867,37.600 334.000,37.600 334.900,37.600 335.600,38.300 335.600,39.200 335.600,39.300 335.600,39.400 335.600,39.500 335.600,39.500 335.600,39.500 335.600,39.500 Z " />
  <path stroke="#ffffffff" fill="none" stroke-width="1.553" d="M 357.400,55.000 C 357.400,53.200 357.400,51.400 357.400,49.600 357.400,47.600 359.000,45.200 360.900,45.200 360.900,45.200 360.900,45.200 360.900,45.200 362.900,45.200 364.400,47.700 364.400,49.600 364.400,51.567 364.400,53.533 364.400,55.500 " />
  <path stroke="#ffffffff" fill="#ffffffff" stroke-width="1" d="M 216.600,34.900 C 219.067,34.900 221.533,34.900 224.000,34.900 224.000,36.633 224.000,38.367 224.000,40.100 221.533,40.100 219.067,40.100 216.600,40.100 216.600,38.367 216.600,36.633 216.600,34.900 Z " />
  <path stroke="#ffffffff" fill="none" stroke-width="1.553" d="M 226.400,45.200 C 226.400,46.000 225.700,46.600 224.800,46.600 221.667,46.600 218.533,46.600 215.400,46.600 214.500,46.600 213.800,46.000 213.800,45.200 213.800,43.167 213.800,41.133 213.800,39.100 213.800,38.300 214.500,37.700 215.400,37.700 218.533,37.700 221.667,37.700 224.800,37.700 225.700,37.700 226.400,38.300 226.400,39.100 226.400,41.133 226.400,43.167 226.400,45.200 226.400,45.200 226.400,45.200 226.400,45.200 Z " />
  <path stroke="#ffffffff" fill="none" stroke-width="1.553" d="M 163.900,82.200 C 174.400,82.200 184.900,82.200 195.400,82.200 " />
  <path stroke="#ffffffff" fill="none" stroke-width="1.553" d="M 148.200,85.200 C 151.500,83.200 154.800,81.200 158.100,79.200 158.900,78.800 159.900,79.000 160.400,79.800 160.400,79.800 160.400,79.800 160.400,79.800 160.800,80.600 160.600,81.600 159.800,82.100 156.367,83.867 152.933,85.633 149.500,87.400 149.067,86.667 148.633,85.933 148.200,85.200 148.200,85.200 148.200,85.200 148.200,85.200 Z " />
  <path stroke="#ffffffff" fill="none" stroke-width="1.553" d="M 196.400,101.700 C 192.367,101.700 188.333,101.700 184.300,101.700 184.133,102.733 183.967,103.767 183.800,104.800 177.700,106.000 171.600,107.200 165.500,108.400 164.167,109.433 162.833,110.467 161.500,111.500 151.800,112.133 142.100,112.767 132.400,113.400 130.000,113.100 130.800,110.600 130.700,108.400 131.300,103.100 131.600,99.100 131.600,99.100 131.200,98.233 130.800,97.367 130.400,96.500 130.667,91.167 130.933,85.833 131.200,80.500 134.567,80.500 137.933,80.500 141.300,80.500 143.800,79.167 146.300,77.833 148.800,76.500 153.633,76.500 158.467,76.500 163.300,76.500 163.300,78.300 163.300,80.100 163.300,81.900 163.300,85.067 163.300,88.233 163.300,91.400 174.000,91.400 184.700,91.400 195.400,91.400 " />
  <path stroke="#ffffffff" fill="none" stroke-width="1.553" d="M 206.600,28.800 C 206.600,28.800 199.600,24.500 197.700,24.200 195.500,24.200 193.200,26.100 193.200,28.400 193.200,30.700 195.000,32.400 197.200,32.400 198.600,32.400 199.900,31.700 200.600,30.500 202.467,31.667 204.333,32.833 206.200,34.000 " />
  <path stroke="#ffffffff" fill="none" stroke-width="1.553" d="M 290.100,55.500 C 290.100,57.400 290.100,59.300 290.100,61.200 313.833,61.200 337.567,61.200 361.300,61.200 " />
  <path stroke="#ffffffff" fill="none" stroke-width="1.553" d="M 291.400,54.900 C 316.067,54.900 340.733,54.900 365.400,54.900 " />
  <path stroke="#ffffffff" fill="none" stroke-width="1.553" d="M 201.100,79.700 C 201.100,83.933 201.100,88.167 201.100,92.400 205.167,92.400 209.233,92.400 213.300,92.400 213.300,92.400 219.000,92.700 219.100,97.300 " />
  <path stroke="#ffffffff" fill="none" stroke-width="1.553" d="M 354.900,67.400 C 352.167,67.400 349.433,67.400 346.700,67.400 346.700,67.400 347.700,69.600 347.300,71.200 346.800,73.000 344.000,74.100 344.000,74.100 345.367,79.100 346.733,84.100 348.100,89.100 348.500,91.400 350.700,91.500 350.700,91.500 351.733,91.533 352.767,91.567 353.800,91.600 354.167,83.533 354.533,75.467 354.900,67.400 354.900,67.400 354.900,67.400 354.900,67.400 Z " />
</svg>