<?xml version="1.0" encoding="UTF-8" standalone="no"?>
<!DOCTYPE svg PUBLIC "-//W3C//DTD SVG 20010904//EN" "http://www.w3.org/TR/2001/REC-SVG-20010904/DTD/svg10.dtd"[]>
<svg version="1.1" id="Frosty Editor v1.0.6.3" xmlns="http://www.w3.org/2000/svg" d1p1:xlink="http://www.w3.org/1999/xlink" viewBox="0 0 101 25" xmlns:d1p1="xmlns">
  <path stroke="none" fill="#ffffffff" d="M 64.592,0.486 C 64.271,0.485 63.950,0.487 63.629,0.486 63.393,0.488 63.157,0.487 62.921,0.490 62.685,0.494 62.450,0.500 62.215,0.517 62.145,0.523 62.075,0.528 62.006,0.538 61.937,0.548 61.869,0.562 61.803,0.587 61.737,0.610 61.672,0.637 61.610,0.668 61.547,0.699 61.487,0.735 61.430,0.775 61.416,0.786 61.408,0.799 61.403,0.815 61.399,0.830 61.399,0.847 61.401,0.863 61.401,2.069 61.401,2.069 61.401,2.069 60.800,2.077 60.199,2.085 59.598,2.090 58.585,2.100 57.571,2.106 56.558,2.128 56.392,2.134 56.227,2.150 56.061,2.167 56.061,2.133 56.060,2.098 56.060,2.064 56.050,1.878 56.049,1.684 55.972,1.511 55.864,1.302 55.640,1.178 55.414,1.140 55.138,1.079 54.855,1.060 54.572,1.057 54.525,1.056 54.478,1.056 54.431,1.056 54.384,1.057 54.337,1.057 54.290,1.058 53.986,1.067 53.669,1.107 53.407,1.273 53.271,1.367 53.146,1.489 53.084,1.644 53.061,1.751 53.074,1.860 53.076,1.968 52.794,1.712 52.454,1.529 52.115,1.360 51.929,1.249 51.739,1.127 51.530,1.066 51.346,0.988 51.144,0.944 50.931,0.944 50.689,0.944 50.460,1.001 50.257,1.101 50.190,1.125 50.124,1.156 50.063,1.195 49.882,1.303 49.701,1.410 49.511,1.500 49.196,1.648 48.945,1.895 48.672,2.105 47.831,2.107 46.989,2.107 46.148,2.107 46.150,1.971 46.152,1.835 46.154,1.699 45.953,1.321 45.532,1.081 45.106,1.079 44.916,1.060 44.725,1.058 44.535,1.059 44.204,1.063 43.861,1.071 43.556,1.214 43.281,1.343 43.090,1.622 43.049,1.921 42.983,1.965 42.914,2.014 42.881,2.089 42.872,2.105 42.865,2.122 42.858,2.138 42.765,2.054 42.643,2.001 42.519,1.991 41.667,1.798 40.820,1.581 39.965,1.401 35.154,1.401 35.154,1.401 35.154,1.401 35.154,1.411 35.154,1.420 35.154,1.430 35.167,3.050 35.180,4.670 35.193,6.290 35.474,6.292 35.756,6.294 36.037,6.297 36.037,7.387 36.037,7.387 36.037,7.387 34.267,7.982 32.494,8.570 30.720,9.152 28.943,9.738 27.163,10.317 25.393,10.923 25.040,11.050 24.682,11.172 24.358,11.364 24.145,11.508 23.999,11.752 23.992,12.011 23.986,12.077 23.985,12.143 23.982,12.209 23.980,12.325 23.980,12.325 23.980,12.325 18.531,11.897 13.082,11.476 7.631,11.072 6.086,10.958 4.538,10.850 2.992,10.759 2.774,10.749 2.554,10.741 2.335,10.743 2.163,10.756 1.984,10.742 1.824,10.821 1.691,10.898 1.587,11.016 1.484,11.128 1.424,11.190 1.368,11.259 1.342,11.343 1.278,11.532 1.296,11.735 1.303,11.930 1.324,12.259 1.377,12.587 1.422,12.914 1.607,14.159 1.846,15.395 2.057,16.636 2.284,17.941 2.476,19.253 2.588,20.574 2.678,21.592 2.726,22.612 2.808,23.631 2.840,23.940 2.880,24.254 2.994,24.544 3.137,24.851 3.440,25.070 3.771,25.133 3.914,25.163 4.052,25.190 4.198,25.202 4.311,25.211 4.435,25.205 4.548,25.176 4.785,25.123 5.019,25.055 5.253,24.989 6.081,24.744 6.893,24.450 7.711,24.174 12.599,22.496 17.482,20.804 22.370,19.124 22.818,18.971 23.266,18.815 23.716,18.667 23.767,18.651 23.819,18.635 23.871,18.620 23.864,19.027 23.864,19.027 23.864,19.027 24.146,19.051 24.426,18.976 24.687,18.879 27.380,17.955 30.075,17.034 32.767,16.106 33.747,15.768 34.727,15.431 35.705,15.087 36.102,14.946 36.502,14.807 36.875,14.610 36.967,14.557 37.050,14.488 37.115,14.404 37.414,14.405 37.714,14.405 38.013,14.406 38.228,14.408 38.385,14.416 38.589,14.419 38.621,15.436 38.654,16.454 38.687,17.471 38.692,18.180 39.270,18.751 39.979,18.746 44.310,18.746 44.310,18.746 44.310,18.746 45.019,18.751 45.598,18.180 45.603,17.471 45.635,16.670 45.668,15.869 45.700,15.068 46.126,15.201 46.246,15.302 46.246,15.302 46.694,15.604 47.199,15.811 47.716,15.963 48.355,16.146 49.018,16.243 49.683,16.252 50.512,16.259 51.340,16.111 52.123,15.844 53.197,15.491 54.211,14.981 55.204,14.448 56.503,13.747 57.763,12.976 59.030,12.217 60.252,11.478 61.473,10.737 62.695,9.997 63.651,9.997 64.608,9.997 65.564,9.997 65.564,10.343 65.564,10.343 65.564,10.343 76.226,10.343 76.226,10.343 76.226,10.343 76.226,10.222 76.226,10.100 76.226,9.981 76.253,9.981 76.253,9.981 76.253,9.981 76.446,9.981 76.446,9.981 76.446,9.981 88.803,9.981 88.803,9.981 88.803,9.981 88.803,8.536 88.803,8.536 88.803,8.536 89.191,8.481 89.580,8.426 89.968,8.371 90.955,8.371 90.955,8.371 90.955,8.371 90.955,8.472 90.955,8.472 90.955,8.472 91.550,8.472 91.550,8.472 91.550,8.472 91.550,8.615 91.550,8.615 91.550,8.615 95.400,8.615 95.400,8.615 95.400,8.615 95.400,8.377 95.400,8.377 95.400,8.377 100.556,8.377 100.556,8.377 100.556,8.377 100.556,5.472 100.556,5.472 100.556,5.472 95.400,5.472 95.400,5.472 95.400,5.472 95.399,4.661 95.399,3.591 95.396,2.794 95.380,2.518 95.365,2.228 95.224,1.982 95.108,1.764 94.913,1.574 94.666,1.518 94.380,1.439 94.081,1.450 93.787,1.439 93.714,1.438 93.640,1.437 93.567,1.437 93.494,1.437 93.420,1.437 93.347,1.437 93.003,1.444 92.655,1.420 92.317,1.494 92.058,1.568 91.856,1.774 91.733,2.006 91.590,2.289 91.572,2.613 91.558,2.923 91.547,3.259 91.549,3.594 91.550,3.930 90.936,4.455 90.936,4.455 90.936,4.455 90.936,5.007 90.936,5.007 90.936,5.007 91.550,5.007 91.550,5.007 91.550,5.007 91.550,5.179 91.550,5.338 91.550,5.466 91.550,5.365 91.550,5.365 91.550,5.365 90.955,5.365 90.955,5.365 90.955,5.365 90.955,5.466 90.955,5.466 90.955,5.466 89.968,5.466 89.968,5.466 89.968,5.466 89.580,5.411 89.191,5.356 88.803,5.301 88.803,3.904 88.803,3.904 88.803,3.904 85.656,3.875 82.857,3.890 80.043,3.898 80.043,3.904 80.043,3.904 80.043,3.904 76.226,3.904 76.226,3.904 76.226,3.904 76.226,3.741 76.226,3.741 76.226,3.741 75.495,3.739 75.495,3.739 75.495,3.739 75.495,3.566 75.495,3.566 75.495,3.566 75.495,3.308 75.495,3.308 75.495,3.308 75.495,3.251 75.495,3.251 75.495,3.251 79.675,3.145 79.807,3.916 79.807,1.957 79.807,1.324 79.653,1.095 78.998,1.083 77.945,1.041 76.892,1.081 75.839,1.069 75.657,1.066 75.476,1.060 75.294,1.050 75.274,1.012 75.248,0.979 75.217,0.950 75.186,0.922 75.151,0.899 75.113,0.880 75.075,0.861 75.035,0.846 74.994,0.836 74.993,0.836 74.993,0.836 74.993,0.836 74.952,0.825 74.911,0.819 74.870,0.816 74.616,0.791 74.359,0.786 74.103,0.780 73.880,0.778 73.621,0.780 73.401,0.808 73.287,0.826 73.164,0.874 73.080,0.960 73.080,0.960 73.080,0.960 73.080,0.960 73.080,0.960 73.080,0.960 73.080,0.960 73.052,0.989 73.028,1.022 73.011,1.059 73.011,1.059 73.011,1.059 73.011,1.059 73.003,1.071 72.999,1.086 72.993,1.100 72.993,1.100 72.993,1.100 72.993,1.100 72.988,1.115 72.982,1.136 72.982,1.136 72.982,1.136 72.962,1.173 72.962,1.453 71.479,1.453 71.479,1.453 71.479,1.453 71.479,1.024 71.479,1.024 71.479,1.024 70.615,1.024 70.615,1.024 70.615,1.024 70.615,0.805 70.615,0.805 70.615,0.805 69.627,0.805 69.627,0.805 69.627,0.805 69.627,0.654 69.627,0.654 69.627,0.654 69.623,0.654 69.620,0.653 69.616,0.653 67.614,0.653 67.614,0.653 67.614,0.653 67.603,0.664 67.591,0.674 67.580,0.687 67.556,0.714 67.534,0.744 67.512,0.773 67.070,0.790 66.626,0.778 66.185,0.740 66.154,0.736 66.125,0.724 66.099,0.706 66.099,0.706 66.099,0.706 66.099,0.706 66.073,0.689 66.050,0.667 66.031,0.642 66.031,0.642 66.031,0.642 66.031,0.642 66.031,0.642 66.031,0.642 66.031,0.642 65.999,0.614 65.963,0.591 65.925,0.574 65.812,0.522 65.679,0.513 65.555,0.507 65.235,0.492 64.913,0.487 64.592,0.486 Z M 68.232,0.992 C 68.611,0.992 68.611,0.992 68.611,0.992 68.611,1.188 68.611,1.188 68.611,1.188 69.599,1.188 69.599,1.188 69.599,1.188 69.599,1.356 69.599,1.356 69.599,1.356 70.994,1.356 70.994,1.356 70.994,1.356 70.994,2.944 70.994,2.944 70.994,2.944 69.599,2.944 69.599,2.944 69.599,2.944 69.599,3.097 69.599,3.097 69.599,3.097 68.611,3.097 68.611,3.097 68.611,3.097 68.611,3.316 68.611,3.316 68.611,3.316 68.232,3.316 68.232,3.316 68.232,3.316 Z M 62.032,1.129 C 65.529,1.129 65.529,1.129 65.529,1.129 65.529,1.935 65.529,1.935 65.529,1.935 62.032,1.935 62.032,1.935 62.032,1.935 Z M 50.939,1.341 C 51.026,1.341 51.112,1.353 51.196,1.373 51.381,1.419 51.565,1.517 51.706,1.652 51.774,1.706 51.814,1.785 51.881,1.839 52.036,1.911 52.184,1.998 52.324,2.097 52.308,2.370 52.213,2.639 52.048,2.857 51.815,3.172 51.440,3.374 51.050,3.401 50.769,3.425 50.478,3.352 50.243,3.212 49.905,3.014 49.663,2.664 49.594,2.279 49.579,2.216 49.577,2.141 49.570,2.073 49.569,2.071 49.569,2.068 49.568,2.066 49.577,2.060 49.585,2.053 49.594,2.047 49.746,1.931 49.950,1.887 50.074,1.734 50.281,1.498 50.587,1.348 50.902,1.341 50.915,1.341 50.927,1.341 50.939,1.341 Z M 73.670,1.372 C 74.739,1.372 74.739,1.372 74.739,1.372 74.739,2.359 74.739,2.359 74.739,2.359 73.670,2.359 73.670,2.359 73.670,2.359 Z M 66.267,1.432 C 67.336,1.432 67.336,1.432 67.336,1.432 67.336,2.307 67.336,2.307 67.336,2.307 67.039,2.307 67.039,2.307 67.039,2.307 67.039,2.302 67.039,2.302 67.039,2.302 66.508,2.302 66.508,2.302 66.508,2.302 66.508,2.307 66.508,2.307 66.508,2.307 66.267,2.307 66.267,2.307 66.267,2.307 Z M 50.953,1.454 C 50.946,1.454 50.938,1.454 50.931,1.454 50.689,1.456 50.455,1.581 50.310,1.769 50.125,2.006 50.097,2.351 50.233,2.616 50.332,2.816 50.524,2.974 50.743,3.028 51.015,3.101 51.322,3.020 51.517,2.818 51.656,2.676 51.743,2.482 51.747,2.286 51.754,2.089 51.687,1.889 51.563,1.740 51.415,1.564 51.185,1.455 50.953,1.454 Z M 75.505,1.605 C 79.222,1.605 79.222,1.605 79.222,1.605 79.222,2.744 79.222,2.744 79.222,2.744 75.505,2.744 75.505,2.744 75.505,2.744 75.505,1.764 75.505,1.764 75.505,1.764 Z M 54.480,1.628 C 54.526,1.628 54.573,1.629 54.620,1.630 54.870,1.637 55.124,1.650 55.369,1.709 55.450,1.733 55.553,1.762 55.579,1.853 55.603,2.083 55.607,2.314 55.611,2.546 55.616,3.607 55.595,4.668 55.581,5.729 55.575,6.082 55.574,6.435 55.564,6.788 55.551,6.805 55.520,6.808 55.501,6.822 55.409,6.826 55.313,6.819 55.220,6.818 54.692,6.801 54.163,6.810 53.638,6.754 53.601,6.756 53.571,6.749 53.579,6.706 53.571,6.673 53.581,6.641 53.604,6.616 53.663,6.513 53.673,6.390 53.675,6.273 53.674,6.091 53.657,5.910 53.652,5.729 53.602,4.446 53.593,3.163 53.574,1.880 53.626,1.817 53.685,1.756 53.763,1.727 53.947,1.650 54.144,1.640 54.340,1.630 54.387,1.629 54.433,1.628 54.480,1.628 Z M 44.632,1.631 C 44.644,1.631 44.657,1.631 44.670,1.631 44.696,1.631 44.721,1.632 44.747,1.632 44.943,1.643 45.135,1.640 45.327,1.687 45.476,1.716 45.601,1.815 45.691,1.934 45.670,3.249 45.647,4.563 45.631,5.878 45.626,6.173 45.626,6.467 45.619,6.761 45.588,6.766 43.953,6.768 43.921,6.770 43.097,6.770 43.233,4.808 43.321,2.426 43.357,2.409 43.391,2.386 43.420,2.358 43.521,2.266 43.550,2.126 43.565,1.996 43.610,1.832 43.768,1.723 43.928,1.687 44.146,1.635 44.370,1.638 44.593,1.631 44.606,1.631 44.619,1.631 44.632,1.631 Z M 50.910,1.767 C 51.139,1.747 51.366,1.908 51.421,2.131 51.454,2.254 51.431,2.393 51.371,2.500 51.270,2.682 51.044,2.775 50.843,2.733 50.629,2.691 50.465,2.488 50.459,2.272 50.442,2.019 50.659,1.782 50.910,1.767 Z M 71.479,1.782 C 72.962,1.782 72.962,1.782 72.962,1.782 72.962,2.987 72.962,2.987 72.962,2.987 71.479,2.987 71.479,2.987 71.479,2.987 Z M 35.659,1.977 C 39.986,1.977 39.986,1.977 39.986,1.977 40.843,2.175 41.696,2.393 42.555,2.582 42.569,2.604 42.563,2.645 42.568,2.674 42.600,3.404 42.600,4.135 42.608,4.865 42.616,5.015 42.602,5.165 42.618,5.315 41.709,5.484 40.813,5.724 39.914,5.940 35.692,5.905 35.692,5.905 35.692,5.905 35.681,4.596 35.670,3.286 35.659,1.977 Z M 93.539,2.032 C 93.839,2.037 94.139,2.031 94.435,2.074 94.518,2.085 94.602,2.117 94.651,2.188 94.776,2.347 94.787,2.560 94.797,2.752 94.807,3.023 94.800,3.295 94.803,3.566 94.804,4.127 94.805,4.688 94.805,5.249 94.805,5.472 94.805,5.472 94.805,5.472 94.805,5.472 94.805,5.472 94.805,5.472 94.805,5.491 94.805,5.509 94.805,5.528 94.805,6.271 94.805,6.271 94.805,6.271 94.805,6.271 94.805,6.271 94.805,6.271 94.805,6.700 94.805,7.128 94.805,7.557 94.805,7.557 94.805,7.557 94.805,7.557 94.805,7.910 94.805,7.910 94.805,7.910 94.805,8.002 94.805,8.002 94.805,8.002 92.144,8.002 92.144,8.002 92.144,8.002 92.144,7.910 92.144,7.910 92.144,7.910 92.145,7.251 92.144,6.592 92.144,5.933 92.144,5.933 92.144,5.933 92.144,5.933 92.144,5.247 92.144,5.247 92.144,5.247 92.144,4.576 92.145,3.906 92.147,3.235 92.151,2.967 92.153,2.699 92.206,2.435 92.241,2.290 92.320,2.142 92.459,2.075 92.538,2.047 92.627,2.052 92.705,2.043 92.983,2.026 93.261,2.035 93.539,2.032 Z M 49.294,2.286 C 49.302,2.379 49.319,2.471 49.341,2.561 49.452,3.005 49.762,3.393 50.166,3.607 50.610,3.849 51.165,3.863 51.625,3.658 52.113,3.447 52.477,2.984 52.577,2.463 52.586,2.417 52.593,2.371 52.598,2.324 52.655,2.378 52.710,2.433 52.761,2.493 52.761,3.539 52.761,4.585 52.759,5.631 52.708,5.691 52.652,5.746 52.595,5.801 52.555,5.541 52.428,5.295 52.244,5.107 51.910,4.761 51.423,4.589 50.947,4.590 50.682,4.591 50.415,4.642 50.171,4.750 49.820,4.901 49.514,5.178 49.371,5.537 49.334,5.634 49.307,5.735 49.295,5.838 49.268,5.814 49.239,5.790 49.213,5.764 49.213,2.359 49.213,2.359 49.213,2.359 49.239,2.333 49.267,2.310 49.294,2.286 Z M 93.471,2.350 C 92.851,2.350 92.352,2.849 92.352,3.469 92.352,3.633 92.389,3.787 92.452,3.928 92.450,3.928 92.450,3.928 92.450,3.928 92.476,3.985 92.506,4.039 92.541,4.091 92.542,4.093 92.544,4.096 92.545,4.098 92.584,4.155 92.628,4.209 92.677,4.258 92.679,4.260 92.681,4.261 92.683,4.263 92.732,4.312 92.785,4.356 92.842,4.395 92.844,4.396 92.846,4.397 92.847,4.398 92.906,4.437 92.968,4.471 93.034,4.499 93.035,4.499 93.036,4.500 93.036,4.500 93.102,4.528 93.171,4.549 93.243,4.564 93.244,4.564 93.246,4.565 93.247,4.565 93.319,4.580 93.394,4.587 93.471,4.587 93.626,4.587 93.773,4.556 93.907,4.500 94.108,4.415 94.279,4.273 94.399,4.095 94.399,4.095 94.399,4.095 94.399,4.095 94.439,4.036 94.474,3.972 94.502,3.905 94.502,3.905 94.502,3.905 94.502,3.905 94.502,3.905 94.502,3.905 94.502,3.905 94.530,3.838 94.552,3.768 94.567,3.695 94.582,3.622 94.590,3.546 94.590,3.469 94.590,3.469 94.590,3.469 94.590,3.469 94.590,3.469 94.590,3.469 94.590,3.469 94.590,3.392 94.582,3.318 94.567,3.246 94.567,3.244 94.567,3.242 94.566,3.240 94.552,3.170 94.531,3.103 94.504,3.039 94.502,3.035 94.501,3.032 94.500,3.028 94.498,3.025 94.497,3.022 94.496,3.019 94.494,3.019 94.494,3.019 94.494,3.019 94.322,2.625 93.930,2.350 93.471,2.350 Z M 65.358,2.463 C 65.889,2.463 65.889,2.463 65.889,2.463 65.889,4.600 65.889,4.600 65.889,4.600 65.889,6.232 65.889,6.232 65.889,6.232 65.889,9.317 65.889,9.317 65.889,9.317 63.054,9.317 63.054,9.317 63.054,9.317 63.223,9.171 63.392,9.026 63.562,8.880 54.310,8.880 54.310,8.880 54.310,8.880 54.310,7.935 54.310,7.935 54.310,7.935 50.415,7.935 50.415,7.935 50.415,7.935 50.415,8.880 50.415,8.880 50.415,8.880 40.153,8.880 40.153,8.880 40.153,8.880 39.975,9.064 39.716,9.166 39.460,9.152 39.099,9.152 38.737,9.153 38.376,9.153 38.376,8.347 38.376,7.540 38.376,6.734 38.957,6.738 39.537,6.746 40.117,6.745 40.843,6.570 41.566,6.390 42.296,6.229 42.384,6.356 42.514,6.454 42.660,6.506 42.618,6.724 42.613,6.723 42.726,6.922 42.872,7.191 43.174,7.365 43.480,7.359 43.651,7.360 43.818,7.335 43.988,7.340 44.705,7.331 45.425,7.374 46.139,7.285 46.449,7.282 46.719,7.220 46.685,6.912 46.686,6.797 46.688,6.683 46.690,6.568 47.428,6.569 48.166,6.569 48.904,6.569 49.190,6.559 49.178,6.579 49.331,6.705 49.577,6.904 49.866,7.048 50.173,7.122 50.481,7.199 50.801,7.233 51.119,7.228 51.618,7.217 52.121,7.098 52.557,6.850 52.632,6.804 52.703,6.753 52.771,6.697 52.913,6.988 53.198,7.217 53.524,7.254 53.941,7.322 54.366,7.315 54.787,7.331 55.110,7.338 55.435,7.355 55.757,7.326 56.242,7.261 56.637,7.083 56.631,6.594 56.620,6.556 56.661,6.572 56.685,6.569 58.524,6.571 60.364,6.580 62.204,6.564 62.505,6.548 62.781,6.327 62.870,6.040 63.699,6.041 64.529,6.040 65.358,6.040 Z M 64.570,2.564 C 64.640,2.577 64.708,2.610 64.772,2.643 64.776,2.697 64.780,2.749 64.782,2.803 64.817,3.613 64.797,4.425 64.735,5.233 56.462,5.233 56.462,5.233 56.462,5.233 56.437,5.225 56.376,5.249 56.378,5.219 56.415,5.073 56.404,4.921 56.401,4.772 56.369,4.088 56.314,3.403 56.344,2.718 56.536,2.697 56.737,2.695 56.933,2.690 58.173,2.673 59.413,2.671 60.652,2.658 61.935,2.647 63.218,2.619 64.500,2.569 64.523,2.567 64.546,2.566 64.570,2.564 Z M 66.508,2.577 C 66.613,2.577 66.613,2.577 66.613,2.577 66.613,8.241 66.613,8.241 66.613,8.241 66.508,8.241 66.508,8.241 66.508,8.241 Z M 66.935,2.577 C 67.039,2.577 67.039,2.577 67.039,2.577 67.039,8.241 67.039,8.241 67.039,8.241 66.935,8.241 66.935,8.241 66.935,8.241 Z M 93.459,2.662 C 93.470,2.662 93.482,2.662 93.493,2.663 93.736,2.665 93.971,2.790 94.116,2.983 94.125,2.995 94.131,3.007 94.139,3.019 94.067,3.019 93.995,3.019 93.923,3.019 92.970,3.019 92.970,3.019 92.970,3.019 92.970,3.928 92.970,3.928 92.970,3.928 92.807,3.928 92.807,3.928 92.807,3.928 92.787,3.899 92.768,3.869 92.752,3.837 92.661,3.657 92.639,3.439 92.696,3.243 92.729,3.122 92.796,3.007 92.882,2.917 93.022,2.769 93.218,2.674 93.424,2.663 93.435,2.663 93.447,2.662 93.459,2.662 Z M 47.667,2.682 C 48.060,2.682 48.454,2.682 48.817,2.682 48.817,5.195 48.817,5.195 48.817,5.195 48.138,5.239 47.187,5.228 46.522,5.236 46.522,2.682 46.522,2.682 46.522,2.682 46.882,2.682 47.275,2.682 47.667,2.682 Z M 73.670,2.772 C 74.739,2.772 74.739,2.772 74.739,2.772 74.739,3.647 74.739,3.647 74.739,3.647 74.739,4.284 74.739,4.284 74.739,4.284 74.739,4.752 74.739,4.752 74.739,4.752 74.739,4.959 74.736,5.342 74.725,5.589 74.705,5.827 74.681,6.079 74.545,6.283 74.297,6.713 73.801,6.672 73.576,6.709 73.951,5.909 73.388,5.313 73.334,5.293 73.710,5.189 73.670,4.289 73.670,4.289 73.670,3.801 73.670,3.801 73.670,3.801 73.670,3.647 73.670,3.647 73.670,3.647 Z M 94.252,3.263 C 94.295,3.434 94.284,3.619 94.215,3.781 94.107,4.055 93.830,4.252 93.536,4.273 93.376,4.288 93.215,4.250 93.076,4.172 93.122,4.171 93.168,4.171 93.213,4.171 93.215,3.263 93.215,3.263 93.215,3.263 Z M 70.615,3.316 C 73.166,3.316 73.166,3.316 73.166,3.316 73.166,3.535 73.166,3.535 73.166,3.535 73.166,3.647 73.166,3.647 73.166,3.647 71.171,3.647 71.171,3.647 71.171,3.647 69.627,3.647 69.627,3.647 69.627,3.647 69.627,3.513 69.627,3.513 69.627,3.513 70.615,3.513 70.615,3.513 70.615,3.513 Z M 91.550,4.181 C 91.550,4.817 91.550,4.817 91.550,4.817 91.128,4.817 91.128,4.817 91.128,4.817 91.128,4.543 91.128,4.543 91.128,4.543 Z M 75.608,4.285 C 75.608,9.663 75.608,9.663 75.608,9.663 66.742,9.663 66.742,9.663 66.742,9.663 66.742,8.516 66.742,8.516 66.742,8.516 67.039,8.516 67.039,8.516 67.039,8.516 67.039,8.505 67.039,8.505 67.039,8.505 67.105,8.510 67.171,8.522 67.236,8.527 67.772,8.552 68.308,8.545 68.844,8.552 70.129,8.556 71.414,8.560 72.698,8.551 73.057,8.545 73.099,8.540 73.454,8.481 73.631,8.447 73.818,8.370 73.913,8.207 74.007,8.058 73.992,7.875 73.996,7.707 73.996,7.551 73.994,7.395 74.011,7.240 74.025,7.188 74.087,7.155 74.128,7.144 74.439,7.090 74.957,6.808 75.069,6.627 75.206,6.423 75.229,6.171 75.249,5.933 75.256,5.786 75.261,5.639 75.264,5.492 75.264,4.638 75.264,4.638 75.264,4.638 75.264,4.285 75.264,4.285 75.264,4.285 75.475,4.285 75.397,4.285 75.608,4.285 Z M 67.697,4.289 C 68.504,4.289 68.504,4.289 68.504,4.289 70.040,4.289 70.040,4.289 70.040,4.289 73.144,4.289 73.144,4.289 73.144,4.289 73.135,4.346 73.132,4.404 73.109,4.457 73.038,4.639 72.894,4.809 72.697,4.852 72.578,4.873 72.456,4.857 72.336,4.862 70.813,4.862 69.290,4.863 67.766,4.861 67.345,4.801 67.391,4.312 67.697,4.289 Z M 79.710,4.583 C 80.269,4.586 80.828,4.583 81.388,4.584 83.633,4.584 85.878,4.584 88.123,4.584 88.123,5.671 88.123,5.671 88.123,5.671 88.076,5.424 87.906,5.202 87.674,5.102 87.430,4.990 87.128,5.015 86.909,5.170 86.698,5.311 86.564,5.559 86.566,5.813 86.565,6.075 86.700,6.335 86.922,6.476 87.193,6.654 87.577,6.647 87.833,6.443 87.982,6.329 88.087,6.159 88.123,5.975 88.123,7.913 88.123,7.913 88.123,7.913 88.075,7.661 87.897,7.436 87.657,7.341 87.409,7.237 87.108,7.271 86.891,7.432 86.673,7.586 86.546,7.857 86.569,8.122 86.585,8.371 86.725,8.608 86.939,8.736 87.180,8.885 87.502,8.893 87.746,8.747 87.938,8.635 88.080,8.438 88.123,8.220 88.123,9.301 88.123,9.301 88.123,9.301 85.286,9.301 82.449,9.302 79.612,9.300 79.565,9.296 79.519,9.282 79.477,9.259 79.477,8.941 79.477,8.619 79.477,8.302 79.555,8.563 79.779,8.771 80.044,8.831 80.299,8.895 80.585,8.818 80.772,8.632 80.937,8.473 81.028,8.241 81.011,8.012 80.994,7.732 80.816,7.465 80.557,7.352 80.305,7.236 79.992,7.265 79.768,7.431 79.632,7.528 79.527,7.670 79.477,7.830 79.477,6.051 79.477,6.051 79.477,6.051 79.555,6.315 79.783,6.525 80.052,6.583 80.287,6.638 80.549,6.582 80.733,6.423 80.936,6.255 81.043,5.980 81.005,5.719 80.973,5.456 80.799,5.213 80.555,5.105 80.313,4.991 80.013,5.012 79.792,5.165 79.645,5.263 79.529,5.411 79.477,5.581 79.477,4.649 79.477,4.649 79.477,4.649 79.543,4.599 79.629,4.583 79.710,4.583 Z M 76.226,4.612 C 76.231,4.612 76.231,4.612 76.231,4.612 77.668,4.612 77.668,4.612 77.668,4.612 77.668,4.815 77.668,4.815 77.668,4.815 77.668,6.159 77.668,6.159 77.668,6.159 77.668,9.499 77.668,9.499 77.668,9.499 76.226,9.499 76.226,9.499 76.226,9.499 76.226,6.159 76.226,6.159 76.226,6.159 Z M 77.850,4.612 C 79.271,4.612 79.271,4.612 79.271,4.612 79.271,9.499 79.271,9.499 79.271,9.499 77.850,9.499 77.850,9.499 77.850,9.499 Z M 50.953,4.987 C 51.117,4.987 51.281,5.011 51.441,5.059 51.764,5.157 52.067,5.366 52.223,5.672 52.283,5.781 52.309,5.904 52.325,6.027 52.183,6.135 52.008,6.194 51.881,6.321 51.645,6.582 51.290,6.714 50.942,6.714 50.684,6.716 50.417,6.651 50.198,6.507 50.093,6.445 50.015,6.349 49.926,6.268 49.804,6.203 49.683,6.132 49.567,6.054 49.569,6.046 49.570,6.039 49.571,6.032 49.587,5.809 49.688,5.597 49.839,5.434 50.121,5.130 50.543,4.987 50.953,4.987 Z M 80.250,5.428 C 80.478,5.430 80.681,5.646 80.657,5.875 80.644,6.063 80.487,6.228 80.299,6.248 80.112,6.275 79.917,6.155 79.858,5.976 79.793,5.798 79.869,5.581 80.035,5.486 80.096,5.449 80.168,5.429 80.239,5.428 80.243,5.428 80.247,5.428 80.250,5.428 Z M 91.151,5.558 C 91.354,5.558 91.354,5.558 91.354,5.558 91.354,8.280 91.354,8.280 91.354,8.280 91.151,8.280 91.151,8.280 91.151,8.280 Z M 67.461,5.583 C 68.215,5.583 68.215,5.583 68.215,5.583 68.215,6.665 68.215,6.665 68.215,6.665 67.462,6.665 67.462,6.665 67.462,6.665 67.387,6.433 67.375,6.150 67.401,5.890 67.418,5.787 67.423,5.668 67.461,5.583 Z M 68.438,5.583 C 69.260,5.583 69.260,5.583 69.260,5.583 69.260,6.665 69.260,6.665 69.260,6.665 68.438,6.665 68.438,6.665 68.438,6.665 Z M 69.519,5.583 C 70.919,5.583 70.919,5.583 70.919,5.583 70.919,6.665 70.919,6.665 70.919,6.665 69.519,6.665 69.519,6.665 69.519,6.665 69.519,5.583 69.519,5.583 69.519,5.583 Z M 71.178,5.583 C 72.000,5.583 72.000,5.583 72.000,5.583 72.000,6.665 72.000,6.665 72.000,6.665 71.178,6.665 71.178,6.665 71.178,6.665 Z M 72.223,5.583 C 72.977,5.583 72.977,5.583 72.977,5.583 73.015,5.668 73.020,5.787 73.036,5.890 73.063,6.150 73.051,6.433 72.976,6.665 72.223,6.665 72.223,6.665 72.223,6.665 Z M 70.223,5.598 C 70.210,5.598 70.197,5.599 70.184,5.599 69.931,5.606 69.704,5.823 69.686,6.075 69.662,6.307 69.810,6.543 70.030,6.619 70.185,6.676 70.381,6.652 70.516,6.553 70.720,6.414 70.794,6.122 70.687,5.901 70.607,5.725 70.419,5.602 70.223,5.598 Z M 50.933,5.606 C 50.923,5.606 50.912,5.606 50.902,5.606 50.684,5.616 50.444,5.684 50.281,5.847 50.239,5.888 50.191,5.949 50.171,6.014 50.126,6.132 50.150,6.270 50.229,6.369 50.325,6.500 50.476,6.581 50.626,6.625 50.938,6.715 51.299,6.677 51.562,6.478 51.684,6.382 51.777,6.223 51.739,6.063 51.698,5.886 51.544,5.762 51.384,5.693 51.251,5.634 51.107,5.609 50.964,5.606 50.953,5.606 50.943,5.606 50.933,5.606 Z M 73.103,5.624 C 73.104,5.624 73.105,5.625 73.106,5.625 73.106,5.626 73.107,5.627 73.108,5.627 73.106,5.626 73.105,5.625 73.103,5.624 Z M 67.334,5.624 C 67.332,5.625 67.331,5.627 67.329,5.629 67.330,5.628 67.331,5.626 67.332,5.625 67.333,5.625 67.334,5.624 67.334,5.624 Z M 46.105,5.627 C 46.101,5.634 46.100,5.643 46.096,5.650 46.096,5.642 46.096,5.635 46.096,5.627 46.099,5.627 46.102,5.627 46.105,5.627 Z M 67.250,5.730 C 67.246,5.737 67.243,5.745 67.240,5.752 67.241,5.749 67.242,5.744 67.243,5.741 67.245,5.737 67.248,5.734 67.250,5.730 Z M 73.191,5.736 C 73.192,5.738 73.193,5.739 73.194,5.741 73.194,5.741 73.194,5.741 73.194,5.741 73.195,5.742 73.195,5.744 73.196,5.746 73.194,5.742 73.193,5.739 73.191,5.736 Z M 70.220,5.737 C 70.364,5.739 70.503,5.830 70.561,5.959 70.640,6.123 70.586,6.337 70.436,6.440 70.336,6.513 70.192,6.531 70.078,6.489 69.915,6.433 69.806,6.259 69.824,6.088 69.837,5.902 70.004,5.742 70.191,5.737 70.200,5.737 70.210,5.736 70.220,5.737 Z M 53.123,5.816 C 53.172,6.220 53.172,6.220 53.172,6.220 53.168,6.245 53.160,6.269 53.152,6.293 53.039,6.208 52.896,6.167 52.756,6.188 52.889,6.075 53.014,5.953 53.123,5.816 Z M 50.928,5.919 C 51.075,5.921 51.232,5.943 51.353,6.033 51.391,6.066 51.450,6.108 51.427,6.166 51.354,6.271 51.225,6.322 51.105,6.344 50.923,6.374 50.715,6.360 50.556,6.250 50.507,6.223 50.446,6.172 50.469,6.109 50.566,5.982 50.731,5.932 50.884,5.920 Z M 86.931,5.925 C 86.935,5.926 86.935,5.926 86.935,5.926 87.214,5.927 87.493,5.926 87.771,5.926 87.721,6.128 87.510,6.278 87.301,6.249 87.159,6.231 87.028,6.139 86.965,6.014 86.949,5.986 86.941,5.955 86.931,5.925 Z M 88.853,5.926 C 89.930,6.079 89.930,6.079 89.930,6.079 90.955,6.079 90.955,6.079 90.955,6.079 90.955,7.759 90.955,7.759 90.955,7.759 89.930,7.759 89.930,7.759 89.930,7.759 88.853,7.910 88.853,7.910 88.853,7.910 Z M 48.601,5.999 C 48.605,6.002 48.605,6.002 48.605,6.002 48.605,6.003 48.605,6.003 48.605,6.003 48.656,6.048 48.710,6.092 48.767,6.130 48.764,6.158 48.765,6.186 48.767,6.214 46.695,6.214 46.695,6.214 46.695,6.214 46.696,6.157 46.697,6.099 46.698,6.042 47.332,6.037 47.967,6.039 48.601,5.999 Z M 57.084,6.040 C 58.884,6.042 60.684,6.041 62.484,6.041 62.399,6.161 62.248,6.228 62.101,6.214 60.280,6.214 58.460,6.214 56.639,6.214 56.640,6.157 56.641,6.100 56.643,6.043 56.790,6.042 56.937,6.041 57.084,6.040 Z M 95.400,6.085 C 99.943,6.085 99.943,6.085 99.943,6.085 99.943,6.645 99.943,7.205 99.943,7.765 95.400,7.765 95.400,7.765 95.400,7.765 95.400,7.205 95.400,6.645 95.400,6.085 Z M 67.162,6.124 C 67.162,6.124 67.162,6.124 67.162,6.124 67.162,6.124 67.162,6.124 67.162,6.124 67.162,6.124 67.162,6.124 67.162,6.124 67.162,6.124 67.162,6.124 67.162,6.124 Z M 73.276,6.124 C 73.276,6.124 73.276,6.124 73.276,6.124 73.276,6.124 73.276,6.124 73.276,6.124 73.276,6.124 73.276,6.124 73.276,6.124 Z M 42.779,6.127 C 42.780,6.127 42.780,6.129 42.775,6.136 42.769,6.164 42.756,6.177 42.731,6.155 42.679,6.137 42.744,6.136 42.766,6.129 42.771,6.129 42.775,6.127 42.778,6.127 42.778,6.127 42.778,6.127 42.779,6.127 Z M 67.241,6.499 C 67.245,6.507 67.249,6.515 67.253,6.522 67.250,6.517 67.246,6.512 67.243,6.507 67.242,6.505 67.242,6.501 67.241,6.499 Z M 73.197,6.500 C 73.196,6.502 73.195,6.505 73.194,6.507 73.194,6.507 73.194,6.507 73.194,6.507 73.191,6.514 73.186,6.519 73.183,6.525 73.187,6.517 73.192,6.509 73.197,6.500 Z M 73.117,6.611 C 73.113,6.614 73.110,6.619 73.106,6.622 73.104,6.624 73.101,6.625 73.099,6.627 73.105,6.622 73.111,6.616 73.117,6.611 Z M 67.330,6.620 C 67.331,6.622 67.333,6.623 67.335,6.624 67.334,6.623 67.333,6.623 67.332,6.622 67.331,6.622 67.331,6.621 67.330,6.620 Z M 36.717,6.721 C 36.891,6.722 37.065,6.724 37.239,6.725 37.237,7.742 37.253,8.758 37.254,9.775 37.257,11.090 37.249,12.406 37.241,13.721 37.217,13.731 37.175,13.722 37.144,13.725 36.717,13.725 36.717,13.725 36.717,13.725 Z M 37.591,6.728 C 37.735,6.729 37.879,6.730 38.024,6.731 38.024,9.615 38.024,9.615 38.024,9.615 37.591,9.615 37.591,9.615 37.591,9.615 Z M 73.371,7.143 C 73.374,7.144 73.379,7.182 73.379,7.470 73.379,7.951 73.286,8.020 72.811,8.034 67.718,8.034 67.718,8.034 67.718,8.034 67.345,8.041 67.319,7.865 67.319,7.525 67.319,7.141 67.322,7.146 67.322,7.146 73.370,7.146 73.370,7.146 73.370,7.146 73.370,7.146 73.371,7.143 73.371,7.143 Z M 87.356,7.634 C 87.362,7.634 87.368,7.634 87.374,7.634 87.554,7.643 87.722,7.776 87.768,7.948 87.768,7.973 87.709,7.952 87.685,7.959 86.932,7.959 86.932,7.959 86.932,7.959 86.977,7.779 87.151,7.637 87.338,7.634 87.344,7.634 87.350,7.634 87.356,7.634 Z M 80.253,7.634 C 80.394,7.632 80.530,7.719 80.601,7.836 80.692,7.979 80.671,8.175 80.563,8.303 80.455,8.442 80.252,8.498 80.090,8.426 79.965,8.377 79.871,8.264 79.845,8.135 79.805,7.964 79.888,7.772 80.044,7.688 80.107,7.652 80.180,7.633 80.253,7.634 Z M 36.093,8.142 C 36.095,14.216 36.095,14.216 36.095,14.216 35.813,14.327 35.528,14.429 35.244,14.532 33.910,15.001 32.572,15.456 31.236,15.917 29.010,16.681 26.783,17.445 24.555,18.206 24.582,16.369 24.597,14.532 24.642,12.696 24.649,12.473 24.653,12.246 24.670,12.028 24.675,11.977 24.712,11.938 24.756,11.917 24.908,11.822 25.088,11.760 25.259,11.693 26.000,11.417 26.753,11.176 27.504,10.926 29.965,10.112 33.635,8.964 36.093,8.142 Z M 50.767,8.288 C 53.957,8.288 53.957,8.288 53.957,8.288 53.957,9.400 53.957,9.400 53.957,9.400 50.773,9.400 50.773,9.400 50.773,9.400 50.772,9.254 50.775,9.109 50.767,8.964 50.768,8.739 50.767,8.513 50.767,8.288 Z M 40.291,9.232 C 50.415,9.232 50.415,9.232 50.415,9.232 50.416,9.413 50.411,9.594 50.421,9.774 50.419,10.268 50.424,10.763 50.416,11.257 50.394,11.536 50.257,11.799 50.047,11.982 49.913,12.100 49.755,12.180 49.580,12.221 49.471,12.247 49.355,12.251 49.241,12.249 47.975,12.249 46.710,12.249 45.445,12.249 45.445,12.581 45.445,12.581 45.445,12.581 44.211,12.373 42.979,12.158 41.746,11.946 41.626,11.690 41.309,11.549 41.039,11.631 40.785,11.700 40.592,11.950 40.596,12.214 40.594,12.467 40.765,12.713 41.008,12.790 41.218,12.862 41.468,12.809 41.625,12.651 41.815,12.682 42.003,12.721 42.192,12.754 43.276,12.956 44.360,13.158 45.445,13.361 45.445,13.729 45.445,13.729 45.445,13.729 43.163,13.729 40.882,13.730 38.601,13.729 38.478,13.721 38.354,13.728 38.231,13.725 37.589,13.725 37.589,13.725 37.589,13.725 37.589,9.967 37.589,9.967 37.589,9.967 38.377,9.967 38.377,9.967 38.377,9.967 38.377,9.506 38.377,9.506 38.377,9.506 38.792,9.504 39.207,9.509 39.622,9.502 39.864,9.478 40.100,9.384 40.291,9.232 Z M 54.310,9.233 C 62.612,9.233 62.612,9.233 62.612,9.233 62.562,9.275 62.516,9.323 62.455,9.346 62.087,9.571 61.716,9.792 61.348,10.016 59.810,10.948 58.277,11.890 56.728,12.804 55.672,13.424 54.608,14.031 53.500,14.556 52.742,14.913 51.958,15.228 51.138,15.415 50.604,15.535 50.056,15.594 49.508,15.568 48.864,15.543 48.220,15.430 47.608,15.218 47.185,15.070 46.773,14.874 46.424,14.590 46.214,14.399 46.061,14.149 45.975,13.879 45.974,13.857 45.929,13.801 45.972,13.809 47.456,13.809 47.456,13.809 47.456,13.809 47.456,12.602 47.456,12.602 47.456,12.602 48.114,12.601 48.772,12.605 49.430,12.599 49.933,12.569 50.406,12.253 50.624,11.799 50.740,11.567 50.785,11.305 50.773,11.048 50.773,9.752 50.773,9.752 50.773,9.752 51.627,9.752 51.627,9.752 51.627,9.752 51.629,10.016 51.623,10.280 51.631,10.544 51.682,10.895 51.973,11.194 52.322,11.255 52.646,11.317 53.001,11.176 53.186,10.901 53.294,10.748 53.347,10.559 53.333,10.373 53.333,9.752 53.333,9.752 53.333,9.752 54.310,9.752 54.310,9.752 54.310,9.752 Z M 48.201,9.636 C 48.193,9.636 48.186,9.636 48.178,9.636 47.794,9.636 47.426,9.895 47.292,10.255 47.159,10.598 47.243,11.016 47.506,11.275 47.748,11.524 48.130,11.626 48.463,11.524 48.787,11.430 49.054,11.156 49.130,10.826 49.210,10.495 49.103,10.123 48.849,9.894 48.674,9.732 48.439,9.637 48.201,9.636 Z M 51.980,9.752 C 52.981,9.752 52.981,9.752 52.981,9.752 52.979,10.016 52.987,10.280 52.975,10.543 52.947,10.711 52.805,10.862 52.636,10.904 52.540,10.925 52.440,10.921 52.344,10.908 52.131,10.868 51.964,10.657 51.980,10.439 51.980,10.210 51.980,9.981 51.980,9.752 Z M 48.207,9.988 C 48.497,9.990 48.766,10.227 48.798,10.517 48.830,10.744 48.723,10.987 48.528,11.110 48.336,11.237 48.072,11.245 47.877,11.122 47.676,11.003 47.556,10.762 47.585,10.530 47.611,10.289 47.792,10.073 48.028,10.012 48.082,9.996 48.138,9.989 48.194,9.988 48.198,9.988 48.203,9.988 48.207,9.988 Z M 55.856,10.223 C 55.840,10.223 55.824,10.224 55.809,10.224 55.490,10.240 55.197,10.482 55.124,10.793 55.047,11.091 55.172,11.429 55.429,11.599 55.674,11.769 56.023,11.775 56.270,11.606 56.509,11.449 56.647,11.150 56.601,10.867 56.559,10.580 56.340,10.325 56.058,10.251 55.997,10.234 55.935,10.225 55.872,10.224 55.866,10.224 55.861,10.223 55.856,10.223 Z M 55.859,10.576 C 55.862,10.576 55.865,10.576 55.868,10.576 56.025,10.577 56.179,10.689 56.233,10.840 56.258,10.912 56.262,10.991 56.245,11.065 56.072,10.910 55.898,10.755 55.724,10.599 55.767,10.584 55.813,10.576 55.859,10.576 Z M 55.476,10.850 C 55.658,11.013 55.841,11.177 56.023,11.340 55.847,11.425 55.611,11.360 55.513,11.188 55.453,11.088 55.437,10.961 55.476,10.850 Z M 3.318,11.563 C 5.436,11.665 7.548,11.847 9.663,12.000 12.674,12.229 15.687,12.449 18.697,12.704 18.888,12.721 19.080,12.738 19.272,12.755 19.391,14.639 19.429,16.527 19.521,18.413 19.536,18.744 19.551,19.076 19.567,19.407 15.316,20.788 11.072,22.186 6.815,23.547 6.075,23.774 5.336,24.014 4.571,24.140 4.365,24.167 4.137,24.151 3.967,24.021 3.745,23.857 3.626,23.589 3.578,23.324 3.502,22.946 3.494,22.559 3.460,22.176 3.390,21.159 3.326,20.141 3.184,19.132 2.974,17.467 2.652,15.819 2.319,14.174 2.221,13.661 2.102,13.147 2.080,12.623 2.079,12.346 2.171,12.064 2.363,11.860 2.518,11.683 2.746,11.564 2.984,11.568 3.095,11.562 3.207,11.568 3.318,11.563 Z M 41.285,12.225 C 41.285,12.225 41.285,12.225 41.285,12.225 41.904,12.328 42.521,12.438 43.138,12.544 43.905,12.677 44.672,12.808 45.440,12.937 45.439,12.971 45.451,13.018 45.403,12.994 44.030,12.738 42.657,12.483 41.285,12.227 Z M 45.797,12.602 C 47.103,12.602 47.103,12.602 47.103,12.602 47.103,13.456 47.103,13.456 47.103,13.456 45.797,13.456 45.797,13.456 45.797,13.456 Z M 20.472,12.839 C 20.503,12.839 20.534,12.843 20.565,12.850 21.700,12.914 22.833,12.996 23.967,13.080 23.882,17.997 23.882,17.997 23.882,17.997 22.726,18.354 21.580,18.741 20.429,19.115 20.366,19.135 20.302,19.156 20.239,19.177 20.113,17.834 20.090,16.485 20.036,15.138 20.015,14.499 19.993,13.860 19.999,13.222 20.035,13.000 20.253,12.839 20.472,12.839 Z M 40.716,14.429 C 40.918,14.430 41.121,14.430 41.323,14.430 41.359,14.430 41.394,14.431 41.430,14.430 41.423,14.525 41.419,14.673 41.410,14.767 41.393,14.889 41.372,15.011 41.350,15.133 41.291,15.462 41.229,15.791 41.168,16.120 41.141,16.271 41.111,16.423 41.100,16.577 41.086,16.840 41.118,17.105 41.191,17.358 41.131,17.314 41.075,17.264 41.030,17.204 41.003,17.167 40.977,17.128 40.967,17.083 40.963,17.051 40.960,17.019 40.956,16.987 40.916,16.615 40.876,16.242 40.837,15.869 40.791,15.413 40.759,14.901 40.717,14.444 Z M 40.394,14.431 C 40.488,15.308 40.582,16.211 40.676,17.087 40.676,17.087 40.676,17.087 40.676,17.087 40.676,17.087 40.682,17.175 40.758,17.298 40.758,17.298 40.758,17.298 40.758,17.298 40.758,17.298 40.758,17.298 40.758,17.298 40.796,17.359 40.852,17.429 40.933,17.501 40.933,17.501 40.933,17.501 40.933,17.501 40.933,17.501 40.933,17.501 40.933,17.501 41.015,17.574 41.123,17.648 41.264,17.717 41.264,17.717 41.264,17.717 41.264,17.717 41.264,17.717 41.264,17.717 41.264,17.717 41.324,17.743 41.388,17.751 41.451,17.744 41.451,17.744 41.451,17.744 41.451,17.744 41.513,17.737 41.574,17.713 41.626,17.675 41.537,17.500 41.472,17.315 41.432,17.124 41.432,17.124 41.432,17.124 41.432,17.124 41.432,17.124 41.432,17.124 41.432,17.124 41.392,16.934 41.378,16.738 41.390,16.542 41.390,16.542 41.390,16.542 41.390,16.542 41.411,16.346 41.485,15.985 41.564,15.568 41.628,15.241 41.693,14.883 41.741,14.533 41.745,14.500 41.750,14.467 41.754,14.435 44.919,14.440 44.919,14.440 44.919,14.440 44.918,14.448 44.918,14.456 44.918,14.463 44.918,14.463 44.918,14.463 44.918,14.463 44.899,14.876 44.881,15.397 44.862,15.918 44.845,16.392 44.829,16.863 44.812,17.234 44.812,17.234 44.812,17.234 44.812,17.234 44.812,17.234 44.812,17.234 44.812,17.234 44.812,17.321 44.802,17.400 44.782,17.470 44.782,17.470 44.782,17.470 44.782,17.470 44.782,17.470 44.782,17.470 44.782,17.470 44.782,17.470 44.782,17.470 44.782,17.470 44.763,17.541 44.735,17.603 44.699,17.659 44.699,17.659 44.699,17.659 44.699,17.659 44.699,17.659 44.699,17.659 44.699,17.659 44.699,17.659 44.699,17.659 44.699,17.659 44.663,17.715 44.619,17.763 44.568,17.806 44.568,17.806 44.568,17.806 44.568,17.806 44.568,17.806 44.568,17.806 44.568,17.806 44.517,17.848 44.459,17.884 44.396,17.915 44.396,17.915 44.396,17.915 44.396,17.915 44.269,17.976 44.120,18.016 43.957,18.041 43.957,18.041 43.957,18.041 43.957,18.041 43.794,18.065 43.618,18.074 43.437,18.074 43.437,18.074 43.437,18.074 43.437,18.074 40.855,18.074 40.855,18.074 40.855,18.074 40.855,18.074 40.855,18.074 40.855,18.074 40.674,18.074 40.496,18.058 40.331,18.024 40.331,18.024 40.331,18.024 40.331,18.024 40.166,17.990 40.014,17.937 39.885,17.862 39.885,17.862 39.885,17.862 39.885,17.862 39.821,17.825 39.762,17.782 39.710,17.734 39.709,17.734 39.709,17.734 39.709,17.734 39.709,17.734 39.709,17.734 39.709,17.734 39.657,17.685 39.612,17.631 39.575,17.570 39.575,17.570 39.575,17.570 39.575,17.570 39.538,17.510 39.509,17.443 39.489,17.370 39.489,17.370 39.489,17.370 39.489,17.370 39.489,17.370 39.489,17.370 39.489,17.370 39.469,17.296 39.459,17.216 39.459,17.129 39.459,17.129 39.459,17.129 39.459,17.129 39.423,16.231 39.387,15.333 39.351,14.435 39.351,14.435 39.351,14.435 39.351,14.435 Z " />
</svg>