<?xml version="1.0" encoding="UTF-8" standalone="no"?>
<!DOCTYPE svg PUBLIC "-//W3C//DTD SVG 20010904//EN" "http://www.w3.org/TR/2001/REC-SVG-20010904/DTD/svg10.dtd"[]>
<svg version="1.1" id="Frosty Editor v1.0.6.3" xmlns="http://www.w3.org/2000/svg" d1p1:xlink="http://www.w3.org/1999/xlink" viewBox="0 0 101 25" xmlns:d1p1="xmlns">
  <path stroke="none" fill="#ffffffff" d="M 48.505,0.607 C 48.503,0.609 48.502,0.611 48.500,0.613 48.408,0.720 48.316,0.827 48.224,0.934 47.441,0.934 47.441,0.934 47.441,0.934 47.350,0.842 47.258,0.750 47.166,0.658 45.764,0.658 45.764,0.658 45.764,0.658 45.673,0.750 45.581,0.842 45.489,0.934 40.109,0.934 40.109,0.934 40.109,0.934 40.017,0.842 39.925,0.750 39.834,0.658 38.432,0.658 38.432,0.658 38.432,0.658 38.340,0.750 38.248,0.842 38.157,0.934 30.330,0.934 30.330,0.934 30.330,0.934 30.330,3.630 30.330,3.630 30.330,3.630 38.154,3.630 38.154,3.630 38.154,3.630 38.221,3.702 38.288,3.773 38.355,3.844 38.355,3.996 38.355,3.996 38.355,3.996 30.744,3.996 30.744,3.996 30.744,3.996 30.630,4.145 30.515,4.293 30.401,4.442 22.613,4.442 22.613,4.442 22.613,4.442 22.613,3.989 22.613,3.989 22.613,3.989 19.519,3.989 19.519,3.989 19.519,3.989 19.309,4.139 19.098,4.288 18.888,4.437 18.888,6.505 18.888,8.573 18.888,10.641 19.098,10.790 19.309,10.939 19.519,11.088 22.613,11.088 22.613,11.088 22.613,11.088 22.613,9.297 22.613,9.297 22.613,9.297 25.861,9.297 25.861,9.297 25.861,9.297 26.409,9.951 26.958,10.605 27.503,11.261 27.763,11.662 28.035,12.061 28.214,12.506 28.304,12.732 28.363,12.972 28.371,13.213 28.383,13.509 28.323,13.805 28.219,14.082 28.177,14.176 28.117,14.259 28.069,14.349 27.622,15.116 27.174,15.881 26.731,16.650 26.157,17.685 25.737,18.797 25.358,19.916 25.117,20.619 24.904,21.330 24.682,22.039 24.663,22.098 24.644,22.158 24.626,22.218 24.743,22.444 24.860,22.671 24.977,22.897 26.767,23.592 28.558,24.288 30.348,24.983 30.630,24.923 30.912,24.864 31.194,24.805 31.126,24.288 31.059,23.771 30.991,23.255 32.045,20.980 33.099,18.706 34.153,16.432 34.153,16.200 34.153,16.200 34.153,16.200 36.853,16.200 39.553,16.200 42.253,16.199 42.636,16.188 43.025,16.094 43.349,15.884 43.431,15.830 43.507,15.769 43.575,15.698 43.575,16.155 43.575,16.155 43.575,16.155 45.495,15.788 47.417,15.431 49.342,15.085 50.260,14.920 51.179,14.761 52.097,14.600 52.797,14.480 53.497,14.359 54.198,14.245 54.416,14.209 54.633,14.172 54.850,14.134 55.206,14.075 55.562,14.020 55.918,13.960 57.389,13.718 58.862,13.490 60.336,13.268 62.686,12.916 65.039,12.592 67.398,12.306 67.398,10.689 67.398,10.689 67.398,10.689 80.468,10.689 80.468,10.689 80.468,10.689 80.468,11.028 80.468,11.028 80.468,11.028 82.413,11.028 82.413,11.028 82.413,11.028 82.413,10.619 82.413,10.619 82.413,10.619 82.413,9.498 82.413,9.498 82.413,9.498 83.508,9.379 84.602,9.259 85.697,9.140 85.697,7.009 85.697,7.009 85.697,7.009 84.602,6.890 83.508,6.770 82.413,6.651 82.413,3.761 82.413,3.761 82.413,3.761 80.468,3.761 80.468,3.761 80.468,3.761 80.468,4.027 80.468,4.027 80.468,4.027 79.440,4.027 79.440,4.027 79.440,4.027 79.254,3.469 79.069,2.910 78.884,2.352 78.101,2.352 78.101,2.352 78.101,2.352 78.101,4.027 78.101,4.027 78.101,4.027 72.000,4.027 72.000,4.027 72.000,4.027 65.138,4.027 65.138,4.027 65.138,4.027 65.101,3.990 65.044,3.993 64.996,3.996 47.243,3.996 47.243,3.996 47.243,3.996 47.243,3.844 47.243,3.844 47.243,3.844 47.310,3.773 47.377,3.702 47.444,3.630 48.224,3.630 48.224,3.630 48.224,3.630 48.317,3.739 48.411,3.848 48.505,3.957 53.085,3.957 53.085,3.957 53.085,3.957 53.085,0.607 53.085,0.607 53.085,0.607 Z M 48.565,1.066 C 52.626,1.066 52.626,1.066 52.626,1.066 52.626,3.498 52.626,3.498 52.626,3.498 48.565,3.498 48.565,3.498 48.565,3.498 Z M 38.621,1.117 C 39.644,1.117 39.644,1.117 39.644,1.117 39.672,1.145 39.699,1.172 39.727,1.200 39.727,3.370 39.727,3.370 39.727,3.370 39.697,3.402 39.668,3.433 39.638,3.465 38.628,3.465 38.628,3.465 38.628,3.465 38.598,3.433 38.568,3.402 38.538,3.370 38.538,1.200 38.538,1.200 38.538,1.200 38.566,1.172 38.594,1.145 38.621,1.117 Z M 45.954,1.117 C 46.977,1.117 46.977,1.117 46.977,1.117 47.004,1.145 47.032,1.172 47.060,1.200 47.060,3.370 47.060,3.370 47.060,3.370 47.030,3.402 47.000,3.433 46.970,3.465 45.960,3.465 45.960,3.465 45.960,3.465 45.930,3.433 45.901,3.402 45.871,3.370 45.871,1.200 45.871,1.200 45.871,1.200 45.899,1.172 45.926,1.145 45.954,1.117 Z M 30.789,1.392 C 38.211,1.392 38.211,1.392 38.211,1.392 38.211,3.172 38.211,3.172 38.211,3.172 30.789,3.172 30.789,3.172 30.789,3.172 Z M 40.055,1.392 C 45.543,1.392 45.543,1.392 45.543,1.392 45.543,3.172 45.543,3.172 45.543,3.172 40.055,3.172 40.055,3.172 40.055,3.172 Z M 47.387,1.392 C 47.956,1.392 47.956,1.392 47.956,1.392 48.284,1.392 48.284,1.392 48.284,1.392 48.284,3.172 48.284,3.172 48.284,3.172 47.956,3.172 47.956,3.172 47.956,3.172 47.387,3.172 47.387,3.172 47.387,3.172 Z M 78.478,2.728 C 78.612,2.728 78.612,2.728 78.612,2.728 78.743,3.123 78.874,3.518 79.005,3.913 79.043,4.027 79.043,4.027 79.043,4.027 78.478,4.027 78.478,4.027 78.478,4.027 78.478,3.913 78.478,3.913 78.478,3.913 Z M 40.055,3.499 C 45.543,3.499 45.543,3.499 45.543,3.499 45.543,3.499 45.543,3.499 45.543,3.499 45.543,3.499 45.543,3.499 45.543,3.499 45.543,3.630 45.543,3.630 45.543,3.630 45.744,3.844 45.744,3.844 45.744,3.844 45.744,3.996 45.744,3.996 45.744,3.996 39.854,3.996 39.854,3.996 39.854,3.996 39.854,3.844 39.854,3.844 39.854,3.844 40.055,3.630 40.055,3.630 40.055,3.630 40.055,3.499 40.055,3.499 40.055,3.499 Z M 45.818,3.793 C 45.818,3.793 45.818,3.793 45.818,3.793 45.818,3.996 45.818,3.996 45.818,3.996 45.818,3.996 45.818,3.996 45.818,3.996 Z M 38.775,3.793 C 39.490,3.793 39.490,3.793 39.490,3.793 39.490,3.996 39.490,3.996 39.490,3.996 38.775,3.996 38.775,3.996 38.775,3.996 Z M 46.108,3.793 C 46.823,3.793 46.823,3.793 46.823,3.793 46.823,3.996 46.823,3.996 46.823,3.996 46.108,3.996 46.108,3.996 46.108,3.996 Z M 80.878,4.171 C 82.003,4.171 82.003,4.171 82.003,4.171 82.003,6.651 82.003,6.651 82.003,6.651 82.003,10.619 82.003,10.619 82.003,10.619 80.878,10.619 80.878,10.619 80.878,10.619 Z M 65.038,4.395 C 80.599,4.395 80.599,4.395 80.599,4.395 80.599,4.792 80.599,4.792 80.599,4.792 65.038,4.792 65.038,4.792 65.038,4.792 Z M 19.790,4.399 C 22.203,4.399 22.203,4.399 22.203,4.399 22.203,10.679 22.203,10.679 22.203,10.679 21.830,10.679 21.830,10.679 21.830,10.679 21.830,6.234 21.830,6.234 21.830,6.234 20.211,6.234 20.211,6.234 20.211,6.234 20.211,10.679 20.211,10.679 20.211,10.679 19.790,10.679 19.790,10.679 19.790,10.679 Z M 31.103,4.422 C 64.744,4.422 64.744,4.422 64.744,4.422 64.744,5.152 64.744,5.152 64.744,5.152 31.103,5.152 31.103,5.152 31.103,5.152 Z M 72.173,4.431 C 72.158,4.431 72.143,4.431 72.127,4.431 71.219,4.431 70.311,4.431 69.403,4.431 69.397,4.431 69.397,4.431 69.397,4.431 69.344,4.433 69.293,4.463 69.266,4.508 69.234,4.558 69.233,4.625 69.263,4.676 69.290,4.723 69.341,4.755 69.395,4.758 69.441,4.758 69.488,4.758 69.534,4.758 70.426,4.758 71.317,4.758 72.209,4.758 72.263,4.758 72.316,4.728 72.345,4.682 72.376,4.633 72.379,4.568 72.351,4.517 72.325,4.468 72.274,4.435 72.219,4.431 72.204,4.431 72.188,4.431 72.173,4.431 Z M 80.093,4.431 C 80.078,4.431 80.062,4.431 80.047,4.431 79.139,4.431 78.231,4.431 77.322,4.431 77.317,4.431 77.317,4.431 77.317,4.431 77.264,4.433 77.213,4.463 77.186,4.508 77.154,4.558 77.153,4.625 77.183,4.676 77.210,4.723 77.261,4.755 77.315,4.758 77.361,4.758 77.408,4.758 77.454,4.758 78.345,4.758 79.237,4.758 80.129,4.758 80.183,4.758 80.236,4.728 80.265,4.682 80.296,4.633 80.298,4.568 80.270,4.517 80.245,4.468 80.193,4.435 80.139,4.431 80.123,4.431 80.108,4.431 80.093,4.431 Z M 68.187,4.431 C 68.164,4.431 68.141,4.431 68.118,4.431 67.226,4.431 66.335,4.431 65.443,4.431 65.437,4.431 65.437,4.431 65.437,4.431 65.384,4.433 65.334,4.463 65.306,4.508 65.274,4.558 65.273,4.625 65.303,4.676 65.330,4.723 65.381,4.755 65.435,4.758 65.482,4.758 65.528,4.758 65.574,4.758 66.466,4.758 67.357,4.758 68.249,4.758 68.303,4.758 68.356,4.728 68.385,4.682 68.417,4.632 68.419,4.564 68.389,4.513 68.362,4.466 68.311,4.434 68.257,4.431 68.234,4.431 68.210,4.431 68.187,4.431 Z M 76.107,4.431 C 76.084,4.431 76.060,4.431 76.037,4.431 75.146,4.431 74.254,4.431 73.363,4.431 73.357,4.431 73.357,4.431 73.357,4.431 73.304,4.433 73.253,4.463 73.226,4.508 73.194,4.558 73.193,4.625 73.223,4.676 73.250,4.723 73.301,4.755 73.355,4.758 73.401,4.758 73.448,4.758 73.494,4.758 74.386,4.758 75.277,4.758 76.169,4.758 76.223,4.758 76.276,4.728 76.305,4.682 76.337,4.632 76.339,4.564 76.309,4.513 76.282,4.466 76.231,4.434 76.176,4.431 76.153,4.431 76.130,4.431 76.107,4.431 Z M 19.561,4.462 C 19.561,10.616 19.561,10.616 19.561,10.616 19.473,10.554 19.385,10.491 19.298,10.429 19.298,4.648 19.298,4.648 19.298,4.648 19.385,4.586 19.473,4.524 19.561,4.462 Z M 65.449,4.529 C 65.459,4.529 65.469,4.530 65.478,4.529 68.247,4.529 68.247,4.529 68.247,4.529 68.277,4.528 68.305,4.551 68.311,4.580 68.317,4.609 68.302,4.640 68.276,4.653 68.257,4.663 68.236,4.659 68.215,4.660 67.292,4.660 66.368,4.660 65.444,4.660 65.413,4.660 65.384,4.634 65.380,4.604 65.376,4.575 65.393,4.544 65.421,4.534 65.430,4.530 65.440,4.529 65.449,4.529 Z M 69.409,4.529 C 69.419,4.529 69.429,4.530 69.438,4.529 72.206,4.529 72.206,4.529 72.206,4.529 72.236,4.528 72.265,4.551 72.271,4.580 72.277,4.609 72.262,4.640 72.236,4.653 72.217,4.663 72.196,4.659 72.175,4.660 71.251,4.660 70.328,4.660 69.404,4.660 69.373,4.660 69.344,4.634 69.340,4.604 69.336,4.575 69.353,4.544 69.381,4.534 69.390,4.530 69.399,4.529 69.409,4.529 Z M 73.369,4.529 C 73.379,4.529 73.388,4.530 73.398,4.529 76.166,4.529 76.166,4.529 76.166,4.529 76.196,4.528 76.225,4.551 76.230,4.580 76.237,4.609 76.222,4.640 76.196,4.653 76.177,4.663 76.155,4.659 76.135,4.660 75.211,4.660 74.287,4.660 73.363,4.660 73.332,4.660 73.304,4.634 73.300,4.604 73.295,4.575 73.313,4.544 73.341,4.534 73.350,4.530 73.359,4.529 73.369,4.529 Z M 77.329,4.529 C 77.338,4.529 77.348,4.530 77.358,4.529 80.126,4.529 80.126,4.529 80.126,4.529 80.156,4.528 80.184,4.551 80.190,4.580 80.197,4.609 80.182,4.640 80.156,4.653 80.137,4.663 80.115,4.659 80.095,4.660 79.171,4.660 78.247,4.660 77.323,4.660 77.292,4.660 77.264,4.634 77.260,4.604 77.255,4.575 77.273,4.544 77.301,4.534 77.310,4.530 77.319,4.529 77.329,4.529 Z M 30.808,4.558 C 30.808,9.339 30.808,9.339 30.808,9.339 30.466,9.684 30.466,9.684 30.466,9.684 30.466,9.166 30.466,9.166 30.466,9.166 30.466,5.004 30.466,5.004 30.466,5.004 Z M 22.482,4.868 C 30.187,4.868 30.187,4.868 30.187,4.868 30.187,5.086 30.187,5.086 30.187,5.086 22.482,5.086 22.482,5.086 22.482,5.086 Z M 65.038,5.029 C 80.599,5.029 80.599,5.029 80.599,5.029 80.599,6.661 80.599,6.661 80.599,6.661 65.038,6.661 65.038,6.661 65.038,6.661 Z M 22.482,5.321 C 30.187,5.321 30.187,5.321 30.187,5.321 30.187,6.366 30.187,6.366 30.187,6.366 22.482,6.366 22.482,6.366 22.482,6.366 Z M 31.103,5.335 C 64.744,5.335 64.744,5.335 64.744,5.335 64.744,9.144 64.744,9.144 64.744,9.144 62.154,9.144 62.154,9.144 62.154,9.144 62.154,8.890 62.154,8.636 62.153,8.382 62.149,8.198 62.041,8.022 61.879,7.935 61.793,7.887 61.694,7.865 61.595,7.870 61.416,7.877 61.244,7.983 61.158,8.141 61.106,8.231 61.086,8.337 61.091,8.441 61.091,9.144 61.091,9.144 61.091,9.144 56.569,9.144 56.569,9.144 56.569,9.144 56.569,6.014 56.569,6.014 56.569,6.014 32.164,6.014 32.164,6.014 32.164,6.014 32.164,6.030 32.164,6.030 32.164,6.030 32.164,9.144 32.164,9.144 32.164,9.144 31.103,9.144 31.103,9.144 31.103,9.144 Z M 32.344,6.194 C 56.389,6.194 56.389,6.194 56.389,6.194 56.389,9.146 56.389,9.146 56.389,9.146 52.751,9.146 52.751,9.146 52.751,9.146 52.751,8.294 52.751,7.441 52.751,6.589 48.584,6.589 48.584,6.589 48.584,6.589 48.584,6.605 48.584,6.605 48.584,6.605 48.584,9.146 48.584,9.146 48.584,9.146 40.020,9.146 40.020,9.146 40.020,9.146 40.020,8.080 40.020,8.080 40.020,8.080 40.852,8.080 40.852,8.080 40.852,8.080 40.852,6.705 40.852,6.705 40.852,6.705 38.181,6.705 35.511,6.705 32.840,6.705 32.840,6.722 32.840,6.722 32.840,6.722 32.840,8.080 32.840,8.080 32.840,8.080 34.121,8.080 34.121,8.080 34.121,8.080 34.121,9.146 34.121,9.146 34.121,9.146 32.344,9.146 32.344,9.146 32.344,9.146 Z M 59.648,6.227 C 59.648,6.243 59.648,6.243 59.648,6.243 59.648,7.336 59.648,7.336 59.648,7.336 63.671,7.336 63.671,7.336 63.671,7.336 63.671,6.227 63.671,6.227 63.671,6.227 Z M 59.828,6.407 C 63.491,6.407 63.491,6.407 63.491,6.407 63.491,7.156 63.491,7.156 63.491,7.156 59.828,7.156 59.828,7.156 59.828,7.156 Z M 20.440,6.464 C 21.601,6.464 21.601,6.464 21.601,6.464 21.601,10.679 21.601,10.679 21.601,10.679 20.440,10.679 20.440,10.679 20.440,10.679 Z M 22.482,6.530 C 30.187,6.530 30.187,6.530 30.187,6.530 30.187,7.239 30.187,7.239 30.187,7.239 22.482,7.239 22.482,7.239 22.482,7.239 Z M 52.835,6.589 C 52.835,6.605 52.835,6.605 52.835,6.605 52.835,7.860 52.835,7.860 52.835,7.860 53.148,8.174 53.460,8.488 53.773,8.802 56.370,8.802 56.370,8.802 56.370,8.802 56.370,6.589 56.370,6.589 56.370,6.589 Z M 41.453,6.705 C 41.453,6.722 41.453,6.722 41.453,6.722 41.453,8.080 41.453,8.080 41.453,8.080 48.126,8.080 48.126,8.080 48.126,8.080 48.126,6.705 48.126,6.705 48.126,6.705 45.902,6.705 43.677,6.705 41.453,6.705 Z M 48.764,6.769 C 52.571,6.769 52.571,6.769 52.571,6.769 52.571,9.173 52.571,9.173 52.571,9.173 48.764,9.173 48.764,9.173 48.764,9.173 Z M 53.016,6.769 C 56.190,6.769 56.190,6.769 56.190,6.769 56.190,8.622 56.190,8.622 56.190,8.622 53.847,8.622 53.847,8.622 53.847,8.622 53.016,7.786 53.016,7.786 53.016,7.786 Z M 48.892,6.859 C 48.892,6.875 48.892,6.875 48.892,6.875 48.892,8.006 48.892,8.006 48.892,8.006 49.072,8.006 49.072,8.006 49.072,8.006 49.072,9.120 49.072,9.120 49.072,9.120 52.263,9.120 52.263,9.120 52.263,9.120 52.263,8.006 52.263,8.006 52.263,8.006 52.443,8.006 52.443,8.006 52.443,8.006 52.443,6.859 52.443,6.859 52.443,6.859 Z M 33.003,6.869 C 40.688,6.869 40.688,6.869 40.688,6.869 40.688,7.916 40.688,7.916 40.688,7.916 40.020,7.916 40.020,7.916 40.020,7.916 40.020,7.815 40.020,7.815 40.020,7.815 39.507,7.815 39.507,7.815 39.507,7.815 39.507,7.831 39.507,7.831 39.507,7.831 39.507,7.916 39.507,7.916 39.507,7.916 34.634,7.916 34.634,7.916 34.634,7.916 34.634,7.815 34.634,7.815 34.634,7.815 34.121,7.815 34.121,7.815 34.121,7.815 34.121,7.831 34.121,7.831 34.121,7.831 34.121,7.916 34.121,7.916 34.121,7.916 33.003,7.916 33.003,7.916 33.003,7.916 Z M 41.617,6.869 C 47.963,6.869 47.963,6.869 47.963,6.869 47.963,7.916 47.963,7.916 47.963,7.916 41.617,7.916 41.617,7.916 41.617,7.916 Z M 65.038,6.955 C 80.599,6.955 80.599,6.955 80.599,6.955 80.599,8.356 80.599,8.356 80.599,8.356 65.038,8.356 65.038,8.356 65.038,8.356 Z M 49.040,7.006 C 52.295,7.006 52.295,7.006 52.295,7.006 52.295,7.290 52.295,7.574 52.295,7.858 52.115,7.858 52.115,7.858 52.115,7.858 52.115,8.973 52.115,8.973 52.115,8.973 49.220,8.973 49.220,8.973 49.220,8.973 49.220,7.858 49.220,7.858 49.220,7.858 49.040,7.858 49.040,7.858 49.040,7.858 Z M 43.335,7.027 C 42.912,7.027 42.489,7.027 42.066,7.028 42.064,7.028 42.061,7.028 42.058,7.028 41.978,7.034 41.912,7.111 41.920,7.191 41.923,7.271 41.997,7.339 42.076,7.335 42.922,7.335 43.768,7.335 44.613,7.335 44.696,7.334 44.766,7.256 44.760,7.174 44.759,7.093 44.684,7.024 44.603,7.027 44.180,7.027 43.758,7.027 43.335,7.027 Z M 46.347,7.027 C 45.924,7.027 45.502,7.027 45.079,7.028 45.076,7.028 45.074,7.028 45.071,7.028 44.991,7.034 44.925,7.111 44.932,7.191 44.935,7.271 45.009,7.339 45.089,7.335 45.935,7.335 46.780,7.335 47.626,7.335 47.708,7.334 47.779,7.256 47.773,7.174 47.771,7.093 47.697,7.024 47.616,7.027 47.193,7.027 46.770,7.027 46.347,7.027 Z M 82.413,7.079 C 82.468,7.085 82.522,7.091 82.577,7.097 83.475,7.195 84.373,7.293 85.271,7.391 85.271,8.758 85.271,8.758 85.271,8.758 84.373,8.856 83.475,8.954 82.577,9.052 82.522,9.058 82.468,9.064 82.413,9.070 Z M 47.620,7.142 C 47.646,7.143 47.668,7.171 47.654,7.196 47.648,7.217 47.625,7.222 47.606,7.219 46.793,7.221 45.980,7.221 45.167,7.220 45.130,7.217 45.087,7.232 45.056,7.207 45.034,7.183 45.057,7.134 45.091,7.143 45.934,7.141 46.777,7.142 47.620,7.142 Z M 44.608,7.142 C 44.634,7.143 44.655,7.172 44.641,7.197 44.634,7.219 44.610,7.221 44.590,7.219 43.780,7.221 42.971,7.221 42.161,7.220 42.122,7.216 42.077,7.233 42.043,7.207 42.021,7.183 42.045,7.134 42.079,7.143 42.922,7.141 43.765,7.142 44.608,7.142 Z M 49.402,7.314 C 49.402,7.331 49.402,7.331 49.402,7.331 49.402,7.814 49.402,7.814 49.402,7.814 51.928,7.814 51.928,7.814 51.928,7.814 51.928,7.314 51.928,7.314 51.928,7.314 Z M 22.482,7.403 C 30.187,7.403 30.187,7.403 30.187,7.403 30.187,8.240 30.187,8.240 30.187,8.240 22.482,8.240 22.482,8.240 22.482,8.240 Z M 49.533,7.445 C 51.797,7.445 51.797,7.445 51.797,7.445 51.797,7.683 51.797,7.683 51.797,7.683 49.533,7.683 49.533,7.683 49.533,7.683 Z M 43.335,7.470 C 42.912,7.470 42.489,7.470 42.066,7.470 42.058,7.470 42.058,7.470 42.058,7.470 41.978,7.476 41.912,7.554 41.920,7.634 41.923,7.714 41.997,7.781 42.076,7.778 42.922,7.777 43.768,7.778 44.613,7.777 44.696,7.776 44.766,7.699 44.760,7.617 44.759,7.536 44.684,7.466 44.603,7.470 44.180,7.470 43.758,7.470 43.335,7.470 Z M 46.347,7.470 C 45.924,7.470 45.502,7.470 45.079,7.470 45.071,7.470 45.071,7.470 45.071,7.470 44.991,7.476 44.925,7.553 44.932,7.634 44.935,7.714 45.009,7.781 45.089,7.778 45.935,7.777 46.780,7.778 47.626,7.777 47.708,7.776 47.779,7.699 47.773,7.617 47.771,7.536 47.697,7.466 47.616,7.470 47.193,7.470 46.770,7.470 46.347,7.470 Z M 44.600,7.584 C 44.629,7.580 44.657,7.611 44.641,7.639 44.635,7.660 44.612,7.665 44.593,7.661 43.783,7.663 42.972,7.663 42.162,7.663 42.123,7.658 42.078,7.675 42.044,7.650 42.020,7.626 42.045,7.575 42.081,7.586 42.920,7.584 43.760,7.585 44.600,7.584 Z M 47.612,7.584 C 47.641,7.581 47.669,7.611 47.654,7.639 47.647,7.660 47.625,7.665 47.606,7.661 46.793,7.663 45.980,7.663 45.168,7.663 45.130,7.659 45.085,7.676 45.054,7.647 45.035,7.621 45.060,7.576 45.093,7.586 45.933,7.584 46.773,7.585 47.612,7.584 Z M 50.447,7.903 C 50.447,7.920 50.447,7.920 50.447,7.920 50.447,8.100 50.447,8.100 50.447,8.100 50.263,8.100 50.079,8.100 49.895,8.100 49.895,8.827 49.895,8.827 49.895,8.827 51.440,8.827 51.440,8.827 51.440,8.827 51.440,8.100 51.440,8.100 51.440,8.100 51.286,8.100 51.132,8.100 50.978,8.100 50.978,7.903 50.978,7.903 50.978,7.903 Z M 34.285,7.979 C 34.470,7.979 34.470,7.979 34.470,7.979 34.470,9.206 34.470,9.206 34.470,9.206 34.285,9.206 34.285,9.206 34.285,9.206 Z M 39.671,7.979 C 39.856,7.979 39.856,7.979 39.856,7.979 39.856,9.206 39.856,9.206 39.856,9.206 39.671,9.206 39.671,9.206 39.671,9.206 Z M 50.578,8.034 C 50.847,8.034 50.847,8.034 50.847,8.034 50.847,8.231 50.847,8.231 50.847,8.231 51.308,8.231 51.308,8.231 51.308,8.231 51.308,8.696 51.308,8.696 51.308,8.696 50.026,8.696 50.026,8.696 50.026,8.696 50.026,8.231 50.026,8.231 50.026,8.231 50.578,8.231 50.578,8.231 50.578,8.231 Z M 61.619,8.049 C 61.720,8.047 61.820,8.092 61.885,8.168 61.942,8.232 61.977,8.317 61.971,8.404 61.975,9.029 61.974,9.654 61.974,10.279 61.271,10.279 61.271,10.279 61.271,10.279 61.271,9.692 61.272,9.105 61.271,8.518 61.271,8.446 61.267,8.376 61.283,8.306 61.322,8.160 61.467,8.047 61.619,8.049 Z M 34.634,8.080 C 39.507,8.080 39.507,8.080 39.507,8.080 39.507,8.385 39.507,8.385 39.507,8.385 39.436,8.320 39.365,8.255 39.294,8.190 34.828,8.190 34.828,8.190 34.828,8.190 34.827,8.192 34.825,8.193 34.824,8.195 34.760,8.252 34.697,8.310 34.634,8.367 Z M 34.898,8.371 C 35.501,8.371 35.501,8.371 35.501,8.371 35.501,9.041 35.501,9.041 35.501,9.041 34.898,9.041 34.898,9.041 34.898,9.041 34.810,8.961 34.722,8.881 34.634,8.801 34.634,8.611 34.634,8.611 34.634,8.611 34.722,8.531 34.810,8.451 34.898,8.371 Z M 35.656,8.371 C 38.446,8.371 38.446,8.371 38.446,8.371 38.446,9.041 38.446,9.041 38.446,9.041 35.656,9.041 35.656,9.041 35.656,9.041 Z M 38.601,8.371 C 39.224,8.371 39.224,8.371 39.224,8.371 39.318,8.456 39.413,8.542 39.507,8.628 39.507,8.783 39.507,8.783 39.507,8.783 39.413,8.869 39.318,8.955 39.224,9.041 38.601,9.041 38.601,9.041 38.601,9.041 Z M 22.482,8.389 C 30.187,8.389 30.187,8.389 30.187,8.389 30.187,8.871 30.187,8.871 30.187,8.871 22.482,8.871 22.482,8.871 22.482,8.871 Z M 65.038,8.651 C 80.599,8.651 80.599,8.651 80.599,8.651 80.599,10.279 80.599,10.279 80.599,10.279 80.365,10.279 80.365,10.279 80.365,10.279 80.365,9.148 80.365,9.148 80.365,9.148 76.860,9.148 76.860,9.148 76.860,9.148 76.860,10.279 76.860,10.279 76.860,10.279 75.841,10.279 75.841,10.279 75.841,10.279 75.841,9.148 75.841,9.148 75.841,9.148 66.220,9.148 66.220,9.148 66.220,9.148 66.220,10.279 66.220,10.279 66.220,10.279 65.038,10.279 65.038,10.279 65.038,10.279 Z M 39.507,9.027 C 39.507,9.370 39.507,9.370 39.507,9.370 40.020,9.370 40.020,9.370 40.020,9.370 40.020,9.327 40.020,9.327 40.020,9.327 48.584,9.327 48.584,9.327 48.584,9.327 48.584,9.354 48.584,9.354 48.584,9.354 52.751,9.354 52.751,9.354 52.751,9.354 52.751,9.327 52.751,9.327 52.751,9.327 56.569,9.327 56.569,9.327 56.569,9.327 61.091,9.327 61.091,9.327 61.091,9.327 61.091,10.279 61.091,10.279 61.091,10.279 43.706,10.279 43.706,10.279 43.706,10.279 34.022,10.279 34.022,10.279 34.022,10.279 30.466,10.279 30.466,10.279 30.466,10.279 30.466,10.102 30.466,10.102 30.466,10.102 30.567,10.000 30.567,10.000 30.567,10.000 30.760,9.806 30.760,9.806 30.760,9.806 30.954,9.611 30.954,9.611 30.954,9.611 31.033,9.542 31.103,9.448 31.103,9.339 31.103,9.327 31.103,9.327 31.103,9.327 32.197,9.327 32.197,9.327 32.197,9.327 34.121,9.327 34.121,9.327 34.121,9.327 34.121,9.370 34.121,9.370 34.121,9.370 34.634,9.370 34.634,9.370 34.634,9.370 34.634,9.327 34.634,9.327 34.634,9.327 39.507,9.327 39.507,9.327 39.507,9.327 39.507,9.146 39.507,9.146 39.507,9.146 39.376,9.146 39.376,9.146 39.376,9.146 39.420,9.106 39.464,9.066 39.507,9.027 Z M 34.634,9.044 C 34.671,9.078 34.709,9.112 34.746,9.146 34.634,9.146 34.634,9.146 34.634,9.146 Z M 26.271,9.166 C 30.187,9.166 30.187,9.166 30.187,9.166 30.187,9.444 30.187,9.444 30.187,9.444 30.187,10.558 30.187,10.558 30.187,10.558 33.744,10.558 33.744,10.558 33.744,10.558 33.744,16.341 33.744,16.341 33.744,16.341 32.686,18.624 31.627,20.907 30.569,23.190 30.626,23.621 30.682,24.052 30.738,24.483 30.620,24.507 30.502,24.532 30.384,24.557 28.679,23.895 26.974,23.233 25.269,22.571 25.202,22.441 25.134,22.310 25.067,22.179 25.277,21.510 25.481,20.839 25.703,20.175 26.071,19.084 26.470,17.998 27.017,16.982 27.513,16.109 28.021,15.244 28.526,14.377 28.656,14.143 28.719,13.879 28.758,13.616 28.825,13.177 28.749,12.724 28.579,12.316 28.379,11.842 28.093,11.413 27.810,10.987 27.380,10.473 26.949,9.958 26.519,9.444 Z M 66.384,9.312 C 66.401,9.312 66.401,9.312 66.401,9.312 75.677,9.312 75.677,9.312 75.677,9.312 75.677,10.279 75.677,10.279 75.677,10.279 66.384,10.279 66.384,10.279 66.384,10.279 Z M 77.024,9.312 C 77.041,9.312 77.041,9.312 77.041,9.312 80.201,9.312 80.201,9.312 80.201,9.312 80.201,10.279 80.201,10.279 80.201,10.279 77.024,10.279 77.024,10.279 77.024,10.279 Z M 62.154,9.327 C 64.744,9.327 64.744,9.327 64.744,9.327 64.744,9.985 64.744,9.985 64.744,9.985 64.744,10.279 64.744,10.279 64.744,10.279 62.154,10.279 62.154,10.279 62.154,10.279 62.154,9.962 62.154,9.644 62.154,9.327 Z M 34.022,10.558 C 43.369,10.558 43.369,10.558 43.369,10.558 43.427,10.558 43.427,10.558 43.427,10.558 43.706,10.558 43.706,10.558 43.706,10.558 43.706,11.589 43.706,11.589 43.706,11.589 43.427,11.589 43.427,11.589 43.427,11.589 43.369,11.589 43.369,11.589 43.369,11.589 43.260,11.589 43.260,11.589 43.260,11.589 41.583,11.589 41.583,11.589 41.583,11.589 41.560,11.589 41.537,11.588 41.514,11.589 41.353,11.590 41.188,11.605 41.043,11.680 40.880,11.769 40.767,11.925 40.680,12.085 39.658,14.642 40.680,12.085 39.658,14.642 39.623,14.823 39.642,15.024 39.748,15.180 39.852,15.332 40.034,15.414 40.214,15.428 43.260,15.428 43.260,15.428 43.260,15.428 43.260,15.433 43.260,15.433 43.260,15.433 43.175,15.515 43.072,15.579 42.965,15.629 42.748,15.730 42.512,15.775 42.275,15.788 39.827,15.790 36.603,15.790 34.022,15.791 34.022,15.248 34.022,15.248 34.022,15.248 35.350,15.248 37.104,15.248 38.224,15.247 38.466,15.257 38.706,15.188 38.916,15.071 39.173,14.922 39.404,14.724 39.579,14.483 39.708,14.271 39.816,14.048 39.917,13.822 40.055,13.511 40.181,13.195 40.299,12.877 40.399,12.647 40.400,12.375 40.295,12.147 40.163,11.871 39.890,11.663 39.585,11.623 38.022,11.622 35.760,11.621 34.022,11.621 Z M 43.984,10.558 C 57.819,10.558 57.819,10.558 57.819,10.558 44.616,11.738 44.616,11.738 44.616,11.738 44.616,15.541 44.616,15.541 44.616,15.541 44.405,15.581 44.195,15.620 43.984,15.660 Z M 60.028,10.558 C 66.988,10.558 66.988,10.558 66.988,10.558 66.989,11.020 66.989,11.482 66.989,11.944 66.592,11.992 66.196,12.043 65.799,12.094 65.799,11.167 65.799,11.167 65.799,11.167 65.799,11.025 65.750,10.980 65.612,10.980 61.321,10.980 61.321,10.980 61.321,10.980 47.026,12.551 47.026,12.551 47.026,12.551 46.951,12.565 46.831,12.613 46.831,12.746 46.831,15.126 46.831,15.126 46.831,15.126 46.158,15.250 45.485,15.377 44.813,15.504 44.813,11.918 44.813,11.918 44.813,11.918 49.884,11.464 54.956,11.011 60.028,10.558 Z M 34.866,11.019 C 34.769,11.019 34.691,11.097 34.691,11.194 34.691,11.291 34.769,11.370 34.866,11.370 35.848,11.370 35.848,11.370 35.848,11.370 35.945,11.370 36.023,11.291 36.023,11.194 36.023,11.097 35.945,11.019 35.848,11.019 Z M 42.085,11.019 C 41.988,11.019 41.910,11.097 41.910,11.194 41.910,11.291 41.988,11.370 42.085,11.370 43.068,11.370 43.068,11.370 43.068,11.370 43.165,11.370 43.243,11.291 43.243,11.194 43.243,11.097 43.165,11.019 43.068,11.019 Z M 35.832,11.133 C 35.848,11.133 35.864,11.134 35.878,11.142 35.924,11.163 35.913,11.238 35.867,11.252 35.569,11.257 35.271,11.254 34.973,11.255 34.929,11.250 34.882,11.264 34.840,11.248 34.790,11.230 34.799,11.153 34.845,11.137 34.926,11.134 35.008,11.135 35.089,11.134 35.332,11.133 35.574,11.135 35.817,11.133 35.822,11.133 35.827,11.132 35.832,11.133 Z M 43.056,11.133 C 43.070,11.133 43.085,11.135 43.098,11.142 43.143,11.163 43.133,11.238 43.087,11.252 42.788,11.257 42.488,11.254 42.189,11.255 42.146,11.251 42.102,11.264 42.061,11.249 42.023,11.236 42.016,11.185 42.039,11.156 42.056,11.128 42.092,11.138 42.119,11.136 42.427,11.132 42.734,11.134 43.042,11.133 43.047,11.133 43.051,11.133 43.056,11.133 Z M 65.371,11.160 C 65.453,11.160 65.534,11.160 65.616,11.161 65.620,11.480 65.619,11.799 65.619,12.117 65.060,12.189 64.502,12.263 63.943,12.339 63.943,12.106 63.943,12.106 63.943,12.106 63.943,11.896 63.774,11.726 63.563,11.726 63.353,11.726 63.183,11.896 63.183,12.106 63.183,12.443 63.183,12.443 63.183,12.443 62.906,12.482 62.628,12.521 62.351,12.560 62.351,12.163 62.351,12.163 62.351,12.163 62.351,11.953 62.182,11.783 61.971,11.783 61.761,11.783 61.591,11.953 61.591,12.163 61.591,12.669 61.591,12.669 61.591,12.669 61.322,12.708 61.054,12.748 60.785,12.787 60.785,12.283 60.785,12.283 60.785,12.283 60.785,12.072 60.616,11.903 60.405,11.903 60.195,11.903 60.025,12.072 60.025,12.283 60.025,12.901 60.025,12.901 60.025,12.901 59.755,12.941 59.486,12.983 59.216,13.024 59.216,12.408 59.216,12.408 59.216,12.408 59.216,12.198 59.047,12.028 58.836,12.028 58.626,12.028 58.456,12.198 58.456,12.408 58.456,13.142 58.456,13.142 58.456,13.142 58.190,13.183 57.925,13.223 57.659,13.265 57.659,12.582 57.659,12.582 57.659,12.582 57.659,12.371 57.489,12.202 57.279,12.202 57.068,12.202 56.899,12.371 56.899,12.582 56.899,13.387 56.899,13.387 56.899,13.387 56.626,13.431 56.352,13.475 56.079,13.519 56.079,12.789 56.079,12.789 56.079,12.789 56.079,12.579 55.910,12.409 55.699,12.409 55.489,12.409 55.319,12.579 55.319,12.789 55.319,13.643 55.319,13.643 55.319,13.643 55.081,13.682 54.842,13.722 54.604,13.761 54.604,12.963 54.604,12.963 54.604,12.963 54.604,12.753 54.434,12.583 54.224,12.583 54.013,12.583 53.844,12.753 53.844,12.963 53.844,13.888 53.844,13.888 53.844,13.888 53.606,13.928 53.369,13.968 53.131,14.009 53.131,13.080 53.131,13.080 53.131,13.080 53.131,12.869 52.962,12.700 52.751,12.700 52.541,12.700 52.371,12.869 52.371,13.080 52.371,14.138 52.371,14.138 52.371,14.138 52.105,14.184 51.840,14.230 51.574,14.276 51.574,13.253 51.574,13.253 51.574,13.253 51.574,13.043 51.405,12.874 51.194,12.874 50.984,12.874 50.814,13.043 50.814,13.253 50.814,14.409 50.814,14.409 50.814,14.409 50.589,14.448 50.364,14.488 50.139,14.528 50.139,13.461 50.139,13.461 50.139,13.461 50.139,13.250 49.970,13.081 49.759,13.081 49.549,13.081 49.379,13.250 49.379,13.461 49.379,14.663 49.379,14.663 49.379,14.663 49.114,14.711 48.848,14.758 48.582,14.806 48.582,13.635 48.582,13.635 48.582,13.635 48.582,13.424 48.413,13.255 48.202,13.255 47.992,13.255 47.822,13.424 47.822,13.635 47.822,14.945 47.822,14.945 47.822,14.945 47.552,14.994 47.281,15.043 47.011,15.093 47.011,13.428 47.011,13.428 47.011,13.428 47.012,13.204 47.009,12.981 47.013,12.757 47.010,12.734 47.041,12.735 47.057,12.729 51.670,12.222 56.283,11.715 60.897,11.208 61.052,11.194 61.209,11.167 61.364,11.163 62.570,11.159 63.775,11.161 64.981,11.161 65.030,11.161 65.078,11.161 65.127,11.161 65.208,11.161 65.290,11.160 65.371,11.160 Z M 41.529,11.867 C 43.706,11.867 43.706,11.867 43.706,11.867 43.701,15.154 43.701,15.154 43.701,15.154 40.308,15.154 40.308,15.154 40.308,15.154 39.839,15.154 39.890,14.775 39.977,14.514 40.914,12.237 40.914,12.237 40.914,12.237 41.086,11.920 41.190,11.867 41.529,11.867 Z M 34.022,11.899 C 39.544,11.899 39.544,11.899 39.544,11.899 39.717,11.899 40.213,12.158 40.070,12.692 39.953,13.022 39.654,13.806 39.364,14.309 39.331,14.366 38.858,14.970 38.287,14.970 34.022,14.970 34.022,14.970 34.022,14.970 Z M 63.555,11.923 C 63.633,11.917 63.710,11.971 63.736,12.045 63.750,12.151 63.748,12.258 63.747,12.366 63.696,12.373 63.646,12.379 63.596,12.386 63.524,12.396 63.452,12.406 63.380,12.416 63.380,12.318 63.380,12.220 63.380,12.122 63.370,12.022 63.454,11.925 63.555,11.923 Z M 61.955,11.980 C 62.039,11.972 62.122,12.029 62.147,12.109 62.158,12.268 62.155,12.428 62.154,12.588 62.032,12.606 61.910,12.623 61.788,12.641 61.788,12.486 61.788,12.331 61.788,12.177 61.779,12.080 61.859,11.987 61.955,11.980 Z M 60.397,12.100 C 60.478,12.094 60.557,12.152 60.580,12.229 60.593,12.424 60.589,12.620 60.588,12.816 60.466,12.834 60.344,12.853 60.222,12.871 60.222,12.683 60.222,12.496 60.223,12.308 60.207,12.206 60.293,12.100 60.397,12.100 Z M 58.829,12.225 C 58.910,12.220 58.990,12.279 59.012,12.357 59.023,12.589 59.019,12.822 59.020,13.055 58.897,13.073 58.775,13.092 58.653,13.111 58.653,13.035 58.653,12.958 58.653,12.882 58.653,12.728 58.655,12.573 58.653,12.419 58.645,12.321 58.730,12.226 58.829,12.225 Z M 30.096,12.239 C 29.656,12.239 29.519,12.393 29.519,12.628 29.468,14.219 29.468,14.219 29.468,14.219 29.468,14.546 27.440,17.053 27.203,17.937 25.846,21.585 25.846,21.585 25.846,21.585 25.787,21.787 25.962,21.978 26.698,22.222 28.788,22.970 28.788,22.970 28.788,22.970 29.564,23.232 29.865,23.358 30.024,23.082 30.024,23.082 33.280,15.673 33.280,15.578 33.280,15.480 32.208,12.479 32.208,12.479 32.164,12.347 32.058,12.239 31.950,12.239 31.027,12.239 31.446,12.282 30.996,12.282 30.404,12.282 30.973,12.239 30.096,12.239 Z M 57.273,12.399 C 57.355,12.393 57.434,12.454 57.456,12.533 57.466,12.787 57.462,13.042 57.462,13.297 57.340,13.316 57.218,13.336 57.096,13.356 57.096,13.106 57.095,12.857 57.097,12.608 57.079,12.505 57.168,12.398 57.273,12.399 Z M 31.928,12.435 C 31.940,12.436 31.952,12.441 31.961,12.448 32.005,12.486 32.021,12.546 32.040,12.599 32.295,13.308 32.546,14.019 32.793,14.731 32.888,15.010 32.989,15.288 33.074,15.571 33.020,15.703 32.966,15.835 32.910,15.966 31.942,18.223 30.953,20.472 29.968,22.722 29.926,22.811 29.892,22.904 29.847,22.992 29.826,23.039 29.766,23.046 29.720,23.038 29.588,23.025 29.455,22.984 29.329,22.944 28.774,22.759 28.225,22.560 27.675,22.363 27.338,22.242 27.002,22.122 26.665,22.002 26.477,21.931 26.282,21.867 26.117,21.748 26.083,21.721 26.034,21.694 26.034,21.645 26.237,21.100 26.439,20.556 26.641,20.011 26.882,19.362 27.126,18.714 27.364,18.064 27.415,17.912 27.474,17.761 27.548,17.617 27.808,17.130 28.115,16.671 28.426,16.215 28.748,15.738 29.085,15.272 29.396,14.788 29.495,14.623 29.612,14.463 29.659,14.274 29.681,13.764 29.695,13.254 29.712,12.745 29.719,12.677 29.705,12.607 29.730,12.543 29.756,12.488 29.820,12.469 29.875,12.456 30.042,12.428 30.212,12.436 30.381,12.439 30.459,12.439 30.537,12.442 30.613,12.454 30.699,12.469 30.786,12.475 30.873,12.477 30.999,12.479 31.125,12.480 31.250,12.465 31.471,12.433 31.693,12.439 31.916,12.435 31.920,12.435 31.924,12.435 31.928,12.435 Z M 55.694,12.606 C 55.776,12.602 55.854,12.662 55.876,12.740 55.887,13.010 55.882,13.280 55.883,13.551 55.801,13.564 55.718,13.577 55.636,13.591 55.596,13.597 55.556,13.604 55.516,13.610 55.516,13.344 55.516,13.077 55.516,12.810 55.503,12.708 55.591,12.606 55.694,12.606 Z M 54.215,12.780 C 54.299,12.774 54.380,12.836 54.401,12.916 54.410,13.209 54.407,13.501 54.407,13.794 54.285,13.814 54.163,13.834 54.040,13.855 54.040,13.561 54.041,13.268 54.041,12.974 54.032,12.876 54.117,12.783 54.215,12.780 Z M 52.769,12.897 C 52.845,12.905 52.913,12.963 52.930,13.039 52.936,13.373 52.935,13.707 52.935,14.042 52.812,14.063 52.690,14.083 52.568,14.104 52.568,13.831 52.568,13.831 52.568,13.831 52.567,13.583 52.569,13.335 52.568,13.088 52.561,12.993 52.642,12.903 52.736,12.897 52.747,12.896 52.758,12.896 52.769,12.897 Z M 51.181,13.070 C 51.267,13.063 51.353,13.126 51.373,13.211 51.380,13.577 51.377,13.944 51.378,14.310 51.255,14.331 51.133,14.353 51.011,14.374 51.011,14.009 51.011,13.644 51.012,13.279 50.995,13.178 51.079,13.075 51.181,13.070 Z M 49.746,13.278 C 49.834,13.270 49.920,13.336 49.939,13.422 49.944,13.802 49.943,14.182 49.943,14.562 49.820,14.584 49.698,14.606 49.576,14.628 49.576,14.243 49.576,13.859 49.576,13.475 49.567,13.377 49.648,13.283 49.746,13.278 Z M 48.216,13.451 C 48.295,13.458 48.367,13.519 48.382,13.599 48.386,14.013 48.386,14.427 48.386,14.842 48.263,14.864 48.141,14.886 48.019,14.909 48.019,14.512 48.019,14.116 48.019,13.720 48.023,13.674 48.011,13.627 48.026,13.582 48.047,13.516 48.109,13.459 48.182,13.452 48.193,13.451 48.205,13.450 48.216,13.451 Z " />
</svg>