<?xml version="1.0" encoding="UTF-8" standalone="no"?>
<!DOCTYPE svg PUBLIC "-//W3C//DTD SVG 20010904//EN" "http://www.w3.org/TR/2001/REC-SVG-20010904/DTD/svg10.dtd"[]>
<svg version="1.1" id="Frosty Editor v1.0.6.3" xmlns="http://www.w3.org/2000/svg" d1p1:xlink="http://www.w3.org/1999/xlink" viewBox="0 0 384 96" xmlns:d1p1="xmlns">
  <path stroke="none" fill="#ffffffff" d="M 161.380,44.710 C 165.297,44.710 169.213,44.710 173.130,44.710 173.130,46.280 173.130,47.850 173.130,49.420 169.213,49.420 165.297,49.420 161.380,49.420 161.380,47.850 161.380,46.280 161.380,44.710 Z M 160.380,50.420 C 164.963,50.420 169.547,50.420 174.130,50.420 174.130,48.183 174.130,45.947 174.130,43.710 169.547,43.710 164.963,43.710 160.380,43.710 160.380,45.947 160.380,48.183 160.380,50.420 Z " />
  <path stroke="none" fill="#ffffffff" d="M 136.750,71.590 C 135.417,71.590 134.083,71.590 132.750,71.590 133.375,70.622 133.375,69.378 132.750,68.410 131.383,66.455 131.305,63.875 132.550,61.840 133.950,61.840 135.350,61.840 136.750,61.840 139.357,61.958 141.409,64.106 141.409,66.715 141.409,69.324 139.357,71.472 136.750,71.590 136.750,71.590 136.750,71.590 136.750,71.590 Z M 124.880,66.710 C 124.886,64.023 127.063,61.846 129.750,61.840 130.310,61.840 130.870,61.840 131.430,61.840 130.272,64.130 130.460,66.870 131.920,68.980 132.720,70.160 131.580,71.480 131.480,71.590 130.903,71.590 130.327,71.590 129.750,71.590 127.059,71.584 124.880,69.401 124.880,66.710 124.880,66.710 124.880,66.710 124.880,66.710 Z M 136.750,60.830 C 134.417,60.830 132.083,60.830 129.750,60.830 127.593,60.741 125.561,61.841 124.456,63.695 123.351,65.550 123.351,67.860 124.456,69.715 125.561,71.569 127.593,72.669 129.750,72.580 132.083,72.580 134.417,72.580 136.750,72.580 139.901,72.450 142.388,69.858 142.388,66.705 142.388,63.552 139.900,60.960 136.750,60.830 136.750,60.830 136.750,60.830 136.750,60.830 Z " />
  <path stroke="none" fill="#ffffffff" d="M 317.900,40.790 C 317.900,41.310 317.900,41.830 317.900,42.350 316.733,42.350 315.567,42.350 314.400,42.350 314.400,41.817 314.400,41.283 314.400,40.750 315.567,40.763 316.733,40.777 317.900,40.790 Z M 319.900,40.000 C 320.443,40.000 320.987,40.000 321.530,40.000 321.530,41.103 321.530,42.207 321.530,43.310 320.987,43.310 320.443,43.310 319.900,43.310 319.900,42.207 319.900,41.103 319.900,40.000 Z M 254.920,44.180 C 254.920,42.677 254.920,41.173 254.920,39.670 255.533,39.670 256.147,39.670 256.760,39.670 256.760,40.810 256.760,41.950 256.760,43.090 257.400,43.090 258.040,43.090 258.680,43.090 258.680,43.457 258.680,43.823 258.680,44.190 257.427,44.187 256.173,44.183 254.920,44.180 Z M 252.690,44.180 C 251.773,44.493 250.857,44.807 249.940,45.120 249.293,45.120 248.647,45.120 248.000,45.120 248.000,42.747 248.000,40.373 248.000,38.000 234.273,38.000 220.547,38.000 206.820,38.000 206.820,40.460 206.820,42.920 206.820,45.380 206.773,45.380 206.727,45.380 206.680,45.380 204.967,45.482 203.308,46.019 201.860,46.940 200.143,46.940 198.427,46.940 196.710,46.940 196.710,42.517 196.710,38.093 196.710,33.670 212.000,33.670 227.290,33.670 242.580,33.670 243.053,34.170 243.527,34.670 244.000,35.170 246.907,35.170 249.813,35.170 252.720,35.170 253.088,35.126 253.456,35.251 253.720,35.510 253.957,35.847 254.061,36.261 254.010,36.670 254.010,39.177 254.010,41.683 254.010,44.190 253.570,44.187 253.130,44.183 252.690,44.180 Z M 246.990,45.120 C 246.990,45.120 246.990,45.120 246.990,45.120 246.990,46.557 246.990,47.993 246.990,49.430 233.923,49.430 220.857,49.430 207.790,49.430 207.790,45.953 207.790,42.477 207.790,39.000 220.860,39.000 233.930,39.000 247.000,39.000 246.997,41.040 246.993,43.080 246.990,45.120 Z M 186.990,51.620 C 185.275,51.518 183.606,52.198 182.450,53.470 182.450,53.313 182.450,53.157 182.450,53.000 182.450,52.730 182.690,50.330 186.010,50.330 189.580,50.330 193.150,50.330 196.720,50.330 196.720,50.767 196.720,51.203 196.720,51.640 193.477,51.633 190.233,51.627 186.990,51.620 Z M 180.440,68.620 C 174.167,69.867 167.893,71.113 161.620,72.360 161.357,72.130 161.093,71.900 160.830,71.670 160.830,68.837 160.830,66.003 160.830,63.170 160.910,62.990 161.010,62.820 161.080,62.620 167.533,62.027 173.987,61.433 180.440,60.840 180.440,63.433 180.440,66.027 180.440,68.620 Z M 155.520,64.940 C 153.433,64.940 151.347,64.940 149.260,64.940 146.000,64.790 145.080,67.000 145.000,67.120 145.000,67.163 145.000,67.207 145.000,67.250 143.410,73.440 138.710,73.620 138.530,73.620 135.493,73.620 132.457,73.620 129.420,73.620 127.680,73.490 125.140,71.300 124.320,70.490 123.631,69.687 122.638,69.208 121.580,69.170 121.563,69.170 121.547,69.170 121.530,69.170 120.494,69.206 119.508,69.622 118.760,70.340 115.240,75.560 111.720,80.780 108.200,86.000 107.987,86.690 107.773,87.380 107.560,88.070 107.412,89.114 106.822,90.043 105.940,90.620 105.211,90.836 104.424,90.738 103.770,90.350 100.893,88.983 98.017,87.617 95.140,86.250 94.029,85.536 93.673,84.076 94.330,82.930 94.516,83.776 95.021,84.518 95.740,85.000 98.283,86.233 100.827,87.467 103.370,88.700 103.621,88.767 103.880,88.800 104.140,88.800 105.247,88.764 106.228,88.078 106.640,87.050 107.020,86.013 107.400,84.977 107.780,83.940 111.187,79.057 114.593,74.173 118.000,69.290 118.852,68.480 118.963,67.161 118.260,66.220 118.203,66.177 118.147,66.133 118.090,66.090 115.190,64.760 112.880,60.790 112.860,60.750 112.807,60.660 112.753,60.570 112.700,60.480 111.420,60.580 110.140,60.680 108.860,60.780 109.390,59.977 109.920,59.173 110.450,58.370 110.470,58.337 110.490,58.303 110.510,58.270 110.889,57.557 111.162,56.792 111.320,56.000 114.880,56.000 118.440,56.000 122.000,56.000 122.017,56.800 122.033,57.600 122.050,58.400 121.120,60.627 120.190,62.853 119.260,65.080 120.173,65.497 121.087,65.913 122.000,66.330 122.970,64.080 123.940,61.830 124.910,59.580 125.357,59.177 125.803,58.773 126.250,58.370 126.322,58.470 126.402,58.564 126.490,58.650 127.087,59.149 127.842,59.419 128.620,59.410 133.953,59.410 139.287,59.410 144.620,59.410 145.423,59.445 146.201,59.127 146.750,58.540 147.394,57.678 147.703,56.612 147.620,55.540 147.620,51.803 147.620,48.067 147.620,44.330 148.480,44.330 149.340,44.330 150.200,44.330 150.200,47.363 150.200,50.397 150.200,53.430 160.283,53.430 170.367,53.430 180.450,53.430 180.450,55.230 180.450,57.030 180.450,58.830 173.480,59.470 166.510,60.110 159.540,60.750 159.480,60.973 159.420,61.197 159.360,61.420 159.000,63.310 157.444,64.740 155.530,64.940 155.527,64.940 155.523,64.940 155.520,64.940 Z M 95.280,81.430 C 99.587,74.897 103.893,68.363 108.200,61.830 109.533,61.727 110.867,61.623 112.200,61.520 112.790,62.520 114.900,65.630 117.600,66.940 117.912,67.522 117.774,68.243 117.270,68.670 113.823,73.587 110.377,78.503 106.930,83.420 106.523,84.507 106.117,85.593 105.710,86.680 105.403,87.485 104.550,87.941 103.710,87.750 101.210,86.537 98.710,85.323 96.210,84.110 95.395,83.481 95.030,82.429 95.280,81.430 95.280,81.430 95.280,81.430 95.280,81.430 Z M 123.000,58.600 C 123.000,57.617 123.000,56.633 123.000,55.650 123.151,55.273 123.459,54.981 123.843,54.848 124.226,54.716 124.649,54.757 125.000,54.960 125.720,55.280 125.870,56.540 125.870,56.960 125.861,57.087 125.861,57.213 125.870,57.340 125.303,57.850 124.737,58.360 124.170,58.870 123.267,60.913 122.363,62.957 121.460,65.000 121.150,64.860 120.840,64.720 120.530,64.580 121.353,62.587 122.177,60.593 123.000,58.600 Z M 104.880,50.500 C 104.880,48.443 104.880,46.387 104.880,44.330 118.797,44.330 132.713,44.330 146.630,44.330 146.630,48.070 146.630,51.810 146.630,55.550 146.704,56.374 146.489,57.198 146.020,57.880 145.659,58.256 145.150,58.453 144.630,58.420 139.297,58.420 133.963,58.420 128.630,58.420 128.099,58.434 127.580,58.264 127.160,57.940 126.918,57.693 126.791,57.355 126.810,57.010 126.810,56.920 126.810,54.710 125.390,54.070 124.863,53.786 124.249,53.711 123.670,53.860 123.053,54.044 122.526,54.450 122.190,55.000 118.603,55.000 115.017,55.000 111.430,55.000 111.428,54.294 111.231,53.601 110.860,53.000 109.390,50.660 105.770,50.490 104.880,50.500 104.880,50.500 104.880,50.500 104.880,50.500 Z M 86.590,29.690 C 87.533,29.690 88.477,29.690 89.420,29.690 89.420,36.627 89.420,43.563 89.420,50.500 88.477,50.500 87.533,50.500 86.590,50.500 86.590,43.563 86.590,36.627 86.590,29.690 Z M 108.240,23.390 C 108.240,22.157 108.240,20.923 108.240,19.690 109.630,19.690 111.020,19.690 112.410,19.690 112.410,22.357 112.410,25.023 112.410,27.690 111.020,27.690 109.630,27.690 108.240,27.690 108.240,26.257 108.240,24.823 108.240,23.390 Z M 102.390,23.390 C 102.390,22.157 102.390,20.923 102.390,19.690 103.673,19.690 104.957,19.690 106.240,19.690 106.240,20.940 106.240,22.190 106.240,23.440 104.957,23.423 103.673,23.407 102.390,23.390 Z M 135.580,23.390 C 128.527,23.390 121.473,23.390 114.420,23.390 114.420,22.157 114.420,20.923 114.420,19.690 121.477,19.690 128.533,19.690 135.590,19.690 135.587,20.923 135.583,22.157 135.580,23.390 Z M 169.290,23.200 C 175.650,23.200 182.010,23.200 188.370,23.200 188.370,17.690 188.370,12.180 188.370,6.670 189.480,6.670 190.590,6.670 191.700,6.670 191.700,8.503 191.700,10.337 191.700,12.170 193.257,12.170 194.813,12.170 196.370,12.170 196.370,14.837 196.370,17.503 196.370,20.170 201.120,20.170 205.870,20.170 210.620,20.170 210.620,20.537 210.620,20.903 210.620,21.270 209.563,23.410 208.507,25.550 207.450,27.690 194.317,27.690 181.183,27.690 168.050,27.690 168.463,26.193 168.877,24.697 169.290,23.200 Z M 175.290,20.410 C 175.933,20.410 176.577,20.410 177.220,20.410 177.220,20.440 177.220,20.470 177.220,20.500 177.587,20.733 177.953,20.967 178.320,21.200 177.320,21.200 176.320,21.200 175.320,21.200 175.310,20.937 175.300,20.673 175.290,20.410 Z M 162.430,18.410 C 162.430,16.790 162.430,15.170 162.430,13.550 164.480,13.550 166.530,13.550 168.580,13.550 168.580,15.187 168.580,16.823 168.580,18.460 166.530,18.443 164.480,18.427 162.430,18.410 Z M 170.580,12.000 C 171.483,12.000 172.387,12.000 173.290,12.000 173.290,15.000 173.290,18.000 173.290,21.000 172.387,21.000 171.483,21.000 170.580,21.000 170.580,18.000 170.580,15.000 170.580,12.000 Z M 177.210,13.540 C 177.210,15.177 177.210,16.813 177.210,18.450 176.570,18.450 175.930,18.450 175.290,18.450 175.290,16.817 175.290,15.183 175.290,13.550 175.930,13.547 176.570,13.543 177.210,13.540 Z M 179.210,12.540 C 179.760,12.207 180.310,11.873 180.860,11.540 182.617,11.540 184.373,11.540 186.130,11.540 186.130,14.540 186.130,17.540 186.130,20.540 184.373,20.540 182.617,20.540 180.860,20.540 180.310,20.207 179.760,19.873 179.210,19.540 179.210,17.207 179.210,14.873 179.210,12.540 Z M 181.840,8.180 C 183.227,8.180 184.613,8.180 186.000,8.180 186.000,8.580 186.000,8.980 186.000,9.380 184.627,9.380 183.253,9.380 181.880,9.380 181.867,8.980 181.853,8.580 181.840,8.180 Z M 207.150,7.830 C 208.957,8.720 210.763,9.610 212.570,10.500 214.903,10.500 217.237,10.500 219.570,10.500 219.570,14.193 219.570,17.887 219.570,21.580 217.793,21.580 216.017,21.580 214.240,21.580 213.827,21.970 213.413,22.360 213.000,22.750 212.693,22.750 212.387,22.750 212.080,22.750 212.247,22.417 212.413,22.083 212.580,21.750 212.580,20.557 212.580,19.363 212.580,18.170 207.847,18.170 203.113,18.170 198.380,18.170 198.380,15.503 198.380,12.837 198.380,10.170 196.823,10.170 195.267,10.170 193.710,10.170 193.710,9.390 193.710,8.610 193.710,7.830 198.190,7.830 202.670,7.830 207.150,7.830 Z M 230.480,14.250 C 231.223,14.623 231.967,14.997 232.710,15.370 232.710,15.820 232.710,16.270 232.710,16.720 231.967,17.093 231.223,17.467 230.480,17.840 227.503,17.840 224.527,17.840 221.550,17.840 221.550,16.643 221.550,15.447 221.550,14.250 224.527,14.250 227.503,14.250 230.480,14.250 Z M 308.080,23.910 C 308.900,21.970 311.250,21.970 312.440,22.110 312.563,23.970 312.687,25.830 312.810,27.690 310.873,27.690 308.937,27.690 307.000,27.690 307.360,26.430 307.720,25.170 308.080,23.910 Z M 319.800,35.380 C 318.000,35.380 316.200,35.380 314.400,35.380 314.400,34.780 314.400,34.180 314.400,33.580 310.933,33.580 307.467,33.580 304.000,33.580 304.000,34.177 304.000,34.773 304.000,35.370 295.127,35.370 286.253,35.370 277.380,35.370 277.380,34.497 277.380,33.623 277.380,32.750 274.713,32.750 272.047,32.750 269.380,32.750 269.380,31.730 269.380,30.710 269.380,29.690 286.187,29.690 302.993,29.690 319.800,29.690 319.800,31.587 319.800,33.483 319.800,35.380 Z M 321.800,21.500 C 324.383,21.500 326.967,21.500 329.550,21.500 329.550,26.083 329.550,30.667 329.550,35.250 326.967,35.250 324.383,35.250 321.800,35.250 321.800,30.667 321.800,26.083 321.800,21.500 Z M 339.480,29.690 C 339.480,31.587 339.480,33.483 339.480,35.380 336.840,35.380 334.200,35.380 331.560,35.380 331.560,33.483 331.560,31.587 331.560,29.690 334.200,29.690 336.840,29.690 339.480,29.690 Z M 312.420,42.310 C 310.280,42.310 308.140,42.310 306.000,42.310 306.000,40.067 306.000,37.823 306.000,35.580 308.147,35.580 310.293,35.580 312.440,35.580 312.433,37.823 312.427,40.067 312.420,42.310 Z M 277.420,40.840 C 283.493,40.813 289.567,40.787 295.640,40.760 298.427,40.760 301.213,40.760 304.000,40.760 304.000,41.280 304.000,41.800 304.000,42.320 295.127,42.320 286.253,42.320 277.380,42.320 277.393,41.827 277.407,41.333 277.420,40.840 Z M 304.000,38.750 C 301.807,38.750 299.613,38.750 297.420,38.750 297.420,38.293 297.420,37.837 297.420,37.380 299.613,37.380 301.807,37.380 304.000,37.380 304.000,37.837 304.000,38.293 304.000,38.750 Z M 277.380,37.380 C 283.380,37.380 289.380,37.380 295.380,37.380 295.380,38.177 295.380,38.973 295.380,39.770 289.380,39.797 283.380,39.823 277.380,39.850 277.380,39.027 277.380,38.203 277.380,37.380 Z M 257.800,33.750 C 263.993,33.750 270.187,33.750 276.380,33.750 276.380,36.527 276.380,39.303 276.380,42.080 270.187,42.080 263.993,42.080 257.800,42.080 257.800,39.303 257.800,36.527 257.800,33.750 Z M 268.420,29.690 C 268.420,30.690 268.420,31.690 268.420,32.690 264.883,32.690 261.347,32.690 257.810,32.690 257.810,31.690 257.810,30.690 257.810,29.690 261.347,29.690 264.883,29.690 268.420,29.690 Z M 163.090,34.940 C 162.483,34.940 161.936,34.575 161.704,34.014 161.472,33.454 161.600,32.808 162.029,32.379 162.458,31.950 163.104,31.822 163.664,32.054 164.225,32.286 164.590,32.833 164.590,33.440 164.590,33.838 164.432,34.219 164.151,34.501 163.869,34.782 163.488,34.940 163.090,34.940 163.090,34.940 163.090,34.940 163.090,34.940 Z M 150.210,35.940 C 150.210,36.717 150.210,37.493 150.210,38.270 148.583,38.270 146.957,38.270 145.330,38.270 145.330,37.303 145.330,36.337 145.330,35.370 145.411,34.507 145.152,33.646 144.610,32.970 144.001,32.339 143.146,32.007 142.270,32.060 134.133,32.060 125.997,32.060 117.860,32.060 117.527,32.437 117.193,32.813 116.860,33.190 115.263,33.190 113.667,33.190 112.070,33.190 111.205,32.169 109.980,31.521 108.650,31.380 107.890,31.380 107.130,31.380 106.370,31.380 105.841,31.486 105.333,31.682 104.870,31.960 104.870,31.203 104.870,30.447 104.870,29.690 135.147,29.690 165.423,29.690 195.700,29.690 195.700,31.767 195.700,33.843 195.700,35.920 184.897,35.920 174.093,35.920 163.290,35.920 164.626,35.810 165.638,34.666 165.583,33.326 165.528,31.986 164.426,30.928 163.085,30.928 161.744,30.928 160.642,31.986 160.587,33.326 160.532,34.666 161.544,35.810 162.880,35.920 158.657,35.927 154.433,35.933 150.210,35.940 Z M 103.880,33.150 C 103.880,33.150 103.880,33.150 103.880,33.150 103.880,33.150 103.880,33.150 103.880,33.150 103.880,38.933 103.880,44.717 103.880,50.500 99.393,50.500 94.907,50.500 90.420,50.500 90.420,43.563 90.420,36.627 90.420,29.690 94.907,29.690 99.393,29.690 103.880,29.690 103.880,30.843 103.880,31.997 103.880,33.150 Z M 144.340,35.340 C 144.340,36.320 144.340,37.300 144.340,38.280 131.187,38.280 118.033,38.280 104.880,38.280 104.880,36.633 104.880,34.987 104.880,33.340 105.266,32.824 105.828,32.468 106.460,32.340 107.180,32.340 107.900,32.340 108.620,32.340 109.741,32.504 110.753,33.100 111.440,34.000 111.490,34.067 111.540,34.133 111.590,34.200 113.500,34.200 115.410,34.200 117.320,34.200 117.653,33.827 117.987,33.453 118.320,33.080 126.320,33.080 134.320,33.080 142.320,33.080 142.908,33.026 143.490,33.235 143.910,33.650 144.253,34.132 144.406,34.723 144.340,35.310 144.340,35.320 144.340,35.330 144.340,35.340 Z M 150.210,43.340 C 135.100,43.340 119.990,43.340 104.880,43.340 104.880,41.977 104.880,40.613 104.880,39.250 119.990,39.250 135.100,39.250 150.210,39.250 150.210,40.613 150.210,41.977 150.210,43.340 Z M 195.710,46.940 C 195.710,47.400 195.710,47.860 195.710,48.320 192.473,48.320 189.237,48.320 186.000,48.320 182.130,48.320 180.760,50.780 180.490,52.450 170.723,52.450 160.957,52.450 151.190,52.450 151.190,47.273 151.190,42.097 151.190,36.920 166.023,36.920 180.857,36.920 195.690,36.920 195.690,40.253 195.690,43.587 195.690,46.920 195.697,46.927 195.703,46.933 195.710,46.940 Z M 255.000,36.730 C 255.073,36.058 254.883,35.384 254.470,34.850 254.029,34.381 253.403,34.132 252.760,34.170 250.000,34.170 247.240,34.170 244.480,34.170 243.987,33.670 243.493,33.170 243.000,32.670 227.567,32.670 212.133,32.670 196.700,32.670 196.700,31.670 196.700,30.670 196.700,29.670 216.730,29.670 236.760,29.670 256.790,29.670 256.790,30.690 256.790,31.710 256.790,32.730 256.790,32.730 256.790,32.730 256.790,32.730 256.790,34.370 256.790,36.010 256.790,37.650 256.193,37.650 255.597,37.650 255.000,37.650 255.000,37.343 255.000,37.037 255.000,36.730 Z M 84.460,44.540 C 73.640,44.540 62.820,44.540 52.000,44.540 51.783,44.447 51.567,44.353 51.350,44.260 51.350,42.173 51.350,40.087 51.350,38.000 51.567,37.907 51.783,37.813 52.000,37.720 62.820,37.720 73.640,37.720 84.460,37.720 84.460,39.993 84.460,42.267 84.460,44.540 Z M 45.730,38.670 C 46.923,38.670 48.117,38.670 49.310,38.670 49.310,40.310 49.310,41.950 49.310,43.590 48.117,43.590 46.923,43.590 45.730,43.590 45.730,41.950 45.730,40.310 45.730,38.670 Z M 43.360,60.500 C 42.657,60.500 41.953,60.500 41.250,60.500 41.250,47.583 41.250,34.667 41.250,21.750 41.953,21.750 42.657,21.750 43.360,21.750 43.360,34.667 43.360,47.583 43.360,60.500 Z M 137.660,18.940 C 138.030,18.940 138.400,18.940 138.770,18.940 138.770,20.683 138.770,22.427 138.770,24.170 138.400,24.170 138.030,24.170 137.660,24.170 137.660,22.427 137.660,20.683 137.660,18.940 Z M 160.320,19.450 C 159.770,19.783 159.220,20.117 158.670,20.450 156.003,20.450 153.337,20.450 150.670,20.450 150.670,17.450 150.670,14.450 150.670,11.450 153.337,11.450 156.003,11.450 158.670,11.450 159.220,11.783 159.770,12.117 160.320,12.450 160.320,14.783 160.320,17.117 160.320,19.450 Z M 314.400,37.380 C 323.420,37.380 332.440,37.380 341.460,37.380 341.460,34.150 341.460,30.920 341.460,27.690 338.153,27.690 334.847,27.690 331.540,27.690 331.540,24.960 331.540,22.230 331.540,19.500 327.627,19.500 323.713,19.500 319.800,19.500 319.800,22.230 319.800,24.960 319.800,27.690 318.133,27.690 316.467,27.690 314.800,27.690 314.640,25.277 314.480,22.863 314.320,20.450 314.083,20.393 313.847,20.337 313.610,20.280 311.610,19.810 307.610,19.810 306.200,23.210 305.800,24.703 305.400,26.197 305.000,27.690 273.230,27.690 241.460,27.690 209.690,27.690 210.200,26.660 210.710,25.630 211.220,24.600 211.220,24.650 211.220,24.700 211.220,24.750 212.107,24.750 212.993,24.750 213.880,24.750 214.253,24.360 214.627,23.970 215.000,23.580 217.167,23.580 219.333,23.580 221.500,23.580 221.500,22.330 221.500,21.080 221.500,19.830 224.667,19.830 227.833,19.830 231.000,19.830 232.233,19.220 233.467,18.610 234.700,18.000 234.700,16.710 234.700,15.420 234.700,14.130 233.467,13.503 232.233,12.877 231.000,12.250 227.867,12.250 224.733,12.250 221.600,12.250 221.600,11.000 221.600,9.750 221.600,8.500 218.733,8.500 215.867,8.500 213.000,8.500 211.193,7.610 209.387,6.720 207.580,5.830 202.947,5.830 198.313,5.830 193.680,5.830 193.680,5.443 193.680,5.057 193.680,4.670 191.237,4.670 188.793,4.670 186.350,4.670 186.350,5.177 186.350,5.683 186.350,6.190 184.170,6.190 181.990,6.190 179.810,6.190 179.810,7.387 179.810,8.583 179.810,9.780 178.933,10.337 178.057,10.893 177.180,11.450 177.180,11.480 177.180,11.510 177.180,11.540 176.537,11.540 175.893,11.540 175.250,11.540 175.250,11.027 175.250,10.513 175.250,10.000 173.013,10.000 170.777,10.000 168.540,10.000 168.540,10.500 168.540,11.000 168.540,11.500 166.453,11.500 164.367,11.500 162.280,11.500 162.280,11.470 162.280,11.440 162.280,11.410 161.260,10.743 160.240,10.077 159.220,9.410 155.690,9.410 152.160,9.410 148.630,9.410 148.630,13.743 148.630,18.077 148.630,22.410 152.173,22.410 155.717,22.410 159.260,22.410 160.280,21.743 161.300,21.077 162.320,20.410 162.320,20.380 162.320,20.350 162.320,20.320 164.407,20.320 166.493,20.320 168.580,20.320 168.580,20.583 168.580,20.847 168.580,21.110 168.317,21.110 168.053,21.110 167.790,21.110 167.193,23.303 166.597,25.497 166.000,27.690 148.807,27.690 131.613,27.690 114.420,27.690 114.420,26.940 114.420,26.190 114.420,25.440 121.500,25.440 128.580,25.440 135.660,25.440 135.660,25.687 135.660,25.933 135.660,26.180 137.363,26.180 139.067,26.180 140.770,26.180 140.770,23.103 140.770,20.027 140.770,16.950 139.067,16.950 137.363,16.950 135.660,16.950 135.660,17.197 135.660,17.443 135.660,17.690 123.907,17.690 112.153,17.690 100.400,17.690 100.400,20.273 100.400,22.857 100.400,25.440 102.350,25.440 104.300,25.440 106.250,25.440 106.250,26.190 106.250,26.940 106.250,27.690 99.030,27.690 91.810,27.690 84.590,27.690 84.590,30.357 84.590,33.023 84.590,35.690 73.590,35.690 62.590,35.690 51.590,35.690 50.860,36.007 50.130,36.323 49.400,36.640 48.067,36.640 46.733,36.640 45.400,36.640 45.400,31.010 45.400,25.380 45.400,19.750 43.350,19.750 41.300,19.750 39.250,19.750 39.250,34.000 39.250,48.250 39.250,62.500 41.287,62.500 43.323,62.500 45.360,62.500 45.360,56.860 45.360,51.220 45.360,45.580 46.693,45.580 48.027,45.580 49.360,45.580 50.090,45.897 50.820,46.213 51.550,46.530 62.550,46.530 73.550,46.530 84.550,46.530 84.550,48.530 84.550,50.530 84.550,52.530 91.267,52.530 97.983,52.530 104.700,52.530 105.580,52.530 108.290,52.750 109.130,54.080 109.590,54.820 109.470,55.910 108.750,57.330 103.407,65.450 98.063,73.570 92.720,81.690 92.055,82.709 91.829,83.952 92.092,85.140 92.356,86.327 93.087,87.358 94.120,88.000 97.023,89.380 99.927,90.760 102.830,92.140 103.568,92.551 104.396,92.774 105.240,92.790 105.740,92.795 106.237,92.700 106.700,92.510 108.050,91.950 108.990,90.630 109.490,88.630 109.643,88.097 109.797,87.563 109.950,87.030 113.377,81.940 116.803,76.850 120.230,71.760 120.595,71.440 121.056,71.250 121.540,71.220 121.540,71.220 121.540,71.220 121.540,71.220 122.059,71.265 122.537,71.522 122.860,71.930 123.220,72.290 126.450,75.450 129.320,75.660 132.387,75.660 135.453,75.660 138.520,75.660 138.580,75.660 144.880,75.500 146.890,67.890 147.020,67.670 147.570,66.890 149.200,66.980 151.310,66.980 153.420,66.980 155.530,66.980 156.728,66.909 157.878,66.481 158.830,65.750 158.830,68.043 158.830,70.337 158.830,72.630 159.553,73.260 160.277,73.890 161.000,74.520 168.133,73.100 175.267,71.680 182.400,70.260 182.400,67.060 182.400,63.860 182.400,60.660 182.400,60.660 182.400,60.660 182.400,60.660 182.400,59.160 182.400,57.660 182.400,56.160 182.850,52.350 186.700,52.610 186.900,52.620 190.490,52.620 194.080,52.620 197.670,52.620 197.670,51.393 197.670,50.167 197.670,48.940 199.243,48.940 200.817,48.940 202.390,48.940 202.473,48.883 202.557,48.827 202.640,48.770 203.548,48.185 204.544,47.749 205.590,47.480 205.590,48.860 205.590,50.240 205.590,51.620 220.060,51.620 234.530,51.620 249.000,51.620 249.000,50.120 249.000,48.620 249.000,47.120 249.430,47.120 249.860,47.120 250.290,47.120 251.207,46.807 252.123,46.493 253.040,46.180 255.590,46.180 258.140,46.180 260.690,46.180 260.690,45.557 260.690,44.933 260.690,44.310 279.760,44.310 298.830,44.310 317.900,44.310 317.900,44.643 317.900,44.977 317.900,45.310 319.777,45.310 321.653,45.310 323.530,45.310 323.530,42.873 323.530,40.437 323.530,38.000 321.653,38.000 319.777,38.000 317.900,38.000 317.900,38.263 317.900,38.527 317.900,38.790 316.733,38.790 315.567,38.790 314.400,38.790 314.400,38.320 314.400,37.850 314.400,37.380 Z " />
</svg>