<?xml version="1.0" encoding="UTF-8" standalone="no"?>
<!DOCTYPE svg PUBLIC "-//W3C//DTD SVG 20010904//EN" "http://www.w3.org/TR/2001/REC-SVG-20010904/DTD/svg10.dtd"[]>
<svg version="1.1" id="Frosty Editor v1.0.6.3" xmlns="http://www.w3.org/2000/svg" d1p1:xlink="http://www.w3.org/1999/xlink" viewBox="0 0 384 96" xmlns:d1p1="xmlns">
  <path stroke="none" fill="none" d="M 272.070,17.950 C 272.070,18.331 271.761,18.640 271.380,18.640 270.999,18.640 270.690,18.331 270.690,17.950 270.690,17.569 270.999,17.260 271.380,17.260 271.761,17.260 272.070,17.569 272.070,17.950 272.070,17.950 272.070,17.950 272.070,17.950 Z " />
  <path stroke="none" fill="none" d="M 271.400,15.760 C 272.600,15.771 273.568,16.747 273.569,17.947 273.571,19.147 272.606,20.125 271.406,20.140 270.206,20.154 269.218,19.200 269.190,18.000 269.177,17.411 269.401,16.841 269.814,16.419 270.226,15.997 270.790,15.760 271.380,15.760 271.387,15.760 271.393,15.760 271.400,15.760 Z M 269.000,23.250 C 270.753,23.250 272.507,23.250 274.260,23.250 274.260,21.500 274.260,19.750 274.260,18.000 274.173,18.000 274.087,18.000 274.000,18.000 274.000,17.000 274.000,16.000 274.000,15.000 274.083,15.000 274.167,15.000 274.250,15.000 274.250,14.917 274.250,14.833 274.250,14.750 272.500,14.750 270.750,14.750 269.000,14.750 269.000,17.583 269.000,20.417 269.000,23.250 Z " />
  <path stroke="none" fill="none" d="M 279.250,7.000 C 279.167,7.000 279.083,7.000 279.000,7.000 279.000,6.333 279.000,5.667 279.000,5.000 275.667,5.000 272.333,5.000 269.000,5.000 269.000,5.333 269.000,5.667 269.000,6.000 268.917,6.000 268.833,6.000 268.750,6.000 268.750,8.417 268.750,10.833 268.750,13.250 269.583,13.250 270.417,13.250 271.250,13.250 271.250,12.213 271.250,11.177 271.250,10.140 271.230,8.878 272.113,7.780 273.350,7.530 274.241,7.335 275.172,7.548 275.890,8.110 276.441,8.561 276.757,9.238 276.750,9.950 276.750,12.283 276.750,14.617 276.750,16.950 277.500,16.950 278.250,16.950 279.000,16.950 279.000,15.967 279.000,14.983 279.000,14.000 279.083,14.000 279.167,14.000 279.250,14.000 279.250,11.667 279.250,9.333 279.250,7.000 Z " />
  <path stroke="none" fill="none" d="M 299.750,38.250 C 312.583,38.243 325.417,38.237 338.250,38.230 338.250,35.070 338.250,31.910 338.250,28.750 329.250,28.750 320.250,28.750 311.250,28.750 311.250,28.167 311.250,27.583 311.250,27.000 307.417,27.000 303.583,27.000 299.750,27.000 299.750,30.750 299.750,34.500 299.750,38.250 299.750,38.250 299.750,38.250 299.750,38.250 Z " />
  <path stroke="none" fill="none" d="M 276.000,18.750 C 275.917,18.750 275.833,18.750 275.750,18.750 275.750,20.750 275.750,22.750 275.750,24.750 273.493,24.750 271.237,24.750 268.980,24.750 268.980,24.833 268.980,24.917 268.980,25.000 264.570,25.003 260.160,25.007 255.750,25.010 255.750,26.090 255.750,27.170 255.750,28.250 269.917,28.250 284.083,28.250 298.250,28.250 298.250,27.833 298.250,27.417 298.250,27.000 298.167,27.000 298.083,27.000 298.000,27.000 298.000,26.333 298.000,25.667 298.000,25.000 290.667,25.000 283.333,25.000 276.000,25.000 276.000,22.917 276.000,20.833 276.000,18.750 276.000,18.750 276.000,18.750 276.000,18.750 Z " />
  <path stroke="none" fill="none" d="M 273.630,9.000 C 273.103,9.123 272.736,9.599 272.750,10.140 272.750,11.177 272.750,12.213 272.750,13.250 273.583,13.250 274.417,13.250 275.250,13.250 275.250,12.167 275.250,11.083 275.250,10.000 275.256,9.733 275.138,9.478 274.930,9.310 274.563,9.022 274.088,8.909 273.630,9.000 273.630,9.000 273.630,9.000 273.630,9.000 Z " />
  <path stroke="none" fill="none" d="M 217.750,13.250 C 218.083,13.250 218.417,13.250 218.750,13.250 218.750,13.500 218.750,13.750 218.750,14.000 234.917,14.000 251.083,14.000 267.250,14.000 267.250,13.750 267.250,13.500 267.250,13.250 267.250,10.833 267.250,8.417 267.250,6.000 264.083,6.000 260.917,6.000 257.750,6.000 257.750,7.917 257.750,9.833 257.750,11.750 253.250,11.750 248.750,11.750 244.250,11.750 244.250,10.173 244.250,8.597 244.250,7.020 244.193,7.017 244.137,7.013 244.080,7.010 244.080,6.673 244.080,6.337 244.080,6.000 235.720,6.000 227.360,6.000 219.000,6.000 219.000,6.333 219.000,6.667 219.000,7.000 218.583,7.000 218.167,7.000 217.750,7.000 217.750,9.083 217.750,11.167 217.750,13.250 217.750,13.250 217.750,13.250 217.750,13.250 Z " />
  <path stroke="none" fill="none" d="M 280.750,14.010 C 281.230,14.010 281.710,14.010 282.190,14.010 284.810,14.340 287.430,14.670 290.050,15.000 293.700,15.000 297.350,15.000 301.000,15.000 301.000,12.000 301.000,9.000 301.000,6.000 297.350,6.000 293.700,6.000 290.050,6.000 287.367,6.333 284.683,6.667 282.000,7.000 281.583,7.000 281.167,7.000 280.750,7.000 280.750,9.337 280.750,11.673 280.750,14.010 280.750,14.010 280.750,14.010 280.750,14.010 Z " />
  <path stroke="none" fill="none" d="M 248.770,7.430 C 249.456,7.431 250.088,7.056 250.416,6.453 250.744,5.850 250.714,5.115 250.340,4.540 249.878,4.216 249.334,4.029 248.770,4.000 247.882,3.960 247.129,4.643 247.080,5.530 247.080,5.530 247.080,5.530 247.080,5.530 247.065,5.688 247.038,5.845 247.000,6.000 247.199,6.822 247.925,7.408 248.770,7.430 248.770,7.430 248.770,7.430 248.770,7.430 Z " />
  <path stroke="none" fill="none" d="M 252.150,5.550 C 252.138,7.115 251.051,8.466 249.525,8.812 247.999,9.158 246.435,8.407 245.750,7.000 245.750,8.073 245.750,9.147 245.750,10.220 249.250,10.220 252.750,10.220 256.250,10.220 256.250,8.700 256.250,7.180 256.250,5.660 255.833,5.440 255.417,5.220 255.000,5.000 254.020,5.000 253.040,5.000 252.060,5.000 252.105,5.181 252.135,5.364 252.150,5.550 252.150,5.550 252.150,5.550 252.150,5.550 Z " />
  <path stroke="none" fill="none" d="M 255.750,29.750 C 269.917,29.750 284.083,29.750 298.250,29.750 298.250,31.583 298.250,33.417 298.250,35.250 284.083,35.250 269.917,35.250 255.750,35.250 255.750,33.417 255.750,31.583 255.750,29.750 Z " />
  <path stroke="none" fill="none" d="M 257.000,22.000 C 260.000,22.000 263.000,22.000 266.000,22.000 266.000,20.333 266.000,18.667 266.000,17.000 250.667,17.000 235.333,17.000 220.000,17.000 220.000,18.853 220.000,20.707 220.000,22.560 220.447,22.040 220.893,21.520 221.340,21.000 221.590,21.000 221.840,21.000 222.090,21.000 222.296,20.397 222.863,19.992 223.500,19.992 224.137,19.992 224.704,20.397 224.910,21.000 232.203,21.000 239.497,21.000 246.790,21.000 247.220,20.333 247.650,19.667 248.080,19.000 251.053,19.000 254.027,19.000 257.000,19.000 257.000,20.000 257.000,21.000 257.000,22.000 Z " />
  <path stroke="none" fill="none" d="M 339.750,29.750 C 343.917,29.750 348.083,29.750 352.250,29.750 352.250,31.583 352.250,33.417 352.250,35.250 348.083,35.250 343.917,35.250 339.750,35.250 339.750,33.417 339.750,31.583 339.750,29.750 Z " />
  <path stroke="none" fill="none" d="M 215.010,18.280 C 215.010,18.661 214.701,18.970 214.320,18.970 213.939,18.970 213.630,18.661 213.630,18.280 213.630,17.899 213.939,17.590 214.320,17.590 214.701,17.590 215.010,17.899 215.010,18.280 215.010,18.280 215.010,18.280 215.010,18.280 Z " />
  <path stroke="none" fill="none" d="M 211.000,12.250 C 211.083,12.250 211.167,12.250 211.250,12.250 211.250,11.403 211.250,10.557 211.250,9.710 211.250,9.220 210.870,8.710 210.500,8.710 210.130,8.710 209.750,9.210 209.750,9.710 209.750,11.473 209.750,13.237 209.750,15.000 209.913,15.000 210.077,15.000 210.240,15.000 210.240,14.417 210.240,13.833 210.240,13.250 210.493,13.250 210.747,13.250 211.000,13.250 211.000,12.917 211.000,12.583 211.000,12.250 Z " />
  <path stroke="none" fill="none" d="M 352.250,36.750 C 348.083,36.750 343.917,36.750 339.750,36.750 339.750,37.740 339.750,38.730 339.750,39.720 325.917,39.730 312.083,39.740 298.250,39.750 298.250,38.750 298.250,37.750 298.250,36.750 284.083,36.750 269.917,36.750 255.750,36.750 255.750,38.583 255.750,40.417 255.750,42.250 287.917,42.250 320.083,42.250 352.250,42.250 352.250,40.417 352.250,38.583 352.250,36.750 352.250,36.750 352.250,36.750 352.250,36.750 Z " />
  <path stroke="none" fill="none" d="M 205.250,7.890 C 203.837,7.260 202.423,6.630 201.010,6.000 194.673,6.000 188.337,6.000 182.000,6.000 182.000,9.000 182.000,12.000 182.000,15.000 188.367,15.000 194.733,15.000 201.100,15.000 202.483,14.560 203.867,14.120 205.250,13.680 205.250,11.750 205.250,9.820 205.250,7.890 205.250,7.890 205.250,7.890 205.250,7.890 Z " />
  <path stroke="none" fill="none" d="M 222.000,24.840 C 221.333,25.617 220.667,26.393 220.000,27.170 220.000,34.447 220.000,41.723 220.000,49.000 220.667,49.000 221.333,49.000 222.000,49.000 222.000,40.947 222.000,32.893 222.000,24.840 222.000,24.840 222.000,24.840 222.000,24.840 Z " />
  <path stroke="none" fill="none" d="M 214.320,20.470 C 213.111,20.470 212.130,19.490 212.130,18.280 212.130,17.071 213.111,16.090 214.320,16.090 215.530,16.090 216.510,17.071 216.510,18.280 216.510,18.861 216.279,19.418 215.869,19.829 215.458,20.239 214.901,20.470 214.320,20.470 214.320,20.470 214.320,20.470 214.320,20.470 Z M 217.000,14.750 C 215.250,14.750 213.500,14.750 211.750,14.750 211.750,17.917 211.750,21.083 211.750,24.250 213.500,24.250 215.250,24.250 217.000,24.250 217.000,21.083 217.000,17.917 217.000,14.750 Z " />
  <path stroke="none" fill="none" d="M 312.750,27.250 C 321.750,27.250 330.750,27.250 339.750,27.250 339.750,27.583 339.750,27.917 339.750,28.250 343.917,28.250 348.083,28.250 352.250,28.250 352.250,28.170 352.250,28.090 352.250,28.010 352.167,27.973 352.083,27.937 352.000,27.900 352.000,26.747 352.000,25.593 352.000,24.440 351.520,23.960 351.040,23.480 350.560,23.000 338.040,23.000 325.520,23.000 313.000,23.000 313.000,24.333 313.000,25.667 313.000,27.000 312.917,27.000 312.833,27.000 312.750,27.000 312.750,27.083 312.750,27.167 312.750,27.250 312.750,27.250 312.750,27.250 312.750,27.250 Z " />
  <path stroke="none" fill="none" d="M 249.250,37.750 C 242.583,37.750 235.917,37.750 229.250,37.750 229.250,36.583 229.250,35.417 229.250,34.250 235.917,34.250 242.583,34.250 249.250,34.250 249.250,30.403 249.250,26.557 249.250,22.710 248.973,23.140 248.697,23.570 248.420,24.000 240.613,24.000 232.807,24.000 225.000,24.000 225.000,32.333 225.000,40.667 225.000,49.000 232.807,49.000 240.613,49.000 248.420,49.000 248.697,49.430 248.973,49.860 249.250,50.290 249.250,46.110 249.250,41.930 249.250,37.750 249.250,37.750 249.250,37.750 249.250,37.750 Z " />
  <path stroke="none" fill="none" d="M 230.750,35.750 C 236.917,35.750 243.083,35.750 249.250,35.750 249.250,35.917 249.250,36.083 249.250,36.250 243.083,36.250 236.917,36.250 230.750,36.250 230.750,36.083 230.750,35.917 230.750,35.750 Z " />
  <path stroke="none" fill="none" d="M 191.280,58.780 C 192.000,59.440 192.903,59.866 193.870,60.000 194.180,60.053 194.490,60.107 194.800,60.160 194.677,60.450 194.553,60.740 194.430,61.030 194.138,62.936 194.826,64.861 196.260,66.150 196.260,66.150 196.260,66.150 196.260,66.150 195.141,64.655 194.948,62.662 195.760,60.980 196.293,59.842 197.055,58.828 198.000,58.000 196.667,58.000 195.333,58.000 194.000,58.000 193.038,57.997 192.094,58.267 191.280,58.780 191.280,58.780 191.280,58.780 191.280,58.780 Z " />
  <path stroke="none" fill="none" d="M 210.090,53.560 C 205.867,53.390 201.643,53.220 197.420,53.050 197.487,52.757 197.553,52.463 197.620,52.170 197.620,52.170 198.620,47.520 200.000,42.400 200.654,39.194 203.236,36.735 206.470,36.240 209.980,36.240 213.490,36.240 217.000,36.240 217.000,32.743 217.000,29.247 217.000,25.750 214.750,25.750 212.500,25.750 210.250,25.750 210.250,23.167 210.250,20.583 210.250,18.000 210.167,18.000 210.083,18.000 210.000,18.000 210.000,21.000 210.000,24.000 210.000,27.000 205.250,27.040 200.500,27.080 195.750,27.120 195.750,28.333 195.750,29.547 195.750,30.760 193.833,30.760 191.917,30.760 190.000,30.760 190.000,32.507 190.000,34.253 190.000,36.000 189.063,37.000 188.127,38.000 187.190,39.000 186.127,39.000 185.063,39.000 184.000,39.000 184.000,40.500 184.000,42.000 184.000,43.500 183.887,43.640 183.773,43.780 183.660,43.920 182.306,45.395 180.515,46.398 178.550,46.780 179.830,48.180 181.370,50.650 182.330,54.920 182.360,55.057 182.390,55.193 182.420,55.330 182.390,55.360 182.360,55.390 182.330,55.420 182.330,56.420 182.330,60.290 182.330,62.730 182.307,62.730 182.283,62.730 182.260,62.730 182.260,62.773 182.260,62.817 182.260,62.860 183.447,62.833 184.633,62.807 185.820,62.780 185.850,63.113 185.880,63.447 185.910,63.780 185.910,63.570 185.910,63.360 185.910,63.150 185.910,63.033 185.910,62.917 185.910,62.800 185.936,60.705 186.794,58.706 188.294,57.243 189.795,55.780 191.815,54.973 193.910,55.000 196.243,55.000 198.577,55.000 200.910,55.000 203.005,54.973 205.025,55.780 206.526,57.243 208.026,58.706 208.884,60.705 208.910,62.800 208.910,61.177 208.910,59.553 208.910,57.930 209.280,57.930 209.650,57.930 210.020,57.930 210.504,57.521 210.776,56.914 210.760,56.280 210.760,55.780 210.760,55.280 210.760,54.780 210.923,54.780 211.087,54.780 211.250,54.780 210.831,54.405 210.443,53.997 210.090,53.560 210.090,53.560 210.090,53.560 210.090,53.560 Z " />
  <path stroke="none" fill="none" d="M 217.000,49.000 C 217.000,45.250 217.000,41.500 217.000,37.750 213.507,37.750 210.013,37.750 206.520,37.750 203.962,38.221 201.947,40.200 201.430,42.750 200.430,46.530 199.630,50.020 199.270,51.590 203.123,51.743 206.977,51.897 210.830,52.050 210.900,52.143 210.970,52.237 211.040,52.330 211.877,53.380 212.973,54.193 214.220,54.690 214.710,54.690 215.200,54.690 215.690,54.690 215.793,54.690 215.897,54.690 216.000,54.690 216.000,54.690 216.000,54.690 216.000,54.690 216.170,54.690 216.830,54.160 216.940,51.970 216.940,51.970 216.940,51.970 216.940,51.970 216.967,50.970 216.993,49.970 217.020,48.970 217.013,48.980 217.007,48.990 217.000,49.000 Z " />
  <path stroke="none" fill="none" d="M 254.250,43.750 C 254.167,43.750 254.083,43.750 254.000,43.750 254.000,43.250 254.000,42.750 254.000,42.250 254.083,42.250 254.167,42.250 254.250,42.250 254.250,36.507 254.250,30.763 254.250,25.020 254.167,25.020 254.083,25.020 254.000,25.020 254.000,24.013 254.000,23.007 254.000,22.000 252.917,22.000 251.833,22.000 250.750,22.000 250.750,26.083 250.750,30.167 250.750,34.250 250.750,35.417 250.750,36.583 250.750,37.750 250.750,42.167 250.750,46.583 250.750,51.000 251.833,51.000 252.917,51.000 254.000,51.000 254.000,50.333 254.000,49.667 254.000,49.000 254.083,49.000 254.167,49.000 254.250,49.000 254.250,47.250 254.250,45.500 254.250,43.750 254.250,43.750 254.250,43.750 254.250,43.750 Z " />
  <path stroke="none" fill="none" d="M 207.000,17.000 C 207.420,17.000 207.840,17.000 208.260,17.000 208.260,14.570 208.260,12.140 208.260,9.710 208.179,8.856 208.590,8.029 209.319,7.577 210.049,7.125 210.971,7.125 211.701,7.577 212.430,8.029 212.841,8.856 212.760,9.710 212.760,10.557 212.760,11.403 212.760,12.250 213.927,12.250 215.093,12.250 216.260,12.250 216.260,10.500 216.260,8.750 216.260,7.000 213.173,7.000 210.087,7.000 207.000,7.000 207.000,7.557 207.000,8.113 207.000,8.670 206.917,8.633 206.833,8.597 206.750,8.560 206.750,10.110 206.750,11.660 206.750,13.210 206.833,13.183 206.917,13.157 207.000,13.130 207.000,14.420 207.000,15.710 207.000,17.000 Z " />
  <path stroke="none" fill="none" d="M 353.750,43.250 C 356.167,42.183 358.583,41.117 361.000,40.050 361.000,37.327 361.000,34.603 361.000,31.880 358.583,30.813 356.167,29.747 353.750,28.680 353.750,33.537 353.750,38.393 353.750,43.250 353.750,43.250 353.750,43.250 353.750,43.250 Z " />
  <path stroke="none" fill="none" d="M 352.250,43.750 C 320.083,43.750 287.917,43.750 255.750,43.750 255.750,45.500 255.750,47.250 255.750,49.000 287.357,49.000 318.963,49.000 350.570,49.000 351.047,48.510 351.523,48.020 352.000,47.530 352.000,46.363 352.000,45.197 352.000,44.030 352.083,43.993 352.167,43.957 352.250,43.920 352.250,43.863 352.250,43.807 352.250,43.750 352.250,43.750 352.250,43.750 352.250,43.750 Z " />
  <path stroke="none" fill="none" d="M 201.000,71.000 C 201.357,71.000 201.713,71.000 202.070,71.000 205.880,71.000 208.980,67.610 208.980,63.440 208.980,63.360 208.980,63.280 208.980,63.200 208.925,67.555 205.355,71.044 201.000,71.000 201.000,71.000 201.000,71.000 201.000,71.000 Z " />
  <path stroke="none" fill="none" d="M 137.230,78.000 C 140.630,78.000 144.030,78.000 147.430,78.000 148.647,78.093 149.857,77.737 150.830,77.000 151.661,75.734 152.333,74.370 152.830,72.940 154.565,67.558 156.974,62.417 160.000,57.640 159.527,57.126 158.942,56.729 158.290,56.480 156.299,55.822 154.205,55.534 152.110,55.630 150.335,55.629 148.561,55.743 146.800,55.970 145.080,56.210 140.210,58.460 136.900,63.630 135.000,66.570 134.100,74.000 135.730,76.950 136.240,77.880 136.800,78.000 137.230,78.000 137.230,78.000 137.230,78.000 137.230,78.000 Z " />
  <path stroke="none" fill="none" d="M 128.350,81.670 C 128.483,81.863 128.617,82.057 128.750,82.250 130.580,82.250 132.410,82.250 134.240,82.250 134.240,81.450 134.240,80.650 134.240,79.850 133.776,79.429 133.387,78.932 133.090,78.380 130.840,74.280 131.930,65.800 134.360,62.000 134.859,61.219 135.406,60.471 136.000,59.760 136.650,58.573 137.392,57.440 138.220,56.370 138.220,55.830 138.220,55.290 138.220,54.750 136.430,54.750 134.640,54.750 132.850,54.750 122.750,54.750 101.740,54.750 79.850,53.330 66.000,52.430 49.820,50.280 38.000,48.710 30.800,47.710 25.110,47.000 23.400,47.000 20.590,47.000 19.540,47.790 19.290,48.200 19.480,50.920 20.750,70.790 17.510,87.620 17.358,89.152 17.314,90.692 17.380,92.230 21.630,91.770 33.830,90.330 46.580,87.720 60.730,84.820 74.090,82.090 90.230,81.480 100.230,81.100 127.340,81.640 127.610,81.640 127.857,81.650 128.103,81.660 128.350,81.670 Z " />
  <path stroke="none" fill="none" d="M 180.910,55.230 C 179.750,50.100 177.740,47.880 176.630,47.000 174.707,47.000 172.783,47.000 170.860,47.000 170.033,49.070 169.207,51.140 168.380,53.210 168.160,53.283 167.940,53.357 167.720,53.430 167.610,53.430 166.880,53.710 166.160,53.860 165.110,55.290 164.160,56.680 163.280,58.030 163.315,58.279 163.315,58.531 163.280,58.780 163.260,58.877 163.240,58.973 163.220,59.070 163.163,59.153 163.107,59.237 163.050,59.320 160.276,63.387 158.028,67.788 156.360,72.420 156.120,73.050 155.900,73.610 155.690,74.110 155.690,74.143 155.690,74.177 155.690,74.210 154.971,76.617 154.410,79.069 154.010,81.550 153.920,82.070 153.850,82.550 153.780,82.840 153.540,84.214 153.980,85.618 154.960,86.610 154.853,86.723 154.747,86.837 154.640,86.950 155.407,87.213 156.209,87.361 157.020,87.390 159.810,87.540 169.730,87.500 170.710,87.500 171.028,87.488 171.301,87.268 171.380,86.960 171.380,86.840 171.380,86.090 171.380,85.360 171.380,82.050 171.240,75.170 172.610,70.630 174.180,65.450 175.310,63.150 180.290,61.260 180.527,61.170 180.763,61.080 181.000,60.990 180.860,57.430 180.860,55.920 180.910,55.230 180.910,55.230 180.910,55.230 180.910,55.230 Z " />
  <path stroke="none" fill="none" d="M 150.760,82.220 C 150.820,81.920 150.890,81.520 150.970,81.050 151.010,80.827 151.050,80.603 151.090,80.380 150.017,80.805 148.874,81.022 147.720,81.020 144.223,81.020 140.727,81.020 137.230,81.020 136.726,81.017 136.225,80.930 135.750,80.760 135.750,81.760 135.750,82.760 135.750,83.760 134.167,83.760 132.583,83.760 131.000,83.760 133.638,84.810 136.451,85.349 139.290,85.350 143.400,85.490 148.380,85.840 151.000,86.030 150.557,84.809 150.473,83.487 150.760,82.220 150.760,82.220 150.760,82.220 150.760,82.220 Z " />
  <path stroke="none" fill="none" d="M 189.970,29.000 C 189.973,29.083 189.977,29.167 189.980,29.250 191.403,29.250 192.827,29.250 194.250,29.250 194.250,28.540 194.250,27.830 194.250,27.120 194.167,27.120 194.083,27.120 194.000,27.120 194.000,26.080 194.000,25.040 194.000,24.000 192.397,24.000 190.793,24.000 189.190,24.000 188.793,24.500 188.397,25.000 188.000,25.500 188.000,26.087 188.000,26.673 188.000,27.260 188.413,27.840 188.827,28.420 189.240,29.000 189.483,29.000 189.727,29.000 189.970,29.000 189.970,29.000 189.970,29.000 189.970,29.000 Z " />
  <path stroke="none" fill="none" d="M 139.750,53.250 C 139.750,54.250 139.750,55.250 139.750,56.250 141.677,54.660 143.952,53.547 146.390,53.000 146.480,53.000 155.150,51.820 159.490,53.730 160.275,54.063 161.003,54.515 161.650,55.070 162.420,53.930 163.220,52.770 164.100,51.590 164.230,51.417 164.360,51.243 164.490,51.070 164.707,51.047 164.923,51.023 165.140,51.000 165.478,50.951 165.812,50.877 166.140,50.780 166.637,49.520 167.133,48.260 167.630,47.000 160.917,47.000 154.203,47.000 147.490,47.000 142.477,46.936 137.730,49.255 134.700,53.250 136.383,53.250 138.067,53.250 139.750,53.250 Z " />
  <path stroke="none" fill="none" d="M 194.000,68.000 C 196.333,68.000 198.667,68.000 201.000,68.000 202.300,68.027 203.557,67.536 204.494,66.636 205.432,65.736 205.974,64.500 206.000,63.200 206.000,63.067 206.000,62.933 206.000,62.800 205.974,61.500 205.432,60.264 204.494,59.364 203.557,58.464 202.300,57.973 201.000,58.000 200.793,58.000 200.587,58.000 200.380,58.000 198.986,58.837 197.865,60.060 197.150,61.520 196.485,62.853 196.743,64.461 197.790,65.520 197.830,65.577 197.870,65.633 197.910,65.690 198.084,66.110 197.953,66.595 197.590,66.870 197.236,67.314 196.730,67.610 196.170,67.700 196.056,67.700 195.944,67.676 195.840,67.630 195.790,67.603 195.740,67.577 195.690,67.550 193.748,66.047 192.673,63.682 192.820,61.230 191.804,60.977 190.875,60.456 190.130,59.720 189.403,60.552 188.996,61.615 188.980,62.720 188.980,62.850 188.980,62.980 188.980,63.110 188.982,64.429 189.516,65.691 190.461,66.611 191.406,67.532 192.681,68.032 194.000,68.000 194.000,68.000 194.000,68.000 194.000,68.000 Z " />
  <path stroke="none" fill="none" d="M 186.060,64.090 C 186.060,64.123 186.060,64.157 186.060,64.190 186.234,67.903 189.225,70.864 192.940,71.000 193.273,71.000 193.607,71.000 193.940,71.000 189.947,71.012 186.569,68.050 186.060,64.090 186.060,64.090 186.060,64.090 186.060,64.090 Z " />
  <path stroke="none" fill="#ffffffff" d="M 214.320,18.960 C 213.939,18.960 213.630,18.651 213.630,18.270 213.630,17.889 213.939,17.580 214.320,17.580 214.701,17.580 215.010,17.889 215.010,18.270 215.021,18.460 214.953,18.646 214.823,18.784 214.692,18.922 214.510,19.000 214.320,19.000 214.320,18.987 214.320,18.973 214.320,18.960 Z M 214.320,16.080 C 213.111,16.080 212.130,17.061 212.130,18.270 212.130,19.480 213.111,20.460 214.320,20.460 215.530,20.460 216.510,19.480 216.510,18.270 216.510,17.689 216.279,17.132 215.869,16.721 215.458,16.311 214.901,16.080 214.320,16.080 214.320,16.080 214.320,16.080 214.320,16.080 Z " />
  <path stroke="none" fill="#ffffffff" d="M 271.380,17.260 C 271.761,17.260 272.070,17.569 272.070,17.950 272.070,18.331 271.761,18.640 271.380,18.640 270.999,18.640 270.690,18.331 270.690,17.950 270.690,17.767 270.763,17.592 270.892,17.462 271.022,17.333 271.197,17.260 271.380,17.260 271.380,17.260 271.380,17.260 271.380,17.260 Z M 271.380,20.140 C 272.270,20.140 273.072,19.601 273.408,18.776 273.743,17.952 273.547,17.006 272.910,16.384 272.273,15.761 271.323,15.587 270.507,15.941 269.690,16.296 269.170,17.110 269.190,18.000 269.217,19.190 270.190,20.140 271.380,20.140 271.380,20.140 271.380,20.140 271.380,20.140 Z " />
  <path stroke="none" fill="#ffffffff" d="M 361.000,40.050 C 358.583,41.117 356.167,42.183 353.750,43.250 353.750,38.393 353.750,33.537 353.750,28.680 356.167,29.747 358.583,30.813 361.000,31.880 361.000,34.603 361.000,37.327 361.000,40.050 Z M 352.000,47.530 C 351.527,48.020 351.053,48.510 350.580,49.000 318.970,49.000 287.360,49.000 255.750,49.000 255.750,47.250 255.750,45.500 255.750,43.750 287.917,43.750 320.083,43.750 352.250,43.750 352.250,43.807 352.250,43.863 352.250,43.920 352.167,43.947 352.083,43.973 352.000,44.000 352.000,45.177 352.000,46.353 352.000,47.530 Z M 254.000,51.000 C 252.917,51.000 251.833,51.000 250.750,51.000 250.750,41.333 250.750,31.667 250.750,22.000 251.833,22.000 252.917,22.000 254.000,22.000 254.000,23.000 254.000,24.000 254.000,25.000 254.083,25.000 254.167,25.000 254.250,25.000 254.250,30.750 254.250,36.500 254.250,42.250 254.167,42.250 254.083,42.250 254.000,42.250 254.000,42.750 254.000,43.250 254.000,43.750 254.083,43.750 254.167,43.750 254.250,43.750 254.250,45.500 254.250,47.250 254.250,49.000 254.167,49.000 254.083,49.000 254.000,49.000 254.000,49.667 254.000,50.333 254.000,51.000 Z M 249.250,36.250 C 243.083,36.250 236.917,36.250 230.750,36.250 230.750,36.083 230.750,35.917 230.750,35.750 236.917,35.750 243.083,35.750 249.250,35.750 249.250,35.917 249.250,36.083 249.250,36.250 Z M 225.000,49.000 C 225.000,40.667 225.000,32.333 225.000,24.000 232.807,24.000 240.613,24.000 248.420,24.000 248.697,23.570 248.973,23.140 249.250,22.710 249.250,26.557 249.250,30.403 249.250,34.250 242.583,34.250 235.917,34.250 229.250,34.250 229.250,35.417 229.250,36.583 229.250,37.750 235.917,37.750 242.583,37.750 249.250,37.750 249.250,41.930 249.250,46.110 249.250,50.290 248.973,49.860 248.697,49.430 248.420,49.000 240.613,49.000 232.807,49.000 225.000,49.000 Z M 216.930,52.000 C 216.810,54.190 216.150,54.710 215.990,54.720 215.990,54.720 215.990,54.720 215.990,54.720 215.903,54.720 215.817,54.720 215.730,54.720 215.240,54.720 214.750,54.720 214.260,54.720 213.013,54.223 211.917,53.410 211.080,52.360 211.010,52.267 210.940,52.173 210.870,52.080 207.017,51.927 203.163,51.773 199.310,51.620 199.670,50.050 200.490,46.550 201.470,42.780 201.987,40.230 204.002,38.251 206.560,37.780 210.040,37.780 213.520,37.780 217.000,37.780 217.000,41.520 217.000,45.260 217.000,49.000 217.000,49.000 217.000,49.000 217.000,49.000 216.973,50.000 216.947,51.000 216.920,52.000 216.923,52.000 216.927,52.000 216.930,52.000 Z M 210.850,56.280 C 210.866,56.914 210.594,57.521 210.110,57.930 209.740,57.930 209.370,57.930 209.000,57.930 209.000,59.553 209.000,61.177 209.000,62.800 208.974,60.705 208.116,58.706 206.616,57.243 205.115,55.780 203.095,54.973 201.000,55.000 198.667,55.000 196.333,55.000 194.000,55.000 191.905,54.973 189.885,55.780 188.384,57.243 186.884,58.706 186.026,60.705 186.000,62.800 186.000,62.930 186.000,63.060 186.000,63.190 186.000,63.400 186.000,63.610 186.000,63.820 185.970,63.487 185.940,63.153 185.910,62.820 184.723,62.847 183.537,62.873 182.350,62.900 182.350,62.857 182.350,62.813 182.350,62.770 182.373,62.770 182.397,62.770 182.420,62.770 182.420,60.330 182.420,56.490 182.420,55.460 182.450,55.430 182.480,55.400 182.510,55.370 182.480,55.233 182.450,55.097 182.420,54.960 181.420,50.690 179.920,48.220 178.640,46.820 180.605,46.438 182.396,45.435 183.750,43.960 183.863,43.820 183.977,43.680 184.090,43.540 184.090,42.040 184.090,40.540 184.090,39.040 185.147,39.040 186.203,39.040 187.260,39.040 188.173,38.027 189.087,37.013 190.000,36.000 190.000,34.250 190.000,32.500 190.000,30.750 191.917,30.750 193.833,30.750 195.750,30.750 195.750,29.537 195.750,28.323 195.750,27.110 200.500,27.073 205.250,27.037 210.000,27.000 210.000,24.000 210.000,21.000 210.000,18.000 210.083,18.000 210.167,18.000 210.250,18.000 210.250,20.583 210.250,23.167 210.250,25.750 212.500,25.750 214.750,25.750 217.000,25.750 217.000,29.250 217.000,32.750 217.000,36.250 213.483,36.250 209.967,36.250 206.450,36.250 203.224,36.753 200.651,39.210 200.000,42.410 198.670,47.530 197.630,52.140 197.620,52.180 197.553,52.473 197.487,52.767 197.420,53.060 201.643,53.230 205.867,53.400 210.090,53.570 210.472,54.011 210.890,54.419 211.340,54.790 211.177,54.790 211.013,54.790 210.850,54.790 210.850,55.287 210.850,55.783 210.850,56.280 Z M 209.000,63.440 C 209.000,67.610 205.900,71.000 202.090,71.000 201.727,71.000 201.363,71.000 201.000,71.000 203.095,71.027 205.115,70.220 206.616,68.757 208.116,67.294 208.974,65.295 209.000,63.200 209.000,63.280 209.000,63.360 209.000,63.440 Z M 195.790,60.920 C 194.978,62.602 195.171,64.595 196.290,66.090 196.290,66.090 196.290,66.090 196.290,66.090 194.851,64.815 194.148,62.903 194.420,61.000 194.543,60.710 194.667,60.420 194.790,60.130 194.480,60.077 194.170,60.023 193.860,59.970 192.900,59.842 192.001,59.427 191.280,58.780 192.094,58.267 193.038,57.997 194.000,58.000 195.333,58.000 196.667,58.000 198.000,58.000 197.073,58.813 196.321,59.807 195.790,60.920 195.790,60.920 195.790,60.920 195.790,60.920 Z M 189.000,62.800 C 189.016,61.695 189.423,60.632 190.150,59.800 190.895,60.536 191.824,61.057 192.840,61.310 192.693,63.762 193.768,66.127 195.710,67.630 195.760,67.657 195.810,67.683 195.860,67.710 195.964,67.756 196.076,67.780 196.190,67.780 196.750,67.690 197.256,67.394 197.610,66.950 197.973,66.675 198.104,66.190 197.930,65.770 197.890,65.713 197.850,65.657 197.810,65.600 196.763,64.541 196.505,62.933 197.170,61.600 197.872,60.110 198.995,58.859 200.400,58.000 200.600,58.000 200.800,58.000 201.000,58.000 202.300,57.973 203.557,58.464 204.494,59.364 205.432,60.264 205.974,61.500 206.000,62.800 206.000,62.930 206.000,63.060 206.000,63.190 205.974,64.490 205.432,65.726 204.494,66.626 203.557,67.526 202.300,68.017 201.000,67.990 198.667,67.990 196.333,67.990 194.000,67.990 192.700,68.017 191.443,67.526 190.506,66.626 189.568,65.726 189.026,64.490 189.000,63.190 189.000,63.060 189.000,62.930 189.000,62.800 Z M 192.940,71.000 C 189.225,70.864 186.234,67.903 186.060,64.190 186.060,64.157 186.060,64.123 186.060,64.090 186.572,68.073 189.984,71.043 194.000,71.000 193.647,71.000 193.293,71.000 192.940,71.000 Z M 180.140,61.260 C 175.140,63.150 174.030,65.450 172.460,70.630 171.090,75.160 171.190,82.050 171.230,85.360 171.230,86.090 171.230,86.850 171.230,86.960 171.151,87.268 170.878,87.488 170.560,87.500 169.560,87.500 159.670,87.500 156.870,87.390 156.059,87.361 155.257,87.213 154.490,86.950 154.597,86.837 154.703,86.723 154.810,86.610 153.830,85.618 153.390,84.214 153.630,82.840 153.700,82.510 153.770,82.080 153.860,81.550 154.260,79.069 154.821,76.618 155.540,74.210 155.540,74.177 155.540,74.143 155.540,74.110 155.740,73.610 155.960,73.050 156.210,72.420 157.910,67.783 160.191,63.382 163.000,59.320 163.057,59.237 163.113,59.153 163.170,59.070 163.190,58.973 163.210,58.877 163.230,58.780 163.265,58.531 163.265,58.279 163.230,58.030 164.110,56.670 165.050,55.290 166.110,53.860 166.830,53.700 167.570,53.460 167.670,53.430 167.890,53.357 168.110,53.283 168.330,53.210 169.173,51.140 170.017,49.070 170.860,47.000 172.783,47.000 174.707,47.000 176.630,47.000 177.740,47.880 179.750,50.110 180.910,55.230 180.860,55.920 180.910,57.420 180.910,60.990 180.653,61.080 180.397,61.170 180.140,61.260 Z M 131.000,83.750 C 132.570,83.750 134.140,83.750 135.710,83.750 135.710,82.750 135.710,81.750 135.710,80.750 136.185,80.920 136.686,81.007 137.190,81.010 140.687,81.010 144.183,81.010 147.680,81.010 148.834,81.012 149.977,80.795 151.050,80.370 151.033,80.580 151.017,80.790 151.000,81.000 150.920,81.480 150.850,81.870 150.790,82.170 150.490,83.440 150.563,84.770 151.000,86.000 148.380,85.810 143.400,85.460 139.290,85.320 136.452,85.326 133.639,84.793 131.000,83.750 131.000,83.750 131.000,83.750 131.000,83.750 Z M 90.210,81.490 C 74.070,82.100 60.710,84.840 46.560,87.730 33.810,90.340 21.610,91.730 17.360,92.240 17.294,90.702 17.338,89.162 17.490,87.630 20.720,70.800 19.490,50.930 19.270,48.210 19.520,47.790 20.570,47.010 23.380,47.010 25.090,47.010 30.780,47.760 37.980,48.720 49.830,50.290 66.050,52.440 79.880,53.340 101.790,54.760 122.800,54.760 132.880,54.760 134.670,54.760 136.460,54.760 138.250,54.760 138.250,55.300 138.250,55.840 138.250,56.380 137.412,57.445 136.660,58.576 136.000,59.760 135.410,60.471 134.865,61.220 134.370,62.000 131.940,65.800 130.850,74.270 133.100,78.380 133.397,78.932 133.786,79.429 134.250,79.850 134.250,80.650 134.250,81.450 134.250,82.250 132.420,82.250 130.590,82.250 128.760,82.250 128.627,82.057 128.493,81.863 128.360,81.670 128.103,81.670 127.847,81.670 127.590,81.670 127.310,81.650 100.210,81.110 90.210,81.490 90.210,81.490 90.210,81.490 90.210,81.490 Z M 135.730,76.950 C 134.090,73.950 135.010,66.570 136.900,63.630 140.210,58.460 145.080,56.200 146.800,55.970 148.561,55.743 150.335,55.629 152.110,55.630 154.205,55.534 156.299,55.822 158.290,56.480 158.942,56.729 159.527,57.126 160.000,57.640 156.983,62.438 154.587,67.599 152.870,73.000 152.373,74.430 151.701,75.794 150.870,77.060 149.897,77.797 148.687,78.153 147.470,78.060 144.070,78.060 140.670,78.060 137.270,78.060 136.800,78.000 136.240,77.880 135.730,76.950 135.730,76.950 135.730,76.950 135.730,76.950 Z M 147.490,47.000 C 154.203,47.000 160.917,47.000 167.630,47.000 167.127,48.260 166.623,49.520 166.120,50.780 165.792,50.877 165.458,50.951 165.120,51.000 164.903,51.023 164.687,51.047 164.470,51.070 164.340,51.243 164.210,51.417 164.080,51.590 163.200,52.770 162.390,53.930 161.630,55.070 160.983,54.515 160.255,54.063 159.470,53.730 155.130,51.820 146.470,52.980 146.370,53.000 143.935,53.538 141.660,54.641 139.730,56.220 139.730,55.220 139.730,54.220 139.730,53.220 138.063,53.220 136.397,53.220 134.730,53.220 137.760,49.245 142.492,46.938 147.490,47.000 147.490,47.000 147.490,47.000 147.490,47.000 Z M 188.000,25.500 C 188.397,25.000 188.793,24.500 189.190,24.000 190.793,24.000 192.397,24.000 194.000,24.000 194.000,25.040 194.000,26.080 194.000,27.120 194.083,27.120 194.167,27.120 194.250,27.120 194.250,27.830 194.250,28.540 194.250,29.250 192.833,29.250 191.417,29.250 190.000,29.250 190.000,29.167 190.000,29.083 190.000,29.000 189.757,29.000 189.513,29.000 189.270,29.000 188.847,28.420 188.423,27.840 188.000,27.260 188.000,26.673 188.000,26.087 188.000,25.500 Z M 206.750,13.210 C 206.750,11.660 206.750,10.110 206.750,8.560 206.833,8.597 206.917,8.633 207.000,8.670 207.000,8.113 207.000,7.557 207.000,7.000 210.083,7.000 213.167,7.000 216.250,7.000 216.250,8.750 216.250,10.500 216.250,12.250 215.083,12.250 213.917,12.250 212.750,12.250 212.750,11.403 212.750,10.557 212.750,9.710 212.831,8.856 212.420,8.029 211.691,7.577 210.961,7.125 210.039,7.125 209.309,7.577 208.580,8.029 208.169,8.856 208.250,9.710 208.250,12.140 208.250,14.570 208.250,17.000 207.833,17.000 207.417,17.000 207.000,17.000 207.000,15.710 207.000,14.420 207.000,13.130 206.917,13.157 206.833,13.183 206.750,13.210 Z M 201.100,15.000 C 194.733,15.000 188.367,15.000 182.000,15.000 182.000,12.000 182.000,9.000 182.000,6.000 188.333,6.000 194.667,6.000 201.000,6.000 202.413,6.630 203.827,7.260 205.240,7.890 205.240,9.823 205.240,11.757 205.240,13.690 203.860,14.127 202.480,14.563 201.100,15.000 Z M 219.000,6.000 C 227.360,6.000 235.720,6.000 244.080,6.000 244.080,6.333 244.080,6.667 244.080,7.000 244.137,7.000 244.193,7.000 244.250,7.000 244.250,8.577 244.250,10.153 244.250,11.730 248.750,11.730 253.250,11.730 257.750,11.730 257.750,9.820 257.750,7.910 257.750,6.000 260.917,6.000 264.083,6.000 267.250,6.000 267.250,8.667 267.250,11.333 267.250,14.000 251.083,14.000 234.917,14.000 218.750,14.000 218.750,13.750 218.750,13.500 218.750,13.250 218.417,13.250 218.083,13.250 217.750,13.250 217.750,11.167 217.750,9.083 217.750,7.000 218.167,7.000 218.583,7.000 219.000,7.000 219.000,6.667 219.000,6.333 219.000,6.000 Z M 247.060,5.530 C 247.060,5.530 247.060,5.530 247.060,5.530 247.083,5.100 247.277,4.697 247.597,4.410 247.918,4.123 248.340,3.975 248.770,4.000 249.334,4.029 249.878,4.216 250.340,4.540 250.798,5.158 250.831,5.994 250.422,6.647 250.013,7.299 249.247,7.634 248.490,7.491 247.734,7.348 247.143,6.756 247.000,6.000 247.031,5.845 247.051,5.688 247.060,5.530 247.060,5.530 247.060,5.530 247.060,5.530 Z M 256.250,5.660 C 256.250,7.190 256.250,8.720 256.250,10.250 252.750,10.250 249.250,10.250 245.750,10.250 245.750,9.167 245.750,8.083 245.750,7.000 246.455,8.535 248.192,9.306 249.803,8.797 251.413,8.289 252.394,6.661 252.090,5.000 253.060,5.000 254.030,5.000 255.000,5.000 255.417,5.220 255.833,5.440 256.250,5.660 Z M 282.000,7.000 C 284.667,6.667 287.333,6.333 290.000,6.000 293.667,6.000 297.333,6.000 301.000,6.000 301.000,9.000 301.000,12.000 301.000,15.000 297.350,15.000 293.700,15.000 290.050,15.000 287.430,14.667 284.810,14.333 282.190,14.000 281.710,14.000 281.230,14.000 280.750,14.000 280.750,11.667 280.750,9.333 280.750,7.000 281.167,7.000 281.583,7.000 282.000,7.000 Z M 279.000,17.000 C 278.250,17.000 277.500,17.000 276.750,17.000 276.750,14.667 276.750,12.333 276.750,10.000 276.757,9.288 276.441,8.611 275.890,8.160 275.172,7.598 274.241,7.385 273.350,7.580 272.113,7.830 271.230,8.928 271.250,10.190 271.250,11.227 271.250,12.263 271.250,13.300 270.417,13.300 269.583,13.300 268.750,13.300 268.750,10.867 268.750,8.433 268.750,6.000 268.833,6.000 268.917,6.000 269.000,6.000 269.000,5.667 269.000,5.333 269.000,5.000 272.333,5.000 275.667,5.000 279.000,5.000 279.000,5.667 279.000,6.333 279.000,7.000 279.083,7.000 279.167,7.000 279.250,7.000 279.250,9.333 279.250,11.667 279.250,14.000 279.167,14.000 279.083,14.000 279.000,14.000 279.000,15.000 279.000,16.000 279.000,17.000 Z M 274.250,14.750 C 274.250,14.833 274.250,14.917 274.250,15.000 274.167,15.000 274.083,15.000 274.000,15.000 274.000,16.000 274.000,17.000 274.000,18.000 274.083,18.000 274.167,18.000 274.250,18.000 274.250,19.750 274.250,21.500 274.250,23.250 272.500,23.250 270.750,23.250 269.000,23.250 269.000,20.417 269.000,17.583 269.000,14.750 270.750,14.750 272.500,14.750 274.250,14.750 Z M 275.250,13.250 C 274.417,13.250 273.583,13.250 272.750,13.250 272.750,12.213 272.750,11.177 272.750,10.140 272.736,9.599 273.103,9.123 273.630,9.000 274.081,8.895 274.555,8.989 274.930,9.260 275.138,9.428 275.256,9.683 275.250,9.950 275.250,11.050 275.250,12.150 275.250,13.250 Z M 298.000,25.000 C 298.000,25.667 298.000,26.333 298.000,27.000 298.083,27.000 298.167,27.000 298.250,27.000 298.250,27.417 298.250,27.833 298.250,28.250 284.083,28.250 269.917,28.250 255.750,28.250 255.750,27.167 255.750,26.083 255.750,25.000 260.167,25.000 264.583,25.000 269.000,25.000 269.000,24.917 269.000,24.833 269.000,24.750 271.257,24.750 273.513,24.750 275.770,24.750 275.770,22.750 275.770,20.750 275.770,18.750 275.847,18.750 275.923,18.750 276.000,18.750 276.000,20.833 276.000,22.917 276.000,25.000 283.333,25.000 290.667,25.000 298.000,25.000 Z M 311.250,27.000 C 311.250,27.583 311.250,28.167 311.250,28.750 320.250,28.750 329.250,28.750 338.250,28.750 338.250,31.907 338.250,35.063 338.250,38.220 325.417,38.220 312.583,38.220 299.750,38.220 299.750,34.480 299.750,30.740 299.750,27.000 303.583,27.000 307.417,27.000 311.250,27.000 Z M 313.000,23.000 C 325.520,23.000 338.040,23.000 350.560,23.000 351.040,23.480 351.520,23.960 352.000,24.440 352.000,25.593 352.000,26.747 352.000,27.900 352.083,27.937 352.167,27.973 352.250,28.010 352.250,28.090 352.250,28.170 352.250,28.250 348.083,28.250 343.917,28.250 339.750,28.250 339.750,27.917 339.750,27.583 339.750,27.250 330.750,27.250 321.750,27.250 312.750,27.250 312.750,27.167 312.750,27.083 312.750,27.000 312.833,27.000 312.917,27.000 313.000,27.000 313.000,25.667 313.000,24.333 313.000,23.000 Z M 339.750,29.750 C 343.917,29.750 348.083,29.750 352.250,29.750 352.250,31.583 352.250,33.417 352.250,35.250 348.083,35.250 343.917,35.250 339.750,35.250 339.750,33.417 339.750,31.583 339.750,29.750 Z M 255.750,36.750 C 269.917,36.750 284.083,36.750 298.250,36.750 298.250,37.750 298.250,38.750 298.250,39.750 312.083,39.750 325.917,39.750 339.750,39.750 339.750,38.750 339.750,37.750 339.750,36.750 343.917,36.750 348.083,36.750 352.250,36.750 352.250,38.583 352.250,40.417 352.250,42.250 320.083,42.250 287.917,42.250 255.750,42.250 255.750,40.417 255.750,38.583 255.750,36.750 Z M 298.250,35.250 C 284.083,35.250 269.917,35.250 255.750,35.250 255.750,33.417 255.750,31.583 255.750,29.750 269.917,29.750 284.083,29.750 298.250,29.750 298.250,31.583 298.250,33.417 298.250,35.250 Z M 220.000,27.170 C 220.667,26.393 221.333,25.617 222.000,24.840 222.000,32.893 222.000,40.947 222.000,49.000 221.333,49.000 220.667,49.000 220.000,49.000 220.000,41.723 220.000,34.447 220.000,27.170 Z M 211.750,14.750 C 213.500,14.750 215.250,14.750 217.000,14.750 217.000,17.917 217.000,21.083 217.000,24.250 215.250,24.250 213.500,24.250 211.750,24.250 211.750,21.083 211.750,17.917 211.750,14.750 Z M 210.250,13.250 C 210.250,13.833 210.250,14.417 210.250,15.000 210.087,15.000 209.923,15.000 209.760,15.000 209.760,13.237 209.760,11.473 209.760,9.710 209.760,9.220 210.140,8.710 210.510,8.710 210.880,8.710 211.260,9.210 211.260,9.710 211.260,10.557 211.260,11.403 211.260,12.250 211.173,12.250 211.087,12.250 211.000,12.250 211.000,12.583 211.000,12.917 211.000,13.250 210.750,13.250 210.500,13.250 210.250,13.250 Z M 248.080,19.000 C 247.650,19.667 247.220,20.333 246.790,21.000 239.497,21.000 232.203,21.000 224.910,21.000 224.704,20.397 224.137,19.992 223.500,19.992 222.863,19.992 222.296,20.397 222.090,21.000 221.840,21.000 221.590,21.000 221.340,21.000 220.893,21.520 220.447,22.040 220.000,22.560 220.000,20.707 220.000,18.853 220.000,17.000 235.333,17.000 250.667,17.000 266.000,17.000 266.000,18.667 266.000,20.333 266.000,22.000 263.000,22.000 260.000,22.000 257.000,22.000 257.000,21.000 257.000,20.000 257.000,19.000 254.027,19.000 251.053,19.000 248.080,19.000 Z M 355.000,25.950 C 355.000,25.033 355.000,24.117 355.000,23.200 353.937,22.133 352.873,21.067 351.810,20.000 337.873,20.000 323.937,20.000 310.000,20.000 310.000,21.333 310.000,22.667 310.000,24.000 307.000,24.000 304.000,24.000 301.000,24.000 301.000,23.333 301.000,22.667 301.000,22.000 293.667,22.000 286.333,22.000 279.000,22.000 279.000,21.333 279.000,20.667 279.000,20.000 280.000,20.000 281.000,20.000 282.000,20.000 282.000,19.000 282.000,18.000 282.000,17.000 284.590,17.333 287.180,17.667 289.770,18.000 294.513,18.000 299.257,18.000 304.000,18.000 304.000,13.000 304.000,8.000 304.000,3.000 299.333,3.000 294.667,3.000 290.000,3.000 287.333,3.333 284.667,3.667 282.000,4.000 282.000,3.333 282.000,2.667 282.000,2.000 276.667,2.000 271.333,2.000 266.000,2.000 266.000,2.333 266.000,2.667 266.000,3.000 263.213,3.000 260.427,3.000 257.640,3.000 257.020,2.667 256.400,2.333 255.780,2.000 254.500,2.000 253.220,2.000 251.940,2.000 250.996,1.373 249.893,1.026 248.760,1.000 247.215,0.991 245.762,1.738 244.870,3.000 235.247,3.000 225.623,3.000 216.000,3.000 216.000,3.333 216.000,3.667 216.000,4.000 212.000,4.000 208.000,4.000 204.000,4.000 204.000,4.000 204.000,4.000 204.000,4.000 203.217,3.667 202.433,3.333 201.650,3.000 194.100,3.000 186.550,3.000 179.000,3.000 179.000,8.000 179.000,13.000 179.000,18.000 186.520,18.000 194.040,18.000 201.560,18.000 202.373,17.743 203.187,17.487 204.000,17.230 204.000,18.153 204.000,19.077 204.000,20.000 205.000,20.000 206.000,20.000 207.000,20.000 207.000,21.333 207.000,22.667 207.000,24.000 203.667,24.027 200.333,24.053 197.000,24.080 197.000,23.053 197.000,22.027 197.000,21.000 193.917,21.000 190.833,21.000 187.750,21.000 186.833,22.153 185.917,23.307 185.000,24.460 185.000,25.713 185.000,26.967 185.000,28.220 185.667,29.153 186.333,30.087 187.000,31.020 187.000,32.290 187.000,33.560 187.000,34.830 186.630,35.220 186.260,35.610 185.890,36.000 184.260,36.000 182.630,36.000 181.000,36.000 181.020,38.110 181.040,40.220 181.060,42.330 179.830,43.417 178.242,44.011 176.600,44.000 166.897,44.000 157.193,44.000 147.490,44.000 141.391,43.912 135.634,46.810 132.070,51.760 121.720,51.760 101.300,51.760 80.070,50.340 66.340,49.450 50.180,47.340 38.370,45.740 30.770,44.740 25.290,44.000 23.370,44.000 16.930,44.000 16.310,47.430 16.250,47.820 16.250,47.873 16.250,47.927 16.250,47.980 16.250,48.033 16.250,48.087 16.250,48.140 16.250,48.350 17.920,69.460 14.530,87.140 14.318,89.420 14.278,91.714 14.410,94.000 14.433,94.523 14.457,95.047 14.480,95.570 14.987,95.510 15.493,95.450 16.000,95.390 16.150,95.390 31.200,93.920 47.110,90.670 61.110,87.800 74.380,85.090 90.270,84.490 99.340,84.150 122.670,84.560 126.840,84.640 128.060,85.800 131.420,88.070 139.180,88.340 144.180,88.510 150.470,88.990 152.180,89.120 153.565,89.938 155.142,90.376 156.750,90.390 159.750,90.550 170.240,90.500 170.750,90.500 172.440,90.389 173.845,89.160 174.180,87.500 174.243,86.758 174.243,86.012 174.180,85.270 174.180,82.110 174.040,75.540 175.280,71.460 176.520,67.380 177.220,65.870 179.740,64.630 179.887,65.043 180.033,65.457 180.180,65.870 182.120,65.913 184.060,65.957 186.000,66.000 187.354,69.179 190.549,71.176 194.000,71.000 196.667,71.000 199.333,71.000 202.000,71.000 204.000,71.000 209.000,68.000 209.000,63.000 209.667,62.000 210.333,61.000 211.000,60.000 211.670,59.450 212.000,59.000 213.000,58.000 213.810,58.000 215.400,57.710 215.690,57.700 216.568,57.748 217.429,57.450 218.090,56.870 219.210,55.870 219.830,54.280 219.930,51.990 220.650,51.990 221.370,51.990 222.090,51.990 222.296,52.593 222.863,52.998 223.500,52.998 224.137,52.998 224.704,52.593 224.910,51.990 232.203,51.990 239.497,51.990 246.790,51.990 247.220,52.657 247.650,53.323 248.080,53.990 251.053,53.990 254.027,53.990 257.000,53.990 257.000,53.327 257.000,52.663 257.000,52.000 288.617,52.000 320.233,52.000 351.850,52.000 352.900,50.913 353.950,49.827 355.000,48.740 355.000,47.827 355.000,46.913 355.000,46.000 358.000,44.667 361.000,43.333 364.000,42.000 364.000,37.973 364.000,33.947 364.000,29.920 361.000,28.597 358.000,27.273 355.000,25.950 Z " />
</svg>