<?xml version="1.0" encoding="UTF-8" standalone="no"?>
<!DOCTYPE svg PUBLIC "-//W3C//DTD SVG 20010904//EN" "http://www.w3.org/TR/2001/REC-SVG-20010904/DTD/svg10.dtd"[]>
<svg version="1.1" id="Frosty Editor v1.0.6.3" xmlns="http://www.w3.org/2000/svg" d1p1:xlink="http://www.w3.org/1999/xlink" viewBox="0 0 96 96" xmlns:d1p1="xmlns">
  <path stroke="none" fill="#ffffffff" d="M 42.000,59.600 C 40.800,59.400 39.500,59.800 38.600,60.600 38.000,61.300 37.600,62.200 37.500,63.100 37.167,65.967 36.833,68.833 36.500,71.700 36.300,73.800 37.900,75.600 40.300,75.900 41.300,76.100 42.200,75.800 43.000,75.200 43.700,74.600 44.200,73.700 44.300,72.800 44.633,69.833 44.967,66.867 45.300,63.900 45.600,60.700 43.700,59.800 42.000,59.600 42.000,59.600 42.000,59.600 42.000,59.600 Z " />
  <path stroke="none" fill="#ffffffff" d="M 33.000,58.200 C 31.900,58.000 30.800,58.400 30.000,59.100 29.400,59.700 29.100,60.500 29.000,61.300 28.733,63.700 28.467,66.100 28.200,68.500 28.100,69.300 28.300,70.100 28.800,70.700 29.500,71.500 30.400,72.000 31.400,72.100 33.100,72.400 34.700,71.200 34.900,69.500 34.900,69.500 34.900,69.400 34.900,69.400 35.167,66.900 35.433,64.400 35.700,61.900 35.900,61.000 35.700,60.000 35.100,59.200 34.700,58.600 33.900,58.200 33.000,58.200 33.000,58.200 33.000,58.200 33.000,58.200 Z " />
  <path stroke="none" fill="#ffffffff" d="M 55.700,71.800 C 55.700,72.800 56.200,73.700 57.000,74.200 57.800,74.800 58.900,75.100 59.900,74.900 61.800,74.500 63.000,73.000 63.000,71.900 63.167,69.800 63.333,67.700 63.500,65.600 60.933,66.567 58.367,67.533 55.800,68.500 55.767,69.600 55.733,70.700 55.700,71.800 55.700,71.800 55.700,71.800 55.700,71.800 Z " />
  <path stroke="none" fill="#ffffffff" d="M 49.500,68.800 C 47.700,67.800 46.800,65.400 46.800,65.400 46.700,66.300 46.600,67.200 46.500,68.100 46.400,69.200 45.900,74.200 45.900,74.400 45.700,75.300 46.000,76.200 46.500,77.000 47.200,77.800 48.300,78.200 49.300,78.200 51.100,78.400 52.700,77.100 52.900,75.300 52.900,75.300 52.900,75.200 52.900,75.200 53.167,73.200 53.433,71.200 53.700,69.200 53.800,69.200 51.000,69.600 49.500,68.800 49.500,68.800 49.500,68.800 49.500,68.800 Z " />
  <path stroke="none" fill="#ffffffff" d="M 68.200,47.600 C 66.400,44.100 61.500,42.700 61.300,42.300 61.400,42.200 62.800,40.900 64.200,42.500 63.300,38.500 61.200,37.300 57.700,36.800 57.700,36.700 57.500,36.800 57.600,36.700 59.500,35.800 61.800,36.700 62.200,36.800 61.500,36.100 59.600,33.000 55.300,34.500 56.500,33.200 57.500,30.500 57.400,28.700 57.200,23.200 54.700,22.200 53.500,21.300 54.200,23.300 54.400,24.000 53.500,24.300 52.900,23.900 52.300,23.500 51.800,23.200 50.700,22.700 49.700,22.400 48.800,22.300 47.300,21.500 49.800,19.200 50.500,19.000 47.200,19.000 45.000,19.700 43.900,21.200 43.300,21.300 42.700,21.400 42.000,21.600 42.000,21.600 42.000,21.600 42.000,21.600 42.000,21.600 41.900,21.600 41.900,21.600 40.700,22.000 39.500,22.400 38.400,22.800 38.800,21.500 39.200,20.100 39.400,18.700 38.000,20.400 35.900,21.500 34.300,23.000 34.100,22.500 33.600,21.900 32.500,21.400 32.400,22.200 32.100,23.000 31.500,23.700 30.800,21.200 29.900,18.900 28.800,17.600 28.800,18.100 28.700,18.500 28.700,19.000 28.500,20.600 27.600,22.000 26.800,23.400 25.400,25.700 24.300,28.100 24.900,30.900 25.500,30.400 26.000,29.900 26.500,29.500 26.000,31.100 25.400,32.700 25.000,34.400 24.600,36.100 24.600,37.700 24.900,39.400 25.000,39.400 25.100,39.400 25.200,39.500 25.600,38.700 26.000,37.900 26.400,37.100 26.500,37.100 26.500,37.100 26.600,37.100 25.400,42.500 24.100,46.400 26.900,51.400 27.000,50.100 27.700,50.200 28.700,49.100 29.200,50.200 29.700,51.400 30.100,52.600 30.100,52.600 30.100,52.700 30.100,52.700 29.800,54.100 29.700,55.200 29.700,55.300 29.633,55.867 29.567,56.433 29.500,57.000 29.967,56.667 30.433,56.333 30.900,56.000 31.500,55.600 33.200,55.200 34.400,55.400 36.500,55.800 37.700,57.700 37.700,57.700 37.833,58.033 37.967,58.367 38.100,58.700 38.367,58.433 38.633,58.167 38.900,57.900 40.100,56.900 41.400,56.700 43.000,57.000 45.600,57.500 46.800,59.500 46.800,59.500 48.100,58.000 53.800,55.600 53.800,55.600 53.800,55.600 55.800,57.400 56.000,57.600 54.800,58.100 52.500,58.900 51.300,59.500 50.400,59.900 47.700,61.200 48.400,64.300 48.600,65.300 49.300,66.200 50.200,66.700 51.000,67.100 52.000,67.300 52.900,67.000 52.900,67.000 52.900,67.000 52.900,67.000 53.300,66.867 53.700,66.733 54.100,66.600 55.600,66.100 57.600,65.300 59.200,64.700 61.900,63.600 64.100,62.600 64.800,60.700 65.800,57.900 67.000,51.400 66.100,49.600 66.000,49.500 66.000,49.400 65.900,49.300 66.800,49.800 67.900,49.000 68.900,49.700 68.800,49.900 68.300,47.900 68.200,47.600 68.200,47.600 68.200,47.600 68.200,47.600 Z " />
</svg>