<?xml version="1.0" encoding="UTF-8" standalone="no"?>
<!DOCTYPE svg PUBLIC "-//W3C//DTD SVG 20010904//EN" "http://www.w3.org/TR/2001/REC-SVG-20010904/DTD/svg10.dtd"[]>
<svg version="1.1" id="Frosty Editor v1.0.6.3" xmlns="http://www.w3.org/2000/svg" d1p1:xlink="http://www.w3.org/1999/xlink" viewBox="0 0 96 96" xmlns:d1p1="xmlns">
  <path stroke="none" fill="#ffffffff" d="M 39.500,48.000 C 40.300,48.000 41.100,48.000 41.900,48.000 41.900,46.833 41.900,45.667 41.900,44.500 41.100,44.500 40.300,44.500 39.500,44.500 39.500,45.667 39.500,46.833 39.500,48.000 39.500,48.000 39.500,48.000 39.500,48.000 Z " />
  <path stroke="none" fill="#ffffffff" d="M 54.100,48.000 C 54.900,48.000 55.700,48.000 56.500,48.000 56.500,46.833 56.500,45.667 56.500,44.500 55.700,44.500 54.900,44.500 54.100,44.500 54.100,45.667 54.100,46.833 54.100,48.000 54.100,48.000 54.100,48.000 54.100,48.000 Z " />
  <path stroke="none" fill="#ffffffff" d="M 39.500,66.900 C 39.500,69.067 39.500,71.233 39.500,73.400 39.500,73.400 39.500,73.500 39.500,73.500 39.500,73.600 39.600,73.700 39.700,73.700 40.833,73.700 41.967,73.700 43.100,73.700 43.100,71.367 43.100,69.033 43.100,66.700 41.967,66.700 40.833,66.700 39.700,66.700 39.600,66.700 39.500,66.800 39.500,66.900 39.500,66.900 39.500,66.900 39.500,66.900 Z " />
  <path stroke="none" fill="#ffffffff" d="M 56.300,66.700 C 55.167,66.700 54.033,66.700 52.900,66.700 52.900,69.033 52.900,71.367 52.900,73.700 54.033,73.700 55.167,73.700 56.300,73.700 56.400,73.700 56.500,73.600 56.500,73.500 56.500,73.500 56.500,73.400 56.500,73.400 56.500,71.233 56.500,69.067 56.500,66.900 56.500,66.800 56.400,66.700 56.300,66.700 56.300,66.700 56.300,66.700 56.300,66.700 Z " />
  <path stroke="none" fill="#ffffffff" d="M 58.200,53.800 C 57.633,53.800 57.067,53.800 56.500,53.800 56.500,53.033 56.500,52.267 56.500,51.500 57.267,51.500 58.033,51.500 58.800,51.500 58.800,50.733 58.800,49.967 58.800,49.200 51.567,49.200 44.333,49.200 37.100,49.200 37.100,49.967 37.100,50.733 37.100,51.500 37.900,51.500 38.700,51.500 39.500,51.500 39.500,52.267 39.500,53.033 39.500,53.800 38.900,53.800 38.300,53.800 37.700,53.800 37.700,54.567 37.700,55.333 37.700,56.100 38.300,56.100 38.900,56.100 39.500,56.100 39.500,56.500 39.500,56.900 39.500,57.300 39.100,57.300 38.700,57.300 38.300,57.300 38.300,57.800 38.300,59.600 38.300,59.600 38.700,59.600 39.100,59.600 39.500,59.600 39.500,61.500 39.500,63.400 39.500,65.300 39.400,65.400 39.500,65.500 39.600,65.400 40.367,65.400 41.133,65.400 41.900,65.400 41.900,60.733 41.900,56.067 41.900,51.400 43.100,51.400 44.300,51.400 45.500,51.400 45.500,52.167 45.500,52.933 45.500,53.700 44.700,53.700 43.900,53.700 43.100,53.700 43.100,54.467 43.100,55.233 43.100,56.000 43.900,56.000 44.700,56.000 45.500,56.000 45.500,58.000 45.500,60.000 45.500,62.000 45.067,62.000 44.633,62.000 44.200,62.000 44.200,62.767 44.200,63.533 44.200,64.300 44.633,64.300 45.067,64.300 45.500,64.300 45.500,72.000 45.500,79.700 45.500,87.400 47.100,87.400 48.700,87.400 50.300,87.400 50.300,79.700 50.300,72.000 50.300,64.300 50.700,64.300 51.100,64.300 51.500,64.300 51.500,63.533 51.500,62.767 51.500,62.000 51.100,62.000 50.700,62.000 50.300,62.000 50.300,60.067 50.300,58.133 50.300,56.200 51.100,56.200 51.900,56.200 52.700,56.200 52.700,55.433 52.700,54.667 52.700,53.900 51.900,53.900 51.100,53.900 50.300,53.900 50.300,53.133 50.300,52.367 50.300,51.600 51.500,51.600 52.700,51.600 53.900,51.600 53.900,56.267 53.900,60.933 53.900,65.600 54.600,65.600 55.300,65.600 56.000,65.600 56.100,65.600 56.300,65.500 56.400,65.500 56.400,63.600 56.400,61.700 56.400,59.800 56.800,59.800 57.200,59.800 57.600,59.800 57.600,59.033 57.600,58.267 57.600,57.500 57.200,57.500 56.800,57.500 56.400,57.500 56.400,57.100 56.400,56.700 56.400,56.300 56.967,56.300 57.533,56.300 58.100,56.300 58.100,55.467 58.100,54.633 58.100,53.800 58.133,53.800 58.167,53.800 58.200,53.800 Z " />
  <path stroke="none" fill="#ffffffff" d="M 50.400,23.500 C 50.000,23.500 49.600,23.500 49.200,23.500 49.200,23.100 49.200,22.700 49.200,22.300 48.400,22.300 47.600,22.300 46.800,22.300 46.800,22.700 46.800,23.100 46.800,23.500 46.400,23.500 46.000,23.500 45.600,23.500 45.600,24.267 45.600,25.033 45.600,25.800 46.000,25.800 46.400,25.800 46.800,25.800 46.800,26.200 46.800,26.600 46.800,27.000 47.600,27.000 48.400,27.000 49.200,27.000 49.200,26.600 49.200,26.200 49.200,25.800 49.600,25.800 50.000,25.800 50.400,25.800 50.400,25.033 50.400,24.267 50.400,23.500 Z " />
  <path stroke="none" fill="#ffffffff" d="M 52.300,12.800 C 52.300,15.175 50.375,17.100 48.000,17.100 45.625,17.100 43.700,15.175 43.700,12.800 43.700,10.425 45.625,8.500 48.000,8.500 50.375,8.500 52.300,10.425 52.300,12.800 52.300,12.800 52.300,12.800 52.300,12.800 Z " />
  <path stroke="none" fill="#ffffffff" d="M 24.300,33.200 C 24.300,35.575 22.375,37.500 20.000,37.500 17.625,37.500 15.700,35.575 15.700,33.200 15.700,30.825 17.625,28.900 20.000,28.900 22.375,28.900 24.300,30.825 24.300,33.200 24.300,33.200 24.300,33.200 24.300,33.200 Z " />
  <path stroke="none" fill="#ffffffff" d="M 35.000,66.100 C 35.000,68.475 33.075,70.400 30.700,70.400 28.325,70.400 26.400,68.475 26.400,66.100 26.400,63.725 28.325,61.800 30.700,61.800 33.075,61.800 35.000,63.725 35.000,66.100 35.000,66.100 35.000,66.100 35.000,66.100 Z " />
  <path stroke="none" fill="#ffffffff" d="M 69.600,66.100 C 69.600,68.475 67.675,70.400 65.300,70.400 62.925,70.400 61.000,68.475 61.000,66.100 61.000,63.725 62.925,61.800 65.300,61.800 67.675,61.800 69.600,63.725 69.600,66.100 69.600,66.100 69.600,66.100 69.600,66.100 Z " />
  <path stroke="none" fill="#ffffffff" d="M 69.700,33.200 C 69.700,33.000 69.700,32.900 69.700,32.800 68.133,32.967 66.567,33.133 65.000,33.300 61.467,31.967 57.933,30.633 54.400,29.300 53.067,29.300 51.733,29.300 50.400,29.300 50.400,28.933 50.400,28.567 50.400,28.200 50.400,28.200 50.400,28.100 50.400,28.100 48.767,28.100 47.133,28.100 45.500,28.100 45.500,28.100 45.500,28.200 45.500,28.200 45.500,28.567 45.500,28.933 45.500,29.300 44.100,29.300 42.700,29.300 41.300,29.300 37.767,30.633 34.233,31.967 30.700,33.300 29.167,33.100 27.633,32.900 26.100,32.700 26.100,32.800 26.100,33.000 26.100,33.100 26.100,34.100 25.900,35.000 25.500,35.800 27.233,36.000 28.967,36.200 30.700,36.400 30.800,36.400 30.800,36.400 30.900,36.400 34.367,35.200 37.833,34.000 41.300,32.800 42.667,32.800 44.033,32.800 45.400,32.800 45.400,35.533 45.400,38.267 45.400,41.000 45.000,41.000 44.600,41.000 44.200,41.000 44.200,42.167 44.200,43.333 44.200,44.500 44.600,44.500 45.000,44.500 45.400,44.500 45.400,45.667 45.400,46.833 45.400,48.000 47.033,48.000 48.667,48.000 50.300,48.000 50.300,46.833 50.300,45.667 50.300,44.500 50.667,44.500 51.033,44.500 51.400,44.500 51.400,43.333 51.400,42.167 51.400,41.000 51.033,41.000 50.667,41.000 50.300,41.000 50.300,38.267 50.300,35.533 50.300,32.800 51.600,32.800 52.900,32.800 54.200,32.800 57.667,34.000 61.133,35.200 64.600,36.400 64.700,36.400 64.700,36.400 64.800,36.400 66.600,36.200 68.400,36.000 70.200,35.800 70.000,35.000 69.700,34.100 69.700,33.200 69.700,33.200 69.700,33.200 69.700,33.200 Z " />
  <path stroke="none" fill="#ffffffff" d="M 80.300,33.200 C 80.300,35.575 78.375,37.500 76.000,37.500 73.625,37.500 71.700,35.575 71.700,33.200 71.700,30.825 73.625,28.900 76.000,28.900 78.375,28.900 80.300,30.825 80.300,33.200 80.300,33.200 80.300,33.200 80.300,33.200 Z " />
</svg>