<?xml version="1.0" encoding="UTF-8" standalone="no"?>
<!DOCTYPE svg PUBLIC "-//W3C//DTD SVG 20010904//EN" "http://www.w3.org/TR/2001/REC-SVG-20010904/DTD/svg10.dtd"[]>
<svg version="1.1" id="Frosty Editor v1.0.6.3" xmlns="http://www.w3.org/2000/svg" d1p1:xlink="http://www.w3.org/1999/xlink" viewBox="0 0 96 96" xmlns:d1p1="xmlns">
  <path stroke="none" fill="#ff000000" d="M 0.000,0.000 C 32.000,0.000 64.000,0.000 96.000,0.000 96.000,32.000 96.000,64.000 96.000,96.000 64.000,96.000 32.000,96.000 0.000,96.000 0.000,64.000 0.000,32.000 0.000,0.000 Z " />
  <path stroke="none" fill="#ffe99c00" d="M 64.000,66.000 C 61.333,66.000 58.667,66.000 56.000,66.000 56.000,54.000 56.000,42.000 56.000,30.000 58.667,30.000 61.333,30.000 64.000,30.000 64.000,42.000 64.000,54.000 64.000,66.000 64.000,66.000 64.000,66.000 64.000,66.000 Z M 52.000,60.000 C 49.333,60.000 46.667,60.000 44.000,60.000 44.000,52.000 44.000,44.000 44.000,36.000 46.667,36.000 49.333,36.000 52.000,36.000 52.000,44.000 52.000,52.000 52.000,60.000 52.000,60.000 52.000,60.000 52.000,60.000 Z M 40.000,66.000 C 37.333,66.000 34.667,66.000 32.000,66.000 32.000,54.000 32.000,42.000 32.000,30.000 34.667,30.000 37.333,30.000 40.000,30.000 40.000,42.000 40.000,54.000 40.000,66.000 40.000,66.000 40.000,66.000 40.000,66.000 Z M 74.000,20.000 C 56.667,20.000 39.333,20.000 22.000,20.000 20.900,20.000 20.000,20.900 20.000,22.000 20.000,39.333 20.000,56.667 20.000,74.000 20.000,75.100 20.900,76.000 22.000,76.000 39.333,76.000 56.667,76.000 74.000,76.000 75.100,76.000 76.000,75.100 76.000,74.000 76.000,56.667 76.000,39.333 76.000,22.000 76.000,20.900 75.100,20.000 74.000,20.000 74.000,20.000 74.000,20.000 74.000,20.000 Z " />
  <path stroke="none" fill="#ffffffff" d="M 56.000,64.000 C 53.333,59.500 50.667,55.000 48.000,50.500 45.333,55.000 42.667,59.500 40.000,64.000 37.667,64.000 35.333,64.000 33.000,64.000 37.133,57.000 41.267,50.000 45.400,43.000 47.133,43.000 48.867,43.000 50.600,43.000 54.733,50.000 58.867,57.000 63.000,64.000 60.667,64.000 58.333,64.000 56.000,64.000 56.000,64.000 56.000,64.000 56.000,64.000 Z M 55.100,19.000 C 50.433,19.000 45.767,19.000 41.100,19.000 32.433,34.000 23.767,49.000 15.100,64.000 17.433,68.000 19.767,72.000 22.100,76.000 39.433,76.000 56.767,76.000 74.100,76.000 76.367,72.000 78.633,68.000 80.900,64.000 72.300,49.000 63.700,34.000 55.100,19.000 55.100,19.000 55.100,19.000 55.100,19.000 Z " />
  <path stroke="none" fill="#ffffffff" d="M 63.000,67.000 C 61.000,67.000 59.000,67.000 57.000,67.000 57.000,60.333 57.000,53.667 57.000,47.000 59.000,47.000 61.000,47.000 63.000,47.000 63.000,53.667 63.000,60.333 63.000,67.000 63.000,67.000 63.000,67.000 63.000,67.000 Z M 51.000,61.000 C 49.000,61.000 47.000,61.000 45.000,61.000 45.000,51.000 45.000,41.000 45.000,31.000 47.000,31.000 49.000,31.000 51.000,31.000 51.000,41.000 51.000,51.000 51.000,61.000 51.000,61.000 51.000,61.000 51.000,61.000 Z M 39.000,67.000 C 37.000,67.000 35.000,67.000 33.000,67.000 33.000,60.333 33.000,53.667 33.000,47.000 35.000,47.000 37.000,47.000 39.000,47.000 39.000,53.667 39.000,60.333 39.000,67.000 39.000,67.000 39.000,67.000 39.000,67.000 Z M 48.000,16.000 C 38.667,27.333 29.333,38.667 20.000,50.000 20.000,58.667 20.000,67.333 20.000,76.000 38.667,76.000 57.333,76.000 76.000,76.000 76.000,67.333 76.000,58.667 76.000,50.000 66.667,38.667 57.333,27.333 48.000,16.000 48.000,16.000 48.000,16.000 48.000,16.000 Z " />
  <path stroke="none" fill="#ffffffff" d="M 61.000,47.000 C 59.000,47.000 57.000,47.000 55.000,47.000 55.000,43.333 55.000,39.667 55.000,36.000 57.000,36.000 59.000,36.000 61.000,36.000 61.000,39.667 61.000,43.333 61.000,47.000 61.000,47.000 61.000,47.000 61.000,47.000 Z M 61.000,61.000 C 59.000,61.000 57.000,61.000 55.000,61.000 55.000,57.667 55.000,54.333 55.000,51.000 57.000,51.000 59.000,51.000 61.000,51.000 61.000,54.333 61.000,57.667 61.000,61.000 61.000,61.000 61.000,61.000 61.000,61.000 Z M 51.000,47.000 C 49.000,47.000 47.000,47.000 45.000,47.000 45.000,43.333 45.000,39.667 45.000,36.000 47.000,36.000 49.000,36.000 51.000,36.000 51.000,39.667 51.000,43.333 51.000,47.000 51.000,47.000 51.000,47.000 51.000,47.000 Z M 51.000,61.000 C 49.000,61.000 47.000,61.000 45.000,61.000 45.000,57.667 45.000,54.333 45.000,51.000 47.000,51.000 49.000,51.000 51.000,51.000 51.000,54.333 51.000,57.667 51.000,61.000 51.000,61.000 51.000,61.000 51.000,61.000 Z M 41.000,47.000 C 39.000,47.000 37.000,47.000 35.000,47.000 35.000,43.333 35.000,39.667 35.000,36.000 37.000,36.000 39.000,36.000 41.000,36.000 41.000,39.667 41.000,43.333 41.000,47.000 41.000,47.000 41.000,47.000 41.000,47.000 Z M 41.000,61.000 C 39.000,61.000 37.000,61.000 35.000,61.000 35.000,57.667 35.000,54.333 35.000,51.000 37.000,51.000 39.000,51.000 41.000,51.000 41.000,54.333 41.000,57.667 41.000,61.000 41.000,61.000 41.000,61.000 41.000,61.000 Z M 72.000,20.000 C 56.000,20.000 40.000,20.000 24.000,20.000 22.400,21.600 21.600,22.400 20.000,24.000 20.000,40.000 20.000,56.000 20.000,72.000 21.600,73.600 22.400,74.400 24.000,76.000 40.000,76.000 56.000,76.000 72.000,76.000 73.600,74.400 74.400,73.600 76.000,72.000 76.000,56.000 76.000,40.000 76.000,24.000 74.400,22.400 73.600,21.600 72.000,20.000 72.000,20.000 72.000,20.000 72.000,20.000 Z " />
  <path stroke="none" fill="#ffffffff" d="M 61.000,66.000 C 59.000,66.000 57.000,66.000 55.000,66.000 55.000,55.700 55.000,45.400 55.000,35.100 57.000,35.100 59.000,35.100 61.000,35.100 61.000,45.400 61.000,55.700 61.000,66.000 61.000,66.000 61.000,66.000 61.000,66.000 Z M 51.000,66.000 C 49.000,66.000 47.000,66.000 45.000,66.000 45.000,55.700 45.000,45.400 45.000,35.100 47.000,35.100 49.000,35.100 51.000,35.100 51.000,45.400 51.000,55.700 51.000,66.000 51.000,66.000 51.000,66.000 51.000,66.000 Z M 41.000,66.000 C 39.000,66.000 37.000,66.000 35.000,66.000 35.000,55.700 35.000,45.400 35.000,35.100 37.000,35.100 39.000,35.100 41.000,35.100 41.000,45.400 41.000,55.700 41.000,66.000 41.000,66.000 41.000,66.000 41.000,66.000 Z M 60.000,20.000 C 52.000,20.000 44.000,20.000 36.000,20.000 29.800,26.200 26.200,29.800 20.000,36.000 20.000,48.000 20.000,60.000 20.000,72.000 21.600,73.600 22.400,74.400 24.000,76.000 40.000,76.000 56.000,76.000 72.000,76.000 73.600,74.400 74.400,73.600 76.000,72.000 76.000,60.000 76.000,48.000 76.000,36.000 69.800,29.800 66.200,26.200 60.000,20.000 60.000,20.000 60.000,20.000 60.000,20.000 Z " />
  <path stroke="none" fill="#ffffffff" d="M 58.000,50.000 C 58.000,51.100 57.100,52.000 56.000,52.000 56.000,54.667 56.000,57.333 56.000,60.000 56.667,60.000 57.333,60.000 58.000,60.000 58.000,62.000 58.000,64.000 58.000,66.000 55.333,66.000 52.667,66.000 50.000,66.000 50.000,61.333 50.000,56.667 50.000,52.000 48.667,52.000 47.333,52.000 46.000,52.000 46.000,56.667 46.000,61.333 46.000,66.000 43.333,66.000 40.667,66.000 38.000,66.000 38.000,64.000 38.000,62.000 38.000,60.000 38.667,60.000 39.333,60.000 40.000,60.000 40.000,57.333 40.000,54.667 40.000,52.000 38.900,52.000 38.000,51.100 38.000,50.000 38.000,44.667 38.000,39.333 38.000,34.000 38.000,32.900 38.900,32.000 40.000,32.000 45.333,32.000 50.667,32.000 56.000,32.000 57.100,32.000 58.000,32.900 58.000,34.000 58.000,39.333 58.000,44.667 58.000,50.000 58.000,50.000 58.000,50.000 58.000,50.000 Z M 72.000,20.000 C 56.000,20.000 40.000,20.000 24.000,20.000 22.400,21.600 21.600,22.400 20.000,24.000 20.000,40.000 20.000,56.000 20.000,72.000 21.600,73.600 22.400,74.400 24.000,76.000 40.000,76.000 56.000,76.000 72.000,76.000 73.600,74.400 74.400,73.600 76.000,72.000 76.000,56.000 76.000,40.000 76.000,24.000 74.400,22.400 73.600,21.600 72.000,20.000 72.000,20.000 72.000,20.000 72.000,20.000 Z " />
  <path stroke="none" fill="#ffffffff" d="M 51.000,44.000 C 51.000,46.000 51.000,48.000 51.000,50.000 49.000,50.000 47.000,50.000 45.000,50.000 45.000,48.000 45.000,46.000 45.000,44.000 43.333,44.000 41.667,44.000 40.000,44.000 42.667,40.000 45.333,36.000 48.000,32.000 50.667,36.000 53.333,40.000 56.000,44.000 54.333,44.000 52.667,44.000 51.000,44.000 51.000,44.000 51.000,44.000 51.000,44.000 Z M 51.000,62.000 C 49.000,62.000 47.000,62.000 45.000,62.000 45.000,60.000 45.000,58.000 45.000,56.000 47.000,56.000 49.000,56.000 51.000,56.000 51.000,58.000 51.000,60.000 51.000,62.000 51.000,62.000 51.000,62.000 51.000,62.000 Z M 48.000,20.000 C 32.500,20.000 20.000,32.500 20.000,48.000 20.000,63.500 32.500,76.000 48.000,76.000 63.500,76.000 76.000,63.500 76.000,48.000 76.000,32.500 63.500,20.000 48.000,20.000 48.000,20.000 48.000,20.000 48.000,20.000 Z " />
  <path stroke="none" fill="#ffffffff" d="M 44.000,64.000 C 44.000,58.667 44.000,53.333 44.000,48.000 41.333,48.000 38.667,48.000 36.000,48.000 41.333,42.667 46.667,37.333 52.000,32.000 52.000,37.333 52.000,42.667 52.000,48.000 54.667,48.000 57.333,48.000 60.000,48.000 54.667,53.333 49.333,58.667 44.000,64.000 44.000,64.000 44.000,64.000 44.000,64.000 Z M 48.000,20.000 C 32.500,20.000 20.000,32.500 20.000,48.000 20.000,63.500 32.500,76.000 48.000,76.000 63.500,76.000 76.000,63.500 76.000,48.000 76.000,32.500 63.500,20.000 48.000,20.000 48.000,20.000 48.000,20.000 48.000,20.000 Z " />
  <path stroke="none" fill="#ffffffff" d="M 58.600,45.000 C 57.600,41.300 54.700,38.500 51.000,37.400 51.000,35.367 51.000,33.333 51.000,31.300 58.000,32.500 63.500,38.000 64.700,45.000 62.667,45.000 60.633,45.000 58.600,45.000 58.600,45.000 58.600,45.000 58.600,45.000 Z M 51.000,64.700 C 51.000,62.667 51.000,60.633 51.000,58.600 54.700,57.600 57.500,54.700 58.600,51.000 60.633,51.000 62.667,51.000 64.700,51.000 63.500,58.000 58.000,63.500 51.000,64.700 51.000,64.700 51.000,64.700 51.000,64.700 Z M 48.000,51.000 C 46.300,51.000 45.000,49.700 45.000,48.000 45.000,46.300 46.300,45.000 48.000,45.000 49.700,45.000 51.000,46.300 51.000,48.000 51.000,49.700 49.700,51.000 48.000,51.000 48.000,51.000 48.000,51.000 48.000,51.000 Z M 45.000,64.700 C 38.000,63.500 32.500,58.000 31.300,51.000 33.333,51.000 35.367,51.000 37.400,51.000 38.400,54.700 41.300,57.500 45.000,58.600 45.000,60.633 45.000,62.667 45.000,64.700 45.000,64.700 45.000,64.700 45.000,64.700 Z M 45.000,31.300 C 45.000,33.333 45.000,35.367 45.000,37.400 41.300,38.400 38.500,41.300 37.400,45.000 35.367,45.000 33.333,45.000 31.300,45.000 32.500,38.000 38.000,32.500 45.000,31.300 45.000,31.300 45.000,31.300 45.000,31.300 Z M 48.000,20.000 C 32.500,20.000 20.000,32.500 20.000,48.000 20.000,63.500 32.500,76.000 48.000,76.000 63.500,76.000 76.000,63.500 76.000,48.000 76.000,32.500 63.500,20.000 48.000,20.000 48.000,20.000 48.000,20.000 48.000,20.000 Z " />
  <path stroke="none" fill="#ffffffff" d="M 50.600,57.100 C 51.733,60.067 52.867,63.033 54.000,66.000 52.533,64.200 51.067,62.400 49.600,60.600 49.733,63.733 49.867,66.867 50.000,70.000 48.667,70.000 47.333,70.000 46.000,70.000 46.133,66.867 46.267,63.733 46.400,60.600 44.933,62.400 43.467,64.200 42.000,66.000 43.133,63.033 44.267,60.067 45.400,57.100 42.267,56.600 39.133,56.100 36.000,55.600 39.133,55.100 42.267,54.600 45.400,54.100 44.267,51.133 43.133,48.167 42.000,45.200 43.600,47.167 45.200,49.133 46.800,51.100 47.200,41.400 47.600,31.700 48.000,22.000 48.400,31.700 48.800,41.400 49.200,51.100 50.800,49.133 52.400,47.167 54.000,45.200 52.867,48.167 51.733,51.133 50.600,54.100 53.733,54.600 56.867,55.100 60.000,55.600 56.867,56.100 53.733,56.600 50.600,57.100 50.600,57.100 50.600,57.100 50.600,57.100 Z M 72.000,48.000 C 68.733,48.000 65.467,48.000 62.200,48.000 57.467,37.333 52.733,26.667 48.000,16.000 43.267,26.667 38.533,37.333 33.800,48.000 30.533,48.000 27.267,48.000 24.000,48.000 26.033,50.733 28.067,53.467 30.100,56.200 28.067,60.800 26.033,65.400 24.000,70.000 29.500,70.000 35.000,70.000 40.500,70.000 43.000,73.333 45.500,76.667 48.000,80.000 50.500,76.667 53.000,73.333 55.500,70.000 61.000,70.000 66.500,70.000 72.000,70.000 69.967,65.400 67.933,60.800 65.900,56.200 67.933,53.467 69.967,50.733 72.000,48.000 72.000,48.000 72.000,48.000 72.000,48.000 Z " />
</svg>