<?xml version="1.0" encoding="UTF-8" standalone="no"?>
<!DOCTYPE svg PUBLIC "-//W3C//DTD SVG 20010904//EN" "http://www.w3.org/TR/2001/REC-SVG-20010904/DTD/svg10.dtd"[]>
<svg version="1.1" id="Frosty Editor v1.0.6.3" xmlns="http://www.w3.org/2000/svg" d1p1:xlink="http://www.w3.org/1999/xlink" viewBox="0 0 96 96" xmlns:d1p1="xmlns">
  <path stroke="none" fill="#ffffffff" d="M 57.280,47.110 C 58.843,45.550 60.407,43.990 61.970,42.430 63.557,42.430 65.143,42.430 66.730,42.430 66.730,40.313 66.730,38.197 66.730,36.080 64.613,36.080 62.497,36.080 60.380,36.080 60.380,37.590 60.380,39.100 60.380,40.610 58.413,42.577 56.447,44.543 54.480,46.510 54.480,37.640 54.480,28.770 54.480,19.900 49.897,19.900 45.313,19.900 40.730,19.900 40.693,26.780 40.657,33.660 40.620,40.540 34.003,40.540 27.387,40.540 20.770,40.540 20.770,45.120 20.770,49.700 20.770,54.280 29.500,54.280 38.230,54.280 46.960,54.280 45.310,55.873 43.660,57.467 42.010,59.060 40.523,59.060 39.037,59.060 37.550,59.060 37.550,61.113 37.550,63.167 37.550,65.220 39.693,65.220 41.837,65.220 43.980,65.220 43.980,63.693 43.980,62.167 43.980,60.640 46.097,58.523 48.213,56.407 50.330,54.290 52.270,54.290 54.210,54.290 56.150,54.290 56.150,61.900 56.150,69.510 56.150,77.120 58.567,76.063 60.983,75.007 63.400,73.950 63.400,67.397 63.400,60.843 63.400,54.290 67.407,54.290 71.413,54.290 75.420,54.290 75.420,51.897 75.420,49.503 75.420,47.110 69.373,47.110 63.327,47.110 57.280,47.110 57.280,47.110 57.280,47.110 57.280,47.110 Z " />
</svg>