<?xml version="1.0" encoding="UTF-8" standalone="no"?>
<!DOCTYPE svg PUBLIC "-//W3C//DTD SVG 20010904//EN" "http://www.w3.org/TR/2001/REC-SVG-20010904/DTD/svg10.dtd"[]>
<svg version="1.1" id="Frosty Editor v1.0.6.3" xmlns="http://www.w3.org/2000/svg" d1p1:xlink="http://www.w3.org/1999/xlink" viewBox="0 0 96 96" xmlns:d1p1="xmlns">
  <path stroke="none" fill="#ffffffff" d="M 71.500,24.200 C 70.800,25.400 66.800,31.400 66.100,32.500 61.967,31.033 57.833,29.567 53.700,28.100 50.600,27.000 47.300,28.300 46.200,31.000 42.933,39.300 39.667,47.600 36.400,55.900 35.200,59.200 36.800,62.800 40.000,64.000 40.100,64.000 40.200,64.100 40.400,64.100 45.533,65.833 50.667,67.567 55.800,69.300 55.900,70.700 55.000,72.000 53.700,72.500 52.100,73.200 35.200,76.600 29.000,66.200 24.900,59.200 27.700,55.500 32.100,44.800 33.200,42.200 41.900,23.400 41.900,23.400 51.733,23.467 61.567,23.533 71.400,23.600 71.400,23.600 71.600,23.900 71.500,24.200 71.500,24.200 71.500,24.200 71.500,24.200 71.500,24.200 71.500,24.200 71.500,24.200 71.500,24.200 71.500,24.200 71.500,24.200 Z M 64.600,35.900 C 64.500,36.000 64.400,36.100 64.200,36.100 61.400,35.600 58.600,36.700 56.900,39.000 55.900,40.500 56.000,42.600 57.300,44.000 57.200,44.233 57.100,44.467 57.000,44.700 55.000,45.000 53.600,45.700 52.800,47.200 51.900,49.100 52.900,51.500 53.400,52.300 53.300,52.600 53.300,52.700 53.300,52.700 53.200,52.900 53.200,53.000 53.100,53.200 51.500,53.800 50.100,55.000 49.300,56.500 48.800,58.100 48.600,61.400 53.000,65.100 53.700,65.700 54.300,66.200 54.900,66.800 50.600,65.367 46.300,63.933 42.000,62.500 39.500,61.700 38.100,59.100 38.900,56.600 38.900,56.500 39.000,56.400 39.000,56.300 42.000,48.633 45.000,40.967 48.000,33.300 49.000,31.200 51.400,30.300 53.600,31.200 57.367,32.533 61.133,33.867 64.900,35.200 64.800,35.433 64.700,35.667 64.600,35.900 64.600,35.900 64.600,35.900 64.600,35.900 Z " />
</svg>