<?xml version="1.0" encoding="UTF-8" standalone="no"?>
<!DOCTYPE svg PUBLIC "-//W3C//DTD SVG 20010904//EN" "http://www.w3.org/TR/2001/REC-SVG-20010904/DTD/svg10.dtd"[]>
<svg version="1.1" id="Frosty Editor v1.0.6.3" xmlns="http://www.w3.org/2000/svg" d1p1:xlink="http://www.w3.org/1999/xlink" viewBox="0 0 96 96" xmlns:d1p1="xmlns">
  <path stroke="none" fill="#ffffffff" d="M 82.900,48.200 C 82.367,48.200 81.833,48.200 81.300,48.200 80.800,48.467 80.300,48.733 79.800,49.000 77.333,49.000 74.867,49.000 72.400,49.000 71.733,48.833 71.067,48.667 70.400,48.500 70.400,46.700 70.400,44.900 70.400,43.100 71.067,42.967 71.733,42.833 72.400,42.700 74.867,42.700 77.333,42.700 79.800,42.700 80.300,42.933 80.800,43.167 81.300,43.400 81.833,43.400 82.367,43.400 82.900,43.400 82.900,45.000 82.900,46.600 82.900,48.200 82.900,48.200 82.900,48.200 82.900,48.200 Z M 67.300,42.900 C 68.033,42.900 68.767,42.900 69.500,42.900 69.500,44.800 69.500,46.700 69.500,48.600 68.767,48.600 68.033,48.600 67.300,48.600 67.300,46.700 67.300,44.800 67.300,42.900 67.300,42.900 67.300,42.900 67.300,42.900 Z M 61.300,48.300 C 61.300,46.500 61.300,44.700 61.300,42.900 62.033,42.900 62.767,42.900 63.500,42.900 63.500,44.800 63.500,46.700 63.500,48.600 62.767,48.600 62.033,48.600 61.300,48.600 61.300,48.500 61.300,48.400 61.300,48.300 61.300,48.300 61.300,48.300 61.300,48.300 Z M 56.300,49.200 C 55.133,49.200 53.967,49.200 52.800,49.200 52.600,49.033 52.400,48.867 52.200,48.700 52.200,46.800 52.200,44.900 52.200,43.000 52.400,42.833 52.600,42.667 52.800,42.500 53.967,42.500 55.133,42.500 56.300,42.500 56.833,42.800 57.367,43.100 57.900,43.400 58.700,43.400 59.500,43.400 60.300,43.400 60.300,45.067 60.300,46.733 60.300,48.400 59.500,48.400 58.700,48.400 57.900,48.400 57.367,48.667 56.833,48.933 56.300,49.200 56.300,49.200 56.300,49.200 56.300,49.200 Z M 64.500,43.300 C 65.100,43.300 65.700,43.300 66.300,43.300 66.300,44.967 66.300,46.633 66.300,48.300 65.700,48.300 65.100,48.300 64.500,48.300 64.500,46.633 64.500,44.967 64.500,43.300 64.500,43.300 64.500,43.300 64.500,43.300 Z M 48.500,54.300 C 48.500,54.300 47.900,54.600 47.900,54.600 46.800,55.200 45.000,55.600 45.000,55.600 44.900,55.600 44.900,55.600 44.800,55.600 44.700,55.600 44.600,55.600 44.500,55.600 44.400,55.600 44.400,55.600 44.300,55.600 44.200,55.600 44.000,55.600 43.900,55.600 42.400,55.400 41.500,54.500 40.900,53.700 40.700,53.500 40.600,53.200 40.500,53.100 40.900,52.867 41.300,52.633 41.700,52.400 41.967,52.467 42.233,52.533 42.500,52.600 42.633,53.067 42.767,53.533 42.900,54.000 43.133,54.100 43.367,54.200 43.600,54.300 43.800,54.667 44.000,55.033 44.200,55.400 44.433,55.200 44.667,55.000 44.900,54.800 44.900,54.767 44.900,54.733 44.900,54.700 44.700,53.800 44.500,51.200 45.400,50.700 45.800,50.600 46.200,50.500 46.600,50.400 47.267,50.467 47.933,50.533 48.600,50.600 48.633,50.700 48.667,50.800 48.700,50.900 49.500,53.100 48.900,54.100 48.500,54.300 48.500,54.300 48.500,54.300 48.500,54.300 Z M 91.600,47.100 C 91.100,46.800 90.600,46.600 90.100,46.600 89.900,46.600 89.600,46.600 89.400,46.700 88.967,46.800 88.533,46.900 88.100,47.000 88.100,44.867 88.100,42.733 88.100,40.600 87.800,40.600 87.500,40.600 87.200,40.600 87.200,40.367 87.200,40.133 87.200,39.900 87.200,38.900 86.400,38.200 85.500,38.200 85.500,38.200 85.500,38.200 85.500,38.200 84.500,38.200 83.800,39.000 83.800,39.900 83.800,40.133 83.800,40.367 83.800,40.600 83.333,40.600 82.867,40.600 82.400,40.600 82.400,40.067 82.400,39.533 82.400,39.000 73.300,39.000 64.200,39.000 55.100,39.000 55.100,39.600 55.100,40.200 55.100,40.800 54.167,40.800 53.233,40.800 52.300,40.800 52.300,39.833 52.300,38.867 52.300,37.900 52.067,37.900 51.833,37.900 51.600,37.900 51.500,37.433 51.400,36.967 51.300,36.500 50.833,36.500 50.367,36.500 49.900,36.500 49.500,36.000 49.100,35.500 48.700,35.000 48.500,34.800 48.200,34.600 47.900,34.600 47.900,34.600 47.900,34.600 47.800,34.600 47.500,34.600 47.200,34.800 47.000,35.100 46.667,35.567 46.333,36.033 46.000,36.500 45.067,36.500 44.133,36.500 43.200,36.500 43.033,36.967 42.867,37.433 42.700,37.900 40.067,37.900 37.433,37.900 34.800,37.900 34.800,37.500 34.800,37.100 34.800,36.700 36.933,36.700 39.067,36.700 41.200,36.700 41.200,36.300 41.200,35.900 41.200,35.500 41.633,35.500 42.067,35.500 42.500,35.500 42.900,35.300 43.300,35.100 43.700,34.900 43.700,34.800 43.700,34.700 43.700,34.600 43.900,34.600 44.100,34.600 44.300,34.600 44.300,34.300 44.300,34.000 44.300,33.700 44.100,33.700 43.900,33.700 43.700,33.700 43.700,33.600 43.700,33.500 43.700,33.400 43.300,33.200 42.900,33.000 42.500,32.800 42.067,32.800 41.633,32.800 41.200,32.800 41.200,31.867 41.200,30.933 41.200,30.000 38.800,30.000 36.400,30.000 34.000,30.000 34.000,30.133 34.000,30.267 34.000,30.400 33.600,30.300 33.300,30.300 32.900,30.300 32.300,30.300 31.800,30.400 31.200,30.500 31.100,30.533 31.000,30.567 30.900,30.600 30.900,30.667 30.900,30.733 30.900,30.800 29.300,30.367 27.700,29.933 26.100,29.500 24.333,29.500 22.567,29.500 20.800,29.500 20.800,32.000 20.800,34.500 20.800,37.000 22.533,37.000 24.267,37.000 26.000,37.000 27.633,36.667 29.267,36.333 30.900,36.000 30.900,36.633 30.900,37.267 30.900,37.900 25.300,37.900 19.700,37.900 14.100,37.900 14.100,38.867 14.100,39.833 14.100,40.800 13.867,40.800 13.633,40.800 13.400,40.800 13.400,40.533 13.400,40.267 13.400,40.000 13.400,39.000 12.600,38.300 11.700,38.300 10.800,38.300 9.900,39.000 9.900,39.900 9.900,40.167 9.900,40.433 9.900,40.700 9.767,40.700 9.633,40.700 9.500,40.700 8.000,40.533 6.500,40.367 5.000,40.200 5.000,40.200 5.000,40.200 5.000,40.200 4.400,40.200 3.900,40.700 3.900,41.300 3.900,41.433 3.900,41.567 3.900,41.700 3.733,41.700 3.567,41.700 3.400,41.700 3.400,42.633 3.400,43.567 3.400,44.500 3.533,44.500 3.667,44.500 3.800,44.500 3.800,45.500 3.800,46.500 3.800,47.500 3.800,48.100 4.300,48.600 4.900,48.600 4.900,48.600 4.900,48.600 4.900,48.600 6.400,48.400 7.900,48.200 9.400,48.000 9.667,48.000 9.933,48.000 10.200,48.000 10.200,48.433 10.200,48.867 10.200,49.300 12.200,49.300 14.200,49.300 16.200,49.300 16.200,48.867 16.200,48.433 16.200,48.000 19.100,48.000 22.000,48.000 24.900,48.000 24.900,48.067 24.900,48.133 24.900,48.200 26.433,48.367 27.967,48.533 29.500,48.700 29.933,49.133 30.367,49.567 30.800,50.000 30.800,50.000 30.800,50.000 30.800,50.000 30.900,50.100 31.400,50.600 30.400,51.800 29.500,53.100 25.300,59.400 25.000,60.400 24.900,60.600 24.100,62.800 25.700,64.000 26.967,64.767 28.233,65.533 29.500,66.300 29.700,66.400 29.900,66.500 30.200,66.500 30.200,66.500 30.200,66.500 30.200,66.500 30.400,66.500 30.500,66.500 30.700,66.400 31.200,66.200 31.500,65.600 31.700,64.700 31.700,64.667 31.700,64.633 31.700,64.600 31.667,64.133 31.633,63.667 31.600,63.200 33.400,60.533 35.200,57.867 37.000,55.200 37.933,54.633 38.867,54.067 39.800,53.500 39.900,53.700 40.000,53.900 40.200,54.200 40.800,55.100 41.900,56.200 43.700,56.400 43.900,56.400 44.000,56.400 44.200,56.400 44.500,56.400 44.900,56.300 44.900,56.300 45.700,56.200 47.800,55.400 47.800,55.300 48.100,55.200 49.000,54.700 49.200,54.300 49.600,53.700 49.900,52.600 49.300,50.500 50.200,50.667 51.100,50.833 52.000,51.000 58.433,51.000 64.867,51.000 71.300,51.000 71.300,51.100 71.300,51.100 71.300,51.200 71.800,52.300 72.800,53.000 74.000,53.000 74.000,53.000 74.100,53.000 74.100,53.000 74.133,53.000 74.167,53.000 74.200,53.000 79.400,52.667 84.600,52.333 89.800,52.000 90.800,51.900 92.700,51.200 92.600,48.900 92.500,48.200 92.200,47.600 91.600,47.100 91.600,47.100 91.600,47.100 91.600,47.100 Z " />
</svg>