<?xml version="1.0" encoding="UTF-8" standalone="no"?>
<!DOCTYPE svg PUBLIC "-//W3C//DTD SVG 20010904//EN" "http://www.w3.org/TR/2001/REC-SVG-20010904/DTD/svg10.dtd"[]>
<svg version="1.1" id="Frosty Editor v1.0.6.3" xmlns="http://www.w3.org/2000/svg" d1p1:xlink="http://www.w3.org/1999/xlink" viewBox="0 0 25 25" xmlns:d1p1="xmlns">
  <path stroke="none" fill="#ffffffff" d="M 9.562,2.221 C 9.482,2.220 9.401,2.235 9.322,2.267 9.007,2.395 8.856,2.751 8.984,3.066 9.019,3.151 9.019,3.151 9.019,3.151 9.018,3.151 9.018,3.151 9.018,3.151 10.669,7.216 10.669,7.216 10.669,7.216 10.797,7.531 11.154,7.681 11.469,7.553 11.626,7.489 11.743,7.368 11.804,7.224 11.865,7.079 11.870,6.911 11.806,6.754 11.772,6.669 11.772,6.669 11.772,6.669 11.772,6.669 11.773,6.669 11.773,6.669 10.122,2.604 10.122,2.604 10.122,2.604 10.026,2.368 9.801,2.224 9.562,2.221 Z M 15.738,2.270 C 15.499,2.270 15.273,2.411 15.173,2.646 15.138,2.729 15.138,2.729 15.138,2.729 15.138,2.729 15.138,2.729 15.137,2.729 13.431,6.771 13.431,6.771 13.431,6.771 13.298,7.084 13.444,7.443 13.757,7.575 13.914,7.641 14.082,7.638 14.227,7.579 14.373,7.520 14.495,7.405 14.562,7.249 14.597,7.165 14.597,7.165 14.597,7.165 14.597,7.165 14.597,7.165 14.598,7.165 16.304,3.123 16.304,3.123 16.304,3.123 16.437,2.810 16.291,2.451 15.978,2.319 15.899,2.286 15.818,2.270 15.738,2.270 Z M 5.147,6.567 C 4.907,6.567 4.681,6.707 4.582,6.942 4.449,7.255 4.595,7.614 4.908,7.747 4.992,7.782 4.992,7.782 4.992,7.782 4.992,7.782 4.992,7.782 4.992,7.782 9.034,9.489 9.034,9.489 9.034,9.489 9.347,9.621 9.706,9.476 9.838,9.162 9.904,9.006 9.901,8.838 9.842,8.692 9.783,8.547 9.668,8.424 9.511,8.358 9.427,8.323 9.427,8.323 9.427,8.323 9.427,8.323 9.427,8.322 9.428,8.322 5.386,6.616 5.386,6.616 5.386,6.616 5.307,6.582 5.226,6.567 5.147,6.567 Z M 20.093,6.678 C 20.013,6.677 19.932,6.692 19.853,6.724 19.769,6.758 19.769,6.758 19.769,6.758 19.768,6.758 19.768,6.758 19.768,6.757 15.704,8.409 15.704,8.409 15.704,8.409 15.389,8.536 15.238,8.893 15.366,9.208 15.430,9.366 15.551,9.482 15.696,9.543 15.840,9.604 16.008,9.610 16.166,9.546 16.250,9.512 16.250,9.512 16.250,9.512 16.250,9.512 16.250,9.512 16.250,9.512 20.315,7.861 20.315,7.861 20.315,7.861 20.630,7.733 20.781,7.376 20.653,7.061 20.557,6.825 20.332,6.681 20.093,6.678 Z M 12.589,9.076 C 12.103,9.076 11.643,9.362 11.441,9.840 11.172,10.476 11.468,11.206 12.105,11.474 12.742,11.743 13.471,11.447 13.740,10.810 14.009,10.174 13.713,9.444 13.076,9.175 12.917,9.108 12.752,9.076 12.589,9.076 Z M 9.261,11.071 C 9.181,11.070 9.100,11.085 9.021,11.117 8.937,11.151 8.937,11.151 8.937,11.151 8.937,11.151 8.937,11.151 8.937,11.151 4.872,12.802 4.872,12.802 4.872,12.802 4.557,12.930 4.406,13.286 4.534,13.601 4.662,13.916 5.019,14.067 5.334,13.939 5.418,13.905 5.418,13.905 5.418,13.905 5.418,13.905 5.418,13.905 5.418,13.905 9.483,12.254 9.483,12.254 9.483,12.254 9.798,12.126 9.949,11.770 9.821,11.455 9.757,11.297 9.636,11.181 9.491,11.120 9.419,11.089 9.341,11.072 9.261,11.071 Z M 15.915,11.124 C 15.676,11.123 15.450,11.264 15.350,11.499 15.284,11.656 15.288,11.824 15.347,11.969 15.406,12.115 15.520,12.237 15.677,12.303 15.761,12.339 15.761,12.339 15.761,12.339 15.761,12.339 15.761,12.339 15.761,12.339 19.803,14.046 19.803,14.046 19.803,14.046 20.116,14.178 20.474,14.033 20.607,13.719 20.739,13.406 20.593,13.047 20.280,12.915 20.196,12.880 20.196,12.880 20.196,12.880 20.196,12.880 20.196,12.879 20.196,12.879 16.155,11.172 16.155,11.172 16.155,11.172 16.076,11.139 15.995,11.124 15.915,11.124 Z M 11.146,12.965 C 11.098,12.966 11.049,12.974 11.000,12.987 10.717,13.062 10.621,13.190 10.497,13.376 9.236,15.263 9.924,21.601 12.240,24.427 10.634,21.171 10.390,15.525 11.673,13.956 12.017,13.441 11.615,12.948 11.146,12.965 Z M 13.959,13.049 C 13.880,13.048 13.798,13.063 13.720,13.095 13.562,13.159 13.446,13.280 13.385,13.425 13.324,13.569 13.318,13.737 13.382,13.894 13.416,13.979 13.416,13.979 13.416,13.979 13.416,13.979 13.416,13.979 13.416,13.979 15.067,18.044 15.067,18.044 15.067,18.044 15.195,18.359 15.551,18.509 15.866,18.381 16.181,18.254 16.332,17.897 16.204,17.582 16.170,17.497 16.170,17.497 16.170,17.497 16.170,17.497 16.170,17.497 16.170,17.497 14.519,13.432 14.519,13.432 14.519,13.432 14.423,13.196 14.199,13.052 13.959,13.049 Z " />
</svg>