<?xml version="1.0" encoding="UTF-8" standalone="no"?>
<!DOCTYPE svg PUBLIC "-//W3C//DTD SVG 20010904//EN" "http://www.w3.org/TR/2001/REC-SVG-20010904/DTD/svg10.dtd"[]>
<svg version="1.1" id="Frosty Editor v1.0.6.3" xmlns="http://www.w3.org/2000/svg" d1p1:xlink="http://www.w3.org/1999/xlink" viewBox="0 0 25 25" xmlns:d1p1="xmlns">
  <path stroke="none" fill="#ffffffff" d="M 4.418,13.492 C 4.416,13.494 4.413,13.497 4.411,13.499 4.340,13.577 4.315,13.657 4.315,13.760 4.315,14.865 4.315,14.865 4.315,14.865 4.315,15.086 4.481,15.251 4.702,15.251 5.806,15.251 5.806,15.251 5.806,15.251 6.027,15.251 6.192,15.086 6.192,14.865 6.192,13.760 6.192,13.760 6.192,13.760 6.192,13.539 6.027,13.374 5.806,13.374 4.702,13.374 4.702,13.374 4.702,13.374 4.591,13.374 4.481,13.429 4.426,13.484 4.423,13.487 4.421,13.489 4.418,13.492 Z M 7.372,10.538 C 7.370,10.541 7.367,10.543 7.365,10.546 7.293,10.623 7.269,10.703 7.269,10.807 7.269,11.911 7.269,11.911 7.269,11.911 7.269,12.132 7.434,12.298 7.655,12.298 8.760,12.298 8.760,12.298 8.760,12.298 8.804,12.298 8.846,12.290 8.885,12.278 8.269,11.705 8.623,11.300 9.145,10.778 9.131,10.572 8.971,10.420 8.760,10.420 7.655,10.420 7.655,10.420 7.655,10.420 7.545,10.420 7.435,10.475 7.380,10.531 7.377,10.533 7.375,10.536 7.372,10.538 Z M 10.326,7.584 C 10.323,7.587 10.321,7.589 10.318,7.592 10.247,7.670 10.222,7.749 10.222,7.853 10.222,8.957 10.222,8.957 10.222,8.957 10.222,9.121 10.314,9.255 10.451,9.312 11.232,8.494 11.236,8.401 12.094,9.020 12.094,9.021 12.094,9.021 12.095,9.021 12.098,9.000 12.100,8.979 12.100,8.957 12.100,7.853 12.100,7.853 12.100,7.853 12.100,7.632 11.934,7.466 11.713,7.466 10.609,7.466 10.609,7.466 10.609,7.466 10.499,7.466 10.389,7.522 10.333,7.577 10.331,7.579 10.328,7.582 10.326,7.584 Z M 13.279,4.631 C 13.277,4.633 13.274,4.636 13.272,4.638 13.201,4.716 13.176,4.796 13.176,4.899 13.176,6.003 13.176,6.003 13.176,6.003 13.176,6.224 13.342,6.390 13.563,6.390 14.667,6.390 14.667,6.390 14.667,6.390 14.888,6.390 15.054,6.224 15.054,6.003 15.054,4.899 15.054,4.899 15.054,4.899 15.054,4.678 14.888,4.513 14.667,4.513 13.563,4.513 13.563,4.513 13.563,4.513 13.452,4.513 13.342,4.568 13.287,4.623 13.285,4.626 13.282,4.628 13.279,4.631 Z M 10.514,10.020 C 10.604,10.110 10.604,10.110 10.604,10.110 10.525,10.188 10.525,10.188 10.525,10.188 10.539,10.496 10.539,10.496 10.539,10.496 10.347,10.688 10.347,10.688 10.347,10.688 10.260,10.601 10.260,10.601 10.260,10.601 10.170,10.691 10.170,10.691 10.170,10.691 9.992,10.869 9.992,10.869 9.992,10.869 10.079,10.956 10.079,10.956 10.079,10.956 9.870,11.165 9.870,11.165 9.870,11.165 9.689,11.150 9.689,11.150 9.689,11.150 9.294,11.545 9.294,11.545 9.294,11.545 9.222,11.472 9.222,11.472 9.222,11.472 9.101,11.593 9.101,11.593 9.101,11.593 9.105,11.719 9.105,11.719 9.105,11.719 9.325,11.938 9.325,11.938 9.325,11.938 9.363,12.000 9.414,12.064 9.479,12.129 9.543,12.194 9.608,12.245 9.669,12.283 9.889,12.503 9.889,12.503 9.889,12.503 10.015,12.506 10.015,12.506 10.015,12.506 10.135,12.386 10.135,12.386 10.135,12.386 10.063,12.314 10.063,12.314 10.063,12.314 10.457,11.919 10.457,11.919 10.457,11.919 10.443,11.738 10.443,11.738 10.443,11.738 10.652,11.529 10.652,11.529 10.652,11.529 10.739,11.616 10.739,11.616 10.739,11.616 10.817,11.538 10.817,11.538 10.817,11.538 11.084,11.805 11.084,11.805 11.084,11.805 10.676,12.213 10.676,12.213 10.676,12.213 10.719,12.256 10.719,12.256 10.719,12.256 10.542,12.433 10.542,12.433 10.542,12.433 10.499,12.390 10.499,12.390 10.499,12.390 9.905,12.984 9.905,12.984 9.905,12.984 9.948,13.027 9.948,13.027 9.948,13.027 8.340,14.634 8.340,14.634 8.340,14.634 8.298,14.591 8.298,14.591 8.298,14.591 8.110,14.779 8.110,14.779 8.110,14.779 7.948,14.664 7.948,14.664 7.948,14.664 7.684,14.928 7.684,14.928 7.684,14.928 7.258,15.354 7.258,15.354 7.258,15.354 7.409,15.505 7.409,15.505 7.409,15.505 7.580,15.334 7.671,15.377 7.699,15.399 7.700,15.761 7.700,15.761 7.700,15.761 7.750,15.811 7.750,15.811 7.750,15.811 7.295,16.265 7.295,16.265 7.295,16.265 7.219,16.189 7.219,16.189 7.219,16.189 7.195,16.165 7.164,16.158 7.150,16.172 7.091,16.231 7.091,16.231 7.091,16.231 7.048,16.187 7.048,16.187 7.048,16.187 6.943,16.292 6.943,16.292 6.943,16.292 6.986,16.336 6.986,16.336 6.986,16.336 6.929,16.393 6.929,16.393 6.929,16.393 6.915,16.407 6.922,16.438 6.946,16.461 7.023,16.538 7.023,16.538 7.023,16.538 6.977,16.584 6.977,16.584 6.977,16.584 6.900,16.507 6.900,16.507 6.900,16.507 6.876,16.484 6.846,16.476 6.832,16.491 6.773,16.549 6.773,16.549 6.773,16.549 6.729,16.506 6.729,16.506 6.729,16.506 6.624,16.611 6.624,16.611 6.624,16.611 6.668,16.654 6.668,16.654 6.668,16.654 6.611,16.711 6.611,16.711 6.611,16.711 6.597,16.726 6.604,16.756 6.627,16.780 6.704,16.857 6.704,16.857 6.704,16.857 6.658,16.903 6.658,16.903 6.658,16.903 6.581,16.826 6.581,16.826 6.581,16.826 6.558,16.802 6.527,16.795 6.513,16.809 6.454,16.868 6.454,16.868 6.454,16.868 6.411,16.824 6.411,16.824 6.411,16.824 6.306,16.929 6.306,16.929 6.306,16.929 6.349,16.973 6.349,16.973 6.349,16.973 6.292,17.030 6.292,17.030 6.292,17.030 6.278,17.044 6.285,17.075 6.309,17.098 6.386,17.175 6.386,17.175 6.386,17.175 6.032,17.529 6.032,17.529 6.032,17.529 5.990,17.486 5.990,17.486 5.990,17.486 5.959,17.455 5.910,17.463 5.898,17.475 5.693,17.680 5.693,17.680 5.693,17.680 5.667,17.706 5.661,17.746 5.695,17.780 5.738,17.823 5.738,17.823 5.738,17.823 7.262,19.221 7.390,19.388 8.044,20.296 8.109,20.387 8.324,20.459 8.371,20.413 8.502,19.828 8.502,19.828 8.502,19.828 8.503,19.798 8.460,19.758 8.414,19.712 8.453,19.672 8.460,19.665 8.434,19.593 9.461,18.566 9.461,18.566 9.461,18.566 10.818,18.035 10.818,18.035 10.818,18.035 11.171,17.832 11.171,17.832 11.171,17.832 11.510,17.812 11.510,17.812 11.510,17.812 11.914,17.404 11.914,17.404 11.914,17.404 11.656,16.934 11.656,16.934 11.656,16.934 10.805,15.330 10.805,15.330 10.805,15.330 10.931,15.286 10.931,15.286 10.931,15.286 11.931,14.286 11.931,14.286 11.931,14.286 12.159,14.057 12.159,14.057 12.159,14.057 12.223,14.121 12.223,14.121 12.223,14.121 13.167,13.688 13.167,13.688 13.167,13.688 13.509,13.615 13.509,13.615 13.509,13.615 14.751,12.373 14.751,12.373 14.751,12.373 15.857,11.267 15.857,11.267 15.857,11.267 15.736,11.146 15.736,11.146 15.736,11.146 15.929,10.952 15.929,10.952 15.929,10.952 15.407,10.431 15.407,10.431 15.407,10.431 15.214,10.624 15.214,10.624 15.214,10.624 15.089,10.499 15.089,10.499 15.089,10.499 14.641,10.947 14.641,10.947 14.641,10.947 14.713,11.019 14.713,11.019 14.713,11.019 14.578,10.991 14.578,10.991 14.578,10.991 14.637,10.932 14.637,10.932 14.637,10.932 14.405,10.700 14.405,10.700 14.405,10.700 15.747,8.952 15.747,8.952 15.747,8.952 15.509,8.714 15.509,8.714 15.509,8.714 15.577,8.647 15.577,8.647 15.577,8.647 15.480,8.549 15.480,8.549 15.480,8.549 15.526,8.503 15.526,8.503 15.526,8.503 15.708,8.321 15.708,8.321 15.708,8.321 15.944,8.556 15.944,8.556 15.944,8.556 16.092,8.408 16.092,8.408 16.092,8.408 15.856,8.173 15.856,8.173 15.856,8.173 15.982,8.047 15.982,8.047 15.982,8.047 16.218,8.282 16.218,8.282 16.218,8.282 16.366,8.134 16.366,8.134 16.366,8.134 16.130,7.899 16.130,7.899 16.130,7.899 16.256,7.773 16.256,7.773 16.256,7.773 16.492,8.008 16.492,8.008 16.492,8.008 16.640,7.860 16.640,7.860 16.640,7.860 16.404,7.625 16.404,7.625 16.404,7.625 16.530,7.499 16.530,7.499 16.530,7.499 16.766,7.734 16.766,7.734 16.766,7.734 16.914,7.586 16.914,7.586 16.914,7.586 16.678,7.351 16.678,7.351 16.678,7.351 17.434,6.595 17.434,6.595 17.434,6.595 17.582,6.447 17.582,6.447 17.582,6.447 17.699,6.563 17.699,6.563 17.699,6.563 17.699,6.563 17.777,6.571 18.506,5.842 19.252,5.096 19.227,5.035 19.227,5.035 19.201,4.930 19.201,4.930 19.201,4.930 18.722,4.450 18.722,4.450 18.722,4.450 18.617,4.424 18.617,4.424 18.617,4.424 18.617,4.424 18.539,4.385 17.794,5.130 17.066,5.858 17.088,5.952 17.088,5.952 17.198,6.063 17.198,6.063 17.198,6.063 17.051,6.211 17.051,6.211 17.051,6.211 16.295,6.967 16.295,6.967 16.295,6.967 16.066,6.738 16.066,6.738 16.066,6.738 15.918,6.886 15.918,6.886 15.918,6.886 16.147,7.115 16.147,7.115 16.147,7.115 16.021,7.241 16.021,7.241 16.021,7.241 15.792,7.012 15.792,7.012 15.792,7.012 15.644,7.160 15.644,7.160 15.644,7.160 15.873,7.389 15.873,7.389 15.873,7.389 15.747,7.515 15.747,7.515 15.747,7.515 15.518,7.286 15.518,7.286 15.518,7.286 15.370,7.434 15.370,7.434 15.370,7.434 15.599,7.663 15.599,7.663 15.599,7.663 15.473,7.789 15.473,7.789 15.473,7.789 15.244,7.560 15.244,7.560 15.244,7.560 15.096,7.708 15.096,7.708 15.096,7.708 15.325,7.937 15.325,7.937 15.325,7.937 15.142,8.119 15.142,8.119 15.142,8.119 15.096,8.166 15.096,8.166 15.096,8.166 15.002,8.071 15.002,8.071 15.002,8.071 14.934,8.139 14.934,8.139 14.934,8.139 14.910,8.116 14.910,8.116 14.910,8.116 13.399,9.627 13.399,9.627 13.399,9.627 13.330,9.559 13.330,9.559 13.330,9.559 12.819,10.070 12.819,10.070 12.819,10.070 12.861,10.113 12.861,10.113 12.861,10.113 12.676,10.298 12.676,10.298 12.676,10.298 12.217,10.757 12.217,10.757 12.217,10.757 12.174,10.715 12.174,10.715 12.174,10.715 11.965,10.924 11.965,10.924 11.965,10.924 11.847,10.807 11.847,10.807 11.847,10.807 12.005,10.648 12.005,10.648 12.005,10.648 11.929,10.573 11.929,10.573 11.929,10.573 12.103,10.399 12.103,10.399 12.103,10.399 12.193,10.416 12.193,10.416 12.193,10.416 12.419,10.190 12.419,10.190 12.419,10.190 12.253,10.024 12.253,10.024 12.253,10.024 12.227,9.929 12.132,9.790 11.975,9.633 11.818,9.476 11.679,9.381 11.584,9.355 11.418,9.189 11.418,9.189 11.418,9.189 11.191,9.415 11.191,9.415 11.191,9.415 11.209,9.505 11.209,9.505 11.209,9.505 11.035,9.678 11.035,9.678 11.035,9.678 10.946,9.589 10.946,9.589 10.946,9.589 Z M 4.425,16.465 C 4.349,16.542 4.320,16.619 4.316,16.717 4.315,16.725 4.315,16.734 4.315,16.742 4.315,17.846 4.315,17.846 4.315,17.846 4.315,17.953 4.341,18.034 4.418,18.114 4.421,18.117 4.423,18.119 4.425,18.122 4.428,18.125 4.431,18.127 4.433,18.129 4.514,18.206 4.595,18.233 4.702,18.233 5.382,18.233 5.382,18.233 5.382,18.233 5.364,18.216 5.346,18.199 5.328,18.182 5.145,18.018 5.079,17.738 5.170,17.509 5.531,17.051 5.602,16.862 6.037,16.427 5.968,16.374 5.896,16.356 5.806,16.356 4.702,16.355 4.702,16.355 4.702,16.355 4.695,16.355 4.688,16.356 4.681,16.356 4.660,16.357 4.640,16.360 4.620,16.365 4.613,16.366 4.606,16.368 4.600,16.370 4.593,16.372 4.587,16.374 4.580,16.376 4.574,16.378 4.568,16.380 4.561,16.382 4.555,16.385 4.549,16.387 4.543,16.390 4.537,16.392 4.531,16.395 4.525,16.398 4.519,16.401 4.514,16.403 4.508,16.406 4.508,16.406 4.508,16.406 4.508,16.406 4.502,16.409 4.497,16.412 4.492,16.416 4.492,16.416 4.492,16.416 4.492,16.416 4.486,16.419 4.481,16.422 4.476,16.425 4.471,16.428 4.467,16.432 4.462,16.435 4.457,16.438 4.453,16.442 4.449,16.445 4.449,16.445 4.449,16.445 4.449,16.445 4.444,16.448 4.440,16.452 4.436,16.455 4.433,16.459 4.429,16.462 4.425,16.465 Z M 7.379,13.512 C 7.303,13.588 7.274,13.665 7.270,13.763 7.270,13.763 7.270,13.763 7.270,13.763 7.269,13.772 7.269,13.780 7.269,13.788 7.269,14.572 7.269,14.572 7.269,14.572 7.876,13.966 8.202,14.001 8.800,13.403 8.787,13.402 8.773,13.402 8.760,13.402 7.655,13.402 7.655,13.402 7.655,13.402 7.648,13.402 7.642,13.402 7.635,13.402 7.600,13.404 7.566,13.412 7.534,13.422 7.528,13.424 7.521,13.426 7.515,13.429 7.509,13.431 7.503,13.434 7.497,13.436 7.491,13.439 7.485,13.441 7.479,13.444 7.473,13.447 7.467,13.450 7.462,13.453 7.462,13.453 7.462,13.453 7.462,13.453 7.456,13.456 7.451,13.459 7.445,13.462 7.440,13.465 7.435,13.468 7.430,13.471 7.430,13.471 7.430,13.471 7.430,13.471 7.425,13.475 7.420,13.478 7.416,13.481 7.402,13.491 7.390,13.501 7.379,13.512 Z M 13.287,7.604 C 13.248,7.643 13.222,7.682 13.204,7.723 13.204,7.724 13.203,7.726 13.203,7.727 13.201,7.730 13.200,7.734 13.199,7.737 13.198,7.740 13.197,7.743 13.196,7.746 13.195,7.748 13.195,7.749 13.194,7.751 13.181,7.791 13.176,7.833 13.176,7.881 13.176,8.942 13.176,8.942 13.176,8.942 13.938,8.620 14.143,7.880 14.538,7.494 13.563,7.494 13.563,7.494 13.563,7.494 13.452,7.494 13.342,7.549 13.287,7.604 Z M 16.233,4.659 C 16.231,4.661 16.228,4.664 16.226,4.666 16.155,4.744 16.130,4.824 16.130,4.927 16.130,6.031 16.130,6.031 16.130,6.031 16.295,6.196 16.295,6.196 16.295,6.196 16.531,6.058 16.524,5.831 16.635,5.639 16.766,5.431 16.929,5.246 17.098,5.068 17.269,4.889 17.443,4.713 17.621,4.541 17.621,4.541 17.621,4.541 17.621,4.541 16.516,4.541 16.516,4.541 16.516,4.541 16.406,4.541 16.296,4.596 16.241,4.651 16.238,4.654 16.236,4.656 16.233,4.659 Z M 10.920,11.261 C 11.112,11.069 11.112,11.069 11.112,11.069 11.420,11.083 11.420,11.083 11.420,11.083 11.498,11.004 11.498,11.004 11.498,11.004 11.574,11.080 11.574,11.080 11.574,11.080 11.750,10.903 11.750,10.903 11.750,10.903 11.824,10.976 11.824,10.976 11.824,10.976 11.179,11.621 11.179,11.621 11.179,11.621 10.956,11.399 10.956,11.399 10.956,11.399 11.007,11.348 11.007,11.348 11.007,11.348 Z M 10.525,12.244 C 10.525,12.245 10.525,12.246 10.525,12.247 10.532,12.256 10.538,12.238 10.527,12.242 10.526,12.243 10.525,12.243 10.525,12.244 Z M 16.245,7.883 C 16.242,7.883 16.241,7.887 16.243,7.889 16.249,7.902 16.257,7.879 16.245,7.883 Z M 16.522,7.611 C 16.519,7.613 16.517,7.618 16.522,7.619 16.531,7.623 16.531,7.605 16.522,7.611 Z M 6.858,17.813 C 6.941,17.730 6.941,17.730 6.941,17.730 7.040,17.829 7.040,17.829 7.040,17.829 7.063,17.853 7.094,17.860 7.108,17.846 7.329,17.625 7.329,17.625 7.329,17.625 7.343,17.610 7.336,17.580 7.312,17.556 7.214,17.458 7.214,17.458 7.214,17.458 7.260,17.412 7.260,17.412 7.260,17.412 7.358,17.510 7.358,17.510 7.358,17.510 7.382,17.534 7.412,17.541 7.427,17.527 7.647,17.306 7.647,17.306 7.647,17.306 7.662,17.292 7.654,17.261 7.631,17.238 7.532,17.139 7.532,17.139 7.532,17.139 7.578,17.093 7.578,17.093 7.578,17.093 7.677,17.192 7.677,17.192 7.677,17.192 7.700,17.215 7.731,17.223 7.745,17.208 7.966,16.988 7.966,16.988 7.966,16.988 7.980,16.973 7.973,16.943 7.949,16.919 7.851,16.821 7.851,16.821 7.851,16.821 8.305,16.366 8.305,16.366 8.305,16.366 8.350,16.411 8.350,16.411 8.350,16.411 8.776,16.204 8.776,16.204 8.776,16.204 8.868,16.112 8.868,16.112 8.868,16.112 8.834,16.078 8.834,16.078 8.834,16.078 9.169,15.864 9.534,15.914 10.022,16.114 10.741,17.461 10.741,17.461 10.741,17.461 10.612,17.629 10.612,17.629 10.612,17.629 9.224,18.272 9.224,18.272 9.224,18.272 8.169,19.327 8.169,19.327 8.169,19.327 6.965,18.123 6.965,18.123 6.965,18.123 Z M 10.871,14.041 C 11.279,13.633 11.279,13.633 11.279,13.633 11.839,14.194 11.839,14.194 11.839,14.194 10.839,15.194 10.839,15.194 10.839,15.194 10.690,15.253 10.690,15.253 10.690,15.253 10.544,15.156 10.544,15.156 10.544,15.156 10.684,14.679 10.684,14.679 10.684,14.679 10.871,14.667 11.018,14.670 11.211,14.598 11.208,14.535 11.208,14.535 11.208,14.535 11.019,14.555 10.903,14.532 10.772,14.379 Z M 17.621,7.522 C 17.185,8.172 16.630,8.699 16.207,9.250 16.210,9.254 16.212,9.258 16.216,9.262 16.231,9.281 16.249,9.299 16.268,9.315 16.331,9.368 16.396,9.392 16.474,9.398 16.488,9.399 16.502,9.400 16.516,9.400 17.621,9.400 17.621,9.400 17.621,9.400 17.731,9.400 17.828,9.358 17.897,9.289 17.966,9.220 18.007,9.124 18.007,9.013 18.007,9.013 18.007,9.013 18.007,9.013 18.007,7.909 18.007,7.909 18.007,7.909 18.007,7.903 18.007,7.897 18.007,7.891 18.007,7.890 18.007,7.889 18.007,7.888 18.007,7.888 18.007,7.888 18.007,7.888 17.997,7.678 17.835,7.523 17.621,7.522 Z M 8.671,16.839 C 8.558,16.939 8.554,17.069 8.425,17.274 8.360,17.368 8.277,17.446 8.197,17.527 8.084,17.631 7.979,17.745 7.870,17.854 7.647,18.042 7.670,18.058 7.873,18.261 8.464,18.261 8.464,18.261 8.464,18.261 8.661,18.025 8.888,17.827 9.146,17.707 9.146,16.770 9.146,16.770 9.146,16.770 9.137,16.620 9.149,16.625 9.041,16.681 8.845,16.730 8.738,16.779 8.671,16.839 Z M 19.187,7.668 C 19.184,7.671 19.182,7.673 19.180,7.676 19.108,7.754 19.084,7.833 19.084,7.937 19.084,9.041 19.084,9.041 19.084,9.041 19.084,9.262 19.249,9.428 19.470,9.428 20.574,9.428 20.574,9.428 20.574,9.428 20.795,9.428 20.961,9.262 20.961,9.041 20.961,7.937 20.961,7.937 20.961,7.937 20.961,7.716 20.795,7.550 20.574,7.550 19.470,7.550 19.470,7.550 19.470,7.550 19.360,7.550 19.250,7.606 19.195,7.661 19.192,7.663 19.189,7.666 19.187,7.668 Z M 16.310,10.562 C 16.911,11.251 16.130,11.455 16.130,11.995 16.130,12.008 16.130,12.021 16.132,12.034 16.132,12.034 16.132,12.035 16.132,12.035 16.132,12.035 16.132,12.036 16.132,12.036 16.138,12.115 16.161,12.180 16.215,12.244 16.231,12.263 16.249,12.281 16.268,12.296 16.331,12.350 16.396,12.374 16.474,12.379 16.488,12.381 16.502,12.381 16.516,12.381 17.621,12.382 17.621,12.382 17.621,12.382 17.731,12.381 17.828,12.340 17.897,12.271 17.966,12.202 18.007,12.105 18.007,11.995 18.007,10.891 18.007,10.891 18.007,10.891 18.007,10.884 18.007,10.877 18.007,10.870 17.997,10.660 17.835,10.504 17.621,10.504 16.516,10.504 16.516,10.504 16.516,10.504 16.442,10.504 16.368,10.529 16.310,10.562 Z M 7.269,20.161 C 7.269,20.856 7.269,20.856 7.269,20.856 7.269,20.967 7.296,21.049 7.379,21.132 7.462,21.214 7.545,21.243 7.655,21.243 8.760,21.243 8.760,21.243 8.760,21.243 8.980,21.243 9.146,21.077 9.146,20.856 9.146,19.752 9.146,19.752 9.146,19.752 9.146,19.719 9.143,19.688 9.138,19.659 9.105,19.691 9.073,19.724 9.041,19.756 9.046,19.802 9.043,19.849 9.036,19.896 9.007,20.078 8.963,20.259 8.922,20.439 8.906,20.526 8.882,20.613 8.836,20.689 8.752,20.835 8.598,20.934 8.433,20.960 8.169,20.995 7.894,20.901 7.701,20.719 7.638,20.655 7.584,20.584 7.530,20.512 7.443,20.395 7.357,20.278 7.269,20.161 Z M 13.176,14.283 C 13.176,14.949 13.176,14.949 13.176,14.949 13.176,14.949 13.176,14.949 13.176,14.949 13.176,15.047 13.198,15.123 13.262,15.198 13.278,15.217 13.295,15.234 13.314,15.250 13.388,15.313 13.465,15.335 13.563,15.335 14.667,15.335 14.667,15.335 14.667,15.335 14.791,15.335 14.898,15.283 14.968,15.197 14.972,15.193 14.975,15.188 14.979,15.183 14.979,15.183 14.979,15.183 14.979,15.183 15.014,15.135 15.038,15.078 15.048,15.015 15.049,15.012 15.049,15.008 15.050,15.005 15.051,15.000 15.051,14.995 15.052,14.989 15.052,14.989 15.052,14.989 15.052,14.989 15.052,14.987 15.052,14.984 15.052,14.982 15.053,14.978 15.053,14.973 15.053,14.969 15.053,14.962 15.054,14.956 15.054,14.949 15.054,14.949 15.054,14.949 15.054,14.949 15.054,13.844 15.054,13.844 15.054,13.844 15.054,13.844 15.054,13.844 15.054,13.844 15.054,13.734 15.026,13.651 14.943,13.568 14.863,13.488 14.784,13.460 14.680,13.458 14.676,13.458 14.671,13.458 14.667,13.458 14.437,13.458 14.437,13.458 14.437,13.458 14.112,14.015 13.641,14.069 13.176,14.283 Z M 10.333,19.503 C 10.256,19.580 10.227,19.656 10.223,19.755 10.223,19.763 10.222,19.771 10.222,19.780 10.222,20.884 10.222,20.884 10.222,20.884 10.222,20.991 10.249,21.072 10.325,21.152 10.328,21.154 10.330,21.157 10.333,21.160 10.335,21.161 10.336,21.163 10.338,21.165 10.419,21.243 10.501,21.271 10.609,21.271 11.713,21.271 11.713,21.271 11.713,21.271 11.838,21.271 11.944,21.218 12.014,21.133 12.018,21.128 12.022,21.123 12.025,21.119 12.025,21.119 12.025,21.119 12.025,21.119 12.060,21.071 12.084,21.015 12.094,20.952 12.097,20.935 12.099,20.918 12.100,20.900 12.100,20.895 12.100,20.890 12.100,20.884 12.100,20.884 12.100,20.884 12.100,20.884 12.100,19.780 12.100,19.780 12.100,19.780 12.100,19.669 12.072,19.586 11.989,19.503 11.906,19.420 11.824,19.393 11.713,19.393 10.609,19.393 10.609,19.393 10.609,19.393 10.595,19.393 10.581,19.394 10.568,19.396 10.540,19.399 10.513,19.405 10.488,19.413 10.481,19.416 10.475,19.418 10.469,19.420 10.462,19.422 10.456,19.425 10.450,19.427 10.444,19.430 10.438,19.433 10.432,19.436 10.427,19.438 10.421,19.441 10.415,19.444 10.404,19.450 10.394,19.456 10.384,19.463 10.384,19.463 10.384,19.463 10.384,19.463 10.379,19.466 10.374,19.469 10.369,19.473 10.356,19.483 10.343,19.493 10.333,19.503 Z M 13.287,16.549 C 13.210,16.626 13.181,16.703 13.177,16.801 13.177,16.809 13.176,16.818 13.176,16.826 13.176,17.930 13.176,17.930 13.176,17.930 13.176,18.037 13.202,18.118 13.279,18.198 13.282,18.201 13.284,18.203 13.287,18.206 13.289,18.209 13.292,18.211 13.294,18.213 13.375,18.290 13.456,18.317 13.563,18.317 14.667,18.317 14.667,18.317 14.667,18.317 14.791,18.317 14.898,18.264 14.968,18.179 14.972,18.174 14.975,18.170 14.979,18.165 14.979,18.165 14.979,18.165 14.979,18.165 15.015,18.116 15.040,18.057 15.049,17.991 15.049,17.991 15.049,17.991 15.049,17.991 15.050,17.989 15.050,17.986 15.050,17.984 15.052,17.971 15.053,17.959 15.053,17.947 15.053,17.941 15.054,17.936 15.054,17.930 15.054,17.930 15.054,17.930 15.054,17.930 15.054,16.826 15.054,16.826 15.054,16.826 15.054,16.716 15.026,16.632 14.943,16.550 14.860,16.467 14.777,16.440 14.667,16.440 13.563,16.439 13.563,16.439 13.563,16.439 13.549,16.439 13.535,16.440 13.521,16.442 13.515,16.443 13.508,16.444 13.501,16.445 13.487,16.447 13.474,16.450 13.461,16.454 13.454,16.456 13.448,16.458 13.441,16.460 13.435,16.462 13.429,16.464 13.422,16.466 13.416,16.469 13.410,16.471 13.404,16.474 13.398,16.476 13.392,16.479 13.386,16.482 13.380,16.485 13.375,16.487 13.369,16.490 13.364,16.493 13.358,16.496 13.353,16.500 13.348,16.503 13.343,16.506 13.338,16.509 13.338,16.509 13.338,16.509 13.338,16.509 13.333,16.512 13.328,16.516 13.323,16.519 13.323,16.519 13.323,16.519 13.323,16.519 13.319,16.522 13.314,16.526 13.310,16.529 13.306,16.532 13.301,16.536 13.298,16.539 13.298,16.539 13.298,16.539 13.298,16.539 13.294,16.543 13.290,16.546 13.287,16.549 Z M 16.240,13.596 C 16.164,13.672 16.135,13.749 16.131,13.847 16.130,13.856 16.130,13.864 16.130,13.872 16.130,14.977 16.130,14.977 16.130,14.977 16.130,15.085 16.157,15.166 16.235,15.247 16.237,15.249 16.239,15.250 16.240,15.252 16.242,15.254 16.244,15.256 16.246,15.257 16.327,15.336 16.408,15.363 16.516,15.363 17.621,15.363 17.621,15.363 17.621,15.363 17.745,15.363 17.852,15.311 17.922,15.225 17.925,15.221 17.929,15.216 17.933,15.211 17.933,15.211 17.933,15.211 17.933,15.211 17.968,15.164 17.992,15.107 18.002,15.045 18.005,15.028 18.006,15.010 18.007,14.993 18.007,14.987 18.007,14.982 18.007,14.977 18.007,14.977 18.007,14.977 18.007,14.977 18.007,13.872 18.007,13.872 18.007,13.872 18.007,13.762 17.980,13.679 17.897,13.596 17.814,13.513 17.731,13.486 17.621,13.486 16.516,13.486 16.516,13.486 16.516,13.486 16.503,13.486 16.489,13.487 16.475,13.488 16.461,13.490 16.448,13.492 16.435,13.495 16.428,13.497 16.421,13.498 16.415,13.500 16.395,13.506 16.376,13.512 16.358,13.520 16.352,13.523 16.346,13.525 16.340,13.528 16.340,13.528 16.340,13.528 16.340,13.528 16.334,13.531 16.328,13.534 16.323,13.537 16.323,13.537 16.323,13.537 16.323,13.537 16.317,13.540 16.312,13.543 16.307,13.546 16.307,13.546 16.307,13.546 16.307,13.546 16.296,13.552 16.286,13.558 16.277,13.565 16.272,13.568 16.268,13.572 16.264,13.575 16.259,13.579 16.255,13.582 16.251,13.585 16.251,13.585 16.251,13.585 16.251,13.585 16.247,13.589 16.244,13.592 16.240,13.596 Z M 19.194,10.642 C 19.111,10.725 19.084,10.808 19.084,10.918 19.084,12.022 19.084,12.022 19.084,12.022 19.084,12.133 19.111,12.216 19.194,12.298 19.277,12.381 19.360,12.409 19.471,12.409 20.575,12.409 20.575,12.409 20.575,12.409 20.796,12.409 20.961,12.244 20.961,12.023 20.961,10.919 20.961,10.919 20.961,10.919 20.961,10.698 20.795,10.532 20.574,10.532 19.470,10.532 19.470,10.532 19.470,10.532 19.360,10.532 19.249,10.587 19.194,10.642 Z " />
</svg>