<?xml version="1.0" encoding="UTF-8" standalone="no"?>
<!DOCTYPE svg PUBLIC "-//W3C//DTD SVG 20010904//EN" "http://www.w3.org/TR/2001/REC-SVG-20010904/DTD/svg10.dtd"[]>
<svg version="1.1" id="Frosty Editor v1.0.6.3" xmlns="http://www.w3.org/2000/svg" d1p1:xlink="http://www.w3.org/1999/xlink" viewBox="0 0 25 25" xmlns:d1p1="xmlns">
  <path stroke="none" fill="#ffffffff" d="M 12.812,2.229 C 11.809,2.229 10.883,2.764 10.381,3.633 9.981,4.324 9.581,5.016 9.180,5.707 9.211,5.722 9.242,5.737 9.273,5.752 9.536,5.902 9.798,6.053 10.061,6.204 10.411,5.597 10.761,4.991 11.111,4.385 11.462,3.777 12.111,3.404 12.812,3.404 13.513,3.404 14.162,3.777 14.513,4.385 14.863,4.991 15.213,5.597 15.563,6.204 15.824,6.052 16.087,5.900 16.348,5.749 16.379,5.734 16.410,5.719 16.441,5.704 16.042,5.014 15.642,4.323 15.243,3.633 14.741,2.764 13.814,2.229 12.812,2.229 Z M 12.819,3.684 C 12.217,3.684 11.662,4.005 11.361,4.525 11.008,5.132 10.655,5.740 10.303,6.347 10.552,6.496 10.735,6.737 10.811,7.018 10.914,7.401 11.016,7.785 11.119,8.168 11.197,8.456 11.156,8.763 11.007,9.021 10.858,9.279 10.613,9.467 10.325,9.544 9.943,9.647 9.562,9.749 9.180,9.852 8.897,9.929 8.594,9.892 8.338,9.749 7.463,11.265 6.589,12.782 5.714,14.298 5.413,14.819 5.413,15.461 5.715,15.982 5.968,16.420 6.401,16.716 6.889,16.799 7.206,16.319 7.513,15.857 7.808,15.418 7.792,15.419 7.776,15.421 7.760,15.421 7.749,15.421 7.749,15.421 7.749,15.421 7.522,15.421 7.317,15.284 7.230,15.074 7.144,14.864 7.191,14.623 7.352,14.463 7.462,14.353 7.611,14.295 7.761,14.298 7.829,14.300 7.898,14.313 7.964,14.340 8.125,14.407 8.242,14.544 8.288,14.707 9.009,13.648 9.619,12.792 10.014,12.313 10.016,11.968 10.081,11.621 10.214,11.289 10.635,10.234 11.652,9.537 12.789,9.524 13.925,9.511 14.957,10.185 15.403,11.230 15.848,12.276 15.618,13.488 14.822,14.298 15.328,15.140 15.834,15.982 16.340,16.824 18.442,16.824 18.442,16.824 18.442,16.824 19.044,16.825 19.600,16.503 19.901,15.982 20.202,15.461 20.202,14.819 19.901,14.298 19.026,12.783 18.152,11.267 17.277,9.751 17.021,9.895 16.719,9.932 16.435,9.855 16.052,9.752 15.668,9.649 15.285,9.546 14.693,9.376 14.349,8.762 14.513,8.168 14.616,7.785 14.719,7.401 14.822,7.018 14.898,6.737 15.080,6.496 15.330,6.347 14.979,5.740 14.628,5.132 14.277,4.525 13.976,4.005 13.420,3.684 12.819,3.684 Z M 12.813,5.317 C 12.881,5.318 12.949,5.333 13.015,5.360 13.225,5.447 13.362,5.651 13.362,5.878 13.362,6.184 13.118,6.433 12.812,6.439 12.801,6.439 12.801,6.439 12.801,6.439 12.574,6.439 12.369,6.303 12.282,6.093 12.196,5.884 12.244,5.642 12.404,5.481 12.514,5.371 12.663,5.313 12.813,5.317 Z M 8.717,6.160 C 8.528,6.164 8.344,6.263 8.243,6.439 7.962,6.926 7.681,7.413 7.401,7.899 7.241,8.164 7.327,8.508 7.591,8.668 7.934,8.861 8.276,9.053 8.619,9.246 8.748,9.321 8.901,9.341 9.045,9.302 9.429,9.199 9.812,9.097 10.196,8.994 10.488,8.909 10.659,8.608 10.583,8.314 10.480,7.931 10.378,7.547 10.275,7.164 10.239,7.021 10.148,6.898 10.022,6.821 9.684,6.625 9.346,6.430 9.009,6.234 8.917,6.181 8.816,6.157 8.717,6.160 Z M 16.894,6.162 C 16.804,6.165 16.713,6.189 16.629,6.237 16.291,6.433 15.954,6.628 15.616,6.824 15.487,6.898 15.394,7.020 15.355,7.164 15.252,7.547 15.149,7.931 15.046,8.314 14.966,8.613 15.143,8.921 15.442,9.002 15.826,9.105 16.209,9.208 16.593,9.311 16.737,9.349 16.890,9.329 17.019,9.255 17.357,9.059 17.695,8.864 18.032,8.668 18.301,8.513 18.392,8.170 18.237,7.902 17.957,7.415 17.676,6.929 17.395,6.442 17.289,6.258 17.093,6.157 16.894,6.162 Z M 18.400,9.095 C 18.372,9.114 18.347,9.137 18.316,9.153 18.054,9.305 17.792,9.457 17.530,9.608 18.405,11.124 19.279,12.640 20.153,14.155 20.507,14.765 20.507,15.517 20.153,16.126 19.800,16.736 19.147,17.110 18.442,17.105 16.169,17.105 16.169,17.105 16.169,17.105 15.646,16.233 15.123,15.361 14.600,14.489 14.207,14.816 13.747,15.019 13.271,15.099 13.117,15.267 12.920,15.470 12.688,15.702 14.109,15.702 14.109,15.702 14.109,15.702 14.577,15.701 14.997,15.992 15.161,16.431 15.302,16.806 15.442,17.180 15.582,17.554 15.629,17.680 15.653,17.813 15.652,17.947 18.647,17.947 18.647,17.947 18.647,17.947 19.650,17.947 20.576,17.412 21.077,16.544 21.578,15.675 21.578,14.605 21.077,13.737 20.184,12.190 19.293,10.642 18.400,9.095 Z M 7.224,9.097 C 6.332,10.644 5.441,12.190 4.549,13.737 4.048,14.605 4.048,15.675 4.549,16.544 4.918,17.183 5.518,17.641 6.209,17.838 6.382,17.573 6.553,17.311 6.723,17.052 6.201,16.930 5.744,16.597 5.469,16.122 5.119,15.514 5.119,14.766 5.469,14.158 6.344,12.642 7.219,11.127 8.094,9.611 7.832,9.459 7.570,9.308 7.308,9.156 7.277,9.139 7.252,9.117 7.224,9.097 Z M 12.812,9.807 C 11.790,9.807 10.870,10.423 10.479,11.367 10.398,11.562 10.344,11.762 10.314,11.964 11.992,10.088 13.177,10.120 14.057,10.868 14.938,11.616 15.159,12.781 13.578,14.740 13.645,14.718 13.712,14.694 13.778,14.667 14.722,14.276 15.338,13.355 15.338,12.334 15.338,11.664 15.072,11.021 14.598,10.548 14.124,10.074 13.482,9.807 12.812,9.807 Z M 12.889,10.960 C 12.842,10.958 12.796,10.960 12.749,10.965 12.270,11.034 11.851,11.307 11.487,11.613 10.678,12.298 10.058,13.168 9.453,14.029 7.762,16.449 6.174,18.938 4.579,21.422 4.313,21.838 4.046,22.254 3.784,22.673 3.753,22.747 3.713,22.847 3.783,22.912 3.853,22.981 3.960,22.922 4.023,22.873 4.189,22.747 4.334,22.597 4.493,22.463 6.872,20.335 9.250,18.205 11.560,16.003 12.078,15.504 12.595,15.002 13.068,14.458 13.487,13.962 13.856,13.411 14.077,12.796 14.187,12.468 14.223,12.090 14.065,11.771 13.904,11.451 13.619,11.201 13.295,11.055 13.167,10.999 13.029,10.965 12.889,10.960 Z M 12.840,12.139 C 12.899,12.156 12.963,12.199 12.997,12.256 12.997,12.398 12.929,12.533 12.871,12.661 12.597,13.229 12.190,13.714 11.756,14.166 10.836,15.096 9.881,15.991 8.922,16.880 9.306,16.303 9.696,15.730 10.090,15.160 10.646,14.366 11.184,13.546 11.866,12.856 12.147,12.585 12.429,12.291 12.802,12.151 Z M 17.853,14.298 C 17.864,14.298 17.864,14.298 17.864,14.298 18.087,14.303 18.286,14.438 18.371,14.644 18.458,14.854 18.410,15.096 18.250,15.256 18.089,15.417 17.847,15.465 17.638,15.378 17.428,15.291 17.292,15.087 17.292,14.860 17.292,14.709 17.352,14.564 17.460,14.458 17.565,14.355 17.706,14.298 17.853,14.298 Z M 12.116,16.263 C 11.674,16.690 11.156,17.179 10.589,17.707 10.583,17.721 10.578,17.736 10.572,17.751 10.508,17.923 10.532,18.115 10.637,18.266 10.741,18.417 10.913,18.508 11.097,18.508 14.530,18.508 14.530,18.508 14.530,18.508 14.714,18.508 14.885,18.417 14.990,18.266 15.095,18.115 15.119,17.923 15.055,17.751 14.914,17.374 14.774,16.998 14.634,16.622 14.550,16.405 14.341,16.262 14.109,16.263 Z " />
</svg>