<?xml version="1.0" encoding="UTF-8" standalone="no"?>
<!DOCTYPE svg PUBLIC "-//W3C//DTD SVG 20010904//EN" "http://www.w3.org/TR/2001/REC-SVG-20010904/DTD/svg10.dtd"[]>
<svg version="1.1" id="Frosty Editor v1.0.6.3" xmlns="http://www.w3.org/2000/svg" d1p1:xlink="http://www.w3.org/1999/xlink" viewBox="0 0 25 25" xmlns:d1p1="xmlns">
  <path stroke="none" fill="none" d="M -71.445,-3.226 C -71.543,-3.227 -71.641,-3.225 -71.741,-3.223 -72.699,-3.196 -73.775,-3.025 -75.120,-2.721 -77.731,-2.131 -77.731,-2.131 -77.731,-2.131 -79.688,-0.172 -79.688,-0.172 -79.688,-0.172 -81.584,1.726 -81.668,1.866 -82.400,4.328 -82.815,5.725 -83.155,7.173 -83.155,7.545 -83.155,8.856 -82.281,11.329 -81.536,12.126 -80.404,13.339 -80.150,12.825 -81.026,11.091 -82.181,8.801 -82.264,7.600 -81.459,4.820 -80.779,2.475 -80.641,2.254 -78.287,-0.265 -77.337,-1.281 -77.030,-1.426 -74.733,-1.950 -72.551,-2.447 -71.989,-2.485 -70.482,-2.235 -68.339,-1.880 -65.816,-0.629 -64.478,0.741 -63.462,1.782 -63.047,2.003 -63.047,1.504 -63.047,0.809 -65.324,-1.153 -67.222,-2.092 -68.770,-2.857 -69.984,-3.220 -71.445,-3.226 Z M -72.296,-0.753 C -73.788,-0.771 -74.756,1.176 -73.769,3.085 -73.421,3.757 -73.423,3.857 -73.790,3.998 -74.017,4.085 -74.492,4.155 -74.846,4.155 -76.512,4.155 -77.863,5.921 -77.863,8.098 -77.863,8.559 -78.157,9.516 -78.517,10.226 -78.887,10.955 -79.404,12.805 -79.705,14.478 -80.238,17.439 -80.238,17.439 -80.238,17.439 -79.261,18.470 -79.261,18.470 -79.261,18.470 -78.723,19.037 -78.194,19.501 -78.084,19.501 -77.685,19.501 -77.292,17.357 -77.554,16.606 -77.766,15.997 -77.676,15.667 -77.002,14.584 -76.559,13.872 -76.105,12.991 -75.994,12.625 -75.877,12.239 -75.781,13.515 -75.767,15.665 -75.739,19.782 -75.526,22.147 -75.181,22.147 -75.056,22.147 -74.953,20.040 -74.953,17.464 -74.953,14.836 -74.853,12.891 -74.726,13.032 -74.601,13.171 -74.170,14.203 -73.768,15.326 -73.070,17.274 -73.045,17.508 -73.227,20.419 -73.412,23.381 -73.402,23.470 -72.875,23.470 -72.394,23.470 -72.323,23.282 -72.253,21.816 -72.175,20.163 -72.175,20.163 -72.175,20.163 -71.552,21.803 -71.552,21.803 -71.552,21.803 -71.210,22.706 -70.793,23.495 -70.626,23.556 -69.927,23.815 -69.985,23.176 -70.887,20.682 -71.840,18.046 -71.840,18.046 -71.840,18.046 -71.378,16.194 -71.378,16.194 -71.378,16.194 -71.123,15.175 -70.711,13.819 -70.462,13.179 -70.009,12.015 -70.009,12.015 -70.009,12.015 -69.440,14.501 -69.440,14.501 -69.440,14.501 -69.127,15.869 -68.630,18.178 -68.335,19.633 -67.681,22.855 -67.576,23.205 -67.262,23.205 -66.846,23.205 -66.978,22.057 -67.942,17.271 -69.124,11.395 -69.140,10.186 -68.051,8.705 -67.602,8.095 -67.201,7.595 -67.161,7.595 -67.120,7.595 -66.454,7.715 -65.680,7.862 -64.452,8.095 -63.833,8.025 -60.815,7.311 -58.914,6.861 -57.150,6.435 -56.896,6.365 -56.642,6.295 -56.136,5.728 -55.772,5.107 -55.000,3.790 -54.889,2.568 -55.541,2.568 -55.892,2.568 -55.946,2.370 -55.831,1.509 -55.691,0.465 -55.700,0.451 -56.539,0.451 -57.328,0.451 -57.451,0.581 -58.272,2.279 -59.157,4.107 -59.157,4.107 -59.157,4.107 -61.168,4.275 -61.168,4.275 -61.168,4.275 -62.552,4.390 -63.756,4.317 -65.031,4.039 -66.050,3.817 -67.627,3.633 -68.537,3.631 -70.191,3.626 -70.191,3.626 -70.191,3.626 -70.194,2.369 -70.194,2.369 -70.194,2.369 -70.199,0.580 -70.391,0.074 -71.256,-0.437 -71.508,-0.585 -71.755,-0.678 -71.991,-0.722 -72.095,-0.742 -72.197,-0.752 -72.296,-0.753 Z M -72.379,0.311 C -72.336,0.312 -72.293,0.315 -72.250,0.319 -72.077,0.338 -71.899,0.386 -71.759,0.461 -71.093,0.818 -71.021,2.953 -71.667,3.201 -71.898,3.290 -72.106,3.360 -72.130,3.358 -72.959,3.283 -73.472,0.650 -72.715,0.360 -72.654,0.336 -72.581,0.321 -72.502,0.315 -72.462,0.311 -72.421,0.310 -72.379,0.311 Z M -57.093,2.515 C -57.051,2.518 -57.077,2.708 -57.142,3.061 -57.291,3.881 -57.259,3.937 -56.736,3.771 -56.061,3.557 -56.040,3.671 -56.566,4.688 -56.993,5.514 -57.038,5.532 -61.525,6.609 -63.739,7.140 -64.350,7.191 -65.827,6.971 -67.458,6.727 -67.586,6.747 -68.246,7.353 -69.085,8.122 -71.355,12.758 -71.798,14.606 -71.972,15.334 -72.197,16.022 -72.297,16.135 -72.482,16.342 -73.662,13.072 -74.687,9.513 -74.991,8.458 -75.354,7.595 -75.494,7.595 -75.809,7.595 -75.818,8.276 -75.517,9.324 -75.323,10.003 -75.403,10.261 -76.047,11.032 -76.464,11.532 -76.805,12.092 -76.805,12.276 -76.805,12.461 -77.236,13.287 -77.764,14.111 -78.650,15.496 -78.701,15.681 -78.432,16.557 -78.272,17.078 -78.233,17.596 -78.346,17.708 -78.670,18.032 -79.187,17.347 -79.180,16.604 -79.167,15.377 -78.210,11.650 -77.639,10.606 -77.330,10.041 -76.959,8.808 -76.814,7.865 -76.522,5.968 -75.912,5.230 -74.630,5.220 -74.234,5.217 -73.281,4.942 -72.513,4.611 -71.260,4.070 -70.994,4.040 -69.926,4.325 -69.271,4.499 -68.283,4.652 -67.729,4.663 -67.176,4.675 -65.878,4.877 -64.846,5.112 -63.280,5.468 -62.594,5.490 -60.719,5.248 -59.482,5.089 -58.443,4.926 -58.409,4.888 -58.376,4.849 -58.041,4.221 -57.664,3.494 -57.354,2.894 -57.186,2.585 -57.115,2.525 -57.106,2.518 -57.099,2.515 -57.093,2.515 Z M -72.233,5.346 C -72.570,6.617 -72.570,6.617 -72.570,6.617 -72.855,7.693 -73.022,7.910 -73.665,8.039 -74.631,8.232 -74.631,8.530 -73.664,8.867 -73.018,9.092 -72.876,9.318 -72.718,10.372 -72.503,11.808 -72.416,11.791 -71.964,10.228 -71.682,9.256 -71.495,9.045 -70.744,8.850 -69.857,8.621 -69.857,8.621 -69.857,8.621 -70.743,8.174 -70.743,8.174 -70.743,8.174 -71.445,7.821 -71.692,7.479 -71.931,6.537 Z M -54.977,5.478 C -55.302,5.478 -55.374,5.932 -55.374,7.970 -55.374,9.724 -55.276,10.497 -55.043,10.580 -54.371,10.821 -54.256,10.383 -54.408,8.156 -54.494,6.902 -54.567,5.786 -54.572,5.677 -54.576,5.568 -54.759,5.478 -54.977,5.478 Z M -57.367,8.430 C -57.390,8.428 -57.412,8.428 -57.433,8.431 -57.722,8.470 -57.755,9.003 -57.755,11.523 -57.755,13.268 -57.683,14.884 -57.594,15.114 -57.506,15.345 -57.338,15.532 -57.221,15.532 -56.906,15.532 -56.746,13.870 -56.790,11.039 -56.824,8.879 -56.893,8.518 -57.292,8.440 -57.318,8.435 -57.343,8.432 -57.367,8.430 Z M -61.830,9.447 C -62.055,9.447 -62.323,9.959 -62.514,10.754 -62.952,12.583 -64.094,14.257 -65.518,15.160 -66.188,15.585 -66.736,16.137 -66.741,16.392 -66.756,17.089 -66.127,16.954 -64.861,15.988 -63.389,14.865 -62.393,13.385 -61.875,11.547 -61.364,9.738 -61.358,9.447 -61.830,9.447 Z M -59.526,11.328 C -59.554,11.323 -59.587,11.324 -59.622,11.330 -59.694,11.341 -59.777,11.373 -59.854,11.420 -60.165,11.613 -60.266,20.871 -59.960,21.177 -59.863,21.274 -59.609,21.353 -59.396,21.353 -59.063,21.353 -59.032,20.654 -59.178,16.411 -59.272,13.693 -59.399,11.419 -59.460,11.358 -59.476,11.343 -59.498,11.333 -59.526,11.328 Z " />
  <path stroke="none" fill="#ffffffff" d="M 12.730,3.495 C 12.178,3.495 11.633,3.545 11.100,3.645 11.086,3.646 11.073,3.647 11.060,3.648 10.733,3.713 10.414,3.795 10.103,3.895 10.081,3.902 10.059,3.909 10.037,3.916 10.028,3.919 10.019,3.923 10.010,3.926 10.006,3.927 10.002,3.928 9.998,3.929 9.978,3.936 9.957,3.943 9.937,3.950 9.929,3.953 9.921,3.955 9.913,3.958 9.905,3.960 9.896,3.963 9.888,3.967 9.374,4.146 8.878,4.374 8.396,4.652 7.911,4.931 7.452,5.252 7.031,5.615 7.023,5.620 7.016,5.625 7.008,5.630 6.281,6.269 5.687,6.995 5.203,7.831 4.932,8.300 4.702,8.789 4.522,9.295 4.503,9.319 4.487,9.346 4.474,9.376 4.172,10.295 4.018,11.222 4.000,12.178 4.012,13.125 4.172,14.081 4.482,14.997 4.506,15.087 4.552,15.140 4.628,15.184 4.704,15.228 4.822,15.245 4.882,15.229 4.972,15.205 5.035,15.139 5.079,15.063 5.123,14.987 5.118,14.908 5.094,14.817 4.820,13.973 4.665,13.096 4.669,12.208 4.671,11.696 4.723,11.187 4.819,10.688 4.831,10.669 4.842,10.648 4.851,10.626 5.027,9.746 5.335,8.910 5.775,8.139 6.027,7.711 6.322,7.305 6.652,6.924 6.666,6.916 6.680,6.906 6.694,6.896 7.286,6.221 7.972,5.652 8.738,5.205 9.493,4.777 10.330,4.472 11.199,4.287 11.221,4.286 11.244,4.280 11.266,4.271 11.746,4.181 12.231,4.133 12.730,4.133 13.245,4.133 13.759,4.179 14.264,4.277 14.268,4.280 14.273,4.283 14.276,4.284 14.536,4.337 14.791,4.401 15.040,4.475 15.137,4.506 15.233,4.539 15.328,4.574 15.363,4.591 15.385,4.595 15.415,4.595 15.880,4.757 16.328,4.961 16.764,5.213 17.527,5.653 18.223,6.208 18.794,6.893 18.821,6.934 18.840,6.945 18.878,6.967 18.992,7.033 19.150,7.022 19.255,6.930 19.400,6.811 19.412,6.614 19.292,6.469 18.665,5.751 17.922,5.144 17.083,4.660 16.590,4.375 16.077,4.140 15.548,3.958 15.543,3.956 15.538,3.954 15.532,3.952 15.509,3.945 15.486,3.937 15.463,3.929 15.458,3.927 15.453,3.926 15.448,3.924 15.424,3.916 15.401,3.909 15.378,3.901 15.373,3.900 15.368,3.898 15.363,3.897 15.051,3.797 14.734,3.715 14.413,3.652 14.396,3.648 14.379,3.646 14.362,3.645 13.828,3.545 13.283,3.495 12.730,3.495 Z M 15.466,6.794 C 15.225,6.791 14.930,6.961 14.793,7.143 14.793,7.143 14.006,8.415 13.138,9.304 12.492,9.970 11.825,10.898 11.078,11.221 10.049,11.686 10.170,12.251 9.120,12.110 8.071,11.968 7.303,11.423 6.536,11.363 6.173,11.343 5.486,11.565 5.446,11.948 5.385,12.554 6.213,13.381 7.122,13.301 8.797,13.180 9.040,14.128 9.403,14.512 10.049,15.178 10.715,15.078 11.200,15.421 11.563,15.663 11.745,16.047 12.411,16.127 13.582,16.249 14.551,15.784 15.399,14.714 15.399,14.714 15.803,14.492 15.924,13.987 16.328,13.887 16.792,13.543 16.792,13.543 16.792,13.543 17.338,13.422 17.560,13.341 17.984,13.280 18.367,12.877 18.266,12.594 18.145,12.291 17.842,12.433 17.438,12.514 17.014,12.615 16.530,12.735 16.530,12.735 16.274,12.843 16.018,12.951 15.762,13.058 15.729,13.018 15.695,12.978 15.662,12.937 16.018,12.695 16.375,12.453 16.732,12.211 17.210,11.962 17.687,11.713 18.165,11.464 18.428,11.302 18.751,10.898 18.609,10.636 18.448,10.373 18.185,10.394 17.781,10.555 17.384,10.750 16.987,10.945 16.590,11.141 16.590,11.141 14.914,11.948 14.874,11.887 15.318,11.416 15.763,10.946 16.207,10.475 16.705,10.051 17.203,9.626 17.701,9.202 18.004,9.021 18.125,8.435 17.923,8.213 17.701,7.991 17.358,7.890 16.934,8.354 16.389,8.785 15.843,9.216 15.298,9.647 15.298,9.647 13.562,11.302 13.502,11.282 13.777,10.804 14.053,10.326 14.329,9.848 14.787,9.168 15.244,8.489 15.702,7.809 15.884,7.567 15.944,7.042 15.682,6.860 15.621,6.815 15.547,6.795 15.466,6.794 Z M 20.963,13.488 C 20.786,13.488 20.654,13.598 20.632,13.752 20.456,14.633 20.148,15.469 19.708,16.240 19.268,16.988 18.695,17.670 18.035,18.264 17.903,18.374 17.903,18.595 18.013,18.727 18.079,18.793 18.167,18.837 18.255,18.837 18.343,18.837 18.409,18.792 18.453,18.748 19.179,18.110 19.774,17.384 20.258,16.548 20.742,15.711 21.094,14.809 21.271,13.862 21.293,13.774 21.271,13.686 21.227,13.620 21.183,13.554 21.116,13.510 21.028,13.488 Z M 10.138,16.116 C 9.941,16.116 9.782,16.305 9.782,16.540 9.782,19.433 9.782,19.433 9.782,19.433 9.782,19.668 9.941,19.858 10.138,19.858 10.336,19.858 10.494,19.668 10.494,19.433 10.494,16.540 10.494,16.540 10.494,16.540 10.494,16.305 10.336,16.116 10.138,16.116 Z M 14.792,16.696 C 14.595,16.696 14.436,16.838 14.436,17.013 14.436,19.172 14.436,19.172 14.436,19.172 14.436,19.348 14.595,19.489 14.792,19.489 14.989,19.489 15.148,19.348 15.148,19.172 15.148,17.013 15.148,17.013 15.148,17.013 15.148,16.838 14.989,16.696 14.792,16.696 Z M 12.465,17.073 C 12.268,17.073 12.109,17.323 12.109,17.634 12.109,21.457 12.109,21.457 12.109,21.457 12.109,21.768 12.268,22.019 12.465,22.019 12.663,22.019 12.821,21.768 12.821,21.457 12.821,17.634 12.821,17.634 12.821,17.634 12.821,17.323 12.663,17.073 12.465,17.073 Z " />
</svg>