<?xml version="1.0" encoding="UTF-8" standalone="no"?>
<!DOCTYPE svg PUBLIC "-//W3C//DTD SVG 20010904//EN" "http://www.w3.org/TR/2001/REC-SVG-20010904/DTD/svg10.dtd"[]>
<svg version="1.1" id="Frosty Editor v1.0.6.3" xmlns="http://www.w3.org/2000/svg" d1p1:xlink="http://www.w3.org/1999/xlink" viewBox="0 0 101 25" xmlns:d1p1="xmlns">
  <path stroke="none" fill="#ffffffff" d="M 97.035,7.463 C 96.897,7.461 96.633,7.571 96.085,7.846 95.574,8.102 95.005,8.341 94.821,8.377 94.638,8.413 94.463,8.506 94.434,8.582 94.391,8.695 94.358,8.689 94.260,8.556 94.151,8.407 94.023,8.402 92.972,8.504 91.721,8.626 91.302,8.735 91.296,8.938 91.294,9.008 91.229,8.950 91.152,8.809 91.039,8.600 90.930,8.548 90.564,8.530 90.317,8.517 90.091,8.546 90.061,8.594 90.031,8.642 89.757,8.661 89.453,8.636 89.007,8.599 88.887,8.622 88.837,8.753 88.784,8.892 88.571,8.915 87.333,8.915 85.892,8.915 85.892,8.915 85.892,8.915 85.892,8.668 85.892,8.668 85.892,8.668 85.892,8.312 85.621,8.214 84.640,8.214 83.646,8.214 83.388,8.311 83.388,8.684 83.388,8.946 83.388,8.946 83.388,8.946 81.971,8.885 81.971,8.885 81.971,8.885 81.191,8.852 80.507,8.777 80.449,8.720 80.309,8.580 79.913,8.586 79.824,8.730 79.785,8.793 79.760,9.074 79.768,9.356 79.790,10.156 79.801,10.150 78.164,10.153 76.729,10.155 76.729,10.155 76.729,10.155 75.927,9.693 75.927,9.693 75.927,9.693 75.487,9.439 75.000,9.115 74.847,8.973 74.508,8.661 74.283,8.648 73.965,8.923 73.777,9.086 73.640,9.119 73.324,9.075 72.660,8.984 69.270,8.976 66.741,9.062 64.649,9.132 64.357,9.123 64.305,8.988 64.170,8.635 63.394,8.689 63.302,9.059 63.268,9.192 63.119,9.324 62.927,9.391 62.552,9.521 58.187,9.563 55.823,9.459 54.899,9.418 54.246,9.427 54.246,9.480 54.246,9.533 51.360,9.560 47.235,9.545 40.845,9.522 40.201,9.505 39.966,9.351 39.737,9.201 39.259,9.176 35.853,9.139 32.011,9.098 31.999,9.098 31.944,9.307 31.900,9.474 31.811,9.516 31.500,9.516 31.229,9.516 31.112,9.473 31.112,9.372 31.112,9.292 31.064,9.198 31.006,9.162 30.837,9.058 30.411,9.205 30.411,9.368 30.411,9.603 29.786,9.561 29.633,9.316 29.449,9.022 29.033,9.063 28.031,9.474 27.169,9.828 27.136,9.833 25.833,9.820 24.751,9.809 24.465,9.836 24.256,9.973 24.116,10.065 24.001,10.209 24.001,10.293 24.001,10.533 23.686,10.711 23.256,10.715 22.862,10.718 22.862,10.718 22.862,10.718 23.124,10.442 23.124,10.442 23.124,10.442 23.457,10.092 23.925,9.163 23.881,8.937 23.850,8.775 23.183,8.767 12.733,8.802 6.620,8.823 1.580,8.875 1.532,8.918 1.485,8.962 1.522,9.226 1.615,9.506 1.784,10.014 2.113,10.358 3.189,11.148 3.558,11.419 3.558,11.419 3.558,11.419 7.295,11.420 7.295,11.420 7.295,11.420 9.350,11.421 11.082,11.455 11.143,11.496 11.215,11.544 11.246,11.967 11.232,12.721 11.231,12.742 11.231,12.742 11.231,12.742 11.232,12.742 11.232,12.742 11.232,12.742 11.243,13.452 11.213,13.858 11.143,13.904 11.082,13.945 9.350,13.978 7.295,13.979 3.558,13.981 3.558,13.981 3.558,13.981 3.189,14.252 3.189,14.252 3.189,14.252 2.113,15.042 1.784,15.386 1.615,15.894 1.522,16.174 1.485,16.438 1.532,16.481 1.580,16.525 6.620,16.577 12.733,16.598 23.183,16.633 23.850,16.625 23.881,16.463 23.925,16.237 23.457,15.308 23.124,14.957 22.862,14.682 22.862,14.682 22.862,14.682 23.256,14.685 23.256,14.685 23.256,14.685 23.686,14.689 24.001,14.867 24.001,15.107 24.001,15.191 24.116,15.335 24.256,15.427 24.465,15.563 24.751,15.591 25.833,15.580 27.136,15.566 27.169,15.572 28.031,15.925 29.033,16.337 29.449,16.378 29.633,16.084 29.786,15.839 30.411,15.797 30.411,16.032 30.411,16.195 30.837,16.342 31.006,16.238 31.064,16.202 31.112,16.107 31.112,16.028 31.112,15.927 31.229,15.884 31.500,15.884 31.811,15.884 31.900,15.926 31.944,16.093 31.999,16.302 32.011,16.302 35.853,16.260 39.259,16.223 39.737,16.199 39.966,16.049 40.201,15.895 40.845,15.877 47.235,15.855 51.360,15.840 54.246,15.867 54.246,15.920 54.246,15.973 54.899,15.982 55.823,15.941 58.187,15.837 62.552,15.879 62.927,16.009 63.119,16.076 63.268,16.208 63.302,16.341 63.394,16.710 64.170,16.765 64.305,16.412 64.357,16.277 64.649,16.268 66.741,16.338 69.270,16.423 72.660,16.416 73.324,16.324 73.640,16.281 73.777,16.313 73.965,16.477 74.283,16.752 74.508,16.739 74.847,16.427 75.000,16.285 75.487,15.961 75.927,15.707 76.729,15.245 76.729,15.245 76.729,15.245 78.164,15.247 78.164,15.247 78.164,15.247 79.801,15.250 79.790,15.244 79.768,16.044 79.760,16.325 79.785,16.607 79.824,16.670 79.913,16.814 80.309,16.820 80.449,16.680 80.507,16.622 81.191,16.548 81.971,16.514 83.388,16.454 83.388,16.454 83.388,16.454 83.388,16.716 83.388,16.716 83.388,16.716 83.388,17.089 83.646,17.186 84.640,17.186 85.621,17.186 85.892,17.087 85.892,16.731 85.892,16.485 85.892,16.485 85.892,16.485 87.333,16.485 87.333,16.485 87.333,16.485 88.571,16.485 88.784,16.508 88.837,16.647 88.887,16.778 89.007,16.801 89.453,16.764 89.757,16.738 90.031,16.757 90.061,16.806 90.091,16.854 90.317,16.883 90.564,16.870 90.930,16.851 91.039,16.800 91.152,16.591 91.229,16.450 91.294,16.392 91.296,16.462 91.302,16.665 91.721,16.773 92.972,16.896 94.023,16.998 94.151,16.993 94.260,16.844 94.358,16.710 94.391,16.705 94.434,16.818 94.463,16.894 94.638,16.986 94.821,17.022 95.005,17.059 95.574,17.298 96.085,17.554 96.633,17.829 96.897,17.939 97.035,17.937 97.081,17.936 97.113,17.922 97.137,17.899 97.210,17.825 97.279,17.350 97.309,16.705 97.359,15.633 97.359,15.633 97.359,15.633 97.859,15.475 97.859,15.475 97.859,15.475 98.358,15.318 98.360,15.316 98.391,14.850 98.416,14.457 98.458,14.373 98.654,14.324 98.860,14.272 98.894,14.187 98.954,13.582 98.978,13.343 98.984,12.992 98.977,12.658 98.975,12.658 98.975,12.658 98.975,12.658 98.979,12.352 98.975,12.035 98.954,11.817 98.894,11.213 98.860,11.127 98.654,11.076 98.458,11.027 98.416,10.943 98.391,10.550 98.360,10.084 98.358,10.082 97.859,9.924 97.359,9.767 97.359,9.767 97.359,9.767 97.309,8.695 97.309,8.695 97.309,8.695 97.279,8.050 97.210,7.575 97.137,7.501 97.113,7.477 97.081,7.464 97.035,7.463 Z M 96.907,7.814 C 97.004,8.406 97.003,9.004 97.036,9.603 97.035,9.748 97.039,9.923 97.168,10.017 97.226,10.046 97.287,10.070 97.348,10.091 97.348,15.308 97.348,15.308 97.348,15.308 97.287,15.330 97.226,15.354 97.168,15.383 97.039,15.477 97.035,15.652 97.036,15.797 97.003,16.395 97.004,16.994 96.907,17.585 96.894,17.580 96.880,17.575 96.866,17.570 96.560,17.452 96.274,17.289 95.975,17.153 95.575,16.962 95.164,16.785 94.734,16.669 94.663,16.613 94.636,16.511 94.547,16.475 94.535,16.467 94.523,16.463 94.511,16.457 94.511,8.942 94.511,8.942 94.511,8.942 94.523,8.937 94.535,8.932 94.547,8.925 94.636,8.889 94.663,8.787 94.734,8.731 95.164,8.615 95.575,8.438 95.975,8.246 96.274,8.111 96.560,7.948 96.866,7.829 96.880,7.824 96.894,7.819 96.907,7.814 Z M 84.598,8.528 C 84.822,8.526 85.046,8.535 85.269,8.556 85.371,8.576 85.485,8.564 85.568,8.628 85.600,8.825 85.553,9.032 85.604,9.229 85.966,9.230 86.328,9.226 86.690,9.228 87.317,9.228 87.946,9.238 88.573,9.197 88.672,9.187 88.776,9.166 88.869,9.125 88.869,16.274 88.869,16.274 88.869,16.274 88.776,16.234 88.672,16.213 88.573,16.203 87.946,16.161 87.317,16.171 86.690,16.172 86.328,16.174 85.966,16.170 85.604,16.171 85.553,16.368 85.600,16.575 85.568,16.772 85.485,16.836 85.371,16.824 85.269,16.844 84.823,16.886 84.372,16.878 83.928,16.836 83.856,16.824 83.765,16.819 83.709,16.765 83.687,16.664 83.713,16.560 83.702,16.458 83.702,16.125 83.702,16.125 83.702,16.125 82.653,16.185 81.599,16.179 80.557,16.324 80.428,16.345 80.309,16.400 80.195,16.460 80.165,16.464 80.115,16.480 80.096,16.458 80.049,16.127 80.129,15.773 80.040,15.442 80.040,9.958 80.040,9.958 80.040,9.958 80.129,9.627 80.049,9.273 80.096,8.942 80.115,8.920 80.165,8.936 80.195,8.940 80.309,8.999 80.428,9.055 80.557,9.076 81.599,9.220 82.653,9.215 83.702,9.275 83.702,8.941 83.702,8.941 83.702,8.941 83.713,8.839 83.687,8.736 83.709,8.635 83.765,8.581 83.856,8.576 83.928,8.563 84.150,8.542 84.374,8.530 84.598,8.528 Z M 93.955,8.753 C 94.001,8.745 94.040,8.770 94.065,8.808 94.108,8.878 94.179,8.925 94.255,8.950 94.255,16.449 94.255,16.449 94.255,16.449 94.179,16.475 94.108,16.521 94.065,16.592 94.040,16.630 94.001,16.655 93.955,16.647 93.641,16.660 93.331,16.604 93.018,16.583 92.545,16.536 92.062,16.495 91.609,16.364 91.571,16.341 91.576,16.284 91.542,16.254 91.500,16.196 91.437,16.159 91.370,16.139 91.370,9.261 91.370,9.261 91.370,9.261 91.437,9.241 91.500,9.204 91.542,9.146 91.576,9.115 91.571,9.058 91.609,9.036 92.062,8.905 92.545,8.863 93.018,8.817 93.331,8.795 93.641,8.740 93.955,8.753 Z M 90.480,8.842 C 90.593,8.851 90.714,8.841 90.821,8.887 90.919,8.992 90.964,9.149 91.095,9.225 91.101,9.229 91.108,9.232 91.114,9.235 91.114,16.164 91.114,16.164 91.114,16.164 91.108,16.168 91.101,16.171 91.095,16.175 90.964,16.251 90.919,16.407 90.821,16.513 90.714,16.559 90.593,16.549 90.480,16.558 90.360,16.564 90.237,16.551 90.131,16.493 90.065,16.471 89.999,16.458 89.931,16.450 89.931,8.950 89.931,8.950 89.931,8.950 89.999,8.942 90.065,8.929 90.131,8.907 90.237,8.849 90.360,8.835 90.480,8.842 Z M 89.244,8.937 C 89.295,8.938 89.346,8.942 89.397,8.945 89.489,8.950 89.582,8.954 89.676,8.957 89.676,16.443 89.676,16.443 89.676,16.443 89.582,16.446 89.489,16.450 89.397,16.455 89.307,16.461 89.215,16.465 89.125,16.460 89.125,16.460 89.125,16.456 89.125,16.451 89.125,8.939 89.125,8.939 89.125,8.939 89.165,8.937 89.204,8.936 89.244,8.937 Z M 74.377,9.047 C 74.418,9.047 74.459,9.062 74.492,9.087 74.508,9.101 74.526,9.114 74.542,9.128 74.542,16.272 74.542,16.272 74.542,16.272 74.526,16.286 74.508,16.299 74.492,16.313 74.426,16.363 74.327,16.371 74.266,16.309 74.143,16.224 74.025,16.116 73.886,16.056 73.886,9.344 73.886,9.344 73.886,9.344 74.025,9.284 74.143,9.176 74.266,9.090 74.296,9.059 74.336,9.046 74.377,9.047 Z M 63.846,9.064 C 63.906,9.063 63.964,9.076 64.013,9.111 64.030,9.147 64.052,9.179 64.078,9.209 64.078,16.154 64.078,16.154 64.078,16.154 64.078,16.159 64.078,16.163 64.078,16.163 64.106,16.163 64.106,16.163 64.106,16.163 64.069,16.200 64.036,16.241 64.013,16.289 63.915,16.359 63.780,16.339 63.672,16.304 63.604,16.279 63.582,16.209 63.558,16.148 63.520,16.069 63.468,15.999 63.406,15.939 63.421,15.939 63.421,15.939 63.421,15.939 63.421,15.939 63.422,15.935 63.422,15.931 63.422,9.445 63.422,9.445 63.422,9.445 63.476,9.389 63.523,9.324 63.558,9.252 63.582,9.191 63.604,9.121 63.672,9.096 63.726,9.078 63.787,9.065 63.846,9.064 Z M 19.203,9.101 C 20.101,9.099 20.999,9.101 21.896,9.108 22.436,9.117 22.978,9.112 23.514,9.154 23.442,9.352 23.350,9.538 23.245,9.719 23.072,10.059 22.808,10.328 22.541,10.597 22.386,10.695 22.419,10.967 22.595,11.022 22.710,11.037 22.828,11.029 22.944,11.031 22.944,14.369 22.944,14.369 22.944,14.369 22.828,14.371 22.710,14.363 22.595,14.378 22.419,14.433 22.386,14.704 22.541,14.803 22.808,15.072 23.072,15.341 23.245,15.680 23.350,15.862 23.442,16.047 23.514,16.246 22.978,16.287 22.436,16.283 21.896,16.292 20.101,16.307 18.305,16.296 16.509,16.294 12.935,16.285 9.361,16.272 5.787,16.242 4.477,16.231 3.167,16.214 1.858,16.186 1.926,15.864 2.097,15.567 2.342,15.347 2.739,14.949 3.209,14.637 3.655,14.298 3.759,14.288 3.864,14.299 3.969,14.294 6.193,14.288 8.417,14.310 10.640,14.251 10.843,14.241 11.050,14.245 11.248,14.198 11.429,14.125 11.504,13.919 11.514,13.738 11.530,13.598 11.538,13.459 11.542,13.319 18.936,13.319 18.936,13.319 18.936,13.319 18.943,13.319 18.948,13.318 18.948,13.317 18.948,11.873 18.948,11.873 18.948,11.873 18.948,11.872 18.943,11.871 18.936,11.871 11.532,11.871 11.532,11.871 11.532,11.871 11.528,11.802 11.522,11.732 11.514,11.662 11.504,11.481 11.429,11.274 11.248,11.202 11.050,11.155 10.843,11.159 10.640,11.148 8.417,11.090 6.193,11.112 3.969,11.106 3.864,11.100 3.759,11.112 3.655,11.102 3.209,10.763 2.739,10.451 2.342,10.053 2.097,9.833 1.926,9.535 1.858,9.214 3.167,9.186 4.477,9.169 5.787,9.158 9.361,9.127 12.935,9.115 16.509,9.106 17.407,9.105 18.305,9.102 19.203,9.101 Z M 81.427,9.283 C 81.422,9.283 81.417,9.287 81.417,9.292 81.417,16.080 81.417,16.080 81.417,16.080 81.417,16.085 81.422,16.089 81.427,16.089 87.752,16.089 87.752,16.089 87.752,16.089 87.757,16.089 87.761,16.085 87.761,16.080 87.761,9.292 87.761,9.292 87.761,9.292 87.761,9.287 87.757,9.283 87.752,9.283 Z M 70.783,9.317 C 71.463,9.318 72.142,9.328 72.821,9.355 73.092,9.347 73.361,9.418 73.631,9.394 73.631,16.005 73.631,16.005 73.631,16.005 73.361,15.982 73.092,16.053 72.821,16.045 71.463,16.098 70.103,16.085 68.745,16.070 67.544,16.053 66.345,16.007 65.145,15.983 64.876,15.982 64.604,15.980 64.339,16.028 64.337,16.028 64.335,16.030 64.333,16.030 64.333,9.370 64.333,9.370 64.333,9.370 64.335,9.370 64.337,9.371 64.339,9.372 64.604,9.420 64.876,9.418 65.145,9.417 66.345,9.393 67.544,9.347 68.745,9.329 69.424,9.322 70.104,9.315 70.783,9.317 Z M 81.462,9.328 C 87.717,9.328 87.717,9.328 87.717,9.328 87.717,16.045 87.717,16.045 87.717,16.045 81.462,16.045 81.462,16.045 81.462,16.045 Z M 74.798,9.330 C 75.377,9.763 76.021,10.102 76.644,10.468 76.644,14.932 76.644,14.932 76.644,14.932 76.021,15.298 75.377,15.637 74.798,16.070 Z M 33.672,9.433 C 34.106,9.434 34.540,9.440 34.973,9.444 35.460,9.452 35.947,9.456 36.434,9.461 36.434,12.017 36.434,12.017 36.434,12.017 34.960,12.017 34.960,12.017 34.960,12.017 34.957,12.017 34.954,12.018 34.954,12.019 34.954,13.334 34.954,13.334 34.954,13.334 34.954,13.335 34.957,13.336 34.960,13.336 36.434,13.336 36.434,13.336 36.434,13.336 36.434,15.939 36.434,15.939 36.434,15.939 35.947,15.944 35.460,15.948 34.973,15.955 34.106,15.964 33.238,15.978 32.371,15.949 32.323,15.941 32.260,15.950 32.222,15.926 32.169,15.794 32.060,15.699 31.933,15.640 31.933,13.861 31.933,13.861 31.933,13.861 31.933,13.537 31.734,13.276 31.487,13.276 31.240,13.276 31.041,13.537 31.041,13.861 31.041,15.658 31.041,15.658 31.041,15.658 31.015,15.671 30.987,15.680 30.962,15.696 30.881,15.759 30.829,15.856 30.803,15.951 30.759,15.944 30.699,15.936 30.695,15.881 30.654,15.766 30.562,15.687 30.455,15.635 30.455,13.861 30.455,13.861 30.455,13.861 30.455,13.537 30.256,13.276 30.009,13.276 29.762,13.276 29.563,13.537 29.563,13.861 29.563,15.728 29.563,15.728 29.563,15.728 29.485,15.780 29.414,15.843 29.358,15.922 29.286,15.989 29.178,15.953 29.091,15.945 28.945,15.917 28.804,15.876 28.664,15.829 28.664,9.571 28.664,9.571 28.664,9.571 28.804,9.524 28.945,9.483 29.091,9.455 29.178,9.447 29.286,9.411 29.358,9.478 29.408,9.547 29.468,9.606 29.535,9.655 29.535,11.602 29.535,11.602 29.535,11.602 29.535,11.926 29.734,12.187 29.981,12.187 30.228,12.187 30.427,11.926 30.427,11.602 30.427,9.777 30.427,9.777 30.427,9.777 30.546,9.726 30.651,9.643 30.695,9.519 30.699,9.463 30.759,9.456 30.803,9.449 30.829,9.544 30.881,9.641 30.962,9.703 30.978,9.714 30.996,9.719 31.013,9.728 31.013,11.602 31.013,11.602 31.013,11.602 31.013,11.926 31.212,12.187 31.459,12.187 31.706,12.187 31.905,11.926 31.905,11.602 31.905,9.771 31.905,9.771 31.905,9.771 32.044,9.715 32.165,9.616 32.222,9.474 32.260,9.450 32.323,9.459 32.371,9.450 32.805,9.436 33.238,9.432 33.672,9.433 Z M 36.689,9.463 C 36.993,9.467 37.296,9.472 37.599,9.477 37.599,12.017 37.599,12.017 37.599,12.017 36.689,12.017 36.689,12.017 36.689,12.017 Z M 37.630,9.478 C 37.697,9.479 37.764,9.480 37.831,9.481 37.831,12.017 37.831,12.017 37.831,12.017 37.630,12.017 37.630,12.017 37.630,12.017 Z M 37.862,9.482 C 37.920,9.483 37.978,9.484 38.035,9.485 38.035,12.017 38.035,12.017 38.035,12.017 37.862,12.017 37.862,12.017 37.862,12.017 Z M 38.066,9.486 C 38.133,9.487 38.200,9.491 38.267,9.492 38.267,12.017 38.267,12.017 38.267,12.017 38.066,12.017 38.066,12.017 38.066,12.017 Z M 84.627,9.490 C 83.705,9.490 82.782,9.490 81.860,9.490 81.835,9.489 81.810,9.510 81.808,9.535 81.806,11.599 81.807,13.663 81.807,15.727 81.814,15.778 81.782,15.865 81.851,15.881 83.662,15.883 85.473,15.881 87.284,15.882 87.335,15.875 87.422,15.907 87.438,15.838 87.440,13.773 87.438,11.709 87.439,9.645 87.432,9.594 87.464,9.507 87.394,9.491 86.472,9.490 85.550,9.490 84.627,9.490 Z M 38.298,9.493 C 38.365,9.495 38.432,9.498 38.499,9.500 38.499,12.017 38.499,12.017 38.499,12.017 38.298,12.017 38.298,12.017 38.298,12.017 Z M 38.530,9.501 C 38.588,9.503 38.646,9.505 38.703,9.507 38.703,12.017 38.703,12.017 38.703,12.017 38.530,12.017 38.530,12.017 38.530,12.017 Z M 38.734,9.508 C 38.801,9.510 38.868,9.512 38.935,9.515 38.935,12.017 38.935,12.017 38.935,12.017 38.734,12.017 38.734,12.017 38.734,12.017 Z M 38.966,9.516 C 39.007,9.517 39.048,9.518 39.088,9.520 39.302,9.536 39.520,9.530 39.727,9.590 39.825,9.634 39.926,9.675 40.030,9.705 40.030,15.695 40.030,15.695 40.030,15.695 39.926,15.725 39.825,15.766 39.727,15.810 39.520,15.870 39.302,15.864 39.088,15.880 39.048,15.882 39.007,15.882 38.966,15.884 Z M 81.860,9.535 C 87.385,9.535 87.385,9.535 87.385,9.535 87.390,9.535 87.394,9.539 87.394,9.543 87.394,15.829 87.394,15.829 87.394,15.829 87.394,15.833 87.390,15.837 87.385,15.837 81.860,15.837 81.860,15.837 81.860,15.837 81.855,15.837 81.852,15.833 81.852,15.829 81.852,9.543 81.852,9.543 81.852,9.543 81.852,9.539 81.855,9.535 81.860,9.535 Z M 63.166,9.626 C 63.166,15.774 63.166,15.774 63.166,15.774 63.036,15.710 62.891,15.673 62.749,15.665 61.986,15.596 61.220,15.595 60.455,15.580 58.753,15.554 57.050,15.579 55.349,15.643 55.032,15.649 54.713,15.661 54.397,15.634 54.250,15.596 54.099,15.583 53.947,15.582 53.165,15.552 52.382,15.552 51.600,15.545 49.204,15.532 46.809,15.543 44.413,15.555 43.306,15.565 42.198,15.563 41.092,15.597 40.823,15.607 40.553,15.621 40.286,15.651 40.286,9.749 40.286,9.749 40.286,9.749 40.553,9.779 40.823,9.792 41.092,9.803 42.198,9.836 43.306,9.835 44.413,9.845 46.809,9.857 49.204,9.868 51.600,9.855 52.382,9.848 53.165,9.848 53.947,9.818 54.099,9.817 54.250,9.804 54.397,9.765 54.713,9.738 55.032,9.751 55.349,9.757 57.050,9.821 58.753,9.846 60.455,9.820 61.220,9.804 61.986,9.804 62.749,9.735 62.891,9.727 63.036,9.689 63.166,9.626 Z M 28.408,9.666 C 28.408,15.734 28.408,15.734 28.408,15.734 27.982,15.568 27.566,15.371 27.111,15.302 26.906,15.274 26.700,15.266 26.493,15.264 26.493,10.136 26.493,10.136 26.493,10.136 26.700,10.134 26.906,10.126 27.111,10.098 27.566,10.029 27.982,9.831 28.408,9.666 Z M 82.236,9.874 C 82.236,9.874 82.235,9.875 82.235,9.876 82.235,11.191 82.235,11.191 82.235,11.191 82.235,11.192 82.236,11.193 82.236,11.193 82.465,11.193 82.465,11.193 82.465,11.193 82.465,11.193 82.465,11.192 82.465,11.191 82.465,9.876 82.465,9.876 82.465,9.876 82.465,9.875 82.465,9.874 82.465,9.874 Z M 82.594,9.874 C 82.594,9.874 82.594,9.875 82.594,9.876 82.594,11.191 82.594,11.191 82.594,11.191 82.594,11.192 82.594,11.193 82.594,11.193 82.823,11.193 82.823,11.193 82.823,11.193 82.824,11.193 82.824,11.192 82.824,11.191 82.824,9.876 82.824,9.876 82.824,9.876 82.824,9.875 82.824,9.874 82.823,9.874 Z M 82.952,9.874 C 82.952,9.874 82.952,9.875 82.952,9.876 82.952,11.191 82.952,11.191 82.952,11.191 82.952,11.192 82.952,11.193 82.952,11.193 83.182,11.193 83.182,11.193 83.182,11.193 83.182,11.193 83.182,11.192 83.182,11.191 83.182,9.876 83.182,9.876 83.182,9.876 83.182,9.875 83.182,9.874 83.182,9.874 Z M 83.311,9.874 C 83.311,9.874 83.310,9.875 83.310,9.876 83.310,11.191 83.310,11.191 83.310,11.191 83.310,11.192 83.311,11.193 83.311,11.193 83.540,11.193 83.540,11.193 83.540,11.193 83.540,11.193 83.540,11.192 83.540,11.191 83.540,9.876 83.540,9.876 83.540,9.876 83.540,9.875 83.540,9.874 83.540,9.874 Z M 83.714,9.874 C 83.714,9.874 83.714,9.875 83.714,9.876 83.714,11.191 83.714,11.191 83.714,11.191 83.714,11.192 83.714,11.193 83.714,11.193 83.943,11.193 83.943,11.193 83.943,11.193 83.943,11.193 83.944,11.192 83.944,11.191 83.944,9.876 83.944,9.876 83.944,9.876 83.944,9.875 83.943,9.874 83.943,9.874 Z M 84.072,9.874 C 84.072,9.874 84.072,9.875 84.072,9.876 84.072,11.191 84.072,11.191 84.072,11.191 84.072,11.192 84.072,11.193 84.072,11.193 84.301,11.193 84.301,11.193 84.301,11.193 84.302,11.193 84.302,11.192 84.302,11.191 84.302,9.876 84.302,9.876 84.302,9.876 84.302,9.875 84.302,9.874 84.301,9.874 Z M 84.431,9.874 C 84.430,9.874 84.430,9.875 84.430,9.876 84.430,11.191 84.430,11.191 84.430,11.191 84.430,11.192 84.430,11.193 84.431,11.193 84.660,11.193 84.660,11.193 84.660,11.193 84.660,11.193 84.660,11.192 84.660,11.191 84.660,9.876 84.660,9.876 84.660,9.876 84.660,9.875 84.660,9.874 84.660,9.874 Z M 84.789,9.874 C 84.789,9.874 84.788,9.875 84.788,9.876 84.788,11.191 84.788,11.191 84.788,11.191 84.788,11.192 84.789,11.193 84.789,11.193 85.018,11.193 85.018,11.193 85.018,11.193 85.018,11.193 85.018,11.192 85.018,11.191 85.018,9.876 85.018,9.876 85.018,9.876 85.018,9.875 85.018,9.874 85.018,9.874 Z M 25.745,10.133 C 25.909,10.132 26.073,10.135 26.238,10.136 26.238,15.264 26.238,15.264 26.238,15.264 26.073,15.265 25.909,15.268 25.745,15.266 25.356,15.269 24.962,15.278 24.581,15.221 24.461,15.195 24.317,15.129 24.302,14.991 24.281,14.898 24.238,14.812 24.181,14.737 24.181,10.663 24.181,10.663 24.181,10.663 24.238,10.588 24.281,10.502 24.302,10.409 24.317,10.271 24.461,10.205 24.581,10.179 24.962,10.122 25.356,10.131 25.745,10.133 Z M 97.604,10.173 C 97.657,10.189 97.711,10.204 97.764,10.222 97.857,10.260 97.958,10.281 98.049,10.325 98.092,10.518 98.072,10.719 98.119,10.912 98.134,10.988 98.167,11.058 98.208,11.123 98.208,14.276 98.208,14.276 98.208,14.276 98.167,14.341 98.134,14.412 98.119,14.488 98.072,14.681 98.092,14.882 98.049,15.075 97.958,15.119 97.857,15.139 97.764,15.178 97.711,15.196 97.657,15.211 97.604,15.227 Z M 79.784,10.299 C 79.784,15.101 79.784,15.101 79.784,15.101 79.687,15.038 79.573,14.998 79.459,14.985 79.051,14.914 78.634,14.947 78.222,14.935 77.781,14.933 77.340,14.932 76.899,14.932 76.899,10.468 76.899,10.468 76.899,10.468 77.340,10.467 77.781,10.467 78.222,10.465 78.634,10.452 79.051,10.486 79.459,10.414 79.573,10.402 79.687,10.362 79.784,10.299 Z M 23.925,10.872 C 23.925,14.528 23.925,14.528 23.925,14.528 23.703,14.406 23.451,14.376 23.199,14.371 23.199,11.029 23.199,11.029 23.199,11.029 23.451,11.023 23.703,10.994 23.925,10.872 Z M 98.464,11.342 C 98.471,11.345 98.477,11.350 98.485,11.353 98.519,11.374 98.585,11.356 98.584,11.414 98.657,11.853 98.673,12.297 98.661,12.742 98.662,12.742 98.662,12.742 98.662,12.742 98.670,13.158 98.653,13.574 98.584,13.986 98.585,14.044 98.519,14.026 98.485,14.047 98.477,14.049 98.471,14.055 98.464,14.058 Z M 36.689,13.336 C 37.599,13.336 37.599,13.336 37.599,13.336 37.599,15.923 37.599,15.923 37.599,15.923 37.296,15.928 36.993,15.933 36.689,15.936 Z M 37.630,13.336 C 37.831,13.336 37.831,13.336 37.831,13.336 37.831,15.918 37.831,15.918 37.831,15.918 37.764,15.920 37.697,15.921 37.630,15.922 Z M 37.862,13.336 C 38.035,13.336 38.035,13.336 38.035,13.336 38.035,15.915 38.035,15.915 38.035,15.915 37.978,15.916 37.920,15.917 37.862,15.918 Z M 38.066,13.336 C 38.267,13.336 38.267,13.336 38.267,13.336 38.267,15.907 38.267,15.907 38.267,15.907 38.200,15.909 38.133,15.912 38.066,15.914 Z M 38.298,13.336 C 38.499,13.336 38.499,13.336 38.499,13.336 38.499,15.900 38.499,15.900 38.499,15.900 38.432,15.902 38.365,15.904 38.298,15.906 Z M 38.530,13.336 C 38.703,13.336 38.703,13.336 38.703,13.336 38.703,15.893 38.703,15.893 38.703,15.893 38.646,15.895 38.588,15.897 38.530,15.899 Z M 38.734,13.336 C 38.935,13.336 38.935,13.336 38.935,13.336 38.935,15.885 38.935,15.885 38.935,15.885 38.868,15.888 38.801,15.889 38.734,15.892 Z M 82.236,13.905 C 82.236,13.905 82.235,13.906 82.235,13.907 82.235,15.222 82.235,15.222 82.235,15.222 82.235,15.223 82.236,15.224 82.236,15.224 82.465,15.224 82.465,15.224 82.465,15.224 82.465,15.224 82.465,15.223 82.465,15.222 82.465,13.907 82.465,13.907 82.465,13.907 82.465,13.906 82.465,13.905 82.465,13.905 Z M 82.594,13.905 C 82.594,13.905 82.594,13.906 82.594,13.907 82.594,15.222 82.594,15.222 82.594,15.222 82.594,15.223 82.594,15.224 82.594,15.224 82.823,15.224 82.823,15.224 82.823,15.224 82.824,15.224 82.824,15.223 82.824,15.222 82.824,13.907 82.824,13.907 82.824,13.907 82.824,13.906 82.824,13.905 82.823,13.905 Z M 82.952,13.905 C 82.952,13.905 82.952,13.906 82.952,13.907 82.952,15.222 82.952,15.222 82.952,15.222 82.952,15.223 82.952,15.224 82.952,15.224 83.182,15.224 83.182,15.224 83.182,15.224 83.182,15.224 83.182,15.223 83.182,15.222 83.182,13.907 83.182,13.907 83.182,13.907 83.182,13.906 83.182,13.905 83.182,13.905 Z M 83.311,13.905 C 83.311,13.905 83.310,13.906 83.310,13.907 83.310,15.222 83.310,15.222 83.310,15.222 83.310,15.223 83.311,15.224 83.311,15.224 83.540,15.224 83.540,15.224 83.540,15.224 83.540,15.224 83.540,15.223 83.540,15.222 83.540,13.907 83.540,13.907 83.540,13.907 83.540,13.906 83.540,13.905 83.540,13.905 Z M 83.714,13.905 C 83.714,13.905 83.714,13.906 83.714,13.907 83.714,15.222 83.714,15.222 83.714,15.222 83.714,15.223 83.714,15.224 83.714,15.224 83.943,15.224 83.943,15.224 83.943,15.224 83.943,15.224 83.944,15.223 83.944,15.222 83.944,13.907 83.944,13.907 83.944,13.907 83.944,13.906 83.943,13.905 83.943,13.905 Z M 84.072,13.905 C 84.072,13.905 84.072,13.906 84.072,13.907 84.072,15.222 84.072,15.222 84.072,15.222 84.072,15.223 84.072,15.224 84.072,15.224 84.301,15.224 84.301,15.224 84.301,15.224 84.302,15.224 84.302,15.223 84.302,15.222 84.302,13.907 84.302,13.907 84.302,13.907 84.302,13.906 84.302,13.905 84.301,13.905 Z M 84.431,13.905 C 84.430,13.905 84.430,13.906 84.430,13.907 84.430,15.222 84.430,15.222 84.430,15.222 84.430,15.223 84.430,15.224 84.431,15.224 84.660,15.224 84.660,15.224 84.660,15.224 84.660,15.224 84.660,15.223 84.660,15.222 84.660,13.907 84.660,13.907 84.660,13.907 84.660,13.906 84.660,13.905 84.660,13.905 Z M 84.789,13.905 C 84.789,13.905 84.788,13.906 84.788,13.907 84.788,15.222 84.788,15.222 84.788,15.222 84.788,15.223 84.789,15.224 84.789,15.224 85.018,15.224 85.018,15.224 85.018,15.224 85.018,15.224 85.018,15.223 85.018,15.222 85.018,13.907 85.018,13.907 85.018,13.907 85.018,13.906 85.018,13.905 85.018,13.905 Z " />
</svg>