<?xml version="1.0" encoding="UTF-8" standalone="no"?>
<!DOCTYPE svg PUBLIC "-//W3C//DTD SVG 20010904//EN" "http://www.w3.org/TR/2001/REC-SVG-20010904/DTD/svg10.dtd"[]>
<svg version="1.1" id="Frosty Editor v1.0.6.3" xmlns="http://www.w3.org/2000/svg" d1p1:xlink="http://www.w3.org/1999/xlink" viewBox="0 0 25 25" xmlns:d1p1="xmlns">
  <path stroke="none" fill="#ffffffff" d="M 16.325,1.806 C 15.919,1.816 15.573,2.060 15.414,2.408 17.291,2.408 17.291,2.408 17.291,2.408 17.128,2.052 16.770,1.806 16.352,1.806 16.343,1.806 16.334,1.806 16.325,1.806 Z M 7.469,2.638 C 7.436,2.647 7.414,2.657 7.389,2.670 7.382,2.674 7.371,2.682 7.364,2.687 6.940,15.541 6.940,15.541 6.940,15.541 6.939,15.986 6.939,15.986 6.939,15.986 3.876,15.978 3.876,15.978 3.876,15.978 3.846,16.025 3.817,16.082 3.783,16.152 3.615,16.495 3.552,16.717 3.434,17.377 3.323,18.001 3.325,17.945 3.399,18.020 3.445,18.065 3.541,18.079 3.798,18.079 4.137,18.079 4.137,18.079 4.137,18.079 4.238,18.277 4.238,18.277 4.238,18.277 4.293,18.387 4.391,18.525 4.456,18.585 4.567,18.689 4.569,18.698 4.503,18.747 4.455,18.782 4.405,18.931 4.341,19.227 4.290,19.464 4.241,19.687 4.231,19.724 4.183,19.915 4.142,20.095 4.124,20.189 4.121,20.210 4.107,20.245 4.094,20.265 4.050,20.341 3.944,20.893 3.967,20.930 3.980,20.952 3.976,20.969 3.957,20.969 3.909,20.969 3.834,21.320 3.834,21.544 3.834,21.648 3.859,21.782 3.890,21.842 4.136,22.318 6.211,22.208 6.613,21.698 6.683,21.609 6.691,21.562 6.674,21.311 6.663,21.155 6.636,20.953 6.613,20.864 6.590,20.775 6.557,20.638 6.539,20.560 6.521,20.482 6.468,20.281 6.421,20.113 6.374,19.946 6.322,19.750 6.305,19.676 6.287,19.603 6.253,19.475 6.230,19.391 6.206,19.307 6.173,19.174 6.156,19.093 6.139,19.013 6.105,18.928 6.082,18.905 6.059,18.881 6.040,18.815 6.040,18.756 6.040,18.660 6.052,18.650 6.170,18.650 6.242,18.650 6.312,18.632 6.325,18.611 6.355,18.563 6.589,18.563 6.766,18.612 6.903,18.650 6.903,18.650 6.903,18.650 6.904,18.670 6.904,18.670 6.904,18.670 7.225,18.733 7.225,18.733 7.225,18.733 18.353,18.733 18.353,18.733 18.353,18.733 18.598,18.685 18.598,18.685 18.598,18.685 18.600,18.659 18.600,18.659 18.600,18.659 18.878,18.572 18.878,18.572 18.878,18.572 19.149,18.487 19.159,18.486 19.304,18.552 19.389,18.590 19.493,18.610 19.544,18.597 19.593,18.584 19.612,18.584 19.585,18.596 19.559,18.608 19.547,18.633 19.559,18.653 19.571,18.672 19.561,18.687 19.538,18.687 19.515,18.687 19.506,18.705 19.519,18.725 19.532,18.746 19.523,18.764 19.500,18.764 19.476,18.764 19.462,18.793 19.468,18.830 19.474,18.866 19.469,18.914 19.456,18.935 19.443,18.956 19.380,19.169 19.316,19.410 18.767,21.477 18.762,21.567 19.191,21.784 19.563,21.972 19.961,22.049 20.584,22.051 21.105,22.053 21.175,22.044 21.397,21.957 21.594,21.880 21.650,21.839 21.692,21.740 21.777,21.540 21.757,21.363 21.573,20.646 21.490,20.320 21.336,19.644 21.244,19.201 21.201,18.992 21.138,18.774 21.105,18.718 21.047,18.619 21.049,18.611 21.149,18.518 21.207,18.464 21.297,18.327 21.349,18.212 21.445,18.003 21.445,18.003 21.445,18.003 21.825,18.003 21.825,18.003 21.825,18.003 22.034,18.003 22.240,17.984 22.282,17.961 22.379,17.910 22.366,17.777 22.202,17.107 22.023,16.376 21.761,15.887 21.490,15.774 21.394,15.734 21.108,15.722 20.243,15.722 19.120,15.722 19.120,15.722 19.120,15.722 19.120,15.568 19.120,15.568 19.120,15.568 19.120,15.431 19.133,15.409 19.234,15.374 19.301,15.350 19.327,15.333 19.338,15.269 18.749,3.020 18.749,3.020 18.749,3.020 18.653,2.932 18.653,2.932 18.653,2.932 18.445,2.742 18.340,2.670 18.072,2.638 Z M 5.822,3.444 C 5.815,3.444 5.812,3.446 5.805,3.446 5.607,9.486 5.607,9.486 5.607,9.486 5.078,9.469 5.078,9.469 5.078,9.469 5.077,9.486 5.077,9.486 5.077,9.486 4.820,9.486 4.820,9.486 4.820,9.486 4.554,9.486 4.500,9.511 4.387,9.691 4.349,9.751 4.330,10.088 4.310,11.026 4.292,11.887 4.271,12.285 4.242,12.295 4.219,12.304 4.160,12.350 4.112,12.398 4.035,12.475 4.024,12.523 4.024,12.791 4.024,13.085 4.028,13.099 4.137,13.180 4.251,13.263 4.251,13.263 4.251,13.263 4.227,14.319 4.227,14.319 4.227,14.319 4.205,15.266 4.209,15.384 4.266,15.471 4.275,15.484 4.285,15.496 4.294,15.508 6.352,15.513 6.352,15.513 6.352,15.513 6.748,3.504 6.748,3.504 6.748,3.504 6.729,3.501 6.729,3.501 6.729,3.501 6.653,3.490 6.390,3.469 6.144,3.456 6.005,3.448 5.900,3.442 5.822,3.444 Z M 12.904,3.919 C 14.237,3.919 15.516,4.449 16.459,5.391 17.401,6.334 17.930,7.613 17.930,8.946 17.930,10.978 16.706,12.812 14.828,13.589 12.949,14.367 10.787,13.937 9.350,12.499 7.912,11.062 7.482,8.900 8.261,7.022 9.038,5.144 10.871,3.919 12.904,3.919 Z M 12.904,4.712 C 11.192,4.712 9.648,5.744 8.993,7.326 8.337,8.908 8.700,10.729 9.911,11.939 11.121,13.150 12.942,13.512 14.524,12.857 16.106,12.201 17.138,10.658 17.138,8.946 17.138,7.823 16.692,6.746 15.898,5.952 15.104,5.158 14.027,4.712 12.904,4.712 Z M 12.836,6.631 C 13.740,7.865 14.645,9.100 15.550,10.335 14.312,10.335 14.312,10.335 14.312,10.335 10.121,10.335 10.121,10.335 10.121,10.335 11.026,9.100 11.931,7.865 12.836,6.631 Z M 9.829,14.568 C 15.891,14.568 15.891,14.568 15.891,14.568 15.891,15.764 15.891,15.764 15.891,15.764 9.829,15.764 9.829,15.764 9.829,15.764 Z M 10.079,14.823 C 10.079,15.552 10.079,15.552 10.079,15.552 15.678,15.552 15.678,15.552 15.678,15.552 15.678,14.823 15.678,14.823 15.678,14.823 Z M 7.046,16.286 C 19.173,16.286 19.173,16.286 19.173,16.286 19.173,17.450 19.173,17.450 19.173,17.450 7.046,17.450 7.046,17.450 7.046,17.450 Z M 7.423,16.619 C 7.423,17.212 7.423,17.212 7.423,17.212 18.772,17.212 18.772,17.212 18.772,17.212 18.772,16.619 18.772,16.619 18.772,16.619 Z M 11.935,18.322 C 13.836,18.322 13.836,18.322 13.836,18.322 13.836,18.544 13.836,18.544 13.836,18.544 11.935,18.544 11.935,18.544 11.935,18.544 Z " />
</svg>