<?xml version="1.0" encoding="UTF-8" standalone="no"?>
<!DOCTYPE svg PUBLIC "-//W3C//DTD SVG 20010904//EN" "http://www.w3.org/TR/2001/REC-SVG-20010904/DTD/svg10.dtd"[]>
<svg version="1.1" id="Frosty Editor v1.0.6.3" xmlns="http://www.w3.org/2000/svg" d1p1:xlink="http://www.w3.org/1999/xlink" viewBox="0 0 96 96" xmlns:d1p1="xmlns">
  <path stroke="none" fill="none" d="M 43.400,52.600 C 42.800,52.000 42.700,51.100 43.100,50.400 43.400,49.800 45.100,49.600 45.100,49.600 45.100,49.600 44.200,50.500 44.300,51.400 44.400,52.300 45.900,53.500 45.900,53.500 44.900,53.500 44.100,53.200 43.400,52.600 43.400,52.600 43.400,52.600 43.400,52.600 43.400,52.600 43.400,52.600 43.400,52.600 Z M 46.700,48.600 C 46.067,48.600 45.433,48.600 44.800,48.600 43.200,48.600 41.900,49.900 41.900,51.500 41.900,51.500 41.900,51.500 41.900,51.500 41.900,52.800 43.000,53.900 44.300,53.900 45.233,53.900 46.167,53.900 47.100,53.900 48.400,53.900 49.500,52.800 49.500,51.500 49.600,49.900 48.300,48.600 46.700,48.600 46.700,48.600 46.700,48.600 46.700,48.600 46.700,48.600 46.700,48.600 46.700,48.600 Z " />
  <path stroke="none" fill="#ffffffff" d="M 83.800,32.800 C 84.500,32.800 85.200,32.800 85.900,32.800 85.900,36.100 85.900,39.400 85.900,42.700 85.200,42.700 84.500,42.700 83.800,42.700 83.800,39.400 83.800,36.100 83.800,32.800 Z " />
  <path stroke="none" fill="#ffffffff" d="M 79.100,32.300 C 65.700,32.300 52.300,32.300 38.900,32.300 37.000,32.300 35.300,33.400 34.500,35.100 33.900,34.767 33.300,34.433 32.700,34.100 32.100,33.700 31.300,34.000 30.900,34.600 30.867,34.633 30.833,34.667 30.800,34.700 30.400,35.300 30.700,36.100 31.300,36.500 32.200,37.000 33.100,37.500 34.000,38.000 34.000,39.000 34.000,40.000 34.000,41.000 40.967,41.000 47.933,41.000 54.900,41.000 54.800,40.600 54.700,40.100 54.700,39.700 54.700,37.100 56.800,35.000 59.400,35.000 63.933,35.000 68.467,35.000 73.000,35.000 75.600,35.000 77.700,37.100 77.700,39.700 77.700,39.700 77.700,39.700 77.700,39.700 77.700,40.133 77.700,40.567 77.700,41.000 79.133,41.000 80.567,41.000 82.000,41.000 82.000,36.733 82.000,32.467 82.000,28.200 81.033,28.200 80.067,28.200 79.100,28.200 79.100,29.567 79.100,30.933 79.100,32.300 79.100,32.300 79.100,32.300 79.100,32.300 Z " />
  <path stroke="none" fill="#ffffffff" d="M 47.200,53.900 C 46.267,53.900 45.333,53.900 44.400,53.900 43.100,53.900 42.000,52.800 42.000,51.500 42.000,49.900 43.300,48.600 44.900,48.600 44.900,48.600 44.900,48.600 44.900,48.600 45.533,48.600 46.167,48.600 46.800,48.600 48.400,48.600 49.700,49.900 49.700,51.500 49.700,51.500 49.700,51.500 49.700,51.500 49.600,52.800 48.500,53.900 47.200,53.900 47.200,53.900 47.200,53.900 47.200,53.900 Z M 55.500,43.200 C 48.567,43.200 41.633,43.200 34.700,43.200 34.700,43.533 34.700,43.867 34.700,44.200 34.700,44.700 35.000,45.200 35.500,45.500 35.900,45.733 36.300,45.967 36.700,46.200 37.800,46.800 38.100,48.200 37.500,49.200 37.500,49.300 37.400,49.300 37.400,49.400 36.400,50.767 35.400,52.133 34.400,53.500 36.467,54.833 38.533,56.167 40.600,57.500 40.967,56.633 41.333,55.767 41.700,54.900 42.000,54.100 41.300,53.700 42.100,54.100 42.567,54.300 43.033,54.500 43.500,54.700 45.000,54.700 46.500,54.700 48.000,54.700 49.600,54.700 50.900,53.400 50.900,51.800 50.900,51.067 50.900,50.333 50.900,49.600 50.900,48.300 51.900,47.300 53.200,47.300 53.200,47.300 53.200,47.300 53.200,47.300 54.600,47.300 56.000,47.300 57.400,47.300 57.400,46.533 57.400,45.767 57.400,45.000 56.700,44.600 56.000,44.000 55.500,43.200 55.500,43.200 55.500,43.200 55.500,43.200 Z " />
  <path stroke="none" fill="#ffffffff" d="M 44.200,51.400 C 44.100,50.500 45.000,49.600 45.000,49.600 45.000,49.600 43.300,49.800 43.000,50.400 42.600,51.100 42.700,52.000 43.300,52.600 44.000,53.200 44.900,53.500 45.800,53.500 45.800,53.500 44.300,52.400 44.200,51.400 44.200,51.400 44.200,51.400 44.200,51.400 Z " />
  <path stroke="none" fill="#ffffffff" d="M 32.900,55.800 C 32.900,56.033 32.900,56.267 32.900,56.500 30.600,56.500 28.300,56.500 26.000,56.500 26.000,56.067 26.000,55.633 26.000,55.200 24.200,55.200 22.400,55.200 20.600,55.200 20.233,55.567 19.867,55.933 19.500,56.300 18.033,56.300 16.567,56.300 15.100,56.300 14.700,56.300 14.300,56.700 14.300,57.100 14.267,59.267 14.233,61.433 14.200,63.600 14.033,65.167 13.867,66.733 13.700,68.300 13.600,69.300 14.300,70.200 15.300,70.300 15.500,70.300 15.600,70.300 15.800,70.300 21.033,68.467 26.267,66.633 31.500,64.800 33.533,64.800 35.567,64.800 37.600,64.800 37.800,64.533 38.000,64.267 38.200,64.000 38.100,63.567 38.000,63.133 37.900,62.700 38.400,61.767 38.900,60.833 39.400,59.900 37.233,58.533 35.067,57.167 32.900,55.800 32.900,55.800 32.900,55.800 32.900,55.800 Z " />
  <path stroke="none" fill="#ffffffff" d="M 75.700,39.700 C 75.700,38.200 74.500,37.000 73.000,37.000 68.467,37.000 63.933,37.000 59.400,37.000 57.900,37.000 56.700,38.300 56.700,39.700 56.700,41.200 58.000,42.300 59.400,42.300 60.533,42.300 61.667,42.300 62.800,42.300 62.800,42.600 62.800,42.900 62.800,43.200 64.433,43.200 66.067,43.200 67.700,43.200 67.767,43.233 67.833,43.267 67.900,43.300 67.967,43.333 68.033,43.367 68.100,43.400 69.500,44.800 70.900,46.200 72.300,47.600 72.033,48.067 71.767,48.533 71.500,49.000 71.867,49.933 72.233,50.867 72.600,51.800 73.667,51.800 74.733,51.800 75.800,51.800 75.800,48.867 75.800,45.933 75.800,43.000 75.800,42.667 75.800,42.333 75.800,42.000 75.767,41.233 75.733,40.467 75.700,39.700 75.700,39.700 75.700,39.700 75.700,39.700 Z " />
</svg>