<?xml version="1.0" encoding="UTF-8" standalone="no"?>
<!DOCTYPE svg PUBLIC "-//W3C//DTD SVG 20010904//EN" "http://www.w3.org/TR/2001/REC-SVG-20010904/DTD/svg10.dtd"[]>
<svg version="1.1" id="Frosty Editor v1.0.6.3" xmlns="http://www.w3.org/2000/svg" d1p1:xlink="http://www.w3.org/1999/xlink" viewBox="0 0 384 96" xmlns:d1p1="xmlns">
  <path stroke="none" fill="#ffffffff" d="M 106.420,85.292 C 105.059,85.292 103.698,86.367 103.698,88.014 103.698,89.661 104.988,90.734 106.420,90.734 107.852,90.734 109.142,89.661 109.142,88.014 109.142,86.295 107.780,85.292 106.420,85.292 Z M 108.478,79.631 C 107.689,79.631 107.116,80.203 107.044,80.992 107.044,81.708 107.689,82.355 108.478,82.355 109.266,82.355 109.839,81.708 109.839,80.992 109.839,80.275 109.266,79.631 108.478,79.631 Z M 108.405,78.842 C 109.624,78.842 110.626,79.846 110.626,81.064 110.626,82.067 109.839,83.214 108.405,83.214 107.115,83.214 106.255,81.995 106.255,80.992 106.255,79.988 107.044,78.842 108.405,78.842 Z M 231.123,57.473 C 231.123,61.063 231.123,61.063 231.123,61.063 242.478,61.063 242.478,61.063 242.478,61.063 242.481,59.865 242.486,58.670 242.489,57.473 Z M 228.361,54.937 C 228.361,61.052 228.361,61.052 228.361,61.052 230.001,61.052 230.001,61.052 230.001,61.052 230.001,56.351 230.001,56.351 230.001,56.351 243.600,56.351 243.600,56.351 243.600,56.351 243.600,61.063 243.600,61.063 243.600,61.063 245.172,61.063 245.172,61.063 245.172,61.063 245.180,59.020 245.186,56.979 245.194,54.937 Z M 278.604,52.009 C 278.604,62.051 278.604,62.051 278.604,62.051 280.767,62.051 280.767,62.051 280.767,62.051 280.767,58.257 280.767,58.257 280.767,58.257 280.775,56.173 280.781,54.093 280.789,52.009 Z M 276.061,52.009 C 276.061,62.051 276.061,62.051 276.061,62.051 277.466,62.051 277.466,62.051 277.466,62.051 277.466,52.009 277.466,52.009 277.466,52.009 Z M 273.629,52.009 C 273.629,62.051 273.629,62.051 273.629,62.051 274.924,62.051 274.924,62.051 274.924,62.051 274.924,52.009 274.924,52.009 274.924,52.009 Z M 271.213,52.009 C 271.213,62.051 271.213,62.051 271.213,62.051 272.491,62.051 272.491,62.051 272.491,62.051 272.491,52.009 272.491,52.009 272.491,52.009 Z M 268.879,52.009 C 268.879,62.051 268.879,62.051 268.879,62.051 270.078,62.051 270.078,62.051 270.078,62.051 270.078,52.009 270.078,52.009 270.078,52.009 Z M 266.550,52.009 C 266.550,62.051 266.550,62.051 266.550,62.051 267.742,62.051 267.742,62.051 267.742,62.051 267.742,52.009 267.742,52.009 267.742,52.009 Z M 264.290,52.009 C 264.290,62.051 264.290,62.051 264.290,62.051 265.412,62.051 265.412,62.051 265.412,62.051 265.412,52.009 265.412,52.009 265.412,52.009 Z M 261.921,52.009 C 261.921,62.051 261.921,62.051 261.921,62.051 263.152,62.051 263.152,62.051 263.152,62.051 263.152,52.009 263.152,52.009 263.152,52.009 Z M 259.584,52.009 C 259.584,62.051 259.584,62.051 259.584,62.051 260.783,62.051 260.783,62.051 260.783,62.051 260.783,52.009 260.783,52.009 260.783,52.009 Z M 257.222,52.009 C 257.222,62.051 257.222,62.051 257.222,62.051 258.449,62.051 258.449,62.051 258.449,62.051 258.449,52.009 258.449,52.009 258.449,52.009 Z M 254.837,52.009 C 254.837,62.051 254.837,62.051 254.837,62.051 256.084,62.051 256.084,62.051 256.084,62.051 256.084,52.009 256.084,52.009 256.084,52.009 Z M 252.588,52.009 C 252.588,58.124 252.588,58.124 252.588,58.124 252.588,62.051 252.588,62.051 252.588,62.051 253.700,62.051 253.700,62.051 253.700,62.051 253.700,52.009 253.700,52.009 253.700,52.009 Z M 135.780,51.180 C 135.135,51.180 134.561,51.682 134.561,52.399 134.561,53.044 135.135,53.617 135.780,53.617 136.425,53.617 136.998,53.044 136.998,52.399 136.998,51.754 136.496,51.180 135.780,51.180 Z M 135.887,50.499 C 136.505,50.492 137.124,50.787 137.500,51.325 137.858,51.898 138.074,52.543 138.289,53.188 138.432,53.761 138.073,54.335 137.428,54.406 136.856,54.406 136.856,54.406 136.856,54.406 136.426,54.335 135.996,54.334 135.637,54.262 134.777,54.119 134.131,53.403 134.059,52.544 133.988,51.755 134.490,50.967 135.278,50.608 135.475,50.537 135.681,50.501 135.887,50.499 Z M 174.226,49.883 C 172.569,51.485 172.569,51.485 172.569,51.485 155.862,51.485 155.862,51.485 155.862,51.485 155.861,51.514 155.857,51.542 155.851,51.606 155.848,51.640 155.845,51.676 155.840,51.711 155.824,51.851 155.784,51.988 155.776,52.129 155.772,52.177 155.772,52.194 155.772,52.204 155.564,53.110 155.216,53.929 154.790,54.707 174.419,54.707 174.419,54.707 174.419,54.707 176.052,53.129 176.052,53.129 176.052,53.129 180.683,53.129 180.683,53.129 180.683,53.129 180.683,49.883 180.683,49.883 180.683,49.883 Z M 147.808,46.339 C 147.808,46.339 147.808,46.339 147.808,46.339 147.593,46.339 147.449,46.410 147.306,46.554 146.375,47.628 145.805,48.845 145.805,50.205 145.804,52.138 146.591,53.642 148.095,54.788 148.166,54.859 148.380,54.932 148.452,55.075 148.380,55.218 148.311,55.289 148.240,55.432 148.096,55.647 148.023,55.646 147.808,55.575 145.373,55.002 143.299,52.785 143.227,49.778 143.155,48.918 143.368,48.128 143.654,47.340 143.726,47.197 143.798,47.126 143.727,46.983 143.654,46.983 143.654,46.983 143.654,46.983 143.082,47.270 142.582,47.555 142.081,47.985 141.938,48.128 141.793,48.272 141.721,48.487 141.578,48.845 141.436,49.276 141.364,49.705 141.293,50.708 141.364,51.709 141.579,52.640 141.865,53.786 142.439,54.716 143.370,55.432 144.372,56.148 145.517,56.651 146.734,56.866 147.163,56.937 147.665,57.007 148.095,56.936 148.739,56.864 149.456,56.723 150.100,56.508 151.103,56.222 151.963,55.577 152.608,54.718 153.252,53.858 153.681,52.783 153.896,51.709 154.182,50.205 153.752,48.846 152.678,47.700 151.819,47.056 151.819,47.056 151.819,47.056 151.604,46.912 151.388,46.840 151.102,46.768 150.028,46.554 148.882,46.411 147.808,46.339 Z M 176.918,45.475 C 176.598,45.475 176.344,45.729 176.344,46.049 176.344,46.370 176.598,46.624 176.918,46.624 177.238,46.624 177.492,46.370 177.492,46.049 177.492,45.729 177.238,45.475 176.918,45.475 Z M 165.872,45.475 C 165.552,45.475 165.297,45.729 165.297,46.049 165.297,46.370 165.552,46.624 165.872,46.624 166.192,46.624 166.446,46.370 166.446,46.049 166.446,45.729 166.192,45.475 165.872,45.475 Z M 176.918,44.914 C 177.541,44.914 178.053,45.426 178.053,46.049 178.053,46.673 177.541,47.185 176.918,47.185 176.295,47.185 175.783,46.673 175.783,46.049 175.783,45.426 176.295,44.914 176.918,44.914 Z M 165.872,44.914 C 166.495,44.914 167.007,45.426 167.007,46.049 167.007,46.673 166.495,47.185 165.872,47.185 165.248,47.185 164.736,46.673 164.736,46.049 164.736,45.426 165.248,44.914 165.872,44.914 Z M 163.222,44.143 C 163.222,44.143 163.222,44.143 163.222,44.143 163.223,44.144 163.223,44.146 163.224,44.147 163.219,44.150 163.212,44.153 163.208,44.156 163.207,44.154 163.205,44.153 163.204,44.152 163.209,44.148 163.217,44.146 163.222,44.143 Z M 167.640,44.086 C 167.697,44.086 167.697,44.086 167.697,44.086 167.691,44.086 167.685,44.087 167.678,44.088 167.665,44.087 167.653,44.087 167.640,44.086 Z M 106.564,43.187 C 106.564,43.187 106.564,43.187 106.564,43.187 106.493,43.187 106.492,43.188 106.492,43.259 106.635,43.403 106.778,43.474 106.922,43.617 108.282,44.619 109.572,45.623 110.932,46.626 111.505,47.056 111.935,47.556 112.221,48.057 112.364,48.200 112.507,48.343 112.578,48.487 112.651,48.417 112.651,48.417 112.651,48.417 112.794,47.915 113.008,47.340 113.223,46.838 113.294,46.767 113.294,46.698 113.223,46.626 113.080,46.411 112.936,46.267 112.793,46.124 111.075,44.405 108.999,43.474 106.564,43.187 Z M 158.139,42.939 C 157.494,42.939 156.921,43.513 156.921,44.158 156.921,44.803 157.494,45.377 158.139,45.377 158.856,45.377 159.358,44.875 159.358,44.158 159.358,43.585 158.928,43.011 158.139,42.939 Z M 189.682,42.582 C 189.683,44.355 189.683,44.355 189.683,44.355 179.347,44.355 179.347,44.355 179.347,44.355 179.347,43.446 179.347,43.446 179.347,43.446 172.478,43.446 172.478,43.446 172.478,43.446 162.563,43.446 162.563,43.446 162.563,43.446 162.276,43.446 162.276,43.446 162.276,43.446 161.990,43.446 161.991,43.690 161.991,43.976 161.991,44.406 161.917,44.908 161.774,45.337 161.344,46.698 160.485,47.700 159.124,48.129 158.623,48.273 158.124,48.272 157.623,48.272 156.834,48.272 156.834,48.272 156.834,48.272 156.351,48.272 156.083,48.631 156.008,49.043 155.978,49.109 155.960,49.192 155.960,49.293 155.960,49.661 155.960,49.661 155.960,49.661 155.960,49.678 155.959,49.695 155.960,49.712 155.964,49.788 155.967,49.810 155.968,49.813 155.970,49.813 155.970,49.813 155.970,49.813 155.973,49.818 155.974,49.831 155.977,49.867 155.982,49.914 155.977,49.963 155.977,50.010 155.973,50.071 155.971,50.073 155.985,50.155 155.988,50.162 155.991,50.168 155.992,50.174 155.991,50.193 155.992,50.212 155.992,50.231 172.061,50.231 172.061,50.231 172.061,50.231 173.718,48.629 173.718,48.629 173.718,48.629 181.937,48.629 181.937,48.629 181.937,48.629 181.937,54.382 181.937,54.382 181.937,54.382 176.558,54.382 176.558,54.382 176.558,54.382 174.928,55.960 174.928,55.960 174.928,55.960 153.995,55.960 153.995,55.960 153.995,55.960 153.302,56.815 152.467,57.466 151.459,57.926 151.459,58.246 151.459,58.246 151.459,58.246 156.276,58.246 156.276,58.246 156.276,58.246 157.802,58.246 157.802,58.246 157.802,58.246 157.802,58.257 157.802,58.257 157.802,58.257 183.015,58.257 183.015,58.257 183.015,58.257 183.528,57.581 184.041,56.904 184.554,56.228 220.013,56.228 220.013,56.228 220.013,56.228 221.909,58.124 221.909,58.124 221.909,58.124 227.239,58.124 227.239,58.124 227.239,58.124 227.239,53.815 227.239,53.815 227.239,53.815 246.316,53.815 246.316,53.815 246.316,53.815 246.316,58.135 246.316,58.135 246.316,58.135 251.466,58.135 251.466,58.135 251.466,58.135 251.466,50.887 251.466,50.887 251.466,50.887 281.911,50.887 281.911,50.887 281.911,50.887 281.911,58.270 281.911,58.270 281.911,58.270 284.267,58.270 284.267,58.270 284.267,58.270 284.267,49.988 284.267,49.988 284.267,49.988 281.462,49.988 281.462,49.988 281.462,49.988 281.739,48.268 282.015,46.547 282.292,44.827 223.110,44.827 223.110,44.827 223.110,44.827 223.110,42.582 223.110,42.582 223.110,42.582 Z M 158.210,42.295 C 159.284,42.295 160.146,43.227 160.075,44.230 160.075,45.234 159.214,46.093 158.139,46.093 157.064,46.093 156.205,45.161 156.276,44.158 156.348,43.083 157.135,42.295 158.210,42.295 Z M 144.952,42.295 C 144.737,42.295 144.452,42.509 144.452,42.867 144.452,43.225 144.665,43.441 144.952,43.441 145.239,43.441 145.526,43.225 145.526,42.867 145.526,42.580 145.239,42.295 144.952,42.295 Z M 145.024,41.721 C 145.598,41.721 146.100,42.222 146.100,42.867 146.100,43.440 145.598,43.943 145.024,43.943 144.451,43.943 143.950,43.512 143.950,42.867 143.950,42.222 144.451,41.721 145.024,41.721 Z M 115.800,41.469 C 115.800,41.469 115.800,41.469 115.800,41.469 115.657,41.469 115.586,41.541 115.443,41.541 114.942,41.756 114.582,42.114 114.439,42.615 114.224,43.474 114.296,44.333 114.439,45.193 114.584,45.050 114.584,45.050 114.584,45.050 115.228,44.334 115.942,43.834 116.802,43.404 116.873,43.404 116.946,43.403 116.946,43.259 116.588,42.830 116.374,42.399 116.302,41.826 116.230,41.468 116.230,41.469 115.800,41.469 Z M 146.734,41.326 C 146.734,41.326 146.734,41.326 146.734,41.326 146.447,41.326 146.090,41.327 145.732,41.399 143.799,41.614 142.366,42.972 141.936,44.905 141.936,45.120 141.936,45.122 141.721,45.122 139.788,45.122 139.788,45.122 139.788,45.122 139.573,45.122 139.502,45.049 139.359,44.978 139.287,44.906 139.145,44.836 139.001,44.693 138.643,44.406 138.285,44.262 137.855,44.333 137.785,44.333 137.785,44.333 137.785,44.333 123.462,44.333 123.462,44.333 123.462,44.333 118.235,44.333 118.235,44.333 118.235,44.333 117.949,44.333 117.733,44.333 117.518,44.476 115.227,45.622 114.011,47.485 113.939,50.062 113.939,50.779 113.939,50.779 113.939,50.779 113.939,50.922 113.940,51.136 114.012,51.279 114.298,52.353 114.370,53.427 114.226,54.573 114.226,55.074 114.081,55.504 113.795,55.862 113.150,56.864 112.434,57.939 111.789,58.941 110.142,61.519 108.425,64.096 106.707,66.673 105.704,68.105 104.773,69.609 103.842,71.041 103.341,71.757 102.841,72.547 102.269,73.191 101.839,73.621 101.481,73.979 100.980,74.265 100.765,74.409 100.692,74.550 100.620,74.693 100.262,75.337 99.977,75.982 99.834,76.698 99.547,77.701 99.473,78.775 99.402,79.778 99.330,80.637 99.330,81.568 99.402,82.427 99.402,82.642 99.476,82.713 99.619,82.785 99.977,82.999 100.406,83.144 100.835,83.359 101.193,83.574 101.551,83.717 101.909,83.861 101.981,83.861 102.053,84.002 101.981,84.073 101.838,84.360 101.695,84.720 101.552,85.007 101.480,85.079 101.480,85.148 101.552,85.219 102.841,86.508 102.841,86.508 102.841,86.508 102.984,86.293 103.055,86.079 103.198,85.864 104.129,84.575 105.777,83.932 107.281,84.290 109.143,84.720 110.001,86.224 110.216,87.370 110.287,87.871 110.287,88.300 110.216,88.801 110.216,89.016 110.216,89.016 110.430,89.016 111.075,88.944 111.790,88.872 112.506,88.728 114.153,88.514 115.441,87.582 116.157,86.079 117.518,83.286 118.808,80.495 120.168,77.702 120.311,77.416 120.527,77.202 120.670,76.915 121.601,75.698 122.461,74.408 123.392,73.119 126.400,68.751 129.477,64.383 132.556,60.015 132.985,59.371 133.415,58.726 133.917,58.082 135.206,56.435 136.923,55.432 139.072,55.432 140.433,55.432 140.433,55.432 140.433,55.432 140.505,55.289 140.432,55.219 140.360,55.147 139.931,54.431 139.647,53.712 139.503,52.925 139.217,51.350 139.145,49.847 139.646,48.272 139.932,47.484 140.360,46.912 140.932,46.411 141.791,45.695 142.797,45.193 143.871,44.835 144.874,44.477 145.947,44.406 147.021,44.406 148.381,44.406 149.741,44.620 151.102,44.835 152.104,44.978 152.893,45.409 153.609,45.982 154.110,46.411 154.540,46.839 154.898,47.340 154.969,47.484 155.040,47.628 155.255,47.700 155.828,47.199 155.970,47.128 156.686,47.128 156.901,47.056 157.189,47.055 157.475,47.055 158.264,47.055 158.264,47.055 158.264,47.055 159.052,46.984 159.694,46.627 160.195,46.054 160.696,45.481 160.912,44.835 160.912,44.119 160.912,41.971 160.912,41.971 160.912,41.971 160.912,41.255 161.056,41.326 160.340,41.326 Z M 139.650,40.789 C 139.435,40.789 139.148,41.005 139.148,41.364 139.148,41.650 139.364,41.936 139.650,41.936 139.937,41.936 140.222,41.720 140.222,41.434 140.222,41.075 140.009,40.789 139.650,40.789 Z M 130.763,40.789 C 130.476,40.789 130.191,41.077 130.191,41.364 130.191,41.650 130.406,41.936 130.693,41.936 130.979,41.936 131.265,41.650 131.265,41.364 131.265,41.077 131.050,40.789 130.763,40.789 Z M 121.591,40.789 C 121.304,40.789 121.089,41.005 121.089,41.364 121.089,41.650 121.304,41.936 121.591,41.936 121.877,41.936 122.165,41.650 122.165,41.364 122.165,41.077 121.877,40.789 121.591,40.789 Z M 139.723,40.288 C 140.367,40.288 140.869,40.719 140.869,41.364 140.797,41.937 140.296,42.438 139.723,42.438 139.149,42.438 138.646,41.937 138.646,41.364 138.646,40.790 139.149,40.288 139.723,40.288 Z M 130.835,40.288 C 131.337,40.288 131.839,40.790 131.839,41.364 131.839,41.937 131.336,42.438 130.763,42.438 130.190,42.438 129.617,41.937 129.689,41.364 129.689,40.719 130.190,40.288 130.835,40.288 Z M 121.591,40.217 C 122.164,40.217 122.667,40.718 122.667,41.291 122.667,41.865 122.164,42.367 121.591,42.367 120.946,42.439 120.517,41.937 120.517,41.364 120.517,40.719 120.946,40.289 121.591,40.217 Z M 257.967,40.134 C 280.760,40.134 280.760,40.134 280.760,40.134 280.760,41.567 280.760,41.567 280.760,41.567 257.967,41.567 257.967,41.567 257.967,41.567 Z M 151.961,38.749 C 151.961,38.749 151.961,38.749 151.961,38.749 151.818,38.749 151.746,38.821 151.746,38.964 151.746,39.965 151.746,39.965 151.746,39.965 151.746,40.037 151.819,40.108 151.891,40.108 152.391,40.108 152.391,40.108 152.391,40.108 159.693,40.108 159.693,40.108 159.693,40.108 160.051,40.108 160.339,40.181 160.697,40.038 160.769,39.680 160.696,39.322 160.840,39.036 160.840,38.891 160.840,38.891 160.840,38.891 160.840,38.820 160.769,38.749 160.697,38.749 160.268,38.749 160.268,38.749 160.268,38.749 156.329,38.749 156.329,38.749 156.329,38.749 152.391,38.749 152.391,38.749 152.391,38.749 Z M 266.804,35.941 C 280.760,35.941 280.760,35.941 280.760,35.941 280.760,37.064 280.760,37.064 280.760,37.064 266.804,37.064 266.804,37.064 266.804,37.064 Z M 129.262,32.950 C 129.262,33.022 129.262,33.022 129.262,33.022 129.405,33.094 129.620,33.163 129.763,33.235 130.265,33.449 130.838,33.592 131.339,33.807 131.626,33.878 131.842,33.951 132.128,33.951 137.426,33.951 137.426,33.951 137.426,33.951 138.213,33.951 138.071,34.094 138.142,33.235 138.142,33.162 138.142,33.162 138.142,33.162 138.142,33.019 138.069,32.950 137.925,32.950 137.568,32.950 137.568,32.950 137.568,32.950 129.621,32.950 129.621,32.950 129.621,32.950 Z M 294.893,32.393 C 294.893,40.640 294.893,40.640 294.893,40.640 295.548,40.640 295.548,40.640 295.548,40.640 295.548,32.393 295.548,32.393 295.548,32.393 Z M 292.753,32.393 C 292.753,40.640 292.753,40.640 292.753,40.640 293.770,40.640 293.770,40.640 293.770,40.640 293.770,32.393 293.770,32.393 293.770,32.393 Z M 290.369,32.393 C 290.369,40.640 290.369,40.640 290.369,40.640 291.631,40.640 291.631,40.640 291.631,40.640 291.631,32.393 291.631,32.393 291.631,32.393 Z M 287.949,32.393 C 287.949,40.640 287.949,40.640 287.949,40.640 289.247,40.640 289.247,40.640 289.247,40.640 289.247,32.393 289.247,32.393 289.247,32.393 Z M 285.523,32.393 C 285.523,40.640 285.523,40.640 285.523,40.640 286.827,40.640 286.827,40.640 286.827,40.640 286.827,32.393 286.827,32.393 286.827,32.393 Z M 111.145,32.233 C 111.145,32.233 111.145,32.233 111.145,32.233 111.360,33.235 111.719,34.166 112.149,35.025 113.151,37.102 114.871,38.319 117.019,38.964 117.089,38.891 117.089,38.891 117.089,38.891 117.089,38.819 117.089,38.819 117.089,38.819 117.017,38.747 117.018,38.749 116.946,38.749 115.371,38.176 114.081,37.245 113.078,35.884 112.362,35.025 111.935,33.951 111.577,32.877 111.505,32.591 111.431,32.376 111.145,32.233 Z M 189.726,31.876 C 189.726,41.460 189.726,41.460 189.726,41.460 223.110,41.460 223.110,41.460 223.110,41.460 223.110,31.876 223.110,31.876 223.110,31.876 Z M 266.804,31.874 C 280.760,31.874 280.760,31.874 280.760,31.874 280.760,32.996 280.760,32.996 280.760,32.996 266.804,32.996 266.804,32.996 266.804,32.996 Z M 109.069,31.087 C 109.069,31.087 109.069,31.087 109.069,31.087 108.210,31.087 107.279,31.158 106.420,31.301 105.561,31.516 105.561,31.516 105.561,31.516 104.988,31.731 104.489,32.088 104.274,32.733 104.202,32.876 104.202,33.020 104.202,33.235 104.345,33.807 104.415,34.451 104.487,35.095 104.558,35.668 104.631,36.241 104.631,36.814 104.631,40.682 104.631,40.682 104.631,40.682 104.631,40.897 104.630,41.039 104.701,41.254 104.773,41.469 104.917,41.756 104.988,41.971 107.996,41.899 110.717,42.830 113.008,44.835 113.080,44.549 113.008,44.406 113.008,44.191 113.008,43.475 113.008,42.830 113.223,42.185 113.724,40.897 114.726,40.325 115.800,40.325 116.157,40.325 116.157,40.325 116.157,40.325 116.229,40.325 116.302,40.179 116.302,40.108 116.374,40.036 116.301,39.965 116.230,39.965 116.086,39.894 115.943,39.894 115.800,39.823 114.440,39.322 113.224,38.536 112.293,37.390 111.005,35.886 110.287,34.095 109.929,32.233 109.857,31.947 109.858,31.660 109.786,31.374 109.786,31.159 109.785,31.087 109.499,31.087 Z M 119.997,31.038 C 119.997,31.039 119.997,31.039 119.997,31.039 120.050,31.037 120.103,31.038 120.157,31.043 121.089,31.043 121.735,31.759 121.735,32.691 121.735,33.551 120.945,34.341 120.085,34.269 119.082,34.197 118.437,33.409 118.509,32.621 118.509,31.748 119.202,31.062 119.997,31.038 Z M 169.720,31.017 C 169.720,31.017 169.720,31.017 169.720,31.017 169.505,31.017 169.433,31.016 169.433,31.374 169.433,31.516 169.433,31.516 169.433,31.516 169.433,41.898 169.433,41.898 169.433,41.898 169.433,42.258 169.433,42.258 169.433,42.258 169.505,42.329 169.576,42.400 169.648,42.400 169.863,42.400 169.935,42.328 169.935,42.113 169.935,41.756 169.935,41.756 169.935,41.756 169.935,36.673 169.935,36.673 169.935,36.673 169.935,31.661 169.935,31.661 169.935,31.661 169.935,31.229 169.935,31.229 169.935,31.229 169.935,31.086 169.863,31.017 169.720,31.017 Z M 165.065,31.017 C 165.065,31.017 165.065,31.017 165.065,31.017 164.994,31.017 164.923,31.087 164.923,31.159 164.923,31.589 164.923,31.589 164.923,31.589 164.923,36.529 164.923,36.529 164.923,36.529 164.923,41.613 164.923,41.613 164.923,41.613 164.923,42.043 164.923,42.043 164.923,42.043 164.923,42.186 164.992,42.258 165.135,42.258 165.350,42.258 165.422,42.257 165.422,41.971 165.422,41.826 165.422,41.826 165.422,41.826 165.422,31.374 165.422,31.374 165.422,31.374 165.422,31.087 165.422,31.087 165.422,31.087 165.422,31.087 165.423,31.017 165.352,31.017 Z M 163.776,31.017 C 163.776,31.017 163.776,31.017 163.776,31.017 163.490,31.017 163.418,31.016 163.489,31.374 163.489,31.516 163.489,31.516 163.489,31.516 163.489,41.898 163.489,41.898 163.489,41.898 163.489,42.258 163.489,42.258 163.489,42.258 163.561,42.329 163.632,42.400 163.704,42.400 163.919,42.400 163.991,42.328 163.991,42.113 163.991,41.756 163.991,41.756 163.991,41.756 163.991,36.673 163.991,36.673 163.991,36.673 163.991,31.661 163.991,31.661 163.991,31.661 163.991,31.229 163.991,31.229 163.991,31.229 163.991,31.086 163.920,31.017 163.776,31.017 Z M 151.819,31.017 C 151.747,31.017 151.674,31.087 151.674,31.159 151.674,31.444 151.674,31.444 151.674,31.444 151.674,37.173 151.674,37.173 151.674,37.173 151.674,37.458 151.674,37.458 151.674,37.458 151.674,37.529 151.747,37.603 151.819,37.603 152.103,37.603 152.103,37.603 152.103,37.603 160.482,37.603 160.482,37.603 160.482,37.603 160.840,37.603 160.840,37.603 160.840,37.603 160.911,37.603 160.984,37.530 160.984,37.458 160.984,37.173 160.984,37.173 160.984,37.173 160.984,31.444 160.984,31.444 160.984,31.444 160.984,31.229 160.984,31.229 160.984,31.229 160.984,31.086 160.913,31.017 160.769,31.017 160.410,31.017 160.410,31.017 160.410,31.017 156.329,31.017 156.329,31.017 156.329,31.017 152.391,31.017 152.391,31.017 152.391,31.017 Z M 174.588,31.012 C 174.588,42.324 174.588,42.324 174.588,42.324 178.919,42.324 178.919,42.324 178.919,42.324 178.919,31.012 178.919,31.012 178.919,31.012 Z M 172.477,31.012 C 172.477,31.023 172.477,31.023 172.477,31.023 172.405,31.067 172.370,31.157 172.370,31.302 172.370,31.661 172.370,31.661 172.370,31.661 172.370,41.686 172.370,41.686 172.370,41.686 172.370,42.043 172.370,42.043 172.370,42.043 172.370,42.216 172.410,42.274 172.477,42.302 172.477,42.324 172.477,42.324 172.477,42.324 172.951,42.324 172.951,42.324 172.951,42.324 172.951,31.012 172.951,31.012 172.951,31.012 Z M 171.024,31.012 C 171.024,31.012 171.024,31.012 171.024,31.012 170.922,31.045 170.864,31.131 170.864,31.302 170.864,31.373 170.865,31.445 171.008,31.516 171.008,41.826 171.008,41.826 171.008,41.826 171.008,42.186 171.008,42.186 171.008,42.186 171.008,42.257 171.009,42.330 171.081,42.330 171.223,42.330 171.223,42.330 171.223,42.330 171.220,42.325 171.222,42.329 171.219,42.324 171.230,42.324 171.230,42.324 171.230,42.324 171.233,42.326 171.235,42.328 171.237,42.330 171.241,42.330 171.241,42.330 171.241,42.330 171.238,42.326 171.242,42.329 171.237,42.324 171.368,42.324 171.368,42.324 171.368,42.324 171.374,42.318 171.436,42.254 171.436,42.185 171.436,41.756 171.436,41.756 171.436,41.756 171.436,36.673 171.436,36.673 171.436,36.673 171.436,31.516 171.436,31.516 171.436,31.516 171.436,31.087 171.436,31.087 171.436,31.087 171.365,31.087 171.368,31.017 171.296,31.017 171.285,31.014 171.277,31.015 171.265,31.012 Z M 167.967,31.012 C 167.967,31.012 167.967,31.012 167.967,31.012 167.948,31.039 167.930,31.049 167.930,31.087 167.930,31.516 167.930,31.516 167.930,31.516 167.930,36.601 167.930,36.601 167.930,36.601 167.930,38.320 167.929,39.967 167.858,41.613 167.858,42.043 167.858,42.043 167.858,42.043 167.858,42.186 167.929,42.258 168.073,42.258 168.359,42.258 168.430,42.257 168.430,41.971 168.430,41.686 168.430,41.686 168.430,41.686 168.430,31.444 168.430,31.444 168.430,31.444 168.430,31.087 168.430,31.087 168.430,31.087 168.430,31.060 168.426,31.035 168.423,31.012 Z M 166.485,31.012 C 166.485,31.012 166.485,31.012 166.485,31.012 166.443,31.057 166.424,31.125 166.424,31.229 166.424,31.372 166.426,31.445 166.354,31.516 166.354,36.601 166.354,36.601 166.354,36.601 166.354,41.614 166.354,41.614 166.354,41.614 166.354,42.043 166.354,42.043 166.354,42.043 166.354,42.186 166.425,42.258 166.569,42.258 166.855,42.258 166.928,42.257 166.928,41.971 166.928,41.826 166.928,41.826 166.928,41.826 166.928,31.302 166.928,31.302 166.928,31.302 166.928,31.159 166.928,31.159 166.928,31.159 166.928,31.094 166.907,31.048 166.878,31.012 Z M 162.019,31.012 C 162.019,31.012 162.019,31.012 162.019,31.012 162.008,31.013 161.999,31.017 161.988,31.017 161.988,31.017 161.916,31.087 161.916,31.159 161.916,31.302 161.915,31.446 161.843,31.589 161.843,36.673 161.843,36.673 161.843,36.673 161.843,41.756 161.843,41.756 161.843,41.756 161.843,42.185 161.843,42.185 161.843,42.185 161.915,42.257 161.984,42.330 162.056,42.330 162.342,42.330 162.415,42.329 162.415,42.043 162.415,41.756 162.415,41.756 162.415,41.756 162.415,31.516 162.415,31.516 162.415,31.516 162.415,31.159 162.415,31.159 162.415,31.159 162.415,31.088 162.417,31.017 162.345,31.017 162.339,31.011 162.328,31.016 162.321,31.012 Z M 111.504,30.585 C 111.504,30.585 111.504,30.585 111.504,30.585 111.504,30.585 111.505,30.657 111.362,30.657 111.719,31.017 111.719,31.017 111.719,31.017 112.077,31.446 112.435,31.945 112.578,32.518 112.650,32.733 112.722,33.021 112.865,33.307 113.581,35.025 114.727,36.314 116.374,37.173 117.162,37.603 118.021,37.890 118.952,37.962 119.381,38.034 119.811,37.962 120.240,37.962 137.211,37.962 137.211,37.962 137.211,37.962 137.713,37.962 137.713,37.962 137.713,37.962 137.856,37.962 137.925,37.888 137.925,37.745 137.925,35.312 137.925,35.312 137.925,35.312 137.925,35.169 137.927,35.095 137.713,35.095 137.281,35.095 137.281,35.095 137.281,35.095 131.911,35.095 131.911,35.095 131.911,35.095 131.625,35.095 131.268,35.096 130.982,34.953 129.192,34.308 127.400,33.734 125.610,33.090 125.395,33.018 125.253,32.950 125.038,32.950 124.752,32.950 124.753,32.948 124.681,33.235 124.681,33.449 124.680,33.591 124.609,33.734 124.036,36.312 121.530,37.891 118.952,37.318 116.302,36.745 114.943,34.165 115.373,31.874 115.444,31.444 115.587,31.085 115.730,30.727 115.587,30.584 115.371,30.657 115.228,30.657 115.013,30.657 114.799,30.657 114.656,30.872 114.370,31.230 114.010,31.230 113.652,31.087 113.509,31.087 113.438,31.017 113.295,31.017 112.722,30.873 112.077,30.728 111.504,30.585 Z M 180.490,30.103 C 180.490,30.103 180.490,30.103 180.490,30.103 180.482,34.479 180.476,38.857 180.468,43.233 188.582,43.233 188.582,43.233 188.582,43.233 188.582,30.103 188.582,30.103 188.582,30.103 Z M 137.925,30.013 C 137.925,30.013 137.925,30.013 137.925,30.013 137.496,30.013 137.067,30.013 136.709,30.228 136.637,30.299 136.568,30.298 136.496,30.370 136.139,30.585 135.851,30.657 135.493,30.657 124.966,30.657 124.966,30.657 124.966,30.657 124.823,30.657 124.609,30.656 124.394,30.727 124.394,30.942 124.537,31.087 124.609,31.302 124.609,31.445 124.607,31.659 124.821,31.731 124.964,31.874 125.182,31.803 125.325,31.803 137.568,31.803 137.568,31.803 137.568,31.803 137.925,31.803 137.925,31.803 137.925,31.803 138.069,31.803 138.142,31.732 138.142,31.589 138.142,30.228 138.142,30.228 138.142,30.228 138.142,30.084 138.069,30.013 137.925,30.013 Z M 224.232,29.656 C 224.232,43.682 224.232,43.682 224.232,43.682 283.123,43.682 283.123,43.682 283.123,43.682 283.153,43.657 283.183,43.629 283.213,43.604 283.213,29.699 283.213,29.699 283.213,29.699 273.933,29.714 264.652,29.729 255.372,29.743 255.372,29.656 255.372,29.656 255.372,29.656 Z M 139.788,29.298 C 139.788,29.298 139.788,29.298 139.788,29.298 139.645,29.298 139.573,29.295 139.573,29.439 139.502,29.725 139.644,30.012 139.286,30.155 139.286,30.300 139.286,30.300 139.286,30.300 139.286,30.657 139.286,30.657 139.286,30.657 139.286,38.606 139.286,38.606 139.286,38.606 139.286,39.323 139.358,39.251 138.642,39.251 129.121,39.251 129.121,39.251 129.121,39.251 121.314,39.251 121.314,39.251 121.314,39.251 119.237,39.251 119.237,39.251 119.237,39.251 118.879,39.251 118.666,39.320 118.380,39.463 117.592,39.965 117.232,40.968 117.518,41.898 117.733,42.543 118.522,43.187 119.381,43.187 137.925,43.187 137.925,43.187 137.925,43.187 138.785,43.187 138.859,43.189 139.503,43.761 139.718,43.976 139.931,44.048 140.218,44.048 140.862,44.048 140.718,44.119 141.005,43.547 141.363,42.687 141.864,42.042 142.581,41.469 143.655,40.610 144.944,40.180 146.304,40.180 150.100,40.180 150.100,40.180 150.100,40.180 150.601,40.180 150.530,40.182 150.530,39.680 150.530,31.516 150.530,31.516 150.530,31.516 150.530,31.159 150.530,31.159 150.530,31.159 150.530,31.088 150.529,31.017 150.457,31.017 150.243,31.017 150.243,30.800 150.243,30.657 150.243,29.511 150.243,29.511 150.243,29.511 150.243,29.368 150.243,29.298 150.028,29.298 149.741,29.298 149.741,29.298 149.741,29.298 148.687,29.298 148.687,29.298 148.687,29.298 148.847,29.428 148.965,29.642 148.965,29.827 148.965,30.113 148.680,30.399 148.393,30.399 148.106,30.399 147.819,30.113 147.819,29.827 147.819,29.608 147.927,29.415 148.075,29.298 141.509,29.298 141.509,29.298 141.509,29.298 141.456,29.298 141.456,29.298 141.456,29.298 141.589,29.408 141.685,29.581 141.728,29.754 141.728,30.113 141.512,30.326 141.154,30.326 140.867,30.326 140.582,30.041 140.582,29.754 140.582,29.581 140.686,29.408 140.832,29.298 Z M 105.324,29.206 C 105.324,29.206 105.324,29.206 105.324,29.206 105.280,29.203 105.239,29.208 105.203,29.226 104.988,29.298 105.060,29.511 104.989,29.726 104.917,29.869 104.845,30.084 104.774,30.228 104.702,30.371 104.703,30.443 104.846,30.515 105.849,30.085 106.924,29.941 107.998,29.798 107.854,29.798 107.780,29.726 107.708,29.726 105.775,29.298 105.775,29.298 105.775,29.298 105.614,29.298 105.455,29.217 105.324,29.206 Z M 120.098,29.154 C 118.380,29.154 116.516,30.441 116.445,32.733 116.445,34.738 118.021,36.314 120.026,36.314 122.317,36.242 123.605,34.451 123.605,32.733 123.605,30.799 122.031,29.154 120.098,29.154 Z M 254.160,24.987 C 254.160,24.987 254.160,24.987 254.160,24.987 250.543,24.999 246.925,25.009 243.309,25.020 243.309,25.772 243.309,25.772 243.309,25.772 214.133,25.772 214.133,25.772 214.133,25.772 214.133,25.020 214.133,25.020 214.133,25.020 200.667,25.020 200.667,25.020 200.667,25.020 200.667,27.869 200.667,27.869 200.667,27.869 193.395,27.869 193.395,27.869 193.395,27.869 193.395,25.020 193.395,25.020 193.395,25.020 188.626,25.020 188.626,25.020 188.626,25.020 188.626,27.847 188.626,27.847 188.626,27.847 181.748,27.847 181.748,27.847 181.748,27.847 181.748,28.970 181.748,28.970 181.748,28.970 189.726,28.970 189.726,28.970 189.726,28.970 189.726,30.732 189.726,30.732 189.726,30.732 223.110,30.732 223.110,30.732 223.110,30.732 223.110,28.487 223.110,28.487 223.110,28.487 255.440,28.487 255.440,28.487 255.440,28.487 255.440,26.175 255.440,26.175 255.440,26.175 255.013,25.779 254.586,25.383 254.160,24.987 Z M 200.667,18.881 C 200.667,22.776 200.667,22.776 200.667,22.776 214.133,22.776 214.133,22.776 214.133,22.776 214.133,19.747 214.133,19.747 214.133,19.747 204.303,19.747 204.303,19.747 204.303,19.747 204.303,18.881 204.303,18.881 204.303,18.881 Z M 188.604,18.881 C 188.604,22.787 188.604,22.787 188.604,22.787 193.373,22.787 193.373,22.787 193.373,22.787 193.373,18.881 193.373,18.881 193.373,18.881 Z M 266.280,12.453 C 266.280,15.539 266.280,15.539 266.280,15.539 270.578,15.539 270.578,15.539 270.578,15.539 270.578,12.453 270.578,12.453 270.578,12.453 Z M 224.109,12.172 C 224.109,16.661 224.109,16.661 224.109,16.661 232.806,16.661 232.806,16.661 232.806,16.661 232.806,12.172 232.806,12.172 232.806,12.172 Z M 247.528,11.206 C 247.528,11.206 247.528,11.206 247.528,11.206 247.536,13.016 247.542,14.827 247.550,16.637 263.755,16.637 263.755,16.637 263.755,16.637 263.755,11.206 263.755,11.206 263.755,11.206 Z M 199.444,11.206 C 199.444,16.637 199.444,16.637 199.444,16.637 205.458,16.637 205.458,16.637 205.458,16.637 205.458,11.206 205.458,11.206 205.458,11.206 Z M 187.370,11.206 C 187.370,16.637 187.370,16.637 187.370,16.637 194.629,16.637 194.629,16.637 194.629,16.637 194.629,11.206 194.629,11.206 194.629,11.206 Z M 180.335,11.206 C 180.335,16.637 180.335,16.637 180.335,16.637 182.579,16.637 182.579,16.637 182.579,16.637 182.579,11.206 182.579,11.206 182.579,11.206 Z M 222.987,11.050 C 233.928,11.050 233.928,11.050 233.928,11.050 233.928,17.783 233.928,17.783 233.928,17.783 222.987,17.783 222.987,17.783 222.987,17.783 Z M 242.187,10.342 C 242.187,17.514 242.187,17.514 242.187,17.514 246.395,17.514 246.395,17.514 246.395,17.514 246.395,10.342 246.395,10.342 246.395,10.342 Z M 206.580,10.342 C 206.580,17.514 206.580,17.514 206.580,17.514 215.255,17.514 215.255,17.514 215.255,17.514 215.255,10.342 215.255,10.342 215.255,10.342 Z M 161.133,9.087 C 161.133,18.769 161.133,18.769 161.133,18.769 172.210,18.769 172.210,18.769 172.210,18.769 174.174,18.239 176.138,17.707 178.101,17.176 178.101,10.680 178.101,10.680 178.101,10.680 176.138,10.149 174.174,9.617 172.210,9.087 Z M 195.751,8.525 C 195.751,25.638 195.751,25.638 195.751,25.638 198.322,25.638 198.322,25.638 198.322,25.638 198.322,8.525 198.322,8.525 198.322,8.525 Z M 183.701,8.525 C 183.701,25.638 183.701,25.638 183.701,25.638 186.248,25.638 186.248,25.638 186.248,25.638 186.248,8.525 186.248,8.525 186.248,8.525 Z M 216.377,7.256 C 216.377,10.342 216.377,10.342 216.377,10.342 216.377,17.503 216.377,17.503 216.377,17.503 216.377,23.539 216.377,23.539 216.377,23.539 241.064,23.539 241.064,23.539 241.064,23.539 241.064,17.514 241.064,17.514 241.064,17.514 241.064,10.342 241.064,10.342 241.064,10.342 241.064,7.256 241.064,7.256 241.064,7.256 Z M 214.133,5.012 C 243.309,5.012 243.309,5.012 243.309,5.012 243.309,8.098 243.309,8.098 243.309,8.098 248.672,8.098 248.672,8.098 248.672,8.098 248.672,8.962 248.672,8.962 248.672,8.962 266.245,8.962 266.245,8.962 266.245,8.962 266.245,10.209 266.245,10.209 266.245,10.209 272.787,10.209 272.787,10.209 272.787,10.209 272.787,17.783 272.787,17.783 272.787,17.783 266.245,17.783 266.245,17.783 266.245,17.783 266.245,18.905 266.245,18.905 266.245,18.905 248.650,18.905 248.650,18.905 248.650,18.905 248.650,19.769 248.650,19.769 248.650,19.769 243.309,19.769 243.309,19.769 243.309,19.769 243.309,22.798 243.309,22.798 243.309,22.798 254.990,22.798 254.990,22.798 254.990,22.798 255.874,23.617 256.755,24.436 257.638,25.255 257.638,27.499 257.638,27.499 257.638,27.499 285.411,27.499 285.411,27.499 285.411,27.499 285.411,30.149 285.411,30.149 285.411,30.149 296.488,30.149 296.488,30.149 296.488,30.149 296.488,30.154 296.488,30.159 296.488,30.164 296.546,30.155 296.607,30.149 296.668,30.149 297.288,30.149 297.788,30.648 297.788,31.269 297.788,41.765 297.788,41.765 297.788,41.765 297.788,42.385 297.288,42.885 296.668,42.885 296.654,42.885 296.641,42.883 296.628,42.883 296.628,42.885 296.628,42.885 296.628,42.885 285.490,42.885 285.490,42.885 285.490,42.885 285.490,44.601 285.490,44.601 285.490,44.601 285.184,44.878 284.876,45.154 284.570,45.431 284.435,46.202 284.301,46.973 284.166,47.744 286.612,47.744 286.612,47.744 286.612,47.744 286.612,60.515 286.612,60.515 286.612,60.515 283.101,60.515 283.101,60.515 283.101,60.515 283.101,64.295 283.101,64.295 283.101,64.295 250.412,64.295 250.412,64.295 250.412,64.295 250.412,60.368 250.412,60.368 250.412,60.368 247.740,60.368 247.740,60.368 247.740,60.368 247.740,63.375 247.740,63.375 247.740,63.375 226.139,63.375 226.139,63.375 226.139,63.375 226.139,60.425 226.139,60.425 226.139,60.425 221.046,60.425 221.046,60.425 221.046,60.425 219.150,58.527 219.150,58.527 219.150,58.527 185.731,58.527 185.731,58.527 185.731,58.527 185.214,59.204 184.700,59.882 184.183,60.559 157.802,60.559 157.802,60.559 157.802,60.559 157.802,60.563 157.802,60.563 157.802,60.563 151.459,60.563 151.459,60.563 151.459,60.563 149.142,60.563 149.142,60.563 149.142,60.563 149.142,58.619 149.142,58.619 149.142,58.619 148.960,58.653 148.779,58.686 148.597,58.726 147.881,58.869 147.093,58.870 146.377,58.799 145.804,58.727 145.229,58.655 144.656,58.511 144.012,58.368 143.297,58.155 142.653,57.797 142.080,57.439 141.436,57.294 140.720,57.223 140.004,57.151 139.285,57.151 138.570,57.223 137.854,57.294 137.282,57.508 136.709,57.937 136.136,58.367 135.636,58.798 135.278,59.371 129.906,67.105 129.906,67.105 129.906,67.105 123.248,76.556 123.248,76.556 123.248,76.556 122.460,77.630 121.887,78.704 121.314,79.850 120.240,82.141 119.166,84.432 118.020,86.723 117.018,88.800 115.370,90.018 113.150,90.519 111.933,90.662 110.789,90.876 109.571,90.876 109.142,90.876 109.142,90.876 109.142,90.876 108.855,90.876 108.569,90.948 108.283,91.091 106.851,91.807 105.491,91.663 104.202,90.804 103.629,90.446 103.199,89.875 102.913,89.230 102.841,89.016 102.696,88.801 102.481,88.658 101.264,87.584 100.192,86.295 98.974,85.149 98.903,85.149 98.902,85.149 98.902,85.077 98.902,84.862 99.118,84.862 99.189,84.647 99.189,84.504 99.046,84.505 98.974,84.505 98.688,84.362 98.400,84.217 98.113,84.146 97.612,83.931 97.398,83.573 97.326,83.072 97.255,82.427 97.184,81.783 97.184,81.139 97.112,80.065 97.183,78.991 97.326,77.917 97.470,76.485 97.829,75.052 98.545,73.691 98.757,73.264 98.757,73.264 98.757,73.264 98.972,72.906 99.189,72.617 99.619,72.402 100.048,72.188 100.334,71.831 100.620,71.473 101.122,70.829 101.622,70.112 102.052,69.395 102.839,68.178 103.627,67.034 104.414,65.816 105.775,63.811 107.065,61.805 108.425,59.800 109.571,58.082 110.644,56.364 111.789,54.645 111.933,54.431 112.076,54.216 112.076,54.001 112.148,52.426 111.934,50.993 111.075,49.633 110.717,48.988 110.217,48.487 109.644,48.057 108.426,47.126 107.137,46.123 105.848,45.193 105.275,44.835 104.775,44.406 104.202,43.976 103.987,43.833 103.912,43.832 103.698,43.904 102.841,44.333 102.841,44.333 102.841,44.333 102.626,44.405 102.412,44.404 102.269,44.261 101.839,43.975 101.695,43.403 101.982,42.902 102.053,42.759 102.196,42.614 102.411,42.543 102.483,42.543 102.624,42.470 102.696,42.470 102.840,42.470 102.912,42.329 102.841,42.186 102.769,42.042 102.768,41.969 102.696,41.826 102.553,41.540 102.481,41.255 102.481,40.897 102.481,37.031 102.481,37.031 102.481,37.031 102.481,36.386 102.410,35.812 102.339,35.168 102.196,34.094 102.052,32.948 101.909,31.874 101.909,31.730 101.837,31.589 101.837,31.374 101.765,31.087 101.837,30.800 102.052,30.585 102.839,29.797 103.054,28.794 103.126,27.720 103.126,27.434 103.199,27.077 103.270,26.791 103.270,26.719 103.270,26.719 103.270,26.719 103.341,26.647 103.340,26.648 103.340,26.576 103.417,26.576 103.417,26.576 103.417,26.576 103.560,26.576 103.631,26.649 103.774,26.649 103.846,26.720 103.847,26.721 103.919,26.721 104.993,26.936 106.067,27.223 107.141,27.438 112.940,28.724 112.940,28.724 112.940,28.724 113.083,28.724 113.226,28.796 113.370,28.796 113.441,28.796 113.514,28.796 113.514,28.724 113.514,28.509 113.656,28.509 113.799,28.509 116.377,28.509 116.377,28.509 116.377,28.509 117.378,28.509 117.378,28.509 117.378,28.509 117.593,28.509 117.808,28.439 118.023,28.367 119.312,27.722 120.673,27.722 122.033,28.367 122.248,28.438 122.464,28.509 122.750,28.509 135.065,28.509 135.065,28.509 135.065,28.509 135.138,28.509 135.138,28.509 135.138,28.509 135.352,28.581 135.567,28.510 135.782,28.367 135.854,28.295 135.925,28.294 135.997,28.222 136.355,27.936 136.783,27.793 137.213,27.865 137.428,27.865 137.428,27.865 137.428,27.865 137.500,27.865 137.573,27.794 137.573,27.723 137.573,27.579 137.502,27.364 137.645,27.221 137.788,27.077 138.002,27.148 138.217,27.148 151.534,27.148 151.534,27.148 151.534,27.148 151.965,27.148 151.965,27.148 151.965,27.148 152.108,27.148 152.178,27.222 152.178,27.365 152.178,28.439 152.178,28.439 152.178,28.439 152.178,28.511 152.179,28.653 152.250,28.796 155.332,28.796 155.332,28.796 155.332,28.796 155.332,28.735 155.332,28.735 155.332,28.735 179.526,28.735 179.526,28.735 179.526,28.735 179.526,22.798 179.526,22.798 179.526,22.798 181.343,22.798 181.343,22.798 181.343,22.798 181.343,18.892 181.343,18.892 181.343,18.892 180.357,18.892 180.357,18.892 180.357,18.892 177.739,19.596 175.120,20.299 172.502,21.003 158.856,21.003 158.856,21.003 158.856,21.003 158.856,6.875 158.856,6.875 158.856,6.875 172.613,6.875 172.613,6.875 172.613,6.875 180.322,8.962 180.322,8.962 180.322,8.962 181.310,8.962 181.310,8.962 181.310,8.962 181.310,6.281 181.310,6.281 181.310,6.281 188.604,6.281 188.604,6.281 188.604,6.281 188.604,8.962 188.604,8.962 188.604,8.962 193.373,8.962 193.373,8.962 193.373,8.962 193.373,6.281 193.373,6.281 193.373,6.281 200.667,6.281 200.667,6.281 200.667,6.281 200.667,8.962 200.667,8.962 200.667,8.962 204.303,8.962 204.303,8.962 204.303,8.962 204.303,8.098 204.303,8.098 204.303,8.098 214.133,8.098 214.133,8.098 214.133,8.098 Z " />
</svg>