<?xml version="1.0" encoding="UTF-8" standalone="no"?>
<!DOCTYPE svg PUBLIC "-//W3C//DTD SVG 20010904//EN" "http://www.w3.org/TR/2001/REC-SVG-20010904/DTD/svg10.dtd"[]>
<svg version="1.1" id="Frosty Editor v1.0.6.3" xmlns="http://www.w3.org/2000/svg" d1p1:xlink="http://www.w3.org/1999/xlink" viewBox="0 0 96 96" xmlns:d1p1="xmlns">
  <path stroke="none" fill="none" d="M 73.000,48.000 C 73.000,61.807 61.807,73.000 48.000,73.000 34.193,73.000 23.000,61.807 23.000,48.000 23.000,34.193 34.193,23.000 48.000,23.000 61.807,23.000 73.000,34.193 73.000,48.000 73.000,48.000 73.000,48.000 73.000,48.000 Z " />
  <path stroke="none" fill="none" d="M 64.000,48.000 C 64.000,56.837 56.837,64.000 48.000,64.000 39.163,64.000 32.000,56.837 32.000,48.000 32.000,39.163 39.163,32.000 48.000,32.000 56.837,32.000 64.000,39.163 64.000,48.000 64.000,48.000 64.000,48.000 64.000,48.000 Z " />
  <path stroke="none" fill="none" d="M 48.000,74.000 C 33.600,74.000 22.000,62.400 22.000,48.000 22.000,33.600 33.600,22.000 48.000,22.000 62.400,22.000 74.000,33.600 74.000,48.000 74.000,62.400 62.400,74.000 48.000,74.000 48.000,74.000 48.000,74.000 48.000,74.000 Z M 48.000,19.000 C 32.000,19.000 19.000,32.000 19.000,48.000 19.000,64.000 32.000,77.000 48.000,77.000 64.000,77.000 77.000,64.000 77.000,48.000 77.000,32.000 64.000,19.000 48.000,19.000 48.000,19.000 48.000,19.000 48.000,19.000 Z " />
  <path stroke="none" fill="#ffffffff" d="M 48.000,77.000 C 32.000,77.000 19.000,64.000 19.000,48.000 19.000,32.000 32.000,19.000 48.000,19.000 64.000,19.000 77.000,32.000 77.000,48.000 77.000,64.000 64.000,77.000 48.000,77.000 48.000,77.000 48.000,77.000 48.000,77.000 Z M 48.000,16.000 C 30.300,16.000 16.000,30.300 16.000,48.000 16.000,65.700 30.300,80.000 48.000,80.000 65.700,80.000 80.000,65.700 80.000,48.000 80.000,30.300 65.700,16.000 48.000,16.000 48.000,16.000 48.000,16.000 48.000,16.000 Z " />
  <path stroke="none" fill="#ffffffff" d="M 48.000,73.000 C 34.200,73.000 23.000,61.800 23.000,48.000 23.000,34.200 34.200,23.000 48.000,23.000 61.800,23.000 73.000,34.200 73.000,48.000 73.000,61.800 61.800,73.000 48.000,73.000 48.000,73.000 48.000,73.000 48.000,73.000 Z M 48.000,22.000 C 33.600,22.000 22.000,33.600 22.000,48.000 22.000,62.400 33.600,74.000 48.000,74.000 62.400,74.000 74.000,62.400 74.000,48.000 74.000,33.600 62.400,22.000 48.000,22.000 48.000,22.000 48.000,22.000 48.000,22.000 Z " />
  <path stroke="none" fill="#ffffffff" d="M 55.600,50.000 C 53.733,50.000 51.867,50.000 50.000,50.000 50.000,51.867 50.000,53.733 50.000,55.600 50.000,56.700 49.100,57.600 48.000,57.600 46.900,57.600 46.000,56.700 46.000,55.600 46.000,53.733 46.000,51.867 46.000,50.000 44.133,50.000 42.267,50.000 40.400,50.000 39.300,50.000 38.400,49.100 38.400,48.000 38.400,46.900 39.300,46.000 40.400,46.000 42.267,46.000 44.133,46.000 46.000,46.000 46.000,44.133 46.000,42.267 46.000,40.400 46.000,39.300 46.900,38.400 48.000,38.400 49.100,38.400 50.000,39.300 50.000,40.400 50.000,42.267 50.000,44.133 50.000,46.000 51.867,46.000 53.733,46.000 55.600,46.000 56.700,46.000 57.600,46.900 57.600,48.000 57.600,49.100 56.700,50.000 55.600,50.000 55.600,50.000 55.600,50.000 55.600,50.000 Z M 48.000,32.000 C 39.200,32.000 32.000,39.200 32.000,48.000 32.000,56.800 39.200,64.000 48.000,64.000 56.800,64.000 64.000,56.800 64.000,48.000 64.000,39.200 56.800,32.000 48.000,32.000 48.000,32.000 48.000,32.000 48.000,32.000 Z " />
</svg>