<?xml version="1.0" encoding="UTF-8" standalone="no"?>
<!DOCTYPE svg PUBLIC "-//W3C//DTD SVG 20010904//EN" "http://www.w3.org/TR/2001/REC-SVG-20010904/DTD/svg10.dtd"[]>
<svg version="1.1" id="Frosty Editor v1.0.6.3" xmlns="http://www.w3.org/2000/svg" d1p1:xlink="http://www.w3.org/1999/xlink" viewBox="0 0 25 25" xmlns:d1p1="xmlns">
  <path stroke="none" fill="#ffffffff" d="M 8.308,7.391 C 7.458,7.434 6.803,8.154 6.839,9.003 6.839,16.574 6.839,16.574 6.839,16.574 6.836,16.999 6.993,17.409 7.279,17.723 8.749,19.294 10.218,20.866 11.687,22.437 11.951,22.729 12.326,22.896 12.719,22.896 13.113,22.896 13.488,22.729 13.752,22.437 15.225,20.866 16.698,19.294 18.171,17.723 18.462,17.409 18.621,16.995 18.618,16.566 18.618,9.003 18.618,9.003 18.618,9.003 18.654,8.158 18.005,7.440 17.160,7.391 Z M 8.895,8.178 C 9.497,8.174 9.979,8.645 9.998,9.250 10.018,9.846 9.541,10.362 8.925,10.382 8.310,10.402 7.814,9.926 7.794,9.311 7.774,8.695 8.251,8.199 8.866,8.179 8.876,8.179 8.885,8.178 8.895,8.178 Z M 11.931,9.661 C 12.107,9.658 12.278,9.760 12.340,9.946 12.644,10.753 12.949,11.560 13.253,12.368 13.333,12.586 13.234,12.844 12.996,12.923 12.777,13.003 12.519,12.904 12.440,12.666 12.201,12.024 11.963,11.381 11.725,10.740 11.546,10.819 11.367,10.899 11.189,10.978 11.189,10.978 11.010,10.660 10.832,10.501 10.633,10.323 10.355,10.303 10.355,10.303 10.805,10.104 11.255,9.906 11.705,9.708 11.725,9.708 11.745,9.688 11.764,9.688 11.784,9.688 11.784,9.688 11.784,9.688 11.832,9.671 11.882,9.661 11.931,9.661 Z M 13.135,10.482 C 15.992,10.482 15.992,10.482 15.992,10.482 16.105,10.667 16.217,10.852 16.330,11.037 13.452,11.037 13.452,11.037 13.452,11.037 13.346,10.852 13.241,10.667 13.135,10.482 Z M 9.983,10.625 C 10.297,10.621 10.603,10.771 10.772,11.058 11.335,11.964 11.897,12.870 12.459,13.776 12.479,13.796 12.479,13.817 12.479,13.837 12.499,13.837 12.518,13.857 12.518,13.876 12.638,14.115 12.479,14.452 12.181,14.630 11.440,15.074 10.700,15.517 9.958,15.961 10.852,16.344 11.745,16.728 12.638,17.112 12.896,17.231 13.015,17.508 12.936,17.746 12.923,17.773 12.909,17.800 12.896,17.826 12.816,18.065 12.539,18.164 12.300,18.065 11.136,17.562 9.971,17.059 8.806,16.556 8.727,16.516 8.668,16.457 8.608,16.397 8.568,16.358 8.509,16.318 8.490,16.259 8.370,16.020 8.508,15.683 8.786,15.524 9.336,15.200 9.885,14.876 10.434,14.552 10.381,14.459 10.328,14.366 10.275,14.273 9.852,14.240 9.428,14.207 9.005,14.174 8.945,14.174 8.885,14.154 8.845,14.134 8.627,14.055 8.469,13.836 8.509,13.598 8.595,12.883 8.681,12.169 8.767,11.454 8.806,11.177 9.124,10.978 9.204,10.938 9.501,10.759 9.501,10.759 9.501,10.759 9.651,10.670 9.818,10.627 9.983,10.625 Z M 14.028,12.010 C 16.906,12.010 16.906,12.010 16.906,12.010 17.012,12.189 17.117,12.367 17.223,12.546 14.345,12.546 14.345,12.546 14.345,12.546 14.239,12.367 14.133,12.189 14.028,12.010 Z M 14.940,13.519 C 17.799,13.519 17.799,13.519 17.799,13.519 17.911,13.704 18.024,13.890 18.136,14.075 15.258,14.075 15.258,14.075 15.258,14.075 15.153,13.890 15.046,13.704 14.940,13.519 Z M 12.797,14.750 C 15.298,18.680 15.298,18.680 15.298,18.680 15.457,18.938 15.437,19.256 15.258,19.375 15.212,19.408 15.165,19.441 15.119,19.474 14.941,19.613 14.662,19.513 14.484,19.255 13.643,17.925 12.803,16.595 11.963,15.265 12.241,15.093 12.519,14.922 12.797,14.750 Z " />
  <path stroke="none" fill="#ffffffff" d="M 12.772,2.479 C 9.471,2.449 6.318,3.849 4.127,6.318 3.906,6.564 3.916,6.939 4.149,7.173 4.270,7.291 4.433,7.354 4.601,7.349 4.769,7.345 4.927,7.272 5.041,7.148 6.996,4.939 9.812,3.686 12.761,3.714 15.710,3.742 18.503,5.047 20.416,7.291 20.528,7.419 20.689,7.496 20.859,7.502 21.030,7.509 21.196,7.445 21.318,7.325 21.551,7.093 21.563,6.720 21.346,6.473 19.199,3.965 16.073,2.508 12.772,2.479 Z " />
</svg>