<?xml version="1.0" encoding="UTF-8" standalone="no"?>
<!DOCTYPE svg PUBLIC "-//W3C//DTD SVG 20010904//EN" "http://www.w3.org/TR/2001/REC-SVG-20010904/DTD/svg10.dtd"[]>
<svg version="1.1" id="Frosty Editor v1.0.6.3" xmlns="http://www.w3.org/2000/svg" d1p1:xlink="http://www.w3.org/1999/xlink" viewBox="0 0 25 25" xmlns:d1p1="xmlns">
  <path stroke="none" fill="#ffffffff" d="M 12.551,22.827 C 12.532,22.806 12.494,22.788 12.464,22.788 12.431,22.788 12.410,22.778 12.410,22.762 12.410,22.746 12.382,22.729 12.345,22.722 12.308,22.716 12.274,22.697 12.268,22.682 12.262,22.666 12.243,22.653 12.226,22.653 12.209,22.653 12.182,22.640 12.166,22.624 12.150,22.608 12.120,22.595 12.099,22.595 12.079,22.595 12.057,22.583 12.051,22.568 12.045,22.552 12.016,22.534 11.986,22.528 11.955,22.521 11.926,22.503 11.920,22.488 11.914,22.473 11.898,22.460 11.884,22.460 11.870,22.460 11.844,22.443 11.826,22.422 11.808,22.400 11.775,22.383 11.754,22.383 11.733,22.383 11.715,22.371 11.715,22.356 11.715,22.341 11.686,22.324 11.648,22.317 11.607,22.309 11.580,22.293 11.580,22.276 11.580,22.260 11.563,22.248 11.541,22.248 11.520,22.248 11.503,22.235 11.503,22.220 11.503,22.203 11.476,22.186 11.435,22.179 11.396,22.172 11.368,22.155 11.368,22.139 11.368,22.125 11.354,22.113 11.338,22.113 11.322,22.113 11.304,22.100 11.298,22.085 11.292,22.070 11.263,22.052 11.232,22.045 11.202,22.038 11.173,22.020 11.167,22.005 11.161,21.990 11.143,21.977 11.127,21.977 11.111,21.977 11.097,21.964 11.097,21.948 11.097,21.933 11.082,21.919 11.063,21.919 11.045,21.919 11.009,21.897 10.984,21.871 10.959,21.844 10.926,21.823 10.911,21.823 10.895,21.823 10.888,21.814 10.895,21.804 10.901,21.793 10.886,21.776 10.862,21.767 10.837,21.757 10.796,21.722 10.769,21.689 10.743,21.657 10.715,21.630 10.706,21.630 10.698,21.630 10.674,21.612 10.653,21.591 10.632,21.570 10.601,21.553 10.586,21.553 10.570,21.553 10.557,21.540 10.557,21.525 10.557,21.510 10.540,21.492 10.520,21.486 10.499,21.479 10.478,21.461 10.472,21.446 10.466,21.430 10.448,21.417 10.432,21.417 10.415,21.417 10.402,21.404 10.402,21.388 10.402,21.373 10.389,21.359 10.373,21.359 10.357,21.359 10.344,21.346 10.344,21.331 10.344,21.315 10.330,21.302 10.313,21.302 10.296,21.302 10.278,21.284 10.273,21.263 10.267,21.242 10.246,21.224 10.226,21.224 10.206,21.224 10.190,21.211 10.190,21.196 10.190,21.180 10.170,21.162 10.145,21.156 10.121,21.150 10.076,21.115 10.045,21.078 10.015,21.042 9.979,21.012 9.966,21.012 9.952,21.012 9.936,20.995 9.929,20.973 9.922,20.952 9.905,20.935 9.891,20.935 9.877,20.935 9.861,20.922 9.854,20.906 9.848,20.890 9.830,20.877 9.814,20.877 9.797,20.877 9.784,20.865 9.784,20.850 9.784,20.835 9.767,20.819 9.746,20.813 9.724,20.808 9.707,20.790 9.707,20.775 9.707,20.759 9.689,20.741 9.666,20.735 9.644,20.730 9.631,20.716 9.638,20.706 9.644,20.695 9.623,20.681 9.591,20.674 9.559,20.667 9.533,20.649 9.533,20.635 9.533,20.621 9.516,20.603 9.495,20.597 9.473,20.590 9.456,20.572 9.456,20.557 9.456,20.542 9.439,20.529 9.417,20.529 9.396,20.529 9.379,20.520 9.379,20.509 9.379,20.482 9.020,20.124 8.994,20.124 8.982,20.124 8.973,20.110 8.973,20.094 8.973,20.078 8.960,20.060 8.945,20.054 8.929,20.048 8.911,20.026 8.905,20.006 8.899,19.986 8.882,19.969 8.868,19.969 8.854,19.969 8.838,19.951 8.832,19.929 8.826,19.906 8.813,19.893 8.802,19.900 8.791,19.906 8.777,19.892 8.769,19.868 8.762,19.844 8.726,19.797 8.690,19.763 8.655,19.729 8.626,19.692 8.626,19.681 8.626,19.669 8.612,19.660 8.595,19.660 8.578,19.660 8.559,19.643 8.554,19.622 8.548,19.600 8.532,19.583 8.517,19.583 8.502,19.583 8.490,19.573 8.490,19.561 8.490,19.549 8.460,19.511 8.423,19.475 8.386,19.440 8.355,19.402 8.355,19.391 8.355,19.380 8.344,19.371 8.329,19.371 8.315,19.371 8.294,19.349 8.281,19.322 8.269,19.296 8.252,19.274 8.242,19.274 8.232,19.274 8.219,19.252 8.212,19.226 8.205,19.199 8.187,19.177 8.171,19.177 8.156,19.177 8.143,19.160 8.143,19.139 8.143,19.117 8.130,19.100 8.114,19.100 8.098,19.100 8.085,19.087 8.085,19.071 8.085,19.054 8.072,19.036 8.056,19.030 8.040,19.024 8.027,19.008 8.027,18.994 8.027,18.980 8.005,18.949 7.979,18.924 7.953,18.899 7.931,18.867 7.931,18.854 7.931,18.841 7.921,18.830 7.911,18.830 7.900,18.830 7.883,18.808 7.872,18.782 7.862,18.755 7.845,18.733 7.834,18.733 7.823,18.733 7.815,18.720 7.815,18.704 7.815,18.688 7.797,18.660 7.776,18.642 7.755,18.624 7.737,18.600 7.737,18.588 7.737,18.577 7.720,18.553 7.699,18.535 7.677,18.517 7.660,18.484 7.660,18.463 7.660,18.442 7.647,18.424 7.631,18.424 7.615,18.424 7.602,18.412 7.602,18.396 7.602,18.380 7.585,18.358 7.563,18.347 7.542,18.336 7.525,18.318 7.525,18.308 7.525,18.298 7.477,18.221 7.419,18.136 7.360,18.052 7.312,17.974 7.312,17.962 7.312,17.951 7.304,17.942 7.293,17.942 7.282,17.942 7.265,17.920 7.255,17.893 7.244,17.867 7.228,17.845 7.218,17.845 7.208,17.845 7.194,17.819 7.187,17.787 7.180,17.755 7.163,17.729 7.149,17.729 7.135,17.729 7.118,17.699 7.111,17.662 7.104,17.625 7.088,17.597 7.076,17.599 7.063,17.602 7.050,17.584 7.046,17.560 7.042,17.536 7.028,17.517 7.014,17.517 7.000,17.517 6.983,17.486 6.976,17.449 6.969,17.412 6.956,17.382 6.947,17.382 6.931,17.382 6.901,17.309 6.905,17.280 6.906,17.272 6.898,17.266 6.887,17.266 6.876,17.266 6.859,17.244 6.849,17.217 6.839,17.191 6.822,17.169 6.812,17.169 6.802,17.169 6.789,17.144 6.782,17.113 6.775,17.082 6.758,17.052 6.743,17.047 6.729,17.041 6.712,17.010 6.704,16.977 6.697,16.945 6.679,16.918 6.664,16.918 6.649,16.918 6.637,16.900 6.637,16.879 6.637,16.857 6.624,16.835 6.608,16.829 6.593,16.823 6.574,16.788 6.567,16.752 6.560,16.715 6.543,16.686 6.528,16.686 6.511,16.686 6.501,16.665 6.501,16.628 6.501,16.595 6.489,16.565 6.474,16.559 6.458,16.553 6.440,16.523 6.434,16.493 6.427,16.463 6.410,16.434 6.396,16.429 6.382,16.423 6.364,16.393 6.357,16.361 6.350,16.329 6.332,16.299 6.317,16.293 6.301,16.287 6.289,16.257 6.289,16.224 6.289,16.186 6.279,16.165 6.262,16.165 6.247,16.165 6.230,16.137 6.223,16.099 6.216,16.063 6.198,16.029 6.182,16.023 6.166,16.016 6.154,15.987 6.154,15.953 6.154,15.914 6.144,15.895 6.125,15.895 6.100,15.895 6.084,15.833 6.094,15.773 6.095,15.765 6.083,15.753 6.068,15.747 6.052,15.741 6.033,15.706 6.026,15.669 6.019,15.632 6.003,15.598 5.989,15.593 5.976,15.587 5.959,15.545 5.952,15.499 5.945,15.453 5.927,15.411 5.912,15.405 5.894,15.398 5.883,15.368 5.883,15.327 5.883,15.290 5.871,15.248 5.856,15.233 5.841,15.217 5.823,15.174 5.815,15.136 5.808,15.098 5.790,15.062 5.775,15.057 5.760,15.051 5.748,15.021 5.748,14.990 5.748,14.959 5.736,14.924 5.721,14.912 5.707,14.899 5.689,14.851 5.682,14.805 5.675,14.758 5.658,14.716 5.644,14.710 5.630,14.705 5.614,14.664 5.608,14.619 5.602,14.574 5.587,14.531 5.575,14.524 5.564,14.517 5.549,14.466 5.542,14.411 5.535,14.346 5.521,14.311 5.504,14.311 5.488,14.311 5.477,14.288 5.476,14.248 5.473,14.161 5.453,14.095 5.430,14.103 5.419,14.106 5.408,14.065 5.405,14.012 5.402,13.959 5.388,13.907 5.374,13.896 5.360,13.885 5.343,13.838 5.335,13.790 5.328,13.743 5.313,13.699 5.302,13.692 5.292,13.686 5.275,13.626 5.266,13.560 5.256,13.494 5.241,13.429 5.231,13.417 5.221,13.404 5.207,13.355 5.200,13.308 5.193,13.261 5.178,13.212 5.167,13.199 5.157,13.186 5.140,13.126 5.130,13.064 5.120,13.003 5.104,12.948 5.095,12.942 5.086,12.936 5.072,12.875 5.064,12.806 5.057,12.738 5.038,12.664 5.023,12.643 5.007,12.621 4.995,12.559 4.995,12.502 4.995,12.432 4.986,12.396 4.966,12.385 4.945,12.374 4.933,12.322 4.924,12.210 4.916,12.105 4.904,12.052 4.889,12.052 4.873,12.052 4.862,12.004 4.855,11.915 4.850,11.839 4.835,11.771 4.823,11.763 4.809,11.755 4.796,11.675 4.789,11.567 4.783,11.459 4.769,11.378 4.754,11.366 4.741,11.356 4.725,11.277 4.717,11.192 4.710,11.106 4.691,11.002 4.676,10.960 4.660,10.914 4.649,10.802 4.648,10.681 4.647,10.569 4.637,10.439 4.626,10.391 4.615,10.343 4.597,10.096 4.586,9.841 4.576,9.586 4.560,9.373 4.552,9.368 4.527,9.351 4.512,9.085 4.511,8.620 4.511,8.255 4.505,8.166 4.483,8.143 4.460,8.121 4.455,8.049 4.454,7.791 4.454,7.329 4.432,6.684 4.416,6.694 4.390,6.709 4.377,6.405 4.377,5.776 4.377,5.144 4.377,5.144 4.377,5.144 4.492,5.131 4.492,5.131 4.492,5.131 4.555,5.124 4.609,5.109 4.613,5.098 4.617,5.087 4.706,5.074 4.812,5.068 4.918,5.062 5.022,5.046 5.043,5.033 5.065,5.020 5.169,5.003 5.275,4.995 5.381,4.988 5.474,4.972 5.480,4.961 5.487,4.950 5.578,4.933 5.683,4.923 5.787,4.914 5.877,4.899 5.883,4.890 5.888,4.881 5.966,4.869 6.055,4.863 6.159,4.856 6.223,4.843 6.233,4.827 6.243,4.810 6.302,4.799 6.409,4.796 6.595,4.789 6.662,4.777 6.647,4.755 6.642,4.746 6.724,4.732 6.830,4.725 6.936,4.717 7.018,4.703 7.013,4.694 7.000,4.673 7.049,4.662 7.204,4.649 7.267,4.643 7.325,4.629 7.332,4.617 7.340,4.605 7.401,4.590 7.469,4.585 7.537,4.579 7.610,4.564 7.631,4.551 7.652,4.538 7.715,4.521 7.770,4.514 7.825,4.507 7.894,4.488 7.924,4.472 7.954,4.457 8.010,4.444 8.049,4.444 8.087,4.444 8.130,4.431 8.143,4.415 8.158,4.397 8.200,4.386 8.252,4.386 8.308,4.386 8.341,4.376 8.348,4.358 8.355,4.340 8.402,4.326 8.481,4.317 8.558,4.309 8.608,4.294 8.614,4.277 8.620,4.263 8.653,4.250 8.688,4.249 8.774,4.246 8.841,4.226 8.839,4.202 8.838,4.192 8.881,4.180 8.934,4.177 8.998,4.173 9.031,4.163 9.031,4.146 9.031,4.130 9.068,4.116 9.131,4.109 9.186,4.102 9.236,4.089 9.242,4.079 9.249,4.069 9.295,4.050 9.345,4.037 9.395,4.025 9.437,4.008 9.437,3.999 9.437,3.991 9.468,3.979 9.507,3.971 9.546,3.964 9.596,3.947 9.618,3.932 9.640,3.918 9.687,3.901 9.721,3.894 9.756,3.887 9.784,3.874 9.784,3.865 9.784,3.856 9.815,3.844 9.853,3.837 9.890,3.829 9.926,3.811 9.932,3.796 9.938,3.780 9.966,3.768 9.994,3.768 10.066,3.767 10.133,3.747 10.122,3.729 10.117,3.720 10.147,3.707 10.190,3.700 10.237,3.692 10.267,3.677 10.267,3.660 10.267,3.642 10.289,3.632 10.330,3.631 10.398,3.630 10.491,3.599 10.441,3.594 10.395,3.590 10.480,3.558 10.543,3.557 10.572,3.556 10.601,3.543 10.607,3.528 10.613,3.513 10.647,3.496 10.683,3.489 10.720,3.482 10.750,3.469 10.750,3.460 10.750,3.451 10.774,3.438 10.803,3.431 10.876,3.412 11.039,3.336 11.039,3.321 11.039,3.313 11.065,3.302 11.097,3.295 11.129,3.288 11.162,3.271 11.170,3.258 11.178,3.244 11.218,3.228 11.260,3.221 11.302,3.214 11.343,3.197 11.352,3.182 11.360,3.167 11.398,3.149 11.435,3.141 11.473,3.134 11.499,3.121 11.494,3.112 11.488,3.103 11.518,3.090 11.561,3.082 11.604,3.075 11.638,3.058 11.638,3.044 11.638,3.031 11.665,3.014 11.697,3.008 11.729,3.001 11.769,2.983 11.785,2.967 11.801,2.951 11.836,2.938 11.861,2.938 11.889,2.938 11.908,2.926 11.908,2.911 11.908,2.895 11.937,2.878 11.976,2.871 12.013,2.864 12.043,2.851 12.043,2.841 12.043,2.831 12.073,2.818 12.110,2.811 12.146,2.804 12.180,2.787 12.186,2.773 12.191,2.759 12.221,2.742 12.253,2.735 12.285,2.728 12.315,2.710 12.321,2.695 12.327,2.680 12.354,2.667 12.381,2.667 12.409,2.667 12.436,2.654 12.442,2.638 12.448,2.622 12.468,2.609 12.485,2.609 12.503,2.609 12.533,2.591 12.551,2.570 12.581,2.536 12.604,2.531 12.725,2.536 12.833,2.540 12.864,2.548 12.864,2.571 12.864,2.589 12.887,2.602 12.927,2.606 12.966,2.609 12.990,2.622 12.990,2.639 12.990,2.655 13.007,2.667 13.029,2.667 13.050,2.667 13.073,2.680 13.079,2.695 13.085,2.710 13.116,2.729 13.149,2.736 13.183,2.743 13.222,2.761 13.236,2.776 13.251,2.790 13.280,2.802 13.301,2.802 13.321,2.802 13.343,2.815 13.349,2.831 13.355,2.846 13.389,2.865 13.425,2.871 13.460,2.878 13.494,2.896 13.499,2.910 13.505,2.925 13.532,2.938 13.559,2.938 13.587,2.938 13.614,2.951 13.620,2.967 13.626,2.983 13.666,3.001 13.708,3.008 13.750,3.015 13.795,3.031 13.808,3.044 13.821,3.057 13.861,3.074 13.896,3.082 13.936,3.091 13.952,3.102 13.937,3.111 13.910,3.127 13.954,3.150 14.013,3.150 14.033,3.150 14.061,3.162 14.076,3.177 14.090,3.191 14.129,3.209 14.162,3.216 14.195,3.224 14.227,3.241 14.232,3.255 14.237,3.269 14.273,3.286 14.311,3.293 14.349,3.300 14.380,3.314 14.380,3.324 14.380,3.333 14.410,3.347 14.446,3.354 14.483,3.361 14.517,3.378 14.523,3.393 14.529,3.408 14.554,3.420 14.580,3.420 14.605,3.420 14.637,3.433 14.650,3.449 14.663,3.464 14.703,3.483 14.739,3.489 14.775,3.496 14.805,3.510 14.805,3.520 14.805,3.530 14.814,3.533 14.824,3.526 14.835,3.520 14.843,3.523 14.843,3.533 14.843,3.542 14.878,3.556 14.921,3.563 14.967,3.570 14.996,3.585 14.993,3.599 14.990,3.614 15.015,3.626 15.056,3.629 15.093,3.633 15.130,3.647 15.138,3.661 15.145,3.675 15.190,3.692 15.237,3.699 15.284,3.706 15.328,3.724 15.334,3.740 15.340,3.756 15.370,3.768 15.403,3.768 15.438,3.768 15.467,3.780 15.473,3.796 15.479,3.812 15.514,3.830 15.550,3.837 15.586,3.844 15.616,3.857 15.616,3.866 15.616,3.875 15.648,3.888 15.688,3.895 15.728,3.902 15.779,3.919 15.801,3.932 15.823,3.946 15.882,3.964 15.931,3.971 15.989,3.980 16.021,3.994 16.021,4.011 16.021,4.029 16.044,4.038 16.087,4.038 16.122,4.038 16.162,4.050 16.174,4.065 16.186,4.080 16.235,4.098 16.283,4.105 16.339,4.113 16.369,4.127 16.369,4.146 16.369,4.166 16.394,4.173 16.465,4.173 16.533,4.173 16.565,4.182 16.578,4.205 16.589,4.226 16.630,4.240 16.699,4.246 16.757,4.251 16.812,4.265 16.823,4.278 16.833,4.291 16.885,4.308 16.938,4.315 16.990,4.322 17.039,4.338 17.046,4.349 17.053,4.361 17.102,4.375 17.153,4.381 17.205,4.387 17.256,4.402 17.267,4.415 17.277,4.428 17.338,4.445 17.401,4.452 17.465,4.459 17.522,4.473 17.529,4.484 17.535,4.495 17.592,4.509 17.655,4.515 17.718,4.521 17.782,4.537 17.798,4.550 17.814,4.563 17.891,4.580 17.970,4.588 18.051,4.595 18.124,4.613 18.140,4.629 18.158,4.647 18.210,4.656 18.292,4.656 18.384,4.656 18.416,4.663 18.416,4.683 18.416,4.703 18.465,4.713 18.617,4.723 18.763,4.733 18.821,4.744 18.829,4.764 18.837,4.784 18.878,4.791 18.990,4.792 19.072,4.792 19.153,4.800 19.169,4.811 19.185,4.821 19.189,4.831 19.179,4.832 19.130,4.839 19.347,4.866 19.462,4.867 19.540,4.868 19.593,4.877 19.598,4.891 19.602,4.904 19.681,4.919 19.795,4.927 19.899,4.935 19.990,4.951 19.997,4.962 20.004,4.973 20.098,4.988 20.206,4.996 20.327,5.004 20.406,5.018 20.411,5.032 20.416,5.044 20.462,5.056 20.514,5.058 20.650,5.064 20.752,5.082 20.752,5.101 20.752,5.110 20.813,5.123 20.888,5.131 21.023,5.144 21.023,5.144 21.023,5.144 21.023,5.668 21.023,5.668 21.023,5.668 21.022,6.204 21.008,6.515 20.984,6.500 20.967,6.490 20.945,7.132 20.945,7.660 20.945,8.000 20.941,8.072 20.917,8.081 20.894,8.090 20.889,8.167 20.888,8.541 20.887,9.017 20.873,9.294 20.847,9.310 20.839,9.316 20.826,9.511 20.820,9.745 20.813,9.978 20.799,10.195 20.789,10.227 20.778,10.259 20.762,10.423 20.752,10.591 20.741,10.759 20.725,10.911 20.715,10.930 20.705,10.949 20.691,11.033 20.684,11.117 20.678,11.201 20.667,11.283 20.661,11.299 20.655,11.315 20.648,11.332 20.646,11.337 20.644,11.343 20.638,11.360 20.631,11.376 20.625,11.392 20.616,11.469 20.611,11.547 20.607,11.625 20.593,11.696 20.580,11.703 20.568,11.711 20.553,11.791 20.546,11.885 20.538,12.000 20.527,12.052 20.510,12.052 20.493,12.052 20.481,12.104 20.472,12.215 20.463,12.317 20.449,12.381 20.434,12.387 20.419,12.393 20.406,12.444 20.401,12.515 20.396,12.581 20.383,12.640 20.371,12.647 20.360,12.655 20.344,12.723 20.336,12.800 20.327,12.899 20.315,12.940 20.296,12.940 20.277,12.940 20.270,12.967 20.269,13.032 20.269,13.082 20.256,13.148 20.241,13.179 20.225,13.209 20.203,13.287 20.193,13.351 20.183,13.416 20.166,13.473 20.157,13.479 20.148,13.486 20.135,13.533 20.130,13.585 20.124,13.636 20.111,13.684 20.100,13.691 20.090,13.698 20.075,13.749 20.067,13.804 20.058,13.870 20.044,13.906 20.027,13.906 20.010,13.906 19.999,13.938 19.995,14.007 19.992,14.063 19.981,14.106 19.970,14.103 19.947,14.095 19.927,14.161 19.924,14.248 19.923,14.288 19.912,14.311 19.896,14.311 19.879,14.311 19.865,14.346 19.858,14.411 19.851,14.466 19.836,14.517 19.825,14.524 19.813,14.531 19.798,14.574 19.792,14.619 19.786,14.664 19.770,14.705 19.756,14.710 19.742,14.716 19.725,14.758 19.718,14.805 19.711,14.851 19.693,14.899 19.679,14.912 19.664,14.924 19.652,14.959 19.652,14.990 19.652,15.021 19.640,15.051 19.625,15.057 19.610,15.062 19.592,15.098 19.585,15.136 19.577,15.174 19.559,15.217 19.544,15.233 19.529,15.248 19.517,15.290 19.517,15.327 19.517,15.368 19.506,15.398 19.488,15.405 19.472,15.411 19.454,15.445 19.447,15.481 19.440,15.519 19.423,15.547 19.408,15.547 19.391,15.547 19.381,15.570 19.380,15.610 19.379,15.669 19.347,15.773 19.344,15.731 19.340,15.690 19.305,15.771 19.304,15.820 19.304,15.848 19.292,15.876 19.277,15.882 19.262,15.887 19.244,15.920 19.236,15.955 19.228,15.990 19.210,16.030 19.196,16.045 19.181,16.059 19.169,16.088 19.169,16.109 19.169,16.130 19.156,16.152 19.140,16.158 19.124,16.164 19.116,16.176 19.121,16.185 19.127,16.194 19.122,16.206 19.111,16.213 19.101,16.220 19.092,16.238 19.092,16.254 19.092,16.270 19.079,16.297 19.063,16.313 19.047,16.329 19.034,16.359 19.034,16.379 19.034,16.400 19.021,16.422 19.006,16.428 18.991,16.434 18.973,16.463 18.966,16.493 18.960,16.523 18.942,16.553 18.926,16.559 18.911,16.565 18.899,16.586 18.899,16.606 18.899,16.626 18.881,16.662 18.860,16.686 18.839,16.711 18.821,16.743 18.821,16.757 18.821,16.771 18.808,16.783 18.792,16.783 18.774,16.783 18.763,16.802 18.763,16.837 18.763,16.866 18.746,16.905 18.725,16.923 18.704,16.941 18.686,16.973 18.686,16.993 18.686,17.013 18.674,17.035 18.659,17.040 18.644,17.046 18.626,17.077 18.619,17.108 18.612,17.140 18.594,17.171 18.579,17.177 18.564,17.182 18.551,17.200 18.551,17.215 18.551,17.230 18.539,17.247 18.524,17.253 18.509,17.258 18.491,17.290 18.484,17.322 18.477,17.355 18.463,17.382 18.453,17.382 18.444,17.382 18.414,17.429 18.387,17.486 18.360,17.543 18.325,17.595 18.309,17.601 18.293,17.607 18.281,17.634 18.281,17.662 18.281,17.689 18.268,17.716 18.252,17.722 18.236,17.728 18.223,17.746 18.223,17.761 18.223,17.776 18.210,17.793 18.195,17.799 18.167,17.809 18.134,17.878 18.141,17.907 18.143,17.915 18.128,17.930 18.107,17.942 18.086,17.953 18.068,17.971 18.068,17.982 18.068,17.992 18.051,18.020 18.030,18.043 18.008,18.065 17.991,18.094 17.991,18.107 17.991,18.120 17.978,18.136 17.962,18.142 17.946,18.148 17.933,18.166 17.933,18.182 17.933,18.199 17.924,18.212 17.913,18.212 17.902,18.212 17.884,18.237 17.873,18.268 17.862,18.299 17.841,18.329 17.826,18.335 17.810,18.341 17.798,18.364 17.798,18.385 17.798,18.407 17.786,18.424 17.770,18.424 17.755,18.424 17.737,18.452 17.730,18.485 17.720,18.529 17.712,18.538 17.700,18.519 17.688,18.499 17.680,18.509 17.671,18.555 17.664,18.589 17.646,18.617 17.631,18.617 17.617,18.617 17.605,18.629 17.605,18.642 17.605,18.656 17.587,18.682 17.566,18.700 17.545,18.718 17.528,18.750 17.528,18.772 17.528,18.793 17.516,18.811 17.502,18.811 17.487,18.811 17.466,18.832 17.454,18.859 17.442,18.885 17.424,18.907 17.414,18.907 17.405,18.907 17.392,18.925 17.387,18.946 17.371,19.005 17.369,19.009 17.311,19.066 17.281,19.095 17.257,19.127 17.257,19.137 17.257,19.148 17.240,19.166 17.219,19.177 17.197,19.189 17.180,19.211 17.180,19.226 17.180,19.242 17.167,19.255 17.151,19.255 17.135,19.255 17.122,19.268 17.122,19.284 17.122,19.300 17.105,19.328 17.083,19.346 17.062,19.364 17.045,19.390 17.045,19.404 17.045,19.417 17.031,19.428 17.014,19.428 16.997,19.428 16.979,19.446 16.973,19.467 16.968,19.488 16.951,19.506 16.936,19.506 16.922,19.506 16.910,19.517 16.910,19.530 16.910,19.543 16.879,19.580 16.842,19.611 16.805,19.642 16.774,19.678 16.774,19.692 16.774,19.707 16.762,19.718 16.748,19.718 16.733,19.718 16.716,19.735 16.711,19.757 16.705,19.778 16.687,19.795 16.670,19.795 16.653,19.795 16.639,19.808 16.639,19.824 16.639,19.840 16.626,19.853 16.610,19.853 16.594,19.853 16.581,19.862 16.581,19.873 16.581,19.899 16.418,20.066 16.393,20.066 16.374,20.066 16.343,20.136 16.348,20.167 16.349,20.175 16.341,20.182 16.330,20.182 16.305,20.182 16.079,20.411 16.079,20.436 16.079,20.446 16.071,20.449 16.060,20.442 16.049,20.436 16.031,20.452 16.019,20.479 16.006,20.506 15.990,20.524 15.982,20.519 15.974,20.514 15.947,20.532 15.922,20.558 15.897,20.584 15.866,20.606 15.852,20.606 15.839,20.606 15.828,20.620 15.828,20.637 15.828,20.654 15.811,20.672 15.790,20.678 15.768,20.684 15.751,20.700 15.751,20.715 15.751,20.730 15.740,20.742 15.727,20.742 15.713,20.742 15.677,20.772 15.646,20.809 15.615,20.846 15.578,20.877 15.564,20.877 15.550,20.877 15.539,20.889 15.539,20.903 15.539,20.918 15.521,20.935 15.500,20.940 15.479,20.946 15.461,20.964 15.461,20.981 15.461,20.998 15.450,21.012 15.437,21.012 15.423,21.012 15.397,21.029 15.379,21.051 15.361,21.072 15.333,21.089 15.317,21.089 15.301,21.089 15.288,21.102 15.288,21.117 15.288,21.132 15.271,21.150 15.251,21.156 15.230,21.163 15.209,21.181 15.203,21.196 15.197,21.212 15.179,21.224 15.163,21.224 15.146,21.224 15.133,21.238 15.133,21.255 15.133,21.272 15.116,21.290 15.094,21.296 15.073,21.302 15.056,21.318 15.056,21.333 15.056,21.347 15.043,21.359 15.026,21.359 15.010,21.359 14.992,21.373 14.986,21.388 14.979,21.404 14.962,21.417 14.948,21.417 14.933,21.417 14.921,21.430 14.921,21.446 14.921,21.462 14.909,21.475 14.894,21.475 14.879,21.475 14.846,21.497 14.821,21.523 14.796,21.550 14.765,21.571 14.752,21.572 14.738,21.572 14.728,21.585 14.728,21.601 14.728,21.617 14.715,21.630 14.699,21.630 14.684,21.630 14.662,21.647 14.650,21.668 14.639,21.690 14.617,21.707 14.601,21.707 14.586,21.707 14.573,21.719 14.573,21.734 14.573,21.748 14.555,21.765 14.533,21.771 14.510,21.777 14.497,21.791 14.504,21.801 14.511,21.813 14.487,21.826 14.448,21.834 14.399,21.843 14.380,21.857 14.380,21.883 14.380,21.907 14.366,21.919 14.341,21.919 14.320,21.919 14.303,21.932 14.303,21.948 14.303,21.964 14.289,21.977 14.273,21.977 14.257,21.977 14.239,21.990 14.233,22.005 14.227,22.020 14.197,22.039 14.166,22.045 14.135,22.052 14.110,22.065 14.110,22.074 14.110,22.090 14.072,22.114 13.955,22.174 13.929,22.188 13.900,22.209 13.892,22.222 13.884,22.234 13.852,22.250 13.821,22.257 13.791,22.264 13.760,22.282 13.755,22.297 13.749,22.312 13.731,22.325 13.714,22.325 13.698,22.325 13.685,22.338 13.685,22.354 13.685,22.372 13.667,22.383 13.638,22.383 13.612,22.383 13.576,22.398 13.557,22.417 13.522,22.452 13.471,22.485 13.400,22.517 13.376,22.528 13.357,22.545 13.357,22.555 13.357,22.566 13.327,22.580 13.290,22.587 13.254,22.594 13.219,22.611 13.214,22.626 13.208,22.641 13.187,22.653 13.167,22.653 13.147,22.653 13.111,22.671 13.086,22.692 13.062,22.713 13.017,22.731 12.987,22.731 12.951,22.731 12.932,22.741 12.932,22.759 12.932,22.779 12.912,22.788 12.872,22.788 12.828,22.788 12.810,22.799 12.802,22.827 12.794,22.860 12.776,22.866 12.688,22.866 12.608,22.866 12.576,22.857 12.551,22.827 Z M 12.809,22.084 C 12.815,22.068 12.836,22.055 12.855,22.055 12.875,22.055 12.903,22.041 12.920,22.025 12.936,22.009 12.975,21.991 13.008,21.984 13.040,21.978 13.067,21.966 13.067,21.957 13.067,21.949 13.093,21.936 13.125,21.929 13.157,21.922 13.183,21.909 13.183,21.900 13.183,21.891 13.209,21.878 13.242,21.871 13.275,21.864 13.306,21.846 13.311,21.832 13.317,21.818 13.347,21.800 13.377,21.794 13.408,21.787 13.434,21.773 13.434,21.763 13.434,21.753 13.449,21.739 13.468,21.732 13.486,21.725 13.513,21.708 13.527,21.694 13.541,21.680 13.569,21.668 13.590,21.668 13.610,21.668 13.627,21.655 13.627,21.639 13.627,21.623 13.644,21.611 13.666,21.611 13.687,21.611 13.719,21.593 13.738,21.572 13.756,21.551 13.781,21.533 13.793,21.533 13.806,21.533 13.821,21.520 13.827,21.504 13.833,21.488 13.860,21.475 13.887,21.475 13.918,21.475 13.936,21.464 13.936,21.446 13.936,21.430 13.953,21.417 13.974,21.417 13.996,21.417 14.013,21.408 14.013,21.397 14.013,21.386 14.038,21.368 14.069,21.357 14.100,21.346 14.131,21.325 14.136,21.310 14.142,21.295 14.160,21.282 14.177,21.282 14.193,21.282 14.206,21.274 14.206,21.263 14.206,21.252 14.219,21.244 14.234,21.244 14.249,21.244 14.267,21.226 14.274,21.205 14.281,21.183 14.292,21.169 14.299,21.173 14.324,21.188 14.402,21.147 14.389,21.127 14.382,21.115 14.394,21.101 14.417,21.095 14.439,21.089 14.457,21.073 14.457,21.058 14.457,21.043 14.471,21.031 14.487,21.031 14.503,21.031 14.521,21.018 14.527,21.002 14.534,20.986 14.551,20.973 14.566,20.973 14.580,20.973 14.592,20.960 14.592,20.944 14.592,20.928 14.606,20.915 14.622,20.915 14.638,20.915 14.666,20.898 14.684,20.877 14.702,20.855 14.728,20.838 14.742,20.838 14.755,20.838 14.766,20.825 14.766,20.809 14.766,20.793 14.780,20.780 14.796,20.780 14.812,20.780 14.830,20.767 14.836,20.751 14.843,20.735 14.860,20.722 14.874,20.722 14.889,20.722 14.901,20.710 14.901,20.696 14.901,20.681 14.920,20.664 14.942,20.658 14.966,20.652 14.977,20.639 14.969,20.626 14.961,20.613 14.972,20.599 14.996,20.593 15.018,20.587 15.037,20.571 15.037,20.556 15.037,20.541 15.050,20.529 15.066,20.529 15.082,20.529 15.110,20.512 15.128,20.491 15.146,20.469 15.172,20.452 15.186,20.452 15.199,20.452 15.210,20.439 15.210,20.423 15.210,20.407 15.224,20.394 15.240,20.394 15.256,20.394 15.274,20.381 15.281,20.365 15.287,20.349 15.304,20.336 15.319,20.336 15.333,20.336 15.346,20.323 15.346,20.307 15.346,20.291 15.359,20.278 15.374,20.278 15.390,20.278 15.403,20.266 15.403,20.251 15.403,20.237 15.421,20.220 15.442,20.215 15.463,20.209 15.481,20.191 15.481,20.174 15.481,20.157 15.489,20.143 15.500,20.143 15.510,20.143 15.550,20.113 15.588,20.075 15.626,20.038 15.670,20.008 15.685,20.008 15.700,20.008 15.712,19.995 15.712,19.979 15.712,19.963 15.730,19.950 15.751,19.950 15.772,19.950 15.790,19.940 15.790,19.928 15.790,19.916 15.871,19.825 15.971,19.726 16.071,19.627 16.147,19.541 16.141,19.535 16.134,19.529 16.148,19.519 16.171,19.512 16.194,19.506 16.218,19.485 16.225,19.465 16.231,19.445 16.249,19.428 16.264,19.428 16.279,19.428 16.292,19.416 16.292,19.400 16.292,19.385 16.322,19.343 16.359,19.307 16.396,19.271 16.427,19.231 16.427,19.219 16.427,19.207 16.440,19.197 16.456,19.197 16.472,19.197 16.485,19.184 16.485,19.168 16.485,19.152 16.499,19.139 16.516,19.139 16.533,19.139 16.551,19.121 16.556,19.100 16.562,19.079 16.579,19.062 16.593,19.062 16.608,19.062 16.620,19.049 16.620,19.033 16.620,19.017 16.633,19.004 16.649,19.004 16.665,19.004 16.678,18.990 16.678,18.974 16.678,18.958 16.691,18.939 16.707,18.933 16.723,18.927 16.736,18.910 16.736,18.895 16.736,18.881 16.748,18.868 16.763,18.868 16.777,18.868 16.795,18.846 16.802,18.819 16.809,18.792 16.822,18.775 16.832,18.782 16.842,18.788 16.856,18.771 16.863,18.744 16.870,18.717 16.887,18.695 16.902,18.695 16.917,18.695 16.929,18.681 16.929,18.665 16.929,18.649 16.942,18.631 16.958,18.624 16.974,18.618 16.987,18.601 16.987,18.586 16.987,18.572 16.999,18.559 17.014,18.559 17.029,18.559 17.047,18.534 17.054,18.503 17.061,18.472 17.079,18.442 17.094,18.436 17.110,18.430 17.122,18.412 17.122,18.396 17.122,18.380 17.135,18.366 17.151,18.366 17.167,18.366 17.180,18.357 17.180,18.346 17.180,18.321 17.259,18.207 17.291,18.187 17.304,18.178 17.315,18.159 17.315,18.143 17.315,18.128 17.328,18.115 17.344,18.115 17.360,18.115 17.373,18.098 17.373,18.077 17.373,18.055 17.390,18.023 17.412,18.005 17.433,17.986 17.450,17.961 17.450,17.949 17.450,17.937 17.463,17.921 17.479,17.915 17.495,17.909 17.508,17.886 17.508,17.864 17.508,17.842 17.521,17.819 17.537,17.813 17.553,17.807 17.566,17.790 17.566,17.775 17.566,17.760 17.579,17.742 17.595,17.736 17.611,17.730 17.624,17.714 17.624,17.701 17.624,17.688 17.641,17.661 17.663,17.642 17.684,17.623 17.701,17.595 17.701,17.581 17.701,17.566 17.714,17.549 17.730,17.543 17.746,17.537 17.759,17.521 17.759,17.507 17.759,17.494 17.772,17.472 17.787,17.460 17.802,17.447 17.818,17.418 17.821,17.395 17.825,17.372 17.838,17.355 17.851,17.357 17.863,17.360 17.879,17.331 17.886,17.295 17.893,17.258 17.906,17.232 17.916,17.238 17.925,17.244 17.942,17.226 17.952,17.199 17.962,17.172 17.980,17.150 17.991,17.150 18.001,17.150 18.010,17.128 18.010,17.101 18.010,17.074 18.023,17.047 18.038,17.041 18.053,17.036 18.071,17.005 18.078,16.974 18.085,16.943 18.099,16.918 18.109,16.918 18.119,16.918 18.133,16.903 18.140,16.884 18.147,16.866 18.164,16.839 18.178,16.825 18.192,16.811 18.203,16.783 18.203,16.762 18.203,16.742 18.216,16.725 18.232,16.725 18.248,16.725 18.261,16.708 18.261,16.688 18.261,16.667 18.274,16.638 18.290,16.622 18.306,16.606 18.319,16.581 18.319,16.567 18.319,16.552 18.337,16.526 18.358,16.507 18.379,16.489 18.397,16.457 18.397,16.436 18.397,16.414 18.409,16.397 18.425,16.397 18.445,16.397 18.454,16.377 18.454,16.339 18.454,16.302 18.464,16.281 18.481,16.281 18.496,16.281 18.513,16.252 18.520,16.215 18.527,16.179 18.546,16.145 18.561,16.139 18.577,16.133 18.590,16.106 18.590,16.079 18.590,16.052 18.597,16.030 18.607,16.030 18.628,16.030 18.705,15.886 18.705,15.847 18.705,15.832 18.717,15.808 18.732,15.794 18.747,15.779 18.765,15.740 18.772,15.707 18.779,15.674 18.798,15.642 18.813,15.636 18.829,15.630 18.841,15.600 18.841,15.567 18.841,15.528 18.850,15.508 18.870,15.508 18.889,15.508 18.899,15.489 18.899,15.452 18.899,15.382 18.917,15.332 18.938,15.345 18.946,15.350 18.959,15.320 18.966,15.278 18.973,15.237 18.991,15.198 19.006,15.192 19.022,15.186 19.034,15.156 19.034,15.123 19.034,15.091 19.042,15.064 19.053,15.064 19.064,15.064 19.072,15.053 19.072,15.040 19.072,15.026 19.090,14.983 19.111,14.943 19.132,14.904 19.150,14.860 19.150,14.847 19.150,14.834 19.162,14.800 19.177,14.771 19.192,14.743 19.210,14.685 19.217,14.643 19.224,14.600 19.242,14.561 19.257,14.555 19.273,14.549 19.285,14.518 19.285,14.486 19.285,14.453 19.293,14.427 19.303,14.427 19.313,14.427 19.327,14.395 19.333,14.355 19.357,14.207 19.364,14.186 19.380,14.213 19.390,14.229 19.401,14.195 19.410,14.122 19.418,14.049 19.434,14.001 19.451,13.995 19.467,13.988 19.478,13.957 19.478,13.918 19.478,13.882 19.490,13.843 19.504,13.831 19.519,13.818 19.535,13.769 19.541,13.720 19.546,13.671 19.559,13.625 19.569,13.619 19.580,13.612 19.593,13.568 19.599,13.522 19.605,13.475 19.619,13.431 19.629,13.425 19.640,13.418 19.655,13.359 19.662,13.292 19.670,13.226 19.683,13.172 19.692,13.172 19.706,13.172 19.727,13.069 19.734,12.965 19.736,12.941 19.748,12.918 19.762,12.912 19.777,12.907 19.787,12.870 19.787,12.820 19.787,12.775 19.799,12.715 19.813,12.687 19.828,12.659 19.846,12.586 19.854,12.523 19.862,12.460 19.878,12.403 19.889,12.396 19.901,12.389 19.914,12.324 19.919,12.251 19.923,12.179 19.938,12.111 19.951,12.100 19.965,12.090 19.980,12.016 19.986,11.938 19.993,11.859 20.006,11.789 20.015,11.783 20.025,11.777 20.040,11.707 20.047,11.627 20.055,11.547 20.070,11.472 20.080,11.459 20.091,11.446 20.104,11.368 20.110,11.285 20.115,11.202 20.129,11.118 20.139,11.097 20.150,11.077 20.167,10.947 20.177,10.808 20.200,10.478 20.203,10.451 20.218,10.436 20.225,10.429 20.231,10.316 20.231,10.184 20.231,10.052 20.243,9.843 20.259,9.719 20.274,9.595 20.291,9.307 20.298,9.079 20.304,8.851 20.317,8.660 20.328,8.653 20.338,8.647 20.351,8.355 20.359,7.957 20.367,7.525 20.379,7.268 20.392,7.260 20.405,7.251 20.415,6.969 20.420,6.466 20.429,5.685 20.429,5.685 20.429,5.685 20.311,5.672 20.311,5.672 20.311,5.672 20.246,5.664 20.192,5.651 20.192,5.642 20.192,5.632 20.134,5.619 20.062,5.612 19.990,5.604 19.894,5.586 19.849,5.571 19.803,5.557 19.716,5.544 19.655,5.544 19.587,5.544 19.529,5.533 19.506,5.516 19.482,5.498 19.423,5.487 19.348,5.487 19.282,5.487 19.195,5.474 19.155,5.459 19.115,5.444 19.014,5.428 18.930,5.423 18.847,5.419 18.773,5.406 18.766,5.395 18.759,5.384 18.682,5.369 18.595,5.361 18.507,5.354 18.439,5.341 18.444,5.333 18.456,5.314 18.310,5.293 18.173,5.293 18.113,5.293 18.060,5.283 18.045,5.267 18.030,5.253 17.964,5.237 17.897,5.232 17.830,5.227 17.770,5.214 17.763,5.202 17.755,5.191 17.690,5.175 17.617,5.167 17.543,5.159 17.461,5.141 17.433,5.127 17.405,5.112 17.352,5.100 17.315,5.100 17.277,5.100 17.229,5.088 17.208,5.074 17.187,5.059 17.123,5.043 17.065,5.038 17.007,5.032 16.956,5.018 16.952,5.006 16.948,4.994 16.918,4.984 16.884,4.984 16.850,4.984 16.798,4.971 16.767,4.955 16.736,4.939 16.676,4.920 16.632,4.913 16.589,4.906 16.541,4.889 16.527,4.875 16.513,4.861 16.467,4.849 16.426,4.849 16.384,4.849 16.350,4.840 16.350,4.829 16.350,4.818 16.341,4.814 16.330,4.820 16.320,4.827 16.311,4.823 16.311,4.812 16.311,4.800 16.287,4.791 16.258,4.791 16.183,4.791 16.117,4.770 16.128,4.752 16.134,4.743 16.099,4.730 16.051,4.723 16.003,4.716 15.968,4.703 15.973,4.695 15.984,4.677 15.916,4.657 15.843,4.656 15.809,4.656 15.790,4.646 15.790,4.627 15.790,4.607 15.769,4.598 15.723,4.598 15.687,4.598 15.652,4.591 15.647,4.582 15.641,4.573 15.560,4.541 15.467,4.510 15.374,4.480 15.290,4.443 15.282,4.430 15.273,4.416 15.241,4.405 15.209,4.405 15.172,4.405 15.152,4.395 15.152,4.376 15.152,4.356 15.132,4.347 15.090,4.347 15.022,4.347 14.942,4.311 14.998,4.307 15.014,4.305 14.988,4.297 14.941,4.287 14.894,4.278 14.848,4.257 14.839,4.241 14.830,4.225 14.798,4.212 14.767,4.212 14.736,4.212 14.708,4.199 14.701,4.183 14.695,4.166 14.666,4.154 14.633,4.154 14.602,4.154 14.564,4.142 14.549,4.127 14.535,4.113 14.495,4.095 14.461,4.087 14.427,4.080 14.399,4.066 14.399,4.057 14.399,4.048 14.369,4.034 14.333,4.028 14.297,4.021 14.262,4.003 14.256,3.988 14.251,3.973 14.224,3.961 14.197,3.961 14.169,3.961 14.142,3.948 14.136,3.932 14.130,3.916 14.104,3.903 14.078,3.903 14.052,3.903 14.027,3.891 14.021,3.876 14.015,3.861 13.981,3.843 13.944,3.836 13.908,3.830 13.878,3.816 13.878,3.806 13.878,3.797 13.848,3.783 13.810,3.776 13.772,3.769 13.743,3.752 13.743,3.737 13.743,3.720 13.722,3.710 13.686,3.710 13.655,3.710 13.617,3.697 13.600,3.681 13.584,3.665 13.545,3.646 13.513,3.640 13.482,3.634 13.451,3.616 13.445,3.602 13.440,3.587 13.418,3.575 13.398,3.575 13.378,3.575 13.350,3.562 13.337,3.546 13.324,3.530 13.297,3.517 13.277,3.517 13.257,3.517 13.241,3.508 13.241,3.496 13.241,3.485 13.232,3.481 13.221,3.488 13.211,3.494 13.202,3.491 13.202,3.479 13.202,3.468 13.186,3.459 13.166,3.459 13.146,3.459 13.119,3.447 13.107,3.432 13.095,3.417 13.063,3.399 13.037,3.393 13.011,3.386 12.990,3.373 12.990,3.363 12.990,3.354 12.964,3.341 12.933,3.334 12.902,3.327 12.872,3.309 12.866,3.294 12.851,3.254 12.617,3.255 12.577,3.295 12.561,3.311 12.536,3.324 12.521,3.324 12.506,3.324 12.473,3.341 12.449,3.362 12.424,3.384 12.385,3.401 12.361,3.401 12.337,3.401 12.313,3.414 12.307,3.430 12.301,3.446 12.282,3.459 12.266,3.459 12.250,3.459 12.237,3.467 12.237,3.477 12.237,3.487 12.206,3.501 12.169,3.508 12.130,3.516 12.101,3.533 12.101,3.548 12.101,3.563 12.082,3.575 12.054,3.575 12.029,3.575 11.996,3.587 11.981,3.601 11.967,3.616 11.934,3.634 11.908,3.642 11.883,3.650 11.850,3.669 11.835,3.683 11.821,3.698 11.788,3.710 11.762,3.710 11.733,3.710 11.715,3.721 11.715,3.739 11.715,3.756 11.697,3.768 11.672,3.768 11.597,3.769 11.535,3.791 11.563,3.808 11.578,3.817 11.562,3.827 11.517,3.836 11.478,3.843 11.436,3.861 11.424,3.876 11.412,3.891 11.376,3.903 11.346,3.903 11.311,3.903 11.290,3.913 11.290,3.930 11.290,3.945 11.261,3.962 11.223,3.969 11.186,3.976 11.155,3.990 11.155,3.999 11.155,4.008 11.129,4.022 11.097,4.029 11.065,4.036 11.039,4.049 11.039,4.059 11.039,4.069 11.024,4.077 11.005,4.077 10.987,4.077 10.939,4.094 10.899,4.115 10.859,4.137 10.815,4.154 10.800,4.154 10.786,4.154 10.764,4.166 10.752,4.181 10.740,4.195 10.695,4.213 10.652,4.220 10.609,4.226 10.579,4.240 10.585,4.249 10.591,4.259 10.561,4.272 10.518,4.280 10.476,4.287 10.441,4.300 10.441,4.309 10.441,4.319 10.406,4.336 10.364,4.347 10.322,4.358 10.283,4.376 10.276,4.386 10.270,4.397 10.239,4.405 10.207,4.405 10.174,4.405 10.145,4.417 10.139,4.434 10.133,4.450 10.113,4.463 10.096,4.463 10.078,4.463 10.031,4.480 9.992,4.502 9.952,4.523 9.903,4.540 9.883,4.540 9.863,4.540 9.836,4.553 9.823,4.569 9.810,4.585 9.774,4.598 9.743,4.598 9.713,4.598 9.688,4.608 9.688,4.621 9.688,4.633 9.682,4.638 9.675,4.631 9.668,4.624 9.652,4.626 9.641,4.636 9.629,4.646 9.595,4.657 9.565,4.661 9.535,4.665 9.505,4.678 9.498,4.689 9.491,4.701 9.434,4.716 9.372,4.724 9.310,4.732 9.269,4.745 9.282,4.752 9.309,4.769 9.242,4.791 9.161,4.791 9.132,4.791 9.108,4.800 9.108,4.812 9.108,4.823 9.100,4.827 9.089,4.820 9.078,4.814 9.070,4.816 9.070,4.826 9.070,4.836 9.029,4.849 8.980,4.854 8.931,4.860 8.885,4.874 8.878,4.885 8.871,4.896 8.827,4.911 8.779,4.919 8.732,4.926 8.688,4.941 8.681,4.951 8.674,4.961 8.627,4.974 8.575,4.980 8.523,4.985 8.476,4.998 8.470,5.007 8.464,5.016 8.410,5.032 8.350,5.042 8.290,5.051 8.226,5.067 8.206,5.077 8.187,5.087 8.129,5.100 8.077,5.107 8.025,5.114 7.973,5.127 7.961,5.136 7.950,5.146 7.892,5.159 7.834,5.167 7.776,5.174 7.723,5.188 7.717,5.198 7.712,5.207 7.642,5.221 7.563,5.228 7.483,5.235 7.402,5.253 7.381,5.267 7.360,5.282 7.311,5.293 7.272,5.293 7.163,5.293 7.023,5.316 7.033,5.332 7.038,5.340 6.957,5.353 6.854,5.361 6.750,5.368 6.660,5.384 6.653,5.394 6.647,5.405 6.566,5.421 6.474,5.431 6.382,5.440 6.290,5.456 6.270,5.467 6.250,5.478 6.186,5.486 6.127,5.486 6.069,5.486 6.015,5.495 6.009,5.506 6.002,5.517 5.989,5.521 5.980,5.515 5.971,5.510 5.958,5.514 5.951,5.525 5.945,5.536 5.889,5.544 5.827,5.544 5.765,5.544 5.672,5.557 5.620,5.573 5.569,5.588 5.450,5.606 5.357,5.613 5.264,5.620 5.188,5.632 5.188,5.641 5.188,5.651 5.148,5.664 5.099,5.671 5.009,5.685 5.009,5.685 5.009,5.685 5.020,6.469 5.020,6.469 5.020,6.469 5.034,7.496 5.073,8.699 5.092,8.711 5.100,8.717 5.113,8.908 5.120,9.136 5.127,9.364 5.146,9.657 5.161,9.786 5.176,9.915 5.188,10.115 5.189,10.230 5.189,10.345 5.202,10.518 5.218,10.613 5.233,10.709 5.246,10.844 5.246,10.913 5.246,10.982 5.256,11.069 5.267,11.106 5.278,11.143 5.295,11.238 5.305,11.317 5.315,11.396 5.330,11.465 5.340,11.471 5.350,11.477 5.364,11.556 5.372,11.646 5.380,11.737 5.395,11.816 5.407,11.824 5.418,11.831 5.431,11.891 5.435,11.959 5.439,12.026 5.454,12.090 5.468,12.100 5.481,12.111 5.496,12.178 5.501,12.251 5.505,12.324 5.519,12.389 5.532,12.397 5.544,12.405 5.560,12.473 5.567,12.550 5.574,12.629 5.591,12.698 5.606,12.711 5.621,12.723 5.632,12.770 5.632,12.822 5.632,12.872 5.644,12.929 5.659,12.950 5.673,12.971 5.691,13.030 5.699,13.080 5.706,13.131 5.720,13.172 5.730,13.172 5.740,13.172 5.748,13.193 5.748,13.218 5.748,13.243 5.766,13.318 5.787,13.384 5.808,13.451 5.826,13.526 5.826,13.552 5.826,13.578 5.839,13.613 5.855,13.628 5.870,13.644 5.883,13.686 5.883,13.720 5.883,13.754 5.896,13.799 5.912,13.820 5.927,13.841 5.940,13.886 5.941,13.921 5.941,13.957 5.953,13.989 5.969,13.995 5.986,14.001 6.001,14.049 6.009,14.122 6.017,14.187 6.029,14.228 6.037,14.215 6.054,14.188 6.076,14.254 6.076,14.334 6.076,14.362 6.090,14.399 6.106,14.415 6.121,14.431 6.135,14.466 6.135,14.494 6.135,14.522 6.148,14.549 6.163,14.555 6.179,14.561 6.193,14.589 6.193,14.617 6.193,14.646 6.211,14.703 6.231,14.746 6.252,14.788 6.269,14.836 6.269,14.852 6.269,14.869 6.281,14.899 6.296,14.920 6.310,14.941 6.328,14.982 6.335,15.011 6.342,15.040 6.356,15.064 6.367,15.064 6.377,15.064 6.386,15.090 6.386,15.121 6.386,15.152 6.397,15.189 6.412,15.203 6.426,15.218 6.443,15.261 6.451,15.300 6.458,15.338 6.477,15.374 6.492,15.380 6.509,15.387 6.521,15.416 6.521,15.451 6.521,15.485 6.533,15.514 6.550,15.521 6.566,15.527 6.579,15.556 6.579,15.586 6.579,15.616 6.592,15.654 6.608,15.670 6.624,15.686 6.637,15.711 6.637,15.725 6.637,15.739 6.652,15.772 6.670,15.799 6.718,15.867 6.772,15.976 6.772,16.005 6.772,16.019 6.780,16.030 6.790,16.030 6.799,16.030 6.817,16.060 6.830,16.097 6.842,16.135 6.859,16.165 6.868,16.165 6.877,16.165 6.890,16.191 6.897,16.223 6.904,16.255 6.922,16.281 6.937,16.281 6.955,16.281 6.965,16.302 6.965,16.339 6.965,16.375 6.975,16.397 6.992,16.397 7.007,16.397 7.024,16.426 7.031,16.464 7.038,16.502 7.052,16.532 7.062,16.532 7.072,16.532 7.081,16.543 7.081,16.557 7.081,16.570 7.098,16.596 7.119,16.614 7.141,16.633 7.158,16.665 7.158,16.686 7.158,16.708 7.171,16.725 7.187,16.725 7.203,16.725 7.216,16.742 7.216,16.762 7.216,16.783 7.228,16.812 7.244,16.828 7.259,16.843 7.277,16.878 7.284,16.905 7.291,16.932 7.309,16.959 7.324,16.964 7.339,16.970 7.351,16.988 7.351,17.004 7.351,17.021 7.359,17.034 7.369,17.034 7.379,17.034 7.392,17.061 7.400,17.093 7.407,17.126 7.425,17.157 7.440,17.163 7.455,17.169 7.467,17.186 7.467,17.201 7.467,17.216 7.479,17.233 7.495,17.239 7.510,17.245 7.528,17.275 7.535,17.306 7.542,17.337 7.560,17.362 7.575,17.362 7.592,17.362 7.602,17.383 7.602,17.420 7.602,17.459 7.612,17.478 7.631,17.478 7.647,17.478 7.660,17.491 7.660,17.508 7.660,17.524 7.673,17.542 7.688,17.548 7.703,17.554 7.721,17.583 7.728,17.613 7.734,17.643 7.752,17.673 7.767,17.679 7.783,17.685 7.795,17.702 7.795,17.717 7.795,17.733 7.802,17.748 7.810,17.752 7.832,17.761 7.911,17.879 7.911,17.902 7.911,17.913 7.924,17.922 7.940,17.922 7.956,17.922 7.969,17.936 7.969,17.952 7.969,17.968 7.981,17.986 7.997,17.992 8.012,17.998 8.030,18.028 8.037,18.059 8.044,18.090 8.062,18.115 8.077,18.115 8.092,18.115 8.104,18.129 8.104,18.145 8.104,18.161 8.117,18.179 8.133,18.186 8.149,18.192 8.162,18.209 8.162,18.224 8.162,18.239 8.179,18.266 8.201,18.284 8.222,18.302 8.239,18.328 8.239,18.342 8.239,18.355 8.248,18.366 8.260,18.366 8.271,18.366 8.289,18.392 8.300,18.423 8.310,18.454 8.332,18.484 8.347,18.490 8.362,18.496 8.375,18.512 8.375,18.525 8.375,18.539 8.401,18.572 8.432,18.598 8.464,18.624 8.490,18.657 8.490,18.670 8.490,18.684 8.503,18.695 8.519,18.695 8.535,18.695 8.548,18.712 8.548,18.732 8.548,18.753 8.579,18.800 8.616,18.836 8.653,18.872 8.683,18.911 8.683,18.924 8.683,18.936 8.697,18.946 8.712,18.946 8.728,18.946 8.741,18.959 8.741,18.975 8.741,18.991 8.754,19.004 8.770,19.004 8.786,19.004 8.799,19.012 8.799,19.022 8.799,19.032 8.843,19.086 8.896,19.143 8.949,19.199 8.992,19.251 8.992,19.259 8.992,19.267 9.005,19.274 9.021,19.274 9.037,19.274 9.050,19.286 9.050,19.301 9.050,19.316 9.081,19.360 9.118,19.398 9.155,19.436 9.186,19.476 9.186,19.487 9.186,19.497 9.195,19.506 9.207,19.506 9.237,19.506 9.320,19.587 9.320,19.617 9.321,19.630 9.334,19.641 9.350,19.641 9.366,19.641 9.379,19.654 9.379,19.670 9.379,19.686 9.392,19.699 9.408,19.699 9.424,19.699 9.437,19.712 9.437,19.728 9.437,19.744 9.447,19.757 9.461,19.757 9.490,19.757 9.572,19.841 9.572,19.870 9.572,19.882 9.585,19.892 9.601,19.892 9.617,19.892 9.630,19.905 9.630,19.921 9.630,19.937 9.641,19.950 9.655,19.950 9.669,19.950 9.706,19.980 9.737,20.017 9.768,20.055 9.802,20.085 9.811,20.085 9.830,20.085 9.845,20.098 9.960,20.210 9.998,20.247 10.039,20.278 10.052,20.278 10.064,20.278 10.074,20.291 10.074,20.307 10.074,20.323 10.086,20.336 10.101,20.336 10.116,20.336 10.133,20.349 10.139,20.365 10.145,20.381 10.163,20.394 10.179,20.394 10.196,20.394 10.209,20.407 10.209,20.423 10.209,20.439 10.222,20.452 10.238,20.452 10.254,20.452 10.267,20.465 10.267,20.481 10.267,20.499 10.291,20.516 10.325,20.522 10.357,20.529 10.383,20.543 10.383,20.553 10.383,20.581 10.466,20.664 10.494,20.664 10.507,20.664 10.518,20.677 10.518,20.693 10.518,20.709 10.527,20.722 10.538,20.722 10.549,20.722 10.583,20.748 10.614,20.780 10.646,20.812 10.680,20.838 10.691,20.838 10.702,20.838 10.711,20.851 10.711,20.867 10.711,20.883 10.722,20.896 10.736,20.896 10.749,20.896 10.775,20.913 10.793,20.935 10.812,20.956 10.840,20.973 10.856,20.973 10.872,20.973 10.885,20.986 10.885,21.002 10.885,21.018 10.898,21.031 10.914,21.031 10.931,21.031 10.949,21.044 10.955,21.060 10.961,21.076 10.978,21.089 10.993,21.089 11.008,21.089 11.020,21.102 11.020,21.119 11.020,21.135 11.035,21.154 11.054,21.161 11.072,21.168 11.104,21.190 11.125,21.209 11.146,21.228 11.173,21.244 11.186,21.244 11.199,21.244 11.214,21.257 11.220,21.273 11.226,21.289 11.241,21.302 11.252,21.302 11.263,21.302 11.283,21.310 11.296,21.321 11.389,21.400 11.415,21.417 11.438,21.417 11.452,21.417 11.464,21.425 11.464,21.435 11.464,21.445 11.512,21.476 11.571,21.504 11.630,21.532 11.673,21.562 11.667,21.572 11.661,21.581 11.687,21.595 11.724,21.602 11.763,21.609 11.792,21.626 11.792,21.642 11.792,21.656 11.808,21.668 11.828,21.668 11.848,21.668 11.879,21.686 11.899,21.707 11.918,21.728 11.945,21.746 11.958,21.746 11.971,21.746 11.985,21.752 11.989,21.760 12.001,21.787 12.119,21.862 12.149,21.862 12.165,21.862 12.179,21.871 12.179,21.882 12.179,21.893 12.187,21.897 12.198,21.891 12.209,21.884 12.217,21.888 12.217,21.899 12.217,21.910 12.234,21.919 12.254,21.919 12.274,21.919 12.295,21.933 12.301,21.948 12.308,21.964 12.330,21.977 12.350,21.977 12.371,21.977 12.401,21.990 12.416,22.005 12.432,22.021 12.469,22.040 12.500,22.047 12.530,22.055 12.566,22.073 12.581,22.087 12.617,22.124 12.795,22.121 12.809,22.084 Z M 12.570,21.359 C 12.552,21.338 12.518,21.321 12.495,21.321 12.472,21.321 12.448,21.308 12.442,21.292 12.436,21.276 12.410,21.263 12.384,21.263 12.358,21.263 12.332,21.250 12.326,21.234 12.320,21.218 12.302,21.205 12.285,21.205 12.269,21.205 12.256,21.197 12.256,21.187 12.256,21.177 12.230,21.164 12.198,21.157 12.166,21.150 12.140,21.136 12.140,21.126 12.140,21.116 12.129,21.108 12.116,21.108 12.102,21.108 12.049,21.078 11.997,21.041 11.944,21.004 11.891,20.973 11.878,20.973 11.865,20.973 11.849,20.960 11.843,20.944 11.837,20.928 11.816,20.915 11.795,20.915 11.775,20.915 11.753,20.902 11.747,20.886 11.741,20.870 11.723,20.857 11.708,20.857 11.693,20.857 11.676,20.844 11.670,20.828 11.663,20.813 11.641,20.799 11.620,20.799 11.599,20.799 11.575,20.789 11.566,20.775 11.558,20.762 11.518,20.734 11.477,20.712 11.436,20.691 11.398,20.663 11.392,20.650 11.387,20.637 11.372,20.626 11.358,20.626 11.344,20.626 11.328,20.613 11.322,20.597 11.316,20.581 11.298,20.568 11.281,20.568 11.265,20.568 11.252,20.559 11.252,20.549 11.252,20.538 11.230,20.524 11.203,20.518 11.177,20.511 11.155,20.494 11.155,20.479 11.155,20.464 11.146,20.452 11.135,20.452 11.124,20.452 11.090,20.426 11.059,20.394 11.027,20.362 10.997,20.336 10.992,20.336 10.986,20.336 10.965,20.321 10.946,20.302 10.926,20.284 10.881,20.247 10.846,20.220 10.811,20.194 10.739,20.131 10.688,20.080 10.636,20.030 10.585,19.988 10.575,19.988 10.565,19.988 10.557,19.975 10.557,19.959 10.557,19.944 10.544,19.931 10.529,19.931 10.513,19.931 10.471,19.900 10.435,19.863 10.399,19.826 10.359,19.795 10.347,19.795 10.335,19.795 10.325,19.782 10.325,19.766 10.325,19.750 10.315,19.737 10.303,19.737 10.291,19.737 10.248,19.703 10.207,19.660 10.166,19.618 10.126,19.583 10.119,19.583 10.105,19.583 10.087,19.567 9.975,19.458 9.937,19.420 9.896,19.390 9.884,19.390 9.871,19.390 9.861,19.377 9.861,19.361 9.861,19.345 9.848,19.332 9.832,19.332 9.816,19.332 9.803,19.319 9.803,19.303 9.803,19.287 9.790,19.274 9.775,19.274 9.759,19.274 9.746,19.261 9.746,19.245 9.746,19.229 9.733,19.216 9.717,19.216 9.701,19.216 9.688,19.203 9.688,19.187 9.688,19.171 9.675,19.158 9.659,19.158 9.643,19.158 9.630,19.145 9.630,19.129 9.630,19.113 9.617,19.100 9.601,19.100 9.585,19.100 9.572,19.087 9.572,19.071 9.572,19.055 9.559,19.042 9.543,19.042 9.527,19.042 9.514,19.029 9.514,19.013 9.514,18.997 9.501,18.984 9.485,18.984 9.469,18.984 9.456,18.975 9.456,18.963 9.456,18.944 9.417,18.898 9.268,18.741 9.233,18.704 9.205,18.666 9.205,18.656 9.205,18.645 9.192,18.637 9.176,18.637 9.160,18.637 9.147,18.628 9.147,18.618 9.147,18.608 9.106,18.558 9.055,18.507 8.932,18.381 8.857,18.287 8.857,18.256 8.857,18.243 8.844,18.231 8.828,18.231 8.812,18.231 8.799,18.218 8.799,18.202 8.799,18.186 8.791,18.173 8.782,18.173 8.772,18.173 8.740,18.134 8.709,18.086 8.679,18.039 8.648,18.000 8.640,18.000 8.632,18.000 8.626,17.986 8.626,17.970 8.626,17.954 8.613,17.935 8.597,17.929 8.581,17.923 8.568,17.906 8.568,17.891 8.568,17.876 8.559,17.864 8.549,17.864 8.538,17.864 8.524,17.843 8.518,17.816 8.511,17.789 8.493,17.768 8.479,17.768 8.464,17.768 8.452,17.750 8.452,17.729 8.452,17.708 8.440,17.691 8.425,17.691 8.410,17.691 8.393,17.670 8.387,17.646 8.381,17.621 8.356,17.579 8.332,17.552 8.277,17.491 8.245,17.443 8.220,17.386 8.210,17.362 8.193,17.343 8.182,17.343 8.171,17.343 8.162,17.334 8.162,17.323 8.162,17.300 8.083,17.182 8.061,17.172 8.053,17.169 8.046,17.153 8.046,17.138 8.046,17.123 8.033,17.105 8.017,17.099 8.001,17.093 7.988,17.071 7.988,17.051 7.988,17.030 7.976,17.009 7.961,17.003 7.945,16.997 7.927,16.966 7.920,16.934 7.913,16.903 7.902,16.882 7.896,16.888 7.886,16.898 7.861,16.862 7.811,16.764 7.797,16.737 7.782,16.711 7.776,16.706 7.771,16.700 7.756,16.677 7.743,16.655 7.731,16.632 7.891,16.784 8.100,16.993 8.313,17.206 8.579,17.449 8.703,17.545 9.732,18.339 10.903,18.804 12.136,18.908 12.483,18.938 13.281,18.921 13.588,18.879 14.470,18.756 15.375,18.430 16.114,17.967 16.581,17.675 16.853,17.457 17.276,17.041 17.451,16.868 17.598,16.731 17.603,16.736 17.607,16.741 17.593,16.765 17.569,16.789 17.546,16.814 17.528,16.840 17.528,16.848 17.528,16.856 17.515,16.876 17.499,16.892 17.483,16.908 17.470,16.938 17.470,16.958 17.470,16.979 17.457,16.995 17.441,16.995 17.425,16.995 17.412,17.008 17.412,17.024 17.412,17.040 17.404,17.053 17.394,17.053 17.384,17.053 17.370,17.079 17.363,17.111 17.356,17.143 17.341,17.169 17.328,17.169 17.316,17.169 17.288,17.206 17.267,17.251 17.246,17.295 17.204,17.356 17.175,17.386 17.146,17.416 17.122,17.458 17.122,17.479 17.122,17.500 17.109,17.517 17.093,17.517 17.077,17.517 17.064,17.529 17.064,17.544 17.064,17.558 17.051,17.576 17.035,17.582 17.019,17.588 17.006,17.606 17.006,17.622 17.006,17.639 16.998,17.652 16.989,17.652 16.979,17.652 16.962,17.678 16.951,17.710 16.940,17.742 16.922,17.768 16.911,17.768 16.899,17.768 16.890,17.781 16.890,17.797 16.890,17.813 16.881,17.826 16.871,17.826 16.860,17.826 16.842,17.847 16.832,17.874 16.822,17.901 16.805,17.922 16.794,17.922 16.783,17.922 16.774,17.936 16.774,17.952 16.774,17.968 16.761,17.986 16.745,17.993 16.730,17.999 16.717,18.014 16.717,18.028 16.717,18.041 16.697,18.074 16.673,18.101 16.573,18.216 16.543,18.255 16.543,18.271 16.543,18.281 16.530,18.289 16.514,18.289 16.498,18.289 16.485,18.301 16.485,18.315 16.485,18.340 16.405,18.435 16.229,18.619 16.179,18.671 16.137,18.723 16.137,18.734 16.137,18.744 16.124,18.753 16.108,18.753 16.092,18.753 16.079,18.766 16.079,18.782 16.079,18.797 16.066,18.811 16.050,18.811 16.034,18.811 16.021,18.820 16.021,18.831 16.021,18.864 15.368,19.525 15.336,19.525 15.332,19.525 15.279,19.573 15.217,19.631 15.156,19.690 15.099,19.737 15.091,19.737 15.082,19.737 15.075,19.750 15.075,19.766 15.075,19.782 15.065,19.795 15.053,19.795 15.040,19.795 15.016,19.808 15.000,19.823 14.898,19.917 14.880,19.931 14.863,19.931 14.852,19.931 14.843,19.944 14.843,19.959 14.843,19.975 14.835,19.988 14.825,19.988 14.815,19.988 14.777,20.017 14.741,20.051 14.705,20.086 14.643,20.140 14.602,20.172 14.562,20.204 14.518,20.241 14.504,20.254 14.491,20.267 14.472,20.278 14.463,20.279 14.455,20.279 14.426,20.305 14.400,20.337 14.374,20.368 14.342,20.394 14.328,20.394 14.314,20.394 14.303,20.407 14.303,20.423 14.303,20.439 14.290,20.452 14.274,20.452 14.258,20.452 14.245,20.465 14.245,20.481 14.245,20.497 14.228,20.510 14.206,20.510 14.184,20.510 14.161,20.523 14.155,20.539 14.149,20.555 14.132,20.568 14.117,20.568 14.102,20.568 14.084,20.581 14.078,20.597 14.072,20.613 14.055,20.626 14.040,20.626 14.025,20.626 14.013,20.635 14.013,20.646 14.013,20.657 13.987,20.675 13.955,20.687 13.923,20.698 13.897,20.715 13.897,20.724 13.897,20.734 13.885,20.742 13.871,20.742 13.856,20.742 13.833,20.755 13.820,20.771 13.807,20.786 13.780,20.799 13.760,20.799 13.740,20.799 13.723,20.812 13.723,20.827 13.723,20.842 13.697,20.860 13.666,20.867 13.634,20.874 13.608,20.887 13.608,20.895 13.608,20.904 13.589,20.916 13.567,20.921 13.545,20.927 13.532,20.941 13.539,20.953 13.547,20.965 13.536,20.973 13.514,20.973 13.492,20.973 13.463,20.984 13.449,20.997 13.413,21.030 13.356,21.066 13.303,21.089 13.280,21.099 13.260,21.116 13.260,21.126 13.260,21.136 13.234,21.150 13.202,21.157 13.170,21.164 13.144,21.177 13.144,21.187 13.144,21.197 13.127,21.205 13.107,21.205 13.086,21.205 13.058,21.217 13.043,21.232 13.028,21.246 12.989,21.264 12.955,21.272 12.921,21.279 12.893,21.293 12.893,21.302 12.893,21.310 12.867,21.324 12.835,21.331 12.803,21.338 12.777,21.356 12.777,21.371 12.777,21.416 12.611,21.407 12.570,21.359 Z M 12.306,18.289 C 11.139,18.198 10.085,17.806 9.182,17.126 7.892,16.155 7.075,14.734 6.875,13.112 6.832,12.763 6.833,12.091 6.876,11.753 7.009,10.712 7.385,9.765 7.983,8.956 9.366,7.089 11.706,6.213 13.974,6.716 15.547,7.064 16.921,8.061 17.743,9.449 18.667,11.009 18.818,12.900 18.154,14.586 17.365,16.590 15.546,17.996 13.405,18.258 13.105,18.295 12.574,18.310 12.306,18.289 Z M 12.437,17.753 C 12.443,17.713 12.449,17.623 12.449,17.553 12.449,17.425 12.449,17.425 12.449,17.425 12.290,17.412 12.290,17.412 12.290,17.412 11.942,17.383 11.483,17.296 11.483,17.258 11.483,17.245 11.506,17.158 11.533,17.065 11.560,16.971 11.580,16.893 11.576,16.890 11.573,16.888 11.466,16.853 11.339,16.813 10.678,16.604 10.137,16.291 9.600,15.807 9.426,15.649 9.426,15.649 9.426,15.649 9.282,15.782 9.282,15.782 9.282,15.782 9.137,15.915 9.137,15.915 9.137,15.915 9.005,15.774 9.005,15.774 9.005,15.774 8.932,15.697 8.790,15.523 8.688,15.388 8.579,15.242 8.496,15.148 8.483,15.155 8.402,15.202 8.181,15.357 8.181,15.367 8.181,15.373 8.222,15.436 8.271,15.506 8.742,16.175 9.343,16.722 10.049,17.126 10.684,17.489 11.481,17.740 12.201,17.804 12.300,17.813 12.391,17.822 12.403,17.823 12.415,17.825 12.430,17.793 12.437,17.753 Z M 13.387,17.777 C 14.877,17.581 16.189,16.794 17.081,15.559 17.157,15.455 17.219,15.363 17.218,15.357 17.218,15.346 17.138,15.292 16.936,15.166 16.897,15.141 16.888,15.149 16.772,15.310 16.642,15.489 16.473,15.695 16.342,15.832 16.264,15.914 16.264,15.914 16.264,15.914 16.125,15.776 16.125,15.776 16.125,15.776 15.986,15.638 15.986,15.638 15.986,15.638 15.806,15.800 15.806,15.800 15.806,15.800 15.257,16.294 14.690,16.620 14.032,16.822 13.921,16.856 13.827,16.887 13.824,16.889 13.821,16.892 13.842,16.977 13.871,17.080 13.900,17.182 13.919,17.269 13.914,17.275 13.887,17.302 13.381,17.386 13.098,17.411 12.946,17.424 12.946,17.424 12.946,17.424 12.958,17.541 12.958,17.541 12.958,17.541 12.965,17.605 12.970,17.691 12.970,17.732 12.970,17.806 12.970,17.806 12.970,17.806 13.066,17.806 13.066,17.806 13.066,17.806 13.118,17.806 13.263,17.793 13.387,17.777 Z M 13.150,15.994 C 13.164,15.979 13.140,15.715 13.068,15.103 13.012,14.624 12.970,14.228 12.975,14.223 12.979,14.219 13.050,14.198 13.131,14.177 13.459,14.093 13.729,13.939 13.971,13.699 14.048,13.621 14.116,13.558 14.121,13.558 14.126,13.558 14.446,13.797 14.833,14.089 15.220,14.381 15.540,14.620 15.545,14.620 15.584,14.620 16.039,13.821 16.014,13.796 16.012,13.793 15.641,13.633 15.190,13.441 14.740,13.249 14.370,13.091 14.367,13.089 14.365,13.087 14.386,13.011 14.412,12.921 14.502,12.620 14.495,12.167 14.397,11.882 14.377,11.823 14.367,11.769 14.375,11.762 14.383,11.755 14.755,11.595 15.201,11.406 15.647,11.218 16.018,11.057 16.027,11.049 16.063,11.015 15.612,10.237 15.556,10.237 15.546,10.237 15.216,10.479 14.822,10.774 14.106,11.312 14.106,11.312 14.106,11.312 14.006,11.206 14.006,11.206 14.006,11.206 13.783,10.968 13.456,10.777 13.139,10.699 13.012,10.667 12.971,10.649 12.971,10.625 12.972,10.608 13.018,10.203 13.073,9.725 13.174,8.856 13.174,8.856 13.174,8.856 13.116,8.842 13.116,8.842 13.116,8.842 13.038,8.823 12.469,8.819 12.328,8.837 12.217,8.851 12.217,8.851 12.217,8.851 12.228,8.921 12.228,8.921 12.228,8.921 12.250,9.070 12.429,10.649 12.425,10.653 12.422,10.655 12.346,10.676 12.256,10.699 11.936,10.781 11.644,10.950 11.416,11.181 11.353,11.246 11.295,11.299 11.287,11.299 11.279,11.299 10.953,11.060 10.562,10.768 10.171,10.476 9.843,10.240 9.832,10.243 9.793,10.255 9.585,10.582 9.470,10.811 9.405,10.941 9.356,11.050 9.361,11.054 9.365,11.058 9.738,11.219 10.190,11.411 10.694,11.626 11.009,11.771 11.007,11.786 11.006,11.799 10.984,11.880 10.960,11.965 10.923,12.097 10.916,12.165 10.916,12.428 10.916,12.725 10.940,12.881 11.010,13.058 11.020,13.084 10.875,13.153 10.200,13.442 9.748,13.636 9.379,13.805 9.379,13.817 9.379,13.888 9.677,14.417 9.797,14.559 9.852,14.623 9.852,14.623 9.852,14.623 10.561,14.091 10.561,14.091 10.561,14.091 10.951,13.798 11.276,13.558 11.283,13.558 11.290,13.558 11.349,13.613 11.414,13.679 11.641,13.912 11.951,14.093 12.264,14.174 12.348,14.196 12.419,14.217 12.421,14.219 12.424,14.222 12.379,14.620 12.322,15.102 12.265,15.585 12.225,15.987 12.232,15.994 12.256,16.018 12.426,16.026 12.784,16.020 12.993,16.016 13.137,16.006 13.150,15.994 Z M 8.091,14.805 C 8.183,14.764 8.259,14.722 8.259,14.713 8.259,14.704 8.232,14.643 8.199,14.578 8.131,14.444 7.991,14.089 7.938,13.919 7.897,13.785 7.890,13.792 8.116,13.732 8.205,13.709 8.278,13.680 8.278,13.667 8.278,13.655 8.265,13.597 8.249,13.539 8.171,13.253 8.139,12.986 8.129,12.563 8.118,12.093 8.143,11.811 8.230,11.423 8.257,11.307 8.278,11.207 8.278,11.200 8.278,11.194 8.199,11.168 8.102,11.143 8.005,11.118 7.922,11.087 7.917,11.073 7.900,11.029 8.082,10.529 8.201,10.294 8.233,10.231 8.259,10.172 8.259,10.163 8.259,10.146 7.910,9.980 7.899,9.991 7.885,10.006 7.746,10.322 7.676,10.497 7.526,10.880 7.402,11.378 7.347,11.820 7.315,12.081 7.315,12.795 7.347,13.056 7.398,13.462 7.513,13.937 7.655,14.321 7.734,14.535 7.896,14.893 7.911,14.886 7.918,14.883 7.999,14.847 8.091,14.805 Z M 17.613,14.639 C 17.831,14.141 17.984,13.585 18.052,13.046 18.065,12.940 18.076,12.666 18.076,12.438 18.076,12.210 18.065,11.936 18.052,11.830 17.983,11.279 17.805,10.644 17.596,10.206 17.492,9.987 17.492,9.987 17.492,9.987 17.316,10.068 17.316,10.068 17.316,10.068 17.186,10.127 17.141,10.156 17.148,10.178 17.153,10.194 17.201,10.303 17.253,10.420 17.360,10.657 17.495,11.043 17.483,11.075 17.478,11.087 17.394,11.118 17.297,11.144 17.093,11.199 17.107,11.162 17.177,11.466 17.255,11.802 17.282,12.122 17.271,12.564 17.261,12.969 17.236,13.171 17.158,13.506 17.136,13.600 17.123,13.681 17.128,13.686 17.133,13.692 17.213,13.717 17.306,13.742 17.399,13.768 17.480,13.793 17.485,13.799 17.503,13.817 17.363,14.215 17.258,14.448 17.202,14.569 17.153,14.682 17.148,14.697 17.142,14.718 17.186,14.750 17.300,14.807 17.388,14.852 17.470,14.889 17.482,14.889 17.493,14.890 17.553,14.777 17.613,14.639 Z M 8.579,9.604 C 8.696,9.439 8.871,9.223 9.007,9.076 9.112,8.963 9.112,8.963 9.112,8.963 9.258,9.096 9.258,9.096 9.258,9.096 9.405,9.230 9.405,9.230 9.405,9.230 9.561,9.085 9.561,9.085 9.561,9.085 9.901,8.769 10.384,8.446 10.785,8.265 10.898,8.214 11.117,8.131 11.271,8.081 11.425,8.030 11.553,7.988 11.556,7.986 11.559,7.985 11.539,7.899 11.511,7.795 11.484,7.692 11.464,7.605 11.468,7.602 11.492,7.583 11.911,7.511 12.150,7.484 12.309,7.466 12.441,7.450 12.444,7.448 12.446,7.446 12.443,7.360 12.436,7.257 12.424,7.070 12.424,7.070 12.424,7.070 12.322,7.070 12.322,7.070 12.322,7.070 12.170,7.070 11.794,7.122 11.541,7.179 11.053,7.288 10.753,7.394 10.293,7.621 9.475,8.025 8.821,8.586 8.270,9.356 8.210,9.440 8.163,9.516 8.166,9.525 8.170,9.537 8.466,9.732 8.484,9.734 8.486,9.735 8.528,9.676 8.579,9.604 Z M 17.040,9.635 C 17.243,9.510 17.238,9.525 17.131,9.374 16.549,8.551 15.797,7.928 14.901,7.523 14.630,7.401 14.135,7.239 13.847,7.178 13.579,7.122 13.205,7.070 13.068,7.070 12.957,7.070 12.952,7.081 12.951,7.304 12.951,7.451 12.951,7.451 12.951,7.451 13.110,7.464 13.110,7.464 13.110,7.464 13.458,7.493 13.917,7.581 13.917,7.618 13.917,7.631 13.894,7.718 13.867,7.811 13.840,7.905 13.820,7.984 13.824,7.987 13.827,7.990 13.912,8.015 14.012,8.044 14.657,8.228 15.346,8.622 15.854,9.098 16.001,9.235 15.977,9.238 16.163,9.060 16.275,8.953 16.275,8.953 16.275,8.953 16.373,9.058 16.373,9.058 16.373,9.058 16.510,9.206 16.691,9.433 16.794,9.585 16.842,9.656 16.887,9.714 16.896,9.715 16.904,9.715 16.969,9.679 17.040,9.635 Z M 6.212,12.950 C 6.212,12.923 6.204,12.902 6.195,12.902 6.186,12.902 6.172,12.841 6.165,12.766 6.157,12.691 6.144,12.635 6.136,12.640 6.127,12.645 6.115,12.601 6.109,12.541 6.103,12.481 6.090,12.427 6.080,12.421 6.070,12.414 6.056,12.346 6.048,12.269 6.040,12.192 6.027,12.129 6.019,12.129 6.010,12.129 5.997,12.075 5.989,12.008 5.982,11.942 5.968,11.883 5.960,11.878 5.951,11.872 5.938,11.798 5.930,11.714 5.923,11.629 5.908,11.554 5.899,11.548 5.889,11.542 5.873,11.472 5.863,11.393 5.854,11.315 5.837,11.190 5.827,11.115 5.817,11.041 5.808,10.918 5.807,10.841 5.807,10.765 5.798,10.682 5.788,10.656 5.778,10.630 5.764,10.440 5.757,10.234 5.749,10.028 5.734,9.855 5.724,9.848 5.713,9.841 5.701,9.622 5.695,9.317 5.690,9.031 5.677,8.793 5.667,8.787 5.657,8.780 5.644,8.505 5.638,8.165 5.632,7.829 5.619,7.559 5.610,7.564 5.601,7.570 5.594,7.271 5.594,6.901 5.594,6.228 5.594,6.228 5.594,6.228 5.695,6.204 5.695,6.204 5.695,6.204 5.751,6.190 5.874,6.171 5.969,6.161 6.063,6.151 6.150,6.135 6.162,6.126 6.173,6.117 6.256,6.104 6.346,6.097 6.436,6.089 6.514,6.076 6.520,6.068 6.526,6.059 6.604,6.046 6.694,6.039 6.784,6.032 6.862,6.019 6.868,6.010 6.873,6.001 6.942,5.989 7.020,5.983 7.098,5.976 7.171,5.963 7.184,5.954 7.196,5.944 7.271,5.930 7.350,5.923 7.428,5.916 7.502,5.903 7.514,5.894 7.525,5.884 7.607,5.871 7.696,5.863 7.785,5.855 7.847,5.842 7.834,5.834 7.821,5.826 7.877,5.813 7.957,5.806 8.038,5.798 8.104,5.786 8.104,5.778 8.104,5.770 8.158,5.754 8.225,5.742 8.345,5.721 8.435,5.700 8.613,5.649 8.665,5.634 8.728,5.622 8.753,5.622 8.779,5.622 8.799,5.614 8.799,5.605 8.799,5.596 8.843,5.582 8.896,5.575 8.949,5.568 8.992,5.555 8.992,5.546 8.992,5.536 9.038,5.522 9.094,5.515 9.150,5.507 9.200,5.493 9.207,5.483 9.213,5.473 9.255,5.459 9.299,5.453 9.343,5.448 9.379,5.436 9.379,5.427 9.379,5.418 9.411,5.406 9.451,5.399 9.491,5.393 9.547,5.375 9.575,5.360 9.603,5.344 9.646,5.332 9.671,5.331 9.696,5.331 9.733,5.318 9.754,5.302 9.775,5.287 9.810,5.274 9.832,5.274 9.855,5.274 9.890,5.261 9.911,5.246 9.931,5.230 9.966,5.217 9.987,5.216 10.008,5.215 10.042,5.202 10.063,5.187 10.084,5.171 10.120,5.158 10.143,5.158 10.166,5.158 10.196,5.145 10.209,5.129 10.222,5.113 10.254,5.100 10.279,5.100 10.304,5.100 10.325,5.093 10.325,5.083 10.325,5.074 10.364,5.056 10.412,5.044 10.460,5.032 10.499,5.014 10.499,5.003 10.499,4.993 10.524,4.984 10.555,4.984 10.586,4.984 10.615,4.972 10.621,4.955 10.628,4.938 10.657,4.926 10.691,4.926 10.723,4.926 10.750,4.918 10.750,4.908 10.750,4.898 10.784,4.880 10.826,4.869 10.868,4.857 10.908,4.840 10.914,4.829 10.921,4.819 10.947,4.811 10.973,4.811 11.000,4.811 11.026,4.799 11.031,4.784 11.037,4.769 11.076,4.752 11.118,4.745 11.160,4.738 11.194,4.724 11.194,4.714 11.194,4.703 11.207,4.695 11.224,4.695 11.241,4.695 11.268,4.682 11.283,4.666 11.299,4.650 11.328,4.637 11.347,4.637 11.366,4.637 11.393,4.624 11.406,4.608 11.419,4.592 11.442,4.579 11.457,4.579 11.472,4.579 11.516,4.561 11.556,4.540 11.595,4.519 11.639,4.502 11.653,4.502 11.667,4.502 11.674,4.494 11.668,4.484 11.662,4.475 11.688,4.462 11.725,4.455 11.762,4.448 11.792,4.434 11.792,4.425 11.792,4.416 11.818,4.402 11.850,4.395 11.882,4.388 11.908,4.375 11.908,4.366 11.908,4.358 11.934,4.344 11.966,4.337 11.998,4.331 12.024,4.317 12.024,4.309 12.024,4.300 12.050,4.287 12.082,4.280 12.114,4.273 12.140,4.260 12.140,4.251 12.140,4.242 12.166,4.229 12.198,4.222 12.230,4.215 12.256,4.202 12.256,4.193 12.256,4.184 12.282,4.171 12.314,4.164 12.346,4.157 12.372,4.144 12.372,4.135 12.372,4.126 12.398,4.113 12.430,4.106 12.462,4.099 12.488,4.085 12.488,4.075 12.488,4.065 12.499,4.057 12.512,4.057 12.526,4.057 12.552,4.040 12.570,4.019 12.596,3.988 12.627,3.980 12.717,3.980 12.814,3.980 12.832,3.986 12.841,4.019 12.847,4.044 12.867,4.057 12.899,4.057 12.925,4.057 12.952,4.071 12.958,4.086 12.964,4.102 12.982,4.115 12.999,4.115 13.015,4.115 13.028,4.123 13.028,4.133 13.028,4.143 13.054,4.157 13.086,4.164 13.118,4.171 13.144,4.184 13.144,4.193 13.144,4.202 13.170,4.215 13.202,4.222 13.234,4.229 13.260,4.242 13.260,4.251 13.260,4.260 13.286,4.273 13.318,4.280 13.350,4.287 13.376,4.300 13.376,4.309 13.376,4.317 13.402,4.331 13.434,4.337 13.466,4.344 13.492,4.358 13.492,4.368 13.492,4.377 13.526,4.391 13.568,4.397 13.610,4.404 13.648,4.422 13.654,4.436 13.660,4.451 13.685,4.463 13.711,4.463 13.737,4.463 13.763,4.476 13.769,4.492 13.775,4.508 13.797,4.521 13.817,4.521 13.837,4.521 13.865,4.534 13.878,4.550 13.891,4.566 13.926,4.579 13.955,4.579 13.985,4.579 14.014,4.592 14.020,4.608 14.026,4.624 14.053,4.637 14.080,4.637 14.107,4.637 14.129,4.645 14.129,4.656 14.129,4.666 14.153,4.681 14.182,4.688 14.211,4.695 14.246,4.713 14.260,4.727 14.275,4.741 14.301,4.753 14.319,4.753 14.336,4.754 14.368,4.767 14.389,4.782 14.409,4.798 14.441,4.811 14.459,4.811 14.476,4.811 14.502,4.824 14.515,4.840 14.528,4.855 14.564,4.869 14.595,4.869 14.627,4.869 14.656,4.881 14.663,4.897 14.669,4.914 14.698,4.926 14.728,4.926 14.758,4.926 14.786,4.939 14.792,4.955 14.799,4.971 14.821,4.984 14.843,4.984 14.865,4.984 14.915,5.002 14.954,5.023 14.994,5.044 15.037,5.062 15.051,5.062 15.064,5.062 15.075,5.070 15.075,5.081 15.075,5.092 15.096,5.100 15.121,5.100 15.146,5.100 15.177,5.112 15.189,5.127 15.202,5.142 15.240,5.159 15.274,5.164 15.357,5.177 15.527,5.239 15.535,5.258 15.539,5.267 15.566,5.274 15.594,5.274 15.623,5.274 15.664,5.287 15.685,5.302 15.705,5.318 15.746,5.331 15.774,5.331 15.803,5.332 15.833,5.345 15.842,5.360 15.851,5.375 15.891,5.390 15.932,5.393 15.973,5.396 16.010,5.408 16.015,5.421 16.020,5.433 16.071,5.450 16.129,5.457 16.187,5.464 16.234,5.477 16.234,5.486 16.234,5.495 16.277,5.508 16.330,5.515 16.383,5.523 16.427,5.536 16.427,5.544 16.427,5.552 16.466,5.565 16.513,5.572 16.561,5.579 16.604,5.593 16.610,5.602 16.616,5.611 16.668,5.625 16.726,5.632 16.785,5.639 16.832,5.652 16.832,5.660 16.832,5.668 16.885,5.680 16.948,5.688 17.012,5.695 17.064,5.708 17.064,5.716 17.064,5.725 17.123,5.742 17.194,5.753 17.506,5.804 17.607,5.825 17.595,5.837 17.588,5.844 17.659,5.856 17.753,5.863 17.847,5.871 17.934,5.886 17.947,5.896 17.961,5.907 18.030,5.920 18.102,5.926 18.174,5.932 18.237,5.944 18.243,5.953 18.249,5.962 18.328,5.975 18.417,5.982 18.507,5.989 18.585,6.001 18.590,6.010 18.596,6.019 18.674,6.031 18.764,6.039 18.854,6.046 18.937,6.059 18.949,6.068 18.961,6.078 19.039,6.091 19.123,6.097 19.207,6.104 19.285,6.117 19.296,6.126 19.308,6.136 19.373,6.149 19.441,6.155 19.509,6.162 19.574,6.175 19.585,6.183 19.595,6.192 19.650,6.204 19.705,6.212 19.806,6.225 19.806,6.225 19.806,6.225 19.806,6.813 19.806,6.813 19.806,6.813 19.806,7.136 19.799,7.396 19.790,7.390 19.781,7.385 19.768,7.681 19.762,8.049 19.756,8.416 19.743,8.722 19.733,8.729 19.723,8.735 19.710,8.975 19.704,9.261 19.696,9.598 19.685,9.785 19.672,9.789 19.659,9.793 19.651,9.882 19.650,10.021 19.649,10.145 19.641,10.320 19.632,10.411 19.623,10.501 19.606,10.688 19.595,10.826 19.584,10.964 19.566,11.120 19.556,11.173 19.527,11.325 19.495,11.527 19.476,11.684 19.466,11.763 19.450,11.833 19.441,11.839 19.432,11.844 19.418,11.910 19.410,11.984 19.402,12.059 19.388,12.124 19.380,12.130 19.371,12.135 19.358,12.200 19.350,12.275 19.343,12.349 19.329,12.414 19.320,12.420 19.311,12.426 19.298,12.476 19.291,12.531 19.285,12.586 19.273,12.631 19.265,12.631 19.257,12.631 19.245,12.688 19.237,12.757 19.230,12.826 19.218,12.882 19.211,12.882 19.204,12.882 19.197,12.645 19.196,12.356 19.194,11.919 19.187,11.782 19.152,11.550 19.026,10.720 18.838,10.116 18.493,9.435 17.755,7.982 16.473,6.838 14.953,6.279 14.268,6.027 13.416,5.873 12.708,5.873 12.214,5.873 11.560,5.961 11.052,6.096 10.026,6.370 9.077,6.892 8.326,7.594 7.409,8.453 6.804,9.435 6.465,10.613 6.371,10.942 6.324,11.173 6.266,11.579 6.229,11.840 6.223,11.974 6.222,12.443 6.222,12.748 6.219,12.998 6.217,12.998 6.214,12.998 6.212,12.976 6.212,12.950 Z " />
</svg>