<?xml version="1.0" encoding="UTF-8" standalone="no"?>
<!DOCTYPE svg PUBLIC "-//W3C//DTD SVG 20010904//EN" "http://www.w3.org/TR/2001/REC-SVG-20010904/DTD/svg10.dtd"[]>
<svg version="1.1" id="Frosty Editor v1.0.6.3" xmlns="http://www.w3.org/2000/svg" d1p1:xlink="http://www.w3.org/1999/xlink" viewBox="0 0 25 25" xmlns:d1p1="xmlns">
  <path stroke="none" fill="#ffffffff" d="M 15.338,19.321 C 14.618,19.184 14.008,18.864 13.508,18.361 12.815,17.665 12.476,16.780 12.518,15.778 12.582,14.255 13.590,13.014 15.094,12.606 15.348,12.537 15.426,12.530 15.919,12.530 16.411,12.530 16.489,12.537 16.744,12.606 18.004,12.948 18.893,13.841 19.233,15.108 19.302,15.364 19.309,15.443 19.309,15.937 19.309,16.432 19.302,16.510 19.233,16.766 18.893,18.034 17.993,18.938 16.744,19.266 16.392,19.359 15.681,19.386 15.338,19.321 Z M 17.013,18.581 C 17.329,18.441 17.329,18.441 17.329,18.441 17.329,17.514 17.329,17.514 17.329,17.514 17.329,16.587 17.329,16.587 17.329,16.587 17.888,16.587 17.888,16.587 17.888,16.587 18.446,16.587 18.446,16.587 18.446,16.587 18.446,16.247 18.446,16.247 18.446,16.247 18.446,15.908 18.446,15.908 18.446,15.908 17.587,15.908 17.587,15.908 17.587,15.908 16.728,15.908 16.728,15.908 16.728,15.908 16.962,15.672 16.962,15.672 16.962,15.672 17.196,15.435 17.196,15.435 17.196,15.435 17.409,15.435 17.409,15.435 17.409,15.435 17.623,15.435 17.623,15.435 17.623,15.435 17.623,15.140 17.623,15.140 17.623,15.140 17.623,14.845 17.623,14.845 17.623,14.845 17.329,14.845 17.329,14.845 17.329,14.845 17.035,14.845 17.035,14.845 17.035,14.845 17.035,15.059 17.035,15.059 17.035,15.059 17.035,15.274 17.035,15.274 17.035,15.274 16.756,15.553 16.756,15.553 16.756,15.553 16.477,15.833 16.477,15.833 16.477,15.833 16.477,14.571 16.477,14.571 16.477,14.571 16.477,13.309 16.477,13.309 16.477,13.309 15.816,13.309 15.816,13.309 15.816,13.309 15.155,13.309 15.155,13.309 15.155,13.309 15.155,14.283 15.155,14.283 15.155,14.283 15.155,15.257 15.155,15.257 15.155,15.257 14.222,15.265 14.222,15.265 14.222,15.265 13.289,15.273 13.289,15.273 13.289,15.273 13.281,15.930 13.281,15.930 13.281,15.930 13.273,16.587 13.273,16.587 13.273,16.587 14.515,16.588 14.515,16.588 14.515,16.588 15.757,16.589 15.757,16.589 15.757,16.589 15.522,16.808 15.522,16.808 15.522,16.808 15.287,17.028 15.287,17.028 15.287,17.028 15.074,17.029 15.074,17.029 15.074,17.029 14.861,17.030 14.861,17.030 14.861,17.030 14.861,17.325 14.861,17.325 14.861,17.325 14.861,17.621 14.861,17.621 14.861,17.621 15.169,17.621 15.169,17.621 15.169,17.621 15.478,17.621 15.478,17.621 15.478,17.621 15.478,17.406 15.478,17.406 15.478,17.406 15.478,17.192 15.478,17.192 15.478,17.192 15.780,16.889 15.780,16.889 15.780,16.889 16.081,16.587 16.081,16.587 16.081,16.587 16.353,16.587 16.353,16.587 16.353,16.587 16.624,16.587 16.624,16.587 16.624,16.587 16.624,17.668 16.624,17.668 16.624,17.668 16.624,18.521 16.632,18.746 16.661,18.735 16.681,18.727 16.840,18.658 17.013,18.581 Z M 11.913,18.842 C 11.902,18.831 11.893,15.947 11.893,12.433 11.893,6.043 11.893,6.043 11.893,6.043 12.466,6.043 12.466,6.043 12.466,6.043 13.039,6.043 13.039,6.043 13.039,6.043 13.039,9.617 13.039,9.617 13.039,9.617 13.039,13.190 13.039,13.190 13.039,13.190 12.809,13.494 12.809,13.494 12.809,13.494 12.414,14.016 12.150,14.639 12.055,15.273 11.897,16.324 12.168,17.385 12.810,18.235 13.037,18.535 13.042,18.544 13.033,18.694 13.024,18.846 13.024,18.846 13.024,18.846 12.479,18.855 12.479,18.855 12.479,18.855 12.179,18.859 11.924,18.853 11.913,18.842 Z M 11.040,18.739 C 10.303,18.538 9.968,18.416 9.516,18.182 7.903,17.350 6.704,15.847 6.266,14.109 6.124,13.545 6.092,13.274 6.091,12.615 6.090,11.952 6.128,11.618 6.266,11.061 6.822,8.811 8.588,7.035 10.857,6.442 11.013,6.401 11.164,6.368 11.193,6.368 11.244,6.368 11.246,6.588 11.246,11.624 11.246,14.514 11.236,16.885 11.223,16.893 11.188,16.915 10.629,16.725 10.366,16.601 10.129,16.489 10.129,16.489 10.129,16.489 10.129,12.211 10.129,12.211 10.129,12.211 10.129,9.858 10.121,7.933 10.110,7.933 10.076,7.933 9.708,8.147 9.483,8.298 8.357,9.051 7.576,10.234 7.303,11.598 7.245,11.888 7.236,12.026 7.235,12.585 7.235,13.149 7.244,13.280 7.303,13.572 7.627,15.182 8.674,16.538 10.144,17.252 10.452,17.402 10.850,17.552 11.121,17.621 11.246,17.653 11.246,17.653 11.246,17.653 11.246,18.213 11.246,18.213 11.246,18.213 11.246,18.836 11.260,18.799 11.040,18.739 Z M 18.666,13.130 C 18.513,12.969 18.076,12.628 17.878,12.514 17.721,12.424 17.721,12.424 17.721,12.424 17.687,12.076 17.687,12.076 17.687,12.076 17.621,11.417 17.485,10.934 17.197,10.341 16.719,9.354 15.949,8.536 15.000,8.009 14.802,7.899 14.802,7.899 14.802,7.899 14.802,10.011 14.802,10.011 14.802,10.011 14.802,12.122 14.802,12.122 14.802,12.122 14.607,12.186 14.607,12.186 14.607,12.186 14.407,12.251 14.025,12.433 13.827,12.559 13.766,12.598 13.709,12.629 13.701,12.629 13.692,12.629 13.685,11.222 13.685,9.502 13.685,6.374 13.685,6.374 13.685,6.374 13.884,6.418 13.884,6.418 13.884,6.418 14.260,6.501 14.877,6.725 15.287,6.927 17.223,7.882 18.536,9.716 18.797,11.831 18.831,12.106 18.835,12.924 18.804,13.126 18.784,13.253 18.784,13.253 18.784,13.253 Z " />
</svg>