<?xml version="1.0" encoding="UTF-8" standalone="no"?>
<!DOCTYPE svg PUBLIC "-//W3C//DTD SVG 20010904//EN" "http://www.w3.org/TR/2001/REC-SVG-20010904/DTD/svg10.dtd"[]>
<svg version="1.1" id="Frosty Editor v1.0.6.3" xmlns="http://www.w3.org/2000/svg" d1p1:xlink="http://www.w3.org/1999/xlink" viewBox="0 0 96 96" xmlns:d1p1="xmlns">
  <path stroke="none" fill="#ffffffff" d="M 49.940,63.270 C 38.740,63.270 29.630,56.620 29.630,48.460 29.630,44.460 31.820,40.830 35.370,38.170 36.235,37.521 37.288,37.170 38.370,37.170 47.533,37.170 56.697,37.170 65.860,37.170 66.630,37.170 66.860,37.390 66.860,38.540 66.860,39.910 66.860,47.330 66.860,48.430 66.880,56.620 61.140,63.270 49.940,63.270 49.940,63.270 49.940,63.270 49.940,63.270 Z M 68.210,32.850 C 54.923,32.850 41.637,32.850 28.350,32.850 26.743,32.850 25.440,34.153 25.440,35.760 25.440,39.593 25.440,43.427 25.440,47.260 25.440,47.650 25.390,48.050 25.390,48.450 25.390,58.950 36.390,67.450 49.940,67.450 63.490,67.450 71.120,58.910 71.120,48.450 71.120,44.220 71.120,39.990 71.120,35.760 71.120,34.988 70.813,34.248 70.268,33.702 69.722,33.157 68.982,32.850 68.210,32.850 68.210,32.850 68.210,32.850 68.210,32.850 Z " />
  <path stroke="none" fill="#ffffffff" d="M 54.590,57.670 C 54.153,57.670 53.717,57.670 53.280,57.670 49.531,57.670 45.935,56.180 43.285,53.528 40.635,50.876 39.147,47.279 39.150,43.530 39.150,42.630 39.150,41.730 39.150,40.830 39.150,40.830 39.150,40.830 39.150,40.830 39.161,40.177 39.697,39.654 40.350,39.660 43.017,39.660 45.683,39.660 48.350,39.660 48.655,39.660 48.937,39.822 49.092,40.085 49.246,40.348 49.249,40.674 49.100,40.940 48.272,42.411 47.838,44.072 47.840,45.760 47.835,50.120 50.674,53.974 54.840,55.260 55.424,55.432 55.794,56.004 55.712,56.607 55.629,57.210 55.118,57.662 54.510,57.670 54.537,57.670 54.563,57.670 54.590,57.670 Z " />
</svg>