<?xml version="1.0" encoding="UTF-8" standalone="no"?>
<!DOCTYPE svg PUBLIC "-//W3C//DTD SVG 20010904//EN" "http://www.w3.org/TR/2001/REC-SVG-20010904/DTD/svg10.dtd"[]>
<svg version="1.1" id="Frosty Editor v1.0.6.3" xmlns="http://www.w3.org/2000/svg" d1p1:xlink="http://www.w3.org/1999/xlink" viewBox="0 0 384 96" xmlns:d1p1="xmlns">
  <path stroke="none" fill="#ffffffff" d="M 5.400,62.500 C 5.200,57.200 5.000,51.900 4.800,46.600 4.800,45.600 5.600,45.500 6.100,45.500 6.300,45.500 6.400,45.500 6.400,45.500 12.333,45.267 18.267,45.033 24.200,44.800 24.200,44.000 24.200,43.200 24.200,42.400 26.467,42.400 28.733,42.400 31.000,42.400 31.000,43.033 31.000,43.667 31.000,44.300 31.000,44.300 36.900,43.900 41.900,43.900 42.900,43.900 43.900,43.900 44.700,44.000 46.600,45.900 48.000,46.800 49.800,46.800 52.000,46.800 54.700,45.500 59.400,43.300 66.000,40.200 73.200,39.300 76.200,39.000 76.200,45.267 76.200,51.533 76.200,57.800 71.700,58.500 63.900,59.700 54.700,61.700 40.200,64.900 14.600,80.500 14.600,80.500 14.600,80.500 7.100,81.700 3.600,81.700 3.400,81.700 3.300,81.700 3.200,81.700 1.900,78.600 5.400,62.500 5.400,62.500 5.400,62.500 5.400,62.500 5.400,62.500 Z M 77.100,38.900 C 77.400,38.900 77.500,38.900 77.500,38.900 77.867,37.333 78.233,35.767 78.600,34.200 79.033,33.767 79.467,33.333 79.900,32.900 79.467,32.900 79.033,32.900 78.600,32.900 78.600,31.400 78.600,29.900 78.600,28.400 89.067,28.400 99.533,28.400 110.000,28.400 110.000,29.667 110.000,30.933 110.000,32.200 113.500,32.200 117.000,32.200 120.500,32.200 121.900,32.533 123.300,32.867 124.700,33.200 126.733,33.200 128.767,33.200 130.800,33.200 131.133,33.767 131.467,34.333 131.800,34.900 132.633,34.900 133.467,34.900 134.300,34.900 134.700,35.467 135.100,36.033 135.500,36.600 140.400,36.600 145.300,36.600 150.200,36.600 150.200,34.167 150.200,31.733 150.200,29.300 152.333,29.300 154.467,29.300 156.600,29.300 156.600,31.633 156.600,33.967 156.600,36.300 159.933,36.300 163.267,36.300 166.600,36.300 166.600,37.200 166.600,38.100 166.600,39.000 154.700,39.000 142.800,39.000 130.900,39.000 130.433,38.200 129.967,37.400 129.500,36.600 126.867,36.600 124.233,36.600 121.600,36.600 121.133,36.133 120.667,35.667 120.200,35.200 109.400,35.200 98.600,35.200 87.800,35.200 86.700,35.200 85.800,36.100 85.800,37.200 85.800,38.033 85.800,38.867 85.800,39.700 85.800,42.500 84.600,44.100 83.600,45.200 83.300,45.600 83.000,46.000 82.800,46.400 82.700,46.600 82.600,46.800 82.400,47.000 81.700,48.200 80.600,50.000 82.200,53.000 84.100,56.500 89.800,56.300 90.100,56.200 112.200,56.200 134.300,56.200 156.400,56.200 156.400,58.000 156.400,59.800 156.400,61.600 155.600,64.700 152.900,71.700 145.900,71.700 136.900,71.700 135.700,63.500 134.900,60.600 134.500,59.300 133.800,58.800 133.000,58.800 132.100,58.800 131.200,59.600 131.200,60.600 131.200,62.400 130.400,62.800 130.400,62.800 130.400,62.800 127.900,64.100 127.100,65.600 125.800,67.700 123.200,68.200 120.700,68.200 118.900,68.200 117.200,67.900 116.200,67.800 116.100,67.800 116.000,67.800 115.900,67.800 113.900,67.800 114.100,71.600 112.800,74.500 111.500,77.500 108.800,80.000 108.800,80.000 108.800,80.800 108.800,81.600 108.800,82.400 104.533,82.400 100.267,82.400 96.000,82.400 94.800,82.400 93.900,81.200 94.300,80.000 95.600,76.400 98.000,69.400 99.500,65.200 101.600,59.300 96.100,59.100 96.100,59.100 96.100,59.100 95.000,59.200 93.500,59.200 91.300,59.200 88.300,59.100 87.000,58.400 84.900,57.300 82.900,57.300 82.900,57.300 82.900,58.300 82.900,59.300 82.900,60.300 81.967,60.300 81.033,60.300 80.100,60.300 80.100,59.233 80.100,58.167 80.100,57.100 80.100,57.100 79.000,57.200 77.000,57.500 77.000,51.300 77.000,45.100 77.000,38.900 77.033,38.900 77.067,38.900 77.100,38.900 Z M 157.500,55.400 C 135.067,55.400 112.633,55.400 90.200,55.400 90.100,55.400 84.800,55.600 83.200,52.600 81.800,50.100 82.600,48.700 83.400,47.500 83.400,47.400 83.500,47.400 83.500,47.400 111.233,47.400 138.967,47.400 166.700,47.400 166.700,48.200 166.700,49.000 166.700,49.800 166.700,52.300 168.700,54.400 171.300,54.400 175.533,54.400 179.767,54.400 184.000,54.400 184.000,55.033 184.000,55.667 184.000,56.300 179.000,56.300 174.000,56.300 169.000,56.300 167.667,56.633 166.333,56.967 165.000,57.300 164.033,57.300 163.067,57.300 162.100,57.300 160.600,58.200 159.100,59.100 157.600,60.000 157.600,58.467 157.600,56.933 157.600,55.400 157.567,55.400 157.533,55.400 157.500,55.400 Z M 183.900,53.500 C 179.667,53.500 175.433,53.500 171.200,53.500 169.200,53.500 167.600,51.900 167.600,49.900 167.600,45.333 167.600,40.767 167.600,36.200 173.033,36.200 178.467,36.200 183.900,36.200 183.900,41.967 183.900,47.733 183.900,53.500 183.900,53.500 183.900,53.500 183.900,53.500 Z M 86.800,39.800 C 86.800,38.967 86.800,38.133 86.800,37.300 86.800,36.700 87.300,36.200 87.900,36.200 98.600,36.200 109.300,36.200 120.000,36.200 120.467,36.667 120.933,37.133 121.400,37.600 123.967,37.600 126.533,37.600 129.100,37.600 129.567,38.400 130.033,39.200 130.500,40.000 142.567,40.000 154.633,40.000 166.700,40.000 166.700,42.167 166.700,44.333 166.700,46.500 139.133,46.500 111.567,46.500 84.000,46.500 84.100,46.300 84.300,46.100 84.400,45.900 85.400,44.700 86.800,42.800 86.800,39.800 86.800,39.800 86.800,39.800 86.800,39.800 Z M 184.800,36.200 C 185.300,36.200 185.800,36.200 186.300,36.200 186.300,34.133 186.300,32.067 186.300,30.000 190.200,30.000 194.100,30.000 198.000,30.000 198.000,38.367 198.000,46.733 198.000,55.100 194.133,55.100 190.267,55.100 186.400,55.100 186.400,55.500 186.400,55.900 186.400,56.300 185.900,56.300 185.400,56.300 184.900,56.300 184.900,49.600 184.900,42.900 184.900,36.200 184.867,36.200 184.833,36.200 184.800,36.200 Z M 198.900,28.300 C 199.733,28.300 200.567,28.300 201.400,28.300 201.400,37.800 201.400,47.300 201.400,56.800 200.567,56.800 199.733,56.800 198.900,56.800 198.900,47.300 198.900,37.800 198.900,28.300 198.900,28.300 198.900,28.300 198.900,28.300 Z M 202.400,28.300 C 203.233,28.300 204.067,28.300 204.900,28.300 204.900,37.800 204.900,47.300 204.900,56.800 204.067,56.800 203.233,56.800 202.400,56.800 202.400,47.300 202.400,37.800 202.400,28.300 202.400,28.300 202.400,28.300 202.400,28.300 Z M 205.800,28.300 C 206.633,28.300 207.467,28.300 208.300,28.300 208.300,37.800 208.300,47.300 208.300,56.800 207.467,56.800 206.633,56.800 205.800,56.800 205.800,47.300 205.800,37.800 205.800,28.300 205.800,28.300 205.800,28.300 205.800,28.300 Z M 209.200,28.300 C 210.033,28.300 210.867,28.300 211.700,28.300 211.700,37.800 211.700,47.300 211.700,56.800 210.867,56.800 210.033,56.800 209.200,56.800 209.200,47.300 209.200,37.800 209.200,28.300 209.200,28.300 209.200,28.300 209.200,28.300 Z M 212.600,28.300 C 213.433,28.300 214.267,28.300 215.100,28.300 215.100,37.800 215.100,47.300 215.100,56.800 214.267,56.800 213.433,56.800 212.600,56.800 212.600,47.300 212.600,37.800 212.600,28.300 212.600,28.300 212.600,28.300 212.600,28.300 Z M 216.000,28.300 C 216.833,28.300 217.667,28.300 218.500,28.300 218.500,37.800 218.500,47.300 218.500,56.800 217.667,56.800 216.833,56.800 216.000,56.800 216.000,47.300 216.000,37.800 216.000,28.300 216.000,28.300 216.000,28.300 216.000,28.300 Z M 219.400,28.300 C 220.233,28.300 221.067,28.300 221.900,28.300 221.900,37.800 221.900,47.300 221.900,56.800 221.067,56.800 220.233,56.800 219.400,56.800 219.400,47.300 219.400,37.800 219.400,28.300 219.400,28.300 219.400,28.300 219.400,28.300 Z M 222.900,28.300 C 223.733,28.300 224.567,28.300 225.400,28.300 225.400,37.800 225.400,47.300 225.400,56.800 224.567,56.800 223.733,56.800 222.900,56.800 222.900,47.300 222.900,37.800 222.900,28.300 222.900,28.300 222.900,28.300 222.900,28.300 Z M 226.300,28.300 C 227.133,28.300 227.967,28.300 228.800,28.300 228.800,37.800 228.800,47.300 228.800,56.800 227.967,56.800 227.133,56.800 226.300,56.800 226.300,47.300 226.300,37.800 226.300,28.300 226.300,28.300 226.300,28.300 226.300,28.300 Z M 229.700,28.300 C 230.533,28.300 231.367,28.300 232.200,28.300 232.200,37.800 232.200,47.300 232.200,56.800 231.367,56.800 230.533,56.800 229.700,56.800 229.700,47.300 229.700,37.800 229.700,28.300 229.700,28.300 229.700,28.300 229.700,28.300 Z M 233.100,28.300 C 233.933,28.300 234.767,28.300 235.600,28.300 235.600,37.800 235.600,47.300 235.600,56.800 234.767,56.800 233.933,56.800 233.100,56.800 233.100,47.300 233.100,37.800 233.100,28.300 233.100,28.300 233.100,28.300 233.100,28.300 Z M 236.500,28.300 C 237.333,28.300 238.167,28.300 239.000,28.300 239.000,37.800 239.000,47.300 239.000,56.800 238.167,56.800 237.333,56.800 236.500,56.800 236.500,47.300 236.500,37.800 236.500,28.300 236.500,28.300 236.500,28.300 236.500,28.300 Z M 239.900,28.300 C 240.733,28.300 241.567,28.300 242.400,28.300 242.400,37.800 242.400,47.300 242.400,56.800 241.567,56.800 240.733,56.800 239.900,56.800 239.900,47.300 239.900,37.800 239.900,28.300 239.900,28.300 239.900,28.300 239.900,28.300 Z M 243.400,30.000 C 268.833,30.000 294.267,30.000 319.700,30.000 319.700,38.367 319.700,46.733 319.700,55.100 294.267,55.100 268.833,55.100 243.400,55.100 243.400,46.733 243.400,38.367 243.400,30.000 243.400,30.000 243.400,30.000 243.400,30.000 Z M 320.600,30.000 C 322.400,30.000 324.200,30.000 326.000,30.000 326.000,38.367 326.000,46.733 326.000,55.100 326.167,55.100 326.333,55.100 326.500,55.100 326.500,55.100 326.500,55.100 326.500,55.100 324.533,55.100 322.567,55.100 320.600,55.100 320.600,46.733 320.600,38.367 320.600,30.000 320.600,30.000 320.600,30.000 320.600,30.000 Z M 327.000,32.100 C 343.233,32.100 359.467,32.100 375.700,32.100 375.700,39.100 375.700,46.100 375.700,53.100 359.467,53.100 343.233,53.100 327.000,53.100 327.000,46.100 327.000,39.100 327.000,32.100 327.000,32.100 327.000,32.100 327.000,32.100 Z M 376.600,32.100 C 377.367,32.100 378.133,32.100 378.900,32.100 380.200,32.100 381.200,33.100 381.200,34.400 381.200,39.867 381.200,45.333 381.200,50.800 381.200,52.100 380.200,53.100 378.900,53.100 378.133,53.100 377.367,53.100 376.600,53.100 376.600,46.100 376.600,39.100 376.600,32.100 376.600,32.100 376.600,32.100 376.600,32.100 Z M 0.900,82.500 C 1.100,83.000 1.300,83.500 1.500,84.000 2.000,84.000 2.500,84.000 3.000,84.000 3.200,84.000 3.300,84.000 3.500,84.000 7.100,84.000 14.500,82.800 14.800,82.800 14.967,82.767 15.133,82.733 15.300,82.700 15.433,82.633 15.567,82.567 15.700,82.500 16.000,82.300 41.100,67.000 55.100,64.000 65.200,61.800 73.700,60.500 77.800,59.900 77.800,60.833 77.800,61.767 77.800,62.700 80.300,62.700 82.800,62.700 85.300,62.700 85.300,61.867 85.300,61.033 85.300,60.200 85.500,60.300 85.700,60.400 85.900,60.500 86.800,61.000 88.500,61.600 93.500,61.600 94.700,61.600 95.700,61.600 96.100,61.500 96.500,61.500 97.200,61.700 97.400,62.100 97.700,62.500 97.600,63.400 97.200,64.400 95.700,68.600 93.300,75.500 92.000,79.200 91.500,80.500 91.700,81.900 92.500,83.000 93.300,84.100 94.600,84.800 95.900,84.800 101.000,84.800 106.100,84.800 111.200,84.800 111.200,83.533 111.200,82.267 111.200,81.000 112.200,79.900 113.900,77.900 115.000,75.500 115.500,74.300 115.800,73.000 116.100,71.900 116.200,71.400 116.400,70.800 116.500,70.300 117.600,70.500 119.100,70.700 120.700,70.700 124.800,70.700 127.600,69.400 129.100,66.900 129.100,66.867 129.100,66.833 129.100,66.800 129.100,66.767 129.100,66.733 129.100,66.700 129.300,66.300 130.400,65.500 131.400,65.000 131.400,65.000 131.400,65.000 131.400,65.000 131.800,64.800 132.500,64.300 133.000,63.300 134.100,67.200 136.700,74.300 145.800,74.300 153.800,74.300 157.600,66.700 158.700,61.900 159.900,61.167 161.100,60.433 162.300,59.700 163.133,59.700 163.967,59.700 164.800,59.700 164.900,59.667 165.000,59.633 165.100,59.600 166.333,59.300 167.567,59.000 168.800,58.700 175.333,58.700 181.867,58.700 188.400,58.700 188.400,58.300 188.400,57.900 188.400,57.500 190.833,57.500 193.267,57.500 195.700,57.500 195.700,58.067 195.700,58.633 195.700,59.200 212.200,59.200 228.700,59.200 245.200,59.200 245.200,58.633 245.200,58.067 245.200,57.500 273.000,57.500 300.800,57.500 328.600,57.500 328.600,56.800 328.600,56.100 328.600,55.400 345.267,55.400 361.933,55.400 378.600,55.400 381.200,55.400 383.300,53.300 383.300,50.700 383.300,45.267 383.300,39.833 383.300,34.400 383.300,31.800 381.200,29.700 378.600,29.700 361.933,29.700 345.267,29.700 328.600,29.700 328.600,29.000 328.600,28.300 328.600,27.600 327.300,27.600 326.000,27.600 324.700,27.600 324.700,26.133 324.700,24.667 324.700,23.200 323.167,23.200 321.633,23.200 320.100,23.200 320.100,24.667 320.100,26.133 320.100,27.600 295.167,27.600 270.233,27.600 245.300,27.600 245.300,27.067 245.300,26.533 245.300,26.000 228.867,26.000 212.433,26.000 196.000,26.000 196.000,26.567 196.000,27.133 196.000,27.700 192.000,27.700 188.000,27.700 184.000,27.700 184.000,29.767 184.000,31.833 184.000,33.900 175.667,33.900 167.333,33.900 159.000,33.900 159.000,31.567 159.000,29.233 159.000,26.900 155.267,26.900 151.533,26.900 147.800,26.900 147.800,29.333 147.800,31.767 147.800,34.200 144.100,34.200 140.400,34.200 136.700,34.200 136.533,33.967 136.367,33.733 136.200,33.500 135.967,33.167 135.733,32.833 135.500,32.500 134.700,32.500 133.900,32.500 133.100,32.500 133.000,32.333 132.900,32.167 132.800,32.000 132.567,31.600 132.333,31.200 132.100,30.800 129.733,30.800 127.367,30.800 125.000,30.800 123.667,30.500 122.333,30.200 121.000,29.900 120.900,29.867 120.800,29.833 120.700,29.800 117.900,29.800 115.100,29.800 112.300,29.800 112.300,28.533 112.300,27.267 112.300,26.000 100.267,26.000 88.233,26.000 76.200,26.000 76.200,28.633 76.200,31.267 76.200,33.900 76.000,34.833 75.800,35.767 75.600,36.700 72.300,37.000 65.000,38.000 58.300,41.200 58.067,41.300 57.833,41.400 57.600,41.500 53.800,43.300 51.300,44.500 49.700,44.500 48.900,44.500 48.000,44.200 46.300,42.400 46.067,42.167 45.833,41.933 45.600,41.700 45.300,41.700 45.000,41.700 44.700,41.700 43.800,41.700 42.900,41.600 41.800,41.600 38.800,41.600 35.500,41.700 33.300,41.900 33.300,41.267 33.300,40.633 33.300,40.000 29.467,40.000 25.633,40.000 21.800,40.000 21.800,40.833 21.800,41.667 21.800,42.500 16.667,42.733 11.533,42.967 6.400,43.200 6.300,43.200 6.200,43.200 6.000,43.200 4.900,43.200 3.900,43.600 3.300,44.300 2.700,44.900 2.400,45.800 2.400,46.800 2.600,51.967 2.800,57.133 3.000,62.300 1.900,67.500 -0.400,79.300 0.900,82.500 0.900,82.500 0.900,82.500 0.900,82.500 Z " />
  <path stroke="none" fill="#ffffffff" d="M 31.500,53.500 C 33.500,53.500 35.100,55.100 35.100,57.100 35.100,59.100 33.500,60.700 31.500,60.700 29.500,60.700 27.900,59.100 27.900,57.100 27.900,55.100 29.500,53.500 31.500,53.500 31.500,53.500 31.500,53.500 31.500,53.500 Z " />
  <path stroke="none" fill="#ffffffff" d="M 139.200,50.800 C 139.200,52.236 138.036,53.400 136.600,53.400 135.164,53.400 134.000,52.236 134.000,50.800 134.000,49.364 135.164,48.200 136.600,48.200 138.036,48.200 139.200,49.364 139.200,50.800 139.200,50.800 139.200,50.800 139.200,50.800 Z " />
  <path stroke="none" fill="#ffffffff" d="M 147.100,62.500 C 147.100,63.218 146.518,63.800 145.800,63.800 145.082,63.800 144.500,63.218 144.500,62.500 144.500,61.782 145.082,61.200 145.800,61.200 146.518,61.200 147.100,61.782 147.100,62.500 147.100,62.500 147.100,62.500 147.100,62.500 Z " />
  <path stroke="none" fill="#ffffffff" d="M 87.200,32.300 C 87.200,31.900 87.500,31.600 87.900,31.600 92.133,31.600 96.367,31.600 100.600,31.600 101.000,31.600 101.300,31.900 101.300,32.300 101.300,32.700 101.000,33.000 100.600,33.000 96.367,33.000 92.133,33.000 87.900,33.000 87.500,32.900 87.200,32.600 87.200,32.300 87.200,32.300 87.200,32.300 87.200,32.300 Z M 86.300,32.300 C 86.300,33.200 87.000,33.900 87.900,33.900 92.133,33.900 96.367,33.900 100.600,33.900 101.500,33.900 102.200,33.200 102.200,32.300 102.200,31.400 101.500,30.700 100.600,30.700 96.367,30.700 92.133,30.700 87.900,30.700 87.000,30.600 86.300,31.400 86.300,32.300 86.300,32.300 86.300,32.300 86.300,32.300 Z " />
  <path stroke="none" fill="#ffffffff" d="M 116.300,61.900 C 116.300,60.800 117.200,59.900 118.300,59.900 118.533,59.900 118.767,59.900 119.000,59.900 119.200,60.500 119.300,61.200 119.300,62.000 119.300,62.900 119.800,63.600 120.300,64.100 119.633,64.100 118.967,64.100 118.300,64.100 117.200,64.100 116.300,63.200 116.300,62.100 116.300,62.033 116.300,61.967 116.300,61.900 116.300,61.900 116.300,61.900 116.300,61.900 Z M 120.700,59.900 C 121.300,59.900 121.900,59.900 122.500,59.900 123.600,59.900 124.500,60.800 124.500,61.900 124.500,61.933 124.500,61.967 124.500,62.000 124.500,63.100 123.600,64.000 122.500,64.000 122.033,64.000 121.567,64.000 121.100,64.000 120.900,63.600 120.700,63.100 120.400,62.400 120.100,61.800 120.400,60.800 120.700,59.900 120.700,59.900 120.700,59.900 120.700,59.900 Z M 114.400,61.900 C 114.400,61.933 114.400,61.967 114.400,62.000 114.400,64.100 116.100,65.900 118.300,65.900 119.700,65.900 121.100,65.900 122.500,65.900 124.600,65.900 126.400,64.200 126.400,62.000 126.400,61.967 126.400,61.933 126.400,61.900 126.400,59.800 124.700,58.000 122.500,58.000 122.267,58.000 122.033,58.000 121.800,58.000 120.633,58.000 119.467,58.000 118.300,58.000 118.300,58.000 118.300,58.000 118.300,58.000 116.100,58.000 114.400,59.800 114.400,61.900 114.400,61.900 114.400,61.900 114.400,61.900 Z " />
</svg>