<?xml version="1.0" encoding="UTF-8" standalone="no"?>
<!DOCTYPE svg PUBLIC "-//W3C//DTD SVG 20010904//EN" "http://www.w3.org/TR/2001/REC-SVG-20010904/DTD/svg10.dtd"[]>
<svg version="1.1" id="Frosty Editor v1.0.6.3" xmlns="http://www.w3.org/2000/svg" d1p1:xlink="http://www.w3.org/1999/xlink" viewBox="0 0 25 25" xmlns:d1p1="xmlns">
  <path stroke="none" fill="#ffffffff" d="M 12.324,22.282 C 12.019,22.272 11.754,22.258 11.735,22.251 11.715,22.243 11.609,22.231 11.499,22.224 11.282,22.209 11.123,22.186 10.757,22.116 10.374,22.043 9.676,21.876 9.578,21.834 9.552,21.823 9.462,21.790 9.378,21.761 8.772,21.552 7.975,21.195 7.712,21.015 7.663,20.981 7.543,20.905 7.446,20.845 7.349,20.786 7.232,20.710 7.187,20.677 6.802,20.394 6.701,20.316 6.515,20.161 6.207,19.904 5.771,19.473 5.571,19.229 5.476,19.112 5.374,18.988 5.344,18.953 5.314,18.918 5.249,18.833 5.199,18.764 5.150,18.696 5.059,18.571 4.998,18.487 4.936,18.403 4.861,18.291 4.830,18.239 4.799,18.188 4.719,18.060 4.652,17.956 4.414,17.589 4.012,16.730 3.862,16.270 3.835,16.187 3.798,16.087 3.781,16.048 3.652,15.754 3.383,14.528 3.448,14.528 3.468,14.528 3.607,14.810 3.686,15.011 3.784,15.261 4.044,15.784 4.202,16.048 4.279,16.177 4.367,16.328 4.398,16.383 4.513,16.588 4.913,17.101 5.094,17.275 5.214,17.391 5.214,17.391 5.214,17.391 5.065,17.167 5.065,17.167 5.065,17.167 4.983,17.044 4.876,16.885 4.829,16.814 4.709,16.636 4.424,16.089 4.251,15.706 3.999,15.150 3.707,14.128 3.664,13.648 3.657,13.566 3.640,13.425 3.628,13.336 3.590,13.071 3.552,12.249 3.567,11.995 3.612,11.185 3.709,10.586 3.922,9.805 4.000,9.516 4.290,8.839 4.418,8.646 4.463,8.578 4.500,8.515 4.500,8.505 4.500,8.474 4.759,8.147 4.795,8.133 4.858,8.109 4.850,8.155 4.761,8.333 4.645,8.564 4.536,8.863 4.487,9.084 4.466,9.182 4.434,9.325 4.417,9.402 4.307,9.899 4.298,10.593 4.395,11.146 4.415,11.263 4.442,11.417 4.455,11.488 4.487,11.671 4.725,12.385 4.824,12.596 4.977,12.921 5.120,13.196 5.172,13.267 5.201,13.306 5.269,13.412 5.323,13.503 5.377,13.594 5.446,13.701 5.476,13.743 5.675,14.018 5.802,14.184 5.926,14.334 6.003,14.429 6.091,14.540 6.121,14.580 6.179,14.661 6.385,14.871 6.385,14.850 6.385,14.842 6.312,14.694 6.222,14.520 6.008,14.103 5.562,13.058 5.512,12.855 5.498,12.796 5.451,12.632 5.409,12.490 5.339,12.258 5.304,12.114 5.195,11.618 5.178,11.540 5.158,11.402 5.151,11.311 5.143,11.221 5.125,11.049 5.110,10.930 5.094,10.796 5.088,10.495 5.095,10.141 5.105,9.653 5.116,9.514 5.170,9.214 5.260,8.713 5.374,8.278 5.479,8.036 5.496,7.997 5.553,7.859 5.607,7.729 5.763,7.349 5.782,7.306 5.798,7.293 5.807,7.287 5.856,7.197 5.909,7.093 6.039,6.834 6.388,6.287 6.494,6.174 6.519,6.148 6.599,6.047 6.672,5.950 6.908,5.633 7.544,4.980 7.917,4.671 8.027,4.579 8.137,4.484 8.161,4.460 8.185,4.435 8.302,4.344 8.420,4.256 8.539,4.168 8.650,4.079 8.668,4.057 8.718,3.996 9.025,3.775 9.040,3.789 9.074,3.824 9.005,3.902 8.812,4.046 8.489,4.288 8.221,4.612 7.911,5.137 7.755,5.402 7.583,5.880 7.542,6.162 7.528,6.260 7.500,6.445 7.479,6.575 7.451,6.752 7.445,6.893 7.456,7.145 7.477,7.629 7.483,7.672 7.589,8.188 7.617,8.323 7.834,8.984 7.910,9.167 8.041,9.481 8.264,9.902 8.475,10.233 8.518,10.301 8.553,10.362 8.553,10.370 8.553,10.382 8.715,10.618 8.966,10.972 9.135,11.210 9.549,11.723 9.572,11.723 9.613,11.724 9.582,11.796 9.434,12.054 9.135,12.572 8.976,12.914 8.805,13.409 8.669,13.802 8.656,13.846 8.580,14.174 8.510,14.474 8.507,14.494 8.447,15.019 8.348,15.891 8.568,17.067 8.994,17.944 9.171,18.309 9.436,18.745 9.644,19.017 9.694,19.082 9.779,19.193 9.833,19.264 10.102,19.619 10.782,20.273 11.207,20.584 11.322,20.668 11.420,20.745 11.424,20.755 11.429,20.765 11.441,20.773 11.452,20.773 11.463,20.773 11.550,20.824 11.645,20.886 11.912,21.062 12.159,21.205 12.291,21.259 12.411,21.308 12.411,21.308 12.411,21.308 12.426,20.846 12.426,20.846 12.426,20.846 12.435,20.592 12.448,20.119 12.455,19.795 12.463,19.471 12.477,18.893 12.487,18.510 12.497,18.128 12.503,17.812 12.501,17.809 12.498,17.805 12.375,17.937 12.227,18.102 12.079,18.266 11.874,18.490 11.771,18.599 11.668,18.707 11.562,18.825 11.536,18.860 11.509,18.894 11.450,18.960 11.405,19.006 11.359,19.051 11.266,19.149 11.197,19.224 11.070,19.361 11.051,19.376 11.051,19.337 11.051,19.311 11.351,18.704 11.598,18.228 11.988,17.478 12.040,17.373 12.030,17.356 12.024,17.347 11.939,17.333 11.842,17.326 11.745,17.318 11.508,17.286 11.317,17.253 10.872,17.177 10.202,17.076 10.050,17.061 9.985,17.054 9.826,17.032 9.696,17.010 9.376,16.958 9.335,16.920 9.568,16.894 9.639,16.886 9.776,16.865 9.873,16.847 9.970,16.830 10.166,16.798 10.309,16.778 10.715,16.719 10.997,16.677 11.240,16.639 11.363,16.620 11.580,16.587 11.722,16.567 11.864,16.546 11.984,16.525 11.988,16.521 11.993,16.516 11.974,16.451 11.947,16.375 11.920,16.299 11.849,16.093 11.790,15.918 11.731,15.743 11.675,15.590 11.665,15.577 11.655,15.564 11.612,15.447 11.569,15.317 11.526,15.188 11.456,14.990 11.413,14.878 11.369,14.767 11.334,14.659 11.334,14.640 11.334,14.620 11.307,14.534 11.275,14.448 11.243,14.362 11.216,14.281 11.216,14.268 11.216,14.216 11.262,14.252 11.343,14.369 11.391,14.437 11.456,14.530 11.488,14.575 11.520,14.620 11.615,14.758 11.698,14.881 11.782,15.005 11.925,15.211 12.016,15.341 12.108,15.471 12.254,15.682 12.342,15.810 12.429,15.939 12.512,16.048 12.526,16.053 12.544,16.059 12.557,15.826 12.568,15.277 12.577,14.845 12.599,13.893 12.616,13.161 12.634,12.429 12.648,11.803 12.648,11.771 12.648,11.738 12.654,11.484 12.663,11.205 12.684,10.520 12.765,7.140 12.763,7.022 12.762,6.971 12.770,6.642 12.780,6.292 12.789,5.942 12.802,5.380 12.807,5.043 12.821,4.105 12.846,3.366 12.866,3.334 12.918,3.250 12.934,3.359 12.935,3.800 12.935,4.056 12.941,4.414 12.947,4.595 12.953,4.777 12.964,5.323 12.971,5.809 12.977,6.295 12.988,6.799 12.995,6.928 13.002,7.058 13.013,7.397 13.019,7.682 13.026,7.967 13.037,8.386 13.043,8.613 13.063,9.301 13.085,10.173 13.086,10.298 13.086,10.363 13.101,10.994 13.118,11.700 13.135,12.406 13.150,13.048 13.151,13.126 13.152,13.204 13.167,13.866 13.186,14.599 13.204,15.331 13.219,15.972 13.219,16.024 13.219,16.119 13.219,16.119 13.219,16.119 13.269,16.036 13.269,16.036 13.269,16.036 13.297,15.991 13.327,15.948 13.335,15.942 13.350,15.931 13.410,15.844 13.680,15.437 13.731,15.361 13.783,15.286 13.797,15.272 13.810,15.258 13.907,15.119 14.011,14.964 14.383,14.408 14.501,14.245 14.531,14.245 14.581,14.245 14.589,14.219 14.362,14.834 14.302,14.996 14.190,15.320 14.113,15.553 14.035,15.786 13.957,16.009 13.939,16.048 13.921,16.087 13.876,16.209 13.838,16.321 13.769,16.523 13.769,16.523 13.769,16.523 14.030,16.562 14.030,16.562 14.030,16.562 14.174,16.583 14.354,16.612 14.430,16.626 14.507,16.639 14.714,16.671 14.890,16.696 15.377,16.764 16.146,16.882 16.212,16.898 16.339,16.929 16.345,16.933 16.305,16.955 16.284,16.967 16.215,16.983 16.151,16.992 16.088,17.000 15.945,17.023 15.835,17.041 15.725,17.060 15.550,17.087 15.446,17.100 15.342,17.113 15.125,17.145 14.963,17.171 14.671,17.217 14.403,17.257 13.977,17.320 13.856,17.338 13.751,17.358 13.743,17.366 13.736,17.373 13.763,17.440 13.803,17.515 13.881,17.661 13.948,17.793 14.076,18.051 14.159,18.219 14.379,18.643 14.601,19.064 14.670,19.194 14.726,19.308 14.727,19.318 14.729,19.378 14.636,19.308 14.476,19.131 14.374,19.018 14.205,18.835 14.100,18.724 13.995,18.613 13.767,18.366 13.594,18.175 13.420,17.983 13.275,17.837 13.270,17.850 13.266,17.863 13.279,18.523 13.300,19.317 13.320,20.111 13.339,20.885 13.340,21.038 13.342,21.190 13.350,21.315 13.358,21.315 13.366,21.315 13.446,21.272 13.535,21.220 13.625,21.168 13.746,21.101 13.806,21.070 14.001,20.972 14.449,20.667 14.689,20.470 14.778,20.397 14.910,20.288 14.983,20.228 15.303,19.965 15.948,19.251 16.195,18.887 16.382,18.612 16.465,18.479 16.525,18.357 16.563,18.279 16.610,18.199 16.628,18.178 16.646,18.157 16.699,18.051 16.745,17.942 16.791,17.833 16.860,17.670 16.899,17.580 17.042,17.244 17.178,16.783 17.212,16.519 17.220,16.454 17.238,16.332 17.251,16.248 17.335,15.717 17.320,15.017 17.214,14.457 17.133,14.030 16.929,13.295 16.871,13.220 16.861,13.207 16.813,13.101 16.766,12.984 16.671,12.754 16.340,12.083 16.251,11.941 16.128,11.746 16.122,11.775 16.336,11.523 16.597,11.215 17.005,10.670 17.131,10.460 17.163,10.406 17.218,10.321 17.252,10.270 17.364,10.104 17.652,9.552 17.784,9.251 17.936,8.902 18.126,8.335 18.164,8.118 18.293,7.373 18.310,7.114 18.261,6.598 18.218,6.142 18.069,5.638 17.829,5.145 17.623,4.720 17.282,4.309 16.866,3.983 16.766,3.905 16.685,3.833 16.684,3.823 16.682,3.781 16.753,3.815 16.895,3.925 16.980,3.990 17.107,4.088 17.178,4.141 17.249,4.195 17.318,4.251 17.331,4.266 17.344,4.281 17.456,4.370 17.579,4.465 17.702,4.560 17.855,4.687 17.919,4.746 18.266,5.067 18.684,5.488 18.811,5.644 18.890,5.741 18.991,5.860 19.037,5.909 19.082,5.957 19.147,6.038 19.180,6.088 19.290,6.255 19.449,6.480 19.481,6.512 19.498,6.530 19.529,6.577 19.550,6.618 19.571,6.659 19.665,6.820 19.758,6.975 19.852,7.131 19.936,7.285 19.946,7.317 19.956,7.349 19.999,7.441 20.043,7.520 20.148,7.711 20.363,8.346 20.479,8.813 20.608,9.330 20.651,9.818 20.634,10.569 20.623,11.048 20.611,11.178 20.548,11.532 20.508,11.757 20.460,12.006 20.440,12.086 20.421,12.165 20.399,12.257 20.393,12.289 20.361,12.444 20.039,13.398 19.959,13.574 19.935,13.625 19.884,13.742 19.845,13.833 19.768,14.009 19.578,14.387 19.400,14.713 19.297,14.901 19.300,14.946 19.405,14.812 19.431,14.779 19.530,14.667 19.626,14.563 19.809,14.364 20.200,13.848 20.390,13.554 20.640,13.166 20.965,12.498 21.118,12.054 21.191,11.842 21.288,11.453 21.327,11.217 21.340,11.139 21.362,11.001 21.377,10.911 21.421,10.644 21.405,9.904 21.348,9.558 21.321,9.395 21.288,9.213 21.275,9.155 21.240,9.007 21.053,8.490 20.969,8.310 20.766,7.876 21.173,8.358 21.427,8.852 21.509,9.012 21.598,9.202 21.625,9.273 21.728,9.549 21.827,9.858 21.867,10.027 21.890,10.124 21.936,10.310 21.970,10.439 22.004,10.569 22.048,10.813 22.069,10.981 22.089,11.150 22.115,11.362 22.126,11.453 22.137,11.543 22.154,11.824 22.163,12.077 22.185,12.689 22.140,13.279 22.021,13.927 21.944,14.344 21.800,14.923 21.740,15.054 21.721,15.095 21.667,15.235 21.620,15.364 21.573,15.494 21.513,15.653 21.487,15.718 21.419,15.884 21.153,16.417 21.097,16.498 21.002,16.637 20.878,16.837 20.878,16.851 20.878,16.859 20.782,16.999 20.665,17.160 20.428,17.488 20.470,17.479 20.778,17.136 20.961,16.933 21.094,16.754 21.335,16.388 21.527,16.096 22.037,15.085 22.187,14.699 22.392,14.171 22.273,14.969 22.022,15.807 21.797,16.557 21.594,17.034 21.168,17.803 20.811,18.451 20.339,19.078 19.781,19.649 19.231,20.212 18.531,20.745 17.910,21.073 17.799,21.131 17.692,21.192 17.673,21.207 17.654,21.223 17.558,21.271 17.461,21.314 17.364,21.358 17.189,21.438 17.072,21.493 16.765,21.637 16.455,21.745 15.823,21.926 15.642,21.979 15.435,22.031 15.364,22.044 15.292,22.056 15.117,22.088 14.975,22.114 14.832,22.139 14.663,22.167 14.598,22.176 14.533,22.184 14.390,22.205 14.280,22.222 13.905,22.282 13.103,22.307 12.324,22.282 Z " />
</svg>