<?xml version="1.0" encoding="UTF-8" standalone="no"?>
<!DOCTYPE svg PUBLIC "-//W3C//DTD SVG 20010904//EN" "http://www.w3.org/TR/2001/REC-SVG-20010904/DTD/svg10.dtd"[]>
<svg version="1.1" id="Frosty Editor v1.0.6.3" xmlns="http://www.w3.org/2000/svg" d1p1:xlink="http://www.w3.org/1999/xlink" viewBox="0 0 101 25" xmlns:d1p1="xmlns">
  <path stroke="none" fill="#ffffffff" d="M 67.178,1.674 C 67.066,2.288 67.066,2.288 67.066,2.288 67.066,2.372 67.066,2.372 67.066,2.372 62.444,2.372 62.444,2.372 62.444,2.372 62.428,2.337 62.393,2.312 62.352,2.312 62.153,2.312 62.153,2.312 62.153,2.312 62.153,2.180 62.153,2.180 62.153,2.180 62.222,1.251 61.991,2.005 61.979,2.180 61.971,2.180 61.971,2.180 61.971,2.180 61.937,2.153 61.809,2.114 61.692,2.114 61.574,2.114 61.446,2.153 61.413,2.180 61.404,2.180 61.404,2.180 61.404,2.180 61.397,2.070 61.302,1.728 61.251,1.726 61.220,1.724 61.205,1.838 61.230,2.180 61.230,2.312 61.230,2.312 61.230,2.312 61.026,2.312 61.026,2.312 61.026,2.312 60.985,2.312 60.950,2.337 60.935,2.372 60.423,2.372 60.423,2.372 60.423,2.372 60.012,3.224 60.012,3.224 60.012,3.224 49.511,3.224 49.511,3.224 49.511,3.224 48.709,4.255 48.709,4.255 48.709,4.255 44.950,4.255 44.950,4.255 44.950,4.255 45.099,4.540 45.099,4.540 45.099,4.540 44.319,4.540 44.319,4.540 44.319,4.540 44.240,4.387 44.161,4.233 44.082,4.080 43.287,4.083 43.287,4.083 43.287,4.083 40.898,4.083 40.898,4.083 40.898,4.083 40.632,3.768 40.367,3.453 40.102,3.138 39.653,3.138 39.653,3.138 39.653,3.138 39.653,3.598 39.653,3.598 39.653,3.598 39.653,3.835 39.653,3.835 39.653,3.835 39.778,3.835 39.778,3.835 39.778,3.835 40.035,4.150 40.293,4.465 40.550,4.780 42.913,4.780 42.913,4.780 42.913,4.780 42.931,4.814 42.948,4.849 42.966,4.883 42.098,4.960 42.098,4.960 42.098,4.960 39.653,4.960 39.653,4.960 39.653,4.960 39.653,3.598 39.653,3.598 39.653,3.598 39.653,2.518 39.653,2.518 39.653,2.518 39.596,2.518 39.596,2.518 39.596,2.518 39.596,2.386 39.596,2.386 39.596,2.386 39.665,1.457 39.433,2.212 39.422,2.386 39.413,2.386 39.413,2.386 39.413,2.386 39.380,2.359 39.252,2.320 39.135,2.320 39.017,2.320 38.889,2.359 38.856,2.386 38.847,2.386 38.847,2.386 38.847,2.386 38.840,2.276 38.745,1.934 38.693,1.932 38.663,1.930 38.648,2.044 38.673,2.386 38.673,2.518 38.673,2.518 38.673,2.518 38.360,2.518 38.360,2.518 38.360,2.518 38.360,3.138 38.360,3.138 38.360,3.138 35.897,3.138 35.897,3.138 35.897,3.138 35.897,3.710 35.897,3.710 35.897,3.710 33.334,3.718 30.771,3.727 28.208,3.735 28.208,3.436 28.208,3.436 28.208,3.436 26.757,2.989 25.305,2.541 23.854,2.093 23.265,2.632 22.676,3.171 22.087,3.710 22.079,3.892 22.071,4.075 22.063,4.257 18.355,4.257 18.355,4.257 18.355,4.257 18.305,4.365 18.256,4.473 18.206,4.581 18.156,4.399 18.106,4.216 18.057,4.034 16.390,4.034 16.390,4.034 16.390,4.034 15.685,5.634 14.980,7.235 14.275,8.836 14.275,11.150 14.275,11.150 14.275,11.150 14.689,11.888 15.104,12.626 15.519,13.364 15.917,14.061 16.390,14.409 16.912,14.409 17.783,14.409 17.858,13.812 17.858,13.812 19.624,13.812 19.624,13.812 19.624,13.812 19.624,14.011 19.674,14.484 19.973,14.857 20.172,15.106 20.669,15.429 21.341,15.429 22.237,15.429 22.834,14.981 23.083,14.509 23.232,14.509 23.132,14.484 23.232,14.484 23.456,14.484 23.730,14.633 23.779,14.708 24.028,15.006 24.028,15.977 23.804,16.425 23.630,16.798 22.809,18.216 22.112,19.435 20.918,21.525 22.909,22.321 23.580,22.595 24.053,22.794 24.003,23.292 24.103,23.740 24.252,24.362 24.576,24.710 25.173,24.710 25.496,24.710 25.919,24.586 26.292,24.362 26.392,24.287 26.541,24.262 26.715,24.237 27.064,24.163 27.412,24.063 27.860,23.615 28.457,23.018 28.333,21.998 27.910,21.301 28.183,20.704 29.154,18.763 29.154,18.763 29.502,18.166 29.801,17.793 30.149,17.793 30.398,17.793 30.622,17.942 30.721,18.017 31.269,18.465 31.891,18.863 33.433,18.863 35.598,18.863 36.569,17.271 36.569,16.225 36.569,16.176 36.544,14.285 36.544,14.285 43.063,14.285 43.063,14.285 43.063,14.285 43.087,14.335 43.112,14.384 43.137,14.434 42.938,14.865 42.739,15.297 42.540,15.728 42.540,16.151 42.540,16.151 42.540,16.151 42.308,16.308 42.076,16.466 41.843,16.624 41.843,20.679 41.843,20.679 41.843,20.679 42.159,21.086 42.474,21.492 42.789,21.898 44.182,21.898 44.182,21.898 44.182,21.898 44.182,22.346 44.182,22.346 44.182,22.346 57.394,22.346 57.394,22.346 57.394,22.346 57.394,21.625 57.394,21.625 57.394,21.625 57.552,21.542 57.710,21.459 57.867,21.376 59.186,21.376 59.186,21.376 59.186,21.376 59.186,20.704 59.186,20.704 59.186,20.704 59.559,20.704 59.733,20.231 59.733,19.560 59.733,19.137 59.733,18.714 59.459,18.539 59.576,18.266 59.692,17.992 59.808,17.718 59.144,17.105 58.481,16.491 57.817,15.877 57.577,15.811 57.336,15.745 57.096,15.678 57.303,15.512 57.511,15.346 57.718,15.180 57.718,14.086 57.718,14.086 57.718,14.086 59.509,14.086 59.509,14.086 59.509,14.086 61.768,8.585 61.768,8.585 61.768,8.585 65.783,8.585 65.783,8.585 65.783,8.585 65.783,8.767 65.783,8.767 65.783,8.767 67.066,8.767 67.066,8.767 67.066,8.767 67.977,8.767 67.977,8.767 67.977,8.767 68.155,8.767 68.155,8.767 68.155,8.767 68.155,8.585 68.155,8.585 68.155,8.585 70.860,8.585 70.860,8.585 70.860,8.585 70.860,8.767 70.860,8.767 70.860,8.767 72.138,8.767 72.138,8.767 72.138,8.767 72.493,8.767 72.493,8.767 72.493,8.767 72.817,8.767 72.817,8.767 72.817,8.767 72.817,7.426 72.817,7.426 72.817,7.426 72.639,7.426 72.639,7.426 72.639,7.426 72.711,6.598 72.711,6.598 72.711,6.598 72.790,6.598 72.790,6.598 72.790,6.598 73.326,6.235 73.326,6.235 73.326,6.235 86.452,6.235 86.452,6.235 86.452,6.235 86.452,6.654 86.452,6.654 86.452,6.654 87.483,6.654 87.483,6.654 87.483,6.654 87.483,6.235 87.483,6.235 87.483,6.235 87.762,6.235 87.762,6.235 87.762,6.235 87.762,6.456 87.762,6.456 87.762,6.456 91.703,6.691 91.703,6.691 91.703,6.691 91.703,3.812 91.703,3.812 91.703,3.812 87.762,4.047 87.762,4.047 87.762,4.047 87.762,4.268 87.762,4.268 87.762,4.268 87.483,4.268 87.483,4.268 87.483,4.268 87.483,3.849 87.483,3.849 87.483,3.849 86.452,3.849 86.452,3.849 86.452,3.849 86.452,4.268 86.452,4.268 86.452,4.268 73.326,4.268 73.326,4.268 73.326,4.268 72.790,3.905 72.790,3.905 72.790,3.905 68.935,3.905 68.935,3.905 68.935,3.905 68.935,3.403 68.935,3.403 68.935,3.403 68.376,2.372 68.376,2.372 68.376,2.372 67.977,2.372 67.977,2.372 67.977,2.372 67.977,2.288 67.977,2.288 67.977,2.288 67.865,1.674 67.865,1.674 67.865,1.674 Z M 67.398,1.938 C 67.644,1.938 67.644,1.938 67.644,1.938 67.667,2.063 67.690,2.189 67.713,2.314 67.713,7.690 67.713,7.690 67.713,7.690 67.891,7.690 67.891,7.690 67.891,7.690 67.891,8.237 67.891,8.237 67.891,8.237 66.047,8.237 66.047,8.237 66.047,8.237 66.047,7.690 66.047,7.690 66.047,7.690 67.330,7.690 67.330,7.690 67.330,7.690 67.330,2.314 67.330,2.314 67.330,2.314 67.353,2.189 67.376,2.063 67.398,1.938 Z M 62.259,2.504 C 62.260,5.075 62.260,5.075 62.260,5.075 61.880,5.076 61.500,5.077 61.120,5.077 61.119,4.220 61.119,3.362 61.118,2.505 61.308,2.505 61.498,2.504 61.687,2.504 61.878,2.504 62.068,2.504 62.259,2.504 Z M 67.977,2.630 C 68.229,2.630 68.229,2.630 68.229,2.630 68.323,2.803 68.418,2.977 68.512,3.151 68.229,3.151 68.229,3.151 68.229,3.151 67.977,3.151 67.977,3.151 67.977,3.151 Z M 38.709,2.866 C 39.305,2.866 39.305,2.866 39.305,2.866 39.305,3.250 39.305,3.250 39.305,3.250 38.709,3.250 38.709,3.250 38.709,3.250 Z M 24.053,2.889 C 25.214,3.237 26.375,3.586 27.537,3.934 27.537,4.407 27.537,4.407 27.537,4.407 30.547,4.365 33.558,4.324 36.569,4.282 36.602,4.863 36.635,5.444 36.668,6.024 36.345,6.024 36.345,6.024 36.345,6.024 36.345,12.916 36.345,12.916 36.345,12.916 35.855,12.908 35.366,12.900 34.877,12.891 34.653,11.722 33.782,11.423 33.608,11.423 21.888,11.423 21.888,11.423 21.888,11.423 20.619,11.423 20.072,13.165 20.072,13.165 17.733,13.165 17.733,13.165 17.733,13.165 17.318,12.402 16.904,11.639 16.489,10.876 16.489,8.861 16.489,8.861 16.489,8.861 17.178,7.550 17.866,6.240 18.554,4.929 19.981,4.921 21.407,4.913 22.834,4.904 22.834,3.959 22.834,3.959 22.834,3.959 23.240,3.602 23.647,3.246 24.053,2.889 Z M 60.590,3.067 C 60.927,3.067 60.927,3.067 60.927,3.067 60.927,3.403 60.927,3.403 60.927,3.403 60.590,3.403 60.590,3.403 60.590,3.403 Z M 62.452,3.067 C 66.634,3.067 66.634,3.067 66.634,3.067 66.634,3.403 66.634,3.403 66.634,3.403 62.452,3.403 62.452,3.403 62.452,3.403 Z M 60.255,3.107 C 60.255,3.364 60.255,3.364 60.255,3.364 60.230,3.416 60.205,3.468 60.180,3.519 60.180,3.262 60.180,3.262 60.180,3.262 60.205,3.211 60.230,3.159 60.255,3.107 Z M 67.977,3.403 C 68.683,3.403 68.683,3.403 68.683,3.403 68.683,4.486 68.683,5.888 68.683,6.946 68.229,6.946 68.229,6.946 68.229,6.946 67.977,6.946 67.977,6.946 67.977,6.946 Z M 50.220,3.563 C 54.308,3.563 54.308,3.563 54.308,3.563 54.407,3.563 54.486,3.642 54.486,3.741 54.486,3.840 54.407,3.919 54.308,3.919 50.220,3.919 50.220,3.919 50.220,3.919 50.122,3.919 50.042,3.840 50.042,3.741 50.042,3.642 50.122,3.563 50.220,3.563 Z M 55.630,3.563 C 58.907,3.563 58.907,3.563 58.907,3.563 59.006,3.563 59.085,3.642 59.085,3.741 59.085,3.840 59.006,3.919 58.907,3.919 55.630,3.919 55.630,3.919 55.630,3.919 55.531,3.919 55.452,3.840 55.452,3.741 55.452,3.642 55.531,3.563 55.630,3.563 Z M 38.709,3.598 C 39.305,3.598 39.305,3.598 39.305,3.598 39.305,4.960 39.305,4.960 39.305,4.960 38.773,4.960 38.773,4.960 38.773,4.960 38.709,4.983 38.709,4.983 38.709,4.983 Z M 60.632,3.614 C 60.927,3.614 60.927,3.614 60.927,3.614 60.927,5.169 60.927,5.169 60.927,5.169 60.927,5.224 60.971,5.269 61.026,5.269 62.352,5.269 62.352,5.269 62.352,5.269 62.407,5.269 62.452,5.224 62.452,5.169 62.452,3.614 62.452,3.614 62.452,3.614 66.442,3.614 66.442,3.614 66.442,3.614 66.442,3.614 66.442,3.614 66.442,3.614 67.066,3.614 67.066,3.614 67.066,3.614 67.066,7.025 67.066,7.025 67.066,7.025 47.101,7.025 47.101,7.025 47.101,7.025 47.093,7.010 47.085,6.995 47.077,6.980 47.047,6.922 47.017,6.865 46.987,6.807 46.957,6.750 46.926,6.692 46.896,6.634 46.897,6.634 46.897,6.634 46.897,6.634 46.887,6.614 46.876,6.594 46.866,6.574 46.665,6.189 46.464,5.804 46.262,5.419 46.492,5.419 46.492,5.419 46.492,5.419 46.492,4.879 46.492,4.879 46.492,4.879 47.318,4.879 48.144,4.879 48.969,4.879 49.297,4.457 49.297,4.457 49.297,4.457 49.350,4.389 49.402,4.322 49.454,4.255 59.424,4.255 59.424,4.255 59.424,4.255 59.424,4.466 59.424,4.466 59.424,4.466 59.602,4.466 59.780,4.467 59.957,4.469 60.209,4.483 60.282,4.340 60.392,4.112 60.472,3.946 60.552,3.780 60.632,3.614 Z M 36.792,3.835 C 38.360,3.835 38.360,3.835 38.360,3.835 38.360,6.164 38.360,6.164 38.360,6.164 39.653,6.164 39.653,6.164 39.653,6.164 39.653,5.578 39.653,5.578 39.653,5.578 42.098,5.578 42.098,5.578 42.098,5.578 43.268,5.475 43.268,5.475 43.268,5.475 43.747,6.413 44.226,7.351 44.705,8.288 44.705,12.941 44.705,12.941 44.705,12.941 36.593,12.941 36.593,12.941 36.593,12.941 36.593,6.273 36.593,6.273 36.593,6.273 36.917,6.273 36.917,6.273 36.917,6.273 36.875,5.460 36.834,4.647 36.792,3.835 Z M 86.836,4.233 C 87.099,4.233 87.099,4.233 87.099,4.233 87.099,6.270 87.099,6.270 87.099,6.270 86.836,6.270 86.836,6.270 86.836,6.270 86.836,6.235 86.836,6.235 86.836,6.235 86.836,4.268 86.836,4.268 86.836,4.268 Z M 91.247,4.295 C 91.247,6.208 91.247,6.208 91.247,6.208 90.696,6.175 90.144,6.142 89.593,6.109 89.593,4.394 89.593,4.394 89.593,4.394 90.144,4.361 90.696,4.328 91.247,4.295 Z M 68.935,4.362 C 72.650,4.362 72.650,4.362 72.650,4.362 72.724,4.411 72.797,4.461 72.870,4.510 72.870,4.724 72.870,4.724 72.870,4.724 72.870,5.779 72.870,5.779 72.870,5.779 72.870,5.993 72.870,5.993 72.870,5.993 72.797,6.043 72.724,6.092 72.650,6.142 72.605,6.142 72.605,6.142 72.605,6.142 71.596,6.142 71.596,6.142 71.596,6.142 68.935,6.142 68.935,6.142 68.935,6.142 Z M 50.695,4.641 C 51.103,6.648 51.103,6.648 51.103,6.648 56.890,6.648 56.890,6.648 56.890,6.648 57.902,4.641 57.902,4.641 57.902,4.641 Z M 73.326,4.724 C 86.452,4.724 86.452,4.724 86.452,4.724 86.452,5.779 86.452,5.779 86.452,5.779 73.326,5.779 73.326,5.779 73.326,5.779 Z M 87.483,4.724 C 89.136,4.724 89.136,4.724 89.136,4.724 89.136,5.779 89.136,5.779 89.136,5.779 87.483,5.779 87.483,5.779 87.483,5.779 Z M 16.937,4.755 C 17.858,4.755 17.858,4.755 17.858,4.755 17.932,4.962 18.007,5.170 18.082,5.377 17.476,6.522 16.871,7.666 16.265,8.811 16.265,10.951 16.265,10.951 16.265,10.951 16.680,11.714 17.095,12.477 17.509,13.240 17.435,13.339 17.260,13.613 16.937,13.613 16.738,13.613 16.439,13.588 16.116,13.016 15.734,12.336 15.353,11.656 14.971,10.976 14.971,9.010 14.971,9.010 14.971,9.010 15.627,7.592 16.282,6.173 16.937,4.755 Z M 50.929,4.833 C 57.591,4.833 57.591,4.833 57.591,4.833 57.318,5.374 57.045,5.915 56.772,6.455 51.259,6.455 51.259,6.455 51.259,6.455 Z M 23.083,4.904 C 23.083,8.736 23.083,8.736 23.083,8.736 35.300,8.736 35.300,8.736 35.300,8.736 34.031,7.459 32.762,6.182 31.493,4.904 Z M 46.252,5.041 C 46.252,5.179 46.252,5.179 46.252,5.179 43.946,5.179 43.946,5.179 43.946,5.179 43.643,5.202 43.341,5.228 43.038,5.255 42.735,5.281 42.432,5.308 42.129,5.335 41.304,5.338 40.479,5.338 39.653,5.338 39.537,5.338 39.421,5.338 39.305,5.338 39.285,5.338 39.264,5.338 39.244,5.338 39.147,5.340 39.051,5.337 38.954,5.337 38.904,5.338 38.853,5.338 38.802,5.341 38.771,5.342 38.740,5.344 38.709,5.347 38.709,5.347 38.709,5.347 38.709,5.347 38.691,5.349 38.673,5.350 38.656,5.352 38.656,5.259 38.656,5.259 38.656,5.259 38.656,5.259 38.656,5.259 38.656,5.259 38.673,5.252 38.691,5.246 38.709,5.239 38.744,5.226 38.780,5.213 38.815,5.200 38.979,5.200 39.142,5.200 39.305,5.200 39.653,5.200 39.653,5.200 39.653,5.200 40.454,5.200 41.255,5.200 42.056,5.200 42.058,5.200 42.059,5.199 42.061,5.199 42.369,5.176 42.676,5.149 42.984,5.122 43.293,5.095 43.602,5.068 43.911,5.041 44.691,5.041 45.472,5.041 46.252,5.041 Z M 23.282,5.153 C 31.343,5.153 31.343,5.153 31.343,5.153 34.678,8.487 34.678,8.487 34.678,8.487 23.307,8.487 23.307,8.487 23.307,8.487 23.282,8.487 23.282,8.487 23.282,8.487 Z M 43.901,5.419 C 44.564,5.419 44.564,5.419 44.564,5.419 44.984,6.259 45.404,7.100 45.824,7.940 45.824,14.285 45.824,14.285 45.824,14.285 56.996,14.285 56.996,14.285 56.996,14.285 56.996,15.006 56.996,15.006 56.996,15.006 56.839,15.123 56.681,15.238 56.523,15.355 56.523,15.877 56.523,15.877 56.523,15.877 56.590,15.977 56.656,16.076 56.723,16.176 44.804,16.176 44.804,16.176 44.804,16.176 44.804,21.177 44.804,21.177 44.804,21.177 44.779,21.177 44.779,21.177 44.779,21.177 43.137,21.177 43.137,21.177 43.137,21.177 42.988,20.970 42.839,20.762 42.689,20.555 42.689,16.972 42.689,16.972 42.689,16.972 42.897,16.814 43.104,16.657 43.311,16.499 43.311,15.877 43.311,15.877 43.311,15.877 43.535,15.388 43.759,14.899 43.983,14.409 43.834,14.144 43.685,13.878 43.535,13.613 36.618,13.613 36.618,13.613 36.618,13.613 36.618,13.165 36.618,13.165 36.618,13.165 45.028,13.165 45.028,13.165 45.028,13.165 45.028,8.214 45.028,8.214 45.028,8.214 44.540,7.292 44.052,6.371 43.563,5.449 Z M 44.773,5.419 C 45.559,5.419 45.559,5.419 45.559,5.419 46.488,7.198 46.488,7.198 46.488,7.198 46.738,7.675 46.738,7.675 46.738,7.675 47.212,7.675 47.212,7.675 47.212,7.675 47.212,8.507 47.212,8.507 47.212,8.507 47.390,8.507 47.390,8.507 47.390,8.507 48.301,8.507 48.301,8.507 48.301,8.507 48.775,8.507 48.775,8.507 48.775,8.507 48.775,8.320 48.775,8.320 48.775,8.320 58.342,8.320 58.342,8.320 58.342,8.320 57.802,10.234 57.262,12.147 56.723,14.061 46.048,14.061 46.048,14.061 46.048,14.061 46.048,7.890 46.048,7.890 46.048,7.890 45.623,7.067 45.198,6.243 44.773,5.419 Z M 61.172,5.534 C 61.117,5.534 61.096,5.584 61.073,5.634 60.595,6.661 60.595,6.661 60.595,6.661 60.572,6.711 60.640,6.761 60.695,6.761 66.781,6.761 66.781,6.761 66.781,6.761 66.836,6.761 66.880,6.716 66.880,6.661 66.880,5.634 66.880,5.634 66.880,5.634 66.880,5.579 66.836,5.534 66.781,5.534 Z M 38.773,5.578 C 39.305,5.578 39.305,5.578 39.305,5.578 39.305,5.816 39.305,5.816 39.305,5.816 38.709,5.816 38.709,5.816 38.709,5.816 38.709,5.587 38.709,5.587 38.709,5.587 Z M 66.698,5.714 C 66.700,6.003 66.700,6.291 66.700,6.580 64.744,6.580 62.788,6.580 60.832,6.581 60.966,6.292 61.100,6.003 61.235,5.715 Z M 68.935,6.598 C 70.638,6.598 70.638,6.598 70.638,6.598 70.993,7.426 70.993,7.426 70.993,7.426 70.860,7.426 70.860,7.426 70.860,7.426 70.860,7.723 70.860,7.723 70.860,7.723 68.155,7.723 68.155,7.723 68.155,7.723 68.155,7.426 68.155,7.426 68.155,7.426 67.977,7.426 67.977,7.426 67.977,7.426 67.977,7.198 67.977,7.198 67.977,7.198 68.683,7.198 68.683,7.198 68.683,7.198 68.368,7.675 68.368,7.675 68.368,7.675 68.620,7.675 68.620,7.675 68.620,7.675 68.935,7.198 68.935,7.198 68.935,7.198 Z M 71.054,6.598 C 72.324,6.598 72.324,6.598 72.324,6.598 72.293,6.954 72.262,7.310 72.230,7.666 72.431,7.666 72.431,7.666 72.431,7.666 72.431,8.261 72.431,8.261 72.431,8.261 71.255,8.261 71.255,8.261 71.255,8.261 71.255,7.669 71.255,7.669 71.255,7.669 71.255,7.668 71.256,7.667 71.256,7.666 71.511,7.666 71.511,7.666 71.511,7.666 71.384,7.369 71.384,7.369 71.384,7.369 71.379,7.349 71.371,7.329 71.359,7.311 71.258,7.073 71.156,6.836 71.054,6.598 Z M 47.191,7.198 C 67.066,7.198 67.066,7.198 67.066,7.198 67.066,7.426 67.066,7.426 67.066,7.426 65.783,7.426 65.783,7.426 65.783,7.426 65.783,7.498 65.783,7.498 65.783,7.498 48.775,7.498 48.775,7.498 48.775,7.498 48.775,7.431 48.775,7.431 48.775,7.431 48.301,7.431 48.301,7.431 48.301,7.431 48.301,7.299 48.301,7.299 48.301,7.299 47.534,7.299 47.534,7.299 47.534,7.299 47.534,7.431 47.534,7.431 47.534,7.431 47.313,7.431 47.313,7.431 47.313,7.431 47.295,7.396 47.276,7.361 47.258,7.325 47.235,7.283 47.213,7.241 47.191,7.198 Z M 48.037,7.563 C 48.037,7.696 48.037,7.696 48.037,7.696 48.511,7.696 48.511,7.696 48.511,7.696 48.511,7.723 48.511,7.723 48.511,7.723 48.511,7.744 48.511,7.744 48.511,7.744 48.511,7.952 48.511,7.952 48.511,7.952 48.511,8.243 48.511,8.243 48.511,8.243 47.476,8.243 47.476,8.243 47.476,8.243 47.476,7.728 47.476,7.728 47.476,7.728 47.765,7.728 47.765,7.728 47.765,7.728 47.765,7.564 47.765,7.564 47.765,7.564 47.786,7.563 47.807,7.563 47.829,7.563 Z M 48.775,7.675 C 65.783,7.675 65.783,7.675 65.783,7.675 65.783,7.723 65.783,7.723 65.783,7.723 48.775,7.723 48.775,7.723 48.775,7.723 Z M 48.775,7.952 C 65.783,7.952 65.783,7.952 65.783,7.952 65.783,8.092 65.783,8.092 65.783,8.092 48.775,8.092 48.775,8.092 48.775,8.092 Z M 68.155,7.952 C 70.860,7.952 70.860,7.952 70.860,7.952 70.860,8.092 70.860,8.092 70.860,8.092 68.155,8.092 68.155,8.092 68.155,8.092 Z M 58.611,8.320 C 61.165,8.320 61.165,8.320 61.165,8.320 60.514,10.010 59.862,11.699 59.211,13.389 57.195,13.389 57.195,13.389 57.195,13.389 57.667,11.699 58.139,10.010 58.611,8.320 Z M 22.038,11.622 C 33.583,11.622 33.583,11.622 33.583,11.622 33.832,11.622 34.404,11.946 34.603,12.767 34.611,12.792 34.620,12.817 34.628,12.842 31.319,12.842 31.319,12.842 31.319,12.842 31.294,12.891 27.313,21.152 27.238,21.351 27.163,21.550 27.984,22.645 27.437,23.143 26.914,23.615 26.491,23.466 25.994,23.789 25.770,23.939 25.446,24.038 25.247,24.038 24.999,24.038 24.824,23.814 24.750,23.466 24.601,22.844 24.824,22.645 24.128,22.197 23.431,21.749 21.988,21.127 22.759,19.709 23.580,18.241 24.252,17.071 24.476,16.599 24.700,16.126 24.974,13.762 23.232,13.762 22.933,13.762 22.560,13.812 22.560,13.812 22.560,13.812 22.436,14.683 21.316,14.683 20.445,14.683 20.246,13.663 20.346,13.289 20.495,12.643 21.042,11.622 22.038,11.622 Z M 31.468,13.140 C 35.946,13.140 35.946,13.140 35.946,13.140 35.922,13.165 35.922,15.678 35.922,16.101 35.922,17.047 35.175,18.191 33.458,18.191 31.766,18.191 31.368,17.743 30.746,17.246 30.597,17.121 30.373,17.121 30.174,17.121 29.900,17.121 29.676,17.146 29.353,17.395 30.058,15.977 30.763,14.558 31.468,13.140 Z M 32.737,13.762 C 32.065,13.762 31.493,14.310 31.493,15.006 31.493,16.425 31.493,16.425 31.493,16.425 31.493,17.121 32.065,17.669 32.737,17.669 34.155,17.669 34.155,17.669 34.155,17.669 34.852,17.669 35.399,17.096 35.399,16.425 35.399,15.006 35.399,15.006 35.399,15.006 35.399,14.310 34.827,13.762 34.155,13.762 Z M 33.160,14.235 C 34.130,14.235 34.130,14.235 34.130,14.235 34.553,14.235 34.877,14.558 34.877,14.981 34.877,16.400 34.877,16.400 34.877,16.400 34.901,16.823 34.578,17.171 34.155,17.171 33.384,17.171 33.384,17.171 33.384,17.171 32.836,16.599 33.035,16.176 33.210,15.827 33.259,15.753 33.284,15.678 33.309,15.603 33.317,15.579 33.326,15.554 33.334,15.529 33.284,15.479 33.284,15.479 33.284,15.479 33.035,15.156 32.961,14.832 33.010,14.558 33.035,14.434 33.085,14.335 33.160,14.235 Z M 32.737,14.260 C 32.886,14.260 32.886,14.260 32.886,14.260 32.836,14.335 32.811,14.434 32.787,14.509 32.712,14.857 32.811,15.205 33.060,15.579 33.035,15.628 33.010,15.653 32.986,15.703 32.811,16.026 32.563,16.524 33.035,17.146 32.712,17.146 32.712,17.146 32.712,17.146 32.289,17.146 31.965,16.823 31.965,16.400 31.965,15.006 31.965,15.006 31.965,15.006 31.990,15.006 31.990,15.006 31.990,15.006 31.990,14.583 32.314,14.260 32.737,14.260 Z M 45.053,16.449 C 56.797,16.449 56.797,16.449 56.797,16.449 57.054,16.499 57.311,16.549 57.568,16.599 58.058,17.047 58.547,17.494 59.036,17.942 58.937,18.158 58.837,18.374 58.738,18.589 58.738,18.589 59.086,18.539 59.086,19.361 59.086,20.430 58.564,20.381 58.564,20.381 58.564,20.605 58.564,20.605 58.564,20.605 57.519,20.605 57.519,20.605 57.519,20.605 57.486,20.704 57.452,20.804 57.419,20.903 57.237,21.011 57.054,21.119 56.872,21.227 56.872,21.724 56.872,21.724 56.872,21.724 53.065,21.724 53.065,21.724 53.065,21.724 53.065,17.221 53.065,17.221 53.065,17.221 45.899,17.221 45.899,17.221 45.899,17.221 45.899,21.724 45.899,21.724 45.899,21.724 45.053,21.724 45.053,21.724 45.053,21.724 Z M 46.148,17.470 C 47.044,17.470 47.044,17.470 47.044,17.470 47.019,17.519 46.994,21.102 46.994,21.102 46.994,21.252 47.093,21.351 47.243,21.351 47.392,21.351 47.491,21.252 47.491,21.102 47.491,21.102 47.467,17.519 47.442,17.470 48.138,17.470 48.138,17.470 48.138,17.470 48.114,17.519 48.089,21.102 48.089,21.102 48.089,21.252 48.188,21.351 48.337,21.351 48.487,21.351 48.586,21.252 48.586,21.102 48.586,21.102 48.561,17.519 48.537,17.470 49.233,17.470 49.233,17.470 49.233,17.470 49.208,17.519 49.183,21.102 49.183,21.102 49.183,21.252 49.283,21.351 49.432,21.351 49.582,21.351 49.681,21.252 49.681,21.102 49.681,21.102 49.656,17.519 49.631,17.470 50.353,17.470 50.353,17.470 50.353,17.470 50.328,17.519 50.303,21.102 50.303,21.102 50.303,21.252 50.403,21.351 50.552,21.351 50.701,21.351 50.801,21.252 50.801,21.102 50.801,21.102 50.776,17.519 50.751,17.470 51.522,17.470 51.522,17.470 51.522,17.470 51.497,17.519 51.473,21.102 51.473,21.102 51.473,21.252 51.572,21.351 51.721,21.351 51.871,21.351 51.970,21.252 51.970,21.102 51.970,21.102 51.945,17.519 51.920,17.470 52.741,17.470 52.741,17.470 52.741,17.470 52.741,21.525 52.741,21.525 52.741,21.525 46.148,21.525 46.148,21.525 46.148,21.525 Z " />
</svg>