<?xml version="1.0" encoding="UTF-8" standalone="no"?>
<!DOCTYPE svg PUBLIC "-//W3C//DTD SVG 20010904//EN" "http://www.w3.org/TR/2001/REC-SVG-20010904/DTD/svg10.dtd"[]>
<svg version="1.1" id="Frosty Editor v1.0.6.3" xmlns="http://www.w3.org/2000/svg" d1p1:xlink="http://www.w3.org/1999/xlink" viewBox="0 0 384 96" xmlns:d1p1="xmlns">
  <path stroke="none" fill="#ffffffff" d="M 354.860,42.250 C 354.860,43.760 354.860,45.270 354.860,46.780 353.707,48.855 351.482,50.102 349.110,50.000 349.110,45.423 349.110,40.847 349.110,36.270 351.482,36.168 353.707,37.415 354.860,39.490 354.860,40.410 354.860,41.330 354.860,42.250 Z M 347.110,50.000 C 346.610,50.000 346.110,50.000 345.610,50.000 345.610,45.423 345.610,40.847 345.610,36.270 346.110,36.270 346.610,36.270 347.110,36.270 347.110,40.847 347.110,45.423 347.110,50.000 Z M 343.610,50.000 C 283.630,49.960 223.650,49.920 163.670,49.880 163.400,49.880 163.130,49.880 162.860,49.880 162.860,45.343 162.860,40.807 162.860,36.270 223.110,36.270 283.360,36.270 343.610,36.270 343.610,40.847 343.610,45.423 343.610,50.000 Z M 167.360,55.260 C 167.360,57.507 167.360,59.753 167.360,62.000 164.167,62.223 160.973,62.447 157.780,62.670 157.780,63.363 157.780,64.057 157.780,64.750 151.420,65.197 145.060,65.643 138.700,66.090 140.550,65.350 141.350,63.180 141.600,62.310 148.247,61.697 154.893,61.083 161.540,60.470 161.540,58.737 161.540,57.003 161.540,55.270 163.480,55.267 165.420,55.263 167.360,55.260 Z M 162.550,67.390 C 158.617,67.677 154.683,67.963 150.750,68.250 150.750,67.917 150.750,67.583 150.750,67.250 153.777,67.037 156.803,66.823 159.830,66.610 159.830,65.930 159.830,65.250 159.830,64.570 160.753,64.507 161.677,64.443 162.600,64.380 162.583,65.383 162.567,66.387 162.550,67.390 Z M 137.360,65.390 C 137.327,65.390 137.293,65.390 137.260,65.390 137.150,65.390 134.610,65.860 132.670,61.390 131.857,59.000 131.043,56.610 130.230,54.220 140.330,54.220 150.430,54.220 160.530,54.220 160.530,56.013 160.530,57.807 160.530,59.600 154.070,60.197 147.610,60.793 141.150,61.390 141.027,61.390 140.903,61.390 140.780,61.390 140.753,61.510 140.727,61.630 140.700,61.750 140.700,61.750 139.910,65.390 137.360,65.390 137.360,65.390 137.360,65.390 137.360,65.390 Z M 160.490,41.140 C 160.490,45.167 160.490,49.193 160.490,53.220 150.327,53.220 140.163,53.220 130.000,53.220 130.000,49.193 130.000,45.167 130.000,41.140 140.163,41.140 150.327,41.140 160.490,41.140 Z M 129.000,66.220 C 125.480,66.220 124.460,68.570 124.410,69.810 124.479,71.339 123.902,72.827 122.820,73.910 120.820,75.810 117.420,75.640 117.330,75.630 114.580,75.630 111.830,75.630 109.080,75.630 105.630,75.630 102.570,71.730 102.540,71.690 102.513,71.657 102.487,71.623 102.460,71.590 101.769,70.801 100.758,70.368 99.710,70.410 98.663,70.531 97.712,71.077 97.080,71.920 93.337,77.700 89.593,83.480 85.850,89.260 85.820,89.310 85.790,89.360 85.760,89.410 85.613,90.033 85.467,90.657 85.320,91.280 85.169,92.165 84.629,92.935 83.850,93.380 83.183,93.588 82.459,93.512 81.850,93.170 78.850,91.667 75.850,90.163 72.850,88.660 72.257,88.435 71.797,87.953 71.600,87.350 71.448,86.129 71.739,84.895 72.420,83.870 77.587,76.120 82.753,68.370 87.920,60.620 87.950,60.567 87.980,60.513 88.010,60.460 88.494,59.349 88.830,58.179 89.010,56.980 93.007,56.980 97.003,56.980 101.000,56.980 100.946,57.404 100.991,57.836 101.130,58.240 99.633,60.300 98.137,62.360 96.640,64.420 97.467,65.020 98.293,65.620 99.120,66.220 100.600,64.183 102.080,62.147 103.560,60.110 104.260,60.155 104.952,59.938 105.500,59.500 105.990,60.369 106.912,60.905 107.910,60.900 108.183,60.900 108.457,60.900 108.730,60.900 105.601,61.792 103.606,64.851 104.051,68.074 104.496,71.297 107.246,73.700 110.500,73.710 112.377,73.710 114.253,73.710 116.130,73.710 119.384,73.700 122.134,71.297 122.579,68.074 123.024,64.851 121.029,61.792 117.900,60.900 119.900,60.900 121.900,60.900 123.900,60.900 124.670,60.941 125.420,60.649 125.960,60.100 126.493,59.463 126.771,58.650 126.740,57.820 126.740,55.610 126.740,53.400 126.740,51.190 126.752,51.047 126.752,50.903 126.740,50.760 126.740,49.887 126.740,49.013 126.740,48.140 126.752,47.997 126.752,47.853 126.740,47.710 126.740,46.187 126.740,44.663 126.740,43.140 112.073,43.140 97.407,43.140 82.740,43.140 82.740,45.590 82.740,48.040 82.740,50.490 82.390,50.490 82.140,50.490 82.030,50.490 81.880,50.490 81.730,50.490 81.580,50.490 81.580,44.490 81.580,38.490 81.580,32.490 82.137,32.490 82.693,32.490 83.250,32.490 83.250,34.850 83.250,37.210 83.250,39.570 97.337,39.570 111.423,39.570 125.510,39.570 125.830,39.570 126.800,39.570 127.100,38.820 127.400,38.070 126.740,37.370 126.550,37.170 126.033,36.827 125.517,36.483 125.000,36.140 125.000,35.697 125.000,35.253 125.000,34.810 125.000,31.600 122.610,31.560 122.580,31.560 119.690,31.560 116.800,31.560 113.910,31.560 113.910,30.893 113.910,30.227 113.910,29.560 114.520,29.560 115.130,29.560 115.740,29.560 115.740,29.540 115.740,29.520 115.740,29.500 116.183,29.500 116.627,29.500 117.070,29.500 117.070,29.500 117.070,29.500 117.070,29.500 121.780,29.500 126.490,29.500 131.200,29.500 131.200,28.797 131.200,28.093 131.200,27.390 136.200,27.390 141.200,27.390 146.200,27.390 145.687,28.487 145.173,29.583 144.660,30.680 160.660,30.680 176.660,30.680 192.660,30.680 192.780,30.417 192.900,30.153 193.020,29.890 196.270,29.890 199.520,29.890 202.770,29.890 202.770,31.350 202.770,32.810 202.770,34.270 188.770,34.270 174.770,34.270 160.770,34.270 160.770,36.230 160.770,38.190 160.770,40.150 150.180,40.150 139.590,40.150 129.000,40.150 129.000,44.840 129.000,49.530 129.000,54.220 129.047,54.220 129.093,54.220 129.140,54.220 129.997,56.730 130.853,59.240 131.710,61.750 133.010,64.750 134.610,65.830 135.790,66.220 133.527,66.220 131.263,66.220 129.000,66.220 Z M 102.100,58.090 C 101.822,57.506 101.883,56.816 102.260,56.290 102.260,56.290 102.260,56.290 102.260,56.290 102.536,55.907 102.954,55.652 103.420,55.580 103.888,55.506 104.367,55.621 104.750,55.900 105.414,56.393 105.650,57.279 105.321,58.037 104.992,58.796 104.184,59.228 103.370,59.080 103.267,59.060 103.163,59.040 103.060,59.020 101.657,60.953 100.253,62.887 98.850,64.820 98.567,64.610 98.283,64.400 98.000,64.190 99.413,62.247 100.827,60.303 102.240,58.360 102.193,58.270 102.147,58.180 102.100,58.090 Z M 110.720,68.320 C 110.900,69.120 111.100,69.780 111.260,70.320 111.427,70.785 111.538,71.269 111.590,71.760 111.213,71.760 110.837,71.760 110.460,71.760 108.842,71.760 107.346,70.897 106.537,69.495 105.728,68.093 105.728,66.367 106.537,64.965 107.346,63.563 108.842,62.700 110.460,62.700 110.857,62.700 111.253,62.700 111.650,62.700 110.806,64.431 110.480,66.368 110.710,68.280 110.713,68.293 110.717,68.307 110.720,68.320 Z M 116.080,62.680 C 118.581,62.682 120.606,64.710 120.606,67.210 120.606,69.711 118.580,71.738 116.080,71.740 115.250,71.740 114.420,71.740 113.590,71.740 113.540,71.058 113.399,70.385 113.170,69.740 113.010,69.210 112.830,68.620 112.670,67.890 112.290,66.230 113.290,63.780 113.850,62.690 114.593,62.687 115.337,62.683 116.080,62.680 Z M 125.690,47.840 C 125.690,48.943 125.690,50.047 125.690,51.150 125.532,51.829 124.927,52.310 124.230,52.310 121.230,52.310 118.230,52.310 115.230,52.310 114.832,52.310 114.451,52.152 114.169,51.871 113.888,51.589 113.730,51.208 113.730,50.810 113.730,49.920 113.730,49.030 113.730,48.140 113.730,47.742 113.888,47.361 114.169,47.079 114.451,46.798 114.832,46.640 115.230,46.640 118.230,46.640 121.230,46.640 124.230,46.640 124.927,46.640 125.532,47.121 125.690,47.800 125.690,47.813 125.690,47.827 125.690,47.840 Z M 83.690,50.570 C 83.690,48.427 83.690,46.283 83.690,44.140 97.690,44.140 111.690,44.140 125.690,44.140 125.690,44.807 125.690,45.473 125.690,46.140 125.266,45.829 124.755,45.661 124.230,45.660 121.230,45.660 118.230,45.660 115.230,45.660 114.567,45.660 113.931,45.923 113.462,46.392 112.993,46.861 112.730,47.497 112.730,48.160 112.730,49.037 112.730,49.913 112.730,50.790 112.730,51.453 112.993,52.089 113.462,52.558 113.931,53.027 114.567,53.290 115.230,53.290 118.230,53.290 121.230,53.290 124.230,53.290 124.755,53.289 125.266,53.121 125.690,52.810 125.690,54.477 125.690,56.143 125.690,57.810 125.713,58.377 125.532,58.934 125.180,59.380 124.828,59.721 124.348,59.895 123.860,59.860 118.527,59.860 113.193,59.860 107.860,59.860 107.810,59.860 106.630,59.860 106.300,58.920 105.764,59.851 104.772,60.425 103.699,60.426 102.625,60.427 101.632,59.855 101.094,58.926 100.555,57.997 100.554,56.851 101.090,55.920 97.110,55.920 93.130,55.920 89.150,55.920 89.212,54.769 88.885,53.631 88.220,52.690 87.077,51.371 85.435,50.588 83.690,50.530 83.690,50.543 83.690,50.557 83.690,50.570 Z M 80.520,31.570 C 80.520,31.960 80.520,32.350 80.520,32.740 76.493,32.740 72.467,32.740 68.440,32.740 68.440,38.663 68.440,44.587 68.440,50.510 59.800,50.510 51.160,50.510 42.520,50.510 42.520,43.540 42.520,36.570 42.520,29.600 55.187,29.600 67.853,29.600 80.520,29.600 80.520,30.257 80.520,30.913 80.520,31.570 Z M 80.520,50.570 C 78.680,50.570 76.840,50.570 75.000,50.570 75.000,47.903 75.000,45.237 75.000,42.570 73.147,42.570 71.293,42.570 69.440,42.570 69.440,39.620 69.440,36.670 69.440,33.720 73.133,33.720 76.827,33.720 80.520,33.720 80.520,39.337 80.520,44.953 80.520,50.570 Z M 74.020,50.570 C 72.493,50.570 70.967,50.570 69.440,50.570 69.440,48.237 69.440,45.903 69.440,43.570 70.960,43.570 72.480,43.570 74.000,43.570 74.007,45.903 74.013,48.237 74.020,50.570 Z M 81.520,31.570 C 81.520,30.903 81.520,30.237 81.520,29.570 91.993,29.570 102.467,29.570 112.940,29.570 112.940,30.237 112.940,30.903 112.940,31.570 102.467,31.570 91.993,31.570 81.520,31.570 Z M 125.820,38.000 C 125.959,38.144 126.062,38.318 126.120,38.510 126.120,38.510 126.000,38.640 125.430,38.660 111.683,38.660 97.937,38.660 84.190,38.660 84.190,36.627 84.190,34.593 84.190,32.560 96.997,32.560 109.803,32.560 122.610,32.560 122.670,32.560 124.030,32.560 124.030,34.810 124.030,35.420 124.030,36.030 124.030,36.640 124.627,37.093 125.223,37.547 125.820,38.000 Z M 80.360,22.140 C 91.943,22.140 103.527,22.140 115.110,22.140 115.110,24.293 115.110,26.447 115.110,28.600 103.527,28.600 91.943,28.600 80.360,28.600 80.360,26.447 80.360,24.293 80.360,22.140 Z M 149.680,24.830 C 150.013,24.830 150.347,24.830 150.680,24.830 150.680,25.247 150.680,25.663 150.680,26.080 153.763,26.080 156.847,26.080 159.930,26.080 159.930,25.653 159.930,25.227 159.930,24.800 161.700,24.800 163.470,24.800 165.240,24.800 167.230,24.941 169.190,24.258 170.660,22.910 171.566,21.970 172.087,20.725 172.120,19.420 172.120,14.380 172.120,9.340 172.120,4.300 173.537,4.300 174.953,4.300 176.370,4.300 176.370,6.010 176.370,7.720 176.370,9.430 177.997,9.430 179.623,9.430 181.250,9.430 181.250,12.763 181.250,16.097 181.250,19.430 185.793,19.430 190.337,19.430 194.880,19.430 194.880,19.973 194.880,20.517 194.880,21.060 190.320,21.060 185.760,21.060 181.200,21.060 181.200,23.603 181.200,26.147 181.200,28.690 170.090,28.690 158.980,28.690 147.870,28.690 148.473,27.403 149.077,26.117 149.680,24.830 Z M 143.520,16.660 C 143.520,14.773 143.520,12.887 143.520,11.000 146.253,11.000 148.987,11.000 151.720,11.000 151.720,12.887 151.720,14.773 151.720,16.660 148.987,16.660 146.253,16.660 143.520,16.660 Z M 152.720,9.270 C 154.433,9.270 156.147,9.270 157.860,9.270 157.860,14.197 157.860,19.123 157.860,24.050 156.147,24.050 154.433,24.050 152.720,24.050 152.720,19.123 152.720,14.197 152.720,9.270 Z M 158.860,11.000 C 159.490,11.000 160.120,11.000 160.750,11.000 160.750,12.887 160.750,14.773 160.750,16.660 160.120,16.660 159.490,16.660 158.860,16.660 158.860,14.773 158.860,12.887 158.860,11.000 Z M 165.310,21.110 C 166.727,21.110 168.143,21.110 169.560,21.110 169.462,21.256 169.352,21.393 169.230,21.520 168.125,22.471 166.682,22.933 165.230,22.800 163.460,22.800 161.690,22.800 159.920,22.800 159.920,21.410 159.920,20.020 159.920,18.630 160.213,18.630 160.507,18.630 160.800,18.630 160.800,18.850 160.800,19.070 160.800,19.290 162.303,19.897 163.807,20.503 165.310,21.110 Z M 162.800,9.660 C 163.767,9.270 164.733,8.880 165.700,8.490 167.173,8.490 168.647,8.490 170.120,8.490 170.120,12.033 170.120,15.577 170.120,19.120 168.647,19.120 167.173,19.120 165.700,19.120 164.733,18.730 163.767,18.340 162.800,17.950 162.800,15.187 162.800,12.423 162.800,9.660 Z M 166.160,5.250 C 166.135,4.985 166.217,4.720 166.388,4.515 166.559,4.311 166.804,4.183 167.070,4.160 167.203,4.160 167.337,4.160 167.470,4.160 167.736,4.183 167.981,4.311 168.152,4.515 168.323,4.720 168.405,4.985 168.380,5.250 168.380,5.663 168.380,6.077 168.380,6.490 167.640,6.490 166.900,6.490 166.160,6.490 166.160,6.077 166.160,5.663 166.160,5.250 Z M 178.360,4.300 C 182.773,4.300 187.187,4.300 191.600,4.300 193.017,5.093 194.433,5.887 195.850,6.680 196.427,6.680 197.003,6.680 197.580,6.680 197.913,7.180 198.247,7.680 198.580,8.180 200.800,8.180 203.020,8.180 205.240,8.180 205.240,8.813 205.240,9.447 205.240,10.080 205.200,10.080 205.160,10.080 205.120,10.080 205.120,12.520 205.120,14.960 205.120,17.400 205.163,17.400 205.207,17.400 205.250,17.400 205.250,18.067 205.250,18.733 205.250,19.400 203.030,19.400 200.810,19.400 198.590,19.400 198.257,19.900 197.923,20.400 197.590,20.900 197.353,20.900 197.117,20.900 196.880,20.900 196.880,19.733 196.880,18.567 196.880,17.400 192.330,17.400 187.780,17.400 183.230,17.400 183.230,14.067 183.230,10.733 183.230,7.400 181.607,7.400 179.983,7.400 178.360,7.400 178.360,6.367 178.360,5.333 178.360,4.300 Z M 191.450,28.650 C 188.367,28.650 185.283,28.650 182.200,28.650 182.200,26.450 182.200,24.250 182.200,22.050 186.307,22.050 190.413,22.050 194.520,22.050 193.497,24.250 192.473,26.450 191.450,28.650 Z M 203.840,32.360 C 205.307,32.360 206.773,32.360 208.240,32.360 208.240,32.987 208.240,33.613 208.240,34.240 206.773,34.240 205.307,34.240 203.840,34.240 203.840,33.613 203.840,32.987 203.840,32.360 Z M 209.240,29.860 C 212.573,29.860 215.907,29.860 219.240,29.860 219.240,31.320 219.240,32.780 219.240,34.240 215.907,34.240 212.573,34.240 209.240,34.240 209.240,32.780 209.240,31.320 209.240,29.860 Z M 220.240,32.360 C 221.533,32.360 222.827,32.360 224.120,32.360 224.120,32.987 224.120,33.613 224.120,34.240 222.830,34.240 221.540,34.240 220.250,34.240 220.247,33.613 220.243,32.987 220.240,32.360 Z M 225.110,32.360 C 225.110,31.527 225.110,30.693 225.110,29.860 231.487,29.860 237.863,29.860 244.240,29.860 244.240,31.320 244.240,32.780 244.240,34.240 237.863,34.240 231.487,34.240 225.110,34.240 225.110,33.613 225.110,32.987 225.110,32.360 Z M 245.230,28.860 C 249.230,28.860 253.230,28.860 257.230,28.860 257.230,30.653 257.230,32.447 257.230,34.240 253.230,34.240 249.230,34.240 245.230,34.240 245.230,32.447 245.230,30.653 245.230,28.860 Z M 169.350,56.460 C 170.100,56.630 170.850,56.800 171.600,56.970 171.600,58.043 171.600,59.117 171.600,60.190 170.850,60.360 170.100,60.530 169.350,60.700 169.350,59.287 169.350,57.873 169.350,56.460 Z M 40.520,47.460 C 40.083,47.460 39.647,47.460 39.210,47.460 31.743,50.973 24.277,54.487 16.810,58.000 15.511,58.638 14.032,58.811 12.620,58.490 11.650,58.158 10.849,57.457 10.390,56.540 11.077,51.981 11.508,47.387 11.680,42.780 11.680,42.780 11.680,41.780 11.680,41.210 11.680,40.640 11.680,39.680 11.680,39.650 11.508,35.046 11.077,30.456 10.390,25.900 10.857,25.004 11.652,24.323 12.610,24.000 14.040,23.670 15.539,23.851 16.850,24.510 24.303,28.007 31.757,31.503 39.210,35.000 39.647,35.000 40.083,35.000 40.520,35.000 40.520,39.153 40.520,43.307 40.520,47.460 Z M 141.450,17.590 C 140.713,18.100 139.977,18.610 139.240,19.120 136.613,19.120 133.987,19.120 131.360,19.120 131.360,15.577 131.360,12.033 131.360,8.490 133.987,8.490 136.613,8.490 139.240,8.490 139.977,8.993 140.713,9.497 141.450,10.000 141.450,12.530 141.450,15.060 141.450,17.590 Z M 207.230,12.080 C 210.520,12.080 213.810,12.080 217.100,12.080 217.457,12.277 217.813,12.473 218.170,12.670 218.170,13.387 218.170,14.103 218.170,14.820 217.813,15.017 217.457,15.213 217.100,15.410 213.810,15.410 210.520,15.410 207.230,15.410 207.230,14.300 207.230,13.190 207.230,12.080 Z M 356.600,38.520 C 355.100,35.810 352.206,34.171 349.110,34.280 349.110,34.127 349.110,33.973 349.110,33.820 348.443,33.820 347.777,33.820 347.110,33.820 347.110,33.973 347.110,34.127 347.110,34.280 346.610,34.280 346.110,34.280 345.610,34.280 345.610,33.707 345.610,33.133 345.610,32.560 344.943,32.560 344.277,32.560 343.610,32.560 343.610,33.130 343.610,33.700 343.610,34.270 316.517,34.270 289.423,34.270 262.330,34.270 262.330,32.630 262.330,30.990 262.330,29.350 261.280,29.350 260.230,29.350 259.180,29.350 259.180,28.530 259.180,27.710 259.180,26.890 253.847,26.890 248.513,26.890 243.180,26.890 243.180,27.223 243.180,27.557 243.180,27.890 236.490,27.890 229.800,27.890 223.110,27.890 223.110,28.723 223.110,29.557 223.110,30.390 222.487,30.390 221.863,30.390 221.240,30.390 221.240,29.557 221.240,28.723 221.240,27.890 216.573,27.890 211.907,27.890 207.240,27.890 207.240,28.723 207.240,29.557 207.240,30.390 206.450,30.390 205.660,30.390 204.870,30.390 204.870,29.557 204.870,28.723 204.870,27.890 201.247,27.890 197.623,27.890 194.000,27.890 194.763,26.223 195.527,24.557 196.290,22.890 197.063,22.890 197.837,22.890 198.610,22.890 198.943,22.390 199.277,21.890 199.610,21.390 202.140,21.390 204.670,21.390 207.200,21.390 207.200,20.057 207.200,18.723 207.200,17.390 210.660,17.390 214.120,17.390 217.580,17.390 218.443,16.927 219.307,16.463 220.170,16.000 220.170,15.853 220.170,15.707 220.170,15.560 220.780,15.560 221.390,15.560 222.000,15.560 222.000,14.330 222.000,13.100 222.000,11.870 221.397,11.870 220.793,11.870 220.190,11.870 220.190,11.743 220.190,11.617 220.190,11.490 219.340,11.020 218.490,10.550 217.640,10.080 214.170,10.080 210.700,10.080 207.230,10.080 207.230,8.780 207.230,7.480 207.230,6.180 204.700,6.180 202.170,6.180 199.640,6.180 199.307,5.680 198.973,5.180 198.640,4.680 197.883,4.680 197.127,4.680 196.370,4.680 194.953,3.887 193.537,3.093 192.120,2.300 184.787,2.300 177.453,2.300 170.120,2.300 170.120,3.697 170.120,5.093 170.120,6.490 169.877,6.490 169.633,6.490 169.390,6.490 169.390,6.077 169.390,5.663 169.390,5.250 169.414,4.719 169.227,4.201 168.869,3.809 168.510,3.417 168.011,3.183 167.480,3.160 167.347,3.160 167.213,3.160 167.080,3.160 166.549,3.183 166.050,3.417 165.692,3.809 165.333,4.201 165.146,4.719 165.170,5.250 165.170,5.683 165.170,6.117 165.170,6.550 163.717,7.140 162.263,7.730 160.810,8.320 160.810,8.547 160.810,8.773 160.810,9.000 160.520,9.000 160.230,9.000 159.940,9.000 159.940,8.413 159.940,7.827 159.940,7.240 156.857,7.240 153.773,7.240 150.690,7.240 150.690,7.827 150.690,8.413 150.690,9.000 148.283,9.000 145.877,9.000 143.470,9.000 142.273,8.177 141.077,7.353 139.880,6.530 136.370,6.530 132.860,6.530 129.350,6.530 129.350,11.393 129.350,16.257 129.350,21.120 132.853,21.120 136.357,21.120 139.860,21.120 141.057,20.297 142.253,19.473 143.450,18.650 145.857,18.650 148.263,18.650 150.670,18.650 150.670,20.033 150.670,21.417 150.670,22.800 149.917,22.800 149.163,22.800 148.410,22.800 148.007,23.663 147.603,24.527 147.200,25.390 141.200,25.390 135.200,25.390 129.200,25.390 129.200,26.100 129.200,26.810 129.200,27.520 125.170,27.520 121.140,27.520 117.110,27.520 117.110,25.060 117.110,22.600 117.110,20.140 104.193,20.140 91.277,20.140 78.360,20.140 78.360,22.627 78.360,25.113 78.360,27.600 65.747,27.600 53.133,27.600 40.520,27.600 40.520,29.400 40.520,31.200 40.520,33.000 40.233,33.000 39.947,33.000 39.660,33.000 32.353,29.557 25.047,26.113 17.740,22.670 15.970,21.761 13.931,21.523 12.000,22.000 10.423,22.538 9.140,23.708 8.460,25.230 8.413,25.327 8.367,25.423 8.320,25.520 8.320,25.623 8.320,25.727 8.320,25.830 9.030,30.405 9.487,35.015 9.690,39.640 9.690,39.640 9.690,40.640 9.690,41.200 9.690,41.760 9.690,42.770 9.690,42.770 9.503,47.387 9.062,51.991 8.370,56.560 8.370,56.663 8.370,56.767 8.370,56.870 8.417,56.967 8.463,57.063 8.510,57.160 9.181,58.668 10.443,59.832 12.000,60.380 12.624,60.577 13.275,60.675 13.930,60.670 15.233,60.649 16.516,60.345 17.690,59.780 25.023,56.340 32.357,52.900 39.690,49.460 39.977,49.460 40.263,49.460 40.550,49.460 40.550,50.477 40.550,51.493 40.550,52.510 54.417,52.510 68.283,52.510 82.150,52.510 82.150,52.510 85.380,52.220 86.630,53.930 87.630,55.360 87.010,57.770 86.240,59.580 81.083,67.307 75.927,75.033 70.770,82.760 70.590,83.040 69.020,85.550 69.690,87.890 70.043,89.043 70.889,89.981 72.000,90.450 75.000,91.940 78.000,93.430 81.000,94.920 81.691,95.285 82.459,95.480 83.240,95.490 83.716,95.493 84.188,95.405 84.630,95.230 86.014,94.565 87.004,93.287 87.300,91.780 87.427,91.253 87.553,90.727 87.680,90.200 91.367,84.493 95.053,78.787 98.740,73.080 99.027,72.733 99.427,72.499 99.870,72.420 100.312,72.444 100.723,72.655 101.000,73.000 101.450,73.570 104.860,77.670 109.080,77.670 111.810,77.670 114.540,77.670 117.270,77.670 117.450,77.670 121.500,77.900 124.180,75.420 125.674,73.980 126.488,71.974 126.420,69.900 126.420,69.830 126.510,68.290 129.020,68.260 131.843,68.260 134.667,68.260 137.490,68.260 141.220,67.997 144.950,67.733 148.680,67.470 148.727,68.470 148.773,69.470 148.820,70.470 154.053,70.090 159.287,69.710 164.520,69.330 164.520,67.663 164.520,65.997 164.520,64.330 166.123,64.220 167.727,64.110 169.330,64.000 169.330,63.593 169.330,63.187 169.330,62.780 170.747,62.447 172.163,62.113 173.580,61.780 173.580,59.657 173.580,57.533 173.580,55.410 172.163,55.077 170.747,54.743 169.330,54.410 169.330,54.030 169.330,53.650 169.330,53.270 167.330,53.270 165.330,53.270 163.330,53.270 163.330,52.810 163.330,52.350 163.330,51.890 223.423,51.927 283.517,51.963 343.610,52.000 343.610,52.667 343.610,53.333 343.610,54.000 344.277,54.000 344.943,54.000 345.610,54.000 345.610,53.333 345.610,52.667 345.610,52.000 346.110,52.000 346.610,52.000 347.110,52.000 347.110,52.263 347.110,52.527 347.110,52.790 347.777,52.790 348.443,52.790 349.110,52.790 349.110,52.527 349.110,52.263 349.110,52.000 352.285,52.118 355.242,50.392 356.700,47.570 357.913,47.570 359.127,47.570 360.340,47.570 360.340,44.553 360.340,41.537 360.340,38.520 359.093,38.520 357.847,38.520 356.600,38.520 Z " />
  <path stroke="none" fill="#ffffffff" d="M 139.740,47.230 C 140.493,47.230 141.247,47.230 142.000,47.230 142.000,47.897 142.000,48.563 142.000,49.230 141.247,49.230 140.493,49.230 139.740,49.230 139.383,49.230 139.053,49.039 138.874,48.730 138.695,48.421 138.695,48.039 138.874,47.730 139.053,47.421 139.383,47.230 139.740,47.230 139.740,47.230 139.740,47.230 139.740,47.230 Z M 143.000,45.600 C 146.830,45.600 150.660,45.600 154.490,45.600 154.490,47.323 154.490,49.047 154.490,50.770 150.660,50.770 146.830,50.770 143.000,50.770 143.000,49.047 143.000,47.323 143.000,45.600 Z M 155.510,47.220 C 156.340,47.220 157.170,47.220 158.000,47.220 158.357,47.220 158.687,47.411 158.866,47.720 159.045,48.029 159.045,48.411 158.866,48.720 158.687,49.029 158.357,49.220 158.000,49.220 157.173,49.220 156.347,49.220 155.520,49.220 155.517,48.553 155.513,47.887 155.510,47.220 Z M 139.770,50.220 C 140.513,50.220 141.257,50.220 142.000,50.220 142.000,50.733 142.000,51.247 142.000,51.760 146.497,51.760 150.993,51.760 155.490,51.760 155.490,51.247 155.490,50.733 155.490,50.220 156.327,50.220 157.163,50.220 158.000,50.220 157.286,50.220 156.625,49.839 156.268,49.220 155.911,48.601 155.911,47.839 156.268,47.220 156.625,46.601 157.286,46.220 158.000,46.220 157.173,46.220 156.347,46.220 155.520,46.220 155.520,45.680 155.520,45.140 155.520,44.600 151.013,44.600 146.507,44.600 142.000,44.600 142.000,45.143 142.000,45.687 142.000,46.230 141.247,46.230 140.493,46.230 139.740,46.230 140.455,46.230 141.115,46.611 141.472,47.230 141.829,47.849 141.829,48.611 141.472,49.230 141.115,49.849 140.455,50.230 139.740,50.230 139.750,50.227 139.760,50.223 139.770,50.220 Z " />
  <path stroke="none" fill="#ffffffff" d="M 84.740,85.880 C 84.240,86.907 83.740,87.933 83.240,88.960 83.240,89.013 83.240,89.067 83.240,89.120 83.232,89.581 83.028,90.017 82.680,90.320 82.385,90.513 82.028,90.588 81.680,90.530 79.420,89.337 77.160,88.143 74.900,86.950 73.530,85.950 74.730,83.860 74.760,83.800 79.250,77.233 83.740,70.667 88.230,64.100 89.153,63.940 90.077,63.780 91.000,63.620 92.143,65.973 93.942,67.946 96.180,69.300 92.367,74.827 88.553,80.353 84.740,85.880 Z M 91.820,62.880 C 91.773,62.750 91.727,62.620 91.680,62.490 90.347,62.720 89.013,62.950 87.680,63.180 83.107,69.847 78.533,76.513 73.960,83.180 73.360,84.180 72.670,86.400 74.400,87.710 76.707,88.933 79.013,90.157 81.320,91.380 81.363,91.380 81.407,91.380 81.450,91.380 81.600,91.395 81.750,91.395 81.900,91.380 82.382,91.388 82.854,91.245 83.250,90.970 83.827,90.538 84.191,89.879 84.250,89.160 84.723,88.180 85.197,87.200 85.670,86.220 89.670,80.480 93.670,74.740 97.670,69.000 97.507,68.910 97.343,68.820 97.180,68.730 97.180,68.730 93.160,66.500 91.820,62.880 91.820,62.880 91.820,62.880 91.820,62.880 Z " />
  <path stroke="none" fill="#ffffffff" d="M 96.170,49.020 C 97.003,49.020 97.754,49.522 98.073,50.292 98.392,51.061 98.216,51.947 97.627,52.537 97.037,53.126 96.151,53.302 95.382,52.983 94.612,52.664 94.110,51.913 94.110,51.080 94.105,50.530 94.319,50.001 94.706,49.610 95.093,49.220 95.620,49.000 96.170,49.000 96.170,49.007 96.170,49.013 96.170,49.020 Z M 96.170,54.140 C 97.408,54.140 98.523,53.394 98.997,52.251 99.471,51.108 99.209,49.791 98.334,48.916 97.459,48.041 96.142,47.779 94.999,48.253 93.856,48.727 93.110,49.842 93.110,51.080 93.116,52.768 94.482,54.135 96.170,54.140 96.170,54.140 96.170,54.140 96.170,54.140 Z " />
  <path stroke="none" fill="#ffffffff" d="M 43.860,38.560 C 43.860,40.863 43.860,43.167 43.860,45.470 43.860,46.000 44.071,46.509 44.446,46.884 44.821,47.259 45.330,47.470 45.860,47.470 47.430,47.470 49.000,47.470 50.570,47.470 50.570,47.137 50.570,46.803 50.570,46.470 49.013,46.470 47.457,46.470 45.900,46.470 45.635,46.470 45.380,46.365 45.193,46.177 45.005,45.990 44.900,45.735 44.900,45.470 44.900,43.167 44.900,40.863 44.900,38.560 44.900,38.295 45.005,38.040 45.193,37.853 45.380,37.665 45.635,37.560 45.900,37.560 47.470,37.560 49.040,37.560 50.610,37.560 50.610,37.227 50.610,36.893 50.610,36.560 49.040,36.560 47.470,36.560 45.900,36.560 45.363,36.549 44.844,36.755 44.460,37.131 44.076,37.508 43.860,38.023 43.860,38.560 43.860,38.560 43.860,38.560 43.860,38.560 Z " />
  <path stroke="none" fill="#ffffffff" d="M 165.480,14.710 C 165.472,14.178 165.786,13.695 166.275,13.486 166.764,13.276 167.330,13.384 167.709,13.757 168.088,14.130 168.204,14.695 168.002,15.187 167.801,15.679 167.322,16.000 166.790,16.000 166.074,16.000 165.491,15.426 165.480,14.710 165.480,14.710 165.480,14.710 165.480,14.710 Z M 169.100,14.710 C 169.108,13.774 168.551,12.925 167.688,12.562 166.825,12.198 165.829,12.390 165.164,13.049 164.499,13.709 164.298,14.704 164.654,15.569 165.010,16.435 165.854,17.000 166.790,17.000 168.058,17.000 169.089,15.978 169.100,14.710 169.100,14.710 169.100,14.710 169.100,14.710 Z " />
  <path stroke="none" fill="#ffffffff" d="M 190.920,8.180 C 193.590,8.180 195.360,9.010 195.360,9.560 195.360,10.110 193.590,10.940 190.920,10.940 188.250,10.940 186.480,10.110 186.480,9.560 186.480,9.010 188.250,8.180 190.920,8.180 190.920,8.180 190.920,8.180 190.920,8.180 Z M 190.920,11.930 C 193.620,11.930 196.360,11.110 196.360,9.550 196.360,6.430 185.490,6.430 185.490,9.550 185.480,11.110 188.220,11.930 190.920,11.930 190.920,11.930 190.920,11.930 190.920,11.930 Z " />
</svg>