<?xml version="1.0" encoding="UTF-8" standalone="no"?>
<!DOCTYPE svg PUBLIC "-//W3C//DTD SVG 20010904//EN" "http://www.w3.org/TR/2001/REC-SVG-20010904/DTD/svg10.dtd"[]>
<svg version="1.1" id="Frosty Editor v1.0.6.3" xmlns="http://www.w3.org/2000/svg" d1p1:xlink="http://www.w3.org/1999/xlink" viewBox="0 0 101 25" xmlns:d1p1="xmlns">
  <path stroke="none" fill="#ffffffff" d="M 34.440,3.355 C 34.440,3.914 34.440,3.914 34.440,3.914 28.139,3.914 28.139,3.914 28.139,3.914 26.996,3.732 25.853,3.550 24.710,3.368 21.641,3.368 21.641,3.368 21.641,3.368 21.641,7.143 21.641,7.143 21.641,7.143 24.669,7.143 24.669,7.143 24.669,7.143 25.826,6.955 26.983,6.768 28.139,6.580 34.440,6.580 34.440,6.580 34.440,6.580 34.440,8.239 34.440,8.239 34.440,8.239 33.013,8.239 33.013,8.239 33.013,8.239 32.794,8.524 32.576,8.810 32.357,9.096 30.662,9.401 28.965,9.706 27.270,10.012 22.635,10.012 22.635,10.012 22.635,10.012 22.635,9.491 22.635,9.491 22.635,9.491 18.868,9.491 18.868,9.491 18.868,9.491 18.868,10.012 18.868,10.012 18.868,10.012 11.839,10.012 11.839,10.012 11.839,10.012 10.188,9.973 8.279,9.330 8.092,9.265 7.029,8.726 5.966,8.189 4.903,7.651 3.845,7.103 2.598,7.060 1.505,7.533 1.447,7.562 1.389,7.591 1.331,7.619 1.417,8.123 1.504,8.627 1.591,9.132 1.628,9.152 1.666,9.172 1.703,9.192 3.367,10.072 3.117,12.446 3.111,12.480 3.046,14.554 2.979,16.629 2.914,18.703 3.309,18.844 3.705,18.986 4.101,19.127 5.295,18.453 6.489,17.778 7.683,17.104 8.071,16.857 8.551,16.802 8.985,16.956 9.380,17.216 9.775,17.476 10.170,17.736 10.951,16.956 10.951,16.956 10.951,16.956 10.899,16.895 10.847,16.834 10.795,16.773 10.614,16.519 10.507,16.220 10.487,15.909 10.578,14.248 13.265,14.347 13.302,14.347 17.142,14.347 17.142,14.347 17.142,14.347 18.231,14.440 19.321,14.533 20.410,14.625 21.521,14.625 21.521,14.625 21.521,14.625 21.521,14.938 21.521,14.938 21.521,14.938 21.521,15.344 21.521,15.344 21.521,15.344 21.521,15.514 21.589,15.678 21.709,15.799 21.830,15.920 21.994,15.987 22.164,15.987 22.784,15.987 22.784,15.987 22.784,15.987 23.137,15.984 23.422,15.697 23.422,15.344 23.422,15.180 23.422,15.180 23.422,15.180 24.601,15.180 24.601,15.180 24.601,15.180 24.601,15.393 24.601,15.393 24.601,15.393 24.703,15.377 24.806,15.360 24.908,15.344 24.908,15.344 25.674,15.222 26.132,15.646 26.436,15.930 26.559,16.404 26.499,17.060 25.963,18.072 25.426,19.083 24.890,20.095 24.721,20.419 24.688,20.797 24.800,21.144 24.910,21.492 25.156,21.781 25.481,21.946 25.596,22.338 25.710,22.729 25.825,23.121 25.825,23.152 26.033,23.860 26.515,23.930 26.595,23.930 26.595,23.930 26.595,23.930 26.879,23.930 27.173,23.706 27.483,23.253 27.517,23.276 27.551,23.298 27.585,23.321 28.007,23.167 28.430,23.014 28.853,22.861 28.868,22.835 28.884,22.808 28.900,22.782 29.198,22.249 29.225,21.605 28.972,21.048 29.585,19.942 30.198,18.835 30.811,17.729 31.441,18.770 32.870,18.838 32.945,18.841 34.119,18.841 34.119,18.841 34.119,18.841 35.629,18.580 35.999,17.219 35.981,16.534 35.981,14.586 35.981,14.586 35.981,14.586 48.077,14.586 48.077,14.586 48.077,14.586 48.278,14.647 48.480,14.708 48.681,14.769 49.496,14.769 49.496,14.769 49.496,14.769 49.496,14.074 49.496,14.074 49.496,14.074 50.511,14.074 50.511,14.074 50.511,14.074 50.511,14.594 50.511,14.594 50.511,14.594 51.032,14.594 51.032,14.594 51.032,14.594 51.032,14.074 51.032,14.074 51.032,14.074 51.032,13.916 51.032,13.916 51.032,13.916 55.242,13.916 55.242,13.916 55.242,13.916 55.242,14.074 55.242,14.074 55.242,14.074 63.431,14.074 63.431,14.074 63.431,14.074 63.431,13.730 63.431,13.730 63.431,13.730 63.522,13.766 63.618,13.785 63.715,13.785 64.854,13.785 64.854,13.785 64.854,13.785 64.854,14.248 64.854,14.248 64.854,14.248 58.989,14.248 58.989,14.248 58.989,14.248 58.989,15.052 58.989,15.052 58.989,15.052 58.989,15.151 59.692,15.263 60.455,15.263 61.921,15.263 61.921,15.263 61.921,15.263 63.388,15.263 63.388,15.263 63.388,15.263 64.041,15.263 64.854,15.164 64.854,15.052 64.854,15.068 64.854,15.068 64.854,15.068 65.604,15.068 65.604,15.068 65.604,15.068 65.604,15.787 65.604,15.787 65.604,15.787 66.125,15.787 66.125,15.787 66.125,15.787 66.125,15.070 66.125,15.070 66.125,15.070 66.776,15.070 66.776,15.070 66.776,15.070 66.776,14.210 66.776,14.210 66.776,14.210 66.776,14.309 67.478,14.420 68.242,14.420 69.708,14.420 69.708,14.420 69.708,14.420 71.174,14.420 71.174,14.420 71.174,14.420 71.827,14.420 72.641,14.322 72.641,14.210 72.641,13.705 72.641,13.705 72.641,13.705 72.670,13.708 72.705,13.710 72.725,13.714 72.762,13.765 72.804,13.811 72.852,13.851 72.851,13.848 72.852,13.843 72.851,13.841 72.852,13.845 72.853,13.848 72.854,13.853 72.853,13.852 72.853,13.851 72.852,13.851 72.855,13.874 72.858,13.897 72.858,13.928 72.858,16.092 72.858,16.092 72.858,16.092 72.858,16.953 73.355,17.306 74.641,17.306 74.641,17.644 74.641,17.644 74.641,17.644 75.016,17.644 75.016,17.644 75.016,17.644 75.016,17.949 75.016,17.949 75.016,17.949 76.114,18.135 77.213,18.321 78.312,18.506 82.217,18.506 82.217,18.506 82.217,18.506 82.217,19.094 82.217,19.094 82.217,19.094 91.717,19.094 91.717,19.094 91.717,19.094 91.717,18.691 91.717,18.691 91.717,18.691 93.756,18.574 93.756,18.574 93.756,18.574 93.756,15.450 93.756,15.450 93.756,15.450 93.433,15.432 93.109,15.415 92.786,15.398 92.786,15.349 92.786,15.349 92.786,15.349 92.786,14.795 92.786,14.795 92.786,14.795 92.786,14.676 92.590,14.551 92.476,14.551 92.359,14.551 92.359,14.551 92.359,14.551 92.280,14.551 92.280,14.551 92.280,14.551 92.163,14.551 92.163,14.551 92.163,14.551 92.049,14.551 91.853,14.676 91.853,14.795 91.853,15.347 91.853,15.347 91.853,15.347 91.808,15.345 91.763,15.343 91.717,15.340 91.717,14.931 91.717,14.931 91.717,14.931 88.593,14.931 88.593,14.931 88.593,14.931 88.073,14.942 88.073,14.942 88.073,14.942 86.881,14.942 86.881,14.942 86.881,14.942 86.185,14.510 86.185,14.510 86.185,14.510 86.185,13.993 86.185,13.993 86.185,13.993 88.073,13.993 88.073,13.993 88.073,13.993 88.073,14.783 88.073,14.783 88.073,14.783 88.593,14.773 88.593,14.773 88.593,14.773 88.593,13.907 88.593,13.907 88.593,13.907 89.586,13.820 90.579,13.733 91.572,13.647 91.572,14.139 91.572,14.139 91.572,14.139 95.839,14.139 95.839,14.139 95.839,14.139 96.079,13.832 96.320,13.526 96.560,13.219 97.767,13.393 98.974,13.567 100.182,13.740 100.181,12.662 100.180,11.583 100.179,10.504 98.972,10.678 97.765,10.851 96.557,11.025 96.317,10.718 96.076,10.412 95.836,10.106 92.891,10.106 92.891,10.106 92.891,10.106 92.891,8.913 92.891,8.913 92.891,8.913 91.579,8.720 90.267,8.528 88.955,8.335 85.805,8.335 85.805,8.335 85.805,8.335 85.805,9.994 85.805,9.994 85.805,9.994 86.387,10.230 86.387,10.230 86.387,10.230 87.716,10.230 87.716,10.230 87.716,10.230 87.716,10.430 87.716,10.430 87.716,10.430 88.073,10.430 88.073,10.430 88.073,10.430 88.073,10.512 88.073,10.512 88.073,10.512 87.716,10.512 87.716,10.512 87.716,10.512 87.716,10.430 87.716,10.430 87.716,10.430 86.185,10.430 86.185,10.430 86.185,10.430 86.185,10.379 86.185,10.379 86.185,10.379 85.727,10.503 85.727,10.503 85.727,10.503 85.727,10.970 85.727,10.970 85.727,10.970 85.575,10.970 85.575,10.970 85.575,10.970 85.575,10.544 85.575,10.544 85.575,10.544 85.574,10.544 85.574,10.544 85.574,10.544 85.574,10.377 85.574,10.377 85.574,10.377 85.574,10.084 85.574,10.084 85.574,10.084 85.574,9.916 85.574,9.916 85.574,9.916 83.115,9.916 83.115,9.916 83.115,9.916 83.115,10.319 83.115,10.319 83.115,10.319 76.232,10.319 76.232,10.319 76.232,10.319 76.081,10.320 75.934,10.364 75.807,10.447 75.669,10.211 75.417,10.065 75.143,10.061 75.003,10.061 75.003,10.061 75.003,10.061 75.003,8.739 75.003,8.739 75.003,8.739 73.493,8.739 73.493,8.739 73.493,8.739 73.493,10.061 73.493,10.061 73.493,10.061 73.362,10.061 73.362,10.061 73.362,10.061 73.099,10.063 72.855,10.197 72.712,10.418 72.598,10.352 72.468,10.318 72.337,10.317 63.733,10.317 63.733,10.317 63.733,10.317 63.636,10.317 63.540,10.335 63.449,10.371 63.449,10.210 63.449,10.210 63.449,10.210 59.840,10.210 59.840,10.210 59.840,10.210 59.840,9.410 59.840,9.410 59.840,9.410 59.840,9.186 59.671,8.539 59.015,8.539 58.011,8.539 58.011,8.539 58.011,8.539 58.011,8.636 58.011,8.636 58.011,8.636 57.293,8.636 57.293,8.636 57.293,8.636 57.001,8.636 56.769,8.726 55.698,8.726 54.978,8.726 54.403,8.636 54.104,8.636 53.569,8.636 53.569,8.636 53.569,8.636 53.569,8.435 53.569,8.435 53.569,8.435 52.739,8.435 52.739,8.435 52.739,8.435 52.739,8.554 52.739,8.554 52.739,8.554 52.130,8.554 51.935,8.893 51.857,9.121 51.854,9.121 51.854,9.121 51.854,9.121 51.545,9.121 51.545,9.121 51.545,9.121 51.545,9.115 51.545,9.115 51.545,9.115 50.745,9.115 50.745,9.115 50.745,9.115 50.745,9.121 50.745,9.121 50.745,9.121 50.321,9.121 50.321,9.121 50.321,9.121 50.250,8.922 50.179,8.723 50.108,8.523 48.340,8.523 48.340,8.523 48.340,8.523 48.340,9.825 48.340,9.825 48.340,9.825 48.290,9.736 48.226,9.656 48.150,9.588 47.911,9.392 47.604,9.299 47.296,9.327 46.859,9.309 46.453,9.547 46.255,9.936 43.260,9.936 43.260,9.936 43.260,9.936 43.260,8.895 43.260,8.895 43.260,8.895 43.055,8.671 42.849,8.447 42.643,8.223 41.558,8.223 41.558,8.223 41.558,8.223 41.558,6.568 41.558,6.568 41.558,6.568 45.442,6.568 45.442,6.568 45.442,6.568 46.585,6.753 47.728,6.939 48.871,7.125 51.941,7.125 51.941,7.125 51.941,7.125 51.941,3.355 51.941,3.355 51.941,3.355 48.913,3.355 48.913,3.355 48.913,3.355 47.756,3.541 46.599,3.728 45.442,3.914 41.558,3.914 41.558,3.914 41.558,3.914 41.558,3.355 41.558,3.355 41.558,3.355 39.184,3.355 39.184,3.355 39.184,3.355 39.184,3.914 39.184,3.914 39.184,3.914 36.809,3.914 36.809,3.914 36.809,3.914 36.809,3.355 36.809,3.355 36.809,3.355 Z M 22.169,3.875 C 24.653,3.875 24.653,3.875 24.653,3.875 25.730,4.049 26.807,4.222 27.884,4.396 27.884,6.081 27.884,6.081 27.884,6.081 26.805,6.257 25.727,6.433 24.648,6.609 22.169,6.609 22.169,6.609 22.169,6.609 Z M 34.999,3.878 C 36.252,3.878 36.252,3.878 36.252,3.878 36.252,4.904 36.252,4.904 36.252,4.904 34.999,4.904 34.999,4.904 34.999,4.904 Z M 39.722,3.880 C 41.024,3.880 41.024,3.880 41.024,3.880 41.024,4.907 41.024,4.907 41.024,4.907 39.722,4.907 39.722,4.907 39.722,4.907 Z M 48.955,3.883 C 51.430,3.883 51.430,3.883 51.430,3.883 51.430,6.617 51.430,6.617 51.430,6.617 48.947,6.617 48.947,6.617 48.947,6.617 47.819,6.433 46.690,6.249 45.562,6.065 45.562,4.422 45.562,4.422 45.562,4.422 46.693,4.242 47.824,4.063 48.955,3.883 Z M 28.139,4.433 C 34.731,4.433 34.731,4.433 34.731,4.433 34.731,6.044 34.731,6.044 34.731,6.044 32.534,6.045 30.337,6.046 28.139,6.047 Z M 36.507,4.435 C 37.500,4.439 38.493,4.442 39.485,4.446 39.485,6.057 39.485,6.057 39.485,6.057 36.507,6.057 36.507,6.057 36.507,6.057 Z M 41.287,4.435 C 42.628,4.439 43.969,4.442 45.309,4.446 45.309,6.060 45.309,6.060 45.309,6.060 41.287,6.060 41.287,6.060 41.287,6.060 Z M 34.999,5.164 C 36.252,5.164 36.252,5.164 36.252,5.164 36.252,5.784 36.252,5.784 36.252,5.784 34.999,5.784 34.999,5.784 34.999,5.784 Z M 39.722,5.167 C 41.024,5.167 41.024,5.167 41.024,5.167 41.024,5.786 41.024,5.786 41.024,5.786 39.722,5.786 39.722,5.786 39.722,5.786 Z M 34.999,6.039 C 36.252,6.039 36.252,6.039 36.252,6.039 36.252,8.072 36.252,8.072 36.252,8.072 35.835,8.073 35.417,8.074 34.999,8.075 Z M 39.722,6.039 C 41.024,6.039 41.024,6.039 41.024,6.039 41.024,8.072 41.024,8.072 41.024,8.072 40.590,8.074 40.156,8.076 39.722,8.078 Z M 36.827,6.568 C 39.204,6.568 39.204,6.568 39.204,6.568 39.204,7.123 39.203,7.678 39.202,8.234 36.827,8.234 36.827,8.234 36.827,8.234 Z M 3.078,7.728 C 3.628,7.730 4.175,7.862 4.674,8.119 5.741,8.660 6.809,9.200 7.876,9.741 7.886,9.745 7.897,9.750 7.907,9.754 7.993,9.786 10.016,10.494 11.839,10.535 19.131,10.535 19.131,10.535 19.131,10.535 19.131,11.056 19.131,11.056 19.131,11.056 19.000,11.528 18.580,11.862 18.090,11.884 17.829,11.884 17.829,11.884 17.829,11.884 17.829,12.144 17.829,12.144 17.829,12.144 18.090,12.144 18.090,12.144 18.090,12.144 19.095,12.144 19.392,11.118 19.392,11.103 19.392,10.257 19.392,10.257 19.392,10.257 19.392,9.996 19.392,9.996 19.392,9.996 22.114,9.996 22.114,9.996 22.114,9.996 22.114,10.517 22.114,10.517 22.114,10.517 22.114,11.004 22.114,11.004 22.114,11.004 22.114,11.264 22.114,11.264 22.114,11.264 31.810,11.264 31.810,11.264 31.810,11.264 34.119,11.264 34.119,11.264 34.119,11.264 34.119,10.054 34.119,10.054 34.119,10.054 31.810,10.054 31.810,10.054 31.810,10.054 31.810,11.004 31.810,11.004 31.810,11.004 22.375,11.004 22.375,11.004 22.375,11.004 22.375,10.540 22.375,10.540 22.375,10.540 27.283,10.540 27.283,10.540 27.283,10.540 29.068,10.220 30.853,9.900 32.638,9.580 32.846,9.303 33.053,9.026 33.261,8.749 34.708,8.749 34.708,8.749 34.708,8.749 34.708,9.811 34.708,9.811 34.708,9.811 34.440,9.811 34.440,9.811 34.440,9.811 34.440,12.886 34.440,12.886 34.440,12.886 42.250,12.886 42.250,12.886 42.250,12.886 42.250,8.747 42.250,8.747 42.250,8.747 42.412,8.747 42.412,8.747 42.412,8.747 42.521,8.863 42.631,8.979 42.740,9.096 42.740,9.593 42.740,9.593 42.740,9.593 42.740,13.275 42.740,13.275 42.740,13.275 35.118,13.275 35.118,13.275 35.118,13.275 35.118,13.168 35.118,13.168 35.118,13.168 33.601,13.168 33.601,13.168 33.601,13.168 33.405,13.168 33.223,13.301 33.223,13.559 33.223,13.560 33.223,13.560 33.223,13.560 33.223,13.814 33.413,13.951 33.601,13.951 35.118,13.951 35.118,13.951 35.118,13.951 35.118,13.845 35.118,13.845 35.118,13.845 42.740,13.845 42.740,13.845 42.740,13.845 42.740,14.074 42.740,14.074 42.740,14.074 32.360,14.074 32.360,14.074 32.360,14.074 32.178,13.829 31.997,13.584 31.816,13.339 31.182,13.339 31.182,13.339 31.182,13.339 31.185,13.311 31.187,13.282 31.187,13.253 31.187,12.840 30.855,12.508 30.442,12.508 30.029,12.508 29.697,12.840 29.697,13.253 29.697,13.282 29.698,13.311 29.702,13.339 24.854,13.339 24.854,13.339 24.854,13.339 24.854,13.600 24.854,13.600 24.854,13.600 24.854,14.107 24.854,14.107 24.854,14.107 20.428,14.107 20.428,14.107 20.428,14.107 17.165,13.818 17.165,13.818 17.165,13.818 13.312,13.818 13.312,13.818 13.312,13.818 12.198,13.771 10.063,14.139 9.967,15.901 9.988,16.255 10.092,16.599 10.269,16.906 10.215,16.960 10.161,17.014 10.107,17.068 9.825,16.879 9.543,16.691 9.261,16.502 9.251,16.497 9.242,16.492 9.233,16.487 8.642,16.248 7.972,16.306 7.431,16.643 6.302,17.278 5.174,17.913 4.046,18.549 3.850,18.478 3.654,18.408 3.458,18.338 3.519,16.402 3.581,14.466 3.643,12.529 3.643,12.420 3.929,9.879 2.080,8.788 2.028,8.498 1.977,8.209 1.924,7.919 2.264,7.802 2.616,7.739 2.968,7.729 3.004,7.728 3.041,7.728 3.078,7.728 Z M 52.957,8.693 C 53.075,8.693 53.193,8.693 53.310,8.693 53.310,8.802 53.310,8.802 53.310,8.802 53.304,8.840 53.328,8.882 53.366,8.892 53.435,8.895 53.505,8.894 53.574,8.894 53.785,8.896 53.996,8.890 54.208,8.899 54.550,8.920 54.892,8.955 55.234,8.972 55.644,8.989 56.054,8.986 56.464,8.963 56.716,8.952 56.966,8.919 57.218,8.898 57.568,8.894 57.919,8.895 58.269,8.894 58.269,8.862 58.269,8.830 58.269,8.798 58.427,8.798 58.585,8.798 58.743,8.798 58.847,8.799 58.952,8.797 59.056,8.800 59.138,8.803 59.221,8.826 59.289,8.868 59.348,8.903 59.399,8.951 59.438,9.007 59.515,9.113 59.561,9.240 59.578,9.369 59.582,9.611 59.581,9.853 59.582,10.095 59.582,10.210 59.582,10.210 59.582,10.210 59.304,10.210 59.304,10.210 59.304,10.210 59.304,10.095 59.304,10.095 59.304,10.095 59.304,10.062 59.304,10.030 59.304,9.997 59.302,9.871 59.307,9.746 59.301,9.620 59.299,9.456 59.221,9.292 59.089,9.192 59.004,9.126 58.897,9.093 58.791,9.081 58.617,9.075 58.443,9.077 58.269,9.076 58.269,9.025 58.269,9.025 58.269,9.025 58.014,9.025 58.014,9.025 58.014,9.025 57.881,8.977 57.730,8.950 57.563,8.950 56.779,8.950 56.779,8.950 56.779,8.950 56.783,9.025 56.783,9.025 56.783,9.025 52.481,9.025 52.481,9.025 52.481,9.025 52.481,9.121 52.481,9.121 52.481,9.121 52.140,9.121 52.140,9.121 52.140,9.121 52.158,9.085 52.176,9.047 52.201,9.015 52.263,8.938 52.351,8.886 52.443,8.855 52.533,8.825 52.628,8.816 52.722,8.813 52.814,8.819 52.908,8.772 52.957,8.693 Z M 34.971,8.747 C 42.001,8.747 42.001,8.747 42.001,8.747 42.001,9.809 42.001,9.809 42.001,9.809 39.657,9.809 37.314,9.811 34.971,9.811 Z M 35.903,8.817 C 35.730,8.819 35.562,8.925 35.486,9.082 35.413,9.228 35.421,9.413 35.510,9.551 35.586,9.672 35.718,9.756 35.860,9.771 35.997,9.787 36.141,9.741 36.241,9.646 36.336,9.559 36.392,9.433 36.394,9.304 36.396,9.175 36.345,9.046 36.253,8.956 36.166,8.868 36.043,8.817 35.920,8.817 35.914,8.816 35.909,8.817 35.903,8.817 Z M 40.008,8.826 C 39.835,8.829 39.667,8.934 39.591,9.090 39.518,9.235 39.524,9.417 39.611,9.555 39.684,9.676 39.813,9.760 39.953,9.779 40.090,9.798 40.235,9.756 40.338,9.662 40.434,9.578 40.493,9.453 40.498,9.324 40.503,9.199 40.457,9.071 40.371,8.979 40.289,8.890 40.171,8.834 40.049,8.827 40.039,8.826 40.029,8.826 40.018,8.826 40.015,8.826 40.011,8.826 40.008,8.826 Z M 86.325,8.845 C 88.898,8.845 88.898,8.845 88.898,8.845 90.056,9.019 91.213,9.193 92.371,9.366 92.371,9.848 92.371,9.848 92.371,9.848 91.243,9.739 90.114,9.631 88.986,9.522 86.325,9.522 86.325,9.522 86.325,9.522 Z M 35.900,8.989 C 35.903,8.989 35.907,8.989 35.910,8.989 35.960,8.989 36.010,8.999 36.054,9.022 36.129,9.061 36.188,9.131 36.210,9.212 36.219,9.246 36.222,9.279 36.221,9.313 36.217,9.386 36.185,9.458 36.133,9.511 36.074,9.572 35.988,9.605 35.903,9.601 35.878,9.601 35.851,9.596 35.827,9.589 35.794,9.579 35.764,9.564 35.735,9.544 35.679,9.504 35.638,9.444 35.620,9.378 35.597,9.296 35.609,9.206 35.654,9.134 35.705,9.049 35.802,8.994 35.900,8.989 Z M 40.020,8.998 C 40.066,8.999 40.111,9.009 40.152,9.028 40.234,9.067 40.297,9.145 40.317,9.234 40.324,9.266 40.327,9.301 40.324,9.334 40.317,9.420 40.270,9.502 40.200,9.552 40.151,9.589 40.088,9.609 40.026,9.611 39.941,9.613 39.855,9.578 39.797,9.516 39.769,9.486 39.746,9.450 39.732,9.413 39.717,9.373 39.711,9.330 39.713,9.288 39.717,9.219 39.745,9.151 39.791,9.100 39.844,9.040 39.921,9.003 40.001,8.999 40.007,8.999 40.014,8.998 40.020,8.998 Z M 48.853,9.046 C 49.733,9.046 49.733,9.046 49.733,9.046 49.804,9.246 49.875,9.445 49.946,9.645 50.127,9.645 50.127,9.645 50.127,9.645 50.127,9.644 50.129,9.643 50.129,9.642 50.009,9.810 49.952,10.015 49.952,10.178 49.952,10.193 49.952,10.197 49.952,10.212 48.853,10.212 48.853,10.212 48.853,10.212 Z M 57.403,9.249 C 57.840,9.244 58.216,9.320 58.347,9.761 58.354,10.005 58.353,10.249 58.353,10.493 58.280,10.493 58.280,10.493 58.280,10.493 58.280,11.501 58.280,11.501 58.280,11.501 58.354,11.501 58.354,11.501 58.354,11.501 58.354,11.534 58.355,11.567 58.355,11.601 58.359,11.766 58.360,11.933 58.396,12.095 58.420,12.213 58.479,12.327 58.572,12.405 58.652,12.472 58.753,12.508 58.855,12.525 59.052,12.552 59.251,12.546 59.450,12.544 59.450,12.621 59.450,12.621 59.450,12.621 61.511,12.734 63.573,12.847 65.635,12.959 65.637,12.927 65.639,12.895 65.641,12.863 65.750,12.871 65.859,12.879 65.968,12.887 65.966,12.917 65.964,12.947 65.962,12.978 67.981,13.088 70.000,13.198 72.019,13.309 72.019,13.254 72.019,13.254 72.019,13.254 72.207,13.255 72.394,13.254 72.582,13.255 72.678,13.254 72.775,13.266 72.867,13.292 72.973,13.321 73.076,13.366 73.161,13.434 73.227,13.484 73.279,13.556 73.294,13.638 73.298,13.728 73.297,13.818 73.298,13.907 73.297,14.638 73.299,15.211 73.301,15.942 73.301,16.652 73.738,16.830 74.415,16.864 74.415,16.934 74.415,17.005 74.415,17.075 73.614,17.086 73.091,16.862 73.086,16.035 73.081,13.854 73.081,13.854 73.081,13.854 73.079,13.747 73.033,13.639 72.949,13.571 72.880,13.518 72.794,13.492 72.709,13.481 72.480,13.461 72.249,13.469 72.019,13.469 72.019,13.389 72.019,13.389 72.019,13.389 69.998,13.289 67.977,13.189 65.956,13.089 65.953,13.130 65.951,13.171 65.948,13.212 65.621,13.188 65.621,13.188 65.621,13.188 65.623,13.149 65.626,13.111 65.628,13.073 63.569,12.970 61.509,12.867 59.450,12.765 59.450,12.849 59.450,12.849 59.450,12.849 59.302,12.849 59.155,12.849 59.008,12.849 58.870,12.849 58.731,12.851 58.595,12.826 58.510,12.810 58.425,12.781 58.351,12.736 58.265,12.682 58.200,12.600 58.160,12.508 58.116,12.405 58.095,12.295 58.085,12.185 58.077,11.957 58.079,11.729 58.079,11.501 58.152,11.501 58.152,11.501 58.152,11.501 58.152,10.493 58.152,10.493 58.152,10.493 58.127,10.493 58.103,10.493 58.079,10.493 58.079,10.340 58.079,10.186 58.079,10.033 58.083,9.940 58.075,9.844 58.036,9.758 57.977,9.625 57.847,9.523 57.701,9.505 57.478,9.503 57.255,9.503 57.032,9.503 57.031,9.483 57.030,9.463 57.029,9.443 55.206,9.529 53.383,9.615 51.560,9.701 51.560,9.762 51.560,9.762 51.560,9.762 51.318,9.762 51.318,9.762 51.318,9.762 51.318,9.923 51.318,9.923 51.318,9.923 50.490,9.923 50.490,9.923 50.490,9.923 50.490,12.753 50.490,12.753 50.490,12.753 50.490,13.086 50.281,13.716 49.704,13.716 49.418,13.721 49.202,13.721 48.916,13.721 48.916,13.378 48.916,13.378 48.916,13.378 48.991,13.380 49.067,13.381 49.142,13.381 49.251,13.381 49.359,13.383 49.468,13.375 49.549,13.368 49.631,13.357 49.709,13.331 49.827,13.292 49.931,13.214 49.999,13.110 50.068,13.004 50.105,12.881 50.127,12.757 50.166,12.523 50.175,12.285 50.178,12.048 50.184,11.547 50.180,11.046 50.179,10.546 50.180,10.430 50.177,10.314 50.179,10.198 50.179,10.155 50.182,10.112 50.190,10.069 50.204,9.988 50.232,9.910 50.272,9.838 50.309,9.772 50.357,9.711 50.417,9.663 50.479,9.614 50.553,9.579 50.632,9.565 50.742,9.546 50.855,9.559 50.967,9.563 50.968,9.489 50.968,9.415 50.969,9.342 51.318,9.342 51.318,9.342 51.318,9.342 51.318,9.429 51.318,9.429 51.318,9.429 51.560,9.429 51.560,9.429 51.560,9.429 51.560,9.521 51.560,9.521 51.560,9.521 53.236,9.442 54.913,9.363 56.590,9.284 56.856,9.284 57.140,9.252 57.403,9.249 Z M 73.990,9.259 C 74.471,9.259 74.471,9.259 74.471,9.259 74.471,10.582 74.471,10.582 74.471,10.582 74.471,12.540 74.471,12.540 74.471,12.540 73.969,12.540 73.969,12.540 73.969,12.540 73.976,11.886 73.983,11.231 73.990,10.577 Z M 58.428,9.334 C 58.708,9.334 58.708,9.334 58.708,9.334 58.961,9.334 59.045,9.488 59.045,9.655 59.045,10.210 59.045,10.210 59.045,10.210 58.579,10.210 58.579,10.210 58.579,10.210 58.579,9.859 58.579,9.859 58.579,9.859 58.579,9.649 58.525,9.474 58.428,9.334 Z M 56.815,9.679 C 56.817,9.729 56.817,9.729 56.817,9.729 57.659,9.729 57.659,9.729 57.659,9.729 57.773,9.729 57.852,9.850 57.852,9.942 57.852,10.210 57.852,10.210 57.852,10.210 55.112,10.210 55.112,10.210 55.112,10.210 55.112,10.375 55.112,10.375 55.112,10.375 53.488,10.375 53.488,10.375 53.488,10.375 53.635,9.829 53.635,9.829 53.635,9.829 Z M 47.390,9.845 C 47.535,9.846 47.678,9.892 47.796,9.978 47.923,10.111 47.985,10.293 47.968,10.475 47.968,10.736 47.968,10.736 47.968,10.736 47.968,11.348 47.968,11.348 47.968,11.348 46.596,11.348 46.596,11.348 46.596,11.348 46.596,10.452 46.596,10.452 46.596,10.452 46.617,10.395 46.639,10.337 46.661,10.280 46.752,10.016 47.004,9.842 47.283,9.848 47.327,9.848 47.327,9.848 47.327,9.848 47.348,9.846 47.369,9.845 47.390,9.845 Z M 53.115,9.853 C 52.967,10.377 52.967,10.377 52.967,10.377 50.716,10.377 50.716,10.377 50.716,10.377 50.716,10.212 50.716,10.212 50.716,10.212 50.716,10.149 50.716,10.149 50.716,10.149 51.545,10.149 51.545,10.149 51.545,10.149 51.545,9.988 51.545,9.988 51.545,9.988 51.786,9.988 51.786,9.988 51.786,9.988 51.786,9.916 51.786,9.916 51.786,9.916 Z M 88.593,10.036 C 88.966,10.036 88.966,10.036 88.966,10.036 89.833,10.122 90.701,10.209 91.569,10.296 91.569,10.606 91.569,10.606 91.569,10.606 90.577,10.518 89.585,10.430 88.593,10.343 Z M 34.700,10.069 C 37.134,10.070 39.567,10.071 42.001,10.072 42.001,12.631 42.001,12.631 42.001,12.631 34.700,12.631 34.700,12.631 34.700,12.631 Z M 32.070,10.314 C 33.859,10.314 33.859,10.314 33.859,10.314 33.859,11.004 33.859,11.004 33.859,11.004 32.070,11.004 32.070,11.004 32.070,11.004 Z M 83.597,10.398 C 85.092,10.398 85.092,10.398 85.092,10.398 85.092,13.897 85.092,13.897 85.092,13.897 83.597,13.897 83.597,13.897 83.597,13.897 Z M 43.260,10.455 C 44.216,10.455 44.216,10.455 44.216,10.455 44.216,11.605 44.216,11.605 44.216,11.605 48.238,11.605 48.238,11.605 48.238,11.605 48.238,10.733 48.238,10.733 48.238,10.733 48.980,10.733 48.980,10.733 48.980,10.733 48.980,13.155 48.980,13.155 48.980,13.155 48.957,13.155 48.941,13.154 48.916,13.154 48.916,13.041 48.916,13.041 48.916,13.041 48.824,12.943 48.824,12.943 48.824,12.943 48.547,12.943 48.547,12.943 48.547,12.943 48.533,12.922 48.520,12.900 48.504,12.881 48.297,12.679 48.012,12.577 47.723,12.602 44.216,12.602 44.216,12.602 44.216,12.602 44.216,13.275 44.216,13.275 44.216,13.275 43.260,13.275 43.260,13.275 43.260,13.275 Z M 44.471,10.455 C 45.093,10.455 45.715,10.456 46.338,10.457 46.338,11.348 46.338,11.348 46.338,11.348 44.471,11.348 44.471,11.348 44.471,11.348 Z M 73.342,10.575 C 73.722,10.575 73.722,10.575 73.722,10.575 73.722,12.793 73.722,12.793 73.722,12.793 74.745,12.793 74.745,12.793 74.745,12.793 74.745,10.582 74.745,10.582 74.745,10.582 75.133,10.582 75.133,10.582 75.133,10.582 75.202,10.582 75.268,10.609 75.317,10.658 75.366,10.707 75.393,10.773 75.393,10.842 75.394,11.649 75.395,12.455 75.396,13.261 75.396,13.330 75.368,13.396 75.319,13.445 75.271,13.494 75.204,13.522 75.135,13.522 73.497,13.522 73.497,13.522 73.497,13.522 73.497,13.522 73.497,13.523 73.497,13.524 73.433,13.333 73.264,13.204 73.077,13.125 73.078,13.126 73.080,13.126 73.081,13.126 73.081,10.834 73.081,10.834 73.081,10.834 73.081,10.765 73.109,10.699 73.158,10.651 73.207,10.602 73.273,10.575 73.342,10.575 Z M 92.089,10.634 C 95.584,10.634 95.584,10.634 95.584,10.634 95.740,10.834 95.896,11.033 96.053,11.233 96.056,11.827 96.059,12.422 96.063,13.016 95.907,13.216 95.750,13.416 95.594,13.615 92.089,13.615 92.089,13.615 92.089,13.615 Z M 49.233,10.733 C 49.953,10.733 49.953,10.733 49.953,10.733 49.963,12.920 49.980,13.157 49.233,13.156 Z M 55.518,10.733 C 57.926,10.733 57.926,10.733 57.926,10.733 57.926,11.274 57.926,11.274 57.926,11.274 57.852,11.274 57.852,11.274 57.852,11.274 57.852,12.033 57.852,12.033 57.852,12.033 57.852,12.829 58.263,13.075 58.854,13.075 59.676,13.075 59.676,13.075 59.676,13.075 59.676,13.003 59.676,13.003 59.676,13.003 62.912,13.164 62.912,13.164 62.912,13.164 62.913,13.295 62.913,13.426 62.913,13.558 55.518,13.558 55.518,13.558 55.518,13.558 55.518,13.393 55.518,13.393 55.518,13.393 51.032,13.393 51.032,13.393 51.032,13.393 51.032,10.898 51.032,10.898 51.032,10.898 55.518,10.898 55.518,10.898 55.518,10.898 Z M 58.506,10.733 C 62.910,10.733 62.910,10.733 62.910,10.733 62.911,11.350 62.911,11.967 62.912,12.584 59.676,12.407 59.676,12.407 59.676,12.407 59.676,12.317 59.676,12.317 59.676,12.317 58.576,12.317 58.579,12.437 58.579,11.274 58.506,11.274 58.506,11.274 58.506,11.274 Z M 63.720,10.837 C 72.324,10.837 72.324,10.837 72.324,10.837 72.393,10.837 72.459,10.865 72.508,10.914 72.557,10.962 72.584,11.029 72.584,11.098 72.584,11.386 72.584,11.386 72.584,11.386 63.470,11.386 63.470,11.386 63.470,11.386 63.470,11.090 63.470,11.090 63.470,11.090 63.474,10.953 63.583,10.843 63.720,10.837 Z M 76.232,10.837 C 83.115,10.837 83.115,10.837 83.115,10.837 83.115,11.386 83.115,11.386 83.115,11.386 75.982,11.386 75.982,11.386 75.982,11.386 75.982,11.090 75.982,11.090 75.982,11.090 75.986,10.953 76.095,10.843 76.232,10.837 Z M 88.572,10.866 C 89.558,10.953 90.544,11.040 91.530,11.126 91.530,13.126 91.530,13.126 91.530,13.126 90.544,13.213 89.558,13.300 88.572,13.386 Z M 86.185,10.949 C 88.073,10.949 88.073,10.949 88.073,10.949 88.073,13.474 88.073,13.474 88.073,13.474 86.185,13.474 86.185,13.474 86.185,13.474 Z M 99.666,11.105 C 99.667,11.784 99.668,12.463 99.668,13.141 98.667,12.996 97.665,12.852 96.664,12.707 96.664,11.543 96.664,11.543 96.664,11.543 97.664,11.397 98.665,11.251 99.666,11.105 Z M 63.470,11.647 C 72.579,11.647 72.579,11.647 72.579,11.647 72.578,11.898 72.577,12.149 72.576,12.399 63.470,12.399 63.470,12.399 63.470,12.399 Z M 75.982,11.647 C 83.115,11.647 83.115,11.647 83.115,11.647 83.115,12.394 83.115,12.394 83.115,12.394 75.982,12.394 75.982,12.394 75.982,12.394 Z M 64.200,12.655 C 65.428,12.655 65.428,12.655 65.428,12.655 65.423,12.722 65.423,12.722 65.423,12.722 Z M 65.885,12.655 C 72.571,12.655 72.571,12.655 72.571,12.655 72.571,13.001 72.571,13.001 72.571,13.001 72.571,13.011 72.567,13.019 72.566,13.029 71.793,13.029 71.793,13.029 71.793,13.029 71.793,13.070 71.793,13.070 71.793,13.070 66.202,12.764 66.202,12.764 66.202,12.764 66.207,12.678 66.207,12.678 66.207,12.678 Z M 75.971,12.655 C 83.115,12.655 83.115,12.655 83.115,12.655 83.115,13.261 83.115,13.261 83.115,13.261 76.232,13.261 76.232,13.261 76.232,13.261 76.163,13.261 76.096,13.234 76.048,13.185 75.999,13.136 75.971,13.070 75.971,13.001 Z M 30.442,12.796 C 30.695,12.796 30.899,13.000 30.899,13.253 30.899,13.506 30.695,13.710 30.442,13.710 30.189,13.710 29.985,13.506 29.985,13.253 29.985,13.000 30.189,12.796 30.442,12.796 Z M 47.798,12.862 C 47.983,12.863 48.162,12.930 48.304,13.053 48.375,13.137 48.409,13.245 48.397,13.355 48.397,14.136 48.397,14.136 48.397,14.136 48.327,14.115 48.257,14.094 48.186,14.074 46.949,14.075 45.711,14.077 44.474,14.079 44.474,12.865 44.474,12.865 44.474,12.865 47.718,12.865 47.718,12.865 47.718,12.865 47.745,12.863 47.771,12.862 47.798,12.862 Z M 48.754,13.097 C 48.757,13.097 48.760,13.099 48.761,13.102 48.761,13.328 48.761,13.328 48.761,13.328 48.761,13.721 48.761,13.721 48.761,13.721 48.761,14.002 48.761,14.002 48.761,14.002 48.760,14.007 48.764,14.014 48.759,14.018 48.670,14.018 48.670,14.018 48.670,14.018 48.670,13.097 48.670,13.097 48.670,13.097 48.692,13.097 48.713,13.098 48.734,13.098 48.751,13.097 48.751,13.097 48.751,13.097 48.752,13.097 48.753,13.097 48.754,13.097 Z M 63.555,13.196 C 64.871,13.261 64.871,13.261 64.871,13.261 63.723,13.261 63.723,13.261 63.723,13.261 63.660,13.261 63.602,13.236 63.555,13.196 Z M 33.597,13.346 C 34.045,13.346 34.492,13.346 34.940,13.346 34.940,13.405 34.940,13.405 34.940,13.405 34.940,13.453 34.940,13.453 34.940,13.453 34.940,13.666 34.940,13.666 34.940,13.666 34.940,13.773 34.940,13.773 34.940,13.773 34.609,13.773 34.278,13.772 33.947,13.772 33.836,13.772 33.725,13.773 33.613,13.772 33.565,13.774 33.514,13.761 33.476,13.730 33.435,13.700 33.412,13.651 33.405,13.601 33.397,13.541 33.404,13.474 33.439,13.422 33.475,13.372 33.537,13.347 33.597,13.346 Z M 35.118,13.453 C 44.180,13.453 44.180,13.453 44.180,13.453 44.216,13.453 44.216,13.453 44.216,13.453 44.216,13.666 44.216,13.666 44.216,13.666 44.180,13.666 44.180,13.666 44.180,13.666 35.118,13.666 35.118,13.666 35.118,13.666 Z M 85.575,13.531 C 85.727,13.531 85.727,13.531 85.727,13.531 85.727,14.226 85.727,14.226 85.727,14.226 85.575,14.131 85.575,14.131 85.575,14.131 85.575,14.062 85.575,14.062 85.575,14.062 85.575,14.034 85.575,14.034 85.575,14.034 Z M 25.122,13.592 C 29.778,13.592 29.778,13.592 29.778,13.592 29.901,13.833 30.151,13.998 30.442,13.998 30.733,13.998 30.983,13.833 31.106,13.592 31.691,13.592 31.691,13.592 31.691,13.592 31.846,13.802 32.001,14.012 32.157,14.222 30.896,16.501 29.634,18.780 28.373,21.059 28.400,21.102 28.425,21.145 28.451,21.189 28.671,21.576 28.686,22.046 28.491,22.446 28.211,22.548 27.932,22.650 27.653,22.751 27.080,22.365 26.507,21.979 25.934,21.592 25.903,21.592 25.903,21.592 25.903,21.592 25.630,21.488 25.412,21.276 25.299,21.006 25.236,20.788 25.255,20.554 25.351,20.348 25.895,19.323 26.439,18.298 26.983,17.273 26.991,17.259 26.999,17.244 27.007,17.229 27.007,17.179 27.007,17.179 27.007,17.179 27.095,16.328 26.921,15.688 26.486,15.282 26.120,14.970 25.649,14.806 25.168,14.823 25.122,14.823 25.122,14.823 25.122,14.823 25.122,14.097 25.122,14.097 25.122,14.097 Z M 75.805,13.657 C 75.931,13.740 76.078,13.784 76.229,13.785 83.115,13.785 83.115,13.785 83.115,13.785 83.115,14.080 83.115,14.080 83.115,14.080 82.363,14.931 82.363,14.931 82.363,14.931 82.212,14.931 82.212,14.931 82.212,14.931 82.212,15.520 82.212,15.520 82.212,15.520 78.356,15.520 78.356,15.520 78.356,15.520 77.242,15.707 76.129,15.895 75.016,16.082 75.016,16.343 75.016,16.343 75.016,16.343 74.641,16.343 74.641,16.343 74.641,16.343 74.641,16.639 74.641,16.639 74.641,16.639 74.448,16.639 74.448,16.639 74.448,16.639 73.905,16.639 73.533,16.607 73.528,15.555 73.526,15.240 73.526,15.240 73.526,15.240 73.521,14.888 73.523,14.479 73.525,14.037 74.164,14.037 74.164,14.037 74.164,14.037 74.164,15.313 74.164,15.313 74.164,15.313 74.685,15.313 74.685,15.313 74.685,15.313 74.685,14.042 74.685,14.042 74.685,14.042 75.141,14.042 75.141,14.042 75.141,14.042 75.414,14.039 75.666,13.893 75.805,13.657 Z M 72.343,13.779 C 72.343,13.861 72.343,13.962 72.343,14.022 72.336,14.024 72.328,14.026 72.320,14.027 72.149,14.059 71.976,14.079 71.802,14.094 71.639,14.108 71.476,14.117 71.312,14.120 70.587,14.122 69.861,14.122 69.136,14.123 68.801,14.121 68.467,14.126 68.132,14.120 67.984,14.117 67.835,14.113 67.687,14.101 67.481,14.085 67.275,14.065 67.073,14.021 67.073,13.782 67.073,13.782 67.073,13.782 72.321,13.782 72.321,13.782 72.321,13.782 72.329,13.782 72.336,13.779 72.343,13.779 Z M 43.260,13.845 C 44.216,13.845 44.216,13.845 44.216,13.845 44.216,14.071 44.216,14.071 44.216,14.071 43.260,14.071 43.260,14.071 43.260,14.071 Z M 65.380,13.865 C 66.260,13.865 66.260,13.865 66.260,13.865 66.259,14.095 66.258,14.325 66.257,14.555 65.380,14.555 65.380,14.555 65.380,14.555 Z M 27.675,13.916 C 27.501,13.919 27.333,14.025 27.257,14.182 27.184,14.328 27.192,14.513 27.281,14.651 27.357,14.772 27.489,14.857 27.631,14.871 27.768,14.888 27.912,14.841 28.013,14.746 28.107,14.659 28.164,14.533 28.165,14.404 28.168,14.275 28.117,14.146 28.025,14.055 27.937,13.968 27.815,13.917 27.691,13.916 27.686,13.916 27.680,13.916 27.675,13.916 Z M 31.161,13.926 C 30.988,13.929 30.820,14.034 30.744,14.190 30.671,14.335 30.678,14.517 30.764,14.655 30.837,14.775 30.966,14.861 31.106,14.879 31.243,14.899 31.389,14.856 31.492,14.762 31.587,14.678 31.647,14.553 31.651,14.425 31.657,14.299 31.611,14.171 31.525,14.079 31.442,13.990 31.324,13.934 31.203,13.927 31.192,13.926 31.182,13.926 31.172,13.926 31.168,13.926 31.165,13.926 31.161,13.926 Z M 48.916,13.947 C 48.976,13.947 48.976,13.947 48.976,13.947 48.975,14.053 48.974,14.158 48.973,14.264 48.790,14.264 48.790,14.264 48.790,14.264 48.746,14.251 48.702,14.237 48.657,14.224 48.657,14.172 48.657,14.172 48.657,14.172 48.824,14.172 48.824,14.172 48.824,14.172 48.916,14.078 48.916,14.078 48.916,14.078 Z M 27.681,14.089 C 27.731,14.089 27.781,14.099 27.826,14.122 27.901,14.161 27.959,14.231 27.981,14.312 27.990,14.346 27.994,14.378 27.992,14.413 27.989,14.486 27.957,14.558 27.905,14.610 27.846,14.672 27.759,14.705 27.674,14.701 27.649,14.701 27.623,14.696 27.599,14.689 27.565,14.679 27.535,14.664 27.506,14.644 27.450,14.604 27.409,14.544 27.391,14.478 27.368,14.396 27.381,14.306 27.426,14.234 27.477,14.149 27.573,14.094 27.671,14.090 27.674,14.089 27.678,14.089 27.681,14.089 Z M 31.174,14.098 C 31.219,14.099 31.265,14.109 31.306,14.128 31.388,14.167 31.450,14.245 31.470,14.334 31.478,14.366 31.480,14.401 31.477,14.434 31.470,14.520 31.424,14.602 31.354,14.652 31.304,14.689 31.241,14.709 31.179,14.711 31.095,14.713 31.009,14.678 30.950,14.616 30.922,14.586 30.900,14.550 30.886,14.513 30.871,14.473 30.864,14.430 30.867,14.388 30.870,14.319 30.899,14.251 30.944,14.200 30.998,14.140 31.075,14.103 31.154,14.099 31.161,14.099 31.167,14.098 31.174,14.098 Z M 83.597,14.168 C 85.092,14.168 85.092,14.168 85.092,14.168 86.366,14.940 86.366,14.940 86.366,14.940 82.863,14.940 82.863,14.940 82.863,14.940 Z M 59.286,14.545 C 64.557,14.545 64.557,14.545 64.557,14.545 64.557,14.622 64.557,14.787 64.557,14.864 64.549,14.866 64.541,14.868 64.534,14.869 64.362,14.901 64.189,14.922 64.015,14.937 63.852,14.950 63.689,14.959 63.526,14.961 62.800,14.964 62.074,14.964 61.349,14.965 61.014,14.964 60.680,14.968 60.346,14.962 60.197,14.959 60.049,14.956 59.901,14.944 59.695,14.928 59.488,14.907 59.286,14.864 Z M 32.534,14.591 C 35.450,14.591 35.450,14.591 35.450,14.591 35.453,14.929 35.455,15.267 35.458,15.604 34.970,15.071 34.272,14.780 33.549,14.808 33.109,14.808 32.674,14.902 32.273,15.084 32.360,14.920 32.447,14.755 32.534,14.591 Z M 22.473,14.685 C 22.698,14.685 22.880,14.866 22.880,15.092 22.880,15.318 22.698,15.500 22.473,15.500 22.247,15.500 22.065,15.318 22.065,15.092 22.065,14.866 22.247,14.685 22.473,14.685 Z M 92.201,14.774 C 92.424,14.774 92.424,14.774 92.424,14.774 92.524,14.774 92.605,14.855 92.605,14.955 92.605,15.055 92.524,15.136 92.424,15.136 92.201,15.136 92.201,15.136 92.201,15.136 92.100,15.136 92.020,15.055 92.020,14.955 92.020,14.855 92.100,14.774 92.201,14.774 Z M 33.555,15.331 C 34.981,15.331 35.400,16.388 35.466,16.583 35.455,16.789 35.388,17.947 34.279,18.270 34.279,18.278 34.279,18.278 34.279,18.278 33.758,18.117 33.615,17.424 33.591,17.279 33.747,16.740 33.427,15.961 33.331,15.737 33.406,15.602 33.480,15.466 33.555,15.331 Z M 33.239,15.344 C 33.171,15.470 33.102,15.596 33.034,15.722 33.043,15.742 33.053,15.761 33.063,15.781 33.063,15.781 33.508,16.700 33.323,17.221 33.323,17.250 33.323,17.250 33.323,17.250 33.323,17.279 33.323,17.279 33.323,17.279 33.380,17.672 33.563,18.038 33.843,18.320 32.953,18.320 32.953,18.320 32.953,18.320 32.940,18.325 31.521,18.255 31.139,17.234 31.139,17.237 31.139,17.237 31.139,17.237 31.116,17.245 31.094,17.254 31.071,17.263 31.259,16.922 31.448,16.581 31.636,16.240 32.026,15.736 32.605,15.411 33.239,15.344 Z M 82.732,15.452 C 90.973,15.452 90.973,15.452 90.973,15.452 90.973,18.577 90.973,18.577 90.973,18.577 82.732,18.577 82.732,18.577 82.732,18.577 82.730,18.099 82.727,18.055 82.725,17.578 87.171,17.578 87.171,17.578 87.171,17.578 87.171,15.736 87.171,15.736 87.171,15.736 82.732,15.736 82.732,15.736 82.732,15.736 Z M 91.707,15.861 C 92.213,15.890 92.719,15.918 93.225,15.947 93.225,18.080 93.225,18.080 93.225,18.080 92.719,18.109 92.213,18.138 91.707,18.168 Z M 82.725,15.994 C 86.911,15.994 86.911,15.994 86.911,15.994 86.911,17.318 86.911,17.318 86.911,17.318 82.732,17.318 82.732,17.318 82.732,17.318 82.730,17.022 82.727,16.291 82.725,15.994 Z M 78.913,16.041 C 82.183,16.041 82.183,16.041 82.183,16.041 82.184,16.687 82.185,17.334 82.186,17.980 78.913,17.980 78.913,17.980 78.913,17.980 Z M 78.377,16.043 C 78.653,16.043 78.653,16.043 78.653,16.043 78.653,17.991 78.653,17.991 78.653,17.991 78.377,17.991 78.377,17.991 78.377,17.991 77.430,17.827 76.483,17.665 75.536,17.501 75.536,16.523 75.536,16.523 75.536,16.523 76.483,16.363 77.430,16.203 78.377,16.043 Z M 26.030,20.235 C 25.856,20.238 25.688,20.344 25.612,20.501 25.539,20.647 25.547,20.832 25.636,20.970 25.712,21.091 25.844,21.176 25.987,21.190 26.124,21.207 26.267,21.160 26.368,21.065 26.462,20.978 26.519,20.852 26.520,20.723 26.523,20.594 26.472,20.465 26.380,20.374 26.292,20.287 26.170,20.236 26.046,20.235 26.041,20.235 26.035,20.235 26.030,20.235 Z M 26.031,20.408 C 26.033,20.408 26.034,20.408 26.036,20.408 26.086,20.408 26.136,20.418 26.181,20.441 26.256,20.480 26.315,20.550 26.336,20.631 26.345,20.665 26.349,20.697 26.347,20.732 26.344,20.805 26.312,20.877 26.260,20.929 26.201,20.991 26.114,21.024 26.029,21.020 26.004,21.020 25.978,21.015 25.954,21.008 25.920,20.998 25.890,20.983 25.861,20.963 25.805,20.923 25.764,20.863 25.746,20.797 25.723,20.715 25.736,20.625 25.781,20.553 25.832,20.468 25.928,20.413 26.026,20.409 26.028,20.409 26.030,20.408 26.031,20.408 Z M 27.750,21.372 C 27.577,21.375 27.408,21.480 27.333,21.637 27.259,21.784 27.267,21.969 27.356,22.107 27.432,22.227 27.565,22.312 27.707,22.327 27.844,22.343 27.988,22.297 28.088,22.202 28.183,22.114 28.239,21.988 28.241,21.859 28.243,21.730 28.192,21.601 28.100,21.511 28.013,21.424 27.890,21.373 27.767,21.372 27.761,21.372 27.756,21.372 27.750,21.372 Z M 27.752,21.544 C 27.753,21.544 27.755,21.544 27.756,21.544 27.806,21.544 27.857,21.554 27.901,21.577 27.976,21.616 28.035,21.686 28.057,21.768 28.066,21.801 28.069,21.834 28.068,21.868 28.064,21.942 28.032,22.014 27.980,22.066 27.921,22.127 27.834,22.160 27.749,22.157 27.724,22.156 27.698,22.152 27.674,22.144 27.641,22.134 27.610,22.119 27.582,22.099 27.526,22.059 27.484,21.999 27.467,21.933 27.443,21.851 27.456,21.761 27.501,21.689 27.552,21.604 27.649,21.549 27.747,21.545 27.748,21.545 27.750,21.545 27.752,21.544 Z M 25.814,22.144 C 26.299,22.468 26.785,22.792 27.270,23.115 26.994,23.503 26.741,23.701 26.551,23.675 26.290,23.636 26.119,23.214 26.074,23.050 25.988,22.748 25.901,22.446 25.814,22.144 Z " />
</svg>