<?xml version="1.0" encoding="UTF-8" standalone="no"?>
<!DOCTYPE svg PUBLIC "-//W3C//DTD SVG 20010904//EN" "http://www.w3.org/TR/2001/REC-SVG-20010904/DTD/svg10.dtd"[]>
<svg version="1.1" id="Frosty Editor v1.0.6.3" xmlns="http://www.w3.org/2000/svg" d1p1:xlink="http://www.w3.org/1999/xlink" viewBox="0 0 384 96" xmlns:d1p1="xmlns">
  <path stroke="none" fill="#ffffffff" d="M 323.460,52.700 C 322.271,52.700 321.199,53.416 320.744,54.515 320.289,55.614 320.540,56.878 321.381,57.719 322.222,58.560 323.487,58.811 324.585,58.356 325.684,57.901 326.400,56.829 326.400,55.640 326.400,54.860 326.090,54.112 325.539,53.561 324.988,53.010 324.240,52.700 323.460,52.700 323.460,52.700 323.460,52.700 323.460,52.700 Z M 323.460,60.080 C 321.664,60.080 320.045,58.998 319.358,57.339 318.671,55.680 319.051,53.770 320.320,52.500 321.590,51.231 323.500,50.851 325.159,51.538 326.818,52.225 327.900,53.844 327.900,55.640 327.900,56.818 327.432,57.947 326.600,58.780 325.767,59.612 324.638,60.080 323.460,60.080 323.460,60.080 323.460,60.080 323.460,60.080 Z " />
  <path stroke="none" fill="#ffffffff" d="M 341.330,31.560 C 341.830,31.560 342.330,31.560 342.830,31.560 342.830,36.197 342.830,40.833 342.830,45.470 342.330,45.470 341.830,45.470 341.330,45.470 341.330,40.833 341.330,36.197 341.330,31.560 Z " />
  <path stroke="none" fill="#ffffffff" d="M 348.160,30.780 C 348.660,30.780 349.160,30.780 349.660,30.780 349.660,36.137 349.660,41.493 349.660,46.850 349.160,46.850 348.660,46.850 348.160,46.850 348.160,41.493 348.160,36.137 348.160,30.780 Z " />
  <path stroke="none" fill="#ffffffff" d="M 354.220,30.990 C 354.720,30.990 355.220,30.990 355.720,30.990 355.720,36.653 355.720,42.317 355.720,47.980 355.220,47.980 354.720,47.980 354.220,47.980 354.220,42.317 354.220,36.653 354.220,30.990 Z " />
  <path stroke="none" fill="#ffffffff" d="M 364.850,29.850 C 365.350,29.850 365.850,29.850 366.350,29.850 366.350,35.673 366.350,41.497 366.350,47.320 365.850,47.320 365.350,47.320 364.850,47.320 364.850,41.497 364.850,35.673 364.850,29.850 Z " />
  <path stroke="none" fill="#ffffffff" d="M 358.640,48.100 C 358.441,48.100 358.250,48.021 358.110,47.880 357.969,47.740 357.890,47.549 357.890,47.350 357.890,41.727 357.890,36.103 357.890,30.480 357.890,30.212 358.033,29.964 358.265,29.830 358.497,29.697 358.783,29.697 359.015,29.830 359.247,29.964 359.390,30.212 359.390,30.480 359.390,36.103 359.390,41.727 359.390,47.350 359.390,47.549 359.311,47.740 359.170,47.880 359.030,48.021 358.839,48.100 358.640,48.100 358.640,48.100 358.640,48.100 358.640,48.100 Z " />
  <path stroke="none" fill="#ffffffff" d="M 361.880,47.950 C 361.681,47.950 361.490,47.871 361.350,47.730 361.209,47.590 361.130,47.399 361.130,47.200 361.130,41.573 361.130,35.947 361.130,30.320 361.130,30.052 361.273,29.804 361.505,29.670 361.737,29.537 362.023,29.537 362.255,29.670 362.487,29.804 362.630,30.052 362.630,30.320 362.630,35.947 362.630,41.573 362.630,47.200 362.630,47.399 362.551,47.590 362.410,47.730 362.270,47.871 362.079,47.950 361.880,47.950 361.880,47.950 361.880,47.950 361.880,47.950 Z " />
  <path stroke="none" fill="#ffffffff" d="M 183.000,36.310 C 181.564,36.310 180.400,37.474 180.400,38.910 180.400,40.346 181.564,41.510 183.000,41.510 184.436,41.510 185.600,40.346 185.600,38.910 185.613,38.212 185.345,37.538 184.856,37.039 184.367,36.541 183.698,36.260 183.000,36.260 183.000,36.277 183.000,36.293 183.000,36.310 Z M 183.000,43.000 C 180.736,43.000 178.900,41.164 178.900,38.900 178.900,36.636 180.736,34.800 183.000,34.800 185.264,34.800 187.100,36.636 187.100,38.900 187.100,39.987 186.668,41.030 185.899,41.799 185.130,42.568 184.087,43.000 183.000,43.000 183.000,43.000 183.000,43.000 183.000,43.000 Z " />
  <path stroke="none" fill="#ffffffff" d="M 159.430,33.160 C 159.430,36.957 159.430,40.753 159.430,44.550 161.763,44.063 164.097,43.577 166.430,43.090 171.953,43.090 177.477,43.090 183.000,43.090 184.512,43.091 185.909,42.285 186.665,40.976 187.421,39.667 187.421,38.054 186.665,36.745 185.909,35.436 184.512,34.629 183.000,34.630 177.444,34.630 171.887,34.630 166.330,34.630 164.030,34.140 161.730,33.650 159.430,33.160 Z M 157.930,46.390 C 157.930,41.367 157.930,36.343 157.930,31.320 160.807,31.923 163.683,32.527 166.560,33.130 172.040,33.130 177.520,33.130 183.000,33.130 185.048,33.129 186.940,34.221 187.965,35.994 188.989,37.767 188.989,39.952 187.965,41.725 186.941,43.499 185.048,44.591 183.001,44.590 177.520,44.590 172.040,44.590 166.560,44.590 163.683,45.190 160.807,45.790 157.930,46.390 Z " />
  <path stroke="none" fill="#ffffffff" d="M 155.770,27.400 C 156.270,27.400 156.770,27.400 157.270,27.400 157.270,35.373 157.270,43.347 157.270,51.320 156.770,51.320 156.270,51.320 155.770,51.320 155.770,43.347 155.770,35.373 155.770,27.400 Z " />
  <path stroke="none" fill="#ffffffff" d="M 164.520,44.100 C 165.020,44.100 165.520,44.100 166.020,44.100 166.020,46.363 166.020,48.627 166.020,50.890 165.520,50.890 165.020,50.890 164.520,50.890 164.520,48.627 164.520,46.363 164.520,44.100 Z " />
  <path stroke="none" fill="#ffffffff" d="M 164.520,26.970 C 165.020,26.970 165.520,26.970 166.020,26.970 166.020,29.167 166.020,31.363 166.020,33.560 165.520,33.560 165.020,33.560 164.520,33.560 164.520,31.363 164.520,29.167 164.520,26.970 Z " />
  <path stroke="none" fill="#ffffffff" d="M 155.770,9.680 C 156.270,9.680 156.770,9.680 157.270,9.680 157.270,13.580 157.270,17.480 157.270,21.380 156.770,21.380 156.270,21.380 155.770,21.380 155.770,17.480 155.770,13.580 155.770,9.680 Z " />
  <path stroke="none" fill="#ffffffff" d="M 128.280,9.890 C 132.180,9.890 136.080,9.890 139.980,9.890 139.980,10.390 139.980,10.890 139.980,11.390 136.080,11.390 132.180,11.390 128.280,11.390 128.280,10.890 128.280,10.390 128.280,9.890 Z " />
  <path stroke="none" fill="#ffffffff" d="M 132.110,13.130 C 130.961,13.130 130.030,14.061 130.030,15.210 130.030,16.359 130.961,17.290 132.110,17.290 133.259,17.290 134.190,16.359 134.190,15.210 134.190,14.658 133.971,14.129 133.581,13.739 133.191,13.349 132.662,13.130 132.110,13.130 132.110,13.130 132.110,13.130 132.110,13.130 Z M 132.110,18.780 C 130.133,18.780 128.530,17.177 128.530,15.200 128.530,13.223 130.133,11.620 132.110,11.620 134.087,11.620 135.690,13.223 135.690,15.200 135.690,16.149 135.313,17.060 134.641,17.731 133.970,18.403 133.060,18.780 132.110,18.780 132.110,18.780 132.110,18.780 132.110,18.780 Z " />
  <path stroke="none" fill="#ffffffff" d="M 113.000,24.270 C 115.450,24.270 117.900,24.270 120.350,24.270 120.350,19.310 120.350,14.350 120.350,9.390 117.900,9.390 115.450,9.390 113.000,9.390 113.000,14.350 113.000,19.310 113.000,24.270 Z M 121.800,25.770 C 118.350,25.770 114.900,25.770 111.450,25.770 111.450,19.810 111.450,13.850 111.450,7.890 114.900,7.890 118.350,7.890 121.800,7.890 121.800,13.850 121.800,19.810 121.800,25.770 Z " />
  <path stroke="none" fill="#ffffffff" d="M 149.150,24.270 C 151.353,24.270 153.557,24.270 155.760,24.270 155.760,19.310 155.760,14.350 155.760,9.390 153.557,9.390 151.353,9.390 149.150,9.390 149.150,14.350 149.150,19.310 149.150,24.270 Z M 157.260,25.770 C 154.057,25.770 150.853,25.770 147.650,25.770 147.650,19.810 147.650,13.850 147.650,7.890 150.853,7.890 154.057,7.890 157.260,7.890 157.260,13.850 157.260,19.810 157.260,25.770 Z " />
  <path stroke="none" fill="#ffffffff" d="M 156.570,20.080 C 153.857,20.080 151.143,20.080 148.430,20.080 148.162,20.080 147.915,19.937 147.781,19.705 147.647,19.473 147.647,19.187 147.781,18.955 147.915,18.723 148.162,18.580 148.430,18.580 151.143,18.580 153.857,18.580 156.570,18.580 156.838,18.580 157.086,18.723 157.220,18.955 157.354,19.187 157.354,19.473 157.220,19.705 157.086,19.937 156.838,20.080 156.570,20.080 156.570,20.080 156.570,20.080 156.570,20.080 Z " />
  <path stroke="none" fill="#ffffffff" d="M 121.080,20.080 C 118.103,20.080 115.127,20.080 112.150,20.080 112.418,20.080 112.666,19.937 112.800,19.705 112.934,19.473 112.934,19.187 112.800,18.955 112.666,18.723 112.418,18.580 112.150,18.580 115.127,18.580 118.103,18.580 121.080,18.580 121.348,18.580 121.596,18.723 121.730,18.955 121.864,19.187 121.864,19.473 121.730,19.705 121.596,19.937 121.348,20.080 121.080,20.080 121.080,20.080 121.080,20.080 121.080,20.080 Z " />
  <path stroke="none" fill="#ffffffff" d="M 156.330,34.100 C 141.277,34.100 126.223,34.100 111.170,34.100 110.902,34.100 110.654,33.957 110.521,33.725 110.387,33.493 110.387,33.207 110.521,32.975 110.654,32.743 110.902,32.600 111.170,32.600 126.223,32.600 141.277,32.600 156.330,32.600 156.598,32.600 156.846,32.743 156.980,32.975 157.114,33.207 157.114,33.493 156.980,33.725 156.846,33.957 156.598,34.100 156.330,34.100 156.330,34.100 156.330,34.100 156.330,34.100 Z " />
  <path stroke="none" fill="#ffffffff" d="M 129.310,29.750 C 131.373,29.750 133.437,29.750 135.500,29.750 135.500,28.443 135.500,27.137 135.500,25.830 133.437,25.830 131.373,25.830 129.310,25.830 129.310,27.137 129.310,28.443 129.310,29.750 Z M 137.000,31.250 C 133.937,31.250 130.873,31.250 127.810,31.250 127.810,28.943 127.810,26.637 127.810,24.330 130.873,24.330 133.937,24.330 137.000,24.330 137.000,26.637 137.000,28.943 137.000,31.250 Z " />
  <path stroke="none" fill="#ffffffff" d="M 90.710,56.600 C 90.511,56.600 90.320,56.521 90.180,56.380 90.039,56.240 89.960,56.049 89.960,55.850 89.960,48.050 89.960,40.250 89.960,32.450 89.960,32.182 90.103,31.934 90.335,31.800 90.567,31.667 90.853,31.667 91.085,31.800 91.317,31.934 91.460,32.182 91.460,32.450 91.460,40.250 91.460,48.050 91.460,55.850 91.460,56.049 91.381,56.240 91.240,56.380 91.100,56.521 90.909,56.600 90.710,56.600 90.710,56.600 90.710,56.600 90.710,56.600 Z " />
  <path stroke="none" fill="#ffffffff" d="M 85.650,56.840 C 85.451,56.840 85.260,56.761 85.120,56.620 84.979,56.480 84.900,56.289 84.900,56.090 84.900,47.817 84.900,39.543 84.900,31.270 84.900,31.002 85.043,30.754 85.275,30.620 85.507,30.487 85.793,30.487 86.025,30.620 86.257,30.754 86.400,31.002 86.400,31.270 86.400,39.543 86.400,47.817 86.400,56.090 86.400,56.289 86.321,56.480 86.180,56.620 86.040,56.761 85.849,56.840 85.650,56.840 85.650,56.840 85.650,56.840 85.650,56.840 Z " />
  <path stroke="none" fill="#ffffffff" d="M 147.060,70.680 C 144.567,70.680 142.073,70.680 139.580,70.680 139.580,70.680 139.130,61.140 139.980,60.590 141.240,59.770 150.390,59.930 151.280,59.960 151.387,60.357 151.493,60.753 151.600,61.150 149.596,61.325 147.840,62.562 147.000,64.390 146.239,66.040 146.725,67.998 148.170,69.100 148.800,70.760 147.060,70.680 147.060,70.680 147.060,70.680 147.060,70.680 147.060,70.680 Z " />
  <path stroke="none" fill="#ffffffff" d="M 115.970,52.140 C 129.583,52.140 143.197,52.140 156.810,52.140 156.810,53.140 156.810,54.140 156.810,55.140 143.197,55.140 129.583,55.140 115.970,55.140 115.970,54.140 115.970,53.140 115.970,52.140 Z " />
  <path stroke="none" fill="#ffffffff" d="M 150.130,42.500 C 152.013,42.500 153.897,42.500 155.780,42.500 155.780,40.233 155.780,37.967 155.780,35.700 153.897,35.700 152.013,35.700 150.130,35.700 150.130,37.967 150.130,40.233 150.130,42.500 Z M 157.280,44.000 C 154.397,44.000 151.513,44.000 148.630,44.000 148.630,40.733 148.630,37.467 148.630,34.200 151.513,34.200 154.397,34.200 157.280,34.200 157.280,37.467 157.280,40.733 157.280,44.000 Z " />
  <path stroke="none" fill="#ffffffff" d="M 204.470,32.300 C 203.970,32.300 203.470,32.300 202.970,32.300 202.970,31.153 202.970,30.007 202.970,28.860 193.670,28.860 184.370,28.860 175.070,28.860 175.070,28.360 175.070,27.860 175.070,27.360 184.870,27.360 194.670,27.360 204.470,27.360 204.470,29.007 204.470,30.653 204.470,32.300 204.470,32.300 204.470,32.300 204.470,32.300 Z " />
  <path stroke="none" fill="#ffffffff" d="M 186.860,19.810 C 185.866,19.810 185.060,20.616 185.060,21.610 185.060,22.604 185.866,23.410 186.860,23.410 187.854,23.410 188.660,22.604 188.660,21.610 188.660,21.133 188.470,20.675 188.133,20.337 187.795,20.000 187.337,19.810 186.860,19.810 186.860,19.810 186.860,19.810 186.860,19.810 Z M 186.860,24.910 C 185.038,24.910 183.560,23.433 183.560,21.610 183.560,19.787 185.038,18.310 186.860,18.310 188.683,18.310 190.160,19.787 190.160,21.610 190.160,22.485 189.812,23.325 189.194,23.943 188.575,24.562 187.735,24.910 186.860,24.910 186.860,24.910 186.860,24.910 186.860,24.910 Z " />
  <path stroke="none" fill="#ffffffff" d="M 141.370,31.380 C 143.057,31.380 144.743,31.380 146.430,31.380 146.430,28.163 146.430,24.947 146.430,21.730 138.620,21.730 130.810,21.730 123.000,21.730 123.000,24.947 123.000,28.163 123.000,31.380 123.020,31.380 123.040,31.380 123.060,31.380 123.060,28.937 123.060,26.493 123.060,24.050 128.117,24.050 133.173,24.050 138.230,24.050 138.230,24.877 138.230,25.703 138.230,26.530 139.267,26.530 140.303,26.530 141.340,26.530 141.350,28.147 141.360,29.763 141.370,31.380 Z M 149.430,34.380 C 145.743,34.380 142.057,34.380 138.370,34.380 138.370,32.763 138.370,31.147 138.370,29.530 137.333,29.530 136.297,29.530 135.260,29.530 135.260,28.703 135.260,27.877 135.260,27.050 132.203,27.050 129.147,27.050 126.090,27.050 126.090,29.490 126.090,31.930 126.090,34.370 124.060,34.370 122.030,34.370 120.000,34.370 120.000,29.157 120.000,23.943 120.000,18.730 129.800,18.730 139.600,18.730 149.400,18.730 149.410,23.947 149.420,29.163 149.430,34.380 Z M 207.000,49.450 C 207.000,50.063 207.000,50.677 207.000,51.290 207.273,50.595 207.692,49.968 208.230,49.450 207.820,49.450 207.410,49.450 207.000,49.450 Z M 142.390,71.890 C 146.567,71.890 150.743,71.890 154.920,71.890 157.059,71.772 158.702,69.950 158.600,67.810 158.618,66.472 157.998,65.206 156.930,64.400 156.723,64.250 156.517,64.100 156.310,63.950 156.310,63.207 156.310,62.463 156.310,61.720 151.137,61.720 145.963,61.720 140.790,61.720 140.790,64.720 140.790,67.720 140.790,70.720 141.323,71.110 141.857,71.500 142.390,71.890 Z M 103.290,87.710 C 104.126,87.781 104.957,87.526 105.610,87.000 105.610,86.320 105.680,85.400 105.680,85.390 105.680,85.083 105.680,84.777 105.680,84.470 115.553,79.667 125.427,74.863 135.300,70.060 136.113,70.060 136.927,70.060 137.740,70.060 137.740,67.203 137.740,64.347 137.740,61.490 137.746,59.968 138.978,58.735 140.500,58.730 145.480,58.730 150.460,58.730 155.440,58.730 155.440,55.730 155.440,52.730 155.440,49.730 158.357,49.730 161.273,49.730 164.190,49.730 164.190,49.320 164.190,48.910 164.190,48.500 177.460,48.500 190.730,48.500 204.000,48.500 204.000,47.817 204.000,47.133 204.000,46.450 207.303,46.450 210.607,46.450 213.910,46.450 213.910,46.947 213.910,47.443 213.910,47.940 213.991,48.735 213.751,49.529 213.244,50.147 212.738,50.764 212.005,51.154 211.210,51.230 209.720,51.400 209.590,53.040 209.580,53.110 209.410,55.052 209.340,57.001 209.370,58.950 209.337,59.910 209.728,60.835 210.440,61.480 212.440,63.190 217.110,62.580 218.640,62.370 220.580,62.110 222.130,59.890 222.560,59.060 222.700,58.793 222.840,58.527 222.980,58.260 223.283,58.260 223.587,58.260 223.890,58.260 248.400,58.153 272.910,58.047 297.420,57.940 299.217,58.627 301.013,59.313 302.810,60.000 307.277,60.000 311.743,60.000 316.210,60.000 316.210,59.153 316.210,58.307 316.210,57.460 317.950,57.460 319.690,57.460 321.430,57.460 321.573,57.587 321.717,57.713 321.860,57.840 322.674,58.558 323.825,58.749 324.827,58.333 325.829,57.918 326.507,56.967 326.573,55.884 326.640,54.801 326.084,53.775 325.140,53.240 324.713,53.000 324.287,52.760 323.860,52.520 324.160,51.953 324.460,51.387 324.760,50.820 325.030,49.363 325.300,47.907 325.570,46.450 328.320,46.450 331.070,46.450 333.820,46.450 336.530,45.707 339.240,44.963 341.950,44.220 344.617,44.467 347.283,44.713 349.950,44.960 349.950,45.257 349.950,45.553 349.950,45.850 351.283,45.970 352.617,46.090 353.950,46.210 353.950,45.917 353.950,45.623 353.950,45.330 357.507,45.663 361.063,45.997 364.620,46.330 364.620,44.777 364.620,43.223 364.620,41.670 369.917,42.303 375.213,42.937 380.510,43.570 380.510,40.403 380.510,37.237 380.510,34.070 375.210,34.713 369.910,35.357 364.610,36.000 364.610,34.437 364.610,32.873 364.610,31.310 361.053,31.587 357.497,31.863 353.940,32.140 353.940,31.807 353.940,31.473 353.940,31.140 352.607,31.260 351.273,31.380 349.940,31.500 349.940,31.817 349.940,32.133 349.940,32.450 347.273,32.657 344.607,32.863 341.940,33.070 339.233,32.443 336.527,31.817 333.820,31.190 330.980,31.190 328.140,31.190 325.300,31.190 325.300,26.523 325.300,21.857 325.300,17.190 324.377,17.190 323.453,17.190 322.530,17.190 322.530,17.480 322.530,17.770 322.530,18.060 323.177,18.060 323.823,18.060 324.470,18.060 324.470,21.460 324.470,24.860 324.470,28.260 323.823,28.260 323.177,28.260 322.530,28.260 322.530,29.233 322.530,30.207 322.530,31.180 284.530,31.180 246.530,31.180 208.530,31.180 208.530,29.047 208.530,26.913 208.530,24.780 207.950,24.780 207.370,24.780 206.790,24.780 206.790,24.113 206.790,23.447 206.790,22.780 200.660,22.300 194.530,21.820 188.400,21.340 188.273,21.093 188.147,20.847 188.020,20.600 187.793,20.197 187.379,19.934 186.918,19.897 186.457,19.861 186.007,20.057 185.720,20.420 185.557,20.647 185.393,20.873 185.230,21.100 182.487,20.893 179.743,20.687 177.000,20.480 177.000,23.363 177.000,26.247 177.000,29.130 172.747,29.130 168.493,29.130 164.240,29.130 164.240,28.867 164.240,28.603 164.240,28.340 161.323,28.340 158.407,28.340 155.490,28.340 155.490,25.400 155.490,22.460 155.490,19.520 156.993,19.520 158.497,19.520 160.000,19.520 160.000,16.797 160.000,14.073 160.000,11.350 158.490,11.350 156.980,11.350 155.470,11.350 155.470,10.770 155.470,10.190 155.470,9.610 153.450,9.610 151.430,9.610 149.410,9.610 149.410,10.297 149.410,10.983 149.410,11.670 145.660,11.670 141.910,11.670 138.160,11.670 138.160,10.543 138.160,9.417 138.160,8.290 135.857,8.290 133.553,8.290 131.250,8.290 131.250,9.413 131.250,10.537 131.250,11.660 127.500,11.660 123.750,11.660 120.000,11.660 120.000,10.977 120.000,10.293 120.000,9.610 117.733,9.610 115.467,9.610 113.200,9.610 113.200,10.190 113.200,10.770 113.200,11.350 111.830,11.350 110.460,11.350 109.090,11.350 109.090,14.073 109.090,16.797 109.090,19.520 110.460,19.520 111.830,19.520 113.200,19.520 113.200,24.473 113.200,29.427 113.200,34.380 105.360,34.380 97.520,34.380 89.680,34.380 89.680,33.957 89.680,33.533 89.680,33.110 74.917,33.110 60.153,33.110 45.390,33.110 42.120,33.110 35.700,30.310 28.900,27.340 23.900,25.140 18.170,22.660 16.130,22.570 14.430,22.500 10.040,22.570 7.130,22.570 6.303,22.570 5.477,22.570 4.650,22.570 4.280,22.570 3.950,23.050 3.770,23.500 3.289,24.556 3.399,25.787 4.060,26.740 7.859,30.449 10.321,35.313 11.060,40.570 11.440,43.270 12.300,50.220 13.300,58.260 14.670,69.260 16.200,81.590 16.800,85.530 19.170,85.530 26.250,83.860 29.710,80.530 30.350,79.910 45.370,65.240 48.110,62.870 48.200,62.790 48.290,62.710 48.380,62.630 50.920,60.420 57.660,54.550 70.800,54.550 77.043,54.550 83.287,54.550 89.530,54.550 89.530,53.760 89.530,52.970 89.530,52.180 99.057,52.180 108.583,52.180 118.110,52.180 118.110,56.027 118.110,59.873 118.110,63.720 111.013,66.950 103.917,70.180 96.820,73.410 98.977,78.177 101.133,82.943 103.290,87.710 Z M 103.510,90.710 C 102.384,90.842 101.287,90.292 100.720,89.310 100.360,88.540 93.720,73.900 93.460,73.310 93.253,72.857 93.047,72.403 92.840,71.950 100.267,68.573 107.693,65.197 115.120,61.820 115.120,59.593 115.120,57.367 115.120,55.140 107.590,55.140 100.060,55.140 92.530,55.140 92.530,55.930 92.530,56.720 92.530,57.510 85.283,57.510 78.037,57.510 70.790,57.510 58.790,57.510 52.870,62.660 50.340,64.850 50.247,64.933 50.153,65.017 50.060,65.100 47.920,66.950 37.570,77.000 31.790,82.640 27.300,87.000 18.080,89.000 15.560,88.430 14.894,88.340 14.325,87.907 14.060,87.290 14.040,87.193 14.020,87.097 14.000,87.000 13.550,84.540 11.830,70.780 10.320,58.640 9.320,50.940 8.460,43.640 8.080,40.990 7.445,36.396 5.307,32.141 2.000,28.890 0.270,27.230 0.190,24.360 1.000,22.380 1.506,20.767 2.971,19.646 4.660,19.580 5.480,19.580 6.300,19.580 7.120,19.580 10.230,19.580 14.480,19.520 16.270,19.580 18.870,19.700 24.080,21.970 30.110,24.580 36.140,27.190 42.760,30.100 45.400,30.100 61.173,30.100 76.947,30.100 92.720,30.100 92.720,30.520 92.720,30.940 92.720,31.360 98.560,31.360 104.400,31.360 110.240,31.360 110.240,28.413 110.240,25.467 110.240,22.520 108.870,22.520 107.500,22.520 106.130,22.520 106.130,17.797 106.130,13.073 106.130,8.350 107.500,8.350 108.870,8.350 110.240,8.350 110.240,7.770 110.240,7.190 110.240,6.610 114.493,6.610 118.747,6.610 123.000,6.610 123.000,7.297 123.000,7.983 123.000,8.670 124.740,8.670 126.480,8.670 128.220,8.670 128.220,7.543 128.220,6.417 128.220,5.290 132.523,5.290 136.827,5.290 141.130,5.290 141.130,6.417 141.130,7.543 141.130,8.670 142.887,8.670 144.643,8.670 146.400,8.670 146.400,7.983 146.400,7.297 146.400,6.610 150.420,6.610 154.440,6.610 158.460,6.610 158.460,7.190 158.460,7.770 158.460,8.350 159.973,8.350 161.487,8.350 163.000,8.350 163.000,13.073 163.000,17.797 163.000,22.520 161.490,22.520 159.980,22.520 158.470,22.520 158.470,23.460 158.470,24.400 158.470,25.340 161.387,25.340 164.303,25.340 167.220,25.340 167.220,25.603 167.220,25.867 167.220,26.130 169.480,26.130 171.740,26.130 174.000,26.130 174.000,23.163 174.000,20.197 174.000,17.230 177.313,17.490 180.627,17.750 183.940,18.010 184.824,17.203 186.003,16.797 187.196,16.890 188.390,16.983 189.492,17.566 190.240,18.500 196.773,19.000 203.307,19.500 209.840,20.000 209.840,20.583 209.840,21.167 209.840,21.750 210.420,21.750 211.000,21.750 211.580,21.750 211.580,23.883 211.580,26.017 211.580,28.150 247.580,28.150 283.580,28.150 319.580,28.150 319.580,27.187 319.580,26.223 319.580,25.260 320.227,25.260 320.873,25.260 321.520,25.260 321.520,23.863 321.520,22.467 321.520,21.070 320.873,21.070 320.227,21.070 319.580,21.070 319.580,18.780 319.580,16.490 319.580,14.200 322.503,14.200 325.427,14.200 328.350,14.200 328.350,18.867 328.350,23.533 328.350,28.200 330.350,28.200 332.350,28.200 334.350,28.200 336.967,28.800 339.583,29.400 342.200,30.000 343.780,29.877 345.360,29.753 346.940,29.630 346.940,29.327 346.940,29.023 346.940,28.720 350.273,28.420 353.607,28.120 356.940,27.820 356.940,28.153 356.940,28.487 356.940,28.820 360.497,28.543 364.053,28.267 367.610,27.990 367.610,29.497 367.610,31.003 367.610,32.510 372.907,31.877 378.203,31.243 383.500,30.610 383.500,36.057 383.500,41.503 383.500,46.950 378.203,46.317 372.907,45.683 367.610,45.050 367.610,46.563 367.610,48.077 367.610,49.590 364.053,49.257 360.497,48.923 356.940,48.590 356.940,48.880 356.940,49.170 356.940,49.460 353.607,49.160 350.273,48.860 346.940,48.560 346.940,48.263 346.940,47.967 346.940,47.670 345.367,47.527 343.793,47.383 342.220,47.240 339.553,47.970 336.887,48.700 334.220,49.430 332.167,49.430 330.113,49.430 328.060,49.430 327.937,50.097 327.813,50.763 327.690,51.430 329.846,53.547 330.031,56.959 328.117,59.297 326.202,61.635 322.821,62.126 320.320,60.430 319.947,60.430 319.573,60.430 319.200,60.430 319.200,61.287 319.200,62.143 319.200,63.000 313.533,63.000 307.867,63.000 302.200,63.000 300.410,62.317 298.620,61.633 296.830,60.950 272.790,61.053 248.750,61.157 224.710,61.260 223.850,62.560 221.890,64.980 219.000,65.360 215.520,65.820 211.170,66.070 208.470,63.780 207.103,62.599 206.324,60.877 206.340,59.070 206.303,57.004 206.377,54.938 206.560,52.880 206.599,52.412 206.700,51.951 206.860,51.510 193.653,51.510 180.447,51.510 167.240,51.510 167.240,51.907 167.240,52.303 167.240,52.700 164.323,52.700 161.407,52.700 158.490,52.700 158.490,54.933 158.490,57.167 158.490,59.400 158.760,59.573 159.030,59.747 159.300,59.920 159.300,60.773 159.300,61.627 159.300,62.480 160.771,63.861 161.601,65.792 161.590,67.810 161.691,71.606 158.706,74.770 154.910,74.890 150.427,74.890 145.943,74.890 141.460,74.890 140.563,74.280 139.667,73.670 138.770,73.060 137.847,73.060 136.923,73.060 136.000,73.060 126.880,77.497 117.760,81.933 108.640,86.370 108.640,86.660 108.640,86.980 108.590,87.280 108.460,88.920 106.970,90.200 104.710,90.600 104.314,90.672 103.913,90.709 103.510,90.710 103.510,90.710 103.510,90.710 103.510,90.710 Z " />
  <path stroke="none" fill="#ffffffff" d="M 180.600,28.380 C 179.600,28.380 178.600,28.380 177.600,28.380 177.600,26.657 177.600,24.933 177.600,23.210 188.453,23.210 199.307,23.210 210.160,23.210 210.160,24.210 210.160,25.210 210.160,26.210 200.307,26.210 190.453,26.210 180.600,26.210 180.600,26.933 180.600,27.657 180.600,28.380 180.600,28.380 180.600,28.380 180.600,28.380 Z " />
  <path stroke="none" fill="#ffffffff" d="M 139.900,28.350 C 141.757,28.350 143.613,28.350 145.470,28.350 145.470,29.350 145.470,30.350 145.470,31.350 143.613,31.350 141.757,31.350 139.900,31.350 139.900,30.350 139.900,29.350 139.900,28.350 Z " />
  <path stroke="none" fill="#ffffffff" d="M 121.400,27.560 C 122.387,27.560 123.373,27.560 124.360,27.560 124.360,28.560 124.360,29.560 124.360,30.560 123.373,30.560 122.387,30.560 121.400,30.560 121.400,29.560 121.400,28.560 121.400,27.560 Z " />
  <path stroke="none" fill="#ffffffff" d="M 319.210,49.980 C 320.933,49.980 322.657,49.980 324.380,49.980 324.380,49.803 324.380,49.627 324.380,49.450 322.643,49.450 320.907,49.450 319.170,49.450 319.183,49.627 319.197,49.803 319.210,49.980 Z M 223.100,49.450 C 223.815,49.974 224.454,50.593 225.000,51.290 248.790,51.220 272.580,51.150 296.370,51.080 297.597,50.533 298.823,49.987 300.050,49.440 274.400,49.443 248.750,49.447 223.100,49.450 Z M 223.440,54.300 C 223.293,54.060 223.147,53.820 223.000,53.580 223.000,53.580 221.420,51.090 219.000,51.090 216.260,51.090 210.690,51.140 210.690,51.140 209.413,51.140 208.137,51.140 206.860,51.140 208.527,49.567 210.193,47.993 211.860,46.420 250.457,46.420 289.053,46.420 327.650,46.420 327.490,48.613 327.330,50.807 327.170,53.000 323.503,53.000 319.837,53.000 316.170,53.000 316.170,52.640 316.170,52.280 316.170,51.920 311.403,51.920 306.637,51.920 301.870,51.920 300.253,52.640 298.637,53.360 297.020,54.080 272.493,54.153 247.967,54.227 223.440,54.300 Z " />
  <path stroke="none" fill="#ffffffff" d="M 96.130,41.500 C 100.563,41.500 104.997,41.500 109.430,41.500 109.890,41.093 110.350,40.687 110.810,40.280 110.810,39.280 110.810,38.280 110.810,37.280 110.337,36.853 109.863,36.427 109.390,36.000 104.957,36.000 100.523,36.000 96.090,36.000 96.103,37.833 96.117,39.667 96.130,41.500 Z M 110.000,43.000 C 104.863,43.000 99.727,43.000 94.590,43.000 94.590,40.167 94.590,37.333 94.590,34.500 99.727,34.500 104.863,34.500 110.000,34.500 110.770,35.167 111.540,35.833 112.310,36.500 112.310,37.953 112.310,39.407 112.310,40.860 111.540,41.573 110.770,42.287 110.000,43.000 Z " />
  <path stroke="none" fill="#ffffffff" d="M 96.140,39.500 C 100.980,39.500 105.820,39.500 110.660,39.500 110.660,38.973 110.660,38.447 110.660,37.920 105.813,37.920 100.967,37.920 96.120,37.920 96.127,38.447 96.133,38.973 96.140,39.500 Z M 112.140,41.000 C 106.300,41.000 100.460,41.000 94.620,41.000 94.620,39.473 94.620,37.947 94.620,36.420 100.460,36.420 106.300,36.420 112.140,36.420 112.140,37.947 112.140,39.473 112.140,41.000 Z " />
  <path stroke="none" fill="#ffffffff" d="M 90.970,43.800 C 108.650,43.800 126.330,43.800 144.010,43.800 144.010,44.300 144.010,44.800 144.010,45.300 126.330,45.300 108.650,45.300 90.970,45.300 90.970,44.800 90.970,44.300 90.970,43.800 Z " />
  <path stroke="none" fill="#ffffffff" d="M 130.710,56.360 C 130.519,56.360 130.342,56.462 130.247,56.628 130.151,56.793 130.151,56.997 130.247,57.163 130.342,57.328 130.519,57.430 130.710,57.430 138.290,57.430 145.870,57.430 153.450,57.430 153.259,57.430 153.082,57.328 152.987,57.163 152.891,56.997 152.891,56.793 152.987,56.628 153.082,56.462 153.259,56.360 153.450,56.360 145.870,56.360 138.290,56.360 130.710,56.360 Z M 153.450,58.930 C 145.870,58.930 138.290,58.930 130.710,58.930 131.437,58.930 132.109,58.542 132.472,57.913 132.836,57.283 132.836,56.507 132.472,55.878 132.109,55.248 131.437,54.860 130.710,54.860 138.290,54.860 145.870,54.860 153.450,54.860 154.177,54.860 154.849,55.248 155.212,55.878 155.576,56.507 155.576,57.283 155.212,57.913 154.849,58.542 154.177,58.930 153.450,58.930 153.450,58.930 153.450,58.930 153.450,58.930 Z " />
  <path stroke="none" fill="#ffffffff" d="M 316.490,51.000 C 316.990,51.000 317.490,51.000 317.990,51.000 317.990,54.020 317.990,57.040 317.990,60.060 317.490,60.060 316.990,60.060 316.490,60.060 316.490,57.040 316.490,54.020 316.490,51.000 Z " />
  <path stroke="none" fill="#ffffffff" d="M 317.710,59.840 C 316.837,59.840 315.963,59.840 315.090,59.840 314.360,58.940 313.630,58.040 312.900,57.140 312.900,56.333 312.900,55.527 312.900,54.720 313.630,53.820 314.360,52.920 315.090,52.020 315.857,52.020 316.623,52.020 317.390,52.020 317.390,52.520 317.390,53.020 317.390,53.520 316.860,53.520 316.330,53.520 315.800,53.520 315.333,54.097 314.867,54.673 314.400,55.250 314.400,55.703 314.400,56.157 314.400,56.610 314.867,57.187 315.333,57.763 315.800,58.340 316.437,58.340 317.073,58.340 317.710,58.340 317.710,58.840 317.710,59.340 317.710,59.840 317.710,59.840 317.710,59.840 317.710,59.840 Z " />
  <path stroke="none" fill="#ffffffff" d="M 265.380,51.170 C 267.553,51.170 269.727,51.170 271.900,51.170 271.900,50.613 271.900,50.057 271.900,49.500 269.727,49.500 267.553,49.500 265.380,49.500 265.380,50.057 265.380,50.613 265.380,51.170 Z M 274.900,54.170 C 270.723,54.170 266.547,54.170 262.370,54.170 262.370,51.613 262.370,49.057 262.370,46.500 266.547,46.500 270.723,46.500 274.900,46.500 274.900,49.057 274.900,51.613 274.900,54.170 Z " />
  <path stroke="none" fill="#ffffffff" d="M 221.300,33.170 C 213.430,33.170 205.560,33.170 197.690,33.170 194.834,33.414 192.640,35.803 192.640,38.670 192.640,41.537 194.834,43.926 197.690,44.170 205.577,44.170 213.463,44.170 221.350,44.170 229.233,43.550 237.117,42.930 245.000,42.310 271.243,42.310 297.487,42.310 323.730,42.310 329.180,42.310 334.730,40.190 334.730,38.660 334.730,37.130 329.200,35.000 323.760,35.000 297.530,35.000 271.300,35.000 245.070,35.000 237.147,34.390 229.223,33.780 221.300,33.170 Z M 197.690,45.710 C 195.189,45.710 192.878,44.376 191.628,42.210 190.377,40.044 190.377,37.376 191.628,35.210 192.878,33.044 195.189,31.710 197.690,31.710 205.577,31.710 213.463,31.710 221.350,31.710 229.277,32.323 237.203,32.937 245.130,33.550 271.340,33.550 297.550,33.550 323.760,33.550 328.970,33.550 336.220,35.550 336.220,38.690 336.220,41.830 328.950,43.840 323.740,43.840 297.517,43.840 271.293,43.840 245.070,43.840 237.183,44.473 229.297,45.107 221.410,45.740 213.503,45.730 205.597,45.720 197.690,45.710 Z " />
</svg>