<?xml version="1.0" encoding="UTF-8" standalone="no"?>
<!DOCTYPE svg PUBLIC "-//W3C//DTD SVG 20010904//EN" "http://www.w3.org/TR/2001/REC-SVG-20010904/DTD/svg10.dtd"[]>
<svg version="1.1" id="Frosty Editor v1.0.6.3" xmlns="http://www.w3.org/2000/svg" d1p1:xlink="http://www.w3.org/1999/xlink" viewBox="0 0 384 96" xmlns:d1p1="xmlns">
  <path stroke="none" fill="#ffffffff" d="M 378.680,43.930 C 376.320,43.930 373.960,43.930 371.600,43.930 371.600,41.527 371.600,39.123 371.600,36.720 373.963,36.720 376.327,36.720 378.690,36.720 378.687,39.123 378.683,41.527 378.680,43.930 Z M 369.060,41.660 C 357.840,41.660 346.620,41.660 335.400,41.660 335.400,40.773 335.400,39.887 335.400,39.000 346.623,39.000 357.847,39.000 369.070,39.000 369.067,39.887 369.063,40.773 369.060,41.660 Z M 333.340,42.830 C 321.273,42.830 309.207,42.830 297.140,42.830 297.140,41.163 297.140,39.497 297.140,37.830 309.207,37.830 321.273,37.830 333.340,37.830 333.340,39.497 333.340,41.163 333.340,42.830 Z M 295.140,44.000 C 281.633,44.000 268.127,44.000 254.620,44.000 254.620,41.550 254.620,39.100 254.620,36.650 268.130,36.650 281.640,36.650 295.150,36.650 295.147,39.100 295.143,41.550 295.140,44.000 Z M 253.500,52.330 C 253.500,54.790 253.500,57.250 253.500,59.710 252.800,59.710 252.100,59.710 251.400,59.710 251.400,57.517 251.400,55.323 251.400,53.130 242.357,53.130 233.313,53.130 224.270,53.130 224.270,55.283 224.270,57.437 224.270,59.590 222.740,59.590 221.210,59.590 219.680,59.590 219.680,58.307 219.680,57.023 219.680,55.740 214.013,55.740 208.347,55.740 202.680,55.740 202.680,57.020 202.680,58.300 202.680,59.580 201.097,59.580 199.513,59.580 197.930,59.580 197.367,59.017 196.803,58.453 196.240,57.890 185.707,57.890 175.173,57.890 164.640,57.890 164.183,58.493 163.727,59.097 163.270,59.700 155.367,59.700 147.463,59.700 139.560,59.700 141.002,58.595 141.867,56.896 141.910,55.080 141.905,54.086 141.632,53.112 141.120,52.260 146.700,51.720 146.830,47.880 146.830,47.830 146.830,47.387 146.830,46.943 146.830,46.500 151.220,46.500 155.610,46.500 160.000,46.500 160.000,46.770 160.000,47.040 160.000,47.310 163.070,47.310 166.140,47.310 169.210,47.310 169.210,46.783 169.210,46.257 169.210,45.730 179.140,45.730 189.070,45.730 199.000,45.730 199.000,46.397 199.000,47.063 199.000,47.730 216.580,47.730 234.160,47.730 251.740,47.730 251.493,49.263 251.247,50.797 251.000,52.330 251.833,52.330 252.667,52.330 253.500,52.330 Z M 250.380,59.700 C 250.380,59.700 250.380,59.700 250.380,59.700 250.380,60.827 250.380,61.953 250.380,63.080 242.010,63.080 233.640,63.080 225.270,63.080 225.270,61.913 225.270,60.747 225.270,59.580 225.270,59.580 225.270,59.580 225.270,59.580 225.270,57.763 225.270,55.947 225.270,54.130 233.647,54.130 242.023,54.130 250.400,54.130 250.393,55.987 250.387,57.843 250.380,59.700 Z M 218.660,62.200 C 218.193,62.200 217.727,62.200 217.260,62.200 217.260,60.800 217.260,59.400 217.260,58.000 213.220,58.000 209.180,58.000 205.140,58.000 205.140,59.397 205.140,60.793 205.140,62.190 204.653,62.190 204.167,62.190 203.680,62.190 203.680,60.373 203.680,58.557 203.680,56.740 208.680,56.740 213.680,56.740 218.680,56.740 218.673,58.560 218.667,60.380 218.660,62.200 Z M 216.260,62.200 C 212.887,62.200 209.513,62.200 206.140,62.200 206.140,61.133 206.140,60.067 206.140,59.000 209.517,59.000 212.893,59.000 216.270,59.000 216.267,60.067 216.263,61.133 216.260,62.200 Z M 134.360,59.700 C 134.307,59.700 134.253,59.700 134.200,59.700 134.200,59.700 134.200,59.700 134.200,59.700 133.980,59.700 133.760,59.700 133.540,59.700 130.030,59.700 127.180,57.610 127.180,55.030 127.180,53.170 128.680,51.560 130.830,50.810 129.702,53.625 130.609,56.847 133.040,58.660 133.473,58.153 133.907,57.647 134.340,57.140 130.790,54.080 132.960,50.860 133.340,50.360 133.410,50.360 133.480,50.360 133.550,50.360 137.060,50.360 139.910,52.450 139.910,55.030 139.910,57.450 137.490,59.410 134.370,59.710 134.367,59.707 134.363,59.703 134.360,59.700 Z M 125.810,57.610 C 124.006,57.716 122.342,58.613 121.260,60.060 116.873,66.647 112.487,73.233 108.100,79.820 108.067,79.880 108.033,79.940 108.000,80.000 107.447,81.509 106.608,82.898 105.530,84.090 104.990,84.083 104.468,83.893 104.050,83.550 103.321,82.733 103.004,81.629 103.190,80.550 103.270,79.867 103.350,79.183 103.430,78.500 103.428,77.643 103.024,76.836 102.340,76.320 102.340,76.320 102.340,76.320 102.340,76.320 101.651,75.777 100.679,75.777 99.990,76.320 99.440,76.690 98.890,77.060 98.340,77.430 97.458,78.104 96.315,78.336 95.240,78.060 94.582,77.753 94.079,77.189 93.850,76.500 94.420,74.337 95.342,72.283 96.580,70.420 99.580,66.227 102.580,62.033 105.580,57.840 105.610,57.790 105.640,57.740 105.670,57.690 106.670,55.560 106.900,53.690 106.270,52.230 106.128,51.897 105.943,51.585 105.720,51.300 106.173,51.132 106.583,50.866 106.920,50.520 107.701,49.585 108.113,48.397 108.080,47.180 108.080,46.080 108.080,44.980 108.080,43.880 108.623,44.103 109.167,44.327 109.710,44.550 109.710,45.217 109.710,45.883 109.710,46.550 118.913,46.550 128.117,46.550 137.320,46.550 137.320,45.310 137.320,44.070 137.320,42.830 140.160,42.830 143.000,42.830 145.840,42.830 145.840,44.497 145.840,46.163 145.840,47.830 145.840,47.970 145.660,51.070 140.440,51.320 138.665,49.417 136.161,48.365 133.560,48.430 128.950,48.430 125.200,51.430 125.200,55.100 125.202,55.977 125.415,56.842 125.820,57.620 125.817,57.617 125.813,57.613 125.810,57.610 Z M 97.430,84.610 C 96.357,83.510 95.283,82.410 94.210,81.310 93.657,80.322 93.440,79.182 93.590,78.060 94.170,78.802 95.058,79.237 96.000,79.240 97.012,79.188 97.993,78.867 98.840,78.310 99.413,77.923 99.987,77.537 100.560,77.150 100.871,76.885 101.318,76.857 101.660,77.080 101.660,77.080 101.660,77.080 101.660,77.080 102.113,77.381 102.390,77.886 102.400,78.430 102.320,79.097 102.240,79.763 102.160,80.430 101.932,81.834 102.376,83.263 103.360,84.290 103.707,84.593 104.117,84.815 104.560,84.940 101.200,87.330 97.860,84.950 97.440,84.630 97.437,84.623 97.433,84.617 97.430,84.610 Z M 103.830,49.910 C 103.780,49.893 103.730,49.877 103.680,49.860 101.137,49.860 98.593,49.860 96.050,49.860 91.260,50.490 87.930,54.990 87.750,55.230 87.690,55.317 87.630,55.403 87.570,55.490 87.570,51.290 87.570,47.090 87.570,42.890 91.570,42.140 94.390,38.620 95.160,37.550 95.190,37.550 95.220,37.550 95.250,37.550 95.667,36.827 96.083,36.103 96.500,35.380 99.667,35.380 102.833,35.380 106.000,35.380 106.360,35.920 106.720,36.460 107.080,37.000 107.080,40.410 107.080,43.820 107.080,47.230 107.107,48.185 106.791,49.118 106.190,49.860 105.838,50.208 105.388,50.438 104.900,50.520 104.575,50.271 104.214,50.072 103.830,49.930 103.830,49.923 103.830,49.917 103.830,49.910 Z M 86.580,42.000 C 86.580,46.963 86.580,51.927 86.580,56.890 84.080,59.960 82.100,59.800 82.090,59.800 69.343,59.800 56.597,59.800 43.850,59.800 43.850,51.047 43.850,42.293 43.850,33.540 44.667,33.540 45.483,33.540 46.300,33.540 46.300,36.387 46.300,39.233 46.300,42.080 46.633,42.080 46.967,42.080 47.300,42.080 47.300,39.233 47.300,36.387 47.300,33.540 48.100,33.540 48.900,33.540 49.700,33.540 49.700,36.387 49.700,39.233 49.700,42.080 50.033,42.080 50.367,42.080 50.700,42.080 50.700,39.233 50.700,36.387 50.700,33.540 51.503,33.540 52.307,33.540 53.110,33.540 53.110,36.387 53.110,39.233 53.110,42.080 53.443,42.080 53.777,42.080 54.110,42.080 54.110,39.233 54.110,36.387 54.110,33.540 54.803,33.540 55.497,33.540 56.190,33.540 56.190,34.873 56.190,36.207 56.190,37.540 68.763,37.540 81.337,37.540 93.910,37.540 92.800,38.920 90.300,41.530 87.000,42.000 86.860,42.000 86.720,42.000 86.580,42.000 Z M 108.080,35.350 C 107.979,35.652 107.909,35.964 107.870,36.280 107.657,35.970 107.443,35.660 107.230,35.350 107.513,35.350 107.797,35.350 108.080,35.350 Z M 108.080,42.000 C 114.350,42.000 120.620,42.000 126.890,42.000 126.890,39.793 126.890,37.587 126.890,35.380 130.030,35.380 133.170,35.380 136.310,35.380 136.310,38.753 136.310,42.127 136.310,45.500 127.773,45.500 119.237,45.500 110.700,45.500 110.700,44.957 110.700,44.413 110.700,43.870 109.827,43.510 108.953,43.150 108.080,42.790 108.080,42.527 108.080,42.263 108.080,42.000 Z M 108.080,38.540 C 108.454,39.560 109.158,40.426 110.080,41.000 109.413,41.000 108.747,41.000 108.080,41.000 108.080,40.180 108.080,39.360 108.080,38.540 Z M 112.640,34.000 C 113.806,33.996 114.859,34.695 115.308,35.771 115.757,36.847 115.513,38.087 114.690,38.913 113.867,39.739 112.628,39.987 111.550,39.542 110.473,39.097 109.770,38.046 109.770,36.880 109.770,35.293 111.053,34.006 112.640,34.000 112.640,34.000 112.640,34.000 112.640,34.000 Z M 117.500,36.900 C 117.492,36.382 117.401,35.869 117.230,35.380 120.110,35.380 122.990,35.380 125.870,35.380 125.870,37.253 125.870,39.127 125.870,41.000 122.317,41.000 118.763,41.000 115.210,41.000 116.635,40.122 117.507,38.573 117.520,36.900 117.513,36.900 117.507,36.900 117.500,36.900 Z M 137.300,35.420 C 142.967,35.420 148.633,35.420 154.300,35.420 154.300,38.780 154.300,42.140 154.300,45.500 151.793,45.500 149.287,45.500 146.780,45.500 146.780,44.277 146.780,43.053 146.780,41.830 143.607,41.830 140.433,41.830 137.260,41.830 137.273,39.693 137.287,37.557 137.300,35.420 Z M 155.760,35.420 C 157.047,35.420 158.333,35.420 159.620,35.420 159.620,38.780 159.620,42.140 159.620,45.500 158.333,45.500 157.047,45.500 155.760,45.500 155.760,42.140 155.760,38.780 155.760,35.420 Z M 161.020,34.610 C 163.423,34.610 165.827,34.610 168.230,34.610 168.230,38.510 168.230,42.410 168.230,46.310 165.820,46.310 163.410,46.310 161.000,46.310 161.007,42.410 161.013,38.510 161.020,34.610 Z M 160.880,22.610 C 160.880,20.997 160.880,19.383 160.880,17.770 161.547,17.770 162.213,17.770 162.880,17.770 162.880,19.383 162.880,20.997 162.880,22.610 162.213,22.610 161.547,22.610 160.880,22.610 Z M 163.880,15.380 C 164.637,15.380 165.393,15.380 166.150,15.380 166.150,20.463 166.150,25.547 166.150,30.630 165.393,30.630 164.637,30.630 163.880,30.630 163.880,25.547 163.880,20.463 163.880,15.380 Z M 167.150,17.770 C 169.307,17.770 171.463,17.770 173.620,17.770 173.620,19.383 173.620,20.997 173.620,22.610 171.463,22.610 169.307,22.610 167.150,22.610 167.150,20.997 167.150,19.383 167.150,17.770 Z M 174.620,15.380 C 175.383,15.380 176.147,15.380 176.910,15.380 176.910,20.463 176.910,25.547 176.910,30.630 176.147,30.630 175.383,30.630 174.620,30.630 174.620,25.547 174.620,20.463 174.620,15.380 Z M 177.910,17.770 C 179.697,17.770 181.483,17.770 183.270,17.770 183.270,19.383 183.270,20.997 183.270,22.610 181.483,22.610 179.697,22.610 177.910,22.610 177.910,20.997 177.910,19.383 177.910,17.770 Z M 184.270,17.000 C 186.847,17.000 189.423,17.000 192.000,17.000 192.000,19.130 192.000,21.260 192.000,23.390 189.423,23.390 186.847,23.390 184.270,23.390 184.270,21.260 184.270,19.130 184.270,17.000 Z M 193.000,17.000 C 193.000,17.000 193.000,17.000 193.000,17.000 193.000,16.083 193.000,15.167 193.000,14.250 200.333,14.250 207.667,14.250 215.000,14.250 215.000,15.167 215.000,16.083 215.000,17.000 215.000,17.000 215.000,17.000 215.000,17.000 215.000,19.130 215.000,21.260 215.000,23.390 215.000,23.390 215.000,23.390 215.000,23.390 215.000,25.180 215.000,26.970 215.000,28.760 207.667,28.760 200.333,28.760 193.000,28.760 193.000,26.967 193.000,25.173 193.000,23.380 193.000,23.380 193.000,23.380 193.000,23.380 193.000,21.253 193.000,19.127 193.000,17.000 Z M 216.000,17.000 C 217.250,17.000 218.500,17.000 219.750,17.000 219.750,19.130 219.750,21.260 219.750,23.390 218.500,23.390 217.250,23.390 216.000,23.390 216.000,21.260 216.000,19.130 216.000,17.000 Z M 220.760,17.770 C 225.580,17.770 230.400,17.770 235.220,17.770 235.220,19.383 235.220,20.997 235.220,22.610 230.407,22.610 225.593,22.610 220.780,22.610 220.773,20.997 220.767,19.383 220.760,17.770 Z M 191.000,25.380 C 191.000,26.280 191.000,27.180 191.000,28.080 187.000,28.080 183.000,28.080 179.000,28.080 179.000,26.923 179.000,25.767 179.000,24.610 180.080,24.610 181.160,24.610 182.240,24.610 182.240,24.867 182.240,25.123 182.240,25.380 185.160,25.380 188.080,25.380 191.000,25.380 Z M 168.250,28.090 C 168.250,26.930 168.250,25.770 168.250,24.610 169.667,24.610 171.083,24.610 172.500,24.610 172.500,25.770 172.500,26.930 172.500,28.090 171.083,28.090 169.667,28.090 168.250,28.090 Z M 199.000,36.190 C 199.000,39.037 199.000,41.883 199.000,44.730 189.083,44.730 179.167,44.730 169.250,44.730 169.250,41.883 169.250,39.037 169.250,36.190 179.167,36.190 189.083,36.190 199.000,36.190 Z M 226.670,30.050 C 227.050,30.403 227.430,30.757 227.810,31.110 227.810,31.797 227.810,32.483 227.810,33.170 218.207,33.170 208.603,33.170 199.000,33.170 199.000,33.837 199.000,34.503 199.000,35.170 189.083,35.170 179.167,35.170 169.250,35.170 169.250,34.647 169.250,34.123 169.250,33.600 166.880,33.600 164.510,33.600 162.140,33.600 162.140,33.267 162.140,32.933 162.140,32.600 164.183,32.600 166.227,32.600 168.270,32.600 168.270,31.760 168.270,30.920 168.270,30.080 169.687,30.080 171.103,30.080 172.520,30.080 172.520,30.927 172.520,31.773 172.520,32.620 174.680,32.620 176.840,32.620 179.000,32.620 179.000,31.773 179.000,30.927 179.000,30.080 183.000,30.080 187.000,30.080 191.000,30.080 191.000,30.303 191.000,30.527 191.000,30.750 199.667,30.750 208.333,30.750 217.000,30.750 217.000,30.527 217.000,30.303 217.000,30.080 220.223,30.070 223.447,30.060 226.670,30.050 Z M 252.560,34.250 C 252.560,38.380 252.560,42.510 252.560,46.640 252.533,46.663 252.507,46.687 252.480,46.710 234.987,46.710 217.493,46.710 200.000,46.710 200.000,42.543 200.000,38.377 200.000,34.210 209.250,34.210 218.500,34.210 227.750,34.210 227.750,34.237 227.750,34.263 227.750,34.290 236.020,34.277 244.290,34.263 252.560,34.250 Z M 41.890,43.170 C 40.927,43.170 39.963,43.170 39.000,43.170 39.000,41.407 39.000,39.643 39.000,37.880 39.943,37.880 40.887,37.880 41.830,37.880 41.850,39.643 41.870,41.407 41.890,43.170 Z M 41.890,50.480 C 40.260,50.480 38.630,50.480 37.000,50.480 37.000,51.253 37.000,52.027 37.000,52.800 34.437,52.800 31.873,52.800 29.310,52.800 25.610,56.500 21.910,60.200 18.210,63.900 16.417,63.900 14.623,63.900 12.830,63.900 12.830,63.013 12.830,62.127 12.830,61.240 13.413,61.240 13.997,61.240 14.580,61.240 14.580,55.677 14.580,50.113 14.580,44.550 13.997,44.550 13.413,44.550 12.830,44.550 12.830,44.187 12.830,43.823 12.830,43.460 20.887,43.460 28.943,43.460 37.000,43.460 37.000,44.040 37.000,44.620 37.000,45.200 38.610,45.200 40.220,45.200 41.830,45.200 41.850,46.960 41.870,48.720 41.890,50.480 Z M 41.890,57.800 C 40.927,57.800 39.963,57.800 39.000,57.800 39.000,56.037 39.000,54.273 39.000,52.510 39.943,52.510 40.887,52.510 41.830,52.510 41.850,54.273 41.870,56.037 41.890,57.800 Z M 36.890,56.800 C 34.927,56.800 32.963,56.800 31.000,56.800 27.290,60.500 23.580,64.200 19.870,67.900 16.203,67.900 12.537,67.900 8.870,67.900 8.870,65.320 8.870,62.740 8.870,60.160 9.537,60.160 10.203,60.160 10.870,60.160 10.870,62.073 10.870,63.987 10.870,65.900 13.580,65.900 16.290,65.900 19.000,65.900 22.713,62.200 26.427,58.500 30.140,54.800 32.393,54.800 34.647,54.800 36.900,54.800 36.897,55.467 36.893,56.133 36.890,56.800 Z M 7.080,46.630 C 8.913,46.630 10.747,46.630 12.580,46.630 12.580,50.807 12.580,54.983 12.580,59.160 10.747,59.160 8.913,59.160 7.080,59.160 7.080,54.983 7.080,50.807 7.080,46.630 Z M 8.830,39.460 C 18.143,39.460 27.457,39.460 36.770,39.460 36.770,40.127 36.770,40.793 36.770,41.460 28.123,41.460 19.477,41.460 10.830,41.460 10.830,42.853 10.830,44.247 10.830,45.640 10.163,45.640 9.497,45.640 8.830,45.640 8.830,43.580 8.830,41.520 8.830,39.460 Z M 158.890,23.090 C 157.140,23.563 155.390,24.037 153.640,24.510 150.350,24.510 147.060,24.510 143.770,24.510 143.770,21.633 143.770,18.757 143.770,15.880 147.060,15.880 150.350,15.880 153.640,15.880 155.390,16.353 157.140,16.827 158.890,17.300 158.890,19.230 158.890,21.160 158.890,23.090 Z M 237.470,18.880 C 238.747,18.880 240.023,18.880 241.300,18.880 241.300,19.797 241.300,20.713 241.300,21.630 240.023,21.630 238.747,21.630 237.470,21.630 237.470,20.713 237.470,19.797 237.470,18.880 Z M 369.600,34.720 C 369.600,35.480 369.600,36.240 369.600,37.000 358.200,37.000 346.800,37.000 335.400,37.000 335.400,36.607 335.400,36.213 335.400,35.820 322.647,35.820 309.893,35.820 297.140,35.820 297.140,35.430 297.140,35.040 297.140,34.650 282.933,34.650 268.727,34.650 254.520,34.650 254.520,33.863 254.520,33.077 254.520,32.290 246.270,32.290 238.020,32.290 229.770,32.290 229.770,31.623 229.770,30.957 229.770,30.290 228.983,29.560 228.197,28.830 227.410,28.100 223.940,28.100 220.470,28.100 217.000,28.100 217.000,27.200 217.000,26.300 217.000,25.400 218.587,25.400 220.173,25.400 221.760,25.400 221.760,25.143 221.760,24.887 221.760,24.630 226.987,24.630 232.213,24.630 237.440,24.630 237.440,24.297 237.440,23.963 237.440,23.630 239.383,23.630 241.327,23.630 243.270,23.630 243.270,21.380 243.270,19.130 243.270,16.880 241.327,16.880 239.383,16.880 237.440,16.880 237.440,16.510 237.440,16.140 237.440,15.770 232.220,15.770 227.000,15.770 221.780,15.770 221.780,15.513 221.780,15.257 221.780,15.000 220.187,15.000 218.593,15.000 217.000,15.000 217.000,14.083 217.000,13.167 217.000,12.250 208.333,12.250 199.667,12.250 191.000,12.250 191.000,13.167 191.000,14.083 191.000,15.000 188.080,15.000 185.160,15.000 182.240,15.000 182.240,15.257 182.240,15.513 182.240,15.770 181.160,15.770 180.080,15.770 179.000,15.770 179.000,14.973 179.000,14.177 179.000,13.380 176.833,13.380 174.667,13.380 172.500,13.380 172.500,14.177 172.500,14.973 172.500,15.770 171.083,15.770 169.667,15.770 168.250,15.770 168.250,14.973 168.250,14.177 168.250,13.380 166.083,13.380 163.917,13.380 161.750,13.380 161.750,14.177 161.750,14.973 161.750,15.770 161.457,15.770 161.163,15.770 160.870,15.770 158.580,15.150 156.290,14.530 154.000,13.910 149.913,13.910 145.827,13.910 141.740,13.910 141.740,18.107 141.740,22.303 141.740,26.500 145.793,26.500 149.847,26.500 153.900,26.500 156.233,25.873 158.567,25.247 160.900,24.620 161.193,24.620 161.487,24.620 161.780,24.620 161.780,25.780 161.780,26.940 161.780,28.100 161.240,28.100 160.700,28.100 160.160,28.100 160.160,29.863 160.160,31.627 160.160,33.390 145.440,33.390 130.720,33.390 116.000,33.390 114.128,31.583 111.162,31.583 109.290,33.390 104.647,33.390 100.003,33.390 95.360,33.390 94.943,34.113 94.527,34.837 94.110,35.560 82.137,35.560 70.163,35.560 58.190,35.560 58.190,34.227 58.190,32.893 58.190,31.560 52.743,31.560 47.297,31.560 41.850,31.560 41.850,33.007 41.850,34.453 41.850,35.900 40.233,35.900 38.617,35.900 37.000,35.900 37.000,36.427 37.000,36.953 37.000,37.480 26.943,37.480 16.887,37.480 6.830,37.480 6.830,39.843 6.830,42.207 6.830,44.570 6.247,44.570 5.663,44.570 5.080,44.570 5.080,50.127 5.080,55.683 5.080,61.240 5.663,61.240 6.247,61.240 6.830,61.240 6.830,64.127 6.830,67.013 6.830,69.900 11.453,69.900 16.077,69.900 20.700,69.900 24.397,66.200 28.093,62.500 31.790,58.800 33.527,58.800 35.263,58.800 37.000,58.800 37.000,59.133 37.000,59.467 37.000,59.800 38.610,59.800 40.220,59.800 41.830,59.800 41.830,60.467 41.830,61.133 41.830,61.800 46.017,61.800 50.203,61.800 54.390,61.800 54.390,63.107 54.390,64.413 54.390,65.720 55.057,65.720 55.723,65.720 56.390,65.720 56.390,64.410 56.390,63.100 56.390,61.790 64.883,61.790 73.377,61.790 81.870,61.790 82.560,61.860 85.870,61.880 89.400,56.380 89.400,56.380 92.330,52.380 96.240,51.870 98.593,51.870 100.947,51.870 103.300,51.870 103.805,52.118 104.203,52.541 104.420,53.060 104.749,54.319 104.554,55.657 103.880,56.770 100.880,60.947 97.880,65.123 94.880,69.300 94.650,69.640 89.290,77.580 92.540,82.500 93.690,83.687 94.840,84.873 95.990,86.060 96.020,86.087 96.050,86.113 96.080,86.140 97.607,87.331 99.484,87.985 101.420,88.000 103.152,87.997 104.830,87.397 106.170,86.300 107.805,84.790 109.062,82.916 109.840,80.830 114.227,74.273 118.613,67.717 123.000,61.160 123.000,61.080 124.230,59.390 127.470,59.600 129.193,61.022 131.366,61.785 133.600,61.750 133.910,61.750 134.220,61.750 134.520,61.750 144.450,61.750 154.380,61.750 164.310,61.750 164.770,61.147 165.230,60.543 165.690,59.940 175.617,59.940 185.543,59.940 195.470,59.940 196.033,60.503 196.597,61.067 197.160,61.630 198.673,61.630 200.187,61.630 201.700,61.630 201.700,62.507 201.700,63.383 201.700,64.260 208.117,64.260 214.533,64.260 220.950,64.260 220.950,63.367 220.950,62.473 220.950,61.580 221.743,61.580 222.537,61.580 223.330,61.580 223.330,62.747 223.330,63.913 223.330,65.080 233.040,65.080 242.750,65.080 252.460,65.080 252.460,63.957 252.460,62.833 252.460,61.710 253.503,61.710 254.547,61.710 255.590,61.710 255.590,57.917 255.590,54.123 255.590,50.330 254.863,50.330 254.137,50.330 253.410,50.330 253.530,49.643 253.650,48.957 253.770,48.270 254.043,48.023 254.317,47.777 254.590,47.530 254.590,47.020 254.590,46.510 254.590,46.000 268.800,46.000 283.010,46.000 297.220,46.000 297.220,45.617 297.220,45.233 297.220,44.850 309.947,44.850 322.673,44.850 335.400,44.850 335.400,44.460 335.400,44.070 335.400,43.680 346.800,43.680 358.200,43.680 369.600,43.680 369.600,44.437 369.600,45.193 369.600,45.950 373.297,45.950 376.993,45.950 380.690,45.950 380.690,42.207 380.690,38.463 380.690,34.720 376.993,34.720 373.297,34.720 369.600,34.720 Z " />
  <path stroke="none" fill="#ffffffff" d="M 49.580,47.670 C 60.977,47.670 72.373,47.670 83.770,47.670 83.770,48.840 83.770,50.010 83.770,51.180 72.373,51.180 60.977,51.180 49.580,51.180 49.580,50.010 49.580,48.840 49.580,47.670 Z M 48.580,52.180 C 60.643,52.180 72.707,52.180 84.770,52.180 84.770,50.343 84.770,48.507 84.770,46.670 72.707,46.670 60.643,46.670 48.580,46.670 48.580,48.507 48.580,50.343 48.580,52.180 Z " />
  <path stroke="none" fill="#ffffffff" d="M 138.750,45.080 C 138.904,44.681 139.342,44.471 139.750,44.600 139.787,44.600 139.823,44.600 139.860,44.600 139.937,44.636 140.008,44.683 140.070,44.740 140.137,44.805 140.194,44.879 140.240,44.960 140.267,45.003 140.293,45.047 140.320,45.090 140.457,45.482 140.276,45.913 139.900,46.090 139.900,46.090 139.900,46.090 139.900,46.090 139.840,46.090 139.780,46.090 139.720,46.090 139.690,46.090 139.660,46.090 139.630,46.090 139.511,46.100 139.392,46.083 139.280,46.040 138.855,45.869 138.646,45.388 138.810,44.960 138.790,45.000 138.770,45.040 138.750,45.080 Z M 141.230,46.080 C 141.297,45.907 141.338,45.725 141.350,45.540 142.140,45.853 142.930,46.167 143.720,46.480 143.977,46.582 144.102,46.873 144.000,47.130 143.898,47.387 143.607,47.512 143.350,47.410 142.567,47.093 141.783,46.777 141.000,46.460 141.094,46.337 141.171,46.203 141.230,46.060 141.230,46.067 141.230,46.073 141.230,46.080 Z M 138.850,47.080 C 139.020,47.146 139.198,47.187 139.380,47.200 139.430,47.200 139.480,47.200 139.530,47.200 139.672,47.196 139.813,47.176 139.950,47.140 139.967,47.140 139.983,47.140 140.000,47.140 141.000,47.533 142.000,47.927 143.000,48.320 143.175,48.391 143.361,48.429 143.550,48.430 144.267,48.428 144.882,47.919 145.019,47.215 145.155,46.511 144.774,45.809 144.110,45.540 143.073,45.133 142.037,44.727 141.000,44.320 140.896,44.176 140.771,44.048 140.630,43.940 140.630,43.940 140.630,43.940 140.630,43.940 140.504,43.843 140.367,43.762 140.220,43.700 140.220,43.700 140.220,43.700 140.220,43.700 140.143,43.677 140.067,43.653 139.990,43.630 139.061,43.404 138.114,43.932 137.818,44.842 137.521,45.751 137.976,46.735 138.860,47.100 138.857,47.093 138.853,47.087 138.850,47.080 Z " />
  <path stroke="none" fill="#ffffffff" d="M 207.640,22.630 C 205.057,22.630 202.473,22.630 199.890,22.630 199.890,21.297 199.890,19.963 199.890,18.630 202.473,18.630 205.057,18.630 207.640,18.630 207.640,19.963 207.640,21.297 207.640,22.630 Z M 208.640,17.630 C 205.390,17.630 202.140,17.630 198.890,17.630 198.890,19.630 198.890,21.630 198.890,23.630 202.140,23.630 205.390,23.630 208.640,23.630 208.640,21.630 208.640,19.630 208.640,17.630 Z " />
</svg>