<?xml version="1.0" encoding="UTF-8" standalone="no"?>
<!DOCTYPE svg PUBLIC "-//W3C//DTD SVG 20010904//EN" "http://www.w3.org/TR/2001/REC-SVG-20010904/DTD/svg10.dtd"[]>
<svg version="1.1" id="Frosty Editor v1.0.6.3" xmlns="http://www.w3.org/2000/svg" d1p1:xlink="http://www.w3.org/1999/xlink" viewBox="0 0 384 96" xmlns:d1p1="xmlns">
  <path stroke="none" fill="#ffffffff" d="M 317.570,26.670 C 315.447,26.670 313.323,26.670 311.200,26.670 311.200,26.090 311.200,25.510 311.200,24.930 313.327,24.930 315.453,24.930 317.580,24.930 317.577,25.510 317.573,26.090 317.570,26.670 Z M 309.190,29.670 C 307.917,29.670 306.643,29.670 305.370,29.670 305.370,22.810 305.370,15.950 305.370,9.090 305.289,8.199 305.538,7.309 306.070,6.590 306.877,6.590 307.683,6.590 308.490,6.590 309.021,7.310 309.270,8.199 309.190,9.090 309.190,15.950 309.190,22.810 309.190,29.670 Z M 299.950,26.670 C 299.907,26.087 299.863,25.503 299.820,24.920 301.007,24.920 302.193,24.920 303.380,24.920 303.380,25.503 303.380,26.087 303.380,26.670 302.237,26.670 301.093,26.670 299.950,26.670 Z M 298.770,49.670 C 298.025,50.386 297.034,50.791 296.000,50.800 293.523,50.800 291.047,50.800 288.570,50.800 288.570,49.140 288.500,47.800 288.500,47.360 290.160,45.986 291.429,44.200 292.180,42.180 293.437,42.347 294.693,42.513 295.950,42.680 297.329,42.737 298.599,43.446 299.370,44.590 299.417,45.207 299.463,45.823 299.510,46.440 299.753,47.572 299.486,48.753 298.780,49.670 298.777,49.670 298.773,49.670 298.770,49.670 Z M 288.090,61.800 C 287.542,62.284 286.718,62.284 286.170,61.800 285.977,61.505 285.903,61.148 285.960,60.800 286.560,58.200 286.740,51.400 286.790,48.510 287.010,48.380 287.240,48.250 287.450,48.110 287.450,50.700 287.650,58.110 288.280,60.790 288.349,61.141 288.285,61.504 288.100,61.810 288.097,61.807 288.093,61.803 288.090,61.800 Z M 274.640,50.800 C 269.038,49.953 263.359,49.745 257.710,50.180 257.650,50.180 257.590,50.180 257.530,50.180 248.730,52.930 231.530,54.830 228.000,55.180 227.823,54.873 227.647,54.567 227.470,54.260 227.570,52.843 227.670,51.427 227.770,50.010 233.290,49.343 238.810,48.677 244.330,48.010 248.367,47.057 252.403,46.103 256.440,45.150 261.337,45.267 266.233,45.383 271.130,45.500 274.617,49.920 280.682,51.368 285.790,49.000 285.790,49.520 285.790,50.120 285.790,50.780 282.073,50.787 278.357,50.793 274.640,50.800 Z M 222.340,54.670 C 218.560,56.780 214.780,58.890 211.000,61.000 206.120,62.000 187.680,64.060 187.490,64.080 185.787,64.613 184.083,65.147 182.380,65.680 187.650,62.560 187.970,58.940 187.980,58.260 188.219,56.909 187.816,55.523 186.890,54.510 185.030,52.510 181.550,52.820 181.480,52.820 178.190,52.820 174.900,52.820 171.610,52.820 171.510,52.820 171.410,52.820 171.310,52.820 154.600,58.020 153.890,72.820 154.040,77.040 143.830,77.040 138.220,73.360 138.210,73.360 136.648,72.205 134.594,71.954 132.800,72.700 115.383,76.467 97.967,80.233 80.550,84.000 80.450,82.443 80.350,80.887 80.250,79.330 98.320,75.407 116.390,71.483 134.460,67.560 138.460,67.040 139.890,65.070 140.170,64.620 142.610,61.313 145.050,58.007 147.490,54.700 148.897,53.167 150.303,51.633 151.710,50.100 151.733,50.040 151.757,49.980 151.780,49.920 152.780,47.240 152.710,45.070 151.540,43.470 149.650,40.870 145.610,40.930 145.200,40.940 126.423,40.857 107.647,40.773 88.870,40.690 84.720,40.570 82.660,41.690 82.120,42.050 74.480,45.100 66.840,48.150 59.200,51.200 57.951,51.309 56.814,51.969 56.100,53.000 55.443,54.127 55.260,55.468 55.590,56.730 56.060,63.847 56.530,70.963 57.000,78.080 57.002,78.648 57.132,79.209 57.380,79.720 57.803,82.720 58.227,85.720 58.650,88.720 56.767,89.123 54.883,89.527 53.000,89.930 53.000,78.990 50.910,53.130 50.450,47.620 61.880,46.870 77.780,38.300 78.530,37.890 81.013,36.392 83.833,35.542 86.730,35.420 106.023,35.587 125.317,35.753 144.610,35.920 147.500,35.920 149.530,35.310 150.610,34.090 150.896,33.782 151.120,33.422 151.270,33.030 190.907,32.587 230.543,32.143 270.180,31.700 269.684,32.524 269.288,33.403 269.000,34.320 246.040,34.987 223.080,35.653 200.120,36.320 199.970,36.320 196.250,36.220 193.870,38.560 192.549,39.933 191.870,41.800 192.000,43.700 192.083,46.753 192.167,49.807 192.250,52.860 192.250,53.000 192.060,56.250 193.950,58.270 194.956,59.318 196.369,59.877 197.820,59.800 197.820,59.800 197.820,59.800 197.820,59.800 201.153,59.503 204.487,59.207 207.820,58.910 210.676,58.302 213.390,57.158 215.820,55.540 215.890,55.540 222.210,51.830 225.820,50.940 225.757,51.830 225.693,52.720 225.630,53.610 224.495,53.822 223.392,54.181 222.350,54.680 222.347,54.677 222.343,54.673 222.340,54.670 Z M 177.480,55.860 C 176.367,56.966 175.689,58.435 175.570,60.000 175.496,60.747 175.657,61.499 176.030,62.150 175.877,62.237 175.723,62.323 175.570,62.410 174.960,61.580 173.570,58.960 175.430,54.760 176.330,54.760 177.230,54.760 178.130,54.760 178.050,55.192 177.820,55.582 177.480,55.860 177.480,55.860 177.480,55.860 177.480,55.860 Z M 60.090,81.360 C 60.243,81.371 60.397,81.371 60.550,81.360 66.750,79.987 72.950,78.613 79.150,77.240 79.150,77.547 79.150,77.853 79.150,78.160 79.150,78.160 79.150,78.160 79.150,78.160 79.280,80.197 79.410,82.233 79.540,84.270 72.873,85.707 66.207,87.143 59.540,88.580 59.183,86.053 58.827,83.527 58.470,81.000 58.976,81.235 59.533,81.342 60.090,81.310 60.090,81.327 60.090,81.343 60.090,81.360 Z M 57.770,54.130 C 58.209,53.574 58.872,53.241 59.580,53.220 67.387,50.100 75.193,46.980 83.000,43.860 83.070,43.820 83.140,43.780 83.210,43.740 83.210,43.740 84.790,42.670 88.350,42.670 88.527,42.670 88.703,42.670 88.880,42.670 107.673,42.753 126.467,42.837 145.260,42.920 145.260,42.920 145.260,42.920 145.260,42.920 145.260,42.920 148.620,42.810 149.930,44.630 150.650,45.630 150.660,47.100 149.930,49.020 148.597,50.470 147.263,51.920 145.930,53.370 143.450,56.730 140.970,60.090 138.490,63.450 138.470,63.480 138.450,63.510 138.430,63.540 138.430,63.600 137.430,65.130 134.080,65.540 116.413,69.373 98.747,73.207 81.080,77.040 81.053,76.260 81.027,75.480 81.000,74.700 74.070,76.237 67.140,77.773 60.210,79.310 59.891,79.339 59.572,79.254 59.310,79.070 59.066,78.770 58.954,78.384 59.000,78.000 58.543,70.833 58.087,63.667 57.630,56.500 57.630,56.427 57.630,56.353 57.630,56.280 57.407,55.554 57.457,54.772 57.770,54.080 57.770,54.097 57.770,54.113 57.770,54.130 Z M 55.910,92.820 C 55.213,92.667 54.517,92.513 53.820,92.360 53.750,92.693 53.680,93.027 53.610,93.360 53.987,93.443 54.363,93.527 54.740,93.610 54.477,93.733 54.191,93.801 53.900,93.810 53.847,93.810 53.793,93.810 53.740,93.810 53.450,93.870 52.310,93.990 52.000,93.380 51.864,93.177 51.820,92.927 51.880,92.690 51.981,92.470 52.154,92.290 52.370,92.180 54.117,91.787 55.863,91.393 57.610,91.000 57.104,91.646 56.535,92.239 55.910,92.770 55.910,92.787 55.910,92.803 55.910,92.820 Z M 152.710,28.220 C 154.837,28.220 156.963,28.220 159.090,28.220 159.090,26.900 159.090,25.580 159.090,24.260 160.827,24.260 162.563,24.260 164.300,24.260 164.300,24.233 164.300,24.207 164.300,24.180 170.337,24.180 176.373,24.180 182.410,24.180 182.410,24.207 182.410,24.233 182.410,24.260 184.687,24.260 186.963,24.260 189.240,24.260 189.240,24.233 189.240,24.207 189.240,24.180 195.273,24.180 201.307,24.180 207.340,24.180 207.340,25.263 207.340,26.347 207.340,27.430 201.150,27.430 194.960,27.430 188.770,27.430 188.563,27.973 188.357,28.517 188.150,29.060 185.150,29.060 182.150,29.060 179.150,29.060 177.991,29.188 176.942,29.807 176.270,30.760 168.000,30.840 159.730,30.920 151.460,31.000 151.460,30.477 151.460,29.953 151.460,29.430 151.429,29.090 151.551,28.754 151.792,28.512 152.034,28.271 152.370,28.149 152.710,28.180 152.710,28.193 152.710,28.207 152.710,28.220 Z M 158.460,17.850 C 160.070,17.850 161.680,17.850 163.290,17.850 163.290,19.307 163.290,20.763 163.290,22.220 161.680,22.220 160.070,22.220 158.460,22.220 158.460,20.763 158.460,19.307 158.460,17.850 Z M 142.870,19.550 C 139.690,19.550 136.510,19.550 133.330,19.550 133.330,19.233 133.330,18.917 133.330,18.600 134.253,18.510 135.177,18.420 136.100,18.330 136.100,18.157 136.100,17.983 136.100,17.810 138.907,17.810 141.713,17.810 144.520,17.810 143.970,18.390 143.420,18.970 142.870,19.550 Z M 124.870,17.470 C 121.150,17.470 117.430,17.470 113.710,17.470 113.710,14.540 113.710,11.610 113.710,8.680 117.400,8.680 121.090,8.680 124.780,8.680 127.880,8.983 130.980,9.287 134.080,9.590 134.080,11.903 134.080,14.217 134.080,16.530 131.010,16.843 127.940,17.157 124.870,17.470 Z M 133.330,6.470 C 136.510,6.470 139.690,6.470 142.870,6.470 143.460,7.077 144.050,7.683 144.640,8.290 141.793,8.290 138.947,8.290 136.100,8.290 136.100,8.117 136.100,7.943 136.100,7.770 135.177,7.680 134.253,7.590 133.330,7.500 133.330,7.157 133.330,6.813 133.330,6.470 Z M 158.450,7.090 C 160.060,7.090 161.670,7.090 163.280,7.090 163.280,7.490 163.280,7.890 163.280,8.290 161.670,8.290 160.060,8.290 158.450,8.290 158.450,7.890 158.450,7.490 158.450,7.090 Z M 167.790,10.290 C 167.790,12.130 167.790,13.970 167.790,15.810 156.883,15.810 145.977,15.810 135.070,15.810 135.070,13.970 135.070,12.130 135.070,10.290 145.977,10.290 156.883,10.290 167.790,10.290 Z M 174.000,8.240 C 174.000,8.240 174.000,8.240 174.000,8.240 175.618,8.367 177.227,8.587 178.820,8.900 178.820,11.630 178.820,14.360 178.820,17.090 175.487,17.090 172.153,17.090 168.820,17.090 168.820,14.423 168.820,11.757 168.820,9.090 168.820,9.090 168.820,9.090 168.820,9.090 168.820,9.037 168.820,8.983 168.820,8.930 170.532,8.603 172.262,8.373 174.000,8.240 174.000,8.240 174.000,8.240 174.000,8.240 Z M 173.270,4.390 C 173.730,4.390 174.190,4.390 174.650,4.390 174.650,4.973 174.650,5.557 174.650,6.140 174.193,6.140 173.737,6.140 173.280,6.140 173.277,5.557 173.273,4.973 173.270,4.390 Z M 197.870,10.290 C 200.740,9.750 203.610,9.210 206.480,8.670 209.480,8.670 212.480,8.670 215.480,8.670 215.480,11.587 215.480,14.503 215.480,17.420 212.480,17.420 209.480,17.420 206.480,17.420 203.673,16.887 200.867,16.353 198.060,15.820 191.983,15.820 185.907,15.820 179.830,15.820 179.830,13.977 179.830,12.133 179.830,10.290 185.843,10.290 191.857,10.290 197.870,10.290 Z M 183.390,7.090 C 185.000,7.090 186.610,7.090 188.220,7.090 188.220,7.490 188.220,7.890 188.220,8.290 186.610,8.290 185.000,8.290 183.390,8.290 183.390,7.890 183.390,7.490 183.390,7.090 Z M 166.770,17.810 C 166.770,18.237 166.770,18.663 166.770,19.090 171.513,19.090 176.257,19.090 181.000,19.090 181.000,18.663 181.000,18.237 181.000,17.810 181.480,17.810 181.960,17.810 182.440,17.810 182.440,19.267 182.440,20.723 182.440,22.180 176.390,22.180 170.340,22.180 164.290,22.180 164.290,20.723 164.290,19.267 164.290,17.810 165.117,17.810 165.943,17.810 166.770,17.810 Z M 188.210,22.180 C 186.600,22.180 184.990,22.180 183.380,22.180 183.380,20.723 183.380,19.267 183.380,17.810 184.990,17.810 186.600,17.810 188.210,17.810 188.210,19.267 188.210,20.723 188.210,22.180 Z M 272.690,28.680 C 272.338,28.994 272.004,29.328 271.690,29.680 244.357,29.990 217.023,30.300 189.690,30.610 189.840,30.217 189.990,29.823 190.140,29.430 196.537,29.430 202.933,29.430 209.330,29.430 209.330,29.180 209.330,28.930 209.330,28.680 230.450,28.680 251.570,28.680 272.690,28.680 Z M 209.560,24.930 C 236.910,24.930 264.260,24.930 291.610,24.930 291.573,25.513 291.537,26.097 291.500,26.680 289.483,26.680 287.467,26.680 285.450,26.680 282.390,25.375 278.930,25.375 275.870,26.680 253.773,26.680 231.677,26.680 209.580,26.680 209.573,26.097 209.567,25.513 209.560,24.930 Z M 291.200,31.760 C 290.521,30.600 289.656,29.560 288.640,28.680 289.557,28.680 290.473,28.680 291.390,28.680 291.327,29.707 291.263,30.733 291.200,31.760 Z M 232.680,37.370 C 244.637,37.037 256.593,36.703 268.550,36.370 268.205,38.828 268.638,41.332 269.790,43.530 265.260,43.420 260.730,43.310 256.200,43.200 252.133,44.157 248.067,45.113 244.000,46.070 240.227,46.533 236.453,46.997 232.680,47.460 232.680,44.097 232.680,40.733 232.680,37.370 Z M 225.860,48.290 C 225.860,48.487 225.860,48.683 225.860,48.880 222.000,49.590 215.020,53.640 214.670,53.880 212.484,55.331 210.056,56.378 207.500,56.970 207.500,56.970 207.500,56.970 207.500,56.970 204.237,57.260 200.973,57.550 197.710,57.840 196.836,57.896 195.981,57.567 195.370,56.940 194.070,55.570 194.210,53.050 194.210,52.940 194.140,49.847 194.070,46.753 194.000,43.660 193.896,42.305 194.368,40.969 195.300,39.980 196.664,38.859 198.385,38.266 200.150,38.310 210.350,38.017 220.550,37.723 230.750,37.430 230.750,40.853 230.750,44.277 230.750,47.700 229.120,47.897 227.490,48.093 225.860,48.290 Z M 280.650,48.160 C 275.071,48.168 270.514,43.704 270.407,38.127 270.300,32.549 274.682,27.913 280.257,27.707 285.832,27.501 290.545,31.799 290.850,37.370 290.833,37.663 290.817,37.957 290.800,38.250 290.820,38.250 290.840,38.250 290.860,38.250 290.688,43.755 286.188,48.136 280.680,48.160 280.670,48.160 280.660,48.160 280.650,48.160 Z M 297.650,22.680 C 298.167,29.437 298.683,36.193 299.200,42.950 298.290,42.206 297.172,41.762 296.000,41.680 294.810,41.523 293.620,41.367 292.430,41.210 292.732,40.143 292.887,39.039 292.890,37.930 292.890,37.750 292.890,37.580 292.890,37.400 293.187,32.493 293.483,27.587 293.780,22.680 295.070,22.680 296.360,22.680 297.650,22.680 Z M 319.580,22.930 C 316.790,22.930 314.000,22.930 311.210,22.930 311.210,18.317 311.210,13.703 311.210,9.090 311.210,5.850 309.560,4.820 309.370,4.720 309.293,4.677 309.217,4.633 309.140,4.590 307.917,4.590 306.693,4.590 305.470,4.590 305.393,4.633 305.317,4.677 305.240,4.720 305.050,4.830 303.400,5.850 303.400,9.090 303.400,13.703 303.400,18.317 303.400,22.930 302.163,22.930 300.927,22.930 299.690,22.930 299.633,22.180 299.577,21.430 299.520,20.680 296.980,20.680 294.440,20.680 291.900,20.680 291.853,21.430 291.807,22.180 291.760,22.930 264.283,22.930 236.807,22.930 209.330,22.930 209.330,22.680 209.330,22.430 209.330,22.180 202.630,22.180 195.930,22.180 189.230,22.180 189.230,20.723 189.230,19.267 189.230,17.810 192.080,17.810 194.930,17.810 197.780,17.810 200.587,18.343 203.393,18.877 206.200,19.410 209.973,19.410 213.747,19.410 217.520,19.410 217.520,15.167 217.520,10.923 217.520,6.680 213.807,6.680 210.093,6.680 206.380,6.680 203.510,7.220 200.640,7.760 197.770,8.300 194.920,8.300 192.070,8.300 189.220,8.300 189.220,7.563 189.220,6.827 189.220,6.090 186.943,6.090 184.667,6.090 182.390,6.090 182.390,6.823 182.390,7.557 182.390,8.290 181.927,8.290 181.463,8.290 181.000,8.290 181.000,7.957 181.000,7.623 181.000,7.290 180.730,7.237 180.460,7.183 180.190,7.130 179.910,7.080 178.270,6.770 176.690,6.530 176.690,5.153 176.690,3.777 176.690,2.400 174.900,2.400 173.110,2.400 171.320,2.400 171.320,3.770 171.320,5.140 171.320,6.510 169.580,6.760 167.780,7.090 167.660,7.110 167.387,7.160 167.113,7.210 166.840,7.260 166.840,7.593 166.840,7.927 166.840,8.260 166.007,8.260 165.173,8.260 164.340,8.260 164.340,7.537 164.340,6.813 164.340,6.090 162.063,6.090 159.787,6.090 157.510,6.090 157.510,6.823 157.510,7.557 157.510,8.290 153.673,8.290 149.837,8.290 146.000,8.290 145.087,7.350 144.173,6.410 143.260,5.470 139.593,5.470 135.927,5.470 132.260,5.470 132.260,6.113 132.260,6.757 132.260,7.400 129.773,7.157 127.287,6.913 124.800,6.670 120.437,6.670 116.073,6.670 111.710,6.670 111.710,10.923 111.710,15.177 111.710,19.430 116.140,19.430 120.570,19.430 125.000,19.430 127.453,19.190 129.907,18.950 132.360,18.710 132.360,19.313 132.360,19.917 132.360,20.520 136.027,20.520 139.693,20.520 143.360,20.520 144.233,19.620 145.107,18.720 145.980,17.820 149.827,17.820 153.673,17.820 157.520,17.820 157.520,19.277 157.520,20.733 157.520,22.190 157.397,22.190 157.273,22.190 157.150,22.190 157.150,23.523 157.150,24.857 157.150,26.190 155.693,26.190 154.237,26.190 152.780,26.190 151.911,26.165 151.069,26.499 150.454,27.114 149.839,27.729 149.505,28.571 149.530,29.440 149.530,30.327 149.530,31.213 149.530,32.100 149.530,32.730 148.530,33.930 144.660,33.930 125.367,33.763 106.073,33.597 86.780,33.430 83.518,33.535 80.338,34.483 77.550,36.180 77.380,36.270 60.390,45.440 49.380,45.680 49.023,45.680 48.667,45.680 48.310,45.680 48.340,46.033 48.370,46.387 48.400,46.740 48.400,47.070 51.270,80.060 51.020,91.130 51.020,91.507 51.020,91.883 51.020,92.260 51.020,92.260 51.020,92.260 51.020,92.260 50.850,92.778 50.928,93.346 51.230,93.800 51.647,94.492 52.426,94.881 53.230,94.800 53.485,94.798 53.739,94.775 53.990,94.730 53.990,94.730 53.990,94.730 53.990,94.730 54.821,94.677 55.614,94.366 56.260,93.840 58.873,94.427 61.487,95.013 64.100,95.600 64.170,95.267 64.240,94.933 64.310,94.600 61.910,94.067 59.510,93.533 57.110,93.000 57.813,92.319 58.447,91.568 59.000,90.760 58.967,90.740 58.933,90.720 58.900,90.700 83.697,85.367 108.493,80.033 133.290,74.700 133.360,74.677 133.430,74.653 133.500,74.630 134.651,74.134 135.978,74.274 137.000,75.000 137.260,75.180 143.540,79.300 155.080,79.000 155.450,79.000 155.820,79.000 156.190,79.000 156.143,78.633 156.097,78.267 156.050,77.900 155.960,77.190 154.050,60.370 171.710,54.780 172.580,54.780 173.450,54.780 174.320,54.780 172.040,60.270 174.950,63.290 175.080,63.430 175.170,63.520 175.260,63.610 175.350,63.700 176.097,63.280 176.843,62.860 177.590,62.440 177.433,62.283 177.277,62.127 177.120,61.970 176.661,61.455 176.452,60.763 176.550,60.080 176.648,58.790 177.185,57.573 178.070,56.630 178.648,56.168 179.027,55.503 179.130,54.770 179.923,54.770 180.717,54.770 181.510,54.770 182.260,54.710 184.400,54.770 185.390,55.840 185.922,56.424 186.148,57.224 186.000,58.000 186.000,58.050 186.000,58.100 186.000,58.150 186.000,58.200 185.930,63.450 175.110,66.410 174.863,66.477 174.617,66.543 174.370,66.610 174.370,67.820 174.370,69.030 174.370,70.240 178.843,68.827 183.317,67.413 187.790,66.000 189.430,65.820 206.920,63.840 211.540,62.870 215.447,60.720 219.353,58.570 223.260,56.420 224.097,56.020 224.981,55.724 225.890,55.540 226.223,56.137 226.557,56.733 226.890,57.330 227.103,57.310 227.317,57.290 227.530,57.270 228.360,57.190 248.000,55.270 258.010,52.130 263.490,51.745 268.996,51.957 274.430,52.760 278.173,52.760 281.917,52.760 285.660,52.760 285.618,55.363 285.391,57.959 284.980,60.530 284.849,61.179 284.994,61.853 285.380,62.390 285.686,62.746 286.107,62.983 286.570,63.060 286.570,65.443 286.570,67.827 286.570,70.210 286.903,70.210 287.237,70.210 287.570,70.210 287.570,67.850 287.570,65.490 287.570,63.130 288.072,63.071 288.533,62.825 288.860,62.440 289.249,61.900 289.394,61.222 289.260,60.570 288.849,58.003 288.622,55.410 288.580,52.810 291.053,52.810 293.527,52.810 296.000,52.810 297.603,52.793 299.135,52.142 300.260,51.000 301.355,49.663 301.792,47.904 301.450,46.210 301.003,40.360 300.557,34.510 300.110,28.660 301.200,28.660 302.290,28.660 303.380,28.660 303.380,29.660 303.380,30.660 303.380,31.660 305.987,31.660 308.593,31.660 311.200,31.660 311.200,30.660 311.200,29.660 311.200,28.660 313.993,28.660 316.787,28.660 319.580,28.660 319.580,26.750 319.580,24.840 319.580,22.930 Z " />
  <path stroke="none" fill="#ffffffff" d="M 178.000,50.930 C 175.951,50.930 174.290,49.269 174.290,47.220 174.290,45.171 175.951,43.510 178.000,43.510 180.049,43.510 181.710,45.171 181.710,47.220 181.710,48.204 181.319,49.148 180.623,49.843 179.928,50.539 178.984,50.930 178.000,50.930 178.000,50.930 178.000,50.930 178.000,50.930 Z M 178.000,42.510 C 175.399,42.510 173.290,44.619 173.290,47.220 173.290,49.821 175.399,51.930 178.000,51.930 180.601,51.930 182.710,49.821 182.710,47.220 182.710,45.971 182.214,44.773 181.331,43.890 180.447,43.006 179.249,42.510 178.000,42.510 178.000,42.510 178.000,42.510 178.000,42.510 Z " />
  <path stroke="none" fill="#ffffffff" d="M 202.580,47.000 C 200.531,47.000 198.870,45.339 198.870,43.290 198.870,41.241 200.531,39.580 202.580,39.580 204.629,39.580 206.290,41.241 206.290,43.290 206.290,44.274 205.899,45.218 205.203,45.913 204.508,46.609 203.564,47.000 202.580,47.000 202.580,47.000 202.580,47.000 202.580,47.000 Z M 207.290,43.300 C 207.294,41.394 206.149,39.674 204.389,38.941 202.630,38.209 200.602,38.610 199.253,39.956 197.904,41.302 197.499,43.329 198.228,45.090 198.956,46.851 200.674,48.000 202.580,48.000 205.177,48.000 207.285,45.897 207.290,43.300 207.290,43.300 207.290,43.300 207.290,43.300 Z " />
  <path stroke="none" fill="#ffffffff" d="M 210.250,53.100 C 208.206,53.078 206.565,51.407 206.580,49.364 206.595,47.320 208.260,45.673 210.303,45.680 212.347,45.688 214.000,47.346 214.000,49.390 213.997,50.379 213.600,51.326 212.896,52.021 212.192,52.716 211.239,53.101 210.250,53.090 210.250,53.093 210.250,53.097 210.250,53.100 Z M 210.250,44.680 C 207.654,44.702 205.565,46.820 205.580,49.416 205.595,52.012 207.707,54.107 210.303,54.100 212.899,54.093 215.000,51.986 215.000,49.390 215.000,48.134 214.498,46.930 213.606,46.045 212.714,45.161 211.506,44.669 210.250,44.680 210.250,44.680 210.250,44.680 210.250,44.680 Z " />
  <path stroke="none" fill="#ffffffff" d="M 172.330,11.180 C 173.038,11.180 173.676,11.606 173.947,12.260 174.218,12.914 174.068,13.667 173.567,14.167 173.067,14.668 172.314,14.818 171.660,14.547 171.006,14.276 170.580,13.638 170.580,12.930 170.580,12.466 170.764,12.021 171.093,11.693 171.421,11.364 171.866,11.180 172.330,11.180 172.330,11.180 172.330,11.180 172.330,11.180 Z M 172.330,15.680 C 173.442,15.680 174.445,15.010 174.871,13.982 175.296,12.955 175.061,11.772 174.275,10.985 173.488,10.199 172.305,9.964 171.278,10.389 170.250,10.815 169.580,11.818 169.580,12.930 169.580,13.659 169.870,14.359 170.386,14.875 170.901,15.390 171.601,15.680 172.330,15.680 172.330,15.680 172.330,15.680 172.330,15.680 Z " />
</svg>