<?xml version="1.0" encoding="UTF-8" standalone="no"?>
<!DOCTYPE svg PUBLIC "-//W3C//DTD SVG 20010904//EN" "http://www.w3.org/TR/2001/REC-SVG-20010904/DTD/svg10.dtd"[]>
<svg version="1.1" id="Frosty Editor v1.0.6.3" xmlns="http://www.w3.org/2000/svg" d1p1:xlink="http://www.w3.org/1999/xlink" viewBox="0 0 101 25" xmlns:d1p1="xmlns">
  <path stroke="none" fill="#ffffffff" d="M 40.416,2.687 C 40.416,3.112 40.416,3.112 40.416,3.112 39.764,3.112 39.764,3.112 39.764,3.112 39.764,3.112 39.764,3.112 39.764,3.112 38.537,3.877 38.537,3.877 38.537,3.877 38.537,3.877 38.537,3.877 38.537,3.877 36.942,3.877 36.942,3.877 36.942,3.877 36.942,3.463 36.942,3.463 36.942,3.463 35.346,3.463 35.346,3.463 35.346,3.463 35.346,3.877 35.346,3.877 35.346,3.877 34.351,3.877 34.351,3.877 34.351,3.877 33.955,3.411 33.955,3.411 33.955,3.411 32.079,3.411 32.079,3.411 32.079,3.411 32.079,3.066 32.079,3.066 32.079,3.066 32.079,3.066 32.079,3.066 32.079,3.066 31.508,3.066 31.508,3.066 31.508,3.066 31.508,3.066 31.508,3.066 31.508,3.066 31.216,3.376 31.216,3.376 31.216,3.376 31.216,4.419 31.216,4.419 31.216,4.419 31.160,4.657 31.129,4.932 31.129,5.239 31.129,5.546 31.160,5.821 31.216,6.058 31.216,7.102 31.216,7.102 31.216,7.102 31.508,7.412 31.508,7.412 31.508,7.412 31.508,7.412 31.508,7.412 31.508,7.412 32.079,7.412 32.079,7.412 32.079,7.412 32.079,7.067 32.079,7.067 32.079,7.067 33.955,7.067 33.955,7.067 33.955,7.067 34.351,6.601 34.351,6.601 34.351,6.601 35.346,6.601 35.346,6.601 35.346,6.601 35.346,7.015 35.346,7.015 35.346,7.015 35.346,7.015 35.346,7.015 35.346,7.015 35.716,7.015 35.716,7.015 35.716,7.015 35.716,8.286 35.716,8.286 35.716,8.286 33.777,8.286 33.777,8.286 33.777,8.286 33.777,8.488 33.777,8.488 33.777,8.488 32.935,8.488 32.935,8.488 32.935,8.488 32.935,8.286 32.935,8.286 32.935,8.286 30.109,8.286 30.109,8.286 30.109,8.286 30.109,8.488 30.109,8.488 30.109,8.488 22.465,8.488 22.465,8.488 22.465,8.488 22.465,8.286 22.465,8.286 22.465,8.286 21.573,8.286 21.573,8.286 21.573,8.286 21.462,7.627 21.462,7.627 21.462,7.627 16.885,7.627 16.885,7.627 16.885,7.627 16.885,8.344 16.885,8.344 16.885,8.344 18.217,8.344 18.405,8.664 18.429,8.782 17.022,9.645 17.022,9.645 17.022,9.645 17.022,9.832 17.022,9.832 17.022,9.832 17.022,9.883 17.022,9.883 17.022,9.883 13.475,9.883 13.475,9.883 13.475,9.883 13.475,9.518 13.475,9.518 13.475,9.518 13.475,9.406 13.385,9.315 13.273,9.315 12.815,9.315 12.815,9.315 12.815,9.315 12.815,9.108 12.815,9.108 12.815,9.108 11.996,9.108 11.996,9.108 11.996,9.108 11.996,9.315 11.996,9.315 11.996,9.315 11.551,9.315 11.551,9.315 11.551,9.315 11.440,9.315 11.349,9.406 11.349,9.518 11.349,9.883 11.349,9.883 11.349,9.883 10.991,9.883 10.991,9.883 10.991,9.883 10.991,9.518 10.991,9.518 10.991,9.518 10.991,9.406 10.901,9.315 10.789,9.315 10.331,9.315 10.331,9.315 10.331,9.315 10.331,9.108 10.331,9.108 10.331,9.108 9.512,9.108 9.512,9.108 9.512,9.108 9.512,9.315 9.512,9.315 9.512,9.315 9.067,9.315 9.067,9.315 9.067,9.315 8.955,9.315 8.865,9.406 8.865,9.518 8.865,9.883 8.865,9.883 8.865,9.883 8.507,9.883 8.507,9.883 8.507,9.883 8.507,9.518 8.507,9.518 8.507,9.518 8.507,9.406 8.416,9.315 8.304,9.315 7.847,9.315 7.847,9.315 7.847,9.315 7.847,9.108 7.847,9.108 7.847,9.108 7.028,9.108 7.028,9.108 7.028,9.108 7.028,9.315 7.028,9.315 7.028,9.315 6.583,9.315 6.583,9.315 6.583,9.315 6.471,9.315 6.381,9.406 6.381,9.518 6.381,9.883 6.381,9.883 6.381,9.883 3.624,9.883 3.624,9.883 3.624,9.883 3.624,9.680 3.624,9.680 3.624,9.680 3.624,9.534 3.400,9.436 3.307,9.436 1.709,9.436 1.709,9.436 1.709,9.436 1.508,9.436 1.328,9.519 1.328,9.680 1.328,9.883 1.328,9.883 1.328,9.883 1.818,16.830 1.671,17.533 0.676,21.247 0.576,21.620 1.132,22.301 1.496,22.301 4.288,21.222 4.288,21.222 4.288,21.222 4.408,21.153 4.398,20.959 4.398,20.736 4.398,20.736 4.385,20.714 4.364,20.664 4.385,20.714 4.398,20.736 4.398,20.736 4.708,20.736 4.761,20.736 4.941,20.502 12.949,20.502 12.949,20.502 12.949,20.502 20.270,22.466 20.270,22.466 20.270,22.466 21.592,22.822 21.592,22.822 21.592,22.822 22.444,23.583 22.444,23.583 22.444,23.583 24.377,23.572 24.377,23.572 24.377,23.572 24.882,21.842 24.882,21.842 24.882,21.842 24.882,21.842 24.882,21.842 24.882,21.842 26.672,16.006 26.672,16.006 26.672,16.006 27.077,16.198 27.077,16.198 27.077,16.198 31.832,16.198 31.832,16.198 31.832,16.198 32.918,16.198 32.918,16.198 32.918,16.198 32.918,16.501 32.918,16.501 32.918,16.501 37.919,18.355 37.919,18.355 37.919,18.355 55.057,18.355 55.057,18.355 55.057,18.355 55.057,17.779 55.057,17.779 55.057,17.779 56.247,17.779 56.247,17.779 56.247,17.779 56.247,15.298 56.247,15.298 56.247,15.298 55.057,15.298 55.057,15.298 55.057,15.298 55.057,14.703 55.057,14.703 55.057,14.703 52.304,14.703 52.304,14.703 52.304,14.703 52.304,15.047 52.304,15.047 52.304,15.047 51.975,14.659 51.975,14.659 51.975,14.659 52.339,14.659 52.339,14.659 52.339,14.659 52.339,12.016 52.339,12.016 52.339,12.016 52.339,12.016 52.339,12.016 52.339,12.016 52.339,13.555 52.339,13.555 52.339,13.555 63.576,12.590 63.576,12.590 63.576,12.590 63.576,11.458 63.576,11.458 63.576,11.458 64.069,11.458 64.069,11.458 64.069,11.458 64.069,10.996 64.069,10.996 64.069,10.996 65.889,10.996 65.889,10.996 65.889,10.996 65.889,12.115 65.889,12.115 65.889,12.115 67.090,12.115 67.090,12.115 67.090,12.115 67.090,8.083 67.090,8.083 67.090,8.083 65.889,8.083 65.889,8.083 65.889,8.083 65.889,9.171 65.889,9.171 65.889,9.171 64.069,9.171 64.069,9.171 64.069,9.171 64.069,8.723 64.069,8.723 64.069,8.723 63.576,8.723 63.576,8.723 63.576,8.723 63.576,8.611 63.576,8.611 63.576,8.611 52.541,8.611 52.541,8.611 52.541,8.611 52.541,8.286 52.541,8.286 52.541,8.286 49.397,8.286 49.397,8.286 49.397,8.286 49.397,8.488 49.397,8.488 49.397,8.488 44.436,8.488 44.436,8.488 44.436,8.488 44.436,8.286 44.436,8.286 44.436,8.286 42.690,8.286 42.690,8.286 42.690,8.286 42.690,7.726 42.690,7.726 42.690,7.726 44.007,7.726 44.007,7.726 44.007,7.726 44.007,7.366 44.007,7.366 44.007,7.366 45.454,7.366 45.454,7.366 45.454,7.366 45.754,7.620 45.754,7.620 45.754,7.620 47.638,7.620 47.638,7.620 47.638,7.620 47.638,7.620 47.638,7.620 47.638,7.620 47.638,6.831 47.638,6.831 47.638,6.831 47.674,6.795 47.708,6.755 47.741,6.710 47.774,6.666 47.804,6.618 47.833,6.565 47.862,6.513 47.889,6.457 47.913,6.397 47.938,6.337 47.961,6.274 47.981,6.207 48.001,6.139 48.019,6.069 48.035,5.994 48.050,5.920 48.064,5.843 48.074,5.762 48.085,5.681 48.093,5.597 48.099,5.510 48.104,5.422 48.107,5.332 48.107,5.239 48.107,5.239 48.107,5.239 48.107,5.239 48.107,5.239 48.107,5.239 48.107,5.239 48.107,5.146 48.104,5.055 48.099,4.968 48.099,4.968 48.099,4.968 48.099,4.968 48.099,4.968 48.099,4.968 48.099,4.968 48.093,4.881 48.085,4.797 48.074,4.716 48.074,4.716 48.074,4.716 48.074,4.716 48.074,4.716 48.074,4.716 48.074,4.716 48.064,4.635 48.051,4.558 48.035,4.483 48.035,4.483 48.035,4.483 48.035,4.483 48.035,4.483 48.035,4.483 48.035,4.483 48.019,4.409 48.001,4.338 47.981,4.271 47.961,4.204 47.938,4.140 47.913,4.081 47.889,4.021 47.862,3.965 47.833,3.912 47.804,3.860 47.774,3.812 47.741,3.767 47.741,3.767 47.741,3.767 47.741,3.767 47.741,3.767 47.741,3.767 47.741,3.767 47.708,3.723 47.674,3.683 47.638,3.647 47.638,3.647 47.638,3.647 47.638,3.647 47.638,3.647 47.638,3.647 47.638,3.647 47.638,2.858 47.638,2.858 47.638,2.858 47.638,2.858 47.638,2.858 47.638,2.858 45.754,2.858 45.754,2.858 45.754,2.858 45.454,3.112 45.454,3.112 45.454,3.112 44.007,3.112 44.007,3.112 44.007,3.112 44.007,2.687 44.007,2.687 44.007,2.687 Z M 40.717,2.988 C 43.706,2.988 43.706,2.988 43.706,2.988 43.706,7.425 43.706,7.425 43.706,7.425 40.717,7.425 40.717,7.425 40.717,7.425 Z M 45.869,3.171 C 47.325,3.171 47.325,3.171 47.325,3.171 47.325,7.307 47.325,7.307 47.325,7.307 45.869,7.307 45.869,7.307 45.869,7.307 45.768,7.220 45.768,7.220 45.768,7.220 45.768,3.258 45.768,3.258 45.768,3.258 45.802,3.229 45.836,3.200 45.869,3.171 Z M 39.977,3.325 C 40.203,3.325 40.203,3.325 40.203,3.325 40.203,7.153 40.203,7.153 40.203,7.153 39.977,7.153 39.977,7.153 39.977,7.153 Z M 44.220,3.325 C 45.241,3.325 45.241,3.325 45.241,3.325 45.241,7.153 45.241,7.153 45.241,7.153 44.220,7.153 44.220,7.153 44.220,7.153 Z M 31.643,3.379 C 31.766,3.379 31.766,3.379 31.766,3.379 31.766,7.098 31.766,7.098 31.766,7.098 31.643,7.098 31.643,7.098 31.643,7.098 31.605,7.058 31.567,7.018 31.529,6.978 31.529,3.500 31.529,3.500 31.529,3.500 31.567,3.460 31.605,3.419 31.643,3.379 Z M 39.551,3.496 C 39.551,6.982 39.551,6.982 39.551,6.982 39.284,6.816 39.017,6.650 38.751,6.483 38.751,3.995 38.751,3.995 38.751,3.995 Z M 32.292,3.624 C 33.742,3.624 33.742,3.624 33.742,3.624 33.742,6.854 33.742,6.854 33.742,6.854 32.292,6.854 32.292,6.854 32.292,6.854 Z M 35.559,3.676 C 36.729,3.676 36.729,3.676 36.729,3.676 36.729,6.802 36.729,6.802 36.729,6.802 35.559,6.802 35.559,6.802 35.559,6.802 Z M 34.106,3.820 C 34.137,3.857 34.169,3.894 34.200,3.931 34.200,6.547 34.200,6.547 34.200,6.547 34.169,6.584 34.137,6.621 34.106,6.658 Z M 34.564,4.090 C 35.133,4.090 35.133,4.090 35.133,4.090 35.133,6.388 35.133,6.388 35.133,6.388 34.564,6.388 34.564,6.388 34.564,6.388 Z M 37.155,4.090 C 38.324,4.090 38.324,4.090 38.324,4.090 38.324,6.388 38.324,6.388 38.324,6.388 37.155,6.388 37.155,6.388 37.155,6.388 Z M 47.676,4.176 C 47.685,4.201 47.694,4.226 47.703,4.252 47.782,4.489 47.820,4.736 47.836,4.985 47.847,5.194 47.846,5.406 47.826,5.615 47.803,5.848 47.760,6.082 47.676,6.302 47.676,5.239 47.676,5.239 47.676,5.239 Z M 36.942,6.601 C 38.537,6.601 38.537,6.601 38.537,6.601 39.764,7.366 39.764,7.366 39.764,7.366 40.416,7.366 40.416,7.366 40.416,7.366 40.416,7.726 40.416,7.726 40.416,7.726 41.887,7.726 41.887,7.726 41.887,7.726 41.887,8.073 41.887,8.073 41.887,8.073 36.518,8.073 36.518,8.073 36.518,8.073 36.518,7.015 36.518,7.015 36.518,7.015 36.942,7.015 36.942,7.015 36.942,7.015 36.942,7.015 36.942,7.015 36.942,7.015 Z M 35.966,7.135 C 36.267,7.135 36.267,7.135 36.267,7.135 36.267,9.292 36.267,9.292 36.267,9.292 35.966,9.292 35.966,9.292 35.966,9.292 Z M 17.073,7.815 C 21.303,7.815 21.303,7.815 21.303,7.815 21.319,7.909 21.335,8.003 21.351,8.097 21.032,8.097 20.713,8.097 20.393,8.097 20.393,7.943 20.393,7.943 20.393,7.943 19.437,7.943 19.437,7.943 19.437,7.943 19.121,8.137 18.805,8.330 18.490,8.524 18.380,8.415 18.237,8.344 18.091,8.298 17.762,8.196 17.416,8.168 17.073,8.159 Z M 42.138,7.859 C 42.439,7.859 42.439,7.859 42.439,7.859 42.439,9.292 42.439,9.292 42.439,9.292 42.138,9.292 42.138,9.292 42.138,9.292 Z M 68.113,8.083 C 68.113,9.171 68.113,9.171 68.113,9.171 67.090,9.171 67.090,9.171 67.090,9.171 67.090,9.547 67.090,9.547 67.090,9.547 68.113,9.547 68.113,9.547 68.113,9.547 68.113,10.620 68.113,10.620 68.113,10.620 67.090,10.620 67.090,10.620 67.090,10.620 67.090,10.996 67.090,10.996 67.090,10.996 68.113,10.996 68.113,10.996 68.113,10.996 68.113,12.115 68.113,12.115 68.113,12.115 69.314,12.115 69.314,12.115 69.314,12.115 69.314,8.083 69.314,8.083 69.314,8.083 Z M 70.338,8.083 C 70.338,9.171 70.338,9.171 70.338,9.171 69.314,9.171 69.314,9.171 69.314,9.171 69.314,9.547 69.314,9.547 69.314,9.547 70.338,9.547 70.338,9.547 70.338,9.547 70.338,10.620 70.338,10.620 70.338,10.620 69.314,10.620 69.314,10.620 69.314,10.620 69.314,10.996 69.314,10.996 69.314,10.996 70.338,10.996 70.338,10.996 70.338,10.996 70.338,12.115 70.338,12.115 70.338,12.115 71.539,12.115 71.539,12.115 71.539,12.115 71.539,10.996 71.539,10.996 71.539,10.996 72.562,10.996 72.562,10.996 72.562,10.996 72.562,12.115 72.562,12.115 72.562,12.115 73.763,12.115 73.763,12.115 73.763,12.115 73.763,8.083 73.763,8.083 73.763,8.083 72.562,8.083 72.562,8.083 72.562,8.083 72.562,9.171 72.562,9.171 72.562,9.171 71.539,9.171 71.539,9.171 71.539,9.171 71.539,8.083 71.539,8.083 71.539,8.083 Z M 19.543,8.319 C 20.017,8.319 20.017,8.319 20.017,8.319 20.055,8.319 20.055,8.319 20.055,8.319 20.055,9.340 20.055,9.340 20.055,9.340 20.017,9.340 20.017,9.340 20.017,9.340 19.487,9.340 19.487,9.340 19.487,9.340 17.210,9.832 17.210,9.832 17.210,9.832 17.210,9.750 17.210,9.750 17.210,9.750 17.987,9.273 18.765,8.796 19.543,8.319 Z M 36.518,8.324 C 36.769,8.324 36.769,8.324 36.769,8.324 41.637,8.324 41.637,8.324 41.637,8.324 41.888,8.324 41.888,8.324 41.888,8.324 41.888,9.292 41.888,9.292 41.888,9.292 41.637,9.292 41.637,9.292 41.637,9.292 36.769,9.292 36.769,9.292 36.769,9.292 36.518,9.292 36.518,9.292 36.518,9.292 Z M 91.063,8.370 C 82.151,8.370 81.711,8.646 81.711,8.646 81.711,9.171 81.711,9.171 81.711,9.171 73.763,9.171 73.763,9.171 73.763,9.171 73.763,9.547 73.763,9.547 73.763,9.547 81.361,9.547 81.361,9.547 81.361,9.547 81.361,10.620 81.361,10.620 81.361,10.620 73.763,10.620 73.763,10.620 73.763,10.620 73.763,10.996 73.763,10.996 73.763,10.996 81.711,10.996 81.711,10.996 81.711,10.996 81.711,11.551 81.711,11.551 81.711,11.551 81.711,11.551 82.138,11.754 91.063,11.754 100.194,11.754 100.414,11.551 100.414,11.551 100.897,11.239 100.897,11.239 100.897,11.239 100.897,8.958 100.897,8.958 100.897,8.958 100.414,8.646 100.414,8.646 100.414,8.646 100.414,8.646 100.175,8.370 91.063,8.370 Z M 66.227,8.421 C 66.751,8.421 66.751,8.421 66.751,8.421 66.751,11.776 66.751,11.776 66.751,11.776 66.227,11.776 66.227,11.776 66.227,11.776 Z M 68.452,8.421 C 68.976,8.421 68.976,8.421 68.976,8.421 68.976,11.776 68.976,11.776 68.976,11.776 68.452,11.776 68.452,11.776 68.452,11.776 Z M 70.676,8.421 C 71.200,8.421 71.200,8.421 71.200,8.421 71.200,11.776 71.200,11.776 71.200,11.776 70.676,11.776 70.676,11.776 70.676,11.776 Z M 72.901,8.421 C 73.425,8.421 73.425,8.421 73.425,8.421 73.425,11.776 73.425,11.776 73.425,11.776 72.901,11.776 72.901,11.776 72.901,11.776 Z M 20.205,8.536 C 20.456,8.536 20.456,8.536 20.456,8.536 22.214,8.536 22.214,8.536 22.214,8.536 22.214,9.292 22.214,9.292 22.214,9.292 20.456,9.292 20.456,9.292 20.456,9.292 20.205,9.292 20.205,9.292 20.205,9.292 Z M 30.360,8.536 C 32.684,8.536 32.684,8.536 32.684,8.536 32.684,9.292 32.684,9.292 32.684,9.292 30.360,9.292 30.360,9.292 30.360,9.292 Z M 34.027,8.536 C 35.465,8.536 35.465,8.536 35.465,8.536 35.716,8.536 35.716,8.536 35.716,8.536 35.716,9.292 35.716,9.292 35.716,9.292 35.465,9.292 35.465,9.292 35.465,9.292 34.027,9.292 34.027,9.292 34.027,9.292 Z M 42.690,8.536 C 42.941,8.536 42.941,8.536 42.941,8.536 44.185,8.536 44.185,8.536 44.185,8.536 44.185,9.292 44.185,9.292 44.185,9.292 42.941,9.292 42.941,9.292 42.941,9.292 42.690,9.292 42.690,9.292 42.690,9.292 Z M 49.647,8.536 C 52.291,8.536 52.291,8.536 52.291,8.536 52.291,9.292 52.291,9.292 52.291,9.292 49.647,9.292 49.647,9.292 49.647,9.292 Z M 22.465,8.739 C 22.715,8.739 22.715,8.739 22.715,8.739 29.858,8.739 29.858,8.739 29.858,8.739 30.109,8.739 30.109,8.739 30.109,8.739 30.109,9.292 30.109,9.292 30.109,9.292 29.858,9.292 29.858,9.292 29.858,9.292 22.715,9.292 22.715,9.292 22.715,9.292 22.465,9.292 22.465,9.292 22.465,9.292 Z M 32.935,8.739 C 33.186,8.739 33.186,8.739 33.186,8.739 33.526,8.739 33.526,8.739 33.526,8.739 33.777,8.739 33.777,8.739 33.777,8.739 33.777,9.292 33.777,9.292 33.777,9.292 33.526,9.292 33.526,9.292 33.526,9.292 33.186,9.292 33.186,9.292 33.186,9.292 32.935,9.292 32.935,9.292 32.935,9.292 Z M 44.436,8.739 C 44.686,8.739 44.686,8.739 44.686,8.739 49.146,8.739 49.146,8.739 49.146,8.739 49.397,8.739 49.397,8.739 49.397,8.739 49.397,9.292 49.397,9.292 49.397,9.292 49.146,9.292 49.146,9.292 49.146,9.292 44.686,9.292 44.686,9.292 44.686,9.292 44.436,9.292 44.436,9.292 44.436,9.292 Z M 90.106,8.747 C 91.287,8.746 92.467,8.748 93.648,8.756 94.977,8.767 96.306,8.781 97.634,8.822 98.268,8.845 98.902,8.865 99.534,8.911 99.774,8.932 100.015,8.944 100.251,8.990 100.341,9.048 100.431,9.106 100.521,9.164 100.522,9.787 100.522,10.410 100.522,11.034 100.477,11.062 100.433,11.091 100.388,11.119 100.343,11.144 100.305,11.181 100.256,11.198 100.060,11.224 99.863,11.237 99.666,11.249 98.930,11.289 98.193,11.309 97.457,11.325 95.733,11.360 94.008,11.370 92.284,11.375 90.575,11.378 88.866,11.375 87.157,11.360 85.936,11.347 84.714,11.333 83.494,11.291 83.025,11.273 82.555,11.259 82.088,11.219 82.087,10.479 82.087,9.738 82.087,8.997 82.090,8.987 82.079,8.961 82.094,8.962 82.368,8.931 82.644,8.911 82.920,8.894 83.520,8.858 84.121,8.837 84.722,8.819 86.516,8.766 88.311,8.755 90.106,8.747 Z M 52.715,8.987 C 52.950,8.987 52.950,8.987 52.950,8.987 52.950,13.126 52.950,13.126 52.950,13.126 52.871,13.132 52.793,13.139 52.715,13.146 Z M 53.125,8.987 C 53.198,8.987 53.198,8.987 53.198,8.987 53.198,13.104 53.198,13.104 53.198,13.104 53.174,13.106 53.149,13.108 53.125,13.110 Z M 53.373,8.987 C 53.853,8.987 53.853,8.987 53.853,8.987 53.853,13.048 53.853,13.048 53.853,13.048 53.693,13.062 53.533,13.075 53.373,13.089 Z M 54.028,8.987 C 54.101,8.987 54.101,8.987 54.101,8.987 54.101,13.027 54.101,13.027 54.101,13.027 54.076,13.029 54.052,13.031 54.028,13.033 Z M 54.276,8.987 C 63.200,8.987 63.200,8.987 63.200,8.987 63.200,9.099 63.200,9.099 63.200,9.099 63.200,11.082 63.200,11.082 63.200,11.082 63.200,11.458 63.200,11.458 63.200,11.458 63.200,12.245 63.200,12.245 63.200,12.245 60.225,12.500 57.251,12.756 54.276,13.012 Z M 63.576,9.099 C 63.693,9.099 63.693,9.099 63.693,9.099 63.693,11.082 63.693,11.082 63.693,11.082 63.576,11.082 63.576,11.082 63.576,11.082 Z M 8.293,9.528 C 8.293,9.646 8.293,9.765 8.293,9.883 8.293,9.883 8.293,9.883 8.293,9.883 8.293,9.971 8.293,10.059 8.293,10.146 8.293,10.146 8.293,10.146 8.293,10.146 8.293,10.851 8.293,11.556 8.293,12.261 8.293,12.261 8.293,12.261 8.293,12.261 8.293,12.349 8.293,12.436 8.293,12.524 8.293,12.524 8.293,12.524 8.293,12.524 8.293,12.649 8.293,12.774 8.293,12.899 8.292,12.926 8.293,12.953 8.294,12.980 7.752,12.982 7.209,12.981 6.666,12.983 6.643,12.982 6.619,12.983 6.595,12.983 6.595,11.853 6.595,10.723 6.595,9.593 6.596,9.572 6.593,9.551 6.593,9.530 6.876,9.529 7.158,9.529 7.441,9.529 7.725,9.529 8.009,9.528 8.293,9.528 Z M 13.261,9.528 C 13.261,10.657 13.261,11.786 13.261,12.916 13.259,12.937 13.263,12.959 13.263,12.980 12.718,12.982 12.172,12.981 11.627,12.982 11.606,12.980 11.584,12.983 11.563,12.983 11.563,12.476 11.563,12.476 11.563,12.476 11.563,12.261 11.563,12.261 11.563,12.261 11.563,12.261 11.563,12.261 11.563,12.261 11.563,10.013 11.563,10.013 11.563,10.013 11.563,9.883 11.563,9.883 11.563,9.883 11.563,9.883 11.563,9.883 11.563,9.883 11.563,9.590 11.563,9.590 11.563,9.590 11.565,9.570 11.561,9.550 11.561,9.530 12.128,9.529 12.694,9.529 13.261,9.528 Z M 10.777,9.528 C 10.777,10.439 10.777,11.350 10.777,12.261 10.777,12.349 10.777,12.436 10.777,12.524 10.777,12.524 10.777,12.524 10.777,12.524 10.777,12.628 10.777,12.732 10.777,12.836 10.778,12.884 10.776,12.933 10.778,12.981 10.234,12.981 9.690,12.982 9.146,12.981 9.123,12.980 9.101,12.983 9.079,12.983 9.079,10.146 9.079,10.146 9.079,10.146 9.079,10.059 9.079,9.971 9.079,9.883 9.079,9.883 9.079,9.883 9.079,9.883 9.079,9.594 9.079,9.594 9.079,9.594 9.081,9.573 9.077,9.551 9.077,9.530 9.644,9.529 10.210,9.529 10.777,9.528 Z M 64.069,9.547 C 64.446,9.547 64.446,9.547 64.446,9.547 65.889,9.547 65.889,9.547 65.889,9.547 65.889,10.620 65.889,10.620 65.889,10.620 64.446,10.620 64.446,10.620 64.446,10.620 64.069,10.620 64.069,10.620 64.069,10.620 Z M 71.539,9.547 C 72.562,9.547 72.562,9.547 72.562,9.547 72.562,10.620 72.562,10.620 72.562,10.620 71.539,10.620 71.539,10.620 71.539,10.620 Z M 58.758,9.576 C 58.600,9.576 58.472,9.703 58.472,9.861 58.472,10.175 58.472,10.175 58.472,10.175 58.472,10.333 58.600,10.461 58.758,10.461 58.917,10.461 59.044,10.333 59.044,10.175 59.044,9.861 59.044,9.861 59.044,9.861 59.044,9.703 58.917,9.576 58.758,9.576 Z M 60.068,9.576 C 59.909,9.576 59.782,9.703 59.782,9.861 59.782,10.175 59.782,10.175 59.782,10.175 59.782,10.333 59.909,10.461 60.068,10.461 60.226,10.461 60.353,10.333 60.353,10.175 60.353,9.861 60.353,9.861 60.353,9.861 60.353,9.703 60.226,9.576 60.068,9.576 Z M 61.377,9.576 C 61.219,9.576 61.091,9.703 61.091,9.861 61.091,10.175 61.091,10.175 61.091,10.175 61.091,10.333 61.219,10.461 61.377,10.461 61.535,10.461 61.663,10.333 61.663,10.175 61.663,9.861 61.663,9.861 61.663,9.861 61.663,9.703 61.535,9.576 61.377,9.576 Z M 3.248,9.648 C 3.272,9.648 3.296,9.648 3.320,9.654 3.352,9.667 3.386,9.676 3.410,9.703 3.411,11.322 3.411,11.322 3.411,11.322 3.412,12.072 3.410,12.823 3.412,13.573 3.414,14.676 3.440,15.780 3.517,16.881 3.573,17.662 3.650,18.442 3.780,19.215 3.643,19.134 3.505,19.053 3.367,18.973 3.359,18.460 3.359,18.460 3.359,18.460 3.404,18.487 3.449,18.513 3.494,18.539 3.484,17.920 3.474,17.300 3.465,16.681 3.421,16.709 3.377,16.736 3.333,16.764 3.327,16.390 3.327,16.390 3.327,16.390 3.353,16.405 3.379,16.420 3.405,16.435 3.395,15.833 3.386,15.231 3.376,14.629 3.335,14.655 3.293,14.682 3.251,14.708 3.249,14.588 3.247,14.467 3.245,14.347 3.288,14.372 3.330,14.397 3.373,14.422 3.364,13.820 3.354,13.218 3.345,12.616 3.303,12.642 3.261,12.668 3.219,12.695 3.217,12.575 3.215,12.454 3.214,12.334 3.256,12.359 3.299,12.384 3.342,12.409 3.332,11.807 3.323,11.205 3.313,10.603 3.271,10.629 3.229,10.655 3.187,10.682 3.184,10.496 3.181,10.310 3.178,10.125 2.958,9.996 2.738,9.867 2.519,9.738 2.303,9.874 2.087,10.010 1.871,10.146 1.874,10.331 1.877,10.517 1.880,10.702 1.837,10.678 1.794,10.652 1.752,10.628 1.761,11.230 1.771,11.832 1.780,12.434 1.822,12.408 1.864,12.381 1.906,12.355 1.908,12.476 1.910,12.596 1.911,12.717 1.869,12.692 1.826,12.667 1.783,12.642 1.792,13.244 1.802,13.845 1.812,14.447 1.854,14.421 1.895,14.394 1.937,14.368 1.943,14.728 1.943,14.728 1.943,14.728 1.900,14.704 1.858,14.679 1.815,14.654 1.824,15.256 1.834,15.858 1.843,16.460 1.887,16.432 1.931,16.405 1.975,16.377 1.977,16.513 1.979,16.649 1.981,16.785 1.937,16.759 1.892,16.733 1.847,16.707 1.857,17.326 1.867,17.945 1.877,18.565 1.920,18.537 1.964,18.509 2.008,18.482 2.016,18.994 2.016,18.994 2.016,18.994 1.820,19.118 1.623,19.242 1.426,19.366 1.429,19.565 1.432,19.764 1.435,19.963 1.391,19.937 1.346,19.910 1.301,19.884 1.311,20.504 1.321,21.123 1.330,21.742 1.597,21.574 1.864,21.406 2.131,21.238 2.332,21.356 2.532,21.473 2.733,21.591 2.956,21.450 3.179,21.310 3.402,21.169 3.399,20.938 3.395,20.707 3.391,20.475 3.584,20.355 3.776,20.233 3.968,20.113 4.024,20.336 4.089,20.558 4.179,20.770 4.189,20.819 4.183,20.870 4.182,20.920 4.178,20.960 4.182,21.001 4.169,21.040 1.546,22.053 1.546,22.053 1.546,22.053 1.518,22.060 1.494,22.078 1.466,22.083 1.408,22.067 1.355,22.036 1.306,22.002 1.166,21.897 1.049,21.761 0.965,21.608 0.918,21.518 0.871,21.421 0.880,21.317 0.907,21.207 0.937,21.097 0.965,20.988 1.240,19.946 1.520,18.902 1.665,17.833 1.798,16.874 1.823,15.903 1.808,14.936 1.782,13.492 1.688,12.050 1.591,10.608 1.576,10.341 1.549,10.074 1.542,9.806 1.545,9.767 1.536,9.728 1.542,9.690 1.573,9.664 1.614,9.658 1.652,9.653 2.184,9.647 2.716,9.650 3.248,9.648 Z M 20.055,9.654 C 20.055,12.261 20.055,12.261 20.055,12.261 17.210,12.261 17.210,12.261 17.210,12.261 17.210,10.146 17.210,10.146 17.210,10.146 19.529,9.654 19.529,9.654 19.529,9.654 19.529,9.654 19.880,9.654 20.055,9.654 Z M 97.898,9.694 C 97.739,9.694 97.612,9.884 97.612,10.120 97.612,10.357 97.739,10.547 97.898,10.547 99.862,10.547 99.862,10.547 99.862,10.547 100.020,10.547 100.148,10.357 100.148,10.120 100.148,9.884 100.020,9.694 99.862,9.694 Z M 20.393,9.731 C 52.339,9.731 52.339,9.731 52.339,9.731 52.339,10.033 52.339,10.033 52.339,10.033 20.393,10.033 20.393,10.033 20.393,10.033 Z M 60.068,9.751 C 60.115,9.751 60.161,9.784 60.172,9.831 60.182,9.934 60.176,10.040 60.178,10.145 60.185,10.188 60.169,10.236 60.133,10.263 60.079,10.310 59.984,10.279 59.963,10.211 59.952,10.104 59.959,9.994 59.958,9.886 59.945,9.824 59.994,9.755 60.058,9.751 60.062,9.751 60.065,9.751 60.068,9.751 Z M 61.374,9.751 C 61.387,9.751 61.401,9.753 61.413,9.758 61.452,9.770 61.480,9.806 61.484,9.846 61.490,9.946 61.486,10.047 61.487,10.147 61.493,10.189 61.478,10.235 61.444,10.262 61.391,10.309 61.297,10.280 61.274,10.214 61.260,10.107 61.269,9.997 61.267,9.887 61.255,9.825 61.303,9.755 61.368,9.751 61.370,9.751 61.372,9.751 61.374,9.751 Z M 58.758,9.751 C 58.768,9.751 58.777,9.752 58.785,9.755 58.828,9.764 58.860,9.802 58.866,9.845 58.870,9.945 58.867,10.045 58.868,10.145 58.874,10.190 58.859,10.240 58.820,10.266 58.764,10.308 58.673,10.277 58.654,10.210 58.641,10.101 58.652,9.991 58.648,9.882 58.638,9.821 58.686,9.755 58.749,9.751 58.752,9.751 58.755,9.751 58.758,9.751 Z M 99.839,9.906 C 99.855,9.906 99.871,9.914 99.880,9.928 99.946,10.031 99.950,10.166 99.901,10.276 99.891,10.298 99.878,10.327 99.852,10.331 99.733,10.333 99.614,10.332 99.495,10.333 98.985,10.334 98.474,10.334 97.963,10.332 97.936,10.332 97.900,10.342 97.882,10.316 97.824,10.229 97.812,10.117 97.839,10.018 97.853,9.978 97.864,9.928 97.906,9.908 98.548,9.907 99.190,9.907 99.832,9.907 99.834,9.906 99.837,9.906 99.839,9.906 Z M 2.522,9.987 C 2.968,10.248 2.968,10.248 2.968,10.248 2.976,10.762 2.976,10.762 2.976,10.762 2.539,11.036 2.539,11.036 2.539,11.036 2.094,10.775 2.094,10.775 2.094,10.775 2.086,10.262 2.086,10.262 2.086,10.262 Z M 3.887,10.146 C 6.381,10.146 6.381,10.146 6.381,10.146 6.381,12.261 6.381,12.261 6.381,12.261 5.609,12.261 5.609,12.261 5.609,12.261 5.299,12.648 4.988,13.035 4.677,13.423 4.677,15.745 4.678,18.067 4.677,20.389 4.681,20.404 4.673,20.418 4.661,20.427 4.641,20.455 4.607,20.468 4.573,20.470 4.497,20.264 4.440,20.050 4.390,19.837 4.237,19.165 4.143,18.480 4.072,17.795 3.929,16.373 3.893,14.943 3.887,13.514 Z M 8.507,10.146 C 8.865,10.146 8.865,10.146 8.865,10.146 8.865,12.261 8.865,12.261 8.865,12.261 8.507,12.261 8.507,12.261 8.507,12.261 Z M 10.991,10.146 C 11.349,10.146 11.349,10.146 11.349,10.146 11.349,12.261 11.349,12.261 11.349,12.261 10.991,12.261 10.991,12.261 10.991,12.261 Z M 13.475,10.146 C 16.909,10.146 16.909,10.146 16.909,10.146 17.022,10.146 17.022,10.146 17.022,10.146 17.022,12.261 17.022,12.261 17.022,12.261 16.909,12.261 16.909,12.261 16.909,12.261 13.475,12.261 13.475,12.261 13.475,12.261 Z M 20.393,10.209 C 52.339,10.209 52.339,10.209 52.339,10.209 52.339,11.683 52.339,11.683 52.339,11.683 41.690,11.683 31.042,11.683 20.393,11.683 Z M 3.106,10.985 C 3.123,12.034 3.123,12.034 3.123,12.034 2.678,11.773 2.678,11.773 2.678,11.773 2.670,11.260 2.670,11.260 2.670,11.260 Z M 1.970,11.003 C 2.415,11.264 2.415,11.264 2.415,11.264 2.424,11.777 2.424,11.777 2.424,11.777 1.987,12.052 1.987,12.052 1.987,12.052 Z M 20.393,11.859 C 32.918,11.859 32.918,11.859 32.918,11.859 32.918,12.908 32.918,12.908 32.918,12.908 31.764,12.908 31.764,12.908 31.764,12.908 31.874,12.875 31.965,12.786 32.013,12.682 32.069,12.567 32.075,12.426 32.015,12.311 31.969,12.218 31.884,12.147 31.786,12.115 31.636,12.062 31.475,12.087 31.319,12.078 30.724,12.069 30.129,12.048 29.534,12.049 29.450,12.049 29.366,12.049 29.283,12.049 29.159,12.054 29.030,12.050 28.915,12.101 28.840,12.134 28.794,12.213 28.793,12.294 28.790,12.348 28.798,12.407 28.837,12.449 28.907,12.530 29.013,12.568 29.113,12.597 29.246,12.634 29.385,12.639 29.521,12.659 30.199,12.741 30.876,12.831 31.555,12.908 25.153,12.908 25.153,12.908 25.153,12.908 24.967,12.659 24.781,12.410 24.596,12.161 20.393,12.161 20.393,12.161 20.393,12.161 Z M 33.194,11.859 C 37.643,11.859 37.643,11.859 37.643,11.859 37.643,17.960 37.643,17.960 37.643,17.960 36.160,17.409 34.677,16.859 33.194,16.309 Z M 37.919,11.859 C 52.150,11.859 52.150,11.859 52.150,11.859 52.150,14.471 52.150,14.471 52.150,14.471 51.253,14.471 51.253,14.471 51.253,14.471 50.474,12.892 50.474,12.892 50.474,12.892 37.919,12.892 37.919,12.892 37.919,12.892 Z M 2.554,12.000 C 2.999,12.261 2.999,12.261 2.999,12.261 3.007,12.775 3.007,12.775 3.007,12.775 2.571,13.049 2.571,13.049 2.571,13.049 2.126,12.789 2.126,12.789 2.126,12.789 2.117,12.275 2.117,12.275 2.117,12.275 Z M 29.537,12.180 C 30.137,12.181 30.738,12.200 31.338,12.210 31.466,12.215 31.596,12.201 31.721,12.232 31.801,12.253 31.876,12.311 31.907,12.390 31.951,12.501 31.914,12.633 31.832,12.716 31.789,12.758 31.730,12.793 31.668,12.787 30.975,12.711 30.284,12.619 29.591,12.535 29.464,12.518 29.336,12.509 29.209,12.484 29.121,12.465 29.031,12.440 28.958,12.385 28.922,12.362 28.918,12.314 28.928,12.276 28.932,12.238 28.969,12.216 29.002,12.207 29.138,12.175 29.278,12.182 29.417,12.180 29.457,12.180 29.497,12.180 29.537,12.180 Z M 31.650,12.250 C 31.510,12.250 31.398,12.363 31.398,12.502 31.398,12.642 31.510,12.754 31.650,12.754 31.789,12.754 31.902,12.642 31.902,12.502 31.902,12.363 31.789,12.250 31.650,12.250 Z M 31.650,12.316 C 31.753,12.316 31.837,12.399 31.837,12.502 31.837,12.606 31.753,12.689 31.650,12.689 31.546,12.689 31.463,12.606 31.463,12.502 31.463,12.399 31.546,12.316 31.650,12.316 Z M 20.205,12.349 C 24.501,12.349 24.501,12.349 24.501,12.349 24.890,12.870 24.890,12.870 24.890,12.870 24.609,12.870 24.609,12.870 24.609,12.870 20.431,12.870 20.431,12.870 20.431,12.870 20.431,12.575 20.431,12.575 20.431,12.575 20.431,12.349 20.431,12.349 20.431,12.349 20.205,12.349 20.205,12.349 20.205,12.349 Z M 5.735,12.524 C 6.381,12.524 6.381,12.524 6.381,12.524 6.381,12.993 6.381,12.993 6.381,12.993 6.381,13.105 6.471,13.195 6.583,13.195 8.304,13.195 8.304,13.195 8.304,13.195 8.416,13.195 8.507,13.105 8.507,12.993 8.507,12.524 8.507,12.524 8.507,12.524 8.865,12.524 8.865,12.524 8.865,12.524 8.865,12.993 8.865,12.993 8.865,12.993 8.865,13.105 8.955,13.195 9.067,13.195 10.789,13.195 10.789,13.195 10.789,13.195 10.901,13.195 10.991,13.105 10.991,12.993 10.991,12.524 10.991,12.524 10.991,12.524 11.349,12.524 11.349,12.524 11.349,12.524 11.349,12.993 11.349,12.993 11.349,12.993 11.349,13.105 11.440,13.195 11.551,13.195 13.273,13.195 13.273,13.195 13.273,13.195 13.385,13.195 13.475,13.105 13.475,12.993 13.475,12.524 13.475,12.524 13.475,12.524 17.022,12.524 17.022,12.524 17.022,12.524 17.022,12.736 17.022,12.736 17.022,12.736 19.489,13.257 19.489,13.257 19.489,13.257 20.205,13.257 20.205,13.257 20.205,13.257 20.205,13.096 20.205,13.096 20.205,13.096 21.510,13.385 22.261,14.370 22.944,16.006 21.450,20.918 21.450,20.918 21.450,20.918 20.746,21.011 20.746,21.011 20.746,21.011 13.170,19.240 13.170,19.240 13.170,19.240 4.941,19.240 4.941,19.240 4.941,19.240 4.941,13.515 4.941,13.515 4.941,13.515 Z M 17.210,12.524 C 20.055,12.524 20.055,12.524 20.055,12.524 20.055,12.537 20.055,12.537 20.055,12.537 20.055,13.069 20.055,13.069 20.055,13.069 20.017,13.069 20.017,13.069 20.017,13.069 19.509,13.069 19.509,13.069 19.509,13.069 18.742,12.907 17.976,12.745 17.210,12.583 17.210,12.537 17.210,12.537 17.210,12.537 Z M 3.138,12.998 C 3.154,14.047 3.154,14.047 3.154,14.047 2.709,13.786 2.709,13.786 2.709,13.786 2.701,13.273 2.701,13.273 2.701,13.273 Z M 2.002,13.016 C 2.447,13.277 2.447,13.277 2.447,13.277 2.455,13.790 2.455,13.790 2.455,13.790 2.019,14.065 2.019,14.065 2.019,14.065 Z M 25.058,13.096 C 32.071,13.096 32.071,13.096 32.071,13.096 32.071,13.096 32.071,13.096 32.071,13.096 32.918,13.096 32.918,13.096 32.918,13.096 32.918,15.960 32.918,15.960 32.918,15.960 31.964,15.960 31.964,15.960 31.964,15.960 32.034,15.913 32.081,15.829 32.071,15.744 32.071,13.096 32.071,13.096 32.071,13.096 31.832,13.096 31.832,13.096 31.832,13.096 31.832,15.761 31.832,15.761 31.832,15.761 27.077,15.761 27.077,15.761 27.077,15.761 26.579,15.548 26.579,15.548 26.579,15.548 26.462,14.969 26.462,14.969 26.462,14.969 27.931,14.167 27.931,14.167 27.931,14.167 28.404,14.585 28.747,14.942 29.377,15.227 29.519,15.071 29.519,15.071 29.519,15.071 29.022,14.670 28.801,14.340 28.853,13.664 29.893,13.096 29.893,13.096 29.893,13.096 26.084,13.096 26.084,13.096 26.084,13.096 25.058,13.096 25.058,13.096 25.058,13.096 Z M 37.919,13.167 C 50.303,13.167 50.303,13.167 50.303,13.167 50.593,13.756 50.884,14.345 51.175,14.934 51.847,14.934 51.847,14.934 51.847,14.934 51.907,15.006 51.968,15.077 52.028,15.148 52.028,16.649 52.028,16.649 52.028,16.649 52.120,16.649 52.211,16.649 52.302,16.649 52.457,16.655 52.597,16.507 52.580,16.353 52.580,14.978 52.580,14.978 52.580,14.978 54.781,14.978 54.781,14.978 54.781,14.978 54.781,18.080 54.781,18.080 54.781,18.080 49.759,18.080 49.759,18.080 49.759,18.080 49.759,14.537 49.759,14.537 49.759,14.537 49.141,14.537 49.141,14.537 49.141,14.537 49.141,18.080 49.141,18.080 49.141,18.080 48.629,18.080 48.629,18.080 48.629,18.080 48.629,14.537 48.629,14.537 48.629,14.537 48.011,14.537 48.011,14.537 48.011,14.537 48.011,18.080 48.011,18.080 48.011,18.080 47.499,18.080 47.499,18.080 47.499,18.080 47.499,14.537 47.499,14.537 47.499,14.537 46.882,14.537 46.882,14.537 46.882,14.537 46.882,18.080 46.882,18.080 46.882,18.080 46.370,18.080 46.370,18.080 46.370,18.080 46.370,14.537 46.370,14.537 46.370,14.537 45.752,14.537 45.752,14.537 45.752,14.537 45.752,18.080 45.752,18.080 45.752,18.080 45.240,18.080 45.240,18.080 45.240,18.080 45.240,14.537 45.240,14.537 45.240,14.537 44.623,14.537 44.623,14.537 44.623,14.537 44.623,18.080 44.623,18.080 44.623,18.080 44.111,18.080 44.111,18.080 44.111,18.080 44.111,14.537 44.111,14.537 44.111,14.537 43.493,14.537 43.493,14.537 43.493,14.537 43.493,18.080 43.493,18.080 43.493,18.080 42.981,18.080 42.981,18.080 42.981,18.080 42.981,14.537 42.981,14.537 42.981,14.537 42.363,14.537 42.363,14.537 42.363,14.537 42.363,18.080 42.363,18.080 42.363,18.080 37.919,18.080 37.919,18.080 37.919,18.080 37.919,16.372 37.919,16.372 37.919,16.372 Z M 21.276,13.309 C 22.348,13.309 22.348,13.309 22.348,13.309 23.290,14.153 23.829,15.134 23.740,16.006 23.712,16.163 22.431,20.918 22.431,20.918 22.113,22.104 23.989,21.962 24.653,21.876 24.506,22.370 24.361,22.865 24.217,23.360 23.653,23.363 23.089,23.366 22.525,23.369 22.248,23.122 21.972,22.876 21.696,22.629 21.312,22.526 20.928,22.422 20.543,22.319 20.665,21.947 20.786,21.576 20.907,21.205 21.143,21.174 21.378,21.143 21.614,21.112 22.112,19.475 22.609,17.837 23.107,16.200 23.128,16.122 23.167,16.044 23.151,15.961 23.094,15.813 23.031,15.668 22.965,15.524 22.756,15.072 22.524,14.629 22.228,14.227 21.973,13.878 21.665,13.564 21.303,13.326 21.294,13.320 21.285,13.315 21.276,13.309 Z M 22.661,13.309 C 25.910,13.309 25.910,13.309 25.910,13.309 26.090,14.205 26.271,15.101 26.452,15.997 25.967,17.578 25.482,19.159 24.997,20.741 24.967,20.835 24.939,20.930 24.910,21.024 24.846,21.233 24.782,21.442 24.718,21.651 24.697,21.654 24.677,21.657 24.656,21.660 24.342,21.701 24.025,21.724 23.708,21.714 23.470,21.705 23.228,21.684 23.002,21.606 22.932,21.581 22.862,21.552 22.798,21.510 22.724,21.461 22.659,21.391 22.630,21.307 22.602,21.223 22.605,21.132 22.621,21.047 22.801,20.365 22.984,19.684 23.166,19.003 23.413,18.079 23.663,17.157 23.902,16.232 23.945,16.092 23.965,15.945 23.963,15.799 23.957,15.396 23.843,15.000 23.666,14.640 23.420,14.143 23.069,13.703 22.671,13.318 22.668,13.315 22.665,13.312 22.661,13.309 Z M 26.376,13.334 C 28.960,13.334 28.960,13.334 28.960,13.334 28.778,13.433 28.595,13.533 28.413,13.632 28.251,13.721 28.088,13.810 27.926,13.898 27.495,14.134 27.063,14.369 26.632,14.605 26.547,14.181 26.461,13.758 26.376,13.334 Z M 28.659,13.770 C 28.659,13.820 28.659,13.820 28.659,13.820 28.656,13.976 28.671,14.132 28.710,14.283 28.755,14.463 28.842,14.630 28.954,14.777 28.651,14.572 28.386,14.321 28.114,14.078 28.114,14.067 28.114,14.067 28.114,14.067 28.566,13.820 28.566,13.820 28.566,13.820 28.566,13.820 28.566,13.820 28.566,13.820 28.597,13.820 28.628,13.820 28.659,13.820 28.566,13.820 28.566,13.820 28.566,13.820 Z M 2.586,14.013 C 3.031,14.274 3.031,14.274 3.031,14.274 3.039,14.788 3.039,14.788 3.039,14.788 2.602,15.063 2.602,15.063 2.602,15.063 2.157,14.802 2.157,14.802 2.157,14.802 2.149,14.288 2.149,14.288 2.149,14.288 Z M 42.551,14.725 C 42.793,14.725 42.793,14.725 42.793,14.725 42.793,18.068 42.793,18.068 42.793,18.068 42.551,18.068 42.551,18.068 42.551,18.068 Z M 43.681,14.725 C 43.923,14.725 43.923,14.725 43.923,14.725 43.923,18.068 43.923,18.068 43.923,18.068 43.681,18.068 43.681,18.068 43.681,18.068 Z M 44.811,14.725 C 45.052,14.725 45.052,14.725 45.052,14.725 45.052,18.068 45.052,18.068 45.052,18.068 44.811,18.068 44.811,18.068 44.811,18.068 Z M 45.940,14.725 C 46.182,14.725 46.182,14.725 46.182,14.725 46.182,18.068 46.182,18.068 46.182,18.068 45.940,18.068 45.940,18.068 45.940,18.068 Z M 47.070,14.725 C 47.311,14.725 47.311,14.725 47.311,14.725 47.311,18.068 47.311,18.068 47.311,18.068 47.070,18.068 47.070,18.068 47.070,18.068 Z M 48.199,14.725 C 48.441,14.725 48.441,14.725 48.441,14.725 48.441,18.068 48.441,18.068 48.441,18.068 48.199,18.068 48.199,18.068 48.199,18.068 Z M 49.329,14.725 C 49.571,14.725 49.571,14.725 49.571,14.725 49.571,18.068 49.571,18.068 49.571,18.068 49.329,18.068 49.329,18.068 49.329,18.068 Z M 3.170,15.011 C 3.186,16.060 3.186,16.060 3.186,16.060 2.741,15.799 2.741,15.799 2.741,15.799 2.733,15.286 2.733,15.286 2.733,15.286 Z M 2.034,15.029 C 2.479,15.290 2.479,15.290 2.479,15.290 2.487,15.803 2.487,15.803 2.487,15.803 2.050,16.078 2.050,16.078 2.050,16.078 Z M 55.333,15.574 C 55.971,15.574 55.971,15.574 55.971,15.574 55.971,17.503 55.971,17.503 55.971,17.503 55.333,17.503 55.333,17.503 55.333,17.503 Z M 2.645,16.016 C 3.112,16.290 3.112,16.290 3.112,16.290 3.121,16.829 3.121,16.829 3.121,16.829 2.663,17.117 2.663,17.117 2.663,17.117 2.196,16.843 2.196,16.843 2.196,16.843 2.187,16.305 2.187,16.305 2.187,16.305 Z M 3.258,17.063 C 3.275,18.164 3.275,18.164 3.275,18.164 2.808,17.890 2.808,17.890 2.808,17.890 2.800,17.351 2.800,17.351 2.800,17.351 Z M 2.066,17.082 C 2.533,17.356 2.533,17.356 2.533,17.356 2.542,17.894 2.542,17.894 2.542,17.894 2.083,18.183 2.083,18.183 2.083,18.183 Z M 2.679,18.128 C 3.146,18.402 3.146,18.402 3.146,18.402 3.154,18.941 3.154,18.941 3.154,18.941 2.696,19.229 2.696,19.229 2.696,19.229 2.229,18.956 2.229,18.956 2.229,18.956 2.220,18.417 2.220,18.417 2.220,18.417 Z M 3.291,19.175 C 3.758,19.449 3.758,19.449 3.758,19.449 3.767,19.988 3.767,19.988 3.767,19.988 3.308,20.276 3.308,20.276 3.308,20.276 2.841,20.002 2.841,20.002 2.841,20.002 2.833,19.463 2.833,19.463 2.833,19.463 Z M 2.099,19.194 C 2.566,19.468 2.566,19.468 2.566,19.468 2.575,20.006 2.575,20.006 2.575,20.006 2.117,20.295 2.117,20.295 2.117,20.295 1.650,20.021 1.650,20.021 1.650,20.021 1.641,19.482 1.641,19.482 1.641,19.482 Z M 5.141,19.441 C 13.146,19.441 13.146,19.441 13.146,19.441 15.593,20.013 18.040,20.585 20.487,21.156 20.371,21.512 20.255,21.867 20.139,22.222 17.751,21.582 15.363,20.942 12.975,20.301 5.141,20.301 5.141,20.301 5.141,20.301 Z M 5.388,19.451 C 5.388,20.253 5.388,20.253 5.388,20.253 12.700,20.253 12.700,20.253 12.700,20.253 12.700,19.451 12.700,19.451 12.700,19.451 Z M 5.500,19.564 C 12.587,19.564 12.587,19.564 12.587,19.564 12.587,20.141 12.587,20.141 12.587,20.141 5.500,20.141 5.500,20.141 5.500,20.141 Z M 4.083,19.674 C 4.107,19.787 4.130,19.889 4.153,19.982 4.175,20.074 4.197,20.157 4.218,20.231 4.239,20.304 4.259,20.368 4.277,20.424 4.259,20.368 4.239,20.304 4.218,20.231 4.197,20.157 4.175,20.074 4.153,19.982 4.130,19.889 4.107,19.787 4.083,19.674 Z M 2.712,20.240 C 3.179,20.514 3.179,20.514 3.179,20.514 3.187,21.053 3.187,21.053 3.187,21.053 2.729,21.341 2.729,21.341 2.729,21.341 2.262,21.068 2.262,21.068 2.262,21.068 2.254,20.529 2.254,20.529 2.254,20.529 Z M 1.520,20.259 C 1.987,20.533 1.987,20.533 1.987,20.533 1.996,21.072 1.996,21.072 1.996,21.072 1.537,21.360 1.537,21.360 1.537,21.360 Z " />
</svg>