<?xml version="1.0" encoding="UTF-8" standalone="no"?>
<!DOCTYPE svg PUBLIC "-//W3C//DTD SVG 20010904//EN" "http://www.w3.org/TR/2001/REC-SVG-20010904/DTD/svg10.dtd"[]>
<svg version="1.1" id="Frosty Editor v1.0.6.3" xmlns="http://www.w3.org/2000/svg" d1p1:xlink="http://www.w3.org/1999/xlink" viewBox="0 0 96 96" xmlns:d1p1="xmlns">
  <path stroke="none" fill="#ffffffff" d="M 30.770,20.650 C 39.461,29.230 39.461,29.230 39.461,29.230 32.858,35.820 26.253,42.410 19.650,49.000 35.000,64.350 35.000,64.350 35.000,64.350 35.917,63.077 36.833,61.802 37.750,60.529 33.723,56.732 29.697,52.938 25.670,49.141 31.590,43.444 37.510,37.748 43.430,32.051 50.270,40.150 50.270,40.150 50.270,40.150 50.270,20.650 50.270,20.650 50.270,20.650 30.770,20.650 30.770,20.650 30.770,20.650 Z M 61.000,31.650 C 60.083,32.923 59.167,34.198 58.250,35.471 62.277,39.268 66.303,43.062 70.330,46.859 64.407,52.556 58.484,58.252 52.561,63.949 45.721,55.850 45.721,55.850 45.721,55.850 45.721,75.340 45.721,75.340 45.721,75.340 65.189,75.340 65.189,75.340 65.189,75.340 62.306,72.483 59.422,69.627 56.539,66.770 63.142,60.180 69.747,53.590 76.350,47.000 61.000,31.650 61.000,31.650 61.000,31.650 Z M 47.600,40.600 C 47.300,40.600 47.000,40.901 47.000,41.201 47.000,43.301 47.000,43.301 47.000,43.301 45.900,42.201 45.900,42.201 45.900,42.201 45.600,41.901 45.200,42.001 45.000,42.301 44.900,42.468 44.801,42.634 44.701,42.801 44.601,43.001 44.601,43.300 44.801,43.500 47.100,45.801 47.100,45.801 47.100,45.801 47.100,47.100 47.100,47.100 47.100,47.100 45.801,47.100 45.801,47.100 45.801,47.100 43.600,44.900 43.600,44.900 43.600,44.900 43.400,44.700 43.100,44.701 42.900,44.801 42.733,44.901 42.567,45.000 42.400,45.100 42.100,45.300 42.001,45.700 42.301,46.000 43.301,47.000 43.301,47.000 43.301,47.000 41.201,47.000 41.201,47.000 41.201,47.000 40.901,47.000 40.600,47.300 40.600,47.600 40.600,48.400 40.600,48.400 40.600,48.400 40.600,48.700 40.901,49.000 41.201,49.000 43.301,49.000 43.301,49.000 43.301,49.000 42.201,50.100 42.201,50.100 42.201,50.100 41.901,50.400 42.001,50.800 42.301,51.000 42.468,51.100 42.634,51.201 42.801,51.301 43.001,51.401 43.300,51.401 43.500,51.201 45.701,49.000 45.701,49.000 45.701,49.000 47.000,49.000 47.000,49.000 47.000,49.000 47.000,50.201 47.000,50.201 47.000,50.201 45.000,52.201 45.000,52.201 45.000,52.201 44.800,52.401 44.800,52.700 44.900,52.900 45.000,53.067 45.101,53.233 45.201,53.400 45.401,53.700 45.800,53.800 46.100,53.500 47.000,52.600 47.000,52.600 47.000,52.600 47.000,54.801 47.000,54.801 47.000,54.801 47.000,55.101 47.300,55.400 47.600,55.400 48.301,55.400 48.301,55.400 48.301,55.400 48.601,55.400 48.900,55.101 48.900,54.801 48.900,52.600 48.900,52.600 48.900,52.600 49.233,52.867 49.567,53.133 49.900,53.400 50.200,53.700 50.601,53.601 50.801,53.301 50.901,53.134 51.000,52.968 51.100,52.801 51.200,52.601 51.200,52.300 51.000,52.100 49.000,50.100 49.000,50.100 49.000,50.100 49.000,48.900 49.000,48.900 49.000,48.900 50.201,48.900 50.201,48.900 50.201,48.900 52.201,50.900 52.201,50.900 52.201,50.900 52.401,51.100 52.700,51.100 52.900,51.000 53.067,50.900 53.233,50.801 53.400,50.701 53.700,50.501 53.800,50.101 53.500,49.801 52.600,48.900 52.600,48.900 52.600,48.900 54.801,48.900 54.801,48.900 54.801,48.900 55.201,48.900 55.400,48.700 55.400,48.400 55.400,47.600 55.400,47.600 55.400,47.600 55.400,47.300 55.101,47.000 54.801,47.000 52.600,47.000 52.600,47.000 52.600,47.000 52.867,46.667 53.133,46.333 53.400,46.000 53.700,45.700 53.601,45.300 53.301,45.100 53.134,45.000 52.968,44.901 52.801,44.801 52.601,44.701 52.300,44.700 52.100,44.900 50.100,46.900 50.100,46.900 50.100,46.900 48.900,46.900 48.900,46.900 48.900,46.900 48.900,45.600 48.900,45.600 48.900,45.600 49.667,44.900 50.434,44.200 51.201,43.500 51.401,43.300 51.401,43.001 51.301,42.801 51.201,42.634 51.100,42.468 51.000,42.301 50.800,42.001 50.400,41.901 50.100,42.201 49.000,43.301 49.000,43.301 49.000,43.301 49.000,41.201 49.000,41.201 49.000,41.201 49.000,40.901 48.700,40.600 48.400,40.600 47.600,40.600 47.600,40.600 47.600,40.600 Z " />
</svg>