<?xml version="1.0" encoding="UTF-8" standalone="no"?>
<!DOCTYPE svg PUBLIC "-//W3C//DTD SVG 20010904//EN" "http://www.w3.org/TR/2001/REC-SVG-20010904/DTD/svg10.dtd"[]>
<svg version="1.1" id="Frosty Editor v1.0.6.3" xmlns="http://www.w3.org/2000/svg" d1p1:xlink="http://www.w3.org/1999/xlink" viewBox="0 0 384 96" xmlns:d1p1="xmlns">
  <path stroke="none" fill="#ffffffff" d="M 297.400,10.300 C 297.400,10.200 297.400,10.000 297.400,9.900 297.400,9.700 297.300,9.600 297.100,9.600 296.700,9.600 296.400,9.600 296.000,9.600 295.200,9.600 295.300,9.700 295.200,8.800 295.200,8.600 295.200,8.400 295.200,8.300 295.200,7.500 295.200,6.800 295.200,6.000 295.200,5.500 295.200,5.500 294.600,5.500 294.500,5.500 294.300,5.500 294.200,5.500 292.300,5.500 290.500,5.500 288.600,5.500 270.400,5.500 252.100,5.500 233.900,5.500 233.700,5.500 233.500,5.500 233.400,5.500 232.900,5.500 232.900,5.500 232.900,5.000 232.900,4.700 232.900,4.400 232.800,4.000 228.200,4.000 223.600,4.000 219.000,4.000 218.900,4.000 218.800,4.000 218.600,4.000 218.500,4.400 218.600,4.900 218.500,5.300 188.600,5.300 188.600,5.300 188.600,5.300 188.500,5.100 188.500,4.900 188.500,4.800 188.500,4.300 188.500,3.800 188.500,3.300 188.500,3.100 188.400,3.000 188.200,3.000 188.000,3.000 187.800,3.000 187.600,3.000 181.400,3.000 175.200,3.000 169.000,3.000 168.700,3.000 168.400,2.900 168.200,3.100 168.000,3.300 168.100,3.600 168.100,3.800 168.100,3.900 168.000,4.000 167.900,4.000 167.800,4.000 167.700,4.000 167.600,4.000 167.000,3.900 166.400,4.100 165.900,4.500 165.800,4.600 165.700,4.600 165.600,4.700 165.300,4.900 165.000,5.000 164.700,4.900 164.700,4.900 164.600,4.900 164.600,4.900 158.900,4.900 153.200,4.900 147.400,4.900 147.000,4.900 146.700,4.800 146.400,4.700 144.500,3.800 142.600,3.800 140.800,4.700 140.500,4.800 140.200,4.900 139.900,4.900 139.400,4.900 139.000,4.900 138.500,4.900 137.300,4.900 136.100,4.900 134.900,4.900 134.700,4.900 134.500,4.900 134.500,5.200 134.500,5.300 134.400,5.300 134.300,5.300 134.100,5.300 133.900,5.200 133.700,5.200 131.000,4.600 128.300,4.000 125.600,3.400 124.100,3.100 122.600,2.700 121.100,2.400 121.000,2.400 121.000,2.400 120.900,2.300 120.700,2.300 120.600,2.200 120.400,2.200 120.300,2.200 120.300,2.200 120.300,2.200 120.300,2.300 120.300,2.300 120.200,2.400 120.200,2.400 120.200,2.400 120.200,2.500 120.100,2.900 120.000,3.400 120.000,3.800 119.900,5.300 119.600,6.700 118.500,7.800 118.200,8.100 118.100,8.500 118.200,8.900 118.200,9.200 118.300,9.400 118.300,9.600 118.500,11.100 118.700,12.700 118.900,14.200 119.000,15.100 119.100,15.900 119.100,16.800 119.100,18.600 119.100,20.400 119.100,22.200 119.100,22.700 119.200,23.100 119.400,23.500 119.500,23.700 119.500,23.800 119.600,24.000 119.700,24.200 119.600,24.400 119.400,24.400 119.300,24.400 119.100,24.500 119.000,24.500 118.700,24.600 118.500,24.800 118.400,25.000 118.000,25.700 118.200,26.500 118.800,26.900 119.000,27.100 119.300,27.100 119.600,27.000 120.000,26.800 120.400,26.600 120.800,26.400 121.100,26.300 121.200,26.300 121.500,26.500 122.300,27.100 123.000,27.700 123.800,28.200 125.600,29.500 127.400,30.900 129.100,32.200 129.900,32.800 130.600,33.500 131.100,34.400 132.300,36.300 132.600,38.300 132.500,40.500 132.500,40.800 132.300,41.100 132.100,41.400 130.500,43.800 129.000,46.200 127.400,48.600 125.500,51.400 123.700,54.200 121.800,57.000 120.700,58.700 119.600,60.300 118.500,62.000 117.900,63.000 117.200,64.000 116.500,64.900 116.100,65.400 115.700,65.900 115.100,66.200 114.500,66.500 114.200,66.900 113.900,67.400 113.800,67.600 113.700,67.800 113.600,68.000 112.600,69.900 112.100,71.900 111.900,73.900 111.700,75.400 111.600,76.900 111.700,78.400 111.700,79.300 111.800,80.200 111.900,81.100 112.000,81.800 112.300,82.300 113.000,82.600 113.400,82.700 113.800,82.900 114.200,83.100 114.300,83.100 114.500,83.100 114.500,83.300 114.400,83.600 114.100,83.600 114.100,83.900 114.100,84.000 114.100,84.000 114.200,84.000 115.900,85.600 117.400,87.400 119.100,88.900 119.400,89.100 119.600,89.400 119.700,89.700 120.100,90.600 120.700,91.400 121.500,91.900 123.300,93.100 125.200,93.300 127.200,92.300 127.600,92.100 128.000,92.000 128.400,92.000 128.600,92.000 128.800,92.000 129.000,92.000 130.700,92.000 132.300,91.700 134.000,91.500 137.100,90.800 139.400,89.100 140.800,86.200 142.400,83.000 143.900,79.800 145.400,76.600 146.200,75.000 147.000,73.500 148.100,72.000 151.200,67.600 154.300,63.200 157.400,58.800 159.900,55.200 162.400,51.600 164.900,48.000 165.400,47.200 166.100,46.600 166.900,46.000 167.700,45.400 168.500,45.100 169.500,45.000 170.500,44.900 171.500,44.900 172.500,45.000 173.500,45.100 174.400,45.300 175.200,45.800 176.100,46.300 177.100,46.600 178.000,46.800 178.800,47.000 179.600,47.100 180.400,47.200 181.400,47.300 182.500,47.300 183.500,47.100 184.400,46.900 185.300,46.800 186.200,46.500 188.400,45.800 190.100,44.600 191.400,42.800 192.500,41.300 193.200,39.600 193.600,37.700 193.600,37.500 193.600,37.300 193.800,37.100 194.000,37.200 194.300,37.300 194.500,37.400 194.700,37.500 195.000,37.500 195.200,37.500 198.900,37.500 202.500,37.500 206.200,37.500 208.400,37.500 210.700,37.500 212.900,37.500 213.700,37.500 213.500,37.600 213.900,37.000 214.700,35.800 215.400,34.500 216.200,33.300 216.700,32.500 216.500,32.600 217.400,32.600 233.000,32.600 248.700,32.600 264.300,32.600 265.000,32.600 265.800,32.600 266.500,32.600 266.800,32.600 267.000,32.500 267.100,32.300 268.100,30.500 269.100,28.700 270.200,27.000 270.300,26.900 270.400,26.800 270.200,26.600 269.400,26.600 269.400,26.600 269.400,26.600 257.500,26.600 245.700,26.600 233.800,26.600 232.700,26.600 232.900,26.800 232.800,25.600 232.800,25.400 232.800,25.100 232.900,24.900 233.200,24.900 233.400,24.900 233.700,24.900 247.200,24.900 260.800,24.900 274.300,24.900 280.900,24.900 287.600,24.900 294.200,24.900 294.500,24.900 294.800,25.000 295.000,24.800 295.000,24.000 295.000,24.000 295.000,24.000 295.000,23.100 295.000,22.100 295.000,21.200 295.000,20.800 295.000,20.800 295.400,20.800 295.900,20.800 296.400,20.800 296.800,20.800 297.000,20.800 297.100,20.700 297.100,20.500 297.100,20.400 297.100,20.200 297.100,20.100 297.400,17.200 297.400,13.700 297.400,10.300 Z M 221.200,9.300 C 221.200,9.100 221.200,8.900 221.200,8.700 221.200,8.600 221.200,8.500 221.300,8.400 221.600,8.300 221.600,8.100 221.600,7.800 221.600,7.600 221.600,7.400 221.600,7.300 221.600,7.000 221.600,7.000 221.900,7.000 224.600,7.000 227.200,7.000 229.900,7.000 230.200,7.000 230.200,7.000 230.200,7.300 230.200,7.600 230.000,8.100 230.300,8.300 230.500,8.500 230.900,8.300 231.300,8.400 231.400,8.400 231.500,8.500 231.500,8.600 231.500,8.800 231.500,9.000 231.500,9.200 231.500,11.700 231.500,14.200 231.500,16.700 231.500,16.700 231.500,16.700 231.500,16.700 231.500,19.200 231.500,21.700 231.500,24.200 231.500,24.400 231.500,24.600 231.500,24.800 231.500,25.000 231.400,25.000 231.300,25.000 231.100,25.000 230.900,25.000 230.700,25.000 228.200,25.000 225.700,25.000 223.300,25.000 222.800,25.000 222.300,25.000 221.900,25.000 221.400,25.000 221.400,25.000 221.400,24.500 221.400,24.300 221.400,24.100 221.400,23.900 221.200,19.100 221.200,14.200 221.200,9.300 Z M 218.900,8.600 C 218.900,8.500 219.000,8.400 219.000,8.400 219.200,8.400 219.400,8.300 219.500,8.400 219.600,8.400 219.600,8.500 219.600,8.600 219.600,8.800 219.600,9.000 219.600,9.100 219.600,13.800 219.600,18.600 219.600,23.300 219.600,23.500 219.600,23.600 219.600,23.800 219.600,24.200 219.500,24.200 219.100,24.200 219.000,24.200 218.900,24.100 218.900,24.100 218.900,23.900 218.900,23.700 218.900,23.500 218.900,21.100 218.900,18.700 218.900,16.300 218.900,13.900 218.900,11.600 218.900,9.200 218.800,9.000 218.800,8.800 218.900,8.600 Z M 216.700,8.800 C 216.700,8.400 216.900,8.300 217.300,8.400 217.400,8.400 217.400,8.500 217.400,8.600 217.400,8.800 217.400,9.000 217.400,9.200 217.400,11.600 217.400,14.000 217.400,16.300 217.400,18.600 217.400,21.000 217.400,23.300 217.400,23.500 217.400,23.700 217.400,23.900 217.400,24.200 217.300,24.200 217.100,24.200 216.800,24.200 216.700,24.200 216.700,23.800 216.700,23.600 216.700,23.400 216.700,23.300 216.700,18.600 216.700,13.900 216.700,9.300 216.700,9.100 216.700,8.900 216.700,8.800 Z M 214.600,8.800 C 214.600,8.400 214.800,8.300 215.200,8.400 215.300,8.400 215.300,8.500 215.400,8.500 215.400,8.700 215.400,8.900 215.400,9.100 215.400,11.500 215.400,13.900 215.400,16.300 215.400,18.700 215.400,21.000 215.400,23.400 215.400,23.600 215.400,23.800 215.400,24.000 215.400,24.100 215.300,24.200 215.300,24.200 215.200,24.200 215.000,24.200 214.900,24.200 214.800,24.200 214.800,24.100 214.800,24.000 214.800,23.800 214.800,23.600 214.800,23.500 214.800,18.700 214.800,13.900 214.800,9.100 214.600,9.000 214.600,8.900 214.600,8.800 Z M 213.000,8.400 C 213.200,8.400 213.300,8.500 213.300,8.700 213.300,8.900 213.300,9.100 213.300,9.300 213.300,11.600 213.300,14.000 213.300,16.300 213.300,18.700 213.300,21.000 213.300,23.400 213.300,23.600 213.300,23.800 213.300,23.900 213.300,24.200 213.200,24.300 212.900,24.300 212.800,24.300 212.700,24.200 212.600,24.100 212.600,23.900 212.600,23.800 212.600,23.600 212.600,18.800 212.600,13.900 212.600,9.100 212.600,9.000 212.600,8.900 212.600,8.900 212.600,8.400 212.700,8.400 213.000,8.400 Z M 210.500,16.200 C 210.500,13.800 210.500,11.500 210.500,9.100 210.500,8.900 210.500,8.700 210.500,8.500 210.500,8.400 210.600,8.300 210.600,8.300 210.800,8.300 211.000,8.200 211.100,8.300 211.200,8.300 211.200,8.400 211.200,8.500 211.200,8.700 211.200,8.900 211.200,9.000 211.200,13.800 211.200,18.500 211.200,23.300 211.200,23.400 211.200,23.600 211.200,23.700 211.200,24.100 211.100,24.100 210.700,24.100 210.500,24.100 210.400,24.000 210.400,23.800 210.400,23.600 210.400,23.400 210.400,23.200 210.500,20.900 210.500,18.600 210.500,16.200 Z M 208.400,8.700 C 208.400,8.400 208.500,8.300 208.800,8.300 209.000,8.300 209.100,8.400 209.100,8.600 209.100,8.700 209.100,8.800 209.100,8.800 209.100,13.700 209.100,18.600 209.100,23.500 209.100,23.600 209.100,23.600 209.100,23.700 209.100,24.100 209.000,24.100 208.600,24.100 208.400,24.100 208.300,24.000 208.300,23.800 208.300,23.600 208.300,23.400 208.300,23.200 208.300,20.900 208.300,18.500 208.300,16.200 208.300,13.800 208.300,11.400 208.300,9.100 208.400,9.000 208.400,8.900 208.400,8.700 Z M 206.300,9.200 C 206.300,9.000 206.300,8.800 206.300,8.600 206.300,8.500 206.400,8.400 206.500,8.400 206.600,8.400 206.800,8.400 206.900,8.400 207.000,8.400 207.000,8.500 207.000,8.500 207.000,8.600 207.000,8.800 207.000,8.900 207.000,13.800 207.000,18.700 207.000,23.500 207.000,23.600 207.000,23.700 207.000,23.700 207.000,24.100 206.900,24.100 206.600,24.100 206.400,24.100 206.300,24.000 206.300,23.800 206.300,23.600 206.300,23.400 206.300,23.200 206.300,20.800 206.300,18.500 206.300,16.100 206.300,13.900 206.300,11.500 206.300,9.200 Z M 204.700,8.400 C 204.900,8.400 205.000,8.500 205.000,8.700 205.000,8.900 205.000,9.100 205.000,9.300 205.000,11.600 205.000,14.000 205.000,16.300 205.000,18.700 205.000,21.000 205.000,23.400 205.000,23.600 205.000,23.800 205.000,23.900 205.000,24.200 204.900,24.300 204.600,24.300 204.500,24.300 204.400,24.200 204.300,24.100 204.300,23.900 204.300,23.800 204.300,23.600 204.300,18.800 204.300,13.900 204.300,9.100 204.300,9.000 204.300,8.900 204.300,8.900 204.200,8.400 204.300,8.400 204.700,8.400 Z M 202.100,8.600 C 202.100,8.500 202.200,8.400 202.200,8.400 202.400,8.400 202.600,8.300 202.700,8.400 202.800,8.400 202.800,8.500 202.800,8.600 202.800,8.800 202.800,8.900 202.800,9.100 202.800,13.900 202.800,18.700 202.800,23.400 202.800,23.500 202.800,23.700 202.800,23.800 202.800,24.200 202.700,24.200 202.300,24.200 202.200,24.200 202.100,24.100 202.000,24.000 202.000,23.800 202.000,23.600 202.000,23.400 202.000,21.000 202.000,18.600 202.000,16.300 202.000,16.300 202.000,16.300 202.000,16.300 202.000,13.900 202.000,11.600 202.000,9.200 202.100,9.000 202.100,8.800 202.100,8.600 Z M 187.800,8.600 C 187.800,8.500 187.900,8.400 188.000,8.400 188.300,8.400 188.500,8.400 188.800,8.400 190.600,8.400 192.500,8.400 194.300,8.400 196.200,8.400 198.100,8.400 200.000,8.400 200.200,8.400 200.300,8.400 200.500,8.400 200.700,8.400 200.800,8.500 200.800,8.700 200.800,8.800 200.800,8.900 200.800,9.000 200.800,11.700 200.800,14.400 200.800,17.000 200.800,17.100 200.800,17.300 200.800,17.400 200.800,17.500 200.700,17.600 200.600,17.600 200.400,17.600 200.300,17.600 200.100,17.600 196.200,17.600 192.300,17.600 188.400,17.600 188.300,17.600 188.100,17.600 188.000,17.600 187.900,17.600 187.800,17.500 187.800,17.400 187.800,17.300 187.800,17.100 187.800,17.000 187.800,14.300 187.800,11.600 187.800,9.000 187.800,8.800 187.800,8.700 187.800,8.600 Z M 200.400,21.000 C 199.900,21.200 199.500,21.100 199.000,21.100 195.600,21.100 192.200,21.100 188.800,21.100 188.600,21.100 188.300,21.100 188.100,21.100 188.000,21.100 187.900,21.000 187.900,20.900 187.900,20.400 187.900,20.000 187.900,19.500 187.900,19.300 188.000,19.200 188.200,19.200 188.400,19.200 188.600,19.200 188.800,19.200 190.600,19.200 192.400,19.200 194.300,19.200 196.100,19.200 197.900,19.200 199.800,19.200 200.000,19.200 200.200,19.200 200.400,19.200 200.500,19.200 200.600,19.300 200.600,19.400 200.600,19.400 200.600,19.500 200.600,19.600 200.400,20.000 200.500,20.500 200.400,21.000 Z M 169.600,19.900 C 170.600,19.900 170.500,20.000 170.500,19.000 170.500,15.300 170.500,11.600 170.500,7.900 170.500,7.700 170.500,7.600 170.500,7.400 170.500,7.300 170.500,7.200 170.500,7.200 171.000,7.000 170.800,6.600 170.900,6.200 170.900,6.000 171.000,6.000 171.200,6.000 172.000,6.000 172.800,6.000 173.600,6.000 177.400,6.000 181.200,6.000 185.100,6.000 185.200,6.000 185.400,6.000 185.500,6.000 185.800,6.000 185.800,6.100 185.800,6.300 185.800,6.800 185.800,7.400 185.800,7.900 185.800,8.100 185.800,8.400 186.100,8.400 186.200,8.400 186.200,8.500 186.200,8.600 186.200,8.800 186.200,8.900 186.200,9.100 186.200,12.900 186.200,16.700 186.200,20.500 186.200,21.200 186.300,21.200 185.600,21.200 183.800,21.200 182.100,21.200 180.300,21.200 178.400,21.200 176.600,21.800 175.100,23.000 174.100,23.800 173.400,24.700 172.900,25.900 172.500,26.700 172.700,26.600 171.800,26.600 171.400,26.600 171.100,26.500 170.800,26.200 169.900,25.400 169.800,25.400 168.600,25.400 160.000,25.400 151.300,25.400 142.700,25.400 141.500,25.400 140.400,24.500 140.100,23.600 139.700,22.300 140.200,20.900 141.300,20.200 141.700,20.000 142.000,19.900 142.500,19.900 143.500,19.900 144.400,19.900 145.400,19.900 149.000,19.900 152.700,19.900 156.300,19.900 156.300,19.900 156.300,19.900 156.300,19.900 160.600,19.900 165.100,19.900 169.600,19.900 Z M 167.900,12.500 C 165.400,12.500 162.900,12.500 160.500,12.500 160.100,12.500 159.800,12.400 159.400,12.300 158.700,12.000 157.900,11.800 157.200,11.500 157.000,11.400 156.700,11.300 156.500,11.200 156.500,11.200 156.500,11.100 156.500,11.100 157.000,11.100 157.000,11.100 157.000,11.100 160.700,11.100 164.400,11.100 168.100,11.100 168.300,11.100 168.400,11.100 168.600,11.100 168.800,11.100 168.900,11.200 168.900,11.400 168.900,11.400 168.900,11.500 168.900,11.500 168.800,12.700 169.000,12.500 167.900,12.500 Z M 149.700,8.000 C 150.000,7.900 150.300,7.900 150.500,7.900 155.400,7.900 160.300,7.900 165.200,7.900 165.700,7.900 166.100,7.800 166.600,7.500 166.700,7.400 166.800,7.400 166.900,7.300 167.400,7.000 168.000,7.000 168.600,7.000 168.800,7.000 168.900,7.100 168.900,7.300 168.900,7.900 168.900,8.600 168.900,9.200 168.900,9.400 168.800,9.500 168.600,9.500 168.400,9.500 168.200,9.500 168.100,9.500 162.400,9.500 156.700,9.500 151.000,9.500 150.800,9.500 150.500,9.600 150.300,9.400 150.000,9.300 150.000,9.000 150.000,8.800 149.900,8.500 149.700,8.300 149.700,8.000 Z M 143.700,5.800 C 146.400,5.800 148.600,8.100 148.600,10.800 148.600,13.200 146.800,15.700 143.600,15.800 140.800,15.800 138.600,13.600 138.600,10.800 138.700,7.600 141.300,5.800 143.700,5.800 Z M 131.700,7.800 C 132.500,8.000 133.400,8.200 134.200,8.400 134.400,8.400 134.500,8.500 134.700,8.500 135.200,8.700 135.700,8.700 136.100,8.200 136.300,7.900 136.600,7.900 136.900,7.900 137.100,7.900 137.400,7.800 137.600,8.000 137.400,8.500 137.200,9.000 137.100,9.600 136.500,12.800 138.400,16.400 142.100,17.200 145.700,18.000 149.200,15.800 150.000,12.200 150.100,12.000 150.100,11.800 150.100,11.500 150.200,11.100 150.200,11.100 150.600,11.100 150.900,11.100 151.100,11.200 151.400,11.300 153.900,12.200 156.400,13.000 158.900,13.900 159.300,14.100 159.800,14.100 160.200,14.100 162.700,14.100 165.200,14.100 167.700,14.100 167.900,14.100 168.100,14.100 168.300,14.100 168.600,14.100 168.600,14.200 168.600,14.400 168.600,15.500 168.600,16.700 168.600,17.800 168.600,18.000 168.500,18.100 168.300,18.100 168.100,18.100 167.800,18.100 167.600,18.100 159.700,18.100 151.800,18.100 143.900,18.100 143.300,18.100 142.700,18.200 142.100,18.100 140.800,18.000 139.600,17.600 138.500,17.000 136.200,15.800 134.600,14.000 133.600,11.600 133.400,11.200 133.300,10.800 133.200,10.500 133.000,9.700 132.500,9.000 132.000,8.400 131.800,8.200 131.700,8.100 131.500,7.900 131.700,7.900 131.700,7.800 131.700,7.800 Z M 131.800,11.000 C 132.300,12.500 132.900,14.000 133.900,15.200 135.300,17.100 137.100,18.400 139.300,19.200 139.400,19.200 139.400,19.200 139.500,19.300 139.500,19.300 139.500,19.300 139.500,19.300 139.500,19.300 139.500,19.300 139.500,19.400 139.500,19.400 139.400,19.500 139.400,19.500 136.400,18.600 134.000,16.900 132.600,14.000 132.000,12.800 131.500,11.500 131.200,10.100 131.600,10.300 131.700,10.600 131.800,11.000 Z M 122.300,7.300 C 122.400,7.100 122.500,6.800 122.600,6.600 122.700,6.300 122.600,6.000 122.900,5.900 123.100,5.800 123.400,6.000 123.700,6.000 124.600,6.200 125.500,6.400 126.400,6.600 126.500,6.600 126.600,6.700 126.800,6.700 125.300,6.900 123.800,7.100 122.400,7.700 122.200,7.600 122.200,7.500 122.300,7.300 Z M 122.600,23.700 C 122.500,23.400 122.300,23.000 122.200,22.700 122.100,22.400 122.100,22.200 122.100,21.900 122.100,20.100 122.100,18.300 122.100,16.500 122.100,15.700 122.000,14.900 121.900,14.100 121.800,13.200 121.700,12.300 121.500,11.500 121.500,11.200 121.500,11.000 121.600,10.800 121.900,9.900 122.600,9.400 123.400,9.100 123.800,9.000 124.200,8.900 124.600,8.800 125.800,8.600 127.100,8.500 128.300,8.500 128.500,8.500 128.700,8.500 128.900,8.500 129.300,8.500 129.300,8.600 129.300,8.900 129.400,9.300 129.400,9.700 129.500,10.100 130.000,12.700 131.000,15.200 132.800,17.300 134.100,18.900 135.800,20.000 137.700,20.700 137.900,20.800 138.100,20.800 138.300,20.900 138.400,20.900 138.500,21.000 138.400,21.100 138.400,21.200 138.300,21.400 138.200,21.400 138.000,21.400 137.800,21.400 137.700,21.400 136.200,21.400 134.800,22.200 134.100,24.000 133.800,24.900 133.800,25.800 133.800,26.800 133.800,27.100 133.900,27.300 133.800,27.700 130.600,24.900 126.800,23.600 122.600,23.700 Z M 139.300,25.500 C 139.300,25.700 139.200,25.700 139.100,25.700 137.900,26.300 136.900,27.000 136.000,28.000 136.000,28.000 135.900,28.100 135.800,28.200 135.600,27.000 135.500,25.800 135.800,24.600 136.000,23.900 136.500,23.400 137.200,23.100 137.400,23.100 137.500,23.000 137.700,23.000 138.300,23.000 138.300,23.000 138.400,23.500 138.500,24.300 138.800,24.900 139.300,25.500 Z M 130.900,30.200 C 129.000,28.800 127.200,27.400 125.300,26.000 125.100,25.800 124.900,25.700 124.700,25.500 124.700,25.400 124.700,25.400 124.800,25.400 128.200,25.800 131.100,27.100 133.500,29.500 133.700,29.700 133.900,29.900 134.100,30.200 134.200,30.300 134.200,30.400 134.100,30.500 133.800,31.200 133.500,32.000 133.300,32.700 133.300,32.700 133.200,32.800 133.200,32.800 133.100,32.600 132.900,32.400 132.700,32.200 132.300,31.500 131.700,30.800 130.900,30.200 Z M 124.600,91.800 C 122.600,91.800 120.800,90.300 120.800,88.000 120.800,85.700 122.700,84.200 124.600,84.200 126.500,84.200 128.400,85.600 128.400,88.000 128.400,90.300 126.600,91.800 124.600,91.800 Z M 190.900,37.300 C 190.600,38.800 190.000,40.300 189.100,41.500 188.200,42.700 187.000,43.600 185.600,44.000 184.700,44.300 183.700,44.500 182.800,44.600 182.200,44.700 181.500,44.600 180.900,44.500 179.200,44.200 177.600,43.500 176.200,42.500 174.900,41.500 174.100,40.200 173.700,38.600 173.400,37.300 173.300,35.900 173.400,34.500 173.500,33.900 173.700,33.300 173.900,32.800 174.000,32.500 174.200,32.300 174.400,32.100 175.100,31.500 175.800,31.100 176.600,30.700 176.600,30.700 176.700,30.700 176.700,30.700 176.800,30.900 176.700,31.000 176.600,31.200 176.200,32.300 175.900,33.400 176.000,34.600 176.100,38.800 179.000,41.900 182.400,42.700 182.700,42.800 182.800,42.800 183.000,42.500 183.100,42.300 183.200,42.200 183.300,42.000 183.200,41.800 182.900,41.700 182.800,41.600 180.700,40.000 179.600,37.900 179.600,35.200 179.600,33.300 180.400,31.600 181.700,30.100 181.900,29.900 182.100,29.800 182.400,29.800 183.900,29.900 185.500,30.100 187.000,30.400 187.400,30.500 187.700,30.600 188.000,30.800 188.400,31.100 188.800,31.400 189.200,31.700 190.700,33.300 191.300,35.200 190.900,37.300 Z M 176.800,30.700 C 176.800,30.700 176.800,30.700 176.800,30.700 176.800,30.700 176.900,30.700 176.800,30.700 176.900,30.800 176.800,30.800 176.800,30.700 Z M 192.800,31.700 C 192.500,31.600 192.400,31.400 192.300,31.200 191.800,30.500 191.200,29.900 190.500,29.300 189.500,28.500 188.400,27.900 187.000,27.700 185.100,27.400 183.200,27.100 181.300,27.100 179.800,27.100 178.300,27.200 176.900,27.700 175.400,28.200 174.000,28.900 172.800,29.900 172.000,30.600 171.400,31.400 171.000,32.500 170.300,34.700 170.400,36.800 170.800,39.000 171.000,40.100 171.400,41.100 172.000,42.100 172.100,42.200 172.200,42.300 172.100,42.500 171.400,42.500 170.800,42.500 170.200,42.500 167.200,42.500 164.800,43.900 163.000,46.200 162.300,47.100 161.700,48.000 161.100,48.900 156.800,55.000 152.500,61.100 148.300,67.200 147.000,69.000 145.800,70.800 144.500,72.500 144.300,72.900 144.000,73.200 143.800,73.600 141.900,77.500 140.100,81.400 138.200,85.300 137.200,87.400 135.400,88.700 133.100,89.000 132.100,89.200 131.100,89.300 130.200,89.400 129.900,89.400 129.900,89.400 129.900,89.100 130.000,88.400 130.000,87.800 129.900,87.100 129.600,85.500 128.400,83.400 125.800,82.800 123.700,82.300 121.400,83.200 120.100,85.000 119.900,85.300 119.800,85.600 119.600,85.900 119.000,85.300 118.400,84.700 117.800,84.100 117.700,84.000 117.700,83.900 117.800,83.800 118.000,83.400 118.200,82.900 118.400,82.500 118.500,82.400 118.400,82.200 118.300,82.200 117.800,82.000 117.300,81.800 116.800,81.500 116.200,81.200 115.600,81.000 115.100,80.700 114.900,80.600 114.800,80.500 114.800,80.200 114.700,79.000 114.700,77.700 114.800,76.500 114.900,75.100 115.000,73.600 115.400,72.200 115.600,71.200 116.000,70.300 116.500,69.400 116.600,69.200 116.700,69.000 117.000,68.800 117.700,68.400 118.200,67.900 118.800,67.300 119.600,66.400 120.300,65.300 121.000,64.300 122.300,62.300 123.600,60.200 125.000,58.200 127.400,54.600 129.800,51.000 132.100,47.400 133.000,46.000 134.000,44.500 134.900,43.100 135.300,42.600 135.500,42.000 135.500,41.300 135.700,39.700 135.600,38.200 135.200,36.700 135.100,36.500 135.100,36.200 135.100,36.000 135.100,35.700 135.100,35.300 135.100,35.000 135.200,31.400 136.900,28.800 140.100,27.200 140.400,27.000 140.700,27.000 141.100,27.000 143.500,27.000 146.000,27.000 148.400,27.000 155.100,27.000 161.700,27.000 168.400,27.000 168.400,27.000 168.500,27.000 168.500,27.000 169.100,26.900 169.600,27.100 170.100,27.500 170.300,27.700 170.500,27.800 170.600,27.900 170.800,28.000 170.900,28.100 171.200,28.100 172.100,28.100 173.000,28.100 173.900,28.100 174.200,28.100 174.200,28.100 174.200,27.800 174.800,25.100 176.800,23.200 179.500,22.900 180.000,22.800 180.500,22.800 180.900,22.800 187.200,22.800 193.600,22.800 199.900,22.800 200.900,22.800 200.700,22.700 200.700,23.700 200.700,24.700 200.700,25.700 200.700,26.700 200.700,27.700 200.400,28.600 199.700,29.400 199.000,30.200 198.100,30.700 197.000,30.800 196.600,30.800 196.200,30.800 195.900,30.800 195.500,30.800 195.100,30.800 194.800,30.900 193.800,30.900 193.600,31.000 192.800,31.700 Z M 267.400,28.300 C 267.700,28.300 267.900,28.300 268.300,28.300 268.000,29.000 267.700,29.500 267.400,30.000 267.300,30.100 267.200,30.200 267.100,30.200 266.900,30.200 266.700,30.200 266.500,30.200 249.600,30.200 232.600,30.200 215.700,30.200 215.600,30.200 215.600,30.200 215.500,30.200 215.200,30.100 215.000,30.300 214.800,30.600 214.200,31.600 213.600,32.600 213.000,33.700 212.800,34.100 212.500,34.500 212.300,34.900 212.200,35.100 212.100,35.200 211.800,35.200 211.600,35.200 211.500,35.200 211.300,35.200 206.100,35.200 200.800,35.200 195.600,35.200 195.400,35.200 195.200,35.200 195.100,35.200 194.400,35.200 193.900,34.600 193.800,33.900 193.800,33.200 194.200,32.500 195.000,32.500 195.300,32.500 195.700,32.500 196.100,32.500 196.800,32.500 197.500,32.500 198.200,32.300 200.100,31.700 201.300,30.300 201.900,28.400 202.100,27.800 202.200,27.100 202.200,26.500 202.200,26.100 202.200,26.100 202.600,26.100 202.700,26.100 202.900,26.100 203.000,26.100 208.100,26.100 213.200,26.100 218.300,26.100 218.500,26.100 218.700,26.100 218.900,26.100 219.100,26.100 219.400,26.100 219.600,26.200 219.800,26.300 219.700,26.600 219.700,26.800 219.700,26.900 219.800,27.000 219.900,27.000 220.100,27.000 220.300,27.000 220.500,27.000 223.900,27.000 227.200,27.000 230.600,27.000 230.800,27.000 231.000,27.000 231.200,27.000 231.500,27.000 231.500,27.100 231.500,27.300 231.500,27.600 231.500,28.000 231.500,28.300 231.500,28.400 231.600,28.500 231.700,28.500 231.900,28.500 232.200,28.500 232.400,28.500 244.100,28.300 255.700,28.300 267.400,28.300 Z M 289.000,22.400 C 270.600,22.400 252.200,22.400 233.900,22.400 233.800,22.400 233.600,22.400 233.500,22.400 233.200,22.400 233.200,22.400 233.200,22.000 233.200,21.800 233.200,21.600 233.200,21.500 233.200,17.400 233.200,13.300 233.200,9.300 233.200,9.100 233.200,8.800 233.200,8.600 233.200,8.500 233.300,8.400 233.400,8.400 233.600,8.400 233.900,8.400 234.100,8.400 252.400,8.400 270.700,8.400 289.000,8.400 289.800,8.400 289.800,8.400 289.800,8.400 289.800,9.200 289.800,9.200 289.800,9.200 289.800,13.400 289.800,17.500 289.800,21.700 289.800,22.500 289.900,22.400 289.000,22.400 Z M 292.400,12.100 C 292.400,13.200 292.400,14.300 292.400,15.400 292.400,17.400 292.400,19.500 292.400,21.500 292.400,21.700 292.400,21.900 292.400,22.100 292.400,22.100 292.400,22.200 292.300,22.200 292.200,22.300 291.600,22.300 291.500,22.200 291.500,22.200 291.400,22.100 291.400,22.100 291.400,22.000 291.400,21.800 291.400,21.700 291.400,17.400 291.400,13.100 291.400,8.800 291.400,8.700 291.400,8.500 291.400,8.400 291.400,8.200 291.600,8.200 291.700,8.200 291.900,8.200 292.200,8.100 292.300,8.400 292.300,8.600 292.300,8.800 292.300,8.900 292.400,10.100 292.400,11.100 292.400,12.100 Z M 295.800,19.500 C 295.800,19.600 295.700,19.600 295.600,19.600 295.500,19.600 295.400,19.600 295.400,19.500 295.400,19.300 295.400,19.100 295.400,19.000 295.400,17.800 295.400,16.700 295.400,15.500 295.400,14.300 295.400,13.100 295.400,11.900 295.400,11.800 295.400,11.600 295.400,11.500 295.400,11.400 295.600,11.400 295.700,11.400 295.800,11.400 295.900,11.500 295.900,11.500 295.900,11.600 295.900,11.700 295.900,11.800 295.900,14.300 295.900,16.800 295.900,19.300 295.800,19.300 295.800,19.400 295.800,19.500 Z " />
  <path stroke="none" fill="#ffffffff" d="M 124.300,78.400 C 124.300,77.000 125.400,75.400 127.300,75.400 129.000,75.400 130.400,76.800 130.400,78.500 130.400,79.900 129.300,81.500 127.300,81.500 125.500,81.500 124.300,79.800 124.300,78.400 Z M 127.400,80.300 C 128.500,80.300 129.300,79.400 129.300,78.400 129.300,77.400 128.500,76.500 127.400,76.500 126.300,76.500 125.500,77.300 125.400,78.400 125.400,79.400 126.300,80.300 127.400,80.300 Z " />
  <path stroke="none" fill="#ffffffff" d="M 167.000,41.300 C 166.400,41.200 165.800,41.200 165.300,41.100 164.100,40.900 163.200,39.900 163.100,38.700 163.000,37.600 163.700,36.500 164.800,36.000 165.900,35.600 167.200,36.000 167.900,37.000 168.400,37.800 168.700,38.700 169.000,39.600 169.200,40.400 168.700,41.200 167.800,41.300 167.400,41.300 167.200,41.300 167.000,41.300 Z M 167.200,38.500 C 167.200,37.600 166.500,36.800 165.500,36.800 164.600,36.800 163.800,37.500 163.800,38.500 163.800,39.400 164.600,40.200 165.500,40.200 166.400,40.200 167.200,39.400 167.200,38.500 Z " />
  <path stroke="none" fill="#ffffffff" d="M 196.700,29.700 C 195.200,29.700 194.000,28.400 194.100,27.000 194.200,25.500 195.300,24.400 196.800,24.400 198.300,24.400 199.500,25.700 199.400,27.100 199.400,28.500 198.200,29.700 196.700,29.700 Z M 196.700,25.300 C 195.800,25.300 195.000,26.100 195.000,27.000 195.000,27.900 195.800,28.700 196.700,28.700 197.700,28.700 198.400,28.000 198.400,27.000 198.400,26.200 197.800,25.400 196.700,25.300 Z " />
  <path stroke="none" fill="#ffffffff" d="M 176.900,25.200 C 176.900,24.300 177.600,23.600 178.400,23.600 179.200,23.600 179.900,24.300 179.900,25.200 179.900,26.000 179.200,26.700 178.400,26.700 177.600,26.700 176.900,26.100 176.900,25.200 Z M 177.600,25.200 C 177.600,25.700 177.900,26.000 178.300,26.000 178.700,26.000 179.100,25.700 179.100,25.200 179.100,24.800 178.700,24.400 178.300,24.400 178.000,24.400 177.600,24.700 177.600,25.200 Z " />
  <path stroke="none" fill="#ffffffff" d="M 275.100,16.900 C 274.200,16.900 273.500,16.100 273.500,15.300 273.500,14.400 274.300,13.700 275.200,13.700 276.200,13.700 276.800,14.500 276.800,15.300 276.700,16.200 275.900,16.900 275.100,16.900 Z " />
  <path stroke="none" fill="#ffffffff" d="M 240.100,16.900 C 239.200,16.900 238.500,16.100 238.500,15.200 238.500,14.300 239.300,13.600 240.200,13.600 241.200,13.600 241.800,14.500 241.800,15.300 241.800,16.200 241.000,16.900 240.100,16.900 Z " />
  <path stroke="none" fill="#ffffffff" d="M 257.600,16.900 C 256.700,16.900 256.000,16.100 256.000,15.200 256.000,14.300 256.800,13.600 257.700,13.600 258.700,13.600 259.300,14.500 259.300,15.300 259.200,16.200 258.500,16.900 257.600,16.900 Z " />
  <path stroke="none" fill="#ffffffff" d="M 250.500,15.200 C 250.600,16.200 249.700,16.900 248.900,16.900 248.100,16.900 247.200,16.200 247.300,15.300 247.300,14.400 248.000,13.700 248.900,13.700 249.700,13.600 250.500,14.300 250.500,15.200 Z " />
  <path stroke="none" fill="#ffffffff" d="M 268.000,15.300 C 268.000,16.200 267.200,17.000 266.400,17.000 265.600,17.000 264.700,16.300 264.800,15.400 264.800,14.500 265.500,13.800 266.400,13.800 267.200,13.600 267.900,14.300 268.000,15.300 Z " />
  <path stroke="none" fill="#ffffffff" d="M 283.800,16.900 C 283.000,16.900 282.100,16.200 282.200,15.300 282.200,14.400 282.900,13.700 283.900,13.700 284.800,13.700 285.500,14.400 285.500,15.300 285.500,16.200 284.600,16.900 283.800,16.900 Z " />
  <path stroke="none" fill="#ffffffff" d="M 171.000,24.600 C 170.200,24.600 169.500,23.900 169.500,23.100 169.500,22.300 170.200,21.600 171.000,21.600 171.900,21.600 172.600,22.200 172.600,23.100 172.500,23.900 171.800,24.600 171.000,24.600 Z M 170.200,23.100 C 170.200,23.500 170.500,23.900 170.900,23.900 171.300,23.900 171.700,23.600 171.700,23.200 171.700,22.700 171.400,22.300 170.900,22.300 170.600,22.300 170.200,22.600 170.200,23.100 Z " />
  <path stroke="none" fill="#ffffffff" d="M 144.200,23.100 C 144.200,22.200 144.800,21.600 145.700,21.500 146.500,21.500 147.200,22.200 147.200,23.000 147.200,23.800 146.500,24.500 145.700,24.500 144.800,24.600 144.200,23.900 144.200,23.100 Z M 145.000,23.100 C 145.000,23.500 145.300,23.900 145.700,23.900 146.100,23.900 146.500,23.500 146.500,23.100 146.500,22.700 146.100,22.300 145.700,22.300 145.300,22.300 145.000,22.600 145.000,23.100 Z " />
  <path stroke="none" fill="#ffffffff" d="M 160.000,23.100 C 160.000,23.900 159.300,24.600 158.500,24.600 157.700,24.600 156.900,23.900 157.000,23.100 157.000,22.200 157.700,21.600 158.600,21.600 159.300,21.600 160.000,22.300 160.000,23.100 Z M 158.500,22.300 C 158.100,22.300 157.700,22.700 157.700,23.100 157.700,23.500 158.000,23.900 158.400,23.900 158.800,23.900 159.200,23.500 159.200,23.100 159.200,22.700 158.900,22.300 158.500,22.300 Z " />
  <path stroke="none" fill="#ffffffff" d="M 173.800,6.900 C 173.800,7.400 173.500,7.700 173.000,7.700 172.600,7.700 172.200,7.300 172.200,6.900 172.200,6.500 172.600,6.100 173.000,6.100 173.400,6.100 173.700,6.500 173.800,6.900 Z " />
  <path stroke="none" fill="#ffffffff" d="M 183.100,6.100 C 183.500,6.100 183.900,6.600 183.900,7.000 183.900,7.400 183.500,7.800 183.100,7.800 182.700,7.800 182.300,7.400 182.300,7.000 182.300,6.500 182.700,6.100 183.100,6.100 Z " />
  <path stroke="none" fill="#ffffffff" d="M 208.700,26.900 C 209.900,26.900 211.100,26.900 212.300,26.900 212.500,26.900 212.700,26.900 212.900,26.900 213.600,27.000 214.200,27.600 214.200,28.300 214.200,29.000 213.800,29.600 213.100,29.800 212.900,29.900 212.700,29.900 212.400,29.900 209.900,29.900 207.300,29.900 204.800,29.900 204.600,29.900 204.300,29.900 204.100,29.800 203.400,29.600 202.900,29.000 203.000,28.200 203.100,27.500 203.600,26.900 204.300,26.800 204.500,26.800 204.700,26.800 204.900,26.800 206.200,26.900 207.400,26.900 208.700,26.900 Z M 208.600,29.100 C 209.800,29.100 211.000,29.100 212.200,29.100 212.400,29.100 212.600,29.100 212.700,29.100 213.000,29.100 213.200,28.800 213.200,28.500 213.200,28.200 213.100,28.000 212.800,27.800 212.600,27.700 212.400,27.700 212.200,27.700 211.400,27.700 210.500,27.700 209.700,27.700 208.200,27.700 206.600,27.700 205.100,27.700 204.800,27.700 204.600,27.700 204.400,27.800 204.100,27.900 204.000,28.100 204.000,28.400 204.000,28.700 204.200,28.900 204.500,29.000 204.700,29.000 204.900,29.000 205.100,29.000 206.200,29.100 207.400,29.100 208.600,29.100 Z " />
  <path stroke="none" fill="#ffffffff" d="M 212.200,33.400 C 212.200,34.100 211.700,34.600 211.100,34.600 210.400,34.600 209.900,34.100 209.900,33.500 209.900,32.900 210.400,32.400 211.000,32.300 211.600,32.300 212.200,32.800 212.200,33.400 Z M 211.000,32.800 C 210.700,32.800 210.400,33.100 210.400,33.400 210.400,33.700 210.700,34.000 211.000,34.000 211.400,34.000 211.700,33.700 211.700,33.300 211.700,33.100 211.400,32.800 211.000,32.800 Z " />
  <path stroke="none" fill="#ffffffff" d="M 143.700,8.700 C 145.000,8.700 145.900,9.700 145.900,11.000 145.900,12.200 144.800,13.300 143.600,13.200 142.200,13.100 141.300,12.000 141.400,10.900 141.400,9.600 142.500,8.600 143.700,8.700 Z " />
</svg>