<?xml version="1.0" encoding="UTF-8" standalone="no"?>
<!DOCTYPE svg PUBLIC "-//W3C//DTD SVG 20010904//EN" "http://www.w3.org/TR/2001/REC-SVG-20010904/DTD/svg10.dtd"[]>
<svg version="1.1" id="Frosty Editor v1.0.6.3" xmlns="http://www.w3.org/2000/svg" d1p1:xlink="http://www.w3.org/1999/xlink" viewBox="0 0 384 96" xmlns:d1p1="xmlns">
  <path stroke="none" fill="#ffffffff" d="M 286.250,36.300 C 283.043,36.300 279.837,36.300 276.630,36.300 276.630,33.507 276.630,30.713 276.630,27.920 279.840,27.920 283.050,27.920 286.260,27.920 286.257,30.713 286.253,33.507 286.250,36.300 Z M 272.000,44.170 C 268.363,44.170 264.727,44.170 261.090,44.170 262.913,42.213 264.737,40.257 266.560,38.300 268.373,38.300 270.187,38.300 272.000,38.300 272.000,40.257 272.000,42.213 272.000,44.170 Z M 257.310,45.300 C 239.463,45.300 221.617,45.300 203.770,45.300 203.770,38.867 203.770,32.433 203.770,26.000 204.180,26.000 204.590,26.000 205.000,26.000 207.157,26.000 209.313,26.000 211.470,26.000 210.940,26.883 210.410,27.767 209.880,28.650 209.880,30.583 209.880,32.517 209.880,34.450 227.213,34.450 244.547,34.450 261.880,34.450 261.880,31.727 261.880,29.003 261.880,26.280 263.130,26.717 264.380,27.153 265.630,27.590 265.630,30.517 265.630,33.443 265.630,36.370 262.857,39.347 260.083,42.323 257.310,45.300 Z M 256.110,50.920 C 254.537,50.920 252.963,50.920 251.390,50.920 251.390,49.710 251.390,48.500 251.390,47.290 252.963,47.290 254.537,47.290 256.110,47.290 256.110,48.500 256.110,49.710 256.110,50.920 Z M 263.000,52.920 C 263.000,54.003 263.000,55.087 263.000,56.170 261.370,56.170 259.740,56.170 258.110,56.170 258.110,55.087 258.110,54.003 258.110,52.920 259.740,52.920 261.370,52.920 263.000,52.920 Z M 251.400,56.170 C 251.400,55.087 251.400,54.003 251.400,52.920 252.973,52.920 254.547,52.920 256.120,52.920 256.120,54.003 256.120,55.087 256.120,56.170 254.547,56.170 252.973,56.170 251.400,56.170 Z M 228.620,56.170 C 228.620,55.087 228.620,54.003 228.620,52.920 235.547,52.920 242.473,52.920 249.400,52.920 249.400,54.003 249.400,55.087 249.400,56.170 242.473,56.170 235.547,56.170 228.620,56.170 Z M 221.900,56.170 C 221.900,55.087 221.900,54.003 221.900,52.920 223.473,52.920 225.047,52.920 226.620,52.920 226.620,54.003 226.620,55.087 226.620,56.170 225.047,56.170 223.473,56.170 221.900,56.170 Z M 213.720,56.170 C 213.720,55.087 213.720,54.003 213.720,52.920 215.780,52.920 217.840,52.920 219.900,52.920 219.900,54.003 219.900,55.087 219.900,56.170 217.840,56.170 215.780,56.170 213.720,56.170 Z M 211.720,56.460 C 211.053,56.697 210.387,56.933 209.720,57.170 208.053,57.170 206.387,57.170 204.720,57.170 204.720,55.420 204.720,53.670 204.720,51.920 206.387,51.920 208.053,51.920 209.720,51.920 210.387,52.157 211.053,52.393 211.720,52.630 211.720,53.907 211.720,55.183 211.720,56.460 Z M 202.720,59.290 C 199.180,59.290 195.640,59.290 192.100,59.290 192.100,56.373 192.100,53.457 192.100,50.540 195.640,50.540 199.180,50.540 202.720,50.540 202.720,53.457 202.720,56.373 202.720,59.290 Z M 163.500,48.540 C 162.527,48.540 161.553,48.540 160.580,48.540 160.563,47.917 160.547,47.293 160.530,46.670 161.530,46.787 162.530,46.903 163.530,47.020 163.520,47.527 163.510,48.033 163.500,48.540 Z M 152.610,58.850 C 148.800,61.150 147.550,66.540 147.220,68.380 146.117,68.773 145.013,69.167 143.910,69.560 141.643,74.003 139.377,78.447 137.110,82.890 137.570,83.730 138.030,84.570 138.490,85.410 137.470,87.560 136.450,89.710 135.430,91.860 123.430,89.257 111.430,86.653 99.430,84.050 99.077,81.577 98.723,79.103 98.370,76.630 100.337,77.180 102.303,77.730 104.270,78.280 104.473,76.597 104.677,74.913 104.880,73.230 107.547,69.070 110.213,64.910 112.880,60.750 116.880,61.380 123.660,59.300 124.040,59.180 130.760,56.420 133.550,52.530 134.720,49.650 135.955,48.295 136.907,46.708 137.520,44.980 143.150,44.550 154.380,45.500 154.520,45.510 157.220,45.510 158.520,49.920 158.650,50.340 158.720,52.933 158.790,55.527 158.860,58.120 156.760,57.494 154.495,57.774 152.610,58.890 152.610,58.877 152.610,58.863 152.610,58.850 Z M 125.810,35.130 C 121.207,34.830 116.603,34.530 112.000,34.230 112.000,32.960 112.000,31.690 112.000,30.420 115.573,30.420 119.147,30.420 122.720,30.420 124.097,31.337 125.473,32.253 126.850,33.170 130.103,33.170 133.357,33.170 136.610,33.170 137.113,33.907 137.617,34.643 138.120,35.380 138.120,38.253 138.120,41.127 138.120,44.000 137.787,44.023 137.453,44.047 137.120,44.070 137.013,44.070 136.907,44.070 136.800,44.070 136.763,44.170 136.727,44.270 136.690,44.370 136.344,45.304 135.926,46.210 135.440,47.080 135.513,46.644 135.547,46.202 135.540,45.760 135.230,35.840 125.900,35.170 125.820,35.170 125.817,35.157 125.813,35.143 125.810,35.130 Z M 130.370,24.250 C 130.211,24.714 130.126,25.200 130.120,25.690 130.125,27.583 131.268,29.287 133.017,30.011 134.766,30.735 136.779,30.336 138.120,29.000 138.120,30.523 138.120,32.047 138.120,33.570 137.787,33.090 137.453,32.610 137.120,32.130 133.787,32.130 130.453,32.130 127.120,32.130 125.787,31.237 124.453,30.343 123.120,29.450 123.120,27.730 123.120,26.010 123.120,24.290 125.537,24.277 127.953,24.263 130.370,24.250 Z M 134.810,23.000 C 136.296,23.000 137.500,24.204 137.500,25.690 137.500,27.176 136.296,28.380 134.810,28.380 133.324,28.380 132.120,27.176 132.120,25.690 132.120,24.977 132.403,24.292 132.908,23.788 133.412,23.283 134.097,23.000 134.810,23.000 134.810,23.000 134.810,23.000 134.810,23.000 Z M 141.900,21.290 C 144.120,19.980 146.340,18.670 148.560,17.360 148.560,17.323 148.560,17.287 148.560,17.250 149.123,17.250 149.687,17.250 150.250,17.250 150.250,18.347 150.250,19.443 150.250,20.540 150.833,20.540 151.417,20.540 152.000,20.540 152.000,21.540 152.000,22.540 152.000,23.540 149.197,23.540 146.393,23.540 143.590,23.540 143.060,24.083 142.530,24.627 142.000,25.170 141.160,25.170 140.320,25.170 139.480,25.170 139.258,23.370 138.015,21.861 136.290,21.300 138.160,21.297 140.030,21.293 141.900,21.290 Z M 130.250,3.790 C 133.793,3.790 137.337,3.790 140.880,3.790 140.880,8.957 140.880,14.123 140.880,19.290 137.337,19.290 133.793,19.290 130.250,19.290 130.250,14.123 130.250,8.957 130.250,3.790 Z M 146.560,6.830 C 146.560,9.950 146.560,13.070 146.560,16.190 145.000,17.127 143.440,18.063 141.880,19.000 141.880,14.033 141.880,9.067 141.880,4.100 143.440,5.010 145.000,5.920 146.560,6.830 Z M 148.670,7.830 C 149.197,7.830 149.723,7.830 150.250,7.830 150.250,10.303 150.250,12.777 150.250,15.250 149.723,15.250 149.197,15.250 148.670,15.250 148.670,12.777 148.670,10.303 148.670,7.830 Z M 153.930,4.540 C 153.930,8.183 153.930,11.827 153.930,15.470 156.187,15.470 158.443,15.470 160.700,15.470 160.700,11.827 160.700,8.183 160.700,4.540 161.260,4.540 161.820,4.540 162.380,4.540 162.380,9.130 162.380,13.720 162.380,18.310 159.003,18.310 155.627,18.310 152.250,18.310 152.250,13.720 152.250,9.130 152.250,4.540 152.810,4.540 153.370,4.540 153.930,4.540 Z M 158.700,7.830 C 158.700,9.710 158.700,11.590 158.700,13.470 157.777,13.470 156.853,13.470 155.930,13.470 155.930,11.590 155.930,9.710 155.930,7.830 156.853,7.830 157.777,7.830 158.700,7.830 Z M 186.000,7.830 C 186.000,10.303 186.000,12.777 186.000,15.250 178.793,15.250 171.587,15.250 164.380,15.250 164.380,12.777 164.380,10.303 164.380,7.830 171.587,7.830 178.793,7.830 186.000,7.830 Z M 189.670,4.570 C 189.670,8.203 189.670,11.837 189.670,15.470 191.927,15.470 194.183,15.470 196.440,15.470 196.440,11.827 196.440,8.183 196.440,4.540 197.000,4.540 197.560,4.540 198.120,4.540 198.120,9.130 198.120,13.720 198.120,18.310 194.747,18.310 191.373,18.310 188.000,18.310 188.000,13.720 188.000,9.130 188.000,4.540 188.557,4.550 189.113,4.560 189.670,4.570 Z M 194.440,7.860 C 194.440,9.740 194.440,11.620 194.440,13.500 193.517,13.500 192.593,13.500 191.670,13.500 191.670,11.610 191.670,9.720 191.670,7.830 192.593,7.840 193.517,7.850 194.440,7.860 Z M 203.700,7.860 C 203.700,10.333 203.700,12.807 203.700,15.280 202.507,15.280 201.313,15.280 200.120,15.280 200.120,12.797 200.120,10.313 200.120,7.830 201.313,7.840 202.507,7.850 203.700,7.860 Z M 196.490,23.550 C 194.283,23.550 192.077,23.550 189.870,23.550 189.870,22.550 189.870,21.550 189.870,20.550 192.080,20.550 194.290,20.550 196.500,20.550 196.497,21.550 196.493,22.550 196.490,23.550 Z M 202.760,34.550 C 198.427,34.550 194.093,34.550 189.760,34.550 189.760,31.550 189.760,28.550 189.760,25.550 192.363,25.550 194.967,25.550 197.570,25.550 197.570,25.550 197.570,25.550 197.570,25.550 199.310,25.667 201.050,25.783 202.790,25.900 202.780,28.783 202.770,31.667 202.760,34.550 Z M 202.760,45.300 C 202.760,46.300 202.760,47.300 202.760,48.300 199.050,48.300 195.340,48.300 191.630,48.300 191.630,44.047 191.630,39.793 191.630,35.540 195.347,35.540 199.063,35.540 202.780,35.540 202.780,38.790 202.780,42.040 202.780,45.290 202.773,45.293 202.767,45.297 202.760,45.300 Z M 160.630,20.550 C 160.630,21.550 160.630,22.550 160.630,23.550 158.420,23.550 156.210,23.550 154.000,23.550 154.000,22.550 154.000,21.550 154.000,20.550 156.210,20.550 158.420,20.550 160.630,20.550 Z M 178.880,34.550 C 178.880,31.550 178.880,28.550 178.880,25.550 182.173,25.550 185.467,25.550 188.760,25.550 188.760,28.550 188.760,31.550 188.760,34.550 185.467,34.550 182.173,34.550 178.880,34.550 Z M 187.880,20.550 C 187.880,21.550 187.880,22.550 187.880,23.550 185.797,23.550 183.713,23.550 181.630,23.550 181.630,21.450 181.630,19.350 181.630,17.250 183.087,17.250 184.543,17.250 186.000,17.250 186.000,18.347 186.000,19.443 186.000,20.540 186.627,20.543 187.253,20.547 187.880,20.550 Z M 164.380,20.550 C 164.380,19.450 164.380,18.350 164.380,17.250 169.463,17.250 174.547,17.250 179.630,17.250 179.630,19.347 179.630,21.443 179.630,23.540 173.963,23.540 168.297,23.540 162.630,23.540 162.630,22.540 162.630,21.540 162.630,20.540 163.213,20.543 163.797,20.547 164.380,20.550 Z M 142.790,27.170 C 143.333,26.630 143.877,26.090 144.420,25.550 147.183,25.550 149.947,25.550 152.710,25.550 152.710,25.550 152.710,25.550 152.710,25.550 155.710,25.550 158.710,25.550 161.710,25.550 161.710,25.550 161.710,25.550 161.710,25.550 167.100,25.550 172.490,25.550 177.880,25.550 177.880,28.550 177.880,31.550 177.880,34.550 164.963,34.550 152.047,34.550 139.130,34.550 139.130,32.217 139.130,29.883 139.130,27.550 139.180,27.420 139.210,27.290 139.260,27.150 140.437,27.157 141.613,27.163 142.790,27.170 Z M 158.550,47.540 C 157.740,46.060 156.450,44.540 154.550,44.540 154.550,44.540 154.550,44.540 154.550,44.540 154.120,44.540 145.070,43.740 139.130,43.930 139.130,41.133 139.130,38.337 139.130,35.540 156.297,35.540 173.463,35.540 190.630,35.540 190.630,39.770 190.630,44.000 190.630,48.230 179.910,46.960 169.190,45.690 158.470,44.420 158.497,45.460 158.523,46.500 158.550,47.540 Z M 219.890,50.880 C 217.557,50.880 215.223,50.880 212.890,50.880 211.937,50.547 210.983,50.213 210.030,49.880 208.277,49.880 206.523,49.880 204.770,49.880 204.770,49.017 204.770,48.153 204.770,47.290 209.817,47.290 214.863,47.290 219.910,47.290 219.903,48.487 219.897,49.683 219.890,50.880 Z M 226.610,50.880 C 225.037,50.880 223.463,50.880 221.890,50.880 221.890,49.683 221.890,48.487 221.890,47.290 223.463,47.290 225.037,47.290 226.610,47.290 226.610,48.487 226.610,49.683 226.610,50.880 Z M 249.390,47.250 C 249.390,48.460 249.390,49.670 249.390,50.880 242.463,50.880 235.537,50.880 228.610,50.880 228.610,49.683 228.610,48.487 228.610,47.290 235.537,47.277 242.463,47.263 249.390,47.250 Z M 253.040,28.390 C 253.373,27.593 253.707,26.797 254.040,26.000 256.310,26.000 258.580,26.000 260.850,26.000 260.850,28.500 260.850,31.000 260.850,33.500 258.233,33.500 255.617,33.500 253.000,33.500 253.013,31.797 253.027,30.093 253.040,28.390 Z M 249.340,26.000 C 250.560,26.000 251.780,26.000 253.000,26.000 252.700,26.697 252.400,27.393 252.100,28.090 252.100,29.877 252.100,31.663 252.100,33.450 251.517,33.450 250.933,33.450 250.350,33.450 250.350,31.743 250.350,30.037 250.350,28.330 250.013,27.553 249.677,26.777 249.340,26.000 Z M 243.040,28.390 C 243.373,27.593 243.707,26.797 244.040,26.000 245.440,26.000 246.840,26.000 248.240,26.000 248.573,26.797 248.907,27.593 249.240,28.390 249.240,30.093 249.240,31.797 249.240,33.500 247.160,33.500 245.080,33.500 243.000,33.500 243.013,31.797 243.027,30.093 243.040,28.390 Z M 239.340,26.000 C 240.560,26.000 241.780,26.000 243.000,26.000 242.700,26.697 242.400,27.393 242.100,28.090 242.100,29.877 242.100,31.663 242.100,33.450 241.517,33.450 240.933,33.450 240.350,33.450 240.350,31.743 240.350,30.037 240.350,28.330 240.013,27.553 239.677,26.777 239.340,26.000 Z M 233.210,28.390 C 233.543,27.593 233.877,26.797 234.210,26.000 235.543,26.000 236.877,26.000 238.210,26.000 238.543,26.797 238.877,27.593 239.210,28.390 239.210,30.093 239.210,31.797 239.210,33.500 237.183,33.500 235.157,33.500 233.130,33.500 233.157,31.797 233.183,30.093 233.210,28.390 Z M 229.510,26.000 C 230.723,26.000 231.937,26.000 233.150,26.000 232.850,26.697 232.550,27.393 232.250,28.090 232.250,29.877 232.250,31.663 232.250,33.450 231.667,33.450 231.083,33.450 230.500,33.450 230.500,31.743 230.500,30.037 230.500,28.330 230.170,27.553 229.840,26.777 229.510,26.000 Z M 223.620,28.430 C 223.953,27.633 224.287,26.837 224.620,26.040 225.880,26.040 227.140,26.040 228.400,26.040 228.733,26.837 229.067,27.633 229.400,28.430 229.400,30.120 229.400,31.810 229.400,33.500 227.457,33.500 225.513,33.500 223.570,33.500 223.587,31.810 223.603,30.120 223.620,28.430 Z M 219.920,26.040 C 221.133,26.040 222.347,26.040 223.560,26.040 223.260,26.737 222.960,27.433 222.660,28.130 222.660,29.917 222.660,31.703 222.660,33.490 222.077,33.490 221.493,33.490 220.910,33.490 220.910,31.770 220.910,30.050 220.910,28.330 220.580,27.567 220.250,26.803 219.920,26.040 Z M 219.870,28.430 C 219.870,30.120 219.870,31.810 219.870,33.500 216.870,33.500 213.870,33.500 210.870,33.500 210.870,32.000 210.870,30.500 210.870,29.000 211.457,28.000 212.043,27.000 212.630,26.000 214.703,26.000 216.777,26.000 218.850,26.000 219.190,26.810 219.530,27.620 219.870,28.430 Z M 275.620,27.910 C 275.620,30.703 275.620,33.497 275.620,36.290 272.620,36.290 269.620,36.290 266.620,36.290 266.620,33.500 266.620,30.710 266.620,27.920 269.620,27.917 272.620,27.913 275.620,27.910 Z M 205.940,6.860 C 207.640,5.860 209.340,4.860 211.040,3.860 211.040,8.983 211.040,14.107 211.040,19.230 209.340,18.230 207.640,17.230 205.940,16.230 205.940,13.107 205.940,9.983 205.940,6.860 Z M 224.630,5.080 C 224.630,9.387 224.630,13.693 224.630,18.000 223.930,18.430 223.230,18.860 222.530,19.290 219.020,19.290 215.510,19.290 212.000,19.290 212.000,14.123 212.000,8.957 212.000,3.790 215.493,3.790 218.987,3.790 222.480,3.790 223.197,4.220 223.913,4.650 224.630,5.080 Z M 226.630,3.670 C 230.713,3.670 234.797,3.670 238.880,3.670 238.880,8.917 238.880,14.163 238.880,19.410 234.797,19.410 230.713,19.410 226.630,19.410 226.630,14.163 226.630,8.917 226.630,3.670 Z M 288.250,25.920 C 281.140,25.920 274.030,25.920 266.920,25.920 265.127,25.280 263.333,24.640 261.540,24.000 242.717,24.000 223.893,24.000 205.070,24.000 202.880,23.850 200.690,23.700 198.500,23.550 198.500,22.547 198.500,21.543 198.500,20.540 199.043,20.540 199.587,20.540 200.130,20.540 200.130,19.443 200.130,18.347 200.130,17.250 201.403,17.250 202.677,17.250 203.950,17.250 203.950,17.287 203.950,17.323 203.950,17.360 206.170,18.670 208.390,19.980 210.610,21.290 214.773,21.290 218.937,21.290 223.100,21.290 223.613,20.977 224.127,20.663 224.640,20.350 224.640,20.703 224.640,21.057 224.640,21.410 230.057,21.410 235.473,21.410 240.890,21.410 240.890,14.830 240.890,8.250 240.890,1.670 235.470,1.670 230.050,1.670 224.630,1.670 224.630,2.027 224.630,2.383 224.630,2.740 224.117,2.427 223.603,2.113 223.090,1.800 218.927,1.800 214.763,1.800 210.600,1.800 208.380,3.110 206.160,4.420 203.940,5.730 203.940,5.767 203.940,5.803 203.940,5.840 202.667,5.840 201.393,5.840 200.120,5.840 200.120,4.740 200.120,3.640 200.120,2.540 198.227,2.540 196.333,2.540 194.440,2.540 194.440,3.637 194.440,4.733 194.440,5.830 193.517,5.830 192.593,5.830 191.670,5.830 191.670,4.733 191.670,3.637 191.670,2.540 189.780,2.540 187.890,2.540 186.000,2.540 186.000,3.637 186.000,4.733 186.000,5.830 178.793,5.830 171.587,5.830 164.380,5.830 164.380,4.733 164.380,3.637 164.380,2.540 162.487,2.540 160.593,2.540 158.700,2.540 158.700,3.637 158.700,4.733 158.700,5.830 157.777,5.830 156.853,5.830 155.930,5.830 155.930,4.733 155.930,3.637 155.930,2.540 154.037,2.540 152.143,2.540 150.250,2.540 150.250,3.637 150.250,4.733 150.250,5.830 149.687,5.830 149.123,5.830 148.560,5.830 148.560,5.793 148.560,5.757 148.560,5.720 146.340,4.410 144.120,3.100 141.900,1.790 137.350,1.790 132.800,1.790 128.250,1.790 128.250,8.290 128.250,14.790 128.250,21.290 129.957,21.290 131.663,21.290 133.370,21.290 132.721,21.492 132.124,21.833 131.620,22.290 131.620,22.290 131.620,22.290 131.620,22.290 128.120,22.290 124.620,22.290 121.120,22.290 121.120,23.820 121.120,25.350 121.120,26.880 119.850,25.077 118.580,23.273 117.310,21.470 116.767,21.853 116.223,22.237 115.680,22.620 117.040,24.553 118.400,26.487 119.760,28.420 116.507,28.420 113.253,28.420 110.000,28.420 110.000,30.980 110.000,33.540 110.000,36.100 115.230,36.453 120.460,36.807 125.690,37.160 130.199,37.485 133.646,41.312 133.500,45.830 133.500,46.120 133.640,53.090 123.330,57.330 121.330,57.970 115.390,59.450 112.640,58.700 112.403,58.633 112.167,58.567 111.930,58.500 108.930,63.187 105.930,67.873 102.930,72.560 102.800,73.627 102.670,74.693 102.540,75.760 100.340,75.143 98.140,74.527 95.940,73.910 96.503,77.853 97.067,81.797 97.630,85.740 110.630,88.553 123.630,91.367 136.630,94.180 138.027,91.247 139.423,88.313 140.820,85.380 140.363,84.553 139.907,83.727 139.450,82.900 141.450,79.010 143.450,75.120 145.450,71.230 146.633,70.787 147.817,70.343 149.000,69.900 149.027,69.697 149.053,69.493 149.080,69.290 149.080,69.230 149.910,62.830 153.610,60.600 155.210,59.600 157.180,59.600 159.480,60.470 159.947,60.650 160.413,60.830 160.880,61.010 160.833,59.270 160.787,57.530 160.740,55.790 162.407,57.407 164.073,59.023 165.740,60.640 166.203,60.160 166.667,59.680 167.130,59.200 164.963,57.113 162.797,55.027 160.630,52.940 160.610,52.140 160.590,51.340 160.570,50.540 161.527,50.540 162.483,50.540 163.440,50.540 163.440,51.150 163.440,51.760 163.440,52.370 164.170,53.370 164.900,54.370 165.630,55.370 166.170,54.977 166.710,54.583 167.250,54.190 166.647,53.360 166.043,52.530 165.440,51.700 165.440,51.313 165.440,50.927 165.440,50.540 165.900,50.540 166.360,50.540 166.820,50.540 166.820,49.873 166.820,49.207 166.820,48.540 166.380,48.540 165.940,48.540 165.500,48.540 165.500,48.113 165.500,47.687 165.500,47.260 173.700,48.233 181.900,49.207 190.100,50.180 190.100,53.883 190.100,57.587 190.100,61.290 194.973,61.290 199.847,61.290 204.720,61.290 204.720,60.583 204.720,59.877 204.720,59.170 206.480,59.170 208.240,59.170 210.000,59.170 210.953,58.837 211.907,58.503 212.860,58.170 215.193,58.170 217.527,58.170 219.860,58.170 219.860,58.963 219.860,59.757 219.860,60.550 220.527,60.550 221.193,60.550 221.860,60.550 221.860,59.757 221.860,58.963 221.860,58.170 223.433,58.170 225.007,58.170 226.580,58.170 226.580,58.963 226.580,59.757 226.580,60.550 227.247,60.550 227.913,60.550 228.580,60.550 228.580,59.757 228.580,58.963 228.580,58.170 235.507,58.170 242.433,58.170 249.360,58.170 249.360,58.963 249.360,59.757 249.360,60.550 250.027,60.550 250.693,60.550 251.360,60.550 251.360,59.757 251.360,58.963 251.360,58.170 252.933,58.170 254.507,58.170 256.080,58.170 256.080,58.963 256.080,59.757 256.080,60.550 256.747,60.550 257.413,60.550 258.080,60.550 258.080,59.757 258.080,58.963 258.080,58.170 260.387,58.170 262.693,58.170 265.000,58.170 265.000,55.753 265.000,53.337 265.000,50.920 262.703,50.920 260.407,50.920 258.110,50.920 258.110,49.710 258.110,48.500 258.110,47.290 258.137,47.290 258.163,47.290 258.190,47.290 258.523,46.917 258.857,46.543 259.190,46.170 264.127,46.170 269.063,46.170 274.000,46.170 274.000,43.543 274.000,40.917 274.000,38.290 278.750,38.290 283.500,38.290 288.250,38.290 288.250,34.167 288.250,30.043 288.250,25.920 Z " />
  <path stroke="none" fill="#ffffffff" d="M 205.460,36.750 C 220.047,36.750 234.633,36.750 249.220,36.750 248.949,37.065 248.797,37.465 248.790,37.880 248.800,38.327 248.974,38.754 249.280,39.080 234.673,39.080 220.067,39.080 205.460,39.080 205.460,38.303 205.460,37.527 205.460,36.750 Z M 259.880,39.080 C 256.920,39.080 253.960,39.080 251.000,39.080 250.230,38.750 249.760,38.300 249.760,37.880 249.760,37.460 250.140,37.090 250.760,36.770 250.760,36.770 250.760,36.770 250.760,36.770 253.777,36.770 256.793,36.770 259.810,36.770 259.833,37.540 259.857,38.310 259.880,39.080 Z M 204.460,40.080 C 223.267,40.080 242.073,40.080 260.880,40.080 260.880,38.637 260.880,37.193 260.880,35.750 242.073,35.750 223.267,35.750 204.460,35.750 204.460,37.193 204.460,38.637 204.460,40.080 Z " />
  <path stroke="none" fill="#ffffffff" d="M 178.270,42.230 C 177.139,42.272 176.072,41.708 175.470,40.750 176.084,39.804 177.142,39.240 178.270,39.260 179.920,39.260 181.070,40.040 181.070,40.740 181.070,41.440 179.910,42.200 178.270,42.200 178.270,42.210 178.270,42.220 178.270,42.230 Z M 178.270,38.230 C 176.210,38.230 174.470,39.760 174.470,40.710 174.470,41.660 176.310,43.190 178.270,43.190 180.400,43.190 182.070,42.100 182.070,40.710 182.070,39.320 180.390,38.230 178.270,38.230 178.270,38.230 178.270,38.230 178.270,38.230 Z " />
</svg>