<?xml version="1.0" encoding="UTF-8" standalone="no"?>
<!DOCTYPE svg PUBLIC "-//W3C//DTD SVG 20010904//EN" "http://www.w3.org/TR/2001/REC-SVG-20010904/DTD/svg10.dtd"[]>
<svg version="1.1" id="Frosty Editor v1.0.6.3" xmlns="http://www.w3.org/2000/svg" d1p1:xlink="http://www.w3.org/1999/xlink" viewBox="0 0 96 96" xmlns:d1p1="xmlns">
  <path stroke="none" fill="#ffffffff" d="M 59.100,80.200 C 57.200,75.900 52.900,73.000 48.000,73.000 43.100,73.000 38.800,76.000 36.900,80.200 44.300,80.200 51.700,80.200 59.100,80.200 59.100,80.200 59.100,80.200 59.100,80.200 Z " />
  <path stroke="none" fill="#ffffffff" d="M 59.600,82.600 C 51.867,82.600 44.133,82.600 36.400,82.600 35.800,82.600 35.300,83.100 35.300,83.700 35.300,84.733 35.300,85.767 35.300,86.800 35.300,87.400 35.800,87.900 36.400,87.900 44.167,87.900 51.933,87.900 59.700,87.900 60.300,87.900 60.800,87.400 60.800,86.800 60.800,85.767 60.800,84.733 60.800,83.700 60.700,83.100 60.200,82.600 59.600,82.600 59.600,82.600 59.600,82.600 59.600,82.600 Z " />
  <path stroke="none" fill="#ffffffff" d="M 52.100,31.700 C 52.100,31.700 52.100,31.700 52.100,31.700 53.000,31.800 53.200,33.000 53.200,34.500 53.733,44.433 54.267,54.367 54.800,64.300 54.800,65.800 53.600,67.000 52.100,67.000 52.100,67.000 52.100,67.000 52.100,67.000 50.600,67.000 49.400,65.800 49.400,64.300 49.933,54.367 50.467,44.433 51.000,34.500 51.000,32.900 51.500,31.700 52.100,31.700 52.100,31.700 52.100,31.700 52.100,31.700 Z " />
  <path stroke="none" fill="#ffffffff" d="M 62.000,20.800 C 62.000,20.800 62.000,20.800 62.000,20.800 62.900,20.900 63.100,22.100 63.100,23.600 63.633,33.533 64.167,43.467 64.700,53.400 64.700,54.900 63.500,56.100 62.000,56.100 62.000,56.100 62.000,56.100 62.000,56.100 60.500,56.100 59.300,54.900 59.300,53.400 59.833,43.467 60.367,33.533 60.900,23.600 60.900,22.100 61.400,20.800 62.000,20.800 62.000,20.800 62.000,20.800 62.000,20.800 Z " />
  <path stroke="none" fill="#ffffffff" d="M 72.000,8.200 C 72.000,8.200 72.000,8.200 72.000,8.200 72.900,8.200 73.000,9.400 73.000,11.000 73.533,20.933 74.067,30.867 74.600,40.800 74.600,42.300 73.400,43.500 71.900,43.500 71.900,43.500 71.900,43.500 71.900,43.500 70.400,43.500 69.200,42.300 69.200,40.800 69.767,30.867 70.333,20.933 70.900,11.000 70.900,9.400 71.400,8.200 72.000,8.200 72.000,8.200 72.000,8.200 72.000,8.200 Z " />
  <path stroke="none" fill="#ffffffff" d="M 42.100,31.700 C 42.100,31.700 42.100,31.700 42.100,31.700 41.200,31.800 41.000,33.000 41.000,34.500 40.467,44.433 39.933,54.367 39.400,64.300 39.400,65.800 40.600,67.000 42.100,67.000 42.100,67.000 42.100,67.000 42.100,67.000 43.600,67.000 44.800,65.800 44.800,64.300 44.267,54.367 43.733,44.433 43.200,34.500 43.200,32.900 42.700,31.700 42.100,31.700 42.100,31.700 42.100,31.700 42.100,31.700 Z " />
  <path stroke="none" fill="#ffffffff" d="M 33.100,20.800 C 33.100,20.800 33.100,20.800 33.100,20.800 32.200,20.900 32.000,22.100 32.000,23.600 31.467,33.533 30.933,43.467 30.400,53.400 30.400,54.900 31.600,56.100 33.100,56.100 33.100,56.100 33.100,56.100 33.100,56.100 34.600,56.100 35.800,54.900 35.800,53.400 35.267,43.467 34.733,33.533 34.200,23.600 34.200,22.100 33.700,20.800 33.100,20.800 33.100,20.800 33.100,20.800 33.100,20.800 Z " />
  <path stroke="none" fill="#ffffffff" d="M 24.000,8.200 C 24.000,8.200 24.000,8.200 24.000,8.200 23.100,8.200 23.000,9.400 23.000,11.000 22.467,20.933 21.933,30.867 21.400,40.800 21.400,42.300 22.600,43.500 24.100,43.500 24.100,43.500 24.100,43.500 24.100,43.500 25.600,43.500 26.800,42.300 26.800,40.800 26.233,30.867 25.667,20.933 25.100,11.000 25.100,9.400 24.600,8.200 24.000,8.200 24.000,8.200 24.000,8.200 24.000,8.200 Z " />
</svg>