<?xml version="1.0" encoding="UTF-8" standalone="no"?>
<!DOCTYPE svg PUBLIC "-//W3C//DTD SVG 20010904//EN" "http://www.w3.org/TR/2001/REC-SVG-20010904/DTD/svg10.dtd"[]>
<svg version="1.1" id="Frosty Editor v1.0.6.3" xmlns="http://www.w3.org/2000/svg" d1p1:xlink="http://www.w3.org/1999/xlink" viewBox="0 0 25 25" xmlns:d1p1="xmlns">
  <path stroke="none" fill="#ffffffff" d="M 17.551,2.552 C 17.406,2.558 17.265,2.616 17.148,2.733 17.102,2.779 17.055,2.779 17.009,2.779 16.728,2.779 16.541,2.920 16.401,3.107 16.121,3.387 15.934,3.713 15.701,3.993 15.327,4.554 14.907,5.115 14.486,5.675 14.440,5.722 14.439,5.722 14.346,5.722 14.112,5.675 13.926,5.722 13.786,5.909 13.552,6.189 13.365,6.515 13.132,6.796 13.085,6.889 13.038,6.983 13.085,7.123 13.085,7.217 13.085,7.264 13.039,7.310 12.898,7.450 12.805,7.590 12.805,7.777 12.712,8.291 12.571,8.711 12.244,9.131 11.357,10.299 10.469,11.514 9.582,12.682 9.395,12.962 9.208,13.242 8.928,13.475 8.741,13.615 8.555,13.755 8.368,13.802 8.228,13.849 8.134,13.895 8.040,14.035 7.994,14.129 7.947,14.175 7.901,14.269 7.901,14.316 7.854,14.363 7.760,14.363 7.573,14.363 7.480,14.456 7.386,14.550 7.153,14.830 6.920,15.110 6.733,15.390 6.593,15.577 6.639,15.857 6.780,15.998 6.873,16.044 6.826,16.091 6.780,16.185 6.219,16.979 5.611,17.726 5.051,18.520 4.957,18.660 4.911,18.799 4.958,18.940 5.005,19.080 5.098,19.174 5.191,19.267 5.332,19.361 5.331,19.361 5.238,19.501 5.098,19.687 5.005,19.827 4.865,20.014 4.818,20.108 4.771,20.247 4.771,20.341 4.771,20.528 4.771,20.622 5.004,20.855 5.845,21.463 6.686,22.070 7.527,22.724 7.760,22.910 8.087,22.863 8.227,22.630 8.321,22.490 8.461,22.349 8.554,22.209 8.694,21.976 8.694,21.976 8.928,22.116 9.162,22.256 9.442,22.209 9.629,21.976 9.722,21.835 9.815,21.743 9.909,21.602 9.955,21.509 9.956,21.509 10.049,21.556 10.329,21.743 10.563,21.929 10.843,22.116 10.889,22.163 10.937,22.163 10.983,22.116 11.264,21.696 11.543,21.322 11.823,20.948 11.917,20.902 11.870,20.855 11.823,20.808 11.543,20.621 11.310,20.435 11.030,20.248 10.936,20.201 10.937,20.154 10.983,20.107 11.123,19.920 11.264,19.734 11.404,19.547 11.404,19.454 11.450,19.454 11.497,19.501 11.730,19.641 12.011,19.547 12.151,19.360 12.338,19.080 12.571,18.800 12.758,18.520 12.804,18.427 12.898,18.332 12.852,18.239 12.805,18.099 12.851,17.959 12.945,17.866 12.991,17.819 12.992,17.772 13.039,17.725 13.085,17.632 13.132,17.539 13.132,17.445 13.132,17.072 13.225,16.698 13.458,16.418 14.486,15.017 15.514,13.616 16.542,12.214 16.728,11.934 16.962,11.654 17.289,11.514 17.569,11.374 17.896,11.280 18.036,10.953 18.083,10.906 18.082,10.906 18.129,10.906 18.316,10.953 18.456,10.859 18.549,10.719 18.736,10.439 18.970,10.159 19.157,9.879 19.250,9.692 19.297,9.505 19.204,9.318 19.157,9.225 19.203,9.178 19.250,9.085 19.857,8.244 20.465,7.450 21.072,6.610 21.212,6.423 21.306,6.189 21.212,5.909 21.166,5.816 21.166,5.769 21.212,5.675 21.352,5.442 21.259,5.068 21.072,4.927 20.698,4.600 20.231,4.320 19.858,3.947 19.437,3.526 18.877,3.340 18.410,2.966 17.989,2.686 17.989,2.686 17.989,2.686 17.849,2.593 17.697,2.546 17.551,2.552 Z M 17.638,2.900 C 17.706,2.896 17.767,2.931 17.802,2.966 18.083,3.200 18.410,3.480 18.737,3.667 19.017,3.807 19.344,3.993 19.578,4.227 19.951,4.647 20.418,4.881 20.792,5.208 20.932,5.349 20.885,5.629 20.745,5.722 20.699,5.769 20.698,5.675 20.651,5.675 20.091,5.255 19.484,4.788 18.877,4.367 18.363,3.994 17.849,3.620 17.335,3.246 17.289,3.153 17.289,3.153 17.335,3.059 17.382,2.966 17.429,2.873 17.569,2.920 17.592,2.908 17.616,2.902 17.638,2.900 Z M 16.945,3.115 C 17.003,3.112 17.067,3.138 17.148,3.200 18.363,4.087 19.577,5.022 20.792,5.909 20.839,5.956 20.885,6.002 20.885,6.049 20.838,6.189 20.838,6.329 20.838,6.423 20.184,7.263 19.577,8.151 18.924,8.992 18.877,9.085 18.830,9.085 18.737,9.038 17.429,8.057 16.121,7.123 14.813,6.143 14.673,6.049 14.720,6.002 14.766,5.909 15.420,5.068 16.027,4.181 16.681,3.340 16.681,3.293 16.728,3.246 16.728,3.246 16.807,3.167 16.871,3.118 16.945,3.115 Z M 14.197,6.045 C 14.230,6.045 14.264,6.060 14.299,6.095 15.794,7.169 17.288,8.291 18.783,9.412 18.876,9.505 18.876,9.552 18.830,9.646 18.596,9.926 18.363,10.206 18.176,10.486 18.130,10.532 18.083,10.532 17.989,10.532 17.943,10.579 17.849,10.533 17.756,10.439 16.355,9.412 15.000,8.384 13.599,7.357 13.505,7.310 13.458,7.170 13.412,7.077 13.412,7.030 13.412,6.983 13.458,6.983 13.645,6.702 13.879,6.423 14.066,6.143 14.095,6.084 14.143,6.044 14.197,6.045 Z M 13.379,7.602 C 13.425,7.605 13.482,7.631 13.552,7.683 14.860,8.664 16.214,9.692 17.569,10.673 17.616,10.719 17.709,10.767 17.709,10.813 17.663,10.907 17.616,11.000 17.522,11.047 17.429,11.094 17.336,11.140 17.242,11.186 16.775,11.373 16.448,11.747 16.121,12.167 15.140,13.475 14.159,14.829 13.178,16.137 12.945,16.464 12.804,16.838 12.758,17.212 12.758,17.305 12.711,17.398 12.758,17.492 12.711,17.538 12.711,17.538 12.711,17.538 12.618,17.632 12.571,17.725 12.524,17.772 12.384,17.912 12.338,18.052 12.431,18.239 12.478,18.286 12.431,18.333 12.385,18.379 12.198,18.613 12.010,18.893 11.823,19.127 11.730,19.267 11.684,19.267 11.543,19.173 10.189,18.192 8.881,17.165 7.527,16.185 7.387,16.091 7.200,15.951 7.060,15.857 6.966,15.764 6.920,15.670 7.013,15.577 7.200,15.297 7.386,15.063 7.573,14.830 7.667,14.737 7.713,14.689 7.853,14.689 7.993,14.736 8.041,14.643 8.181,14.596 8.181,14.550 8.181,14.550 8.181,14.550 8.274,14.316 8.461,14.176 8.694,14.083 9.068,13.943 9.349,13.709 9.582,13.382 10.610,12.074 11.590,10.719 12.618,9.365 12.945,8.944 13.178,8.431 13.225,7.870 13.225,7.777 13.225,7.777 13.225,7.777 13.254,7.661 13.302,7.598 13.379,7.602 Z M 13.962,9.524 C 13.576,9.518 13.194,9.686 12.945,10.019 11.870,11.513 10.749,12.961 9.675,14.456 9.348,14.876 9.348,15.437 9.675,15.904 9.909,16.184 10.189,16.371 10.470,16.558 10.657,16.698 10.843,16.745 11.076,16.745 11.543,16.745 11.871,16.558 12.104,16.231 13.225,14.783 14.300,13.335 15.374,11.840 15.701,11.420 15.701,10.953 15.420,10.439 15.234,10.112 14.953,9.972 14.720,9.785 14.492,9.614 14.226,9.529 13.962,9.524 Z M 7.337,16.288 C 7.381,16.293 7.428,16.318 7.480,16.371 7.947,16.698 8.414,17.025 8.881,17.399 9.582,17.913 10.283,18.426 10.983,18.940 11.076,19.034 11.076,19.034 11.076,19.034 11.123,19.127 11.170,19.174 11.076,19.314 10.516,20.061 9.909,20.855 9.349,21.649 9.302,21.696 9.301,21.789 9.208,21.742 9.115,21.742 9.068,21.742 9.021,21.696 8.087,20.995 7.106,20.294 6.172,19.594 5.939,19.407 5.658,19.220 5.425,19.034 5.285,18.940 5.285,18.846 5.378,18.706 5.986,17.959 6.546,17.165 7.106,16.418 7.194,16.331 7.263,16.279 7.337,16.288 Z M 5.588,19.559 C 5.612,19.559 5.635,19.570 5.658,19.594 6.546,20.248 7.433,20.902 8.320,21.556 8.367,21.603 8.367,21.649 8.320,21.696 7.901,22.257 7.901,22.257 7.901,22.257 7.854,22.350 7.761,22.397 7.667,22.303 6.827,21.649 5.986,21.042 5.145,20.435 5.145,20.435 5.098,20.388 5.098,20.341 5.098,20.155 5.098,20.155 5.098,20.155 5.238,19.968 5.378,19.781 5.518,19.594 5.541,19.570 5.565,19.559 5.588,19.559 Z " />
</svg>