<?xml version="1.0" encoding="UTF-8" standalone="no"?>
<!DOCTYPE svg PUBLIC "-//W3C//DTD SVG 20010904//EN" "http://www.w3.org/TR/2001/REC-SVG-20010904/DTD/svg10.dtd"[]>
<svg version="1.1" id="Frosty Editor v1.0.6.3" xmlns="http://www.w3.org/2000/svg" d1p1:xlink="http://www.w3.org/1999/xlink" viewBox="0 0 25 25" xmlns:d1p1="xmlns">
  <path stroke="none" fill="#ffffffff" d="M 18.889,1.736 C 18.256,2.831 17.623,3.927 16.989,5.023 17.009,4.679 17.029,4.335 17.048,3.991 16.838,4.508 16.628,5.024 16.418,5.541 16.229,5.415 16.040,5.289 15.852,5.164 15.851,5.538 15.851,5.913 15.850,6.287 15.521,6.483 15.191,6.678 14.862,6.874 15.544,7.265 16.227,7.657 16.909,8.048 16.914,7.668 16.919,7.287 16.924,6.906 17.249,6.717 17.573,6.527 17.898,6.338 17.694,6.240 17.489,6.141 17.285,6.043 17.628,5.602 17.971,5.163 18.315,4.722 18.012,4.919 17.711,5.116 17.409,5.313 18.023,4.249 18.638,3.186 19.253,2.122 19.132,1.671 19.132,1.671 19.132,1.671 Z M 14.660,7.403 C 14.657,7.404 14.656,7.406 14.654,7.408 14.646,7.422 14.650,7.460 14.666,7.544 14.682,7.623 14.692,7.705 14.687,7.727 14.683,7.750 14.690,7.777 14.701,7.788 14.719,7.804 14.716,7.808 14.686,7.804 14.653,7.799 14.645,7.811 14.601,7.929 14.550,8.069 14.545,8.124 14.580,8.145 14.593,8.153 14.578,8.153 14.549,8.146 14.505,8.136 14.489,8.142 14.464,8.177 14.447,8.201 14.439,8.227 14.446,8.235 14.453,8.243 14.441,8.273 14.418,8.302 14.385,8.343 14.382,8.358 14.403,8.376 14.425,8.396 14.416,8.421 14.343,8.547 14.259,8.693 14.259,8.693 14.259,8.693 14.214,8.668 14.214,8.668 14.214,8.668 14.151,8.631 14.117,8.649 14.060,8.749 14.001,8.850 14.003,8.886 14.070,8.925 14.117,8.951 14.117,8.951 14.117,8.951 14.023,9.090 14.023,9.090 14.023,9.090 13.971,9.166 13.917,9.228 13.903,9.228 13.870,9.228 13.848,9.268 13.868,9.292 13.877,9.302 13.926,9.334 13.977,9.363 14.121,9.443 14.121,9.441 14.025,9.608 13.941,9.755 13.941,9.755 13.941,9.755 13.812,9.789 13.812,9.789 13.812,9.789 13.740,9.807 13.654,9.824 13.619,9.825 13.543,9.827 13.527,9.849 13.558,9.909 13.576,9.945 13.574,9.963 13.547,9.990 13.492,10.049 13.292,10.393 13.158,10.660 13.048,10.880 13.029,10.909 13.002,10.900 12.931,10.877 12.894,10.962 12.955,11.010 12.977,11.027 12.992,11.056 12.993,11.082 12.994,11.134 12.745,11.583 12.587,11.813 12.525,11.903 12.488,11.970 12.498,11.976 12.507,11.981 12.342,12.278 12.097,12.697 11.717,13.345 11.677,13.410 11.635,13.418 11.595,13.425 11.562,13.471 11.355,13.815 11.121,14.202 11.120,14.203 11.154,14.230 11.182,14.252 11.185,14.266 11.167,14.297 11.151,14.325 11.135,14.332 11.117,14.322 11.103,14.314 11.084,14.309 11.074,14.311 11.045,14.317 11.047,14.376 11.076,14.393 11.118,14.417 11.074,14.476 11.021,14.467 10.957,14.455 10.940,14.502 10.954,14.646 10.967,14.771 10.967,14.775 10.888,14.906 10.822,15.015 10.810,15.047 10.822,15.082 10.830,15.106 10.849,15.133 10.864,15.141 10.907,15.166 10.920,15.216 10.895,15.261 10.873,15.302 10.873,15.302 10.873,15.302 10.839,15.246 10.839,15.246 10.839,15.246 10.796,15.176 10.657,15.033 10.615,15.014 10.584,15.000 10.543,15.067 9.934,16.135 9.579,16.760 9.292,17.279 9.296,17.289 9.301,17.298 9.351,17.322 9.406,17.341 9.507,17.376 9.587,17.378 9.792,17.350 9.863,17.341 9.863,17.341 9.863,17.341 10.083,16.960 10.083,16.960 10.083,16.960 10.204,16.750 10.311,16.578 10.322,16.576 10.335,16.573 10.413,16.614 10.547,16.693 10.550,16.695 10.550,16.695 10.550,16.695 10.678,16.767 10.748,16.812 10.753,16.824 10.756,16.834 10.661,17.015 10.541,17.224 10.321,17.605 10.321,17.605 10.321,17.605 10.347,17.670 10.347,17.670 10.347,17.670 10.425,17.861 10.467,17.931 10.548,18.000 10.592,18.039 10.638,18.070 10.648,18.069 10.659,18.069 10.965,17.561 11.328,16.940 11.949,15.879 11.987,15.810 11.960,15.790 11.922,15.763 11.728,15.714 11.646,15.712 11.581,15.710 11.581,15.710 11.581,15.710 11.606,15.671 11.606,15.671 11.606,15.671 11.632,15.627 11.681,15.613 11.724,15.638 11.739,15.647 11.772,15.650 11.796,15.645 11.833,15.638 11.855,15.611 11.917,15.500 11.991,15.366 11.994,15.363 12.108,15.312 12.240,15.252 12.272,15.214 12.230,15.165 12.196,15.124 12.225,15.056 12.267,15.080 12.296,15.097 12.348,15.069 12.339,15.041 12.336,15.031 12.322,15.017 12.308,15.009 12.289,14.999 12.288,14.982 12.304,14.954 12.322,14.923 12.335,14.917 12.367,14.930 12.408,14.946 12.409,14.945 12.627,14.549 12.821,14.199 12.845,14.147 12.832,14.109 12.818,14.069 12.852,14.001 13.224,13.348 13.464,12.926 13.639,12.635 13.649,12.641 13.658,12.646 13.699,12.580 13.746,12.482 13.866,12.230 14.130,11.790 14.175,11.765 14.199,11.752 14.231,11.751 14.257,11.762 14.329,11.790 14.384,11.717 14.329,11.666 14.308,11.647 14.323,11.616 14.458,11.411 14.622,11.162 14.821,10.815 14.843,10.738 14.854,10.701 14.868,10.691 14.908,10.688 14.976,10.684 14.987,10.660 14.951,10.594 14.935,10.563 14.906,10.480 14.886,10.409 14.851,10.280 14.851,10.280 14.851,10.280 14.936,10.134 14.936,10.134 14.936,10.134 15.033,9.968 15.031,9.968 15.173,10.053 15.222,10.083 15.274,10.109 15.287,10.112 15.318,10.118 15.343,10.078 15.326,10.049 15.319,10.037 15.346,9.960 15.386,9.877 15.458,9.726 15.458,9.726 15.458,9.726 15.506,9.753 15.506,9.753 15.506,9.753 15.572,9.792 15.604,9.776 15.663,9.674 15.721,9.574 15.719,9.536 15.655,9.499 15.612,9.474 15.612,9.474 15.612,9.474 15.696,9.328 15.696,9.328 15.696,9.328 15.769,9.202 15.786,9.182 15.814,9.191 15.840,9.200 15.851,9.190 15.871,9.140 15.884,9.107 15.903,9.081 15.914,9.083 15.924,9.085 15.943,9.065 15.956,9.038 15.974,8.999 15.971,8.983 15.940,8.950 15.919,8.927 15.912,8.915 15.925,8.922 15.962,8.942 16.006,8.910 16.101,8.796 16.182,8.699 16.188,8.685 16.168,8.658 16.150,8.635 16.151,8.631 16.174,8.638 16.189,8.643 16.216,8.635 16.233,8.620 16.250,8.605 16.327,8.572 16.403,8.546 16.484,8.519 16.519,8.503 16.526,8.489 16.529,8.484 16.529,8.480 16.526,8.475 16.517,8.460 16.436,8.403 16.322,8.333 16.133,8.218 16.133,8.218 16.133,8.218 16.135,8.151 16.135,8.151 16.135,8.151 16.136,8.084 16.136,8.083 16.054,8.032 15.986,7.989 15.973,7.976 15.976,7.951 15.979,7.925 15.966,7.913 15.861,7.844 15.820,7.817 15.758,7.780 15.697,7.746 15.697,7.746 15.697,7.746 15.697,7.746 15.643,7.714 15.586,7.682 15.546,7.662 15.434,7.606 15.417,7.600 15.395,7.616 15.375,7.631 15.358,7.627 15.286,7.589 15.201,7.544 15.201,7.544 15.143,7.578 15.085,7.613 15.085,7.613 15.085,7.613 14.891,7.507 14.891,7.507 14.891,7.507 14.774,7.444 14.684,7.402 14.667,7.402 14.664,7.402 14.662,7.402 14.660,7.403 Z M 8.851,17.286 C 8.846,17.669 8.841,18.052 8.837,18.435 8.513,18.623 8.188,18.811 7.864,18.998 8.067,19.099 8.270,19.199 8.473,19.299 8.131,19.740 7.789,20.181 7.446,20.622 7.734,20.432 8.023,20.243 8.311,20.054 7.666,21.173 7.020,22.292 6.375,23.411 6.440,23.653 6.440,23.653 6.440,23.653 6.892,23.532 6.892,23.532 6.892,23.532 7.518,22.446 8.145,21.358 8.772,20.271 8.752,20.631 8.732,20.992 8.713,21.352 8.923,20.835 9.133,20.317 9.343,19.799 9.530,19.928 9.717,20.056 9.904,20.184 9.906,19.808 9.908,19.431 9.909,19.055 10.236,18.861 10.564,18.667 10.891,18.472 10.211,18.077 9.530,17.681 8.851,17.286 Z " />
</svg>