<?xml version="1.0" encoding="UTF-8" standalone="no"?>
<!DOCTYPE svg PUBLIC "-//W3C//DTD SVG 20010904//EN" "http://www.w3.org/TR/2001/REC-SVG-20010904/DTD/svg10.dtd"[]>
<svg version="1.1" id="Frosty Editor v1.0.6.3" xmlns="http://www.w3.org/2000/svg" d1p1:xlink="http://www.w3.org/1999/xlink" viewBox="0 0 384 96" xmlns:d1p1="xmlns">
  <path stroke="none" fill="none" d="M 163.020,21.300 C 163.020,20.670 163.020,20.040 163.020,19.410 162.940,19.407 162.860,19.403 162.780,19.400 162.780,20.033 162.780,20.667 162.780,21.300 162.860,21.300 162.940,21.300 163.020,21.300 163.020,21.300 163.020,21.300 163.020,21.300 Z " />
  <path stroke="none" fill="none" d="M 166.330,25.770 C 168.233,25.770 170.137,25.770 172.040,25.770 172.040,28.247 172.040,30.723 172.040,33.200 170.137,33.200 168.233,33.200 166.330,33.200 166.330,30.723 166.330,28.247 166.330,25.770 Z " />
  <path stroke="none" fill="none" d="M 204.320,38.210 C 204.440,38.090 204.560,37.970 204.680,37.850 204.680,32.550 204.680,27.250 204.680,21.950 204.560,21.950 204.440,21.950 204.320,21.950 204.320,21.420 204.320,20.890 204.320,20.360 199.907,20.360 195.493,20.360 191.080,20.360 191.080,20.657 191.080,20.953 191.080,21.250 190.977,21.250 190.873,21.250 190.770,21.250 190.770,26.907 190.770,32.563 190.770,38.220 195.287,38.217 199.803,38.213 204.320,38.210 204.320,38.210 204.320,38.210 204.320,38.210 Z " />
  <path stroke="none" fill="none" d="M 114.040,12.740 C 115.310,12.743 116.580,12.747 117.850,12.750 117.850,12.527 117.850,12.303 117.850,12.080 116.580,12.080 115.310,12.080 114.040,12.080 114.040,12.300 114.040,12.520 114.040,12.740 114.040,12.740 114.040,12.740 114.040,12.740 Z " />
  <path stroke="none" fill="none" d="M 191.120,15.490 C 195.520,15.490 199.920,15.490 204.320,15.490 204.320,16.613 204.320,17.737 204.320,18.860 199.920,18.860 195.520,18.860 191.120,18.860 191.120,17.737 191.120,16.613 191.120,15.490 Z " />
  <path stroke="none" fill="none" d="M 189.270,38.220 C 189.270,32.563 189.270,26.907 189.270,21.250 181.520,21.250 173.770,21.250 166.020,21.250 166.020,22.257 166.020,23.263 166.020,24.270 168.523,24.270 171.027,24.270 173.530,24.270 173.530,27.747 173.530,31.223 173.530,34.700 171.017,34.700 168.503,34.700 165.990,34.700 165.990,37.213 165.990,39.727 165.990,42.240 168.267,42.537 170.543,42.833 172.820,43.130 173.130,41.873 173.440,40.617 173.750,39.360 174.237,38.980 174.723,38.600 175.210,38.220 179.897,38.220 184.583,38.220 189.270,38.220 189.270,38.220 189.270,38.220 189.270,38.220 Z " />
  <path stroke="none" fill="none" d="M 215.970,21.950 C 214.803,21.950 213.637,21.950 212.470,21.950 212.470,26.963 212.470,31.977 212.470,36.990 212.657,37.177 212.843,37.363 213.030,37.550 214.010,37.550 214.990,37.550 215.970,37.550 215.970,32.350 215.970,27.150 215.970,21.950 215.970,21.950 215.970,21.950 215.970,21.950 Z " />
  <path stroke="none" fill="none" d="M 218.860,24.910 C 218.841,24.415 219.023,23.934 219.363,23.574 219.704,23.215 220.175,23.008 220.670,23.000 223.430,23.000 226.190,23.000 228.950,23.000 229.438,23.008 229.903,23.209 230.242,23.560 230.582,23.911 230.768,24.382 230.760,24.870 230.760,25.337 230.760,25.803 230.760,26.270 230.768,26.758 230.582,27.229 230.242,27.580 229.903,27.931 229.438,28.132 228.950,28.140 226.190,28.140 223.430,28.140 220.670,28.140 220.182,28.132 219.717,27.931 219.378,27.580 219.038,27.229 218.852,26.758 218.860,26.270 218.860,25.817 218.860,25.363 218.860,24.910 Z M 230.790,32.330 C 230.785,33.323 229.993,34.133 229.000,34.160 226.240,34.160 223.480,34.160 220.720,34.160 220.232,34.152 219.767,33.951 219.428,33.600 219.088,33.249 218.902,32.778 218.910,32.290 218.910,31.823 218.910,31.357 218.910,30.890 218.882,29.877 219.678,29.033 220.690,29.000 223.460,29.000 226.230,29.000 229.000,29.000 229.488,29.008 229.953,29.209 230.292,29.560 230.632,29.911 230.818,30.382 230.810,30.870 230.803,31.357 230.797,31.843 230.790,32.330 Z M 231.610,24.910 C 231.591,24.415 231.773,23.934 232.113,23.574 232.454,23.215 232.925,23.008 233.420,23.000 236.180,23.000 238.940,23.000 241.700,23.000 242.188,23.008 242.653,23.209 242.992,23.560 243.332,23.911 243.518,24.382 243.510,24.870 243.510,25.337 243.510,25.803 243.510,26.270 243.518,26.758 243.332,27.229 242.992,27.580 242.653,27.931 242.188,28.132 241.700,28.140 238.940,28.140 236.180,28.140 233.420,28.140 232.932,28.132 232.467,27.931 232.128,27.580 231.788,27.229 231.602,26.758 231.610,26.270 231.610,25.817 231.610,25.363 231.610,24.910 Z M 243.540,32.330 C 243.548,32.818 243.362,33.289 243.022,33.640 242.683,33.991 242.218,34.192 241.730,34.200 238.970,34.200 236.210,34.200 233.450,34.200 232.962,34.192 232.497,33.991 232.158,33.640 231.818,33.289 231.632,32.818 231.640,32.330 231.640,31.863 231.640,31.397 231.640,30.930 231.616,30.433 231.793,29.948 232.132,29.585 232.471,29.221 232.943,29.010 233.440,29.000 236.200,29.000 238.960,29.000 241.720,29.000 242.208,29.008 242.673,29.209 243.012,29.560 243.352,29.911 243.538,30.382 243.530,30.870 243.533,31.357 243.537,31.843 243.540,32.330 Z M 244.360,24.910 C 244.341,24.415 244.523,23.934 244.863,23.574 245.204,23.215 245.675,23.008 246.170,23.000 248.930,23.000 251.690,23.000 254.450,23.000 254.938,23.008 255.403,23.209 255.742,23.560 256.082,23.911 256.268,24.382 256.260,24.870 256.260,25.337 256.260,25.803 256.260,26.270 256.268,26.758 256.082,27.229 255.742,27.580 255.403,27.931 254.938,28.132 254.450,28.140 251.690,28.140 248.930,28.140 246.170,28.140 245.682,28.132 245.217,27.931 244.878,27.580 244.538,27.229 244.352,26.758 244.360,26.270 244.360,25.817 244.360,25.363 244.360,24.910 Z M 256.290,32.330 C 256.298,32.818 256.112,33.289 255.772,33.640 255.433,33.991 254.968,34.192 254.480,34.200 251.720,34.200 248.960,34.200 246.200,34.200 245.712,34.192 245.247,33.991 244.908,33.640 244.568,33.289 244.382,32.818 244.390,32.330 244.390,31.863 244.390,31.397 244.390,30.930 244.366,30.433 244.543,29.948 244.882,29.585 245.221,29.221 245.693,29.010 246.190,29.000 248.950,29.000 251.710,29.000 254.470,29.000 254.958,29.008 255.423,29.209 255.762,29.560 256.102,29.911 256.288,30.382 256.280,30.870 256.283,31.357 256.287,31.843 256.290,32.330 Z M 257.110,24.910 C 257.086,24.422 257.258,23.945 257.589,23.586 257.920,23.227 258.382,23.016 258.870,23.000 261.490,23.000 264.110,23.000 266.730,23.000 267.731,23.033 268.518,23.868 268.490,24.870 268.490,25.337 268.490,25.803 268.490,26.270 268.518,27.272 267.731,28.107 266.730,28.140 264.110,28.140 261.490,28.140 258.870,28.140 257.869,28.107 257.082,27.272 257.110,26.270 257.110,25.817 257.110,25.363 257.110,24.910 Z M 268.510,32.330 C 268.538,33.332 267.751,34.167 266.750,34.200 264.130,34.200 261.510,34.200 258.890,34.200 257.889,34.167 257.102,33.332 257.130,32.330 257.130,31.863 257.130,31.397 257.130,30.930 257.100,30.439 257.270,29.956 257.602,29.593 257.933,29.229 258.398,29.015 258.890,29.000 261.510,29.000 264.130,29.000 266.750,29.000 267.751,29.033 268.538,29.868 268.510,30.870 268.510,31.357 268.510,31.843 268.510,32.330 Z M 217.780,22.000 C 217.677,22.000 217.573,22.000 217.470,22.000 217.470,27.200 217.470,32.400 217.470,37.600 229.470,37.600 241.470,37.600 253.470,37.600 253.470,36.610 253.470,35.620 253.470,34.630 255.223,34.630 256.977,34.630 258.730,34.630 258.730,35.607 258.730,36.583 258.730,37.560 262.063,37.560 265.397,37.560 268.730,37.560 268.730,31.990 268.730,26.420 268.730,20.850 251.747,20.850 234.763,20.850 217.780,20.850 217.780,21.233 217.780,21.617 217.780,22.000 Z " />
  <path stroke="none" fill="none" d="M 188.900,49.400 C 187.481,49.400 186.330,48.249 186.330,46.830 186.330,45.411 187.481,44.260 188.900,44.260 190.319,44.260 191.470,45.411 191.470,46.830 191.470,47.512 191.199,48.165 190.717,48.647 190.235,49.129 189.582,49.400 188.900,49.400 188.900,49.400 188.900,49.400 188.900,49.400 Z M 188.820,44.140 C 187.717,44.138 186.723,44.807 186.310,45.830 186.207,45.887 186.103,45.943 186.000,46.000 185.924,46.260 185.884,46.529 185.880,46.800 185.878,48.400 187.132,49.720 188.730,49.800 188.827,49.697 188.923,49.593 189.020,49.490 189.137,49.490 189.253,49.490 189.370,49.490 189.510,49.490 189.650,49.490 189.790,49.490 189.960,49.490 190.130,49.490 190.300,49.490 191.315,48.978 191.954,47.937 191.950,46.800 191.950,46.710 191.950,46.620 191.950,46.530 191.793,46.397 191.637,46.263 191.480,46.130 191.155,44.935 190.058,44.115 188.820,44.140 188.820,44.140 188.820,44.140 188.820,44.140 Z " />
  <path stroke="none" fill="none" d="M 189.970,46.840 C 189.970,47.431 189.491,47.910 188.900,47.910 188.309,47.910 187.830,47.431 187.830,46.840 187.830,46.249 188.309,45.770 188.900,45.770 189.491,45.770 189.970,46.249 189.970,46.840 189.970,46.840 189.970,46.840 189.970,46.840 Z " />
  <path stroke="none" fill="none" d="M 147.240,14.720 C 147.903,14.797 148.567,14.873 149.230,14.950 149.230,13.360 149.230,11.770 149.230,10.180 148.567,10.180 147.903,10.180 147.240,10.180 147.240,11.693 147.240,13.207 147.240,14.720 147.240,14.720 147.240,14.720 147.240,14.720 Z " />
  <path stroke="none" fill="none" d="M 140.070,13.880 C 141.960,14.100 143.850,14.320 145.740,14.540 145.740,12.703 145.740,10.867 145.740,9.030 145.623,8.913 145.507,8.797 145.390,8.680 145.390,8.013 145.390,7.347 145.390,6.680 143.733,6.680 142.077,6.680 140.420,6.680 140.420,7.670 140.420,8.660 140.420,9.650 140.303,9.767 140.187,9.883 140.070,10.000 140.070,11.293 140.070,12.587 140.070,13.880 140.070,13.880 140.070,13.880 140.070,13.880 Z " />
  <path stroke="none" fill="none" d="M 135.860,20.330 C 140.233,20.330 144.607,20.330 148.980,20.330 148.980,19.533 148.980,18.737 148.980,17.940 146.050,17.600 143.120,17.260 140.190,16.920 140.190,17.507 140.190,18.093 140.190,18.680 138.747,18.680 137.303,18.680 135.860,18.680 135.860,19.230 135.860,19.780 135.860,20.330 135.860,20.330 135.860,20.330 135.860,20.330 Z " />
  <path stroke="none" fill="none" d="M 214.780,18.370 C 213.420,18.370 212.060,18.370 210.700,18.370 210.700,17.610 210.700,16.850 210.700,16.090 209.577,16.090 208.453,16.090 207.330,16.090 207.330,17.043 207.330,17.997 207.330,18.950 209.813,18.950 212.297,18.950 214.780,18.950 214.780,18.757 214.780,18.563 214.780,18.370 214.780,18.370 214.780,18.370 214.780,18.370 Z " />
  <path stroke="none" fill="none" d="M 119.350,12.760 C 119.607,12.760 119.863,12.760 120.120,12.760 120.120,12.987 120.120,13.213 120.120,13.440 126.270,13.440 132.420,13.440 138.570,13.440 138.570,12.677 138.570,11.913 138.570,11.150 132.163,11.150 125.757,11.150 119.350,11.150 119.350,11.687 119.350,12.223 119.350,12.760 119.350,12.760 119.350,12.760 119.350,12.760 Z " />
  <path stroke="none" fill="none" d="M 210.350,11.700 C 210.870,11.700 211.390,11.700 211.910,11.700 211.910,12.160 211.910,12.620 211.910,13.080 211.390,13.080 210.870,13.080 210.350,13.080 210.350,12.620 210.350,12.160 210.350,11.700 Z " />
  <path stroke="none" fill="none" d="M 206.300,12.490 C 206.643,12.490 206.987,12.490 207.330,12.490 207.330,12.690 207.330,12.890 207.330,13.090 207.817,13.090 208.303,13.090 208.790,13.090 208.790,12.630 208.790,12.170 208.790,11.710 207.960,11.710 207.130,11.710 206.300,11.710 206.300,11.970 206.300,12.230 206.300,12.490 206.300,12.490 206.300,12.490 206.300,12.490 Z " />
  <path stroke="none" fill="none" d="M 150.730,15.070 C 155.160,15.517 159.590,15.963 164.020,16.410 164.020,15.163 164.020,13.917 164.020,12.670 168.347,12.670 172.673,12.670 177.000,12.670 177.000,13.007 177.000,13.343 177.000,13.680 180.707,13.670 184.413,13.660 188.120,13.650 188.120,13.263 188.120,12.877 188.120,12.490 193.660,12.490 199.200,12.490 204.740,12.490 204.740,11.880 204.740,11.270 204.740,10.660 195.553,10.660 186.367,10.660 177.180,10.660 177.180,10.707 177.180,10.753 177.180,10.800 176.680,11.300 176.180,11.800 175.680,12.300 172.380,12.300 169.080,12.300 165.780,12.300 165.280,11.800 164.780,11.300 164.280,10.800 164.280,8.533 164.280,6.267 164.280,4.000 159.877,4.000 155.473,4.000 151.070,4.000 151.070,5.560 151.070,7.120 151.070,8.680 150.957,8.793 150.843,8.907 150.730,9.020 150.730,11.037 150.730,13.053 150.730,15.070 150.730,15.070 150.730,15.070 150.730,15.070 Z " />
  <path stroke="none" fill="none" d="M 187.880,41.220 C 184.047,41.220 180.213,41.220 176.380,41.220 176.253,41.793 176.127,42.367 176.000,42.940 178.707,43.187 181.413,43.433 184.120,43.680 184.981,42.377 186.341,41.487 187.880,41.220 187.880,41.220 187.880,41.220 187.880,41.220 Z " />
  <path stroke="none" fill="none" d="M 281.960,15.040 C 281.960,15.277 281.768,15.470 281.530,15.470 281.293,15.470 281.100,15.277 281.100,15.040 281.100,14.803 281.293,14.610 281.530,14.610 281.768,14.610 281.960,14.803 281.960,15.040 281.960,15.040 281.960,15.040 281.960,15.040 Z " />
  <path stroke="none" fill="none" d="M 273.400,11.280 C 274.863,11.280 276.327,11.280 277.790,11.280 277.790,11.903 277.790,12.527 277.790,13.150 276.327,13.150 274.863,13.150 273.400,13.150 273.400,12.527 273.400,11.903 273.400,11.280 Z " />
  <path stroke="none" fill="none" d="M 279.290,13.160 C 279.407,13.160 279.523,13.160 279.640,13.160 279.640,13.660 279.640,14.160 279.640,14.660 279.786,13.885 280.392,13.277 281.167,13.130 281.942,12.982 282.729,13.323 283.150,13.990 283.237,13.903 283.323,13.817 283.410,13.730 283.410,12.730 283.410,11.730 283.410,10.730 283.293,10.613 283.177,10.497 283.060,10.380 283.060,9.943 283.060,9.507 283.060,9.070 281.920,9.070 280.780,9.070 279.640,9.070 279.640,9.307 279.640,9.543 279.640,9.780 279.523,9.897 279.407,10.013 279.290,10.130 279.290,11.140 279.290,12.150 279.290,13.160 Z " />
  <path stroke="none" fill="none" d="M 213.470,13.090 C 213.547,13.090 213.623,13.090 213.700,13.090 213.700,13.850 213.700,14.610 213.700,15.370 232.980,15.370 252.260,15.370 271.540,15.370 271.540,14.630 271.540,13.890 271.540,13.150 271.657,13.150 271.773,13.150 271.890,13.150 271.890,12.143 271.890,11.137 271.890,10.130 271.773,10.013 271.657,9.897 271.540,9.780 271.540,9.543 271.540,9.307 271.540,9.070 252.260,9.070 232.980,9.070 213.700,9.070 213.700,9.450 213.700,9.830 213.700,10.210 213.623,10.287 213.547,10.363 213.470,10.440 213.470,11.323 213.470,12.207 213.470,13.090 213.470,13.090 213.470,13.090 213.470,13.090 Z " />
  <path stroke="none" fill="none" d="M 281.530,17.000 C 280.611,16.999 279.821,16.351 279.640,15.450 279.640,17.010 279.640,18.570 279.640,20.130 280.287,20.400 280.933,20.670 281.580,20.940 282.073,20.940 282.567,20.940 283.060,20.940 283.060,19.360 283.060,17.780 283.060,16.200 282.705,16.694 282.138,16.991 281.530,17.000 281.530,17.000 281.530,17.000 281.530,17.000 Z " />
  <path stroke="none" fill="none" d="M 220.670,26.640 C 223.430,26.640 226.190,26.640 228.950,26.640 229.040,26.632 229.124,26.589 229.182,26.520 229.240,26.450 229.268,26.360 229.260,26.270 229.260,25.803 229.260,25.337 229.260,24.870 229.268,24.780 229.240,24.690 229.182,24.620 229.124,24.551 229.040,24.508 228.950,24.500 226.190,24.500 223.430,24.500 220.670,24.500 220.580,24.508 220.496,24.551 220.438,24.620 220.380,24.690 220.352,24.780 220.360,24.870 220.360,25.337 220.360,25.803 220.360,26.270 220.352,26.360 220.380,26.450 220.438,26.520 220.496,26.589 220.580,26.632 220.670,26.640 220.670,26.640 220.670,26.640 220.670,26.640 Z " />
  <path stroke="none" fill="none" d="M 245.240,53.980 C 245.240,53.093 245.240,52.207 245.240,51.320 245.357,51.203 245.473,51.087 245.590,50.970 245.590,47.497 245.590,44.023 245.590,40.550 243.967,40.550 242.343,40.550 240.720,40.550 240.720,40.950 240.720,41.350 240.720,41.750 240.720,44.630 240.720,47.510 240.720,50.390 240.720,51.587 240.720,52.783 240.720,53.980 242.227,53.980 243.733,53.980 245.240,53.980 245.240,53.980 245.240,53.980 245.240,53.980 Z " />
  <path stroke="none" fill="none" d="M 274.550,17.050 C 275.050,17.050 275.550,17.050 276.050,17.050 276.050,17.560 276.050,18.070 276.050,18.580 276.247,18.663 276.443,18.747 276.640,18.830 276.640,17.940 276.640,17.050 276.640,16.160 275.940,16.160 275.240,16.160 274.540,16.160 274.543,16.457 274.547,16.753 274.550,17.050 274.550,17.050 274.550,17.050 274.550,17.050 Z " />
  <path stroke="none" fill="none" d="M 233.420,26.640 C 236.180,26.640 238.940,26.640 241.700,26.640 241.790,26.632 241.874,26.589 241.932,26.520 241.990,26.450 242.018,26.360 242.010,26.270 242.010,25.803 242.010,25.337 242.010,24.870 242.018,24.780 241.990,24.690 241.932,24.620 241.874,24.551 241.790,24.508 241.700,24.500 238.940,24.500 236.180,24.500 233.420,24.500 233.330,24.508 233.246,24.551 233.188,24.620 233.130,24.690 233.102,24.780 233.110,24.870 233.110,25.337 233.110,25.803 233.110,26.270 233.102,26.360 233.130,26.450 233.188,26.520 233.246,26.589 233.330,26.632 233.420,26.640 233.420,26.640 233.420,26.640 233.420,26.640 Z " />
  <path stroke="none" fill="none" d="M 254.980,36.130 C 255.733,36.130 256.487,36.130 257.240,36.130 257.240,40.693 257.240,45.257 257.240,49.820 256.487,49.820 255.733,49.820 254.980,49.820 254.980,45.257 254.980,40.693 254.980,36.130 Z " />
  <path stroke="none" fill="none" d="M 246.170,26.640 C 248.930,26.640 251.690,26.640 254.450,26.640 254.540,26.632 254.624,26.589 254.682,26.520 254.740,26.450 254.768,26.360 254.760,26.270 254.760,25.803 254.760,25.337 254.760,24.870 254.768,24.780 254.740,24.690 254.682,24.620 254.624,24.551 254.540,24.508 254.450,24.500 251.690,24.500 248.930,24.500 246.170,24.500 246.080,24.508 245.996,24.551 245.938,24.620 245.880,24.690 245.852,24.780 245.860,24.870 245.860,25.337 245.860,25.803 245.860,26.270 245.852,26.360 245.880,26.450 245.938,26.520 245.996,26.589 246.080,26.632 246.170,26.640 246.170,26.640 246.170,26.640 246.170,26.640 Z " />
  <path stroke="none" fill="none" d="M 229.000,30.530 C 226.240,30.530 223.480,30.530 220.720,30.530 220.630,30.538 220.546,30.581 220.488,30.650 220.430,30.720 220.402,30.810 220.410,30.900 220.410,31.367 220.410,31.833 220.410,32.300 220.402,32.390 220.430,32.480 220.488,32.550 220.546,32.619 220.630,32.662 220.720,32.670 223.480,32.670 226.240,32.670 229.000,32.670 229.090,32.662 229.174,32.619 229.232,32.550 229.290,32.480 229.318,32.390 229.310,32.300 229.310,31.833 229.310,31.367 229.310,30.900 229.318,30.810 229.290,30.720 229.232,30.650 229.174,30.581 229.090,30.538 229.000,30.530 229.000,30.530 229.000,30.530 229.000,30.530 Z " />
  <path stroke="none" fill="none" d="M 241.720,30.530 C 238.960,30.530 236.200,30.530 233.440,30.530 233.350,30.538 233.266,30.581 233.208,30.650 233.150,30.720 233.122,30.810 233.130,30.900 233.130,31.367 233.130,31.833 233.130,32.300 233.122,32.390 233.150,32.480 233.208,32.550 233.266,32.619 233.350,32.662 233.440,32.670 236.200,32.670 238.960,32.670 241.720,32.670 241.810,32.662 241.894,32.619 241.952,32.550 242.010,32.480 242.038,32.390 242.030,32.300 242.030,31.833 242.030,31.367 242.030,30.900 242.038,30.810 242.010,30.720 241.952,30.650 241.894,30.581 241.810,30.538 241.720,30.530 241.720,30.530 241.720,30.530 241.720,30.530 Z " />
  <path stroke="none" fill="none" d="M 266.750,30.530 C 264.130,30.530 261.510,30.530 258.890,30.530 258.770,30.530 258.630,30.680 258.630,30.900 258.630,31.367 258.630,31.833 258.630,32.300 258.630,32.520 258.770,32.670 258.890,32.670 261.510,32.670 264.130,32.670 266.750,32.670 266.870,32.670 267.010,32.520 267.010,32.300 267.010,31.833 267.010,31.367 267.010,30.900 267.000,30.680 266.870,30.530 266.750,30.530 266.750,30.530 266.750,30.530 266.750,30.530 Z " />
  <path stroke="none" fill="none" d="M 254.470,30.530 C 251.710,30.530 248.950,30.530 246.190,30.530 246.100,30.538 246.016,30.581 245.958,30.650 245.900,30.720 245.872,30.810 245.880,30.900 245.880,31.367 245.880,31.833 245.880,32.300 245.872,32.390 245.900,32.480 245.958,32.550 246.016,32.619 246.100,32.662 246.190,32.670 248.950,32.670 251.710,32.670 254.470,32.670 254.560,32.662 254.644,32.619 254.702,32.550 254.760,32.480 254.788,32.390 254.780,32.300 254.780,31.833 254.780,31.367 254.780,30.900 254.788,30.810 254.760,30.720 254.702,30.650 254.644,30.581 254.560,30.538 254.470,30.530 254.470,30.530 254.470,30.530 254.470,30.530 Z " />
  <path stroke="none" fill="none" d="M 258.870,26.640 C 261.490,26.640 264.110,26.640 266.730,26.640 266.850,26.640 266.990,26.490 266.990,26.270 266.990,25.803 266.990,25.337 266.990,24.870 266.990,24.650 266.850,24.500 266.730,24.500 264.110,24.500 261.490,24.500 258.870,24.500 258.750,24.500 258.610,24.650 258.610,24.870 258.610,25.337 258.610,25.803 258.610,26.270 258.610,26.480 258.750,26.640 258.870,26.640 258.870,26.640 258.870,26.640 258.870,26.640 Z " />
  <path stroke="none" fill="none" d="M 167.020,15.670 C 167.020,16.530 167.020,17.390 167.020,18.250 174.040,18.250 181.060,18.250 188.080,18.250 188.080,17.717 188.080,17.183 188.080,16.650 183.387,16.663 178.693,16.677 174.000,16.690 174.000,16.350 174.000,16.010 174.000,15.670 171.673,15.670 169.347,15.670 167.020,15.670 167.020,15.670 167.020,15.670 167.020,15.670 Z " />
  <path stroke="none" fill="none" d="M 206.270,21.960 C 207.837,21.960 209.403,21.960 210.970,21.960 210.970,26.880 210.970,31.800 210.970,36.720 209.403,36.720 207.837,36.720 206.270,36.720 206.270,31.800 206.270,26.880 206.270,21.960 Z " />
  <path stroke="none" fill="none" d="M 237.130,45.940 C 237.130,46.614 236.584,47.160 235.910,47.160 235.236,47.160 234.690,46.614 234.690,45.940 234.690,45.266 235.236,44.720 235.910,44.720 236.584,44.720 237.130,45.266 237.130,45.940 237.130,45.940 237.130,45.940 237.130,45.940 Z " />
  <path stroke="none" fill="none" d="M 225.980,45.940 C 225.980,46.614 225.434,47.160 224.760,47.160 224.086,47.160 223.540,46.614 223.540,45.940 223.540,45.266 224.086,44.720 224.760,44.720 225.434,44.720 225.980,45.266 225.980,45.940 225.980,45.940 225.980,45.940 225.980,45.940 Z " />
  <path stroke="none" fill="none" d="M 161.820,52.380 C 161.820,52.971 161.341,53.450 160.750,53.450 160.159,53.450 159.680,52.971 159.680,52.380 159.680,51.789 160.159,51.310 160.750,51.310 161.341,51.310 161.820,51.789 161.820,52.380 161.820,52.380 161.820,52.380 161.820,52.380 Z " />
  <path stroke="none" fill="none" d="M 184.760,80.780 C 182.455,82.580 179.582,83.495 176.660,83.360 173.997,83.361 171.359,82.848 168.890,81.850 165.493,80.337 163.663,76.613 164.540,73.000 164.707,72.457 164.873,71.913 165.040,71.370 165.990,71.283 166.940,71.197 167.890,71.110 169.027,66.830 170.163,62.550 171.300,58.270 171.860,58.577 172.420,58.883 172.980,59.190 173.203,59.301 173.443,59.376 173.690,59.410 173.590,58.980 173.380,58.410 173.250,58.000 172.770,56.590 172.350,55.380 172.780,54.350 172.880,54.120 172.970,53.790 173.090,53.350 173.210,52.910 173.460,52.160 173.720,51.480 173.843,51.147 173.967,50.813 174.090,50.480 177.867,50.480 181.643,50.480 185.420,50.480 180.927,50.053 176.433,49.627 171.940,49.200 171.740,49.777 171.540,50.353 171.340,50.930 169.853,50.770 168.367,50.610 166.880,50.450 167.505,53.137 166.306,55.917 163.924,57.307 161.542,58.698 158.532,58.374 156.500,56.509 154.468,54.644 153.888,51.672 155.070,49.180 152.117,48.847 149.163,48.513 146.210,48.180 148.918,49.422 150.577,52.208 150.380,55.180 150.250,60.520 146.510,64.580 143.780,67.550 143.463,67.883 143.147,68.217 142.830,68.550 140.340,71.340 134.540,77.600 133.100,79.140 132.967,79.643 132.833,80.147 132.700,80.650 135.130,84.300 138.700,89.650 139.040,90.100 139.180,90.280 140.040,90.880 145.200,90.880 149.983,90.880 154.767,90.880 159.550,90.880 161.975,90.885 164.350,90.190 166.390,88.880 170.555,86.573 175.144,85.130 179.880,84.640 185.380,83.880 186.980,78.740 187.440,75.540 187.133,77.529 186.193,79.367 184.760,80.780 184.760,80.780 184.760,80.780 184.760,80.780 Z " />
  <path stroke="none" fill="none" d="M 160.790,49.850 C 162.209,49.850 163.360,51.001 163.360,52.420 163.360,53.839 162.209,54.990 160.790,54.990 159.371,54.990 158.220,53.839 158.220,52.420 158.203,51.004 159.335,49.842 160.750,49.820 160.763,49.830 160.777,49.840 160.790,49.850 Z M 156.000,51.850 C 155.961,53.777 157.081,55.539 158.842,56.322 160.603,57.106 162.662,56.757 164.067,55.439 165.472,54.120 165.950,52.087 165.280,50.280 162.427,49.973 159.573,49.667 156.720,49.360 156.253,50.107 156.004,50.969 156.000,51.850 156.000,51.850 156.000,51.850 156.000,51.850 Z " />
  <path stroke="none" fill="none" d="M 176.260,61.350 C 175.501,62.180 174.366,62.558 173.260,62.350 172.240,66.187 171.220,70.023 170.200,73.860 169.227,73.950 168.253,74.040 167.280,74.130 166.978,76.229 168.110,78.273 170.050,79.130 172.820,80.350 179.380,81.440 182.740,78.540 184.570,76.960 184.860,72.920 184.820,71.540 184.820,71.540 184.820,71.540 184.820,71.540 184.797,65.580 184.773,59.620 184.750,53.660 181.877,53.660 179.003,53.660 176.130,53.660 176.057,53.897 175.983,54.133 175.910,54.370 175.780,54.800 175.660,55.170 175.550,55.460 175.666,56.025 175.826,56.580 176.030,57.120 176.560,58.660 177.030,60.120 176.360,61.240 176.327,61.277 176.293,61.313 176.260,61.350 Z " />
  <path stroke="none" fill="none" d="M 117.120,17.840 C 117.120,17.143 117.120,16.447 117.120,15.750 116.477,15.747 115.833,15.743 115.190,15.740 115.190,16.427 115.190,17.113 115.190,17.800 115.307,17.800 115.423,17.800 115.540,17.800 115.540,17.813 115.540,17.827 115.540,17.840 116.067,17.840 116.593,17.840 117.120,17.840 117.120,17.840 117.120,17.840 117.120,17.840 Z " />
  <path stroke="none" fill="none" d="M 192.380,49.710 C 193.587,49.807 194.793,49.903 196.000,50.000 196.067,49.183 196.133,48.367 196.200,47.550 195.273,47.473 194.347,47.397 193.420,47.320 193.317,48.202 192.955,49.034 192.380,49.710 192.380,49.710 192.380,49.710 192.380,49.710 Z " />
  <path stroke="none" fill="none" d="M 282.830,23.900 C 282.210,23.900 281.590,23.900 280.970,23.900 279.433,23.257 277.897,22.613 276.360,21.970 275.873,21.787 275.387,21.603 274.900,21.420 274.900,26.550 274.900,31.680 274.900,36.810 277.543,35.713 280.187,34.617 282.830,33.520 282.830,30.313 282.830,27.107 282.830,23.900 282.830,23.900 282.830,23.900 282.830,23.900 Z " />
  <path stroke="none" fill="none" d="M 287.390,24.080 C 287.330,24.023 287.270,23.967 287.210,23.910 286.327,23.910 285.443,23.910 284.560,23.910 284.557,23.907 284.553,23.903 284.550,23.900 284.477,23.900 284.403,23.900 284.330,23.900 284.330,27.033 284.330,30.167 284.330,33.300 285.290,33.300 286.250,33.300 287.210,33.300 287.270,33.243 287.330,33.187 287.390,33.130 287.390,30.113 287.390,27.097 287.390,24.080 287.390,24.080 287.390,24.080 287.390,24.080 Z " />
  <path stroke="none" fill="none" d="M 273.400,20.860 C 273.283,20.813 273.167,20.767 273.050,20.720 273.050,20.497 273.050,20.273 273.050,20.050 272.220,20.050 271.390,20.050 270.560,20.050 270.560,20.317 270.560,20.583 270.560,20.850 270.443,20.850 270.327,20.850 270.210,20.850 270.210,30.890 270.210,40.930 270.210,50.970 270.327,51.087 270.443,51.203 270.560,51.320 270.560,52.030 270.560,52.740 270.560,53.450 271.390,53.450 272.220,53.450 273.050,53.450 273.050,48.497 273.050,43.543 273.050,38.590 273.167,38.413 273.283,38.237 273.400,38.060 273.400,32.327 273.400,26.593 273.400,20.860 273.400,20.860 273.400,20.860 273.400,20.860 Z " />
  <path stroke="none" fill="none" d="M 239.220,50.390 C 234.280,50.390 229.340,50.390 224.400,50.390 224.400,51.453 224.400,52.517 224.400,53.580 224.610,53.713 224.820,53.847 225.030,53.980 229.760,53.980 234.490,53.980 239.220,53.980 239.220,52.783 239.220,51.587 239.220,50.390 239.220,50.390 239.220,50.390 239.220,50.390 Z " />
  <path stroke="none" fill="none" d="M 258.740,40.870 C 262.063,40.870 265.387,40.870 268.710,40.870 268.710,43.853 268.710,46.837 268.710,49.820 265.387,49.820 262.063,49.820 258.740,49.820 258.740,46.837 258.740,43.853 258.740,40.870 Z " />
  <path stroke="none" fill="none" d="M 224.740,43.220 C 226.240,43.231 227.447,44.454 227.440,45.953 227.433,47.453 226.213,48.664 224.713,48.660 223.214,48.656 222.000,47.440 222.000,45.940 222.000,45.211 222.292,44.513 222.811,44.002 223.330,43.491 224.032,43.209 224.760,43.220 224.754,43.220 224.747,43.220 224.740,43.220 Z M 235.900,43.220 C 237.402,43.220 238.620,44.438 238.620,45.940 238.620,47.442 237.402,48.660 235.900,48.660 234.398,48.660 233.180,47.442 233.180,45.940 233.180,45.217 233.468,44.523 233.980,44.013 234.493,43.503 235.187,43.217 235.910,43.220 235.907,43.220 235.903,43.220 235.900,43.220 Z M 222.900,48.890 C 228.340,48.890 233.780,48.890 239.220,48.890 239.220,46.110 239.220,43.330 239.220,40.550 230.710,40.550 222.200,40.550 213.690,40.550 213.690,42.650 213.690,44.750 213.690,46.850 216.760,48.777 219.830,50.703 222.900,52.630 222.900,51.383 222.900,50.137 222.900,48.890 Z " />
  <path stroke="none" fill="none" d="M 247.090,40.870 C 249.217,40.870 251.343,40.870 253.470,40.870 253.470,43.853 253.470,46.837 253.470,49.820 251.343,49.820 249.217,49.820 247.090,49.820 247.090,46.837 247.090,43.853 247.090,40.870 Z " />
  <path stroke="none" fill="none" d="M 288.890,25.240 C 292.320,25.240 295.750,25.240 299.180,25.240 299.180,27.487 299.180,29.733 299.180,31.980 295.750,31.980 292.320,31.980 288.890,31.980 288.890,29.733 288.890,27.487 288.890,25.240 Z " />
  <path stroke="none" fill="none" d="M 89.330,20.240 C 89.220,20.120 89.110,20.000 89.000,19.880 89.000,19.803 89.000,19.727 89.000,19.650 87.857,19.650 86.713,19.650 85.570,19.650 84.000,19.650 84.000,25.750 84.000,28.650 84.000,31.550 84.000,37.650 85.570,37.650 86.713,37.650 87.857,37.650 89.000,37.650 89.000,37.573 89.000,37.497 89.000,37.420 89.120,37.300 89.240,37.180 89.360,37.060 89.350,31.453 89.340,25.847 89.330,20.240 Z " />
  <path stroke="none" fill="none" d="M 96.950,13.790 C 97.063,13.677 97.177,13.563 97.290,13.450 97.290,12.610 97.290,11.770 97.290,10.930 97.177,10.813 97.063,10.697 96.950,10.580 96.950,10.477 96.950,10.373 96.950,10.270 93.743,10.270 90.537,10.270 87.330,10.270 87.330,11.550 87.330,12.830 87.330,14.110 90.537,14.110 93.743,14.110 96.950,14.110 96.950,14.003 96.950,13.897 96.950,13.790 96.950,13.790 96.950,13.790 96.950,13.790 Z " />
  <path stroke="none" fill="none" d="M 98.320,17.450 C 98.820,16.950 99.320,16.450 99.820,15.950 100.147,15.950 100.473,15.950 100.800,15.950 100.800,15.730 100.800,15.510 100.800,15.290 100.517,15.290 100.233,15.290 99.950,15.290 99.950,15.397 99.950,15.503 99.950,15.610 99.450,16.110 98.950,16.610 98.450,17.110 95.943,17.110 93.437,17.110 90.930,17.110 91.280,17.457 91.630,17.803 91.980,18.150 91.980,18.227 91.980,18.303 91.980,18.380 94.093,18.380 96.207,18.380 98.320,18.380 98.320,18.070 98.320,17.760 98.320,17.450 98.320,17.450 98.320,17.450 98.320,17.450 Z " />
  <path stroke="none" fill="none" d="M 93.160,21.380 C 95.260,21.380 97.360,21.380 99.460,21.380 99.460,26.240 99.460,31.100 99.460,35.960 97.360,35.960 95.260,35.960 93.160,35.960 93.160,31.100 93.160,26.240 93.160,21.380 Z " />
  <path stroke="none" fill="none" d="M 98.790,12.080 C 99.867,12.080 100.943,12.080 102.020,12.080 102.020,12.150 102.020,12.220 102.020,12.290 100.943,12.290 99.867,12.290 98.790,12.290 98.790,12.220 98.790,12.150 98.790,12.080 Z " />
  <path stroke="none" fill="none" d="M 105.450,8.850 C 104.900,8.850 104.350,8.850 103.800,8.850 103.800,9.427 103.800,10.003 103.800,10.580 103.710,10.673 103.620,10.767 103.530,10.860 103.530,11.747 103.530,12.633 103.530,13.520 103.620,13.610 103.710,13.700 103.800,13.790 103.800,15.010 103.800,16.230 103.800,17.450 103.710,17.540 103.620,17.630 103.530,17.720 103.530,18.407 103.530,19.093 103.530,19.780 104.170,19.780 104.810,19.780 105.450,19.780 105.450,16.137 105.450,12.493 105.450,8.850 105.450,8.850 105.450,8.850 105.450,8.850 Z " />
  <path stroke="none" fill="none" d="M 106.950,7.750 C 107.823,7.750 108.697,7.750 109.570,7.750 109.570,12.113 109.570,16.477 109.570,20.840 108.697,20.840 107.823,20.840 106.950,20.840 106.950,16.477 106.950,12.113 106.950,7.750 Z " />
  <path stroke="none" fill="none" d="M 90.830,21.380 C 91.103,21.380 91.377,21.380 91.650,21.380 91.650,26.240 91.650,31.100 91.650,35.960 91.377,35.960 91.103,35.960 90.830,35.960 90.830,31.100 90.830,26.240 90.830,21.380 Z " />
  <path stroke="none" fill="none" d="M 114.040,20.840 C 114.040,20.840 114.040,20.840 114.040,20.840 114.040,20.987 114.040,21.133 114.040,21.280 113.060,21.280 112.080,21.280 111.100,21.280 111.100,21.637 111.100,21.993 111.100,22.350 109.217,22.350 107.333,22.350 105.450,22.350 105.450,21.993 105.450,21.637 105.450,21.280 104.310,21.280 103.170,21.280 102.030,21.280 102.030,20.503 102.030,19.727 102.030,18.950 101.793,18.950 101.557,18.950 101.320,18.950 101.320,19.260 101.320,19.570 101.320,19.880 101.200,20.000 101.080,20.120 100.960,20.240 100.960,25.860 100.960,31.480 100.960,37.100 101.080,37.220 101.200,37.340 101.320,37.460 101.320,37.830 101.320,38.200 101.320,38.570 105.443,38.570 109.567,38.570 113.690,38.570 113.690,38.407 113.690,38.243 113.690,38.080 113.807,37.960 113.923,37.840 114.040,37.720 114.040,32.093 114.040,26.467 114.040,20.840 114.040,20.840 114.040,20.840 114.040,20.840 Z " />
  <path stroke="none" fill="none" d="M 112.300,10.580 C 112.300,10.003 112.300,9.427 112.300,8.850 111.900,8.850 111.500,8.850 111.100,8.850 111.100,12.493 111.100,16.137 111.100,19.780 111.463,19.780 111.827,19.780 112.190,19.780 112.190,17.430 112.190,15.080 112.190,12.730 112.307,12.733 112.423,12.737 112.540,12.740 112.540,12.097 112.540,11.453 112.540,10.810 112.460,10.733 112.380,10.657 112.300,10.580 112.300,10.580 112.300,10.580 112.300,10.580 Z " />
  <path stroke="none" fill="none" d="M 170.310,49.310 C 170.510,48.737 170.710,48.163 170.910,47.590 175.577,48.057 180.243,48.523 184.910,48.990 184.541,48.330 184.345,47.587 184.340,46.830 184.340,46.830 184.340,46.760 184.340,46.720 180.863,46.387 177.387,46.053 173.910,45.720 173.653,45.357 173.397,44.993 173.140,44.630 170.760,44.337 168.380,44.043 166.000,43.750 166.000,44.140 166.000,44.530 166.000,44.920 157.283,44.920 148.567,44.920 139.850,44.920 139.850,42.530 139.850,40.140 139.850,37.750 138.447,37.750 137.043,37.750 135.640,37.750 135.360,37.277 135.080,36.803 134.800,36.330 130.397,36.330 125.993,36.330 121.590,36.330 121.590,36.793 121.590,37.257 121.590,37.720 121.710,37.840 121.830,37.960 121.950,38.080 121.950,39.127 121.950,40.173 121.950,41.220 121.950,41.980 121.950,42.840 124.700,43.220 126.880,43.540 131.700,44.610 136.030,45.610 147.457,46.843 158.883,48.077 170.310,49.310 Z " />
  <path stroke="none" fill="none" d="M 164.490,32.880 C 159.930,32.880 155.370,32.880 150.810,32.880 150.810,34.553 150.810,36.227 150.810,37.900 147.657,37.900 144.503,37.900 141.350,37.900 141.350,39.743 141.350,41.587 141.350,43.430 149.063,43.430 156.777,43.430 164.490,43.430 164.490,39.913 164.490,36.397 164.490,32.880 164.490,32.880 164.490,32.880 164.490,32.880 Z " />
  <path stroke="none" fill="none" d="M 120.090,34.830 C 124.700,34.830 129.310,34.830 133.920,34.830 133.820,34.663 133.720,34.497 133.620,34.330 133.620,31.403 133.620,28.477 133.620,25.550 134.293,24.983 134.967,24.417 135.640,23.850 138.893,23.857 142.147,23.863 145.400,23.870 147.163,24.357 148.927,24.843 150.690,25.330 150.690,27.347 150.690,29.363 150.690,31.380 155.400,31.380 160.110,31.380 164.820,31.380 164.820,29.020 164.820,26.660 164.820,24.300 163.140,24.300 161.460,24.300 159.780,24.300 159.780,22.533 159.780,20.767 159.780,19.000 157.180,18.737 154.580,18.473 151.980,18.210 151.980,19.917 151.980,21.623 151.980,23.330 145.607,23.330 139.233,23.330 132.860,23.330 132.860,20.780 132.860,18.230 132.860,15.680 134.303,15.680 135.747,15.680 137.190,15.680 137.190,15.433 137.190,15.187 137.190,14.940 131.500,14.940 125.810,14.940 120.120,14.940 120.120,16.907 120.120,18.873 120.120,20.840 118.593,20.840 117.067,20.840 115.540,20.840 115.540,26.087 115.540,31.333 115.540,36.580 117.057,36.580 118.573,36.580 120.090,36.580 120.090,35.997 120.090,35.413 120.090,34.830 120.090,34.830 120.090,34.830 120.090,34.830 Z " />
  <path stroke="none" fill="none" d="M 149.190,36.250 C 149.190,32.990 149.190,29.730 149.190,26.470 147.827,26.097 146.463,25.723 145.100,25.350 142.130,25.350 139.160,25.350 136.190,25.350 135.833,25.650 135.477,25.950 135.120,26.250 135.120,28.803 135.120,31.357 135.120,33.910 135.580,34.690 136.040,35.470 136.500,36.250 140.730,36.250 144.960,36.250 149.190,36.250 149.190,36.250 149.190,36.250 149.190,36.250 Z " />
  <path stroke="none" fill="#ffffffff" d="M 224.760,44.720 C 225.434,44.720 225.980,45.266 225.980,45.940 225.980,46.614 225.434,47.160 224.760,47.160 224.086,47.160 223.540,46.614 223.540,45.940 223.540,45.616 223.669,45.306 223.897,45.077 224.126,44.849 224.436,44.720 224.760,44.720 224.760,44.720 224.760,44.720 224.760,44.720 Z M 224.760,48.660 C 226.257,48.638 227.455,47.411 227.440,45.914 227.425,44.417 226.204,43.213 224.707,43.220 223.210,43.228 222.000,44.443 222.000,45.940 222.000,46.669 222.292,47.367 222.811,47.878 223.330,48.389 224.032,48.671 224.760,48.660 224.760,48.660 224.760,48.660 224.760,48.660 Z " />
  <path stroke="none" fill="#ffffffff" d="M 235.910,44.720 C 236.584,44.720 237.130,45.266 237.130,45.940 237.130,46.614 236.584,47.160 235.910,47.160 235.236,47.160 234.690,46.614 234.690,45.940 234.690,45.616 234.819,45.306 235.047,45.077 235.276,44.849 235.586,44.720 235.910,44.720 235.910,44.720 235.910,44.720 235.910,44.720 Z M 235.910,48.660 C 237.412,48.660 238.630,47.442 238.630,45.940 238.630,44.438 237.412,43.220 235.910,43.220 234.408,43.220 233.190,44.438 233.190,45.940 233.190,46.661 233.477,47.353 233.987,47.863 234.497,48.373 235.189,48.660 235.910,48.660 235.910,48.660 235.910,48.660 235.910,48.660 Z " />
  <path stroke="none" fill="#ffffffff" d="M 220.360,24.880 C 220.352,24.790 220.380,24.700 220.438,24.630 220.496,24.561 220.580,24.518 220.670,24.510 223.430,24.510 226.190,24.510 228.950,24.510 229.040,24.518 229.124,24.561 229.182,24.630 229.240,24.700 229.268,24.790 229.260,24.880 229.260,25.347 229.260,25.813 229.260,26.280 229.268,26.370 229.240,26.460 229.182,26.530 229.124,26.599 229.040,26.642 228.950,26.650 226.190,26.650 223.430,26.650 220.670,26.650 220.580,26.642 220.496,26.599 220.438,26.530 220.380,26.460 220.352,26.370 220.360,26.280 220.360,25.813 220.360,25.347 220.360,24.880 Z M 220.670,28.140 C 223.430,28.140 226.190,28.140 228.950,28.140 229.438,28.132 229.903,27.931 230.242,27.580 230.582,27.229 230.768,26.758 230.760,26.270 230.760,25.803 230.760,25.337 230.760,24.870 230.768,24.382 230.582,23.911 230.242,23.560 229.903,23.209 229.438,23.008 228.950,23.000 226.190,23.000 223.430,23.000 220.670,23.000 220.182,23.008 219.717,23.209 219.378,23.560 219.038,23.911 218.852,24.382 218.860,24.870 218.860,25.337 218.860,25.803 218.860,26.270 218.852,26.758 219.038,27.229 219.378,27.580 219.717,27.931 220.182,28.132 220.670,28.140 220.670,28.140 220.670,28.140 220.670,28.140 Z " />
  <path stroke="none" fill="#ffffffff" d="M 229.310,32.260 C 229.318,32.350 229.290,32.440 229.232,32.510 229.174,32.579 229.090,32.622 229.000,32.630 226.240,32.630 223.480,32.630 220.720,32.630 220.630,32.622 220.546,32.579 220.488,32.510 220.430,32.440 220.402,32.350 220.410,32.260 220.410,31.793 220.410,31.327 220.410,30.860 220.402,30.770 220.430,30.680 220.488,30.610 220.546,30.541 220.630,30.498 220.720,30.490 223.480,30.490 226.240,30.490 229.000,30.490 229.090,30.498 229.174,30.541 229.232,30.610 229.290,30.680 229.318,30.770 229.310,30.860 229.310,31.327 229.310,31.793 229.310,32.260 Z M 229.000,29.000 C 226.240,29.000 223.480,29.000 220.720,29.000 220.232,29.008 219.767,29.209 219.428,29.560 219.088,29.911 218.902,30.382 218.910,30.870 218.910,31.337 218.910,31.803 218.910,32.270 218.902,32.758 219.088,33.229 219.428,33.580 219.767,33.931 220.232,34.132 220.720,34.140 223.480,34.140 226.240,34.140 229.000,34.140 229.488,34.132 229.953,33.931 230.292,33.580 230.632,33.229 230.818,32.758 230.810,32.270 230.810,31.803 230.810,31.337 230.810,30.870 230.818,30.382 230.632,29.911 230.292,29.560 229.953,29.209 229.488,29.008 229.000,29.000 229.000,29.000 229.000,29.000 229.000,29.000 Z " />
  <path stroke="none" fill="#ffffffff" d="M 233.110,24.880 C 233.102,24.790 233.130,24.700 233.188,24.630 233.246,24.561 233.330,24.518 233.420,24.510 236.180,24.510 238.940,24.510 241.700,24.510 241.790,24.518 241.874,24.561 241.932,24.630 241.990,24.700 242.018,24.790 242.010,24.880 242.010,25.347 242.010,25.813 242.010,26.280 242.018,26.370 241.990,26.460 241.932,26.530 241.874,26.599 241.790,26.642 241.700,26.650 238.940,26.650 236.180,26.650 233.420,26.650 233.330,26.642 233.246,26.599 233.188,26.530 233.130,26.460 233.102,26.370 233.110,26.280 233.110,25.813 233.110,25.347 233.110,24.880 Z M 233.420,28.140 C 236.180,28.140 238.940,28.140 241.700,28.140 242.188,28.132 242.653,27.931 242.992,27.580 243.332,27.229 243.518,26.758 243.510,26.270 243.510,25.803 243.510,25.337 243.510,24.870 243.518,24.382 243.332,23.911 242.992,23.560 242.653,23.209 242.188,23.008 241.700,23.000 238.940,23.000 236.180,23.000 233.420,23.000 232.932,23.008 232.467,23.209 232.128,23.560 231.788,23.911 231.602,24.382 231.610,24.870 231.610,25.337 231.610,25.803 231.610,26.270 231.602,26.758 231.788,27.229 232.128,27.580 232.467,27.931 232.932,28.132 233.420,28.140 233.420,28.140 233.420,28.140 233.420,28.140 Z " />
  <path stroke="none" fill="#ffffffff" d="M 242.030,32.260 C 242.038,32.350 242.010,32.440 241.952,32.510 241.894,32.579 241.810,32.622 241.720,32.630 238.960,32.630 236.200,32.630 233.440,32.630 233.350,32.622 233.266,32.579 233.208,32.510 233.150,32.440 233.122,32.350 233.130,32.260 233.130,31.793 233.130,31.327 233.130,30.860 233.122,30.770 233.150,30.680 233.208,30.610 233.266,30.541 233.350,30.498 233.440,30.490 236.200,30.490 238.960,30.490 241.720,30.490 241.810,30.498 241.894,30.541 241.952,30.610 242.010,30.680 242.038,30.770 242.030,30.860 242.030,31.327 242.030,31.793 242.030,32.260 Z M 241.720,29.000 C 238.960,29.000 236.200,29.000 233.440,29.000 232.952,29.008 232.487,29.209 232.148,29.560 231.808,29.911 231.622,30.382 231.630,30.870 231.630,31.337 231.630,31.803 231.630,32.270 231.622,32.758 231.808,33.229 232.148,33.580 232.487,33.931 232.952,34.132 233.440,34.140 236.200,34.140 238.960,34.140 241.720,34.140 242.208,34.132 242.673,33.931 243.012,33.580 243.352,33.229 243.538,32.758 243.530,32.270 243.530,31.803 243.530,31.337 243.530,30.870 243.538,30.382 243.352,29.911 243.012,29.560 242.673,29.209 242.208,29.008 241.720,29.000 241.720,29.000 241.720,29.000 241.720,29.000 Z " />
  <path stroke="none" fill="#ffffffff" d="M 245.860,24.880 C 245.852,24.790 245.880,24.700 245.938,24.630 245.996,24.561 246.080,24.518 246.170,24.510 248.930,24.510 251.690,24.510 254.450,24.510 254.540,24.518 254.624,24.561 254.682,24.630 254.740,24.700 254.768,24.790 254.760,24.880 254.760,25.347 254.760,25.813 254.760,26.280 254.768,26.370 254.740,26.460 254.682,26.530 254.624,26.599 254.540,26.642 254.450,26.650 251.690,26.650 248.930,26.650 246.170,26.650 246.080,26.642 245.996,26.599 245.938,26.530 245.880,26.460 245.852,26.370 245.860,26.280 245.860,25.813 245.860,25.347 245.860,24.880 Z M 246.170,28.140 C 248.930,28.140 251.690,28.140 254.450,28.140 254.938,28.132 255.403,27.931 255.742,27.580 256.082,27.229 256.268,26.758 256.260,26.270 256.260,25.803 256.260,25.337 256.260,24.870 256.268,24.382 256.082,23.911 255.742,23.560 255.403,23.209 254.938,23.008 254.450,23.000 251.690,23.000 248.930,23.000 246.170,23.000 245.682,23.008 245.217,23.209 244.878,23.560 244.538,23.911 244.352,24.382 244.360,24.870 244.360,25.337 244.360,25.803 244.360,26.270 244.352,26.758 244.538,27.229 244.878,27.580 245.217,27.931 245.682,28.132 246.170,28.140 246.170,28.140 246.170,28.140 246.170,28.140 Z " />
  <path stroke="none" fill="#ffffffff" d="M 254.780,32.260 C 254.788,32.350 254.760,32.440 254.702,32.510 254.644,32.579 254.560,32.622 254.470,32.630 251.710,32.630 248.950,32.630 246.190,32.630 246.100,32.622 246.016,32.579 245.958,32.510 245.900,32.440 245.872,32.350 245.880,32.260 245.880,31.793 245.880,31.327 245.880,30.860 245.872,30.770 245.900,30.680 245.958,30.610 246.016,30.541 246.100,30.498 246.190,30.490 248.950,30.490 251.710,30.490 254.470,30.490 254.560,30.498 254.644,30.541 254.702,30.610 254.760,30.680 254.788,30.770 254.780,30.860 254.780,31.327 254.780,31.793 254.780,32.260 Z M 254.470,29.000 C 251.710,29.000 248.950,29.000 246.190,29.000 245.702,29.008 245.237,29.209 244.898,29.560 244.558,29.911 244.372,30.382 244.380,30.870 244.380,31.337 244.380,31.803 244.380,32.270 244.372,32.758 244.558,33.229 244.898,33.580 245.237,33.931 245.702,34.132 246.190,34.140 248.950,34.140 251.710,34.140 254.470,34.140 254.958,34.132 255.423,33.931 255.762,33.580 256.102,33.229 256.288,32.758 256.280,32.270 256.280,31.803 256.280,31.337 256.280,30.870 256.288,30.382 256.102,29.911 255.762,29.560 255.423,29.209 254.958,29.008 254.470,29.000 254.470,29.000 254.470,29.000 254.470,29.000 Z " />
  <path stroke="none" fill="#ffffffff" d="M 258.610,24.880 C 258.610,24.660 258.750,24.510 258.870,24.510 261.490,24.510 264.110,24.510 266.730,24.510 266.850,24.510 266.990,24.660 266.990,24.880 266.990,25.347 266.990,25.813 266.990,26.280 266.990,26.500 266.850,26.650 266.730,26.650 264.110,26.650 261.490,26.650 258.870,26.650 258.750,26.650 258.610,26.500 258.610,26.280 258.610,25.813 258.610,25.347 258.610,24.880 Z M 258.870,28.140 C 261.490,28.140 264.110,28.140 266.730,28.140 267.731,28.107 268.518,27.272 268.490,26.270 268.490,25.803 268.490,25.337 268.490,24.870 268.518,23.868 267.731,23.033 266.730,23.000 264.110,23.000 261.490,23.000 258.870,23.000 257.869,23.033 257.082,23.868 257.110,24.870 257.110,25.337 257.110,25.803 257.110,26.270 257.082,27.272 257.869,28.107 258.870,28.140 258.870,28.140 258.870,28.140 258.870,28.140 Z " />
  <path stroke="none" fill="#ffffffff" d="M 267.010,32.260 C 267.010,32.480 266.870,32.630 266.750,32.630 264.130,32.630 261.510,32.630 258.890,32.630 258.770,32.630 258.630,32.480 258.630,32.260 258.630,31.793 258.630,31.327 258.630,30.860 258.630,30.640 258.770,30.490 258.890,30.490 261.510,30.490 264.130,30.490 266.750,30.490 266.870,30.490 267.010,30.640 267.010,30.860 267.010,31.327 267.010,31.793 267.010,32.260 Z M 266.750,29.000 C 264.130,29.000 261.510,29.000 258.890,29.000 257.889,29.033 257.102,29.868 257.130,30.870 257.130,31.337 257.130,31.803 257.130,32.270 257.102,33.272 257.889,34.107 258.890,34.140 261.510,34.140 264.130,34.140 266.750,34.140 267.751,34.107 268.538,33.272 268.510,32.270 268.510,31.803 268.510,31.337 268.510,30.870 268.538,29.868 267.751,29.033 266.750,29.000 266.750,29.000 266.750,29.000 266.750,29.000 Z " />
  <path stroke="none" fill="#ffffffff" d="M 299.170,32.000 C 295.743,32.000 292.317,32.000 288.890,32.000 288.890,29.747 288.890,27.493 288.890,25.240 292.320,25.240 295.750,25.240 299.180,25.240 299.177,27.493 299.173,29.747 299.170,32.000 Z M 284.280,33.300 C 284.280,30.167 284.280,27.033 284.280,23.900 285.240,23.900 286.200,23.900 287.160,23.900 287.217,23.957 287.273,24.013 287.330,24.070 287.330,27.070 287.330,30.070 287.330,33.070 287.273,33.127 287.217,33.183 287.160,33.240 286.200,33.260 285.240,33.280 284.280,33.300 Z M 274.850,36.820 C 274.850,31.687 274.850,26.553 274.850,21.420 275.337,21.603 275.823,21.787 276.310,21.970 277.873,22.613 279.437,23.257 281.000,23.900 281.620,23.900 282.240,23.900 282.860,23.900 282.860,27.107 282.860,30.313 282.860,33.520 280.190,34.620 277.520,35.720 274.850,36.820 Z M 273.000,53.450 C 272.170,53.450 271.340,53.450 270.510,53.450 270.510,52.740 270.510,52.030 270.510,51.320 270.393,51.203 270.277,51.087 270.160,50.970 270.160,40.930 270.160,30.890 270.160,20.850 270.277,20.850 270.393,20.850 270.510,20.850 270.510,20.583 270.510,20.317 270.510,20.050 271.340,20.050 272.170,20.050 273.000,20.050 273.000,20.273 273.000,20.497 273.000,20.720 273.117,20.763 273.233,20.807 273.350,20.850 273.350,26.583 273.350,32.317 273.350,38.050 273.233,38.227 273.117,38.403 273.000,38.580 273.000,43.537 273.000,48.493 273.000,53.450 Z M 258.750,49.780 C 258.750,46.810 258.750,43.840 258.750,40.870 262.083,40.870 265.417,40.870 268.750,40.870 268.750,43.853 268.750,46.837 268.750,49.820 265.417,49.807 262.083,49.793 258.750,49.780 Z M 247.100,49.780 C 247.100,46.810 247.100,43.840 247.100,40.870 249.227,40.870 251.353,40.870 253.480,40.870 253.480,43.853 253.480,46.837 253.480,49.820 251.353,49.807 249.227,49.793 247.100,49.780 Z M 224.400,53.540 C 224.400,52.490 224.400,51.440 224.400,50.390 229.340,50.390 234.280,50.390 239.220,50.390 239.220,51.593 239.220,52.797 239.220,54.000 234.480,54.000 229.740,54.000 225.000,54.000 224.800,53.847 224.600,53.693 224.400,53.540 Z M 213.690,40.540 C 222.200,40.540 230.710,40.540 239.220,40.540 239.220,43.317 239.220,46.093 239.220,48.870 233.780,48.870 228.340,48.870 222.900,48.870 222.900,50.120 222.900,51.370 222.900,52.620 219.830,50.693 216.760,48.767 213.690,46.840 213.690,44.740 213.690,42.640 213.690,40.540 Z M 206.270,36.700 C 206.270,31.800 206.270,26.900 206.270,22.000 207.847,22.000 209.423,22.000 211.000,22.000 211.000,26.903 211.000,31.807 211.000,36.710 209.423,36.707 207.847,36.703 206.270,36.700 Z M 196.160,47.560 C 196.107,48.373 196.053,49.187 196.000,50.000 194.807,49.897 193.613,49.793 192.420,49.690 192.977,49.014 193.325,48.191 193.420,47.320 194.333,47.400 195.247,47.480 196.160,47.560 Z M 176.090,57.000 C 175.886,56.460 175.726,55.905 175.610,55.340 175.720,55.050 175.840,54.680 175.970,54.250 176.043,54.013 176.117,53.777 176.190,53.540 179.063,53.540 181.937,53.540 184.810,53.540 184.833,59.500 184.857,65.460 184.880,71.420 184.880,71.420 184.880,71.420 184.880,71.420 184.880,72.840 184.620,76.890 182.800,78.420 179.440,81.320 172.870,80.240 170.110,79.010 168.170,78.153 167.038,76.109 167.340,74.010 168.313,73.920 169.287,73.830 170.260,73.740 171.280,69.903 172.300,66.067 173.320,62.230 174.426,62.438 175.561,62.060 176.320,61.230 176.373,61.160 176.427,61.090 176.480,61.020 177.110,60.000 176.610,58.550 176.090,57.000 176.090,57.000 176.090,57.000 176.090,57.000 Z M 179.930,84.780 C 175.181,85.259 170.579,86.694 166.400,89.000 164.360,90.310 161.985,91.005 159.560,91.000 154.777,91.000 149.993,91.000 145.210,91.000 140.050,91.000 139.210,90.400 139.050,90.220 138.730,89.790 135.140,84.420 132.710,80.770 132.843,80.267 132.977,79.763 133.110,79.260 134.540,77.720 140.340,71.450 142.840,68.670 143.157,68.337 143.473,68.003 143.790,67.670 146.520,64.670 150.260,60.670 150.390,55.300 150.587,52.328 148.928,49.542 146.220,48.300 149.173,48.633 152.127,48.967 155.080,49.300 153.915,51.787 154.501,54.743 156.527,56.597 158.554,58.452 161.550,58.774 163.924,57.393 166.299,56.012 167.500,53.248 166.890,50.570 168.377,50.730 169.863,50.890 171.350,51.050 171.550,50.473 171.750,49.897 171.950,49.320 176.443,49.770 180.937,50.220 185.430,50.670 181.650,50.670 177.870,50.670 174.090,50.670 173.967,51.003 173.843,51.337 173.720,51.670 173.460,52.340 173.260,53.000 173.100,53.540 172.940,54.080 172.880,54.260 172.790,54.540 172.360,55.540 172.790,56.790 173.260,58.190 173.400,58.590 173.600,59.190 173.700,59.600 173.453,59.566 173.213,59.491 172.990,59.380 172.430,59.073 171.870,58.767 171.310,58.460 170.173,62.740 169.037,67.020 167.900,71.300 166.950,71.387 166.000,71.473 165.050,71.560 164.883,72.103 164.717,72.647 164.550,73.190 163.662,76.810 165.494,80.546 168.900,82.060 171.369,83.058 174.007,83.571 176.670,83.570 179.592,83.705 182.465,82.790 184.770,80.990 186.181,79.615 187.122,77.830 187.460,75.890 187.000,78.880 185.380,84.000 179.880,84.780 179.897,84.780 179.913,84.780 179.930,84.780 Z M 165.580,51.850 C 165.602,53.891 164.328,55.721 162.407,56.410 160.486,57.099 158.340,56.495 157.060,54.906 155.780,53.316 155.647,51.090 156.730,49.360 159.583,49.667 162.437,49.973 165.290,50.280 165.458,50.786 165.539,51.317 165.530,51.850 165.547,51.850 165.563,51.850 165.580,51.850 Z M 122.000,41.220 C 122.000,40.173 122.000,39.127 122.000,38.080 121.880,37.960 121.760,37.840 121.640,37.720 121.640,37.257 121.640,36.793 121.640,36.330 126.027,36.330 130.413,36.330 134.800,36.330 135.080,36.803 135.360,37.277 135.640,37.750 137.043,37.750 138.447,37.750 139.850,37.750 139.850,40.143 139.850,42.537 139.850,44.930 148.567,44.930 157.283,44.930 166.000,44.930 166.000,44.537 166.000,44.143 166.000,43.750 168.390,44.060 170.780,44.370 173.170,44.680 173.427,45.043 173.683,45.407 173.940,45.770 177.417,46.103 180.893,46.437 184.370,46.770 184.370,46.770 184.370,46.840 184.370,46.880 184.375,47.637 184.571,48.380 184.940,49.040 180.273,48.573 175.607,48.107 170.940,47.640 170.740,48.213 170.540,48.787 170.340,49.360 158.893,48.117 147.447,46.873 136.000,45.630 131.680,44.630 126.860,43.550 124.670,43.240 121.930,42.840 121.940,42.000 122.000,41.220 122.000,41.220 122.000,41.220 122.000,41.220 Z M 141.360,37.940 C 144.513,37.940 147.667,37.940 150.820,37.940 150.820,36.273 150.820,34.607 150.820,32.940 155.380,32.940 159.940,32.940 164.500,32.940 164.500,36.437 164.500,39.933 164.500,43.430 156.783,43.430 149.067,43.430 141.350,43.430 141.353,41.600 141.357,39.770 141.360,37.940 Z M 135.130,33.940 C 135.130,31.377 135.130,28.813 135.130,26.250 135.487,25.950 135.843,25.650 136.200,25.350 139.170,25.350 142.140,25.350 145.110,25.350 146.473,25.723 147.837,26.097 149.200,26.470 149.200,29.730 149.200,32.990 149.200,36.250 144.967,36.250 140.733,36.250 136.500,36.250 136.043,35.480 135.587,34.710 135.130,33.940 Z M 115.550,36.610 C 115.550,31.353 115.550,26.097 115.550,20.840 117.073,20.840 118.597,20.840 120.120,20.840 120.120,18.873 120.120,16.907 120.120,14.940 125.813,14.940 131.507,14.940 137.200,14.940 137.200,15.187 137.200,15.433 137.200,15.680 135.753,15.680 134.307,15.680 132.860,15.680 132.860,18.230 132.860,20.780 132.860,23.330 139.240,23.330 145.620,23.330 152.000,23.330 152.000,21.623 152.000,19.917 152.000,18.210 154.600,18.473 157.200,18.737 159.800,19.000 159.800,20.767 159.800,22.533 159.800,24.300 161.467,24.300 163.133,24.300 164.800,24.300 164.800,26.660 164.800,29.020 164.800,31.380 160.097,31.380 155.393,31.380 150.690,31.380 150.690,29.363 150.690,27.347 150.690,25.330 148.927,24.847 147.163,24.363 145.400,23.880 142.147,23.880 138.893,23.880 135.640,23.880 134.973,24.447 134.307,25.013 133.640,25.580 133.640,28.507 133.640,31.433 133.640,34.360 133.740,34.527 133.840,34.693 133.940,34.860 129.323,34.860 124.707,34.860 120.090,34.860 120.090,35.443 120.090,36.027 120.090,36.610 118.577,36.610 117.063,36.610 115.550,36.610 Z M 113.690,38.610 C 109.567,38.610 105.443,38.610 101.320,38.610 101.320,38.227 101.320,37.843 101.320,37.460 101.213,37.340 101.107,37.220 101.000,37.100 101.000,31.480 101.000,25.860 101.000,20.240 101.120,20.120 101.240,20.000 101.360,19.880 101.360,19.567 101.360,19.253 101.360,18.940 101.573,18.940 101.787,18.940 102.000,18.940 102.000,19.720 102.000,20.500 102.000,21.280 103.140,21.280 104.280,21.280 105.420,21.280 105.420,21.633 105.420,21.987 105.420,22.340 107.303,22.340 109.187,22.340 111.070,22.340 111.070,21.987 111.070,21.633 111.070,21.280 112.047,21.280 113.023,21.280 114.000,21.280 114.000,21.130 114.000,20.980 114.000,20.830 114.000,20.830 114.000,20.830 114.000,20.830 114.000,26.460 114.000,32.090 114.000,37.720 113.880,37.840 113.760,37.960 113.640,38.080 113.657,38.257 113.673,38.433 113.690,38.610 Z M 93.160,36.000 C 93.160,31.127 93.160,26.253 93.160,21.380 95.260,21.380 97.360,21.380 99.460,21.380 99.460,26.253 99.460,31.127 99.460,36.000 97.360,36.000 95.260,36.000 93.160,36.000 Z M 89.000,37.690 C 87.857,37.690 86.713,37.690 85.570,37.690 84.000,37.690 84.000,31.610 84.000,28.690 84.000,25.770 84.000,19.690 85.570,19.690 86.713,19.690 87.857,19.690 89.000,19.690 89.000,19.767 89.000,19.843 89.000,19.920 89.120,20.040 89.240,20.160 89.360,20.280 89.360,25.887 89.360,31.493 89.360,37.100 89.240,37.220 89.120,37.340 89.000,37.460 89.000,37.537 89.000,37.613 89.000,37.690 Z M 87.300,10.270 C 90.507,10.270 93.713,10.270 96.920,10.270 96.920,10.377 96.920,10.483 96.920,10.590 97.037,10.707 97.153,10.823 97.270,10.940 97.270,11.780 97.270,12.620 97.270,13.460 97.153,13.577 97.037,13.693 96.920,13.810 96.920,13.917 96.920,14.023 96.920,14.130 93.723,14.130 90.527,14.130 87.330,14.130 87.320,12.843 87.310,11.557 87.300,10.270 Z M 91.950,18.380 C 91.950,18.303 91.950,18.227 91.950,18.150 91.617,17.817 91.283,17.483 90.950,17.150 93.457,17.150 95.963,17.150 98.470,17.150 98.970,16.650 99.470,16.150 99.970,15.650 99.970,15.543 99.970,15.437 99.970,15.330 100.253,15.330 100.537,15.330 100.820,15.330 100.820,15.547 100.820,15.763 100.820,15.980 100.487,15.980 100.153,15.980 99.820,15.980 99.320,16.480 98.820,16.980 98.320,17.480 98.320,17.793 98.320,18.107 98.320,18.420 96.197,18.407 94.073,18.393 91.950,18.380 Z M 90.810,21.380 C 91.083,21.380 91.357,21.380 91.630,21.380 91.630,26.253 91.630,31.127 91.630,36.000 91.357,36.000 91.083,36.000 90.810,36.000 90.810,31.127 90.810,26.253 90.810,21.380 Z M 102.000,12.080 C 102.000,12.150 102.000,12.220 102.000,12.290 100.930,12.290 99.860,12.290 98.790,12.290 98.790,12.220 98.790,12.150 98.790,12.080 99.860,12.080 100.930,12.080 102.000,12.080 Z M 106.970,7.730 C 107.843,7.730 108.717,7.730 109.590,7.730 109.590,12.103 109.590,16.477 109.590,20.850 108.717,20.850 107.843,20.850 106.970,20.850 106.970,16.477 106.970,12.103 106.970,7.730 Z M 103.550,17.730 C 103.640,17.640 103.730,17.550 103.820,17.460 103.820,16.237 103.820,15.013 103.820,13.790 103.730,13.700 103.640,13.610 103.550,13.520 103.550,12.633 103.550,11.747 103.550,10.860 103.640,10.770 103.730,10.680 103.820,10.590 103.820,10.010 103.820,9.430 103.820,8.850 104.370,8.850 104.920,8.850 105.470,8.850 105.470,12.493 105.470,16.137 105.470,19.780 104.830,19.780 104.190,19.780 103.550,19.780 103.550,19.097 103.550,18.413 103.550,17.730 Z M 112.210,12.730 C 112.210,15.063 112.210,17.397 112.210,19.730 111.840,19.730 111.470,19.730 111.100,19.730 111.100,16.103 111.100,12.477 111.100,8.850 111.503,8.850 111.907,8.850 112.310,8.850 112.310,9.427 112.310,10.003 112.310,10.580 112.390,10.660 112.470,10.740 112.550,10.820 112.550,11.460 112.550,12.100 112.550,12.740 112.437,12.737 112.323,12.733 112.210,12.730 Z M 115.210,17.800 C 115.210,17.113 115.210,16.427 115.210,15.740 115.853,15.740 116.497,15.740 117.140,15.740 117.140,16.437 117.140,17.133 117.140,17.830 116.617,17.830 116.093,17.830 115.570,17.830 115.570,17.830 115.570,17.830 115.570,17.830 115.450,17.820 115.330,17.810 115.210,17.800 Z M 117.880,12.080 C 117.880,12.303 117.880,12.527 117.880,12.750 116.587,12.750 115.293,12.750 114.000,12.750 114.000,12.530 114.000,12.310 114.000,12.090 115.293,12.087 116.587,12.083 117.880,12.080 Z M 138.600,11.150 C 138.600,11.913 138.600,12.677 138.600,13.440 132.440,13.440 126.280,13.440 120.120,13.440 120.120,13.213 120.120,12.987 120.120,12.760 119.863,12.760 119.607,12.760 119.350,12.760 119.350,12.223 119.350,11.687 119.350,11.150 125.767,11.150 132.183,11.150 138.600,11.150 Z M 140.450,6.680 C 142.117,6.680 143.783,6.680 145.450,6.680 145.450,7.347 145.450,8.013 145.450,8.680 145.567,8.797 145.683,8.913 145.800,9.030 145.800,10.867 145.800,12.703 145.800,14.540 143.907,14.320 142.013,14.100 140.120,13.880 140.120,12.587 140.120,11.293 140.120,10.000 140.237,9.883 140.353,9.767 140.470,9.650 140.463,8.660 140.457,7.670 140.450,6.680 Z M 140.230,18.680 C 140.230,18.093 140.230,17.507 140.230,16.920 143.157,17.253 146.083,17.587 149.010,17.920 149.010,18.717 149.010,19.513 149.010,20.310 144.627,20.310 140.243,20.310 135.860,20.310 135.860,19.767 135.860,19.223 135.860,18.680 137.317,18.680 138.773,18.680 140.230,18.680 Z M 149.230,10.180 C 149.230,11.770 149.230,13.360 149.230,14.950 148.563,14.873 147.897,14.797 147.230,14.720 147.230,13.207 147.230,11.693 147.230,10.180 147.897,10.180 148.563,10.180 149.230,10.180 Z M 151.070,4.000 C 155.473,4.000 159.877,4.000 164.280,4.000 164.280,6.267 164.280,8.533 164.280,10.800 164.780,11.300 165.280,11.800 165.780,12.300 169.083,12.300 172.387,12.300 175.690,12.300 176.190,11.800 176.690,11.300 177.190,10.800 177.190,10.757 177.190,10.713 177.190,10.670 186.377,10.670 195.563,10.670 204.750,10.670 204.750,11.280 204.750,11.890 204.750,12.500 199.207,12.500 193.663,12.500 188.120,12.500 188.120,12.887 188.120,13.273 188.120,13.660 184.413,13.660 180.707,13.660 177.000,13.660 177.000,13.327 177.000,12.993 177.000,12.660 172.667,12.660 168.333,12.660 164.000,12.660 164.000,13.910 164.000,15.160 164.000,16.410 159.570,15.963 155.140,15.517 150.710,15.070 150.710,13.047 150.710,11.023 150.710,9.000 150.823,8.887 150.937,8.773 151.050,8.660 151.057,7.107 151.063,5.553 151.070,4.000 Z M 208.790,11.710 C 208.790,12.170 208.790,12.630 208.790,13.090 208.303,13.090 207.817,13.090 207.330,13.090 207.330,12.890 207.330,12.690 207.330,12.490 206.997,12.490 206.663,12.490 206.330,12.490 206.330,12.227 206.330,11.963 206.330,11.700 207.150,11.703 207.970,11.707 208.790,11.710 Z M 211.910,11.710 C 211.910,12.170 211.910,12.630 211.910,13.090 211.390,13.090 210.870,13.090 210.350,13.090 210.350,12.627 210.350,12.163 210.350,11.700 210.870,11.703 211.390,11.707 211.910,11.710 Z M 207.330,16.090 C 208.457,16.090 209.583,16.090 210.710,16.090 210.710,16.850 210.710,17.610 210.710,18.370 212.067,18.370 213.423,18.370 214.780,18.370 214.780,18.580 214.780,18.790 214.780,19.000 212.297,19.000 209.813,19.000 207.330,19.000 207.330,18.030 207.330,17.060 207.330,16.090 Z M 176.380,41.220 C 180.213,41.220 184.047,41.220 187.880,41.220 186.321,41.477 184.941,42.372 184.070,43.690 181.380,43.440 178.690,43.190 176.000,42.940 176.127,42.367 176.253,41.793 176.380,41.220 Z M 204.300,18.870 C 199.900,18.870 195.500,18.870 191.100,18.870 191.100,17.743 191.100,16.617 191.100,15.490 195.500,15.490 199.900,15.490 204.300,15.490 204.300,16.617 204.300,17.743 204.300,18.870 Z M 191.060,21.250 C 191.060,20.957 191.060,20.663 191.060,20.370 195.473,20.370 199.887,20.370 204.300,20.370 204.300,20.913 204.300,21.457 204.300,22.000 204.420,22.000 204.540,22.000 204.660,22.000 204.660,27.300 204.660,32.600 204.660,37.900 204.540,38.020 204.420,38.140 204.300,38.260 199.790,38.260 195.280,38.260 190.770,38.260 190.770,32.593 190.770,26.927 190.770,21.260 190.867,21.257 190.963,21.253 191.060,21.250 Z M 188.060,16.650 C 188.060,17.183 188.060,17.717 188.060,18.250 181.040,18.250 174.020,18.250 167.000,18.250 167.000,17.390 167.000,16.530 167.000,15.670 169.333,15.670 171.667,15.670 174.000,15.670 174.000,16.003 174.000,16.337 174.000,16.670 178.687,16.663 183.373,16.657 188.060,16.650 Z M 166.310,33.200 C 166.310,30.723 166.310,28.247 166.310,25.770 168.207,25.770 170.103,25.770 172.000,25.770 172.000,28.247 172.000,30.723 172.000,33.200 170.103,33.200 168.207,33.200 166.310,33.200 Z M 163.000,19.410 C 163.000,20.040 163.000,20.670 163.000,21.300 162.920,21.300 162.840,21.300 162.760,21.300 162.760,20.667 162.760,20.033 162.760,19.400 162.840,19.403 162.920,19.407 163.000,19.410 Z M 173.770,39.350 C 173.460,40.607 173.150,41.863 172.840,43.120 170.560,42.827 168.280,42.533 166.000,42.240 166.000,39.727 166.000,37.213 166.000,34.700 168.513,34.700 171.027,34.700 173.540,34.700 173.540,31.223 173.540,27.747 173.540,24.270 171.027,24.270 168.513,24.270 166.000,24.270 166.000,23.270 166.000,22.270 166.000,21.270 173.750,21.270 181.500,21.270 189.250,21.270 189.250,26.937 189.250,32.603 189.250,38.270 184.570,38.270 179.890,38.270 175.210,38.270 174.730,38.630 174.250,38.990 173.770,39.350 Z M 191.960,46.830 C 191.964,47.967 191.325,49.008 190.310,49.520 190.140,49.520 189.970,49.520 189.800,49.520 189.660,49.520 189.520,49.520 189.380,49.520 189.263,49.520 189.147,49.520 189.030,49.520 188.933,49.623 188.837,49.727 188.740,49.830 187.142,49.750 185.888,48.430 185.890,46.830 185.888,46.550 185.925,46.270 186.000,46.000 186.110,45.933 186.220,45.867 186.330,45.800 186.764,44.717 187.845,44.036 189.010,44.111 190.174,44.186 191.158,45.000 191.450,46.130 191.607,46.263 191.763,46.397 191.920,46.530 191.920,46.650 191.940,46.740 191.940,46.840 191.947,46.837 191.953,46.833 191.960,46.830 Z M 213.050,37.550 C 212.863,37.363 212.677,37.177 212.490,36.990 212.490,31.993 212.490,26.997 212.490,22.000 213.660,22.000 214.830,22.000 216.000,22.000 216.000,27.200 216.000,32.400 216.000,37.600 215.017,37.583 214.033,37.567 213.050,37.550 Z M 268.730,37.550 C 265.397,37.550 262.063,37.550 258.730,37.550 258.730,36.577 258.730,35.603 258.730,34.630 256.977,34.630 255.223,34.630 253.470,34.630 253.470,35.607 253.470,36.583 253.470,37.560 241.470,37.560 229.470,37.560 217.470,37.560 217.470,32.373 217.470,27.187 217.470,22.000 217.573,22.000 217.677,22.000 217.780,22.000 217.780,21.617 217.780,21.233 217.780,20.850 234.757,20.850 251.733,20.850 268.710,20.850 268.717,26.417 268.723,31.983 268.730,37.550 Z M 255.000,49.820 C 255.000,45.257 255.000,40.693 255.000,36.130 255.753,36.130 256.507,36.130 257.260,36.130 257.260,40.693 257.260,45.257 257.260,49.820 256.507,49.820 255.753,49.820 255.000,49.820 Z M 240.700,41.750 C 240.700,41.350 240.700,40.950 240.700,40.550 242.327,40.550 243.953,40.550 245.580,40.550 245.580,44.033 245.580,47.517 245.580,51.000 245.463,51.117 245.347,51.233 245.230,51.350 245.230,52.233 245.230,53.117 245.230,54.000 243.720,54.000 242.210,54.000 240.700,54.000 240.700,49.917 240.700,45.833 240.700,41.750 240.700,41.750 240.700,41.750 240.700,41.750 Z M 213.700,9.070 C 232.980,9.070 252.260,9.070 271.540,9.070 271.540,9.307 271.540,9.543 271.540,9.780 271.657,9.897 271.773,10.013 271.890,10.130 271.890,11.130 271.890,12.130 271.890,13.130 271.773,13.130 271.657,13.130 271.540,13.130 271.540,13.867 271.540,14.603 271.540,15.340 252.260,15.340 232.980,15.340 213.700,15.340 213.700,14.590 213.700,13.840 213.700,13.090 213.623,13.090 213.547,13.090 213.470,13.090 213.470,12.207 213.470,11.323 213.470,10.440 213.547,10.363 213.623,10.287 213.700,10.210 213.700,9.830 213.700,9.450 213.700,9.070 Z M 277.790,11.210 C 277.790,11.833 277.790,12.457 277.790,13.080 276.327,13.080 274.863,13.080 273.400,13.080 273.400,12.480 273.400,11.880 273.400,11.280 274.863,11.257 276.327,11.233 277.790,11.210 Z M 279.640,9.000 C 280.780,9.000 281.920,9.000 283.060,9.000 283.060,9.430 283.060,9.860 283.060,10.290 283.177,10.407 283.293,10.523 283.410,10.640 283.410,11.640 283.410,12.640 283.410,13.640 283.323,13.727 283.237,13.813 283.150,13.900 282.729,13.233 281.942,12.892 281.167,13.040 280.392,13.187 279.786,13.795 279.640,14.570 279.640,14.070 279.640,13.570 279.640,13.070 279.523,13.070 279.407,13.070 279.290,13.070 279.290,12.070 279.290,11.070 279.290,10.070 279.407,9.953 279.523,9.837 279.640,9.720 279.640,9.480 279.640,9.240 279.640,9.000 Z M 281.100,15.000 C 281.100,14.826 281.205,14.669 281.365,14.603 281.526,14.536 281.711,14.573 281.834,14.696 281.957,14.819 281.994,15.004 281.927,15.165 281.861,15.325 281.704,15.430 281.530,15.430 281.293,15.430 281.100,15.237 281.100,15.000 281.100,15.000 281.100,15.000 281.100,15.000 Z M 276.630,18.830 C 276.433,18.747 276.237,18.663 276.040,18.580 276.040,18.070 276.040,17.560 276.040,17.050 275.540,17.050 275.040,17.050 274.540,17.050 274.540,16.750 274.540,16.450 274.540,16.150 275.237,16.150 275.933,16.150 276.630,16.150 276.630,17.043 276.630,17.937 276.630,18.830 Z M 281.570,20.910 C 280.923,20.640 280.277,20.370 279.630,20.100 279.630,18.537 279.630,16.973 279.630,15.410 279.774,16.155 280.343,16.746 281.083,16.917 281.823,17.088 282.594,16.807 283.050,16.200 283.050,17.767 283.050,19.333 283.050,20.900 282.557,20.903 282.063,20.907 281.570,20.910 Z M 300.670,22.240 C 297.070,22.240 293.470,22.240 289.870,22.240 289.427,21.797 288.983,21.353 288.540,20.910 287.710,20.910 286.880,20.910 286.050,20.910 286.050,19.133 286.050,17.357 286.050,15.580 286.140,15.580 286.230,15.580 286.320,15.580 286.820,15.080 287.320,14.580 287.820,14.080 287.820,12.840 287.820,11.600 287.820,10.360 287.320,9.860 286.820,9.360 286.320,8.860 286.230,8.860 286.140,8.860 286.050,8.860 286.050,8.430 286.050,8.000 286.050,7.570 285.550,7.070 285.050,6.570 284.550,6.070 282.410,6.070 280.270,6.070 278.130,6.070 277.630,6.570 277.130,7.070 276.630,7.570 276.630,7.807 276.630,8.043 276.630,8.280 275.933,8.280 275.237,8.280 274.540,8.280 274.540,8.043 274.540,7.807 274.540,7.570 274.027,7.070 273.513,6.570 273.000,6.070 252.733,6.070 232.467,6.070 212.200,6.070 211.700,6.570 211.200,7.070 210.700,7.570 210.700,7.947 210.700,8.323 210.700,8.700 209.467,8.700 208.233,8.700 207.000,8.700 206.667,8.367 206.333,8.033 206.000,7.700 195.893,7.700 185.787,7.700 175.680,7.700 175.180,8.200 174.680,8.700 174.180,9.200 174.180,9.233 174.180,9.267 174.180,9.300 171.877,9.300 169.573,9.300 167.270,9.300 167.270,7.033 167.270,4.767 167.270,2.500 166.770,2.000 166.270,1.500 165.770,1.000 160.370,1.000 154.970,1.000 149.570,1.000 149.070,1.500 148.570,2.000 148.070,2.500 148.070,3.287 148.070,4.073 148.070,4.860 147.677,4.467 147.283,4.073 146.890,3.680 144.223,3.680 141.557,3.680 138.890,3.680 138.390,4.180 137.890,4.680 137.390,5.180 137.390,6.180 137.390,7.180 137.390,8.180 130.927,8.180 124.463,8.180 118.000,8.180 117.690,8.490 117.380,8.800 117.070,9.110 116.480,9.110 115.890,9.110 115.300,9.110 115.300,8.523 115.300,7.937 115.300,7.350 114.800,6.850 114.300,6.350 113.800,5.850 113.133,5.850 112.467,5.850 111.800,5.850 111.433,5.483 111.067,5.117 110.700,4.750 109.050,4.750 107.400,4.750 105.750,4.750 105.383,5.117 105.017,5.483 104.650,5.850 103.867,5.850 103.083,5.850 102.300,5.850 101.800,6.350 101.300,6.850 100.800,7.350 100.800,7.927 100.800,8.503 100.800,9.080 100.517,9.080 100.233,9.080 99.950,9.080 99.950,8.977 99.950,8.873 99.950,8.770 99.450,8.270 98.950,7.770 98.450,7.270 94.243,7.270 90.037,7.270 85.830,7.270 85.330,7.770 84.830,8.270 84.330,8.770 84.330,11.050 84.330,13.330 84.330,15.610 84.680,15.960 85.030,16.310 85.380,16.660 81.000,16.830 81.000,23.130 81.000,28.690 81.000,34.250 81.000,40.690 85.570,40.690 87.207,40.690 88.843,40.690 90.480,40.690 90.980,40.190 91.480,39.690 91.980,39.190 91.980,39.127 91.980,39.063 91.980,39.000 94.093,39.000 96.207,39.000 98.320,39.000 98.320,39.370 98.320,39.740 98.320,40.110 98.820,40.610 99.320,41.110 99.820,41.610 104.943,41.610 110.067,41.610 115.190,41.610 115.690,41.110 116.190,40.610 116.690,40.110 116.690,39.947 116.690,39.783 116.690,39.620 117.460,39.620 118.230,39.620 119.000,39.620 119.000,40.153 119.000,40.687 119.000,41.220 119.000,42.270 118.940,45.470 124.320,46.220 128.490,46.820 143.470,50.490 143.620,50.530 143.667,50.530 143.713,50.530 143.760,50.530 146.003,50.883 147.603,52.895 147.440,55.160 147.340,59.380 144.170,62.810 141.630,65.570 141.297,65.927 140.963,66.283 140.630,66.640 137.960,69.640 131.420,76.640 130.690,77.470 130.573,77.683 130.457,77.897 130.340,78.110 130.120,78.950 129.900,79.790 129.680,80.630 129.747,81.033 129.813,81.437 129.880,81.840 130.940,83.440 136.260,91.430 136.720,92.020 137.720,93.260 139.380,94.020 145.260,94.020 150.043,94.020 154.827,94.020 159.610,94.020 162.525,94.040 165.386,93.232 167.860,91.690 171.717,89.555 175.965,88.222 180.350,87.770 189.100,86.560 190.440,77.390 190.640,74.610 190.890,71.250 190.750,58.380 190.640,52.610 192.833,52.800 195.027,52.990 197.220,53.180 197.763,52.723 198.307,52.267 198.850,51.810 199.000,49.997 199.150,48.183 199.300,46.370 198.843,45.830 198.387,45.290 197.930,44.750 196.620,44.627 195.310,44.503 194.000,44.380 193.197,42.707 191.630,41.528 189.800,41.220 195.153,41.220 200.507,41.220 205.860,41.220 206.360,40.720 206.860,40.220 207.360,39.720 208.483,39.720 209.607,39.720 210.730,39.720 210.730,42.387 210.730,45.053 210.730,47.720 210.963,48.143 211.197,48.567 211.430,48.990 215.567,51.587 219.703,54.183 223.840,56.780 224.107,56.857 224.373,56.933 224.640,57.010 232.020,57.010 239.400,57.010 246.780,57.010 247.280,56.510 247.780,56.010 248.280,55.510 248.280,54.613 248.280,53.717 248.280,52.820 254.720,52.820 261.160,52.820 267.600,52.820 267.600,53.530 267.600,54.240 267.600,54.950 268.100,55.450 268.600,55.950 269.100,56.450 270.930,56.450 272.760,56.450 274.590,56.450 275.090,55.950 275.590,55.450 276.090,54.950 276.090,49.830 276.090,44.710 276.090,39.590 278.727,38.493 281.363,37.397 284.000,36.300 285.523,36.300 287.047,36.300 288.570,36.300 289.003,35.867 289.437,35.433 289.870,35.000 293.470,35.000 297.070,35.000 300.670,35.000 301.170,34.500 301.670,34.000 302.170,33.500 302.170,30.247 302.170,26.993 302.170,23.740 301.670,23.240 301.170,22.740 300.670,22.240 Z " />
  <path stroke="none" fill="#ffffffff" d="M 160.750,51.320 C 161.341,51.320 161.820,51.799 161.820,52.390 161.820,52.981 161.341,53.460 160.750,53.460 160.159,53.460 159.680,52.981 159.680,52.390 159.680,52.106 159.793,51.834 159.993,51.633 160.194,51.433 160.466,51.320 160.750,51.320 160.750,51.320 160.750,51.320 160.750,51.320 Z M 160.750,54.950 C 161.790,54.950 162.728,54.323 163.125,53.361 163.523,52.400 163.301,51.293 162.564,50.559 161.827,49.825 160.720,49.608 159.760,50.009 158.800,50.409 158.176,51.350 158.180,52.390 158.186,53.805 159.335,54.950 160.750,54.950 160.750,54.950 160.750,54.950 160.750,54.950 Z " />
  <path stroke="none" fill="#ffffffff" d="M 188.900,47.900 C 188.312,47.883 187.848,47.395 187.860,46.807 187.873,46.219 188.358,45.752 188.946,45.761 189.535,45.770 190.005,46.252 190.000,46.840 189.997,47.127 189.879,47.402 189.673,47.601 189.466,47.800 189.187,47.908 188.900,47.900 188.900,47.900 188.900,47.900 188.900,47.900 Z M 188.900,44.270 C 187.481,44.270 186.330,45.421 186.330,46.840 186.330,48.259 187.481,49.410 188.900,49.410 190.319,49.410 191.470,48.259 191.470,46.840 191.470,46.158 191.199,45.505 190.717,45.023 190.235,44.541 189.582,44.270 188.900,44.270 188.900,44.270 188.900,44.270 188.900,44.270 Z " />
</svg>