<?xml version="1.0" encoding="UTF-8" standalone="no"?>
<!DOCTYPE svg PUBLIC "-//W3C//DTD SVG 20010904//EN" "http://www.w3.org/TR/2001/REC-SVG-20010904/DTD/svg10.dtd"[]>
<svg version="1.1" id="Frosty Editor v1.0.6.3" xmlns="http://www.w3.org/2000/svg" d1p1:xlink="http://www.w3.org/1999/xlink" viewBox="0 0 384 96" xmlns:d1p1="xmlns">
  <path stroke="none" fill="#ffffffff" d="M 147.900,96.000 C 147.900,95.900 147.900,95.800 147.800,95.800 145.000,94.800 142.100,93.700 139.300,92.700 135.800,91.400 132.300,90.100 128.700,88.800 127.100,88.200 125.400,87.600 123.800,87.000 122.800,86.700 122.300,85.800 122.100,85.000 121.600,83.300 121.800,81.700 122.700,80.100 123.600,78.700 124.100,77.000 124.800,75.500 125.500,73.900 126.200,72.300 126.900,70.800 127.800,68.600 128.800,66.500 129.700,64.300 130.500,62.500 131.300,60.700 132.100,58.900 133.000,56.800 134.000,54.600 134.900,52.500 135.800,50.400 136.800,48.300 137.700,46.200 138.200,45.100 138.700,44.100 139.100,43.000 139.400,42.200 139.500,41.300 139.000,40.400 138.900,40.200 138.700,40.100 138.500,39.900 137.900,39.400 137.200,39.000 136.400,39.100 134.200,39.100 132.100,39.000 129.900,39.000 128.400,39.000 126.900,39.000 125.500,38.900 124.800,38.900 124.200,38.900 123.500,38.700 123.000,38.600 122.700,38.300 122.500,37.800 122.000,36.200 121.700,34.500 121.300,32.800 121.200,32.500 121.100,32.300 120.900,32.200 120.100,31.800 119.800,31.200 119.800,30.300 119.800,29.900 119.700,29.600 119.300,29.400 118.900,29.200 118.600,29.000 118.300,28.800 117.900,28.600 117.700,28.200 117.600,27.700 117.600,26.800 117.500,25.800 117.600,24.900 117.600,24.200 118.000,23.700 118.700,23.500 119.100,23.400 119.100,23.200 118.900,22.900 118.700,22.600 118.500,22.200 118.300,21.900 118.000,21.300 118.200,20.800 118.200,20.200 118.300,19.600 118.400,19.000 118.500,18.400 118.600,17.500 119.100,17.000 120.000,16.800 120.100,16.800 120.300,16.800 120.300,16.600 120.100,16.400 119.900,16.400 119.700,16.300 118.900,16.000 118.600,15.300 118.700,14.500 118.900,13.400 119.000,12.400 119.300,11.300 119.600,10.400 120.100,10.100 121.000,10.200 122.100,10.300 122.100,10.300 122.500,9.300 122.800,8.400 123.200,7.500 123.600,6.600 123.900,5.800 124.500,5.500 125.300,5.500 126.700,5.500 128.100,5.500 129.500,5.500 135.100,5.500 140.700,5.400 146.300,5.500 154.700,5.700 163.100,5.500 171.400,5.600 172.500,5.600 173.100,6.100 173.200,7.200 173.200,7.600 173.300,7.600 173.700,7.600 175.100,7.600 176.600,7.600 178.000,7.600 184.200,7.400 190.500,7.600 196.700,7.500 197.100,7.500 197.500,7.500 197.900,7.500 199.800,7.500 201.800,7.300 203.700,7.400 204.000,7.400 204.200,7.300 204.300,7.000 205.100,5.700 205.900,4.500 206.600,3.200 207.000,2.500 207.600,2.200 208.300,2.200 209.200,2.200 210.000,2.200 210.900,2.200 224.600,2.200 238.200,2.200 251.900,2.200 252.400,2.200 252.800,2.100 253.100,1.800 253.800,1.300 254.500,0.900 255.200,0.400 255.700,0.100 256.200,-0.100 256.800,-0.100 261.200,-0.100 265.700,-0.100 270.100,-0.100 271.400,-0.100 271.900,0.400 271.900,1.700 271.900,3.500 271.900,5.400 271.900,7.200 271.900,7.500 271.900,7.600 272.200,7.700 272.700,7.900 272.800,8.500 273.100,8.800 273.400,9.100 274.000,9.100 274.300,9.500 274.500,9.800 274.600,10.100 274.600,10.500 274.600,14.100 274.600,17.600 274.600,21.200 274.600,22.000 274.300,22.500 273.600,22.700 273.200,22.800 273.200,23.000 273.200,23.300 273.200,26.500 273.200,29.700 273.200,32.900 273.200,33.200 273.200,33.400 273.100,33.700 272.900,34.300 272.400,34.800 271.800,34.700 270.700,34.500 270.000,35.000 269.500,35.900 268.900,37.000 268.000,38.000 267.300,39.100 266.900,39.700 266.400,39.900 265.700,39.900 262.400,39.900 259.100,39.900 255.900,39.900 250.600,39.900 245.400,39.900 240.100,39.900 239.400,39.900 238.800,39.700 238.400,39.200 237.900,38.600 237.300,38.100 236.800,37.600 236.600,37.400 236.400,37.300 236.200,37.300 234.100,37.300 232.000,37.300 230.000,37.300 229.600,37.300 229.500,37.400 229.500,37.800 229.500,38.800 229.500,39.800 229.500,40.800 229.500,41.800 229.200,42.200 228.200,42.500 222.100,44.600 215.900,46.600 209.800,48.700 209.100,48.900 208.500,48.900 207.900,48.700 205.400,48.000 202.900,47.400 200.500,46.700 198.100,46.100 195.800,45.400 193.400,44.800 193.000,44.700 192.900,44.700 192.800,45.100 192.200,46.900 191.500,48.700 190.900,50.500 190.500,51.600 190.100,52.700 189.700,53.800 189.600,54.100 189.600,54.300 189.700,54.600 190.400,56.000 191.100,57.400 191.700,58.800 191.900,59.200 191.900,59.500 191.800,60.000 191.600,60.700 191.400,61.500 191.100,62.200 190.800,63.200 190.200,63.500 189.200,63.300 184.600,62.200 180.100,61.100 175.500,60.100 172.700,59.400 169.900,58.800 167.100,58.100 166.500,58.000 165.900,57.800 165.300,57.700 164.600,57.600 164.000,57.200 163.700,56.600 163.500,56.300 163.300,56.100 163.000,56.400 163.000,56.400 163.000,56.400 163.000,56.400 162.100,56.900 162.100,56.900 162.200,57.900 162.300,58.400 162.100,58.900 162.000,59.300 161.200,61.600 160.500,63.800 159.700,66.100 158.700,69.200 157.600,72.400 156.600,75.500 155.300,79.500 153.800,83.500 152.400,87.400 152.200,87.900 152.200,88.200 152.600,88.600 153.300,89.400 153.900,90.300 154.000,91.400 154.100,92.400 154.000,93.500 153.200,94.200 152.700,94.700 152.000,95.000 151.300,95.100 150.800,95.200 150.400,95.300 149.900,95.300 149.700,95.300 149.600,95.300 149.600,95.500 149.100,96.000 148.500,96.000 147.900,96.000 Z M 141.000,15.600 C 140.900,15.600 140.900,15.600 141.000,15.600 140.900,15.600 140.900,15.600 141.000,15.600 141.000,15.700 141.000,15.800 141.100,15.900 142.700,18.600 144.300,21.300 145.800,24.100 146.200,24.900 146.700,25.100 147.500,25.000 148.300,24.900 149.000,25.000 149.900,25.000 149.800,24.800 149.800,24.800 149.800,24.700 148.700,23.000 147.700,21.300 146.600,19.600 146.000,18.700 145.400,17.700 144.500,17.100 143.300,16.500 142.100,16.100 141.000,15.600 Z M 137.500,26.800 C 137.700,27.000 137.900,27.300 138.200,27.300 139.100,27.400 140.100,27.600 141.000,27.700 142.900,28.000 144.800,28.200 146.700,28.500 148.600,28.800 150.600,29.100 152.500,29.400 154.000,29.600 155.500,29.900 157.000,30.100 158.500,30.300 159.900,30.500 161.400,30.700 162.900,30.900 164.300,31.100 165.800,31.400 167.000,31.600 168.200,31.800 169.400,31.900 170.900,32.100 172.300,32.300 173.800,32.600 175.000,32.800 176.300,33.000 177.500,33.100 179.000,33.300 180.400,33.500 181.900,33.700 183.400,33.900 184.800,34.100 186.300,34.400 187.800,34.600 189.200,34.800 190.700,35.100 192.100,35.300 193.500,35.500 195.000,35.700 196.700,35.900 198.400,36.200 200.100,36.400 201.800,36.600 203.400,36.900 205.100,37.200 206.800,37.500 208.600,37.800 210.300,38.000 210.900,38.100 211.400,38.400 212.000,38.100 213.300,37.500 214.900,38.400 215.200,39.800 215.400,40.700 215.100,41.400 214.500,42.000 213.900,42.600 213.200,42.800 212.400,42.600 211.600,42.300 210.700,42.400 209.900,42.300 209.000,42.200 208.200,42.200 207.300,42.100 206.000,42.000 204.700,41.800 203.400,41.700 202.600,41.600 201.700,41.600 200.900,41.500 199.700,41.400 198.400,41.200 197.200,41.100 196.300,41.000 195.500,41.000 194.600,40.900 193.300,40.800 191.900,40.600 190.600,40.500 189.800,40.400 189.000,40.400 188.200,40.300 186.900,40.200 185.600,40.000 184.400,39.900 183.600,39.800 182.800,39.800 181.900,39.700 180.600,39.600 179.300,39.400 178.100,39.300 177.300,39.200 176.400,39.200 175.600,39.100 174.300,39.000 173.000,38.800 171.800,38.700 171.000,38.600 170.200,38.600 169.300,38.500 168.000,38.400 166.800,38.200 165.600,38.100 164.400,38.000 163.200,37.900 162.000,37.800 160.700,37.700 159.300,37.500 158.000,37.400 157.200,37.300 156.400,37.300 155.600,37.200 154.300,37.100 153.000,36.900 151.800,36.800 151.000,36.700 150.100,36.700 149.300,36.600 148.000,36.500 146.700,36.300 145.400,36.200 144.600,36.100 143.800,36.100 143.000,36.000 141.700,35.900 140.500,35.700 139.300,35.600 138.400,35.500 137.600,35.500 136.700,35.400 135.100,35.200 133.600,35.000 132.000,34.900 129.900,34.900 127.700,34.800 125.600,34.800 125.400,34.800 125.100,34.700 125.100,35.000 125.200,35.300 125.000,35.900 125.600,35.900 126.300,35.900 127.000,36.000 127.700,36.000 130.100,36.000 132.500,36.200 134.900,36.100 135.200,36.100 135.500,36.100 135.800,36.100 136.900,36.200 138.100,36.100 139.100,36.700 140.300,37.300 141.500,38.000 141.900,39.400 142.100,40.000 142.400,40.600 142.400,41.200 142.300,42.200 142.200,43.200 141.800,44.100 141.000,45.900 140.200,47.700 139.400,49.500 138.600,51.300 137.800,53.000 137.100,54.800 136.100,57.000 135.200,59.100 134.300,61.300 133.500,63.100 132.700,64.900 131.900,66.600 131.000,68.700 130.000,70.900 129.100,73.000 128.400,74.600 127.700,76.200 127.000,77.800 126.500,78.900 126.100,80.000 125.500,81.100 125.000,82.000 124.600,82.900 124.900,84.000 125.000,84.400 125.200,84.600 125.500,84.700 126.600,85.100 127.700,85.500 128.800,85.900 132.400,87.200 136.000,88.500 139.600,89.900 141.800,90.700 144.100,91.600 146.300,92.400 147.400,92.800 148.500,93.300 149.800,93.100 150.100,93.100 150.500,93.000 150.800,93.000 151.200,93.000 151.600,92.900 151.800,92.600 152.000,92.200 151.800,91.800 151.600,91.500 151.200,90.800 150.700,90.200 150.200,89.500 149.900,89.000 149.800,88.600 150.000,88.100 151.200,84.700 152.400,81.400 153.600,78.000 154.400,75.600 155.200,73.200 156.000,70.800 157.300,67.000 158.500,63.200 159.800,59.400 160.000,58.800 160.000,58.300 159.900,57.700 159.600,56.400 159.800,55.800 160.800,55.300 161.800,54.700 162.800,54.200 163.800,53.600 164.500,53.200 165.100,53.300 165.600,53.900 165.800,54.200 166.000,54.500 166.200,54.800 166.500,55.200 166.800,55.600 167.400,55.700 168.100,55.800 168.800,56.000 169.500,56.200 172.900,57.000 176.300,57.800 179.700,58.600 182.800,59.300 186.000,60.100 189.100,60.800 189.300,60.800 189.600,61.000 189.700,60.800 189.900,60.600 189.900,60.200 189.800,59.900 189.800,59.800 189.700,59.700 189.700,59.600 189.100,58.200 188.400,56.900 187.800,55.500 187.600,55.100 187.500,54.700 187.700,54.200 188.000,53.300 188.300,52.400 188.600,51.600 189.600,48.800 190.600,46.000 191.600,43.100 191.800,42.400 192.700,42.000 193.400,42.200 195.400,42.800 197.500,43.300 199.500,43.900 202.500,44.700 205.500,45.500 208.500,46.300 209.000,46.400 209.500,46.700 210.100,46.500 215.800,44.600 221.500,42.700 227.100,40.900 227.500,40.800 227.600,40.600 227.500,40.300 227.500,39.200 227.500,38.000 227.500,36.900 227.500,35.800 228.100,35.200 229.200,35.200 232.000,35.200 234.900,35.200 237.700,35.200 238.200,35.200 238.500,35.400 238.900,35.700 239.500,36.300 240.100,36.800 240.600,37.400 240.800,37.600 241.000,37.700 241.300,37.700 249.400,37.700 257.600,37.700 265.700,37.700 266.100,37.700 266.300,37.600 266.500,37.300 267.100,36.400 267.700,35.400 268.400,34.600 269.100,33.700 269.300,32.800 269.300,31.700 269.200,29.600 269.300,27.500 269.300,25.400 269.300,25.000 269.200,24.900 268.800,24.900 268.700,24.900 268.500,24.900 268.400,24.900 248.000,24.900 227.600,24.900 207.200,24.900 206.300,24.900 205.500,24.900 204.700,24.400 204.200,24.100 203.800,23.700 203.400,23.300 203.100,23.000 202.800,22.800 202.300,22.800 192.400,22.800 182.600,22.800 172.700,22.800 171.800,22.800 171.600,22.600 171.600,21.700 171.600,20.100 171.600,18.500 171.600,16.900 171.600,14.800 171.500,12.700 171.700,10.600 171.700,10.500 171.700,10.400 171.600,10.300 171.300,10.000 171.200,9.600 171.200,9.200 171.200,8.900 171.100,8.800 170.800,8.800 169.000,8.800 167.100,8.700 165.300,8.700 155.000,8.600 144.800,8.800 134.500,8.600 132.000,8.500 129.500,8.600 127.000,8.600 126.600,8.600 126.400,8.800 126.300,9.100 126.000,10.000 125.600,10.800 125.300,11.700 124.700,13.100 124.700,13.100 125.800,14.100 125.800,14.100 125.800,14.100 125.800,14.100 126.000,14.300 126.100,14.300 126.200,14.000 126.400,13.600 126.600,13.300 126.800,12.900 127.100,12.400 127.400,12.200 128.000,12.200 131.000,12.200 134.100,12.200 137.100,12.200 137.500,12.200 137.800,12.300 138.100,12.400 139.600,13.100 141.000,13.800 142.500,14.400 145.700,15.900 149.000,17.500 152.200,19.000 153.900,19.800 155.600,20.700 157.400,21.500 157.800,21.700 158.100,22.000 158.300,22.400 158.700,23.300 159.100,24.300 159.400,25.200 159.600,25.800 159.300,26.300 158.700,26.400 157.400,26.400 156.200,26.400 154.900,26.500 153.000,26.600 151.200,26.600 149.300,26.600 146.300,26.700 143.300,26.800 140.400,26.700 139.200,26.700 138.400,26.600 137.500,26.800 Z M 204.500,22.400 C 204.500,22.400 204.600,22.300 204.600,22.300 204.600,22.200 204.600,22.000 204.600,21.900 204.600,20.900 204.600,20.900 205.600,20.900 226.700,20.900 247.800,20.900 268.800,20.900 268.900,20.900 269.100,20.900 269.200,20.900 269.600,20.900 269.800,21.100 269.700,21.400 269.700,21.900 269.700,22.300 269.700,22.800 269.700,22.900 269.700,23.100 269.900,23.200 270.400,23.400 270.400,23.900 270.400,24.300 270.400,26.800 270.400,29.400 270.400,31.900 270.400,32.100 270.300,32.400 270.500,32.400 270.800,32.400 270.600,32.100 270.600,31.900 270.600,31.800 270.600,31.700 270.600,31.700 270.600,28.500 270.600,25.200 270.600,22.000 270.600,21.400 271.000,20.800 271.500,20.700 271.900,20.600 271.900,20.400 271.900,20.100 271.900,17.600 271.900,15.100 271.900,12.600 271.900,12.200 271.800,12.100 271.400,12.000 270.900,11.900 270.600,11.600 270.500,11.100 270.400,10.900 270.300,10.700 270.100,10.600 269.600,10.300 269.300,9.900 269.300,9.300 269.300,7.400 269.300,5.500 269.300,3.600 269.300,3.200 269.200,3.000 268.800,3.000 265.000,3.000 261.100,3.000 257.300,3.000 257.100,3.000 256.800,3.000 256.600,3.200 255.800,3.700 255.000,4.200 254.200,4.800 253.700,5.100 253.200,5.300 252.600,5.300 241.600,5.300 230.600,5.300 219.600,5.300 216.200,5.300 212.700,5.300 209.300,5.300 209.000,5.300 208.800,5.400 208.600,5.700 207.800,7.000 207.000,8.300 206.300,9.600 205.900,10.300 205.300,10.700 204.500,10.700 202.800,10.700 201.000,10.700 199.300,10.700 199.000,10.700 198.800,10.800 198.800,11.100 198.800,14.300 198.800,17.600 198.800,20.800 198.800,21.100 198.900,21.200 199.200,21.200 200.300,21.200 201.400,21.200 202.500,21.200 202.800,21.200 203.100,21.300 203.300,21.500 203.900,21.700 204.200,22.000 204.500,22.400 Z M 127.100,26.300 C 127.100,26.700 126.900,26.900 126.600,27.000 126.200,27.200 125.800,27.300 125.400,27.600 125.100,27.800 124.800,27.800 124.500,27.600 124.300,27.500 124.000,27.400 123.800,27.300 122.800,26.900 121.800,26.500 120.800,26.200 120.700,26.200 120.500,26.000 120.400,26.200 120.400,26.500 120.200,26.800 120.500,27.000 121.500,27.500 122.300,28.300 123.400,28.700 124.500,29.000 125.500,29.400 126.500,29.800 126.800,29.900 127.200,29.900 127.400,30.200 128.200,31.200 129.000,32.100 129.800,33.000 130.200,33.400 130.500,33.600 131.000,33.600 131.900,33.700 132.700,33.700 133.600,33.800 134.900,33.900 136.200,34.100 137.500,34.200 138.300,34.300 139.100,34.300 139.900,34.400 141.200,34.500 142.400,34.700 143.700,34.800 144.600,34.900 145.400,34.900 146.300,35.000 147.600,35.100 148.900,35.300 150.200,35.400 151.000,35.500 151.800,35.500 152.600,35.600 153.900,35.700 155.100,35.900 156.300,36.000 157.200,36.100 158.000,36.100 158.900,36.200 160.200,36.300 161.500,36.500 162.800,36.600 163.600,36.700 164.400,36.700 165.300,36.800 166.600,36.900 167.900,37.100 169.100,37.200 169.900,37.300 170.700,37.300 171.600,37.400 172.900,37.500 174.100,37.700 175.400,37.800 176.300,37.900 177.100,37.900 178.000,38.000 179.300,38.100 180.600,38.300 181.900,38.400 182.700,38.500 183.500,38.500 184.300,38.600 185.600,38.700 186.800,38.900 188.000,39.000 189.200,39.100 190.400,39.200 191.600,39.300 193.000,39.400 194.300,39.600 195.600,39.700 196.400,39.800 197.200,39.800 198.000,39.900 199.200,40.000 200.500,40.200 201.700,40.300 202.900,40.400 204.100,40.500 205.400,40.600 206.900,40.700 208.400,40.900 209.800,41.100 210.000,41.100 210.100,41.000 210.100,40.900 210.100,40.500 210.100,40.100 210.200,39.800 210.200,39.600 210.000,39.500 209.900,39.500 207.800,39.200 205.800,38.900 203.700,38.600 201.600,38.300 199.400,38.000 197.300,37.700 195.200,37.400 193.100,37.000 191.000,36.700 188.800,36.400 186.700,36.100 184.500,35.800 182.600,35.500 180.700,35.200 178.800,34.900 176.400,34.600 174.100,34.200 171.700,33.900 169.600,33.600 167.400,33.200 165.300,32.900 163.100,32.600 161.000,32.300 158.800,32.000 156.700,31.700 154.600,31.300 152.500,31.000 150.100,30.600 147.700,30.300 145.300,30.000 142.800,29.600 140.400,29.300 137.900,28.900 137.500,28.800 137.100,28.800 136.700,28.500 135.500,27.400 134.300,26.200 133.300,25.000 131.800,23.400 130.300,21.800 128.800,20.200 127.600,18.900 126.300,17.600 125.100,16.300 124.500,15.600 123.800,15.000 123.200,14.300 123.000,14.000 122.600,13.700 122.300,13.400 122.000,13.200 121.500,13.200 121.500,13.500 121.300,14.000 121.300,14.600 121.800,15.000 122.500,15.700 123.200,16.400 123.900,17.200 125.100,18.500 126.500,19.800 127.700,21.200 128.200,21.700 128.700,22.300 129.200,22.800 129.500,23.100 129.500,23.400 129.300,23.700 129.000,24.200 128.600,24.600 128.300,25.000 127.900,25.500 127.300,25.500 126.900,25.000 126.800,24.900 126.700,24.700 126.600,24.600 125.400,23.600 124.300,22.500 123.100,21.400 122.500,20.800 121.800,20.200 121.200,19.700 121.100,19.600 121.000,19.400 120.900,19.700 120.500,20.700 120.800,22.000 121.800,22.600 123.200,23.600 124.700,24.500 126.100,25.500 126.700,25.600 127.100,25.800 127.100,26.300 Z M 191.300,21.000 C 193.300,21.000 195.200,21.000 197.200,21.000 197.600,21.000 197.800,20.900 197.800,20.400 197.800,17.200 197.800,14.100 197.800,10.900 197.800,10.400 197.600,10.300 197.200,10.300 193.300,10.300 189.300,10.300 185.400,10.400 185.000,10.400 184.900,10.600 184.900,10.900 184.900,14.100 184.900,17.200 184.900,20.400 184.900,20.800 185.000,20.900 185.400,20.900 187.300,21.000 189.300,21.000 191.300,21.000 Z M 237.700,23.100 C 247.900,23.100 258.200,23.100 268.400,23.100 268.500,23.100 268.700,23.100 268.800,23.100 268.900,23.100 269.000,23.100 269.100,23.000 269.200,22.600 269.200,22.200 269.100,21.800 269.000,21.500 268.600,21.700 268.400,21.700 247.700,21.700 227.000,21.700 206.400,21.700 205.400,21.700 205.300,21.800 205.500,22.800 205.500,23.000 205.600,23.100 205.800,23.100 206.200,23.100 206.700,23.200 207.100,23.200 217.300,23.100 227.500,23.100 237.700,23.100 Z M 178.200,21.000 C 179.800,21.000 181.500,21.000 183.100,21.000 183.500,21.000 183.600,20.900 183.600,20.500 183.600,17.300 183.600,14.100 183.600,10.900 183.600,10.500 183.500,10.400 183.100,10.500 179.800,10.500 176.500,10.500 173.200,10.500 172.900,10.500 172.700,10.600 172.700,10.900 172.700,12.000 172.700,13.000 172.700,14.100 172.700,14.500 172.800,14.600 173.200,14.600 174.400,14.600 175.700,14.600 176.900,14.600 177.300,14.600 177.500,14.800 177.500,15.200 177.500,16.400 177.500,17.600 177.500,18.700 177.500,19.100 177.300,19.300 176.900,19.300 175.900,19.300 174.900,19.300 173.900,19.300 172.700,19.300 172.700,19.300 172.700,20.500 172.700,20.900 172.800,21.000 173.200,21.000 175.000,21.000 176.600,21.000 178.200,21.000 Z M 134.500,13.700 C 134.800,14.200 135.000,14.600 135.200,15.000 136.100,16.600 137.000,18.200 138.000,19.900 138.900,21.500 139.800,23.200 140.700,24.800 140.800,25.000 140.900,25.100 141.200,25.100 142.200,25.100 143.100,25.100 144.100,25.100 144.400,25.100 144.500,25.100 144.300,24.800 144.000,24.300 143.700,23.800 143.400,23.300 141.900,20.700 140.500,18.200 139.000,15.600 138.600,14.900 138.000,14.200 137.200,13.900 136.400,13.500 135.400,13.800 134.500,13.700 Z M 137.400,25.200 C 137.800,25.200 138.200,25.200 138.600,25.200 138.900,25.200 139.000,25.100 138.800,24.800 138.600,24.500 138.400,24.200 138.300,23.800 137.200,21.900 136.200,20.000 135.100,18.100 134.300,16.700 133.600,15.200 132.500,14.000 132.400,13.800 132.200,13.700 132.000,13.700 131.300,13.700 130.600,13.700 129.900,13.700 129.600,13.700 129.400,13.700 129.700,14.100 129.900,14.300 130.000,14.600 130.100,14.800 130.900,16.300 131.700,17.700 132.600,19.200 133.500,20.900 134.600,22.500 135.300,24.300 135.500,24.900 136.000,25.300 136.700,25.200 136.900,25.200 137.200,25.200 137.400,25.200 Z M 147.800,18.800 C 147.800,18.900 147.900,19.000 147.900,19.000 149.100,20.800 150.200,22.700 151.400,24.500 151.600,24.800 151.800,24.900 152.200,24.900 153.600,24.800 155.000,25.000 156.400,24.800 157.300,24.700 157.300,24.800 156.900,23.900 156.700,23.400 156.600,23.000 156.000,22.700 153.700,21.600 151.400,20.500 149.100,19.300 148.600,19.100 148.200,19.000 147.800,18.800 Z M 174.900,15.300 C 174.400,15.300 173.800,15.300 173.300,15.300 173.000,15.300 172.900,15.400 172.900,15.700 172.900,16.600 172.900,17.400 172.900,18.300 172.900,18.600 173.000,18.700 173.200,18.700 174.300,18.700 175.500,18.700 176.600,18.700 176.900,18.700 177.000,18.600 177.000,18.300 177.000,17.500 177.000,16.600 177.000,15.800 177.000,15.500 176.900,15.400 176.600,15.400 176.000,15.300 175.400,15.300 174.900,15.300 Z M 128.500,33.600 C 127.800,32.700 127.100,31.900 126.400,31.200 126.300,31.100 126.200,31.100 126.100,31.000 125.100,30.600 124.100,30.300 123.200,29.900 123.100,29.900 122.900,29.700 122.800,29.900 122.700,30.100 122.900,30.200 123.100,30.200 123.600,30.500 123.900,30.900 124.000,31.500 124.100,32.100 124.300,32.600 124.400,33.200 124.400,33.400 124.500,33.500 124.700,33.500 125.800,33.400 127.100,33.700 128.500,33.600 Z M 131.100,19.800 C 131.100,19.700 131.100,19.600 131.000,19.600 129.900,17.800 128.900,15.900 127.800,14.100 127.700,13.900 127.600,13.900 127.500,14.100 127.300,14.500 127.100,14.800 126.800,15.100 126.600,15.200 126.700,15.400 126.900,15.500 127.300,15.900 127.700,16.400 128.200,16.800 128.800,17.500 129.500,18.100 130.100,18.800 130.400,19.200 130.700,19.600 131.100,19.800 Z M 212.800,41.600 C 213.500,41.600 214.100,41.000 214.100,40.300 214.100,39.700 213.500,39.100 212.800,39.100 212.100,39.100 211.500,39.700 211.500,40.400 211.600,41.000 212.100,41.600 212.800,41.600 Z M 127.000,22.400 C 127.000,22.200 127.000,22.100 126.900,22.100 125.800,20.900 124.600,19.700 123.500,18.600 123.400,18.500 123.300,18.400 123.200,18.600 123.100,18.800 123.100,18.800 123.200,19.000 124.000,19.700 124.700,20.400 125.500,21.100 125.900,21.400 126.300,21.900 127.000,22.400 Z " />
  <path stroke="none" fill="#ffffffff" d="M 141.000,15.600 C 140.900,15.600 140.900,15.600 141.000,15.600 140.900,15.600 140.900,15.600 141.000,15.600 141.000,15.600 141.000,15.600 141.000,15.600 Z " />
  <path stroke="none" fill="#ffffffff" d="M 145.200,83.000 C 144.700,83.000 144.100,83.100 143.600,83.000 142.900,82.900 142.500,83.200 142.000,83.600 141.200,84.300 140.500,84.900 139.700,85.500 139.400,85.700 139.200,85.800 138.800,85.700 135.600,84.800 132.500,84.000 129.300,83.100 128.300,82.800 128.200,82.500 128.600,81.600 129.800,78.900 131.000,76.300 132.200,73.600 133.700,70.300 135.200,66.900 136.700,63.600 137.900,60.900 139.100,58.300 140.300,55.600 141.800,52.300 143.300,48.900 144.800,45.600 145.500,44.100 146.100,42.700 146.800,41.200 147.100,40.600 147.400,40.400 148.100,40.600 150.900,41.400 153.700,42.200 156.500,43.000 157.900,43.400 159.200,43.800 160.600,44.200 161.600,44.500 161.700,44.700 161.400,45.700 160.000,49.700 158.600,53.800 157.200,57.800 156.000,61.100 154.900,64.400 153.700,67.700 152.300,71.700 150.900,75.800 149.500,79.800 149.200,80.700 148.900,81.500 148.600,82.400 148.400,82.900 148.000,83.000 147.600,83.000 146.700,83.000 146.000,83.000 145.200,83.000 Z M 144.600,81.600 C 145.200,81.600 145.900,81.600 146.500,81.600 146.900,81.600 147.100,81.500 147.300,81.000 148.200,78.400 149.100,75.800 150.000,73.100 151.700,68.300 153.400,63.500 155.000,58.700 155.600,56.900 156.200,55.200 156.800,53.400 157.700,50.800 158.600,48.200 159.500,45.600 159.600,45.400 159.600,45.300 159.300,45.200 157.100,44.600 155.000,44.000 152.800,43.300 151.300,42.900 149.800,42.500 148.300,42.000 148.100,41.900 147.800,41.900 147.700,42.200 147.500,42.600 147.400,43.000 147.200,43.300 146.100,45.800 145.000,48.200 143.900,50.700 143.100,52.500 142.300,54.300 141.400,56.100 140.200,58.700 139.100,61.300 137.900,63.800 137.100,65.500 136.300,67.300 135.600,69.000 134.500,71.500 133.300,74.100 132.200,76.600 131.500,78.200 130.800,79.700 130.100,81.300 130.000,81.600 130.000,81.700 130.300,81.800 133.000,82.500 135.600,83.200 138.300,84.000 138.600,84.100 138.800,84.000 139.100,83.800 139.900,83.100 140.600,82.500 141.400,81.800 141.800,81.400 142.300,81.200 142.900,81.200 143.600,81.600 144.100,81.600 144.600,81.600 Z " />
  <path stroke="none" fill="#ffffffff" d="M 186.000,25.700 C 188.300,25.600 190.600,25.700 192.800,25.600 195.200,25.500 197.700,25.500 200.100,25.500 212.900,25.500 225.700,25.500 238.500,25.500 239.300,25.500 239.400,25.700 239.300,26.500 239.200,27.100 238.900,27.500 238.400,27.800 237.300,28.600 236.100,29.300 234.800,29.800 234.300,30.000 233.800,30.000 233.400,29.900 233.000,29.800 232.600,29.800 232.200,29.800 230.900,29.800 229.600,29.700 228.300,29.700 226.500,29.700 224.800,29.600 223.000,29.500 221.200,29.400 219.400,29.400 217.600,29.300 215.900,29.200 214.200,29.200 212.400,29.100 210.600,29.000 208.700,29.000 206.900,28.900 205.200,28.800 203.400,28.800 201.700,28.700 199.900,28.600 198.100,28.600 196.300,28.500 194.300,28.400 192.300,28.200 190.400,28.100 188.900,28.000 187.400,27.900 185.900,27.800 184.900,27.700 183.900,27.700 182.900,27.600 182.400,27.600 182.100,27.200 181.800,26.900 181.600,26.600 181.800,26.200 182.200,26.100 182.800,25.800 183.500,25.700 184.200,25.700 184.700,25.700 185.300,25.700 186.000,25.700 Z M 188.600,26.800 C 189.700,26.900 190.800,27.000 191.900,27.100 193.400,27.200 194.900,27.300 196.400,27.400 198.100,27.500 199.700,27.500 201.400,27.600 203.200,27.700 204.900,27.700 206.700,27.800 208.500,27.900 210.200,27.900 212.000,28.000 213.800,28.100 215.600,28.100 217.400,28.200 219.200,28.300 220.900,28.300 222.700,28.400 224.500,28.500 226.200,28.500 228.000,28.600 229.400,28.600 230.800,28.800 232.200,28.700 232.500,28.700 232.900,28.700 233.200,28.800 233.700,28.900 234.200,28.900 234.800,28.600 235.700,28.200 236.600,27.700 237.400,27.100 237.600,27.000 237.900,26.900 237.900,26.600 237.800,26.600 237.600,26.600 237.500,26.600 234.600,26.600 231.700,26.600 228.900,26.700 223.300,26.800 217.700,26.700 212.100,26.700 204.400,26.700 196.700,26.600 189.000,26.800 188.800,26.800 188.700,26.800 188.600,26.800 Z " />
  <path stroke="none" fill="#ffffffff" d="M 181.900,56.900 C 181.000,56.800 180.100,56.500 179.200,56.300 176.900,55.800 174.700,55.400 172.500,54.800 170.900,54.400 169.200,54.100 167.900,53.000 166.800,52.200 165.800,51.300 165.500,49.900 165.400,49.400 165.400,48.900 165.600,48.400 166.200,46.600 166.900,44.800 167.600,43.100 168.000,42.100 168.800,41.700 169.900,41.800 171.900,42.100 173.800,42.400 175.800,42.700 177.700,43.000 179.600,43.300 181.400,43.600 182.900,43.900 184.400,44.100 185.900,44.400 187.100,44.600 187.500,45.200 187.100,46.400 186.100,49.300 185.100,52.200 184.200,55.100 184.200,55.200 184.100,55.300 184.100,55.400 183.700,56.600 183.100,56.800 181.900,56.900 Z M 168.900,44.000 C 168.100,45.500 167.700,47.000 167.100,48.500 166.900,49.100 166.900,49.800 167.300,50.400 167.700,50.900 168.200,51.400 168.700,51.700 170.000,52.600 171.500,52.900 173.000,53.300 175.100,53.800 177.200,54.200 179.300,54.700 180.100,54.900 181.000,55.200 181.800,55.200 182.200,55.200 182.400,55.100 182.500,54.700 183.400,52.000 184.300,49.400 185.200,46.800 185.500,46.000 185.500,46.100 184.700,45.900 184.700,45.900 184.600,45.900 184.600,45.900 182.900,45.600 181.200,45.300 179.500,45.000 177.900,44.700 176.200,44.400 174.600,44.200 174.400,44.200 174.300,44.200 174.200,44.400 174.000,45.600 173.700,46.900 173.800,48.100 173.800,48.700 174.000,49.300 174.400,49.800 174.700,50.200 174.900,50.600 175.200,51.000 175.500,51.400 175.300,51.800 174.800,52.000 174.000,52.300 173.300,52.100 172.600,51.800 171.400,51.400 170.700,50.600 170.200,49.500 169.800,48.400 169.800,47.300 169.600,46.200 169.500,45.400 169.400,44.700 168.900,44.000 Z M 173.400,50.800 C 173.400,50.700 173.400,50.700 173.400,50.800 173.400,50.600 173.300,50.400 173.200,50.300 172.600,49.500 172.600,48.600 172.500,47.700 172.400,46.600 172.700,45.600 172.900,44.600 173.000,44.200 173.000,43.900 172.400,43.900 171.700,43.800 171.100,43.700 170.400,43.600 170.300,43.600 170.200,43.500 170.100,43.600 170.000,43.700 170.100,43.900 170.200,44.000 170.500,44.500 170.500,45.100 170.700,45.600 170.900,46.700 170.800,47.800 171.200,48.800 171.500,49.800 172.100,50.600 173.400,50.800 Z " />
  <path stroke="none" fill="#ffffffff" d="M 247.200,36.800 C 245.800,36.800 244.300,36.800 242.900,36.800 242.400,36.800 241.900,36.400 241.800,35.900 241.700,35.500 242.100,35.000 242.500,34.800 242.800,34.700 243.100,34.600 243.500,34.600 246.000,34.600 248.500,34.600 251.000,34.600 252.000,34.600 252.500,35.400 252.100,36.400 252.000,36.700 251.700,36.700 251.500,36.700 250.100,36.800 248.700,36.800 247.200,36.800 Z M 247.100,36.100 C 248.400,36.100 249.800,36.100 251.100,36.100 251.300,36.100 251.600,36.200 251.600,35.800 251.600,35.500 251.400,35.400 251.100,35.400 248.500,35.400 245.800,35.400 243.200,35.400 243.000,35.400 242.700,35.400 242.700,35.700 242.700,36.100 243.000,36.000 243.200,36.000 244.500,36.100 245.800,36.100 247.100,36.100 Z " />
  <path stroke="none" fill="#ffffffff" d="M 259.100,36.800 C 257.700,36.800 256.300,36.800 254.900,36.800 254.400,36.800 253.900,36.400 253.800,35.900 253.700,35.500 254.100,35.000 254.500,34.800 254.800,34.700 255.100,34.600 255.500,34.600 258.000,34.600 260.500,34.600 263.000,34.600 264.000,34.600 264.500,35.400 264.100,36.400 264.000,36.700 263.700,36.700 263.500,36.700 262.000,36.800 260.500,36.800 259.100,36.800 Z M 259.000,36.100 C 260.300,36.100 261.700,36.100 263.000,36.100 263.200,36.100 263.500,36.200 263.500,35.800 263.500,35.500 263.300,35.500 263.000,35.500 260.400,35.500 257.800,35.500 255.200,35.500 254.900,35.500 254.600,35.400 254.600,35.800 254.600,36.200 255.000,36.100 255.200,36.100 256.400,36.100 257.700,36.100 259.000,36.100 Z " />
  <path stroke="none" fill="#ffffffff" d="M 146.800,87.500 C 147.000,88.700 145.700,89.900 144.400,89.900 143.300,89.900 142.000,88.700 142.100,87.500 142.100,86.400 143.300,85.100 144.500,85.200 145.600,85.100 146.900,86.200 146.800,87.500 Z M 145.700,87.400 C 145.700,86.700 145.100,86.200 144.400,86.200 143.700,86.200 143.200,86.800 143.200,87.400 143.200,88.100 143.800,88.700 144.500,88.700 145.100,88.700 145.700,88.100 145.700,87.400 Z " />
  <path stroke="none" fill="#ffffffff" d="M 237.600,12.900 C 227.000,12.900 216.300,12.900 205.700,12.900 204.800,12.900 204.700,12.800 204.700,11.900 204.700,10.600 204.700,10.600 206.000,10.600 227.200,10.600 248.400,10.600 269.600,10.600 270.600,10.600 270.600,10.600 270.600,11.600 270.600,13.000 270.700,12.900 269.300,12.900 258.700,12.900 248.200,12.900 237.600,12.900 Z M 237.700,12.100 C 248.200,12.100 258.700,12.100 269.100,12.100 269.200,12.100 269.400,12.100 269.500,12.100 269.700,12.100 269.800,12.000 269.800,11.800 269.900,11.300 269.500,11.400 269.200,11.400 248.100,11.400 227.000,11.400 206.000,11.400 205.900,11.400 205.800,11.400 205.700,11.400 205.400,11.400 205.400,11.600 205.400,11.800 205.400,12.000 205.400,12.100 205.700,12.100 205.800,12.100 206.000,12.100 206.100,12.100 216.700,12.100 227.200,12.100 237.700,12.100 Z " />
  <path stroke="none" fill="#ffffffff" d="M 238.100,18.300 C 227.300,18.300 216.400,18.300 205.600,18.300 204.700,18.300 204.600,18.200 204.600,17.300 204.600,17.000 204.600,16.800 204.600,16.500 204.600,15.700 204.800,15.600 205.600,15.600 205.700,15.600 205.700,15.600 205.700,15.600 227.300,15.600 248.900,15.600 270.500,15.600 271.500,15.600 271.500,15.600 271.500,16.600 271.500,16.900 271.500,17.200 271.500,17.500 271.500,18.200 271.400,18.200 270.700,18.200 270.600,18.200 270.500,18.200 270.400,18.200 259.600,18.300 248.800,18.300 238.100,18.300 Z M 238.000,17.600 C 248.700,17.600 259.300,17.600 270.000,17.600 270.100,17.600 270.300,17.600 270.400,17.600 270.500,17.600 270.600,17.500 270.600,17.400 270.800,16.700 270.600,16.400 269.900,16.400 248.600,16.400 227.300,16.400 206.100,16.400 206.000,16.400 205.800,16.400 205.700,16.400 205.600,16.400 205.500,16.400 205.500,16.500 205.500,16.800 205.400,17.200 205.500,17.400 205.600,17.700 205.900,17.500 206.100,17.500 216.700,17.600 227.300,17.600 238.000,17.600 Z " />
  <path stroke="none" fill="#ffffffff" d="M 225.100,9.400 C 223.000,9.400 220.900,9.400 218.800,9.400 218.500,9.400 218.300,9.400 218.100,9.100 218.000,8.800 218.200,8.700 218.300,8.500 218.700,7.400 219.400,7.300 220.500,7.300 224.000,7.400 227.500,7.300 230.900,7.300 231.400,7.300 231.800,7.500 231.800,8.000 231.800,8.200 231.900,8.400 232.000,8.600 232.200,9.200 232.100,9.400 231.400,9.400 230.100,9.400 228.900,9.400 227.600,9.400 226.800,9.400 226.000,9.400 225.100,9.400 Z M 225.200,8.600 C 227.100,8.600 229.000,8.600 230.900,8.600 231.000,8.600 231.300,8.700 231.300,8.400 231.300,8.200 231.200,8.000 230.900,8.000 230.800,8.000 230.700,8.000 230.600,8.000 227.100,8.000 223.600,8.000 220.200,8.000 220.100,8.000 220.000,8.000 219.900,8.000 219.600,8.000 219.400,8.200 219.400,8.500 219.400,8.800 219.700,8.600 219.800,8.600 221.500,8.600 223.300,8.600 225.200,8.600 Z " />
  <path stroke="none" fill="#ffffffff" d="M 243.600,9.400 C 241.500,9.400 239.400,9.400 237.300,9.400 237.100,9.400 236.800,9.400 236.600,9.200 236.400,8.900 236.700,8.700 236.800,8.500 237.200,7.500 237.900,7.200 239.000,7.300 242.500,7.400 246.000,7.300 249.500,7.300 250.000,7.300 250.300,7.500 250.400,8.000 250.400,8.200 250.500,8.400 250.600,8.700 250.800,9.300 250.700,9.500 250.100,9.500 248.700,9.500 247.300,9.500 246.000,9.500 245.100,9.400 244.400,9.400 243.600,9.400 Z M 243.700,8.600 C 245.600,8.600 247.500,8.600 249.300,8.600 249.400,8.600 249.700,8.700 249.700,8.400 249.700,8.200 249.600,8.000 249.300,8.000 249.200,8.000 249.100,8.000 249.100,8.000 245.500,8.000 242.000,8.000 238.400,8.000 238.300,8.000 238.200,8.000 238.100,8.000 237.800,8.000 237.700,8.300 237.700,8.400 237.700,8.700 238.000,8.500 238.100,8.500 240.000,8.600 241.800,8.600 243.700,8.600 Z " />
</svg>