<?xml version="1.0" encoding="UTF-8" standalone="no"?>
<!DOCTYPE svg PUBLIC "-//W3C//DTD SVG 20010904//EN" "http://www.w3.org/TR/2001/REC-SVG-20010904/DTD/svg10.dtd"[]>
<svg version="1.1" id="Frosty Editor v1.0.6.3" xmlns="http://www.w3.org/2000/svg" d1p1:xlink="http://www.w3.org/1999/xlink" viewBox="0 0 25 25" xmlns:d1p1="xmlns">
  <path stroke="none" fill="#ffffffff" d="M 16.384,4.420 C 16.421,4.547 16.468,4.670 16.514,4.791 16.560,4.912 16.613,5.030 16.661,5.148 16.710,5.266 16.771,5.369 16.828,5.484 16.887,5.596 16.945,5.708 17.004,5.820 17.035,5.878 17.065,5.935 17.096,5.993 17.171,5.967 17.246,5.941 17.322,5.915 17.711,5.782 18.096,5.634 18.477,5.481 18.539,6.047 18.613,6.627 18.698,7.198 18.707,7.260 18.717,7.322 18.727,7.384 18.775,7.396 18.824,7.408 18.872,7.420 19.176,7.492 19.484,7.562 19.798,7.630 20.112,7.697 20.421,7.743 20.743,7.772 20.475,7.601 20.182,7.465 19.899,7.331 19.669,7.228 19.430,7.118 19.194,7.018 19.155,6.355 19.105,5.694 19.043,5.034 19.030,4.899 19.016,4.765 19.003,4.630 18.624,4.786 18.624,4.786 18.624,4.786 18.179,4.970 17.732,5.155 17.300,5.372 17.268,5.332 17.235,5.293 17.202,5.254 17.122,5.155 17.033,5.062 16.947,4.965 16.862,4.868 16.767,4.778 16.676,4.682 16.584,4.585 16.488,4.503 16.384,4.420 Z M 15.013,5.196 C 14.969,5.360 14.927,5.520 14.883,5.682 14.840,5.844 14.814,6.007 14.787,6.171 14.743,6.418 14.708,6.665 14.678,6.912 14.205,6.953 13.735,7.008 13.266,7.079 13.197,7.091 13.128,7.102 13.059,7.113 13.006,7.313 13.006,7.313 13.006,7.313 12.904,7.694 12.818,8.079 12.748,8.467 12.515,8.602 12.307,8.732 12.090,8.871 11.830,9.037 11.579,9.217 11.338,9.409 11.640,9.346 11.938,9.267 12.232,9.173 12.523,9.079 12.813,8.983 13.101,8.873 13.132,8.861 13.164,8.848 13.196,8.835 13.211,8.791 13.227,8.747 13.243,8.703 13.361,8.365 13.469,8.023 13.568,7.681 14.039,7.610 14.504,7.538 14.969,7.435 15.049,7.418 15.130,7.401 15.210,7.384 15.207,7.317 15.205,7.250 15.202,7.184 15.193,6.850 15.174,6.518 15.145,6.189 15.134,6.024 15.110,5.858 15.093,5.693 15.076,5.529 15.047,5.363 15.013,5.196 Z M 16.770,6.315 C 16.749,6.315 16.729,6.318 16.708,6.324 16.464,6.378 16.331,6.628 16.104,6.723 14.728,8.138 13.324,9.522 11.944,10.931 11.558,11.066 11.199,11.412 11.091,11.801 10.797,12.028 10.616,12.338 10.371,12.609 10.177,12.940 10.590,13.171 10.890,13.106 9.807,14.205 8.723,15.298 7.637,16.395 7.295,16.448 7.127,16.818 6.870,17.016 6.279,16.427 5.680,15.840 5.119,15.226 4.934,15.118 4.720,15.175 4.540,15.047 4.228,15.049 3.831,15.498 4.117,15.792 3.994,16.152 4.460,16.366 4.670,16.610 5.081,17.035 5.556,17.466 5.918,17.895 5.281,18.658 4.502,19.307 3.850,20.055 3.682,20.286 4.020,20.497 3.850,20.692 3.861,20.932 3.619,21.437 3.848,21.470 4.130,21.436 4.479,21.411 4.711,21.317 5.009,21.623 5.365,21.322 5.564,21.062 5.717,20.717 6.164,21.025 6.343,20.708 6.377,20.434 6.547,20.470 6.732,20.311 6.841,20.033 6.922,20.044 7.157,19.877 7.241,19.583 7.387,19.619 7.602,19.433 7.792,19.215 7.538,18.847 7.912,18.687 8.216,18.370 8.523,18.050 8.767,17.691 9.308,16.987 10.032,16.423 10.621,15.753 11.124,15.262 11.622,14.776 12.099,14.261 12.076,14.512 12.165,14.989 12.507,14.845 12.731,14.778 12.865,14.543 13.061,14.463 13.243,14.247 13.427,14.053 13.694,13.968 13.969,13.770 14.176,13.495 14.298,13.192 15.706,11.779 17.115,10.366 18.514,8.943 18.622,8.684 18.978,8.493 18.790,8.174 18.545,7.942 18.181,8.071 17.914,7.907 17.589,7.889 17.352,8.222 17.119,8.428 17.062,8.666 16.756,8.855 16.578,9.066 16.333,9.297 15.997,9.448 15.874,9.776 15.526,10.147 15.169,10.513 14.754,10.798 14.631,11.026 14.441,11.276 14.251,11.407 14.192,11.181 13.988,10.979 13.762,10.918 14.064,10.596 14.410,10.381 14.717,10.048 14.760,9.784 15.127,9.601 15.296,9.371 15.574,9.168 15.831,8.916 16.083,8.653 16.128,8.416 16.469,8.242 16.623,8.031 16.857,7.888 17.182,7.601 17.287,7.367 17.141,7.125 17.121,6.866 17.070,6.594 17.037,6.460 16.912,6.317 16.770,6.315 Z M 16.738,6.619 C 16.741,6.618 16.744,6.618 16.747,6.619 16.761,6.622 16.770,6.640 16.783,6.669 16.805,6.720 16.823,6.824 16.830,6.950 16.840,7.146 16.846,7.174 16.895,7.230 16.918,7.257 16.942,7.294 16.949,7.311 16.960,7.343 16.960,7.343 16.960,7.343 16.762,7.537 16.762,7.537 16.762,7.537 16.563,7.732 16.563,7.732 16.563,7.732 16.534,7.731 16.534,7.731 16.534,7.731 16.504,7.730 16.504,7.730 16.504,7.730 16.241,7.993 16.241,7.993 16.241,7.993 16.096,8.138 15.920,8.318 15.850,8.393 15.721,8.529 15.721,8.529 15.721,8.529 15.730,8.553 15.730,8.553 15.730,8.553 15.738,8.577 15.738,8.577 15.738,8.577 15.562,8.753 15.562,8.753 15.562,8.753 15.387,8.929 15.387,8.929 15.387,8.929 15.351,8.929 15.351,8.929 15.351,8.929 15.318,8.930 15.318,8.930 15.318,8.930 14.846,9.401 14.846,9.401 14.846,9.401 14.338,9.909 14.358,9.886 14.371,9.928 14.381,9.958 14.381,9.958 14.381,9.958 14.220,10.110 14.220,10.110 14.220,10.110 14.060,10.263 14.060,10.263 14.060,10.263 14.032,10.258 14.032,10.258 14.032,10.258 14.005,10.254 14.005,10.254 14.005,10.254 13.510,10.748 13.510,10.748 13.510,10.748 13.017,11.243 13.017,11.243 13.017,11.243 13.025,11.279 13.025,11.279 13.025,11.279 13.035,11.315 13.035,11.315 13.035,11.315 12.898,11.447 12.898,11.447 12.898,11.447 12.760,11.578 12.760,11.578 12.760,11.578 12.723,11.575 12.723,11.575 12.723,11.575 12.693,11.572 12.684,11.575 12.660,11.599 12.621,11.639 12.620,11.649 12.658,11.683 12.691,11.711 12.691,11.711 12.691,11.711 12.907,11.491 12.907,11.491 12.907,11.491 13.116,11.278 13.125,11.271 13.152,11.268 13.168,11.266 13.198,11.251 13.219,11.235 13.322,11.156 13.488,11.142 13.663,11.199 13.764,11.233 13.764,11.233 13.764,11.233 13.852,11.321 13.852,11.321 13.852,11.321 13.940,11.408 13.940,11.408 13.940,11.408 13.964,11.485 13.964,11.485 13.964,11.485 14.020,11.658 14.007,11.836 13.930,11.932 13.901,11.970 13.895,11.990 13.906,12.030 13.914,12.061 13.764,12.215 13.701,12.241 13.648,12.261 13.459,12.455 13.465,12.481 13.469,12.501 13.516,12.544 13.536,12.547 13.573,12.553 13.622,12.485 13.609,12.448 13.593,12.403 13.597,12.396 13.695,12.297 13.784,12.208 13.786,12.206 13.816,12.207 13.837,12.208 13.853,12.201 13.869,12.185 13.881,12.173 13.901,12.161 13.913,12.159 13.946,12.155 14.921,11.179 14.921,11.151 14.921,11.140 14.918,11.128 14.914,11.124 14.879,11.089 15.052,10.893 15.123,10.887 15.152,10.884 15.164,10.877 15.196,10.846 15.221,10.821 15.243,10.806 15.260,10.802 15.302,10.793 16.244,9.838 16.237,9.811 16.219,9.746 16.222,9.741 16.327,9.643 16.414,9.563 16.428,9.553 16.451,9.552 16.474,9.551 16.486,9.543 16.537,9.492 16.579,9.450 16.602,9.432 16.617,9.430 16.641,9.427 17.043,9.031 17.300,8.759 17.430,8.620 17.430,8.620 17.430,8.620 17.420,8.589 17.420,8.589 17.420,8.589 17.409,8.558 17.409,8.558 17.409,8.558 17.511,8.457 17.511,8.457 17.511,8.457 17.603,8.364 17.615,8.354 17.641,8.351 17.666,8.348 17.679,8.338 17.741,8.276 17.841,8.176 17.854,8.174 17.941,8.246 17.992,8.289 18.016,8.293 18.213,8.303 18.591,8.320 18.614,8.350 18.412,8.552 18.299,8.665 18.283,8.684 18.285,8.700 18.289,8.750 18.261,8.793 18.160,8.890 18.080,8.967 17.307,9.740 16.945,10.107 16.890,10.162 16.592,10.461 16.282,10.771 15.972,11.082 15.715,11.345 15.710,11.356 15.698,11.382 15.527,11.553 15.502,11.564 15.490,11.569 15.245,11.815 14.927,12.140 14.265,12.815 14.204,12.876 14.090,12.979 14.008,13.053 14.003,13.060 13.998,13.089 13.993,13.125 13.971,13.150 13.947,13.148 13.925,13.146 13.910,13.161 13.921,13.172 13.939,13.190 13.934,13.291 13.914,13.311 13.904,13.322 13.896,13.338 13.897,13.348 13.899,13.373 13.536,13.737 13.510,13.734 13.501,13.734 13.485,13.740 13.475,13.750 13.458,13.768 13.380,13.775 13.338,13.762 13.318,13.756 13.268,13.804 12.956,14.139 12.863,14.240 12.863,14.240 12.863,14.240 12.826,14.238 12.826,14.238 12.826,14.238 12.791,14.236 12.791,14.236 12.791,14.236 12.626,14.400 12.626,14.400 12.626,14.400 12.403,14.623 12.405,14.624 12.400,14.303 12.396,14.065 12.354,13.812 12.311,13.769 12.264,13.722 12.267,13.712 12.379,13.600 12.478,13.501 12.478,13.501 12.478,13.501 12.523,13.510 12.523,13.510 12.523,13.510 12.589,13.523 12.588,13.523 12.803,13.301 12.996,13.101 12.996,13.101 12.996,13.101 12.965,13.067 12.965,13.067 12.965,13.067 12.935,13.032 12.935,13.032 12.935,13.032 12.911,13.056 12.911,13.056 12.911,13.056 12.898,13.069 12.877,13.082 12.866,13.083 12.831,13.088 12.706,13.216 12.677,13.277 12.648,13.338 12.540,13.450 12.491,13.470 12.446,13.489 11.350,14.582 11.344,14.615 11.337,14.648 11.193,14.803 11.158,14.815 11.118,14.827 9.999,15.946 9.979,15.993 9.961,16.038 9.814,16.188 9.776,16.201 9.736,16.214 8.790,17.169 8.767,17.220 8.746,17.267 8.589,17.422 8.557,17.427 8.509,17.436 8.464,17.501 8.483,17.534 8.511,17.580 8.510,17.582 8.340,17.752 8.196,17.896 8.186,17.907 8.197,17.917 8.221,17.942 8.214,17.953 8.050,18.117 7.954,18.213 7.878,18.282 7.857,18.295 7.827,18.313 7.822,18.320 7.821,18.338 7.820,18.356 7.798,18.380 7.659,18.521 7.570,18.610 7.464,18.722 7.421,18.768 7.344,18.853 7.344,18.853 7.344,18.853 7.352,18.921 7.352,18.921 7.352,18.921 7.356,18.958 7.367,19.041 7.376,19.106 7.392,19.223 7.392,19.223 7.392,19.223 7.360,19.255 7.360,19.255 7.360,19.255 7.329,19.286 7.329,19.286 7.329,19.286 7.147,19.286 7.147,19.286 7.147,19.286 7.048,19.286 6.962,19.291 6.957,19.297 6.951,19.302 6.951,19.369 6.956,19.445 6.969,19.657 6.970,19.645 6.932,19.683 6.899,19.717 6.899,19.717 6.899,19.717 6.714,19.717 6.714,19.717 6.714,19.717 6.530,19.717 6.530,19.717 6.530,19.717 6.532,19.797 6.532,19.797 6.532,19.797 6.533,19.840 6.535,19.922 6.538,19.977 6.543,20.077 6.543,20.077 6.543,20.077 6.508,20.117 6.508,20.117 6.508,20.117 6.468,20.164 6.481,20.162 6.245,20.148 6.173,20.144 6.108,20.143 6.102,20.146 6.096,20.148 6.098,20.222 6.108,20.324 6.125,20.508 6.125,20.513 6.089,20.549 6.055,20.585 6.035,20.588 5.897,20.579 5.827,20.574 5.738,20.571 5.698,20.571 5.627,20.572 5.627,20.572 5.627,20.572 5.355,20.852 5.355,20.852 5.355,20.852 5.061,21.153 5.054,21.159 5.001,21.148 4.972,21.142 4.827,21.040 4.734,20.959 4.670,20.904 4.670,20.904 4.670,20.904 4.574,20.994 4.574,20.994 4.574,20.994 4.477,21.085 4.477,21.085 4.477,21.085 4.283,21.118 4.283,21.118 4.283,21.118 4.176,21.136 4.086,21.147 4.084,21.142 4.081,21.137 4.094,21.045 4.112,20.936 4.144,20.739 4.144,20.739 4.144,20.739 4.233,20.647 4.233,20.647 4.233,20.647 4.321,20.555 4.321,20.555 4.321,20.555 4.267,20.491 4.267,20.491 4.267,20.491 4.068,20.261 4.059,20.212 4.202,20.088 4.275,20.024 4.881,19.417 5.569,18.717 5.973,18.306 6.005,18.271 6.005,18.251 6.005,18.225 6.237,17.985 6.273,17.974 6.289,17.970 6.293,17.964 6.294,17.943 6.294,17.929 6.302,17.904 6.311,17.889 6.328,17.862 6.328,17.862 6.328,17.862 5.936,17.463 5.936,17.463 5.936,17.463 5.107,16.619 4.699,16.213 4.628,16.166 4.556,16.118 4.409,15.966 4.406,15.936 4.405,15.927 4.416,15.904 4.431,15.884 4.453,15.856 4.456,15.845 4.449,15.828 4.444,15.817 4.441,15.803 4.443,15.797 4.444,15.791 4.436,15.777 4.424,15.766 4.413,15.754 4.405,15.738 4.406,15.728 4.409,15.697 4.386,15.644 4.352,15.601 4.334,15.578 4.317,15.551 4.314,15.542 4.310,15.527 4.320,15.514 4.402,15.432 4.513,15.322 4.516,15.321 4.571,15.376 4.609,15.414 4.655,15.438 4.685,15.435 4.695,15.434 4.710,15.440 4.718,15.448 4.751,15.482 4.824,15.494 4.855,15.471 4.912,15.430 4.909,15.428 5.009,15.528 5.074,15.593 5.110,15.634 5.142,15.685 5.184,15.751 5.211,15.779 5.999,16.568 6.814,17.383 6.814,17.383 6.814,17.383 6.827,17.370 6.827,17.370 6.827,17.370 6.847,17.350 6.872,17.345 6.901,17.358 6.940,17.374 6.937,17.377 7.286,17.020 7.638,16.660 7.615,16.678 7.667,16.718 7.705,16.747 7.705,16.747 7.705,16.747 7.749,16.703 7.749,16.703 7.749,16.703 7.892,16.558 8.029,16.420 8.473,15.975 8.744,15.702 9.008,15.432 9.059,15.374 9.123,15.303 9.165,15.262 9.192,15.244 9.221,15.226 9.402,15.044 9.859,14.576 10.204,14.222 10.501,13.919 10.519,13.902 10.650,13.778 11.696,12.721 11.696,12.713 11.697,12.698 11.606,12.775 11.559,12.831 11.504,12.895 11.458,12.910 11.406,12.881 11.327,12.839 11.108,12.808 10.889,12.809 10.561,12.811 10.559,12.807 10.833,12.530 10.937,12.424 10.941,12.420 10.944,12.388 10.948,12.345 11.020,12.258 11.112,12.186 11.222,12.100 11.428,11.889 11.419,11.871 11.416,11.863 11.412,11.841 11.412,11.823 11.412,11.805 11.411,11.782 11.410,11.772 11.409,11.762 11.415,11.747 11.423,11.739 11.432,11.730 11.443,11.710 11.448,11.693 11.460,11.655 11.784,11.324 11.823,11.310 11.836,11.306 11.858,11.295 11.872,11.284 11.890,11.271 11.905,11.268 11.920,11.274 11.932,11.278 11.949,11.278 11.958,11.273 11.966,11.268 11.982,11.270 11.993,11.276 12.016,11.290 12.028,11.280 12.026,11.248 12.024,11.218 12.042,11.201 12.074,11.202 12.099,11.203 12.103,11.200 12.206,11.087 12.265,11.023 12.339,10.945 12.373,10.914 12.599,10.697 13.568,9.717 13.623,9.649 13.673,9.588 13.704,9.557 13.774,9.500 13.846,9.442 13.963,9.325 14.415,8.860 15.027,8.232 15.012,8.248 15.381,7.888 15.527,7.745 15.768,7.501 15.928,7.333 16.343,6.895 16.346,6.892 16.415,6.885 16.457,6.880 16.457,6.880 16.457,6.880 16.586,6.750 16.586,6.750 16.586,6.750 16.672,6.664 16.713,6.624 16.738,6.619 Z M 16.719,6.724 C 16.690,6.724 16.535,6.879 16.544,6.900 16.554,6.921 16.753,7.118 16.762,7.116 16.784,7.111 16.747,6.749 16.722,6.724 16.722,6.723 16.720,6.724 16.719,6.724 Z M 16.175,7.193 C 15.727,7.638 15.727,7.638 15.727,7.638 15.481,7.882 15.280,8.086 15.280,8.091 15.280,8.095 15.366,8.186 15.472,8.291 15.664,8.484 15.664,8.484 15.664,8.484 16.073,8.074 16.073,8.074 16.073,8.074 16.481,7.666 16.481,7.666 16.481,7.666 16.518,7.661 16.518,7.661 16.518,7.661 16.544,7.657 16.560,7.650 16.574,7.634 16.592,7.611 16.592,7.611 16.592,7.611 16.384,7.402 16.384,7.402 16.384,7.402 Z M 17.854,8.276 C 17.841,8.277 17.825,8.291 17.773,8.343 17.701,8.415 17.701,8.415 17.701,8.415 17.914,8.624 17.914,8.624 17.914,8.624 18.125,8.833 18.125,8.833 18.125,8.833 18.151,8.811 18.151,8.811 18.151,8.811 18.186,8.781 18.211,8.735 18.216,8.686 18.221,8.643 18.221,8.643 18.221,8.643 18.335,8.529 18.335,8.529 18.335,8.529 18.397,8.467 18.448,8.412 18.447,8.407 18.444,8.394 18.310,8.373 18.196,8.369 17.986,8.361 17.952,8.354 17.910,8.312 17.894,8.296 17.873,8.281 17.863,8.278 17.860,8.277 17.857,8.276 17.854,8.276 Z M 14.966,8.415 C 14.440,8.938 14.440,8.938 14.440,8.938 13.924,9.450 13.913,9.462 13.919,9.480 13.927,9.506 14.262,9.841 14.289,9.849 14.309,9.855 14.309,9.855 14.309,9.855 14.796,9.358 14.796,9.358 14.796,9.358 15.284,8.861 15.284,8.861 15.284,8.861 15.328,8.856 15.328,8.856 15.328,8.856 15.407,8.848 15.409,8.852 15.174,8.620 Z M 17.496,8.664 C 17.080,9.080 17.080,9.080 17.080,9.080 16.756,9.404 16.661,9.495 16.649,9.495 16.639,9.495 16.612,9.517 16.569,9.560 16.505,9.624 16.505,9.624 16.505,9.624 16.713,9.832 16.713,9.832 16.713,9.832 16.949,10.068 16.929,10.056 16.977,9.986 16.994,9.960 17.178,9.768 17.444,9.497 17.882,9.050 17.882,9.050 17.882,9.050 17.689,8.857 17.689,8.857 17.689,8.857 Z M 20.089,8.848 C 19.953,8.901 19.823,8.963 19.693,9.026 19.563,9.088 19.435,9.166 19.314,9.238 19.064,9.376 18.820,9.522 18.583,9.675 18.546,9.696 18.510,9.717 18.473,9.738 18.475,9.795 18.477,9.851 18.479,9.907 18.493,10.291 18.524,10.673 18.566,11.054 17.897,11.135 17.230,11.224 16.563,11.325 16.378,11.353 16.378,11.353 16.378,11.353 16.368,11.405 16.357,11.457 16.347,11.509 16.296,11.766 16.261,12.026 16.228,12.286 16.195,12.551 16.176,12.817 16.173,13.083 16.308,12.853 16.430,12.616 16.537,12.372 16.617,12.188 16.696,12.002 16.769,11.817 17.490,11.769 18.212,11.706 18.935,11.627 19.035,11.617 19.135,11.606 19.235,11.595 19.225,11.493 19.216,11.392 19.206,11.290 19.163,10.850 19.103,10.412 19.028,9.975 19.196,9.821 19.362,9.664 19.522,9.499 19.625,9.401 19.717,9.290 19.817,9.187 19.916,9.084 20.006,8.969 20.089,8.848 Z M 13.626,9.761 C 13.107,10.279 13.107,10.279 13.107,10.279 12.712,10.675 12.588,10.803 12.588,10.815 12.588,10.837 12.947,11.194 12.965,11.190 12.972,11.189 13.201,10.963 13.474,10.687 13.971,10.187 13.971,10.187 13.971,10.187 14.002,10.187 14.002,10.187 14.002,10.187 14.019,10.188 14.035,10.186 14.038,10.184 14.041,10.181 13.949,10.085 13.835,9.970 Z M 16.319,9.861 C 16.303,9.863 16.219,9.944 15.808,10.363 15.365,10.813 15.309,10.869 15.293,10.867 15.280,10.866 15.263,10.878 15.227,10.915 15.178,10.964 15.178,10.964 15.178,10.964 15.387,11.173 15.387,11.173 15.387,11.173 15.597,11.383 15.597,11.383 15.597,11.383 15.632,11.340 15.632,11.340 15.632,11.340 15.651,11.316 15.898,11.063 16.180,10.776 16.503,10.449 16.694,10.250 16.695,10.241 16.697,10.224 16.343,9.866 16.319,9.861 16.319,9.861 16.319,9.861 16.319,9.861 Z M 12.309,11.097 C 12.304,11.099 12.242,11.157 12.171,11.227 12.042,11.355 12.042,11.355 12.042,11.355 11.973,11.350 11.973,11.350 11.973,11.350 11.930,11.347 11.900,11.350 11.891,11.358 11.884,11.365 11.866,11.374 11.853,11.378 11.833,11.383 11.800,11.414 11.692,11.523 11.496,11.721 11.484,11.740 11.489,11.845 11.493,11.913 11.493,11.913 11.493,11.913 11.370,12.040 11.370,12.040 11.370,12.040 11.246,12.167 11.246,12.167 11.246,12.167 11.435,12.357 11.435,12.357 11.435,12.357 11.626,12.547 11.626,12.547 11.626,12.547 11.834,12.338 11.834,12.338 11.834,12.338 12.042,12.130 12.042,12.130 12.042,12.130 12.076,12.127 12.076,12.127 12.076,12.127 12.109,12.124 12.114,12.121 12.190,12.045 12.265,11.970 12.270,11.964 12.274,11.930 12.280,11.888 12.482,11.672 12.533,11.653 12.551,11.647 12.556,11.641 12.556,11.630 12.556,11.612 12.668,11.499 12.682,11.503 12.688,11.504 12.696,11.501 12.701,11.496 12.711,11.486 12.326,11.094 12.309,11.097 Z M 14.997,11.188 C 14.482,11.708 14.482,11.708 14.482,11.708 14.013,12.181 13.965,12.227 13.948,12.226 13.929,12.224 13.908,12.239 13.908,12.254 13.908,12.271 14.297,12.651 14.313,12.650 14.323,12.649 14.479,12.494 14.856,12.111 15.383,11.575 15.383,11.575 15.383,11.575 15.190,11.381 15.190,11.381 15.190,11.381 Z M 13.477,11.234 C 13.460,11.233 13.443,11.233 13.427,11.234 13.362,11.238 13.306,11.255 13.269,11.287 13.246,11.307 13.246,11.307 13.246,11.307 13.392,11.459 13.392,11.459 13.392,11.459 13.539,11.612 13.539,11.612 13.539,11.612 13.427,11.727 13.427,11.727 13.427,11.727 13.365,11.791 13.313,11.842 13.312,11.842 13.310,11.841 13.234,11.771 13.143,11.683 12.978,11.525 12.978,11.525 12.978,11.525 12.851,11.647 12.851,11.647 12.851,11.647 12.771,11.725 12.718,11.773 12.705,11.777 12.689,11.782 12.683,11.788 12.682,11.801 12.678,11.845 12.446,12.040 12.389,12.046 12.340,12.052 12.204,12.192 12.196,12.245 12.193,12.265 12.182,12.289 12.173,12.298 12.165,12.307 12.156,12.323 12.155,12.335 12.153,12.351 12.131,12.376 12.067,12.441 11.959,12.549 11.953,12.523 12.139,12.713 12.293,12.870 12.293,12.870 12.293,12.870 12.190,12.977 12.190,12.977 12.190,12.977 12.087,13.083 12.087,13.083 12.087,13.083 11.933,12.928 11.933,12.928 11.933,12.928 11.846,12.842 11.771,12.773 11.763,12.771 11.739,12.766 10.644,13.869 10.647,13.896 10.649,13.909 10.689,13.954 10.801,14.065 10.953,14.217 10.953,14.217 10.953,14.217 10.837,14.330 10.837,14.330 10.837,14.330 10.722,14.441 10.722,14.441 10.722,14.441 10.563,14.289 10.563,14.289 10.563,14.289 10.404,14.136 10.404,14.136 10.404,14.136 9.845,14.693 9.845,14.693 9.845,14.693 9.537,14.999 9.280,15.257 9.275,15.267 9.265,15.284 9.267,15.285 9.417,15.439 9.569,15.595 9.569,15.595 9.569,15.595 9.460,15.706 9.460,15.706 9.460,15.706 9.351,15.819 9.351,15.819 9.351,15.819 9.195,15.666 9.195,15.666 9.195,15.666 9.039,15.513 9.039,15.513 9.039,15.513 8.554,15.995 8.554,15.995 8.554,15.995 8.288,16.259 8.065,16.484 8.059,16.493 8.048,16.511 8.049,16.511 8.198,16.663 8.348,16.816 8.348,16.816 8.348,16.816 8.232,16.931 8.232,16.931 8.232,16.931 8.116,17.047 8.116,17.047 8.116,17.047 7.965,16.898 7.965,16.898 7.965,16.898 7.813,16.749 7.813,16.749 7.813,16.749 7.776,16.781 7.776,16.781 7.776,16.781 7.732,16.818 7.690,16.822 7.649,16.795 7.624,16.779 7.624,16.779 7.624,16.779 7.288,17.108 7.288,17.108 7.288,17.108 6.953,17.437 6.953,17.437 6.953,17.437 6.910,17.433 6.910,17.433 6.910,17.433 6.887,17.432 6.861,17.435 6.851,17.440 6.825,17.455 6.783,17.449 6.757,17.427 6.733,17.408 6.733,17.408 6.733,17.408 6.543,17.594 6.543,17.594 6.543,17.594 6.438,17.697 6.355,17.784 6.357,17.786 6.398,17.837 6.406,17.890 6.377,17.919 6.332,17.964 6.393,18.052 6.489,18.080 6.518,18.088 6.545,18.099 6.550,18.104 6.565,18.118 4.511,20.167 4.484,20.165 4.473,20.164 4.421,20.151 4.369,20.136 4.275,20.109 4.275,20.109 4.275,20.109 4.228,20.157 4.228,20.157 4.228,20.157 4.136,20.248 4.161,20.288 4.547,20.674 4.947,21.074 5.005,21.112 5.090,21.026 5.175,20.941 5.175,20.939 5.125,20.797 5.081,20.674 5.081,20.674 5.081,20.674 6.208,19.548 6.208,19.548 6.208,19.548 7.332,18.422 7.332,18.422 7.332,18.422 7.410,18.410 7.410,18.410 7.410,18.410 7.740,18.358 7.756,18.353 7.752,18.307 7.751,18.293 7.758,18.283 7.786,18.262 7.806,18.247 7.889,18.169 7.971,18.090 8.121,17.947 8.121,17.947 8.121,17.947 8.120,17.910 8.120,17.910 8.120,17.910 8.119,17.873 8.119,17.873 8.119,17.873 8.266,17.725 8.266,17.725 8.266,17.725 8.414,17.578 8.414,17.578 8.414,17.578 8.406,17.540 8.406,17.540 8.406,17.540 8.396,17.493 8.405,17.463 8.439,17.428 8.466,17.401 8.466,17.401 8.466,17.401 8.308,17.243 8.308,17.243 8.308,17.243 8.194,17.129 8.150,17.082 8.150,17.071 8.150,17.061 8.182,17.025 8.254,16.953 8.326,16.881 8.362,16.849 8.372,16.849 8.383,16.849 8.431,16.893 8.545,17.007 8.703,17.165 8.703,17.165 8.703,17.165 9.198,16.670 9.198,16.670 9.198,16.670 9.643,16.224 9.691,16.174 9.686,16.162 9.682,16.154 9.612,16.080 9.528,15.997 9.396,15.864 9.378,15.843 9.383,15.831 9.395,15.804 9.578,15.628 9.594,15.628 9.604,15.628 9.651,15.671 9.763,15.783 9.917,15.937 9.917,15.937 9.917,15.937 9.935,15.926 9.935,15.926 9.935,15.926 9.944,15.920 10.200,15.661 10.505,15.352 11.058,14.790 11.058,14.790 11.058,14.790 10.902,14.631 10.902,14.631 10.902,14.631 10.719,14.443 10.723,14.481 10.870,14.340 10.971,14.242 10.971,14.242 10.971,14.242 11.127,14.392 11.127,14.392 11.127,14.392 11.212,14.474 11.288,14.542 11.295,14.544 11.307,14.546 12.412,13.437 12.413,13.421 12.413,13.418 12.345,13.344 12.262,13.258 12.112,13.101 12.112,13.101 12.112,13.101 12.200,13.009 12.200,13.009 12.200,13.009 12.330,12.873 12.296,12.868 12.479,13.048 12.635,13.201 12.635,13.201 12.635,13.201 12.730,13.110 12.730,13.110 12.730,13.110 12.798,13.044 12.830,13.018 12.843,13.017 12.853,13.016 12.879,13.007 12.901,12.997 12.923,12.987 12.946,12.981 12.953,12.984 12.971,12.992 13.139,12.823 13.137,12.798 13.129,12.715 13.288,12.497 13.367,12.483 13.389,12.479 13.391,12.477 13.392,12.458 13.393,12.441 13.414,12.416 13.516,12.311 13.638,12.185 13.638,12.185 13.638,12.185 13.485,12.026 13.485,12.026 13.485,12.026 13.333,11.867 13.333,11.867 13.333,11.867 13.448,11.752 13.448,11.752 13.448,11.752 13.564,11.637 13.564,11.637 13.564,11.637 13.707,11.777 13.707,11.777 13.707,11.777 13.851,11.917 13.851,11.917 13.851,11.917 13.869,11.898 13.869,11.898 13.869,11.898 13.978,11.790 13.941,11.510 13.800,11.369 13.725,11.294 13.725,11.294 13.725,11.294 13.643,11.267 13.643,11.267 13.643,11.267 13.586,11.248 13.530,11.236 13.477,11.234 Z M 12.548,11.727 C 12.529,11.727 12.354,11.901 12.347,11.926 12.337,11.963 12.382,11.989 12.409,11.963 12.422,11.950 12.442,11.938 12.454,11.937 12.481,11.933 12.607,11.810 12.607,11.787 12.607,11.778 12.598,11.762 12.585,11.749 12.573,11.737 12.556,11.727 12.548,11.727 Z M 12.079,12.193 C 11.881,12.391 11.881,12.391 11.881,12.391 11.680,12.592 11.676,12.597 11.694,12.615 11.700,12.621 11.706,12.639 11.708,12.655 11.713,12.694 11.710,12.696 11.908,12.508 12.057,12.367 12.076,12.346 12.081,12.323 12.083,12.309 12.094,12.290 12.104,12.280 12.132,12.252 12.132,12.229 12.103,12.210 Z M 10.996,12.472 C 10.865,12.599 10.865,12.599 10.865,12.599 10.793,12.669 10.736,12.730 10.737,12.734 10.738,12.739 10.817,12.743 10.913,12.743 11.009,12.743 11.130,12.748 11.182,12.756 11.235,12.763 11.281,12.768 11.284,12.764 11.287,12.761 11.227,12.697 11.143,12.615 Z M 13.694,12.503 C 13.637,12.557 13.637,12.557 13.637,12.557 13.605,12.587 13.570,12.615 13.559,12.619 13.544,12.624 13.537,12.631 13.532,12.648 13.520,12.686 13.316,12.895 13.284,12.902 13.248,12.910 13.070,13.087 13.065,13.121 13.063,13.139 13.030,13.174 12.832,13.369 12.601,13.597 12.601,13.597 12.601,13.597 12.796,13.791 12.796,13.791 12.796,13.791 12.990,13.986 12.990,13.986 12.990,13.986 13.138,13.838 13.138,13.838 13.138,13.838 13.286,13.691 13.286,13.691 13.286,13.691 13.357,13.693 13.357,13.693 13.357,13.693 13.401,13.695 13.438,13.690 13.452,13.681 13.465,13.673 13.482,13.667 13.491,13.666 13.513,13.663 13.826,13.350 13.828,13.328 13.829,13.319 13.837,13.301 13.846,13.287 13.855,13.273 13.860,13.249 13.857,13.229 13.855,13.211 13.852,13.182 13.851,13.164 13.849,13.131 13.849,13.131 13.849,13.131 13.957,13.021 13.957,13.021 13.957,13.021 14.016,12.960 14.069,12.905 14.073,12.897 14.080,12.883 14.067,12.869 13.887,12.693 Z M 13.391,12.554 C 13.363,12.558 13.238,12.684 13.233,12.715 13.232,12.726 13.221,12.746 13.210,12.757 13.189,12.778 13.189,12.778 13.189,12.778 13.224,12.809 13.224,12.809 13.224,12.809 13.258,12.840 13.258,12.840 13.258,12.840 13.359,12.743 13.359,12.743 13.359,12.743 13.478,12.628 13.484,12.594 13.395,12.554 13.394,12.554 13.393,12.554 13.391,12.554 Z M 12.427,13.846 C 12.422,13.847 12.427,13.895 12.439,13.953 12.459,14.057 12.466,14.149 12.469,14.341 12.469,14.407 12.475,14.443 12.483,14.445 12.496,14.448 12.745,14.191 12.750,14.169 12.752,14.164 12.682,14.090 12.594,14.001 12.507,13.915 12.432,13.844 12.427,13.846 Z M 15.612,15.197 C 15.612,17.885 15.612,17.885 15.612,17.885 12.924,17.885 12.924,17.885 12.924,17.885 12.924,18.605 12.924,18.605 12.924,18.605 15.612,18.605 15.612,18.605 15.612,18.605 15.612,21.294 15.612,21.294 15.612,21.294 16.332,21.294 16.332,21.294 16.332,21.294 16.332,18.605 16.332,18.605 16.332,18.605 19.020,18.605 19.020,18.605 19.020,18.605 19.020,17.885 19.020,17.885 19.020,17.885 16.332,17.885 16.332,17.885 16.332,17.885 16.332,15.197 16.332,15.197 16.332,15.197 Z M 4.466,15.474 C 4.464,15.475 4.457,15.481 4.448,15.490 4.432,15.506 4.428,15.513 4.437,15.507 4.446,15.500 4.458,15.488 4.464,15.479 4.467,15.475 4.467,15.474 4.466,15.474 Z M 4.567,15.478 C 4.543,15.481 4.442,15.568 4.442,15.588 4.442,15.620 4.460,15.611 4.521,15.550 4.578,15.493 4.583,15.487 4.571,15.479 4.570,15.478 4.569,15.478 4.567,15.478 Z M 4.902,15.526 C 4.877,15.543 4.877,15.543 4.877,15.543 4.849,15.560 4.785,15.566 4.771,15.552 4.766,15.547 4.748,15.541 4.731,15.538 4.700,15.533 4.700,15.533 4.700,15.533 4.599,15.634 4.599,15.634 4.599,15.634 4.498,15.735 4.498,15.735 4.498,15.735 4.512,15.783 4.512,15.783 4.512,15.783 4.528,15.837 4.526,15.882 4.506,15.902 4.484,15.924 4.490,15.942 4.532,15.984 4.571,16.025 4.571,16.025 4.571,16.025 4.780,15.815 4.780,15.815 4.780,15.815 4.988,15.606 4.988,15.606 4.988,15.606 4.945,15.566 4.945,15.566 4.945,15.566 Z M 5.107,15.769 C 4.916,15.956 4.916,15.956 4.916,15.956 4.726,16.143 4.726,16.143 4.726,16.143 4.804,16.217 4.804,16.217 4.804,16.217 4.882,16.292 4.882,16.292 4.882,16.292 5.063,16.114 5.063,16.114 5.063,16.114 5.281,15.900 5.272,15.925 5.178,15.836 Z M 5.380,16.044 C 5.351,16.047 4.997,16.398 5.005,16.416 5.008,16.422 5.045,16.460 5.087,16.500 5.162,16.573 5.162,16.573 5.162,16.573 5.344,16.394 5.344,16.394 5.344,16.394 5.473,16.268 5.526,16.212 5.527,16.201 5.529,16.184 5.410,16.057 5.381,16.044 5.380,16.044 5.380,16.044 5.380,16.044 Z M 5.649,16.317 C 5.462,16.504 5.462,16.504 5.462,16.504 5.275,16.691 5.275,16.691 5.275,16.691 5.286,16.709 5.286,16.709 5.286,16.709 5.292,16.718 5.321,16.749 5.351,16.777 5.406,16.828 5.406,16.828 5.406,16.828 5.596,16.641 5.596,16.641 5.596,16.641 5.786,16.454 5.786,16.454 5.786,16.454 5.718,16.386 5.718,16.386 5.718,16.386 Z M 5.910,16.579 C 5.724,16.765 5.724,16.765 5.724,16.765 5.622,16.867 5.538,16.954 5.538,16.959 5.538,16.978 5.691,17.120 5.705,17.114 5.712,17.110 5.795,17.031 5.888,16.938 6.100,16.726 6.089,16.758 5.991,16.660 Z M 6.178,16.853 C 5.997,17.033 5.997,17.033 5.997,17.033 5.896,17.132 5.813,17.217 5.811,17.223 5.803,17.241 5.949,17.383 5.967,17.375 5.987,17.366 6.324,17.026 6.328,17.011 6.330,17.002 6.311,16.980 6.254,16.926 Z M 6.453,17.127 C 6.263,17.314 6.263,17.314 6.263,17.314 6.072,17.502 6.072,17.502 6.072,17.502 6.160,17.585 6.160,17.585 6.160,17.585 6.247,17.669 6.247,17.669 6.247,17.669 6.434,17.483 6.434,17.483 6.434,17.483 6.621,17.296 6.621,17.296 6.621,17.296 6.537,17.211 6.537,17.211 6.537,17.211 Z M 6.399,18.110 C 6.351,18.116 6.318,18.182 6.347,18.212 6.360,18.224 6.415,18.218 6.430,18.203 6.468,18.165 6.451,18.108 6.404,18.110 6.402,18.110 6.401,18.110 6.399,18.110 Z M 7.338,18.502 C 7.281,18.505 7.251,18.567 7.288,18.605 7.307,18.624 7.356,18.623 7.375,18.604 7.409,18.571 7.383,18.499 7.338,18.502 Z M 4.543,19.985 C 4.530,19.986 4.516,19.993 4.505,20.004 4.462,20.047 4.506,20.109 4.563,20.084 4.609,20.063 4.598,19.987 4.548,19.985 4.546,19.985 4.544,19.984 4.543,19.985 Z M 5.236,20.639 C 5.207,20.641 5.170,20.678 5.172,20.706 5.174,20.755 5.234,20.775 5.271,20.738 5.308,20.701 5.285,20.637 5.236,20.639 Z " />
</svg>