<?xml version="1.0" encoding="UTF-8" standalone="no"?>
<!DOCTYPE svg PUBLIC "-//W3C//DTD SVG 20010904//EN" "http://www.w3.org/TR/2001/REC-SVG-20010904/DTD/svg10.dtd"[]>
<svg version="1.1" id="Frosty Editor v1.0.6.3" xmlns="http://www.w3.org/2000/svg" d1p1:xlink="http://www.w3.org/1999/xlink" viewBox="0 0 96 96" xmlns:d1p1="xmlns">
  <path stroke="none" fill="none" d="M 48.800,64.080 C 46.012,64.079 43.274,63.345 40.860,61.950 45.807,58.863 50.753,55.777 55.700,52.690 53.320,52.460 50.940,52.230 48.560,52.000 48.810,51.737 49.060,51.473 49.310,51.210 49.330,51.210 49.350,51.210 49.370,51.210 52.610,47.817 55.850,44.423 59.090,41.030 57.170,40.850 55.250,40.670 53.330,40.490 54.887,38.660 56.443,36.830 58.000,35.000 63.700,39.015 66.143,46.259 64.040,52.906 61.937,59.553 55.772,64.074 48.800,64.080 48.800,64.080 48.800,64.080 48.800,64.080 Z M 32.800,48.080 C 32.803,42.507 35.705,37.337 40.461,34.433 45.217,31.528 51.141,31.307 56.100,33.850 51.400,36.787 46.700,39.723 42.000,42.660 44.380,42.883 46.760,43.107 49.140,43.330 48.890,43.593 48.640,43.857 48.390,44.120 48.360,44.120 48.330,44.120 48.300,44.120 45.060,47.513 41.820,50.907 38.580,54.300 40.500,54.480 42.420,54.660 44.340,54.840 42.627,56.840 40.913,58.840 39.200,60.840 35.182,57.827 32.813,53.102 32.800,48.080 32.800,48.080 32.800,48.080 32.800,48.080 Z M 48.800,23.080 C 38.688,23.080 29.573,29.171 25.703,38.513 21.833,47.855 23.972,58.608 31.122,65.758 38.272,72.908 49.025,75.047 58.367,71.177 67.709,67.307 73.800,58.192 73.800,48.080 73.800,41.450 71.166,35.091 66.478,30.402 61.789,25.714 55.430,23.080 48.800,23.080 48.800,23.080 48.800,23.080 48.800,23.080 Z " />
  <path stroke="none" fill="none" d="M 48.800,74.080 C 38.284,74.080 28.803,67.745 24.779,58.030 20.755,48.314 22.979,37.131 30.415,29.695 37.851,22.259 49.034,20.035 58.750,24.059 68.465,28.083 74.800,37.564 74.800,48.080 74.800,54.976 72.061,61.589 67.185,66.465 62.309,71.341 55.696,74.080 48.800,74.080 48.800,74.080 48.800,74.080 48.800,74.080 Z M 48.800,19.080 C 37.071,19.080 26.496,26.146 22.007,36.982 17.519,47.819 20.000,60.292 28.294,68.586 36.588,76.880 49.061,79.361 59.898,74.873 70.734,70.384 77.800,59.809 77.800,48.080 77.800,40.389 74.745,33.012 69.306,27.574 63.868,22.135 56.491,19.080 48.800,19.080 48.800,19.080 48.800,19.080 48.800,19.080 Z " />
  <path stroke="none" fill="#ffffffff" d="M 48.800,77.080 C 37.071,77.080 26.496,70.014 22.008,59.178 17.519,48.341 20.000,35.868 28.294,27.574 36.588,19.280 49.061,16.799 59.898,21.288 70.734,25.776 77.800,36.351 77.800,48.080 77.800,55.771 74.745,63.148 69.306,68.586 63.868,74.025 56.491,77.080 48.800,77.080 48.800,77.080 48.800,77.080 48.800,77.080 Z M 48.800,16.080 C 35.857,16.080 24.189,23.877 19.236,35.834 14.283,47.792 17.021,61.555 26.173,70.707 35.325,79.859 49.088,82.597 61.046,77.644 73.003,72.691 80.800,61.023 80.800,48.080 80.800,39.593 77.429,31.454 71.427,25.453 65.426,19.451 57.287,16.080 48.800,16.080 48.800,16.080 48.800,16.080 48.800,16.080 Z " />
  <path stroke="none" fill="#ffffffff" d="M 48.800,73.080 C 38.688,73.080 29.573,66.989 25.703,57.647 21.833,48.305 23.972,37.552 31.122,30.402 38.272,23.252 49.025,21.113 58.367,24.983 67.709,28.853 73.800,37.968 73.800,48.080 73.800,54.710 71.166,61.069 66.478,65.758 61.789,70.446 55.430,73.080 48.800,73.080 48.800,73.080 48.800,73.080 48.800,73.080 Z M 48.800,22.080 C 38.284,22.080 28.803,28.415 24.779,38.130 20.755,47.846 22.979,59.029 30.415,66.465 37.851,73.901 49.034,76.125 58.750,72.101 68.465,68.077 74.800,58.596 74.800,48.080 74.800,41.184 72.061,34.571 67.185,29.695 62.309,24.819 55.696,22.080 48.800,22.080 48.800,22.080 48.800,22.080 48.800,22.080 Z " />
  <path stroke="none" fill="#ffffffff" d="M 38.580,54.300 C 41.820,50.907 45.060,47.513 48.300,44.120 48.320,44.120 48.340,44.120 48.360,44.120 48.610,43.857 48.860,43.593 49.110,43.330 46.740,43.107 44.370,42.883 42.000,42.660 46.700,39.723 51.400,36.787 56.100,33.850 48.728,30.185 39.779,32.712 35.413,39.692 31.046,46.671 32.689,55.824 39.210,60.850 40.923,58.850 42.637,56.850 44.350,54.850 42.427,54.667 40.503,54.483 38.580,54.300 Z " />
  <path stroke="none" fill="#ffffffff" d="M 58.000,35.000 C 56.437,36.833 54.873,38.667 53.310,40.500 55.230,40.680 57.150,40.860 59.070,41.040 55.837,44.440 52.603,47.840 49.370,51.240 49.350,51.240 49.330,51.240 49.310,51.240 49.060,51.503 48.810,51.767 48.560,52.030 50.940,52.253 53.320,52.477 55.700,52.700 50.753,55.783 45.807,58.867 40.860,61.950 48.259,66.036 57.560,63.662 62.096,56.530 66.632,49.398 64.838,39.968 58.000,35.000 58.000,35.000 58.000,35.000 58.000,35.000 Z " />
</svg>