<?xml version="1.0" encoding="UTF-8" standalone="no"?>
<!DOCTYPE svg PUBLIC "-//W3C//DTD SVG 20010904//EN" "http://www.w3.org/TR/2001/REC-SVG-20010904/DTD/svg10.dtd"[]>
<svg version="1.1" id="Frosty Editor v1.0.6.3" xmlns="http://www.w3.org/2000/svg" d1p1:xlink="http://www.w3.org/1999/xlink" viewBox="0 0 96 96" xmlns:d1p1="xmlns">
  <path stroke="none" fill="none" d="M 72.400,36.200 C 68.367,38.533 64.333,40.867 60.300,43.200 59.400,43.800 58.100,43.500 57.500,42.600 56.900,41.700 57.200,40.400 58.100,39.800 58.133,39.767 58.167,39.733 58.200,39.700 62.233,37.367 66.267,35.033 70.300,32.700 71.200,32.100 72.500,32.400 73.100,33.300 73.700,34.200 73.400,35.500 72.500,36.100 72.500,36.200 72.400,36.200 72.400,36.200 72.400,36.200 72.400,36.200 72.400,36.200 72.400,36.200 72.400,36.200 72.400,36.200 Z M 59.800,59.800 C 58.700,60.900 57.400,61.900 56.000,62.700 56.000,62.133 56.000,61.567 56.000,61.000 57.000,60.400 57.900,59.600 58.800,58.800 61.600,56.000 63.100,52.300 63.200,48.500 63.200,48.500 63.200,48.500 63.200,48.500 63.700,48.233 64.200,47.967 64.700,47.700 64.800,52.200 63.100,56.600 59.800,59.800 59.800,59.800 59.800,59.800 59.800,59.800 Z M 55.300,34.600 C 50.800,32.200 45.300,32.200 40.800,34.600 40.800,34.600 40.800,34.600 40.800,34.600 40.300,34.333 39.800,34.067 39.300,33.800 44.700,30.500 51.400,30.500 56.800,33.800 56.300,34.067 55.800,34.333 55.300,34.600 55.300,34.600 55.300,34.600 55.300,34.600 55.300,34.600 55.300,34.600 55.300,34.600 Z M 50.100,50.100 C 48.900,51.300 47.000,51.300 45.900,50.100 44.700,48.900 44.700,47.000 45.900,45.900 47.100,44.700 49.000,44.700 50.100,45.900 50.100,45.900 50.100,45.900 50.100,45.900 51.300,47.100 51.300,48.900 50.100,50.100 50.100,50.100 50.100,50.100 50.100,50.100 Z M 50.000,75.000 C 50.000,76.100 49.100,77.100 48.000,77.100 46.900,77.100 46.000,76.100 46.000,75.000 46.000,70.333 46.000,65.667 46.000,61.000 46.000,59.900 46.900,59.000 48.000,59.000 49.100,59.000 50.000,59.900 50.000,61.000 50.000,65.667 50.000,70.333 50.000,75.000 50.000,75.000 50.000,75.000 50.000,75.000 Z M 40.000,61.000 C 40.000,61.567 40.000,62.133 40.000,62.700 34.500,59.700 31.100,53.900 31.300,47.600 31.800,47.867 32.300,48.133 32.800,48.400 32.800,48.400 32.800,48.400 32.800,48.400 32.900,53.600 35.600,58.300 40.000,61.000 40.000,61.000 40.000,61.000 40.000,61.000 Z M 23.600,36.200 C 22.700,35.600 22.400,34.400 23.000,33.400 23.600,32.500 24.700,32.200 25.600,32.700 29.633,35.033 33.667,37.367 37.700,39.700 38.600,40.300 38.900,41.500 38.300,42.500 37.700,43.400 36.600,43.700 35.700,43.200 31.667,40.867 27.633,38.533 23.600,36.200 23.600,36.200 23.600,36.200 23.600,36.200 Z M 71.300,24.600 C 58.400,11.700 37.500,11.700 24.600,24.600 11.700,37.500 11.700,58.400 24.600,71.300 37.500,84.200 58.400,84.200 71.200,71.300 84.100,58.600 84.200,37.800 71.500,24.900 71.500,24.900 71.400,24.800 71.300,24.600 71.300,24.600 71.300,24.600 71.300,24.600 Z " />
  <path stroke="none" fill="#ffffffff" d="M 48.000,45.000 C 46.300,45.000 45.000,46.300 45.000,48.000 45.000,49.700 46.300,51.000 48.000,51.000 49.700,51.000 51.000,49.700 51.000,48.000 51.000,47.200 50.700,46.400 50.100,45.900 49.600,45.300 48.800,45.000 48.000,45.000 48.000,45.000 48.000,45.000 48.000,45.000 Z " />
  <path stroke="none" fill="#ffffffff" d="M 48.000,31.300 C 44.900,31.300 41.900,32.200 39.300,33.800 39.800,34.067 40.300,34.333 40.800,34.600 40.800,34.600 40.800,34.600 40.800,34.600 45.300,32.200 50.800,32.200 55.300,34.600 55.300,34.600 55.300,34.600 55.300,34.600 55.800,34.333 56.300,34.067 56.800,33.800 54.100,32.100 51.100,31.300 48.000,31.300 48.000,31.300 48.000,31.300 48.000,31.300 Z " />
  <path stroke="none" fill="#ffffffff" d="M 32.800,48.500 C 32.800,48.500 32.800,48.500 32.800,48.500 32.300,48.233 31.800,47.967 31.300,47.700 31.100,54.000 34.500,59.800 40.000,62.800 40.000,62.200 40.000,61.600 40.000,61.000 35.600,58.300 32.900,53.600 32.800,48.500 32.800,48.500 32.800,48.500 32.800,48.500 32.800,48.500 32.800,48.500 32.800,48.500 Z " />
  <path stroke="none" fill="#ffffffff" d="M 63.200,48.500 C 63.100,52.400 61.500,56.100 58.800,58.800 57.900,59.600 57.000,60.400 56.000,61.000 56.000,61.600 56.000,62.200 56.000,62.800 61.500,59.800 64.900,54.000 64.700,47.700 64.200,47.967 63.700,48.233 63.200,48.500 63.200,48.500 63.200,48.500 63.200,48.500 63.200,48.500 63.200,48.500 63.200,48.500 Z " />
  <path stroke="none" fill="#ffffffff" d="M 71.300,71.300 C 58.400,84.200 37.500,84.200 24.600,71.300 11.700,58.400 11.700,37.500 24.600,24.600 37.500,11.700 58.400,11.700 71.200,24.600 84.100,37.300 84.200,58.100 71.500,71.000 71.500,71.100 71.400,71.200 71.300,71.300 71.300,71.300 71.300,71.300 71.300,71.300 Z M 73.500,22.500 C 59.400,8.400 36.600,8.400 22.500,22.400 8.400,36.400 8.400,59.300 22.400,73.400 36.400,87.500 59.300,87.500 73.400,73.500 80.200,66.800 84.000,57.600 84.000,48.000 84.000,38.400 80.200,29.300 73.500,22.500 73.500,22.500 73.500,22.500 73.500,22.500 Z " />
  <path stroke="none" fill="#ffffffff" d="M 48.000,59.000 C 46.900,59.000 46.000,59.900 46.000,61.000 46.000,65.667 46.000,70.333 46.000,75.000 46.000,76.100 46.900,77.100 48.000,77.100 49.100,77.100 50.000,76.100 50.000,75.000 50.000,70.333 50.000,65.667 50.000,61.000 50.000,59.900 49.100,59.000 48.000,59.000 48.000,59.000 48.000,59.000 48.000,59.000 Z " />
  <path stroke="none" fill="#ffffffff" d="M 38.500,42.500 C 39.100,41.500 38.700,40.300 37.800,39.800 33.767,37.467 29.733,35.133 25.700,32.800 24.700,32.300 23.500,32.700 23.000,33.600 22.500,34.500 22.800,35.700 23.700,36.200 27.733,38.533 31.767,40.867 35.800,43.200 36.700,43.800 37.900,43.500 38.500,42.500 38.500,42.500 38.500,42.500 38.500,42.500 Z " />
  <path stroke="none" fill="#ffffffff" d="M 73.100,33.500 C 72.500,32.500 71.300,32.200 70.400,32.800 66.367,35.133 62.333,37.467 58.300,39.800 57.300,40.300 56.900,41.500 57.500,42.500 58.000,43.500 59.200,43.900 60.200,43.300 60.233,43.267 60.267,43.233 60.300,43.200 64.333,40.867 68.367,38.533 72.400,36.200 73.300,35.700 73.700,34.500 73.100,33.500 73.100,33.500 73.100,33.500 73.100,33.500 Z " />
</svg>