<?xml version="1.0" encoding="UTF-8" standalone="no"?>
<!DOCTYPE svg PUBLIC "-//W3C//DTD SVG 20010904//EN" "http://www.w3.org/TR/2001/REC-SVG-20010904/DTD/svg10.dtd"[]>
<svg version="1.1" id="Frosty Editor v1.0.6.3" xmlns="http://www.w3.org/2000/svg" d1p1:xlink="http://www.w3.org/1999/xlink" viewBox="0 0 384 96" xmlns:d1p1="xmlns">
  <path stroke="#ffffffff" fill="none" stroke-width="2" d="M 99.700,11.400 C 98.200,11.400 96.900,13.000 96.900,13.600 93.400,13.600 89.000,19.800 89.000,22.800 89.000,25.800 89.000,24.000 89.000,24.000 87.800,25.300 86.600,26.600 85.400,27.900 85.567,28.800 85.733,29.700 85.900,30.600 85.900,30.600 88.400,29.400 91.800,29.300 95.100,29.200 100.000,35.500 97.000,41.800 94.000,48.100 79.700,65.800 77.000,76.000 75.400,82.100 74.000,89.900 74.000,89.900 73.800,90.500 74.300,91.100 74.900,91.100 76.400,91.100 77.900,91.100 79.400,91.100 78.933,92.067 78.467,93.033 78.000,94.000 79.733,94.000 81.467,94.000 83.200,94.000 83.433,93.667 83.667,93.333 83.900,93.000 91.167,92.933 98.433,92.867 105.700,92.800 106.200,92.800 106.300,92.100 105.900,92.000 104.933,91.767 103.967,91.533 103.000,91.300 108.233,79.733 113.467,68.167 118.700,56.600 120.500,52.600 124.500,50.000 128.900,50.000 135.233,50.000 141.567,50.000 147.900,50.000 151.900,50.000 155.100,46.800 155.100,42.900 155.100,42.900 155.100,42.900 155.100,42.900 155.100,41.500 155.100,40.100 155.100,38.700 155.100,35.000 158.100,32.000 161.800,32.000 169.533,32.000 177.267,32.000 185.000,32.000 185.000,31.000 185.000,30.000 185.000,29.000 185.667,29.000 186.333,29.000 187.000,29.000 189.333,29.133 191.667,29.267 194.000,29.400 194.000,27.800 194.000,26.200 194.000,24.600 191.467,24.700 188.933,24.800 186.400,24.900 185.600,24.900 184.800,24.900 184.000,24.900 184.000,24.233 184.000,23.567 184.000,22.900 198.333,22.900 212.667,22.900 227.000,22.900 227.000,23.300 227.000,23.700 227.000,24.100 227.000,25.100 227.800,25.900 228.800,25.900 239.867,25.900 250.933,25.900 262.000,25.900 262.000,25.567 262.000,25.233 262.000,24.900 263.333,24.900 264.667,24.900 266.000,24.900 266.000,25.467 266.000,26.033 266.000,26.600 269.867,27.033 273.733,27.467 277.600,27.900 281.400,27.900 285.200,27.900 289.000,27.900 289.000,27.233 289.000,26.567 289.000,25.900 295.000,25.900 301.000,25.900 307.000,25.900 308.000,25.233 309.000,24.567 310.000,23.900 310.000,21.133 310.000,18.367 310.000,15.600 309.000,14.667 308.000,13.733 307.000,12.800 301.000,12.933 295.000,13.067 289.000,13.200 289.000,12.467 289.000,11.733 289.000,11.000 285.200,11.000 281.400,11.000 277.600,11.000 274.067,11.867 270.533,12.733 267.000,13.600 267.000,14.067 267.000,14.533 267.000,15.000 265.667,15.000 264.333,15.000 263.000,15.000 263.000,14.667 263.000,14.333 263.000,14.000 251.667,14.000 240.333,14.000 229.000,14.000 229.000,12.333 229.000,10.667 229.000,9.000 226.300,9.000 223.600,9.000 220.900,9.000 220.067,6.467 219.233,3.933 218.400,1.400 215.800,2.133 213.200,2.867 210.600,3.600 211.567,7.033 212.533,10.467 213.500,13.900 178.667,13.900 143.833,13.900 109.000,13.900 109.000,13.233 109.000,12.567 109.000,11.900 " />
  <path stroke="#ffffffff" fill="none" stroke-width="1" d="M 77.200,91.300 C 77.200,91.300 78.500,83.700 80.100,77.800 82.700,67.900 94.700,51.700 97.600,45.700 100.500,39.600 96.000,33.300 94.300,32.200 92.600,31.100 88.200,29.000 89.400,26.400 " />
  <path stroke="#ffffffff" fill="none" stroke-width="1" d="M 98.300,90.600 C 103.567,78.967 108.833,67.333 114.100,55.700 115.900,51.700 118.500,48.000 126.300,45.200 126.300,45.200 124.900,40.500 125.200,37.700 125.800,33.200 131.700,30.800 132.400,29.000 133.000,27.400 131.800,25.500 130.100,25.500 128.400,25.500 108.500,25.500 108.500,25.500 " />
  <path stroke="#ffffffff" fill="none" stroke-width="2" d="M 110.000,9.000 C 110.000,11.761 107.761,14.000 105.000,14.000 102.239,14.000 100.000,11.761 100.000,9.000 100.000,6.239 102.239,4.000 105.000,4.000 107.761,4.000 110.000,6.239 110.000,9.000 110.000,9.000 110.000,9.000 110.000,9.000 Z " />
  <path stroke="#ffffffff" fill="none" stroke-width="1" d="M 135.500,14.500 C 135.500,15.833 135.500,17.167 135.500,18.500 150.867,18.500 166.233,18.500 181.600,18.500 182.700,18.500 183.500,19.400 183.500,20.400 183.500,22.433 183.500,24.467 183.500,26.500 " />
  <path stroke="#ffffffff" fill="none" stroke-width="1" d="M 179.500,23.500 C 177.467,23.500 175.433,23.500 173.400,23.500 172.900,23.500 172.400,23.100 172.400,22.500 172.400,22.467 172.400,22.433 172.400,22.400 172.400,21.900 172.800,21.400 173.400,21.400 175.433,21.400 177.467,21.400 179.500,21.400 180.000,21.400 180.500,21.800 180.500,22.400 180.500,22.433 180.500,22.467 180.500,22.500 180.500,23.100 180.100,23.500 179.500,23.500 179.500,23.500 179.500,23.500 179.500,23.500 Z " />
  <path stroke="#ffffffff" fill="none" stroke-width="1" d="M 95.500,14.500 C 97.500,14.500 99.500,14.500 101.500,14.500 101.500,18.500 101.500,22.500 101.500,26.500 103.833,26.500 106.167,26.500 108.500,26.500 108.500,22.167 108.500,17.833 108.500,13.500 " />
  <path stroke="#ffffffff" fill="none" stroke-width="1" d="M 89.500,25.500 C 93.500,25.500 97.500,25.500 101.500,25.500 " />
  <path stroke="#ffffffff" fill="none" stroke-width="1" d="M 99.500,18.500 C 99.500,20.833 99.500,23.167 99.500,25.500 " />
  <path stroke="#ffffffff" fill="none" stroke-width="1" d="M 97.500,18.500 C 97.500,20.833 97.500,23.167 97.500,25.500 " />
  <path stroke="#ffffffff" fill="none" stroke-width="1" d="M 95.500,18.500 C 95.500,20.833 95.500,23.167 95.500,25.500 " />
  <path stroke="#ffffffff" fill="none" stroke-width="1" d="M 93.500,18.500 C 93.500,20.833 93.500,23.167 93.500,25.500 " />
  <path stroke="#ffffffff" fill="none" stroke-width="1" d="M 288.500,13.500 C 288.500,17.833 288.500,22.167 288.500,26.500 " />
  <path stroke="#ffffffff" fill="none" stroke-width="1" d="M 266.500,15.500 C 266.500,18.500 266.500,21.500 266.500,24.500 " />
  <path stroke="#ffffffff" fill="none" stroke-width="1" d="M 262.500,15.500 C 262.500,18.500 262.500,21.500 262.500,24.500 " />
  <path stroke="#ffffffff" fill="none" stroke-width="1" d="M 220.800,9.500 C 218.100,10.200 215.400,10.900 212.700,11.600 " />
  <path stroke="#ffffffff" fill="none" stroke-width="1" d="M 218.500,24.500 C 218.500,21.167 218.500,17.833 218.500,14.500 216.833,14.500 215.167,14.500 213.500,14.500 " />
  <path stroke="#ffffffff" fill="none" stroke-width="1" d="M 146.700,49.500 C 144.167,49.500 141.633,49.500 139.100,49.500 134.400,49.500 130.600,45.700 130.600,41.000 130.600,41.000 130.600,41.000 130.600,41.000 130.600,36.300 134.400,32.500 139.100,32.500 141.633,32.500 144.167,32.500 146.700,32.500 151.400,32.500 155.200,36.300 155.200,41.000 155.200,41.000 155.200,41.000 155.200,41.000 155.200,45.700 151.400,49.500 146.700,49.500 146.700,49.500 146.700,49.500 146.700,49.500 Z " />
  <path stroke="#ffffffff" fill="none" stroke-width="1" d="M 145.400,32.700 C 141.700,32.700 136.200,36.300 136.200,40.800 136.200,44.600 139.200,47.500 140.800,48.300 138.100,47.900 132.500,44.600 130.500,42.000 " />
  <path stroke="#ffffffff" fill="none" stroke-width="2" d="M 304.900,18.600 C 302.567,16.900 300.233,15.200 297.900,13.500 " />
  <path stroke="#ffffffff" fill="none" stroke-width="1" d="M 220.500,14.500 C 223.167,14.500 225.833,14.500 228.500,14.500 228.500,16.833 228.500,19.167 228.500,21.500 " />
  <path stroke="#ffffffff" fill="none" stroke-width="1" d="M 148.500,15.000 C 148.500,16.000 148.500,17.000 148.500,18.000 " />
</svg>