<?xml version="1.0" encoding="UTF-8" standalone="no"?>
<!DOCTYPE svg PUBLIC "-//W3C//DTD SVG 20010904//EN" "http://www.w3.org/TR/2001/REC-SVG-20010904/DTD/svg10.dtd"[]>
<svg version="1.1" id="Frosty Editor v1.0.6.3" xmlns="http://www.w3.org/2000/svg" d1p1:xlink="http://www.w3.org/1999/xlink" viewBox="0 0 384 96" xmlns:d1p1="xmlns">
  <path stroke="none" fill="#ffffffff" d="M 308.963,16.027 C 308.963,11.383 308.963,11.383 308.963,11.383 306.107,11.383 306.107,11.383 306.107,11.383 306.107,9.980 306.107,9.980 306.107,9.980 305.658,9.980 305.658,9.980 305.658,9.980 305.648,8.472 305.648,8.472 305.648,8.472 303.748,8.485 303.748,8.485 303.748,8.485 303.758,9.980 303.758,9.980 303.758,9.980 301.563,9.980 301.563,9.980 301.563,9.980 301.553,8.472 301.553,8.472 301.553,8.472 299.653,8.485 299.653,8.485 299.653,8.485 299.663,9.980 299.663,9.980 299.663,9.980 297.723,9.980 297.723,9.980 297.723,9.980 297.713,8.422 297.713,8.422 297.713,8.422 295.813,8.435 295.813,8.435 295.813,8.435 295.823,9.981 295.823,9.981 295.823,9.981 293.694,9.981 293.694,9.981 293.694,9.981 293.684,8.473 293.684,8.473 293.684,8.473 291.784,8.486 291.784,8.486 291.784,8.486 291.794,9.981 291.794,9.981 291.794,9.981 289.987,9.981 289.987,9.981 289.987,9.981 289.977,8.473 289.977,8.473 289.977,8.473 288.808,8.481 288.808,8.481 288.808,8.481 288.649,8.077 288.649,8.077 288.649,8.077 280.669,8.077 280.669,8.077 280.669,8.077 279.667,9.981 279.667,9.981 279.667,9.981 278.445,9.981 278.445,9.981 278.445,9.981 278.445,9.968 278.445,9.968 278.445,9.968 277.966,9.968 277.966,9.968 277.966,9.968 277.966,6.586 277.966,6.586 277.966,6.586 269.593,6.586 269.593,6.586 269.593,6.586 269.593,9.968 269.593,9.968 269.593,9.968 268.689,9.968 268.689,9.968 268.689,9.968 268.689,9.980 268.689,9.980 268.689,9.980 238.827,9.980 238.827,9.980 238.827,9.980 238.827,9.968 238.827,9.968 238.827,9.968 227.445,9.968 227.445,9.968 227.445,9.968 226.342,7.814 226.342,7.814 226.342,7.814 218.910,7.814 218.910,7.814 218.910,7.814 218.268,8.165 218.268,8.165 218.268,8.165 207.312,7.115 207.312,7.115 207.312,7.115 207.063,7.100 182.292,5.609 173.409,5.543 165.767,5.486 140.133,5.132 133.085,5.034 133.085,1.951 133.085,1.951 133.085,1.951 128.680,1.951 128.680,1.951 128.680,1.951 128.680,4.977 128.680,4.977 128.680,4.977 115.898,4.824 115.898,4.824 115.898,4.824 115.898,1.222 115.898,1.222 115.898,1.222 107.940,1.222 107.940,1.222 107.940,1.222 107.940,4.560 107.940,4.560 107.940,4.560 107.946,4.741 107.946,4.741 107.946,4.741 106.739,4.741 106.739,4.741 106.739,4.741 106.739,5.559 106.739,5.559 106.739,5.559 100.667,5.559 100.667,5.559 100.667,5.559 100.366,5.859 100.366,5.859 100.366,5.859 99.389,5.859 99.389,5.859 99.389,5.859 98.738,7.354 98.738,7.354 98.738,7.354 97.343,7.354 97.343,7.354 97.343,7.354 92.393,10.817 92.393,10.817 92.393,10.817 91.918,10.844 91.918,10.844 91.918,10.844 90.607,13.508 90.607,13.508 90.607,13.508 90.607,13.800 90.607,13.800 90.607,13.800 86.549,13.800 86.549,13.800 86.549,13.800 86.549,17.281 86.549,17.281 86.549,17.281 86.549,18.607 86.549,18.607 86.549,18.607 86.549,22.088 86.549,22.088 86.549,22.088 90.607,22.088 90.607,22.088 90.607,22.088 90.607,22.380 90.607,22.380 90.607,22.380 91.918,25.044 91.918,25.044 91.918,25.044 92.380,25.044 92.380,25.044 92.380,25.044 97.342,28.534 97.342,28.534 97.342,28.534 98.737,28.534 98.737,28.534 98.737,28.534 99.388,30.029 99.388,30.029 99.388,30.029 100.365,30.029 100.365,30.029 100.365,30.029 100.666,30.329 100.666,30.329 100.666,30.329 106.738,30.329 106.738,30.329 106.738,30.329 106.738,31.147 106.738,31.147 106.738,31.147 108.523,31.147 108.523,31.147 108.523,31.147 117.384,37.193 117.384,37.193 117.384,37.193 117.850,37.162 117.850,37.162 117.850,37.162 117.905,37.158 123.594,36.816 126.008,39.921 127.321,41.610 127.469,44.129 126.447,47.413 125.005,49.035 117.148,58.629 108.908,83.540 108.620,83.992 107.238,85.987 104.499,87.299 104.246,87.420 104.246,87.420 104.246,87.420 104.062,87.633 104.062,87.633 104.062,87.633 103.883,87.839 102.333,89.751 103.114,93.175 103.254,93.788 103.254,93.788 103.254,93.788 105.957,95.177 105.957,95.177 105.957,95.177 139.461,95.177 139.461,95.177 139.461,95.177 141.687,93.884 141.687,93.884 141.687,93.884 141.867,93.509 141.867,93.509 141.867,93.509 141.951,93.334 142.669,91.722 141.948,89.197 141.868,88.922 141.868,88.922 141.868,88.922 141.687,88.704 141.687,88.704 141.687,88.704 141.486,88.462 136.825,82.728 141.280,78.022 141.793,77.480 141.793,77.480 141.793,77.480 141.606,76.757 141.606,76.757 141.606,76.757 141.587,76.685 139.803,69.530 144.017,65.664 144.455,65.263 144.455,65.263 144.455,65.263 144.455,60.379 144.455,60.379 144.455,60.379 144.574,59.776 145.451,56.070 149.205,55.008 153.278,55.242 153.278,55.242 153.278,55.242 155.056,55.524 178.768,59.066 185.115,47.822 185.186,47.713 192.351,36.863 200.780,35.657 202.408,35.606 213.664,35.085 217.543,30.313 218.426,29.227 218.879,27.969 218.880,26.626 226.340,26.641 226.340,26.641 226.340,26.641 227.443,24.487 227.443,24.487 227.443,24.487 279.657,24.487 279.657,24.487 279.657,24.487 280.659,26.391 280.659,26.391 280.659,26.391 288.656,26.391 288.656,26.391 288.656,26.391 288.819,25.979 288.819,25.979 288.819,25.979 290.089,25.971 290.089,25.971 290.089,25.971 290.079,24.488 290.079,24.488 290.079,24.488 291.886,24.488 291.886,24.488 291.886,24.488 291.896,25.984 291.896,25.984 291.896,25.984 293.796,25.971 293.796,25.971 293.796,25.971 293.786,24.488 293.786,24.488 293.786,24.488 295.915,24.488 295.915,24.488 295.915,24.488 295.924,25.933 295.924,25.933 295.924,25.933 297.824,25.920 297.824,25.920 297.824,25.920 297.815,24.488 297.815,24.488 297.815,24.488 299.755,24.488 299.755,24.488 299.755,24.488 299.765,25.984 299.765,25.984 299.765,25.984 301.665,25.971 301.665,25.971 301.665,25.971 301.655,24.488 301.655,24.488 301.655,24.488 303.850,24.488 303.850,24.488 303.850,24.488 303.860,25.984 303.860,25.984 303.860,25.984 305.760,25.971 305.760,25.971 305.760,25.971 305.750,24.488 305.750,24.488 305.750,24.488 306.116,24.488 306.116,24.488 306.116,24.488 306.116,23.085 306.116,23.085 306.116,23.085 308.972,23.085 308.972,23.085 308.972,23.085 308.972,16.024 308.972,16.024 308.972,16.024 308.963,16.024 308.963,16.024 308.963,16.024 Z M 287.538,16.279 C 281.364,16.279 281.364,16.279 281.364,16.279 281.360,15.700 281.360,15.700 281.360,15.700 287.538,15.700 287.538,15.700 287.538,15.700 287.538,16.279 287.538,16.279 287.538,16.279 Z M 281.381,18.179 C 287.538,18.179 287.538,18.179 287.538,18.179 287.538,18.759 287.538,18.759 287.538,18.759 281.386,18.759 281.386,18.759 281.386,18.759 281.381,18.179 281.381,18.179 281.381,18.179 Z M 287.538,13.799 C 281.343,13.799 281.343,13.799 281.343,13.799 281.338,13.219 281.338,13.219 281.338,13.219 287.538,13.219 287.538,13.219 287.538,13.219 287.538,13.799 287.538,13.799 287.538,13.799 Z M 281.402,20.659 C 287.538,20.659 287.538,20.659 287.538,20.659 287.538,21.239 287.538,21.239 287.538,21.239 281.407,21.239 281.407,21.239 281.407,21.239 281.402,20.659 281.402,20.659 281.402,20.659 Z M 286.827,10.752 C 287.051,11.320 287.051,11.320 287.051,11.320 281.983,11.320 281.983,11.320 281.983,11.320 282.282,10.752 282.282,10.752 282.282,10.752 286.827,10.752 286.827,10.752 286.827,10.752 Z M 268.688,12.655 C 268.688,12.668 268.688,12.668 268.688,12.668 272.292,12.668 272.292,12.668 272.292,12.668 272.292,9.286 272.292,9.286 272.292,9.286 275.267,9.286 275.267,9.286 275.267,9.286 275.267,12.668 275.267,12.668 275.267,12.668 278.445,12.668 278.445,12.668 278.445,12.668 278.445,12.655 278.445,12.655 278.445,12.655 279.435,12.655 279.435,12.655 279.435,12.655 279.513,21.790 279.513,21.790 279.513,21.790 227.570,21.790 227.570,21.790 227.570,21.790 227.570,12.667 227.570,12.667 227.570,12.667 238.827,12.667 238.827,12.667 238.827,12.667 238.827,12.654 238.827,12.654 238.827,12.654 268.688,12.654 268.688,12.654 268.688,12.654 Z M 225.668,18.759 C 219.502,18.759 219.502,18.759 219.502,18.759 219.502,18.179 219.502,18.179 219.502,18.179 225.668,18.179 225.668,18.179 225.668,18.179 225.668,18.759 225.668,18.759 225.668,18.759 Z M 225.668,16.279 C 219.502,16.279 219.502,16.279 219.502,16.279 219.502,15.700 219.502,15.700 219.502,15.700 225.668,15.700 225.668,15.700 225.668,15.700 225.668,16.279 225.668,16.279 225.668,16.279 Z M 225.668,13.799 C 219.502,13.799 219.502,13.799 219.502,13.799 219.502,13.219 219.502,13.219 219.502,13.219 225.668,13.219 225.668,13.219 225.668,13.219 225.668,13.799 225.668,13.799 225.668,13.799 Z M 219.502,20.659 C 225.668,20.659 225.668,20.659 225.668,20.659 225.668,21.239 225.668,21.239 225.668,21.239 219.502,21.239 219.502,21.239 219.502,21.239 219.502,20.659 219.502,20.659 219.502,20.659 Z M 224.690,10.514 C 225.102,11.319 225.102,11.319 225.102,11.319 219.501,11.319 219.501,11.319 219.501,11.319 219.501,10.567 219.501,10.567 219.501,10.567 219.598,10.514 219.598,10.514 219.598,10.514 224.690,10.514 224.690,10.514 224.690,10.514 Z M 130.580,3.852 C 131.183,3.852 131.183,3.852 131.183,3.852 131.184,5.007 131.184,5.007 131.184,5.007 130.580,5.000 130.580,5.000 130.580,5.000 130.580,3.852 130.580,3.852 130.580,3.852 Z M 113.997,3.122 C 113.997,4.801 113.997,4.801 113.997,4.801 109.867,4.752 109.867,4.752 109.867,4.752 109.839,3.122 109.839,3.122 109.839,3.122 113.997,3.122 113.997,3.122 113.997,3.122 Z M 91.029,16.500 C 91.430,16.500 91.430,16.500 91.430,16.500 91.430,19.388 91.430,19.388 91.430,19.388 91.029,19.388 91.029,19.388 91.029,19.388 91.029,16.500 91.029,16.500 91.029,16.500 Z M 90.529,19.388 C 90.127,19.388 90.127,19.388 90.127,19.388 90.127,16.500 90.127,16.500 90.127,16.500 90.529,16.500 90.529,16.500 90.529,16.500 90.529,19.388 90.529,19.388 90.529,19.388 Z M 91.931,16.500 C 92.308,16.500 92.308,16.500 92.308,16.500 92.308,19.388 92.308,19.388 92.308,19.388 91.931,19.388 91.931,19.388 91.931,19.388 91.931,16.500 91.931,16.500 91.931,16.500 Z M 89.249,18.607 C 89.249,17.281 89.249,17.281 89.249,17.281 89.249,16.500 89.249,16.500 89.249,16.500 89.628,16.500 89.628,16.500 89.628,16.500 89.628,19.388 89.628,19.388 89.628,19.388 89.249,19.388 89.249,19.388 89.249,19.388 89.249,18.607 89.249,18.607 89.249,18.607 Z M 94.526,23.268 C 94.088,22.343 94.088,22.343 94.088,22.343 93.598,22.343 93.598,22.343 93.598,22.343 93.308,21.754 93.308,21.754 93.308,21.754 93.308,14.134 93.308,14.134 93.308,14.134 93.598,13.545 93.598,13.545 93.598,13.545 94.088,13.545 94.088,13.545 94.088,13.545 94.526,12.620 94.526,12.620 94.526,12.620 98.193,10.055 98.193,10.055 98.193,10.055 98.671,10.055 98.671,10.055 98.671,10.055 98.671,25.834 98.671,25.834 98.671,25.834 98.193,25.834 98.193,25.834 98.193,25.834 94.526,23.268 94.526,23.268 94.526,23.268 Z M 101.482,27.328 C 101.156,27.328 101.156,27.328 101.156,27.328 100.571,25.985 100.571,25.985 100.571,25.985 100.571,9.903 100.571,9.903 100.571,9.903 101.156,8.560 101.156,8.560 101.156,8.560 101.482,8.560 101.482,8.560 101.482,8.560 101.783,8.260 101.783,8.260 101.783,8.260 102.929,8.260 102.929,8.260 102.929,8.260 102.929,27.629 102.929,27.629 102.929,27.629 101.783,27.629 101.783,27.629 101.783,27.629 101.482,27.328 101.482,27.328 101.482,27.328 Z M 104.830,27.628 C 104.830,8.259 104.830,8.259 104.830,8.259 107.138,8.259 107.138,8.259 107.138,8.259 107.138,27.628 107.138,27.628 107.138,27.628 104.830,27.628 104.830,27.628 104.830,27.628 Z M 117.338,27.048 C 119.200,31.622 119.200,31.622 119.200,31.622 118.633,32.552 118.633,32.552 118.633,32.552 112.704,27.244 112.704,27.244 112.704,27.244 113.745,27.049 115.522,26.968 117.338,27.048 Z M 148.938,52.290 C 148.737,52.341 148.737,52.341 148.737,52.341 142.775,53.846 141.809,59.809 141.771,60.062 141.756,64.102 141.756,64.102 141.756,64.102 137.697,68.289 138.440,74.581 138.838,76.711 134.756,81.626 137.289,87.490 139.420,90.194 139.626,91.051 139.580,91.675 139.516,92.024 138.735,92.478 138.735,92.478 138.735,92.478 106.611,92.478 106.611,92.478 106.611,92.478 105.641,91.979 105.641,91.979 105.641,91.979 105.480,90.706 105.814,89.900 105.996,89.571 109.661,87.699 111.254,84.887 111.322,84.764 111.424,84.532 111.424,84.532 111.424,84.532 114.716,74.556 117.963,67.068 120.733,61.603 123.893,59.191 134.551,51.417 141.276,50.890 141.419,50.868 141.419,50.868 141.419,50.868 141.470,50.856 145.465,50.014 151.995,52.472 148.938,52.290 148.938,52.290 148.938,52.290 Z M 182.810,46.423 C 178.662,53.767 164.693,53.609 157.701,53.028 148.152,47.791 141.873,48.832 141.061,49.001 135.382,49.479 127.554,54.379 122.800,57.725 126.250,51.581 128.572,49.087 128.615,49.042 128.829,48.819 128.829,48.819 128.829,48.819 128.925,48.525 128.925,48.525 128.925,48.525 130.339,44.197 130.071,40.741 128.130,38.254 125.894,35.389 122.031,34.661 119.674,34.495 121.321,31.793 121.321,31.793 121.321,31.793 119.402,27.081 119.402,27.081 119.402,27.081 157.045,27.081 157.045,27.081 157.045,27.081 157.000,27.267 156.970,27.458 156.970,27.657 156.970,29.023 158.081,30.134 159.447,30.134 162.847,30.134 162.847,30.134 162.847,30.134 160.946,30.694 159.936,31.241 159.856,31.286 159.865,31.303 159.865,31.303 159.865,31.303 159.561,31.488 159.351,31.772 159.351,32.109 159.351,32.446 159.561,32.730 159.865,32.915 159.856,32.932 159.856,32.932 159.856,32.932 160.014,33.020 163.794,35.074 170.983,35.305 179.679,35.305 179.679,35.305 179.679,35.305 180.305,37.128 180.305,37.128 180.305,37.128 181.048,37.054 181.048,37.054 181.048,37.054 181.064,37.052 181.101,37.048 181.155,37.042 181.191,37.038 181.240,37.032 181.292,37.025 181.319,37.022 181.339,37.019 181.370,37.015 181.441,37.006 181.523,36.994 181.615,36.981 181.635,36.978 181.654,36.976 181.675,36.972 183.162,36.758 186.972,36.046 189.631,34.178 190.007,34.310 190.404,34.396 190.824,34.396 192.819,34.396 194.443,32.772 194.443,30.777 194.443,28.782 192.819,27.158 190.824,27.158 189.499,27.158 188.350,27.882 187.720,28.947 187.606,28.895 187.491,28.847 187.376,28.797 187.254,28.745 187.133,28.693 187.011,28.644 186.887,28.594 186.763,28.545 186.638,28.498 186.518,28.453 186.399,28.410 186.279,28.368 186.067,28.293 185.857,28.222 185.648,28.155 185.548,28.123 185.447,28.091 185.348,28.060 185.214,28.019 185.082,27.981 184.950,27.943 184.856,27.916 184.763,27.891 184.670,27.866 184.453,27.807 184.242,27.753 184.036,27.703 183.948,27.682 183.859,27.659 183.773,27.640 183.652,27.612 183.536,27.586 183.420,27.561 183.338,27.543 183.258,27.526 183.178,27.510 183.056,27.485 182.937,27.460 182.822,27.438 182.688,27.412 182.559,27.388 182.437,27.366 182.347,27.350 182.267,27.337 182.185,27.323 182.109,27.310 182.037,27.298 181.967,27.287 181.901,27.277 181.838,27.266 181.778,27.258 181.664,27.241 181.560,27.226 181.470,27.214 181.434,27.209 181.410,27.206 181.378,27.202 181.313,27.194 181.257,27.186 181.210,27.181 181.183,27.178 181.166,27.176 181.146,27.173 181.098,27.168 181.061,27.163 181.046,27.162 180.303,27.087 180.303,27.087 180.303,27.087 179.677,28.910 179.677,28.910 179.677,28.910 179.363,28.910 179.363,28.910 179.363,28.910 179.583,28.540 179.717,28.114 179.717,27.654 179.717,27.455 179.687,27.264 179.642,27.078 194.080,27.078 194.080,27.078 194.080,27.078 196.716,34.010 196.716,34.010 196.716,34.010 188.900,37.203 183.126,45.934 182.810,46.423 Z M 177.820,27.656 C 177.820,27.968 177.556,28.233 177.243,28.233 159.448,28.233 159.448,28.233 159.448,28.233 159.136,28.233 158.871,27.969 158.871,27.656 158.871,27.343 159.135,27.080 159.448,27.080 177.243,27.080 177.243,27.080 177.243,27.080 177.556,27.080 177.820,27.344 177.820,27.656 Z M 184.913,29.897 C 185.126,29.962 185.340,30.033 185.556,30.108 185.635,30.135 185.714,30.165 185.793,30.194 186.271,30.368 186.749,30.561 187.207,30.785 187.207,30.785 187.207,30.785 187.207,30.785 187.961,31.152 188.665,31.585 189.231,32.108 188.869,32.442 188.440,32.731 187.990,32.999 187.990,32.999 187.990,32.999 187.990,32.999 186.818,33.698 185.429,34.186 184.184,34.523 184.184,29.687 184.184,29.687 184.184,29.687 184.346,29.731 184.511,29.778 184.677,29.827 184.756,29.851 184.834,29.873 184.913,29.897 Z M 191.260,31.528 C 191.263,31.526 191.263,31.526 191.263,31.526 191.258,31.520 191.253,31.515 191.248,31.509 191.233,31.493 191.221,31.477 191.205,31.461 190.702,30.840 190.065,30.310 189.363,29.850 189.363,29.850 189.363,29.850 189.363,29.850 189.671,29.365 190.210,29.041 190.825,29.041 191.782,29.041 192.561,29.819 192.561,30.777 192.561,31.523 192.086,32.155 191.424,32.400 191.458,32.309 191.480,32.211 191.480,32.107 191.480,31.884 191.392,31.685 191.260,31.528 Z M 190.499,33.489 C 190.471,33.515 190.441,33.538 190.412,33.564 190.440,33.538 190.471,33.514 190.499,33.489 Z M 183.185,29.441 C 183.185,34.772 183.185,34.772 183.185,34.772 183.098,34.792 183.006,34.814 182.923,34.832 182.874,34.842 182.830,34.851 182.782,34.861 182.782,29.355 182.782,29.355 182.782,29.355 182.819,29.363 182.854,29.370 182.892,29.377 182.987,29.398 183.085,29.419 183.185,29.441 Z M 181.782,29.169 C 181.782,35.048 181.782,35.048 181.782,35.048 181.723,35.058 181.648,35.072 181.594,35.080 181.026,33.422 181.026,33.422 181.026,33.422 181.026,30.795 181.026,30.795 181.026,30.795 181.594,29.137 181.594,29.137 181.594,29.137 181.648,29.145 181.723,29.159 181.782,29.169 Z M 180.026,33.421 C 171.006,33.421 171.006,33.421 171.006,33.421 167.293,33.301 164.550,32.656 162.843,32.105 163.043,32.040 163.260,31.974 163.489,31.908 163.541,31.893 163.599,31.878 163.652,31.863 163.834,31.812 164.022,31.761 164.221,31.710 164.305,31.688 164.395,31.667 164.482,31.646 164.661,31.602 164.846,31.559 165.037,31.516 165.147,31.492 165.260,31.468 165.374,31.444 165.559,31.405 165.750,31.368 165.946,31.331 166.073,31.307 166.202,31.284 166.334,31.261 166.532,31.227 166.738,31.194 166.946,31.162 167.088,31.140 167.229,31.119 167.376,31.098 167.594,31.068 167.822,31.041 168.051,31.014 168.198,30.997 168.343,30.979 168.495,30.963 168.754,30.936 169.024,30.914 169.295,30.893 169.430,30.882 169.560,30.869 169.698,30.860 170.113,30.832 170.541,30.809 170.984,30.795 180.025,30.795 180.025,30.795 180.025,30.795 180.025,33.421 180.025,33.421 180.025,33.421 Z M 204.928,32.582 C 208.618,30.306 213.366,27.634 216.157,26.901 216.105,27.517 215.883,28.078 215.450,28.612 213.601,30.887 208.792,32.049 204.928,32.582 Z M 216.294,24.927 C 211.917,25.811 203.685,31.053 200.800,32.956 200.746,32.958 200.682,32.962 200.631,32.963 200.485,32.975 200.485,32.975 200.485,32.975 199.818,33.066 199.162,33.210 198.516,33.392 195.394,25.180 195.394,25.180 195.394,25.180 177.243,25.180 177.243,25.180 177.243,25.180 159.448,25.180 159.448,25.180 159.448,25.180 118.016,25.180 118.016,25.180 118.016,25.180 114.873,24.982 110.982,25.069 110.198,26.598 109.864,27.250 109.864,27.250 109.864,27.250 117.117,33.744 117.117,33.744 117.117,33.744 109.438,28.502 109.438,28.502 109.438,28.502 109.438,27.628 109.438,27.628 109.438,27.628 109.038,27.628 109.038,27.628 109.038,27.628 109.038,8.259 109.038,8.259 109.038,8.259 109.438,8.259 109.438,8.259 109.438,8.259 109.438,7.447 109.438,7.447 109.438,7.447 131.230,7.708 131.230,7.708 131.230,7.708 131.562,7.712 164.535,8.176 173.387,8.243 182.200,8.308 206.900,9.795 207.101,9.806 217.601,10.813 217.601,10.813 217.601,10.813 217.601,23.938 217.601,23.938 217.601,23.938 216.294,24.927 216.294,24.927 216.294,24.927 Z M 219.600,23.944 C 219.502,23.891 219.502,23.891 219.502,23.891 219.502,23.139 219.502,23.139 219.502,23.139 225.103,23.139 225.103,23.139 225.103,23.139 224.691,23.944 224.691,23.944 224.691,23.944 219.600,23.944 219.600,23.944 219.600,23.944 Z M 282.290,23.694 C 281.998,23.139 281.998,23.139 281.998,23.139 287.037,23.139 287.037,23.139 287.037,23.139 286.818,23.694 286.818,23.694 286.818,23.694 282.290,23.694 282.290,23.694 282.290,23.694 Z M 290.062,21.791 C 290.003,12.656 290.003,12.656 290.003,12.656 291.810,12.656 291.810,12.656 291.810,12.656 291.870,21.791 291.870,21.791 291.870,21.791 290.062,21.791 290.062,21.791 290.062,21.791 Z M 293.770,21.791 C 293.710,12.656 293.710,12.656 293.710,12.656 295.839,12.656 295.839,12.656 295.839,12.656 295.899,21.791 295.899,21.791 295.899,21.791 293.770,21.791 293.770,21.791 293.770,21.791 Z M 297.799,21.791 C 297.739,12.656 297.739,12.656 297.739,12.656 299.679,12.656 299.679,12.656 299.679,12.656 299.739,21.791 299.739,21.791 299.739,21.791 297.799,21.791 297.799,21.791 297.799,21.791 Z M 303.420,20.388 C 303.420,21.791 303.420,21.791 303.420,21.791 301.640,21.791 301.640,21.791 301.640,21.791 301.580,12.656 301.580,12.656 301.580,12.656 303.432,12.656 303.432,12.656 303.432,12.656 303.432,14.059 303.432,14.059 303.432,14.059 303.784,14.059 303.784,14.059 303.784,14.059 303.825,20.389 303.825,20.389 303.825,20.389 303.420,20.389 303.420,20.389 303.420,20.389 Z M 306.276,20.388 C 305.726,20.388 305.726,20.388 305.726,20.388 305.685,14.058 305.685,14.058 305.685,14.058 306.289,14.058 306.289,14.058 306.289,14.058 306.289,16.027 306.289,16.027 306.289,16.027 306.277,16.027 306.277,16.027 306.277,16.027 306.277,20.388 306.277,20.388 306.277,20.388 Z M 166.405,35.794 C 162.562,35.930 158.955,36.836 156.250,38.346 153.263,40.013 151.666,42.250 151.751,44.645 151.912,49.124 158.088,52.458 165.997,52.458 166.329,52.458 166.664,52.452 167.001,52.440 170.844,52.303 174.451,51.397 177.157,49.887 180.143,48.220 181.741,45.982 181.655,43.588 181.488,38.922 174.795,35.505 166.405,35.794 Z M 154.450,44.549 C 154.403,43.237 155.539,41.836 157.566,40.704 158.255,40.320 159.023,39.986 159.841,39.696 158.782,41.603 157.810,44.153 158.225,46.676 158.337,47.356 158.551,47.991 158.843,48.591 156.142,47.576 154.503,46.040 154.450,44.549 Z M 175.841,47.531 C 173.503,48.836 170.330,49.622 166.906,49.742 165.686,49.788 164.532,49.740 163.445,49.626 161.959,48.721 161.117,47.613 160.890,46.243 160.393,43.250 162.841,39.841 163.703,38.752 164.609,38.617 165.543,38.526 166.501,38.492 166.810,38.481 167.116,38.476 167.418,38.476 174.154,38.476 178.866,41.139 178.958,43.685 179.004,44.998 177.868,46.399 175.841,47.531 Z M 187.573,12.622 C 146.628,13.454 146.628,13.454 146.628,13.454 146.628,11.308 146.628,11.308 146.628,11.308 115.003,14.173 115.003,14.173 115.003,14.173 115.003,17.996 115.003,17.996 115.003,17.996 146.628,20.861 146.628,20.861 146.628,20.861 146.628,18.073 146.628,18.073 146.628,18.073 186.257,18.878 186.257,18.878 186.257,18.878 187.859,18.911 187.859,18.911 187.859,18.911 189.577,18.911 190.923,17.518 190.923,15.741 190.923,14.050 189.397,12.622 187.573,12.622 Z M 182.433,16.901 C 182.433,16.901 182.433,16.901 182.433,16.901 179.821,16.848 179.821,16.848 179.821,16.848 180.133,16.562 180.333,16.155 180.333,15.700 180.333,15.307 180.183,14.952 179.943,14.678 182.652,14.623 182.652,14.623 182.652,14.623 182.456,14.937 182.337,15.304 182.337,15.700 182.337,16.153 182.491,16.568 182.742,16.907 182.433,16.901 182.433,16.901 182.433,16.901 Z M 173.646,15.484 C 173.802,15.484 173.929,15.611 173.929,15.767 173.929,15.923 173.802,16.050 173.646,16.050 173.490,16.050 173.363,15.923 173.363,15.767 173.363,15.611 173.491,15.484 173.646,15.484 Z M 174.448,14.789 C 177.558,14.726 177.558,14.726 177.558,14.726 177.342,14.994 177.208,15.330 177.208,15.700 177.208,16.131 177.383,16.522 177.667,16.805 174.456,16.740 174.456,16.740 174.456,16.740 174.739,16.505 174.930,16.164 174.930,15.768 174.929,15.367 174.735,15.024 174.448,14.789 Z M 179.333,15.700 C 179.333,16.010 179.081,16.262 178.771,16.262 178.460,16.262 178.208,16.010 178.208,15.700 178.208,15.389 178.460,15.137 178.771,15.137 179.081,15.137 179.333,15.389 179.333,15.700 Z M 184.377,16.740 C 183.804,16.740 183.337,16.273 183.337,15.700 183.337,15.126 183.804,14.659 184.377,14.659 184.951,14.659 185.418,15.126 185.418,15.700 185.417,16.273 184.951,16.740 184.377,16.740 Z M 144.727,16.898 C 119.781,16.085 119.781,16.085 119.781,16.085 144.727,15.272 144.727,15.272 144.727,15.272 144.727,16.898 144.727,16.898 144.727,16.898 Z M 144.727,14.271 C 129.506,14.767 129.506,14.767 129.506,14.767 144.727,13.388 144.727,13.388 144.727,13.388 144.727,14.271 144.727,14.271 144.727,14.271 Z M 129.501,17.402 C 144.727,17.899 144.727,17.899 144.727,17.899 144.727,18.782 144.727,18.782 144.727,18.782 129.501,17.402 129.501,17.402 129.501,17.402 Z M 146.627,15.355 C 172.795,14.823 172.795,14.823 172.795,14.823 172.535,15.058 172.364,15.389 172.364,15.767 172.364,16.141 172.531,16.471 172.787,16.706 146.627,16.175 146.627,16.175 146.627,16.175 146.627,15.355 146.627,15.355 146.627,15.355 Z M 187.878,17.012 C 185.959,16.973 185.959,16.973 185.959,16.973 186.242,16.623 186.418,16.184 186.418,15.700 186.418,15.275 186.287,14.880 186.064,14.553 187.593,14.522 187.593,14.522 187.593,14.522 188.268,14.522 189.023,15.043 189.023,15.742 189.022,16.465 188.522,17.011 187.878,17.012 Z M 147.687,31.990 C 142.371,31.990 142.371,31.990 142.371,31.990 142.371,31.122 142.371,31.122 142.371,31.122 142.371,30.028 142.371,30.028 142.371,30.028 142.371,29.109 142.371,29.109 142.371,29.109 140.789,27.885 140.789,27.885 140.789,27.885 130.714,27.885 130.714,27.885 130.714,27.885 130.714,27.584 130.714,27.584 130.714,27.584 123.953,27.584 123.953,27.584 123.953,27.584 123.953,30.373 123.953,30.373 123.953,30.373 122.535,30.373 122.535,30.373 122.535,30.373 123.887,33.977 123.887,33.977 123.887,33.977 130.714,33.977 130.714,33.977 130.714,33.977 130.714,33.476 130.714,33.476 130.714,33.476 139.692,33.476 139.692,33.476 139.692,33.476 139.526,33.819 139.425,34.199 139.425,34.605 139.425,36.047 140.598,37.221 142.041,37.221 147.687,37.221 147.687,37.221 147.687,37.221 149.129,37.221 150.303,36.048 150.303,34.605 150.303,33.162 149.129,31.990 147.687,31.990 Z M 129.514,32.777 C 124.719,32.777 124.719,32.777 124.719,32.777 124.267,31.573 124.267,31.573 124.267,31.573 125.154,31.573 125.154,31.573 125.154,31.573 125.154,28.784 125.154,28.784 125.154,28.784 129.514,28.784 129.514,28.784 129.514,28.784 129.514,29.085 129.514,29.085 129.514,29.085 129.702,29.085 129.702,29.085 129.702,29.085 129.702,32.276 129.702,32.276 129.702,32.276 129.514,32.276 129.514,32.276 129.514,32.276 129.514,32.777 129.514,32.777 129.514,32.777 Z M 130.526,32.276 C 130.526,29.085 130.526,29.085 130.526,29.085 140.379,29.085 140.379,29.085 140.379,29.085 141.171,29.698 141.171,29.698 141.171,29.698 141.171,30.028 141.171,30.028 141.171,30.028 141.171,31.122 141.171,31.122 141.171,31.122 141.171,31.664 141.171,31.664 141.171,31.664 140.379,32.277 140.379,32.277 140.379,32.277 130.526,32.277 130.526,32.277 130.526,32.277 Z M 147.687,36.021 C 142.041,36.021 142.041,36.021 142.041,36.021 141.260,36.021 140.625,35.386 140.625,34.605 140.625,33.824 141.260,33.189 142.041,33.189 147.687,33.189 147.687,33.189 147.687,33.189 148.468,33.189 149.103,33.824 149.103,34.605 149.103,35.386 148.468,36.021 147.687,36.021 Z M 139.934,29.278 C 135.924,29.278 135.924,29.278 135.924,29.278 135.164,30.666 135.164,30.666 135.164,30.666 135.924,32.054 135.924,32.054 135.924,32.054 139.934,32.054 139.934,32.054 139.934,32.054 140.694,30.666 140.694,30.666 140.694,30.666 139.934,29.278 139.934,29.278 139.934,29.278 Z M 139.445,31.229 C 136.413,31.229 136.413,31.229 136.413,31.229 136.104,30.666 136.104,30.666 136.104,30.666 136.413,30.103 136.413,30.103 136.413,30.103 139.445,30.103 139.445,30.103 139.445,30.103 139.754,30.666 139.754,30.666 139.754,30.666 139.445,31.229 139.445,31.229 139.445,31.229 Z M 128.177,64.999 C 125.747,64.999 123.770,66.976 123.770,69.405 123.770,71.834 125.747,73.812 128.177,73.812 130.607,73.812 132.584,71.834 132.584,69.405 132.584,66.976 130.606,64.999 128.177,64.999 Z M 128.177,71.912 C 126.795,71.912 125.671,70.788 125.671,69.405 125.671,68.023 126.795,66.899 128.177,66.899 129.559,66.899 130.683,68.023 130.683,69.405 130.683,70.788 129.559,71.912 128.177,71.912 Z " />
</svg>