<?xml version="1.0" encoding="UTF-8" standalone="no"?>
<!DOCTYPE svg PUBLIC "-//W3C//DTD SVG 20010904//EN" "http://www.w3.org/TR/2001/REC-SVG-20010904/DTD/svg10.dtd"[]>
<svg version="1.1" id="Frosty Editor v1.0.6.3" xmlns="http://www.w3.org/2000/svg" d1p1:xlink="http://www.w3.org/1999/xlink" viewBox="0 0 25 25" xmlns:d1p1="xmlns">
  <path stroke="none" fill="#ffffffff" d="M 12.342,3.756 C 11.695,3.756 9.677,3.934 7.613,5.764 4.180,8.933 5.740,11.568 3.803,12.355 3.798,12.422 3.794,12.566 3.789,12.730 3.792,12.730 3.795,12.730 3.798,12.730 3.798,13.432 3.798,13.432 3.798,13.432 5.210,13.432 5.210,13.432 5.210,13.432 5.257,13.201 5.333,13.033 5.396,12.925 5.427,12.499 5.468,12.077 5.535,11.716 6.063,8.853 8.004,6.085 12.338,5.851 13.090,5.851 13.090,5.851 13.090,5.851 17.424,6.085 19.365,8.853 19.893,11.716 19.960,12.079 20.005,12.502 20.036,12.931 20.098,13.040 20.172,13.207 20.218,13.432 21.634,13.432 21.634,13.432 21.634,13.432 21.634,12.730 21.634,12.730 21.634,12.730 21.636,12.730 21.638,12.730 21.640,12.730 21.635,12.563 21.629,12.423 21.624,12.355 19.688,11.568 21.247,8.933 17.815,5.764 15.754,3.937 13.740,3.756 13.090,3.756 Z M 8.400,11.362 C 7.063,11.362 5.936,12.228 5.546,13.432 5.963,13.432 5.963,13.432 5.963,13.432 6.141,12.965 6.459,12.551 6.863,12.256 7.298,11.938 7.831,11.764 8.367,11.757 8.472,11.757 8.576,11.761 8.680,11.773 8.964,11.802 9.241,11.879 9.499,11.998 9.993,12.225 10.410,12.614 10.675,13.088 10.941,13.558 11.048,14.110 10.991,14.646 10.962,14.917 10.891,15.182 10.780,15.431 10.616,15.801 10.359,16.131 10.044,16.387 9.746,16.632 9.393,16.807 9.019,16.896 8.547,17.010 8.044,16.992 7.581,16.840 7.109,16.687 6.687,16.391 6.374,16.006 6.311,15.929 6.252,15.847 6.198,15.763 5.740,15.763 5.740,15.763 5.740,15.763 6.242,16.718 7.243,17.366 8.400,17.366 10.064,17.366 11.402,16.027 11.402,14.364 11.402,12.700 10.064,11.362 8.400,11.362 Z M 17.028,11.362 C 15.365,11.362 14.026,12.700 14.026,14.364 14.026,16.027 15.365,17.366 17.028,17.366 18.186,17.366 19.187,16.718 19.688,15.763 19.230,15.763 19.230,15.763 19.230,15.763 19.176,15.847 19.118,15.929 19.054,16.006 18.742,16.391 18.319,16.687 17.847,16.840 17.384,16.992 16.882,17.010 16.409,16.896 16.036,16.807 15.681,16.632 15.383,16.387 15.069,16.131 14.812,15.801 14.648,15.431 14.537,15.182 14.465,14.917 14.437,14.646 14.380,14.110 14.487,13.558 14.752,13.088 15.018,12.614 15.435,12.225 15.929,11.998 16.187,11.879 16.464,11.802 16.747,11.773 16.852,11.761 16.956,11.757 17.062,11.757 17.598,11.764 18.130,11.938 18.565,12.256 18.969,12.551 19.287,12.965 19.464,13.432 19.883,13.432 19.883,13.432 19.883,13.432 19.492,12.228 18.366,11.362 17.028,11.362 Z M 8.384,12.064 C 7.822,12.066 7.265,12.285 6.851,12.664 6.613,12.877 6.425,13.141 6.297,13.432 6.371,13.432 6.371,13.432 6.371,13.432 6.371,14.203 6.371,14.203 6.371,14.203 6.107,14.203 6.107,14.203 6.107,14.203 6.087,14.468 6.115,14.736 6.188,14.992 6.371,14.992 6.371,14.992 6.371,14.992 6.371,15.445 6.371,15.445 6.371,15.445 6.437,15.570 6.513,15.688 6.601,15.798 6.932,16.220 7.420,16.513 7.945,16.617 8.518,16.736 9.134,16.622 9.627,16.309 10.157,15.981 10.536,15.424 10.655,14.813 10.800,14.114 10.589,13.353 10.110,12.825 9.681,12.345 9.042,12.064 8.398,12.064 8.393,12.064 8.389,12.063 8.384,12.064 Z M 17.029,12.064 C 16.386,12.064 15.747,12.345 15.317,12.825 14.838,13.353 14.628,14.114 14.774,14.813 14.892,15.424 15.271,15.981 15.801,16.309 16.295,16.622 16.910,16.736 17.482,16.617 18.008,16.513 18.495,16.220 18.826,15.798 18.914,15.688 18.992,15.570 19.058,15.445 19.058,14.992 19.058,14.992 19.058,14.992 19.240,14.992 19.240,14.992 19.240,14.992 19.313,14.736 19.341,14.468 19.321,14.203 19.058,14.203 19.058,14.203 19.058,14.203 19.058,13.432 19.058,13.432 19.058,13.432 19.131,13.432 19.131,13.432 19.131,13.432 19.002,13.141 18.815,12.877 18.578,12.664 18.164,12.285 17.606,12.066 17.045,12.064 17.040,12.063 17.034,12.064 17.029,12.064 Z M 8.400,12.459 C 9.456,12.459 10.305,13.308 10.305,14.364 10.305,15.419 9.456,16.268 8.400,16.268 7.345,16.268 6.495,15.419 6.495,14.364 6.495,13.308 7.345,12.459 8.400,12.459 Z M 17.028,12.459 C 18.083,12.459 18.933,13.308 18.933,14.364 18.933,15.419 18.083,16.268 17.028,16.268 15.973,16.268 15.123,15.419 15.123,14.364 15.123,13.308 15.973,12.459 17.028,12.459 Z M 21.909,12.782 C 21.913,12.943 21.914,13.219 21.918,13.432 22.256,13.432 22.256,13.432 22.256,13.432 22.256,13.447 22.256,13.447 22.256,13.447 22.256,14.048 22.256,14.048 22.256,14.048 22.146,14.058 22.036,14.068 21.926,14.079 21.929,14.410 21.932,14.672 21.931,14.992 22.256,14.992 22.256,14.992 22.256,14.992 22.256,15.006 22.256,15.006 22.256,15.006 22.256,15.607 22.256,15.607 22.256,15.607 22.146,15.617 22.035,15.628 21.925,15.638 21.919,15.893 21.911,16.109 21.899,16.245 22.535,16.163 22.898,15.958 22.898,15.958 23.382,15.120 23.223,13.818 22.898,13.256 22.898,13.256 22.639,12.907 21.909,12.782 Z M 3.522,12.784 C 2.793,12.909 2.530,13.256 2.530,13.256 2.206,13.818 2.046,15.120 2.530,15.958 2.530,15.958 2.894,16.163 3.532,16.245 3.520,16.107 3.512,15.894 3.507,15.637 3.395,15.627 3.284,15.617 3.172,15.607 3.172,15.006 3.172,15.006 3.172,15.006 3.172,14.992 3.172,14.992 3.172,14.992 3.499,14.992 3.499,14.992 3.499,14.992 3.498,14.697 3.499,14.384 3.501,14.078 3.391,14.068 3.282,14.058 3.172,14.048 3.172,13.447 3.172,13.447 3.172,13.447 3.172,13.432 3.172,13.432 3.172,13.432 3.509,13.432 3.509,13.432 3.509,13.432 3.513,13.188 3.518,12.966 3.522,12.784 Z M 12.574,12.816 C 12.574,12.819 12.574,12.819 12.574,12.819 12.567,12.819 12.560,12.819 12.553,12.819 12.368,12.822 12.182,12.839 12.003,12.887 11.934,12.907 11.862,12.930 11.807,12.978 11.789,12.994 11.777,13.018 11.784,13.042 11.747,13.564 12.386,16.561 11.713,16.485 11.666,16.608 11.627,16.738 11.627,16.871 11.627,16.920 11.634,16.973 11.661,17.014 11.826,17.130 12.002,17.233 12.188,17.310 12.310,17.361 12.441,17.402 12.574,17.402 12.854,17.402 12.854,17.402 12.854,17.402 12.986,17.402 13.117,17.361 13.240,17.310 13.426,17.233 13.602,17.130 13.767,17.014 13.794,16.973 13.801,16.920 13.802,16.871 13.801,16.738 13.762,16.608 13.715,16.485 13.042,16.561 13.681,13.564 13.644,13.042 13.651,13.018 13.639,12.994 13.622,12.978 13.566,12.930 13.494,12.907 13.425,12.887 13.246,12.839 13.060,12.822 12.876,12.819 12.868,12.819 12.861,12.819 12.854,12.819 12.854,12.816 12.854,12.816 12.854,12.816 Z M 12.528,13.010 C 12.543,13.010 12.559,13.010 12.574,13.011 12.854,13.011 12.854,13.011 12.854,13.011 12.884,13.010 12.915,13.009 12.946,13.012 13.104,13.022 13.265,13.031 13.414,13.090 13.290,14.005 12.722,16.358 13.545,16.671 13.552,16.701 13.561,16.731 13.569,16.760 13.583,16.811 13.588,16.871 13.553,16.914 13.482,16.958 13.412,17.003 13.339,17.045 13.190,17.130 13.026,17.197 12.854,17.207 12.574,17.207 12.574,17.207 12.574,17.207 12.402,17.197 12.238,17.130 12.090,17.045 12.017,17.003 11.946,16.958 11.875,16.914 11.841,16.871 11.845,16.811 11.859,16.760 11.867,16.731 11.876,16.701 11.883,16.671 12.705,16.358 12.137,14.005 12.014,13.090 12.162,13.031 12.324,13.022 12.482,13.012 12.497,13.010 12.513,13.010 12.528,13.010 Z M 3.348,13.608 C 3.348,13.887 3.348,13.887 3.348,13.887 3.503,13.902 3.503,13.902 3.503,13.902 4.833,14.027 4.833,14.027 4.833,14.027 5.151,14.027 5.151,14.027 5.151,14.027 5.352,14.027 5.352,14.027 5.352,14.027 6.195,14.027 6.195,14.027 6.195,14.027 6.195,13.608 6.195,13.608 6.195,13.608 5.334,13.608 5.334,13.608 5.334,13.608 5.182,13.608 5.182,13.608 5.182,13.608 Z M 19.233,13.608 C 19.233,14.027 19.233,14.027 19.233,14.027 20.076,14.027 20.076,14.027 20.076,14.027 20.277,14.027 20.277,14.027 20.277,14.027 20.595,14.027 20.595,14.027 20.595,14.027 20.598,14.027 20.598,14.027 20.598,14.027 22.084,13.887 22.084,13.887 22.084,13.887 22.084,13.608 22.084,13.608 22.084,13.608 21.634,13.608 21.634,13.608 21.634,13.608 20.246,13.608 20.246,13.608 20.246,13.608 20.093,13.608 20.093,13.608 20.093,13.608 Z M 3.798,14.105 C 3.798,14.992 3.798,14.992 3.798,14.992 5.153,14.992 5.153,14.992 5.153,14.992 5.115,14.789 5.094,14.578 5.094,14.364 5.094,14.308 5.099,14.255 5.107,14.203 4.867,14.203 4.867,14.203 4.867,14.203 4.510,14.174 4.154,14.138 3.798,14.105 Z M 21.634,14.106 C 21.277,14.140 20.919,14.173 20.561,14.203 20.321,14.203 20.321,14.203 20.321,14.203 20.330,14.255 20.334,14.308 20.334,14.364 20.334,14.578 20.314,14.789 20.275,14.992 21.634,14.992 21.634,14.992 21.634,14.992 Z M 5.405,14.203 C 5.403,14.257 5.398,14.309 5.398,14.364 5.398,14.579 5.420,14.789 5.463,14.992 5.870,14.992 5.870,14.992 5.870,14.992 5.807,14.734 5.784,14.468 5.800,14.203 Z M 19.629,14.203 C 19.645,14.468 19.621,14.734 19.558,14.992 19.965,14.992 19.965,14.992 19.965,14.992 20.008,14.789 20.031,14.579 20.031,14.364 20.031,14.309 20.025,14.257 20.022,14.203 Z M 3.348,15.167 C 3.348,15.447 3.348,15.447 3.348,15.447 4.833,15.586 4.833,15.586 4.833,15.586 5.326,15.586 5.326,15.586 5.326,15.586 5.640,15.586 5.640,15.586 5.640,15.586 6.195,15.586 6.195,15.586 6.195,15.586 6.195,15.167 6.195,15.167 6.195,15.167 5.447,15.167 5.447,15.167 5.447,15.167 5.191,15.167 5.191,15.167 5.191,15.167 Z M 19.233,15.167 C 19.233,15.586 19.233,15.586 19.233,15.586 19.788,15.586 19.788,15.586 19.788,15.586 20.102,15.586 20.102,15.586 20.102,15.586 20.595,15.586 20.595,15.586 20.595,15.586 20.598,15.586 20.598,15.586 20.598,15.586 22.084,15.447 22.084,15.447 22.084,15.447 22.084,15.167 22.084,15.167 22.084,15.167 21.634,15.167 21.634,15.167 21.634,15.167 20.236,15.167 20.236,15.167 20.236,15.167 19.981,15.167 19.981,15.167 19.981,15.167 Z M 3.798,15.664 C 3.798,16.270 3.798,16.270 3.798,16.270 3.800,16.290 3.801,16.315 3.803,16.331 3.863,16.757 6.297,17.986 7.106,18.136 7.106,18.142 7.107,18.147 7.109,18.152 7.121,18.264 7.158,18.372 7.193,18.479 7.322,18.846 7.535,19.180 7.791,19.471 8.030,19.740 8.318,19.972 8.649,20.115 8.800,20.179 8.960,20.217 9.122,20.236 9.246,20.263 9.340,20.357 9.428,20.442 9.588,20.602 9.753,20.764 9.955,20.870 10.230,21.018 10.545,21.079 10.856,21.090 10.901,21.094 10.944,21.089 10.987,21.099 11.112,21.143 11.225,21.210 11.344,21.267 11.516,21.341 11.708,21.347 11.892,21.358 12.181,21.369 12.465,21.408 12.714,21.406 12.997,21.403 13.293,21.370 13.536,21.358 13.721,21.347 13.911,21.341 14.084,21.267 14.202,21.210 14.316,21.143 14.441,21.099 14.483,21.089 14.527,21.094 14.573,21.090 14.883,21.079 15.198,21.018 15.473,20.870 15.676,20.764 15.840,20.602 16.000,20.442 16.087,20.357 16.182,20.263 16.306,20.236 16.468,20.217 16.629,20.179 16.779,20.115 17.111,19.972 17.398,19.740 17.637,19.471 17.893,19.180 18.106,18.846 18.235,18.479 18.270,18.372 18.307,18.264 18.319,18.152 18.321,18.147 18.321,18.142 18.322,18.136 19.130,17.986 21.565,16.757 21.624,16.331 21.626,16.315 21.628,16.290 21.630,16.270 21.631,16.270 21.633,16.271 21.634,16.270 21.634,15.666 21.634,15.666 21.634,15.666 21.277,15.699 20.919,15.733 20.561,15.763 20.027,15.763 20.027,15.763 20.027,15.763 19.760,16.336 19.334,16.818 18.806,17.155 18.743,17.243 18.680,17.335 18.619,17.431 18.564,17.459 18.510,17.488 18.462,17.527 18.281,17.684 18.110,17.857 17.981,18.060 17.915,18.168 17.855,18.281 17.805,18.398 17.770,18.484 17.743,18.574 17.730,18.667 17.573,18.864 17.412,19.058 17.239,19.241 17.091,19.404 16.922,19.547 16.727,19.650 16.604,19.720 16.471,19.764 16.332,19.788 16.211,19.802 16.092,19.834 15.986,19.894 15.786,20.009 15.641,20.193 15.467,20.341 15.336,20.457 15.174,20.537 15.007,20.585 14.848,20.630 14.680,20.645 14.516,20.652 14.406,20.651 14.298,20.679 14.198,20.722 14.080,20.770 13.973,20.844 13.851,20.881 13.472,20.976 13.092,21.166 12.715,21.166 12.326,21.166 11.956,20.976 11.576,20.881 11.454,20.844 11.348,20.770 11.230,20.722 11.130,20.679 11.022,20.651 10.912,20.652 10.748,20.645 10.580,20.630 10.421,20.585 10.254,20.537 10.093,20.457 9.961,20.341 9.787,20.193 9.642,20.009 9.442,19.894 9.336,19.834 9.216,19.802 9.096,19.788 8.957,19.764 8.823,19.720 8.700,19.650 8.505,19.547 8.336,19.404 8.188,19.241 8.017,19.060 7.857,18.868 7.702,18.672 7.689,18.578 7.662,18.485 7.626,18.398 7.577,18.281 7.517,18.168 7.451,18.060 7.321,17.857 7.150,17.684 6.969,17.527 6.920,17.486 6.864,17.457 6.807,17.429 6.743,17.327 6.676,17.239 6.610,17.146 6.087,16.810 5.667,16.331 5.403,15.763 4.867,15.763 4.867,15.763 4.867,15.763 4.510,15.733 4.154,15.698 3.798,15.664 Z M 12.238,16.749 C 12.229,16.749 12.221,16.749 12.212,16.749 12.180,16.750 12.148,16.752 12.117,16.761 12.160,16.787 12.210,16.793 12.255,16.811 12.335,16.841 12.414,16.884 12.460,16.960 12.483,16.996 12.491,17.039 12.507,17.078 12.528,17.005 12.529,16.924 12.492,16.856 12.456,16.794 12.383,16.765 12.315,16.754 12.290,16.750 12.264,16.749 12.238,16.749 Z M 13.178,16.749 C 13.096,16.751 13.006,16.771 12.950,16.835 12.900,16.901 12.898,16.992 12.919,17.069 12.922,17.089 12.930,17.046 12.935,17.039 12.952,16.976 12.987,16.920 13.039,16.882 13.107,16.830 13.193,16.803 13.275,16.779 13.282,16.772 13.324,16.761 13.300,16.758 13.260,16.747 13.219,16.749 13.178,16.749 Z M 7.921,17.682 C 7.925,17.686 7.929,17.690 7.932,17.694 8.008,17.779 8.095,17.854 8.197,17.905 8.290,17.954 8.387,17.994 8.489,18.017 8.650,18.062 8.783,18.179 8.877,18.314 8.939,18.398 8.980,18.495 9.028,18.587 9.078,18.680 9.134,18.771 9.209,18.846 9.261,18.897 9.326,18.934 9.386,18.974 9.516,19.070 9.585,19.228 9.603,19.385 9.605,19.391 9.606,19.420 9.607,19.405 9.623,19.245 9.588,19.078 9.526,18.929 9.477,18.812 9.417,18.699 9.351,18.590 9.221,18.388 9.050,18.215 8.869,18.058 8.800,18.000 8.717,17.964 8.636,17.925 8.407,17.819 8.164,17.750 7.921,17.682 Z M 17.511,17.682 C 17.498,17.685 17.486,17.689 17.474,17.692 17.184,17.774 16.889,17.860 16.628,18.012 16.553,18.055 16.496,18.120 16.432,18.176 16.256,18.343 16.097,18.533 15.990,18.753 15.923,18.877 15.865,19.009 15.839,19.147 15.821,19.236 15.816,19.324 15.826,19.413 15.837,19.265 15.892,19.115 16.001,19.011 16.040,18.971 16.090,18.945 16.136,18.915 16.225,18.855 16.297,18.772 16.350,18.680 16.414,18.580 16.456,18.470 16.519,18.368 16.607,18.226 16.731,18.099 16.888,18.035 16.961,18.009 17.039,17.997 17.109,17.964 17.262,17.902 17.405,17.810 17.511,17.682 Z M 12.654,18.883 C 12.386,18.883 11.296,18.895 11.006,19.085 10.768,19.458 11.006,19.223 11.006,19.223 11.478,19.006 11.404,19.021 12.714,19.021 14.024,19.021 13.950,19.006 14.421,19.223 14.421,19.223 14.659,19.458 14.421,19.085 14.131,18.895 13.042,18.883 12.774,18.883 12.735,18.883 12.714,18.884 12.714,18.884 12.714,18.884 12.692,18.883 12.654,18.883 Z " />
</svg>