<?xml version="1.0" encoding="UTF-8" standalone="no"?>
<!DOCTYPE svg PUBLIC "-//W3C//DTD SVG 20010904//EN" "http://www.w3.org/TR/2001/REC-SVG-20010904/DTD/svg10.dtd"[]>
<svg version="1.1" id="Frosty Editor v1.0.6.3" xmlns="http://www.w3.org/2000/svg" d1p1:xlink="http://www.w3.org/1999/xlink" viewBox="0 0 101 25" xmlns:d1p1="xmlns">
  <path stroke="none" fill="#ffffffff" d="M 44.843,4.855 C 44.283,4.855 43.831,5.307 43.831,5.867 43.831,6.218 44.008,6.525 44.278,6.707 40.058,6.707 35.840,6.707 31.615,6.707 28.371,6.707 25.759,9.318 25.759,12.562 25.759,15.806 28.371,18.418 31.615,18.418 33.602,18.418 33.602,18.418 33.602,18.418 33.602,19.762 33.602,19.762 33.602,19.762 33.996,19.762 33.996,19.762 33.996,19.762 33.996,20.240 33.996,20.240 33.996,20.240 71.259,20.240 71.259,20.240 71.259,20.240 71.259,19.762 71.259,19.762 71.259,19.762 71.670,19.762 71.670,19.762 71.670,19.762 71.670,18.418 71.670,18.418 71.670,18.418 73.688,18.418 73.688,18.418 73.688,18.418 76.932,18.418 79.544,15.806 79.544,12.562 79.544,9.318 76.932,6.707 73.688,6.707 68.866,6.707 68.866,6.707 68.866,6.707 68.866,6.544 68.866,6.544 68.866,6.544 68.244,6.544 68.244,6.544 68.244,6.544 68.094,6.444 67.746,6.295 67.302,6.148 67.211,5.864 67.211,5.864 67.211,5.864 66.280,5.864 66.280,5.864 66.280,5.864 65.770,5.748 65.237,5.665 64.773,5.665 54.554,5.665 54.554,5.665 54.554,5.665 52.540,5.665 50.792,6.438 50.686,6.544 50.081,6.544 50.081,6.544 50.081,6.544 50.081,6.707 50.081,6.707 50.081,6.707 48.523,6.707 46.966,6.707 45.409,6.707 45.678,6.525 45.855,6.218 45.855,5.867 45.855,5.307 45.404,4.855 44.843,4.855 Z M 44.842,5.313 C 44.926,5.314 45.009,5.334 45.084,5.370 45.195,5.421 45.289,5.513 45.341,5.625 45.414,5.774 45.415,5.956 45.343,6.105 45.278,6.246 45.149,6.354 45.001,6.397 44.830,6.450 44.634,6.411 44.496,6.298 44.360,6.192 44.283,6.018 44.290,5.846 44.292,5.783 44.309,5.714 44.331,5.655 44.410,5.458 44.613,5.318 44.826,5.314 44.831,5.313 44.837,5.313 44.842,5.313 Z M 62.077,6.091 C 61.932,6.544 61.932,6.544 61.932,6.544 51.798,6.544 51.798,6.544 51.798,6.544 52.614,6.281 53.465,6.123 54.321,6.094 56.923,6.090 59.475,6.091 62.077,6.091 Z M 62.301,6.118 C 66.975,6.118 66.975,6.118 66.975,6.118 67.044,6.334 67.114,6.551 67.183,6.767 62.093,6.767 62.093,6.767 62.093,6.767 62.162,6.551 62.232,6.334 62.301,6.118 Z M 73.072,7.334 C 73.282,7.334 73.491,7.334 73.701,7.336 74.105,7.338 74.508,7.384 74.901,7.477 75.714,7.667 76.482,8.059 77.112,8.607 77.703,9.120 78.179,9.767 78.488,10.484 78.821,11.255 78.959,12.104 78.900,12.939 78.856,13.580 78.692,14.210 78.419,14.793 78.065,15.551 77.522,16.217 76.858,16.723 76.350,17.112 75.770,17.402 75.155,17.580 74.897,17.655 74.633,17.712 74.366,17.746 73.974,17.797 73.577,17.785 73.182,17.787 69.518,17.787 65.770,17.788 62.107,17.788 62.107,16.503 62.107,16.503 62.107,16.503 43.673,16.503 43.673,16.503 43.673,16.503 43.673,17.788 43.673,17.788 43.673,17.788 40.026,17.789 36.295,17.789 32.648,17.788 32.224,17.786 31.799,17.795 31.375,17.781 31.055,17.768 30.735,17.725 30.423,17.653 29.926,17.537 29.448,17.349 29.005,17.095 28.013,16.527 27.217,15.622 26.784,14.566 26.414,13.669 26.302,12.674 26.456,11.717 26.514,11.361 26.608,11.009 26.737,10.673 27.090,9.758 27.708,8.947 28.496,8.363 28.957,8.020 29.479,7.754 30.028,7.580 30.522,7.422 31.039,7.343 31.556,7.337 38.486,7.336 45.416,7.336 52.346,7.335 59.045,7.335 65.745,7.335 72.444,7.335 72.653,7.335 72.863,7.334 73.072,7.334 Z M 31.548,7.929 C 30.828,9.734 30.109,11.539 29.389,13.343 30.315,17.112 30.315,17.112 30.315,17.112 41.714,17.112 41.714,17.112 41.714,17.112 42.025,16.778 42.336,16.443 42.647,16.109 62.619,16.109 62.619,16.109 62.619,16.109 62.938,16.443 63.257,16.778 63.576,17.112 74.899,17.112 74.899,17.112 74.899,17.112 75.229,15.856 75.559,14.599 75.890,13.342 75.170,11.538 74.450,9.733 73.730,7.929 Z M 31.856,8.426 C 31.868,8.426 31.868,8.426 31.868,8.426 35.454,8.426 39.041,8.426 42.628,8.426 42.628,15.533 42.628,15.533 42.628,15.533 42.257,15.894 41.887,16.255 41.517,16.615 30.703,16.615 30.703,16.615 30.703,16.615 30.425,15.518 30.148,14.421 29.870,13.323 30.532,11.691 31.194,10.058 31.856,8.426 Z M 43.124,8.426 C 43.130,8.426 43.136,8.426 43.141,8.426 44.925,8.426 46.708,8.426 48.492,8.426 48.492,15.612 48.492,15.612 48.492,15.612 43.124,15.612 43.124,15.612 43.124,15.612 Z M 48.989,8.426 C 48.994,8.426 49.000,8.426 49.006,8.426 51.448,8.426 53.891,8.426 56.334,8.426 56.334,15.612 56.334,15.612 56.334,15.612 48.989,15.612 48.989,15.612 48.989,15.612 Z M 56.831,8.426 C 56.848,8.426 56.848,8.426 56.848,8.426 58.632,8.426 60.415,8.426 62.198,8.426 62.198,15.612 62.198,15.612 62.198,15.612 56.831,15.612 56.831,15.612 56.831,15.612 Z M 62.695,8.426 C 62.712,8.426 62.712,8.426 62.712,8.426 66.283,8.426 69.853,8.426 73.423,8.426 74.086,10.058 74.748,11.691 75.410,13.323 75.137,14.421 74.865,15.518 74.593,16.615 63.728,16.615 63.728,16.615 63.728,16.615 63.384,16.254 63.039,15.893 62.695,15.532 Z M 76.623,9.301 C 76.062,9.301 75.611,9.752 75.611,10.313 75.611,10.873 76.062,11.324 76.623,11.324 77.183,11.324 77.634,10.873 77.634,10.313 77.634,9.752 77.183,9.301 76.623,9.301 Z M 76.623,9.553 C 77.044,9.553 77.383,9.892 77.383,10.313 77.383,10.734 77.044,11.073 76.623,11.073 76.202,11.073 75.863,10.734 75.863,10.313 75.863,9.892 76.202,9.553 76.623,9.553 Z M 44.165,16.995 C 61.615,16.995 61.615,16.995 61.615,16.995 61.615,19.664 61.615,19.664 61.615,19.664 44.165,19.664 44.165,19.664 44.165,19.664 Z M 44.504,17.334 C 44.504,19.324 44.504,19.324 44.504,19.324 61.276,19.324 61.276,19.324 61.276,19.324 61.276,17.334 61.276,17.334 61.276,17.334 Z M 44.809,17.640 C 60.970,17.640 60.970,17.640 60.970,17.640 60.970,19.019 60.970,19.019 60.970,19.019 44.809,19.019 44.809,19.019 44.809,19.019 Z M 34.572,18.416 C 43.673,18.416 43.673,18.416 43.673,18.416 43.673,19.664 43.673,19.664 43.673,19.664 34.572,19.664 34.572,19.664 34.572,19.664 Z M 62.107,18.416 C 70.682,18.416 70.682,18.416 70.682,18.416 70.682,19.664 70.682,19.664 70.682,19.664 62.107,19.664 62.107,19.664 62.107,19.664 Z " />
</svg>