<?xml version="1.0" encoding="UTF-8" standalone="no"?>
<!DOCTYPE svg PUBLIC "-//W3C//DTD SVG 20010904//EN" "http://www.w3.org/TR/2001/REC-SVG-20010904/DTD/svg10.dtd"[]>
<svg version="1.1" id="Frosty Editor v1.0.6.3" xmlns="http://www.w3.org/2000/svg" d1p1:xlink="http://www.w3.org/1999/xlink" viewBox="0 0 101 25" xmlns:d1p1="xmlns">
  <path stroke="none" fill="#ffffffff" d="M 42.137,0.520 C 42.137,3.851 42.137,3.851 42.137,3.851 40.477,3.851 40.477,3.851 40.477,3.851 39.823,3.851 39.297,4.482 39.297,5.031 39.297,5.637 39.297,5.637 39.297,5.637 38.921,5.715 38.548,5.808 38.186,5.935 36.876,6.397 35.687,7.177 34.779,8.195 34.357,8.661 34.001,9.179 33.704,9.726 31.521,9.799 30.739,11.281 30.593,13.438 30.593,15.585 30.586,18.337 32.622,18.755 32.622,18.752 32.622,18.750 32.622,18.747 32.622,18.750 32.622,18.752 32.622,18.755 32.622,18.755 32.622,18.755 32.622,18.755 32.829,23.817 38.365,26.017 42.436,22.625 52.528,22.625 52.528,22.625 52.528,22.625 52.528,24.949 52.528,24.949 52.528,24.949 55.475,24.949 55.475,24.949 55.475,24.949 55.475,22.625 55.475,22.625 55.475,22.625 65.563,22.625 65.563,22.625 65.563,22.625 69.634,26.017 75.170,23.817 75.377,18.755 75.377,18.755 75.377,18.755 75.377,18.755 75.377,18.752 75.377,18.750 75.377,18.747 75.377,18.750 75.377,18.752 75.377,18.755 77.414,18.337 77.406,15.585 77.406,13.438 77.260,11.276 76.475,9.793 74.283,9.725 74.181,9.538 74.077,9.350 73.959,9.171 72.974,7.668 71.453,6.492 69.706,5.900 68.791,5.590 67.821,5.437 66.851,5.438 66.820,5.438 66.788,5.438 66.757,5.438 64.495,5.438 62.233,5.439 59.970,5.440 58.476,5.009 55.967,3.440 54.022,3.440 52.345,3.440 50.248,4.607 48.743,5.206 48.391,5.020 48.391,5.020 48.391,5.020 48.391,4.293 48.391,4.293 48.391,4.293 47.011,4.293 47.011,4.293 47.011,4.293 46.174,3.851 46.174,3.851 46.174,3.851 46.174,0.520 46.174,0.520 46.174,0.520 Z M 42.804,1.187 C 45.507,1.187 45.507,1.187 45.507,1.187 45.507,3.851 45.507,3.851 45.507,3.851 44.994,3.851 44.994,3.851 44.994,3.851 42.804,3.851 42.804,3.851 42.804,3.851 Z M 53.962,4.004 C 54.383,4.000 54.798,4.073 55.204,4.180 56.281,4.464 57.288,4.951 58.305,5.393 58.343,5.408 58.381,5.424 58.419,5.440 55.484,5.441 52.549,5.442 49.614,5.443 50.408,5.102 51.191,4.733 52.005,4.441 52.638,4.216 53.290,4.027 53.962,4.004 Z M 46.009,4.518 C 46.288,4.665 46.567,4.813 46.846,4.960 47.724,5.423 47.724,5.423 47.724,5.423 47.770,5.447 47.817,5.472 47.864,5.496 48.565,5.866 48.565,5.866 48.565,5.866 48.762,5.970 48.960,6.074 49.157,6.178 66.903,6.178 66.903,6.178 66.903,6.178 70.312,6.178 73.179,8.319 74.129,11.280 74.193,11.479 74.245,11.683 74.291,11.889 74.307,11.956 74.319,12.024 74.332,12.092 74.361,12.246 74.386,12.402 74.406,12.559 74.414,12.626 74.423,12.693 74.429,12.761 74.450,12.981 74.464,13.202 74.464,13.428 74.464,13.653 74.450,13.875 74.429,14.094 74.423,14.162 74.414,14.229 74.406,14.296 74.386,14.453 74.361,14.609 74.332,14.763 74.319,14.831 74.307,14.899 74.291,14.966 74.245,15.172 74.193,15.376 74.129,15.575 74.034,15.871 73.914,16.155 73.782,16.433 73.782,16.434 73.782,16.434 73.782,16.435 73.643,16.726 73.485,17.007 73.309,17.276 71.975,19.319 69.613,20.677 66.903,20.677 65.837,20.677 65.837,20.677 65.837,20.677 64.989,20.677 64.989,20.677 64.989,20.677 54.071,20.677 54.071,20.677 54.071,20.677 54.194,20.633 54.317,20.586 54.437,20.536 58.628,20.536 62.818,20.536 67.009,20.535 68.338,20.520 69.666,20.158 70.809,19.479 71.197,19.249 71.569,18.981 71.907,18.685 72.667,18.023 73.290,17.197 73.707,16.280 74.143,15.321 74.354,14.269 74.321,13.218 74.289,12.168 74.016,11.126 73.519,10.195 72.850,8.935 71.791,7.891 70.533,7.221 69.870,6.865 69.154,6.611 68.418,6.466 67.873,6.359 67.317,6.312 66.759,6.320 64.968,6.319 63.178,6.319 61.387,6.319 54.587,6.319 47.787,6.318 40.987,6.320 39.713,6.332 38.440,6.663 37.326,7.288 36.292,7.867 35.400,8.695 34.757,9.693 34.114,10.688 33.734,11.855 33.670,13.037 33.649,13.420 33.658,13.807 33.701,14.189 33.801,15.111 34.093,16.012 34.551,16.820 35.189,17.951 36.146,18.896 37.274,19.537 38.191,20.062 39.220,20.388 40.268,20.494 40.672,20.539 41.077,20.538 41.484,20.536 43.930,20.536 46.377,20.536 48.824,20.536 48.944,20.586 49.066,20.633 49.190,20.677 43.010,20.677 43.010,20.677 43.010,20.677 42.160,20.677 42.160,20.677 42.160,20.677 41.079,20.677 41.079,20.677 41.079,20.677 38.369,20.677 36.007,19.319 34.673,17.276 34.497,17.007 34.339,16.726 34.201,16.435 34.200,16.434 34.200,16.434 34.200,16.433 34.075,16.170 33.962,15.902 33.870,15.623 33.848,15.557 33.832,15.488 33.812,15.421 33.771,15.281 33.732,15.139 33.699,14.995 33.680,14.913 33.664,14.830 33.648,14.747 33.621,14.604 33.598,14.460 33.580,14.315 33.570,14.241 33.560,14.168 33.553,14.094 33.532,13.875 33.518,13.653 33.518,13.428 33.518,13.217 33.530,13.009 33.548,12.803 33.555,12.728 33.566,12.654 33.575,12.579 33.591,12.451 33.608,12.324 33.630,12.197 33.646,12.109 33.665,12.021 33.684,11.933 33.708,11.823 33.734,11.715 33.763,11.607 33.787,11.517 33.812,11.428 33.840,11.339 34.669,8.683 37.037,6.678 39.963,6.265 39.963,6.263 39.963,6.260 39.963,6.257 39.963,6.257 39.963,6.257 39.963,6.257 39.963,5.888 39.962,5.519 39.962,5.150 39.933,4.850 40.170,4.546 40.473,4.519 42.318,4.519 44.164,4.519 46.009,4.518 Z M 51.897,6.586 C 51.914,6.587 51.931,6.587 51.948,6.588 51.931,6.587 51.914,6.587 51.897,6.586 Z M 51.363,6.586 C 51.346,6.587 51.329,6.587 51.312,6.588 51.329,6.587 51.346,6.587 51.363,6.586 Z M 52.215,6.604 C 52.217,6.604 52.220,6.605 52.222,6.605 52.220,6.605 52.217,6.604 52.215,6.604 Z M 51.044,6.604 C 51.042,6.604 51.039,6.605 51.036,6.605 51.039,6.605 51.042,6.604 51.044,6.604 Z M 52.501,6.633 C 52.504,6.633 52.506,6.633 52.508,6.633 52.506,6.633 52.504,6.633 52.501,6.633 Z M 50.756,6.633 C 50.754,6.633 50.752,6.633 50.750,6.634 50.752,6.633 50.754,6.633 50.756,6.633 Z M 66.781,6.670 C 67.417,6.670 68.055,6.729 68.672,6.884 70.012,7.209 71.258,7.926 72.194,8.940 73.022,9.829 73.610,10.946 73.844,12.141 74.143,13.630 73.909,15.224 73.175,16.556 72.458,17.867 71.298,18.926 69.935,19.535 68.968,19.972 67.906,20.196 66.845,20.179 62.953,20.182 59.060,20.181 55.167,20.181 55.167,20.181 55.167,20.181 55.167,20.181 55.683,19.894 56.160,19.546 56.588,19.146 56.588,19.146 56.588,19.146 56.588,19.146 60.059,19.145 63.530,19.145 67.001,19.143 67.568,19.141 68.133,19.059 68.678,18.896 69.667,18.604 70.583,18.062 71.298,17.316 72.044,16.541 72.574,15.557 72.776,14.500 73.017,13.258 72.830,11.930 72.227,10.810 71.848,10.101 71.308,9.473 70.669,8.977 69.959,8.426 69.120,8.032 68.237,7.847 67.718,7.735 67.185,7.696 66.653,7.705 63.928,7.703 61.203,7.702 58.478,7.702 57.492,7.702 56.505,7.703 55.518,7.703 55.518,7.703 55.519,7.703 55.519,7.703 54.706,7.188 53.783,6.831 52.791,6.673 57.454,6.672 62.117,6.671 66.781,6.670 Z M 50.467,6.673 C 49.473,6.832 48.549,7.191 47.735,7.708 45.408,7.709 43.081,7.709 40.754,7.717 40.237,7.734 39.722,7.833 39.228,7.983 37.875,8.392 36.675,9.300 35.934,10.506 35.673,10.927 35.465,11.386 35.328,11.857 35.140,12.492 35.072,13.167 35.118,13.827 35.152,14.308 35.250,14.788 35.404,15.240 35.790,16.365 36.551,17.348 37.519,18.033 37.985,18.365 38.502,18.629 39.038,18.812 39.639,19.020 40.270,19.132 40.903,19.141 41.668,19.155 42.434,19.147 43.200,19.150 44.358,19.150 45.517,19.149 46.676,19.149 47.104,19.548 47.580,19.896 48.096,20.183 46.144,20.182 44.193,20.184 42.241,20.184 41.541,20.182 40.838,20.206 40.142,20.125 38.612,19.936 37.141,19.248 36.037,18.169 35.125,17.285 34.459,16.140 34.179,14.899 33.872,13.576 33.988,12.158 34.516,10.907 35.045,9.638 35.981,8.551 37.138,7.812 38.155,7.158 39.341,6.776 40.546,6.691 40.924,6.663 41.303,6.680 41.682,6.675 44.610,6.674 47.538,6.674 50.467,6.673 Z M 51.617,6.898 C 51.776,6.898 51.935,6.903 52.091,6.913 53.038,6.971 53.967,7.230 54.811,7.663 56.084,8.312 57.139,9.370 57.796,10.638 58.350,11.703 58.609,12.907 58.565,14.104 58.525,15.290 58.170,16.464 57.547,17.478 56.856,18.607 55.827,19.532 54.631,20.103 53.453,20.668 52.116,20.880 50.824,20.732 50.073,20.647 49.335,20.436 48.649,20.111 47.470,19.556 46.459,18.657 45.763,17.556 45.125,16.558 44.762,15.392 44.700,14.213 44.644,13.188 44.817,12.152 45.203,11.203 45.726,9.917 46.652,8.798 47.809,8.036 48.883,7.325 50.169,6.929 51.459,6.899 51.511,6.898 51.564,6.898 51.617,6.898 Z M 47.528,7.844 C 47.524,7.847 47.520,7.850 47.516,7.852 47.520,7.850 47.524,7.847 47.528,7.844 Z M 59.506,7.985 C 61.207,7.985 62.909,7.985 64.610,7.985 65.470,7.988 66.329,7.978 67.189,7.998 68.190,8.040 69.182,8.338 70.030,8.875 71.029,9.503 71.839,10.446 72.254,11.556 72.731,12.819 72.710,14.267 72.171,15.508 71.685,16.640 70.796,17.587 69.711,18.166 68.927,18.587 68.045,18.834 67.155,18.852 66.020,18.861 64.885,18.857 63.750,18.860 61.458,18.863 59.166,18.862 56.875,18.863 58.122,17.561 58.887,15.792 58.887,13.838 58.887,11.431 57.727,9.306 55.934,7.987 57.125,7.987 58.315,7.985 59.506,7.985 Z M 47.317,7.994 C 45.529,9.313 44.373,11.435 44.373,13.838 44.373,15.794 45.140,17.565 46.391,18.868 46.132,18.868 45.873,18.868 45.614,18.868 44.026,18.867 42.438,18.869 40.851,18.857 39.687,18.827 38.536,18.434 37.600,17.742 36.686,17.070 35.975,16.114 35.633,15.029 35.212,13.704 35.333,12.211 35.987,10.981 36.612,9.793 37.687,8.851 38.944,8.381 39.570,8.143 40.237,8.004 40.908,8.002 41.318,7.997 41.729,8.001 42.139,7.998 43.865,7.994 45.591,7.996 47.317,7.994 Z M 66.864,8.350 C 64.019,8.350 61.728,10.640 61.728,13.486 61.728,16.331 64.019,18.622 66.864,18.622 69.710,18.622 72.001,16.331 72.001,13.486 72.001,10.640 69.710,8.350 66.864,8.350 Z M 51.630,8.358 C 51.418,8.359 51.207,8.371 50.997,8.395 50.059,8.498 49.152,8.855 48.392,9.413 47.583,10.002 46.941,10.818 46.562,11.745 46.065,12.949 46.018,14.330 46.427,15.566 46.834,16.816 47.716,17.899 48.847,18.563 50.016,19.257 51.448,19.479 52.776,19.197 54.060,18.934 55.230,18.178 56.015,17.131 56.795,16.104 57.177,14.792 57.100,13.507 57.030,12.199 56.461,10.928 55.543,9.996 54.531,8.952 53.082,8.354 51.630,8.358 Z M 66.926,8.631 C 67.359,8.638 67.790,8.698 68.207,8.818 68.616,8.934 69.024,9.111 69.390,9.335 70.068,9.744 70.642,10.329 71.044,11.007 71.494,11.759 71.722,12.634 71.718,13.506 71.718,14.284 71.526,15.059 71.163,15.750 70.627,16.780 69.699,17.602 68.617,18.017 68.018,18.247 67.380,18.354 66.742,18.338 65.972,18.321 65.202,18.117 64.525,17.744 63.712,17.301 63.030,16.611 62.591,15.798 62.215,15.105 62.018,14.319 62.010,13.536 62.001,12.754 62.182,11.971 62.537,11.275 62.808,10.744 63.184,10.258 63.628,9.861 64.006,9.524 64.442,9.242 64.908,9.038 65.490,8.784 66.108,8.649 66.741,8.632 66.803,8.631 66.865,8.631 66.926,8.631 Z M 51.630,8.674 C 54.491,8.674 56.795,10.977 56.795,13.838 56.795,16.699 54.491,19.002 51.630,19.002 48.769,19.002 46.466,16.699 46.466,13.838 46.466,10.977 48.769,8.674 51.630,8.674 Z M 40.944,8.680 C 39.178,8.680 37.757,10.102 37.757,11.867 37.757,13.633 39.178,15.054 40.944,15.054 42.709,15.054 44.131,13.633 44.131,11.867 44.131,10.102 42.709,8.680 40.944,8.680 Z M 40.871,8.962 C 40.950,8.962 41.033,8.962 41.109,8.966 41.694,8.998 42.268,9.211 42.730,9.573 43.242,9.966 43.611,10.541 43.765,11.164 43.864,11.566 43.875,11.982 43.803,12.390 43.690,13.035 43.345,13.633 42.852,14.062 42.385,14.474 41.779,14.718 41.164,14.764 40.917,14.782 40.659,14.769 40.418,14.725 39.633,14.588 38.919,14.104 38.492,13.432 38.154,12.908 37.999,12.261 38.047,11.640 38.094,10.966 38.395,10.307 38.874,9.825 39.392,9.290 40.135,8.978 40.871,8.962 Z M 40.944,9.214 C 40.641,9.213 40.339,9.266 40.054,9.367 39.442,9.578 38.920,10.029 38.612,10.598 38.276,11.207 38.202,11.951 38.398,12.617 38.586,13.278 39.048,13.851 39.648,14.184 40.286,14.546 41.077,14.617 41.773,14.388 42.469,14.167 43.055,13.638 43.357,12.974 43.710,12.220 43.669,11.300 43.263,10.574 42.814,9.744 41.886,9.206 40.944,9.214 Z M 51.651,9.236 C 51.618,9.236 51.585,9.236 51.552,9.237 50.923,9.245 50.289,9.389 49.717,9.649 48.906,10.015 48.209,10.628 47.737,11.379 47.315,12.042 47.074,12.811 47.036,13.596 47.010,14.113 47.068,14.626 47.211,15.124 47.422,15.873 47.835,16.561 48.389,17.108 48.666,17.383 48.981,17.626 49.318,17.821 49.969,18.201 50.726,18.412 51.480,18.436 52.384,18.469 53.296,18.227 54.065,17.748 54.932,17.211 55.605,16.379 55.954,15.423 56.354,14.324 56.319,13.075 55.853,12.002 55.501,11.183 54.900,10.474 54.155,9.985 53.833,9.773 53.473,9.600 53.107,9.478 52.639,9.320 52.145,9.239 51.651,9.236 Z M 40.944,9.495 C 42.258,9.495 43.316,10.553 43.316,11.867 43.316,13.181 42.258,14.240 40.944,14.240 39.630,14.240 38.571,13.181 38.571,11.867 38.571,10.553 39.630,9.495 40.944,9.495 Z M 66.864,9.550 C 66.753,9.551 66.643,9.555 66.533,9.565 65.519,9.641 64.548,10.141 63.885,10.910 63.218,11.670 62.879,12.698 62.935,13.705 62.982,14.702 63.437,15.669 64.163,16.352 64.882,17.040 65.875,17.423 66.868,17.421 67.834,17.428 68.793,17.054 69.507,16.406 70.214,15.776 70.667,14.878 70.774,13.939 70.898,12.922 70.598,11.862 69.965,11.057 69.237,10.112 68.054,9.543 66.864,9.550 Z M 66.864,9.831 C 68.889,9.831 70.519,11.461 70.519,13.486 70.519,15.510 68.889,17.141 66.864,17.141 64.840,17.141 63.209,15.510 63.209,13.486 63.209,11.461 64.840,9.831 66.864,9.831 Z M 51.641,9.870 C 51.954,9.874 52.264,9.910 52.570,9.983 53.437,10.185 54.223,10.700 54.768,11.403 55.157,11.900 55.419,12.493 55.531,13.113 55.624,13.628 55.619,14.155 55.512,14.666 55.408,15.167 55.205,15.642 54.920,16.063 54.424,16.799 53.676,17.361 52.831,17.622 51.851,17.930 50.752,17.850 49.831,17.378 49.145,17.031 48.557,16.474 48.177,15.800 47.735,15.027 47.577,14.104 47.708,13.231 47.793,12.659 48.007,12.109 48.330,11.630 48.687,11.097 49.176,10.643 49.748,10.341 50.287,10.053 50.898,9.890 51.506,9.870 51.551,9.869 51.596,9.869 51.641,9.870 Z M 66.851,10.000 C 66.827,10.000 66.802,10.000 66.778,10.001 65.989,10.019 65.208,10.311 64.608,10.825 64.334,11.058 64.087,11.344 63.899,11.649 63.599,12.129 63.423,12.690 63.387,13.253 63.355,13.760 63.428,14.263 63.608,14.736 63.960,15.663 64.729,16.427 65.669,16.762 66.376,17.015 67.161,17.041 67.881,16.821 68.488,16.638 69.040,16.289 69.462,15.814 69.861,15.368 70.146,14.819 70.270,14.233 70.348,13.869 70.370,13.479 70.329,13.106 70.293,12.770 70.207,12.433 70.075,12.122 69.690,11.203 68.888,10.464 67.934,10.166 67.588,10.056 67.218,10.000 66.851,10.000 Z M 33.414,10.315 C 33.369,10.419 33.318,10.520 33.277,10.626 32.872,10.620 32.566,10.628 32.297,10.698 32.628,10.471 33.018,10.361 33.414,10.315 Z M 74.570,10.318 C 74.844,10.349 75.116,10.400 75.369,10.510 75.510,10.568 75.636,10.649 75.756,10.739 75.469,10.637 75.148,10.620 74.707,10.625 74.667,10.521 74.615,10.421 74.570,10.318 Z M 66.864,10.404 C 67.119,10.402 67.372,10.435 67.618,10.498 67.618,10.516 67.618,10.516 67.618,10.516 67.618,11.517 67.618,11.517 67.618,11.517 67.621,11.546 67.617,11.576 67.618,11.605 67.618,11.663 67.618,11.663 67.618,11.663 68.066,11.922 68.066,11.922 68.066,11.922 69.059,11.349 69.059,11.349 69.059,11.349 69.059,11.349 69.059,11.349 69.059,11.349 69.059,11.349 69.059,11.348 69.059,11.348 69.078,11.338 69.078,11.338 69.078,11.338 69.249,11.512 69.398,11.707 69.520,11.920 69.655,12.146 69.758,12.391 69.829,12.644 69.813,12.653 69.813,12.653 69.813,12.653 69.059,11.348 69.059,11.348 69.059,11.348 69.310,11.783 69.561,12.218 69.813,12.653 69.277,12.963 69.277,12.963 69.277,12.963 69.135,13.045 68.993,13.126 68.852,13.208 68.852,13.208 68.852,13.208 68.851,13.208 68.819,13.227 68.819,13.227 68.819,13.227 68.819,13.244 68.819,13.244 68.819,13.244 68.819,13.244 68.820,13.245 68.819,13.246 68.819,13.721 68.819,13.721 68.819,13.721 68.819,13.728 68.819,13.736 68.818,13.744 68.818,13.744 68.819,13.744 68.819,13.744 68.819,13.744 68.819,13.744 68.819,13.744 69.813,14.318 69.813,14.318 69.813,14.318 69.813,14.318 69.813,14.318 69.813,14.318 69.813,14.318 69.813,14.318 69.813,14.318 69.562,14.753 69.310,15.188 69.059,15.623 69.813,14.318 69.813,14.318 69.813,14.318 69.831,14.328 69.831,14.328 69.831,14.328 69.799,14.442 69.760,14.554 69.713,14.664 69.566,15.024 69.348,15.354 69.077,15.633 69.059,15.623 69.059,15.623 69.059,15.623 69.059,15.623 69.059,15.623 69.059,15.623 68.945,15.557 68.945,15.557 68.945,15.557 68.652,15.388 68.359,15.218 68.066,15.049 68.066,15.049 68.066,15.049 68.066,15.049 68.066,15.049 68.066,15.049 68.066,15.049 67.618,15.308 67.618,15.308 67.618,15.308 67.618,16.455 67.618,16.455 67.618,16.455 67.618,16.455 67.618,16.455 67.618,16.455 67.618,16.455 67.618,16.455 67.618,16.455 66.111,16.455 66.111,16.455 66.111,16.455 66.111,15.454 66.111,15.454 66.111,15.454 66.108,15.424 66.112,15.393 66.111,15.362 66.111,15.308 66.111,15.308 66.111,15.308 65.663,15.049 65.663,15.049 65.663,15.049 64.669,15.623 64.669,15.623 64.669,15.623 64.670,15.623 64.670,15.623 64.670,15.623 64.652,15.633 64.652,15.633 64.652,15.633 64.400,15.375 64.193,15.072 64.049,14.741 63.989,14.607 63.939,14.469 63.900,14.328 63.916,14.318 63.916,14.318 63.916,14.318 63.916,14.318 63.916,14.318 63.916,14.318 64.841,13.784 64.841,13.784 64.841,13.784 64.909,13.744 64.909,13.744 64.909,13.744 64.910,13.744 64.910,13.744 64.911,13.744 64.910,13.737 64.910,13.730 64.909,13.723 64.909,13.249 64.909,13.249 64.909,13.249 64.910,13.242 64.910,13.235 64.911,13.228 64.579,13.036 64.248,12.845 63.916,12.654 63.899,12.643 63.899,12.643 63.899,12.643 63.919,12.572 63.942,12.501 63.968,12.431 64.115,12.024 64.351,11.649 64.651,11.338 64.670,11.349 64.670,11.349 64.670,11.349 64.670,11.349 64.670,11.348 64.670,11.348 65.663,11.922 65.663,11.922 65.663,11.922 66.111,11.663 66.111,11.663 66.111,11.663 66.111,11.575 66.111,11.575 66.111,11.575 66.111,11.575 66.111,11.575 66.111,11.575 66.111,10.516 66.111,10.516 66.111,10.516 66.111,10.498 66.111,10.498 66.111,10.498 66.357,10.435 66.610,10.403 66.864,10.404 Z M 65.975,10.535 C 65.975,11.577 65.975,11.577 65.975,11.577 65.863,11.629 65.756,11.691 65.656,11.761 64.752,11.239 64.752,11.239 64.752,11.239 64.961,11.041 65.199,10.873 65.457,10.744 65.623,10.659 65.797,10.589 65.975,10.535 Z M 67.754,10.535 C 68.208,10.673 68.630,10.916 68.977,11.239 68.073,11.761 68.073,11.761 68.073,11.761 67.973,11.691 67.866,11.629 67.754,11.577 Z M 32.440,11.023 C 32.993,11.023 33.439,11.469 33.439,12.023 33.439,12.577 32.993,13.023 32.440,13.023 31.886,13.023 31.440,12.577 31.440,12.023 31.440,11.469 31.886,11.023 32.440,11.023 Z M 75.486,11.023 C 76.040,11.023 76.486,11.469 76.486,12.023 76.486,12.577 76.040,13.023 75.486,13.023 74.932,13.023 74.486,12.577 74.486,12.023 74.486,11.469 74.932,11.023 75.486,11.023 Z M 66.864,12.487 C 66.311,12.487 65.866,12.932 65.866,13.486 65.866,14.039 66.311,14.485 66.864,14.485 67.418,14.485 67.863,14.039 67.863,13.486 67.863,12.932 67.418,12.487 66.864,12.487 Z M 76.723,12.530 C 76.750,12.666 76.772,12.802 76.791,12.938 76.733,12.913 76.673,12.896 76.611,12.883 76.661,12.772 76.701,12.656 76.723,12.530 Z M 66.873,12.640 C 66.967,12.640 67.061,12.657 67.151,12.689 67.248,12.724 67.340,12.778 67.417,12.844 67.599,12.997 67.706,13.232 67.710,13.469 67.715,13.669 67.646,13.873 67.515,14.028 67.386,14.184 67.199,14.290 67.000,14.321 66.889,14.339 66.769,14.334 66.656,14.306 66.420,14.247 66.215,14.081 66.109,13.867 66.065,13.781 66.037,13.685 66.025,13.588 65.994,13.351 66.072,13.101 66.231,12.924 66.388,12.747 66.617,12.641 66.854,12.640 66.860,12.640 66.867,12.640 66.873,12.640 Z M 31.250,12.700 C 31.269,12.766 31.290,12.831 31.318,12.892 31.283,12.900 31.247,12.898 31.213,12.909 31.222,12.840 31.238,12.770 31.250,12.700 Z M 63.863,12.780 C 64.768,13.302 64.768,13.302 64.768,13.302 64.763,13.363 64.760,13.424 64.760,13.486 64.760,13.547 64.763,13.609 64.768,13.669 63.864,14.191 63.864,14.191 63.864,14.191 63.757,13.729 63.755,13.242 63.863,12.780 Z M 69.863,12.781 C 69.971,13.243 69.973,13.730 69.866,14.192 68.961,13.669 68.961,13.669 68.961,13.669 68.966,13.609 68.968,13.547 68.968,13.486 68.968,13.424 68.966,13.363 68.961,13.302 Z M 31.507,13.424 C 31.683,13.424 31.861,13.529 31.869,13.697 31.869,14.140 31.977,15.180 32.033,15.390 32.118,15.705 32.357,16.681 32.465,17.083 32.487,17.470 31.946,17.475 31.793,17.234 31.663,17.008 31.311,15.816 31.224,15.493 31.146,15.202 31.163,14.017 31.163,13.697 31.198,13.506 31.352,13.424 31.507,13.424 Z M 76.418,13.424 C 76.574,13.424 76.728,13.506 76.763,13.697 76.763,14.017 76.779,15.202 76.701,15.493 76.614,15.816 76.263,17.008 76.132,17.234 75.979,17.475 75.439,17.470 75.460,17.083 75.568,16.681 75.808,15.705 75.892,15.390 75.948,15.180 76.057,14.140 76.057,13.697 76.065,13.529 76.242,13.424 76.418,13.424 Z M 75.500,13.790 C 75.465,14.208 75.445,14.627 75.378,15.041 75.265,15.631 75.100,16.209 74.954,16.793 74.864,17.042 74.887,17.332 75.028,17.557 75.193,17.832 75.524,17.974 75.837,17.958 75.762,18.012 75.689,18.052 75.605,18.091 75.392,18.187 75.158,18.237 74.926,18.262 74.882,18.126 74.839,17.989 74.794,17.853 74.731,17.671 74.677,17.486 74.619,17.303 74.582,17.164 74.490,17.041 74.370,16.962 74.816,16.095 75.105,15.154 75.194,14.190 75.204,14.091 75.212,13.991 75.218,13.891 75.321,13.860 75.409,13.825 75.500,13.790 Z M 32.432,13.793 C 32.538,13.833 32.644,13.873 32.767,13.909 32.829,14.914 33.094,15.907 33.537,16.820 33.381,17.306 33.225,17.792 33.068,18.277 33.003,18.263 32.937,18.248 32.871,18.234 32.639,18.194 32.415,18.124 32.216,17.995 32.190,17.977 32.135,17.950 32.199,17.956 32.642,17.955 33.042,17.550 33.026,17.105 32.944,16.633 32.807,16.172 32.694,15.706 32.513,15.085 32.470,14.438 32.432,13.793 Z M 65.656,15.210 C 65.756,15.280 65.863,15.342 65.975,15.394 65.975,16.438 65.975,16.438 65.975,16.438 65.861,16.403 65.748,16.362 65.638,16.314 65.312,16.174 65.011,15.975 64.752,15.732 Z M 68.073,15.210 C 68.977,15.732 68.977,15.732 68.977,15.732 68.692,16.000 68.358,16.215 67.992,16.355 67.914,16.386 67.834,16.413 67.754,16.437 67.754,15.394 67.754,15.394 67.754,15.394 67.866,15.342 67.973,15.280 68.073,15.210 Z M 66.111,16.455 C 67.618,16.455 67.618,16.455 67.618,16.455 67.618,16.474 67.618,16.474 67.618,16.474 67.126,16.597 66.603,16.598 66.111,16.475 Z M 74.082,17.476 C 74.212,17.878 74.340,18.282 74.472,18.683 74.514,18.784 74.531,18.895 74.515,19.003 74.455,19.696 74.267,20.383 73.940,20.995 73.534,21.771 72.889,22.415 72.121,22.834 71.677,23.080 71.182,23.249 70.685,23.335 70.147,23.428 69.597,23.431 69.057,23.350 68.016,23.197 67.041,22.724 66.220,22.072 66.097,21.852 65.974,21.631 65.851,21.411 66.309,21.411 66.767,21.411 67.225,21.410 69.373,21.337 71.484,20.433 72.954,18.925 73.388,18.487 73.763,17.997 74.082,17.476 Z M 33.908,17.501 C 34.016,17.675 34.130,17.847 34.252,18.013 35.371,19.549 37.070,20.691 38.964,21.157 39.815,21.369 40.699,21.442 41.576,21.417 41.766,21.417 41.955,21.417 42.144,21.417 42.085,21.523 42.026,21.629 41.966,21.734 41.892,21.848 41.851,21.983 41.757,22.083 41.201,22.534 40.566,22.888 39.888,23.119 39.272,23.334 38.616,23.431 37.963,23.404 37.204,23.374 36.447,23.166 35.788,22.785 34.983,22.323 34.327,21.604 33.944,20.765 33.667,20.165 33.515,19.514 33.472,18.856 33.617,18.404 33.763,17.952 33.908,17.501 Z M 50.061,20.925 C 50.068,20.927 50.075,20.929 50.082,20.930 50.075,20.929 50.068,20.927 50.061,20.925 Z M 53.199,20.926 C 53.192,20.927 53.186,20.929 53.179,20.930 53.186,20.929 53.192,20.927 53.199,20.926 Z M 50.372,20.987 C 50.375,20.987 50.378,20.988 50.381,20.988 50.378,20.988 50.375,20.987 50.372,20.987 Z M 52.889,20.987 C 52.886,20.987 52.883,20.988 52.880,20.988 52.883,20.988 52.886,20.987 52.889,20.987 Z M 50.676,21.033 C 50.679,21.033 50.682,21.034 50.685,21.034 50.682,21.034 50.679,21.033 50.676,21.033 Z M 52.584,21.033 C 52.581,21.033 52.579,21.034 52.576,21.034 52.579,21.034 52.581,21.033 52.584,21.033 Z M 50.970,21.065 C 50.985,21.066 51.000,21.068 51.015,21.069 51.000,21.068 50.985,21.066 50.970,21.065 Z M 52.291,21.065 C 52.276,21.066 52.261,21.068 52.246,21.069 52.261,21.068 52.276,21.066 52.291,21.065 Z M 51.293,21.087 C 51.309,21.087 51.324,21.088 51.339,21.089 51.324,21.088 51.309,21.087 51.293,21.087 Z M 51.967,21.087 C 51.952,21.087 51.937,21.088 51.921,21.089 51.937,21.088 51.952,21.087 51.967,21.087 Z M 64.890,21.411 C 64.889,21.417 64.889,21.417 64.889,21.417 65.184,21.946 65.184,21.946 65.184,21.946 55.475,21.946 55.475,21.946 55.475,21.946 55.475,21.413 55.475,21.413 55.475,21.413 58.614,21.413 61.752,21.412 64.890,21.411 Z M 54.879,21.414 C 54.879,24.353 54.879,24.353 54.879,24.353 53.125,24.353 53.125,24.353 53.125,24.353 53.125,21.414 53.125,21.414 53.125,21.414 53.709,21.414 54.294,21.414 54.879,21.414 Z M 52.528,21.414 C 52.528,21.946 52.528,21.946 52.528,21.946 42.815,21.946 42.815,21.946 42.815,21.946 43.110,21.417 43.110,21.417 43.110,21.417 43.110,21.417 43.110,21.417 43.110,21.417 46.249,21.416 49.389,21.415 52.528,21.414 Z " />
</svg>