<?xml version="1.0" encoding="UTF-8" standalone="no"?>
<!DOCTYPE svg PUBLIC "-//W3C//DTD SVG 20010904//EN" "http://www.w3.org/TR/2001/REC-SVG-20010904/DTD/svg10.dtd"[]>
<svg version="1.1" id="Frosty Editor v1.0.6.3" xmlns="http://www.w3.org/2000/svg" d1p1:xlink="http://www.w3.org/1999/xlink" viewBox="0 0 96 96" xmlns:d1p1="xmlns">
  <path stroke="#ffffffff" fill="#ffffffff" stroke-width="1" d="M 78.800,46.730 C 78.740,46.707 78.680,46.683 78.620,46.660 78.547,46.700 78.473,46.740 78.400,46.780 76.400,47.870 74.400,48.990 72.350,50.120 71.410,49.680 70.470,49.250 69.530,48.820 70.690,47.820 71.830,46.820 72.940,45.730 73.177,45.503 73.413,45.277 73.650,45.050 73.433,44.700 73.217,44.350 73.000,44.000 72.530,43.290 72.000,42.600 71.560,41.900 71.850,41.700 72.150,41.510 72.430,41.310 73.010,40.900 73.590,40.500 74.160,40.050 74.730,39.600 75.290,39.180 75.850,38.710 76.410,38.240 76.950,37.770 77.480,37.250 76.790,37.430 76.120,37.650 75.480,37.890 74.840,38.130 74.170,38.380 73.480,38.650 72.790,38.920 72.200,39.210 71.560,39.490 70.920,39.770 70.300,40.080 69.670,40.400 69.370,40.550 69.070,40.700 68.770,40.850 69.020,41.257 69.270,41.663 69.520,42.070 69.980,42.820 70.450,43.550 70.920,44.290 69.730,45.410 68.560,46.560 67.430,47.770 67.353,47.847 67.277,47.923 67.200,48.000 67.200,48.087 67.200,48.173 67.200,48.260 67.200,48.440 67.200,48.630 67.130,48.820 66.770,49.487 66.410,50.153 66.050,50.820 65.220,51.430 64.400,52.050 63.580,52.670 63.317,52.447 63.053,52.223 62.790,52.000 62.750,52.000 62.710,52.000 62.670,52.000 62.627,51.977 62.583,51.953 62.540,51.930 61.893,51.577 61.247,51.223 60.600,50.870 60.330,50.723 60.060,50.577 59.790,50.430 59.557,50.660 59.323,50.890 59.090,51.120 58.000,52.150 57.000,53.210 56.000,54.270 55.480,54.800 55.000,55.330 54.410,55.810 54.027,56.143 53.643,56.477 53.260,56.810 52.637,56.700 52.013,56.590 51.390,56.480 51.350,56.480 51.310,56.480 51.270,56.480 49.833,56.363 48.397,56.247 46.960,56.130 46.787,56.130 46.613,56.130 46.440,56.130 46.307,56.233 46.173,56.337 46.040,56.440 44.850,57.360 43.670,58.300 42.490,59.240 42.557,58.163 42.623,57.087 42.690,56.010 43.277,53.797 43.863,51.583 44.450,49.370 44.450,49.333 44.450,49.297 44.450,49.260 44.450,49.237 44.450,49.213 44.450,49.190 44.720,47.020 44.990,44.850 45.260,42.680 47.060,40.230 48.860,37.780 50.660,35.330 52.067,35.663 53.473,35.997 54.880,36.330 55.017,36.363 55.153,36.397 55.290,36.430 55.397,36.360 55.503,36.290 55.610,36.220 56.943,35.377 58.277,34.533 59.610,33.690 59.790,33.577 59.970,33.463 60.150,33.350 60.100,33.147 60.050,32.943 60.000,32.740 59.667,31.493 59.333,30.247 59.000,29.000 58.697,27.377 58.393,25.753 58.090,24.130 58.467,23.490 58.843,22.850 59.220,22.210 60.813,21.673 62.407,21.137 64.000,20.600 64.030,20.600 64.060,20.600 64.090,20.600 64.107,20.583 64.123,20.567 64.140,20.550 64.613,20.077 65.087,19.603 65.560,19.130 65.587,19.103 65.613,19.077 65.640,19.050 65.640,19.017 65.640,18.983 65.640,18.950 65.760,17.420 65.880,15.890 66.000,14.360 66.000,14.340 66.000,14.320 66.000,14.300 66.000,14.300 66.000,14.300 66.000,14.300 65.253,13.633 64.507,12.967 63.760,12.300 64.427,12.997 65.093,13.693 65.760,14.390 65.550,15.840 65.340,17.290 65.130,18.740 64.677,19.143 64.223,19.547 63.770,19.950 62.103,20.413 60.437,20.877 58.770,21.340 58.713,21.340 58.657,21.340 58.600,21.340 58.563,21.397 58.527,21.453 58.490,21.510 57.993,22.257 57.497,23.003 57.000,23.750 56.963,23.807 56.927,23.863 56.890,23.920 56.890,24.000 56.890,24.080 56.890,24.160 57.107,25.883 57.323,27.607 57.540,29.330 57.540,29.330 57.540,29.330 57.540,29.330 57.540,29.330 57.540,29.330 57.540,29.330 57.750,30.370 57.960,31.410 58.170,32.450 57.113,33.083 56.057,33.717 55.000,34.350 53.497,33.923 51.993,33.497 50.490,33.070 50.270,33.007 50.050,32.943 49.830,32.880 49.680,33.070 49.530,33.260 49.380,33.450 47.713,35.570 46.047,37.690 44.380,39.810 44.380,39.120 44.460,38.430 44.480,37.740 44.480,36.600 44.560,35.470 44.570,34.330 44.570,34.220 44.570,34.110 44.570,34.000 44.477,33.857 44.383,33.713 44.290,33.570 42.740,31.200 41.120,28.880 39.450,26.570 40.400,25.860 41.350,25.150 42.280,24.420 42.787,24.023 43.293,23.627 43.800,23.230 43.327,22.820 42.853,22.410 42.380,22.000 41.440,21.180 40.490,20.350 39.520,19.560 38.550,18.770 37.600,18.000 36.600,17.230 35.600,16.460 34.600,15.690 33.600,14.950 32.600,14.210 31.540,13.480 30.470,12.800 31.200,13.800 31.970,14.800 32.760,15.800 33.550,16.800 34.350,17.800 35.180,18.700 36.010,19.600 36.840,20.580 37.680,21.510 38.100,21.980 38.530,22.420 38.960,22.870 37.960,23.520 37.040,24.160 36.100,24.870 35.647,25.203 35.193,25.537 34.740,25.870 35.073,26.330 35.407,26.790 35.740,27.250 37.627,29.917 39.590,32.507 41.630,35.020 41.720,36.020 41.830,36.940 41.930,37.900 42.040,39.030 42.200,40.160 42.360,41.290 42.450,41.920 42.560,42.540 42.660,43.170 42.543,43.927 42.427,44.683 42.310,45.440 40.747,44.910 39.183,44.380 37.620,43.850 37.190,43.703 36.760,43.557 36.330,43.410 36.220,43.870 36.110,44.330 36.000,44.790 35.783,45.947 35.567,47.103 35.350,48.260 34.170,47.900 33.000,47.550 31.820,47.210 31.297,46.040 30.773,44.870 30.250,43.700 30.187,43.560 30.123,43.420 30.060,43.280 29.933,43.187 29.807,43.093 29.680,43.000 28.613,42.267 27.547,41.533 26.480,40.800 26.063,40.280 25.647,39.760 25.230,39.240 25.617,38.240 26.003,37.240 26.390,36.240 26.557,35.810 26.723,35.380 26.890,34.950 26.507,34.710 26.123,34.470 25.740,34.230 24.820,33.660 23.910,33.080 22.990,32.510 21.527,31.610 20.063,30.710 18.600,29.810 18.600,29.810 22.550,35.720 23.190,36.140 22.837,37.013 22.483,37.887 22.130,38.760 22.010,39.057 21.890,39.353 21.770,39.650 21.977,39.913 22.183,40.177 22.390,40.440 23.057,41.290 23.723,42.140 24.390,42.990 24.443,43.057 24.497,43.123 24.550,43.190 24.620,43.237 24.690,43.283 24.760,43.330 25.777,44.017 26.793,44.703 27.810,45.390 28.390,46.633 28.970,47.877 29.550,49.120 29.657,49.350 29.763,49.580 29.870,49.810 30.097,49.873 30.323,49.937 30.550,50.000 32.420,50.530 34.300,51.000 36.180,51.510 36.657,51.633 37.133,51.757 37.610,51.880 37.683,51.393 37.757,50.907 37.830,50.420 38.010,49.207 38.190,47.993 38.370,46.780 39.504,47.259 40.693,47.595 41.910,47.780 41.867,48.067 41.823,48.353 41.780,48.640 41.113,50.867 40.447,53.093 39.780,55.320 39.780,55.360 39.780,55.400 39.780,55.440 39.780,55.493 39.780,55.547 39.780,55.600 39.610,57.700 39.440,59.800 39.270,61.900 38.180,63.267 37.090,64.633 36.000,66.000 34.037,66.273 32.073,66.547 30.110,66.820 29.990,67.110 29.870,67.400 29.750,67.690 28.563,70.587 27.377,73.483 26.190,76.380 27.077,77.170 27.963,77.960 28.850,78.750 28.883,78.667 28.917,78.583 28.950,78.500 30.117,75.597 31.283,72.693 32.450,69.790 34.163,69.527 35.877,69.263 37.590,69.000 39.017,67.197 40.443,65.393 41.870,63.590 41.980,63.460 42.090,63.330 42.200,63.200 42.200,63.037 42.200,62.873 42.200,62.710 42.200,62.673 42.200,62.637 42.200,62.600 43.867,61.373 45.533,60.133 47.200,58.880 48.447,58.997 49.693,59.113 50.940,59.230 51.760,59.370 52.580,59.510 53.400,59.650 53.620,59.687 53.840,59.723 54.060,59.760 54.220,59.613 54.380,59.467 54.540,59.320 55.097,58.810 55.653,58.300 56.210,57.790 56.780,57.290 57.290,56.790 57.810,56.200 58.633,55.340 59.457,54.480 60.280,53.620 60.613,53.787 60.947,53.953 61.280,54.120 61.760,54.493 62.240,54.867 62.720,55.240 62.980,55.443 63.240,55.647 63.500,55.850 63.743,55.653 63.987,55.457 64.230,55.260 65.340,54.350 66.450,53.460 67.550,52.530 67.623,52.467 67.697,52.403 67.770,52.340 67.800,52.273 67.830,52.207 67.860,52.140 67.937,51.967 68.013,51.793 68.090,51.620 68.127,51.620 68.163,51.620 68.200,51.620 68.223,51.530 68.247,51.440 68.270,51.350 68.303,51.210 68.337,51.070 68.370,50.930 68.427,50.800 68.483,50.670 68.540,50.540 69.700,50.980 70.860,51.430 72.030,51.850 72.180,51.903 72.330,51.957 72.480,52.010 72.590,51.937 72.700,51.863 72.810,51.790 74.810,50.457 76.787,49.097 78.740,47.710 80.953,48.230 83.177,48.723 85.410,49.190 83.217,48.343 81.013,47.523 78.800,46.730 78.800,46.730 78.800,46.730 78.800,46.730 Z " />
</svg>