<?xml version="1.0" encoding="UTF-8" standalone="no"?>
<!DOCTYPE svg PUBLIC "-//W3C//DTD SVG 20010904//EN" "http://www.w3.org/TR/2001/REC-SVG-20010904/DTD/svg10.dtd"[]>
<svg version="1.1" id="Frosty Editor v1.0.6.3" xmlns="http://www.w3.org/2000/svg" d1p1:xlink="http://www.w3.org/1999/xlink" viewBox="0 0 101 25" xmlns:d1p1="xmlns">
  <path stroke="none" fill="#ffffffff" d="M 38.642,23.473 C 38.526,23.438 38.018,23.144 37.113,22.591 37.055,22.555 36.960,22.484 36.901,22.432 36.841,22.380 36.775,22.337 36.753,22.337 36.731,22.337 36.677,22.301 36.633,22.257 36.589,22.213 36.350,22.044 36.103,21.880 35.855,21.717 35.627,21.565 35.596,21.542 35.468,21.449 35.322,21.363 35.211,21.314 35.087,21.261 35.008,21.201 34.603,20.853 34.465,20.734 34.266,20.564 34.160,20.475 34.055,20.386 33.903,20.207 33.821,20.077 33.621,19.759 33.573,19.190 33.709,18.770 33.805,18.471 34.267,17.650 34.447,17.458 34.501,17.399 34.546,17.332 34.546,17.309 34.546,17.287 34.601,17.212 34.668,17.144 34.836,16.975 35.356,16.251 35.356,16.188 35.356,16.160 35.386,16.104 35.423,16.063 35.488,15.992 35.681,15.656 35.819,15.374 36.117,14.766 36.261,13.594 36.083,13.225 36.031,13.115 35.972,12.989 35.952,12.945 35.933,12.900 35.796,12.803 35.650,12.729 35.425,12.615 35.293,12.591 34.816,12.578 34.249,12.561 34.249,12.561 34.249,12.561 34.016,12.967 34.016,12.967 34.016,12.967 33.642,13.620 33.298,13.821 32.553,13.825 31.648,13.829 31.137,13.317 31.062,12.329 31.046,12.119 31.020,11.841 31.004,11.713 30.976,11.480 30.976,11.480 30.976,11.480 28.316,11.492 28.316,11.492 28.316,11.492 26.853,11.498 25.628,11.486 25.594,11.465 25.559,11.444 25.532,11.356 25.532,11.268 25.532,11.109 25.532,11.109 25.532,11.109 23.942,11.109 23.942,11.109 23.942,11.109 22.932,11.109 22.011,11.140 21.418,11.194 20.165,11.307 18.053,11.686 16.760,12.029 16.403,12.123 16.027,12.221 15.923,12.246 15.819,12.271 15.418,12.405 15.032,12.542 14.646,12.680 14.198,12.828 14.036,12.871 13.707,12.959 13.157,13.228 11.578,14.077 11.209,14.274 10.188,14.893 10.147,14.943 10.110,14.989 9.281,15.482 8.825,15.730 7.267,16.576 6.536,16.788 6.231,16.483 6.158,16.410 6.098,16.307 6.098,16.254 6.098,16.200 6.063,15.756 6.021,15.266 5.979,14.776 5.930,14.011 5.912,13.566 5.846,11.961 5.769,10.796 5.668,9.868 5.611,9.348 5.550,8.765 5.532,8.572 5.486,8.093 5.310,7.072 5.183,6.548 5.126,6.311 5.039,5.946 4.990,5.738 4.941,5.531 4.748,4.935 4.563,4.416 4.013,2.881 3.920,2.510 4.037,2.326 4.271,1.958 6.278,1.981 7.934,2.371 8.483,2.500 11.371,3.495 11.857,3.722 12.129,3.850 14.245,4.632 14.317,4.632 14.345,4.632 15.101,4.897 15.996,5.220 16.891,5.544 17.769,5.847 17.947,5.893 18.798,6.113 19.443,6.250 20.538,6.441 22.530,6.790 22.948,6.829 25.289,6.892 26.728,6.930 26.919,6.925 27.008,6.849 27.092,6.778 27.312,6.761 28.344,6.748 29.580,6.731 29.580,6.731 29.580,6.731 29.580,6.869 29.580,6.869 29.580,6.869 29.580,7.007 29.580,7.007 29.580,7.007 32.859,7.007 32.859,7.007 32.859,7.007 36.139,7.006 36.139,7.006 36.139,7.006 37.461,6.847 37.461,6.847 37.461,6.847 38.189,6.760 39.014,6.661 39.296,6.629 40.119,6.534 40.052,6.577 40.052,6.142 40.052,5.935 40.058,5.761 40.066,5.756 40.073,5.751 41.440,5.730 43.102,5.709 44.765,5.687 46.192,5.652 46.273,5.630 46.389,5.600 46.435,5.542 46.482,5.368 46.592,4.963 46.801,4.336 46.853,4.254 46.898,4.183 48.082,4.171 56.879,4.158 62.365,4.150 66.906,4.156 66.970,4.171 67.058,4.193 67.117,4.288 67.204,4.551 67.321,4.902 67.321,4.902 67.321,4.902 78.807,4.902 78.807,4.902 78.807,4.902 90.294,4.902 90.294,4.902 90.294,4.902 90.323,4.647 90.323,4.647 90.323,4.647 90.344,4.461 90.390,4.360 90.494,4.269 90.636,4.147 90.652,4.146 92.167,4.146 93.512,4.146 93.701,4.156 93.730,4.231 93.748,4.278 93.763,4.582 93.763,4.906 93.763,5.496 93.763,5.496 93.763,5.496 94.262,5.496 94.262,5.496 94.262,5.496 94.637,5.497 94.916,5.537 95.382,5.656 95.723,5.743 96.064,5.830 96.138,5.849 96.212,5.868 96.418,5.927 96.597,5.979 96.775,6.032 97.115,6.130 97.352,6.197 98.539,6.532 98.567,6.550 98.567,6.960 98.567,7.050 98.603,7.159 98.648,7.204 98.766,7.322 98.768,9.688 98.650,9.844 98.606,9.902 98.570,10.024 98.569,10.116 98.566,10.387 98.461,10.622 98.332,10.646 98.268,10.658 98.046,10.696 97.838,10.730 97.630,10.763 97.339,10.825 97.190,10.868 97.042,10.910 96.617,11.020 96.246,11.113 95.875,11.206 95.377,11.332 95.139,11.393 94.902,11.454 94.525,11.509 94.302,11.516 94.080,11.523 93.835,11.531 93.759,11.535 93.620,11.541 93.620,11.541 93.620,11.541 93.624,12.203 93.624,12.203 93.624,12.203 93.627,12.687 93.604,12.929 93.539,13.107 93.491,13.240 93.411,13.544 93.363,13.781 93.198,14.582 93.171,14.639 92.926,14.682 92.655,14.730 84.153,14.739 83.809,14.692 83.641,14.669 83.538,14.623 83.502,14.555 83.472,14.499 83.351,13.926 83.233,13.281 83.115,12.636 83.000,12.023 82.977,11.919 82.935,11.730 82.935,11.730 82.935,11.730 76.474,11.717 76.474,11.717 76.474,11.717 70.013,11.703 70.013,11.703 70.013,11.703 69.980,11.838 69.980,11.838 69.980,11.838 69.961,11.912 69.927,11.973 69.903,11.973 69.880,11.973 69.852,12.599 69.840,13.363 69.819,14.724 69.816,14.758 69.686,14.984 69.522,15.267 69.153,15.466 68.655,15.538 68.142,15.612 58.834,15.604 58.313,15.529 57.899,15.470 57.622,15.349 57.404,15.133 57.133,14.864 57.138,14.899 57.110,13.317 57.094,12.425 57.061,11.795 57.029,11.764 56.999,11.735 56.805,11.686 56.597,11.654 56.272,11.605 55.881,11.513 55.541,11.405 55.470,11.383 55.433,11.431 55.377,11.621 55.319,11.818 55.281,11.865 55.182,11.865 55.074,11.865 55.059,11.892 55.059,12.081 55.059,12.297 55.059,12.297 55.059,12.297 53.169,12.297 53.169,12.297 53.169,12.297 51.280,12.297 51.280,12.297 51.280,12.297 51.280,12.081 51.280,12.081 51.280,12.081 51.280,11.865 51.280,11.865 51.280,11.865 50.105,11.865 50.105,11.865 50.105,11.865 49.128,11.865 48.909,11.879 48.809,11.949 48.690,12.033 48.689,12.041 48.689,13.630 48.689,15.315 48.673,15.463 48.428,15.966 48.259,16.312 48.246,16.327 47.947,16.522 47.435,16.854 47.241,16.897 46.084,16.927 44.328,16.972 43.918,16.863 43.265,16.174 43.031,15.928 42.821,15.752 42.774,15.762 42.728,15.771 42.645,15.864 42.588,15.968 42.401,16.312 42.004,17.177 41.870,17.533 41.797,17.726 41.698,17.957 41.651,18.046 41.603,18.135 41.564,18.226 41.564,18.247 41.564,18.269 41.466,18.494 41.348,18.748 41.229,19.001 41.132,19.252 41.132,19.304 41.132,19.357 41.083,19.496 41.023,19.613 40.822,20.007 40.824,20.329 41.028,20.893 41.179,21.309 41.209,21.469 41.211,21.852 41.211,22.104 41.181,22.399 41.143,22.506 40.934,23.099 40.132,23.529 39.252,23.520 38.995,23.518 38.720,23.496 38.642,23.473 Z M 39.806,22.795 C 40.324,22.600 40.596,22.300 40.602,21.915 40.603,21.797 40.524,21.461 40.425,21.169 40.175,20.430 40.189,19.796 40.467,19.260 40.506,19.186 40.538,19.079 40.538,19.023 40.538,18.966 40.596,18.796 40.667,18.645 41.056,17.814 41.158,17.582 41.322,17.152 41.421,16.893 41.527,16.635 41.557,16.580 41.671,16.374 42.275,15.083 42.370,14.842 42.425,14.704 42.542,14.433 42.629,14.240 42.717,14.047 42.880,13.683 42.992,13.431 43.335,12.654 43.593,12.075 43.825,11.563 43.947,11.293 44.047,11.057 44.047,11.037 44.047,11.017 41.247,11.001 37.826,11.001 31.604,11.001 31.604,11.001 31.604,11.001 31.620,11.609 31.620,11.609 31.620,11.609 31.636,12.235 31.737,12.702 31.895,12.884 32.054,13.067 32.355,13.214 32.571,13.214 32.946,13.215 33.210,13.007 33.530,12.458 33.813,11.973 33.813,11.973 33.813,11.973 34.657,11.973 34.657,11.973 34.657,11.973 35.343,11.973 35.555,11.992 35.793,12.075 36.279,12.244 36.427,12.353 36.527,12.621 36.577,12.755 36.647,12.912 36.683,12.972 36.911,13.354 36.785,14.650 36.420,15.662 36.316,15.950 35.650,17.019 35.219,17.589 34.633,18.364 34.588,18.431 34.408,18.802 34.214,19.201 34.209,19.513 34.394,19.736 34.626,20.017 35.487,20.698 35.977,20.988 36.471,21.280 36.918,21.584 37.107,21.756 37.165,21.809 37.230,21.852 37.252,21.852 37.274,21.852 37.324,21.883 37.363,21.922 37.451,22.010 38.768,22.809 38.933,22.876 39.146,22.961 39.436,22.935 39.806,22.795 Z M 39.081,21.761 C 38.874,21.696 38.745,21.602 38.647,21.444 38.376,21.006 38.685,20.433 39.193,20.433 39.847,20.433 40.105,21.311 39.552,21.655 39.405,21.747 39.190,21.795 39.081,21.761 Z M 39.476,21.246 C 39.568,21.122 39.575,21.077 39.523,20.962 39.488,20.886 39.398,20.796 39.323,20.762 39.207,20.709 39.162,20.717 39.039,20.808 38.850,20.949 38.822,21.161 38.973,21.312 39.123,21.462 39.336,21.434 39.476,21.246 Z M 38.163,19.913 C 37.762,19.743 37.294,19.538 37.122,19.459 36.951,19.380 36.788,19.314 36.762,19.314 36.735,19.314 36.663,19.250 36.601,19.172 36.407,18.925 36.448,18.581 36.754,17.889 36.900,17.560 37.082,17.139 37.159,16.954 37.236,16.769 37.359,16.489 37.431,16.331 37.503,16.173 37.672,15.776 37.806,15.449 37.940,15.122 38.122,14.710 38.211,14.534 38.301,14.358 38.514,13.897 38.687,13.511 39.108,12.565 39.074,12.611 39.388,12.581 39.624,12.558 39.736,12.589 40.300,12.835 40.654,12.990 41.099,13.181 41.290,13.259 41.778,13.461 41.996,13.677 41.996,13.961 41.996,14.259 41.903,14.514 41.451,15.461 41.239,15.903 41.023,16.374 40.970,16.507 40.917,16.641 40.795,16.920 40.700,17.128 40.604,17.336 40.483,17.615 40.429,17.749 40.376,17.883 40.223,18.223 40.089,18.505 39.955,18.787 39.793,19.151 39.729,19.314 39.458,20.003 39.263,20.241 38.983,20.228 38.933,20.225 38.564,20.084 38.163,19.913 Z M 39.188,19.734 C 39.246,19.639 39.347,19.426 39.412,19.262 39.476,19.098 39.613,18.781 39.716,18.559 40.039,17.860 40.144,17.625 40.309,17.236 40.634,16.473 40.735,16.250 41.124,15.429 41.588,14.449 41.741,14.049 41.701,13.925 41.666,13.820 41.408,13.647 41.105,13.527 40.986,13.480 40.731,13.368 40.538,13.279 39.383,12.746 39.344,12.745 39.138,13.248 38.967,13.666 38.745,14.157 38.460,14.753 38.331,15.020 38.114,15.515 37.975,15.852 37.837,16.190 37.650,16.627 37.560,16.824 37.469,17.021 37.352,17.292 37.299,17.425 37.246,17.559 37.114,17.862 37.005,18.099 36.895,18.335 36.793,18.594 36.777,18.673 36.720,18.959 36.689,18.939 38.271,19.615 38.642,19.773 38.976,19.904 39.014,19.906 39.051,19.907 39.130,19.830 39.188,19.734 Z M 35.092,19.338 C 34.623,18.943 34.886,18.181 35.491,18.181 35.664,18.181 35.769,18.217 35.890,18.319 36.359,18.714 36.096,19.476 35.491,19.476 35.318,19.476 35.213,19.440 35.092,19.338 Z M 35.709,19.074 C 35.782,19.001 35.842,18.899 35.842,18.848 35.842,18.718 35.629,18.505 35.498,18.505 35.359,18.505 35.140,18.710 35.140,18.841 35.140,18.964 35.373,19.207 35.491,19.207 35.538,19.207 35.636,19.147 35.709,19.074 Z M 32.168,12.769 C 31.465,12.295 31.763,11.251 32.603,11.251 33.442,11.251 33.741,12.295 33.037,12.769 32.793,12.934 32.413,12.934 32.168,12.769 Z M 32.931,12.409 C 33.202,12.139 33.122,11.743 32.767,11.596 32.454,11.467 32.117,11.712 32.117,12.070 32.117,12.314 32.365,12.567 32.603,12.567 32.719,12.567 32.823,12.517 32.931,12.409 Z M 37.475,12.637 C 37.302,12.603 37.050,12.332 37.011,12.138 36.912,11.641 37.333,11.194 37.791,11.310 38.518,11.495 38.493,12.510 37.757,12.634 37.669,12.649 37.542,12.650 37.475,12.637 Z M 37.893,12.189 C 38.044,12.038 38.030,11.842 37.859,11.707 37.674,11.562 37.593,11.566 37.432,11.728 37.270,11.889 37.266,11.971 37.411,12.155 37.546,12.326 37.742,12.340 37.893,12.189 Z M 42.295,12.636 C 41.727,12.489 41.597,11.726 42.086,11.405 42.273,11.283 42.630,11.279 42.811,11.398 43.185,11.643 43.199,12.294 42.836,12.533 42.698,12.623 42.437,12.673 42.295,12.636 Z M 42.750,12.122 C 42.824,11.988 42.824,11.958 42.750,11.825 42.635,11.620 42.315,11.587 42.190,11.766 42.142,11.834 42.103,11.927 42.103,11.973 42.103,12.019 42.142,12.112 42.190,12.180 42.315,12.360 42.635,12.326 42.750,12.122 Z M 47.016,16.238 C 47.394,16.133 47.733,15.855 47.906,15.508 48.068,15.185 48.068,15.185 48.068,15.185 48.095,13.341 48.095,13.341 48.095,13.341 48.122,11.496 48.122,11.496 48.122,11.496 48.257,11.377 48.257,11.377 48.257,11.377 48.392,11.258 48.392,11.258 48.392,11.258 51.458,11.296 51.458,11.296 51.458,11.296 54.226,11.331 54.537,11.326 54.656,11.248 54.729,11.200 54.789,11.125 54.789,11.081 54.789,11.011 54.140,11.002 49.593,11.002 44.398,11.002 44.398,11.002 44.398,11.002 44.282,11.285 44.282,11.285 44.282,11.285 44.218,11.441 44.040,11.848 43.885,12.189 43.731,12.530 43.546,12.948 43.476,13.117 43.405,13.285 43.277,13.577 43.192,13.764 42.767,14.699 42.643,14.988 42.643,15.043 42.643,15.077 42.704,15.104 42.778,15.104 42.933,15.104 43.456,15.293 43.503,15.366 43.822,15.866 44.040,16.068 44.362,16.162 44.530,16.212 44.728,16.273 44.802,16.299 44.972,16.358 46.762,16.308 47.016,16.238 Z M 45.153,15.826 C 44.537,15.746 44.347,15.677 44.125,15.455 43.927,15.257 43.899,15.198 43.873,14.912 43.856,14.735 43.853,14.154 43.864,13.620 43.906,11.749 44.120,11.512 45.823,11.450 46.924,11.409 47.218,11.466 47.418,11.754 47.544,11.935 47.568,12.040 47.610,12.601 47.670,13.388 47.626,14.658 47.526,15.025 47.444,15.324 47.268,15.522 46.935,15.688 46.763,15.773 46.574,15.801 46.017,15.822 45.631,15.836 45.242,15.838 45.153,15.826 Z M 46.915,15.342 C 47.251,15.130 47.290,14.979 47.323,13.733 47.353,12.621 47.303,12.076 47.158,11.931 47.097,11.870 47.043,11.871 46.821,11.939 46.676,11.983 46.399,12.068 46.206,12.126 45.251,12.417 44.989,12.662 45.122,13.141 45.215,13.476 45.191,13.968 45.070,14.235 44.912,14.583 44.921,14.914 45.098,15.262 45.244,15.552 45.244,15.552 45.244,15.552 45.972,15.515 45.972,15.515 45.972,15.515 46.622,15.483 46.722,15.464 46.915,15.342 Z M 44.740,15.232 C 44.598,14.912 44.623,14.431 44.799,14.065 44.893,13.870 44.914,13.755 44.890,13.580 44.775,12.738 44.780,12.634 44.938,12.427 45.097,12.218 45.416,12.052 46.071,11.836 46.409,11.725 46.428,11.712 46.256,11.708 45.897,11.699 44.904,11.820 44.730,11.892 44.489,11.993 44.388,12.121 44.263,12.485 44.168,12.760 44.155,12.939 44.155,13.896 44.155,14.992 44.155,14.992 44.155,14.992 44.322,15.183 44.322,15.183 44.322,15.183 44.414,15.288 44.566,15.396 44.660,15.423 44.753,15.450 44.834,15.474 44.840,15.477 44.846,15.480 44.801,15.369 44.740,15.232 Z M 7.083,15.840 C 7.392,15.723 7.577,15.631 8.555,15.106 8.733,15.010 9.117,14.782 9.409,14.600 10.918,13.653 11.002,13.605 12.461,12.856 13.017,12.570 13.558,12.349 14.377,12.074 15.557,11.678 16.034,11.543 17.407,11.215 17.526,11.186 18.109,11.078 18.703,10.974 19.297,10.869 19.892,10.760 20.026,10.730 20.541,10.616 22.315,10.516 23.843,10.516 25.421,10.516 25.421,10.516 25.421,10.516 25.436,9.504 25.436,9.504 25.436,9.504 25.451,8.491 25.451,8.491 25.451,8.491 25.995,8.476 25.995,8.476 25.995,8.476 26.539,8.461 26.539,8.461 26.539,8.461 26.717,8.029 26.717,8.029 26.717,8.029 26.815,7.792 26.884,7.586 26.871,7.573 26.857,7.559 26.071,7.524 25.123,7.494 23.122,7.432 22.302,7.372 21.434,7.224 21.090,7.166 20.626,7.092 20.403,7.062 20.181,7.031 19.828,6.967 19.621,6.921 19.187,6.823 18.736,6.725 18.271,6.628 17.515,6.470 16.362,6.067 10.255,3.822 8.371,3.129 8.117,3.051 7.070,2.845 6.706,2.773 6.180,2.723 5.599,2.704 4.743,2.675 4.695,2.679 4.695,2.774 4.695,2.829 4.878,3.380 5.101,3.997 5.324,4.615 5.541,5.284 5.584,5.483 5.626,5.683 5.699,5.992 5.747,6.170 6.022,7.202 6.323,9.812 6.447,12.243 6.582,14.900 6.661,15.968 6.724,15.968 6.735,15.968 6.896,15.910 7.083,15.840 Z M 58.783,13.350 C 58.783,11.757 58.783,11.757 58.783,11.757 58.274,11.757 58.274,11.757 58.274,11.757 57.764,11.757 57.764,11.757 57.764,11.757 57.730,11.987 57.730,11.987 57.730,11.987 57.711,12.113 57.704,12.731 57.713,13.360 57.730,14.454 57.736,14.509 57.848,14.614 58.078,14.827 58.324,14.942 58.554,14.942 58.783,14.942 58.783,14.942 58.783,14.942 Z M 59.269,13.350 C 59.269,11.970 59.258,11.757 59.188,11.757 59.118,11.757 59.107,11.970 59.107,13.350 59.107,14.729 59.118,14.942 59.188,14.942 59.258,14.942 59.269,14.729 59.269,13.350 Z M 59.863,13.350 C 59.863,11.757 59.863,11.757 59.863,11.757 59.728,11.757 59.728,11.757 59.728,11.757 59.593,11.757 59.593,11.757 59.593,11.757 59.593,13.350 59.593,13.350 59.593,13.350 59.593,14.942 59.593,14.942 59.593,14.942 59.728,14.942 59.728,14.942 59.728,14.942 59.863,14.942 59.863,14.942 59.863,14.942 Z M 60.349,13.350 C 60.349,11.970 60.338,11.757 60.268,11.757 60.198,11.757 60.187,11.970 60.187,13.350 60.187,14.729 60.198,14.942 60.268,14.942 60.338,14.942 60.349,14.729 60.349,13.350 Z M 60.943,13.350 C 60.943,11.757 60.943,11.757 60.943,11.757 60.808,11.757 60.808,11.757 60.808,11.757 60.673,11.757 60.673,11.757 60.673,11.757 60.673,13.350 60.673,13.350 60.673,13.350 60.673,14.942 60.673,14.942 60.673,14.942 60.808,14.942 60.808,14.942 60.808,14.942 60.943,14.942 60.943,14.942 60.943,14.942 Z M 61.428,13.350 C 61.428,11.970 61.418,11.757 61.347,11.757 61.277,11.757 61.266,11.970 61.266,13.350 61.266,14.729 61.277,14.942 61.347,14.942 61.418,14.942 61.428,14.729 61.428,13.350 Z M 62.022,13.350 C 62.022,11.757 62.022,11.757 62.022,11.757 61.887,11.757 61.887,11.757 61.887,11.757 61.752,11.757 61.752,11.757 61.752,11.757 61.752,13.350 61.752,13.350 61.752,13.350 61.752,14.942 61.752,14.942 61.752,14.942 61.887,14.942 61.887,14.942 61.887,14.942 62.022,14.942 62.022,14.942 62.022,14.942 Z M 62.508,13.350 C 62.508,11.970 62.497,11.757 62.427,11.757 62.357,11.757 62.346,11.970 62.346,13.350 62.346,14.729 62.357,14.942 62.427,14.942 62.497,14.942 62.508,14.729 62.508,13.350 Z M 63.102,13.350 C 63.102,11.757 63.102,11.757 63.102,11.757 62.967,11.757 62.967,11.757 62.967,11.757 62.832,11.757 62.832,11.757 62.832,11.757 62.832,13.350 62.832,13.350 62.832,13.350 62.832,14.942 62.832,14.942 62.832,14.942 62.967,14.942 62.967,14.942 62.967,14.942 63.102,14.942 63.102,14.942 63.102,14.942 Z M 63.588,13.350 C 63.588,11.970 63.577,11.757 63.507,11.757 63.437,11.757 63.426,11.970 63.426,13.350 63.426,14.729 63.437,14.942 63.507,14.942 63.577,14.942 63.588,14.729 63.588,13.350 Z M 64.181,13.350 C 64.181,11.757 64.181,11.757 64.181,11.757 64.046,11.757 64.046,11.757 64.046,11.757 63.912,11.757 63.912,11.757 63.912,11.757 63.912,13.350 63.912,13.350 63.912,13.350 63.912,14.942 63.912,14.942 63.912,14.942 64.046,14.942 64.046,14.942 64.046,14.942 64.181,14.942 64.181,14.942 64.181,14.942 Z M 64.667,13.350 C 64.667,11.970 64.656,11.757 64.586,11.757 64.516,11.757 64.505,11.970 64.505,13.350 64.505,14.729 64.516,14.942 64.586,14.942 64.656,14.942 64.667,14.729 64.667,13.350 Z M 65.261,13.350 C 65.261,11.757 65.261,11.757 65.261,11.757 65.126,11.757 65.126,11.757 65.126,11.757 64.991,11.757 64.991,11.757 64.991,11.757 64.991,13.350 64.991,13.350 64.991,13.350 64.991,14.942 64.991,14.942 64.991,14.942 65.126,14.942 65.126,14.942 65.126,14.942 65.261,14.942 65.261,14.942 65.261,14.942 Z M 65.747,13.350 C 65.747,11.970 65.736,11.757 65.666,11.757 65.596,11.757 65.585,11.970 65.585,13.350 65.585,14.729 65.596,14.942 65.666,14.942 65.736,14.942 65.747,14.729 65.747,13.350 Z M 66.341,13.350 C 66.341,11.757 66.341,11.757 66.341,11.757 66.206,11.757 66.206,11.757 66.206,11.757 66.071,11.757 66.071,11.757 66.071,11.757 66.071,13.350 66.071,13.350 66.071,13.350 66.071,14.942 66.071,14.942 66.071,14.942 66.206,14.942 66.206,14.942 66.206,14.942 66.341,14.942 66.341,14.942 66.341,14.942 Z M 66.826,13.350 C 66.826,11.970 66.816,11.757 66.745,11.757 66.675,11.757 66.664,11.970 66.664,13.350 66.664,14.729 66.675,14.942 66.745,14.942 66.816,14.942 66.826,14.729 66.826,13.350 Z M 67.420,13.350 C 67.420,11.757 67.420,11.757 67.420,11.757 67.285,11.757 67.285,11.757 67.285,11.757 67.150,11.757 67.150,11.757 67.150,11.757 67.150,13.350 67.150,13.350 67.150,13.350 67.150,14.942 67.150,14.942 67.150,14.942 67.285,14.942 67.285,14.942 67.285,14.942 67.420,14.942 67.420,14.942 67.420,14.942 Z M 67.906,13.350 C 67.906,11.970 67.895,11.757 67.825,11.757 67.755,11.757 67.744,11.970 67.744,13.350 67.744,14.729 67.755,14.942 67.825,14.942 67.895,14.942 67.906,14.729 67.906,13.350 Z M 68.941,14.764 C 69.175,14.586 69.175,14.586 69.175,14.586 69.189,13.172 69.189,13.172 69.189,13.172 69.203,11.757 69.203,11.757 69.203,11.757 68.717,11.757 68.717,11.757 68.717,11.757 68.230,11.757 68.230,11.757 68.230,11.757 68.230,13.350 68.230,13.350 68.230,13.350 68.230,14.942 68.230,14.942 68.230,14.942 68.469,14.942 68.469,14.942 68.469,14.942 68.656,14.942 68.758,14.903 68.941,14.764 Z M 85.881,13.620 C 85.881,13.161 85.881,13.161 85.881,13.161 88.365,13.161 88.365,13.161 88.365,13.161 90.848,13.161 90.848,13.161 90.848,13.161 90.848,13.620 90.848,13.620 90.848,13.620 90.848,14.078 90.848,14.078 90.848,14.078 91.758,14.078 91.758,14.078 91.758,14.078 92.669,14.078 92.669,14.078 92.669,14.078 92.701,13.876 92.701,13.876 92.701,13.876 92.742,13.626 92.864,13.079 92.976,12.648 93.042,12.395 93.047,12.291 92.999,12.173 92.932,12.009 92.970,11.376 93.060,11.140 93.112,11.002 93.112,11.002 93.112,11.002 92.790,11.002 92.790,11.002 92.790,11.002 92.467,11.002 92.467,11.002 92.467,11.002 92.467,10.813 92.467,10.813 92.467,10.813 92.467,10.639 92.454,10.624 92.307,10.624 92.123,10.624 92.120,10.631 91.923,11.636 91.804,12.244 91.804,12.244 91.804,12.244 88.371,12.230 88.371,12.230 88.371,12.230 84.937,12.216 84.937,12.216 84.937,12.216 84.774,11.460 84.774,11.460 84.774,11.460 84.611,10.705 84.611,10.705 84.611,10.705 84.027,10.689 84.027,10.689 84.027,10.689 83.489,10.675 83.446,10.681 83.472,10.770 83.487,10.823 83.515,11.061 83.534,11.298 83.553,11.536 83.600,11.864 83.639,12.027 83.678,12.190 83.779,12.719 83.863,13.201 84.017,14.078 84.017,14.078 84.017,14.078 84.949,14.078 84.949,14.078 84.949,14.078 85.881,14.078 85.881,14.078 85.881,14.078 Z M 90.524,13.755 C 90.524,13.431 90.524,13.431 90.524,13.431 88.365,13.431 88.365,13.431 88.365,13.431 86.205,13.431 86.205,13.431 86.205,13.431 86.205,13.755 86.205,13.755 86.205,13.755 86.205,14.078 86.205,14.078 86.205,14.078 88.365,14.078 88.365,14.078 88.365,14.078 90.524,14.078 90.524,14.078 90.524,14.078 Z M 91.627,11.555 C 91.675,11.325 91.736,11.045 91.761,10.934 91.808,10.732 91.808,10.732 91.808,10.732 88.364,10.732 88.364,10.732 88.364,10.732 84.919,10.732 84.919,10.732 84.919,10.732 84.990,11.042 84.990,11.042 84.990,11.042 85.029,11.213 85.090,11.492 85.124,11.663 85.187,11.973 85.187,11.973 85.187,11.973 88.363,11.973 88.363,11.973 88.363,11.973 91.539,11.973 91.539,11.973 91.539,11.973 Z M 85.774,11.622 C 85.774,11.487 85.774,11.487 85.774,11.487 88.419,11.487 88.419,11.487 88.419,11.487 91.064,11.487 91.064,11.487 91.064,11.487 91.064,11.622 91.064,11.622 91.064,11.622 91.064,11.757 91.064,11.757 91.064,11.757 88.419,11.757 88.419,11.757 88.419,11.757 85.774,11.757 85.774,11.757 85.774,11.757 Z M 85.126,11.136 C 85.126,11.002 85.126,11.002 85.126,11.002 88.365,11.002 88.365,11.002 88.365,11.002 91.603,11.002 91.603,11.002 91.603,11.002 91.603,11.136 91.603,11.136 91.603,11.136 91.603,11.271 91.603,11.271 91.603,11.271 88.365,11.271 88.365,11.271 88.365,11.271 85.126,11.271 85.126,11.271 85.126,11.271 Z M 69.386,11.365 C 69.513,11.238 69.824,10.526 69.774,10.476 69.766,10.468 66.871,10.446 63.340,10.428 58.714,10.403 56.910,10.376 56.880,10.333 56.857,10.300 56.851,10.224 56.866,10.165 56.880,10.105 56.893,9.322 56.893,8.424 56.894,6.791 56.894,6.791 56.894,6.791 61.132,6.791 61.132,6.791 61.132,6.791 65.369,6.791 65.369,6.791 65.369,6.791 65.369,8.464 65.369,8.464 65.369,8.464 65.369,10.138 65.369,10.138 65.369,10.138 66.100,10.138 66.100,10.138 66.100,10.138 66.831,10.138 66.831,10.138 66.831,10.138 66.716,10.016 66.716,10.016 66.716,10.016 66.628,9.922 66.609,9.852 66.633,9.706 66.650,9.602 66.664,9.475 66.664,9.423 66.664,9.333 67.309,9.328 79.431,9.328 92.197,9.328 92.197,9.328 92.197,9.328 92.197,9.635 92.197,9.635 92.197,9.635 92.197,9.876 92.172,9.969 92.080,10.067 91.962,10.192 91.962,10.192 91.962,10.192 81.068,10.192 81.068,10.192 81.068,10.192 70.173,10.192 70.173,10.192 70.173,10.192 70.173,10.322 70.173,10.322 70.173,10.322 70.173,10.394 70.158,10.491 70.140,10.538 70.111,10.616 70.706,10.624 76.641,10.624 83.175,10.624 83.175,10.624 83.175,10.624 83.192,10.502 83.192,10.502 83.192,10.502 83.209,10.381 83.209,10.381 83.209,10.381 87.582,10.375 87.582,10.375 87.582,10.375 89.987,10.373 92.058,10.367 92.184,10.362 92.413,10.355 92.413,10.355 92.413,10.355 92.413,8.384 92.413,8.384 92.413,8.384 92.413,6.413 92.413,6.413 92.413,6.413 74.222,6.413 74.222,6.413 74.222,6.413 56.030,6.413 56.030,6.413 56.030,6.413 56.022,8.383 56.022,8.383 56.022,8.383 56.018,9.467 56.012,10.384 56.009,10.421 56.005,10.470 56.168,10.496 56.596,10.516 57.188,10.543 57.188,10.543 57.188,10.543 57.260,10.799 57.260,10.799 57.260,10.799 57.300,10.943 57.378,11.080 57.437,11.111 57.495,11.142 57.542,11.202 57.542,11.244 57.542,11.286 57.584,11.345 57.636,11.375 57.788,11.463 69.297,11.453 69.386,11.365 Z M 65.909,8.478 C 65.909,8.087 65.909,8.087 65.909,8.087 78.675,8.087 78.675,8.087 78.675,8.087 91.441,8.087 91.441,8.087 91.441,8.087 91.441,8.439 91.441,8.439 91.441,8.439 91.441,8.672 91.419,8.800 91.374,8.816 91.337,8.830 85.592,8.847 78.608,8.855 65.909,8.869 65.909,8.869 65.909,8.869 Z M 91.145,8.464 C 91.145,8.393 90.817,8.379 78.689,8.370 66.260,8.360 66.233,8.366 66.233,8.436 66.233,8.550 66.191,8.537 79.404,8.547 90.799,8.556 91.145,8.536 91.145,8.464 Z M 66.687,7.659 C 66.675,7.647 66.664,7.493 66.664,7.317 66.664,7.051 66.685,6.980 66.786,6.896 66.904,6.797 67.262,6.795 79.436,6.793 91.965,6.791 91.965,6.791 91.965,6.791 92.064,6.901 92.064,6.901 92.064,6.901 92.129,6.973 92.172,7.122 92.187,7.333 92.209,7.642 92.205,7.655 92.082,7.655 92.012,7.655 86.274,7.661 79.332,7.668 72.390,7.676 66.699,7.672 66.687,7.659 Z M 91.873,7.288 C 91.873,7.234 91.844,7.161 91.809,7.126 91.759,7.076 88.929,7.061 79.402,7.061 67.060,7.061 67.060,7.061 67.060,7.061 66.997,7.198 66.997,7.198 66.997,7.198 66.963,7.274 66.934,7.347 66.934,7.360 66.934,7.374 72.546,7.385 79.404,7.385 91.375,7.385 91.873,7.381 91.873,7.288 Z M 83.182,11.001 C 83.182,10.894 83.155,10.893 76.588,10.907 71.422,10.918 69.988,10.935 69.971,10.987 69.943,11.070 70.682,11.080 77.852,11.097 83.154,11.109 83.182,11.109 83.182,11.001 Z M 57.002,11.006 C 57.002,10.812 56.937,10.786 56.456,10.786 56.172,10.786 55.976,10.808 55.976,10.840 55.976,10.869 56.031,10.895 56.098,10.898 56.165,10.900 56.304,10.935 56.408,10.975 56.627,11.059 57.002,11.079 57.002,11.006 Z M 95.517,10.623 C 95.784,10.558 96.100,10.482 96.219,10.454 96.725,10.334 96.826,10.310 97.082,10.245 97.231,10.208 97.383,10.169 97.420,10.159 97.472,10.145 97.487,9.773 97.487,8.530 97.487,6.918 97.487,6.918 97.487,6.918 97.069,6.794 97.069,6.794 97.069,6.794 96.330,6.574 96.011,6.482 95.652,6.386 95.459,6.335 95.193,6.259 95.062,6.218 94.684,6.100 94.591,6.117 94.552,6.312 94.510,6.524 94.509,10.609 94.551,10.767 94.581,10.878 94.593,10.880 94.807,10.812 94.930,10.773 95.250,10.688 95.517,10.623 Z M 55.706,10.624 C 55.706,10.475 55.692,10.462 55.518,10.462 55.305,10.462 55.258,10.585 55.423,10.710 55.592,10.838 55.706,10.803 55.706,10.624 Z M 93.480,8.431 C 93.494,6.158 93.494,6.158 93.494,6.158 93.291,6.124 93.291,6.124 93.291,6.124 93.179,6.106 93.009,6.090 92.912,6.090 92.737,6.089 92.737,6.089 92.737,6.089 92.737,8.413 92.737,8.413 92.737,8.413 92.737,10.737 92.737,10.737 92.737,10.737 93.101,10.721 93.101,10.721 93.101,10.721 93.466,10.705 93.466,10.705 93.466,10.705 Z M 55.059,8.491 C 55.059,6.305 55.059,6.305 55.059,6.305 55.194,6.305 55.194,6.305 55.194,6.305 55.315,6.305 55.329,6.327 55.329,6.521 55.329,6.732 55.333,6.737 55.518,6.737 55.706,6.737 55.706,6.737 55.706,6.737 55.706,6.427 55.706,6.427 55.706,6.427 55.706,6.116 55.706,6.116 55.706,6.116 61.381,6.131 61.381,6.131 61.381,6.131 67.055,6.146 67.055,6.146 67.055,6.146 67.018,5.996 67.018,5.996 67.018,5.996 66.998,5.914 66.892,5.597 66.782,5.293 66.584,4.740 66.584,4.740 66.584,4.740 56.965,4.740 56.965,4.740 56.965,4.740 47.346,4.740 47.346,4.740 47.346,4.740 47.229,5.131 47.229,5.131 47.229,5.131 47.164,5.346 47.078,5.602 47.036,5.700 46.995,5.797 46.985,5.918 46.962,5.952 46.861,6.102 46.809,6.159 46.535,6.197 45.527,6.309 45.635,6.298 44.748,6.350 44.199,6.383 43.609,6.455 43.209,6.539 42.852,6.614 42.062,6.751 41.454,6.843 40.846,6.935 40.203,7.049 40.025,7.095 39.594,7.206 39.345,7.245 37.758,7.447 36.409,7.620 36.409,7.620 36.409,7.620 33.018,7.641 33.018,7.641 33.018,7.641 30.430,7.656 29.632,7.677 29.649,7.726 29.665,7.775 31.523,7.793 37.560,7.803 45.450,7.817 45.450,7.817 45.450,7.817 45.450,7.088 45.450,7.088 45.450,7.088 45.450,6.359 45.450,6.359 45.450,6.359 50.227,6.359 50.227,6.359 50.227,6.359 55.005,6.359 55.005,6.359 55.005,6.359 55.005,7.844 55.005,7.844 55.005,7.844 55.005,9.328 55.005,9.328 55.005,9.328 50.260,9.328 50.260,9.328 50.260,9.328 45.984,9.328 45.513,9.320 45.483,9.243 45.465,9.196 45.450,8.916 45.450,8.622 45.450,8.087 45.450,8.087 45.450,8.087 37.458,8.087 37.458,8.087 37.458,8.087 29.467,8.087 29.467,8.087 29.467,8.087 29.383,7.884 29.383,7.884 29.383,7.884 29.337,7.773 29.240,7.603 29.167,7.506 29.035,7.331 29.035,7.331 29.035,7.331 28.229,7.331 28.229,7.331 28.229,7.331 27.423,7.331 27.423,7.331 27.423,7.331 27.328,7.472 27.328,7.472 27.328,7.472 27.275,7.550 27.122,7.872 26.987,8.188 26.742,8.761 26.742,8.761 26.742,8.761 26.245,8.777 26.245,8.777 26.245,8.777 25.747,8.792 25.747,8.792 25.747,8.792 25.747,9.654 25.747,9.654 25.747,9.654 25.747,10.516 25.747,10.516 25.747,10.516 25.963,10.516 25.963,10.516 25.963,10.516 26.119,10.516 26.179,10.538 26.179,10.597 26.179,10.668 27.820,10.678 40.619,10.678 55.059,10.678 55.059,10.678 55.059,10.678 Z M 41.051,10.490 C 40.304,10.220 40.354,9.160 41.123,8.953 41.888,8.747 42.461,9.557 42.024,10.224 41.849,10.492 41.396,10.615 41.051,10.490 Z M 41.676,10.088 C 41.946,9.817 41.867,9.422 41.512,9.275 41.199,9.145 40.862,9.391 40.862,9.749 40.862,9.992 41.110,10.246 41.348,10.246 41.464,10.246 41.568,10.196 41.676,10.088 Z M 47.879,5.226 C 47.879,5.064 47.879,5.064 47.879,5.064 49.904,5.064 49.904,5.064 49.904,5.064 51.928,5.064 51.928,5.064 51.928,5.064 51.928,5.226 51.928,5.226 51.928,5.226 51.928,5.388 51.928,5.388 51.928,5.388 49.904,5.388 49.904,5.388 49.904,5.388 47.879,5.388 47.879,5.388 47.879,5.388 Z M 94.236,8.505 C 94.221,6.440 94.221,6.440 94.221,6.440 94.019,6.423 94.019,6.423 94.019,6.423 93.817,6.407 93.817,6.407 93.817,6.407 93.817,8.488 93.817,8.488 93.817,8.488 93.817,10.570 93.817,10.570 93.817,10.570 94.033,10.570 94.033,10.570 94.033,10.570 94.250,10.570 94.250,10.570 94.250,10.570 Z M 55.706,8.626 C 55.706,7.061 55.706,7.061 55.706,7.061 55.518,7.061 55.518,7.061 55.518,7.061 55.329,7.061 55.329,7.061 55.329,7.061 55.329,8.626 55.329,8.626 55.329,8.626 55.329,10.192 55.329,10.192 55.329,10.192 55.518,10.192 55.518,10.192 55.518,10.192 55.706,10.192 55.706,10.192 55.706,10.192 Z M 65.045,8.599 C 65.045,7.061 65.045,7.061 65.045,7.061 61.105,7.061 61.105,7.061 61.105,7.061 57.164,7.061 57.164,7.061 57.164,7.061 57.164,8.599 57.164,8.599 57.164,8.599 57.164,10.138 57.164,10.138 57.164,10.138 61.105,10.138 61.105,10.138 61.105,10.138 65.045,10.138 65.045,10.138 65.045,10.138 Z M 58.433,9.185 C 58.187,9.057 58.136,8.958 58.136,8.617 58.282,7.874 58.117,8.048 60.928,7.975 63.643,7.975 63.609,7.971 63.853,8.282 64.073,8.561 63.942,9.107 63.629,9.216 63.521,9.254 62.624,9.273 61.029,9.272 58.926,9.270 58.572,9.258 58.433,9.185 Z M 59.529,8.739 C 59.563,8.270 59.541,8.249 59.052,8.249 58.543,8.249 58.387,8.345 58.416,8.643 58.439,8.887 58.695,9.005 59.161,8.989 59.512,8.977 59.512,8.977 59.512,8.977 Z M 63.370,8.970 C 63.693,8.905 63.731,8.487 63.428,8.330 63.296,8.262 62.981,8.249 61.539,8.249 59.809,8.249 59.809,8.249 59.809,8.249 59.809,8.626 59.809,8.626 59.809,8.626 59.809,9.004 59.809,9.004 59.809,9.004 61.503,9.004 61.503,9.004 61.503,9.004 62.434,9.004 63.274,8.989 63.370,8.970 Z M 97.983,9.723 C 97.997,9.510 98.033,9.353 98.071,9.341 98.162,9.310 98.161,7.702 98.070,7.611 98.034,7.576 97.992,7.431 97.976,7.291 97.954,7.105 97.920,7.030 97.852,7.017 97.763,7.000 97.757,7.102 97.757,8.541 97.757,10.016 97.762,10.084 97.859,10.084 97.946,10.084 97.964,10.032 97.983,9.723 Z M 91.829,9.833 C 92.100,9.587 92.687,9.598 79.431,9.598 67.077,9.598 66.934,9.599 66.934,9.703 66.934,9.761 66.977,9.833 67.029,9.864 67.092,9.901 71.170,9.919 79.427,9.920 90.801,9.922 91.737,9.915 91.829,9.833 Z M 54.735,7.844 C 54.735,6.683 54.735,6.683 54.735,6.683 50.254,6.683 50.254,6.683 50.254,6.683 45.774,6.683 45.774,6.683 45.774,6.683 45.774,7.844 45.774,7.844 45.774,7.844 45.774,9.004 45.774,9.004 45.774,9.004 50.254,9.004 50.254,9.004 50.254,9.004 54.735,9.004 54.735,9.004 54.735,9.004 Z M 41.888,6.469 C 42.454,6.372 42.454,6.372 42.454,6.372 41.550,6.366 41.550,6.366 41.550,6.366 40.646,6.359 40.646,6.359 40.646,6.359 40.646,6.500 40.646,6.500 40.646,6.500 40.646,6.642 40.646,6.642 40.646,6.642 40.983,6.604 40.983,6.604 40.983,6.604 41.169,6.583 41.576,6.523 41.888,6.469 Z M 92.413,5.981 C 92.413,5.819 92.413,5.819 92.413,5.819 92.764,5.819 92.764,5.819 92.764,5.819 93.115,5.819 93.115,5.819 93.115,5.819 93.115,5.280 93.115,5.280 93.115,5.280 93.115,4.740 93.115,4.740 93.115,4.740 92.041,4.740 92.041,4.740 92.041,4.740 91.112,4.740 90.963,4.751 90.934,4.825 90.916,4.872 90.902,5.188 90.902,5.527 90.902,6.143 90.902,6.143 90.902,6.143 91.657,6.143 91.657,6.143 91.657,6.143 92.413,6.143 92.413,6.143 92.413,6.143 Z M 90.308,5.657 C 90.308,5.495 90.308,5.495 90.308,5.495 78.977,5.509 78.977,5.509 78.977,5.509 72.744,5.516 67.629,5.539 67.609,5.558 67.590,5.578 67.601,5.645 67.634,5.707 67.694,5.819 67.694,5.819 67.694,5.819 79.001,5.819 79.001,5.819 79.001,5.819 90.308,5.819 90.308,5.819 90.308,5.819 Z " />
</svg>