<?xml version="1.0" encoding="UTF-8" standalone="no"?>
<!DOCTYPE svg PUBLIC "-//W3C//DTD SVG 20010904//EN" "http://www.w3.org/TR/2001/REC-SVG-20010904/DTD/svg10.dtd"[]>
<svg version="1.1" id="Frosty Editor v1.0.6.3" xmlns="http://www.w3.org/2000/svg" d1p1:xlink="http://www.w3.org/1999/xlink" viewBox="0 0 384 96" xmlns:d1p1="xmlns">
  <path stroke="none" fill="#ffffffff" d="M 194.150,42.420 C 196.150,42.420 198.150,42.420 200.150,42.420 200.150,44.503 200.150,46.587 200.150,48.670 198.150,48.670 196.150,48.670 194.150,48.670 194.150,46.587 194.150,44.503 194.150,42.420 Z M 193.150,49.670 C 195.817,49.670 198.483,49.670 201.150,49.670 201.150,46.920 201.150,44.170 201.150,41.420 198.483,41.420 195.817,41.420 193.150,41.420 193.150,44.170 193.150,46.920 193.150,49.670 Z " />
  <path stroke="none" fill="#ffffffff" d="M 69.190,41.940 C 69.648,41.936 70.063,42.209 70.241,42.631 70.419,43.053 70.325,43.540 70.003,43.865 69.680,44.191 69.193,44.289 68.770,44.115 68.346,43.941 68.070,43.528 68.070,43.070 68.070,42.450 68.570,41.945 69.190,41.940 69.190,41.940 69.190,41.940 69.190,41.940 Z M 69.190,45.190 C 70.053,45.194 70.834,44.677 71.166,43.880 71.498,43.083 71.317,42.164 70.706,41.554 70.096,40.943 69.177,40.762 68.380,41.094 67.583,41.426 67.066,42.207 67.070,43.070 67.075,44.239 68.021,45.185 69.190,45.190 69.190,45.190 69.190,45.190 69.190,45.190 Z " />
  <path stroke="none" fill="#ffffffff" d="M 26.560,81.880 C 25.828,81.880 25.168,81.439 24.888,80.763 24.608,80.086 24.762,79.308 25.280,78.790 25.798,78.272 26.576,78.118 27.253,78.398 27.929,78.678 28.370,79.338 28.370,80.070 28.359,81.063 27.554,81.865 26.560,81.870 26.560,81.873 26.560,81.877 26.560,81.880 Z M 26.560,77.250 C 25.423,77.250 24.399,77.935 23.964,78.985 23.529,80.035 23.769,81.243 24.573,82.047 25.377,82.851 26.585,83.091 27.635,82.656 28.685,82.221 29.370,81.197 29.370,80.060 29.365,78.510 28.110,77.256 26.560,77.250 26.560,77.250 26.560,77.250 26.560,77.250 Z " />
  <path stroke="none" fill="#ffffffff" d="M 379.130,49.670 C 376.617,49.670 374.103,49.670 371.590,49.670 371.590,47.003 371.590,44.337 371.590,41.670 374.103,41.670 376.617,41.670 379.130,41.670 379.130,44.337 379.130,47.003 379.130,49.670 Z M 350.510,49.670 C 350.510,47.003 350.510,44.337 350.510,41.670 357.203,41.670 363.897,41.670 370.590,41.670 370.590,44.337 370.590,47.003 370.590,49.670 363.897,49.670 357.203,49.670 350.510,49.670 Z M 222.790,49.670 C 222.790,49.593 222.790,49.517 222.790,49.440 222.877,46.833 222.963,44.227 223.050,41.620 262.677,41.620 302.303,41.620 341.930,41.620 341.930,44.287 341.930,46.953 341.930,49.620 302.217,49.637 262.503,49.653 222.790,49.670 Z M 220.790,52.000 C 218.833,52.000 216.877,52.000 214.920,52.000 214.920,46.623 214.920,41.247 214.920,35.870 215.060,34.413 215.200,32.957 215.340,31.500 217.027,31.500 218.713,31.500 220.400,31.500 220.537,32.923 220.673,34.347 220.810,35.770 220.810,40.293 220.810,44.817 220.810,49.340 220.783,50.110 220.757,50.880 220.730,51.650 220.757,51.650 220.783,51.650 220.810,51.650 220.803,51.767 220.797,51.883 220.790,52.000 Z M 208.440,49.650 C 208.440,46.983 208.440,44.317 208.440,41.650 209.927,41.650 211.413,41.650 212.900,41.650 212.900,44.317 212.900,46.983 212.900,49.650 211.413,49.650 209.927,49.650 208.440,49.650 Z M 206.440,51.140 C 203.357,51.593 200.273,52.047 197.190,52.500 183.857,52.663 170.523,52.827 157.190,52.990 157.327,48.083 157.463,43.177 157.600,38.270 170.797,38.430 183.993,38.590 197.190,38.750 200.273,39.203 203.357,39.657 206.440,40.110 206.440,43.787 206.440,47.463 206.440,51.140 Z M 154.770,68.390 C 146.847,68.023 138.923,67.657 131.000,67.290 131.367,54.797 131.733,42.303 132.100,29.810 140.007,29.810 147.913,29.810 155.820,29.810 155.470,42.670 155.120,55.530 154.770,68.390 Z M 127.140,55.390 C 127.427,47.407 127.713,39.423 128.000,31.440 128.087,31.440 128.173,31.440 128.260,31.440 128.303,29.607 128.347,27.773 128.390,25.940 129.077,25.940 129.763,25.940 130.450,25.940 130.450,26.730 130.450,27.520 130.450,28.310 130.380,28.310 130.310,28.310 130.240,28.310 129.827,41.270 129.413,54.230 129.000,67.190 128.373,67.160 127.747,67.130 127.120,67.100 127.200,63.237 127.280,59.373 127.360,55.510 127.287,55.470 127.213,55.430 127.140,55.390 Z M 119.250,54.710 C 108.390,54.710 97.530,54.710 86.670,54.710 86.670,53.257 86.670,51.803 86.670,50.350 86.723,50.350 86.777,50.350 86.830,50.350 90.340,49.657 93.850,48.963 97.360,48.270 97.360,46.427 97.360,44.583 97.360,42.740 93.820,42.043 90.280,41.347 86.740,40.650 86.717,40.650 86.693,40.650 86.670,40.650 86.670,39.473 86.670,38.297 86.670,37.120 97.670,37.120 108.670,37.120 119.670,37.120 119.670,37.517 119.670,37.913 119.670,38.310 120.880,39.643 122.090,40.977 123.300,42.310 123.300,46.110 123.300,49.910 123.300,53.710 121.950,54.043 120.600,54.377 119.250,54.710 Z M 98.250,57.110 C 96.717,57.125 95.187,56.991 93.680,56.710 96.727,56.710 99.773,56.710 102.820,56.710 101.312,56.981 99.782,57.105 98.250,57.080 98.250,57.090 98.250,57.100 98.250,57.110 Z M 60.500,54.710 C 60.500,56.130 60.500,57.550 60.500,58.970 61.250,59.513 62.000,60.057 62.750,60.600 62.750,61.183 62.750,61.767 62.750,62.350 61.857,62.797 60.963,63.243 60.070,63.690 60.020,63.760 59.970,63.830 59.920,63.900 58.427,66.075 56.483,67.904 54.220,69.260 55.982,67.705 56.994,65.470 57.000,63.120 56.880,59.246 54.221,55.915 50.470,54.940 52.050,55.170 53.630,55.400 55.210,55.630 56.877,55.630 58.543,55.630 60.210,55.630 60.210,55.297 60.210,54.963 60.210,54.630 58.580,54.630 56.950,54.630 55.320,54.630 53.003,54.297 50.687,53.963 48.370,53.630 36.413,53.630 24.457,53.630 12.500,53.630 12.500,53.653 12.500,53.677 12.500,53.700 11.083,53.700 9.667,53.700 8.250,53.700 7.067,51.253 5.883,48.807 4.700,46.360 5.547,43.637 6.393,40.913 7.240,38.190 33.207,38.190 59.173,38.190 85.140,38.190 85.320,38.090 85.500,37.990 85.680,37.890 85.680,38.810 85.680,39.730 85.680,40.650 85.287,40.650 84.893,40.650 84.500,40.650 84.500,40.143 84.500,39.637 84.500,39.130 82.000,39.130 79.500,39.130 77.000,39.130 77.000,39.637 77.000,40.143 77.000,40.650 76.397,40.650 75.793,40.650 75.190,40.650 75.190,40.477 75.190,40.303 75.190,40.130 75.100,40.087 75.010,40.043 74.920,40.000 73.131,39.127 71.179,38.640 69.190,38.570 67.195,38.690 65.240,39.175 63.420,40.000 63.323,40.043 63.227,40.087 63.130,40.130 63.130,40.307 63.130,40.483 63.130,40.660 60.963,40.660 58.797,40.660 56.630,40.660 56.630,40.147 56.630,39.633 56.630,39.120 54.130,39.120 51.630,39.120 49.130,39.120 49.130,39.627 49.130,40.133 49.130,40.640 47.977,40.640 46.823,40.640 45.670,40.640 45.003,40.260 44.337,39.880 43.670,39.500 40.240,39.500 36.810,39.500 33.380,39.500 33.380,43.333 33.380,47.167 33.380,51.000 33.410,51.167 33.440,51.333 33.470,51.500 36.857,51.500 40.243,51.500 43.630,51.500 44.317,51.117 45.003,50.733 45.690,50.350 46.837,50.350 47.983,50.350 49.130,50.350 49.130,50.900 49.130,51.450 49.130,52.000 51.630,52.000 54.130,52.000 56.630,52.000 56.630,51.450 56.630,50.900 56.630,50.350 58.797,50.350 60.963,50.350 63.130,50.350 63.130,50.567 63.130,50.783 63.130,51.000 63.227,51.043 63.323,51.087 63.420,51.130 65.240,51.952 67.196,52.433 69.190,52.550 71.179,52.480 73.131,51.993 74.920,51.120 75.010,51.073 75.100,51.027 75.190,50.980 75.190,50.763 75.190,50.547 75.190,50.330 75.793,50.330 76.397,50.330 77.000,50.330 77.000,50.887 77.000,51.443 77.000,52.000 79.500,52.000 82.000,52.000 84.500,52.000 84.500,51.450 84.500,50.900 84.500,50.350 84.890,50.350 85.280,50.350 85.670,50.350 85.670,51.797 85.670,53.243 85.670,54.690 77.280,54.697 68.890,54.703 60.500,54.710 Z M 47.630,69.710 C 45.816,69.731 44.051,69.127 42.630,68.000 44.243,68.000 45.857,68.000 47.470,68.000 47.200,67.717 46.930,67.433 46.660,67.150 45.128,65.761 44.271,63.778 44.310,61.710 44.576,59.703 45.569,57.864 47.100,56.540 47.267,56.540 47.433,56.540 47.600,56.540 51.690,56.540 55.010,59.540 55.010,63.130 55.010,66.720 51.720,69.710 47.630,69.710 47.630,69.710 47.630,69.710 47.630,69.710 Z M 45.230,67.000 C 44.037,67.000 42.843,67.000 41.650,67.000 40.735,65.913 40.229,64.541 40.220,63.120 40.344,60.069 42.501,57.481 45.480,56.810 44.272,58.152 43.522,59.844 43.340,61.640 43.256,63.603 43.933,65.523 45.230,67.000 45.230,67.000 45.230,67.000 45.230,67.000 Z M 39.670,68.320 C 38.642,68.030 37.540,68.163 36.610,68.690 37.477,63.987 38.343,59.283 39.210,54.580 41.577,54.580 43.943,54.580 46.310,54.580 41.750,55.170 38.230,58.750 38.230,63.080 38.244,65.162 39.057,67.159 40.500,68.660 40.270,68.563 40.040,68.467 39.810,68.370 39.763,68.353 39.717,68.337 39.670,68.320 Z M 34.940,88.440 C 34.913,88.483 34.887,88.527 34.860,88.570 34.780,88.730 32.700,92.470 24.120,90.780 22.839,90.534 21.695,89.822 20.910,88.780 19.780,87.270 19.420,85.080 19.850,82.330 20.900,77.620 21.950,72.910 23.000,68.200 23.670,65.955 23.715,63.569 23.130,61.300 22.812,58.967 22.092,56.706 21.000,54.620 26.730,54.620 32.460,54.620 38.190,54.620 37.243,59.747 36.297,64.873 35.350,70.000 34.954,70.716 34.709,71.506 34.630,72.320 34.380,75.947 34.130,79.573 33.880,83.200 33.880,83.367 33.880,83.533 33.880,83.700 34.007,83.810 34.133,83.920 34.260,84.030 34.470,84.280 36.580,86.200 34.940,88.480 34.940,88.467 34.940,88.453 34.940,88.440 Z M 17.890,82.000 C 17.890,82.210 17.890,82.410 17.820,82.610 17.213,82.497 16.607,82.383 16.000,82.270 16.627,79.240 17.253,76.210 17.880,73.180 18.510,73.310 19.140,73.440 19.770,73.570 19.143,76.380 18.517,79.190 17.890,82.000 Z M 16.530,54.620 C 17.630,54.620 18.730,54.620 19.830,54.620 20.379,55.638 20.847,56.698 21.230,57.790 19.964,56.344 18.345,55.252 16.530,54.620 16.530,54.620 16.530,54.620 16.530,54.620 Z M 56.880,32.000 C 56.880,29.423 56.880,26.847 56.880,24.270 58.380,24.270 59.880,24.270 61.380,24.270 61.380,26.847 61.380,29.423 61.380,32.000 59.880,32.000 58.380,32.000 56.880,32.000 Z M 53.190,34.750 C 52.340,34.750 51.190,32.310 51.190,28.340 51.190,24.370 52.380,21.930 53.190,21.930 53.750,21.930 54.460,23.000 54.880,24.880 54.880,27.187 54.880,29.493 54.880,31.800 54.460,33.680 53.750,34.750 53.190,34.750 53.190,34.750 53.190,34.750 53.190,34.750 Z M 63.380,18.810 C 70.670,18.810 77.960,18.810 85.250,18.810 85.250,19.373 85.250,19.937 85.250,20.500 85.250,20.500 85.250,20.500 85.250,20.500 85.250,25.613 85.250,30.727 85.250,35.840 85.040,35.957 84.830,36.073 84.620,36.190 77.540,36.190 70.460,36.190 63.380,36.190 63.380,30.397 63.380,24.603 63.380,18.810 Z M 83.490,49.350 C 83.490,49.900 83.490,50.450 83.490,51.000 81.660,51.000 79.830,51.000 78.000,51.000 78.000,47.883 78.000,44.767 78.000,41.650 78.000,41.650 78.000,41.650 78.000,41.650 78.000,41.143 78.000,40.637 78.000,40.130 79.833,40.130 81.667,40.130 83.500,40.130 83.500,43.207 83.500,46.283 83.500,49.360 83.497,49.357 83.493,49.353 83.490,49.350 Z M 75.180,41.640 C 75.787,41.640 76.393,41.640 77.000,41.640 77.000,44.210 77.000,46.780 77.000,49.350 76.397,49.350 75.793,49.350 75.190,49.350 75.187,46.780 75.183,44.210 75.180,41.640 Z M 56.620,41.640 C 58.783,41.640 60.947,41.640 63.110,41.640 63.110,44.210 63.110,46.780 63.110,49.350 60.950,49.350 58.790,49.350 56.630,49.350 56.627,46.780 56.623,44.210 56.620,41.640 Z M 55.620,49.350 C 55.620,49.900 55.620,50.450 55.620,51.000 53.787,51.000 51.953,51.000 50.120,51.000 50.120,47.880 50.120,44.760 50.120,41.640 50.120,41.640 50.120,41.640 50.120,41.640 50.120,41.133 50.120,40.627 50.120,40.120 51.953,40.120 53.787,40.120 55.620,40.120 55.620,43.197 55.620,46.273 55.620,49.350 55.620,49.350 55.620,49.350 55.620,49.350 Z M 45.780,41.640 C 46.893,41.640 48.007,41.640 49.120,41.640 49.120,44.210 49.120,46.780 49.120,49.350 48.010,49.350 46.900,49.350 45.790,49.350 45.787,46.780 45.783,44.210 45.780,41.640 Z M 44.630,49.790 C 44.210,50.027 43.790,50.263 43.370,50.500 40.370,50.500 37.370,50.500 34.370,50.500 34.370,47.167 34.370,43.833 34.370,40.500 37.370,40.500 40.370,40.500 43.370,40.500 43.793,40.737 44.217,40.973 44.640,41.210 44.637,44.070 44.633,46.930 44.630,49.790 Z M 64.110,49.350 C 64.110,46.780 64.110,44.210 64.110,41.640 64.110,41.640 64.110,41.640 64.110,41.640 64.110,41.347 64.110,41.053 64.110,40.760 65.714,40.067 67.426,39.661 69.170,39.560 70.899,39.625 72.598,40.029 74.170,40.750 74.170,43.960 74.170,47.170 74.170,50.380 72.598,51.102 70.899,51.507 69.170,51.570 67.426,51.468 65.714,51.062 64.110,50.370 64.110,50.037 64.110,49.703 64.110,49.370 64.110,49.363 64.110,49.357 64.110,49.350 Z M 84.500,49.350 C 84.500,46.780 84.500,44.210 84.500,41.640 85.213,41.640 85.927,41.640 86.640,41.640 89.880,42.280 93.120,42.920 96.360,43.560 96.360,44.857 96.360,46.153 96.360,47.450 93.153,48.087 89.947,48.723 86.740,49.360 85.993,49.357 85.247,49.353 84.500,49.350 Z M 88.500,23.100 C 88.500,27.100 88.500,31.100 88.500,35.100 88.083,35.100 87.667,35.100 87.250,35.100 87.250,31.100 87.250,27.100 87.250,23.100 87.667,23.100 88.083,23.100 88.500,23.100 Z M 104.920,23.390 C 105.727,23.390 106.533,23.390 107.340,23.390 107.340,27.300 107.340,31.210 107.340,35.120 106.533,35.120 105.727,35.120 104.920,35.120 104.920,31.210 104.920,27.300 104.920,23.390 Z M 92.920,23.180 C 96.587,23.243 100.253,23.307 103.920,23.370 103.920,27.287 103.920,31.203 103.920,35.120 100.253,35.120 96.587,35.120 92.920,35.120 92.920,31.140 92.920,27.160 92.920,23.180 Z M 89.500,35.120 C 89.500,31.120 89.500,27.120 89.500,23.120 90.307,23.120 91.113,23.120 91.920,23.120 91.920,27.120 91.920,31.120 91.920,35.120 91.113,35.120 90.307,35.120 89.500,35.120 Z M 115.750,29.690 C 115.750,30.657 115.750,31.623 115.750,32.590 114.360,32.590 112.970,32.590 111.580,32.590 111.580,33.427 111.580,34.263 111.580,35.100 110.497,35.100 109.413,35.100 108.330,35.100 108.330,31.217 108.330,27.333 108.330,23.450 110.180,23.483 112.030,23.517 113.880,23.550 114.503,25.597 115.127,27.643 115.750,29.690 Z M 119.620,33.690 C 119.620,34.170 119.620,34.650 119.620,35.130 117.287,35.130 114.953,35.130 112.620,35.130 112.620,34.623 112.620,34.117 112.620,33.610 113.677,33.610 114.733,33.610 115.790,33.610 115.790,33.633 115.790,33.657 115.790,33.680 117.067,33.683 118.343,33.687 119.620,33.690 Z M 124.740,33.690 C 125.117,32.940 125.493,32.190 125.870,31.440 125.903,31.440 125.937,31.440 125.970,31.440 125.713,39.003 125.457,46.567 125.200,54.130 124.887,53.933 124.573,53.737 124.260,53.540 124.260,49.670 124.260,45.800 124.260,41.930 123.053,40.597 121.847,39.263 120.640,37.930 120.640,36.517 120.640,35.103 120.640,33.690 122.007,33.690 123.373,33.690 124.740,33.690 Z M 142.250,25.310 C 145.667,25.310 149.083,25.310 152.500,25.310 152.500,26.143 152.500,26.977 152.500,27.810 149.083,27.810 145.667,27.810 142.250,27.810 142.250,26.977 142.250,26.143 142.250,25.310 Z M 157.770,32.690 C 157.797,31.710 157.823,30.730 157.850,29.750 158.667,29.750 159.483,29.750 160.300,29.750 160.000,31.091 159.051,32.193 157.770,32.690 157.770,32.690 157.770,32.690 157.770,32.690 Z M 345.150,30.320 C 345.393,29.540 345.637,28.760 345.880,27.980 346.080,27.980 346.280,27.980 346.480,27.980 346.723,28.760 346.967,29.540 347.210,30.320 347.210,31.420 347.210,32.520 347.210,33.620 346.520,33.620 345.830,33.620 345.140,33.620 345.143,32.520 345.147,31.420 345.150,30.320 Z M 349.050,35.760 C 349.190,36.037 349.330,36.313 349.470,36.590 349.470,41.510 349.470,46.430 349.470,51.350 347.277,51.350 345.083,51.350 342.890,51.350 342.890,46.430 342.890,41.510 342.890,36.590 343.030,36.313 343.170,36.037 343.310,35.760 345.223,35.760 347.137,35.760 349.050,35.760 Z M 218.390,26.840 C 218.390,27.643 218.390,28.447 218.390,29.250 217.890,29.250 217.390,29.250 216.890,29.250 216.890,28.533 216.890,27.817 216.890,27.100 217.390,27.013 217.890,26.927 218.390,26.840 Z M 208.520,25.400 C 209.591,24.475 210.965,23.977 212.380,24.000 215.970,24.000 219.560,24.000 223.150,24.000 217.967,24.887 212.783,25.773 207.600,26.660 207.849,26.191 208.174,25.765 208.560,25.400 208.547,25.400 208.533,25.400 208.520,25.400 Z M 199.250,29.250 C 199.580,27.050 200.750,22.090 204.650,19.870 204.673,19.870 204.697,19.870 204.720,19.870 204.720,19.870 204.720,19.870 204.720,19.870 205.928,19.200 207.279,18.830 208.660,18.790 209.327,18.790 209.993,18.790 210.660,18.790 210.660,15.733 210.660,12.677 210.660,9.620 211.827,9.620 212.993,9.620 214.160,9.620 214.160,12.663 214.160,15.707 214.160,18.750 221.107,18.750 228.053,18.750 235.000,18.750 235.000,15.540 235.000,12.330 235.000,9.120 236.210,9.120 237.420,9.120 238.630,9.120 238.630,13.413 238.630,17.707 238.630,22.000 237.480,22.000 236.330,22.000 235.180,22.000 235.180,21.980 235.180,21.960 235.180,21.940 235.067,21.960 234.953,21.980 234.840,22.000 227.383,22.000 219.927,22.000 212.470,22.000 210.538,21.959 208.661,22.644 207.210,23.920 205.777,25.335 204.931,27.238 204.840,29.250 202.977,29.250 201.113,29.250 199.250,29.250 Z M 195.770,19.750 C 191.277,19.750 186.783,19.750 182.290,19.750 182.290,16.167 182.290,12.583 182.290,9.000 186.790,9.000 191.290,9.000 195.790,9.000 198.790,9.760 201.790,10.520 204.790,11.280 204.790,13.380 204.790,15.480 204.790,17.580 204.497,17.700 204.217,17.833 203.950,17.980 201.223,18.570 198.497,19.160 195.770,19.750 Z M 208.630,11.590 C 208.630,13.310 208.630,15.030 208.630,16.750 208.630,16.750 208.630,16.750 208.630,16.750 208.012,16.772 207.397,16.842 206.790,16.960 206.790,15.170 206.790,13.380 206.790,11.590 207.403,11.590 208.017,11.590 208.630,11.590 Z M 233.000,11.590 C 233.000,13.310 233.000,15.030 233.000,16.750 227.390,16.750 221.780,16.750 216.170,16.750 216.170,15.030 216.170,13.310 216.170,11.590 221.780,11.590 227.390,11.590 233.000,11.590 Z M 242.320,12.230 C 242.320,13.653 242.320,15.077 242.320,16.500 241.780,16.500 241.240,16.500 240.700,16.500 240.700,15.080 240.700,13.660 240.700,12.240 241.240,12.237 241.780,12.233 242.320,12.230 Z M 253.190,10.110 C 253.190,13.240 253.190,16.370 253.190,19.500 251.107,19.500 249.023,19.500 246.940,19.500 246.940,16.370 246.940,13.240 246.940,10.110 248.023,10.110 249.107,10.110 250.190,10.110 250.190,10.110 250.190,10.110 250.190,10.110 251.190,10.110 252.190,10.110 253.190,10.110 Z M 259.430,12.230 C 259.430,13.653 259.430,15.077 259.430,16.500 258.017,16.500 256.603,16.500 255.190,16.500 255.190,15.080 255.190,13.660 255.190,12.240 256.603,12.237 258.017,12.233 259.430,12.230 Z M 279.430,18.110 C 273.510,18.110 267.590,18.110 261.670,18.110 261.670,15.617 261.670,13.123 261.670,10.630 267.590,10.630 273.510,10.630 279.430,10.630 279.430,13.123 279.430,15.617 279.430,18.110 Z M 244.290,7.620 C 246.250,7.620 248.210,7.620 250.170,7.620 250.170,8.117 250.170,8.613 250.170,9.110 248.753,9.110 247.337,9.110 245.920,9.110 245.920,12.573 245.920,16.037 245.920,19.500 245.380,19.500 244.840,19.500 244.300,19.500 244.297,15.540 244.293,11.580 244.290,7.620 Z M 245.720,4.360 C 246.720,4.360 247.720,4.360 248.720,4.360 248.720,4.743 248.720,5.127 248.720,5.510 247.720,5.510 246.720,5.510 245.720,5.510 245.720,5.127 245.720,4.743 245.720,4.360 Z M 351.630,39.600 C 351.630,38.513 351.630,37.427 351.630,36.340 351.167,35.433 350.703,34.527 350.240,33.620 349.907,33.620 349.573,33.620 349.240,33.620 349.240,32.470 349.240,31.320 349.240,30.170 348.827,28.780 348.413,27.390 348.000,26.000 346.820,26.000 345.640,26.000 344.460,26.000 344.053,27.293 343.647,28.587 343.240,29.880 343.240,31.130 343.240,32.380 343.240,33.630 342.907,33.630 342.573,33.630 342.240,33.630 341.777,34.537 341.313,35.443 340.850,36.350 340.850,37.433 340.850,38.517 340.850,39.600 301.517,39.600 262.183,39.600 222.850,39.600 222.850,38.293 222.850,36.987 222.850,35.680 222.657,33.620 222.463,31.560 222.270,29.500 221.677,29.500 221.083,29.500 220.490,29.500 220.490,28.500 220.490,27.500 220.490,26.500 225.327,25.667 230.163,24.833 235.000,24.000 236.880,24.000 238.760,24.000 240.640,24.000 240.640,22.170 240.640,20.340 240.640,18.510 241.183,18.510 241.727,18.510 242.270,18.510 242.270,19.510 242.270,20.510 242.270,21.510 246.563,21.510 250.857,21.510 255.150,21.510 255.150,20.510 255.150,19.510 255.150,18.510 256.563,18.510 257.977,18.510 259.390,18.510 259.390,19.047 259.390,19.583 259.390,20.120 266.723,20.120 274.057,20.120 281.390,20.120 281.390,16.290 281.390,12.460 281.390,8.630 274.057,8.630 266.723,8.630 259.390,8.630 259.390,9.167 259.390,9.703 259.390,10.240 257.977,10.240 256.563,10.240 255.150,10.240 255.150,9.533 255.150,8.827 255.150,8.120 254.150,8.120 253.150,8.120 252.150,8.120 252.150,7.287 252.150,6.453 252.150,5.620 251.673,5.620 251.197,5.620 250.720,5.620 250.720,4.533 250.720,3.447 250.720,2.360 248.387,2.360 246.053,2.360 243.720,2.360 243.720,3.447 243.720,4.533 243.720,5.620 243.243,5.620 242.767,5.620 242.290,5.620 242.290,7.160 242.290,8.700 242.290,10.240 241.750,10.240 241.210,10.240 240.670,10.240 240.670,9.200 240.670,8.160 240.670,7.120 238.113,7.120 235.557,7.120 233.000,7.120 233.000,7.943 233.000,8.767 233.000,9.590 227.390,9.590 221.780,9.590 216.170,9.590 216.170,8.923 216.170,8.257 216.170,7.590 213.670,7.590 211.170,7.590 208.670,7.590 208.670,8.257 208.670,8.923 208.670,9.590 207.877,9.590 207.083,9.590 206.290,9.590 202.913,8.727 199.537,7.863 196.160,7.000 190.870,7.000 185.580,7.000 180.290,7.000 180.290,11.917 180.290,16.833 180.290,21.750 185.527,21.750 190.763,21.750 196.000,21.750 197.557,21.417 199.113,21.083 200.670,20.750 198.672,23.529 197.453,26.792 197.140,30.200 197.117,30.553 197.093,30.907 197.070,31.260 200.293,31.260 203.517,31.260 206.740,31.260 206.740,30.927 206.740,30.593 206.740,30.260 206.746,29.774 206.786,29.290 206.860,28.810 209.527,28.353 212.193,27.897 214.860,27.440 214.860,28.127 214.860,28.813 214.860,29.500 214.387,29.500 213.913,29.500 213.440,29.500 213.243,31.590 213.047,33.680 212.850,35.770 212.850,37.047 212.850,38.323 212.850,39.600 211.363,39.600 209.877,39.600 208.390,39.600 208.390,39.197 208.390,38.793 208.390,38.390 204.723,37.847 201.057,37.303 197.390,36.760 184.137,36.597 170.883,36.433 157.630,36.270 157.630,35.770 157.630,35.270 157.630,34.770 160.043,34.194 161.871,32.220 162.260,29.770 162.537,29.770 162.813,29.770 163.090,29.770 163.620,31.180 164.150,32.590 164.680,34.000 165.307,33.773 165.933,33.547 166.560,33.320 165.893,31.473 165.227,29.627 164.560,27.780 161.893,27.780 159.227,27.780 156.560,27.780 156.560,27.800 156.560,27.820 156.560,27.840 155.540,27.840 154.520,27.840 153.500,27.840 153.500,26.673 153.500,25.507 153.500,24.340 149.417,24.340 145.333,24.340 141.250,24.340 141.250,25.507 141.250,26.673 141.250,27.840 138.297,27.840 135.343,27.840 132.390,27.840 132.407,26.550 132.423,25.260 132.440,23.970 130.440,23.970 128.440,23.970 126.440,23.970 126.400,25.803 126.360,27.637 126.320,29.470 125.773,29.470 125.227,29.470 124.680,29.470 124.307,30.220 123.933,30.970 123.560,31.720 121.640,31.720 119.720,31.720 117.800,31.720 117.800,31.000 117.800,30.280 117.800,29.560 117.007,26.893 116.213,24.227 115.420,21.560 106.047,21.393 96.673,21.227 87.300,21.060 87.300,19.643 87.300,18.227 87.300,16.810 78.660,16.810 70.020,16.810 61.380,16.810 61.380,18.630 61.380,20.450 61.380,22.270 59.253,22.270 57.127,22.270 55.000,22.270 54.691,21.533 54.005,21.024 53.210,20.940 51.210,20.940 50.210,24.760 50.210,28.350 50.210,31.940 51.270,35.760 53.210,35.760 54.050,35.760 54.720,35.060 55.210,33.990 57.270,33.990 59.330,33.990 61.390,33.990 61.390,34.727 61.390,35.463 61.390,36.200 42.847,36.200 24.303,36.200 5.760,36.200 4.690,39.640 3.620,43.080 2.550,46.520 4.033,49.577 5.517,52.633 7.000,55.690 8.930,55.690 10.860,55.690 12.790,55.690 16.470,56.310 19.020,57.760 20.370,60.000 22.370,63.390 21.060,67.580 21.050,67.620 20.757,68.953 20.463,70.287 20.170,71.620 18.880,71.357 17.590,71.093 16.300,70.830 15.403,75.163 14.507,79.497 13.610,83.830 14.943,84.103 16.277,84.377 17.610,84.650 17.627,84.563 17.643,84.477 17.660,84.390 17.553,86.423 18.138,88.432 19.320,90.090 20.414,91.521 22.006,92.488 23.780,92.800 25.228,93.099 26.702,93.256 28.180,93.270 34.180,93.270 36.240,90.200 36.570,89.600 38.047,87.514 37.748,84.655 35.870,82.920 36.107,79.470 36.343,76.020 36.580,72.570 36.595,71.761 36.959,70.999 37.580,70.480 38.010,70.233 38.516,70.155 39.000,70.260 41.650,71.325 44.485,71.852 47.340,71.810 48.923,71.810 50.507,71.810 52.090,71.810 56.390,71.810 60.530,66.400 61.390,65.220 62.500,64.667 63.610,64.113 64.720,63.560 64.720,62.227 64.720,60.893 64.720,59.560 63.980,59.013 63.240,58.467 62.500,57.920 62.500,57.510 62.500,57.100 62.500,56.690 72.000,56.690 81.500,56.690 91.000,56.690 92.200,57.770 95.910,58.090 98.270,58.090 100.630,58.090 104.330,57.770 105.540,56.690 110.160,56.690 114.780,56.690 119.400,56.690 120.883,56.340 122.367,55.990 123.850,55.640 124.363,55.973 124.877,56.307 125.390,56.640 125.293,60.760 125.197,64.880 125.100,69.000 135.640,69.490 146.180,69.980 156.720,70.470 156.863,65.303 157.007,60.137 157.150,54.970 158.343,54.970 159.537,54.970 160.730,54.970 160.730,55.363 160.730,55.757 160.730,56.150 160.433,56.323 160.137,56.497 159.840,56.670 159.227,56.670 158.613,56.670 158.000,56.670 158.000,57.337 158.000,58.003 158.000,58.670 158.797,58.670 159.593,58.670 160.390,58.670 161.177,58.213 161.963,57.757 162.750,57.300 162.750,56.507 162.750,55.713 162.750,54.920 174.270,54.780 185.790,54.640 197.310,54.500 201.030,53.953 204.750,53.407 208.470,52.860 208.470,52.457 208.470,52.053 208.470,51.650 209.957,51.650 211.443,51.650 212.930,51.650 212.930,52.433 212.930,53.217 212.930,54.000 216.223,54.000 219.517,54.000 222.810,54.000 222.810,53.217 222.810,52.433 222.810,51.650 262.143,51.650 301.477,51.650 340.810,51.650 340.810,52.220 340.810,52.790 340.810,53.360 344.413,53.360 348.017,53.360 351.620,53.360 351.620,52.790 351.620,52.220 351.620,51.650 361.453,51.650 371.287,51.650 381.120,51.650 381.120,47.650 381.120,43.650 381.120,39.650 371.290,39.633 361.460,39.617 351.630,39.600 Z " />
  <path stroke="none" fill="#ffffffff" d="M 217.450,45.250 C 217.783,45.250 218.117,45.250 218.450,45.250 218.450,46.083 218.450,46.917 218.450,47.750 218.117,47.750 217.783,47.750 217.450,47.750 217.450,46.917 217.450,46.083 217.450,45.250 Z " />
</svg>