<?xml version="1.0" encoding="UTF-8" standalone="no"?>
<!DOCTYPE svg PUBLIC "-//W3C//DTD SVG 20010904//EN" "http://www.w3.org/TR/2001/REC-SVG-20010904/DTD/svg10.dtd"[]>
<svg version="1.1" id="Frosty Editor v1.0.6.3" xmlns="http://www.w3.org/2000/svg" d1p1:xlink="http://www.w3.org/1999/xlink" viewBox="0 0 101 25" xmlns:d1p1="xmlns">
  <path stroke="none" fill="#ffffffff" d="M 34.334,0.640 C 34.334,2.347 34.334,2.347 34.334,2.347 34.334,2.656 34.334,2.656 34.334,2.656 34.334,3.090 34.334,3.090 34.334,3.090 34.334,3.402 34.334,3.402 34.334,3.402 34.334,5.109 34.334,5.109 34.334,5.109 35.606,5.109 35.606,5.109 35.606,5.109 35.606,5.588 35.606,5.588 35.606,5.588 31.328,5.588 31.328,5.588 31.328,5.588 31.328,5.588 31.327,5.587 31.327,5.587 31.125,5.338 30.818,5.176 30.475,5.176 29.990,5.176 29.577,5.501 29.429,5.940 26.428,5.940 26.428,5.940 26.428,5.940 26.428,6.358 26.428,6.358 26.428,6.358 22.572,6.358 22.572,6.358 22.572,6.358 22.432,6.882 22.432,6.882 22.432,6.882 21.783,6.882 21.783,6.882 21.783,6.882 22.217,5.262 22.217,5.262 22.217,5.262 9.433,5.262 9.433,5.262 9.433,5.262 9.862,6.864 9.862,6.864 9.862,6.864 9.333,6.864 9.333,6.864 9.333,6.864 9.198,6.362 9.198,6.362 9.198,6.362 6.228,6.362 6.228,6.362 6.228,6.362 3.442,6.362 3.442,6.362 3.442,6.362 3.442,8.038 3.442,8.038 3.442,8.038 3.751,8.119 3.751,8.119 3.751,8.119 3.751,8.571 3.751,8.571 3.751,8.571 3.485,8.641 3.485,8.641 3.485,8.641 3.485,10.500 3.485,10.500 3.485,10.500 3.799,10.583 3.799,10.583 3.799,10.583 3.799,11.265 3.799,11.265 3.799,11.265 3.453,11.358 3.453,11.358 3.453,11.358 3.453,13.223 3.453,13.223 3.453,13.223 3.733,13.299 3.733,13.299 3.733,13.299 3.733,13.993 3.733,13.993 3.733,13.993 3.505,14.056 3.505,14.056 3.505,14.056 3.505,15.885 3.505,15.885 3.505,15.885 3.780,15.960 3.780,15.960 3.780,15.960 3.780,16.463 3.780,16.463 3.780,16.463 3.467,16.463 3.467,16.463 3.467,16.463 3.467,18.252 3.467,18.252 3.467,18.252 6.587,18.252 6.587,18.252 6.587,18.252 9.718,18.252 9.718,18.252 9.718,18.252 11.558,16.158 11.558,16.158 11.558,16.158 16.574,16.158 16.574,16.158 16.574,16.158 16.574,16.701 16.574,16.701 16.574,16.701 17.318,16.701 17.318,16.701 17.318,16.701 17.318,16.158 17.318,16.158 17.318,16.158 20.087,16.158 20.087,16.158 20.087,16.158 23.606,11.572 23.606,11.572 23.606,11.572 26.476,11.572 26.476,11.572 26.476,11.572 26.476,11.969 26.476,11.969 26.476,11.969 29.685,11.969 29.685,11.969 29.685,11.969 29.685,11.525 29.685,11.525 29.685,11.525 38.363,11.525 38.363,11.525 38.363,11.525 38.363,12.143 38.363,12.143 38.363,12.143 42.173,12.575 42.173,12.575 42.173,12.575 42.195,12.582 42.536,12.697 42.763,12.916 42.880,13.029 42.952,13.146 42.968,13.288 42.979,13.385 42.966,13.509 42.892,13.673 42.729,13.925 42.729,13.925 42.729,13.925 38.492,20.488 38.492,20.488 38.492,20.488 38.485,20.501 38.485,20.501 38.485,20.501 38.485,20.501 38.249,20.939 38.255,21.531 38.261,22.123 38.533,22.899 39.395,23.514 39.405,23.520 39.405,23.520 39.405,23.520 41.825,25.038 41.825,25.038 41.825,25.038 41.970,25.013 41.970,25.013 41.970,25.013 41.970,25.013 42.502,24.933 42.959,24.553 43.372,24.209 43.623,23.520 43.409,22.647 48.297,15.499 48.297,15.499 48.297,15.499 48.519,15.578 48.519,15.578 48.519,15.578 48.704,15.393 48.704,15.393 48.704,15.393 51.803,17.041 51.803,17.041 51.803,17.041 51.853,17.074 51.927,17.119 52.037,17.163 52.209,17.232 52.460,17.300 52.798,17.322 53.173,17.346 54.480,17.340 55.763,17.335 56.847,17.331 57.575,17.326 57.868,17.324 57.868,17.710 57.868,17.710 57.868,17.710 63.723,17.710 63.723,17.710 63.723,17.710 63.723,17.922 63.723,17.922 63.723,17.922 68.522,17.922 68.522,17.922 68.522,17.922 68.522,16.739 68.522,16.739 68.522,16.739 70.277,16.739 70.277,16.739 70.277,16.739 70.277,17.728 70.277,17.728 70.277,17.728 72.095,17.554 72.095,17.554 72.095,17.554 88.697,17.554 88.697,17.554 88.697,17.554 88.697,17.943 88.697,17.943 88.697,17.943 93.458,17.943 93.458,17.943 93.458,17.943 93.458,17.457 93.458,17.457 93.458,17.457 94.777,17.457 94.777,17.457 94.777,17.457 94.777,16.721 94.777,16.721 94.777,16.721 95.221,16.721 95.221,16.721 95.221,16.721 95.221,15.781 95.221,15.781 95.221,15.781 95.221,14.417 95.221,14.417 95.221,14.417 95.221,14.035 95.221,14.035 95.221,14.035 95.221,13.096 95.221,13.096 95.221,13.096 94.775,13.096 94.775,13.096 94.775,13.096 94.775,12.360 94.775,12.360 94.775,12.360 93.456,12.360 93.456,12.360 93.456,12.360 93.456,12.256 93.456,12.256 93.456,12.256 93.456,11.292 93.456,11.292 93.456,11.292 94.908,11.292 94.908,11.292 94.908,11.292 95.289,11.292 95.289,11.292 95.289,11.292 95.671,11.292 95.671,11.292 95.671,11.292 96.989,11.292 96.989,11.292 96.989,11.292 96.989,10.553 96.989,10.553 96.989,10.553 97.437,10.553 97.437,10.553 97.437,10.553 97.437,8.252 97.437,8.252 97.437,8.252 97.437,7.871 97.437,7.871 97.437,7.871 97.437,7.186 97.437,7.186 97.437,7.186 96.989,7.186 96.989,7.186 96.989,7.186 96.989,6.450 96.989,6.450 96.989,6.450 95.671,6.450 95.671,6.450 95.671,6.450 95.289,6.450 95.289,6.450 95.289,6.450 93.765,6.450 93.765,6.450 93.765,6.450 93.765,6.077 93.765,6.077 93.765,6.077 93.503,6.077 93.503,6.077 93.503,6.077 93.503,5.640 93.503,5.640 93.503,5.640 88.571,5.640 88.571,5.640 88.571,5.640 88.571,6.385 88.571,6.385 88.571,6.385 72.153,6.385 72.153,6.385 72.153,6.385 70.473,6.057 70.473,6.057 70.473,6.057 70.473,7.152 70.473,7.152 70.473,7.152 68.495,7.152 68.495,7.152 68.495,7.152 68.495,5.809 68.495,5.809 68.495,5.809 63.728,5.809 63.728,5.809 63.728,5.809 63.728,6.085 63.728,6.085 63.728,6.085 58.200,6.085 58.200,6.085 58.200,6.085 58.040,5.877 57.870,5.752 57.717,5.680 57.473,5.566 57.263,5.588 57.263,5.588 54.740,5.588 54.740,5.588 54.740,5.588 52.198,5.588 52.198,5.588 52.198,5.588 49.824,5.588 49.824,5.588 49.824,5.588 49.824,3.289 49.824,3.289 49.824,3.289 48.702,3.289 48.702,3.289 48.702,3.289 48.702,1.694 48.702,1.694 48.702,1.694 45.172,1.694 45.172,1.694 45.172,1.694 45.172,1.180 45.172,1.180 45.172,1.180 42.254,1.180 42.254,1.180 42.254,1.180 37.239,0.640 37.239,0.640 37.239,0.640 Z M 35.100,1.403 C 36.907,1.403 36.907,1.403 36.907,1.403 36.907,4.344 36.907,4.344 36.907,4.344 35.100,4.344 35.100,4.344 35.100,4.344 35.100,2.656 35.100,2.656 35.100,2.656 35.100,2.347 35.100,2.347 35.100,2.347 Z M 37.288,1.413 C 42.214,1.945 42.214,1.945 42.214,1.945 44.409,1.945 44.409,1.945 44.409,1.945 44.409,2.458 44.409,2.458 44.409,2.458 44.621,2.458 44.621,2.458 44.621,2.458 44.621,3.289 44.621,3.289 44.621,3.289 44.409,3.289 44.409,3.289 44.409,3.289 44.409,3.803 44.409,3.803 44.409,3.803 42.214,3.803 42.214,3.803 42.214,3.803 37.288,4.334 37.288,4.334 37.288,4.334 Z M 44.946,2.458 C 47.936,2.458 47.936,2.458 47.936,2.458 47.936,3.289 47.936,3.289 47.936,3.289 44.946,3.289 44.946,3.289 44.946,3.289 Z M 45.172,4.054 C 48.140,4.054 48.140,4.054 48.140,4.054 48.140,5.141 48.140,5.141 48.140,5.141 46.692,5.141 46.692,5.141 46.692,5.141 46.692,5.588 46.692,5.588 46.692,5.588 44.336,5.588 44.336,5.588 44.336,5.588 44.336,4.567 44.336,4.567 44.336,4.567 45.172,4.567 45.172,4.567 45.172,4.567 Z M 48.465,4.054 C 49.058,4.054 49.058,4.054 49.058,4.054 49.058,5.141 49.058,5.141 49.058,5.141 48.465,5.141 48.465,5.141 48.465,5.141 Z M 42.254,4.567 C 42.616,4.567 42.616,4.567 42.616,4.567 42.616,5.588 42.616,5.588 42.616,5.588 39.484,5.588 39.484,5.588 39.484,5.588 38.831,5.588 38.831,5.588 38.831,5.588 38.831,4.937 38.831,4.937 38.831,4.937 Z M 42.997,4.567 C 43.955,4.567 43.955,4.567 43.955,4.567 43.955,5.820 43.955,5.820 43.955,5.820 42.997,5.820 42.997,5.820 42.997,5.820 Z M 43.461,5.001 C 43.275,5.010 43.126,5.165 43.126,5.353 43.126,5.546 43.285,5.705 43.478,5.705 43.672,5.705 43.830,5.546 43.830,5.353 43.830,5.159 43.672,5.001 43.478,5.001 43.472,5.001 43.467,5.000 43.461,5.001 Z M 38.065,5.020 C 38.065,5.588 38.065,5.588 38.065,5.588 37.094,5.588 37.094,5.588 37.094,5.588 37.094,5.109 37.094,5.109 37.094,5.109 37.239,5.109 37.239,5.109 37.239,5.109 Z M 35.911,5.109 C 36.790,5.109 36.790,5.109 36.790,5.109 36.790,5.735 36.790,5.735 36.790,5.735 36.787,5.863 36.787,5.863 36.787,5.863 35.911,5.863 35.911,5.863 35.911,5.863 35.913,5.588 35.913,5.588 35.913,5.588 35.911,5.588 35.911,5.588 35.911,5.588 Z M 43.470,5.199 C 43.473,5.199 43.476,5.199 43.478,5.199 43.565,5.199 43.632,5.266 43.632,5.353 43.632,5.440 43.565,5.506 43.478,5.506 43.391,5.506 43.325,5.440 43.325,5.353 43.325,5.268 43.387,5.203 43.470,5.199 Z M 57.321,5.891 C 57.360,5.890 57.454,5.894 57.585,5.956 57.668,5.994 57.762,6.056 57.859,6.156 57.859,6.414 57.859,6.414 57.859,6.414 47.457,6.414 47.457,6.414 47.457,6.414 47.457,5.906 47.457,5.906 47.457,5.906 49.824,5.906 49.824,5.906 49.824,5.906 49.824,5.892 49.824,5.892 49.824,5.892 52.198,5.892 52.198,5.892 52.198,5.892 54.740,5.892 54.740,5.892 54.740,5.892 57.292,5.892 57.292,5.892 57.292,5.892 57.301,5.892 57.301,5.892 57.301,5.892 57.301,5.892 57.308,5.892 57.321,5.891 Z M 31.505,5.892 C 35.606,5.892 35.606,5.892 35.606,5.892 35.606,6.170 35.606,6.170 35.606,6.170 37.088,6.170 37.088,6.170 37.088,6.170 37.092,5.892 37.092,5.892 37.092,5.892 38.065,5.892 38.065,5.892 38.065,5.892 38.065,6.414 38.065,6.414 38.065,6.414 32.081,6.414 32.081,6.414 32.081,6.414 31.697,6.414 31.697,6.414 31.697,6.414 31.579,6.414 31.579,6.414 31.579,6.414 31.579,6.294 31.579,6.294 31.579,6.294 31.579,6.153 31.553,6.018 31.505,5.892 Z M 38.831,5.892 C 39.484,5.892 39.484,5.892 39.484,5.892 42.616,5.892 42.616,5.892 42.616,5.892 42.616,6.202 42.616,6.202 42.616,6.202 44.336,6.202 44.336,6.202 44.336,6.202 44.336,5.892 44.336,5.892 44.336,5.892 46.692,5.892 46.692,5.892 46.692,5.892 46.692,6.414 46.692,6.414 46.692,6.414 38.831,6.414 38.831,6.414 38.831,6.414 Z M 30.457,5.942 C 30.463,5.942 30.469,5.942 30.475,5.942 30.666,5.942 30.814,6.089 30.814,6.294 30.814,6.414 30.814,6.414 30.814,6.414 30.136,6.414 30.136,6.414 30.136,6.414 30.136,6.294 30.136,6.294 30.136,6.294 30.136,6.095 30.275,5.951 30.457,5.942 Z M 10.429,6.028 C 21.221,6.028 21.221,6.028 21.221,6.028 20.785,7.647 20.785,7.647 20.785,7.647 20.964,7.647 20.964,7.647 20.964,7.647 20.069,10.524 20.069,10.524 20.069,10.524 11.748,10.524 11.748,10.524 11.748,10.524 10.701,7.629 10.701,7.629 10.701,7.629 10.860,7.629 10.860,7.629 10.860,7.629 Z M 89.337,6.403 C 89.622,6.403 89.622,6.403 89.622,6.403 89.615,6.417 89.610,6.433 89.610,6.450 89.610,7.378 89.610,7.378 89.610,7.378 89.610,7.442 89.674,7.494 89.753,7.494 89.831,7.494 89.894,7.442 89.894,7.378 89.894,6.450 89.894,6.450 89.894,6.450 89.894,6.433 89.890,6.417 89.883,6.403 90.416,6.403 90.416,6.403 90.416,6.403 90.408,6.417 90.404,6.433 90.404,6.450 90.404,7.378 90.404,7.378 90.404,7.378 90.404,7.442 90.467,7.494 90.546,7.494 90.625,7.494 90.688,7.442 90.688,7.378 90.688,6.450 90.688,6.450 90.688,6.450 90.688,6.433 90.684,6.417 90.676,6.403 91.252,6.403 91.252,6.403 91.252,6.403 91.226,6.427 91.211,6.460 91.211,6.496 91.211,7.980 91.211,7.980 91.211,7.980 91.211,8.053 91.275,8.112 91.353,8.112 91.432,8.112 91.495,8.053 91.495,7.980 91.495,6.496 91.495,6.496 91.495,6.496 91.495,6.460 91.480,6.427 91.454,6.403 92.037,6.403 92.037,6.403 92.037,6.403 92.012,6.427 91.996,6.460 91.996,6.496 91.996,7.980 91.996,7.980 91.996,7.980 91.996,8.053 92.060,8.112 92.138,8.112 92.217,8.112 92.280,8.053 92.280,7.980 92.280,6.496 92.280,6.496 92.280,6.496 92.280,6.460 92.265,6.427 92.239,6.403 92.739,6.403 92.739,6.403 92.739,6.403 92.739,6.843 92.739,6.843 92.739,6.843 92.999,6.843 92.999,6.843 92.999,6.843 92.999,7.216 92.999,7.216 92.999,7.216 93.002,7.216 93.002,7.216 93.002,7.216 93.002,8.248 93.002,8.248 93.002,8.248 89.253,8.248 89.253,8.248 89.253,8.248 89.253,7.151 89.253,7.151 89.253,7.151 89.337,7.151 89.337,7.151 89.337,7.151 Z M 64.491,6.575 C 64.927,6.575 64.927,6.575 64.927,6.575 64.927,7.731 64.927,7.731 64.927,7.731 64.927,7.804 64.990,7.863 65.069,7.863 65.148,7.863 65.211,7.804 65.211,7.731 65.211,6.575 65.211,6.575 65.211,6.575 65.712,6.575 65.712,6.575 65.712,6.575 65.712,7.731 65.712,7.731 65.712,7.731 65.712,7.804 65.775,7.863 65.854,7.863 65.933,7.863 65.996,7.804 65.996,7.731 65.996,6.575 65.996,6.575 65.996,6.575 66.519,6.575 66.519,6.575 66.519,6.575 66.519,7.128 66.519,7.128 66.519,7.128 66.519,7.193 66.583,7.244 66.661,7.244 66.740,7.244 66.803,7.193 66.803,7.128 66.803,6.575 66.803,6.575 66.803,6.575 67.312,6.575 67.312,6.575 67.312,6.575 67.312,7.128 67.312,7.128 67.312,7.128 67.312,7.193 67.376,7.244 67.455,7.244 67.533,7.244 67.596,7.193 67.596,7.128 67.596,6.575 67.596,6.575 67.596,6.575 67.730,6.575 67.730,6.575 67.730,6.575 67.730,7.918 67.730,7.918 67.730,7.918 70.627,7.918 70.627,7.918 70.627,7.918 70.627,10.253 70.627,10.253 70.627,10.253 69.331,10.253 69.331,10.253 69.331,10.253 69.331,9.842 69.331,9.842 69.331,9.842 68.195,8.279 68.195,8.279 68.195,8.279 67.727,8.279 67.727,8.279 67.727,8.279 67.727,8.191 67.727,8.191 67.727,8.191 63.123,8.191 63.123,8.191 63.123,8.191 63.123,8.481 63.123,8.481 63.123,8.481 62.543,8.481 62.543,8.481 62.543,8.481 62.543,8.733 62.543,8.733 62.543,8.733 61.359,8.733 61.359,8.733 61.359,8.733 61.359,8.986 61.359,8.986 61.359,8.986 60.883,8.986 60.883,8.986 60.883,8.986 60.883,8.675 60.883,8.675 60.883,8.675 59.264,8.675 59.264,8.675 59.264,8.675 59.264,8.878 59.264,8.878 59.264,8.878 58.148,8.878 58.148,8.878 58.148,8.878 57.866,8.598 57.866,8.598 57.866,8.598 57.290,8.598 57.290,8.598 57.290,8.598 56.497,8.598 56.497,8.598 56.497,8.598 56.497,11.129 56.497,11.129 56.497,11.129 40.391,9.185 40.391,9.185 40.391,9.185 40.355,9.181 40.319,9.178 40.283,9.177 39.745,9.161 39.260,9.512 39.182,10.039 39.165,10.154 39.165,10.154 39.165,10.154 39.081,10.717 39.495,11.237 40.073,11.323 58.091,13.482 58.091,13.482 58.091,13.482 58.091,15.219 58.091,15.219 58.091,15.219 63.931,15.219 63.931,15.219 63.931,15.219 63.931,15.436 63.931,15.436 63.931,15.436 68.224,15.436 68.224,15.436 68.224,15.436 69.331,13.857 69.331,13.857 69.331,13.857 69.331,13.489 69.331,13.489 69.331,13.489 70.627,13.489 70.627,13.489 70.627,13.489 70.627,15.976 70.627,15.976 70.627,15.976 67.756,15.976 67.756,15.976 67.756,15.976 67.756,17.157 67.756,17.157 67.756,17.157 67.596,17.157 67.596,17.157 67.596,17.157 67.596,16.418 67.596,16.418 67.596,16.418 67.596,16.354 67.533,16.302 67.455,16.302 67.376,16.302 67.312,16.354 67.312,16.418 67.312,17.157 67.312,17.157 67.312,17.157 66.803,17.157 66.803,17.157 66.803,17.157 66.803,16.418 66.803,16.418 66.803,16.418 66.803,16.354 66.740,16.302 66.661,16.302 66.583,16.302 66.519,16.354 66.519,16.418 66.519,17.157 66.519,17.157 66.519,17.157 65.996,17.157 65.996,17.157 65.996,17.157 65.996,15.815 65.996,15.815 65.996,15.815 65.996,15.742 65.933,15.683 65.854,15.683 65.775,15.683 65.712,15.742 65.712,15.815 65.712,17.157 65.712,17.157 65.712,17.157 65.211,17.157 65.211,17.157 65.211,17.157 65.211,15.815 65.211,15.815 65.211,15.815 65.211,15.742 65.148,15.683 65.069,15.683 64.990,15.683 64.927,15.742 64.927,15.815 64.927,17.157 64.927,17.157 64.927,17.157 64.489,17.157 64.489,17.157 64.489,17.157 64.489,16.944 64.489,16.944 64.489,16.944 63.113,16.944 63.113,16.944 63.113,16.944 63.113,16.275 63.113,16.275 63.113,16.275 63.113,16.202 63.050,16.143 62.971,16.143 62.892,16.143 62.829,16.202 62.829,16.275 62.829,16.944 62.829,16.944 62.829,16.944 62.372,16.944 62.372,16.944 62.372,16.944 62.372,15.619 62.372,15.619 62.372,15.619 62.372,15.547 62.309,15.488 62.231,15.488 62.152,15.488 62.089,15.547 62.089,15.619 62.089,16.944 62.089,16.944 62.089,16.944 61.683,16.944 61.683,16.944 61.683,16.944 61.683,15.619 61.683,15.619 61.683,15.619 61.683,15.547 61.620,15.488 61.541,15.488 61.463,15.488 61.399,15.547 61.399,15.619 61.399,16.944 61.399,16.944 61.399,16.944 60.993,16.944 60.993,16.944 60.993,16.944 60.993,15.619 60.993,15.619 60.993,15.619 60.993,15.547 60.930,15.488 60.852,15.488 60.773,15.488 60.710,15.547 60.710,15.619 60.710,16.944 60.710,16.944 60.710,16.944 60.263,16.944 60.263,16.944 60.263,16.944 60.263,15.619 60.263,15.619 60.263,15.619 60.263,15.547 60.200,15.488 60.122,15.488 60.043,15.488 59.979,15.547 59.979,15.619 59.979,16.944 59.979,16.944 59.979,16.944 59.516,16.944 59.516,16.944 59.516,16.944 59.516,16.275 59.516,16.275 59.516,16.275 59.516,16.202 59.453,16.143 59.375,16.143 59.296,16.143 59.233,16.202 59.233,16.275 59.233,16.944 59.233,16.944 59.233,16.944 58.633,16.944 58.633,16.944 58.633,16.944 58.633,16.554 58.633,16.554 58.633,16.554 58.247,16.556 58.247,16.556 58.247,16.556 58.247,16.556 57.042,16.567 55.761,16.572 54.480,16.577 53.072,16.573 52.845,16.558 52.583,16.541 52.416,16.490 52.321,16.452 52.227,16.414 52.234,16.411 52.234,16.411 52.225,16.405 52.225,16.405 52.225,16.405 55.145,16.405 55.145,16.405 55.145,16.405 56.036,16.405 56.773,15.689 56.773,14.803 56.773,13.918 56.036,13.200 55.145,13.200 50.316,13.200 50.316,13.200 50.316,13.200 49.519,13.200 48.844,13.774 48.710,14.529 48.564,14.451 48.564,14.451 48.564,14.451 48.320,14.695 48.320,14.695 48.320,14.695 47.999,14.580 47.999,14.580 47.999,14.580 42.604,22.468 42.604,22.468 42.604,22.468 42.670,22.653 42.670,22.653 42.670,22.653 42.958,23.448 42.738,23.741 42.469,23.965 42.244,24.152 42.033,24.190 41.945,24.211 39.840,22.890 39.840,22.890 39.840,22.890 39.839,22.890 39.841,22.889 39.840,22.888 39.154,22.398 39.024,21.916 39.021,21.524 39.017,21.136 39.156,20.872 39.159,20.867 43.152,14.678 43.152,14.678 43.152,14.678 43.155,14.680 43.155,14.680 43.155,14.680 43.374,14.363 43.374,14.363 43.374,14.363 43.449,14.255 43.511,14.147 43.563,14.041 43.578,14.018 43.578,14.018 43.578,14.018 43.574,14.015 43.574,14.015 43.574,14.015 43.707,13.730 43.758,13.454 43.729,13.200 43.688,12.844 43.500,12.564 43.296,12.367 42.887,11.972 42.374,11.832 42.374,11.832 42.340,11.822 42.340,11.822 42.340,11.822 39.127,11.459 39.127,11.459 39.127,11.459 39.127,10.759 39.127,10.759 39.127,10.759 29.570,10.759 29.570,10.759 29.570,10.759 29.570,7.177 29.570,7.177 29.570,7.177 29.913,7.177 29.913,7.177 29.913,7.177 31.697,7.177 31.697,7.177 31.697,7.177 32.081,7.177 32.081,7.177 32.081,7.177 58.624,7.177 58.624,7.177 58.624,7.177 58.624,6.850 58.624,6.850 58.624,6.850 64.491,6.850 64.491,6.850 64.491,6.850 Z M 27.192,6.705 C 28.949,6.705 28.949,6.705 28.949,6.705 28.949,7.177 28.949,7.177 28.949,7.177 29.186,7.177 29.186,7.177 29.186,7.177 29.186,10.759 29.186,10.759 29.186,10.759 28.919,10.759 28.919,10.759 28.919,10.759 28.919,11.204 28.919,11.204 28.919,11.204 27.242,11.204 27.242,11.204 27.242,11.204 27.242,10.807 27.242,10.807 27.242,10.807 27.000,10.807 27.000,10.807 27.000,10.807 27.000,7.123 27.000,7.123 27.000,7.123 27.192,7.123 27.192,7.123 27.192,7.123 Z M 71.237,6.986 C 72.079,7.151 72.079,7.151 72.079,7.151 88.869,7.151 88.869,7.151 88.869,7.151 88.869,8.408 88.869,8.408 88.869,8.408 87.828,9.842 87.828,9.842 87.828,9.842 87.828,10.906 87.828,10.906 87.828,10.906 72.066,10.906 72.066,10.906 72.066,10.906 71.009,11.050 71.009,11.050 71.009,11.050 71.009,7.918 71.009,7.918 71.009,7.918 71.237,7.918 71.237,7.918 71.237,7.918 Z M 23.159,7.123 C 26.618,7.123 26.618,7.123 26.618,7.123 26.618,10.807 26.618,10.807 26.618,10.807 23.229,10.807 23.229,10.807 23.229,10.807 19.710,15.393 19.710,15.393 19.710,15.393 16.583,15.393 16.583,15.393 16.583,15.393 11.213,15.393 11.213,15.393 11.213,15.393 9.372,17.487 9.372,17.487 9.372,17.487 7.319,17.487 7.319,17.487 7.319,17.487 7.319,12.087 7.319,12.087 7.319,12.087 6.305,10.727 6.305,10.727 6.305,10.727 6.305,7.128 6.305,7.128 6.305,7.128 8.611,7.128 8.611,7.128 8.611,7.128 8.747,7.629 8.747,7.629 8.747,7.629 8.900,7.629 8.900,7.629 8.900,7.629 9.273,9.025 9.273,9.025 9.273,9.025 10.352,9.648 10.352,9.648 10.352,9.648 11.025,9.648 11.025,9.648 11.025,9.648 11.479,10.906 11.479,10.906 11.479,10.906 20.352,10.906 20.352,10.906 20.352,10.906 20.743,9.648 20.743,9.648 20.743,9.648 21.345,9.648 21.345,9.648 21.345,9.648 22.425,9.025 22.425,9.025 22.425,9.025 22.793,7.647 22.793,7.647 22.793,7.647 23.018,7.647 23.018,7.647 23.018,7.647 Z M 4.208,7.128 C 5.140,7.128 5.140,7.128 5.140,7.128 5.140,11.161 5.140,11.161 5.140,11.161 6.154,12.518 6.154,12.518 6.154,12.518 6.154,17.487 6.154,17.487 6.154,17.487 4.230,17.487 4.230,17.487 4.230,17.487 4.230,17.229 4.230,17.229 4.230,17.229 4.546,17.229 4.546,17.229 4.546,17.229 4.546,15.373 4.546,15.373 4.546,15.373 4.269,15.298 4.269,15.298 4.269,15.298 4.269,14.643 4.269,14.643 4.269,14.643 4.499,14.580 4.499,14.580 4.499,14.580 4.499,12.713 4.499,12.713 4.499,12.713 4.217,12.636 4.217,12.636 4.217,12.636 4.217,11.945 4.217,11.945 4.217,11.945 4.562,11.852 4.562,11.852 4.562,11.852 4.562,9.996 4.562,9.996 4.562,9.996 4.251,9.912 4.251,9.912 4.251,9.912 4.251,9.228 4.251,9.228 4.251,9.228 4.515,9.156 4.515,9.156 4.515,9.156 4.515,7.532 4.515,7.532 4.515,7.532 4.208,7.451 4.208,7.451 4.208,7.451 Z M 5.524,7.128 C 5.924,7.128 5.924,7.128 5.924,7.128 5.924,10.856 5.924,10.856 5.924,10.856 6.935,12.213 6.935,12.213 6.935,12.213 6.935,17.487 6.935,17.487 6.935,17.487 6.587,17.487 6.587,17.487 6.587,17.487 6.535,17.487 6.535,17.487 6.535,17.487 6.535,12.392 6.535,12.392 6.535,12.392 5.524,11.034 5.524,11.034 5.524,11.034 Z M 93.384,7.216 C 95.289,7.216 95.289,7.216 95.289,7.216 95.644,7.216 95.644,7.216 95.644,7.216 95.644,10.526 95.644,10.526 95.644,10.526 95.289,10.526 95.289,10.526 95.289,10.526 94.908,10.526 94.908,10.526 94.908,10.526 93.384,10.526 93.384,10.526 93.384,10.526 Z M 95.874,7.216 C 96.224,7.216 96.224,7.216 96.224,7.216 96.224,7.952 96.224,7.952 96.224,7.952 96.224,10.244 96.224,10.244 96.224,10.244 96.224,10.526 96.224,10.526 96.224,10.526 95.874,10.526 95.874,10.526 95.874,10.526 Z M 73.542,7.349 C 73.542,7.866 73.542,7.866 73.542,7.866 87.480,7.866 87.480,7.866 87.480,7.866 87.480,7.349 87.480,7.349 87.480,7.349 Z M 95.057,7.349 C 94.826,7.356 94.643,7.469 94.643,7.608 94.643,7.752 94.838,7.868 95.079,7.868 95.321,7.868 95.515,7.752 95.515,7.608 95.515,7.465 95.321,7.349 95.079,7.349 95.072,7.349 95.065,7.349 95.057,7.349 Z M 55.021,7.507 C 55.008,7.507 54.995,7.509 54.982,7.510 51.396,7.510 51.396,7.510 51.396,7.510 51.364,7.520 51.364,7.520 51.364,7.520 51.364,7.520 51.091,7.608 50.919,7.864 50.912,7.871 50.912,7.871 50.912,7.871 50.233,9.110 50.233,9.110 50.233,9.110 49.896,9.756 49.896,9.756 49.896,9.756 50.212,9.756 50.212,9.756 50.212,9.756 55.262,9.756 55.262,9.756 55.262,9.756 55.262,9.756 55.431,9.778 55.576,9.661 55.721,9.544 55.793,9.308 55.725,8.973 55.727,8.977 55.727,8.977 55.727,8.977 55.525,7.914 55.525,7.914 55.525,7.914 55.524,7.913 55.524,7.911 55.524,7.910 55.524,7.909 55.524,7.909 55.524,7.909 55.519,7.869 55.503,7.785 55.447,7.704 55.375,7.599 55.218,7.504 55.021,7.507 Z M 9.296,7.629 C 10.296,7.629 10.296,7.629 10.296,7.629 10.886,9.264 10.886,9.264 10.886,9.264 10.456,9.264 10.456,9.264 10.456,9.264 9.602,8.772 9.602,8.772 9.602,8.772 Z M 21.366,7.647 C 22.399,7.647 22.399,7.647 22.399,7.647 22.097,8.772 22.097,8.772 22.097,8.772 21.244,9.264 21.244,9.264 21.244,9.264 20.863,9.264 20.863,9.264 20.863,9.264 Z M 55.050,7.889 C 55.122,7.887 55.121,7.906 55.131,7.920 55.142,7.937 55.145,7.954 55.145,7.954 55.145,7.966 55.145,7.966 55.145,7.966 55.350,9.049 55.350,9.049 55.350,9.049 55.403,9.310 55.350,9.352 55.336,9.364 55.322,9.375 55.302,9.377 55.302,9.377 55.291,9.374 55.291,9.374 55.291,9.374 50.526,9.374 50.526,9.374 50.526,9.374 50.569,9.291 50.569,9.291 50.569,9.291 51.235,8.078 51.235,8.078 51.235,8.078 51.316,7.958 51.463,7.898 51.479,7.891 55.004,7.891 55.004,7.891 55.004,7.891 55.014,7.891 55.014,7.891 55.014,7.891 55.027,7.890 55.039,7.889 55.050,7.889 Z M 96.455,7.952 C 96.672,7.952 96.672,7.952 96.672,7.952 96.672,8.252 96.672,8.252 96.672,8.252 96.672,9.490 96.672,9.490 96.672,9.490 96.672,9.790 96.672,9.790 96.672,9.790 96.455,9.790 96.455,9.790 96.455,9.790 Z M 30.360,8.372 C 30.360,8.487 30.360,8.487 30.360,8.487 30.360,9.539 30.360,9.539 30.360,9.539 36.191,9.539 36.191,9.539 36.191,9.539 36.191,8.372 36.191,8.372 36.191,8.372 Z M 93.931,8.530 C 93.695,8.536 93.507,8.728 93.507,8.966 93.507,9.207 93.701,9.402 93.943,9.402 94.184,9.402 94.379,9.207 94.379,8.966 94.379,8.724 94.184,8.530 93.943,8.530 93.939,8.530 93.935,8.529 93.931,8.530 Z M 30.588,8.602 C 35.963,8.602 35.963,8.602 35.963,8.602 35.963,9.309 35.963,9.309 35.963,9.309 30.588,9.309 30.588,9.309 30.588,9.309 Z M 89.181,8.632 C 93.002,8.632 93.002,8.632 93.002,8.632 93.002,10.526 93.002,10.526 93.002,10.526 92.692,10.526 92.692,10.526 92.692,10.526 92.692,12.256 92.692,12.256 92.692,12.256 92.692,12.570 92.692,12.570 92.692,12.570 92.692,13.123 92.692,13.123 92.692,13.123 92.692,15.054 92.692,15.054 92.692,15.054 89.133,15.054 89.133,15.054 89.133,15.054 88.212,13.738 88.212,13.738 88.212,13.738 88.212,9.967 88.212,9.967 88.212,9.967 Z M 67.727,8.663 C 68.001,8.663 68.001,8.663 68.001,8.663 68.949,9.967 68.949,9.967 68.949,9.967 68.949,13.738 68.949,13.738 68.949,13.738 68.025,15.054 68.025,15.054 68.025,15.054 64.315,15.054 64.315,15.054 64.315,15.054 64.315,14.948 64.315,14.948 64.315,14.948 64.315,12.184 64.315,12.184 64.315,12.184 67.672,12.184 67.672,12.184 67.672,12.184 67.672,14.101 67.672,14.101 67.672,14.101 67.672,14.174 67.735,14.233 67.814,14.233 67.892,14.233 67.955,14.174 67.955,14.101 67.955,9.734 67.955,9.734 67.955,9.734 67.955,9.661 67.892,9.603 67.814,9.603 67.781,9.603 67.751,9.613 67.727,9.630 Z M 72.605,8.687 C 72.605,9.205 72.605,9.205 72.605,9.205 88.111,9.205 88.111,9.205 88.111,9.205 88.111,8.687 88.111,8.687 88.111,8.687 Z M 30.959,8.799 C 30.881,8.799 30.801,8.861 30.801,8.950 30.801,9.040 30.881,9.101 30.959,9.101 35.584,9.101 35.584,9.101 35.584,9.101 35.662,9.101 35.739,9.040 35.739,8.950 35.739,8.861 35.662,8.799 35.584,8.799 Z M 63.888,8.954 C 64.284,8.954 64.284,8.954 64.284,8.954 64.284,11.418 64.284,11.418 64.284,11.418 63.888,11.418 63.888,11.418 63.888,11.418 63.888,11.127 63.888,11.127 63.888,11.127 63.306,11.127 63.306,11.127 63.306,11.127 63.306,10.874 63.306,10.874 63.306,10.874 63.112,10.874 63.112,10.874 63.112,10.874 63.112,9.499 63.112,9.499 63.112,9.499 63.306,9.499 63.306,9.499 63.306,9.499 63.306,9.246 63.306,9.246 63.306,9.246 63.888,9.246 63.888,9.246 63.888,9.246 Z M 64.665,8.954 C 66.962,8.954 66.962,8.954 66.962,8.954 66.962,9.417 66.962,9.417 66.962,9.417 66.226,9.842 66.226,9.842 66.226,9.842 66.791,10.186 66.791,10.186 66.791,10.186 66.226,10.531 66.226,10.531 66.226,10.531 66.962,10.955 66.962,10.955 66.962,10.955 66.962,11.418 66.962,11.418 66.962,11.418 64.665,11.418 64.665,11.418 64.665,11.418 Z M 57.290,9.364 C 57.549,9.364 57.549,9.364 57.549,9.364 57.831,9.643 57.831,9.643 57.831,9.643 59.390,9.643 59.390,9.643 59.390,9.643 59.390,10.730 59.390,10.730 59.390,10.730 57.831,10.730 57.831,10.730 57.831,10.730 57.549,11.012 57.549,11.012 57.549,11.012 57.290,11.012 57.290,11.012 57.290,11.012 Z M 12.296,9.373 C 12.111,9.382 11.962,9.537 11.962,9.725 11.962,9.918 12.121,10.079 12.314,10.079 12.508,10.079 12.669,9.918 12.669,9.725 12.669,9.531 12.508,9.373 12.314,9.373 12.308,9.373 12.302,9.372 12.296,9.373 Z M 19.439,9.373 C 19.254,9.382 19.105,9.537 19.105,9.725 19.105,9.918 19.264,10.079 19.457,10.079 19.651,10.079 19.810,9.918 19.810,9.725 19.810,9.531 19.651,9.373 19.457,9.373 19.451,9.373 19.445,9.372 19.439,9.373 Z M 60.029,9.440 C 60.117,9.440 60.117,9.440 60.117,9.440 60.117,9.750 60.117,9.750 60.117,9.750 60.377,9.750 60.377,9.750 60.377,9.750 60.377,10.624 60.377,10.624 60.377,10.624 60.117,10.624 60.117,10.624 60.117,10.624 60.117,10.933 60.117,10.933 60.117,10.933 60.029,10.933 60.029,10.933 60.029,10.933 60.029,10.730 60.029,10.730 60.029,10.730 59.772,10.730 59.772,10.730 59.772,10.730 59.772,9.643 59.772,9.643 59.772,9.643 60.029,9.643 60.029,9.643 60.029,9.643 Z M 62.123,9.499 C 62.730,9.499 62.730,9.499 62.730,9.499 62.730,10.874 62.730,10.874 62.730,10.874 62.123,10.874 62.123,10.874 62.123,10.874 62.123,10.624 62.123,10.624 62.123,10.624 61.908,10.624 61.908,10.624 61.908,10.624 61.908,9.750 61.908,9.750 61.908,9.750 62.123,9.750 62.123,9.750 62.123,9.750 Z M 40.193,9.555 C 40.239,9.553 40.287,9.555 40.335,9.563 56.497,11.514 56.497,11.514 56.497,11.514 56.497,11.775 56.497,11.775 56.497,11.775 57.290,11.775 57.290,11.775 57.290,11.775 57.866,11.775 57.866,11.775 57.866,11.775 58.148,11.495 58.148,11.495 58.148,11.495 59.264,11.495 59.264,11.495 59.264,11.495 59.264,11.699 59.264,11.699 59.264,11.699 60.187,11.699 60.187,11.699 60.187,11.699 60.187,12.570 60.187,12.570 60.187,12.570 60.930,12.570 60.930,12.570 60.930,12.570 60.930,13.363 60.930,13.363 60.930,13.363 60.460,13.363 60.460,13.363 60.460,13.363 59.491,13.264 59.491,13.264 59.491,13.264 40.130,10.943 40.130,10.943 40.130,10.943 39.742,10.897 39.491,10.558 39.543,10.210 39.559,10.096 39.559,10.096 39.559,10.096 39.605,9.791 39.869,9.567 40.193,9.555 Z M 12.314,9.571 C 12.401,9.571 12.470,9.638 12.470,9.725 12.470,9.812 12.401,9.881 12.314,9.881 12.227,9.881 12.161,9.812 12.161,9.725 12.161,9.638 12.227,9.571 12.314,9.571 Z M 19.457,9.571 C 19.544,9.571 19.611,9.638 19.611,9.725 19.611,9.812 19.544,9.881 19.457,9.881 19.370,9.881 19.304,9.812 19.304,9.725 19.304,9.638 19.370,9.571 19.457,9.571 Z M 89.488,9.603 C 89.409,9.603 89.346,9.661 89.346,9.734 89.346,14.101 89.346,14.101 89.346,14.101 89.346,14.174 89.409,14.233 89.488,14.233 89.567,14.233 89.630,14.174 89.630,14.101 89.630,9.734 89.630,9.734 89.630,9.734 89.630,9.661 89.567,9.603 89.488,9.603 Z M 40.306,9.695 C 39.994,9.703 39.739,9.962 39.739,10.276 39.739,10.595 40.002,10.856 40.321,10.856 40.640,10.856 40.901,10.595 40.901,10.276 40.901,9.957 40.640,9.695 40.321,9.695 40.316,9.695 40.311,9.695 40.306,9.695 Z M 60.759,9.750 C 61.526,9.750 61.526,9.750 61.526,9.750 61.526,10.624 61.526,10.624 61.526,10.624 60.759,10.624 60.759,10.624 60.759,10.624 Z M 95.068,9.871 C 94.831,9.874 94.643,9.989 94.643,10.130 94.643,10.274 94.838,10.390 95.079,10.390 95.321,10.390 95.515,10.274 95.515,10.130 95.515,9.987 95.321,9.871 95.079,9.871 95.075,9.871 95.072,9.871 95.068,9.871 Z M 9.124,9.962 C 8.708,9.962 8.365,10.304 8.365,10.721 8.365,11.929 8.365,11.929 8.365,11.929 8.026,11.958 7.755,12.247 7.755,12.593 7.755,12.957 8.056,13.256 8.421,13.256 19.356,13.256 19.356,13.256 19.356,13.256 19.721,13.256 20.022,12.957 20.022,12.593 20.022,12.228 19.721,11.926 19.356,11.926 9.880,11.926 9.880,11.926 9.880,11.926 9.880,10.721 9.880,10.721 9.880,10.721 9.880,10.304 9.540,9.962 9.124,9.962 Z M 40.306,9.987 C 40.311,9.987 40.316,9.987 40.321,9.987 40.484,9.987 40.610,10.113 40.610,10.276 40.610,10.439 40.484,10.567 40.321,10.567 40.158,10.567 40.030,10.439 40.030,10.276 40.030,10.118 40.151,9.994 40.306,9.987 Z M 73.542,10.140 C 73.542,10.658 73.542,10.658 73.542,10.658 87.480,10.658 87.480,10.658 87.480,10.658 87.480,10.140 87.480,10.140 87.480,10.140 Z M 9.104,10.346 C 9.111,10.346 9.117,10.346 9.124,10.346 9.335,10.346 9.496,10.510 9.496,10.721 9.496,11.926 9.496,11.926 9.496,11.926 8.749,11.926 8.749,11.926 8.749,11.926 8.749,10.721 8.749,10.721 8.749,10.721 8.749,10.516 8.903,10.356 9.104,10.346 Z M 68.559,10.373 C 68.481,10.373 68.417,10.432 68.417,10.505 68.417,13.209 68.417,13.209 68.417,13.209 68.417,13.282 68.481,13.341 68.559,13.341 68.638,13.341 68.701,13.282 68.701,13.209 68.701,10.505 68.701,10.505 68.701,10.505 68.701,10.432 68.638,10.373 68.559,10.373 Z M 88.742,10.373 C 88.664,10.373 88.600,10.432 88.600,10.505 88.600,13.209 88.600,13.209 88.600,13.209 88.600,13.282 88.664,13.341 88.742,13.341 88.821,13.341 88.884,13.282 88.884,13.209 88.884,10.505 88.884,10.505 88.884,10.505 88.884,10.432 88.821,10.373 88.742,10.373 Z M 69.331,10.637 C 70.627,10.637 70.627,10.637 70.627,10.637 70.627,11.488 70.627,11.488 70.627,11.488 72.092,11.290 72.092,11.290 72.092,11.290 87.828,11.290 87.828,11.290 87.828,11.290 87.828,11.534 87.828,11.534 87.828,11.534 85.945,11.534 85.945,11.534 85.945,11.534 85.735,11.534 85.561,11.705 85.561,11.915 85.561,12.125 85.735,12.297 85.945,12.297 87.828,12.297 87.828,12.297 87.828,12.297 87.828,12.559 87.828,12.559 87.828,12.559 72.092,12.559 72.092,12.559 72.092,12.559 70.627,12.358 70.627,12.358 70.627,12.358 70.627,13.105 70.627,13.105 70.627,13.105 69.331,13.105 69.331,13.105 69.331,13.105 Z M 60.883,11.389 C 61.359,11.389 61.359,11.389 61.359,11.389 61.359,11.640 61.359,11.640 61.359,11.640 61.944,11.640 61.944,11.640 61.944,11.640 61.944,12.186 61.944,12.186 61.944,12.186 60.930,12.186 60.930,12.186 60.930,12.186 60.930,12.189 60.930,12.189 60.930,12.189 60.569,12.189 60.569,12.189 60.569,12.189 60.569,11.699 60.569,11.699 60.569,11.699 60.883,11.699 60.883,11.699 60.883,11.699 Z M 91.731,11.410 C 91.462,11.416 91.243,11.640 91.243,11.911 91.243,12.186 91.469,12.412 91.744,12.412 92.019,12.412 92.245,12.186 92.245,11.911 92.245,11.636 92.019,11.410 91.744,11.410 91.740,11.410 91.735,11.409 91.731,11.410 Z M 70.017,11.534 C 69.807,11.534 69.636,11.705 69.636,11.915 69.636,12.125 69.807,12.297 70.017,12.297 72.695,12.297 72.695,12.297 72.695,12.297 72.905,12.297 73.077,12.125 73.077,11.915 73.077,11.705 72.905,11.534 72.695,11.534 Z M 73.978,11.534 C 73.768,11.534 73.596,11.705 73.596,11.915 73.596,12.125 73.768,12.297 73.978,12.297 76.657,12.297 76.657,12.297 76.657,12.297 76.867,12.297 77.038,12.125 77.038,11.915 77.038,11.705 76.867,11.534 76.657,11.534 Z M 78.034,11.534 C 77.824,11.534 77.652,11.705 77.652,11.915 77.652,12.125 77.824,12.297 78.034,12.297 80.712,12.297 80.712,12.297 80.712,12.297 80.922,12.297 81.094,12.125 81.094,11.915 81.094,11.705 80.922,11.534 80.712,11.534 Z M 81.997,11.534 C 81.787,11.534 81.614,11.705 81.614,11.915 81.614,12.125 81.787,12.297 81.997,12.297 84.673,12.297 84.673,12.297 84.673,12.297 84.883,12.297 85.055,12.125 85.055,11.915 85.055,11.705 84.883,11.534 84.673,11.534 Z M 62.328,11.640 C 62.543,11.640 62.543,11.640 62.543,11.640 62.543,11.893 62.543,11.893 62.543,11.893 63.123,11.893 63.123,11.893 63.123,11.893 63.123,12.184 63.123,12.184 63.123,12.184 63.931,12.184 63.931,12.184 63.931,12.184 63.931,14.837 63.931,14.837 63.931,14.837 58.473,14.837 58.473,14.837 58.473,14.837 58.473,13.747 58.473,13.747 58.473,13.747 61.314,13.747 61.314,13.747 61.314,13.747 61.314,12.570 61.314,12.570 61.314,12.570 62.328,12.570 62.328,12.570 62.328,12.570 Z M 91.744,11.692 C 91.868,11.692 91.963,11.787 91.963,11.911 91.963,12.034 91.868,12.129 91.744,12.129 91.620,12.129 91.525,12.034 91.525,11.911 91.525,11.787 91.620,11.692 91.744,11.692 Z M 70.017,11.761 C 72.695,11.761 72.695,11.761 72.695,11.761 72.782,11.761 72.847,11.828 72.847,11.915 72.847,12.002 72.782,12.069 72.695,12.069 70.017,12.069 70.017,12.069 70.017,12.069 69.931,12.069 69.866,12.002 69.866,11.915 69.866,11.828 69.931,11.761 70.017,11.761 Z M 73.978,11.761 C 76.657,11.761 76.657,11.761 76.657,11.761 76.743,11.761 76.808,11.828 76.808,11.915 76.808,12.002 76.743,12.069 76.657,12.069 73.978,12.069 73.978,12.069 73.978,12.069 73.891,12.069 73.827,12.002 73.827,11.915 73.827,11.828 73.891,11.761 73.978,11.761 Z M 78.034,11.761 C 80.712,11.761 80.712,11.761 80.712,11.761 80.799,11.761 80.866,11.828 80.866,11.915 80.866,12.002 80.799,12.069 80.712,12.069 78.034,12.069 78.034,12.069 78.034,12.069 77.947,12.069 77.883,12.002 77.883,11.915 77.883,11.828 77.947,11.761 78.034,11.761 Z M 81.997,11.761 C 84.673,11.761 84.673,11.761 84.673,11.761 84.760,11.761 84.827,11.828 84.827,11.915 84.827,12.002 84.760,12.069 84.673,12.069 81.997,12.069 81.997,12.069 81.997,12.069 81.910,12.069 81.844,12.002 81.844,11.915 81.844,11.828 81.910,11.761 81.997,11.761 Z M 85.945,11.761 C 87.828,11.761 87.828,11.761 87.828,11.761 87.828,12.069 87.828,12.069 87.828,12.069 85.945,12.069 85.945,12.069 85.945,12.069 85.858,12.069 85.791,12.002 85.791,11.915 85.791,11.828 85.858,11.761 85.945,11.761 Z M 8.421,12.308 C 19.356,12.308 19.356,12.308 19.356,12.308 19.516,12.308 19.638,12.433 19.638,12.593 19.638,12.752 19.516,12.875 19.356,12.875 8.421,12.875 8.421,12.875 8.421,12.875 8.261,12.875 8.139,12.752 8.139,12.593 8.139,12.433 8.261,12.308 8.421,12.308 Z M 45.838,12.597 C 45.099,12.597 44.497,13.198 44.497,13.936 44.497,14.675 45.099,15.275 45.838,15.275 46.577,15.275 47.178,14.675 47.178,13.936 47.178,13.198 46.577,12.597 45.838,12.597 Z M 71.009,12.796 C 72.066,12.940 72.066,12.940 72.066,12.940 87.828,12.940 87.828,12.940 87.828,12.940 87.828,13.857 87.828,13.857 87.828,13.857 88.935,15.436 88.935,15.436 88.935,15.436 93.074,15.436 93.074,15.436 93.074,15.436 93.074,13.123 93.074,13.123 93.074,13.123 93.442,13.123 93.442,13.123 93.442,13.123 93.442,16.691 93.442,16.691 93.442,16.691 92.692,16.691 92.692,16.691 92.692,16.691 92.692,17.177 92.692,17.177 92.692,17.177 92.279,17.177 92.279,17.177 92.279,17.177 92.280,17.173 92.280,17.170 92.280,17.166 92.280,15.681 92.280,15.681 92.280,15.681 92.280,15.608 92.217,15.550 92.138,15.550 92.060,15.550 91.996,15.608 91.996,15.681 91.996,17.166 91.996,17.166 91.996,17.166 91.996,17.170 91.996,17.173 91.997,17.177 91.494,17.177 91.494,17.177 91.494,17.177 91.495,17.173 91.495,17.170 91.495,17.166 91.495,15.681 91.495,15.681 91.495,15.681 91.495,15.608 91.432,15.550 91.353,15.550 91.275,15.550 91.211,15.608 91.211,15.681 91.211,17.166 91.211,17.166 91.211,17.166 91.211,17.170 91.211,17.173 91.212,17.177 90.688,17.177 90.688,17.177 90.688,17.177 90.688,16.284 90.688,16.284 90.688,16.284 90.688,16.220 90.625,16.169 90.546,16.169 90.467,16.169 90.404,16.220 90.404,16.284 90.404,17.177 90.404,17.177 90.404,17.177 89.894,17.177 89.894,17.177 89.894,17.177 89.894,16.284 89.894,16.284 89.894,16.284 89.894,16.220 89.831,16.169 89.753,16.169 89.674,16.169 89.610,16.220 89.610,16.284 89.610,17.177 89.610,17.177 89.610,17.177 89.463,17.177 89.463,17.177 89.463,17.177 89.463,16.789 89.463,16.789 89.463,16.789 72.057,16.789 72.057,16.789 72.057,16.789 71.043,16.886 71.043,16.886 71.043,16.886 71.043,15.976 71.043,15.976 71.043,15.976 71.009,15.976 71.009,15.976 71.009,15.976 Z M 45.813,12.979 C 45.822,12.979 45.830,12.979 45.838,12.979 46.371,12.979 46.793,13.403 46.793,13.936 46.793,14.470 46.371,14.894 45.838,14.894 45.304,14.894 44.881,14.470 44.881,13.936 44.881,13.411 45.292,12.992 45.813,12.979 Z M 93.672,13.123 C 94.009,13.123 94.009,13.123 94.009,13.123 94.009,13.562 94.009,13.562 94.009,13.562 94.007,13.562 94.007,13.562 94.007,13.562 94.007,16.253 94.007,16.253 94.007,16.253 94.011,16.253 94.011,16.253 94.011,16.253 94.011,16.691 94.011,16.691 94.011,16.691 93.672,16.691 93.672,16.691 93.672,16.691 Z M 73.542,13.189 C 73.542,13.707 73.542,13.707 73.542,13.707 87.480,13.707 87.480,13.707 87.480,13.707 87.480,13.189 87.480,13.189 87.480,13.189 Z M 94.237,13.862 C 94.456,13.862 94.456,13.862 94.456,13.862 94.456,14.035 94.456,14.035 94.456,14.035 94.456,14.417 94.456,14.417 94.456,14.417 94.456,15.397 94.456,15.397 94.456,15.397 94.456,15.781 94.456,15.781 94.456,15.781 94.456,15.955 94.456,15.955 94.456,15.955 94.237,15.955 94.237,15.955 94.237,15.955 Z M 50.316,13.966 C 50.354,13.966 50.354,13.966 50.354,13.966 50.570,14.283 51.052,14.838 51.929,15.152 52.134,14.576 52.134,14.576 52.134,14.576 51.661,14.406 51.341,14.173 51.131,13.966 55.145,13.966 55.145,13.966 55.145,13.966 55.634,13.966 56.007,14.337 56.007,14.803 56.007,15.270 55.634,15.642 55.145,15.642 50.801,15.642 50.801,15.642 50.801,15.642 49.461,14.929 49.461,14.929 49.461,14.929 49.454,14.888 49.452,14.846 49.452,14.803 49.452,14.337 49.826,13.966 50.316,13.966 Z M 72.605,14.643 C 72.605,15.160 72.605,15.160 72.605,15.160 88.111,15.160 88.111,15.160 88.111,15.160 88.111,14.643 88.111,14.643 88.111,14.643 Z M 73.542,15.981 C 73.542,16.498 73.542,16.498 73.542,16.498 87.480,16.498 87.480,16.498 87.480,16.498 87.480,15.981 87.480,15.981 87.480,15.981 Z " />
</svg>