<?xml version="1.0" encoding="UTF-8" standalone="no"?>
<!DOCTYPE svg PUBLIC "-//W3C//DTD SVG 20010904//EN" "http://www.w3.org/TR/2001/REC-SVG-20010904/DTD/svg10.dtd"[]>
<svg version="1.1" id="Frosty Editor v1.0.6.3" xmlns="http://www.w3.org/2000/svg" d1p1:xlink="http://www.w3.org/1999/xlink" viewBox="0 0 384 96" xmlns:d1p1="xmlns">
  <path stroke="none" fill="#ffffffff" d="M 268.000,33.400 C 268.000,34.615 266.836,35.600 265.400,35.600 263.964,35.600 262.800,34.615 262.800,33.400 262.800,32.185 263.964,31.200 265.400,31.200 266.836,31.200 268.000,32.185 268.000,33.400 268.000,33.400 268.000,33.400 268.000,33.400 Z " />
  <path stroke="none" fill="#ffffffff" d="M 268.000,20.400 C 268.000,21.615 266.836,22.600 265.400,22.600 263.964,22.600 262.800,21.615 262.800,20.400 262.800,19.185 263.964,18.200 265.400,18.200 266.836,18.200 268.000,19.185 268.000,20.400 268.000,20.400 268.000,20.400 268.000,20.400 Z " />
  <path stroke="none" fill="#ffffffff" d="M 276.700,20.400 C 276.700,21.615 275.536,22.600 274.100,22.600 272.664,22.600 271.500,21.615 271.500,20.400 271.500,19.185 272.664,18.200 274.100,18.200 275.536,18.200 276.700,19.185 276.700,20.400 276.700,20.400 276.700,20.400 276.700,20.400 Z " />
  <path stroke="none" fill="#ffffffff" d="M 268.000,41.800 C 268.000,43.015 266.836,44.000 265.400,44.000 263.964,44.000 262.800,43.015 262.800,41.800 262.800,40.585 263.964,39.600 265.400,39.600 266.836,39.600 268.000,40.585 268.000,41.800 268.000,41.800 268.000,41.800 268.000,41.800 Z " />
  <path stroke="none" fill="#ffffffff" d="M 188.900,54.700 C 189.800,54.700 190.500,54.000 190.500,53.100 190.500,52.200 189.800,51.500 188.900,51.500 188.000,51.500 187.300,52.200 187.300,53.100 187.300,54.000 188.000,54.700 188.900,54.700 188.900,54.700 188.900,54.700 188.900,54.700 Z " />
  <path stroke="none" fill="#ffffffff" d="M 284.600,32.100 C 282.767,32.100 280.933,32.100 279.100,32.100 279.100,32.467 279.100,32.833 279.100,33.200 278.467,33.200 277.833,33.200 277.200,33.200 277.200,32.267 277.200,31.333 277.200,30.400 275.233,30.400 273.267,30.400 271.300,30.400 271.300,29.933 271.300,29.467 271.300,29.000 268.333,29.000 265.367,29.000 262.400,29.000 262.400,24.533 262.400,20.067 262.400,15.600 267.967,15.600 273.533,15.600 279.100,15.600 279.100,15.967 279.100,16.333 279.100,16.700 280.933,16.700 282.767,16.700 284.600,16.700 284.600,21.833 284.600,26.967 284.600,32.100 284.600,32.100 284.600,32.100 284.600,32.100 Z M 276.200,45.500 C 274.300,45.500 272.400,45.500 270.500,45.500 270.500,45.800 270.500,46.100 270.500,46.400 267.800,46.400 265.100,46.400 262.400,46.400 262.400,40.933 262.400,35.467 262.400,30.000 265.033,30.000 267.667,30.000 270.300,30.000 270.300,30.500 270.300,31.000 270.300,31.500 272.267,31.500 274.233,31.500 276.200,31.500 276.200,36.167 276.200,40.833 276.200,45.500 276.200,45.500 276.200,45.500 276.200,45.500 Z M 261.400,15.600 C 261.400,19.567 261.400,23.533 261.400,27.500 259.200,27.500 257.000,27.500 254.800,27.500 254.800,22.967 254.800,18.433 254.800,13.900 254.800,13.533 254.800,13.167 254.800,12.800 257.000,12.800 259.200,12.800 261.400,12.800 261.400,13.733 261.400,14.667 261.400,15.600 261.400,15.600 261.400,15.600 261.400,15.600 Z M 261.400,46.400 C 259.200,46.400 257.000,46.400 254.800,46.400 254.800,40.433 254.800,34.467 254.800,28.500 257.000,28.500 259.200,28.500 261.400,28.500 261.400,34.467 261.400,40.433 261.400,46.400 261.400,46.400 261.400,46.400 261.400,46.400 Z M 257.400,57.800 C 257.400,57.800 257.500,57.800 257.400,57.800 257.500,57.800 257.100,58.100 250.900,61.200 243.400,64.900 231.200,68.800 224.000,71.300 220.600,72.500 217.900,72.900 215.600,72.900 213.100,72.900 211.000,72.400 208.800,72.000 204.600,71.100 200.900,69.200 200.900,69.200 200.067,68.033 199.233,66.867 198.400,65.700 198.400,64.967 198.400,64.233 198.400,63.500 199.600,62.600 202.700,61.500 204.200,61.000 204.267,60.967 204.333,60.933 204.400,60.900 207.100,60.000 208.900,59.700 210.300,60.100 210.500,60.100 210.700,60.200 211.000,60.300 212.700,60.800 215.500,61.600 222.700,60.600 230.800,59.500 253.900,48.600 254.800,48.100 254.800,48.067 254.800,48.033 254.800,48.000 255.267,48.000 255.733,48.000 256.200,48.000 257.400,50.100 258.600,52.100 259.100,53.000 260.100,55.300 257.400,57.800 257.400,57.800 257.400,57.800 257.400,57.800 257.400,57.800 Z M 195.300,62.600 C 194.933,62.967 194.567,63.333 194.200,63.700 192.867,63.700 191.533,63.700 190.200,63.700 189.967,63.333 189.733,62.967 189.500,62.600 188.533,62.600 187.567,62.600 186.600,62.600 186.200,63.033 185.800,63.467 185.400,63.900 184.100,63.900 182.800,63.900 181.500,63.900 181.167,63.533 180.833,63.167 180.500,62.800 179.800,62.867 179.100,62.933 178.400,63.000 178.600,63.800 178.800,64.600 179.000,65.400 178.400,66.533 177.800,67.667 177.200,68.800 176.833,69.033 176.467,69.267 176.100,69.500 175.733,70.467 175.367,71.433 175.000,72.400 175.000,72.867 175.000,73.333 175.000,73.800 174.500,74.800 174.000,75.800 173.500,76.800 173.133,77.033 172.767,77.267 172.400,77.500 171.967,78.533 171.533,79.567 171.100,80.600 171.267,80.900 171.433,81.200 171.600,81.500 171.067,82.800 170.533,84.100 170.000,85.400 169.567,85.567 169.133,85.733 168.700,85.900 168.333,86.367 167.967,86.833 167.600,87.300 166.900,87.700 166.200,88.100 165.500,88.500 165.500,89.000 165.500,89.500 165.500,90.000 164.333,90.400 163.167,90.800 162.000,91.200 161.500,91.033 161.000,90.867 160.500,90.700 159.867,91.033 159.233,91.367 158.600,91.700 158.600,91.700 157.900,91.400 157.400,90.500 156.800,90.700 156.300,90.700 155.900,90.700 155.000,90.700 154.500,90.500 154.500,90.500 145.700,86.800 136.900,83.100 128.100,79.400 128.067,78.700 128.033,78.000 128.000,77.300 128.000,77.300 134.000,63.300 136.900,56.600 139.800,49.900 133.200,47.500 133.200,47.500 131.033,46.833 128.867,46.167 126.700,45.500 126.700,42.333 126.700,39.167 126.700,36.000 145.133,36.000 163.567,36.000 182.000,36.000 179.667,39.767 177.333,43.533 175.000,47.300 178.167,47.300 181.333,47.300 184.500,47.300 184.500,49.867 184.500,52.433 184.500,55.000 184.500,56.500 185.700,57.700 187.200,57.700 188.333,57.700 189.467,57.700 190.600,57.700 192.100,57.700 193.300,56.500 193.300,55.000 193.300,52.433 193.300,49.867 193.300,47.300 197.467,47.300 201.633,47.300 205.800,47.300 205.800,47.800 205.800,48.300 205.800,48.800 206.267,48.800 206.733,48.800 207.200,48.800 207.200,49.200 207.200,49.600 207.200,50.000 208.733,50.000 210.267,50.000 211.800,50.000 211.800,49.600 211.800,49.200 211.800,48.800 212.267,48.800 212.733,48.800 213.200,48.800 213.200,48.300 213.200,47.800 213.200,47.300 221.800,47.300 230.400,47.300 239.000,47.300 239.000,47.800 239.000,48.300 239.000,48.800 239.467,48.800 239.933,48.800 240.400,48.800 240.400,49.200 240.400,49.600 240.400,50.000 241.933,50.000 243.467,50.000 245.000,50.000 245.000,49.600 245.000,49.200 245.000,48.800 245.467,48.800 245.933,48.800 246.400,48.800 246.400,48.300 246.400,47.800 246.400,47.300 248.800,47.300 251.200,47.300 253.600,47.300 249.900,49.200 229.600,58.400 222.500,59.300 215.500,60.200 212.900,59.500 211.200,59.000 210.900,58.900 210.700,58.900 210.500,58.800 208.900,58.400 207.000,58.700 204.100,59.700 204.033,59.733 203.967,59.767 203.900,59.800 201.300,60.700 198.900,61.500 197.700,62.500 196.900,62.500 196.100,62.500 195.300,62.500 195.300,62.533 195.300,62.567 195.300,62.600 Z M 103.200,35.000 C 103.200,34.167 103.200,33.333 103.200,32.500 102.433,32.500 101.667,32.500 100.900,32.500 100.900,31.567 100.900,30.633 100.900,29.700 100.400,29.033 99.900,28.367 99.400,27.700 99.400,25.533 99.400,23.367 99.400,21.200 99.900,20.533 100.400,19.867 100.900,19.200 100.900,18.167 100.900,17.133 100.900,16.100 101.667,16.100 102.433,16.100 103.200,16.100 103.200,15.333 103.200,14.567 103.200,13.800 112.833,13.800 122.467,13.800 132.100,13.800 132.100,20.867 132.100,27.933 132.100,35.000 122.467,35.000 112.833,35.000 103.200,35.000 103.200,35.000 103.200,35.000 103.200,35.000 Z M 133.100,12.700 C 133.567,12.700 134.033,12.700 134.500,12.700 134.500,12.300 134.500,11.900 134.500,11.500 135.700,11.500 136.900,11.500 138.100,11.500 138.100,11.900 138.100,12.300 138.100,12.700 138.567,12.700 139.033,12.700 139.500,12.700 139.500,20.133 139.500,27.567 139.500,35.000 137.367,35.000 135.233,35.000 133.100,35.000 133.100,27.567 133.100,20.133 133.100,12.700 133.100,12.700 133.100,12.700 133.100,12.700 Z M 192.200,47.400 C 192.200,49.933 192.200,52.467 192.200,55.000 192.200,55.900 191.500,56.700 190.500,56.700 189.367,56.700 188.233,56.700 187.100,56.700 186.200,56.700 185.400,56.000 185.400,55.000 185.400,52.433 185.400,49.867 185.400,47.300 187.667,47.300 189.933,47.300 192.200,47.300 192.200,47.333 192.200,47.367 192.200,47.400 Z M 176.800,46.400 C 180.133,40.967 183.467,35.533 186.800,30.100 192.933,30.100 199.067,30.100 205.200,30.100 205.200,35.533 205.200,40.967 205.200,46.400 195.733,46.400 186.267,46.400 176.800,46.400 176.800,46.400 176.800,46.400 176.800,46.400 Z M 140.600,13.900 C 162.100,13.900 183.600,13.900 205.100,13.900 205.100,18.933 205.100,23.967 205.100,29.000 198.800,29.000 192.500,29.000 186.200,29.000 185.000,31.000 183.800,33.000 182.600,35.000 168.600,35.000 154.600,35.000 140.600,35.000 140.600,27.967 140.600,20.933 140.600,13.900 140.600,13.900 140.600,13.900 140.600,13.900 Z M 143.300,4.000 C 144.400,4.000 145.500,4.000 146.600,4.000 146.833,4.233 147.067,4.467 147.300,4.700 147.300,7.067 147.300,9.433 147.300,11.800 145.967,11.800 144.633,11.800 143.300,11.800 143.300,9.200 143.300,6.600 143.300,4.000 143.300,4.000 143.300,4.000 143.300,4.000 Z M 148.200,5.000 C 151.400,5.000 154.600,5.000 157.800,5.000 159.800,5.367 161.800,5.733 163.800,6.100 165.733,6.100 167.667,6.100 169.600,6.100 169.933,5.767 170.267,5.433 170.600,5.100 173.667,5.100 176.733,5.100 179.800,5.100 180.133,5.433 180.467,5.767 180.800,6.100 186.400,6.100 192.000,6.100 197.600,6.100 197.600,8.000 197.600,9.900 197.600,11.800 181.200,11.800 164.800,11.800 148.400,11.800 148.400,9.533 148.400,7.267 148.400,5.000 148.333,5.000 148.267,5.000 148.200,5.000 Z M 198.300,6.200 C 198.633,5.833 198.967,5.467 199.300,5.100 200.333,5.100 201.367,5.100 202.400,5.100 202.400,7.367 202.400,9.633 202.400,11.900 201.033,11.900 199.667,11.900 198.300,11.900 198.300,10.000 198.300,8.100 198.300,6.200 198.300,6.200 198.300,6.200 198.300,6.200 Z M 206.200,28.500 C 208.333,28.500 210.467,28.500 212.600,28.500 212.600,34.467 212.600,40.433 212.600,46.400 212.400,46.400 212.200,46.400 212.000,46.400 212.000,46.900 212.000,47.400 212.000,47.900 211.533,47.900 211.067,47.900 210.600,47.900 210.600,48.267 210.600,48.633 210.600,49.000 209.733,49.000 208.867,49.000 208.000,49.000 208.000,48.600 208.000,48.200 208.000,47.800 207.533,47.800 207.067,47.800 206.600,47.800 206.600,47.300 206.600,46.800 206.600,46.300 206.433,46.300 206.267,46.300 206.100,46.300 206.100,40.367 206.100,34.433 206.100,28.500 206.133,28.500 206.167,28.500 206.200,28.500 Z M 206.200,12.700 C 206.667,12.700 207.133,12.700 207.600,12.700 207.600,12.300 207.600,11.900 207.600,11.500 208.800,11.500 210.000,11.500 211.200,11.500 211.200,11.900 211.200,12.300 211.200,12.700 211.667,12.700 212.133,12.700 212.600,12.700 212.600,17.633 212.600,22.567 212.600,27.500 210.467,27.500 208.333,27.500 206.200,27.500 206.200,22.567 206.200,17.633 206.200,12.700 206.200,12.700 206.200,12.700 206.200,12.700 Z M 213.700,30.000 C 221.967,30.000 230.233,30.000 238.500,30.000 238.500,35.433 238.500,40.867 238.500,46.300 230.233,46.300 221.967,46.300 213.700,46.300 213.700,40.867 213.700,35.433 213.700,30.000 213.700,30.000 213.700,30.000 213.700,30.000 Z M 213.700,13.900 C 215.100,13.900 216.500,13.900 217.900,13.900 217.900,17.200 217.900,20.500 217.900,23.800 217.900,24.200 218.200,24.400 218.500,24.400 219.067,24.400 219.633,24.400 220.200,24.400 220.600,24.400 220.800,24.100 220.800,23.800 220.800,20.500 220.800,17.200 220.800,13.900 221.800,13.900 222.800,13.900 223.800,13.900 223.800,17.200 223.800,20.500 223.800,23.800 223.800,24.200 224.100,24.400 224.400,24.400 224.967,24.400 225.533,24.400 226.100,24.400 226.500,24.400 226.700,24.100 226.700,23.800 226.700,20.500 226.700,17.200 226.700,13.900 227.700,13.900 228.700,13.900 229.700,13.900 229.700,17.200 229.700,20.500 229.700,23.800 229.700,24.200 230.000,24.400 230.300,24.400 230.867,24.400 231.433,24.400 232.000,24.400 232.400,24.400 232.600,24.100 232.600,23.800 232.600,20.500 232.600,17.200 232.600,13.900 234.400,13.900 236.200,13.900 238.000,13.900 238.000,18.933 238.000,23.967 238.000,29.000 229.733,29.000 221.467,29.000 213.200,29.000 213.200,23.967 213.200,18.933 213.200,13.900 213.367,13.900 213.533,13.900 213.700,13.900 Z M 239.500,28.500 C 241.633,28.500 243.767,28.500 245.900,28.500 245.900,34.467 245.900,40.433 245.900,46.400 245.733,46.400 245.567,46.400 245.400,46.400 245.400,46.900 245.400,47.400 245.400,47.900 244.933,47.900 244.467,47.900 244.000,47.900 244.000,48.267 244.000,48.633 244.000,49.000 243.133,49.000 242.267,49.000 241.400,49.000 241.400,48.600 241.400,48.200 241.400,47.800 240.933,47.800 240.467,47.800 240.000,47.800 240.000,47.300 240.000,46.800 240.000,46.300 239.833,46.300 239.667,46.300 239.500,46.300 239.500,40.367 239.500,34.433 239.500,28.500 239.500,28.500 239.500,28.500 239.500,28.500 Z M 239.500,12.700 C 239.967,12.700 240.433,12.700 240.900,12.700 240.900,12.300 240.900,11.900 240.900,11.500 242.100,11.500 243.300,11.500 244.500,11.500 244.500,11.900 244.500,12.300 244.500,12.700 244.967,12.700 245.433,12.700 245.900,12.700 245.900,17.633 245.900,22.567 245.900,27.500 243.767,27.500 241.633,27.500 239.500,27.500 239.500,22.567 239.500,17.633 239.500,12.700 239.500,12.700 239.500,12.700 239.500,12.700 Z M 247.000,30.000 C 249.267,30.000 251.533,30.000 253.800,30.000 253.800,35.433 253.800,40.867 253.800,46.300 251.533,46.300 249.267,46.300 247.000,46.300 247.000,40.867 247.000,35.433 247.000,30.000 247.000,30.000 247.000,30.000 247.000,30.000 Z M 247.000,13.900 C 249.267,13.900 251.533,13.900 253.800,13.900 253.800,18.933 253.800,23.967 253.800,29.000 251.533,29.000 249.267,29.000 247.000,29.000 247.000,23.967 247.000,18.933 247.000,13.900 247.000,13.900 247.000,13.900 247.000,13.900 Z M 282.100,13.800 C 282.100,13.433 282.100,13.067 282.100,12.700 276.200,12.700 270.300,12.700 264.400,12.700 264.400,11.700 264.400,10.700 264.400,9.700 260.200,9.700 256.000,9.700 251.800,9.700 251.800,10.067 251.800,10.433 251.800,10.800 250.833,10.800 249.867,10.800 248.900,10.800 248.900,10.433 248.900,10.067 248.900,9.700 248.433,9.700 247.967,9.700 247.500,9.700 247.500,9.300 247.500,8.900 247.500,8.500 244.300,8.500 241.100,8.500 237.900,8.500 237.900,8.900 237.900,9.300 237.900,9.700 237.433,9.700 236.967,9.700 236.500,9.700 236.500,10.067 236.500,10.433 236.500,10.800 235.333,10.800 234.167,10.800 233.000,10.800 233.000,10.567 233.000,10.333 233.000,10.100 233.000,9.700 232.700,9.500 232.400,9.500 231.833,9.500 231.267,9.500 230.700,9.500 230.300,9.500 230.100,9.800 230.100,10.100 230.100,10.333 230.100,10.567 230.100,10.800 229.100,10.800 228.100,10.800 227.100,10.800 227.100,10.567 227.100,10.333 227.100,10.100 227.100,9.700 226.800,9.500 226.500,9.500 225.933,9.500 225.367,9.500 224.800,9.500 224.400,9.500 224.200,9.800 224.200,10.100 224.200,10.333 224.200,10.567 224.200,10.800 223.200,10.800 222.200,10.800 221.200,10.800 221.200,10.567 221.200,10.333 221.200,10.100 221.200,9.700 220.900,9.500 220.600,9.500 220.033,9.500 219.467,9.500 218.900,9.500 218.500,9.500 218.300,9.800 218.300,10.100 218.300,10.333 218.300,10.567 218.300,10.800 217.533,10.800 216.767,10.800 216.000,10.800 216.000,10.433 216.000,10.067 216.000,9.700 215.533,9.700 215.067,9.700 214.600,9.700 214.600,9.300 214.600,8.900 214.600,8.500 211.667,8.500 208.733,8.500 205.800,8.500 205.800,6.367 205.800,4.233 205.800,2.100 203.200,2.100 200.600,2.100 198.000,2.100 197.667,2.467 197.333,2.833 197.000,3.200 192.000,3.200 187.000,3.200 182.000,3.200 181.667,2.867 181.333,2.533 181.000,2.200 179.833,2.200 178.667,2.200 177.500,2.200 177.100,1.800 176.700,1.400 176.300,1.000 175.000,1.000 173.700,1.000 172.400,1.000 172.000,1.400 171.600,1.800 171.200,2.200 170.533,2.200 169.867,2.200 169.200,2.200 168.867,2.533 168.533,2.867 168.200,3.200 166.800,3.200 165.400,3.200 164.000,3.200 162.067,2.833 160.133,2.467 158.200,2.100 155.100,2.100 152.000,2.100 148.900,2.100 148.567,1.767 148.233,1.433 147.900,1.100 145.400,1.100 142.900,1.100 140.400,1.100 140.400,3.600 140.400,6.100 140.400,8.600 137.467,8.600 134.533,8.600 131.600,8.600 131.600,9.000 131.600,9.400 131.600,9.800 131.133,9.800 130.667,9.800 130.200,9.800 130.200,10.167 130.200,10.533 130.200,10.900 120.233,10.900 110.267,10.900 100.300,10.900 100.300,11.667 100.300,12.433 100.300,13.200 99.533,13.200 98.767,13.200 98.000,13.200 98.000,14.467 98.000,15.733 98.000,17.000 97.500,17.667 97.000,18.333 96.500,19.000 96.500,22.667 96.500,26.333 96.500,30.000 97.000,30.667 97.500,31.333 98.000,32.000 98.000,33.167 98.000,34.333 98.000,35.500 98.767,35.500 99.533,35.500 100.300,35.500 100.300,36.333 100.300,37.167 100.300,38.000 107.967,38.000 115.633,38.000 123.300,38.000 123.300,41.233 123.300,44.467 123.300,47.700 126.133,48.533 128.967,49.367 131.800,50.200 131.900,50.200 133.500,50.900 134.100,52.200 134.400,53.000 134.300,54.000 133.800,55.200 130.733,62.300 127.667,69.400 124.600,76.500 124.667,78.067 124.733,79.633 124.800,81.200 134.233,85.167 143.667,89.133 153.100,93.100 153.400,93.200 154.300,93.500 155.600,93.500 155.700,93.500 155.900,93.500 156.000,93.500 156.700,94.000 157.800,94.500 158.100,94.700 158.233,94.767 158.367,94.833 158.500,94.900 159.200,94.567 159.900,94.233 160.600,93.900 161.033,94.033 161.467,94.167 161.900,94.300 164.067,93.533 166.233,92.767 168.400,92.000 168.400,91.367 168.400,90.733 168.400,90.100 168.800,89.867 169.200,89.633 169.600,89.400 169.900,89.000 170.200,88.600 170.500,88.200 171.067,88.000 171.633,87.800 172.200,87.600 173.100,85.433 174.000,83.267 174.900,81.100 174.733,80.833 174.567,80.567 174.400,80.300 174.533,80.033 174.667,79.767 174.800,79.500 175.167,79.300 175.533,79.100 175.900,78.900 176.667,77.433 177.433,75.967 178.200,74.500 178.200,73.967 178.200,73.433 178.200,72.900 178.400,72.433 178.600,71.967 178.800,71.500 179.100,71.300 179.400,71.100 179.700,70.900 180.433,69.533 181.167,68.167 181.900,66.800 183.600,66.800 185.300,66.800 187.000,66.800 187.367,66.400 187.733,66.000 188.100,65.600 188.300,65.933 188.500,66.267 188.700,66.600 191.000,66.600 193.300,66.600 195.600,66.600 195.600,66.600 195.600,66.600 195.600,66.600 196.733,68.200 197.867,69.800 199.000,71.400 199.233,71.500 199.467,71.600 199.700,71.700 200.100,71.900 204.000,73.800 208.400,74.700 208.567,74.733 208.733,74.767 208.900,74.800 211.000,75.200 213.200,75.700 215.800,75.700 218.800,75.700 221.700,75.100 225.200,73.900 231.100,71.900 244.200,67.800 252.500,63.700 255.100,62.400 257.000,61.500 258.100,60.900 258.400,60.800 258.700,60.600 258.900,60.400 258.933,60.433 258.967,60.467 259.000,60.500 259.233,60.267 259.467,60.033 259.700,59.800 261.300,58.300 263.600,54.800 261.800,51.300 261.700,51.100 261.600,50.900 261.400,50.500 261.200,50.100 261.000,49.700 260.800,49.200 265.100,49.167 269.400,49.133 273.700,49.100 273.700,48.800 273.700,48.500 273.700,48.200 275.600,48.200 277.500,48.200 279.400,48.200 279.400,44.233 279.400,40.267 279.400,36.300 280.367,36.300 281.333,36.300 282.300,36.300 282.300,35.933 282.300,35.567 282.300,35.200 284.133,35.200 285.967,35.200 287.800,35.200 287.800,28.067 287.800,20.933 287.800,13.800 285.900,13.800 284.000,13.800 282.100,13.800 282.100,13.800 282.100,13.800 282.100,13.800 Z " />
  <path stroke="none" fill="#ffffffff" d="M 155.500,78.400 C 152.800,79.500 150.100,80.600 147.400,81.700 146.600,81.333 145.800,80.967 145.000,80.600 144.500,80.400 144.600,78.800 145.100,77.300 149.200,68.367 153.300,59.433 157.400,50.500 158.067,50.500 158.733,50.500 159.400,50.500 160.000,52.067 160.600,53.633 161.200,55.200 162.267,55.200 163.333,55.200 164.400,55.200 164.267,54.767 164.133,54.333 164.000,53.900 164.000,53.900 163.600,52.400 163.400,50.400 165.000,50.400 166.600,50.400 168.200,50.400 163.967,59.733 159.733,69.067 155.500,78.400 155.500,78.400 155.500,78.400 155.500,78.400 Z M 155.500,47.500 C 151.133,57.033 146.767,66.567 142.400,76.100 142.400,76.100 140.200,81.700 143.800,83.300 147.400,84.900 147.400,84.900 147.400,84.900 150.867,83.500 154.333,82.100 157.800,80.700 162.767,69.967 167.733,59.233 172.700,48.500 172.233,48.167 171.767,47.833 171.300,47.500 166.033,47.500 160.767,47.500 155.500,47.500 155.500,47.500 155.500,47.500 155.500,47.500 Z " />
</svg>