<?xml version="1.0" encoding="UTF-8" standalone="no"?>
<!DOCTYPE svg PUBLIC "-//W3C//DTD SVG 20010904//EN" "http://www.w3.org/TR/2001/REC-SVG-20010904/DTD/svg10.dtd"[]>
<svg version="1.1" id="Frosty Editor v1.0.6.3" xmlns="http://www.w3.org/2000/svg" d1p1:xlink="http://www.w3.org/1999/xlink" viewBox="0 0 384 96" xmlns:d1p1="xmlns">
  <path stroke="none" fill="#ffffffff" d="M 377.630,54.640 C 376.297,55.197 374.963,55.753 373.630,56.310 373.503,56.310 373.377,56.310 373.250,56.310 373.250,51.937 373.250,47.563 373.250,43.190 373.377,43.190 373.503,43.190 373.630,43.190 374.963,43.747 376.297,44.303 377.630,44.860 377.630,48.120 377.630,51.380 377.630,54.640 Z M 242.300,56.310 C 242.300,51.937 242.300,47.563 242.300,43.190 285.270,43.190 328.240,43.190 371.210,43.190 371.210,47.563 371.210,51.937 371.210,56.310 328.240,56.310 285.270,56.310 242.300,56.310 Z M 240.300,57.950 C 239.077,57.950 237.853,57.950 236.630,57.950 236.630,52.483 236.630,47.017 236.630,41.550 237.853,41.550 239.077,41.550 240.300,41.550 240.300,47.017 240.300,52.483 240.300,57.950 Z M 230.970,56.580 C 230.970,55.663 230.970,54.747 230.970,53.830 232.193,53.830 233.417,53.830 234.640,53.830 234.640,54.747 234.640,55.663 234.640,56.580 233.417,56.580 232.193,56.580 230.970,56.580 Z M 199.590,56.580 C 199.590,55.663 199.590,54.747 199.590,53.830 207.340,53.830 215.090,53.830 222.840,53.830 222.840,54.747 222.840,55.663 222.840,56.580 215.090,56.580 207.340,56.580 199.590,56.580 Z M 193.900,55.580 C 193.900,55.163 193.900,54.747 193.900,54.330 193.900,54.330 193.900,54.330 193.900,54.330 193.900,53.887 193.900,53.443 193.900,53.000 195.457,53.000 197.013,53.000 198.570,53.000 198.570,54.453 198.570,55.907 198.570,57.360 197.013,57.360 195.457,57.360 193.900,57.360 193.900,56.767 193.900,56.173 193.900,55.580 193.900,55.580 193.900,55.580 193.900,55.580 Z M 187.710,55.580 C 187.710,55.163 187.710,54.747 187.710,54.330 189.440,54.330 191.170,54.330 192.900,54.330 192.900,54.747 192.900,55.163 192.900,55.580 191.170,55.580 189.440,55.580 187.710,55.580 Z M 176.650,59.900 C 175.027,60.527 173.403,61.153 171.780,61.780 159.280,61.780 146.780,61.780 134.280,61.780 132.740,61.157 131.200,60.533 129.660,59.910 126.440,59.910 123.220,59.910 120.000,59.910 120.000,58.633 120.000,57.357 120.000,56.080 130.177,56.080 140.353,56.080 150.530,56.080 150.430,56.404 150.376,56.741 150.370,57.080 150.300,58.421 150.975,59.690 152.125,60.382 153.276,61.073 154.714,61.073 155.865,60.382 157.015,59.690 157.690,58.421 157.620,57.080 157.614,56.741 157.560,56.404 157.460,56.080 166.887,56.080 176.313,56.080 185.740,56.080 185.740,57.353 185.740,58.627 185.740,59.900 182.710,59.900 179.680,59.900 176.650,59.900 Z M 120.000,63.210 C 120.119,63.619 119.967,64.058 119.620,64.305 119.273,64.552 118.807,64.552 118.460,64.305 118.114,64.058 117.961,63.619 118.080,63.210 118.080,62.773 118.080,62.337 118.080,61.900 118.720,61.900 119.360,61.900 120.000,61.900 120.000,62.337 120.000,62.773 120.000,63.210 Z M 120.000,48.310 C 120.000,47.943 120.000,47.577 120.000,47.210 141.133,47.210 162.267,47.210 183.400,47.210 183.400,47.577 183.400,47.943 183.400,48.310 162.267,48.310 141.133,48.310 120.000,48.310 Z M 156.620,57.090 C 156.620,58.155 155.978,59.114 154.994,59.521 154.010,59.927 152.878,59.700 152.127,58.946 151.375,58.192 151.153,57.059 151.563,56.077 151.973,55.094 152.935,54.456 154.000,54.460 155.429,54.487 156.575,55.651 156.580,57.080 156.593,57.083 156.607,57.087 156.620,57.090 Z M 111.000,57.400 C 111.000,56.503 111.000,55.607 111.000,54.710 112.167,54.710 113.333,54.710 114.500,54.710 114.500,53.293 114.500,51.877 114.500,50.460 113.333,50.460 112.167,50.460 111.000,50.460 111.000,49.530 111.000,48.600 111.000,47.670 111.667,47.670 112.333,47.670 113.000,47.670 113.000,46.807 113.000,45.943 113.000,45.080 116.180,45.080 119.360,45.080 122.540,45.080 122.540,43.747 122.540,42.413 122.540,41.080 124.790,41.080 127.040,41.080 129.290,41.080 129.290,38.603 129.290,36.127 129.290,33.650 130.707,33.650 132.123,33.650 133.540,33.650 133.540,35.547 133.540,37.443 133.540,39.340 151.583,39.340 169.627,39.340 187.670,39.340 187.670,41.050 187.670,42.760 187.670,44.470 195.780,44.470 203.890,44.470 212.000,44.470 212.000,45.097 212.000,45.723 212.000,46.350 203.237,46.350 194.473,46.350 185.710,46.350 185.710,49.263 185.710,52.177 185.710,55.090 176.140,55.090 166.570,55.090 157.000,55.090 156.327,54.093 155.203,53.496 154.000,53.496 152.797,53.496 151.673,54.093 151.000,55.090 140.667,55.090 130.333,55.090 120.000,55.090 120.000,53.163 120.000,51.237 120.000,49.310 141.467,49.310 162.933,49.310 184.400,49.310 184.400,48.277 184.400,47.243 184.400,46.210 162.600,46.210 140.800,46.210 119.000,46.210 119.000,50.773 119.000,55.337 119.000,59.900 117.967,59.900 116.933,59.900 115.900,59.900 115.900,59.067 115.900,58.233 115.900,57.400 114.267,57.400 112.633,57.400 111.000,57.400 Z M 110.600,62.020 C 110.490,62.020 110.380,62.020 110.270,62.020 110.210,62.043 110.150,62.067 110.090,62.090 109.890,62.160 108.170,62.910 107.960,66.020 107.833,67.020 107.707,68.020 107.580,69.020 107.580,69.200 107.350,69.400 106.870,69.500 106.870,68.127 106.870,66.753 106.870,65.380 106.870,64.240 106.150,62.080 103.870,62.080 100.073,62.080 96.277,62.080 92.480,62.080 91.953,63.243 91.427,64.407 90.900,65.570 91.197,66.777 91.493,67.983 91.790,69.190 89.457,73.903 87.123,78.617 84.790,83.330 84.720,83.473 84.650,83.617 84.580,83.760 84.647,83.907 84.713,84.053 84.780,84.200 85.070,84.820 85.510,86.320 85.030,87.010 84.700,87.490 83.860,87.570 83.170,87.540 80.170,86.587 77.170,85.633 74.170,84.680 73.994,84.624 73.847,84.502 73.760,84.340 73.550,83.779 73.550,83.161 73.760,82.600 76.093,78.460 78.427,74.320 80.760,70.180 81.374,69.053 81.504,67.725 81.120,66.500 80.730,65.620 79.942,64.980 79.000,64.780 77.977,64.390 76.855,64.338 75.800,64.630 75.533,64.357 75.267,64.083 75.000,63.810 75.000,63.477 75.000,63.143 75.000,62.810 76.800,62.810 78.600,62.810 80.400,62.810 80.400,61.673 80.400,60.537 80.400,59.400 91.567,59.400 102.733,59.400 113.900,59.400 113.900,59.833 113.900,60.267 113.900,60.700 113.660,61.070 112.860,62.000 110.610,62.000 110.607,62.007 110.603,62.013 110.600,62.020 Z M 104.860,69.520 C 102.860,69.520 100.860,69.520 98.860,69.520 98.209,69.021 97.748,68.316 97.550,67.520 97.550,67.390 97.550,67.390 97.660,67.340 98.955,66.735 99.841,65.500 100.000,64.080 101.300,64.080 102.600,64.080 103.900,64.080 104.790,64.080 104.900,65.230 104.900,65.410 104.887,66.780 104.873,68.150 104.860,69.520 Z M 93.000,65.760 C 93.253,65.200 93.507,64.640 93.760,64.080 95.147,64.080 96.533,64.080 97.920,64.080 97.807,64.693 97.415,65.218 96.860,65.500 96.010,65.855 95.491,66.723 95.580,67.640 95.639,68.201 95.817,68.743 96.100,69.230 95.317,69.110 94.533,68.990 93.750,68.870 93.500,67.833 93.250,66.797 93.000,65.760 Z M 79.400,59.400 C 79.400,60.193 79.400,60.987 79.400,61.780 77.933,61.780 76.467,61.780 75.000,61.780 75.000,60.987 75.000,60.193 75.000,59.400 76.467,59.400 77.933,59.400 79.400,59.400 Z M 43.710,57.400 C 43.710,53.657 43.710,49.913 43.710,46.170 42.347,46.170 40.983,46.170 39.620,46.170 39.620,45.637 39.620,45.103 39.620,44.570 56.243,44.570 72.867,44.570 89.490,44.570 89.451,45.470 89.780,46.347 90.400,47.000 90.852,47.411 91.439,47.642 92.050,47.650 98.033,47.650 104.017,47.650 110.000,47.650 110.000,48.913 110.000,50.177 110.000,51.440 111.167,51.440 112.333,51.440 113.500,51.440 113.500,52.190 113.500,52.940 113.500,53.690 112.333,53.690 111.167,53.690 110.000,53.690 110.000,54.927 110.000,56.163 110.000,57.400 87.903,57.400 65.807,57.400 43.710,57.400 Z M 42.710,60.210 C 41.043,60.210 39.377,60.210 37.710,60.210 31.550,64.423 25.390,68.637 19.230,72.850 19.230,72.850 14.700,76.200 10.560,74.470 8.983,63.047 7.407,51.623 5.830,40.200 5.830,38.890 5.830,37.580 5.830,36.270 6.807,36.270 7.783,36.270 8.760,36.270 11.873,36.743 14.987,37.217 18.100,37.690 20.803,38.167 23.507,38.643 26.210,39.120 26.210,40.787 26.210,42.453 26.210,44.120 26.110,44.930 26.329,45.748 26.820,46.400 27.332,46.954 28.068,47.244 28.820,47.190 33.450,47.190 38.080,47.190 42.710,47.190 42.710,51.523 42.710,55.857 42.710,60.190 42.710,60.197 42.710,60.203 42.710,60.210 Z M 29.000,39.620 C 29.000,40.443 29.000,41.267 29.000,42.090 40.237,42.090 51.473,42.090 62.710,42.090 62.710,40.517 62.710,38.943 62.710,37.370 69.347,36.213 75.983,35.057 82.620,33.900 82.620,37.123 82.620,40.347 82.620,43.570 67.953,43.570 53.287,43.570 38.620,43.570 38.620,44.433 38.620,45.297 38.620,46.160 35.343,46.160 32.067,46.160 28.790,46.160 28.341,46.200 27.898,46.039 27.580,45.720 27.268,45.264 27.136,44.708 27.210,44.160 27.210,42.540 27.210,40.920 27.210,39.300 27.807,39.407 28.403,39.513 29.000,39.620 Z M 30.000,37.400 C 40.570,37.400 51.140,37.400 61.710,37.400 61.710,38.630 61.710,39.860 61.710,41.090 51.140,41.090 40.570,41.090 30.000,41.090 30.000,39.860 30.000,38.630 30.000,37.400 Z M 84.110,33.650 C 92.920,33.650 101.730,33.650 110.540,33.650 110.540,35.433 110.540,37.217 110.540,39.000 103.513,39.000 96.487,39.000 89.460,39.000 89.460,40.523 89.460,42.047 89.460,43.570 87.513,43.570 85.567,43.570 83.620,43.570 83.620,40.290 83.620,37.010 83.620,33.730 83.783,33.703 83.947,33.677 84.110,33.650 Z M 97.490,26.400 C 93.660,26.400 89.830,26.400 86.000,26.400 85.667,26.933 85.333,27.467 85.000,28.000 83.890,28.000 82.780,28.000 81.670,28.000 81.670,24.767 81.670,21.533 81.670,18.300 82.780,18.300 83.890,18.300 85.000,18.300 85.333,18.823 85.667,19.347 86.000,19.870 89.830,19.870 93.660,19.870 97.490,19.870 99.527,20.180 101.563,20.490 103.600,20.800 103.600,22.357 103.600,23.913 103.600,25.470 101.563,25.780 99.527,26.090 97.490,26.400 Z M 112.860,21.000 C 112.860,22.420 112.860,23.840 112.860,25.260 111.373,25.283 109.887,25.307 108.400,25.330 108.400,23.863 108.400,22.397 108.400,20.930 109.887,20.953 111.373,20.977 112.860,21.000 Z M 124.280,21.190 C 124.280,22.487 124.280,23.783 124.280,25.080 122.120,25.113 119.960,25.147 117.800,25.180 117.800,23.813 117.800,22.447 117.800,21.080 119.960,21.117 122.120,21.153 124.280,21.190 Z M 126.280,13.720 C 132.113,13.720 137.947,13.720 143.780,13.720 143.780,17.840 143.780,21.960 143.780,26.080 143.240,26.877 142.700,27.673 142.160,28.470 136.870,28.470 131.580,28.470 126.290,28.470 126.287,23.553 126.283,18.637 126.280,13.720 Z M 165.450,21.850 C 165.450,22.707 165.450,23.563 165.450,24.420 158.893,24.523 152.337,24.627 145.780,24.730 145.780,23.663 145.780,22.597 145.780,21.530 152.337,21.637 158.893,21.743 165.450,21.850 Z M 121.580,40.090 C 119.477,40.090 117.373,40.090 115.270,40.090 115.270,37.943 115.270,35.797 115.270,33.650 119.623,33.650 123.977,33.650 128.330,33.650 128.330,35.797 128.330,37.943 128.330,40.090 126.080,40.090 123.830,40.090 121.580,40.090 121.580,40.090 121.580,40.090 121.580,40.090 Z M 111.870,31.650 C 111.063,31.650 110.257,31.650 109.450,31.650 109.450,30.207 109.450,28.763 109.450,27.320 110.257,27.320 111.063,27.320 111.870,27.320 111.870,28.763 111.870,30.207 111.870,31.650 Z M 113.870,24.270 C 114.853,24.270 115.837,24.270 116.820,24.270 116.820,24.580 116.820,24.890 116.820,25.200 116.820,25.200 116.820,25.200 116.820,25.200 116.820,27.287 116.820,29.373 116.820,31.460 115.847,31.460 114.873,31.460 113.900,31.460 113.900,29.390 113.900,27.320 113.900,25.250 113.900,25.250 113.900,25.250 113.900,25.250 113.890,24.923 113.880,24.597 113.870,24.270 Z M 113.870,21.020 C 113.870,20.303 113.870,19.587 113.870,18.870 114.307,18.726 114.755,18.619 115.210,18.550 115.210,18.550 115.210,18.550 115.210,18.550 115.742,18.615 116.267,18.725 116.780,18.880 116.780,19.607 116.780,20.333 116.780,21.060 116.780,21.060 116.780,21.060 116.780,21.060 116.780,21.127 116.780,21.193 116.780,21.260 115.797,21.260 114.813,21.260 113.830,21.260 113.830,21.173 113.830,21.087 113.830,21.000 113.843,21.007 113.857,21.013 113.870,21.020 Z M 113.870,22.270 C 114.853,22.270 115.837,22.270 116.820,22.270 116.820,22.603 116.820,22.937 116.820,23.270 115.837,23.270 114.853,23.270 113.870,23.270 113.870,22.937 113.870,22.603 113.870,22.270 Z M 107.410,24.270 C 107.410,26.667 107.410,29.063 107.410,31.460 106.473,31.460 105.537,31.460 104.600,31.460 104.600,29.063 104.600,26.667 104.600,24.270 105.537,24.270 106.473,24.270 107.410,24.270 Z M 104.600,22.270 C 105.537,22.270 106.473,22.270 107.410,22.270 107.410,22.603 107.410,22.937 107.410,23.270 106.473,23.270 105.537,23.270 104.600,23.270 104.600,22.937 104.600,22.603 104.600,22.270 Z M 104.600,18.850 C 105.021,18.715 105.452,18.614 105.890,18.550 105.890,18.550 105.890,18.550 105.890,18.550 106.402,18.613 106.907,18.720 107.400,18.870 107.400,19.670 107.400,20.470 107.400,21.270 106.467,21.270 105.533,21.270 104.600,21.270 104.600,20.463 104.600,19.657 104.600,18.850 Z M 92.090,46.670 C 91.721,46.672 91.364,46.537 91.090,46.290 90.635,45.779 90.414,45.101 90.480,44.420 90.480,44.420 90.480,44.420 90.480,44.420 90.480,43.670 90.480,42.920 90.480,42.170 97.653,42.170 104.827,42.170 112.000,42.170 112.000,43.670 112.000,45.170 112.000,46.670 105.363,46.670 98.727,46.670 92.090,46.670 Z M 90.460,41.170 C 90.460,40.780 90.460,40.390 90.460,40.000 97.487,40.000 104.513,40.000 111.540,40.000 111.540,37.883 111.540,35.767 111.540,33.650 112.450,33.650 113.360,33.650 114.270,33.650 114.270,36.130 114.270,38.610 114.270,41.090 116.707,41.090 119.143,41.090 121.580,41.090 121.580,42.090 121.580,43.090 121.580,44.090 118.720,44.090 115.860,44.090 113.000,44.090 113.000,43.117 113.000,42.143 113.000,41.170 105.487,41.170 97.973,41.170 90.460,41.170 Z M 139.890,31.650 C 132.857,31.650 125.823,31.650 118.790,31.650 118.790,30.157 118.790,28.663 118.790,27.170 120.623,27.140 122.457,27.110 124.290,27.080 124.290,28.210 124.290,29.340 124.290,30.470 129.600,30.470 134.910,30.470 140.220,30.470 140.110,30.863 140.000,31.257 139.890,31.650 Z M 198.550,38.150 C 209.393,38.150 220.237,38.150 231.080,38.150 232.260,39.173 233.440,40.197 234.620,41.220 234.620,41.633 234.620,42.047 234.620,42.460 219.650,42.460 204.680,42.460 189.710,42.460 189.710,40.750 189.710,39.040 189.710,37.330 171.667,37.330 153.623,37.330 135.580,37.330 135.580,36.103 135.580,34.877 135.580,33.650 155.320,33.650 175.060,33.650 194.800,33.650 196.050,35.150 197.300,36.650 198.550,38.150 Z M 223.840,53.320 C 225.893,53.320 227.947,53.320 230.000,53.320 230.000,54.580 230.000,55.840 230.000,57.100 227.960,57.100 225.920,57.100 223.880,57.100 223.867,55.840 223.853,54.580 223.840,53.320 Z M 217.210,48.320 C 218.920,48.320 220.630,48.320 222.340,48.320 222.340,49.320 222.340,50.320 222.340,51.320 222.150,51.320 221.960,51.320 221.770,51.320 221.770,51.497 221.770,51.673 221.770,51.850 220.253,51.850 218.737,51.850 217.220,51.850 217.217,50.673 217.213,49.497 217.210,48.320 Z M 222.330,46.320 C 220.623,46.320 218.917,46.320 217.210,46.320 217.210,45.700 217.210,45.080 217.210,44.460 218.920,44.460 220.630,44.460 222.340,44.460 222.337,45.080 222.333,45.700 222.330,46.320 Z M 226.580,51.320 C 225.497,51.320 224.413,51.320 223.330,51.320 223.330,49.033 223.330,46.747 223.330,44.460 224.413,44.460 225.497,44.460 226.580,44.460 226.580,46.747 226.580,49.033 226.580,51.320 Z M 234.580,46.320 C 232.247,46.320 229.913,46.320 227.580,46.320 227.580,45.700 227.580,45.080 227.580,44.460 229.913,44.460 232.247,44.460 234.580,44.460 234.580,45.080 234.580,45.700 234.580,46.320 Z M 212.910,44.440 C 213.993,44.440 215.077,44.440 216.160,44.440 216.160,46.897 216.160,49.353 216.160,51.810 215.107,51.810 214.053,51.810 213.000,51.810 212.970,49.353 212.940,46.897 212.910,44.440 Z M 191.910,51.000 C 191.910,51.437 191.910,51.873 191.910,52.310 190.510,52.310 189.110,52.310 187.710,52.310 187.710,50.977 187.710,49.643 187.710,48.310 195.807,48.310 203.903,48.310 212.000,48.310 212.000,49.473 212.000,50.637 212.000,51.800 208.293,51.800 204.587,51.800 200.880,51.800 200.880,51.533 200.880,51.267 200.880,51.000 197.890,51.000 194.900,51.000 191.910,51.000 Z M 227.580,51.300 C 227.580,50.300 227.580,49.300 227.580,48.300 229.913,48.300 232.247,48.300 234.580,48.300 234.580,49.463 234.580,50.627 234.580,51.790 233.720,51.790 232.860,51.790 232.000,51.790 232.000,51.627 232.000,51.463 232.000,51.300 230.527,51.300 229.053,51.300 227.580,51.300 Z M 374.000,41.190 C 373.740,41.190 373.480,41.190 373.220,41.190 373.220,40.487 373.220,39.783 373.220,39.080 372.553,39.080 371.887,39.080 371.220,39.080 371.220,39.783 371.220,40.487 371.220,41.190 328.243,41.190 285.267,41.190 242.290,41.190 242.290,40.643 242.290,40.097 242.290,39.550 240.110,39.550 237.930,39.550 235.750,39.550 234.443,38.413 233.137,37.277 231.830,36.140 221.050,36.140 210.270,36.140 199.490,36.140 198.240,34.640 196.990,33.140 195.740,31.640 177.827,31.640 159.913,31.640 142.000,31.640 142.107,31.250 142.213,30.860 142.320,30.470 142.633,30.470 142.947,30.470 143.260,30.470 144.100,29.227 144.940,27.983 145.780,26.740 153.013,26.623 160.247,26.507 167.480,26.390 167.480,24.220 167.480,22.050 167.480,19.880 160.257,19.763 153.033,19.647 145.810,19.530 145.810,16.927 145.810,14.323 145.810,11.720 138.643,11.720 131.477,11.720 124.310,11.720 124.310,14.210 124.310,16.700 124.310,19.190 122.477,19.160 120.643,19.130 118.810,19.100 118.810,18.530 118.810,17.960 118.810,17.390 118.573,17.317 118.337,17.243 118.100,17.170 117.168,16.860 116.206,16.649 115.230,16.540 115.230,16.540 115.230,16.540 115.230,16.540 114.330,16.654 113.445,16.865 112.590,17.170 112.363,17.247 112.137,17.323 111.910,17.400 111.910,17.933 111.910,18.467 111.910,19.000 111.103,19.000 110.297,19.000 109.490,19.000 109.490,18.463 109.490,17.927 109.490,17.390 109.253,17.317 109.017,17.243 108.780,17.170 107.848,16.860 106.886,16.649 105.910,16.540 105.910,16.540 105.910,16.540 105.910,16.540 105.010,16.654 104.125,16.865 103.270,17.170 103.043,17.247 102.817,17.323 102.590,17.400 102.590,17.800 102.590,18.200 102.590,18.600 100.980,18.353 99.370,18.107 97.760,17.860 94.213,17.860 90.667,17.860 87.120,17.860 86.787,17.337 86.453,16.813 86.120,16.290 83.970,16.290 81.820,16.290 79.670,16.290 79.670,20.860 79.670,25.430 79.670,30.000 81.820,30.000 83.970,30.000 86.120,30.000 86.453,29.480 86.787,28.960 87.120,28.440 90.600,28.440 94.080,28.440 97.560,28.440 99.227,28.190 100.893,27.940 102.560,27.690 102.560,29.023 102.560,30.357 102.560,31.690 96.373,31.690 90.187,31.690 84.000,31.690 76.833,32.927 69.667,34.163 62.500,35.400 50.957,35.400 39.413,35.400 27.870,35.400 27.870,36.067 27.870,36.733 27.870,37.400 24.720,36.843 21.570,36.287 18.420,35.730 17.323,35.563 16.227,35.397 15.130,35.230 15.207,34.797 15.283,34.363 15.360,33.930 14.693,33.817 14.027,33.703 13.360,33.590 13.283,34.037 13.207,34.483 13.130,34.930 11.753,34.713 10.377,34.497 9.000,34.280 7.277,34.280 5.553,34.280 3.830,34.280 3.830,36.280 3.830,38.280 3.830,40.280 5.437,51.947 7.043,63.613 8.650,75.280 8.673,75.453 8.697,75.627 8.720,75.800 8.873,75.880 9.027,75.960 9.180,76.040 10.402,76.666 11.757,76.989 13.130,76.980 15.742,76.870 18.265,76.002 20.390,74.480 26.370,70.390 32.350,66.300 38.330,62.210 40.457,62.210 42.583,62.210 44.710,62.210 44.710,61.273 44.710,60.337 44.710,59.400 54.140,59.400 63.570,59.400 73.000,59.400 73.000,61.137 73.000,62.873 73.000,64.610 73.800,65.443 74.600,66.277 75.400,67.110 75.630,66.970 75.860,66.830 76.090,66.690 76.812,66.383 77.628,66.383 78.350,66.690 79.030,66.880 79.160,67.200 79.210,67.300 79.369,67.945 79.295,68.625 79.000,69.220 76.633,73.387 74.267,77.553 71.900,81.720 71.870,81.793 71.840,81.867 71.810,81.940 71.376,83.071 71.445,84.333 72.000,85.410 72.364,86.001 72.940,86.430 73.610,86.610 76.610,87.563 79.610,88.517 82.610,89.470 82.690,89.470 82.770,89.470 82.850,89.470 83.017,89.470 83.183,89.470 83.350,89.470 84.607,89.594 85.839,89.061 86.610,88.060 87.610,86.620 87.040,84.650 86.700,83.750 88.857,79.417 91.013,75.083 93.170,70.750 94.680,70.983 96.190,71.217 97.700,71.450 97.930,71.450 98.160,71.450 98.390,71.450 98.410,71.450 98.430,71.450 98.450,71.450 98.450,71.450 98.450,71.450 98.450,71.450 101.017,71.450 103.583,71.450 106.150,71.450 108.740,71.450 109.480,69.910 109.520,69.030 109.643,68.070 109.767,67.110 109.890,66.150 109.863,65.344 110.141,64.558 110.670,63.950 113.520,63.950 114.860,62.640 115.430,61.820 115.627,61.820 115.823,61.820 116.020,61.820 116.020,62.257 116.020,62.693 116.020,63.130 115.826,64.304 116.345,65.481 117.341,66.131 118.337,66.781 119.623,66.781 120.619,66.131 121.616,65.481 122.134,64.304 121.940,63.130 121.940,62.720 121.940,62.310 121.940,61.900 124.360,61.900 126.780,61.900 129.200,61.900 130.743,62.527 132.287,63.153 133.830,63.780 146.583,63.780 159.337,63.780 172.090,63.780 173.727,63.153 175.363,62.527 177.000,61.900 180.563,61.900 184.127,61.900 187.690,61.900 187.690,60.460 187.690,59.020 187.690,57.580 189.090,57.580 190.490,57.580 191.890,57.580 191.890,58.183 191.890,58.787 191.890,59.390 194.890,59.390 197.890,59.390 200.890,59.390 200.890,59.120 200.890,58.850 200.890,58.580 207.850,58.580 214.810,58.580 221.770,58.580 221.770,58.757 221.770,58.933 221.770,59.110 225.180,59.110 228.590,59.110 232.000,59.110 232.000,58.933 232.000,58.757 232.000,58.580 232.867,58.580 233.733,58.580 234.600,58.580 234.600,59.037 234.600,59.493 234.600,59.950 237.157,59.950 239.713,59.950 242.270,59.950 242.270,59.403 242.270,58.857 242.270,58.310 285.250,58.310 328.230,58.310 371.210,58.310 371.210,58.977 371.210,59.643 371.210,60.310 371.877,60.310 372.543,60.310 373.210,60.310 373.210,59.643 373.210,58.977 373.210,58.310 373.473,58.310 373.737,58.310 374.000,58.310 375.877,57.540 377.753,56.770 379.630,56.000 379.630,51.840 379.630,47.680 379.630,43.520 377.753,42.743 375.877,41.967 374.000,41.190 Z " />
  <path stroke="none" fill="#ffffffff" d="M 179.070,41.730 C 179.122,41.451 179.366,41.248 179.650,41.248 179.934,41.248 180.178,41.451 180.230,41.730 180.230,42.440 180.230,43.150 180.230,43.860 180.178,44.139 179.934,44.342 179.650,44.342 179.366,44.342 179.122,44.139 179.070,43.860 179.070,43.150 179.070,42.440 179.070,41.730 Z M 179.650,45.360 C 180.059,45.371 180.455,45.219 180.751,44.937 181.047,44.656 181.220,44.268 181.230,43.860 181.230,43.153 181.230,42.447 181.230,41.740 181.230,42.304 180.929,42.826 180.440,43.108 179.951,43.391 179.349,43.391 178.860,43.108 178.371,42.826 178.070,42.304 178.070,41.740 178.070,42.450 178.070,43.160 178.070,43.870 178.097,44.717 178.803,45.382 179.650,45.360 179.650,45.360 179.650,45.360 179.650,45.360 Z " />
  <path stroke="none" fill="#ffffffff" d="M 174.190,41.730 C 174.242,41.451 174.486,41.248 174.770,41.248 175.054,41.248 175.298,41.451 175.350,41.730 175.350,42.440 175.350,43.150 175.350,43.860 175.298,44.139 175.054,44.342 174.770,44.342 174.486,44.342 174.242,44.139 174.190,43.860 174.190,43.150 174.190,42.440 174.190,41.730 Z M 174.770,45.360 C 175.179,45.371 175.575,45.219 175.871,44.937 176.167,44.656 176.340,44.268 176.350,43.860 176.350,43.153 176.350,42.447 176.350,41.740 176.350,42.304 176.049,42.826 175.560,43.108 175.071,43.391 174.469,43.391 173.980,43.108 173.491,42.826 173.190,42.304 173.190,41.740 173.190,42.450 173.190,43.160 173.190,43.870 173.217,44.717 173.923,45.382 174.770,45.360 174.770,45.360 174.770,45.360 174.770,45.360 Z " />
  <path stroke="none" fill="#ffffffff" d="M 169.310,41.730 C 169.362,41.451 169.606,41.248 169.890,41.248 170.174,41.248 170.418,41.451 170.470,41.730 170.470,42.440 170.470,43.150 170.470,43.860 170.418,44.139 170.174,44.342 169.890,44.342 169.606,44.342 169.362,44.139 169.310,43.860 169.310,43.150 169.310,42.440 169.310,41.730 Z M 169.890,45.360 C 170.299,45.371 170.695,45.219 170.991,44.937 171.287,44.656 171.460,44.268 171.470,43.860 171.470,43.153 171.470,42.447 171.470,41.740 171.470,42.304 171.169,42.826 170.680,43.108 170.191,43.391 169.589,43.391 169.100,43.108 168.611,42.826 168.310,42.304 168.310,41.740 168.310,42.450 168.310,43.160 168.310,43.870 168.337,44.717 169.043,45.382 169.890,45.360 169.890,45.360 169.890,45.360 169.890,45.360 Z " />
  <path stroke="none" fill="#ffffffff" d="M 164.420,41.730 C 164.472,41.451 164.716,41.248 165.000,41.248 165.284,41.248 165.528,41.451 165.580,41.730 165.580,42.440 165.580,43.150 165.580,43.860 165.528,44.139 165.284,44.342 165.000,44.342 164.716,44.342 164.472,44.139 164.420,43.860 164.420,43.150 164.420,42.440 164.420,41.730 Z M 165.000,45.360 C 165.409,45.371 165.805,45.219 166.101,44.937 166.397,44.656 166.570,44.268 166.580,43.860 166.580,43.153 166.580,42.447 166.580,41.740 166.580,42.304 166.279,42.826 165.790,43.108 165.301,43.391 164.699,43.391 164.210,43.108 163.721,42.826 163.420,42.304 163.420,41.740 163.420,42.450 163.420,43.160 163.420,43.870 163.447,44.717 164.153,45.382 165.000,45.360 165.000,45.360 165.000,45.360 165.000,45.360 Z " />
  <path stroke="none" fill="#ffffffff" d="M 159.540,41.730 C 159.592,41.451 159.836,41.248 160.120,41.248 160.404,41.248 160.648,41.451 160.700,41.730 160.700,42.440 160.700,43.150 160.700,43.860 160.648,44.139 160.404,44.342 160.120,44.342 159.836,44.342 159.592,44.139 159.540,43.860 159.540,43.150 159.540,42.440 159.540,41.730 Z M 160.120,45.360 C 160.529,45.371 160.925,45.219 161.221,44.937 161.517,44.656 161.690,44.268 161.700,43.860 161.700,43.153 161.700,42.447 161.700,41.740 161.700,42.304 161.399,42.826 160.910,43.108 160.421,43.391 159.819,43.391 159.330,43.108 158.841,42.826 158.540,42.304 158.540,41.740 158.540,42.450 158.540,43.160 158.540,43.870 158.567,44.717 159.273,45.382 160.120,45.360 160.120,45.360 160.120,45.360 160.120,45.360 Z " />
  <path stroke="none" fill="#ffffffff" d="M 154.660,41.730 C 154.712,41.451 154.956,41.248 155.240,41.248 155.524,41.248 155.768,41.451 155.820,41.730 155.820,42.440 155.820,43.150 155.820,43.860 155.768,44.139 155.524,44.342 155.240,44.342 154.956,44.342 154.712,44.139 154.660,43.860 154.660,43.150 154.660,42.440 154.660,41.730 Z M 155.240,45.360 C 155.649,45.371 156.045,45.219 156.341,44.937 156.637,44.656 156.810,44.268 156.820,43.860 156.820,43.153 156.820,42.447 156.820,41.740 156.820,42.304 156.519,42.826 156.030,43.108 155.541,43.391 154.939,43.391 154.450,43.108 153.961,42.826 153.660,42.304 153.660,41.740 153.660,42.450 153.660,43.160 153.660,43.870 153.687,44.717 154.393,45.382 155.240,45.360 155.240,45.360 155.240,45.360 155.240,45.360 Z " />
  <path stroke="none" fill="#ffffffff" d="M 149.780,41.730 C 149.832,41.451 150.076,41.248 150.360,41.248 150.644,41.248 150.888,41.451 150.940,41.730 150.940,42.440 150.940,43.150 150.940,43.860 150.888,44.139 150.644,44.342 150.360,44.342 150.076,44.342 149.832,44.139 149.780,43.860 149.780,43.150 149.780,42.440 149.780,41.730 Z M 150.360,45.360 C 150.769,45.371 151.165,45.219 151.461,44.937 151.757,44.656 151.930,44.268 151.940,43.860 151.940,43.153 151.940,42.447 151.940,41.740 151.940,42.304 151.639,42.826 151.150,43.108 150.661,43.391 150.059,43.391 149.570,43.108 149.081,42.826 148.780,42.304 148.780,41.740 148.780,42.450 148.780,43.160 148.780,43.870 148.807,44.717 149.513,45.382 150.360,45.360 150.360,45.360 150.360,45.360 150.360,45.360 Z " />
  <path stroke="none" fill="#ffffffff" d="M 144.890,41.730 C 144.942,41.451 145.186,41.248 145.470,41.248 145.754,41.248 145.998,41.451 146.050,41.730 146.050,42.440 146.050,43.150 146.050,43.860 145.998,44.139 145.754,44.342 145.470,44.342 145.186,44.342 144.942,44.139 144.890,43.860 144.890,43.150 144.890,42.440 144.890,41.730 Z M 145.470,45.360 C 145.879,45.371 146.275,45.219 146.571,44.937 146.867,44.656 147.040,44.268 147.050,43.860 147.050,43.153 147.050,42.447 147.050,41.740 147.050,42.304 146.749,42.826 146.260,43.108 145.771,43.391 145.169,43.391 144.680,43.108 144.191,42.826 143.890,42.304 143.890,41.740 143.890,42.450 143.890,43.160 143.890,43.870 143.917,44.717 144.623,45.382 145.470,45.360 145.470,45.360 145.470,45.360 145.470,45.360 Z " />
  <path stroke="none" fill="#ffffffff" d="M 140.000,41.740 C 140.052,41.461 140.296,41.258 140.580,41.258 140.864,41.258 141.108,41.461 141.160,41.740 141.160,42.450 141.160,43.160 141.160,43.870 141.108,44.149 140.864,44.352 140.580,44.352 140.296,44.352 140.052,44.149 140.000,43.870 140.000,43.160 140.000,42.450 140.000,41.740 Z M 140.590,45.360 C 140.999,45.371 141.395,45.219 141.691,44.937 141.987,44.656 142.160,44.268 142.170,43.860 142.170,43.153 142.170,42.447 142.170,41.740 142.170,42.304 141.869,42.826 141.380,43.108 140.891,43.391 140.289,43.391 139.800,43.108 139.311,42.826 139.010,42.304 139.010,41.740 139.010,42.450 139.010,43.160 139.010,43.870 139.037,44.717 139.743,45.382 140.590,45.360 140.590,45.360 140.590,45.360 140.590,45.360 Z " />
  <path stroke="none" fill="#ffffffff" d="M 134.520,44.570 C 133.457,44.570 132.393,44.570 131.330,44.570 131.330,43.183 131.330,41.797 131.330,40.410 131.860,40.410 132.390,40.410 132.920,40.410 133.453,40.743 133.987,41.077 134.520,41.410 134.520,42.463 134.520,43.517 134.520,44.570 Z M 135.520,40.820 C 134.747,40.350 133.973,39.880 133.200,39.410 132.243,39.410 131.287,39.410 130.330,39.410 130.330,41.463 130.330,43.517 130.330,45.570 132.060,45.570 133.790,45.570 135.520,45.570 135.520,43.987 135.520,42.403 135.520,40.820 Z " />
  <path stroke="none" fill="#ffffffff" d="M 131.000,18.630 C 132.973,18.630 134.947,18.630 136.920,18.630 136.920,19.603 136.920,20.577 136.920,21.550 134.947,21.550 132.973,21.550 131.000,21.550 131.000,20.577 131.000,19.603 131.000,18.630 Z M 129.000,23.550 C 132.307,23.550 135.613,23.550 138.920,23.550 138.920,21.243 138.920,18.937 138.920,16.630 135.613,16.630 132.307,16.630 129.000,16.630 129.000,18.937 129.000,21.243 129.000,23.550 Z " />
</svg>