<?xml version="1.0" encoding="UTF-8" standalone="no"?>
<!DOCTYPE svg PUBLIC "-//W3C//DTD SVG 20010904//EN" "http://www.w3.org/TR/2001/REC-SVG-20010904/DTD/svg10.dtd"[]>
<svg version="1.1" id="Frosty Editor v1.0.6.3" xmlns="http://www.w3.org/2000/svg" d1p1:xlink="http://www.w3.org/1999/xlink" viewBox="0 0 101 25" xmlns:d1p1="xmlns">
  <path stroke="none" fill="#ffffffff" d="M 51.783,4.923 C 51.588,4.923 51.429,4.940 51.429,4.961 51.429,4.983 51.279,5.039 51.096,5.086 50.914,5.134 50.710,5.201 50.643,5.236 50.576,5.270 50.321,5.356 50.075,5.427 49.829,5.497 49.607,5.572 49.580,5.594 49.554,5.615 49.360,5.680 49.149,5.739 48.937,5.798 48.753,5.862 48.740,5.881 48.727,5.900 48.654,5.931 48.578,5.950 48.372,6.001 48.308,6.092 48.308,6.335 48.308,6.553 48.308,6.553 48.308,6.553 46.784,6.567 46.784,6.567 46.784,6.567 45.260,6.579 45.260,6.579 45.260,6.579 45.245,6.782 45.245,6.782 45.245,6.782 45.231,6.984 45.231,6.984 45.231,6.984 39.437,7.010 39.437,7.010 39.437,7.010 36.250,7.023 32.118,7.051 30.254,7.071 26.866,7.107 26.866,7.107 26.866,7.107 26.717,7.256 26.717,7.256 26.717,7.256 26.581,7.392 26.534,7.407 26.147,7.437 25.915,7.454 25.649,7.489 25.556,7.513 25.462,7.537 25.261,7.583 25.109,7.615 24.958,7.648 24.833,7.692 24.833,7.715 24.833,7.779 24.450,7.762 23.717,7.663 23.341,7.612 22.817,7.546 22.553,7.516 20.736,7.310 19.757,7.190 18.593,7.033 16.190,6.709 15.765,6.654 15.400,6.626 15.189,6.609 14.887,6.576 14.728,6.553 13.733,6.409 10.718,6.331 10.025,6.431 9.455,6.516 9.277,6.633 9.369,7.330 9.491,8.072 9.526,8.255 9.552,8.298 9.583,8.347 9.636,10.791 9.623,11.572 9.612,12.267 9.528,13.407 9.442,14.044 9.401,14.348 9.349,14.758 9.327,14.956 9.305,15.154 9.232,15.608 9.165,15.964 9.004,16.814 8.896,17.639 8.896,18.032 8.895,18.458 8.945,18.485 9.755,18.484 10.420,18.483 11.195,18.096 11.584,17.898 14.303,16.582 16.110,14.873 19.337,13.875 19.416,13.839 19.675,13.752 19.913,13.681 20.150,13.610 20.366,13.537 20.393,13.518 20.419,13.500 20.614,13.434 20.825,13.374 21.036,13.313 21.230,13.247 21.257,13.227 21.329,13.172 21.973,12.987 22.257,12.941 22.393,12.919 22.559,12.887 22.625,12.870 22.736,12.842 22.754,12.863 22.856,13.127 23.265,14.186 24.289,15.082 25.451,15.399 25.968,15.539 26.915,15.539 27.432,15.399 27.880,15.277 28.473,14.984 28.806,14.720 29.055,14.524 29.055,14.524 29.055,14.524 29.818,14.524 29.818,14.524 29.818,14.524 30.580,14.524 30.580,14.524 30.580,14.524 30.607,14.944 30.607,14.944 30.607,14.944 30.663,15.751 30.863,16.088 31.846,16.156 32.280,16.151 32.757,16.074 32.991,15.712 33.028,15.626 33.071,15.545 33.087,15.532 33.103,15.519 33.137,15.443 33.164,15.364 33.205,15.241 33.240,15.218 33.401,15.205 33.505,15.196 33.677,15.211 33.784,15.238 33.891,15.265 34.059,15.300 34.158,15.316 34.573,15.499 34.786,15.917 34.685,16.456 34.659,16.489 34.600,16.651 34.554,16.816 34.150,17.970 33.117,18.555 32.794,19.853 32.718,19.853 32.774,21.039 32.857,21.208 33.018,21.392 33.092,21.555 33.354,21.693 34.086,22.242 34.950,22.819 35.755,23.309 36.055,23.489 36.261,23.657 36.619,23.798 36.751,23.841 37.018,23.878 37.211,23.881 37.657,23.881 38.096,23.763 38.433,23.441 38.656,23.216 38.811,22.933 38.802,22.612 38.802,22.104 38.570,22.002 38.498,21.851 38.424,21.697 38.415,21.604 38.442,21.311 38.748,20.149 39.467,18.867 40.015,17.741 40.744,18.391 41.010,18.788 42.320,18.641 43.259,18.660 43.436,18.652 43.577,18.585 43.667,18.543 43.807,18.494 43.888,18.478 44.001,18.410 44.137,18.364 44.265,18.268 44.879,17.865 44.795,17.026 44.789,16.224 44.797,14.788 44.797,14.788 44.797,14.788 46.033,14.775 46.033,14.775 46.033,14.775 46.991,14.765 47.308,14.768 47.307,14.823 47.304,15.065 49.508,15.093 49.516,14.824 49.517,14.763 49.801,14.764 50.382,14.764 50.838,14.764 51.127,14.690 51.418,15.184 51.451,15.257 51.511,15.359 51.552,15.412 51.624,15.507 51.688,15.508 58.949,15.521 66.275,15.533 66.275,15.533 66.275,15.533 66.436,15.361 66.436,15.361 66.436,15.361 66.525,15.266 66.599,15.179 66.599,15.165 66.599,15.152 66.630,15.110 66.667,15.073 66.726,15.014 67.709,15.004 73.556,15.004 80.376,15.004 80.376,15.004 80.376,15.004 80.377,15.568 80.377,15.568 80.377,15.568 80.379,16.244 80.462,16.578 81.365,16.578 81.787,16.588 82.034,16.616 82.140,16.665 82.380,16.775 83.839,16.739 84.274,16.613 84.590,16.521 84.600,16.521 84.961,16.611 85.362,16.711 86.345,16.732 87.361,16.662 87.889,16.626 87.889,16.626 87.889,16.626 88.077,16.803 88.077,16.803 88.077,16.803 88.265,16.981 88.265,16.981 88.265,16.981 88.773,16.949 88.773,16.949 88.773,16.949 89.053,16.931 89.605,16.920 90.001,16.923 91.589,16.936 93.227,16.925 93.374,16.899 93.530,16.872 93.530,16.872 93.530,16.872 93.529,15.374 93.529,15.374 93.529,15.374 93.529,14.550 93.515,13.825 93.499,13.764 93.468,13.651 93.468,13.651 93.468,13.651 92.123,13.668 92.123,13.668 92.123,13.668 91.101,13.680 90.773,13.698 90.758,13.744 90.743,13.789 90.539,13.802 89.938,13.798 89.137,13.793 89.137,13.793 89.137,13.793 89.570,13.728 89.570,13.728 89.570,13.728 89.966,13.668 90.196,13.628 90.794,13.516 90.913,13.493 91.150,13.450 91.322,13.420 91.493,13.390 91.731,13.346 91.850,13.323 91.969,13.300 92.325,13.235 92.642,13.178 93.156,13.084 93.756,12.946 94.322,12.700 94.820,12.496 95.511,12.240 95.786,11.715 95.832,11.627 95.868,11.558 95.888,11.478 95.918,11.362 95.930,10.809 95.930,10.047 95.928,8.271 95.664,7.436 93.650,6.914 93.201,6.787 92.986,6.692 92.810,6.651 92.566,6.595 92.029,6.443 90.554,6.244 87.867,5.882 87.913,5.883 73.122,5.883 64.645,5.883 60.358,5.867 60.358,5.835 60.358,5.807 60.219,5.752 60.027,5.752 59.835,5.752 59.686,5.807 59.686,5.835 59.686,5.863 59.518,5.883 59.278,5.883 59.038,5.883 58.870,5.863 58.870,5.835 58.870,5.807 58.726,5.758 58.534,5.758 58.342,5.758 58.197,5.807 58.197,5.835 58.197,5.863 58.030,5.883 57.790,5.883 57.550,5.883 57.398,5.874 57.398,5.846 57.398,5.819 57.276,5.743 57.070,5.741 56.886,5.740 56.723,5.808 56.723,5.835 56.723,5.864 56.517,5.883 56.133,5.883 55.509,5.883 55.509,5.883 55.509,5.883 55.509,5.667 55.509,5.667 55.509,5.667 55.509,5.451 55.509,5.451 55.509,5.451 53.853,5.451 53.853,5.451 53.853,5.451 52.197,5.451 52.197,5.451 52.197,5.451 52.197,5.337 52.197,5.337 52.197,5.337 52.197,5.274 52.183,5.155 52.167,5.073 52.137,4.923 52.137,4.923 52.137,4.923 Z M 51.490,5.739 C 51.507,5.739 51.535,5.814 51.552,5.907 51.584,6.075 51.584,6.075 51.584,6.075 52.226,6.075 52.226,6.075 52.226,6.075 52.869,6.075 52.869,6.075 52.869,6.075 52.869,6.627 52.869,6.627 52.869,6.627 52.869,7.179 52.869,7.179 52.869,7.179 50.900,7.179 50.900,7.179 50.900,7.179 48.932,7.179 48.932,7.179 48.932,7.179 48.932,6.869 48.932,6.869 48.932,6.869 48.932,6.559 48.932,6.559 48.932,6.559 49.280,6.456 49.280,6.456 49.280,6.456 49.472,6.399 49.650,6.336 49.676,6.316 49.703,6.295 49.930,6.220 50.180,6.148 50.431,6.077 50.658,6.001 50.685,5.980 50.728,5.945 51.416,5.739 51.490,5.739 Z M 53.205,6.455 C 54.249,6.482 54.249,6.482 54.249,6.482 54.823,6.496 62.606,6.526 71.543,6.548 83.104,6.576 87.952,6.603 88.345,6.642 88.649,6.673 89.589,6.794 90.434,6.912 91.907,7.119 92.712,7.296 93.266,7.536 93.345,7.570 93.556,7.638 93.734,7.688 94.346,7.893 95.016,8.204 95.236,8.871 95.271,9.059 95.264,9.015 95.066,9.003 94.997,8.999 85.554,8.963 74.076,8.960 53.205,8.955 53.205,8.955 53.205,8.955 53.205,7.705 53.205,7.705 53.205,7.705 Z M 10.829,7.045 C 11.773,7.039 13.546,7.079 14.008,7.131 14.246,7.158 14.753,7.211 15.136,7.250 15.519,7.288 16.459,7.407 17.225,7.514 18.875,7.745 19.294,7.798 21.233,8.021 22.215,8.134 22.527,8.171 23.446,8.288 24.290,8.397 24.290,8.397 24.290,8.397 24.008,8.623 24.008,8.623 24.008,8.623 23.479,9.048 23.066,9.612 22.823,10.244 22.635,10.733 22.577,11.077 22.577,11.700 22.577,12.220 22.577,12.220 22.577,12.220 22.431,12.220 22.431,12.220 22.431,12.220 22.351,12.220 22.140,12.253 21.963,12.293 21.786,12.333 21.533,12.391 21.401,12.420 21.269,12.449 21.150,12.488 21.137,12.505 21.124,12.523 20.940,12.588 20.729,12.649 20.518,12.710 20.323,12.777 20.297,12.797 20.270,12.818 20.048,12.893 19.802,12.964 19.556,13.034 19.301,13.121 19.234,13.155 15.894,14.381 13.618,16.196 10.600,17.694 10.547,17.714 10.388,17.754 10.248,17.783 9.908,17.854 9.631,17.851 9.605,17.776 9.570,17.679 9.646,17.037 9.758,16.468 9.983,15.331 10.200,13.417 10.262,12.028 10.300,11.172 10.213,8.200 10.138,7.803 10.105,7.632 10.077,7.406 10.075,7.303 10.072,7.127 10.083,7.111 10.240,7.069 10.291,7.055 10.514,7.047 10.829,7.045 Z M 49.368,7.514 C 51.121,7.515 52.869,7.532 52.869,7.563 52.869,7.595 51.782,7.611 49.705,7.611 46.541,7.611 46.541,7.611 46.541,7.611 46.201,7.936 46.201,7.936 46.201,7.936 45.884,8.239 45.860,8.276 45.860,8.464 45.860,8.667 45.860,8.667 45.860,8.667 42.956,8.667 42.956,8.667 42.956,8.667 40.406,8.667 40.051,8.658 40.051,8.595 40.051,8.532 39.721,8.523 37.367,8.523 34.682,8.523 34.682,8.523 34.682,8.523 34.513,8.721 34.513,8.721 34.513,8.721 34.305,8.964 34.275,9.156 34.298,10.113 34.313,10.738 34.325,10.820 34.427,10.985 34.645,11.334 34.398,11.308 37.390,11.308 40.067,11.308 40.099,11.306 40.099,11.211 40.099,11.117 40.132,11.115 42.975,11.115 45.851,11.115 45.851,11.115 45.851,11.115 45.867,11.355 45.867,11.355 45.867,11.355 45.884,11.595 45.884,11.595 45.884,11.595 40.063,11.595 40.063,11.595 40.063,11.595 34.243,11.595 34.243,11.595 34.243,11.595 34.243,9.627 34.243,9.627 34.243,9.627 34.243,7.659 34.243,7.659 34.243,7.659 36.115,7.659 36.115,7.659 36.115,7.659 37.987,7.659 37.987,7.659 37.987,7.659 37.987,8.043 37.987,8.043 37.987,8.043 37.987,8.427 37.987,8.427 37.987,8.427 41.755,8.427 41.755,8.427 41.755,8.427 45.524,8.427 45.524,8.427 45.524,8.427 45.530,8.295 45.530,8.295 45.530,8.295 45.533,8.222 45.532,8.052 45.526,7.916 45.516,7.676 45.520,7.668 45.663,7.636 45.745,7.618 45.823,7.584 45.838,7.559 45.858,7.528 47.616,7.513 49.368,7.514 Z M 38.323,7.659 C 41.755,7.659 41.755,7.659 41.755,7.659 45.188,7.659 45.188,7.659 45.188,7.659 45.188,7.875 45.188,7.875 45.188,7.875 45.188,8.091 45.188,8.091 45.188,8.091 41.755,8.091 41.755,8.091 41.755,8.091 38.323,8.091 38.323,8.091 38.323,8.091 38.323,7.875 38.323,7.875 38.323,7.875 Z M 33.884,7.701 C 33.896,7.713 33.907,7.882 33.907,8.075 33.907,8.427 33.907,8.427 33.907,8.427 31.350,8.423 31.350,8.423 31.350,8.423 29.944,8.421 28.816,8.411 28.842,8.401 28.868,8.391 29.203,8.337 29.586,8.281 29.969,8.226 30.401,8.162 30.546,8.139 30.691,8.117 30.961,8.075 31.146,8.048 31.331,8.020 31.774,7.953 32.130,7.898 32.927,7.775 33.854,7.670 33.884,7.701 Z M 28.214,7.713 C 28.462,7.712 28.771,7.714 29.154,7.717 30.850,7.733 30.841,7.727 29.514,7.926 29.223,7.969 28.805,8.035 28.584,8.072 28.109,8.151 28.095,8.152 28.002,8.090 27.962,8.064 27.784,7.997 27.606,7.942 27.428,7.887 27.282,7.823 27.282,7.800 27.282,7.739 27.472,7.716 28.214,7.713 Z M 46.820,7.947 C 49.845,7.947 49.845,7.947 49.845,7.947 52.869,7.947 52.869,7.947 52.869,7.947 52.869,9.859 52.869,9.859 52.869,9.859 52.869,11.772 52.869,11.772 52.869,11.772 51.565,11.804 51.565,11.804 51.565,11.804 50.848,11.821 49.487,11.835 48.540,11.835 46.820,11.835 46.820,11.835 46.820,11.835 46.820,9.891 46.820,9.891 46.820,9.891 Z M 46.438,8.286 C 46.446,8.283 46.453,8.284 46.457,8.288 46.472,8.304 46.480,9.048 46.473,9.943 46.460,11.569 46.460,11.569 46.460,11.569 46.352,11.453 46.352,11.453 46.352,11.453 46.245,11.339 46.244,11.324 46.244,9.911 46.244,8.579 46.250,8.478 46.336,8.372 46.374,8.326 46.414,8.293 46.438,8.286 Z M 26.404,8.387 C 27.271,8.378 28.165,8.765 28.784,9.436 29.920,10.667 29.926,12.555 28.799,13.788 28.307,14.326 27.764,14.632 27.032,14.784 25.060,15.191 23.201,13.655 23.201,11.620 23.201,9.974 24.364,8.659 26.034,8.415 26.156,8.398 26.280,8.388 26.404,8.387 Z M 29.147,8.811 C 31.527,8.811 31.527,8.811 31.527,8.811 33.907,8.811 33.907,8.811 33.907,8.811 33.907,10.251 33.907,10.251 33.907,10.251 33.907,11.179 33.889,11.692 33.858,11.692 33.832,11.692 33.811,11.789 33.811,11.908 33.811,12.124 33.811,12.124 33.811,12.124 32.065,12.124 32.065,12.124 32.065,12.124 30.319,12.124 30.319,12.124 30.319,12.124 30.295,11.488 30.295,11.488 30.295,11.488 30.276,10.962 30.250,10.785 30.142,10.467 29.983,10.000 29.791,9.634 29.540,9.315 29.436,9.183 29.305,9.016 29.249,8.943 Z M 34.953,8.859 C 37.334,8.859 37.334,8.859 37.334,8.859 39.715,8.859 39.715,8.859 39.715,8.859 39.715,9.886 39.715,9.886 39.715,9.886 39.715,10.778 39.705,10.917 39.639,10.942 39.597,10.958 38.518,10.971 37.240,10.971 34.916,10.971 34.916,10.971 34.916,10.971 34.795,10.781 34.795,10.781 34.795,10.781 34.680,10.599 34.675,10.555 34.675,9.873 34.675,9.158 34.675,9.158 34.675,9.158 34.814,9.009 34.814,9.009 34.814,9.009 Z M 40.051,9.003 C 42.956,9.003 42.956,9.003 42.956,9.003 45.860,9.003 45.860,9.003 45.860,9.003 45.860,9.891 45.860,9.891 45.860,9.891 45.860,10.780 45.860,10.780 45.860,10.780 42.956,10.780 42.956,10.780 42.956,10.780 40.406,10.780 40.051,10.771 40.051,10.707 40.051,10.645 40.312,10.635 42.111,10.635 44.170,10.635 44.170,10.635 44.170,10.635 44.314,10.472 44.314,10.472 44.314,10.472 44.499,10.260 44.563,9.833 44.449,9.561 44.318,9.247 44.293,9.243 42.045,9.243 40.051,9.243 40.051,9.243 40.051,9.243 40.051,9.123 40.051,9.123 40.051,9.123 Z M 53.205,9.340 C 69.035,9.340 69.035,9.340 69.035,9.340 84.865,9.340 84.865,9.340 84.865,9.340 84.865,9.963 84.865,9.963 84.865,9.963 84.865,10.587 84.865,10.587 84.865,10.587 69.067,10.587 69.067,10.587 69.067,10.587 60.378,10.587 53.255,10.573 53.237,10.556 53.219,10.538 53.205,10.257 53.205,9.931 Z M 85.477,9.340 C 85.609,9.340 85.609,9.340 85.609,9.340 85.609,9.963 85.609,9.963 85.609,9.963 85.609,10.528 85.601,10.587 85.525,10.582 85.249,10.564 85.177,10.436 85.177,9.965 85.177,9.554 85.280,9.340 85.477,9.340 Z M 85.945,9.340 C 90.230,9.343 90.230,9.343 90.230,9.343 92.586,9.345 94.629,9.363 94.769,9.383 95.123,9.433 95.262,9.579 95.292,9.930 95.312,10.168 95.279,10.317 95.117,10.428 95.025,10.492 94.971,10.526 94.852,10.535 94.740,10.543 93.087,10.587 90.325,10.587 85.945,10.587 85.945,10.587 85.945,10.587 85.945,9.963 85.945,9.963 85.945,9.963 Z M 40.051,9.575 C 42.024,9.589 42.024,9.589 42.024,9.589 43.912,9.603 43.999,9.608 44.064,9.697 44.169,9.840 44.148,10.075 44.021,10.195 43.910,10.299 43.895,10.300 41.980,10.300 40.051,10.300 40.051,10.300 40.051,10.300 40.051,9.937 40.051,9.937 40.051,9.937 Z M 73.872,9.724 C 69.698,9.724 65.524,9.733 65.474,9.753 65.384,9.787 65.371,10.040 65.458,10.076 65.545,10.110 82.178,10.113 82.268,10.078 82.369,10.040 82.369,9.791 82.268,9.753 82.219,9.733 78.045,9.724 73.872,9.724 Z M 26.442,10.036 C 25.924,10.036 25.680,10.129 25.321,10.465 24.421,11.307 24.770,12.823 25.953,13.210 26.238,13.303 26.817,13.269 27.100,13.143 27.225,13.088 27.432,12.943 27.562,12.822 28.242,12.186 28.242,11.101 27.562,10.465 27.203,10.129 26.959,10.036 26.442,10.036 Z M 26.442,10.396 C 26.882,10.396 27.322,10.630 27.551,11.098 27.879,11.769 27.551,12.582 26.856,12.819 25.798,13.179 24.842,12.099 25.333,11.098 25.561,10.630 26.002,10.396 26.442,10.396 Z M 95.214,10.859 C 95.257,10.854 95.275,10.860 95.295,10.850 95.209,11.371 94.981,11.606 94.525,11.788 94.251,11.903 94.023,12.022 93.722,12.176 93.522,12.239 92.656,12.492 92.042,12.608 91.292,12.749 91.106,12.783 90.770,12.842 90.301,12.923 88.529,13.032 86.840,13.083 85.884,13.113 78.950,13.132 69.258,13.132 53.253,13.132 53.253,13.132 53.253,13.132 53.253,12.028 53.253,12.028 53.253,12.028 53.253,10.924 53.253,10.924 53.253,10.924 74.052,10.922 74.052,10.922 74.052,10.922 87.883,10.921 94.917,10.876 95.060,10.873 95.140,10.871 95.172,10.863 95.214,10.859 Z M 43.753,11.986 C 46.317,11.986 46.364,12.004 46.436,12.075 46.530,12.169 46.595,12.172 48.836,12.172 51.141,12.172 51.141,12.172 51.141,12.172 51.141,13.156 51.141,13.156 51.141,13.156 51.141,14.140 51.141,14.140 51.141,14.140 47.816,14.128 47.816,14.128 47.816,14.128 45.988,14.121 42.186,14.111 39.367,14.104 35.556,14.095 34.243,14.077 34.243,14.037 34.243,14.006 34.081,13.652 33.883,13.250 33.685,12.848 33.523,12.506 33.523,12.489 33.523,12.473 33.662,12.460 33.832,12.460 34.142,12.460 34.142,12.460 34.142,12.460 34.156,12.232 34.156,12.232 34.156,12.232 34.171,12.004 34.171,12.004 34.171,12.004 40.255,11.992 40.255,11.992 40.255,11.992 41.763,11.989 42.898,11.986 43.753,11.986 Z M 51.477,12.124 C 52.173,12.124 52.173,12.124 52.173,12.124 52.869,12.124 52.869,12.124 52.869,12.124 52.869,12.796 52.869,12.796 52.869,12.796 52.869,13.468 52.869,13.468 52.869,13.468 59.590,13.468 59.590,13.468 59.590,13.468 66.311,13.468 66.311,13.468 66.311,13.468 66.311,13.924 66.311,13.924 66.311,13.924 66.310,14.175 66.304,14.428 66.071,14.572 66.071,14.599 66.009,14.686 65.933,14.765 65.796,14.908 65.796,14.908 65.796,14.908 58.976,14.908 58.976,14.908 58.976,14.908 52.840,14.908 52.148,14.900 52.080,14.833 52.020,14.694 51.941,14.594 51.861,14.452 51.781,14.334 51.693,14.218 51.573,14.140 51.480,14.140 51.477,14.108 51.477,13.132 Z M 31.661,12.471 C 33.067,12.484 33.067,12.484 33.067,12.484 33.195,12.748 33.195,12.748 33.195,12.748 33.265,12.893 33.421,13.211 33.541,13.456 33.759,13.900 33.759,13.900 33.759,13.900 31.697,13.900 31.697,13.900 31.697,13.900 30.562,13.900 29.634,13.892 29.634,13.882 29.634,13.872 29.708,13.741 29.798,13.591 29.931,13.370 30.136,12.870 30.238,12.519 30.252,12.471 30.560,12.461 31.661,12.471 Z M 42.384,12.508 C 37.230,12.508 35.319,12.522 35.231,12.562 35.092,12.626 35.011,12.826 35.012,13.103 35.012,13.341 35.035,13.379 35.251,13.510 35.419,13.611 35.419,13.611 35.419,13.611 42.404,13.607 42.404,13.607 42.404,13.607 46.245,13.605 49.435,13.588 49.491,13.571 49.548,13.554 49.661,13.488 49.743,13.425 49.864,13.332 49.893,13.274 49.893,13.127 49.893,12.849 49.819,12.713 49.608,12.606 49.418,12.508 49.368,12.508 42.384,12.508 Z M 42.292,12.854 C 47.085,12.844 49.154,12.855 49.280,12.892 49.467,12.946 49.521,13.071 49.400,13.168 49.324,13.230 35.712,13.277 35.530,13.217 35.373,13.164 35.333,13.072 35.418,12.956 35.481,12.871 35.735,12.867 42.292,12.854 Z M 87.001,13.420 C 87.265,13.420 87.265,13.420 87.265,13.420 87.526,13.420 87.529,13.422 87.469,13.528 87.436,13.587 87.398,13.647 87.384,13.660 87.370,13.673 87.336,13.736 87.309,13.800 87.275,13.878 87.217,13.917 87.130,13.921 87.006,13.927 87.001,13.918 87.001,13.674 Z M 66.695,13.468 C 69.155,13.468 69.155,13.468 69.155,13.468 70.508,13.468 73.997,13.482 76.908,13.500 82.200,13.532 82.200,13.532 82.200,13.532 82.200,13.711 82.200,13.711 82.200,13.711 82.200,13.811 82.174,13.899 82.140,13.910 82.107,13.922 81.675,13.924 81.180,13.915 80.280,13.900 80.280,13.900 80.280,13.900 80.280,14.116 80.280,14.116 80.280,14.116 80.280,14.332 80.280,14.332 80.280,14.332 73.488,14.332 73.488,14.332 73.488,14.332 66.695,14.332 66.695,14.332 66.695,14.332 66.695,13.900 66.695,13.900 66.695,13.900 Z M 84.025,13.468 C 84.601,13.468 84.601,13.468 84.601,13.468 85.177,13.468 85.177,13.468 85.177,13.468 85.177,13.696 85.177,13.696 85.177,13.696 85.177,13.924 85.177,13.924 85.177,13.924 84.682,13.924 84.682,13.924 84.682,13.924 84.003,13.924 84.025,13.932 84.025,13.680 Z M 85.513,13.468 C 86.089,13.468 86.089,13.468 86.089,13.468 86.665,13.468 86.665,13.468 86.665,13.468 86.665,13.684 86.665,13.684 86.665,13.684 86.665,13.856 86.648,13.901 86.581,13.904 86.535,13.906 86.275,13.912 86.005,13.917 85.513,13.926 85.513,13.926 85.513,13.926 85.513,13.697 85.513,13.697 85.513,13.697 Z M 82.537,13.516 C 83.089,13.516 83.089,13.516 83.089,13.516 83.641,13.516 83.641,13.516 83.641,13.516 83.641,13.720 83.641,13.720 83.641,13.720 83.641,13.924 83.641,13.924 83.641,13.924 83.137,13.924 83.137,13.924 83.137,13.924 82.859,13.924 82.611,13.917 82.584,13.908 82.558,13.899 82.537,13.807 82.537,13.704 Z M 32.988,14.236 C 33.826,14.236 33.858,14.239 33.858,14.332 33.858,14.424 33.891,14.428 34.755,14.428 35.801,14.432 36.722,14.428 37.795,14.428 38.671,14.425 39.474,14.428 40.307,14.428 40.509,14.428 40.675,14.437 40.675,14.448 40.675,14.476 40.378,15.166 40.208,15.532 40.128,15.704 39.949,16.110 39.810,16.436 39.671,16.761 39.532,17.053 39.502,17.084 38.994,17.968 38.491,19.247 38.014,20.301 37.815,20.742 37.747,20.909 37.747,20.959 37.747,20.989 37.712,21.088 37.669,21.179 37.569,21.389 37.599,21.740 37.740,22.009 37.818,22.189 37.894,22.371 37.966,22.568 37.994,22.745 37.981,22.781 37.835,22.935 37.614,23.170 37.151,23.228 36.979,23.171 36.958,23.164 36.869,23.097 36.763,23.045 36.657,22.992 36.481,22.889 36.370,22.817 35.930,22.566 35.617,22.344 35.154,22.044 34.681,21.703 34.304,21.446 33.811,21.101 33.655,20.972 33.508,20.848 33.430,20.638 33.097,19.232 34.614,18.571 35.296,16.855 35.394,16.522 35.405,16.409 35.380,15.968 35.341,15.326 35.125,14.839 34.398,14.665 33.892,14.538 32.725,14.297 32.518,14.985 32.516,15.898 31.076,16.020 31.232,14.608 31.206,14.236 31.206,14.236 31.206,14.236 31.435,14.236 31.435,14.236 31.435,14.236 31.963,14.241 32.438,14.236 32.988,14.236 Z M 31.516,14.448 C 31.332,14.593 31.277,14.850 31.369,15.070 31.563,15.534 32.201,15.534 32.395,15.070 32.486,14.850 32.448,14.592 32.264,14.447 32.033,14.309 31.822,14.260 31.516,14.448 Z M 88.705,14.284 C 88.780,14.284 88.825,14.311 88.825,14.356 88.825,14.395 88.858,14.428 88.897,14.428 89.009,14.428 89.005,16.228 88.894,16.271 88.762,16.322 88.690,16.303 88.564,16.186 88.442,16.074 88.441,16.069 88.441,15.273 88.441,14.606 88.453,14.468 88.513,14.445 88.553,14.430 88.585,14.387 88.585,14.351 88.585,14.311 88.635,14.284 88.705,14.284 Z M 91.226,14.332 C 91.256,14.332 91.274,14.692 91.274,15.316 91.274,16.075 91.260,16.298 91.214,16.292 90.813,16.242 90.379,16.215 89.894,16.210 89.305,16.204 89.305,16.204 89.305,16.204 89.305,15.316 89.305,15.316 89.305,15.316 89.305,14.428 89.305,14.428 89.305,14.428 90.241,14.428 90.241,14.428 90.241,14.428 90.834,14.428 91.178,14.411 91.178,14.380 91.178,14.354 91.199,14.332 91.226,14.332 Z M 91.658,14.332 C 92.282,14.332 92.282,14.332 92.282,14.332 92.906,14.332 92.906,14.332 92.906,14.332 92.906,15.316 92.906,15.316 92.906,15.316 92.906,16.300 92.906,16.300 92.906,16.300 92.282,16.300 92.282,16.300 92.282,16.300 91.658,16.300 91.658,16.300 91.658,16.300 91.658,15.316 91.658,15.316 91.658,15.316 Z M 43.916,14.428 C 44.132,14.428 44.132,14.428 44.132,14.428 44.144,15.304 44.144,15.304 44.144,15.304 44.152,15.898 44.338,17.461 43.610,17.890 43.574,17.891 43.487,17.939 43.267,17.967 43.089,17.990 42.953,18.024 42.428,18.020 40.534,18.098 41.022,17.500 40.147,17.068 40.068,17.068 40.003,17.052 40.003,17.032 40.003,16.973 40.542,15.708 40.612,15.604 40.668,15.522 40.673,15.577 40.645,15.995 40.589,16.861 40.835,17.458 41.331,17.656 41.807,17.847 43.037,17.792 43.464,17.561 43.811,17.374 43.844,17.223 43.844,15.824 43.844,14.898 43.831,14.669 43.773,14.593 43.664,14.449 43.683,14.428 43.916,14.428 Z M 42.332,14.429 C 42.524,14.431 42.524,14.431 42.524,14.431 42.265,14.525 42.265,14.525 42.265,14.525 41.967,14.632 41.808,14.728 41.651,14.898 41.553,15.004 41.539,15.066 41.539,15.416 41.539,15.635 41.561,15.828 41.588,15.844 41.668,15.894 41.641,16.135 41.543,16.248 41.483,16.318 41.441,16.459 41.423,16.652 41.408,16.815 41.390,17.007 41.384,17.079 41.368,17.250 41.294,17.201 41.149,16.924 41.047,16.730 41.035,16.647 41.035,16.084 41.035,14.970 41.190,14.658 41.816,14.506 41.994,14.463 42.226,14.428 42.332,14.429 Z M 39.695,14.494 C 39.563,14.498 39.428,14.542 39.332,14.639 39.154,14.829 39.172,15.110 39.373,15.289 39.583,15.477 39.807,15.477 40.017,15.289 40.218,15.110 40.235,14.829 40.057,14.639 39.977,14.536 39.827,14.491 39.695,14.494 Z M 35.898,14.468 C 35.766,14.471 35.627,14.514 35.533,14.614 35.355,14.804 35.372,15.085 35.573,15.265 35.783,15.452 36.007,15.452 36.218,15.265 36.419,15.085 36.436,14.804 36.258,14.614 36.169,14.517 36.030,14.465 35.898,14.468 Z M 31.885,14.672 C 31.979,14.668 32.074,14.742 32.074,14.867 32.074,14.945 32.042,15.013 31.998,15.030 31.795,15.108 31.640,14.954 31.738,14.771 31.773,14.706 31.829,14.675 31.885,14.672 Z M 87.001,14.607 C 87.253,14.637 87.253,14.637 87.253,14.637 87.392,14.654 87.640,14.667 87.805,14.668 88.105,14.668 88.105,14.668 88.105,14.668 88.105,15.340 88.105,15.340 88.105,15.340 88.105,16.012 88.105,16.012 88.105,16.012 87.553,16.012 87.553,16.012 87.553,16.012 87.001,16.012 87.001,16.012 87.001,16.012 87.001,15.309 87.001,15.309 87.001,15.309 Z M 83.641,14.617 C 83.641,15.333 83.641,15.333 83.641,15.333 83.641,16.035 83.639,16.049 83.533,16.078 83.473,16.094 83.259,16.107 83.056,16.108 82.531,16.109 82.531,16.109 82.547,15.299 82.561,14.644 82.561,14.644 82.561,14.644 83.101,14.630 83.101,14.630 83.101,14.630 Z M 85.513,14.617 C 86.077,14.630 86.077,14.630 86.077,14.630 86.641,14.644 86.641,14.644 86.641,14.644 86.655,15.312 86.655,15.312 86.655,15.312 86.665,15.815 86.653,15.990 86.606,16.020 86.573,16.041 86.313,16.059 86.029,16.059 85.513,16.060 85.513,16.060 85.513,16.060 85.513,15.338 85.513,15.338 85.513,15.338 Z M 81.000,14.620 C 81.600,14.620 81.600,14.620 81.600,14.620 82.200,14.620 82.200,14.620 82.200,14.620 82.200,15.292 82.200,15.292 82.200,15.292 82.200,15.964 82.200,15.964 82.200,15.964 81.697,15.964 81.697,15.964 81.697,15.964 81.117,15.963 80.984,15.885 81.000,15.168 Z M 84.025,14.620 C 84.601,14.620 84.601,14.620 84.601,14.620 85.177,14.620 85.177,14.620 85.177,14.620 85.177,15.292 85.177,15.292 85.177,15.292 85.177,15.662 85.171,15.960 85.165,15.954 85.158,15.948 84.899,15.937 84.589,15.928 84.025,15.913 84.025,15.913 84.025,15.913 84.025,15.267 84.025,15.267 84.025,15.267 Z M 43.313,14.633 C 43.385,14.743 43.385,14.743 43.385,14.743 43.480,14.888 43.503,16.897 43.413,17.067 43.381,17.125 43.255,17.218 43.131,17.273 42.966,17.347 42.776,17.378 42.404,17.394 41.899,17.415 41.899,17.415 41.899,17.415 41.834,17.230 41.834,17.230 41.834,17.230 41.736,16.956 41.761,16.664 41.900,16.443 42.037,16.226 42.050,16.031 41.948,15.696 41.851,15.375 41.856,15.323 42.001,15.150 42.150,14.973 42.331,14.891 42.895,14.743 Z M 35.909,14.764 C 35.931,14.766 35.954,14.773 35.978,14.785 36.025,14.811 36.063,14.873 36.063,14.924 36.063,15.045 35.920,15.122 35.810,15.061 35.647,14.970 35.754,14.750 35.909,14.764 Z M 39.695,14.828 C 39.853,14.828 39.913,14.950 39.813,15.070 39.781,15.109 39.728,15.140 39.695,15.140 39.606,15.140 39.516,15.014 39.535,14.915 39.547,14.855 39.596,14.828 39.695,14.828 Z M 37.463,15.052 C 37.255,15.052 37.166,15.074 37.106,15.140 37.028,15.226 35.604,18.057 35.207,18.916 35.097,19.154 34.954,19.451 34.889,19.576 34.720,19.901 34.726,20.224 34.903,20.394 35.044,20.529 36.105,21.073 36.427,21.175 36.533,21.208 36.713,21.238 36.828,21.240 36.999,21.244 37.060,21.220 37.158,21.113 37.224,21.040 37.672,20.203 38.154,19.252 38.636,18.302 39.141,17.313 39.277,17.054 39.535,16.563 39.574,16.364 39.472,16.072 39.429,15.950 39.334,15.880 38.908,15.663 38.626,15.519 38.248,15.322 38.067,15.226 37.800,15.084 37.688,15.052 37.463,15.052 Z M 37.433,15.406 C 37.471,15.392 37.869,15.571 38.320,15.804 39.014,16.164 39.138,16.245 39.139,16.337 39.139,16.398 38.850,17.014 38.496,17.706 38.142,18.398 37.639,19.386 37.379,19.901 36.793,21.060 36.902,21.018 35.846,20.485 35.527,20.324 35.239,20.160 35.206,20.121 35.107,20.001 35.106,20.005 36.410,17.366 36.936,16.302 37.396,15.420 37.433,15.406 Z M 34.147,20.023 C 33.980,20.023 33.921,20.050 33.806,20.178 33.577,20.435 33.661,20.828 33.973,20.959 34.252,21.077 34.627,20.814 34.627,20.501 34.627,20.385 34.584,20.287 34.487,20.178 34.372,20.050 34.314,20.023 34.147,20.023 Z M 34.147,20.333 C 34.267,20.333 34.345,20.477 34.284,20.586 34.224,20.693 34.067,20.692 34.008,20.583 33.949,20.472 34.026,20.333 34.147,20.333 Z M 37.123,21.821 C 36.686,21.821 36.474,22.331 36.783,22.641 36.893,22.751 36.967,22.781 37.123,22.781 37.561,22.781 37.772,22.270 37.463,21.961 37.352,21.851 37.280,21.821 37.123,21.821 Z M 37.161,22.141 C 37.183,22.143 37.206,22.150 37.230,22.163 37.276,22.188 37.315,22.250 37.315,22.301 37.315,22.422 37.171,22.500 37.062,22.438 36.898,22.347 37.005,22.127 37.161,22.141 Z " />
</svg>