<?xml version="1.0" encoding="UTF-8" standalone="no"?>
<!DOCTYPE svg PUBLIC "-//W3C//DTD SVG 20010904//EN" "http://www.w3.org/TR/2001/REC-SVG-20010904/DTD/svg10.dtd"[]>
<svg version="1.1" id="Frosty Editor v1.0.6.3" xmlns="http://www.w3.org/2000/svg" d1p1:xlink="http://www.w3.org/1999/xlink" viewBox="0 0 101 25" xmlns:d1p1="xmlns">
  <path stroke="none" fill="#ffffffff" d="M 57.153,5.206 C 56.249,5.886 55.345,6.567 54.441,7.247 53.935,7.643 53.935,7.643 53.935,7.643 53.891,7.677 53.847,7.711 53.803,7.744 53.803,8.326 53.803,8.326 53.803,8.326 53.601,8.298 53.395,8.326 53.208,8.408 52.900,8.560 52.653,8.811 52.506,9.120 52.013,9.284 51.631,9.679 51.485,10.178 49.103,10.178 49.103,10.178 49.103,10.178 49.103,8.276 49.103,8.276 49.103,8.276 48.023,8.347 46.943,8.417 45.862,8.487 45.862,8.911 45.862,8.911 45.862,8.911 45.288,8.911 45.288,8.911 45.288,8.911 45.288,8.381 45.288,8.381 45.288,8.381 45.288,8.096 45.288,8.096 45.288,8.096 43.740,8.096 43.740,8.096 43.740,8.096 43.331,8.096 43.331,8.096 43.331,8.096 42.802,8.096 42.802,8.096 42.802,8.096 42.802,8.138 42.802,8.138 42.802,8.138 42.773,8.186 42.745,8.235 42.717,8.284 42.552,8.548 42.552,8.548 42.552,8.548 42.288,9.008 42.023,9.467 41.759,9.927 41.709,9.967 41.660,10.006 41.611,10.046 39.441,10.046 39.441,10.046 39.441,10.046 39.441,10.041 39.441,10.041 39.441,10.041 39.183,10.041 39.183,10.041 39.183,10.041 39.176,10.041 39.176,10.041 39.176,10.041 39.176,10.046 39.176,10.046 39.176,10.046 34.829,10.046 34.829,10.046 34.829,10.046 34.763,10.046 34.763,10.046 34.763,10.046 34.732,10.046 32.345,10.663 30.120,10.967 30.120,10.965 30.121,10.963 30.122,10.961 30.120,10.961 30.118,10.962 30.115,10.962 29.511,11.041 29.511,11.041 29.511,11.041 29.510,11.042 29.510,11.044 29.509,11.046 29.013,11.105 28.513,11.137 28.014,11.141 24.045,11.141 24.045,11.141 24.045,11.141 23.898,10.928 23.751,10.715 23.603,10.501 21.831,10.501 21.831,10.501 21.831,10.501 21.798,10.638 21.765,10.774 21.733,10.911 20.718,10.869 19.704,10.828 18.690,10.787 18.642,10.787 13.808,10.353 10.004,8.241 9.903,8.183 7.509,6.820 5.810,7.741 5.739,7.780 5.667,7.819 5.596,7.858 5.905,8.564 6.215,9.269 6.524,9.975 6.524,9.988 7.204,11.432 7.093,15.338 7.093,15.517 7.038,17.105 7.511,17.719 7.555,17.777 7.599,17.835 7.643,17.893 8.007,17.714 8.371,17.533 8.734,17.353 9.656,16.875 10.579,16.398 11.501,15.919 11.517,15.919 13.224,15.126 14.578,15.409 14.653,15.424 14.728,15.439 14.803,15.454 14.912,15.150 15.020,14.847 15.129,14.544 16.912,14.211 18.712,13.974 20.521,13.832 20.521,14.711 20.521,14.711 20.521,14.711 23.892,14.711 23.892,14.711 23.892,14.711 23.892,15.274 23.892,15.274 23.892,15.274 23.889,15.966 24.446,16.531 25.138,16.539 25.617,16.546 26.057,16.277 26.270,15.848 28.106,15.848 28.106,15.848 28.106,15.848 28.084,15.985 28.054,16.120 28.016,16.253 27.953,16.401 27.384,17.737 26.792,18.369 26.723,18.446 26.122,19.135 26.167,19.783 26.185,20.033 26.308,20.263 26.506,20.417 27.467,21.085 28.428,21.753 29.389,22.420 29.664,22.608 29.986,22.713 30.318,22.722 30.386,22.722 30.453,22.717 30.520,22.706 30.879,22.645 31.196,22.438 31.398,22.135 31.683,21.810 31.829,21.386 31.805,20.955 31.768,20.713 31.645,20.492 31.459,20.333 31.918,19.294 32.378,18.255 32.837,17.216 32.845,17.197 32.853,17.179 32.861,17.161 32.890,17.155 32.920,17.155 32.948,17.161 33.036,17.174 33.274,17.269 33.589,17.838 33.614,17.883 33.639,17.928 33.665,17.973 35.465,17.973 35.465,17.973 35.465,17.973 35.898,17.954 36.708,17.626 36.665,16.539 36.665,14.721 36.665,14.721 36.665,14.721 39.240,14.721 39.240,14.721 39.240,14.721 39.240,15.017 39.240,15.017 39.240,15.017 41.605,15.017 41.605,15.017 41.605,15.017 41.605,14.115 41.605,14.115 41.605,14.115 41.676,14.160 41.746,14.204 41.817,14.248 43.130,14.248 43.130,14.248 43.130,14.248 43.443,14.259 43.756,14.270 44.069,14.282 44.069,14.827 44.069,14.827 44.069,14.827 44.046,15.056 44.117,15.285 44.264,15.462 44.484,15.727 44.857,15.859 45.370,15.859 57.383,15.859 57.383,15.859 57.383,15.859 57.383,17.190 57.383,17.190 57.383,17.190 56.737,17.190 56.737,17.190 56.737,17.190 56.312,16.874 55.887,16.558 55.462,16.242 50.374,16.242 50.374,16.242 50.374,16.242 50.374,21.061 50.374,21.061 50.374,21.061 55.467,21.061 55.467,21.061 55.467,21.061 55.892,20.745 56.317,20.429 56.742,20.114 57.388,20.114 57.388,20.114 57.388,20.114 57.388,20.478 57.388,20.478 57.388,20.478 59.108,20.478 59.108,20.478 59.108,20.478 59.108,20.114 59.108,20.114 59.108,20.114 59.594,20.114 59.594,20.114 59.594,20.114 59.594,20.643 59.594,20.643 59.594,20.643 63.428,20.643 63.428,20.643 63.428,20.643 63.428,18.324 63.428,18.324 63.428,18.324 64.174,18.324 64.174,18.324 64.174,18.324 64.174,18.192 64.174,18.192 64.174,18.192 64.365,18.192 64.365,18.192 64.365,18.192 64.566,18.274 64.767,18.357 64.968,18.439 64.968,17.005 64.968,17.005 64.968,17.005 64.767,17.087 64.566,17.169 64.365,17.251 64.174,17.251 64.174,17.251 64.174,17.251 64.174,17.118 64.174,17.118 64.174,17.118 63.428,17.118 63.428,17.118 63.428,17.118 63.428,16.660 63.428,16.660 63.428,16.660 59.592,16.660 59.592,16.660 59.592,16.660 59.592,17.190 59.592,17.190 59.592,17.190 59.105,17.190 59.105,17.190 59.105,17.190 59.105,15.867 59.105,15.867 59.105,15.867 64.717,15.867 64.717,15.867 64.717,15.867 64.868,16.131 65.018,16.396 65.169,16.660 65.831,16.660 65.831,16.660 65.831,16.660 65.831,17.084 65.831,17.084 65.831,17.084 66.367,17.462 66.903,17.841 67.439,18.219 67.979,17.837 68.519,17.455 69.059,17.073 69.059,16.660 69.059,16.660 69.059,16.660 69.720,16.660 69.720,16.660 69.720,16.660 69.871,16.396 70.022,16.131 70.172,15.867 71.408,15.867 71.408,15.867 71.408,15.867 71.660,15.869 71.905,15.780 72.096,15.616 72.330,15.387 72.453,15.067 72.432,14.740 72.432,14.049 72.432,14.049 72.432,14.049 72.850,14.049 72.850,14.049 72.850,14.049 72.850,14.690 72.850,14.690 72.850,14.690 94.390,14.690 94.390,14.690 94.390,14.690 94.390,14.314 94.390,14.314 94.390,14.314 94.628,14.314 94.628,14.314 94.628,14.314 94.628,14.515 94.628,14.515 94.628,14.515 94.611,14.800 94.754,15.071 94.999,15.219 95.244,15.367 95.550,15.367 95.795,15.219 96.039,15.071 96.182,14.800 96.165,14.515 96.165,14.314 96.165,14.314 96.165,14.314 96.909,14.314 96.909,14.314 96.909,14.314 97.000,14.326 97.092,14.338 97.184,14.350 97.184,13.819 97.184,13.819 97.184,13.819 97.184,10.996 97.184,10.996 97.184,10.996 97.184,10.461 97.184,10.461 97.184,10.461 97.089,10.474 96.995,10.486 96.901,10.498 94.382,10.498 94.382,10.498 94.382,10.498 94.382,10.189 94.382,10.189 94.382,10.189 93.808,10.189 93.808,10.189 93.808,10.189 93.808,8.866 93.808,8.866 93.808,8.866 96.102,8.866 96.102,8.866 96.102,8.866 96.128,8.830 96.155,8.795 96.181,8.760 96.737,8.017 96.216,7.172 96.181,7.138 96.156,7.097 96.130,7.055 96.104,7.014 90.387,7.014 90.387,7.014 90.387,7.014 90.387,6.701 90.387,6.701 90.387,6.701 86.886,6.701 86.886,6.701 86.886,6.701 86.247,7.039 85.607,7.377 84.968,7.715 84.968,8.228 84.968,8.228 84.968,8.228 74.935,8.228 74.935,8.228 74.935,8.228 74.935,7.720 74.935,7.720 74.935,7.720 64.087,7.720 64.087,7.720 64.087,7.720 62.507,6.882 60.926,6.044 59.346,5.206 Z M 57.456,5.736 C 59.213,5.736 59.213,5.736 59.213,5.736 60.614,6.477 62.015,7.219 63.415,7.961 63.949,8.254 64.482,8.546 65.016,8.839 62.080,9.075 59.144,9.310 56.208,9.546 56.624,8.276 57.040,7.006 57.456,5.736 Z M 57.149,5.886 C 56.740,7.114 56.331,8.342 55.922,9.569 53.842,9.736 53.842,9.736 53.842,9.736 53.744,9.709 53.645,9.681 53.546,9.654 53.475,9.654 53.475,9.654 53.475,9.654 53.061,9.655 52.674,9.859 52.440,10.199 52.030,10.199 52.030,10.199 52.030,10.199 52.180,9.901 52.449,9.680 52.771,9.591 52.810,9.577 52.848,9.562 52.887,9.548 52.902,9.509 52.917,9.471 52.932,9.432 53.025,9.206 53.192,9.019 53.406,8.903 53.583,8.829 53.783,8.833 53.956,8.914 53.978,8.914 53.978,8.914 53.978,8.914 54.099,8.963 54.221,9.012 54.342,9.061 54.342,8.003 54.342,8.003 54.342,8.003 55.278,7.297 56.214,6.592 57.149,5.886 Z M 58.199,5.961 C 58.018,5.963 57.841,6.035 57.709,6.168 57.506,6.370 57.446,6.675 57.556,6.939 57.666,7.203 57.925,7.375 58.211,7.374 58.245,7.376 58.279,7.376 58.314,7.374 58.671,7.912 59.028,8.450 59.386,8.988 59.533,8.890 59.680,8.794 59.827,8.697 59.475,8.163 59.122,7.629 58.769,7.096 58.863,6.974 58.914,6.824 58.914,6.670 58.915,6.384 58.744,6.125 58.480,6.015 58.389,5.977 58.293,5.960 58.199,5.961 Z M 58.211,6.225 C 58.214,6.225 58.214,6.225 58.214,6.225 58.456,6.227 58.653,6.424 58.653,6.667 58.652,6.731 58.638,6.793 58.610,6.850 58.522,6.715 58.434,6.580 58.346,6.445 58.198,6.542 58.051,6.639 57.904,6.736 57.984,6.858 58.065,6.979 58.145,7.101 57.923,7.059 57.768,6.857 57.786,6.632 57.804,6.408 57.987,6.234 58.211,6.225 Z M 87.018,7.241 C 89.858,7.241 89.858,7.241 89.858,7.241 89.858,7.556 89.858,7.556 89.858,7.556 95.808,7.556 95.808,7.556 95.808,7.556 95.930,7.805 95.936,8.096 95.824,8.350 88.746,8.350 88.746,8.350 88.746,8.350 88.315,8.967 87.884,9.585 87.453,10.202 74.652,10.202 74.652,10.202 74.652,10.202 74.652,8.758 74.652,8.758 74.652,8.758 78.267,8.761 81.882,8.765 85.497,8.768 85.497,8.035 85.497,8.035 85.497,8.035 86.004,7.771 86.511,7.506 87.018,7.241 Z M 7.130,7.952 C 8.395,7.937 9.724,8.688 9.742,8.699 13.649,10.869 18.595,11.308 18.658,11.313 19.739,11.356 20.819,11.400 21.899,11.443 21.842,11.717 21.704,11.968 21.503,12.163 20.793,12.163 20.793,12.163 20.793,12.163 20.793,13.287 20.793,13.287 20.793,13.287 20.769,13.287 20.769,13.287 20.769,13.287 18.793,13.432 16.826,13.691 14.880,14.065 14.869,14.065 14.869,14.065 14.869,14.065 14.820,14.075 14.771,14.084 14.721,14.094 14.633,14.348 14.545,14.602 14.456,14.856 12.985,14.660 11.350,15.409 11.268,15.449 10.344,15.927 9.420,16.405 8.496,16.883 7.828,17.216 7.828,17.216 7.828,17.216 7.656,16.615 7.587,15.989 7.622,15.364 7.739,11.295 7.030,9.808 7.006,9.760 6.764,9.208 6.522,8.656 6.281,8.104 6.549,8.000 6.838,7.956 7.130,7.952 Z M 64.510,8.249 C 72.416,8.249 72.416,8.249 72.416,8.249 70.117,8.434 67.818,8.618 65.518,8.803 65.182,8.618 64.846,8.434 64.510,8.249 Z M 72.808,8.249 C 74.395,8.249 74.395,8.249 74.395,8.249 74.395,10.189 74.395,10.189 74.395,10.189 72.808,10.189 72.808,10.189 72.808,10.189 Z M 88.884,8.614 C 93.281,8.614 93.281,8.614 93.281,8.614 93.281,10.202 93.281,10.202 93.281,10.202 87.775,10.202 87.775,10.202 87.775,10.202 88.145,9.673 88.514,9.144 88.884,8.614 Z M 43.130,8.625 C 44.762,8.625 44.762,8.625 44.762,8.625 44.762,9.440 44.762,9.440 44.762,9.440 46.395,9.440 46.395,9.440 46.395,9.440 46.395,8.988 46.395,8.988 46.395,8.988 48.577,8.844 48.577,8.844 48.577,8.844 48.577,10.194 48.577,10.194 48.577,10.194 44.873,10.194 44.873,10.194 44.873,10.194 44.873,9.612 44.873,9.612 44.873,9.612 44.285,9.718 43.697,9.824 43.108,9.930 42.381,9.930 42.381,9.930 42.381,9.930 42.630,9.495 42.880,9.060 43.130,8.625 Z M 72.300,8.803 C 72.300,9.760 72.300,9.760 72.300,9.760 66.942,10.189 66.942,10.189 66.942,10.189 66.857,10.189 66.857,10.189 66.857,10.189 63.065,10.503 59.273,10.818 55.480,11.133 55.504,11.055 55.516,10.974 55.517,10.892 55.521,10.585 55.354,10.302 55.083,10.157 60.822,9.705 66.561,9.254 72.300,8.803 Z M 53.448,10.173 C 53.801,10.270 54.154,10.367 54.507,10.464 54.946,10.628 55.017,10.729 55.017,10.898 55.017,11.067 54.938,11.162 54.507,11.332 54.365,11.371 54.223,11.411 54.080,11.451 53.870,11.512 53.659,11.573 53.448,11.633 53.121,11.617 52.845,11.384 52.774,11.064 52.762,11.012 52.756,10.959 52.755,10.906 52.752,10.515 53.058,10.192 53.448,10.173 Z M 44.341,10.242 C 44.341,10.432 44.341,10.432 44.341,10.432 44.341,13.750 44.341,13.750 44.341,13.750 43.937,13.739 43.534,13.729 43.130,13.719 41.971,13.719 41.971,13.719 41.971,13.719 41.853,13.641 41.736,13.563 41.619,13.485 41.619,10.705 41.619,10.705 41.619,10.705 41.723,10.621 41.827,10.537 41.931,10.453 43.130,10.453 43.130,10.453 43.130,10.453 43.534,10.382 43.937,10.312 44.341,10.242 Z M 34.928,10.575 C 41.079,10.575 41.079,10.575 41.079,10.575 41.079,12.067 41.079,12.067 41.079,12.067 34.928,12.067 34.928,12.067 34.928,12.067 Z M 34.671,10.610 C 34.671,12.321 34.671,12.321 34.671,12.321 41.087,12.321 41.087,12.321 41.087,12.321 41.087,14.189 41.087,14.189 41.087,14.189 21.058,14.189 21.058,14.189 21.058,14.189 21.058,12.427 21.058,12.427 21.058,12.427 21.587,12.427 21.587,12.427 21.587,12.427 21.619,12.427 21.619,12.427 21.619,12.427 22.119,12.088 22.219,11.210 22.224,11.144 22.232,11.109 22.240,11.073 22.248,11.038 22.611,11.035 22.974,11.031 23.336,11.027 23.483,11.241 23.631,11.455 23.778,11.668 28.011,11.668 28.011,11.668 28.011,11.668 30.234,11.668 33.753,10.837 34.671,10.610 Z M 44.595,10.718 C 52.242,10.718 52.242,10.718 52.242,10.718 52.231,10.778 52.225,10.840 52.223,10.901 52.224,10.984 52.233,11.067 52.250,11.149 52.307,11.488 52.488,11.794 52.758,12.007 52.910,12.121 53.096,12.183 53.287,12.184 53.363,12.183 53.438,12.172 53.511,12.152 53.544,12.152 53.544,12.152 53.544,12.152 53.915,12.049 54.286,11.945 54.657,11.842 54.684,11.842 54.684,11.842 54.684,11.842 54.763,11.810 54.856,11.776 54.949,11.728 57.082,11.552 59.215,11.376 61.349,11.199 61.349,12.221 61.349,12.221 61.349,12.221 58.520,12.221 58.520,12.221 58.520,12.221 58.520,13.485 58.520,13.485 58.520,13.485 53.879,13.487 49.237,13.489 44.595,13.491 Z M 66.974,10.718 C 67.844,10.718 67.844,10.718 67.844,10.718 67.844,13.750 67.844,13.750 67.844,13.750 67.844,13.824 67.844,13.824 67.844,13.824 61.613,13.824 61.613,13.824 61.613,13.824 61.613,11.163 61.613,11.163 61.613,11.163 63.400,11.014 65.187,10.866 66.974,10.718 Z M 68.112,10.718 C 73.104,10.718 73.104,10.718 73.104,10.718 73.104,13.520 73.104,13.520 73.104,13.520 73.001,13.520 73.001,13.520 73.001,13.520 71.371,13.524 69.741,13.527 68.112,13.530 Z M 73.369,10.718 C 93.855,10.718 93.855,10.718 93.855,10.718 93.855,11.027 93.855,11.027 93.855,11.027 93.855,13.785 93.855,13.785 93.855,13.785 93.854,13.912 93.853,14.039 93.853,14.166 73.369,14.166 73.369,14.166 73.369,14.166 73.369,13.520 73.369,13.520 73.369,13.520 Z M 94.117,11.027 C 96.576,11.027 96.576,11.027 96.576,11.027 96.576,13.785 96.576,13.785 96.576,13.785 95.756,13.787 94.937,13.788 94.117,13.790 Z M 50.273,11.075 C 50.238,11.091 50.203,11.107 50.167,11.123 50.067,11.168 49.175,11.583 49.175,12.157 49.175,12.438 49.287,12.707 49.485,12.906 49.684,13.104 49.953,13.216 50.234,13.216 50.391,13.215 50.545,13.178 50.686,13.107 51.077,12.889 51.469,12.671 51.861,12.454 52.033,12.358 52.132,12.169 52.109,11.973 52.088,11.777 51.950,11.614 51.760,11.560 51.760,11.556 51.760,11.556 51.760,11.556 51.636,11.520 51.503,11.536 51.390,11.599 51.194,11.705 50.998,11.811 50.803,11.917 50.626,11.636 50.450,11.356 50.273,11.075 Z M 73.980,11.308 C 73.980,11.572 73.980,11.572 73.980,11.572 93.207,11.572 93.207,11.572 93.207,11.572 93.207,11.308 93.207,11.308 93.207,11.308 Z M 50.165,11.400 C 50.341,11.684 50.518,11.969 50.694,12.252 50.963,12.107 51.232,11.961 51.501,11.816 51.552,11.787 51.614,11.780 51.670,11.797 51.784,11.831 51.851,11.947 51.824,12.062 51.840,12.086 51.840,12.086 51.840,12.086 51.823,12.142 51.785,12.190 51.734,12.218 51.362,12.424 50.989,12.631 50.617,12.837 50.602,12.843 50.587,12.848 50.572,12.853 50.465,12.908 50.346,12.937 50.225,12.938 50.015,12.938 49.813,12.854 49.664,12.705 49.515,12.556 49.432,12.355 49.432,12.144 49.432,11.845 49.895,11.541 50.165,11.400 Z M 73.980,12.329 C 73.980,12.594 73.980,12.594 73.980,12.594 93.207,12.594 93.207,12.594 93.207,12.594 93.207,12.329 93.207,12.329 93.207,12.329 Z M 58.785,12.472 C 61.349,12.472 61.349,12.472 61.349,12.472 61.349,13.472 61.349,13.472 61.349,13.472 60.494,13.471 59.640,13.470 58.785,13.469 Z M 31.815,12.504 C 31.414,12.500 31.086,12.821 31.080,13.221 31.077,13.416 31.153,13.604 31.290,13.742 31.426,13.881 31.613,13.959 31.808,13.959 32.208,13.959 32.533,13.635 32.535,13.235 32.537,12.835 32.215,12.508 31.815,12.504 Z M 31.808,12.768 C 31.996,12.768 32.165,12.883 32.236,13.057 32.307,13.231 32.266,13.431 32.131,13.562 31.997,13.694 31.796,13.731 31.623,13.656 31.451,13.581 31.341,13.409 31.345,13.221 31.351,12.969 31.556,12.768 31.808,12.768 Z M 73.980,13.348 C 73.980,13.613 73.980,13.613 73.980,13.613 93.207,13.613 93.207,13.613 93.207,13.613 93.207,13.348 93.207,13.348 93.207,13.348 Z M 57.914,13.734 C 58.576,13.734 58.576,13.734 58.576,13.734 58.576,19.949 58.576,19.949 58.576,19.949 58.355,19.953 58.135,19.957 57.914,19.960 Z M 44.598,13.747 C 57.390,13.747 57.390,13.747 57.390,13.747 57.390,15.335 57.390,15.335 57.390,15.335 53.385,15.336 49.379,15.337 45.373,15.338 45.123,15.367 44.873,15.295 44.677,15.137 44.621,15.071 44.592,14.985 44.598,14.898 44.598,13.782 44.598,13.782 44.598,13.782 Z M 59.105,13.750 C 61.349,13.750 61.349,13.750 61.349,13.750 61.349,14.115 61.349,14.115 61.349,14.115 68.112,14.115 68.112,14.115 68.112,14.115 68.112,13.774 68.112,13.774 68.112,13.774 71.892,13.774 71.892,13.774 71.892,13.774 71.892,14.731 71.892,14.731 71.892,14.731 71.910,14.907 71.853,15.082 71.736,15.213 71.736,15.224 71.736,15.224 71.736,15.224 71.633,15.307 71.503,15.348 71.371,15.340 69.059,15.340 69.059,15.340 69.059,15.340 69.059,14.430 69.059,14.430 69.059,14.430 65.828,14.430 65.828,14.430 65.828,14.430 65.828,15.338 65.828,15.338 65.828,15.338 59.105,15.338 59.105,15.338 59.105,15.338 Z M 95.149,14.319 C 95.628,14.319 95.628,14.319 95.628,14.319 95.628,14.520 95.628,14.520 95.628,14.520 95.638,14.612 95.594,14.701 95.516,14.749 95.438,14.798 95.339,14.798 95.261,14.749 95.183,14.701 95.140,14.612 95.149,14.520 Z M 24.410,14.721 C 33.350,14.721 33.350,14.721 33.350,14.721 33.036,15.445 32.721,16.169 32.406,16.894 31.871,18.103 31.337,19.313 30.802,20.523 30.867,20.564 30.931,20.605 30.996,20.645 31.146,20.724 31.253,20.867 31.286,21.034 31.286,21.320 31.179,21.596 30.988,21.809 30.480,22.513 29.781,22.048 29.699,21.989 28.746,21.325 27.794,20.661 26.842,19.997 26.760,19.933 26.711,19.836 26.709,19.732 26.683,19.372 27.053,18.872 27.194,18.714 27.882,17.981 28.498,16.491 28.517,16.427 28.517,16.398 28.517,16.398 28.517,16.398 28.599,16.140 28.653,15.873 28.678,15.602 28.682,15.510 28.687,15.417 28.691,15.324 25.876,15.324 25.876,15.324 25.876,15.324 25.874,15.515 25.794,15.696 25.654,15.826 25.515,15.956 25.328,16.022 25.138,16.009 24.945,16.009 24.760,15.933 24.623,15.796 24.487,15.660 24.410,15.475 24.410,15.282 Z M 33.941,14.731 C 34.978,14.731 34.978,14.731 34.978,14.731 34.851,14.823 34.744,14.939 34.663,15.073 34.510,15.367 34.484,15.712 34.594,16.025 34.423,16.253 34.342,16.536 34.366,16.819 34.401,17.056 34.512,17.274 34.684,17.441 33.988,17.441 33.988,17.441 33.988,17.441 33.710,16.988 33.414,16.721 33.102,16.660 33.382,16.018 33.661,15.374 33.941,14.731 Z M 35.541,14.731 C 36.155,14.731 36.155,14.731 36.155,14.731 36.154,15.341 36.153,15.950 36.152,16.560 36.184,17.369 35.576,17.446 35.470,17.454 35.097,17.454 35.097,17.454 35.097,17.454 34.856,17.312 34.687,17.074 34.631,16.801 34.615,16.566 34.690,16.334 34.840,16.153 34.857,16.133 34.874,16.113 34.890,16.094 34.882,16.070 34.875,16.047 34.867,16.023 34.759,15.762 34.769,15.468 34.893,15.216 35.044,14.981 35.274,14.809 35.541,14.731 Z M 25.188,14.832 C 25.030,14.832 24.884,14.917 24.805,15.053 24.726,15.190 24.726,15.358 24.805,15.495 24.884,15.632 25.030,15.716 25.188,15.716 25.346,15.716 25.492,15.632 25.571,15.495 25.650,15.358 25.650,15.190 25.571,15.053 25.492,14.917 25.346,14.832 25.188,14.832 Z M 66.371,14.946 C 68.530,14.946 68.530,14.946 68.530,14.946 68.530,16.798 68.530,16.798 68.530,16.798 68.170,17.052 67.810,17.306 67.450,17.560 67.090,17.306 66.730,17.052 66.371,16.798 Z M 30.503,15.400 C 30.426,15.400 30.349,15.413 30.276,15.440 30.109,15.501 29.974,15.627 29.901,15.790 29.437,16.822 28.974,17.856 28.511,18.888 28.439,19.048 28.433,19.230 28.495,19.395 28.557,19.559 28.682,19.692 28.842,19.764 29.115,19.890 29.389,20.016 29.662,20.142 29.822,20.216 30.004,20.223 30.169,20.162 30.334,20.101 30.468,19.977 30.541,19.817 31.006,18.784 31.472,17.752 31.938,16.719 32.089,16.387 31.942,15.994 31.609,15.843 31.336,15.717 31.063,15.591 30.789,15.465 30.699,15.421 30.601,15.399 30.503,15.400 Z M 30.523,15.662 C 30.575,15.662 30.627,15.672 30.676,15.692 30.949,15.818 31.222,15.944 31.496,16.070 31.595,16.114 31.672,16.197 31.709,16.299 31.746,16.401 31.740,16.513 31.692,16.610 31.226,17.643 30.760,18.676 30.294,19.708 30.251,19.805 30.170,19.880 30.071,19.917 29.971,19.953 29.861,19.949 29.765,19.904 29.492,19.778 29.218,19.652 28.945,19.526 28.849,19.482 28.775,19.401 28.738,19.302 28.702,19.202 28.707,19.093 28.752,18.997 29.217,17.964 29.683,16.931 30.149,15.898 30.193,15.802 30.273,15.729 30.371,15.692 30.420,15.672 30.471,15.662 30.523,15.662 Z M 65.325,15.867 C 65.831,15.867 65.831,15.867 65.831,15.867 65.831,16.131 65.831,16.131 65.831,16.131 65.476,16.131 65.476,16.131 65.476,16.131 65.426,16.043 65.375,15.955 65.325,15.867 Z M 69.059,15.867 C 69.564,15.867 69.564,15.867 69.564,15.867 69.510,15.955 69.456,16.043 69.402,16.131 69.059,16.131 69.059,16.131 69.059,16.131 Z M 50.903,16.793 C 55.181,16.793 55.181,16.793 55.181,16.793 55.181,20.532 55.181,20.532 55.181,20.532 50.903,20.532 50.903,20.532 50.903,20.532 Z M 55.446,16.899 C 55.810,17.172 56.174,17.446 56.539,17.719 56.539,19.616 56.539,19.616 56.539,19.616 56.174,19.887 55.810,20.158 55.446,20.428 Z M 60.121,17.190 C 62.896,17.190 62.896,17.190 62.896,17.190 62.896,20.119 62.896,20.119 62.896,20.119 60.121,20.119 60.121,20.119 60.121,20.119 Z M 63.426,17.383 C 63.586,17.386 63.747,17.390 63.907,17.393 63.907,17.526 63.907,17.526 63.907,17.526 64.389,17.526 64.389,17.526 64.389,17.526 64.493,17.487 64.597,17.448 64.701,17.409 64.701,18.057 64.701,18.057 64.701,18.057 64.613,18.021 64.524,17.985 64.436,17.949 63.907,17.949 63.907,17.949 63.907,17.949 63.907,18.081 63.907,18.081 63.907,18.081 63.426,18.081 63.426,18.081 63.426,18.081 Z M 57.068,17.719 C 57.385,17.719 57.385,17.719 57.385,17.719 57.385,19.571 57.385,19.571 57.385,19.571 57.279,19.579 57.174,19.587 57.068,19.595 Z M 59.105,17.719 C 59.592,17.719 59.592,17.719 59.592,17.719 59.592,19.571 59.592,19.571 59.592,19.571 59.105,19.571 59.105,19.571 59.105,19.571 Z " />
</svg>