<?xml version="1.0" encoding="UTF-8" standalone="no"?>
<!DOCTYPE svg PUBLIC "-//W3C//DTD SVG 20010904//EN" "http://www.w3.org/TR/2001/REC-SVG-20010904/DTD/svg10.dtd"[]>
<svg version="1.1" id="Frosty Editor v1.0.6.3" xmlns="http://www.w3.org/2000/svg" d1p1:xlink="http://www.w3.org/1999/xlink" viewBox="0 0 101 25" xmlns:d1p1="xmlns">
  <path stroke="none" fill="#ffffffff" d="M 68.647,2.839 C 68.376,2.843 67.923,2.886 67.048,2.974 63.978,3.283 63.098,3.441 60.294,4.188 59.002,4.532 55.770,5.453 54.494,5.840 54.029,5.982 53.197,6.234 52.647,6.402 51.708,6.687 50.274,7.208 49.945,7.384 49.864,7.427 49.755,7.463 49.703,7.463 49.581,7.463 47.016,8.525 46.044,8.978 45.633,9.169 45.284,9.325 45.267,9.325 45.250,9.325 44.938,9.463 44.574,9.632 44.209,9.801 43.570,10.088 43.154,10.272 42.398,10.606 42.398,10.606 42.398,10.606 39.937,10.814 39.937,10.814 39.937,10.814 38.584,10.929 36.486,11.112 35.275,11.221 33.181,11.410 32.948,11.415 30.478,11.324 27.883,11.229 27.883,11.229 27.883,11.229 27.007,10.788 27.007,10.788 27.007,10.788 26.225,10.395 26.076,10.349 25.623,10.358 25.217,10.366 24.997,10.313 24.529,10.098 24.207,9.949 23.460,9.661 22.870,9.458 22.281,9.255 20.430,8.527 18.758,7.841 17.085,7.154 15.622,6.563 15.506,6.527 15.389,6.491 14.856,6.303 14.320,6.109 13.030,5.640 12.318,5.403 11.399,5.133 10.980,5.009 10.381,4.834 10.069,4.742 9.601,4.605 9.440,4.592 9.160,4.667 8.646,4.806 8.605,4.941 8.605,6.489 8.605,8.521 8.669,8.602 10.516,8.941 11.188,9.064 11.981,9.241 12.279,9.334 12.956,9.547 15.079,10.602 15.396,10.882 15.526,10.997 15.728,11.173 15.844,11.273 16.287,11.653 17.159,12.424 17.388,12.638 17.612,12.848 18.299,13.841 18.299,13.956 18.299,13.985 18.537,14.385 18.828,14.844 19.627,16.105 19.427,16.047 23.125,16.099 26.087,16.140 26.137,16.144 26.512,16.342 26.816,16.503 27.094,16.558 27.880,16.613 28.424,16.652 29.096,16.742 29.374,16.814 29.653,16.886 29.993,16.945 30.130,16.945 30.315,16.945 30.405,17.001 30.478,17.161 30.532,17.279 30.576,17.416 30.576,17.463 30.576,17.537 30.948,18.086 31.085,18.215 31.110,18.239 31.263,18.429 31.425,18.638 31.587,18.848 31.795,19.114 31.888,19.231 32.298,19.743 32.816,20.178 33.593,20.659 34.353,21.129 34.471,21.176 34.903,21.177 35.335,21.178 35.397,21.154 35.607,20.903 35.830,20.637 35.836,20.602 35.798,19.824 35.775,19.349 35.654,18.586 35.503,17.962 35.363,17.381 35.263,16.881 35.281,16.851 35.300,16.821 35.401,16.776 35.506,16.752 35.866,16.671 38.475,15.733 39.678,15.253 39.963,15.139 41.860,14.431 42.186,14.317 42.506,14.205 42.631,14.256 43.220,14.743 43.594,15.052 44.154,16.454 44.337,17.538 44.412,17.980 44.608,19.009 44.773,19.824 44.938,20.639 45.107,21.475 45.149,21.682 45.190,21.889 45.272,22.090 45.330,22.129 45.387,22.168 45.625,22.181 45.858,22.158 46.091,22.135 46.866,22.090 47.581,22.059 48.880,22.003 48.880,22.003 48.880,22.003 49.157,21.569 49.157,21.569 49.157,21.569 49.309,21.331 49.508,20.984 49.600,20.798 49.692,20.611 49.878,20.268 50.014,20.034 50.150,19.800 50.375,19.387 50.515,19.117 50.697,18.764 50.911,18.516 51.270,18.241 51.762,17.864 51.779,17.858 52.243,17.912 52.503,17.943 52.850,18.002 53.013,18.044 53.176,18.086 53.490,18.161 53.711,18.210 54.232,18.326 54.635,18.419 55.722,18.671 57.235,19.022 58.484,19.244 58.781,19.216 59.029,19.192 59.069,19.155 59.091,18.935 59.136,18.475 59.153,18.463 59.539,18.599 59.733,18.667 60.021,18.723 60.178,18.723 60.417,18.723 60.463,18.754 60.465,18.914 60.465,19.018 60.494,19.145 60.528,19.195 60.584,19.276 61.490,19.652 62.890,20.173 63.468,20.389 63.511,20.464 63.511,21.272 63.511,21.630 63.536,21.689 63.702,21.725 64.246,21.846 68.695,22.218 70.320,22.279 72.861,22.374 76.131,22.319 77.820,22.153 79.587,21.979 82.160,21.565 82.890,21.337 85.326,20.577 87.243,19.836 88.296,19.250 88.942,18.890 88.996,18.840 88.996,18.594 88.996,18.327 88.996,18.327 88.996,18.327 87.458,18.271 87.458,18.271 87.458,18.271 86.613,18.240 85.312,18.215 84.568,18.215 83.216,18.215 83.216,18.215 83.216,18.215 82.614,18.525 82.614,18.525 82.614,18.525 82.282,18.696 81.909,18.888 81.783,18.952 81.409,19.144 79.494,19.824 79.327,19.824 79.295,19.824 79.323,19.692 79.391,19.530 79.489,19.294 79.513,18.690 79.513,16.440 79.513,13.643 79.513,13.643 79.513,13.643 81.990,13.632 81.990,13.632 81.990,13.632 83.352,13.625 85.533,13.587 86.837,13.568 89.164,13.536 89.164,13.536 89.164,13.536 89.165,13.399 89.165,13.399 89.165,13.399 89.166,13.287 89.166,13.006 89.163,12.847 89.157,12.542 89.157,12.542 89.157,12.542 84.335,12.542 84.335,12.542 84.335,12.542 79.513,12.542 79.513,12.542 79.513,12.542 79.513,9.951 79.513,9.951 79.513,9.951 79.513,7.790 79.532,7.367 79.629,7.404 79.693,7.429 80.027,7.531 80.370,7.632 80.714,7.732 81.508,8.069 82.134,8.379 83.273,8.944 83.273,8.944 83.273,8.944 86.198,8.944 86.198,8.944 86.198,8.944 89.123,8.944 89.123,8.944 89.123,8.944 89.149,8.672 89.149,8.672 89.149,8.672 89.175,8.401 89.171,8.398 88.048,7.857 87.429,7.559 86.636,7.210 86.287,7.082 85.937,6.954 85.575,6.819 85.482,6.782 85.167,6.656 83.539,6.122 82.815,5.908 81.719,5.584 79.034,5.115 77.566,4.991 76.772,4.924 74.941,4.880 72.930,4.880 69.607,4.880 69.607,4.880 69.607,4.880 69.599,4.203 69.599,4.203 69.599,4.203 69.587,3.283 69.535,3.131 69.163,2.948 69.010,2.873 68.919,2.836 68.647,2.839 Z M 68.430,3.509 C 68.577,3.505 68.681,3.509 68.729,3.521 68.923,3.569 68.930,3.600 68.930,4.365 68.930,5.159 68.930,5.159 68.930,5.159 68.189,5.261 68.189,5.261 68.189,5.261 64.169,5.811 58.414,6.745 56.946,7.085 56.629,7.159 55.853,7.313 55.220,7.428 53.902,7.668 53.410,7.840 52.462,8.396 50.108,9.777 49.567,10.294 48.440,12.243 47.721,13.488 47.721,13.488 47.721,13.488 45.816,13.418 45.816,13.418 45.816,13.418 42.302,13.287 42.423,13.275 39.381,14.058 37.914,14.435 35.419,15.086 33.836,15.505 31.494,16.124 30.854,16.264 30.406,16.254 29.609,16.237 29.376,16.188 29.333,16.028 29.311,15.951 29.094,15.765 28.848,15.615 28.014,15.106 26.026,13.655 25.973,13.515 25.943,13.438 25.919,12.864 25.919,12.239 25.919,10.985 25.924,10.977 26.427,11.286 26.590,11.386 26.945,11.555 27.214,11.662 27.666,11.840 27.923,11.863 30.474,11.956 33.207,12.056 33.275,12.054 35.740,11.831 39.447,11.495 40.858,11.372 41.752,11.310 42.694,11.244 43.344,11.001 46.366,9.584 47.086,9.247 49.963,8.055 50.057,8.055 50.101,8.055 50.202,8.020 50.283,7.977 50.577,7.820 51.972,7.311 52.716,7.089 53.135,6.964 53.688,6.790 53.944,6.702 55.092,6.311 61.802,4.451 63.088,4.168 64.257,3.911 67.405,3.534 68.430,3.509 Z M 9.491,5.337 C 9.979,5.365 11.647,5.867 13.727,6.620 14.263,6.813 14.777,6.993 14.870,7.018 14.964,7.044 16.430,7.636 18.130,8.333 19.830,9.031 21.658,9.753 22.194,9.938 22.730,10.123 23.511,10.418 23.930,10.592 24.349,10.766 24.891,10.959 25.136,11.022 25.580,11.135 25.580,11.135 25.580,11.135 25.583,12.452 25.583,12.452 25.583,12.452 25.586,13.770 25.586,13.770 25.586,13.770 26.106,14.151 26.106,14.151 26.106,14.151 26.392,14.361 27.100,14.866 27.680,15.273 28.734,16.014 28.734,16.014 28.734,16.014 28.321,16.003 28.321,16.003 28.321,16.003 27.603,15.985 27.073,15.872 26.723,15.665 26.427,15.488 26.257,15.460 25.361,15.434 24.357,15.405 24.338,15.401 24.373,15.217 24.428,14.930 23.929,14.399 22.629,13.357 21.198,12.210 19.977,11.197 19.865,11.063 19.620,10.768 19.092,10.682 18.663,10.866 17.786,11.243 17.746,11.543 18.438,12.560 19.419,14.004 20.287,15.186 20.453,15.302 20.682,15.463 20.488,15.453 20.143,15.287 19.926,15.182 19.689,14.864 19.061,13.834 18.319,12.616 17.892,12.075 17.239,11.527 17.100,11.411 16.663,11.035 16.267,10.692 15.675,10.179 15.314,9.956 14.235,9.436 12.919,8.801 12.111,8.547 10.637,8.307 9.297,8.088 9.240,8.014 9.240,6.507 9.240,5.710 9.269,5.427 9.358,5.354 9.377,5.338 9.422,5.333 9.491,5.337 Z M 73.121,5.489 C 77.996,5.486 80.559,5.842 84.085,7.012 84.574,7.174 85.051,7.340 85.144,7.379 85.237,7.418 85.637,7.571 86.032,7.719 86.781,7.999 87.387,8.283 87.387,8.353 87.387,8.376 87.282,8.386 87.154,8.376 87.026,8.366 86.141,8.338 85.186,8.313 83.450,8.267 83.450,8.267 83.450,8.267 82.392,7.743 82.392,7.743 82.392,7.743 81.316,7.210 80.348,6.878 79.327,6.692 78.801,6.596 78.741,6.561 78.497,6.221 78.183,5.785 78.318,5.797 75.831,5.978 74.899,6.046 72.461,6.217 70.412,6.358 68.363,6.498 66.381,6.635 66.009,6.662 65.636,6.688 65.376,6.680 65.429,6.642 65.483,6.604 65.539,6.478 65.556,6.362 65.580,6.188 65.639,6.146 65.882,6.125 66.045,6.111 67.131,5.962 68.295,5.794 70.370,5.496 70.465,5.490 73.121,5.489 Z M 77.989,6.277 C 77.989,9.410 77.989,9.410 77.989,9.410 77.989,12.542 77.989,12.542 77.989,12.542 74.402,12.542 74.402,12.542 74.402,12.542 70.770,12.556 70.770,12.556 70.770,12.556 70.767,13.014 70.767,13.014 70.767,13.014 70.765,13.260 70.774,13.487 70.774,13.547 70.775,13.613 72.071,13.596 74.278,13.586 76.156,13.577 77.760,13.589 77.841,13.612 77.979,13.652 77.989,13.888 77.989,17.036 77.989,20.416 77.989,20.416 77.989,20.416 77.037,20.405 77.037,20.405 77.037,20.405 76.513,20.399 75.055,20.325 73.798,20.241 72.541,20.156 69.955,20.008 68.052,19.911 66.149,19.814 64.526,19.681 64.431,19.648 64.367,19.626 64.385,19.786 64.406,13.445 64.427,7.213 64.432,7.457 64.425,7.195 64.425,7.175 64.971,7.133 68.168,6.915 70.125,6.781 71.979,6.652 75.492,6.403 76.469,6.334 77.431,6.278 77.629,6.278 77.989,6.277 77.989,6.277 77.989,6.277 Z M 62.749,6.497 C 62.749,6.511 62.650,6.595 62.429,6.708 62.208,6.820 61.645,7.139 61.207,7.378 60.769,7.617 60.521,7.765 60.490,7.784 60.420,7.828 60.254,7.923 60.151,7.989 60.079,8.036 59.845,8.187 59.682,8.298 58.765,8.927 57.459,10.374 57.030,10.957 56.914,11.116 56.627,11.561 56.414,11.862 55.739,12.814 55.490,13.872 55.637,15.153 55.800,16.577 56.066,17.118 56.974,17.876 57.267,18.120 57.492,18.336 57.473,18.354 57.455,18.373 56.244,18.121 54.782,17.794 53.320,17.467 51.971,17.200 51.785,17.201 51.310,17.203 50.370,17.914 50.052,18.512 49.928,18.744 49.560,19.411 49.234,19.993 48.908,20.575 48.618,21.114 48.589,21.191 48.555,21.283 48.400,21.346 48.129,21.378 47.905,21.404 47.281,21.450 46.742,21.479 45.764,21.532 45.764,21.532 45.764,21.532 45.577,20.614 45.577,20.614 45.577,20.614 45.474,20.110 45.276,19.068 45.138,18.300 44.761,16.207 44.748,16.158 44.314,15.219 43.958,14.448 43.862,14.314 43.492,14.059 43.073,13.770 43.073,13.770 43.073,13.770 43.322,13.740 43.322,13.740 43.322,13.740 43.460,13.723 44.516,13.756 45.670,13.812 47.319,13.893 47.794,13.892 47.892,13.811 48.002,13.719 48.126,13.527 48.724,12.512 49.502,11.193 49.764,10.826 50.275,10.337 50.593,10.034 51.140,9.618 51.489,9.414 51.838,9.210 52.314,8.920 52.547,8.771 53.257,8.317 53.772,8.125 54.833,7.919 55.392,7.811 56.306,7.625 56.865,7.506 57.931,7.279 62.749,6.453 62.749,6.497 Z M 63.977,6.978 C 63.953,11.464 63.953,11.464 63.953,11.464 63.939,13.932 63.902,16.791 63.868,17.817 63.832,18.938 63.774,19.692 63.723,19.705 63.636,19.727 63.154,19.557 61.886,19.057 61.198,18.786 61.154,18.754 61.110,18.484 61.084,18.326 61.014,18.153 60.954,18.100 60.866,18.022 60.849,17.060 60.871,13.210 60.899,8.416 60.899,8.416 60.899,8.416 61.910,7.896 61.910,7.896 61.910,7.896 62.467,7.609 63.160,7.285 63.450,7.176 63.977,6.978 63.977,6.978 63.977,6.978 Z M 78.534,7.237 C 78.586,7.250 78.662,7.403 78.771,7.635 78.895,7.899 78.905,8.201 78.860,10.238 78.809,12.542 78.809,12.542 78.809,12.542 78.611,12.542 78.611,12.542 78.611,12.542 78.413,12.542 78.413,12.542 78.413,12.542 78.413,9.827 78.413,9.827 78.413,9.827 78.413,7.855 78.418,7.208 78.534,7.237 Z M 60.415,8.744 C 60.430,8.761 60.423,10.861 60.398,13.411 60.354,18.046 60.354,18.046 60.354,18.046 60.134,18.038 60.134,18.038 60.134,18.038 60.012,18.033 59.780,17.978 59.617,17.915 59.454,17.852 58.870,17.666 58.326,17.486 57.364,17.167 57.364,17.167 57.364,17.167 57.385,14.264 57.385,14.264 57.385,14.264 57.430,11.888 57.407,11.335 57.508,11.141 57.637,10.891 58.438,10.076 59.151,9.553 59.384,9.383 59.612,9.213 59.659,9.176 59.850,9.023 60.389,8.716 60.415,8.744 Z M 19.123,11.188 C 19.404,11.188 19.590,11.304 20.331,11.944 20.786,12.337 22.035,13.353 22.732,13.897 23.133,14.210 23.770,14.787 23.871,14.929 23.933,15.014 23.959,15.160 23.929,15.253 23.879,15.411 23.799,15.421 22.654,15.421 21.982,15.421 21.502,15.393 21.461,15.396 21.405,15.400 21.370,15.395 21.170,15.345 20.743,15.237 20.565,14.987 19.294,13.155 18.768,12.397 18.384,11.760 18.384,11.645 18.384,11.413 18.749,11.188 19.123,11.188 Z M 56.957,11.784 C 57.000,11.784 56.992,12.963 56.992,14.400 56.992,15.810 57.012,16.983 56.970,17.009 56.819,17.102 56.343,16.460 56.189,15.923 55.976,15.179 55.969,13.858 56.175,13.177 56.332,12.658 56.820,11.784 56.957,11.784 Z M 72.154,12.832 C 73.272,12.820 75.514,12.851 80.021,12.861 89.247,12.881 88.895,12.821 88.885,13.061 88.876,13.270 89.277,13.230 80.021,13.254 70.966,13.277 71.029,13.348 71.039,13.057 71.045,12.898 71.037,12.844 72.154,12.832 Z M 78.413,13.643 C 78.667,13.643 78.667,13.643 78.667,13.643 78.921,13.643 78.921,13.643 78.921,13.643 78.919,16.289 78.919,16.289 78.919,16.289 78.917,18.692 78.902,18.967 78.758,19.284 78.428,20.010 78.413,19.893 78.413,16.696 78.413,13.643 78.413,13.643 78.413,13.643 Z M 40.288,14.268 C 40.304,14.284 40.135,14.362 39.912,14.442 39.690,14.522 39.432,14.618 39.339,14.655 38.239,15.094 35.744,15.994 35.063,16.197 34.677,16.312 34.555,16.418 34.556,16.638 34.556,16.737 34.707,17.485 34.893,18.300 35.271,19.960 35.288,20.131 35.101,20.398 35.028,20.501 34.943,20.585 34.911,20.583 34.797,20.578 33.915,20.056 33.412,19.698 32.886,19.321 32.733,19.168 32.315,18.596 32.179,18.410 32.027,18.220 31.978,18.173 31.742,17.950 31.246,17.276 31.170,17.075 31.018,16.676 31.056,16.639 31.825,16.441 32.232,16.337 33.404,16.027 34.428,15.754 37.344,14.977 40.258,14.238 40.288,14.268 Z M 83.394,18.889 C 85.447,18.912 85.447,18.912 85.447,18.912 87.501,18.935 87.501,18.935 87.501,18.935 86.069,19.502 86.069,19.502 86.069,19.502 84.615,20.078 82.932,20.656 82.065,20.877 81.249,21.085 78.866,21.416 77.185,21.554 76.300,21.627 75.195,21.702 74.730,21.721 73.346,21.778 69.110,21.615 67.110,21.428 66.085,21.332 64.993,21.231 64.682,21.204 64.118,21.155 64.118,21.155 64.118,21.155 64.090,20.616 64.090,20.616 64.090,20.616 64.074,20.307 64.098,20.066 64.146,20.049 64.193,20.034 64.364,20.051 64.527,20.089 64.690,20.126 65.719,20.196 66.813,20.243 67.908,20.291 69.146,20.349 69.565,20.373 71.212,20.469 74.621,20.680 75.761,20.758 77.326,20.865 78.260,20.862 78.555,20.749 78.687,20.699 79.174,20.551 79.640,20.420 80.920,20.060 81.935,19.676 82.702,19.262 83.394,18.889 83.394,18.889 83.394,18.889 Z " />
</svg>