<?xml version="1.0" encoding="UTF-8" standalone="no"?>
<!DOCTYPE svg PUBLIC "-//W3C//DTD SVG 20010904//EN" "http://www.w3.org/TR/2001/REC-SVG-20010904/DTD/svg10.dtd"[]>
<svg version="1.1" id="Frosty Editor v1.0.6.3" xmlns="http://www.w3.org/2000/svg" d1p1:xlink="http://www.w3.org/1999/xlink" viewBox="0 0 384 96" xmlns:d1p1="xmlns">
  <path stroke="none" fill="#ffffffff" d="M 360.988,37.540 C 359.192,37.540 357.730,39.002 357.730,40.798 357.730,42.594 359.192,44.056 360.988,44.056 362.785,44.056 364.247,42.594 364.247,40.798 364.247,39.002 362.785,37.540 360.988,37.540 Z M 360.988,42.056 C 360.295,42.056 359.730,41.492 359.730,40.798 359.730,40.104 360.294,39.540 360.988,39.540 361.682,39.540 362.247,40.104 362.247,40.798 362.247,41.492 361.683,42.056 360.988,42.056 Z " />
  <path stroke="none" fill="#ffffffff" d="M 339.483,37.540 C 337.686,37.540 336.224,39.002 336.224,40.798 336.224,42.594 337.686,44.056 339.483,44.056 341.279,44.056 342.741,42.594 342.741,40.798 342.741,39.002 341.279,37.540 339.483,37.540 Z M 339.483,42.056 C 338.789,42.056 338.224,41.492 338.224,40.798 338.224,40.104 338.788,39.540 339.483,39.540 340.176,39.540 340.741,40.104 340.741,40.798 340.741,41.492 340.177,42.056 339.483,42.056 Z " />
  <path stroke="none" fill="#ffffffff" d="M 370.444,27.332 C 368.509,27.332 368.509,27.332 368.509,27.332 368.509,24.669 368.509,24.669 368.509,24.669 366.455,24.669 366.455,24.669 366.455,24.669 334.236,24.669 334.236,24.669 334.236,24.669 332.185,24.669 332.185,24.669 332.185,24.669 332.185,26.355 332.185,26.355 332.185,26.355 295.949,26.355 295.949,26.355 295.949,26.355 295.949,25.664 295.949,25.664 295.949,25.664 295.006,25.664 295.006,25.664 295.006,25.664 295.006,24.636 295.006,24.636 295.006,24.636 295.006,23.381 295.006,23.381 295.006,23.381 295.460,23.381 295.460,23.381 295.460,23.381 300.213,24.248 300.213,24.248 300.213,24.248 301.747,22.713 301.747,22.713 301.747,22.713 301.747,19.834 301.747,19.834 301.747,19.834 301.747,17.879 301.747,17.879 301.747,17.879 301.747,15.000 301.747,15.000 301.747,15.000 300.213,13.465 300.213,13.465 300.213,13.465 295.460,14.332 295.460,14.332 295.460,14.332 295.006,14.332 295.006,14.332 295.006,14.332 295.006,13.077 295.006,13.077 295.006,13.077 285.837,13.077 285.837,13.077 285.837,13.077 285.837,14.278 285.837,14.278 285.837,14.278 239.002,14.278 239.002,14.278 239.002,14.278 237.801,13.077 237.801,13.077 237.801,13.077 203.014,13.077 203.014,13.077 203.014,13.077 202.576,14.332 202.576,14.332 202.576,14.332 201.670,14.332 201.670,14.332 201.670,14.332 201.670,13.068 201.670,13.068 201.670,13.068 175.032,13.068 175.032,13.068 175.032,13.068 175.032,10.970 175.032,10.970 175.032,10.970 173.439,10.970 173.439,10.970 173.439,10.970 173.439,8.219 173.439,8.219 173.439,8.219 171.136,6.213 171.136,6.213 171.136,6.213 143.642,6.213 143.642,6.213 143.642,6.213 143.642,7.300 143.642,7.300 143.642,7.300 140.000,7.300 140.000,7.300 140.000,7.300 140.000,7.780 140.000,7.780 140.000,7.780 137.480,7.780 137.480,7.780 137.480,7.780 134.953,6.415 134.953,6.415 134.953,6.415 125.262,6.415 125.262,6.415 125.262,6.415 125.262,13.089 125.262,13.089 125.262,13.089 73.082,13.089 73.082,13.089 73.082,13.089 73.082,14.328 73.082,14.328 73.082,14.328 66.382,14.328 66.382,14.328 66.382,14.328 66.382,13.090 66.382,13.090 66.382,13.090 58.642,13.090 58.642,13.090 58.642,13.090 58.166,13.094 58.166,13.094 58.166,13.094 57.700,12.457 56.952,12.038 56.104,12.038 55.089,12.038 54.218,12.636 53.804,13.495 51.526,13.495 51.526,13.495 51.526,13.495 51.526,23.945 51.526,23.945 51.526,23.945 56.388,23.945 56.388,23.945 56.388,23.945 56.388,26.819 56.388,26.819 56.388,26.819 54.572,26.819 54.572,26.819 54.572,26.819 53.232,27.982 53.232,27.982 53.232,27.982 48.096,27.982 48.096,27.982 48.096,27.982 48.096,29.726 48.096,29.726 48.096,29.726 36.366,29.726 36.366,29.726 36.366,29.726 36.366,18.169 36.366,18.169 36.366,18.169 33.893,12.028 33.893,12.028 33.893,12.028 33.677,11.812 33.677,11.812 33.677,11.812 31.493,9.627 28.824,10.697 27.719,11.568 27.361,11.851 27.361,11.851 27.361,11.851 25.613,17.251 25.613,17.251 25.613,17.251 25.449,16.760 25.176,16.224 24.724,15.735 23.831,14.770 22.540,14.280 20.886,14.280 16.953,14.280 15.691,16.995 15.574,18.430 15.569,18.491 15.569,18.491 15.569,18.491 15.569,48.033 15.569,48.033 15.569,48.033 15.686,53.662 11.548,61.970 11.507,62.053 11.318,62.430 11.318,62.430 11.318,62.430 11.352,62.850 11.352,62.850 11.352,62.850 11.701,67.087 15.978,68.249 18.191,68.272 18.877,68.279 18.877,68.279 18.877,68.279 20.021,66.982 20.021,66.982 20.021,66.982 21.969,66.982 21.969,66.982 21.969,66.982 27.607,53.179 27.607,53.179 27.607,53.179 33.130,53.179 33.130,53.179 33.130,53.179 33.130,40.892 33.130,40.892 33.130,40.892 48.105,40.892 48.105,40.892 48.105,40.892 48.105,42.636 48.105,42.636 48.105,42.636 53.242,42.636 53.242,42.636 53.242,42.636 54.582,43.799 54.582,43.799 54.582,43.799 56.397,43.799 56.397,43.799 56.397,43.799 56.397,44.735 56.397,44.735 56.397,44.735 67.386,44.735 67.386,44.735 67.386,44.735 67.386,43.749 67.386,43.749 67.386,43.749 91.260,43.749 91.260,43.749 91.260,43.749 91.260,46.981 91.260,46.981 91.260,46.981 94.878,46.986 94.878,46.986 94.878,46.986 95.048,48.855 96.606,50.329 98.518,50.329 100.457,50.329 102.033,48.815 102.161,46.996 109.367,47.006 109.367,47.006 109.367,47.006 98.461,79.914 98.461,79.914 98.461,79.914 102.930,82.167 102.930,82.167 102.930,82.167 103.051,83.200 103.413,84.756 104.484,85.658 104.602,85.758 104.732,85.832 104.859,85.910 104.859,87.019 104.859,87.019 104.859,87.019 104.861,87.071 104.861,87.071 104.861,87.071 104.888,87.907 105.573,88.570 106.410,88.570 106.410,88.570 106.410,88.570 106.410,88.570 106.410,88.570 106.410,88.570 106.410,88.570 107.274,88.542 107.960,87.833 107.960,86.968 107.960,85.995 107.960,85.995 107.960,85.995 108.566,85.734 109.198,85.339 109.875,84.772 116.549,86.700 116.549,86.700 116.549,86.700 117.031,86.917 118.485,87.476 120.666,87.475 121.902,87.475 123.372,87.296 125.030,86.774 132.789,84.332 140.317,76.099 147.405,62.304 147.735,61.763 148.133,60.509 145.339,49.346 145.324,49.212 145.283,48.658 145.292,46.987 150.435,46.978 150.435,46.978 150.435,46.978 150.430,44.070 150.430,44.070 150.430,44.070 150.430,43.907 150.462,42.888 151.164,42.164 151.729,41.581 152.645,41.285 153.887,41.285 161.750,41.285 161.750,41.285 161.750,41.285 161.718,41.477 161.690,41.672 161.690,41.873 161.690,52.231 161.690,52.231 161.690,52.231 161.690,54.190 163.278,55.779 165.238,55.779 183.500,55.779 183.500,55.779 183.500,55.779 185.232,55.779 186.673,54.529 186.981,52.885 188.185,52.885 188.185,52.885 188.185,52.885 188.185,59.571 188.185,59.571 188.185,59.571 194.625,59.571 194.625,59.571 194.625,59.571 195.028,61.779 196.451,62.751 197.381,62.969 198.640,63.265 198.752,65.756 198.752,65.756 198.752,88.256 198.752,88.256 198.752,88.256 198.797,88.620 198.797,88.620 198.797,88.620 199.573,91.724 202.301,92.638 203.691,92.688 208.494,92.688 208.494,92.688 208.494,92.688 211.786,92.687 211.786,92.687 211.786,92.687 213.120,92.637 215.848,91.723 216.624,88.620 216.669,88.440 216.669,88.440 216.669,88.440 216.669,65.779 216.669,65.779 216.669,65.779 216.669,65.754 216.781,63.266 218.039,62.971 218.970,62.753 220.392,61.780 220.796,59.573 227.312,59.573 227.312,59.573 227.312,59.573 227.312,53.885 227.312,53.885 227.312,53.885 284.911,53.885 284.911,53.885 284.911,53.885 284.911,55.529 284.911,55.529 284.911,55.529 295.849,55.529 295.849,55.529 295.849,55.529 295.849,53.709 295.849,53.709 295.849,53.709 300.535,53.709 300.535,53.709 300.535,53.709 300.535,56.389 300.535,56.389 300.535,56.389 323.962,56.389 323.962,56.389 323.962,56.389 323.962,43.799 323.962,43.799 323.962,43.799 332.187,43.799 332.187,43.799 332.187,43.799 332.187,46.046 332.187,46.046 332.187,46.046 332.187,47.179 333.105,48.097 334.238,48.097 366.457,48.097 366.457,48.097 366.457,48.097 367.590,48.097 368.508,47.179 368.508,46.046 368.508,42.905 368.508,42.905 368.508,42.905 370.446,42.905 370.446,42.905 370.446,42.905 371.768,42.905 372.840,41.833 372.840,40.511 372.840,29.725 372.840,29.725 372.840,29.725 372.837,28.403 371.766,27.332 370.444,27.332 Z M 295.596,17.329 C 298.747,16.779 298.747,16.779 298.747,16.779 298.747,17.877 298.747,17.877 298.747,17.877 298.747,19.832 298.747,19.832 298.747,19.832 298.747,20.930 298.747,20.930 298.747,20.930 295.865,20.405 295.865,20.405 295.865,20.405 294.256,20.395 294.256,20.395 294.256,20.395 294.256,17.330 294.256,17.330 294.256,17.330 295.596,17.330 295.596,17.330 295.596,17.330 Z M 288.837,16.073 C 292.006,16.073 292.006,16.073 292.006,16.073 292.006,17.328 292.006,17.328 292.006,17.328 292.756,17.328 292.756,17.328 292.756,17.328 292.756,20.384 292.756,20.384 292.756,20.384 292.006,20.379 292.006,20.379 292.006,20.379 292.006,21.634 292.006,21.634 292.006,21.634 288.837,21.634 288.837,21.634 288.837,21.634 288.837,20.433 288.837,20.433 288.837,20.433 288.087,20.433 288.087,20.433 288.087,20.433 288.087,17.273 288.087,17.273 288.087,17.273 288.837,17.273 288.837,17.273 288.837,17.273 288.837,16.073 288.837,16.073 288.837,16.073 Z M 93.503,33.576 C 93.501,29.370 93.501,29.370 93.501,29.370 94.250,29.370 94.250,29.370 94.250,29.370 94.250,28.646 94.250,28.646 94.250,28.646 224.304,28.646 224.304,28.646 224.304,28.646 224.304,29.354 224.304,29.354 224.304,29.354 225.054,29.354 225.054,29.354 225.054,29.354 225.055,33.576 225.055,33.576 225.055,33.576 93.503,33.576 93.503,33.576 93.503,33.576 Z M 66.382,25.383 C 66.382,23.445 66.382,23.445 66.382,23.445 73.107,23.445 73.107,23.445 73.107,23.445 73.107,24.642 73.107,24.642 73.107,24.642 105.449,24.642 105.449,24.642 105.449,24.642 105.449,24.643 105.449,24.643 105.449,24.643 201.669,24.643 201.669,24.643 201.669,24.643 201.669,23.379 201.669,23.379 201.669,23.379 202.575,23.379 202.575,23.379 202.575,23.379 203.013,24.634 203.013,24.634 203.013,24.634 237.800,24.634 237.800,24.634 237.800,24.634 239.001,23.433 239.001,23.433 239.001,23.433 240.299,23.433 240.299,23.433 240.299,23.433 240.147,24.220 240.147,24.220 240.147,24.220 234.314,26.353 234.314,26.353 234.314,26.353 227.303,26.353 227.303,26.353 227.303,26.353 227.303,25.645 227.303,25.645 227.303,25.645 94.250,25.645 94.250,25.645 94.250,25.645 94.250,25.643 94.250,25.643 94.250,25.643 91.250,25.643 91.250,25.643 91.250,25.643 91.250,26.369 91.250,26.369 91.250,26.369 67.376,26.369 67.376,26.369 67.376,26.369 67.376,25.383 67.376,25.383 67.376,25.383 66.382,25.383 66.382,25.383 66.382,25.383 Z M 284.906,39.197 C 255.525,39.197 255.525,39.197 255.525,39.197 255.525,29.354 255.525,29.354 255.525,29.354 284.906,29.354 284.906,29.354 284.906,29.354 284.906,39.197 284.906,39.197 284.906,39.197 Z M 235.410,41.910 C 235.410,29.354 235.410,29.354 235.410,29.354 242.209,29.354 242.209,29.354 242.209,29.354 243.165,24.417 243.165,24.417 243.165,24.417 243.967,29.354 243.967,29.354 243.967,29.354 254.026,29.354 254.026,29.354 254.026,29.354 254.026,39.197 254.026,39.197 254.026,39.197 253.276,39.197 253.276,39.197 253.276,39.197 253.276,40.697 253.276,40.697 253.276,40.697 253.276,41.910 253.276,41.910 253.276,41.910 235.410,41.910 235.410,41.910 235.410,41.910 Z M 237.228,26.354 C 239.925,25.368 239.925,25.368 239.925,25.368 239.734,26.354 239.734,26.354 239.734,26.354 237.228,26.354 237.228,26.354 237.228,26.354 Z M 256.275,43.410 C 256.275,42.197 256.275,42.197 256.275,42.197 284.859,42.197 284.859,42.197 284.859,42.197 284.859,44.186 284.859,44.186 284.859,44.186 256.275,44.186 256.275,44.186 256.275,44.186 256.275,43.410 256.275,43.410 256.275,43.410 Z M 284.881,26.354 C 246.520,26.354 246.520,26.354 246.520,26.354 246.046,23.434 246.046,23.434 246.046,23.434 285.825,23.434 285.825,23.434 285.825,23.434 285.825,25.663 285.825,25.663 285.825,25.663 284.882,25.663 284.882,25.663 284.882,25.663 284.882,26.354 284.882,26.354 284.882,26.354 Z M 226.554,29.354 C 233.910,29.354 233.910,29.354 233.910,29.354 233.910,41.042 233.910,41.042 233.910,41.042 230.037,41.042 230.037,41.042 230.037,41.042 228.115,43.621 228.115,43.621 228.115,43.621 226.558,43.621 226.558,43.621 226.558,43.621 226.554,29.354 226.554,29.354 226.554,29.354 Z M 235.410,44.910 C 236.699,44.910 236.699,44.910 236.699,44.910 236.699,50.885 236.699,50.885 236.699,50.885 235.410,50.885 235.410,50.885 235.410,50.885 235.410,44.910 235.410,44.910 235.410,44.910 Z M 238.199,44.910 C 240.103,44.910 240.103,44.910 240.103,44.910 240.103,50.885 240.103,50.885 240.103,50.885 238.199,50.885 238.199,50.885 238.199,50.885 238.199,44.910 238.199,44.910 238.199,44.910 Z M 241.604,44.910 C 246.340,44.910 246.340,44.910 246.340,44.910 246.340,50.885 246.340,50.885 246.340,50.885 241.604,50.885 241.604,50.885 241.604,50.885 241.604,44.910 241.604,44.910 241.604,44.910 Z M 247.840,44.910 C 253.276,44.910 253.276,44.910 253.276,44.910 253.276,47.185 253.276,47.185 253.276,47.185 284.907,47.185 284.907,47.185 284.907,47.185 284.907,50.884 284.907,50.884 284.907,50.884 247.840,50.884 247.840,50.884 247.840,50.884 247.840,44.910 247.840,44.910 247.840,44.910 Z M 286.587,17.274 C 286.587,20.434 286.587,20.434 286.587,20.434 245.558,20.434 245.558,20.434 245.558,20.434 240.881,20.434 240.881,20.434 240.881,20.434 238.528,20.434 238.528,20.434 238.528,20.434 238.528,17.274 238.528,17.274 238.528,17.274 286.587,17.274 286.587,17.274 286.587,17.274 Z M 205.145,16.073 C 236.559,16.073 236.559,16.073 236.559,16.073 237.029,16.543 237.029,16.543 237.029,16.543 237.029,21.165 237.029,21.165 237.029,21.165 236.559,21.635 236.559,21.635 236.559,21.635 205.145,21.635 205.145,21.635 205.145,21.635 204.707,20.380 204.707,20.380 204.707,20.380 204.392,20.380 204.392,20.380 204.392,20.380 204.392,17.329 204.392,17.329 204.392,17.329 204.707,17.329 204.707,17.329 204.707,17.329 205.145,16.073 205.145,16.073 205.145,16.073 Z M 202.891,17.329 C 202.891,20.380 202.891,20.380 202.891,20.380 200.919,20.380 200.919,20.380 200.919,20.380 200.919,17.329 200.919,17.329 200.919,17.329 202.891,17.329 202.891,17.329 202.891,17.329 Z M 170.438,9.584 C 170.438,13.839 170.438,13.839 170.438,13.839 166.899,13.839 166.899,13.839 166.899,13.839 166.899,9.213 166.899,9.213 166.899,9.213 170.012,9.213 170.012,9.213 170.012,9.213 170.438,9.584 170.438,9.584 170.438,9.584 Z M 149.152,13.840 C 149.152,9.213 149.152,9.213 149.152,9.213 162.770,9.213 162.770,9.213 162.770,9.213 162.770,13.839 162.770,13.839 162.770,13.839 149.152,13.839 149.152,13.839 149.152,13.839 Z M 164.270,9.213 C 165.399,9.213 165.399,9.213 165.399,9.213 165.399,13.839 165.399,13.839 165.399,13.839 164.270,13.839 164.270,13.839 164.270,13.839 164.270,9.213 164.270,9.213 164.270,9.213 Z M 146.641,9.213 C 147.652,9.213 147.652,9.213 147.652,9.213 147.652,13.839 147.652,13.839 147.652,13.839 145.891,13.839 145.891,13.839 145.891,13.839 145.891,10.300 145.891,10.300 145.891,10.300 146.641,10.300 146.641,10.300 146.641,10.300 146.641,9.213 146.641,9.213 146.641,9.213 Z M 143.000,10.301 C 144.391,10.301 144.391,10.301 144.391,10.301 144.391,13.840 144.391,13.840 144.391,13.840 142.427,13.840 142.427,13.840 142.427,13.840 142.427,10.781 142.427,10.781 142.427,10.781 143.000,10.781 143.000,10.781 143.000,10.781 143.000,10.301 143.000,10.301 143.000,10.301 Z M 134.194,9.416 C 136.721,10.781 136.721,10.781 136.721,10.781 140.926,10.781 140.926,10.781 140.926,10.781 140.926,13.840 140.926,13.840 140.926,13.840 128.260,13.840 128.260,13.840 128.260,13.840 128.260,9.416 128.260,9.416 128.260,9.416 134.194,9.416 134.194,9.416 134.194,9.416 Z M 76.082,16.090 C 128.262,16.090 128.262,16.090 128.262,16.090 128.262,15.340 128.262,15.340 128.262,15.340 172.032,15.340 172.032,15.340 172.032,15.340 172.032,16.065 172.032,16.065 172.032,16.065 198.670,16.065 198.670,16.065 198.670,16.065 198.670,17.329 198.670,17.329 198.670,17.329 199.420,17.329 199.420,17.329 199.420,17.329 199.420,20.380 199.420,20.380 199.420,20.380 198.670,20.380 198.670,20.380 198.670,20.380 198.670,21.644 198.670,21.644 198.670,21.644 106.285,21.644 106.285,21.644 106.285,21.644 106.285,21.643 106.285,21.643 106.285,21.643 76.107,21.643 76.107,21.643 76.107,21.643 76.107,20.446 76.107,20.446 76.107,20.446 75.585,20.446 75.585,20.446 75.585,20.446 75.585,17.329 75.585,17.329 75.585,17.329 76.082,17.329 76.082,17.329 76.082,17.329 76.082,16.090 76.082,16.090 76.082,16.090 Z M 74.084,17.329 C 74.084,20.446 74.084,20.446 74.084,20.446 65.631,20.446 65.631,20.446 65.631,20.446 65.631,17.329 65.631,17.329 65.631,17.329 74.084,17.329 74.084,17.329 74.084,17.329 Z M 64.132,17.329 C 64.132,20.446 64.132,20.446 64.132,20.446 63.382,20.446 63.382,20.446 63.382,20.446 63.382,28.384 63.382,28.384 63.382,28.384 64.377,28.384 64.377,28.384 64.377,28.384 64.377,29.370 64.377,29.370 64.377,29.370 65.128,29.370 65.128,29.370 65.128,29.370 65.129,31.284 65.129,31.284 65.129,31.284 58.640,31.284 58.640,31.284 58.640,31.284 58.639,29.818 58.639,29.818 58.639,29.818 59.388,29.818 59.388,29.818 59.388,29.818 59.388,28.882 59.388,28.882 59.388,28.882 59.388,27.382 59.388,27.382 59.388,27.382 59.388,20.944 59.388,20.944 59.388,20.944 58.638,20.944 58.638,20.944 58.638,20.944 58.638,16.097 58.638,16.097 58.638,16.097 63.382,16.090 63.382,16.090 63.382,16.090 63.382,17.329 63.382,17.329 63.382,17.329 64.132,17.329 64.132,17.329 64.132,17.329 Z M 56.104,13.738 C 56.579,13.738 56.964,14.124 56.964,14.598 56.964,15.072 56.578,15.459 56.104,15.459 55.630,15.459 55.244,15.073 55.244,14.598 55.244,14.123 55.629,13.738 56.104,13.738 Z M 54.525,20.944 C 54.530,16.603 54.530,16.603 54.530,16.603 54.966,16.946 55.507,17.159 56.103,17.159 56.472,17.159 56.820,17.077 57.137,16.936 57.137,20.943 57.137,20.943 57.137,20.943 54.525,20.943 54.525,20.943 54.525,20.943 Z M 30.600,31.437 C 30.610,29.804 30.610,29.804 30.610,29.804 31.537,29.804 31.537,29.804 31.537,29.804 31.547,31.437 31.547,31.437 31.547,31.437 31.547,36.931 31.547,36.931 31.547,36.931 30.600,36.931 30.600,36.931 30.600,36.931 30.600,31.437 30.600,31.437 30.600,31.437 Z M 32.531,28.803 C 29.615,28.803 29.615,28.803 29.615,28.803 29.602,30.927 29.602,30.927 29.602,30.927 29.345,30.927 29.345,30.927 29.345,30.927 29.345,28.132 29.345,28.132 29.345,28.132 33.365,28.132 33.365,28.132 33.365,28.132 33.365,30.194 33.365,30.194 33.365,30.194 32.880,30.194 32.880,30.194 32.880,30.194 32.546,30.927 32.546,30.927 32.546,30.927 32.531,28.803 32.531,28.803 32.531,28.803 Z M 25.635,20.339 C 27.765,20.339 27.765,20.339 27.765,20.339 28.409,18.349 28.409,18.349 28.409,18.349 29.054,18.785 29.831,19.039 30.666,19.039 31.599,19.039 32.448,18.709 33.133,18.176 33.364,18.750 33.364,18.750 33.364,18.750 33.364,26.632 33.364,26.632 33.364,26.632 25.634,26.632 25.634,26.632 25.634,26.632 25.634,20.339 25.634,20.339 25.634,20.339 Z M 31.711,14.994 C 31.711,15.570 31.242,16.039 30.667,16.039 30.092,16.039 29.623,15.570 29.623,14.994 29.623,14.418 30.092,13.950 30.667,13.950 31.242,13.950 31.711,14.418 31.711,14.994 Z M 19.953,63.981 C 18.666,63.981 18.666,63.981 18.666,63.981 17.579,65.213 17.579,65.213 17.579,65.213 16.584,65.073 14.764,64.596 14.396,62.969 15.295,61.092 18.685,53.627 18.567,48.001 18.567,18.654 18.567,18.654 18.567,18.654 18.635,18.270 18.996,17.279 20.884,17.279 21.414,17.279 22.126,17.362 22.505,17.756 22.861,18.127 22.851,18.688 22.852,18.689 22.848,20.339 22.848,20.339 22.848,20.339 24.135,20.339 24.135,20.339 24.135,20.339 24.135,53.741 24.135,53.741 24.135,53.741 19.953,63.981 19.953,63.981 19.953,63.981 Z M 25.635,50.179 C 25.635,28.132 25.635,28.132 25.635,28.132 27.845,28.132 27.845,28.132 27.845,28.132 27.845,50.170 27.845,50.170 27.845,50.170 25.635,50.179 25.635,50.179 25.635,50.179 Z M 29.346,50.165 C 29.346,31.927 29.346,31.927 29.346,31.927 29.600,31.927 29.600,31.927 29.600,31.927 29.600,38.854 29.600,38.854 29.600,38.854 30.130,38.854 30.130,38.854 30.130,38.854 30.130,50.162 30.130,50.162 30.130,50.162 29.346,50.165 29.346,50.165 29.346,50.165 Z M 34.343,37.892 C 34.343,36.931 34.343,36.931 34.343,36.931 32.547,36.931 32.547,36.931 32.547,36.931 32.547,31.927 32.547,31.927 32.547,31.927 33.191,31.927 33.191,31.927 33.191,31.927 33.375,31.524 33.375,31.524 33.375,31.524 33.375,32.725 33.375,32.725 33.375,32.725 48.849,32.725 48.849,32.725 48.849,32.725 48.854,37.892 48.854,37.892 48.854,37.892 34.343,37.892 34.343,37.892 34.343,37.892 Z M 51.104,39.636 C 51.104,37.892 51.104,37.892 51.104,37.892 50.352,37.892 50.352,37.892 50.352,37.892 50.347,32.725 50.347,32.725 50.347,32.725 51.095,32.725 51.095,32.725 51.095,32.725 51.095,30.980 51.095,30.980 51.095,30.980 53.642,30.980 53.642,30.980 53.642,30.980 53.642,39.636 53.642,39.636 53.642,39.636 51.104,39.636 51.104,39.636 51.104,39.636 Z M 55.701,40.799 C 55.143,40.315 55.143,40.315 55.143,40.315 55.143,30.294 55.143,30.294 55.143,30.294 55.692,29.818 55.692,29.818 55.692,29.818 57.139,29.818 57.139,29.818 57.139,29.818 57.145,40.800 57.145,40.800 57.145,40.800 55.701,40.800 55.701,40.800 55.701,40.800 Z M 64.385,41.735 C 59.396,41.735 59.396,41.735 59.396,41.735 59.396,40.799 59.396,40.799 59.396,40.799 58.645,40.799 58.645,40.799 58.645,40.799 58.640,32.783 58.640,32.783 58.640,32.783 65.129,32.783 65.129,32.783 65.129,32.783 65.134,40.748 65.134,40.748 65.134,40.748 64.385,40.748 64.385,40.748 64.385,40.748 64.385,41.735 64.385,41.735 64.385,41.735 Z M 66.634,40.749 C 66.627,29.370 66.627,29.370 66.627,29.370 92.001,29.370 92.001,29.370 92.001,29.370 92.008,40.749 92.008,40.749 92.008,40.749 66.634,40.749 66.634,40.749 66.634,40.749 Z M 98.516,48.329 C 97.707,48.329 97.031,47.752 96.876,46.988 100.155,46.993 100.155,46.993 100.155,46.993 99.998,47.755 99.323,48.329 98.516,48.329 Z M 113.837,44.106 C 113.837,44.094 113.811,42.950 114.571,42.167 115.136,41.584 116.052,41.288 117.294,41.288 127.888,41.288 127.888,41.288 127.888,41.288 127.888,41.287 127.888,41.287 127.888,41.287 128.827,41.287 128.827,41.287 128.827,41.287 130.068,41.287 130.984,41.582 131.550,42.166 132.310,42.949 132.284,44.093 132.282,44.169 132.282,44.730 132.282,44.730 132.282,44.730 132.278,44.730 132.278,44.730 132.278,44.730 123.944,44.761 123.944,44.761 123.944,44.761 123.579,45.917 123.579,45.917 123.579,45.917 113.838,44.911 113.838,44.911 113.838,44.911 113.837,44.106 113.837,44.106 113.837,44.106 Z M 131.025,59.989 C 130.649,64.602 130.649,64.602 130.649,64.602 130.601,64.564 130.550,64.515 130.498,64.452 130.227,64.120 129.942,62.222 129.888,60.389 129.846,60.163 129.846,60.163 129.846,60.163 129.584,59.414 128.470,58.229 126.148,58.928 125.942,57.411 126.002,55.673 126.079,54.821 127.664,49.109 127.664,49.109 127.664,49.109 128.297,51.743 128.297,51.743 128.297,51.743 128.301,51.758 128.743,53.205 128.289,54.858 127.614,57.313 130.033,59.296 131.025,59.989 Z M 125.596,61.987 C 125.868,62.382 125.968,62.718 125.891,62.987 125.784,63.365 125.338,63.633 125.223,63.685 120.992,65.172 120.992,65.172 120.992,65.172 116.691,83.646 116.691,83.646 116.691,83.646 114.731,83.072 114.731,83.072 114.731,83.072 118.109,64.000 118.109,64.000 118.109,64.000 119.991,62.283 119.991,62.283 119.991,62.283 125.044,46.256 125.044,46.256 125.044,46.256 126.899,46.249 126.899,46.249 126.899,46.249 124.613,54.485 124.613,54.485 124.613,54.485 124.589,54.614 124.589,54.614 124.589,54.614 124.540,55.146 124.135,59.868 125.596,61.987 Z M 109.086,81.422 C 108.462,82.013 108.462,82.013 108.462,82.013 107.345,83.071 106.739,83.296 106.458,83.360 106.442,83.359 106.426,83.355 106.410,83.355 106.168,83.166 105.876,82.161 105.871,81.214 105.871,80.290 105.871,80.290 105.871,80.290 102.123,78.400 102.123,78.400 102.123,78.400 112.524,47.011 112.524,47.011 112.524,47.011 113.838,47.013 113.838,47.013 113.838,47.013 113.838,46.419 113.838,46.419 113.838,46.419 123.118,47.377 123.118,47.377 123.118,47.377 118.682,61.447 118.682,61.447 118.682,61.447 116.722,63.236 116.722,63.236 116.722,63.236 113.284,82.650 113.284,82.650 113.284,82.650 109.086,81.422 109.086,81.422 109.086,81.422 Z M 144.767,60.877 C 144.766,60.879 144.765,60.880 144.764,60.882 144.766,60.878 144.768,60.874 144.770,60.870 144.767,60.877 144.767,60.877 144.767,60.877 Z M 142.446,50.144 C 144.460,58.200 144.642,60.545 144.645,61.113 131.335,86.905 120.200,84.775 118.127,84.098 122.267,66.316 122.267,66.316 122.267,66.316 125.762,65.086 125.762,65.086 125.762,65.086 125.888,65.033 127.001,64.538 127.330,63.416 127.476,62.917 127.508,62.117 126.831,61.137 126.679,60.917 126.561,60.629 126.458,60.317 126.481,60.388 126.481,60.388 126.481,60.388 127.812,59.949 128.271,60.410 128.394,60.596 128.433,61.682 128.606,64.528 129.346,65.414 129.863,66.033 130.465,66.217 130.951,66.217 131.243,66.217 131.492,66.151 131.656,66.073 132.050,65.888 132.050,65.888 132.050,65.888 132.596,59.200 132.596,59.200 132.596,59.200 132.193,58.961 132.193,58.961 132.193,58.961 132.163,58.943 129.219,57.137 129.735,55.255 130.312,53.156 129.750,51.362 129.741,51.342 128.517,46.243 128.517,46.243 128.517,46.243 132.279,46.229 132.279,46.229 132.279,46.229 132.281,46.229 132.281,46.229 132.281,46.229 132.281,47.011 132.281,47.011 132.281,47.011 142.290,46.993 142.290,46.993 142.290,46.993 142.278,49.176 142.346,49.831 142.446,50.144 Z M 148.969,40.121 C 147.609,41.557 147.444,43.315 147.433,43.985 135.283,44.007 135.283,44.007 135.283,44.007 135.273,43.343 135.111,41.563 133.745,40.122 132.592,38.905 130.937,38.288 128.827,38.288 118.873,38.288 118.873,38.288 118.873,38.288 118.873,38.289 118.873,38.289 118.873,38.289 117.293,38.289 117.293,38.289 117.293,38.289 115.183,38.289 113.528,38.906 112.375,40.123 110.971,41.604 110.838,43.445 110.835,44.008 94.258,43.980 94.258,43.980 94.258,43.980 94.258,40.748 94.258,40.748 94.258,40.748 93.507,40.748 93.507,40.748 93.507,40.748 93.504,35.075 93.504,35.075 93.504,35.075 137.438,35.075 137.438,35.075 137.438,35.075 137.438,40.747 137.438,40.747 137.438,40.747 137.438,41.146 137.764,41.472 138.163,41.472 138.562,41.472 138.888,41.146 138.888,40.747 138.888,35.075 138.888,35.075 138.888,35.075 141.298,35.075 141.298,35.075 141.298,35.075 141.298,40.747 141.298,40.747 141.298,40.747 141.298,41.146 141.624,41.472 142.023,41.472 142.422,41.472 142.748,41.146 142.748,40.747 142.748,35.075 142.748,35.075 142.748,35.075 200.549,35.075 200.549,35.075 200.549,35.075 200.549,42.053 200.549,42.053 200.549,42.053 200.549,42.452 200.875,42.778 201.274,42.778 201.673,42.778 201.999,42.452 201.999,42.053 201.999,35.075 201.999,35.075 201.999,35.075 206.364,35.075 206.364,35.075 206.364,35.075 206.364,42.053 206.364,42.053 206.364,42.053 206.364,42.452 206.690,42.778 207.089,42.778 207.089,42.778 207.089,42.778 207.089,42.778 207.488,42.778 207.814,42.452 207.814,42.053 207.814,35.075 207.814,35.075 207.814,35.075 212.179,35.075 212.179,35.075 212.179,35.075 212.179,42.053 212.179,42.053 212.179,42.053 212.179,42.452 212.505,42.778 212.904,42.778 213.303,42.778 213.629,42.452 213.629,42.053 213.629,35.075 213.629,35.075 213.629,35.075 225.059,35.075 225.059,35.075 225.059,35.075 225.063,47.817 225.063,47.817 225.063,47.817 191.187,48.164 191.187,48.164 191.187,48.164 191.186,44.249 191.186,44.249 191.186,44.249 191.199,44.006 191.267,41.826 189.651,40.121 188.498,38.904 186.843,38.287 184.733,38.287 174.991,38.287 174.991,38.287 174.991,38.287 163.632,38.287 163.632,38.287 163.632,38.287 153.890,38.287 153.890,38.287 153.890,38.287 151.777,38.287 150.123,38.904 148.969,40.121 Z M 187.045,41.846 C 187.193,41.943 187.335,42.044 187.453,42.166 187.757,42.479 187.932,42.849 188.036,43.186 187.047,43.186 187.047,43.186 187.047,43.186 187.047,41.875 187.047,41.875 187.047,41.875 187.048,41.865 187.045,41.856 187.045,41.846 Z M 184.048,52.233 C 184.048,52.530 183.798,52.781 183.501,52.781 165.239,52.781 165.239,52.781 165.239,52.781 164.942,52.781 164.691,52.530 164.691,52.233 164.691,41.875 164.691,41.875 164.691,41.875 164.691,41.578 164.942,41.327 165.239,41.327 183.500,41.327 183.500,41.327 183.500,41.327 183.797,41.327 184.047,41.578 184.047,41.875 184.047,52.233 184.047,52.233 184.047,52.233 Z M 187.048,50.888 C 187.048,45.186 187.048,45.186 187.048,45.186 188.186,45.186 188.186,45.186 188.186,45.186 188.186,50.888 188.186,50.888 188.186,50.888 187.048,50.888 187.048,50.888 187.048,50.888 Z M 217.354,60.052 C 214.498,60.722 213.694,63.942 213.669,65.759 213.669,88.056 213.669,88.056 213.669,88.056 213.218,89.516 211.921,89.676 211.731,89.692 203.768,89.694 203.768,89.694 203.768,89.694 203.504,89.676 202.205,89.515 201.753,88.056 201.753,65.738 201.753,65.738 201.753,65.738 201.728,63.941 200.924,60.721 198.149,60.074 198.020,60.024 197.849,59.872 197.716,59.573 217.715,59.573 217.715,59.573 217.715,59.573 217.592,59.867 217.442,60.013 217.354,60.052 Z M 224.312,56.573 C 220.861,56.573 220.861,56.573 220.861,56.573 194.563,56.573 194.563,56.573 194.563,56.573 191.186,56.573 191.186,56.573 191.186,56.573 191.185,49.664 191.185,49.664 191.185,49.664 225.061,49.317 225.061,49.317 225.061,49.317 225.061,50.885 225.061,50.885 225.061,50.885 224.311,50.885 224.311,50.885 224.311,50.885 224.311,56.573 224.311,56.573 224.311,56.573 Z M 226.561,50.885 C 226.559,45.121 226.559,45.121 226.559,45.121 228.867,45.121 228.867,45.121 228.867,45.121 230.789,42.542 230.789,42.542 230.789,42.542 233.910,42.542 233.910,42.542 233.910,42.542 233.910,50.885 233.910,50.885 233.910,50.885 226.561,50.885 226.561,50.885 226.561,50.885 Z M 287.906,50.885 C 287.906,28.663 287.906,28.663 287.906,28.663 288.824,28.663 288.824,28.663 288.824,28.663 288.824,24.635 288.824,24.635 288.824,24.635 292.006,24.635 292.006,24.635 292.006,24.635 292.006,28.663 292.006,28.663 292.006,28.663 292.731,28.663 292.731,28.663 292.731,28.663 292.731,52.528 292.731,52.528 292.731,52.528 287.911,52.528 287.911,52.528 287.911,52.528 287.911,50.884 287.911,50.884 287.911,50.884 287.906,50.884 287.906,50.884 287.906,50.884 Z M 295.730,50.708 C 295.730,44.910 295.730,44.910 295.730,44.910 300.534,44.910 300.534,44.910 300.534,44.910 300.534,50.708 300.534,50.708 300.534,50.708 295.730,50.708 295.730,50.708 295.730,50.708 Z M 320.961,53.388 C 303.534,53.388 303.534,53.388 303.534,53.388 303.534,52.208 303.534,52.208 303.534,52.208 303.534,50.708 303.534,50.708 303.534,50.708 303.534,40.322 303.534,40.322 303.534,40.322 320.937,40.322 320.937,40.322 320.937,40.322 320.960,43.422 320.960,43.422 320.960,43.422 320.960,53.388 320.960,53.388 320.960,53.388 Z M 323.942,40.798 C 323.916,37.322 323.916,37.322 323.916,37.322 300.534,37.322 300.534,37.322 300.534,37.322 300.534,41.910 300.534,41.910 300.534,41.910 295.730,41.910 295.730,41.910 295.730,41.910 295.730,29.354 295.730,29.354 295.730,29.354 332.185,29.354 332.185,29.354 332.185,29.354 332.185,40.798 332.185,40.798 332.185,40.798 323.942,40.798 323.942,40.798 323.942,40.798 Z M 365.506,45.096 C 335.186,45.096 335.186,45.096 335.186,45.096 335.186,29.354 335.186,29.354 335.186,29.354 335.186,27.668 335.186,27.668 335.186,27.668 343.998,27.668 343.998,27.668 343.998,27.668 343.998,39.382 343.998,39.382 343.998,39.382 346.088,39.382 346.088,39.382 346.088,39.382 346.088,27.668 346.088,27.668 346.088,27.668 347.542,27.668 347.542,27.668 347.542,27.668 347.542,39.382 347.542,39.382 347.542,39.382 349.632,39.382 349.632,39.382 349.632,39.382 349.632,27.668 349.632,27.668 349.632,27.668 351.086,27.668 351.086,27.668 351.086,27.668 351.086,39.382 351.086,39.382 351.086,39.382 353.176,39.382 353.176,39.382 353.176,39.382 353.176,27.668 353.176,27.668 353.176,27.668 354.604,27.668 354.604,27.668 354.604,27.668 354.604,39.382 354.604,39.382 354.604,39.382 356.694,39.382 356.694,39.382 356.694,39.382 356.694,27.668 356.694,27.668 356.694,27.668 365.507,27.668 365.507,27.668 365.507,27.668 365.507,29.724 365.507,29.724 365.507,29.724 365.507,40.511 365.507,40.511 365.507,40.511 365.507,45.096 365.507,45.096 365.507,45.096 Z M 369.837,39.904 C 368.506,39.904 368.506,39.904 368.506,39.904 368.506,30.331 368.506,30.331 368.506,30.331 369.837,30.331 369.837,30.331 369.837,30.331 369.837,39.904 369.837,39.904 369.837,39.904 Z " />
  <path stroke="none" fill="#ffffffff" d="M 205.031,88.199 C 210.390,88.199 210.390,88.199 210.390,88.199 211.445,88.199 212.303,87.341 212.303,86.286 212.303,63.104 212.303,63.104 212.303,63.104 212.303,62.049 211.445,61.192 210.390,61.192 205.031,61.192 205.031,61.192 205.031,61.192 203.976,61.192 203.118,62.049 203.118,63.104 203.118,86.287 203.118,86.287 203.118,86.287 203.118,87.341 203.977,88.199 205.031,88.199 Z M 204.618,63.104 C 204.618,62.880 204.807,62.692 205.031,62.692 210.390,62.692 210.390,62.692 210.390,62.692 210.614,62.692 210.803,62.880 210.803,63.104 210.803,86.287 210.803,86.287 210.803,86.287 210.803,86.511 210.614,86.700 210.390,86.700 205.031,86.700 205.031,86.700 205.031,86.700 204.807,86.700 204.618,86.511 204.618,86.287 204.618,63.104 204.618,63.104 204.618,63.104 Z " />
  <path stroke="none" fill="#ffffffff" d="M 207.711,76.624 C 208.773,76.624 209.639,75.759 209.639,74.695 209.639,73.631 208.774,72.766 207.711,72.766 206.648,72.766 205.782,73.631 205.782,74.695 205.782,75.759 206.647,76.624 207.711,76.624 Z M 207.711,73.767 C 208.223,73.767 208.639,74.184 208.639,74.696 208.639,75.208 208.223,75.625 207.711,75.625 207.199,75.625 206.782,75.208 206.782,74.696 206.782,74.184 207.199,73.767 207.711,73.767 Z " />
  <path stroke="none" fill="#ffffffff" d="M 119.653,51.356 C 120.716,51.356 121.582,50.491 121.582,49.428 121.582,48.365 120.717,47.499 119.653,47.499 118.590,47.499 117.725,48.364 117.725,49.428 117.725,50.491 118.590,51.356 119.653,51.356 Z M 119.653,48.500 C 120.165,48.500 120.582,48.917 120.582,49.429 120.582,49.941 120.165,50.357 119.653,50.357 119.141,50.357 118.725,49.941 118.725,49.429 118.725,48.917 119.141,48.500 119.653,48.500 Z " />
  <path stroke="none" fill="#ffffffff" d="M 108.696,36.053 C 107.910,36.053 107.271,36.692 107.271,37.478 107.271,38.264 107.910,38.903 108.696,38.903 109.482,38.903 110.121,38.264 110.121,37.478 110.121,36.692 109.481,36.053 108.696,36.053 Z M 108.696,37.902 C 108.462,37.902 108.271,37.712 108.271,37.477 108.271,37.242 108.461,37.052 108.696,37.052 108.931,37.052 109.121,37.242 109.121,37.477 109.121,37.712 108.930,37.902 108.696,37.902 Z " />
  <path stroke="none" fill="#ffffffff" d="M 145.141,36.053 C 144.355,36.053 143.716,36.692 143.716,37.478 143.716,38.264 144.355,38.903 145.141,38.903 145.927,38.903 146.566,38.264 146.566,37.478 146.566,36.692 145.926,36.053 145.141,36.053 Z M 145.141,37.902 C 144.907,37.902 144.716,37.712 144.716,37.477 144.716,37.242 144.906,37.052 145.141,37.052 145.376,37.052 145.566,37.242 145.566,37.477 145.566,37.712 145.375,37.902 145.141,37.902 Z " />
  <path stroke="none" fill="#ffffffff" d="M 193.478,38.902 C 194.263,38.902 194.903,38.263 194.903,37.477 194.903,36.691 194.263,36.052 193.478,36.052 192.692,36.052 192.053,36.691 192.053,37.477 192.053,38.263 192.692,38.902 193.478,38.902 Z M 193.478,37.053 C 193.712,37.053 193.903,37.243 193.903,37.478 193.903,37.713 193.713,37.903 193.478,37.903 193.243,37.903 193.053,37.713 193.053,37.478 193.053,37.243 193.243,37.053 193.478,37.053 Z " />
  <path stroke="none" fill="#ffffffff" d="M 231.702,43.118 C 230.917,43.118 230.277,43.757 230.277,44.543 230.277,45.329 230.917,45.968 231.702,45.968 232.487,45.968 233.127,45.329 233.127,44.543 233.127,43.757 232.487,43.118 231.702,43.118 Z M 231.702,44.967 C 231.468,44.967 231.277,44.777 231.277,44.542 231.277,44.307 231.467,44.117 231.702,44.117 231.937,44.117 232.127,44.307 232.127,44.542 232.127,44.777 231.937,44.967 231.702,44.967 Z " />
  <path stroke="none" fill="#ffffffff" d="M 212.726,50.893 C 211.804,50.893 211.054,51.643 211.054,52.566 211.054,53.488 211.804,54.238 212.726,54.238 213.649,54.238 214.399,53.488 214.399,52.566 214.398,51.643 213.648,50.893 212.726,50.893 Z M 212.726,53.237 C 212.356,53.237 212.054,52.935 212.054,52.565 212.054,52.194 212.356,51.892 212.726,51.892 213.097,51.892 213.399,52.194 213.399,52.565 213.398,52.936 213.097,53.237 212.726,53.237 Z " />
  <path stroke="none" fill="#ffffffff" d="M 199.590,50.396 C 198.051,50.396 196.798,51.649 196.798,53.188 196.798,54.727 198.051,55.980 199.590,55.980 201.129,55.980 202.382,54.727 202.382,53.188 202.382,51.649 201.129,50.396 199.590,50.396 Z M 199.590,54.480 C 198.877,54.480 198.298,53.901 198.298,53.188 198.298,52.475 198.877,51.896 199.590,51.896 200.303,51.896 200.882,52.475 200.882,53.188 200.882,53.901 200.303,54.480 199.590,54.480 Z " />
  <path stroke="none" fill="#ffffffff" d="M 192.417,43.712 C 192.417,45.251 193.670,46.504 195.209,46.504 196.748,46.504 198.001,45.252 198.001,43.712 198.001,42.172 196.748,40.920 195.209,40.920 193.670,40.920 192.417,42.172 192.417,43.712 Z M 195.209,42.420 C 195.922,42.420 196.501,43.000 196.501,43.712 196.501,44.424 195.922,45.004 195.209,45.004 194.496,45.004 193.917,44.424 193.917,43.712 193.917,43.000 194.496,42.420 195.209,42.420 Z " />
  <path stroke="none" fill="#ffffffff" d="M 219.157,46.217 C 221.665,46.217 223.705,44.177 223.705,41.670 223.705,39.162 221.665,37.122 219.157,37.122 216.650,37.122 214.610,39.162 214.610,41.670 214.610,44.177 216.650,46.217 219.157,46.217 Z M 219.157,38.622 C 220.838,38.622 222.205,39.989 222.205,41.670 222.205,43.350 220.838,44.717 219.157,44.717 217.477,44.717 216.110,43.350 216.110,41.670 216.110,39.989 217.478,38.622 219.157,38.622 Z " />
  <path stroke="none" fill="#ffffffff" d="M 97.294,36.053 C 96.508,36.053 95.869,36.692 95.869,37.478 95.869,38.264 96.508,38.903 97.294,38.903 98.080,38.903 98.719,38.264 98.719,37.478 98.719,36.692 98.080,36.053 97.294,36.053 Z M 97.294,37.902 C 97.060,37.902 96.869,37.712 96.869,37.477 96.869,37.242 97.060,37.052 97.294,37.052 97.528,37.052 97.719,37.242 97.719,37.477 97.719,37.712 97.529,37.902 97.294,37.902 Z " />
  <path stroke="none" fill="#ffffffff" d="M 108.618,76.441 C 107.555,76.441 106.689,77.306 106.689,78.369 106.689,79.432 107.554,80.298 108.618,80.298 109.681,80.298 110.546,79.433 110.546,78.369 110.546,77.307 109.681,76.441 108.618,76.441 Z M 108.618,79.298 C 108.106,79.298 107.689,78.881 107.689,78.369 107.689,77.857 108.106,77.441 108.618,77.441 109.130,77.441 109.546,77.857 109.546,78.369 109.546,78.881 109.130,79.298 108.618,79.298 Z " />
  <path stroke="none" fill="#ffffffff" d="M 245.994,33.070 C 238.148,33.070 238.148,33.070 238.148,33.070 236.972,33.070 236.016,34.027 236.016,35.202 236.016,36.378 236.972,37.334 238.148,37.334 245.994,37.334 245.994,37.334 245.994,37.334 247.170,37.334 248.126,36.377 248.126,35.202 248.126,34.027 247.170,33.070 245.994,33.070 Z M 245.994,35.834 C 238.148,35.834 238.148,35.834 238.148,35.834 237.799,35.834 237.516,35.550 237.516,35.202 237.516,34.854 237.799,34.570 238.148,34.570 245.994,34.570 245.994,34.570 245.994,34.570 246.343,34.570 246.626,34.853 246.626,35.202 246.626,35.551 246.343,35.834 245.994,35.834 Z " />
  <path stroke="none" fill="#ffffffff" d="M 316.532,41.034 C 307.001,41.034 307.001,41.034 307.001,41.034 306.716,41.034 306.483,41.267 306.483,41.552 306.483,41.837 306.716,42.070 307.001,42.070 316.532,42.070 316.532,42.070 316.532,42.070 316.817,42.070 317.050,41.837 317.050,41.552 317.051,41.267 316.817,41.034 316.532,41.034 Z " />
  <path stroke="none" fill="#ffffffff" d="M 179.135,42.647 C 169.604,42.647 169.604,42.647 169.604,42.647 169.319,42.647 169.086,42.880 169.086,43.165 169.086,43.450 169.319,43.683 169.604,43.683 179.135,43.683 179.135,43.683 179.135,43.683 179.420,43.683 179.653,43.450 179.653,43.165 179.653,42.880 179.420,42.647 179.135,42.647 Z " />
  <path stroke="none" fill="#ffffffff" d="M 179.135,44.472 C 169.604,44.472 169.604,44.472 169.604,44.472 169.319,44.472 169.086,44.705 169.086,44.990 169.086,45.275 169.319,45.508 169.604,45.508 179.135,45.508 179.135,45.508 179.135,45.508 179.420,45.508 179.653,45.275 179.653,44.990 179.653,44.705 179.420,44.472 179.135,44.472 Z " />
  <path stroke="none" fill="#ffffffff" d="M 316.532,43.056 C 307.001,43.056 307.001,43.056 307.001,43.056 306.716,43.056 306.483,43.289 306.483,43.574 306.483,43.859 306.716,44.092 307.001,44.092 316.532,44.092 316.532,44.092 316.532,44.092 316.817,44.092 317.050,43.859 317.050,43.574 317.051,43.289 316.817,43.056 316.532,43.056 Z " />
  <path stroke="none" fill="#ffffffff" d="M 316.532,45.079 C 307.001,45.079 307.001,45.079 307.001,45.079 306.716,45.079 306.483,45.312 306.483,45.597 306.483,45.882 306.716,46.115 307.001,46.115 316.532,46.115 316.532,46.115 316.532,46.115 316.817,46.115 317.050,45.882 317.050,45.597 317.050,45.312 316.817,45.079 316.532,45.079 Z " />
</svg>