<?xml version="1.0" encoding="UTF-8" standalone="no"?>
<!DOCTYPE svg PUBLIC "-//W3C//DTD SVG 20010904//EN" "http://www.w3.org/TR/2001/REC-SVG-20010904/DTD/svg10.dtd"[]>
<svg version="1.1" id="Frosty Editor v1.0.6.3" xmlns="http://www.w3.org/2000/svg" d1p1:xlink="http://www.w3.org/1999/xlink" viewBox="0 0 25 25" xmlns:d1p1="xmlns">
  <path stroke="none" fill="#ffffffff" d="M 12.628,1.906 C 6.053,2.131 4.180,7.191 4.702,12.994 5.512,13.219 6.665,21.863 8.118,22.702 9.619,23.349 11.025,23.436 12.628,23.496 14.232,23.436 15.638,23.349 17.139,22.702 18.592,21.863 19.744,13.219 20.554,12.994 21.076,7.191 19.204,2.131 12.628,1.906 Z M 12.628,10.184 C 15.099,10.245 17.079,12.213 17.157,14.679 14.905,14.679 14.905,14.679 14.905,14.679 14.830,13.460 13.852,12.493 12.628,12.434 11.405,12.493 10.427,13.460 10.352,14.679 8.099,14.679 8.099,14.679 8.099,14.679 8.178,12.213 10.158,10.245 12.628,10.184 Z M 8.131,15.400 C 10.414,15.400 10.414,15.400 10.414,15.400 10.660,16.416 11.548,17.176 12.628,17.228 13.709,17.176 14.597,16.416 14.842,15.400 17.125,15.400 17.125,15.400 17.125,15.400 16.851,17.667 14.957,19.420 12.628,19.478 10.299,19.420 8.406,17.667 8.131,15.400 Z " />
</svg>