<?xml version="1.0" encoding="UTF-8" standalone="no"?>
<!DOCTYPE svg PUBLIC "-//W3C//DTD SVG 20010904//EN" "http://www.w3.org/TR/2001/REC-SVG-20010904/DTD/svg10.dtd"[]>
<svg version="1.1" id="Frosty Editor v1.0.6.3" xmlns="http://www.w3.org/2000/svg" d1p1:xlink="http://www.w3.org/1999/xlink" viewBox="0 0 25 25" xmlns:d1p1="xmlns">
  <path stroke="none" fill="#ffffffff" d="M 13.992,3.741 C 13.286,5.169 12.581,6.596 11.875,8.024 12.126,8.037 12.376,8.110 12.595,8.232 13.019,8.443 13.313,8.883 13.355,9.354 13.845,9.056 14.529,9.092 14.962,9.478 15.127,9.632 15.272,9.810 15.376,10.012 15.596,10.408 15.595,10.921 15.356,11.309 15.775,11.343 16.162,11.588 16.405,11.927 16.604,12.183 16.725,12.499 16.742,12.824 16.762,13.221 16.636,13.639 16.350,13.923 16.339,13.947 16.245,13.997 16.301,13.996 16.783,14.037 17.202,14.385 17.397,14.818 17.630,15.266 17.601,15.854 17.277,16.252 17.196,16.333 17.112,16.410 17.026,16.486 18.208,16.732 19.391,16.978 20.573,17.224 19.362,16.046 18.151,14.868 16.940,13.690 18.490,12.989 20.040,12.289 21.591,11.588 19.918,11.337 18.245,11.085 16.573,10.834 17.394,9.364 18.214,7.893 19.035,6.422 17.545,7.205 16.055,7.987 14.565,8.770 14.374,7.094 14.183,5.417 13.992,3.741 Z M 8.302,4.580 C 8.590,6.198 8.879,7.815 9.167,9.433 9.305,9.433 9.443,9.447 9.577,9.477 9.851,9.246 10.125,9.015 10.398,8.784 10.670,8.574 10.901,8.306 11.211,8.149 11.304,8.105 11.401,8.073 11.500,8.052 10.434,6.895 9.368,5.737 8.302,4.580 Z M 4.185,8.549 C 4.948,9.335 5.710,10.120 6.473,10.906 6.560,10.830 6.649,10.757 6.739,10.685 7.221,10.312 7.729,9.972 8.264,9.681 8.430,9.578 8.615,9.508 8.807,9.469 7.266,9.162 5.726,8.856 4.185,8.549 Z M 11.801,8.567 C 11.612,8.567 11.437,8.625 11.336,8.713 10.928,9.057 10.520,9.401 10.112,9.746 10.739,10.032 11.365,10.319 11.991,10.605 12.199,10.406 12.408,10.207 12.617,10.008 12.777,9.819 12.835,9.586 12.806,9.382 12.777,9.135 12.631,8.902 12.413,8.756 12.165,8.610 11.947,8.567 11.801,8.567 Z M 14.073,9.702 C 13.883,9.702 13.694,9.775 13.548,9.892 13.136,10.202 12.723,10.513 12.311,10.823 12.432,10.906 12.554,10.989 12.675,11.071 13.374,11.508 13.126,12.411 12.821,12.818 13.112,12.576 13.403,12.333 13.694,12.090 13.898,11.930 14.116,11.726 14.306,11.566 14.451,11.435 14.611,11.319 14.641,11.275 14.830,11.144 14.961,10.955 14.990,10.736 14.990,10.707 14.990,10.707 14.990,10.707 14.990,10.678 14.990,10.678 14.990,10.678 14.990,10.416 14.873,10.183 14.699,9.994 14.684,9.979 14.684,9.979 14.670,9.964 14.524,9.790 14.305,9.702 14.073,9.702 Z M 9.137,9.979 C 8.977,9.979 8.846,10.008 8.715,10.067 7.885,10.460 6.429,11.508 6.254,11.974 6.123,12.338 6.138,13.663 6.196,15.672 6.225,16.444 6.225,16.691 6.225,16.764 5.730,17.501 5.235,18.239 4.740,18.977 6.284,19.914 7.827,20.850 9.370,21.787 9.913,21.102 10.457,20.418 11.001,19.734 11.059,19.720 11.132,19.705 11.205,19.690 11.670,19.617 12.136,19.487 12.587,19.312 13.126,19.108 13.781,18.671 14.233,18.336 14.383,18.229 14.534,18.123 14.684,18.016 14.509,17.953 14.335,17.890 14.160,17.827 13.781,17.769 13.534,17.608 13.417,17.434 13.141,17.041 13.228,16.531 13.301,16.269 13.330,16.167 13.359,16.065 13.389,15.963 13.287,15.944 13.185,15.924 13.083,15.905 12.660,15.817 12.282,15.584 12.035,15.235 11.772,14.856 11.714,14.362 11.874,13.925 11.908,13.833 11.942,13.740 11.976,13.648 11.889,13.614 11.801,13.580 11.714,13.546 10.709,13.153 9.952,12.818 9.778,12.687 9.574,12.527 9.603,12.265 9.647,12.149 9.996,12.309 10.753,12.643 11.175,12.804 11.408,12.891 11.612,12.935 11.787,12.935 12.282,12.935 12.486,12.585 12.559,12.483 12.704,12.265 12.748,11.988 12.675,11.712 12.602,11.464 12.427,11.260 12.194,11.144 11.729,10.911 10.884,10.547 10.549,10.401 10.040,10.183 9.544,9.979 9.137,9.979 Z M 15.223,11.857 C 15.019,11.872 14.815,11.945 14.670,12.061 14.005,12.595 13.340,13.129 12.675,13.662 12.151,14.085 12.093,14.521 12.471,15.017 12.762,15.381 13.068,15.454 13.272,15.454 13.548,15.454 13.782,15.323 13.913,15.206 14.563,14.682 15.213,14.158 15.864,13.634 16.271,13.299 16.315,12.687 15.936,12.221 15.805,12.032 15.587,11.901 15.354,11.857 15.325,11.857 15.325,11.857 15.325,11.857 Z M 16.184,14.536 C 16.009,14.536 15.849,14.595 15.703,14.711 15.140,15.158 14.577,15.604 14.014,16.050 13.825,16.181 13.694,16.371 13.636,16.589 13.631,16.599 13.626,16.609 13.621,16.618 13.621,16.647 13.621,16.647 13.621,16.647 13.621,16.851 13.694,17.055 13.840,17.201 14.087,17.492 14.335,17.550 14.509,17.550 14.699,17.550 14.888,17.477 15.078,17.346 15.626,16.909 16.174,16.473 16.722,16.036 16.868,15.919 16.970,15.745 16.999,15.570 16.999,15.555 16.999,15.555 16.999,15.555 17.014,15.308 16.941,15.060 16.781,14.857 16.650,14.667 16.431,14.551 16.198,14.536 Z M 15.836,17.446 C 15.741,17.522 15.647,17.599 15.550,17.674 15.525,17.698 15.460,17.723 15.528,17.737 15.653,17.820 15.624,18.012 15.519,18.098 15.108,18.383 14.706,18.682 14.295,18.966 15.015,19.709 15.736,20.451 16.456,21.193 16.249,19.944 16.043,18.695 15.836,17.446 Z " />
</svg>