<?xml version="1.0" encoding="UTF-8" standalone="no"?>
<!DOCTYPE svg PUBLIC "-//W3C//DTD SVG 20010904//EN" "http://www.w3.org/TR/2001/REC-SVG-20010904/DTD/svg10.dtd"[]>
<svg version="1.1" id="Frosty Editor v1.0.6.3" xmlns="http://www.w3.org/2000/svg" d1p1:xlink="http://www.w3.org/1999/xlink" viewBox="0 0 101 25" xmlns:d1p1="xmlns">
  <path stroke="none" fill="#ffffffff" d="M 26.691,4.692 C 25.671,4.692 25.109,4.711 25.109,4.744 25.109,4.773 25.084,4.796 25.053,4.796 24.928,4.796 24.833,4.977 24.779,5.319 24.741,5.562 24.702,5.672 24.660,5.656 24.626,5.642 24.508,5.617 24.399,5.600 24.290,5.582 24.050,5.536 23.864,5.497 23.679,5.458 23.375,5.399 23.190,5.366 22.741,5.287 22.455,5.233 22.049,5.150 21.807,5.100 21.194,5.081 19.858,5.081 18.410,5.081 18.004,5.067 18.004,5.016 18.004,4.966 17.674,4.951 16.526,4.951 15.661,4.951 15.048,4.971 15.048,4.999 15.048,5.025 14.979,5.062 14.893,5.081 14.807,5.100 14.737,5.137 14.737,5.163 14.737,5.189 14.702,5.211 14.660,5.211 14.617,5.211 14.582,5.246 14.582,5.289 14.582,5.332 14.558,5.366 14.530,5.366 14.501,5.366 14.478,5.401 14.478,5.444 14.478,5.487 14.445,5.522 14.404,5.522 14.355,5.522 14.314,5.608 14.287,5.768 14.242,6.031 14.227,11.130 14.271,11.304 14.295,11.400 14.267,11.409 13.912,11.423 13.528,11.439 13.528,11.439 13.528,11.439 13.560,13.316 13.560,13.316 13.560,13.316 13.597,15.510 13.689,17.653 13.758,17.927 13.801,18.096 13.830,18.123 14.000,18.151 14.106,18.169 14.221,18.192 14.255,18.203 14.317,18.222 14.530,18.640 14.530,18.743 14.530,18.773 14.565,18.797 14.608,18.797 14.650,18.797 14.685,18.817 14.685,18.841 14.685,18.865 14.808,18.914 14.958,18.949 15.337,19.038 17.960,19.008 17.991,18.914 18.003,18.878 18.046,18.850 18.086,18.850 18.127,18.850 18.160,18.826 18.160,18.797 18.160,18.769 18.207,18.746 18.264,18.746 18.321,18.746 18.367,18.722 18.367,18.694 18.367,18.665 18.402,18.642 18.445,18.642 18.488,18.642 18.523,18.619 18.523,18.590 18.523,18.562 18.558,18.539 18.601,18.539 18.643,18.539 18.678,18.515 18.678,18.487 18.678,18.458 18.712,18.435 18.752,18.435 18.792,18.435 18.835,18.406 18.846,18.371 18.861,18.326 19.163,18.297 19.901,18.270 20.469,18.249 21.074,18.223 21.245,18.213 21.543,18.194 21.997,18.039 21.997,17.956 21.997,17.934 22.033,17.916 22.075,17.916 22.118,17.916 22.153,17.890 22.153,17.858 22.153,17.825 22.238,17.719 22.342,17.621 22.531,17.442 22.531,17.442 22.531,17.442 22.557,16.689 22.557,16.689 22.557,16.689 22.587,15.798 22.547,15.842 23.336,15.842 23.612,15.842 24.328,15.818 24.927,15.789 25.992,15.736 26.561,15.662 26.561,15.574 26.561,15.550 26.586,15.530 26.616,15.530 26.686,15.530 26.820,15.400 26.820,15.331 26.820,15.303 26.846,15.271 26.879,15.260 26.915,15.248 26.953,14.981 26.979,14.544 27.045,13.461 27.081,13.197 27.163,13.197 27.203,13.197 27.235,13.172 27.235,13.141 27.235,13.070 27.367,12.938 27.439,12.938 27.470,12.938 27.494,12.903 27.494,12.860 27.494,12.817 27.529,12.782 27.572,12.782 27.615,12.782 27.650,12.762 27.650,12.737 27.650,12.581 28.135,12.571 35.388,12.586 42.615,12.600 42.685,12.602 42.762,12.705 42.805,12.762 42.854,12.872 42.872,12.951 42.890,13.029 42.930,13.093 42.960,13.093 43.037,13.093 42.973,14.019 42.872,14.390 42.829,14.547 42.794,14.733 42.793,14.804 42.793,14.876 42.758,14.999 42.717,15.078 42.675,15.158 42.601,15.368 42.552,15.545 42.453,15.903 42.418,15.943 42.205,15.944 42.018,15.945 41.949,16.020 41.865,16.309 41.827,16.437 41.778,16.565 41.756,16.594 41.734,16.622 41.676,16.786 41.627,16.957 41.578,17.128 41.520,17.291 41.497,17.320 41.475,17.348 41.419,17.503 41.374,17.663 41.328,17.823 41.255,18.021 41.212,18.103 41.054,18.407 41.134,19.005 41.332,19.005 41.362,19.005 41.391,19.267 41.401,19.636 41.414,20.082 41.437,20.273 41.483,20.289 41.519,20.300 41.548,20.343 41.548,20.383 41.548,20.424 41.583,20.457 41.626,20.457 41.669,20.457 41.704,20.492 41.704,20.535 41.704,20.578 41.738,20.613 41.781,20.613 41.824,20.613 41.859,20.636 41.859,20.665 41.859,20.693 41.894,20.717 41.937,20.717 41.980,20.717 42.014,20.734 42.014,20.756 42.014,20.797 42.392,20.976 42.477,20.976 42.503,20.976 42.532,20.995 42.542,21.018 42.568,21.082 43.554,21.355 43.908,21.396 44.289,21.441 44.990,21.402 45.014,21.336 45.023,21.309 45.076,21.287 45.131,21.287 45.185,21.287 45.230,21.263 45.230,21.235 45.230,21.206 45.265,21.183 45.307,21.183 45.350,21.183 45.386,21.160 45.386,21.131 45.386,21.103 45.420,21.080 45.463,21.080 45.506,21.080 45.541,21.053 45.541,21.021 45.541,20.989 45.623,20.885 45.723,20.791 45.822,20.697 45.904,20.583 45.904,20.539 45.904,20.494 45.927,20.457 45.956,20.457 46.034,20.457 46.025,19.279 45.946,19.253 45.910,19.241 45.875,19.093 45.863,18.898 45.845,18.618 45.882,18.424 46.089,17.683 46.225,17.198 46.353,16.789 46.373,16.775 46.393,16.761 46.447,16.618 46.493,16.458 46.539,16.298 46.612,16.100 46.655,16.018 46.698,15.935 46.733,15.838 46.733,15.803 46.734,15.767 46.757,15.738 46.786,15.738 46.814,15.738 46.838,15.703 46.838,15.660 46.838,15.617 46.861,15.583 46.889,15.583 46.918,15.583 46.941,15.548 46.941,15.507 46.941,15.382 47.307,15.314 47.678,15.369 48.321,15.465 48.859,15.484 49.387,15.430 49.939,15.372 50.934,15.131 50.934,15.055 50.934,15.031 50.969,15.012 51.012,15.012 51.055,15.012 51.090,14.989 51.090,14.960 51.090,14.932 51.125,14.908 51.168,14.908 51.210,14.908 51.246,14.885 51.246,14.857 51.246,14.828 51.281,14.804 51.323,14.804 51.366,14.804 51.401,14.770 51.401,14.727 51.401,14.684 51.436,14.649 51.479,14.649 51.522,14.649 51.559,14.620 51.561,14.584 51.564,14.532 51.570,14.532 51.591,14.584 51.605,14.620 51.650,14.649 51.691,14.649 51.731,14.649 51.764,14.670 51.764,14.695 51.764,14.720 51.816,14.752 51.881,14.766 51.945,14.780 52.266,14.869 52.594,14.964 53.173,15.133 53.218,15.138 54.150,15.139 54.947,15.140 55.166,15.124 55.446,15.042 55.631,14.987 55.795,14.927 55.809,14.910 55.823,14.892 55.975,14.809 56.146,14.725 56.317,14.640 56.465,14.554 56.475,14.533 56.484,14.511 56.525,14.494 56.565,14.494 56.606,14.494 56.639,14.470 56.639,14.441 56.639,14.413 56.674,14.390 56.717,14.390 56.760,14.390 56.794,14.372 56.794,14.350 56.794,14.309 57.173,14.131 57.262,14.131 57.290,14.131 57.313,14.110 57.313,14.084 57.313,14.058 57.429,14.009 57.572,13.975 57.715,13.941 57.831,13.897 57.831,13.879 57.831,13.860 57.907,13.813 58.000,13.774 58.093,13.735 58.257,13.660 58.365,13.606 58.472,13.552 58.595,13.508 58.637,13.508 58.679,13.508 58.713,13.490 58.713,13.467 58.713,13.354 59.318,13.295 61.306,13.214 63.859,13.110 67.099,13.090 67.155,13.177 67.175,13.209 67.250,13.253 67.321,13.275 67.393,13.297 67.463,13.330 67.477,13.349 67.491,13.368 67.586,13.422 67.687,13.469 67.977,13.604 68.700,13.630 69.629,13.539 70.085,13.494 70.657,13.456 70.900,13.456 71.276,13.456 71.382,13.435 71.627,13.313 71.846,13.204 72.005,13.167 72.301,13.154 72.671,13.139 72.974,13.060 72.974,12.979 72.974,12.928 73.146,12.994 73.191,13.061 73.231,13.120 74.414,13.126 81.207,13.106 85.004,13.095 85.524,13.084 85.524,13.015 85.524,12.973 85.544,12.938 85.568,12.938 85.592,12.938 85.634,12.862 85.661,12.769 85.709,12.601 85.709,12.601 85.709,12.601 86.211,12.586 86.211,12.586 86.211,12.586 86.713,12.571 86.713,12.571 86.713,12.571 86.766,12.378 86.766,12.378 86.766,12.378 86.796,12.272 86.820,11.648 86.820,10.980 86.820,10.156 86.838,9.775 86.876,9.775 86.912,9.775 86.926,9.623 86.915,9.331 86.898,8.887 86.898,8.887 86.898,8.887 87.118,8.832 87.118,8.832 87.118,8.832 87.239,8.802 87.339,8.756 87.339,8.731 87.339,8.706 87.386,8.685 87.443,8.685 87.500,8.685 87.546,8.651 87.546,8.607 87.546,8.565 87.569,8.530 87.598,8.530 87.654,8.530 87.671,7.445 87.617,7.246 87.600,7.182 87.554,7.129 87.514,7.129 87.475,7.129 87.443,7.107 87.443,7.080 87.443,7.053 87.302,7.001 87.131,6.965 86.820,6.901 86.820,6.901 86.820,6.901 86.820,6.147 86.820,6.147 86.820,6.147 86.819,5.732 86.806,5.344 86.790,5.284 86.765,5.192 86.696,5.168 86.305,5.116 85.662,5.030 85.180,5.036 85.144,5.129 85.119,5.193 85.078,5.193 84.840,5.127 84.679,5.083 84.102,5.029 83.457,4.999 82.444,4.950 82.345,4.953 82.286,5.033 82.232,5.107 82.145,5.117 81.692,5.098 81.399,5.087 81.146,5.053 81.126,5.022 81.071,4.938 78.900,4.884 78.872,4.966 78.842,5.058 77.746,5.089 77.691,5.000 77.629,4.899 75.843,4.818 75.437,4.897 75.209,4.941 75.084,4.943 74.976,4.902 74.881,4.866 74.636,4.858 74.290,4.880 73.900,4.905 73.752,4.898 73.752,4.855 73.752,4.815 73.615,4.796 73.337,4.796 73.095,4.796 72.922,4.774 72.922,4.744 72.922,4.713 72.723,4.692 72.428,4.692 72.036,4.692 71.927,4.708 71.904,4.770 71.867,4.864 71.746,4.873 71.716,4.783 71.701,4.738 71.520,4.713 71.116,4.701 70.592,4.685 70.537,4.692 70.537,4.774 70.537,4.860 70.255,4.863 65.027,4.829 61.996,4.809 59.441,4.808 59.348,4.827 59.256,4.846 59.180,4.893 59.180,4.932 59.180,4.972 59.151,5.008 59.115,5.014 59.079,5.020 56.565,5.030 53.527,5.035 45.058,5.050 38.839,5.119 38.813,5.198 38.783,5.288 38.090,5.288 38.060,5.198 38.029,5.104 35.940,5.104 35.909,5.198 35.894,5.242 35.764,5.263 35.502,5.263 35.195,5.263 35.117,5.247 35.117,5.185 35.117,5.072 33.486,5.072 33.116,5.184 32.830,5.271 32.162,5.290 32.162,5.211 32.162,5.179 31.493,5.155 30.335,5.147 28.510,5.133 28.510,5.133 28.510,5.133 28.461,4.964 28.461,4.964 28.461,4.964 28.435,4.872 28.381,4.796 28.342,4.796 28.304,4.796 28.272,4.773 28.272,4.744 28.272,4.711 27.711,4.692 26.691,4.692 Z M 26.707,5.366 C 27.570,5.366 27.752,5.380 27.806,5.446 27.853,5.502 27.884,5.907 27.914,6.833 27.937,7.552 27.983,8.269 28.017,8.426 28.092,8.771 28.347,9.165 28.617,9.351 28.817,9.489 28.817,9.489 28.817,9.489 36.800,9.515 36.800,9.515 36.800,9.515 44.783,9.541 44.783,9.541 44.783,9.541 44.889,9.721 44.889,9.721 44.889,9.721 44.975,9.869 44.997,10.017 45.014,10.562 45.041,11.428 45.005,11.669 44.827,11.785 44.699,11.869 44.127,11.876 36.006,11.900 29.123,11.921 27.317,11.940 27.300,11.991 27.288,12.027 27.245,12.056 27.205,12.056 27.164,12.056 27.131,12.079 27.131,12.108 27.131,12.136 27.105,12.160 27.073,12.160 27.040,12.160 26.937,12.242 26.843,12.342 26.749,12.441 26.647,12.523 26.616,12.523 26.586,12.523 26.561,12.558 26.561,12.601 26.561,12.644 26.538,12.679 26.511,12.679 26.436,12.679 26.384,13.068 26.321,14.104 26.284,14.716 26.189,14.960 25.987,14.960 25.932,14.960 25.887,14.981 25.887,15.007 25.887,15.060 25.138,15.102 23.451,15.144 22.810,15.159 22.273,15.193 22.258,15.218 22.242,15.243 22.168,15.279 22.093,15.298 21.906,15.345 21.842,15.621 21.842,16.383 21.842,16.748 21.822,16.982 21.790,16.982 21.761,16.982 21.738,17.013 21.738,17.051 21.738,17.088 21.674,17.179 21.595,17.252 21.313,17.515 21.175,17.541 19.881,17.577 19.147,17.597 18.618,17.634 18.533,17.670 18.456,17.704 18.228,17.840 18.025,17.972 17.823,18.104 17.580,18.238 17.486,18.271 17.267,18.347 15.599,18.344 15.386,18.267 15.301,18.236 15.208,18.184 15.179,18.152 15.081,18.043 14.739,17.769 14.848,17.772 14.883,17.773 14.965,17.777 15.031,17.781 15.074,17.783 15.141,17.770 15.216,17.802 15.245,17.814 15.278,17.829 15.314,17.847 15.623,17.997 15.658,18.009 16.493,18.037 17.355,18.065 17.355,18.065 17.355,18.065 17.821,17.769 17.821,17.769 17.821,17.769 18.647,17.243 18.582,17.259 20.011,17.227 21.629,17.190 21.609,17.457 21.683,16.231 21.712,15.746 21.761,14.677 21.793,13.854 21.848,12.428 21.846,12.355 21.755,12.287 21.676,12.227 21.033,12.215 17.940,12.214 15.495,12.212 14.219,12.194 14.219,12.160 14.219,11.993 14.170,12.010 14.743,12.010 15.108,12.010 15.252,12.010 15.360,12.007 15.605,12.002 15.751,12.001 16.565,12.005 17.228,12.008 18.844,12.009 20.156,12.007 22.542,12.003 22.542,12.003 22.542,12.003 22.805,11.757 22.805,11.757 22.805,11.757 22.949,11.622 23.241,11.352 23.453,11.156 24.516,10.175 24.964,9.704 25.213,9.307 25.472,8.894 25.472,8.894 25.472,8.894 25.472,7.184 25.472,7.184 25.472,7.184 25.472,5.546 25.476,5.472 25.572,5.420 25.631,5.388 26.093,5.366 26.707,5.366 Z M 71.267,5.493 C 71.363,5.492 71.327,12.593 71.275,12.595 71.238,12.598 71.096,12.610 71.043,12.608 70.912,12.602 71.003,12.535 71.003,9.151 71.003,5.857 70.960,5.511 70.999,5.506 71.049,5.501 71.084,5.505 71.106,5.504 71.126,5.503 71.215,5.493 71.267,5.493 Z M 72.501,5.516 C 72.557,5.517 72.558,5.968 72.547,8.894 72.523,12.459 72.523,12.459 72.523,12.459 72.408,12.459 72.408,12.459 72.408,12.459 72.213,12.466 72.122,12.466 71.938,12.469 71.807,12.471 71.807,12.471 71.807,12.471 71.747,12.471 71.747,12.471 71.747,12.471 71.747,9.022 71.747,9.022 71.747,9.022 71.752,5.530 71.752,5.530 71.752,5.530 71.814,5.526 71.814,5.526 71.814,5.526 72.108,5.525 72.201,5.524 72.348,5.521 72.374,5.521 72.368,5.520 72.433,5.518 72.438,5.518 72.470,5.516 72.501,5.516 Z M 62.391,5.531 C 63.116,5.531 64.031,5.532 65.182,5.535 70.614,5.548 70.614,5.548 70.614,5.548 70.629,6.902 70.629,6.902 70.629,6.902 70.642,8.256 70.642,8.256 70.642,8.256 65.131,8.250 65.131,8.250 65.131,8.250 59.621,8.244 59.621,8.244 59.621,8.244 59.607,10.306 59.607,10.306 59.607,10.306 59.594,12.367 59.594,12.367 59.594,12.367 59.814,12.367 59.814,12.367 59.814,12.367 59.936,12.367 60.448,12.253 60.847,12.211 62.613,12.026 66.654,11.873 67.334,11.985 67.489,12.011 67.743,12.132 68.054,12.328 68.535,12.632 68.535,12.632 68.535,12.632 69.138,12.634 69.138,12.634 69.138,12.634 69.547,12.636 69.873,12.606 70.155,12.540 70.840,12.382 70.641,12.497 70.641,12.614 70.641,12.705 70.584,12.724 70.161,12.779 69.130,12.914 68.127,12.893 67.996,12.735 67.982,12.718 67.900,12.669 67.814,12.626 67.729,12.584 67.644,12.528 67.625,12.503 67.527,12.367 65.200,12.350 62.628,12.465 62.001,12.493 61.050,12.532 60.515,12.551 59.543,12.586 59.543,12.586 59.543,12.586 59.543,9.153 59.543,9.153 59.543,9.153 59.543,5.763 59.544,5.719 59.646,5.693 59.703,5.678 59.750,5.633 59.750,5.594 59.750,5.548 60.215,5.531 62.391,5.531 Z M 72.922,5.574 C 73.078,5.574 73.078,5.574 73.078,5.574 73.234,5.574 73.234,5.574 73.234,5.574 73.234,7.409 73.234,7.409 73.234,7.409 73.234,9.035 73.243,9.249 73.316,9.276 73.462,9.332 74.228,9.278 74.315,9.279 74.369,9.280 74.336,9.285 74.452,9.275 74.989,9.289 75.802,9.289 76.255,9.298 77.405,9.321 77.446,9.319 77.591,9.211 77.805,9.053 78.620,9.049 78.874,9.204 79.028,9.298 79.136,9.308 80.004,9.308 80.787,9.308 80.987,9.293 81.088,9.226 81.190,9.160 81.318,9.151 81.825,9.177 82.739,9.224 84.575,9.226 84.915,9.180 85.213,9.139 85.213,9.139 85.213,9.139 85.213,10.261 85.213,10.261 85.213,10.261 85.213,11.382 85.213,11.382 85.213,11.382 85.218,11.382 85.218,11.382 85.218,11.382 85.218,11.563 85.218,11.563 85.218,11.563 85.218,11.745 85.218,11.745 85.218,11.745 85.202,11.779 85.202,11.710 85.209,11.714 85.238,11.728 83.198,11.752 79.257,11.752 73.364,11.749 73.364,11.749 73.364,11.749 73.372,11.938 73.372,11.938 73.372,11.938 73.372,12.120 73.372,12.120 73.372,12.120 79.165,12.123 79.165,12.123 79.165,12.123 84.722,12.126 85.045,12.152 85.028,12.238 85.011,12.323 84.662,12.394 79.343,12.407 74.968,12.417 73.704,12.406 73.688,12.357 73.675,12.318 73.524,12.286 73.295,12.273 72.922,12.252 72.922,12.252 72.922,12.252 72.922,8.913 72.922,8.913 72.922,8.913 Z M 75.645,5.600 C 76.412,5.600 76.412,5.600 76.412,5.600 77.037,5.600 77.188,5.614 77.228,5.677 77.258,5.724 77.273,6.398 77.265,7.337 77.253,8.919 77.253,8.919 77.253,8.919 76.864,8.922 76.864,8.922 76.864,8.922 76.650,8.924 76.282,8.917 76.046,8.907 75.617,8.888 75.617,8.888 75.617,8.888 75.631,7.244 75.631,7.244 75.631,7.244 Z M 16.519,5.626 C 17.347,5.626 17.382,5.630 17.382,5.729 17.382,5.786 17.405,5.833 17.434,5.833 17.468,5.833 17.486,6.836 17.486,8.737 17.486,11.641 17.486,11.641 17.486,11.641 16.423,11.641 16.423,11.641 16.423,11.641 15.438,11.641 15.360,11.634 15.360,11.549 15.360,11.498 15.313,11.423 15.256,11.382 15.199,11.341 15.152,11.278 15.152,11.241 15.152,11.205 15.129,11.174 15.100,11.174 15.072,11.174 15.048,11.142 15.048,11.101 15.048,11.061 15.020,11.018 14.986,11.007 14.937,10.991 14.926,10.440 14.937,8.630 14.951,6.305 14.963,6.040 15.054,6.040 15.080,6.040 15.100,6.006 15.100,5.963 15.100,5.920 15.135,5.885 15.178,5.885 15.221,5.885 15.256,5.853 15.256,5.815 15.256,5.684 15.644,5.626 16.519,5.626 Z M 80.056,5.627 C 80.365,5.631 80.649,5.649 80.649,5.677 80.649,5.706 80.684,5.729 80.727,5.729 80.794,5.729 80.805,5.934 80.805,7.255 80.805,8.094 80.790,8.817 80.773,8.862 80.746,8.932 80.629,8.945 80.004,8.945 79.598,8.945 79.251,8.929 79.232,8.910 79.213,8.891 79.197,8.158 79.197,7.282 79.197,5.690 79.197,5.690 79.197,5.690 79.314,5.658 79.314,5.658 79.314,5.658 79.414,5.632 79.747,5.622 80.056,5.627 Z M 73.700,5.634 C 73.770,5.638 73.790,5.638 73.909,5.648 74.089,5.655 74.159,5.657 74.277,5.658 74.310,5.659 74.323,6.231 74.323,7.233 74.323,8.236 74.313,8.779 74.279,8.778 74.213,8.775 74.193,8.782 74.153,8.777 74.124,8.778 74.094,8.778 74.066,8.778 74.054,8.778 74.004,8.778 73.991,8.778 73.919,8.779 73.916,8.780 73.843,8.783 73.756,8.783 73.746,8.779 73.699,8.782 73.598,8.782 73.597,8.755 73.597,7.207 73.597,5.660 73.618,5.632 73.700,5.634 Z M 74.696,5.665 C 74.877,5.665 74.877,5.665 74.877,5.665 75.022,5.672 75.115,5.676 75.165,5.677 75.250,5.677 75.256,5.787 75.256,7.252 75.256,8.827 75.256,8.827 75.256,8.827 75.102,8.837 75.102,8.837 75.102,8.837 75.079,8.837 75.079,8.837 75.079,8.837 74.992,8.834 74.911,8.840 74.861,8.840 74.811,8.839 74.747,8.849 74.724,8.831 74.684,8.800 74.686,8.068 74.686,7.197 Z M 83.108,5.687 C 83.453,5.686 84.008,5.719 84.222,5.762 84.383,5.795 84.383,5.795 84.383,5.795 84.383,7.344 84.383,7.344 84.383,7.344 84.383,8.893 84.383,8.893 84.383,8.893 83.562,8.893 83.562,8.893 83.562,8.893 83.110,8.893 82.725,8.877 82.706,8.858 82.687,8.839 82.672,8.129 82.672,7.279 82.672,5.734 82.672,5.734 82.672,5.734 82.855,5.700 82.855,5.700 82.855,5.700 82.902,5.691 82.994,5.687 83.108,5.687 Z M 57.831,5.729 C 57.831,5.963 57.831,5.963 57.831,5.963 57.831,6.196 57.831,6.196 57.831,6.196 53.057,6.196 53.057,6.196 53.057,6.196 48.284,6.196 48.284,6.196 48.284,6.196 48.299,5.976 48.299,5.976 48.299,5.976 48.316,5.755 48.316,5.755 48.316,5.755 53.074,5.742 53.074,5.742 53.074,5.742 Z M 58.194,5.729 C 58.687,5.729 58.687,5.729 58.687,5.729 59.180,5.729 59.180,5.729 59.180,5.729 59.180,6.188 59.180,6.188 59.180,6.188 59.180,6.694 59.180,6.694 59.180,6.694 53.592,6.723 53.592,6.723 53.592,6.723 50.519,6.739 47.964,6.721 47.914,6.741 47.831,6.774 47.823,6.733 47.823,6.280 47.823,5.982 47.844,5.781 47.875,5.781 47.904,5.781 47.927,5.944 47.927,6.165 47.927,6.466 47.870,6.508 47.934,6.533 47.979,6.550 50.290,6.565 53.068,6.565 58.120,6.565 58.120,6.565 58.120,6.565 58.194,6.170 58.194,6.170 58.194,6.170 Z M 77.641,5.729 C 78.212,5.729 78.212,5.729 78.212,5.729 78.782,5.729 78.782,5.729 78.782,5.729 78.782,7.233 78.782,7.233 78.782,7.233 78.782,8.737 78.782,8.737 78.782,8.737 78.212,8.737 78.212,8.737 78.212,8.737 77.641,8.737 77.641,8.737 77.641,8.737 77.641,7.233 77.641,7.233 77.641,7.233 Z M 47.408,5.765 C 47.408,8.211 47.408,8.211 47.408,8.211 47.408,10.656 47.408,10.656 47.408,10.656 46.403,10.656 46.403,10.656 46.403,10.656 45.398,10.656 45.398,10.656 45.398,10.656 45.377,10.175 45.377,10.175 45.377,10.175 45.352,9.608 45.241,9.342 44.969,9.196 44.811,9.111 44.659,9.100 43.636,9.100 42.482,9.100 42.482,9.100 42.482,9.100 42.482,7.467 42.482,7.467 42.482,7.467 42.482,5.833 42.482,5.833 42.482,5.833 43.791,5.832 43.791,5.832 43.791,5.832 44.511,5.832 45.620,5.817 46.254,5.799 Z M 67.114,5.780 C 67.114,6.948 67.114,6.948 67.114,6.948 67.114,8.115 67.114,8.115 67.114,8.115 68.723,8.115 68.723,8.115 68.723,8.115 70.331,8.115 70.331,8.115 70.331,8.115 70.318,6.961 70.318,6.961 70.318,6.961 70.304,5.807 70.304,5.807 70.304,5.807 68.709,5.793 68.709,5.793 68.709,5.793 Z M 18.471,5.781 C 19.951,5.781 19.951,5.781 19.951,5.781 21.057,5.781 21.533,5.801 21.831,5.859 22.051,5.902 22.371,5.962 22.542,5.993 22.713,6.023 22.958,6.068 23.086,6.092 23.215,6.117 23.472,6.163 23.657,6.195 23.842,6.228 24.096,6.280 24.220,6.312 24.345,6.343 24.590,6.382 24.765,6.399 25.083,6.429 25.083,6.429 25.083,6.429 25.097,7.117 25.097,7.117 25.097,7.117 25.112,7.804 25.112,7.804 25.112,7.804 24.786,7.795 24.786,7.795 24.786,7.795 24.607,7.789 24.110,7.769 23.683,7.750 23.255,7.730 22.037,7.710 20.977,7.707 19.888,7.703 18.991,7.678 18.917,7.650 18.770,7.594 18.610,7.448 18.527,7.293 18.495,7.233 18.471,6.888 18.471,6.485 Z M 40.804,5.781 C 42.119,5.781 42.119,5.781 42.119,5.781 42.119,7.441 42.119,7.441 42.119,7.441 42.119,9.100 42.119,9.100 42.119,9.100 40.692,9.100 40.692,9.100 40.692,9.100 39.266,9.100 39.266,9.100 39.266,9.100 39.266,7.537 39.266,7.537 39.266,7.537 39.266,6.002 39.268,5.973 39.378,5.878 39.481,5.789 39.595,5.781 40.804,5.781 Z M 81.168,5.781 C 81.738,5.781 81.738,5.781 81.738,5.781 82.309,5.781 82.309,5.781 82.309,5.781 82.309,7.259 82.309,7.259 82.309,7.259 82.309,8.737 82.309,8.737 82.309,8.737 81.738,8.737 81.738,8.737 81.738,8.737 81.168,8.737 81.168,8.737 81.168,8.737 81.168,7.259 81.168,7.259 81.168,7.259 Z M 85.987,5.792 C 86.120,5.807 86.120,5.807 86.120,5.807 86.135,6.629 86.135,6.629 86.135,6.629 86.146,7.270 86.166,7.467 86.225,7.527 86.328,7.630 86.333,8.218 86.231,8.218 86.121,8.218 86.095,8.615 86.095,10.306 86.094,11.849 86.094,11.849 86.094,11.849 85.835,11.849 85.835,11.849 85.835,11.849 85.576,11.849 85.576,11.849 85.576,11.849 85.576,8.866 85.576,8.866 85.576,8.866 85.576,5.882 85.576,5.882 85.576,5.882 85.715,5.829 85.715,5.829 85.715,5.829 85.792,5.800 85.914,5.783 85.987,5.792 Z M 36.958,5.824 C 37.255,5.824 37.552,5.854 37.575,5.915 37.593,5.960 37.607,6.695 37.607,7.549 37.607,9.100 37.607,9.100 37.607,9.100 36.958,9.100 36.958,9.100 36.958,9.100 36.310,9.100 36.310,9.100 36.310,9.100 36.310,7.549 36.310,7.549 36.310,7.549 36.310,6.695 36.324,5.960 36.342,5.915 36.365,5.854 36.662,5.824 36.958,5.824 Z M 17.849,5.833 C 17.975,5.833 17.975,5.833 17.975,5.833 18.101,5.833 18.101,5.833 18.101,5.833 18.118,6.676 18.118,6.676 18.118,6.676 18.133,7.465 18.142,7.529 18.255,7.680 18.322,7.769 18.462,7.889 18.566,7.946 18.746,8.046 18.876,8.053 21.038,8.083 22.293,8.100 23.724,8.129 24.217,8.147 25.114,8.180 25.114,8.180 25.114,8.180 25.098,8.442 25.098,8.442 25.098,8.442 25.084,8.680 25.069,8.708 24.938,8.742 24.672,8.813 22.925,8.890 20.882,8.920 19.770,8.937 18.748,8.976 18.610,9.006 18.458,9.039 18.311,9.114 18.234,9.197 18.109,9.332 18.108,9.336 18.108,10.487 18.108,11.641 18.108,11.641 18.108,11.641 17.978,11.641 17.978,11.641 17.978,11.641 17.849,11.641 17.849,11.641 17.849,11.641 17.849,8.737 17.849,8.737 17.849,8.737 Z M 28.687,5.833 C 28.998,5.833 28.998,5.833 28.998,5.833 29.309,5.833 29.309,5.833 29.309,5.833 29.309,7.467 29.309,7.467 29.309,7.467 29.309,9.100 29.309,9.100 29.309,9.100 29.141,9.098 29.141,9.098 29.141,9.098 29.038,9.097 28.917,9.048 28.830,8.971 28.687,8.846 28.687,8.846 28.687,8.846 28.687,7.339 28.687,7.339 28.687,7.339 Z M 29.724,5.833 C 30.662,5.833 30.662,5.833 30.662,5.833 31.405,5.833 31.614,5.849 31.672,5.907 31.733,5.968 31.747,6.258 31.747,7.541 31.747,9.100 31.747,9.100 31.747,9.100 30.735,9.100 30.735,9.100 30.735,9.100 29.724,9.100 29.724,9.100 29.724,9.100 29.724,7.467 29.724,7.467 29.724,7.467 Z M 34.024,5.833 C 34.386,5.833 34.600,5.855 34.640,5.895 34.686,5.941 34.703,6.376 34.703,7.529 34.703,9.100 34.703,9.100 34.703,9.100 34.054,9.100 34.054,9.100 34.054,9.100 33.406,9.100 33.406,9.100 33.406,9.100 33.406,7.549 33.406,7.549 33.406,7.549 33.406,6.695 33.420,5.960 33.437,5.915 33.463,5.847 33.566,5.833 34.024,5.833 Z M 63.330,5.836 C 61.646,5.835 59.963,5.848 59.921,5.874 59.866,5.909 59.837,6.739 59.852,7.842 59.854,8.009 59.854,8.009 59.854,8.009 60.878,8.023 60.878,8.023 60.878,8.023 61.441,8.031 62.999,8.037 64.340,8.037 66.777,8.037 66.777,8.037 66.777,8.037 66.791,6.977 66.791,6.977 66.791,6.977 66.802,6.165 66.790,5.909 66.739,5.876 66.697,5.850 65.014,5.836 63.330,5.836 Z M 28.233,5.880 C 28.418,5.876 28.418,6.166 28.421,6.182 28.423,6.191 28.427,6.736 28.430,6.805 28.439,7.084 28.445,7.177 28.436,7.455 28.427,7.733 28.294,9.198 28.194,6.840 28.163,6.114 28.205,5.880 28.233,5.880 Z M 84.798,5.885 C 85.005,5.885 85.005,5.885 85.005,5.885 85.213,5.885 85.213,5.885 85.213,5.885 85.213,7.311 85.213,7.311 85.213,7.311 85.213,8.737 85.213,8.737 85.213,8.737 85.005,8.737 85.005,8.737 85.005,8.737 84.798,8.737 84.798,8.737 84.798,8.737 84.798,7.311 84.798,7.311 84.798,7.311 Z M 33.043,5.933 C 33.043,7.517 33.043,7.517 33.043,7.517 33.043,9.100 33.043,9.100 33.043,9.100 32.576,9.100 32.576,9.100 32.576,9.100 32.108,9.100 32.108,9.100 32.108,9.100 32.122,7.531 32.122,7.531 32.122,7.531 32.136,5.963 32.136,5.963 32.136,5.963 32.589,5.948 32.589,5.948 32.589,5.948 Z M 35.865,5.957 C 35.939,5.929 35.947,6.087 35.947,7.513 35.947,9.100 35.947,9.100 35.947,9.100 35.506,9.100 35.506,9.100 35.506,9.100 35.066,9.100 35.066,9.100 35.066,9.100 35.066,7.544 35.066,7.544 35.066,7.544 35.066,5.989 35.066,5.989 35.066,5.989 35.425,5.989 35.425,5.989 35.425,5.989 35.622,5.989 35.820,5.975 35.865,5.957 Z M 37.970,5.989 C 38.436,5.989 38.436,5.989 38.436,5.989 38.903,5.989 38.903,5.989 38.903,5.989 38.903,7.544 38.903,7.544 38.903,7.544 38.903,9.100 38.903,9.100 38.903,9.100 38.436,9.100 38.436,9.100 38.436,9.100 37.970,9.100 37.970,9.100 37.970,9.100 37.970,7.544 37.970,7.544 37.970,7.544 Z M 67.477,6.196 C 68.722,6.196 68.722,6.196 68.722,6.196 69.967,6.196 69.967,6.196 69.967,6.196 69.967,6.974 69.967,6.974 69.967,6.974 69.967,7.752 69.967,7.752 69.967,7.752 68.722,7.752 68.722,7.752 68.722,7.752 67.477,7.752 67.477,7.752 67.477,7.752 67.477,6.974 67.477,6.974 67.477,6.974 Z M 60.217,6.248 C 60.995,6.248 60.995,6.248 60.995,6.248 61.773,6.248 61.773,6.248 61.773,6.248 61.773,6.948 61.773,6.948 61.773,6.948 61.773,7.648 61.773,7.648 61.773,7.648 60.995,7.648 60.995,7.648 60.995,7.648 60.217,7.648 60.217,7.648 60.217,7.648 60.217,6.948 60.217,6.948 60.217,6.948 Z M 62.136,6.248 C 62.317,6.248 62.317,6.248 62.317,6.248 62.499,6.248 62.499,6.248 62.499,6.248 62.499,6.948 62.499,6.948 62.499,6.948 62.499,7.648 62.499,7.648 62.499,7.648 62.317,7.648 62.317,7.648 62.317,7.648 62.136,7.648 62.136,7.648 62.136,7.648 62.136,6.948 62.136,6.948 62.136,6.948 Z M 62.862,6.248 C 63.743,6.248 63.743,6.248 63.743,6.248 64.625,6.248 64.625,6.248 64.625,6.248 64.625,6.948 64.625,6.948 64.625,6.948 64.625,7.648 64.625,7.648 64.625,7.648 63.743,7.648 63.743,7.648 63.743,7.648 62.862,7.648 62.862,7.648 62.862,7.648 62.862,6.948 62.862,6.948 62.862,6.948 Z M 64.988,6.248 C 65.143,6.248 65.143,6.248 65.143,6.248 65.299,6.248 65.299,6.248 65.299,6.248 65.299,6.948 65.299,6.948 65.299,6.948 65.299,7.648 65.299,7.648 65.299,7.648 65.143,7.648 65.143,7.648 65.143,7.648 64.988,7.648 64.988,7.648 64.988,7.648 64.988,6.948 64.988,6.948 64.988,6.948 Z M 65.662,6.248 C 66.051,6.248 66.051,6.248 66.051,6.248 66.440,6.248 66.440,6.248 66.440,6.248 66.440,6.948 66.440,6.948 66.440,6.948 66.440,7.648 66.440,7.648 66.440,7.648 66.051,7.648 66.051,7.648 66.051,7.648 65.662,7.648 65.662,7.648 65.662,7.648 65.662,6.948 65.662,6.948 65.662,6.948 Z M 57.455,7.026 C 59.180,7.026 59.180,7.026 59.180,7.026 59.180,8.785 59.180,8.785 59.180,8.785 59.180,10.544 59.180,10.544 59.180,10.544 58.856,10.574 58.856,10.574 58.856,10.574 58.677,10.590 58.182,10.629 57.754,10.660 56.750,10.734 56.591,10.802 56.090,11.385 55.837,11.679 55.398,12.053 55.209,12.136 54.835,12.299 53.804,12.283 52.347,12.092 51.089,11.926 51.089,11.926 51.089,11.926 50.518,11.440 50.518,11.440 50.518,11.440 50.204,11.173 49.822,10.811 49.671,10.636 49.422,10.348 48.808,9.452 48.808,9.376 48.808,9.359 48.735,9.226 48.646,9.081 48.398,8.679 48.042,7.354 48.134,7.181 48.176,7.103 48.516,7.092 51.956,7.060 54.032,7.041 56.507,7.026 57.455,7.026 Z M 83.501,7.403 C 83.418,7.407 83.346,7.470 83.346,7.569 83.346,7.636 83.375,7.703 83.411,7.718 83.606,7.799 83.789,7.603 83.649,7.462 83.605,7.418 83.551,7.400 83.501,7.403 Z M 76.471,7.405 C 76.347,7.404 76.242,7.550 76.347,7.677 76.428,7.774 76.548,7.756 76.624,7.636 76.667,7.567 76.661,7.526 76.594,7.460 76.556,7.421 76.512,7.405 76.471,7.405 Z M 86.755,7.645 C 86.791,7.645 86.837,7.673 86.894,7.729 86.996,7.831 86.998,7.944 86.902,8.041 86.752,8.190 86.665,8.131 86.665,7.881 86.665,7.724 86.695,7.645 86.755,7.645 Z M 47.860,8.063 C 47.984,8.763 48.257,9.363 48.881,10.306 48.975,10.448 48.975,10.448 48.975,10.448 48.399,10.448 48.399,10.448 48.399,10.448 47.823,10.448 47.823,10.448 47.823,10.448 47.830,9.191 47.830,9.191 47.830,9.191 47.834,8.499 47.847,7.992 47.860,8.063 Z M 76.482,8.185 C 76.444,8.181 76.403,8.192 76.364,8.224 76.277,8.297 76.273,8.385 76.355,8.467 76.437,8.549 76.477,8.546 76.572,8.451 76.679,8.344 76.596,8.197 76.482,8.185 Z M 83.532,8.189 C 83.494,8.184 83.454,8.194 83.417,8.224 83.329,8.297 83.326,8.385 83.408,8.467 83.490,8.549 83.579,8.546 83.652,8.459 83.742,8.349 83.647,8.204 83.532,8.189 Z M 59.958,8.564 C 65.151,8.601 65.151,8.601 65.151,8.601 68.007,8.621 70.364,8.649 70.389,8.664 70.440,8.695 70.450,11.899 70.400,12.030 70.359,12.139 70.415,12.082 69.923,12.176 69.709,12.217 69.358,12.250 69.144,12.250 68.759,12.249 68.750,12.246 68.276,11.946 67.725,11.597 67.709,11.594 66.369,11.545 65.497,11.512 62.370,11.664 61.366,11.769 60.723,11.835 60.403,11.947 59.958,11.953 59.958,10.259 59.958,10.259 59.958,10.259 Z M 24.824,9.134 C 24.688,9.312 24.688,9.312 24.688,9.312 24.546,9.498 23.967,10.073 23.268,10.722 23.040,10.934 22.724,11.227 22.568,11.373 22.283,11.638 22.283,11.638 22.283,11.638 20.377,11.640 20.377,11.640 20.377,11.640 18.471,11.641 18.471,11.641 18.471,11.641 18.472,10.617 18.472,10.617 18.472,10.617 18.472,10.054 18.491,9.564 18.513,9.530 18.632,9.342 18.888,9.313 20.508,9.309 22.180,9.304 24.336,9.232 24.642,9.171 Z M 83.887,9.614 C 83.778,9.624 83.821,9.730 83.817,10.422 83.815,10.736 83.787,11.211 83.853,11.214 83.913,11.216 83.917,11.227 84.055,11.227 84.231,11.227 84.231,11.227 84.231,11.227 84.231,10.422 84.231,10.422 84.231,10.422 84.231,9.619 84.231,9.619 84.231,9.619 84.055,9.619 84.055,9.619 84.055,9.619 83.977,9.619 83.924,9.611 83.887,9.614 Z M 83.138,9.619 C 83.138,10.422 83.138,10.422 83.138,10.422 83.138,11.227 83.138,11.227 83.138,11.227 83.320,11.227 83.320,11.227 83.320,11.227 83.501,11.227 83.501,11.227 83.501,11.227 83.501,10.422 83.501,10.422 83.501,10.422 83.501,9.619 83.501,9.619 83.501,9.619 83.320,9.619 83.320,9.619 83.320,9.619 Z M 84.560,9.634 C 84.560,10.438 84.560,10.438 84.560,10.438 84.560,11.242 84.560,11.242 84.560,11.242 84.742,11.242 84.742,11.242 84.742,11.242 84.923,11.242 84.923,11.242 84.923,11.242 84.923,10.438 84.923,10.438 84.923,10.438 84.923,9.634 84.923,9.634 84.923,9.634 84.742,9.634 84.742,9.634 84.742,9.634 Z M 78.903,9.699 C 76.895,9.705 75.380,9.702 73.916,9.702 73.316,9.702 73.316,9.702 73.316,9.702 73.316,9.884 73.316,9.884 73.316,9.884 73.316,10.065 73.316,10.065 73.316,10.065 78.138,10.065 78.138,10.065 78.138,10.065 82.961,10.065 82.961,10.065 82.961,10.065 82.961,9.884 82.961,9.884 82.961,9.884 82.961,9.702 82.961,9.702 82.961,9.702 Z M 41.988,9.723 C 40.735,9.725 39.479,9.744 39.419,9.776 39.326,9.826 39.318,9.893 39.318,10.706 39.318,11.187 39.332,11.618 39.350,11.663 39.378,11.737 39.644,11.744 41.981,11.732 44.581,11.719 44.581,11.719 44.581,11.719 44.596,10.764 44.596,10.764 44.596,10.764 44.607,10.034 44.594,9.798 44.544,9.766 44.494,9.734 43.242,9.720 41.988,9.723 Z M 28.687,9.826 C 28.687,10.007 28.687,10.007 28.687,10.007 28.687,10.189 28.687,10.189 28.687,10.189 33.652,10.202 33.652,10.202 33.652,10.202 36.383,10.209 38.694,10.207 38.786,10.197 38.940,10.180 38.955,10.162 38.955,10.002 38.955,9.826 38.955,9.826 38.955,9.826 33.821,9.826 33.821,9.826 33.821,9.826 Z M 39.733,10.138 C 41.031,10.138 41.031,10.138 41.031,10.138 42.329,10.138 42.329,10.138 42.329,10.138 42.314,10.747 42.314,10.747 42.314,10.747 42.300,11.356 42.300,11.356 42.300,11.356 41.017,11.370 41.017,11.370 41.017,11.370 39.733,11.384 39.733,11.384 39.733,11.384 39.733,10.760 39.733,10.760 39.733,10.760 Z M 42.741,10.138 C 42.829,10.138 42.807,10.383 42.807,10.763 42.807,11.144 42.829,11.388 42.741,11.382 42.603,11.373 42.643,11.140 42.643,10.760 42.643,10.380 42.614,10.138 42.741,10.138 Z M 43.156,10.138 C 43.700,10.138 43.700,10.138 43.700,10.138 44.245,10.138 44.245,10.138 44.245,10.138 44.245,10.760 44.245,10.760 44.245,10.760 44.245,11.382 44.245,11.382 44.245,11.382 43.700,11.382 43.700,11.382 43.700,11.382 43.156,11.382 43.156,11.382 43.156,11.382 43.156,10.760 43.156,10.760 43.156,10.760 Z M 73.337,10.708 C 73.337,10.889 73.337,10.889 73.337,10.889 73.337,11.070 73.337,11.070 73.337,11.070 77.991,11.083 77.991,11.083 77.991,11.083 80.551,11.091 82.722,11.089 82.814,11.078 82.968,11.061 82.983,11.044 82.983,10.884 82.983,10.708 82.983,10.708 82.983,10.708 78.160,10.708 78.160,10.708 78.160,10.708 Z M 48.512,10.811 C 49.201,10.811 49.201,10.811 49.201,10.811 49.504,11.123 49.504,11.123 49.504,11.123 49.671,11.294 49.828,11.434 49.852,11.434 49.877,11.434 49.897,11.451 49.897,11.473 49.897,11.494 49.553,11.512 49.132,11.513 48.390,11.515 48.358,11.519 48.056,11.669 47.110,12.137 46.746,13.234 47.224,14.177 47.296,14.320 47.407,14.485 47.469,14.543 47.583,14.649 47.583,14.649 47.583,14.649 47.223,14.650 47.223,14.650 47.223,14.650 47.026,14.650 46.811,14.665 46.747,14.682 46.596,14.722 46.596,14.716 46.783,13.781 47.015,12.625 47.201,11.587 47.201,11.451 47.201,11.330 47.201,11.330 47.201,11.330 46.293,11.330 46.293,11.330 46.293,11.330 45.386,11.330 45.386,11.330 45.386,11.330 45.386,11.174 45.386,11.174 45.386,11.174 45.386,11.019 45.386,11.019 45.386,11.019 46.604,11.019 46.604,11.019 46.604,11.019 47.788,11.019 47.823,11.016 47.823,10.915 47.823,10.817 47.858,10.811 48.512,10.811 Z M 59.182,10.967 C 59.168,11.784 59.168,11.784 59.168,11.784 59.154,12.601 59.154,12.601 59.154,12.601 59.024,12.614 59.024,12.614 59.024,12.614 58.797,12.637 58.039,12.855 58.039,12.897 58.039,12.919 58.010,12.939 57.974,12.940 57.938,12.940 57.816,12.986 57.702,13.042 57.588,13.097 57.465,13.143 57.430,13.144 57.394,13.144 57.365,13.167 57.365,13.195 57.365,13.222 57.283,13.259 57.183,13.278 57.084,13.297 57.002,13.332 57.002,13.356 57.002,13.380 56.920,13.415 56.820,13.434 56.721,13.453 56.639,13.487 56.639,13.510 56.639,13.533 56.568,13.567 56.483,13.586 56.397,13.605 56.328,13.641 56.328,13.668 56.328,13.694 56.292,13.715 56.250,13.715 56.207,13.715 56.172,13.739 56.172,13.768 56.172,13.796 56.125,13.819 56.068,13.819 56.011,13.819 55.965,13.843 55.965,13.871 55.965,13.900 55.929,13.923 55.887,13.923 55.844,13.923 55.809,13.946 55.809,13.975 55.809,14.003 55.774,14.027 55.731,14.027 55.689,14.027 55.653,14.044 55.653,14.065 55.652,14.127 55.298,14.275 54.877,14.389 54.439,14.507 53.899,14.519 53.501,14.419 53.359,14.383 53.061,14.312 52.840,14.260 52.619,14.208 52.438,14.147 52.438,14.126 52.438,14.104 52.371,14.072 52.290,14.054 52.095,14.011 51.894,13.622 51.793,13.090 51.752,12.876 51.693,12.635 51.662,12.553 51.631,12.472 51.612,12.400 51.620,12.394 51.628,12.388 51.950,12.426 52.335,12.478 54.694,12.793 55.324,12.723 56.042,12.062 56.185,11.930 56.393,11.718 56.504,11.590 56.887,11.148 56.977,11.112 57.882,11.038 58.325,11.002 58.799,10.971 58.935,10.970 Z M 28.687,11.123 C 28.687,11.304 28.687,11.304 28.687,11.304 28.687,11.486 28.687,11.486 28.687,11.486 33.847,11.486 33.847,11.486 33.847,11.486 39.007,11.486 39.007,11.486 39.007,11.486 39.007,11.304 39.007,11.304 39.007,11.304 39.007,11.123 39.007,11.123 39.007,11.123 33.847,11.123 33.847,11.123 33.847,11.123 Z M 23.958,11.310 C 23.629,11.316 23.548,11.344 23.343,11.441 22.969,11.620 22.551,12.070 22.475,12.377 22.374,12.784 22.340,13.587 22.413,13.857 22.594,14.523 22.841,14.802 23.423,14.994 23.569,15.043 24.525,15.022 25.117,15.012 25.391,14.928 25.391,14.928 25.391,14.928 25.693,14.728 25.693,14.728 25.693,14.728 25.989,14.500 26.302,14.163 26.302,13.115 26.302,12.478 26.273,12.373 26.000,12.004 25.555,11.403 25.359,11.319 24.383,11.311 24.205,11.309 24.068,11.308 23.958,11.310 Z M 24.305,11.667 C 24.798,11.667 24.909,11.684 25.122,11.789 25.407,11.929 25.700,12.244 25.847,12.569 25.990,12.885 25.965,13.754 25.805,14.027 25.697,14.212 25.163,14.678 25.045,14.690 25.009,14.694 24.734,14.710 24.435,14.725 23.973,14.748 23.847,14.737 23.608,14.649 23.270,14.524 23.124,14.397 22.926,14.052 22.785,13.809 22.776,13.758 22.777,13.223 22.778,12.430 22.921,12.159 23.527,11.792 23.713,11.680 23.794,11.667 24.305,11.667 Z M 46.411,11.694 C 46.775,11.693 46.787,11.697 46.760,11.810 46.745,11.874 46.688,12.160 46.635,12.445 46.144,15.081 46.083,15.360 45.904,15.764 45.853,15.878 45.747,16.205 45.667,16.490 45.588,16.776 45.506,17.020 45.487,17.035 45.468,17.049 45.423,17.189 45.388,17.345 45.353,17.502 45.286,17.782 45.239,17.968 45.134,18.377 45.123,19.509 45.223,19.571 45.308,19.624 45.366,19.991 45.288,19.991 45.256,19.991 45.230,20.025 45.230,20.068 45.230,20.111 45.206,20.146 45.178,20.146 45.149,20.146 45.126,20.173 45.126,20.205 45.126,20.287 44.878,20.509 44.787,20.509 44.745,20.509 44.711,20.532 44.711,20.561 44.711,20.589 44.676,20.613 44.634,20.613 44.591,20.613 44.556,20.636 44.556,20.665 44.556,20.726 43.950,20.736 43.925,20.674 43.915,20.651 43.674,20.567 43.389,20.487 43.104,20.406 42.859,20.326 42.845,20.308 42.830,20.290 42.755,20.242 42.677,20.202 42.599,20.162 42.489,20.087 42.433,20.034 42.376,19.982 42.316,19.939 42.298,19.939 42.281,19.939 42.228,19.900 42.180,19.853 42.089,19.761 42.084,19.625 42.146,18.968 42.175,18.667 42.166,18.579 42.102,18.515 42.058,18.471 41.994,18.435 41.960,18.435 41.917,18.435 41.915,18.415 41.950,18.370 41.979,18.334 42.042,18.165 42.091,17.994 42.140,17.823 42.199,17.659 42.222,17.631 42.245,17.602 42.292,17.475 42.326,17.348 42.360,17.220 42.426,17.027 42.473,16.919 42.552,16.737 42.573,16.724 42.775,16.724 42.977,16.724 42.994,16.712 43.029,16.555 43.049,16.462 43.081,16.375 43.101,16.361 43.144,16.330 43.471,15.121 43.600,14.520 43.711,14.002 43.736,12.673 43.635,12.639 43.600,12.628 43.571,12.573 43.571,12.518 43.571,12.464 43.547,12.419 43.519,12.419 43.490,12.419 43.467,12.388 43.467,12.349 43.467,12.295 43.633,12.272 44.187,12.249 45.031,12.213 45.267,12.141 45.313,11.910 45.342,11.766 45.359,11.757 45.689,11.726 45.879,11.708 46.203,11.694 46.411,11.694 Z M 48.905,11.900 C 49.190,11.900 49.192,11.902 49.070,11.987 48.844,12.146 48.596,12.441 48.408,12.775 48.227,13.098 48.223,13.112 48.253,13.534 48.286,13.995 48.372,14.258 48.577,14.526 48.647,14.618 48.704,14.707 48.704,14.724 48.704,14.820 48.423,14.715 48.125,14.506 47.218,13.871 47.171,12.807 48.024,12.195 48.334,11.972 48.549,11.900 48.905,11.900 Z M 49.964,11.960 C 50.206,12.085 50.206,12.085 50.206,12.085 50.402,12.188 50.492,12.287 50.685,12.613 50.820,12.840 50.938,13.113 50.956,13.238 50.996,13.512 50.895,14.131 50.811,14.131 50.777,14.131 50.716,14.177 50.675,14.234 50.634,14.291 50.580,14.338 50.555,14.338 50.530,14.338 50.447,14.382 50.370,14.437 50.293,14.492 50.088,14.574 49.914,14.619 49.433,14.744 49.372,14.731 49.097,14.451 48.646,13.991 48.523,13.435 48.775,12.992 48.888,12.792 49.293,12.316 49.349,12.316 49.362,12.316 49.506,12.235 49.669,12.138 Z M 51.173,12.533 C 51.243,12.534 51.395,12.960 51.427,13.262 51.451,13.480 51.446,13.612 51.414,13.612 51.387,13.612 51.293,13.493 51.274,13.292 51.255,13.090 51.203,12.854 51.159,12.768 51.114,12.682 51.090,12.600 51.104,12.586 51.108,12.582 51.168,12.533 51.173,12.533 Z M 14.207,12.574 C 17.804,12.587 17.804,12.587 17.804,12.587 21.401,12.601 21.401,12.601 21.401,12.601 21.391,13.482 21.391,13.482 21.391,13.482 21.378,14.665 21.167,16.723 21.122,16.770 21.102,16.790 20.549,16.822 19.894,16.839 19.239,16.857 18.621,16.895 18.521,16.925 18.422,16.956 18.102,17.128 17.813,17.310 17.286,17.640 17.286,17.640 17.286,17.640 16.620,17.634 16.620,17.634 16.620,17.634 15.831,17.628 15.435,17.381 15.358,17.376 15.018,17.354 15.124,17.369 14.784,17.354 14.391,17.336 14.391,17.336 14.391,17.336 14.330,15.668 14.330,15.668 14.330,15.668 14.297,14.751 14.255,13.680 14.238,13.287 Z " />
</svg>