<?xml version="1.0" encoding="UTF-8" standalone="no"?>
<!DOCTYPE svg PUBLIC "-//W3C//DTD SVG 20010904//EN" "http://www.w3.org/TR/2001/REC-SVG-20010904/DTD/svg10.dtd"[]>
<svg version="1.1" id="Frosty Editor v1.0.6.3" xmlns="http://www.w3.org/2000/svg" d1p1:xlink="http://www.w3.org/1999/xlink" viewBox="0 0 96 96" xmlns:d1p1="xmlns">
  <path stroke="none" fill="#ffffffff" d="M 36.500,83.600 C 35.600,84.800 37.000,86.200 38.200,85.300 48.200,77.800 66.400,64.000 70.400,60.100 75.900,54.600 75.600,51.100 73.200,48.700 70.800,46.300 67.300,46.000 61.800,51.500 57.800,55.400 44.100,73.600 36.500,83.600 36.500,83.600 36.500,83.600 36.500,83.600 Z " />
  <path stroke="none" fill="#ffffffff" d="M 10.700,57.800 C 9.800,59.000 11.200,60.400 12.400,59.500 22.400,52.000 40.600,38.200 44.600,34.300 50.100,28.800 49.800,25.300 47.400,22.900 45.000,20.500 41.500,20.200 36.000,25.700 32.000,29.600 18.200,47.700 10.700,57.800 10.700,57.800 10.700,57.800 10.700,57.800 Z " />
  <path stroke="none" fill="#ffffffff" d="M 39.300,55.000 C 38.400,56.200 39.800,57.600 41.000,56.700 51.000,49.200 69.200,35.400 73.200,31.500 78.700,26.000 78.400,22.500 76.000,20.100 73.600,17.700 70.100,17.400 64.600,22.900 60.600,26.800 46.800,45.000 39.300,55.000 39.300,55.000 39.300,55.000 39.300,55.000 Z " />
</svg>