<?xml version="1.0" encoding="UTF-8" standalone="no"?>
<!DOCTYPE svg PUBLIC "-//W3C//DTD SVG 20010904//EN" "http://www.w3.org/TR/2001/REC-SVG-20010904/DTD/svg10.dtd"[]>
<svg version="1.1" id="Frosty Editor v1.0.6.3" xmlns="http://www.w3.org/2000/svg" d1p1:xlink="http://www.w3.org/1999/xlink" viewBox="0 0 384 96" xmlns:d1p1="xmlns">
  <path stroke="none" fill="none" d="M 159.010,16.620 C 159.937,16.620 160.863,16.620 161.790,16.620 162.387,17.077 162.983,17.533 163.580,17.990 163.580,18.097 163.580,18.203 163.580,18.310 164.497,18.310 165.413,18.310 166.330,18.310 166.330,17.420 166.330,16.530 166.330,15.640 163.890,15.640 161.450,15.640 159.010,15.640 159.010,15.967 159.010,16.293 159.010,16.620 159.010,16.620 159.010,16.620 159.010,16.620 Z " />
  <path stroke="none" fill="none" d="M 154.390,29.350 C 154.390,27.573 154.390,25.797 154.390,24.020 154.283,24.020 154.177,24.020 154.070,24.020 154.070,23.647 154.070,23.273 154.070,22.900 153.843,22.900 153.617,22.900 153.390,22.900 153.390,23.347 153.390,23.793 153.390,24.240 153.287,24.240 153.183,24.240 153.080,24.240 153.080,25.157 153.080,26.073 153.080,26.990 153.300,26.990 153.520,26.990 153.740,26.990 153.740,27.777 153.740,28.563 153.740,29.350 153.957,29.350 154.173,29.350 154.390,29.350 154.390,29.350 154.390,29.350 154.390,29.350 Z " />
  <path stroke="none" fill="none" d="M 183.060,17.920 C 184.707,17.920 186.353,17.920 188.000,17.920 188.000,18.027 188.000,18.133 188.000,18.240 188.933,18.240 189.867,18.240 190.800,18.240 190.800,17.083 190.800,15.927 190.800,14.770 188.013,14.770 185.227,14.770 182.440,14.770 182.440,15.537 182.440,16.303 182.440,17.070 182.692,17.317 182.902,17.605 183.060,17.920 183.060,17.920 183.060,17.920 183.060,17.920 Z " />
  <path stroke="none" fill="none" d="M 163.350,24.020 C 160.863,24.020 158.377,24.020 155.890,24.020 155.890,25.797 155.890,27.573 155.890,29.350 159.130,29.350 162.370,29.350 165.610,29.350 165.610,27.260 165.610,25.170 165.610,23.080 164.857,23.393 164.103,23.707 163.350,24.020 163.350,24.020 163.350,24.020 163.350,24.020 Z " />
  <path stroke="none" fill="none" d="M 185.000,20.920 C 183.477,20.920 181.953,20.920 180.430,20.920 180.430,20.420 180.430,19.920 180.430,19.420 180.430,19.210 180.220,19.150 180.100,19.150 180.013,19.150 179.929,19.185 179.867,19.247 179.805,19.309 179.770,19.392 179.770,19.480 179.770,20.560 179.770,21.640 179.770,22.720 175.550,22.720 171.330,22.720 167.110,22.720 167.110,24.863 167.110,27.007 167.110,29.150 172.207,29.150 177.303,29.150 182.400,29.150 182.400,26.483 182.400,23.817 182.400,21.150 183.267,21.150 184.133,21.150 185.000,21.150 185.000,21.073 185.000,20.997 185.000,20.920 Z " />
  <path stroke="none" fill="none" d="M 163.580,20.680 C 164.280,20.390 164.980,20.100 165.680,19.810 164.980,19.810 164.280,19.810 163.580,19.810 163.580,20.100 163.580,20.390 163.580,20.680 163.580,20.680 163.580,20.680 163.580,20.680 Z " />
  <path stroke="none" fill="none" d="M 150.740,29.990 C 150.543,29.990 150.347,29.990 150.150,29.990 150.347,30.100 150.543,30.210 150.740,30.320 150.740,30.210 150.740,30.100 150.740,29.990 150.740,29.990 150.740,29.990 150.740,29.990 Z " />
  <path stroke="none" fill="none" d="M 162.080,21.020 C 162.080,20.257 162.080,19.493 162.080,18.730 161.813,18.527 161.547,18.323 161.280,18.120 160.610,18.120 159.940,18.120 159.270,18.120 159.003,18.323 158.737,18.527 158.470,18.730 158.470,19.493 158.470,20.257 158.470,21.020 159.673,21.020 160.877,21.020 162.080,21.020 162.080,21.020 162.080,21.020 162.080,21.020 Z " />
  <path stroke="none" fill="none" d="M 156.970,19.810 C 156.760,19.810 156.550,19.810 156.340,19.810 155.810,18.867 155.280,17.923 154.750,16.980 154.473,16.980 154.197,16.980 153.920,16.980 154.283,17.953 154.647,18.927 155.010,19.900 155.663,19.900 156.317,19.900 156.970,19.900 156.970,19.870 156.970,19.840 156.970,19.810 156.970,19.810 156.970,19.810 156.970,19.810 Z " />
  <path stroke="none" fill="none" d="M 202.950,10.320 C 202.950,9.053 202.950,7.787 202.950,6.520 201.203,6.520 199.457,6.520 197.710,6.520 197.710,5.513 197.710,4.507 197.710,3.500 197.573,3.500 197.437,3.500 197.300,3.500 197.300,5.773 197.300,8.047 197.300,10.320 199.183,10.320 201.067,10.320 202.950,10.320 202.950,10.320 202.950,10.320 202.950,10.320 Z " />
  <path stroke="none" fill="none" d="M 192.310,19.900 C 192.517,19.900 192.723,19.900 192.930,19.900 193.150,20.313 193.370,20.727 193.590,21.140 197.953,21.140 202.317,21.140 206.680,21.140 206.680,20.680 206.680,20.220 206.680,19.760 208.707,19.760 210.733,19.760 212.760,19.760 212.760,19.147 212.760,18.533 212.760,17.920 217.717,17.920 222.673,17.920 227.630,17.920 227.630,17.333 227.630,16.747 227.630,16.160 229.363,16.160 231.097,16.160 232.830,16.160 232.830,14.817 232.830,13.473 232.830,12.130 222.870,12.130 212.910,12.130 202.950,12.130 202.950,12.027 202.950,11.923 202.950,11.820 201.067,11.820 199.183,11.820 197.300,11.820 197.300,11.923 197.300,12.027 197.300,12.130 195.637,12.130 193.973,12.130 192.310,12.130 192.310,14.720 192.310,17.310 192.310,19.900 192.310,19.900 192.310,19.900 192.310,19.900 Z " />
  <path stroke="none" fill="none" d="M 199.210,5.020 C 200.457,5.020 201.703,5.020 202.950,5.020 202.950,4.913 202.950,4.807 202.950,4.700 203.910,4.700 204.870,4.700 205.830,4.700 205.830,4.300 205.830,3.900 205.830,3.500 203.623,3.500 201.417,3.500 199.210,3.500 199.210,4.007 199.210,4.513 199.210,5.020 199.210,5.020 199.210,5.020 199.210,5.020 Z " />
  <path stroke="none" fill="none" d="M 204.160,37.320 C 205.057,37.320 205.953,37.320 206.850,37.320 206.850,39.853 206.850,42.387 206.850,44.920 205.953,44.920 205.057,44.920 204.160,44.920 204.160,42.387 204.160,39.853 204.160,37.320 Z " />
  <path stroke="none" fill="none" d="M 148.890,24.240 C 149.787,24.240 150.683,24.240 151.580,24.240 151.580,25.157 151.580,26.073 151.580,26.990 150.683,26.990 149.787,26.990 148.890,26.990 148.890,26.073 148.890,25.157 148.890,24.240 Z " />
  <path stroke="none" fill="none" d="M 155.890,30.850 C 155.173,30.850 154.457,30.850 153.740,30.850 153.740,31.270 153.740,31.690 153.740,32.110 170.807,32.110 187.873,32.110 204.940,32.110 204.940,31.913 204.940,31.717 204.940,31.520 206.400,31.520 207.860,31.520 209.320,31.520 209.320,31.297 209.320,31.073 209.320,30.850 191.510,30.850 173.700,30.850 155.890,30.850 155.890,30.850 155.890,30.850 155.890,30.850 Z " />
  <path stroke="none" fill="none" d="M 159.000,14.140 C 161.450,14.140 163.900,14.140 166.350,14.140 166.350,13.427 166.350,12.713 166.350,12.000 166.233,12.000 166.117,12.000 166.000,12.000 166.000,11.333 166.000,10.667 166.000,10.000 163.807,9.349 161.473,9.349 159.280,10.000 159.280,10.707 159.280,11.413 159.280,12.120 159.187,12.120 159.093,12.120 159.000,12.120 159.000,12.793 159.000,13.467 159.000,14.140 Z " />
  <path stroke="none" fill="none" d="M 213.950,22.760 C 212.527,22.760 211.103,22.760 209.680,22.760 209.680,23.220 209.680,23.680 209.680,24.140 203.713,24.140 197.747,24.140 191.780,24.140 191.560,23.727 191.340,23.313 191.120,22.900 189.077,22.900 187.033,22.900 184.990,22.900 184.990,22.810 184.990,22.720 184.990,22.630 184.627,22.630 184.263,22.630 183.900,22.630 183.900,24.870 183.900,27.110 183.900,29.350 192.373,29.350 200.847,29.350 209.320,29.350 209.320,29.250 209.320,29.150 209.320,29.050 210.863,29.050 212.407,29.050 213.950,29.050 213.950,26.953 213.950,24.857 213.950,22.760 213.950,22.760 213.950,22.760 213.950,22.760 Z " />
  <path stroke="none" fill="none" d="M 228.820,20.920 C 224.467,20.920 220.113,20.920 215.760,20.920 215.760,21.533 215.760,22.147 215.760,22.760 215.657,22.760 215.553,22.760 215.450,22.760 215.450,24.857 215.450,26.953 215.450,29.050 219.907,29.050 224.363,29.050 228.820,29.050 228.820,26.340 228.820,23.630 228.820,20.920 228.820,20.920 228.820,20.920 228.820,20.920 Z " />
  <path stroke="none" fill="none" d="M 206.840,46.420 C 205.917,46.420 204.993,46.420 204.070,46.420 203.678,47.803 202.934,49.061 201.910,50.070 201.380,50.632 200.812,51.156 200.210,51.640 200.210,53.497 200.210,55.353 200.210,57.210 202.033,57.210 203.857,57.210 205.680,57.210 205.680,57.103 205.680,56.997 205.680,56.890 206.730,56.890 207.780,56.890 208.830,56.890 208.830,53.510 208.830,50.130 208.830,46.750 208.163,46.750 207.497,46.750 206.830,46.750 206.833,46.640 206.837,46.530 206.840,46.420 Z " />
  <path stroke="none" fill="none" d="M 187.990,19.740 C 188.930,19.740 189.870,19.740 190.810,19.740 190.810,19.793 190.810,19.847 190.810,19.900 189.870,19.900 188.930,19.900 187.990,19.900 187.990,19.847 187.990,19.793 187.990,19.740 Z " />
  <path stroke="none" fill="none" d="M 198.710,58.710 C 198.710,56.110 198.710,53.510 198.710,50.910 198.807,50.837 198.903,50.763 199.000,50.690 199.633,50.192 200.232,49.651 200.790,49.070 201.650,48.070 202.650,46.860 202.650,45.660 202.650,42.380 202.650,39.100 202.650,35.820 203.413,35.820 204.177,35.820 204.940,35.820 204.940,35.583 204.940,35.347 204.940,35.110 186.083,35.110 167.227,35.110 148.370,35.110 148.370,34.223 148.370,33.337 148.370,32.450 147.543,32.007 146.717,31.563 145.890,31.120 145.890,27.853 145.890,24.587 145.890,21.320 144.810,21.141 143.702,21.389 142.800,22.010 141.976,22.796 141.492,23.872 141.450,25.010 141.450,25.010 141.450,25.010 141.450,25.010 141.408,25.721 141.605,26.425 142.010,27.010 142.326,27.331 142.772,27.490 143.220,27.440 143.720,27.440 144.220,27.440 144.720,27.440 144.720,30.587 144.720,33.733 144.720,36.880 142.387,36.880 140.053,36.880 137.720,36.880 137.325,36.951 137.033,37.289 137.020,37.690 137.019,38.036 137.285,38.324 137.630,38.350 139.297,38.350 140.963,38.350 142.630,38.350 142.630,40.663 142.630,42.977 142.630,45.290 143.240,46.857 143.850,48.423 144.460,49.990 144.782,49.804 145.116,49.640 145.460,49.500 147.533,48.746 149.788,48.645 151.920,49.210 154.094,49.690 156.056,50.853 157.520,52.530 158.023,51.835 158.763,51.348 159.600,51.160 161.466,50.603 163.463,50.666 165.290,51.340 166.490,47.760 170.290,45.270 175.150,45.270 180.810,45.270 185.410,49.270 185.410,54.270 185.410,57.053 185.410,59.837 185.410,62.620 192.170,62.620 198.930,62.620 205.690,62.620 205.690,61.317 205.690,60.013 205.690,58.710 203.363,58.710 201.037,58.710 198.710,58.710 Z " />
  <path stroke="none" fill="none" d="M 251.150,31.640 C 251.150,27.473 251.150,23.307 251.150,19.140 245.543,19.140 239.937,19.140 234.330,19.140 234.330,19.147 234.330,19.153 234.330,19.160 233.097,19.160 231.863,19.160 230.630,19.160 230.630,19.747 230.630,20.333 230.630,20.920 230.527,20.920 230.423,20.920 230.320,20.920 230.320,23.630 230.320,26.340 230.320,29.050 230.430,29.050 230.540,29.050 230.650,29.050 230.647,29.913 230.643,30.777 230.640,31.640 237.477,31.640 244.313,31.640 251.150,31.640 251.150,31.640 251.150,31.640 251.150,31.640 Z " />
  <path stroke="none" fill="none" d="M 252.650,20.980 C 252.650,24.207 252.650,27.433 252.650,30.660 253.190,30.063 253.730,29.467 254.270,28.870 260.663,29.643 267.057,30.417 273.450,31.190 273.463,27.587 273.477,23.983 273.490,20.380 266.943,21.210 260.397,22.040 253.850,22.870 253.450,22.240 253.050,21.610 252.650,20.980 252.650,20.980 252.650,20.980 252.650,20.980 Z " />
  <path stroke="none" fill="none" d="M 140.900,19.690 C 142.570,18.340 144.900,17.960 147.700,18.560 148.097,18.643 148.493,18.727 148.890,18.810 148.890,19.620 148.890,20.430 148.890,21.240 149.387,21.240 149.883,21.240 150.380,21.240 150.380,20.793 150.380,20.347 150.380,19.900 151.380,19.900 152.380,19.900 153.380,19.900 152.830,18.423 152.280,16.947 151.730,15.470 153.020,15.470 154.310,15.470 155.600,15.470 156.067,16.313 156.533,17.157 157.000,18.000 157.163,17.873 157.327,17.747 157.490,17.620 157.490,15.787 157.490,13.953 157.490,12.120 154.823,12.120 152.157,12.120 149.490,12.120 145.557,11.117 141.623,10.113 137.690,9.110 133.313,9.110 128.937,9.110 124.560,9.110 124.543,14.000 124.527,18.890 124.510,23.780 128.877,23.780 133.243,23.780 137.610,23.780 137.970,23.640 138.330,23.500 138.690,23.360 139.007,21.928 139.783,20.639 140.900,19.690 140.900,19.690 140.900,19.690 140.900,19.690 Z " />
  <path stroke="none" fill="none" d="M 167.850,18.310 C 170.900,18.310 173.950,18.310 177.000,18.310 177.487,17.013 178.725,16.153 180.110,16.150 180.390,16.150 180.668,16.184 180.940,16.250 180.940,15.250 180.940,14.250 180.940,13.250 181.273,13.250 181.607,13.250 181.940,13.250 181.940,12.853 181.940,12.457 181.940,12.060 177.240,12.060 172.540,12.060 167.840,12.060 167.843,14.143 167.847,16.227 167.850,18.310 Z " />
  <path stroke="none" fill="none" d="M 172.380,50.510 C 173.284,50.126 173.906,49.278 174.000,48.300 172.830,48.401 171.693,48.741 170.660,49.300 170.609,50.592 170.758,51.883 171.100,53.130 171.660,54.770 172.000,55.590 173.420,56.300 174.448,56.702 175.547,56.893 176.650,56.860 176.650,56.860 176.650,56.860 176.650,56.780 172.440,55.880 171.970,53.040 171.950,52.920 171.950,52.183 171.950,51.447 171.950,50.710 172.093,50.643 172.237,50.577 172.380,50.510 Z " />
  <path stroke="none" fill="none" d="M 183.460,13.270 C 185.910,13.270 188.360,13.270 190.810,13.270 190.810,12.890 190.810,12.510 190.810,12.130 190.707,12.130 190.603,12.130 190.500,12.130 190.500,11.150 190.500,10.170 190.500,9.190 188.307,8.540 185.973,8.540 183.780,9.190 183.780,10.150 183.780,11.110 183.780,12.070 183.677,12.070 183.573,12.070 183.470,12.070 183.467,12.470 183.463,12.870 183.460,13.270 Z " />
  <path stroke="none" fill="none" d="M 156.100,57.400 C 156.440,55.030 154.470,52.900 151.180,52.080 149.648,51.669 148.028,51.728 146.530,52.250 145.526,52.569 144.733,53.344 144.390,54.340 144.367,54.340 144.343,54.340 144.320,54.340 141.037,61.560 137.753,68.780 134.470,76.000 132.824,79.255 133.045,83.143 135.050,86.190 135.450,86.680 139.050,90.850 144.120,89.620 144.170,89.620 144.220,89.620 144.270,89.620 147.713,89.004 150.506,86.483 151.470,83.120 151.740,81.630 154.770,64.640 156.100,57.440 156.100,57.427 156.100,57.413 156.100,57.400 Z " />
  <path stroke="none" fill="none" d="M 182.380,54.220 C 182.380,51.010 179.310,48.400 175.470,48.220 175.470,48.220 175.470,48.220 175.470,48.220 175.434,49.612 174.676,50.884 173.470,51.580 173.470,51.987 173.470,52.393 173.470,52.800 173.540,53.100 174.120,54.960 177.550,55.480 177.763,55.513 177.977,55.547 178.190,55.580 178.190,55.793 178.190,56.007 178.190,56.220 178.190,56.900 178.190,57.690 178.190,57.690 178.190,57.910 178.190,58.130 178.190,58.350 177.970,58.350 177.750,58.350 177.530,58.350 177.530,58.350 177.230,58.350 176.820,58.350 175.451,58.397 174.087,58.152 172.820,57.630 170.820,56.630 170.310,55.220 169.750,53.630 169.438,52.608 169.266,51.548 169.240,50.480 168.417,51.343 167.956,52.488 167.950,53.680 167.950,54.270 167.950,54.860 167.950,55.450 167.950,55.730 167.950,56.010 167.950,56.290 167.994,58.667 169.953,60.559 172.330,60.520 175.703,60.520 179.077,60.520 182.450,60.520 182.427,58.420 182.403,56.320 182.380,54.220 Z " />
  <path stroke="none" fill="#ffffffff" d="M 273.460,31.200 C 267.067,30.427 260.673,29.653 254.280,28.880 253.740,29.477 253.200,30.073 252.660,30.670 252.660,27.447 252.660,24.223 252.660,21.000 253.060,21.630 253.460,22.260 253.860,22.890 260.410,22.060 266.960,21.230 273.510,20.400 273.493,24.000 273.477,27.600 273.460,31.200 Z M 230.330,29.070 C 230.330,26.353 230.330,23.637 230.330,20.920 230.433,20.920 230.537,20.920 230.640,20.920 230.640,20.333 230.640,19.747 230.640,19.160 231.873,19.160 233.107,19.160 234.340,19.160 234.340,19.160 234.340,19.160 234.340,19.160 239.947,19.160 245.553,19.160 251.160,19.160 251.160,23.327 251.160,27.493 251.160,31.660 244.320,31.660 237.480,31.660 230.640,31.660 230.640,30.790 230.640,29.920 230.640,29.050 230.537,29.057 230.433,29.063 230.330,29.070 Z M 215.460,29.070 C 215.460,26.970 215.460,24.870 215.460,22.770 215.560,22.770 215.660,22.770 215.760,22.770 215.760,22.153 215.760,21.537 215.760,20.920 220.113,20.920 224.467,20.920 228.820,20.920 228.820,23.633 228.820,26.347 228.820,29.060 224.367,29.063 219.913,29.067 215.460,29.070 Z M 209.330,29.070 C 209.330,29.167 209.330,29.263 209.330,29.360 200.853,29.360 192.377,29.360 183.900,29.360 183.900,27.117 183.900,24.873 183.900,22.630 184.267,22.630 184.633,22.630 185.000,22.630 185.000,22.720 185.000,22.810 185.000,22.900 187.047,22.900 189.093,22.900 191.140,22.900 191.360,23.313 191.580,23.727 191.800,24.140 197.767,24.140 203.733,24.140 209.700,24.140 209.700,23.680 209.700,23.220 209.700,22.760 211.133,22.760 212.567,22.760 214.000,22.760 214.000,24.860 214.000,26.960 214.000,29.060 212.443,29.063 210.887,29.067 209.330,29.070 Z M 208.830,56.900 C 207.780,56.900 206.730,56.900 205.680,56.900 205.680,57.007 205.680,57.113 205.680,57.220 203.857,57.220 202.033,57.220 200.210,57.220 200.210,55.360 200.210,53.500 200.210,51.640 200.812,51.156 201.380,50.632 201.910,50.070 202.934,49.061 203.678,47.803 204.070,46.420 204.993,46.420 205.917,46.420 206.840,46.420 206.840,46.530 206.840,46.640 206.840,46.750 207.507,46.750 208.173,46.750 208.840,46.750 208.837,50.133 208.833,53.517 208.830,56.900 Z M 185.400,62.580 C 185.400,59.790 185.400,57.000 185.400,54.210 185.400,49.210 180.800,45.210 175.140,45.210 170.320,45.210 166.480,47.690 165.280,51.280 163.453,50.606 161.456,50.543 159.590,51.100 158.753,51.288 158.013,51.775 157.510,52.470 156.046,50.793 154.084,49.630 151.910,49.150 149.778,48.585 147.523,48.686 145.450,49.440 145.106,49.580 144.772,49.744 144.450,49.930 143.840,48.363 143.230,46.797 142.620,45.230 142.620,42.917 142.620,40.603 142.620,38.290 140.953,38.290 139.287,38.290 137.620,38.290 137.275,38.264 137.009,37.976 137.010,37.630 137.023,37.229 137.315,36.891 137.710,36.820 140.043,36.820 142.377,36.820 144.710,36.820 144.710,33.683 144.710,30.547 144.710,27.410 144.210,27.410 143.710,27.410 143.210,27.410 142.765,27.465 142.320,27.314 142.000,27.000 141.595,26.415 141.398,25.711 141.440,25.000 141.440,25.000 141.440,25.000 141.440,25.000 141.482,23.862 141.966,22.786 142.790,22.000 143.692,21.379 144.800,21.131 145.880,21.310 145.880,24.577 145.880,27.843 145.880,31.110 146.707,31.553 147.533,31.997 148.360,32.440 148.360,33.327 148.360,34.213 148.360,35.100 167.217,35.100 186.073,35.100 204.930,35.100 204.930,35.337 204.930,35.573 204.930,35.810 204.167,35.810 203.403,35.810 202.640,35.810 202.640,39.090 202.640,42.370 202.640,45.650 202.640,46.840 201.640,48.100 200.780,49.060 200.225,49.644 199.630,50.189 199.000,50.690 198.903,50.763 198.807,50.837 198.710,50.910 198.710,53.510 198.710,56.110 198.710,58.710 201.043,58.710 203.377,58.710 205.710,58.710 205.710,59.997 205.710,61.283 205.710,62.570 198.940,62.573 192.170,62.577 185.400,62.580 Z M 171.940,53.000 C 171.940,53.130 172.430,56.000 176.640,56.860 176.640,56.860 176.640,56.910 176.640,56.940 175.537,56.973 174.438,56.782 173.410,56.380 171.990,55.670 171.650,54.850 171.090,53.210 170.748,51.963 170.599,50.672 170.650,49.380 171.683,48.821 172.820,48.481 173.990,48.380 173.902,49.351 173.293,50.197 172.400,50.590 172.250,50.657 172.100,50.723 171.950,50.790 171.950,51.527 171.950,52.263 171.950,53.000 171.947,53.000 171.943,53.000 171.940,53.000 Z M 172.270,60.560 C 169.893,60.599 167.934,58.707 167.890,56.330 167.890,56.050 167.890,55.770 167.890,55.490 167.890,54.900 167.890,54.310 167.890,53.720 167.896,52.528 168.357,51.383 169.180,50.520 169.206,51.588 169.378,52.648 169.690,53.670 170.250,55.280 170.690,56.670 172.760,57.670 174.027,58.192 175.391,58.437 176.760,58.390 177.170,58.390 177.430,58.390 177.470,58.390 177.690,58.390 177.910,58.390 178.130,58.390 178.130,58.170 178.130,57.950 178.130,57.730 178.130,57.730 178.130,56.940 178.130,56.260 178.130,56.047 178.130,55.833 178.130,55.620 177.917,55.587 177.703,55.553 177.490,55.520 174.060,55.000 173.490,53.140 173.410,52.840 173.410,52.443 173.410,52.047 173.410,51.650 174.616,50.954 175.374,49.682 175.410,48.290 175.410,48.290 175.410,48.290 175.410,48.290 179.250,48.440 182.320,51.060 182.320,54.290 182.320,56.397 182.320,58.503 182.320,60.610 178.970,60.593 175.620,60.577 172.270,60.560 Z M 151.480,83.090 C 150.516,86.453 147.723,88.974 144.280,89.590 144.230,89.590 144.180,89.590 144.130,89.590 139.060,90.810 135.460,86.640 135.060,86.160 133.063,83.122 132.838,79.249 134.470,76.000 137.753,68.783 141.037,61.567 144.320,54.350 144.343,54.350 144.367,54.350 144.390,54.350 144.733,53.354 145.526,52.579 146.530,52.260 148.028,51.738 149.648,51.679 151.180,52.090 154.460,52.900 156.440,55.090 156.100,57.410 156.100,57.410 156.100,57.410 156.100,57.410 154.770,64.600 151.740,81.590 151.480,83.080 151.480,83.083 151.480,83.087 151.480,83.090 Z M 137.600,23.780 C 133.233,23.780 128.867,23.780 124.500,23.780 124.517,18.890 124.533,14.000 124.550,9.110 128.927,9.110 133.303,9.110 137.680,9.110 141.637,10.073 145.593,11.037 149.550,12.000 152.217,12.000 154.883,12.000 157.550,12.000 157.550,13.833 157.550,15.667 157.550,17.500 157.367,17.667 157.183,17.833 157.000,18.000 156.537,17.173 156.073,16.347 155.610,15.520 154.320,15.520 153.030,15.520 151.740,15.520 152.290,16.997 152.840,18.473 153.390,19.950 152.390,19.950 151.390,19.950 150.390,19.950 150.390,20.397 150.390,20.843 150.390,21.290 149.893,21.290 149.397,21.290 148.900,21.290 148.900,20.467 148.900,19.643 148.900,18.820 148.503,18.737 148.107,18.653 147.710,18.570 144.860,17.970 142.570,18.350 140.910,19.700 139.793,20.649 139.017,21.938 138.700,23.370 138.333,23.507 137.967,23.643 137.600,23.780 Z M 159.320,10.000 C 161.500,9.357 163.820,9.357 166.000,10.000 166.000,10.667 166.000,11.333 166.000,12.000 166.107,12.000 166.213,12.000 166.320,12.000 166.320,12.700 166.320,13.400 166.320,14.100 163.880,14.100 161.440,14.100 159.000,14.100 159.000,13.430 159.000,12.760 159.000,12.090 159.103,12.090 159.207,12.090 159.310,12.090 159.313,11.393 159.317,10.697 159.320,10.000 Z M 182.000,12.060 C 182.000,12.463 182.000,12.867 182.000,13.270 181.667,13.270 181.333,13.270 181.000,13.270 181.000,14.270 181.000,15.270 181.000,16.270 180.728,16.204 180.450,16.170 180.170,16.170 178.768,16.145 177.501,17.000 177.000,18.310 173.957,18.310 170.913,18.310 167.870,18.310 167.870,16.207 167.870,14.103 167.870,12.000 172.580,12.020 177.290,12.040 182.000,12.060 Z M 183.780,9.190 C 185.973,8.540 188.307,8.540 190.500,9.190 190.500,10.170 190.500,11.150 190.500,12.130 190.603,12.130 190.707,12.130 190.810,12.130 190.810,12.513 190.810,12.897 190.810,13.280 188.360,13.280 185.910,13.280 183.460,13.280 183.460,12.873 183.460,12.467 183.460,12.060 183.563,12.060 183.667,12.060 183.770,12.060 183.773,11.103 183.777,10.147 183.780,9.190 Z M 190.780,19.900 C 189.853,19.900 188.927,19.900 188.000,19.900 188.000,19.847 188.000,19.793 188.000,19.740 188.940,19.740 189.880,19.740 190.820,19.740 190.807,19.793 190.793,19.847 190.780,19.900 Z M 182.400,14.770 C 185.187,14.770 187.973,14.770 190.760,14.770 190.760,15.923 190.760,17.077 190.760,18.230 189.840,18.230 188.920,18.230 188.000,18.230 188.000,18.123 188.000,18.017 188.000,17.910 186.357,17.910 184.713,17.910 183.070,17.910 182.905,17.597 182.688,17.313 182.430,17.070 182.420,16.303 182.410,15.537 182.400,14.770 Z M 182.400,29.140 C 177.303,29.140 172.207,29.140 167.110,29.140 167.110,26.997 167.110,24.853 167.110,22.710 171.327,22.710 175.543,22.710 179.760,22.710 179.760,21.633 179.760,20.557 179.760,19.480 179.760,19.392 179.795,19.309 179.857,19.247 179.919,19.185 180.003,19.150 180.090,19.150 180.210,19.150 180.420,19.210 180.420,19.420 180.420,19.920 180.420,20.420 180.420,20.920 181.947,20.920 183.473,20.920 185.000,20.920 185.000,20.993 185.000,21.067 185.000,21.140 184.133,21.140 183.267,21.140 182.400,21.140 182.400,23.807 182.400,26.473 182.400,29.140 Z M 155.890,29.350 C 155.890,27.567 155.890,25.783 155.890,24.000 158.377,24.000 160.863,24.000 163.350,24.000 164.103,23.690 164.857,23.380 165.610,23.070 165.610,25.160 165.610,27.250 165.610,29.340 162.370,29.343 159.130,29.347 155.890,29.350 Z M 150.740,30.000 C 150.740,30.107 150.740,30.213 150.740,30.320 150.540,30.213 150.340,30.107 150.140,30.000 150.340,30.000 150.540,30.000 150.740,30.000 Z M 153.080,27.000 C 153.080,26.080 153.080,25.160 153.080,24.240 153.183,24.240 153.287,24.240 153.390,24.240 153.390,23.793 153.390,23.347 153.390,22.900 153.620,22.900 153.850,22.900 154.080,22.900 154.080,23.267 154.080,23.633 154.080,24.000 154.187,24.000 154.293,24.000 154.400,24.000 154.400,25.777 154.400,27.553 154.400,29.330 154.183,29.330 153.967,29.330 153.750,29.330 153.750,28.553 153.750,27.777 153.750,27.000 153.527,27.000 153.303,27.000 153.080,27.000 Z M 166.350,18.260 C 165.433,18.260 164.517,18.260 163.600,18.260 163.600,18.173 163.600,18.087 163.600,18.000 163.003,17.543 162.407,17.087 161.810,16.630 160.873,16.630 159.937,16.630 159.000,16.630 159.000,16.297 159.000,15.963 159.000,15.630 161.440,15.630 163.880,15.630 166.320,15.630 166.330,16.507 166.340,17.383 166.350,18.260 Z M 159.290,18.070 C 159.957,18.070 160.623,18.070 161.290,18.070 161.557,18.273 161.823,18.477 162.090,18.680 162.090,19.453 162.090,20.227 162.090,21.000 160.887,21.000 159.683,21.000 158.480,21.000 158.480,20.243 158.480,19.487 158.480,18.730 158.750,18.510 159.020,18.290 159.290,18.070 Z M 163.600,20.630 C 163.600,20.340 163.600,20.050 163.600,19.760 164.300,19.760 165.000,19.760 165.700,19.760 165.000,20.050 164.300,20.340 163.600,20.630 Z M 153.940,16.930 C 154.217,16.930 154.493,16.930 154.770,16.930 155.300,17.873 155.830,18.817 156.360,19.760 156.573,19.760 156.787,19.760 157.000,19.760 157.000,19.790 157.000,19.820 157.000,19.850 156.333,19.850 155.667,19.850 155.000,19.850 154.647,18.877 154.293,17.903 153.940,16.930 Z M 148.940,24.200 C 149.837,24.200 150.733,24.200 151.630,24.200 151.630,25.133 151.630,26.067 151.630,27.000 150.733,27.000 149.837,27.000 148.940,27.000 148.940,26.067 148.940,25.133 148.940,24.200 Z M 204.940,31.470 C 204.940,31.670 204.940,31.870 204.940,32.070 187.873,32.070 170.807,32.070 153.740,32.070 153.740,31.663 153.740,31.257 153.740,30.850 172.267,30.850 190.793,30.850 209.320,30.850 209.320,31.073 209.320,31.297 209.320,31.520 207.860,31.503 206.400,31.487 204.940,31.470 Z M 206.840,37.270 C 206.840,39.803 206.840,42.337 206.840,44.870 205.943,44.870 205.047,44.870 204.150,44.870 204.150,42.337 204.150,39.803 204.150,37.270 205.047,37.270 205.943,37.270 206.840,37.270 Z M 197.300,12.080 C 197.300,11.977 197.300,11.873 197.300,11.770 199.180,11.770 201.060,11.770 202.940,11.770 202.940,11.873 202.940,11.977 202.940,12.080 212.900,12.080 222.860,12.080 232.820,12.080 232.820,13.413 232.820,14.747 232.820,16.080 231.087,16.080 229.353,16.080 227.620,16.080 227.620,16.663 227.620,17.247 227.620,17.830 222.667,17.830 217.713,17.830 212.760,17.830 212.760,18.443 212.760,19.057 212.760,19.670 210.737,19.670 208.713,19.670 206.690,19.670 206.690,20.130 206.690,20.590 206.690,21.050 202.323,21.050 197.957,21.050 193.590,21.050 193.370,20.637 193.150,20.223 192.930,19.810 192.723,19.810 192.517,19.810 192.310,19.810 192.310,17.250 192.310,14.690 192.310,12.130 193.973,12.113 195.637,12.097 197.300,12.080 Z M 197.710,3.450 C 197.710,4.450 197.710,5.450 197.710,6.450 199.453,6.450 201.197,6.450 202.940,6.450 202.940,7.717 202.940,8.983 202.940,10.250 201.060,10.250 199.180,10.250 197.300,10.250 197.300,8.000 197.300,5.750 197.300,3.500 197.437,3.483 197.573,3.467 197.710,3.450 Z M 205.830,4.650 C 204.870,4.650 203.910,4.650 202.950,4.650 202.950,4.767 202.950,4.883 202.950,5.000 201.707,5.000 200.463,5.000 199.220,5.000 199.220,4.500 199.220,4.000 199.220,3.500 201.427,3.500 203.633,3.500 205.840,3.500 205.837,3.883 205.833,4.267 205.830,4.650 Z M 255.360,19.650 C 254.620,18.480 253.880,17.310 253.140,16.140 247.370,16.140 241.600,16.140 235.830,16.140 235.830,13.807 235.830,11.473 235.830,9.140 225.870,9.140 215.910,9.140 205.950,9.140 205.950,8.660 205.950,8.180 205.950,7.700 206.910,7.700 207.870,7.700 208.830,7.700 208.830,5.300 208.830,2.900 208.830,0.500 203.987,0.500 199.143,0.500 194.300,0.500 194.300,3.377 194.300,6.253 194.300,9.130 194.030,9.130 193.760,9.130 193.490,9.130 193.490,9.003 193.490,8.877 193.490,8.750 193.490,6.810 191.170,5.750 187.130,5.750 183.090,5.750 180.780,6.860 180.780,8.750 180.780,8.857 180.780,8.963 180.780,9.070 176.853,9.047 172.927,9.023 169.000,9.000 168.640,7.370 166.380,6.440 162.690,6.440 159.000,6.440 156.690,7.380 156.380,9.050 154.287,9.050 152.193,9.050 150.100,9.050 146.147,8.083 142.193,7.117 138.240,6.150 132.683,6.120 127.127,6.090 121.570,6.060 121.543,12.950 121.517,19.840 121.490,26.730 127.043,26.730 132.597,26.730 138.150,26.730 138.297,26.673 138.443,26.617 138.590,26.560 138.752,27.460 139.148,28.302 139.740,29.000 140.276,29.593 140.970,30.020 141.740,30.230 141.740,31.440 141.740,32.650 141.740,33.860 140.313,33.860 138.887,33.860 137.460,33.860 137.410,33.860 137.360,33.860 137.310,33.860 135.394,34.140 133.980,35.794 134.000,37.730 134.046,39.579 135.460,41.104 137.300,41.290 138.057,41.290 138.813,41.290 139.570,41.290 139.570,42.790 139.570,44.290 139.570,45.790 140.380,47.893 141.190,49.997 142.000,52.100 138.610,59.587 135.220,67.073 131.830,74.560 129.645,78.812 129.936,83.914 132.590,87.890 132.613,87.923 132.637,87.957 132.660,87.990 133.821,89.377 135.232,90.534 136.820,91.400 136.713,91.667 136.607,91.933 136.500,92.200 136.237,92.811 136.336,93.517 136.757,94.032 137.178,94.546 137.851,94.783 138.502,94.646 139.152,94.509 139.672,94.021 139.850,93.380 139.957,93.130 140.063,92.880 140.170,92.630 140.855,92.768 141.552,92.838 142.250,92.840 143.099,92.838 143.945,92.737 144.770,92.540 149.399,91.738 153.149,88.338 154.400,83.810 154.400,83.767 154.400,83.723 154.400,83.680 154.400,83.420 159.010,57.850 159.580,55.070 159.580,55.027 159.580,54.983 159.580,54.940 159.580,54.940 159.710,54.160 160.200,54.050 162.950,53.420 164.050,54.000 164.390,54.270 164.688,54.512 164.846,54.887 164.810,55.270 164.810,55.377 164.810,55.483 164.810,55.590 164.810,55.590 164.810,55.590 164.810,55.590 164.810,55.853 164.810,56.117 164.810,56.380 164.870,60.403 168.167,63.623 172.190,63.590 175.560,63.590 178.930,63.590 182.300,63.590 182.300,64.257 182.300,64.923 182.300,65.590 191.060,65.590 199.820,65.590 208.580,65.590 208.580,63.690 208.580,61.790 208.580,59.890 209.630,59.890 210.680,59.890 211.730,59.890 211.730,54.510 211.730,49.130 211.730,43.750 211.063,43.750 210.397,43.750 209.730,43.750 209.730,40.670 209.730,37.590 209.730,34.510 210.557,34.510 211.383,34.510 212.210,34.510 212.210,33.690 212.210,32.870 212.210,32.050 217.317,32.050 222.423,32.050 227.530,32.050 227.530,32.913 227.530,33.777 227.530,34.640 233.677,34.640 239.823,34.640 245.970,34.640 245.970,35.240 245.970,35.840 245.970,36.440 247.347,36.440 248.723,36.440 250.100,36.440 250.100,35.840 250.100,35.240 250.100,34.640 251.063,34.640 252.027,34.640 252.990,34.640 253.777,33.773 254.563,32.907 255.350,32.040 262.350,32.883 269.350,33.727 276.350,34.570 276.373,28.703 276.397,22.837 276.420,16.970 269.400,17.863 262.380,18.757 255.360,19.650 Z " />
</svg>