<?xml version="1.0" encoding="UTF-8" standalone="no"?>
<!DOCTYPE svg PUBLIC "-//W3C//DTD SVG 20010904//EN" "http://www.w3.org/TR/2001/REC-SVG-20010904/DTD/svg10.dtd"[]>
<svg version="1.1" id="Frosty Editor v1.0.6.3" xmlns="http://www.w3.org/2000/svg" d1p1:xlink="http://www.w3.org/1999/xlink" viewBox="0 0 25 25" xmlns:d1p1="xmlns">
  <path stroke="none" fill="#ffffffff" d="M 8.772,1.440 C 8.575,1.445 8.377,1.493 8.196,1.583 8.175,1.596 8.175,1.596 8.175,1.596 7.913,1.747 7.724,1.972 7.607,2.272 7.150,3.428 6.692,4.583 6.235,5.739 6.065,6.099 6.032,6.496 6.134,6.873 6.135,6.892 6.136,6.910 6.137,6.929 6.163,6.973 6.163,6.973 6.163,6.973 6.339,7.278 6.624,7.520 6.968,7.612 7.590,7.834 8.011,7.708 8.273,7.557 8.556,7.393 8.777,7.120 8.948,6.760 9.391,5.632 9.835,4.504 10.279,3.375 10.396,3.075 10.398,2.725 10.290,2.439 10.277,2.417 10.277,2.417 10.277,2.417 10.085,2.034 9.762,1.726 9.346,1.559 9.166,1.474 8.969,1.435 8.772,1.440 Z M 13.098,1.614 C 12.919,1.617 12.740,1.648 12.571,1.708 12.527,1.733 12.527,1.733 12.527,1.733 12.375,1.821 12.375,1.821 12.375,1.821 12.082,2.019 11.839,2.305 11.722,2.605 11.188,3.980 10.654,5.354 10.120,6.728 9.700,7.814 9.990,8.519 10.985,8.933 11.736,9.226 12.257,9.071 12.562,8.895 12.977,8.655 13.212,8.258 13.308,7.970 13.829,6.623 14.349,5.275 14.870,3.927 15.191,3.073 14.728,2.120 13.758,1.750 13.555,1.654 13.327,1.610 13.098,1.614 Z M 16.880,3.733 C 16.702,3.736 16.523,3.768 16.354,3.828 16.310,3.853 16.310,3.853 16.310,3.853 16.157,3.941 16.157,3.941 16.157,3.941 15.864,4.139 15.622,4.425 15.505,4.725 14.970,6.100 14.437,7.474 13.902,8.848 13.483,9.934 13.773,10.638 14.768,11.052 15.518,11.346 16.039,11.190 16.345,11.014 16.759,10.775 16.995,10.377 17.090,10.089 17.611,8.742 18.132,7.394 18.653,6.047 18.974,5.193 18.510,4.239 17.540,3.869 17.338,3.773 17.110,3.729 16.880,3.733 Z M 5.585,6.306 C 5.528,6.333 5.471,6.360 5.418,6.391 5.178,6.529 5.007,6.686 4.861,6.886 3.958,8.192 2.684,11.021 2.826,11.870 2.944,12.529 4.112,14.501 5.936,17.460 6.647,18.590 6.861,18.961 6.924,19.070 6.820,20.602 6.717,22.135 6.613,23.668 9.734,23.737 12.856,23.805 15.977,23.873 16.200,22.378 16.422,20.884 16.645,19.389 16.719,19.317 16.816,19.231 16.912,19.147 17.547,18.635 18.131,18.036 18.656,17.384 19.287,16.613 19.890,15.393 20.277,14.501 20.410,14.211 20.543,13.920 20.676,13.630 20.477,13.666 20.277,13.702 20.078,13.738 20.057,13.734 20.035,13.732 20.013,13.733 19.740,13.738 19.468,13.744 19.196,13.749 18.958,13.739 18.720,13.692 18.497,13.610 18.163,15.408 17.073,17.053 15.357,18.044 12.243,19.842 8.287,18.783 6.489,15.668 5.918,14.679 5.636,13.604 5.616,12.541 5.810,12.366 5.977,12.143 6.120,11.878 6.675,10.659 7.232,9.440 7.787,8.221 7.788,8.218 7.788,8.215 7.789,8.213 7.689,8.223 7.587,8.226 7.486,8.223 7.167,8.214 6.850,8.138 6.564,7.999 6.564,7.999 6.564,7.998 6.563,7.998 6.484,7.960 6.407,7.916 6.333,7.867 6.327,7.864 6.322,7.860 6.316,7.857 6.245,7.809 6.178,7.756 6.114,7.700 6.109,7.695 6.103,7.692 6.098,7.687 6.034,7.629 5.975,7.567 5.919,7.500 5.916,7.496 5.911,7.492 5.908,7.488 5.850,7.417 5.797,7.341 5.750,7.261 5.712,7.184 5.682,7.108 5.658,7.031 5.656,7.024 5.654,7.018 5.652,7.011 5.629,6.938 5.613,6.865 5.601,6.792 5.600,6.787 5.599,6.782 5.598,6.777 5.586,6.700 5.579,6.623 5.577,6.546 5.575,6.466 5.578,6.386 5.585,6.306 Z M 20.510,6.967 C 20.313,6.971 20.115,7.020 19.934,7.110 19.913,7.122 19.913,7.122 19.913,7.122 19.651,7.274 19.462,7.499 19.344,7.799 18.887,8.955 18.430,10.110 17.973,11.266 17.803,11.626 17.770,12.022 17.872,12.400 17.873,12.419 17.874,12.437 17.875,12.456 17.900,12.500 17.900,12.500 17.900,12.500 18.077,12.805 18.362,13.047 18.706,13.140 19.328,13.362 19.749,13.235 20.011,13.084 20.294,12.920 20.515,12.647 20.686,12.288 21.129,11.159 21.573,10.030 22.017,8.902 22.134,8.602 22.135,8.252 22.027,7.965 22.015,7.944 22.015,7.944 22.015,7.944 21.823,7.561 21.500,7.252 21.083,7.086 20.904,7.001 20.707,6.962 20.510,6.967 Z M 9.426,8.115 C 9.089,8.216 8.763,8.348 8.453,8.518 8.836,8.444 9.198,8.410 9.540,8.408 9.494,8.315 9.455,8.217 9.426,8.115 Z M 8.453,8.518 C 8.449,8.519 8.446,8.519 8.442,8.520 8.439,8.522 8.437,8.525 8.434,8.527 8.440,8.524 8.447,8.522 8.453,8.518 Z M 7.974,9.212 C 7.864,9.470 7.749,9.725 7.634,9.981 7.665,10.240 7.697,10.499 7.729,10.758 7.779,10.769 7.829,10.783 7.879,10.799 8.064,10.863 8.242,10.946 8.411,11.047 8.541,11.127 8.662,11.222 8.771,11.328 8.446,11.201 8.101,11.152 7.771,11.185 7.804,11.476 7.837,11.767 7.870,12.059 8.297,12.030 8.733,12.057 9.167,12.139 9.833,12.242 10.462,12.576 10.924,13.073 11.186,13.380 11.466,13.969 11.375,14.487 11.450,14.500 11.526,14.513 11.602,14.526 11.750,14.371 11.898,14.217 12.046,14.063 12.056,13.970 12.066,13.877 12.075,13.785 11.995,13.534 11.915,13.284 11.834,13.034 11.821,13.013 11.821,13.013 11.821,13.013 11.824,13.003 11.827,12.993 11.831,12.984 11.876,12.855 11.922,12.727 11.967,12.599 11.971,12.589 11.974,12.580 11.977,12.570 11.986,12.563 11.995,12.556 12.004,12.549 12.017,12.541 12.030,12.534 12.043,12.526 11.919,12.466 11.809,12.401 11.722,12.336 11.267,11.968 10.941,11.486 10.788,10.968 10.726,10.951 10.663,10.933 10.601,10.916 10.433,10.870 10.263,10.824 10.096,10.772 9.929,10.719 9.766,10.668 9.598,10.611 9.431,10.553 9.264,10.495 9.100,10.435 8.936,10.375 8.768,10.306 8.606,10.231 8.778,10.235 8.953,10.243 9.130,10.254 9.306,10.265 9.484,10.277 9.652,10.302 9.821,10.327 9.998,10.345 10.171,10.369 10.258,10.380 10.342,10.395 10.427,10.409 10.421,10.226 10.421,10.054 10.427,9.874 10.428,9.787 10.430,9.701 10.432,9.615 10.500,9.616 10.568,9.616 10.636,9.617 10.639,9.576 10.639,9.534 10.642,9.492 10.329,9.460 10.017,9.428 9.704,9.396 9.666,9.703 9.718,10.024 9.854,10.327 9.742,10.223 9.642,10.107 9.559,9.983 9.448,9.824 9.357,9.656 9.288,9.482 9.271,9.435 9.257,9.389 9.246,9.341 8.822,9.298 8.398,9.255 7.974,9.212 Z M 14.158,11.401 C 14.218,11.743 14.170,12.064 13.978,12.325 13.563,12.888 12.824,12.833 12.261,12.620 12.206,12.647 12.151,12.674 12.097,12.702 12.054,12.806 12.011,12.910 11.969,13.014 12.035,13.261 12.101,13.509 12.167,13.756 12.169,13.760 12.172,13.764 12.174,13.768 12.173,13.779 12.173,13.779 12.173,13.779 12.157,13.880 12.141,13.981 12.125,14.082 12.124,14.088 12.123,14.094 12.122,14.099 12.119,14.102 12.114,14.105 12.110,14.108 11.946,14.258 11.782,14.408 11.618,14.558 11.615,14.560 11.613,14.562 11.611,14.564 11.531,14.543 11.452,14.523 11.372,14.502 11.324,14.757 11.185,14.993 10.905,15.170 10.053,15.707 8.657,15.058 7.813,14.022 7.398,13.509 6.936,12.769 6.770,11.818 6.683,12.000 6.596,12.182 6.509,12.363 5.983,12.834 6.328,13.553 6.456,14.140 6.482,14.232 6.510,14.327 6.542,14.423 6.543,14.424 6.543,14.426 6.544,14.427 6.580,14.512 6.620,14.597 6.660,14.681 6.822,14.775 6.979,14.873 7.136,14.973 7.158,14.816 7.180,14.658 7.203,14.501 6.946,14.249 6.693,14.005 6.444,13.759 6.435,13.750 6.426,13.741 6.417,13.732 6.418,13.722 6.418,13.712 6.419,13.703 6.438,13.342 6.461,12.981 6.488,12.621 6.518,12.970 6.544,13.320 6.565,13.668 6.856,13.894 7.143,14.124 7.428,14.360 7.443,14.373 7.459,14.385 7.475,14.398 7.474,14.423 7.473,14.447 7.471,14.471 7.461,14.662 7.446,14.853 7.433,15.043 7.454,15.045 7.476,15.048 7.498,15.050 7.520,15.049 7.542,15.048 7.564,15.046 7.578,15.046 7.593,15.046 7.607,15.045 7.609,15.050 7.610,15.055 7.611,15.061 7.640,15.065 7.669,15.068 7.698,15.072 7.709,15.073 7.720,15.075 7.732,15.076 7.744,15.084 7.757,15.092 7.770,15.100 7.955,15.221 8.135,15.344 8.318,15.467 8.357,15.494 8.397,15.522 8.437,15.549 8.418,15.596 8.400,15.644 8.381,15.691 8.348,15.778 8.314,15.864 8.280,15.952 8.271,16.008 8.261,16.065 8.251,16.121 8.414,16.204 8.577,16.287 8.740,16.370 8.849,16.420 8.946,16.473 9.045,16.535 9.144,16.594 9.244,16.654 9.343,16.713 9.372,16.730 9.400,16.747 9.429,16.764 9.433,16.798 9.438,16.832 9.442,16.866 9.458,16.993 9.473,17.120 9.489,17.246 9.513,17.363 9.536,17.480 9.560,17.597 10.226,17.933 10.929,18.150 11.631,18.242 11.559,18.150 11.487,18.058 11.414,17.966 11.382,17.925 11.351,17.885 11.319,17.844 11.337,17.799 11.356,17.753 11.374,17.708 11.428,17.574 11.482,17.439 11.537,17.305 11.438,17.241 10.832,16.334 10.832,16.334 11.057,16.472 11.281,16.610 11.506,16.748 11.647,16.836 11.787,16.925 11.928,17.012 11.987,17.049 12.046,17.086 12.105,17.123 12.080,17.189 12.054,17.255 12.028,17.321 11.969,17.474 11.910,17.628 11.850,17.782 11.914,17.861 11.978,17.941 12.042,18.021 12.175,18.112 12.308,18.204 12.441,18.295 13.143,18.294 13.828,18.168 14.456,17.919 14.440,17.804 14.425,17.690 14.414,17.576 14.399,17.428 14.382,17.287 14.368,17.134 14.055,16.748 13.754,16.350 13.464,15.940 13.413,15.870 13.362,15.799 13.311,15.728 13.380,15.677 13.450,15.626 13.519,15.575 13.664,15.466 13.805,15.368 13.959,15.268 13.893,15.199 13.826,15.131 13.762,15.059 13.633,14.916 13.505,14.765 13.378,14.627 13.251,14.489 13.127,14.336 13.006,14.182 12.885,14.029 12.767,13.875 12.655,13.721 12.819,13.826 12.982,13.938 13.135,14.052 13.289,14.165 13.443,14.283 13.596,14.402 13.750,14.520 13.895,14.638 14.044,14.759 14.193,14.881 14.339,15.008 14.483,15.134 14.556,15.197 14.629,15.260 14.702,15.323 14.624,15.384 14.546,15.445 14.468,15.506 14.325,15.618 14.179,15.727 14.033,15.836 14.290,16.191 14.539,16.547 14.777,16.911 14.791,16.933 14.805,16.955 14.820,16.976 14.820,17.028 14.820,17.028 14.820,17.028 14.818,17.203 14.806,17.376 14.806,17.551 14.804,17.624 14.797,17.697 14.794,17.770 14.835,17.749 14.876,17.729 14.917,17.708 15.131,17.436 15.345,17.164 15.558,16.892 15.581,16.863 15.604,16.834 15.628,16.805 15.661,16.814 15.695,16.825 15.729,16.834 15.824,16.861 15.918,16.888 16.012,16.915 16.318,16.615 16.570,16.283 16.769,15.927 16.750,15.773 16.731,15.619 16.711,15.466 16.711,15.429 16.711,15.429 16.711,15.429 16.717,15.420 16.723,15.412 16.728,15.403 16.805,15.288 16.881,15.173 16.957,15.059 16.963,15.050 16.968,15.041 16.974,15.033 17.000,15.033 17.000,15.033 17.000,15.033 17.051,15.018 17.102,15.004 17.153,14.990 17.471,13.864 17.346,12.605 16.775,11.441 16.545,11.595 16.284,11.694 16.011,11.745 16.127,11.832 16.244,11.919 16.359,12.008 16.377,12.022 16.395,12.036 16.413,12.050 16.413,12.070 16.413,12.091 16.414,12.111 16.422,12.480 16.425,12.848 16.423,13.216 16.659,13.448 16.893,13.685 17.124,13.924 16.853,13.723 16.584,13.518 16.317,13.310 16.309,13.305 16.302,13.299 16.295,13.294 16.293,13.281 16.292,13.269 16.291,13.256 16.255,12.908 16.223,12.558 16.188,12.201 16.063,12.122 15.939,12.041 15.815,11.961 15.794,12.195 15.771,12.427 15.736,12.662 15.729,12.712 15.722,12.762 15.715,12.811 15.658,12.815 15.601,12.819 15.544,12.823 15.426,12.826 15.305,12.820 15.190,12.827 15.191,12.881 15.193,12.935 15.193,12.988 15.192,13.097 15.193,13.206 15.188,13.317 15.182,13.428 15.179,13.536 15.171,13.648 15.162,13.759 15.151,13.868 15.134,13.981 15.100,13.878 15.071,13.775 15.048,13.673 15.024,13.572 14.999,13.466 14.974,13.355 14.950,13.245 14.936,13.144 14.917,13.039 14.897,12.934 14.883,12.829 14.870,12.722 14.849,12.569 14.849,12.569 14.849,12.569 14.915,12.564 14.981,12.560 15.047,12.556 15.169,12.547 15.289,12.542 15.411,12.535 15.443,12.287 15.481,12.039 15.528,11.790 15.528,11.789 15.529,11.788 15.529,11.786 15.051,11.781 14.566,11.645 14.158,11.401 Z M 17.106,15.154 C 17.094,15.158 17.081,15.162 17.069,15.166 17.011,15.265 16.954,15.363 16.896,15.461 16.905,15.512 16.915,15.563 16.925,15.614 16.993,15.464 17.055,15.311 17.106,15.154 Z M 6.996,15.288 C 7.224,15.650 7.494,15.995 7.808,16.315 7.816,16.276 7.824,16.235 7.832,16.195 7.856,16.085 7.880,15.974 7.903,15.864 7.904,15.856 7.906,15.848 7.907,15.841 7.906,15.835 7.903,15.829 7.902,15.823 7.923,15.775 7.945,15.726 7.966,15.678 7.838,15.585 7.711,15.492 7.584,15.397 7.470,15.373 7.356,15.350 7.242,15.326 7.211,15.324 7.183,15.332 7.157,15.340 7.119,15.352 7.119,15.352 7.119,15.352 7.104,15.344 7.089,15.336 7.075,15.328 7.048,15.315 7.022,15.302 6.996,15.288 Z M 7.847,16.358 C 8.047,16.559 8.264,16.751 8.497,16.931 8.683,17.073 8.875,17.201 9.071,17.322 9.070,17.321 9.070,17.320 9.070,17.319 9.065,17.302 9.065,17.302 9.065,17.302 9.054,17.205 9.042,17.109 9.031,17.012 8.965,16.971 8.898,16.929 8.833,16.887 8.736,16.822 8.637,16.774 8.536,16.721 8.336,16.621 8.136,16.521 7.936,16.407 7.907,16.391 7.877,16.374 7.847,16.358 Z " />
</svg>