<?xml version="1.0" encoding="UTF-8" standalone="no"?>
<!DOCTYPE svg PUBLIC "-//W3C//DTD SVG 20010904//EN" "http://www.w3.org/TR/2001/REC-SVG-20010904/DTD/svg10.dtd"[]>
<svg version="1.1" id="Frosty Editor v1.0.6.3" xmlns="http://www.w3.org/2000/svg" d1p1:xlink="http://www.w3.org/1999/xlink" viewBox="0 0 384 96" xmlns:d1p1="xmlns">
  <path stroke="none" fill="#ffffffff" d="M 239.100,30.300 C 239.100,24.400 239.100,18.500 239.100,12.600 244.700,14.600 250.300,16.600 255.900,18.600 255.900,18.700 255.900,18.800 255.900,18.900 253.967,18.900 252.033,18.900 250.100,18.900 250.100,20.633 250.100,22.367 250.100,24.100 252.000,24.067 253.900,24.033 255.800,24.000 255.800,24.100 255.800,24.200 255.800,24.300 250.233,26.300 244.667,28.300 239.100,30.300 239.100,30.300 239.100,30.300 239.100,30.300 Z M 235.900,25.300 C 235.900,22.900 235.900,20.500 235.900,18.100 236.300,18.100 236.700,18.100 237.100,18.100 237.100,20.500 237.100,22.900 237.100,25.300 236.700,25.300 236.300,25.300 235.900,25.300 235.900,25.300 235.900,25.300 235.900,25.300 Z M 174.200,54.300 C 171.900,53.300 172.100,49.600 172.100,49.300 172.000,46.500 173.200,45.300 174.100,44.700 174.133,47.900 174.167,51.100 174.200,54.300 174.200,54.300 174.200,54.300 174.200,54.300 Z M 181.400,47.000 C 182.900,46.067 184.400,45.133 185.900,44.200 188.333,44.200 190.767,44.200 193.200,44.200 193.200,46.800 193.200,49.400 193.200,52.000 193.300,52.700 193.000,53.400 192.500,53.900 191.900,54.400 191.100,54.600 190.300,54.500 188.033,54.500 185.767,54.500 183.500,54.500 182.767,53.733 182.033,52.967 181.300,52.200 181.333,50.467 181.367,48.733 181.400,47.000 181.400,47.000 181.400,47.000 181.400,47.000 Z M 179.500,53.100 C 179.967,53.600 180.433,54.100 180.900,54.600 179.367,54.600 177.833,54.600 176.300,54.600 176.300,51.167 176.300,47.733 176.300,44.300 178.233,44.300 180.167,44.300 182.100,44.300 181.200,44.833 180.300,45.367 179.400,45.900 179.433,48.300 179.467,50.700 179.500,53.100 179.500,53.100 179.500,53.100 179.500,53.100 Z M 223.300,42.200 C 207.400,42.233 191.500,42.267 175.600,42.300 173.600,42.400 170.000,44.000 170.100,49.300 169.900,51.700 170.900,56.300 175.100,56.500 175.167,56.500 175.233,56.500 175.300,56.500 175.433,56.500 175.567,56.500 175.700,56.500 175.833,56.500 175.967,56.500 176.100,56.500 180.933,56.500 185.767,56.500 190.600,56.500 191.800,56.500 193.000,56.300 193.900,55.500 194.800,54.700 195.300,53.400 195.200,52.100 195.200,49.500 195.200,46.900 195.200,44.300 195.733,44.300 196.267,44.300 196.800,44.300 196.800,47.400 196.800,50.500 196.800,53.600 196.800,54.700 196.400,55.800 195.700,56.600 194.500,57.700 192.800,58.200 191.100,58.000 188.367,58.000 185.633,58.000 182.900,58.000 181.400,57.800 178.200,58.800 177.000,63.300 175.733,69.733 174.467,76.167 173.200,82.600 173.633,83.267 174.067,83.933 174.500,84.600 174.433,84.733 174.367,84.867 174.300,85.000 164.733,85.033 155.167,85.067 145.600,85.100 145.600,85.100 142.800,85.000 141.400,81.300 141.600,81.200 141.800,81.100 142.000,81.000 143.467,82.000 144.933,83.000 146.400,84.000 154.767,84.000 163.133,84.000 171.500,84.000 172.700,77.333 173.900,70.667 175.100,64.000 175.400,62.200 176.300,60.700 177.300,59.200 177.533,58.933 177.767,58.667 178.000,58.400 176.367,58.400 174.733,58.400 173.100,58.400 166.400,57.100 164.800,48.400 164.700,48.300 162.700,39.300 155.000,37.000 151.200,36.500 151.200,36.067 151.200,35.633 151.200,35.200 158.667,35.167 166.133,35.133 173.600,35.100 174.000,36.000 174.300,36.900 174.300,37.900 174.300,38.067 174.300,38.233 174.300,38.400 181.267,38.367 188.233,38.333 195.200,38.300 195.200,35.767 195.200,33.233 195.200,30.700 195.233,30.700 195.267,30.700 195.300,30.700 195.300,25.600 195.300,20.500 195.300,15.400 201.967,15.400 208.633,15.400 215.300,15.400 215.300,19.367 215.300,23.333 215.300,27.300 210.000,27.333 204.700,27.367 199.400,27.400 197.500,27.400 195.800,29.000 195.800,31.000 195.800,32.900 197.400,34.600 199.400,34.600 206.767,34.600 214.133,34.600 221.500,34.600 223.400,34.600 225.000,32.800 225.000,30.900 225.000,29.400 223.900,28.000 222.500,27.600 222.500,23.833 222.500,20.067 222.500,16.300 226.333,16.300 230.167,16.300 234.000,16.300 234.000,21.633 234.000,26.967 234.000,32.300 233.900,32.600 233.300,42.100 223.300,42.200 223.300,42.200 223.300,42.200 223.300,42.200 Z M 220.300,47.700 C 219.900,46.500 218.900,45.700 217.700,45.500 211.400,45.500 205.100,45.500 198.800,45.500 198.800,45.100 198.800,44.700 198.800,44.300 206.367,44.300 213.933,44.300 221.500,44.300 221.500,45.467 221.500,46.633 221.500,47.800 221.100,47.767 220.700,47.733 220.300,47.700 220.300,47.700 220.300,47.700 220.300,47.700 Z M 148.400,71.700 C 150.367,64.233 152.333,56.767 154.300,49.300 154.300,49.100 155.900,44.200 151.700,37.500 155.400,38.100 162.000,40.400 163.900,48.500 163.900,48.900 165.700,58.000 173.200,59.400 174.200,59.400 175.200,59.400 176.200,59.400 175.300,60.800 174.700,62.200 174.400,63.700 173.200,70.100 172.000,76.500 170.800,82.900 162.800,82.933 154.800,82.967 146.800,83.000 145.533,82.133 144.267,81.267 143.000,80.400 146.100,78.500 148.100,75.300 148.400,71.700 148.400,71.700 148.400,71.700 148.400,71.700 Z M 156.400,31.200 C 156.367,29.400 156.333,27.600 156.300,25.800 156.300,24.800 157.100,24.000 158.100,23.900 158.200,23.933 158.300,23.967 158.400,24.000 163.467,23.967 168.533,23.933 173.600,23.900 173.600,25.800 173.600,27.700 173.600,29.600 173.100,29.600 172.600,29.600 172.100,29.600 172.100,29.500 172.100,29.400 172.100,29.300 172.100,27.100 170.300,25.300 168.100,25.300 165.867,25.300 163.633,25.300 161.400,25.300 159.200,25.300 157.400,27.100 157.400,29.300 157.500,31.600 159.200,33.300 161.400,33.300 163.633,33.300 165.867,33.300 168.100,33.300 168.800,33.300 169.600,33.100 170.300,32.700 171.300,32.800 172.300,33.200 173.000,33.900 173.033,33.933 173.067,33.967 173.100,34.000 165.900,34.033 158.700,34.067 151.500,34.100 151.500,33.133 151.500,32.167 151.500,31.200 153.133,31.200 154.767,31.200 156.400,31.200 156.400,31.200 156.400,31.200 156.400,31.200 Z M 150.000,28.500 C 148.800,28.600 148.000,27.900 148.000,27.300 148.000,23.933 148.000,20.567 148.000,17.200 148.000,16.600 148.800,15.900 150.000,16.000 151.100,16.000 151.900,16.700 152.000,17.200 152.000,20.567 152.000,23.933 152.000,27.300 151.900,27.900 151.200,28.600 150.000,28.500 150.000,28.500 150.000,28.500 150.000,28.500 Z M 130.100,25.800 C 130.100,25.800 128.300,25.300 127.900,22.800 127.900,22.700 127.900,22.600 127.900,22.500 127.900,22.467 127.900,22.433 127.900,22.400 127.900,22.300 127.800,22.200 127.900,22.100 128.000,20.800 128.800,19.500 130.100,19.100 135.333,17.667 140.567,16.233 145.800,14.800 145.800,19.933 145.800,25.067 145.800,30.200 140.567,28.733 135.333,27.267 130.100,25.800 130.100,25.800 130.100,25.800 130.100,25.800 Z M 154.500,29.300 C 154.033,29.300 153.567,29.300 153.100,29.300 153.100,29.100 153.300,29.000 153.300,28.900 153.700,28.900 154.100,28.900 154.500,28.900 154.500,29.033 154.500,29.167 154.500,29.300 154.500,29.300 154.500,29.300 154.500,29.300 Z M 155.500,18.000 C 155.533,19.700 155.567,21.400 155.600,23.100 155.000,23.800 154.400,24.800 154.400,25.800 154.400,26.167 154.400,26.533 154.400,26.900 154.200,26.900 154.000,26.900 153.800,26.900 153.767,23.900 153.733,20.900 153.700,17.900 154.300,17.933 154.900,17.967 155.500,18.000 155.500,18.000 155.500,18.000 155.500,18.000 Z M 173.700,16.100 C 173.700,18.033 173.700,19.967 173.700,21.900 168.600,21.900 163.500,21.900 158.400,21.900 158.100,21.900 157.800,22.000 157.500,22.000 157.467,20.033 157.433,18.067 157.400,16.100 162.833,16.100 168.267,16.100 173.700,16.100 173.700,16.100 173.700,16.100 173.700,16.100 Z M 169.200,32.300 C 168.900,32.400 168.600,32.500 168.200,32.500 165.967,32.500 163.733,32.500 161.500,32.500 159.900,32.500 158.500,31.200 158.500,29.500 158.500,27.900 159.800,26.500 161.500,26.500 163.733,26.500 165.967,26.500 168.200,26.500 169.800,26.500 171.200,27.800 171.200,29.500 171.200,29.600 171.200,29.700 171.200,29.800 170.500,29.767 169.800,29.733 169.100,29.700 169.133,30.567 169.167,31.433 169.200,32.300 169.200,32.300 169.200,32.300 169.200,32.300 Z M 173.600,30.600 C 173.600,30.600 173.600,30.600 173.600,30.600 176.733,30.633 179.867,30.667 183.000,30.700 183.000,26.167 183.000,21.633 183.000,17.100 184.833,17.100 186.667,17.100 188.500,17.100 188.500,21.633 188.500,26.167 188.500,30.700 190.433,30.700 192.367,30.700 194.300,30.700 194.300,32.900 194.300,35.100 194.300,37.300 188.000,37.300 181.700,37.300 175.400,37.300 175.300,35.800 174.700,34.400 173.700,33.300 172.800,32.300 171.400,31.800 170.000,31.800 170.000,31.400 170.000,31.000 170.000,30.600 171.200,30.600 172.400,30.600 173.600,30.600 173.600,30.600 173.600,30.600 173.600,30.600 Z M 177.100,19.300 C 177.100,21.067 177.100,22.833 177.100,24.600 176.700,24.600 176.300,24.600 175.900,24.600 175.900,22.833 175.900,21.067 175.900,19.300 176.300,19.300 176.700,19.300 177.100,19.300 177.100,19.300 177.100,19.300 177.100,19.300 Z M 178.600,16.900 C 178.600,17.700 178.600,18.500 178.600,19.300 178.633,19.300 178.667,19.300 178.700,19.300 178.700,21.067 178.700,22.833 178.700,24.600 178.667,24.600 178.633,24.600 178.600,24.600 178.600,25.200 178.600,25.800 178.600,26.400 178.467,26.400 178.333,26.400 178.200,26.400 178.200,25.800 178.200,25.200 178.200,24.600 178.167,24.600 178.133,24.600 178.100,24.600 178.100,22.833 178.100,21.067 178.100,19.300 178.133,19.300 178.167,19.300 178.200,19.300 178.200,18.500 178.200,17.700 178.200,16.900 178.333,16.900 178.467,16.900 178.600,16.900 178.600,16.900 178.600,16.900 178.600,16.900 Z M 181.100,19.300 C 181.100,21.067 181.100,22.833 181.100,24.600 180.633,24.600 180.167,24.600 179.700,24.600 179.700,22.833 179.700,21.067 179.700,19.300 180.167,19.300 180.633,19.300 181.100,19.300 181.100,19.300 181.100,19.300 181.100,19.300 Z M 180.500,26.500 C 180.667,26.500 180.833,26.500 181.000,26.500 181.000,27.233 181.000,27.967 181.000,28.700 179.233,28.700 177.467,28.700 175.700,28.700 175.700,27.967 175.700,27.233 175.700,26.500 175.833,26.533 175.967,26.567 176.100,26.600 176.100,27.200 176.100,27.800 176.100,28.400 177.567,28.367 179.033,28.333 180.500,28.300 180.500,27.700 180.500,27.100 180.500,26.500 180.500,26.500 180.500,26.500 180.500,26.500 Z M 193.400,27.300 C 193.400,27.767 193.400,28.233 193.400,28.700 192.400,28.700 191.400,28.700 190.400,28.700 190.400,28.233 190.400,27.767 190.400,27.300 191.400,27.300 192.400,27.300 193.400,27.300 193.400,27.300 193.400,27.300 193.400,27.300 Z M 193.400,18.100 C 193.400,20.500 193.400,22.900 193.400,25.300 192.400,25.300 191.400,25.300 190.400,25.300 190.400,22.933 190.400,20.567 190.400,18.200 191.400,18.167 192.400,18.133 193.400,18.100 193.400,18.100 193.400,18.100 193.400,18.100 Z M 217.500,29.300 C 217.500,28.667 217.500,28.033 217.500,27.400 218.500,27.400 219.500,27.400 220.500,27.400 220.500,28.067 220.500,28.733 220.500,29.400 220.833,29.400 221.167,29.400 221.500,29.400 222.400,29.400 223.100,30.100 223.100,31.000 223.100,31.900 222.400,32.600 221.500,32.600 214.133,32.567 206.767,32.533 199.400,32.500 198.500,32.500 197.800,31.800 197.800,30.900 197.800,30.000 198.500,29.300 199.400,29.300 205.433,29.300 211.467,29.300 217.500,29.300 217.500,29.300 217.500,29.300 217.500,29.300 Z M 220.300,18.200 C 220.300,20.600 220.300,23.000 220.300,25.400 219.300,25.400 218.300,25.400 217.300,25.400 217.300,23.033 217.300,20.667 217.300,18.300 218.300,18.267 219.300,18.233 220.300,18.200 220.300,18.200 220.300,18.200 220.300,18.200 Z M 258.900,20.900 C 258.900,20.900 258.900,20.900 258.900,20.900 258.867,19.400 258.833,17.900 258.800,16.400 251.200,13.667 243.600,10.933 236.000,8.200 236.000,9.867 236.000,11.533 236.000,13.200 230.433,13.200 224.867,13.200 219.300,13.200 219.300,13.867 219.300,14.533 219.300,15.200 219.000,15.200 218.700,15.200 218.400,15.200 218.400,14.333 218.400,13.467 218.400,12.600 209.733,12.633 201.067,12.667 192.400,12.700 192.400,13.600 192.400,14.500 192.400,15.400 192.067,15.400 191.733,15.400 191.400,15.400 191.400,15.067 191.400,14.733 191.400,14.400 188.100,14.400 184.800,14.400 181.500,14.400 181.500,14.300 181.500,14.200 181.500,14.100 179.900,14.133 178.300,14.167 176.700,14.200 176.700,13.933 176.700,13.667 176.700,13.400 169.300,13.400 161.900,13.400 154.500,13.400 154.500,14.000 154.500,14.600 154.500,15.200 154.333,15.200 154.167,15.200 154.000,15.200 153.200,14.200 152.100,13.500 150.900,13.300 150.600,13.200 150.200,13.200 149.900,13.200 149.500,13.200 149.100,13.200 148.800,13.300 148.800,12.533 148.800,11.767 148.800,11.000 142.300,12.767 135.800,14.533 129.300,16.300 126.900,17.000 125.100,19.200 124.900,21.800 124.900,22.000 124.800,22.300 124.800,22.700 124.800,23.000 124.800,23.300 124.900,23.500 125.600,28.100 129.200,28.900 129.300,29.000 129.300,29.000 148.400,34.300 148.400,34.300 148.400,35.567 148.400,36.833 148.400,38.100 148.500,38.267 148.600,38.433 148.700,38.600 152.300,43.800 151.700,47.600 151.400,48.700 149.400,56.200 147.400,63.700 145.400,71.200 145.367,71.300 145.333,71.400 145.300,71.500 144.900,74.800 142.700,77.700 139.500,78.800 138.933,79.000 138.367,79.200 137.800,79.400 137.933,80.033 138.067,80.667 138.200,81.300 139.700,86.500 143.200,87.700 144.600,88.000 144.900,88.100 145.300,88.100 145.600,88.100 155.733,88.100 165.867,88.100 176.000,88.100 176.633,86.867 177.267,85.633 177.900,84.400 177.333,83.600 176.767,82.800 176.200,82.000 177.367,76.000 178.533,70.000 179.700,64.000 180.200,62.100 181.200,61.000 182.500,60.900 182.500,60.900 182.600,60.900 182.600,60.900 185.333,60.900 188.067,60.900 190.800,60.900 193.300,61.100 195.700,60.200 197.500,58.500 198.700,57.100 199.400,55.200 199.400,53.400 199.400,51.767 199.400,50.133 199.400,48.500 205.167,48.500 210.933,48.500 216.700,48.500 216.800,48.600 217.000,48.900 217.100,49.200 217.200,49.733 217.300,50.267 217.400,50.800 219.633,50.833 221.867,50.867 224.100,50.900 224.100,49.033 224.100,47.167 224.100,45.300 232.800,44.700 235.400,38.000 236.100,34.500 243.467,31.867 250.833,29.233 258.200,26.600 258.433,24.700 258.667,22.800 258.900,20.900 258.900,20.900 258.900,20.900 258.900,20.900 Z " />
</svg>