<?xml version="1.0" encoding="UTF-8" standalone="no"?>
<!DOCTYPE svg PUBLIC "-//W3C//DTD SVG 20010904//EN" "http://www.w3.org/TR/2001/REC-SVG-20010904/DTD/svg10.dtd"[]>
<svg version="1.1" id="Frosty Editor v1.0.6.3" xmlns="http://www.w3.org/2000/svg" d1p1:xlink="http://www.w3.org/1999/xlink" viewBox="0 0 25 25" xmlns:d1p1="xmlns">
  <path stroke="none" fill="#ffffffff" d="M 19.011,2.577 C 18.973,2.577 18.933,2.587 18.892,2.607 18.810,2.647 18.732,2.720 18.677,2.813 16.320,6.765 13.963,10.717 11.606,14.669 11.543,14.769 11.481,14.870 11.418,14.970 11.573,15.064 11.727,15.158 11.881,15.253 14.300,11.198 16.718,7.142 19.136,3.087 19.192,2.995 19.220,2.892 19.216,2.801 19.212,2.710 19.176,2.639 19.115,2.603 19.084,2.585 19.049,2.576 19.011,2.577 Z M 8.978,6.483 C 8.830,6.731 8.683,6.979 8.535,7.227 14.554,7.228 14.554,7.228 14.554,7.228 14.702,6.980 14.849,6.733 14.996,6.485 Z M 7.753,8.542 C 7.605,8.790 7.457,9.039 7.308,9.288 9.314,9.289 11.321,9.289 13.327,9.290 13.475,9.041 13.624,8.792 13.772,8.544 Z M 6.523,10.603 C 6.376,10.851 6.229,11.099 6.081,11.347 8.087,11.347 10.094,11.348 12.100,11.349 12.247,11.101 12.395,10.853 12.542,10.605 10.536,10.605 8.529,10.604 6.523,10.603 Z M 11.239,15.349 C 11.128,15.376 11.128,15.376 11.128,15.376 11.065,15.480 11.065,15.480 11.065,15.480 10.687,15.848 10.687,15.848 10.687,15.848 10.733,15.876 10.733,15.876 10.733,15.876 10.722,15.895 10.722,15.895 10.722,15.895 10.688,15.896 10.688,15.896 10.688,15.896 10.252,16.620 10.252,16.620 10.252,16.620 10.270,16.741 10.270,16.741 10.270,16.741 9.932,17.302 9.932,17.302 9.932,17.302 9.741,17.441 9.741,17.441 9.741,17.441 9.152,18.418 9.152,18.418 9.152,18.418 9.118,18.397 9.118,18.397 9.118,18.397 8.179,19.956 8.179,19.956 8.179,19.956 8.214,19.977 8.214,19.977 8.214,19.977 7.625,20.955 7.625,20.955 7.625,20.955 7.592,21.188 7.592,21.188 7.592,21.188 7.254,21.750 7.254,21.750 7.254,21.750 7.139,21.790 7.139,21.790 7.139,21.790 6.703,22.514 6.703,22.514 6.703,22.514 6.718,22.545 6.718,22.545 6.718,22.545 6.706,22.564 6.706,22.564 6.706,22.564 6.660,22.536 6.660,22.536 6.660,22.536 6.512,23.042 6.512,23.042 6.512,23.042 6.449,23.146 6.449,23.146 6.449,23.146 6.477,23.257 6.477,23.257 6.477,23.257 6.604,23.334 6.604,23.334 6.604,23.334 6.741,23.416 6.741,23.416 6.741,23.416 6.868,23.493 6.868,23.493 6.868,23.493 6.980,23.465 6.980,23.465 6.980,23.465 7.042,23.362 7.042,23.362 7.042,23.362 7.420,22.993 7.420,22.993 7.420,22.993 7.374,22.965 7.374,22.965 7.374,22.965 7.385,22.946 7.385,22.946 7.385,22.946 7.419,22.945 7.419,22.945 7.419,22.945 7.453,22.890 7.453,22.890 7.453,22.890 8.875,23.569 10.717,22.871 11.691,21.253 11.911,20.888 11.911,20.888 11.911,20.888 12.885,19.270 12.641,17.315 11.375,16.376 11.404,16.327 11.404,16.327 11.404,16.327 11.389,16.297 11.389,16.297 11.389,16.297 11.401,16.278 11.401,16.278 11.401,16.278 11.447,16.306 11.447,16.306 11.447,16.306 11.596,15.800 11.596,15.800 11.596,15.800 11.658,15.696 11.658,15.696 11.658,15.696 11.630,15.584 11.630,15.584 11.630,15.584 11.367,15.425 11.367,15.425 11.367,15.425 Z M 10.777,17.218 C 11.629,17.916 11.785,19.293 11.087,20.452 10.921,20.729 10.921,20.729 10.921,20.729 10.223,21.888 8.932,22.394 7.917,21.968 8.175,21.539 8.175,21.539 8.175,21.539 8.366,21.401 8.366,21.401 8.366,21.401 8.955,20.423 8.955,20.423 8.955,20.423 8.990,20.444 8.990,20.444 8.990,20.444 9.928,18.885 9.928,18.885 9.928,18.885 9.894,18.864 9.894,18.864 9.894,18.864 10.482,17.887 10.482,17.887 10.482,17.887 10.515,17.653 10.515,17.653 10.515,17.653 Z " />
</svg>