<?xml version="1.0" encoding="UTF-8" standalone="no"?>
<!DOCTYPE svg PUBLIC "-//W3C//DTD SVG 20010904//EN" "http://www.w3.org/TR/2001/REC-SVG-20010904/DTD/svg10.dtd"[]>
<svg version="1.1" id="Frosty Editor v1.0.6.3" xmlns="http://www.w3.org/2000/svg" d1p1:xlink="http://www.w3.org/1999/xlink" viewBox="0 0 25 25" xmlns:d1p1="xmlns">
  <path stroke="none" fill="#ffffffff" d="M 11.836,2.057 C 11.833,2.690 11.830,3.324 11.826,3.958 9.998,3.958 9.998,3.958 9.998,3.958 9.998,5.224 9.998,5.224 9.998,5.224 12.411,5.224 12.411,5.224 12.411,5.224 12.259,5.370 12.106,5.517 11.954,5.664 11.544,5.664 11.544,5.664 11.544,5.664 11.544,6.230 11.544,6.230 11.544,6.230 12.136,6.230 12.136,6.230 12.136,6.230 12.136,5.809 12.136,5.809 12.136,5.809 12.331,5.614 12.526,5.420 12.721,5.225 13.257,5.225 13.257,5.225 13.257,5.225 13.257,7.327 13.257,7.327 13.257,7.327 13.480,7.230 13.702,7.132 13.925,7.035 13.925,5.225 13.925,5.225 13.925,5.225 15.032,5.225 15.032,5.225 15.032,5.225 15.032,4.563 15.032,4.563 15.032,4.563 13.361,4.563 13.361,4.563 13.361,4.563 13.505,4.419 13.649,4.275 13.793,4.132 14.232,4.132 14.232,4.132 14.232,4.132 14.232,3.546 14.232,3.546 14.232,3.546 13.647,3.546 13.647,3.546 13.647,3.546 13.647,3.965 13.647,3.965 13.647,3.965 13.466,4.146 13.285,4.327 13.104,4.508 13.104,2.057 13.104,2.057 13.104,2.057 Z M 4.092,7.534 C 4.088,8.168 4.085,8.802 4.081,9.436 2.254,9.436 2.254,9.436 2.254,9.436 2.254,10.702 2.254,10.702 2.254,10.702 4.666,10.702 4.666,10.702 4.666,10.702 4.514,10.848 4.362,10.995 4.210,11.141 3.799,11.141 3.799,11.141 3.799,11.141 3.799,11.708 3.799,11.708 3.799,11.708 4.391,11.708 4.391,11.708 4.391,11.708 4.391,11.287 4.391,11.287 4.391,11.287 4.586,11.092 4.781,10.898 4.976,10.703 5.512,10.703 5.512,10.703 5.512,10.703 5.512,12.805 5.512,12.805 5.512,12.805 5.735,12.708 5.958,12.611 6.180,12.513 6.180,10.703 6.180,10.703 6.180,10.703 7.287,10.703 7.287,10.703 7.287,10.703 7.287,10.042 7.287,10.042 7.287,10.042 5.616,10.042 5.616,10.042 5.616,10.042 5.760,9.898 5.904,9.753 6.048,9.609 6.487,9.609 6.487,9.609 6.487,9.609 6.487,9.025 6.487,9.025 6.487,9.025 5.902,9.025 5.902,9.025 5.902,9.025 5.902,9.443 5.902,9.443 5.902,9.443 5.721,9.624 5.540,9.804 5.359,9.985 5.359,7.534 5.359,7.534 5.359,7.534 Z M 19.912,7.534 C 19.909,8.168 19.906,8.802 19.902,9.436 18.074,9.436 18.074,9.436 18.074,9.436 18.074,10.702 18.074,10.702 18.074,10.702 20.487,10.702 20.487,10.702 20.487,10.702 20.335,10.848 20.183,10.995 20.031,11.141 19.620,11.141 19.620,11.141 19.620,11.141 19.620,11.708 19.620,11.708 19.620,11.708 20.212,11.708 20.212,11.708 20.212,11.708 20.212,11.287 20.212,11.287 20.212,11.287 20.407,11.092 20.602,10.898 20.797,10.703 21.333,10.703 21.333,10.703 21.333,10.703 21.333,12.805 21.333,12.805 21.333,12.805 21.556,12.708 21.778,12.611 22.001,12.513 22.001,10.703 22.001,10.703 22.001,10.703 23.108,10.703 23.108,10.703 23.108,10.703 23.108,10.042 23.108,10.042 23.108,10.042 21.437,10.042 21.437,10.042 21.437,10.042 21.581,9.898 21.725,9.753 21.869,9.609 22.308,9.609 22.308,9.609 22.308,9.609 22.308,9.025 22.308,9.025 22.308,9.025 21.723,9.025 21.723,9.025 21.723,9.025 21.723,9.443 21.723,9.443 21.723,9.443 21.180,9.985 21.180,9.985 21.180,9.985 21.180,7.534 21.180,7.534 21.180,7.534 Z M 12.724,8.209 C 12.568,8.208 12.413,8.216 12.258,8.231 11.813,8.270 11.370,8.357 10.948,8.495 10.678,8.572 10.431,8.707 10.181,8.832 10.007,8.916 9.848,9.026 9.697,9.145 9.266,9.465 8.886,9.850 8.556,10.271 8.368,10.515 8.174,10.757 8.037,11.034 7.849,11.417 7.691,11.813 7.555,12.216 7.454,12.535 7.312,12.931 7.275,13.301 7.297,13.651 7.154,14.434 7.486,14.671 7.860,14.742 8.237,14.786 8.615,14.830 9.011,14.875 9.409,14.912 9.804,14.964 10.119,15.202 10.433,15.439 10.747,15.676 12.724,15.676 12.724,15.676 12.724,15.676 14.702,15.676 14.702,15.676 14.702,15.676 15.016,15.439 15.330,15.202 15.645,14.964 16.040,14.912 16.438,14.875 16.834,14.830 17.212,14.786 17.588,14.742 17.962,14.671 18.294,14.434 18.152,13.651 18.174,13.301 18.137,12.931 17.995,12.535 17.894,12.216 17.758,11.813 17.600,11.417 17.412,11.034 17.275,10.757 17.080,10.515 16.893,10.271 16.562,9.850 16.182,9.465 15.752,9.145 15.600,9.026 15.442,8.916 15.268,8.832 15.018,8.707 14.770,8.572 14.500,8.495 14.079,8.357 13.636,8.270 13.191,8.231 13.036,8.216 12.881,8.208 12.724,8.209 Z M 7.120,13.257 C 7.116,13.260 7.112,13.263 7.108,13.265 6.901,13.407 6.703,13.563 6.510,13.723 6.455,13.757 6.446,13.824 6.434,13.882 6.386,14.170 6.373,14.463 6.359,14.755 6.336,15.350 6.331,15.945 6.347,16.539 6.346,16.653 6.366,16.793 6.421,16.962 6.480,17.020 6.548,17.069 6.612,17.122 6.634,17.154 6.653,17.112 6.669,17.095 6.745,16.981 6.793,16.854 6.843,16.726 6.915,16.522 6.989,16.319 7.051,16.112 7.100,15.910 7.144,15.706 7.193,15.504 7.199,15.087 7.205,14.669 7.201,14.251 7.195,13.951 7.194,13.650 7.156,13.352 7.146,13.322 7.152,13.274 7.120,13.257 Z M 18.329,13.257 C 18.297,13.274 18.303,13.322 18.293,13.352 18.255,13.650 18.253,13.951 18.247,14.251 18.243,14.669 18.249,15.087 18.255,15.504 18.305,15.706 18.348,15.910 18.397,16.112 18.459,16.319 18.533,16.522 18.605,16.726 18.655,16.854 18.704,16.981 18.780,17.095 18.796,17.112 18.814,17.154 18.837,17.122 18.900,17.069 18.969,17.020 19.028,16.962 19.083,16.793 19.103,16.653 19.102,16.539 19.118,15.945 19.113,15.350 19.090,14.755 19.076,14.463 19.062,14.170 19.015,13.882 19.002,13.824 18.994,13.757 18.939,13.723 18.746,13.563 18.548,13.407 18.341,13.265 18.337,13.263 18.333,13.260 18.329,13.257 Z M 7.528,15.175 C 7.510,15.177 7.496,15.185 7.490,15.210 7.442,15.297 7.376,15.381 7.336,15.469 7.286,15.592 7.260,15.716 7.227,15.847 7.170,16.126 7.075,16.395 6.981,16.663 6.918,16.824 6.871,16.994 6.773,17.139 6.735,17.188 6.698,17.254 6.631,17.266 6.567,17.236 6.517,17.183 6.462,17.141 6.402,17.446 6.342,17.751 6.276,18.055 6.033,19.168 5.759,20.274 5.456,21.372 5.312,21.907 5.134,22.433 5.008,22.972 4.974,23.106 4.959,23.245 4.940,23.379 4.996,23.383 5.052,23.380 5.108,23.375 5.162,23.307 5.217,23.240 5.271,23.173 5.424,22.978 5.588,22.792 5.726,22.586 5.908,22.338 6.053,22.067 6.184,21.789 6.457,21.209 6.709,20.620 6.966,20.033 7.078,19.782 7.181,19.527 7.296,19.278 7.327,19.199 7.401,19.152 7.468,19.105 7.444,19.084 7.440,19.052 7.413,19.034 7.373,18.985 7.332,18.919 7.346,18.852 7.414,18.613 7.510,18.383 7.597,18.149 7.719,17.842 7.824,17.525 8.006,17.246 8.154,17.015 8.312,16.789 8.481,16.573 8.561,16.643 8.561,16.643 8.561,16.643 8.380,16.885 8.204,17.128 8.053,17.390 7.930,17.594 7.855,17.819 7.766,18.038 7.658,18.321 7.545,18.603 7.447,18.891 7.483,18.944 7.522,18.994 7.560,19.045 8.331,20.071 9.107,21.094 9.880,22.120 10.163,22.493 10.443,22.869 10.727,23.242 10.808,23.349 10.808,23.349 10.808,23.349 10.809,23.349 10.809,23.349 10.810,23.349 11.551,23.234 11.551,23.234 11.551,23.234 11.621,23.132 11.690,23.029 11.759,22.926 12.029,22.920 12.299,22.918 12.568,22.907 12.586,22.901 12.614,22.908 12.634,22.904 12.634,21.546 12.634,21.546 12.634,21.546 12.257,21.532 11.879,21.539 11.501,21.537 11.437,21.571 11.374,21.607 11.310,21.642 11.037,21.795 11.037,21.795 11.037,21.795 10.917,21.600 10.917,21.600 10.917,21.600 10.913,21.593 10.907,21.587 10.902,21.580 10.690,21.275 10.491,20.962 10.287,20.651 10.212,20.528 10.125,20.410 10.065,20.278 10.056,20.225 10.074,20.174 10.089,20.123 10.199,20.297 10.199,20.297 10.199,20.297 10.460,20.717 10.741,21.126 11.004,21.545 11.004,21.545 11.004,21.545 11.004,21.545 11.072,21.656 11.072,21.656 11.072,21.656 11.515,21.408 11.515,21.408 11.515,21.408 11.520,21.408 11.525,21.408 11.530,21.408 12.108,21.408 12.108,21.408 12.108,21.408 12.724,21.408 12.724,21.408 12.724,21.408 13.341,21.408 13.341,21.408 13.341,21.408 13.919,21.408 13.919,21.408 13.919,21.408 13.924,21.408 13.929,21.408 13.934,21.408 14.377,21.656 14.377,21.656 14.377,21.656 14.445,21.545 14.445,21.545 14.445,21.545 14.445,21.545 14.445,21.545 14.445,21.545 14.708,21.126 14.988,20.717 15.249,20.297 15.360,20.123 15.360,20.123 15.360,20.123 15.375,20.174 15.393,20.225 15.383,20.278 15.323,20.410 15.237,20.528 15.162,20.651 14.958,20.962 14.758,21.275 14.547,21.580 14.542,21.587 14.536,21.593 14.532,21.600 14.412,21.795 14.412,21.795 14.412,21.795 14.139,21.642 14.139,21.642 14.139,21.642 14.075,21.607 14.012,21.571 13.948,21.537 13.570,21.539 13.192,21.532 12.814,21.546 12.814,22.904 12.814,22.904 12.814,22.904 12.835,22.908 12.863,22.901 12.881,22.907 13.150,22.918 13.420,22.920 13.689,22.926 13.759,23.029 13.828,23.132 13.898,23.234 14.639,23.349 14.639,23.349 14.639,23.349 14.640,23.349 14.640,23.349 14.641,23.349 14.721,23.242 14.721,23.242 14.721,23.242 15.005,22.869 15.286,22.493 15.569,22.120 16.342,21.094 17.118,20.071 17.889,19.045 17.927,18.994 17.966,18.944 18.001,18.891 17.904,18.603 17.790,18.321 17.682,18.038 17.594,17.819 17.518,17.594 17.395,17.390 17.244,17.128 17.069,16.885 16.888,16.643 16.968,16.573 16.968,16.573 16.968,16.573 17.137,16.789 17.295,17.015 17.443,17.246 17.625,17.525 17.730,17.842 17.852,18.149 17.939,18.383 18.035,18.613 18.103,18.852 18.117,18.919 18.076,18.985 18.036,19.034 18.009,19.052 18.005,19.084 17.981,19.105 18.048,19.152 18.122,19.199 18.153,19.278 18.268,19.527 18.371,19.782 18.482,20.033 18.739,20.620 18.992,21.209 19.265,21.789 19.396,22.067 19.541,22.338 19.722,22.586 19.861,22.792 20.025,22.978 20.178,23.173 20.232,23.240 20.286,23.307 20.340,23.375 20.396,23.380 20.453,23.383 20.509,23.379 20.490,23.245 20.475,23.106 20.441,22.972 20.315,22.433 20.136,21.907 19.992,21.372 19.689,20.274 19.416,19.168 19.173,18.055 19.107,17.751 19.047,17.446 18.987,17.141 18.932,17.183 18.882,17.236 18.818,17.266 18.751,17.254 18.714,17.188 18.676,17.139 18.578,16.994 18.531,16.824 18.468,16.663 18.374,16.395 18.279,16.126 18.222,15.847 18.189,15.716 18.163,15.592 18.113,15.469 18.073,15.381 18.007,15.297 17.959,15.210 17.953,15.185 17.939,15.177 17.921,15.175 17.915,15.175 17.908,15.175 17.902,15.175 17.893,15.176 17.884,15.177 17.875,15.178 17.502,15.204 17.132,15.259 16.761,15.301 16.415,15.343 16.067,15.376 15.723,15.430 15.595,15.516 15.476,15.618 15.351,15.710 15.133,15.877 14.906,16.032 14.676,16.183 14.051,16.194 13.425,16.202 12.799,16.199 12.774,16.199 12.749,16.199 12.724,16.199 12.699,16.199 12.675,16.199 12.650,16.199 12.024,16.202 11.398,16.194 10.773,16.183 10.543,16.032 10.315,15.877 10.097,15.710 9.972,15.618 9.854,15.516 9.726,15.430 9.381,15.376 9.034,15.343 8.688,15.301 8.317,15.259 7.947,15.204 7.574,15.178 7.565,15.177 7.556,15.176 7.547,15.175 7.541,15.175 7.534,15.175 7.528,15.175 Z M 11.228,16.752 C 12.375,16.752 12.375,16.752 12.375,16.752 12.376,16.752 12.378,16.752 12.379,16.752 12.724,16.752 12.724,16.752 12.724,16.752 13.070,16.752 13.070,16.752 13.070,16.752 13.071,16.752 13.072,16.752 13.073,16.752 14.221,16.752 14.221,16.752 14.221,16.752 14.209,16.781 14.188,16.834 14.158,16.907 14.109,17.029 14.109,17.029 14.109,17.029 12.724,17.029 12.724,17.029 12.724,17.029 11.340,17.029 11.340,17.029 11.340,17.029 11.290,16.907 11.290,16.907 11.290,16.907 11.261,16.834 11.240,16.781 11.228,16.752 Z M 9.111,17.105 C 9.130,17.105 9.499,17.410 9.500,17.427 9.501,17.433 9.387,17.607 9.247,17.812 9.109,18.014 8.981,18.205 8.953,18.250 8.661,17.781 8.661,17.781 8.661,17.781 8.771,17.598 9.097,17.105 9.111,17.105 Z M 16.337,17.105 C 16.351,17.105 16.678,17.598 16.788,17.781 16.496,18.250 16.496,18.250 16.496,18.250 16.468,18.205 16.340,18.014 16.202,17.812 16.062,17.607 15.948,17.433 15.949,17.427 15.950,17.410 16.318,17.105 16.337,17.105 Z M 11.533,17.470 C 12.724,17.470 12.724,17.470 12.724,17.470 13.916,17.470 13.916,17.470 13.916,17.470 13.905,17.500 13.892,17.535 13.869,17.597 13.813,17.748 13.813,17.748 13.813,17.748 12.726,17.748 12.726,17.748 12.726,17.748 12.724,17.748 12.724,17.748 12.724,17.748 12.723,17.748 12.723,17.748 12.723,17.748 11.636,17.748 11.636,17.748 11.636,17.748 11.580,17.597 11.580,17.597 11.580,17.597 11.557,17.535 11.544,17.500 11.533,17.470 Z M 9.750,17.641 C 9.769,17.641 9.786,17.660 9.816,17.686 9.870,17.733 9.893,17.788 9.933,17.964 9.967,18.115 9.968,18.127 9.944,18.163 9.921,18.199 9.422,18.882 9.380,18.935 9.117,18.513 9.117,18.513 9.117,18.513 9.162,18.439 9.263,18.291 9.513,17.933 9.669,17.709 9.713,17.640 9.750,17.641 Z M 15.699,17.641 C 15.736,17.640 15.780,17.709 15.935,17.933 16.185,18.291 16.287,18.439 16.332,18.513 16.069,18.935 16.069,18.935 16.069,18.935 16.027,18.882 15.528,18.199 15.505,18.163 15.481,18.127 15.482,18.115 15.516,17.964 15.556,17.788 15.578,17.733 15.632,17.686 15.662,17.660 15.680,17.641 15.699,17.641 Z M 10.046,18.568 C 10.046,18.568 10.047,18.568 10.047,18.568 10.053,18.574 10.086,18.715 10.120,18.880 10.171,19.126 10.178,19.184 10.163,19.205 10.103,19.287 9.830,19.631 9.819,19.638 9.819,19.638 9.816,19.635 9.815,19.635 9.561,19.226 9.561,19.226 9.561,19.226 9.625,19.121 10.032,18.568 10.046,18.568 Z M 15.402,18.568 C 15.416,18.568 15.824,19.121 15.888,19.226 15.634,19.635 15.634,19.635 15.634,19.635 15.633,19.635 15.630,19.638 15.629,19.638 15.619,19.631 15.346,19.287 15.286,19.205 15.271,19.184 15.278,19.126 15.329,18.880 15.363,18.715 15.396,18.574 15.402,18.568 Z M 10.273,19.672 C 10.274,19.672 10.275,19.672 10.275,19.673 10.281,19.679 10.292,19.720 10.300,19.765 10.316,19.854 10.303,19.919 10.257,19.971 10.226,20.006 10.209,20.056 10.204,20.128 10.200,20.172 10.191,20.194 10.179,20.192 10.138,20.132 10.138,20.132 10.138,20.132 10.131,20.120 10.125,20.110 10.117,20.102 9.998,19.928 9.998,19.928 9.998,19.928 10.106,19.820 10.106,19.820 10.106,19.820 10.189,19.737 10.261,19.673 10.273,19.672 Z M 15.175,19.672 C 15.187,19.673 15.260,19.737 15.343,19.820 15.451,19.928 15.451,19.928 15.451,19.928 15.331,20.102 15.331,20.102 15.331,20.102 15.324,20.110 15.317,20.120 15.311,20.132 15.270,20.192 15.270,20.192 15.270,20.192 15.258,20.194 15.249,20.172 15.245,20.128 15.240,20.056 15.223,20.006 15.192,19.971 15.146,19.919 15.133,19.854 15.149,19.765 15.157,19.720 15.168,19.679 15.174,19.673 15.174,19.672 15.175,19.672 15.175,19.672 Z " />
</svg>