<?xml version="1.0" encoding="UTF-8" standalone="no"?>
<!DOCTYPE svg PUBLIC "-//W3C//DTD SVG 20010904//EN" "http://www.w3.org/TR/2001/REC-SVG-20010904/DTD/svg10.dtd"[]>
<svg version="1.1" id="Frosty Editor v1.0.6.3" xmlns="http://www.w3.org/2000/svg" d1p1:xlink="http://www.w3.org/1999/xlink" viewBox="0 0 101 25" xmlns:d1p1="xmlns">
  <path stroke="none" fill="#ffffffff" d="M 29.841,6.640 C 29.915,7.267 30.169,8.699 31.038,10.505 32.215,12.950 34.510,16.044 39.024,18.630 38.996,18.616 38.996,18.616 38.996,18.616 38.996,18.616 39.298,18.743 39.542,19.022 39.665,19.162 39.780,19.349 39.819,19.583 39.859,19.816 39.813,20.087 39.667,20.348 39.663,20.354 39.663,20.354 39.663,20.354 38.918,21.540 38.918,21.540 38.918,21.540 42.052,22.946 45.640,23.745 49.466,23.745 52.186,23.745 52.186,23.745 52.186,23.745 63.933,23.745 73.450,16.225 74.419,6.640 70.714,6.640 70.714,6.640 70.714,6.640 69.555,14.559 61.118,20.628 50.870,20.628 40.623,20.628 32.184,14.559 31.025,6.640 Z M 27.233,6.640 C 27.866,12.900 32.147,18.280 38.313,21.258 39.089,20.024 39.089,20.024 39.089,20.024 39.175,19.871 39.181,19.776 39.167,19.694 39.153,19.612 39.109,19.532 39.044,19.458 38.914,19.310 38.726,19.220 38.726,19.220 38.710,19.212 38.710,19.212 38.710,19.212 38.696,19.204 38.696,19.204 38.696,19.204 34.068,16.553 31.671,13.342 30.443,10.790 29.513,8.858 29.249,7.289 29.175,6.640 Z M 33.094,6.141 C 34.107,13.107 41.141,18.509 49.794,18.509 51.856,18.509 51.856,18.509 51.856,18.509 60.508,18.509 67.540,13.107 68.553,6.141 65.302,6.141 65.302,6.141 65.302,6.141 63.915,6.731 63.915,6.731 63.915,6.731 56.618,6.731 56.618,6.731 56.618,6.731 56.618,6.991 56.618,6.991 56.618,6.991 44.982,6.991 44.982,6.991 44.982,6.991 44.982,6.731 44.982,6.731 44.982,6.731 37.685,6.731 37.685,6.731 37.685,6.731 36.298,6.141 36.298,6.141 36.298,6.141 Z M 32.103,6.141 C 31.501,6.640 31.501,6.640 31.501,6.640 31.495,6.640 31.495,6.640 31.495,6.640 32.656,14.258 40.834,20.165 50.870,20.165 60.907,20.165 69.081,14.258 70.243,6.640 70.097,6.640 70.097,6.640 70.097,6.640 69.496,6.141 69.496,6.141 69.496,6.141 69.275,6.141 69.275,6.141 69.275,6.141 68.262,13.549 60.847,19.223 51.856,19.223 49.794,19.223 49.794,19.223 49.794,19.223 40.803,19.223 33.384,13.550 32.371,6.141 Z M 26.461,5.950 C 26.462,5.950 26.463,5.951 26.464,5.951 26.463,5.951 26.462,5.951 26.461,5.951 Z M 72.800,3.811 C 72.800,4.319 72.800,4.319 72.800,4.319 74.882,4.319 74.882,4.319 74.882,4.319 74.882,3.811 74.882,3.811 74.882,3.811 Z M 26.716,3.811 C 26.716,4.319 26.716,4.319 26.716,4.319 28.800,4.319 28.800,4.319 28.800,4.319 28.800,3.811 28.800,3.811 28.800,3.811 Z M 72.773,3.548 C 72.773,3.548 72.773,3.548 72.773,3.548 72.778,3.548 72.782,3.548 72.786,3.548 74.896,3.548 74.896,3.548 74.896,3.548 75.032,3.548 75.148,3.661 75.148,3.797 75.148,4.333 75.148,4.333 75.148,4.333 75.148,4.470 75.032,4.583 74.896,4.583 72.786,4.583 72.786,4.583 72.786,4.583 72.650,4.583 72.535,4.470 72.535,4.333 72.535,3.797 72.535,3.797 72.535,3.797 72.535,3.665 72.642,3.555 72.773,3.548 Z M 26.690,3.548 C 26.690,3.548 26.690,3.548 26.690,3.548 26.694,3.548 26.698,3.548 26.702,3.548 28.814,3.548 28.814,3.548 28.814,3.548 28.950,3.548 29.064,3.661 29.064,3.797 29.064,4.333 29.064,4.333 29.064,4.333 29.064,4.470 28.950,4.583 28.814,4.583 26.702,4.583 26.702,4.583 26.702,4.583 26.566,4.583 26.451,4.470 26.451,4.333 26.451,3.797 26.451,3.797 26.451,3.797 26.451,3.665 26.559,3.555 26.690,3.548 Z M 79.112,2.647 C 79.112,5.284 79.112,5.284 79.112,5.284 79.523,5.284 79.523,5.284 79.523,5.284 79.656,5.151 79.656,5.151 79.656,5.151 79.656,4.473 79.656,4.473 79.656,4.473 79.656,2.780 79.656,2.780 79.656,2.780 79.523,2.647 79.523,2.647 79.523,2.647 Z M 22.075,2.647 C 21.942,2.780 21.942,2.780 21.942,2.780 21.942,3.458 21.942,3.458 21.942,3.458 21.942,4.473 21.942,4.473 21.942,4.473 21.942,5.151 21.942,5.151 21.942,5.151 22.075,5.284 22.075,5.284 22.075,5.284 22.488,5.284 22.488,5.284 22.488,5.284 22.488,2.647 22.488,2.647 22.488,2.647 Z M 68.009,2.450 C 68.009,5.481 68.009,5.481 68.009,5.481 69.484,5.481 69.484,5.481 69.484,5.481 69.484,2.450 69.484,2.450 69.484,2.450 Z M 65.367,2.450 C 65.367,5.481 65.367,5.481 65.367,5.481 67.745,5.481 67.745,5.481 67.745,5.481 67.745,2.450 67.745,2.450 67.745,2.450 Z M 33.855,2.450 C 33.855,5.481 33.855,5.481 33.855,5.481 36.232,5.481 36.232,5.481 36.232,5.481 36.232,2.450 36.232,2.450 36.232,2.450 Z M 32.116,2.450 C 32.116,5.481 32.116,5.481 32.116,5.481 33.589,5.481 33.589,5.481 33.589,5.481 33.589,2.450 33.589,2.450 33.589,2.450 Z M 75.567,2.138 C 75.567,5.794 75.567,5.794 75.567,5.794 75.956,5.794 75.956,5.794 75.956,5.794 75.956,2.138 75.956,2.138 75.956,2.138 Z M 25.642,2.138 C 25.642,5.794 25.642,5.794 25.642,5.794 26.030,5.794 26.030,5.794 26.030,5.794 26.030,2.138 26.030,2.138 26.030,2.138 Z M 76.419,1.987 C 76.419,2.138 76.419,2.138 76.419,2.138 76.222,2.138 76.222,2.138 76.222,2.138 76.222,5.794 76.222,5.794 76.222,5.794 76.419,5.794 76.419,5.794 76.419,5.794 76.419,5.946 76.419,5.946 76.419,5.946 78.847,5.308 78.847,5.308 78.847,5.308 78.847,2.623 78.847,2.623 78.847,2.623 Z M 25.179,1.987 C 22.751,2.623 22.751,2.623 22.751,2.623 22.751,5.308 22.751,5.308 22.751,5.308 25.179,5.946 25.179,5.946 25.179,5.946 25.179,5.794 25.179,5.794 25.179,5.794 25.378,5.794 25.378,5.794 25.378,5.794 25.378,2.138 25.378,2.138 25.378,2.138 25.179,2.138 25.179,2.138 25.179,2.138 Z M 72.251,1.954 C 72.251,5.977 72.251,5.977 72.251,5.977 75.136,5.977 75.136,5.977 75.136,5.977 75.255,5.794 75.255,5.794 75.255,5.794 75.302,5.794 75.302,5.794 75.302,5.794 75.302,2.138 75.302,2.138 75.302,2.138 75.255,2.138 75.255,2.138 75.255,2.138 75.136,1.954 75.136,1.954 75.136,1.954 Z M 70.710,1.954 C 70.710,5.977 70.710,5.977 70.710,5.977 71.987,5.977 71.987,5.977 71.987,5.977 71.987,1.954 71.987,1.954 71.987,1.954 Z M 70.335,1.954 C 69.747,2.439 69.747,2.439 69.747,2.439 69.747,5.492 69.747,5.492 69.747,5.492 70.335,5.977 70.335,5.977 70.335,5.977 70.444,5.977 70.444,5.977 70.444,5.977 70.444,1.954 70.444,1.954 70.444,1.954 Z M 31.154,1.954 C 31.154,5.977 31.154,5.977 31.154,5.977 31.263,5.977 31.263,5.977 31.263,5.977 31.851,5.492 31.851,5.492 31.851,5.492 31.851,2.439 31.851,2.439 31.851,2.439 31.263,1.954 31.263,1.954 31.263,1.954 Z M 29.611,1.954 C 29.611,5.977 29.611,5.977 29.611,5.977 30.890,5.977 30.890,5.977 30.890,5.977 30.890,1.954 30.890,1.954 30.890,1.954 Z M 26.462,1.954 C 26.345,2.138 26.345,2.138 26.345,2.138 26.296,2.138 26.296,2.138 26.296,2.138 26.296,5.794 26.296,5.794 26.296,5.794 26.345,5.794 26.345,5.794 26.345,5.794 26.462,5.977 26.462,5.977 26.462,5.977 29.347,5.977 29.347,5.977 29.347,5.977 29.347,1.954 29.347,1.954 29.347,1.954 Z M 37.618,1.947 C 36.498,2.423 36.498,2.423 36.498,2.423 36.498,5.508 36.498,5.508 36.498,5.508 37.618,5.984 37.618,5.984 37.618,5.984 Z M 63.980,1.946 C 63.980,5.985 63.980,5.985 63.980,5.985 65.101,5.509 65.101,5.509 65.101,5.509 65.101,2.422 65.101,2.422 65.101,2.422 Z M 45.064,1.868 C 45.064,1.868 45.064,1.868 45.064,1.868 44.013,1.868 43.068,2.121 42.403,2.516 41.737,2.912 41.368,3.426 41.368,3.967 41.368,4.509 41.737,5.025 42.403,5.421 43.068,5.816 44.013,6.069 45.064,6.069 47.482,6.069 47.482,6.069 47.482,6.069 56.536,6.069 56.536,6.069 56.536,6.069 57.587,6.069 58.532,5.816 59.197,5.421 59.863,5.025 60.233,4.509 60.233,3.967 60.233,3.426 59.863,2.912 59.197,2.516 58.532,2.121 57.587,1.868 56.536,1.868 Z M 58.926,1.862 C 59.106,1.939 59.276,2.024 59.434,2.118 60.188,2.566 60.696,3.217 60.696,3.967 60.696,4.718 60.188,5.371 59.434,5.819 59.280,5.910 59.115,5.994 58.941,6.069 63.716,6.069 63.716,6.069 63.716,6.069 63.716,1.862 63.716,1.862 63.716,1.862 Z M 37.884,1.862 C 37.884,6.069 37.884,6.069 37.884,6.069 42.659,6.069 42.659,6.069 42.659,6.069 42.485,5.994 42.320,5.910 42.166,5.819 41.412,5.371 40.904,4.718 40.904,3.967 40.904,3.217 41.412,2.566 42.166,2.118 42.324,2.024 42.494,1.939 42.674,1.862 Z M 44.982,0.940 C 56.618,0.940 56.618,0.940 56.618,0.940 56.618,1.200 56.618,1.200 56.618,1.200 63.915,1.200 63.915,1.200 63.915,1.200 65.302,1.790 65.302,1.790 65.302,1.790 69.496,1.790 69.496,1.790 69.496,1.790 70.097,1.292 70.097,1.292 70.097,1.292 75.499,1.292 75.499,1.292 75.499,1.292 75.617,1.476 75.617,1.476 75.617,1.476 75.759,1.476 75.759,1.476 75.759,1.476 75.759,1.128 75.759,1.128 75.759,1.128 79.023,1.985 79.023,1.985 79.023,1.985 79.796,1.985 79.796,1.985 79.796,1.985 80.318,2.507 80.318,2.507 80.318,2.507 80.318,3.458 80.318,3.458 80.318,3.458 80.318,5.425 80.318,5.425 80.318,5.425 79.796,5.946 79.796,5.946 79.796,5.946 79.023,5.946 79.023,5.946 79.023,5.946 75.759,6.803 75.759,6.803 75.759,6.803 75.759,6.456 75.759,6.456 75.759,6.456 75.617,6.456 75.617,6.456 75.617,6.456 75.499,6.640 75.499,6.640 75.499,6.640 75.135,6.640 75.135,6.640 75.135,6.640 74.167,16.670 64.267,24.460 52.186,24.460 49.466,24.460 49.466,24.460 49.466,24.460 37.385,24.460 27.482,16.670 26.514,6.640 26.101,6.640 26.101,6.640 26.101,6.640 25.983,6.456 25.983,6.456 25.983,6.456 25.841,6.456 25.841,6.456 25.841,6.456 25.841,6.803 25.841,6.803 25.841,6.803 22.577,5.946 22.577,5.946 22.577,5.946 21.802,5.946 21.802,5.946 21.802,5.946 21.282,5.425 21.282,5.425 21.282,5.425 21.282,4.473 21.282,4.473 21.282,4.473 21.282,3.458 21.282,3.458 21.282,3.458 21.282,2.507 21.282,2.507 21.282,2.507 21.802,1.985 21.802,1.985 21.802,1.985 22.577,1.985 22.577,1.985 22.577,1.985 25.841,1.128 25.841,1.128 25.841,1.128 25.841,1.476 25.841,1.476 25.841,1.476 25.983,1.476 25.983,1.476 25.983,1.476 26.101,1.292 26.101,1.292 26.101,1.292 31.501,1.292 31.501,1.292 31.501,1.292 32.103,1.790 32.103,1.790 32.103,1.790 36.298,1.790 36.298,1.790 36.298,1.790 37.685,1.200 37.685,1.200 37.685,1.200 44.982,1.200 44.982,1.200 44.982,1.200 Z " />
</svg>