<?xml version="1.0" encoding="UTF-8" standalone="no"?>
<!DOCTYPE svg PUBLIC "-//W3C//DTD SVG 20010904//EN" "http://www.w3.org/TR/2001/REC-SVG-20010904/DTD/svg10.dtd"[]>
<svg version="1.1" id="Frosty Editor v1.0.6.3" xmlns="http://www.w3.org/2000/svg" d1p1:xlink="http://www.w3.org/1999/xlink" viewBox="0 0 25 25" xmlns:d1p1="xmlns">
  <path stroke="none" fill="none" d="M 18.795,16.449 C 18.795,17.242 18.795,18.034 18.795,18.827 18.725,18.827 18.656,18.827 18.586,18.827 18.586,18.034 18.586,17.242 18.586,16.449 18.336,15.993 18.086,15.537 17.835,15.081 18.414,15.081 18.992,15.081 19.571,15.081 19.312,15.537 19.053,15.993 18.795,16.449 Z M 17.033,14.554 C 17.443,15.348 17.854,16.143 18.265,16.937 17.854,17.732 17.443,18.526 17.033,19.321 18.133,19.321 19.233,19.321 20.334,19.321 19.922,18.526 19.511,17.732 19.099,16.937 19.510,16.143 19.921,15.348 20.332,14.554 19.232,14.554 18.132,14.554 17.033,14.554 Z " />
  <path stroke="none" fill="#ffffffff" d="M 20.334,19.321 C 19.233,19.321 18.133,19.321 17.033,19.321 17.443,18.526 17.854,17.732 18.265,16.937 17.854,16.143 17.443,15.348 17.033,14.554 18.133,14.554 19.233,14.554 20.334,14.554 19.922,15.348 19.511,16.143 19.099,16.937 19.511,17.732 19.922,18.526 20.334,19.321 Z M 18.565,13.778 C 17.300,13.778 16.160,14.540 15.675,15.709 15.191,16.878 15.459,18.223 16.353,19.118 17.248,20.013 18.594,20.280 19.762,19.796 20.931,19.312 21.694,18.171 21.694,16.906 21.694,16.076 21.364,15.281 20.777,14.694 20.191,14.107 19.395,13.778 18.565,13.778 18.565,13.778 18.565,13.778 18.565,13.778 Z " />
  <path stroke="none" fill="#ffffffff" d="M 17.827,15.079 C 18.077,15.535 18.328,15.991 18.578,16.447 18.575,17.242 18.572,18.038 18.570,18.833 18.639,18.834 18.709,18.834 18.778,18.835 18.781,18.043 18.784,17.250 18.786,16.458 19.045,16.001 19.304,15.544 19.562,15.087 18.984,15.085 18.405,15.082 17.827,15.079 17.827,15.079 17.827,15.079 17.827,15.079 Z " />
  <path stroke="none" fill="#ffffffff" d="M 13.578,15.123 C 13.817,15.123 14.055,14.938 14.055,14.673 14.055,14.435 13.843,14.223 13.578,14.223 12.961,14.223 12.344,14.223 11.726,14.223 11.488,14.223 11.277,14.409 11.277,14.673 11.277,14.911 11.488,15.123 11.726,15.123 11.885,15.123 12.044,15.123 12.203,15.123 12.203,15.396 12.203,15.670 12.203,15.943 12.141,15.943 12.079,15.943 12.017,15.943 11.859,15.970 11.753,16.102 11.753,16.261 11.753,16.393 11.885,16.499 12.017,16.525 12.079,16.525 12.141,16.525 12.203,16.525 12.203,16.852 12.203,17.178 12.203,17.504 12.141,17.504 12.079,17.504 12.017,17.504 11.859,17.531 11.753,17.663 11.753,17.822 11.753,17.954 11.885,18.060 12.017,18.086 12.079,18.086 12.141,18.086 12.203,18.086 12.203,18.413 12.203,18.739 12.203,19.065 12.141,19.065 12.079,19.065 12.017,19.065 11.859,19.092 11.753,19.224 11.753,19.383 11.753,19.515 11.885,19.621 12.017,19.647 12.079,19.647 12.141,19.647 12.203,19.647 12.203,19.921 12.203,20.194 12.203,20.468 12.035,20.468 11.867,20.468 11.700,20.468 11.462,20.468 11.250,20.679 11.250,20.917 11.250,21.156 11.435,21.367 11.700,21.367 12.317,21.367 12.935,21.367 13.552,21.367 13.790,21.367 14.002,21.156 14.002,20.917 14.002,20.679 13.817,20.468 13.552,20.468 13.393,20.468 13.235,20.468 13.076,20.468 13.076,20.194 13.076,19.921 13.076,19.647 13.137,19.647 13.199,19.647 13.261,19.647 13.420,19.621 13.526,19.489 13.526,19.330 13.526,19.198 13.393,19.092 13.261,19.065 13.199,19.065 13.137,19.065 13.076,19.065 13.076,18.739 13.076,18.413 13.076,18.086 13.137,18.086 13.199,18.086 13.261,18.086 13.420,18.060 13.526,17.928 13.526,17.769 13.526,17.637 13.393,17.531 13.261,17.504 13.199,17.504 13.137,17.504 13.076,17.504 13.076,17.178 13.076,16.852 13.076,16.525 13.137,16.525 13.199,16.525 13.261,16.525 13.420,16.525 13.552,16.393 13.552,16.234 13.552,16.076 13.367,15.970 13.314,15.970 13.235,15.970 13.155,15.970 13.076,15.970 13.076,15.696 13.076,15.423 13.076,15.150 13.243,15.141 13.411,15.132 13.578,15.123 13.578,15.123 13.578,15.123 13.578,15.123 Z " />
  <path stroke="none" fill="#ffffffff" d="M 9.548,10.113 C 9.299,10.104 9.109,10.305 9.100,10.555 9.102,10.716 9.104,10.878 9.106,11.040 8.833,11.045 8.561,11.049 8.288,11.053 8.285,10.994 8.281,10.935 8.278,10.876 8.281,10.722 8.142,10.588 7.988,10.585 7.834,10.582 7.700,10.721 7.697,10.875 7.701,10.934 7.704,10.993 7.708,11.052 7.384,11.056 7.060,11.059 6.736,11.062 6.733,11.003 6.729,10.944 6.726,10.885 6.728,10.731 6.613,10.584 6.459,10.581 6.304,10.578 6.157,10.694 6.155,10.848 6.155,10.848 6.145,10.884 6.145,10.884 6.152,10.931 6.158,10.978 6.165,11.025 5.841,11.029 5.518,11.032 5.194,11.035 5.190,10.976 5.187,10.917 5.183,10.858 5.186,10.704 5.048,10.570 4.893,10.567 4.834,10.571 4.752,10.588 4.697,10.650 4.641,10.713 4.622,10.785 4.602,10.857 4.606,10.916 4.609,10.975 4.613,11.034 4.340,11.039 4.068,11.043 3.796,11.047 3.794,10.886 3.792,10.724 3.791,10.562 3.799,10.312 3.599,10.123 3.349,10.114 3.100,10.105 2.910,10.306 2.901,10.555 2.901,10.555 2.901,10.555 2.901,10.555 2.902,11.175 2.904,11.796 2.905,12.416 2.896,12.665 3.097,12.855 3.346,12.864 3.583,12.850 3.785,12.672 3.794,12.422 3.793,12.261 3.791,12.099 3.789,11.937 4.062,11.932 4.334,11.928 4.606,11.924 4.610,11.983 4.613,12.042 4.617,12.101 4.614,12.255 4.753,12.389 4.907,12.392 5.061,12.395 5.195,12.256 5.198,12.102 5.194,12.043 5.191,11.984 5.187,11.925 5.511,11.921 5.835,11.918 6.159,11.915 6.166,11.981 6.174,12.048 6.182,12.115 6.180,12.269 6.318,12.403 6.472,12.406 6.626,12.408 6.761,12.270 6.763,12.116 6.760,12.057 6.756,11.998 6.753,11.939 7.077,11.935 7.400,11.932 7.724,11.928 7.728,11.987 7.731,12.046 7.735,12.105 7.732,12.260 7.870,12.394 8.024,12.396 8.179,12.399 8.313,12.261 8.315,12.107 8.312,12.047 8.308,11.988 8.305,11.929 8.582,11.933 8.859,11.936 9.135,11.939 9.129,12.106 9.123,12.272 9.117,12.438 9.109,12.688 9.323,12.900 9.559,12.886 9.795,12.872 10.021,12.681 10.007,12.445 10.006,11.824 10.004,11.204 10.003,10.584 9.999,10.312 9.798,10.122 9.548,10.113 9.548,10.113 9.548,10.113 9.548,10.113 9.548,10.113 9.548,10.113 9.548,10.113 Z " />
  <path stroke="none" fill="#ffffffff" d="M 22.396,12.307 C 22.389,11.687 22.382,11.066 22.375,10.446 22.363,10.197 22.170,9.998 21.921,10.011 21.672,10.023 21.473,10.215 21.486,10.464 21.486,10.626 21.486,10.788 21.487,10.950 21.215,10.949 20.942,10.949 20.670,10.948 20.668,10.897 20.667,10.845 20.665,10.794 20.681,10.712 20.624,10.650 20.568,10.588 20.442,10.487 20.265,10.479 20.164,10.605 20.103,10.661 20.087,10.744 20.084,10.803 20.081,10.862 20.079,10.921 20.076,10.980 19.752,10.981 19.428,10.982 19.105,10.983 19.107,10.923 19.110,10.864 19.113,10.805 19.085,10.638 18.923,10.548 18.779,10.589 18.648,10.606 18.561,10.709 18.555,10.827 18.552,10.886 18.550,10.945 18.547,11.004 18.223,11.005 17.899,11.006 17.575,11.007 17.578,10.948 17.581,10.889 17.584,10.830 17.615,10.665 17.479,10.529 17.338,10.510 17.196,10.492 17.037,10.615 17.018,10.756 17.006,10.779 17.029,10.792 17.016,10.815 17.013,10.874 17.010,10.934 17.008,10.993 16.731,11.000 16.454,11.007 16.177,11.014 16.177,10.852 16.177,10.690 16.176,10.528 16.164,10.279 15.972,10.080 15.722,10.092 15.473,10.105 15.275,10.297 15.287,10.546 15.294,11.166 15.301,11.787 15.308,12.407 15.320,12.656 15.512,12.855 15.762,12.842 16.011,12.830 16.196,12.661 16.184,12.412 16.184,12.250 16.183,12.088 16.183,11.926 16.455,11.927 16.728,11.927 17.000,11.928 16.997,11.987 16.995,12.046 16.992,12.105 16.997,12.260 17.132,12.396 17.287,12.391 17.441,12.387 17.577,12.251 17.573,12.097 17.575,12.037 17.578,11.978 17.581,11.919 17.905,11.918 18.228,11.917 18.552,11.917 18.550,11.976 18.547,12.035 18.544,12.094 18.549,12.248 18.685,12.385 18.839,12.380 18.993,12.375 19.094,12.250 19.125,12.085 19.128,12.026 19.130,11.967 19.133,11.908 19.457,11.907 19.781,11.906 20.104,11.905 20.102,11.964 20.099,12.023 20.096,12.082 20.101,12.237 20.237,12.373 20.391,12.368 20.545,12.364 20.682,12.228 20.677,12.074 20.680,12.015 20.683,11.955 20.685,11.896 20.958,11.897 21.230,11.898 21.503,11.898 21.503,12.060 21.503,12.222 21.504,12.384 21.516,12.633 21.721,12.809 21.958,12.820 22.174,12.759 22.395,12.579 22.396,12.307 22.383,12.330 22.396,12.307 22.396,12.307 22.396,12.307 22.396,12.307 22.396,12.307 Z " />
</svg>