<?xml version="1.0" encoding="UTF-8" standalone="no"?>
<!DOCTYPE svg PUBLIC "-//W3C//DTD SVG 20010904//EN" "http://www.w3.org/TR/2001/REC-SVG-20010904/DTD/svg10.dtd"[]>
<svg version="1.1" id="Frosty Editor v1.0.6.3" xmlns="http://www.w3.org/2000/svg" d1p1:xlink="http://www.w3.org/1999/xlink" viewBox="0 0 384 96" xmlns:d1p1="xmlns">
  <path stroke="none" fill="#ffffffff" d="M 173.400,39.900 C 173.400,40.673 172.773,41.300 172.000,41.300 171.227,41.300 170.600,40.673 170.600,39.900 170.600,39.127 171.227,38.500 172.000,38.500 172.773,38.500 173.400,39.127 173.400,39.900 173.400,39.900 173.400,39.900 173.400,39.900 Z " />
  <path stroke="none" fill="#ffffffff" d="M 270.900,57.900 C 274.667,57.900 278.433,57.900 282.200,57.900 " />
  <path stroke="none" fill="#ffffffff" d="M 281.300,59.800 C 279.967,59.467 278.633,59.133 277.300,58.800 275.400,58.800 273.500,58.800 271.600,58.800 271.200,58.800 270.900,58.500 270.900,58.100 270.900,57.967 270.900,57.833 270.900,57.700 270.900,57.300 271.200,57.000 271.600,57.000 273.533,57.000 275.467,57.000 277.400,57.000 278.733,56.700 280.067,56.400 281.400,56.100 281.800,56.000 282.300,56.300 282.300,56.800 282.300,57.567 282.300,58.333 282.300,59.100 282.200,59.600 281.800,59.900 281.300,59.800 281.300,59.800 281.300,59.800 281.300,59.800 Z " />
  <path stroke="none" fill="#ffffffff" d="M 288.400,21.700 C 289.200,21.700 290.000,21.700 290.800,21.700 290.800,26.033 290.800,30.367 290.800,34.700 290.000,34.700 289.200,34.700 288.400,34.700 288.400,30.367 288.400,26.033 288.400,21.700 288.400,21.700 288.400,21.700 288.400,21.700 Z M 291.700,21.700 C 292.233,22.167 292.767,22.633 293.300,23.100 293.300,26.533 293.300,29.967 293.300,33.400 292.767,33.867 292.233,34.333 291.700,34.800 291.700,30.433 291.700,26.067 291.700,21.700 291.700,21.700 291.700,21.700 291.700,21.700 Z M 294.300,23.100 C 301.067,23.100 307.833,23.100 314.600,23.100 314.600,26.500 314.600,29.900 314.600,33.300 307.833,33.300 301.067,33.300 294.300,33.300 294.300,29.900 294.300,26.500 294.300,23.100 294.300,23.100 294.300,23.100 294.300,23.100 Z M 315.500,23.100 C 315.500,23.100 315.500,23.100 315.500,23.100 316.033,22.633 316.567,22.167 317.100,21.700 317.100,26.033 317.100,30.367 317.100,34.700 316.567,34.233 316.033,33.767 315.500,33.300 315.500,33.300 315.500,33.300 315.500,33.300 315.500,29.900 315.500,26.500 315.500,23.100 315.500,23.100 315.500,23.100 315.500,23.100 Z M 318.100,21.700 C 318.867,21.700 319.633,21.700 320.400,21.700 320.400,26.033 320.400,30.367 320.400,34.700 319.633,34.700 318.867,34.700 318.100,34.700 318.100,30.367 318.100,26.033 318.100,21.700 318.100,21.700 318.100,21.700 318.100,21.700 Z M 321.300,21.700 C 321.300,21.700 321.300,21.700 321.300,21.700 321.833,22.167 322.367,22.633 322.900,23.100 322.900,26.533 322.900,29.967 322.900,33.400 322.367,33.867 321.833,34.333 321.300,34.800 321.300,34.800 321.300,34.800 321.300,34.800 321.300,30.433 321.300,26.067 321.300,21.700 321.300,21.700 321.300,21.700 321.300,21.700 Z M 323.900,23.100 C 327.467,23.100 331.033,23.100 334.600,23.100 334.600,26.500 334.600,29.900 334.600,33.300 331.033,33.300 327.467,33.300 323.900,33.300 323.900,29.900 323.900,26.500 323.900,23.100 323.900,23.100 323.900,23.100 323.900,23.100 Z M 272.500,29.900 C 277.333,29.900 282.167,29.900 287.000,29.900 287.000,31.967 287.000,34.033 287.000,36.100 288.733,36.100 290.467,36.100 292.200,36.100 292.333,36.000 292.467,35.900 292.600,35.800 293.033,35.433 293.467,35.067 293.900,34.700 300.933,34.700 307.967,34.700 315.000,34.700 315.433,35.067 315.867,35.433 316.300,35.800 316.433,35.900 316.567,36.000 316.700,36.100 318.433,36.100 320.167,36.100 321.900,36.100 322.033,36.000 322.167,35.900 322.300,35.800 322.733,35.433 323.167,35.067 323.600,34.700 327.733,34.700 331.867,34.700 336.000,34.700 336.000,33.100 336.000,31.500 336.000,29.900 339.000,29.900 342.000,29.900 345.000,29.900 345.900,29.900 346.600,29.200 346.600,28.300 346.600,28.267 346.600,28.233 346.600,28.200 346.600,27.300 345.900,26.600 345.000,26.600 342.000,26.600 339.000,26.600 336.000,26.600 336.000,25.000 336.000,23.400 336.000,21.800 331.867,21.800 327.733,21.800 323.600,21.800 323.167,21.433 322.733,21.067 322.300,20.700 322.167,20.600 322.033,20.500 321.900,20.400 320.167,20.400 318.433,20.400 316.700,20.400 316.567,20.500 316.433,20.600 316.300,20.700 315.867,21.067 315.433,21.433 315.000,21.800 307.967,21.800 300.933,21.800 293.900,21.800 293.467,21.433 293.033,21.067 292.600,20.700 292.467,20.600 292.333,20.500 292.200,20.400 290.467,20.400 288.733,20.400 287.000,20.400 287.000,22.467 287.000,24.533 287.000,26.600 282.167,26.600 277.333,26.600 272.500,26.600 271.600,26.600 270.900,27.300 270.900,28.200 270.900,28.233 270.900,28.267 270.900,28.300 270.900,29.200 271.600,29.900 272.500,29.900 272.500,29.900 272.500,29.900 272.500,29.900 Z " />
  <path stroke="none" fill="#ffffffff" d="M 114.500,16.700 C 113.900,16.700 113.400,17.200 113.400,17.800 113.400,18.400 113.900,18.900 114.500,18.900 115.100,18.900 115.600,18.400 115.600,17.800 115.700,17.200 115.200,16.700 114.500,16.700 114.500,16.700 114.500,16.700 114.500,16.700 Z " />
  <path stroke="none" fill="#ffffffff" d="M 105.400,31.200 C 104.500,31.200 103.800,31.900 103.800,32.800 103.800,33.700 104.500,34.400 105.400,34.400 106.300,34.400 107.000,33.700 107.000,32.800 107.000,31.900 106.300,31.200 105.400,31.200 105.400,31.200 105.400,31.200 105.400,31.200 Z " />
  <path stroke="none" fill="#ffffffff" d="M 59.400,22.800 C 58.600,22.800 57.900,23.500 57.900,24.300 57.900,25.100 58.600,25.800 59.400,25.800 60.200,25.800 60.900,25.100 60.900,24.300 60.900,23.500 60.200,22.800 59.400,22.800 59.400,22.800 59.400,22.800 59.400,22.800 Z " />
  <path stroke="none" fill="#ffffffff" d="M 192.400,30.700 C 193.767,28.867 195.133,27.033 196.500,25.200 196.600,25.000 196.800,24.900 197.100,24.900 197.700,24.900 198.300,24.900 198.900,24.900 198.900,27.500 198.900,30.100 198.900,32.700 197.067,32.700 195.233,32.700 193.400,32.700 192.900,32.700 192.500,32.500 192.300,32.000 192.100,31.500 192.100,31.000 192.400,30.700 192.400,30.700 192.400,30.700 192.400,30.700 Z M 199.300,24.800 C 203.900,24.733 208.500,24.667 213.100,24.600 213.133,24.600 213.167,24.600 213.200,24.600 215.400,24.600 217.200,26.400 217.200,28.600 217.200,30.800 215.400,32.600 213.200,32.600 208.567,32.600 203.933,32.600 199.300,32.600 199.300,30.000 199.300,27.400 199.300,24.800 199.300,24.800 199.300,24.800 199.300,24.800 Z M 193.400,33.500 C 200.000,33.500 206.600,33.500 213.200,33.500 215.900,33.500 218.100,31.300 218.100,28.600 218.100,25.900 215.900,23.700 213.200,23.700 213.200,23.700 213.100,23.700 213.100,23.700 207.733,23.767 202.367,23.833 197.000,23.900 196.500,23.900 196.000,24.200 195.700,24.600 194.333,26.433 192.967,28.267 191.600,30.100 190.600,31.500 191.600,33.500 193.400,33.500 193.400,33.500 193.400,33.500 193.400,33.500 Z " />
  <path stroke="none" fill="#ffffffff" d="M 245.200,30.300 C 246.100,30.300 246.900,29.500 246.900,28.600 246.900,27.700 246.100,26.900 245.200,26.900 244.300,26.900 243.500,27.700 243.500,28.600 243.500,29.500 244.300,30.300 245.200,30.300 245.200,30.300 245.200,30.300 245.200,30.300 Z " />
  <path stroke="none" fill="#ffffffff" d="M 174.500,47.100 C 177.700,47.100 180.300,49.700 180.300,52.900 180.300,56.100 177.700,58.700 174.500,58.700 171.300,58.700 168.700,56.100 168.700,52.900 168.600,49.700 171.300,47.100 174.500,47.100 174.500,47.100 174.500,47.100 174.500,47.100 Z M 174.500,59.700 C 178.200,59.700 181.300,56.700 181.300,52.900 181.300,49.200 178.300,46.100 174.500,46.100 170.800,46.100 167.700,49.100 167.700,52.900 167.700,56.700 170.800,59.700 174.500,59.700 174.500,59.700 174.500,59.700 174.500,59.700 Z " />
  <path stroke="none" fill="#ffffffff" d="M 176.300,53.000 C 176.300,53.994 175.494,54.800 174.500,54.800 173.506,54.800 172.700,53.994 172.700,53.000 172.700,52.006 173.506,51.200 174.500,51.200 175.494,51.200 176.300,52.006 176.300,53.000 176.300,53.000 176.300,53.000 176.300,53.000 Z " />
  <path stroke="none" fill="#ffffffff" d="M 163.000,18.300 C 164.700,18.300 166.400,18.300 168.100,18.300 168.100,23.000 168.100,27.700 168.100,32.400 166.400,32.400 164.700,32.400 163.000,32.400 163.000,27.700 163.000,23.000 163.000,18.300 163.000,18.300 163.000,18.300 163.000,18.300 Z M 162.000,33.300 C 164.333,33.300 166.667,33.300 169.000,33.300 169.000,28.000 169.000,22.700 169.000,17.400 166.667,17.400 164.333,17.400 162.000,17.400 162.000,22.700 162.000,28.000 162.000,33.300 162.000,33.300 162.000,33.300 162.000,33.300 Z " />
  <path stroke="none" fill="#ffffffff" d="M 236.600,51.000 C 236.100,51.000 235.600,51.400 235.600,52.000 235.600,52.500 236.000,53.000 236.600,53.000 237.100,53.000 237.600,52.600 237.600,52.000 237.500,51.500 237.100,51.000 236.600,51.000 236.600,51.000 236.600,51.000 236.600,51.000 Z " />
  <path stroke="none" fill="#ffffffff" d="M 209.200,37.600 C 208.700,37.600 208.200,38.000 208.200,38.600 208.200,39.100 208.600,39.600 209.200,39.600 209.800,39.600 210.200,39.200 210.200,38.600 210.200,38.000 209.800,37.600 209.200,37.600 209.200,37.600 209.200,37.600 209.200,37.600 Z " />
  <path stroke="none" fill="#ffffffff" d="M 313.200,53.700 C 312.500,53.700 311.900,54.300 311.900,55.000 311.900,55.700 312.500,56.300 313.200,56.300 313.900,56.300 314.500,55.700 314.500,55.000 314.500,54.300 313.900,53.700 313.200,53.700 313.200,53.700 313.200,53.700 313.200,53.700 Z " />
  <path stroke="none" fill="#ffffffff" d="M 381.200,26.500 C 371.933,26.500 362.667,26.500 353.400,26.500 352.500,26.500 351.800,27.200 351.800,28.100 351.800,28.133 351.800,28.167 351.800,28.200 351.800,29.100 352.500,29.800 353.400,29.800 362.667,29.800 371.933,29.800 381.200,29.800 381.200,32.800 381.200,35.800 381.200,38.800 334.267,38.800 287.333,38.800 240.400,38.800 240.400,31.667 240.400,24.533 240.400,17.400 287.333,17.400 334.267,17.400 381.200,17.400 381.200,20.433 381.200,23.467 381.200,26.500 381.200,26.500 381.200,26.500 381.200,26.500 Z M 324.100,46.500 C 324.100,47.800 323.000,48.900 321.700,48.900 320.800,48.900 319.900,48.900 319.000,48.900 319.000,46.033 319.000,43.167 319.000,40.300 319.900,40.300 320.800,40.300 321.700,40.300 323.000,40.300 324.100,41.400 324.100,42.700 324.100,43.967 324.100,45.233 324.100,46.500 324.100,46.500 324.100,46.500 324.100,46.500 Z M 318.100,48.900 C 313.433,48.900 308.767,48.900 304.100,48.900 304.100,49.067 304.100,49.233 304.100,49.400 302.100,49.400 300.100,49.400 298.100,49.400 298.100,46.367 298.100,43.333 298.100,40.300 304.733,40.300 311.367,40.300 318.000,40.300 318.000,43.167 318.000,46.033 318.000,48.900 318.033,48.900 318.067,48.900 318.100,48.900 Z M 312.500,61.200 C 309.700,61.600 284.400,63.800 277.100,63.800 269.800,63.800 266.100,60.100 266.100,60.100 266.567,59.633 267.033,59.167 267.500,58.700 267.500,58.267 267.500,57.833 267.500,57.400 267.500,55.800 270.600,52.400 275.500,52.400 280.300,52.400 286.200,57.500 286.200,57.600 286.267,57.667 286.333,57.733 286.400,57.800 286.467,57.767 286.533,57.733 286.600,57.700 286.800,57.600 310.000,52.000 312.900,52.000 314.000,52.000 315.000,52.200 315.700,52.600 316.100,52.900 317.200,54.000 317.200,56.600 317.300,59.800 315.400,60.800 312.500,61.200 312.500,61.200 312.500,61.200 312.500,61.200 Z M 274.500,47.900 C 274.500,45.667 274.500,43.433 274.500,41.200 282.100,41.200 289.700,41.200 297.300,41.200 297.300,43.433 297.300,45.667 297.300,47.900 289.700,47.900 282.100,47.900 274.500,47.900 274.500,47.900 274.500,47.900 274.500,47.900 Z M 225.600,56.700 C 225.500,56.700 225.400,56.700 225.300,56.700 223.600,56.700 221.900,56.500 220.200,56.100 218.233,55.667 216.267,55.233 214.300,54.800 197.867,50.200 181.433,45.600 165.000,41.000 164.600,40.600 164.200,40.200 163.800,39.800 165.100,38.833 166.400,37.867 167.700,36.900 169.933,36.900 172.167,36.900 174.400,36.900 187.633,40.233 200.867,43.567 214.100,46.900 216.867,47.333 219.633,47.767 222.400,48.200 223.600,48.400 224.700,48.500 225.900,48.500 249.667,48.600 273.433,48.700 297.200,48.800 297.200,49.300 297.200,49.800 297.200,50.300 299.500,50.300 301.800,50.300 304.100,50.300 304.100,50.567 304.100,50.833 304.100,51.100 306.000,51.100 307.900,51.100 309.800,51.100 310.167,50.733 310.533,50.367 310.900,50.000 312.100,50.000 313.300,50.000 314.500,50.000 314.767,50.267 315.033,50.533 315.300,50.800 315.333,51.067 315.367,51.333 315.400,51.600 314.700,51.400 313.800,51.200 312.900,51.200 310.000,51.200 289.200,56.300 286.600,56.900 285.500,56.000 280.200,51.600 275.400,51.600 270.600,51.600 267.100,54.500 266.600,56.200 252.933,56.367 239.267,56.533 225.600,56.700 225.600,56.700 225.600,56.700 225.600,56.700 Z M 200.200,62.500 C 194.000,62.500 190.800,58.400 189.000,56.400 188.900,56.300 188.800,56.200 188.700,56.100 188.300,55.100 188.600,54.200 188.600,54.200 189.567,53.200 190.533,52.200 191.500,51.200 192.233,51.500 192.967,51.800 193.700,52.100 193.167,53.167 192.633,54.233 192.100,55.300 192.100,55.300 194.300,56.700 196.500,58.000 197.800,58.800 199.500,59.500 200.600,59.600 201.200,59.600 201.300,58.900 200.800,58.700 199.500,58.100 198.200,56.800 197.700,55.500 197.200,54.000 197.500,53.500 198.100,52.800 202.633,54.100 207.167,55.400 211.700,56.700 210.200,58.700 207.000,62.500 200.200,62.500 200.200,62.500 200.200,62.500 200.200,62.500 Z M 186.100,51.100 C 186.367,51.900 186.633,52.700 186.900,53.500 187.100,54.100 186.800,54.800 186.200,55.000 186.000,55.067 185.800,55.133 185.600,55.200 185.200,55.300 184.900,55.600 184.700,55.900 184.200,56.500 183.700,57.100 183.200,57.700 182.900,58.100 182.400,58.300 181.900,58.300 181.000,58.300 179.200,58.700 177.800,60.600 176.600,62.200 171.000,69.700 161.200,82.800 161.133,82.900 161.067,83.000 161.000,83.100 160.600,83.700 160.300,84.300 160.000,85.000 159.733,85.867 159.467,86.733 159.200,87.600 159.000,88.100 158.600,88.500 158.100,88.700 157.600,88.900 157.000,88.800 156.600,88.400 153.567,86.000 150.533,83.600 147.500,81.200 146.800,80.700 146.700,79.700 147.200,79.000 152.267,72.100 157.333,65.200 162.400,58.300 162.500,58.200 167.800,51.000 164.400,44.100 164.200,43.600 164.200,43.000 164.400,42.400 164.500,42.200 164.600,42.000 164.700,41.900 172.433,44.067 180.167,46.233 187.900,48.400 187.300,49.300 186.700,50.200 186.100,51.100 186.100,51.100 186.100,51.100 186.100,51.100 Z M 182.600,60.600 C 180.400,60.900 179.400,62.300 179.400,62.300 179.400,62.300 166.800,78.800 164.800,81.500 162.800,84.100 162.500,84.600 162.300,87.000 162.000,89.500 161.300,90.700 161.300,90.700 161.167,90.867 161.033,91.033 160.900,91.200 160.200,92.000 159.200,92.500 158.200,92.500 157.400,92.500 156.600,92.200 156.000,91.700 152.600,88.933 149.200,86.167 145.800,83.400 144.000,81.900 143.700,79.300 145.100,77.400 149.500,71.800 158.000,60.700 159.800,58.300 162.200,55.000 163.300,51.600 163.100,48.100 162.900,44.600 160.000,43.200 156.000,41.500 153.900,40.600 152.200,38.800 151.000,37.300 142.867,37.300 134.733,37.300 126.600,37.300 126.600,38.333 126.600,39.367 126.600,40.400 126.600,40.900 126.200,41.300 125.700,41.300 119.333,41.300 112.967,41.300 106.600,41.300 106.600,40.667 106.600,40.033 106.600,39.400 104.367,39.400 102.133,39.400 99.900,39.400 99.900,31.933 99.900,24.467 99.900,17.000 102.367,17.000 104.833,17.000 107.300,17.000 107.300,17.700 107.300,18.400 107.300,19.100 107.533,19.100 107.767,19.100 108.000,19.100 108.000,18.667 108.000,18.233 108.000,17.800 108.000,14.300 110.800,11.500 114.300,11.500 114.400,11.500 114.400,11.500 114.500,11.500 117.900,11.600 120.600,14.600 120.600,18.100 120.600,18.433 120.600,18.767 120.600,19.100 130.867,19.100 141.133,19.100 151.400,19.100 151.400,25.033 151.400,30.967 151.400,36.900 156.333,36.900 161.267,36.900 166.200,36.900 164.933,37.833 163.667,38.767 162.400,39.700 163.067,40.367 163.733,41.033 164.400,41.700 164.300,41.800 164.200,42.000 164.100,42.200 163.800,42.900 163.700,43.600 164.000,44.300 167.200,51.000 162.100,58.000 162.000,58.100 157.000,65.000 152.000,71.900 147.000,78.800 146.300,79.700 146.500,80.900 147.400,81.600 150.433,84.000 153.467,86.400 156.500,88.800 156.900,89.100 157.300,89.300 157.800,89.300 158.000,89.300 158.200,89.300 158.400,89.200 159.100,89.000 159.600,88.500 159.800,87.800 160.067,86.933 160.333,86.067 160.600,85.200 160.800,84.600 161.100,84.000 161.500,83.500 161.567,83.400 161.633,83.300 161.700,83.200 171.500,70.100 177.100,62.600 178.300,61.000 179.600,59.300 181.000,58.900 182.100,58.800 182.600,58.900 183.600,59.600 182.600,60.600 182.600,60.600 182.600,60.600 182.600,60.600 Z M 99.100,39.300 C 98.167,38.800 97.233,38.300 96.300,37.800 96.300,31.467 96.300,25.133 96.300,18.800 97.233,18.333 98.167,17.867 99.100,17.400 99.100,24.700 99.100,32.000 99.100,39.300 99.100,39.300 99.100,39.300 99.100,39.300 Z M 95.400,35.600 C 94.333,35.600 93.267,35.600 92.200,35.600 92.200,30.533 92.200,25.467 92.200,20.400 93.300,20.400 94.400,20.400 95.500,20.400 95.467,25.467 95.433,30.533 95.400,35.600 95.400,35.600 95.400,35.600 95.400,35.600 Z M 94.500,39.400 C 91.567,39.400 88.633,39.400 85.700,39.400 85.067,39.700 84.433,40.000 83.800,40.300 77.433,40.300 71.067,40.300 64.700,40.300 64.467,40.000 64.233,39.700 64.000,39.400 64.000,33.333 64.000,27.267 64.000,21.200 64.233,20.933 64.467,20.667 64.700,20.400 70.000,20.400 75.300,20.400 80.600,20.400 81.600,20.800 82.600,21.200 83.600,21.600 83.600,26.567 83.600,31.533 83.600,36.500 87.233,36.500 90.867,36.500 94.500,36.500 94.500,37.467 94.500,38.433 94.500,39.400 94.500,39.400 94.500,39.400 94.500,39.400 Z M 63.100,35.100 C 60.967,35.100 58.833,35.100 56.700,35.100 56.700,30.200 56.700,25.300 56.700,20.400 57.967,20.400 59.233,20.400 60.500,20.400 60.500,20.667 60.500,20.933 60.500,21.200 61.333,21.200 62.167,21.200 63.000,21.200 63.000,25.833 63.000,30.467 63.000,35.100 63.033,35.100 63.067,35.100 63.100,35.100 Z M 63.100,39.400 C 47.433,39.400 31.767,39.400 16.100,39.400 16.100,39.867 16.100,40.333 16.100,40.800 14.867,40.800 13.633,40.800 12.400,40.800 12.400,41.200 12.400,41.600 12.400,42.000 12.400,42.200 12.400,42.400 12.300,42.600 10.967,46.067 9.633,49.533 8.300,53.000 8.100,53.600 7.500,54.000 6.800,54.000 6.000,54.000 5.200,54.000 4.400,54.000 3.500,54.000 2.800,53.300 2.800,52.400 2.800,41.867 2.800,31.333 2.800,20.800 2.800,19.900 3.500,19.200 4.400,19.200 6.533,19.200 8.667,19.200 10.800,19.200 11.700,19.200 12.400,19.900 12.400,20.800 12.400,25.433 12.400,30.067 12.400,34.700 13.633,34.700 14.867,34.700 16.100,34.700 16.100,35.133 16.100,35.567 16.100,36.000 31.767,36.033 47.433,36.067 63.100,36.100 63.100,37.200 63.100,38.300 63.100,39.400 63.100,39.400 63.100,39.400 63.100,39.400 Z M 53.500,20.400 C 54.300,20.400 55.100,20.400 55.900,20.400 55.900,25.300 55.900,30.200 55.900,35.100 54.567,35.100 53.233,35.100 51.900,35.100 51.700,34.800 51.600,34.500 51.600,34.200 51.600,30.233 51.600,26.267 51.600,22.300 51.600,21.200 52.400,20.400 53.500,20.400 53.500,20.400 53.500,20.400 53.500,20.400 Z M 84.500,21.700 C 84.933,21.833 85.367,21.967 85.800,22.100 86.067,22.100 86.333,22.100 86.600,22.100 86.600,26.567 86.600,31.033 86.600,35.500 85.900,35.500 85.200,35.500 84.500,35.500 84.500,30.900 84.500,26.300 84.500,21.700 84.500,21.700 84.500,21.700 84.500,21.700 Z M 87.500,22.100 C 88.733,22.100 89.967,22.100 91.200,22.100 91.200,26.567 91.200,31.033 91.200,35.500 89.967,35.500 88.733,35.500 87.500,35.500 87.500,31.033 87.500,26.567 87.500,22.100 87.500,22.100 87.500,22.100 87.500,22.100 Z M 193.600,40.900 C 188.400,39.600 183.200,38.300 178.000,37.000 179.933,37.000 181.867,37.000 183.800,37.000 183.800,36.500 183.800,36.000 183.800,35.500 187.400,35.500 191.000,35.500 194.600,35.500 194.733,36.133 194.867,36.767 195.000,37.400 195.200,38.100 195.000,38.900 194.500,39.500 194.200,39.967 193.900,40.433 193.600,40.900 193.600,40.900 193.600,40.900 193.600,40.900 Z M 195.000,39.700 C 195.500,39.000 195.700,38.100 195.500,37.200 195.400,36.667 195.300,36.133 195.200,35.600 195.800,36.000 197.100,36.400 199.700,36.400 205.000,36.400 210.300,36.400 215.600,36.400 215.600,37.067 215.600,37.733 215.600,38.400 216.000,38.400 216.400,38.400 216.800,38.400 216.800,40.000 216.800,41.600 216.800,43.200 216.133,44.167 215.467,45.133 214.800,46.100 207.900,44.400 201.000,42.700 194.100,41.000 194.400,40.567 194.700,40.133 195.000,39.700 195.000,39.700 195.000,39.700 195.000,39.700 Z M 234.200,43.600 C 234.200,43.600 234.200,43.600 234.200,43.600 233.100,43.500 231.500,42.900 230.000,41.600 229.500,41.200 229.100,40.800 228.700,40.500 231.333,40.500 233.967,40.500 236.600,40.500 235.200,40.900 234.200,42.100 234.200,43.600 234.200,43.600 234.200,43.600 234.200,43.600 Z M 217.700,42.300 C 217.700,41.067 217.700,39.833 217.700,38.600 219.067,38.600 220.433,38.600 221.800,38.600 221.800,39.433 221.800,40.267 221.800,41.100 221.800,41.800 221.300,42.300 220.600,42.300 219.633,42.300 218.667,42.300 217.700,42.300 217.700,42.300 217.700,42.300 217.700,42.300 Z M 218.600,44.500 C 219.233,44.500 219.867,44.500 220.500,44.500 222.400,44.500 224.000,42.900 224.000,41.000 224.000,40.833 224.000,40.667 224.000,40.500 224.167,40.500 224.333,40.500 224.500,40.500 224.500,40.500 224.500,40.500 224.500,40.500 224.500,40.500 226.100,40.500 228.700,42.900 230.600,44.600 232.700,45.200 234.100,45.400 234.100,45.467 234.100,45.533 234.100,45.600 234.100,45.800 234.100,46.100 234.200,46.300 231.433,46.300 228.667,46.300 225.900,46.300 224.800,46.300 223.800,46.200 222.700,46.000 221.133,45.767 219.567,45.533 218.000,45.300 218.200,45.033 218.400,44.767 218.600,44.500 218.600,44.500 218.600,44.500 218.600,44.500 Z M 259.400,43.800 C 259.400,43.433 259.400,43.067 259.400,42.700 264.133,42.700 268.867,42.700 273.600,42.700 273.600,44.000 273.600,45.300 273.600,46.600 268.867,46.600 264.133,46.600 259.400,46.600 259.400,46.233 259.400,45.867 259.400,45.500 258.933,45.500 258.467,45.500 258.000,45.500 258.000,46.133 258.000,46.767 258.000,47.400 258.000,47.700 257.700,48.000 257.400,48.000 257.300,48.000 257.200,48.000 257.100,47.900 256.500,47.500 255.900,47.100 255.300,46.700 249.300,46.700 243.300,46.700 237.300,46.700 237.300,46.700 237.300,46.700 237.300,46.700 236.800,46.700 236.400,46.300 236.400,45.800 236.400,45.133 236.400,44.467 236.400,43.800 236.400,43.300 236.800,42.900 237.300,42.900 243.300,42.900 249.300,42.900 255.300,42.900 255.900,42.500 256.500,42.100 257.100,41.700 257.200,41.600 257.300,41.600 257.400,41.600 257.700,41.600 258.000,41.800 258.000,42.200 258.000,42.833 258.000,43.467 258.000,44.100 258.467,44.100 258.933,44.100 259.400,44.100 259.400,44.000 259.400,43.900 259.400,43.800 Z M 152.400,14.800 C 162.267,14.800 172.133,14.800 182.000,14.800 182.000,15.133 182.000,15.467 182.000,15.800 182.833,15.800 183.667,15.800 184.500,15.800 184.500,16.033 184.500,16.267 184.500,16.500 185.933,16.500 187.367,16.500 188.800,16.500 188.800,17.367 188.800,18.233 188.800,19.100 200.933,19.100 213.067,19.100 225.200,19.100 225.800,18.800 226.400,18.500 227.000,18.200 231.167,18.200 235.333,18.200 239.500,18.200 239.500,24.867 239.500,31.533 239.500,38.200 235.133,38.200 230.767,38.200 226.400,38.200 224.833,38.000 223.267,37.800 221.700,37.600 219.933,37.600 218.167,37.600 216.400,37.600 216.400,36.933 216.400,36.267 216.400,35.600 210.800,35.600 205.200,35.600 199.600,35.600 196.100,35.600 195.300,34.800 195.300,34.800 195.267,34.733 195.233,34.667 195.200,34.600 191.133,34.600 187.067,34.600 183.000,34.600 183.000,35.067 183.000,35.533 183.000,36.000 172.800,36.000 162.600,36.000 152.400,36.000 152.400,28.933 152.400,21.867 152.400,14.800 152.400,14.800 152.400,14.800 152.400,14.800 Z M 205.700,14.800 C 206.033,14.800 206.367,14.800 206.700,14.800 206.700,14.233 206.700,13.667 206.700,13.100 207.033,13.100 207.367,13.100 207.700,13.100 207.700,13.667 207.700,14.233 207.700,14.800 208.233,14.800 208.767,14.800 209.300,14.800 209.300,14.233 209.300,13.667 209.300,13.100 209.633,13.100 209.967,13.100 210.300,13.100 210.300,13.667 210.300,14.233 210.300,14.800 216.367,14.800 222.433,14.800 228.500,14.800 228.800,15.700 229.100,16.600 229.400,17.500 228.500,17.500 227.600,17.500 226.700,17.500 226.200,17.733 225.700,17.967 225.200,18.200 218.667,18.200 212.133,18.200 205.600,18.200 205.600,17.067 205.600,15.933 205.600,14.800 205.633,14.800 205.667,14.800 205.700,14.800 Z M 383.500,15.200 C 334.967,15.200 286.433,15.200 237.900,15.200 237.900,15.433 237.900,15.667 237.900,15.900 235.700,15.900 233.500,15.900 231.300,15.900 231.100,15.300 230.900,14.700 230.700,14.100 230.533,13.567 230.367,13.033 230.200,12.500 224.333,12.500 218.467,12.500 212.600,12.500 212.600,11.933 212.600,11.367 212.600,10.800 209.867,10.800 207.133,10.800 204.400,10.800 204.400,11.367 204.400,11.933 204.400,12.500 204.067,12.500 203.733,12.500 203.400,12.500 203.400,13.933 203.400,15.367 203.400,16.800 199.267,16.800 195.133,16.800 191.000,16.800 191.000,15.933 191.000,15.067 191.000,14.200 189.567,14.200 188.133,14.200 186.700,14.200 186.700,13.967 186.700,13.733 186.700,13.500 185.867,13.500 185.033,13.500 184.200,13.500 184.200,13.167 184.200,12.833 184.200,12.500 172.767,12.500 161.333,12.500 149.900,12.500 149.900,13.933 149.900,15.367 149.900,16.800 140.900,16.800 131.900,16.800 122.900,16.800 122.300,12.600 118.800,9.300 114.700,9.200 114.600,9.200 114.500,9.200 114.400,9.200 114.400,9.200 114.400,9.200 114.400,9.200 112.100,9.200 109.900,10.100 108.300,11.700 107.400,12.600 106.800,13.600 106.400,14.700 103.933,14.700 101.467,14.700 99.000,14.700 97.267,15.600 95.533,16.500 93.800,17.400 93.800,17.633 93.800,17.867 93.800,18.100 92.467,18.100 91.133,18.100 89.800,18.100 89.800,18.700 89.800,19.300 89.800,19.900 88.600,19.900 87.400,19.900 86.200,19.900 84.467,19.300 82.733,18.700 81.000,18.100 71.833,18.100 62.667,18.100 53.500,18.100 51.200,18.100 49.300,20.000 49.300,22.300 49.300,26.100 49.300,29.900 49.300,33.700 39.000,33.700 28.700,33.700 18.400,33.700 18.400,33.233 18.400,32.767 18.400,32.300 17.167,32.300 15.933,32.300 14.700,32.300 14.700,28.467 14.700,24.633 14.700,20.800 14.700,18.700 13.000,16.900 10.800,16.900 8.667,16.900 6.533,16.900 4.400,16.900 2.300,16.900 0.500,18.600 0.500,20.800 0.500,31.367 0.500,41.933 0.500,52.500 0.500,54.600 2.200,56.400 4.400,56.400 5.200,56.400 6.000,56.400 6.800,56.400 8.400,56.400 9.900,55.400 10.400,53.900 10.400,53.900 14.500,43.200 14.500,43.100 15.800,43.100 17.100,43.100 18.400,43.100 18.400,42.633 18.400,42.167 18.400,41.700 32.900,41.700 47.400,41.700 61.900,41.700 61.900,41.967 61.900,42.233 61.900,42.500 69.400,42.500 76.900,42.500 84.400,42.500 85.033,42.200 85.667,41.900 86.300,41.600 89.800,41.600 93.300,41.600 96.800,41.600 96.800,41.233 96.800,40.867 96.800,40.500 97.433,40.867 98.067,41.233 98.700,41.600 100.600,41.600 102.500,41.600 104.400,41.600 104.400,42.233 104.400,42.867 104.400,43.500 111.533,43.500 118.667,43.500 125.800,43.500 127.500,43.500 129.000,42.100 129.000,40.300 129.000,40.033 129.000,39.767 129.000,39.500 136.000,39.500 143.000,39.500 150.000,39.500 151.600,41.400 153.400,42.700 155.200,43.500 159.300,45.200 160.800,46.100 160.900,48.100 161.000,51.100 160.100,53.900 158.000,56.900 156.200,59.400 147.200,71.000 143.400,75.900 141.200,78.700 141.600,82.800 144.400,85.000 147.800,87.767 151.200,90.533 154.600,93.300 155.600,94.100 156.900,94.600 158.300,94.600 160.000,94.600 161.700,93.800 162.800,92.500 162.933,92.333 163.067,92.167 163.200,92.000 163.233,91.967 163.267,91.933 163.300,91.900 163.333,91.833 163.367,91.767 163.400,91.700 163.600,91.400 164.400,89.900 164.700,87.100 164.900,85.200 164.900,85.200 166.800,82.700 168.800,80.100 180.900,64.200 181.400,63.500 181.500,63.400 182.000,62.900 183.100,62.700 183.367,62.667 183.633,62.633 183.900,62.600 184.067,62.400 184.233,62.200 184.400,62.000 185.100,61.200 186.000,60.200 186.800,59.400 189.100,61.700 193.800,65.600 200.300,65.600 207.700,65.600 213.200,59.800 215.300,57.100 216.800,57.433 218.300,57.767 219.800,58.100 221.600,58.500 223.500,58.700 225.400,58.700 225.500,58.700 225.600,58.700 225.700,58.700 238.667,58.533 251.633,58.367 264.600,58.200 264.067,58.733 263.533,59.267 263.000,59.800 263.533,60.333 264.067,60.867 264.600,61.400 264.800,61.600 269.100,65.800 277.200,65.800 284.600,65.800 309.900,63.500 312.900,63.200 317.400,62.600 319.600,60.300 319.600,56.400 319.600,53.700 318.600,52.100 317.800,51.200 317.800,51.133 317.800,51.067 317.800,51.000 319.100,51.000 320.400,51.000 321.700,51.000 324.300,51.000 326.400,48.900 326.400,46.300 326.400,45.033 326.400,43.767 326.400,42.500 326.400,42.000 326.300,41.500 326.200,41.000 345.333,41.000 364.467,41.000 383.600,41.000 383.600,32.400 383.600,23.800 383.600,15.200 383.567,15.200 383.533,15.200 383.500,15.200 Z " />
  <path stroke="none" fill="#ffffffff" d="M 65.800,25.800 C 68.267,25.800 70.733,25.800 73.200,25.800 73.200,26.300 73.200,26.800 73.200,27.300 70.733,27.300 68.267,27.300 65.800,27.300 65.800,26.800 65.800,26.300 65.800,25.800 65.800,25.800 65.800,25.800 65.800,25.800 Z M 65.400,27.800 C 68.167,27.800 70.933,27.800 73.700,27.800 73.700,26.967 73.700,26.133 73.700,25.300 70.933,25.300 68.167,25.300 65.400,25.300 65.400,26.133 65.400,26.967 65.400,27.800 65.400,27.800 65.400,27.800 65.400,27.800 Z " />
  <path stroke="none" fill="#ffffffff" d="M 75.300,25.800 C 76.033,25.800 76.767,25.800 77.500,25.800 77.500,26.300 77.500,26.800 77.500,27.300 76.767,27.300 76.033,27.300 75.300,27.300 75.300,26.800 75.300,26.300 75.300,25.800 75.300,25.800 75.300,25.800 75.300,25.800 Z M 74.800,27.800 C 75.833,27.800 76.867,27.800 77.900,27.800 77.900,26.967 77.900,26.133 77.900,25.300 76.867,25.300 75.833,25.300 74.800,25.300 74.800,26.133 74.800,26.967 74.800,27.800 74.800,27.800 74.800,27.800 74.800,27.800 Z " />
</svg>