<?xml version="1.0" encoding="UTF-8" standalone="no"?>
<!DOCTYPE svg PUBLIC "-//W3C//DTD SVG 20010904//EN" "http://www.w3.org/TR/2001/REC-SVG-20010904/DTD/svg10.dtd"[]>
<svg version="1.1" id="Frosty Editor v1.0.6.3" xmlns="http://www.w3.org/2000/svg" d1p1:xlink="http://www.w3.org/1999/xlink" viewBox="0 0 25 25" xmlns:d1p1="xmlns">
  <path stroke="none" fill="#ffffffff" d="M 12.902,3.311 C 12.610,3.311 12.327,3.345 12.055,3.408 12.055,3.671 12.055,3.671 12.055,3.671 12.161,3.751 12.505,3.989 12.955,3.989 13.378,3.989 13.722,3.751 13.828,3.671 13.826,3.589 13.824,3.507 13.822,3.425 13.528,3.350 13.219,3.311 12.902,3.311 Z M 11.870,3.456 C 10.315,3.901 9.182,5.328 9.182,7.030 9.182,7.031 9.182,7.031 9.182,7.032 9.912,7.032 9.912,7.032 9.912,7.032 9.938,6.794 9.965,6.555 9.991,6.317 11.049,6.317 11.049,6.317 11.049,6.317 11.155,5.761 11.394,4.545 11.870,3.698 Z M 14.013,3.479 C 14.013,3.751 14.013,3.751 14.013,3.751 14.489,4.571 14.780,5.788 14.886,6.317 15.944,6.317 15.944,6.317 15.944,6.317 15.979,6.555 16.015,6.794 16.050,7.032 16.621,7.032 16.621,7.032 16.621,7.032 16.621,7.030 16.621,7.030 16.621,7.030 16.621,5.357 15.527,3.949 14.013,3.479 Z M 12.002,3.857 C 11.420,4.915 11.182,6.608 11.182,6.635 11.173,6.732 11.164,6.829 11.155,6.926 12.796,6.926 12.796,6.926 12.796,6.926 14.754,6.926 14.754,6.926 14.754,6.926 14.754,6.635 14.754,6.635 14.754,6.635 14.754,6.608 14.463,4.941 13.907,3.883 13.748,3.989 13.405,4.174 12.955,4.174 12.505,4.174 12.161,3.989 12.002,3.857 Z M 18.142,4.408 C 18.121,4.599 18.116,4.789 18.110,4.977 18.105,5.165 18.110,5.353 18.110,5.538 18.110,5.723 18.134,5.895 18.147,6.080 18.164,6.263 18.181,6.446 18.198,6.628 18.207,6.723 18.215,6.817 18.224,6.911 18.340,6.919 18.455,6.925 18.571,6.933 19.166,6.970 19.764,6.985 20.359,6.990 20.129,7.784 19.907,8.602 19.703,9.414 19.682,9.502 19.661,9.591 19.640,9.679 19.698,9.722 19.756,9.765 19.814,9.808 20.182,10.073 20.555,10.338 20.939,10.602 21.322,10.867 21.711,11.100 22.127,11.317 21.862,10.938 21.545,10.594 21.241,10.258 20.989,9.994 20.730,9.713 20.468,9.449 20.784,8.539 21.082,7.624 21.365,6.705 21.422,6.517 21.479,6.329 21.537,6.141 20.941,6.141 20.941,6.141 20.941,6.141 20.243,6.141 19.542,6.141 18.843,6.192 18.821,6.121 18.799,6.050 18.777,5.980 18.724,5.802 18.656,5.628 18.595,5.450 18.534,5.273 18.457,5.101 18.388,4.921 18.319,4.741 18.235,4.577 18.142,4.408 Z M 12.955,4.492 C 13.352,4.492 13.669,4.809 13.669,5.206 13.669,5.603 13.352,5.920 12.955,5.920 12.558,5.920 12.240,5.603 12.240,5.206 12.214,4.809 12.558,4.492 12.955,4.492 Z M 8.395,4.674 C 8.013,4.867 7.641,5.080 7.281,5.312 6.924,5.542 6.569,5.775 6.223,6.027 6.185,6.055 6.147,6.083 6.109,6.111 6.104,6.177 6.098,6.241 6.093,6.307 6.056,6.802 6.035,7.299 6.024,7.794 5.419,8.059 4.821,8.323 4.233,8.628 4.132,8.680 4.030,8.731 3.929,8.784 3.956,8.872 3.984,8.960 4.011,9.048 4.143,9.493 4.288,9.931 4.445,10.363 4.519,10.580 4.612,10.794 4.694,11.009 4.776,11.223 4.874,11.435 4.980,11.646 4.980,10.948 4.980,10.948 4.980,10.948 4.980,10.715 4.956,10.488 4.932,10.257 4.903,9.911 4.860,9.567 4.813,9.225 5.432,9.001 6.043,8.757 6.647,8.493 6.735,8.453 6.823,8.413 6.911,8.373 6.911,8.085 6.911,8.085 6.911,8.085 6.911,7.538 6.888,6.992 6.842,6.445 7.107,6.180 7.340,5.931 7.580,5.666 7.869,5.350 8.141,5.019 8.395,4.674 Z M 10.071,6.820 C 10.088,7.023 10.106,7.226 10.123,7.429 9.204,7.429 9.204,7.429 9.204,7.429 9.341,8.733 10.147,9.831 11.274,10.378 11.549,10.481 11.837,10.557 12.135,10.604 11.817,10.127 10.997,8.804 10.917,6.926 10.917,6.820 10.917,6.820 10.917,6.820 Z M 15.018,6.846 C 15.009,6.943 15.001,7.041 14.992,7.138 14.886,8.884 14.119,10.154 13.801,10.604 13.992,10.566 14.180,10.516 14.363,10.454 15.569,9.941 16.444,8.810 16.597,7.455 15.786,7.455 15.786,7.455 15.786,7.455 15.803,7.252 15.821,7.049 15.839,6.846 Z M 11.182,7.508 C 11.182,7.535 11.182,7.535 11.182,7.535 11.420,9.307 12.293,10.498 12.426,10.656 12.584,10.683 12.743,10.683 12.928,10.683 13.140,10.683 13.325,10.656 13.537,10.630 13.695,10.418 14.542,9.254 14.754,7.508 Z M 8.103,11.273 C 7.800,11.277 7.492,11.318 7.185,11.401 6.903,11.476 6.639,11.583 6.392,11.714 6.461,11.968 6.461,11.968 6.461,11.968 6.583,12.018 6.977,12.159 7.412,12.042 7.821,11.933 8.091,11.614 8.173,11.510 8.149,11.431 8.126,11.352 8.103,11.273 Z M 17.584,11.274 C 15.966,11.301 14.503,12.387 14.063,14.031 14.063,14.031 14.063,14.032 14.063,14.032 14.767,14.222 14.767,14.222 14.767,14.222 14.854,13.998 14.941,13.774 15.029,13.551 16.051,13.825 16.051,13.825 16.051,13.825 16.297,13.316 16.842,12.203 17.521,11.508 Z M 8.302,11.275 C 8.373,11.538 8.373,11.538 8.373,11.538 9.045,12.207 9.641,13.307 9.880,13.791 10.902,13.517 10.902,13.517 10.902,13.517 10.998,13.738 11.094,13.959 11.189,14.180 11.741,14.032 11.741,14.032 11.741,14.032 11.740,14.031 11.740,14.031 11.740,14.031 11.307,12.415 9.887,11.338 8.302,11.275 Z M 17.775,11.275 C 17.707,11.530 17.707,11.530 17.707,11.530 17.789,11.634 18.059,11.953 18.494,12.070 18.903,12.179 19.296,12.038 19.419,11.989 19.438,11.909 19.458,11.829 19.477,11.749 19.212,11.601 18.925,11.483 18.618,11.401 18.336,11.325 18.054,11.285 17.775,11.275 Z M 8.304,11.694 C 8.178,11.837 7.894,12.105 7.460,12.221 7.026,12.338 6.646,12.248 6.458,12.161 6.170,13.334 6.377,15.032 6.384,15.057 6.401,15.153 6.417,15.249 6.434,15.345 8.019,14.920 8.019,14.920 8.019,14.920 9.909,14.413 9.909,14.413 9.909,14.413 9.835,14.133 9.835,14.133 9.835,14.133 9.828,14.107 9.115,12.572 8.304,11.694 Z M 17.608,11.696 C 16.772,12.567 16.104,14.141 16.097,14.167 16.063,14.258 16.029,14.349 15.996,14.441 17.580,14.865 17.580,14.865 17.580,14.865 19.471,15.372 19.471,15.372 19.471,15.372 19.547,15.091 19.547,15.091 19.547,15.091 19.553,15.066 19.704,13.380 19.441,12.214 19.260,12.275 18.880,12.365 18.446,12.249 18.011,12.132 17.727,11.864 17.608,11.696 Z M 6.226,11.808 C 4.839,12.640 4.115,14.312 4.555,15.956 4.555,15.957 4.556,15.957 4.556,15.958 5.261,15.769 5.261,15.769 5.261,15.769 5.225,15.532 5.188,15.295 5.152,15.058 6.174,14.784 6.174,14.784 6.174,14.784 6.133,14.220 6.048,12.983 6.289,12.042 Z M 19.648,11.851 C 19.578,12.114 19.578,12.114 19.578,12.114 19.825,13.029 19.791,14.280 19.756,14.818 20.779,15.092 20.779,15.092 20.779,15.092 20.751,15.331 20.724,15.571 20.696,15.810 21.248,15.958 21.248,15.958 21.248,15.958 21.248,15.956 21.248,15.956 21.248,15.956 21.681,14.340 20.989,12.697 19.648,11.851 Z M 7.721,12.503 C 8.040,12.499 8.330,12.710 8.417,13.033 8.520,13.416 8.295,13.805 7.912,13.908 7.528,14.011 7.139,13.786 7.037,13.403 6.908,13.026 7.159,12.631 7.542,12.528 7.602,12.512 7.662,12.504 7.721,12.503 Z M 18.183,12.530 C 18.243,12.531 18.304,12.539 18.364,12.555 18.747,12.658 18.971,13.047 18.869,13.430 18.766,13.814 18.378,14.038 17.994,13.935 17.611,13.833 17.386,13.444 17.488,13.060 17.553,12.731 17.859,12.525 18.183,12.530 Z M 10.937,14.056 C 10.145,14.268 10.145,14.268 10.145,14.268 10.161,14.364 10.178,14.460 10.195,14.556 10.544,16.271 10.132,17.696 9.941,18.212 10.116,18.127 10.284,18.029 10.445,17.922 11.477,17.114 12.030,15.796 11.827,14.447 11.043,14.658 11.043,14.658 11.043,14.658 11.008,14.457 10.973,14.256 10.937,14.056 Z M 14.975,14.058 C 14.940,14.258 14.904,14.459 14.869,14.659 13.980,14.422 13.980,14.422 13.980,14.422 13.776,15.717 14.270,16.986 15.217,17.806 15.456,17.976 15.714,18.125 15.990,18.247 15.806,17.704 15.356,16.214 15.765,14.379 15.793,14.277 15.793,14.277 15.793,14.277 Z M 10.060,14.975 C 6.610,15.900 6.610,15.900 6.610,15.900 6.617,15.926 6.617,15.926 6.617,15.926 7.306,17.576 8.457,18.500 8.626,18.619 8.786,18.604 8.940,18.563 9.119,18.515 9.323,18.460 9.495,18.387 9.693,18.307 9.791,18.061 10.308,16.717 10.060,14.975 Z M 15.870,15.010 C 15.864,15.035 15.864,15.035 15.864,15.035 15.635,16.809 16.170,18.185 16.257,18.373 16.403,18.439 16.557,18.481 16.736,18.529 16.940,18.584 17.126,18.606 17.337,18.635 17.545,18.472 18.664,17.566 19.321,15.934 Z M 6.176,15.304 C 5.359,15.523 5.359,15.523 5.359,15.523 5.428,15.715 5.497,15.906 5.567,16.097 4.679,16.336 4.679,16.336 4.679,16.336 5.149,17.559 6.212,18.412 7.442,18.648 7.735,18.676 8.032,18.676 8.332,18.644 7.902,18.266 6.767,17.200 6.204,15.406 Z M 19.748,15.364 C 19.714,15.455 19.680,15.547 19.646,15.638 19.092,17.298 18.023,18.326 17.599,18.678 17.794,18.691 17.988,18.691 18.181,18.679 19.478,18.495 20.617,17.630 21.115,16.360 20.331,16.150 20.331,16.150 20.331,16.150 20.401,15.959 20.471,15.767 20.540,15.576 Z M 11.019,19.029 C 10.958,19.075 10.897,19.121 10.835,19.166 10.531,19.392 10.240,19.636 9.952,19.883 9.660,20.133 9.382,20.400 9.120,20.682 9.488,20.567 9.848,20.431 10.200,20.275 10.465,20.155 10.729,20.032 10.987,19.905 11.805,20.554 12.639,21.188 13.490,21.806 13.607,21.892 13.724,21.978 13.841,22.063 13.930,21.945 14.018,21.826 14.106,21.708 14.487,21.195 14.850,20.669 15.194,20.128 15.524,20.127 15.852,20.120 16.183,20.099 16.389,20.093 16.596,20.065 16.803,20.051 17.010,20.037 17.216,20.002 17.422,19.953 17.225,19.877 17.025,19.817 16.826,19.758 16.626,19.699 16.413,19.658 16.214,19.618 15.813,19.523 15.411,19.441 15.007,19.375 14.948,19.362 14.889,19.349 14.830,19.336 14.778,19.398 14.724,19.461 14.672,19.522 14.313,19.947 13.976,20.386 13.651,20.835 12.857,20.272 12.056,19.719 11.244,19.179 11.169,19.129 11.094,19.079 11.019,19.029 Z " />
</svg>