<?xml version="1.0" encoding="UTF-8" standalone="no"?>
<!-- Created with Inkscape (http://www.inkscape.org/) -->

<svg
   width="96"
   height="96"
   viewBox="0 0 25.4 25.399999"
   version="1.1"
   id="svg5"
   inkscape:version="1.3.2 (091e20e, 2023-11-25, custom)"
   sodipodi:docname="ResistanceRocketJumper_Sniper.svg"
   xml:space="preserve"
   xmlns:inkscape="http://www.inkscape.org/namespaces/inkscape"
   xmlns:sodipodi="http://sodipodi.sourceforge.net/DTD/sodipodi-0.dtd"
   xmlns="http://www.w3.org/2000/svg"
   xmlns:svg="http://www.w3.org/2000/svg"><sodipodi:namedview
     id="namedview7"
     pagecolor="#ffffff"
     bordercolor="#999999"
     borderopacity="1"
     inkscape:pageshadow="0"
     inkscape:pageopacity="0"
     inkscape:pagecheckerboard="true"
     inkscape:document-units="px"
     showgrid="false"
     width="384mm"
     units="px"
     borderlayer="false"
     showborder="true"
     inkscape:showpageshadow="true"
     inkscape:zoom="11.313708"
     inkscape:cx="31.068504"
     inkscape:cy="43.884815"
     inkscape:window-width="2560"
     inkscape:window-height="1377"
     inkscape:window-x="-8"
     inkscape:window-y="-8"
     inkscape:window-maximized="1"
     inkscape:current-layer="layer1"
     inkscape:deskcolor="#d1d1d1" /><defs
     id="defs2"><inkscape:path-effect
       effect="fill_between_many"
       method="originald"
       linkedpaths="#path269,0,1"
       id="path-effect8" /><inkscape:path-effect
       effect="fill_between_many"
       method="originald"
       linkedpaths="#path269,0,1"
       id="path-effect8-8" /><inkscape:path-effect
       effect="fill_between_many"
       method="originald"
       linkedpaths="#path269,0,1"
       id="path-effect8-1" /><filter
       id="mask-powermask-path-effect5_inverse"
       inkscape:label="filtermask-powermask-path-effect5"
       style="color-interpolation-filters:sRGB"
       height="100"
       width="100"
       x="-50"
       y="-50"><feColorMatrix
         id="mask-powermask-path-effect5_primitive1"
         values="1"
         type="saturate"
         result="fbSourceGraphic" /><feColorMatrix
         id="mask-powermask-path-effect5_primitive2"
         values="-1 0 0 0 1 0 -1 0 0 1 0 0 -1 0 1 0 0 0 1 0 "
         in="fbSourceGraphic" /></filter><clipPath
       clipPathUnits="userSpaceOnUse"
       id="clipPath5"><path
         id="path5"
         style="fill:#800080;stroke-width:0.264583"
         d="M 467.98176,172.80598 H 695.35806 V 330.72916 H 467.98176 Z" /></clipPath><clipPath
       clipPathUnits="userSpaceOnUse"
       id="clipPath5-7"><path
         id="path5-6"
         style="fill:#800080;stroke-width:0.264583"
         d="M 467.98176,172.80598 H 695.35806 V 330.72916 H 467.98176 Z" /></clipPath><clipPath
       clipPathUnits="userSpaceOnUse"
       id="clipPath9"><rect
         style="fill:#800000;stroke-width:0.264583"
         id="rect10"
         width="1021.972"
         height="484.09192"
         x="-1559.8521"
         y="-423.28815" /></clipPath><clipPath
       clipPathUnits="userSpaceOnUse"
       id="clipPath5-2"><path
         id="path5-1"
         style="fill:#800080;stroke-width:0.264583"
         d="M 467.98176,172.80598 H 695.35806 V 330.72916 H 467.98176 Z" /></clipPath><clipPath
       clipPathUnits="userSpaceOnUse"
       id="clipPath1"><path
         id="path1"
         style="fill:#008080;stroke-width:3.74933"
         d="M -434.09983,-284.36696 H -261.29598 V 125.4855 H -434.09983 Z"
         sodipodi:nodetypes="ccccc" /></clipPath><clipPath
       clipPathUnits="userSpaceOnUse"
       id="clipPath1-5"><path
         id="path1-8"
         style="fill:#008080;stroke-width:3.74933"
         d="M -434.09983,-284.36696 H -261.29598 V 125.4855 H -434.09983 Z"
         sodipodi:nodetypes="ccccc" /></clipPath><clipPath
       clipPathUnits="userSpaceOnUse"
       id="clipEmfPath1"><path
         d="M 0,0 L 424.06299,0 L 424.06299,245.93095 L 0,245.93095 z"
         id="path88" /></clipPath><pattern
       id="EMFhbasepattern"
       patternUnits="userSpaceOnUse"
       width="6"
       height="6"
       x="0"
       y="0" /><inkscape:path-effect
       effect="fill_between_many"
       method="originald"
       linkedpaths="#path269,0,1"
       id="path-effect8-6" /><clipPath
       clipPathUnits="userSpaceOnUse"
       id="clipEmfPath1-0"><path
         d="M 0,0 L 424.06299,0 L 424.06299,245.93095 L 0,245.93095 z"
         id="path88-4" /></clipPath><pattern
       id="EMFhbasepattern-0"
       patternUnits="userSpaceOnUse"
       width="6"
       height="6"
       x="0"
       y="0" /><clipPath
       clipPathUnits="userSpaceOnUse"
       id="clipEmfPath1-8"><path
         d="M 0,0 L 424.06299,0 L 424.06299,245.93095 L 0,245.93095 z"
         id="path88-6" /></clipPath><pattern
       id="EMFhbasepattern-2"
       patternUnits="userSpaceOnUse"
       width="6"
       height="6"
       x="0"
       y="0" /><clipPath
       clipPathUnits="userSpaceOnUse"
       id="clipEmfPath1-0-9"><path
         d="M 0,0 L 424.06299,0 L 424.06299,245.93095 L 0,245.93095 z"
         id="path88-3" /></clipPath><pattern
       id="EMFhbasepattern-9"
       patternUnits="userSpaceOnUse"
       width="6"
       height="6"
       x="0"
       y="0" /><clipPath
       clipPathUnits="userSpaceOnUse"
       id="clipEmfPath1-7"><path
         d="M 0,0 L 424.06299,0 L 424.06299,245.93095 L 0,245.93095 z"
         id="path88-9" /></clipPath><pattern
       id="EMFhbasepattern-1"
       patternUnits="userSpaceOnUse"
       width="6"
       height="6"
       x="0"
       y="0" /><clipPath
       clipPathUnits="userSpaceOnUse"
       id="clipEmfPath1-0-0"><path
         d="M 0,0 L 424.06299,0 L 424.06299,245.93095 L 0,245.93095 z"
         id="path88-4-6" /></clipPath><pattern
       id="EMFhbasepattern-0-0"
       patternUnits="userSpaceOnUse"
       width="6"
       height="6"
       x="0"
       y="0" /><clipPath
       clipPathUnits="userSpaceOnUse"
       id="clipEmfPath1-8-6"><path
         d="M 0,0 L 424.06299,0 L 424.06299,245.93095 L 0,245.93095 z"
         id="path88-6-9" /></clipPath><pattern
       id="EMFhbasepattern-2-2"
       patternUnits="userSpaceOnUse"
       width="6"
       height="6"
       x="0"
       y="0" /><clipPath
       clipPathUnits="userSpaceOnUse"
       id="clipEmfPath1-0-9-8"><path
         d="M 0,0 L 424.06299,0 L 424.06299,245.93095 L 0,245.93095 z"
         id="path88-3-1" /></clipPath><pattern
       id="EMFhbasepattern-9-2"
       patternUnits="userSpaceOnUse"
       width="6"
       height="6"
       x="0"
       y="0" /><clipPath
       clipPathUnits="userSpaceOnUse"
       id="clipEmfPath1-5"><path
         d="M 0,0 L 424.06299,0 L 424.06299,245.93095 L 0,245.93095 z"
         id="path88-8" /></clipPath><pattern
       id="EMFhbasepattern-3"
       patternUnits="userSpaceOnUse"
       width="6"
       height="6"
       x="0"
       y="0" /><clipPath
       clipPathUnits="userSpaceOnUse"
       id="clipPath18"><rect
         style="fill:#ff9955;stroke-opacity:0"
         id="rect18"
         width="939.03778"
         height="1129.9567"
         x="-1686.1793"
         y="-2788.8604" /></clipPath><clipPath
       clipPathUnits="userSpaceOnUse"
       id="clipPath19"><rect
         style="fill:#008080;stroke-opacity:0"
         id="rect19"
         width="939.03778"
         height="1129.9567"
         x="-1686.1793"
         y="-1411.8604" /></clipPath></defs><g
     inkscape:label="Layer 1"
     inkscape:groupmode="layer"
     id="layer1"><g
       inkscape:label="Layer 1"
       id="layer1-9"
       transform="matrix(0.41970116,0,0,0.41970116,-8.4978161,6.9075389)" /><g
       inkscape:label="Layer 1"
       id="layer1-1"
       style="fill:#000000"
       transform="matrix(0.41970116,0,0,0.41970116,2.9904447,-5.4520349)" /><g
       inkscape:label="Layer 1"
       id="layer1-4"
       style="fill:#000000"
       transform="translate(-37.312141,25.95299)" /><path
       id="rect1"
       d="M 12.7,9.8763997 C 12.079155,9.8763997 11.579138,10.376417 11.579138,10.997262 C 11.579138,11.618106 12.079155,12.118123 12.7,12.118123 C 13.320844,12.118123 13.820862,11.618106 13.820862,10.997262 C 13.820862,10.376417 13.320844,9.8763997 12.7,9.8763997 Z M 3.753776,10.236584 C 3.515586,10.236584 3.323828,10.575847 3.323828,10.997262 C 3.323828,11.418675 3.515586,11.757939 3.753776,11.757939 H 9.5084637 C 9.7466537,11.757939 9.9384117,11.418675 9.9384117,10.997262 C 9.9384117,10.575847 9.7466537,10.236584 9.5084637,10.236584 Z M 15.891536,10.236584 C 15.653345,10.236584 15.461588,10.575847 15.461588,10.997262 C 15.461588,11.418675 15.653345,11.757939 15.891536,11.757939 H 21.646223 C 21.884414,11.757939 22.076171,11.418675 22.076171,10.997262 C 22.076171,10.575847 21.884414,10.236584 21.646223,10.236584 Z M 12.7,13.75885 C 12.278585,13.75885 11.939323,13.950607 11.939323,14.188798 V 20.935672 C 11.939323,21.173863 12.278585,21.36562 12.7,21.36562 C 13.121413,21.36562 13.460677,21.173863 13.460677,20.935672 V 14.188798 C 13.460677,13.950607 13.121413,13.75885 12.7,13.75885 Z"
       fill="#ffffff"
       sodipodi:nodetypes="ssssssssssssssssssssssssss" /></g><inkscape:templateinfo><inkscape:name>Ability SVG</inkscape:name><inkscape:author>Soulbruh</inkscape:author><inkscape:shortdesc>Used for abilities in BFII</inkscape:shortdesc><inkscape:date>2021-07-24</inkscape:date></inkscape:templateinfo></svg>
