<?xml version="1.0" encoding="UTF-8" standalone="no"?>
<!DOCTYPE svg PUBLIC "-//W3C//DTD SVG 20010904//EN" "http://www.w3.org/TR/2001/REC-SVG-20010904/DTD/svg10.dtd"[]>
<svg version="1.1" id="Frosty Editor v1.0.6.3" xmlns="http://www.w3.org/2000/svg" d1p1:xlink="http://www.w3.org/1999/xlink" viewBox="0 0 96 96" xmlns:d1p1="xmlns">
  <path stroke="none" fill="#ffffffff" d="M 55.500,72.900 C 55.500,72.900 55.500,72.900 55.500,72.900 55.400,73.000 55.200,73.000 55.100,73.000 50.700,74.200 46.100,74.200 41.800,73.000 40.800,72.700 39.800,73.300 39.500,74.300 39.500,74.300 39.500,74.300 39.500,74.300 39.200,75.300 39.800,76.300 40.800,76.600 40.800,76.600 40.800,76.600 40.800,76.600 42.700,77.100 44.600,77.400 46.500,77.500 46.500,80.967 46.500,84.433 46.500,87.900 46.600,88.400 47.000,88.900 47.400,89.100 47.400,89.100 47.400,89.100 47.500,89.100 47.700,89.200 47.800,89.200 48.000,89.200 48.000,89.200 48.000,89.200 48.000,89.200 48.000,89.200 48.000,89.200 48.000,89.200 48.100,89.200 48.100,89.200 48.200,89.200 48.300,89.200 48.400,89.100 48.400,89.100 48.400,89.100 48.400,89.100 48.400,89.100 48.900,88.900 49.300,88.500 49.400,87.900 49.400,84.433 49.400,80.967 49.400,77.500 51.600,77.400 53.800,77.100 55.900,76.500 56.900,76.200 57.500,75.200 57.200,74.200 57.100,73.400 56.400,72.900 55.500,72.900 55.500,72.900 55.500,72.900 55.500,72.900 Z " />
  <path stroke="none" fill="#ffffffff" d="M 23.500,54.800 C 23.300,54.000 22.500,53.400 21.700,53.400 21.667,53.400 21.633,53.400 21.600,53.400 20.600,53.400 19.700,54.200 19.700,55.300 19.700,55.500 19.700,55.600 19.800,55.800 21.100,60.800 23.800,65.300 27.400,68.900 27.433,68.933 27.467,68.967 27.500,69.000 27.800,69.300 28.300,69.500 28.800,69.500 29.800,69.500 30.700,68.700 30.700,67.600 30.700,67.100 30.500,66.600 30.100,66.300 27.000,63.100 24.700,59.100 23.500,54.800 23.500,54.800 23.500,54.800 23.500,54.800 Z " />
  <path stroke="none" fill="#ffffffff" d="M 41.600,23.300 C 46.000,22.100 50.600,22.100 54.900,23.300 55.900,23.600 56.900,23.000 57.200,22.000 57.500,21.000 56.900,20.000 55.900,19.700 53.900,19.200 51.900,18.900 49.900,18.800 49.900,15.367 49.900,11.933 49.900,8.500 50.000,7.700 49.300,7.000 48.400,7.000 48.400,7.000 48.400,7.000 48.300,7.000 48.300,7.000 48.300,7.000 48.300,7.000 47.500,7.000 46.800,7.700 46.800,8.500 46.800,11.867 46.800,15.233 46.800,18.600 44.700,18.700 42.600,19.000 40.600,19.600 39.600,19.900 39.000,20.900 39.300,21.900 39.600,23.000 40.600,23.600 41.600,23.300 41.600,23.300 41.600,23.300 41.600,23.300 Z " />
  <path stroke="none" fill="#ffffffff" d="M 21.200,42.800 C 21.400,42.800 21.500,42.900 21.700,42.900 22.500,42.900 23.300,42.300 23.500,41.500 24.700,37.100 27.000,33.200 30.100,30.000 30.800,29.300 30.800,28.100 30.100,27.400 29.700,27.000 29.300,26.800 28.800,26.900 28.300,26.900 27.800,27.100 27.500,27.400 23.800,31.100 21.200,35.600 19.900,40.600 19.600,41.500 20.200,42.600 21.200,42.800 21.200,42.800 21.200,42.800 21.200,42.800 Z " />
  <path stroke="none" fill="#ffffffff" d="M 75.500,53.400 C 75.300,53.400 75.200,53.300 75.000,53.300 75.000,53.300 75.000,53.300 75.000,53.300 74.200,53.300 73.400,53.900 73.200,54.700 72.000,59.100 69.700,63.000 66.500,66.200 65.800,66.900 65.800,68.100 66.500,68.800 67.200,69.500 68.400,69.500 69.100,68.800 72.800,65.100 75.400,60.600 76.700,55.600 77.100,54.700 76.500,53.700 75.500,53.400 75.500,53.400 75.500,53.400 75.500,53.400 Z " />
  <path stroke="none" fill="#ffffffff" d="M 66.700,29.900 C 69.900,33.100 72.200,37.100 73.400,41.400 73.700,42.400 74.700,43.000 75.700,42.700 76.700,42.400 77.300,41.400 77.000,40.400 75.700,35.400 73.000,30.900 69.400,27.200 69.367,27.167 69.333,27.133 69.300,27.100 69.000,26.700 68.500,26.500 68.000,26.600 68.000,26.600 68.000,26.600 68.000,26.600 67.000,26.600 66.100,27.400 66.100,28.500 66.000,29.000 66.200,29.500 66.700,29.900 66.700,29.900 66.700,29.900 66.700,29.900 66.700,29.900 66.700,29.900 66.700,29.900 Z " />
  <path stroke="none" fill="#ffffffff" d="M 48.400,62.000 C 48.400,62.000 48.400,62.000 48.400,62.000 40.700,62.000 34.500,55.800 34.500,48.100 34.500,40.400 40.700,34.200 48.400,34.200 56.100,34.200 62.300,40.400 62.300,48.100 62.300,55.800 56.100,62.000 48.400,62.000 48.400,62.000 48.400,62.000 48.400,62.000 Z M 48.400,31.100 C 39.000,31.100 31.400,38.700 31.400,48.100 31.400,57.500 39.000,65.100 48.400,65.100 57.800,65.100 65.400,57.500 65.400,48.100 65.400,38.700 57.800,31.100 48.400,31.100 48.400,31.100 48.400,31.100 48.400,31.100 Z " />
  <path stroke="none" fill="#ffffffff" d="M 89.500,47.800 C 89.400,47.200 88.900,46.700 88.200,46.500 82.267,46.500 76.333,46.500 70.400,46.500 69.600,46.600 69.100,47.300 69.100,48.000 69.100,48.000 69.100,48.000 69.100,48.000 69.100,48.000 69.100,48.000 69.100,48.000 69.100,48.100 69.100,48.100 69.100,48.200 69.100,48.300 69.100,48.300 69.200,48.400 69.200,48.400 69.200,48.500 69.200,48.500 69.400,49.000 69.800,49.400 70.400,49.500 76.367,49.500 82.333,49.500 88.300,49.500 89.100,49.400 89.600,48.700 89.500,47.800 89.500,47.800 89.500,47.800 89.500,47.800 Z " />
  <path stroke="none" fill="#ffffffff" d="M 27.600,47.800 C 27.500,47.200 27.000,46.700 26.300,46.500 20.367,46.500 14.433,46.500 8.500,46.500 7.700,46.600 7.200,47.300 7.200,48.000 7.200,48.000 7.200,48.000 7.200,48.000 7.200,48.000 7.200,48.000 7.200,48.000 7.200,48.100 7.200,48.100 7.200,48.200 7.200,48.300 7.200,48.300 7.300,48.400 7.300,48.400 7.300,48.500 7.300,48.500 7.500,49.000 7.900,49.400 8.500,49.500 14.433,49.500 20.367,49.500 26.300,49.500 27.100,49.400 27.700,48.700 27.600,47.800 27.600,47.800 27.600,47.800 27.600,47.800 Z " />
  <path stroke="none" fill="#ffffffff" d="M 53.300,47.600 C 53.300,47.600 53.300,47.500 53.300,47.500 53.300,47.400 53.300,47.400 53.300,47.400 53.300,47.400 53.300,47.300 53.300,47.300 53.300,47.300 53.300,47.200 53.300,47.200 53.300,47.100 53.300,47.100 53.200,47.000 53.000,46.500 52.600,46.100 52.000,46.000 51.267,46.000 50.533,46.000 49.800,46.000 49.800,45.267 49.800,44.533 49.800,43.800 49.800,43.000 49.100,42.300 48.300,42.300 48.300,42.300 48.300,42.300 48.300,42.300 47.500,42.300 46.800,43.000 46.800,43.800 46.800,44.533 46.800,45.267 46.800,46.000 46.067,46.000 45.333,46.000 44.600,46.000 44.000,46.100 43.600,46.500 43.400,47.000 43.400,47.000 43.400,47.100 43.400,47.100 43.400,47.100 43.400,47.200 43.400,47.200 43.400,47.300 43.300,47.400 43.300,47.500 43.300,47.600 43.300,47.600 43.300,47.700 43.300,47.700 43.300,47.700 43.300,47.700 43.300,47.700 43.300,47.700 43.300,47.700 43.300,47.800 43.400,47.900 43.400,48.000 43.600,48.500 44.000,48.800 44.500,48.900 45.233,48.900 45.967,48.900 46.700,48.900 46.700,49.633 46.700,50.367 46.700,51.100 46.800,51.600 47.200,52.100 47.600,52.300 47.700,52.300 47.700,52.300 47.800,52.400 47.800,52.400 47.800,52.400 47.800,52.400 47.900,52.400 48.000,52.500 48.100,52.500 48.100,52.500 48.100,52.500 48.100,52.500 48.200,52.500 48.200,52.500 48.300,52.500 48.300,52.500 48.300,52.500 48.300,52.500 48.300,52.500 48.300,52.500 48.300,52.500 48.400,52.500 48.500,52.400 48.600,52.400 49.100,52.200 49.400,51.800 49.500,51.300 49.500,50.533 49.500,49.767 49.500,49.000 50.233,49.000 50.967,49.000 51.700,49.000 52.300,48.900 52.700,48.500 52.900,48.000 52.900,48.000 52.900,48.000 52.900,47.900 53.300,47.800 53.300,47.700 53.300,47.600 53.300,47.600 53.300,47.600 53.300,47.600 Z " />
</svg>