<?xml version="1.0" encoding="UTF-8" standalone="no"?>
<!DOCTYPE svg PUBLIC "-//W3C//DTD SVG 20010904//EN" "http://www.w3.org/TR/2001/REC-SVG-20010904/DTD/svg10.dtd"[]>
<svg version="1.1" id="Frosty Editor v1.0.6.3" xmlns="http://www.w3.org/2000/svg" d1p1:xlink="http://www.w3.org/1999/xlink" viewBox="0 0 96 96" xmlns:d1p1="xmlns">
  <path stroke="none" fill="#ffffffff" d="M 62.500,24.000 C 62.500,23.860 62.500,23.720 62.500,23.580 61.617,21.387 60.733,19.193 59.850,17.000 52.283,17.000 44.717,17.000 37.150,17.000 36.267,19.193 35.383,21.387 34.500,23.580 34.500,23.720 34.500,23.860 34.500,24.000 43.833,24.000 53.167,24.000 62.500,24.000 62.500,24.000 62.500,24.000 62.500,24.000 Z " />
  <path stroke="none" fill="#ffffffff" d="M 46.500,39.000 C 48.167,39.000 49.833,39.000 51.500,39.000 51.500,43.000 51.500,47.000 51.500,51.000 49.833,51.000 48.167,51.000 46.500,51.000 46.500,47.000 46.500,43.000 46.500,39.000 Z " />
  <path stroke="none" fill="#ffffffff" d="M 53.500,53.000 C 50.500,53.000 47.500,53.000 44.500,53.000 44.500,47.667 44.500,42.333 44.500,37.000 47.500,37.000 50.500,37.000 53.500,37.000 53.500,42.333 53.500,47.667 53.500,53.000 Z M 48.650,28.670 C 49.912,28.670 51.050,29.430 51.533,30.596 52.015,31.762 51.748,33.104 50.856,33.996 49.964,34.888 48.622,35.155 47.456,34.673 46.290,34.190 45.530,33.052 45.530,31.790 45.535,30.069 46.929,28.676 48.650,28.670 48.650,28.670 48.650,28.670 48.650,28.670 Z M 34.500,26.000 C 34.500,36.000 34.500,46.000 34.500,56.000 36.500,56.000 38.500,56.000 40.500,56.000 40.500,57.000 40.500,58.000 40.500,59.000 43.167,59.000 45.833,59.000 48.500,59.000 48.500,58.000 48.500,57.000 48.500,56.000 51.167,56.000 53.833,56.000 56.500,56.000 56.500,57.000 56.500,58.000 56.500,59.000 58.167,59.000 59.833,59.000 61.500,59.000 61.500,58.000 61.500,57.000 61.500,56.000 61.833,56.000 62.167,56.000 62.500,56.000 62.500,46.000 62.500,36.000 62.500,26.000 53.167,26.000 43.833,26.000 34.500,26.000 Z " />
  <path stroke="none" fill="#ffffffff" d="M 62.500,75.000 C 62.500,73.000 62.500,71.000 62.500,69.000 59.833,69.000 57.167,69.000 54.500,69.000 54.500,70.333 54.500,71.667 54.500,73.000 50.500,73.000 46.500,73.000 42.500,73.000 42.500,71.667 42.500,70.333 42.500,69.000 39.833,69.000 37.167,69.000 34.500,69.000 34.500,71.000 34.500,73.000 34.500,75.000 43.833,75.000 53.167,75.000 62.500,75.000 62.500,75.000 62.500,75.000 62.500,75.000 Z " />
  <path stroke="none" fill="#ffffffff" d="M 34.840,77.000 C 35.607,78.667 36.373,80.333 37.140,82.000 44.920,82.000 52.700,82.000 60.480,82.000 61.250,80.333 62.020,78.667 62.790,77.000 53.473,77.000 44.157,77.000 34.840,77.000 34.840,77.000 34.840,77.000 34.840,77.000 Z " />
  <path stroke="none" fill="#ffffffff" d="M 54.500,56.000 C 54.500,55.000 54.500,54.000 54.500,53.000 53.167,53.000 51.833,53.000 50.500,53.000 50.500,54.000 50.500,55.000 50.500,56.000 46.500,56.000 42.500,56.000 38.500,56.000 38.500,55.000 38.500,54.000 38.500,53.000 37.167,53.000 35.833,53.000 34.500,53.000 34.500,57.667 34.500,62.333 34.500,67.000 37.833,67.000 41.167,67.000 44.500,67.000 44.500,68.333 44.500,69.667 44.500,71.000 47.167,71.000 49.833,71.000 52.500,71.000 52.500,69.667 52.500,68.333 52.500,67.000 55.833,67.000 59.167,67.000 62.500,67.000 62.500,63.333 62.500,59.667 62.500,56.000 59.833,56.000 57.167,56.000 54.500,56.000 Z " />
</svg>