<?xml version="1.0" encoding="UTF-8" standalone="no"?>
<!-- Created with Inkscape (http://www.inkscape.org/) -->

<svg
   width="384"
   height="96"
   viewBox="0 0 101.6 25.399999"
   version="1.1"
   id="svg5"
   inkscape:version="1.3.2 (091e20e, 2023-11-25, custom)"
   sodipodi:docname="Weapons_ABR-2.svg"
   xml:space="preserve"
   xmlns:inkscape="http://www.inkscape.org/namespaces/inkscape"
   xmlns:sodipodi="http://sodipodi.sourceforge.net/DTD/sodipodi-0.dtd"
   xmlns="http://www.w3.org/2000/svg"
   xmlns:svg="http://www.w3.org/2000/svg"><sodipodi:namedview
     id="namedview7"
     pagecolor="#ffffff"
     bordercolor="#999999"
     borderopacity="1"
     inkscape:pageshadow="0"
     inkscape:pageopacity="0"
     inkscape:pagecheckerboard="true"
     inkscape:document-units="px"
     showgrid="false"
     width="384mm"
     units="px"
     borderlayer="false"
     showborder="true"
     inkscape:showpageshadow="true"
     inkscape:zoom="1.4142136"
     inkscape:cx="-153.44217"
     inkscape:cy="-51.265241"
     inkscape:window-width="2560"
     inkscape:window-height="1377"
     inkscape:window-x="-8"
     inkscape:window-y="-8"
     inkscape:window-maximized="1"
     inkscape:current-layer="svg5"
     inkscape:snap-global="true"
     inkscape:snap-nodes="true"
     inkscape:deskcolor="#d1d1d1" /><defs
     id="defs2"><inkscape:path-effect
       effect="fill_between_many"
       method="originald"
       linkedpaths="#path269,0,1"
       id="path-effect8" /><inkscape:path-effect
       effect="fill_between_many"
       method="originald"
       linkedpaths="#path269,0,1"
       id="path-effect8-8" /><clipPath
       clipPathUnits="userSpaceOnUse"
       id="clipPath1"><rect
         style="fill:#ff9955;stroke-width:0.264583"
         id="rect2"
         width="656.69574"
         height="253.99998"
         x="391.58331"
         y="-101.59999" /></clipPath><clipPath
       clipPathUnits="userSpaceOnUse"
       id="clipPath2"><rect
         style="fill:#ff5555;stroke-width:0.264583"
         id="rect3"
         width="656.69574"
         height="253.99998"
         x="-285.75"
         y="-101.59999" /></clipPath><clipPath
       clipPathUnits="userSpaceOnUse"
       id="clipPath2-5"><rect
         style="fill:#ff5555;stroke-width:0.264583"
         id="rect3-9"
         width="656.69574"
         height="253.99998"
         x="-285.75"
         y="-101.59999" /></clipPath></defs><g
     inkscape:label="Layer 1"
     inkscape:groupmode="layer"
     id="layer1" /><inkscape:templateinfo><inkscape:name>Weapon SVG</inkscape:name><inkscape:author>Soulbruh</inkscape:author><inkscape:shortdesc>Used for weapons in BFII</inkscape:shortdesc><inkscape:date>2021-07-24</inkscape:date></inkscape:templateinfo><g
     inkscape:label="Layer 1"
     id="layer1-1"
     style="fill:#000000"
     transform="translate(27.372478,-29.44851)" /><path
     id="path7-6-8-9"
     d="M 39.590273,0.12520153 C 39.507735,0.36043762 39.398187,0.36845568 39.167747,0.36832997 V 0.70527164 H 37.123614 V 0.7688968 H 36.202724 C 36.088292,0.7688968 36.070365,0.69205474 36.017928,0.63614256 C 35.969899,0.58633472 35.900026,0.5509254 35.802682,0.5509254 C 35.705336,0.5509254 35.635463,0.58633472 35.587436,0.63614256 C 35.534999,0.69205474 35.517072,0.7688968 35.402637,0.7688968 H 33.18676 V 0.89635692 H 34.46304 L 30.569895,3.8859066 C 30.506973,3.827512 30.444631,3.7687212 30.38536,3.707924 C 30.06755,3.9416823 29.77137,4.186053 29.51489,4.4906611 C 28.042069,6.0616599 26.415254,7.4442391 24.932611,9.0065377 C 23.309354,10.21569 21.723413,11.474142 20.049081,12.613996 L 19.318334,13.386566 C 19.270424,13.272494 19.234643,13.193182 19.221901,13.179496 L 18.853723,13.968313 V 14.165164 C 19.22604,15.070787 22.923278,25.227846 22.990362,25.274798 L 23.412994,24.48488 C 23.412994,24.48488 23.351543,24.315134 23.346013,24.299824 L 23.346538,24.300818 C 23.625966,22.021049 23.843734,19.814579 24.484351,17.597156 C 25.018154,15.949185 25.526625,14.290885 26.569154,12.877301 L 27.712364,11.176715 C 28.980399,9.8430642 30.175634,8.663791 31.741984,7.6427342 C 31.994397,7.5371662 32.210748,7.4616093 32.41183,7.399291 C 32.420906,7.674337 32.547983,7.9182532 32.653859,8.1666203 L 32.811508,8.0794107 C 32.693786,7.8355554 32.633367,7.5969079 32.652287,7.3296387 C 32.752352,7.3031828 32.849766,7.2792729 32.942268,7.2597765 C 32.961936,7.9436591 33.422749,8.4428533 33.893242,8.8808063 L 34.030764,8.7124145 C 33.294701,8.0536107 33.351532,7.5909951 33.408716,7.1772317 L 33.887792,7.1023383 C 34.141525,7.8168998 34.552263,8.3221987 35.275966,8.6009395 L 35.354265,8.4064473 C 34.799792,8.0732146 34.382455,7.710261 34.357066,7.0130329 C 34.357271,7.0123112 34.378764,7.0083002 34.415032,6.9999819 L 34.597628,6.7770319 L 34.697258,6.4829612 L 34.786774,6.4190216 L 34.92047,6.4358452 C 35.043069,6.6002912 35.076338,6.6550655 35.264278,6.6924426 L 35.453792,6.6303895 L 35.263492,6.0785161 L 35.790628,5.6860196 H 37.136768 V 5.8572423 H 39.167747 L 39.169423,6.5649822 L 66.321802,6.0551409 C 66.221642,6.0127631 66.119142,5.9777036 66.017408,5.9403112 L 66.021497,5.9393678 L 67.229851,5.7741731 C 67.36836,5.850361 67.504818,5.9304109 67.639014,6.0141567 L 70.333394,5.9801422 C 70.240312,5.9002766 70.146507,5.8254788 70.052268,5.754153 L 70.070087,5.7542049 L 71.181592,5.705464 C 71.260768,5.7820918 71.339265,5.8597009 71.413503,5.9427749 L 81.263788,5.7559864 V 5.6123847 H 82.410509 V 5.7342375 L 82.640588,5.7298865 V 5.6123847 H 83.787311 V 5.7080843 L 84.255801,5.6992278 V 3.3515382 V 1.0038487 L 83.787311,0.99499177 V 1.0906915 H 82.640588 V 0.97318974 L 82.410509,0.96883884 V 1.0906915 H 81.263788 V 0.94708972 L 71.413503,0.76030157 C 71.339265,0.84337674 71.260768,0.92098643 71.181592,0.99761242 L 70.070087,0.94887152 L 70.052268,0.94892336 C 70.146507,0.8775974 70.240312,0.80280215 70.333394,0.72293378 L 67.639014,0.68891988 C 67.504818,0.7726675 67.36836,0.85271429 67.229851,0.92890323 L 66.021497,0.76370818 L 66.017408,0.76276496 C 66.119142,0.72536782 66.221642,0.69031336 66.321802,0.64793556 L 40.793912,0.16859666 C 40.793912,0.16859666 40.704186,0.13788506 40.566665,0.13285366 C 40.566665,0.13285366 39.599136,0.12520153 39.590273,0.12520153 Z M 39.729158,0.34086677 C 39.857596,0.34192864 40.114474,0.34406454 40.114474,0.34406454 C 41.177623,0.34770541 41.631988,0.72582819 41.659562,1.7701297 L 39.38252,1.7603824 C 39.38252,1.7603824 39.384358,0.8519547 39.38053,0.5741949 C 39.583365,0.5417003 39.690002,0.40422714 39.729158,0.34086677 Z M 41.305064,0.39290982 L 65.045263,0.8386537 C 64.777577,0.90695822 64.502188,0.96647074 64.229768,1.0252318 L 41.966997,0.90835876 L 41.729477,0.90710121 C 41.612017,0.69878592 41.500042,0.52398255 41.305064,0.39290982 Z M 39.780677,0.5243009 C 39.629322,0.5243009 39.507465,0.64616375 39.507465,0.79751215 C 39.507465,0.9488675 39.629322,1.0707233 39.780677,1.0707233 C 39.932028,1.0707233 40.053889,0.9488675 40.053889,0.79751215 C 40.053889,0.64616375 39.932028,0.5243009 39.780677,0.5243009 Z M 39.780677,0.60611243 C 39.886699,0.60611243 39.972025,0.69149181 39.972025,0.79751215 C 39.972025,0.90353336 39.886699,0.98891274 39.780677,0.98891274 C 39.674658,0.98891274 39.589277,0.90353336 39.589277,0.79751215 C 39.589277,0.69149181 39.674658,0.60611243 39.780677,0.60611243 Z M 35.756037,0.67812291 C 35.77008,0.67797177 35.785324,0.67852948 35.802682,0.67833282 C 35.87211,0.67912186 35.908031,0.66794851 35.966357,0.73755524 C 36.013758,0.79951105 36.05624,0.89635692 36.160797,0.89635692 H 37.123614 V 1.0017523 H 34.766021 C 34.696143,1.0017523 34.615714,0.93501172 34.558897,0.89635692 H 35.444568 C 35.549123,0.89635692 35.591606,0.79951105 35.639007,0.73755524 C 35.68275,0.68534997 35.71391,0.6785762 35.756037,0.67812291 Z M 37.370201,0.88849499 H 38.921212 V 1.0017523 H 37.370201 Z M 67.697974,0.9044278 C 68.368391,0.91340233 69.044857,0.92031203 69.7115,0.93058062 C 68.95142,1.4523673 68.063938,1.7660182 67.158156,1.9162479 C 66.832928,1.9696641 66.505635,2.021689 66.176103,2.0347983 C 65.673853,2.031053 65.171531,2.0273279 64.669275,2.0235835 C 65.743611,1.8716327 66.775705,1.4719777 67.697974,0.9044278 Z M 65.576539,0.9111367 H 65.581727 L 66.910416,1.0932077 C 66.031239,1.5288046 65.078892,1.8083058 64.0956,1.8661449 L 41.867629,1.7710212 C 41.867629,1.3531625 41.832095,1.3031589 41.798553,1.122033 L 64.252095,1.2400064 C 64.697678,1.1469435 65.141425,1.0433158 65.576539,0.9111367 Z M 71.505377,0.97649096 C 74.686542,1.0369071 77.867852,1.0973609 81.049013,1.1577761 V 2.8565291 H 84.002086 V 1.2147978 H 84.041078 V 1.3639554 V 2.8565291 V 3.2057344 H 41.520729 V 3.1906403 C 41.520729,3.1385626 41.512891,3.0884304 41.498769,3.0410637 C 41.498709,3.0408578 41.498674,3.0406408 41.498612,3.040435 C 41.484416,2.9930317 41.463555,2.9486356 41.437293,2.9080479 C 49.739464,2.954954 58.042137,3.0023734 66.344288,3.048873 C 67.651725,2.9497492 68.96448,2.6579055 70.125013,2.0305012 C 70.635025,1.7524138 71.108995,1.402522 71.505377,0.97649096 Z M 69.812913,1.1211416 L 70.990139,1.1711928 C 69.513375,2.4534939 67.375983,2.7630696 66.326625,2.8348844 L 51.371276,2.7499279 V 2.1401421 L 66.306081,2.2504118 C 67.267649,2.1415538 68.569098,1.9668234 69.812913,1.1211416 Z M 34.515815,1.1266445 C 34.515815,1.1266445 34.635878,1.198298 34.704595,1.2106569 H 34.978015 H 37.260037 L 33.155314,2.5835279 C 32.526683,2.8295355 32.526673,3.4041542 33.155314,3.6501678 L 37.552902,5.1209921 H 38.921212 V 5.2987655 H 37.407255 H 35.489848 L 34.855273,6.1055066 L 34.510785,6.3589078 L 34.20445,6.1667216 C 33.678895,5.8536226 33.138423,5.5668104 32.603912,5.2695211 C 31.646127,4.7354439 31.13767,4.3767665 30.7342,4.0305576 Z M 81.263788,1.305309 H 82.410509 V 2.6417546 H 81.263788 Z M 82.640588,1.305309 H 83.787311 V 2.6417546 H 82.640588 Z M 37.587701,1.3274264 H 38.921212 V 2.4659206 V 2.670737 V 2.7543304 C 38.787409,2.6222151 38.603394,2.5408134 38.399632,2.5408134 C 37.988706,2.5408134 37.657878,2.8716404 37.657878,3.2825673 C 37.657878,3.6934933 37.988706,4.0243199 38.399632,4.0243199 C 38.603394,4.0243199 38.787409,3.9429193 38.921212,3.8108039 V 3.8418831 V 3.8943966 V 4.9062696 H 37.587701 L 33.110869,3.3747033 C 32.922164,3.3038601 32.922162,2.9298387 33.110869,2.8589926 Z M 39.167747,2.049998 L 43.368798,2.0810241 V 2.7044892 L 41.147154,2.6918585 C 41.100727,2.6783433 41.051729,2.670737 41.000826,2.670737 H 39.167747 Z M 43.751545,2.0838546 L 47.397159,2.1107924 V 2.7273398 L 43.751545,2.7066383 Z M 47.497786,2.1115268 L 47.584889,2.1121555 H 47.497786 Z M 47.779853,2.1136231 L 50.192688,2.1313897 V 2.7432199 L 47.779853,2.7295406 Z M 50.575384,2.1342203 L 50.988581,2.1373115 V 2.7477798 L 50.575384,2.7454207 Z M 38.399632,2.7609865 C 38.688584,2.7609865 38.921212,2.9936129 38.921212,3.2825673 C 38.921212,3.5715196 38.688584,3.804148 38.399632,3.804148 C 38.11068,3.804148 37.87805,3.5715196 37.87805,3.2825673 C 37.87805,2.9936129 38.11068,2.7609865 38.399632,2.7609865 Z M 39.167747,2.7757663 H 40.373587 V 3.7893682 H 39.167747 Z M 40.512787,2.7757663 H 40.957011 C 41.091945,2.7742268 41.429638,2.816703 41.415281,3.2825673 C 41.429638,3.7484316 41.091945,3.7909079 40.957011,3.7893682 H 40.512787 Z M 41.505635,3.4973419 H 84.041078 V 3.8465472 V 5.3391208 V 5.4882787 H 84.002086 V 3.8465472 H 81.049013 V 5.5453006 C 77.867852,5.6057154 74.686542,5.6661699 71.505377,5.7265855 C 71.108995,5.3005531 70.635025,4.9506636 70.125013,4.672575 C 68.96448,4.0451697 67.651725,3.753321 66.344288,3.6542033 C 57.998162,3.7009493 49.651521,3.7486138 41.305378,3.7957618 C 41.404003,3.7244804 41.476181,3.6195668 41.505635,3.4973419 Z M 66.326625,3.8681921 C 67.375983,3.9400097 69.513375,4.2495798 70.990139,5.5318839 L 69.812913,5.5819344 C 68.569097,4.7362487 67.267651,4.5615194 66.306081,4.4526649 L 50.575384,4.5688563 V 3.9576555 Z M 50.192688,3.9598566 V 4.5716871 L 46.394616,4.5997262 V 3.9814497 Z M 46.01192,3.9835988 V 4.6025555 L 45.089721,4.6093689 V 3.9888384 Z M 30.367332,3.9899405 C 30.48518,4.1025538 30.607837,4.2100846 30.734409,4.3127825 C 31.746737,5.1331918 32.94915,5.6632221 34.057283,6.3312884 C 34.187916,6.4039772 34.308125,6.4947806 34.438983,6.5654539 C 34.432409,6.6536228 34.359941,6.7305517 34.303347,6.7979954 C 34.228564,6.829612 34.138497,6.8344623 34.05765,6.8540738 C 33.566105,6.9413561 33.061747,6.9937691 32.576554,7.1264462 C 32.250091,7.21973 31.921956,7.3187452 31.617982,7.4724549 C 29.927897,8.5521607 28.312086,10.210736 27.557442,11.036203 C 27.163215,11.589598 26.798735,12.164072 26.411819,12.722797 C 25.908725,13.412853 25.508466,14.17299 25.182081,14.960899 C 24.828798,15.820249 24.543151,16.705193 24.264964,17.591232 C 23.60705,19.866017 23.297536,22.850651 23.195335,23.883429 C 22.682547,22.464429 20.135683,15.426098 19.40612,13.603174 C 19.615891,13.382174 20.068471,12.905511 20.189592,12.777934 C 21.856998,11.638179 23.442862,10.384868 25.061695,9.1785455 C 26.47153,7.7017909 28.016994,6.3615696 29.431453,4.8881355 C 29.723428,4.5680771 30.022081,4.2530948 30.367332,3.9899405 Z M 44.707025,3.9910403 V 4.6121469 L 42.386221,4.6292843 V 4.0041959 Z M 42.003526,4.0063963 V 4.632115 L 39.167747,4.6530793 V 4.0224865 Z M 81.263788,4.0613216 H 82.410509 V 5.3977675 H 81.263788 Z M 82.640588,4.0613216 H 83.787311 V 5.3977675 H 82.640588 Z M 66.176103,4.668278 C 66.505635,4.6813873 66.832928,4.7334152 67.158156,4.7868284 C 68.063938,4.9370654 68.95142,5.2507048 69.7115,5.7724956 C 69.044857,5.7827643 68.368391,5.7896739 67.697974,5.7986487 C 66.775705,5.2311051 65.743611,4.8314386 64.669275,4.6794929 C 65.171531,4.6757486 65.673853,4.6720238 66.176103,4.668278 Z M 64.0956,4.8369317 C 65.078892,4.8947716 66.031239,5.1742669 66.910416,5.6098683 L 65.581727,5.7919395 H 65.576539 C 65.141425,5.6597625 64.697688,5.5561386 64.252095,5.4630702 L 45.342648,5.5907916 V 4.9172234 Z M 45.127874,4.9181141 V 5.9107531 L 39.38252,6.0250052 V 5.6860196 H 43.124044 C 43.787887,5.6820274 44.556173,5.5569891 44.909378,4.9190575 Z M 44.614102,4.9203159 C 44.37026,5.3987205 43.701185,5.4637039 43.105124,5.4659522 C 43.073512,5.3168054 43.008733,5.2987655 42.964405,5.2987655 H 39.38252 V 5.1584647 V 4.9436384 L 43.079339,4.9271811 C 43.141407,5.1834884 43.371373,5.3727675 43.647302,5.3727675 C 43.925049,5.3727675 44.156214,5.1809776 44.216471,4.922098 Z M 44.0344,4.9228841 C 43.978905,5.0832666 43.827038,5.1978767 43.647302,5.1978767 C 43.468856,5.1978767 43.317826,5.0849164 43.261359,4.9263423 Z M 39.135934,5.1584647 H 39.167747 V 5.2987655 H 39.135934 Z M 34.409266,5.4240766 C 34.292919,5.4240766 34.199261,5.5177294 34.199261,5.6340823 C 34.199261,5.750435 34.292919,5.8440873 34.409266,5.8440873 C 34.525619,5.8440873 34.619273,5.750435 34.619273,5.6340823 C 34.619273,5.5177294 34.525619,5.4240766 34.409266,5.4240766 Z M 42.884952,5.4594007 C 42.925447,5.4601377 42.96184,5.4694651 42.95277,5.5249133 H 35.738375 L 35.218629,5.9036254 L 35.567624,5.4597679 C 35.567624,5.4597679 40.446063,5.4800594 42.884952,5.4594007 Z M 64.181133,5.6779492 C 64.472245,5.7228378 64.762326,5.7930732 65.046624,5.8642127 L 39.38252,6.3392021 V 6.1811342 L 45.342648,6.0708121 V 5.8054088 Z M 37.252804,5.6860196 H 39.167747 V 5.7545194 H 37.252804 Z M 19.214458,13.702596 C 19.258565,13.811699 19.300547,13.91709 19.342443,14.02654 C 20.658719,17.493391 21.912225,20.982953 23.178512,24.468267 C 23.125493,24.567309 23.07247,24.666336 23.01945,24.765377 C 22.667137,23.834925 22.320643,22.902283 21.976026,21.968956 C 21.046737,19.459082 20.131658,16.943786 19.188568,14.439055 C 19.145842,14.29434 19.055308,14.171258 19.067083,14.018154 C 19.116206,13.912973 19.165334,13.807775 19.214458,13.702596 Z"
     sodipodi:nodetypes="cccccscscscccccccccccccccccccccccccccccccccccccccccccccccccccccccccccccccccccccccccccccccccccccccccccccccccccsssssssssssccsccscscscccccccccccccccccccccccccccccssscccccccccccccccccccccccccccccccccccccccccccsssccccccccccccscccccccccccccccccccccssssscccccccccccccccccccccccccccccccccccccccccccccccccccccccccccccccccccccccccccccccccccccccccccccccccccccccsccccscccscccccccssssscccccccccccccccccccccccccc"
     fill="#ffffff" /></svg>
