<?xml version="1.0" encoding="UTF-8" standalone="no"?>
<!DOCTYPE svg PUBLIC "-//W3C//DTD SVG 20010904//EN" "http://www.w3.org/TR/2001/REC-SVG-20010904/DTD/svg10.dtd"[]>
<svg version="1.1" id="Frosty Editor v1.0.6.3" xmlns="http://www.w3.org/2000/svg" d1p1:xlink="http://www.w3.org/1999/xlink" viewBox="0 0 101 25" xmlns:d1p1="xmlns">
  <path stroke="none" fill="#ffffffff" d="M 79.701,2.699 C 79.679,2.699 79.658,2.700 79.636,2.701 75.752,2.703 71.867,2.701 67.982,2.702 65.558,2.702 63.135,2.702 60.712,2.702 60.686,2.737 60.665,2.775 60.645,2.814 60.452,2.814 60.452,2.814 60.452,2.814 60.438,2.777 60.423,2.739 60.409,2.702 60.096,2.704 59.782,2.696 59.469,2.707 59.225,2.731 58.993,2.907 58.938,3.151 58.910,3.261 58.916,3.375 58.917,3.488 57.988,3.488 57.988,3.488 57.988,3.488 57.698,3.746 57.407,4.004 57.117,4.262 55.404,4.262 53.692,4.262 51.979,4.262 51.966,4.097 51.823,3.951 51.655,3.948 51.516,3.940 51.376,3.950 51.236,3.946 50.901,3.946 50.565,3.945 50.229,3.944 50.012,3.764 49.644,3.814 49.491,4.054 49.445,4.121 49.414,4.198 49.405,4.278 49.300,4.319 49.207,4.386 49.106,4.434 49.060,4.470 49.037,4.467 49.049,4.404 49.049,3.647 49.049,3.647 49.049,3.647 49.014,3.670 48.983,3.707 48.961,3.654 48.894,3.598 48.804,3.632 48.727,3.623 48.325,3.623 48.325,3.623 48.325,3.623 48.321,3.653 48.353,3.709 48.299,3.692 43.859,3.692 43.859,3.692 43.859,3.692 43.708,3.569 43.556,3.446 43.404,3.323 37.402,3.323 37.402,3.323 37.402,3.323 37.305,3.446 37.207,3.569 37.110,3.692 36.177,3.692 36.177,3.692 36.177,3.692 36.079,3.473 35.981,3.255 35.883,3.036 31.938,3.036 31.938,3.036 31.938,3.036 31.938,6.625 31.938,6.625 31.938,6.625 35.479,6.625 35.479,6.625 35.479,6.625 34.258,6.876 33.036,7.124 31.808,7.332 31.562,7.373 31.315,7.406 31.065,7.398 29.582,7.401 28.098,7.398 26.614,7.399 18.806,7.399 18.806,7.399 18.806,7.399 18.806,7.654 18.806,7.654 18.806,7.654 18.756,7.671 18.753,7.636 18.759,7.595 18.759,7.403 18.759,7.403 18.759,7.403 18.060,7.405 17.361,7.400 16.663,7.408 16.496,7.430 16.390,7.594 16.366,7.749 15.861,10.007 15.353,12.264 14.848,14.522 14.824,14.675 14.983,14.806 15.129,14.783 16.339,14.785 17.549,14.784 18.759,14.784 18.759,14.541 18.759,14.541 18.759,14.541 18.808,14.524 18.811,14.559 18.806,14.600 18.806,14.832 18.806,14.832 18.806,14.832 20.446,14.832 20.446,14.832 20.446,14.832 20.446,14.404 20.446,14.404 20.446,14.404 21.023,13.985 21.612,13.584 22.201,13.181 22.691,12.853 23.205,12.529 23.781,12.372 24.006,12.311 24.240,12.305 24.471,12.309 26.640,12.311 28.809,12.309 30.979,12.310 30.979,12.567 30.979,12.567 30.979,12.567 32.130,12.567 32.130,12.567 32.130,12.567 32.116,12.621 32.102,12.675 32.088,12.729 33.917,12.729 33.917,12.729 33.917,12.729 34.045,13.444 34.172,14.158 34.300,14.872 34.169,14.930 34.109,15.071 34.042,15.188 33.857,15.536 33.715,15.905 33.562,16.268 33.145,17.291 32.751,18.325 32.354,19.356 31.943,20.426 31.535,21.498 31.126,22.568 31.190,22.815 31.253,23.062 31.316,23.309 33.054,23.945 34.792,24.580 36.529,25.216 36.739,25.060 36.950,24.903 37.160,24.746 37.174,23.921 37.188,23.096 37.202,22.270 37.576,21.099 38.101,19.985 38.604,18.865 38.843,18.337 39.089,17.811 39.284,17.265 39.332,17.120 39.382,16.968 39.370,16.813 39.369,16.779 39.334,16.747 39.366,16.719 39.556,16.399 39.745,16.079 39.933,15.758 40.883,15.757 41.833,15.758 42.783,15.755 43.039,15.722 43.243,15.544 43.425,15.375 43.874,14.946 44.226,14.429 44.567,13.913 44.906,13.391 45.213,12.849 45.496,12.294 50.624,12.294 50.624,12.294 50.624,12.294 50.624,12.597 50.624,12.597 50.624,12.597 53.657,12.597 53.657,12.597 53.657,12.597 53.676,12.576 53.684,12.548 53.682,12.520 54.548,12.520 54.548,12.520 54.548,12.520 54.574,12.586 54.651,12.614 54.716,12.597 55.252,12.597 55.252,12.597 55.252,12.597 55.270,12.576 55.278,12.548 55.276,12.520 56.143,12.520 56.143,12.520 56.143,12.520 56.168,12.586 56.246,12.614 56.311,12.597 57.261,12.597 57.261,12.597 57.261,12.597 57.277,12.572 57.245,12.512 57.291,12.527 57.368,12.533 57.452,12.517 57.501,12.453 57.690,12.283 57.880,12.113 58.069,11.943 58.069,11.684 58.069,11.684 58.069,11.684 58.243,11.686 58.418,11.680 58.592,11.687 58.638,11.752 58.709,11.816 58.795,11.799 58.917,11.799 58.917,11.799 58.917,11.799 58.914,11.956 58.906,12.128 59.005,12.260 59.141,12.467 59.392,12.589 59.640,12.571 59.757,12.567 59.875,12.579 59.991,12.565 60.119,12.542 60.217,12.437 60.257,12.317 60.899,12.317 60.899,12.317 60.899,12.317 60.967,12.402 61.036,12.486 61.105,12.571 61.981,12.571 61.981,12.571 61.981,12.571 61.980,12.354 61.980,12.138 61.980,11.921 62.026,11.906 62.038,11.930 62.029,11.973 62.029,12.246 62.029,12.246 62.029,12.246 65.190,12.246 65.190,12.246 65.190,12.246 65.190,11.920 65.190,11.920 65.190,11.920 65.353,11.920 65.353,11.920 65.353,11.920 65.353,12.246 65.353,12.246 65.353,12.246 68.514,12.246 68.514,12.246 68.514,12.246 68.514,11.920 68.514,11.920 68.514,11.920 68.709,11.920 68.709,11.920 68.709,11.920 68.709,12.246 68.709,12.246 68.709,12.246 71.870,12.246 71.870,12.246 71.870,12.246 71.870,11.920 71.870,11.920 71.870,11.920 72.001,11.920 72.001,11.920 72.001,11.920 72.001,12.246 72.001,12.246 72.001,12.246 75.163,12.246 75.163,12.246 75.163,12.246 75.163,11.920 75.163,11.920 75.163,11.920 75.366,11.920 75.366,11.920 75.366,11.920 75.366,12.246 75.366,12.246 75.366,12.246 78.528,12.246 78.528,12.246 78.528,12.246 78.528,11.920 78.528,11.920 78.528,11.920 78.565,11.925 78.631,11.899 78.615,11.960 78.625,12.164 78.635,12.367 78.646,12.571 79.809,12.571 79.809,12.571 79.809,12.571 79.823,12.537 79.862,12.582 79.893,12.572 80.077,12.569 80.262,12.572 80.447,12.571 80.517,12.490 80.587,12.403 80.658,12.325 80.728,12.378 80.819,12.345 80.899,12.354 81.482,12.354 81.482,12.354 81.482,12.354 81.551,12.303 81.598,12.224 81.675,12.185 82.002,12.125 82.328,12.064 82.654,12.003 82.749,11.806 82.843,11.609 82.938,11.412 87.113,11.412 87.113,11.412 87.113,11.412 87.113,8.796 87.113,8.796 87.113,8.796 82.940,8.796 82.940,8.796 82.940,8.796 82.845,8.596 82.750,8.395 82.656,8.195 82.326,8.126 81.997,8.057 81.667,7.988 81.610,7.920 81.552,7.852 81.494,7.784 81.274,7.784 81.055,7.784 80.835,7.783 80.837,6.236 80.835,4.688 80.836,3.141 80.705,2.994 80.575,2.848 80.444,2.702 80.241,2.703 80.037,2.699 79.835,2.704 79.811,2.724 79.793,2.718 79.765,2.706 79.744,2.700 79.722,2.699 79.701,2.699 Z M 59.844,3.079 C 60.128,3.079 60.128,3.079 60.128,3.079 60.128,5.932 60.128,5.932 60.128,5.932 60.955,5.932 60.955,5.932 60.955,5.932 60.955,4.981 60.954,4.030 60.954,3.079 61.766,3.079 61.766,3.079 61.766,3.079 61.766,3.871 61.766,3.871 61.766,3.871 61.766,4.054 61.766,4.054 61.766,4.054 61.950,4.054 61.950,4.054 61.950,4.054 78.675,4.054 78.675,4.054 78.675,4.054 78.675,3.871 78.675,3.871 78.675,3.871 78.675,3.079 78.675,3.079 78.675,3.079 79.609,3.079 79.609,3.079 79.609,3.079 79.645,3.131 79.681,3.184 79.717,3.237 79.717,11.971 79.717,11.971 79.717,11.971 79.676,12.046 79.636,12.120 79.595,12.195 79.004,12.195 79.004,12.195 79.004,12.195 78.998,12.059 78.989,11.923 78.985,11.787 78.981,10.972 78.983,10.157 78.982,9.342 78.982,9.115 78.984,8.889 78.978,8.663 78.970,8.528 78.936,8.388 78.853,8.279 78.764,8.164 78.631,8.091 78.493,8.052 78.259,7.988 78.015,7.977 77.774,7.974 73.011,7.974 68.248,7.973 63.486,7.973 63.197,7.975 62.909,7.968 62.620,7.980 62.417,7.989 62.212,8.007 62.019,8.076 61.889,8.124 61.768,8.209 61.698,8.331 61.625,8.457 61.604,8.606 61.605,8.749 61.602,9.898 61.604,11.046 61.604,12.195 61.284,12.195 61.284,12.195 61.284,12.195 61.253,12.156 61.221,12.117 61.190,12.078 61.190,7.122 61.190,7.122 61.190,7.122 59.914,7.122 59.914,7.122 59.914,7.122 59.914,8.781 59.914,10.439 59.913,12.098 59.912,12.136 59.895,12.182 59.855,12.192 59.820,12.198 59.784,12.193 59.748,12.195 59.687,12.194 59.626,12.196 59.566,12.195 59.508,12.191 59.450,12.172 59.404,12.136 59.358,12.103 59.314,12.061 59.297,12.007 59.290,11.812 59.295,11.617 59.292,11.423 59.182,11.423 59.182,11.423 59.182,11.423 59.182,8.927 59.182,8.927 59.182,8.927 59.293,8.927 59.293,8.927 59.293,8.927 59.293,7.081 59.293,7.081 59.293,7.081 59.293,6.848 59.293,6.848 59.293,6.848 59.293,3.864 59.293,3.864 59.293,3.864 59.293,3.672 59.292,3.480 59.294,3.289 59.298,3.235 59.322,3.176 59.366,3.141 59.422,3.093 59.498,3.078 59.570,3.080 59.661,3.079 59.753,3.079 59.844,3.079 Z M 61.950,3.079 C 78.491,3.079 78.491,3.079 78.491,3.079 78.491,3.871 78.491,3.871 78.491,3.871 61.950,3.871 61.950,3.871 61.950,3.871 Z M 80.009,3.079 C 80.275,3.079 80.275,3.079 80.275,3.079 80.337,3.147 80.398,3.216 80.459,3.284 80.459,11.976 80.459,11.976 80.459,11.976 80.397,12.049 80.335,12.122 80.273,12.195 80.023,12.195 80.023,12.195 80.023,12.195 79.982,12.124 79.942,12.053 79.901,11.982 79.901,3.230 79.901,3.230 79.901,3.230 79.937,3.179 79.973,3.129 80.009,3.079 Z M 60.361,3.172 C 60.721,3.172 60.721,3.172 60.721,3.172 60.721,5.698 60.721,5.698 60.721,5.698 60.361,5.698 60.361,5.698 60.361,5.698 Z M 32.284,3.382 C 32.616,3.382 32.616,3.382 32.616,3.382 32.616,6.279 32.616,6.279 32.616,6.279 32.284,6.279 32.284,6.279 32.284,6.279 Z M 32.834,3.382 C 35.398,3.382 35.398,3.382 35.398,3.382 35.398,6.279 35.398,6.279 35.398,6.279 32.834,6.279 32.834,6.279 32.834,6.279 Z M 35.615,3.382 C 35.660,3.382 35.660,3.382 35.660,3.382 35.668,3.396 35.670,3.411 35.669,3.426 35.669,6.254 35.669,6.254 35.669,6.254 35.662,6.262 35.664,6.282 35.650,6.279 35.615,6.279 35.615,6.279 35.615,6.279 Z M 37.667,3.669 C 43.215,3.669 43.215,3.669 43.215,3.669 43.215,4.681 43.215,4.681 43.215,4.681 41.464,4.681 39.712,4.681 37.960,4.681 37.862,4.680 37.763,4.687 37.667,4.705 Z M 43.433,3.792 C 43.511,3.856 43.589,3.919 43.668,3.982 43.668,4.681 43.668,4.681 43.668,4.681 43.589,4.681 43.511,4.680 43.433,4.681 Z M 37.449,3.820 C 37.449,4.771 37.449,4.771 37.449,4.771 37.402,4.793 37.357,4.820 37.316,4.852 37.316,3.988 37.316,3.988 37.316,3.988 37.361,3.932 37.405,3.876 37.449,3.820 Z M 58.130,3.864 C 59.059,3.864 59.059,3.864 59.059,3.864 59.059,6.848 59.059,6.848 59.059,6.848 57.644,6.848 57.644,6.848 57.644,6.848 57.534,6.695 57.423,6.542 57.312,6.389 57.310,6.323 57.292,6.260 57.266,6.200 50.391,6.200 50.391,6.200 50.391,6.200 50.391,4.754 50.391,4.754 50.391,4.754 50.422,4.718 50.452,4.681 50.474,4.639 57.260,4.639 57.260,4.639 57.260,4.639 57.550,4.380 57.840,4.122 58.130,3.864 Z M 35.886,3.888 C 35.907,3.934 35.928,3.980 35.948,4.026 35.953,4.042 35.972,4.038 35.985,4.038 35.997,4.034 35.991,4.047 35.992,4.055 35.992,5.599 35.992,5.599 35.992,5.599 35.952,5.599 35.952,5.599 35.952,5.599 35.930,5.649 35.908,5.700 35.886,5.750 Z M 36.210,4.038 C 37.098,4.038 37.098,4.038 37.098,4.038 37.098,5.139 37.098,5.139 37.098,5.139 37.034,5.284 37.005,5.442 37.001,5.599 36.210,5.599 36.210,5.599 36.210,5.599 Z M 43.885,4.038 C 44.125,4.038 44.125,4.038 44.125,4.038 44.125,4.681 44.125,4.681 44.125,4.681 43.885,4.681 43.885,4.681 43.885,4.681 Z M 44.343,4.038 C 47.957,4.038 47.957,4.038 47.957,4.038 47.957,4.680 47.957,4.680 47.957,4.680 46.752,4.680 45.547,4.680 44.343,4.681 Z M 48.175,4.038 C 48.414,4.038 48.414,4.038 48.414,4.038 48.414,4.680 48.414,4.680 48.414,4.680 48.175,4.680 48.175,4.680 48.175,4.680 Z M 48.632,4.038 C 48.658,4.038 48.658,4.038 48.658,4.038 48.656,4.050 48.668,4.061 48.680,4.055 48.691,4.055 48.708,4.051 48.703,4.068 48.703,4.630 48.703,4.630 48.703,4.630 48.632,4.668 48.632,4.668 48.632,4.668 Z M 49.897,4.181 C 49.900,4.181 49.903,4.181 49.907,4.181 49.957,4.181 50.007,4.204 50.038,4.244 50.082,4.299 50.086,4.382 50.045,4.440 50.007,4.501 49.927,4.527 49.859,4.506 49.789,4.487 49.742,4.417 49.742,4.346 49.739,4.261 49.813,4.185 49.897,4.181 Z M 62.143,4.206 C 62.136,4.206 62.129,4.207 62.122,4.207 62.041,4.212 61.963,4.239 61.895,4.283 61.789,4.352 61.710,4.457 61.663,4.574 61.605,4.713 61.579,4.864 61.573,5.015 61.566,5.467 61.569,5.920 61.569,6.373 61.571,6.610 61.561,6.847 61.577,7.083 61.592,7.260 61.635,7.438 61.733,7.588 61.817,7.714 61.956,7.807 62.109,7.821 63.572,7.824 65.036,7.823 66.500,7.823 70.357,7.823 74.214,7.824 78.071,7.823 78.204,7.818 78.339,7.837 78.470,7.804 78.614,7.762 78.729,7.651 78.797,7.519 78.875,7.366 78.908,7.194 78.917,7.024 78.924,6.577 78.922,6.130 78.922,5.683 78.918,5.431 78.931,5.179 78.911,4.927 78.895,4.753 78.849,4.577 78.749,4.431 78.660,4.303 78.513,4.212 78.356,4.207 72.951,4.206 67.547,4.206 62.143,4.206 Z M 62.147,4.440 C 64.253,4.440 64.253,4.440 64.253,4.440 64.253,7.590 64.253,7.590 64.253,7.590 63.548,7.590 62.843,7.590 62.138,7.589 62.048,7.585 61.971,7.525 61.924,7.452 61.852,7.343 61.825,7.212 61.811,7.084 61.797,6.943 61.804,6.799 61.802,6.657 61.802,6.135 61.801,5.612 61.802,5.090 61.806,4.946 61.822,4.798 61.878,4.663 61.913,4.579 61.970,4.498 62.056,4.460 62.085,4.447 62.116,4.440 62.147,4.440 Z M 64.694,4.440 C 78.343,4.440 78.343,4.440 78.343,4.440 78.431,4.440 78.510,4.496 78.559,4.567 78.631,4.669 78.660,4.795 78.676,4.917 78.694,5.066 78.686,5.217 78.688,5.367 78.688,5.891 78.689,6.414 78.687,6.937 78.685,7.073 78.671,7.211 78.623,7.340 78.590,7.429 78.535,7.516 78.449,7.562 78.406,7.586 78.357,7.592 78.308,7.590 64.694,7.590 64.694,7.590 64.694,7.590 Z M 49.377,4.715 C 49.377,6.200 49.377,6.200 49.377,6.200 37.894,6.200 37.894,6.200 37.894,6.200 37.894,6.189 37.895,6.173 37.886,6.167 37.396,6.167 37.396,6.167 37.396,6.167 37.397,5.984 37.395,5.802 37.397,5.620 37.400,5.508 37.411,5.393 37.460,5.291 37.494,5.217 37.553,5.154 37.628,5.122 37.692,5.093 37.761,5.082 37.830,5.078 37.937,5.077 38.045,5.078 38.153,5.078 48.709,5.076 48.709,5.076 48.709,5.076 48.932,4.956 49.154,4.836 49.377,4.715 Z M 51.187,4.786 C 50.936,4.786 50.733,4.988 50.733,5.239 50.733,5.590 50.733,5.590 50.733,5.590 50.733,5.841 50.936,6.043 51.187,6.043 56.185,6.043 56.185,6.043 56.185,6.043 56.437,6.043 56.639,5.841 56.639,5.590 56.639,5.239 56.639,5.239 56.639,5.239 56.639,4.988 56.437,4.786 56.185,4.786 Z M 65.597,4.798 C 65.549,4.807 65.500,4.841 65.494,4.893 65.492,4.969 65.495,5.046 65.494,5.122 65.493,5.155 65.504,5.188 65.531,5.209 65.557,5.231 65.594,5.238 65.628,5.235 66.529,5.235 67.431,5.235 68.333,5.235 68.384,5.231 68.433,5.186 68.432,5.132 68.433,5.061 68.432,4.989 68.432,4.918 68.433,4.889 68.428,4.857 68.407,4.836 68.387,4.813 68.357,4.800 68.327,4.798 68.322,4.798 68.318,4.798 68.314,4.798 Z M 68.931,4.798 C 68.884,4.807 68.835,4.841 68.829,4.893 68.827,4.968 68.829,5.044 68.828,5.120 68.827,5.152 68.837,5.185 68.863,5.206 68.889,5.230 68.926,5.238 68.961,5.235 69.863,5.235 70.765,5.235 71.667,5.235 71.719,5.231 71.768,5.186 71.766,5.132 71.768,5.061 71.766,4.990 71.767,4.918 71.768,4.889 71.762,4.857 71.741,4.835 71.718,4.811 71.685,4.796 71.652,4.798 Z M 72.266,4.798 C 72.218,4.807 72.169,4.841 72.163,4.893 72.161,4.969 72.163,5.046 72.162,5.122 72.162,5.155 72.173,5.188 72.200,5.209 72.226,5.231 72.263,5.238 72.297,5.235 73.199,5.235 74.100,5.235 75.002,5.235 75.053,5.231 75.102,5.186 75.101,5.132 75.102,5.061 75.101,4.989 75.102,4.918 75.102,4.889 75.097,4.857 75.076,4.836 75.056,4.813 75.026,4.800 74.995,4.798 74.991,4.798 74.987,4.798 74.983,4.798 Z M 75.600,4.798 C 75.552,4.807 75.504,4.841 75.498,4.893 75.496,4.968 75.498,5.044 75.497,5.120 75.496,5.152 75.506,5.185 75.531,5.206 75.558,5.230 75.595,5.238 75.630,5.235 76.532,5.235 77.434,5.235 78.336,5.235 78.388,5.231 78.437,5.186 78.435,5.132 78.437,5.061 78.435,4.990 78.436,4.918 78.437,4.889 78.431,4.857 78.410,4.835 78.387,4.811 78.354,4.796 78.321,4.798 Z M 49.611,4.902 C 49.614,4.904 49.618,4.906 49.622,4.908 49.759,4.979 49.924,5.002 50.072,4.957 50.101,4.948 50.130,4.938 50.157,4.925 50.157,6.200 50.157,6.200 50.157,6.200 49.611,6.200 49.611,6.200 49.611,6.200 Z M 56.112,4.958 C 56.127,4.958 56.141,4.958 56.156,4.958 56.170,4.958 56.185,4.959 56.200,4.959 56.311,4.961 56.415,5.041 56.451,5.146 56.468,5.209 56.466,5.276 56.466,5.341 56.464,5.431 56.469,5.521 56.464,5.611 56.459,5.734 56.359,5.843 56.239,5.865 56.195,5.872 56.151,5.868 56.106,5.869 54.600,5.870 53.094,5.870 51.588,5.871 51.460,5.870 51.332,5.871 51.204,5.870 51.161,5.870 51.117,5.866 51.078,5.848 51.000,5.815 50.935,5.745 50.916,5.661 50.902,5.574 50.907,5.485 50.906,5.397 50.909,5.330 50.901,5.263 50.910,5.197 50.925,5.073 51.035,4.971 51.158,4.960 52.810,4.959 54.461,4.959 56.112,4.958 Z M 71.584,4.980 C 71.584,4.983 71.584,4.986 71.584,4.988 71.584,5.009 71.584,5.031 71.584,5.052 70.727,5.052 69.869,5.052 69.011,5.052 69.011,5.029 69.011,5.005 69.011,4.981 Z M 68.249,4.981 C 68.249,4.983 68.249,4.986 68.249,4.988 68.249,5.010 68.249,5.031 68.249,5.052 67.392,5.052 66.534,5.052 65.676,5.052 65.676,5.029 65.676,5.005 65.676,4.981 66.534,4.981 67.392,4.981 68.249,4.981 Z M 74.918,4.981 C 74.918,4.983 74.918,4.986 74.918,4.988 74.918,5.010 74.918,5.031 74.918,5.052 74.061,5.052 73.203,5.052 72.345,5.052 72.345,5.029 72.345,5.005 72.345,4.981 73.203,4.981 74.061,4.981 74.918,4.981 Z M 78.253,4.981 C 78.253,4.983 78.253,4.986 78.253,4.988 78.253,5.010 78.253,5.031 78.253,5.052 77.395,5.052 76.538,5.052 75.680,5.052 75.680,5.029 75.680,5.005 75.680,4.981 76.538,4.981 77.395,4.981 78.253,4.981 Z M 58.216,5.121 C 58.189,5.121 58.162,5.121 58.135,5.122 58.076,5.123 58.017,5.120 57.958,5.122 57.791,5.134 57.641,5.272 57.620,5.438 57.613,5.772 57.617,6.105 57.616,6.439 57.605,6.610 57.731,6.780 57.899,6.818 58.052,6.837 58.206,6.824 58.360,6.828 58.530,6.823 58.688,6.686 58.711,6.516 58.720,6.172 58.714,5.829 58.717,5.485 58.714,5.334 58.610,5.189 58.465,5.142 58.411,5.124 58.353,5.126 58.296,5.122 58.269,5.122 58.243,5.121 58.216,5.121 Z M 58.265,5.355 C 58.300,5.356 58.336,5.353 58.371,5.358 58.431,5.368 58.480,5.423 58.482,5.484 58.483,5.546 58.482,5.609 58.482,5.671 58.482,5.938 58.483,6.205 58.482,6.472 58.476,6.540 58.413,6.598 58.344,6.594 58.239,6.595 58.133,6.594 58.028,6.594 57.992,6.593 57.954,6.598 57.922,6.579 57.876,6.554 57.845,6.502 57.850,6.449 57.849,6.256 57.850,6.064 57.849,5.872 57.850,5.740 57.849,5.609 57.850,5.477 57.856,5.411 57.916,5.356 57.982,5.356 58.076,5.355 58.171,5.355 58.265,5.355 Z M 65.597,5.489 C 65.549,5.497 65.500,5.532 65.494,5.583 65.492,5.660 65.495,5.736 65.494,5.813 65.493,5.845 65.504,5.879 65.531,5.899 65.557,5.922 65.594,5.929 65.628,5.926 66.529,5.926 67.431,5.926 68.333,5.926 68.384,5.921 68.433,5.877 68.432,5.823 68.433,5.751 68.432,5.680 68.432,5.608 68.433,5.579 68.428,5.548 68.407,5.526 68.387,5.504 68.357,5.490 68.327,5.489 68.322,5.489 68.318,5.488 68.314,5.489 Z M 68.931,5.489 C 68.884,5.497 68.835,5.532 68.829,5.583 68.827,5.659 68.829,5.735 68.828,5.810 68.827,5.842 68.837,5.876 68.863,5.897 68.889,5.921 68.926,5.929 68.961,5.926 69.863,5.926 70.765,5.926 71.667,5.926 71.719,5.921 71.768,5.877 71.766,5.823 71.768,5.751 71.766,5.680 71.767,5.609 71.768,5.579 71.762,5.548 71.741,5.526 71.718,5.502 71.685,5.487 71.652,5.489 Z M 72.266,5.489 C 72.218,5.497 72.169,5.532 72.163,5.583 72.161,5.660 72.163,5.736 72.162,5.813 72.162,5.845 72.173,5.879 72.200,5.899 72.226,5.922 72.263,5.929 72.297,5.926 73.199,5.926 74.100,5.926 75.002,5.926 75.053,5.921 75.102,5.877 75.101,5.823 75.102,5.751 75.101,5.680 75.102,5.608 75.102,5.579 75.097,5.548 75.076,5.526 75.056,5.504 75.026,5.490 74.995,5.489 74.991,5.489 74.987,5.488 74.983,5.489 Z M 75.600,5.489 C 75.552,5.497 75.504,5.532 75.498,5.583 75.496,5.659 75.498,5.735 75.497,5.810 75.496,5.842 75.506,5.876 75.531,5.897 75.558,5.921 75.595,5.929 75.630,5.926 76.532,5.926 77.434,5.926 78.336,5.926 78.388,5.921 78.437,5.877 78.435,5.823 78.437,5.751 78.435,5.680 78.436,5.609 78.437,5.579 78.431,5.548 78.410,5.526 78.387,5.502 78.354,5.487 78.321,5.489 Z M 71.584,5.671 C 71.584,5.674 71.584,5.676 71.584,5.679 71.584,5.700 71.584,5.721 71.584,5.743 70.727,5.743 69.869,5.743 69.011,5.743 69.011,5.720 69.011,5.696 69.011,5.672 69.869,5.672 70.726,5.672 71.584,5.671 Z M 68.249,5.672 C 68.249,5.674 68.249,5.677 68.249,5.679 68.249,5.700 68.249,5.721 68.249,5.742 65.676,5.743 65.676,5.743 65.676,5.743 65.676,5.719 65.676,5.696 65.676,5.672 66.534,5.672 67.392,5.672 68.249,5.672 Z M 74.918,5.672 C 74.918,5.674 74.918,5.677 74.918,5.679 74.918,5.700 74.918,5.721 74.918,5.742 72.345,5.743 72.345,5.743 72.345,5.743 72.345,5.719 72.345,5.696 72.345,5.672 73.203,5.672 74.061,5.672 74.918,5.672 Z M 78.253,5.672 C 78.253,5.674 78.253,5.677 78.253,5.679 78.253,5.700 78.253,5.722 78.253,5.743 77.395,5.743 76.538,5.743 75.680,5.743 75.680,5.719 75.680,5.696 75.680,5.672 Z M 36.179,5.945 C 37.019,5.945 37.019,5.945 37.019,5.945 37.019,5.987 37.034,6.043 36.972,6.024 36.331,6.024 36.331,6.024 36.331,6.024 36.331,6.449 36.331,6.449 36.331,6.449 36.196,6.477 36.060,6.506 35.925,6.534 36.010,6.337 36.094,6.141 36.179,5.945 Z M 65.597,6.180 C 65.549,6.188 65.500,6.223 65.494,6.274 65.492,6.350 65.495,6.427 65.494,6.503 65.493,6.536 65.504,6.570 65.531,6.590 65.557,6.613 65.594,6.619 65.628,6.616 66.529,6.616 67.431,6.617 68.333,6.616 68.384,6.612 68.433,6.567 68.432,6.513 68.433,6.442 68.432,6.370 68.432,6.299 68.433,6.270 68.428,6.239 68.407,6.217 68.387,6.195 68.357,6.181 68.327,6.180 68.322,6.179 68.318,6.179 68.314,6.180 Z M 68.931,6.180 C 68.884,6.188 68.835,6.223 68.829,6.274 68.827,6.350 68.829,6.425 68.828,6.501 68.827,6.533 68.837,6.567 68.863,6.588 68.889,6.612 68.926,6.620 68.961,6.616 69.863,6.616 70.765,6.617 71.667,6.616 71.719,6.612 71.768,6.567 71.766,6.513 71.768,6.442 71.766,6.371 71.767,6.299 71.768,6.270 71.762,6.239 71.741,6.217 71.718,6.192 71.685,6.178 71.652,6.180 Z M 72.266,6.180 C 72.218,6.188 72.169,6.223 72.163,6.274 72.161,6.350 72.163,6.427 72.162,6.503 72.162,6.536 72.173,6.570 72.200,6.590 72.226,6.613 72.263,6.619 72.297,6.616 73.199,6.616 74.100,6.617 75.002,6.616 75.053,6.612 75.102,6.567 75.101,6.513 75.102,6.442 75.101,6.370 75.102,6.299 75.102,6.270 75.097,6.239 75.076,6.217 75.056,6.195 75.026,6.181 74.995,6.180 74.991,6.179 74.987,6.179 74.983,6.180 Z M 75.600,6.180 C 75.552,6.188 75.504,6.223 75.498,6.274 75.496,6.350 75.498,6.425 75.497,6.501 75.496,6.533 75.506,6.567 75.531,6.588 75.558,6.612 75.595,6.620 75.630,6.616 76.532,6.616 77.434,6.617 78.336,6.616 78.388,6.612 78.437,6.567 78.435,6.513 78.437,6.442 78.435,6.371 78.436,6.299 78.437,6.270 78.431,6.239 78.410,6.217 78.387,6.192 78.354,6.178 78.321,6.180 Z M 71.584,6.362 C 71.584,6.364 71.584,6.367 71.584,6.369 71.584,6.391 71.584,6.412 71.584,6.433 70.726,6.433 69.869,6.433 69.011,6.434 69.011,6.410 69.011,6.387 69.011,6.363 69.869,6.363 70.726,6.362 71.584,6.362 Z M 68.249,6.362 C 68.249,6.365 68.249,6.367 68.249,6.370 68.249,6.391 68.249,6.412 68.249,6.433 65.676,6.434 65.676,6.434 65.676,6.434 65.676,6.410 65.676,6.387 65.676,6.363 66.534,6.363 67.392,6.363 68.249,6.362 Z M 74.918,6.362 C 74.918,6.365 74.918,6.367 74.918,6.370 74.918,6.391 74.918,6.412 74.918,6.433 72.345,6.434 72.345,6.434 72.345,6.434 72.345,6.410 72.345,6.387 72.345,6.363 73.203,6.363 74.061,6.363 74.918,6.362 Z M 78.253,6.362 C 78.253,6.365 78.253,6.367 78.253,6.370 78.253,6.391 78.253,6.412 78.253,6.433 77.395,6.433 76.538,6.433 75.680,6.434 75.680,6.410 75.680,6.387 75.680,6.363 76.538,6.363 77.395,6.363 78.253,6.362 Z M 36.678,6.370 C 37.690,6.370 37.690,6.370 37.690,6.370 37.690,7.644 37.690,7.644 37.690,7.644 36.678,7.644 36.678,7.644 36.678,7.644 Z M 37.894,6.433 C 56.990,6.433 56.990,6.433 56.990,6.433 56.990,7.644 56.990,7.644 56.990,7.644 47.190,7.644 47.190,7.644 47.190,7.644 47.190,6.747 47.190,6.747 47.190,6.747 38.983,6.747 38.983,6.747 38.983,6.747 38.983,7.644 38.983,7.644 38.983,7.644 37.894,7.644 37.894,7.644 37.894,7.644 Z M 57.224,6.664 C 57.322,6.800 57.421,6.937 57.519,7.073 57.531,7.088 57.553,7.079 57.569,7.081 59.059,7.081 59.059,7.081 59.059,7.081 59.059,8.693 59.059,8.693 59.059,8.693 58.756,8.693 58.756,8.693 58.756,8.693 58.723,8.721 58.689,8.750 58.655,8.778 57.927,8.778 57.927,8.778 57.927,8.778 57.927,8.384 57.927,8.384 57.927,8.384 57.779,8.265 57.632,8.146 57.485,8.027 57.224,8.027 57.224,8.027 57.224,8.027 Z M 36.474,6.791 C 36.474,12.027 36.474,12.027 36.474,12.027 36.432,12.027 36.432,12.027 36.432,12.027 36.432,10.562 36.432,10.562 36.432,10.562 32.791,10.562 32.791,10.562 32.791,10.562 32.651,11.108 32.511,11.654 32.371,12.200 31.346,12.200 31.346,12.200 31.346,12.200 31.346,10.427 31.346,10.427 31.346,10.427 20.078,10.427 20.078,10.427 20.078,10.427 20.078,14.465 20.078,14.465 20.078,14.465 19.173,14.465 19.173,14.465 19.173,14.465 19.173,7.766 19.173,7.766 19.173,7.766 20.296,7.766 20.296,7.766 20.296,7.766 20.296,7.672 20.296,7.672 20.296,7.672 20.922,7.672 20.922,7.672 20.922,7.672 20.922,7.766 20.922,7.766 20.922,7.766 21.273,7.766 21.273,7.766 21.273,7.766 21.273,7.672 21.273,7.672 21.273,7.672 21.900,7.672 21.900,7.672 21.900,7.672 21.900,7.766 21.900,7.766 21.900,7.766 22.250,7.766 22.250,7.766 22.250,7.766 22.250,7.672 22.250,7.672 22.250,7.672 22.877,7.672 22.877,7.672 22.877,7.672 22.877,7.766 22.877,7.766 22.877,7.766 23.227,7.766 23.227,7.766 23.227,7.766 23.227,7.672 23.227,7.672 23.227,7.672 23.854,7.672 23.854,7.672 23.854,7.672 23.854,7.766 23.854,7.766 23.854,7.766 26.331,7.766 28.807,7.766 31.284,7.766 31.436,7.759 31.585,7.735 31.735,7.713 32.128,7.653 32.520,7.581 32.911,7.508 33.956,7.311 34.998,7.098 36.039,6.882 36.184,6.852 36.329,6.821 36.474,6.791 Z M 51.862,6.795 C 51.730,6.795 51.624,6.919 51.624,7.072 51.624,7.266 51.624,7.266 51.624,7.266 51.624,7.419 51.730,7.542 51.862,7.542 55.943,7.542 55.943,7.542 55.943,7.542 56.075,7.542 56.181,7.419 56.181,7.266 56.181,7.072 56.181,7.072 56.181,7.072 56.181,6.919 56.075,6.795 55.943,6.795 Z M 65.597,6.870 C 65.549,6.879 65.500,6.914 65.494,6.965 65.492,7.041 65.495,7.117 65.494,7.194 65.493,7.226 65.504,7.260 65.531,7.281 65.557,7.304 65.594,7.310 65.628,7.307 66.529,7.307 67.431,7.307 68.333,7.307 68.384,7.303 68.433,7.258 68.432,7.204 68.433,7.133 68.432,7.061 68.432,6.990 68.433,6.961 68.428,6.929 68.407,6.908 68.387,6.885 68.357,6.872 68.327,6.870 68.322,6.870 68.318,6.870 68.314,6.870 Z M 68.931,6.870 C 68.884,6.879 68.835,6.913 68.829,6.964 68.827,7.040 68.829,7.116 68.828,7.191 68.827,7.223 68.837,7.257 68.863,7.278 68.889,7.302 68.926,7.310 68.961,7.307 69.863,7.307 70.765,7.307 71.667,7.307 71.719,7.303 71.768,7.258 71.766,7.204 71.768,7.133 71.766,7.061 71.767,6.990 71.768,6.960 71.762,6.929 71.741,6.907 71.718,6.883 71.685,6.869 71.652,6.870 Z M 72.266,6.870 C 72.218,6.879 72.169,6.914 72.163,6.965 72.161,7.041 72.163,7.117 72.162,7.194 72.162,7.226 72.173,7.260 72.200,7.281 72.226,7.304 72.263,7.310 72.297,7.307 73.199,7.307 74.100,7.307 75.002,7.307 75.053,7.303 75.102,7.258 75.101,7.204 75.102,7.133 75.101,7.061 75.102,6.990 75.102,6.961 75.097,6.929 75.076,6.908 75.056,6.885 75.026,6.872 74.995,6.870 74.991,6.870 74.987,6.870 74.983,6.870 Z M 75.600,6.870 C 75.552,6.879 75.504,6.913 75.498,6.964 75.496,7.040 75.498,7.116 75.497,7.191 75.496,7.223 75.506,7.257 75.531,7.278 75.558,7.302 75.595,7.310 75.630,7.307 76.532,7.307 77.434,7.307 78.336,7.307 78.388,7.303 78.437,7.258 78.435,7.204 78.437,7.133 78.435,7.061 78.436,6.990 78.437,6.960 78.431,6.929 78.410,6.907 78.387,6.883 78.354,6.869 78.321,6.870 Z M 55.935,6.969 C 55.937,6.968 55.939,6.968 55.940,6.969 55.942,6.969 55.944,6.969 55.946,6.969 55.983,6.977 56.002,7.017 56.006,7.051 56.009,7.124 56.010,7.196 56.007,7.269 56.009,7.310 55.988,7.358 55.945,7.369 55.412,7.369 55.412,7.369 55.412,7.369 54.265,7.369 53.118,7.370 51.971,7.369 51.932,7.366 51.893,7.372 51.854,7.366 51.819,7.357 51.804,7.318 51.799,7.285 51.797,7.213 51.796,7.141 51.799,7.070 51.797,7.028 51.817,6.980 51.860,6.969 53.219,6.969 54.577,6.969 55.935,6.969 Z M 39.217,6.981 C 46.957,6.981 46.957,6.981 46.957,6.981 46.957,7.644 46.957,7.644 46.957,7.644 39.217,7.644 39.217,7.644 39.217,7.644 Z M 71.584,7.053 C 71.584,7.055 71.584,7.058 71.584,7.060 71.584,7.081 71.584,7.102 71.584,7.124 70.727,7.124 69.869,7.124 69.011,7.125 69.011,7.101 69.011,7.077 69.011,7.054 69.869,7.053 70.726,7.053 71.584,7.053 Z M 65.676,7.053 C 66.534,7.053 67.392,7.053 68.249,7.053 68.249,7.056 68.249,7.058 68.249,7.061 68.249,7.082 68.249,7.103 68.249,7.124 65.676,7.125 65.676,7.125 65.676,7.125 65.676,7.101 65.676,7.077 65.676,7.053 Z M 72.345,7.053 C 73.203,7.053 74.061,7.053 74.918,7.053 74.918,7.056 74.918,7.058 74.918,7.061 74.918,7.082 74.918,7.103 74.918,7.124 72.345,7.125 72.345,7.125 72.345,7.125 72.345,7.101 72.345,7.077 72.345,7.053 Z M 78.253,7.053 C 78.253,7.056 78.253,7.058 78.253,7.061 78.253,7.082 78.253,7.103 78.253,7.124 77.395,7.124 76.538,7.124 75.680,7.125 75.680,7.101 75.680,7.077 75.680,7.054 Z M 60.147,7.356 C 60.956,7.356 60.956,7.356 60.956,7.356 60.956,11.960 60.956,11.960 60.956,11.960 60.147,11.960 60.147,11.960 60.147,11.960 Z M 20.306,7.682 C 20.306,7.692 20.306,7.692 20.306,7.692 20.306,8.699 20.306,8.699 20.306,8.699 20.912,8.699 20.912,8.699 20.912,8.699 20.912,7.682 20.912,7.682 20.912,7.682 Z M 21.283,7.682 C 21.283,7.692 21.283,7.692 21.283,7.692 21.283,8.699 21.283,8.699 21.283,8.699 21.889,8.699 21.889,8.699 21.889,8.699 21.889,7.682 21.889,7.682 21.889,7.682 Z M 22.260,7.682 C 22.260,7.692 22.260,7.692 22.260,7.692 22.260,8.699 22.260,8.699 22.260,8.699 22.867,8.699 22.867,8.699 22.867,8.699 22.867,7.682 22.867,7.682 22.867,7.682 Z M 23.237,7.682 C 23.237,7.692 23.237,7.692 23.237,7.692 23.237,8.699 23.237,8.699 23.237,8.699 23.844,8.699 23.844,8.699 23.844,8.699 23.844,7.682 23.844,7.682 23.844,7.682 Z M 16.769,7.810 C 18.352,7.810 18.352,7.810 18.352,7.810 18.352,14.377 18.352,14.377 18.352,14.377 15.296,14.377 15.296,14.377 15.296,14.377 15.787,12.188 16.278,9.999 16.769,7.810 Z M 20.438,7.814 C 20.780,7.814 20.780,7.814 20.780,7.814 20.780,8.567 20.780,8.567 20.780,8.567 20.438,8.567 20.438,8.567 20.438,8.567 Z M 21.415,7.814 C 21.757,7.814 21.757,7.814 21.757,7.814 21.757,8.567 21.757,8.567 21.757,8.567 21.415,8.567 21.415,8.567 21.415,8.567 Z M 22.392,7.814 C 22.734,7.814 22.734,7.814 22.734,7.814 22.734,8.567 22.734,8.567 22.734,8.567 22.392,8.567 22.392,8.567 22.392,8.567 Z M 23.369,7.814 C 23.712,7.814 23.712,7.814 23.712,7.814 23.712,8.567 23.712,8.567 23.712,8.567 23.369,8.567 23.369,8.567 23.369,8.567 Z M 36.678,7.877 C 37.690,7.877 37.690,7.877 37.690,7.877 37.690,12.027 37.690,12.027 37.690,12.027 36.678,12.027 36.678,12.027 36.678,12.027 Z M 37.894,7.877 C 38.067,7.877 38.067,7.877 38.067,7.877 38.983,7.877 38.983,7.877 38.983,7.877 38.983,8.664 38.983,8.664 38.983,8.664 46.392,8.664 46.392,8.664 46.392,8.664 46.654,8.402 46.917,8.140 47.179,7.877 56.990,7.877 56.990,7.877 56.990,7.877 56.990,12.150 56.990,12.150 56.990,12.150 56.886,12.150 56.886,12.150 56.886,12.150 56.886,12.221 56.886,12.221 56.886,12.221 56.510,12.221 56.510,12.221 56.510,12.221 56.510,10.620 56.510,10.620 56.510,10.620 53.306,10.620 53.306,10.620 53.306,10.620 53.306,12.221 53.306,12.221 53.306,12.221 51.000,12.221 51.000,12.221 51.000,12.221 51.000,9.133 51.000,9.133 51.000,9.133 38.881,9.133 38.881,9.133 38.881,9.133 38.881,11.917 38.881,11.917 38.881,11.917 37.894,11.917 37.894,11.917 37.894,11.917 Z M 39.217,7.877 C 46.789,7.877 46.789,7.877 46.789,7.877 46.587,8.062 46.385,8.246 46.183,8.430 39.217,8.430 39.217,8.430 39.217,8.430 Z M 18.616,8.022 C 18.949,8.022 18.949,8.022 18.949,8.022 18.949,14.173 18.949,14.173 18.949,14.173 18.616,14.173 18.616,14.173 18.616,14.173 Z M 51.639,8.029 C 51.492,8.034 51.355,8.150 51.333,8.296 51.330,8.355 51.332,8.413 51.331,8.471 51.329,8.924 51.329,9.376 51.330,9.829 51.331,9.951 51.323,10.074 51.337,10.196 51.360,10.330 51.482,10.438 51.617,10.450 51.764,10.453 51.911,10.451 52.058,10.452 53.428,10.453 54.798,10.453 56.168,10.452 56.315,10.444 56.450,10.323 56.467,10.175 56.470,9.669 56.470,9.164 56.469,8.657 56.468,8.533 56.476,8.408 56.462,8.284 56.436,8.136 56.289,8.023 56.139,8.030 54.639,8.029 53.139,8.029 51.639,8.029 Z M 47.412,8.049 C 47.412,8.059 47.412,8.059 47.412,8.059 47.412,9.015 47.412,9.015 47.412,9.015 47.872,9.015 47.872,9.015 47.872,9.015 47.872,8.049 47.872,8.049 47.872,8.049 Z M 47.935,8.049 C 47.935,8.059 47.935,8.059 47.935,8.059 47.935,9.015 47.935,9.015 47.935,9.015 48.395,9.015 48.395,9.015 48.395,9.015 48.395,8.049 48.395,8.049 48.395,8.049 Z M 80.856,8.130 C 81.333,8.130 81.333,8.130 81.333,8.130 81.360,8.162 81.388,8.194 81.415,8.226 81.415,11.941 81.415,11.941 81.415,11.941 81.391,11.963 81.368,11.985 81.345,12.008 81.183,12.008 81.021,12.008 80.859,12.008 80.853,11.993 80.857,11.975 80.856,11.959 Z M 57.224,8.162 C 57.277,8.162 57.277,8.162 57.277,8.162 57.276,8.262 57.277,8.363 57.277,8.463 57.277,12.148 57.277,12.148 57.277,12.148 57.263,12.152 57.247,12.148 57.233,12.150 57.216,12.155 57.226,12.134 57.224,12.125 Z M 47.564,8.202 C 47.719,8.202 47.719,8.202 47.719,8.202 47.719,8.863 47.719,8.863 47.719,8.863 47.564,8.863 47.564,8.863 47.564,8.863 Z M 48.087,8.202 C 48.242,8.202 48.242,8.202 48.242,8.202 48.242,8.863 48.242,8.863 48.242,8.863 48.087,8.863 48.087,8.863 48.087,8.863 Z M 48.760,8.240 C 48.760,8.250 48.760,8.250 48.760,8.250 48.760,8.785 48.760,8.785 48.760,8.785 50.776,8.785 50.776,8.785 50.776,8.785 50.776,8.240 50.776,8.240 50.776,8.240 Z M 51.669,8.263 C 51.839,8.263 52.010,8.262 52.181,8.263 53.503,8.263 54.826,8.263 56.148,8.263 56.188,8.265 56.230,8.291 56.234,8.333 56.239,8.373 56.234,8.414 56.236,8.454 56.236,9.016 56.237,9.579 56.236,10.141 56.234,10.177 56.206,10.208 56.170,10.215 56.132,10.224 56.092,10.217 56.054,10.220 54.586,10.219 53.119,10.219 51.651,10.219 51.611,10.217 51.567,10.190 51.564,10.147 51.560,10.106 51.564,10.065 51.563,10.024 51.563,9.463 51.562,8.902 51.563,8.341 51.565,8.305 51.594,8.274 51.629,8.267 51.642,8.263 51.655,8.263 51.669,8.263 Z M 51.634,8.334 C 51.634,8.344 51.634,8.344 51.634,8.344 51.634,10.149 51.634,10.149 51.634,10.149 56.165,10.149 56.165,10.149 56.165,10.149 56.165,8.334 56.165,8.334 56.165,8.334 Z M 81.632,8.334 C 81.865,8.383 82.098,8.432 82.330,8.480 82.330,11.712 82.330,11.712 82.330,11.712 82.098,11.755 81.865,11.798 81.632,11.841 Z M 77.636,8.339 C 77.850,8.339 78.065,8.341 78.277,8.377 78.352,8.391 78.428,8.409 78.496,8.445 78.539,8.469 78.575,8.507 78.590,8.555 78.609,8.609 78.611,8.665 78.613,8.722 78.616,9.355 78.616,9.988 78.616,10.622 78.616,11.604 78.616,11.604 78.616,11.604 78.385,11.604 78.385,11.604 78.385,11.604 78.385,9.467 78.385,9.467 78.385,9.467 75.509,9.467 75.509,9.467 75.509,9.467 75.509,11.604 75.509,11.604 75.509,11.604 75.020,11.604 75.020,11.604 75.020,11.604 75.020,9.467 75.020,9.467 75.020,9.467 72.144,9.467 72.144,9.467 72.144,9.467 72.144,11.604 72.144,11.604 72.144,11.604 71.728,11.604 71.728,11.604 71.728,11.604 71.728,9.467 71.728,9.467 71.728,9.467 68.852,9.467 68.852,9.467 68.852,9.467 68.852,11.604 68.852,11.604 68.852,11.604 68.372,11.604 68.372,11.604 68.372,11.604 68.372,9.467 68.372,9.467 68.372,9.467 65.495,9.467 65.495,9.467 65.495,9.467 65.495,11.604 65.495,11.604 65.495,11.604 65.047,11.604 65.047,11.604 65.047,11.604 65.047,9.467 65.047,9.467 65.047,9.467 62.171,9.467 62.171,9.467 62.171,9.467 62.171,11.604 62.171,11.604 62.171,11.604 61.969,11.604 61.969,11.604 61.969,11.604 61.969,10.688 61.969,9.771 61.970,8.855 61.971,8.769 61.969,8.681 61.983,8.596 61.993,8.548 62.015,8.496 62.057,8.467 62.128,8.413 62.217,8.396 62.302,8.379 62.486,8.345 62.675,8.341 62.863,8.339 67.787,8.339 72.711,8.339 77.636,8.339 Z M 57.511,8.349 C 57.572,8.398 57.632,8.446 57.693,8.495 57.693,9.012 57.693,9.012 57.693,9.012 57.800,9.012 57.800,9.012 57.800,9.012 57.800,11.308 57.800,11.308 57.800,11.308 57.693,11.308 57.693,11.308 57.693,11.308 57.693,11.775 57.693,11.775 57.693,11.775 57.632,11.829 57.572,11.884 57.511,11.938 Z M 48.913,8.393 C 50.624,8.393 50.624,8.393 50.624,8.393 50.624,8.633 50.624,8.633 50.624,8.633 48.913,8.633 48.913,8.633 48.913,8.633 Z M 51.898,8.598 C 55.901,8.598 55.901,8.598 55.901,8.598 55.901,9.884 55.901,9.884 55.901,9.884 51.898,9.884 51.898,9.884 51.898,9.884 Z M 82.548,8.777 C 82.603,8.894 82.659,9.012 82.714,9.130 82.720,9.147 82.740,9.141 82.754,9.141 82.856,9.141 82.856,9.141 82.856,9.141 82.856,11.066 82.856,11.066 82.856,11.066 82.721,11.066 82.721,11.066 82.721,11.066 82.664,11.186 82.606,11.307 82.548,11.427 Z M 58.848,8.926 C 58.881,8.927 58.914,8.927 58.947,8.927 58.947,11.423 58.947,11.423 58.947,11.423 58.861,11.423 58.861,11.423 58.861,11.423 58.850,11.408 58.833,11.395 58.825,11.379 58.825,8.941 58.825,8.941 58.825,8.941 58.832,8.936 58.838,8.926 58.848,8.926 Z M 58.034,9.012 C 58.591,9.012 58.591,9.012 58.591,9.012 58.591,11.308 58.591,11.308 58.591,11.308 58.034,11.308 58.034,11.308 58.034,11.308 Z M 83.074,9.141 C 84.066,9.141 84.066,9.141 84.066,9.141 84.066,11.066 84.066,11.066 84.066,11.066 83.074,11.066 83.074,11.066 83.074,11.066 Z M 84.283,9.141 C 84.574,9.141 84.574,9.141 84.574,9.141 84.523,9.243 84.529,9.373 84.596,9.465 84.656,9.552 84.760,9.608 84.866,9.606 85.015,9.606 85.153,9.489 85.179,9.342 85.191,9.274 85.181,9.203 85.150,9.141 85.467,9.141 85.467,9.141 85.467,9.141 85.415,9.244 85.422,9.375 85.491,9.468 85.552,9.555 85.657,9.610 85.765,9.606 85.919,9.603 86.061,9.473 86.075,9.319 86.082,9.258 86.070,9.196 86.043,9.141 86.370,9.141 86.370,9.141 86.370,9.141 86.370,11.066 86.370,11.066 86.370,11.066 85.990,11.066 85.990,11.066 85.990,11.066 86.065,10.986 86.098,10.866 86.065,10.760 86.031,10.645 85.931,10.551 85.812,10.531 85.702,10.511 85.581,10.552 85.510,10.639 85.440,10.722 85.413,10.840 85.447,10.944 85.462,10.989 85.486,11.031 85.519,11.066 85.378,11.066 85.238,11.066 85.097,11.066 85.173,10.985 85.205,10.864 85.171,10.758 85.135,10.638 85.027,10.541 84.901,10.528 84.789,10.514 84.670,10.562 84.605,10.655 84.538,10.744 84.519,10.868 84.564,10.970 84.578,11.006 84.600,11.038 84.626,11.066 84.283,11.066 84.283,11.066 84.283,11.066 Z M 86.588,9.141 C 86.767,9.141 86.767,9.141 86.767,9.141 86.767,11.066 86.767,11.066 86.767,11.066 86.588,11.066 86.588,11.066 86.588,11.066 Z M 84.862,9.165 C 84.925,9.164 84.982,9.221 84.980,9.284 84.981,9.343 84.933,9.398 84.873,9.402 84.817,9.408 84.760,9.369 84.747,9.314 84.732,9.260 84.761,9.198 84.812,9.176 84.828,9.169 84.845,9.165 84.862,9.165 Z M 85.755,9.165 C 85.818,9.164 85.875,9.220 85.874,9.283 85.875,9.342 85.826,9.398 85.766,9.402 85.711,9.408 85.653,9.370 85.640,9.315 85.625,9.261 85.653,9.198 85.705,9.176 85.721,9.169 85.738,9.165 85.755,9.165 Z M 30.900,9.199 C 30.886,9.198 30.873,9.199 30.859,9.199 27.436,9.199 24.013,9.199 20.589,9.199 20.474,9.202 20.354,9.242 20.275,9.329 20.228,9.379 20.203,9.449 20.207,9.517 20.205,9.569 20.213,9.623 20.242,9.668 20.294,9.756 20.392,9.809 20.490,9.831 20.576,9.850 20.664,9.841 20.751,9.843 24.138,9.843 27.526,9.843 30.914,9.843 31.031,9.841 31.153,9.800 31.234,9.711 31.278,9.661 31.303,9.594 31.299,9.527 31.301,9.475 31.294,9.421 31.266,9.376 31.214,9.288 31.118,9.234 31.021,9.212 30.981,9.203 30.940,9.199 30.900,9.199 Z M 42.048,9.367 C 47.572,9.367 47.572,9.367 47.572,9.367 47.572,9.438 47.572,9.438 47.572,9.438 50.767,9.438 50.767,9.438 50.767,9.438 50.767,10.229 50.767,11.021 50.767,11.812 47.572,11.812 47.572,11.812 47.572,11.812 47.572,11.942 47.572,11.942 47.572,11.942 46.192,11.942 46.192,11.942 46.192,11.942 46.192,11.926 46.172,11.912 46.159,11.924 46.138,11.926 46.117,11.924 46.097,11.925 42.104,11.925 42.104,11.925 42.104,11.925 42.040,11.827 41.976,11.730 41.911,11.632 40.016,11.632 40.016,11.632 40.016,11.632 39.988,11.690 39.960,11.748 39.932,11.806 39.115,11.806 39.115,11.806 39.115,11.806 39.115,11.653 39.115,11.653 39.115,11.653 39.836,11.653 39.836,11.653 39.836,11.653 39.865,11.595 39.893,11.538 39.922,11.480 40.204,11.480 40.204,11.480 40.204,11.480 40.204,11.434 40.204,11.434 40.204,11.434 40.437,11.434 40.437,11.434 40.437,11.434 40.437,11.480 40.437,11.480 40.437,11.480 40.859,11.480 40.859,11.480 40.859,11.480 40.859,11.434 40.859,11.434 40.859,11.434 41.092,11.434 41.092,11.434 41.092,11.434 41.092,11.480 41.092,11.480 41.092,11.480 41.514,11.480 41.514,11.480 41.514,11.480 41.514,11.434 41.514,11.434 41.514,11.434 41.747,11.434 41.747,11.434 41.747,11.434 41.747,11.480 41.747,11.480 41.747,11.480 41.993,11.480 41.993,11.480 41.993,11.480 42.058,11.578 42.122,11.675 42.186,11.773 46.077,11.773 46.077,11.773 46.077,11.773 46.166,11.648 46.255,11.522 46.344,11.397 46.344,11.790 46.344,11.790 46.344,11.790 47.419,11.790 47.419,11.790 47.419,11.790 47.419,11.514 47.419,11.514 47.419,11.514 47.565,11.514 47.565,11.514 47.565,11.514 47.565,11.659 47.565,11.659 47.565,11.659 50.113,11.659 50.113,11.659 50.113,11.659 50.113,11.514 50.113,11.514 50.113,11.514 50.233,11.514 50.233,11.514 50.233,11.514 50.233,11.659 50.233,11.659 50.233,11.659 50.745,11.659 50.745,11.659 50.745,11.659 50.745,9.590 50.745,9.590 50.745,9.590 50.233,9.590 50.233,9.590 50.233,9.590 50.233,9.736 50.233,9.736 50.233,9.736 50.113,9.736 50.113,9.736 50.113,9.736 50.113,9.590 50.113,9.590 50.113,9.590 47.565,9.590 47.565,9.590 47.565,9.590 47.565,9.736 47.565,9.736 47.565,9.736 47.419,9.736 47.419,9.736 47.419,9.736 47.419,9.371 47.419,9.371 47.419,9.371 47.060,9.371 46.702,9.371 46.344,9.371 46.344,9.846 46.344,9.846 46.344,9.846 46.255,9.708 46.166,9.571 46.077,9.433 42.185,9.433 42.185,9.433 42.185,9.433 42.121,9.558 42.056,9.684 41.991,9.809 41.747,9.809 41.747,9.809 41.747,9.809 41.747,9.846 41.747,9.846 41.747,9.846 41.514,9.846 41.514,9.846 41.514,9.846 41.514,9.800 41.514,9.800 41.514,9.800 41.092,9.800 41.092,9.800 41.092,9.800 41.092,9.846 41.092,9.846 41.092,9.846 40.859,9.846 40.859,9.846 40.859,9.846 40.859,9.800 40.859,9.800 40.859,9.800 40.437,9.800 40.437,9.800 40.437,9.800 40.437,9.846 40.437,9.846 40.437,9.846 40.204,9.846 40.204,9.846 40.204,9.846 40.204,9.800 40.204,9.800 40.204,9.800 39.923,9.800 39.923,9.800 39.923,9.800 39.895,9.728 39.866,9.656 39.838,9.584 39.115,9.584 39.115,9.584 39.115,9.584 39.115,9.431 39.115,9.431 39.115,9.431 39.942,9.431 39.942,9.431 39.942,9.431 39.970,9.503 39.999,9.575 40.027,9.647 40.547,9.647 41.067,9.648 41.586,9.648 41.608,9.647 41.631,9.644 41.650,9.657 41.733,9.657 41.816,9.657 41.899,9.657 41.948,9.560 41.998,9.464 42.048,9.367 Z M 30.883,9.382 C 30.883,9.382 30.883,9.382 30.883,9.382 30.955,9.381 31.035,9.394 31.090,9.446 31.119,9.475 31.123,9.521 31.113,9.559 31.103,9.594 31.070,9.614 31.040,9.630 30.986,9.658 30.923,9.661 30.863,9.659 27.466,9.660 24.068,9.660 20.670,9.660 20.592,9.661 20.508,9.660 20.440,9.616 20.418,9.601 20.398,9.580 20.393,9.552 20.383,9.513 20.389,9.464 20.425,9.439 20.481,9.391 20.559,9.379 20.631,9.383 24.049,9.382 27.466,9.382 30.883,9.382 Z M 40.110,9.469 C 41.836,9.469 41.836,9.469 41.836,9.469 41.812,9.515 41.812,9.515 41.812,9.515 41.756,9.513 41.699,9.519 41.644,9.508 41.602,9.501 41.559,9.506 41.517,9.505 41.053,9.505 40.588,9.505 40.124,9.505 40.119,9.493 40.114,9.481 40.110,9.469 Z M 46.486,9.513 C 47.277,9.513 47.277,9.513 47.277,9.513 47.277,11.648 47.277,11.648 47.277,11.648 46.486,11.648 46.486,11.648 46.486,11.648 Z M 42.272,9.575 C 46.000,9.575 46.000,9.575 46.000,9.575 46.024,9.612 46.047,9.649 46.071,9.686 46.071,11.535 46.071,11.535 46.071,11.535 46.049,11.567 46.026,11.598 46.003,11.630 42.263,11.630 42.263,11.630 42.263,11.630 42.217,11.561 42.171,11.492 42.126,11.423 42.126,9.859 42.126,9.859 42.126,9.859 42.174,9.765 42.223,9.670 42.272,9.575 Z M 39.217,9.726 C 39.741,9.726 39.741,9.726 39.741,9.726 39.769,9.798 39.797,9.870 39.826,9.942 40.061,9.942 40.061,9.942 40.061,9.942 40.061,11.338 40.061,11.338 40.061,11.338 39.833,11.338 39.833,11.338 39.833,11.338 39.805,11.395 39.776,11.453 39.748,11.511 39.571,11.511 39.394,11.511 39.217,11.511 Z M 47.708,9.732 C 49.971,9.732 49.971,9.732 49.971,9.732 49.971,11.517 49.971,11.517 49.971,11.517 47.708,11.517 47.708,11.517 47.708,11.517 Z M 50.376,9.732 C 50.602,9.732 50.602,9.732 50.602,9.732 50.602,11.517 50.602,11.517 50.602,11.517 50.376,11.517 50.376,11.517 50.376,11.517 Z M 84.867,9.734 C 84.862,9.734 84.856,9.734 84.851,9.735 84.755,9.738 84.661,9.784 84.605,9.862 84.533,9.958 84.517,10.096 84.574,10.203 84.637,10.323 84.779,10.399 84.913,10.375 85.066,10.351 85.190,10.203 85.183,10.048 85.182,9.882 85.032,9.733 84.867,9.734 Z M 85.754,9.734 C 85.662,9.735 85.571,9.775 85.512,9.846 85.441,9.928 85.413,10.047 85.447,10.151 85.490,10.294 85.643,10.396 85.792,10.376 85.950,10.360 86.083,10.210 86.077,10.051 86.077,9.887 85.932,9.739 85.769,9.734 85.764,9.734 85.759,9.734 85.754,9.734 Z M 62.496,9.751 C 64.722,9.751 64.722,9.751 64.722,9.751 64.722,11.869 64.722,11.869 64.722,11.869 62.496,11.869 62.496,11.869 62.496,11.869 62.496,11.166 62.496,10.464 62.496,9.762 62.496,9.758 62.496,9.755 62.496,9.751 Z M 65.821,9.751 C 68.046,9.751 68.046,9.751 68.046,9.751 68.046,11.869 68.046,11.869 68.046,11.869 65.821,11.869 65.821,11.869 65.821,11.869 65.821,9.762 65.821,9.762 65.821,9.762 Z M 69.177,9.751 C 71.403,9.751 71.403,9.751 71.403,9.751 71.403,11.869 71.403,11.869 71.403,11.869 69.177,11.869 69.177,11.869 69.177,11.869 69.177,9.762 69.177,9.762 69.177,9.762 Z M 72.469,9.751 C 74.695,9.751 74.695,9.751 74.695,9.751 74.695,11.869 74.695,11.869 74.695,11.869 72.469,11.869 72.469,11.869 72.469,11.869 72.469,9.762 72.469,9.762 72.469,9.762 Z M 75.834,9.751 C 78.060,9.751 78.060,9.751 78.060,9.751 78.060,11.869 78.060,11.869 78.060,11.869 75.834,11.869 75.834,11.869 75.834,11.869 75.834,9.762 75.834,9.762 75.834,9.762 Z M 47.419,9.878 C 47.565,9.878 47.565,9.878 47.565,9.878 47.565,11.371 47.565,11.371 47.565,11.371 47.419,11.371 47.419,11.371 47.419,11.371 Z M 50.113,9.878 C 50.233,9.878 50.233,9.878 50.233,9.878 50.233,11.371 50.233,11.371 50.233,11.371 50.113,11.371 50.113,11.371 50.113,11.371 Z M 46.213,9.906 C 46.234,9.938 46.255,9.971 46.276,10.003 46.288,10.032 46.314,10.054 46.344,10.063 46.344,11.152 46.344,11.152 46.344,11.152 46.213,11.335 46.213,11.335 46.213,11.335 Z M 84.862,9.937 C 84.925,9.936 84.982,9.993 84.980,10.056 84.981,10.114 84.933,10.169 84.875,10.174 84.818,10.181 84.758,10.141 84.746,10.084 84.733,10.030 84.762,9.969 84.814,9.948 84.829,9.941 84.846,9.937 84.862,9.937 Z M 85.755,9.937 C 85.817,9.936 85.873,9.991 85.873,10.054 85.875,10.113 85.828,10.169 85.768,10.174 85.713,10.181 85.655,10.144 85.641,10.089 85.625,10.035 85.652,9.970 85.705,9.948 85.721,9.941 85.738,9.938 85.755,9.937 Z M 40.579,9.942 C 40.717,9.942 40.717,9.942 40.717,9.942 40.717,10.407 40.716,10.872 40.716,11.338 40.579,11.338 40.579,11.338 40.579,11.338 Z M 41.234,9.942 C 41.372,9.942 41.372,9.942 41.372,9.942 41.372,11.338 41.372,11.338 41.372,11.338 41.234,11.338 41.234,11.338 41.234,11.338 41.234,10.872 41.234,10.407 41.234,9.942 Z M 41.890,9.952 C 41.984,9.952 41.984,9.952 41.984,9.952 41.984,11.338 41.984,11.338 41.984,11.338 41.890,11.338 41.890,11.338 41.890,11.338 Z M 40.204,9.989 C 40.437,9.989 40.437,9.989 40.437,9.989 40.437,11.292 40.437,11.292 40.437,11.292 40.204,11.292 40.204,11.292 40.204,11.292 Z M 40.859,9.989 C 41.092,9.989 41.092,9.989 41.092,9.989 41.092,11.292 41.092,11.292 41.092,11.292 40.859,11.292 40.859,11.292 40.859,11.292 Z M 41.514,9.989 C 41.747,9.989 41.747,9.989 41.747,9.989 41.747,11.292 41.747,11.292 41.747,11.292 41.514,11.292 41.514,11.292 41.514,11.292 Z M 20.303,10.652 C 31.122,10.652 31.122,10.652 31.122,10.652 31.122,11.943 31.122,11.943 31.122,11.943 28.814,11.943 26.506,11.943 24.199,11.943 23.912,11.946 23.631,12.020 23.366,12.125 23.017,12.263 22.691,12.452 22.373,12.648 21.943,12.915 21.520,13.193 21.104,13.480 20.839,13.664 20.574,13.849 20.324,14.053 20.318,14.056 20.304,14.074 20.303,14.066 Z M 84.862,10.729 C 84.925,10.728 84.982,10.785 84.980,10.848 84.981,10.906 84.933,10.961 84.875,10.966 84.818,10.973 84.758,10.933 84.746,10.876 84.733,10.822 84.761,10.762 84.812,10.740 84.828,10.733 84.845,10.729 84.862,10.729 Z M 85.755,10.729 C 85.818,10.728 85.875,10.784 85.874,10.847 85.875,10.906 85.827,10.961 85.768,10.966 85.712,10.973 85.654,10.935 85.640,10.879 85.625,10.823 85.656,10.757 85.711,10.737 85.725,10.732 85.740,10.729 85.755,10.729 Z M 32.960,10.786 C 36.207,10.786 36.207,10.786 36.207,10.786 36.207,12.027 36.207,12.027 36.207,12.027 33.936,12.027 33.936,12.027 33.936,12.027 33.996,12.362 33.996,12.362 33.996,12.362 32.555,12.362 32.555,12.362 32.555,12.362 32.690,11.837 32.825,11.311 32.960,10.786 Z M 53.540,10.854 C 54.682,10.854 54.682,10.854 54.682,10.854 54.682,12.144 54.682,12.144 54.682,12.144 53.540,12.144 53.540,12.144 53.540,12.144 Z M 55.134,10.854 C 56.277,10.854 56.277,10.854 56.277,10.854 56.277,12.144 56.277,12.144 56.277,12.144 55.134,12.144 55.134,12.144 55.134,12.144 Z M 40.105,11.775 C 41.835,11.775 41.835,11.775 41.835,11.775 41.886,11.853 41.937,11.931 41.989,12.009 39.217,12.009 39.217,12.009 39.217,12.009 39.217,11.948 39.217,11.948 39.217,11.948 39.451,11.948 39.685,11.947 39.920,11.948 39.976,11.955 40.038,11.926 40.058,11.870 40.074,11.839 40.090,11.807 40.105,11.775 Z M 47.714,11.954 C 50.665,11.954 50.665,11.954 50.665,11.954 50.665,12.009 50.665,12.009 50.665,12.009 47.714,12.009 47.714,12.009 47.714,12.009 Z M 34.313,12.342 C 34.325,12.342 34.325,12.342 34.325,12.342 36.207,12.342 36.207,12.342 36.207,12.342 36.432,12.342 36.432,12.342 36.432,12.342 36.474,12.342 36.474,12.342 36.474,12.342 37.894,12.342 37.894,12.342 37.894,12.342 38.739,12.342 38.739,12.342 38.739,12.342 38.738,12.940 38.733,13.539 38.749,14.137 38.756,14.349 38.765,14.560 38.786,14.771 38.797,14.866 38.816,14.963 38.865,15.047 38.917,15.139 38.990,15.217 39.072,15.280 39.201,15.379 39.357,15.443 39.515,15.474 39.543,15.476 39.557,15.515 39.537,15.535 39.381,15.797 39.225,16.059 39.069,16.321 38.821,16.228 38.573,16.135 38.325,16.042 38.341,15.636 38.379,15.230 38.359,14.824 38.343,14.558 38.303,14.289 38.196,14.043 38.122,13.874 38.014,13.717 37.874,13.595 37.703,13.444 37.493,13.344 37.275,13.281 37.102,13.231 36.918,13.210 36.739,13.237 36.539,13.266 36.350,13.357 36.192,13.481 35.979,13.648 35.814,13.868 35.679,14.101 35.535,14.350 35.425,14.616 35.335,14.889 35.326,14.910 35.304,14.933 35.278,14.925 35.265,14.919 35.258,14.905 35.257,14.891 35.083,14.826 34.909,14.761 34.735,14.695 34.609,13.993 34.483,13.289 34.357,12.587 34.343,12.512 34.330,12.437 34.317,12.362 34.315,12.356 34.314,12.349 34.313,12.342 Z M 39.056,12.342 C 39.066,12.342 39.066,12.342 39.066,12.342 39.842,12.342 39.842,12.342 39.842,12.342 39.758,13.017 39.779,14.366 40.959,15.143 41.138,14.873 41.316,14.603 41.495,14.333 40.682,13.797 40.755,12.757 40.822,12.342 44.547,12.342 44.547,12.342 44.547,12.342 44.622,12.359 44.694,12.412 44.717,12.488 44.745,12.574 44.725,12.666 44.699,12.750 44.647,12.912 44.561,13.060 44.476,13.206 44.238,13.608 43.989,14.006 43.715,14.385 43.625,14.508 43.533,14.630 43.436,14.747 43.295,14.907 43.119,15.029 42.957,15.165 42.892,15.216 42.826,15.274 42.744,15.295 42.708,15.302 42.672,15.297 42.636,15.299 41.764,15.299 40.892,15.299 40.020,15.300 40.021,15.281 40.029,15.256 40.011,15.243 39.952,15.213 39.884,15.213 39.820,15.204 39.665,15.186 39.507,15.166 39.366,15.096 39.265,15.046 39.176,14.968 39.123,14.868 39.104,14.807 39.100,14.742 39.092,14.679 39.073,14.486 39.067,14.292 39.061,14.098 39.048,13.628 39.049,13.157 39.053,12.686 39.053,12.572 39.055,12.457 39.056,12.342 Z M 40.043,12.342 C 40.622,12.342 40.622,12.342 40.622,12.342 40.605,12.460 40.605,12.460 40.605,12.460 40.573,12.748 40.576,13.042 40.633,13.328 40.705,13.731 40.908,14.115 41.224,14.379 40.923,14.835 40.923,14.835 40.923,14.835 40.914,14.861 40.900,14.858 40.884,14.839 40.690,14.683 40.520,14.493 40.392,14.283 40.244,14.044 40.144,13.778 40.085,13.504 40.005,13.138 39.997,12.758 40.039,12.387 40.040,12.381 40.040,12.376 40.041,12.371 Z M 36.894,13.542 C 37.065,13.544 37.233,13.591 37.389,13.659 37.541,13.727 37.682,13.824 37.782,13.957 37.882,14.087 37.944,14.242 37.981,14.401 38.045,14.663 38.051,14.936 38.045,15.205 38.040,15.412 38.029,15.618 38.020,15.825 38.013,15.954 38.000,16.085 38.028,16.213 38.063,16.355 38.144,16.483 38.247,16.587 38.338,16.681 38.444,16.759 38.554,16.828 38.648,16.886 38.746,16.939 38.848,16.985 38.872,16.992 38.886,17.023 38.873,17.045 38.786,17.328 38.662,17.598 38.546,17.870 38.184,18.702 37.795,19.521 37.441,20.356 37.188,20.950 36.949,21.550 36.755,22.166 36.741,22.200 36.746,22.236 36.744,22.272 36.728,23.102 36.723,23.717 36.705,24.479 36.623,24.540 36.541,24.601 36.459,24.662 34.851,24.074 33.364,23.520 31.756,22.932 31.728,22.822 31.699,22.711 31.671,22.601 31.985,21.787 32.175,21.103 32.488,20.288 32.904,19.200 33.322,18.113 33.751,17.029 33.938,16.558 34.126,16.087 34.336,15.625 34.379,15.533 34.424,15.442 34.473,15.353 34.714,15.434 34.954,15.517 35.195,15.598 35.279,15.617 35.371,15.594 35.438,15.539 35.467,15.515 35.497,15.479 35.511,15.438 35.525,15.396 35.535,15.350 35.547,15.306 35.581,15.168 35.620,15.031 35.667,14.897 35.762,14.623 35.885,14.357 36.045,14.114 36.157,13.947 36.291,13.791 36.460,13.678 36.588,13.594 36.740,13.543 36.894,13.542 Z M 36.989,14.055 C 36.670,14.055 36.413,14.312 36.413,14.631 36.413,14.949 36.670,15.206 36.989,15.206 37.308,15.206 37.564,14.949 37.564,14.631 37.564,14.312 37.308,14.055 36.989,14.055 Z M 36.989,14.253 C 37.198,14.253 37.366,14.422 37.366,14.631 37.366,14.839 37.198,15.008 36.989,15.008 36.780,15.008 36.612,14.839 36.612,14.631 36.612,14.422 36.780,14.253 36.989,14.253 Z M 37.129,16.410 C 36.945,16.414 36.772,16.526 36.700,16.708 34.755,21.620 34.755,21.620 34.755,21.620 34.658,21.864 34.777,22.137 35.020,22.234 35.264,22.330 35.538,22.212 35.634,21.968 37.579,17.057 37.579,17.057 37.579,17.057 37.676,16.813 37.557,16.540 37.314,16.443 37.253,16.419 37.190,16.408 37.129,16.410 Z M 35.516,16.420 C 35.332,16.424 35.160,16.536 35.088,16.719 33.142,21.630 33.142,21.630 33.142,21.630 33.046,21.873 33.164,22.147 33.408,22.244 33.651,22.340 33.925,22.222 34.021,21.978 35.967,17.067 35.967,17.067 35.967,17.067 36.064,16.824 35.945,16.549 35.701,16.453 35.641,16.429 35.578,16.418 35.516,16.420 Z M 37.123,16.619 C 37.128,16.618 37.134,16.618 37.139,16.619 37.178,16.619 37.216,16.628 37.251,16.643 37.333,16.679 37.390,16.761 37.402,16.849 37.407,16.887 37.404,16.922 37.391,16.958 36.883,18.248 36.371,19.538 35.861,20.827 35.724,21.172 35.587,21.518 35.451,21.863 35.433,21.917 35.402,21.967 35.356,22.002 35.290,22.056 35.197,22.072 35.117,22.046 35.047,22.025 34.986,21.975 34.956,21.908 34.929,21.851 34.922,21.784 34.942,21.723 35.226,20.999 35.512,20.277 35.798,19.554 36.164,18.629 36.532,17.705 36.896,16.780 36.935,16.690 37.024,16.625 37.123,16.619 Z M 35.515,16.629 C 35.581,16.627 35.649,16.650 35.700,16.693 35.777,16.759 35.810,16.870 35.780,16.966 35.136,18.594 34.492,20.223 33.847,21.850 33.829,21.907 33.802,21.961 33.757,22.001 33.693,22.062 33.596,22.081 33.512,22.058 33.436,22.040 33.374,21.984 33.342,21.914 33.314,21.852 33.308,21.777 33.336,21.713 33.924,20.223 34.514,18.735 35.104,17.246 35.161,17.099 35.221,16.953 35.277,16.805 35.313,16.707 35.409,16.632 35.515,16.629 Z " />
</svg>