<?xml version="1.0" encoding="UTF-8" standalone="no"?>
<!DOCTYPE svg PUBLIC "-//W3C//DTD SVG 20010904//EN" "http://www.w3.org/TR/2001/REC-SVG-20010904/DTD/svg10.dtd"[]>
<svg version="1.1" id="Frosty Editor v1.0.6.3" xmlns="http://www.w3.org/2000/svg" d1p1:xlink="http://www.w3.org/1999/xlink" viewBox="0 0 101 25" xmlns:d1p1="xmlns">
  <path stroke="none" fill="#ffffffff" d="M 37.799,3.612 C 37.191,6.262 37.191,6.262 37.191,6.262 27.512,6.262 27.512,6.262 27.512,6.262 27.512,6.776 27.512,6.776 27.512,6.776 24.763,6.997 24.763,6.997 24.763,6.997 24.557,6.997 24.305,7.491 22.567,7.569 22.567,7.727 22.567,7.727 22.567,7.727 12.070,7.727 12.070,7.727 12.070,7.727 12.070,7.562 12.070,7.562 12.070,7.562 9.529,7.562 9.529,7.562 9.529,7.562 9.529,7.149 9.529,7.149 9.529,7.149 8.101,7.149 8.101,7.149 8.101,7.149 8.101,7.562 8.101,7.562 8.101,7.562 7.358,7.562 7.358,7.562 7.358,7.562 7.358,6.913 7.358,6.913 7.358,6.913 10.830,6.913 10.830,6.913 10.830,6.913 10.069,5.476 10.069,5.476 10.069,5.476 1.908,5.476 1.908,5.476 1.908,5.476 1.148,6.913 1.148,6.913 1.148,6.913 1.893,13.199 1.893,13.199 1.893,13.199 3.018,14.233 3.018,14.233 3.018,14.233 6.667,14.233 6.667,14.233 6.667,14.233 7.358,13.482 7.358,13.482 7.358,13.482 7.358,8.871 7.358,8.871 7.358,8.871 8.101,8.871 8.101,8.871 8.101,8.871 8.101,8.998 8.101,8.998 8.101,8.998 7.526,9.154 7.526,9.154 7.526,9.154 7.526,9.218 7.526,9.218 7.526,9.218 7.518,9.224 7.511,9.231 7.504,9.238 7.504,9.238 7.504,9.238 7.504,9.238 7.504,9.238 7.504,9.238 7.504,9.238 7.478,9.263 7.457,9.294 7.443,9.328 7.443,9.328 7.443,9.328 7.443,9.328 7.429,9.362 7.421,9.399 7.421,9.439 7.421,9.439 7.421,9.439 7.421,9.439 7.421,9.439 7.421,9.439 7.421,9.439 7.421,9.478 7.429,9.515 7.443,9.549 7.443,9.549 7.443,9.549 7.443,9.549 7.443,9.549 7.443,9.549 7.443,9.549 7.443,9.550 7.443,9.550 7.443,9.550 7.457,9.584 7.478,9.614 7.504,9.640 7.504,9.640 7.504,9.640 7.504,9.640 7.511,9.647 7.518,9.653 7.526,9.659 7.526,9.826 7.526,9.826 7.526,9.826 7.518,9.832 7.511,9.839 7.504,9.846 7.504,9.846 7.504,9.846 7.504,9.846 7.504,9.846 7.504,9.846 7.504,9.846 7.478,9.872 7.457,9.902 7.443,9.936 7.443,9.936 7.443,9.936 7.443,9.936 7.429,9.970 7.421,10.008 7.421,10.047 7.421,10.047 7.421,10.047 7.421,10.047 7.421,10.047 7.421,10.047 7.421,10.047 7.421,10.086 7.429,10.124 7.443,10.158 7.443,10.158 7.443,10.158 7.443,10.158 7.443,10.158 7.443,10.158 7.443,10.158 7.443,10.158 7.443,10.158 7.443,10.158 7.457,10.192 7.478,10.222 7.504,10.248 7.504,10.248 7.504,10.248 7.504,10.248 7.511,10.255 7.518,10.261 7.526,10.268 7.526,10.435 7.526,10.435 7.526,10.435 7.518,10.441 7.511,10.447 7.504,10.454 7.504,10.454 7.504,10.454 7.504,10.454 7.504,10.454 7.504,10.454 7.504,10.454 7.478,10.480 7.457,10.510 7.443,10.544 7.443,10.544 7.443,10.544 7.443,10.544 7.429,10.578 7.421,10.616 7.421,10.655 7.421,10.655 7.421,10.655 7.421,10.655 7.421,10.655 7.421,10.655 7.421,10.655 7.421,10.695 7.429,10.732 7.443,10.766 7.443,10.766 7.443,10.766 7.443,10.766 7.443,10.766 7.443,10.766 7.443,10.766 7.443,10.766 7.443,10.766 7.443,10.766 7.457,10.800 7.478,10.831 7.504,10.856 7.504,10.856 7.504,10.856 7.504,10.856 7.511,10.863 7.518,10.870 7.526,10.876 7.526,11.043 7.526,11.043 7.526,11.043 7.574,11.003 7.637,10.979 7.705,10.979 7.862,10.979 7.989,11.106 7.989,11.264 7.989,11.421 7.862,11.548 7.705,11.548 7.637,11.548 7.574,11.524 7.526,11.484 7.526,11.549 7.526,11.549 7.526,11.549 8.101,11.705 8.101,11.705 8.101,11.705 8.101,12.010 8.101,12.010 8.101,12.010 9.529,12.010 9.529,12.010 9.529,12.010 9.529,11.764 9.529,11.764 9.529,11.764 9.529,11.764 10.700,11.067 12.070,11.067 12.070,10.891 12.070,10.891 12.070,10.891 22.567,10.891 22.567,10.891 22.567,10.891 22.567,11.049 22.567,11.049 22.567,11.049 24.305,11.127 24.557,11.621 24.763,11.621 27.512,11.787 27.512,11.787 27.512,11.787 27.512,12.215 27.512,12.215 27.512,12.215 27.512,12.893 27.512,12.893 27.512,12.893 28.151,13.159 28.151,13.159 28.151,13.159 24.152,21.853 24.152,21.853 24.152,21.853 23.957,22.277 23.957,22.277 23.957,22.277 24.381,22.473 24.381,22.473 24.381,22.473 27.723,24.010 27.723,24.010 27.723,24.010 28.223,24.240 28.223,24.240 28.223,24.240 28.418,23.815 28.418,23.815 28.418,23.815 27.918,23.586 27.918,23.586 27.918,23.586 29.107,21.001 29.332,21.801 29.872,20.627 30.168,19.984 30.000,19.325 30.180,18.934 30.364,18.533 31.065,18.033 31.334,17.449 31.617,16.835 31.334,16.195 31.982,14.753 33.027,15.187 33.027,15.187 33.027,15.187 33.622,15.187 33.622,15.187 33.622,15.187 33.622,12.893 33.622,12.893 33.622,12.893 35.542,13.736 35.542,13.736 35.542,13.736 35.173,14.185 34.960,14.885 35.747,15.832 35.825,15.772 35.825,15.772 35.825,15.772 35.371,14.961 35.459,14.392 35.856,13.874 37.799,14.728 37.799,14.728 37.799,14.728 37.500,16.909 36.387,17.938 33.430,18.212 33.430,18.505 33.430,18.505 33.430,18.505 37.516,18.679 38.430,16.583 38.773,14.856 40.890,15.136 40.890,15.136 40.890,15.136 40.613,15.100 40.613,15.100 40.613,15.100 40.516,15.832 40.516,15.832 40.516,15.832 41.248,15.928 41.248,15.928 41.248,15.928 41.248,15.928 41.248,15.928 41.248,15.928 41.236,16.019 41.236,16.019 41.236,16.019 44.040,16.388 44.040,16.388 44.040,16.388 44.148,15.567 44.148,15.567 44.148,15.567 46.672,15.901 46.672,15.901 46.672,15.901 48.393,15.010 48.393,15.010 48.393,15.010 48.393,14.747 48.393,14.747 48.393,14.747 49.977,14.747 49.977,14.747 49.977,14.747 49.977,14.747 50.414,14.873 50.616,14.873 50.716,14.873 51.069,15.310 51.256,15.310 51.341,15.310 51.456,15.400 51.997,15.400 52.090,15.400 52.486,15.778 52.738,15.778 53.113,15.778 53.421,15.754 53.600,15.754 53.773,15.747 54.145,16.065 54.461,16.065 54.778,16.065 55.140,15.927 55.328,15.927 55.525,15.927 55.764,16.197 56.195,16.197 56.195,10.191 56.195,10.191 56.195,10.191 56.195,10.191 56.195,10.191 56.195,10.191 56.195,10.191 56.195,10.191 56.195,10.191 56.195,10.191 56.195,10.191 56.195,10.191 56.195,10.191 56.195,10.191 56.195,10.191 56.195,4.185 56.195,4.185 56.195,4.185 55.764,4.185 55.525,4.455 55.328,4.455 55.140,4.455 54.779,4.317 54.461,4.317 54.145,4.317 53.773,4.635 53.600,4.629 53.422,4.629 53.114,4.605 52.739,4.605 52.487,4.605 52.091,4.982 51.997,4.982 51.456,4.982 51.341,5.072 51.256,5.072 51.069,5.072 50.716,5.509 50.617,5.509 50.415,5.509 49.977,5.635 49.977,5.635 49.977,10.191 49.977,10.191 49.977,10.191 49.977,10.191 49.977,10.191 49.977,10.191 49.977,5.635 49.977,5.635 49.977,5.635 48.393,5.635 48.393,5.635 48.393,5.635 48.393,5.373 48.393,5.373 48.393,5.373 46.672,4.481 46.672,4.481 46.672,4.481 46.207,4.541 46.207,4.541 46.207,4.541 46.052,3.612 46.052,3.612 46.052,3.612 Z M 56.195,4.185 C 56.195,4.185 56.195,4.185 56.195,4.185 56.195,4.185 56.195,4.185 56.195,4.185 Z M 56.195,4.185 C 56.195,4.185 56.195,4.185 56.195,4.185 56.195,4.185 56.195,4.185 56.195,4.185 Z M 56.195,4.185 C 56.195,10.191 56.195,10.191 56.195,10.191 56.195,10.191 56.195,10.191 56.195,10.191 56.195,10.191 56.195,10.191 56.195,10.191 56.195,10.191 56.195,10.191 56.195,10.191 56.195,16.197 56.195,16.197 56.195,16.197 56.626,16.197 56.865,15.927 57.062,15.927 57.250,15.927 57.612,16.065 57.929,16.065 58.245,16.065 58.617,15.747 58.791,15.754 58.969,15.754 59.277,15.778 59.652,15.778 59.904,15.778 60.300,15.400 60.393,15.400 60.934,15.400 61.050,15.310 61.134,15.310 61.321,15.310 61.674,14.873 61.774,14.873 61.976,14.873 62.413,14.747 62.413,14.747 62.413,14.465 62.413,14.465 62.413,14.465 97.489,14.465 97.489,14.465 97.489,14.465 97.540,14.633 97.695,14.754 97.879,14.754 98.132,14.754 98.132,14.754 98.132,14.754 98.317,14.754 98.472,14.633 98.522,14.465 99.201,14.465 99.201,14.465 99.201,14.465 99.251,14.633 99.406,14.754 99.591,14.754 99.843,14.754 99.843,14.754 99.843,14.754 100.028,14.754 100.183,14.633 100.233,14.465 100.826,14.465 100.826,14.465 100.826,14.465 100.826,5.960 100.826,5.960 100.826,5.960 100.233,5.960 100.233,5.960 100.233,5.960 100.183,5.792 100.028,5.671 99.843,5.671 99.591,5.671 99.591,5.671 99.591,5.671 99.406,5.671 99.251,5.792 99.201,5.960 98.522,5.960 98.522,5.960 98.522,5.960 98.472,5.792 98.317,5.671 98.132,5.671 97.879,5.671 97.879,5.671 97.879,5.671 97.695,5.671 97.540,5.792 97.489,5.960 62.413,5.960 62.413,5.960 62.413,5.960 62.413,5.635 62.413,5.635 62.413,5.635 62.413,5.635 61.976,5.509 61.774,5.509 61.674,5.509 61.321,5.072 61.134,5.072 61.050,5.072 60.935,4.982 60.393,4.982 60.300,4.982 59.904,4.605 59.652,4.605 59.277,4.605 58.969,4.629 58.791,4.629 58.617,4.635 58.245,4.317 57.930,4.317 57.612,4.317 57.250,4.455 57.062,4.455 56.865,4.455 56.627,4.185 56.195,4.185 Z M 56.195,16.197 C 56.195,16.197 56.195,16.197 56.195,16.197 56.195,16.197 56.195,16.197 56.195,16.197 Z M 56.195,16.197 C 56.195,16.197 56.195,16.197 56.195,16.197 56.195,16.197 56.195,16.197 56.195,16.197 Z M 38.031,3.903 C 45.805,3.903 45.805,3.903 45.805,3.903 45.843,4.128 45.880,4.353 45.918,4.578 37.799,5.618 37.799,5.618 37.799,5.618 37.799,5.971 37.799,5.971 37.799,5.971 37.557,5.971 37.557,5.971 37.557,5.971 37.715,5.281 37.873,4.592 38.031,3.903 Z M 56.030,4.567 C 56.030,10.349 56.030,10.349 56.030,10.349 56.030,12.166 56.030,13.982 56.031,15.799 55.954,15.789 55.879,15.768 55.806,15.741 55.677,15.696 55.562,15.623 55.432,15.581 55.432,11.983 55.432,8.384 55.432,4.786 55.506,4.761 55.576,4.727 55.646,4.694 55.764,4.637 55.886,4.590 56.016,4.569 56.021,4.568 56.025,4.568 56.030,4.567 Z M 56.299,4.567 C 56.401,4.581 56.499,4.613 56.593,4.653 56.694,4.695 56.791,4.752 56.898,4.786 56.898,8.384 56.898,11.982 56.898,15.580 56.821,15.606 56.748,15.642 56.675,15.676 56.557,15.733 56.431,15.781 56.299,15.799 56.299,4.855 56.299,4.855 56.299,4.855 Z M 57.765,4.690 C 57.765,15.676 57.765,15.676 57.765,15.676 57.562,15.657 57.367,15.601 57.167,15.570 57.167,6.547 57.167,6.547 57.167,6.547 57.167,5.963 57.167,5.380 57.166,4.797 57.194,4.793 57.222,4.788 57.249,4.783 57.415,4.751 57.581,4.711 57.748,4.691 57.754,4.691 57.759,4.690 57.765,4.690 Z M 54.564,4.690 C 54.767,4.709 54.962,4.766 55.163,4.797 55.163,10.494 55.163,10.494 55.163,10.494 55.163,12.186 55.163,13.877 55.163,15.569 54.963,15.602 54.767,15.656 54.564,15.676 Z M 54.296,4.703 C 54.296,8.357 54.296,12.010 54.296,15.664 54.209,15.642 54.126,15.607 54.046,15.570 53.931,15.519 53.823,15.456 53.703,15.416 53.703,9.166 53.703,9.166 53.703,9.166 53.703,7.761 53.704,6.356 53.703,4.951 53.717,4.946 53.732,4.941 53.746,4.935 53.928,4.862 54.096,4.757 54.287,4.705 54.290,4.705 54.293,4.704 54.296,4.703 Z M 58.033,4.703 C 58.123,4.725 58.206,4.761 58.289,4.800 58.402,4.849 58.508,4.911 58.626,4.950 58.626,10.812 58.626,10.812 58.626,10.812 58.626,12.347 58.626,13.881 58.626,15.416 58.557,15.439 58.490,15.471 58.424,15.502 58.297,15.562 58.172,15.629 58.034,15.663 58.034,12.019 58.034,8.375 58.034,4.731 58.034,4.721 58.034,4.712 58.033,4.703 Z M 46.398,4.792 C 46.398,15.588 46.398,15.588 46.398,15.588 43.623,15.221 40.848,14.854 38.073,14.487 38.073,10.646 38.073,10.646 38.073,10.646 38.116,10.608 38.159,10.571 38.202,10.533 38.469,10.298 38.728,10.055 39.014,9.843 39.229,9.683 39.460,9.541 39.714,9.451 39.843,9.406 39.978,9.374 40.114,9.364 40.148,9.361 40.182,9.359 40.216,9.359 40.216,9.535 40.216,9.535 40.216,9.535 40.565,9.535 40.565,9.535 40.565,9.535 40.565,9.409 40.565,9.409 40.565,9.409 40.727,9.409 40.727,9.409 40.727,9.409 40.727,8.796 40.727,8.796 40.727,8.796 40.565,8.796 40.565,8.796 40.565,8.796 40.565,8.671 40.565,8.671 40.565,8.671 40.216,8.671 40.216,8.671 40.216,8.671 40.216,8.715 40.216,8.715 40.216,8.715 39.893,8.719 39.572,8.797 39.279,8.931 38.927,9.088 38.610,9.312 38.315,9.558 38.232,9.627 38.152,9.697 38.073,9.769 38.073,5.859 38.073,5.859 38.073,5.859 40.848,5.504 43.623,5.148 46.398,4.792 Z M 46.937,4.917 C 47.334,5.123 47.731,5.329 48.127,5.534 48.127,14.848 48.127,14.848 48.127,14.848 47.731,15.054 47.334,15.259 46.937,15.465 Z M 59.487,4.957 C 59.487,15.409 59.487,15.409 59.487,15.409 59.290,15.406 59.092,15.398 58.895,15.392 58.895,11.919 58.895,8.447 58.895,4.974 59.078,4.969 59.261,4.962 59.444,4.958 59.459,4.957 59.473,4.957 59.487,4.957 Z M 52.842,4.957 C 53.040,4.960 53.237,4.969 53.434,4.974 53.434,8.447 53.435,11.919 53.435,15.392 53.237,15.398 53.040,15.406 52.842,15.409 52.842,5.157 52.842,5.157 52.842,5.157 Z M 52.573,4.992 C 52.573,8.446 52.573,11.900 52.573,15.354 52.571,15.359 52.579,15.379 52.568,15.372 52.400,15.303 52.258,15.190 52.101,15.101 52.101,13.080 52.101,13.080 52.101,13.080 52.101,10.475 52.101,7.871 52.100,5.266 52.130,5.249 52.158,5.232 52.187,5.214 52.313,5.136 52.434,5.049 52.573,4.992 Z M 59.758,4.993 C 59.759,4.993 59.760,4.994 59.762,4.994 59.930,5.064 60.072,5.177 60.228,5.266 60.229,8.943 60.229,8.943 60.229,8.943 60.229,10.996 60.228,13.048 60.229,15.101 60.171,15.133 60.116,15.169 60.060,15.205 59.962,15.266 59.864,15.331 59.756,15.374 59.756,5.016 59.756,5.016 59.756,5.016 59.758,5.010 59.752,4.994 59.758,4.993 Z M 51.832,5.319 C 51.832,8.562 51.832,11.805 51.832,15.047 51.673,15.044 51.514,15.029 51.360,14.992 51.359,11.795 51.360,8.598 51.359,5.401 51.361,5.393 51.356,5.379 51.362,5.374 51.504,5.340 51.650,5.326 51.796,5.320 Z M 60.497,5.319 C 60.656,5.323 60.815,5.337 60.970,5.374 60.970,14.991 60.970,14.991 60.970,14.991 60.815,15.029 60.656,15.043 60.497,15.048 60.497,6.335 60.497,6.335 60.497,6.335 60.497,5.998 60.497,5.661 60.498,5.325 60.497,5.323 60.497,5.321 60.497,5.319 Z M 51.091,5.470 C 51.091,14.896 51.091,14.896 51.091,14.896 51.068,14.881 51.047,14.865 51.025,14.849 50.921,14.770 50.828,14.679 50.720,14.605 50.720,11.947 50.720,9.290 50.720,6.633 50.720,6.343 50.721,6.053 50.719,5.763 50.846,5.674 50.956,5.564 51.083,5.476 51.086,5.474 51.088,5.472 51.091,5.470 Z M 61.239,5.471 C 61.265,5.488 61.290,5.507 61.314,5.526 61.414,5.602 61.505,5.691 61.609,5.762 61.609,10.256 61.609,10.256 61.609,10.256 61.609,11.706 61.610,13.155 61.609,14.605 61.479,14.694 61.369,14.807 61.239,14.895 Z M 2.057,5.724 C 9.921,5.724 9.921,5.724 9.921,5.724 10.087,6.038 10.253,6.351 10.419,6.665 1.559,6.665 1.559,6.665 1.559,6.665 1.725,6.351 1.891,6.038 2.057,5.724 Z M 50.451,5.832 C 50.451,14.534 50.451,14.534 50.451,14.534 50.326,14.517 50.203,14.489 50.081,14.459 50.081,13.976 50.081,13.976 50.081,13.976 50.080,11.287 50.081,8.597 50.080,5.908 50.201,5.878 50.322,5.851 50.445,5.833 50.447,5.833 50.449,5.832 50.451,5.832 Z M 61.878,5.832 C 62.003,5.849 62.126,5.878 62.249,5.908 62.249,13.321 62.249,13.321 62.249,13.321 62.249,13.700 62.248,14.079 62.249,14.458 62.127,14.488 62.004,14.517 61.878,14.534 Z M 48.658,5.900 C 49.712,5.900 49.712,5.900 49.712,5.900 49.712,14.482 49.712,14.482 49.712,14.482 48.658,14.482 48.658,14.482 48.658,14.482 Z M 98.128,5.971 C 98.180,5.969 98.232,6.011 98.237,6.064 98.239,12.235 98.239,12.235 98.239,12.235 98.239,12.823 98.240,13.410 98.239,13.998 98.239,14.110 98.238,14.222 98.238,14.334 98.243,14.381 98.215,14.431 98.169,14.446 98.104,14.455 98.038,14.454 97.973,14.454 97.934,14.451 97.895,14.458 97.856,14.450 97.812,14.442 97.777,14.402 97.774,14.358 97.774,14.033 97.774,13.709 97.774,13.384 97.773,10.992 97.772,8.599 97.773,6.206 97.774,6.164 97.771,6.121 97.773,6.079 97.773,6.033 97.805,5.986 97.852,5.977 97.943,5.967 98.036,5.974 98.128,5.971 Z M 99.840,5.972 C 99.878,5.970 99.915,5.992 99.935,6.024 99.952,6.049 99.948,6.081 99.949,6.111 99.950,8.800 99.950,11.489 99.950,14.178 99.948,14.233 99.952,14.288 99.950,14.343 99.952,14.390 99.920,14.437 99.873,14.448 99.790,14.457 99.707,14.453 99.623,14.453 99.595,14.455 99.566,14.454 99.540,14.440 99.506,14.424 99.486,14.387 99.486,14.350 99.485,11.982 99.485,9.614 99.484,7.246 99.484,6.870 99.485,6.494 99.484,6.118 99.481,6.083 99.484,6.047 99.503,6.018 99.520,5.991 99.550,5.977 99.581,5.974 99.667,5.970 99.753,5.973 99.840,5.972 Z M 97.478,6.012 C 97.477,6.016 97.477,6.019 97.476,6.023 97.477,6.019 97.477,6.016 97.478,6.012 Z M 98.534,6.012 C 98.534,6.016 98.535,6.019 98.535,6.023 98.535,6.019 98.534,6.016 98.534,6.012 Z M 99.189,6.012 C 99.188,6.016 99.188,6.019 99.187,6.023 99.188,6.019 99.188,6.016 99.189,6.012 Z M 100.245,6.012 C 100.245,6.016 100.246,6.019 100.247,6.023 100.246,6.019 100.245,6.016 100.245,6.012 Z M 62.659,6.287 C 97.472,6.287 97.472,6.287 97.472,6.287 97.472,14.138 97.472,14.138 97.472,14.138 62.659,14.138 62.659,14.138 62.659,14.138 Z M 98.539,6.287 C 99.183,6.287 99.183,6.287 99.183,6.287 99.183,14.138 99.183,14.138 99.183,14.138 98.539,14.138 98.539,14.138 98.539,14.138 Z M 100.251,6.287 C 100.499,6.287 100.499,6.287 100.499,6.287 100.499,14.138 100.499,14.138 100.499,14.138 100.251,14.138 100.251,14.138 100.251,14.138 Z M 27.786,6.536 C 37.525,6.536 37.525,6.536 37.525,6.536 37.525,10.274 37.525,10.274 37.525,10.274 37.617,10.191 37.708,10.107 37.799,10.022 37.708,10.107 37.617,10.191 37.525,10.274 37.505,10.291 37.486,10.308 37.466,10.326 37.389,10.391 37.309,10.458 37.213,10.496 37.193,10.504 37.169,10.503 37.153,10.487 37.090,10.438 37.046,10.370 37.000,10.305 36.900,10.157 36.813,10.001 36.725,9.845 36.725,6.963 36.725,6.963 36.725,6.963 30.952,6.963 30.952,6.963 30.952,6.963 30.666,6.965 30.377,6.996 30.102,7.078 29.758,7.176 29.437,7.359 29.186,7.614 28.955,7.847 28.790,8.139 28.688,8.448 28.568,8.821 28.530,9.216 28.547,9.605 28.561,9.959 28.629,10.313 28.772,10.638 28.967,11.092 29.337,11.469 29.787,11.673 30.111,11.819 30.465,11.889 30.819,11.902 32.788,11.903 34.757,11.904 36.725,11.904 36.725,10.994 36.725,10.994 36.725,10.994 36.753,11.015 36.782,11.035 36.812,11.053 36.922,11.117 37.051,11.154 37.179,11.142 37.301,11.132 37.416,11.091 37.525,11.036 37.525,11.941 37.525,11.941 37.525,11.941 27.786,11.941 27.786,11.941 27.786,11.941 Z M 63.863,7.017 C 63.772,7.020 63.681,7.035 63.597,7.070 63.339,7.170 63.150,7.427 63.137,7.704 63.134,9.257 63.134,10.811 63.133,12.364 63.135,12.509 63.124,12.657 63.158,12.799 63.216,13.037 63.406,13.235 63.638,13.311 63.743,13.349 63.855,13.347 63.965,13.348 71.385,13.349 78.806,13.349 86.226,13.349 86.350,13.357 86.477,13.340 86.590,13.289 86.713,13.234 86.811,13.134 86.885,13.023 97.235,13.023 97.235,13.023 97.235,13.023 97.235,7.344 97.235,7.344 97.235,7.344 88.724,7.344 88.724,7.344 88.724,7.344 88.582,7.147 88.345,7.026 88.104,7.017 80.023,7.017 71.943,7.017 63.863,7.017 Z M 27.264,7.045 C 27.264,11.525 27.264,11.525 27.264,11.525 26.513,11.480 25.762,11.434 25.011,11.389 25.011,7.225 25.011,7.225 25.011,7.225 25.762,7.165 26.513,7.105 27.264,7.045 Z M 1.426,7.160 C 7.110,7.160 7.110,7.160 7.110,7.160 7.110,13.221 7.110,13.221 7.110,13.221 5.445,13.135 3.780,13.049 2.114,12.963 1.885,11.029 1.656,9.094 1.426,7.160 Z M 63.867,7.344 C 70.636,7.344 70.636,7.344 70.636,7.344 71.235,9.208 71.235,9.208 71.235,9.208 67.042,9.208 67.042,9.208 67.042,9.208 66.668,8.339 66.668,8.339 66.668,8.339 63.461,8.339 63.461,8.339 63.461,8.339 63.461,7.751 63.461,7.751 63.461,7.751 63.461,7.526 63.642,7.344 63.867,7.344 Z M 70.784,7.344 C 71.079,7.344 71.079,7.344 71.079,7.344 71.376,8.266 71.673,9.189 71.969,10.111 81.211,10.111 81.211,10.111 81.211,10.111 81.211,10.374 81.211,10.374 81.211,10.374 71.759,10.374 71.759,10.374 71.759,10.374 71.688,10.156 71.618,9.938 71.548,9.720 66.624,9.720 66.624,9.720 66.624,9.720 66.500,9.431 66.375,9.141 66.250,8.851 63.461,8.851 63.461,8.851 63.461,8.851 63.461,8.480 63.461,8.480 63.461,8.480 66.575,8.480 66.575,8.480 66.575,8.480 66.700,8.770 66.825,9.059 66.949,9.349 68.443,9.349 69.936,9.349 71.429,9.349 71.214,8.681 70.999,8.012 70.784,7.344 Z M 71.228,7.344 C 88.085,7.344 88.085,7.344 88.085,7.344 88.085,7.344 88.536,7.526 88.498,7.729 88.496,7.737 88.495,7.744 88.492,7.751 88.382,8.055 88.382,8.055 88.382,8.055 82.443,8.055 82.443,8.055 82.443,8.055 81.704,8.055 81.377,8.412 81.377,9.165 81.377,9.774 81.377,9.774 81.377,9.774 81.211,9.774 81.211,9.774 81.211,9.774 81.211,9.970 81.211,9.970 81.211,9.970 72.072,9.970 72.072,9.970 72.072,9.970 Z M 36.301,7.387 C 36.301,9.127 36.301,9.127 36.301,9.127 36.239,9.032 36.174,8.939 36.104,8.850 36.004,8.724 35.890,8.604 35.750,8.522 35.672,8.476 35.581,8.448 35.490,8.449 35.341,8.454 35.199,8.513 35.076,8.593 34.884,8.720 34.724,8.889 34.572,9.060 34.453,9.193 34.338,9.331 34.222,9.467 34.207,9.485 34.192,9.503 34.177,9.520 34.192,9.503 34.207,9.485 34.222,9.467 34.222,7.614 34.222,7.614 34.222,7.614 32.826,7.614 32.826,7.614 32.826,7.614 32.826,10.239 32.826,10.239 32.826,10.239 32.863,10.242 32.901,10.246 32.938,10.248 32.901,10.246 32.863,10.242 32.826,10.239 32.775,10.233 32.724,10.227 32.673,10.218 32.661,10.216 32.648,10.213 32.635,10.211 32.611,10.206 32.586,10.201 32.562,10.195 32.586,10.201 32.611,10.206 32.635,10.211 32.749,9.941 32.798,9.644 32.774,9.352 32.739,8.882 32.509,8.430 32.153,8.122 31.825,7.835 31.391,7.676 30.956,7.676 30.806,7.676 30.656,7.695 30.510,7.731 30.140,7.821 29.803,8.035 29.558,8.326 29.367,8.551 29.234,8.826 29.172,9.115 29.093,9.480 29.129,9.870 29.275,10.214 29.437,10.601 29.740,10.926 30.112,11.120 30.502,11.324 30.967,11.377 31.393,11.272 31.731,11.192 32.040,11.007 32.278,10.756 32.400,10.803 32.526,10.839 32.654,10.864 32.711,10.874 32.768,10.882 32.826,10.888 32.826,10.934 32.826,10.934 32.826,10.934 34.222,10.934 34.222,10.934 34.222,10.934 34.222,10.463 34.222,10.463 34.222,10.463 34.421,10.303 34.594,10.111 34.749,9.908 34.887,9.729 35.012,9.540 35.145,9.357 35.204,9.277 35.264,9.196 35.341,9.133 35.367,9.113 35.397,9.092 35.432,9.094 35.463,9.100 35.486,9.126 35.508,9.147 35.561,9.199 35.602,9.264 35.643,9.325 35.749,9.494 35.838,9.673 35.932,9.849 36.048,10.070 36.165,10.292 36.301,10.502 36.301,11.480 36.301,11.480 36.301,11.480 31.352,11.480 31.352,11.480 31.352,11.480 31.160,11.479 30.967,11.484 30.775,11.474 30.483,11.459 30.189,11.397 29.924,11.269 29.762,11.191 29.614,11.085 29.487,10.956 29.275,10.741 29.135,10.463 29.057,10.174 29.005,9.982 28.979,9.783 28.970,9.585 28.958,9.283 28.980,8.979 29.059,8.687 29.127,8.435 29.243,8.194 29.412,7.993 29.601,7.770 29.856,7.607 30.131,7.513 30.388,7.424 30.660,7.391 30.930,7.387 32.720,7.387 34.511,7.387 36.301,7.387 Z M 24.516,7.395 C 24.516,8.954 24.516,8.954 24.516,8.954 24.506,8.946 24.496,8.938 24.486,8.931 24.341,8.830 24.169,8.772 23.998,8.733 23.609,8.649 23.211,8.628 22.815,8.619 22.814,8.346 22.814,8.074 22.814,7.802 23.072,7.783 23.330,7.753 23.583,7.704 23.899,7.644 24.210,7.551 24.497,7.405 24.503,7.402 24.510,7.398 24.516,7.395 Z M 8.348,7.397 C 9.281,7.397 9.281,7.397 9.281,7.397 9.281,7.809 9.281,7.809 9.281,7.809 9.281,8.623 9.281,8.623 9.281,8.623 9.281,8.871 9.281,8.871 9.281,8.871 9.281,11.762 9.281,11.762 9.281,11.762 8.348,11.762 8.348,11.762 8.348,11.762 8.348,8.871 8.348,8.871 8.348,8.871 8.348,8.623 8.348,8.623 8.348,8.623 8.348,7.809 8.348,7.809 8.348,7.809 Z M 88.829,7.627 C 96.952,7.627 96.952,7.627 96.952,7.627 96.952,12.740 96.952,12.740 96.952,12.740 93.007,12.740 93.007,12.740 93.007,12.740 91.012,12.740 89.016,12.739 87.021,12.740 87.608,11.135 88.193,9.528 88.778,7.922 88.820,7.830 88.837,7.727 88.829,7.627 Z M 7.605,7.809 C 8.101,7.809 8.101,7.809 8.101,7.809 8.101,8.623 8.101,8.623 8.101,8.623 7.605,8.623 7.605,8.623 7.605,8.623 Z M 9.529,7.809 C 11.822,7.809 11.822,7.809 11.822,7.809 11.822,8.623 11.822,8.623 11.822,8.623 9.529,8.623 9.529,8.623 9.529,8.623 Z M 30.956,7.826 C 31.883,7.826 32.630,8.573 32.630,9.501 32.630,9.742 32.579,9.970 32.488,10.177 32.353,10.140 32.222,10.089 32.100,10.019 32.077,10.006 32.055,9.992 32.032,9.978 32.097,9.832 32.133,9.671 32.133,9.501 32.133,8.848 31.608,8.323 30.956,8.323 30.303,8.323 29.778,8.848 29.778,9.501 29.778,10.153 30.303,10.678 30.956,10.678 31.224,10.678 31.470,10.588 31.668,10.438 31.702,10.461 31.737,10.483 31.772,10.505 31.887,10.576 32.007,10.640 32.130,10.695 31.829,10.992 31.414,11.175 30.956,11.175 30.028,11.175 29.281,10.428 29.281,9.501 29.281,8.573 30.028,7.826 30.956,7.826 Z M 12.317,7.975 C 22.320,7.975 22.320,7.975 22.320,7.975 22.320,8.458 22.320,8.458 22.320,8.458 12.317,8.458 12.317,8.458 12.317,8.458 12.317,8.297 12.317,8.136 12.317,7.975 Z M 90.370,8.138 C 90.060,8.138 89.905,8.402 89.811,8.697 88.864,11.645 88.864,11.645 88.864,11.645 88.770,11.940 89.114,12.204 89.423,12.204 89.733,12.204 89.888,11.940 89.982,11.645 90.929,8.697 90.929,8.697 90.929,8.697 91.024,8.402 90.680,8.138 90.370,8.138 Z M 92.910,8.138 C 92.600,8.138 92.445,8.402 92.351,8.697 91.404,11.645 91.404,11.645 91.404,11.645 91.309,11.940 91.653,12.204 91.963,12.204 92.273,12.204 92.428,11.940 92.522,11.645 93.469,8.697 93.469,8.697 93.469,8.697 93.563,8.402 93.219,8.138 92.910,8.138 Z M 95.449,8.138 C 95.140,8.138 94.985,8.402 94.890,8.697 93.944,11.645 93.944,11.645 93.944,11.645 93.849,11.940 94.193,12.204 94.503,12.204 94.813,12.204 94.967,11.940 95.062,11.645 96.009,8.697 96.009,8.697 96.009,8.697 96.103,8.402 95.759,8.138 95.449,8.138 Z M 88.330,8.197 C 88.195,8.568 88.195,8.568 88.195,8.568 82.548,8.568 82.548,8.568 82.548,8.568 82.523,8.567 82.497,8.567 82.471,8.567 82.394,8.568 82.317,8.578 82.247,8.610 82.052,8.698 81.915,8.896 81.893,9.108 81.889,9.330 81.890,9.552 81.891,9.774 81.518,9.774 81.518,9.774 81.518,9.774 81.518,9.683 81.518,9.592 81.518,9.502 81.519,9.365 81.516,9.228 81.520,9.091 81.525,8.953 81.541,8.812 81.586,8.681 81.613,8.606 81.648,8.531 81.699,8.467 81.777,8.369 81.887,8.298 82.006,8.259 82.130,8.217 82.262,8.202 82.392,8.198 84.371,8.198 86.351,8.197 88.330,8.197 Z M 92.891,8.271 C 92.917,8.271 92.943,8.272 92.968,8.275 93.085,8.291 93.197,8.346 93.278,8.432 93.328,8.485 93.363,8.560 93.348,8.634 93.050,9.568 92.750,10.503 92.450,11.437 92.407,11.566 92.371,11.699 92.308,11.819 92.263,11.905 92.203,11.988 92.116,12.035 92.067,12.062 92.010,12.072 91.956,12.071 91.913,12.070 91.868,12.063 91.827,12.050 91.740,12.024 91.658,11.978 91.596,11.911 91.544,11.858 91.510,11.781 91.525,11.707 91.834,10.741 92.143,9.776 92.453,8.811 92.497,8.674 92.543,8.533 92.631,8.417 92.691,8.334 92.787,8.274 92.891,8.271 Z M 90.350,8.271 C 90.493,8.268 90.639,8.327 90.738,8.432 90.789,8.485 90.823,8.562 90.808,8.636 90.585,9.331 90.363,10.025 90.140,10.720 90.057,10.979 89.973,11.238 89.891,11.497 89.859,11.594 89.830,11.691 89.786,11.783 89.745,11.870 89.692,11.956 89.613,12.013 89.542,12.065 89.449,12.079 89.364,12.067 89.245,12.049 89.130,11.994 89.049,11.904 89.003,11.852 88.970,11.780 88.985,11.709 89.033,11.557 89.082,11.405 89.130,11.253 89.379,10.474 89.629,9.696 89.880,8.917 89.918,8.802 89.950,8.684 90.000,8.573 90.029,8.509 90.066,8.447 90.111,8.392 90.172,8.322 90.257,8.274 90.350,8.271 Z M 95.429,8.271 C 95.466,8.270 95.503,8.273 95.539,8.281 95.647,8.302 95.751,8.356 95.824,8.440 95.872,8.492 95.902,8.564 95.888,8.635 95.602,9.529 95.315,10.423 95.028,11.317 94.983,11.449 94.947,11.584 94.896,11.713 94.854,11.819 94.799,11.925 94.710,11.999 94.646,12.055 94.558,12.076 94.474,12.070 94.344,12.059 94.216,12.001 94.128,11.903 94.082,11.851 94.050,11.778 94.065,11.708 94.136,11.482 94.209,11.256 94.281,11.030 94.526,10.267 94.770,9.503 95.017,8.740 95.056,8.618 95.105,8.495 95.188,8.395 95.248,8.323 95.337,8.274 95.429,8.271 Z M 40.771,8.511 C 40.771,11.758 40.771,11.758 40.771,11.758 40.917,11.758 40.917,11.758 40.917,11.758 40.917,10.433 40.917,10.433 40.917,10.433 41.914,10.433 41.914,10.433 41.914,10.433 41.914,10.224 41.914,10.224 41.914,10.224 40.917,10.224 40.917,10.224 40.917,10.224 40.917,9.979 40.917,9.979 40.917,9.979 41.859,9.979 41.859,9.979 41.859,9.979 41.859,9.770 41.859,9.770 41.859,9.770 40.917,9.770 40.917,9.770 40.917,9.770 40.917,8.511 40.917,8.511 40.917,8.511 Z M 43.322,8.511 C 43.322,8.605 43.322,8.605 43.322,8.605 42.933,8.605 42.933,8.605 42.933,8.605 42.933,8.752 42.933,8.752 42.933,8.752 43.301,8.752 43.301,8.752 43.301,8.752 43.301,8.796 43.301,8.796 43.301,8.796 40.961,8.796 40.961,8.796 40.961,8.796 40.961,9.409 40.961,9.409 40.961,9.409 43.301,9.409 43.301,9.409 43.301,9.409 43.301,9.535 43.301,9.535 43.301,9.535 43.322,9.535 43.322,9.535 43.322,9.535 43.322,10.711 43.322,10.711 43.322,10.711 43.301,10.711 43.301,10.711 43.301,10.711 43.301,10.837 43.301,10.837 43.301,10.837 40.961,10.837 40.961,10.837 40.961,10.837 40.961,11.449 40.961,11.449 40.961,11.449 43.301,11.449 43.301,11.449 43.301,11.449 43.301,11.494 43.301,11.494 43.301,11.494 42.933,11.494 42.933,11.494 42.933,11.494 42.933,11.641 42.933,11.641 42.933,11.641 43.322,11.641 43.322,11.641 43.322,11.641 43.322,11.758 43.322,11.758 43.322,11.758 43.468,11.758 43.468,11.758 43.468,11.758 43.468,11.575 43.468,11.575 43.468,11.575 43.650,11.575 43.650,11.575 43.650,11.575 43.650,11.302 43.650,11.302 43.650,11.302 43.884,11.302 43.884,11.302 43.884,11.302 43.884,10.984 43.884,10.984 43.884,10.984 43.650,10.984 43.650,10.984 43.650,10.984 43.650,10.711 43.650,10.711 43.650,10.711 43.468,10.711 43.468,10.711 43.468,10.711 43.468,9.535 43.468,9.535 43.468,9.535 43.650,9.535 43.650,9.535 43.650,9.535 43.650,9.262 43.650,9.262 43.650,9.262 43.884,9.262 43.884,9.262 43.884,9.262 43.884,8.943 43.884,8.943 43.884,8.943 43.650,8.943 43.650,8.943 43.650,8.943 43.650,8.671 43.650,8.671 43.650,8.671 43.468,8.671 43.468,8.671 43.468,8.671 43.468,8.605 43.468,8.605 43.468,8.605 43.468,8.511 43.468,8.511 43.468,8.511 Z M 40.961,8.525 C 40.961,8.752 40.961,8.752 40.961,8.752 42.361,8.752 42.361,8.752 42.361,8.752 42.100,8.525 42.100,8.525 42.100,8.525 41.416,8.525 41.416,8.525 41.416,8.525 Z M 35.503,8.547 C 36.149,8.547 36.824,10.549 37.164,10.598 37.566,10.655 38.671,8.824 40.216,8.812 40.216,9.261 40.216,9.261 40.216,9.261 38.879,9.274 37.943,11.047 37.126,11.047 36.340,11.047 35.830,8.996 35.427,8.996 34.986,8.996 34.561,10.801 33.006,10.801 31.928,10.801 31.008,9.758 30.897,9.648 30.836,9.586 30.792,9.204 31.082,9.204 31.448,9.204 31.539,10.352 33.120,10.352 34.045,10.352 34.722,8.547 35.503,8.547 Z M 30.956,8.616 C 31.446,8.616 31.840,9.011 31.840,9.501 31.840,9.601 31.823,9.698 31.792,9.788 31.810,9.805 31.828,9.821 31.846,9.837 31.793,9.790 31.743,9.740 31.695,9.688 31.600,9.584 31.519,9.467 31.433,9.355 31.387,9.296 31.340,9.238 31.284,9.188 31.226,9.139 31.153,9.106 31.077,9.107 30.969,9.105 30.859,9.162 30.807,9.258 30.752,9.356 30.745,9.474 30.766,9.582 30.778,9.642 30.806,9.700 30.852,9.741 31.028,9.926 31.215,10.100 31.415,10.256 31.281,10.338 31.125,10.385 30.956,10.385 30.466,10.385 30.071,9.991 30.071,9.501 30.071,9.011 30.466,8.616 30.956,8.616 Z M 12.070,8.705 C 22.567,8.705 22.567,8.705 22.567,8.705 22.567,8.863 22.567,8.863 22.567,8.863 24.246,8.863 24.440,9.153 24.457,9.309 24.440,9.465 24.246,9.755 22.567,9.755 22.567,9.913 22.567,9.913 22.567,9.913 12.070,9.913 12.070,9.913 12.070,9.913 12.070,9.758 12.070,9.758 12.070,9.758 10.945,9.758 9.529,9.088 9.529,9.088 9.529,8.871 9.529,8.871 9.529,8.871 12.070,8.871 12.070,8.871 12.070,8.871 Z M 82.443,8.710 C 88.143,8.710 88.143,8.710 88.143,8.710 87.685,9.970 87.685,9.970 87.685,9.970 82.197,9.970 82.197,9.970 82.197,9.970 82.197,9.774 82.197,9.774 82.197,9.774 82.031,9.774 82.031,9.774 82.031,9.774 82.031,9.165 82.031,9.165 82.031,9.165 82.031,8.949 82.208,8.710 82.443,8.710 Z M 40.331,8.785 C 40.450,8.785 40.450,8.785 40.450,8.785 40.450,9.420 40.450,9.420 40.450,9.420 40.331,9.420 40.331,9.420 40.331,9.420 40.331,9.208 40.331,8.997 40.331,8.785 Z M 43.416,8.785 C 43.535,8.785 43.535,8.785 43.535,8.785 43.535,9.420 43.535,9.420 43.535,9.420 43.416,9.420 43.416,9.420 43.416,9.420 Z M 41.076,8.911 C 43.186,8.911 43.186,8.911 43.186,8.911 43.186,9.294 43.186,9.294 43.186,9.294 41.076,9.294 41.076,9.294 41.076,9.294 Z M 63.461,8.993 C 66.157,8.993 66.157,8.993 66.157,8.993 66.531,9.862 66.531,9.862 66.531,9.862 66.668,9.862 66.668,9.862 66.668,9.862 71.445,9.862 71.445,9.862 71.445,9.862 71.656,10.516 71.656,10.516 71.656,10.516 72.248,10.516 72.248,10.516 72.248,10.516 81.211,10.516 81.211,10.516 81.211,10.516 81.211,10.760 81.211,10.760 81.211,10.760 81.377,10.760 81.377,10.760 81.377,10.760 82.031,10.760 82.031,10.760 82.031,10.760 82.197,10.760 82.197,10.760 82.197,10.760 82.197,10.516 82.197,10.516 82.197,10.516 87.486,10.516 87.486,10.516 87.486,10.516 87.537,10.374 87.537,10.374 87.537,10.374 82.197,10.374 82.197,10.374 82.197,10.374 82.197,10.111 82.197,10.111 82.197,10.111 87.633,10.111 87.633,10.111 87.633,10.111 87.486,10.516 87.486,10.516 87.486,10.516 87.353,10.882 87.353,10.882 87.353,10.882 79.802,10.882 79.802,10.882 79.802,10.882 79.802,13.023 79.802,13.023 79.802,13.023 71.382,13.023 71.382,13.023 71.382,13.023 70.861,10.550 70.861,10.550 70.861,10.550 63.461,10.550 63.461,10.550 63.461,10.550 Z M 33.050,8.999 C 33.998,8.999 33.998,8.999 33.998,8.999 33.998,9.719 33.998,9.719 33.998,9.719 33.948,9.772 33.897,9.824 33.845,9.874 33.050,9.874 33.050,9.874 33.050,9.874 Z M 43.769,9.058 C 43.769,9.120 43.769,9.120 43.769,9.120 43.767,9.128 43.775,9.146 43.765,9.147 43.765,9.085 43.765,9.085 43.765,9.085 43.767,9.077 43.760,9.059 43.769,9.058 Z M 8.003,9.125 C 8.003,9.201 8.003,9.201 8.003,9.201 7.986,9.179 7.966,9.159 7.944,9.141 7.964,9.136 7.984,9.131 8.003,9.125 Z M 7.705,9.154 C 7.700,9.154 7.696,9.155 7.691,9.155 7.696,9.155 7.700,9.154 7.705,9.154 Z M 7.687,9.155 C 7.684,9.155 7.681,9.156 7.678,9.156 7.681,9.156 7.684,9.155 7.687,9.155 Z M 7.672,9.156 C 7.670,9.157 7.667,9.157 7.664,9.157 7.667,9.157 7.670,9.157 7.672,9.156 Z M 7.659,9.158 C 7.656,9.159 7.654,9.159 7.651,9.160 7.654,9.159 7.656,9.159 7.659,9.158 Z M 7.645,9.161 C 7.643,9.161 7.640,9.162 7.638,9.162 7.640,9.162 7.643,9.161 7.645,9.161 Z M 7.632,9.164 C 7.630,9.164 7.628,9.165 7.625,9.166 7.628,9.165 7.630,9.164 7.632,9.164 Z M 7.601,9.174 C 7.600,9.175 7.598,9.175 7.596,9.176 7.598,9.175 7.600,9.175 7.601,9.174 Z M 7.589,9.179 C 7.588,9.180 7.586,9.180 7.584,9.181 7.586,9.180 7.588,9.180 7.589,9.179 Z M 7.578,9.184 C 7.576,9.185 7.575,9.186 7.573,9.187 7.575,9.186 7.576,9.185 7.578,9.184 Z M 7.566,9.191 C 7.565,9.191 7.563,9.192 7.562,9.193 7.563,9.192 7.565,9.191 7.566,9.191 Z M 7.555,9.197 C 7.554,9.198 7.553,9.198 7.552,9.199 7.553,9.198 7.554,9.198 7.555,9.197 Z M 7.702,9.208 C 7.735,9.207 7.768,9.214 7.799,9.228 7.856,9.252 7.905,9.303 7.924,9.364 7.942,9.418 7.940,9.478 7.917,9.531 7.889,9.598 7.825,9.649 7.755,9.665 7.692,9.679 7.621,9.664 7.568,9.625 7.512,9.585 7.479,9.520 7.474,9.452 7.471,9.396 7.488,9.338 7.524,9.295 7.564,9.245 7.623,9.212 7.687,9.208 7.692,9.208 7.697,9.208 7.702,9.208 Z M 9.776,9.462 C 10.057,9.576 10.344,9.677 10.634,9.762 11.023,9.874 11.419,9.966 11.822,9.995 11.822,10.828 11.822,10.828 11.822,10.828 11.670,10.837 11.517,10.853 11.366,10.876 10.816,10.962 10.281,11.129 9.776,11.362 Z M 36.539,9.518 C 36.575,9.581 36.611,9.643 36.647,9.706 36.611,9.644 36.575,9.581 36.539,9.518 Z M 34.149,9.551 C 34.125,9.579 34.100,9.607 34.075,9.635 34.100,9.607 34.125,9.579 34.149,9.551 Z M 24.516,9.664 C 24.516,10.184 24.516,10.704 24.516,11.224 24.374,11.150 24.226,11.089 24.074,11.039 23.667,10.906 23.240,10.848 22.815,10.817 22.815,9.999 22.815,9.999 22.815,9.999 23.050,9.994 23.286,9.985 23.521,9.960 23.716,9.938 23.911,9.912 24.100,9.859 24.247,9.818 24.394,9.763 24.513,9.666 24.514,9.665 24.515,9.665 24.516,9.664 Z M 34.044,9.669 C 34.029,9.686 34.013,9.702 33.998,9.719 34.013,9.702 34.029,9.686 34.044,9.669 Z M 8.003,9.676 C 8.003,9.810 8.003,9.810 8.003,9.810 7.984,9.785 7.961,9.762 7.935,9.743 7.957,9.726 7.978,9.707 7.996,9.686 7.998,9.682 8.001,9.679 8.003,9.676 Z M 7.552,9.678 C 7.553,9.679 7.554,9.680 7.555,9.680 7.554,9.680 7.553,9.679 7.552,9.678 Z M 7.562,9.685 C 7.564,9.685 7.565,9.686 7.566,9.687 7.565,9.686 7.564,9.685 7.562,9.685 Z M 7.573,9.691 C 7.575,9.691 7.576,9.692 7.578,9.693 7.576,9.692 7.575,9.691 7.573,9.691 Z M 7.584,9.696 C 7.586,9.697 7.588,9.698 7.589,9.698 7.588,9.698 7.586,9.697 7.584,9.696 Z M 7.596,9.701 C 7.598,9.702 7.600,9.703 7.601,9.703 7.600,9.703 7.598,9.702 7.596,9.701 Z M 7.625,9.711 C 7.628,9.712 7.630,9.713 7.632,9.714 7.630,9.713 7.628,9.712 7.625,9.711 Z M 7.638,9.715 C 7.640,9.715 7.643,9.716 7.645,9.717 7.643,9.716 7.640,9.715 7.638,9.715 Z M 7.651,9.718 C 7.654,9.718 7.656,9.719 7.659,9.719 7.656,9.719 7.654,9.718 7.651,9.718 Z M 7.664,9.720 C 7.667,9.720 7.670,9.721 7.672,9.721 7.670,9.721 7.667,9.720 7.664,9.720 Z M 7.678,9.722 C 7.681,9.722 7.684,9.722 7.687,9.722 7.684,9.722 7.681,9.722 7.678,9.722 Z M 7.691,9.722 C 7.696,9.723 7.700,9.723 7.705,9.723 7.700,9.723 7.696,9.723 7.691,9.722 Z M 7.574,9.737 C 7.575,9.737 7.576,9.737 7.576,9.738 7.575,9.749 7.556,9.745 7.570,9.737 7.571,9.737 7.572,9.736 7.574,9.737 Z M 7.705,9.763 C 7.700,9.763 7.696,9.763 7.691,9.763 7.696,9.763 7.700,9.763 7.705,9.763 Z M 7.687,9.763 C 7.684,9.764 7.681,9.764 7.678,9.764 7.681,9.764 7.684,9.764 7.687,9.763 Z M 7.672,9.765 C 7.670,9.765 7.667,9.765 7.664,9.766 7.667,9.765 7.670,9.765 7.672,9.765 Z M 7.659,9.767 C 7.656,9.767 7.654,9.767 7.651,9.768 7.654,9.767 7.656,9.767 7.659,9.767 Z M 7.645,9.769 C 7.643,9.770 7.640,9.770 7.638,9.771 7.640,9.770 7.643,9.770 7.645,9.769 Z M 7.632,9.772 C 7.630,9.773 7.627,9.774 7.624,9.774 7.627,9.774 7.630,9.773 7.632,9.772 Z M 7.620,9.776 C 7.616,9.777 7.612,9.778 7.608,9.780 7.612,9.778 7.616,9.777 7.620,9.776 Z M 7.602,9.782 C 7.600,9.783 7.598,9.784 7.596,9.784 7.598,9.784 7.600,9.783 7.602,9.782 Z M 7.590,9.787 C 7.588,9.788 7.586,9.789 7.584,9.790 7.586,9.789 7.588,9.788 7.590,9.787 Z M 7.578,9.793 C 7.576,9.794 7.575,9.794 7.573,9.795 7.575,9.794 7.576,9.794 7.578,9.793 Z M 7.566,9.799 C 7.565,9.800 7.563,9.800 7.562,9.801 7.563,9.800 7.565,9.800 7.566,9.799 Z M 7.555,9.805 C 7.554,9.806 7.553,9.807 7.552,9.807 7.553,9.807 7.554,9.806 7.555,9.805 Z M 7.708,9.816 C 7.745,9.816 7.782,9.826 7.814,9.843 7.877,9.875 7.922,9.939 7.933,10.009 7.948,10.093 7.912,10.182 7.844,10.232 7.768,10.291 7.656,10.293 7.577,10.240 7.503,10.192 7.463,10.099 7.477,10.012 7.490,9.904 7.592,9.816 7.701,9.816 7.704,9.816 7.706,9.816 7.708,9.816 Z M 31.854,9.844 C 31.870,9.858 31.887,9.872 31.903,9.885 31.887,9.872 31.870,9.858 31.854,9.844 Z M 81.328,9.891 C 82.079,9.891 82.079,9.891 82.079,9.891 82.079,10.642 82.079,10.642 82.079,10.642 81.328,10.642 81.328,10.642 81.328,10.642 Z M 31.913,9.893 C 31.930,9.906 31.947,9.919 31.964,9.932 31.947,9.919 31.930,9.906 31.913,9.893 Z M 37.899,9.929 C 37.866,9.960 37.832,9.991 37.799,10.022 37.799,10.021 37.799,10.021 37.799,10.021 37.832,9.990 37.866,9.960 37.899,9.929 Z M 31.972,9.937 C 31.991,9.951 32.012,9.965 32.032,9.978 32.012,9.965 31.991,9.951 31.972,9.937 Z M 12.317,10.161 C 22.320,10.161 22.320,10.161 22.320,10.161 22.320,10.644 22.320,10.644 22.320,10.644 12.317,10.644 12.317,10.644 12.317,10.644 12.317,10.483 12.317,10.322 12.317,10.161 Z M 32.488,10.177 C 32.512,10.183 32.537,10.190 32.561,10.195 32.537,10.190 32.512,10.183 32.488,10.177 Z M 32.955,10.249 C 32.969,10.250 32.983,10.251 32.997,10.251 32.983,10.251 32.969,10.250 32.955,10.249 Z M 8.003,10.285 C 8.003,10.418 8.003,10.418 8.003,10.418 7.984,10.393 7.961,10.371 7.936,10.351 7.959,10.333 7.981,10.312 8.000,10.289 8.001,10.288 8.002,10.286 8.003,10.285 Z M 7.552,10.287 C 7.553,10.287 7.554,10.288 7.555,10.289 7.554,10.288 7.553,10.287 7.552,10.287 Z M 7.562,10.293 C 7.563,10.294 7.565,10.294 7.566,10.295 7.565,10.294 7.563,10.294 7.562,10.293 Z M 7.573,10.299 C 7.575,10.300 7.576,10.300 7.578,10.301 7.576,10.300 7.575,10.300 7.573,10.299 Z M 31.476,10.303 C 31.477,10.304 31.478,10.304 31.479,10.305 31.478,10.304 31.477,10.304 31.476,10.303 Z M 7.584,10.304 C 7.586,10.305 7.588,10.306 7.589,10.307 7.588,10.306 7.586,10.305 7.584,10.304 Z M 7.596,10.310 C 7.598,10.310 7.600,10.311 7.601,10.312 7.600,10.311 7.598,10.310 7.596,10.310 Z M 7.625,10.320 C 7.628,10.320 7.630,10.321 7.632,10.322 7.630,10.321 7.628,10.320 7.625,10.320 Z M 7.638,10.323 C 7.640,10.324 7.643,10.324 7.645,10.325 7.643,10.324 7.640,10.324 7.638,10.323 Z M 7.651,10.326 C 7.654,10.326 7.656,10.327 7.659,10.327 7.656,10.327 7.654,10.326 7.651,10.326 Z M 7.664,10.328 C 7.667,10.329 7.670,10.329 7.672,10.329 7.670,10.329 7.667,10.329 7.664,10.328 Z M 7.678,10.330 C 7.681,10.330 7.684,10.330 7.687,10.330 7.684,10.330 7.681,10.330 7.678,10.330 Z M 7.691,10.331 C 7.696,10.331 7.700,10.331 7.705,10.331 7.700,10.331 7.696,10.331 7.691,10.331 Z M 7.572,10.345 C 7.576,10.345 7.580,10.347 7.580,10.352 7.574,10.363 7.558,10.352 7.570,10.345 7.570,10.345 7.571,10.345 7.572,10.345 Z M 7.705,10.371 C 7.700,10.371 7.696,10.371 7.691,10.371 7.696,10.371 7.700,10.371 7.705,10.371 Z M 7.687,10.372 C 7.684,10.372 7.681,10.372 7.678,10.372 7.681,10.372 7.684,10.372 7.687,10.372 Z M 7.672,10.373 C 7.670,10.373 7.667,10.374 7.664,10.374 7.667,10.374 7.670,10.373 7.672,10.373 Z M 7.659,10.375 C 7.656,10.375 7.654,10.376 7.651,10.376 7.654,10.376 7.656,10.375 7.659,10.375 Z M 7.645,10.377 C 7.643,10.378 7.640,10.378 7.638,10.379 7.640,10.378 7.643,10.378 7.645,10.377 Z M 7.632,10.380 C 7.630,10.381 7.628,10.382 7.625,10.382 7.628,10.382 7.630,10.381 7.632,10.380 Z M 7.601,10.391 C 7.600,10.391 7.598,10.392 7.596,10.393 7.598,10.392 7.600,10.391 7.601,10.391 Z M 7.589,10.396 C 7.588,10.396 7.586,10.397 7.584,10.398 7.586,10.397 7.588,10.396 7.589,10.396 Z M 7.578,10.401 C 7.576,10.402 7.575,10.403 7.573,10.403 7.575,10.403 7.576,10.402 7.578,10.401 Z M 7.566,10.407 C 7.565,10.408 7.563,10.409 7.562,10.409 7.563,10.409 7.565,10.408 7.566,10.407 Z M 7.555,10.414 C 7.554,10.414 7.553,10.415 7.552,10.416 7.553,10.415 7.554,10.414 7.555,10.414 Z M 7.708,10.424 C 7.748,10.425 7.788,10.436 7.822,10.456 7.893,10.496 7.938,10.578 7.936,10.659 7.936,10.759 7.863,10.853 7.767,10.878 7.713,10.894 7.651,10.887 7.601,10.862 7.564,10.844 7.531,10.813 7.509,10.779 7.467,10.711 7.462,10.621 7.499,10.550 7.535,10.478 7.612,10.428 7.692,10.424 7.695,10.424 7.698,10.424 7.700,10.424 7.703,10.424 7.706,10.424 7.708,10.424 Z M 34.189,10.489 C 34.185,10.491 34.182,10.494 34.178,10.497 34.182,10.494 34.185,10.491 34.189,10.489 Z M 34.150,10.518 C 34.143,10.523 34.136,10.528 34.130,10.533 34.136,10.528 34.143,10.523 34.150,10.518 Z M 34.107,10.549 C 34.093,10.559 34.078,10.569 34.063,10.579 34.039,10.596 34.014,10.612 33.988,10.627 33.963,10.642 33.938,10.657 33.912,10.671 33.886,10.685 33.859,10.699 33.833,10.711 33.806,10.724 33.779,10.736 33.752,10.748 33.725,10.760 33.697,10.771 33.670,10.781 33.642,10.791 33.614,10.801 33.586,10.810 33.558,10.819 33.530,10.827 33.501,10.834 33.473,10.842 33.444,10.849 33.415,10.855 33.385,10.862 33.355,10.867 33.325,10.872 33.355,10.867 33.385,10.862 33.415,10.855 33.444,10.849 33.473,10.842 33.501,10.834 33.530,10.827 33.558,10.819 33.586,10.810 33.614,10.801 33.642,10.791 33.670,10.781 33.697,10.771 33.725,10.760 33.752,10.748 33.779,10.736 33.806,10.724 33.833,10.711 33.859,10.699 33.886,10.685 33.912,10.671 33.938,10.657 33.963,10.642 33.988,10.627 34.014,10.612 34.039,10.596 34.063,10.579 34.078,10.569 34.093,10.559 34.107,10.549 Z M 36.367,10.600 C 36.390,10.633 36.414,10.665 36.438,10.697 36.414,10.665 36.390,10.633 36.367,10.600 Z M 63.461,10.691 C 70.746,10.691 70.746,10.691 70.746,10.691 70.910,11.468 71.074,12.245 71.238,13.023 70.858,13.023 70.858,13.023 70.858,13.023 70.720,12.369 70.583,11.716 70.445,11.063 63.461,11.063 63.461,11.063 63.461,11.063 Z M 40.216,10.711 C 40.216,11.575 40.216,11.575 40.216,11.575 40.565,11.575 40.565,11.575 40.565,11.575 40.565,11.449 40.565,11.449 40.565,11.449 40.727,11.449 40.727,11.449 40.727,11.449 40.727,10.837 40.727,10.837 40.727,10.837 40.565,10.837 40.565,10.837 40.565,10.837 40.565,10.711 40.565,10.711 40.565,10.711 Z M 40.331,10.826 C 40.450,10.826 40.450,10.826 40.450,10.826 40.450,11.460 40.450,11.460 40.450,11.460 40.331,11.460 40.331,11.460 40.331,11.460 40.331,11.249 40.331,11.037 40.331,10.826 Z M 43.416,10.826 C 43.535,10.826 43.535,10.826 43.535,10.826 43.535,11.460 43.535,11.460 43.535,11.460 43.416,11.460 43.416,11.460 43.416,11.460 Z M 33.317,10.874 C 33.288,10.878 33.259,10.882 33.230,10.886 33.259,10.882 33.288,10.878 33.317,10.874 Z M 33.218,10.887 C 33.193,10.889 33.167,10.892 33.142,10.893 33.167,10.892 33.193,10.889 33.218,10.887 Z M 32.862,10.891 C 32.880,10.893 32.899,10.894 32.917,10.895 32.899,10.894 32.880,10.893 32.862,10.891 Z M 8.003,10.893 C 8.003,11.026 8.003,11.026 8.003,11.026 7.984,11.001 7.961,10.979 7.936,10.960 7.958,10.943 7.978,10.923 7.996,10.902 7.998,10.899 8.001,10.896 8.003,10.893 Z M 33.123,10.895 C 33.097,10.896 33.072,10.897 33.046,10.897 33.072,10.897 33.097,10.896 33.123,10.895 Z M 7.552,10.895 C 7.553,10.896 7.554,10.896 7.555,10.897 7.554,10.896 7.553,10.896 7.552,10.895 Z M 32.959,10.897 C 32.979,10.897 32.999,10.897 33.019,10.897 32.999,10.897 32.979,10.897 32.959,10.897 Z M 7.562,10.901 C 7.564,10.902 7.565,10.903 7.566,10.903 7.565,10.903 7.564,10.902 7.562,10.901 Z M 7.573,10.907 C 7.575,10.908 7.576,10.909 7.578,10.909 7.576,10.909 7.575,10.908 7.573,10.907 Z M 7.584,10.913 C 7.586,10.913 7.588,10.914 7.589,10.915 7.588,10.914 7.586,10.913 7.584,10.913 Z M 7.596,10.918 C 7.598,10.919 7.600,10.919 7.601,10.920 7.600,10.919 7.598,10.919 7.596,10.918 Z M 37.714,10.924 C 37.710,10.926 37.707,10.929 37.704,10.931 37.707,10.929 37.710,10.926 37.714,10.924 Z M 7.625,10.928 C 7.628,10.929 7.630,10.929 7.632,10.930 7.630,10.929 7.628,10.929 7.625,10.928 Z M 7.638,10.931 C 7.640,10.932 7.643,10.933 7.645,10.933 7.643,10.933 7.640,10.932 7.638,10.931 Z M 7.651,10.934 C 7.654,10.935 7.656,10.935 7.659,10.936 7.656,10.935 7.654,10.935 7.651,10.934 Z M 7.664,10.936 C 7.667,10.937 7.670,10.937 7.672,10.937 7.670,10.937 7.667,10.937 7.664,10.936 Z M 7.678,10.938 C 7.681,10.938 7.684,10.939 7.687,10.939 7.684,10.939 7.681,10.938 7.678,10.938 Z M 7.691,10.939 C 7.696,10.939 7.700,10.939 7.705,10.939 7.700,10.939 7.696,10.939 7.691,10.939 Z M 41.076,10.952 C 43.186,10.952 43.186,10.952 43.186,10.952 43.186,11.334 43.186,11.334 43.186,11.334 41.076,11.334 41.076,11.334 41.076,11.334 Z M 7.567,10.955 C 7.570,10.955 7.573,10.958 7.575,10.958 7.585,10.966 7.557,10.967 7.567,10.955 Z M 37.612,10.989 C 37.598,10.997 37.583,11.005 37.569,11.013 37.583,11.005 37.598,10.997 37.612,10.989 Z M 79.944,11.023 C 87.301,11.023 87.301,11.023 87.301,11.023 87.166,11.394 87.166,11.394 87.166,11.394 80.315,11.394 80.315,11.394 80.315,11.394 80.315,13.023 80.315,13.023 80.315,13.023 79.944,13.023 79.944,13.023 79.944,13.023 Z M 43.769,11.099 C 43.769,11.160 43.769,11.160 43.769,11.160 43.767,11.168 43.775,11.186 43.765,11.187 43.765,11.126 43.765,11.126 43.765,11.126 43.767,11.118 43.760,11.100 43.769,11.099 Z M 63.461,11.204 C 70.330,11.204 70.330,11.204 70.330,11.204 70.458,11.810 70.586,12.416 70.714,13.023 63.867,13.023 63.867,13.023 63.867,13.023 63.642,13.023 63.461,12.841 63.461,12.615 Z M 40.961,11.494 C 40.961,11.720 40.961,11.720 40.961,11.720 41.416,11.720 41.416,11.720 41.416,11.720 42.100,11.720 42.100,11.720 42.100,11.720 42.361,11.494 42.361,11.494 42.361,11.494 Z M 8.003,11.501 C 8.003,11.578 8.003,11.578 8.003,11.578 7.983,11.572 7.963,11.567 7.943,11.562 7.963,11.546 7.982,11.528 7.998,11.508 8.000,11.506 8.002,11.503 8.003,11.501 Z M 80.456,11.536 C 87.114,11.536 87.114,11.536 87.114,11.536 86.721,12.615 86.721,12.615 86.721,12.615 86.644,12.827 86.540,13.023 86.315,13.023 80.456,13.023 80.456,13.023 80.456,13.023 Z M 27.794,12.215 C 37.516,12.215 37.516,12.215 37.516,12.215 37.516,12.610 37.516,12.610 37.516,12.610 33.339,12.610 33.339,12.610 33.339,12.610 33.339,14.904 33.339,14.904 33.339,14.904 33.083,14.904 33.083,14.904 33.083,14.904 31.320,14.171 29.557,13.437 27.794,12.704 Z M 34.259,12.893 C 37.542,12.893 37.542,12.893 37.542,12.893 37.542,14.335 37.542,14.335 37.542,14.335 Z M 28.441,13.279 C 31.698,14.634 31.698,14.634 31.698,14.634 31.648,14.763 31.598,14.892 31.551,15.022 31.471,15.245 31.391,15.469 31.328,15.697 31.257,15.943 31.224,16.197 31.198,16.451 31.175,16.648 31.163,16.846 31.128,17.040 31.099,17.221 31.016,17.390 30.913,17.539 30.728,17.804 30.498,18.032 30.282,18.271 30.170,18.395 30.057,18.522 29.968,18.664 29.917,18.746 29.873,18.834 29.845,18.926 29.822,18.999 29.807,19.074 29.795,19.150 29.750,19.463 29.761,19.785 29.703,20.098 29.660,20.342 29.557,20.571 29.430,20.782 29.335,20.950 29.198,21.088 29.056,21.216 28.795,21.452 28.574,21.730 28.385,22.025 28.066,22.521 27.817,23.056 27.567,23.589 26.504,23.099 25.441,22.610 24.378,22.121 24.468,21.926 24.558,21.730 24.648,21.535 25.912,18.783 27.176,16.031 28.441,13.279 Z M 2.568,13.483 C 3.985,13.556 5.402,13.629 6.820,13.703 6.733,13.797 6.646,13.891 6.560,13.985 3.115,13.985 3.115,13.985 3.115,13.985 2.933,13.818 2.750,13.650 2.568,13.483 Z M 97.476,14.402 C 97.477,14.406 97.477,14.410 97.478,14.414 97.477,14.410 97.477,14.406 97.476,14.402 Z M 98.535,14.402 C 98.535,14.406 98.534,14.410 98.534,14.414 98.534,14.410 98.535,14.406 98.535,14.402 Z M 99.187,14.402 C 99.188,14.406 99.188,14.410 99.189,14.414 99.188,14.410 99.188,14.406 99.187,14.402 Z M 100.247,14.402 C 100.246,14.406 100.245,14.410 100.245,14.414 100.245,14.410 100.246,14.406 100.247,14.402 Z M 38.056,14.762 C 38.508,14.821 38.508,14.821 38.508,14.821 38.474,14.983 38.417,15.268 38.384,15.383 38.273,15.775 38.120,16.155 37.907,16.503 37.731,16.792 37.510,17.053 37.253,17.273 37.001,17.490 36.714,17.666 36.412,17.802 36.038,17.971 35.640,18.081 35.236,18.151 35.300,18.132 35.364,18.113 35.427,18.092 35.867,17.949 36.291,17.749 36.662,17.470 37.066,17.168 37.392,16.765 37.613,16.312 37.814,15.899 37.938,15.453 38.016,15.001 38.017,14.996 38.052,14.783 38.056,14.762 Z M 40.788,15.328 C 40.897,15.342 41.007,15.357 41.116,15.371 41.102,15.481 41.088,15.591 41.073,15.700 40.963,15.686 40.854,15.671 40.744,15.657 40.759,15.547 40.773,15.438 40.788,15.328 Z M 41.520,15.424 C 42.320,15.530 43.120,15.635 43.920,15.741 43.902,15.880 43.883,16.020 43.865,16.160 43.065,16.055 42.264,15.949 41.464,15.844 41.483,15.704 41.501,15.564 41.520,15.424 Z " />
</svg>