<?xml version="1.0" encoding="UTF-8" standalone="no"?>
<!DOCTYPE svg PUBLIC "-//W3C//DTD SVG 20010904//EN" "http://www.w3.org/TR/2001/REC-SVG-20010904/DTD/svg10.dtd"[]>
<svg version="1.1" id="Frosty Editor v1.0.6.3" xmlns="http://www.w3.org/2000/svg" d1p1:xlink="http://www.w3.org/1999/xlink" viewBox="0 0 25 25" xmlns:d1p1="xmlns">
  <path stroke="none" fill="#ffffffff" d="M 10.102,4.584 C 10.056,5.812 10.010,7.065 9.963,8.293 9.940,8.340 9.963,8.362 10.010,8.339 10.311,8.247 10.612,8.177 10.914,8.084 10.960,8.084 10.960,8.084 10.983,8.108 11.238,8.780 11.470,9.429 11.725,10.102 11.795,10.310 11.887,10.519 11.957,10.728 12.003,10.218 12.027,9.730 12.073,9.244 12.096,8.571 12.143,7.922 12.189,7.250 12.189,7.204 12.189,7.181 12.143,7.204 11.841,7.296 11.563,7.366 11.261,7.459 11.192,7.482 11.192,7.459 11.169,7.412 10.125,4.630 10.125,4.630 10.125,4.630 10.125,4.607 10.125,4.584 10.102,4.584 Z M 15.342,4.584 C 15.319,4.607 15.319,4.607 15.319,4.630 14.971,5.557 14.623,6.485 14.275,7.412 14.275,7.459 14.252,7.482 14.206,7.459 13.928,7.366 13.626,7.296 13.325,7.204 13.278,7.204 13.279,7.204 13.279,7.250 13.279,7.389 13.301,7.505 13.301,7.644 13.348,8.363 13.394,9.058 13.441,9.777 13.464,10.101 13.487,10.403 13.510,10.728 13.510,10.704 13.534,10.704 13.510,10.681 13.835,9.823 14.136,8.989 14.461,8.131 14.461,8.084 14.484,8.061 14.530,8.084 14.832,8.177 15.133,8.247 15.435,8.339 15.481,8.362 15.481,8.363 15.481,8.317 15.457,8.201 15.457,8.108 15.457,7.992 15.434,7.041 15.388,6.114 15.365,5.163 15.365,4.978 15.342,4.769 15.342,4.584 Z M 21.323,7.157 C 21.323,7.180 21.323,7.180 21.323,7.180 19.376,9.475 19.376,9.475 19.376,9.475 19.329,9.499 19.329,9.499 19.283,9.475 19.051,9.290 18.796,9.104 18.541,8.919 18.495,8.896 18.495,8.896 18.471,8.942 18.170,10.055 17.846,11.145 17.521,12.234 17.521,12.258 17.498,12.281 17.521,12.304 17.544,12.281 17.568,12.258 17.591,12.234 18.147,11.539 18.726,10.867 19.306,10.194 19.352,10.171 19.353,10.171 19.399,10.194 19.515,10.287 19.654,10.380 19.770,10.473 19.909,10.565 20.048,10.681 20.187,10.774 20.581,9.568 20.976,8.386 21.346,7.157 Z M 4.121,7.180 C 4.492,8.386 4.886,9.568 5.303,10.774 5.326,10.750 5.327,10.728 5.350,10.728 5.605,10.565 5.836,10.380 6.091,10.194 6.138,10.148 6.161,10.148 6.184,10.194 6.764,10.890 7.343,11.562 7.923,12.258 7.946,12.281 7.946,12.304 7.969,12.304 7.969,12.281 7.969,12.281 7.969,12.281 7.645,11.168 7.320,10.078 6.996,8.965 6.973,8.919 6.949,8.919 6.926,8.942 6.161,9.499 6.161,9.499 6.161,9.499 6.138,9.522 6.115,9.522 6.091,9.499 5.605,8.919 5.118,8.363 4.631,7.783 4.469,7.575 4.283,7.389 4.121,7.180 Z M 8.016,8.131 C 8.410,9.823 8.781,11.492 9.175,13.185 9.546,12.976 9.894,12.791 10.241,12.582 10.288,12.559 10.311,12.559 10.334,12.605 10.890,13.579 11.470,14.530 12.026,15.503 12.119,15.666 12.189,15.804 12.281,15.944 12.026,14.344 11.771,12.744 11.493,11.121 11.470,11.121 11.470,11.145 11.447,11.145 11.122,11.330 10.775,11.516 10.427,11.724 10.380,11.748 10.357,11.748 10.334,11.701 9.592,10.542 8.827,9.360 8.062,8.177 8.039,8.177 8.039,8.154 8.016,8.131 Z M 18.031,8.131 C 18.008,8.131 17.985,8.131 17.985,8.154 17.034,9.360 16.084,10.542 15.133,11.724 15.110,11.771 15.087,11.771 15.064,11.748 14.716,11.539 14.368,11.353 14.020,11.145 14.020,11.145 13.997,11.121 13.974,11.121 13.719,12.721 13.464,14.344 13.209,15.944 13.232,15.944 13.255,15.920 13.255,15.897 13.905,14.807 14.531,13.695 15.180,12.605 15.203,12.559 15.203,12.559 15.249,12.582 15.597,12.791 15.968,12.976 16.315,13.185 16.895,11.492 17.475,9.823 18.031,8.131 Z M 4.115,12.619 C 4.109,12.620 4.104,12.623 4.098,12.629 5.141,13.788 6.161,14.947 7.181,16.129 7.227,16.176 7.228,16.176 7.251,16.129 7.459,15.782 7.645,15.457 7.854,15.109 7.877,15.086 7.876,15.063 7.923,15.086 8.479,15.341 9.012,15.619 9.546,15.874 10.033,16.106 10.543,16.361 11.030,16.593 11.030,16.570 11.006,16.546 11.006,16.546 10.102,15.457 9.175,14.344 8.271,13.254 8.248,13.231 8.247,13.208 8.224,13.208 8.201,13.231 8.201,13.254 8.178,13.278 7.969,13.602 7.784,13.927 7.575,14.274 7.552,14.297 7.529,14.321 7.506,14.297 7.297,14.182 7.112,14.089 6.903,13.996 5.999,13.556 5.071,13.092 4.167,12.651 4.150,12.634 4.133,12.617 4.115,12.619 Z M 21.398,12.622 C 21.381,12.625 21.364,12.651 21.346,12.651 20.234,13.185 19.121,13.718 18.008,14.274 17.961,14.297 17.961,14.275 17.938,14.252 17.730,13.904 17.521,13.579 17.313,13.231 17.313,13.208 17.289,13.208 17.289,13.185 17.289,13.208 17.266,13.231 17.266,13.231 16.478,14.182 15.690,15.132 14.902,16.083 14.762,16.245 14.646,16.407 14.507,16.570 14.530,16.570 14.530,16.546 14.554,16.546 15.550,16.060 16.571,15.550 17.591,15.063 17.614,15.040 17.637,15.039 17.660,15.086 17.869,15.433 18.077,15.758 18.263,16.106 18.286,16.153 18.309,16.129 18.333,16.106 19.862,14.367 19.862,14.367 19.862,14.367 20.396,13.788 20.906,13.208 21.416,12.629 21.410,12.623 21.404,12.621 21.398,12.622 Z M 6.416,16.477 C 6.416,16.523 6.416,16.523 6.416,16.523 6.416,17.706 6.416,17.706 6.416,17.706 6.416,17.752 6.393,17.775 6.346,17.775 5.048,17.775 5.048,17.775 5.048,17.775 4.399,17.798 3.727,17.798 3.077,17.798 3.054,17.798 3.055,17.775 3.032,17.798 6.996,19.537 6.996,19.537 6.996,19.537 6.996,18.841 6.996,18.841 6.996,18.841 6.996,18.285 6.996,18.285 6.996,18.285 6.996,18.262 7.019,18.239 7.042,18.239 7.158,18.239 7.251,18.216 7.344,18.216 7.645,18.193 7.923,18.169 8.224,18.146 8.642,18.123 9.036,18.076 9.430,18.053 9.569,18.030 9.731,18.030 9.870,18.007 8.711,17.497 7.575,16.987 6.416,16.477 Z M 19.028,16.477 C 17.892,16.964 16.733,17.474 15.597,17.984 15.713,18.007 15.806,18.030 15.921,18.030 16.316,18.054 16.686,18.100 17.080,18.123 17.521,18.169 17.962,18.216 18.402,18.239 18.449,18.239 18.448,18.262 18.448,18.308 18.448,19.491 18.448,19.491 18.448,19.491 18.448,19.560 18.448,19.560 18.448,19.560 19.770,18.981 21.091,18.401 22.413,17.821 22.227,17.798 22.042,17.798 21.856,17.798 20.952,17.775 20.025,17.775 19.097,17.775 19.028,17.775 19.028,17.752 19.028,17.706 19.028,16.546 19.028,16.546 19.028,16.546 19.028,16.523 19.051,16.500 19.028,16.477 Z M 12.143,18.401 C 11.934,18.401 11.818,18.540 11.818,18.726 11.818,18.958 11.818,18.958 11.818,18.958 11.818,19.004 11.818,19.004 11.864,19.004 12.745,19.004 12.745,19.004 12.745,19.004 13.047,19.004 13.348,18.981 13.649,19.004 13.672,19.004 13.696,19.004 13.696,18.958 13.696,18.749 13.696,18.749 13.696,18.749 13.696,18.564 13.533,18.401 13.348,18.401 Z M 10.473,19.259 C 10.172,19.259 9.917,19.421 9.847,19.699 9.801,19.885 9.801,20.070 9.847,20.256 9.917,20.534 10.149,20.697 10.450,20.697 12.815,20.697 12.815,20.697 12.815,20.697 15.202,20.697 15.202,20.697 15.202,20.697 15.504,20.697 15.759,20.511 15.829,20.232 15.875,20.093 15.852,19.978 15.852,19.839 15.829,19.537 15.597,19.282 15.295,19.259 15.202,19.259 15.202,19.259 15.202,19.259 Z " />
</svg>