<?xml version="1.0" encoding="UTF-8" standalone="no"?>
<!DOCTYPE svg PUBLIC "-//W3C//DTD SVG 20010904//EN" "http://www.w3.org/TR/2001/REC-SVG-20010904/DTD/svg10.dtd"[]>
<svg version="1.1" id="Frosty Editor v1.0.6.3" xmlns="http://www.w3.org/2000/svg" d1p1:xlink="http://www.w3.org/1999/xlink" viewBox="0 0 96 96" xmlns:d1p1="xmlns">
  <path stroke="none" fill="#ffffffff" d="M 39.090,23.110 C 39.090,22.696 38.926,22.299 38.633,22.007 38.341,21.714 37.944,21.550 37.530,21.550 36.753,21.550 35.977,21.550 35.200,21.550 34.786,21.550 34.389,21.714 34.097,22.007 33.804,22.299 33.640,22.696 33.640,23.110 33.640,23.353 33.640,23.597 33.640,23.840 35.457,23.840 37.273,23.840 39.090,23.840 39.090,23.597 39.090,23.353 39.090,23.110 Z " />
  <path stroke="none" fill="#ffffffff" d="M 38.860,25.720 C 37.240,25.720 35.620,25.720 34.000,25.720 33.343,25.720 32.810,26.253 32.810,26.910 32.810,40.637 32.810,54.363 32.810,68.090 33.910,68.090 35.010,68.090 36.110,68.090 36.110,68.883 36.110,69.677 36.110,70.470 35.010,70.470 33.910,70.470 32.810,70.470 32.810,71.157 32.810,71.843 32.810,72.530 32.810,72.846 32.935,73.148 33.159,73.371 33.382,73.595 33.684,73.720 34.000,73.720 35.637,73.720 37.273,73.720 38.910,73.720 39.226,73.720 39.528,73.595 39.751,73.371 39.975,73.148 40.100,72.846 40.100,72.530 40.100,57.320 40.100,42.110 40.100,26.900 40.098,26.577 39.964,26.269 39.730,26.047 39.497,25.824 39.182,25.706 38.860,25.720 38.860,25.720 38.860,25.720 38.860,25.720 Z " />
  <path stroke="none" fill="#ffffffff" d="M 54.470,36.570 C 53.980,39.637 53.490,42.703 53.000,45.770 52.544,47.886 50.674,49.397 48.510,49.400 46.020,49.400 44.780,46.650 44.640,45.400 44.639,45.373 44.639,45.347 44.640,45.320 44.607,42.140 44.573,38.960 44.540,35.780 44.320,33.410 46.630,30.780 49.740,30.880 49.740,30.880 49.740,30.880 49.740,30.880 51.142,30.958 52.449,31.615 53.348,32.694 54.247,33.773 54.657,35.177 54.480,36.570 54.477,36.570 54.473,36.570 54.470,36.570 Z M 51.910,57.720 C 51.153,60.577 50.397,63.433 49.640,66.290 49.254,67.856 47.699,68.836 46.120,68.510 44.000,68.180 43.630,66.000 43.660,64.930 43.687,61.987 43.713,59.043 43.740,56.100 43.819,54.917 44.382,53.818 45.295,53.061 46.208,52.305 47.393,51.957 48.570,52.100 51.230,52.520 52.490,55.500 51.910,57.720 51.910,57.720 51.910,57.720 51.910,57.720 Z M 57.420,28.470 C 52.613,28.470 47.807,28.470 43.000,28.470 42.658,28.470 42.380,28.748 42.380,29.090 42.380,43.010 42.380,56.930 42.380,70.850 42.380,71.014 42.445,71.172 42.562,71.288 42.678,71.405 42.836,71.470 43.000,71.470 45.367,71.470 47.733,71.470 50.100,71.470 50.369,71.470 50.608,71.296 50.690,71.040 54.910,57.437 57.367,43.349 58.000,29.120 58.017,28.781 57.759,28.491 57.420,28.470 57.420,28.470 57.420,28.470 57.420,28.470 Z " />
  <path stroke="none" fill="#ffffffff" d="M 65.410,30.000 C 63.477,30.000 61.543,30.000 59.610,30.000 59.610,30.710 59.610,31.420 59.610,32.130 61.543,32.130 63.477,32.130 65.410,32.130 65.863,32.130 66.230,31.763 66.230,31.310 66.230,31.150 66.230,30.990 66.230,30.830 66.233,30.611 66.147,30.400 65.993,30.244 65.839,30.088 65.629,30.000 65.410,30.000 65.410,30.000 65.410,30.000 65.410,30.000 Z " />
  <path stroke="none" fill="#ffffffff" d="M 65.110,39.640 C 63.180,39.503 61.250,39.367 59.320,39.230 59.270,39.937 59.220,40.643 59.170,41.350 61.100,41.487 63.030,41.623 64.960,41.760 65.178,41.777 65.393,41.706 65.558,41.563 65.723,41.420 65.825,41.218 65.840,41.000 65.840,40.840 65.840,40.680 65.840,40.520 65.875,40.077 65.551,39.687 65.110,39.640 65.110,39.640 65.110,39.640 65.110,39.640 Z " />
  <path stroke="none" fill="#ffffffff" d="M 63.560,51.000 C 61.653,50.667 59.747,50.333 57.840,50.000 57.717,50.697 57.593,51.393 57.470,52.090 59.377,52.423 61.283,52.757 63.190,53.090 63.412,53.143 63.647,53.101 63.836,52.974 64.026,52.846 64.154,52.646 64.190,52.420 64.217,52.263 64.243,52.107 64.270,51.950 64.307,51.729 64.252,51.503 64.118,51.323 63.984,51.144 63.782,51.027 63.560,51.000 63.560,51.000 63.560,51.000 63.560,51.000 Z " />
  <path stroke="none" fill="#ffffffff" d="M 61.480,61.650 C 59.613,61.147 57.747,60.643 55.880,60.140 55.697,60.823 55.513,61.507 55.330,62.190 57.197,62.693 59.063,63.197 60.930,63.700 61.366,63.814 61.813,63.555 61.930,63.120 61.973,62.963 62.017,62.807 62.060,62.650 62.174,62.214 61.915,61.767 61.480,61.650 61.480,61.650 61.480,61.650 61.480,61.650 Z " />
  <path stroke="none" fill="#ffffffff" d="M 59.250,71.220 C 57.423,70.583 55.597,69.947 53.770,69.310 53.537,69.977 53.303,70.643 53.070,71.310 54.897,71.947 56.723,72.583 58.550,73.220 58.966,73.341 59.404,73.117 59.550,72.710 59.603,72.557 59.657,72.403 59.710,72.250 59.855,71.839 59.653,71.387 59.250,71.220 59.250,71.220 59.250,71.220 59.250,71.220 Z " />
  <path stroke="none" fill="#ffffffff" d="M 56.160,59.180 C 57.847,59.637 59.533,60.093 61.220,60.550 61.707,58.423 62.160,56.253 62.580,54.040 60.857,53.737 59.133,53.433 57.410,53.130 57.023,55.190 56.607,57.207 56.160,59.180 56.160,59.180 56.160,59.180 56.160,59.180 Z " />
  <path stroke="none" fill="#ffffffff" d="M 53.780,68.260 C 55.447,68.843 57.113,69.427 58.780,70.010 59.287,68.230 59.773,66.417 60.240,64.570 58.550,64.113 56.860,63.657 55.170,63.200 54.743,64.920 54.280,66.607 53.780,68.260 53.780,68.260 53.780,68.260 53.780,68.260 Z " />
  <path stroke="none" fill="#ffffffff" d="M 58.120,49.070 C 59.847,49.380 61.573,49.690 63.300,50.000 63.693,47.633 64.027,45.213 64.300,42.740 62.540,42.617 60.780,42.493 59.020,42.370 58.773,44.643 58.473,46.877 58.120,49.070 58.120,49.070 58.120,49.070 58.120,49.070 Z " />
  <path stroke="none" fill="#ffffffff" d="M 60.250,29.000 C 62.020,29.000 63.790,29.000 65.560,29.000 65.560,28.330 65.630,27.670 65.660,27.000 65.660,27.000 65.660,27.000 65.660,27.000 65.660,26.400 65.660,25.800 65.660,25.200 65.660,24.338 64.962,23.640 64.100,23.640 61.980,23.640 59.860,23.640 57.740,23.640 57.326,23.640 56.929,23.804 56.637,24.097 56.344,24.389 56.180,24.786 56.180,25.200 56.180,25.800 56.180,26.400 56.180,27.000 57.573,27.000 58.967,27.000 60.360,27.000 60.320,27.630 60.280,28.300 60.250,29.000 60.250,29.000 60.250,29.000 60.250,29.000 Z " />
  <path stroke="none" fill="#ffffffff" d="M 52.000,73.930 C 51.628,74.948 52.052,76.085 53.000,76.610 53.310,76.773 53.620,76.937 53.930,77.100 54.500,77.385 55.166,77.409 55.755,77.165 56.344,76.921 56.798,76.434 57.000,75.830 57.200,75.210 57.390,74.590 57.580,73.960 55.887,73.370 54.193,72.780 52.500,72.190 52.350,72.770 52.160,73.360 52.000,73.930 52.000,73.930 52.000,73.930 52.000,73.930 Z " />
  <path stroke="none" fill="#ffffffff" d="M 60.000,33.090 C 59.867,34.837 59.713,36.557 59.540,38.250 61.303,38.373 63.067,38.497 64.830,38.620 65.017,36.807 65.180,34.963 65.320,33.090 63.547,33.090 61.773,33.090 60.000,33.090 Z " />
</svg>