<?xml version="1.0" encoding="UTF-8" standalone="no"?>
<!DOCTYPE svg PUBLIC "-//W3C//DTD SVG 20010904//EN" "http://www.w3.org/TR/2001/REC-SVG-20010904/DTD/svg10.dtd"[]>
<svg version="1.1" id="Frosty Editor v1.0.6.3" xmlns="http://www.w3.org/2000/svg" d1p1:xlink="http://www.w3.org/1999/xlink" viewBox="0 0 25 25" xmlns:d1p1="xmlns">
  <path stroke="none" fill="#ffffffff" d="M 10.700,3.150 C 10.700,3.817 10.700,3.817 10.700,3.817 14.373,3.817 14.373,3.817 14.373,3.817 14.373,3.150 14.373,3.150 14.373,3.150 Z M 9.366,4.151 C 9.366,5.152 9.366,5.152 9.366,5.152 9.031,5.152 9.031,5.152 9.031,5.152 9.031,4.818 9.031,4.818 9.031,4.818 8.698,4.818 8.698,4.818 8.698,4.818 8.698,6.154 8.698,6.154 8.698,6.154 9.031,6.154 9.031,6.154 9.031,6.154 9.031,5.819 9.031,5.819 9.031,5.819 9.366,5.819 9.366,5.819 9.366,5.819 9.366,6.487 9.366,6.487 9.366,6.487 15.708,6.487 15.708,6.487 15.708,6.487 15.708,4.151 15.708,4.151 15.708,4.151 Z M 12.093,4.528 C 12.943,4.528 12.943,4.528 12.943,4.528 13.086,4.774 13.228,5.020 13.371,5.266 13.228,5.512 13.086,5.758 12.943,6.004 12.093,6.004 12.093,6.004 12.093,6.004 11.952,5.758 11.809,5.512 11.669,5.266 11.809,5.020 11.952,4.774 12.093,4.528 Z M 8.698,6.821 C 8.698,7.823 8.698,7.823 8.698,7.823 16.375,7.823 16.375,7.823 16.375,7.823 16.375,6.821 16.375,6.821 16.375,6.821 Z M 9.366,8.156 C 9.366,8.490 9.366,8.490 9.366,8.490 9.143,8.712 8.920,8.936 8.698,9.158 8.698,15.499 8.698,15.499 8.698,15.499 8.920,15.723 9.143,15.944 9.366,16.166 9.366,16.501 9.366,16.501 9.366,16.501 12.042,16.501 12.042,16.501 12.042,16.501 12.046,16.490 12.050,16.480 12.054,16.469 12.097,16.366 12.143,16.265 12.193,16.166 11.702,16.166 11.702,16.166 11.702,16.166 11.702,8.490 11.702,8.490 11.702,8.490 13.704,8.490 13.704,8.490 13.704,8.490 13.704,14.434 13.704,14.434 13.704,14.434 14.204,14.091 14.770,13.847 15.373,13.722 15.373,8.961 15.373,8.961 15.373,8.961 15.597,9.072 15.818,9.183 16.041,9.295 16.041,13.633 16.041,13.633 16.041,13.633 16.131,13.628 16.220,13.625 16.311,13.625 16.332,13.625 16.353,13.626 16.375,13.626 16.375,9.158 16.375,9.158 16.375,9.158 16.153,8.936 15.930,8.712 15.708,8.490 15.708,8.156 15.708,8.156 15.708,8.156 Z M 9.699,8.961 C 9.699,15.696 9.699,15.696 9.699,15.696 9.477,15.585 9.255,15.474 9.031,15.363 9.031,9.295 9.031,9.295 9.031,9.295 9.255,9.183 9.477,9.072 9.699,8.961 Z M 12.369,9.158 C 12.369,15.499 12.369,15.499 12.369,15.499 12.602,15.499 12.602,15.499 12.602,15.499 12.735,15.319 12.881,15.149 13.037,14.991 13.037,9.158 13.037,9.158 13.037,9.158 Z M 16.311,14.227 C 14.691,14.227 13.230,15.203 12.610,16.699 11.990,18.196 12.333,19.918 13.478,21.064 14.624,22.209 16.346,22.552 17.843,21.932 19.339,21.312 20.316,19.852 20.316,18.232 20.316,17.170 19.894,16.151 19.143,15.400 18.391,14.649 17.373,14.227 16.311,14.227 Z M 15.433,15.165 C 16.960,15.165 16.960,15.165 16.960,15.165 16.960,18.113 16.960,18.113 16.960,18.113 17.178,17.895 17.395,17.676 17.613,17.458 17.613,16.960 17.613,16.960 17.613,16.960 18.318,16.960 18.318,16.960 18.318,16.960 18.318,17.664 18.318,17.664 18.318,17.664 17.789,17.664 17.789,17.664 17.789,17.664 17.615,17.837 17.441,18.011 17.267,18.184 19.281,18.184 19.281,18.184 19.281,18.184 19.281,18.980 19.281,18.980 19.281,18.980 17.948,18.980 17.948,18.980 17.948,18.980 17.948,21.160 17.948,21.160 17.948,21.160 17.681,21.277 17.414,21.395 17.147,21.512 17.147,18.980 17.147,18.980 17.147,18.980 16.502,18.980 16.502,18.980 16.502,18.980 16.267,19.215 16.032,19.450 15.797,19.685 15.797,20.193 15.797,20.193 15.797,20.193 15.080,20.193 15.080,20.193 15.080,20.193 15.080,19.509 15.080,19.509 15.080,19.509 15.575,19.509 15.575,19.509 15.575,19.509 15.758,19.332 15.941,19.156 16.124,18.979 13.220,18.979 13.220,18.979 13.220,18.979 13.220,17.455 13.220,17.455 13.220,17.455 15.421,17.455 15.421,17.455 15.421,17.455 15.425,16.692 15.429,15.929 15.433,15.165 Z M 8.698,16.834 C 8.698,17.836 8.698,17.836 8.698,17.836 11.721,17.836 11.721,17.836 11.721,17.836 11.750,17.499 11.816,17.163 11.921,16.834 Z M 9.366,18.170 C 9.366,19.839 9.366,19.839 9.366,19.839 11.993,19.839 11.993,19.839 11.993,19.839 11.795,19.306 11.697,18.740 11.704,18.170 Z " />
</svg>