<?xml version="1.0" encoding="UTF-8" standalone="no"?>
<!DOCTYPE svg PUBLIC "-//W3C//DTD SVG 20010904//EN" "http://www.w3.org/TR/2001/REC-SVG-20010904/DTD/svg10.dtd"[]>
<svg version="1.1" id="Frosty Editor v1.0.6.3" xmlns="http://www.w3.org/2000/svg" d1p1:xlink="http://www.w3.org/1999/xlink" viewBox="0 0 101 25" xmlns:d1p1="xmlns">
  <path stroke="none" fill="#ffffffff" d="M 42.252,2.323 C 42.134,2.325 42.020,2.378 41.942,2.473 41.619,2.798 41.296,3.123 40.972,3.448 40.962,3.426 40.952,3.404 40.942,3.382 37.878,3.382 37.878,3.382 37.878,3.382 37.712,3.756 37.546,4.131 37.379,4.505 36.346,4.505 36.346,4.505 36.346,4.505 36.346,5.247 36.346,5.247 36.346,5.247 36.908,5.247 36.908,5.247 36.908,5.247 36.908,5.737 36.908,5.737 36.908,5.737 34.022,5.737 34.022,5.737 34.022,5.737 34.012,5.743 34.001,5.749 33.991,5.755 33.984,5.755 33.184,6.255 32.693,6.342 32.673,6.342 32.673,6.342 32.673,6.342 32.658,6.342 32.298,6.483 32.310,7.110 32.335,7.720 32.361,8.331 32.387,8.941 35.493,8.941 35.493,8.941 35.493,8.941 36.635,8.616 36.635,8.616 36.635,8.616 36.652,8.661 36.667,8.707 36.679,8.754 36.570,8.745 36.461,8.736 36.352,8.727 36.359,8.778 36.365,8.828 36.371,8.879 36.450,9.528 36.100,10.536 36.096,10.546 36.082,10.588 36.068,10.629 36.054,10.671 36.152,10.703 36.250,10.736 36.347,10.768 36.288,10.893 36.218,11.013 36.138,11.125 35.353,12.092 35.280,12.873 35.278,12.913 35.249,13.133 35.313,13.355 35.455,13.525 35.539,13.615 35.648,13.677 35.768,13.705 35.820,13.834 35.872,13.963 35.924,14.092 37.797,14.092 37.797,14.092 37.797,14.092 37.860,13.967 37.923,13.842 37.986,13.717 38.052,13.717 38.052,13.717 38.052,13.717 38.504,13.669 38.561,13.093 38.569,12.990 38.719,12.435 38.719,12.435 38.719,12.435 38.829,12.366 38.940,12.299 39.051,12.230 39.035,12.100 39.019,11.970 39.003,11.839 39.057,11.701 39.112,11.563 39.166,11.425 39.252,11.363 39.339,11.301 39.425,11.239 39.394,11.120 39.364,11.002 39.333,10.883 39.405,10.756 39.478,10.629 39.550,10.502 39.620,10.375 39.768,10.312 39.909,10.350 40.113,10.416 40.318,10.481 40.523,10.547 42.288,10.547 42.288,10.547 42.288,10.547 42.411,10.560 42.532,10.521 42.625,10.441 42.718,10.361 42.775,10.246 42.781,10.124 42.781,10.102 42.781,10.102 42.781,10.102 42.778,10.094 42.775,10.087 42.773,10.080 42.679,9.821 42.643,9.545 42.668,9.270 42.815,9.202 42.962,9.134 43.109,9.066 43.109,9.566 43.109,9.566 43.109,9.566 43.546,9.566 43.546,9.566 43.546,9.566 43.546,9.740 43.546,9.740 43.546,9.740 44.155,9.740 44.155,9.740 44.155,9.740 44.155,9.566 44.155,9.566 44.155,9.566 44.250,9.566 44.250,9.566 44.250,9.566 44.250,9.740 44.250,9.740 44.250,9.740 44.669,9.740 44.669,9.740 44.669,9.740 44.669,9.566 44.669,9.566 44.669,9.566 44.806,9.566 44.806,9.566 44.806,9.566 44.806,9.740 44.806,9.740 44.806,9.740 45.222,9.740 45.222,9.740 45.222,9.740 45.222,9.566 45.222,9.566 45.222,9.566 45.358,9.566 45.358,9.566 45.358,9.566 45.358,9.740 45.358,9.740 45.358,9.740 45.773,9.740 45.773,9.740 45.773,9.740 45.773,9.566 45.773,9.566 45.773,9.566 45.876,9.566 45.876,9.566 45.876,9.566 45.876,9.740 45.876,9.740 45.876,9.740 46.485,9.740 46.485,9.740 46.485,9.740 46.485,9.566 46.485,9.566 46.485,9.566 46.554,9.566 46.554,9.566 46.554,9.566 46.565,9.558 46.575,9.551 46.586,9.543 46.605,9.531 47.040,9.221 47.155,8.809 47.155,8.434 47.155,8.434 47.155,8.434 47.183,8.389 47.211,8.345 47.239,8.300 47.239,8.264 47.239,8.264 47.239,8.264 47.948,8.264 47.948,8.264 47.948,8.264 47.959,8.238 47.969,8.212 47.980,8.186 48.002,8.130 48.021,8.075 48.038,8.020 48.839,8.086 49.640,8.152 50.440,8.218 50.454,8.200 50.468,8.181 50.482,8.162 50.518,8.109 50.551,8.054 50.579,7.996 50.579,7.985 50.579,7.985 50.579,7.985 50.596,7.948 50.615,7.908 50.634,7.860 50.694,7.711 50.729,7.553 50.738,7.393 50.738,7.313 50.738,7.313 50.738,7.313 50.738,7.288 50.746,7.258 50.744,7.221 50.734,7.065 50.700,6.911 50.642,6.765 50.623,6.718 50.604,6.676 50.582,6.630 50.553,6.572 50.520,6.516 50.483,6.463 50.469,6.444 50.456,6.425 50.442,6.406 48.041,6.604 48.041,6.604 48.041,6.604 48.022,6.546 47.998,6.490 47.971,6.436 47.959,6.413 47.947,6.391 47.936,6.369 47.167,6.369 47.167,6.369 47.167,6.369 47.114,6.141 47.025,5.930 46.876,5.845 46.866,5.839 46.857,5.834 46.847,5.829 45.148,5.829 45.148,5.829 45.148,5.829 45.075,5.704 45.002,5.579 44.929,5.454 42.754,5.454 42.754,5.454 42.754,5.454 42.667,5.576 42.580,5.698 42.493,5.820 41.891,5.820 41.891,5.820 41.891,5.820 41.860,5.862 41.829,5.903 41.798,5.945 41.464,5.945 41.464,5.945 41.464,5.945 41.464,5.321 41.464,5.321 41.464,5.321 41.534,5.237 41.603,5.154 41.673,5.071 41.673,4.754 41.673,4.754 41.673,4.754 42.100,4.754 42.100,4.754 42.100,4.754 42.100,5.189 42.100,5.189 42.100,5.189 42.510,5.189 42.510,5.189 42.510,5.189 42.510,5.044 42.510,5.044 42.510,5.044 42.777,5.044 42.777,5.044 42.777,5.044 42.777,4.754 42.777,4.754 42.777,4.754 42.880,4.754 42.880,4.754 42.880,4.754 42.880,4.171 42.880,4.171 42.880,4.171 42.811,4.164 42.741,4.158 42.672,4.152 42.694,2.882 42.694,2.882 42.694,2.882 42.713,2.717 42.669,2.404 42.369,2.339 42.330,2.328 42.291,2.323 42.252,2.323 Z M 42.253,2.573 C 42.271,2.572 42.284,2.576 42.288,2.577 42.296,2.579 42.303,2.582 42.311,2.584 42.472,2.615 42.445,2.850 42.444,2.859 42.437,3.282 42.429,3.706 42.422,4.130 42.027,4.094 41.632,4.058 41.237,4.022 41.186,3.914 41.135,3.805 41.084,3.697 41.430,3.347 41.776,2.997 42.123,2.646 42.174,2.589 42.221,2.575 42.253,2.573 Z M 41.923,3.073 C 41.738,3.245 41.553,3.417 41.368,3.589 41.379,3.672 41.389,3.755 41.399,3.838 42.280,3.842 42.280,3.842 42.280,3.842 42.280,3.448 42.280,3.448 42.280,3.448 42.238,3.406 42.196,3.364 42.155,3.323 42.155,3.073 42.155,3.073 42.155,3.073 Z M 41.965,3.198 C 42.026,3.198 42.026,3.198 42.026,3.198 42.026,3.374 42.026,3.374 42.026,3.374 42.151,3.499 42.151,3.499 42.151,3.499 42.151,3.715 42.151,3.715 42.151,3.715 41.499,3.715 41.499,3.715 41.499,3.715 41.496,3.689 41.493,3.664 41.489,3.638 41.648,3.491 41.807,3.345 41.965,3.198 Z M 38.042,3.634 C 38.403,3.634 38.403,3.634 38.403,3.634 38.403,4.197 38.403,4.197 38.403,4.197 39.911,4.197 39.911,4.197 39.911,4.197 39.911,3.635 39.911,3.635 39.911,3.635 40.785,3.635 40.785,3.635 40.785,3.635 40.881,3.843 40.977,4.051 41.074,4.259 41.594,4.307 42.114,4.354 42.634,4.402 42.634,4.506 42.634,4.506 42.634,4.506 37.652,4.506 37.652,4.506 37.652,4.506 37.782,4.215 37.912,3.925 38.042,3.634 Z M 38.526,3.634 C 38.641,3.634 38.641,3.634 38.641,3.634 38.641,4.072 38.641,4.072 38.641,4.072 38.526,4.072 38.526,4.072 38.526,4.072 Z M 38.766,3.634 C 39.531,3.634 39.531,3.634 39.531,3.634 39.531,4.072 39.531,4.072 39.531,4.072 38.768,4.072 38.768,4.072 38.768,4.072 38.767,3.926 38.766,3.780 38.766,3.634 Z M 39.656,3.634 C 39.781,3.634 39.781,3.634 39.781,3.634 39.781,4.072 39.781,4.072 39.781,4.072 39.656,4.072 39.656,4.072 39.656,4.072 Z M 28.066,4.680 C 27.656,4.680 27.598,4.686 27.573,4.734 27.558,4.764 27.535,4.873 27.522,4.975 27.499,5.168 27.422,5.355 27.337,5.425 27.310,5.448 27.288,5.513 27.288,5.570 27.288,5.626 27.273,5.682 27.255,5.694 27.236,5.705 27.209,5.747 27.194,5.788 27.171,5.847 27.135,5.866 27.009,5.882 26.923,5.894 26.836,5.923 26.816,5.947 26.748,6.030 26.734,6.778 26.795,7.079 26.855,7.372 26.864,9.408 26.824,13.589 26.805,15.565 26.805,15.565 26.805,15.565 26.696,15.593 26.696,15.593 26.696,15.593 26.636,15.608 26.557,15.649 26.520,15.684 26.466,15.734 26.440,15.739 26.390,15.712 26.273,15.649 25.091,15.667 25.026,15.733 24.975,15.783 24.810,15.789 22.773,15.807 19.302,15.838 16.271,15.843 15.929,15.819 15.261,15.772 15.159,15.913 15.081,16.986 15.059,17.283 15.059,17.283 15.059,17.283 14.607,17.292 14.607,17.292 14.607,17.292 14.155,17.301 14.155,17.301 14.155,17.301 13.581,17.712 13.581,17.712 13.581,17.712 13.266,17.939 13.003,18.139 12.997,18.157 12.991,18.175 13.242,18.371 13.555,18.593 14.124,18.997 14.124,18.997 14.124,18.997 14.591,19.012 14.591,19.012 14.591,19.012 15.059,19.027 15.059,19.027 15.059,19.027 15.081,19.323 15.081,19.323 15.081,19.323 15.112,19.758 15.219,20.376 15.277,20.465 15.381,20.624 15.414,20.627 16.901,20.608 18.278,20.591 18.278,20.591 18.278,20.591 18.460,20.767 18.460,20.767 18.460,20.767 18.560,20.863 18.775,21.095 18.938,21.282 19.258,21.649 19.317,21.693 19.493,21.689 19.671,21.686 19.684,21.675 20.102,21.170 20.333,20.891 20.511,20.702 20.535,20.711 20.556,20.720 20.714,20.884 20.885,21.076 21.439,21.700 21.401,21.670 21.619,21.654 21.808,21.640 21.808,21.640 21.808,21.640 22.046,21.378 22.046,21.378 22.046,21.378 22.178,21.233 22.373,21.024 22.480,20.912 22.675,20.710 22.675,20.710 22.675,20.710 23.136,21.169 23.136,21.169 23.136,21.169 23.597,21.629 23.597,21.629 23.597,21.629 23.762,21.629 23.762,21.629 23.762,21.629 23.953,21.629 23.920,21.656 24.419,21.092 24.597,20.890 24.765,20.725 24.793,20.725 24.820,20.725 25.046,20.929 25.294,21.178 25.745,21.629 25.745,21.629 25.745,21.629 25.904,21.629 25.904,21.629 25.904,21.629 26.063,21.629 26.063,21.629 26.063,21.629 26.315,21.294 26.315,21.294 26.315,21.294 26.454,21.110 26.635,20.875 26.718,20.772 26.870,20.585 26.870,20.585 26.870,20.585 27.273,20.566 27.273,20.566 27.273,20.566 27.496,20.555 28.041,20.544 28.485,20.542 29.184,20.539 29.300,20.532 29.349,20.488 29.396,20.445 29.426,20.443 29.544,20.472 29.629,20.494 29.991,20.507 30.473,20.507 31.293,20.507 31.338,20.500 31.338,20.376 31.338,20.324 31.388,20.321 32.111,20.321 32.960,20.321 32.967,20.319 33.013,20.134 33.045,20.004 33.323,19.955 33.464,20.054 33.559,20.121 34.336,20.123 34.508,20.058 34.691,19.989 39.445,19.965 39.578,20.033 39.703,20.096 40.448,20.089 40.605,20.023 40.771,19.954 46.366,19.954 46.499,20.024 46.615,20.084 47.363,20.056 47.461,19.989 47.558,19.923 53.031,19.927 53.190,19.993 53.364,20.066 53.913,20.057 54.137,19.978 54.363,19.898 54.995,19.889 55.094,19.963 55.127,19.988 55.209,20.009 55.275,20.009 55.395,20.009 55.395,20.009 55.395,20.009 55.386,20.173 55.386,20.173 55.386,20.173 55.376,20.336 55.376,20.336 55.376,20.336 54.395,20.352 54.395,20.352 54.395,20.352 53.304,20.370 53.303,20.370 53.171,20.173 53.082,20.040 53.082,20.040 53.082,20.040 52.587,20.040 52.587,20.040 52.587,20.040 52.029,20.040 51.996,20.054 51.996,20.291 51.996,20.505 51.468,21.244 50.883,21.847 50.093,22.664 50.090,22.657 51.205,22.657 52.026,22.657 52.026,22.657 52.026,22.657 52.111,22.752 52.111,22.752 52.111,22.752 52.196,22.847 52.196,22.847 52.196,22.847 52.680,22.830 52.680,22.830 52.680,22.830 54.298,22.773 54.545,22.775 54.579,22.840 54.653,22.977 54.864,23.156 54.953,23.156 55.001,23.156 55.059,23.177 55.080,23.203 55.138,23.273 56.954,23.273 57.012,23.203 57.033,23.177 57.093,23.156 57.145,23.156 57.245,23.156 57.510,22.916 57.510,22.825 57.510,22.768 57.586,22.770 57.635,22.828 57.689,22.894 57.809,22.887 57.913,22.811 57.995,22.750 58.026,22.747 58.417,22.766 58.959,22.792 59.262,22.791 62.604,22.757 64.213,22.740 65.439,22.739 65.481,22.755 65.575,22.790 66.427,22.790 66.521,22.755 66.561,22.739 67.862,22.727 69.412,22.726 70.963,22.725 72.457,22.723 72.731,22.722 74.553,22.712 78.419,22.709 78.810,22.717 79.306,22.727 79.484,22.690 79.597,22.553 79.634,22.508 79.721,22.502 80.287,22.502 81.296,22.502 81.311,22.369 80.410,21.380 79.940,20.864 79.894,20.793 79.872,20.558 79.835,20.161 79.798,20.134 79.299,20.134 78.988,20.134 78.931,20.125 78.862,20.071 78.790,20.015 78.735,20.009 78.272,20.009 77.762,20.009 77.762,20.009 77.762,20.009 77.712,20.113 77.712,20.113 77.712,20.113 77.662,20.218 77.662,20.218 77.662,20.218 76.988,20.238 76.988,20.238 76.988,20.238 75.666,20.278 73.672,20.261 73.605,20.210 73.562,20.178 73.460,20.165 73.248,20.165 72.992,20.165 72.944,20.156 72.884,20.100 72.823,20.043 72.764,20.034 72.348,20.018 71.839,19.998 71.819,20.004 71.700,20.213 71.650,20.299 66.910,20.331 66.781,20.246 66.731,20.214 66.636,20.196 66.513,20.196 66.354,20.196 66.306,20.182 66.229,20.118 66.036,19.955 65.113,20.014 65.113,20.188 65.113,20.207 65.091,20.245 65.064,20.272 64.992,20.343 60.115,20.344 60.020,20.273 59.987,20.247 59.909,20.227 59.847,20.227 59.766,20.227 59.712,20.205 59.660,20.149 59.588,20.073 59.578,20.071 59.133,20.072 58.639,20.072 58.612,20.079 58.540,20.233 58.481,20.360 58.188,20.406 58.111,20.301 58.068,20.242 58.058,20.016 58.096,19.957 58.147,19.876 59.106,19.866 59.288,19.944 59.511,20.040 60.270,20.032 60.327,19.934 60.400,19.808 60.465,19.769 60.634,19.749 61.066,19.698 61.543,19.287 61.837,18.713 61.966,18.462 61.966,18.462 61.966,18.462 61.966,18.023 61.966,18.023 61.966,18.023 61.966,17.584 61.966,17.584 61.966,17.584 61.795,17.246 61.795,17.246 61.795,17.246 61.501,16.666 61.053,16.285 60.597,16.226 60.504,16.214 60.393,16.176 60.349,16.141 60.272,16.081 60.233,16.079 59.178,16.089 58.087,16.099 58.087,16.099 58.087,16.099 58.077,15.946 58.077,15.946 58.077,15.946 58.066,15.766 58.091,15.742 58.289,15.741 58.409,15.740 58.441,15.754 58.510,15.838 58.591,15.936 58.591,15.936 58.591,15.936 59.264,15.952 59.264,15.952 59.264,15.952 59.938,15.967 59.938,15.967 59.938,15.967 60.005,15.854 60.005,15.854 60.005,15.854 60.071,15.740 60.071,15.740 60.071,15.740 62.543,15.740 62.543,15.740 62.543,15.740 65.014,15.740 65.014,15.740 65.014,15.740 65.072,15.819 65.072,15.819 65.072,15.819 65.129,15.898 65.129,15.898 65.129,15.898 65.912,15.918 65.912,15.918 65.912,15.918 66.695,15.937 66.695,15.937 66.695,15.937 66.744,15.843 66.744,15.843 66.744,15.843 66.816,15.704 66.710,15.709 69.250,15.709 71.606,15.709 71.606,15.709 71.606,15.709 71.694,15.794 71.694,15.794 71.694,15.794 71.783,15.879 71.783,15.879 71.783,15.879 72.661,15.880 72.661,15.880 72.661,15.880 73.540,15.881 73.540,15.881 73.540,15.881 73.579,15.800 73.579,15.800 73.579,15.800 73.617,15.719 73.617,15.719 73.617,15.719 74.277,15.699 74.277,15.699 74.277,15.699 74.640,15.687 75.531,15.678 76.255,15.678 77.573,15.678 77.573,15.678 77.573,15.678 77.644,15.754 77.644,15.754 77.644,15.754 77.716,15.830 77.716,15.830 77.716,15.830 78.697,15.840 78.697,15.840 78.697,15.840 79.678,15.849 79.678,15.849 79.678,15.849 79.729,15.742 79.729,15.742 79.729,15.742 79.757,15.683 79.787,15.531 79.797,15.405 79.817,15.142 79.869,15.059 80.334,14.541 80.632,14.209 80.849,13.907 80.920,13.723 81.029,13.442 81.013,13.435 80.226,13.435 79.578,13.435 79.578,13.435 79.578,13.435 79.462,13.342 79.462,13.342 79.462,13.342 79.268,13.189 79.257,13.188 77.124,13.244 76.303,13.265 75.091,13.274 74.367,13.264 72.546,13.240 72.624,13.240 69.524,13.282 67.232,13.312 66.649,13.312 66.322,13.278 66.007,13.246 65.850,13.246 65.572,13.274 65.268,13.306 60.395,13.332 59.286,13.308 59.123,13.305 58.741,13.313 58.436,13.326 57.894,13.349 57.880,13.349 57.819,13.284 57.741,13.200 57.650,13.198 57.581,13.279 57.509,13.363 57.453,13.357 57.430,13.264 57.419,13.222 57.383,13.179 57.350,13.168 57.316,13.158 57.273,13.115 57.255,13.074 57.231,13.022 57.186,12.994 57.108,12.981 57.047,12.971 56.962,12.947 56.921,12.926 56.791,12.862 55.153,12.879 55.027,12.946 54.972,12.975 54.892,12.999 54.849,12.999 54.806,12.999 54.753,13.021 54.731,13.048 54.709,13.076 54.654,13.135 54.610,13.181 54.565,13.226 54.520,13.288 54.510,13.318 54.486,13.385 53.442,13.398 52.951,13.337 52.541,13.287 52.147,13.323 52.029,13.422 51.943,13.495 51.922,13.497 51.399,13.501 50.021,13.509 50.014,13.519 50.837,14.336 51.386,14.881 51.858,15.508 51.948,15.812 52.008,16.013 52.161,16.090 52.458,16.066 52.716,16.046 53.135,16.079 53.096,16.116 53.076,16.135 47.820,16.160 47.182,16.144 47.096,16.142 45.596,16.157 43.849,16.179 41.536,16.207 40.628,16.209 40.509,16.184 40.397,16.160 40.193,16.158 39.854,16.177 39.583,16.192 38.247,16.208 36.884,16.211 34.663,16.216 33.974,16.218 33.254,16.222 33.036,16.223 33.036,16.223 33.036,16.223 33.016,16.055 33.016,16.055 33.016,16.055 32.988,15.824 33.089,15.835 31.307,15.856 29.545,15.876 29.557,15.877 29.500,15.740 29.457,15.636 29.385,15.584 29.284,15.584 29.220,15.584 29.220,15.584 29.220,15.584 29.220,11.511 29.220,11.511 29.220,11.511 29.221,7.568 29.223,7.428 29.283,7.158 29.328,6.952 29.344,6.763 29.344,6.435 29.344,5.937 29.349,5.948 29.102,5.908 28.967,5.886 28.814,5.673 28.814,5.506 28.814,5.467 28.793,5.417 28.766,5.395 28.684,5.327 28.628,5.149 28.628,4.959 28.628,4.685 28.618,4.680 28.066,4.680 Z M 42.226,4.754 C 42.653,4.754 42.653,4.754 42.653,4.754 42.653,4.809 42.652,4.864 42.652,4.920 42.387,4.920 42.387,4.920 42.387,4.920 42.387,5.066 42.387,5.066 42.387,5.066 42.226,5.066 42.226,5.066 42.226,5.066 Z M 36.596,4.755 C 41.423,4.755 41.423,4.755 41.423,4.755 41.423,4.983 41.423,4.983 41.423,4.983 41.353,5.067 41.284,5.150 41.215,5.233 41.215,5.830 41.215,5.830 41.215,5.830 40.288,5.830 40.288,5.830 40.288,5.830 40.288,4.956 40.288,4.956 40.288,4.956 37.877,4.956 37.877,4.956 37.877,4.956 37.779,5.049 37.681,5.142 37.583,5.236 37.583,5.841 37.583,5.841 37.583,5.841 37.157,5.841 37.157,5.841 37.157,5.841 37.157,5.738 37.157,5.738 37.157,5.738 37.157,4.997 37.157,4.997 37.157,4.997 36.596,4.997 36.596,4.997 36.596,4.997 Z M 28.036,4.937 C 28.113,4.937 28.145,4.944 28.106,4.951 28.067,4.958 28.004,4.958 27.966,4.951 27.927,4.944 27.959,4.937 28.036,4.937 Z M 27.890,5.145 C 28.063,5.138 28.364,5.174 28.372,5.217 28.382,5.266 28.351,5.272 28.069,5.272 27.764,5.272 27.696,5.247 27.777,5.166 27.790,5.154 27.833,5.147 27.890,5.145 Z M 37.978,5.204 C 40.041,5.204 40.041,5.204 40.041,5.204 40.041,5.945 40.041,5.945 40.041,5.945 37.835,5.945 37.835,5.945 37.835,5.945 37.835,5.342 37.835,5.342 37.835,5.342 37.883,5.296 37.930,5.250 37.978,5.204 Z M 27.547,5.677 C 28.054,5.677 28.054,5.677 28.054,5.677 28.561,5.677 28.561,5.677 28.561,5.677 28.626,5.767 28.626,5.767 28.626,5.767 28.661,5.817 28.690,5.877 28.690,5.901 28.690,5.972 28.863,6.118 28.976,6.141 29.080,6.162 29.080,6.162 29.080,6.162 29.089,6.371 29.089,6.371 29.089,6.371 29.098,6.580 29.098,6.580 29.098,6.580 28.053,6.580 28.053,6.580 28.053,6.580 27.007,6.580 27.007,6.580 27.007,6.580 27.007,6.384 27.007,6.384 27.007,6.384 27.007,6.175 27.040,6.113 27.150,6.113 27.249,6.113 27.368,6.006 27.463,5.831 Z M 42.878,5.704 C 44.782,5.704 44.782,5.704 44.782,5.704 44.847,5.815 44.912,5.927 44.977,6.038 44.953,6.142 44.930,6.245 44.906,6.348 42.894,6.348 42.894,6.348 42.894,6.348 42.820,6.233 42.746,6.117 42.672,6.002 42.740,5.903 42.809,5.803 42.878,5.704 Z M 34.091,5.985 C 36.907,5.985 36.907,5.985 36.907,5.985 36.907,6.089 36.907,6.089 36.907,6.089 36.907,6.195 36.907,6.195 36.907,6.195 36.907,6.840 36.907,6.840 36.907,6.840 36.907,7.227 37.266,7.397 37.469,7.433 41.551,7.433 41.551,7.433 41.551,7.433 41.691,7.439 41.827,7.387 41.926,7.288 42.015,7.181 42.059,7.045 42.051,6.906 42.022,6.643 41.994,6.379 41.965,6.116 41.999,6.071 41.999,6.071 41.999,6.071 42.545,6.071 42.545,6.071 42.545,6.071 42.632,6.206 42.719,6.341 42.806,6.476 44.993,6.476 44.993,6.476 44.993,6.476 45.023,6.345 45.052,6.213 45.081,6.081 46.756,6.081 46.756,6.081 46.756,6.081 46.908,6.215 46.975,6.781 46.972,7.142 46.978,7.505 46.985,7.867 46.991,8.230 46.984,8.241 46.977,8.253 46.970,8.264 43.485,8.264 43.485,8.264 43.485,8.264 43.274,8.048 43.064,7.833 42.853,7.617 39.347,7.617 39.347,7.617 39.347,7.617 37.683,7.642 36.043,8.008 34.526,8.692 32.627,8.692 32.627,8.692 32.627,8.692 32.604,8.163 32.581,7.635 32.558,7.106 32.550,6.709 32.719,6.606 32.751,6.583 33.236,6.489 33.934,6.083 34.091,5.985 Z M 37.039,6.195 C 41.867,6.195 41.867,6.195 41.867,6.195 41.893,6.435 41.919,6.675 41.945,6.916 41.949,7.020 41.915,7.122 41.849,7.202 41.772,7.277 41.667,7.315 41.561,7.307 37.487,7.307 37.487,7.307 37.487,7.307 37.487,7.307 37.039,7.218 37.039,6.838 Z M 47.215,6.622 C 47.789,6.622 47.789,6.622 47.789,6.622 47.954,7.072 47.950,7.566 47.778,8.014 47.778,8.015 47.778,8.015 47.778,8.015 47.240,8.015 47.240,8.015 47.240,8.015 47.240,7.832 47.240,7.832 47.240,7.832 47.698,7.832 47.698,7.832 47.698,7.832 47.698,7.707 47.698,7.707 47.698,7.707 47.240,7.707 47.240,7.707 47.240,7.707 47.240,7.372 47.240,7.372 47.240,7.372 47.698,7.372 47.698,7.372 47.698,7.372 47.698,7.247 47.698,7.247 47.698,7.247 47.240,7.247 47.240,7.247 47.240,7.247 47.240,7.142 47.240,7.142 47.240,7.142 47.240,6.912 47.240,6.912 47.240,6.912 47.704,6.912 47.704,6.912 47.704,6.912 47.704,6.788 47.704,6.788 47.704,6.788 47.233,6.788 47.233,6.788 47.233,6.788 47.233,6.734 47.223,6.679 47.215,6.622 Z M 50.315,6.664 C 50.328,6.685 50.343,6.714 50.360,6.748 50.378,6.781 50.392,6.814 50.408,6.855 50.458,6.978 50.487,7.109 50.494,7.242 50.494,7.311 50.494,7.311 50.494,7.311 50.494,7.334 50.497,7.357 50.496,7.388 50.496,7.390 50.496,7.390 50.496,7.390 50.487,7.519 50.458,7.646 50.409,7.765 50.394,7.805 50.378,7.840 50.358,7.879 50.338,7.918 50.329,7.934 50.317,7.954 48.103,7.770 48.103,7.770 48.103,7.770 48.169,7.466 48.172,7.151 48.111,6.846 48.846,6.785 49.580,6.725 50.315,6.664 Z M 43.887,6.930 C 43.887,8.067 43.887,8.067 43.887,8.067 44.441,8.067 44.441,8.067 44.441,8.067 44.441,6.930 44.441,6.930 44.441,6.930 Z M 44.631,6.930 C 44.631,8.067 44.631,8.067 44.631,8.067 44.975,8.067 44.975,8.067 44.975,8.067 44.975,6.930 44.975,6.930 44.975,6.930 Z M 45.186,6.930 C 45.186,8.067 45.186,8.067 45.186,8.067 45.531,8.067 45.531,8.067 45.531,8.067 45.531,6.930 45.531,6.930 45.531,6.930 Z M 45.741,6.930 C 45.741,8.067 45.741,8.067 45.741,8.067 46.085,8.067 46.085,8.067 46.085,8.067 46.085,6.930 46.085,6.930 46.085,6.930 Z M 46.275,6.930 C 46.275,8.067 46.275,8.067 46.275,8.067 46.829,8.067 46.829,8.067 46.829,8.067 46.829,6.930 46.829,6.930 46.829,6.930 Z M 44.012,7.054 C 44.316,7.054 44.316,7.054 44.316,7.054 44.316,7.943 44.316,7.943 44.316,7.943 44.012,7.943 44.012,7.943 44.012,7.943 Z M 44.756,7.054 C 44.850,7.054 44.850,7.054 44.850,7.054 44.850,7.943 44.850,7.943 44.850,7.943 44.756,7.943 44.756,7.943 44.756,7.943 Z M 45.311,7.054 C 45.406,7.054 45.406,7.054 45.406,7.054 45.406,7.943 45.406,7.943 45.406,7.943 45.311,7.943 45.311,7.943 45.311,7.943 Z M 45.865,7.054 C 45.961,7.054 45.961,7.054 45.961,7.054 45.961,7.943 45.961,7.943 45.961,7.943 45.865,7.943 45.865,7.943 45.865,7.943 Z M 46.400,7.054 C 46.705,7.054 46.705,7.054 46.705,7.054 46.705,7.943 46.705,7.943 46.705,7.943 46.400,7.943 46.400,7.943 46.400,7.943 Z M 27.099,7.265 C 28.043,7.273 28.043,7.273 28.043,7.273 28.986,7.281 28.986,7.281 28.986,7.281 28.995,7.627 28.995,7.627 28.995,7.627 29.007,8.084 29.095,8.047 28.016,8.037 27.116,8.029 27.116,8.029 27.116,8.029 27.108,7.647 27.108,7.647 27.108,7.647 Z M 39.346,7.743 C 42.797,7.743 42.797,7.743 42.797,7.743 43.007,7.959 43.218,8.175 43.428,8.391 46.904,8.391 46.904,8.391 46.904,8.391 46.904,8.758 46.904,8.758 46.904,8.758 46.816,8.975 46.670,9.164 46.483,9.305 46.483,9.201 46.483,9.201 46.483,9.201 45.875,9.201 45.875,9.201 45.875,9.201 45.875,9.316 45.875,9.316 45.875,9.316 45.772,9.316 45.772,9.316 45.772,9.316 45.772,9.201 45.772,9.201 45.772,9.201 45.356,9.201 45.356,9.201 45.356,9.201 45.356,9.316 45.356,9.316 45.356,9.316 45.219,9.316 45.219,9.316 45.219,9.316 45.219,9.201 45.219,9.201 45.219,9.201 44.803,9.201 44.803,9.201 44.803,9.201 44.803,9.316 44.803,9.316 44.803,9.316 44.669,9.316 44.669,9.316 44.669,9.316 44.669,9.201 44.669,9.201 44.669,9.201 44.253,9.201 44.253,9.201 44.253,9.201 44.253,9.316 44.253,9.316 44.253,9.316 44.159,9.316 44.159,9.316 44.159,9.316 44.159,9.201 44.159,9.201 44.159,9.201 43.546,9.201 43.546,9.201 43.546,9.201 43.546,9.316 43.546,9.316 43.546,9.316 43.358,9.316 43.358,9.316 43.358,9.316 43.358,8.721 43.358,8.721 43.358,8.721 43.084,8.458 42.809,8.194 42.534,7.931 39.176,7.931 39.176,7.931 39.176,7.931 38.578,7.932 37.981,8.001 37.399,8.136 36.757,8.321 36.116,8.507 35.475,8.692 34.830,8.692 34.830,8.692 34.830,8.692 36.261,8.090 37.794,7.767 39.346,7.743 Z M 39.176,8.181 C 42.435,8.181 42.435,8.181 42.435,8.181 42.620,8.358 42.805,8.536 42.990,8.713 42.553,8.716 42.116,8.719 41.679,8.722 41.622,8.722 40.295,8.663 39.834,9.315 39.713,9.611 39.592,9.907 39.472,10.203 39.410,10.252 39.360,10.315 39.328,10.386 39.329,10.387 39.329,10.387 39.329,10.387 39.241,10.541 39.153,10.695 39.064,10.848 39.089,10.944 39.114,11.040 39.139,11.136 39.080,11.178 39.020,11.220 38.961,11.261 38.890,11.442 38.820,11.622 38.749,11.803 38.761,11.902 38.773,12.000 38.785,12.099 38.693,12.156 38.601,12.213 38.509,12.270 38.449,12.493 38.388,12.715 38.328,12.937 38.328,12.964 38.328,12.964 38.328,12.964 38.328,12.964 38.306,13.433 38.039,13.464 35.880,13.464 35.880,13.464 35.880,13.464 35.786,13.457 35.697,13.416 35.631,13.347 35.538,13.226 35.497,13.073 35.520,12.922 35.520,12.914 35.592,12.173 36.325,11.272 36.450,11.100 36.554,10.913 36.635,10.716 36.713,10.721 36.792,10.726 36.871,10.731 36.013,11.962 35.801,12.728 35.791,12.765 35.767,12.840 35.776,12.922 35.816,12.991 35.838,13.024 35.875,13.045 35.914,13.048 37.730,13.048 37.730,13.048 37.730,13.048 38.067,13.048 38.172,12.603 38.173,12.593 38.548,11.639 38.922,10.685 39.297,9.731 39.493,9.667 39.664,9.310 39.698,9.231 39.760,9.143 39.765,9.027 39.710,8.934 39.605,8.798 39.326,8.852 39.308,8.858 36.952,8.888 36.952,8.888 36.952,8.888 36.937,8.768 36.910,8.651 36.872,8.537 37.069,8.481 37.266,8.424 37.463,8.368 38.025,8.243 38.600,8.180 39.176,8.181 Z M 28.049,8.600 C 28.509,8.602 28.970,8.621 28.983,8.654 29.023,8.759 29.003,9.375 28.959,9.412 28.928,9.437 28.654,9.445 28.016,9.439 27.116,9.431 27.116,9.431 27.116,9.431 27.108,9.059 27.108,9.059 27.108,9.059 27.103,8.854 27.106,8.669 27.114,8.646 27.127,8.613 27.588,8.598 28.049,8.600 Z M 41.479,8.972 C 41.545,8.970 41.611,8.970 41.676,8.972 41.833,8.972 41.833,8.972 41.833,8.972 41.946,9.169 41.974,9.404 41.910,9.622 41.911,9.623 41.911,9.623 41.911,9.623 41.814,9.788 41.637,9.890 41.446,9.888 40.674,9.888 40.674,9.888 40.674,9.888 40.649,9.888 40.094,9.863 40.069,9.430 40.224,9.261 40.426,9.143 40.649,9.090 40.671,9.388 40.828,9.660 41.075,9.828 41.116,9.757 41.158,9.686 41.199,9.614 40.963,9.471 40.905,9.182 40.890,9.031 41.085,8.996 41.282,8.977 41.479,8.972 Z M 42.102,8.972 C 42.742,8.972 42.742,8.972 42.742,8.972 42.643,9.017 42.543,9.062 42.444,9.108 42.440,9.128 42.436,9.148 42.432,9.169 42.382,9.498 42.416,9.835 42.529,10.148 42.523,10.194 42.486,10.305 42.288,10.305 40.580,10.305 40.580,10.305 40.580,10.305 40.379,10.240 40.178,10.176 39.977,10.111 39.915,10.096 39.849,10.091 39.785,10.095 39.826,9.988 39.868,9.881 39.910,9.773 40.084,10.042 40.439,10.133 40.659,10.139 41.439,10.139 41.439,10.139 41.439,10.139 41.730,10.141 41.998,9.982 42.135,9.726 42.137,9.719 42.140,9.712 42.142,9.706 42.214,9.464 42.200,9.204 42.102,8.972 Z M 39.447,8.977 C 39.520,8.975 39.590,8.987 39.615,9.020 39.655,9.074 39.615,9.145 39.589,9.186 39.510,9.358 39.353,9.607 39.248,9.618 39.211,9.618 39.211,9.618 39.211,9.618 38.826,10.599 38.442,11.581 38.058,12.562 38.058,12.562 37.972,12.929 37.734,12.929 35.930,12.929 35.930,12.929 35.930,12.929 35.920,12.929 35.897,12.896 35.917,12.805 35.917,12.797 36.143,11.989 37.041,10.723 37.062,10.693 37.084,10.662 37.106,10.632 36.944,10.622 36.784,10.612 36.622,10.602 36.539,10.574 36.456,10.546 36.373,10.517 36.454,10.239 36.641,9.576 36.627,9.028 36.629,9.028 36.629,9.028 36.629,9.028 36.740,9.026 36.851,9.023 36.962,9.021 37.750,9.011 38.538,9.001 39.325,8.990 39.360,8.983 39.404,8.977 39.447,8.977 Z M 43.671,9.325 C 44.030,9.325 44.030,9.325 44.030,9.325 44.031,9.422 44.031,9.518 44.031,9.615 43.671,9.615 43.671,9.615 43.671,9.615 Z M 44.376,9.325 C 44.545,9.325 44.545,9.325 44.545,9.325 44.544,9.422 44.543,9.518 44.542,9.615 44.376,9.615 44.376,9.615 44.376,9.615 Z M 44.928,9.325 C 45.094,9.325 45.094,9.325 45.094,9.325 45.094,9.615 45.094,9.615 45.094,9.615 44.928,9.615 44.928,9.615 44.928,9.615 Z M 45.480,9.325 C 45.646,9.325 45.646,9.325 45.646,9.325 45.646,9.615 45.646,9.615 45.646,9.615 45.480,9.615 45.480,9.615 45.480,9.615 Z M 45.999,9.325 C 46.359,9.325 46.359,9.325 46.359,9.325 46.358,9.422 46.358,9.518 46.358,9.615 45.999,9.615 45.999,9.615 45.999,9.615 Z M 27.102,10.007 C 28.037,10.007 28.037,10.007 28.037,10.007 28.970,10.007 28.970,10.007 28.970,10.007 28.970,10.350 28.970,10.350 28.970,10.350 28.970,10.694 28.970,10.694 28.970,10.694 28.028,10.686 28.028,10.686 28.028,10.686 27.086,10.677 27.086,10.677 27.086,10.677 27.076,10.413 27.076,10.413 27.076,10.413 27.071,10.267 27.075,10.116 27.085,10.078 Z M 28.041,11.316 C 28.970,11.316 28.970,11.316 28.970,11.316 28.970,11.718 28.970,11.718 28.970,11.718 28.970,12.208 29.080,12.158 28.020,12.158 27.552,12.158 27.146,12.149 27.119,12.138 27.068,12.119 27.042,11.385 27.091,11.337 27.102,11.325 27.530,11.316 28.041,11.316 Z M 28.051,12.666 C 28.955,12.672 28.955,12.672 28.955,12.672 28.964,13.043 28.964,13.043 28.964,13.043 28.970,13.319 28.963,13.421 28.933,13.440 28.887,13.469 27.194,13.476 27.119,13.447 27.054,13.422 27.045,12.702 27.109,12.676 27.130,12.667 27.554,12.663 28.051,12.666 Z M 56.061,13.129 C 56.603,13.126 56.764,13.135 56.825,13.170 56.868,13.194 56.933,13.215 56.970,13.216 57.012,13.216 57.095,13.285 57.195,13.400 57.354,13.582 57.354,13.582 57.354,13.582 57.997,13.587 57.997,13.587 57.997,13.587 58.351,13.590 58.652,13.599 58.667,13.609 58.718,13.640 58.701,15.584 58.649,15.584 58.625,15.584 58.596,15.571 58.585,15.554 58.558,15.509 57.999,15.513 57.954,15.559 57.926,15.587 57.898,15.587 57.837,15.559 57.661,15.478 56.617,15.511 56.500,15.600 56.404,15.674 56.377,15.678 56.001,15.678 55.622,15.678 55.599,15.674 55.511,15.600 55.418,15.522 55.418,15.522 55.418,15.522 54.377,15.522 54.377,15.522 54.377,15.522 53.336,15.522 53.336,15.522 53.336,15.522 53.336,14.574 53.336,14.574 53.336,14.574 53.336,13.625 53.336,13.625 53.336,13.625 53.962,13.616 53.962,13.616 53.962,13.616 54.588,13.606 54.588,13.606 54.588,13.606 54.749,13.428 54.749,13.428 54.749,13.428 54.997,13.152 55.075,13.134 56.061,13.129 Z M 75.860,13.505 C 78.089,13.513 78.089,13.513 78.089,13.513 78.089,14.557 78.089,14.557 78.089,14.557 78.089,15.600 78.089,15.600 78.089,15.600 77.986,15.610 77.986,15.610 77.986,15.610 77.913,15.617 77.853,15.597 77.778,15.540 77.673,15.460 77.673,15.460 77.673,15.460 75.630,15.460 75.630,15.460 75.630,15.460 73.587,15.460 73.587,15.460 73.587,15.460 73.587,14.499 73.587,14.499 73.587,14.499 73.587,13.971 73.597,13.529 73.608,13.518 73.620,13.506 74.633,13.500 75.860,13.505 Z M 67.896,13.532 C 68.263,13.532 68.748,13.534 69.390,13.536 72.014,13.544 72.014,13.544 72.014,13.544 72.022,14.580 72.022,14.580 72.022,14.580 72.032,15.746 72.035,15.729 71.816,15.554 71.694,15.455 71.694,15.455 71.694,15.455 69.233,15.478 69.233,15.478 69.233,15.478 66.771,15.500 66.771,15.500 66.771,15.500 66.737,15.436 66.737,15.436 66.737,15.436 66.691,15.350 66.688,13.674 66.734,13.589 66.758,13.544 66.795,13.532 67.896,13.532 Z M 62.704,13.560 C 65.300,13.560 65.300,13.560 65.300,13.560 65.300,14.603 65.300,14.603 65.300,14.603 65.300,15.177 65.288,15.647 65.274,15.647 65.260,15.647 65.214,15.610 65.173,15.566 65.097,15.485 65.097,15.485 65.097,15.485 62.604,15.496 62.604,15.496 62.604,15.496 61.233,15.502 60.094,15.495 60.073,15.481 60.018,15.446 60.017,13.652 60.071,13.597 60.100,13.569 60.727,13.560 62.704,13.560 Z M 80.198,13.646 C 80.415,13.648 80.629,13.669 80.629,13.709 80.629,13.831 79.818,14.828 79.752,14.787 79.722,14.769 79.715,13.778 79.744,13.702 79.760,13.662 79.981,13.644 80.198,13.646 Z M 36.042,13.711 C 37.700,13.711 37.700,13.711 37.700,13.711 37.679,13.753 37.659,13.794 37.639,13.836 36.090,13.836 36.090,13.836 36.090,13.836 36.074,13.794 36.058,13.753 36.042,13.711 Z M 51.305,13.753 C 51.949,13.762 51.949,13.762 51.949,13.762 51.957,14.486 51.957,14.486 51.957,14.486 51.962,14.903 51.954,15.211 51.938,15.211 51.922,15.211 51.818,15.088 51.706,14.938 51.595,14.788 51.306,14.470 51.066,14.231 50.826,13.992 50.636,13.785 50.645,13.771 50.653,13.757 50.950,13.749 51.305,13.753 Z M 27.068,14.026 C 28.012,14.034 28.012,14.034 28.012,14.034 28.955,14.042 28.955,14.042 28.955,14.042 28.955,14.463 28.955,14.463 28.955,14.463 28.955,14.883 28.955,14.883 28.955,14.883 28.020,14.883 28.020,14.883 28.020,14.883 27.086,14.883 27.086,14.883 27.086,14.883 27.077,14.455 27.077,14.455 27.077,14.455 Z M 28.012,15.436 C 28.955,15.444 28.955,15.444 28.955,15.444 28.965,15.554 28.965,15.554 28.965,15.554 28.976,15.672 29.067,15.791 29.170,15.821 29.206,15.832 29.279,15.891 29.333,15.954 29.432,16.067 29.432,16.067 29.432,16.067 31.093,16.083 31.093,16.083 31.093,16.083 32.754,16.099 32.754,16.099 32.754,16.099 32.775,16.204 32.775,16.204 32.775,16.204 32.809,16.373 32.926,16.465 33.127,16.481 33.300,16.496 33.300,16.496 33.300,16.496 33.308,17.247 33.308,17.247 33.308,17.247 33.317,18.000 33.317,18.000 33.317,18.000 33.893,18.000 33.893,18.000 33.893,18.000 34.470,18.000 34.470,18.000 34.470,18.000 34.478,17.244 34.478,17.244 34.478,17.244 34.486,16.492 34.487,16.489 34.556,16.472 34.594,16.463 35.712,16.459 37.040,16.464 39.455,16.473 39.455,16.473 39.455,16.473 39.463,17.244 39.463,17.244 39.463,17.244 39.472,18.016 39.472,18.016 39.472,18.016 40.024,18.008 40.024,18.008 40.024,18.008 40.576,18.000 40.576,18.000 40.576,18.000 40.585,17.232 40.585,17.232 40.585,17.232 40.593,16.470 40.594,16.464 40.662,16.446 40.700,16.436 41.986,16.431 43.520,16.435 46.310,16.441 46.310,16.441 46.310,16.441 46.325,17.220 46.325,17.220 46.325,17.220 46.340,18.000 46.340,18.000 46.340,18.000 46.909,18.008 46.909,18.008 46.909,18.008 47.478,18.016 47.478,18.016 47.478,18.016 47.478,17.258 47.478,17.258 47.478,17.258 47.478,16.699 47.488,16.487 47.517,16.450 47.574,16.376 53.071,16.352 53.118,16.426 53.135,16.452 53.148,16.812 53.148,17.244 53.148,18.016 53.148,18.016 53.148,18.016 53.670,18.008 53.670,18.008 53.670,18.008 54.192,18.000 54.192,18.000 54.192,18.000 54.200,17.223 54.200,17.223 54.200,17.223 54.211,16.283 54.163,16.364 54.702,16.362 55.026,16.362 55.141,16.351 55.187,16.316 55.220,16.291 55.285,16.270 55.329,16.270 55.374,16.270 55.458,16.235 55.516,16.192 55.667,16.081 56.359,16.073 56.497,16.181 56.655,16.306 57.720,16.398 57.841,16.298 57.876,16.269 57.903,16.269 57.956,16.297 57.999,16.319 58.252,16.335 58.647,16.340 59.271,16.348 59.271,16.348 59.271,16.348 59.288,17.158 59.288,17.158 59.288,17.158 59.297,17.603 59.308,17.972 59.311,17.976 59.315,17.981 59.573,17.981 59.886,17.976 60.455,17.968 60.455,17.968 60.455,17.968 60.470,17.220 60.470,17.220 60.470,17.220 60.486,16.473 60.486,16.473 60.486,16.473 60.592,16.481 60.592,16.481 60.592,16.481 60.933,16.509 61.324,16.859 61.578,17.363 61.717,17.639 61.717,17.639 61.717,17.639 61.717,18.015 61.717,18.015 61.717,18.015 61.717,18.721 61.110,19.510 60.567,19.510 60.471,19.510 60.471,19.510 60.471,19.510 60.463,18.802 60.463,18.802 60.463,18.802 60.455,18.093 60.455,18.093 60.455,18.093 59.879,18.093 59.879,18.093 59.879,18.093 59.302,18.093 59.302,18.093 59.302,18.093 59.286,18.872 59.286,18.872 59.286,18.872 59.271,19.651 59.271,19.651 59.271,19.651 58.649,19.659 58.649,19.659 58.649,19.659 58.135,19.666 58.019,19.676 57.974,19.717 57.924,19.761 57.913,19.762 57.848,19.716 57.617,19.555 56.673,19.702 56.484,19.929 56.428,19.997 55.586,20.002 55.560,19.935 55.551,19.911 55.478,19.867 55.398,19.837 55.317,19.807 55.230,19.763 55.203,19.741 55.169,19.711 55.022,19.697 54.689,19.690 54.223,19.682 54.223,19.682 54.223,19.682 54.215,18.911 54.215,18.911 54.215,18.911 54.205,18.002 54.280,18.102 53.616,18.115 53.164,18.124 53.164,18.124 53.164,18.124 53.148,18.893 53.148,18.893 53.148,18.893 53.140,19.316 53.126,19.667 53.117,19.675 53.074,19.713 47.543,19.727 47.518,19.689 47.505,19.668 47.487,19.307 47.478,18.887 47.462,18.124 47.462,18.124 47.462,18.124 46.964,18.115 46.964,18.115 46.964,18.115 46.244,18.102 46.327,17.998 46.318,18.927 46.310,19.713 46.310,19.713 46.310,19.713 43.521,19.735 43.521,19.735 43.521,19.735 41.987,19.747 40.701,19.750 40.662,19.742 40.592,19.727 40.592,19.727 40.592,19.727 40.592,18.955 40.592,18.955 40.592,18.955 40.592,18.396 40.582,18.173 40.555,18.146 40.515,18.106 39.616,18.090 39.520,18.127 39.477,18.144 39.471,18.241 39.471,18.903 39.471,19.320 39.462,19.684 39.451,19.711 39.434,19.755 39.186,19.760 36.959,19.760 34.485,19.760 34.485,19.760 34.485,19.760 34.485,18.972 34.485,18.972 34.485,18.972 34.485,18.400 34.475,18.173 34.448,18.146 34.422,18.120 34.254,18.108 33.893,18.108 33.532,18.108 33.365,18.120 33.339,18.146 33.312,18.173 33.301,18.400 33.301,18.972 33.301,19.760 33.301,19.760 33.301,19.760 33.169,19.760 33.169,19.760 33.169,19.760 32.995,19.761 32.897,19.813 32.805,19.955 32.730,20.071 32.730,20.071 32.730,20.071 31.993,20.071 31.993,20.071 31.993,20.071 31.256,20.071 31.256,20.071 31.256,20.071 31.165,20.166 31.165,20.166 31.165,20.166 31.074,20.261 31.074,20.261 31.074,20.261 30.342,20.247 30.342,20.247 30.342,20.247 29.939,20.239 29.539,20.223 29.452,20.211 29.328,20.195 29.285,20.201 29.253,20.240 29.149,20.365 29.095,20.336 28.140,19.641 27.918,19.479 27.918,19.479 27.918,19.479 22.289,19.479 22.289,19.479 22.289,19.479 16.660,19.479 16.660,19.479 16.660,19.479 16.461,19.898 16.461,19.898 16.461,19.898 16.234,20.377 16.227,20.383 15.802,20.383 15.375,20.383 15.324,20.144 15.324,18.145 15.324,16.215 15.362,16.052 15.820,16.052 16.060,16.052 16.060,16.052 16.060,16.052 16.227,16.356 16.227,16.356 16.227,16.356 16.318,16.523 16.413,16.684 16.439,16.714 16.502,16.788 26.758,16.800 26.758,16.727 26.758,16.704 26.716,16.609 26.665,16.517 26.495,16.208 26.561,15.834 26.786,15.834 26.930,15.834 27.043,15.681 27.067,15.452 27.069,15.439 27.494,15.432 28.012,15.436 Z M 57.204,15.741 C 57.438,15.742 57.667,15.754 57.691,15.778 57.712,15.798 57.728,15.866 57.728,15.927 57.728,15.989 57.712,16.056 57.691,16.077 57.634,16.134 57.010,16.127 56.932,16.068 56.899,16.043 56.819,16.022 56.755,16.022 56.621,16.021 56.576,15.842 56.693,15.774 56.732,15.751 56.970,15.740 57.204,15.741 Z M 54.365,15.772 C 55.353,15.772 55.353,15.772 55.353,15.772 55.373,15.873 55.373,15.873 55.373,15.873 55.397,15.992 55.338,16.052 55.198,16.052 55.149,16.052 55.074,16.075 55.032,16.103 54.963,16.148 54.863,16.151 54.137,16.132 53.174,16.106 53.186,16.108 53.272,15.999 53.307,15.955 53.336,15.895 53.336,15.866 53.336,15.774 53.358,15.772 54.365,15.772 Z M 26.184,16.319 C 26.248,16.313 26.314,16.326 26.364,16.366 26.506,16.477 26.405,16.675 26.208,16.675 26.131,16.675 25.979,16.551 25.979,16.488 25.979,16.396 26.077,16.330 26.184,16.319 Z M 16.893,16.364 C 16.955,16.364 17.018,16.387 17.051,16.423 17.169,16.554 17.009,16.773 16.840,16.709 16.636,16.631 16.677,16.364 16.893,16.364 Z M 31.441,16.992 C 31.392,16.993 31.343,17.007 31.286,17.032 31.125,17.102 31.120,17.130 31.120,18.092 31.120,18.984 31.120,18.984 31.120,18.984 31.201,19.064 31.201,19.064 31.201,19.064 31.375,19.238 31.499,19.177 32.012,18.665 32.655,18.023 32.654,18.049 32.090,17.474 31.734,17.111 31.587,16.988 31.441,16.992 Z M 30.310,16.997 C 30.261,17.000 30.209,17.013 30.154,17.036 30.033,17.088 29.366,17.733 29.295,17.866 29.161,18.120 29.244,18.287 29.756,18.785 30.207,19.223 30.435,19.252 30.618,18.897 30.668,18.801 30.665,17.394 30.616,17.228 30.568,17.070 30.455,16.989 30.310,16.997 Z M 43.458,17.264 C 42.166,17.264 40.874,17.278 40.847,17.305 40.808,17.344 40.791,18.677 40.829,18.776 40.854,18.841 46.005,18.852 46.069,18.788 46.096,18.761 46.107,18.552 46.107,18.046 46.107,17.540 46.096,17.332 46.069,17.305 46.042,17.278 44.750,17.264 43.458,17.264 Z M 56.778,17.265 C 55.658,17.261 54.533,17.269 54.495,17.293 54.465,17.312 54.458,17.488 54.464,18.064 54.473,18.809 54.473,18.809 54.473,18.809 56.762,18.809 56.762,18.809 56.762,18.809 59.053,18.809 59.053,18.809 59.053,18.809 59.061,18.081 59.061,18.081 59.061,18.081 59.067,17.570 59.059,17.340 59.034,17.310 59.014,17.286 57.898,17.269 56.778,17.265 Z M 36.962,17.268 C 35.763,17.268 34.764,17.279 34.742,17.293 34.711,17.312 34.704,17.488 34.711,18.064 34.719,18.809 34.719,18.809 34.719,18.809 36.962,18.809 36.962,18.809 36.962,18.809 39.206,18.809 39.206,18.809 39.206,18.809 39.214,18.064 39.214,18.064 39.214,18.064 39.220,17.488 39.213,17.312 39.183,17.293 39.161,17.279 38.162,17.268 36.962,17.268 Z M 50.313,17.269 C 49.052,17.269 47.791,17.277 47.765,17.293 47.735,17.312 47.728,17.488 47.734,18.064 47.742,18.809 47.742,18.809 47.742,18.809 50.313,18.809 50.313,18.809 50.313,18.809 52.883,18.809 52.883,18.809 52.883,18.809 52.892,18.064 52.892,18.064 52.892,18.064 52.898,17.488 52.891,17.312 52.861,17.293 52.835,17.277 51.574,17.269 50.313,17.269 Z M 27.565,17.760 C 27.519,17.762 27.473,17.772 27.428,17.793 27.224,17.887 27.146,18.081 27.240,18.262 27.408,18.587 28.049,18.296 27.892,17.966 27.827,17.829 27.700,17.754 27.565,17.760 Z M 27.544,19.624 C 27.606,19.620 27.675,19.640 27.732,19.690 27.852,19.796 27.737,20.040 27.568,20.040 27.473,20.040 27.350,19.918 27.350,19.825 27.350,19.707 27.440,19.632 27.544,19.624 Z M 16.968,19.729 C 17.032,19.728 17.098,19.745 17.136,19.780 17.265,19.897 17.161,20.113 16.975,20.113 16.792,20.113 16.691,19.915 16.808,19.786 16.841,19.750 16.904,19.730 16.968,19.729 Z M 57.363,19.912 C 57.549,19.912 57.727,19.930 57.741,19.965 57.864,20.286 57.763,20.355 57.179,20.345 56.684,20.336 56.684,20.336 56.684,20.336 56.675,20.173 56.675,20.173 56.675,20.173 56.666,20.009 56.666,20.009 56.666,20.009 56.770,20.009 56.770,20.009 56.770,20.009 56.828,20.009 56.903,19.988 56.936,19.963 56.982,19.929 57.176,19.912 57.363,19.912 Z M 78.852,20.383 C 79.210,20.383 79.210,20.383 79.210,20.383 79.531,20.383 79.571,20.389 79.600,20.443 79.617,20.476 79.632,20.568 79.632,20.647 79.632,20.857 79.701,20.960 80.205,21.504 80.479,21.801 80.761,22.184 80.736,22.225 80.726,22.240 80.462,22.252 80.148,22.252 79.578,22.252 79.578,22.252 79.578,22.252 79.461,22.345 79.461,22.345 79.461,22.345 79.325,22.453 79.148,22.509 78.984,22.496 78.869,22.486 78.869,22.486 78.869,22.486 78.860,21.434 78.860,21.434 78.860,21.434 Z M 72.840,20.414 C 73.161,20.414 73.161,20.414 73.161,20.414 73.376,20.414 73.494,20.427 73.520,20.453 73.551,20.484 74.017,20.492 75.638,20.492 77.716,20.492 77.716,20.492 77.716,20.492 77.716,21.458 77.716,21.458 77.716,21.458 77.716,22.424 77.716,22.424 77.716,22.424 75.504,22.444 75.504,22.444 75.504,22.444 74.160,22.456 73.221,22.477 73.112,22.498 72.818,22.552 72.840,22.635 72.840,21.455 Z M 66.172,20.445 C 66.418,20.445 66.418,20.445 66.418,20.445 66.600,20.445 66.673,20.457 66.702,20.493 66.738,20.536 67.017,20.538 69.249,20.519 71.390,20.500 71.759,20.503 71.783,20.541 71.829,20.614 71.819,22.395 71.772,22.431 71.748,22.451 70.771,22.470 69.147,22.482 67.725,22.494 66.474,22.511 66.367,22.522 66.172,22.541 66.172,22.541 66.172,22.541 66.172,21.493 66.172,21.493 66.172,21.493 Z M 59.811,20.479 C 59.854,20.469 59.912,20.488 59.944,20.527 59.982,20.573 60.215,20.576 62.572,20.566 65.160,20.554 65.160,20.554 65.160,20.554 65.160,21.520 65.160,21.520 65.160,21.520 65.160,22.486 65.160,22.486 65.160,22.486 62.497,22.508 62.497,22.508 62.497,22.508 60.599,22.524 59.824,22.521 59.795,22.497 59.751,22.461 59.732,20.540 59.774,20.497 59.784,20.488 59.797,20.482 59.811,20.479 Z M 56.042,20.504 C 56.289,20.504 56.539,20.522 56.593,20.558 56.691,20.622 57.724,20.608 57.849,20.541 57.904,20.511 57.940,20.510 57.989,20.535 58.026,20.554 58.182,20.573 58.336,20.577 58.617,20.585 58.617,20.585 58.617,20.585 58.625,21.541 58.625,21.541 58.625,21.541 58.632,22.431 58.629,22.498 58.578,22.514 58.548,22.524 58.278,22.534 57.979,22.537 57.434,22.542 57.434,22.542 57.434,22.542 57.355,22.628 57.355,22.628 57.355,22.628 57.312,22.675 57.245,22.756 57.206,22.808 57.165,22.863 57.094,22.911 57.035,22.923 56.979,22.935 56.914,22.961 56.890,22.980 56.830,23.029 55.263,23.030 55.202,22.981 55.178,22.962 55.116,22.937 55.064,22.925 55.008,22.911 54.903,22.830 54.798,22.718 54.626,22.533 54.626,22.533 54.626,22.533 53.887,22.533 53.887,22.533 53.887,22.533 53.148,22.533 53.148,22.533 53.148,22.533 53.148,21.559 53.148,21.559 53.148,21.559 53.148,20.585 53.148,20.585 53.148,20.585 54.294,20.594 54.294,20.594 54.294,20.594 55.277,20.602 55.447,20.597 55.501,20.556 55.548,20.521 55.794,20.503 56.042,20.504 Z M 52.092,20.774 C 52.108,20.784 52.120,21.147 52.120,21.582 52.120,22.022 52.108,22.381 52.092,22.390 52.025,22.432 50.759,22.449 50.735,22.410 50.719,22.384 50.795,22.284 50.958,22.117 51.430,21.632 51.645,21.382 51.854,21.070 51.970,20.898 52.077,20.765 52.092,20.774 Z " />
</svg>