<?xml version="1.0" encoding="UTF-8" standalone="no"?>
<!DOCTYPE svg PUBLIC "-//W3C//DTD SVG 20010904//EN" "http://www.w3.org/TR/2001/REC-SVG-20010904/DTD/svg10.dtd"[]>
<svg version="1.1" id="Frosty Editor v1.0.6.3" xmlns="http://www.w3.org/2000/svg" d1p1:xlink="http://www.w3.org/1999/xlink" viewBox="0 0 96 96" xmlns:d1p1="xmlns">
  <path stroke="none" fill="none" d="M 48.100,96.100 C 32.200,96.100 16.300,96.100 0.400,96.100 0.200,96.100 0.100,96.100 0.100,95.800 0.100,64.000 0.100,32.100 0.100,0.300 0.100,0.100 0.100,0.000 0.400,0.000 32.200,0.000 64.100,0.000 95.900,0.000 96.100,0.000 96.200,0.000 96.200,0.300 96.200,32.100 96.200,64.000 96.200,95.800 96.200,96.000 96.200,96.100 95.900,96.100 79.900,96.100 64.000,96.100 48.100,96.100 Z M 45.300,74.200 C 45.300,74.500 45.400,74.700 45.700,74.900 47.600,76.200 49.500,77.600 51.300,79.000 51.700,79.300 52.200,79.200 52.600,78.900 52.900,78.600 53.100,78.200 53.400,77.900 53.500,77.800 53.600,77.500 53.800,77.500 54.000,77.400 54.100,77.700 54.300,77.800 54.800,78.100 55.400,78.000 55.800,77.500 56.000,77.300 56.200,77.000 56.300,76.700 56.400,76.500 56.500,76.500 56.700,76.600 57.200,77.000 57.800,77.400 58.300,77.800 58.400,77.900 58.500,77.900 58.600,77.800 59.200,77.000 59.800,76.100 60.400,75.300 60.500,75.200 60.500,75.100 60.300,75.000 59.700,74.600 59.200,74.200 58.600,73.800 58.500,73.700 58.400,73.600 58.500,73.500 58.800,73.100 59.100,72.800 59.300,72.400 59.400,72.300 59.400,72.200 59.600,72.300 60.000,72.600 60.700,72.400 61.000,72.000 61.400,71.400 61.900,70.800 62.300,70.200 62.400,70.000 62.600,69.800 62.500,69.600 62.400,69.200 62.500,69.000 62.700,68.800 62.800,68.700 62.900,68.600 62.900,68.500 63.000,68.300 63.100,68.100 63.100,67.900 63.100,67.100 63.300,66.300 63.700,65.700 65.900,62.700 68.100,59.700 70.300,56.700 70.700,56.100 71.300,55.600 71.900,55.300 72.500,55.000 73.100,54.700 73.500,54.100 73.500,54.000 73.600,54.000 73.700,54.000 74.100,54.000 74.300,53.900 74.500,53.600 75.000,53.000 75.400,52.400 75.900,51.800 76.200,51.400 76.200,51.000 76.000,50.600 75.900,50.400 75.900,50.300 76.000,50.200 77.300,48.400 78.700,46.600 80.000,44.800 80.300,44.300 80.500,43.800 80.300,43.200 80.200,43.100 80.300,43.000 80.300,42.900 80.600,42.300 80.400,41.600 79.900,41.200 79.400,40.900 79.000,40.500 78.500,40.200 78.300,40.100 78.000,40.000 77.900,39.800 77.600,39.300 77.100,39.100 76.800,38.800 76.100,38.200 75.200,38.000 74.600,37.300 74.300,37.000 73.900,36.800 73.500,36.500 73.100,36.200 72.100,36.200 71.700,36.600 71.600,36.700 71.500,36.700 71.400,36.700 70.800,36.600 70.400,37.000 70.000,37.400 69.500,38.000 69.000,38.700 68.600,39.300 67.700,40.500 66.800,41.700 66.000,42.800 65.900,42.900 65.800,42.900 65.700,42.900 65.300,42.800 64.900,43.000 64.600,43.300 64.100,43.900 63.700,44.600 63.200,45.200 63.000,45.400 63.000,45.700 63.100,45.900 63.200,46.100 63.100,46.200 63.000,46.400 62.800,46.700 62.600,46.900 62.600,47.300 62.500,48.400 62.100,49.400 61.400,50.300 59.200,53.200 57.100,56.100 54.900,59.000 54.500,59.500 54.000,59.900 53.400,60.200 53.100,60.300 52.800,60.300 52.500,60.600 52.300,60.800 52.200,61.000 52.000,61.300 51.900,61.400 51.800,61.500 51.700,61.500 51.400,61.500 51.100,61.600 51.000,61.900 50.500,62.500 50.100,63.100 49.600,63.700 49.300,64.100 49.400,64.700 49.700,65.000 49.900,65.200 49.800,65.300 49.700,65.400 48.400,67.100 47.200,68.700 45.900,70.400 45.700,70.700 45.600,71.000 45.700,71.300 45.800,71.600 46.000,71.900 46.300,72.100 46.500,72.200 46.500,72.300 46.300,72.500 46.000,72.900 45.700,73.300 45.500,73.600 45.400,73.600 45.300,73.900 45.300,74.200 Z M 15.500,52.000 C 15.500,52.400 15.600,52.600 16.000,52.900 17.800,54.200 19.600,55.500 21.400,56.900 21.900,57.300 22.600,57.200 22.900,56.700 23.100,56.400 23.300,56.100 23.600,55.800 23.900,55.400 23.900,55.400 24.400,55.600 24.900,55.900 25.500,55.800 25.900,55.300 26.100,55.000 26.300,54.800 26.500,54.500 26.600,54.400 26.700,54.300 26.800,54.400 27.400,54.800 27.900,55.200 28.500,55.600 28.600,55.700 28.700,55.700 28.800,55.600 29.400,54.800 30.000,53.900 30.600,53.100 30.700,53.000 30.700,52.900 30.600,52.800 30.000,52.400 29.500,52.000 28.900,51.600 28.800,51.500 28.700,51.400 28.800,51.300 29.100,50.900 29.400,50.500 29.700,50.100 29.800,50.000 29.800,50.000 29.900,50.000 30.400,50.300 30.900,50.100 31.300,49.700 31.700,49.100 32.200,48.500 32.600,47.900 32.700,47.700 32.900,47.500 32.800,47.300 32.700,47.000 32.800,46.700 33.000,46.500 33.100,46.400 33.200,46.300 33.200,46.200 33.300,46.000 33.400,45.800 33.400,45.600 33.400,44.800 33.600,44.000 34.100,43.400 36.300,40.400 38.500,37.400 40.700,34.400 41.100,33.800 41.700,33.300 42.300,32.900 42.900,32.600 43.500,32.400 43.900,31.700 43.900,31.600 44.000,31.600 44.100,31.600 44.500,31.700 44.700,31.400 45.000,31.200 45.500,30.600 45.900,30.000 46.300,29.400 46.600,29.000 46.600,28.600 46.400,28.200 46.300,28.000 46.400,27.900 46.500,27.700 47.800,25.900 49.100,24.200 50.400,22.400 50.700,22.000 50.900,21.500 50.700,20.900 50.600,20.700 50.600,20.600 50.700,20.400 50.900,19.900 50.800,19.100 50.400,18.800 49.500,18.100 48.600,17.500 47.800,16.700 46.900,15.800 45.700,15.400 44.700,14.600 44.400,14.400 44.100,14.200 43.800,14.000 43.300,13.600 42.500,13.700 42.000,14.100 41.900,14.200 41.800,14.200 41.700,14.200 41.100,14.100 40.700,14.500 40.400,14.900 39.900,15.500 39.400,16.200 38.900,16.800 38.000,18.000 37.100,19.200 36.300,20.400 36.200,20.500 36.200,20.500 36.000,20.500 35.500,20.400 35.100,20.500 34.800,20.900 34.300,21.500 33.900,22.200 33.400,22.800 33.200,23.000 33.200,23.300 33.300,23.500 33.400,23.700 33.300,23.800 33.200,23.900 33.000,24.200 32.800,24.500 32.700,24.900 32.600,26.000 32.200,27.000 31.500,27.800 29.600,30.300 27.700,32.900 25.800,35.400 25.400,36.000 25.000,36.600 24.400,37.100 24.000,37.400 23.600,37.600 23.200,37.800 22.900,37.900 22.700,38.000 22.500,38.300 22.400,38.500 22.300,38.600 22.200,38.800 22.100,38.900 22.000,39.000 21.900,39.000 21.600,39.000 21.300,39.100 21.100,39.400 20.600,40.000 20.200,40.600 19.700,41.200 19.400,41.600 19.400,42.200 19.800,42.500 20.000,42.700 19.900,42.800 19.800,42.900 18.500,44.600 17.300,46.200 16.100,47.900 15.900,48.200 15.800,48.500 15.900,48.800 16.000,49.100 16.100,49.300 16.400,49.500 16.700,49.700 16.700,49.700 16.500,50.000 16.200,50.400 16.000,50.700 15.700,51.100 15.500,51.500 15.400,51.800 15.500,52.000 Z M 23.300,72.700 C 23.300,73.000 23.400,73.200 23.700,73.400 24.700,74.100 25.700,74.800 26.700,75.600 27.500,76.200 28.400,76.800 29.200,77.500 29.700,77.900 30.400,77.800 30.700,77.300 30.900,77.000 31.200,76.700 31.400,76.400 31.700,76.000 31.700,76.000 32.200,76.200 32.700,76.500 33.400,76.400 33.700,75.900 33.900,75.700 34.100,75.400 34.200,75.200 34.300,75.000 34.400,75.000 34.600,75.100 35.100,75.500 35.700,75.900 36.200,76.300 36.300,76.400 36.400,76.400 36.500,76.300 37.100,75.500 37.700,74.600 38.300,73.800 38.400,73.700 38.400,73.600 38.200,73.500 37.600,73.100 37.100,72.700 36.500,72.300 36.400,72.200 36.300,72.100 36.400,72.000 36.700,71.600 37.000,71.300 37.200,70.900 37.300,70.800 37.300,70.700 37.500,70.800 37.900,71.100 38.600,70.900 38.900,70.500 39.300,69.900 39.800,69.300 40.200,68.700 40.300,68.500 40.500,68.300 40.400,68.100 40.300,67.800 40.400,67.500 40.600,67.300 40.700,67.200 40.800,67.100 40.900,67.000 41.000,66.800 41.100,66.700 41.100,66.500 41.100,65.700 41.300,64.900 41.800,64.300 44.000,61.300 46.200,58.300 48.400,55.300 48.900,54.700 49.400,54.200 50.100,53.800 50.700,53.500 51.300,53.300 51.600,52.600 51.600,52.500 51.700,52.500 51.800,52.500 52.100,52.500 52.400,52.400 52.600,52.100 53.100,51.500 53.500,50.900 54.000,50.200 54.300,49.800 54.300,49.400 54.100,49.000 54.000,48.800 54.000,48.700 54.100,48.600 55.400,46.800 56.800,45.000 58.100,43.200 58.400,42.800 58.600,42.200 58.400,41.700 58.300,41.600 58.400,41.500 58.500,41.300 58.800,40.800 58.600,40.000 58.200,39.700 57.300,39.000 56.400,38.400 55.600,37.600 54.700,36.600 53.300,36.200 52.300,35.300 52.100,35.100 51.900,35.000 51.600,34.800 51.100,34.400 50.300,34.400 49.800,34.900 49.700,35.000 49.600,35.000 49.500,35.000 48.900,34.900 48.500,35.300 48.100,35.700 47.600,36.400 47.100,37.000 46.600,37.700 45.800,38.800 44.900,40.000 44.100,41.100 44.000,41.200 44.000,41.300 43.800,41.200 43.400,41.100 42.900,41.200 42.700,41.600 42.200,42.200 41.800,42.900 41.300,43.500 41.100,43.700 41.000,44.000 41.100,44.200 41.200,44.400 41.100,44.500 41.000,44.700 40.800,45.000 40.600,45.300 40.500,45.700 40.400,46.700 40.000,47.700 39.400,48.500 37.300,51.300 35.200,54.100 33.100,56.900 32.800,57.300 32.400,57.700 32.000,58.100 31.700,58.400 31.300,58.600 30.800,58.700 30.500,58.800 30.300,58.900 30.200,59.100 30.100,59.300 29.900,59.400 29.800,59.600 29.700,59.700 29.600,59.800 29.500,59.800 29.200,59.800 29.000,59.900 28.800,60.200 28.300,60.800 27.900,61.400 27.400,62.000 27.100,62.400 27.200,63.000 27.500,63.300 27.700,63.500 27.600,63.600 27.500,63.700 26.300,65.400 25.000,67.000 23.800,68.700 23.600,69.000 23.500,69.300 23.600,69.700 23.700,70.000 23.800,70.200 24.100,70.400 24.400,70.700 24.400,70.600 24.200,71.000 24.000,71.300 23.700,71.700 23.400,72.000 23.400,72.100 23.300,72.300 23.300,72.700 Z " />
  <path stroke="none" fill="#fff6f6f6" d="M 45.300,74.200 C 45.300,73.900 45.400,73.600 45.500,73.400 45.800,73.000 46.100,72.600 46.300,72.300 46.400,72.100 46.400,72.100 46.300,71.900 46.000,71.700 45.800,71.500 45.700,71.100 45.600,70.800 45.600,70.500 45.900,70.200 47.100,68.500 48.400,66.900 49.700,65.200 49.800,65.000 49.900,64.900 49.700,64.800 49.400,64.500 49.300,63.900 49.600,63.500 50.100,62.900 50.500,62.300 51.000,61.700 51.200,61.500 51.400,61.300 51.700,61.300 51.900,61.300 52.000,61.200 52.000,61.100 52.100,60.900 52.300,60.600 52.500,60.400 52.700,60.100 53.100,60.100 53.400,60.000 54.000,59.700 54.500,59.300 54.900,58.800 57.100,55.900 59.200,53.000 61.400,50.100 62.100,49.200 62.500,48.200 62.600,47.100 62.600,46.700 62.800,46.500 63.000,46.200 63.100,46.100 63.200,45.900 63.100,45.700 63.000,45.400 63.100,45.200 63.200,45.000 63.700,44.400 64.100,43.700 64.600,43.100 64.900,42.700 65.300,42.600 65.700,42.700 65.900,42.700 65.900,42.700 66.000,42.600 66.900,41.400 67.800,40.200 68.600,39.100 69.100,38.500 69.500,37.800 70.000,37.200 70.300,36.800 70.800,36.500 71.400,36.500 71.500,36.500 71.600,36.500 71.700,36.400 72.000,35.900 73.100,35.900 73.500,36.300 73.900,36.600 74.300,36.800 74.600,37.100 75.300,37.700 76.200,38.000 76.800,38.600 77.200,38.900 77.700,39.200 77.900,39.600 78.000,39.800 78.300,39.900 78.500,40.000 79.000,40.300 79.400,40.700 79.900,41.000 80.400,41.400 80.600,42.100 80.300,42.700 80.200,42.800 80.200,42.900 80.300,43.000 80.500,43.600 80.300,44.100 80.000,44.600 78.700,46.400 77.400,48.200 76.000,50.000 75.900,50.100 75.900,50.200 76.000,50.400 76.200,50.800 76.200,51.200 75.900,51.600 75.500,52.200 75.000,52.800 74.500,53.400 74.300,53.700 74.100,53.800 73.700,53.800 73.600,53.800 73.500,53.800 73.500,53.900 73.200,54.600 72.500,54.800 71.900,55.100 71.200,55.400 70.700,55.900 70.300,56.500 68.100,59.500 65.900,62.500 63.700,65.500 63.200,66.100 63.000,66.900 63.100,67.700 63.100,67.900 63.000,68.100 62.900,68.300 62.800,68.400 62.800,68.500 62.700,68.600 62.500,68.800 62.300,69.100 62.500,69.400 62.600,69.600 62.400,69.800 62.300,70.000 61.900,70.600 61.400,71.200 61.000,71.800 60.700,72.200 60.000,72.400 59.600,72.100 59.500,72.000 59.400,72.100 59.300,72.200 59.000,72.600 58.800,72.900 58.500,73.300 58.400,73.400 58.400,73.500 58.600,73.600 59.200,74.000 59.700,74.400 60.300,74.800 60.400,74.900 60.500,75.000 60.400,75.100 59.800,75.900 59.200,76.800 58.600,77.600 58.500,77.700 58.500,77.700 58.300,77.600 57.800,77.200 57.200,76.800 56.700,76.400 56.500,76.300 56.400,76.300 56.300,76.500 56.100,76.800 55.900,77.000 55.800,77.300 55.400,77.800 54.800,77.900 54.300,77.600 54.100,77.500 54.000,77.300 53.800,77.300 53.700,77.400 53.600,77.600 53.400,77.700 53.100,78.100 52.900,78.400 52.600,78.700 52.300,79.100 51.700,79.100 51.300,78.800 49.500,77.400 47.600,76.000 45.700,74.700 45.400,74.700 45.300,74.500 45.300,74.200 Z M 52.100,62.100 C 51.700,62.000 51.600,62.100 51.400,62.300 51.000,62.800 50.600,63.300 50.200,63.800 50.000,64.100 50.000,64.200 50.300,64.400 50.600,64.600 51.000,64.900 51.300,65.100 54.200,67.200 57.000,69.400 59.900,71.500 60.200,71.700 60.300,71.700 60.500,71.400 60.900,70.900 61.300,70.300 61.700,69.800 61.800,69.700 61.900,69.600 61.800,69.500 61.600,69.100 61.700,68.800 62.000,68.500 62.100,68.400 62.200,68.200 62.400,68.100 62.400,68.100 62.500,68.000 62.500,68.000 62.400,67.800 62.500,67.600 62.500,67.300 62.600,66.600 62.800,65.900 63.300,65.300 65.500,62.300 67.700,59.300 69.900,56.300 70.400,55.600 71.000,55.000 71.700,54.600 72.000,54.400 72.300,54.300 72.600,54.100 72.800,54.000 73.000,53.800 73.000,53.600 73.100,53.400 72.800,53.400 72.700,53.300 69.800,51.200 67.000,49.000 64.100,46.900 64.000,46.800 63.900,46.600 63.700,46.700 63.500,46.800 63.400,47.000 63.400,47.200 63.400,47.300 63.400,47.400 63.400,47.400 63.300,48.600 62.800,49.600 62.100,50.600 60.000,53.500 57.800,56.300 55.700,59.200 55.200,59.900 54.600,60.400 53.900,60.700 53.400,60.900 52.900,61.200 52.700,61.700 52.700,61.700 52.700,61.700 52.700,61.700 52.400,62.000 52.300,62.100 52.100,62.100 Z M 79.800,43.600 C 79.800,43.400 79.700,43.400 79.600,43.300 79.100,43.000 78.700,42.600 78.200,42.300 76.000,40.700 73.800,39.000 71.600,37.400 71.500,37.300 71.400,37.200 71.200,37.300 71.000,37.400 70.800,37.500 70.700,37.700 69.300,39.500 68.000,41.400 66.600,43.200 66.500,43.400 66.500,43.500 66.700,43.600 69.500,45.700 72.300,47.800 75.200,49.900 75.400,50.000 75.400,50.000 75.500,49.900 76.900,48.000 78.300,46.100 79.700,44.300 79.800,44.100 79.800,43.800 79.800,43.600 Z M 54.800,77.100 C 55.000,77.200 55.100,77.000 55.200,76.900 56.400,75.200 57.700,73.600 58.900,71.900 59.100,71.700 59.000,71.500 58.900,71.300 58.800,71.200 58.800,71.200 58.700,71.100 57.000,69.900 55.400,68.600 53.700,67.400 52.800,66.800 52.000,66.100 51.100,65.500 50.700,65.200 50.500,65.300 50.300,65.600 49.100,67.200 47.900,68.900 46.600,70.500 46.400,70.800 46.400,71.000 46.700,71.200 49.300,73.200 51.900,75.100 54.500,77.000 54.600,77.100 54.700,77.200 54.800,77.100 Z M 73.700,53.200 C 73.900,53.200 74.000,53.200 74.100,53.100 74.500,52.500 75.000,51.900 75.400,51.300 75.500,51.100 75.500,50.900 75.300,50.800 72.100,48.400 68.900,46.100 65.700,43.700 65.400,43.500 65.300,43.500 65.100,43.800 64.700,44.300 64.300,44.800 64.000,45.400 63.700,45.800 63.800,46.100 64.200,46.400 67.200,48.600 70.100,50.800 73.100,53.000 73.300,53.100 73.500,53.200 73.700,53.200 Z M 46.000,74.100 C 46.000,74.200 46.100,74.300 46.200,74.400 48.000,75.700 49.800,77.000 51.600,78.400 51.800,78.600 52.000,78.600 52.100,78.300 52.400,77.900 52.700,77.500 53.000,77.100 53.100,76.900 53.100,76.900 52.900,76.800 51.000,75.400 49.100,74.000 47.300,72.600 47.200,72.500 47.100,72.500 47.000,72.600 46.700,73.000 46.400,73.400 46.100,73.800 46.100,74.000 46.000,74.000 46.000,74.100 Z M 72.800,36.800 C 72.700,36.800 72.700,36.800 72.600,36.800 72.300,36.800 72.200,37.100 72.100,37.200 72.000,37.300 72.200,37.400 72.300,37.500 73.800,38.600 75.200,39.700 76.700,40.800 77.600,41.500 78.500,42.100 79.400,42.800 79.500,42.800 79.500,43.000 79.600,42.900 79.900,42.700 80.000,42.000 79.700,41.800 78.900,41.100 77.900,40.600 77.200,39.800 76.700,39.300 76.000,38.900 75.300,38.500 74.600,38.100 73.900,37.500 73.300,37.000 73.100,36.800 73.000,36.700 72.800,36.800 Z " />
  <path stroke="none" fill="#fff6f6f6" d="M 15.500,52.000 C 15.500,51.800 15.600,51.500 15.700,51.300 16.000,50.900 16.200,50.600 16.500,50.200 16.700,49.900 16.700,49.900 16.400,49.700 16.200,49.500 16.000,49.300 15.900,49.000 15.800,48.700 15.900,48.400 16.100,48.100 17.300,46.400 18.600,44.800 19.800,43.100 19.900,42.900 20.000,42.800 19.800,42.700 19.500,42.400 19.400,41.800 19.700,41.400 20.100,40.800 20.600,40.200 21.100,39.600 21.300,39.400 21.500,39.200 21.900,39.200 22.100,39.200 22.200,39.100 22.200,39.000 22.300,38.800 22.400,38.700 22.500,38.500 22.700,38.200 22.900,38.100 23.200,38.000 23.600,37.900 24.000,37.600 24.400,37.300 25.000,36.800 25.400,36.200 25.800,35.600 27.700,33.100 29.600,30.500 31.500,28.000 32.200,27.100 32.500,26.200 32.700,25.100 32.700,24.700 32.900,24.400 33.200,24.100 33.300,24.000 33.300,23.900 33.300,23.700 33.200,23.400 33.300,23.200 33.400,23.000 33.900,22.400 34.300,21.700 34.800,21.100 35.100,20.700 35.500,20.600 36.000,20.700 36.200,20.700 36.200,20.700 36.300,20.600 37.200,19.400 38.100,18.200 38.900,17.000 39.400,16.400 39.800,15.700 40.400,15.100 40.700,14.700 41.100,14.400 41.700,14.400 41.800,14.400 41.900,14.400 42.000,14.300 42.500,13.800 43.200,13.800 43.800,14.200 44.100,14.400 44.400,14.600 44.700,14.800 45.700,15.600 46.900,16.000 47.800,16.900 48.600,17.700 49.600,18.300 50.400,19.000 50.800,19.300 51.000,20.100 50.700,20.600 50.600,20.800 50.600,20.900 50.700,21.100 50.900,21.700 50.700,22.200 50.400,22.600 49.100,24.400 47.800,26.100 46.500,27.900 46.400,28.100 46.300,28.200 46.400,28.400 46.600,28.800 46.500,29.200 46.300,29.600 45.900,30.200 45.400,30.800 45.000,31.400 44.800,31.700 44.500,31.900 44.100,31.800 44.000,31.800 44.000,31.800 43.900,31.900 43.600,32.600 42.900,32.800 42.300,33.100 41.600,33.400 41.100,34.000 40.700,34.600 38.500,37.600 36.300,40.600 34.100,43.600 33.600,44.200 33.400,45.000 33.400,45.800 33.400,46.000 33.300,46.200 33.200,46.400 33.100,46.500 33.100,46.600 33.000,46.700 32.800,46.900 32.700,47.200 32.800,47.500 32.900,47.700 32.700,47.900 32.600,48.100 32.200,48.700 31.700,49.300 31.300,49.900 31.000,50.300 30.400,50.500 29.900,50.200 29.800,50.100 29.700,50.100 29.700,50.300 29.400,50.700 29.100,51.100 28.800,51.500 28.700,51.600 28.700,51.700 28.900,51.800 29.500,52.200 30.000,52.600 30.600,53.000 30.700,53.100 30.800,53.200 30.600,53.300 30.000,54.100 29.400,54.900 28.800,55.800 28.700,55.900 28.600,55.900 28.500,55.800 27.900,55.400 27.400,55.000 26.800,54.600 26.600,54.500 26.600,54.500 26.500,54.700 26.300,55.000 26.100,55.200 25.900,55.500 25.500,56.000 24.900,56.100 24.400,55.800 23.900,55.500 23.900,55.500 23.600,56.000 23.400,56.300 23.100,56.600 22.900,56.900 22.600,57.400 21.900,57.500 21.400,57.100 19.600,55.700 17.800,54.400 16.000,53.100 15.500,52.600 15.500,52.400 15.500,52.000 Z M 22.100,39.900 C 21.800,39.900 21.700,40.000 21.500,40.200 21.100,40.700 20.700,41.200 20.300,41.800 20.100,42.000 20.200,42.200 20.400,42.400 20.700,42.600 21.100,42.900 21.400,43.100 24.300,45.200 27.100,47.400 30.000,49.500 30.300,49.700 30.400,49.700 30.600,49.400 31.000,48.900 31.400,48.300 31.800,47.800 31.900,47.700 32.000,47.600 31.900,47.500 31.700,47.100 31.800,46.800 32.100,46.500 32.200,46.400 32.300,46.200 32.500,46.000 32.500,46.000 32.600,45.900 32.600,45.900 32.500,45.700 32.600,45.500 32.600,45.300 32.700,44.500 33.000,43.700 33.500,43.000 35.600,40.200 37.700,37.300 39.800,34.500 40.500,33.600 41.200,32.800 42.200,32.400 42.400,32.300 42.600,32.200 42.800,32.100 43.000,32.000 43.100,31.800 43.200,31.600 43.200,31.500 43.000,31.400 42.900,31.300 40.000,29.200 37.100,27.000 34.300,24.900 33.900,24.600 33.700,24.700 33.600,25.100 33.600,25.200 33.600,25.200 33.600,25.300 33.500,26.500 33.000,27.600 32.300,28.500 30.100,31.400 28.000,34.300 25.800,37.100 25.300,37.800 24.700,38.300 23.900,38.600 23.400,38.800 23.000,39.100 22.800,39.600 22.800,39.600 22.800,39.600 22.800,39.700 22.500,39.800 22.400,40.000 22.100,39.900 Z M 50.000,21.400 C 50.000,21.300 49.900,21.200 49.800,21.100 47.200,19.200 44.600,17.200 42.000,15.300 41.600,15.000 41.400,15.100 41.100,15.400 41.100,15.400 41.000,15.500 41.000,15.600 39.600,17.400 38.300,19.300 36.900,21.100 36.800,21.300 36.700,21.400 37.000,21.600 39.800,23.700 42.600,25.700 45.400,27.800 45.600,27.900 45.700,27.900 45.800,27.700 47.200,25.900 48.500,24.000 49.900,22.200 49.900,22.000 49.900,21.700 50.000,21.400 Z M 25.000,55.000 C 25.200,55.100 25.200,54.900 25.300,54.800 26.500,53.100 27.800,51.400 29.000,49.800 29.200,49.500 29.100,49.400 29.000,49.200 28.900,49.100 28.900,49.100 28.800,49.000 27.300,47.900 25.800,46.800 24.300,45.700 23.300,44.900 22.300,44.200 21.300,43.500 21.000,43.200 20.800,43.300 20.500,43.600 19.300,45.200 18.100,46.900 16.800,48.500 16.600,48.800 16.600,49.000 16.900,49.200 17.400,49.600 18.000,50.000 18.500,50.400 20.500,51.900 22.600,53.400 24.600,54.900 24.700,55.000 24.800,55.000 25.000,55.000 Z M 43.800,31.000 C 44.000,31.000 44.100,31.000 44.200,30.900 44.600,30.300 45.100,29.700 45.600,29.100 45.700,28.900 45.700,28.800 45.500,28.600 42.300,26.200 39.100,23.800 35.900,21.500 35.700,21.300 35.500,21.400 35.400,21.600 35.000,22.200 34.500,22.800 34.100,23.400 34.000,23.400 34.000,23.500 34.000,23.600 34.100,23.800 34.200,24.100 34.400,24.200 37.400,26.400 40.300,28.600 43.300,30.800 43.500,31.000 43.700,31.100 43.800,31.000 Z M 16.200,52.000 C 16.200,52.100 16.300,52.200 16.300,52.200 18.100,53.500 19.900,54.800 21.700,56.200 21.900,56.400 22.100,56.300 22.200,56.100 22.500,55.700 22.800,55.300 23.100,54.900 23.200,54.800 23.200,54.700 23.100,54.600 21.200,53.200 19.300,51.800 17.400,50.400 17.300,50.300 17.200,50.300 17.100,50.400 16.800,50.800 16.500,51.200 16.200,51.600 16.200,51.800 16.200,51.900 16.200,52.000 Z M 42.900,14.700 C 42.600,14.600 42.500,14.800 42.400,15.000 42.300,15.200 42.300,15.200 42.400,15.400 43.500,16.200 44.600,17.000 45.700,17.800 47.000,18.700 48.300,19.700 49.500,20.600 49.600,20.600 49.600,20.800 49.700,20.700 50.000,20.500 50.100,19.900 49.800,19.600 49.000,18.900 48.000,18.400 47.200,17.500 46.700,17.000 46.000,16.600 45.400,16.300 44.700,15.900 44.000,15.300 43.400,14.800 43.300,14.700 43.100,14.600 42.900,14.700 Z " />
  <path stroke="none" fill="#fff6f6f6" d="M 23.300,72.700 C 23.300,72.300 23.400,72.100 23.600,71.900 23.900,71.600 24.100,71.200 24.400,70.900 24.700,70.500 24.700,70.600 24.300,70.300 24.100,70.100 23.900,69.900 23.800,69.600 23.700,69.200 23.700,68.900 24.000,68.600 25.200,66.900 26.500,65.300 27.700,63.600 27.800,63.400 27.900,63.300 27.700,63.200 27.400,62.900 27.300,62.300 27.600,61.900 28.100,61.300 28.500,60.700 29.000,60.100 29.200,59.900 29.400,59.700 29.700,59.700 29.900,59.700 30.000,59.600 30.000,59.500 30.100,59.300 30.200,59.100 30.400,59.000 30.600,58.800 30.800,58.700 31.000,58.600 31.400,58.500 31.800,58.300 32.200,58.000 32.600,57.700 32.900,57.300 33.300,56.800 35.400,54.000 37.500,51.200 39.600,48.400 40.200,47.600 40.600,46.600 40.700,45.600 40.700,45.200 40.900,44.900 41.200,44.600 41.300,44.500 41.400,44.300 41.300,44.100 41.200,43.800 41.300,43.600 41.500,43.400 42.000,42.800 42.400,42.100 42.900,41.500 43.200,41.100 43.600,41.000 44.000,41.100 44.200,41.100 44.200,41.100 44.300,41.000 45.100,39.900 46.000,38.700 46.800,37.600 47.300,36.900 47.800,36.300 48.300,35.600 48.600,35.200 49.100,34.800 49.700,34.900 49.800,34.900 49.900,34.900 50.000,34.800 50.500,34.300 51.300,34.300 51.800,34.700 52.000,34.900 52.300,35.000 52.500,35.200 53.500,36.100 54.800,36.500 55.800,37.500 56.600,38.300 57.500,38.900 58.400,39.600 58.800,40.000 59.000,40.700 58.700,41.200 58.600,41.300 58.600,41.400 58.600,41.600 58.800,42.200 58.600,42.700 58.300,43.100 57.000,44.900 55.700,46.700 54.300,48.500 54.200,48.600 54.200,48.700 54.300,48.900 54.500,49.300 54.500,49.700 54.200,50.100 53.700,50.700 53.300,51.400 52.800,52.000 52.600,52.200 52.400,52.400 52.000,52.400 51.900,52.400 51.800,52.400 51.800,52.500 51.500,53.100 50.900,53.400 50.300,53.700 49.600,54.000 49.100,54.600 48.600,55.200 46.400,58.200 44.200,61.200 42.000,64.200 41.500,64.800 41.300,65.600 41.300,66.400 41.300,66.600 41.200,66.800 41.100,66.900 41.000,67.000 40.900,67.100 40.800,67.200 40.600,67.400 40.500,67.700 40.600,68.000 40.700,68.200 40.500,68.400 40.400,68.600 40.000,69.200 39.500,69.800 39.100,70.400 38.800,70.800 38.100,71.000 37.700,70.700 37.600,70.600 37.500,70.700 37.400,70.800 37.100,71.200 36.900,71.500 36.600,71.900 36.500,72.100 36.500,72.100 36.700,72.200 37.300,72.600 37.800,73.000 38.400,73.400 38.500,73.500 38.600,73.600 38.500,73.700 37.900,74.500 37.300,75.400 36.700,76.200 36.600,76.400 36.500,76.300 36.400,76.200 35.900,75.800 35.300,75.400 34.800,75.000 34.600,74.800 34.500,74.900 34.400,75.100 34.200,75.300 34.100,75.600 33.900,75.800 33.500,76.300 32.900,76.400 32.400,76.100 31.900,75.800 31.900,75.800 31.600,76.300 31.400,76.600 31.100,76.900 30.900,77.200 30.600,77.700 29.900,77.800 29.400,77.400 28.600,76.700 27.800,76.100 26.900,75.500 25.900,74.800 24.900,74.100 23.900,73.300 23.500,73.200 23.300,72.900 23.300,72.700 Z M 38.200,70.100 C 38.300,70.100 38.400,70.000 38.500,69.900 38.900,69.300 39.300,68.700 39.800,68.200 39.900,68.100 39.900,68.000 39.900,67.900 39.700,67.500 39.800,67.200 40.100,66.900 40.200,66.800 40.300,66.600 40.400,66.500 40.400,66.400 40.500,66.400 40.500,66.300 40.400,66.100 40.500,65.900 40.600,65.600 40.700,64.800 41.000,64.100 41.400,63.500 43.600,60.500 45.700,57.600 47.900,54.600 48.500,53.800 49.200,53.100 50.100,52.700 50.400,52.500 50.800,52.500 51.000,52.100 51.100,51.900 51.100,51.800 50.900,51.700 48.000,49.500 45.000,47.400 42.100,45.200 42.000,45.100 41.900,44.900 41.700,45.000 41.600,45.100 41.500,45.300 41.400,45.400 41.400,45.500 41.400,45.600 41.300,45.700 41.200,46.900 40.700,48.000 40.000,48.900 37.900,51.700 35.800,54.500 33.700,57.300 33.200,58.000 32.600,58.600 31.700,59.000 31.100,59.200 30.700,59.500 30.400,60.100 30.300,60.300 30.100,60.400 29.900,60.400 29.700,60.400 29.600,60.300 29.400,60.500 29.000,61.100 28.500,61.600 28.100,62.200 27.900,62.400 28.000,62.600 28.200,62.800 28.600,63.100 28.900,63.300 29.300,63.600 32.100,65.700 35.000,67.800 37.800,69.900 38.000,70.100 38.100,70.200 38.200,70.100 Z M 57.900,42.100 C 57.900,41.900 57.800,41.900 57.700,41.800 56.900,41.200 56.100,40.600 55.300,40.000 53.400,38.600 51.600,37.200 49.700,35.800 49.600,35.700 49.500,35.600 49.300,35.700 49.100,35.800 48.900,35.900 48.800,36.100 47.400,38.000 46.100,39.800 44.700,41.600 44.600,41.800 44.600,41.900 44.800,42.000 47.600,44.100 50.400,46.200 53.200,48.200 53.400,48.300 53.500,48.300 53.600,48.100 55.000,46.300 56.300,44.400 57.700,42.600 57.700,42.600 57.800,42.300 57.900,42.100 Z M 32.800,75.600 C 33.000,75.700 33.000,75.500 33.100,75.400 34.300,73.700 35.600,72.100 36.800,70.400 37.000,70.100 37.000,70.000 36.700,69.700 36.600,69.600 36.600,69.600 36.500,69.600 34.800,68.300 33.100,67.100 31.400,65.800 30.600,65.200 29.800,64.600 29.000,64.000 28.600,63.700 28.400,63.800 28.200,64.100 27.000,65.700 25.800,67.400 24.600,69.000 24.400,69.300 24.400,69.500 24.700,69.800 25.200,70.200 25.800,70.600 26.300,71.000 28.300,72.500 30.300,73.900 32.300,75.400 32.500,75.500 32.600,75.600 32.800,75.600 Z M 51.700,51.600 C 51.900,51.600 52.000,51.600 52.100,51.500 52.500,50.900 53.000,50.300 53.400,49.800 53.600,49.500 53.600,49.400 53.300,49.200 50.100,46.800 46.900,44.500 43.800,42.100 43.500,41.900 43.400,41.900 43.200,42.200 42.800,42.700 42.400,43.300 42.000,43.800 41.700,44.200 41.800,44.500 42.100,44.800 45.100,47.000 48.100,49.200 51.100,51.500 51.400,51.600 51.500,51.700 51.700,51.600 Z M 24.100,72.600 C 24.100,72.700 24.200,72.800 24.300,72.900 26.100,74.200 27.900,75.500 29.700,76.900 29.900,77.100 30.100,77.100 30.200,76.800 30.500,76.400 30.800,76.000 31.100,75.600 31.200,75.500 31.200,75.400 31.000,75.300 29.100,73.900 27.200,72.500 25.400,71.100 25.300,71.000 25.200,71.000 25.100,71.100 24.800,71.500 24.500,71.900 24.200,72.300 24.100,72.400 24.100,72.500 24.100,72.600 Z M 50.800,35.300 C 50.500,35.200 50.400,35.400 50.300,35.600 50.100,35.800 50.200,35.800 50.300,36.000 51.700,37.100 53.200,38.100 54.600,39.200 55.500,39.900 56.500,40.600 57.400,41.300 57.500,41.300 57.500,41.500 57.600,41.400 58.000,41.100 57.900,40.500 57.600,40.200 57.200,39.900 56.800,39.600 56.400,39.400 55.900,39.000 55.500,38.600 55.000,38.200 54.500,37.700 53.900,37.300 53.200,37.000 52.500,36.600 51.900,36.000 51.200,35.500 51.200,35.300 51.000,35.200 50.800,35.300 Z " />
  <path stroke="none" fill="none" d="M 52.100,62.100 C 52.300,62.200 52.400,62.000 52.500,61.800 52.500,61.800 52.500,61.800 52.500,61.800 52.800,61.300 53.200,61.000 53.700,60.800 54.500,60.500 55.100,59.900 55.500,59.300 57.600,56.400 59.800,53.600 61.900,50.700 62.600,49.800 63.000,48.700 63.200,47.500 63.200,47.400 63.200,47.300 63.200,47.300 63.300,47.100 63.400,46.900 63.500,46.800 63.600,46.700 63.700,46.900 63.900,47.000 66.800,49.100 69.600,51.300 72.500,53.400 72.600,53.500 72.900,53.600 72.800,53.700 72.700,53.900 72.600,54.100 72.400,54.200 72.100,54.300 71.800,54.500 71.500,54.700 70.800,55.100 70.200,55.700 69.700,56.400 67.500,59.400 65.300,62.400 63.100,65.400 62.700,66.000 62.400,66.700 62.300,67.400 62.300,67.600 62.100,67.800 62.300,68.100 62.300,68.100 62.300,68.200 62.200,68.200 62.100,68.300 62.000,68.500 61.800,68.600 61.500,68.900 61.400,69.200 61.600,69.600 61.700,69.700 61.600,69.800 61.500,69.900 61.100,70.400 60.700,71.000 60.300,71.500 60.100,71.800 60.000,71.800 59.700,71.600 56.800,69.500 54.000,67.300 51.100,65.200 50.800,65.000 50.400,64.700 50.100,64.500 49.800,64.300 49.800,64.100 50.000,63.900 50.400,63.400 50.800,62.900 51.200,62.400 51.600,62.100 51.700,62.000 52.100,62.100 Z M 58.900,66.400 C 59.800,66.400 60.600,66.000 61.200,65.300 63.500,62.200 65.800,59.100 68.100,55.900 68.800,55.000 68.800,53.900 68.200,52.900 67.700,52.100 67.000,51.600 66.200,51.300 65.300,50.900 64.400,50.900 63.500,51.500 63.100,51.800 62.800,52.100 62.500,52.500 60.300,55.500 58.100,58.500 55.900,61.500 55.100,62.600 55.300,64.000 56.000,64.900 56.400,65.400 57.000,65.800 57.600,66.100 58.000,66.300 58.400,66.400 58.900,66.400 Z " />
  <path stroke="none" fill="none" d="M 79.800,43.600 C 79.700,43.800 79.700,44.000 79.600,44.200 78.200,46.100 76.800,47.900 75.400,49.800 75.300,50.000 75.200,50.000 75.100,49.800 72.300,47.700 69.500,45.600 66.600,43.500 66.400,43.400 66.400,43.300 66.500,43.100 67.900,41.300 69.200,39.400 70.600,37.600 70.700,37.400 70.900,37.300 71.100,37.200 71.300,37.100 71.400,37.200 71.500,37.300 73.700,38.900 75.900,40.600 78.100,42.200 78.600,42.500 79.000,42.900 79.500,43.200 79.800,43.400 79.900,43.500 79.800,43.600 Z " />
  <path stroke="none" fill="none" d="M 54.800,77.100 C 54.700,77.100 54.600,77.100 54.500,77.000 51.900,75.100 49.300,73.200 46.700,71.200 46.400,71.000 46.400,70.800 46.600,70.500 47.800,68.900 49.000,67.200 50.300,65.600 50.600,65.300 50.700,65.200 51.100,65.500 52.000,66.100 52.800,66.800 53.700,67.400 55.400,68.600 57.000,69.900 58.700,71.100 58.800,71.200 58.900,71.200 58.900,71.300 59.000,71.500 59.100,71.600 58.900,71.900 57.700,73.600 56.400,75.200 55.200,76.900 55.100,77.100 55.000,77.200 54.800,77.100 Z " />
  <path stroke="none" fill="none" d="M 73.700,53.200 C 73.500,53.200 73.300,53.100 73.100,53.000 70.100,50.800 67.200,48.600 64.200,46.400 63.800,46.100 63.800,45.800 64.000,45.400 64.400,44.900 64.800,44.400 65.100,43.800 65.300,43.500 65.400,43.500 65.700,43.700 68.900,46.100 72.100,48.400 75.300,50.800 75.500,51.000 75.500,51.100 75.400,51.300 75.000,51.900 74.500,52.500 74.100,53.100 74.000,53.200 73.900,53.200 73.700,53.200 Z " />
  <path stroke="none" fill="none" d="M 46.000,74.100 C 46.000,74.000 46.000,73.900 46.100,73.800 46.400,73.400 46.700,73.000 47.000,72.600 47.100,72.500 47.200,72.500 47.300,72.600 49.200,74.000 51.100,75.400 52.900,76.800 53.000,76.900 53.100,77.000 53.000,77.100 52.700,77.500 52.400,77.900 52.100,78.300 51.900,78.500 51.800,78.600 51.600,78.400 49.800,77.000 48.000,75.700 46.200,74.400 46.100,74.300 46.000,74.300 46.000,74.100 Z " />
  <path stroke="none" fill="none" d="M 72.800,36.800 C 73.000,36.700 73.100,36.800 73.200,36.900 73.900,37.400 74.500,38.000 75.200,38.400 75.900,38.800 76.600,39.100 77.100,39.700 77.900,40.500 78.800,41.000 79.600,41.700 79.900,41.900 79.800,42.600 79.500,42.800 79.400,42.900 79.300,42.800 79.300,42.700 78.400,42.100 77.500,41.400 76.600,40.700 75.100,39.600 73.700,38.500 72.200,37.400 72.100,37.300 71.900,37.300 72.000,37.100 72.100,36.900 72.200,36.700 72.500,36.700 72.700,36.800 72.800,36.800 72.800,36.800 Z " />
  <path stroke="none" fill="none" d="M 22.100,39.900 C 22.400,40.000 22.500,39.800 22.600,39.600 22.600,39.600 22.600,39.600 22.600,39.500 22.800,39.000 23.300,38.700 23.700,38.500 24.500,38.200 25.100,37.700 25.600,37.000 27.800,34.100 29.900,31.200 32.100,28.400 32.800,27.400 33.300,26.400 33.400,25.200 33.400,25.100 33.400,25.000 33.400,25.000 33.500,24.600 33.700,24.500 34.100,24.800 37.000,26.900 39.900,29.100 42.700,31.200 42.800,31.300 43.000,31.400 43.000,31.500 43.000,31.700 42.800,31.900 42.600,32.000 42.400,32.100 42.200,32.200 42.000,32.300 41.000,32.800 40.200,33.600 39.600,34.400 37.500,37.200 35.400,40.100 33.300,42.900 32.800,43.600 32.500,44.300 32.400,45.200 32.400,45.400 32.200,45.600 32.400,45.800 32.400,45.800 32.400,45.900 32.300,45.900 32.200,46.100 32.100,46.200 31.900,46.400 31.600,46.700 31.500,47.000 31.700,47.400 31.800,47.500 31.700,47.600 31.600,47.700 31.200,48.200 30.800,48.800 30.400,49.300 30.200,49.600 30.100,49.600 29.800,49.400 26.900,47.300 24.100,45.100 21.200,43.000 20.900,42.800 20.500,42.500 20.200,42.300 20.000,42.100 20.000,42.000 20.100,41.700 20.500,41.200 20.900,40.700 21.300,40.100 21.700,40.000 21.900,39.900 22.100,39.900 Z M 29.000,44.300 C 30.000,44.300 30.700,44.000 31.300,43.200 33.600,40.100 36.000,36.900 38.300,33.800 39.000,32.900 39.000,31.800 38.400,30.800 38.100,30.200 37.500,29.800 36.900,29.400 35.700,28.500 34.000,28.700 33.100,29.900 30.700,33.000 28.400,36.200 26.100,39.400 25.400,40.400 25.400,41.500 26.100,42.500 26.500,43.100 27.200,43.500 27.800,43.900 28.100,44.200 28.500,44.300 29.000,44.300 Z " />
  <path stroke="none" fill="none" d="M 50.000,21.400 C 49.900,21.700 49.900,21.900 49.700,22.100 48.300,23.900 47.000,25.800 45.600,27.600 45.500,27.800 45.400,27.800 45.200,27.700 42.400,25.600 39.600,23.500 36.800,21.500 36.600,21.300 36.600,21.200 36.700,21.000 38.100,19.200 39.400,17.400 40.800,15.500 40.800,15.400 40.900,15.400 40.900,15.300 41.200,15.000 41.500,14.900 41.800,15.200 44.400,17.100 47.000,19.100 49.600,21.000 49.900,21.300 50.000,21.300 50.000,21.400 Z " />
  <path stroke="none" fill="none" d="M 25.000,55.000 C 24.800,55.100 24.700,55.000 24.600,54.900 22.600,53.400 20.500,51.900 18.500,50.400 18.000,50.000 17.400,49.600 16.900,49.200 16.600,49.000 16.600,48.800 16.800,48.500 18.000,46.900 19.200,45.200 20.500,43.600 20.700,43.300 20.900,43.200 21.300,43.500 22.300,44.200 23.300,45.000 24.300,45.700 25.800,46.800 27.300,47.900 28.800,49.000 28.900,49.100 29.000,49.100 29.000,49.200 29.200,49.400 29.200,49.600 29.000,49.800 27.700,51.500 26.500,53.100 25.300,54.800 25.200,54.900 25.100,55.100 25.000,55.000 Z " />
  <path stroke="none" fill="none" d="M 43.800,31.000 C 43.600,31.000 43.500,30.900 43.300,30.800 40.300,28.600 37.400,26.400 34.400,24.200 34.200,24.000 34.100,23.800 34.000,23.600 34.000,23.500 34.000,23.400 34.100,23.400 34.500,22.800 35.000,22.200 35.400,21.600 35.500,21.400 35.700,21.400 35.900,21.500 39.100,23.900 42.300,26.300 45.500,28.600 45.700,28.800 45.700,28.900 45.600,29.100 45.200,29.700 44.700,30.300 44.200,30.900 44.200,31.100 44.000,31.100 43.800,31.000 Z " />
  <path stroke="none" fill="none" d="M 16.200,52.000 C 16.200,51.900 16.200,51.800 16.300,51.700 16.600,51.300 16.900,50.900 17.200,50.500 17.300,50.400 17.400,50.400 17.500,50.500 19.400,51.900 21.300,53.300 23.200,54.700 23.300,54.800 23.300,54.900 23.200,55.000 22.900,55.400 22.600,55.800 22.300,56.200 22.200,56.400 22.000,56.400 21.800,56.300 20.000,54.900 18.200,53.600 16.400,52.300 16.300,52.200 16.200,52.100 16.200,52.000 Z " />
  <path stroke="none" fill="none" d="M 42.900,14.700 C 43.100,14.600 43.300,14.700 43.400,14.800 44.100,15.300 44.700,15.900 45.400,16.300 46.100,16.700 46.700,17.000 47.200,17.500 48.000,18.300 48.900,18.900 49.800,19.600 50.100,19.800 50.000,20.500 49.700,20.700 49.600,20.800 49.500,20.700 49.500,20.600 48.200,19.700 46.900,18.700 45.700,17.800 44.600,17.000 43.500,16.200 42.400,15.400 42.200,15.300 42.200,15.200 42.400,15.000 42.600,14.800 42.700,14.600 42.900,14.700 Z " />
  <path stroke="none" fill="none" d="M 38.200,70.100 C 38.000,70.100 38.000,70.000 37.900,70.000 35.100,67.900 32.200,65.800 29.400,63.700 29.000,63.400 28.700,63.200 28.300,62.900 28.100,62.700 28.100,62.600 28.200,62.300 28.600,61.700 29.100,61.200 29.500,60.600 29.600,60.400 29.800,60.500 30.000,60.500 30.200,60.500 30.400,60.400 30.500,60.200 30.800,59.700 31.200,59.300 31.800,59.100 32.600,58.700 33.200,58.100 33.800,57.400 35.900,54.600 38.000,51.800 40.100,49.000 40.800,48.000 41.300,47.000 41.400,45.800 41.400,45.700 41.400,45.600 41.500,45.500 41.600,45.400 41.700,45.200 41.800,45.100 42.000,45.000 42.100,45.200 42.200,45.300 45.100,47.500 48.100,49.600 51.000,51.800 51.200,51.900 51.200,52.000 51.100,52.200 50.900,52.500 50.500,52.600 50.200,52.800 49.300,53.300 48.600,53.900 48.000,54.700 45.800,57.700 43.600,60.600 41.500,63.600 41.100,64.200 40.800,64.900 40.700,65.700 40.700,65.900 40.500,66.100 40.600,66.400 40.600,66.400 40.500,66.500 40.500,66.600 40.400,66.700 40.300,66.900 40.200,67.000 39.900,67.300 39.800,67.600 40.000,68.000 40.100,68.100 40.000,68.200 39.900,68.300 39.500,68.900 39.100,69.500 38.600,70.000 38.400,70.100 38.300,70.100 38.200,70.100 Z M 46.600,53.000 C 46.600,52.100 46.300,51.300 45.700,50.800 45.400,50.500 45.000,50.300 44.700,50.000 43.500,49.100 41.800,49.400 40.800,50.700 39.800,52.000 38.800,53.400 37.800,54.700 36.500,56.400 35.200,58.200 33.900,59.900 33.100,61.000 33.200,62.400 34.000,63.300 34.400,63.700 34.800,64.000 35.300,64.400 36.500,65.300 38.200,65.000 39.100,63.800 41.400,60.700 43.700,57.500 46.100,54.400 46.400,53.900 46.600,53.400 46.600,53.000 Z " />
  <path stroke="none" fill="none" d="M 57.900,42.100 C 57.800,42.300 57.800,42.600 57.600,42.800 56.200,44.600 54.900,46.500 53.500,48.300 53.400,48.500 53.300,48.500 53.100,48.400 50.300,46.300 47.500,44.200 44.700,42.200 44.500,42.100 44.500,42.000 44.600,41.800 46.000,40.000 47.400,38.100 48.700,36.300 48.800,36.100 49.000,36.000 49.200,35.900 49.400,35.800 49.500,35.900 49.600,36.000 51.500,37.400 53.300,38.800 55.200,40.200 56.000,40.800 56.800,41.400 57.600,42.000 57.800,41.900 57.900,41.900 57.900,42.100 Z " />
  <path stroke="none" fill="none" d="M 32.800,75.600 C 32.600,75.700 32.500,75.500 32.400,75.400 30.400,73.900 28.400,72.500 26.400,71.000 25.800,70.600 25.300,70.200 24.800,69.800 24.500,69.500 24.400,69.400 24.700,69.000 25.900,67.400 27.100,65.700 28.300,64.100 28.600,63.800 28.800,63.700 29.100,64.000 29.900,64.600 30.700,65.200 31.500,65.800 33.200,67.100 34.900,68.300 36.600,69.600 36.700,69.600 36.700,69.700 36.800,69.700 37.000,69.900 37.100,70.100 36.900,70.400 35.700,72.100 34.400,73.700 33.200,75.400 33.100,75.500 33.000,75.700 32.800,75.600 Z " />
  <path stroke="none" fill="none" d="M 51.700,51.600 C 51.500,51.600 51.300,51.500 51.200,51.400 48.200,49.200 45.200,47.000 42.200,44.700 41.800,44.400 41.800,44.100 42.100,43.700 42.500,43.200 42.900,42.600 43.300,42.100 43.500,41.800 43.600,41.800 43.900,42.000 47.100,44.400 50.300,46.700 53.400,49.100 53.700,49.300 53.700,49.400 53.500,49.700 53.100,50.300 52.600,50.900 52.200,51.400 52.000,51.600 51.900,51.700 51.700,51.600 Z " />
  <path stroke="none" fill="none" d="M 24.100,72.600 C 24.100,72.500 24.100,72.400 24.200,72.300 24.500,71.900 24.800,71.500 25.100,71.100 25.200,70.900 25.300,71.000 25.400,71.100 27.300,72.500 29.200,73.900 31.000,75.300 31.100,75.400 31.200,75.500 31.100,75.600 30.800,76.000 30.500,76.400 30.200,76.800 30.000,77.000 29.800,77.000 29.600,76.800 27.800,75.400 26.100,74.100 24.200,72.800 24.100,72.800 24.000,72.800 24.100,72.600 Z " />
  <path stroke="none" fill="none" d="M 50.800,35.300 C 51.000,35.200 51.200,35.300 51.300,35.400 52.000,35.900 52.600,36.500 53.300,36.900 53.900,37.200 54.600,37.600 55.100,38.100 55.500,38.500 56.000,38.900 56.500,39.300 56.900,39.600 57.300,39.900 57.700,40.100 58.100,40.400 58.100,40.900 57.700,41.300 57.600,41.400 57.500,41.300 57.500,41.200 56.600,40.500 55.600,39.800 54.700,39.100 53.300,38.000 51.800,37.000 50.400,35.900 50.200,35.800 50.200,35.700 50.400,35.500 50.400,35.400 50.500,35.200 50.800,35.300 Z " />
  <path stroke="none" fill="#fffdfdfd" d="M 58.900,66.400 C 58.400,66.400 58.000,66.300 57.600,66.100 57.000,65.800 56.500,65.400 56.000,64.900 55.200,64.000 55.100,62.600 55.900,61.500 58.100,58.500 60.300,55.500 62.500,52.500 62.800,52.100 63.100,51.700 63.500,51.500 64.400,50.900 65.300,50.800 66.200,51.300 67.000,51.700 67.700,52.200 68.200,52.900 68.800,53.900 68.800,55.000 68.100,55.900 65.800,59.000 63.500,62.200 61.200,65.300 60.600,66.000 59.800,66.400 58.900,66.400 Z " />
  <path stroke="none" fill="#fffdfdfd" d="M 29.000,44.300 C 28.500,44.300 28.100,44.200 27.700,43.900 27.100,43.500 26.500,43.100 26.000,42.500 25.300,41.500 25.300,40.300 26.000,39.400 28.300,36.200 30.700,33.100 33.000,29.900 33.900,28.700 35.600,28.500 36.800,29.400 37.300,29.800 37.900,30.100 38.300,30.800 38.900,31.900 38.900,32.900 38.200,33.800 35.900,37.000 33.600,40.100 31.200,43.200 30.700,43.900 30.000,44.300 29.000,44.300 Z " />
  <path stroke="none" fill="#fffdfdfd" d="M 46.600,53.000 C 46.500,53.400 46.400,53.900 46.100,54.400 43.800,57.500 41.500,60.700 39.100,63.800 38.200,65.000 36.500,65.300 35.300,64.400 34.900,64.100 34.400,63.800 34.000,63.300 33.200,62.400 33.100,61.000 33.900,59.900 35.200,58.200 36.500,56.400 37.800,54.700 38.800,53.400 39.800,52.000 40.800,50.700 41.700,49.400 43.500,49.200 44.700,50.000 45.000,50.200 45.400,50.500 45.700,50.800 46.400,51.300 46.600,52.100 46.600,53.000 Z " />
</svg>