<?xml version="1.0" encoding="UTF-8" standalone="no"?>
<!DOCTYPE svg PUBLIC "-//W3C//DTD SVG 20010904//EN" "http://www.w3.org/TR/2001/REC-SVG-20010904/DTD/svg10.dtd"[]>
<svg version="1.1" id="Frosty Editor v1.0.6.3" xmlns="http://www.w3.org/2000/svg" d1p1:xlink="http://www.w3.org/1999/xlink" viewBox="0 0 101 25" xmlns:d1p1="xmlns">
  <path stroke="none" fill="#ffffffff" d="M 41.827,6.068 C 37.661,6.544 34.934,8.438 34.432,13.197 34.199,16.291 34.199,16.291 34.199,16.291 34.436,17.651 34.436,17.651 34.436,17.651 35.747,17.651 35.747,17.651 35.747,17.651 35.818,17.651 35.818,17.651 35.818,17.651 36.709,18.756 36.709,18.756 36.709,18.756 38.479,18.688 38.479,18.688 38.479,18.688 43.469,18.512 43.469,18.512 43.469,18.512 44.991,18.512 44.991,18.512 44.991,18.512 45.097,18.512 45.100,18.065 45.100,17.789 45.100,16.856 45.236,16.414 46.255,16.362 52.090,16.362 52.090,16.362 52.090,16.362 57.924,16.362 57.924,16.362 57.924,16.362 58.944,16.414 59.080,16.856 59.080,17.789 59.080,18.065 59.083,18.512 59.189,18.512 60.711,18.512 60.711,18.512 60.711,18.512 65.701,18.688 65.701,18.688 65.701,18.688 67.471,18.756 67.471,18.756 67.471,18.756 68.362,17.651 68.362,17.651 68.362,17.651 68.432,17.651 68.432,17.651 68.432,17.651 69.743,17.651 69.743,17.651 69.743,17.651 69.981,16.291 69.981,16.291 69.981,16.291 69.748,13.197 69.748,13.197 69.748,13.197 69.245,8.438 66.519,6.544 62.352,6.068 52.090,6.068 52.090,6.068 52.090,6.068 Z M 41.868,6.877 C 52.090,6.877 52.090,6.877 52.090,6.877 62.312,6.877 62.312,6.877 62.312,6.877 65.670,7.276 67.691,9.163 68.463,12.420 68.484,15.547 68.484,15.547 68.484,15.547 67.396,15.148 67.396,15.148 67.396,15.148 67.327,12.878 67.327,12.878 67.327,12.878 67.292,10.736 66.312,9.267 64.396,8.420 52.090,8.420 52.090,8.420 52.090,8.420 39.784,8.420 39.784,8.420 39.784,8.420 37.868,9.267 36.887,10.736 36.852,12.878 36.783,15.148 36.783,15.148 36.783,15.148 35.695,15.547 35.695,15.547 35.695,15.547 35.717,12.420 35.717,12.420 35.717,12.420 36.488,9.163 38.510,7.276 41.868,6.877 Z M 37.925,7.813 C 37.915,7.820 37.906,7.827 37.897,7.834 37.485,8.148 37.111,8.511 36.786,8.914 36.335,9.471 35.974,10.098 35.700,10.760 35.490,11.262 35.324,11.782 35.206,12.313 35.176,12.508 35.193,12.705 35.186,12.900 35.194,15.544 35.194,15.544 35.194,15.544 35.194,15.915 35.194,15.915 35.194,15.915 35.687,15.915 35.687,15.915 35.687,15.915 35.695,15.915 35.695,15.915 35.695,15.915 37.271,15.915 37.271,15.915 37.271,15.915 37.273,15.915 37.273,15.915 37.273,15.915 37.273,17.227 37.273,17.227 37.273,17.227 34.793,17.227 34.793,17.227 34.793,17.227 34.793,15.915 34.793,15.915 34.793,15.915 34.821,14.987 34.899,14.021 34.972,13.114 35.059,12.392 35.202,11.674 35.443,10.986 35.583,10.588 35.756,10.199 35.967,9.833 36.216,9.398 36.520,8.995 36.874,8.641 37.190,8.325 37.545,8.048 37.925,7.813 Z M 66.255,7.813 C 66.635,8.048 66.989,8.325 67.305,8.641 67.660,8.995 67.964,9.398 68.213,9.833 68.423,10.199 68.597,10.588 68.736,10.986 68.978,11.674 69.121,12.392 69.208,13.114 69.281,14.021 69.359,14.987 69.387,15.915 69.387,17.227 69.387,17.227 69.387,17.227 66.907,17.227 66.907,17.227 66.907,17.227 66.907,15.915 66.907,15.915 66.907,15.915 66.909,15.915 66.909,15.915 66.909,15.915 68.484,15.915 68.484,15.915 68.484,15.915 68.492,15.915 68.492,15.915 68.492,15.915 68.985,15.915 68.985,15.915 68.985,15.915 68.985,15.544 68.985,15.544 68.985,15.544 68.993,12.900 68.993,12.900 68.993,12.900 68.987,12.705 69.004,12.508 68.974,12.313 68.856,11.782 68.689,11.262 68.480,10.760 68.206,10.098 67.845,9.471 67.393,8.914 67.069,8.511 66.694,8.148 66.283,7.834 66.274,7.827 66.264,7.820 66.255,7.813 Z M 40.128,8.928 C 52.090,8.928 52.090,8.928 52.090,8.928 64.052,8.928 64.052,8.928 64.052,8.928 66.092,9.542 66.341,11.188 66.420,13.061 66.361,15.148 66.361,15.148 66.361,15.148 66.270,15.482 66.014,15.714 65.798,15.974 64.277,16.573 62.899,16.247 61.418,15.741 55.192,10.707 55.192,10.707 55.192,10.707 52.090,10.707 52.090,10.707 52.090,10.707 48.988,10.707 48.988,10.707 48.988,10.707 42.762,15.741 42.762,15.741 42.762,15.741 41.281,16.247 39.903,16.573 38.381,15.974 38.165,15.714 37.910,15.482 37.818,15.148 37.760,13.061 37.760,13.061 37.760,13.061 37.839,11.188 38.088,9.542 40.128,8.928 Z M 52.090,9.019 C 51.626,9.019 51.252,9.375 51.252,9.818 51.252,10.260 51.626,10.616 52.090,10.616 52.554,10.616 52.928,10.260 52.928,9.818 52.928,9.375 52.554,9.019 52.090,9.019 Z M 41.233,9.178 C 39.370,9.178 37.871,10.606 37.871,12.380 37.871,14.155 39.370,15.583 41.233,15.583 43.095,15.583 44.594,14.155 44.594,12.380 44.594,10.606 43.095,9.178 41.233,9.178 Z M 62.947,9.178 C 61.085,9.178 59.585,10.606 59.585,12.380 59.585,14.155 61.085,15.583 62.947,15.583 64.809,15.583 66.309,14.155 66.309,12.380 66.309,10.606 64.809,9.178 62.947,9.178 Z M 52.090,9.271 C 52.260,9.270 52.431,9.337 52.549,9.461 52.622,9.535 52.670,9.633 52.687,9.734 52.707,9.846 52.687,9.964 52.631,10.063 52.564,10.186 52.446,10.279 52.316,10.325 52.243,10.351 52.166,10.363 52.090,10.363 52.013,10.363 51.937,10.351 51.864,10.325 51.734,10.279 51.616,10.186 51.549,10.063 51.493,9.964 51.473,9.846 51.493,9.734 51.510,9.633 51.558,9.535 51.631,9.461 51.749,9.337 51.919,9.270 52.090,9.271 Z M 41.233,9.542 C 42.883,9.542 44.212,10.808 44.212,12.380 44.212,13.953 42.883,15.219 41.233,15.219 39.582,15.219 38.253,13.953 38.253,12.380 38.253,10.808 39.582,9.542 41.233,9.542 Z M 62.947,9.542 C 64.598,9.542 65.927,10.808 65.927,12.380 65.927,13.953 64.598,15.219 62.947,15.219 61.296,15.219 59.967,13.953 59.967,12.380 59.967,10.808 61.296,9.542 62.947,9.542 Z M 37.686,10.817 C 37.685,10.820 37.684,10.822 37.684,10.825 37.558,11.225 37.489,11.640 37.445,12.056 37.411,12.377 37.388,12.698 37.380,13.020 37.376,13.165 37.382,13.310 37.386,13.455 37.397,13.891 37.409,14.712 37.421,15.148 37.181,15.148 37.181,15.148 37.181,15.148 37.204,14.418 37.225,13.302 37.251,12.572 37.277,12.182 37.340,11.793 37.453,11.418 37.515,11.212 37.592,11.011 37.686,10.817 Z M 66.494,10.817 C 66.587,11.011 66.665,11.212 66.727,11.418 66.840,11.793 66.902,12.182 66.928,12.572 66.954,13.302 66.975,14.418 66.998,15.148 66.759,15.148 66.759,15.148 66.759,15.148 66.771,14.712 66.782,13.891 66.794,13.455 66.798,13.310 66.803,13.165 66.800,13.020 66.792,12.698 66.769,12.377 66.734,12.056 66.690,11.640 66.621,11.225 66.496,10.825 66.495,10.822 66.495,10.820 66.494,10.817 Z M 49.105,11.213 C 52.090,11.213 52.090,11.213 52.090,11.213 55.075,11.213 55.075,11.213 55.075,11.213 60.711,16.089 60.711,16.089 60.711,16.089 60.711,18.090 60.711,18.090 60.711,18.090 59.622,18.090 59.622,18.090 59.622,18.090 59.622,16.985 59.622,16.985 59.622,16.985 59.622,16.373 58.839,15.782 57.816,15.780 52.090,15.780 52.090,15.780 52.090,15.780 46.364,15.780 46.364,15.780 46.364,15.780 45.340,15.780 44.557,16.373 44.557,16.985 44.557,18.090 44.557,18.090 44.557,18.090 43.469,18.090 43.469,18.090 43.469,18.090 43.469,16.089 43.469,16.089 43.469,16.089 Z M 49.343,11.590 C 46.900,13.508 46.900,13.508 46.900,13.508 46.900,14.948 46.900,14.948 46.900,14.948 46.992,15.110 46.992,15.110 46.992,15.110 47.164,15.198 47.164,15.198 47.164,15.198 52.090,15.198 52.090,15.198 52.090,15.198 57.015,15.198 57.015,15.198 57.015,15.198 57.188,15.110 57.188,15.110 57.188,15.110 57.280,14.948 57.280,14.948 57.280,14.948 57.280,13.508 57.280,13.508 57.280,13.508 54.837,11.590 54.837,11.590 54.837,11.590 52.090,11.590 52.090,11.590 52.090,11.590 Z M 49.459,11.929 C 52.090,11.929 52.090,11.929 52.090,11.929 54.720,11.929 54.720,11.929 54.720,11.929 56.837,13.672 56.837,13.672 56.837,13.672 56.837,14.859 56.837,14.859 56.837,14.859 52.090,14.859 52.090,14.859 52.090,14.859 47.343,14.859 47.343,14.859 47.343,14.859 47.343,13.672 47.343,13.672 47.343,13.672 Z M 36.821,15.308 C 37.658,15.308 37.658,15.308 37.658,15.308 37.658,15.542 37.658,15.542 37.658,15.542 37.658,15.702 37.658,15.702 37.658,15.702 35.695,15.702 35.695,15.702 35.695,15.702 35.695,15.702 35.695,15.702 35.695,15.702 Z M 66.521,15.308 C 67.359,15.308 67.359,15.308 67.359,15.308 68.484,15.702 68.484,15.702 68.484,15.702 68.484,15.702 68.484,15.702 68.484,15.702 66.521,15.702 66.521,15.702 66.521,15.702 66.521,15.542 66.521,15.542 66.521,15.542 Z M 37.546,15.915 C 37.782,15.915 37.782,15.915 37.782,15.915 37.897,16.053 38.012,16.191 38.127,16.329 38.160,16.362 38.209,16.362 38.251,16.377 39.845,16.804 41.351,16.853 42.970,16.118 42.995,16.097 43.020,16.077 43.045,16.057 43.046,16.656 43.045,17.256 43.046,17.855 43.046,18.102 43.046,18.102 43.046,18.102 41.573,18.154 39.950,18.206 38.478,18.259 38.167,17.991 37.856,17.724 37.546,17.457 Z M 66.397,15.915 C 66.634,15.915 66.634,15.915 66.634,15.915 66.634,17.457 66.634,17.457 66.634,17.457 66.323,17.724 66.012,17.991 65.702,18.259 64.229,18.206 62.606,18.154 61.134,18.102 61.134,17.855 61.134,17.855 61.134,17.855 61.134,17.256 61.134,16.656 61.135,16.057 61.160,16.077 61.185,16.097 61.210,16.118 62.828,16.853 64.335,16.804 65.929,16.377 65.970,16.362 66.020,16.362 66.053,16.329 66.168,16.191 66.282,16.053 66.397,15.915 Z M 36.362,17.651 C 37.273,17.651 37.273,17.651 37.273,17.651 38.037,18.308 38.037,18.308 38.037,18.308 36.904,18.325 36.904,18.325 36.904,18.325 Z M 66.907,17.651 C 67.818,17.651 67.818,17.651 67.818,17.651 67.275,18.325 67.275,18.325 67.275,18.325 66.143,18.308 66.143,18.308 66.143,18.308 Z " />
</svg>