<?xml version="1.0" encoding="UTF-8" standalone="no"?>
<!DOCTYPE svg PUBLIC "-//W3C//DTD SVG 20010904//EN" "http://www.w3.org/TR/2001/REC-SVG-20010904/DTD/svg10.dtd"[]>
<svg version="1.1" id="Frosty Editor v1.0.6.3" xmlns="http://www.w3.org/2000/svg" d1p1:xlink="http://www.w3.org/1999/xlink" viewBox="0 0 25 25" xmlns:d1p1="xmlns">
  <path stroke="none" fill="#ffffffff" d="M 15.711,4.979 C 15.589,5.165 15.589,5.165 15.589,5.165 15.468,5.350 15.467,5.350 15.260,5.381 14.989,5.422 14.908,5.468 14.797,5.642 14.719,5.765 14.684,5.790 14.558,5.814 14.476,5.830 14.383,5.860 14.350,5.880 14.294,5.914 13.629,7.010 13.632,7.063 13.633,7.076 13.613,7.107 13.587,7.131 13.515,7.198 13.481,7.085 13.548,7.002 13.671,6.849 14.043,5.655 14.031,5.449 14.029,5.407 14.001,5.338 13.970,5.296 13.922,5.231 13.887,5.221 13.752,5.228 13.549,5.240 13.446,5.301 13.284,5.507 13.144,5.683 12.761,6.554 12.558,7.155 12.390,7.656 12.399,7.749 12.695,8.446 12.929,8.995 12.929,8.995 12.929,8.995 12.851,9.109 12.851,9.109 12.851,9.109 12.809,9.172 12.776,9.251 12.777,9.285 12.782,9.378 12.746,9.423 12.618,9.485 12.500,9.543 12.344,9.703 12.347,9.763 12.349,9.781 12.383,9.750 12.424,9.694 12.465,9.638 12.500,9.607 12.502,9.627 12.506,9.667 12.356,9.832 12.324,9.823 12.312,9.819 12.306,9.887 12.311,9.973 12.319,10.115 12.296,10.168 12.058,10.570 11.914,10.813 11.776,11.021 11.753,11.032 11.729,11.042 11.313,11.727 10.828,12.553 10.343,13.380 9.932,14.066 9.914,14.079 9.897,14.091 9.884,14.137 9.886,14.180 9.889,14.225 9.863,14.279 9.826,14.304 9.742,14.362 9.526,14.727 9.530,14.804 9.532,14.836 9.498,14.894 9.455,14.932 9.353,15.022 9.168,15.336 9.172,15.412 9.174,15.445 9.141,15.502 9.098,15.540 8.995,15.631 8.809,15.944 8.779,16.078 8.766,16.137 8.738,16.186 8.715,16.187 8.664,16.190 8.423,16.603 8.427,16.680 8.429,16.712 8.385,16.786 8.331,16.846 8.187,17.003 8.035,17.256 8.039,17.332 8.041,17.368 8.016,17.415 7.983,17.435 7.904,17.483 7.678,17.868 7.683,17.947 7.684,17.980 7.656,18.027 7.620,18.052 7.539,18.108 7.320,18.475 7.324,18.548 7.326,18.578 7.311,18.621 7.291,18.643 7.264,18.674 7.267,18.713 7.304,18.807 7.354,18.932 7.354,18.932 7.354,18.932 7.109,19.342 7.109,19.342 7.109,19.342 6.940,19.628 6.872,19.771 6.888,19.813 6.920,19.896 7.597,20.404 7.731,20.445 7.858,20.485 7.830,20.490 8.549,20.292 8.853,20.208 9.174,20.140 9.272,20.137 9.425,20.132 9.460,20.118 9.533,20.035 9.580,19.983 9.633,19.925 9.651,19.906 9.733,19.821 9.892,19.502 9.888,19.431 9.885,19.377 9.908,19.341 9.961,19.317 10.004,19.298 10.060,19.239 10.084,19.185 10.108,19.131 10.163,19.039 10.207,18.981 10.251,18.922 10.279,18.856 10.269,18.834 10.245,18.777 10.296,18.677 10.351,18.674 10.412,18.671 10.620,18.312 10.634,18.186 10.641,18.120 10.674,18.071 10.732,18.039 10.780,18.013 10.818,17.976 10.817,17.958 10.816,17.939 10.856,17.865 10.906,17.794 10.955,17.724 10.995,17.627 10.992,17.579 10.989,17.519 11.013,17.475 11.073,17.436 11.173,17.370 11.384,17.012 11.379,16.918 11.377,16.883 11.404,16.834 11.440,16.809 11.525,16.751 11.741,16.386 11.737,16.308 11.735,16.275 11.767,16.223 11.808,16.192 11.850,16.161 12.443,15.187 13.125,14.027 13.808,12.867 14.372,11.919 14.378,11.919 14.385,11.918 14.467,12.042 14.561,12.193 14.665,12.360 14.814,12.544 14.940,12.659 15.122,12.823 15.170,12.851 15.307,12.863 15.503,12.880 15.569,12.823 15.625,12.585 15.693,12.303 15.624,12.002 15.308,11.191 15.094,10.642 15.094,10.642 15.094,10.642 15.666,9.669 15.666,9.669 15.666,9.669 15.981,9.133 16.236,8.663 16.234,8.624 16.232,8.584 16.266,8.525 16.310,8.489 16.389,8.428 18.054,5.643 18.075,5.538 18.083,5.500 18.039,5.468 17.915,5.424 17.735,5.361 17.735,5.363 17.841,5.189 17.920,5.061 17.909,5.033 17.769,5.006 17.610,4.975 16.836,4.956 16.204,4.969 Z M 17.769,5.068 C 17.837,5.064 17.835,5.076 17.734,5.241 17.684,5.323 17.585,5.373 17.582,5.318 17.578,5.252 17.713,5.071 17.769,5.068 Z M 15.078,6.279 C 15.123,6.269 15.205,6.314 15.414,6.457 15.837,6.745 15.814,6.723 15.767,6.808 15.746,6.847 15.719,6.880 15.708,6.881 15.696,6.881 15.537,6.780 15.352,6.655 15.021,6.431 14.963,6.358 15.062,6.287 15.067,6.284 15.072,6.281 15.078,6.279 Z M 14.785,6.763 C 14.828,6.762 14.911,6.818 15.143,6.979 15.448,7.190 15.496,7.236 15.472,7.288 15.456,7.322 15.431,7.358 15.416,7.368 15.383,7.391 14.705,6.936 14.702,6.889 14.701,6.871 14.719,6.827 14.742,6.793 14.755,6.774 14.766,6.763 14.785,6.763 Z M 14.481,7.273 C 14.519,7.267 14.596,7.315 14.822,7.465 15.009,7.588 15.172,7.704 15.185,7.722 15.197,7.740 15.191,7.786 15.170,7.824 15.149,7.862 15.125,7.893 15.116,7.893 15.090,7.895 14.446,7.449 14.420,7.412 14.407,7.394 14.416,7.348 14.440,7.310 14.453,7.289 14.463,7.275 14.481,7.273 Z M 14.195,7.769 C 14.230,7.770 14.290,7.809 14.437,7.910 14.574,8.003 14.739,8.119 14.804,8.169 14.924,8.259 14.924,8.259 14.863,8.327 14.801,8.396 14.800,8.396 14.453,8.155 14.261,8.022 14.104,7.903 14.104,7.891 14.104,7.879 14.123,7.840 14.147,7.805 14.162,7.782 14.174,7.768 14.195,7.769 Z M 13.612,8.901 C 13.636,8.900 13.691,8.949 13.740,9.014 13.833,9.140 13.833,9.140 13.833,9.140 13.666,9.436 13.666,9.436 13.666,9.436 13.574,9.599 12.992,10.590 12.374,11.638 11.756,12.686 11.236,13.548 11.218,13.554 11.164,13.572 10.935,13.438 10.933,13.386 10.932,13.360 11.226,12.843 11.585,12.239 11.945,11.636 12.474,10.747 12.761,10.264 13.486,9.046 13.565,8.919 13.608,8.902 13.609,8.902 13.610,8.902 13.612,8.901 Z M 12.602,9.584 C 12.606,9.583 12.609,9.586 12.610,9.592 12.612,9.613 12.569,9.695 12.515,9.774 12.461,9.854 12.396,9.927 12.370,9.937 12.343,9.948 12.363,9.904 12.413,9.839 12.463,9.775 12.527,9.684 12.555,9.638 12.574,9.606 12.592,9.587 12.602,9.584 Z M 10.641,13.855 C 10.712,13.845 10.858,13.902 11.079,14.026 11.183,14.084 11.289,14.117 11.358,14.113 11.469,14.107 11.469,14.107 11.469,14.107 11.395,14.217 11.395,14.217 11.395,14.217 11.355,14.278 11.314,14.354 11.304,14.386 11.295,14.418 11.261,14.445 11.229,14.445 11.182,14.447 10.540,14.160 10.490,14.116 10.471,14.098 10.558,13.915 10.606,13.870 10.615,13.862 10.626,13.857 10.641,13.855 Z M 10.270,14.506 C 10.292,14.505 10.322,14.513 10.369,14.526 10.506,14.566 10.825,14.728 10.934,14.812 11.010,14.872 11.009,14.941 10.931,15.010 10.904,15.034 10.859,15.055 10.831,15.056 10.747,15.059 10.144,14.755 10.133,14.704 10.127,14.678 10.150,14.619 10.185,14.574 10.219,14.527 10.237,14.507 10.270,14.506 Z M 9.895,15.119 C 9.921,15.115 9.956,15.127 10.026,15.151 10.214,15.214 10.623,15.456 10.626,15.505 10.627,15.526 10.607,15.578 10.581,15.619 10.556,15.660 10.525,15.694 10.513,15.694 10.500,15.695 10.362,15.636 10.205,15.563 9.722,15.339 9.715,15.332 9.825,15.184 9.855,15.144 9.870,15.123 9.895,15.119 Z M 9.618,15.744 C 9.815,15.834 9.815,15.834 9.815,15.834 10.104,15.964 10.113,15.977 10.013,16.108 9.967,16.168 9.922,16.217 9.914,16.217 9.861,16.213 9.480,16.028 9.479,16.006 9.478,15.991 9.509,15.926 9.548,15.861 Z M 9.256,16.382 C 9.436,16.464 9.436,16.464 9.436,16.464 9.661,16.566 9.706,16.622 9.652,16.737 9.628,16.788 9.583,16.825 9.544,16.827 9.454,16.831 9.124,16.665 9.122,16.614 9.121,16.592 9.150,16.530 9.188,16.478 Z M 8.910,17.036 C 8.964,17.033 9.038,17.065 9.154,17.130 9.319,17.221 9.342,17.266 9.277,17.378 9.249,17.426 9.203,17.466 9.174,17.467 9.114,17.470 8.735,17.298 8.734,17.268 8.733,17.257 8.760,17.197 8.793,17.135 8.827,17.072 8.860,17.039 8.910,17.036 Z M 8.529,17.668 C 8.593,17.664 8.937,17.845 8.956,17.893 8.963,17.913 8.949,17.953 8.922,17.982 8.896,18.011 8.876,18.051 8.877,18.070 8.881,18.145 8.679,18.090 8.421,17.947 8.345,17.905 8.345,17.905 8.345,17.905 8.412,17.788 8.412,17.788 8.412,17.788 8.449,17.724 8.501,17.670 8.529,17.668 Z M 8.152,18.294 C 8.201,18.290 8.274,18.325 8.412,18.400 8.589,18.496 8.626,18.590 8.525,18.692 8.494,18.723 8.455,18.749 8.439,18.750 8.397,18.752 7.989,18.548 7.988,18.525 7.987,18.515 8.015,18.455 8.049,18.392 8.083,18.330 8.108,18.296 8.152,18.294 Z " />
</svg>