<?xml version="1.0" encoding="UTF-8" standalone="no"?>
<!DOCTYPE svg PUBLIC "-//W3C//DTD SVG 20010904//EN" "http://www.w3.org/TR/2001/REC-SVG-20010904/DTD/svg10.dtd"[]>
<svg version="1.1" id="Frosty Editor v1.0.6.3" xmlns="http://www.w3.org/2000/svg" d1p1:xlink="http://www.w3.org/1999/xlink" viewBox="0 0 25 25" xmlns:d1p1="xmlns">
  <path stroke="none" fill="#ffffffff" d="M 17.563,7.648 C 18.866,7.648 20.170,7.648 21.473,7.648 21.616,7.900 21.760,8.152 21.904,8.403 20.610,8.403 19.316,8.403 18.021,8.403 17.868,8.152 17.716,7.900 17.563,7.648 Z " />
  <path stroke="none" fill="#ffffffff" d="M 18.803,9.725 C 20.098,9.725 21.392,9.725 22.686,9.725 22.839,9.967 22.992,10.210 23.145,10.453 21.841,10.453 20.538,10.453 19.235,10.453 19.091,10.210 18.947,9.967 18.803,9.725 Z " />
  <path stroke="none" fill="#ffffffff" d="M 20.017,11.774 C 21.320,11.774 22.623,11.774 23.927,11.774 24.070,12.026 24.214,12.277 24.358,12.529 23.064,12.529 21.769,12.529 20.475,12.529 20.322,12.277 20.170,12.026 20.017,11.774 Z " />
  <path stroke="none" fill="#ffffffff" d="M 11.873,7.514 C 11.037,7.541 10.363,6.893 10.336,6.058 10.309,5.222 10.956,4.547 11.792,4.521 12.628,4.494 13.302,5.141 13.329,5.977 13.356,6.786 12.682,7.487 11.873,7.514 11.873,7.514 11.873,7.514 11.873,7.514 Z " />
  <path stroke="none" fill="#ffffffff" d="M 17.401,10.965 C 17.104,11.073 16.754,10.938 16.646,10.615 16.322,9.743 15.999,8.871 15.675,7.999 15.433,8.107 15.190,8.215 14.947,8.323 14.947,8.323 14.705,7.891 14.462,7.675 14.192,7.433 13.815,7.406 13.815,7.406 14.426,7.136 15.037,6.866 15.648,6.597 15.675,6.597 15.702,6.570 15.729,6.570 15.729,6.570 15.729,6.570 15.756,6.570 16.053,6.462 16.403,6.597 16.511,6.920 16.925,8.017 17.338,9.113 17.752,10.210 17.859,10.507 17.698,10.857 17.401,10.965 17.401,10.965 17.401,10.965 17.401,10.965 Z " />
  <path stroke="none" fill="#ffffffff" d="M 13.195,11.747 C 12.934,11.720 12.673,11.693 12.413,11.666 12.458,11.343 12.502,11.019 12.547,10.695 12.763,11.046 12.979,11.397 13.195,11.747 13.195,11.747 13.195,11.747 13.195,11.747 Z M 11.280,15.495 C 11.307,15.576 11.388,15.630 11.442,15.684 11.523,15.765 11.604,15.846 11.711,15.900 13.293,16.583 14.875,17.266 16.457,17.949 16.781,18.084 17.158,17.949 17.266,17.625 17.284,17.590 17.302,17.553 17.320,17.518 17.428,17.194 17.266,16.816 16.916,16.655 15.702,16.124 14.489,15.594 13.275,15.064 14.282,14.462 15.289,13.859 16.295,13.257 16.700,13.014 16.916,12.556 16.754,12.232 16.754,12.205 16.727,12.179 16.700,12.179 16.700,12.152 16.700,12.125 16.673,12.098 15.909,10.866 15.145,9.635 14.381,8.403 14.030,7.810 13.248,7.648 12.655,7.999 12.520,8.080 12.386,8.161 12.251,8.242 12.143,8.296 11.711,8.565 11.658,8.943 11.541,9.913 11.424,10.884 11.307,11.855 11.253,12.179 11.469,12.475 11.765,12.583 11.819,12.610 11.900,12.637 11.981,12.637 12.556,12.682 13.132,12.727 13.707,12.772 13.779,12.898 13.851,13.023 13.923,13.149 13.176,13.590 12.431,14.030 11.685,14.471 11.307,14.713 11.118,15.172 11.280,15.495 11.280,15.495 11.280,15.495 11.280,15.495 Z " />
  <path stroke="none" fill="#ffffffff" d="M 17.131,13.446 C 18.264,15.226 19.396,17.005 20.529,18.785 20.745,19.135 20.718,19.567 20.475,19.729 20.412,19.774 20.349,19.818 20.286,19.863 20.044,20.052 19.666,19.917 19.423,19.567 18.282,17.760 17.140,15.954 15.999,14.147 16.376,13.913 16.754,13.680 17.131,13.446 17.131,13.446 17.131,13.446 17.131,13.446 Z " />
  <path stroke="none" fill="#ffffffff" d="M 5.885,6.552 C 4.521,6.552 3.292,7.373 2.770,8.633 2.248,9.892 2.537,11.343 3.501,12.307 4.071,12.877 4.812,13.210 5.582,13.280 5.763,12.740 6.121,12.283 6.589,11.978 6.589,10.553 6.589,10.553 6.589,10.553 6.046,10.553 6.046,10.553 6.046,10.553 5.848,10.751 5.650,10.948 5.453,11.146 5.453,11.573 5.453,11.573 5.453,11.573 4.849,11.573 4.849,11.573 4.849,11.573 4.849,10.998 4.849,10.998 4.849,10.998 5.266,10.998 5.266,10.998 5.266,10.998 5.420,10.849 5.574,10.701 5.727,10.552 3.283,10.552 3.283,10.552 3.283,10.552 3.283,9.269 3.283,9.269 3.283,9.269 5.136,9.269 5.136,9.269 5.136,9.269 5.139,8.627 5.142,7.984 5.146,7.342 6.431,7.342 6.431,7.342 6.431,7.342 6.431,9.822 6.431,9.822 6.431,9.822 6.981,9.272 6.981,9.272 6.981,9.272 6.981,8.852 6.981,8.852 6.981,8.852 7.574,8.852 7.574,8.852 7.574,8.852 7.574,9.445 7.574,9.445 7.574,9.445 7.129,9.445 7.129,9.445 7.129,9.445 6.982,9.591 6.836,9.737 6.689,9.883 8.385,9.883 8.385,9.883 8.385,9.883 8.385,10.553 8.385,10.553 8.385,10.553 7.263,10.553 7.263,10.553 7.263,10.553 7.263,11.670 7.263,11.670 7.263,11.670 7.483,11.607 7.717,11.573 7.958,11.573 8.235,11.573 8.500,11.618 8.749,11.700 9.073,11.177 9.256,10.565 9.256,9.923 9.256,9.029 8.901,8.171 8.268,7.539 7.636,6.907 6.779,6.552 5.885,6.552 Z " />
  <path stroke="none" fill="#ffffffff" d="M 9.258,14.965 C 9.258,15.405 9.258,15.845 9.258,16.285 9.096,16.356 8.935,16.428 8.773,16.499 8.773,15.987 8.773,15.476 8.773,14.965 8.642,14.965 8.512,14.965 8.382,14.965 8.240,15.107 8.097,15.249 7.955,15.391 7.955,15.494 7.955,15.597 7.955,15.699 7.810,15.699 7.665,15.699 7.521,15.699 7.521,15.561 7.521,15.423 7.521,15.285 7.621,15.285 7.721,15.285 7.820,15.285 7.931,15.178 8.042,15.071 8.153,14.964 7.566,14.964 6.980,14.964 6.394,14.964 6.394,14.656 6.394,14.349 6.394,14.041 6.838,14.041 7.283,14.041 7.727,14.041 7.729,13.579 7.732,13.116 7.734,12.654 8.043,12.654 8.351,12.654 8.659,12.654 8.659,13.249 8.659,13.844 8.659,14.439 8.791,14.307 8.923,14.175 9.055,14.043 9.055,13.942 9.055,13.842 9.055,13.741 9.197,13.741 9.340,13.741 9.482,13.741 9.482,13.883 9.482,14.025 9.482,14.168 9.375,14.168 9.268,14.168 9.162,14.168 9.056,14.273 8.951,14.378 8.845,14.483 9.252,14.483 9.659,14.483 10.066,14.483 10.066,14.643 10.066,14.804 10.066,14.965 9.796,14.965 9.527,14.965 9.258,14.965 Z M 8.266,12.085 C 7.285,12.085 6.400,12.676 6.024,13.583 5.649,14.490 5.856,15.533 6.550,16.227 7.244,16.921 8.288,17.128 9.194,16.753 10.101,16.377 10.692,15.493 10.692,14.512 10.692,13.868 10.436,13.251 9.981,12.796 9.526,12.341 8.909,12.085 8.266,12.085 8.266,12.085 8.266,12.085 8.266,12.085 Z " />
</svg>