<?xml version="1.0" encoding="UTF-8" standalone="no"?>
<!DOCTYPE svg PUBLIC "-//W3C//DTD SVG 20010904//EN" "http://www.w3.org/TR/2001/REC-SVG-20010904/DTD/svg10.dtd"[]>
<svg version="1.1" id="Frosty Editor v1.0.6.3" xmlns="http://www.w3.org/2000/svg" d1p1:xlink="http://www.w3.org/1999/xlink" viewBox="0 0 25 25" xmlns:d1p1="xmlns">
  <path stroke="none" fill="#ffffffff" d="M 12.103,22.174 C 10.624,21.556 9.437,19.774 8.701,17.067 8.422,16.043 8.354,15.880 7.982,15.350 7.534,14.711 7.234,13.816 7.235,13.119 7.237,12.414 7.509,11.585 7.982,10.845 8.216,10.480 8.380,10.091 8.550,9.504 8.872,8.389 9.237,7.417 9.622,6.648 9.798,6.297 9.942,5.972 9.942,5.927 9.942,5.630 8.605,6.478 7.683,7.360 6.984,8.028 6.615,8.536 6.208,9.394 4.753,12.456 5.359,15.926 7.758,18.276 8.094,18.605 8.466,18.956 8.586,19.054 8.803,19.234 8.803,19.234 8.803,19.234 8.526,19.572 8.526,19.572 8.526,19.572 8.374,19.758 8.208,19.910 8.158,19.910 7.996,19.910 6.770,18.839 6.385,18.361 5.157,16.837 4.511,15.206 4.413,13.386 4.328,11.796 4.569,10.445 5.153,9.231 6.000,7.470 7.201,6.161 8.856,5.195 9.553,4.788 10.032,4.598 11.552,4.125 12.976,3.682 13.144,3.671 14.024,3.965 14.408,4.092 14.599,4.218 15.034,4.632 16.117,5.660 16.849,7.120 17.618,9.778 17.700,10.061 17.905,10.506 18.073,10.766 18.707,11.743 18.760,11.919 18.760,13.068 18.760,14.092 18.760,14.092 18.760,14.092 18.475,14.641 18.475,14.641 18.475,14.641 18.319,14.943 18.079,15.366 17.941,15.582 17.790,15.819 17.622,16.239 17.517,16.643 17.421,17.011 17.206,17.674 17.040,18.117 16.618,19.236 16.570,19.391 16.624,19.445 16.726,19.547 17.552,18.904 18.321,18.124 19.183,17.249 19.666,16.534 20.008,15.624 20.796,13.530 20.707,11.214 19.766,9.336 19.088,7.983 18.576,7.435 16.610,5.960 16.570,5.930 16.943,5.313 17.061,5.214 17.144,5.146 17.289,5.222 17.786,5.598 19.171,6.642 19.996,7.608 20.664,8.970 21.116,9.893 21.313,10.584 21.474,11.815 21.774,14.120 20.982,16.660 19.402,18.455 18.493,19.488 17.431,20.260 16.238,20.754 15.846,20.917 15.420,21.168 15.100,21.425 14.345,22.032 13.781,22.274 13.055,22.302 12.588,22.321 12.392,22.294 12.103,22.174 Z M 13.610,20.898 C 13.673,19.907 13.684,16.017 13.626,15.530 13.579,15.138 13.579,15.138 13.579,15.138 13.079,15.166 13.079,15.166 13.079,15.166 12.804,15.182 12.545,15.228 12.504,15.270 12.413,15.360 12.308,20.799 12.387,21.321 12.440,21.672 12.440,21.672 12.440,21.672 13.002,21.651 13.002,21.651 13.002,21.651 13.564,21.630 13.564,21.630 13.564,21.630 Z M 11.873,21.184 C 11.898,21.121 11.918,19.704 11.918,18.035 11.918,15.002 11.918,15.002 11.918,15.002 11.460,14.573 11.460,14.573 11.460,14.573 11.209,14.337 10.904,14.010 10.784,13.846 10.504,13.466 10.208,13.324 9.696,13.324 9.161,13.324 9.102,13.426 9.170,14.231 9.436,17.397 10.212,19.715 11.431,20.989 11.760,21.333 11.808,21.354 11.873,21.184 Z M 15.082,20.111 C 15.502,19.935 15.625,19.751 16.012,18.722 16.327,17.882 16.560,17.034 16.712,16.167 16.849,15.390 17.003,13.597 16.946,13.448 16.906,13.345 16.792,13.324 16.269,13.324 15.640,13.324 15.640,13.324 15.640,13.324 14.880,14.111 14.880,14.111 14.880,14.111 14.119,14.897 14.119,14.897 14.119,14.897 14.116,17.482 14.116,17.482 14.116,17.482 14.114,19.104 14.141,20.118 14.188,20.205 14.276,20.370 14.529,20.343 15.082,20.111 Z M 13.780,14.497 C 14.129,14.328 14.495,13.818 14.463,13.544 14.442,13.361 14.442,13.361 14.442,13.361 13.081,13.341 13.081,13.341 13.081,13.341 11.950,13.324 11.703,13.339 11.629,13.429 11.411,13.692 11.818,14.403 12.267,14.544 12.713,14.685 13.439,14.662 13.780,14.497 Z M 10.088,12.740 C 10.267,12.690 10.583,12.429 11.137,11.873 11.930,11.078 11.930,11.078 11.930,11.078 11.905,8.182 11.905,8.182 11.905,8.182 11.892,6.590 11.858,5.264 11.830,5.235 11.739,5.144 11.415,5.271 11.156,5.498 11.012,5.625 10.749,6.024 10.542,6.430 9.812,7.863 9.328,9.795 9.170,11.905 9.122,12.548 9.126,12.576 9.291,12.692 9.486,12.828 9.719,12.842 10.088,12.740 Z M 16.835,12.731 C 16.979,12.654 16.984,12.610 16.936,11.849 16.750,8.909 15.903,6.428 14.642,5.129 14.298,4.775 14.242,4.741 14.178,4.854 14.133,4.935 14.114,6.131 14.128,8.077 14.150,11.172 14.150,11.172 14.150,11.172 14.902,11.929 14.902,11.929 14.902,11.929 15.419,12.448 15.729,12.703 15.890,12.741 16.247,12.826 16.666,12.821 16.835,12.731 Z M 14.466,12.536 C 14.496,12.321 14.239,11.908 13.943,11.697 13.740,11.552 13.621,11.531 13.003,11.531 12.402,11.531 12.264,11.554 12.093,11.682 11.794,11.905 11.627,12.159 11.577,12.468 11.532,12.742 11.532,12.742 11.532,12.742 12.987,12.722 12.987,12.722 12.987,12.722 14.437,12.702 14.442,12.701 14.466,12.536 Z M 13.656,7.706 C 13.678,4.035 13.738,4.361 13.045,4.360 12.389,4.360 12.430,4.134 12.430,7.723 12.430,9.462 12.453,10.908 12.482,10.936 12.510,10.965 12.782,10.979 13.085,10.967 13.637,10.946 13.637,10.946 13.637,10.946 Z " />
</svg>