<?xml version="1.0" encoding="UTF-8" standalone="no"?>
<!DOCTYPE svg PUBLIC "-//W3C//DTD SVG 20010904//EN" "http://www.w3.org/TR/2001/REC-SVG-20010904/DTD/svg10.dtd"[]>
<svg version="1.1" id="Frosty Editor v1.0.6.3" xmlns="http://www.w3.org/2000/svg" d1p1:xlink="http://www.w3.org/1999/xlink" viewBox="0 0 101 25" xmlns:d1p1="xmlns">
  <path stroke="none" fill="#ffffffff" d="M 40.034,11.351 C 39.926,11.350 39.758,11.366 39.758,11.465 39.758,11.512 39.775,11.550 39.800,11.580 7.931,11.603 0.778,12.020 0.778,12.020 0.451,12.020 0.189,12.236 0.189,12.505 0.189,12.773 0.451,12.989 0.778,12.989 0.778,12.989 8.212,13.427 42.004,13.431 42.071,13.525 42.170,13.579 42.309,13.579 49.066,13.579 49.066,13.579 49.066,13.579 49.456,13.579 49.456,13.579 49.456,13.579 49.456,13.352 49.456,13.352 49.456,13.352 49.673,13.352 49.673,13.352 49.673,13.352 49.673,13.352 52.001,15.093 52.908,15.093 53.756,15.093 53.756,15.093 53.756,15.093 54.592,15.093 55.789,13.484 58.026,13.358 60.446,13.295 60.446,13.295 60.446,13.295 60.446,13.289 60.446,13.289 60.446,13.289 61.190,13.285 62.374,13.267 64.217,13.267 66.478,13.267 66.945,13.256 66.945,13.139 66.945,13.137 66.944,13.134 66.943,13.132 74.771,13.094 96.844,12.677 96.880,12.676 97.063,12.731 97.497,12.767 98.276,12.767 99.046,12.767 99.575,12.732 99.740,12.639 99.861,12.708 100.295,12.730 100.522,12.730 100.644,12.729 101.443,12.732 101.443,12.505 101.443,12.505 101.443,12.505 101.443,12.505 101.443,12.505 101.443,12.505 101.443,12.505 101.443,12.278 100.644,12.280 100.522,12.280 100.295,12.280 99.861,12.302 99.740,12.371 99.575,12.278 99.046,12.243 98.276,12.243 97.497,12.243 97.063,12.278 96.880,12.334 96.844,12.333 74.771,11.916 66.943,11.878 66.944,11.875 66.945,11.873 66.945,11.871 66.945,11.754 66.478,11.743 64.217,11.743 60.731,11.743 59.551,11.679 59.394,11.762 58.011,11.678 55.690,11.561 55.179,11.698 55.002,11.745 54.559,11.836 54.559,12.505 54.559,12.605 55.201,12.651 55.201,12.826 55.201,12.967 53.847,13.805 53.577,13.878 52.972,14.040 52.206,13.542 51.804,13.322 52.194,13.322 52.194,13.322 52.194,13.322 52.194,13.243 52.194,13.243 52.194,13.243 52.343,13.243 52.343,13.243 52.343,13.243 52.343,13.043 52.343,13.043 52.343,13.043 52.194,13.043 52.194,13.043 52.194,13.043 52.194,11.693 52.194,11.693 52.194,11.693 52.343,11.693 52.343,11.693 52.343,11.693 52.343,11.493 52.343,11.493 52.343,11.493 52.194,11.493 52.194,11.493 52.194,11.493 52.194,11.414 52.194,11.414 52.194,11.414 51.804,11.414 51.804,11.414 51.804,11.414 51.624,11.414 50.979,11.904 50.621,11.904 50.257,11.904 49.856,11.646 49.456,11.646 49.456,11.430 49.456,11.430 49.456,11.430 49.066,11.430 49.066,11.430 49.066,11.430 Z M 52.343,11.414 C 52.343,13.322 52.343,13.322 52.343,13.322 52.569,13.322 52.569,13.322 52.569,13.322 52.569,11.414 52.569,11.414 52.569,11.414 Z M 40.800,11.560 C 41.504,11.566 42.208,11.572 42.911,11.578 42.662,13.379 42.662,13.379 42.662,13.379 42.547,13.378 42.432,13.379 42.317,13.378 42.269,13.380 42.215,13.370 42.182,13.331 42.146,13.293 42.126,13.244 42.115,13.193 42.100,13.090 42.094,12.986 42.084,12.882 42.064,12.644 42.024,12.404 41.926,12.184 41.873,12.062 41.799,11.948 41.704,11.855 41.575,11.728 41.408,11.635 41.228,11.604 41.086,11.586 40.943,11.573 40.800,11.560 Z M 43.208,11.580 C 43.717,11.585 44.225,11.589 44.734,11.593 44.487,13.379 44.487,13.379 44.487,13.379 43.977,13.379 43.468,13.379 42.959,13.379 Z M 45.031,11.596 C 45.540,11.600 46.048,11.605 46.557,11.609 46.311,13.379 46.311,13.379 46.311,13.379 45.802,13.379 45.293,13.379 44.784,13.379 Z M 39.830,11.610 C 39.832,11.611 39.834,11.613 39.835,11.614 39.834,11.612 39.832,11.611 39.830,11.610 Z M 46.854,11.612 C 47.362,11.616 47.871,11.620 48.379,11.625 48.136,13.379 48.136,13.379 48.136,13.379 47.627,13.379 47.118,13.379 46.609,13.379 Z M 51.892,11.614 C 51.926,11.614 51.960,11.615 51.994,11.614 51.994,13.122 51.994,13.122 51.994,13.122 51.855,13.122 51.716,13.122 51.577,13.122 51.520,13.113 51.460,13.142 51.433,13.192 51.398,13.248 51.415,13.328 51.469,13.364 51.591,13.433 51.714,13.502 51.836,13.570 52.148,13.744 52.463,13.919 52.806,14.024 53.024,14.090 53.254,14.128 53.481,14.099 53.616,14.085 53.742,14.033 53.862,13.972 54.143,13.826 54.416,13.664 54.683,13.491 54.839,13.388 54.996,13.284 55.144,13.169 55.210,13.115 55.278,13.063 55.332,12.997 55.388,12.934 55.414,12.844 55.393,12.762 55.371,12.670 55.300,12.598 55.219,12.554 55.078,12.475 54.917,12.445 54.765,12.395 54.774,12.288 54.803,12.177 54.869,12.089 54.894,12.055 54.926,12.024 54.960,12.000 55.020,11.958 55.091,11.930 55.161,11.910 55.299,11.870 55.442,11.859 55.585,11.849 55.886,11.835 56.190,11.834 56.493,11.838 57.742,11.862 58.990,11.934 60.237,12.016 60.240,12.017 60.243,12.017 60.246,12.017 60.246,12.064 60.246,12.064 60.246,12.064 60.074,12.129 59.519,12.152 59.399,12.422 59.185,12.422 59.185,12.422 59.185,12.422 58.245,12.455 57.409,12.320 56.559,12.619 55.987,12.909 55.456,13.291 54.978,13.646 54.391,14.170 53.909,14.593 53.174,14.411 52.479,14.220 51.786,13.784 51.256,13.423 50.304,12.760 50.625,12.698 49.920,12.430 49.778,12.378 49.632,12.340 49.483,12.316 49.476,12.317 49.461,12.309 49.456,12.313 49.456,11.848 49.456,11.848 49.456,11.848 49.512,11.850 49.569,11.854 49.624,11.864 49.875,11.913 50.111,12.019 50.360,12.073 50.514,12.110 50.678,12.116 50.832,12.073 51.066,12.004 51.280,11.885 51.494,11.771 51.593,11.721 51.686,11.661 51.791,11.622 51.824,11.616 51.858,11.615 51.892,11.614 Z M 48.677,11.627 C 48.806,11.628 48.936,11.630 49.066,11.631 49.256,11.631 49.256,11.631 49.256,11.631 49.256,11.646 49.256,11.646 49.256,11.646 49.256,11.847 49.256,11.847 49.256,11.847 49.256,13.152 49.256,13.152 49.256,13.152 49.256,13.352 49.256,13.352 49.256,13.352 49.256,13.379 49.256,13.379 49.256,13.379 48.982,13.379 48.708,13.379 48.434,13.379 Z M 40.004,11.689 C 40.008,11.690 40.012,11.691 40.015,11.691 40.011,11.690 40.010,11.690 40.004,11.689 Z M 40.033,11.695 C 40.033,11.695 40.034,11.695 40.034,11.695 40.034,11.695 41.145,11.787 41.198,11.799 41.955,11.970 41.864,12.992 41.917,13.231 41.129,13.231 41.129,13.231 41.129,13.231 38.825,13.229 36.521,13.227 34.218,13.221 29.871,13.211 25.524,13.192 21.177,13.158 19.535,13.146 17.894,13.131 16.253,13.113 14.186,13.091 12.119,13.064 10.052,13.030 8.283,13.001 6.513,12.967 4.744,12.922 4.041,12.904 3.338,12.885 2.635,12.862 2.020,12.842 1.405,12.818 0.790,12.789 0.706,12.788 0.620,12.773 0.546,12.732 0.492,12.702 0.442,12.657 0.413,12.601 0.379,12.536 0.383,12.455 0.421,12.393 0.473,12.312 0.561,12.259 0.653,12.236 0.691,12.226 0.730,12.225 0.770,12.222 1.011,12.208 1.252,12.199 1.494,12.189 2.552,12.147 3.610,12.116 4.668,12.089 6.825,12.034 8.983,11.995 11.141,11.962 13.525,11.926 15.910,11.898 18.295,11.876 21.389,11.846 24.483,11.826 27.577,11.812 29.689,11.802 31.801,11.795 33.913,11.789 36.257,11.784 38.601,11.781 40.944,11.778 40.968,11.778 40.968,11.778 40.968,11.778 40.658,11.749 40.034,11.695 40.034,11.695 40.034,11.695 40.033,11.695 40.033,11.695 Z M 60.476,11.922 C 60.747,11.924 61.017,11.926 61.288,11.928 61.983,11.934 62.678,11.939 63.373,11.941 64.192,11.944 65.011,11.942 65.831,11.950 65.828,11.960 65.824,11.969 65.823,11.979 65.802,12.074 65.854,12.174 65.936,12.221 65.936,12.221 65.936,12.221 65.936,12.221 65.944,12.225 65.953,12.229 65.961,12.233 65.961,12.232 65.961,12.232 65.961,12.232 66.049,12.273 66.146,12.290 66.240,12.309 66.384,12.340 66.532,12.364 66.663,12.434 66.693,12.451 66.725,12.472 66.737,12.505 66.725,12.537 66.693,12.559 66.663,12.575 66.532,12.646 66.384,12.669 66.240,12.700 66.146,12.720 66.049,12.737 65.961,12.778 65.961,12.777 65.961,12.777 65.961,12.777 65.953,12.781 65.944,12.784 65.936,12.789 65.936,12.789 65.936,12.789 65.936,12.789 65.854,12.836 65.802,12.936 65.823,13.030 65.824,13.040 65.828,13.050 65.831,13.060 65.011,13.068 64.192,13.066 63.373,13.069 62.678,13.071 61.983,13.076 61.288,13.082 61.017,13.084 60.747,13.086 60.476,13.087 60.511,13.020 60.506,12.934 60.465,12.870 60.429,12.811 60.368,12.772 60.302,12.754 60.198,12.719 60.087,12.706 59.980,12.680 59.867,12.656 59.755,12.630 59.653,12.574 59.624,12.559 59.593,12.536 59.580,12.505 59.593,12.474 59.624,12.451 59.653,12.435 59.755,12.380 59.867,12.354 59.980,12.330 60.068,12.308 60.158,12.295 60.246,12.272 60.246,12.273 60.246,12.273 60.246,12.273 60.265,12.268 60.284,12.262 60.302,12.256 60.318,12.252 60.333,12.246 60.348,12.239 60.350,12.239 60.351,12.238 60.353,12.237 60.366,12.231 60.379,12.224 60.391,12.216 60.393,12.214 60.395,12.213 60.397,12.212 60.409,12.203 60.421,12.193 60.432,12.182 60.433,12.181 60.435,12.179 60.437,12.177 60.440,12.173 60.443,12.170 60.446,12.166 60.446,12.164 60.446,12.164 60.446,12.164 60.453,12.156 60.460,12.149 60.465,12.140 60.506,12.076 60.511,11.990 60.476,11.922 Z M 61.473,12.041 C 61.387,12.041 61.317,12.110 61.317,12.197 61.317,12.284 61.387,12.353 61.473,12.353 61.560,12.353 61.630,12.284 61.630,12.197 61.630,12.110 61.560,12.041 61.473,12.041 Z M 62.576,12.048 C 62.489,12.048 62.419,12.118 62.419,12.204 62.419,12.291 62.489,12.361 62.576,12.361 62.662,12.361 62.732,12.291 62.732,12.204 62.732,12.118 62.662,12.048 62.576,12.048 Z M 63.678,12.056 C 63.591,12.056 63.522,12.125 63.522,12.212 63.522,12.299 63.591,12.368 63.678,12.368 63.765,12.368 63.834,12.299 63.834,12.212 63.834,12.125 63.765,12.056 63.678,12.056 Z M 64.780,12.063 C 64.694,12.063 64.624,12.133 64.624,12.219 64.624,12.306 64.694,12.376 64.780,12.376 64.867,12.376 64.937,12.306 64.937,12.219 64.937,12.133 64.867,12.063 64.780,12.063 Z M 66.095,12.072 C 66.491,12.073 66.888,12.075 67.285,12.078 68.863,12.088 70.442,12.106 72.020,12.126 74.389,12.155 76.758,12.191 79.127,12.228 80.356,12.247 81.585,12.266 82.815,12.287 86.280,12.344 89.746,12.404 93.211,12.467 93.898,12.480 94.585,12.492 95.272,12.505 95.268,12.505 95.265,12.505 95.262,12.505 95.265,12.505 95.268,12.505 95.272,12.505 94.585,12.518 93.898,12.530 93.211,12.543 89.746,12.605 86.280,12.666 82.815,12.723 81.585,12.743 80.356,12.763 79.127,12.782 76.758,12.819 74.389,12.854 72.020,12.884 70.442,12.904 68.863,12.922 67.285,12.932 66.888,12.935 66.491,12.936 66.095,12.938 66.311,12.873 66.913,12.841 66.942,12.505 66.913,12.169 66.311,12.137 66.095,12.072 Z M 61.471,12.136 C 61.489,12.135 61.507,12.143 61.519,12.157 61.543,12.182 61.538,12.227 61.509,12.246 61.482,12.268 61.439,12.258 61.422,12.229 61.395,12.193 61.427,12.136 61.471,12.136 Z M 62.577,12.143 C 62.590,12.143 62.603,12.148 62.613,12.156 62.642,12.177 62.644,12.223 62.619,12.247 62.593,12.276 62.543,12.269 62.524,12.236 62.498,12.201 62.528,12.145 62.571,12.144 62.573,12.143 62.575,12.143 62.577,12.143 Z M 63.683,12.151 C 63.700,12.152 63.716,12.162 63.726,12.175 63.748,12.201 63.741,12.243 63.713,12.261 63.686,12.283 63.642,12.273 63.625,12.243 63.600,12.206 63.632,12.150 63.676,12.151 63.678,12.151 63.681,12.151 63.683,12.151 Z M 64.778,12.158 C 64.796,12.157 64.814,12.166 64.826,12.179 64.850,12.204 64.845,12.249 64.816,12.269 64.789,12.290 64.745,12.281 64.728,12.251 64.702,12.215 64.734,12.158 64.778,12.158 Z M 98.128,12.445 C 98.347,12.443 98.567,12.445 98.787,12.451 99.013,12.457 99.238,12.466 99.462,12.500 99.471,12.502 99.480,12.503 99.489,12.505 99.480,12.506 99.471,12.508 99.462,12.509 99.238,12.543 99.013,12.553 98.787,12.559 98.347,12.570 97.908,12.568 97.469,12.548 97.422,12.545 97.375,12.542 97.327,12.538 97.231,12.531 97.135,12.522 97.040,12.505 97.135,12.488 97.231,12.479 97.327,12.471 97.375,12.468 97.422,12.465 97.469,12.462 97.688,12.452 97.908,12.446 98.128,12.445 Z M 49.456,12.451 C 49.749,12.530 49.819,12.573 49.997,12.644 50.346,12.789 50.536,13.106 50.795,13.310 51.368,13.758 52.008,14.129 52.617,14.415 52.763,14.479 52.907,14.551 53.060,14.596 53.881,14.777 54.378,14.409 54.923,13.946 55.436,13.507 55.976,13.088 56.577,12.824 57.025,12.610 57.512,12.611 57.976,12.608 58.454,12.608 58.932,12.608 59.410,12.608 59.548,12.859 60.078,12.883 60.246,12.946 60.246,13.028 60.246,13.028 60.246,13.028 60.151,13.063 59.945,13.086 59.753,13.112 58.627,13.142 58.627,13.142 58.627,13.142 58.414,13.149 58.202,13.149 57.990,13.161 57.426,13.192 56.869,13.328 56.347,13.541 55.883,13.729 55.449,13.982 55.027,14.249 54.784,14.400 54.547,14.563 54.296,14.702 54.150,14.781 54.000,14.860 53.835,14.885 53.680,14.895 53.524,14.893 53.368,14.893 53.223,14.891 53.078,14.895 52.933,14.892 52.808,14.892 52.685,14.865 52.567,14.826 52.255,14.721 51.959,14.574 51.671,14.415 50.998,14.040 50.360,13.606 49.738,13.152 49.456,13.152 49.456,13.152 49.456,13.152 Z M 100.443,12.483 C 100.617,12.478 100.791,12.483 100.964,12.503 100.969,12.503 100.974,12.504 100.979,12.504 100.977,12.505 100.976,12.505 100.974,12.505 100.976,12.505 100.977,12.505 100.979,12.505 100.974,12.506 100.969,12.507 100.964,12.507 100.791,12.527 100.617,12.531 100.443,12.527 100.314,12.525 100.185,12.519 100.058,12.505 100.185,12.490 100.314,12.485 100.443,12.483 Z M 60.922,12.584 C 60.836,12.584 60.766,12.654 60.766,12.741 60.766,12.827 60.836,12.897 60.922,12.897 61.009,12.897 61.079,12.827 61.079,12.741 61.079,12.654 61.009,12.584 60.922,12.584 Z M 62.025,12.592 C 61.938,12.592 61.868,12.662 61.868,12.748 61.868,12.835 61.938,12.905 62.025,12.905 62.111,12.905 62.181,12.835 62.181,12.748 62.181,12.662 62.111,12.592 62.025,12.592 Z M 63.127,12.599 C 63.040,12.599 62.970,12.669 62.970,12.756 62.970,12.842 63.040,12.912 63.127,12.912 63.213,12.912 63.283,12.842 63.283,12.756 63.283,12.669 63.213,12.599 63.127,12.599 Z M 64.229,12.607 C 64.142,12.607 64.073,12.676 64.073,12.763 64.073,12.850 64.142,12.919 64.229,12.919 64.316,12.919 64.385,12.850 64.385,12.763 64.385,12.676 64.316,12.607 64.229,12.607 Z M 65.331,12.614 C 65.245,12.614 65.175,12.684 65.175,12.771 65.175,12.857 65.245,12.927 65.331,12.927 65.418,12.927 65.488,12.857 65.488,12.771 65.488,12.684 65.418,12.614 65.331,12.614 Z M 60.927,12.680 C 60.936,12.680 60.946,12.683 60.954,12.689 60.986,12.706 60.992,12.754 60.968,12.781 60.943,12.812 60.890,12.806 60.870,12.772 60.845,12.737 60.875,12.682 60.917,12.680 60.920,12.680 60.924,12.680 60.927,12.680 Z M 62.025,12.687 C 62.039,12.687 62.052,12.692 62.062,12.700 62.090,12.720 62.093,12.764 62.070,12.789 62.045,12.819 61.993,12.814 61.973,12.781 61.946,12.746 61.977,12.689 62.020,12.687 62.022,12.687 62.023,12.687 62.025,12.687 Z M 63.124,12.694 C 63.142,12.694 63.160,12.702 63.172,12.715 63.197,12.741 63.191,12.786 63.162,12.805 63.135,12.826 63.092,12.817 63.075,12.787 63.048,12.751 63.081,12.694 63.124,12.694 Z M 64.234,12.702 C 64.244,12.703 64.253,12.706 64.261,12.711 64.293,12.729 64.299,12.778 64.274,12.804 64.249,12.834 64.196,12.828 64.177,12.794 64.152,12.759 64.182,12.704 64.224,12.702 64.228,12.702 64.231,12.702 64.234,12.702 Z M 65.337,12.710 C 65.354,12.710 65.370,12.720 65.380,12.734 65.401,12.760 65.394,12.802 65.367,12.820 65.339,12.841 65.296,12.831 65.279,12.801 65.254,12.765 65.286,12.709 65.329,12.710 65.332,12.709 65.334,12.709 65.337,12.710 Z M 41.955,13.345 C 41.955,13.345 41.955,13.345 41.955,13.345 41.955,13.345 41.955,13.345 41.955,13.345 Z " />
</svg>