<?xml version="1.0" encoding="UTF-8" standalone="no"?>
<!DOCTYPE svg PUBLIC "-//W3C//DTD SVG 20010904//EN" "http://www.w3.org/TR/2001/REC-SVG-20010904/DTD/svg10.dtd"[]>
<svg version="1.1" id="Frosty Editor v1.0.6.3" xmlns="http://www.w3.org/2000/svg" d1p1:xlink="http://www.w3.org/1999/xlink" viewBox="0 0 96 96" xmlns:d1p1="xmlns">
  <path stroke="none" fill="#ffffffff" d="M 48.520,30.360 C 48.853,30.360 49.187,30.360 49.520,30.360 51.210,30.360 58.520,30.290 58.520,30.360 58.588,30.077 58.635,29.790 58.660,29.500 58.660,29.250 56.870,18.320 56.770,17.880 56.670,17.440 56.380,16.960 55.950,16.880 55.890,16.880 55.830,16.880 55.770,16.880 55.747,16.920 55.723,16.960 55.700,17.000 51.213,17.000 46.727,17.000 42.240,17.000 42.217,16.960 42.193,16.920 42.170,16.880 42.113,16.880 42.057,16.880 42.000,16.880 41.570,16.880 41.280,17.390 41.180,17.880 41.080,18.370 39.290,29.250 39.290,29.500 39.315,29.790 39.362,30.077 39.430,30.360 39.430,30.360 46.710,30.340 48.520,30.360 48.520,30.360 48.520,30.360 48.520,30.360 Z " />
  <path stroke="none" fill="#ffffffff" d="M 40.000,47.000 C 46.333,47.000 52.667,47.000 59.000,47.000 59.000,47.667 59.000,48.333 59.000,49.000 52.667,49.000 46.333,49.000 40.000,49.000 40.000,48.333 40.000,47.667 40.000,47.000 Z " />
  <path stroke="none" fill="#ffffffff" d="M 42.000,32.000 C 44.000,32.000 46.000,32.000 48.000,32.000 48.000,36.333 48.000,40.667 48.000,45.000 46.000,45.000 44.000,45.000 42.000,45.000 42.000,40.667 42.000,36.333 42.000,32.000 Z " />
  <path stroke="none" fill="#ffffffff" d="M 50.000,32.000 C 52.000,32.000 54.000,32.000 56.000,32.000 56.000,36.333 56.000,40.667 56.000,45.000 54.000,45.000 52.000,45.000 50.000,45.000 50.000,40.667 50.000,36.333 50.000,32.000 Z " />
  <path stroke="none" fill="#ffffffff" d="M 38.720,45.000 C 39.147,45.000 39.573,45.000 40.000,45.000 40.000,40.667 40.000,36.333 40.000,32.000 39.573,32.000 39.147,32.000 38.720,32.000 37.866,31.923 37.104,32.539 37.000,33.390 37.000,36.797 37.000,40.203 37.000,43.610 37.104,44.461 37.866,45.077 38.720,45.000 38.720,45.000 38.720,45.000 38.720,45.000 Z " />
  <path stroke="none" fill="#ffffffff" d="M 59.280,32.000 C 58.853,32.000 58.427,32.000 58.000,32.000 58.000,36.333 58.000,40.667 58.000,45.000 58.427,45.000 58.853,45.000 59.280,45.000 60.134,45.077 60.896,44.461 61.000,43.610 61.000,40.203 61.000,36.797 61.000,33.390 60.896,32.539 60.134,31.923 59.280,32.000 59.280,32.000 59.280,32.000 59.280,32.000 Z " />
  <path stroke="none" fill="#ffffffff" d="M 49.520,65.800 C 49.187,65.800 48.853,65.800 48.520,65.800 46.830,65.800 39.520,65.870 39.520,65.800 39.452,66.086 39.405,66.377 39.380,66.670 39.380,66.930 41.170,78.030 41.270,78.480 41.370,78.930 41.660,79.420 42.090,79.480 42.150,79.480 42.210,79.480 42.270,79.480 42.293,79.647 42.317,79.813 42.340,79.980 46.827,79.980 51.313,79.980 55.800,79.980 55.823,79.813 55.847,79.647 55.870,79.480 55.930,79.480 55.990,79.480 56.050,79.480 56.480,79.480 56.770,78.960 56.870,78.480 56.970,78.000 58.770,67.000 58.770,66.710 58.745,66.417 58.698,66.126 58.630,65.840 58.630,65.840 51.330,65.820 49.520,65.800 49.520,65.800 49.520,65.800 49.520,65.800 Z " />
  <path stroke="none" fill="#ffffffff" d="M 50.000,51.000 C 52.000,51.000 54.000,51.000 56.000,51.000 56.000,55.333 56.000,59.667 56.000,64.000 54.000,64.000 52.000,64.000 50.000,64.000 50.000,59.667 50.000,55.333 50.000,51.000 Z " />
  <path stroke="none" fill="#ffffffff" d="M 42.000,51.000 C 44.000,51.000 46.000,51.000 48.000,51.000 48.000,55.333 48.000,59.667 48.000,64.000 46.000,64.000 44.000,64.000 42.000,64.000 42.000,59.667 42.000,55.333 42.000,51.000 Z " />
  <path stroke="none" fill="#ffffffff" d="M 59.280,51.000 C 58.853,51.000 58.427,51.000 58.000,51.000 58.000,55.333 58.000,59.667 58.000,64.000 58.427,64.000 58.853,64.000 59.280,64.000 60.134,64.077 60.896,63.461 61.000,62.610 61.000,59.203 61.000,55.797 61.000,52.390 60.896,51.539 60.134,50.923 59.280,51.000 59.280,51.000 59.280,51.000 59.280,51.000 Z " />
  <path stroke="none" fill="#ffffffff" d="M 40.000,51.000 C 39.573,51.000 39.147,51.000 38.720,51.000 37.866,50.923 37.104,51.539 37.000,52.390 37.000,55.797 37.000,59.203 37.000,62.610 37.104,63.461 37.866,64.077 38.720,64.000 39.147,64.000 39.573,64.000 40.000,64.000 40.000,59.667 40.000,55.333 40.000,51.000 Z " />
</svg>