<?xml version="1.0" encoding="UTF-8" standalone="no"?>
<!DOCTYPE svg PUBLIC "-//W3C//DTD SVG 20010904//EN" "http://www.w3.org/TR/2001/REC-SVG-20010904/DTD/svg10.dtd"[]>
<svg version="1.1" id="Frosty Editor v1.0.6.3" xmlns="http://www.w3.org/2000/svg" d1p1:xlink="http://www.w3.org/1999/xlink" viewBox="0 0 96 96" xmlns:d1p1="xmlns">
  <path stroke="none" fill="#ffffffff" d="M 31.190,30.440 C 31.349,30.598 31.595,30.631 31.790,30.520 34.760,28.803 37.730,27.087 40.700,25.370 40.894,25.256 40.988,25.027 40.930,24.810 40.393,22.810 39.857,20.810 39.320,18.810 39.279,18.661 39.171,18.540 39.028,18.482 38.886,18.423 38.724,18.433 38.590,18.510 34.693,20.760 30.797,23.010 26.900,25.260 26.765,25.338 26.674,25.475 26.654,25.630 26.634,25.785 26.688,25.941 26.800,26.050 28.263,27.513 29.727,28.977 31.190,30.440 Z " />
  <path stroke="none" fill="#ffffffff" d="M 18.150,40.000 C 20.150,40.537 22.150,41.073 24.150,41.610 24.367,41.668 24.596,41.574 24.710,41.380 26.427,38.410 28.143,35.440 29.860,32.470 29.971,32.275 29.938,32.029 29.780,31.870 28.317,30.407 26.853,28.943 25.390,27.480 25.281,27.368 25.125,27.314 24.970,27.334 24.815,27.354 24.678,27.445 24.600,27.580 22.350,31.480 20.100,35.380 17.850,39.280 17.773,39.414 17.763,39.576 17.822,39.718 17.880,39.861 18.001,39.969 18.150,40.010 18.150,40.007 18.150,40.003 18.150,40.000 Z " />
  <path stroke="none" fill="#ffffffff" d="M 24.000,54.310 C 24.000,50.873 24.000,47.437 24.000,44.000 23.999,43.775 23.847,43.579 23.630,43.520 21.630,42.983 19.630,42.447 17.630,41.910 17.587,41.910 17.543,41.910 17.500,41.910 17.367,41.910 17.240,41.963 17.146,42.056 17.053,42.150 17.000,42.277 17.000,42.410 17.000,46.913 17.000,51.417 17.000,55.920 17.001,56.075 17.074,56.221 17.197,56.315 17.320,56.409 17.480,56.440 17.630,56.400 17.630,56.400 17.630,56.400 17.630,56.400 19.630,55.863 21.630,55.327 23.630,54.790 23.847,54.731 23.999,54.535 24.000,54.310 24.000,54.310 24.000,54.310 24.000,54.310 Z " />
  <path stroke="none" fill="#ffffffff" d="M 42.870,24.300 C 42.929,24.517 43.125,24.669 43.350,24.670 46.783,24.670 50.217,24.670 53.650,24.670 53.875,24.669 54.072,24.517 54.130,24.300 54.667,22.300 55.203,20.300 55.740,18.300 55.780,18.150 55.749,17.990 55.655,17.867 55.561,17.744 55.415,17.671 55.260,17.670 50.757,17.670 46.253,17.670 41.750,17.670 41.595,17.671 41.449,17.744 41.355,17.867 41.261,17.990 41.230,18.150 41.270,18.300 41.803,20.300 42.337,22.300 42.870,24.300 Z " />
  <path stroke="none" fill="#ffffffff" d="M 67.140,32.460 C 67.140,32.460 67.140,32.460 67.140,32.460 68.857,35.430 70.573,38.400 72.290,41.370 72.404,41.564 72.633,41.658 72.850,41.600 74.850,41.063 76.850,40.527 78.850,39.990 78.999,39.949 79.120,39.841 79.178,39.698 79.237,39.556 79.227,39.394 79.150,39.260 76.900,35.363 74.650,31.467 72.400,27.570 72.323,27.433 72.186,27.341 72.030,27.320 72.020,27.320 72.010,27.320 72.000,27.320 71.868,27.322 71.742,27.376 71.650,27.470 70.187,28.933 68.723,30.397 67.260,31.860 67.088,32.009 67.039,32.256 67.140,32.460 67.140,32.460 67.140,32.460 67.140,32.460 Z " />
  <path stroke="none" fill="#ffffffff" d="M 56.290,25.380 C 56.290,25.380 56.290,25.380 56.290,25.380 59.260,27.097 62.230,28.813 65.200,30.530 65.395,30.641 65.641,30.608 65.800,30.450 67.263,28.987 68.727,27.523 70.190,26.060 70.302,25.951 70.356,25.795 70.336,25.640 70.316,25.485 70.225,25.348 70.090,25.270 66.193,23.017 62.297,20.763 58.400,18.510 58.266,18.433 58.104,18.423 57.962,18.482 57.819,18.540 57.711,18.661 57.670,18.810 57.133,20.810 56.597,22.810 56.060,24.810 55.997,25.030 56.092,25.265 56.290,25.380 56.290,25.380 56.290,25.380 56.290,25.380 Z " />
  <path stroke="none" fill="#ffffffff" d="M 40.710,73.000 C 40.710,73.000 40.710,73.000 40.710,73.000 37.740,71.283 34.770,69.567 31.800,67.850 31.605,67.739 31.359,67.772 31.200,67.930 29.733,69.380 28.267,70.830 26.800,72.280 26.688,72.389 26.634,72.545 26.654,72.700 26.674,72.855 26.765,72.992 26.900,73.070 30.800,75.320 34.700,77.570 38.600,79.820 38.734,79.897 38.896,79.907 39.038,79.848 39.181,79.790 39.289,79.669 39.330,79.520 39.867,77.520 40.403,75.520 40.940,73.520 40.979,73.316 40.887,73.109 40.710,73.000 40.710,73.000 40.710,73.000 40.710,73.000 Z " />
  <path stroke="none" fill="#ffffffff" d="M 78.850,58.340 C 76.850,57.803 74.850,57.267 72.850,56.730 72.807,56.730 72.763,56.730 72.720,56.730 72.542,56.731 72.379,56.826 72.290,56.980 70.573,59.950 68.857,62.920 67.140,65.890 67.029,66.085 67.062,66.331 67.220,66.490 68.683,67.953 70.147,69.417 71.610,70.880 71.719,70.992 71.875,71.046 72.030,71.026 72.185,71.006 72.322,70.915 72.400,70.780 74.650,66.880 76.900,62.980 79.150,59.080 79.227,58.946 79.237,58.784 79.178,58.642 79.120,58.499 78.999,58.391 78.850,58.350 78.850,58.347 78.850,58.343 78.850,58.340 Z " />
  <path stroke="none" fill="#ffffffff" d="M 79.800,42.000 C 79.679,41.904 79.520,41.870 79.370,41.910 77.370,42.447 75.370,42.983 73.370,43.520 73.153,43.579 73.001,43.775 73.000,44.000 73.000,47.437 73.000,50.873 73.000,54.310 73.001,54.535 73.153,54.731 73.370,54.790 75.370,55.327 77.370,55.863 79.370,56.400 79.520,56.440 79.680,56.409 79.803,56.315 79.926,56.221 79.999,56.075 80.000,55.920 80.000,51.417 80.000,46.913 80.000,42.410 80.003,42.249 79.929,42.097 79.800,42.000 79.800,42.000 79.800,42.000 79.800,42.000 Z " />
  <path stroke="none" fill="#ffffffff" d="M 65.810,67.890 C 65.651,67.732 65.405,67.699 65.210,67.810 62.237,69.540 59.263,71.270 56.290,73.000 56.096,73.114 56.002,73.343 56.060,73.560 56.597,75.560 57.133,77.560 57.670,79.560 57.711,79.709 57.819,79.830 57.962,79.888 58.104,79.947 58.266,79.937 58.400,79.860 62.300,77.610 66.200,75.360 70.100,73.110 70.235,73.032 70.326,72.895 70.346,72.740 70.366,72.585 70.312,72.429 70.200,72.320 68.737,70.843 67.273,69.367 65.810,67.890 Z " />
  <path stroke="none" fill="#ffffffff" d="M 29.860,65.870 C 28.143,62.913 26.427,59.957 24.710,57.000 24.621,56.846 24.458,56.751 24.280,56.750 24.237,56.750 24.193,56.750 24.150,56.750 22.150,57.287 20.150,57.823 18.150,58.360 18.001,58.401 17.880,58.509 17.822,58.652 17.763,58.794 17.773,58.956 17.850,59.090 20.100,62.990 22.350,66.890 24.600,70.790 24.678,70.925 24.815,71.016 24.970,71.036 25.125,71.056 25.281,71.002 25.390,70.890 26.853,69.427 28.317,67.963 29.780,66.500 29.954,66.336 29.987,66.072 29.860,65.870 29.860,65.870 29.860,65.870 29.860,65.870 Z " />
  <path stroke="none" fill="#ffffffff" d="M 54.130,74.000 C 54.071,73.783 53.875,73.631 53.650,73.630 50.217,73.630 46.783,73.630 43.350,73.630 43.125,73.631 42.929,73.783 42.870,74.000 42.333,76.000 41.797,78.000 41.260,80.000 41.220,80.150 41.251,80.310 41.345,80.433 41.439,80.556 41.585,80.629 41.740,80.630 46.243,80.630 50.747,80.630 55.250,80.630 55.405,80.629 55.551,80.556 55.645,80.433 55.739,80.310 55.770,80.150 55.730,80.000 55.197,78.000 54.663,76.000 54.130,74.000 Z " />
  <path stroke="none" fill="#ffffffff" d="M 43.510,42.230 C 44.007,41.947 44.503,41.663 45.000,41.380 45.194,41.266 45.288,41.037 45.230,40.820 44.693,38.820 44.157,36.820 43.620,34.820 43.579,34.671 43.471,34.550 43.328,34.492 43.186,34.433 43.024,34.443 42.890,34.520 41.463,35.347 40.037,36.173 38.610,37.000 38.475,37.078 38.384,37.215 38.364,37.370 38.344,37.525 38.398,37.681 38.510,37.790 39.973,39.253 41.437,40.717 42.900,42.180 43.068,42.334 43.319,42.354 43.510,42.230 43.510,42.230 43.510,42.230 43.510,42.230 Z " />
  <path stroke="none" fill="#ffffffff" d="M 33.500,46.200 C 33.367,46.200 33.240,46.253 33.146,46.346 33.053,46.440 33.000,46.567 33.000,46.700 33.000,48.343 33.000,49.987 33.000,51.630 33.001,51.785 33.074,51.931 33.197,52.025 33.320,52.119 33.480,52.150 33.630,52.110 35.630,51.573 37.630,51.037 39.630,50.500 39.855,50.440 40.008,50.232 40.000,50.000 40.000,49.437 40.000,48.873 40.000,48.310 39.999,48.085 39.847,47.889 39.630,47.830 37.630,47.293 35.630,46.757 33.630,46.220 33.587,46.213 33.543,46.207 33.500,46.200 Z " />
  <path stroke="none" fill="#ffffffff" d="M 36.740,39.000 C 36.717,39.000 36.693,39.000 36.670,39.000 36.514,39.021 36.377,39.113 36.300,39.250 35.477,40.673 34.653,42.097 33.830,43.520 33.753,43.654 33.743,43.816 33.802,43.958 33.860,44.101 33.981,44.209 34.130,44.250 36.130,44.787 38.130,45.323 40.130,45.860 40.347,45.918 40.576,45.824 40.690,45.630 40.977,45.133 41.263,44.637 41.550,44.140 41.661,43.945 41.628,43.699 41.470,43.540 40.013,42.087 38.557,40.633 37.100,39.180 37.011,39.072 36.880,39.007 36.740,39.000 36.740,39.000 36.740,39.000 36.740,39.000 Z " />
  <path stroke="none" fill="#ffffffff" d="M 51.360,33.860 C 51.266,33.734 51.117,33.660 50.960,33.660 49.307,33.660 47.653,33.660 46.000,33.660 45.845,33.661 45.699,33.734 45.605,33.857 45.511,33.980 45.480,34.140 45.520,34.290 46.057,36.290 46.593,38.290 47.130,40.290 47.189,40.507 47.385,40.659 47.610,40.660 48.183,40.660 48.757,40.660 49.330,40.660 49.555,40.659 49.752,40.507 49.810,40.290 50.347,38.290 50.883,36.290 51.420,34.290 51.467,34.145 51.444,33.987 51.360,33.860 51.360,33.860 51.360,33.860 51.360,33.860 Z " />
  <path stroke="none" fill="#ffffffff" d="M 55.430,44.170 C 55.430,44.170 55.430,44.170 55.430,44.170 55.717,44.667 56.003,45.163 56.290,45.660 56.404,45.854 56.633,45.948 56.850,45.890 58.850,45.353 60.850,44.817 62.850,44.280 62.999,44.239 63.120,44.131 63.178,43.988 63.237,43.846 63.227,43.684 63.150,43.550 62.327,42.127 61.503,40.703 60.680,39.280 60.603,39.143 60.466,39.051 60.310,39.030 60.287,39.030 60.263,39.030 60.240,39.030 60.108,39.032 59.982,39.086 59.890,39.180 58.427,40.643 56.963,42.107 55.500,43.570 55.345,43.732 55.316,43.977 55.430,44.170 55.430,44.170 55.430,44.170 55.430,44.170 Z " />
  <path stroke="none" fill="#ffffffff" d="M 58.390,37.000 C 56.967,36.177 55.543,35.353 54.120,34.530 53.986,34.453 53.824,34.443 53.682,34.502 53.539,34.560 53.431,34.681 53.390,34.830 52.853,36.830 52.317,38.830 51.780,40.830 51.722,41.047 51.816,41.276 52.010,41.390 52.507,41.677 53.003,41.963 53.500,42.250 53.695,42.361 53.941,42.328 54.100,42.170 55.563,40.707 57.027,39.243 58.490,37.780 58.602,37.671 58.656,37.515 58.636,37.360 58.616,37.205 58.525,37.068 58.390,36.990 58.390,36.993 58.390,36.997 58.390,37.000 Z " />
  <path stroke="none" fill="#ffffffff" d="M 63.800,52.000 C 63.926,51.906 64.000,51.757 64.000,51.600 64.000,49.967 64.000,48.333 64.000,46.700 64.000,46.567 63.947,46.440 63.854,46.346 63.760,46.253 63.633,46.200 63.500,46.200 63.457,46.200 63.413,46.200 63.370,46.200 61.370,46.737 59.370,47.273 57.370,47.810 57.153,47.869 57.001,48.065 57.000,48.290 57.000,48.860 57.000,49.430 57.000,50.000 57.001,50.225 57.153,50.421 57.370,50.480 59.370,51.017 61.370,51.553 63.370,52.090 63.520,52.130 63.679,52.096 63.800,52.000 63.800,52.000 63.800,52.000 63.800,52.000 Z " />
  <path stroke="none" fill="#ffffffff" d="M 51.770,57.520 C 52.307,59.520 52.843,61.520 53.380,63.520 53.421,63.669 53.529,63.790 53.672,63.848 53.814,63.907 53.976,63.897 54.110,63.820 55.533,62.997 56.957,62.173 58.380,61.350 58.515,61.272 58.606,61.135 58.626,60.980 58.646,60.825 58.592,60.669 58.480,60.560 57.020,59.100 55.560,57.640 54.100,56.180 53.941,56.022 53.695,55.989 53.500,56.100 53.000,56.400 52.500,56.700 52.000,57.000 51.823,57.109 51.731,57.316 51.770,57.520 51.770,57.520 51.770,57.520 51.770,57.520 Z " />
  <path stroke="none" fill="#ffffffff" d="M 60.320,59.300 C 60.476,59.279 60.613,59.187 60.690,59.050 61.513,57.627 62.337,56.203 63.160,54.780 63.237,54.646 63.247,54.484 63.188,54.342 63.130,54.199 63.009,54.091 62.860,54.050 60.860,53.513 58.860,52.977 56.860,52.440 56.817,52.440 56.773,52.440 56.730,52.440 56.552,52.441 56.389,52.536 56.300,52.690 56.013,53.187 55.727,53.683 55.440,54.180 55.329,54.375 55.362,54.621 55.520,54.780 56.983,56.243 58.447,57.707 59.910,59.170 60.020,59.273 60.171,59.321 60.320,59.300 60.320,59.300 60.320,59.300 60.320,59.300 Z " />
  <path stroke="none" fill="#ffffffff" d="M 36.310,59.050 C 36.388,59.185 36.525,59.276 36.680,59.296 36.835,59.316 36.991,59.262 37.100,59.150 38.563,57.687 40.027,56.223 41.490,54.760 41.648,54.601 41.681,54.355 41.570,54.160 41.283,53.663 40.997,53.167 40.710,52.670 40.621,52.516 40.458,52.421 40.280,52.420 40.237,52.420 40.193,52.420 40.150,52.420 38.150,52.957 36.150,53.493 34.150,54.030 34.001,54.071 33.880,54.179 33.822,54.322 33.763,54.464 33.773,54.626 33.850,54.760 34.670,56.190 35.490,57.620 36.310,59.050 Z " />
  <path stroke="none" fill="#ffffffff" d="M 49.840,58.000 C 49.781,57.783 49.585,57.631 49.360,57.630 48.787,57.630 48.213,57.630 47.640,57.630 47.415,57.631 47.219,57.783 47.160,58.000 46.623,60.000 46.087,62.000 45.550,64.000 45.510,64.150 45.541,64.310 45.635,64.433 45.729,64.556 45.875,64.629 46.030,64.630 47.687,64.630 49.343,64.630 51.000,64.630 51.155,64.629 51.301,64.556 51.395,64.433 51.489,64.310 51.520,64.150 51.480,64.000 50.933,62.000 50.387,60.000 49.840,58.000 Z " />
  <path stroke="none" fill="#ffffffff" d="M 38.610,61.360 C 40.033,62.183 41.457,63.007 42.880,63.830 43.014,63.907 43.176,63.917 43.318,63.858 43.461,63.800 43.569,63.679 43.610,63.530 44.147,61.530 44.683,59.530 45.220,57.530 45.265,57.325 45.178,57.113 45.000,57.000 44.503,56.713 44.007,56.427 43.510,56.140 43.315,56.029 43.069,56.062 42.910,56.220 41.447,57.683 39.983,59.147 38.520,60.610 38.408,60.719 38.354,60.875 38.374,61.030 38.394,61.185 38.485,61.322 38.620,61.400 38.617,61.387 38.613,61.373 38.610,61.360 Z " />
</svg>