<?xml version="1.0" encoding="UTF-8" standalone="no"?>
<!DOCTYPE svg PUBLIC "-//W3C//DTD SVG 20010904//EN" "http://www.w3.org/TR/2001/REC-SVG-20010904/DTD/svg10.dtd"[]>
<svg version="1.1" id="Frosty Editor v1.0.6.3" xmlns="http://www.w3.org/2000/svg" d1p1:xlink="http://www.w3.org/1999/xlink" viewBox="0 0 96 96" xmlns:d1p1="xmlns">
  <path stroke="none" fill="#ffffffff" d="M 74.400,63.300 C 74.400,64.600 74.400,65.900 74.400,67.200 80.533,64.700 86.667,62.200 92.800,59.700 87.567,59.667 82.333,59.633 77.100,59.600 77.100,57.733 77.100,55.867 77.100,54.000 71.767,56.200 66.433,58.400 61.100,60.600 65.533,60.933 69.967,61.267 74.400,61.600 74.400,62.167 74.400,62.733 74.400,63.300 Z " />
  <path stroke="none" fill="#ffffffff" d="M 69.900,49.200 C 70.567,50.333 71.233,51.467 71.900,52.600 76.400,47.500 80.900,42.400 85.400,37.300 80.433,39.733 75.467,42.167 70.500,44.600 69.533,43.000 68.567,41.400 67.600,39.800 63.533,44.700 59.467,49.600 55.400,54.500 59.967,52.267 64.533,50.033 69.100,47.800 69.367,48.267 69.633,48.733 69.900,49.200 Z " />
  <path stroke="none" fill="#ffffffff" d="M 60.000,37.900 C 61.133,38.533 62.267,39.167 63.400,39.800 65.900,32.500 68.400,25.200 70.900,17.900 66.667,23.167 62.433,28.433 58.200,33.700 56.567,32.767 54.933,31.833 53.300,30.900 52.200,37.867 51.100,44.833 50.000,51.800 52.867,46.900 55.733,42.000 58.600,37.100 59.067,37.367 59.533,37.633 60.000,37.900 Z " />
  <path stroke="none" fill="#ffffffff" d="M 21.600,63.300 C 21.600,64.600 21.600,65.900 21.600,67.200 15.467,64.700 9.333,62.200 3.200,59.700 8.433,59.667 13.667,59.633 18.900,59.600 18.900,57.733 18.900,55.867 18.900,54.000 24.233,56.200 29.567,58.400 34.900,60.600 30.467,60.933 26.033,61.267 21.600,61.600 21.600,62.167 21.600,62.733 21.600,63.300 Z " />
  <path stroke="none" fill="#ffffffff" d="M 26.100,49.200 C 25.433,50.333 24.767,51.467 24.100,52.600 19.600,47.500 15.100,42.400 10.600,37.300 15.567,39.733 20.533,42.167 25.500,44.600 26.467,43.000 27.433,41.400 28.400,39.800 32.467,44.700 36.533,49.600 40.600,54.500 36.033,52.267 31.467,50.033 26.900,47.800 26.633,48.267 26.367,48.733 26.100,49.200 Z " />
  <path stroke="none" fill="#ffffffff" d="M 36.000,37.900 C 34.867,38.533 33.733,39.167 32.600,39.800 30.933,32.500 29.267,25.200 27.600,17.900 31.000,23.167 34.400,28.433 37.800,33.700 39.433,32.767 41.067,31.833 42.700,30.900 43.800,37.867 44.900,44.833 46.000,51.800 43.133,46.900 40.267,42.000 37.400,37.100 36.933,37.367 36.467,37.633 36.000,37.900 Z " />
  <path stroke="none" fill="#ffffffff" d="M 59.100,64.500 C 57.200,60.300 52.900,57.300 48.000,57.300 43.100,57.300 38.800,60.300 36.900,64.500 44.300,64.500 51.700,64.500 59.100,64.500 59.100,64.500 59.100,64.500 59.100,64.500 Z " />
  <path stroke="none" fill="#ffffffff" d="M 59.600,66.900 C 51.867,66.900 44.133,66.900 36.400,66.900 35.800,66.900 35.300,67.400 35.300,68.000 35.300,69.000 35.300,70.000 35.300,71.000 35.300,71.600 35.800,72.100 36.400,72.100 44.167,72.100 51.933,72.100 59.700,72.100 60.300,72.100 60.800,71.600 60.800,71.000 60.800,70.000 60.800,69.000 60.800,68.000 60.700,67.400 60.200,66.900 59.600,66.900 59.600,66.900 59.600,66.900 59.600,66.900 Z " />
</svg>