<?xml version="1.0" encoding="UTF-8" standalone="no"?>
<!DOCTYPE svg PUBLIC "-//W3C//DTD SVG 20010904//EN" "http://www.w3.org/TR/2001/REC-SVG-20010904/DTD/svg10.dtd"[]>
<svg version="1.1" id="Frosty Editor v1.0.6.3" xmlns="http://www.w3.org/2000/svg" d1p1:xlink="http://www.w3.org/1999/xlink" viewBox="0 0 96 96" xmlns:d1p1="xmlns">
  <path stroke="none" fill="#ffffffff" d="M 31.700,43.700 C 30.000,43.733 28.300,43.767 26.600,43.800 25.200,43.800 24.300,42.600 24.300,42.600 23.900,43.900 23.500,45.200 23.100,46.500 23.100,46.500 18.800,49.200 17.600,52.000 16.400,54.800 16.400,55.300 16.100,58.300 15.800,61.200 16.000,62.200 16.000,62.400 16.100,62.700 16.700,63.500 18.100,63.600 18.600,63.600 19.100,63.600 19.600,63.600 19.600,63.933 19.600,64.267 19.600,64.600 22.967,64.533 26.333,64.467 29.700,64.400 29.700,64.033 29.700,63.667 29.700,63.300 30.533,63.267 31.367,63.233 32.200,63.200 32.100,62.300 32.000,61.100 31.700,60.400 31.667,60.267 31.633,60.133 31.600,60.000 31.633,59.867 31.667,59.733 31.700,59.600 32.100,57.500 33.100,51.400 33.100,51.300 33.200,50.500 33.700,50.400 35.100,49.700 32.200,49.000 31.500,45.200 31.700,43.700 31.700,43.700 31.700,43.700 31.700,43.700 Z " />
  <path stroke="none" fill="#ffffffff" d="M 46.200,43.100 C 46.200,43.600 46.100,44.100 45.900,44.600 45.500,44.900 44.500,45.500 43.500,46.100 42.400,46.133 41.300,46.167 40.200,46.200 40.333,46.033 40.467,45.867 40.600,45.700 40.433,45.500 40.267,45.300 40.100,45.100 40.000,45.000 38.600,43.200 40.300,40.200 41.400,40.167 42.500,40.133 43.600,40.100 45.000,40.200 46.200,41.500 46.200,43.100 46.200,43.100 46.200,43.100 46.200,43.100 46.200,43.100 46.200,43.100 46.200,43.100 Z M 35.200,43.500 C 35.200,42.900 35.300,41.800 36.100,40.300 36.533,40.300 36.967,40.300 37.400,40.300 37.100,42.900 37.200,44.500 39.100,46.200 36.300,46.300 35.200,45.100 35.200,43.500 35.200,43.500 35.200,43.500 35.200,43.500 Z M 24.000,24.500 C 24.633,24.500 25.267,24.500 25.900,24.500 24.733,26.767 23.567,29.033 22.400,31.300 21.767,31.300 21.133,31.300 20.500,31.300 21.667,29.033 22.833,26.767 24.000,24.500 24.000,24.500 24.000,24.500 24.000,24.500 Z M 27.600,24.400 C 28.200,24.400 28.800,24.400 29.400,24.400 28.267,26.667 27.133,28.933 26.000,31.200 25.400,31.200 24.800,31.200 24.200,31.200 25.333,28.933 26.467,26.667 27.600,24.400 27.600,24.400 27.600,24.400 27.600,24.400 Z M 32.900,24.300 C 31.733,26.567 30.567,28.833 29.400,31.100 28.800,31.100 28.200,31.100 27.600,31.100 28.767,28.833 29.933,26.567 31.100,24.300 31.700,24.300 32.300,24.300 32.900,24.300 32.900,24.300 32.900,24.300 32.900,24.300 Z M 81.900,28.700 C 81.900,28.100 81.900,27.500 81.900,26.900 80.633,26.933 79.367,26.967 78.100,27.000 76.533,25.400 74.967,23.800 73.400,22.200 73.400,22.067 73.400,21.933 73.400,21.800 66.367,21.833 59.333,21.867 52.300,21.900 51.433,21.367 50.567,20.833 49.700,20.300 42.067,20.467 34.433,20.633 26.800,20.800 25.600,21.367 24.400,21.933 23.200,22.500 22.567,22.500 21.933,22.500 21.300,22.500 20.133,24.433 18.967,26.367 17.800,28.300 16.767,28.333 15.733,28.367 14.700,28.400 14.167,28.400 13.633,28.400 13.100,28.400 12.533,28.400 11.967,28.400 11.400,28.400 11.467,31.667 11.533,34.933 11.600,38.200 13.133,38.167 14.667,38.133 16.200,38.100 16.200,38.767 16.200,39.433 16.200,40.100 16.600,40.100 17.000,40.100 17.400,40.100 18.900,40.100 20.600,41.600 20.500,44.600 21.100,44.100 21.700,43.800 21.700,43.800 22.300,42.167 22.900,40.533 23.500,38.900 24.167,38.900 24.833,38.900 25.500,38.900 25.500,39.367 25.500,39.833 25.500,40.300 25.500,40.800 25.600,41.300 26.600,41.300 29.133,41.233 31.667,41.167 34.200,41.100 34.100,41.400 34.000,41.700 33.900,42.000 33.500,43.000 33.700,45.000 34.700,46.500 35.200,47.200 36.000,48.000 37.300,48.000 38.500,48.000 40.300,48.000 41.100,48.000 41.233,48.000 41.367,48.000 41.500,48.000 41.567,48.000 41.633,48.000 41.700,48.000 41.733,48.000 41.767,48.000 41.800,48.000 42.400,48.100 45.500,48.500 47.200,48.700 47.300,48.700 47.400,48.700 47.500,48.700 47.800,48.700 48.000,48.600 48.100,48.400 48.600,47.900 48.600,46.700 48.300,45.100 48.000,43.800 48.300,42.000 48.400,41.300 48.433,41.167 48.467,41.033 48.500,40.900 48.567,40.800 48.633,40.700 48.700,40.600 49.100,40.100 50.200,38.800 51.400,38.800 57.967,38.767 64.533,38.733 71.100,38.700 71.100,39.067 71.100,39.433 71.100,39.800 71.700,40.200 72.300,40.600 72.900,41.000 73.233,41.000 73.567,41.000 73.900,41.000 74.500,40.600 75.100,40.200 75.700,39.800 75.700,39.433 75.700,39.067 75.700,38.700 76.533,38.667 77.367,38.633 78.200,38.600 78.200,38.333 78.200,38.067 78.200,37.800 78.867,37.800 79.533,37.800 80.200,37.800 82.000,37.800 82.100,37.300 82.100,36.600 82.067,35.667 82.033,34.733 82.000,33.800 82.900,33.767 83.800,33.733 84.700,33.700 84.667,32.000 84.633,30.300 84.600,28.600 83.700,28.633 82.800,28.667 81.900,28.700 81.900,28.700 81.900,28.700 81.900,28.700 Z " />
  <path stroke="none" fill="#ffffffff" d="M 69.300,63.000 C 70.267,63.000 71.233,63.000 72.200,63.000 71.500,60.500 69.500,58.500 66.900,57.900 66.900,58.767 66.900,59.633 66.900,60.500 65.700,60.500 64.500,60.500 63.300,60.500 63.300,59.633 63.300,58.767 63.300,57.900 60.700,58.500 58.700,60.500 58.000,63.000 58.900,63.000 59.800,63.000 60.700,63.000 60.700,64.033 60.700,65.067 60.700,66.100 59.733,66.100 58.767,66.100 57.800,66.100 58.300,69.000 60.500,71.300 63.300,72.000 63.300,71.000 63.300,70.000 63.300,69.000 64.500,69.000 65.700,69.000 66.900,69.000 66.900,70.000 66.900,71.000 66.900,72.000 69.800,71.300 71.900,69.000 72.400,66.100 71.367,66.100 70.333,66.100 69.300,66.100 69.300,65.067 69.300,64.033 69.300,63.000 69.300,63.000 69.300,63.000 69.300,63.000 Z " />
  <path stroke="none" fill="#ffffffff" d="M 74.700,66.100 C 74.200,70.300 71.000,73.600 66.900,74.400 66.900,75.500 66.900,76.600 66.900,77.700 65.700,77.700 64.500,77.700 63.300,77.700 63.300,76.600 63.300,75.500 63.300,74.400 59.200,73.600 56.000,70.300 55.500,66.100 54.367,66.100 53.233,66.100 52.100,66.100 52.100,65.067 52.100,64.033 52.100,63.000 53.267,63.000 54.433,63.000 55.600,63.000 56.400,59.200 59.400,56.200 63.300,55.500 63.300,54.267 63.300,53.033 63.300,51.800 64.500,51.800 65.700,51.800 66.900,51.800 66.900,53.033 66.900,54.267 66.900,55.500 70.700,56.200 73.800,59.200 74.600,63.000 75.700,63.000 76.800,63.000 77.900,63.000 77.900,64.033 77.900,65.067 77.900,66.100 76.833,66.100 75.767,66.100 74.700,66.100 74.700,66.100 74.700,66.100 74.700,66.100 Z M 75.600,54.100 C 72.700,51.200 68.800,49.700 65.000,49.700 61.200,49.700 57.300,51.200 54.400,54.100 48.500,60.000 48.500,69.500 54.400,75.300 57.300,78.200 61.200,79.700 65.000,79.700 68.800,79.700 72.700,78.200 75.600,75.300 81.500,69.400 81.500,59.900 75.600,54.100 75.600,54.100 75.600,54.100 75.600,54.100 Z " />
</svg>