<?xml version="1.0" encoding="UTF-8" standalone="no"?>
<!DOCTYPE svg PUBLIC "-//W3C//DTD SVG 20010904//EN" "http://www.w3.org/TR/2001/REC-SVG-20010904/DTD/svg10.dtd"[]>
<svg version="1.1" id="Frosty Editor v1.0.6.3" xmlns="http://www.w3.org/2000/svg" d1p1:xlink="http://www.w3.org/1999/xlink" viewBox="0 0 96 96" xmlns:d1p1="xmlns">
  <path stroke="none" fill="#ffffffff" d="M 53.000,28.900 C 50.600,31.300 17.900,61.700 16.500,60.300 15.100,59.000 45.600,26.200 48.000,23.900 50.400,21.500 54.700,19.500 56.100,20.900 57.400,22.200 55.400,26.500 53.000,28.900 53.000,28.900 53.000,28.900 53.000,28.900 Z " />
  <path stroke="none" fill="#ffffffff" d="M 69.100,31.300 C 66.800,33.600 34.000,64.100 32.700,62.700 31.300,61.300 61.800,28.600 64.100,26.200 66.500,23.800 70.800,21.800 72.200,23.200 73.600,24.600 71.500,28.900 69.100,31.300 69.100,31.300 69.100,31.300 69.100,31.300 Z " />
  <path stroke="none" fill="#ffffffff" d="M 71.900,47.800 C 69.500,50.200 36.800,80.600 35.400,79.200 34.000,77.800 64.500,45.100 66.800,42.700 69.200,40.300 73.500,38.300 74.900,39.700 76.300,41.100 74.300,45.400 71.900,47.800 71.900,47.800 71.900,47.800 71.900,47.800 Z " />
</svg>