<?xml version="1.0" encoding="UTF-8" standalone="no"?>
<!DOCTYPE svg PUBLIC "-//W3C//DTD SVG 20010904//EN" "http://www.w3.org/TR/2001/REC-SVG-20010904/DTD/svg10.dtd"[]>
<svg version="1.1" id="Frosty Editor v1.0.6.3" xmlns="http://www.w3.org/2000/svg" d1p1:xlink="http://www.w3.org/1999/xlink" viewBox="0 0 384 96" xmlns:d1p1="xmlns">
  <path stroke="none" fill="none" d="M 228.900,28.200 C 228.267,32.667 227.633,37.133 227.000,41.600 227.233,41.533 227.467,41.467 227.700,41.400 228.333,36.933 228.967,32.467 229.600,28.000 229.367,28.067 229.133,28.133 228.900,28.200 Z " />
  <path stroke="none" fill="none" d="M 219.000,50.500 C 218.867,49.933 218.733,49.367 218.600,48.800 218.167,47.367 217.733,45.933 217.300,44.500 216.667,42.333 216.033,40.167 215.400,38.000 214.900,38.167 214.400,38.333 213.900,38.500 214.367,40.100 214.833,41.700 215.300,43.300 215.167,43.333 215.033,43.367 214.900,43.400 215.367,44.967 215.833,46.533 216.300,48.100 216.333,48.100 216.367,48.100 216.400,48.100 216.700,49.067 217.000,50.033 217.300,51.000 217.867,50.833 218.433,50.667 219.000,50.500 Z " />
  <path stroke="none" fill="none" d="M 309.100,20.900 C 308.967,20.400 308.833,19.900 308.700,19.400 283.700,26.633 258.700,33.867 233.700,41.100 232.500,41.467 231.300,41.833 230.100,42.200 229.733,42.300 229.367,42.400 229.000,42.500 227.800,42.867 226.600,43.233 225.400,43.600 225.000,43.700 224.600,43.800 224.200,43.900 223.000,44.233 221.800,44.567 220.600,44.900 220.067,45.067 219.533,45.233 219.000,45.400 219.167,45.967 219.333,46.533 219.500,47.100 249.400,38.433 279.300,29.767 309.200,21.100 309.167,21.033 309.133,20.967 309.100,20.900 Z " />
  <path stroke="none" fill="none" d="M 211.942,44.228 C 212.518,44.061 213.094,43.894 213.671,43.727 214.125,45.296 214.579,46.864 215.034,48.433 214.458,48.600 213.881,48.767 213.305,48.934 212.851,47.365 212.396,45.796 211.942,44.228 Z " />
  <path stroke="none" fill="none" d="M 210.600,44.600 C 210.467,44.667 210.333,44.733 210.200,44.800 209.700,43.167 209.200,41.533 208.700,39.900 208.067,40.067 207.433,40.233 206.800,40.400 208.133,45.000 209.467,49.600 210.800,54.200 211.433,54.000 212.067,53.800 212.700,53.600 212.300,52.233 211.900,50.867 211.500,49.500 211.633,49.467 211.767,49.433 211.900,49.400 211.467,47.800 211.033,46.200 210.600,44.600 Z " />
  <path stroke="none" fill="none" d="M 233.600,26.800 C 233.000,31.300 232.400,35.800 231.800,40.300 232.033,40.233 232.267,40.167 232.500,40.100 233.100,35.600 233.700,31.100 234.300,26.600 234.067,26.667 233.833,26.733 233.600,26.800 Z " />
  <path stroke="none" fill="none" d="M 297.300,11.400 C 298.400,11.100 299.500,10.800 300.600,10.500 299.133,9.633 297.667,8.767 296.200,7.900 296.567,9.067 296.933,10.233 297.300,11.400 Z " />
  <path stroke="none" fill="none" d="M 218.600,44.100 C 219.333,43.867 220.067,43.633 220.800,43.400 221.500,38.433 222.200,33.467 222.900,28.500 224.100,28.167 225.300,27.833 226.500,27.500 225.800,32.467 225.100,37.433 224.400,42.400 224.800,42.300 225.200,42.200 225.600,42.100 226.267,37.133 226.933,32.167 227.600,27.200 228.800,26.833 230.000,26.467 231.200,26.100 230.533,31.067 229.867,36.033 229.200,41.000 229.567,40.900 229.933,40.800 230.300,40.700 231.000,35.733 231.700,30.767 232.400,25.800 233.600,25.433 234.800,25.067 236.000,24.700 235.300,29.667 234.600,34.633 233.900,39.600 259.133,32.300 284.367,25.000 309.600,17.700 309.900,18.633 310.200,19.567 310.500,20.500 310.533,20.700 310.567,20.900 310.600,21.100 310.867,21.033 311.133,20.967 311.400,20.900 311.300,20.533 311.200,20.167 311.100,19.800 311.233,19.767 311.367,19.733 311.500,19.700 310.833,17.433 310.167,15.167 309.500,12.900 309.367,12.933 309.233,12.967 309.100,13.000 308.833,12.133 308.567,11.267 308.300,10.400 306.567,10.900 304.833,11.400 303.100,11.900 302.833,11.733 302.567,11.567 302.300,11.400 281.633,17.400 260.967,23.400 240.300,29.400 240.733,27.733 241.167,26.067 241.600,24.400 258.467,19.533 275.333,14.667 292.200,9.800 292.933,10.233 293.667,10.667 294.400,11.100 294.800,11.000 295.200,10.900 295.600,10.800 295.233,9.467 294.867,8.133 294.500,6.800 294.333,6.700 294.167,6.600 294.000,6.500 293.967,6.367 293.933,6.233 293.900,6.100 284.033,8.967 274.167,11.833 264.300,14.700 262.800,14.267 261.300,13.833 259.800,13.400 248.667,16.633 237.533,19.867 226.400,23.100 224.867,24.400 223.333,25.700 221.800,27.000 220.900,27.267 220.000,27.533 219.100,27.800 218.233,30.767 217.367,33.733 216.500,36.700 217.200,39.167 217.900,41.633 218.600,44.100 Z " />
  <path stroke="none" fill="none" d="M 226.000,58.500 C 226.267,55.533 226.533,52.567 226.800,49.600 224.800,50.167 222.800,50.733 220.800,51.300 220.567,51.367 220.333,51.433 220.100,51.500 219.300,51.733 218.500,51.967 217.700,52.200 217.967,53.167 218.233,54.133 218.500,55.100 219.000,54.967 219.500,54.833 220.000,54.700 220.100,54.700 220.200,54.700 220.300,54.700 221.700,55.000 224.400,55.700 226.000,58.500 226.000,58.500 226.000,58.500 226.000,58.500 Z " />
  <path stroke="none" fill="none" d="M 219.920,48.459 C 235.416,43.970 250.912,39.482 266.408,34.994 266.566,35.538 266.724,36.082 266.881,36.626 251.385,41.115 235.889,45.603 220.393,50.091 220.235,49.547 220.078,49.003 219.920,48.459 Z " />
  <path stroke="none" fill="none" d="M 242.700,25.500 C 242.533,26.133 242.367,26.767 242.200,27.400 259.433,22.400 276.667,17.400 293.900,12.400 293.267,12.033 292.633,11.667 292.000,11.300 275.567,16.033 259.133,20.767 242.700,25.500 Z " />
  <path stroke="none" fill="none" d="M 234.200,49.800 C 234.200,49.900 234.300,50.000 234.300,50.000 236.733,49.300 239.167,48.600 241.600,47.900 241.600,47.800 241.600,47.800 241.600,47.700 240.167,48.133 238.733,48.567 237.300,49.000 236.267,49.267 235.233,49.533 234.200,49.800 234.200,49.800 234.200,49.800 234.200,49.800 Z " />
  <path stroke="none" fill="none" d="M 233.700,51.300 C 233.700,51.300 233.700,51.300 233.700,51.300 233.700,51.300 233.700,51.300 233.700,51.300 233.700,51.300 233.700,51.300 233.700,51.300 233.700,51.300 233.700,51.300 233.700,51.300 Z " />
  <path stroke="none" fill="none" d="M 224.100,29.600 C 223.500,34.067 222.900,38.533 222.300,43.000 222.533,42.933 222.767,42.867 223.000,42.800 223.600,38.333 224.200,33.867 224.800,29.400 224.567,29.467 224.333,29.533 224.100,29.600 Z " />
  <path stroke="none" fill="none" d="M 309.700,22.800 C 309.667,22.667 309.633,22.533 309.600,22.400 295.633,26.433 281.667,30.467 267.700,34.500 268.000,35.500 268.300,36.500 268.600,37.500 257.967,40.567 247.333,43.633 236.700,46.700 236.767,46.967 236.833,47.233 236.900,47.500 238.800,46.967 240.700,46.433 242.600,45.900 242.667,46.100 242.733,46.300 242.800,46.500 242.900,46.800 243.200,47.800 242.800,48.500 243.500,48.300 244.200,48.100 244.900,47.900 245.700,46.300 247.100,45.100 248.800,44.600 251.833,43.733 254.867,42.867 257.900,42.000 259.700,41.500 261.600,41.800 263.100,42.800 262.800,41.800 263.400,40.700 264.400,40.400 265.400,40.100 266.400,40.600 266.700,41.600 267.300,40.600 268.200,39.600 269.400,39.200 278.200,36.667 287.000,34.133 295.800,31.600 295.700,31.300 295.600,31.000 295.500,30.700 298.700,29.767 301.900,28.833 305.100,27.900 305.200,28.200 305.300,28.500 305.400,28.800 306.033,28.600 306.667,28.400 307.300,28.200 307.200,27.833 307.100,27.467 307.000,27.100 308.100,26.800 309.200,26.500 310.300,26.200 312.800,25.500 312.700,25.000 312.400,24.100 312.200,23.433 312.000,22.767 311.800,22.100 311.100,22.333 310.400,22.567 309.700,22.800 309.700,22.800 309.700,22.800 309.700,22.800 Z " />
  <path stroke="none" fill="none" d="M 297.600,31.600 C 297.733,32.067 297.867,32.533 298.000,33.000 298.533,33.167 299.067,33.333 299.600,33.500 299.500,33.400 299.500,33.300 299.400,33.100 299.100,32.100 299.700,31.100 300.600,30.800 301.600,30.500 302.600,31.100 302.900,32.000 302.900,32.100 303.000,32.200 303.000,32.400 303.367,31.967 303.733,31.533 304.100,31.100 303.967,30.633 303.833,30.167 303.700,29.700 301.667,30.333 299.633,30.967 297.600,31.600 297.600,31.600 297.600,31.600 297.600,31.600 Z " />
  <path stroke="none" fill="none" d="M 301.700,32.600 C 301.700,32.876 301.476,33.100 301.200,33.100 300.924,33.100 300.700,32.876 300.700,32.600 300.700,32.324 300.924,32.100 301.200,32.100 301.476,32.100 301.700,32.324 301.700,32.600 301.700,32.600 301.700,32.600 301.700,32.600 Z " />
  <path stroke="none" fill="none" d="M 264.800,41.900 C 264.500,42.000 264.300,42.300 264.400,42.600 264.500,42.900 264.800,43.100 265.100,43.000 265.400,42.900 265.600,42.600 265.500,42.300 265.400,42.000 265.100,41.800 264.800,41.900 264.800,41.900 264.800,41.900 264.800,41.900 Z " />
  <path stroke="none" fill="none" d="M 310.861,12.544 C 311.598,12.331 312.334,12.118 313.071,11.905 313.729,14.178 314.387,16.451 315.046,18.724 314.309,18.937 313.573,19.151 312.837,19.364 312.178,17.091 311.520,14.818 310.861,12.544 Z " />
  <path stroke="none" fill="none" d="M 250.000,47.300 C 250.000,48.000 250.000,49.000 250.200,50.200 250.300,51.000 250.500,52.100 251.700,53.000 251.000,51.600 250.500,49.600 250.800,47.000 250.533,47.100 250.267,47.200 250.000,47.300 250.000,47.300 250.000,47.300 250.000,47.300 Z " />
  <path stroke="none" fill="none" d="M 245.900,58.800 C 246.000,59.000 246.200,59.100 246.300,59.000 246.500,58.900 246.600,58.700 246.500,58.600 246.400,58.500 246.200,58.300 246.100,58.400 246.000,58.400 245.800,58.600 245.900,58.800 245.900,58.800 245.900,58.800 245.900,58.800 Z " />
  <path stroke="none" fill="none" d="M 247.800,58.100 C 247.800,58.200 247.900,58.200 247.900,58.300 248.200,59.200 247.600,60.200 246.700,60.500 245.800,60.800 244.800,60.200 244.500,59.300 244.200,58.400 244.800,57.400 245.700,57.100 245.900,57.000 246.200,57.000 246.400,57.000 245.500,56.100 244.800,55.000 244.400,53.600 244.200,52.800 244.100,51.900 244.100,51.100 240.800,52.067 237.500,53.033 234.200,54.000 233.300,54.300 231.600,54.400 231.000,52.300 230.900,51.933 230.800,51.567 230.700,51.200 230.233,51.333 229.767,51.467 229.300,51.600 229.033,54.733 228.767,57.867 228.500,61.000 228.033,62.000 227.567,63.000 227.100,64.000 227.100,64.033 227.100,64.067 227.100,64.100 225.800,73.200 225.200,79.800 225.700,82.300 226.500,86.500 227.000,87.900 227.100,88.300 227.400,88.600 228.600,89.500 230.500,89.000 231.300,88.767 232.100,88.533 232.900,88.300 232.933,88.433 232.967,88.567 233.000,88.700 238.400,87.133 243.800,85.567 249.200,84.000 249.167,83.867 249.133,83.733 249.100,83.600 249.667,83.433 250.233,83.267 250.800,83.100 250.300,81.700 249.600,80.100 249.000,79.400 248.900,79.300 248.800,79.200 248.700,79.100 248.700,78.967 248.700,78.833 248.700,78.700 248.500,76.100 247.600,66.300 247.500,65.600 247.200,63.900 247.800,60.700 251.100,59.000 249.900,58.900 248.800,58.600 247.800,58.100 247.800,58.100 247.800,58.100 247.800,58.100 Z " />
  <path stroke="none" fill="none" d="M 265.500,44.300 C 265.200,44.400 265.000,44.400 264.700,44.400 265.200,44.900 265.600,45.600 265.900,46.300 265.700,45.300 265.700,44.600 265.700,44.400 265.700,44.367 265.700,44.333 265.700,44.300 265.600,44.200 265.600,44.200 265.500,44.300 265.500,44.300 265.500,44.300 265.500,44.300 Z " />
  <path stroke="none" fill="none" d="M 263.800,50.400 C 264.000,49.600 263.900,48.800 263.700,48.000 263.700,47.967 263.700,47.933 263.700,47.900 263.000,45.500 260.800,44.100 258.700,44.700 257.100,45.167 255.500,45.633 253.900,46.100 252.700,51.200 255.400,53.300 255.600,53.400 255.900,53.633 256.200,53.867 256.500,54.100 256.367,54.367 256.233,54.633 256.100,54.900 257.700,54.433 259.300,53.967 260.900,53.500 262.000,52.300 263.300,50.900 263.800,50.400 263.800,50.400 263.800,50.400 263.800,50.400 Z " />
  <path stroke="none" fill="none" d="M 266.600,49.200 C 266.600,49.900 266.600,50.700 266.400,51.400 266.367,51.500 266.333,51.600 266.300,51.700 266.233,51.767 266.167,51.833 266.100,51.900 265.700,52.400 263.200,55.000 262.500,55.800 262.400,55.900 262.300,56.000 262.200,56.100 261.733,56.233 261.267,56.367 260.800,56.500 262.700,56.300 265.400,55.900 267.200,55.700 267.900,55.600 268.100,55.300 268.100,55.200 268.400,54.600 268.300,53.000 267.000,50.600 267.000,50.100 266.800,49.700 266.600,49.200 266.600,49.200 266.600,49.200 266.600,49.200 Z " />
  <path stroke="none" fill="none" d="M 247.300,49.400 C 246.800,50.400 246.700,51.600 247.000,52.800 247.700,55.100 249.600,56.400 251.600,56.100 248.100,54.300 247.700,51.800 247.400,50.500 247.400,50.200 247.400,49.800 247.300,49.400 247.300,49.400 247.300,49.400 247.300,49.400 Z " />
  <path stroke="#ffffffff" fill="none" stroke-width="0" d="M 250.000,46.300 C 250.000,46.300 250.000,46.300 250.000,46.300 " />
  <path stroke="none" fill="#ffffffff" d="M 315.000,18.700 C 314.267,18.900 313.533,19.100 312.800,19.300 312.133,17.033 311.467,14.767 310.800,12.500 311.533,12.300 312.267,12.100 313.000,11.900 313.667,14.167 314.333,16.433 315.000,18.700 315.000,18.700 315.000,18.700 315.000,18.700 Z M 310.200,26.300 C 309.100,26.600 308.000,26.900 306.900,27.200 307.000,27.567 307.100,27.933 307.200,28.300 306.567,28.500 305.933,28.700 305.300,28.900 305.200,28.600 305.100,28.300 305.000,28.000 301.800,28.933 298.600,29.867 295.400,30.800 295.500,31.100 295.600,31.400 295.700,31.700 286.900,34.233 278.100,36.767 269.300,39.300 268.100,39.600 267.200,40.700 266.600,41.700 266.200,40.800 265.200,40.300 264.300,40.500 263.300,40.800 262.700,41.800 263.000,42.900 261.500,41.900 259.600,41.600 257.800,42.100 254.767,42.967 251.733,43.833 248.700,44.700 247.000,45.200 245.600,46.400 244.800,48.000 244.100,48.200 243.400,48.400 242.700,48.600 243.100,47.900 242.800,46.900 242.700,46.600 242.633,46.400 242.567,46.200 242.500,46.000 240.600,46.533 238.700,47.067 236.800,47.600 236.733,47.333 236.667,47.067 236.600,46.800 247.233,43.733 257.867,40.667 268.500,37.600 268.200,36.600 267.900,35.600 267.600,34.600 281.567,30.567 295.533,26.533 309.500,22.500 309.533,22.633 309.567,22.767 309.600,22.900 310.300,22.700 311.000,22.500 311.700,22.300 311.900,22.967 312.100,23.633 312.300,24.300 312.600,25.100 312.700,25.600 310.200,26.300 310.200,26.300 310.200,26.300 310.200,26.300 Z M 303.000,32.500 C 303.000,32.400 303.000,32.300 302.900,32.100 302.600,31.100 301.600,30.600 300.600,30.900 299.600,31.200 299.100,32.200 299.400,33.200 299.400,33.300 299.500,33.500 299.600,33.600 299.067,33.400 298.533,33.200 298.000,33.000 297.867,32.533 297.733,32.067 297.600,31.600 299.633,31.000 301.667,30.400 303.700,29.800 303.833,30.267 303.967,30.733 304.100,31.200 303.733,31.633 303.367,32.067 303.000,32.500 303.000,32.500 303.000,32.500 303.000,32.500 Z M 300.800,32.800 C 300.700,32.600 300.900,32.300 301.100,32.200 301.300,32.100 301.600,32.300 301.700,32.500 301.800,32.700 301.600,33.000 301.400,33.100 301.100,33.100 300.800,33.000 300.800,32.800 300.800,32.800 300.800,32.800 300.800,32.800 Z M 265.100,42.900 C 264.800,43.000 264.500,42.800 264.400,42.500 264.300,42.200 264.500,41.900 264.800,41.800 265.100,41.700 265.400,41.900 265.500,42.200 265.600,42.500 265.400,42.800 265.100,42.900 265.100,42.900 265.100,42.900 265.100,42.900 Z M 265.900,46.200 C 265.600,45.500 265.200,44.900 264.700,44.300 264.900,44.300 265.200,44.300 265.500,44.200 265.600,44.200 265.600,44.100 265.700,44.100 265.700,44.133 265.700,44.167 265.700,44.200 265.700,44.400 265.800,45.200 265.900,46.200 265.900,46.200 265.900,46.200 265.900,46.200 Z M 268.200,55.100 C 268.100,55.200 268.000,55.500 267.300,55.600 265.600,55.800 262.800,56.200 260.900,56.400 261.367,56.267 261.833,56.133 262.300,56.000 262.400,55.900 262.500,55.800 262.600,55.700 263.300,54.900 265.800,52.400 266.200,51.800 266.267,51.733 266.333,51.667 266.400,51.600 266.433,51.500 266.467,51.400 266.500,51.300 266.700,50.600 266.800,49.800 266.700,49.100 266.900,49.500 267.000,50.000 267.200,50.400 268.400,52.900 268.600,54.400 268.200,55.100 268.200,55.100 268.200,55.100 268.200,55.100 Z M 251.600,56.200 C 249.700,56.500 247.700,55.100 247.000,52.900 246.600,51.700 246.800,50.500 247.300,49.500 247.300,49.900 247.400,50.300 247.500,50.700 247.700,51.900 248.100,54.400 251.600,56.200 251.600,56.200 251.600,56.200 251.600,56.200 Z M 250.000,46.300 C 250.000,46.300 250.000,46.300 250.000,46.300 250.000,46.300 250.000,46.300 250.000,46.300 250.000,46.300 250.000,46.300 250.000,46.300 Z M 251.700,53.000 C 250.500,52.000 250.300,51.000 250.200,50.200 250.000,49.000 250.000,48.000 250.000,47.300 250.300,47.200 250.600,47.100 250.900,47.000 250.500,49.600 251.000,51.600 251.700,53.000 251.700,53.000 251.700,53.000 251.700,53.000 Z M 256.000,54.900 C 256.133,54.633 256.267,54.367 256.400,54.100 256.100,53.867 255.800,53.633 255.500,53.400 255.400,53.300 252.600,51.200 253.800,46.100 255.400,45.633 257.000,45.167 258.600,44.700 260.700,44.100 262.900,45.500 263.600,47.900 263.600,47.933 263.600,47.967 263.600,48.000 263.800,48.800 263.900,49.600 263.700,50.400 263.200,50.900 261.900,52.300 260.700,53.500 259.133,53.967 257.567,54.433 256.000,54.900 256.000,54.900 256.000,54.900 256.000,54.900 Z M 246.600,58.600 C 246.700,58.800 246.500,59.000 246.400,59.000 246.200,59.100 246.000,58.900 246.000,58.800 245.900,58.600 246.100,58.400 246.200,58.400 246.300,58.300 246.500,58.400 246.600,58.600 246.600,58.600 246.600,58.600 246.600,58.600 Z M 247.400,65.500 C 247.500,66.200 248.400,76.100 248.600,78.600 248.600,78.733 248.600,78.867 248.600,79.000 248.700,79.100 248.800,79.200 248.900,79.300 249.500,80.000 250.100,81.600 250.700,83.000 250.133,83.167 249.567,83.333 249.000,83.500 249.033,83.633 249.067,83.767 249.100,83.900 243.733,85.500 238.367,87.100 233.000,88.700 232.967,88.567 232.933,88.433 232.900,88.300 232.100,88.533 231.300,88.767 230.500,89.000 228.600,89.600 227.400,88.600 227.100,88.300 226.900,87.900 226.400,86.400 225.700,82.300 225.200,79.800 225.800,73.200 227.100,64.100 227.100,64.067 227.100,64.033 227.100,64.000 227.567,63.000 228.033,62.000 228.500,61.000 228.767,57.867 229.033,54.733 229.300,51.600 229.767,51.467 230.233,51.333 230.700,51.200 230.800,51.567 230.900,51.933 231.000,52.300 231.600,54.400 233.200,54.300 234.200,54.000 237.500,53.033 240.800,52.067 244.100,51.100 244.100,51.900 244.200,52.800 244.400,53.600 244.800,54.900 245.500,56.100 246.400,57.000 246.200,57.000 245.900,57.000 245.700,57.100 244.800,57.400 244.200,58.300 244.500,59.300 244.800,60.200 245.700,60.800 246.700,60.500 247.600,60.200 248.200,59.300 247.900,58.300 247.900,58.200 247.900,58.200 247.800,58.100 248.800,58.700 249.900,59.000 251.000,59.000 247.700,60.700 247.200,63.900 247.400,65.500 247.400,65.500 247.400,65.500 247.400,65.500 Z M 220.300,54.800 C 220.200,54.800 220.100,54.800 220.000,54.800 219.500,54.933 219.000,55.067 218.500,55.200 218.233,54.233 217.967,53.267 217.700,52.300 218.500,52.067 219.300,51.833 220.100,51.600 220.333,51.533 220.567,51.467 220.800,51.400 222.800,50.833 224.800,50.267 226.800,49.700 226.533,52.667 226.267,55.633 226.000,58.600 224.400,55.700 221.700,55.000 220.300,54.800 220.300,54.800 220.300,54.800 220.300,54.800 Z M 213.300,49.000 C 212.833,47.433 212.367,45.867 211.900,44.300 212.467,44.133 213.033,43.967 213.600,43.800 214.067,45.367 214.533,46.933 215.000,48.500 214.433,48.667 213.867,48.833 213.300,49.000 213.300,49.000 213.300,49.000 213.300,49.000 Z M 212.700,53.600 C 212.067,53.800 211.433,54.000 210.800,54.200 209.467,49.600 208.133,45.000 206.800,40.400 207.433,40.200 208.067,40.000 208.700,39.800 209.167,41.433 209.633,43.067 210.100,44.700 210.233,44.667 210.367,44.633 210.500,44.600 210.967,46.167 211.433,47.733 211.900,49.300 211.767,49.333 211.633,49.367 211.500,49.400 211.900,50.800 212.300,52.200 212.700,53.600 212.700,53.600 212.700,53.600 212.700,53.600 Z M 231.800,40.300 C 232.400,35.833 233.000,31.367 233.600,26.900 233.833,26.833 234.067,26.767 234.300,26.700 233.700,31.167 233.100,35.633 232.500,40.100 232.267,40.167 232.033,40.233 231.800,40.300 231.800,40.300 231.800,40.300 231.800,40.300 Z M 227.000,41.600 C 227.600,37.133 228.200,32.667 228.800,28.200 229.033,28.133 229.267,28.067 229.500,28.000 228.900,32.467 228.300,36.933 227.700,41.400 227.467,41.467 227.233,41.533 227.000,41.600 227.000,41.600 227.000,41.600 227.000,41.600 Z M 222.300,43.000 C 222.900,38.533 223.500,34.067 224.100,29.600 224.333,29.533 224.567,29.467 224.800,29.400 224.200,33.867 223.600,38.333 223.000,42.800 222.767,42.867 222.533,42.933 222.300,43.000 222.300,43.000 222.300,43.000 222.300,43.000 Z M 219.500,47.100 C 219.333,46.533 219.167,45.967 219.000,45.400 219.533,45.233 220.067,45.067 220.600,44.900 221.800,44.567 223.000,44.233 224.200,43.900 224.600,43.800 225.000,43.700 225.400,43.600 226.600,43.267 227.800,42.933 229.000,42.600 229.400,42.500 229.800,42.400 230.200,42.300 231.400,41.967 232.600,41.633 233.800,41.300 258.800,34.067 283.800,26.833 308.800,19.600 308.933,20.100 309.067,20.600 309.200,21.100 309.233,21.167 309.267,21.233 309.300,21.300 279.367,29.900 249.433,38.500 219.500,47.100 219.500,47.100 219.500,47.100 219.500,47.100 Z M 216.300,48.100 C 215.833,46.533 215.367,44.967 214.900,43.400 215.033,43.367 215.167,43.333 215.300,43.300 214.833,41.700 214.367,40.100 213.900,38.500 214.433,38.333 214.967,38.167 215.500,38.000 216.133,40.167 216.767,42.333 217.400,44.500 217.833,45.933 218.267,47.367 218.700,48.800 218.867,49.367 219.033,49.933 219.200,50.500 218.600,50.667 218.000,50.833 217.400,51.000 217.133,50.033 216.867,49.067 216.600,48.100 216.500,48.100 216.400,48.100 216.300,48.100 216.300,48.100 216.300,48.100 216.300,48.100 Z M 220.400,50.100 C 220.233,49.533 220.067,48.967 219.900,48.400 235.400,43.933 250.900,39.467 266.400,35.000 266.567,35.567 266.733,36.133 266.900,36.700 251.400,41.167 235.900,45.633 220.400,50.100 220.400,50.100 220.400,50.100 220.400,50.100 Z M 241.600,47.900 C 239.167,48.600 236.733,49.300 234.300,50.000 234.300,50.000 234.200,49.900 234.200,49.800 235.233,49.500 236.267,49.200 237.300,48.900 238.733,48.467 240.167,48.033 241.600,47.600 241.600,47.800 241.600,47.900 241.600,47.900 241.600,47.900 241.600,47.900 241.600,47.900 Z M 233.700,51.300 C 233.700,51.300 233.700,51.300 233.700,51.300 233.700,51.300 233.700,51.300 233.700,51.300 233.700,51.300 233.700,51.300 233.700,51.300 233.700,51.300 233.700,51.300 233.700,51.300 Z M 293.900,12.400 C 276.700,17.400 259.500,22.400 242.300,27.400 242.467,26.800 242.633,26.200 242.800,25.600 259.200,20.833 275.600,16.067 292.000,11.300 292.633,11.667 293.267,12.033 293.900,12.400 293.900,12.400 293.900,12.400 293.900,12.400 Z M 219.100,27.800 C 220.000,27.533 220.900,27.267 221.800,27.000 223.333,25.700 224.867,24.400 226.400,23.100 237.567,19.867 248.733,16.633 259.900,13.400 261.367,13.833 262.833,14.267 264.300,14.700 274.167,11.833 284.033,8.967 293.900,6.100 293.933,6.233 293.967,6.367 294.000,6.500 294.167,6.600 294.333,6.700 294.500,6.800 294.867,8.100 295.233,9.400 295.600,10.700 295.167,10.833 294.733,10.967 294.300,11.100 293.567,10.667 292.833,10.233 292.100,9.800 275.233,14.700 258.367,19.600 241.500,24.500 241.067,26.133 240.633,27.767 240.200,29.400 260.867,23.433 281.533,17.467 302.200,11.500 302.467,11.667 302.733,11.833 303.000,12.000 304.733,11.500 306.467,11.000 308.200,10.500 308.467,11.367 308.733,12.233 309.000,13.100 309.133,13.067 309.267,13.033 309.400,13.000 310.067,15.267 310.733,17.533 311.400,19.800 311.267,19.833 311.133,19.867 311.000,19.900 311.100,20.267 311.200,20.633 311.300,21.000 311.067,21.067 310.833,21.133 310.600,21.200 310.533,21.000 310.467,20.800 310.400,20.600 310.133,19.667 309.867,18.733 309.600,17.800 284.367,25.100 259.133,32.400 233.900,39.700 234.567,34.733 235.233,29.767 235.900,24.800 234.700,25.133 233.500,25.467 232.300,25.800 231.633,30.767 230.967,35.733 230.300,40.700 229.900,40.800 229.500,40.900 229.100,41.000 229.767,36.033 230.433,31.067 231.100,26.100 229.900,26.433 228.700,26.767 227.500,27.100 226.833,32.067 226.167,37.033 225.500,42.000 225.100,42.100 224.700,42.200 224.300,42.300 224.967,37.333 225.633,32.367 226.300,27.400 225.100,27.733 223.900,28.067 222.700,28.400 222.033,33.367 221.367,38.333 220.700,43.300 219.967,43.500 219.233,43.700 218.500,43.900 217.800,41.433 217.100,38.967 216.400,36.500 217.300,33.600 218.200,30.700 219.100,27.800 219.100,27.800 219.100,27.800 219.100,27.800 Z M 300.600,10.500 C 299.467,10.833 298.333,11.167 297.200,11.500 296.867,10.300 296.533,9.100 296.200,7.900 297.667,8.767 299.133,9.633 300.600,10.500 300.600,10.500 300.600,10.500 300.600,10.500 Z M 311.000,9.600 C 310.733,8.733 310.467,7.867 310.200,7.000 307.967,7.667 305.733,8.333 303.500,9.000 301.133,7.600 298.767,6.200 296.400,4.800 296.200,4.133 296.000,3.467 295.800,2.800 285.300,5.833 274.800,8.867 264.300,11.900 262.833,11.467 261.367,11.033 259.900,10.600 248.267,13.933 236.633,17.267 225.000,20.600 223.467,21.900 221.933,23.200 220.400,24.500 219.200,24.833 218.000,25.167 216.800,25.500 215.833,28.833 214.867,32.167 213.900,35.500 212.800,35.833 211.700,36.167 210.600,36.500 210.600,36.467 210.600,36.433 210.600,36.400 208.200,37.100 205.800,37.800 203.400,38.500 205.233,44.867 207.067,51.233 208.900,57.600 211.167,56.933 213.433,56.267 215.700,55.600 216.000,56.600 216.300,57.600 216.600,58.600 217.800,58.233 219.000,57.867 220.200,57.500 222.800,57.900 224.200,59.900 224.300,63.400 224.300,63.467 224.300,63.533 224.300,63.600 223.300,70.300 222.300,79.100 222.900,82.700 223.900,88.100 224.500,89.400 224.700,89.700 224.733,89.767 224.767,89.833 224.800,89.900 224.900,90.000 227.000,92.600 230.900,91.700 231.067,92.233 231.233,92.767 231.400,93.300 238.533,91.233 245.667,89.167 252.800,87.100 252.633,86.567 252.467,86.033 252.300,85.500 252.900,85.333 253.500,85.167 254.100,85.000 253.967,84.567 253.833,84.133 253.700,83.700 253.600,83.300 252.500,79.900 251.300,78.200 251.000,75.000 250.100,65.500 250.100,65.400 250.100,65.367 250.100,65.333 250.100,65.300 250.100,65.200 249.600,62.200 253.300,61.100 253.300,61.100 253.300,61.100 253.400,61.100 255.400,60.600 258.600,59.700 259.200,59.500 260.000,59.400 264.900,58.800 267.600,58.500 269.400,58.300 270.200,57.300 270.600,56.500 271.500,54.800 271.100,52.300 269.500,49.400 268.800,48.100 268.500,45.800 268.400,44.600 268.800,43.600 269.600,42.400 270.100,42.200 278.600,39.733 287.100,37.267 295.600,34.800 295.667,35.000 295.733,35.200 295.800,35.400 297.467,35.933 299.133,36.467 300.800,37.000 301.767,36.733 302.733,36.467 303.700,36.200 304.900,34.833 306.100,33.467 307.300,32.100 307.233,31.900 307.167,31.700 307.100,31.500 308.300,31.133 309.500,30.767 310.700,30.400 310.600,30.033 310.500,29.667 310.400,29.300 310.600,29.200 310.800,29.100 311.000,29.000 312.400,28.600 316.200,27.500 315.000,23.500 314.833,22.933 314.667,22.367 314.500,21.800 315.800,21.433 317.100,21.067 318.400,20.700 317.233,16.667 316.067,12.633 314.900,8.600 313.600,8.933 312.300,9.267 311.000,9.600 311.000,9.600 311.000,9.600 311.000,9.600 Z " />
  <path stroke="none" fill="none" d="M 155.100,28.200 C 155.733,32.667 156.367,37.133 157.000,41.600 156.767,41.533 156.533,41.467 156.300,41.400 155.667,36.933 155.033,32.467 154.400,28.000 154.633,28.067 154.867,28.133 155.100,28.200 Z " />
  <path stroke="none" fill="none" d="M 165.000,50.500 C 165.133,49.933 165.267,49.367 165.400,48.800 165.833,47.367 166.267,45.933 166.700,44.500 167.333,42.333 167.967,40.167 168.600,38.000 169.100,38.167 169.600,38.333 170.100,38.500 169.633,40.100 169.167,41.700 168.700,43.300 168.833,43.333 168.967,43.367 169.100,43.400 168.633,44.967 168.167,46.533 167.700,48.100 167.667,48.100 167.633,48.100 167.600,48.100 167.300,49.067 167.000,50.033 166.700,51.000 166.133,50.833 165.567,50.667 165.000,50.500 Z " />
  <path stroke="none" fill="none" d="M 74.900,20.900 C 75.033,20.400 75.167,19.900 75.300,19.400 100.300,26.633 125.300,33.867 150.300,41.100 151.500,41.467 152.700,41.833 153.900,42.200 154.267,42.300 154.633,42.400 155.000,42.500 156.200,42.867 157.400,43.233 158.600,43.600 159.000,43.700 159.400,43.800 159.800,43.900 161.000,44.233 162.200,44.567 163.400,44.900 163.933,45.067 164.467,45.233 165.000,45.400 164.833,45.967 164.667,46.533 164.500,47.100 134.600,38.433 104.700,29.767 74.800,21.100 74.833,21.033 74.867,20.967 74.900,20.900 Z " />
  <path stroke="none" fill="none" d="M 169.050,48.503 C 169.505,46.934 169.959,45.365 170.413,43.796 170.990,43.963 171.566,44.130 172.142,44.297 171.688,45.866 171.234,47.435 170.779,49.004 170.203,48.837 169.627,48.670 169.050,48.503 Z " />
  <path stroke="none" fill="none" d="M 173.400,44.600 C 173.533,44.667 173.667,44.733 173.800,44.800 174.300,43.167 174.800,41.533 175.300,39.900 175.933,40.067 176.567,40.233 177.200,40.400 175.867,45.000 174.533,49.600 173.200,54.200 172.567,54.000 171.933,53.800 171.300,53.600 171.700,52.233 172.100,50.867 172.500,49.500 172.367,49.467 172.233,49.433 172.100,49.400 172.533,47.800 172.967,46.200 173.400,44.600 Z " />
  <path stroke="none" fill="none" d="M 150.400,26.800 C 151.000,31.300 151.600,35.800 152.200,40.300 151.967,40.233 151.733,40.167 151.500,40.100 150.900,35.600 150.300,31.100 149.700,26.600 149.933,26.667 150.167,26.733 150.400,26.800 Z " />
  <path stroke="none" fill="none" d="M 86.700,11.400 C 85.600,11.100 84.500,10.800 83.400,10.500 84.867,9.633 86.333,8.767 87.800,7.900 87.433,9.067 87.067,10.233 86.700,11.400 Z " />
  <path stroke="none" fill="none" d="M 165.400,44.100 C 164.667,43.867 163.933,43.633 163.200,43.400 162.500,38.433 161.800,33.467 161.100,28.500 159.900,28.167 158.700,27.833 157.500,27.500 158.200,32.467 158.900,37.433 159.600,42.400 159.200,42.300 158.800,42.200 158.400,42.100 157.733,37.133 157.067,32.167 156.400,27.200 155.200,26.833 154.000,26.467 152.800,26.100 153.467,31.067 154.133,36.033 154.800,41.000 154.433,40.900 154.067,40.800 153.700,40.700 153.000,35.733 152.300,30.767 151.600,25.800 150.400,25.433 149.200,25.067 148.000,24.700 148.700,29.667 149.400,34.633 150.100,39.600 124.867,32.300 99.633,25.000 74.400,17.700 74.100,18.633 73.800,19.567 73.500,20.500 73.467,20.700 73.433,20.900 73.400,21.100 73.133,21.033 72.867,20.967 72.600,20.900 72.700,20.533 72.800,20.167 72.900,19.800 72.767,19.767 72.633,19.733 72.500,19.700 73.167,17.433 73.833,15.167 74.500,12.900 74.633,12.933 74.767,12.967 74.900,13.000 75.167,12.133 75.433,11.267 75.700,10.400 77.433,10.900 79.167,11.400 80.900,11.900 81.167,11.733 81.433,11.567 81.700,11.400 102.367,17.400 123.033,23.400 143.700,29.400 143.267,27.733 142.833,26.067 142.400,24.400 125.533,19.533 108.667,14.667 91.800,9.800 91.067,10.233 90.333,10.667 89.600,11.100 89.200,11.000 88.800,10.900 88.400,10.800 88.767,9.467 89.133,8.133 89.500,6.800 89.667,6.700 89.833,6.600 90.000,6.500 90.033,6.367 90.067,6.233 90.100,6.100 99.967,8.967 109.833,11.833 119.700,14.700 121.200,14.267 122.700,13.833 124.200,13.400 135.333,16.633 146.467,19.867 157.600,23.100 159.133,24.400 160.667,25.700 162.200,27.000 163.100,27.267 164.000,27.533 164.900,27.800 165.767,30.767 166.633,33.733 167.500,36.700 166.800,39.167 166.100,41.633 165.400,44.100 Z " />
  <path stroke="none" fill="none" d="M 158.000,58.500 C 157.733,55.533 157.467,52.567 157.200,49.600 159.200,50.167 161.200,50.733 163.200,51.300 163.433,51.367 163.667,51.433 163.900,51.500 164.700,51.733 165.500,51.967 166.300,52.200 166.033,53.167 165.767,54.133 165.500,55.100 165.000,54.967 164.500,54.833 164.000,54.700 163.900,54.700 163.800,54.700 163.700,54.700 162.300,55.000 159.600,55.700 158.000,58.500 158.000,58.500 158.000,58.500 158.000,58.500 Z " />
  <path stroke="none" fill="none" d="M 117.125,36.578 C 117.283,36.033 117.440,35.489 117.598,34.945 133.094,39.433 148.590,43.921 164.086,48.410 163.928,48.954 163.771,49.498 163.613,50.043 148.117,45.554 132.621,41.066 117.125,36.578 Z " />
  <path stroke="none" fill="none" d="M 141.300,25.500 C 141.467,26.133 141.633,26.767 141.800,27.400 124.567,22.400 107.333,17.400 90.100,12.400 90.733,12.033 91.367,11.667 92.000,11.300 108.433,16.033 124.867,20.767 141.300,25.500 Z " />
  <path stroke="none" fill="none" d="M 149.800,49.800 C 149.800,49.900 149.700,50.000 149.700,50.000 147.267,49.300 144.833,48.600 142.400,47.900 142.400,47.800 142.400,47.800 142.400,47.700 143.833,48.133 145.267,48.567 146.700,49.000 147.733,49.267 148.767,49.533 149.800,49.800 149.800,49.800 149.800,49.800 149.800,49.800 Z " />
  <path stroke="none" fill="none" d="M 150.300,51.300 C 150.300,51.300 150.300,51.300 150.300,51.300 150.300,51.300 150.300,51.300 150.300,51.300 150.300,51.300 150.300,51.300 150.300,51.300 150.300,51.300 150.300,51.300 150.300,51.300 Z " />
  <path stroke="none" fill="none" d="M 159.900,29.600 C 160.500,34.067 161.100,38.533 161.700,43.000 161.467,42.933 161.233,42.867 161.000,42.800 160.400,38.333 159.800,33.867 159.200,29.400 159.433,29.467 159.667,29.533 159.900,29.600 Z " />
  <path stroke="none" fill="none" d="M 74.300,22.800 C 74.333,22.667 74.367,22.533 74.400,22.400 88.367,26.433 102.333,30.467 116.300,34.500 116.000,35.500 115.700,36.500 115.400,37.500 126.033,40.567 136.667,43.633 147.300,46.700 147.233,46.967 147.167,47.233 147.100,47.500 145.200,46.967 143.300,46.433 141.400,45.900 141.333,46.100 141.267,46.300 141.200,46.500 141.100,46.800 140.800,47.800 141.200,48.500 140.500,48.300 139.800,48.100 139.100,47.900 138.300,46.300 136.900,45.100 135.200,44.600 132.167,43.733 129.133,42.867 126.100,42.000 124.300,41.500 122.400,41.800 120.900,42.800 121.200,41.800 120.600,40.700 119.600,40.400 118.600,40.100 117.600,40.600 117.300,41.600 116.700,40.600 115.800,39.600 114.600,39.200 105.800,36.667 97.000,34.133 88.200,31.600 88.300,31.300 88.400,31.000 88.500,30.700 85.300,29.800 82.100,28.900 78.900,28.000 78.800,28.300 78.700,28.600 78.600,28.900 77.967,28.700 77.333,28.500 76.700,28.300 76.800,27.933 76.900,27.567 77.000,27.200 75.900,26.900 74.800,26.600 73.700,26.300 71.200,25.600 71.300,25.100 71.600,24.200 71.800,23.533 72.000,22.867 72.200,22.200 72.900,22.400 73.600,22.600 74.300,22.800 74.300,22.800 74.300,22.800 74.300,22.800 Z " />
  <path stroke="none" fill="none" d="M 86.400,31.600 C 86.267,32.067 86.133,32.533 86.000,33.000 85.467,33.167 84.933,33.333 84.400,33.500 84.500,33.400 84.500,33.300 84.600,33.100 84.900,32.100 84.300,31.100 83.400,30.800 82.400,30.500 81.400,31.100 81.100,32.000 81.100,32.100 81.000,32.200 81.000,32.400 80.633,31.967 80.267,31.533 79.900,31.100 80.033,30.633 80.167,30.167 80.300,29.700 82.333,30.333 84.367,30.967 86.400,31.600 86.400,31.600 86.400,31.600 86.400,31.600 Z " />
  <path stroke="none" fill="none" d="M 83.300,32.600 C 83.300,32.876 83.076,33.100 82.800,33.100 82.524,33.100 82.300,32.876 82.300,32.600 82.300,32.324 82.524,32.100 82.800,32.100 83.076,32.100 83.300,32.324 83.300,32.600 83.300,32.600 83.300,32.600 83.300,32.600 Z " />
  <path stroke="none" fill="none" d="M 119.200,41.900 C 119.500,42.000 119.700,42.300 119.600,42.600 119.500,42.900 119.200,43.100 118.900,43.000 118.600,42.900 118.400,42.600 118.500,42.300 118.600,42.000 118.900,41.800 119.200,41.900 119.200,41.900 119.200,41.900 119.200,41.900 Z " />
  <path stroke="none" fill="none" d="M 69.066,18.662 C 69.725,16.389 70.383,14.116 71.041,11.842 71.778,12.056 72.514,12.269 73.251,12.482 72.592,14.755 71.934,17.029 71.275,19.302 70.539,19.088 69.803,18.875 69.066,18.662 Z " />
  <path stroke="none" fill="none" d="M 134.000,47.300 C 134.000,48.000 134.000,49.000 133.800,50.200 133.700,51.000 133.500,52.100 132.300,53.000 133.000,51.600 133.500,49.600 133.200,47.000 133.467,47.100 133.733,47.200 134.000,47.300 134.000,47.300 134.000,47.300 134.000,47.300 Z " />
  <path stroke="none" fill="none" d="M 138.100,58.800 C 138.000,59.000 137.800,59.100 137.700,59.000 137.500,58.900 137.400,58.700 137.500,58.600 137.600,58.500 137.800,58.300 137.900,58.400 138.000,58.400 138.200,58.600 138.100,58.800 138.100,58.800 138.100,58.800 138.100,58.800 Z " />
  <path stroke="none" fill="none" d="M 136.200,58.100 C 136.200,58.200 136.100,58.200 136.100,58.300 135.800,59.200 136.400,60.200 137.300,60.500 138.200,60.800 139.200,60.200 139.500,59.300 139.800,58.400 139.200,57.400 138.300,57.100 138.100,57.000 137.800,57.000 137.600,57.000 138.500,56.100 139.200,55.000 139.600,53.600 139.800,52.800 139.900,51.900 139.900,51.100 143.200,52.067 146.500,53.033 149.800,54.000 150.700,54.300 152.400,54.400 153.000,52.300 153.100,51.933 153.200,51.567 153.300,51.200 153.767,51.333 154.233,51.467 154.700,51.600 154.967,54.733 155.233,57.867 155.500,61.000 155.967,62.000 156.433,63.000 156.900,64.000 156.900,64.033 156.900,64.067 156.900,64.100 158.200,73.200 158.800,79.800 158.300,82.300 157.500,86.500 157.000,87.900 156.900,88.300 156.600,88.600 155.400,89.500 153.500,89.000 152.700,88.767 151.900,88.533 151.100,88.300 151.067,88.433 151.033,88.567 151.000,88.700 145.633,87.133 140.267,85.567 134.900,84.000 134.933,83.867 134.967,83.733 135.000,83.600 134.433,83.433 133.867,83.267 133.300,83.100 133.800,81.700 134.500,80.100 135.100,79.400 135.200,79.300 135.300,79.200 135.400,79.100 135.400,78.967 135.400,78.833 135.400,78.700 135.600,76.100 136.500,66.300 136.600,65.600 136.900,63.900 136.300,60.700 133.000,59.000 134.100,58.900 135.200,58.600 136.200,58.100 136.200,58.100 136.200,58.100 136.200,58.100 Z " />
  <path stroke="none" fill="none" d="M 118.500,44.300 C 118.800,44.400 119.000,44.400 119.300,44.400 118.800,44.900 118.400,45.600 118.100,46.300 118.300,45.300 118.300,44.600 118.300,44.400 118.300,44.367 118.300,44.333 118.300,44.300 118.400,44.200 118.400,44.200 118.500,44.300 118.500,44.300 118.500,44.300 118.500,44.300 Z " />
  <path stroke="none" fill="none" d="M 120.200,50.400 C 120.000,49.600 120.100,48.800 120.300,48.000 120.300,47.967 120.300,47.933 120.300,47.900 121.000,45.500 123.200,44.100 125.300,44.700 126.900,45.167 128.500,45.633 130.100,46.100 131.300,51.200 128.600,53.300 128.400,53.400 128.100,53.633 127.800,53.867 127.500,54.100 127.633,54.367 127.767,54.633 127.900,54.900 126.300,54.433 124.700,53.967 123.100,53.500 122.000,52.300 120.700,50.900 120.200,50.400 120.200,50.400 120.200,50.400 120.200,50.400 Z " />
  <path stroke="none" fill="none" d="M 117.400,49.200 C 117.400,49.900 117.400,50.700 117.600,51.400 117.633,51.500 117.667,51.600 117.700,51.700 117.767,51.767 117.833,51.833 117.900,51.900 118.300,52.400 120.800,55.000 121.500,55.800 121.600,55.900 121.700,56.000 121.800,56.100 122.267,56.233 122.733,56.367 123.200,56.500 121.300,56.300 118.600,55.900 116.800,55.700 116.100,55.600 115.900,55.300 115.900,55.200 115.600,54.600 115.700,53.000 117.000,50.600 117.000,50.100 117.200,49.700 117.400,49.200 117.400,49.200 117.400,49.200 117.400,49.200 Z " />
  <path stroke="none" fill="none" d="M 136.700,49.400 C 137.200,50.400 137.300,51.600 137.000,52.800 136.300,55.100 134.400,56.400 132.400,56.100 135.900,54.300 136.300,51.800 136.600,50.500 136.600,50.200 136.600,49.800 136.700,49.400 136.700,49.400 136.700,49.400 136.700,49.400 Z " />
  <path stroke="#ffffffff" fill="none" stroke-width="0" d="M 134.000,46.300 C 134.000,46.300 134.000,46.300 134.000,46.300 " />
  <path stroke="none" fill="#ffffffff" d="M 71.000,11.900 C 71.733,12.100 72.467,12.300 73.200,12.500 72.533,14.767 71.867,17.033 71.200,19.300 70.467,19.100 69.733,18.900 69.000,18.700 69.667,16.433 70.333,14.167 71.000,11.900 71.000,11.900 71.000,11.900 71.000,11.900 Z M 71.700,24.200 C 71.900,23.533 72.100,22.867 72.300,22.200 73.000,22.400 73.700,22.600 74.400,22.800 74.433,22.667 74.467,22.533 74.500,22.400 88.467,26.433 102.433,30.467 116.400,34.500 116.100,35.500 115.800,36.500 115.500,37.500 126.133,40.567 136.767,43.633 147.400,46.700 147.333,46.967 147.267,47.233 147.200,47.500 145.300,46.967 143.400,46.433 141.500,45.900 141.433,46.100 141.367,46.300 141.300,46.500 141.200,46.800 140.900,47.800 141.300,48.500 140.600,48.300 139.900,48.100 139.200,47.900 138.400,46.300 137.000,45.100 135.300,44.600 132.267,43.733 129.233,42.867 126.200,42.000 124.400,41.500 122.500,41.800 121.000,42.800 121.300,41.800 120.700,40.700 119.700,40.400 118.700,40.100 117.700,40.600 117.400,41.600 116.800,40.600 115.900,39.600 114.700,39.200 105.900,36.667 97.100,34.133 88.300,31.600 88.400,31.300 88.500,31.000 88.600,30.700 85.367,29.800 82.133,28.900 78.900,28.000 78.800,28.300 78.700,28.600 78.600,28.900 77.967,28.700 77.333,28.500 76.700,28.300 76.800,27.933 76.900,27.567 77.000,27.200 75.900,26.900 74.800,26.600 73.700,26.300 71.300,25.600 71.400,25.100 71.700,24.200 71.700,24.200 71.700,24.200 71.700,24.200 Z M 79.900,31.200 C 80.033,30.733 80.167,30.267 80.300,29.800 82.333,30.400 84.367,31.000 86.400,31.600 86.267,32.067 86.133,32.533 86.000,33.000 85.467,33.167 84.933,33.333 84.400,33.500 84.500,33.400 84.500,33.300 84.600,33.100 84.900,32.100 84.300,31.100 83.400,30.800 82.400,30.500 81.400,31.100 81.100,32.000 81.100,32.100 81.000,32.200 81.000,32.400 80.633,32.000 80.267,31.600 79.900,31.200 79.900,31.200 79.900,31.200 79.900,31.200 Z M 82.700,33.100 C 82.500,33.000 82.300,32.800 82.400,32.500 82.500,32.200 82.700,32.100 83.000,32.200 83.200,32.300 83.400,32.500 83.300,32.800 83.200,33.000 82.900,33.100 82.700,33.100 82.700,33.100 82.700,33.100 82.700,33.100 Z M 118.500,42.300 C 118.600,42.000 118.900,41.800 119.200,41.900 119.500,42.000 119.700,42.300 119.600,42.600 119.500,42.900 119.200,43.100 118.900,43.000 118.600,42.800 118.400,42.500 118.500,42.300 118.500,42.300 118.500,42.300 118.500,42.300 Z M 118.300,44.300 C 118.300,44.300 118.300,44.300 118.300,44.300 118.400,44.200 118.400,44.300 118.500,44.300 118.800,44.400 119.000,44.400 119.300,44.400 118.800,44.900 118.400,45.600 118.100,46.300 118.200,45.200 118.300,44.400 118.300,44.300 118.300,44.300 118.300,44.300 118.300,44.300 Z M 116.800,50.500 C 117.000,50.100 117.200,49.700 117.300,49.200 117.300,49.900 117.300,50.700 117.500,51.400 117.533,51.500 117.567,51.600 117.600,51.700 117.667,51.767 117.733,51.833 117.800,51.900 118.200,52.400 120.700,55.000 121.400,55.800 121.500,55.900 121.600,56.000 121.700,56.100 122.167,56.233 122.633,56.367 123.100,56.500 121.200,56.300 118.500,55.900 116.700,55.700 116.000,55.600 115.800,55.300 115.800,55.200 115.400,54.400 115.600,52.900 116.800,50.500 116.800,50.500 116.800,50.500 116.800,50.500 Z M 136.500,50.600 C 136.600,50.200 136.600,49.800 136.700,49.400 137.200,50.400 137.300,51.600 137.000,52.800 136.300,55.100 134.400,56.400 132.400,56.100 135.900,54.400 136.300,51.900 136.500,50.600 136.500,50.600 136.500,50.600 136.500,50.600 Z M 134.000,46.300 C 134.000,46.300 134.000,46.300 134.000,46.300 134.000,46.300 134.000,46.300 134.000,46.300 134.000,46.300 134.000,46.300 134.000,46.300 Z M 133.100,47.000 C 133.400,47.100 133.700,47.200 134.000,47.300 134.000,48.000 134.000,49.000 133.800,50.200 133.700,51.000 133.500,52.100 132.300,53.000 133.000,51.600 133.500,49.600 133.100,47.000 133.100,47.000 133.100,47.000 133.100,47.000 Z M 123.200,53.500 C 122.000,52.200 120.700,50.900 120.200,50.400 120.000,49.600 120.100,48.800 120.300,48.000 120.300,47.967 120.300,47.933 120.300,47.900 121.000,45.500 123.200,44.100 125.300,44.700 126.900,45.167 128.500,45.633 130.100,46.100 131.300,51.200 128.600,53.300 128.400,53.400 128.100,53.633 127.800,53.867 127.500,54.100 127.633,54.367 127.767,54.633 127.900,54.900 126.333,54.433 124.767,53.967 123.200,53.500 123.200,53.500 123.200,53.500 123.200,53.500 Z M 137.900,58.400 C 138.100,58.500 138.200,58.700 138.100,58.800 138.000,59.000 137.800,59.100 137.700,59.000 137.500,58.900 137.400,58.700 137.500,58.600 137.600,58.500 137.700,58.300 137.900,58.400 137.900,58.400 137.900,58.400 137.900,58.400 Z M 132.900,59.000 C 134.000,59.000 135.100,58.700 136.100,58.100 136.100,58.200 136.000,58.200 136.000,58.300 135.700,59.200 136.300,60.200 137.200,60.500 138.100,60.800 139.100,60.200 139.400,59.300 139.700,58.400 139.100,57.400 138.200,57.100 138.000,57.000 137.700,57.000 137.500,57.000 138.400,56.100 139.100,55.000 139.500,53.600 139.700,52.800 139.800,51.900 139.800,51.100 143.100,52.067 146.400,53.033 149.700,54.000 150.600,54.300 152.300,54.400 152.900,52.300 153.000,51.933 153.100,51.567 153.200,51.200 153.667,51.333 154.133,51.467 154.600,51.600 154.867,54.733 155.133,57.867 155.400,61.000 155.867,62.000 156.333,63.000 156.800,64.000 156.800,64.033 156.800,64.067 156.800,64.100 158.100,73.200 158.700,79.800 158.200,82.300 157.400,86.500 156.900,87.900 156.800,88.300 156.500,88.600 155.300,89.500 153.400,89.000 152.600,88.767 151.800,88.533 151.000,88.300 150.967,88.433 150.933,88.567 150.900,88.700 145.567,87.133 140.233,85.567 134.900,84.000 134.933,83.867 134.967,83.733 135.000,83.600 134.433,83.433 133.867,83.267 133.300,83.100 133.800,81.700 134.500,80.100 135.100,79.400 135.200,79.300 135.300,79.200 135.400,79.100 135.400,78.967 135.400,78.833 135.400,78.700 135.600,76.100 136.500,66.300 136.600,65.600 136.800,63.900 136.300,60.700 132.900,59.000 132.900,59.000 132.900,59.000 132.900,59.000 Z M 158.000,58.500 C 157.733,55.533 157.467,52.567 157.200,49.600 159.200,50.167 161.200,50.733 163.200,51.300 163.433,51.367 163.667,51.433 163.900,51.500 164.700,51.733 165.500,51.967 166.300,52.200 166.033,53.167 165.767,54.133 165.500,55.100 165.000,54.967 164.500,54.833 164.000,54.700 163.900,54.700 163.800,54.700 163.700,54.700 162.300,55.000 159.600,55.700 158.000,58.500 158.000,58.500 158.000,58.500 158.000,58.500 Z M 169.000,48.500 C 169.467,46.933 169.933,45.367 170.400,43.800 170.967,43.967 171.533,44.133 172.100,44.300 171.633,45.867 171.167,47.433 170.700,49.000 170.133,48.833 169.567,48.667 169.000,48.500 169.000,48.500 169.000,48.500 169.000,48.500 Z M 172.500,49.500 C 172.367,49.467 172.233,49.433 172.100,49.400 172.567,47.833 173.033,46.267 173.500,44.700 173.633,44.733 173.767,44.767 173.900,44.800 174.367,43.167 174.833,41.533 175.300,39.900 175.933,40.100 176.567,40.300 177.200,40.500 175.867,45.100 174.533,49.700 173.200,54.300 172.567,54.100 171.933,53.900 171.300,53.700 171.700,52.300 172.100,50.900 172.500,49.500 172.500,49.500 172.500,49.500 172.500,49.500 Z M 151.500,40.100 C 150.900,35.633 150.300,31.167 149.700,26.700 149.933,26.767 150.167,26.833 150.400,26.900 151.000,31.367 151.600,35.833 152.200,40.300 151.967,40.233 151.733,40.167 151.500,40.100 151.500,40.100 151.500,40.100 151.500,40.100 Z M 156.300,41.400 C 155.667,36.933 155.033,32.467 154.400,28.000 154.633,28.067 154.867,28.133 155.100,28.200 155.700,32.667 156.300,37.133 156.900,41.600 156.700,41.533 156.500,41.467 156.300,41.400 156.300,41.400 156.300,41.400 156.300,41.400 Z M 161.000,42.800 C 160.400,38.333 159.800,33.867 159.200,29.400 159.433,29.467 159.667,29.533 159.900,29.600 160.500,34.067 161.100,38.533 161.700,43.000 161.467,42.933 161.233,42.867 161.000,42.800 161.000,42.800 161.000,42.800 161.000,42.800 Z M 74.800,21.100 C 74.833,21.033 74.867,20.967 74.900,20.900 75.033,20.400 75.167,19.900 75.300,19.400 100.300,26.633 125.300,33.867 150.300,41.100 151.500,41.433 152.700,41.767 153.900,42.100 154.300,42.200 154.700,42.300 155.100,42.400 156.300,42.733 157.500,43.067 158.700,43.400 159.100,43.500 159.500,43.600 159.900,43.700 161.100,44.033 162.300,44.367 163.500,44.700 164.033,44.867 164.567,45.033 165.100,45.200 164.933,45.767 164.767,46.333 164.600,46.900 134.667,38.300 104.733,29.700 74.800,21.100 74.800,21.100 74.800,21.100 74.800,21.100 Z M 167.600,48.100 C 167.333,49.067 167.067,50.033 166.800,51.000 166.200,50.833 165.600,50.667 165.000,50.500 165.167,49.933 165.333,49.367 165.500,48.800 165.933,47.367 166.367,45.933 166.800,44.500 167.433,42.333 168.067,40.167 168.700,38.000 169.233,38.167 169.767,38.333 170.300,38.500 169.833,40.100 169.367,41.700 168.900,43.300 169.033,43.333 169.167,43.367 169.300,43.400 168.833,44.967 168.367,46.533 167.900,48.100 167.800,48.100 167.700,48.100 167.600,48.100 167.600,48.100 167.600,48.100 167.600,48.100 Z M 117.100,36.600 C 117.267,36.033 117.433,35.467 117.600,34.900 133.100,39.400 148.600,43.900 164.100,48.400 163.933,48.967 163.767,49.533 163.600,50.100 148.100,45.600 132.600,41.100 117.100,36.600 117.100,36.600 117.100,36.600 117.100,36.600 Z M 142.400,47.700 C 143.833,48.133 145.267,48.567 146.700,49.000 147.733,49.300 148.767,49.600 149.800,49.900 149.800,50.000 149.700,50.100 149.700,50.100 147.267,49.400 144.833,48.700 142.400,48.000 142.400,47.900 142.400,47.800 142.400,47.700 142.400,47.700 142.400,47.700 142.400,47.700 Z M 150.300,51.300 C 150.300,51.300 150.300,51.300 150.300,51.300 150.300,51.300 150.300,51.300 150.300,51.300 150.300,51.300 150.300,51.300 150.300,51.300 150.300,51.300 150.300,51.300 150.300,51.300 Z M 92.000,11.300 C 108.433,16.067 124.867,20.833 141.300,25.600 141.467,26.200 141.633,26.800 141.800,27.400 124.600,22.400 107.400,17.400 90.200,12.400 90.800,12.033 91.400,11.667 92.000,11.300 92.000,11.300 92.000,11.300 92.000,11.300 Z M 167.500,36.700 C 166.800,39.167 166.100,41.633 165.400,44.100 164.667,43.900 163.933,43.700 163.200,43.500 162.533,38.533 161.867,33.567 161.200,28.600 160.000,28.267 158.800,27.933 157.600,27.600 158.267,32.567 158.933,37.533 159.600,42.500 159.200,42.400 158.800,42.300 158.400,42.200 157.733,37.233 157.067,32.267 156.400,27.300 155.200,26.967 154.000,26.633 152.800,26.300 153.467,31.267 154.133,36.233 154.800,41.200 154.400,41.100 154.000,41.000 153.600,40.900 152.933,35.933 152.267,30.967 151.600,26.000 150.400,25.667 149.200,25.333 148.000,25.000 148.667,29.967 149.333,34.933 150.000,39.900 124.800,32.500 99.600,25.100 74.400,17.700 74.133,18.633 73.867,19.567 73.600,20.500 73.533,20.700 73.467,20.900 73.400,21.100 73.167,21.033 72.933,20.967 72.700,20.900 72.800,20.533 72.900,20.167 73.000,19.800 72.867,19.767 72.733,19.733 72.600,19.700 73.267,17.433 73.933,15.167 74.600,12.900 74.733,12.933 74.867,12.967 75.000,13.000 75.267,12.133 75.533,11.267 75.800,10.400 77.533,10.900 79.267,11.400 81.000,11.900 81.267,11.733 81.533,11.567 81.800,11.400 102.467,17.367 123.133,23.333 143.800,29.300 143.367,27.667 142.933,26.033 142.500,24.400 125.600,19.533 108.700,14.667 91.800,9.800 91.067,10.233 90.333,10.667 89.600,11.100 89.167,10.967 88.733,10.833 88.300,10.700 88.667,9.400 89.033,8.100 89.400,6.800 89.600,6.700 89.800,6.600 90.000,6.500 90.033,6.367 90.067,6.233 90.100,6.100 99.967,8.967 109.833,11.833 119.700,14.700 121.167,14.267 122.633,13.833 124.100,13.400 135.267,16.633 146.433,19.867 157.600,23.100 159.133,24.400 160.667,25.700 162.200,27.000 163.100,27.267 164.000,27.533 164.900,27.800 165.767,30.767 166.633,33.733 167.500,36.700 167.500,36.700 167.500,36.700 167.500,36.700 Z M 87.800,7.900 C 87.467,9.100 87.133,10.300 86.800,11.500 85.667,11.167 84.533,10.833 83.400,10.500 84.867,9.633 86.333,8.767 87.800,7.900 87.800,7.900 87.800,7.900 87.800,7.900 Z M 69.100,8.500 C 67.933,12.533 66.767,16.567 65.600,20.600 66.900,20.967 68.200,21.333 69.500,21.700 69.333,22.267 69.167,22.833 69.000,23.400 67.800,27.400 71.600,28.500 73.000,28.900 73.200,28.967 73.400,29.033 73.600,29.100 73.500,29.467 73.400,29.833 73.300,30.200 74.500,30.567 75.700,30.933 76.900,31.300 76.833,31.500 76.767,31.700 76.700,31.900 77.900,33.267 79.100,34.633 80.300,36.000 81.267,36.267 82.233,36.533 83.200,36.800 84.867,36.267 86.533,35.733 88.200,35.200 88.267,35.000 88.333,34.800 88.400,34.600 96.900,37.067 105.400,39.533 113.900,42.000 114.400,42.100 115.200,43.300 115.600,44.400 115.500,45.500 115.100,47.900 114.500,49.200 112.900,52.200 112.500,54.600 113.400,56.300 113.800,57.100 114.600,58.100 116.400,58.300 119.000,58.700 123.900,59.200 124.800,59.300 125.400,59.500 128.600,60.400 130.600,60.900 130.600,60.900 130.600,60.900 130.700,60.900 134.400,62.000 133.900,64.900 133.900,65.100 133.900,65.133 133.900,65.167 133.900,65.200 133.900,65.300 133.000,74.900 132.700,78.000 131.500,79.800 130.400,83.100 130.300,83.500 130.167,83.933 130.033,84.367 129.900,84.800 130.500,84.967 131.100,85.133 131.700,85.300 131.533,85.833 131.367,86.367 131.200,86.900 138.333,88.967 145.467,91.033 152.600,93.100 152.767,92.567 152.933,92.033 153.100,91.500 157.000,92.500 159.100,89.800 159.200,89.700 159.233,89.633 159.267,89.567 159.300,89.500 159.500,89.200 160.100,87.900 161.100,82.500 161.800,78.900 160.700,70.200 159.700,63.400 159.700,63.333 159.700,63.267 159.700,63.200 159.800,59.700 161.200,57.700 163.800,57.300 165.000,57.667 166.200,58.033 167.400,58.400 167.700,57.400 168.000,56.400 168.300,55.400 170.567,56.067 172.833,56.733 175.100,57.400 176.933,51.033 178.767,44.667 180.600,38.300 178.200,37.600 175.800,36.900 173.400,36.200 173.400,36.233 173.400,36.267 173.400,36.300 172.300,35.967 171.200,35.633 170.100,35.300 169.133,31.967 168.167,28.633 167.200,25.300 166.000,24.967 164.800,24.633 163.600,24.300 162.067,23.000 160.533,21.700 159.000,20.400 147.400,17.033 135.800,13.667 124.200,10.300 122.733,10.733 121.267,11.167 119.800,11.600 109.300,8.633 98.800,5.667 88.300,2.700 88.100,3.367 87.900,4.033 87.700,4.700 85.333,6.100 82.967,7.500 80.600,8.900 78.367,8.233 76.133,7.567 73.900,6.900 73.600,7.800 73.300,8.700 73.000,9.600 71.700,9.233 70.400,8.867 69.100,8.500 69.100,8.500 69.100,8.500 69.100,8.500 Z " />
</svg>