<?xml version="1.0" encoding="UTF-8" standalone="no"?>
<!DOCTYPE svg PUBLIC "-//W3C//DTD SVG 20010904//EN" "http://www.w3.org/TR/2001/REC-SVG-20010904/DTD/svg10.dtd"[]>
<svg version="1.1" id="Frosty Editor v1.0.6.3" xmlns="http://www.w3.org/2000/svg" d1p1:xlink="http://www.w3.org/1999/xlink" viewBox="0 0 96 96" xmlns:d1p1="xmlns">
  <path stroke="none" fill="#ffffffff" d="M 45.020,61.940 C 46.173,63.333 47.327,64.727 48.480,66.120 47.687,66.263 46.893,66.407 46.100,66.550 46.090,66.540 46.080,66.530 46.070,66.520 41.760,67.320 37.450,68.120 33.140,68.920 34.120,70.103 35.100,71.287 36.080,72.470 32.160,73.397 28.240,74.323 24.320,75.250 30.370,75.583 36.420,75.917 42.470,76.250 41.317,74.857 40.163,73.463 39.010,72.070 39.807,71.923 40.603,71.777 41.400,71.630 41.410,71.643 41.420,71.657 41.430,71.670 45.737,70.870 50.043,70.070 54.350,69.270 53.370,68.087 52.390,66.903 51.410,65.720 55.333,64.793 59.257,63.867 63.180,62.940 57.127,62.607 51.073,62.273 45.020,61.940 45.020,61.940 45.020,61.940 45.020,61.940 Z " />
  <path stroke="none" fill="#ffffffff" d="M 49.470,33.060 C 48.317,31.667 47.163,30.273 46.010,28.880 46.807,28.737 47.603,28.593 48.400,28.450 48.407,28.460 48.413,28.470 48.420,28.480 52.730,27.680 57.040,26.880 61.350,26.080 60.370,24.897 59.390,23.713 58.410,22.530 62.330,21.603 66.250,20.677 70.170,19.750 64.120,19.417 58.070,19.083 52.020,18.750 53.173,20.143 54.327,21.537 55.480,22.930 54.683,23.077 53.887,23.223 53.090,23.370 53.080,23.357 53.070,23.343 53.060,23.330 48.753,24.130 44.447,24.930 40.140,25.730 41.120,26.913 42.100,28.097 43.080,29.280 39.160,30.207 35.240,31.133 31.320,32.060 37.370,32.393 43.420,32.727 49.470,33.060 49.470,33.060 49.470,33.060 49.470,33.060 Z " />
  <path stroke="none" fill="#ffffffff" d="M 53.760,49.410 C 53.123,48.913 52.487,48.417 51.850,47.920 51.853,47.903 51.857,47.887 51.860,47.870 48.397,45.183 44.933,42.497 41.470,39.810 41.237,41.330 41.003,42.850 40.770,44.370 37.473,42.057 34.177,39.743 30.880,37.430 34.653,42.170 38.427,46.910 42.200,51.650 42.473,49.863 42.747,48.077 43.020,46.290 43.657,46.787 44.293,47.283 44.930,47.780 44.927,47.797 44.923,47.813 44.920,47.830 48.383,50.517 51.847,53.203 55.310,55.890 55.543,54.370 55.777,52.850 56.010,51.330 59.307,53.643 62.603,55.957 65.900,58.270 62.127,53.530 58.353,48.790 54.580,44.050 54.307,45.837 54.033,47.623 53.760,49.410 53.760,49.410 53.760,49.410 53.760,49.410 Z " />
  <path stroke="none" fill="#ffffffff" d="M 78.000,61.200 C 78.000,64.436 75.376,67.060 72.140,67.060 68.904,67.060 66.280,64.436 66.280,61.200 66.280,57.964 68.904,55.340 72.140,55.340 75.376,55.340 78.000,57.964 78.000,61.200 78.000,61.200 78.000,61.200 78.000,61.200 Z " />
  <path stroke="none" fill="#ffffffff" d="M 29.720,35.710 C 29.720,38.946 27.096,41.570 23.860,41.570 20.624,41.570 18.000,38.946 18.000,35.710 18.000,32.474 20.624,29.850 23.860,29.850 27.096,29.850 29.720,32.474 29.720,35.710 29.720,35.710 29.720,35.710 29.720,35.710 Z " />
</svg>