<?xml version="1.0" encoding="UTF-8" standalone="no"?>
<!DOCTYPE svg PUBLIC "-//W3C//DTD SVG 20010904//EN" "http://www.w3.org/TR/2001/REC-SVG-20010904/DTD/svg10.dtd"[]>
<svg version="1.1" id="Frosty Editor v1.0.6.3" xmlns="http://www.w3.org/2000/svg" d1p1:xlink="http://www.w3.org/1999/xlink" viewBox="0 0 25 25" xmlns:d1p1="xmlns">
  <path stroke="none" fill="#ffffffff" d="M 15.160,2.571 C 12.702,2.586 12.702,2.586 12.702,2.586 10.245,2.601 10.245,2.601 10.245,2.601 10.212,2.743 10.212,2.743 10.212,2.743 10.193,2.821 10.112,2.917 10.031,2.956 9.893,3.022 7.338,3.255 6.744,3.255 6.353,3.255 6.282,3.358 6.207,4.047 6.173,4.357 6.125,4.630 6.102,4.653 6.050,4.705 6.046,4.985 6.096,5.036 6.133,5.072 6.168,5.721 6.191,6.781 6.197,7.078 6.221,7.351 6.245,7.388 6.268,7.424 6.304,7.611 6.324,7.803 6.371,8.246 6.507,8.373 6.935,8.375 7.479,8.376 9.955,8.593 10.112,8.653 10.225,8.696 10.268,8.751 10.268,8.856 10.268,8.999 10.268,8.999 10.268,8.999 8.197,8.999 8.197,8.999 8.197,8.999 6.126,8.999 6.126,8.999 6.126,8.999 6.091,9.412 6.091,9.412 6.091,9.412 6.035,10.055 6.027,12.367 6.071,15.199 6.093,16.623 6.127,18.849 6.147,20.147 6.166,21.445 6.193,22.540 6.205,22.579 6.222,22.636 6.679,22.648 8.347,22.636 10.467,22.622 10.467,22.622 10.467,22.622 10.496,21.858 10.496,21.858 10.496,21.858 10.523,21.138 10.530,21.099 10.621,21.191 10.709,21.279 10.903,21.286 12.852,21.272 14.986,21.257 14.986,21.257 14.986,21.257 15.002,21.939 15.002,21.939 15.002,21.939 15.018,22.622 15.018,22.622 15.018,22.622 17.087,22.636 17.087,22.636 17.087,22.636 18.426,22.646 19.181,22.631 19.226,22.594 19.279,22.549 19.305,21.168 19.338,16.603 19.361,13.340 19.361,10.294 19.338,9.835 19.297,8.999 19.297,8.999 19.297,8.999 17.228,8.999 17.228,8.999 17.228,8.999 15.160,8.999 15.160,8.999 15.160,8.999 15.160,8.856 15.160,8.856 15.160,8.856 15.160,8.751 15.203,8.696 15.316,8.652 15.402,8.619 16.225,8.536 17.145,8.468 18.818,8.344 18.818,8.344 18.818,8.344 18.898,8.117 18.898,8.117 18.898,8.117 19.043,7.712 19.119,3.779 18.985,3.644 18.946,3.605 18.914,3.516 18.914,3.447 18.914,3.298 19.019,3.314 16.895,3.148 16.112,3.087 15.402,3.010 15.316,2.977 15.193,2.929 15.160,2.880 15.160,2.744 Z M 6.550,3.365 C 7.836,3.365 7.836,3.365 7.836,3.365 7.836,3.529 7.836,3.529 7.836,3.529 6.550,3.529 6.550,3.529 6.550,3.529 Z M 17.268,3.365 C 18.554,3.365 18.554,3.365 18.554,3.365 18.554,3.529 18.554,3.529 18.554,3.529 17.268,3.529 17.268,3.529 17.268,3.529 Z M 6.550,3.792 C 7.836,3.792 7.836,3.792 7.836,3.792 7.836,4.031 7.836,4.031 7.836,4.031 6.550,4.031 6.550,4.031 6.550,4.031 Z M 17.268,3.792 C 18.554,3.792 18.554,3.792 18.554,3.792 18.554,4.031 18.554,4.031 18.554,4.031 17.268,4.031 17.268,4.031 17.268,4.031 Z M 6.550,4.409 C 7.836,4.409 7.836,4.409 7.836,4.409 7.836,4.792 7.836,4.792 7.836,4.792 6.550,4.792 6.550,4.792 6.550,4.792 Z M 17.268,4.409 C 18.554,4.409 18.554,4.409 18.554,4.409 18.554,4.792 18.554,4.792 18.554,4.792 17.268,4.792 17.268,4.792 17.268,4.792 Z M 10.690,4.563 C 11.014,4.563 11.014,4.563 11.014,4.563 11.014,6.269 11.014,6.269 11.014,6.269 10.690,6.269 10.690,6.269 10.690,6.269 Z M 14.373,4.563 C 14.697,4.563 14.697,4.563 14.697,4.563 14.697,6.269 14.697,6.269 14.697,6.269 14.373,6.269 14.373,6.269 14.373,6.269 Z M 6.542,5.177 C 7.827,5.177 7.827,5.177 7.827,5.177 7.827,5.653 7.827,5.653 7.827,5.653 6.542,5.653 6.542,5.653 6.542,5.653 Z M 17.260,5.177 C 18.545,5.177 18.545,5.177 18.545,5.177 18.545,5.653 18.545,5.653 18.545,5.653 17.260,5.653 17.260,5.653 17.260,5.653 Z M 6.572,5.952 C 7.857,5.952 7.857,5.952 7.857,5.952 7.857,6.428 7.857,6.428 7.857,6.428 6.572,6.428 6.572,6.428 6.572,6.428 Z M 17.290,5.952 C 18.575,5.952 18.575,5.952 18.575,5.952 18.575,6.428 18.575,6.428 18.575,6.428 17.290,6.428 17.290,6.428 17.290,6.428 Z M 6.580,6.813 C 7.866,6.813 7.866,6.813 7.866,6.813 7.866,7.197 7.866,7.197 7.866,7.197 6.580,7.197 6.580,7.197 6.580,7.197 Z M 17.298,6.813 C 18.584,6.813 18.584,6.813 18.584,6.813 18.584,7.197 18.584,7.197 18.584,7.197 17.298,7.197 17.298,7.197 17.298,7.197 Z M 6.580,7.574 C 7.866,7.574 7.866,7.574 7.866,7.574 7.866,7.813 7.866,7.813 7.866,7.813 6.580,7.813 6.580,7.813 6.580,7.813 Z M 17.298,7.574 C 18.584,7.574 18.584,7.574 18.584,7.574 18.584,7.813 18.584,7.813 18.584,7.813 17.298,7.813 17.298,7.813 17.298,7.813 Z M 6.580,8.076 C 7.866,8.076 7.866,8.076 7.866,8.076 7.866,8.240 7.866,8.240 7.866,8.240 6.580,8.240 6.580,8.240 6.580,8.240 Z M 17.298,8.076 C 18.584,8.076 18.584,8.076 18.584,8.076 18.584,8.240 18.584,8.240 18.584,8.240 17.298,8.240 17.298,8.240 17.298,8.240 Z M 12.712,9.275 C 13.940,9.275 15.117,9.763 15.985,10.630 16.149,10.794 16.299,10.969 16.435,11.153 19.051,11.153 19.051,11.153 19.051,11.153 19.051,18.707 19.051,18.707 19.051,18.707 19.051,18.882 19.051,18.882 19.051,18.882 19.051,22.429 19.051,22.429 19.051,22.429 15.337,22.429 15.337,22.429 15.337,22.429 15.337,22.307 15.337,22.307 15.337,22.307 15.974,18.736 15.974,18.736 15.974,18.736 15.974,17.185 15.974,17.185 15.974,17.185 15.555,17.602 15.052,17.943 14.483,18.178 12.785,18.882 10.834,18.511 9.511,17.243 9.511,18.707 9.511,18.707 9.511,18.707 9.515,18.707 9.515,18.707 9.515,18.707 10.158,22.307 10.158,22.307 10.158,22.307 10.158,22.429 10.158,22.429 10.158,22.429 6.444,22.429 6.444,22.429 6.444,22.429 6.444,18.882 6.444,18.882 6.444,18.882 6.443,18.882 6.443,18.882 6.443,18.882 6.443,11.153 6.443,11.153 6.443,11.153 8.991,11.153 8.991,11.153 8.991,11.153 9.850,9.990 11.223,9.275 12.712,9.275 Z M 12.712,10.005 C 11.136,10.005 9.714,10.955 9.111,12.411 8.508,13.868 8.842,15.544 9.956,16.659 11.071,17.774 12.748,18.107 14.204,17.503 15.660,16.900 16.610,15.479 16.610,13.903 16.610,12.869 16.199,11.878 15.469,11.146 14.738,10.416 13.746,10.005 12.712,10.005 Z M 6.600,11.313 C 6.600,18.706 6.600,18.706 6.600,18.706 9.355,18.706 9.355,18.706 9.355,18.706 9.355,17.087 9.355,17.087 9.355,17.087 8.100,15.764 7.736,13.823 8.437,12.131 8.557,11.841 8.706,11.568 8.878,11.313 Z M 16.548,11.313 C 17.060,12.073 17.340,12.973 17.340,13.903 17.340,15.081 16.893,16.186 16.131,17.021 16.131,18.706 16.131,18.706 16.131,18.706 18.894,18.706 18.894,18.706 18.894,18.706 18.894,11.313 18.894,11.313 18.894,11.313 Z M 12.649,11.771 C 13.482,12.908 14.315,14.045 15.148,15.182 14.008,15.182 14.008,15.182 14.008,15.182 10.150,15.182 10.150,15.182 10.150,15.182 10.983,14.045 11.816,12.908 12.649,11.771 Z M 7.792,16.636 C 8.391,16.636 8.391,16.636 8.391,16.636 8.391,18.541 8.391,18.541 8.391,18.541 7.792,18.541 7.792,18.541 7.792,18.541 Z M 17.020,16.636 C 17.619,16.636 17.619,16.636 17.619,16.636 17.619,18.541 17.619,18.541 17.619,18.541 17.020,18.541 17.020,18.541 17.020,18.541 Z M 6.583,18.882 C 6.583,22.289 6.583,22.289 6.583,22.289 10.019,22.289 10.019,22.289 10.019,22.289 10.021,22.289 10.021,22.289 10.021,22.289 10.021,22.178 10.021,22.178 10.021,22.178 9.818,21.056 9.818,21.056 9.818,21.056 9.430,18.882 9.430,18.882 9.430,18.882 9.426,18.882 9.426,18.882 9.426,18.882 Z M 16.064,18.882 C 15.676,21.056 15.676,21.056 15.676,21.056 15.473,22.178 15.473,22.178 15.473,22.178 15.473,22.289 15.473,22.289 15.473,22.289 15.476,22.289 15.476,22.289 15.476,22.289 18.912,22.289 18.912,22.289 18.912,22.289 18.912,18.882 18.912,18.882 18.912,18.882 16.069,18.882 16.069,18.882 16.069,18.882 Z M 6.907,19.210 C 9.076,19.210 9.076,19.210 9.076,19.210 9.385,20.837 9.385,20.837 9.385,20.837 7.216,20.837 7.216,20.837 7.216,20.837 Z M 16.482,19.211 C 18.651,19.211 18.651,19.211 18.651,19.211 18.342,20.838 18.342,20.838 18.342,20.838 16.173,20.838 16.173,20.838 16.173,20.838 Z " />
</svg>