<?xml version="1.0" encoding="UTF-8" standalone="no"?>
<!DOCTYPE svg PUBLIC "-//W3C//DTD SVG 20010904//EN" "http://www.w3.org/TR/2001/REC-SVG-20010904/DTD/svg10.dtd"[]>
<svg version="1.1" id="Frosty Editor v1.0.6.3" xmlns="http://www.w3.org/2000/svg" d1p1:xlink="http://www.w3.org/1999/xlink" viewBox="0 0 96 96" xmlns:d1p1="xmlns">
  <path stroke="none" fill="none" d="M 41.950,49.870 C 41.950,51.218 40.858,52.310 39.510,52.310 38.162,52.310 37.070,51.218 37.070,49.870 37.070,48.522 38.162,47.430 39.510,47.430 40.858,47.430 41.950,48.522 41.950,49.870 41.950,49.870 41.950,49.870 41.950,49.870 Z " />
  <path stroke="none" fill="none" d="M 47.750,30.120 C 49.065,30.120 50.250,30.912 50.753,32.126 51.256,33.341 50.978,34.739 50.048,35.668 49.119,36.598 47.721,36.876 46.506,36.373 45.292,35.870 44.500,34.685 44.500,33.370 44.500,31.573 45.953,30.116 47.750,30.110 47.750,30.113 47.750,30.117 47.750,30.120 Z M 47.750,38.120 C 49.671,38.120 51.403,36.963 52.138,35.188 52.874,33.413 52.467,31.370 51.109,30.011 49.750,28.653 47.707,28.246 45.932,28.982 44.157,29.717 43.000,31.449 43.000,33.370 43.006,35.991 45.129,38.115 47.750,38.120 47.750,38.120 47.750,38.120 47.750,38.120 Z " />
  <path stroke="none" fill="none" d="M 50.220,49.870 C 50.220,51.218 49.128,52.310 47.780,52.310 46.432,52.310 45.340,51.218 45.340,49.870 45.340,48.522 46.432,47.430 47.780,47.430 49.128,47.430 50.220,48.522 50.220,49.870 50.220,49.870 50.220,49.870 50.220,49.870 Z " />
  <path stroke="none" fill="none" d="M 58.350,49.870 C 58.350,51.218 57.258,52.310 55.910,52.310 54.562,52.310 53.470,51.218 53.470,49.870 53.470,48.522 54.562,47.430 55.910,47.430 57.258,47.430 58.350,48.522 58.350,49.870 58.350,49.870 58.350,49.870 58.350,49.870 Z " />
  <path stroke="none" fill="#ffffffff" d="M 60.370,40.390 C 62.437,40.390 64.503,40.390 66.570,40.390 66.948,40.392 67.265,40.675 67.310,41.050 67.470,42.340 67.630,43.630 67.790,44.920 70.667,44.920 73.543,44.920 76.420,44.920 74.481,33.514 66.022,24.311 54.820,21.420 54.820,22.037 54.820,22.653 54.820,23.270 54.827,23.326 54.827,23.384 54.820,23.440 57.870,28.840 59.670,36.770 60.370,40.390 60.370,40.390 60.370,40.390 60.370,40.390 Z " />
  <path stroke="none" fill="#ffffffff" d="M 47.710,24.800 C 47.710,24.800 47.710,24.800 47.710,24.800 49.721,24.745 51.667,24.079 53.290,22.890 53.290,21.457 53.290,20.023 53.290,18.590 49.560,18.590 45.830,18.590 42.100,18.590 42.100,20.023 42.100,21.457 42.100,22.890 43.722,24.079 45.669,24.746 47.680,24.800 47.690,24.800 47.700,24.800 47.710,24.800 Z " />
  <path stroke="none" fill="#ffffffff" d="M 66.390,57.890 C 66.246,57.736 66.174,57.530 66.190,57.320 66.263,56.293 66.337,55.267 66.410,54.240 64.687,54.240 62.963,54.240 61.240,54.240 61.183,54.690 61.127,55.140 61.070,55.590 60.606,63.579 58.054,71.306 53.670,78.000 56.807,77.121 59.867,75.987 62.820,74.610 68.959,70.877 73.503,65.008 75.580,58.130 72.700,58.130 69.820,58.130 66.940,58.130 66.731,58.130 66.532,58.043 66.390,57.890 66.390,57.890 66.390,57.890 66.390,57.890 Z " />
  <path stroke="none" fill="#ffffffff" d="M 28.000,44.910 C 28.147,43.607 28.293,42.303 28.440,41.000 28.485,40.625 28.802,40.342 29.180,40.340 31.223,40.340 33.267,40.340 35.310,40.340 35.930,36.720 37.550,28.790 40.630,23.340 40.623,23.284 40.623,23.226 40.630,23.170 40.630,22.570 40.630,21.970 40.630,21.370 29.374,24.186 20.833,33.369 18.840,44.800 19.840,44.800 21.660,44.800 22.760,44.920 24.507,44.917 26.253,44.913 28.000,44.910 Z " />
  <path stroke="none" fill="#ffffffff" d="M 44.740,15.560 C 46.673,15.560 48.607,15.560 50.540,15.560 50.540,16.070 50.540,16.580 50.540,17.090 48.607,17.090 46.673,17.090 44.740,17.090 44.740,16.580 44.740,16.070 44.740,15.560 Z " />
  <path stroke="none" fill="#ffffffff" d="M 48.700,58.770 C 44.627,58.770 40.553,58.770 36.480,58.770 37.444,65.998 40.194,72.871 44.480,78.770 45.536,78.884 46.598,78.944 47.660,78.950 48.720,78.941 49.778,78.871 50.830,78.740 51.040,78.693 51.250,78.647 51.460,78.600 55.652,72.736 58.343,65.934 59.300,58.790 55.767,58.783 52.233,58.777 48.700,58.770 Z " />
  <path stroke="none" fill="#ffffffff" d="M 34.510,54.240 C 32.787,54.240 31.063,54.240 29.340,54.240 29.413,55.267 29.487,56.293 29.560,57.320 29.574,57.527 29.501,57.731 29.359,57.883 29.217,58.035 29.018,58.120 28.810,58.120 25.750,58.120 22.690,58.120 19.630,58.120 22.562,68.783 31.459,76.745 42.380,78.480 37.753,71.610 35.081,63.612 34.650,55.340 34.603,54.973 34.557,54.607 34.510,54.240 Z " />
  <path stroke="none" fill="#ffffffff" d="M 55.910,52.310 C 54.923,52.310 54.033,51.716 53.656,50.804 53.278,49.892 53.487,48.842 54.185,48.145 54.882,47.447 55.932,47.238 56.844,47.616 57.756,47.993 58.350,48.883 58.350,49.870 58.350,51.218 57.258,52.310 55.910,52.310 55.910,52.310 55.910,52.310 55.910,52.310 Z M 47.780,52.310 C 46.793,52.310 45.903,51.716 45.526,50.804 45.148,49.892 45.357,48.842 46.055,48.145 46.752,47.447 47.802,47.238 48.714,47.616 49.626,47.993 50.220,48.883 50.220,49.870 50.220,51.218 49.128,52.310 47.780,52.310 47.780,52.310 47.780,52.310 47.780,52.310 Z M 39.510,52.310 C 38.523,52.310 37.633,51.716 37.256,50.804 36.878,49.892 37.087,48.842 37.785,48.145 38.482,47.447 39.532,47.238 40.444,47.616 41.356,47.993 41.950,48.883 41.950,49.870 41.950,51.218 40.858,52.310 39.510,52.310 39.510,52.310 39.510,52.310 39.510,52.310 Z M 70.270,56.630 C 71.287,53.323 71.537,49.828 71.000,46.410 69.713,46.410 68.427,46.410 67.140,46.410 66.762,46.408 66.445,46.125 66.400,45.750 66.240,44.460 66.080,43.170 65.920,41.880 64.190,41.880 62.460,41.880 60.730,41.880 60.820,42.920 60.910,43.960 61.000,45.000 61.014,45.207 60.941,45.411 60.799,45.563 60.657,45.715 60.458,45.800 60.250,45.800 52.017,45.800 43.783,45.800 35.550,45.800 35.342,45.800 35.143,45.715 35.001,45.563 34.859,45.411 34.786,45.207 34.800,45.000 34.867,43.963 34.933,42.927 35.000,41.890 33.283,41.890 31.567,41.890 29.850,41.890 29.690,43.180 29.530,44.470 29.370,45.760 29.325,46.135 29.008,46.418 28.630,46.420 26.930,46.420 25.230,46.420 23.530,46.420 23.340,47.909 23.236,49.409 23.220,50.910 23.395,52.834 23.696,54.745 24.120,56.630 25.413,56.630 26.707,56.630 28.000,56.630 27.927,55.603 27.853,54.577 27.780,53.550 27.766,53.343 27.839,53.139 27.981,52.987 28.123,52.835 28.322,52.750 28.530,52.750 30.747,52.750 32.963,52.750 35.180,52.750 35.558,52.752 35.875,53.035 35.920,53.410 35.940,53.580 35.960,53.750 35.980,53.920 36.041,54.020 36.075,54.133 36.080,54.250 36.080,54.570 36.080,54.880 36.140,55.200 36.227,55.893 36.313,56.587 36.400,57.280 44.050,57.280 51.700,57.280 59.350,57.280 59.427,56.677 59.503,56.073 59.580,55.470 59.580,55.060 59.640,54.670 59.660,54.250 59.666,54.121 59.708,53.997 59.780,53.890 59.800,53.730 59.820,53.570 59.840,53.410 59.885,53.035 60.202,52.752 60.580,52.750 62.797,52.750 65.013,52.750 67.230,52.750 67.438,52.750 67.637,52.835 67.779,52.987 67.921,53.139 67.994,53.343 67.980,53.550 67.907,54.577 67.833,55.603 67.760,56.630 68.597,56.630 69.433,56.630 70.270,56.630 Z " />
  <path stroke="none" fill="#ffffffff" d="M 51.000,33.370 C 51.000,35.165 49.545,36.620 47.750,36.620 45.955,36.620 44.500,35.165 44.500,33.370 44.500,31.575 45.955,30.120 47.750,30.120 49.545,30.120 51.000,31.575 51.000,33.370 51.000,33.370 51.000,33.370 51.000,33.370 Z " />
  <path stroke="none" fill="#ffffffff" d="M 47.760,28.590 C 50.378,28.596 52.498,30.719 52.500,33.337 52.502,35.955 50.385,38.081 47.767,38.090 45.148,38.099 43.017,35.988 43.000,33.370 43.000,30.745 45.125,28.616 47.750,28.610 47.753,28.603 47.757,28.597 47.760,28.590 Z M 36.480,42.590 C 36.440,43.153 36.400,43.717 36.360,44.280 44.027,44.280 51.693,44.280 59.360,44.280 59.320,43.740 59.280,43.200 59.240,42.660 59.236,42.617 59.236,42.573 59.240,42.530 59.240,42.420 57.420,31.330 53.660,24.530 51.901,25.682 49.852,26.313 47.750,26.350 47.723,26.350 47.697,26.350 47.670,26.350 45.568,26.314 43.519,25.683 41.760,24.530 38.020,31.370 36.520,42.440 36.500,42.530 36.494,42.550 36.488,42.570 36.480,42.590 36.480,42.590 36.480,42.590 36.480,42.590 Z " />
</svg>