<?xml version="1.0" encoding="UTF-8" standalone="no"?>
<!DOCTYPE svg PUBLIC "-//W3C//DTD SVG 20010904//EN" "http://www.w3.org/TR/2001/REC-SVG-20010904/DTD/svg10.dtd"[]>
<svg version="1.1" id="Frosty Editor v1.0.6.3" xmlns="http://www.w3.org/2000/svg" d1p1:xlink="http://www.w3.org/1999/xlink" viewBox="0 0 96 96" xmlns:d1p1="xmlns">
  <path stroke="none" fill="#ffffffff" d="M 45.500,60.500 C 45.500,57.000 45.500,53.500 45.500,50.000 44.167,50.000 42.833,50.000 41.500,50.000 41.500,54.687 41.500,59.373 41.500,64.060 42.833,62.873 44.167,61.687 45.500,60.500 45.500,60.500 45.500,60.500 45.500,60.500 Z " />
  <path stroke="none" fill="#ffffffff" d="M 47.500,29.970 C 43.343,36.500 39.187,43.030 35.030,49.560 38.593,48.373 42.157,47.187 45.720,46.000 46.907,46.000 48.093,46.000 49.280,46.000 52.843,47.187 56.407,48.373 59.970,49.560 55.813,43.030 51.657,36.500 47.500,29.970 47.500,29.970 47.500,29.970 47.500,29.970 Z " />
  <path stroke="none" fill="#ffffffff" d="M 53.500,64.060 C 53.500,59.373 53.500,54.687 53.500,50.000 52.167,50.000 50.833,50.000 49.500,50.000 49.500,53.500 49.500,57.000 49.500,60.500 50.833,61.687 52.167,62.873 53.500,64.060 53.500,64.060 53.500,64.060 53.500,64.060 Z " />
  <path stroke="none" fill="#ffffffff" d="M 84.310,37.800 C 79.347,29.200 74.383,20.600 69.420,12.000 65.620,12.000 61.820,12.000 58.020,12.000 56.673,14.333 55.327,16.667 53.980,19.000 57.780,19.000 61.580,19.000 65.380,19.000 68.990,25.253 72.600,31.507 76.210,37.760 78.157,41.133 80.103,44.507 82.050,47.880 80.103,51.253 78.157,54.627 76.210,58.000 78.910,58.000 81.610,58.000 84.310,58.000 86.253,54.633 88.197,51.267 90.140,47.900 88.197,44.533 86.253,41.167 84.310,37.800 84.310,37.800 84.310,37.800 84.310,37.800 Z " />
  <path stroke="none" fill="#ffffffff" d="M 32.620,19.000 C 36.447,19.000 40.273,19.000 44.100,19.000 42.750,16.667 41.400,14.333 40.050,12.000 36.227,12.000 32.403,12.000 28.580,12.000 23.617,20.600 18.653,29.200 13.690,37.800 11.747,41.167 9.803,44.533 7.860,47.900 9.803,51.267 11.747,54.633 13.690,58.000 16.390,58.000 19.090,58.000 21.790,58.000 19.843,54.627 17.897,51.253 15.950,47.880 17.897,44.507 19.843,41.133 21.790,37.760 25.400,31.507 29.010,25.253 32.620,19.000 32.620,19.000 32.620,19.000 32.620,19.000 Z " />
  <path stroke="none" fill="#ffffffff" d="M 65.480,77.000 C 61.647,77.000 57.813,77.000 53.980,77.000 46.827,77.000 39.673,77.000 32.520,77.000 30.600,73.677 28.680,70.353 26.760,67.030 25.413,69.360 24.067,71.690 22.720,74.020 24.640,77.347 26.560,80.673 28.480,84.000 38.327,84.000 48.173,84.000 58.020,84.000 61.853,84.000 65.687,84.000 69.520,84.000 71.453,80.650 73.387,77.300 75.320,73.950 73.973,71.620 72.627,69.290 71.280,66.960 69.347,70.307 67.413,73.653 65.480,77.000 65.480,77.000 65.480,77.000 65.480,77.000 Z " />
</svg>