<?xml version="1.0" encoding="UTF-8" standalone="no"?>
<!DOCTYPE svg PUBLIC "-//W3C//DTD SVG 20010904//EN" "http://www.w3.org/TR/2001/REC-SVG-20010904/DTD/svg10.dtd"[]>
<svg version="1.1" id="Frosty Editor v1.0.6.3" xmlns="http://www.w3.org/2000/svg" d1p1:xlink="http://www.w3.org/1999/xlink" viewBox="0 0 25 25" xmlns:d1p1="xmlns">
  <path stroke="none" fill="#ffffffff" d="M 39.443,51.470 C 39.020,51.423 38.954,51.442 38.597,51.762 38.230,52.091 38.211,52.138 38.211,52.618 38.211,53.088 38.249,53.173 38.597,53.577 38.964,53.991 39.001,54.010 39.472,54.010 39.905,54.010 39.999,53.972 40.262,53.700 40.535,53.427 40.563,53.333 40.563,52.844 40.563,52.355 40.525,52.261 40.224,51.913 39.942,51.573 39.829,51.508 39.443,51.470 Z " />
  <path stroke="none" fill="#ffffffff" d="M 46.862,38.418 C 46.655,38.390 46.439,38.550 45.602,39.340 45.057,39.867 44.605,40.346 44.605,40.412 44.605,40.562 45.978,42.217 46.175,42.293 46.288,42.340 46.589,42.105 47.350,41.343 47.905,40.788 48.366,40.262 48.366,40.177 48.366,39.989 50.538,37.930 50.736,37.930 50.811,37.930 51.140,37.686 51.460,37.394 52.052,36.858 52.052,36.858 52.052,36.858 52.325,37.187 52.325,37.187 52.325,37.187 52.598,37.507 52.598,37.507 52.598,37.507 52.147,37.930 52.147,37.930 52.147,37.930 51.903,38.156 50.210,39.764 48.376,41.494 45.611,44.118 45.010,44.644 44.822,44.625 44.681,44.606 44.502,44.672 44.371,44.794 44.145,45.000 44.145,45.000 44.145,45.000 43.872,44.803 43.872,44.803 43.872,44.803 43.712,44.700 43.562,44.606 43.524,44.606 43.439,44.606 42.142,45.810 42.038,45.979 42.000,46.045 42.029,46.252 42.104,46.430 42.226,46.731 42.226,46.769 42.048,46.928 41.907,47.050 41.869,47.172 41.907,47.389 41.954,47.643 41.898,47.737 41.597,48.038 41.249,48.386 41.249,48.386 41.249,48.386 41.005,48.142 41.005,48.142 41.005,48.142 40.873,48.010 40.713,47.898 40.657,47.898 40.601,47.898 40.206,48.227 39.782,48.622 39.359,49.026 38.324,50.004 37.478,50.804 35.955,52.252 35.955,52.252 35.955,52.252 35.955,52.835 35.955,52.835 35.955,52.835 35.955,53.409 35.946,53.427 35.532,53.813 35.278,54.048 35.062,54.170 34.977,54.142 34.761,54.057 32.570,56.098 32.570,56.380 32.570,56.465 32.316,56.766 31.996,57.038 30.896,57.997 30.219,59.097 29.796,60.602 29.457,61.796 28.931,62.849 28.244,63.696 26.194,66.216 20.110,72.215 19.019,72.770 18.445,73.071 17.938,73.203 16.264,73.485 12.851,74.059 11.985,74.454 8.638,76.992 6.372,78.713 5.704,79.531 5.958,80.283 6.174,80.960 7.011,81.383 7.726,81.195 7.942,81.129 8.760,80.659 9.550,80.132 11.393,78.919 12.004,78.646 14.280,78.073 15.860,77.669 16.480,77.631 17.242,77.894 18.756,78.402 21.069,79.991 22.000,81.166 23.382,82.906 23.862,84.664 23.843,87.852 23.834,89.394 23.852,89.629 24.022,89.987 24.257,90.476 24.455,90.664 24.821,90.739 25.423,90.852 25.837,90.203 26.542,88.050 27.332,85.624 27.304,83.856 26.410,80.123 26.231,79.361 25.968,78.477 25.836,78.148 25.347,77.010 25.516,76.324 26.767,74.462 28.102,72.459 29.522,70.691 30.707,69.535 32.070,68.200 32.193,67.983 31.967,67.288 31.638,66.244 31.591,65.802 31.760,65.351 32.014,64.702 32.089,64.665 32.851,64.928 33.500,65.144 33.500,65.144 33.500,65.144 33.773,64.890 33.773,64.890 33.773,64.890 34.046,64.636 34.046,64.636 34.046,64.636 34.196,65.181 34.196,65.181 34.196,65.181 34.469,66.178 35.503,67.090 36.368,67.099 37.224,67.118 38.446,66.215 38.935,65.209 39.499,64.062 39.104,62.839 37.976,62.266 37.600,62.068 37.600,62.068 37.600,62.068 38.992,60.742 38.992,60.742 38.992,60.742 39.754,60.009 40.374,59.350 40.374,59.275 40.374,59.190 40.299,59.031 40.214,58.908 40.064,58.682 40.064,58.673 40.712,58.062 44.003,54.940 43.947,54.996 44.257,55.025 44.539,55.053 44.643,54.959 45.696,53.756 46.834,52.458 46.834,52.458 46.834,52.458 47.558,50.812 47.558,50.812 47.558,50.812 48.282,49.129 48.357,48.865 48.160,48.668 48.066,48.574 48.094,48.508 48.273,48.339 50.774,45.979 53.924,42.970 53.971,42.904 53.999,42.848 53.943,42.707 53.830,42.594 53.633,42.387 53.633,42.387 53.633,42.387 53.962,42.067 53.962,42.067 53.962,42.067 54.206,41.832 54.291,41.672 54.272,41.493 54.244,41.286 54.535,40.976 56.284,39.311 57.412,38.239 58.390,37.364 58.466,37.364 58.551,37.364 58.654,37.449 58.710,37.552 58.842,37.796 59.086,37.787 59.406,37.543 59.679,37.327 59.716,37.120 59.519,36.904 59.444,36.819 59.369,36.678 59.350,36.594 59.331,36.481 60.413,35.400 62.754,33.181 64.635,31.394 66.233,29.937 66.299,29.937 66.365,29.937 66.459,30.012 66.506,30.116 66.666,30.398 66.863,30.417 67.174,30.163 67.484,29.900 67.531,29.702 67.324,29.477 67.249,29.392 67.174,29.261 67.155,29.185 67.136,29.091 68.340,27.897 70.277,26.054 73.418,23.073 73.418,23.073 73.418,23.073 73.615,23.261 73.615,23.261 73.615,23.261 73.878,23.505 74.029,23.496 74.367,23.223 74.649,22.997 74.649,22.997 74.649,22.997 74.245,21.793 74.245,21.793 74.245,21.793 73.841,20.599 73.841,20.599 73.841,20.599 74.189,20.242 74.189,20.242 74.189,20.242 74.386,20.035 74.509,19.828 74.481,19.753 74.415,19.565 74.594,19.405 74.867,19.405 75.140,19.405 76.672,17.966 76.672,17.703 76.672,17.468 76.775,17.411 78.713,16.452 80.481,15.577 80.481,15.577 80.481,15.577 84.186,11.684 84.186,11.684 84.186,11.684 86.828,8.901 87.938,7.678 88.060,7.377 88.239,6.973 88.239,6.963 88.041,6.653 87.872,6.371 87.608,6.145 87.449,6.145 87.421,6.145 85.634,7.819 83.481,9.859 81.328,11.900 79.541,13.573 79.494,13.573 79.127,13.573 79.720,12.952 83.265,9.586 85.428,7.536 87.205,5.796 87.205,5.721 87.205,5.646 87.073,5.439 86.913,5.251 86.753,5.072 86.556,4.922 86.462,4.922 86.048,4.931 85.258,5.543 81.563,8.702 77.567,12.115 77.567,12.115 77.567,12.115 76.598,13.808 76.598,13.808 76.598,13.808 75.601,15.548 75.338,15.924 75.084,15.924 74.858,15.924 73.250,17.476 73.335,17.607 73.429,17.767 73.203,17.993 72.959,17.993 72.658,17.993 70.843,19.723 70.843,20.005 70.843,20.287 67.571,23.371 67.176,23.456 66.997,23.494 66.471,23.926 65.662,24.697 64.976,25.355 64.383,25.863 64.336,25.835 64.214,25.750 63.603,26.362 63.603,26.559 63.603,26.653 63.490,26.813 63.359,26.916 63.227,27.019 62.569,27.640 61.892,28.289 61.102,29.051 60.688,29.511 60.717,29.596 60.755,29.690 60.172,30.311 59.034,31.401 57.294,33.056 57.294,33.056 57.294,33.056 57.031,32.812 57.031,32.812 57.031,32.812 56.890,32.680 56.739,32.568 56.692,32.568 56.654,32.568 56.278,32.869 55.874,33.236 55.460,33.612 55.094,33.875 55.056,33.828 54.981,33.734 58.479,30.358 58.893,30.123 59.401,29.841 60.595,28.872 60.595,28.750 60.595,28.618 59.457,27.161 59.184,26.954 59.109,26.888 58.996,26.841 58.940,26.860 58.827,26.879 57.492,28.430 57.492,28.534 57.492,28.684 50.722,35.013 50.562,35.013 50.365,35.013 49.311,36.038 49.311,36.226 49.311,36.292 48.822,36.818 48.220,37.392 47.304,38.268 47.079,38.437 46.862,38.418 Z M 79.445,14.515 C 79.614,14.515 80.602,13.631 83.366,10.998 85.397,9.061 87.080,7.472 87.109,7.472 87.128,7.463 86.996,7.622 86.808,7.811 86.629,8.008 85.031,9.692 83.254,11.554 80.038,14.939 80.038,14.939 80.038,14.939 79.145,15.390 79.145,15.390 79.145,15.390 78.261,15.832 78.252,15.841 78.440,15.569 78.553,15.419 78.703,15.240 78.788,15.174 78.873,15.099 79.004,14.930 79.079,14.779 79.172,14.599 79.285,14.515 79.445,14.515 Z M 77.640,13.490 C 78.129,12.644 78.129,12.644 78.129,12.644 82.078,9.259 82.078,9.259 82.078,9.259 84.250,7.397 86.046,5.864 86.074,5.864 86.093,5.864 86.036,5.939 85.933,6.043 79.351,12.212 78.457,13.086 78.457,13.349 78.457,13.481 78.382,13.584 78.269,13.622 78.166,13.650 77.874,13.848 77.611,14.055 77.357,14.262 77.141,14.403 77.141,14.384 77.141,14.364 77.367,13.960 77.640,13.490 Z M 46.044,45.480 C 46.157,45.367 47.389,44.201 48.790,42.875 51.329,40.477 51.329,40.477 51.329,40.477 51.526,40.731 51.526,40.731 51.526,40.731 51.733,40.985 51.733,40.985 51.733,40.985 50.689,41.972 50.689,41.972 50.689,41.972 50.115,42.517 48.884,43.683 47.943,44.577 46.250,46.194 46.250,46.194 46.250,46.194 46.043,45.940 46.043,45.940 46.043,45.940 45.827,45.686 45.827,45.686 45.827,45.686 46.044,45.480 46.044,45.480 46.044,45.480 Z M 39.594,49.853 C 39.838,49.609 40.064,49.402 40.092,49.411 40.167,49.411 41.032,50.502 41.032,50.596 41.032,50.652 40.957,50.756 40.863,50.840 40.703,50.990 40.675,50.981 40.477,50.774 40.317,50.605 40.120,50.530 39.706,50.482 39.405,50.444 39.151,50.388 39.151,50.360 39.152,50.323 39.349,50.097 39.594,49.853 Z M 36.707,53.247 C 36.707,52.664 36.735,52.532 36.923,52.335 37.130,52.109 37.130,52.109 37.130,52.109 37.186,52.767 37.186,52.767 37.186,52.767 37.214,53.134 37.299,53.510 37.365,53.604 37.440,53.698 37.769,54.093 38.089,54.488 38.672,55.203 38.672,55.203 38.672,55.203 38.409,55.457 38.409,55.457 38.409,55.457 38.136,55.711 38.136,55.711 38.136,55.711 37.421,54.827 37.421,54.827 37.421,54.827 36.706,53.934 36.706,53.934 36.706,53.934 36.706,53.247 36.706,53.247 36.706,53.247 Z M 37.280,59.058 C 36.349,59.933 36.349,59.933 36.349,59.933 35.869,59.331 35.869,59.331 35.869,59.331 35.389,58.729 35.389,58.729 35.389,58.729 36.264,57.892 36.264,57.892 36.264,57.892 36.734,57.422 37.280,56.914 37.458,56.754 37.637,56.594 37.815,56.491 37.853,56.528 37.891,56.566 37.956,56.895 38.003,57.252 38.050,57.619 38.116,57.976 38.153,58.051 38.192,58.146 37.920,58.457 37.280,59.058 Z M 34.234,55.664 C 34.638,55.269 35.005,54.959 35.043,54.949 35.278,54.940 36.331,55.288 36.303,55.363 36.284,55.410 35.814,55.880 35.259,56.397 34.243,57.347 34.243,57.347 34.243,57.347 34.008,57.065 34.008,57.065 34.008,57.065 33.425,56.350 33.406,56.444 34.234,55.664 Z M 31.817,63.929 C 31.262,64.550 30.877,65.283 30.877,65.716 30.877,66.055 31.093,67.108 31.244,67.493 31.376,67.822 31.423,67.756 29.975,69.195 29.251,69.919 28.452,70.841 27.756,71.781 24.775,75.796 24.418,76.671 25.104,78.316 25.386,78.993 26.007,81.588 26.223,83.018 26.439,84.381 26.373,85.877 26.044,87.080 25.818,87.907 25.273,89.421 25.047,89.845 24.934,90.042 24.934,90.042 24.934,90.042 24.784,89.816 24.784,89.816 24.784,89.816 24.652,89.637 24.624,89.318 24.615,87.766 24.596,84.738 24.211,83.083 23.120,81.419 22.264,80.103 20.440,78.598 18.541,77.648 16.886,76.821 16.218,76.783 13.773,77.422 11.798,77.939 10.933,78.325 9.391,79.350 7.614,80.535 7.501,80.582 7.059,80.394 6.758,80.272 6.711,80.215 6.711,79.943 6.711,79.689 6.814,79.539 7.303,79.068 8.375,78.043 11.431,75.814 12.494,75.278 13.350,74.855 14.459,74.554 16.584,74.178 18.888,73.774 19.283,73.614 20.524,72.579 21.662,71.620 26.279,67.078 27.483,65.733 29.514,63.448 29.881,62.865 30.492,60.918 30.972,59.404 31.254,58.896 32.213,57.900 32.636,57.458 33.012,57.120 33.050,57.129 33.078,57.148 33.605,57.759 34.207,58.502 35.119,59.621 35.298,59.884 35.241,60.054 35.194,60.167 35.175,60.298 35.194,60.346 35.203,60.393 34.564,61.098 33.765,61.898 32.974,62.707 32.099,63.619 31.817,63.929 Z M 33.773,63.995 C 33.717,63.976 33.594,64.042 33.500,64.127 33.331,64.287 32.757,64.240 32.757,64.061 32.757,64.014 33.396,63.346 34.177,62.566 34.957,61.795 35.625,61.155 35.663,61.155 35.795,61.155 36.086,61.541 36.096,61.729 36.105,61.861 35.767,62.246 34.986,62.970 34.365,63.553 33.820,64.014 33.773,63.995 Z M 38.399,64.165 C 38.399,64.870 37.957,65.566 37.186,66.055 36.481,66.506 35.860,66.384 35.324,65.698 35.164,65.501 34.995,65.200 34.938,65.021 34.816,64.664 34.788,63.883 34.900,63.883 34.938,63.883 35.041,64.071 35.135,64.306 35.464,65.105 36.376,65.679 37.119,65.538 37.721,65.425 37.918,65.011 37.363,65.011 36.611,65.011 35.924,64.390 35.661,63.469 35.586,63.215 35.614,63.140 35.934,62.820 36.338,62.397 36.489,62.397 37.429,62.848 38.136,63.168 38.399,63.534 38.399,64.165 Z M 38.785,59.867 C 38.493,60.168 37.976,60.666 37.638,60.977 37.008,61.532 37.008,61.532 37.008,61.532 36.745,61.184 36.745,61.184 36.745,61.184 36.482,60.845 36.482,60.845 36.482,60.845 37.601,59.792 37.601,59.792 37.601,59.792 38.720,58.739 38.720,58.739 38.720,58.739 39.021,59.031 39.021,59.031 39.021,59.031 39.322,59.323 39.322,59.323 39.322,59.323 38.785,59.867 38.785,59.867 38.785,59.867 Z M 41.540,56.247 C 40.393,57.347 39.405,58.241 39.368,58.241 39.330,58.241 39.180,58.100 39.048,57.931 38.869,57.705 38.785,57.480 38.766,57.141 38.728,56.671 38.738,56.652 39.274,56.088 39.716,55.627 39.801,55.486 39.725,55.355 39.678,55.261 39.274,54.744 38.832,54.208 38.023,53.239 38.023,53.239 38.023,53.239 38.023,52.694 38.023,52.694 38.023,52.694 38.023,52.149 38.023,52.149 38.550,51.669 39.077,51.189 39.283,51.124 39.772,51.265 39.885,51.303 40.364,51.810 40.835,52.384 41.418,53.099 41.766,53.447 41.888,53.447 41.991,53.447 42.302,53.231 42.584,52.967 42.970,52.600 43.139,52.506 43.280,52.553 43.496,52.619 43.515,52.750 43.393,53.277 43.327,53.550 43.346,53.700 43.478,53.945 43.647,54.255 43.647,54.255 43.647,54.255 41.540,56.247 41.540,56.247 41.540,56.247 Z M 43.863,50.746 C 43.656,51.921 43.703,51.846 43.233,51.780 42.857,51.733 42.800,51.752 42.377,52.119 41.926,52.523 41.926,52.523 41.926,52.523 41.578,52.109 41.578,52.109 41.578,52.109 41.381,51.883 41.221,51.676 41.221,51.648 41.221,51.610 41.418,51.394 41.654,51.159 42.134,50.670 42.134,50.661 41.551,49.974 41.372,49.748 41.222,49.541 41.222,49.494 41.222,49.456 41.504,49.155 41.852,48.836 42.482,48.244 42.482,48.244 42.482,48.244 42.839,48.658 42.839,48.658 42.839,48.658 43.036,48.884 43.375,49.297 43.591,49.570 43.977,50.068 43.977,50.068 43.977,50.068 43.863,50.746 43.863,50.746 43.863,50.746 Z M 46.834,50.558 C 46.204,52.006 46.129,52.128 45.320,53.050 44.464,54.009 44.464,54.009 44.304,53.812 44.210,53.699 44.135,53.568 44.135,53.502 44.135,53.446 44.285,52.618 44.464,51.659 44.840,49.647 44.934,50.004 43.646,48.443 43.195,47.898 42.819,47.399 42.819,47.352 42.819,47.296 43.233,46.872 43.731,46.402 44.239,45.932 44.662,45.546 44.671,45.546 44.690,45.546 45.329,46.336 46.100,47.295 47.501,49.044 47.501,49.044 47.501,49.044 46.834,50.558 46.834,50.558 46.834,50.558 Z M 52.476,43.825 C 51.902,44.389 50.614,45.621 49.627,46.561 47.831,48.272 47.831,48.272 47.831,48.272 47.389,47.708 47.389,47.708 47.389,47.708 47.145,47.398 46.956,47.106 46.975,47.059 46.994,47.012 48.254,45.790 49.777,44.341 51.300,42.883 52.560,41.699 52.570,41.689 52.570,41.689 52.796,41.933 53.059,42.244 53.539,42.789 53.539,42.789 53.539,42.789 52.476,43.825 52.476,43.825 52.476,43.825 Z M 55.786,38.653 C 54.065,40.270 53.670,40.599 53.473,40.581 53.323,40.562 53.144,40.637 52.993,40.769 52.852,40.891 52.796,40.919 52.861,40.835 52.927,40.750 52.955,40.619 52.927,40.553 52.899,40.468 53.106,40.196 53.435,39.857 53.971,39.330 54.009,39.312 54.178,39.462 54.272,39.547 54.422,39.622 54.507,39.622 54.714,39.622 57.394,37.092 57.394,36.904 57.394,36.829 57.460,36.688 57.554,36.594 57.639,36.500 57.742,36.425 57.789,36.425 58.071,36.425 57.629,36.913 55.786,38.653 Z M 71.904,23.382 C 68.791,26.363 66.563,28.432 66.478,28.403 66.234,28.318 66.422,28.074 67.644,26.917 68.368,26.221 68.960,25.591 68.960,25.506 68.960,25.421 68.894,25.290 68.810,25.224 68.669,25.111 68.848,24.914 70.380,23.428 71.330,22.516 72.176,21.764 72.251,21.754 72.326,21.754 72.505,21.904 72.655,22.083 72.918,22.412 72.918,22.412 72.918,22.412 71.904,23.382 71.904,23.382 71.904,23.382 Z M 72.299,19.442 C 72.920,18.897 72.948,18.897 73.390,19.517 73.569,19.771 73.569,19.771 73.569,19.771 73.042,20.269 73.042,20.269 73.042,20.269 72.750,20.542 72.487,20.777 72.459,20.786 72.421,20.795 72.243,20.617 72.064,20.372 71.744,19.939 71.744,19.939 71.744,19.939 72.299,19.442 72.299,19.442 72.299,19.442 Z M 67.945,24.012 C 67.964,23.984 68.735,23.232 69.666,22.348 71.359,20.731 71.359,20.731 71.359,20.731 71.547,20.919 71.547,20.919 71.547,20.919 71.735,21.107 71.735,21.107 71.735,21.107 70.372,22.423 70.372,22.423 70.372,22.423 69.620,23.147 68.820,23.890 68.595,24.078 68.200,24.417 68.181,24.417 68.059,24.247 67.982,24.144 67.935,24.040 67.945,24.012 Z M 65.782,25.498 C 66.318,24.990 66.751,24.576 66.760,24.576 66.760,24.576 66.986,24.858 67.268,25.206 67.766,25.827 67.766,25.827 67.766,25.827 66.835,26.702 66.835,26.702 66.835,26.702 66.327,27.182 65.876,27.577 65.838,27.586 65.810,27.586 65.565,27.323 65.302,26.994 64.822,26.411 64.822,26.411 64.822,26.411 65.782,25.498 65.782,25.498 65.782,25.498 Z M 62.952,28.159 C 63.704,27.444 64.062,27.162 64.137,27.228 64.193,27.275 64.429,27.548 64.654,27.839 65.058,28.366 65.058,28.366 65.058,28.366 63.977,29.400 63.977,29.400 63.977,29.400 62.905,30.434 62.905,30.434 62.905,30.434 62.538,30.020 62.538,30.020 62.538,30.020 61.776,29.156 61.739,29.316 62.952,28.159 Z M 62.444,31.601 C 62.670,31.620 62.924,31.422 64.118,30.275 65.387,29.053 65.754,28.799 65.651,29.203 65.642,29.278 64.335,30.557 62.755,32.043 61.175,33.538 59.624,35.014 59.313,35.325 58.721,35.889 58.344,36.002 58.721,35.494 58.881,35.278 58.900,35.184 58.815,35.033 58.730,34.864 58.900,34.676 60.451,33.218 61.917,31.826 62.218,31.582 62.444,31.601 Z M 59.463,32.014 C 60.385,31.130 61.184,30.406 61.231,30.406 61.269,30.406 61.400,30.528 61.513,30.688 61.720,30.961 61.720,30.961 61.720,30.961 60.761,31.883 60.761,31.883 60.761,31.883 60.225,32.391 59.445,33.143 59.012,33.557 58.232,34.300 58.232,34.300 58.232,34.300 58.006,34.027 58.006,34.027 58.006,34.027 57.884,33.867 57.780,33.717 57.771,33.688 57.770,33.660 58.532,32.908 59.463,32.014 Z M 56.322,33.876 C 56.463,33.726 56.623,33.613 56.661,33.622 56.708,33.641 57.009,33.989 57.347,34.402 57.958,35.145 57.958,35.145 57.958,35.145 57.666,35.446 57.666,35.446 57.666,35.446 57.374,35.747 57.374,35.747 57.374,35.747 57.120,35.456 57.120,35.456 57.120,35.456 56.979,35.287 56.687,34.929 56.462,34.657 56.048,34.159 56.048,34.159 56.048,34.159 56.322,33.876 56.322,33.876 56.322,33.876 Z M 55.495,35.484 C 55.542,35.484 55.768,35.747 56.275,36.396 56.661,36.885 56.661,36.885 56.661,36.885 55.608,37.901 55.608,37.901 55.608,37.901 55.025,38.465 54.508,38.917 54.470,38.917 54.385,38.917 53.351,37.685 53.351,37.582 53.351,37.535 53.821,37.055 54.404,36.501 54.987,35.945 55.485,35.494 55.495,35.484 Z M 54.789,31.920 C 57.685,29.174 57.685,29.174 57.685,29.174 57.967,29.522 57.967,29.522 57.967,29.522 58.117,29.710 58.240,29.879 58.240,29.889 58.240,29.955 54.638,33.274 54.591,33.255 54.553,33.246 54.450,33.217 54.365,33.180 54.243,33.133 53.838,33.462 52.776,34.459 51.441,35.728 51.347,35.794 51.224,35.625 51.066,35.409 50.708,35.785 54.789,31.920 Z M 48.527,37.863 C 49.138,37.280 49.655,36.810 49.684,36.800 49.712,36.800 49.853,36.950 49.994,37.129 50.257,37.458 50.257,37.458 50.257,37.458 49.204,38.474 49.204,38.474 49.204,38.474 48.630,39.029 48.113,39.499 48.057,39.518 48.001,39.537 47.831,39.415 47.681,39.236 47.418,38.916 47.418,38.916 47.418,38.916 48.527,37.863 48.527,37.863 48.527,37.863 Z M 46.994,40.675 C 46.298,41.380 46.279,41.380 45.866,40.872 45.509,40.439 45.509,40.439 45.509,40.439 46.120,39.894 46.120,39.894 46.120,39.894 46.449,39.593 46.731,39.349 46.750,39.339 46.788,39.339 47.267,39.894 47.371,40.072 47.427,40.167 47.323,40.336 46.994,40.675 Z " />
  <path stroke="none" fill="#ffffffff" d="M 23.333,6.751 C 23.323,6.746 23.312,6.741 23.303,6.738 23.097,6.756 22.751,6.824 22.572,6.853 22.115,6.929 21.660,7.011 21.205,7.091 20.622,7.195 20.040,7.299 19.459,7.408 19.081,7.480 18.704,7.554 18.330,7.640 18.251,7.659 18.172,7.678 18.093,7.699 18.014,7.720 17.936,7.742 17.859,7.767 17.783,7.803 17.712,7.853 17.638,7.895 17.311,8.091 16.984,8.284 16.661,8.493 16.657,8.496 16.654,8.502 16.650,8.505 16.649,8.504 16.649,8.504 16.649,8.504 16.637,8.523 16.628,8.547 16.623,8.584 16.487,8.639 16.344,8.672 16.204,8.713 15.755,8.837 15.305,8.956 14.856,9.077 14.831,9.084 14.807,9.091 14.783,9.097 14.727,9.112 14.672,9.127 14.616,9.141 14.362,9.163 14.106,9.176 13.852,9.196 13.593,9.215 13.333,9.235 13.078,9.283 12.861,9.327 12.649,9.397 12.430,9.428 12.238,9.448 12.045,9.444 11.853,9.450 11.557,9.456 11.261,9.461 10.968,9.504 10.834,9.320 10.693,9.140 10.525,8.985 10.493,8.956 10.461,8.925 10.429,8.895 6.506,9.946 6.506,9.946 6.506,9.946 6.724,9.957 6.944,9.991 7.163,10.050 7.233,10.068 7.300,10.090 7.367,10.112 7.465,10.086 7.465,10.086 7.465,10.086 10.321,9.321 10.321,9.321 10.321,9.321 10.379,9.375 10.379,9.375 10.379,9.375 10.411,9.405 10.521,9.544 10.623,9.684 10.810,9.937 10.810,9.937 10.810,9.937 10.984,9.890 10.984,9.890 10.984,9.890 11.100,9.859 11.385,9.840 11.832,9.834 12.481,9.826 12.520,9.822 12.890,9.722 13.228,9.632 13.360,9.613 13.976,9.571 14.676,9.523 14.676,9.523 14.676,9.523 14.955,9.449 14.955,9.449 14.955,9.449 15.827,9.215 15.827,9.215 15.827,9.215 16.531,9.026 16.731,8.968 16.765,8.933 16.763,8.928 16.763,8.928 16.763,8.928 16.765,8.926 16.777,8.921 16.777,8.919 16.771,8.897 16.775,8.867 16.786,8.852 16.797,8.838 17.070,8.668 17.394,8.475 17.982,8.123 17.982,8.123 17.982,8.123 18.419,8.011 18.419,8.011 18.419,8.011 18.663,7.948 19.568,7.771 20.472,7.610 22.920,7.173 23.232,7.109 23.261,7.137 23.295,7.170 23.532,8.040 23.517,8.075 23.511,8.087 23.242,8.182 23.067,8.245 22.892,8.308 21.995,8.633 21.073,8.967 20.063,9.332 19.201,9.629 18.905,9.713 18.414,9.852 18.414,9.852 18.414,9.852 17.730,9.838 17.730,9.838 17.730,9.838 17.355,9.830 17.040,9.818 17.030,9.811 17.020,9.804 17.007,9.779 17.001,9.756 17.000,9.753 16.987,9.756 16.984,9.754 16.982,9.745 16.982,9.745 16.982,9.745 16.948,9.734 16.832,9.758 16.466,9.857 16.345,9.890 16.195,9.931 16.012,9.982 15.161,10.218 15.161,10.218 15.161,10.218 14.748,10.330 14.748,10.330 14.748,10.330 14.201,10.614 14.201,10.614 14.201,10.614 13.699,10.876 13.619,10.909 13.207,11.025 12.772,11.148 12.742,11.161 12.216,11.455 11.674,11.760 11.674,11.760 11.674,11.760 10.688,12.026 10.688,12.026 10.688,12.026 10.146,12.173 9.717,12.294 9.735,12.296 9.753,12.298 10.479,12.186 11.349,12.048 12.219,11.910 12.963,11.796 13.003,11.794 13.061,11.792 13.076,11.808 13.089,11.885 13.104,11.975 13.089,11.989 12.542,12.436 12.038,12.848 11.891,12.950 11.097,13.433 10.214,13.970 10.214,13.970 10.214,13.970 9.686,14.128 9.686,14.128 9.686,14.128 9.265,14.253 9.265,14.253 9.265,14.253 9.258,14.271 9.251,14.288 9.244,14.305 10.162,14.510 10.162,14.510 10.162,14.510 10.714,14.633 11.181,14.742 11.200,14.752 11.220,14.763 11.228,14.801 11.220,14.849 11.209,14.918 11.217,14.929 11.289,14.941 11.359,14.953 11.393,14.936 11.514,14.830 11.719,14.651 11.992,14.580 12.241,14.641 12.440,14.690 12.600,14.797 12.745,14.976 12.825,15.076 12.851,15.139 12.888,15.322 12.950,15.625 12.904,15.826 12.716,16.074 12.626,16.194 12.362,17.846 12.418,17.941 12.548,18.162 12.571,18.507 12.468,18.690 12.328,18.937 12.287,18.975 12.091,19.046 11.924,19.105 11.873,19.111 11.720,19.085 11.612,19.067 11.495,19.020 11.418,18.963 11.308,18.881 11.235,18.863 10.756,18.806 10.074,18.724 10.055,18.724 10.441,18.809 10.616,18.848 10.770,18.895 10.783,18.914 10.810,18.954 10.971,19.725 10.965,19.784 10.962,19.806 10.937,19.830 10.909,19.837 10.880,19.844 10.374,19.749 9.785,19.626 8.714,19.403 8.714,19.403 8.714,19.403 8.544,19.466 8.544,19.466 8.544,19.466 8.289,19.560 8.128,19.548 7.904,19.419 7.701,19.302 7.614,19.189 7.554,18.967 7.461,18.621 7.615,18.268 7.930,18.103 8.004,18.063 8.040,17.947 8.334,16.797 8.531,16.028 8.650,15.503 8.637,15.456 8.620,15.394 8.579,15.364 8.513,15.365 8.296,15.571 8.050,15.744 7.785,15.880 7.912,15.896 8.040,15.896 8.165,15.869 8.043,16.389 7.910,16.905 7.773,17.420 7.737,17.553 7.699,17.685 7.659,17.816 7.493,17.925 7.357,18.078 7.267,18.255 7.175,18.436 7.132,18.642 7.148,18.844 7.164,19.087 7.253,19.329 7.414,19.514 7.549,19.666 7.728,19.774 7.917,19.847 8.055,19.900 8.206,19.921 8.354,19.905 8.480,19.894 8.602,19.856 8.720,19.810 8.734,19.803 8.750,19.802 8.765,19.807 9.457,19.946 10.146,20.102 10.843,20.216 10.969,20.229 11.102,20.195 11.197,20.108 11.316,20.005 11.372,19.834 11.338,19.680 11.321,19.561 11.297,19.442 11.273,19.324 11.392,19.395 11.526,19.440 11.663,19.464 11.816,19.491 11.975,19.485 12.124,19.439 12.200,19.416 12.273,19.387 12.345,19.355 12.443,19.310 12.535,19.248 12.606,19.166 12.704,19.058 12.778,18.931 12.837,18.799 12.901,18.649 12.923,18.483 12.913,18.320 12.904,18.156 12.864,17.993 12.798,17.842 12.812,17.604 12.850,17.368 12.885,17.133 12.924,16.890 12.966,16.647 13.019,16.407 13.031,16.356 13.043,16.305 13.062,16.256 13.100,16.190 13.148,16.129 13.178,16.059 13.294,15.827 13.325,15.555 13.274,15.300 13.245,15.128 13.196,14.955 13.096,14.810 12.979,14.636 12.819,14.492 12.637,14.388 12.373,14.241 12.051,14.195 11.759,14.276 11.635,14.309 11.516,14.362 11.408,14.432 11.317,14.373 11.208,14.359 11.105,14.334 10.924,14.291 10.743,14.249 10.562,14.208 11.076,13.893 11.594,13.586 12.097,13.255 12.332,13.095 12.556,12.920 12.776,12.740 12.931,12.613 13.085,12.484 13.236,12.352 13.321,12.277 13.404,12.191 13.443,12.081 13.512,11.893 13.464,11.665 13.318,11.526 13.275,11.486 13.223,11.456 13.168,11.437 13.402,11.367 13.642,11.306 13.866,11.207 14.088,11.111 14.298,10.993 14.514,10.884 14.645,10.817 14.775,10.747 14.910,10.687 14.972,10.667 15.036,10.652 15.099,10.634 15.153,10.619 15.207,10.604 15.261,10.590 15.368,10.560 15.475,10.530 15.582,10.500 16.010,10.382 16.438,10.264 16.868,10.151 16.921,10.139 16.975,10.128 17.029,10.119 17.054,10.154 17.077,10.172 17.099,10.183 17.122,10.188 17.145,10.192 17.166,10.190 17.603,10.208 18.038,10.218 18.472,10.222 18.552,10.219 18.625,10.189 18.700,10.170 19.085,10.061 19.468,9.940 19.847,9.806 20.849,9.457 21.847,9.094 22.845,8.731 23.038,8.661 23.354,8.558 23.545,8.481 23.590,8.461 23.730,8.417 23.768,8.377 23.823,8.305 23.832,8.151 23.798,8.002 23.766,7.844 23.725,7.688 23.683,7.532 23.641,7.380 23.597,7.227 23.548,7.077 23.516,6.984 23.475,6.890 23.423,6.828 23.394,6.793 23.363,6.767 23.333,6.751 Z M 23.125,7.375 C 22.988,7.392 22.988,7.392 22.988,7.392 22.912,7.402 21.966,7.570 20.885,7.767 19.804,7.963 18.845,8.135 18.754,8.148 18.587,8.172 18.587,8.172 18.587,8.172 18.761,8.817 18.761,8.817 18.761,8.817 18.933,9.463 18.933,9.463 18.933,9.463 19.132,9.390 19.132,9.390 19.132,9.390 19.241,9.350 20.079,9.047 20.994,8.718 21.909,8.389 22.775,8.080 22.918,8.032 23.061,7.984 23.196,7.932 23.220,7.917 23.262,7.890 23.262,7.890 23.262,7.890 23.194,7.633 23.194,7.633 23.194,7.633 Z M 18.448,8.280 C 18.326,8.313 18.326,8.313 18.326,8.313 18.205,8.345 18.205,8.345 18.205,8.345 18.364,8.941 18.364,8.941 18.364,8.941 18.523,9.536 18.523,9.536 18.523,9.536 18.645,9.503 18.645,9.503 18.645,9.503 18.767,9.471 18.767,9.471 18.767,9.471 18.608,8.876 18.608,8.876 18.608,8.876 Z M 18.036,8.358 C 18.025,8.360 17.779,8.506 17.487,8.683 16.956,9.005 16.956,9.005 16.956,9.005 17.032,9.286 17.032,9.286 17.032,9.286 17.107,9.567 17.107,9.567 17.107,9.567 17.234,9.569 17.234,9.569 17.234,9.569 17.304,9.571 17.566,9.577 17.817,9.584 18.067,9.591 18.297,9.591 18.326,9.585 18.381,9.575 18.381,9.575 18.381,9.575 18.217,8.964 18.217,8.964 18.217,8.964 18.092,8.497 18.049,8.355 18.036,8.358 Z M 16.878,9.168 C 16.831,9.180 16.831,9.180 16.831,9.180 16.830,9.179 16.830,9.179 16.830,9.179 15.920,9.422 15.920,9.422 15.920,9.422 15.013,9.666 15.013,9.666 15.013,9.666 14.910,9.694 14.910,9.694 14.910,9.694 14.950,9.838 14.950,9.838 14.950,9.838 14.988,9.983 14.988,9.983 14.988,9.983 15.091,9.956 15.091,9.956 15.091,9.956 15.998,9.713 15.998,9.713 15.998,9.713 16.908,9.469 16.908,9.469 16.908,9.469 16.908,9.471 16.908,9.471 16.908,9.471 16.955,9.458 16.955,9.458 16.955,9.458 16.917,9.313 16.917,9.313 16.917,9.313 Z M 14.674,9.739 C 14.147,9.775 14.147,9.775 14.147,9.775 13.857,9.795 13.595,9.811 13.565,9.811 13.560,9.811 13.556,9.812 13.552,9.813 13.517,9.821 13.528,9.878 13.614,10.196 13.716,10.580 13.716,10.580 13.777,10.547 13.811,10.528 14.046,10.413 14.300,10.290 14.761,10.067 14.761,10.067 14.761,10.067 14.718,9.903 14.718,9.903 14.718,9.903 Z M 13.280,9.881 C 13.033,9.947 13.033,9.947 13.033,9.947 12.787,10.013 12.787,10.013 12.787,10.013 12.892,10.405 12.892,10.405 12.892,10.405 12.996,10.797 12.996,10.797 12.996,10.797 13.243,10.731 13.243,10.731 13.243,10.731 13.490,10.665 13.490,10.665 13.490,10.665 13.385,10.273 13.385,10.273 13.385,10.273 Z M 12.529,10.039 C 12.002,10.047 12.002,10.047 12.002,10.047 11.712,10.052 11.465,10.058 11.453,10.061 11.441,10.063 11.512,10.366 11.610,10.733 11.709,11.100 11.799,11.399 11.811,11.396 11.823,11.393 12.044,11.275 12.302,11.133 12.770,10.875 12.770,10.875 12.770,10.875 12.649,10.457 12.649,10.457 12.649,10.457 Z M 10.337,9.487 C 9.495,9.713 9.495,9.713 9.495,9.713 8.652,9.939 8.652,9.939 8.652,9.939 8.713,10.101 8.713,10.101 8.713,10.101 8.746,10.191 8.813,10.376 8.860,10.513 8.947,10.762 8.947,10.762 8.947,10.762 9.931,10.498 9.931,10.498 9.931,10.498 10.473,10.353 10.913,10.225 10.909,10.213 10.906,10.201 10.877,10.171 10.846,10.147 10.814,10.123 10.687,9.964 10.563,9.795 Z M 11.142,10.095 C 11.138,10.092 11.134,10.090 11.129,10.089 11.123,10.087 11.117,10.088 11.110,10.089 11.074,10.099 11.075,10.109 11.118,10.149 11.147,10.176 11.174,10.197 11.178,10.195 11.182,10.194 11.178,10.167 11.169,10.135 11.165,10.117 11.154,10.103 11.142,10.095 Z M 11.220,10.324 C 8.707,11.004 8.707,11.004 8.707,11.004 8.993,11.328 9.209,11.708 9.342,12.119 11.543,11.529 11.543,11.529 11.543,11.529 11.382,10.927 11.382,10.927 11.382,10.927 Z M 12.567,12.097 C 12.564,12.087 11.827,12.196 10.927,12.338 9.451,12.571 9.451,12.571 9.451,12.571 9.522,12.999 9.504,13.449 9.384,13.897 9.379,13.914 9.374,13.931 9.370,13.948 9.457,13.924 9.457,13.924 9.457,13.924 10.089,13.755 10.089,13.755 10.089,13.755 10.979,13.220 10.979,13.220 10.979,13.220 11.651,12.815 11.954,12.615 12.220,12.400 12.413,12.243 12.570,12.106 12.567,12.097 Z M 8.475,9.986 C 7.626,10.213 7.626,10.213 7.626,10.213 7.987,10.373 8.306,10.594 8.574,10.862 8.738,10.818 8.738,10.818 8.738,10.818 8.678,10.593 8.678,10.593 8.678,10.593 8.645,10.469 8.585,10.282 8.546,10.177 Z M 12.436,14.930 C 12.416,14.917 12.395,14.906 12.373,14.895 12.343,14.880 12.309,14.868 12.274,14.858 12.167,14.828 12.044,14.819 11.963,14.840 11.857,14.869 11.711,14.981 11.639,15.089 11.418,15.420 11.535,15.859 11.890,16.034 12.083,16.129 12.225,16.120 12.475,15.994 12.512,15.976 12.579,15.905 12.624,15.838 12.827,15.534 12.735,15.123 12.436,14.930 Z M 4.626,10.455 C 4.603,10.470 4.579,10.486 4.556,10.502 4.579,10.486 4.603,10.470 4.626,10.455 Z M 4.556,10.502 C 4.547,10.509 4.538,10.515 4.529,10.521 4.538,10.515 4.547,10.509 4.556,10.502 Z M 4.529,10.521 C 4.519,10.528 4.511,10.535 4.501,10.541 4.510,10.535 4.519,10.528 4.529,10.521 Z M 4.501,10.541 C 4.483,10.554 4.465,10.568 4.447,10.582 4.465,10.568 4.483,10.554 4.501,10.541 Z M 4.339,10.527 C 4.323,10.564 4.305,10.601 4.287,10.638 4.305,10.601 4.323,10.564 4.339,10.527 Z M 4.408,10.612 C 4.381,10.633 4.355,10.655 4.329,10.676 4.355,10.655 4.381,10.633 4.408,10.612 Z M 4.316,10.688 C 4.286,10.713 4.257,10.739 4.228,10.766 4.257,10.739 4.286,10.713 4.316,10.688 Z M 11.064,14.854 C 11.051,14.847 9.830,14.575 9.186,14.434 9.058,14.705 8.894,14.952 8.702,15.169 9.771,15.406 9.771,15.406 9.771,15.406 10.386,15.541 10.895,15.641 10.902,15.628 10.909,15.614 10.952,15.437 10.998,15.233 11.045,15.030 11.074,14.859 11.064,14.854 Z M 11.312,15.096 C 11.304,15.091 11.293,15.087 11.278,15.084 11.267,15.082 11.259,15.081 11.251,15.083 11.219,15.091 11.202,15.142 11.168,15.307 11.121,15.531 11.122,15.546 11.181,15.569 11.267,15.602 11.293,15.591 11.276,15.527 11.268,15.497 11.279,15.388 11.301,15.286 11.328,15.153 11.335,15.113 11.312,15.096 Z M 12.496,16.293 C 12.495,16.292 12.492,16.291 12.489,16.290 12.468,16.284 12.416,16.289 12.349,16.306 12.153,16.355 11.997,16.346 11.831,16.274 11.768,16.247 11.712,16.230 11.694,16.234 11.692,16.234 11.690,16.235 11.689,16.236 11.683,16.247 11.665,16.557 11.649,16.924 11.621,17.593 11.621,17.593 11.621,17.593 11.777,17.585 11.777,17.585 11.777,17.585 11.952,17.575 12.112,17.604 12.187,17.657 12.215,17.677 12.247,17.689 12.259,17.686 12.271,17.683 12.330,17.377 12.389,17.006 12.447,16.635 12.497,16.317 12.499,16.300 12.499,16.297 12.498,16.295 12.496,16.293 Z M 3.653,11.470 C 3.645,11.472 3.638,11.473 3.630,11.475 3.290,11.550 2.956,11.647 2.620,11.735 2.389,11.799 2.157,11.859 1.931,11.940 1.847,11.975 1.769,12.028 1.710,12.099 1.664,12.119 1.615,12.130 1.567,12.144 1.524,12.155 1.480,12.160 1.436,12.161 1.746,13.318 1.746,13.318 1.746,13.318 1.991,14.231 1.991,14.231 1.991,14.231 2.438,17.199 2.438,17.199 2.438,17.199 7.536,15.843 3.744,16.867 6.188,16.221 5.973,16.210 5.755,16.176 5.537,16.117 5.465,16.098 5.394,16.077 5.325,16.053 2.682,16.753 2.682,16.753 2.682,16.753 2.287,14.133 2.287,14.133 2.287,14.133 2.042,13.220 2.042,13.220 2.042,13.220 1.839,12.461 1.839,12.461 1.839,12.461 1.914,12.431 1.978,12.398 1.996,12.361 2.028,12.293 2.066,12.280 2.930,12.048 3.146,11.990 3.309,11.947 3.434,11.915 3.496,11.759 3.569,11.610 3.653,11.470 Z M 10.023,15.674 C 10.002,15.664 9.952,15.648 9.885,15.629 9.617,15.552 9.068,15.424 8.982,15.426 8.980,15.426 8.978,15.426 8.976,15.427 8.922,15.441 9.024,15.647 9.150,15.771 9.358,15.977 9.729,15.987 9.945,15.793 9.993,15.750 10.032,15.700 10.033,15.682 10.033,15.680 10.030,15.677 10.023,15.674 Z M 3.344,12.174 C 3.047,12.257 3.047,12.257 3.047,12.257 2.316,12.461 2.316,12.461 2.316,12.461 2.501,13.182 2.501,13.182 2.501,13.182 2.685,13.902 2.685,13.902 2.685,13.902 3.277,13.744 3.277,13.744 3.277,13.744 3.176,13.273 3.182,12.770 3.316,12.271 3.325,12.238 3.334,12.206 3.344,12.174 Z M 9.702,16.179 C 9.572,16.181 9.572,16.181 9.572,16.181 9.328,16.184 9.129,16.097 8.939,15.904 8.833,15.796 8.833,15.796 8.833,15.796 8.808,15.876 8.808,15.876 8.808,15.876 8.776,15.980 8.262,17.985 8.265,17.996 8.267,18.001 8.314,18.007 8.372,18.010 8.499,18.018 8.754,18.158 8.837,18.265 8.886,18.329 8.901,18.334 8.923,18.295 8.938,18.268 9.120,17.781 9.327,17.212 Z M 12.114,17.891 C 12.078,17.869 12.038,17.853 11.995,17.842 11.918,17.824 11.832,17.825 11.741,17.849 11.483,17.918 11.359,18.158 11.434,18.439 11.514,18.735 11.773,18.888 12.037,18.794 12.113,18.767 12.201,18.711 12.235,18.668 12.346,18.528 12.372,18.414 12.335,18.235 12.303,18.076 12.224,17.958 12.114,17.891 Z M 11.188,18.017 C 11.182,18.013 10.832,17.975 10.410,17.933 9.643,17.855 9.643,17.855 9.643,17.855 9.544,18.046 9.544,18.046 9.544,18.046 9.490,18.152 9.430,18.278 9.411,18.327 9.377,18.416 9.377,18.416 9.377,18.416 10.302,18.530 10.302,18.530 10.302,18.530 10.809,18.594 11.225,18.646 11.225,18.647 11.225,18.648 11.208,18.578 11.187,18.492 11.166,18.405 11.160,18.269 11.174,18.180 11.188,18.094 11.194,18.020 11.188,18.017 Z M 3.398,14.165 C 2.589,14.380 2.589,14.380 2.589,14.380 2.882,16.432 2.882,16.432 2.882,16.432 3.109,16.099 3.109,16.099 3.109,16.099 3.331,15.772 3.350,15.753 3.945,15.267 4.026,15.201 4.026,15.201 4.026,15.201 3.751,14.900 3.538,14.547 3.398,14.165 Z M 10.685,19.015 C 9.862,18.829 9.862,18.829 9.862,18.829 9.409,18.726 9.032,18.645 9.024,18.647 9.016,18.649 9.013,18.699 9.019,18.759 9.025,18.818 9.001,18.945 8.965,19.041 8.928,19.137 8.904,19.218 8.910,19.221 8.932,19.233 10.767,19.608 10.785,19.605 10.795,19.603 10.801,19.559 10.798,19.506 10.794,19.453 10.768,19.321 10.739,19.213 Z M 4.197,15.374 C 4.096,15.457 4.096,15.457 4.096,15.457 3.542,15.910 3.457,15.998 3.223,16.362 3.198,16.401 3.545,16.317 5.010,15.925 4.706,15.783 4.433,15.596 4.197,15.374 Z M 8.536,18.318 C 8.503,18.297 8.466,18.282 8.428,18.271 8.356,18.250 8.276,18.248 8.191,18.269 8.187,18.270 8.183,18.271 8.179,18.273 7.682,18.410 7.726,19.160 8.243,19.249 8.370,19.271 8.571,19.197 8.648,19.099 8.864,18.825 8.771,18.463 8.536,18.318 Z " />
  <path stroke="none" fill="#ffffffff" d="M 6.303,10.170 C 5.033,10.187 3.882,11.039 3.536,12.330 3.119,13.889 4.037,15.480 5.596,15.898 7.155,16.315 8.746,15.396 9.164,13.838 9.581,12.279 8.663,10.688 7.104,10.270 6.836,10.198 6.567,10.166 6.303,10.170 Z M 6.308,10.432 C 6.548,10.428 6.792,10.458 7.036,10.523 8.455,10.903 9.291,12.352 8.911,13.770 8.530,15.189 7.082,16.024 5.664,15.644 4.245,15.264 3.409,13.816 3.789,12.397 4.104,11.223 5.151,10.448 6.308,10.432 Z M 6.223,10.647 C 6.223,11.090 6.223,11.090 6.223,11.090 5.224,11.153 4.420,11.957 4.356,12.957 4.209,12.957 4.061,12.957 3.913,12.957 3.913,13.042 3.913,13.126 3.913,13.210 4.061,13.210 4.209,13.210 4.356,13.210 4.420,14.210 5.224,15.014 6.223,15.077 6.223,15.225 6.223,15.373 6.223,15.520 6.308,15.520 6.392,15.520 6.477,15.520 6.477,15.373 6.477,15.225 6.477,15.077 7.476,15.014 8.280,14.210 8.343,13.210 8.491,13.210 8.639,13.210 8.787,13.210 8.787,12.957 8.787,12.957 8.787,12.957 8.639,12.957 8.491,12.957 8.343,12.957 8.280,11.957 7.476,11.153 6.477,11.090 6.477,10.942 6.477,10.795 6.477,10.647 Z M 6.223,11.343 C 6.223,11.976 6.223,11.976 6.223,11.976 5.711,12.033 5.300,12.445 5.243,12.957 4.610,12.957 4.610,12.957 4.610,12.957 4.673,12.096 5.363,11.407 6.223,11.343 Z M 6.477,11.343 C 7.337,11.407 8.027,12.096 8.090,12.957 7.880,12.957 7.668,12.957 7.457,12.957 7.400,12.445 6.989,12.033 6.477,11.976 6.477,11.765 6.477,11.554 6.477,11.343 Z M 6.350,12.147 C 6.869,12.147 7.286,12.565 7.286,13.084 7.286,13.603 6.869,14.020 6.350,14.020 5.831,14.020 5.414,13.603 5.414,13.084 5.414,12.565 5.831,12.147 6.350,12.147 Z M 4.610,13.210 C 4.820,13.210 5.032,13.210 5.243,13.210 5.300,13.723 5.711,14.134 6.223,14.191 6.223,14.402 6.223,14.613 6.223,14.824 5.363,14.761 4.673,14.071 4.610,13.210 Z M 7.457,13.210 C 7.668,13.210 7.880,13.210 8.090,13.210 8.027,14.071 7.337,14.761 6.477,14.824 6.477,14.613 6.477,14.402 6.477,14.191 6.989,14.134 7.400,13.723 7.457,13.210 Z " />
</svg>