<?xml version="1.0" encoding="UTF-8" standalone="no"?>
<!DOCTYPE svg PUBLIC "-//W3C//DTD SVG 20010904//EN" "http://www.w3.org/TR/2001/REC-SVG-20010904/DTD/svg10.dtd"[]>
<svg version="1.1" id="Frosty Editor v1.0.6.3" xmlns="http://www.w3.org/2000/svg" d1p1:xlink="http://www.w3.org/1999/xlink" viewBox="0 0 25 25" xmlns:d1p1="xmlns">
  <path stroke="none" fill="#ffffffff" d="M 18.163,3.803 C 17.728,3.813 17.296,3.923 16.908,4.119 16.385,4.379 15.933,4.782 15.620,5.275 15.288,5.794 15.109,6.412 15.126,7.029 15.132,7.237 15.160,7.445 15.208,7.648 15.075,7.794 14.943,7.941 14.810,8.088 14.810,5.415 14.810,5.415 14.810,5.415 9.205,5.415 9.205,5.415 9.205,5.415 9.205,9.681 9.205,9.681 9.205,9.681 7.838,9.681 6.444,9.681 5.049,9.681 5.049,15.559 5.049,15.559 5.049,15.559 6.064,15.559 7.059,15.559 8.069,15.559 7.851,15.800 7.634,16.041 7.417,16.282 6.826,16.289 6.240,16.512 5.795,16.900 5.372,17.264 5.071,17.767 4.954,18.313 4.846,18.805 4.885,19.329 5.065,19.799 5.193,20.137 5.392,20.447 5.647,20.703 5.918,20.977 6.251,21.191 6.615,21.318 7.021,21.463 7.465,21.501 7.890,21.427 8.285,21.359 8.663,21.196 8.983,20.956 9.392,20.648 9.709,20.218 9.876,19.734 9.994,19.396 10.041,19.033 10.013,18.676 10.511,18.124 11.009,17.572 11.507,17.021 11.507,18.082 11.507,19.549 11.507,20.549 12.984,19.893 14.460,19.237 15.909,18.580 15.909,14.916 15.909,14.916 15.909,14.916 18.343,14.916 18.343,14.916 18.343,14.916 18.343,10.514 18.343,10.514 18.343,10.514 18.096,10.526 17.757,10.427 17.472,10.411 17.582,10.288 17.693,10.165 17.804,10.043 18.240,10.105 18.690,10.072 19.110,9.939 19.718,9.747 20.264,9.363 20.651,8.857 20.949,8.471 21.160,8.018 21.263,7.542 21.320,7.272 21.342,6.994 21.319,6.719 21.305,6.593 21.257,6.471 21.178,6.371 21.077,6.241 20.927,6.147 20.764,6.119 20.570,6.082 20.360,6.135 20.210,6.264 20.128,6.332 20.063,6.417 19.991,6.494 19.709,6.806 19.428,7.118 19.146,7.430 18.775,7.347 18.404,7.265 18.032,7.182 17.917,6.814 17.801,6.445 17.686,6.077 18.035,5.689 18.384,5.302 18.733,4.913 18.870,4.739 18.914,4.495 18.845,4.284 18.785,4.096 18.642,3.936 18.460,3.859 18.367,3.819 18.265,3.801 18.163,3.803 Z M 17.847,4.665 C 17.776,4.745 17.776,4.745 17.776,4.745 17.482,5.071 17.187,5.397 16.894,5.724 16.806,5.840 16.787,6.003 16.841,6.137 17.005,6.656 17.168,7.176 17.333,7.695 17.388,7.829 17.518,7.927 17.661,7.947 18.186,8.064 18.711,8.181 19.236,8.296 19.381,8.317 19.533,8.252 19.621,8.136 19.911,7.815 20.201,7.494 20.491,7.174 20.464,7.403 20.398,7.628 20.304,7.839 20.180,8.118 20.006,8.375 19.787,8.589 19.589,8.785 19.355,8.945 19.100,9.058 18.863,9.163 18.609,9.230 18.350,9.243 18.170,9.253 17.990,9.238 17.812,9.205 17.754,9.194 17.695,9.178 17.634,9.181 17.529,9.185 17.428,9.234 17.354,9.307 17.327,9.334 17.304,9.365 17.278,9.393 16.253,10.528 15.229,11.664 14.204,12.799 12.560,14.622 10.916,16.444 9.271,18.267 9.188,18.363 9.156,18.498 9.179,18.622 9.196,18.725 9.199,18.830 9.197,18.935 9.188,19.191 9.124,19.447 9.007,19.676 8.902,19.881 8.758,20.067 8.582,20.217 8.488,20.298 8.385,20.369 8.276,20.428 8.073,20.538 7.847,20.607 7.618,20.627 7.413,20.646 7.205,20.628 7.006,20.574 6.893,20.543 6.781,20.500 6.676,20.446 6.365,20.286 6.103,20.032 5.935,19.725 5.835,19.543 5.767,19.342 5.737,19.137 5.709,18.950 5.711,18.759 5.742,18.572 5.769,18.410 5.819,18.251 5.891,18.104 6.013,17.849 6.196,17.624 6.423,17.455 6.606,17.317 6.817,17.216 7.040,17.161 7.197,17.122 7.359,17.106 7.521,17.112 7.559,17.114 7.598,17.116 7.637,17.112 7.693,17.106 7.749,17.089 7.798,17.060 7.861,17.024 7.911,16.971 7.957,16.916 9.119,15.627 10.282,14.339 11.444,13.050 12.955,11.376 14.466,9.701 15.977,8.027 16.055,7.937 16.088,7.812 16.070,7.695 16.064,7.651 16.050,7.609 16.036,7.568 15.970,7.331 15.937,7.085 15.949,6.839 15.966,6.514 16.058,6.194 16.207,5.904 16.400,5.533 16.694,5.215 17.047,4.990 17.264,4.853 17.501,4.745 17.750,4.686 17.783,4.678 17.815,4.671 17.847,4.665 Z M 10.353,6.701 C 13.525,6.701 13.525,6.701 13.525,6.701 13.525,9.512 13.525,9.512 13.525,9.512 12.060,11.136 10.595,12.760 9.129,14.384 8.148,14.384 7.164,14.384 6.197,14.384 6.197,10.966 6.197,10.966 6.197,10.966 7.565,10.966 8.959,10.966 10.354,10.966 10.354,9.544 10.353,8.123 10.353,6.701 Z M 15.394,9.809 C 15.330,9.812 15.267,9.840 15.220,9.892 9.835,15.859 9.835,15.859 9.835,15.859 9.741,15.963 9.748,16.125 9.851,16.220 9.903,16.267 9.969,16.289 10.033,16.286 10.098,16.283 10.161,16.255 10.208,16.203 15.592,10.237 15.592,10.237 15.592,10.237 15.686,10.133 15.678,9.971 15.576,9.876 15.524,9.828 15.459,9.806 15.394,9.809 Z M 16.194,11.827 C 17.085,11.827 17.085,11.827 17.085,11.827 17.085,13.741 17.085,13.741 17.085,13.741 16.292,13.741 15.444,13.741 14.652,13.741 14.652,14.151 14.652,14.533 14.652,14.971 14.652,17.842 14.652,17.842 14.652,17.842 13.995,18.143 13.339,18.444 12.683,18.717 12.683,15.717 12.683,15.717 12.683,15.717 13.853,14.421 15.024,13.124 16.194,11.827 Z M 7.464,17.599 C 7.442,17.599 7.421,17.600 7.399,17.601 6.706,17.632 6.168,18.228 6.200,18.930 6.232,19.631 6.822,20.176 7.515,20.145 8.208,20.113 8.746,19.516 8.715,18.815 8.684,18.136 8.129,17.603 7.464,17.599 Z M 7.462,18.017 C 7.909,18.019 8.282,18.377 8.302,18.834 8.324,19.305 7.962,19.706 7.496,19.728 7.030,19.749 6.634,19.382 6.612,18.911 6.591,18.439 6.952,18.039 7.418,18.017 7.433,18.017 7.447,18.017 7.462,18.017 Z " />
</svg>