<?xml version="1.0" encoding="UTF-8" standalone="no"?>
<!DOCTYPE svg PUBLIC "-//W3C//DTD SVG 20010904//EN" "http://www.w3.org/TR/2001/REC-SVG-20010904/DTD/svg10.dtd"[]>
<svg version="1.1" id="Frosty Editor v1.0.6.3" xmlns="http://www.w3.org/2000/svg" d1p1:xlink="http://www.w3.org/1999/xlink" viewBox="0 0 101 25" xmlns:d1p1="xmlns">
  <path stroke="none" fill="#ffffffff" d="M 46.732,21.902 C 44.828,20.941 44.828,20.941 44.828,20.941 44.476,20.974 44.476,20.974 44.476,20.974 43.948,21.023 43.652,20.919 43.296,20.563 42.973,20.240 42.865,19.983 42.865,19.535 42.864,18.837 43.330,18.249 44.007,18.097 44.167,18.061 44.294,17.860 45.428,15.842 46.187,14.493 46.673,13.566 46.673,13.471 46.673,13.244 46.478,13.171 46.060,13.243 45.665,13.311 45.308,13.255 44.961,13.070 44.710,12.936 44.710,12.936 44.710,12.936 26.984,12.907 26.984,12.907 26.984,12.907 9.257,12.877 9.257,12.877 9.257,12.877 9.239,12.599 9.239,12.599 9.239,12.599 9.221,12.321 9.221,12.321 9.221,12.321 8.646,12.321 8.646,12.321 8.646,12.321 8.205,12.321 8.053,12.341 7.997,12.409 7.936,12.482 7.697,12.496 6.528,12.496 5.132,12.496 5.132,12.496 5.132,12.496 5.114,12.804 5.114,12.804 5.114,12.804 5.096,13.112 5.096,13.112 5.096,13.112 3.169,13.127 3.169,13.127 3.169,13.127 1.796,13.138 1.220,13.124 1.162,13.076 1.099,13.023 1.082,12.741 1.082,11.727 1.082,10.509 1.077,10.445 0.971,10.445 0.910,10.445 0.844,10.404 0.825,10.353 0.805,10.302 0.789,9.761 0.789,9.150 0.789,8.040 0.789,8.040 0.789,8.040 0.939,7.983 0.939,7.983 0.939,7.983 1.022,7.951 1.167,7.926 1.262,7.926 1.434,7.926 1.434,7.926 1.434,7.926 1.434,5.711 1.434,5.711 1.434,5.711 1.434,4.066 1.452,3.477 1.504,3.425 1.558,3.371 3.079,3.355 7.996,3.355 13.528,3.355 14.434,3.367 14.539,3.440 14.606,3.487 15.455,3.725 16.426,3.968 18.191,4.410 18.191,4.410 18.191,4.410 20.026,4.410 20.026,4.410 20.026,4.410 21.745,4.410 21.875,4.402 22.090,4.292 22.253,4.209 22.436,4.175 22.718,4.175 23.116,4.175 23.116,4.175 23.116,4.175 23.116,3.454 23.116,3.454 23.116,3.454 23.116,2.972 23.139,2.710 23.186,2.663 23.288,2.561 33.140,2.561 33.242,2.663 33.289,2.710 33.312,2.972 33.312,3.454 33.312,4.175 33.312,4.175 33.312,4.175 33.738,4.175 33.738,4.175 33.738,4.175 34.052,4.175 34.221,4.206 34.383,4.292 34.701,4.463 35.585,4.463 35.731,4.292 35.827,4.180 35.904,4.175 37.648,4.175 39.401,4.175 39.467,4.179 39.538,4.292 39.600,4.391 39.674,4.410 40.022,4.410 40.370,4.410 40.445,4.391 40.507,4.292 40.553,4.218 40.643,4.175 40.755,4.175 40.931,4.175 40.931,4.175 40.931,4.175 40.931,3.734 40.931,3.734 40.931,3.734 40.931,3.299 40.934,3.290 41.172,3.031 41.414,2.769 41.414,2.769 41.414,2.769 47.178,2.769 47.178,2.769 47.178,2.769 52.941,2.769 52.941,2.769 52.941,2.769 53.023,2.901 53.023,2.901 53.023,2.901 53.068,2.973 53.205,3.290 53.327,3.604 53.549,4.175 53.549,4.175 53.549,4.175 53.902,4.175 53.902,4.175 53.902,4.175 54.137,4.175 54.682,4.283 55.527,4.497 56.753,4.808 56.828,4.820 57.576,4.820 58.258,4.820 58.515,4.852 59.696,5.083 61.039,5.347 61.039,5.347 61.039,5.347 67.657,5.347 67.657,5.347 67.657,5.347 73.274,5.347 74.274,5.335 74.274,5.266 74.274,5.221 74.320,5.166 74.376,5.145 74.433,5.123 75.652,4.941 77.087,4.740 79.695,4.375 79.695,4.375 79.695,4.375 81.482,4.384 81.482,4.384 81.482,4.384 82.482,4.389 86.124,4.513 89.745,4.665 99.552,5.077 100.312,5.114 100.394,5.182 100.488,5.260 100.502,7.019 100.410,7.076 100.377,7.096 99.751,7.138 99.018,7.169 98.285,7.200 94.521,7.359 90.653,7.523 86.418,7.702 82.817,7.826 81.599,7.834 79.578,7.849 79.578,7.849 79.578,7.849 76.980,7.478 76.980,7.478 76.980,7.478 75.551,7.274 74.358,7.091 74.328,7.073 74.299,7.055 74.274,7.001 74.274,6.954 74.274,6.879 73.413,6.871 67.521,6.885 60.767,6.902 60.767,6.902 60.767,6.902 59.595,7.162 59.595,7.162 59.595,7.162 58.518,7.400 58.349,7.422 57.515,7.433 56.634,7.445 56.571,7.454 55.432,7.744 54.257,8.043 54.257,8.043 54.257,8.043 52.267,8.047 52.267,8.047 52.267,8.047 51.173,8.050 50.304,8.062 50.336,8.074 50.368,8.087 51.792,8.243 53.500,8.422 55.209,8.601 56.667,8.762 56.742,8.778 56.853,8.803 56.874,8.841 56.859,8.991 56.841,9.170 56.807,9.189 55.551,9.755 54.393,10.276 54.065,10.393 52.328,10.902 50.395,11.469 50.395,11.469 50.395,11.469 49.320,11.499 49.320,11.499 49.320,11.499 48.246,11.530 48.246,11.530 48.246,11.530 50.024,12.458 50.024,12.458 50.024,12.458 51.001,12.969 51.825,13.410 51.855,13.438 51.888,13.469 51.884,13.545 51.845,13.630 51.789,13.754 51.799,13.779 51.929,13.838 52.054,13.896 52.126,13.881 52.408,13.743 52.884,13.509 53.433,13.513 53.871,13.754 54.221,13.947 54.469,14.229 54.651,14.640 54.752,14.868 54.769,14.999 54.748,15.363 54.712,15.964 54.523,16.321 54.044,16.694 53.814,16.873 52.482,19.850 52.540,20.057 52.674,20.539 52.543,21.200 52.256,21.492 51.868,21.886 51.771,21.938 51.366,21.972 51.022,22.001 50.923,21.985 50.648,21.860 50.454,21.771 50.257,21.622 50.142,21.477 49.975,21.266 49.847,21.197 48.973,20.846 47.731,20.348 47.696,20.339 48.380,20.694 48.690,20.855 48.956,21.022 48.970,21.064 49.001,21.153 48.915,22.687 48.873,22.796 48.858,22.836 48.798,22.867 48.741,22.866 48.684,22.864 47.780,22.430 46.732,21.902 Z M 48.571,22.217 C 48.591,22.116 48.607,21.854 48.607,21.635 48.607,21.236 48.607,21.236 48.607,21.236 47.150,20.470 47.150,20.470 47.150,20.470 46.349,20.049 45.680,19.704 45.664,19.704 45.647,19.704 45.619,19.798 45.600,19.913 45.582,20.027 45.471,20.254 45.354,20.417 45.237,20.579 45.150,20.720 45.160,20.729 45.197,20.762 48.461,22.394 48.497,22.397 48.518,22.399 48.550,22.318 48.571,22.217 Z M 51.699,21.364 C 51.979,21.156 52.085,20.956 52.107,20.599 52.145,19.989 51.770,19.574 51.183,19.574 50.663,19.574 50.307,19.962 50.307,20.529 50.307,21.127 50.719,21.547 51.263,21.502 51.420,21.489 51.614,21.428 51.699,21.364 Z M 49.816,20.506 C 49.820,20.330 49.878,20.071 49.948,19.911 50.017,19.755 50.066,19.620 50.056,19.610 50.046,19.600 49.407,19.353 48.634,19.059 47.230,18.526 47.230,18.526 47.230,18.526 46.947,18.837 46.947,18.837 46.947,18.837 46.791,19.008 46.615,19.215 46.555,19.298 46.447,19.448 46.447,19.448 46.447,19.448 48.128,20.130 48.128,20.130 48.128,20.130 49.052,20.506 49.809,20.814 49.809,20.815 49.809,20.817 49.812,20.677 49.816,20.506 Z M 44.728,20.366 C 45.494,19.794 45.197,18.587 44.287,18.573 43.263,18.558 42.954,20.012 43.890,20.445 44.117,20.550 44.534,20.511 44.728,20.366 Z M 52.826,18.313 C 53.124,17.644 53.378,17.070 53.390,17.038 53.404,17.004 53.285,16.977 53.105,16.975 52.712,16.969 52.422,16.871 52.148,16.653 52.028,16.558 51.915,16.494 51.898,16.511 51.881,16.528 51.691,17.102 51.476,17.786 51.085,19.030 51.085,19.030 51.085,19.030 51.384,19.094 51.384,19.094 51.384,19.094 51.717,19.164 52.005,19.298 52.120,19.437 52.162,19.487 52.216,19.529 52.241,19.529 52.265,19.529 52.529,18.981 52.826,18.313 Z M 46.404,18.915 C 46.626,18.643 46.880,18.352 46.967,18.268 47.126,18.116 47.126,18.116 47.126,18.116 48.760,18.734 48.760,18.734 48.760,18.734 50.385,19.349 50.395,19.352 50.538,19.246 50.655,19.159 50.773,18.848 51.161,17.611 51.640,16.083 51.640,16.083 51.640,16.083 51.536,15.773 51.536,15.773 51.536,15.773 51.450,15.522 51.390,15.443 51.211,15.351 51.013,15.249 50.987,15.248 50.939,15.333 50.858,15.477 50.752,15.450 50.158,15.129 49.607,14.832 49.607,14.832 49.607,14.832 49.333,15.042 49.333,15.042 49.333,15.042 49.182,15.157 48.964,15.280 48.848,15.315 48.658,15.373 48.499,15.575 47.259,17.342 46.502,18.422 45.874,19.329 45.863,19.358 45.852,19.387 45.878,19.411 45.921,19.411 45.964,19.411 46.182,19.188 46.404,18.915 Z M 46.957,17.157 C 48.187,15.400 48.187,15.400 48.187,15.400 47.940,15.337 47.940,15.337 47.940,15.337 47.479,15.220 47.149,14.957 46.889,14.496 46.744,14.240 46.744,14.240 46.744,14.240 46.656,14.379 46.656,14.379 46.656,14.379 46.543,14.558 44.564,18.074 44.564,18.096 44.564,18.105 44.651,18.142 44.758,18.177 44.993,18.255 45.404,18.648 45.504,18.891 45.564,19.036 45.591,19.054 45.652,18.990 45.694,18.948 46.281,18.123 46.957,17.157 Z M 53.499,16.451 C 53.579,16.435 53.742,16.336 53.860,16.232 54.432,15.730 54.433,14.831 53.863,14.330 53.667,14.159 53.336,14.021 53.119,14.021 52.905,14.021 52.572,14.158 52.382,14.325 51.800,14.836 51.799,15.723 52.379,16.232 52.694,16.508 52.967,16.562 53.499,16.451 Z M 51.479,14.966 C 51.479,14.906 51.554,14.707 51.647,14.524 51.806,14.209 51.809,14.188 51.707,14.134 51.613,14.084 51.571,14.131 51.386,14.498 51.185,14.897 51.179,14.925 51.279,14.998 51.423,15.103 51.479,15.095 51.479,14.966 Z M 51.104,14.274 C 51.294,13.914 51.436,13.607 51.420,13.593 51.391,13.568 47.424,11.500 47.404,11.500 47.398,11.500 47.378,11.642 47.360,11.816 47.321,12.194 47.200,12.452 46.927,12.738 46.724,12.949 46.724,12.949 46.724,12.949 48.706,13.979 48.706,13.979 48.706,13.979 49.796,14.545 50.704,14.990 50.724,14.968 50.743,14.946 50.915,14.634 51.104,14.274 Z M 48.838,14.796 C 48.949,14.740 49.049,14.665 49.060,14.630 49.077,14.574 47.427,13.671 47.210,13.619 47.083,13.588 47.172,14.048 47.351,14.354 47.639,14.846 48.334,15.053 48.838,14.796 Z M 46.258,12.675 C 46.689,12.455 46.938,12.011 46.898,11.532 46.879,11.299 46.879,11.299 46.879,11.299 45.892,10.985 45.892,10.985 45.892,10.985 44.950,10.685 44.902,10.676 44.822,10.778 44.447,11.255 44.497,12.094 44.922,12.475 45.293,12.806 45.840,12.888 46.258,12.675 Z M 4.657,12.588 C 4.657,12.530 4.577,12.497 4.408,12.485 4.159,12.467 4.159,12.467 4.159,12.467 4.159,11.588 4.159,11.588 4.159,11.588 4.159,10.709 4.159,10.709 4.159,10.709 4.408,10.691 4.408,10.691 4.408,10.691 4.610,10.676 4.657,10.651 4.657,10.558 4.657,10.447 4.612,10.444 3.118,10.459 1.580,10.475 1.580,10.475 1.580,10.475 1.564,11.574 1.564,11.574 1.564,11.574 1.548,12.672 1.548,12.672 1.548,12.672 3.103,12.672 3.103,12.672 3.103,12.672 4.417,12.672 4.657,12.659 4.657,12.588 Z M 26.564,12.504 C 26.553,12.476 26.344,12.241 26.099,11.982 25.693,11.552 25.586,11.476 24.869,11.116 24.083,10.721 24.083,10.721 24.083,10.721 22.383,10.675 22.383,10.675 22.383,10.675 21.449,10.649 18.185,10.626 15.132,10.625 9.579,10.621 9.579,10.621 9.579,10.621 9.579,11.588 9.579,11.588 9.579,11.588 9.579,12.555 9.579,12.555 9.579,12.555 18.081,12.555 18.081,12.555 18.081,12.555 22.893,12.555 26.575,12.533 26.564,12.504 Z M 44.298,12.453 C 44.060,11.890 44.030,11.381 44.207,10.915 44.318,10.621 44.318,10.621 44.318,10.621 41.812,10.621 41.812,10.621 41.812,10.621 39.306,10.621 39.306,10.621 39.306,10.621 37.994,11.213 37.994,11.213 37.994,11.213 36.722,11.787 36.517,11.910 35.893,12.477 35.821,12.542 36.518,12.555 40.075,12.555 44.116,12.555 44.340,12.550 44.298,12.453 Z M 35.813,11.922 C 36.396,11.419 36.440,11.393 37.805,10.779 39.202,10.150 39.202,10.150 39.202,10.150 42.027,10.151 42.027,10.151 42.027,10.151 44.853,10.152 44.853,10.152 44.853,10.152 46.221,10.592 46.221,10.592 46.221,10.592 47.588,11.031 47.588,11.031 47.588,11.031 48.863,11.031 48.863,11.031 48.863,11.031 50.138,11.031 50.138,11.031 50.138,11.031 52.083,10.472 52.083,10.472 52.083,10.472 53.553,10.050 54.225,9.825 54.834,9.554 55.277,9.356 55.639,9.179 55.639,9.159 55.639,9.140 54.196,8.972 52.431,8.786 49.223,8.448 49.223,8.448 49.223,8.448 28.683,8.412 28.683,8.412 28.683,8.412 8.143,8.375 8.143,8.375 8.143,8.375 7.528,8.902 7.528,8.902 7.528,8.902 7.190,9.192 6.694,9.589 6.426,9.784 5.939,10.139 5.939,10.139 5.939,10.139 14.987,10.161 14.987,10.161 14.987,10.161 24.035,10.182 24.035,10.182 24.035,10.182 24.988,10.651 24.988,10.651 24.988,10.651 25.941,11.119 25.941,11.119 25.941,11.119 26.556,11.779 26.556,11.779 26.556,11.779 27.171,12.438 27.171,12.438 27.171,12.438 31.194,12.438 31.194,12.438 31.194,12.438 35.217,12.437 35.217,12.437 35.217,12.437 Z M 7.692,11.574 C 7.708,11.031 7.708,11.031 7.708,11.031 6.095,11.031 6.095,11.031 6.095,11.031 4.481,11.031 4.481,11.031 4.481,11.031 4.481,11.589 4.481,11.589 4.481,11.589 4.481,12.147 4.481,12.147 4.481,12.147 6.078,12.131 6.078,12.131 6.078,12.131 7.675,12.116 7.675,12.116 7.675,12.116 Z M 9.228,11.588 C 9.228,11.090 9.228,11.090 9.228,11.090 8.642,11.090 8.642,11.090 8.642,11.090 8.056,11.090 8.056,11.090 8.056,11.090 8.056,11.588 8.056,11.588 8.056,11.588 8.056,12.086 8.056,12.086 8.056,12.086 8.642,12.086 8.642,12.086 8.642,12.086 9.228,12.086 9.228,12.086 9.228,12.086 Z M 9.228,10.709 C 9.228,10.632 8.965,10.623 7.162,10.635 5.394,10.646 5.303,10.651 6.530,10.665 7.366,10.675 7.988,10.706 8.022,10.740 8.053,10.771 8.337,10.797 8.653,10.797 9.125,10.797 9.228,10.781 9.228,10.709 Z M 4.950,9.215 C 4.950,8.453 4.950,8.453 4.950,8.453 3.104,8.453 3.104,8.453 3.104,8.453 1.258,8.453 1.258,8.453 1.258,8.453 1.258,9.215 1.258,9.215 1.258,9.215 1.258,9.977 1.258,9.977 1.258,9.977 3.104,9.977 3.104,9.977 3.104,9.977 4.950,9.977 4.950,9.977 4.950,9.977 Z M 6.385,9.223 C 6.579,9.079 6.762,8.939 6.793,8.912 6.823,8.885 6.527,8.863 6.133,8.863 5.419,8.863 5.419,8.863 5.419,8.863 5.419,9.396 5.419,9.396 5.419,9.396 5.419,9.928 5.419,9.928 5.419,9.928 5.726,9.706 5.726,9.706 5.726,9.706 5.895,9.584 6.192,9.367 6.385,9.223 Z M 7.599,8.232 C 7.705,8.142 7.842,8.030 7.904,7.983 7.999,7.909 8.447,7.896 10.893,7.896 13.769,7.896 13.769,7.896 13.769,7.896 13.769,5.875 13.769,5.875 13.769,5.875 13.769,3.853 13.769,3.853 13.769,3.853 7.836,3.838 7.836,3.838 7.836,3.838 1.903,3.823 1.903,3.823 1.903,3.823 1.903,5.874 1.903,5.874 1.903,5.874 1.903,7.926 1.903,7.926 1.903,7.926 3.547,7.926 3.547,7.926 3.547,7.926 4.569,7.926 5.235,7.949 5.305,7.986 5.368,8.020 5.419,8.108 5.419,8.182 5.419,8.256 5.436,8.334 5.458,8.355 5.479,8.377 5.927,8.394 6.452,8.394 7.407,8.394 7.407,8.394 7.407,8.394 Z M 40.462,7.896 C 40.462,7.827 40.377,7.808 40.055,7.808 39.831,7.808 39.633,7.833 39.615,7.862 39.565,7.943 39.692,7.974 40.096,7.980 40.384,7.983 40.462,7.966 40.462,7.896 Z M 17.080,7.645 C 18.164,7.369 18.164,7.369 18.164,7.369 18.180,6.131 18.180,6.131 18.180,6.131 18.196,4.894 18.196,4.894 18.196,4.894 16.291,4.417 16.291,4.417 16.291,4.417 15.243,4.155 14.359,3.941 14.327,3.941 14.288,3.941 14.267,4.630 14.267,5.933 14.267,7.926 14.267,7.926 14.267,7.926 15.132,7.923 15.132,7.923 15.132,7.923 15.965,7.920 16.035,7.910 17.080,7.645 Z M 21.915,7.867 C 21.870,7.794 18.334,7.794 18.164,7.867 18.096,7.897 18.855,7.919 19.999,7.921 21.286,7.924 21.939,7.906 21.915,7.867 Z M 35.657,7.867 C 35.657,7.791 34.661,7.791 34.543,7.867 34.483,7.906 34.646,7.924 35.056,7.925 35.418,7.925 35.657,7.902 35.657,7.867 Z M 34.258,7.477 C 34.320,7.402 34.338,7.103 34.338,6.124 34.338,4.875 34.337,4.867 34.200,4.756 34.096,4.672 33.968,4.644 33.690,4.644 33.318,4.644 33.318,4.644 33.318,4.644 33.301,4.981 33.301,4.981 33.301,4.981 33.283,5.318 33.283,5.318 33.283,5.318 28.279,5.333 28.279,5.333 28.279,5.333 24.631,5.344 23.254,5.330 23.196,5.282 23.148,5.242 23.116,5.098 23.116,4.923 23.116,4.631 23.116,4.631 23.116,4.631 22.713,4.654 22.713,4.654 22.713,4.654 22.095,4.688 22.120,4.629 22.120,6.091 22.120,6.845 22.144,7.393 22.180,7.461 22.240,7.572 22.369,7.574 28.209,7.574 33.689,7.574 34.184,7.566 34.258,7.477 Z M 39.114,6.108 C 39.114,4.642 39.114,4.642 39.114,4.642 37.634,4.658 37.634,4.658 37.634,4.658 36.155,4.673 36.155,4.673 36.155,4.673 36.139,6.124 36.139,6.124 36.139,6.124 36.123,7.574 36.123,7.574 36.123,7.574 37.619,7.574 37.619,7.574 37.619,7.574 39.114,7.574 39.114,7.574 39.114,7.574 Z M 53.999,6.358 C 53.999,5.142 53.999,5.142 53.999,5.142 47.716,5.157 47.716,5.157 47.716,5.157 41.434,5.172 41.434,5.172 41.434,5.172 41.182,4.925 41.182,4.925 41.182,4.925 40.931,4.678 40.931,4.678 40.931,4.678 40.931,6.126 40.931,6.126 40.931,6.126 40.931,7.574 40.931,7.574 40.931,7.574 47.465,7.574 47.465,7.574 47.465,7.574 53.999,7.574 53.999,7.574 53.999,7.574 Z M 55.626,7.210 C 56.639,6.961 56.639,6.961 56.639,6.961 56.622,6.114 56.622,6.114 56.622,6.114 56.606,5.266 56.606,5.266 56.606,5.266 55.610,5.015 55.610,5.015 55.610,5.015 55.062,4.877 54.594,4.764 54.570,4.763 54.546,4.762 54.526,5.368 54.526,6.109 54.526,6.850 54.546,7.457 54.570,7.458 54.594,7.459 55.069,7.347 55.626,7.210 Z M 90.477,7.046 C 94.313,6.888 97.939,6.743 98.535,6.724 99.131,6.705 99.705,6.677 99.810,6.660 100.000,6.631 100.000,6.631 100.000,6.631 100.000,6.112 100.000,6.112 100.000,6.112 100.000,5.593 100.000,5.593 100.000,5.593 99.458,5.555 99.458,5.555 99.458,5.555 99.160,5.535 95.369,5.375 91.034,5.200 86.699,5.024 82.856,4.863 82.493,4.842 81.834,4.804 81.834,4.804 81.834,4.804 81.834,6.106 81.834,6.106 81.834,6.106 81.834,7.408 81.834,7.408 81.834,7.408 82.669,7.371 82.669,7.371 82.669,7.371 83.128,7.350 86.642,7.204 90.477,7.046 Z M 21.651,6.138 C 21.651,4.937 21.651,4.937 21.651,4.937 20.157,4.937 20.157,4.937 20.157,4.937 18.662,4.937 18.662,4.937 18.662,4.937 18.662,6.138 18.662,6.138 18.662,6.138 18.662,7.340 18.662,7.340 18.662,7.340 20.157,7.340 20.157,7.340 20.157,7.340 21.651,7.340 21.651,7.340 21.651,7.340 Z M 35.657,6.138 C 35.657,4.937 35.657,4.937 35.657,4.937 35.246,4.937 35.246,4.937 35.246,4.937 34.836,4.937 34.836,4.937 34.836,4.937 34.836,6.138 34.836,6.138 34.836,6.138 34.836,7.340 34.836,7.340 34.836,7.340 35.246,7.340 35.246,7.340 35.246,7.340 35.657,7.340 35.657,7.340 35.657,7.340 Z M 40.462,6.138 C 40.462,4.937 40.462,4.937 40.462,4.937 40.022,4.937 40.022,4.937 40.022,4.937 39.583,4.937 39.583,4.937 39.583,4.937 39.583,6.138 39.583,6.138 39.583,6.138 39.583,7.340 39.583,7.340 39.583,7.340 40.022,7.340 40.022,7.340 40.022,7.340 40.462,7.340 40.462,7.340 40.462,7.340 Z M 79.607,6.109 C 79.607,5.165 79.590,4.878 79.534,4.876 79.493,4.875 78.399,5.026 77.102,5.211 74.743,5.550 74.743,5.550 74.743,5.550 74.743,6.116 74.743,6.116 74.743,6.116 74.743,6.683 74.743,6.683 74.743,6.683 75.227,6.752 75.227,6.752 75.227,6.752 75.492,6.789 76.488,6.934 77.439,7.074 78.390,7.213 79.266,7.330 79.387,7.333 79.607,7.340 79.607,7.340 79.607,7.340 Z M 81.189,6.138 C 81.189,4.937 81.189,4.937 81.189,4.937 80.691,4.937 80.691,4.937 80.691,4.937 80.193,4.937 80.193,4.937 80.193,4.937 80.193,6.138 80.193,6.138 80.193,6.138 80.193,7.340 80.193,7.340 80.193,7.340 80.691,7.340 80.691,7.340 80.691,7.340 81.189,7.340 81.189,7.340 81.189,7.340 Z M 58.101,6.138 C 58.101,5.347 58.101,5.347 58.101,5.347 57.602,5.347 57.602,5.347 57.602,5.347 57.104,5.347 57.104,5.347 57.104,5.347 57.104,6.138 57.104,6.138 57.104,6.138 57.104,6.929 57.104,6.929 57.104,6.929 57.602,6.929 57.602,6.929 57.602,6.929 58.101,6.929 58.101,6.929 58.101,6.929 Z M 59.815,6.632 C 60.796,6.444 60.796,6.444 60.796,6.444 60.796,6.113 60.796,6.113 60.796,6.113 60.796,5.782 60.796,5.782 60.796,5.782 59.785,5.584 59.785,5.584 59.785,5.584 59.229,5.475 58.728,5.374 58.672,5.360 58.578,5.336 58.569,5.399 58.569,6.109 58.569,6.883 58.569,6.883 58.701,6.851 58.774,6.833 59.275,6.734 59.815,6.632 Z M 74.274,6.109 C 74.274,5.816 74.274,5.816 74.274,5.816 67.770,5.816 67.770,5.816 67.770,5.816 61.265,5.816 61.265,5.816 61.265,5.816 61.265,6.109 61.265,6.109 61.265,6.109 61.265,6.402 61.265,6.402 61.265,6.402 67.770,6.402 67.770,6.402 67.770,6.402 74.274,6.402 74.274,6.402 74.274,6.402 Z M 32.844,3.970 C 32.844,3.062 32.844,3.062 32.844,3.062 28.214,3.062 28.214,3.062 28.214,3.062 23.585,3.062 23.585,3.062 23.585,3.062 23.585,3.970 23.585,3.970 23.585,3.970 23.585,4.878 23.585,4.878 23.585,4.878 28.214,4.878 28.214,4.878 28.214,4.878 32.844,4.878 32.844,4.878 32.844,4.878 Z M 53.999,4.761 C 53.999,4.696 53.959,4.644 53.910,4.644 53.836,4.644 53.834,4.663 53.895,4.761 53.935,4.826 53.975,4.878 53.983,4.878 53.992,4.878 53.999,4.826 53.999,4.761 Z M 44.902,3.985 C 44.886,3.150 44.886,3.150 44.886,3.150 43.222,3.134 43.222,3.134 43.222,3.134 41.735,3.120 41.546,3.129 41.449,3.216 41.356,3.300 41.341,3.407 41.341,3.960 41.341,4.478 41.360,4.627 41.438,4.713 41.527,4.812 41.662,4.820 43.227,4.820 44.919,4.820 44.919,4.820 44.919,4.820 Z M 49.076,4.366 C 49.075,4.116 49.058,3.733 49.038,3.516 49.001,3.120 49.001,3.120 49.001,3.120 47.134,3.120 47.134,3.120 47.134,3.120 45.267,3.120 45.267,3.120 45.267,3.120 45.267,3.970 45.267,3.970 45.267,3.970 45.267,4.820 45.267,4.820 45.267,4.820 47.172,4.820 47.172,4.820 47.172,4.820 49.076,4.820 49.076,4.820 49.076,4.820 Z M 53.469,4.776 C 53.468,4.752 53.429,4.681 53.383,4.620 53.336,4.558 53.176,4.196 53.028,3.814 52.758,3.120 52.758,3.120 52.758,3.120 51.058,3.120 51.058,3.120 51.058,3.120 49.358,3.120 49.358,3.120 49.358,3.120 49.391,3.457 49.391,3.457 49.391,3.457 49.409,3.643 49.440,4.025 49.460,4.307 49.497,4.820 49.497,4.820 49.497,4.820 51.484,4.820 51.484,4.820 51.484,4.820 52.577,4.820 53.470,4.800 53.469,4.776 Z " />
</svg>