<?xml version="1.0" encoding="UTF-8" standalone="no"?>
<!-- Created with Inkscape (http://www.inkscape.org/) -->

<svg width="5737.1426" height="897.43164" viewBox="0 0 1517.9523 237.44545" version="1.1" id="svg5" inkscape:version="1.1.1 (3bf5ae0d25, 2021-09-20)" sodipodi:docname="BF_logo.svg" xmlns:inkscape="http://www.inkscape.org/namespaces/inkscape" xmlns:sodipodi="http://sodipodi.sourceforge.net/DTD/sodipodi-0.dtd" xmlns="http://www.w3.org/2000/svg" xmlns:svg="http://www.w3.org/2000/svg">
  <sodipodi:namedview id="namedview7" pagecolor="#ffffff" bordercolor="#999999" borderopacity="1" inkscape:pageshadow="0" inkscape:pageopacity="0" inkscape:pagecheckerboard="true" inkscape:document-units="px" showgrid="false" width="384mm" units="px" borderlayer="false" showborder="true" inkscape:showpageshadow="true" inkscape:zoom="0.19150809" inkscape:cx="2916.3259" inkscape:cy="603.10768" inkscape:window-width="1920" inkscape:window-height="1017" inkscape:window-x="1912" inkscape:window-y="-8" inkscape:window-maximized="1" inkscape:current-layer="layer1" fit-margin-top="0" fit-margin-left="0" fit-margin-right="0" fit-margin-bottom="0" />
  <defs id="defs2" />
  <g inkscape:label="Layer 1" inkscape:groupmode="layer" id="layer1" transform="translate(711.29359,108.97351)">
    <g id="g1533" transform="matrix(1.1401098,0,0,1.1401098,-605.12603,-420.02971)">
      <path id="path891" d="M -81.781777,272.83004 L -93.120471,290.13045 L 1238.2884,290.6585 L 1226.9497,272.83004 Z M 125.1275,315.7953 C 125.2605,323.3953 125.39473,330.99556 125.52772,338.59557 H 128.32751 C 128.62751,337.29557 129.72763,334.19548 131.32762,331.8955 C 133.62763,328.49549 133.72769,327.69555 142.8277,327.39553 C 150.5947,327.19554 158.36044,326.99542 166.12745,326.79543 V 390.79551 C 166.12745,405.19551 166.12745,416.99538 165.32744,423.49538 C 164.82744,427.99538 163.92748,431.49551 160.82749,432.09551 C 159.42749,432.39551 155.12776,432.89551 152.72778,432.89551 V 435.4954 H 198.22766 V 432.89551 C 195.92766,432.89551 191.52748,432.39551 190.12748,432.09551 C 187.02747,431.49551 186.02753,427.99538 185.62752,423.49538 C 184.82753,416.89538 184.82753,405.09551 184.82753,390.79551 V 326.79543 C 192.59453,326.99542 200.36072,327.19554 208.12772,327.39553 C 217.22772,327.69555 217.22779,328.49549 219.6278,331.8955 C 221.22779,334.19548 222.32747,337.39556 222.62746,338.59557 H 225.42769 C 225.56069,330.99556 225.69446,323.3953 225.82745,315.7953 H 223.8277 C 222.5277,316.29531 221.02763,317.39536 217.12763,317.69536 C 212.62762,318.19537 206.62784,318.49537 201.52784,318.49537 H 149.32788 C 144.12788,318.49537 138.22764,318.19537 133.72763,317.69536 C 129.82762,317.39536 128.32756,316.29531 127.02756,315.7953 Z M 230.52776,315.7953 C 230.66076,323.3953 230.79453,330.99556 230.92753,338.59557 H 233.72775 C 234.02775,337.29557 235.12788,334.19548 236.72788,331.8955 C 239.02788,328.49549 239.12749,327.69555 248.22749,327.39553 C 255.99449,327.19554 263.76069,326.99542 271.52769,326.79543 V 390.79551 C 271.52769,405.19551 271.52769,416.99538 270.72769,423.49538 C 270.22769,427.99538 269.32774,431.49551 266.22774,432.09551 C 264.82774,432.39551 260.52756,432.89551 258.12756,432.89551 V 435.4954 H 303.62745 V 432.89551 C 301.32745,432.89551 296.92772,432.39551 295.52773,432.09551 C 292.42772,431.49551 291.42778,427.99538 291.02778,423.49538 C 290.22778,416.89538 290.22778,405.09551 290.22778,390.79551 V 326.79543 C 297.99477,326.99542 305.76052,327.19554 313.52752,327.39553 C 322.62752,327.69555 322.62759,328.49549 325.02759,331.8955 C 326.62759,334.19548 327.72771,337.39556 328.02771,338.59557 H 330.82749 C 330.96049,330.99556 331.09471,323.3953 331.22771,315.7953 H 329.22749 C 327.92749,316.29531 326.42787,317.39536 322.52787,317.69536 C 318.02787,318.19537 312.02763,318.49537 306.92763,318.49537 H 254.72767 C 249.52767,318.49537 243.62788,318.19537 239.12788,317.69536 C 235.22788,317.39536 233.72782,316.29531 232.42782,315.7953 Z M 971.12746,315.7953 C 971.26046,323.3953 971.39469,330.99556 971.52769,338.59557 H 974.32747 C 974.62747,337.39556 975.72759,334.19548 977.32758,331.8955 C 979.62759,328.49549 979.72766,327.69555 988.82766,327.39553 C 996.59466,327.19554 1004.3619,326.99542 1012.1279,326.79543 V 390.79551 C 1012.1279,405.19551 1012.1279,416.99538 1011.3279,423.49538 C 1010.8279,427.99538 1009.9275,431.49551 1006.8275,432.09551 C 1005.4275,432.39551 1001.1278,432.89551 998.72774,432.89551 V 435.4954 H 1044.2277 V 432.89551 C 1041.9277,432.89551 1037.6279,432.39551 1036.1279,432.09551 C 1033.0279,431.49551 1032.0275,427.99538 1031.6275,423.49538 C 1030.8275,416.89538 1030.8275,405.09551 1030.8275,390.79551 V 326.79543 C 1038.5945,326.99542 1046.3617,327.19554 1054.1277,327.39553 C 1063.1277,327.69555 1063.2278,328.49549 1065.6278,331.8955 C 1067.2278,334.19548 1068.3279,337.39556 1068.6279,338.59557 H 1071.4277 C 1071.5617,330.99556 1071.6949,323.3953 1071.8279,315.7953 H 1069.8277 C 1068.5277,316.29531 1067.0276,317.39536 1063.1276,317.69536 C 1058.6276,318.19537 1052.6278,318.49537 1047.5278,318.49537 H 995.32784 C 990.22784,318.49537 984.2276,318.19537 979.72759,317.69536 C 975.82759,317.39536 974.32752,316.29531 973.02752,315.7953 Z M 78.527563,316.29524 C 77.227563,316.29524 76.327509,317.49559 75.027509,320.49559 C 74.727491,321.0956 74.427775,321.79538 74.12778,322.49536 C 61.194777,354.49538 48.260497,386.49549 35.327494,418.49549 C 32.227503,426.19549 29.227718,431.49557 22.127705,432.39557 C 20.927703,432.49556 19.527705,432.69562 18.127706,432.69562 V 435.39523 H 53.427475 V 432.59545 H 51.127631 C 46.327647,432.59545 44.927509,430.59544 44.927509,427.79545 C 44.927509,425.99545 45.627799,422.29532 47.227793,418.39532 C 50.027813,411.32832 52.827578,404.26252 55.627598,397.19552 C 55.927593,396.29552 56.227703,395.99529 57.027712,395.99529 H 91.527472 C 92.227459,395.99529 92.727752,396.29535 93.027747,397.09535 C 97.160744,407.72835 101.29453,418.36222 105.42752,428.99522 C 107.32754,433.39522 103.22782,432.69534 102.12781,432.79534 V 435.4954 H 140.92764 V 432.69562 C 139.02765,432.69562 136.72746,432.59551 134.42745,432.09551 C 131.22746,431.29551 126.72745,429.09532 120.82744,415.19532 C 110.92745,391.69532 86.127846,329.79558 82.427842,321.29559 C 80.827847,317.69559 79.927561,316.29524 78.527563,316.29524 Z M 770.92779,316.29524 C 724.52777,316.29524 707.02785,350.49561 707.02785,376.99561 C 707.02785,404.39561 724.92777,437.69534 769.32777,437.59535 C 808.62777,437.59535 833.42758,409.59538 833.42758,374.19538 C 833.42758,338.69538 809.42778,316.29524 770.92779,316.29524 Z M 499.92776,316.89535 C 499.62776,316.89535 497.02786,318.49537 490.92787,318.49537 H 452.22776 H 429.12744 V 321.29559 C 431.32744,321.29559 433.92768,321.39555 435.12768,321.79554 C 440.22768,322.89554 441.42775,325.39554 441.82775,330.59555 C 442.12775,335.49555 442.1278,339.89559 442.1278,363.39559 V 390.59562 C 442.1278,404.79562 442.1278,417.09555 441.3278,423.59555 C 440.7278,428.09555 439.92785,431.49551 436.82785,432.09551 C 435.42785,432.39551 433.62784,432.69562 431.22784,432.69562 V 435.4954 H 494.22759 C 500.12759,435.4954 501.52782,435.4954 502.62782,431.49539 C 503.42782,428.39539 504.72777,415.59531 504.72777,411.99531 H 502.12788 C 501.02788,418.29531 498.8277,423.89522 494.8277,425.79522 C 490.8277,427.69522 484.32751,427.69528 480.32751,427.69528 C 464.52751,427.69528 462.0276,425.39537 461.7276,414.69537 C 461.5276,410.19537 461.7276,395.99534 461.7276,390.69534 V 378.49544 C 461.7276,377.59544 461.92777,376.89544 462.62777,376.89544 C 466.32777,376.89544 481.62757,377.09538 484.62757,377.39538 C 490.32757,377.99538 492.52787,380.29562 493.32787,383.39561 C 493.82787,385.39562 494.02759,388.29534 494.22759,389.89534 H 496.82748 C 497.49448,381.42834 498.16071,372.96265 498.8277,364.49564 H 496.82748 C 495.42748,365.99564 493.82786,368.79526 487.72786,368.79526 C 484.12786,368.79526 466.32783,369.0953 462.92783,369.0953 C 462.02783,369.0953 461.82777,368.49559 461.82777,367.39559 V 328.29526 C 461.82777,327.19526 462.12783,326.69527 462.92783,326.69527 C 466.02783,326.69527 482.22763,326.99538 484.92763,327.29537 C 492.62763,328.19538 494.32781,330.09537 495.42781,332.89539 C 496.22781,334.79538 496.62759,339.59534 496.62759,340.59532 H 499.12776 C 499.89476,332.69532 500.6606,324.79537 501.4276,316.89535 Z M 591.02771,316.89535 C 591.22771,316.89535 588.52759,318.49537 582.42759,318.49537 H 541.52782 H 518.32779 V 321.29559 C 520.52779,321.29559 523.12757,321.49554 524.32757,321.79554 C 529.42757,322.89554 530.62764,325.39554 531.02763,330.59555 C 531.32763,335.59555 531.32769,339.89559 531.32769,363.39559 V 390.59562 C 531.32769,405.49562 531.32769,417.09555 530.52769,423.59555 C 529.92769,428.09555 529.12774,431.49551 526.02774,432.09551 C 524.62774,432.39551 522.52785,432.69562 520.22785,432.69562 V 435.4954 H 565.32751 V 432.69562 C 563.12751,432.69562 559.72784,432.39551 557.52784,432.09551 C 552.92784,431.49551 551.9276,428.09555 551.5276,423.59555 C 550.7276,417.09555 550.7276,405.49562 550.7276,390.59562 V 378.09521 C 550.7276,376.99521 551.02766,376.69555 551.82766,376.69555 C 554.42766,376.69555 570.82763,376.69549 574.72763,377.19549 C 579.52763,377.79549 581.82747,380.5955 582.62747,382.7955 C 583.22747,384.6955 583.52765,388.19523 583.52765,389.29523 H 586.2277 C 586.99471,381.06223 587.76054,372.82835 588.52754,364.59536 H 586.52776 C 585.02776,366.59537 582.52747,368.89542 578.62747,368.89542 C 576.42747,368.89542 574.3278,369.0953 571.6278,369.0953 C 565.0278,369.1623 558.42766,369.22865 551.82766,369.29565 C 550.92766,369.29565 550.7276,368.79554 550.7276,367.89553 V 328.99555 C 550.7276,327.29553 551.22772,326.79543 552.12772,326.79543 C 560.06072,326.96242 567.99486,327.12838 575.92786,327.29537 C 581.82786,327.49537 585.02754,329.79549 586.12753,331.8955 C 587.02754,334.09548 587.42748,338.99528 587.42748,340.29528 H 589.92765 C 590.66065,332.49528 591.39477,324.69535 592.12777,316.89535 Z M -63.772465,318.49537 V 321.29559 C -61.972451,321.29559 -59.372451,321.49554 -58.172449,321.79554 C -52.972448,322.89554 -51.772377,325.29555 -51.472382,330.59555 C -51.172387,335.59555 -51.172318,339.89559 -51.172318,363.39559 V 390.59562 C -51.172318,404.89562 -51.172318,417.09555 -51.972327,423.59555 C -52.572316,428.09555 -53.372279,431.49551 -56.47227,432.09551 C -57.672272,432.39551 -60.672172,432.59562 -63.072176,432.69562 V 435.4954 H -19.372162 C 9.1278199,435.4954 21.927824,418.79541 21.927824,402.19541 C 21.927824,384.09541 6.42745,373.09526 -6.2725568,368.79526 C 2.2274549,361.99527 9.5275807,354.3954 9.5275807,341.6954 C 9.5275807,333.4954 4.5276462,318.49537 -23.472345,318.49537 Z M 343.02784,318.49537 V 321.19541 C 345.02784,321.19541 346.92745,321.39536 348.12745,321.69536 C 353.32745,322.79536 354.52752,325.19539 354.82752,330.49538 C 355.12752,335.39537 355.12758,339.79543 355.12758,363.29543 V 390.09523 C 355.12758,404.39523 355.12757,416.59561 354.32757,423.09561 C 353.72758,427.59561 352.92763,430.99556 349.82763,431.59556 C 348.52763,431.89556 346.52762,432.19522 344.22762,432.19522 C 344.16062,433.32823 344.09473,434.46257 344.02773,435.59557 H 409.22759 C 417.32759,435.59557 418.12749,434.79522 419.02749,431.39522 C 420.22749,426.89522 421.32778,414.99526 421.32778,413.29526 H 418.52754 C 418.22754,416.29526 416.42754,420.59521 414.52754,422.59521 C 410.72754,426.69521 404.52786,426.89527 396.32786,426.89527 C 384.32786,426.89527 380.22778,425.79538 377.62778,423.49538 C 374.42777,420.69538 374.42777,409.9954 374.42777,390.1954 V 363.39559 C 374.42777,339.89559 374.42783,335.49555 374.72783,330.59555 C 375.02783,325.19555 376.22755,322.59552 380.42755,321.79554 C 382.32755,321.49554 384.8275,321.29559 386.5275,321.29559 V 318.49537 Z M 648.82767,318.49537 C 644.02767,318.49537 632.32776,318.99531 627.02776,318.99531 H 605.0275 V 321.39531 C 607.1275,321.39531 609.82774,321.59524 611.02774,321.89526 C 616.22774,322.99526 617.4278,325.39527 617.7278,330.69527 C 618.0278,335.59527 618.02786,339.99531 618.02786,363.49531 V 390.69534 C 618.02786,404.99534 618.02786,417.19527 617.22786,423.69527 C 616.62786,428.19527 615.82746,431.59523 612.72746,432.19522 C 611.32746,432.49523 609.42745,432.79534 607.12745,432.79534 V 435.59557 H 650.62756 V 432.79534 C 648.72756,432.79534 645.32778,432.49523 643.02778,432.19522 C 638.42778,431.59523 637.52754,428.19527 637.02754,423.69527 C 636.22754,417.19527 636.22754,404.99563 636.22754,390.59562 V 388.39551 C 636.22754,387.49551 636.62777,387.19528 637.42777,387.19528 L 650.92762,387.49534 C 652.02762,387.49534 652.92785,387.6954 653.72785,388.59539 C 655.72785,390.9954 662.82759,401.49554 669.02759,409.99554 C 677.72759,421.89554 683.52784,429.09562 690.22784,432.69562 C 694.32784,434.79562 698.12752,435.59557 706.82753,435.59557 H 722.62765 V 432.79534 C 721.42767,432.79534 720.0276,432.5954 718.32761,432.29539 C 716.0276,431.89539 709.72762,430.79521 701.02763,421.79521 C 691.82763,412.19521 681.22758,398.39533 667.42758,381.09533 C 683.02758,368.39534 687.82784,357.89522 687.82784,346.39522 C 687.82784,335.99522 681.62765,328.09543 677.32766,325.19543 C 668.92765,319.39542 658.52767,318.49537 648.82767,318.49537 Z M 833.12752,318.49537 V 321.79554 C 837.12752,321.89554 840.52787,322.79548 842.92788,323.89548 C 845.52788,325.19548 849.12758,327.99534 849.4276,341.39533 V 342.39522 C 849.06058,365.82822 848.69454,389.26259 848.32753,412.6956 C 848.12753,426.1956 847.52752,430.69562 843.52752,431.89562 C 841.32754,432.49562 837.02757,432.69562 835.02758,432.69562 V 435.4954 H 876.62763 V 432.69562 C 874.12763,432.69562 868.92779,432.49556 866.32779,431.59556 C 863.2278,430.49557 861.22767,426.49532 860.92768,414.39531 C 860.36066,392.89532 859.79449,371.39529 859.2275,349.8953 H 859.72788 C 862.5279,352.79529 879.72748,371.69551 896.52748,388.39551 C 912.62748,404.29551 932.42771,424.5954 942.22772,433.8954 C 943.92771,435.5954 945.82765,437.29529 947.52767,437.29529 C 948.92767,437.29529 949.52789,435.89528 949.52789,432.49528 C 950.0949,399.96228 950.66062,367.42861 951.22761,334.89561 C 951.4276,326.1956 952.62779,322.99536 956.92778,321.69536 C 958.8278,321.19536 962.82768,321.19541 964.3277,321.19541 V 318.49537 H 924.52752 V 321.29559 C 926.72753,321.29559 931.12771,321.29532 933.42771,322.1953 C 937.12769,323.69532 938.52764,326.69538 938.72766,336.09538 C 939.22766,359.26238 939.72748,382.4283 940.22748,405.5953 H 939.42749 C 936.82749,403.0953 915.92767,380.79554 905.42767,370.29554 C 882.82766,347.89554 859.32761,323.09526 857.4276,321.09525 C 856.0276,319.59525 855.22754,318.79536 854.72755,318.49537 Z M 1132.9099,318.95632 V 320.10578 C 1138.1099,321.20581 1138.1197,325.75606 1138.4197,331.05606 V 359.67888 V 369.16782 H 1128.9303 H 1100.3075 C 1095.0075,368.86783 1090.4572,368.85804 1089.3572,363.65804 H 1088.2078 V 375.59957 V 387.54112 H 1089.3572 C 1090.4572,382.34112 1095.0075,382.33131 1100.3075,382.03131 H 1128.9303 H 1138.4197 V 391.52027 V 420.14308 C 1138.1197,425.44309 1138.1099,429.99334 1132.9099,431.09335 V 432.24282 H 1144.8515 H 1156.793 V 431.09335 C 1151.593,429.99334 1151.5832,425.44309 1151.2832,420.14308 V 391.52027 V 382.03131 H 1160.7717 H 1189.3945 C 1194.6945,382.33131 1199.2448,382.34112 1200.3448,387.54112 H 1201.4943 V 375.59957 V 363.65804 H 1200.3448 C 1199.2448,368.85804 1194.6945,368.86783 1189.3945,369.16782 H 1160.7717 H 1151.2828 V 359.67888 V 331.05606 C 1151.5828,325.75606 1151.593,321.20578 1156.793,320.10578 V 318.95632 H 1144.851 Z M 766.42782,323.6956 C 791.72784,323.6956 811.72783,345.19554 811.72783,379.89555 C 811.72783,424.69555 786.62751,429.89522 775.82749,429.79522 C 746.12751,429.79522 728.32782,404.29543 728.32782,372.09544 C 728.32782,333.59542 748.62783,323.6956 766.42782,323.6956 Z M -26.072229,324.89537 C -12.772233,324.89537 -6.7725015,338.49541 -6.7725015,348.89541 C -6.7725015,356.49541 -9.0723214,361.99564 -13.072344,365.29565 C -15.672344,367.59566 -19.072168,368.1956 -24.17217,368.1956 C -27.772176,368.1956 -30.072367,367.99565 -31.472365,367.69565 C -32.072355,367.49566 -32.572416,367.19548 -32.572416,365.99547 V 327.79532 C -32.572416,326.09532 -32.272305,325.49543 -31.172301,325.19543 C -29.672305,324.89541 -28.272237,324.89537 -26.072229,324.89537 Z M 645.92773,325.89526 C 655.12773,325.89526 669.6277,332.19535 669.6277,354.19536 C 669.6277,366.89534 665.12763,373.99538 660.52763,377.39538 C 657.72763,379.39538 655.7275,379.99527 649.52751,379.99527 C 645.62751,379.99527 640.92783,379.49527 637.72783,378.39527 C 636.62783,377.89527 636.32771,377.29549 636.32771,375.59549 V 328.69549 C 636.32771,327.39549 636.62783,326.79538 637.72783,326.49536 C 639.22783,326.09537 642.02773,325.89526 645.92773,325.89526 Z M 74.627725,347.89552 C 75.127716,347.89552 75.227714,348.69562 75.427734,349.29563 C 80.060722,361.99564 84.694801,374.69562 89.327789,387.39562 C 89.427811,387.79562 89.327789,388.29534 88.527803,388.29534 H 60.127541 C 59.527529,388.29534 59.32788,387.79528 59.527877,387.19528 C 64.260863,374.56228 68.994546,361.92862 73.727555,349.29563 C 73.827554,348.69562 74.127734,347.89552 74.627725,347.89552 Z M -31.672246,374.49543 C -29.272242,374.49543 -27.772176,374.49532 -24.972179,374.69532 C -18.972169,374.99532 -15.372164,376.09527 -12.172151,378.39527 C -0.47217226,386.59527 2.8275139,399.59525 2.8275139,409.29525 C 2.8275139,425.39525 -8.8721161,429.09539 -15.872108,429.09539 C -19.472114,429.09539 -22.972284,428.89533 -27.172302,427.19533 C -32.072285,425.09533 -32.572416,422.49537 -32.572416,412.29537 V 375.59549 C -32.572416,374.79549 -32.272235,374.49543 -31.672246,374.49543 Z M 1238.2884,463.26699 L -93.120471,463.79549 L -81.781777,481.09546 H 1226.9497 Z" fill="#ffffff" style="stroke-width:0.232068" />
    </g>
  </g>
  <inkscape:templateinfo>
    <inkscape:name>Ability SVG</inkscape:name>
    <inkscape:author>Soulbruh</inkscape:author>
    <inkscape:shortdesc>Used for abilities in BFII</inkscape:shortdesc>
    <inkscape:date>2021-07-24</inkscape:date>
  </inkscape:templateinfo>
</svg>
