<?xml version="1.0" encoding="UTF-8" standalone="no"?>
<!DOCTYPE svg PUBLIC "-//W3C//DTD SVG 20010904//EN" "http://www.w3.org/TR/2001/REC-SVG-20010904/DTD/svg10.dtd"[]>
<svg version="1.1" id="Frosty Editor v1.0.6.3" xmlns="http://www.w3.org/2000/svg" d1p1:xlink="http://www.w3.org/1999/xlink" viewBox="0 0 25 25" xmlns:d1p1="xmlns">
  <path stroke="none" fill="#ffffffff" d="M 9.495,4.381 C 9.406,4.382 9.316,4.388 9.229,4.399 9.055,4.421 8.872,4.431 8.687,4.453 8.665,4.453 8.643,4.464 8.621,4.475 8.567,4.497 8.524,4.507 8.469,4.507 6.679,4.507 6.679,4.507 6.679,4.507 6.570,4.507 6.570,4.507 6.570,4.507 6.549,4.507 6.538,4.518 6.538,4.540 6.538,4.724 6.538,4.724 6.538,4.724 6.538,4.746 6.548,4.757 6.581,4.757 6.646,4.757 6.646,4.757 6.646,4.757 7.026,4.757 7.026,4.757 7.026,4.757 7.091,4.757 7.113,4.778 7.124,4.832 7.124,4.920 7.124,4.920 7.124,4.920 7.113,4.964 7.102,4.974 7.059,4.974 6.777,4.974 6.777,4.974 6.777,4.974 6.733,4.974 6.700,4.963 6.668,4.930 6.581,4.843 6.473,4.843 6.386,4.930 6.353,4.963 6.320,4.974 6.277,4.974 5.496,4.974 5.496,4.974 5.496,4.974 5.474,4.974 5.441,4.963 5.420,4.985 5.420,5.104 5.420,5.104 5.420,5.104 5.420,5.136 5.420,5.136 5.420,5.136 5.420,5.169 5.419,5.180 5.386,5.180 5.224,5.180 5.224,5.180 5.224,5.180 5.213,5.201 5.213,5.224 5.235,5.267 5.235,5.506 5.235,5.506 5.235,5.506 5.246,5.560 5.225,5.603 5.170,5.636 4.997,5.766 4.921,5.929 4.943,6.146 4.964,6.298 5.040,6.428 5.181,6.515 5.224,6.537 5.235,6.569 5.235,6.624 5.235,6.895 5.235,6.895 5.235,6.895 5.235,6.917 5.246,6.927 5.268,6.927 5.398,6.927 5.398,6.927 5.398,6.927 5.420,6.927 5.431,6.939 5.431,6.961 5.431,7.090 5.431,7.090 5.431,7.090 5.431,7.112 5.441,7.123 5.463,7.123 5.604,7.123 5.604,7.123 5.604,7.123 5.626,7.134 5.637,7.134 5.637,7.167 5.637,7.221 5.637,7.286 5.647,7.340 5.658,7.395 5.669,7.449 5.713,7.503 5.810,7.633 5.930,7.709 6.092,7.731 6.233,7.753 6.364,7.753 6.505,7.753 6.613,7.753 6.733,7.774 6.842,7.806 6.939,7.839 7.015,7.893 7.080,7.969 7.124,8.023 7.167,8.078 7.189,8.143 7.243,8.284 7.254,8.425 7.167,8.555 7.156,8.577 7.135,8.599 7.124,8.621 6.907,8.957 6.701,9.294 6.494,9.630 6.169,10.151 5.854,10.672 5.528,11.193 5.420,11.356 5.322,11.508 5.235,11.682 5.116,11.920 5.007,12.148 4.953,12.398 4.931,12.463 4.920,12.539 4.910,12.604 4.888,12.767 4.910,12.930 4.910,13.093 4.910,13.169 4.975,13.223 5.051,13.234 5.137,13.234 5.137,13.234 5.137,13.234 5.181,13.223 5.214,13.244 5.246,13.277 5.344,13.385 5.452,13.494 5.561,13.592 5.647,13.668 5.735,13.733 5.822,13.798 5.865,13.831 5.876,13.831 5.898,13.787 5.952,13.701 6.006,13.614 6.060,13.528 6.093,13.462 6.093,13.462 6.169,13.494 6.549,13.646 6.939,13.798 7.330,13.950 7.525,14.026 7.710,14.059 7.917,14.048 8.014,14.048 8.101,14.015 8.177,13.950 8.318,13.830 8.383,13.668 8.405,13.483 8.416,13.385 8.415,13.300 8.415,13.202 8.426,13.050 8.426,12.908 8.437,12.767 8.448,12.647 8.492,12.540 8.568,12.453 8.665,12.322 8.665,12.322 8.665,12.322 8.882,11.996 9.088,11.682 9.305,11.357 9.576,10.955 9.848,10.542 10.120,10.140 10.141,10.108 10.163,10.075 10.195,10.042 10.282,9.956 10.402,9.902 10.521,9.869 10.651,9.837 10.771,9.793 10.890,9.728 10.988,9.663 11.096,9.598 11.161,9.489 11.161,9.478 11.172,9.468 11.183,9.479 11.226,9.522 11.226,9.522 11.226,9.522 11.541,9.848 11.921,9.989 12.377,9.913 13.050,9.793 13.463,9.164 13.387,8.545 13.387,8.491 13.376,8.447 13.365,8.393 13.365,8.371 13.365,8.350 13.376,8.328 13.430,8.252 13.473,8.165 13.517,8.089 13.538,8.056 13.560,8.024 13.582,7.991 13.614,7.948 13.669,7.926 13.723,7.926 13.810,7.926 13.810,7.926 13.810,7.926 14.266,7.926 14.266,7.926 14.266,7.926 14.461,7.926 14.645,7.872 14.786,7.731 14.797,7.720 14.798,7.720 14.809,7.709 14.830,7.677 14.852,7.676 14.884,7.676 15.504,7.676 15.504,7.676 15.504,7.676 15.547,7.676 15.590,7.666 15.633,7.655 15.970,7.557 16.307,7.471 16.643,7.384 16.687,7.373 16.719,7.373 16.751,7.340 16.751,6.927 16.751,6.927 16.751,6.927 16.751,6.862 16.763,6.863 16.817,6.863 16.904,6.863 16.904,6.863 16.904,6.863 16.915,6.863 16.926,6.874 16.926,6.885 16.926,6.906 16.915,6.938 16.926,6.971 16.937,6.971 16.958,6.982 16.969,6.982 17.132,7.004 17.305,7.025 17.468,7.047 17.989,7.112 17.989,7.112 17.989,7.112 18.087,7.123 18.185,7.145 18.293,7.145 19.541,7.145 19.541,7.145 19.541,7.145 19.563,7.145 19.584,7.144 19.606,7.134 19.606,7.069 19.606,7.069 19.606,7.069 19.606,6.548 19.606,6.548 19.606,6.548 19.606,6.494 19.606,6.494 19.661,6.472 19.747,6.440 19.845,6.407 19.932,6.374 19.964,6.363 19.975,6.341 19.975,6.309 19.975,5.962 19.975,5.962 19.975,5.962 19.975,5.636 19.975,5.636 19.975,5.636 19.975,5.614 19.964,5.604 19.943,5.593 19.845,5.550 19.758,5.517 19.661,5.484 19.606,5.462 19.606,5.473 19.606,5.397 19.606,5.332 19.606,5.332 19.606,5.332 19.606,4.854 19.606,4.854 19.606,4.854 19.606,4.822 19.595,4.811 19.562,4.811 19.519,4.811 19.519,4.811 19.519,4.811 18.325,4.811 18.325,4.811 18.325,4.811 18.260,4.811 18.260,4.811 18.260,4.811 18.108,4.833 17.967,4.844 17.815,4.866 17.630,4.887 17.457,4.908 17.273,4.930 17.175,4.941 17.066,4.963 16.969,4.974 16.936,4.984 16.936,4.996 16.936,5.028 16.936,5.050 16.957,5.072 16.936,5.104 16.871,5.104 16.871,5.104 16.871,5.104 16.611,5.104 16.611,5.104 16.611,5.104 16.524,5.104 16.524,5.093 16.524,5.180 16.524,5.234 16.524,5.234 16.524,5.234 16.524,5.256 16.512,5.267 16.491,5.267 16.415,5.267 16.415,5.267 16.415,5.267 15.710,5.267 15.710,5.267 15.710,5.267 15.601,5.278 15.492,5.256 15.395,5.201 15.340,5.169 15.275,5.158 15.210,5.158 15.015,5.158 15.015,5.158 15.015,5.158 14.939,5.158 14.939,5.169 14.939,5.083 14.939,4.974 14.950,4.985 14.841,4.985 12.486,4.985 12.486,4.985 12.486,4.985 12.453,4.985 12.421,5.006 12.389,4.974 12.378,4.963 12.399,4.952 12.486,4.942 12.670,4.920 12.866,4.887 13.050,4.854 13.180,4.832 13.311,4.822 13.441,4.832 13.864,4.866 13.864,4.866 13.864,4.866 14.179,4.887 14.505,4.908 14.819,4.930 14.950,4.930 15.069,4.941 15.188,4.952 15.232,4.952 15.275,4.963 15.330,4.952 15.351,4.908 15.341,4.876 15.341,4.832 15.341,4.789 15.340,4.746 15.330,4.703 15.254,4.703 15.177,4.691 15.112,4.691 14.884,4.681 14.667,4.659 14.439,4.648 14.200,4.637 13.973,4.616 13.734,4.605 13.604,4.605 13.485,4.594 13.365,4.583 13.322,4.583 13.279,4.583 13.246,4.550 13.235,4.539 13.213,4.540 13.203,4.540 13.159,4.529 13.115,4.529 13.072,4.518 12.866,4.486 12.670,4.453 12.464,4.421 12.431,4.410 12.399,4.410 12.367,4.421 12.324,4.431 12.280,4.431 12.226,4.431 11.835,4.421 11.433,4.420 11.032,4.409 10.608,4.398 10.184,4.388 9.761,4.388 9.674,4.382 9.585,4.379 9.495,4.381 Z M 9.035,4.683 C 9.053,4.682 9.071,4.682 9.090,4.683 9.216,4.684 9.345,4.698 9.474,4.725 10.521,4.947 11.190,5.977 10.969,7.024 10.746,8.071 9.717,8.739 8.669,8.517 7.622,8.295 6.954,7.265 7.176,6.218 7.367,5.318 8.153,4.698 9.035,4.683 Z M 8.193,5.106 C 8.193,8.187 8.193,8.187 8.193,8.187 8.835,8.187 8.835,8.187 8.835,8.187 8.835,5.106 8.835,5.106 8.835,5.106 Z M 9.329,5.106 C 9.329,8.187 9.329,8.187 9.329,8.187 9.971,8.187 9.971,8.187 9.971,8.187 9.971,5.106 9.971,5.106 9.971,5.106 Z M 12.236,7.724 C 12.257,7.722 12.280,7.726 12.301,7.731 12.486,7.764 12.649,7.839 12.790,7.969 13.050,8.219 13.148,8.534 13.061,8.881 12.975,9.229 12.746,9.456 12.399,9.554 11.889,9.695 11.357,9.359 11.259,8.849 11.194,8.502 11.291,8.198 11.563,7.959 11.574,7.948 11.585,7.948 11.585,7.926 11.595,7.937 11.596,7.958 11.574,7.969 11.542,8.056 11.509,8.133 11.487,8.219 11.389,8.729 11.737,9.121 12.073,9.218 12.095,9.207 12.106,9.175 12.117,9.153 12.139,9.099 12.139,9.098 12.095,9.066 11.911,8.936 11.791,8.762 11.759,8.534 11.704,8.241 11.856,7.894 12.171,7.742 12.193,7.731 12.214,7.725 12.236,7.724 Z M 14.685,8.885 C 14.523,9.286 14.362,9.686 14.200,10.087 14.200,10.163 14.200,10.163 14.200,10.163 19.315,10.163 19.315,10.163 19.315,10.163 19.315,10.087 19.315,10.087 19.315,10.087 19.154,9.686 18.992,9.286 18.831,8.885 Z M 14.200,10.529 C 14.200,16.009 14.200,16.009 14.200,16.009 14.200,18.018 14.200,18.018 14.200,18.018 16.027,18.018 16.027,18.018 16.027,18.018 16.027,18.749 16.027,18.749 16.027,18.749 17.489,18.749 17.489,18.749 17.489,18.749 17.489,18.018 17.489,18.018 17.489,18.018 19.315,18.018 19.315,18.018 19.315,18.018 19.315,16.009 19.315,16.009 19.315,16.009 19.315,10.529 19.315,10.529 19.315,10.529 Z M 16.722,12.182 C 16.864,12.179 17.008,12.192 17.153,12.223 18.184,12.442 18.843,13.456 18.624,14.487 18.405,15.518 17.392,16.177 16.361,15.958 15.330,15.739 14.672,14.725 14.891,13.694 15.079,12.808 15.853,12.197 16.722,12.182 Z M 15.892,12.599 C 15.892,15.632 15.892,15.632 15.892,15.632 16.523,15.632 16.523,15.632 16.523,15.632 16.523,12.599 16.523,12.599 16.523,12.599 Z M 17.010,12.599 C 17.010,15.632 17.010,15.632 17.010,15.632 17.642,15.632 17.642,15.632 17.642,15.632 17.642,12.599 17.642,12.599 17.642,12.599 Z M 14.200,18.384 C 14.200,19.480 14.200,19.480 14.200,19.480 19.315,19.480 19.315,19.480 19.315,19.480 19.315,18.384 19.315,18.384 19.315,18.384 17.854,18.384 17.854,18.384 17.854,18.384 17.854,19.114 17.854,19.114 17.854,19.114 15.662,19.114 15.662,19.114 15.662,19.114 15.662,18.384 15.662,18.384 15.662,18.384 Z M 14.262,19.844 C 14.403,20.149 14.542,20.454 14.683,20.758 18.946,20.758 18.946,20.758 18.946,20.758 19.087,20.454 19.227,20.149 19.368,19.844 Z " />
</svg>