<?xml version="1.0" encoding="UTF-8" standalone="no"?>
<!DOCTYPE svg PUBLIC "-//W3C//DTD SVG 20010904//EN" "http://www.w3.org/TR/2001/REC-SVG-20010904/DTD/svg10.dtd"[]>
<svg version="1.1" id="Frosty Editor v1.0.6.3" xmlns="http://www.w3.org/2000/svg" d1p1:xlink="http://www.w3.org/1999/xlink" viewBox="0 0 96 96" xmlns:d1p1="xmlns">
  <path stroke="none" fill="#ffffffff" d="M 44.310,30.610 C 36.867,30.610 29.423,30.610 21.980,30.610 21.433,31.530 20.887,32.450 20.340,33.370 27.783,33.370 35.227,33.370 42.670,33.370 43.217,32.450 43.763,31.530 44.310,30.610 44.310,30.610 44.310,30.610 44.310,30.610 Z " />
  <path stroke="none" fill="#ffffffff" d="M 39.770,38.250 C 32.327,38.250 24.883,38.250 17.440,38.250 16.890,39.173 16.340,40.097 15.790,41.020 23.233,41.020 30.677,41.020 38.120,41.020 38.670,40.097 39.220,39.173 39.770,38.250 39.770,38.250 39.770,38.250 39.770,38.250 Z " />
  <path stroke="none" fill="#ffffffff" d="M 35.210,45.900 C 27.767,45.900 20.323,45.900 12.880,45.900 12.333,46.820 11.787,47.740 11.240,48.660 18.683,48.660 26.127,48.660 33.570,48.660 34.117,47.740 34.663,46.820 35.210,45.900 35.210,45.900 35.210,45.900 35.210,45.900 Z " />
  <path stroke="none" fill="#ffffffff" d="M 65.782,19.002 C 68.840,19.089 71.249,21.638 71.163,24.697 71.076,27.755 68.527,30.164 65.468,30.078 62.410,29.991 60.001,27.442 60.087,24.383 60.174,21.325 62.723,18.916 65.782,19.002 65.782,19.002 65.782,19.002 65.782,19.002 Z " />
  <path stroke="none" fill="#ffffffff" d="M 82.150,32.530 C 79.053,32.413 75.957,32.297 72.860,32.180 74.627,29.673 76.393,27.167 78.160,24.660 74.520,27.217 70.880,29.773 67.240,32.330 68.029,32.867 68.561,33.707 68.710,34.650 68.950,36.790 69.340,39.380 69.270,39.330 72.580,40.220 75.890,41.110 79.200,42.000 77.163,39.930 75.127,37.860 73.090,35.790 76.110,34.703 79.130,33.617 82.150,32.530 Z " />
  <path stroke="none" fill="#ffffffff" d="M 44.950,42.900 C 46.085,43.326 47.350,42.753 47.780,41.620 48.993,38.413 50.207,35.207 51.420,32.000 52.313,32.400 53.207,32.800 54.100,33.200 54.571,32.321 55.160,31.510 55.850,30.790 56.518,30.214 57.351,29.865 58.230,29.790 55.977,28.790 53.723,27.790 51.470,26.790 51.369,26.753 51.265,26.723 51.160,26.700 51.140,26.700 51.120,26.700 51.100,26.700 49.965,26.274 48.700,26.847 48.270,27.980 46.733,32.047 45.197,36.113 43.660,40.180 43.305,41.285 43.870,42.476 44.950,42.900 44.950,42.900 44.950,42.900 44.950,42.900 Z " />
  <path stroke="none" fill="#ffffffff" d="M 62.950,41.800 C 63.100,43.017 63.250,44.233 63.400,45.450 62.440,45.547 61.480,45.643 60.520,45.740 61.330,44.427 62.140,43.113 62.950,41.800 Z M 66.000,55.850 C 63.223,54.233 60.447,52.617 57.670,51.000 57.950,50.547 58.230,50.093 58.510,49.640 60.650,49.477 62.790,49.313 64.930,49.150 65.199,49.122 65.460,49.044 65.700,48.920 66.851,48.554 67.578,47.419 67.430,46.220 66.977,42.607 66.523,38.993 66.070,35.380 65.890,33.900 64.270,32.970 63.910,32.750 63.420,32.450 62.930,32.150 62.440,31.850 60.263,30.514 57.416,31.189 56.070,33.360 53.253,37.940 50.437,42.520 47.620,47.100 47.573,47.180 47.542,47.268 47.530,47.360 47.467,47.439 47.410,47.522 47.360,47.610 46.750,48.820 47.490,50.540 49.010,51.450 52.753,53.680 56.497,55.910 60.240,58.140 55.750,60.093 51.260,62.047 46.770,64.000 45.551,64.524 44.922,65.881 45.310,67.150 45.360,67.293 45.410,67.437 45.460,67.580 45.665,68.164 46.111,68.633 46.684,68.868 47.257,69.103 47.903,69.082 48.460,68.810 54.337,66.263 60.213,63.717 66.090,61.170 66.481,60.999 66.824,60.734 67.090,60.400 67.344,60.224 67.551,59.986 67.690,59.710 68.260,58.480 67.520,56.760 66.000,55.850 66.000,55.850 66.000,55.850 66.000,55.850 Z " />
  <path stroke="none" fill="#ffffffff" d="M 45.940,52.000 C 41.740,58.623 37.540,65.247 33.340,71.870 32.530,73.140 32.630,74.720 33.560,75.400 33.783,75.560 34.007,75.720 34.230,75.880 35.160,76.550 36.580,76.070 37.390,74.790 41.647,68.083 45.903,61.377 50.160,54.670 48.753,53.780 47.347,52.890 45.940,52.000 Z " />
</svg>