<?xml version="1.0" encoding="UTF-8" standalone="no"?>
<!DOCTYPE svg PUBLIC "-//W3C//DTD SVG 20010904//EN" "http://www.w3.org/TR/2001/REC-SVG-20010904/DTD/svg10.dtd"[]>
<svg version="1.1" id="Frosty Editor v1.0.6.3" xmlns="http://www.w3.org/2000/svg" d1p1:xlink="http://www.w3.org/1999/xlink" viewBox="0 0 384 96" xmlns:d1p1="xmlns">
  <path stroke="none" fill="none" d="M 128.060,9.980 C 128.823,9.980 129.587,9.980 130.350,9.980 130.350,9.847 130.350,9.713 130.350,9.580 129.573,9.580 128.797,9.580 128.020,9.580 128.033,9.713 128.047,9.847 128.060,9.980 128.060,9.980 128.060,9.980 128.060,9.980 Z " />
  <path stroke="none" fill="none" d="M 121.130,11.450 C 121.210,11.537 121.290,11.623 121.370,11.710 121.127,14.903 120.883,18.097 120.640,21.290 122.730,21.290 124.820,21.290 126.910,21.290 126.717,17.520 126.523,13.750 126.330,9.980 126.403,9.980 126.477,9.980 126.550,9.980 126.510,9.473 126.470,8.967 126.430,8.460 126.333,8.373 126.237,8.287 126.140,8.200 126.123,7.970 126.107,7.740 126.090,7.510 124.623,7.510 123.157,7.510 121.690,7.510 121.673,7.740 121.657,7.970 121.640,8.200 121.553,8.280 121.467,8.360 121.380,8.440 121.297,9.443 121.213,10.447 121.130,11.450 121.130,11.450 121.130,11.450 121.130,11.450 Z " />
  <path stroke="none" fill="none" d="M 144.290,9.880 C 144.343,9.880 144.397,9.880 144.450,9.880 144.457,12.053 144.463,14.227 144.470,16.400 144.913,16.447 145.357,16.493 145.800,16.540 145.800,16.723 145.800,16.907 145.800,17.090 150.520,17.627 155.240,18.163 159.960,18.700 159.960,15.243 159.960,11.787 159.960,8.330 159.880,8.247 159.800,8.163 159.720,8.080 159.720,6.720 159.720,5.360 159.720,4.000 154.670,4.000 149.620,4.000 144.570,4.000 144.570,5.360 144.570,6.720 144.570,8.080 144.477,8.177 144.383,8.273 144.290,8.370 144.290,8.873 144.290,9.377 144.290,9.880 144.290,9.880 144.290,9.880 144.290,9.880 Z " />
  <path stroke="none" fill="none" d="M 141.630,9.580 C 142.017,9.580 142.403,9.580 142.790,9.580 142.790,9.680 142.790,9.780 142.790,9.880 142.403,9.880 142.017,9.880 141.630,9.880 141.630,9.780 141.630,9.680 141.630,9.580 Z " />
  <path stroke="none" fill="none" d="M 155.650,25.630 C 155.263,25.630 154.877,25.630 154.490,25.630 153.997,26.033 153.503,26.437 153.010,26.840 153.010,28.227 153.010,29.613 153.010,31.000 148.517,31.000 144.023,31.000 139.530,31.000 139.530,32.703 139.530,34.407 139.530,36.110 137.993,36.110 136.457,36.110 134.920,36.110 134.920,36.480 134.920,36.850 134.920,37.220 141.830,37.233 148.740,37.247 155.650,37.260 155.650,33.383 155.650,29.507 155.650,25.630 155.650,25.630 155.650,25.630 155.650,25.630 Z " />
  <path stroke="none" fill="none" d="M 119.780,9.580 C 118.493,9.580 117.207,9.580 115.920,9.580 115.600,9.263 115.280,8.947 114.960,8.630 112.270,8.630 109.580,8.630 106.890,8.630 106.890,9.437 106.890,10.243 106.890,11.050 109.580,11.050 112.270,11.050 114.960,11.050 115.280,10.730 115.600,10.410 115.920,10.090 117.193,10.090 118.467,10.090 119.740,10.090 119.753,9.920 119.767,9.750 119.780,9.580 119.780,9.580 119.780,9.580 119.780,9.580 Z " />
  <path stroke="none" fill="none" d="M 132.120,11.420 C 134.700,11.407 137.280,11.393 139.860,11.380 139.860,10.880 139.860,10.380 139.860,9.880 139.950,9.880 140.040,9.880 140.130,9.880 140.130,9.320 140.130,8.760 140.130,8.200 140.113,8.183 140.097,8.167 140.080,8.150 137.370,8.150 134.660,8.150 131.950,8.150 131.917,8.183 131.883,8.217 131.850,8.250 131.850,8.827 131.850,9.403 131.850,9.980 131.940,9.980 132.030,9.980 132.120,9.980 132.120,10.460 132.120,10.940 132.120,11.420 132.120,11.420 132.120,11.420 132.120,11.420 Z " />
  <path stroke="none" fill="none" d="M 106.290,25.470 C 106.290,25.470 106.290,25.470 106.290,25.470 106.290,25.470 106.290,25.470 106.290,25.470 106.290,25.723 106.290,25.977 106.290,26.230 106.290,27.540 106.290,28.610 106.290,28.610 106.290,28.610 106.290,28.610 106.290,28.610 106.290,29.917 106.290,31.223 106.290,32.530 107.253,32.530 108.217,32.530 109.180,32.530 109.180,29.443 109.180,26.357 109.180,23.270 109.090,23.180 109.000,23.090 108.910,23.000 108.910,22.927 108.910,22.853 108.910,22.780 108.160,22.780 107.410,22.780 106.660,22.780 106.567,22.780 106.473,22.780 106.380,22.780 106.284,23.476 106.250,24.178 106.280,24.880 106.283,25.077 106.287,25.273 106.290,25.470 Z " />
  <path stroke="none" fill="none" d="M 153.920,52.690 C 154.775,53.405 155.541,54.221 156.200,55.120 156.960,52.290 157.720,49.460 158.480,46.630 155.760,46.340 153.040,46.050 150.320,45.760 150.320,46.200 150.320,46.640 150.320,47.080 150.636,48.520 151.291,49.864 152.230,51.000 152.746,51.609 153.311,52.174 153.920,52.690 153.920,52.690 153.920,52.690 153.920,52.690 Z " />
  <path stroke="none" fill="none" d="M 157.340,68.690 C 159.130,69.980 165.180,71.390 168.260,70.060 170.260,69.210 170.430,67.350 170.380,65.460 170.380,65.357 170.380,65.253 170.380,65.150 170.333,59.373 170.287,53.597 170.240,47.820 167.347,47.453 164.453,47.087 161.560,46.720 159.843,53.120 158.127,59.520 156.410,65.920 156.189,66.944 156.546,68.007 157.340,68.690 157.340,68.690 157.340,68.690 157.340,68.690 Z " />
  <path stroke="none" fill="none" d="M 114.230,24.500 C 115.033,24.500 115.837,24.500 116.640,24.500 116.640,27.197 116.640,29.893 116.640,32.590 115.837,32.590 115.033,32.590 114.230,32.590 114.230,29.893 114.230,27.197 114.230,24.500 Z " />
  <path stroke="none" fill="none" d="M 133.330,40.940 C 141.663,41.827 149.997,42.713 158.330,43.600 158.367,43.200 158.403,42.800 158.440,42.400 165.723,43.323 173.007,44.247 180.290,45.170 180.340,44.647 180.390,44.123 180.440,43.600 172.927,42.600 165.413,41.600 157.900,40.600 157.467,40.103 157.033,39.607 156.600,39.110 156.600,39.010 156.600,38.910 156.600,38.810 148.480,38.793 140.360,38.777 132.240,38.760 132.240,38.693 132.240,38.627 132.240,38.560 132.147,38.560 132.053,38.560 131.960,38.560 131.960,34.130 131.960,29.700 131.960,25.270 131.513,25.270 131.067,25.270 130.620,25.270 130.620,28.750 130.620,32.230 130.620,35.710 129.180,35.710 127.740,35.710 126.300,35.710 126.397,35.807 126.493,35.903 126.590,36.000 126.590,37.200 126.590,38.400 126.590,39.600 127.503,39.703 128.417,39.807 129.330,39.910 130.689,40.131 132.027,40.465 133.330,40.910 133.330,40.920 133.330,40.930 133.330,40.940 Z " />
  <path stroke="none" fill="none" d="M 110.680,24.500 C 111.363,24.500 112.047,24.500 112.730,24.500 112.730,27.197 112.730,29.893 112.730,32.590 112.047,32.590 111.363,32.590 110.680,32.590 110.680,29.893 110.680,27.197 110.680,24.500 Z " />
  <path stroke="none" fill="none" d="M 122.370,36.000 C 122.460,35.910 122.550,35.820 122.640,35.730 120.640,35.730 118.640,35.730 116.640,35.730 116.640,35.687 116.640,35.643 116.640,35.600 112.787,35.600 108.933,35.600 105.080,35.600 104.483,35.037 103.887,34.473 103.290,33.910 103.290,32.157 103.290,30.403 103.290,28.650 103.180,28.340 102.830,27.930 101.800,27.930 98.800,27.930 88.400,28.320 88.300,28.330 86.557,28.710 84.848,29.231 83.190,29.890 79.370,31.240 74.610,32.890 70.190,33.190 64.407,33.464 58.611,33.064 52.920,32.000 50.460,31.531 47.964,31.273 45.460,31.230 41.810,31.330 38.860,31.310 37.150,31.230 37.573,46.013 37.997,60.797 38.420,75.580 41.063,75.236 43.664,74.619 46.180,73.740 49.271,72.810 52.135,71.247 54.590,69.150 54.700,69.060 54.810,68.970 54.920,68.880 56.230,67.810 58.340,65.880 60.570,63.760 64.430,60.160 68.420,56.430 70.690,54.980 75.209,51.964 80.325,49.958 85.690,49.100 88.290,48.730 92.900,48.100 97.790,47.540 104.530,46.690 111.500,45.820 114.230,45.360 118.710,44.610 121.370,43.070 122.360,40.650 122.340,39.450 122.350,37.470 122.370,36.000 122.370,36.000 122.370,36.000 122.370,36.000 Z " />
  <path stroke="none" fill="none" d="M 145.830,22.060 C 148.750,22.060 151.670,22.060 154.590,22.060 154.590,21.240 154.590,20.420 154.590,19.600 151.663,19.267 148.737,18.933 145.810,18.600 145.817,19.753 145.823,20.907 145.830,22.060 145.830,22.060 145.830,22.060 145.830,22.060 Z " />
  <path stroke="none" fill="none" d="M 177.040,25.610 C 177.883,25.610 178.727,25.610 179.570,25.610 179.570,28.383 179.570,31.157 179.570,33.930 178.727,33.930 177.883,33.930 177.040,33.930 177.040,31.157 177.040,28.383 177.040,25.610 Z " />
  <path stroke="none" fill="none" d="M 181.070,35.200 C 181.123,35.257 181.177,35.313 181.230,35.370 181.360,35.370 181.490,35.370 181.620,35.370 181.620,31.640 181.620,27.910 181.620,24.180 181.490,24.180 181.360,24.180 181.230,24.180 181.177,24.233 181.123,24.287 181.070,24.340 181.070,27.960 181.070,31.580 181.070,35.200 181.070,35.200 181.070,35.200 181.070,35.200 Z " />
  <path stroke="none" fill="none" d="M 173.240,47.300 C 173.290,53.327 173.340,59.353 173.390,65.380 173.390,66.780 173.550,71.040 169.470,72.810 168.057,73.364 166.547,73.629 165.030,73.590 161.390,73.590 157.420,72.430 155.600,71.130 153.781,69.740 152.960,67.403 153.510,65.180 154.210,62.567 154.910,59.953 155.610,57.340 155.074,55.930 154.144,54.705 152.930,53.810 152.259,53.239 151.637,52.614 151.070,51.940 149.926,50.570 149.157,48.926 148.840,47.170 148.840,46.647 148.840,46.123 148.840,45.600 145.457,45.240 142.073,44.880 138.690,44.520 139.238,45.233 139.646,46.044 139.890,46.910 141.530,52.750 136.420,58.210 130.500,64.550 128.830,66.340 127.100,68.190 125.420,70.150 125.142,70.586 125.142,71.144 125.420,71.580 126.540,73.180 130.630,79.580 130.800,79.850 130.800,79.850 130.800,79.850 130.800,79.850 131.275,80.303 131.914,80.545 132.570,80.520 132.660,80.610 132.750,80.700 132.840,80.790 136.840,80.790 140.840,80.790 144.840,80.790 144.933,80.697 145.027,80.603 145.120,80.510 147.520,80.510 149.450,80.510 149.950,80.510 151.812,80.083 153.581,79.321 155.170,78.260 158.516,76.203 162.304,74.976 166.220,74.680 166.980,74.620 173.540,73.880 173.540,66.750 173.540,60.280 173.540,53.810 173.540,47.340 173.440,47.327 173.340,47.313 173.240,47.300 Z " />
  <path stroke="none" fill="none" d="M 174.730,24.500 C 175.000,24.500 175.270,24.500 175.540,24.500 175.540,28.017 175.540,31.533 175.540,35.050 175.270,35.050 175.000,35.050 174.730,35.050 174.730,31.533 174.730,28.017 174.730,24.500 Z " />
  <path stroke="none" fill="none" d="M 244.090,44.310 C 244.480,44.703 244.870,45.097 245.260,45.490 245.260,46.213 245.260,46.937 245.260,47.660 247.013,47.660 248.767,47.660 250.520,47.660 250.570,47.703 250.620,47.747 250.670,47.790 251.643,47.790 252.617,47.790 253.590,47.790 253.643,47.747 253.697,47.703 253.750,47.660 255.610,47.660 257.470,47.660 259.330,47.660 259.330,46.840 259.330,46.020 259.330,45.200 259.330,43.837 259.330,42.473 259.330,41.110 254.250,41.110 249.170,41.110 244.090,41.110 244.090,42.177 244.090,43.243 244.090,44.310 244.090,44.310 244.090,44.310 244.090,44.310 Z " />
  <path stroke="none" fill="none" d="M 324.350,16.320 C 324.160,16.510 323.970,16.700 323.780,16.890 323.780,25.477 323.780,34.063 323.780,42.650 323.970,42.843 324.160,43.037 324.350,43.230 324.350,43.210 324.350,43.190 324.350,43.170 324.850,42.670 325.350,42.170 325.850,41.670 325.850,33.737 325.850,25.803 325.850,17.870 325.350,17.353 324.850,16.837 324.350,16.320 324.350,16.320 324.350,16.320 324.350,16.320 Z " />
  <path stroke="none" fill="none" d="M 342.060,24.790 C 341.993,24.790 341.927,24.790 341.860,24.790 341.607,25.043 341.353,25.297 341.100,25.550 341.100,28.540 341.100,31.530 341.100,34.520 341.197,34.600 341.293,34.680 341.390,34.760 341.613,34.760 341.837,34.760 342.060,34.760 342.310,34.510 342.560,34.260 342.810,34.010 342.810,31.187 342.810,28.363 342.810,25.540 342.560,25.290 342.310,25.040 342.060,24.790 342.060,24.790 342.060,24.790 342.060,24.790 Z " />
  <path stroke="none" fill="none" d="M 157.590,20.830 C 159.157,20.830 160.723,20.830 162.290,20.830 162.290,18.117 162.290,15.403 162.290,12.690 162.013,12.690 161.737,12.690 161.460,12.690 161.460,15.253 161.460,17.817 161.460,20.380 160.170,20.233 158.880,20.087 157.590,19.940 157.590,20.237 157.590,20.533 157.590,20.830 157.590,20.830 157.590,20.830 157.590,20.830 Z " />
  <path stroke="none" fill="none" d="M 131.880,22.270 C 131.880,21.790 131.880,21.310 131.880,20.830 135.527,20.830 139.173,20.830 142.820,20.830 142.820,20.303 142.820,19.777 142.820,19.250 142.373,19.207 141.927,19.163 141.480,19.120 141.477,17.553 141.473,15.987 141.470,14.420 137.500,14.420 133.530,14.420 129.560,14.420 129.660,16.397 129.760,18.373 129.860,20.350 130.347,20.350 130.833,20.350 131.320,20.350 131.320,20.990 131.320,21.630 131.320,22.270 131.507,22.270 131.693,22.270 131.880,22.270 131.880,22.270 131.880,22.270 131.880,22.270 Z " />
  <path stroke="none" fill="none" d="M 129.080,25.270 C 128.827,25.270 128.573,25.270 128.320,25.270 128.320,24.630 128.320,23.990 128.320,23.350 127.883,23.350 127.447,23.350 127.010,23.350 127.000,23.163 126.990,22.977 126.980,22.790 124.453,22.790 121.927,22.790 119.400,22.790 119.303,22.880 119.207,22.970 119.110,23.060 118.817,23.060 118.523,23.060 118.230,23.060 118.200,23.090 118.170,23.120 118.140,23.150 118.140,26.837 118.140,30.523 118.140,34.210 121.787,34.210 125.433,34.210 129.080,34.210 129.080,31.230 129.080,28.250 129.080,25.270 129.080,25.270 129.080,25.270 129.080,25.270 Z " />
  <path stroke="none" fill="none" d="M 159.560,37.760 C 160.680,37.910 161.800,38.060 162.920,38.210 162.703,37.987 162.487,37.763 162.270,37.540 161.367,37.540 160.463,37.540 159.560,37.540 159.560,37.613 159.560,37.687 159.560,37.760 159.560,37.760 159.560,37.760 159.560,37.760 Z " />
  <path stroke="none" fill="none" d="M 161.460,9.690 C 162.737,9.690 164.013,9.690 165.290,9.690 165.290,14.403 165.290,19.117 165.290,23.830 161.723,23.830 158.157,23.830 154.590,23.830 154.590,23.740 154.590,23.650 154.590,23.560 151.673,23.560 148.757,23.560 145.840,23.560 145.840,23.650 145.840,23.740 145.840,23.830 142.200,23.830 138.560,23.830 134.920,23.830 134.920,27.423 134.920,31.017 134.920,34.610 135.957,34.610 136.993,34.610 138.030,34.610 138.030,32.907 138.030,31.203 138.030,29.500 142.523,29.500 147.017,29.500 151.510,29.500 151.510,28.373 151.510,27.247 151.510,26.120 152.327,25.457 153.143,24.793 153.960,24.130 155.023,24.130 156.087,24.130 157.150,24.130 157.150,27.903 157.150,31.677 157.150,35.450 157.453,35.147 157.757,34.843 158.060,34.540 159.963,34.540 161.867,34.540 163.770,34.540 164.270,35.043 164.770,35.547 165.270,36.050 165.457,36.050 165.643,36.050 165.830,36.050 166.040,26.190 166.250,16.330 166.460,6.470 166.063,6.470 165.667,6.470 165.270,6.470 165.270,7.007 165.270,7.543 165.270,8.080 164.770,8.580 164.270,9.080 163.770,9.580 163.000,9.580 162.230,9.580 161.460,9.580 161.460,9.617 161.460,9.653 161.460,9.690 161.460,9.690 161.460,9.690 161.460,9.690 Z " />
  <path stroke="none" fill="none" d="M 172.810,36.050 C 172.950,35.913 173.090,35.777 173.230,35.640 173.230,31.730 173.230,27.820 173.230,23.910 172.927,23.607 172.623,23.303 172.320,23.000 172.320,19.197 172.320,15.393 172.320,11.590 172.820,11.090 173.320,10.590 173.820,10.090 176.557,10.090 179.293,10.090 182.030,10.090 182.430,10.490 182.830,10.890 183.230,11.290 200.380,11.290 217.530,11.290 234.680,11.290 234.680,10.323 234.680,9.357 234.680,8.390 217.530,8.390 200.380,8.390 183.230,8.390 182.830,8.787 182.430,9.183 182.030,9.580 179.293,9.580 176.557,9.580 173.820,9.580 173.320,9.080 172.820,8.580 172.320,8.080 172.320,7.543 172.320,7.007 172.320,6.470 172.057,6.470 171.793,6.470 171.530,6.470 171.737,16.330 171.943,26.190 172.150,36.050 172.370,36.050 172.590,36.050 172.810,36.050 172.810,36.050 172.810,36.050 172.810,36.050 Z " />
  <path stroke="none" fill="none" d="M 170.650,36.050 C 170.443,26.190 170.237,16.330 170.030,6.470 169.340,6.470 168.650,6.470 167.960,6.470 167.753,16.330 167.547,26.190 167.340,36.050 168.443,36.050 169.547,36.050 170.650,36.050 170.650,36.050 170.650,36.050 170.650,36.050 Z " />
  <path stroke="none" fill="none" d="M 265.170,22.840 C 267.630,22.840 270.090,22.840 272.550,22.840 273.257,22.840 273.830,23.413 273.830,24.120 273.830,24.650 273.830,25.180 273.830,25.710 273.830,26.417 273.257,26.990 272.550,26.990 270.090,26.990 267.630,26.990 265.170,26.990 264.463,26.990 263.890,26.417 263.890,25.710 263.890,25.180 263.890,24.650 263.890,24.120 263.890,23.413 264.463,22.840 265.170,22.840 265.170,22.840 265.170,22.840 265.170,22.840 Z " />
  <path stroke="none" fill="none" d="M 180.370,38.370 C 180.180,38.370 179.990,38.370 179.800,38.370 179.320,37.890 178.840,37.410 178.360,36.930 178.200,36.930 178.040,36.930 177.880,36.930 177.510,37.303 177.140,37.677 176.770,38.050 176.120,38.050 175.470,38.050 174.820,38.050 174.487,38.383 174.153,38.717 173.820,39.050 172.273,39.050 170.727,39.050 169.180,39.050 173.287,39.603 177.393,40.157 181.500,40.710 181.123,40.333 180.747,39.957 180.370,39.580 180.370,39.177 180.370,38.773 180.370,38.370 180.370,38.370 180.370,38.370 180.370,38.370 Z " />
  <path stroke="none" fill="none" d="M 295.800,22.840 C 298.260,22.840 300.720,22.840 303.180,22.840 303.887,22.840 304.460,23.413 304.460,24.120 304.460,24.650 304.460,25.180 304.460,25.710 304.460,26.417 303.887,26.990 303.180,26.990 300.720,26.990 298.260,26.990 295.800,26.990 295.093,26.990 294.520,26.417 294.520,25.710 294.520,25.180 294.520,24.650 294.520,24.120 294.520,23.413 295.093,22.840 295.800,22.840 295.800,22.840 295.800,22.840 295.800,22.840 Z " />
  <path stroke="none" fill="none" d="M 280.480,31.780 C 282.940,31.780 285.400,31.780 287.860,31.780 288.567,31.780 289.140,32.353 289.140,33.060 289.140,33.590 289.140,34.120 289.140,34.650 289.140,35.357 288.567,35.930 287.860,35.930 285.400,35.930 282.940,35.930 280.480,35.930 279.773,35.930 279.200,35.357 279.200,34.650 279.200,34.120 279.200,33.590 279.200,33.060 279.200,32.353 279.773,31.780 280.480,31.780 280.480,31.780 280.480,31.780 280.480,31.780 Z " />
  <path stroke="none" fill="none" d="M 311.110,31.780 C 313.570,31.780 316.030,31.780 318.490,31.780 319.197,31.780 319.770,32.353 319.770,33.060 319.770,33.590 319.770,34.120 319.770,34.650 319.770,35.357 319.197,35.930 318.490,35.930 316.030,35.930 313.570,35.930 311.110,35.930 310.403,35.930 309.830,35.357 309.830,34.650 309.830,34.120 309.830,33.590 309.830,33.060 309.830,32.353 310.403,31.780 311.110,31.780 311.110,31.780 311.110,31.780 311.110,31.780 Z " />
  <path stroke="none" fill="none" d="M 280.480,22.840 C 282.940,22.840 285.400,22.840 287.860,22.840 288.567,22.840 289.140,23.413 289.140,24.120 289.140,24.650 289.140,25.180 289.140,25.710 289.140,26.417 288.567,26.990 287.860,26.990 285.400,26.990 282.940,26.990 280.480,26.990 279.773,26.990 279.200,26.417 279.200,25.710 279.200,25.180 279.200,24.650 279.200,24.120 279.200,23.413 279.773,22.840 280.480,22.840 280.480,22.840 280.480,22.840 280.480,22.840 Z " />
  <path stroke="none" fill="none" d="M 295.800,31.780 C 298.260,31.780 300.720,31.780 303.180,31.780 303.887,31.780 304.460,32.353 304.460,33.060 304.460,33.590 304.460,34.120 304.460,34.650 304.460,35.357 303.887,35.930 303.180,35.930 300.720,35.930 298.260,35.930 295.800,35.930 295.093,35.930 294.520,35.357 294.520,34.650 294.520,34.120 294.520,33.590 294.520,33.060 294.520,32.353 295.093,31.780 295.800,31.780 295.800,31.780 295.800,31.780 295.800,31.780 Z " />
  <path stroke="none" fill="none" d="M 311.110,22.840 C 313.570,22.840 316.030,22.840 318.490,22.840 319.197,22.840 319.770,23.413 319.770,24.120 319.770,24.650 319.770,25.180 319.770,25.710 319.770,26.417 319.197,26.990 318.490,26.990 316.030,26.990 313.570,26.990 311.110,26.990 310.403,26.990 309.830,26.417 309.830,25.710 309.830,25.180 309.830,24.650 309.830,24.120 309.830,23.413 310.403,22.840 311.110,22.840 311.110,22.840 311.110,22.840 311.110,22.840 Z " />
  <path stroke="none" fill="none" d="M 344.310,25.810 C 345.173,25.810 346.037,25.810 346.900,25.810 346.900,28.453 346.900,31.097 346.900,33.740 346.037,33.740 345.173,33.740 344.310,33.740 344.310,31.097 344.310,28.453 344.310,25.810 Z " />
  <path stroke="none" fill="none" d="M 276.130,42.590 C 276.130,42.097 276.130,41.603 276.130,41.110 271.030,41.110 265.930,41.110 260.830,41.110 260.830,41.973 260.830,42.837 260.830,43.700 265.220,43.700 269.610,43.700 274.000,43.700 274.800,43.700 276.130,43.550 276.130,42.590 276.130,42.590 276.130,42.590 276.130,42.590 Z " />
  <path stroke="none" fill="none" d="M 339.600,25.790 C 339.307,25.497 339.013,25.203 338.720,24.910 338.720,28.257 338.720,31.603 338.720,34.950 339.013,34.813 339.307,34.677 339.600,34.540 339.600,31.623 339.600,28.707 339.600,25.790 339.600,25.790 339.600,25.790 339.600,25.790 Z " />
  <path stroke="none" fill="none" d="M 337.220,22.970 C 336.883,22.633 336.547,22.297 336.210,21.960 336.210,21.793 336.210,21.627 336.210,21.460 335.883,21.460 335.557,21.460 335.230,21.460 334.960,21.380 334.690,21.300 334.420,21.220 332.710,20.103 331.000,18.987 329.290,17.870 328.643,17.870 327.997,17.870 327.350,17.870 327.350,25.803 327.350,33.737 327.350,41.670 328.010,41.670 328.670,41.670 329.330,41.670 331.047,40.673 332.763,39.677 334.480,38.680 334.730,38.613 334.980,38.547 335.230,38.480 335.557,38.480 335.883,38.480 336.210,38.480 336.210,38.183 336.210,37.887 336.210,37.590 336.547,37.250 336.883,36.910 337.220,36.570 337.220,32.037 337.220,27.503 337.220,22.970 337.220,22.970 337.220,22.970 337.220,22.970 Z " />
  <path stroke="none" fill="none" d="M 318.530,28.490 C 316.053,28.490 313.577,28.490 311.100,28.490 310.363,28.490 309.656,28.197 309.134,27.676 308.613,27.154 308.320,26.447 308.320,25.710 308.320,25.177 308.320,24.643 308.320,24.110 308.320,23.373 308.613,22.666 309.134,22.144 309.656,21.623 310.363,21.330 311.100,21.330 313.563,21.330 316.027,21.330 318.490,21.330 319.227,21.330 319.934,21.623 320.456,22.144 320.977,22.666 321.270,23.373 321.270,24.110 321.270,24.643 321.270,25.177 321.270,25.710 321.270,26.447 320.977,27.154 320.456,27.676 319.934,28.197 319.227,28.490 318.490,28.490 318.503,28.490 318.517,28.490 318.530,28.490 Z M 321.310,34.650 C 321.310,36.185 320.065,37.430 318.530,37.430 316.053,37.430 313.577,37.430 311.100,37.430 309.565,37.430 308.320,36.185 308.320,34.650 308.320,34.117 308.320,33.583 308.320,33.050 308.320,32.313 308.613,31.606 309.134,31.084 309.656,30.563 310.363,30.270 311.100,30.270 313.563,30.270 316.027,30.270 318.490,30.270 319.227,30.270 319.934,30.563 320.456,31.084 320.977,31.606 321.270,32.313 321.270,33.050 321.283,33.583 321.297,34.117 321.310,34.650 Z M 306.000,25.720 C 306.000,26.457 305.707,27.164 305.186,27.686 304.664,28.207 303.957,28.500 303.220,28.500 300.757,28.500 298.293,28.500 295.830,28.500 295.082,28.513 294.361,28.225 293.828,27.700 293.296,27.175 292.997,26.458 293.000,25.710 293.000,25.177 293.000,24.643 293.000,24.110 293.000,23.373 293.293,22.666 293.814,22.144 294.336,21.623 295.043,21.330 295.780,21.330 298.243,21.330 300.707,21.330 303.170,21.330 303.918,21.317 304.639,21.605 305.172,22.130 305.704,22.655 306.003,23.372 306.000,24.120 306.000,24.653 306.000,25.187 306.000,25.720 Z M 306.000,34.650 C 306.000,36.185 304.755,37.430 303.220,37.430 300.757,37.430 298.293,37.430 295.830,37.430 295.084,37.443 294.364,37.156 293.832,36.634 293.300,36.111 293.000,35.396 293.000,34.650 293.000,34.117 293.000,33.583 293.000,33.050 293.000,32.313 293.293,31.606 293.814,31.084 294.336,30.563 295.043,30.270 295.780,30.270 298.243,30.270 300.707,30.270 303.170,30.270 303.916,30.257 304.636,30.544 305.168,31.066 305.700,31.589 306.000,32.304 306.000,33.050 306.000,33.583 306.000,34.117 306.000,34.650 Z M 290.620,25.720 C 290.620,26.457 290.327,27.164 289.806,27.686 289.284,28.207 288.577,28.500 287.840,28.500 285.377,28.500 282.913,28.500 280.450,28.500 279.713,28.500 279.006,28.207 278.484,27.686 277.963,27.164 277.670,26.457 277.670,25.720 277.670,25.187 277.670,24.653 277.670,24.120 277.670,23.383 277.963,22.676 278.484,22.154 279.006,21.633 279.713,21.340 280.450,21.340 282.913,21.340 285.377,21.340 287.840,21.340 288.577,21.340 289.284,21.633 289.806,22.154 290.327,22.676 290.620,23.383 290.620,24.120 290.620,24.653 290.620,25.187 290.620,25.720 Z M 290.620,34.650 C 290.620,36.185 289.375,37.430 287.840,37.430 285.377,37.430 282.913,37.430 280.450,37.430 278.915,37.430 277.670,36.185 277.670,34.650 277.670,34.117 277.670,33.583 277.670,33.050 277.670,32.313 277.963,31.606 278.484,31.084 279.006,30.563 279.713,30.270 280.450,30.270 282.913,30.270 285.377,30.270 287.840,30.270 288.577,30.270 289.284,30.563 289.806,31.084 290.327,31.606 290.620,32.313 290.620,33.050 290.620,33.583 290.620,34.117 290.620,34.650 Z M 275.310,25.720 C 275.310,26.457 275.017,27.164 274.496,27.686 273.974,28.207 273.267,28.500 272.530,28.500 270.067,28.500 267.603,28.500 265.140,28.500 264.403,28.500 263.696,28.207 263.174,27.686 262.653,27.164 262.360,26.457 262.360,25.720 262.360,25.187 262.360,24.653 262.360,24.120 262.360,23.383 262.653,22.676 263.174,22.154 263.696,21.633 264.403,21.340 265.140,21.340 267.603,21.340 270.067,21.340 272.530,21.340 273.267,21.340 273.974,21.633 274.496,22.154 275.017,22.676 275.310,23.383 275.310,24.120 275.310,24.653 275.310,25.187 275.310,25.720 Z M 275.310,34.650 C 275.310,36.185 274.065,37.430 272.530,37.430 270.067,37.430 267.603,37.430 265.140,37.430 263.605,37.430 262.360,36.185 262.360,34.650 262.360,34.117 262.360,33.583 262.360,33.050 262.360,32.313 262.653,31.606 263.174,31.084 263.696,30.563 264.403,30.270 265.140,30.270 267.603,30.270 270.067,30.270 272.530,30.270 273.267,30.270 273.974,30.563 274.496,31.084 275.017,31.606 275.310,32.313 275.310,33.050 275.310,33.583 275.310,34.117 275.310,34.650 Z M 260.000,25.720 C 260.000,26.457 259.707,27.164 259.186,27.686 258.664,28.207 257.957,28.500 257.220,28.500 254.757,28.500 252.293,28.500 249.830,28.500 249.093,28.500 248.386,28.207 247.864,27.686 247.343,27.164 247.050,26.457 247.050,25.720 247.050,25.187 247.050,24.653 247.050,24.120 247.050,23.383 247.343,22.676 247.864,22.154 248.386,21.633 249.093,21.340 249.830,21.340 252.293,21.340 254.757,21.340 257.220,21.340 257.957,21.340 258.664,21.633 259.186,22.154 259.707,22.676 260.000,23.383 260.000,24.120 260.000,24.653 260.000,25.187 260.000,25.720 Z M 260.000,34.650 C 260.000,36.185 258.755,37.430 257.220,37.430 254.757,37.430 252.293,37.430 249.830,37.430 248.295,37.430 247.050,36.185 247.050,34.650 247.050,34.117 247.050,33.583 247.050,33.050 247.050,32.313 247.343,31.606 247.864,31.084 248.386,30.563 249.093,30.270 249.830,30.270 252.293,30.270 254.757,30.270 257.220,30.270 258.755,30.270 260.000,31.515 260.000,33.050 260.000,33.583 260.000,34.117 260.000,34.650 Z M 322.280,16.920 C 296.613,16.920 270.947,16.920 245.280,16.920 245.280,17.323 245.280,17.727 245.280,18.130 244.853,18.547 244.427,18.963 244.000,19.380 244.000,26.123 244.000,32.867 244.000,39.610 255.207,39.610 266.413,39.610 277.620,39.610 277.620,40.610 277.620,41.610 277.620,42.610 277.620,43.870 276.620,45.220 274.000,45.220 269.610,45.220 265.220,45.220 260.830,45.220 260.830,46.040 260.830,46.860 260.830,47.680 267.720,47.680 274.610,47.680 281.500,47.680 281.500,46.493 281.500,45.307 281.500,44.120 282.000,43.620 282.500,43.120 283.000,42.620 296.093,42.620 309.187,42.620 322.280,42.620 322.280,34.053 322.280,25.487 322.280,16.920 Z " />
  <path stroke="none" fill="none" d="M 242.510,43.970 C 242.510,42.793 242.510,41.617 242.510,40.440 228.183,40.440 213.857,40.440 199.530,40.440 199.530,40.577 199.530,40.713 199.530,40.850 199.430,40.850 199.330,40.850 199.230,40.850 199.420,41.037 199.610,41.223 199.800,41.410 199.800,42.077 199.800,42.743 199.800,43.410 200.003,43.603 200.207,43.797 200.410,43.990 214.443,43.990 228.477,43.990 242.510,43.990 242.510,43.983 242.510,43.977 242.510,43.970 242.510,43.970 242.510,43.970 242.510,43.970 Z " />
  <path stroke="none" fill="none" d="M 265.170,31.780 C 267.630,31.780 270.090,31.780 272.550,31.780 273.257,31.780 273.830,32.353 273.830,33.060 273.830,33.590 273.830,34.120 273.830,34.650 273.830,35.357 273.257,35.930 272.550,35.930 270.090,35.930 267.630,35.930 265.170,35.930 264.463,35.930 263.890,35.357 263.890,34.650 263.890,34.120 263.890,33.590 263.890,33.060 263.890,32.353 264.463,31.780 265.170,31.780 265.170,31.780 265.170,31.780 265.170,31.780 Z " />
  <path stroke="none" fill="none" d="M 249.860,22.840 C 252.320,22.840 254.780,22.840 257.240,22.840 257.947,22.840 258.520,23.413 258.520,24.120 258.520,24.650 258.520,25.180 258.520,25.710 258.520,26.417 257.947,26.990 257.240,26.990 254.780,26.990 252.320,26.990 249.860,26.990 249.153,26.990 248.580,26.417 248.580,25.710 248.580,25.180 248.580,24.650 248.580,24.120 248.580,23.413 249.153,22.840 249.860,22.840 249.860,22.840 249.860,22.840 249.860,22.840 Z " />
  <path stroke="none" fill="none" d="M 198.030,38.940 C 212.857,38.940 227.683,38.940 242.510,38.940 242.510,32.503 242.510,26.067 242.510,19.630 227.317,19.630 212.123,19.630 196.930,19.630 196.930,19.743 196.930,19.857 196.930,19.970 196.840,20.060 196.750,20.150 196.660,20.240 196.660,26.597 196.660,32.953 196.660,39.310 196.750,39.400 196.840,39.490 196.930,39.580 196.930,39.690 196.930,39.800 196.930,39.910 197.297,39.910 197.663,39.910 198.030,39.910 198.030,39.587 198.030,39.263 198.030,38.940 198.030,38.940 198.030,38.940 198.030,38.940 Z " />
  <path stroke="none" fill="none" d="M 195.160,21.470 C 191.230,21.470 187.300,21.470 183.370,21.470 183.370,21.873 183.370,22.277 183.370,22.680 183.287,22.763 183.203,22.847 183.120,22.930 183.120,27.490 183.120,32.050 183.120,36.610 183.203,36.697 183.287,36.783 183.370,36.870 183.370,37.273 183.370,37.677 183.370,38.080 187.300,38.080 191.230,38.080 195.160,38.080 195.160,32.543 195.160,27.007 195.160,21.470 195.160,21.470 195.160,21.470 195.160,21.470 Z " />
  <path stroke="none" fill="none" d="M 249.860,31.780 C 252.320,31.780 254.780,31.780 257.240,31.780 257.947,31.780 258.520,32.353 258.520,33.060 258.520,33.590 258.520,34.120 258.520,34.650 258.520,35.357 257.947,35.930 257.240,35.930 254.780,35.930 252.320,35.930 249.860,35.930 249.153,35.930 248.580,35.357 248.580,34.650 248.580,34.120 248.580,33.590 248.580,33.060 248.580,32.353 249.153,31.780 249.860,31.780 249.860,31.780 249.860,31.780 249.860,31.780 Z " />
  <path stroke="none" fill="#ffffffff" d="M 346.890,33.780 C 346.027,33.780 345.163,33.780 344.300,33.780 344.300,31.123 344.300,28.467 344.300,25.810 345.163,25.810 346.027,25.810 346.890,25.810 346.890,28.467 346.890,31.123 346.890,33.780 Z M 338.720,35.000 C 338.720,31.667 338.720,28.333 338.720,25.000 339.013,25.293 339.307,25.587 339.600,25.880 339.600,28.797 339.600,31.713 339.600,34.630 339.307,34.753 339.013,34.877 338.720,35.000 Z M 336.210,38.480 C 335.877,38.480 335.543,38.480 335.210,38.480 334.960,38.547 334.710,38.613 334.460,38.680 332.743,39.680 331.027,40.680 329.310,41.680 328.643,41.680 327.977,41.680 327.310,41.680 327.310,33.743 327.310,25.807 327.310,17.870 327.953,17.870 328.597,17.870 329.240,17.870 330.950,18.987 332.660,20.103 334.370,21.220 334.643,21.300 334.917,21.380 335.190,21.460 335.523,21.460 335.857,21.460 336.190,21.460 336.190,21.640 336.190,21.820 336.190,22.000 336.523,22.333 336.857,22.667 337.190,23.000 337.190,27.533 337.190,32.067 337.190,36.600 336.857,36.933 336.523,37.267 336.190,37.600 336.197,37.893 336.203,38.187 336.210,38.480 Z M 260.830,43.700 C 260.830,42.837 260.830,41.973 260.830,41.110 265.930,41.110 271.030,41.110 276.130,41.110 276.130,41.603 276.130,42.097 276.130,42.590 276.130,43.590 274.800,43.700 274.010,43.700 269.617,43.700 265.223,43.700 260.830,43.700 Z M 283.000,42.620 C 282.500,43.120 282.000,43.620 281.500,44.120 281.500,45.297 281.500,46.473 281.500,47.650 274.610,47.650 267.720,47.650 260.830,47.650 260.830,46.833 260.830,46.017 260.830,45.200 265.220,45.200 269.610,45.200 274.000,45.200 276.670,45.200 277.620,43.850 277.620,42.590 277.620,41.590 277.620,40.590 277.620,39.590 266.413,39.590 255.207,39.590 244.000,39.590 244.000,32.853 244.000,26.117 244.000,19.380 244.417,18.963 244.833,18.547 245.250,18.130 245.250,17.727 245.250,17.323 245.250,16.920 270.917,16.920 296.583,16.920 322.250,16.920 322.250,25.487 322.250,34.053 322.250,42.620 309.167,42.620 296.083,42.620 283.000,42.620 Z M 200.410,44.000 C 200.207,43.807 200.003,43.613 199.800,43.420 199.800,42.753 199.800,42.087 199.800,41.420 199.610,41.230 199.420,41.040 199.230,40.850 199.327,40.850 199.423,40.850 199.520,40.850 199.520,40.717 199.520,40.583 199.520,40.450 213.853,40.450 228.187,40.450 242.520,40.450 242.520,41.633 242.520,42.817 242.520,44.000 228.483,44.000 214.447,44.000 200.410,44.000 Z M 196.940,39.880 C 196.940,39.770 196.940,39.660 196.940,39.550 196.850,39.460 196.760,39.370 196.670,39.280 196.670,32.933 196.670,26.587 196.670,20.240 196.760,20.150 196.850,20.060 196.940,19.970 196.940,19.860 196.940,19.750 196.940,19.640 212.133,19.640 227.327,19.640 242.520,19.640 242.520,26.073 242.520,32.507 242.520,38.940 227.680,38.940 212.840,38.940 198.000,38.940 198.000,39.273 198.000,39.607 198.000,39.940 197.647,39.920 197.293,39.900 196.940,39.880 Z M 183.380,38.050 C 183.380,37.657 183.380,37.263 183.380,36.870 183.293,36.783 183.207,36.697 183.120,36.610 183.120,32.050 183.120,27.490 183.120,22.930 183.207,22.843 183.293,22.757 183.380,22.670 183.380,22.270 183.380,21.870 183.380,21.470 187.310,21.470 191.240,21.470 195.170,21.470 195.170,27.007 195.170,32.543 195.170,38.080 191.240,38.070 187.310,38.060 183.380,38.050 Z M 169.190,39.050 C 170.737,39.050 172.283,39.050 173.830,39.050 174.163,38.717 174.497,38.383 174.830,38.050 175.480,38.050 176.130,38.050 176.780,38.050 177.153,37.677 177.527,37.303 177.900,36.930 178.060,36.930 178.220,36.930 178.380,36.930 178.860,37.410 179.340,37.890 179.820,38.370 180.010,38.370 180.200,38.370 180.390,38.370 180.390,38.773 180.390,39.177 180.390,39.580 180.767,39.957 181.143,40.333 181.520,40.710 177.410,40.157 173.300,39.603 169.190,39.050 Z M 166.280,74.690 C 162.364,74.986 158.576,76.213 155.230,78.270 153.639,79.335 151.866,80.101 150.000,80.530 149.500,80.530 147.560,80.530 145.170,80.530 145.077,80.623 144.983,80.717 144.890,80.810 140.890,80.810 136.890,80.810 132.890,80.810 132.800,80.720 132.710,80.630 132.620,80.540 131.964,80.565 131.325,80.323 130.850,79.870 130.850,79.870 130.850,79.870 130.850,79.870 130.680,79.600 126.590,73.200 125.470,71.600 125.192,71.164 125.192,70.606 125.470,70.170 127.150,68.170 128.880,66.360 130.550,64.570 136.470,58.240 141.550,52.770 139.940,46.930 139.696,46.064 139.288,45.253 138.740,44.540 142.123,44.900 145.507,45.260 148.890,45.620 148.890,46.140 148.890,46.660 148.890,47.180 149.207,48.937 149.976,50.580 151.120,51.950 151.687,52.627 152.309,53.256 152.980,53.830 154.194,54.725 155.124,55.950 155.660,57.360 154.960,59.973 154.260,62.587 153.560,65.200 153.010,67.423 153.831,69.760 155.650,71.150 157.470,72.460 161.440,73.610 165.080,73.610 166.597,73.649 168.107,73.384 169.520,72.830 173.600,71.060 173.520,66.830 173.440,65.400 173.390,59.373 173.340,53.347 173.290,47.320 173.407,47.320 173.523,47.320 173.640,47.320 173.640,53.803 173.640,60.287 173.640,66.770 173.590,73.900 167.000,74.630 166.270,74.700 166.273,74.697 166.277,74.693 166.280,74.690 Z M 156.410,65.910 C 158.127,59.510 159.843,53.110 161.560,46.710 164.453,47.077 167.347,47.443 170.240,47.810 170.287,53.587 170.333,59.363 170.380,65.140 170.380,65.243 170.380,65.347 170.380,65.450 170.430,67.340 170.210,69.200 168.260,70.050 165.180,71.380 159.120,69.970 157.340,68.680 156.550,67.999 156.193,66.941 156.410,65.920 156.410,65.917 156.410,65.913 156.410,65.910 Z M 150.320,45.760 C 153.040,46.050 155.760,46.340 158.480,46.630 157.720,49.460 156.960,52.290 156.200,55.120 155.541,54.221 154.775,53.405 153.920,52.690 153.311,52.174 152.746,51.609 152.230,51.000 151.291,49.864 150.636,48.520 150.320,47.080 150.320,46.640 150.320,46.200 150.320,45.760 Z M 126.590,39.600 C 126.590,38.400 126.590,37.200 126.590,36.000 126.493,35.903 126.397,35.807 126.300,35.710 127.727,35.710 129.153,35.710 130.580,35.710 130.580,32.230 130.580,28.750 130.580,25.270 131.027,25.270 131.473,25.270 131.920,25.270 131.920,29.683 131.920,34.097 131.920,38.510 132.013,38.510 132.107,38.510 132.200,38.510 132.200,38.577 132.200,38.643 132.200,38.710 140.320,38.727 148.440,38.743 156.560,38.760 156.560,38.860 156.560,38.960 156.560,39.060 156.993,39.557 157.427,40.053 157.860,40.550 165.373,41.550 172.887,42.550 180.400,43.550 180.350,44.073 180.300,44.597 180.250,45.120 172.967,44.210 165.683,43.300 158.400,42.390 158.363,42.790 158.327,43.190 158.290,43.590 149.957,42.703 141.623,41.817 133.290,40.930 133.290,40.930 133.290,40.930 133.290,40.930 131.987,40.485 130.649,40.151 129.290,39.930 128.390,39.820 127.490,39.710 126.590,39.600 Z M 114.260,45.440 C 111.530,45.900 104.560,46.770 97.820,47.620 92.940,48.230 88.320,48.810 85.720,49.180 80.355,50.038 75.239,52.044 70.720,55.060 68.440,56.510 64.450,60.230 60.600,63.840 58.370,65.920 56.260,67.890 54.950,68.970 54.840,69.060 54.730,69.150 54.620,69.240 52.165,71.337 49.301,72.900 46.210,73.830 43.694,74.709 41.093,75.326 38.450,75.670 38.017,60.887 37.583,46.103 37.150,31.320 38.860,31.320 41.810,31.380 45.460,31.320 47.964,31.363 50.460,31.621 52.920,32.090 58.600,33.135 64.382,33.517 70.150,33.230 74.610,32.950 79.360,31.230 83.150,29.930 84.808,29.271 86.517,28.750 88.260,28.370 88.360,28.370 98.710,27.970 101.760,27.970 102.760,27.970 103.140,28.380 103.250,28.690 103.250,30.437 103.250,32.183 103.250,33.930 103.847,34.493 104.443,35.057 105.040,35.620 108.893,35.620 112.747,35.620 116.600,35.620 116.600,35.663 116.600,35.707 116.600,35.750 118.600,35.750 120.600,35.750 122.600,35.750 122.510,35.840 122.420,35.930 122.330,36.020 122.330,37.510 122.330,39.490 122.330,40.770 121.390,43.150 118.730,44.690 114.250,45.440 114.253,45.440 114.257,45.440 114.260,45.440 Z M 106.390,22.790 C 106.483,22.790 106.577,22.790 106.670,22.790 107.420,22.790 108.170,22.790 108.920,22.790 108.920,22.860 108.920,22.930 108.920,23.000 109.010,23.090 109.100,23.180 109.190,23.270 109.190,26.373 109.190,29.477 109.190,32.580 108.227,32.580 107.263,32.580 106.300,32.580 106.300,31.273 106.300,29.967 106.300,28.660 106.300,28.660 106.300,28.660 106.300,28.660 106.300,28.660 106.300,27.590 106.300,26.280 106.300,26.027 106.300,25.773 106.300,25.520 106.300,25.520 106.300,25.520 106.300,25.520 106.300,25.313 106.300,25.107 106.300,24.900 106.263,24.196 106.290,23.489 106.380,22.790 106.383,22.790 106.387,22.790 106.390,22.790 Z M 112.740,24.490 C 112.740,27.187 112.740,29.883 112.740,32.580 112.073,32.580 111.407,32.580 110.740,32.580 110.740,29.887 110.740,27.193 110.740,24.500 111.407,24.497 112.073,24.493 112.740,24.490 Z M 116.650,24.490 C 116.650,27.187 116.650,29.883 116.650,32.580 115.847,32.580 115.043,32.580 114.240,32.580 114.240,29.887 114.240,27.193 114.240,24.500 115.043,24.497 115.847,24.493 116.650,24.490 Z M 115.920,10.090 C 115.587,10.423 115.253,10.757 114.920,11.090 112.230,11.090 109.540,11.090 106.850,11.090 106.850,10.270 106.850,9.450 106.850,8.630 109.567,8.630 112.283,8.630 115.000,8.630 115.333,8.963 115.667,9.297 116.000,9.630 117.287,9.630 118.573,9.630 119.860,9.630 119.860,9.800 119.860,9.970 119.860,10.140 118.547,10.123 117.233,10.107 115.920,10.090 Z M 121.700,7.510 C 123.167,7.510 124.633,7.510 126.100,7.510 126.117,7.740 126.133,7.970 126.150,8.200 126.247,8.287 126.343,8.373 126.440,8.460 126.480,8.967 126.520,9.473 126.560,9.980 126.487,9.980 126.413,9.980 126.340,9.980 126.533,13.747 126.727,17.513 126.920,21.280 124.830,21.280 122.740,21.280 120.650,21.280 120.893,18.087 121.137,14.893 121.380,11.700 121.300,11.613 121.220,11.527 121.140,11.440 121.220,10.440 121.300,9.440 121.380,8.440 121.467,8.360 121.553,8.280 121.640,8.200 121.660,7.970 121.680,7.740 121.700,7.510 Z M 130.350,9.580 C 130.350,9.720 130.350,9.860 130.350,10.000 129.587,10.000 128.823,10.000 128.060,10.000 128.060,9.867 128.060,9.733 128.060,9.600 128.823,9.593 129.587,9.587 130.350,9.580 Z M 144.570,4.000 C 149.617,4.000 154.663,4.000 159.710,4.000 159.710,5.360 159.710,6.720 159.710,8.080 159.790,8.160 159.870,8.240 159.950,8.320 159.950,11.780 159.950,15.240 159.950,18.700 155.233,18.163 150.517,17.627 145.800,17.090 145.800,16.907 145.800,16.723 145.800,16.540 145.357,16.497 144.913,16.453 144.470,16.410 144.470,14.237 144.470,12.063 144.470,9.890 144.417,9.890 144.363,9.890 144.310,9.890 144.310,9.383 144.310,8.877 144.310,8.370 144.407,8.273 144.503,8.177 144.600,8.080 144.590,6.720 144.580,5.360 144.570,4.000 Z M 134.930,36.110 C 136.467,36.110 138.003,36.110 139.540,36.110 139.540,34.407 139.540,32.703 139.540,31.000 144.027,31.000 148.513,31.000 153.000,31.000 153.000,29.613 153.000,28.227 153.000,26.840 153.493,26.440 153.987,26.040 154.480,25.640 154.867,25.640 155.253,25.640 155.640,25.640 155.640,29.513 155.640,33.387 155.640,37.260 148.730,37.260 141.820,37.260 134.910,37.260 134.917,36.877 134.923,36.493 134.930,36.110 Z M 131.850,8.250 C 131.883,8.217 131.917,8.183 131.950,8.150 134.660,8.150 137.370,8.150 140.080,8.150 140.080,8.150 140.080,8.150 140.080,8.150 140.080,8.727 140.080,9.303 140.080,9.880 139.990,9.880 139.900,9.880 139.810,9.880 139.810,10.380 139.810,10.880 139.810,11.380 137.230,11.380 134.650,11.380 132.070,11.380 132.070,10.920 132.070,10.460 132.070,10.000 131.980,10.000 131.890,10.000 131.800,10.000 131.817,9.417 131.833,8.833 131.850,8.250 Z M 142.790,9.880 C 142.403,9.880 142.017,9.880 141.630,9.880 141.630,9.780 141.630,9.680 141.630,9.580 142.017,9.580 142.403,9.580 142.790,9.580 142.790,9.680 142.790,9.780 142.790,9.880 Z M 154.580,22.060 C 151.663,22.060 148.747,22.060 145.830,22.060 145.830,20.907 145.830,19.753 145.830,18.600 148.753,18.933 151.677,19.267 154.600,19.600 154.593,20.420 154.587,21.240 154.580,22.060 Z M 161.460,20.380 C 161.460,17.817 161.460,15.253 161.460,12.690 161.737,12.690 162.013,12.690 162.290,12.690 162.290,15.403 162.290,18.117 162.290,20.830 160.720,20.830 159.150,20.830 157.580,20.830 157.580,20.533 157.580,20.237 157.580,19.940 158.873,20.087 160.167,20.233 161.460,20.380 Z M 118.140,34.210 C 118.140,30.523 118.140,26.837 118.140,23.150 118.170,23.120 118.200,23.090 118.230,23.060 118.523,23.060 118.817,23.060 119.110,23.060 119.207,22.970 119.303,22.880 119.400,22.790 121.933,22.790 124.467,22.790 127.000,22.790 127.000,22.977 127.000,23.163 127.000,23.350 127.437,23.350 127.873,23.350 128.310,23.350 128.310,23.987 128.310,24.623 128.310,25.260 128.563,25.260 128.817,25.260 129.070,25.260 129.070,28.240 129.070,31.220 129.070,34.200 125.427,34.203 121.783,34.207 118.140,34.210 Z M 129.860,20.350 C 129.760,18.373 129.660,16.397 129.560,14.420 133.530,14.420 137.500,14.420 141.470,14.420 141.470,15.987 141.470,17.553 141.470,19.120 141.913,19.163 142.357,19.207 142.800,19.250 142.800,19.777 142.800,20.303 142.800,20.830 139.160,20.830 135.520,20.830 131.880,20.830 131.880,21.310 131.880,21.790 131.880,22.270 131.693,22.270 131.507,22.270 131.320,22.270 131.320,21.630 131.320,20.990 131.320,20.350 130.833,20.350 130.347,20.350 129.860,20.350 Z M 162.890,38.230 C 161.770,38.080 160.650,37.930 159.530,37.780 159.530,37.707 159.530,37.633 159.530,37.560 160.430,37.560 161.330,37.560 162.230,37.560 162.450,37.783 162.670,38.007 162.890,38.230 Z M 163.730,9.610 C 164.230,9.110 164.730,8.610 165.230,8.110 165.230,7.563 165.230,7.017 165.230,6.470 165.627,6.470 166.023,6.470 166.420,6.470 166.213,16.330 166.007,26.190 165.800,36.050 165.610,36.050 165.420,36.050 165.230,36.050 164.730,35.547 164.230,35.043 163.730,34.540 161.830,34.540 159.930,34.540 158.030,34.540 157.727,34.843 157.423,35.147 157.120,35.450 157.120,31.677 157.120,27.903 157.120,24.130 156.080,24.130 155.040,24.130 154.000,24.130 153.183,24.797 152.367,25.463 151.550,26.130 151.550,27.253 151.550,28.377 151.550,29.500 147.033,29.500 142.517,29.500 138.000,29.500 138.000,31.200 138.000,32.900 138.000,34.600 136.963,34.600 135.927,34.600 134.890,34.600 134.890,31.010 134.890,27.420 134.890,23.830 138.530,23.830 142.170,23.830 145.810,23.830 145.810,23.740 145.810,23.650 145.810,23.560 148.723,23.560 151.637,23.560 154.550,23.560 154.550,23.650 154.550,23.740 154.550,23.830 158.120,23.830 161.690,23.830 165.260,23.830 165.260,19.117 165.260,14.403 165.260,9.690 163.983,9.690 162.707,9.690 161.430,9.690 161.430,9.653 161.430,9.617 161.430,9.580 162.197,9.590 162.963,9.600 163.730,9.610 Z M 169.990,6.500 C 170.197,16.360 170.403,26.220 170.610,36.080 169.507,36.080 168.403,36.080 167.300,36.080 167.533,26.210 167.767,16.340 168.000,6.470 168.663,6.480 169.327,6.490 169.990,6.500 Z M 172.280,6.500 C 172.280,7.027 172.280,7.553 172.280,8.080 172.780,8.580 173.280,9.080 173.780,9.580 176.520,9.580 179.260,9.580 182.000,9.580 182.400,9.180 182.800,8.780 183.200,8.380 200.353,8.380 217.507,8.380 234.660,8.380 234.660,9.347 234.660,10.313 234.660,11.280 217.517,11.280 200.373,11.280 183.230,11.280 182.830,10.880 182.430,10.480 182.030,10.080 179.293,10.080 176.557,10.080 173.820,10.080 173.320,10.580 172.820,11.080 172.320,11.580 172.320,15.387 172.320,19.193 172.320,23.000 172.623,23.303 172.927,23.607 173.230,23.910 173.230,27.820 173.230,31.730 173.230,35.640 173.093,35.777 172.957,35.913 172.820,36.050 172.600,36.050 172.380,36.050 172.160,36.050 171.953,26.190 171.747,16.330 171.540,6.470 171.787,6.480 172.033,6.490 172.280,6.500 Z M 175.500,24.500 C 175.500,28.000 175.500,31.500 175.500,35.000 175.230,35.000 174.960,35.000 174.690,35.000 174.690,31.500 174.690,28.000 174.690,24.500 174.960,24.500 175.230,24.500 175.500,24.500 Z M 177.000,33.930 C 177.000,31.157 177.000,28.383 177.000,25.610 177.843,25.610 178.687,25.610 179.530,25.610 179.530,28.383 179.530,31.157 179.530,33.930 178.687,33.930 177.843,33.930 177.000,33.930 Z M 181.620,24.180 C 181.620,27.910 181.620,31.640 181.620,35.370 181.493,35.370 181.367,35.370 181.240,35.370 181.183,35.313 181.127,35.257 181.070,35.200 181.070,31.580 181.070,27.960 181.070,24.340 181.127,24.283 181.183,24.227 181.240,24.170 181.367,24.173 181.493,24.177 181.620,24.180 Z M 259.340,45.180 C 259.340,46.000 259.340,46.820 259.340,47.640 257.477,47.640 255.613,47.640 253.750,47.640 253.700,47.687 253.650,47.733 253.600,47.780 252.627,47.780 251.653,47.780 250.680,47.780 250.630,47.733 250.580,47.687 250.530,47.640 248.777,47.640 247.023,47.640 245.270,47.640 245.270,46.923 245.270,46.207 245.270,45.490 244.880,45.100 244.490,44.710 244.100,44.320 244.100,43.250 244.100,42.180 244.100,41.110 249.183,41.110 254.267,41.110 259.350,41.110 259.347,42.467 259.343,43.823 259.340,45.180 Z M 324.340,43.180 C 324.340,43.197 324.340,43.213 324.340,43.230 324.150,43.040 323.960,42.850 323.770,42.660 323.770,34.070 323.770,25.480 323.770,16.890 323.960,16.700 324.150,16.510 324.340,16.320 324.840,16.837 325.340,17.353 325.840,17.870 325.840,25.803 325.840,33.737 325.840,41.670 325.340,42.173 324.840,42.677 324.340,43.180 Z M 342.050,34.760 C 341.827,34.760 341.603,34.760 341.380,34.760 341.283,34.680 341.187,34.600 341.090,34.520 341.090,31.520 341.090,28.520 341.090,25.520 341.343,25.267 341.597,25.013 341.850,24.760 341.913,24.760 341.977,24.760 342.040,24.760 342.290,25.010 342.540,25.260 342.790,25.510 342.790,28.340 342.790,31.170 342.790,34.000 342.543,34.253 342.297,34.507 342.050,34.760 Z M 348.390,22.810 C 347.027,22.810 345.663,22.810 344.300,22.810 344.300,22.330 344.300,21.850 344.300,21.370 343.043,21.370 341.787,21.370 340.530,21.370 340.227,21.067 339.923,20.763 339.620,20.460 339.483,20.460 339.347,20.460 339.210,20.460 339.210,20.307 339.210,20.153 339.210,20.000 338.710,19.500 338.210,19.000 337.710,18.500 337.043,18.500 336.377,18.500 335.710,18.500 334.000,17.383 332.290,16.267 330.580,15.150 330.307,15.070 330.033,14.990 329.760,14.910 328.967,14.910 328.173,14.910 327.380,14.910 327.380,14.807 327.380,14.703 327.380,14.600 327.380,14.600 327.380,14.600 327.380,14.600 327.380,14.090 327.380,13.580 327.380,13.070 325.690,13.070 324.000,13.070 322.310,13.070 322.310,13.353 322.310,13.637 322.310,13.920 296.127,13.920 269.943,13.920 243.760,13.920 243.260,14.420 242.760,14.920 242.260,15.420 242.260,15.823 242.260,16.227 242.260,16.630 226.650,16.630 211.040,16.630 195.430,16.630 194.930,17.130 194.430,17.630 193.930,18.130 193.930,18.240 193.930,18.350 193.930,18.460 189.910,18.460 185.890,18.460 181.870,18.460 181.370,18.960 180.870,19.460 180.370,19.960 180.370,20.363 180.370,20.767 180.370,21.170 180.180,21.170 179.990,21.170 179.800,21.170 179.320,21.650 178.840,22.130 178.360,22.610 178.200,22.610 178.040,22.610 177.880,22.610 177.507,22.237 177.133,21.863 176.760,21.490 176.277,21.490 175.793,21.490 175.310,21.490 175.310,18.690 175.310,15.890 175.310,13.090 177.150,13.090 178.990,13.090 180.830,13.090 181.230,13.490 181.630,13.890 182.030,14.290 200.080,14.290 218.130,14.290 236.180,14.290 236.680,13.790 237.180,13.290 237.680,12.790 237.680,10.823 237.680,8.857 237.680,6.890 237.180,6.390 236.680,5.890 236.180,5.390 218.120,5.390 200.060,5.390 182.000,5.390 181.600,5.790 181.200,6.190 180.800,6.590 178.960,6.590 177.120,6.590 175.280,6.590 175.280,6.060 175.280,5.530 175.280,5.000 174.780,4.500 174.280,4.000 173.780,3.500 172.997,3.500 172.213,3.500 171.430,3.500 171.430,3.007 171.430,2.513 171.430,2.020 169.803,2.020 168.177,2.020 166.550,2.020 166.550,2.513 166.550,3.007 166.550,3.500 165.633,3.500 164.717,3.500 163.800,3.500 163.450,3.850 163.100,4.200 162.750,4.550 162.750,3.883 162.750,3.217 162.750,2.550 162.240,2.033 161.730,1.517 161.220,1.000 155.170,1.000 149.120,1.000 143.070,1.000 142.570,1.500 142.070,2.000 141.570,2.500 141.570,3.400 141.570,4.300 141.570,5.200 141.550,5.183 141.530,5.167 141.510,5.150 137.843,5.150 134.177,5.150 130.510,5.150 130.030,5.630 129.550,6.110 129.070,6.590 129.037,6.360 129.003,6.130 128.970,5.900 128.470,5.440 127.970,4.980 127.470,4.520 125.080,4.520 122.690,4.520 120.300,4.520 119.800,4.983 119.300,5.447 118.800,5.910 118.783,6.140 118.767,6.370 118.750,6.600 118.123,6.600 117.497,6.600 116.870,6.600 116.537,6.267 116.203,5.933 115.870,5.600 112.377,5.600 108.883,5.600 105.390,5.600 104.890,6.100 104.390,6.600 103.890,7.100 103.890,8.907 103.890,10.713 103.890,12.520 104.390,13.020 104.890,13.520 105.390,14.020 108.900,14.020 112.410,14.020 115.920,14.020 116.253,13.687 116.587,13.353 116.920,13.020 117.380,13.020 117.840,13.020 118.300,13.020 118.123,15.353 117.947,17.687 117.770,20.020 117.460,20.020 117.150,20.020 116.840,20.020 116.447,20.413 116.053,20.807 115.660,21.200 115.173,20.713 114.687,20.227 114.200,19.740 113.787,19.740 113.373,19.740 112.960,19.740 112.530,20.160 112.100,20.580 111.670,21.000 111.250,20.580 110.830,20.160 110.410,19.740 109.160,19.740 107.910,19.740 106.660,19.740 105.769,19.680 104.893,19.991 104.240,20.600 103.240,21.600 103.240,22.960 103.240,24.870 103.240,24.940 103.240,25.010 103.240,25.080 102.754,24.950 102.253,24.886 101.750,24.890 98.650,24.890 88.560,25.270 88.040,25.300 86.020,25.672 84.043,26.248 82.140,27.020 78.540,28.340 74.000,29.940 70.000,30.190 64.449,30.457 58.886,30.085 53.420,29.080 50.782,28.577 48.105,28.306 45.420,28.270 39.800,28.420 35.750,28.270 35.710,28.270 35.190,28.783 34.670,29.297 34.150,29.810 34.603,45.653 35.057,61.497 35.510,77.340 36.007,77.830 36.503,78.320 37.000,78.810 40.466,78.561 43.881,77.837 47.150,76.660 50.577,75.613 53.752,73.874 56.480,71.550 56.587,71.463 56.693,71.377 56.800,71.290 58.190,70.160 60.330,68.150 62.600,66.040 66.180,62.690 70.240,58.900 72.290,57.600 76.459,54.813 81.179,52.957 86.130,52.160 88.710,51.790 93.310,51.210 98.130,50.600 104.900,49.750 111.900,48.870 114.690,48.400 119.980,47.510 123.320,45.550 124.850,42.400 126.183,42.553 127.517,42.707 128.850,42.860 131.500,43.340 136.080,44.610 136.950,47.710 138.140,51.920 133.560,56.810 128.260,62.480 126.540,64.320 124.770,66.220 123.020,68.260 122.990,68.297 122.960,68.333 122.930,68.370 121.910,69.848 121.910,71.802 122.930,73.280 124.020,74.830 128.200,81.380 128.270,81.500 128.959,82.398 129.932,83.036 131.030,83.310 131.030,83.493 131.030,83.677 131.030,83.860 131.530,84.360 132.030,84.860 132.530,85.360 133.650,85.360 134.770,85.360 135.890,85.360 136.076,85.760 136.337,86.120 136.660,86.420 136.660,88.220 136.660,90.020 136.660,91.820 136.660,92.592 137.072,93.305 137.740,93.691 138.408,94.076 139.232,94.076 139.900,93.691 140.568,93.305 140.980,92.592 140.980,91.820 140.980,90.020 140.980,88.220 140.980,86.420 141.303,86.120 141.565,85.760 141.750,85.360 142.870,85.360 143.990,85.360 145.110,85.360 145.610,84.863 146.110,84.367 146.610,83.870 146.610,83.747 146.610,83.623 146.610,83.500 147.773,83.500 148.937,83.500 150.100,83.500 150.170,83.500 150.240,83.500 150.310,83.500 152.635,83.037 154.845,82.115 156.810,80.790 159.738,78.993 163.054,77.923 166.480,77.670 169.970,77.410 176.560,74.800 176.560,66.750 176.560,60.590 176.560,54.430 176.560,48.270 178.157,48.450 179.753,48.630 181.350,48.810 181.900,48.360 182.450,47.910 183.000,47.460 183.160,45.793 183.320,44.127 183.480,42.460 183.120,42.007 182.760,41.553 182.400,41.100 186.227,41.100 190.053,41.100 193.880,41.100 193.880,41.210 193.880,41.320 193.880,41.430 194.380,41.930 194.880,42.430 195.380,42.930 195.837,42.930 196.293,42.930 196.750,42.930 196.750,43.310 196.750,43.690 196.750,44.070 196.907,44.433 197.063,44.797 197.220,45.160 197.727,45.640 198.233,46.120 198.740,46.600 199.073,46.737 199.407,46.873 199.740,47.010 213.887,47.010 228.033,47.010 242.180,47.010 242.180,47.733 242.180,48.457 242.180,49.180 242.680,49.680 243.180,50.180 243.680,50.680 245.550,50.680 247.420,50.680 249.290,50.680 249.413,50.968 249.571,51.240 249.760,51.490 249.760,53.363 249.760,55.237 249.760,57.110 249.760,56.317 250.183,55.584 250.870,55.187 251.557,54.791 252.403,54.791 253.090,55.187 253.777,55.584 254.200,56.317 254.200,57.110 254.200,55.300 254.200,53.490 254.200,51.680 254.461,51.382 254.674,51.044 254.830,50.680 264.220,50.680 273.610,50.680 283.000,50.680 283.500,50.180 284.000,49.680 284.500,49.180 284.500,47.993 284.500,46.807 284.500,45.620 297.093,45.620 309.687,45.620 322.280,45.620 322.280,45.907 322.280,46.193 322.280,46.480 323.970,46.480 325.660,46.480 327.350,46.480 327.350,45.987 327.350,45.493 327.350,45.000 327.350,45.000 327.350,45.000 327.350,45.000 327.350,44.897 327.350,44.793 327.350,44.690 328.143,44.690 328.937,44.690 329.730,44.690 329.980,44.623 330.230,44.557 330.480,44.490 332.197,43.490 333.913,42.490 335.630,41.490 336.320,41.490 337.010,41.490 337.700,41.490 338.200,40.990 338.700,40.490 339.200,39.990 339.200,39.693 339.200,39.397 339.200,39.100 339.337,39.100 339.473,39.100 339.610,39.100 339.970,38.733 340.330,38.367 340.690,38.000 341.897,38.000 343.103,38.000 344.310,38.000 344.310,37.577 344.310,37.153 344.310,36.730 345.673,36.730 347.037,36.730 348.400,36.730 348.900,36.230 349.400,35.730 349.900,35.230 349.900,31.590 349.900,27.950 349.900,24.310 349.397,23.810 348.893,23.310 348.390,22.810 Z " />
  <path stroke="none" fill="#ffffffff" d="M 319.770,25.710 C 319.773,26.051 319.639,26.379 319.399,26.622 319.158,26.864 318.831,27.000 318.490,27.000 316.027,27.000 313.563,27.000 311.100,27.000 310.393,27.000 309.820,26.427 309.820,25.720 309.820,25.187 309.820,24.653 309.820,24.120 309.820,23.413 310.393,22.840 311.100,22.840 313.563,22.840 316.027,22.840 318.490,22.840 319.197,22.840 319.770,23.413 319.770,24.120 319.770,24.650 319.770,25.180 319.770,25.710 Z M 318.490,21.340 C 316.027,21.340 313.563,21.340 311.100,21.340 310.363,21.340 309.656,21.633 309.134,22.154 308.613,22.676 308.320,23.383 308.320,24.120 308.320,24.653 308.320,25.187 308.320,25.720 308.320,26.457 308.613,27.164 309.134,27.686 309.656,28.207 310.363,28.500 311.100,28.500 313.563,28.500 316.027,28.500 318.490,28.500 319.227,28.500 319.934,28.207 320.456,27.686 320.977,27.164 321.270,26.457 321.270,25.720 321.270,25.187 321.270,24.653 321.270,24.120 321.270,23.383 320.977,22.676 320.456,22.154 319.934,21.633 319.227,21.340 318.490,21.340 318.490,21.340 318.490,21.340 318.490,21.340 Z " />
  <path stroke="none" fill="#ffffffff" d="M 319.770,34.650 C 319.770,35.357 319.197,35.930 318.490,35.930 316.027,35.930 313.563,35.930 311.100,35.930 310.393,35.930 309.820,35.357 309.820,34.650 309.820,34.117 309.820,33.583 309.820,33.050 309.820,32.343 310.393,31.770 311.100,31.770 313.563,31.770 316.027,31.770 318.490,31.770 319.197,31.770 319.770,32.343 319.770,33.050 319.770,33.583 319.770,34.117 319.770,34.650 Z M 318.490,30.280 C 316.027,30.280 313.563,30.280 311.100,30.280 310.363,30.280 309.656,30.573 309.134,31.094 308.613,31.616 308.320,32.323 308.320,33.060 308.320,33.593 308.320,34.127 308.320,34.660 308.320,36.195 309.565,37.440 311.100,37.440 313.563,37.440 316.027,37.440 318.490,37.440 320.025,37.440 321.270,36.195 321.270,34.660 321.270,34.127 321.270,33.593 321.270,33.060 321.270,32.323 320.977,31.616 320.456,31.094 319.934,30.573 319.227,30.280 318.490,30.280 318.490,30.280 318.490,30.280 318.490,30.280 Z " />
  <path stroke="none" fill="#ffffffff" d="M 304.460,25.710 C 304.463,26.051 304.329,26.379 304.089,26.622 303.848,26.864 303.521,27.000 303.180,27.000 300.717,27.000 298.253,27.000 295.790,27.000 295.083,27.000 294.510,26.427 294.510,25.720 294.510,25.187 294.510,24.653 294.510,24.120 294.510,23.413 295.083,22.840 295.790,22.840 298.253,22.840 300.717,22.840 303.180,22.840 303.887,22.840 304.460,23.413 304.460,24.120 304.460,24.650 304.460,25.180 304.460,25.710 Z M 303.180,21.340 C 300.717,21.340 298.253,21.340 295.790,21.340 295.051,21.337 294.341,21.629 293.818,22.151 293.294,22.672 293.000,23.381 293.000,24.120 293.000,24.653 293.000,25.187 293.000,25.720 293.000,26.457 293.293,27.164 293.814,27.686 294.336,28.207 295.043,28.500 295.780,28.500 298.243,28.500 300.707,28.500 303.170,28.500 303.918,28.513 304.639,28.225 305.172,27.700 305.704,27.175 306.003,26.458 306.000,25.710 306.000,25.177 306.000,24.643 306.000,24.110 305.997,23.367 305.698,22.657 305.168,22.136 304.638,21.616 303.923,21.329 303.180,21.340 303.180,21.340 303.180,21.340 303.180,21.340 Z " />
  <path stroke="none" fill="#ffffffff" d="M 304.460,34.650 C 304.460,35.357 303.887,35.930 303.180,35.930 300.717,35.930 298.253,35.930 295.790,35.930 295.083,35.930 294.510,35.357 294.510,34.650 294.510,34.117 294.510,33.583 294.510,33.050 294.510,32.343 295.083,31.770 295.790,31.770 298.253,31.770 300.717,31.770 303.180,31.770 303.887,31.770 304.460,32.343 304.460,33.050 304.460,33.583 304.460,34.117 304.460,34.650 Z M 303.180,30.280 C 300.717,30.280 298.253,30.280 295.790,30.280 295.053,30.277 294.345,30.568 293.821,31.087 293.298,31.607 293.003,32.313 293.000,33.050 293.000,33.583 293.000,34.117 293.000,34.650 293.000,36.185 294.245,37.430 295.780,37.430 298.243,37.430 300.707,37.430 303.170,37.430 303.916,37.443 304.636,37.156 305.168,36.634 305.700,36.111 306.000,35.396 306.000,34.650 306.000,34.117 306.000,33.583 306.000,33.050 305.997,32.307 305.698,31.597 305.168,31.076 304.638,30.556 303.923,30.269 303.180,30.280 303.180,30.280 303.180,30.280 303.180,30.280 Z " />
  <path stroke="none" fill="#ffffffff" d="M 289.150,25.710 C 289.153,26.051 289.019,26.379 288.779,26.622 288.538,26.864 288.211,27.000 287.870,27.000 285.407,27.000 282.943,27.000 280.480,27.000 279.773,27.000 279.200,26.427 279.200,25.720 279.200,25.187 279.200,24.653 279.200,24.120 279.200,23.413 279.773,22.840 280.480,22.840 282.943,22.840 285.407,22.840 287.870,22.840 288.577,22.840 289.150,23.413 289.150,24.120 289.150,24.650 289.150,25.180 289.150,25.710 Z M 287.870,21.340 C 285.407,21.340 282.943,21.340 280.480,21.340 279.743,21.340 279.036,21.633 278.514,22.154 277.993,22.676 277.700,23.383 277.700,24.120 277.700,24.653 277.700,25.187 277.700,25.720 277.700,26.457 277.993,27.164 278.514,27.686 279.036,28.207 279.743,28.500 280.480,28.500 282.943,28.500 285.407,28.500 287.870,28.500 288.607,28.500 289.314,28.207 289.836,27.686 290.357,27.164 290.650,26.457 290.650,25.720 290.650,25.187 290.650,24.653 290.650,24.120 290.650,23.383 290.357,22.676 289.836,22.154 289.314,21.633 288.607,21.340 287.870,21.340 287.870,21.340 287.870,21.340 287.870,21.340 Z " />
  <path stroke="none" fill="#ffffffff" d="M 289.150,34.650 C 289.150,35.357 288.577,35.930 287.870,35.930 285.407,35.930 282.943,35.930 280.480,35.930 279.773,35.930 279.200,35.357 279.200,34.650 279.200,34.117 279.200,33.583 279.200,33.050 279.200,32.343 279.773,31.770 280.480,31.770 282.943,31.770 285.407,31.770 287.870,31.770 288.577,31.770 289.150,32.343 289.150,33.050 289.150,33.583 289.150,34.117 289.150,34.650 Z M 287.870,30.280 C 285.407,30.280 282.943,30.280 280.480,30.280 279.743,30.280 279.036,30.573 278.514,31.094 277.993,31.616 277.700,32.323 277.700,33.060 277.700,33.593 277.700,34.127 277.700,34.660 277.700,36.195 278.945,37.440 280.480,37.440 282.943,37.440 285.407,37.440 287.870,37.440 289.405,37.440 290.650,36.195 290.650,34.660 290.650,34.127 290.650,33.593 290.650,33.060 290.650,32.323 290.357,31.616 289.836,31.094 289.314,30.573 288.607,30.280 287.870,30.280 287.870,30.280 287.870,30.280 287.870,30.280 Z " />
  <path stroke="none" fill="#ffffffff" d="M 273.840,25.710 C 273.843,26.051 273.709,26.379 273.469,26.622 273.228,26.864 272.901,27.000 272.560,27.000 270.097,27.000 267.633,27.000 265.170,27.000 264.463,27.000 263.890,26.427 263.890,25.720 263.890,25.187 263.890,24.653 263.890,24.120 263.890,23.413 264.463,22.840 265.170,22.840 267.633,22.840 270.097,22.840 272.560,22.840 273.267,22.840 273.840,23.413 273.840,24.120 273.840,24.650 273.840,25.180 273.840,25.710 Z M 272.560,21.340 C 270.097,21.340 267.633,21.340 265.170,21.340 264.433,21.340 263.726,21.633 263.204,22.154 262.683,22.676 262.390,23.383 262.390,24.120 262.390,24.653 262.390,25.187 262.390,25.720 262.390,26.457 262.683,27.164 263.204,27.686 263.726,28.207 264.433,28.500 265.170,28.500 267.633,28.500 270.097,28.500 272.560,28.500 273.297,28.500 274.004,28.207 274.526,27.686 275.047,27.164 275.340,26.457 275.340,25.720 275.340,25.187 275.340,24.653 275.340,24.120 275.340,23.383 275.047,22.676 274.526,22.154 274.004,21.633 273.297,21.340 272.560,21.340 272.560,21.340 272.560,21.340 272.560,21.340 Z " />
  <path stroke="none" fill="#ffffffff" d="M 273.840,34.650 C 273.840,35.357 273.267,35.930 272.560,35.930 270.097,35.930 267.633,35.930 265.170,35.930 264.463,35.930 263.890,35.357 263.890,34.650 263.890,34.117 263.890,33.583 263.890,33.050 263.890,32.343 264.463,31.770 265.170,31.770 267.633,31.770 270.097,31.770 272.560,31.770 273.267,31.770 273.840,32.343 273.840,33.050 273.840,33.583 273.840,34.117 273.840,34.650 Z M 272.560,30.280 C 270.097,30.280 267.633,30.280 265.170,30.280 264.433,30.280 263.726,30.573 263.204,31.094 262.683,31.616 262.390,32.323 262.390,33.060 262.390,33.593 262.390,34.127 262.390,34.660 262.390,36.195 263.635,37.440 265.170,37.440 267.633,37.440 270.097,37.440 272.560,37.440 274.095,37.440 275.340,36.195 275.340,34.660 275.340,34.127 275.340,33.593 275.340,33.060 275.340,32.323 275.047,31.616 274.526,31.094 274.004,30.573 273.297,30.280 272.560,30.280 272.560,30.280 272.560,30.280 272.560,30.280 Z " />
  <path stroke="none" fill="#ffffffff" d="M 258.520,25.710 C 258.523,26.051 258.389,26.379 258.149,26.622 257.908,26.864 257.581,27.000 257.240,27.000 254.777,27.000 252.313,27.000 249.850,27.000 249.143,27.000 248.570,26.427 248.570,25.720 248.570,25.187 248.570,24.653 248.570,24.120 248.570,23.413 249.143,22.840 249.850,22.840 252.313,22.840 254.777,22.840 257.240,22.840 257.947,22.840 258.520,23.413 258.520,24.120 258.520,24.650 258.520,25.180 258.520,25.710 Z M 257.240,21.340 C 254.777,21.340 252.313,21.340 249.850,21.340 249.113,21.340 248.406,21.633 247.884,22.154 247.363,22.676 247.070,23.383 247.070,24.120 247.070,24.653 247.070,25.187 247.070,25.720 247.070,26.457 247.363,27.164 247.884,27.686 248.406,28.207 249.113,28.500 249.850,28.500 252.313,28.500 254.777,28.500 257.240,28.500 258.771,28.489 260.006,27.241 260.000,25.710 260.000,25.177 260.000,24.643 260.000,24.110 259.995,22.586 258.764,21.351 257.240,21.340 257.240,21.340 257.240,21.340 257.240,21.340 Z " />
  <path stroke="none" fill="#ffffffff" d="M 258.520,34.650 C 258.520,35.357 257.947,35.930 257.240,35.930 254.777,35.930 252.313,35.930 249.850,35.930 249.143,35.930 248.570,35.357 248.570,34.650 248.570,34.117 248.570,33.583 248.570,33.050 248.570,32.343 249.143,31.770 249.850,31.770 252.313,31.770 254.777,31.770 257.240,31.770 257.947,31.770 258.520,32.343 258.520,33.050 258.520,33.583 258.520,34.117 258.520,34.650 Z M 257.240,30.280 C 254.777,30.280 252.313,30.280 249.850,30.280 249.113,30.280 248.406,30.573 247.884,31.094 247.363,31.616 247.070,32.323 247.070,33.060 247.070,33.593 247.070,34.127 247.070,34.660 247.070,36.195 248.315,37.440 249.850,37.440 252.313,37.440 254.777,37.440 257.240,37.440 258.771,37.429 260.006,36.181 260.000,34.650 260.000,34.117 260.000,33.583 260.000,33.050 259.995,31.526 258.764,30.291 257.240,30.280 257.240,30.280 257.240,30.280 257.240,30.280 Z " />
</svg>